<?xml version="1.0" encoding="UTF-8" standalone="no"?>
<!DOCTYPE svg PUBLIC "-//W3C//DTD SVG 1.1//EN"
 "http://www.w3.org/Graphics/SVG/1.1/DTD/svg11.dtd">
<!-- Generated by graphviz version 2.42.4 (0)
 -->
<!-- Title: aifffile.h Pages: 1 -->
<svg width="1205pt" height="357pt"
 viewBox="0.00 0.00 1204.50 357.00" xmlns="http://www.w3.org/2000/svg" xmlns:xlink="http://www.w3.org/1999/xlink">
<g id="graph0" class="graph" transform="scale(1 1) rotate(0) translate(4 353)">
<title>aifffile.h</title>
<!-- Node1 -->
<g id="Node000001" class="node">
<title>Node1</title>
<g id="a_Node000001"><a xlink:title=" ">
<polygon fill="#999999" stroke="#666666" points="382,-349 326,-349 326,-330 382,-330 382,-349"/>
<text text-anchor="middle" x="354" y="-337" font-family="Helvetica,sans-Serif" font-size="10.00">aifffile.h</text>
</a>
</g>
</g>
<!-- Node2 -->
<g id="Node000002" class="node">
<title>Node2</title>
<g id="a_Node000002"><a xlink:href="rifffile_8h.html" target="_top" xlink:title=" ">
<polygon fill="white" stroke="#666666" points="248,-294 194,-294 194,-275 248,-275 248,-294"/>
<text text-anchor="middle" x="221" y="-282" font-family="Helvetica,sans-Serif" font-size="10.00">rifffile.h</text>
</a>
</g>
</g>
<!-- Node1&#45;&gt;Node2 -->
<g id="edge1_Node000001_Node000002" class="edge">
<title>Node1&#45;&gt;Node2</title>
<g id="a_edge1_Node000001_Node000002"><a xlink:title=" ">
<path fill="none" stroke="#63b8ff" d="M332.63,-329.98C310.85,-321.3 276.84,-307.75 252.08,-297.88"/>
<polygon fill="#63b8ff" stroke="#63b8ff" points="253.34,-294.62 242.76,-294.17 250.75,-301.12 253.34,-294.62"/>
</a>
</g>
</g>
<!-- Node24 -->
<g id="Node000024" class="node">
<title>Node24</title>
<g id="a_Node000024"><a xlink:href="id3v2tag_8h.html" target="_top" xlink:title=" ">
<polygon fill="white" stroke="#666666" points="728,-294 660,-294 660,-275 728,-275 728,-294"/>
<text text-anchor="middle" x="694" y="-282" font-family="Helvetica,sans-Serif" font-size="10.00">id3v2tag.h</text>
</a>
</g>
</g>
<!-- Node1&#45;&gt;Node24 -->
<g id="edge37_Node000001_Node000024" class="edge">
<title>Node1&#45;&gt;Node24</title>
<g id="a_edge37_Node000001_Node000024"><a xlink:title=" ">
<path fill="none" stroke="#63b8ff" d="M382.11,-334.12C441.25,-324.9 578.91,-303.44 649.91,-292.37"/>
<polygon fill="#63b8ff" stroke="#63b8ff" points="650.54,-295.82 659.88,-290.82 649.46,-288.9 650.54,-295.82"/>
</a>
</g>
</g>
<!-- Node29 -->
<g id="Node000029" class="node">
<title>Node29</title>
<g id="a_Node000029"><a xlink:href="aiffproperties_8h.html" target="_top" xlink:title=" ">
<polygon fill="white" stroke="#666666" points="399.5,-184 308.5,-184 308.5,-165 399.5,-165 399.5,-184"/>
<text text-anchor="middle" x="354" y="-172" font-family="Helvetica,sans-Serif" font-size="10.00">aiffproperties.h</text>
</a>
</g>
</g>
<!-- Node1&#45;&gt;Node29 -->
<g id="edge56_Node000001_Node000029" class="edge">
<title>Node1&#45;&gt;Node29</title>
<g id="a_edge56_Node000001_Node000029"><a xlink:title=" ">
<path fill="none" stroke="#63b8ff" d="M354,-329.74C354,-304.31 354,-230.08 354,-194.69"/>
<polygon fill="#63b8ff" stroke="#63b8ff" points="357.5,-194.31 354,-184.31 350.5,-194.31 357.5,-194.31"/>
</a>
</g>
</g>
<!-- Node3 -->
<g id="Node000003" class="node">
<title>Node3</title>
<g id="a_Node000003"><a xlink:href="tfile_8h.html" target="_top" xlink:title=" ">
<polygon fill="white" stroke="#666666" points="186,-239 142,-239 142,-220 186,-220 186,-239"/>
<text text-anchor="middle" x="164" y="-227" font-family="Helvetica,sans-Serif" font-size="10.00">tfile.h</text>
</a>
</g>
</g>
<!-- Node2&#45;&gt;Node3 -->
<g id="edge2_Node000002_Node000003" class="edge">
<title>Node2&#45;&gt;Node3</title>
<g id="a_edge2_Node000002_Node000003"><a xlink:title=" ">
<path fill="none" stroke="#63b8ff" d="M211.84,-274.98C203.5,-267.23 190.97,-255.58 180.82,-246.14"/>
<polygon fill="#63b8ff" stroke="#63b8ff" points="183.03,-243.42 173.32,-239.17 178.26,-248.54 183.03,-243.42"/>
</a>
</g>
</g>
<!-- Node8 -->
<g id="Node000008" class="node">
<title>Node8</title>
<g id="a_Node000008"><a xlink:href="taglib__export_8h.html" target="_top" xlink:title=" ">
<polygon fill="white" stroke="#666666" points="566,-19 476,-19 476,0 566,0 566,-19"/>
<text text-anchor="middle" x="521" y="-7" font-family="Helvetica,sans-Serif" font-size="10.00">taglib_export.h</text>
</a>
</g>
</g>
<!-- Node2&#45;&gt;Node8 -->
<g id="edge36_Node000002_Node000008" class="edge">
<title>Node2&#45;&gt;Node8</title>
<g id="a_edge36_Node000002_Node000008"><a xlink:title=" ">
<path fill="none" stroke="#63b8ff" d="M221,-274.82C221,-256.48 221,-212.44 221,-175.5 221,-175.5 221,-175.5 221,-118.5 221,-70.27 264.88,-74.49 309,-55 359.48,-32.7 421.74,-21.34 465.69,-15.71"/>
<polygon fill="#63b8ff" stroke="#63b8ff" points="466.4,-19.15 475.9,-14.47 465.55,-12.2 466.4,-19.15"/>
</a>
</g>
</g>
<!-- Node4 -->
<g id="Node000004" class="node">
<title>Node4</title>
<g id="a_Node000004"><a xlink:href="tbytevector_8h.html" target="_top" xlink:title=" ">
<polygon fill="white" stroke="#666666" points="658.5,-74 577.5,-74 577.5,-55 658.5,-55 658.5,-74"/>
<text text-anchor="middle" x="618" y="-62" font-family="Helvetica,sans-Serif" font-size="10.00">tbytevector.h</text>
</a>
</g>
</g>
<!-- Node3&#45;&gt;Node4 -->
<g id="edge3_Node000003_Node000004" class="edge">
<title>Node3&#45;&gt;Node4</title>
<g id="a_edge3_Node000003_Node000004"><a xlink:title=" ">
<path fill="none" stroke="#63b8ff" d="M181.33,-219.95C206.88,-207.45 256.26,-183.61 299,-165 359.16,-138.8 373.53,-130.06 436,-110 479.74,-95.95 530.6,-83.86 567.43,-75.84"/>
<polygon fill="#63b8ff" stroke="#63b8ff" points="568.38,-79.22 577.42,-73.69 566.91,-72.37 568.38,-79.22"/>
</a>
</g>
</g>
<!-- Node3&#45;&gt;Node8 -->
<g id="edge13_Node000003_Node000008" class="edge">
<title>Node3&#45;&gt;Node8</title>
<g id="a_edge13_Node000003_Node000008"><a xlink:title=" ">
<path fill="none" stroke="#63b8ff" d="M154.5,-219.79C134.19,-200.06 89.96,-150.53 110,-110 127.85,-73.9 144.78,-70.36 182,-55 232.05,-34.34 382.95,-20.53 465.52,-14.29"/>
<polygon fill="#63b8ff" stroke="#63b8ff" points="466.02,-17.77 475.73,-13.54 465.5,-10.79 466.02,-17.77"/>
</a>
</g>
</g>
<!-- Node9 -->
<g id="Node000009" class="node">
<title>Node9</title>
<g id="a_Node000009"><a xlink:href="tiostream_8h.html" target="_top" xlink:title=" ">
<polygon fill="white" stroke="#666666" points="192.5,-129 119.5,-129 119.5,-110 192.5,-110 192.5,-129"/>
<text text-anchor="middle" x="156" y="-117" font-family="Helvetica,sans-Serif" font-size="10.00">tiostream.h</text>
</a>
</g>
</g>
<!-- Node3&#45;&gt;Node9 -->
<g id="edge8_Node000003_Node000009" class="edge">
<title>Node3&#45;&gt;Node9</title>
<g id="a_edge8_Node000003_Node000009"><a xlink:title=" ">
<path fill="none" stroke="#63b8ff" d="M163.35,-219.66C162.05,-202.17 159.13,-162.8 157.39,-139.27"/>
<polygon fill="#63b8ff" stroke="#63b8ff" points="160.87,-138.87 156.64,-129.16 153.89,-139.39 160.87,-138.87"/>
</a>
</g>
</g>
<!-- Node10 -->
<g id="Node000010" class="node">
<title>Node10</title>
<g id="a_Node000010"><a xlink:href="taglib_8h.html" target="_top" xlink:title=" ">
<polygon fill="white" stroke="#666666" points="62.5,-74 9.5,-74 9.5,-55 62.5,-55 62.5,-74"/>
<text text-anchor="middle" x="36" y="-62" font-family="Helvetica,sans-Serif" font-size="10.00">taglib.h</text>
</a>
</g>
</g>
<!-- Node3&#45;&gt;Node10 -->
<g id="edge14_Node000003_Node000010" class="edge">
<title>Node3&#45;&gt;Node10</title>
<g id="a_edge14_Node000003_Node000010"><a xlink:title=" ">
<path fill="none" stroke="#63b8ff" d="M141.73,-222.33C122.14,-215.82 94.14,-203.72 77,-184 51.74,-154.93 41.81,-109.45 38.09,-84.12"/>
<polygon fill="#63b8ff" stroke="#63b8ff" points="41.54,-83.5 36.78,-74.03 34.59,-84.4 41.54,-83.5"/>
</a>
</g>
</g>
<!-- Node12 -->
<g id="Node000012" class="node">
<title>Node12</title>
<g id="a_Node000012"><a xlink:href="tag_8h.html" target="_top" xlink:title=" ">
<polygon fill="white" stroke="#666666" points="792.5,-184 751.5,-184 751.5,-165 792.5,-165 792.5,-184"/>
<text text-anchor="middle" x="772" y="-172" font-family="Helvetica,sans-Serif" font-size="10.00">tag.h</text>
</a>
</g>
</g>
<!-- Node3&#45;&gt;Node12 -->
<g id="edge15_Node000003_Node000012" class="edge">
<title>Node3&#45;&gt;Node12</title>
<g id="a_edge15_Node000003_Node000012"><a xlink:title=" ">
<path fill="none" stroke="#63b8ff" d="M186.36,-226.55C279.15,-218.46 634.05,-187.53 741.19,-178.19"/>
<polygon fill="#63b8ff" stroke="#63b8ff" points="741.68,-181.66 751.33,-177.3 741.07,-174.68 741.68,-181.66"/>
</a>
</g>
</g>
<!-- Node5 -->
<g id="Node000005" class="node">
<title>Node5</title>
<g id="a_Node000005"><a xlink:title=" ">
<polygon fill="#e0e0e0" stroke="#999999" points="776,-19 718,-19 718,0 776,0 776,-19"/>
<text text-anchor="middle" x="747" y="-7" font-family="Helvetica,sans-Serif" font-size="10.00">memory</text>
</a>
</g>
</g>
<!-- Node4&#45;&gt;Node5 -->
<g id="edge4_Node000004_Node000005" class="edge">
<title>Node4&#45;&gt;Node5</title>
<g id="a_edge4_Node000004_Node000005"><a xlink:title=" ">
<path fill="none" stroke="#63b8ff" d="M638.73,-54.98C659.76,-46.34 692.55,-32.87 716.54,-23.02"/>
<polygon fill="#63b8ff" stroke="#63b8ff" points="717.98,-26.21 725.9,-19.17 715.32,-19.73 717.98,-26.21"/>
</a>
</g>
</g>
<!-- Node6 -->
<g id="Node000006" class="node">
<title>Node6</title>
<g id="a_Node000006"><a xlink:title=" ">
<polygon fill="#e0e0e0" stroke="#999999" points="633.5,-19 586.5,-19 586.5,0 633.5,0 633.5,-19"/>
<text text-anchor="middle" x="610" y="-7" font-family="Helvetica,sans-Serif" font-size="10.00">vector</text>
</a>
</g>
</g>
<!-- Node4&#45;&gt;Node6 -->
<g id="edge5_Node000004_Node000006" class="edge">
<title>Node4&#45;&gt;Node6</title>
<g id="a_edge5_Node000004_Node000006"><a xlink:title=" ">
<path fill="none" stroke="#63b8ff" d="M616.68,-54.75C615.63,-47.8 614.13,-37.85 612.81,-29.13"/>
<polygon fill="#63b8ff" stroke="#63b8ff" points="616.25,-28.45 611.3,-19.09 609.33,-29.5 616.25,-28.45"/>
</a>
</g>
</g>
<!-- Node7 -->
<g id="Node000007" class="node">
<title>Node7</title>
<g id="a_Node000007"><a xlink:title=" ">
<polygon fill="#e0e0e0" stroke="#999999" points="700,-19 652,-19 652,0 700,0 700,-19"/>
<text text-anchor="middle" x="676" y="-7" font-family="Helvetica,sans-Serif" font-size="10.00">iosfwd</text>
</a>
</g>
</g>
<!-- Node4&#45;&gt;Node7 -->
<g id="edge6_Node000004_Node000007" class="edge">
<title>Node4&#45;&gt;Node7</title>
<g id="a_edge6_Node000004_Node000007"><a xlink:title=" ">
<path fill="none" stroke="#63b8ff" d="M627.32,-54.98C635.81,-47.23 648.56,-35.58 658.88,-26.14"/>
<polygon fill="#63b8ff" stroke="#63b8ff" points="661.49,-28.5 666.51,-19.17 656.77,-23.33 661.49,-28.5"/>
</a>
</g>
</g>
<!-- Node4&#45;&gt;Node8 -->
<g id="edge7_Node000004_Node000008" class="edge">
<title>Node4&#45;&gt;Node8</title>
<g id="a_edge7_Node000004_Node000008"><a xlink:title=" ">
<path fill="none" stroke="#63b8ff" d="M602.42,-54.98C587.23,-46.69 563.9,-33.94 546.1,-24.22"/>
<polygon fill="#63b8ff" stroke="#63b8ff" points="547.32,-20.89 536.87,-19.17 543.97,-27.04 547.32,-20.89"/>
</a>
</g>
</g>
<!-- Node9&#45;&gt;Node4 -->
<g id="edge9_Node000009_Node000004" class="edge">
<title>Node9&#45;&gt;Node4</title>
<g id="a_edge9_Node000009_Node000004"><a xlink:title=" ">
<path fill="none" stroke="#63b8ff" d="M192.64,-114.3C274.72,-104.88 473.48,-82.08 567.33,-71.31"/>
<polygon fill="#63b8ff" stroke="#63b8ff" points="567.9,-74.77 577.43,-70.15 567.1,-67.82 567.9,-74.77"/>
</a>
</g>
</g>
<!-- Node9&#45;&gt;Node8 -->
<g id="edge10_Node000009_Node000008" class="edge">
<title>Node9&#45;&gt;Node8</title>
<g id="a_edge10_Node000009_Node000008"><a xlink:title=" ">
<path fill="none" stroke="#63b8ff" d="M160.23,-109.77C167.58,-95.64 184.14,-68.01 207,-55 250.05,-30.5 387.69,-18.46 465.69,-13.46"/>
<polygon fill="#63b8ff" stroke="#63b8ff" points="466.06,-16.95 475.83,-12.83 465.63,-9.96 466.06,-16.95"/>
</a>
</g>
</g>
<!-- Node9&#45;&gt;Node10 -->
<g id="edge11_Node000009_Node000010" class="edge">
<title>Node9&#45;&gt;Node10</title>
<g id="a_edge11_Node000009_Node000010"><a xlink:title=" ">
<path fill="none" stroke="#63b8ff" d="M136.72,-109.98C117.33,-101.42 87.19,-88.11 64.93,-78.28"/>
<polygon fill="#63b8ff" stroke="#63b8ff" points="66.19,-75.01 55.63,-74.17 63.36,-81.41 66.19,-75.01"/>
</a>
</g>
</g>
<!-- Node11 -->
<g id="Node000011" class="node">
<title>Node11</title>
<g id="a_Node000011"><a xlink:title=" ">
<polygon fill="#e0e0e0" stroke="#999999" points="72,-19 0,-19 0,0 72,0 72,-19"/>
<text text-anchor="middle" x="36" y="-7" font-family="Helvetica,sans-Serif" font-size="10.00">sys/types.h</text>
</a>
</g>
</g>
<!-- Node10&#45;&gt;Node11 -->
<g id="edge12_Node000010_Node000011" class="edge">
<title>Node10&#45;&gt;Node11</title>
<g id="a_edge12_Node000010_Node000011"><a xlink:title=" ">
<path fill="none" stroke="#63b8ff" d="M36,-54.75C36,-47.8 36,-37.85 36,-29.13"/>
<polygon fill="#63b8ff" stroke="#63b8ff" points="39.5,-29.09 36,-19.09 32.5,-29.09 39.5,-29.09"/>
</a>
</g>
</g>
<!-- Node12&#45;&gt;Node8 -->
<g id="edge16_Node000012_Node000008" class="edge">
<title>Node12&#45;&gt;Node8</title>
<g id="a_edge16_Node000012_Node000008"><a xlink:title=" ">
<path fill="none" stroke="#63b8ff" d="M774.97,-164.75C781.7,-143.15 795.47,-86.76 768,-55 764.85,-51.36 648.23,-31.52 576.39,-19.6"/>
<polygon fill="#63b8ff" stroke="#63b8ff" points="576.57,-16.08 566.13,-17.9 575.42,-22.98 576.57,-16.08"/>
</a>
</g>
</g>
<!-- Node13 -->
<g id="Node000013" class="node">
<title>Node13</title>
<g id="a_Node000013"><a xlink:href="tstring_8h.html" target="_top" xlink:title=" ">
<polygon fill="white" stroke="#666666" points="758.5,-129 701.5,-129 701.5,-110 758.5,-110 758.5,-129"/>
<text text-anchor="middle" x="730" y="-117" font-family="Helvetica,sans-Serif" font-size="10.00">tstring.h</text>
</a>
</g>
</g>
<!-- Node12&#45;&gt;Node13 -->
<g id="edge17_Node000012_Node000013" class="edge">
<title>Node12&#45;&gt;Node13</title>
<g id="a_edge17_Node000012_Node000013"><a xlink:title=" ">
<path fill="none" stroke="#63b8ff" d="M765.06,-164.75C759.13,-157.26 750.43,-146.28 743.18,-137.13"/>
<polygon fill="#63b8ff" stroke="#63b8ff" points="745.76,-134.75 736.81,-129.09 740.27,-139.1 745.76,-134.75"/>
</a>
</g>
</g>
<!-- Node15 -->
<g id="Node000015" class="node">
<title>Node15</title>
<g id="a_Node000015"><a xlink:href="tlist_8h.html" target="_top" xlink:title=" ">
<polygon fill="white" stroke="#666666" points="973,-74 929,-74 929,-55 973,-55 973,-74"/>
<text text-anchor="middle" x="951" y="-62" font-family="Helvetica,sans-Serif" font-size="10.00">tlist.h</text>
</a>
</g>
</g>
<!-- Node12&#45;&gt;Node15 -->
<g id="edge21_Node000012_Node000015" class="edge">
<title>Node12&#45;&gt;Node15</title>
<g id="a_edge21_Node000012_Node000015"><a xlink:title=" ">
<path fill="none" stroke="#63b8ff" d="M792.71,-173.1C825.14,-171.38 888.13,-163.47 926,-129 938.72,-117.42 945.05,-98.55 948.15,-84.38"/>
<polygon fill="#63b8ff" stroke="#63b8ff" points="951.65,-84.73 950.01,-74.26 944.76,-83.47 951.65,-84.73"/>
</a>
</g>
</g>
<!-- Node19 -->
<g id="Node000019" class="node">
<title>Node19</title>
<g id="a_Node000019"><a xlink:href="tvariant_8h.html" target="_top" xlink:title=" ">
<polygon fill="white" stroke="#666666" points="917,-129 853,-129 853,-110 917,-110 917,-129"/>
<text text-anchor="middle" x="885" y="-117" font-family="Helvetica,sans-Serif" font-size="10.00">tvariant.h</text>
</a>
</g>
</g>
<!-- Node12&#45;&gt;Node19 -->
<g id="edge26_Node000012_Node000019" class="edge">
<title>Node12&#45;&gt;Node19</title>
<g id="a_edge26_Node000012_Node000019"><a xlink:title=" ">
<path fill="none" stroke="#63b8ff" d="M790.16,-164.98C808.25,-156.5 836.28,-143.35 857.19,-133.54"/>
<polygon fill="#63b8ff" stroke="#63b8ff" points="858.95,-136.59 866.51,-129.17 855.97,-130.25 858.95,-136.59"/>
</a>
</g>
</g>
<!-- Node13&#45;&gt;Node4 -->
<g id="edge19_Node000013_Node000004" class="edge">
<title>Node13&#45;&gt;Node4</title>
<g id="a_edge19_Node000013_Node000004"><a xlink:title=" ">
<path fill="none" stroke="#63b8ff" d="M712.01,-109.98C694.07,-101.5 666.28,-88.35 645.57,-78.54"/>
<polygon fill="#63b8ff" stroke="#63b8ff" points="646.86,-75.28 636.32,-74.17 643.86,-81.61 646.86,-75.28"/>
</a>
</g>
</g>
<!-- Node13&#45;&gt;Node8 -->
<g id="edge20_Node000013_Node000008" class="edge">
<title>Node13&#45;&gt;Node8</title>
<g id="a_edge20_Node000013_Node000008"><a xlink:title=" ">
<path fill="none" stroke="#63b8ff" d="M723.66,-109.76C713.31,-96.1 691.47,-69.75 667,-55 639.19,-38.23 604.55,-27.32 575.99,-20.5"/>
<polygon fill="#63b8ff" stroke="#63b8ff" points="576.69,-17.07 566.16,-18.26 575.13,-23.89 576.69,-17.07"/>
</a>
</g>
</g>
<!-- Node14 -->
<g id="Node000014" class="node">
<title>Node14</title>
<g id="a_Node000014"><a xlink:title=" ">
<polygon fill="#e0e0e0" stroke="#999999" points="759,-74 715,-74 715,-55 759,-55 759,-74"/>
<text text-anchor="middle" x="737" y="-62" font-family="Helvetica,sans-Serif" font-size="10.00">string</text>
</a>
</g>
</g>
<!-- Node13&#45;&gt;Node14 -->
<g id="edge18_Node000013_Node000014" class="edge">
<title>Node13&#45;&gt;Node14</title>
<g id="a_edge18_Node000013_Node000014"><a xlink:title=" ">
<path fill="none" stroke="#63b8ff" d="M731.16,-109.75C732.07,-102.8 733.39,-92.85 734.54,-84.13"/>
<polygon fill="#63b8ff" stroke="#63b8ff" points="738.03,-84.46 735.87,-74.09 731.09,-83.54 738.03,-84.46"/>
</a>
</g>
</g>
<!-- Node15&#45;&gt;Node5 -->
<g id="edge24_Node000015_Node000005" class="edge">
<title>Node15&#45;&gt;Node5</title>
<g id="a_edge24_Node000015_Node000005"><a xlink:title=" ">
<path fill="none" stroke="#63b8ff" d="M928.78,-57.73C894.46,-48.81 828.1,-31.57 785.76,-20.57"/>
<polygon fill="#63b8ff" stroke="#63b8ff" points="786.62,-17.18 776.06,-18.05 784.86,-23.95 786.62,-17.18"/>
</a>
</g>
</g>
<!-- Node16 -->
<g id="Node000016" class="node">
<title>Node16</title>
<g id="a_Node000016"><a xlink:title=" ">
<polygon fill="#e0e0e0" stroke="#999999" points="898,-19 866,-19 866,0 898,0 898,-19"/>
<text text-anchor="middle" x="882" y="-7" font-family="Helvetica,sans-Serif" font-size="10.00">list</text>
</a>
</g>
</g>
<!-- Node15&#45;&gt;Node16 -->
<g id="edge22_Node000015_Node000016" class="edge">
<title>Node15&#45;&gt;Node16</title>
<g id="a_edge22_Node000015_Node000016"><a xlink:title=" ">
<path fill="none" stroke="#63b8ff" d="M939.91,-54.98C929.51,-47 913.74,-34.88 901.28,-25.31"/>
<polygon fill="#63b8ff" stroke="#63b8ff" points="903.35,-22.49 893.29,-19.17 899.09,-28.04 903.35,-22.49"/>
</a>
</g>
</g>
<!-- Node17 -->
<g id="Node000017" class="node">
<title>Node17</title>
<g id="a_Node000017"><a xlink:title=" ">
<polygon fill="#e0e0e0" stroke="#999999" points="999.5,-19 916.5,-19 916.5,0 999.5,0 999.5,-19"/>
<text text-anchor="middle" x="958" y="-7" font-family="Helvetica,sans-Serif" font-size="10.00">initializer_list</text>
</a>
</g>
</g>
<!-- Node15&#45;&gt;Node17 -->
<g id="edge23_Node000015_Node000017" class="edge">
<title>Node15&#45;&gt;Node17</title>
<g id="a_edge23_Node000015_Node000017"><a xlink:title=" ">
<path fill="none" stroke="#63b8ff" d="M952.16,-54.75C953.07,-47.8 954.39,-37.85 955.54,-29.13"/>
<polygon fill="#63b8ff" stroke="#63b8ff" points="959.03,-29.46 956.87,-19.09 952.09,-28.54 959.03,-29.46"/>
</a>
</g>
</g>
<!-- Node18 -->
<g id="Node000018" class="node">
<title>Node18</title>
<g id="a_Node000018"><a xlink:title=" ">
<polygon fill="#e0e0e0" stroke="#999999" points="847.5,-19 794.5,-19 794.5,0 847.5,0 847.5,-19"/>
<text text-anchor="middle" x="821" y="-7" font-family="Helvetica,sans-Serif" font-size="10.00">tlist.tcc</text>
</a>
</g>
</g>
<!-- Node15&#45;&gt;Node18 -->
<g id="edge25_Node000015_Node000018" class="edge">
<title>Node15&#45;&gt;Node18</title>
<g id="a_edge25_Node000015_Node000018"><a xlink:title=" ">
<path fill="none" stroke="#63b8ff" d="M930.11,-54.98C908.92,-46.34 875.87,-32.87 851.7,-23.02"/>
<polygon fill="#63b8ff" stroke="#63b8ff" points="852.85,-19.7 842.27,-19.17 850.21,-26.19 852.85,-19.7"/>
</a>
</g>
</g>
<!-- Node19&#45;&gt;Node7 -->
<g id="edge27_Node000019_Node000007" class="edge">
<title>Node19&#45;&gt;Node7</title>
<g id="a_edge27_Node000019_Node000007"><a xlink:title=" ">
<path fill="none" stroke="#63b8ff" d="M886.74,-109.83C888.91,-96.28 890.82,-70.06 877,-55 827.49,-1.05 786.79,-33.59 710.16,-18.98"/>
<polygon fill="#63b8ff" stroke="#63b8ff" points="710.63,-15.5 700.12,-16.83 709.17,-22.35 710.63,-15.5"/>
</a>
</g>
</g>
<!-- Node19&#45;&gt;Node8 -->
<g id="edge35_Node000019_Node000008" class="edge">
<title>Node19&#45;&gt;Node8</title>
<g id="a_edge35_Node000019_Node000008"><a xlink:title=" ">
<path fill="none" stroke="#63b8ff" d="M881.43,-109.77C875.16,-95.64 860.71,-68.02 839,-55 738.2,5.45 693.33,-35.82 577,-19 576.78,-18.97 576.56,-18.94 576.34,-18.9"/>
<polygon fill="#63b8ff" stroke="#63b8ff" points="576.63,-15.41 566.23,-17.42 575.61,-22.34 576.63,-15.41"/>
</a>
</g>
</g>
<!-- Node19&#45;&gt;Node15 -->
<g id="edge28_Node000019_Node000015" class="edge">
<title>Node19&#45;&gt;Node15</title>
<g id="a_edge28_Node000019_Node000015"><a xlink:title=" ">
<path fill="none" stroke="#63b8ff" d="M895.6,-109.98C905.46,-102.07 920.35,-90.11 932.22,-80.58"/>
<polygon fill="#63b8ff" stroke="#63b8ff" points="934.6,-83.16 940.2,-74.17 930.21,-77.7 934.6,-83.16"/>
</a>
</g>
</g>
<!-- Node20 -->
<g id="Node000020" class="node">
<title>Node20</title>
<g id="a_Node000020"><a xlink:href="tmap_8h.html" target="_top" xlink:title=" ">
<polygon fill="white" stroke="#666666" points="1046.5,-74 995.5,-74 995.5,-55 1046.5,-55 1046.5,-74"/>
<text text-anchor="middle" x="1021" y="-62" font-family="Helvetica,sans-Serif" font-size="10.00">tmap.h</text>
</a>
</g>
</g>
<!-- Node19&#45;&gt;Node20 -->
<g id="edge29_Node000019_Node000020" class="edge">
<title>Node19&#45;&gt;Node20</title>
<g id="a_edge29_Node000019_Node000020"><a xlink:title=" ">
<path fill="none" stroke="#63b8ff" d="M906.85,-109.98C929.12,-101.3 963.9,-87.75 989.22,-77.88"/>
<polygon fill="#63b8ff" stroke="#63b8ff" points="990.71,-81.06 998.75,-74.17 988.16,-74.54 990.71,-81.06"/>
</a>
</g>
</g>
<!-- Node20&#45;&gt;Node5 -->
<g id="edge31_Node000020_Node000005" class="edge">
<title>Node20&#45;&gt;Node5</title>
<g id="a_edge31_Node000020_Node000005"><a xlink:title=" ">
<path fill="none" stroke="#63b8ff" d="M995.43,-57.8C990.96,-56.84 986.35,-55.87 982,-55 897.8,-38.14 873.89,-36.79 785.9,-19.11"/>
<polygon fill="#63b8ff" stroke="#63b8ff" points="786.52,-15.67 776.02,-17.11 785.13,-22.53 786.52,-15.67"/>
</a>
</g>
</g>
<!-- Node20&#45;&gt;Node17 -->
<g id="edge32_Node000020_Node000017" class="edge">
<title>Node20&#45;&gt;Node17</title>
<g id="a_edge32_Node000020_Node000017"><a xlink:title=" ">
<path fill="none" stroke="#63b8ff" d="M1010.88,-54.98C1001.56,-47.15 987.53,-35.34 976.26,-25.86"/>
<polygon fill="#63b8ff" stroke="#63b8ff" points="978.21,-22.93 968.31,-19.17 973.71,-28.29 978.21,-22.93"/>
</a>
</g>
</g>
<!-- Node21 -->
<g id="Node000021" class="node">
<title>Node21</title>
<g id="a_Node000021"><a xlink:title=" ">
<polygon fill="#e0e0e0" stroke="#999999" points="1133,-19 1095,-19 1095,0 1133,0 1133,-19"/>
<text text-anchor="middle" x="1114" y="-7" font-family="Helvetica,sans-Serif" font-size="10.00">map</text>
</a>
</g>
</g>
<!-- Node20&#45;&gt;Node21 -->
<g id="edge30_Node000020_Node000021" class="edge">
<title>Node20&#45;&gt;Node21</title>
<g id="a_edge30_Node000020_Node000021"><a xlink:title=" ">
<path fill="none" stroke="#63b8ff" d="M1035.94,-54.98C1050.5,-46.69 1072.87,-33.94 1089.93,-24.22"/>
<polygon fill="#63b8ff" stroke="#63b8ff" points="1091.83,-27.16 1098.79,-19.17 1088.36,-21.08 1091.83,-27.16"/>
</a>
</g>
</g>
<!-- Node22 -->
<g id="Node000022" class="node">
<title>Node22</title>
<g id="a_Node000022"><a xlink:title=" ">
<polygon fill="#e0e0e0" stroke="#999999" points="1196.5,-19 1151.5,-19 1151.5,0 1196.5,0 1196.5,-19"/>
<text text-anchor="middle" x="1174" y="-7" font-family="Helvetica,sans-Serif" font-size="10.00">utility</text>
</a>
</g>
</g>
<!-- Node20&#45;&gt;Node22 -->
<g id="edge33_Node000020_Node000022" class="edge">
<title>Node20&#45;&gt;Node22</title>
<g id="a_edge33_Node000020_Node000022"><a xlink:title=" ">
<path fill="none" stroke="#63b8ff" d="M1045.58,-54.98C1071.73,-45.93 1113.19,-31.56 1141.9,-21.62"/>
<polygon fill="#63b8ff" stroke="#63b8ff" points="1143.17,-24.88 1151.47,-18.3 1140.88,-18.27 1143.17,-24.88"/>
</a>
</g>
</g>
<!-- Node23 -->
<g id="Node000023" class="node">
<title>Node23</title>
<g id="a_Node000023"><a xlink:title=" ">
<polygon fill="#e0e0e0" stroke="#999999" points="1076.5,-19 1017.5,-19 1017.5,0 1076.5,0 1076.5,-19"/>
<text text-anchor="middle" x="1047" y="-7" font-family="Helvetica,sans-Serif" font-size="10.00">tmap.tcc</text>
</a>
</g>
</g>
<!-- Node20&#45;&gt;Node23 -->
<g id="edge34_Node000020_Node000023" class="edge">
<title>Node20&#45;&gt;Node23</title>
<g id="a_edge34_Node000020_Node000023"><a xlink:title=" ">
<path fill="none" stroke="#63b8ff" d="M1025.29,-54.75C1028.81,-47.57 1033.91,-37.18 1038.28,-28.27"/>
<polygon fill="#63b8ff" stroke="#63b8ff" points="1041.52,-29.61 1042.79,-19.09 1035.24,-26.53 1041.52,-29.61"/>
</a>
</g>
</g>
<!-- Node24&#45;&gt;Node4 -->
<g id="edge38_Node000024_Node000004" class="edge">
<title>Node24&#45;&gt;Node4</title>
<g id="a_edge38_Node000024_Node000004"><a xlink:title=" ">
<path fill="none" stroke="#63b8ff" d="M691.9,-274.64C685.63,-248.76 665.95,-171.26 641,-110 637.27,-100.84 632.31,-91.03 627.96,-82.96"/>
<polygon fill="#63b8ff" stroke="#63b8ff" points="630.97,-81.19 623.06,-74.14 624.85,-84.59 630.97,-81.19"/>
</a>
</g>
</g>
<!-- Node24&#45;&gt;Node8 -->
<g id="edge43_Node000024_Node000008" class="edge">
<title>Node24&#45;&gt;Node8</title>
<g id="a_edge43_Node000024_Node000008"><a xlink:title=" ">
<path fill="none" stroke="#63b8ff" d="M720.83,-274.98C759.15,-260.92 825,-229 825,-175.5 825,-175.5 825,-175.5 825,-118.5 825,-85.84 814.88,-73.56 788,-55 783.65,-51.99 653.18,-31.18 576.27,-19.11"/>
<polygon fill="#63b8ff" stroke="#63b8ff" points="576.67,-15.63 566.25,-17.54 575.58,-22.55 576.67,-15.63"/>
</a>
</g>
</g>
<!-- Node24&#45;&gt;Node10 -->
<g id="edge42_Node000024_Node000010" class="edge">
<title>Node24&#45;&gt;Node10</title>
<g id="a_edge42_Node000024_Node000010"><a xlink:title=" ">
<path fill="none" stroke="#63b8ff" d="M659.68,-283.3C553.25,-282.29 230.06,-276.17 133,-239 73.21,-216.1 53.58,-191.56 40,-129 36.81,-114.29 35.88,-97.25 35.71,-84.52"/>
<polygon fill="#63b8ff" stroke="#63b8ff" points="39.21,-84.25 35.73,-74.24 32.21,-84.24 39.21,-84.25"/>
</a>
</g>
</g>
<!-- Node24&#45;&gt;Node12 -->
<g id="edge44_Node000024_Node000012" class="edge">
<title>Node24&#45;&gt;Node12</title>
<g id="a_edge44_Node000024_Node000012"><a xlink:title=" ">
<path fill="none" stroke="#63b8ff" d="M701.16,-274.78C708.37,-265.91 719.72,-251.7 729,-239 740.25,-223.6 752.37,-205.55 760.87,-192.64"/>
<polygon fill="#63b8ff" stroke="#63b8ff" points="763.81,-194.55 766.35,-184.26 757.95,-190.72 763.81,-194.55"/>
</a>
</g>
</g>
<!-- Node24&#45;&gt;Node13 -->
<g id="edge39_Node000024_Node000013" class="edge">
<title>Node24&#45;&gt;Node13</title>
<g id="a_edge39_Node000024_Node000013"><a xlink:title=" ">
<path fill="none" stroke="#63b8ff" d="M695.94,-274.74C701.58,-249.2 718.09,-174.43 725.86,-139.23"/>
<polygon fill="#63b8ff" stroke="#63b8ff" points="729.32,-139.83 728.05,-129.31 722.48,-138.32 729.32,-139.83"/>
</a>
</g>
</g>
<!-- Node24&#45;&gt;Node15 -->
<g id="edge40_Node000024_Node000015" class="edge">
<title>Node24&#45;&gt;Node15</title>
<g id="a_edge40_Node000024_Node000015"><a xlink:title=" ">
<path fill="none" stroke="#63b8ff" d="M728.23,-278.01C758.95,-271.95 804.4,-260.14 839,-239 897.2,-203.44 917.87,-191.13 946,-129 952.35,-114.97 953.27,-97.42 952.79,-84.33"/>
<polygon fill="#63b8ff" stroke="#63b8ff" points="956.27,-83.92 952.11,-74.17 949.29,-84.38 956.27,-83.92"/>
</a>
</g>
</g>
<!-- Node24&#45;&gt;Node20 -->
<g id="edge41_Node000024_Node000020" class="edge">
<title>Node24&#45;&gt;Node20</title>
<g id="a_edge41_Node000024_Node000020"><a xlink:title=" ">
<path fill="none" stroke="#63b8ff" d="M728.06,-279.2C764.11,-273.66 821.92,-261.87 867,-239 937.91,-203.02 991.04,-119.34 1011.64,-82.94"/>
<polygon fill="#63b8ff" stroke="#63b8ff" points="1014.81,-84.45 1016.58,-74 1008.68,-81.06 1014.81,-84.45"/>
</a>
</g>
</g>
<!-- Node25 -->
<g id="Node000025" class="node">
<title>Node25</title>
<g id="a_Node000025"><a xlink:href="id3v2_8h.html" target="_top" xlink:title=" ">
<polygon fill="white" stroke="#666666" points="644.5,-239 591.5,-239 591.5,-220 644.5,-220 644.5,-239"/>
<text text-anchor="middle" x="618" y="-227" font-family="Helvetica,sans-Serif" font-size="10.00">id3v2.h</text>
</a>
</g>
</g>
<!-- Node24&#45;&gt;Node25 -->
<g id="edge45_Node000024_Node000025" class="edge">
<title>Node24&#45;&gt;Node25</title>
<g id="a_edge45_Node000024_Node000025"><a xlink:title=" ">
<path fill="none" stroke="#63b8ff" d="M681.79,-274.98C670.22,-266.92 652.62,-254.65 638.84,-245.03"/>
<polygon fill="#63b8ff" stroke="#63b8ff" points="640.64,-242.02 630.43,-239.17 636.63,-247.76 640.64,-242.02"/>
</a>
</g>
</g>
<!-- Node26 -->
<g id="Node000026" class="node">
<title>Node26</title>
<g id="a_Node000026"><a xlink:href="id3v2framefactory_8h.html" target="_top" xlink:title=" ">
<polygon fill="white" stroke="#666666" points="573.5,-239 458.5,-239 458.5,-220 573.5,-220 573.5,-239"/>
<text text-anchor="middle" x="516" y="-227" font-family="Helvetica,sans-Serif" font-size="10.00">id3v2framefactory.h</text>
</a>
</g>
</g>
<!-- Node24&#45;&gt;Node26 -->
<g id="edge46_Node000024_Node000026" class="edge">
<title>Node24&#45;&gt;Node26</title>
<g id="a_edge46_Node000024_Node000026"><a xlink:title=" ">
<path fill="none" stroke="#63b8ff" d="M665.4,-274.98C635.39,-266.05 588.02,-251.94 554.68,-242.02"/>
<polygon fill="#63b8ff" stroke="#63b8ff" points="555.41,-238.58 544.82,-239.08 553.41,-245.29 555.41,-238.58"/>
</a>
</g>
</g>
<!-- Node26&#45;&gt;Node4 -->
<g id="edge47_Node000026_Node000004" class="edge">
<title>Node26&#45;&gt;Node4</title>
<g id="a_edge47_Node000026_Node000004"><a xlink:title=" ">
<path fill="none" stroke="#63b8ff" d="M557.07,-219.96C577.07,-213.55 599.46,-202.58 612,-184 632.29,-153.94 627.51,-109.19 622.55,-84.16"/>
<polygon fill="#63b8ff" stroke="#63b8ff" points="625.92,-83.19 620.34,-74.18 619.08,-84.7 625.92,-83.19"/>
</a>
</g>
</g>
<!-- Node26&#45;&gt;Node8 -->
<g id="edge48_Node000026_Node000008" class="edge">
<title>Node26&#45;&gt;Node8</title>
<g id="a_edge48_Node000026_Node000008"><a xlink:title=" ">
<path fill="none" stroke="#63b8ff" d="M502.51,-219.83C475.57,-201.32 419.07,-155.88 436,-110 449.06,-74.59 480.96,-43.24 501.75,-25.59"/>
<polygon fill="#63b8ff" stroke="#63b8ff" points="504.14,-28.16 509.64,-19.1 499.69,-22.76 504.14,-28.16"/>
</a>
</g>
</g>
<!-- Node27 -->
<g id="Node000027" class="node">
<title>Node27</title>
<g id="a_Node000027"><a xlink:href="id3v2frame_8h.html" target="_top" xlink:title=" ">
<polygon fill="white" stroke="#666666" points="603,-184 521,-184 521,-165 603,-165 603,-184"/>
<text text-anchor="middle" x="562" y="-172" font-family="Helvetica,sans-Serif" font-size="10.00">id3v2frame.h</text>
</a>
</g>
</g>
<!-- Node26&#45;&gt;Node27 -->
<g id="edge49_Node000026_Node000027" class="edge">
<title>Node26&#45;&gt;Node27</title>
<g id="a_edge49_Node000026_Node000027"><a xlink:title=" ">
<path fill="none" stroke="#63b8ff" d="M523.6,-219.75C530.16,-212.18 539.82,-201.05 547.81,-191.84"/>
<polygon fill="#63b8ff" stroke="#63b8ff" points="550.63,-193.94 554.55,-184.09 545.35,-189.35 550.63,-193.94"/>
</a>
</g>
</g>
<!-- Node28 -->
<g id="Node000028" class="node">
<title>Node28</title>
<g id="a_Node000028"><a xlink:href="id3v2header_8h.html" target="_top" xlink:title=" ">
<polygon fill="white" stroke="#666666" points="531,-129 445,-129 445,-110 531,-110 531,-129"/>
<text text-anchor="middle" x="488" y="-117" font-family="Helvetica,sans-Serif" font-size="10.00">id3v2header.h</text>
</a>
</g>
</g>
<!-- Node26&#45;&gt;Node28 -->
<g id="edge53_Node000026_Node000028" class="edge">
<title>Node26&#45;&gt;Node28</title>
<g id="a_edge53_Node000026_Node000028"><a xlink:title=" ">
<path fill="none" stroke="#63b8ff" d="M513.71,-219.66C509.15,-202.09 498.88,-162.45 492.78,-138.95"/>
<polygon fill="#63b8ff" stroke="#63b8ff" points="496.14,-137.96 490.24,-129.16 489.37,-139.72 496.14,-137.96"/>
</a>
</g>
</g>
<!-- Node27&#45;&gt;Node4 -->
<g id="edge51_Node000027_Node000004" class="edge">
<title>Node27&#45;&gt;Node4</title>
<g id="a_edge51_Node000027_Node000004"><a xlink:title=" ">
<path fill="none" stroke="#63b8ff" d="M566.58,-164.66C575.78,-146.93 596.62,-106.73 608.76,-83.32"/>
<polygon fill="#63b8ff" stroke="#63b8ff" points="612.01,-84.65 613.51,-74.16 605.8,-81.42 612.01,-84.65"/>
</a>
</g>
</g>
<!-- Node27&#45;&gt;Node8 -->
<g id="edge52_Node000027_Node000008" class="edge">
<title>Node27&#45;&gt;Node8</title>
<g id="a_edge52_Node000027_Node000008"><a xlink:title=" ">
<path fill="none" stroke="#63b8ff" d="M559.8,-164.74C553.37,-139.2 534.57,-64.43 525.71,-29.23"/>
<polygon fill="#63b8ff" stroke="#63b8ff" points="529.05,-28.15 523.22,-19.31 522.26,-29.86 529.05,-28.15"/>
</a>
</g>
</g>
<!-- Node27&#45;&gt;Node13 -->
<g id="edge50_Node000027_Node000013" class="edge">
<title>Node27&#45;&gt;Node13</title>
<g id="a_edge50_Node000027_Node000013"><a xlink:title=" ">
<path fill="none" stroke="#63b8ff" d="M588.99,-164.98C617.2,-156.09 661.64,-142.07 693.08,-132.15"/>
<polygon fill="#63b8ff" stroke="#63b8ff" points="694.31,-135.43 702.8,-129.08 692.21,-128.75 694.31,-135.43"/>
</a>
</g>
</g>
<!-- Node28&#45;&gt;Node4 -->
<g id="edge54_Node000028_Node000004" class="edge">
<title>Node28&#45;&gt;Node4</title>
<g id="a_edge54_Node000028_Node000004"><a xlink:title=" ">
<path fill="none" stroke="#63b8ff" d="M508.89,-109.98C530.08,-101.34 563.13,-87.87 587.3,-78.02"/>
<polygon fill="#63b8ff" stroke="#63b8ff" points="588.79,-81.19 596.73,-74.17 586.15,-74.7 588.79,-81.19"/>
</a>
</g>
</g>
<!-- Node28&#45;&gt;Node8 -->
<g id="edge55_Node000028_Node000008" class="edge">
<title>Node28&#45;&gt;Node8</title>
<g id="a_edge55_Node000028_Node000008"><a xlink:title=" ">
<path fill="none" stroke="#63b8ff" d="M490.7,-109.66C496.07,-92.09 508.18,-52.45 515.36,-28.95"/>
<polygon fill="#63b8ff" stroke="#63b8ff" points="518.78,-29.74 518.35,-19.16 512.08,-27.7 518.78,-29.74"/>
</a>
</g>
</g>
<!-- Node29&#45;&gt;Node13 -->
<g id="edge57_Node000029_Node000013" class="edge">
<title>Node29&#45;&gt;Node13</title>
<g id="a_edge57_Node000029_Node000013"><a xlink:title=" ">
<path fill="none" stroke="#63b8ff" d="M399.73,-167.05C474.38,-156.53 621.1,-135.85 691.08,-125.99"/>
<polygon fill="#63b8ff" stroke="#63b8ff" points="691.81,-129.42 701.23,-124.56 690.84,-122.49 691.81,-129.42"/>
</a>
</g>
</g>
<!-- Node30 -->
<g id="Node000030" class="node">
<title>Node30</title>
<g id="a_Node000030"><a xlink:href="audioproperties_8h.html" target="_top" xlink:title=" ">
<polygon fill="white" stroke="#666666" points="351,-129 249,-129 249,-110 351,-110 351,-129"/>
<text text-anchor="middle" x="300" y="-117" font-family="Helvetica,sans-Serif" font-size="10.00">audioproperties.h</text>
</a>
</g>
</g>
<!-- Node29&#45;&gt;Node30 -->
<g id="edge58_Node000029_Node000030" class="edge">
<title>Node29&#45;&gt;Node30</title>
<g id="a_edge58_Node000029_Node000030"><a xlink:title=" ">
<path fill="none" stroke="#63b8ff" d="M345.08,-164.75C337.22,-157.03 325.57,-145.6 316.08,-136.28"/>
<polygon fill="#63b8ff" stroke="#63b8ff" points="318.34,-133.6 308.75,-129.09 313.44,-138.59 318.34,-133.6"/>
</a>
</g>
</g>
<!-- Node30&#45;&gt;Node5 -->
<g id="edge59_Node000030_Node000005" class="edge">
<title>Node30&#45;&gt;Node5</title>
<g id="a_edge59_Node000030_Node000005"><a xlink:title=" ">
<path fill="none" stroke="#63b8ff" d="M335.45,-109.94C417.9,-90.02 622.03,-40.69 707.92,-19.94"/>
<polygon fill="#63b8ff" stroke="#63b8ff" points="708.9,-23.31 717.8,-17.56 707.25,-16.5 708.9,-23.31"/>
</a>
</g>
</g>
<!-- Node30&#45;&gt;Node8 -->
<g id="edge61_Node000030_Node000008" class="edge">
<title>Node30&#45;&gt;Node8</title>
<g id="a_edge61_Node000030_Node000008"><a xlink:title=" ">
<path fill="none" stroke="#63b8ff" d="M301.05,-109.62C303.16,-95.78 309.28,-69.18 326,-55 346.81,-37.35 415.57,-24.6 465.56,-17.39"/>
<polygon fill="#63b8ff" stroke="#63b8ff" points="466.19,-20.83 475.6,-15.97 465.21,-13.9 466.19,-20.83"/>
</a>
</g>
</g>
<!-- Node30&#45;&gt;Node10 -->
<g id="edge60_Node000030_Node000010" class="edge">
<title>Node30&#45;&gt;Node10</title>
<g id="a_edge60_Node000030_Node000010"><a xlink:title=" ">
<path fill="none" stroke="#63b8ff" d="M257.58,-109.98C206.39,-99.71 121.16,-82.6 72.68,-72.86"/>
<polygon fill="#63b8ff" stroke="#63b8ff" points="73.12,-69.38 62.63,-70.85 71.75,-76.25 73.12,-69.38"/>
</a>
</g>
</g>
</g>
</svg>
