<?xml version="1.0" encoding="UTF-8" standalone="no"?>
<!DOCTYPE svg PUBLIC "-//W3C//DTD SVG 1.1//EN"
 "http://www.w3.org/Graphics/SVG/1.1/DTD/svg11.dtd">
<!-- Generated by graphviz version 2.43.0 (0)
 -->
<!-- Title: apefooter.h Pages: 1 -->
<svg width="313pt" height="196pt"
 viewBox="0.00 0.00 313.00 196.00" xmlns="http://www.w3.org/2000/svg" xmlns:xlink="http://www.w3.org/1999/xlink">
<g id="graph0" class="graph" transform="scale(1 1) rotate(0) translate(4 192)">
<title>apefooter.h</title>
<polygon fill="white" stroke="transparent" points="-4,4 -4,-192 309,-192 309,4 -4,4"/>
<!-- Node1 -->
<g id="node1" class="node">
<title>Node1</title>
<g id="a_node1"><a xlink:title=" ">
<polygon fill="#bfbfbf" stroke="black" points="54,-168.5 54,-187.5 126,-187.5 126,-168.5 54,-168.5"/>
<text text-anchor="middle" x="90" y="-175.5" font-family="Helvetica,sans-Serif" font-size="10.00">apefooter.h</text>
</a>
</g>
</g>
<!-- Node2 -->
<g id="node2" class="node">
<title>Node2</title>
<g id="a_node2"><a xlink:href="tbytevector_8h.html" target="_top" xlink:title=" ">
<polygon fill="white" stroke="black" points="94.5,-112.5 94.5,-131.5 175.5,-131.5 175.5,-112.5 94.5,-112.5"/>
<text text-anchor="middle" x="135" y="-119.5" font-family="Helvetica,sans-Serif" font-size="10.00">tbytevector.h</text>
</a>
</g>
</g>
<!-- Node1&#45;&gt;Node2 -->
<g id="edge1" class="edge">
<title>Node1&#45;&gt;Node2</title>
<path fill="none" stroke="midnightblue" d="M97.43,-168.08C103.85,-160.38 113.31,-149.03 121.12,-139.65"/>
<polygon fill="midnightblue" stroke="midnightblue" points="123.99,-141.67 127.71,-131.75 118.62,-137.19 123.99,-141.67"/>
</g>
<!-- Node6 -->
<g id="node6" class="node">
<title>Node6</title>
<g id="a_node6"><a xlink:href="taglib__export_8h.html" target="_top" xlink:title=" ">
<polygon fill="white" stroke="black" points="0,-56.5 0,-75.5 90,-75.5 90,-56.5 0,-56.5"/>
<text text-anchor="middle" x="45" y="-63.5" font-family="Helvetica,sans-Serif" font-size="10.00">taglib_export.h</text>
</a>
</g>
</g>
<!-- Node1&#45;&gt;Node6 -->
<g id="edge8" class="edge">
<title>Node1&#45;&gt;Node6</title>
<path fill="none" stroke="midnightblue" d="M86.47,-168.37C79.14,-150.46 62.15,-108.92 52.34,-84.95"/>
<polygon fill="midnightblue" stroke="midnightblue" points="55.54,-83.52 48.51,-75.59 49.06,-86.17 55.54,-83.52"/>
</g>
<!-- Node3 -->
<g id="node3" class="node">
<title>Node3</title>
<g id="a_node3"><a xlink:href="taglib_8h.html" target="_top" xlink:title=" ">
<polygon fill="white" stroke="black" points="108.5,-56.5 108.5,-75.5 161.5,-75.5 161.5,-56.5 108.5,-56.5"/>
<text text-anchor="middle" x="135" y="-63.5" font-family="Helvetica,sans-Serif" font-size="10.00">taglib.h</text>
</a>
</g>
</g>
<!-- Node2&#45;&gt;Node3 -->
<g id="edge2" class="edge">
<title>Node2&#45;&gt;Node3</title>
<path fill="none" stroke="midnightblue" d="M135,-112.08C135,-105.01 135,-94.86 135,-85.99"/>
<polygon fill="midnightblue" stroke="midnightblue" points="138.5,-85.75 135,-75.75 131.5,-85.75 138.5,-85.75"/>
</g>
<!-- Node2&#45;&gt;Node6 -->
<g id="edge5" class="edge">
<title>Node2&#45;&gt;Node6</title>
<path fill="none" stroke="midnightblue" d="M120.54,-112.32C106.5,-103.9 84.95,-90.97 68.46,-81.07"/>
<polygon fill="midnightblue" stroke="midnightblue" points="69.8,-77.8 59.42,-75.65 66.2,-83.8 69.8,-77.8"/>
</g>
<!-- Node7 -->
<g id="node7" class="node">
<title>Node7</title>
<g id="a_node7"><a xlink:title=" ">
<polygon fill="white" stroke="#bfbfbf" points="179.5,-56.5 179.5,-75.5 226.5,-75.5 226.5,-56.5 179.5,-56.5"/>
<text text-anchor="middle" x="203" y="-63.5" font-family="Helvetica,sans-Serif" font-size="10.00">vector</text>
</a>
</g>
</g>
<!-- Node2&#45;&gt;Node7 -->
<g id="edge6" class="edge">
<title>Node2&#45;&gt;Node7</title>
<path fill="none" stroke="midnightblue" d="M145.93,-112.32C156.17,-104.18 171.72,-91.84 184,-82.09"/>
<polygon fill="midnightblue" stroke="midnightblue" points="186.22,-84.79 191.88,-75.83 181.87,-79.31 186.22,-84.79"/>
</g>
<!-- Node8 -->
<g id="node8" class="node">
<title>Node8</title>
<g id="a_node8"><a xlink:title=" ">
<polygon fill="white" stroke="#bfbfbf" points="245,-56.5 245,-75.5 305,-75.5 305,-56.5 245,-56.5"/>
<text text-anchor="middle" x="275" y="-63.5" font-family="Helvetica,sans-Serif" font-size="10.00">iostream</text>
</a>
</g>
</g>
<!-- Node2&#45;&gt;Node8 -->
<g id="edge7" class="edge">
<title>Node2&#45;&gt;Node8</title>
<path fill="none" stroke="midnightblue" d="M157.18,-112.44C180.43,-103.48 217.15,-89.31 243.42,-79.18"/>
<polygon fill="midnightblue" stroke="midnightblue" points="244.85,-82.38 252.92,-75.52 242.33,-75.85 244.85,-82.38"/>
</g>
<!-- Node4 -->
<g id="node4" class="node">
<title>Node4</title>
<g id="a_node4"><a xlink:title=" ">
<polygon fill="white" stroke="#bfbfbf" points="49,-0.5 49,-19.5 137,-19.5 137,-0.5 49,-0.5"/>
<text text-anchor="middle" x="93" y="-7.5" font-family="Helvetica,sans-Serif" font-size="10.00">taglib_config.h</text>
</a>
</g>
</g>
<!-- Node3&#45;&gt;Node4 -->
<g id="edge3" class="edge">
<title>Node3&#45;&gt;Node4</title>
<path fill="none" stroke="midnightblue" d="M128.06,-56.08C122.07,-48.38 113.25,-37.03 105.95,-27.65"/>
<polygon fill="midnightblue" stroke="midnightblue" points="108.71,-25.5 99.81,-19.75 103.18,-29.79 108.71,-25.5"/>
</g>
<!-- Node5 -->
<g id="node5" class="node">
<title>Node5</title>
<g id="a_node5"><a xlink:title=" ">
<polygon fill="white" stroke="#bfbfbf" points="155,-0.5 155,-19.5 199,-19.5 199,-0.5 155,-0.5"/>
<text text-anchor="middle" x="177" y="-7.5" font-family="Helvetica,sans-Serif" font-size="10.00">string</text>
</a>
</g>
</g>
<!-- Node3&#45;&gt;Node5 -->
<g id="edge4" class="edge">
<title>Node3&#45;&gt;Node5</title>
<path fill="none" stroke="midnightblue" d="M141.94,-56.08C147.93,-48.38 156.75,-37.03 164.05,-27.65"/>
<polygon fill="midnightblue" stroke="midnightblue" points="166.82,-29.79 170.19,-19.75 161.29,-25.5 166.82,-29.79"/>
</g>
</g>
</svg>
