<?xml version="1.0" encoding="UTF-8" standalone="no"?>
<!DOCTYPE svg PUBLIC "-//W3C//DTD SVG 1.1//EN"
 "http://www.w3.org/Graphics/SVG/1.1/DTD/svg11.dtd">
<!-- Generated by graphviz version 2.43.0 (0)
 -->
<!-- Title: apeitem.h Pages: 1 -->
<svg width="557pt" height="252pt"
 viewBox="0.00 0.00 556.50 252.00" xmlns="http://www.w3.org/2000/svg" xmlns:xlink="http://www.w3.org/1999/xlink">
<g id="graph0" class="graph" transform="scale(1 1) rotate(0) translate(4 248)">
<title>apeitem.h</title>
<polygon fill="white" stroke="transparent" points="-4,4 -4,-248 552.5,-248 552.5,4 -4,4"/>
<!-- Node1 -->
<g id="node1" class="node">
<title>Node1</title>
<g id="a_node1"><a xlink:title=" ">
<polygon fill="#bfbfbf" stroke="black" points="341.5,-224.5 341.5,-243.5 407.5,-243.5 407.5,-224.5 341.5,-224.5"/>
<text text-anchor="middle" x="374.5" y="-231.5" font-family="Helvetica,sans-Serif" font-size="10.00">apeitem.h</text>
</a>
</g>
</g>
<!-- Node2 -->
<g id="node2" class="node">
<title>Node2</title>
<g id="a_node2"><a xlink:href="tbytevector_8h.html" target="_top" xlink:title=" ">
<polygon fill="white" stroke="black" points="287,-56.5 287,-75.5 368,-75.5 368,-56.5 287,-56.5"/>
<text text-anchor="middle" x="327.5" y="-63.5" font-family="Helvetica,sans-Serif" font-size="10.00">tbytevector.h</text>
</a>
</g>
</g>
<!-- Node1&#45;&gt;Node2 -->
<g id="edge1" class="edge">
<title>Node1&#45;&gt;Node2</title>
<path fill="none" stroke="midnightblue" d="M364.3,-224.46C354.53,-215.93 339.81,-202.09 329.5,-188 312.95,-165.38 307.13,-159.23 300.5,-132 298.4,-123.36 298.13,-120.57 300.5,-112 303.29,-101.92 309.01,-91.83 314.47,-83.77"/>
<polygon fill="midnightblue" stroke="midnightblue" points="317.32,-85.79 320.35,-75.64 311.65,-81.69 317.32,-85.79"/>
</g>
<!-- Node7 -->
<g id="node7" class="node">
<title>Node7</title>
<g id="a_node7"><a xlink:href="tstring_8h.html" target="_top" xlink:title=" ">
<polygon fill="white" stroke="black" points="463,-112.5 463,-131.5 520,-131.5 520,-112.5 463,-112.5"/>
<text text-anchor="middle" x="491.5" y="-119.5" font-family="Helvetica,sans-Serif" font-size="10.00">tstring.h</text>
</a>
</g>
</g>
<!-- Node1&#45;&gt;Node7 -->
<g id="edge6" class="edge">
<title>Node1&#45;&gt;Node7</title>
<path fill="none" stroke="midnightblue" d="M383.68,-224.37C403.33,-205.89 449.71,-162.29 474.75,-138.74"/>
<polygon fill="midnightblue" stroke="midnightblue" points="477.47,-140.99 482.36,-131.59 472.68,-135.89 477.47,-140.99"/>
</g>
<!-- Node9 -->
<g id="node9" class="node">
<title>Node9</title>
<g id="a_node9"><a xlink:href="tstringlist_8h.html" target="_top" xlink:title=" ">
<polygon fill="white" stroke="black" points="338.5,-168.5 338.5,-187.5 410.5,-187.5 410.5,-168.5 338.5,-168.5"/>
<text text-anchor="middle" x="374.5" y="-175.5" font-family="Helvetica,sans-Serif" font-size="10.00">tstringlist.h</text>
</a>
</g>
</g>
<!-- Node1&#45;&gt;Node9 -->
<g id="edge10" class="edge">
<title>Node1&#45;&gt;Node9</title>
<path fill="none" stroke="midnightblue" d="M374.5,-224.08C374.5,-217.01 374.5,-206.86 374.5,-197.99"/>
<polygon fill="midnightblue" stroke="midnightblue" points="378,-197.75 374.5,-187.75 371,-197.75 378,-197.75"/>
</g>
<!-- Node3 -->
<g id="node3" class="node">
<title>Node3</title>
<g id="a_node3"><a xlink:title=" ">
<polygon fill="white" stroke="#bfbfbf" points="223.5,-0.5 223.5,-19.5 281.5,-19.5 281.5,-0.5 223.5,-0.5"/>
<text text-anchor="middle" x="252.5" y="-7.5" font-family="Helvetica,sans-Serif" font-size="10.00">memory</text>
</a>
</g>
</g>
<!-- Node2&#45;&gt;Node3 -->
<g id="edge2" class="edge">
<title>Node2&#45;&gt;Node3</title>
<path fill="none" stroke="midnightblue" d="M315.45,-56.32C304.04,-48.11 286.67,-35.6 273.07,-25.81"/>
<polygon fill="midnightblue" stroke="midnightblue" points="274.93,-22.84 264.77,-19.83 270.84,-28.52 274.93,-22.84"/>
</g>
<!-- Node4 -->
<g id="node4" class="node">
<title>Node4</title>
<g id="a_node4"><a xlink:title=" ">
<polygon fill="white" stroke="#bfbfbf" points="300,-0.5 300,-19.5 347,-19.5 347,-0.5 300,-0.5"/>
<text text-anchor="middle" x="323.5" y="-7.5" font-family="Helvetica,sans-Serif" font-size="10.00">vector</text>
</a>
</g>
</g>
<!-- Node2&#45;&gt;Node4 -->
<g id="edge3" class="edge">
<title>Node2&#45;&gt;Node4</title>
<path fill="none" stroke="midnightblue" d="M326.84,-56.08C326.32,-49.01 325.56,-38.86 324.91,-29.99"/>
<polygon fill="midnightblue" stroke="midnightblue" points="328.38,-29.47 324.15,-19.75 321.4,-29.98 328.38,-29.47"/>
</g>
<!-- Node5 -->
<g id="node5" class="node">
<title>Node5</title>
<g id="a_node5"><a xlink:title=" ">
<polygon fill="white" stroke="#bfbfbf" points="365.5,-0.5 365.5,-19.5 413.5,-19.5 413.5,-0.5 365.5,-0.5"/>
<text text-anchor="middle" x="389.5" y="-7.5" font-family="Helvetica,sans-Serif" font-size="10.00">iosfwd</text>
</a>
</g>
</g>
<!-- Node2&#45;&gt;Node5 -->
<g id="edge4" class="edge">
<title>Node2&#45;&gt;Node5</title>
<path fill="none" stroke="midnightblue" d="M337.46,-56.32C346.63,-48.34 360.44,-36.31 371.53,-26.65"/>
<polygon fill="midnightblue" stroke="midnightblue" points="374.12,-29.04 379.36,-19.83 369.52,-23.76 374.12,-29.04"/>
</g>
<!-- Node6 -->
<g id="node6" class="node">
<title>Node6</title>
<g id="a_node6"><a xlink:href="taglib__export_8h.html" target="_top" xlink:title=" ">
<polygon fill="white" stroke="black" points="431.5,-0.5 431.5,-19.5 521.5,-19.5 521.5,-0.5 431.5,-0.5"/>
<text text-anchor="middle" x="476.5" y="-7.5" font-family="Helvetica,sans-Serif" font-size="10.00">taglib_export.h</text>
</a>
</g>
</g>
<!-- Node2&#45;&gt;Node6 -->
<g id="edge5" class="edge">
<title>Node2&#45;&gt;Node6</title>
<path fill="none" stroke="midnightblue" d="M351.11,-56.44C375.96,-47.44 415.27,-33.19 443.25,-23.05"/>
<polygon fill="midnightblue" stroke="midnightblue" points="444.79,-26.21 453,-19.52 442.41,-19.63 444.79,-26.21"/>
</g>
<!-- Node7&#45;&gt;Node2 -->
<g id="edge8" class="edge">
<title>Node7&#45;&gt;Node2</title>
<path fill="none" stroke="midnightblue" d="M465.51,-112.44C437.8,-103.32 393.75,-88.81 362.88,-78.65"/>
<polygon fill="midnightblue" stroke="midnightblue" points="363.96,-75.32 353.36,-75.52 361.77,-81.97 363.96,-75.32"/>
</g>
<!-- Node7&#45;&gt;Node6 -->
<g id="edge9" class="edge">
<title>Node7&#45;&gt;Node6</title>
<path fill="none" stroke="midnightblue" d="M490.32,-112.37C487.9,-94.62 482.32,-53.67 479.04,-29.6"/>
<polygon fill="midnightblue" stroke="midnightblue" points="482.49,-29.03 477.67,-19.59 475.55,-29.97 482.49,-29.03"/>
</g>
<!-- Node8 -->
<g id="node8" class="node">
<title>Node8</title>
<g id="a_node8"><a xlink:title=" ">
<polygon fill="white" stroke="#bfbfbf" points="504.5,-56.5 504.5,-75.5 548.5,-75.5 548.5,-56.5 504.5,-56.5"/>
<text text-anchor="middle" x="526.5" y="-63.5" font-family="Helvetica,sans-Serif" font-size="10.00">string</text>
</a>
</g>
</g>
<!-- Node7&#45;&gt;Node8 -->
<g id="edge7" class="edge">
<title>Node7&#45;&gt;Node8</title>
<path fill="none" stroke="midnightblue" d="M497.28,-112.08C502.17,-104.53 509.33,-93.49 515.33,-84.23"/>
<polygon fill="midnightblue" stroke="midnightblue" points="518.33,-86.05 520.83,-75.75 512.45,-82.24 518.33,-86.05"/>
</g>
<!-- Node9&#45;&gt;Node6 -->
<g id="edge21" class="edge">
<title>Node9&#45;&gt;Node6</title>
<path fill="none" stroke="midnightblue" d="M383.76,-168.31C392.63,-159.67 406.03,-145.75 415.5,-132 438.97,-97.9 459,-53.51 469.22,-29.09"/>
<polygon fill="midnightblue" stroke="midnightblue" points="472.54,-30.24 473.1,-19.66 466.06,-27.58 472.54,-30.24"/>
</g>
<!-- Node9&#45;&gt;Node7 -->
<g id="edge11" class="edge">
<title>Node9&#45;&gt;Node7</title>
<path fill="none" stroke="midnightblue" d="M393.04,-168.44C412.12,-159.64 442.07,-145.81 463.94,-135.72"/>
<polygon fill="midnightblue" stroke="midnightblue" points="465.43,-138.88 473.05,-131.52 462.5,-132.53 465.43,-138.88"/>
</g>
<!-- Node10 -->
<g id="node10" class="node">
<title>Node10</title>
<g id="a_node10"><a xlink:href="tlist_8h.html" target="_top" xlink:title=" ">
<polygon fill="white" stroke="black" points="185.5,-56.5 185.5,-75.5 229.5,-75.5 229.5,-56.5 185.5,-56.5"/>
<text text-anchor="middle" x="207.5" y="-63.5" font-family="Helvetica,sans-Serif" font-size="10.00">tlist.h</text>
</a>
</g>
</g>
<!-- Node9&#45;&gt;Node10 -->
<g id="edge12" class="edge">
<title>Node9&#45;&gt;Node10</title>
<path fill="none" stroke="midnightblue" d="M359.87,-168.47C344.82,-159.62 320.77,-145.23 300.5,-132 274.98,-115.35 246.35,-95.09 227.68,-81.66"/>
<polygon fill="midnightblue" stroke="midnightblue" points="229.53,-78.68 219.37,-75.66 225.43,-84.35 229.53,-78.68"/>
</g>
<!-- Node14 -->
<g id="node14" class="node">
<title>Node14</title>
<g id="a_node14"><a xlink:href="tbytevectorlist_8h.html" target="_top" xlink:title=" ">
<polygon fill="white" stroke="black" points="309,-112.5 309,-131.5 406,-131.5 406,-112.5 309,-112.5"/>
<text text-anchor="middle" x="357.5" y="-119.5" font-family="Helvetica,sans-Serif" font-size="10.00">tbytevectorlist.h</text>
</a>
</g>
</g>
<!-- Node9&#45;&gt;Node14 -->
<g id="edge17" class="edge">
<title>Node9&#45;&gt;Node14</title>
<path fill="none" stroke="midnightblue" d="M371.69,-168.08C369.42,-160.85 366.13,-150.41 363.29,-141.4"/>
<polygon fill="midnightblue" stroke="midnightblue" points="366.6,-140.24 360.25,-131.75 359.92,-142.34 366.6,-140.24"/>
</g>
<!-- Node10&#45;&gt;Node3 -->
<g id="edge15" class="edge">
<title>Node10&#45;&gt;Node3</title>
<path fill="none" stroke="midnightblue" d="M214.93,-56.08C221.35,-48.38 230.81,-37.03 238.62,-27.65"/>
<polygon fill="midnightblue" stroke="midnightblue" points="241.49,-29.67 245.21,-19.75 236.12,-25.19 241.49,-29.67"/>
</g>
<!-- Node11 -->
<g id="node11" class="node">
<title>Node11</title>
<g id="a_node11"><a xlink:title=" ">
<polygon fill="white" stroke="#bfbfbf" points="71.5,-0.5 71.5,-19.5 103.5,-19.5 103.5,-0.5 71.5,-0.5"/>
<text text-anchor="middle" x="87.5" y="-7.5" font-family="Helvetica,sans-Serif" font-size="10.00">list</text>
</a>
</g>
</g>
<!-- Node10&#45;&gt;Node11 -->
<g id="edge13" class="edge">
<title>Node10&#45;&gt;Node11</title>
<path fill="none" stroke="midnightblue" d="M188.49,-56.44C168.11,-47.27 135.64,-32.66 113.04,-22.5"/>
<polygon fill="midnightblue" stroke="midnightblue" points="114.29,-19.22 103.73,-18.3 111.41,-25.6 114.29,-19.22"/>
</g>
<!-- Node12 -->
<g id="node12" class="node">
<title>Node12</title>
<g id="a_node12"><a xlink:title=" ">
<polygon fill="white" stroke="#bfbfbf" points="122,-0.5 122,-19.5 205,-19.5 205,-0.5 122,-0.5"/>
<text text-anchor="middle" x="163.5" y="-7.5" font-family="Helvetica,sans-Serif" font-size="10.00">initializer_list</text>
</a>
</g>
</g>
<!-- Node10&#45;&gt;Node12 -->
<g id="edge14" class="edge">
<title>Node10&#45;&gt;Node12</title>
<path fill="none" stroke="midnightblue" d="M200.23,-56.08C193.96,-48.38 184.71,-37.03 177.07,-27.65"/>
<polygon fill="midnightblue" stroke="midnightblue" points="179.66,-25.29 170.63,-19.75 174.23,-29.71 179.66,-25.29"/>
</g>
<!-- Node13 -->
<g id="node13" class="node">
<title>Node13</title>
<g id="a_node13"><a xlink:title=" ">
<polygon fill="white" stroke="#bfbfbf" points="0,-0.5 0,-19.5 53,-19.5 53,-0.5 0,-0.5"/>
<text text-anchor="middle" x="26.5" y="-7.5" font-family="Helvetica,sans-Serif" font-size="10.00">tlist.tcc</text>
</a>
</g>
</g>
<!-- Node10&#45;&gt;Node13 -->
<g id="edge16" class="edge">
<title>Node10&#45;&gt;Node13</title>
<path fill="none" stroke="midnightblue" d="M185.31,-58.38C154.85,-49.29 99.71,-32.84 63.09,-21.92"/>
<polygon fill="midnightblue" stroke="midnightblue" points="63.88,-18.5 53.29,-18.99 61.87,-25.21 63.88,-18.5"/>
</g>
<!-- Node14&#45;&gt;Node2 -->
<g id="edge18" class="edge">
<title>Node14&#45;&gt;Node2</title>
<path fill="none" stroke="midnightblue" d="M352.55,-112.08C348.4,-104.61 342.35,-93.72 337.23,-84.52"/>
<polygon fill="midnightblue" stroke="midnightblue" points="340.28,-82.79 332.36,-75.75 334.16,-86.19 340.28,-82.79"/>
</g>
<!-- Node14&#45;&gt;Node6 -->
<g id="edge20" class="edge">
<title>Node14&#45;&gt;Node6</title>
<path fill="none" stroke="midnightblue" d="M365.33,-112.25C376.94,-99.45 399.59,-75.05 420.5,-56 432.14,-45.39 445.92,-34.31 456.9,-25.79"/>
<polygon fill="midnightblue" stroke="midnightblue" points="459.2,-28.43 465,-19.57 454.94,-22.88 459.2,-28.43"/>
</g>
<!-- Node14&#45;&gt;Node10 -->
<g id="edge19" class="edge">
<title>Node14&#45;&gt;Node10</title>
<path fill="none" stroke="midnightblue" d="M333.73,-112.44C308.16,-103.24 267.38,-88.56 239.12,-78.38"/>
<polygon fill="midnightblue" stroke="midnightblue" points="240.28,-75.08 229.69,-74.99 237.91,-81.67 240.28,-75.08"/>
</g>
</g>
</svg>
