<?xml version="1.0" encoding="UTF-8" standalone="no"?>
<!DOCTYPE svg PUBLIC "-//W3C//DTD SVG 1.1//EN"
 "http://www.w3.org/Graphics/SVG/1.1/DTD/svg11.dtd">
<!-- Generated by graphviz version 2.42.4 (0)
 -->
<!-- Title: apeitem.h Pages: 1 -->
<svg width="557pt" height="247pt"
 viewBox="0.00 0.00 556.50 247.00" xmlns="http://www.w3.org/2000/svg" xmlns:xlink="http://www.w3.org/1999/xlink">
<g id="graph0" class="graph" transform="scale(1 1) rotate(0) translate(4 243)">
<title>apeitem.h</title>
<!-- Node1 -->
<g id="Node000001" class="node">
<title>Node1</title>
<g id="a_Node000001"><a xlink:title=" ">
<polygon fill="#999999" stroke="#666666" points="407.5,-239 341.5,-239 341.5,-220 407.5,-220 407.5,-239"/>
<text text-anchor="middle" x="374.5" y="-227" font-family="Helvetica,sans-Serif" font-size="10.00">apeitem.h</text>
</a>
</g>
</g>
<!-- Node2 -->
<g id="Node000002" class="node">
<title>Node2</title>
<g id="a_Node000002"><a xlink:href="tbytevector_8h.html" target="_top" xlink:title=" ">
<polygon fill="white" stroke="#666666" points="368,-74 287,-74 287,-55 368,-55 368,-74"/>
<text text-anchor="middle" x="327.5" y="-62" font-family="Helvetica,sans-Serif" font-size="10.00">tbytevector.h</text>
</a>
</g>
</g>
<!-- Node1&#45;&gt;Node2 -->
<g id="edge1_Node000001_Node000002" class="edge">
<title>Node1&#45;&gt;Node2</title>
<g id="a_edge1_Node000001_Node000002"><a xlink:title=" ">
<path fill="none" stroke="#63b8ff" d="M363.94,-219.74C354.19,-211.28 339.71,-197.77 329.5,-184 313.04,-161.8 307.14,-155.82 300.5,-129 298.47,-120.8 298.23,-118.13 300.5,-110 303.26,-100.12 308.89,-90.25 314.29,-82.32"/>
<polygon fill="#63b8ff" stroke="#63b8ff" points="317.28,-84.17 320.35,-74.03 311.63,-80.04 317.28,-84.17"/>
</a>
</g>
</g>
<!-- Node7 -->
<g id="Node000007" class="node">
<title>Node7</title>
<g id="a_Node000007"><a xlink:href="tstring_8h.html" target="_top" xlink:title=" ">
<polygon fill="white" stroke="#666666" points="520,-129 463,-129 463,-110 520,-110 520,-129"/>
<text text-anchor="middle" x="491.5" y="-117" font-family="Helvetica,sans-Serif" font-size="10.00">tstring.h</text>
</a>
</g>
</g>
<!-- Node1&#45;&gt;Node7 -->
<g id="edge6_Node000001_Node000007" class="edge">
<title>Node1&#45;&gt;Node7</title>
<g id="a_edge6_Node000001_Node000007"><a xlink:title=" ">
<path fill="none" stroke="#63b8ff" d="M384.07,-219.66C403.88,-201.38 449.6,-159.18 474.53,-136.17"/>
<polygon fill="#63b8ff" stroke="#63b8ff" points="477.15,-138.51 482.12,-129.16 472.4,-133.37 477.15,-138.51"/>
</a>
</g>
</g>
<!-- Node9 -->
<g id="Node000009" class="node">
<title>Node9</title>
<g id="a_Node000009"><a xlink:href="tstringlist_8h.html" target="_top" xlink:title=" ">
<polygon fill="white" stroke="#666666" points="410.5,-184 338.5,-184 338.5,-165 410.5,-165 410.5,-184"/>
<text text-anchor="middle" x="374.5" y="-172" font-family="Helvetica,sans-Serif" font-size="10.00">tstringlist.h</text>
</a>
</g>
</g>
<!-- Node1&#45;&gt;Node9 -->
<g id="edge10_Node000001_Node000009" class="edge">
<title>Node1&#45;&gt;Node9</title>
<g id="a_edge10_Node000001_Node000009"><a xlink:title=" ">
<path fill="none" stroke="#63b8ff" d="M374.5,-219.75C374.5,-212.8 374.5,-202.85 374.5,-194.13"/>
<polygon fill="#63b8ff" stroke="#63b8ff" points="378,-194.09 374.5,-184.09 371,-194.09 378,-194.09"/>
</a>
</g>
</g>
<!-- Node3 -->
<g id="Node000003" class="node">
<title>Node3</title>
<g id="a_Node000003"><a xlink:title=" ">
<polygon fill="#e0e0e0" stroke="#999999" points="281.5,-19 223.5,-19 223.5,0 281.5,0 281.5,-19"/>
<text text-anchor="middle" x="252.5" y="-7" font-family="Helvetica,sans-Serif" font-size="10.00">memory</text>
</a>
</g>
</g>
<!-- Node2&#45;&gt;Node3 -->
<g id="edge2_Node000002_Node000003" class="edge">
<title>Node2&#45;&gt;Node3</title>
<g id="a_edge2_Node000002_Node000003"><a xlink:title=" ">
<path fill="none" stroke="#63b8ff" d="M315.45,-54.98C304.04,-46.92 286.67,-34.65 273.07,-25.03"/>
<polygon fill="#63b8ff" stroke="#63b8ff" points="274.96,-22.08 264.77,-19.17 270.92,-27.8 274.96,-22.08"/>
</a>
</g>
</g>
<!-- Node4 -->
<g id="Node000004" class="node">
<title>Node4</title>
<g id="a_Node000004"><a xlink:title=" ">
<polygon fill="#e0e0e0" stroke="#999999" points="347,-19 300,-19 300,0 347,0 347,-19"/>
<text text-anchor="middle" x="323.5" y="-7" font-family="Helvetica,sans-Serif" font-size="10.00">vector</text>
</a>
</g>
</g>
<!-- Node2&#45;&gt;Node4 -->
<g id="edge3_Node000002_Node000004" class="edge">
<title>Node2&#45;&gt;Node4</title>
<g id="a_edge3_Node000002_Node000004"><a xlink:title=" ">
<path fill="none" stroke="#63b8ff" d="M326.84,-54.75C326.32,-47.8 325.56,-37.85 324.91,-29.13"/>
<polygon fill="#63b8ff" stroke="#63b8ff" points="328.39,-28.8 324.15,-19.09 321.41,-29.32 328.39,-28.8"/>
</a>
</g>
</g>
<!-- Node5 -->
<g id="Node000005" class="node">
<title>Node5</title>
<g id="a_Node000005"><a xlink:title=" ">
<polygon fill="#e0e0e0" stroke="#999999" points="413.5,-19 365.5,-19 365.5,0 413.5,0 413.5,-19"/>
<text text-anchor="middle" x="389.5" y="-7" font-family="Helvetica,sans-Serif" font-size="10.00">iosfwd</text>
</a>
</g>
</g>
<!-- Node2&#45;&gt;Node5 -->
<g id="edge4_Node000002_Node000005" class="edge">
<title>Node2&#45;&gt;Node5</title>
<g id="a_edge4_Node000002_Node000005"><a xlink:title=" ">
<path fill="none" stroke="#63b8ff" d="M337.46,-54.98C346.63,-47.15 360.44,-35.34 371.53,-25.86"/>
<polygon fill="#63b8ff" stroke="#63b8ff" points="374.03,-28.33 379.36,-19.17 369.48,-23.01 374.03,-28.33"/>
</a>
</g>
</g>
<!-- Node6 -->
<g id="Node000006" class="node">
<title>Node6</title>
<g id="a_Node000006"><a xlink:href="taglib__export_8h.html" target="_top" xlink:title=" ">
<polygon fill="white" stroke="#666666" points="521.5,-19 431.5,-19 431.5,0 521.5,0 521.5,-19"/>
<text text-anchor="middle" x="476.5" y="-7" font-family="Helvetica,sans-Serif" font-size="10.00">taglib_export.h</text>
</a>
</g>
</g>
<!-- Node2&#45;&gt;Node6 -->
<g id="edge5_Node000002_Node000006" class="edge">
<title>Node2&#45;&gt;Node6</title>
<g id="a_edge5_Node000002_Node000006"><a xlink:title=" ">
<path fill="none" stroke="#63b8ff" d="M351.44,-54.98C376.06,-46.23 414.62,-32.51 442.42,-22.62"/>
<polygon fill="#63b8ff" stroke="#63b8ff" points="443.88,-25.82 452.12,-19.17 441.53,-19.22 443.88,-25.82"/>
</a>
</g>
</g>
<!-- Node7&#45;&gt;Node2 -->
<g id="edge8_Node000007_Node000002" class="edge">
<title>Node7&#45;&gt;Node2</title>
<g id="a_edge8_Node000007_Node000002"><a xlink:title=" ">
<path fill="none" stroke="#63b8ff" d="M465.15,-109.98C437.74,-101.13 394.61,-87.19 363.94,-77.28"/>
<polygon fill="#63b8ff" stroke="#63b8ff" points="364.65,-73.83 354.06,-74.08 362.5,-80.49 364.65,-73.83"/>
</a>
</g>
</g>
<!-- Node7&#45;&gt;Node6 -->
<g id="edge9_Node000007_Node000006" class="edge">
<title>Node7&#45;&gt;Node6</title>
<g id="a_edge9_Node000007_Node000006"><a xlink:title=" ">
<path fill="none" stroke="#63b8ff" d="M490.27,-109.66C487.84,-92.17 482.38,-52.8 479.11,-29.27"/>
<polygon fill="#63b8ff" stroke="#63b8ff" points="482.55,-28.58 477.7,-19.16 475.61,-29.54 482.55,-28.58"/>
</a>
</g>
</g>
<!-- Node8 -->
<g id="Node000008" class="node">
<title>Node8</title>
<g id="a_Node000008"><a xlink:title=" ">
<polygon fill="#e0e0e0" stroke="#999999" points="548.5,-74 504.5,-74 504.5,-55 548.5,-55 548.5,-74"/>
<text text-anchor="middle" x="526.5" y="-62" font-family="Helvetica,sans-Serif" font-size="10.00">string</text>
</a>
</g>
</g>
<!-- Node7&#45;&gt;Node8 -->
<g id="edge7_Node000007_Node000008" class="edge">
<title>Node7&#45;&gt;Node8</title>
<g id="a_edge7_Node000007_Node000008"><a xlink:title=" ">
<path fill="none" stroke="#63b8ff" d="M497.28,-109.75C502.12,-102.42 509.18,-91.73 515.14,-82.7"/>
<polygon fill="#63b8ff" stroke="#63b8ff" points="518.24,-84.36 520.83,-74.09 512.4,-80.5 518.24,-84.36"/>
</a>
</g>
</g>
<!-- Node9&#45;&gt;Node6 -->
<g id="edge21_Node000009_Node000006" class="edge">
<title>Node9&#45;&gt;Node6</title>
<g id="a_edge21_Node000009_Node000006"><a xlink:title=" ">
<path fill="none" stroke="#63b8ff" d="M383.75,-164.91C392.6,-156.37 405.99,-142.6 415.5,-129 438.71,-95.79 458.7,-52.58 469.03,-28.58"/>
<polygon fill="#63b8ff" stroke="#63b8ff" points="472.29,-29.85 472.95,-19.28 465.84,-27.13 472.29,-29.85"/>
</a>
</g>
</g>
<!-- Node9&#45;&gt;Node7 -->
<g id="edge11_Node000009_Node000007" class="edge">
<title>Node9&#45;&gt;Node7</title>
<g id="a_edge11_Node000009_Node000007"><a xlink:title=" ">
<path fill="none" stroke="#63b8ff" d="M393.3,-164.98C412.12,-156.46 441.32,-143.23 463,-133.41"/>
<polygon fill="#63b8ff" stroke="#63b8ff" points="464.7,-136.48 472.36,-129.17 461.81,-130.11 464.7,-136.48"/>
</a>
</g>
</g>
<!-- Node10 -->
<g id="Node000010" class="node">
<title>Node10</title>
<g id="a_Node000010"><a xlink:href="tlist_8h.html" target="_top" xlink:title=" ">
<polygon fill="white" stroke="#666666" points="229.5,-74 185.5,-74 185.5,-55 229.5,-55 229.5,-74"/>
<text text-anchor="middle" x="207.5" y="-62" font-family="Helvetica,sans-Serif" font-size="10.00">tlist.h</text>
</a>
</g>
</g>
<!-- Node9&#45;&gt;Node10 -->
<g id="edge12_Node000009_Node000010" class="edge">
<title>Node9&#45;&gt;Node10</title>
<g id="a_edge12_Node000009_Node000010"><a xlink:title=" ">
<path fill="none" stroke="#63b8ff" d="M359.6,-164.88C344.55,-156.09 320.69,-141.95 300.5,-129 275.18,-112.76 246.71,-93.11 228.02,-80.01"/>
<polygon fill="#63b8ff" stroke="#63b8ff" points="229.88,-77.04 219.68,-74.15 225.85,-82.77 229.88,-77.04"/>
</a>
</g>
</g>
<!-- Node14 -->
<g id="Node000014" class="node">
<title>Node14</title>
<g id="a_Node000014"><a xlink:href="tbytevectorlist_8h.html" target="_top" xlink:title=" ">
<polygon fill="white" stroke="#666666" points="406,-129 309,-129 309,-110 406,-110 406,-129"/>
<text text-anchor="middle" x="357.5" y="-117" font-family="Helvetica,sans-Serif" font-size="10.00">tbytevectorlist.h</text>
</a>
</g>
</g>
<!-- Node9&#45;&gt;Node14 -->
<g id="edge17_Node000009_Node000014" class="edge">
<title>Node9&#45;&gt;Node14</title>
<g id="a_edge17_Node000009_Node000014"><a xlink:title=" ">
<path fill="none" stroke="#63b8ff" d="M371.69,-164.75C369.44,-157.72 366.2,-147.62 363.38,-138.84"/>
<polygon fill="#63b8ff" stroke="#63b8ff" points="366.64,-137.54 360.25,-129.09 359.98,-139.68 366.64,-137.54"/>
</a>
</g>
</g>
<!-- Node10&#45;&gt;Node3 -->
<g id="edge15_Node000010_Node000003" class="edge">
<title>Node10&#45;&gt;Node3</title>
<g id="a_edge15_Node000010_Node000003"><a xlink:title=" ">
<path fill="none" stroke="#63b8ff" d="M214.93,-54.75C221.35,-47.18 230.81,-36.05 238.62,-26.84"/>
<polygon fill="#63b8ff" stroke="#63b8ff" points="241.4,-28.98 245.21,-19.09 236.07,-24.45 241.4,-28.98"/>
</a>
</g>
</g>
<!-- Node11 -->
<g id="Node000011" class="node">
<title>Node11</title>
<g id="a_Node000011"><a xlink:title=" ">
<polygon fill="#e0e0e0" stroke="#999999" points="103.5,-19 71.5,-19 71.5,0 103.5,0 103.5,-19"/>
<text text-anchor="middle" x="87.5" y="-7" font-family="Helvetica,sans-Serif" font-size="10.00">list</text>
</a>
</g>
</g>
<!-- Node10&#45;&gt;Node11 -->
<g id="edge13_Node000010_Node000011" class="edge">
<title>Node10&#45;&gt;Node11</title>
<g id="a_edge13_Node000010_Node000011"><a xlink:title=" ">
<path fill="none" stroke="#63b8ff" d="M188.22,-54.98C167.79,-45.96 135.43,-31.67 112.93,-21.73"/>
<polygon fill="#63b8ff" stroke="#63b8ff" points="114.22,-18.47 103.65,-17.63 111.39,-24.88 114.22,-18.47"/>
</a>
</g>
</g>
<!-- Node12 -->
<g id="Node000012" class="node">
<title>Node12</title>
<g id="a_Node000012"><a xlink:title=" ">
<polygon fill="#e0e0e0" stroke="#999999" points="205,-19 122,-19 122,0 205,0 205,-19"/>
<text text-anchor="middle" x="163.5" y="-7" font-family="Helvetica,sans-Serif" font-size="10.00">initializer_list</text>
</a>
</g>
</g>
<!-- Node10&#45;&gt;Node12 -->
<g id="edge14_Node000010_Node000012" class="edge">
<title>Node10&#45;&gt;Node12</title>
<g id="a_edge14_Node000010_Node000012"><a xlink:title=" ">
<path fill="none" stroke="#63b8ff" d="M200.23,-54.75C193.96,-47.18 184.71,-36.05 177.07,-26.84"/>
<polygon fill="#63b8ff" stroke="#63b8ff" points="179.71,-24.55 170.63,-19.09 174.33,-29.02 179.71,-24.55"/>
</a>
</g>
</g>
<!-- Node13 -->
<g id="Node000013" class="node">
<title>Node13</title>
<g id="a_Node000013"><a xlink:title=" ">
<polygon fill="#e0e0e0" stroke="#999999" points="53,-19 0,-19 0,0 53,0 53,-19"/>
<text text-anchor="middle" x="26.5" y="-7" font-family="Helvetica,sans-Serif" font-size="10.00">tlist.tcc</text>
</a>
</g>
</g>
<!-- Node10&#45;&gt;Node13 -->
<g id="edge16_Node000010_Node000013" class="edge">
<title>Node10&#45;&gt;Node13</title>
<g id="a_edge16_Node000010_Node000013"><a xlink:title=" ">
<path fill="none" stroke="#63b8ff" d="M185.31,-57C154.85,-48.08 99.71,-31.94 63.09,-21.21"/>
<polygon fill="#63b8ff" stroke="#63b8ff" points="63.87,-17.8 53.29,-18.35 61.91,-24.51 63.87,-17.8"/>
</a>
</g>
</g>
<!-- Node14&#45;&gt;Node2 -->
<g id="edge18_Node000014_Node000002" class="edge">
<title>Node14&#45;&gt;Node2</title>
<g id="a_edge18_Node000014_Node000002"><a xlink:title=" ">
<path fill="none" stroke="#63b8ff" d="M352.55,-109.75C348.44,-102.49 342.47,-91.95 337.4,-82.98"/>
<polygon fill="#63b8ff" stroke="#63b8ff" points="340.33,-81.07 332.36,-74.09 334.24,-84.52 340.33,-81.07"/>
</a>
</g>
</g>
<!-- Node14&#45;&gt;Node6 -->
<g id="edge20_Node000014_Node000006" class="edge">
<title>Node14&#45;&gt;Node6</title>
<g id="a_edge20_Node000014_Node000006"><a xlink:title=" ">
<path fill="none" stroke="#63b8ff" d="M365.36,-109.96C376.99,-97.47 399.68,-73.65 420.5,-55 432.03,-44.67 445.61,-33.85 456.51,-25.46"/>
<polygon fill="#63b8ff" stroke="#63b8ff" points="458.75,-28.16 464.59,-19.32 454.51,-22.59 458.75,-28.16"/>
</a>
</g>
</g>
<!-- Node14&#45;&gt;Node10 -->
<g id="edge19_Node000014_Node000010" class="edge">
<title>Node14&#45;&gt;Node10</title>
<g id="a_edge19_Node000014_Node000010"><a xlink:title=" ">
<path fill="none" stroke="#63b8ff" d="M333.4,-109.98C307.88,-100.97 267.47,-86.69 239.34,-76.75"/>
<polygon fill="#63b8ff" stroke="#63b8ff" points="240.18,-73.33 229.59,-73.3 237.85,-79.94 240.18,-73.33"/>
</a>
</g>
</g>
</g>
</svg>
