<?xml version="1.0" encoding="UTF-8" standalone="no"?>
<!DOCTYPE svg PUBLIC "-//W3C//DTD SVG 1.1//EN"
 "http://www.w3.org/Graphics/SVG/1.1/DTD/svg11.dtd">
<!-- Generated by graphviz version 2.46.1 (20210213.1702)
 -->
<!-- Title: apeitem.h Pages: 1 -->
<svg width="445pt" height="308pt"
 viewBox="0.00 0.00 445.00 308.00" xmlns="http://www.w3.org/2000/svg" xmlns:xlink="http://www.w3.org/1999/xlink">
<g id="graph0" class="graph" transform="scale(1 1) rotate(0) translate(4 304)">
<title>apeitem.h</title>
<polygon fill="white" stroke="transparent" points="-4,4 -4,-304 441,-304 441,4 -4,4"/>
<!-- Node1 -->
<g id="node1" class="node">
<title>Node1</title>
<g id="a_node1"><a xlink:title=" ">
<polygon fill="#bfbfbf" stroke="black" points="143,-280.5 143,-299.5 202,-299.5 202,-280.5 143,-280.5"/>
<text text-anchor="middle" x="172.5" y="-287.5" font-family="Helvetica,sans-Serif" font-size="10.00">apeitem.h</text>
</a>
</g>
</g>
<!-- Node2 -->
<g id="node2" class="node">
<title>Node2</title>
<g id="a_node2"><a xlink:href="tbytevector_8h.html" target="_top" xlink:title=" ">
<polygon fill="white" stroke="black" points="74,-112.5 74,-131.5 147,-131.5 147,-112.5 74,-112.5"/>
<text text-anchor="middle" x="110.5" y="-119.5" font-family="Helvetica,sans-Serif" font-size="10.00">tbytevector.h</text>
</a>
</g>
</g>
<!-- Node1&#45;&gt;Node2 -->
<g id="edge1" class="edge">
<title>Node1&#45;&gt;Node2</title>
<path fill="none" stroke="midnightblue" d="M169.17,-280.08C159.37,-253.83 130.5,-176.55 117.27,-141.12"/>
<polygon fill="midnightblue" stroke="midnightblue" points="120.48,-139.71 113.7,-131.57 113.92,-142.16 120.48,-139.71"/>
</g>
<!-- Node9 -->
<g id="node9" class="node">
<title>Node9</title>
<g id="a_node9"><a xlink:href="tstring_8h.html" target="_top" xlink:title=" ">
<polygon fill="white" stroke="black" points="146.5,-168.5 146.5,-187.5 198.5,-187.5 198.5,-168.5 146.5,-168.5"/>
<text text-anchor="middle" x="172.5" y="-175.5" font-family="Helvetica,sans-Serif" font-size="10.00">tstring.h</text>
</a>
</g>
</g>
<!-- Node1&#45;&gt;Node9 -->
<g id="edge8" class="edge">
<title>Node1&#45;&gt;Node9</title>
<path fill="none" stroke="midnightblue" d="M172.5,-280.37C172.5,-262.62 172.5,-221.67 172.5,-197.6"/>
<polygon fill="midnightblue" stroke="midnightblue" points="176,-197.59 172.5,-187.59 169,-197.59 176,-197.59"/>
</g>
<!-- Node10 -->
<g id="node10" class="node">
<title>Node10</title>
<g id="a_node10"><a xlink:href="tstringlist_8h.html" target="_top" xlink:title=" ">
<polygon fill="white" stroke="black" points="238,-224.5 238,-243.5 303,-243.5 303,-224.5 238,-224.5"/>
<text text-anchor="middle" x="270.5" y="-231.5" font-family="Helvetica,sans-Serif" font-size="10.00">tstringlist.h</text>
</a>
</g>
</g>
<!-- Node1&#45;&gt;Node10 -->
<g id="edge14" class="edge">
<title>Node1&#45;&gt;Node10</title>
<path fill="none" stroke="midnightblue" d="M188.25,-280.32C203.82,-271.74 227.88,-258.49 245.96,-248.52"/>
<polygon fill="midnightblue" stroke="midnightblue" points="247.72,-251.55 254.79,-243.65 244.35,-245.42 247.72,-251.55"/>
</g>
<!-- Node3 -->
<g id="node3" class="node">
<title>Node3</title>
<g id="a_node3"><a xlink:href="taglib_8h.html" target="_top" xlink:title=" ">
<polygon fill="white" stroke="black" points="92.5,-56.5 92.5,-75.5 140.5,-75.5 140.5,-56.5 92.5,-56.5"/>
<text text-anchor="middle" x="116.5" y="-63.5" font-family="Helvetica,sans-Serif" font-size="10.00">taglib.h</text>
</a>
</g>
</g>
<!-- Node2&#45;&gt;Node3 -->
<g id="edge2" class="edge">
<title>Node2&#45;&gt;Node3</title>
<path fill="none" stroke="midnightblue" d="M111.49,-112.08C112.29,-104.93 113.43,-94.64 114.42,-85.69"/>
<polygon fill="midnightblue" stroke="midnightblue" points="117.9,-86.08 115.53,-75.75 110.94,-85.3 117.9,-86.08"/>
</g>
<!-- Node6 -->
<g id="node6" class="node">
<title>Node6</title>
<g id="a_node6"><a xlink:href="taglib__export_8h.html" target="_top" xlink:title=" ">
<polygon fill="white" stroke="black" points="237.5,-56.5 237.5,-75.5 317.5,-75.5 317.5,-56.5 237.5,-56.5"/>
<text text-anchor="middle" x="277.5" y="-63.5" font-family="Helvetica,sans-Serif" font-size="10.00">taglib_export.h</text>
</a>
</g>
</g>
<!-- Node2&#45;&gt;Node6 -->
<g id="edge5" class="edge">
<title>Node2&#45;&gt;Node6</title>
<path fill="none" stroke="midnightblue" d="M136.96,-112.44C165.18,-103.32 210.04,-88.81 241.47,-78.65"/>
<polygon fill="midnightblue" stroke="midnightblue" points="242.72,-81.92 251.16,-75.52 240.57,-75.26 242.72,-81.92"/>
</g>
<!-- Node7 -->
<g id="node7" class="node">
<title>Node7</title>
<g id="a_node7"><a xlink:title=" ">
<polygon fill="white" stroke="#bfbfbf" points="30.5,-56.5 30.5,-75.5 74.5,-75.5 74.5,-56.5 30.5,-56.5"/>
<text text-anchor="middle" x="52.5" y="-63.5" font-family="Helvetica,sans-Serif" font-size="10.00">vector</text>
</a>
</g>
</g>
<!-- Node2&#45;&gt;Node7 -->
<g id="edge6" class="edge">
<title>Node2&#45;&gt;Node7</title>
<path fill="none" stroke="midnightblue" d="M101.18,-112.32C92.61,-104.34 79.69,-92.31 69.31,-82.65"/>
<polygon fill="midnightblue" stroke="midnightblue" points="71.69,-80.09 61.99,-75.83 66.92,-85.21 71.69,-80.09"/>
</g>
<!-- Node8 -->
<g id="node8" class="node">
<title>Node8</title>
<g id="a_node8"><a xlink:title=" ">
<polygon fill="white" stroke="#bfbfbf" points="158.5,-56.5 158.5,-75.5 212.5,-75.5 212.5,-56.5 158.5,-56.5"/>
<text text-anchor="middle" x="185.5" y="-63.5" font-family="Helvetica,sans-Serif" font-size="10.00">iostream</text>
</a>
</g>
</g>
<!-- Node2&#45;&gt;Node8 -->
<g id="edge7" class="edge">
<title>Node2&#45;&gt;Node8</title>
<path fill="none" stroke="midnightblue" d="M122.55,-112.32C133.96,-104.11 151.33,-91.6 164.93,-81.81"/>
<polygon fill="midnightblue" stroke="midnightblue" points="167.16,-84.52 173.23,-75.83 163.07,-78.84 167.16,-84.52"/>
</g>
<!-- Node4 -->
<g id="node4" class="node">
<title>Node4</title>
<g id="a_node4"><a xlink:title=" ">
<polygon fill="white" stroke="#bfbfbf" points="76.5,-0.5 76.5,-19.5 156.5,-19.5 156.5,-0.5 76.5,-0.5"/>
<text text-anchor="middle" x="116.5" y="-7.5" font-family="Helvetica,sans-Serif" font-size="10.00">taglib_config.h</text>
</a>
</g>
</g>
<!-- Node3&#45;&gt;Node4 -->
<g id="edge3" class="edge">
<title>Node3&#45;&gt;Node4</title>
<path fill="none" stroke="midnightblue" d="M116.5,-56.08C116.5,-49.01 116.5,-38.86 116.5,-29.99"/>
<polygon fill="midnightblue" stroke="midnightblue" points="120,-29.75 116.5,-19.75 113,-29.75 120,-29.75"/>
</g>
<!-- Node5 -->
<g id="node5" class="node">
<title>Node5</title>
<g id="a_node5"><a xlink:title=" ">
<polygon fill="white" stroke="#bfbfbf" points="0,-0.5 0,-19.5 41,-19.5 41,-0.5 0,-0.5"/>
<text text-anchor="middle" x="20.5" y="-7.5" font-family="Helvetica,sans-Serif" font-size="10.00">string</text>
</a>
</g>
</g>
<!-- Node3&#45;&gt;Node5 -->
<g id="edge4" class="edge">
<title>Node3&#45;&gt;Node5</title>
<path fill="none" stroke="midnightblue" d="M101.08,-56.32C85.96,-47.82 62.68,-34.73 45.03,-24.8"/>
<polygon fill="midnightblue" stroke="midnightblue" points="46.32,-21.51 35.89,-19.65 42.89,-27.61 46.32,-21.51"/>
</g>
<!-- Node9&#45;&gt;Node2 -->
<g id="edge11" class="edge">
<title>Node9&#45;&gt;Node2</title>
<path fill="none" stroke="midnightblue" d="M162.54,-168.32C153.37,-160.34 139.56,-148.31 128.47,-138.65"/>
<polygon fill="midnightblue" stroke="midnightblue" points="130.48,-135.76 120.64,-131.83 125.88,-141.04 130.48,-135.76"/>
</g>
<!-- Node9&#45;&gt;Node3 -->
<g id="edge10" class="edge">
<title>Node9&#45;&gt;Node3</title>
<path fill="none" stroke="midnightblue" d="M146.41,-174.25C120.68,-169.99 82.64,-159.21 64.5,-132 52.25,-113.63 73.15,-94.03 91.99,-81.22"/>
<polygon fill="midnightblue" stroke="midnightblue" points="94.11,-84.01 100.65,-75.67 90.34,-78.12 94.11,-84.01"/>
</g>
<!-- Node9&#45;&gt;Node5 -->
<g id="edge12" class="edge">
<title>Node9&#45;&gt;Node5</title>
<path fill="none" stroke="midnightblue" d="M146.37,-171.7C121.37,-165.57 83.71,-153.46 57.5,-132 34.61,-113.25 30.06,-104.32 21.5,-76 16.96,-60.96 17.06,-43.05 18.1,-29.85"/>
<polygon fill="midnightblue" stroke="midnightblue" points="21.61,-29.95 19.16,-19.64 14.64,-29.23 21.61,-29.95"/>
</g>
<!-- Node9&#45;&gt;Node6 -->
<g id="edge9" class="edge">
<title>Node9&#45;&gt;Node6</title>
<path fill="none" stroke="midnightblue" d="M180.74,-168.37C198.3,-149.97 239.63,-106.67 262.18,-83.05"/>
<polygon fill="midnightblue" stroke="midnightblue" points="264.93,-85.24 269.3,-75.59 259.86,-80.41 264.93,-85.24"/>
</g>
<!-- Node9&#45;&gt;Node8 -->
<g id="edge13" class="edge">
<title>Node9&#45;&gt;Node8</title>
<path fill="none" stroke="midnightblue" d="M173.52,-168.37C175.62,-150.62 180.46,-109.67 183.3,-85.6"/>
<polygon fill="midnightblue" stroke="midnightblue" points="186.79,-85.93 184.48,-75.59 179.84,-85.11 186.79,-85.93"/>
</g>
<!-- Node10&#45;&gt;Node6 -->
<g id="edge24" class="edge">
<title>Node10&#45;&gt;Node6</title>
<path fill="none" stroke="midnightblue" d="M270.88,-224.08C271.98,-197.95 275.21,-121.21 276.72,-85.58"/>
<polygon fill="midnightblue" stroke="midnightblue" points="280.21,-85.71 277.14,-75.57 273.22,-85.41 280.21,-85.71"/>
</g>
<!-- Node10&#45;&gt;Node8 -->
<g id="edge25" class="edge">
<title>Node10&#45;&gt;Node8</title>
<path fill="none" stroke="midnightblue" d="M265.93,-224.08C252.43,-197.72 212.58,-119.88 194.54,-84.66"/>
<polygon fill="midnightblue" stroke="midnightblue" points="197.56,-82.87 189.89,-75.57 191.33,-86.06 197.56,-82.87"/>
</g>
<!-- Node10&#45;&gt;Node9 -->
<g id="edge15" class="edge">
<title>Node10&#45;&gt;Node9</title>
<path fill="none" stroke="midnightblue" d="M254.75,-224.32C239.18,-215.74 215.12,-202.49 197.04,-192.52"/>
<polygon fill="midnightblue" stroke="midnightblue" points="198.65,-189.42 188.21,-187.65 195.28,-195.55 198.65,-189.42"/>
</g>
<!-- Node11 -->
<g id="node11" class="node">
<title>Node11</title>
<g id="a_node11"><a xlink:href="tlist_8h.html" target="_top" xlink:title=" ">
<polygon fill="white" stroke="black" points="356,-112.5 356,-131.5 397,-131.5 397,-112.5 356,-112.5"/>
<text text-anchor="middle" x="376.5" y="-119.5" font-family="Helvetica,sans-Serif" font-size="10.00">tlist.h</text>
</a>
</g>
</g>
<!-- Node10&#45;&gt;Node11 -->
<g id="edge16" class="edge">
<title>Node10&#45;&gt;Node11</title>
<path fill="none" stroke="midnightblue" d="M303.25,-232.96C336.84,-230.96 387.6,-222.01 412.5,-188 424.07,-172.19 409.24,-152.26 395.27,-138.67"/>
<polygon fill="midnightblue" stroke="midnightblue" points="397.51,-135.98 387.76,-131.83 392.8,-141.15 397.51,-135.98"/>
</g>
<!-- Node14 -->
<g id="node14" class="node">
<title>Node14</title>
<g id="a_node14"><a xlink:href="tbytevectorlist_8h.html" target="_top" xlink:title=" ">
<polygon fill="white" stroke="black" points="317.5,-168.5 317.5,-187.5 403.5,-187.5 403.5,-168.5 317.5,-168.5"/>
<text text-anchor="middle" x="360.5" y="-175.5" font-family="Helvetica,sans-Serif" font-size="10.00">tbytevectorlist.h</text>
</a>
</g>
</g>
<!-- Node10&#45;&gt;Node14 -->
<g id="edge20" class="edge">
<title>Node10&#45;&gt;Node14</title>
<path fill="none" stroke="midnightblue" d="M284.96,-224.32C299,-215.9 320.55,-202.97 337.04,-193.07"/>
<polygon fill="midnightblue" stroke="midnightblue" points="339.3,-195.8 346.08,-187.65 335.7,-189.8 339.3,-195.8"/>
</g>
<!-- Node11&#45;&gt;Node3 -->
<g id="edge17" class="edge">
<title>Node11&#45;&gt;Node3</title>
<path fill="none" stroke="midnightblue" d="M355.74,-117.39C317.24,-110.59 231.99,-95.03 150.51,-76.11"/>
<polygon fill="midnightblue" stroke="midnightblue" points="151.14,-72.66 140.6,-73.78 149.54,-79.47 151.14,-72.66"/>
</g>
<!-- Node12 -->
<g id="node12" class="node">
<title>Node12</title>
<g id="a_node12"><a xlink:title=" ">
<polygon fill="white" stroke="#bfbfbf" points="408,-56.5 408,-75.5 437,-75.5 437,-56.5 408,-56.5"/>
<text text-anchor="middle" x="422.5" y="-63.5" font-family="Helvetica,sans-Serif" font-size="10.00">list</text>
</a>
</g>
</g>
<!-- Node11&#45;&gt;Node12 -->
<g id="edge18" class="edge">
<title>Node11&#45;&gt;Node12</title>
<path fill="none" stroke="midnightblue" d="M384.1,-112.08C390.73,-104.3 400.52,-92.8 408.56,-83.37"/>
<polygon fill="midnightblue" stroke="midnightblue" points="411.23,-85.63 415.05,-75.75 405.9,-81.09 411.23,-85.63"/>
</g>
<!-- Node13 -->
<g id="node13" class="node">
<title>Node13</title>
<g id="a_node13"><a xlink:title=" ">
<polygon fill="white" stroke="#bfbfbf" points="341,-56.5 341,-75.5 390,-75.5 390,-56.5 341,-56.5"/>
<text text-anchor="middle" x="365.5" y="-63.5" font-family="Helvetica,sans-Serif" font-size="10.00">tlist.tcc</text>
</a>
</g>
</g>
<!-- Node11&#45;&gt;Node13 -->
<g id="edge19" class="edge">
<title>Node11&#45;&gt;Node13</title>
<path fill="none" stroke="midnightblue" d="M374.68,-112.08C373.23,-104.93 371.13,-94.64 369.31,-85.69"/>
<polygon fill="midnightblue" stroke="midnightblue" points="372.71,-84.85 367.28,-75.75 365.85,-86.25 372.71,-84.85"/>
</g>
<!-- Node14&#45;&gt;Node2 -->
<g id="edge22" class="edge">
<title>Node14&#45;&gt;Node2</title>
<path fill="none" stroke="midnightblue" d="M320.89,-168.44C276.38,-158.83 204.2,-143.24 157.04,-133.05"/>
<polygon fill="midnightblue" stroke="midnightblue" points="157.59,-129.59 147.08,-130.9 156.12,-136.43 157.59,-129.59"/>
</g>
<!-- Node14&#45;&gt;Node6 -->
<g id="edge21" class="edge">
<title>Node14&#45;&gt;Node6</title>
<path fill="none" stroke="midnightblue" d="M353.99,-168.37C340.23,-150.14 308,-107.43 290.08,-83.68"/>
<polygon fill="midnightblue" stroke="midnightblue" points="292.8,-81.47 283.98,-75.59 287.21,-85.68 292.8,-81.47"/>
</g>
<!-- Node14&#45;&gt;Node11 -->
<g id="edge23" class="edge">
<title>Node14&#45;&gt;Node11</title>
<path fill="none" stroke="midnightblue" d="M363.14,-168.08C365.29,-160.85 368.38,-150.41 371.05,-141.4"/>
<polygon fill="midnightblue" stroke="midnightblue" points="374.42,-142.33 373.91,-131.75 367.71,-140.34 374.42,-142.33"/>
</g>
</g>
</svg>
