<?xml version="1.0" encoding="UTF-8" standalone="no"?>
<!DOCTYPE svg PUBLIC "-//W3C//DTD SVG 1.1//EN"
 "http://www.w3.org/Graphics/SVG/1.1/DTD/svg11.dtd">
<!-- Generated by graphviz version 2.43.0 (0)
 -->
<!-- Title: apeitem.h Pages: 1 -->
<svg width="627pt" height="308pt"
 viewBox="0.00 0.00 626.85 308.00" xmlns="http://www.w3.org/2000/svg" xmlns:xlink="http://www.w3.org/1999/xlink">
<g id="graph0" class="graph" transform="scale(1 1) rotate(0) translate(4 304)">
<title>apeitem.h</title>
<polygon fill="white" stroke="transparent" points="-4,4 -4,-304 622.85,-304 622.85,4 -4,4"/>
<!-- Node1 -->
<g id="node1" class="node">
<title>Node1</title>
<g id="a_node1"><a xlink:title=" ">
<polygon fill="#bfbfbf" stroke="black" points="107.35,-280.5 107.35,-299.5 173.35,-299.5 173.35,-280.5 107.35,-280.5"/>
<text text-anchor="middle" x="140.35" y="-287.5" font-family="Helvetica,sans-Serif" font-size="10.00">apeitem.h</text>
</a>
</g>
</g>
<!-- Node2 -->
<g id="node2" class="node">
<title>Node2</title>
<g id="a_node2"><a xlink:href="tbytevector_8h.html" target="_top" xlink:title=" ">
<polygon fill="white" stroke="black" points="244.85,-112.5 244.85,-131.5 325.85,-131.5 325.85,-112.5 244.85,-112.5"/>
<text text-anchor="middle" x="285.35" y="-119.5" font-family="Helvetica,sans-Serif" font-size="10.00">tbytevector.h</text>
</a>
</g>
</g>
<!-- Node1&#45;&gt;Node2 -->
<g id="edge1" class="edge">
<title>Node1&#45;&gt;Node2</title>
<path fill="none" stroke="midnightblue" d="M159.58,-280.4C189.46,-265.94 246.51,-233.8 274.35,-188 282.81,-174.09 285.26,-155.58 285.78,-141.87"/>
<polygon fill="midnightblue" stroke="midnightblue" points="289.28,-141.71 285.84,-131.69 282.28,-141.67 289.28,-141.71"/>
</g>
<!-- Node11 -->
<g id="node11" class="node">
<title>Node11</title>
<g id="a_node11"><a xlink:href="tstring_8h.html" target="_top" xlink:title=" ">
<polygon fill="white" stroke="black" points="16.85,-168.5 16.85,-187.5 73.85,-187.5 73.85,-168.5 16.85,-168.5"/>
<text text-anchor="middle" x="45.35" y="-175.5" font-family="Helvetica,sans-Serif" font-size="10.00">tstring.h</text>
</a>
</g>
</g>
<!-- Node1&#45;&gt;Node11 -->
<g id="edge10" class="edge">
<title>Node1&#45;&gt;Node11</title>
<path fill="none" stroke="midnightblue" d="M131.04,-280.37C121.68,-271.54 107.02,-257.28 95.35,-244 81.61,-228.35 67.25,-209.37 57.47,-195.97"/>
<polygon fill="midnightblue" stroke="midnightblue" points="60.18,-193.75 51.49,-187.69 54.51,-197.85 60.18,-193.75"/>
</g>
<!-- Node12 -->
<g id="node12" class="node">
<title>Node12</title>
<g id="a_node12"><a xlink:href="tstringlist_8h.html" target="_top" xlink:title=" ">
<polygon fill="white" stroke="black" points="104.35,-224.5 104.35,-243.5 176.35,-243.5 176.35,-224.5 104.35,-224.5"/>
<text text-anchor="middle" x="140.35" y="-231.5" font-family="Helvetica,sans-Serif" font-size="10.00">tstringlist.h</text>
</a>
</g>
</g>
<!-- Node1&#45;&gt;Node12 -->
<g id="edge16" class="edge">
<title>Node1&#45;&gt;Node12</title>
<path fill="none" stroke="midnightblue" d="M140.35,-280.08C140.35,-273.01 140.35,-262.86 140.35,-253.99"/>
<polygon fill="midnightblue" stroke="midnightblue" points="143.85,-253.75 140.35,-243.75 136.85,-253.75 143.85,-253.75"/>
</g>
<!-- Node3 -->
<g id="node3" class="node">
<title>Node3</title>
<g id="a_node3"><a xlink:title=" ">
<polygon fill="white" stroke="#bfbfbf" points="15.35,-56.5 15.35,-75.5 75.35,-75.5 75.35,-56.5 15.35,-56.5"/>
<text text-anchor="middle" x="45.35" y="-63.5" font-family="Helvetica,sans-Serif" font-size="10.00">iostream</text>
</a>
</g>
</g>
<!-- Node2&#45;&gt;Node3 -->
<g id="edge2" class="edge">
<title>Node2&#45;&gt;Node3</title>
<path fill="none" stroke="midnightblue" d="M246.8,-112.45C208.38,-103.91 147.43,-90.31 85.52,-76.26"/>
<polygon fill="midnightblue" stroke="midnightblue" points="86.11,-72.8 75.58,-74 84.56,-79.63 86.11,-72.8"/>
</g>
<!-- Node4 -->
<g id="node4" class="node">
<title>Node4</title>
<g id="a_node4"><a xlink:title=" ">
<polygon fill="white" stroke="#bfbfbf" points="338.35,-56.5 338.35,-75.5 396.35,-75.5 396.35,-56.5 338.35,-56.5"/>
<text text-anchor="middle" x="367.35" y="-63.5" font-family="Helvetica,sans-Serif" font-size="10.00">memory</text>
</a>
</g>
</g>
<!-- Node2&#45;&gt;Node4 -->
<g id="edge3" class="edge">
<title>Node2&#45;&gt;Node4</title>
<path fill="none" stroke="midnightblue" d="M298.53,-112.32C311.2,-103.98 330.59,-91.21 345.56,-81.35"/>
<polygon fill="midnightblue" stroke="midnightblue" points="347.78,-84.08 354.21,-75.65 343.93,-78.23 347.78,-84.08"/>
</g>
<!-- Node5 -->
<g id="node5" class="node">
<title>Node5</title>
<g id="a_node5"><a xlink:title=" ">
<polygon fill="white" stroke="#bfbfbf" points="272.85,-56.5 272.85,-75.5 319.85,-75.5 319.85,-56.5 272.85,-56.5"/>
<text text-anchor="middle" x="296.35" y="-63.5" font-family="Helvetica,sans-Serif" font-size="10.00">vector</text>
</a>
</g>
</g>
<!-- Node2&#45;&gt;Node5 -->
<g id="edge4" class="edge">
<title>Node2&#45;&gt;Node5</title>
<path fill="none" stroke="midnightblue" d="M287.17,-112.08C288.63,-104.93 290.72,-94.64 292.55,-85.69"/>
<polygon fill="midnightblue" stroke="midnightblue" points="296,-86.25 294.57,-75.75 289.14,-84.85 296,-86.25"/>
</g>
<!-- Node6 -->
<g id="node6" class="node">
<title>Node6</title>
<g id="a_node6"><a xlink:href="taglib_8h.html" target="_top" xlink:title=" ">
<polygon fill="white" stroke="black" points="201.85,-56.5 201.85,-75.5 254.85,-75.5 254.85,-56.5 201.85,-56.5"/>
<text text-anchor="middle" x="228.35" y="-63.5" font-family="Helvetica,sans-Serif" font-size="10.00">taglib.h</text>
</a>
</g>
</g>
<!-- Node2&#45;&gt;Node6 -->
<g id="edge5" class="edge">
<title>Node2&#45;&gt;Node6</title>
<path fill="none" stroke="midnightblue" d="M276.19,-112.32C267.85,-104.42 255.32,-92.55 245.18,-82.94"/>
<polygon fill="midnightblue" stroke="midnightblue" points="247.34,-80.17 237.68,-75.83 242.53,-85.25 247.34,-80.17"/>
</g>
<!-- Node10 -->
<g id="node10" class="node">
<title>Node10</title>
<g id="a_node10"><a xlink:href="taglib__export_8h.html" target="_top" xlink:title=" ">
<polygon fill="white" stroke="black" points="93.35,-56.5 93.35,-75.5 183.35,-75.5 183.35,-56.5 93.35,-56.5"/>
<text text-anchor="middle" x="138.35" y="-63.5" font-family="Helvetica,sans-Serif" font-size="10.00">taglib_export.h</text>
</a>
</g>
</g>
<!-- Node2&#45;&gt;Node10 -->
<g id="edge9" class="edge">
<title>Node2&#45;&gt;Node10</title>
<path fill="none" stroke="midnightblue" d="M262.06,-112.44C237.55,-103.44 198.76,-89.19 171.15,-79.05"/>
<polygon fill="midnightblue" stroke="midnightblue" points="172.13,-75.68 161.54,-75.52 169.72,-82.25 172.13,-75.68"/>
</g>
<!-- Node7 -->
<g id="node7" class="node">
<title>Node7</title>
<g id="a_node7"><a xlink:title=" ">
<polygon fill="white" stroke="#bfbfbf" points="233.35,-0.5 233.35,-19.5 321.35,-19.5 321.35,-0.5 233.35,-0.5"/>
<text text-anchor="middle" x="277.35" y="-7.5" font-family="Helvetica,sans-Serif" font-size="10.00">taglib_config.h</text>
</a>
</g>
</g>
<!-- Node6&#45;&gt;Node7 -->
<g id="edge6" class="edge">
<title>Node6&#45;&gt;Node7</title>
<path fill="none" stroke="midnightblue" d="M236.44,-56.08C243.51,-48.3 253.94,-36.8 262.5,-27.37"/>
<polygon fill="midnightblue" stroke="midnightblue" points="265.28,-29.51 269.41,-19.75 260.1,-24.8 265.28,-29.51"/>
</g>
<!-- Node8 -->
<g id="node8" class="node">
<title>Node8</title>
<g id="a_node8"><a xlink:title=" ">
<polygon fill="white" stroke="#bfbfbf" points="143.35,-0.5 143.35,-19.5 215.35,-19.5 215.35,-0.5 143.35,-0.5"/>
<text text-anchor="middle" x="179.35" y="-7.5" font-family="Helvetica,sans-Serif" font-size="10.00">sys/types.h</text>
</a>
</g>
</g>
<!-- Node6&#45;&gt;Node8 -->
<g id="edge7" class="edge">
<title>Node6&#45;&gt;Node8</title>
<path fill="none" stroke="midnightblue" d="M220.26,-56.08C213.2,-48.3 202.77,-36.8 194.2,-27.37"/>
<polygon fill="midnightblue" stroke="midnightblue" points="196.61,-24.8 187.29,-19.75 191.42,-29.51 196.61,-24.8"/>
</g>
<!-- Node9 -->
<g id="node9" class="node">
<title>Node9</title>
<g id="a_node9"><a xlink:title=" ">
<polygon fill="white" stroke="#bfbfbf" points="48.35,-0.5 48.35,-19.5 92.35,-19.5 92.35,-0.5 48.35,-0.5"/>
<text text-anchor="middle" x="70.35" y="-7.5" font-family="Helvetica,sans-Serif" font-size="10.00">string</text>
</a>
</g>
</g>
<!-- Node6&#45;&gt;Node9 -->
<g id="edge8" class="edge">
<title>Node6&#45;&gt;Node9</title>
<path fill="none" stroke="midnightblue" d="M203.32,-56.44C175.88,-47.07 131.8,-32 101.99,-21.81"/>
<polygon fill="midnightblue" stroke="midnightblue" points="103.06,-18.48 92.47,-18.56 100.8,-25.1 103.06,-18.48"/>
</g>
<!-- Node11&#45;&gt;Node2 -->
<g id="edge13" class="edge">
<title>Node11&#45;&gt;Node2</title>
<path fill="none" stroke="midnightblue" d="M74.3,-170.49C114.69,-161.4 188.46,-144.8 237.2,-133.83"/>
<polygon fill="midnightblue" stroke="midnightblue" points="238.22,-137.19 247.2,-131.58 236.68,-130.36 238.22,-137.19"/>
</g>
<!-- Node11&#45;&gt;Node3 -->
<g id="edge11" class="edge">
<title>Node11&#45;&gt;Node3</title>
<path fill="none" stroke="midnightblue" d="M45.35,-168.37C45.35,-150.62 45.35,-109.67 45.35,-85.6"/>
<polygon fill="midnightblue" stroke="midnightblue" points="48.85,-85.59 45.35,-75.59 41.85,-85.59 48.85,-85.59"/>
</g>
<!-- Node11&#45;&gt;Node6 -->
<g id="edge15" class="edge">
<title>Node11&#45;&gt;Node6</title>
<path fill="none" stroke="midnightblue" d="M59.71,-168.37C91.25,-149.41 166.8,-104 205.16,-80.94"/>
<polygon fill="midnightblue" stroke="midnightblue" points="207.29,-83.74 214.06,-75.59 203.69,-77.74 207.29,-83.74"/>
</g>
<!-- Node11&#45;&gt;Node9 -->
<g id="edge12" class="edge">
<title>Node11&#45;&gt;Node9</title>
<path fill="none" stroke="midnightblue" d="M38.14,-168.4C21.97,-148.03 -14.19,-95.57 6.35,-56 13.51,-42.23 27.02,-31.78 39.8,-24.44"/>
<polygon fill="midnightblue" stroke="midnightblue" points="41.67,-27.41 48.87,-19.64 38.39,-21.23 41.67,-27.41"/>
</g>
<!-- Node11&#45;&gt;Node10 -->
<g id="edge14" class="edge">
<title>Node11&#45;&gt;Node10</title>
<path fill="none" stroke="midnightblue" d="M52.65,-168.37C68.13,-150.05 104.49,-107.05 124.52,-83.36"/>
<polygon fill="midnightblue" stroke="midnightblue" points="127.31,-85.49 131.09,-75.59 121.96,-80.97 127.31,-85.49"/>
</g>
<!-- Node12&#45;&gt;Node3 -->
<g id="edge17" class="edge">
<title>Node12&#45;&gt;Node3</title>
<path fill="none" stroke="midnightblue" d="M135.25,-224.08C120.16,-197.72 75.61,-119.88 55.46,-84.66"/>
<polygon fill="midnightblue" stroke="midnightblue" points="58.26,-82.51 50.26,-75.57 52.19,-85.99 58.26,-82.51"/>
</g>
<!-- Node12&#45;&gt;Node10 -->
<g id="edge29" class="edge">
<title>Node12&#45;&gt;Node10</title>
<path fill="none" stroke="midnightblue" d="M140.25,-224.08C139.93,-197.95 139.01,-121.21 138.58,-85.58"/>
<polygon fill="midnightblue" stroke="midnightblue" points="142.08,-85.53 138.46,-75.57 135.08,-85.61 142.08,-85.53"/>
</g>
<!-- Node12&#45;&gt;Node11 -->
<g id="edge18" class="edge">
<title>Node12&#45;&gt;Node11</title>
<path fill="none" stroke="midnightblue" d="M125.09,-224.32C110.13,-215.82 87.1,-202.73 69.63,-192.8"/>
<polygon fill="midnightblue" stroke="midnightblue" points="71,-189.55 60.58,-187.65 67.54,-195.64 71,-189.55"/>
</g>
<!-- Node13 -->
<g id="node13" class="node">
<title>Node13</title>
<g id="a_node13"><a xlink:href="tlist_8h.html" target="_top" xlink:title=" ">
<polygon fill="white" stroke="black" points="345.35,-112.5 345.35,-131.5 389.35,-131.5 389.35,-112.5 345.35,-112.5"/>
<text text-anchor="middle" x="367.35" y="-119.5" font-family="Helvetica,sans-Serif" font-size="10.00">tlist.h</text>
</a>
</g>
</g>
<!-- Node12&#45;&gt;Node13 -->
<g id="edge19" class="edge">
<title>Node12&#45;&gt;Node13</title>
<path fill="none" stroke="midnightblue" d="M174.46,-224.46C202.2,-216.84 241.92,-204.35 274.35,-188 302.17,-173.98 331.1,-152.48 349.16,-138.09"/>
<polygon fill="midnightblue" stroke="midnightblue" points="351.53,-140.67 357.1,-131.66 347.13,-135.23 351.53,-140.67"/>
</g>
<!-- Node17 -->
<g id="node17" class="node">
<title>Node17</title>
<g id="a_node17"><a xlink:href="tbytevectorlist_8h.html" target="_top" xlink:title=" ">
<polygon fill="white" stroke="black" points="168.85,-168.5 168.85,-187.5 265.85,-187.5 265.85,-168.5 168.85,-168.5"/>
<text text-anchor="middle" x="217.35" y="-175.5" font-family="Helvetica,sans-Serif" font-size="10.00">tbytevectorlist.h</text>
</a>
</g>
</g>
<!-- Node12&#45;&gt;Node17 -->
<g id="edge25" class="edge">
<title>Node12&#45;&gt;Node17</title>
<path fill="none" stroke="midnightblue" d="M152.72,-224.32C164.51,-216.06 182.49,-203.45 196.49,-193.63"/>
<polygon fill="midnightblue" stroke="midnightblue" points="198.83,-196.26 205.01,-187.65 194.82,-190.53 198.83,-196.26"/>
</g>
<!-- Node13&#45;&gt;Node4 -->
<g id="edge22" class="edge">
<title>Node13&#45;&gt;Node4</title>
<path fill="none" stroke="midnightblue" d="M367.35,-112.08C367.35,-105.01 367.35,-94.86 367.35,-85.99"/>
<polygon fill="midnightblue" stroke="midnightblue" points="370.85,-85.75 367.35,-75.75 363.85,-85.75 370.85,-85.75"/>
</g>
<!-- Node13&#45;&gt;Node6 -->
<g id="edge23" class="edge">
<title>Node13&#45;&gt;Node6</title>
<path fill="none" stroke="midnightblue" d="M345.33,-112.44C322.25,-103.48 285.79,-89.31 259.71,-79.18"/>
<polygon fill="midnightblue" stroke="midnightblue" points="260.86,-75.88 250.27,-75.52 258.33,-82.4 260.86,-75.88"/>
</g>
<!-- Node14 -->
<g id="node14" class="node">
<title>Node14</title>
<g id="a_node14"><a xlink:title=" ">
<polygon fill="white" stroke="#bfbfbf" points="414.35,-56.5 414.35,-75.5 446.35,-75.5 446.35,-56.5 414.35,-56.5"/>
<text text-anchor="middle" x="430.35" y="-63.5" font-family="Helvetica,sans-Serif" font-size="10.00">list</text>
</a>
</g>
</g>
<!-- Node13&#45;&gt;Node14 -->
<g id="edge20" class="edge">
<title>Node13&#45;&gt;Node14</title>
<path fill="none" stroke="midnightblue" d="M377.47,-112.32C386.88,-104.26 401.1,-92.08 412.42,-82.37"/>
<polygon fill="midnightblue" stroke="midnightblue" points="414.73,-85 420.05,-75.83 410.18,-79.68 414.73,-85"/>
</g>
<!-- Node15 -->
<g id="node15" class="node">
<title>Node15</title>
<g id="a_node15"><a xlink:title=" ">
<polygon fill="white" stroke="#bfbfbf" points="464.85,-56.5 464.85,-75.5 547.85,-75.5 547.85,-56.5 464.85,-56.5"/>
<text text-anchor="middle" x="506.35" y="-63.5" font-family="Helvetica,sans-Serif" font-size="10.00">initializer_list</text>
</a>
</g>
</g>
<!-- Node13&#45;&gt;Node15 -->
<g id="edge21" class="edge">
<title>Node13&#45;&gt;Node15</title>
<path fill="none" stroke="midnightblue" d="M389.38,-112.44C412.46,-103.48 448.91,-89.31 474.99,-79.18"/>
<polygon fill="midnightblue" stroke="midnightblue" points="476.38,-82.4 484.43,-75.52 473.84,-75.88 476.38,-82.4"/>
</g>
<!-- Node16 -->
<g id="node16" class="node">
<title>Node16</title>
<g id="a_node16"><a xlink:title=" ">
<polygon fill="white" stroke="#bfbfbf" points="565.85,-56.5 565.85,-75.5 618.85,-75.5 618.85,-56.5 565.85,-56.5"/>
<text text-anchor="middle" x="592.35" y="-63.5" font-family="Helvetica,sans-Serif" font-size="10.00">tlist.tcc</text>
</a>
</g>
</g>
<!-- Node13&#45;&gt;Node16 -->
<g id="edge24" class="edge">
<title>Node13&#45;&gt;Node16</title>
<path fill="none" stroke="midnightblue" d="M389.62,-115.87C423.4,-108.06 489.89,-92.57 555.52,-76.42"/>
<polygon fill="midnightblue" stroke="midnightblue" points="556.74,-79.73 565.61,-73.93 555.07,-72.93 556.74,-79.73"/>
</g>
<!-- Node17&#45;&gt;Node2 -->
<g id="edge26" class="edge">
<title>Node17&#45;&gt;Node2</title>
<path fill="none" stroke="midnightblue" d="M228.28,-168.32C238.53,-160.18 254.07,-147.84 266.35,-138.09"/>
<polygon fill="midnightblue" stroke="midnightblue" points="268.57,-140.79 274.23,-131.83 264.22,-135.31 268.57,-140.79"/>
</g>
<!-- Node17&#45;&gt;Node10 -->
<g id="edge28" class="edge">
<title>Node17&#45;&gt;Node10</title>
<path fill="none" stroke="midnightblue" d="M211.15,-168.37C198.12,-150.22 167.66,-107.8 150.56,-83.99"/>
<polygon fill="midnightblue" stroke="midnightblue" points="153.2,-81.67 144.52,-75.59 147.51,-85.76 153.2,-81.67"/>
</g>
<!-- Node17&#45;&gt;Node13 -->
<g id="edge27" class="edge">
<title>Node17&#45;&gt;Node13</title>
<path fill="none" stroke="midnightblue" d="M241.12,-168.44C266.69,-159.24 307.47,-144.56 335.73,-134.38"/>
<polygon fill="midnightblue" stroke="midnightblue" points="336.94,-137.67 345.16,-130.99 334.57,-131.08 336.94,-137.67"/>
</g>
</g>
</svg>
