<?xml version="1.0" encoding="UTF-8" standalone="no"?>
<!DOCTYPE svg PUBLIC "-//W3C//DTD SVG 1.1//EN"
 "http://www.w3.org/Graphics/SVG/1.1/DTD/svg11.dtd">
<!-- Generated by graphviz version 2.43.0 (0)
 -->
<!-- Title: apeproperties.h Pages: 1 -->
<svg width="255pt" height="196pt"
 viewBox="0.00 0.00 255.00 196.00" xmlns="http://www.w3.org/2000/svg" xmlns:xlink="http://www.w3.org/1999/xlink">
<g id="graph0" class="graph" transform="scale(1 1) rotate(0) translate(4 192)">
<title>apeproperties.h</title>
<polygon fill="white" stroke="transparent" points="-4,4 -4,-192 251,-192 251,4 -4,4"/>
<!-- Node1 -->
<g id="node1" class="node">
<title>Node1</title>
<g id="a_node1"><a xlink:title=" ">
<polygon fill="#bfbfbf" stroke="black" points="68.5,-168.5 68.5,-187.5 161.5,-187.5 161.5,-168.5 68.5,-168.5"/>
<text text-anchor="middle" x="115" y="-175.5" font-family="Helvetica,sans-Serif" font-size="10.00">apeproperties.h</text>
</a>
</g>
</g>
<!-- Node2 -->
<g id="node2" class="node">
<title>Node2</title>
<g id="a_node2"><a xlink:href="taglib_8h.html" target="_top" xlink:title=" ">
<polygon fill="white" stroke="black" points="9.5,-56.5 9.5,-75.5 62.5,-75.5 62.5,-56.5 9.5,-56.5"/>
<text text-anchor="middle" x="36" y="-63.5" font-family="Helvetica,sans-Serif" font-size="10.00">taglib.h</text>
</a>
</g>
</g>
<!-- Node1&#45;&gt;Node2 -->
<g id="edge1" class="edge">
<title>Node1&#45;&gt;Node2</title>
<path fill="none" stroke="midnightblue" d="M98.11,-168.35C84.56,-160.58 66.05,-147.95 55,-132 45.48,-118.26 40.67,-99.73 38.28,-85.97"/>
<polygon fill="midnightblue" stroke="midnightblue" points="41.7,-85.13 36.79,-75.74 34.77,-86.15 41.7,-85.13"/>
</g>
<!-- Node4 -->
<g id="node4" class="node">
<title>Node4</title>
<g id="a_node4"><a xlink:href="taglib__export_8h.html" target="_top" xlink:title=" ">
<polygon fill="white" stroke="black" points="157,-56.5 157,-75.5 247,-75.5 247,-56.5 157,-56.5"/>
<text text-anchor="middle" x="202" y="-63.5" font-family="Helvetica,sans-Serif" font-size="10.00">taglib_export.h</text>
</a>
</g>
</g>
<!-- Node1&#45;&gt;Node4 -->
<g id="edge3" class="edge">
<title>Node1&#45;&gt;Node4</title>
<path fill="none" stroke="midnightblue" d="M130.65,-168.49C143.98,-160.56 162.86,-147.63 175,-132 185.77,-118.14 192.95,-99.38 197.18,-85.57"/>
<polygon fill="midnightblue" stroke="midnightblue" points="200.61,-86.33 199.96,-75.75 193.87,-84.42 200.61,-86.33"/>
</g>
<!-- Node5 -->
<g id="node5" class="node">
<title>Node5</title>
<g id="a_node5"><a xlink:href="audioproperties_8h.html" target="_top" xlink:title=" ">
<polygon fill="white" stroke="black" points="64,-112.5 64,-131.5 166,-131.5 166,-112.5 64,-112.5"/>
<text text-anchor="middle" x="115" y="-119.5" font-family="Helvetica,sans-Serif" font-size="10.00">audioproperties.h</text>
</a>
</g>
</g>
<!-- Node1&#45;&gt;Node5 -->
<g id="edge4" class="edge">
<title>Node1&#45;&gt;Node5</title>
<path fill="none" stroke="midnightblue" d="M115,-168.08C115,-161.01 115,-150.86 115,-141.99"/>
<polygon fill="midnightblue" stroke="midnightblue" points="118.5,-141.75 115,-131.75 111.5,-141.75 118.5,-141.75"/>
</g>
<!-- Node3 -->
<g id="node3" class="node">
<title>Node3</title>
<g id="a_node3"><a xlink:title=" ">
<polygon fill="white" stroke="#bfbfbf" points="0,-0.5 0,-19.5 72,-19.5 72,-0.5 0,-0.5"/>
<text text-anchor="middle" x="36" y="-7.5" font-family="Helvetica,sans-Serif" font-size="10.00">sys/types.h</text>
</a>
</g>
</g>
<!-- Node2&#45;&gt;Node3 -->
<g id="edge2" class="edge">
<title>Node2&#45;&gt;Node3</title>
<path fill="none" stroke="midnightblue" d="M36,-56.08C36,-49.01 36,-38.86 36,-29.99"/>
<polygon fill="midnightblue" stroke="midnightblue" points="39.5,-29.75 36,-19.75 32.5,-29.75 39.5,-29.75"/>
</g>
<!-- Node5&#45;&gt;Node2 -->
<g id="edge6" class="edge">
<title>Node5&#45;&gt;Node2</title>
<path fill="none" stroke="midnightblue" d="M102.31,-112.32C90.1,-103.98 71.42,-91.21 57,-81.35"/>
<polygon fill="midnightblue" stroke="midnightblue" points="58.89,-78.41 48.66,-75.65 54.94,-84.19 58.89,-78.41"/>
</g>
<!-- Node5&#45;&gt;Node4 -->
<g id="edge7" class="edge">
<title>Node5&#45;&gt;Node4</title>
<path fill="none" stroke="midnightblue" d="M128.98,-112.32C142.55,-103.9 163.38,-90.97 179.32,-81.07"/>
<polygon fill="midnightblue" stroke="midnightblue" points="181.41,-83.9 188.06,-75.65 177.71,-77.95 181.41,-83.9"/>
</g>
<!-- Node6 -->
<g id="node6" class="node">
<title>Node6</title>
<g id="a_node6"><a xlink:title=" ">
<polygon fill="white" stroke="#bfbfbf" points="81,-56.5 81,-75.5 139,-75.5 139,-56.5 81,-56.5"/>
<text text-anchor="middle" x="110" y="-63.5" font-family="Helvetica,sans-Serif" font-size="10.00">memory</text>
</a>
</g>
</g>
<!-- Node5&#45;&gt;Node6 -->
<g id="edge5" class="edge">
<title>Node5&#45;&gt;Node6</title>
<path fill="none" stroke="midnightblue" d="M114.17,-112.08C113.52,-105.01 112.58,-94.86 111.76,-85.99"/>
<polygon fill="midnightblue" stroke="midnightblue" points="115.22,-85.39 110.81,-75.75 108.25,-86.03 115.22,-85.39"/>
</g>
</g>
</svg>
