<?xml version="1.0" encoding="UTF-8" standalone="no"?>
<!DOCTYPE svg PUBLIC "-//W3C//DTD SVG 1.1//EN"
 "http://www.w3.org/Graphics/SVG/1.1/DTD/svg11.dtd">
<!-- Generated by graphviz version 2.43.0 (0)
 -->
<!-- Title: apeproperties.h Pages: 1 -->
<svg width="146pt" height="140pt"
 viewBox="0.00 0.00 145.50 140.00" xmlns="http://www.w3.org/2000/svg" xmlns:xlink="http://www.w3.org/1999/xlink">
<g id="graph0" class="graph" transform="scale(1 1) rotate(0) translate(4 136)">
<title>apeproperties.h</title>
<polygon fill="white" stroke="transparent" points="-4,4 -4,-136 141.5,-136 141.5,4 -4,4"/>
<!-- Node1 -->
<g id="node1" class="node">
<title>Node1</title>
<g id="a_node1"><a xlink:title=" ">
<polygon fill="#bfbfbf" stroke="black" points="0,-112.5 0,-131.5 93,-131.5 93,-112.5 0,-112.5"/>
<text text-anchor="middle" x="46.5" y="-119.5" font-family="Helvetica,sans-Serif" font-size="10.00">apeproperties.h</text>
</a>
</g>
</g>
<!-- Node2 -->
<g id="node2" class="node">
<title>Node2</title>
<g id="a_node2"><a xlink:href="taglib__export_8h.html" target="_top" xlink:title=" ">
<polygon fill="white" stroke="black" points="1.5,-0.5 1.5,-19.5 91.5,-19.5 91.5,-0.5 1.5,-0.5"/>
<text text-anchor="middle" x="46.5" y="-7.5" font-family="Helvetica,sans-Serif" font-size="10.00">taglib_export.h</text>
</a>
</g>
</g>
<!-- Node1&#45;&gt;Node2 -->
<g id="edge1" class="edge">
<title>Node1&#45;&gt;Node2</title>
<path fill="none" stroke="midnightblue" d="M41.37,-112.41C36.44,-103.61 29.34,-89.38 26.5,-76 23.02,-59.62 29.54,-41.43 36.04,-28.48"/>
<polygon fill="midnightblue" stroke="midnightblue" points="39.11,-30.15 40.85,-19.7 32.97,-26.79 39.11,-30.15"/>
</g>
<!-- Node3 -->
<g id="node3" class="node">
<title>Node3</title>
<g id="a_node3"><a xlink:href="audioproperties_8h.html" target="_top" xlink:title=" ">
<polygon fill="white" stroke="black" points="35.5,-56.5 35.5,-75.5 137.5,-75.5 137.5,-56.5 35.5,-56.5"/>
<text text-anchor="middle" x="86.5" y="-63.5" font-family="Helvetica,sans-Serif" font-size="10.00">audioproperties.h</text>
</a>
</g>
</g>
<!-- Node1&#45;&gt;Node3 -->
<g id="edge2" class="edge">
<title>Node1&#45;&gt;Node3</title>
<path fill="none" stroke="midnightblue" d="M53.11,-112.08C58.76,-104.46 67.04,-93.26 73.95,-83.94"/>
<polygon fill="midnightblue" stroke="midnightblue" points="76.88,-85.87 80.02,-75.75 71.25,-81.7 76.88,-85.87"/>
</g>
<!-- Node3&#45;&gt;Node2 -->
<g id="edge3" class="edge">
<title>Node3&#45;&gt;Node2</title>
<path fill="none" stroke="midnightblue" d="M79.89,-56.08C74.24,-48.46 65.96,-37.26 59.05,-27.94"/>
<polygon fill="midnightblue" stroke="midnightblue" points="61.75,-25.7 52.98,-19.75 56.12,-29.87 61.75,-25.7"/>
</g>
</g>
</svg>
