<?xml version="1.0" encoding="UTF-8" standalone="no"?>
<!DOCTYPE svg PUBLIC "-//W3C//DTD SVG 1.1//EN"
 "http://www.w3.org/Graphics/SVG/1.1/DTD/svg11.dtd">
<!-- Generated by graphviz version 2.42.4 (0)
 -->
<!-- Title: apetag.h Pages: 1 -->
<svg width="760pt" height="302pt"
 viewBox="0.00 0.00 760.00 302.00" xmlns="http://www.w3.org/2000/svg" xmlns:xlink="http://www.w3.org/1999/xlink">
<g id="graph0" class="graph" transform="scale(1 1) rotate(0) translate(4 298)">
<title>apetag.h</title>
<!-- Node1 -->
<g id="Node000001" class="node">
<title>Node1</title>
<g id="a_Node000001"><a xlink:title=" ">
<polygon fill="#999999" stroke="#666666" points="357.5,-294 298.5,-294 298.5,-275 357.5,-275 357.5,-294"/>
<text text-anchor="middle" x="328" y="-282" font-family="Helvetica,sans-Serif" font-size="10.00">apetag.h</text>
</a>
</g>
</g>
<!-- Node2 -->
<g id="Node000002" class="node">
<title>Node2</title>
<g id="a_Node000002"><a xlink:href="tbytevector_8h.html" target="_top" xlink:title=" ">
<polygon fill="white" stroke="#666666" points="163.5,-74 82.5,-74 82.5,-55 163.5,-55 163.5,-74"/>
<text text-anchor="middle" x="123" y="-62" font-family="Helvetica,sans-Serif" font-size="10.00">tbytevector.h</text>
</a>
</g>
</g>
<!-- Node1&#45;&gt;Node2 -->
<g id="edge1_Node000001_Node000002" class="edge">
<title>Node1&#45;&gt;Node2</title>
<g id="a_edge1_Node000001_Node000002"><a xlink:title=" ">
<path fill="none" stroke="#63b8ff" d="M298.16,-276.21C254.2,-264.07 171.88,-235.77 122,-184 96.89,-157.94 76.16,-144.2 88,-110 91.67,-99.38 99.04,-89.38 106.08,-81.55"/>
<polygon fill="#63b8ff" stroke="#63b8ff" points="108.7,-83.88 113.12,-74.25 103.66,-79.02 108.7,-83.88"/>
</a>
</g>
</g>
<!-- Node6 -->
<g id="Node000006" class="node">
<title>Node6</title>
<g id="a_Node000006"><a xlink:href="taglib__export_8h.html" target="_top" xlink:title=" ">
<polygon fill="white" stroke="#666666" points="257,-19 167,-19 167,0 257,0 257,-19"/>
<text text-anchor="middle" x="212" y="-7" font-family="Helvetica,sans-Serif" font-size="10.00">taglib_export.h</text>
</a>
</g>
</g>
<!-- Node1&#45;&gt;Node6 -->
<g id="edge18_Node000001_Node000006" class="edge">
<title>Node1&#45;&gt;Node6</title>
<g id="a_edge18_Node000001_Node000006"><a xlink:title=" ">
<path fill="none" stroke="#63b8ff" d="M298.31,-280.18C217.57,-270.33 0,-238 0,-175.5 0,-175.5 0,-175.5 0,-118.5 0,-75.5 35.53,-76.1 73,-55 100.33,-39.61 133.74,-28.7 160.95,-21.53"/>
<polygon fill="#63b8ff" stroke="#63b8ff" points="161.84,-24.92 170.67,-19.06 160.11,-18.13 161.84,-24.92"/>
</a>
</g>
</g>
<!-- Node7 -->
<g id="Node000007" class="node">
<title>Node7</title>
<g id="a_Node000007"><a xlink:href="tmap_8h.html" target="_top" xlink:title=" ">
<polygon fill="white" stroke="#666666" points="621.5,-74 570.5,-74 570.5,-55 621.5,-55 621.5,-74"/>
<text text-anchor="middle" x="596" y="-62" font-family="Helvetica,sans-Serif" font-size="10.00">tmap.h</text>
</a>
</g>
</g>
<!-- Node1&#45;&gt;Node7 -->
<g id="edge6_Node000001_Node000007" class="edge">
<title>Node1&#45;&gt;Node7</title>
<g id="a_edge6_Node000001_Node000007"><a xlink:title=" ">
<path fill="none" stroke="#63b8ff" d="M339.22,-275C369.48,-252.01 455.12,-186.45 524,-129 543.05,-113.12 564.28,-94.24 578.72,-81.22"/>
<polygon fill="#63b8ff" stroke="#63b8ff" points="581.3,-83.61 586.37,-74.3 576.6,-78.42 581.3,-83.61"/>
</a>
</g>
</g>
<!-- Node12 -->
<g id="Node000012" class="node">
<title>Node12</title>
<g id="a_Node000012"><a xlink:href="tstring_8h.html" target="_top" xlink:title=" ">
<polygon fill="white" stroke="#666666" points="315.5,-129 258.5,-129 258.5,-110 315.5,-110 315.5,-129"/>
<text text-anchor="middle" x="287" y="-117" font-family="Helvetica,sans-Serif" font-size="10.00">tstring.h</text>
</a>
</g>
</g>
<!-- Node1&#45;&gt;Node12 -->
<g id="edge12_Node000001_Node000012" class="edge">
<title>Node1&#45;&gt;Node12</title>
<g id="a_edge12_Node000001_Node000012"><a xlink:title=" ">
<path fill="none" stroke="#63b8ff" d="M325.8,-274.74C319.37,-249.2 300.57,-174.43 291.71,-139.23"/>
<polygon fill="#63b8ff" stroke="#63b8ff" points="295.05,-138.15 289.22,-129.31 288.26,-139.86 295.05,-138.15"/>
</a>
</g>
</g>
<!-- Node14 -->
<g id="Node000014" class="node">
<title>Node14</title>
<g id="a_Node000014"><a xlink:href="taglib_8h.html" target="_top" xlink:title=" ">
<polygon fill="white" stroke="#666666" points="628.5,-239 575.5,-239 575.5,-220 628.5,-220 628.5,-239"/>
<text text-anchor="middle" x="602" y="-227" font-family="Helvetica,sans-Serif" font-size="10.00">taglib.h</text>
</a>
</g>
</g>
<!-- Node1&#45;&gt;Node14 -->
<g id="edge16_Node000001_Node000014" class="edge">
<title>Node1&#45;&gt;Node14</title>
<g id="a_edge16_Node000001_Node000014"><a xlink:title=" ">
<path fill="none" stroke="#63b8ff" d="M357.58,-277.78C408.02,-268.02 510.53,-248.19 565.39,-237.58"/>
<polygon fill="#63b8ff" stroke="#63b8ff" points="566.23,-240.98 575.38,-235.65 564.9,-234.11 566.23,-240.98"/>
</a>
</g>
</g>
<!-- Node16 -->
<g id="Node000016" class="node">
<title>Node16</title>
<g id="a_Node000016"><a xlink:href="tag_8h.html" target="_top" xlink:title=" ">
<polygon fill="white" stroke="#666666" points="402.5,-184 361.5,-184 361.5,-165 402.5,-165 402.5,-184"/>
<text text-anchor="middle" x="382" y="-172" font-family="Helvetica,sans-Serif" font-size="10.00">tag.h</text>
</a>
</g>
</g>
<!-- Node1&#45;&gt;Node16 -->
<g id="edge19_Node000001_Node000016" class="edge">
<title>Node1&#45;&gt;Node16</title>
<g id="a_edge19_Node000001_Node000016"><a xlink:title=" ">
<path fill="none" stroke="#63b8ff" d="M332.42,-274.66C341.28,-256.93 361.39,-216.73 373.09,-193.32"/>
<polygon fill="#63b8ff" stroke="#63b8ff" points="376.33,-194.67 377.67,-184.16 370.07,-191.54 376.33,-194.67"/>
</a>
</g>
</g>
<!-- Node22 -->
<g id="Node000022" class="node">
<title>Node22</title>
<g id="a_Node000022"><a xlink:href="apeitem_8h.html" target="_top" xlink:title=" ">
<polygon fill="white" stroke="#666666" points="279,-239 213,-239 213,-220 279,-220 279,-239"/>
<text text-anchor="middle" x="246" y="-227" font-family="Helvetica,sans-Serif" font-size="10.00">apeitem.h</text>
</a>
</g>
</g>
<!-- Node1&#45;&gt;Node22 -->
<g id="edge32_Node000001_Node000022" class="edge">
<title>Node1&#45;&gt;Node22</title>
<g id="a_edge32_Node000001_Node000022"><a xlink:title=" ">
<path fill="none" stroke="#63b8ff" d="M314.83,-274.98C302.23,-266.84 283,-254.41 268.06,-244.76"/>
<polygon fill="#63b8ff" stroke="#63b8ff" points="269.71,-241.66 259.41,-239.17 265.91,-247.54 269.71,-241.66"/>
</a>
</g>
</g>
<!-- Node3 -->
<g id="Node000003" class="node">
<title>Node3</title>
<g id="a_Node000003"><a xlink:title=" ">
<polygon fill="#e0e0e0" stroke="#999999" points="383,-19 325,-19 325,0 383,0 383,-19"/>
<text text-anchor="middle" x="354" y="-7" font-family="Helvetica,sans-Serif" font-size="10.00">memory</text>
</a>
</g>
</g>
<!-- Node2&#45;&gt;Node3 -->
<g id="edge2_Node000002_Node000003" class="edge">
<title>Node2&#45;&gt;Node3</title>
<g id="a_edge2_Node000002_Node000003"><a xlink:title=" ">
<path fill="none" stroke="#63b8ff" d="M160.11,-54.98C202.5,-45.26 271.56,-29.42 314.8,-19.49"/>
<polygon fill="#63b8ff" stroke="#63b8ff" points="315.71,-22.88 324.67,-17.23 314.14,-16.05 315.71,-22.88"/>
</a>
</g>
</g>
<!-- Node4 -->
<g id="Node000004" class="node">
<title>Node4</title>
<g id="a_Node000004"><a xlink:title=" ">
<polygon fill="#e0e0e0" stroke="#999999" points="81.5,-19 34.5,-19 34.5,0 81.5,0 81.5,-19"/>
<text text-anchor="middle" x="58" y="-7" font-family="Helvetica,sans-Serif" font-size="10.00">vector</text>
</a>
</g>
</g>
<!-- Node2&#45;&gt;Node4 -->
<g id="edge3_Node000002_Node000004" class="edge">
<title>Node2&#45;&gt;Node4</title>
<g id="a_edge3_Node000002_Node000004"><a xlink:title=" ">
<path fill="none" stroke="#63b8ff" d="M112.56,-54.98C102.85,-47.07 88.18,-35.11 76.5,-25.58"/>
<polygon fill="#63b8ff" stroke="#63b8ff" points="78.6,-22.78 68.63,-19.17 74.17,-28.2 78.6,-22.78"/>
</a>
</g>
</g>
<!-- Node5 -->
<g id="Node000005" class="node">
<title>Node5</title>
<g id="a_Node000005"><a xlink:title=" ">
<polygon fill="#e0e0e0" stroke="#999999" points="148,-19 100,-19 100,0 148,0 148,-19"/>
<text text-anchor="middle" x="124" y="-7" font-family="Helvetica,sans-Serif" font-size="10.00">iosfwd</text>
</a>
</g>
</g>
<!-- Node2&#45;&gt;Node5 -->
<g id="edge4_Node000002_Node000005" class="edge">
<title>Node2&#45;&gt;Node5</title>
<g id="a_edge4_Node000002_Node000005"><a xlink:title=" ">
<path fill="none" stroke="#63b8ff" d="M123.17,-54.75C123.3,-47.8 123.48,-37.85 123.65,-29.13"/>
<polygon fill="#63b8ff" stroke="#63b8ff" points="127.15,-29.15 123.84,-19.09 120.15,-29.02 127.15,-29.15"/>
</a>
</g>
</g>
<!-- Node2&#45;&gt;Node6 -->
<g id="edge5_Node000002_Node000006" class="edge">
<title>Node2&#45;&gt;Node6</title>
<g id="a_edge5_Node000002_Node000006"><a xlink:title=" ">
<path fill="none" stroke="#63b8ff" d="M137.3,-54.98C151.1,-46.77 172.24,-34.18 188.51,-24.49"/>
<polygon fill="#63b8ff" stroke="#63b8ff" points="190.64,-27.29 197.44,-19.17 187.06,-21.28 190.64,-27.29"/>
</a>
</g>
</g>
<!-- Node7&#45;&gt;Node3 -->
<g id="edge8_Node000007_Node000003" class="edge">
<title>Node7&#45;&gt;Node3</title>
<g id="a_edge8_Node000007_Node000003"><a xlink:title=" ">
<path fill="none" stroke="#63b8ff" d="M570.23,-57.92C533.26,-49.91 462.77,-34.61 392.89,-19.19"/>
<polygon fill="#63b8ff" stroke="#63b8ff" points="393.56,-15.75 383.04,-17.01 392.05,-22.59 393.56,-15.75"/>
</a>
</g>
</g>
<!-- Node8 -->
<g id="Node000008" class="node">
<title>Node8</title>
<g id="a_Node000008"><a xlink:title=" ">
<polygon fill="#e0e0e0" stroke="#999999" points="752,-19 714,-19 714,0 752,0 752,-19"/>
<text text-anchor="middle" x="733" y="-7" font-family="Helvetica,sans-Serif" font-size="10.00">map</text>
</a>
</g>
</g>
<!-- Node7&#45;&gt;Node8 -->
<g id="edge7_Node000007_Node000008" class="edge">
<title>Node7&#45;&gt;Node8</title>
<g id="a_edge7_Node000007_Node000008"><a xlink:title=" ">
<path fill="none" stroke="#63b8ff" d="M618.01,-54.98C641.38,-45.94 678.42,-31.61 704.12,-21.67"/>
<polygon fill="#63b8ff" stroke="#63b8ff" points="705.64,-24.84 713.7,-17.97 703.11,-18.31 705.64,-24.84"/>
</a>
</g>
</g>
<!-- Node9 -->
<g id="Node000009" class="node">
<title>Node9</title>
<g id="a_Node000009"><a xlink:title=" ">
<polygon fill="#e0e0e0" stroke="#999999" points="555.5,-19 472.5,-19 472.5,0 555.5,0 555.5,-19"/>
<text text-anchor="middle" x="514" y="-7" font-family="Helvetica,sans-Serif" font-size="10.00">initializer_list</text>
</a>
</g>
</g>
<!-- Node7&#45;&gt;Node9 -->
<g id="edge9_Node000007_Node000009" class="edge">
<title>Node7&#45;&gt;Node9</title>
<g id="a_edge9_Node000007_Node000009"><a xlink:title=" ">
<path fill="none" stroke="#63b8ff" d="M582.83,-54.98C570.23,-46.84 551,-34.41 536.06,-24.76"/>
<polygon fill="#63b8ff" stroke="#63b8ff" points="537.71,-21.66 527.41,-19.17 533.91,-27.54 537.71,-21.66"/>
</a>
</g>
</g>
<!-- Node10 -->
<g id="Node000010" class="node">
<title>Node10</title>
<g id="a_Node000010"><a xlink:title=" ">
<polygon fill="#e0e0e0" stroke="#999999" points="618.5,-19 573.5,-19 573.5,0 618.5,0 618.5,-19"/>
<text text-anchor="middle" x="596" y="-7" font-family="Helvetica,sans-Serif" font-size="10.00">utility</text>
</a>
</g>
</g>
<!-- Node7&#45;&gt;Node10 -->
<g id="edge10_Node000007_Node000010" class="edge">
<title>Node7&#45;&gt;Node10</title>
<g id="a_edge10_Node000007_Node000010"><a xlink:title=" ">
<path fill="none" stroke="#63b8ff" d="M596,-54.75C596,-47.8 596,-37.85 596,-29.13"/>
<polygon fill="#63b8ff" stroke="#63b8ff" points="599.5,-29.09 596,-19.09 592.5,-29.09 599.5,-29.09"/>
</a>
</g>
</g>
<!-- Node11 -->
<g id="Node000011" class="node">
<title>Node11</title>
<g id="a_Node000011"><a xlink:title=" ">
<polygon fill="#e0e0e0" stroke="#999999" points="695.5,-19 636.5,-19 636.5,0 695.5,0 695.5,-19"/>
<text text-anchor="middle" x="666" y="-7" font-family="Helvetica,sans-Serif" font-size="10.00">tmap.tcc</text>
</a>
</g>
</g>
<!-- Node7&#45;&gt;Node11 -->
<g id="edge11_Node000007_Node000011" class="edge">
<title>Node7&#45;&gt;Node11</title>
<g id="a_edge11_Node000007_Node000011"><a xlink:title=" ">
<path fill="none" stroke="#63b8ff" d="M607.25,-54.98C617.8,-47 633.8,-34.88 646.44,-25.31"/>
<polygon fill="#63b8ff" stroke="#63b8ff" points="648.69,-28 654.55,-19.17 644.46,-22.42 648.69,-28"/>
</a>
</g>
</g>
<!-- Node12&#45;&gt;Node2 -->
<g id="edge14_Node000012_Node000002" class="edge">
<title>Node12&#45;&gt;Node2</title>
<g id="a_edge14_Node000012_Node000002"><a xlink:title=" ">
<path fill="none" stroke="#63b8ff" d="M260.65,-109.98C233.24,-101.13 190.11,-87.19 159.44,-77.28"/>
<polygon fill="#63b8ff" stroke="#63b8ff" points="160.15,-73.83 149.56,-74.08 158,-80.49 160.15,-73.83"/>
</a>
</g>
</g>
<!-- Node12&#45;&gt;Node6 -->
<g id="edge15_Node000012_Node000006" class="edge">
<title>Node12&#45;&gt;Node6</title>
<g id="a_edge15_Node000012_Node000006"><a xlink:title=" ">
<path fill="none" stroke="#63b8ff" d="M281.23,-109.82C273.05,-97.54 257.56,-74.43 244,-55 237.6,-45.83 230.33,-35.7 224.35,-27.43"/>
<polygon fill="#63b8ff" stroke="#63b8ff" points="227.16,-25.35 218.45,-19.31 221.49,-29.46 227.16,-25.35"/>
</a>
</g>
</g>
<!-- Node13 -->
<g id="Node000013" class="node">
<title>Node13</title>
<g id="a_Node000013"><a xlink:title=" ">
<polygon fill="#e0e0e0" stroke="#999999" points="340,-74 296,-74 296,-55 340,-55 340,-74"/>
<text text-anchor="middle" x="318" y="-62" font-family="Helvetica,sans-Serif" font-size="10.00">string</text>
</a>
</g>
</g>
<!-- Node12&#45;&gt;Node13 -->
<g id="edge13_Node000012_Node000013" class="edge">
<title>Node12&#45;&gt;Node13</title>
<g id="a_edge13_Node000012_Node000013"><a xlink:title=" ">
<path fill="none" stroke="#63b8ff" d="M292.12,-109.75C296.36,-102.49 302.53,-91.95 307.78,-82.98"/>
<polygon fill="#63b8ff" stroke="#63b8ff" points="310.95,-84.49 312.98,-74.09 304.91,-80.95 310.95,-84.49"/>
</a>
</g>
</g>
<!-- Node15 -->
<g id="Node000015" class="node">
<title>Node15</title>
<g id="a_Node000015"><a xlink:title=" ">
<polygon fill="#e0e0e0" stroke="#999999" points="643,-184 571,-184 571,-165 643,-165 643,-184"/>
<text text-anchor="middle" x="607" y="-172" font-family="Helvetica,sans-Serif" font-size="10.00">sys/types.h</text>
</a>
</g>
</g>
<!-- Node14&#45;&gt;Node15 -->
<g id="edge17_Node000014_Node000015" class="edge">
<title>Node14&#45;&gt;Node15</title>
<g id="a_edge17_Node000014_Node000015"><a xlink:title=" ">
<path fill="none" stroke="#63b8ff" d="M602.83,-219.75C603.48,-212.8 604.42,-202.85 605.24,-194.13"/>
<polygon fill="#63b8ff" stroke="#63b8ff" points="608.73,-194.37 606.19,-184.09 601.77,-193.72 608.73,-194.37"/>
</a>
</g>
</g>
<!-- Node16&#45;&gt;Node6 -->
<g id="edge20_Node000016_Node000006" class="edge">
<title>Node16&#45;&gt;Node6</title>
<g id="a_edge20_Node000016_Node000006"><a xlink:title=" ">
<path fill="none" stroke="#63b8ff" d="M382.2,-164.71C382.2,-143.03 379.14,-86.45 349,-55 336.68,-42.14 295.65,-29.82 261.68,-21.41"/>
<polygon fill="#63b8ff" stroke="#63b8ff" points="262.41,-17.98 251.86,-19.04 260.76,-24.79 262.41,-17.98"/>
</a>
</g>
</g>
<!-- Node16&#45;&gt;Node12 -->
<g id="edge21_Node000016_Node000012" class="edge">
<title>Node16&#45;&gt;Node12</title>
<g id="a_edge21_Node000016_Node000012"><a xlink:title=" ">
<path fill="none" stroke="#63b8ff" d="M366.74,-164.98C351.87,-156.69 329.02,-143.94 311.58,-134.22"/>
<polygon fill="#63b8ff" stroke="#63b8ff" points="312.98,-130.99 302.54,-129.17 309.57,-137.1 312.98,-130.99"/>
</a>
</g>
</g>
<!-- Node17 -->
<g id="Node000017" class="node">
<title>Node17</title>
<g id="a_Node000017"><a xlink:href="tlist_8h.html" target="_top" xlink:title=" ">
<polygon fill="white" stroke="#666666" points="440,-74 396,-74 396,-55 440,-55 440,-74"/>
<text text-anchor="middle" x="418" y="-62" font-family="Helvetica,sans-Serif" font-size="10.00">tlist.h</text>
</a>
</g>
</g>
<!-- Node16&#45;&gt;Node17 -->
<g id="edge22_Node000016_Node000017" class="edge">
<title>Node16&#45;&gt;Node17</title>
<g id="a_edge22_Node000016_Node000017"><a xlink:title=" ">
<path fill="none" stroke="#63b8ff" d="M384.95,-164.66C390.8,-147.09 404.02,-107.45 411.85,-83.95"/>
<polygon fill="#63b8ff" stroke="#63b8ff" points="415.27,-84.75 415.11,-74.16 408.63,-82.54 415.27,-84.75"/>
</a>
</g>
</g>
<!-- Node20 -->
<g id="Node000020" class="node">
<title>Node20</title>
<g id="a_Node000020"><a xlink:href="tvariant_8h.html" target="_top" xlink:title=" ">
<polygon fill="white" stroke="#666666" points="515,-129 451,-129 451,-110 515,-110 515,-129"/>
<text text-anchor="middle" x="483" y="-117" font-family="Helvetica,sans-Serif" font-size="10.00">tvariant.h</text>
</a>
</g>
</g>
<!-- Node16&#45;&gt;Node20 -->
<g id="edge27_Node000016_Node000020" class="edge">
<title>Node16&#45;&gt;Node20</title>
<g id="a_edge27_Node000016_Node000020"><a xlink:title=" ">
<path fill="none" stroke="#63b8ff" d="M398.23,-164.98C414.18,-156.61 438.78,-143.7 457.38,-133.95"/>
<polygon fill="#63b8ff" stroke="#63b8ff" points="459.25,-136.92 466.48,-129.17 456,-130.72 459.25,-136.92"/>
</a>
</g>
</g>
<!-- Node17&#45;&gt;Node3 -->
<g id="edge25_Node000017_Node000003" class="edge">
<title>Node17&#45;&gt;Node3</title>
<g id="a_edge25_Node000017_Node000003"><a xlink:title=" ">
<path fill="none" stroke="#63b8ff" d="M407.72,-54.98C398.16,-47.07 383.72,-35.11 372.22,-25.58"/>
<polygon fill="#63b8ff" stroke="#63b8ff" points="374.4,-22.85 364.47,-19.17 369.94,-28.24 374.4,-22.85"/>
</a>
</g>
</g>
<!-- Node17&#45;&gt;Node9 -->
<g id="edge24_Node000017_Node000009" class="edge">
<title>Node17&#45;&gt;Node9</title>
<g id="a_edge24_Node000017_Node000009"><a xlink:title=" ">
<path fill="none" stroke="#63b8ff" d="M433.42,-54.98C448.45,-46.69 471.54,-33.94 489.16,-24.22"/>
<polygon fill="#63b8ff" stroke="#63b8ff" points="491.23,-27.07 498.3,-19.17 487.85,-20.94 491.23,-27.07"/>
</a>
</g>
</g>
<!-- Node18 -->
<g id="Node000018" class="node">
<title>Node18</title>
<g id="a_Node000018"><a xlink:title=" ">
<polygon fill="#e0e0e0" stroke="#999999" points="307,-19 275,-19 275,0 307,0 307,-19"/>
<text text-anchor="middle" x="291" y="-7" font-family="Helvetica,sans-Serif" font-size="10.00">list</text>
</a>
</g>
</g>
<!-- Node17&#45;&gt;Node18 -->
<g id="edge23_Node000017_Node000018" class="edge">
<title>Node17&#45;&gt;Node18</title>
<g id="a_edge23_Node000017_Node000018"><a xlink:title=" ">
<path fill="none" stroke="#63b8ff" d="M397.6,-54.98C375.63,-45.82 340.64,-31.22 316.79,-21.26"/>
<polygon fill="#63b8ff" stroke="#63b8ff" points="317.89,-17.93 307.32,-17.31 315.2,-24.39 317.89,-17.93"/>
</a>
</g>
</g>
<!-- Node19 -->
<g id="Node000019" class="node">
<title>Node19</title>
<g id="a_Node000019"><a xlink:title=" ">
<polygon fill="#e0e0e0" stroke="#999999" points="454.5,-19 401.5,-19 401.5,0 454.5,0 454.5,-19"/>
<text text-anchor="middle" x="428" y="-7" font-family="Helvetica,sans-Serif" font-size="10.00">tlist.tcc</text>
</a>
</g>
</g>
<!-- Node17&#45;&gt;Node19 -->
<g id="edge26_Node000017_Node000019" class="edge">
<title>Node17&#45;&gt;Node19</title>
<g id="a_edge26_Node000017_Node000019"><a xlink:title=" ">
<path fill="none" stroke="#63b8ff" d="M419.65,-54.75C420.96,-47.8 422.84,-37.85 424.48,-29.13"/>
<polygon fill="#63b8ff" stroke="#63b8ff" points="427.96,-29.56 426.38,-19.09 421.09,-28.27 427.96,-29.56"/>
</a>
</g>
</g>
<!-- Node20&#45;&gt;Node6 -->
<g id="edge31_Node000020_Node000006" class="edge">
<title>Node20&#45;&gt;Node6</title>
<g id="a_edge31_Node000020_Node000006"><a xlink:title=" ">
<path fill="none" stroke="#63b8ff" d="M495.27,-109.92C512.07,-97.17 538.48,-72.79 523,-55 487,-13.61 338.58,-26.06 267.4,-18.92"/>
<polygon fill="#63b8ff" stroke="#63b8ff" points="267.42,-15.4 257.07,-17.65 266.57,-22.34 267.42,-15.4"/>
</a>
</g>
</g>
<!-- Node20&#45;&gt;Node7 -->
<g id="edge30_Node000020_Node000007" class="edge">
<title>Node20&#45;&gt;Node7</title>
<g id="a_edge30_Node000020_Node000007"><a xlink:title=" ">
<path fill="none" stroke="#63b8ff" d="M501.16,-109.98C519.25,-101.5 547.28,-88.35 568.19,-78.54"/>
<polygon fill="#63b8ff" stroke="#63b8ff" points="569.95,-81.59 577.51,-74.17 566.97,-75.25 569.95,-81.59"/>
</a>
</g>
</g>
<!-- Node20&#45;&gt;Node17 -->
<g id="edge29_Node000020_Node000017" class="edge">
<title>Node20&#45;&gt;Node17</title>
<g id="a_edge29_Node000020_Node000017"><a xlink:title=" ">
<path fill="none" stroke="#63b8ff" d="M472.56,-109.98C462.85,-102.07 448.18,-90.11 436.5,-80.58"/>
<polygon fill="#63b8ff" stroke="#63b8ff" points="438.6,-77.78 428.63,-74.17 434.17,-83.2 438.6,-77.78"/>
</a>
</g>
</g>
<!-- Node21 -->
<g id="Node000021" class="node">
<title>Node21</title>
<g id="a_Node000021"><a xlink:title=" ">
<polygon fill="#e0e0e0" stroke="#999999" points="514,-74 458,-74 458,-55 514,-55 514,-74"/>
<text text-anchor="middle" x="486" y="-62" font-family="Helvetica,sans-Serif" font-size="10.00">sstream</text>
</a>
</g>
</g>
<!-- Node20&#45;&gt;Node21 -->
<g id="edge28_Node000020_Node000021" class="edge">
<title>Node20&#45;&gt;Node21</title>
<g id="a_edge28_Node000020_Node000021"><a xlink:title=" ">
<path fill="none" stroke="#63b8ff" d="M483.5,-109.75C483.89,-102.8 484.45,-92.85 484.95,-84.13"/>
<polygon fill="#63b8ff" stroke="#63b8ff" points="488.44,-84.27 485.51,-74.09 481.45,-83.88 488.44,-84.27"/>
</a>
</g>
</g>
<!-- Node22&#45;&gt;Node2 -->
<g id="edge33_Node000022_Node000002" class="edge">
<title>Node22&#45;&gt;Node2</title>
<g id="a_edge33_Node000022_Node000002"><a xlink:title=" ">
<path fill="none" stroke="#63b8ff" d="M219.26,-219.9C183.45,-206.76 121.35,-177.92 95,-129 86.66,-113.51 96.94,-95.03 107.32,-82.01"/>
<polygon fill="#63b8ff" stroke="#63b8ff" points="110.06,-84.19 113.95,-74.33 104.77,-79.61 110.06,-84.19"/>
</a>
</g>
</g>
<!-- Node22&#45;&gt;Node12 -->
<g id="edge34_Node000022_Node000012" class="edge">
<title>Node22&#45;&gt;Node12</title>
<g id="a_edge34_Node000022_Node000012"><a xlink:title=" ">
<path fill="none" stroke="#63b8ff" d="M251.7,-219.98C257.3,-211.26 265.75,-197.17 271,-184 276.8,-169.46 280.99,-152.19 283.62,-139.34"/>
<polygon fill="#63b8ff" stroke="#63b8ff" points="287.09,-139.84 285.54,-129.36 280.21,-138.52 287.09,-139.84"/>
</a>
</g>
</g>
<!-- Node23 -->
<g id="Node000023" class="node">
<title>Node23</title>
<g id="a_Node000023"><a xlink:href="tstringlist_8h.html" target="_top" xlink:title=" ">
<polygon fill="white" stroke="#666666" points="262,-184 190,-184 190,-165 262,-165 262,-184"/>
<text text-anchor="middle" x="226" y="-172" font-family="Helvetica,sans-Serif" font-size="10.00">tstringlist.h</text>
</a>
</g>
</g>
<!-- Node22&#45;&gt;Node23 -->
<g id="edge35_Node000022_Node000023" class="edge">
<title>Node22&#45;&gt;Node23</title>
<g id="a_edge35_Node000022_Node000023"><a xlink:title=" ">
<path fill="none" stroke="#63b8ff" d="M242.7,-219.75C240.02,-212.65 236.15,-202.4 232.81,-193.56"/>
<polygon fill="#63b8ff" stroke="#63b8ff" points="236.05,-192.21 229.24,-184.09 229.5,-194.68 236.05,-192.21"/>
</a>
</g>
</g>
<!-- Node23&#45;&gt;Node6 -->
<g id="edge42_Node000023_Node000006" class="edge">
<title>Node23&#45;&gt;Node6</title>
<g id="a_edge42_Node000023_Node000006"><a xlink:title=" ">
<path fill="none" stroke="#63b8ff" d="M225.25,-164.74C223.06,-139.31 216.69,-65.08 213.65,-29.69"/>
<polygon fill="#63b8ff" stroke="#63b8ff" points="217.1,-28.97 212.76,-19.31 210.13,-29.57 217.1,-28.97"/>
</a>
</g>
</g>
<!-- Node23&#45;&gt;Node12 -->
<g id="edge36_Node000023_Node000012" class="edge">
<title>Node23&#45;&gt;Node12</title>
<g id="a_edge36_Node000023_Node000012"><a xlink:title=" ">
<path fill="none" stroke="#63b8ff" d="M235.8,-164.98C244.82,-157.15 258.41,-145.34 269.32,-135.86"/>
<polygon fill="#63b8ff" stroke="#63b8ff" points="271.77,-138.37 277.02,-129.17 267.18,-133.09 271.77,-138.37"/>
</a>
</g>
</g>
<!-- Node23&#45;&gt;Node17 -->
<g id="edge37_Node000023_Node000017" class="edge">
<title>Node23&#45;&gt;Node17</title>
<g id="a_edge37_Node000023_Node000017"><a xlink:title=" ">
<path fill="none" stroke="#63b8ff" d="M247.53,-164.95C267.74,-156.65 298.56,-143.23 324,-129 350.73,-114.04 379.68,-93.82 398.29,-80.25"/>
<polygon fill="#63b8ff" stroke="#63b8ff" points="400.56,-82.92 406.53,-74.17 396.41,-77.29 400.56,-82.92"/>
</a>
</g>
</g>
<!-- Node24 -->
<g id="Node000024" class="node">
<title>Node24</title>
<g id="a_Node000024"><a xlink:href="tbytevectorlist_8h.html" target="_top" xlink:title=" ">
<polygon fill="white" stroke="#666666" points="201.5,-129 104.5,-129 104.5,-110 201.5,-110 201.5,-129"/>
<text text-anchor="middle" x="153" y="-117" font-family="Helvetica,sans-Serif" font-size="10.00">tbytevectorlist.h</text>
</a>
</g>
</g>
<!-- Node23&#45;&gt;Node24 -->
<g id="edge38_Node000023_Node000024" class="edge">
<title>Node23&#45;&gt;Node24</title>
<g id="a_edge38_Node000023_Node000024"><a xlink:title=" ">
<path fill="none" stroke="#63b8ff" d="M214.27,-164.98C203.27,-157 186.58,-144.88 173.4,-135.31"/>
<polygon fill="#63b8ff" stroke="#63b8ff" points="175.09,-132.21 164.94,-129.17 170.98,-137.88 175.09,-132.21"/>
</a>
</g>
</g>
<!-- Node24&#45;&gt;Node2 -->
<g id="edge39_Node000024_Node000002" class="edge">
<title>Node24&#45;&gt;Node2</title>
<g id="a_edge39_Node000024_Node000002"><a xlink:title=" ">
<path fill="none" stroke="#63b8ff" d="M148.05,-109.75C143.94,-102.49 137.97,-91.95 132.9,-82.98"/>
<polygon fill="#63b8ff" stroke="#63b8ff" points="135.83,-81.07 127.86,-74.09 129.74,-84.52 135.83,-81.07"/>
</a>
</g>
</g>
<!-- Node24&#45;&gt;Node6 -->
<g id="edge41_Node000024_Node000006" class="edge">
<title>Node24&#45;&gt;Node6</title>
<g id="a_edge41_Node000024_Node000006"><a xlink:title=" ">
<path fill="none" stroke="#63b8ff" d="M157.83,-109.66C167.56,-91.85 189.68,-51.37 202.44,-28.01"/>
<polygon fill="#63b8ff" stroke="#63b8ff" points="205.55,-29.61 207.27,-19.16 199.4,-26.26 205.55,-29.61"/>
</a>
</g>
</g>
<!-- Node24&#45;&gt;Node17 -->
<g id="edge40_Node000024_Node000017" class="edge">
<title>Node24&#45;&gt;Node17</title>
<g id="a_edge40_Node000024_Node000017"><a xlink:title=" ">
<path fill="none" stroke="#63b8ff" d="M195.58,-109.98C248.62,-99.38 338.08,-81.48 385.78,-71.94"/>
<polygon fill="#63b8ff" stroke="#63b8ff" points="386.73,-75.32 395.85,-69.93 385.36,-68.46 386.73,-75.32"/>
</a>
</g>
</g>
</g>
</svg>
