<?xml version="1.0" encoding="UTF-8" standalone="no"?>
<!DOCTYPE svg PUBLIC "-//W3C//DTD SVG 1.1//EN"
 "http://www.w3.org/Graphics/SVG/1.1/DTD/svg11.dtd">
<!-- Generated by graphviz version 2.42.4 (0)
 -->
<!-- Title: apetag.h Pages: 1 -->
<svg width="820pt" height="302pt"
 viewBox="0.00 0.00 819.78 302.00" xmlns="http://www.w3.org/2000/svg" xmlns:xlink="http://www.w3.org/1999/xlink">
<g id="graph0" class="graph" transform="scale(1 1) rotate(0) translate(4 298)">
<title>apetag.h</title>
<!-- Node1 -->
<g id="Node000001" class="node">
<title>Node1</title>
<g id="a_Node000001"><a xlink:title=" ">
<polygon fill="#999999" stroke="#666666" points="386.78,-294 327.78,-294 327.78,-275 386.78,-275 386.78,-294"/>
<text text-anchor="middle" x="357.28" y="-282" font-family="Helvetica,sans-Serif" font-size="10.00">apetag.h</text>
</a>
</g>
</g>
<!-- Node2 -->
<g id="Node000002" class="node">
<title>Node2</title>
<g id="a_Node000002"><a xlink:href="tbytevector_8h.html" target="_top" xlink:title=" ">
<polygon fill="white" stroke="#666666" points="329.78,-74 248.78,-74 248.78,-55 329.78,-55 329.78,-74"/>
<text text-anchor="middle" x="289.28" y="-62" font-family="Helvetica,sans-Serif" font-size="10.00">tbytevector.h</text>
</a>
</g>
</g>
<!-- Node1&#45;&gt;Node2 -->
<g id="edge1_Node000001_Node000002" class="edge">
<title>Node1&#45;&gt;Node2</title>
<g id="a_edge1_Node000001_Node000002"><a xlink:title=" ">
<path fill="none" stroke="#63b8ff" d="M362.94,-274.9C375.29,-255 402.32,-204.43 386.28,-165 371.21,-127.95 334.96,-97.15 311.3,-80.05"/>
<polygon fill="#63b8ff" stroke="#63b8ff" points="313.12,-77.05 302.92,-74.18 309.1,-82.78 313.12,-77.05"/>
</a>
</g>
</g>
<!-- Node6 -->
<g id="Node000006" class="node">
<title>Node6</title>
<g id="a_Node000006"><a xlink:href="taglib__export_8h.html" target="_top" xlink:title=" ">
<polygon fill="white" stroke="#666666" points="183.28,-19 93.28,-19 93.28,0 183.28,0 183.28,-19"/>
<text text-anchor="middle" x="138.28" y="-7" font-family="Helvetica,sans-Serif" font-size="10.00">taglib_export.h</text>
</a>
</g>
</g>
<!-- Node1&#45;&gt;Node6 -->
<g id="edge18_Node000001_Node000006" class="edge">
<title>Node1&#45;&gt;Node6</title>
<g id="a_edge18_Node000001_Node000006"><a xlink:title=" ">
<path fill="none" stroke="#63b8ff" d="M327.76,-280.97C242.23,-272.82 0.28,-243.73 0.28,-175.5 0.28,-175.5 0.28,-175.5 0.28,-118.5 0.28,-89.04 -0.84,-76.52 19.28,-55 36.08,-37.04 60.82,-26.28 83.39,-19.86"/>
<polygon fill="#63b8ff" stroke="#63b8ff" points="84.45,-23.2 93.24,-17.28 82.68,-16.43 84.45,-23.2"/>
</a>
</g>
</g>
<!-- Node7 -->
<g id="Node000007" class="node">
<title>Node7</title>
<g id="a_Node000007"><a xlink:href="tmap_8h.html" target="_top" xlink:title=" ">
<polygon fill="white" stroke="#666666" points="598.78,-74 547.78,-74 547.78,-55 598.78,-55 598.78,-74"/>
<text text-anchor="middle" x="573.28" y="-62" font-family="Helvetica,sans-Serif" font-size="10.00">tmap.h</text>
</a>
</g>
</g>
<!-- Node1&#45;&gt;Node7 -->
<g id="edge6_Node000001_Node000007" class="edge">
<title>Node1&#45;&gt;Node7</title>
<g id="a_edge6_Node000001_Node000007"><a xlink:title=" ">
<path fill="none" stroke="#63b8ff" d="M367.62,-274.99C394.7,-252.5 469.37,-189.05 524.28,-129 537.89,-114.12 551.79,-95.75 561.29,-82.6"/>
<polygon fill="#63b8ff" stroke="#63b8ff" points="564.41,-84.25 567.36,-74.08 558.71,-80.19 564.41,-84.25"/>
</a>
</g>
</g>
<!-- Node12 -->
<g id="Node000012" class="node">
<title>Node12</title>
<g id="a_Node000012"><a xlink:href="tstring_8h.html" target="_top" xlink:title=" ">
<polygon fill="white" stroke="#666666" points="109.78,-129 52.78,-129 52.78,-110 109.78,-110 109.78,-129"/>
<text text-anchor="middle" x="81.28" y="-117" font-family="Helvetica,sans-Serif" font-size="10.00">tstring.h</text>
</a>
</g>
</g>
<!-- Node1&#45;&gt;Node12 -->
<g id="edge12_Node000001_Node000012" class="edge">
<title>Node1&#45;&gt;Node12</title>
<g id="a_edge12_Node000001_Node000012"><a xlink:title=" ">
<path fill="none" stroke="#63b8ff" d="M327.63,-276.42C300.66,-269.26 260.31,-256.72 228.28,-239 175.48,-209.79 122.61,-161.32 97.07,-136.39"/>
<polygon fill="#63b8ff" stroke="#63b8ff" points="99.34,-133.72 89.77,-129.17 94.42,-138.69 99.34,-133.72"/>
</a>
</g>
</g>
<!-- Node14 -->
<g id="Node000014" class="node">
<title>Node14</title>
<g id="a_Node000014"><a xlink:href="taglib_8h.html" target="_top" xlink:title=" ">
<polygon fill="white" stroke="#666666" points="649.78,-239 596.78,-239 596.78,-220 649.78,-220 649.78,-239"/>
<text text-anchor="middle" x="623.28" y="-227" font-family="Helvetica,sans-Serif" font-size="10.00">taglib.h</text>
</a>
</g>
</g>
<!-- Node1&#45;&gt;Node14 -->
<g id="edge16_Node000001_Node000014" class="edge">
<title>Node1&#45;&gt;Node14</title>
<g id="a_edge16_Node000001_Node000014"><a xlink:title=" ">
<path fill="none" stroke="#63b8ff" d="M387.02,-277.57C435.95,-267.82 533.31,-248.43 586.49,-237.83"/>
<polygon fill="#63b8ff" stroke="#63b8ff" points="587.39,-241.22 596.52,-235.83 586.02,-234.35 587.39,-241.22"/>
</a>
</g>
</g>
<!-- Node16 -->
<g id="Node000016" class="node">
<title>Node16</title>
<g id="a_Node000016"><a xlink:href="tag_8h.html" target="_top" xlink:title=" ">
<polygon fill="white" stroke="#666666" points="377.78,-184 336.78,-184 336.78,-165 377.78,-165 377.78,-184"/>
<text text-anchor="middle" x="357.28" y="-172" font-family="Helvetica,sans-Serif" font-size="10.00">tag.h</text>
</a>
</g>
</g>
<!-- Node1&#45;&gt;Node16 -->
<g id="edge19_Node000001_Node000016" class="edge">
<title>Node1&#45;&gt;Node16</title>
<g id="a_edge19_Node000001_Node000016"><a xlink:title=" ">
<path fill="none" stroke="#63b8ff" d="M357.28,-274.66C357.28,-257.17 357.28,-217.8 357.28,-194.27"/>
<polygon fill="#63b8ff" stroke="#63b8ff" points="360.78,-194.16 357.28,-184.16 353.78,-194.16 360.78,-194.16"/>
</a>
</g>
</g>
<!-- Node21 -->
<g id="Node000021" class="node">
<title>Node21</title>
<g id="a_Node000021"><a xlink:href="apeitem_8h.html" target="_top" xlink:title=" ">
<polygon fill="white" stroke="#666666" points="303.28,-239 237.28,-239 237.28,-220 303.28,-220 303.28,-239"/>
<text text-anchor="middle" x="270.28" y="-227" font-family="Helvetica,sans-Serif" font-size="10.00">apeitem.h</text>
</a>
</g>
</g>
<!-- Node1&#45;&gt;Node21 -->
<g id="edge32_Node000001_Node000021" class="edge">
<title>Node1&#45;&gt;Node21</title>
<g id="a_edge32_Node000001_Node000021"><a xlink:title=" ">
<path fill="none" stroke="#63b8ff" d="M343.3,-274.98C329.81,-266.77 309.15,-254.18 293.24,-244.49"/>
<polygon fill="#63b8ff" stroke="#63b8ff" points="294.87,-241.38 284.51,-239.17 291.23,-247.36 294.87,-241.38"/>
</a>
</g>
</g>
<!-- Node3 -->
<g id="Node000003" class="node">
<title>Node3</title>
<g id="a_Node000003"><a xlink:title=" ">
<polygon fill="#e0e0e0" stroke="#999999" points="391.28,-19 333.28,-19 333.28,0 391.28,0 391.28,-19"/>
<text text-anchor="middle" x="362.28" y="-7" font-family="Helvetica,sans-Serif" font-size="10.00">memory</text>
</a>
</g>
</g>
<!-- Node2&#45;&gt;Node3 -->
<g id="edge2_Node000002_Node000003" class="edge">
<title>Node2&#45;&gt;Node3</title>
<g id="a_edge2_Node000002_Node000003"><a xlink:title=" ">
<path fill="none" stroke="#63b8ff" d="M301.01,-54.98C312.01,-47 328.7,-34.88 341.88,-25.31"/>
<polygon fill="#63b8ff" stroke="#63b8ff" points="344.3,-27.88 350.34,-19.17 340.19,-22.21 344.3,-27.88"/>
</a>
</g>
</g>
<!-- Node4 -->
<g id="Node000004" class="node">
<title>Node4</title>
<g id="a_Node000004"><a xlink:title=" ">
<polygon fill="#e0e0e0" stroke="#999999" points="248.78,-19 201.78,-19 201.78,0 248.78,0 248.78,-19"/>
<text text-anchor="middle" x="225.28" y="-7" font-family="Helvetica,sans-Serif" font-size="10.00">vector</text>
</a>
</g>
</g>
<!-- Node2&#45;&gt;Node4 -->
<g id="edge3_Node000002_Node000004" class="edge">
<title>Node2&#45;&gt;Node4</title>
<g id="a_edge3_Node000002_Node000004"><a xlink:title=" ">
<path fill="none" stroke="#63b8ff" d="M279,-54.98C269.44,-47.07 255,-35.11 243.5,-25.58"/>
<polygon fill="#63b8ff" stroke="#63b8ff" points="245.68,-22.85 235.75,-19.17 241.22,-28.24 245.68,-22.85"/>
</a>
</g>
</g>
<!-- Node5 -->
<g id="Node000005" class="node">
<title>Node5</title>
<g id="a_Node000005"><a xlink:title=" ">
<polygon fill="#e0e0e0" stroke="#999999" points="315.28,-19 267.28,-19 267.28,0 315.28,0 315.28,-19"/>
<text text-anchor="middle" x="291.28" y="-7" font-family="Helvetica,sans-Serif" font-size="10.00">iosfwd</text>
</a>
</g>
</g>
<!-- Node2&#45;&gt;Node5 -->
<g id="edge4_Node000002_Node000005" class="edge">
<title>Node2&#45;&gt;Node5</title>
<g id="a_edge4_Node000002_Node000005"><a xlink:title=" ">
<path fill="none" stroke="#63b8ff" d="M289.61,-54.75C289.87,-47.8 290.25,-37.85 290.58,-29.13"/>
<polygon fill="#63b8ff" stroke="#63b8ff" points="294.08,-29.21 290.96,-19.09 287.08,-28.95 294.08,-29.21"/>
</a>
</g>
</g>
<!-- Node2&#45;&gt;Node6 -->
<g id="edge5_Node000002_Node000006" class="edge">
<title>Node2&#45;&gt;Node6</title>
<g id="a_edge5_Node000002_Node000006"><a xlink:title=" ">
<path fill="none" stroke="#63b8ff" d="M265.02,-54.98C239.96,-46.19 200.65,-32.39 172.45,-22.49"/>
<polygon fill="#63b8ff" stroke="#63b8ff" points="173.58,-19.18 162.98,-19.17 171.26,-25.78 173.58,-19.18"/>
</a>
</g>
</g>
<!-- Node7&#45;&gt;Node3 -->
<g id="edge8_Node000007_Node000003" class="edge">
<title>Node7&#45;&gt;Node3</title>
<g id="a_edge8_Node000007_Node000003"><a xlink:title=" ">
<path fill="none" stroke="#63b8ff" d="M547.41,-57C510.83,-47.81 443.73,-30.96 401.15,-20.26"/>
<polygon fill="#63b8ff" stroke="#63b8ff" points="401.96,-16.86 391.41,-17.82 400.26,-23.65 401.96,-16.86"/>
</a>
</g>
</g>
<!-- Node8 -->
<g id="Node000008" class="node">
<title>Node8</title>
<g id="a_Node000008"><a xlink:title=" ">
<polygon fill="#e0e0e0" stroke="#999999" points="748.28,-19 710.28,-19 710.28,0 748.28,0 748.28,-19"/>
<text text-anchor="middle" x="729.28" y="-7" font-family="Helvetica,sans-Serif" font-size="10.00">map</text>
</a>
</g>
</g>
<!-- Node7&#45;&gt;Node8 -->
<g id="edge7_Node000007_Node000008" class="edge">
<title>Node7&#45;&gt;Node8</title>
<g id="a_edge7_Node000007_Node000008"><a xlink:title=" ">
<path fill="none" stroke="#63b8ff" d="M598.34,-54.98C626.23,-45.51 671.22,-30.23 700.52,-20.27"/>
<polygon fill="#63b8ff" stroke="#63b8ff" points="701.84,-23.52 710.18,-16.99 699.58,-16.89 701.84,-23.52"/>
</a>
</g>
</g>
<!-- Node9 -->
<g id="Node000009" class="node">
<title>Node9</title>
<g id="a_Node000009"><a xlink:title=" ">
<polygon fill="#e0e0e0" stroke="#999999" points="614.78,-19 531.78,-19 531.78,0 614.78,0 614.78,-19"/>
<text text-anchor="middle" x="573.28" y="-7" font-family="Helvetica,sans-Serif" font-size="10.00">initializer_list</text>
</a>
</g>
</g>
<!-- Node7&#45;&gt;Node9 -->
<g id="edge9_Node000007_Node000009" class="edge">
<title>Node7&#45;&gt;Node9</title>
<g id="a_edge9_Node000007_Node000009"><a xlink:title=" ">
<path fill="none" stroke="#63b8ff" d="M573.28,-54.75C573.28,-47.8 573.28,-37.85 573.28,-29.13"/>
<polygon fill="#63b8ff" stroke="#63b8ff" points="576.78,-29.09 573.28,-19.09 569.78,-29.09 576.78,-29.09"/>
</a>
</g>
</g>
<!-- Node10 -->
<g id="Node000010" class="node">
<title>Node10</title>
<g id="a_Node000010"><a xlink:title=" ">
<polygon fill="#e0e0e0" stroke="#999999" points="811.78,-19 766.78,-19 766.78,0 811.78,0 811.78,-19"/>
<text text-anchor="middle" x="789.28" y="-7" font-family="Helvetica,sans-Serif" font-size="10.00">utility</text>
</a>
</g>
</g>
<!-- Node7&#45;&gt;Node10 -->
<g id="edge10_Node000007_Node000010" class="edge">
<title>Node7&#45;&gt;Node10</title>
<g id="a_edge10_Node000007_Node000010"><a xlink:title=" ">
<path fill="none" stroke="#63b8ff" d="M598.92,-57.49C632.71,-49.53 694.23,-34.89 756.56,-19.14"/>
<polygon fill="#63b8ff" stroke="#63b8ff" points="757.74,-22.45 766.57,-16.6 756.02,-15.66 757.74,-22.45"/>
</a>
</g>
</g>
<!-- Node11 -->
<g id="Node000011" class="node">
<title>Node11</title>
<g id="a_Node000011"><a xlink:title=" ">
<polygon fill="#e0e0e0" stroke="#999999" points="691.78,-19 632.78,-19 632.78,0 691.78,0 691.78,-19"/>
<text text-anchor="middle" x="662.28" y="-7" font-family="Helvetica,sans-Serif" font-size="10.00">tmap.tcc</text>
</a>
</g>
</g>
<!-- Node7&#45;&gt;Node11 -->
<g id="edge11_Node000007_Node000011" class="edge">
<title>Node7&#45;&gt;Node11</title>
<g id="a_edge11_Node000007_Node000011"><a xlink:title=" ">
<path fill="none" stroke="#63b8ff" d="M587.58,-54.98C601.38,-46.77 622.52,-34.18 638.79,-24.49"/>
<polygon fill="#63b8ff" stroke="#63b8ff" points="640.92,-27.29 647.72,-19.17 637.34,-21.28 640.92,-27.29"/>
</a>
</g>
</g>
<!-- Node12&#45;&gt;Node2 -->
<g id="edge14_Node000012_Node000002" class="edge">
<title>Node12&#45;&gt;Node2</title>
<g id="a_edge14_Node000012_Node000002"><a xlink:title=" ">
<path fill="none" stroke="#63b8ff" d="M110.2,-111.13C145.4,-102.16 205.15,-86.94 245.87,-76.56"/>
<polygon fill="#63b8ff" stroke="#63b8ff" points="246.96,-79.89 255.79,-74.03 245.23,-73.11 246.96,-79.89"/>
</a>
</g>
</g>
<!-- Node12&#45;&gt;Node6 -->
<g id="edge15_Node000012_Node000006" class="edge">
<title>Node12&#45;&gt;Node6</title>
<g id="a_edge15_Node000012_Node000006"><a xlink:title=" ">
<path fill="none" stroke="#63b8ff" d="M85.94,-109.66C95.34,-91.85 116.71,-51.37 129.04,-28.01"/>
<polygon fill="#63b8ff" stroke="#63b8ff" points="132.14,-29.64 133.71,-19.16 125.95,-26.37 132.14,-29.64"/>
</a>
</g>
</g>
<!-- Node13 -->
<g id="Node000013" class="node">
<title>Node13</title>
<g id="a_Node000013"><a xlink:title=" ">
<polygon fill="#e0e0e0" stroke="#999999" points="72.28,-74 28.28,-74 28.28,-55 72.28,-55 72.28,-74"/>
<text text-anchor="middle" x="50.28" y="-62" font-family="Helvetica,sans-Serif" font-size="10.00">string</text>
</a>
</g>
</g>
<!-- Node12&#45;&gt;Node13 -->
<g id="edge13_Node000012_Node000013" class="edge">
<title>Node12&#45;&gt;Node13</title>
<g id="a_edge13_Node000012_Node000013"><a xlink:title=" ">
<path fill="none" stroke="#63b8ff" d="M76.16,-109.75C71.92,-102.49 65.75,-91.95 60.5,-82.98"/>
<polygon fill="#63b8ff" stroke="#63b8ff" points="63.37,-80.95 55.3,-74.09 57.33,-84.49 63.37,-80.95"/>
</a>
</g>
</g>
<!-- Node15 -->
<g id="Node000015" class="node">
<title>Node15</title>
<g id="a_Node000015"><a xlink:title=" ">
<polygon fill="#e0e0e0" stroke="#999999" points="664.28,-184 592.28,-184 592.28,-165 664.28,-165 664.28,-184"/>
<text text-anchor="middle" x="628.28" y="-172" font-family="Helvetica,sans-Serif" font-size="10.00">sys/types.h</text>
</a>
</g>
</g>
<!-- Node14&#45;&gt;Node15 -->
<g id="edge17_Node000014_Node000015" class="edge">
<title>Node14&#45;&gt;Node15</title>
<g id="a_edge17_Node000014_Node000015"><a xlink:title=" ">
<path fill="none" stroke="#63b8ff" d="M624.11,-219.75C624.76,-212.8 625.7,-202.85 626.52,-194.13"/>
<polygon fill="#63b8ff" stroke="#63b8ff" points="630.01,-194.37 627.47,-184.09 623.05,-193.72 630.01,-194.37"/>
</a>
</g>
</g>
<!-- Node16&#45;&gt;Node6 -->
<g id="edge20_Node000016_Node000006" class="edge">
<title>Node16&#45;&gt;Node6</title>
<g id="a_edge20_Node000016_Node000006"><a xlink:title=" ">
<path fill="none" stroke="#63b8ff" d="M336.6,-170.02C297.99,-163.17 216.89,-147.03 195.28,-129 178.89,-115.32 156.02,-58.38 144.89,-28.69"/>
<polygon fill="#63b8ff" stroke="#63b8ff" points="148.1,-27.28 141.36,-19.12 141.54,-29.71 148.1,-27.28"/>
</a>
</g>
</g>
<!-- Node16&#45;&gt;Node12 -->
<g id="edge21_Node000016_Node000012" class="edge">
<title>Node16&#45;&gt;Node12</title>
<g id="a_edge21_Node000016_Node000012"><a xlink:title=" ">
<path fill="none" stroke="#63b8ff" d="M336.54,-169.52C290.53,-160.68 179.35,-139.33 120.05,-127.94"/>
<polygon fill="#63b8ff" stroke="#63b8ff" points="120.43,-124.45 109.95,-126.01 119.11,-131.33 120.43,-124.45"/>
</a>
</g>
</g>
<!-- Node17 -->
<g id="Node000017" class="node">
<title>Node17</title>
<g id="a_Node000017"><a xlink:href="tlist_8h.html" target="_top" xlink:title=" ">
<polygon fill="white" stroke="#666666" points="479.28,-74 435.28,-74 435.28,-55 479.28,-55 479.28,-74"/>
<text text-anchor="middle" x="457.28" y="-62" font-family="Helvetica,sans-Serif" font-size="10.00">tlist.h</text>
</a>
</g>
</g>
<!-- Node16&#45;&gt;Node17 -->
<g id="edge22_Node000016_Node000017" class="edge">
<title>Node16&#45;&gt;Node17</title>
<g id="a_edge22_Node000016_Node000017"><a xlink:title=" ">
<path fill="none" stroke="#63b8ff" d="M378.01,-174.42C411.57,-174.63 477.06,-169.49 507.28,-129 520.18,-111.72 499.58,-92.31 481.04,-79.55"/>
<polygon fill="#63b8ff" stroke="#63b8ff" points="482.83,-76.53 472.54,-74.02 479.02,-82.4 482.83,-76.53"/>
</a>
</g>
</g>
<!-- Node20 -->
<g id="Node000020" class="node">
<title>Node20</title>
<g id="a_Node000020"><a xlink:href="tvariant_8h.html" target="_top" xlink:title=" ">
<polygon fill="white" stroke="#666666" points="498.28,-129 434.28,-129 434.28,-110 498.28,-110 498.28,-129"/>
<text text-anchor="middle" x="466.28" y="-117" font-family="Helvetica,sans-Serif" font-size="10.00">tvariant.h</text>
</a>
</g>
</g>
<!-- Node16&#45;&gt;Node20 -->
<g id="edge27_Node000016_Node000020" class="edge">
<title>Node16&#45;&gt;Node20</title>
<g id="a_edge27_Node000016_Node000020"><a xlink:title=" ">
<path fill="none" stroke="#63b8ff" d="M374.79,-164.98C392.25,-156.5 419.29,-143.35 439.45,-133.54"/>
<polygon fill="#63b8ff" stroke="#63b8ff" points="440.99,-136.69 448.45,-129.17 437.92,-130.4 440.99,-136.69"/>
</a>
</g>
</g>
<!-- Node17&#45;&gt;Node3 -->
<g id="edge25_Node000017_Node000003" class="edge">
<title>Node17&#45;&gt;Node3</title>
<g id="a_edge25_Node000017_Node000003"><a xlink:title=" ">
<path fill="none" stroke="#63b8ff" d="M442.02,-54.98C427.15,-46.69 404.3,-33.94 386.86,-24.22"/>
<polygon fill="#63b8ff" stroke="#63b8ff" points="388.26,-20.99 377.82,-19.17 384.85,-27.1 388.26,-20.99"/>
</a>
</g>
</g>
<!-- Node17&#45;&gt;Node9 -->
<g id="edge24_Node000017_Node000009" class="edge">
<title>Node17&#45;&gt;Node9</title>
<g id="a_edge24_Node000017_Node000009"><a xlink:title=" ">
<path fill="none" stroke="#63b8ff" d="M475.92,-54.98C494.58,-46.46 523.53,-33.23 545.02,-23.41"/>
<polygon fill="#63b8ff" stroke="#63b8ff" points="546.66,-26.51 554.3,-19.17 543.75,-20.14 546.66,-26.51"/>
</a>
</g>
</g>
<!-- Node18 -->
<g id="Node000018" class="node">
<title>Node18</title>
<g id="a_Node000018"><a xlink:title=" ">
<polygon fill="#e0e0e0" stroke="#999999" points="513.28,-19 481.28,-19 481.28,0 513.28,0 513.28,-19"/>
<text text-anchor="middle" x="497.28" y="-7" font-family="Helvetica,sans-Serif" font-size="10.00">list</text>
</a>
</g>
</g>
<!-- Node17&#45;&gt;Node18 -->
<g id="edge23_Node000017_Node000018" class="edge">
<title>Node17&#45;&gt;Node18</title>
<g id="a_edge23_Node000017_Node000018"><a xlink:title=" ">
<path fill="none" stroke="#63b8ff" d="M463.89,-54.75C469.54,-47.26 477.82,-36.28 484.73,-27.13"/>
<polygon fill="#63b8ff" stroke="#63b8ff" points="487.57,-29.18 490.8,-19.09 481.98,-24.96 487.57,-29.18"/>
</a>
</g>
</g>
<!-- Node19 -->
<g id="Node000019" class="node">
<title>Node19</title>
<g id="a_Node000019"><a xlink:title=" ">
<polygon fill="#e0e0e0" stroke="#999999" points="462.78,-19 409.78,-19 409.78,0 462.78,0 462.78,-19"/>
<text text-anchor="middle" x="436.28" y="-7" font-family="Helvetica,sans-Serif" font-size="10.00">tlist.tcc</text>
</a>
</g>
</g>
<!-- Node17&#45;&gt;Node19 -->
<g id="edge26_Node000017_Node000019" class="edge">
<title>Node17&#45;&gt;Node19</title>
<g id="a_edge26_Node000017_Node000019"><a xlink:title=" ">
<path fill="none" stroke="#63b8ff" d="M453.81,-54.75C451,-47.65 446.94,-37.4 443.43,-28.56"/>
<polygon fill="#63b8ff" stroke="#63b8ff" points="446.62,-27.1 439.68,-19.09 440.11,-29.68 446.62,-27.1"/>
</a>
</g>
</g>
<!-- Node20&#45;&gt;Node5 -->
<g id="edge28_Node000020_Node000005" class="edge">
<title>Node20&#45;&gt;Node5</title>
<g id="a_edge28_Node000020_Node000005"><a xlink:title=" ">
<path fill="none" stroke="#63b8ff" d="M455.39,-109.96C438.95,-97.24 406.59,-72.92 377.28,-55 358.45,-43.49 336.33,-32.09 319.23,-23.71"/>
<polygon fill="#63b8ff" stroke="#63b8ff" points="320.34,-20.35 309.81,-19.14 317.29,-26.65 320.34,-20.35"/>
</a>
</g>
</g>
<!-- Node20&#45;&gt;Node6 -->
<g id="edge31_Node000020_Node000006" class="edge">
<title>Node20&#45;&gt;Node6</title>
<g id="a_edge31_Node000020_Node000006"><a xlink:title=" ">
<path fill="none" stroke="#63b8ff" d="M449.22,-109.97C415.03,-92.88 341.15,-56.02 338.28,-55 311.85,-45.66 242.13,-30.95 192.46,-21.02"/>
<polygon fill="#63b8ff" stroke="#63b8ff" points="192.99,-17.56 182.5,-19.04 191.63,-24.42 192.99,-17.56"/>
</a>
</g>
</g>
<!-- Node20&#45;&gt;Node7 -->
<g id="edge30_Node000020_Node000007" class="edge">
<title>Node20&#45;&gt;Node7</title>
<g id="a_edge30_Node000020_Node000007"><a xlink:title=" ">
<path fill="none" stroke="#63b8ff" d="M483.47,-109.98C500.53,-101.54 526.91,-88.47 546.67,-78.68"/>
<polygon fill="#63b8ff" stroke="#63b8ff" points="548.37,-81.75 555.78,-74.17 545.26,-75.47 548.37,-81.75"/>
</a>
</g>
</g>
<!-- Node20&#45;&gt;Node17 -->
<g id="edge29_Node000020_Node000017" class="edge">
<title>Node20&#45;&gt;Node17</title>
<g id="a_edge29_Node000020_Node000017"><a xlink:title=" ">
<path fill="none" stroke="#63b8ff" d="M464.79,-109.75C463.61,-102.8 461.92,-92.85 460.44,-84.13"/>
<polygon fill="#63b8ff" stroke="#63b8ff" points="463.86,-83.36 458.74,-74.09 456.96,-84.53 463.86,-83.36"/>
</a>
</g>
</g>
<!-- Node21&#45;&gt;Node2 -->
<g id="edge33_Node000021_Node000002" class="edge">
<title>Node21&#45;&gt;Node2</title>
<g id="a_edge33_Node000021_Node000002"><a xlink:title=" ">
<path fill="none" stroke="#63b8ff" d="M275.17,-219.81C284.34,-202.95 303.76,-164.34 310.28,-129 311.81,-120.7 312.13,-118.24 310.28,-110 308.2,-100.74 303.98,-91.14 299.85,-83.23"/>
<polygon fill="#63b8ff" stroke="#63b8ff" points="302.79,-81.31 294.86,-74.28 296.68,-84.72 302.79,-81.31"/>
</a>
</g>
</g>
<!-- Node21&#45;&gt;Node12 -->
<g id="edge34_Node000021_Node000012" class="edge">
<title>Node21&#45;&gt;Node12</title>
<g id="a_edge34_Node000021_Node000012"><a xlink:title=" ">
<path fill="none" stroke="#63b8ff" d="M255.13,-219.84C222.29,-201.08 144.32,-156.52 104.92,-134.01"/>
<polygon fill="#63b8ff" stroke="#63b8ff" points="106.66,-130.97 96.24,-129.05 103.18,-137.05 106.66,-130.97"/>
</a>
</g>
</g>
<!-- Node22 -->
<g id="Node000022" class="node">
<title>Node22</title>
<g id="a_Node000022"><a xlink:href="tstringlist_8h.html" target="_top" xlink:title=" ">
<polygon fill="white" stroke="#666666" points="280.28,-184 208.28,-184 208.28,-165 280.28,-165 280.28,-184"/>
<text text-anchor="middle" x="244.28" y="-172" font-family="Helvetica,sans-Serif" font-size="10.00">tstringlist.h</text>
</a>
</g>
</g>
<!-- Node21&#45;&gt;Node22 -->
<g id="edge35_Node000021_Node000022" class="edge">
<title>Node21&#45;&gt;Node22</title>
<g id="a_edge35_Node000021_Node000022"><a xlink:title=" ">
<path fill="none" stroke="#63b8ff" d="M265.99,-219.75C262.47,-212.57 257.37,-202.18 253,-193.27"/>
<polygon fill="#63b8ff" stroke="#63b8ff" points="256.04,-191.53 248.49,-184.09 249.76,-194.61 256.04,-191.53"/>
</a>
</g>
</g>
<!-- Node22&#45;&gt;Node6 -->
<g id="edge42_Node000022_Node000006" class="edge">
<title>Node22&#45;&gt;Node6</title>
<g id="a_edge42_Node000022_Node000006"><a xlink:title=" ">
<path fill="none" stroke="#63b8ff" d="M215.35,-164.86C197.37,-158 175.28,-146.58 162.28,-129 140.31,-99.29 137.21,-54.4 137.41,-29.26"/>
<polygon fill="#63b8ff" stroke="#63b8ff" points="140.91,-29.32 137.68,-19.23 133.91,-29.13 140.91,-29.32"/>
</a>
</g>
</g>
<!-- Node22&#45;&gt;Node12 -->
<g id="edge36_Node000022_Node000012" class="edge">
<title>Node22&#45;&gt;Node12</title>
<g id="a_edge36_Node000022_Node000012"><a xlink:title=" ">
<path fill="none" stroke="#63b8ff" d="M218.09,-164.98C190.84,-156.13 147.98,-142.19 117.5,-132.28"/>
<polygon fill="#63b8ff" stroke="#63b8ff" points="118.27,-128.85 107.67,-129.08 116.1,-135.5 118.27,-128.85"/>
</a>
</g>
</g>
<!-- Node22&#45;&gt;Node17 -->
<g id="edge37_Node000022_Node000017" class="edge">
<title>Node22&#45;&gt;Node17</title>
<g id="a_edge37_Node000022_Node000017"><a xlink:title=" ">
<path fill="none" stroke="#63b8ff" d="M261.35,-164.84C298.6,-145.96 387.35,-100.96 431.47,-78.59"/>
<polygon fill="#63b8ff" stroke="#63b8ff" points="433.09,-81.69 440.42,-74.05 429.92,-75.45 433.09,-81.69"/>
</a>
</g>
</g>
<!-- Node23 -->
<g id="Node000023" class="node">
<title>Node23</title>
<g id="a_Node000023"><a xlink:href="tbytevectorlist_8h.html" target="_top" xlink:title=" ">
<polygon fill="white" stroke="#666666" points="301.78,-129 204.78,-129 204.78,-110 301.78,-110 301.78,-129"/>
<text text-anchor="middle" x="253.28" y="-117" font-family="Helvetica,sans-Serif" font-size="10.00">tbytevectorlist.h</text>
</a>
</g>
</g>
<!-- Node22&#45;&gt;Node23 -->
<g id="edge38_Node000022_Node000023" class="edge">
<title>Node22&#45;&gt;Node23</title>
<g id="a_edge38_Node000022_Node000023"><a xlink:title=" ">
<path fill="none" stroke="#63b8ff" d="M245.77,-164.75C246.95,-157.8 248.64,-147.85 250.12,-139.13"/>
<polygon fill="#63b8ff" stroke="#63b8ff" points="253.6,-139.53 251.82,-129.09 246.7,-138.36 253.6,-139.53"/>
</a>
</g>
</g>
<!-- Node23&#45;&gt;Node2 -->
<g id="edge39_Node000023_Node000002" class="edge">
<title>Node23&#45;&gt;Node2</title>
<g id="a_edge39_Node000023_Node000002"><a xlink:title=" ">
<path fill="none" stroke="#63b8ff" d="M259.22,-109.75C264.26,-102.34 271.62,-91.5 277.79,-82.41"/>
<polygon fill="#63b8ff" stroke="#63b8ff" points="280.72,-84.33 283.45,-74.09 274.93,-80.39 280.72,-84.33"/>
</a>
</g>
</g>
<!-- Node23&#45;&gt;Node6 -->
<g id="edge41_Node000023_Node000006" class="edge">
<title>Node23&#45;&gt;Node6</title>
<g id="a_edge41_Node000023_Node000006"><a xlink:title=" ">
<path fill="none" stroke="#63b8ff" d="M244.94,-109.65C233.08,-97.16 210.53,-73.81 190.28,-55 179.4,-44.89 166.75,-34.04 156.65,-25.59"/>
<polygon fill="#63b8ff" stroke="#63b8ff" points="158.79,-22.82 148.86,-19.12 154.31,-28.2 158.79,-22.82"/>
</a>
</g>
</g>
<!-- Node23&#45;&gt;Node17 -->
<g id="edge40_Node000023_Node000017" class="edge">
<title>Node23&#45;&gt;Node17</title>
<g id="a_edge40_Node000023_Node000017"><a xlink:title=" ">
<path fill="none" stroke="#63b8ff" d="M286.06,-109.98C324.35,-100.03 387.3,-83.68 425.27,-73.82"/>
<polygon fill="#63b8ff" stroke="#63b8ff" points="426.47,-77.12 435.27,-71.22 424.71,-70.34 426.47,-77.12"/>
</a>
</g>
</g>
</g>
</svg>
