<?xml version="1.0" encoding="UTF-8" standalone="no"?>
<!DOCTYPE svg PUBLIC "-//W3C//DTD SVG 1.1//EN"
 "http://www.w3.org/Graphics/SVG/1.1/DTD/svg11.dtd">
<!-- Generated by graphviz version 2.42.4 (0)
 -->
<!-- Title: asffile.h Pages: 1 -->
<svg width="1123pt" height="357pt"
 viewBox="0.00 0.00 1122.87 357.00" xmlns="http://www.w3.org/2000/svg" xmlns:xlink="http://www.w3.org/1999/xlink">
<g id="graph0" class="graph" transform="scale(1 1) rotate(0) translate(4 353)">
<title>asffile.h</title>
<!-- Node1 -->
<g id="Node000001" class="node">
<title>Node1</title>
<g id="a_Node000001"><a xlink:title=" ">
<polygon fill="#999999" stroke="#666666" points="339.37,-349 283.37,-349 283.37,-330 339.37,-330 339.37,-349"/>
<text text-anchor="middle" x="311.37" y="-337" font-family="Helvetica,sans-Serif" font-size="10.00">asffile.h</text>
</a>
</g>
</g>
<!-- Node2 -->
<g id="Node000002" class="node">
<title>Node2</title>
<g id="a_Node000002"><a xlink:href="tfile_8h.html" target="_top" xlink:title=" ">
<polygon fill="white" stroke="#666666" points="283.37,-239 239.37,-239 239.37,-220 283.37,-220 283.37,-239"/>
<text text-anchor="middle" x="261.37" y="-227" font-family="Helvetica,sans-Serif" font-size="10.00">tfile.h</text>
</a>
</g>
</g>
<!-- Node1&#45;&gt;Node2 -->
<g id="edge1_Node000001_Node000002" class="edge">
<title>Node1&#45;&gt;Node2</title>
<g id="a_edge1_Node000001_Node000002"><a xlink:title=" ">
<path fill="none" stroke="#63b8ff" d="M307.28,-329.66C299.08,-311.93 280.46,-271.73 269.62,-248.32"/>
<polygon fill="#63b8ff" stroke="#63b8ff" points="272.76,-246.76 265.38,-239.16 266.41,-249.7 272.76,-246.76"/>
</a>
</g>
</g>
<!-- Node7 -->
<g id="Node000007" class="node">
<title>Node7</title>
<g id="a_Node000007"><a xlink:href="taglib__export_8h.html" target="_top" xlink:title=" ">
<polygon fill="white" stroke="#666666" points="413.37,-19 323.37,-19 323.37,0 413.37,0 413.37,-19"/>
<text text-anchor="middle" x="368.37" y="-7" font-family="Helvetica,sans-Serif" font-size="10.00">taglib_export.h</text>
</a>
</g>
</g>
<!-- Node1&#45;&gt;Node7 -->
<g id="edge35_Node000001_Node000007" class="edge">
<title>Node1&#45;&gt;Node7</title>
<g id="a_edge35_Node000001_Node000007"><a xlink:title=" ">
<path fill="none" stroke="#63b8ff" d="M311.37,-329.82C311.37,-311.48 311.37,-267.44 311.37,-230.5 311.37,-230.5 311.37,-230.5 311.37,-118.5 311.37,-82.51 336.44,-46.76 353.32,-26.76"/>
<polygon fill="#63b8ff" stroke="#63b8ff" points="356,-29.02 359.96,-19.2 350.74,-24.4 356,-29.02"/>
</a>
</g>
</g>
<!-- Node11 -->
<g id="Node000011" class="node">
<title>Node11</title>
<g id="a_Node000011"><a xlink:href="tag_8h.html" target="_top" xlink:title=" ">
<polygon fill="white" stroke="#666666" points="782.87,-184 741.87,-184 741.87,-165 782.87,-165 782.87,-184"/>
<text text-anchor="middle" x="762.37" y="-172" font-family="Helvetica,sans-Serif" font-size="10.00">tag.h</text>
</a>
</g>
</g>
<!-- Node1&#45;&gt;Node11 -->
<g id="edge36_Node000001_Node000011" class="edge">
<title>Node1&#45;&gt;Node11</title>
<g id="a_edge36_Node000001_Node000011"><a xlink:title=" ">
<path fill="none" stroke="#63b8ff" d="M339.49,-338.64C418.85,-338.54 642.64,-334.57 701.37,-294 735.69,-270.3 751.92,-221.22 758.53,-194.26"/>
<polygon fill="#63b8ff" stroke="#63b8ff" points="762.01,-194.72 760.79,-184.2 755.18,-193.18 762.01,-194.72"/>
</a>
</g>
</g>
<!-- Node24 -->
<g id="Node000024" class="node">
<title>Node24</title>
<g id="a_Node000024"><a xlink:href="asfproperties_8h.html" target="_top" xlink:title=" ">
<polygon fill="white" stroke="#666666" points="112.37,-184 22.37,-184 22.37,-165 112.37,-165 112.37,-184"/>
<text text-anchor="middle" x="67.37" y="-172" font-family="Helvetica,sans-Serif" font-size="10.00">asfproperties.h</text>
</a>
</g>
</g>
<!-- Node1&#45;&gt;Node24 -->
<g id="edge37_Node000001_Node000024" class="edge">
<title>Node1&#45;&gt;Node24</title>
<g id="a_edge37_Node000001_Node000024"><a xlink:title=" ">
<path fill="none" stroke="#63b8ff" d="M298.6,-329.97C259,-303.51 138,-222.68 88.66,-189.72"/>
<polygon fill="#63b8ff" stroke="#63b8ff" points="90.58,-186.79 80.32,-184.15 86.69,-192.61 90.58,-186.79"/>
</a>
</g>
</g>
<!-- Node26 -->
<g id="Node000026" class="node">
<title>Node26</title>
<g id="a_Node000026"><a xlink:href="asftag_8h.html" target="_top" xlink:title=" ">
<polygon fill="white" stroke="#666666" points="692.37,-294 636.37,-294 636.37,-275 692.37,-275 692.37,-294"/>
<text text-anchor="middle" x="664.37" y="-282" font-family="Helvetica,sans-Serif" font-size="10.00">asftag.h</text>
</a>
</g>
</g>
<!-- Node1&#45;&gt;Node26 -->
<g id="edge44_Node000001_Node000026" class="edge">
<title>Node1&#45;&gt;Node26</title>
<g id="a_edge44_Node000001_Node000026"><a xlink:title=" ">
<path fill="none" stroke="#63b8ff" d="M339.67,-334.25C402.66,-324.79 554.56,-301.99 626.01,-291.26"/>
<polygon fill="#63b8ff" stroke="#63b8ff" points="626.58,-294.71 635.95,-289.77 625.54,-287.79 626.58,-294.71"/>
</a>
</g>
</g>
<!-- Node3 -->
<g id="Node000003" class="node">
<title>Node3</title>
<g id="a_Node000003"><a xlink:href="tbytevector_8h.html" target="_top" xlink:title=" ">
<polygon fill="white" stroke="#666666" points="634.87,-74 553.87,-74 553.87,-55 634.87,-55 634.87,-74"/>
<text text-anchor="middle" x="594.37" y="-62" font-family="Helvetica,sans-Serif" font-size="10.00">tbytevector.h</text>
</a>
</g>
</g>
<!-- Node2&#45;&gt;Node3 -->
<g id="edge2_Node000002_Node000003" class="edge">
<title>Node2&#45;&gt;Node3</title>
<g id="a_edge2_Node000002_Node000003"><a xlink:title=" ">
<path fill="none" stroke="#63b8ff" d="M282.09,-219.93C321.58,-203.44 410.14,-165.64 482.37,-129 513.77,-113.07 548.93,-92.71 571.34,-79.4"/>
<polygon fill="#63b8ff" stroke="#63b8ff" points="573.32,-82.29 580.11,-74.15 569.73,-76.28 573.32,-82.29"/>
</a>
</g>
</g>
<!-- Node2&#45;&gt;Node7 -->
<g id="edge12_Node000002_Node000007" class="edge">
<title>Node2&#45;&gt;Node7</title>
<g id="a_edge12_Node000002_Node000007"><a xlink:title=" ">
<path fill="none" stroke="#63b8ff" d="M260.9,-219.63C259.88,-192.39 260.13,-108.54 297.37,-55 306.96,-41.22 322.33,-30.82 336.32,-23.56"/>
<polygon fill="#63b8ff" stroke="#63b8ff" points="338.21,-26.53 345.69,-19.03 335.17,-20.23 338.21,-26.53"/>
</a>
</g>
</g>
<!-- Node8 -->
<g id="Node000008" class="node">
<title>Node8</title>
<g id="a_Node000008"><a xlink:href="tiostream_8h.html" target="_top" xlink:title=" ">
<polygon fill="white" stroke="#666666" points="244.87,-129 171.87,-129 171.87,-110 244.87,-110 244.87,-129"/>
<text text-anchor="middle" x="208.37" y="-117" font-family="Helvetica,sans-Serif" font-size="10.00">tiostream.h</text>
</a>
</g>
</g>
<!-- Node2&#45;&gt;Node8 -->
<g id="edge7_Node000002_Node000008" class="edge">
<title>Node2&#45;&gt;Node8</title>
<g id="a_edge7_Node000002_Node000008"><a xlink:title=" ">
<path fill="none" stroke="#63b8ff" d="M257.04,-219.66C248.34,-201.93 228.61,-161.73 217.12,-138.32"/>
<polygon fill="#63b8ff" stroke="#63b8ff" points="220.17,-136.59 212.62,-129.16 213.89,-139.68 220.17,-136.59"/>
</a>
</g>
</g>
<!-- Node9 -->
<g id="Node000009" class="node">
<title>Node9</title>
<g id="a_Node000009"><a xlink:href="taglib_8h.html" target="_top" xlink:title=" ">
<polygon fill="white" stroke="#666666" points="183.87,-74 130.87,-74 130.87,-55 183.87,-55 183.87,-74"/>
<text text-anchor="middle" x="157.37" y="-62" font-family="Helvetica,sans-Serif" font-size="10.00">taglib.h</text>
</a>
</g>
</g>
<!-- Node2&#45;&gt;Node9 -->
<g id="edge13_Node000002_Node000009" class="edge">
<title>Node2&#45;&gt;Node9</title>
<g id="a_edge13_Node000002_Node000009"><a xlink:title=" ">
<path fill="none" stroke="#63b8ff" d="M248.38,-219.91C226.45,-204.61 182.63,-170.32 163.37,-129 156.86,-115.03 155.66,-97.47 155.92,-84.36"/>
<polygon fill="#63b8ff" stroke="#63b8ff" points="159.42,-84.35 156.42,-74.19 152.43,-84 159.42,-84.35"/>
</a>
</g>
</g>
<!-- Node2&#45;&gt;Node11 -->
<g id="edge14_Node000002_Node000011" class="edge">
<title>Node2&#45;&gt;Node11</title>
<g id="a_edge14_Node000002_Node000011"><a xlink:title=" ">
<path fill="none" stroke="#63b8ff" d="M283.55,-226.15C363.79,-217.67 639.16,-188.53 731.74,-178.74"/>
<polygon fill="#63b8ff" stroke="#63b8ff" points="732.27,-182.2 741.85,-177.67 731.54,-175.24 732.27,-182.2"/>
</a>
</g>
</g>
<!-- Node4 -->
<g id="Node000004" class="node">
<title>Node4</title>
<g id="a_Node000004"><a xlink:title=" ">
<polygon fill="#e0e0e0" stroke="#999999" points="695.37,-19 637.37,-19 637.37,0 695.37,0 695.37,-19"/>
<text text-anchor="middle" x="666.37" y="-7" font-family="Helvetica,sans-Serif" font-size="10.00">memory</text>
</a>
</g>
</g>
<!-- Node3&#45;&gt;Node4 -->
<g id="edge3_Node000003_Node000004" class="edge">
<title>Node3&#45;&gt;Node4</title>
<g id="a_edge3_Node000003_Node000004"><a xlink:title=" ">
<path fill="none" stroke="#63b8ff" d="M605.94,-54.98C616.8,-47 633.26,-34.88 646.26,-25.31"/>
<polygon fill="#63b8ff" stroke="#63b8ff" points="648.62,-27.92 654.6,-19.17 644.47,-22.28 648.62,-27.92"/>
</a>
</g>
</g>
<!-- Node5 -->
<g id="Node000005" class="node">
<title>Node5</title>
<g id="a_Node000005"><a xlink:title=" ">
<polygon fill="#e0e0e0" stroke="#999999" points="617.87,-19 570.87,-19 570.87,0 617.87,0 617.87,-19"/>
<text text-anchor="middle" x="594.37" y="-7" font-family="Helvetica,sans-Serif" font-size="10.00">vector</text>
</a>
</g>
</g>
<!-- Node3&#45;&gt;Node5 -->
<g id="edge4_Node000003_Node000005" class="edge">
<title>Node3&#45;&gt;Node5</title>
<g id="a_edge4_Node000003_Node000005"><a xlink:title=" ">
<path fill="none" stroke="#63b8ff" d="M594.37,-54.75C594.37,-47.8 594.37,-37.85 594.37,-29.13"/>
<polygon fill="#63b8ff" stroke="#63b8ff" points="597.88,-29.09 594.37,-19.09 590.88,-29.09 597.88,-29.09"/>
</a>
</g>
</g>
<!-- Node6 -->
<g id="Node000006" class="node">
<title>Node6</title>
<g id="a_Node000006"><a xlink:title=" ">
<polygon fill="#e0e0e0" stroke="#999999" points="552.37,-19 504.37,-19 504.37,0 552.37,0 552.37,-19"/>
<text text-anchor="middle" x="528.37" y="-7" font-family="Helvetica,sans-Serif" font-size="10.00">iosfwd</text>
</a>
</g>
</g>
<!-- Node3&#45;&gt;Node6 -->
<g id="edge5_Node000003_Node000006" class="edge">
<title>Node3&#45;&gt;Node6</title>
<g id="a_edge5_Node000003_Node000006"><a xlink:title=" ">
<path fill="none" stroke="#63b8ff" d="M583.77,-54.98C573.92,-47.07 559.02,-35.11 547.16,-25.58"/>
<polygon fill="#63b8ff" stroke="#63b8ff" points="549.16,-22.7 539.17,-19.17 544.78,-28.16 549.16,-22.7"/>
</a>
</g>
</g>
<!-- Node3&#45;&gt;Node7 -->
<g id="edge6_Node000003_Node000007" class="edge">
<title>Node3&#45;&gt;Node7</title>
<g id="a_edge6_Node000003_Node000007"><a xlink:title=" ">
<path fill="none" stroke="#63b8ff" d="M558.06,-54.98C519.14,-45.86 457.22,-31.33 414.78,-21.38"/>
<polygon fill="#63b8ff" stroke="#63b8ff" points="415.51,-17.96 404.97,-19.08 413.91,-24.77 415.51,-17.96"/>
</a>
</g>
</g>
<!-- Node8&#45;&gt;Node3 -->
<g id="edge8_Node000008_Node000003" class="edge">
<title>Node8&#45;&gt;Node3</title>
<g id="a_edge8_Node000008_Node000003"><a xlink:title=" ">
<path fill="none" stroke="#63b8ff" d="M245.04,-113.47C314.29,-103.96 464.44,-83.34 543.44,-72.49"/>
<polygon fill="#63b8ff" stroke="#63b8ff" points="544.2,-75.92 553.64,-71.09 543.25,-68.99 544.2,-75.92"/>
</a>
</g>
</g>
<!-- Node8&#45;&gt;Node7 -->
<g id="edge9_Node000008_Node000007" class="edge">
<title>Node8&#45;&gt;Node7</title>
<g id="a_edge9_Node000008_Node000007"><a xlink:title=" ">
<path fill="none" stroke="#63b8ff" d="M213.26,-109.95C221.3,-96.55 238.52,-70.56 259.37,-55 279.18,-40.23 304.58,-29.49 325.87,-22.26"/>
<polygon fill="#63b8ff" stroke="#63b8ff" points="327.21,-25.51 335.65,-19.09 325.05,-18.85 327.21,-25.51"/>
</a>
</g>
</g>
<!-- Node8&#45;&gt;Node9 -->
<g id="edge10_Node000008_Node000009" class="edge">
<title>Node8&#45;&gt;Node9</title>
<g id="a_edge10_Node000008_Node000009"><a xlink:title=" ">
<path fill="none" stroke="#63b8ff" d="M199.95,-109.75C192.6,-102.11 181.74,-90.82 172.83,-81.56"/>
<polygon fill="#63b8ff" stroke="#63b8ff" points="175.1,-78.87 165.64,-74.09 170.05,-83.72 175.1,-78.87"/>
</a>
</g>
</g>
<!-- Node10 -->
<g id="Node000010" class="node">
<title>Node10</title>
<g id="a_Node000010"><a xlink:title=" ">
<polygon fill="#e0e0e0" stroke="#999999" points="193.37,-19 121.37,-19 121.37,0 193.37,0 193.37,-19"/>
<text text-anchor="middle" x="157.37" y="-7" font-family="Helvetica,sans-Serif" font-size="10.00">sys/types.h</text>
</a>
</g>
</g>
<!-- Node9&#45;&gt;Node10 -->
<g id="edge11_Node000009_Node000010" class="edge">
<title>Node9&#45;&gt;Node10</title>
<g id="a_edge11_Node000009_Node000010"><a xlink:title=" ">
<path fill="none" stroke="#63b8ff" d="M157.37,-54.75C157.37,-47.8 157.37,-37.85 157.37,-29.13"/>
<polygon fill="#63b8ff" stroke="#63b8ff" points="160.88,-29.09 157.37,-19.09 153.88,-29.09 160.88,-29.09"/>
</a>
</g>
</g>
<!-- Node11&#45;&gt;Node7 -->
<g id="edge15_Node000011_Node000007" class="edge">
<title>Node11&#45;&gt;Node7</title>
<g id="a_edge15_Node000011_Node000007"><a xlink:title=" ">
<path fill="none" stroke="#63b8ff" d="M756.72,-164.83C741.57,-142.39 697.6,-82.28 644.37,-55 606.84,-35.76 493.02,-22.13 423.83,-15.36"/>
<polygon fill="#63b8ff" stroke="#63b8ff" points="423.83,-11.85 413.54,-14.38 423.16,-18.82 423.83,-11.85"/>
</a>
</g>
</g>
<!-- Node12 -->
<g id="Node000012" class="node">
<title>Node12</title>
<g id="a_Node000012"><a xlink:href="tstring_8h.html" target="_top" xlink:title=" ">
<polygon fill="white" stroke="#666666" points="472.87,-129 415.87,-129 415.87,-110 472.87,-110 472.87,-129"/>
<text text-anchor="middle" x="444.37" y="-117" font-family="Helvetica,sans-Serif" font-size="10.00">tstring.h</text>
</a>
</g>
</g>
<!-- Node11&#45;&gt;Node12 -->
<g id="edge16_Node000011_Node000012" class="edge">
<title>Node11&#45;&gt;Node12</title>
<g id="a_edge16_Node000011_Node000012"><a xlink:title=" ">
<path fill="none" stroke="#63b8ff" d="M741.51,-170.02C689.05,-161.28 550.99,-138.27 483.14,-126.96"/>
<polygon fill="#63b8ff" stroke="#63b8ff" points="483.31,-123.44 472.88,-125.25 482.16,-130.35 483.31,-123.44"/>
</a>
</g>
</g>
<!-- Node14 -->
<g id="Node000014" class="node">
<title>Node14</title>
<g id="a_Node000014"><a xlink:href="tlist_8h.html" target="_top" xlink:title=" ">
<polygon fill="white" stroke="#666666" points="898.37,-74 854.37,-74 854.37,-55 898.37,-55 898.37,-74"/>
<text text-anchor="middle" x="876.37" y="-62" font-family="Helvetica,sans-Serif" font-size="10.00">tlist.h</text>
</a>
</g>
</g>
<!-- Node11&#45;&gt;Node14 -->
<g id="edge20_Node000011_Node000014" class="edge">
<title>Node11&#45;&gt;Node14</title>
<g id="a_edge20_Node000011_Node000014"><a xlink:title=" ">
<path fill="none" stroke="#63b8ff" d="M783.08,-169.27C804.92,-163.73 838.82,-151.92 858.37,-129 868.95,-116.61 873.33,-98.39 875.14,-84.64"/>
<polygon fill="#63b8ff" stroke="#63b8ff" points="878.65,-84.66 876.13,-74.37 871.68,-83.99 878.65,-84.66"/>
</a>
</g>
</g>
<!-- Node18 -->
<g id="Node000018" class="node">
<title>Node18</title>
<g id="a_Node000018"><a xlink:href="tvariant_8h.html" target="_top" xlink:title=" ">
<polygon fill="white" stroke="#666666" points="849.37,-129 785.37,-129 785.37,-110 849.37,-110 849.37,-129"/>
<text text-anchor="middle" x="817.37" y="-117" font-family="Helvetica,sans-Serif" font-size="10.00">tvariant.h</text>
</a>
</g>
</g>
<!-- Node11&#45;&gt;Node18 -->
<g id="edge25_Node000011_Node000018" class="edge">
<title>Node11&#45;&gt;Node18</title>
<g id="a_edge25_Node000011_Node000018"><a xlink:title=" ">
<path fill="none" stroke="#63b8ff" d="M771.46,-164.75C779.47,-157.03 791.33,-145.6 801,-136.28"/>
<polygon fill="#63b8ff" stroke="#63b8ff" points="803.69,-138.55 808.46,-129.09 798.83,-133.51 803.69,-138.55"/>
</a>
</g>
</g>
<!-- Node12&#45;&gt;Node3 -->
<g id="edge18_Node000012_Node000003" class="edge">
<title>Node12&#45;&gt;Node3</title>
<g id="a_edge18_Node000012_Node000003"><a xlink:title=" ">
<path fill="none" stroke="#63b8ff" d="M468.48,-109.98C493.26,-101.23 532.08,-87.51 560.06,-77.62"/>
<polygon fill="#63b8ff" stroke="#63b8ff" points="561.57,-80.8 569.84,-74.17 559.24,-74.2 561.57,-80.8"/>
</a>
</g>
</g>
<!-- Node12&#45;&gt;Node7 -->
<g id="edge19_Node000012_Node000007" class="edge">
<title>Node12&#45;&gt;Node7</title>
<g id="a_edge19_Node000012_Node000007"><a xlink:title=" ">
<path fill="none" stroke="#63b8ff" d="M438.65,-109.79C430.52,-97.48 415.08,-74.33 401.37,-55 394.84,-45.78 387.35,-35.65 381.16,-27.39"/>
<polygon fill="#63b8ff" stroke="#63b8ff" points="383.87,-25.17 375.06,-19.28 378.28,-29.38 383.87,-25.17"/>
</a>
</g>
</g>
<!-- Node13 -->
<g id="Node000013" class="node">
<title>Node13</title>
<g id="a_Node000013"><a xlink:title=" ">
<polygon fill="#e0e0e0" stroke="#999999" points="497.37,-74 453.37,-74 453.37,-55 497.37,-55 497.37,-74"/>
<text text-anchor="middle" x="475.37" y="-62" font-family="Helvetica,sans-Serif" font-size="10.00">string</text>
</a>
</g>
</g>
<!-- Node12&#45;&gt;Node13 -->
<g id="edge17_Node000012_Node000013" class="edge">
<title>Node12&#45;&gt;Node13</title>
<g id="a_edge17_Node000012_Node000013"><a xlink:title=" ">
<path fill="none" stroke="#63b8ff" d="M449.49,-109.75C453.74,-102.49 459.9,-91.95 465.15,-82.98"/>
<polygon fill="#63b8ff" stroke="#63b8ff" points="468.32,-84.49 470.35,-74.09 462.28,-80.95 468.32,-84.49"/>
</a>
</g>
</g>
<!-- Node14&#45;&gt;Node4 -->
<g id="edge23_Node000014_Node000004" class="edge">
<title>Node14&#45;&gt;Node4</title>
<g id="a_edge23_Node000014_Node000004"><a xlink:title=" ">
<path fill="none" stroke="#63b8ff" d="M854.3,-57.93C818.93,-49 749.11,-31.38 705.25,-20.31"/>
<polygon fill="#63b8ff" stroke="#63b8ff" points="706.05,-16.9 695.5,-17.85 704.34,-23.69 706.05,-16.9"/>
</a>
</g>
</g>
<!-- Node15 -->
<g id="Node000015" class="node">
<title>Node15</title>
<g id="a_Node000015"><a xlink:title=" ">
<polygon fill="#e0e0e0" stroke="#999999" points="745.37,-19 713.37,-19 713.37,0 745.37,0 745.37,-19"/>
<text text-anchor="middle" x="729.37" y="-7" font-family="Helvetica,sans-Serif" font-size="10.00">list</text>
</a>
</g>
</g>
<!-- Node14&#45;&gt;Node15 -->
<g id="edge21_Node000014_Node000015" class="edge">
<title>Node14&#45;&gt;Node15</title>
<g id="a_edge21_Node000014_Node000015"><a xlink:title=" ">
<path fill="none" stroke="#63b8ff" d="M854.37,-55.57C827.83,-46 783.3,-29.94 755.17,-19.8"/>
<polygon fill="#63b8ff" stroke="#63b8ff" points="756.21,-16.46 745.62,-16.36 753.84,-23.04 756.21,-16.46"/>
</a>
</g>
</g>
<!-- Node16 -->
<g id="Node000016" class="node">
<title>Node16</title>
<g id="a_Node000016"><a xlink:title=" ">
<polygon fill="#e0e0e0" stroke="#999999" points="917.87,-19 834.87,-19 834.87,0 917.87,0 917.87,-19"/>
<text text-anchor="middle" x="876.37" y="-7" font-family="Helvetica,sans-Serif" font-size="10.00">initializer_list</text>
</a>
</g>
</g>
<!-- Node14&#45;&gt;Node16 -->
<g id="edge22_Node000014_Node000016" class="edge">
<title>Node14&#45;&gt;Node16</title>
<g id="a_edge22_Node000014_Node000016"><a xlink:title=" ">
<path fill="none" stroke="#63b8ff" d="M876.37,-54.75C876.37,-47.8 876.37,-37.85 876.37,-29.13"/>
<polygon fill="#63b8ff" stroke="#63b8ff" points="879.88,-29.09 876.37,-19.09 872.88,-29.09 879.88,-29.09"/>
</a>
</g>
</g>
<!-- Node17 -->
<g id="Node000017" class="node">
<title>Node17</title>
<g id="a_Node000017"><a xlink:title=" ">
<polygon fill="#e0e0e0" stroke="#999999" points="816.87,-19 763.87,-19 763.87,0 816.87,0 816.87,-19"/>
<text text-anchor="middle" x="790.37" y="-7" font-family="Helvetica,sans-Serif" font-size="10.00">tlist.tcc</text>
</a>
</g>
</g>
<!-- Node14&#45;&gt;Node17 -->
<g id="edge24_Node000014_Node000017" class="edge">
<title>Node14&#45;&gt;Node17</title>
<g id="a_edge24_Node000014_Node000017"><a xlink:title=" ">
<path fill="none" stroke="#63b8ff" d="M862.56,-54.98C849.22,-46.77 828.79,-34.18 813.07,-24.49"/>
<polygon fill="#63b8ff" stroke="#63b8ff" points="814.79,-21.44 804.44,-19.17 811.12,-27.4 814.79,-21.44"/>
</a>
</g>
</g>
<!-- Node18&#45;&gt;Node7 -->
<g id="edge34_Node000018_Node000007" class="edge">
<title>Node18&#45;&gt;Node7</title>
<g id="a_edge34_Node000018_Node000007"><a xlink:title=" ">
<path fill="none" stroke="#63b8ff" d="M818.99,-109.61C820.93,-95.74 822.29,-69.11 807.37,-55 793.6,-41.97 538.46,-22.47 423.61,-14.31"/>
<polygon fill="#63b8ff" stroke="#63b8ff" points="423.82,-10.81 413.6,-13.6 423.33,-17.8 423.82,-10.81"/>
</a>
</g>
</g>
<!-- Node18&#45;&gt;Node14 -->
<g id="edge27_Node000018_Node000014" class="edge">
<title>Node18&#45;&gt;Node14</title>
<g id="a_edge27_Node000018_Node000014"><a xlink:title=" ">
<path fill="none" stroke="#63b8ff" d="M826.85,-109.98C835.58,-102.15 848.72,-90.34 859.27,-80.86"/>
<polygon fill="#63b8ff" stroke="#63b8ff" points="861.62,-83.46 866.72,-74.17 856.94,-78.25 861.62,-83.46"/>
</a>
</g>
</g>
<!-- Node19 -->
<g id="Node000019" class="node">
<title>Node19</title>
<g id="a_Node000019"><a xlink:title=" ">
<polygon fill="#e0e0e0" stroke="#999999" points="798.37,-74 742.37,-74 742.37,-55 798.37,-55 798.37,-74"/>
<text text-anchor="middle" x="770.37" y="-62" font-family="Helvetica,sans-Serif" font-size="10.00">sstream</text>
</a>
</g>
</g>
<!-- Node18&#45;&gt;Node19 -->
<g id="edge26_Node000018_Node000019" class="edge">
<title>Node18&#45;&gt;Node19</title>
<g id="a_edge26_Node000018_Node000019"><a xlink:title=" ">
<path fill="none" stroke="#63b8ff" d="M809.61,-109.75C802.91,-102.18 793.03,-91.05 784.87,-81.84"/>
<polygon fill="#63b8ff" stroke="#63b8ff" points="787.25,-79.25 777.99,-74.09 782.01,-83.89 787.25,-79.25"/>
</a>
</g>
</g>
<!-- Node20 -->
<g id="Node000020" class="node">
<title>Node20</title>
<g id="a_Node000020"><a xlink:href="tmap_8h.html" target="_top" xlink:title=" ">
<polygon fill="white" stroke="#666666" points="978.87,-74 927.87,-74 927.87,-55 978.87,-55 978.87,-74"/>
<text text-anchor="middle" x="953.37" y="-62" font-family="Helvetica,sans-Serif" font-size="10.00">tmap.h</text>
</a>
</g>
</g>
<!-- Node18&#45;&gt;Node20 -->
<g id="edge28_Node000018_Node000020" class="edge">
<title>Node18&#45;&gt;Node20</title>
<g id="a_edge28_Node000018_Node000020"><a xlink:title=" ">
<path fill="none" stroke="#63b8ff" d="M839.23,-109.98C861.5,-101.3 896.28,-87.75 921.6,-77.88"/>
<polygon fill="#63b8ff" stroke="#63b8ff" points="923.08,-81.06 931.13,-74.17 920.54,-74.54 923.08,-81.06"/>
</a>
</g>
</g>
<!-- Node20&#45;&gt;Node4 -->
<g id="edge30_Node000020_Node000004" class="edge">
<title>Node20&#45;&gt;Node4</title>
<g id="a_edge30_Node000020_Node000004"><a xlink:title=" ">
<path fill="none" stroke="#63b8ff" d="M927.59,-58.7C921,-57.48 913.93,-56.19 907.37,-55 820.29,-39.23 795.87,-37.14 705.27,-19.11"/>
<polygon fill="#63b8ff" stroke="#63b8ff" points="705.89,-15.66 695.39,-17.13 704.51,-22.52 705.89,-15.66"/>
</a>
</g>
</g>
<!-- Node20&#45;&gt;Node16 -->
<g id="edge31_Node000020_Node000016" class="edge">
<title>Node20&#45;&gt;Node16</title>
<g id="a_edge31_Node000020_Node000016"><a xlink:title=" ">
<path fill="none" stroke="#63b8ff" d="M941,-54.98C929.29,-46.92 911.46,-34.65 897.49,-25.03"/>
<polygon fill="#63b8ff" stroke="#63b8ff" points="899.19,-21.96 888.97,-19.17 895.22,-27.72 899.19,-21.96"/>
</a>
</g>
</g>
<!-- Node21 -->
<g id="Node000021" class="node">
<title>Node21</title>
<g id="a_Node000021"><a xlink:title=" ">
<polygon fill="#e0e0e0" stroke="#999999" points="1051.37,-19 1013.37,-19 1013.37,0 1051.37,0 1051.37,-19"/>
<text text-anchor="middle" x="1032.37" y="-7" font-family="Helvetica,sans-Serif" font-size="10.00">map</text>
</a>
</g>
</g>
<!-- Node20&#45;&gt;Node21 -->
<g id="edge29_Node000020_Node000021" class="edge">
<title>Node20&#45;&gt;Node21</title>
<g id="a_edge29_Node000020_Node000021"><a xlink:title=" ">
<path fill="none" stroke="#63b8ff" d="M966.07,-54.98C978.2,-46.84 996.73,-34.41 1011.12,-24.76"/>
<polygon fill="#63b8ff" stroke="#63b8ff" points="1013.1,-27.65 1019.45,-19.17 1009.2,-21.84 1013.1,-27.65"/>
</a>
</g>
</g>
<!-- Node22 -->
<g id="Node000022" class="node">
<title>Node22</title>
<g id="a_Node000022"><a xlink:title=" ">
<polygon fill="#e0e0e0" stroke="#999999" points="1114.87,-19 1069.87,-19 1069.87,0 1114.87,0 1114.87,-19"/>
<text text-anchor="middle" x="1092.37" y="-7" font-family="Helvetica,sans-Serif" font-size="10.00">utility</text>
</a>
</g>
</g>
<!-- Node20&#45;&gt;Node22 -->
<g id="edge32_Node000020_Node000022" class="edge">
<title>Node20&#45;&gt;Node22</title>
<g id="a_edge32_Node000020_Node000022"><a xlink:title=" ">
<path fill="none" stroke="#63b8ff" d="M975.71,-54.98C998.57,-46.27 1034.33,-32.63 1060.24,-22.75"/>
<polygon fill="#63b8ff" stroke="#63b8ff" points="1061.54,-26 1069.64,-19.17 1059.05,-19.46 1061.54,-26"/>
</a>
</g>
</g>
<!-- Node23 -->
<g id="Node000023" class="node">
<title>Node23</title>
<g id="a_Node000023"><a xlink:title=" ">
<polygon fill="#e0e0e0" stroke="#999999" points="994.87,-19 935.87,-19 935.87,0 994.87,0 994.87,-19"/>
<text text-anchor="middle" x="965.37" y="-7" font-family="Helvetica,sans-Serif" font-size="10.00">tmap.tcc</text>
</a>
</g>
</g>
<!-- Node20&#45;&gt;Node23 -->
<g id="edge33_Node000020_Node000023" class="edge">
<title>Node20&#45;&gt;Node23</title>
<g id="a_edge33_Node000020_Node000023"><a xlink:title=" ">
<path fill="none" stroke="#63b8ff" d="M955.36,-54.75C956.95,-47.72 959.23,-37.62 961.22,-28.84"/>
<polygon fill="#63b8ff" stroke="#63b8ff" points="964.64,-29.62 963.43,-19.09 957.81,-28.07 964.64,-29.62"/>
</a>
</g>
</g>
<!-- Node24&#45;&gt;Node7 -->
<g id="edge39_Node000024_Node000007" class="edge">
<title>Node24&#45;&gt;Node7</title>
<g id="a_edge39_Node000024_Node000007"><a xlink:title=" ">
<path fill="none" stroke="#63b8ff" d="M46.23,-164.93C31.55,-157.73 13.12,-145.88 4.37,-129 -18.94,-83.98 59.43,-59.91 70.37,-55 149.56,-19.5 251.27,-11.32 313.05,-9.96"/>
<polygon fill="#63b8ff" stroke="#63b8ff" points="313.42,-13.46 323.36,-9.79 313.3,-6.46 313.42,-13.46"/>
</a>
</g>
</g>
<!-- Node24&#45;&gt;Node12 -->
<g id="edge38_Node000024_Node000012" class="edge">
<title>Node24&#45;&gt;Node12</title>
<g id="a_edge38_Node000024_Node000012"><a xlink:title=" ">
<path fill="none" stroke="#63b8ff" d="M112.48,-167.16C187.02,-156.68 334.69,-135.92 405.17,-126.01"/>
<polygon fill="#63b8ff" stroke="#63b8ff" points="405.98,-129.43 415.39,-124.57 405,-122.5 405.98,-129.43"/>
</a>
</g>
</g>
<!-- Node25 -->
<g id="Node000025" class="node">
<title>Node25</title>
<g id="a_Node000025"><a xlink:href="audioproperties_8h.html" target="_top" xlink:title=" ">
<polygon fill="white" stroke="#666666" points="115.37,-129 13.37,-129 13.37,-110 115.37,-110 115.37,-129"/>
<text text-anchor="middle" x="64.37" y="-117" font-family="Helvetica,sans-Serif" font-size="10.00">audioproperties.h</text>
</a>
</g>
</g>
<!-- Node24&#45;&gt;Node25 -->
<g id="edge40_Node000024_Node000025" class="edge">
<title>Node24&#45;&gt;Node25</title>
<g id="a_edge40_Node000024_Node000025"><a xlink:title=" ">
<path fill="none" stroke="#63b8ff" d="M66.88,-164.75C66.49,-157.8 65.92,-147.85 65.43,-139.13"/>
<polygon fill="#63b8ff" stroke="#63b8ff" points="68.92,-138.88 64.86,-129.09 61.93,-139.27 68.92,-138.88"/>
</a>
</g>
</g>
<!-- Node25&#45;&gt;Node4 -->
<g id="edge41_Node000025_Node000004" class="edge">
<title>Node25&#45;&gt;Node4</title>
<g id="a_edge41_Node000025_Node000004"><a xlink:title=" ">
<path fill="none" stroke="#63b8ff" d="M69.41,-109.57C78.09,-95.14 97.38,-67.1 122.37,-55 220.97,-7.26 500.73,-33.54 627.14,-18.66"/>
<polygon fill="#63b8ff" stroke="#63b8ff" points="627.61,-22.13 637.07,-17.36 626.7,-15.19 627.61,-22.13"/>
</a>
</g>
</g>
<!-- Node25&#45;&gt;Node7 -->
<g id="edge43_Node000025_Node000007" class="edge">
<title>Node25&#45;&gt;Node7</title>
<g id="a_edge43_Node000025_Node000007"><a xlink:title=" ">
<path fill="none" stroke="#63b8ff" d="M64.96,-109.96C66.41,-96.09 71.38,-68.84 88.37,-55 121.93,-27.67 241.51,-16.89 313.09,-12.82"/>
<polygon fill="#63b8ff" stroke="#63b8ff" points="313.49,-16.3 323.29,-12.26 313.11,-9.31 313.49,-16.3"/>
</a>
</g>
</g>
<!-- Node25&#45;&gt;Node9 -->
<g id="edge42_Node000025_Node000009" class="edge">
<title>Node25&#45;&gt;Node9</title>
<g id="a_edge42_Node000025_Node000009"><a xlink:title=" ">
<path fill="none" stroke="#63b8ff" d="M79.32,-109.98C93.87,-101.69 116.24,-88.94 133.31,-79.22"/>
<polygon fill="#63b8ff" stroke="#63b8ff" points="135.21,-82.16 142.16,-74.17 131.74,-76.08 135.21,-82.16"/>
</a>
</g>
</g>
<!-- Node26&#45;&gt;Node7 -->
<g id="edge47_Node000026_Node000007" class="edge">
<title>Node26&#45;&gt;Node7</title>
<g id="a_edge47_Node000026_Node000007"><a xlink:title=" ">
<path fill="none" stroke="#63b8ff" d="M636.14,-279.99C558.83,-269.59 349.37,-235.84 349.37,-175.5 349.37,-175.5 349.37,-175.5 349.37,-118.5 349.37,-86.56 357.53,-50.1 363.16,-28.77"/>
<polygon fill="#63b8ff" stroke="#63b8ff" points="366.54,-29.66 365.81,-19.09 359.79,-27.81 366.54,-29.66"/>
</a>
</g>
</g>
<!-- Node26&#45;&gt;Node11 -->
<g id="edge48_Node000026_Node000011" class="edge">
<title>Node26&#45;&gt;Node11</title>
<g id="a_edge48_Node000026_Node000011"><a xlink:title=" ">
<path fill="none" stroke="#63b8ff" d="M672.39,-274.66C688.84,-256.54 726.61,-214.91 747.61,-191.77"/>
<polygon fill="#63b8ff" stroke="#63b8ff" points="750.39,-193.92 754.52,-184.16 745.21,-189.21 750.39,-193.92"/>
</a>
</g>
</g>
<!-- Node26&#45;&gt;Node14 -->
<g id="edge45_Node000026_Node000014" class="edge">
<title>Node26&#45;&gt;Node14</title>
<g id="a_edge45_Node000026_Node000014"><a xlink:title=" ">
<path fill="none" stroke="#63b8ff" d="M688.03,-274.9C734.6,-256.51 837.11,-208.46 877.37,-129 884.38,-115.17 883.39,-97.37 881.07,-84.14"/>
<polygon fill="#63b8ff" stroke="#63b8ff" points="884.48,-83.33 878.96,-74.29 877.63,-84.8 884.48,-83.33"/>
</a>
</g>
</g>
<!-- Node26&#45;&gt;Node20 -->
<g id="edge46_Node000026_Node000020" class="edge">
<title>Node26&#45;&gt;Node20</title>
<g id="a_edge46_Node000026_Node000020"><a xlink:title=" ">
<path fill="none" stroke="#63b8ff" d="M692.57,-276.52C718.91,-269.32 758.79,-256.66 790.37,-239 861.27,-199.36 919.38,-118.34 942.55,-82.83"/>
<polygon fill="#63b8ff" stroke="#63b8ff" points="945.7,-84.4 948.14,-74.09 939.8,-80.62 945.7,-84.4"/>
</a>
</g>
</g>
<!-- Node27 -->
<g id="Node000027" class="node">
<title>Node27</title>
<g id="a_Node000027"><a xlink:href="asfattribute_8h.html" target="_top" xlink:title=" ">
<polygon fill="white" stroke="#666666" points="648.87,-239 565.87,-239 565.87,-220 648.87,-220 648.87,-239"/>
<text text-anchor="middle" x="607.37" y="-227" font-family="Helvetica,sans-Serif" font-size="10.00">asfattribute.h</text>
</a>
</g>
</g>
<!-- Node26&#45;&gt;Node27 -->
<g id="edge49_Node000026_Node000027" class="edge">
<title>Node26&#45;&gt;Node27</title>
<g id="a_edge49_Node000026_Node000027"><a xlink:title=" ">
<path fill="none" stroke="#63b8ff" d="M655.22,-274.98C646.87,-267.23 634.34,-255.58 624.2,-246.14"/>
<polygon fill="#63b8ff" stroke="#63b8ff" points="626.41,-243.42 616.7,-239.17 621.64,-248.54 626.41,-243.42"/>
</a>
</g>
</g>
<!-- Node27&#45;&gt;Node3 -->
<g id="edge51_Node000027_Node000003" class="edge">
<title>Node27&#45;&gt;Node3</title>
<g id="a_edge51_Node000027_Node000003"><a xlink:title=" ">
<path fill="none" stroke="#63b8ff" d="M619.48,-219.86C645.39,-200.27 701.92,-151.01 677.37,-110 668.4,-95.01 652.47,-84.78 636.94,-77.95"/>
<polygon fill="#63b8ff" stroke="#63b8ff" points="637.98,-74.6 627.39,-74.13 635.37,-81.1 637.98,-74.6"/>
</a>
</g>
</g>
<!-- Node27&#45;&gt;Node7 -->
<g id="edge52_Node000027_Node000007" class="edge">
<title>Node27&#45;&gt;Node7</title>
<g id="a_edge52_Node000027_Node000007"><a xlink:title=" ">
<path fill="none" stroke="#63b8ff" d="M571.2,-219.96C526.34,-207.52 450.53,-180.12 407.37,-129 382.66,-99.72 373.48,-54.32 370.16,-29.06"/>
<polygon fill="#63b8ff" stroke="#63b8ff" points="373.63,-28.54 369.02,-19 366.67,-29.33 373.63,-28.54"/>
</a>
</g>
</g>
<!-- Node27&#45;&gt;Node12 -->
<g id="edge50_Node000027_Node000012" class="edge">
<title>Node27&#45;&gt;Node12</title>
<g id="a_edge50_Node000027_Node000012"><a xlink:title=" ">
<path fill="none" stroke="#63b8ff" d="M594.31,-219.84C566.29,-201.28 500.2,-157.49 465.89,-134.75"/>
<polygon fill="#63b8ff" stroke="#63b8ff" points="467.77,-131.8 457.5,-129.2 463.9,-137.64 467.77,-131.8"/>
</a>
</g>
</g>
<!-- Node28 -->
<g id="Node000028" class="node">
<title>Node28</title>
<g id="a_Node000028"><a xlink:href="asfpicture_8h.html" target="_top" xlink:title=" ">
<polygon fill="white" stroke="#666666" points="644.37,-184 570.37,-184 570.37,-165 644.37,-165 644.37,-184"/>
<text text-anchor="middle" x="607.37" y="-172" font-family="Helvetica,sans-Serif" font-size="10.00">asfpicture.h</text>
</a>
</g>
</g>
<!-- Node27&#45;&gt;Node28 -->
<g id="edge53_Node000027_Node000028" class="edge">
<title>Node27&#45;&gt;Node28</title>
<g id="a_edge53_Node000027_Node000028"><a xlink:title=" ">
<path fill="none" stroke="#63b8ff" d="M607.37,-219.75C607.37,-212.8 607.37,-202.85 607.37,-194.13"/>
<polygon fill="#63b8ff" stroke="#63b8ff" points="610.88,-194.09 607.37,-184.09 603.88,-194.09 610.88,-194.09"/>
</a>
</g>
</g>
<!-- Node28&#45;&gt;Node3 -->
<g id="edge55_Node000028_Node000003" class="edge">
<title>Node28&#45;&gt;Node3</title>
<g id="a_edge55_Node000028_Node000003"><a xlink:title=" ">
<path fill="none" stroke="#63b8ff" d="M624.4,-165C644.7,-153.64 674.44,-132.32 662.37,-110 654.8,-95.98 640.67,-85.67 627.25,-78.53"/>
<polygon fill="#63b8ff" stroke="#63b8ff" points="628.68,-75.33 618.16,-74.08 625.6,-81.62 628.68,-75.33"/>
</a>
</g>
</g>
<!-- Node28&#45;&gt;Node7 -->
<g id="edge57_Node000028_Node000007" class="edge">
<title>Node28&#45;&gt;Node7</title>
<g id="a_edge57_Node000028_Node000007"><a xlink:title=" ">
<path fill="none" stroke="#63b8ff" d="M596.88,-164.85C586.75,-156.26 571.25,-142.47 559.37,-129 532.63,-98.65 539.05,-78.85 506.37,-55 482.13,-37.3 450.52,-26.43 423.67,-19.87"/>
<polygon fill="#63b8ff" stroke="#63b8ff" points="424.17,-16.4 413.64,-17.57 422.6,-23.22 424.17,-16.4"/>
</a>
</g>
</g>
<!-- Node28&#45;&gt;Node12 -->
<g id="edge54_Node000028_Node000012" class="edge">
<title>Node28&#45;&gt;Node12</title>
<g id="a_edge54_Node000028_Node000012"><a xlink:title=" ">
<path fill="none" stroke="#63b8ff" d="M581.19,-164.98C553.94,-156.13 511.07,-142.19 480.59,-132.28"/>
<polygon fill="#63b8ff" stroke="#63b8ff" points="481.36,-128.85 470.77,-129.08 479.2,-135.5 481.36,-128.85"/>
</a>
</g>
</g>
<!-- Node29 -->
<g id="Node000029" class="node">
<title>Node29</title>
<g id="a_Node000029"><a xlink:href="tpicturetype_8h.html" target="_top" xlink:title=" ">
<polygon fill="white" stroke="#666666" points="652.87,-129 567.87,-129 567.87,-110 652.87,-110 652.87,-129"/>
<text text-anchor="middle" x="610.37" y="-117" font-family="Helvetica,sans-Serif" font-size="10.00">tpicturetype.h</text>
</a>
</g>
</g>
<!-- Node28&#45;&gt;Node29 -->
<g id="edge56_Node000028_Node000029" class="edge">
<title>Node28&#45;&gt;Node29</title>
<g id="a_edge56_Node000028_Node000029"><a xlink:title=" ">
<path fill="none" stroke="#63b8ff" d="M607.87,-164.75C608.26,-157.8 608.83,-147.85 609.32,-139.13"/>
<polygon fill="#63b8ff" stroke="#63b8ff" points="612.82,-139.27 609.89,-129.09 605.83,-138.88 612.82,-139.27"/>
</a>
</g>
</g>
</g>
</svg>
