<?xml version="1.0" encoding="UTF-8" standalone="no"?>
<!DOCTYPE svg PUBLIC "-//W3C//DTD SVG 1.1//EN"
 "http://www.w3.org/Graphics/SVG/1.1/DTD/svg11.dtd">
<!-- Generated by graphviz version 2.43.0 (0)
 -->
<!-- Title: asffile.h Pages: 1 -->
<svg width="1161pt" height="364pt"
 viewBox="0.00 0.00 1160.50 364.00" xmlns="http://www.w3.org/2000/svg" xmlns:xlink="http://www.w3.org/1999/xlink">
<g id="graph0" class="graph" transform="scale(1 1) rotate(0) translate(4 360)">
<title>asffile.h</title>
<polygon fill="white" stroke="transparent" points="-4,4 -4,-360 1156.5,-360 1156.5,4 -4,4"/>
<!-- Node1 -->
<g id="node1" class="node">
<title>Node1</title>
<g id="a_node1"><a xlink:title=" ">
<polygon fill="#bfbfbf" stroke="black" points="825.5,-336.5 825.5,-355.5 881.5,-355.5 881.5,-336.5 825.5,-336.5"/>
<text text-anchor="middle" x="853.5" y="-343.5" font-family="Helvetica,sans-Serif" font-size="10.00">asffile.h</text>
</a>
</g>
</g>
<!-- Node2 -->
<g id="node2" class="node">
<title>Node2</title>
<g id="a_node2"><a xlink:href="tfile_8h.html" target="_top" xlink:title=" ">
<polygon fill="white" stroke="black" points="831.5,-224.5 831.5,-243.5 875.5,-243.5 875.5,-224.5 831.5,-224.5"/>
<text text-anchor="middle" x="853.5" y="-231.5" font-family="Helvetica,sans-Serif" font-size="10.00">tfile.h</text>
</a>
</g>
</g>
<!-- Node1&#45;&gt;Node2 -->
<g id="edge1" class="edge">
<title>Node1&#45;&gt;Node2</title>
<path fill="none" stroke="midnightblue" d="M853.5,-336.37C853.5,-318.62 853.5,-277.67 853.5,-253.6"/>
<polygon fill="midnightblue" stroke="midnightblue" points="857,-253.59 853.5,-243.59 850,-253.59 857,-253.59"/>
</g>
<!-- Node7 -->
<g id="node7" class="node">
<title>Node7</title>
<g id="a_node7"><a xlink:href="taglib__export_8h.html" target="_top" xlink:title=" ">
<polygon fill="white" stroke="black" points="724.5,-0.5 724.5,-19.5 814.5,-19.5 814.5,-0.5 724.5,-0.5"/>
<text text-anchor="middle" x="769.5" y="-7.5" font-family="Helvetica,sans-Serif" font-size="10.00">taglib_export.h</text>
</a>
</g>
</g>
<!-- Node1&#45;&gt;Node7 -->
<g id="edge35" class="edge">
<title>Node1&#45;&gt;Node7</title>
<path fill="none" stroke="midnightblue" d="M881.63,-340.83C956.06,-329.01 1152.5,-292.39 1152.5,-235 1152.5,-235 1152.5,-235 1152.5,-121 1152.5,-79.51 1122.75,-74.26 1085.5,-56 1040.74,-34.05 902.81,-20.73 824.78,-14.75"/>
<polygon fill="midnightblue" stroke="midnightblue" points="824.88,-11.24 814.64,-13.98 824.35,-18.22 824.88,-11.24"/>
</g>
<!-- Node11 -->
<g id="node11" class="node">
<title>Node11</title>
<g id="a_node11"><a xlink:href="tag_8h.html" target="_top" xlink:title=" ">
<polygon fill="white" stroke="black" points="350,-168.5 350,-187.5 391,-187.5 391,-168.5 350,-168.5"/>
<text text-anchor="middle" x="370.5" y="-175.5" font-family="Helvetica,sans-Serif" font-size="10.00">tag.h</text>
</a>
</g>
</g>
<!-- Node1&#45;&gt;Node11 -->
<g id="edge36" class="edge">
<title>Node1&#45;&gt;Node11</title>
<path fill="none" stroke="midnightblue" d="M825.35,-344.1C731.09,-340.82 430.62,-328.23 398.5,-300 369.31,-274.34 367.34,-224.83 368.74,-197.77"/>
<polygon fill="midnightblue" stroke="midnightblue" points="372.23,-197.92 369.47,-187.69 365.25,-197.41 372.23,-197.92"/>
</g>
<!-- Node23 -->
<g id="node23" class="node">
<title>Node23</title>
<g id="a_node23"><a xlink:href="asfproperties_8h.html" target="_top" xlink:title=" ">
<polygon fill="white" stroke="black" points="946.5,-168.5 946.5,-187.5 1036.5,-187.5 1036.5,-168.5 946.5,-168.5"/>
<text text-anchor="middle" x="991.5" y="-175.5" font-family="Helvetica,sans-Serif" font-size="10.00">asfproperties.h</text>
</a>
</g>
</g>
<!-- Node1&#45;&gt;Node23 -->
<g id="edge37" class="edge">
<title>Node1&#45;&gt;Node23</title>
<path fill="none" stroke="midnightblue" d="M860.92,-336.08C883.11,-309.38 949.21,-229.87 977.93,-195.32"/>
<polygon fill="midnightblue" stroke="midnightblue" points="980.68,-197.5 984.38,-187.57 975.29,-193.02 980.68,-197.5"/>
</g>
<!-- Node25 -->
<g id="node25" class="node">
<title>Node25</title>
<g id="a_node25"><a xlink:href="asftag_8h.html" target="_top" xlink:title=" ">
<polygon fill="white" stroke="black" points="407.5,-280.5 407.5,-299.5 463.5,-299.5 463.5,-280.5 407.5,-280.5"/>
<text text-anchor="middle" x="435.5" y="-287.5" font-family="Helvetica,sans-Serif" font-size="10.00">asftag.h</text>
</a>
</g>
</g>
<!-- Node1&#45;&gt;Node25 -->
<g id="edge44" class="edge">
<title>Node1&#45;&gt;Node25</title>
<path fill="none" stroke="midnightblue" d="M825.42,-341.37C752.49,-331.95 556.92,-306.69 473.76,-295.94"/>
<polygon fill="midnightblue" stroke="midnightblue" points="474.09,-292.46 463.73,-294.65 473.2,-299.4 474.09,-292.46"/>
</g>
<!-- Node3 -->
<g id="node3" class="node">
<title>Node3</title>
<g id="a_node3"><a xlink:href="tbytevector_8h.html" target="_top" xlink:title=" ">
<polygon fill="white" stroke="black" points="442,-56.5 442,-75.5 523,-75.5 523,-56.5 442,-56.5"/>
<text text-anchor="middle" x="482.5" y="-63.5" font-family="Helvetica,sans-Serif" font-size="10.00">tbytevector.h</text>
</a>
</g>
</g>
<!-- Node2&#45;&gt;Node3 -->
<g id="edge2" class="edge">
<title>Node2&#45;&gt;Node3</title>
<path fill="none" stroke="midnightblue" d="M831.1,-231.8C771.23,-228.25 609,-216.2 564.5,-188 525.33,-163.18 500.3,-112.14 489.18,-84.96"/>
<polygon fill="midnightblue" stroke="midnightblue" points="492.39,-83.55 485.49,-75.51 485.87,-86.1 492.39,-83.55"/>
</g>
<!-- Node2&#45;&gt;Node7 -->
<g id="edge12" class="edge">
<title>Node2&#45;&gt;Node7</title>
<path fill="none" stroke="midnightblue" d="M861.71,-224.26C879.67,-204.03 919.36,-152.57 899.5,-112 878.72,-69.54 830.53,-39.79 799.02,-24.05"/>
<polygon fill="midnightblue" stroke="midnightblue" points="800.35,-20.8 789.82,-19.61 797.31,-27.11 800.35,-20.8"/>
</g>
<!-- Node8 -->
<g id="node8" class="node">
<title>Node8</title>
<g id="a_node8"><a xlink:href="tiostream_8h.html" target="_top" xlink:title=" ">
<polygon fill="white" stroke="black" points="817,-112.5 817,-131.5 890,-131.5 890,-112.5 817,-112.5"/>
<text text-anchor="middle" x="853.5" y="-119.5" font-family="Helvetica,sans-Serif" font-size="10.00">tiostream.h</text>
</a>
</g>
</g>
<!-- Node2&#45;&gt;Node8 -->
<g id="edge7" class="edge">
<title>Node2&#45;&gt;Node8</title>
<path fill="none" stroke="midnightblue" d="M853.5,-224.37C853.5,-206.62 853.5,-165.67 853.5,-141.6"/>
<polygon fill="midnightblue" stroke="midnightblue" points="857,-141.59 853.5,-131.59 850,-141.59 857,-141.59"/>
</g>
<!-- Node9 -->
<g id="node9" class="node">
<title>Node9</title>
<g id="a_node9"><a xlink:href="taglib_8h.html" target="_top" xlink:title=" ">
<polygon fill="white" stroke="black" points="1023,-56.5 1023,-75.5 1076,-75.5 1076,-56.5 1023,-56.5"/>
<text text-anchor="middle" x="1049.5" y="-63.5" font-family="Helvetica,sans-Serif" font-size="10.00">taglib.h</text>
</a>
</g>
</g>
<!-- Node2&#45;&gt;Node9 -->
<g id="edge13" class="edge">
<title>Node2&#45;&gt;Node9</title>
<path fill="none" stroke="midnightblue" d="M875.53,-232.1C912.97,-229.69 990.31,-220.79 1045.5,-188 1080.26,-167.35 1111.18,-149.27 1095.5,-112 1090.47,-100.05 1080.56,-89.69 1071.21,-81.93"/>
<polygon fill="midnightblue" stroke="midnightblue" points="1073.34,-79.15 1063.29,-75.81 1069.06,-84.69 1073.34,-79.15"/>
</g>
<!-- Node2&#45;&gt;Node11 -->
<g id="edge14" class="edge">
<title>Node2&#45;&gt;Node11</title>
<path fill="none" stroke="midnightblue" d="M831.49,-230.54C753.64,-221.84 491.13,-192.49 401.1,-182.42"/>
<polygon fill="midnightblue" stroke="midnightblue" points="401.33,-178.92 391,-181.29 400.55,-185.88 401.33,-178.92"/>
</g>
<!-- Node4 -->
<g id="node4" class="node">
<title>Node4</title>
<g id="a_node4"><a xlink:title=" ">
<polygon fill="white" stroke="#bfbfbf" points="419.5,-0.5 419.5,-19.5 477.5,-19.5 477.5,-0.5 419.5,-0.5"/>
<text text-anchor="middle" x="448.5" y="-7.5" font-family="Helvetica,sans-Serif" font-size="10.00">memory</text>
</a>
</g>
</g>
<!-- Node3&#45;&gt;Node4 -->
<g id="edge3" class="edge">
<title>Node3&#45;&gt;Node4</title>
<path fill="none" stroke="midnightblue" d="M476.89,-56.08C472.13,-48.53 465.18,-37.49 459.35,-28.23"/>
<polygon fill="midnightblue" stroke="midnightblue" points="462.3,-26.35 454.01,-19.75 456.38,-30.08 462.3,-26.35"/>
</g>
<!-- Node5 -->
<g id="node5" class="node">
<title>Node5</title>
<g id="a_node5"><a xlink:title=" ">
<polygon fill="white" stroke="#bfbfbf" points="562,-0.5 562,-19.5 609,-19.5 609,-0.5 562,-0.5"/>
<text text-anchor="middle" x="585.5" y="-7.5" font-family="Helvetica,sans-Serif" font-size="10.00">vector</text>
</a>
</g>
</g>
<!-- Node3&#45;&gt;Node5 -->
<g id="edge4" class="edge">
<title>Node3&#45;&gt;Node5</title>
<path fill="none" stroke="midnightblue" d="M499.05,-56.32C515.49,-47.7 540.93,-34.36 559.97,-24.39"/>
<polygon fill="midnightblue" stroke="midnightblue" points="561.76,-27.4 568.99,-19.65 558.51,-21.2 561.76,-27.4"/>
</g>
<!-- Node6 -->
<g id="node6" class="node">
<title>Node6</title>
<g id="a_node6"><a xlink:title=" ">
<polygon fill="white" stroke="#bfbfbf" points="495.5,-0.5 495.5,-19.5 543.5,-19.5 543.5,-0.5 495.5,-0.5"/>
<text text-anchor="middle" x="519.5" y="-7.5" font-family="Helvetica,sans-Serif" font-size="10.00">iosfwd</text>
</a>
</g>
</g>
<!-- Node3&#45;&gt;Node6 -->
<g id="edge5" class="edge">
<title>Node3&#45;&gt;Node6</title>
<path fill="none" stroke="midnightblue" d="M488.61,-56.08C493.78,-48.53 501.35,-37.49 507.69,-28.23"/>
<polygon fill="midnightblue" stroke="midnightblue" points="510.74,-29.98 513.5,-19.75 504.96,-26.02 510.74,-29.98"/>
</g>
<!-- Node3&#45;&gt;Node7 -->
<g id="edge6" class="edge">
<title>Node3&#45;&gt;Node7</title>
<path fill="none" stroke="midnightblue" d="M523.01,-57.38C573.05,-47.96 658.4,-31.9 714.37,-21.37"/>
<polygon fill="midnightblue" stroke="midnightblue" points="715.29,-24.76 724.47,-19.47 713.99,-17.88 715.29,-24.76"/>
</g>
<!-- Node8&#45;&gt;Node3 -->
<g id="edge8" class="edge">
<title>Node8&#45;&gt;Node3</title>
<path fill="none" stroke="midnightblue" d="M816.91,-115.67C750.3,-105.98 609.14,-85.43 533.27,-74.39"/>
<polygon fill="midnightblue" stroke="midnightblue" points="533.41,-70.87 523.01,-72.9 532.4,-77.8 533.41,-70.87"/>
</g>
<!-- Node8&#45;&gt;Node7 -->
<g id="edge9" class="edge">
<title>Node8&#45;&gt;Node7</title>
<path fill="none" stroke="midnightblue" d="M846.91,-112.37C832.98,-94.14 800.37,-51.43 782.23,-27.68"/>
<polygon fill="midnightblue" stroke="midnightblue" points="784.91,-25.41 776.06,-19.59 779.35,-29.66 784.91,-25.41"/>
</g>
<!-- Node8&#45;&gt;Node9 -->
<g id="edge10" class="edge">
<title>Node8&#45;&gt;Node9</title>
<path fill="none" stroke="midnightblue" d="M884.56,-112.44C919.48,-102.82 976.14,-87.21 1013.12,-77.02"/>
<polygon fill="midnightblue" stroke="midnightblue" points="1014.28,-80.33 1022.99,-74.3 1012.42,-73.59 1014.28,-80.33"/>
</g>
<!-- Node10 -->
<g id="node10" class="node">
<title>Node10</title>
<g id="a_node10"><a xlink:title=" ">
<polygon fill="white" stroke="#bfbfbf" points="1013.5,-0.5 1013.5,-19.5 1085.5,-19.5 1085.5,-0.5 1013.5,-0.5"/>
<text text-anchor="middle" x="1049.5" y="-7.5" font-family="Helvetica,sans-Serif" font-size="10.00">sys/types.h</text>
</a>
</g>
</g>
<!-- Node9&#45;&gt;Node10 -->
<g id="edge11" class="edge">
<title>Node9&#45;&gt;Node10</title>
<path fill="none" stroke="midnightblue" d="M1049.5,-56.08C1049.5,-49.01 1049.5,-38.86 1049.5,-29.99"/>
<polygon fill="midnightblue" stroke="midnightblue" points="1053,-29.75 1049.5,-19.75 1046,-29.75 1053,-29.75"/>
</g>
<!-- Node11&#45;&gt;Node7 -->
<g id="edge15" class="edge">
<title>Node11&#45;&gt;Node7</title>
<path fill="none" stroke="midnightblue" d="M372.06,-168.5C376.69,-145.9 392.59,-84.19 432.5,-56 455.04,-40.08 624.54,-23.4 714.22,-15.57"/>
<polygon fill="midnightblue" stroke="midnightblue" points="714.56,-19.05 724.22,-14.7 713.96,-12.08 714.56,-19.05"/>
</g>
<!-- Node12 -->
<g id="node12" class="node">
<title>Node12</title>
<g id="a_node12"><a xlink:href="tstring_8h.html" target="_top" xlink:title=" ">
<polygon fill="white" stroke="black" points="665,-112.5 665,-131.5 722,-131.5 722,-112.5 665,-112.5"/>
<text text-anchor="middle" x="693.5" y="-119.5" font-family="Helvetica,sans-Serif" font-size="10.00">tstring.h</text>
</a>
</g>
</g>
<!-- Node11&#45;&gt;Node12 -->
<g id="edge16" class="edge">
<title>Node11&#45;&gt;Node12</title>
<path fill="none" stroke="midnightblue" d="M391.06,-174.36C436.74,-168.36 550.28,-152.77 654.79,-132.22"/>
<polygon fill="midnightblue" stroke="midnightblue" points="655.74,-135.59 664.87,-130.21 654.38,-128.73 655.74,-135.59"/>
</g>
<!-- Node14 -->
<g id="node14" class="node">
<title>Node14</title>
<g id="a_node14"><a xlink:href="tlist_8h.html" target="_top" xlink:title=" ">
<polygon fill="white" stroke="black" points="163.5,-56.5 163.5,-75.5 207.5,-75.5 207.5,-56.5 163.5,-56.5"/>
<text text-anchor="middle" x="185.5" y="-63.5" font-family="Helvetica,sans-Serif" font-size="10.00">tlist.h</text>
</a>
</g>
</g>
<!-- Node11&#45;&gt;Node14 -->
<g id="edge20" class="edge">
<title>Node11&#45;&gt;Node14</title>
<path fill="none" stroke="midnightblue" d="M351.49,-168.42C333,-159.86 304.29,-146 280.5,-132 253.44,-116.08 223.81,-95.22 204.96,-81.47"/>
<polygon fill="midnightblue" stroke="midnightblue" points="207,-78.63 196.87,-75.53 202.85,-84.27 207,-78.63"/>
</g>
<!-- Node18 -->
<g id="node18" class="node">
<title>Node18</title>
<g id="a_node18"><a xlink:href="tvariant_8h.html" target="_top" xlink:title=" ">
<polygon fill="white" stroke="black" points="289.5,-112.5 289.5,-131.5 353.5,-131.5 353.5,-112.5 289.5,-112.5"/>
<text text-anchor="middle" x="321.5" y="-119.5" font-family="Helvetica,sans-Serif" font-size="10.00">tvariant.h</text>
</a>
</g>
</g>
<!-- Node11&#45;&gt;Node18 -->
<g id="edge25" class="edge">
<title>Node11&#45;&gt;Node18</title>
<path fill="none" stroke="midnightblue" d="M362.41,-168.08C355.34,-160.3 344.91,-148.8 336.35,-139.37"/>
<polygon fill="midnightblue" stroke="midnightblue" points="338.75,-136.8 329.44,-131.75 333.57,-141.51 338.75,-136.8"/>
</g>
<!-- Node12&#45;&gt;Node3 -->
<g id="edge18" class="edge">
<title>Node12&#45;&gt;Node3</title>
<path fill="none" stroke="midnightblue" d="M664.6,-113.6C628.74,-104.43 567.24,-88.69 525.74,-78.07"/>
<polygon fill="midnightblue" stroke="midnightblue" points="526.47,-74.64 515.91,-75.55 524.73,-81.42 526.47,-74.64"/>
</g>
<!-- Node12&#45;&gt;Node7 -->
<g id="edge19" class="edge">
<title>Node12&#45;&gt;Node7</title>
<path fill="none" stroke="midnightblue" d="M698.94,-112.5C706.97,-100 722.58,-75.98 736.5,-56 743.09,-46.54 750.68,-36.16 756.92,-27.75"/>
<polygon fill="midnightblue" stroke="midnightblue" points="759.87,-29.65 763.05,-19.54 754.26,-25.46 759.87,-29.65"/>
</g>
<!-- Node13 -->
<g id="node13" class="node">
<title>Node13</title>
<g id="a_node13"><a xlink:title=" ">
<polygon fill="white" stroke="#bfbfbf" points="640.5,-56.5 640.5,-75.5 684.5,-75.5 684.5,-56.5 640.5,-56.5"/>
<text text-anchor="middle" x="662.5" y="-63.5" font-family="Helvetica,sans-Serif" font-size="10.00">string</text>
</a>
</g>
</g>
<!-- Node12&#45;&gt;Node13 -->
<g id="edge17" class="edge">
<title>Node12&#45;&gt;Node13</title>
<path fill="none" stroke="midnightblue" d="M688.38,-112.08C684.09,-104.61 677.84,-93.72 672.56,-84.52"/>
<polygon fill="midnightblue" stroke="midnightblue" points="675.54,-82.68 667.52,-75.75 669.47,-86.17 675.54,-82.68"/>
</g>
<!-- Node14&#45;&gt;Node4 -->
<g id="edge23" class="edge">
<title>Node14&#45;&gt;Node4</title>
<path fill="none" stroke="midnightblue" d="M207.88,-60.4C214.81,-58.98 222.47,-57.42 229.5,-56 306.76,-40.42 328.67,-37.66 409.34,-20.19"/>
<polygon fill="midnightblue" stroke="midnightblue" points="410.45,-23.53 419.48,-17.99 408.96,-16.69 410.45,-23.53"/>
</g>
<!-- Node15 -->
<g id="node15" class="node">
<title>Node15</title>
<g id="a_node15"><a xlink:title=" ">
<polygon fill="white" stroke="#bfbfbf" points="71.5,-0.5 71.5,-19.5 103.5,-19.5 103.5,-0.5 71.5,-0.5"/>
<text text-anchor="middle" x="87.5" y="-7.5" font-family="Helvetica,sans-Serif" font-size="10.00">list</text>
</a>
</g>
</g>
<!-- Node14&#45;&gt;Node15 -->
<g id="edge21" class="edge">
<title>Node14&#45;&gt;Node15</title>
<path fill="none" stroke="midnightblue" d="M169.75,-56.32C154.18,-47.74 130.12,-34.49 112.04,-24.52"/>
<polygon fill="midnightblue" stroke="midnightblue" points="113.65,-21.42 103.21,-19.65 110.28,-27.55 113.65,-21.42"/>
</g>
<!-- Node16 -->
<g id="node16" class="node">
<title>Node16</title>
<g id="a_node16"><a xlink:title=" ">
<polygon fill="white" stroke="#bfbfbf" points="122,-0.5 122,-19.5 205,-19.5 205,-0.5 122,-0.5"/>
<text text-anchor="middle" x="163.5" y="-7.5" font-family="Helvetica,sans-Serif" font-size="10.00">initializer_list</text>
</a>
</g>
</g>
<!-- Node14&#45;&gt;Node16 -->
<g id="edge22" class="edge">
<title>Node14&#45;&gt;Node16</title>
<path fill="none" stroke="midnightblue" d="M181.87,-56.08C178.89,-48.77 174.57,-38.18 170.88,-29.1"/>
<polygon fill="midnightblue" stroke="midnightblue" points="174.08,-27.69 167.07,-19.75 167.6,-30.33 174.08,-27.69"/>
</g>
<!-- Node17 -->
<g id="node17" class="node">
<title>Node17</title>
<g id="a_node17"><a xlink:title=" ">
<polygon fill="white" stroke="#bfbfbf" points="0,-0.5 0,-19.5 53,-19.5 53,-0.5 0,-0.5"/>
<text text-anchor="middle" x="26.5" y="-7.5" font-family="Helvetica,sans-Serif" font-size="10.00">tlist.tcc</text>
</a>
</g>
</g>
<!-- Node14&#45;&gt;Node17 -->
<g id="edge24" class="edge">
<title>Node14&#45;&gt;Node17</title>
<path fill="none" stroke="midnightblue" d="M163.39,-57.49C136.9,-48.5 92.22,-33.32 61.14,-22.76"/>
<polygon fill="midnightblue" stroke="midnightblue" points="62.16,-19.41 51.56,-19.51 59.91,-26.04 62.16,-19.41"/>
</g>
<!-- Node18&#45;&gt;Node6 -->
<g id="edge26" class="edge">
<title>Node18&#45;&gt;Node6</title>
<path fill="none" stroke="midnightblue" d="M321.74,-112.46C322.6,-98.55 326.39,-71.06 342.5,-56 388.44,-13.06 419.64,-34.42 485.41,-20.04"/>
<polygon fill="midnightblue" stroke="midnightblue" points="486.46,-23.39 495.37,-17.65 484.82,-16.58 486.46,-23.39"/>
</g>
<!-- Node18&#45;&gt;Node7 -->
<g id="edge34" class="edge">
<title>Node18&#45;&gt;Node7</title>
<path fill="none" stroke="midnightblue" d="M326.38,-112.45C335.14,-98.01 355.01,-69.09 380.5,-56 409.52,-41.09 613.73,-23.24 714.09,-15.24"/>
<polygon fill="midnightblue" stroke="midnightblue" points="714.65,-18.71 724.35,-14.43 714.1,-11.73 714.65,-18.71"/>
</g>
<!-- Node18&#45;&gt;Node14 -->
<g id="edge27" class="edge">
<title>Node18&#45;&gt;Node14</title>
<path fill="none" stroke="midnightblue" d="M299.95,-112.44C277.47,-103.52 242.01,-89.44 216.52,-79.32"/>
<polygon fill="midnightblue" stroke="midnightblue" points="217.53,-75.95 206.95,-75.52 214.95,-82.46 217.53,-75.95"/>
</g>
<!-- Node19 -->
<g id="node19" class="node">
<title>Node19</title>
<g id="a_node19"><a xlink:href="tmap_8h.html" target="_top" xlink:title=" ">
<polygon fill="white" stroke="black" points="239,-56.5 239,-75.5 290,-75.5 290,-56.5 239,-56.5"/>
<text text-anchor="middle" x="264.5" y="-63.5" font-family="Helvetica,sans-Serif" font-size="10.00">tmap.h</text>
</a>
</g>
</g>
<!-- Node18&#45;&gt;Node19 -->
<g id="edge28" class="edge">
<title>Node18&#45;&gt;Node19</title>
<path fill="none" stroke="midnightblue" d="M312.34,-112.32C304,-104.42 291.47,-92.55 281.32,-82.94"/>
<polygon fill="midnightblue" stroke="midnightblue" points="283.49,-80.17 273.82,-75.83 278.68,-85.25 283.49,-80.17"/>
</g>
<!-- Node19&#45;&gt;Node4 -->
<g id="edge30" class="edge">
<title>Node19&#45;&gt;Node4</title>
<path fill="none" stroke="midnightblue" d="M290.08,-57.49C321.13,-48.38 373.79,-32.92 409.81,-22.35"/>
<polygon fill="midnightblue" stroke="midnightblue" points="410.89,-25.69 419.5,-19.51 408.92,-18.97 410.89,-25.69"/>
</g>
<!-- Node19&#45;&gt;Node16 -->
<g id="edge31" class="edge">
<title>Node19&#45;&gt;Node16</title>
<path fill="none" stroke="midnightblue" d="M248.27,-56.32C232.15,-47.7 207.2,-34.36 188.54,-24.39"/>
<polygon fill="midnightblue" stroke="midnightblue" points="190.16,-21.28 179.69,-19.65 186.86,-27.46 190.16,-21.28"/>
</g>
<!-- Node20 -->
<g id="node20" class="node">
<title>Node20</title>
<g id="a_node20"><a xlink:title=" ">
<polygon fill="white" stroke="#bfbfbf" points="363.5,-0.5 363.5,-19.5 401.5,-19.5 401.5,-0.5 363.5,-0.5"/>
<text text-anchor="middle" x="382.5" y="-7.5" font-family="Helvetica,sans-Serif" font-size="10.00">map</text>
</a>
</g>
</g>
<!-- Node19&#45;&gt;Node20 -->
<g id="edge29" class="edge">
<title>Node19&#45;&gt;Node20</title>
<path fill="none" stroke="midnightblue" d="M283.2,-56.44C302.44,-47.64 332.65,-33.81 354.7,-23.72"/>
<polygon fill="midnightblue" stroke="midnightblue" points="356.25,-26.86 363.89,-19.52 353.34,-20.5 356.25,-26.86"/>
</g>
<!-- Node21 -->
<g id="node21" class="node">
<title>Node21</title>
<g id="a_node21"><a xlink:title=" ">
<polygon fill="white" stroke="#bfbfbf" points="223,-0.5 223,-19.5 268,-19.5 268,-0.5 223,-0.5"/>
<text text-anchor="middle" x="245.5" y="-7.5" font-family="Helvetica,sans-Serif" font-size="10.00">utility</text>
</a>
</g>
</g>
<!-- Node19&#45;&gt;Node21 -->
<g id="edge32" class="edge">
<title>Node19&#45;&gt;Node21</title>
<path fill="none" stroke="midnightblue" d="M261.36,-56.08C258.82,-48.85 255.14,-38.41 251.97,-29.4"/>
<polygon fill="midnightblue" stroke="midnightblue" points="255.2,-28.02 248.58,-19.75 248.6,-30.35 255.2,-28.02"/>
</g>
<!-- Node22 -->
<g id="node22" class="node">
<title>Node22</title>
<g id="a_node22"><a xlink:title=" ">
<polygon fill="white" stroke="#bfbfbf" points="286,-0.5 286,-19.5 345,-19.5 345,-0.5 286,-0.5"/>
<text text-anchor="middle" x="315.5" y="-7.5" font-family="Helvetica,sans-Serif" font-size="10.00">tmap.tcc</text>
</a>
</g>
</g>
<!-- Node19&#45;&gt;Node22 -->
<g id="edge33" class="edge">
<title>Node19&#45;&gt;Node22</title>
<path fill="none" stroke="midnightblue" d="M272.92,-56.08C280.35,-48.22 291.35,-36.57 300.31,-27.08"/>
<polygon fill="midnightblue" stroke="midnightblue" points="302.91,-29.42 307.24,-19.75 297.82,-24.62 302.91,-29.42"/>
</g>
<!-- Node23&#45;&gt;Node7 -->
<g id="edge39" class="edge">
<title>Node23&#45;&gt;Node7</title>
<path fill="none" stroke="midnightblue" d="M988.3,-168.2C978.99,-143.06 951.38,-71.68 932.5,-56 902.32,-30.92 859.21,-19.76 824.91,-14.83"/>
<polygon fill="midnightblue" stroke="midnightblue" points="824.94,-11.3 814.57,-13.49 824.04,-18.24 824.94,-11.3"/>
</g>
<!-- Node23&#45;&gt;Node12 -->
<g id="edge38" class="edge">
<title>Node23&#45;&gt;Node12</title>
<path fill="none" stroke="midnightblue" d="M946.24,-168.8C887.81,-158.21 787.12,-139.96 732.12,-130"/>
<polygon fill="midnightblue" stroke="midnightblue" points="732.54,-126.52 722.08,-128.18 731.29,-133.41 732.54,-126.52"/>
</g>
<!-- Node24 -->
<g id="node24" class="node">
<title>Node24</title>
<g id="a_node24"><a xlink:href="audioproperties_8h.html" target="_top" xlink:title=" ">
<polygon fill="white" stroke="black" points="984.5,-112.5 984.5,-131.5 1086.5,-131.5 1086.5,-112.5 984.5,-112.5"/>
<text text-anchor="middle" x="1035.5" y="-119.5" font-family="Helvetica,sans-Serif" font-size="10.00">audioproperties.h</text>
</a>
</g>
</g>
<!-- Node23&#45;&gt;Node24 -->
<g id="edge40" class="edge">
<title>Node23&#45;&gt;Node24</title>
<path fill="none" stroke="midnightblue" d="M998.77,-168.08C1005.04,-160.38 1014.29,-149.03 1021.93,-139.65"/>
<polygon fill="midnightblue" stroke="midnightblue" points="1024.77,-141.71 1028.37,-131.75 1019.34,-137.29 1024.77,-141.71"/>
</g>
<!-- Node24&#45;&gt;Node4 -->
<g id="edge41" class="edge">
<title>Node24&#45;&gt;Node4</title>
<path fill="none" stroke="midnightblue" d="M991.81,-112.47C926.83,-99.83 800.83,-75.53 693.5,-56 604.77,-39.85 579.67,-38.82 487.54,-20.11"/>
<polygon fill="midnightblue" stroke="midnightblue" points="488,-16.64 477.51,-18.06 486.6,-23.49 488,-16.64"/>
</g>
<!-- Node24&#45;&gt;Node7 -->
<g id="edge43" class="edge">
<title>Node24&#45;&gt;Node7</title>
<path fill="none" stroke="midnightblue" d="M1029.41,-112.29C1019.04,-98.14 996.51,-70.3 970.5,-56 925.2,-31.09 866.96,-19.96 824.84,-14.99"/>
<polygon fill="midnightblue" stroke="midnightblue" points="825.09,-11.5 814.77,-13.89 824.32,-18.46 825.09,-11.5"/>
</g>
<!-- Node24&#45;&gt;Node9 -->
<g id="edge42" class="edge">
<title>Node24&#45;&gt;Node9</title>
<path fill="none" stroke="midnightblue" d="M1037.81,-112.08C1039.67,-104.93 1042.34,-94.64 1044.65,-85.69"/>
<polygon fill="midnightblue" stroke="midnightblue" points="1048.11,-86.31 1047.23,-75.75 1041.33,-84.55 1048.11,-86.31"/>
</g>
<!-- Node25&#45;&gt;Node7 -->
<g id="edge47" class="edge">
<title>Node25&#45;&gt;Node7</title>
<path fill="none" stroke="midnightblue" d="M439.68,-280.47C453.17,-253.47 497.93,-168.38 552.5,-112 582.43,-81.08 593.05,-75.33 631.5,-56 660.88,-41.23 696.15,-29.82 723.69,-22.19"/>
<polygon fill="midnightblue" stroke="midnightblue" points="724.72,-25.54 733.46,-19.55 722.89,-18.78 724.72,-25.54"/>
</g>
<!-- Node25&#45;&gt;Node11 -->
<g id="edge48" class="edge">
<title>Node25&#45;&gt;Node11</title>
<path fill="none" stroke="midnightblue" d="M430.4,-280.37C419.72,-262.3 394.83,-220.18 380.73,-196.31"/>
<polygon fill="midnightblue" stroke="midnightblue" points="383.68,-194.42 375.58,-187.59 377.65,-197.98 383.68,-194.42"/>
</g>
<!-- Node25&#45;&gt;Node14 -->
<g id="edge45" class="edge">
<title>Node25&#45;&gt;Node14</title>
<path fill="none" stroke="midnightblue" d="M415.66,-280.43C398.14,-272.38 372.38,-259.29 352.5,-244 287.3,-193.85 224.68,-117.6 198.43,-83.96"/>
<polygon fill="midnightblue" stroke="midnightblue" points="200.9,-81.44 192.01,-75.66 195.36,-85.71 200.9,-81.44"/>
</g>
<!-- Node25&#45;&gt;Node19 -->
<g id="edge46" class="edge">
<title>Node25&#45;&gt;Node19</title>
<path fill="none" stroke="midnightblue" d="M423.2,-280.32C393.69,-258.82 318.47,-199.85 280.5,-132 272.43,-117.58 268.39,-99.13 266.39,-85.57"/>
<polygon fill="midnightblue" stroke="midnightblue" points="269.85,-85.02 265.15,-75.53 262.9,-85.88 269.85,-85.02"/>
</g>
<!-- Node26 -->
<g id="node26" class="node">
<title>Node26</title>
<g id="a_node26"><a xlink:href="asfattribute_8h.html" target="_top" xlink:title=" ">
<polygon fill="white" stroke="black" points="569,-224.5 569,-243.5 652,-243.5 652,-224.5 569,-224.5"/>
<text text-anchor="middle" x="610.5" y="-231.5" font-family="Helvetica,sans-Serif" font-size="10.00">asfattribute.h</text>
</a>
</g>
</g>
<!-- Node25&#45;&gt;Node26 -->
<g id="edge49" class="edge">
<title>Node25&#45;&gt;Node26</title>
<path fill="none" stroke="midnightblue" d="M463.23,-280.44C492.93,-271.28 540.22,-256.69 573.17,-246.52"/>
<polygon fill="midnightblue" stroke="midnightblue" points="574.38,-249.81 582.9,-243.52 572.31,-243.12 574.38,-249.81"/>
</g>
<!-- Node26&#45;&gt;Node3 -->
<g id="edge51" class="edge">
<title>Node26&#45;&gt;Node3</title>
<path fill="none" stroke="midnightblue" d="M574.17,-224.45C532.11,-212.23 465.78,-185.12 443.5,-132 436.01,-114.14 450.01,-95.34 463.27,-82.58"/>
<polygon fill="midnightblue" stroke="midnightblue" points="465.71,-85.1 470.83,-75.82 461.04,-79.88 465.71,-85.1"/>
</g>
<!-- Node26&#45;&gt;Node7 -->
<g id="edge52" class="edge">
<title>Node26&#45;&gt;Node7</title>
<path fill="none" stroke="midnightblue" d="M628.86,-224.48C658.79,-209.72 718.22,-176.62 752.5,-132 773.92,-104.11 776.44,-91.11 774.5,-56 774.02,-47.36 773.03,-37.83 772.05,-29.77"/>
<polygon fill="midnightblue" stroke="midnightblue" points="775.49,-29.07 770.74,-19.6 768.55,-29.97 775.49,-29.07"/>
</g>
<!-- Node26&#45;&gt;Node12 -->
<g id="edge50" class="edge">
<title>Node26&#45;&gt;Node12</title>
<path fill="none" stroke="midnightblue" d="M620.82,-224.41C630.72,-215.84 645.72,-201.98 656.5,-188 667.87,-173.25 678.12,-154.62 684.93,-141.09"/>
<polygon fill="midnightblue" stroke="midnightblue" points="688.18,-142.41 689.43,-131.89 681.89,-139.34 688.18,-142.41"/>
</g>
<!-- Node27 -->
<g id="node27" class="node">
<title>Node27</title>
<g id="a_node27"><a xlink:href="asfpicture_8h.html" target="_top" xlink:title=" ">
<polygon fill="white" stroke="black" points="573.5,-168.5 573.5,-187.5 647.5,-187.5 647.5,-168.5 573.5,-168.5"/>
<text text-anchor="middle" x="610.5" y="-175.5" font-family="Helvetica,sans-Serif" font-size="10.00">asfpicture.h</text>
</a>
</g>
</g>
<!-- Node26&#45;&gt;Node27 -->
<g id="edge53" class="edge">
<title>Node26&#45;&gt;Node27</title>
<path fill="none" stroke="midnightblue" d="M610.5,-224.08C610.5,-217.01 610.5,-206.86 610.5,-197.99"/>
<polygon fill="midnightblue" stroke="midnightblue" points="614,-197.75 610.5,-187.75 607,-197.75 614,-197.75"/>
</g>
<!-- Node27&#45;&gt;Node3 -->
<g id="edge55" class="edge">
<title>Node27&#45;&gt;Node3</title>
<path fill="none" stroke="midnightblue" d="M598.71,-168.33C586.81,-159.48 568.04,-145.2 552.5,-132 533.48,-115.85 512.64,-96.23 498.68,-82.79"/>
<polygon fill="midnightblue" stroke="midnightblue" points="500.95,-80.12 491.33,-75.68 496.08,-85.15 500.95,-80.12"/>
</g>
<!-- Node27&#45;&gt;Node7 -->
<g id="edge57" class="edge">
<title>Node27&#45;&gt;Node7</title>
<path fill="none" stroke="midnightblue" d="M647.51,-172.02C674.26,-166.56 709.43,-155.24 731.5,-132 758.57,-103.49 766.37,-55.88 768.6,-29.69"/>
<polygon fill="midnightblue" stroke="midnightblue" points="772.1,-29.81 769.28,-19.6 765.12,-29.34 772.1,-29.81"/>
</g>
<!-- Node27&#45;&gt;Node12 -->
<g id="edge54" class="edge">
<title>Node27&#45;&gt;Node12</title>
<path fill="none" stroke="midnightblue" d="M623.84,-168.32C636.66,-159.98 656.28,-147.21 671.44,-137.35"/>
<polygon fill="midnightblue" stroke="midnightblue" points="673.72,-140.04 680.2,-131.65 669.91,-134.17 673.72,-140.04"/>
</g>
<!-- Node28 -->
<g id="node28" class="node">
<title>Node28</title>
<g id="a_node28"><a xlink:href="tpicturetype_8h.html" target="_top" xlink:title=" ">
<polygon fill="white" stroke="black" points="562,-112.5 562,-131.5 647,-131.5 647,-112.5 562,-112.5"/>
<text text-anchor="middle" x="604.5" y="-119.5" font-family="Helvetica,sans-Serif" font-size="10.00">tpicturetype.h</text>
</a>
</g>
</g>
<!-- Node27&#45;&gt;Node28 -->
<g id="edge56" class="edge">
<title>Node27&#45;&gt;Node28</title>
<path fill="none" stroke="midnightblue" d="M609.51,-168.08C608.71,-160.93 607.57,-150.64 606.58,-141.69"/>
<polygon fill="midnightblue" stroke="midnightblue" points="610.06,-141.3 605.47,-131.75 603.1,-142.08 610.06,-141.3"/>
</g>
</g>
</svg>
