<?xml version="1.0" encoding="UTF-8" standalone="no"?>
<!DOCTYPE svg PUBLIC "-//W3C//DTD SVG 1.1//EN"
 "http://www.w3.org/Graphics/SVG/1.1/DTD/svg11.dtd">
<!-- Generated by graphviz version 2.42.4 (0)
 -->
<!-- Title: asffile.h Pages: 1 -->
<svg width="1161pt" height="357pt"
 viewBox="0.00 0.00 1160.50 357.00" xmlns="http://www.w3.org/2000/svg" xmlns:xlink="http://www.w3.org/1999/xlink">
<g id="graph0" class="graph" transform="scale(1 1) rotate(0) translate(4 353)">
<title>asffile.h</title>
<!-- Node1 -->
<g id="Node000001" class="node">
<title>Node1</title>
<g id="a_Node000001"><a xlink:title=" ">
<polygon fill="#999999" stroke="#666666" points="881.5,-349 825.5,-349 825.5,-330 881.5,-330 881.5,-349"/>
<text text-anchor="middle" x="853.5" y="-337" font-family="Helvetica,sans-Serif" font-size="10.00">asffile.h</text>
</a>
</g>
</g>
<!-- Node2 -->
<g id="Node000002" class="node">
<title>Node2</title>
<g id="a_Node000002"><a xlink:href="tfile_8h.html" target="_top" xlink:title=" ">
<polygon fill="white" stroke="#666666" points="875.5,-239 831.5,-239 831.5,-220 875.5,-220 875.5,-239"/>
<text text-anchor="middle" x="853.5" y="-227" font-family="Helvetica,sans-Serif" font-size="10.00">tfile.h</text>
</a>
</g>
</g>
<!-- Node1&#45;&gt;Node2 -->
<g id="edge1_Node000001_Node000002" class="edge">
<title>Node1&#45;&gt;Node2</title>
<g id="a_edge1_Node000001_Node000002"><a xlink:title=" ">
<path fill="none" stroke="#63b8ff" d="M853.5,-329.66C853.5,-312.17 853.5,-272.8 853.5,-249.27"/>
<polygon fill="#63b8ff" stroke="#63b8ff" points="857,-249.16 853.5,-239.16 850,-249.16 857,-249.16"/>
</a>
</g>
</g>
<!-- Node7 -->
<g id="Node000007" class="node">
<title>Node7</title>
<g id="a_Node000007"><a xlink:href="taglib__export_8h.html" target="_top" xlink:title=" ">
<polygon fill="white" stroke="#666666" points="814.5,-19 724.5,-19 724.5,0 814.5,0 814.5,-19"/>
<text text-anchor="middle" x="769.5" y="-7" font-family="Helvetica,sans-Serif" font-size="10.00">taglib_export.h</text>
</a>
</g>
</g>
<!-- Node1&#45;&gt;Node7 -->
<g id="edge35_Node000001_Node000007" class="edge">
<title>Node1&#45;&gt;Node7</title>
<g id="a_edge35_Node000001_Node000007"><a xlink:title=" ">
<path fill="none" stroke="#63b8ff" d="M881.63,-334.51C956.06,-323.15 1152.5,-287.76 1152.5,-230.5 1152.5,-230.5 1152.5,-230.5 1152.5,-118.5 1152.5,-77.47 1122.46,-72.82 1085.5,-55 1040.6,-33.36 902.73,-20.15 824.74,-14.22"/>
<polygon fill="#63b8ff" stroke="#63b8ff" points="824.85,-10.72 814.61,-13.46 824.33,-17.7 824.85,-10.72"/>
</a>
</g>
</g>
<!-- Node11 -->
<g id="Node000011" class="node">
<title>Node11</title>
<g id="a_Node000011"><a xlink:href="tag_8h.html" target="_top" xlink:title=" ">
<polygon fill="white" stroke="#666666" points="391,-184 350,-184 350,-165 391,-165 391,-184"/>
<text text-anchor="middle" x="370.5" y="-172" font-family="Helvetica,sans-Serif" font-size="10.00">tag.h</text>
</a>
</g>
</g>
<!-- Node1&#45;&gt;Node11 -->
<g id="edge36_Node000001_Node000011" class="edge">
<title>Node1&#45;&gt;Node11</title>
<g id="a_edge36_Node000001_Node000011"><a xlink:title=" ">
<path fill="none" stroke="#63b8ff" d="M825.36,-337.62C731.11,-334.44 430.7,-322.14 398.5,-294 369.93,-269.04 367.66,-220.85 368.85,-194.26"/>
<polygon fill="#63b8ff" stroke="#63b8ff" points="372.36,-194.23 369.53,-184.02 365.38,-193.76 372.36,-194.23"/>
</a>
</g>
</g>
<!-- Node23 -->
<g id="Node000023" class="node">
<title>Node23</title>
<g id="a_Node000023"><a xlink:href="asfproperties_8h.html" target="_top" xlink:title=" ">
<polygon fill="white" stroke="#666666" points="1036.5,-184 946.5,-184 946.5,-165 1036.5,-165 1036.5,-184"/>
<text text-anchor="middle" x="991.5" y="-172" font-family="Helvetica,sans-Serif" font-size="10.00">asfproperties.h</text>
</a>
</g>
</g>
<!-- Node1&#45;&gt;Node23 -->
<g id="edge37_Node000001_Node000023" class="edge">
<title>Node1&#45;&gt;Node23</title>
<g id="a_edge37_Node000001_Node000023"><a xlink:title=" ">
<path fill="none" stroke="#63b8ff" d="M860.92,-329.74C883.01,-303.65 948.6,-226.17 977.53,-192"/>
<polygon fill="#63b8ff" stroke="#63b8ff" points="980.25,-194.2 984.04,-184.31 974.91,-189.68 980.25,-194.2"/>
</a>
</g>
</g>
<!-- Node25 -->
<g id="Node000025" class="node">
<title>Node25</title>
<g id="a_Node000025"><a xlink:href="asftag_8h.html" target="_top" xlink:title=" ">
<polygon fill="white" stroke="#666666" points="463.5,-294 407.5,-294 407.5,-275 463.5,-275 463.5,-294"/>
<text text-anchor="middle" x="435.5" y="-282" font-family="Helvetica,sans-Serif" font-size="10.00">asftag.h</text>
</a>
</g>
</g>
<!-- Node1&#45;&gt;Node25 -->
<g id="edge44_Node000001_Node000025" class="edge">
<title>Node1&#45;&gt;Node25</title>
<g id="a_edge44_Node000001_Node000025"><a xlink:title=" ">
<path fill="none" stroke="#63b8ff" d="M825.42,-334.94C752.49,-325.69 556.92,-300.89 473.76,-290.35"/>
<polygon fill="#63b8ff" stroke="#63b8ff" points="474.09,-286.86 463.73,-289.08 473.21,-293.81 474.09,-286.86"/>
</a>
</g>
</g>
<!-- Node3 -->
<g id="Node000003" class="node">
<title>Node3</title>
<g id="a_Node000003"><a xlink:href="tbytevector_8h.html" target="_top" xlink:title=" ">
<polygon fill="white" stroke="#666666" points="523,-74 442,-74 442,-55 523,-55 523,-74"/>
<text text-anchor="middle" x="482.5" y="-62" font-family="Helvetica,sans-Serif" font-size="10.00">tbytevector.h</text>
</a>
</g>
</g>
<!-- Node2&#45;&gt;Node3 -->
<g id="edge2_Node000002_Node000003" class="edge">
<title>Node2&#45;&gt;Node3</title>
<g id="a_edge2_Node000002_Node000003"><a xlink:title=" ">
<path fill="none" stroke="#63b8ff" d="M831.12,-227.32C771.29,-223.82 609.15,-211.94 564.5,-184 525.93,-159.87 500.78,-110.22 489.44,-83.49"/>
<polygon fill="#63b8ff" stroke="#63b8ff" points="492.67,-82.12 485.66,-74.17 486.18,-84.75 492.67,-82.12"/>
</a>
</g>
</g>
<!-- Node2&#45;&gt;Node7 -->
<g id="edge12_Node000002_Node000007" class="edge">
<title>Node2&#45;&gt;Node7</title>
<g id="a_edge12_Node000002_Node000007"><a xlink:title=" ">
<path fill="none" stroke="#63b8ff" d="M861.68,-219.95C879.58,-200.14 919.14,-149.77 899.5,-110 878.74,-67.97 830.77,-38.8 799.26,-23.36"/>
<polygon fill="#63b8ff" stroke="#63b8ff" points="800.6,-20.12 790.07,-19.01 797.61,-26.45 800.6,-20.12"/>
</a>
</g>
</g>
<!-- Node8 -->
<g id="Node000008" class="node">
<title>Node8</title>
<g id="a_Node000008"><a xlink:href="tiostream_8h.html" target="_top" xlink:title=" ">
<polygon fill="white" stroke="#666666" points="890,-129 817,-129 817,-110 890,-110 890,-129"/>
<text text-anchor="middle" x="853.5" y="-117" font-family="Helvetica,sans-Serif" font-size="10.00">tiostream.h</text>
</a>
</g>
</g>
<!-- Node2&#45;&gt;Node8 -->
<g id="edge7_Node000002_Node000008" class="edge">
<title>Node2&#45;&gt;Node8</title>
<g id="a_edge7_Node000002_Node000008"><a xlink:title=" ">
<path fill="none" stroke="#63b8ff" d="M853.5,-219.66C853.5,-202.17 853.5,-162.8 853.5,-139.27"/>
<polygon fill="#63b8ff" stroke="#63b8ff" points="857,-139.16 853.5,-129.16 850,-139.16 857,-139.16"/>
</a>
</g>
</g>
<!-- Node9 -->
<g id="Node000009" class="node">
<title>Node9</title>
<g id="a_Node000009"><a xlink:href="taglib_8h.html" target="_top" xlink:title=" ">
<polygon fill="white" stroke="#666666" points="1076,-74 1023,-74 1023,-55 1076,-55 1076,-74"/>
<text text-anchor="middle" x="1049.5" y="-62" font-family="Helvetica,sans-Serif" font-size="10.00">taglib.h</text>
</a>
</g>
</g>
<!-- Node2&#45;&gt;Node9 -->
<g id="edge13_Node000002_Node000009" class="edge">
<title>Node2&#45;&gt;Node9</title>
<g id="a_edge13_Node000002_Node000009"><a xlink:title=" ">
<path fill="none" stroke="#63b8ff" d="M875.8,-227.6C913.3,-225.19 990.3,-216.37 1045.5,-184 1079.74,-163.92 1110.99,-146.54 1095.5,-110 1090.52,-98.25 1080.75,-88.09 1071.49,-80.45"/>
<polygon fill="#63b8ff" stroke="#63b8ff" points="1073.35,-77.47 1063.28,-74.18 1069.1,-83.03 1073.35,-77.47"/>
</a>
</g>
</g>
<!-- Node2&#45;&gt;Node11 -->
<g id="edge14_Node000002_Node000011" class="edge">
<title>Node2&#45;&gt;Node11</title>
<g id="a_edge14_Node000002_Node000011"><a xlink:title=" ">
<path fill="none" stroke="#63b8ff" d="M831.49,-226.08C753.64,-217.54 491.13,-188.74 401.1,-178.86"/>
<polygon fill="#63b8ff" stroke="#63b8ff" points="401.32,-175.36 391,-177.75 400.56,-182.32 401.32,-175.36"/>
</a>
</g>
</g>
<!-- Node4 -->
<g id="Node000004" class="node">
<title>Node4</title>
<g id="a_Node000004"><a xlink:title=" ">
<polygon fill="#e0e0e0" stroke="#999999" points="477.5,-19 419.5,-19 419.5,0 477.5,0 477.5,-19"/>
<text text-anchor="middle" x="448.5" y="-7" font-family="Helvetica,sans-Serif" font-size="10.00">memory</text>
</a>
</g>
</g>
<!-- Node3&#45;&gt;Node4 -->
<g id="edge3_Node000003_Node000004" class="edge">
<title>Node3&#45;&gt;Node4</title>
<g id="a_edge3_Node000003_Node000004"><a xlink:title=" ">
<path fill="none" stroke="#63b8ff" d="M476.89,-54.75C472.18,-47.42 465.33,-36.73 459.53,-27.7"/>
<polygon fill="#63b8ff" stroke="#63b8ff" points="462.36,-25.62 454.01,-19.09 456.46,-29.4 462.36,-25.62"/>
</a>
</g>
</g>
<!-- Node5 -->
<g id="Node000005" class="node">
<title>Node5</title>
<g id="a_Node000005"><a xlink:title=" ">
<polygon fill="#e0e0e0" stroke="#999999" points="609,-19 562,-19 562,0 609,0 609,-19"/>
<text text-anchor="middle" x="585.5" y="-7" font-family="Helvetica,sans-Serif" font-size="10.00">vector</text>
</a>
</g>
</g>
<!-- Node3&#45;&gt;Node5 -->
<g id="edge4_Node000003_Node000005" class="edge">
<title>Node3&#45;&gt;Node5</title>
<g id="a_edge4_Node000003_Node000005"><a xlink:title=" ">
<path fill="none" stroke="#63b8ff" d="M499.05,-54.98C515.39,-46.57 540.63,-33.59 559.63,-23.81"/>
<polygon fill="#63b8ff" stroke="#63b8ff" points="561.36,-26.86 568.65,-19.17 558.16,-20.63 561.36,-26.86"/>
</a>
</g>
</g>
<!-- Node6 -->
<g id="Node000006" class="node">
<title>Node6</title>
<g id="a_Node000006"><a xlink:title=" ">
<polygon fill="#e0e0e0" stroke="#999999" points="543.5,-19 495.5,-19 495.5,0 543.5,0 543.5,-19"/>
<text text-anchor="middle" x="519.5" y="-7" font-family="Helvetica,sans-Serif" font-size="10.00">iosfwd</text>
</a>
</g>
</g>
<!-- Node3&#45;&gt;Node6 -->
<g id="edge5_Node000003_Node000006" class="edge">
<title>Node3&#45;&gt;Node6</title>
<g id="a_edge5_Node000003_Node000006"><a xlink:title=" ">
<path fill="none" stroke="#63b8ff" d="M488.61,-54.75C493.78,-47.34 501.35,-36.5 507.69,-27.41"/>
<polygon fill="#63b8ff" stroke="#63b8ff" points="510.65,-29.29 513.5,-19.09 504.91,-25.29 510.65,-29.29"/>
</a>
</g>
</g>
<!-- Node3&#45;&gt;Node7 -->
<g id="edge6_Node000003_Node000007" class="edge">
<title>Node3&#45;&gt;Node7</title>
<g id="a_edge6_Node000003_Node000007"><a xlink:title=" ">
<path fill="none" stroke="#63b8ff" d="M523.01,-56.02C573.05,-46.78 658.4,-31.02 714.37,-20.68"/>
<polygon fill="#63b8ff" stroke="#63b8ff" points="715.27,-24.07 724.47,-18.82 714,-17.19 715.27,-24.07"/>
</a>
</g>
</g>
<!-- Node8&#45;&gt;Node3 -->
<g id="edge8_Node000008_Node000003" class="edge">
<title>Node8&#45;&gt;Node3</title>
<g id="a_edge8_Node000008_Node000003"><a xlink:title=" ">
<path fill="none" stroke="#63b8ff" d="M816.91,-113.27C750.3,-103.76 609.14,-83.59 533.27,-72.75"/>
<polygon fill="#63b8ff" stroke="#63b8ff" points="533.4,-69.24 523.01,-71.29 532.41,-76.17 533.4,-69.24"/>
</a>
</g>
</g>
<!-- Node8&#45;&gt;Node7 -->
<g id="edge9_Node000008_Node000007" class="edge">
<title>Node8&#45;&gt;Node7</title>
<g id="a_edge9_Node000008_Node000007"><a xlink:title=" ">
<path fill="none" stroke="#63b8ff" d="M846.63,-109.66C832.59,-91.61 800.44,-50.28 782.39,-27.08"/>
<polygon fill="#63b8ff" stroke="#63b8ff" points="785.14,-24.9 776.23,-19.16 779.61,-29.2 785.14,-24.9"/>
</a>
</g>
</g>
<!-- Node8&#45;&gt;Node9 -->
<g id="edge10_Node000008_Node000009" class="edge">
<title>Node8&#45;&gt;Node9</title>
<g id="a_edge10_Node000008_Node000009"><a xlink:title=" ">
<path fill="none" stroke="#63b8ff" d="M884.99,-109.98C919.91,-100.54 976.15,-85.33 1012.97,-75.38"/>
<polygon fill="#63b8ff" stroke="#63b8ff" points="1014.07,-78.71 1022.81,-72.72 1012.24,-71.95 1014.07,-78.71"/>
</a>
</g>
</g>
<!-- Node10 -->
<g id="Node000010" class="node">
<title>Node10</title>
<g id="a_Node000010"><a xlink:title=" ">
<polygon fill="#e0e0e0" stroke="#999999" points="1085.5,-19 1013.5,-19 1013.5,0 1085.5,0 1085.5,-19"/>
<text text-anchor="middle" x="1049.5" y="-7" font-family="Helvetica,sans-Serif" font-size="10.00">sys/types.h</text>
</a>
</g>
</g>
<!-- Node9&#45;&gt;Node10 -->
<g id="edge11_Node000009_Node000010" class="edge">
<title>Node9&#45;&gt;Node10</title>
<g id="a_edge11_Node000009_Node000010"><a xlink:title=" ">
<path fill="none" stroke="#63b8ff" d="M1049.5,-54.75C1049.5,-47.8 1049.5,-37.85 1049.5,-29.13"/>
<polygon fill="#63b8ff" stroke="#63b8ff" points="1053,-29.09 1049.5,-19.09 1046,-29.09 1053,-29.09"/>
</a>
</g>
</g>
<!-- Node11&#45;&gt;Node7 -->
<g id="edge15_Node000011_Node000007" class="edge">
<title>Node11&#45;&gt;Node7</title>
<g id="a_edge15_Node000011_Node000007"><a xlink:title=" ">
<path fill="none" stroke="#63b8ff" d="M372.18,-164.84C377.04,-142.44 393.3,-82.4 432.5,-55 455.12,-39.19 624.58,-22.73 714.24,-15.01"/>
<polygon fill="#63b8ff" stroke="#63b8ff" points="714.57,-18.49 724.24,-14.15 713.98,-11.52 714.57,-18.49"/>
</a>
</g>
</g>
<!-- Node12 -->
<g id="Node000012" class="node">
<title>Node12</title>
<g id="a_Node000012"><a xlink:href="tstring_8h.html" target="_top" xlink:title=" ">
<polygon fill="white" stroke="#666666" points="722,-129 665,-129 665,-110 722,-110 722,-129"/>
<text text-anchor="middle" x="693.5" y="-117" font-family="Helvetica,sans-Serif" font-size="10.00">tstring.h</text>
</a>
</g>
</g>
<!-- Node11&#45;&gt;Node12 -->
<g id="edge16_Node000011_Node000012" class="edge">
<title>Node11&#45;&gt;Node12</title>
<g id="a_edge16_Node000011_Node000012"><a xlink:title=" ">
<path fill="none" stroke="#63b8ff" d="M391.05,-170.82C436.69,-164.75 550.17,-149.06 654.77,-129.22"/>
<polygon fill="#63b8ff" stroke="#63b8ff" points="655.7,-132.61 664.86,-127.29 654.38,-125.74 655.7,-132.61"/>
</a>
</g>
</g>
<!-- Node14 -->
<g id="Node000014" class="node">
<title>Node14</title>
<g id="a_Node000014"><a xlink:href="tlist_8h.html" target="_top" xlink:title=" ">
<polygon fill="white" stroke="#666666" points="207.5,-74 163.5,-74 163.5,-55 207.5,-55 207.5,-74"/>
<text text-anchor="middle" x="185.5" y="-62" font-family="Helvetica,sans-Serif" font-size="10.00">tlist.h</text>
</a>
</g>
</g>
<!-- Node11&#45;&gt;Node14 -->
<g id="edge20_Node000011_Node000014" class="edge">
<title>Node11&#45;&gt;Node14</title>
<g id="a_edge20_Node000011_Node000014"><a xlink:title=" ">
<path fill="none" stroke="#63b8ff" d="M351.51,-164.99C333.04,-156.5 304.34,-142.78 280.5,-129 253.79,-113.55 224.46,-93.44 205.56,-80.02"/>
<polygon fill="#63b8ff" stroke="#63b8ff" points="207.35,-77 197.18,-74.03 203.28,-82.69 207.35,-77"/>
</a>
</g>
</g>
<!-- Node18 -->
<g id="Node000018" class="node">
<title>Node18</title>
<g id="a_Node000018"><a xlink:href="tvariant_8h.html" target="_top" xlink:title=" ">
<polygon fill="white" stroke="#666666" points="353.5,-129 289.5,-129 289.5,-110 353.5,-110 353.5,-129"/>
<text text-anchor="middle" x="321.5" y="-117" font-family="Helvetica,sans-Serif" font-size="10.00">tvariant.h</text>
</a>
</g>
</g>
<!-- Node11&#45;&gt;Node18 -->
<g id="edge25_Node000011_Node000018" class="edge">
<title>Node11&#45;&gt;Node18</title>
<g id="a_edge25_Node000011_Node000018"><a xlink:title=" ">
<path fill="none" stroke="#63b8ff" d="M362.41,-164.75C355.34,-157.11 344.91,-145.82 336.35,-136.56"/>
<polygon fill="#63b8ff" stroke="#63b8ff" points="338.8,-134.06 329.44,-129.09 333.66,-138.81 338.8,-134.06"/>
</a>
</g>
</g>
<!-- Node12&#45;&gt;Node3 -->
<g id="edge18_Node000012_Node000003" class="edge">
<title>Node12&#45;&gt;Node3</title>
<g id="a_edge18_Node000012_Node000003"><a xlink:title=" ">
<path fill="none" stroke="#63b8ff" d="M664.6,-111.24C628.94,-102.28 567.95,-86.96 526.47,-76.54"/>
<polygon fill="#63b8ff" stroke="#63b8ff" points="527.18,-73.11 516.63,-74.07 525.48,-79.9 527.18,-73.11"/>
</a>
</g>
</g>
<!-- Node12&#45;&gt;Node7 -->
<g id="edge19_Node000012_Node000007" class="edge">
<title>Node12&#45;&gt;Node7</title>
<g id="a_edge19_Node000012_Node000007"><a xlink:title=" ">
<path fill="none" stroke="#63b8ff" d="M699.23,-109.79C707.36,-97.48 722.79,-74.33 736.5,-55 743.04,-45.78 750.52,-35.65 756.71,-27.39"/>
<polygon fill="#63b8ff" stroke="#63b8ff" points="759.59,-29.38 762.81,-19.28 754,-25.17 759.59,-29.38"/>
</a>
</g>
</g>
<!-- Node13 -->
<g id="Node000013" class="node">
<title>Node13</title>
<g id="a_Node000013"><a xlink:title=" ">
<polygon fill="#e0e0e0" stroke="#999999" points="684.5,-74 640.5,-74 640.5,-55 684.5,-55 684.5,-74"/>
<text text-anchor="middle" x="662.5" y="-62" font-family="Helvetica,sans-Serif" font-size="10.00">string</text>
</a>
</g>
</g>
<!-- Node12&#45;&gt;Node13 -->
<g id="edge17_Node000012_Node000013" class="edge">
<title>Node12&#45;&gt;Node13</title>
<g id="a_edge17_Node000012_Node000013"><a xlink:title=" ">
<path fill="none" stroke="#63b8ff" d="M688.38,-109.75C684.14,-102.49 677.97,-91.95 672.72,-82.98"/>
<polygon fill="#63b8ff" stroke="#63b8ff" points="675.59,-80.95 667.52,-74.09 669.55,-84.49 675.59,-80.95"/>
</a>
</g>
</g>
<!-- Node14&#45;&gt;Node4 -->
<g id="edge23_Node000014_Node000004" class="edge">
<title>Node14&#45;&gt;Node4</title>
<g id="a_edge23_Node000014_Node000004"><a xlink:title=" ">
<path fill="none" stroke="#63b8ff" d="M207.86,-59.15C253.55,-50.25 357.09,-30.03 409.42,-19.17"/>
<polygon fill="#63b8ff" stroke="#63b8ff" points="410.4,-22.55 419.47,-17.07 408.97,-15.69 410.4,-22.55"/>
</a>
</g>
</g>
<!-- Node15 -->
<g id="Node000015" class="node">
<title>Node15</title>
<g id="a_Node000015"><a xlink:title=" ">
<polygon fill="#e0e0e0" stroke="#999999" points="103.5,-19 71.5,-19 71.5,0 103.5,0 103.5,-19"/>
<text text-anchor="middle" x="87.5" y="-7" font-family="Helvetica,sans-Serif" font-size="10.00">list</text>
</a>
</g>
</g>
<!-- Node14&#45;&gt;Node15 -->
<g id="edge21_Node000014_Node000015" class="edge">
<title>Node14&#45;&gt;Node15</title>
<g id="a_edge21_Node000014_Node000015"><a xlink:title=" ">
<path fill="none" stroke="#63b8ff" d="M169.75,-54.98C154.27,-46.61 130.41,-33.7 112.36,-23.95"/>
<polygon fill="#63b8ff" stroke="#63b8ff" points="113.99,-20.85 103.53,-19.17 110.66,-27.01 113.99,-20.85"/>
</a>
</g>
</g>
<!-- Node16 -->
<g id="Node000016" class="node">
<title>Node16</title>
<g id="a_Node000016"><a xlink:title=" ">
<polygon fill="#e0e0e0" stroke="#999999" points="205,-19 122,-19 122,0 205,0 205,-19"/>
<text text-anchor="middle" x="163.5" y="-7" font-family="Helvetica,sans-Serif" font-size="10.00">initializer_list</text>
</a>
</g>
</g>
<!-- Node14&#45;&gt;Node16 -->
<g id="edge22_Node000014_Node000016" class="edge">
<title>Node14&#45;&gt;Node16</title>
<g id="a_edge22_Node000014_Node000016"><a xlink:title=" ">
<path fill="none" stroke="#63b8ff" d="M181.87,-54.75C178.92,-47.65 174.67,-37.4 170.99,-28.56"/>
<polygon fill="#63b8ff" stroke="#63b8ff" points="174.13,-26.98 167.07,-19.09 167.67,-29.67 174.13,-26.98"/>
</a>
</g>
</g>
<!-- Node17 -->
<g id="Node000017" class="node">
<title>Node17</title>
<g id="a_Node000017"><a xlink:title=" ">
<polygon fill="#e0e0e0" stroke="#999999" points="53,-19 0,-19 0,0 53,0 53,-19"/>
<text text-anchor="middle" x="26.5" y="-7" font-family="Helvetica,sans-Serif" font-size="10.00">tlist.tcc</text>
</a>
</g>
</g>
<!-- Node14&#45;&gt;Node17 -->
<g id="edge24_Node000014_Node000017" class="edge">
<title>Node14&#45;&gt;Node17</title>
<g id="a_edge24_Node000014_Node000017"><a xlink:title=" ">
<path fill="none" stroke="#63b8ff" d="M163.39,-56.13C137.06,-47.35 92.74,-32.58 61.68,-22.23"/>
<polygon fill="#63b8ff" stroke="#63b8ff" points="62.69,-18.88 52.1,-19.03 60.48,-25.52 62.69,-18.88"/>
</a>
</g>
</g>
<!-- Node18&#45;&gt;Node6 -->
<g id="edge26_Node000018_Node000006" class="edge">
<title>Node18&#45;&gt;Node6</title>
<g id="a_edge26_Node000018_Node000006"><a xlink:title=" ">
<path fill="none" stroke="#63b8ff" d="M321.83,-109.71C322.84,-95.98 326.84,-69.54 342.5,-55 388.58,-12.22 419.55,-33.03 485.38,-19.06"/>
<polygon fill="#63b8ff" stroke="#63b8ff" points="486.41,-22.42 495.35,-16.74 484.82,-15.6 486.41,-22.42"/>
</a>
</g>
</g>
<!-- Node18&#45;&gt;Node7 -->
<g id="edge34_Node000018_Node000007" class="edge">
<title>Node18&#45;&gt;Node7</title>
<g id="a_edge34_Node000018_Node000007"><a xlink:title=" ">
<path fill="none" stroke="#63b8ff" d="M326.72,-109.69C335.69,-95.43 355.52,-67.63 380.5,-55 409.61,-40.28 613.78,-22.62 714.11,-14.7"/>
<polygon fill="#63b8ff" stroke="#63b8ff" points="714.66,-18.17 724.36,-13.9 714.12,-11.19 714.66,-18.17"/>
</a>
</g>
</g>
<!-- Node18&#45;&gt;Node14 -->
<g id="edge27_Node000018_Node000014" class="edge">
<title>Node18&#45;&gt;Node14</title>
<g id="a_edge27_Node000018_Node000014"><a xlink:title=" ">
<path fill="none" stroke="#63b8ff" d="M299.65,-109.98C277.38,-101.3 242.6,-87.75 217.28,-77.88"/>
<polygon fill="#63b8ff" stroke="#63b8ff" points="218.34,-74.54 207.75,-74.17 215.79,-81.06 218.34,-74.54"/>
</a>
</g>
</g>
<!-- Node19 -->
<g id="Node000019" class="node">
<title>Node19</title>
<g id="a_Node000019"><a xlink:href="tmap_8h.html" target="_top" xlink:title=" ">
<polygon fill="white" stroke="#666666" points="290,-74 239,-74 239,-55 290,-55 290,-74"/>
<text text-anchor="middle" x="264.5" y="-62" font-family="Helvetica,sans-Serif" font-size="10.00">tmap.h</text>
</a>
</g>
</g>
<!-- Node18&#45;&gt;Node19 -->
<g id="edge28_Node000018_Node000019" class="edge">
<title>Node18&#45;&gt;Node19</title>
<g id="a_edge28_Node000018_Node000019"><a xlink:title=" ">
<path fill="none" stroke="#63b8ff" d="M312.34,-109.98C304,-102.23 291.47,-90.58 281.32,-81.14"/>
<polygon fill="#63b8ff" stroke="#63b8ff" points="283.53,-78.42 273.82,-74.17 278.76,-83.54 283.53,-78.42"/>
</a>
</g>
</g>
<!-- Node19&#45;&gt;Node4 -->
<g id="edge30_Node000019_Node000004" class="edge">
<title>Node19&#45;&gt;Node4</title>
<g id="a_edge30_Node000019_Node000004"><a xlink:title=" ">
<path fill="none" stroke="#63b8ff" d="M290.08,-56.13C321.13,-47.19 373.79,-32.02 409.81,-21.64"/>
<polygon fill="#63b8ff" stroke="#63b8ff" points="410.86,-24.99 419.5,-18.85 408.92,-18.26 410.86,-24.99"/>
</a>
</g>
</g>
<!-- Node19&#45;&gt;Node16 -->
<g id="edge31_Node000019_Node000016" class="edge">
<title>Node19&#45;&gt;Node16</title>
<g id="a_edge31_Node000019_Node000016"><a xlink:title=" ">
<path fill="none" stroke="#63b8ff" d="M248.27,-54.98C232.32,-46.61 207.72,-33.7 189.12,-23.95"/>
<polygon fill="#63b8ff" stroke="#63b8ff" points="190.5,-20.72 180.02,-19.17 187.25,-26.92 190.5,-20.72"/>
</a>
</g>
</g>
<!-- Node20 -->
<g id="Node000020" class="node">
<title>Node20</title>
<g id="a_Node000020"><a xlink:title=" ">
<polygon fill="#e0e0e0" stroke="#999999" points="401.5,-19 363.5,-19 363.5,0 401.5,0 401.5,-19"/>
<text text-anchor="middle" x="382.5" y="-7" font-family="Helvetica,sans-Serif" font-size="10.00">map</text>
</a>
</g>
</g>
<!-- Node19&#45;&gt;Node20 -->
<g id="edge29_Node000019_Node000020" class="edge">
<title>Node19&#45;&gt;Node20</title>
<g id="a_edge29_Node000019_Node000020"><a xlink:title=" ">
<path fill="none" stroke="#63b8ff" d="M283.46,-54.98C302.53,-46.42 332.16,-33.11 354.05,-23.28"/>
<polygon fill="#63b8ff" stroke="#63b8ff" points="355.51,-26.46 363.2,-19.17 352.64,-20.07 355.51,-26.46"/>
</a>
</g>
</g>
<!-- Node21 -->
<g id="Node000021" class="node">
<title>Node21</title>
<g id="a_Node000021"><a xlink:title=" ">
<polygon fill="#e0e0e0" stroke="#999999" points="268,-19 223,-19 223,0 268,0 268,-19"/>
<text text-anchor="middle" x="245.5" y="-7" font-family="Helvetica,sans-Serif" font-size="10.00">utility</text>
</a>
</g>
</g>
<!-- Node19&#45;&gt;Node21 -->
<g id="edge32_Node000019_Node000021" class="edge">
<title>Node19&#45;&gt;Node21</title>
<g id="a_edge32_Node000019_Node000021"><a xlink:title=" ">
<path fill="none" stroke="#63b8ff" d="M261.36,-54.75C258.82,-47.65 255.14,-37.4 251.97,-28.56"/>
<polygon fill="#63b8ff" stroke="#63b8ff" points="255.25,-27.32 248.58,-19.09 248.66,-29.68 255.25,-27.32"/>
</a>
</g>
</g>
<!-- Node22 -->
<g id="Node000022" class="node">
<title>Node22</title>
<g id="a_Node000022"><a xlink:title=" ">
<polygon fill="#e0e0e0" stroke="#999999" points="345,-19 286,-19 286,0 345,0 345,-19"/>
<text text-anchor="middle" x="315.5" y="-7" font-family="Helvetica,sans-Serif" font-size="10.00">tmap.tcc</text>
</a>
</g>
</g>
<!-- Node19&#45;&gt;Node22 -->
<g id="edge33_Node000019_Node000022" class="edge">
<title>Node19&#45;&gt;Node22</title>
<g id="a_edge33_Node000019_Node000022"><a xlink:title=" ">
<path fill="none" stroke="#63b8ff" d="M272.92,-54.75C280.27,-47.11 291.13,-35.82 300.04,-26.56"/>
<polygon fill="#63b8ff" stroke="#63b8ff" points="302.82,-28.72 307.24,-19.09 297.78,-23.87 302.82,-28.72"/>
</a>
</g>
</g>
<!-- Node23&#45;&gt;Node7 -->
<g id="edge39_Node000023_Node000007" class="edge">
<title>Node23&#45;&gt;Node7</title>
<g id="a_edge39_Node000023_Node000007"><a xlink:title=" ">
<path fill="none" stroke="#63b8ff" d="M988.28,-164.88C978.9,-140.24 951.15,-70.32 932.5,-55 902.2,-30.11 859.1,-19.08 824.83,-14.22"/>
<polygon fill="#63b8ff" stroke="#63b8ff" points="824.87,-10.7 814.5,-12.9 823.98,-17.64 824.87,-10.7"/>
</a>
</g>
</g>
<!-- Node23&#45;&gt;Node12 -->
<g id="edge38_Node000023_Node000012" class="edge">
<title>Node23&#45;&gt;Node12</title>
<g id="a_edge38_Node000023_Node000012"><a xlink:title=" ">
<path fill="none" stroke="#63b8ff" d="M946.24,-165.45C887.81,-155.06 787.12,-137.15 732.12,-127.37"/>
<polygon fill="#63b8ff" stroke="#63b8ff" points="732.54,-123.89 722.08,-125.58 731.31,-130.78 732.54,-123.89"/>
</a>
</g>
</g>
<!-- Node24 -->
<g id="Node000024" class="node">
<title>Node24</title>
<g id="a_Node000024"><a xlink:href="audioproperties_8h.html" target="_top" xlink:title=" ">
<polygon fill="white" stroke="#666666" points="1086.5,-129 984.5,-129 984.5,-110 1086.5,-110 1086.5,-129"/>
<text text-anchor="middle" x="1035.5" y="-117" font-family="Helvetica,sans-Serif" font-size="10.00">audioproperties.h</text>
</a>
</g>
</g>
<!-- Node23&#45;&gt;Node24 -->
<g id="edge40_Node000023_Node000024" class="edge">
<title>Node23&#45;&gt;Node24</title>
<g id="a_edge40_Node000023_Node000024"><a xlink:title=" ">
<path fill="none" stroke="#63b8ff" d="M998.77,-164.75C1005.04,-157.18 1014.29,-146.05 1021.93,-136.84"/>
<polygon fill="#63b8ff" stroke="#63b8ff" points="1024.67,-139.02 1028.37,-129.09 1019.29,-134.55 1024.67,-139.02"/>
</a>
</g>
</g>
<!-- Node24&#45;&gt;Node4 -->
<g id="edge41_Node000024_Node000004" class="edge">
<title>Node24&#45;&gt;Node4</title>
<g id="a_edge41_Node000024_Node000004"><a xlink:title=" ">
<path fill="none" stroke="#63b8ff" d="M990.44,-109.96C925.06,-97.62 800.04,-74.15 693.5,-55 604.73,-39.04 579.78,-37.3 487.56,-19.13"/>
<polygon fill="#63b8ff" stroke="#63b8ff" points="488.01,-15.65 477.52,-17.14 486.64,-22.52 488.01,-15.65"/>
</a>
</g>
</g>
<!-- Node24&#45;&gt;Node7 -->
<g id="edge43_Node000024_Node000007" class="edge">
<title>Node24&#45;&gt;Node7</title>
<g id="a_edge43_Node000024_Node000007"><a xlink:title=" ">
<path fill="none" stroke="#63b8ff" d="M1029.37,-109.98C1018.93,-96.16 996.31,-68.96 970.5,-55 925.05,-30.42 866.83,-19.41 824.75,-14.48"/>
<polygon fill="#63b8ff" stroke="#63b8ff" points="825.01,-10.99 814.69,-13.38 824.25,-17.95 825.01,-10.99"/>
</a>
</g>
</g>
<!-- Node24&#45;&gt;Node9 -->
<g id="edge42_Node000024_Node000009" class="edge">
<title>Node24&#45;&gt;Node9</title>
<g id="a_edge42_Node000024_Node000009"><a xlink:title=" ">
<path fill="none" stroke="#63b8ff" d="M1037.81,-109.75C1039.67,-102.72 1042.34,-92.62 1044.65,-83.84"/>
<polygon fill="#63b8ff" stroke="#63b8ff" points="1048.06,-84.65 1047.23,-74.09 1041.29,-82.86 1048.06,-84.65"/>
</a>
</g>
</g>
<!-- Node25&#45;&gt;Node7 -->
<g id="edge47_Node000025_Node000007" class="edge">
<title>Node25&#45;&gt;Node7</title>
<g id="a_edge47_Node000025_Node000007"><a xlink:title=" ">
<path fill="none" stroke="#63b8ff" d="M439.89,-274.75C453.68,-247.84 498.44,-164.87 552.5,-110 582.53,-79.52 593.17,-74 631.5,-55 660.83,-40.47 695.97,-29.22 723.45,-21.66"/>
<polygon fill="#63b8ff" stroke="#63b8ff" points="724.45,-25.02 733.2,-19.05 722.63,-18.26 724.45,-25.02"/>
</a>
</g>
</g>
<!-- Node25&#45;&gt;Node11 -->
<g id="edge48_Node000025_Node000011" class="edge">
<title>Node25&#45;&gt;Node11</title>
<g id="a_edge48_Node000025_Node000011"><a xlink:title=" ">
<path fill="none" stroke="#63b8ff" d="M430.18,-274.66C419.46,-256.85 395.1,-216.37 381.04,-193.01"/>
<polygon fill="#63b8ff" stroke="#63b8ff" points="383.87,-190.92 375.71,-184.16 377.87,-194.53 383.87,-190.92"/>
</a>
</g>
</g>
<!-- Node25&#45;&gt;Node14 -->
<g id="edge45_Node000025_Node000014" class="edge">
<title>Node25&#45;&gt;Node14</title>
<g id="a_edge45_Node000025_Node000014"><a xlink:title=" ">
<path fill="none" stroke="#63b8ff" d="M416.2,-274.9C399.15,-266.86 374.04,-253.87 354.5,-239 289.65,-189.66 226.14,-115.6 199.1,-82.52"/>
<polygon fill="#63b8ff" stroke="#63b8ff" points="201.49,-79.9 192.47,-74.33 196.05,-84.3 201.49,-79.9"/>
</a>
</g>
</g>
<!-- Node25&#45;&gt;Node19 -->
<g id="edge46_Node000025_Node000019" class="edge">
<title>Node25&#45;&gt;Node19</title>
<g id="a_edge46_Node000025_Node000019"><a xlink:title=" ">
<path fill="none" stroke="#63b8ff" d="M423.22,-275C393.75,-253.91 318.62,-196.05 280.5,-129 272.68,-115.24 268.63,-97.67 266.57,-84.5"/>
<polygon fill="#63b8ff" stroke="#63b8ff" points="270,-83.72 265.22,-74.26 263.06,-84.63 270,-83.72"/>
</a>
</g>
</g>
<!-- Node26 -->
<g id="Node000026" class="node">
<title>Node26</title>
<g id="a_Node000026"><a xlink:href="asfattribute_8h.html" target="_top" xlink:title=" ">
<polygon fill="white" stroke="#666666" points="652,-239 569,-239 569,-220 652,-220 652,-239"/>
<text text-anchor="middle" x="610.5" y="-227" font-family="Helvetica,sans-Serif" font-size="10.00">asfattribute.h</text>
</a>
</g>
</g>
<!-- Node25&#45;&gt;Node26 -->
<g id="edge49_Node000025_Node000026" class="edge">
<title>Node25&#45;&gt;Node26</title>
<g id="a_edge49_Node000025_Node000026"><a xlink:title=" ">
<path fill="none" stroke="#63b8ff" d="M463.62,-274.98C493.12,-266.05 539.69,-251.94 572.47,-242.02"/>
<polygon fill="#63b8ff" stroke="#63b8ff" points="573.61,-245.33 582.16,-239.08 571.58,-238.63 573.61,-245.33"/>
</a>
</g>
</g>
<!-- Node26&#45;&gt;Node3 -->
<g id="edge51_Node000026_Node000003" class="edge">
<title>Node26&#45;&gt;Node3</title>
<g id="a_edge51_Node000026_Node000003"><a xlink:title=" ">
<path fill="none" stroke="#63b8ff" d="M573.1,-219.92C531.05,-207.89 465.73,-181.34 443.5,-129 436.06,-111.48 450.05,-93.12 463.3,-80.68"/>
<polygon fill="#63b8ff" stroke="#63b8ff" points="465.62,-83.3 470.85,-74.09 461.01,-78.03 465.62,-83.3"/>
</a>
</g>
</g>
<!-- Node26&#45;&gt;Node7 -->
<g id="edge52_Node000026_Node000007" class="edge">
<title>Node26&#45;&gt;Node7</title>
<g id="a_edge52_Node000026_Node000007"><a xlink:title=" ">
<path fill="none" stroke="#63b8ff" d="M629.11,-219.83C658.84,-205.12 717.21,-172.55 751.5,-129 772.81,-101.94 776.43,-89.39 774.5,-55 774.02,-46.45 773.03,-37.03 772.05,-29.06"/>
<polygon fill="#63b8ff" stroke="#63b8ff" points="775.51,-28.47 770.74,-19.01 768.57,-29.38 775.51,-28.47"/>
</a>
</g>
</g>
<!-- Node26&#45;&gt;Node12 -->
<g id="edge50_Node000026_Node000012" class="edge">
<title>Node26&#45;&gt;Node12</title>
<g id="a_edge50_Node000026_Node000012"><a xlink:title=" ">
<path fill="none" stroke="#63b8ff" d="M621.18,-219.68C631.06,-211.18 645.81,-197.64 656.5,-184 667.79,-169.6 678.04,-151.4 684.88,-138.18"/>
<polygon fill="#63b8ff" stroke="#63b8ff" points="688.03,-139.69 689.4,-129.19 681.78,-136.55 688.03,-139.69"/>
</a>
</g>
</g>
<!-- Node27 -->
<g id="Node000027" class="node">
<title>Node27</title>
<g id="a_Node000027"><a xlink:href="asfpicture_8h.html" target="_top" xlink:title=" ">
<polygon fill="white" stroke="#666666" points="647.5,-184 573.5,-184 573.5,-165 647.5,-165 647.5,-184"/>
<text text-anchor="middle" x="610.5" y="-172" font-family="Helvetica,sans-Serif" font-size="10.00">asfpicture.h</text>
</a>
</g>
</g>
<!-- Node26&#45;&gt;Node27 -->
<g id="edge53_Node000026_Node000027" class="edge">
<title>Node26&#45;&gt;Node27</title>
<g id="a_edge53_Node000026_Node000027"><a xlink:title=" ">
<path fill="none" stroke="#63b8ff" d="M610.5,-219.75C610.5,-212.8 610.5,-202.85 610.5,-194.13"/>
<polygon fill="#63b8ff" stroke="#63b8ff" points="614,-194.09 610.5,-184.09 607,-194.09 614,-194.09"/>
</a>
</g>
</g>
<!-- Node27&#45;&gt;Node3 -->
<g id="edge55_Node000027_Node000003" class="edge">
<title>Node27&#45;&gt;Node3</title>
<g id="a_edge55_Node000027_Node000003"><a xlink:title=" ">
<path fill="none" stroke="#63b8ff" d="M598.73,-164.91C586.85,-156.14 568.09,-142.01 552.5,-129 533.76,-113.35 513.15,-94.44 499.18,-81.35"/>
<polygon fill="#63b8ff" stroke="#63b8ff" points="501.47,-78.69 491.79,-74.38 496.67,-83.79 501.47,-78.69"/>
</a>
</g>
</g>
<!-- Node27&#45;&gt;Node7 -->
<g id="edge57_Node000027_Node000007" class="edge">
<title>Node27&#45;&gt;Node7</title>
<g id="a_edge57_Node000027_Node000007"><a xlink:title=" ">
<path fill="none" stroke="#63b8ff" d="M647.75,-168.59C674.44,-163.2 709.43,-152.02 731.5,-129 757.95,-101.41 765.99,-55.36 768.43,-29.54"/>
<polygon fill="#63b8ff" stroke="#63b8ff" points="771.95,-29.48 769.21,-19.24 764.97,-28.95 771.95,-29.48"/>
</a>
</g>
</g>
<!-- Node27&#45;&gt;Node12 -->
<g id="edge54_Node000027_Node000012" class="edge">
<title>Node27&#45;&gt;Node12</title>
<g id="a_edge54_Node000027_Node000012"><a xlink:title=" ">
<path fill="none" stroke="#63b8ff" d="M623.84,-164.98C636.59,-156.84 656.05,-144.41 671.17,-134.76"/>
<polygon fill="#63b8ff" stroke="#63b8ff" points="673.38,-137.5 679.92,-129.17 669.61,-131.6 673.38,-137.5"/>
</a>
</g>
</g>
<!-- Node28 -->
<g id="Node000028" class="node">
<title>Node28</title>
<g id="a_Node000028"><a xlink:href="tpicturetype_8h.html" target="_top" xlink:title=" ">
<polygon fill="white" stroke="#666666" points="647,-129 562,-129 562,-110 647,-110 647,-129"/>
<text text-anchor="middle" x="604.5" y="-117" font-family="Helvetica,sans-Serif" font-size="10.00">tpicturetype.h</text>
</a>
</g>
</g>
<!-- Node27&#45;&gt;Node28 -->
<g id="edge56_Node000027_Node000028" class="edge">
<title>Node27&#45;&gt;Node28</title>
<g id="a_edge56_Node000027_Node000028"><a xlink:title=" ">
<path fill="none" stroke="#63b8ff" d="M609.51,-164.75C608.72,-157.8 607.6,-147.85 606.61,-139.13"/>
<polygon fill="#63b8ff" stroke="#63b8ff" points="610.08,-138.63 605.47,-129.09 603.12,-139.42 610.08,-138.63"/>
</a>
</g>
</g>
</g>
</svg>
