<?xml version="1.0" encoding="UTF-8" standalone="no"?>
<!DOCTYPE svg PUBLIC "-//W3C//DTD SVG 1.1//EN"
 "http://www.w3.org/Graphics/SVG/1.1/DTD/svg11.dtd">
<!-- Generated by graphviz version 2.43.0 (0)
 -->
<!-- Title: asfproperties.h Pages: 1 -->
<svg width="430pt" height="252pt"
 viewBox="0.00 0.00 430.00 252.00" xmlns="http://www.w3.org/2000/svg" xmlns:xlink="http://www.w3.org/1999/xlink">
<g id="graph0" class="graph" transform="scale(1 1) rotate(0) translate(4 248)">
<title>asfproperties.h</title>
<polygon fill="white" stroke="transparent" points="-4,4 -4,-248 426,-248 426,4 -4,4"/>
<!-- Node1 -->
<g id="node1" class="node">
<title>Node1</title>
<g id="a_node1"><a xlink:title=" ">
<polygon fill="#bfbfbf" stroke="black" points="85,-224.5 85,-243.5 175,-243.5 175,-224.5 85,-224.5"/>
<text text-anchor="middle" x="130" y="-231.5" font-family="Helvetica,sans-Serif" font-size="10.00">asfproperties.h</text>
</a>
</g>
</g>
<!-- Node2 -->
<g id="node2" class="node">
<title>Node2</title>
<g id="a_node2"><a xlink:href="audioproperties_8h.html" target="_top" xlink:title=" ">
<polygon fill="white" stroke="black" points="0,-112.5 0,-131.5 102,-131.5 102,-112.5 0,-112.5"/>
<text text-anchor="middle" x="51" y="-119.5" font-family="Helvetica,sans-Serif" font-size="10.00">audioproperties.h</text>
</a>
</g>
</g>
<!-- Node1&#45;&gt;Node2 -->
<g id="edge1" class="edge">
<title>Node1&#45;&gt;Node2</title>
<path fill="none" stroke="midnightblue" d="M123.8,-224.37C110.76,-206.22 80.3,-163.8 63.2,-139.99"/>
<polygon fill="midnightblue" stroke="midnightblue" points="65.85,-137.67 57.17,-131.59 60.16,-141.76 65.85,-137.67"/>
</g>
<!-- Node3 -->
<g id="node3" class="node">
<title>Node3</title>
<g id="a_node3"><a xlink:href="taglib__export_8h.html" target="_top" xlink:title=" ">
<polygon fill="white" stroke="black" points="67,-56.5 67,-75.5 157,-75.5 157,-56.5 67,-56.5"/>
<text text-anchor="middle" x="112" y="-63.5" font-family="Helvetica,sans-Serif" font-size="10.00">taglib_export.h</text>
</a>
</g>
</g>
<!-- Node1&#45;&gt;Node3 -->
<g id="edge15" class="edge">
<title>Node1&#45;&gt;Node3</title>
<path fill="none" stroke="midnightblue" d="M129.03,-224.08C126.2,-197.95 117.88,-121.21 114.01,-85.58"/>
<polygon fill="midnightblue" stroke="midnightblue" points="117.49,-85.13 112.93,-75.57 110.53,-85.89 117.49,-85.13"/>
</g>
<!-- Node4 -->
<g id="node4" class="node">
<title>Node4</title>
<g id="a_node4"><a xlink:href="tstring_8h.html" target="_top" xlink:title=" ">
<polygon fill="white" stroke="black" points="211.5,-168.5 211.5,-187.5 268.5,-187.5 268.5,-168.5 211.5,-168.5"/>
<text text-anchor="middle" x="240" y="-175.5" font-family="Helvetica,sans-Serif" font-size="10.00">tstring.h</text>
</a>
</g>
</g>
<!-- Node1&#45;&gt;Node4 -->
<g id="edge3" class="edge">
<title>Node1&#45;&gt;Node4</title>
<path fill="none" stroke="midnightblue" d="M147.67,-224.32C165.39,-215.62 192.9,-202.12 213.29,-192.11"/>
<polygon fill="midnightblue" stroke="midnightblue" points="214.94,-195.2 222.37,-187.65 211.85,-188.92 214.94,-195.2"/>
</g>
<!-- Node2&#45;&gt;Node3 -->
<g id="edge2" class="edge">
<title>Node2&#45;&gt;Node3</title>
<path fill="none" stroke="midnightblue" d="M60.8,-112.32C69.82,-104.34 83.41,-92.31 94.32,-82.65"/>
<polygon fill="midnightblue" stroke="midnightblue" points="96.85,-85.08 102.02,-75.83 92.21,-79.84 96.85,-85.08"/>
</g>
<!-- Node4&#45;&gt;Node3 -->
<g id="edge4" class="edge">
<title>Node4&#45;&gt;Node3</title>
<path fill="none" stroke="midnightblue" d="M229.96,-168.37C208.27,-149.73 156.84,-105.53 129.61,-82.13"/>
<polygon fill="midnightblue" stroke="midnightblue" points="131.86,-79.45 122,-75.59 127.3,-84.76 131.86,-79.45"/>
</g>
<!-- Node5 -->
<g id="node5" class="node">
<title>Node5</title>
<g id="a_node5"><a xlink:href="taglib_8h.html" target="_top" xlink:title=" ">
<polygon fill="white" stroke="black" points="318.5,-56.5 318.5,-75.5 371.5,-75.5 371.5,-56.5 318.5,-56.5"/>
<text text-anchor="middle" x="345" y="-63.5" font-family="Helvetica,sans-Serif" font-size="10.00">taglib.h</text>
</a>
</g>
</g>
<!-- Node4&#45;&gt;Node5 -->
<g id="edge5" class="edge">
<title>Node4&#45;&gt;Node5</title>
<path fill="none" stroke="midnightblue" d="M268.17,-168.45C286.76,-161.44 310.31,-149.75 325,-132 335.93,-118.79 340.89,-99.66 343.14,-85.57"/>
<polygon fill="midnightblue" stroke="midnightblue" points="346.63,-85.93 344.43,-75.56 339.68,-85.03 346.63,-85.93"/>
</g>
<!-- Node7 -->
<g id="node7" class="node">
<title>Node7</title>
<g id="a_node7"><a xlink:title=" ">
<polygon fill="white" stroke="#bfbfbf" points="378,-0.5 378,-19.5 422,-19.5 422,-0.5 378,-0.5"/>
<text text-anchor="middle" x="400" y="-7.5" font-family="Helvetica,sans-Serif" font-size="10.00">string</text>
</a>
</g>
</g>
<!-- Node4&#45;&gt;Node7 -->
<g id="edge13" class="edge">
<title>Node4&#45;&gt;Node7</title>
<path fill="none" stroke="midnightblue" d="M268.91,-169.44C291.26,-162.49 321.99,-150.45 344,-132 375.98,-105.2 390.69,-56.15 396.59,-29.47"/>
<polygon fill="midnightblue" stroke="midnightblue" points="400.05,-30.04 398.61,-19.54 393.19,-28.64 400.05,-30.04"/>
</g>
<!-- Node8 -->
<g id="node8" class="node">
<title>Node8</title>
<g id="a_node8"><a xlink:href="tbytevector_8h.html" target="_top" xlink:title=" ">
<polygon fill="white" stroke="black" points="234.5,-112.5 234.5,-131.5 315.5,-131.5 315.5,-112.5 234.5,-112.5"/>
<text text-anchor="middle" x="275" y="-119.5" font-family="Helvetica,sans-Serif" font-size="10.00">tbytevector.h</text>
</a>
</g>
</g>
<!-- Node4&#45;&gt;Node8 -->
<g id="edge8" class="edge">
<title>Node4&#45;&gt;Node8</title>
<path fill="none" stroke="midnightblue" d="M245.78,-168.08C250.67,-160.53 257.83,-149.49 263.83,-140.23"/>
<polygon fill="midnightblue" stroke="midnightblue" points="266.83,-142.05 269.33,-131.75 260.95,-138.24 266.83,-142.05"/>
</g>
<!-- Node10 -->
<g id="node10" class="node">
<title>Node10</title>
<g id="a_node10"><a xlink:title=" ">
<polygon fill="white" stroke="#bfbfbf" points="175,-56.5 175,-75.5 235,-75.5 235,-56.5 175,-56.5"/>
<text text-anchor="middle" x="205" y="-63.5" font-family="Helvetica,sans-Serif" font-size="10.00">iostream</text>
</a>
</g>
</g>
<!-- Node4&#45;&gt;Node10 -->
<g id="edge14" class="edge">
<title>Node4&#45;&gt;Node10</title>
<path fill="none" stroke="midnightblue" d="M237.25,-168.37C231.58,-150.54 218.46,-109.3 210.81,-85.27"/>
<polygon fill="midnightblue" stroke="midnightblue" points="214.1,-84.06 207.73,-75.59 207.43,-86.18 214.1,-84.06"/>
</g>
<!-- Node6 -->
<g id="node6" class="node">
<title>Node6</title>
<g id="a_node6"><a xlink:title=" ">
<polygon fill="white" stroke="#bfbfbf" points="272,-0.5 272,-19.5 360,-19.5 360,-0.5 272,-0.5"/>
<text text-anchor="middle" x="316" y="-7.5" font-family="Helvetica,sans-Serif" font-size="10.00">taglib_config.h</text>
</a>
</g>
</g>
<!-- Node5&#45;&gt;Node6 -->
<g id="edge6" class="edge">
<title>Node5&#45;&gt;Node6</title>
<path fill="none" stroke="midnightblue" d="M340.21,-56.08C336.24,-48.69 330.47,-37.95 325.57,-28.81"/>
<polygon fill="midnightblue" stroke="midnightblue" points="328.51,-26.91 320.7,-19.75 322.35,-30.22 328.51,-26.91"/>
</g>
<!-- Node5&#45;&gt;Node7 -->
<g id="edge7" class="edge">
<title>Node5&#45;&gt;Node7</title>
<path fill="none" stroke="midnightblue" d="M354.08,-56.08C362.17,-48.14 374.2,-36.34 383.91,-26.8"/>
<polygon fill="midnightblue" stroke="midnightblue" points="386.4,-29.25 391.09,-19.75 381.5,-24.26 386.4,-29.25"/>
</g>
<!-- Node8&#45;&gt;Node3 -->
<g id="edge10" class="edge">
<title>Node8&#45;&gt;Node3</title>
<path fill="none" stroke="midnightblue" d="M249.17,-112.44C221.75,-103.36 178.22,-88.94 147.57,-78.78"/>
<polygon fill="midnightblue" stroke="midnightblue" points="148.3,-75.34 137.71,-75.52 146.1,-81.98 148.3,-75.34"/>
</g>
<!-- Node8&#45;&gt;Node5 -->
<g id="edge9" class="edge">
<title>Node8&#45;&gt;Node5</title>
<path fill="none" stroke="midnightblue" d="M286.25,-112.32C296.8,-104.18 312.8,-91.84 325.44,-82.09"/>
<polygon fill="midnightblue" stroke="midnightblue" points="327.77,-84.71 333.55,-75.83 323.49,-79.17 327.77,-84.71"/>
</g>
<!-- Node9 -->
<g id="node9" class="node">
<title>Node9</title>
<g id="a_node9"><a xlink:title=" ">
<polygon fill="white" stroke="#bfbfbf" points="253.5,-56.5 253.5,-75.5 300.5,-75.5 300.5,-56.5 253.5,-56.5"/>
<text text-anchor="middle" x="277" y="-63.5" font-family="Helvetica,sans-Serif" font-size="10.00">vector</text>
</a>
</g>
</g>
<!-- Node8&#45;&gt;Node9 -->
<g id="edge11" class="edge">
<title>Node8&#45;&gt;Node9</title>
<path fill="none" stroke="midnightblue" d="M275.33,-112.08C275.59,-105.01 275.97,-94.86 276.3,-85.99"/>
<polygon fill="midnightblue" stroke="midnightblue" points="279.8,-85.87 276.68,-75.75 272.81,-85.61 279.8,-85.87"/>
</g>
<!-- Node8&#45;&gt;Node10 -->
<g id="edge12" class="edge">
<title>Node8&#45;&gt;Node10</title>
<path fill="none" stroke="midnightblue" d="M263.75,-112.32C253.2,-104.18 237.2,-91.84 224.56,-82.09"/>
<polygon fill="midnightblue" stroke="midnightblue" points="226.51,-79.17 216.45,-75.83 222.23,-84.71 226.51,-79.17"/>
</g>
</g>
</svg>
