<?xml version="1.0" encoding="UTF-8" standalone="no"?>
<!DOCTYPE svg PUBLIC "-//W3C//DTD SVG 1.1//EN"
 "http://www.w3.org/Graphics/SVG/1.1/DTD/svg11.dtd">
<!-- Generated by graphviz version 2.43.0 (0)
 -->
<!-- Title: asfproperties.h Pages: 1 -->
<svg width="400pt" height="252pt"
 viewBox="0.00 0.00 400.37 252.00" xmlns="http://www.w3.org/2000/svg" xmlns:xlink="http://www.w3.org/1999/xlink">
<g id="graph0" class="graph" transform="scale(1 1) rotate(0) translate(4 248)">
<title>asfproperties.h</title>
<polygon fill="white" stroke="transparent" points="-4,4 -4,-248 396.37,-248 396.37,4 -4,4"/>
<!-- Node1 -->
<g id="node1" class="node">
<title>Node1</title>
<g id="a_node1"><a xlink:title=" ">
<polygon fill="#bfbfbf" stroke="black" points="215.37,-224.5 215.37,-243.5 305.37,-243.5 305.37,-224.5 215.37,-224.5"/>
<text text-anchor="middle" x="260.37" y="-231.5" font-family="Helvetica,sans-Serif" font-size="10.00">asfproperties.h</text>
</a>
</g>
</g>
<!-- Node2 -->
<g id="node2" class="node">
<title>Node2</title>
<g id="a_node2"><a xlink:href="tstring_8h.html" target="_top" xlink:title=" ">
<polygon fill="white" stroke="black" points="118.87,-168.5 118.87,-187.5 175.87,-187.5 175.87,-168.5 118.87,-168.5"/>
<text text-anchor="middle" x="147.37" y="-175.5" font-family="Helvetica,sans-Serif" font-size="10.00">tstring.h</text>
</a>
</g>
</g>
<!-- Node1&#45;&gt;Node2 -->
<g id="edge1" class="edge">
<title>Node1&#45;&gt;Node2</title>
<path fill="none" stroke="midnightblue" d="M242.46,-224.44C224.11,-215.68 195.36,-201.94 174.27,-191.86"/>
<polygon fill="midnightblue" stroke="midnightblue" points="175.72,-188.67 165.19,-187.52 172.7,-194.99 175.72,-188.67"/>
</g>
<!-- Node11 -->
<g id="node11" class="node">
<title>Node11</title>
<g id="a_node11"><a xlink:href="taglib__export_8h.html" target="_top" xlink:title=" ">
<polygon fill="white" stroke="black" points="302.37,-56.5 302.37,-75.5 392.37,-75.5 392.37,-56.5 302.37,-56.5"/>
<text text-anchor="middle" x="347.37" y="-63.5" font-family="Helvetica,sans-Serif" font-size="10.00">taglib_export.h</text>
</a>
</g>
</g>
<!-- Node1&#45;&gt;Node11 -->
<g id="edge15" class="edge">
<title>Node1&#45;&gt;Node11</title>
<path fill="none" stroke="midnightblue" d="M270.74,-224.27C289,-208.19 326.48,-171.86 342.37,-132 348.2,-117.36 349.17,-99.42 348.84,-86.1"/>
<polygon fill="midnightblue" stroke="midnightblue" points="352.32,-85.59 348.3,-75.78 345.33,-85.95 352.32,-85.59"/>
</g>
<!-- Node12 -->
<g id="node12" class="node">
<title>Node12</title>
<g id="a_node12"><a xlink:href="audioproperties_8h.html" target="_top" xlink:title=" ">
<polygon fill="white" stroke="black" points="209.37,-112.5 209.37,-131.5 311.37,-131.5 311.37,-112.5 209.37,-112.5"/>
<text text-anchor="middle" x="260.37" y="-119.5" font-family="Helvetica,sans-Serif" font-size="10.00">audioproperties.h</text>
</a>
</g>
</g>
<!-- Node1&#45;&gt;Node12 -->
<g id="edge16" class="edge">
<title>Node1&#45;&gt;Node12</title>
<path fill="none" stroke="midnightblue" d="M260.37,-224.37C260.37,-206.62 260.37,-165.67 260.37,-141.6"/>
<polygon fill="midnightblue" stroke="midnightblue" points="263.87,-141.59 260.37,-131.59 256.87,-141.59 263.87,-141.59"/>
</g>
<!-- Node3 -->
<g id="node3" class="node">
<title>Node3</title>
<g id="a_node3"><a xlink:title=" ">
<polygon fill="white" stroke="#bfbfbf" points="11.37,-56.5 11.37,-75.5 71.37,-75.5 71.37,-56.5 11.37,-56.5"/>
<text text-anchor="middle" x="41.37" y="-63.5" font-family="Helvetica,sans-Serif" font-size="10.00">iostream</text>
</a>
</g>
</g>
<!-- Node2&#45;&gt;Node3 -->
<g id="edge2" class="edge">
<title>Node2&#45;&gt;Node3</title>
<path fill="none" stroke="midnightblue" d="M119.28,-168.38C100.72,-161.35 77.18,-149.65 62.37,-132 51.3,-118.81 46.03,-99.68 43.54,-85.58"/>
<polygon fill="midnightblue" stroke="midnightblue" points="46.99,-84.96 42.09,-75.57 40.06,-85.97 46.99,-84.96"/>
</g>
<!-- Node4 -->
<g id="node4" class="node">
<title>Node4</title>
<g id="a_node4"><a xlink:title=" ">
<polygon fill="white" stroke="#bfbfbf" points="22.37,-0.5 22.37,-19.5 66.37,-19.5 66.37,-0.5 22.37,-0.5"/>
<text text-anchor="middle" x="44.37" y="-7.5" font-family="Helvetica,sans-Serif" font-size="10.00">string</text>
</a>
</g>
</g>
<!-- Node2&#45;&gt;Node4 -->
<g id="edge3" class="edge">
<title>Node2&#45;&gt;Node4</title>
<path fill="none" stroke="midnightblue" d="M118.99,-168.5C82.11,-155.57 20.3,-126.93 2.37,-76 -0.58,-67.62 -0.89,-64.27 2.37,-56 6.88,-44.55 15.84,-34.29 24.32,-26.47"/>
<polygon fill="midnightblue" stroke="midnightblue" points="26.84,-28.93 32.15,-19.76 22.28,-23.61 26.84,-28.93"/>
</g>
<!-- Node5 -->
<g id="node5" class="node">
<title>Node5</title>
<g id="a_node5"><a xlink:href="tbytevector_8h.html" target="_top" xlink:title=" ">
<polygon fill="white" stroke="black" points="71.87,-112.5 71.87,-131.5 152.87,-131.5 152.87,-112.5 71.87,-112.5"/>
<text text-anchor="middle" x="112.37" y="-119.5" font-family="Helvetica,sans-Serif" font-size="10.00">tbytevector.h</text>
</a>
</g>
</g>
<!-- Node2&#45;&gt;Node5 -->
<g id="edge4" class="edge">
<title>Node2&#45;&gt;Node5</title>
<path fill="none" stroke="midnightblue" d="M141.59,-168.08C136.7,-160.53 129.54,-149.49 123.54,-140.23"/>
<polygon fill="midnightblue" stroke="midnightblue" points="126.42,-138.24 118.04,-131.75 120.54,-142.05 126.42,-138.24"/>
</g>
<!-- Node8 -->
<g id="node8" class="node">
<title>Node8</title>
<g id="a_node8"><a xlink:href="taglib_8h.html" target="_top" xlink:title=" ">
<polygon fill="white" stroke="black" points="154.87,-56.5 154.87,-75.5 207.87,-75.5 207.87,-56.5 154.87,-56.5"/>
<text text-anchor="middle" x="181.37" y="-63.5" font-family="Helvetica,sans-Serif" font-size="10.00">taglib.h</text>
</a>
</g>
</g>
<!-- Node2&#45;&gt;Node8 -->
<g id="edge14" class="edge">
<title>Node2&#45;&gt;Node8</title>
<path fill="none" stroke="midnightblue" d="M150.06,-168.38C152.88,-159.32 157.45,-144.66 161.37,-132 166.22,-116.31 171.7,-98.49 175.7,-85.48"/>
<polygon fill="midnightblue" stroke="midnightblue" points="179.07,-86.42 178.66,-75.83 172.38,-84.37 179.07,-86.42"/>
</g>
<!-- Node2&#45;&gt;Node11 -->
<g id="edge13" class="edge">
<title>Node2&#45;&gt;Node11</title>
<path fill="none" stroke="midnightblue" d="M176.06,-177.04C213.59,-175.58 279.39,-167.64 320.37,-132 334.03,-120.11 340.93,-100.2 344.31,-85.54"/>
<polygon fill="midnightblue" stroke="midnightblue" points="347.77,-86.06 346.26,-75.58 340.9,-84.72 347.77,-86.06"/>
</g>
<!-- Node5&#45;&gt;Node3 -->
<g id="edge5" class="edge">
<title>Node5&#45;&gt;Node3</title>
<path fill="none" stroke="midnightblue" d="M100.96,-112.32C90.26,-104.18 74.03,-91.84 61.2,-82.09"/>
<polygon fill="midnightblue" stroke="midnightblue" points="63.06,-79.1 52.98,-75.83 58.82,-84.67 63.06,-79.1"/>
</g>
<!-- Node6 -->
<g id="node6" class="node">
<title>Node6</title>
<g id="a_node6"><a xlink:title=" ">
<polygon fill="white" stroke="#bfbfbf" points="226.37,-56.5 226.37,-75.5 284.37,-75.5 284.37,-56.5 226.37,-56.5"/>
<text text-anchor="middle" x="255.37" y="-63.5" font-family="Helvetica,sans-Serif" font-size="10.00">memory</text>
</a>
</g>
</g>
<!-- Node5&#45;&gt;Node6 -->
<g id="edge6" class="edge">
<title>Node5&#45;&gt;Node6</title>
<path fill="none" stroke="midnightblue" d="M135.03,-112.44C158.77,-103.48 196.28,-89.31 223.11,-79.18"/>
<polygon fill="midnightblue" stroke="midnightblue" points="224.7,-82.32 232.81,-75.52 222.22,-75.77 224.7,-82.32"/>
</g>
<!-- Node7 -->
<g id="node7" class="node">
<title>Node7</title>
<g id="a_node7"><a xlink:title=" ">
<polygon fill="white" stroke="#bfbfbf" points="89.87,-56.5 89.87,-75.5 136.87,-75.5 136.87,-56.5 89.87,-56.5"/>
<text text-anchor="middle" x="113.37" y="-63.5" font-family="Helvetica,sans-Serif" font-size="10.00">vector</text>
</a>
</g>
</g>
<!-- Node5&#45;&gt;Node7 -->
<g id="edge7" class="edge">
<title>Node5&#45;&gt;Node7</title>
<path fill="none" stroke="midnightblue" d="M112.53,-112.08C112.66,-105.01 112.85,-94.86 113.02,-85.99"/>
<polygon fill="midnightblue" stroke="midnightblue" points="116.52,-85.81 113.21,-75.75 109.52,-85.68 116.52,-85.81"/>
</g>
<!-- Node5&#45;&gt;Node8 -->
<g id="edge8" class="edge">
<title>Node5&#45;&gt;Node8</title>
<path fill="none" stroke="midnightblue" d="M123.45,-112.32C133.85,-104.18 149.63,-91.84 162.09,-82.09"/>
<polygon fill="midnightblue" stroke="midnightblue" points="164.36,-84.75 170.08,-75.83 160.05,-79.24 164.36,-84.75"/>
</g>
<!-- Node5&#45;&gt;Node11 -->
<g id="edge12" class="edge">
<title>Node5&#45;&gt;Node11</title>
<path fill="none" stroke="midnightblue" d="M149.6,-112.44C190.43,-103.06 256.01,-87.99 300.35,-77.8"/>
<polygon fill="midnightblue" stroke="midnightblue" points="301.34,-81.17 310.31,-75.52 299.78,-74.34 301.34,-81.17"/>
</g>
<!-- Node8&#45;&gt;Node4 -->
<g id="edge11" class="edge">
<title>Node8&#45;&gt;Node4</title>
<path fill="none" stroke="midnightblue" d="M159.66,-56.44C137.01,-47.52 101.3,-33.44 75.62,-23.32"/>
<polygon fill="midnightblue" stroke="midnightblue" points="76.56,-19.93 65.97,-19.52 73.99,-26.44 76.56,-19.93"/>
</g>
<!-- Node9 -->
<g id="node9" class="node">
<title>Node9</title>
<g id="a_node9"><a xlink:title=" ">
<polygon fill="white" stroke="#bfbfbf" points="186.37,-0.5 186.37,-19.5 274.37,-19.5 274.37,-0.5 186.37,-0.5"/>
<text text-anchor="middle" x="230.37" y="-7.5" font-family="Helvetica,sans-Serif" font-size="10.00">taglib_config.h</text>
</a>
</g>
</g>
<!-- Node8&#45;&gt;Node9 -->
<g id="edge9" class="edge">
<title>Node8&#45;&gt;Node9</title>
<path fill="none" stroke="midnightblue" d="M189.46,-56.08C196.52,-48.3 206.96,-36.8 215.52,-27.37"/>
<polygon fill="midnightblue" stroke="midnightblue" points="218.3,-29.51 222.43,-19.75 213.11,-24.8 218.3,-29.51"/>
</g>
<!-- Node10 -->
<g id="node10" class="node">
<title>Node10</title>
<g id="a_node10"><a xlink:title=" ">
<polygon fill="white" stroke="#bfbfbf" points="96.37,-0.5 96.37,-19.5 168.37,-19.5 168.37,-0.5 96.37,-0.5"/>
<text text-anchor="middle" x="132.37" y="-7.5" font-family="Helvetica,sans-Serif" font-size="10.00">sys/types.h</text>
</a>
</g>
</g>
<!-- Node8&#45;&gt;Node10 -->
<g id="edge10" class="edge">
<title>Node8&#45;&gt;Node10</title>
<path fill="none" stroke="midnightblue" d="M173.28,-56.08C166.21,-48.3 155.78,-36.8 147.22,-27.37"/>
<polygon fill="midnightblue" stroke="midnightblue" points="149.62,-24.8 140.31,-19.75 144.44,-29.51 149.62,-24.8"/>
</g>
<!-- Node12&#45;&gt;Node6 -->
<g id="edge17" class="edge">
<title>Node12&#45;&gt;Node6</title>
<path fill="none" stroke="midnightblue" d="M259.54,-112.08C258.89,-105.01 257.95,-94.86 257.13,-85.99"/>
<polygon fill="midnightblue" stroke="midnightblue" points="260.59,-85.39 256.18,-75.75 253.61,-86.03 260.59,-85.39"/>
</g>
<!-- Node12&#45;&gt;Node8 -->
<g id="edge18" class="edge">
<title>Node12&#45;&gt;Node8</title>
<path fill="none" stroke="midnightblue" d="M247.67,-112.32C235.47,-103.98 216.79,-91.21 202.36,-81.35"/>
<polygon fill="midnightblue" stroke="midnightblue" points="204.26,-78.41 194.03,-75.65 200.31,-84.19 204.26,-78.41"/>
</g>
<!-- Node12&#45;&gt;Node11 -->
<g id="edge19" class="edge">
<title>Node12&#45;&gt;Node11</title>
<path fill="none" stroke="midnightblue" d="M274.35,-112.32C287.92,-103.9 308.75,-90.97 324.69,-81.07"/>
<polygon fill="midnightblue" stroke="midnightblue" points="326.77,-83.9 333.42,-75.65 323.08,-77.95 326.77,-83.9"/>
</g>
</g>
</svg>
