<?xml version="1.0" encoding="UTF-8" standalone="no"?>
<!DOCTYPE svg PUBLIC "-//W3C//DTD SVG 1.1//EN"
 "http://www.w3.org/Graphics/SVG/1.1/DTD/svg11.dtd">
<!-- Generated by graphviz version 2.46.1 (20210213.1702)
 -->
<!-- Title: asfpicture.h Pages: 1 -->
<svg width="436pt" height="364pt"
 viewBox="0.00 0.00 435.50 364.00" xmlns="http://www.w3.org/2000/svg" xmlns:xlink="http://www.w3.org/1999/xlink">
<g id="graph0" class="graph" transform="scale(1 1) rotate(0) translate(4 360)">
<title>asfpicture.h</title>
<polygon fill="white" stroke="transparent" points="-4,4 -4,-360 431.5,-360 431.5,4 -4,4"/>
<!-- Node1 -->
<g id="node1" class="node">
<title>Node1</title>
<g id="a_node1"><a xlink:title=" ">
<polygon fill="#bfbfbf" stroke="black" points="184.5,-336.5 184.5,-355.5 252.5,-355.5 252.5,-336.5 184.5,-336.5"/>
<text text-anchor="middle" x="218.5" y="-343.5" font-family="Helvetica,sans-Serif" font-size="10.00">asfpicture.h</text>
</a>
</g>
</g>
<!-- Node2 -->
<g id="node2" class="node">
<title>Node2</title>
<g id="a_node2"><a xlink:href="tstring_8h.html" target="_top" xlink:title=" ">
<polygon fill="white" stroke="black" points="73.5,-168.5 73.5,-187.5 125.5,-187.5 125.5,-168.5 73.5,-168.5"/>
<text text-anchor="middle" x="99.5" y="-175.5" font-family="Helvetica,sans-Serif" font-size="10.00">tstring.h</text>
</a>
</g>
</g>
<!-- Node1&#45;&gt;Node2 -->
<g id="edge1" class="edge">
<title>Node1&#45;&gt;Node2</title>
<path fill="none" stroke="midnightblue" d="M193.9,-336.49C176.45,-329.29 153.7,-317.34 139.5,-300 114.7,-269.72 105.08,-223.51 101.49,-197.84"/>
<polygon fill="midnightblue" stroke="midnightblue" points="104.93,-197.13 100.24,-187.63 97.98,-197.98 104.93,-197.13"/>
</g>
<!-- Node3 -->
<g id="node3" class="node">
<title>Node3</title>
<g id="a_node3"><a xlink:href="taglib__export_8h.html" target="_top" xlink:title=" ">
<polygon fill="white" stroke="black" points="232.5,-56.5 232.5,-75.5 312.5,-75.5 312.5,-56.5 232.5,-56.5"/>
<text text-anchor="middle" x="272.5" y="-63.5" font-family="Helvetica,sans-Serif" font-size="10.00">taglib_export.h</text>
</a>
</g>
</g>
<!-- Node1&#45;&gt;Node3 -->
<g id="edge14" class="edge">
<title>Node1&#45;&gt;Node3</title>
<path fill="none" stroke="midnightblue" d="M228.09,-336.34C246.17,-319.02 283.5,-278.03 283.5,-235 283.5,-235 283.5,-235 283.5,-177 283.5,-144.79 278.77,-107.53 275.52,-85.69"/>
<polygon fill="midnightblue" stroke="midnightblue" points="278.93,-84.87 273.94,-75.53 272.01,-85.95 278.93,-84.87"/>
</g>
<!-- Node7 -->
<g id="node7" class="node">
<title>Node7</title>
<g id="a_node7"><a xlink:href="tbytevector_8h.html" target="_top" xlink:title=" ">
<polygon fill="white" stroke="black" points="144,-112.5 144,-131.5 217,-131.5 217,-112.5 144,-112.5"/>
<text text-anchor="middle" x="180.5" y="-119.5" font-family="Helvetica,sans-Serif" font-size="10.00">tbytevector.h</text>
</a>
</g>
</g>
<!-- Node1&#45;&gt;Node7 -->
<g id="edge13" class="edge">
<title>Node1&#45;&gt;Node7</title>
<path fill="none" stroke="midnightblue" d="M212.95,-336.26C202.53,-319.29 180.39,-280.34 172.5,-244 164.75,-208.3 171.18,-165.41 176.13,-141.47"/>
<polygon fill="midnightblue" stroke="midnightblue" points="179.57,-142.15 178.31,-131.63 172.73,-140.64 179.57,-142.15"/>
</g>
<!-- Node10 -->
<g id="node10" class="node">
<title>Node10</title>
<g id="a_node10"><a xlink:href="attachedpictureframe_8h.html" target="_top" xlink:title=" ">
<polygon fill="white" stroke="black" points="311.5,-280.5 311.5,-299.5 427.5,-299.5 427.5,-280.5 311.5,-280.5"/>
<text text-anchor="middle" x="369.5" y="-287.5" font-family="Helvetica,sans-Serif" font-size="10.00">attachedpictureframe.h</text>
</a>
</g>
</g>
<!-- Node1&#45;&gt;Node10 -->
<g id="edge15" class="edge">
<title>Node1&#45;&gt;Node10</title>
<path fill="none" stroke="midnightblue" d="M242.43,-336.44C267.72,-327.4 307.8,-313.06 336.18,-302.92"/>
<polygon fill="midnightblue" stroke="midnightblue" points="337.45,-306.18 345.69,-299.52 335.09,-299.59 337.45,-306.18"/>
</g>
<!-- Node2&#45;&gt;Node3 -->
<g id="edge2" class="edge">
<title>Node2&#45;&gt;Node3</title>
<path fill="none" stroke="midnightblue" d="M101.95,-168.06C106.24,-154.08 116.4,-127.12 134.5,-112 148.71,-100.12 192.1,-87.05 226.47,-78.07"/>
<polygon fill="midnightblue" stroke="midnightblue" points="227.54,-81.41 236.35,-75.53 225.8,-74.63 227.54,-81.41"/>
</g>
<!-- Node4 -->
<g id="node4" class="node">
<title>Node4</title>
<g id="a_node4"><a xlink:href="taglib_8h.html" target="_top" xlink:title=" ">
<polygon fill="white" stroke="black" points="97.5,-56.5 97.5,-75.5 145.5,-75.5 145.5,-56.5 97.5,-56.5"/>
<text text-anchor="middle" x="121.5" y="-63.5" font-family="Helvetica,sans-Serif" font-size="10.00">taglib.h</text>
</a>
</g>
</g>
<!-- Node2&#45;&gt;Node4 -->
<g id="edge3" class="edge">
<title>Node2&#45;&gt;Node4</title>
<path fill="none" stroke="midnightblue" d="M98.73,-168.45C97.83,-155.9 96.98,-131.81 101.5,-112 103.64,-102.62 107.76,-92.8 111.71,-84.73"/>
<polygon fill="midnightblue" stroke="midnightblue" points="114.94,-86.1 116.46,-75.61 108.73,-82.87 114.94,-86.1"/>
</g>
<!-- Node6 -->
<g id="node6" class="node">
<title>Node6</title>
<g id="a_node6"><a xlink:title=" ">
<polygon fill="white" stroke="#bfbfbf" points="0,-0.5 0,-19.5 41,-19.5 41,-0.5 0,-0.5"/>
<text text-anchor="middle" x="20.5" y="-7.5" font-family="Helvetica,sans-Serif" font-size="10.00">string</text>
</a>
</g>
</g>
<!-- Node2&#45;&gt;Node6 -->
<g id="edge11" class="edge">
<title>Node2&#45;&gt;Node6</title>
<path fill="none" stroke="midnightblue" d="M88.69,-168.42C69.72,-152.57 31.04,-116.6 16.5,-76 11.14,-61.03 12.87,-42.89 15.53,-29.59"/>
<polygon fill="midnightblue" stroke="midnightblue" points="18.97,-30.25 17.84,-19.72 12.15,-28.66 18.97,-30.25"/>
</g>
<!-- Node2&#45;&gt;Node7 -->
<g id="edge6" class="edge">
<title>Node2&#45;&gt;Node7</title>
<path fill="none" stroke="midnightblue" d="M112.51,-168.32C125.03,-159.98 144.18,-147.21 158.97,-137.35"/>
<polygon fill="midnightblue" stroke="midnightblue" points="161.14,-140.11 167.52,-131.65 157.26,-134.29 161.14,-140.11"/>
</g>
<!-- Node9 -->
<g id="node9" class="node">
<title>Node9</title>
<g id="a_node9"><a xlink:title=" ">
<polygon fill="white" stroke="#bfbfbf" points="25.5,-56.5 25.5,-75.5 79.5,-75.5 79.5,-56.5 25.5,-56.5"/>
<text text-anchor="middle" x="52.5" y="-63.5" font-family="Helvetica,sans-Serif" font-size="10.00">iostream</text>
</a>
</g>
</g>
<!-- Node2&#45;&gt;Node9 -->
<g id="edge12" class="edge">
<title>Node2&#45;&gt;Node9</title>
<path fill="none" stroke="midnightblue" d="M95.81,-168.37C88.16,-150.46 70.41,-108.92 60.17,-84.95"/>
<polygon fill="midnightblue" stroke="midnightblue" points="63.32,-83.41 56.17,-75.59 56.88,-86.16 63.32,-83.41"/>
</g>
<!-- Node5 -->
<g id="node5" class="node">
<title>Node5</title>
<g id="a_node5"><a xlink:title=" ">
<polygon fill="white" stroke="#bfbfbf" points="81.5,-0.5 81.5,-19.5 161.5,-19.5 161.5,-0.5 81.5,-0.5"/>
<text text-anchor="middle" x="121.5" y="-7.5" font-family="Helvetica,sans-Serif" font-size="10.00">taglib_config.h</text>
</a>
</g>
</g>
<!-- Node4&#45;&gt;Node5 -->
<g id="edge4" class="edge">
<title>Node4&#45;&gt;Node5</title>
<path fill="none" stroke="midnightblue" d="M121.5,-56.08C121.5,-49.01 121.5,-38.86 121.5,-29.99"/>
<polygon fill="midnightblue" stroke="midnightblue" points="125,-29.75 121.5,-19.75 118,-29.75 125,-29.75"/>
</g>
<!-- Node4&#45;&gt;Node6 -->
<g id="edge5" class="edge">
<title>Node4&#45;&gt;Node6</title>
<path fill="none" stroke="midnightblue" d="M105.27,-56.32C89.15,-47.7 64.2,-34.36 45.54,-24.39"/>
<polygon fill="midnightblue" stroke="midnightblue" points="47.16,-21.28 36.69,-19.65 43.86,-27.46 47.16,-21.28"/>
</g>
<!-- Node7&#45;&gt;Node3 -->
<g id="edge8" class="edge">
<title>Node7&#45;&gt;Node3</title>
<path fill="none" stroke="midnightblue" d="M195.28,-112.32C209.77,-103.82 232.07,-90.73 248.99,-80.8"/>
<polygon fill="midnightblue" stroke="midnightblue" points="250.9,-83.74 257.76,-75.65 247.36,-77.7 250.9,-83.74"/>
</g>
<!-- Node7&#45;&gt;Node4 -->
<g id="edge7" class="edge">
<title>Node7&#45;&gt;Node4</title>
<path fill="none" stroke="midnightblue" d="M171.02,-112.32C162.3,-104.34 149.16,-92.31 138.6,-82.65"/>
<polygon fill="midnightblue" stroke="midnightblue" points="140.89,-80 131.15,-75.83 136.17,-85.17 140.89,-80"/>
</g>
<!-- Node8 -->
<g id="node8" class="node">
<title>Node8</title>
<g id="a_node8"><a xlink:title=" ">
<polygon fill="white" stroke="#bfbfbf" points="163.5,-56.5 163.5,-75.5 207.5,-75.5 207.5,-56.5 163.5,-56.5"/>
<text text-anchor="middle" x="185.5" y="-63.5" font-family="Helvetica,sans-Serif" font-size="10.00">vector</text>
</a>
</g>
</g>
<!-- Node7&#45;&gt;Node8 -->
<g id="edge9" class="edge">
<title>Node7&#45;&gt;Node8</title>
<path fill="none" stroke="midnightblue" d="M181.33,-112.08C181.98,-105.01 182.92,-94.86 183.74,-85.99"/>
<polygon fill="midnightblue" stroke="midnightblue" points="187.25,-86.03 184.69,-75.75 180.28,-85.39 187.25,-86.03"/>
</g>
<!-- Node7&#45;&gt;Node9 -->
<g id="edge10" class="edge">
<title>Node7&#45;&gt;Node9</title>
<path fill="none" stroke="midnightblue" d="M160.22,-112.44C139.15,-103.56 105.98,-89.56 82.01,-79.45"/>
<polygon fill="midnightblue" stroke="midnightblue" points="83.26,-76.18 72.69,-75.52 80.54,-82.63 83.26,-76.18"/>
</g>
<!-- Node10&#45;&gt;Node3 -->
<g id="edge24" class="edge">
<title>Node10&#45;&gt;Node3</title>
<path fill="none" stroke="midnightblue" d="M374.21,-280.17C388.78,-251.53 429.48,-160.29 384.5,-112 368.15,-94.45 344.03,-83.59 322.36,-76.96"/>
<polygon fill="midnightblue" stroke="midnightblue" points="323.18,-73.56 312.61,-74.2 321.27,-80.29 323.18,-73.56"/>
</g>
<!-- Node11 -->
<g id="node11" class="node">
<title>Node11</title>
<g id="a_node11"><a xlink:href="id3v2frame_8h.html" target="_top" xlink:title=" ">
<polygon fill="white" stroke="black" points="182,-224.5 182,-243.5 255,-243.5 255,-224.5 182,-224.5"/>
<text text-anchor="middle" x="218.5" y="-231.5" font-family="Helvetica,sans-Serif" font-size="10.00">id3v2frame.h</text>
</a>
</g>
</g>
<!-- Node10&#45;&gt;Node11 -->
<g id="edge16" class="edge">
<title>Node10&#45;&gt;Node11</title>
<path fill="none" stroke="midnightblue" d="M345.57,-280.44C320.28,-271.4 280.2,-257.06 251.82,-246.92"/>
<polygon fill="midnightblue" stroke="midnightblue" points="252.91,-243.59 242.31,-243.52 250.55,-250.18 252.91,-243.59"/>
</g>
<!-- Node12 -->
<g id="node12" class="node">
<title>Node12</title>
<g id="a_node12"><a xlink:href="id3v2header_8h.html" target="_top" xlink:title=" ">
<polygon fill="white" stroke="black" points="316,-168.5 316,-187.5 393,-187.5 393,-168.5 316,-168.5"/>
<text text-anchor="middle" x="354.5" y="-175.5" font-family="Helvetica,sans-Serif" font-size="10.00">id3v2header.h</text>
</a>
</g>
</g>
<!-- Node10&#45;&gt;Node12 -->
<g id="edge20" class="edge">
<title>Node10&#45;&gt;Node12</title>
<path fill="none" stroke="midnightblue" d="M368.32,-280.37C365.9,-262.62 360.32,-221.67 357.04,-197.6"/>
<polygon fill="midnightblue" stroke="midnightblue" points="360.49,-197.03 355.67,-187.59 353.55,-197.97 360.49,-197.03"/>
</g>
<!-- Node11&#45;&gt;Node2 -->
<g id="edge17" class="edge">
<title>Node11&#45;&gt;Node2</title>
<path fill="none" stroke="midnightblue" d="M199.64,-224.44C180.23,-215.64 149.77,-201.81 127.54,-191.72"/>
<polygon fill="midnightblue" stroke="midnightblue" points="128.82,-188.46 118.27,-187.52 125.93,-194.84 128.82,-188.46"/>
</g>
<!-- Node11&#45;&gt;Node3 -->
<g id="edge19" class="edge">
<title>Node11&#45;&gt;Node3</title>
<path fill="none" stroke="midnightblue" d="M221.4,-224.08C229.94,-197.83 255.08,-120.55 266.61,-85.12"/>
<polygon fill="midnightblue" stroke="midnightblue" points="269.95,-86.16 269.71,-75.57 263.29,-83.99 269.95,-86.16"/>
</g>
<!-- Node11&#45;&gt;Node7 -->
<g id="edge18" class="edge">
<title>Node11&#45;&gt;Node7</title>
<path fill="none" stroke="midnightblue" d="M215.52,-224.37C209.36,-206.54 195.11,-165.3 186.81,-141.27"/>
<polygon fill="midnightblue" stroke="midnightblue" points="190.04,-139.9 183.47,-131.59 183.43,-142.19 190.04,-139.9"/>
</g>
<!-- Node12&#45;&gt;Node3 -->
<g id="edge22" class="edge">
<title>Node12&#45;&gt;Node3</title>
<path fill="none" stroke="midnightblue" d="M360.16,-168.29C367.94,-155.1 379.77,-129.73 368.5,-112 358.17,-95.75 340.25,-85.26 322.67,-78.55"/>
<polygon fill="midnightblue" stroke="midnightblue" points="323.58,-75.16 312.98,-75.19 321.29,-81.77 323.58,-75.16"/>
</g>
<!-- Node12&#45;&gt;Node7 -->
<g id="edge21" class="edge">
<title>Node12&#45;&gt;Node7</title>
<path fill="none" stroke="midnightblue" d="M326.93,-168.44C297.4,-159.28 250.38,-144.69 217.62,-134.52"/>
<polygon fill="midnightblue" stroke="midnightblue" points="218.53,-131.14 207.94,-131.52 216.46,-137.82 218.53,-131.14"/>
</g>
<!-- Node13 -->
<g id="node13" class="node">
<title>Node13</title>
<g id="a_node13"><a xlink:href="id3v2_8h.html" target="_top" xlink:title=" ">
<polygon fill="white" stroke="black" points="311.5,-112.5 311.5,-131.5 359.5,-131.5 359.5,-112.5 311.5,-112.5"/>
<text text-anchor="middle" x="335.5" y="-119.5" font-family="Helvetica,sans-Serif" font-size="10.00">id3v2.h</text>
</a>
</g>
</g>
<!-- Node12&#45;&gt;Node13 -->
<g id="edge23" class="edge">
<title>Node12&#45;&gt;Node13</title>
<path fill="none" stroke="midnightblue" d="M351.36,-168.08C348.82,-160.85 345.14,-150.41 341.97,-141.4"/>
<polygon fill="midnightblue" stroke="midnightblue" points="345.2,-140.02 338.58,-131.75 338.6,-142.35 345.2,-140.02"/>
</g>
</g>
</svg>
