<?xml version="1.0" encoding="UTF-8" standalone="no"?>
<!DOCTYPE svg PUBLIC "-//W3C//DTD SVG 1.1//EN"
 "http://www.w3.org/Graphics/SVG/1.1/DTD/svg11.dtd">
<!-- Generated by graphviz version 2.43.0 (0)
 -->
<!-- Title: asfpicture.h Pages: 1 -->
<svg width="402pt" height="196pt"
 viewBox="0.00 0.00 401.50 196.00" xmlns="http://www.w3.org/2000/svg" xmlns:xlink="http://www.w3.org/1999/xlink">
<g id="graph0" class="graph" transform="scale(1 1) rotate(0) translate(4 192)">
<title>asfpicture.h</title>
<polygon fill="white" stroke="transparent" points="-4,4 -4,-192 397.5,-192 397.5,4 -4,4"/>
<!-- Node1 -->
<g id="node1" class="node">
<title>Node1</title>
<g id="a_node1"><a xlink:title=" ">
<polygon fill="#bfbfbf" stroke="black" points="214,-168.5 214,-187.5 288,-187.5 288,-168.5 214,-168.5"/>
<text text-anchor="middle" x="251" y="-175.5" font-family="Helvetica,sans-Serif" font-size="10.00">asfpicture.h</text>
</a>
</g>
</g>
<!-- Node2 -->
<g id="node2" class="node">
<title>Node2</title>
<g id="a_node2"><a xlink:href="tstring_8h.html" target="_top" xlink:title=" ">
<polygon fill="white" stroke="black" points="178.5,-112.5 178.5,-131.5 235.5,-131.5 235.5,-112.5 178.5,-112.5"/>
<text text-anchor="middle" x="207" y="-119.5" font-family="Helvetica,sans-Serif" font-size="10.00">tstring.h</text>
</a>
</g>
</g>
<!-- Node1&#45;&gt;Node2 -->
<g id="edge1" class="edge">
<title>Node1&#45;&gt;Node2</title>
<path fill="none" stroke="midnightblue" d="M243.73,-168.08C237.46,-160.38 228.21,-149.03 220.57,-139.65"/>
<polygon fill="midnightblue" stroke="midnightblue" points="223.16,-137.29 214.13,-131.75 217.73,-141.71 223.16,-137.29"/>
</g>
<!-- Node4 -->
<g id="node4" class="node">
<title>Node4</title>
<g id="a_node4"><a xlink:href="tbytevector_8h.html" target="_top" xlink:title=" ">
<polygon fill="white" stroke="black" points="70.5,-56.5 70.5,-75.5 151.5,-75.5 151.5,-56.5 70.5,-56.5"/>
<text text-anchor="middle" x="111" y="-63.5" font-family="Helvetica,sans-Serif" font-size="10.00">tbytevector.h</text>
</a>
</g>
</g>
<!-- Node1&#45;&gt;Node4 -->
<g id="edge9" class="edge">
<title>Node1&#45;&gt;Node4</title>
<path fill="none" stroke="midnightblue" d="M230.96,-168.36C213.6,-160.35 188.32,-147.37 169,-132 151.33,-117.94 134.54,-98.17 123.62,-84.14"/>
<polygon fill="midnightblue" stroke="midnightblue" points="126.17,-81.71 117.34,-75.86 120.59,-85.94 126.17,-81.71"/>
</g>
<!-- Node8 -->
<g id="node8" class="node">
<title>Node8</title>
<g id="a_node8"><a xlink:href="taglib__export_8h.html" target="_top" xlink:title=" ">
<polygon fill="white" stroke="black" points="208,-0.5 208,-19.5 298,-19.5 298,-0.5 208,-0.5"/>
<text text-anchor="middle" x="253" y="-7.5" font-family="Helvetica,sans-Serif" font-size="10.00">taglib_export.h</text>
</a>
</g>
</g>
<!-- Node1&#45;&gt;Node8 -->
<g id="edge11" class="edge">
<title>Node1&#45;&gt;Node8</title>
<path fill="none" stroke="midnightblue" d="M251.11,-168.08C251.42,-141.95 252.35,-65.21 252.78,-29.58"/>
<polygon fill="midnightblue" stroke="midnightblue" points="256.28,-29.61 252.9,-19.57 249.28,-29.53 256.28,-29.61"/>
</g>
<!-- Node9 -->
<g id="node9" class="node">
<title>Node9</title>
<g id="a_node9"><a xlink:href="tpicturetype_8h.html" target="_top" xlink:title=" ">
<polygon fill="white" stroke="black" points="308.5,-112.5 308.5,-131.5 393.5,-131.5 393.5,-112.5 308.5,-112.5"/>
<text text-anchor="middle" x="351" y="-119.5" font-family="Helvetica,sans-Serif" font-size="10.00">tpicturetype.h</text>
</a>
</g>
</g>
<!-- Node1&#45;&gt;Node9 -->
<g id="edge10" class="edge">
<title>Node1&#45;&gt;Node9</title>
<path fill="none" stroke="midnightblue" d="M267.07,-168.32C282.96,-159.74 307.51,-146.49 325.96,-136.52"/>
<polygon fill="midnightblue" stroke="midnightblue" points="327.84,-139.49 334.97,-131.65 324.51,-133.33 327.84,-139.49"/>
</g>
<!-- Node3 -->
<g id="node3" class="node">
<title>Node3</title>
<g id="a_node3"><a xlink:title=" ">
<polygon fill="white" stroke="#bfbfbf" points="170,-56.5 170,-75.5 214,-75.5 214,-56.5 170,-56.5"/>
<text text-anchor="middle" x="192" y="-63.5" font-family="Helvetica,sans-Serif" font-size="10.00">string</text>
</a>
</g>
</g>
<!-- Node2&#45;&gt;Node3 -->
<g id="edge2" class="edge">
<title>Node2&#45;&gt;Node3</title>
<path fill="none" stroke="midnightblue" d="M204.52,-112.08C202.51,-104.85 199.61,-94.41 197.11,-85.4"/>
<polygon fill="midnightblue" stroke="midnightblue" points="200.48,-84.45 194.43,-75.75 193.74,-86.32 200.48,-84.45"/>
</g>
<!-- Node2&#45;&gt;Node4 -->
<g id="edge3" class="edge">
<title>Node2&#45;&gt;Node4</title>
<path fill="none" stroke="midnightblue" d="M191.58,-112.32C176.46,-103.82 153.18,-90.73 135.53,-80.8"/>
<polygon fill="midnightblue" stroke="midnightblue" points="136.82,-77.51 126.39,-75.65 133.39,-83.61 136.82,-77.51"/>
</g>
<!-- Node2&#45;&gt;Node8 -->
<g id="edge8" class="edge">
<title>Node2&#45;&gt;Node8</title>
<path fill="none" stroke="midnightblue" d="M210.61,-112.37C218.1,-94.46 235.47,-52.92 245.49,-28.95"/>
<polygon fill="midnightblue" stroke="midnightblue" points="248.78,-30.17 249.41,-19.59 242.32,-27.47 248.78,-30.17"/>
</g>
<!-- Node5 -->
<g id="node5" class="node">
<title>Node5</title>
<g id="a_node5"><a xlink:title=" ">
<polygon fill="white" stroke="#bfbfbf" points="0,-0.5 0,-19.5 58,-19.5 58,-0.5 0,-0.5"/>
<text text-anchor="middle" x="29" y="-7.5" font-family="Helvetica,sans-Serif" font-size="10.00">memory</text>
</a>
</g>
</g>
<!-- Node4&#45;&gt;Node5 -->
<g id="edge4" class="edge">
<title>Node4&#45;&gt;Node5</title>
<path fill="none" stroke="midnightblue" d="M97.83,-56.32C85.15,-47.98 65.77,-35.21 50.79,-25.35"/>
<polygon fill="midnightblue" stroke="midnightblue" points="52.42,-22.23 42.14,-19.65 48.57,-28.08 52.42,-22.23"/>
</g>
<!-- Node6 -->
<g id="node6" class="node">
<title>Node6</title>
<g id="a_node6"><a xlink:title=" ">
<polygon fill="white" stroke="#bfbfbf" points="76.5,-0.5 76.5,-19.5 123.5,-19.5 123.5,-0.5 76.5,-0.5"/>
<text text-anchor="middle" x="100" y="-7.5" font-family="Helvetica,sans-Serif" font-size="10.00">vector</text>
</a>
</g>
</g>
<!-- Node4&#45;&gt;Node6 -->
<g id="edge5" class="edge">
<title>Node4&#45;&gt;Node6</title>
<path fill="none" stroke="midnightblue" d="M109.18,-56.08C107.73,-48.93 105.63,-38.64 103.81,-29.69"/>
<polygon fill="midnightblue" stroke="midnightblue" points="107.21,-28.85 101.78,-19.75 100.35,-30.25 107.21,-28.85"/>
</g>
<!-- Node7 -->
<g id="node7" class="node">
<title>Node7</title>
<g id="a_node7"><a xlink:title=" ">
<polygon fill="white" stroke="#bfbfbf" points="142,-0.5 142,-19.5 190,-19.5 190,-0.5 142,-0.5"/>
<text text-anchor="middle" x="166" y="-7.5" font-family="Helvetica,sans-Serif" font-size="10.00">iosfwd</text>
</a>
</g>
</g>
<!-- Node4&#45;&gt;Node7 -->
<g id="edge6" class="edge">
<title>Node4&#45;&gt;Node7</title>
<path fill="none" stroke="midnightblue" d="M120.08,-56.08C128.17,-48.14 140.2,-36.34 149.91,-26.8"/>
<polygon fill="midnightblue" stroke="midnightblue" points="152.4,-29.25 157.09,-19.75 147.5,-24.26 152.4,-29.25"/>
</g>
<!-- Node4&#45;&gt;Node8 -->
<g id="edge7" class="edge">
<title>Node4&#45;&gt;Node8</title>
<path fill="none" stroke="midnightblue" d="M133.5,-56.44C157.08,-47.48 194.32,-33.31 220.96,-23.18"/>
<polygon fill="midnightblue" stroke="midnightblue" points="222.5,-26.34 230.6,-19.52 220.01,-19.8 222.5,-26.34"/>
</g>
</g>
</svg>
