<?xml version="1.0" encoding="UTF-8" standalone="no"?>
<!DOCTYPE svg PUBLIC "-//W3C//DTD SVG 1.1//EN"
 "http://www.w3.org/Graphics/SVG/1.1/DTD/svg11.dtd">
<!-- Generated by graphviz version 2.43.0 (0)
 -->
<!-- Title: asftag.h Pages: 1 -->
<svg width="779pt" height="476pt"
 viewBox="0.00 0.00 779.00 476.00" xmlns="http://www.w3.org/2000/svg" xmlns:xlink="http://www.w3.org/1999/xlink">
<g id="graph0" class="graph" transform="scale(1 1) rotate(0) translate(4 472)">
<title>asftag.h</title>
<polygon fill="white" stroke="transparent" points="-4,4 -4,-472 775,-472 775,4 -4,4"/>
<!-- Node1 -->
<g id="node1" class="node">
<title>Node1</title>
<g id="a_node1"><a xlink:title=" ">
<polygon fill="#bfbfbf" stroke="black" points="531,-448.5 531,-467.5 587,-467.5 587,-448.5 531,-448.5"/>
<text text-anchor="middle" x="559" y="-455.5" font-family="Helvetica,sans-Serif" font-size="10.00">asftag.h</text>
</a>
</g>
</g>
<!-- Node2 -->
<g id="node2" class="node">
<title>Node2</title>
<g id="a_node2"><a xlink:href="tag_8h.html" target="_top" xlink:title=" ">
<polygon fill="white" stroke="black" points="701.5,-224.5 701.5,-243.5 742.5,-243.5 742.5,-224.5 701.5,-224.5"/>
<text text-anchor="middle" x="722" y="-231.5" font-family="Helvetica,sans-Serif" font-size="10.00">tag.h</text>
</a>
</g>
</g>
<!-- Node1&#45;&gt;Node2 -->
<g id="edge1" class="edge">
<title>Node1&#45;&gt;Node2</title>
<path fill="none" stroke="midnightblue" d="M575.89,-448.27C603.36,-433.21 657.61,-399.69 687,-356 708.49,-324.06 716.97,-278.83 720.18,-253.69"/>
<polygon fill="midnightblue" stroke="midnightblue" points="723.66,-254 721.31,-243.68 716.71,-253.22 723.66,-254"/>
</g>
<!-- Node3 -->
<g id="node3" class="node">
<title>Node3</title>
<g id="a_node3"><a xlink:href="taglib__export_8h.html" target="_top" xlink:title=" ">
<polygon fill="white" stroke="black" points="552,-56.5 552,-75.5 642,-75.5 642,-56.5 552,-56.5"/>
<text text-anchor="middle" x="597" y="-63.5" font-family="Helvetica,sans-Serif" font-size="10.00">taglib_export.h</text>
</a>
</g>
</g>
<!-- Node1&#45;&gt;Node3 -->
<g id="edge23" class="edge">
<title>Node1&#45;&gt;Node3</title>
<path fill="none" stroke="midnightblue" d="M587.15,-455.22C644.82,-449.9 771,-428.89 771,-347 771,-347 771,-347 771,-177 771,-119.87 703.16,-91.2 652.2,-77.72"/>
<polygon fill="midnightblue" stroke="midnightblue" points="652.81,-74.27 642.26,-75.22 651.11,-81.05 652.81,-74.27"/>
</g>
<!-- Node11 -->
<g id="node11" class="node">
<title>Node11</title>
<g id="a_node11"><a xlink:href="tlist_8h.html" target="_top" xlink:title=" ">
<polygon fill="white" stroke="black" points="53,-392.5 53,-411.5 97,-411.5 97,-392.5 53,-392.5"/>
<text text-anchor="middle" x="75" y="-399.5" font-family="Helvetica,sans-Serif" font-size="10.00">tlist.h</text>
</a>
</g>
</g>
<!-- Node1&#45;&gt;Node11 -->
<g id="edge15" class="edge">
<title>Node1&#45;&gt;Node11</title>
<path fill="none" stroke="midnightblue" d="M530.89,-453.86C446.65,-444.46 196.63,-416.57 107.23,-406.6"/>
<polygon fill="midnightblue" stroke="midnightblue" points="107.47,-403.1 97.15,-405.47 106.7,-410.06 107.47,-403.1"/>
</g>
<!-- Node14 -->
<g id="node14" class="node">
<title>Node14</title>
<g id="a_node14"><a xlink:href="tmap_8h.html" target="_top" xlink:title=" ">
<polygon fill="white" stroke="black" points="214.5,-392.5 214.5,-411.5 265.5,-411.5 265.5,-392.5 214.5,-392.5"/>
<text text-anchor="middle" x="240" y="-399.5" font-family="Helvetica,sans-Serif" font-size="10.00">tmap.h</text>
</a>
</g>
</g>
<!-- Node1&#45;&gt;Node14 -->
<g id="edge19" class="edge">
<title>Node1&#45;&gt;Node14</title>
<path fill="none" stroke="midnightblue" d="M530.97,-452.26C472.93,-442.43 339.68,-419.87 275.64,-409.03"/>
<polygon fill="midnightblue" stroke="midnightblue" points="276.06,-405.55 265.62,-407.34 274.89,-412.46 276.06,-405.55"/>
</g>
<!-- Node17 -->
<g id="node17" class="node">
<title>Node17</title>
<g id="a_node17"><a xlink:href="asfattribute_8h.html" target="_top" xlink:title=" ">
<polygon fill="white" stroke="black" points="517.5,-392.5 517.5,-411.5 600.5,-411.5 600.5,-392.5 517.5,-392.5"/>
<text text-anchor="middle" x="559" y="-399.5" font-family="Helvetica,sans-Serif" font-size="10.00">asfattribute.h</text>
</a>
</g>
</g>
<!-- Node1&#45;&gt;Node17 -->
<g id="edge24" class="edge">
<title>Node1&#45;&gt;Node17</title>
<path fill="none" stroke="midnightblue" d="M559,-448.08C559,-441.01 559,-430.86 559,-421.99"/>
<polygon fill="midnightblue" stroke="midnightblue" points="562.5,-421.75 559,-411.75 555.5,-421.75 562.5,-421.75"/>
</g>
<!-- Node2&#45;&gt;Node3 -->
<g id="edge2" class="edge">
<title>Node2&#45;&gt;Node3</title>
<path fill="none" stroke="midnightblue" d="M721.79,-224.29C720.82,-202.76 715.55,-146.28 687,-112 674.27,-96.71 655.05,-86.12 637.63,-79.07"/>
<polygon fill="midnightblue" stroke="midnightblue" points="638.79,-75.76 628.2,-75.51 636.32,-82.31 638.79,-75.76"/>
</g>
<!-- Node4 -->
<g id="node4" class="node">
<title>Node4</title>
<g id="a_node4"><a xlink:href="tstring_8h.html" target="_top" xlink:title=" ">
<polygon fill="white" stroke="black" points="454.5,-168.5 454.5,-187.5 511.5,-187.5 511.5,-168.5 454.5,-168.5"/>
<text text-anchor="middle" x="483" y="-175.5" font-family="Helvetica,sans-Serif" font-size="10.00">tstring.h</text>
</a>
</g>
</g>
<!-- Node2&#45;&gt;Node4 -->
<g id="edge3" class="edge">
<title>Node2&#45;&gt;Node4</title>
<path fill="none" stroke="midnightblue" d="M701.21,-228.3C661.15,-219.25 572.73,-199.27 521.59,-187.72"/>
<polygon fill="midnightblue" stroke="midnightblue" points="522.11,-184.25 511.58,-185.46 520.56,-191.08 522.11,-184.25"/>
</g>
<!-- Node4&#45;&gt;Node3 -->
<g id="edge4" class="edge">
<title>Node4&#45;&gt;Node3</title>
<path fill="none" stroke="midnightblue" d="M490.77,-168.33C502.28,-155.63 524.68,-131.36 545,-112 555.8,-101.71 568.46,-90.74 578.57,-82.2"/>
<polygon fill="midnightblue" stroke="midnightblue" points="580.95,-84.78 586.38,-75.68 576.46,-79.41 580.95,-84.78"/>
</g>
<!-- Node5 -->
<g id="node5" class="node">
<title>Node5</title>
<g id="a_node5"><a xlink:href="taglib_8h.html" target="_top" xlink:title=" ">
<polygon fill="white" stroke="black" points="165.5,-56.5 165.5,-75.5 218.5,-75.5 218.5,-56.5 165.5,-56.5"/>
<text text-anchor="middle" x="192" y="-63.5" font-family="Helvetica,sans-Serif" font-size="10.00">taglib.h</text>
</a>
</g>
</g>
<!-- Node4&#45;&gt;Node5 -->
<g id="edge5" class="edge">
<title>Node4&#45;&gt;Node5</title>
<path fill="none" stroke="midnightblue" d="M467.83,-168.48C443.55,-155.1 394.16,-128.92 350,-112 327.83,-103.5 267.66,-87.02 228.3,-76.54"/>
<polygon fill="midnightblue" stroke="midnightblue" points="229.09,-73.13 218.53,-73.95 227.3,-79.89 229.09,-73.13"/>
</g>
<!-- Node7 -->
<g id="node7" class="node">
<title>Node7</title>
<g id="a_node7"><a xlink:title=" ">
<polygon fill="white" stroke="#bfbfbf" points="373,-0.5 373,-19.5 417,-19.5 417,-0.5 373,-0.5"/>
<text text-anchor="middle" x="395" y="-7.5" font-family="Helvetica,sans-Serif" font-size="10.00">string</text>
</a>
</g>
</g>
<!-- Node4&#45;&gt;Node7 -->
<g id="edge13" class="edge">
<title>Node4&#45;&gt;Node7</title>
<path fill="none" stroke="midnightblue" d="M478.27,-168.08C464.3,-141.72 423.03,-63.88 404.36,-28.66"/>
<polygon fill="midnightblue" stroke="midnightblue" points="407.32,-26.76 399.54,-19.57 401.13,-30.04 407.32,-26.76"/>
</g>
<!-- Node8 -->
<g id="node8" class="node">
<title>Node8</title>
<g id="a_node8"><a xlink:href="tbytevector_8h.html" target="_top" xlink:title=" ">
<polygon fill="white" stroke="black" points="188.5,-112.5 188.5,-131.5 269.5,-131.5 269.5,-112.5 188.5,-112.5"/>
<text text-anchor="middle" x="229" y="-119.5" font-family="Helvetica,sans-Serif" font-size="10.00">tbytevector.h</text>
</a>
</g>
</g>
<!-- Node4&#45;&gt;Node8 -->
<g id="edge8" class="edge">
<title>Node4&#45;&gt;Node8</title>
<path fill="none" stroke="midnightblue" d="M454.36,-170.91C411.91,-161.89 331.68,-144.83 279.3,-133.69"/>
<polygon fill="midnightblue" stroke="midnightblue" points="279.72,-130.2 269.21,-131.55 278.26,-137.05 279.72,-130.2"/>
</g>
<!-- Node10 -->
<g id="node10" class="node">
<title>Node10</title>
<g id="a_node10"><a xlink:title=" ">
<polygon fill="white" stroke="#bfbfbf" points="333,-56.5 333,-75.5 393,-75.5 393,-56.5 333,-56.5"/>
<text text-anchor="middle" x="363" y="-63.5" font-family="Helvetica,sans-Serif" font-size="10.00">iostream</text>
</a>
</g>
</g>
<!-- Node4&#45;&gt;Node10 -->
<g id="edge14" class="edge">
<title>Node4&#45;&gt;Node10</title>
<path fill="none" stroke="midnightblue" d="M475.36,-168.19C464.02,-155.3 441.83,-130.81 421,-112 409.09,-101.25 394.87,-90.19 383.48,-81.72"/>
<polygon fill="midnightblue" stroke="midnightblue" points="385.55,-78.9 375.42,-75.8 381.41,-84.54 385.55,-78.9"/>
</g>
<!-- Node6 -->
<g id="node6" class="node">
<title>Node6</title>
<g id="a_node6"><a xlink:title=" ">
<polygon fill="white" stroke="#bfbfbf" points="148,-0.5 148,-19.5 236,-19.5 236,-0.5 148,-0.5"/>
<text text-anchor="middle" x="192" y="-7.5" font-family="Helvetica,sans-Serif" font-size="10.00">taglib_config.h</text>
</a>
</g>
</g>
<!-- Node5&#45;&gt;Node6 -->
<g id="edge6" class="edge">
<title>Node5&#45;&gt;Node6</title>
<path fill="none" stroke="midnightblue" d="M192,-56.08C192,-49.01 192,-38.86 192,-29.99"/>
<polygon fill="midnightblue" stroke="midnightblue" points="195.5,-29.75 192,-19.75 188.5,-29.75 195.5,-29.75"/>
</g>
<!-- Node5&#45;&gt;Node7 -->
<g id="edge7" class="edge">
<title>Node5&#45;&gt;Node7</title>
<path fill="none" stroke="midnightblue" d="M218.54,-57.94C255.71,-48.05 323.19,-30.1 363.07,-19.49"/>
<polygon fill="midnightblue" stroke="midnightblue" points="364.05,-22.85 372.82,-16.9 362.25,-16.09 364.05,-22.85"/>
</g>
<!-- Node8&#45;&gt;Node3 -->
<g id="edge10" class="edge">
<title>Node8&#45;&gt;Node3</title>
<path fill="none" stroke="midnightblue" d="M269.64,-113.55C272.8,-113.01 275.95,-112.49 279,-112 370.91,-97.23 478.19,-82.59 541.7,-74.18"/>
<polygon fill="midnightblue" stroke="midnightblue" points="542.44,-77.62 551.89,-72.84 541.52,-70.68 542.44,-77.62"/>
</g>
<!-- Node8&#45;&gt;Node5 -->
<g id="edge9" class="edge">
<title>Node8&#45;&gt;Node5</title>
<path fill="none" stroke="midnightblue" d="M222.89,-112.08C217.72,-104.53 210.15,-93.49 203.81,-84.23"/>
<polygon fill="midnightblue" stroke="midnightblue" points="206.54,-82.02 198,-75.75 200.76,-85.98 206.54,-82.02"/>
</g>
<!-- Node9 -->
<g id="node9" class="node">
<title>Node9</title>
<g id="a_node9"><a xlink:title=" ">
<polygon fill="white" stroke="#bfbfbf" points="236.5,-56.5 236.5,-75.5 283.5,-75.5 283.5,-56.5 236.5,-56.5"/>
<text text-anchor="middle" x="260" y="-63.5" font-family="Helvetica,sans-Serif" font-size="10.00">vector</text>
</a>
</g>
</g>
<!-- Node8&#45;&gt;Node9 -->
<g id="edge11" class="edge">
<title>Node8&#45;&gt;Node9</title>
<path fill="none" stroke="midnightblue" d="M234.12,-112.08C238.41,-104.61 244.66,-93.72 249.94,-84.52"/>
<polygon fill="midnightblue" stroke="midnightblue" points="253.03,-86.17 254.98,-75.75 246.96,-82.68 253.03,-86.17"/>
</g>
<!-- Node8&#45;&gt;Node10 -->
<g id="edge12" class="edge">
<title>Node8&#45;&gt;Node10</title>
<path fill="none" stroke="midnightblue" d="M250.23,-112.44C272.38,-103.52 307.32,-89.44 332.44,-79.32"/>
<polygon fill="midnightblue" stroke="midnightblue" points="333.9,-82.5 341.87,-75.52 331.28,-76.01 333.9,-82.5"/>
</g>
<!-- Node11&#45;&gt;Node5 -->
<g id="edge16" class="edge">
<title>Node11&#45;&gt;Node5</title>
<path fill="none" stroke="midnightblue" d="M59.75,-392.4C47.07,-384.5 29.46,-371.66 19,-356 2.28,-330.98 0,-321.1 0,-291 0,-291 0,-291 0,-177 0,-106.26 99.33,-80.38 155.1,-71.42"/>
<polygon fill="midnightblue" stroke="midnightblue" points="155.93,-74.83 165.3,-69.89 154.89,-67.91 155.93,-74.83"/>
</g>
<!-- Node12 -->
<g id="node12" class="node">
<title>Node12</title>
<g id="a_node12"><a xlink:title=" ">
<polygon fill="white" stroke="#bfbfbf" points="28,-336.5 28,-355.5 60,-355.5 60,-336.5 28,-336.5"/>
<text text-anchor="middle" x="44" y="-343.5" font-family="Helvetica,sans-Serif" font-size="10.00">list</text>
</a>
</g>
</g>
<!-- Node11&#45;&gt;Node12 -->
<g id="edge17" class="edge">
<title>Node11&#45;&gt;Node12</title>
<path fill="none" stroke="midnightblue" d="M69.88,-392.08C65.59,-384.61 59.34,-373.72 54.06,-364.52"/>
<polygon fill="midnightblue" stroke="midnightblue" points="57.04,-362.68 49.02,-355.75 50.97,-366.17 57.04,-362.68"/>
</g>
<!-- Node13 -->
<g id="node13" class="node">
<title>Node13</title>
<g id="a_node13"><a xlink:title=" ">
<polygon fill="white" stroke="#bfbfbf" points="78.5,-336.5 78.5,-355.5 131.5,-355.5 131.5,-336.5 78.5,-336.5"/>
<text text-anchor="middle" x="105" y="-343.5" font-family="Helvetica,sans-Serif" font-size="10.00">tlist.tcc</text>
</a>
</g>
</g>
<!-- Node11&#45;&gt;Node13 -->
<g id="edge18" class="edge">
<title>Node11&#45;&gt;Node13</title>
<path fill="none" stroke="midnightblue" d="M79.95,-392.08C84.1,-384.61 90.15,-373.72 95.27,-364.52"/>
<polygon fill="midnightblue" stroke="midnightblue" points="98.34,-366.19 100.14,-355.75 92.22,-362.79 98.34,-366.19"/>
</g>
<!-- Node14&#45;&gt;Node5 -->
<g id="edge21" class="edge">
<title>Node14&#45;&gt;Node5</title>
<path fill="none" stroke="midnightblue" d="M222.82,-392.41C209.05,-384.68 190.23,-372.07 179,-356 161.76,-331.33 160,-321.1 160,-291 160,-291 160,-291 160,-177 160,-143.33 173.99,-106.08 183.47,-84.72"/>
<polygon fill="midnightblue" stroke="midnightblue" points="186.67,-86.14 187.68,-75.59 180.32,-83.21 186.67,-86.14"/>
</g>
<!-- Node15 -->
<g id="node15" class="node">
<title>Node15</title>
<g id="a_node15"><a xlink:title=" ">
<polygon fill="white" stroke="#bfbfbf" points="188,-336.5 188,-355.5 226,-355.5 226,-336.5 188,-336.5"/>
<text text-anchor="middle" x="207" y="-343.5" font-family="Helvetica,sans-Serif" font-size="10.00">map</text>
</a>
</g>
</g>
<!-- Node14&#45;&gt;Node15 -->
<g id="edge20" class="edge">
<title>Node14&#45;&gt;Node15</title>
<path fill="none" stroke="midnightblue" d="M234.55,-392.08C229.99,-384.61 223.33,-373.72 217.71,-364.52"/>
<polygon fill="midnightblue" stroke="midnightblue" points="220.55,-362.46 212.35,-355.75 214.58,-366.11 220.55,-362.46"/>
</g>
<!-- Node16 -->
<g id="node16" class="node">
<title>Node16</title>
<g id="a_node16"><a xlink:title=" ">
<polygon fill="white" stroke="#bfbfbf" points="244.5,-336.5 244.5,-355.5 303.5,-355.5 303.5,-336.5 244.5,-336.5"/>
<text text-anchor="middle" x="274" y="-343.5" font-family="Helvetica,sans-Serif" font-size="10.00">tmap.tcc</text>
</a>
</g>
</g>
<!-- Node14&#45;&gt;Node16 -->
<g id="edge22" class="edge">
<title>Node14&#45;&gt;Node16</title>
<path fill="none" stroke="midnightblue" d="M245.61,-392.08C250.37,-384.53 257.32,-373.49 263.15,-364.23"/>
<polygon fill="midnightblue" stroke="midnightblue" points="266.12,-366.08 268.49,-355.75 260.2,-362.35 266.12,-366.08"/>
</g>
<!-- Node17&#45;&gt;Node3 -->
<g id="edge27" class="edge">
<title>Node17&#45;&gt;Node3</title>
<path fill="none" stroke="midnightblue" d="M579.64,-392.42C612.5,-377.23 673,-342.29 673,-291 673,-291 673,-291 673,-177 673,-137.28 639.04,-101.5 616.52,-82.15"/>
<polygon fill="midnightblue" stroke="midnightblue" points="618.48,-79.24 608.54,-75.57 614.02,-84.63 618.48,-79.24"/>
</g>
<!-- Node17&#45;&gt;Node4 -->
<g id="edge25" class="edge">
<title>Node17&#45;&gt;Node4</title>
<path fill="none" stroke="midnightblue" d="M561.93,-392.09C565.66,-379.5 571.14,-355.81 567,-336 555.88,-282.82 545.78,-270.69 518,-224 512.07,-214.03 504.22,-203.75 497.47,-195.54"/>
<polygon fill="midnightblue" stroke="midnightblue" points="500.08,-193.2 490.94,-187.83 494.73,-197.72 500.08,-193.2"/>
</g>
<!-- Node17&#45;&gt;Node8 -->
<g id="edge26" class="edge">
<title>Node17&#45;&gt;Node8</title>
<path fill="none" stroke="midnightblue" d="M526.01,-392.46C478.57,-378.94 390.05,-349 329,-300 275.37,-256.96 245.45,-176.9 234.21,-141.11"/>
<polygon fill="midnightblue" stroke="midnightblue" points="237.56,-140.08 231.32,-131.51 230.85,-142.1 237.56,-140.08"/>
</g>
<!-- Node18 -->
<g id="node18" class="node">
<title>Node18</title>
<g id="a_node18"><a xlink:href="asfpicture_8h.html" target="_top" xlink:title=" ">
<polygon fill="white" stroke="black" points="484,-336.5 484,-355.5 558,-355.5 558,-336.5 484,-336.5"/>
<text text-anchor="middle" x="521" y="-343.5" font-family="Helvetica,sans-Serif" font-size="10.00">asfpicture.h</text>
</a>
</g>
</g>
<!-- Node17&#45;&gt;Node18 -->
<g id="edge28" class="edge">
<title>Node17&#45;&gt;Node18</title>
<path fill="none" stroke="midnightblue" d="M552.73,-392.08C547.36,-384.46 539.48,-373.26 532.92,-363.94"/>
<polygon fill="midnightblue" stroke="midnightblue" points="535.78,-361.91 527.16,-355.75 530.05,-365.94 535.78,-361.91"/>
</g>
<!-- Node18&#45;&gt;Node3 -->
<g id="edge31" class="edge">
<title>Node18&#45;&gt;Node3</title>
<path fill="none" stroke="midnightblue" d="M525.48,-336.39C539.9,-308.1 585.09,-215.08 600,-132 602.75,-116.69 601.67,-99.05 600.09,-86.01"/>
<polygon fill="midnightblue" stroke="midnightblue" points="603.53,-85.32 598.66,-75.91 596.6,-86.31 603.53,-85.32"/>
</g>
<!-- Node18&#45;&gt;Node4 -->
<g id="edge29" class="edge">
<title>Node18&#45;&gt;Node4</title>
<path fill="none" stroke="midnightblue" d="M520.37,-336.34C518.75,-316.26 513.71,-265.1 502,-224 499.39,-214.82 495.4,-205.02 491.75,-196.92"/>
<polygon fill="midnightblue" stroke="midnightblue" points="494.86,-195.3 487.44,-187.73 488.52,-198.27 494.86,-195.3"/>
</g>
<!-- Node18&#45;&gt;Node8 -->
<g id="edge30" class="edge">
<title>Node18&#45;&gt;Node8</title>
<path fill="none" stroke="midnightblue" d="M483.86,-342.37C447.61,-338.22 392.33,-327.53 353,-300 321.91,-278.24 262.51,-180.32 238.97,-140.21"/>
<polygon fill="midnightblue" stroke="midnightblue" points="241.98,-138.42 233.91,-131.55 235.93,-141.95 241.98,-138.42"/>
</g>
<!-- Node19 -->
<g id="node19" class="node">
<title>Node19</title>
<g id="a_node19"><a xlink:href="attachedpictureframe_8h.html" target="_top" xlink:title=" ">
<polygon fill="white" stroke="black" points="361.5,-280.5 361.5,-299.5 492.5,-299.5 492.5,-280.5 361.5,-280.5"/>
<text text-anchor="middle" x="427" y="-287.5" font-family="Helvetica,sans-Serif" font-size="10.00">attachedpictureframe.h</text>
</a>
</g>
</g>
<!-- Node18&#45;&gt;Node19 -->
<g id="edge32" class="edge">
<title>Node18&#45;&gt;Node19</title>
<path fill="none" stroke="midnightblue" d="M505.9,-336.32C491.1,-327.82 468.31,-314.73 451.02,-304.8"/>
<polygon fill="midnightblue" stroke="midnightblue" points="452.48,-301.6 442.07,-299.65 448.99,-307.67 452.48,-301.6"/>
</g>
<!-- Node19&#45;&gt;Node3 -->
<g id="edge41" class="edge">
<title>Node19&#45;&gt;Node3</title>
<path fill="none" stroke="midnightblue" d="M445.63,-280.46C461.71,-272.5 484.95,-259.56 502,-244 547.38,-202.59 558.16,-188.19 583,-132 589.5,-117.3 593.07,-99.37 594.97,-86.06"/>
<polygon fill="midnightblue" stroke="midnightblue" points="598.49,-86.11 596.25,-75.76 591.55,-85.25 598.49,-86.11"/>
</g>
<!-- Node20 -->
<g id="node20" class="node">
<title>Node20</title>
<g id="a_node20"><a xlink:href="id3v2frame_8h.html" target="_top" xlink:title=" ">
<polygon fill="white" stroke="black" points="411,-224.5 411,-243.5 493,-243.5 493,-224.5 411,-224.5"/>
<text text-anchor="middle" x="452" y="-231.5" font-family="Helvetica,sans-Serif" font-size="10.00">id3v2frame.h</text>
</a>
</g>
</g>
<!-- Node19&#45;&gt;Node20 -->
<g id="edge33" class="edge">
<title>Node19&#45;&gt;Node20</title>
<path fill="none" stroke="midnightblue" d="M431.13,-280.08C434.51,-272.77 439.42,-262.18 443.62,-253.1"/>
<polygon fill="midnightblue" stroke="midnightblue" points="446.92,-254.3 447.95,-243.75 440.57,-251.36 446.92,-254.3"/>
</g>
<!-- Node21 -->
<g id="node21" class="node">
<title>Node21</title>
<g id="a_node21"><a xlink:href="id3v2header_8h.html" target="_top" xlink:title=" ">
<polygon fill="white" stroke="black" points="340,-168.5 340,-187.5 426,-187.5 426,-168.5 340,-168.5"/>
<text text-anchor="middle" x="383" y="-175.5" font-family="Helvetica,sans-Serif" font-size="10.00">id3v2header.h</text>
</a>
</g>
</g>
<!-- Node19&#45;&gt;Node21 -->
<g id="edge37" class="edge">
<title>Node19&#45;&gt;Node21</title>
<path fill="none" stroke="midnightblue" d="M421.42,-280.33C415.9,-271.47 407.51,-257.19 402,-244 395.63,-228.74 390.52,-210.64 387.22,-197.41"/>
<polygon fill="midnightblue" stroke="midnightblue" points="390.6,-196.53 384.87,-187.62 383.8,-198.16 390.6,-196.53"/>
</g>
<!-- Node20&#45;&gt;Node3 -->
<g id="edge36" class="edge">
<title>Node20&#45;&gt;Node3</title>
<path fill="none" stroke="midnightblue" d="M469.37,-224.43C484.29,-216.46 505.76,-203.5 521,-188 552.03,-156.44 576.72,-110.1 588.84,-84.91"/>
<polygon fill="midnightblue" stroke="midnightblue" points="592.04,-86.33 593.12,-75.79 585.7,-83.36 592.04,-86.33"/>
</g>
<!-- Node20&#45;&gt;Node4 -->
<g id="edge34" class="edge">
<title>Node20&#45;&gt;Node4</title>
<path fill="none" stroke="midnightblue" d="M457.12,-224.08C461.41,-216.61 467.66,-205.72 472.94,-196.52"/>
<polygon fill="midnightblue" stroke="midnightblue" points="476.03,-198.17 477.98,-187.75 469.96,-194.68 476.03,-198.17"/>
</g>
<!-- Node20&#45;&gt;Node8 -->
<g id="edge35" class="edge">
<title>Node20&#45;&gt;Node8</title>
<path fill="none" stroke="midnightblue" d="M423.91,-224.43C398.92,-216.37 361.7,-203.28 331,-188 301.17,-173.16 269.12,-151.74 249.08,-137.6"/>
<polygon fill="midnightblue" stroke="midnightblue" points="250.93,-134.62 240.76,-131.67 246.87,-140.32 250.93,-134.62"/>
</g>
<!-- Node21&#45;&gt;Node3 -->
<g id="edge39" class="edge">
<title>Node21&#45;&gt;Node3</title>
<path fill="none" stroke="midnightblue" d="M399.79,-168.37C437.06,-149.21 526.89,-103.04 571.29,-80.22"/>
<polygon fill="midnightblue" stroke="midnightblue" points="572.99,-83.28 580.29,-75.59 569.79,-77.05 572.99,-83.28"/>
</g>
<!-- Node21&#45;&gt;Node8 -->
<g id="edge38" class="edge">
<title>Node21&#45;&gt;Node8</title>
<path fill="none" stroke="midnightblue" d="M358.6,-168.44C332.8,-159.4 291.92,-145.06 262.98,-134.92"/>
<polygon fill="midnightblue" stroke="midnightblue" points="263.88,-131.52 253.29,-131.52 261.57,-138.13 263.88,-131.52"/>
</g>
<!-- Node22 -->
<g id="node22" class="node">
<title>Node22</title>
<g id="a_node22"><a xlink:href="id3v2_8h.html" target="_top" xlink:title=" ">
<polygon fill="white" stroke="black" points="287.5,-112.5 287.5,-131.5 340.5,-131.5 340.5,-112.5 287.5,-112.5"/>
<text text-anchor="middle" x="314" y="-119.5" font-family="Helvetica,sans-Serif" font-size="10.00">id3v2.h</text>
</a>
</g>
</g>
<!-- Node21&#45;&gt;Node22 -->
<g id="edge40" class="edge">
<title>Node21&#45;&gt;Node22</title>
<path fill="none" stroke="midnightblue" d="M371.91,-168.32C361.51,-160.18 345.74,-147.84 333.28,-138.09"/>
<polygon fill="midnightblue" stroke="midnightblue" points="335.32,-135.24 325.29,-131.83 331.01,-140.75 335.32,-135.24"/>
</g>
</g>
</svg>
