<?xml version="1.0" encoding="UTF-8" standalone="no"?>
<!DOCTYPE svg PUBLIC "-//W3C//DTD SVG 1.1//EN"
 "http://www.w3.org/Graphics/SVG/1.1/DTD/svg11.dtd">
<!-- Generated by graphviz version 2.42.4 (0)
 -->
<!-- Title: asftag.h Pages: 1 -->
<svg width="922pt" height="302pt"
 viewBox="0.00 0.00 921.50 302.00" xmlns="http://www.w3.org/2000/svg" xmlns:xlink="http://www.w3.org/1999/xlink">
<g id="graph0" class="graph" transform="scale(1 1) rotate(0) translate(4 298)">
<title>asftag.h</title>
<!-- Node1 -->
<g id="Node000001" class="node">
<title>Node1</title>
<g id="a_Node000001"><a xlink:title=" ">
<polygon fill="#999999" stroke="#666666" points="488.5,-294 432.5,-294 432.5,-275 488.5,-275 488.5,-294"/>
<text text-anchor="middle" x="460.5" y="-282" font-family="Helvetica,sans-Serif" font-size="10.00">asftag.h</text>
</a>
</g>
</g>
<!-- Node2 -->
<g id="Node000002" class="node">
<title>Node2</title>
<g id="a_Node000002"><a xlink:href="tlist_8h.html" target="_top" xlink:title=" ">
<polygon fill="white" stroke="#666666" points="384.5,-74 340.5,-74 340.5,-55 384.5,-55 384.5,-74"/>
<text text-anchor="middle" x="362.5" y="-62" font-family="Helvetica,sans-Serif" font-size="10.00">tlist.h</text>
</a>
</g>
</g>
<!-- Node1&#45;&gt;Node2 -->
<g id="edge1_Node000001_Node000002" class="edge">
<title>Node1&#45;&gt;Node2</title>
<g id="a_edge1_Node000001_Node000002"><a xlink:title=" ">
<path fill="none" stroke="#63b8ff" d="M456.41,-274.83C445.38,-251.41 414.22,-184.88 389.5,-129 382.76,-113.76 375.38,-96.34 370.04,-83.61"/>
<polygon fill="#63b8ff" stroke="#63b8ff" points="373.17,-82.04 366.09,-74.16 366.72,-84.74 373.17,-82.04"/>
</a>
</g>
</g>
<!-- Node7 -->
<g id="Node000007" class="node">
<title>Node7</title>
<g id="a_Node000007"><a xlink:href="tmap_8h.html" target="_top" xlink:title=" ">
<polygon fill="white" stroke="#666666" points="264,-74 213,-74 213,-55 264,-55 264,-74"/>
<text text-anchor="middle" x="238.5" y="-62" font-family="Helvetica,sans-Serif" font-size="10.00">tmap.h</text>
</a>
</g>
</g>
<!-- Node1&#45;&gt;Node7 -->
<g id="edge6_Node000001_Node000007" class="edge">
<title>Node1&#45;&gt;Node7</title>
<g id="a_edge6_Node000001_Node000007"><a xlink:title=" ">
<path fill="none" stroke="#63b8ff" d="M451.8,-274.95C418.44,-242.2 298.42,-124.34 254.63,-81.34"/>
<polygon fill="#63b8ff" stroke="#63b8ff" points="256.97,-78.73 247.38,-74.22 252.07,-83.73 256.97,-78.73"/>
</a>
</g>
</g>
<!-- Node11 -->
<g id="Node000011" class="node">
<title>Node11</title>
<g id="a_Node000011"><a xlink:href="taglib__export_8h.html" target="_top" xlink:title=" ">
<polygon fill="white" stroke="#666666" points="717.5,-19 627.5,-19 627.5,0 717.5,0 717.5,-19"/>
<text text-anchor="middle" x="672.5" y="-7" font-family="Helvetica,sans-Serif" font-size="10.00">taglib_export.h</text>
</a>
</g>
</g>
<!-- Node1&#45;&gt;Node11 -->
<g id="edge12_Node000001_Node000011" class="edge">
<title>Node1&#45;&gt;Node11</title>
<g id="a_edge12_Node000001_Node000011"><a xlink:title=" ">
<path fill="none" stroke="#63b8ff" d="M488.84,-282.85C588.01,-279.83 913.5,-263.22 913.5,-175.5 913.5,-175.5 913.5,-175.5 913.5,-118.5 913.5,-37.55 798.86,-16.89 727.71,-11.86"/>
<polygon fill="#63b8ff" stroke="#63b8ff" points="727.75,-8.35 717.55,-11.23 727.31,-15.34 727.75,-8.35"/>
</a>
</g>
</g>
<!-- Node12 -->
<g id="Node000012" class="node">
<title>Node12</title>
<g id="a_Node000012"><a xlink:href="tag_8h.html" target="_top" xlink:title=" ">
<polygon fill="white" stroke="#666666" points="481,-184 440,-184 440,-165 481,-165 481,-184"/>
<text text-anchor="middle" x="460.5" y="-172" font-family="Helvetica,sans-Serif" font-size="10.00">tag.h</text>
</a>
</g>
</g>
<!-- Node1&#45;&gt;Node12 -->
<g id="edge13_Node000001_Node000012" class="edge">
<title>Node1&#45;&gt;Node12</title>
<g id="a_edge13_Node000001_Node000012"><a xlink:title=" ">
<path fill="none" stroke="#63b8ff" d="M460.5,-274.66C460.5,-257.17 460.5,-217.8 460.5,-194.27"/>
<polygon fill="#63b8ff" stroke="#63b8ff" points="464,-194.16 460.5,-184.16 457,-194.16 464,-194.16"/>
</a>
</g>
</g>
<!-- Node19 -->
<g id="Node000019" class="node">
<title>Node19</title>
<g id="a_Node000019"><a xlink:href="asfattribute_8h.html" target="_top" xlink:title=" ">
<polygon fill="white" stroke="#666666" points="661,-239 578,-239 578,-220 661,-220 661,-239"/>
<text text-anchor="middle" x="619.5" y="-227" font-family="Helvetica,sans-Serif" font-size="10.00">asfattribute.h</text>
</a>
</g>
</g>
<!-- Node1&#45;&gt;Node19 -->
<g id="edge29_Node000001_Node000019" class="edge">
<title>Node1&#45;&gt;Node19</title>
<g id="a_edge29_Node000001_Node000019"><a xlink:title=" ">
<path fill="none" stroke="#63b8ff" d="M486.05,-274.98C512.62,-266.13 554.44,-252.19 584.17,-242.28"/>
<polygon fill="#63b8ff" stroke="#63b8ff" points="585.37,-245.56 593.75,-239.08 583.16,-238.92 585.37,-245.56"/>
</a>
</g>
</g>
<!-- Node3 -->
<g id="Node000003" class="node">
<title>Node3</title>
<g id="a_Node000003"><a xlink:title=" ">
<polygon fill="#e0e0e0" stroke="#999999" points="401.5,-19 369.5,-19 369.5,0 401.5,0 401.5,-19"/>
<text text-anchor="middle" x="385.5" y="-7" font-family="Helvetica,sans-Serif" font-size="10.00">list</text>
</a>
</g>
</g>
<!-- Node2&#45;&gt;Node3 -->
<g id="edge2_Node000002_Node000003" class="edge">
<title>Node2&#45;&gt;Node3</title>
<g id="a_edge2_Node000002_Node000003"><a xlink:title=" ">
<path fill="none" stroke="#63b8ff" d="M366.3,-54.75C369.41,-47.57 373.92,-37.18 377.79,-28.27"/>
<polygon fill="#63b8ff" stroke="#63b8ff" points="381,-29.66 381.77,-19.09 374.58,-26.87 381,-29.66"/>
</a>
</g>
</g>
<!-- Node4 -->
<g id="Node000004" class="node">
<title>Node4</title>
<g id="a_Node000004"><a xlink:title=" ">
<polygon fill="#e0e0e0" stroke="#999999" points="280,-19 197,-19 197,0 280,0 280,-19"/>
<text text-anchor="middle" x="238.5" y="-7" font-family="Helvetica,sans-Serif" font-size="10.00">initializer_list</text>
</a>
</g>
</g>
<!-- Node2&#45;&gt;Node4 -->
<g id="edge3_Node000002_Node000004" class="edge">
<title>Node2&#45;&gt;Node4</title>
<g id="a_edge3_Node000002_Node000004"><a xlink:title=" ">
<path fill="none" stroke="#63b8ff" d="M342.58,-54.98C322.45,-46.38 291.12,-32.99 268.09,-23.15"/>
<polygon fill="#63b8ff" stroke="#63b8ff" points="269.36,-19.88 258.79,-19.17 266.6,-26.32 269.36,-19.88"/>
</a>
</g>
</g>
<!-- Node5 -->
<g id="Node000005" class="node">
<title>Node5</title>
<g id="a_Node000005"><a xlink:title=" ">
<polygon fill="#e0e0e0" stroke="#999999" points="477.5,-19 419.5,-19 419.5,0 477.5,0 477.5,-19"/>
<text text-anchor="middle" x="448.5" y="-7" font-family="Helvetica,sans-Serif" font-size="10.00">memory</text>
</a>
</g>
</g>
<!-- Node2&#45;&gt;Node5 -->
<g id="edge4_Node000002_Node000005" class="edge">
<title>Node2&#45;&gt;Node5</title>
<g id="a_edge4_Node000002_Node000005"><a xlink:title=" ">
<path fill="none" stroke="#63b8ff" d="M376.32,-54.98C389.65,-46.77 410.08,-34.18 425.81,-24.49"/>
<polygon fill="#63b8ff" stroke="#63b8ff" points="427.75,-27.4 434.43,-19.17 424.08,-21.44 427.75,-27.4"/>
</a>
</g>
</g>
<!-- Node6 -->
<g id="Node000006" class="node">
<title>Node6</title>
<g id="a_Node000006"><a xlink:title=" ">
<polygon fill="#e0e0e0" stroke="#999999" points="351,-19 298,-19 298,0 351,0 351,-19"/>
<text text-anchor="middle" x="324.5" y="-7" font-family="Helvetica,sans-Serif" font-size="10.00">tlist.tcc</text>
</a>
</g>
</g>
<!-- Node2&#45;&gt;Node6 -->
<g id="edge5_Node000002_Node000006" class="edge">
<title>Node2&#45;&gt;Node6</title>
<g id="a_edge5_Node000002_Node000006"><a xlink:title=" ">
<path fill="none" stroke="#63b8ff" d="M356.23,-54.75C350.91,-47.34 343.14,-36.5 336.62,-27.41"/>
<polygon fill="#63b8ff" stroke="#63b8ff" points="339.33,-25.18 330.66,-19.09 333.64,-29.26 339.33,-25.18"/>
</a>
</g>
</g>
<!-- Node7&#45;&gt;Node4 -->
<g id="edge9_Node000007_Node000004" class="edge">
<title>Node7&#45;&gt;Node4</title>
<g id="a_edge9_Node000007_Node000004"><a xlink:title=" ">
<path fill="none" stroke="#63b8ff" d="M238.5,-54.75C238.5,-47.8 238.5,-37.85 238.5,-29.13"/>
<polygon fill="#63b8ff" stroke="#63b8ff" points="242,-29.09 238.5,-19.09 235,-29.09 242,-29.09"/>
</a>
</g>
</g>
<!-- Node7&#45;&gt;Node5 -->
<g id="edge8_Node000007_Node000005" class="edge">
<title>Node7&#45;&gt;Node5</title>
<g id="a_edge8_Node000007_Node000005"><a xlink:title=" ">
<path fill="none" stroke="#63b8ff" d="M264.25,-57C300.55,-47.84 367.06,-31.05 409.46,-20.35"/>
<polygon fill="#63b8ff" stroke="#63b8ff" points="410.32,-23.75 419.16,-17.9 408.61,-16.96 410.32,-23.75"/>
</a>
</g>
</g>
<!-- Node8 -->
<g id="Node000008" class="node">
<title>Node8</title>
<g id="a_Node000008"><a xlink:title=" ">
<polygon fill="#e0e0e0" stroke="#999999" points="115.5,-19 77.5,-19 77.5,0 115.5,0 115.5,-19"/>
<text text-anchor="middle" x="96.5" y="-7" font-family="Helvetica,sans-Serif" font-size="10.00">map</text>
</a>
</g>
</g>
<!-- Node7&#45;&gt;Node8 -->
<g id="edge7_Node000007_Node000008" class="edge">
<title>Node7&#45;&gt;Node8</title>
<g id="a_edge7_Node000007_Node000008"><a xlink:title=" ">
<path fill="none" stroke="#63b8ff" d="M215.69,-54.98C191.08,-45.8 151.84,-31.16 125.17,-21.2"/>
<polygon fill="#63b8ff" stroke="#63b8ff" points="126.21,-17.85 115.62,-17.63 123.76,-24.41 126.21,-17.85"/>
</a>
</g>
</g>
<!-- Node9 -->
<g id="Node000009" class="node">
<title>Node9</title>
<g id="a_Node000009"><a xlink:title=" ">
<polygon fill="#e0e0e0" stroke="#999999" points="179,-19 134,-19 134,0 179,0 179,-19"/>
<text text-anchor="middle" x="156.5" y="-7" font-family="Helvetica,sans-Serif" font-size="10.00">utility</text>
</a>
</g>
</g>
<!-- Node7&#45;&gt;Node9 -->
<g id="edge10_Node000007_Node000009" class="edge">
<title>Node7&#45;&gt;Node9</title>
<g id="a_edge10_Node000007_Node000009"><a xlink:title=" ">
<path fill="none" stroke="#63b8ff" d="M225.33,-54.98C212.73,-46.84 193.5,-34.41 178.56,-24.76"/>
<polygon fill="#63b8ff" stroke="#63b8ff" points="180.21,-21.66 169.91,-19.17 176.41,-27.54 180.21,-21.66"/>
</a>
</g>
</g>
<!-- Node10 -->
<g id="Node000010" class="node">
<title>Node10</title>
<g id="a_Node000010"><a xlink:title=" ">
<polygon fill="#e0e0e0" stroke="#999999" points="59,-19 0,-19 0,0 59,0 59,-19"/>
<text text-anchor="middle" x="29.5" y="-7" font-family="Helvetica,sans-Serif" font-size="10.00">tmap.tcc</text>
</a>
</g>
</g>
<!-- Node7&#45;&gt;Node10 -->
<g id="edge11_Node000007_Node000010" class="edge">
<title>Node7&#45;&gt;Node10</title>
<g id="a_edge11_Node000007_Node000010"><a xlink:title=" ">
<path fill="none" stroke="#63b8ff" d="M212.87,-57C176.92,-47.88 111.2,-31.22 68.98,-20.51"/>
<polygon fill="#63b8ff" stroke="#63b8ff" points="69.6,-17.06 59.04,-17.99 67.88,-23.84 69.6,-17.06"/>
</a>
</g>
</g>
<!-- Node12&#45;&gt;Node2 -->
<g id="edge23_Node000012_Node000002" class="edge">
<title>Node12&#45;&gt;Node2</title>
<g id="a_edge23_Node000012_Node000002"><a xlink:title=" ">
<path fill="none" stroke="#63b8ff" d="M449.34,-164.93C438.57,-156.4 422.09,-142.64 409.5,-129 396.03,-114.4 382.75,-95.99 373.77,-82.76"/>
<polygon fill="#63b8ff" stroke="#63b8ff" points="376.5,-80.55 368.04,-74.17 370.68,-84.43 376.5,-80.55"/>
</a>
</g>
</g>
<!-- Node12&#45;&gt;Node11 -->
<g id="edge14_Node000012_Node000011" class="edge">
<title>Node12&#45;&gt;Node11</title>
<g id="a_edge14_Node000012_Node000011"><a xlink:title=" ">
<path fill="none" stroke="#63b8ff" d="M471.49,-164.78C496.42,-145.05 559.23,-95.51 612.5,-55 625.66,-44.99 640.6,-33.91 652.27,-25.31"/>
<polygon fill="#63b8ff" stroke="#63b8ff" points="654.5,-28.02 660.48,-19.28 650.35,-22.38 654.5,-28.02"/>
</a>
</g>
</g>
<!-- Node13 -->
<g id="Node000013" class="node">
<title>Node13</title>
<g id="a_Node000013"><a xlink:href="tstring_8h.html" target="_top" xlink:title=" ">
<polygon fill="white" stroke="#666666" points="705,-129 648,-129 648,-110 705,-110 705,-129"/>
<text text-anchor="middle" x="676.5" y="-117" font-family="Helvetica,sans-Serif" font-size="10.00">tstring.h</text>
</a>
</g>
</g>
<!-- Node12&#45;&gt;Node13 -->
<g id="edge15_Node000012_Node000013" class="edge">
<title>Node12&#45;&gt;Node13</title>
<g id="a_edge15_Node000012_Node000013"><a xlink:title=" ">
<path fill="none" stroke="#63b8ff" d="M481.21,-168.42C517.24,-159.58 591.97,-141.24 637.83,-129.99"/>
<polygon fill="#63b8ff" stroke="#63b8ff" points="638.83,-133.35 647.71,-127.56 637.16,-126.55 638.83,-133.35"/>
</a>
</g>
</g>
<!-- Node18 -->
<g id="Node000018" class="node">
<title>Node18</title>
<g id="a_Node000018"><a xlink:href="tvariant_8h.html" target="_top" xlink:title=" ">
<polygon fill="white" stroke="#666666" points="482.5,-129 418.5,-129 418.5,-110 482.5,-110 482.5,-129"/>
<text text-anchor="middle" x="450.5" y="-117" font-family="Helvetica,sans-Serif" font-size="10.00">tvariant.h</text>
</a>
</g>
</g>
<!-- Node12&#45;&gt;Node18 -->
<g id="edge24_Node000012_Node000018" class="edge">
<title>Node12&#45;&gt;Node18</title>
<g id="a_edge24_Node000012_Node000018"><a xlink:title=" ">
<path fill="none" stroke="#63b8ff" d="M458.85,-164.75C457.54,-157.8 455.66,-147.85 454.02,-139.13"/>
<polygon fill="#63b8ff" stroke="#63b8ff" points="457.41,-138.27 452.12,-129.09 450.54,-139.56 457.41,-138.27"/>
</a>
</g>
</g>
<!-- Node13&#45;&gt;Node11 -->
<g id="edge22_Node000013_Node000011" class="edge">
<title>Node13&#45;&gt;Node11</title>
<g id="a_edge22_Node000013_Node000011"><a xlink:title=" ">
<path fill="none" stroke="#63b8ff" d="M685.76,-109.75C697.26,-97.77 714.56,-75.4 707.5,-55 703.83,-44.38 696.46,-34.38 689.42,-26.55"/>
<polygon fill="#63b8ff" stroke="#63b8ff" points="691.84,-24.02 682.38,-19.25 686.8,-28.88 691.84,-24.02"/>
</a>
</g>
</g>
<!-- Node14 -->
<g id="Node000014" class="node">
<title>Node14</title>
<g id="a_Node000014"><a xlink:title=" ">
<polygon fill="#e0e0e0" stroke="#999999" points="698.5,-74 654.5,-74 654.5,-55 698.5,-55 698.5,-74"/>
<text text-anchor="middle" x="676.5" y="-62" font-family="Helvetica,sans-Serif" font-size="10.00">string</text>
</a>
</g>
</g>
<!-- Node13&#45;&gt;Node14 -->
<g id="edge16_Node000013_Node000014" class="edge">
<title>Node13&#45;&gt;Node14</title>
<g id="a_edge16_Node000013_Node000014"><a xlink:title=" ">
<path fill="none" stroke="#63b8ff" d="M676.5,-109.75C676.5,-102.8 676.5,-92.85 676.5,-84.13"/>
<polygon fill="#63b8ff" stroke="#63b8ff" points="680,-84.09 676.5,-74.09 673,-84.09 680,-84.09"/>
</a>
</g>
</g>
<!-- Node15 -->
<g id="Node000015" class="node">
<title>Node15</title>
<g id="a_Node000015"><a xlink:href="tbytevector_8h.html" target="_top" xlink:title=" ">
<polygon fill="white" stroke="#666666" points="560,-74 479,-74 479,-55 560,-55 560,-74"/>
<text text-anchor="middle" x="519.5" y="-62" font-family="Helvetica,sans-Serif" font-size="10.00">tbytevector.h</text>
</a>
</g>
</g>
<!-- Node13&#45;&gt;Node15 -->
<g id="edge17_Node000013_Node000015" class="edge">
<title>Node13&#45;&gt;Node15</title>
<g id="a_edge17_Node000013_Node000015"><a xlink:title=" ">
<path fill="none" stroke="#63b8ff" d="M651.28,-109.98C625.14,-101.16 584.1,-87.31 554.77,-77.41"/>
<polygon fill="#63b8ff" stroke="#63b8ff" points="555.52,-73.96 544.92,-74.08 553.28,-80.6 555.52,-73.96"/>
</a>
</g>
</g>
<!-- Node15&#45;&gt;Node5 -->
<g id="edge18_Node000015_Node000005" class="edge">
<title>Node15&#45;&gt;Node5</title>
<g id="a_edge18_Node000015_Node000005"><a xlink:title=" ">
<path fill="none" stroke="#63b8ff" d="M508.09,-54.98C497.39,-47 481.16,-34.88 468.34,-25.31"/>
<polygon fill="#63b8ff" stroke="#63b8ff" points="470.22,-22.35 460.11,-19.17 466.03,-27.96 470.22,-22.35"/>
</a>
</g>
</g>
<!-- Node15&#45;&gt;Node11 -->
<g id="edge21_Node000015_Node000011" class="edge">
<title>Node15&#45;&gt;Node11</title>
<g id="a_edge21_Node000015_Node000011"><a xlink:title=" ">
<path fill="none" stroke="#63b8ff" d="M544.08,-54.98C569.55,-46.16 609.54,-32.31 638.13,-22.41"/>
<polygon fill="#63b8ff" stroke="#63b8ff" points="639.42,-25.66 647.73,-19.08 637.13,-19.05 639.42,-25.66"/>
</a>
</g>
</g>
<!-- Node16 -->
<g id="Node000016" class="node">
<title>Node16</title>
<g id="a_Node000016"><a xlink:title=" ">
<polygon fill="#e0e0e0" stroke="#999999" points="609,-19 562,-19 562,0 609,0 609,-19"/>
<text text-anchor="middle" x="585.5" y="-7" font-family="Helvetica,sans-Serif" font-size="10.00">vector</text>
</a>
</g>
</g>
<!-- Node15&#45;&gt;Node16 -->
<g id="edge19_Node000015_Node000016" class="edge">
<title>Node15&#45;&gt;Node16</title>
<g id="a_edge19_Node000015_Node000016"><a xlink:title=" ">
<path fill="none" stroke="#63b8ff" d="M530.1,-54.98C539.96,-47.07 554.85,-35.11 566.72,-25.58"/>
<polygon fill="#63b8ff" stroke="#63b8ff" points="569.1,-28.16 574.7,-19.17 564.71,-22.7 569.1,-28.16"/>
</a>
</g>
</g>
<!-- Node17 -->
<g id="Node000017" class="node">
<title>Node17</title>
<g id="a_Node000017"><a xlink:title=" ">
<polygon fill="#e0e0e0" stroke="#999999" points="543.5,-19 495.5,-19 495.5,0 543.5,0 543.5,-19"/>
<text text-anchor="middle" x="519.5" y="-7" font-family="Helvetica,sans-Serif" font-size="10.00">iosfwd</text>
</a>
</g>
</g>
<!-- Node15&#45;&gt;Node17 -->
<g id="edge20_Node000015_Node000017" class="edge">
<title>Node15&#45;&gt;Node17</title>
<g id="a_edge20_Node000015_Node000017"><a xlink:title=" ">
<path fill="none" stroke="#63b8ff" d="M519.5,-54.75C519.5,-47.8 519.5,-37.85 519.5,-29.13"/>
<polygon fill="#63b8ff" stroke="#63b8ff" points="523,-29.09 519.5,-19.09 516,-29.09 523,-29.09"/>
</a>
</g>
</g>
<!-- Node18&#45;&gt;Node2 -->
<g id="edge26_Node000018_Node000002" class="edge">
<title>Node18&#45;&gt;Node2</title>
<g id="a_edge26_Node000018_Node000002"><a xlink:title=" ">
<path fill="none" stroke="#63b8ff" d="M436.36,-109.98C422.71,-101.77 401.81,-89.18 385.72,-79.49"/>
<polygon fill="#63b8ff" stroke="#63b8ff" points="387.27,-76.33 376.9,-74.17 383.66,-82.33 387.27,-76.33"/>
</a>
</g>
</g>
<!-- Node18&#45;&gt;Node7 -->
<g id="edge27_Node000018_Node000007" class="edge">
<title>Node18&#45;&gt;Node7</title>
<g id="a_edge27_Node000018_Node000007"><a xlink:title=" ">
<path fill="none" stroke="#63b8ff" d="M418.3,-110.45C379.52,-100.75 314.56,-84.51 274.25,-74.44"/>
<polygon fill="#63b8ff" stroke="#63b8ff" points="274.87,-70.98 264.32,-71.95 273.17,-77.78 274.87,-70.98"/>
</a>
</g>
</g>
<!-- Node18&#45;&gt;Node11 -->
<g id="edge28_Node000018_Node000011" class="edge">
<title>Node18&#45;&gt;Node11</title>
<g id="a_edge28_Node000018_Node000011"><a xlink:title=" ">
<path fill="none" stroke="#63b8ff" d="M450.63,-109.66C451.34,-95.88 454.81,-69.36 470.5,-55 481.35,-45.07 561.02,-29.63 616.99,-19.79"/>
<polygon fill="#63b8ff" stroke="#63b8ff" points="617.9,-23.19 627.15,-18.03 616.7,-16.29 617.9,-23.19"/>
</a>
</g>
</g>
<!-- Node18&#45;&gt;Node17 -->
<g id="edge25_Node000018_Node000017" class="edge">
<title>Node18&#45;&gt;Node17</title>
<g id="a_edge25_Node000018_Node000017"><a xlink:title=" ">
<path fill="none" stroke="#63b8ff" d="M444.77,-109.64C437.23,-96.75 426.06,-72.44 436.5,-55 447.2,-37.13 467.81,-26.02 485.81,-19.37"/>
<polygon fill="#63b8ff" stroke="#63b8ff" points="487.1,-22.63 495.46,-16.13 484.87,-16 487.1,-22.63"/>
</a>
</g>
</g>
<!-- Node19&#45;&gt;Node11 -->
<g id="edge32_Node000019_Node000011" class="edge">
<title>Node19&#45;&gt;Node11</title>
<g id="a_edge32_Node000019_Node000011"><a xlink:title=" ">
<path fill="none" stroke="#63b8ff" d="M619.6,-219.9C620.15,-194.11 623.64,-115.43 645.5,-55 648.99,-45.35 654.7,-35.5 659.97,-27.54"/>
<polygon fill="#63b8ff" stroke="#63b8ff" points="662.95,-29.37 665.79,-19.17 657.21,-25.37 662.95,-29.37"/>
</a>
</g>
</g>
<!-- Node19&#45;&gt;Node13 -->
<g id="edge30_Node000019_Node000013" class="edge">
<title>Node19&#45;&gt;Node13</title>
<g id="a_edge30_Node000019_Node000013"><a xlink:title=" ">
<path fill="none" stroke="#63b8ff" d="M624.16,-219.66C633.56,-201.85 654.93,-161.37 667.26,-138.01"/>
<polygon fill="#63b8ff" stroke="#63b8ff" points="670.36,-139.64 671.93,-129.16 664.17,-136.37 670.36,-139.64"/>
</a>
</g>
</g>
<!-- Node19&#45;&gt;Node15 -->
<g id="edge31_Node000019_Node000015" class="edge">
<title>Node19&#45;&gt;Node15</title>
<g id="a_edge31_Node000019_Node000015"><a xlink:title=" ">
<path fill="none" stroke="#63b8ff" d="M614.12,-219.74C598.25,-193.87 551.39,-117.48 530.16,-82.88"/>
<polygon fill="#63b8ff" stroke="#63b8ff" points="533.12,-81 524.9,-74.31 527.15,-84.66 533.12,-81"/>
</a>
</g>
</g>
<!-- Node20 -->
<g id="Node000020" class="node">
<title>Node20</title>
<g id="a_Node000020"><a xlink:href="asfpicture_8h.html" target="_top" xlink:title=" ">
<polygon fill="white" stroke="#666666" points="770.5,-184 696.5,-184 696.5,-165 770.5,-165 770.5,-184"/>
<text text-anchor="middle" x="733.5" y="-172" font-family="Helvetica,sans-Serif" font-size="10.00">asfpicture.h</text>
</a>
</g>
</g>
<!-- Node19&#45;&gt;Node20 -->
<g id="edge33_Node000019_Node000020" class="edge">
<title>Node19&#45;&gt;Node20</title>
<g id="a_edge33_Node000019_Node000020"><a xlink:title=" ">
<path fill="none" stroke="#63b8ff" d="M637.82,-219.98C656.16,-211.46 684.61,-198.23 705.73,-188.41"/>
<polygon fill="#63b8ff" stroke="#63b8ff" points="707.26,-191.56 714.85,-184.17 704.31,-185.21 707.26,-191.56"/>
</a>
</g>
</g>
<!-- Node20&#45;&gt;Node11 -->
<g id="edge37_Node000020_Node000011" class="edge">
<title>Node20&#45;&gt;Node11</title>
<g id="a_edge37_Node000020_Node000011"><a xlink:title=" ">
<path fill="none" stroke="#63b8ff" d="M770.62,-169.07C814.13,-162.16 877.79,-145.71 856.5,-110 827.37,-61.13 764.99,-34.81 720.96,-21.75"/>
<polygon fill="#63b8ff" stroke="#63b8ff" points="721.89,-18.37 711.31,-19 719.98,-25.1 721.89,-18.37"/>
</a>
</g>
</g>
<!-- Node20&#45;&gt;Node13 -->
<g id="edge34_Node000020_Node000013" class="edge">
<title>Node20&#45;&gt;Node13</title>
<g id="a_edge34_Node000020_Node000013"><a xlink:title=" ">
<path fill="none" stroke="#63b8ff" d="M724.34,-164.98C716,-157.23 703.47,-145.58 693.32,-136.14"/>
<polygon fill="#63b8ff" stroke="#63b8ff" points="695.53,-133.42 685.82,-129.17 690.76,-138.54 695.53,-133.42"/>
</a>
</g>
</g>
<!-- Node20&#45;&gt;Node15 -->
<g id="edge35_Node000020_Node000015" class="edge">
<title>Node20&#45;&gt;Node15</title>
<g id="a_edge35_Node000020_Node000015"><a xlink:title=" ">
<path fill="none" stroke="#63b8ff" d="M733.51,-164.69C733.01,-150.94 729.96,-124.47 714.5,-110 693.92,-90.74 621.04,-78.02 570.46,-71.28"/>
<polygon fill="#63b8ff" stroke="#63b8ff" points="570.72,-67.78 560.35,-69.97 569.82,-74.73 570.72,-67.78"/>
</a>
</g>
</g>
<!-- Node21 -->
<g id="Node000021" class="node">
<title>Node21</title>
<g id="a_Node000021"><a xlink:href="tpicturetype_8h.html" target="_top" xlink:title=" ">
<polygon fill="white" stroke="#666666" points="847,-129 762,-129 762,-110 847,-110 847,-129"/>
<text text-anchor="middle" x="804.5" y="-117" font-family="Helvetica,sans-Serif" font-size="10.00">tpicturetype.h</text>
</a>
</g>
</g>
<!-- Node20&#45;&gt;Node21 -->
<g id="edge36_Node000020_Node000021" class="edge">
<title>Node20&#45;&gt;Node21</title>
<g id="a_edge36_Node000020_Node000021"><a xlink:title=" ">
<path fill="none" stroke="#63b8ff" d="M744.91,-164.98C755.61,-157 771.84,-144.88 784.66,-135.31"/>
<polygon fill="#63b8ff" stroke="#63b8ff" points="786.97,-137.96 792.89,-129.17 782.78,-132.35 786.97,-137.96"/>
</a>
</g>
</g>
</g>
</svg>
