<?xml version="1.0" encoding="UTF-8" standalone="no"?>
<!DOCTYPE svg PUBLIC "-//W3C//DTD SVG 1.1//EN"
 "http://www.w3.org/Graphics/SVG/1.1/DTD/svg11.dtd">
<!-- Generated by graphviz version 2.42.4 (0)
 -->
<!-- Title: audioproperties.h Pages: 1 -->
<svg width="2693pt" height="137pt"
 viewBox="0.00 0.00 2693.00 137.00" xmlns="http://www.w3.org/2000/svg" xmlns:xlink="http://www.w3.org/1999/xlink">
<g id="graph0" class="graph" transform="scale(1 1) rotate(0) translate(4 133)">
<title>audioproperties.h</title>
<!-- Node1 -->
<g id="Node000001" class="node">
<title>Node1</title>
<g id="a_Node000001"><a xlink:title=" ">
<polygon fill="#999999" stroke="#666666" points="1326.5,-129 1224.5,-129 1224.5,-110 1326.5,-110 1326.5,-129"/>
<text text-anchor="middle" x="1275.5" y="-117" font-family="Helvetica,sans-Serif" font-size="10.00">audioproperties.h</text>
</a>
</g>
</g>
<!-- Node2 -->
<g id="Node000002" class="node">
<title>Node2</title>
<g id="a_Node000002"><a xlink:href="aiffproperties_8h.html" target="_top" xlink:title=" ">
<polygon fill="white" stroke="#666666" points="91,-74 0,-74 0,-55 91,-55 91,-74"/>
<text text-anchor="middle" x="45.5" y="-62" font-family="Helvetica,sans-Serif" font-size="10.00">aiffproperties.h</text>
</a>
</g>
</g>
<!-- Node1&#45;&gt;Node2 -->
<g id="edge1_Node000001_Node000002" class="edge">
<title>Node1&#45;&gt;Node2</title>
<g id="a_edge1_Node000001_Node000002"><a xlink:title=" ">
<path fill="none" stroke="#63b8ff" d="M1214.33,-118.73C1039.8,-118.84 524.68,-115.36 99.5,-74 96.76,-73.73 93.95,-73.42 91.12,-73.07"/>
<polygon fill="#63b8ff" stroke="#63b8ff" points="1214.35,-122.23 1224.35,-118.72 1214.34,-115.23 1214.35,-122.23"/>
</a>
</g>
</g>
<!-- Node4 -->
<g id="Node000004" class="node">
<title>Node4</title>
<g id="a_Node000004"><a xlink:href="apeproperties_8h.html" target="_top" xlink:title=" ">
<polygon fill="white" stroke="#666666" points="202,-74 109,-74 109,-55 202,-55 202,-74"/>
<text text-anchor="middle" x="155.5" y="-62" font-family="Helvetica,sans-Serif" font-size="10.00">apeproperties.h</text>
</a>
</g>
</g>
<!-- Node1&#45;&gt;Node4 -->
<g id="edge3_Node000001_Node000004" class="edge">
<title>Node1&#45;&gt;Node4</title>
<g id="a_edge3_Node000001_Node000004"><a xlink:title=" ">
<path fill="none" stroke="#63b8ff" d="M1214.09,-118.27C1050.62,-117.14 591.46,-110.67 211.5,-74 208.47,-73.71 205.35,-73.36 202.2,-72.98"/>
<polygon fill="#63b8ff" stroke="#63b8ff" points="1214.4,-121.77 1224.42,-118.33 1214.45,-114.77 1214.4,-121.77"/>
</a>
</g>
</g>
<!-- Node6 -->
<g id="Node000006" class="node">
<title>Node6</title>
<g id="a_Node000006"><a xlink:href="asfproperties_8h.html" target="_top" xlink:title=" ">
<polygon fill="white" stroke="#666666" points="310.5,-74 220.5,-74 220.5,-55 310.5,-55 310.5,-74"/>
<text text-anchor="middle" x="265.5" y="-62" font-family="Helvetica,sans-Serif" font-size="10.00">asfproperties.h</text>
</a>
</g>
</g>
<!-- Node1&#45;&gt;Node6 -->
<g id="edge5_Node000001_Node000006" class="edge">
<title>Node1&#45;&gt;Node6</title>
<g id="a_edge5_Node000001_Node000006"><a xlink:title=" ">
<path fill="none" stroke="#63b8ff" d="M1214.25,-117.97C1062.34,-116.16 656.21,-108.23 319.5,-74 316.57,-73.7 313.56,-73.35 310.53,-72.97"/>
<polygon fill="#63b8ff" stroke="#63b8ff" points="1214.27,-121.47 1224.31,-118.09 1214.36,-114.47 1214.27,-121.47"/>
</a>
</g>
</g>
<!-- Node8 -->
<g id="Node000008" class="node">
<title>Node8</title>
<g id="a_Node000008"><a xlink:href="dsdiffproperties_8h.html" target="_top" xlink:title=" ">
<polygon fill="white" stroke="#666666" points="430.5,-74 328.5,-74 328.5,-55 430.5,-55 430.5,-74"/>
<text text-anchor="middle" x="379.5" y="-62" font-family="Helvetica,sans-Serif" font-size="10.00">dsdiffproperties.h</text>
</a>
</g>
</g>
<!-- Node1&#45;&gt;Node8 -->
<g id="edge7_Node000001_Node000008" class="edge">
<title>Node1&#45;&gt;Node8</title>
<g id="a_edge7_Node000001_Node000008"><a xlink:title=" ">
<path fill="none" stroke="#63b8ff" d="M1214.1,-117.07C1075.62,-113.45 728.53,-102.11 439.5,-74 436.57,-73.71 433.56,-73.39 430.53,-73.04"/>
<polygon fill="#63b8ff" stroke="#63b8ff" points="1214.4,-120.58 1224.49,-117.34 1214.58,-113.58 1214.4,-120.58"/>
</a>
</g>
</g>
<!-- Node10 -->
<g id="Node000010" class="node">
<title>Node10</title>
<g id="a_Node000010"><a xlink:href="dsfproperties_8h.html" target="_top" xlink:title=" ">
<polygon fill="white" stroke="#666666" points="538.5,-74 448.5,-74 448.5,-55 538.5,-55 538.5,-74"/>
<text text-anchor="middle" x="493.5" y="-62" font-family="Helvetica,sans-Serif" font-size="10.00">dsfproperties.h</text>
</a>
</g>
</g>
<!-- Node1&#45;&gt;Node10 -->
<g id="edge9_Node000001_Node000010" class="edge">
<title>Node1&#45;&gt;Node10</title>
<g id="a_edge9_Node000001_Node000010"><a xlink:title=" ">
<path fill="none" stroke="#63b8ff" d="M1213.98,-116.71C1088.4,-112.63 793.6,-100.83 547.5,-74 544.58,-73.68 541.57,-73.31 538.54,-72.92"/>
<polygon fill="#63b8ff" stroke="#63b8ff" points="1214.06,-120.22 1224.17,-117.04 1214.28,-113.22 1214.06,-120.22"/>
</a>
</g>
</g>
<!-- Node12 -->
<g id="Node000012" class="node">
<title>Node12</title>
<g id="a_Node000012"><a xlink:href="fileref_8h.html" target="_top" xlink:title=" ">
<polygon fill="white" stroke="#666666" points="610,-74 557,-74 557,-55 610,-55 610,-74"/>
<text text-anchor="middle" x="583.5" y="-62" font-family="Helvetica,sans-Serif" font-size="10.00">fileref.h</text>
</a>
</g>
</g>
<!-- Node1&#45;&gt;Node12 -->
<g id="edge11_Node000001_Node000012" class="edge">
<title>Node1&#45;&gt;Node12</title>
<g id="a_edge11_Node000001_Node000012"><a xlink:title=" ">
<path fill="none" stroke="#63b8ff" d="M1214,-117.69C1097.4,-115.4 836.44,-106.74 619.5,-74 616.45,-73.54 613.28,-72.95 610.14,-72.3"/>
<polygon fill="#63b8ff" stroke="#63b8ff" points="1214.09,-121.19 1224.15,-117.88 1214.22,-114.19 1214.09,-121.19"/>
</a>
</g>
</g>
<!-- Node13 -->
<g id="Node000013" class="node">
<title>Node13</title>
<g id="a_Node000013"><a xlink:href="flacproperties_8h.html" target="_top" xlink:title=" ">
<polygon fill="white" stroke="#666666" points="720.5,-74 628.5,-74 628.5,-55 720.5,-55 720.5,-74"/>
<text text-anchor="middle" x="674.5" y="-62" font-family="Helvetica,sans-Serif" font-size="10.00">flacproperties.h</text>
</a>
</g>
</g>
<!-- Node1&#45;&gt;Node13 -->
<g id="edge12_Node000001_Node000013" class="edge">
<title>Node1&#45;&gt;Node13</title>
<g id="a_edge12_Node000001_Node000013"><a xlink:title=" ">
<path fill="none" stroke="#63b8ff" d="M1214.04,-114.62C1113.57,-108.02 907.95,-93.4 734.5,-74 730,-73.5 725.33,-72.92 720.65,-72.32"/>
<polygon fill="#63b8ff" stroke="#63b8ff" points="1214.1,-118.13 1224.31,-115.29 1214.56,-111.15 1214.1,-118.13"/>
</a>
</g>
</g>
<!-- Node16 -->
<g id="Node000016" class="node">
<title>Node16</title>
<g id="a_Node000016"><a xlink:href="itfile_8h.html" target="_top" xlink:title=" ">
<polygon fill="white" stroke="#666666" points="810,-19 763,-19 763,0 810,0 810,-19"/>
<text text-anchor="middle" x="786.5" y="-7" font-family="Helvetica,sans-Serif" font-size="10.00">itfile.h</text>
</a>
</g>
</g>
<!-- Node1&#45;&gt;Node16 -->
<g id="edge15_Node000001_Node000016" class="edge">
<title>Node1&#45;&gt;Node16</title>
<g id="a_edge15_Node000001_Node000016"><a xlink:title=" ">
<path fill="none" stroke="#63b8ff" d="M1214.38,-117.67C1085.9,-115.3 797.16,-106.37 767.5,-74 753.2,-58.39 769.27,-32.41 779.44,-19.04"/>
<polygon fill="#63b8ff" stroke="#63b8ff" points="1214.4,-121.17 1224.46,-117.85 1214.52,-114.17 1214.4,-121.17"/>
</a>
</g>
</g>
<!-- Node17 -->
<g id="Node000017" class="node">
<title>Node17</title>
<g id="a_Node000017"><a xlink:href="itproperties_8h.html" target="_top" xlink:title=" ">
<polygon fill="white" stroke="#666666" points="858.5,-74 776.5,-74 776.5,-55 858.5,-55 858.5,-74"/>
<text text-anchor="middle" x="817.5" y="-62" font-family="Helvetica,sans-Serif" font-size="10.00">itproperties.h</text>
</a>
</g>
</g>
<!-- Node1&#45;&gt;Node17 -->
<g id="edge16_Node000001_Node000017" class="edge">
<title>Node1&#45;&gt;Node17</title>
<g id="a_edge16_Node000001_Node000017"><a xlink:title=" ">
<path fill="none" stroke="#63b8ff" d="M1214.12,-112.96C1134.15,-105.47 990.08,-91.09 867.5,-74 864.62,-73.6 861.66,-73.16 858.67,-72.7"/>
<polygon fill="#63b8ff" stroke="#63b8ff" points="1214.21,-116.48 1224.49,-113.92 1214.86,-109.51 1214.21,-116.48"/>
</a>
</g>
</g>
<!-- Node18 -->
<g id="Node000018" class="node">
<title>Node18</title>
<g id="a_Node000018"><a xlink:href="matroskaproperties_8h.html" target="_top" xlink:title=" ">
<polygon fill="white" stroke="#666666" points="998,-74 877,-74 877,-55 998,-55 998,-74"/>
<text text-anchor="middle" x="937.5" y="-62" font-family="Helvetica,sans-Serif" font-size="10.00">matroskaproperties.h</text>
</a>
</g>
</g>
<!-- Node1&#45;&gt;Node18 -->
<g id="edge18_Node000001_Node000018" class="edge">
<title>Node1&#45;&gt;Node18</title>
<g id="a_edge18_Node000001_Node000018"><a xlink:title=" ">
<path fill="none" stroke="#63b8ff" d="M1213.9,-108.84C1150.45,-98.89 1052.5,-83.53 991.84,-74.02"/>
<polygon fill="#63b8ff" stroke="#63b8ff" points="1213.74,-112.36 1224.17,-110.45 1214.83,-105.44 1213.74,-112.36"/>
</a>
</g>
</g>
<!-- Node20 -->
<g id="Node000020" class="node">
<title>Node20</title>
<g id="a_Node000020"><a xlink:href="modfile_8h.html" target="_top" xlink:title=" ">
<polygon fill="white" stroke="#666666" points="1097.5,-19 1035.5,-19 1035.5,0 1097.5,0 1097.5,-19"/>
<text text-anchor="middle" x="1066.5" y="-7" font-family="Helvetica,sans-Serif" font-size="10.00">modfile.h</text>
</a>
</g>
</g>
<!-- Node1&#45;&gt;Node20 -->
<g id="edge20_Node000001_Node000020" class="edge">
<title>Node1&#45;&gt;Node20</title>
<g id="a_edge20_Node000001_Node000020"><a xlink:title=" ">
<path fill="none" stroke="#63b8ff" d="M1214.12,-115.22C1153.38,-110.53 1066.51,-99.47 1045.5,-74 1032.05,-57.7 1048.34,-32.48 1058.88,-19.26"/>
<polygon fill="#63b8ff" stroke="#63b8ff" points="1214.16,-118.73 1224.39,-115.97 1214.67,-111.75 1214.16,-118.73"/>
</a>
</g>
</g>
<!-- Node21 -->
<g id="Node000021" class="node">
<title>Node21</title>
<g id="a_Node000021"><a xlink:href="modproperties_8h.html" target="_top" xlink:title=" ">
<polygon fill="white" stroke="#666666" points="1152,-74 1055,-74 1055,-55 1152,-55 1152,-74"/>
<text text-anchor="middle" x="1103.5" y="-62" font-family="Helvetica,sans-Serif" font-size="10.00">modproperties.h</text>
</a>
</g>
</g>
<!-- Node1&#45;&gt;Node21 -->
<g id="edge21_Node000001_Node000021" class="edge">
<title>Node1&#45;&gt;Node21</title>
<g id="a_edge21_Node000001_Node000021"><a xlink:title=" ">
<path fill="none" stroke="#63b8ff" d="M1237.94,-106.93C1205.82,-97.03 1160.31,-83.01 1131.35,-74.08"/>
<polygon fill="#63b8ff" stroke="#63b8ff" points="1237.28,-110.38 1247.87,-109.98 1239.34,-103.69 1237.28,-110.38"/>
</a>
</g>
</g>
<!-- Node22 -->
<g id="Node000022" class="node">
<title>Node22</title>
<g id="a_Node000022"><a xlink:href="mp4properties_8h.html" target="_top" xlink:title=" ">
<polygon fill="white" stroke="#666666" points="1267,-74 1170,-74 1170,-55 1267,-55 1267,-74"/>
<text text-anchor="middle" x="1218.5" y="-62" font-family="Helvetica,sans-Serif" font-size="10.00">mp4properties.h</text>
</a>
</g>
</g>
<!-- Node1&#45;&gt;Node22 -->
<g id="edge23_Node000001_Node000022" class="edge">
<title>Node1&#45;&gt;Node22</title>
<g id="a_edge23_Node000001_Node000022"><a xlink:title=" ">
<path fill="none" stroke="#63b8ff" d="M1258.88,-103.04C1248.77,-93.64 1236.22,-81.98 1227.82,-74.17"/>
<polygon fill="#63b8ff" stroke="#63b8ff" points="1256.64,-105.74 1266.34,-109.98 1261.4,-100.61 1256.64,-105.74"/>
</a>
</g>
</g>
<!-- Node24 -->
<g id="Node000024" class="node">
<title>Node24</title>
<g id="a_Node000024"><a xlink:href="mpcproperties_8h.html" target="_top" xlink:title=" ">
<polygon fill="white" stroke="#666666" points="1381.5,-74 1285.5,-74 1285.5,-55 1381.5,-55 1381.5,-74"/>
<text text-anchor="middle" x="1333.5" y="-62" font-family="Helvetica,sans-Serif" font-size="10.00">mpcproperties.h</text>
</a>
</g>
</g>
<!-- Node1&#45;&gt;Node24 -->
<g id="edge25_Node000001_Node000024" class="edge">
<title>Node1&#45;&gt;Node24</title>
<g id="a_edge25_Node000001_Node000024"><a xlink:title=" ">
<path fill="none" stroke="#63b8ff" d="M1292.41,-103.04C1302.7,-93.64 1315.47,-81.98 1324.01,-74.17"/>
<polygon fill="#63b8ff" stroke="#63b8ff" points="1289.84,-100.66 1284.82,-109.98 1294.56,-105.82 1289.84,-100.66"/>
</a>
</g>
</g>
<!-- Node26 -->
<g id="Node000026" class="node">
<title>Node26</title>
<g id="a_Node000026"><a xlink:href="mpegproperties_8h.html" target="_top" xlink:title=" ">
<polygon fill="white" stroke="#666666" points="1503,-74 1400,-74 1400,-55 1503,-55 1503,-74"/>
<text text-anchor="middle" x="1451.5" y="-62" font-family="Helvetica,sans-Serif" font-size="10.00">mpegproperties.h</text>
</a>
</g>
</g>
<!-- Node1&#45;&gt;Node26 -->
<g id="edge27_Node000001_Node000026" class="edge">
<title>Node1&#45;&gt;Node26</title>
<g id="a_edge27_Node000001_Node000026"><a xlink:title=" ">
<path fill="none" stroke="#63b8ff" d="M1313.5,-107.06C1346.4,-97.15 1393.24,-83.04 1423,-74.08"/>
<polygon fill="#63b8ff" stroke="#63b8ff" points="1312.34,-103.75 1303.78,-109.98 1314.36,-110.45 1312.34,-103.75"/>
</a>
</g>
</g>
<!-- Node28 -->
<g id="Node000028" class="node">
<title>Node28</title>
<g id="a_Node000028"><a xlink:href="opusproperties_8h.html" target="_top" xlink:title=" ">
<polygon fill="white" stroke="#666666" points="1619.5,-74 1521.5,-74 1521.5,-55 1619.5,-55 1619.5,-74"/>
<text text-anchor="middle" x="1570.5" y="-62" font-family="Helvetica,sans-Serif" font-size="10.00">opusproperties.h</text>
</a>
</g>
</g>
<!-- Node1&#45;&gt;Node28 -->
<g id="edge29_Node000001_Node000028" class="edge">
<title>Node1&#45;&gt;Node28</title>
<g id="a_edge29_Node000001_Node000028"><a xlink:title=" ">
<path fill="none" stroke="#63b8ff" d="M1332.89,-108.19C1388.2,-98.25 1470.91,-83.39 1522.73,-74.08"/>
<polygon fill="#63b8ff" stroke="#63b8ff" points="1332.12,-104.77 1322.9,-109.98 1333.36,-111.66 1332.12,-104.77"/>
</a>
</g>
</g>
<!-- Node30 -->
<g id="Node000030" class="node">
<title>Node30</title>
<g id="a_Node000030"><a xlink:href="s3mfile_8h.html" target="_top" xlink:title=" ">
<polygon fill="white" stroke="#666666" points="1718.5,-19 1656.5,-19 1656.5,0 1718.5,0 1718.5,-19"/>
<text text-anchor="middle" x="1687.5" y="-7" font-family="Helvetica,sans-Serif" font-size="10.00">s3mfile.h</text>
</a>
</g>
</g>
<!-- Node1&#45;&gt;Node30 -->
<g id="edge31_Node000001_Node000030" class="edge">
<title>Node1&#45;&gt;Node30</title>
<g id="a_edge31_Node000001_Node000030"><a xlink:title=" ">
<path fill="none" stroke="#63b8ff" d="M1336.76,-115.8C1423.99,-111.11 1578.93,-99.41 1628.5,-74 1653.41,-61.23 1673.27,-33.5 1682.27,-19.28"/>
<polygon fill="#63b8ff" stroke="#63b8ff" points="1336.53,-112.3 1326.73,-116.32 1336.9,-119.29 1336.53,-112.3"/>
</a>
</g>
</g>
<!-- Node31 -->
<g id="Node000031" class="node">
<title>Node31</title>
<g id="a_Node000031"><a xlink:href="s3mproperties_8h.html" target="_top" xlink:title=" ">
<polygon fill="white" stroke="#666666" points="1771.5,-74 1675.5,-74 1675.5,-55 1771.5,-55 1771.5,-74"/>
<text text-anchor="middle" x="1723.5" y="-62" font-family="Helvetica,sans-Serif" font-size="10.00">s3mproperties.h</text>
</a>
</g>
</g>
<!-- Node1&#45;&gt;Node31 -->
<g id="edge32_Node000001_Node000031" class="edge">
<title>Node1&#45;&gt;Node31</title>
<g id="a_edge32_Node000001_Node000031"><a xlink:title=" ">
<path fill="none" stroke="#63b8ff" d="M1337.11,-111.81C1413.34,-103.44 1547.08,-88.44 1661.5,-74 1666.03,-73.43 1670.74,-72.82 1675.45,-72.19"/>
<polygon fill="#63b8ff" stroke="#63b8ff" points="1336.3,-108.38 1326.74,-112.95 1337.06,-115.34 1336.3,-108.38"/>
</a>
</g>
</g>
<!-- Node32 -->
<g id="Node000032" class="node">
<title>Node32</title>
<g id="a_Node000032"><a xlink:href="shortenproperties_8h.html" target="_top" xlink:title=" ">
<polygon fill="white" stroke="#666666" points="1901.5,-74 1789.5,-74 1789.5,-55 1901.5,-55 1901.5,-74"/>
<text text-anchor="middle" x="1845.5" y="-62" font-family="Helvetica,sans-Serif" font-size="10.00">shortenproperties.h</text>
</a>
</g>
</g>
<!-- Node1&#45;&gt;Node32 -->
<g id="edge34_Node000001_Node000032" class="edge">
<title>Node1&#45;&gt;Node32</title>
<g id="a_edge34_Node000001_Node000032"><a xlink:title=" ">
<path fill="none" stroke="#63b8ff" d="M1336.84,-113.93C1431.97,-106.66 1620.74,-91.48 1780.5,-74 1783.44,-73.68 1786.46,-73.33 1789.5,-72.98"/>
<polygon fill="#63b8ff" stroke="#63b8ff" points="1336.53,-110.45 1326.82,-114.7 1337.06,-117.43 1336.53,-110.45"/>
</a>
</g>
</g>
<!-- Node34 -->
<g id="Node000034" class="node">
<title>Node34</title>
<g id="a_Node000034"><a xlink:href="speexproperties_8h.html" target="_top" xlink:title=" ">
<polygon fill="white" stroke="#666666" points="2023.5,-74 1919.5,-74 1919.5,-55 2023.5,-55 2023.5,-74"/>
<text text-anchor="middle" x="1971.5" y="-62" font-family="Helvetica,sans-Serif" font-size="10.00">speexproperties.h</text>
</a>
</g>
</g>
<!-- Node1&#45;&gt;Node34 -->
<g id="edge36_Node000001_Node000034" class="edge">
<title>Node1&#45;&gt;Node34</title>
<g id="a_edge36_Node000001_Node000034"><a xlink:title=" ">
<path fill="none" stroke="#63b8ff" d="M1336.86,-115.6C1450.32,-109.93 1700.52,-95.96 1910.5,-74 1913.37,-73.7 1916.32,-73.37 1919.29,-73.02"/>
<polygon fill="#63b8ff" stroke="#63b8ff" points="1336.45,-112.12 1326.64,-116.11 1336.8,-119.11 1336.45,-112.12"/>
</a>
</g>
</g>
<!-- Node36 -->
<g id="Node000036" class="node">
<title>Node36</title>
<g id="a_Node000036"><a xlink:href="trueaudioproperties_8h.html" target="_top" xlink:title=" ">
<polygon fill="white" stroke="#666666" points="2163.5,-74 2041.5,-74 2041.5,-55 2163.5,-55 2163.5,-74"/>
<text text-anchor="middle" x="2102.5" y="-62" font-family="Helvetica,sans-Serif" font-size="10.00">trueaudioproperties.h</text>
</a>
</g>
</g>
<!-- Node1&#45;&gt;Node36 -->
<g id="edge38_Node000001_Node000036" class="edge">
<title>Node1&#45;&gt;Node36</title>
<g id="a_edge38_Node000001_Node000036"><a xlink:title=" ">
<path fill="none" stroke="#63b8ff" d="M1336.59,-116.2C1465.42,-111.06 1774.3,-97.24 2032.5,-74 2035.43,-73.74 2038.42,-73.45 2041.44,-73.14"/>
<polygon fill="#63b8ff" stroke="#63b8ff" points="1336.38,-112.7 1326.53,-116.6 1336.66,-119.7 1336.38,-112.7"/>
</a>
</g>
</g>
<!-- Node38 -->
<g id="Node000038" class="node">
<title>Node38</title>
<g id="a_Node000038"><a xlink:href="vorbisproperties_8h.html" target="_top" xlink:title=" ">
<polygon fill="white" stroke="#666666" points="2287,-74 2182,-74 2182,-55 2287,-55 2287,-74"/>
<text text-anchor="middle" x="2234.5" y="-62" font-family="Helvetica,sans-Serif" font-size="10.00">vorbisproperties.h</text>
</a>
</g>
</g>
<!-- Node1&#45;&gt;Node38 -->
<g id="edge40_Node000001_Node000038" class="edge">
<title>Node1&#45;&gt;Node38</title>
<g id="a_edge40_Node000001_Node000038"><a xlink:title=" ">
<path fill="none" stroke="#63b8ff" d="M1336.74,-117.29C1482.07,-114.02 1859.05,-103.21 2172.5,-74 2175.53,-73.72 2178.64,-73.4 2181.77,-73.05"/>
<polygon fill="#63b8ff" stroke="#63b8ff" points="1336.6,-113.79 1326.68,-117.51 1336.76,-120.79 1336.6,-113.79"/>
</a>
</g>
</g>
<!-- Node40 -->
<g id="Node000040" class="node">
<title>Node40</title>
<g id="a_Node000040"><a xlink:href="wavpackproperties_8h.html" target="_top" xlink:title=" ">
<polygon fill="white" stroke="#666666" points="2424,-74 2305,-74 2305,-55 2424,-55 2424,-74"/>
<text text-anchor="middle" x="2364.5" y="-62" font-family="Helvetica,sans-Serif" font-size="10.00">wavpackproperties.h</text>
</a>
</g>
</g>
<!-- Node1&#45;&gt;Node40 -->
<g id="edge42_Node000001_Node000040" class="edge">
<title>Node1&#45;&gt;Node40</title>
<g id="a_edge42_Node000001_Node000040"><a xlink:title=" ">
<path fill="none" stroke="#63b8ff" d="M1336.57,-117.52C1495.07,-114.6 1932.52,-104.23 2295.5,-74 2298.51,-73.75 2301.58,-73.47 2304.69,-73.16"/>
<polygon fill="#63b8ff" stroke="#63b8ff" points="1336.47,-114.02 1326.53,-117.7 1336.6,-121.02 1336.47,-114.02"/>
</a>
</g>
</g>
<!-- Node42 -->
<g id="Node000042" class="node">
<title>Node42</title>
<g id="a_Node000042"><a xlink:href="wavproperties_8h.html" target="_top" xlink:title=" ">
<polygon fill="white" stroke="#666666" points="2537,-74 2442,-74 2442,-55 2537,-55 2537,-74"/>
<text text-anchor="middle" x="2489.5" y="-62" font-family="Helvetica,sans-Serif" font-size="10.00">wavproperties.h</text>
</a>
</g>
</g>
<!-- Node1&#45;&gt;Node42 -->
<g id="edge44_Node000001_Node000042" class="edge">
<title>Node1&#45;&gt;Node42</title>
<g id="a_edge44_Node000001_Node000042"><a xlink:title=" ">
<path fill="none" stroke="#63b8ff" d="M1336.83,-118.5C1509.62,-118 2014.97,-113.04 2432.5,-74 2435.59,-73.71 2438.76,-73.37 2441.96,-72.99"/>
<polygon fill="#63b8ff" stroke="#63b8ff" points="1336.66,-115 1326.67,-118.53 1336.67,-122 1336.66,-115"/>
</a>
</g>
</g>
<!-- Node44 -->
<g id="Node000044" class="node">
<title>Node44</title>
<g id="a_Node000044"><a xlink:href="xmfile_8h.html" target="_top" xlink:title=" ">
<polygon fill="white" stroke="#666666" points="2630.5,-19 2574.5,-19 2574.5,0 2630.5,0 2630.5,-19"/>
<text text-anchor="middle" x="2602.5" y="-7" font-family="Helvetica,sans-Serif" font-size="10.00">xmfile.h</text>
</a>
</g>
</g>
<!-- Node1&#45;&gt;Node44 -->
<g id="edge46_Node000001_Node000044" class="edge">
<title>Node1&#45;&gt;Node44</title>
<g id="a_edge46_Node000001_Node000044"><a xlink:title=" ">
<path fill="none" stroke="#63b8ff" d="M1336.88,-117.68C1583.32,-114.23 2490.27,-99.81 2545.5,-74 2570.73,-62.21 2589.64,-33.49 2597.91,-19.07"/>
<polygon fill="#63b8ff" stroke="#63b8ff" points="1336.62,-114.19 1326.67,-117.82 1336.72,-121.18 1336.62,-114.19"/>
</a>
</g>
</g>
<!-- Node45 -->
<g id="Node000045" class="node">
<title>Node45</title>
<g id="a_Node000045"><a xlink:href="xmproperties_8h.html" target="_top" xlink:title=" ">
<polygon fill="white" stroke="#666666" points="2685,-74 2594,-74 2594,-55 2685,-55 2685,-74"/>
<text text-anchor="middle" x="2639.5" y="-62" font-family="Helvetica,sans-Serif" font-size="10.00">xmproperties.h</text>
</a>
</g>
</g>
<!-- Node1&#45;&gt;Node45 -->
<g id="edge47_Node000001_Node000045" class="edge">
<title>Node1&#45;&gt;Node45</title>
<g id="a_edge47_Node000001_Node000045"><a xlink:title=" ">
<path fill="none" stroke="#63b8ff" d="M1336.74,-118.73C1523.51,-118.92 2102.24,-115.83 2579.5,-74 2584.11,-73.6 2588.91,-73.08 2593.7,-72.5"/>
<polygon fill="#63b8ff" stroke="#63b8ff" points="1336.58,-115.23 1326.57,-118.71 1336.57,-122.23 1336.58,-115.23"/>
</a>
</g>
</g>
<!-- Node3 -->
<g id="Node000003" class="node">
<title>Node3</title>
<g id="a_Node000003"><a xlink:href="aifffile_8h.html" target="_top" xlink:title=" ">
<polygon fill="white" stroke="#666666" points="73.5,-19 17.5,-19 17.5,0 73.5,0 73.5,-19"/>
<text text-anchor="middle" x="45.5" y="-7" font-family="Helvetica,sans-Serif" font-size="10.00">aifffile.h</text>
</a>
</g>
</g>
<!-- Node2&#45;&gt;Node3 -->
<g id="edge2_Node000002_Node000003" class="edge">
<title>Node2&#45;&gt;Node3</title>
<g id="a_edge2_Node000002_Node000003"><a xlink:title=" ">
<path fill="none" stroke="#63b8ff" d="M45.5,-44.66C45.5,-35.93 45.5,-25.99 45.5,-19.09"/>
<polygon fill="#63b8ff" stroke="#63b8ff" points="42,-44.75 45.5,-54.75 49,-44.75 42,-44.75"/>
</a>
</g>
</g>
<!-- Node5 -->
<g id="Node000005" class="node">
<title>Node5</title>
<g id="a_Node000005"><a xlink:href="apefile_8h.html" target="_top" xlink:title=" ">
<polygon fill="white" stroke="#666666" points="185,-19 126,-19 126,0 185,0 185,-19"/>
<text text-anchor="middle" x="155.5" y="-7" font-family="Helvetica,sans-Serif" font-size="10.00">apefile.h</text>
</a>
</g>
</g>
<!-- Node4&#45;&gt;Node5 -->
<g id="edge4_Node000004_Node000005" class="edge">
<title>Node4&#45;&gt;Node5</title>
<g id="a_edge4_Node000004_Node000005"><a xlink:title=" ">
<path fill="none" stroke="#63b8ff" d="M155.5,-44.66C155.5,-35.93 155.5,-25.99 155.5,-19.09"/>
<polygon fill="#63b8ff" stroke="#63b8ff" points="152,-44.75 155.5,-54.75 159,-44.75 152,-44.75"/>
</a>
</g>
</g>
<!-- Node7 -->
<g id="Node000007" class="node">
<title>Node7</title>
<g id="a_Node000007"><a xlink:href="asffile_8h.html" target="_top" xlink:title=" ">
<polygon fill="white" stroke="#666666" points="293.5,-19 237.5,-19 237.5,0 293.5,0 293.5,-19"/>
<text text-anchor="middle" x="265.5" y="-7" font-family="Helvetica,sans-Serif" font-size="10.00">asffile.h</text>
</a>
</g>
</g>
<!-- Node6&#45;&gt;Node7 -->
<g id="edge6_Node000006_Node000007" class="edge">
<title>Node6&#45;&gt;Node7</title>
<g id="a_edge6_Node000006_Node000007"><a xlink:title=" ">
<path fill="none" stroke="#63b8ff" d="M265.5,-44.66C265.5,-35.93 265.5,-25.99 265.5,-19.09"/>
<polygon fill="#63b8ff" stroke="#63b8ff" points="262,-44.75 265.5,-54.75 269,-44.75 262,-44.75"/>
</a>
</g>
</g>
<!-- Node9 -->
<g id="Node000009" class="node">
<title>Node9</title>
<g id="a_Node000009"><a xlink:href="dsdifffile_8h.html" target="_top" xlink:title=" ">
<polygon fill="white" stroke="#666666" points="413.5,-19 345.5,-19 345.5,0 413.5,0 413.5,-19"/>
<text text-anchor="middle" x="379.5" y="-7" font-family="Helvetica,sans-Serif" font-size="10.00">dsdifffile.h</text>
</a>
</g>
</g>
<!-- Node8&#45;&gt;Node9 -->
<g id="edge8_Node000008_Node000009" class="edge">
<title>Node8&#45;&gt;Node9</title>
<g id="a_edge8_Node000008_Node000009"><a xlink:title=" ">
<path fill="none" stroke="#63b8ff" d="M379.5,-44.66C379.5,-35.93 379.5,-25.99 379.5,-19.09"/>
<polygon fill="#63b8ff" stroke="#63b8ff" points="376,-44.75 379.5,-54.75 383,-44.75 376,-44.75"/>
</a>
</g>
</g>
<!-- Node11 -->
<g id="Node000011" class="node">
<title>Node11</title>
<g id="a_Node000011"><a xlink:href="dsffile_8h.html" target="_top" xlink:title=" ">
<polygon fill="white" stroke="#666666" points="521.5,-19 465.5,-19 465.5,0 521.5,0 521.5,-19"/>
<text text-anchor="middle" x="493.5" y="-7" font-family="Helvetica,sans-Serif" font-size="10.00">dsffile.h</text>
</a>
</g>
</g>
<!-- Node10&#45;&gt;Node11 -->
<g id="edge10_Node000010_Node000011" class="edge">
<title>Node10&#45;&gt;Node11</title>
<g id="a_edge10_Node000010_Node000011"><a xlink:title=" ">
<path fill="none" stroke="#63b8ff" d="M493.5,-44.66C493.5,-35.93 493.5,-25.99 493.5,-19.09"/>
<polygon fill="#63b8ff" stroke="#63b8ff" points="490,-44.75 493.5,-54.75 497,-44.75 490,-44.75"/>
</a>
</g>
</g>
<!-- Node14 -->
<g id="Node000014" class="node">
<title>Node14</title>
<g id="a_Node000014"><a xlink:href="flacfile_8h.html" target="_top" xlink:title=" ">
<polygon fill="white" stroke="#666666" points="634.5,-19 576.5,-19 576.5,0 634.5,0 634.5,-19"/>
<text text-anchor="middle" x="605.5" y="-7" font-family="Helvetica,sans-Serif" font-size="10.00">flacfile.h</text>
</a>
</g>
</g>
<!-- Node13&#45;&gt;Node14 -->
<g id="edge13_Node000013_Node000014" class="edge">
<title>Node13&#45;&gt;Node14</title>
<g id="a_edge13_Node000013_Node000014"><a xlink:title=" ">
<path fill="none" stroke="#63b8ff" d="M655.46,-48.88C643.04,-39.34 627.26,-27.21 616.79,-19.17"/>
<polygon fill="#63b8ff" stroke="#63b8ff" points="653.35,-51.67 663.41,-54.98 657.62,-46.12 653.35,-51.67"/>
</a>
</g>
</g>
<!-- Node15 -->
<g id="Node000015" class="node">
<title>Node15</title>
<g id="a_Node000015"><a xlink:href="oggflacfile_8h.html" target="_top" xlink:title=" ">
<polygon fill="white" stroke="#666666" points="728.5,-19 652.5,-19 652.5,0 728.5,0 728.5,-19"/>
<text text-anchor="middle" x="690.5" y="-7" font-family="Helvetica,sans-Serif" font-size="10.00">oggflacfile.h</text>
</a>
</g>
</g>
<!-- Node13&#45;&gt;Node15 -->
<g id="edge14_Node000013_Node000015" class="edge">
<title>Node13&#45;&gt;Node15</title>
<g id="a_edge14_Node000013_Node000015"><a xlink:title=" ">
<path fill="none" stroke="#63b8ff" d="M680.1,-44.95C682.76,-36.15 685.8,-26.06 687.91,-19.09"/>
<polygon fill="#63b8ff" stroke="#63b8ff" points="676.68,-44.16 677.14,-54.75 683.38,-46.19 676.68,-44.16"/>
</a>
</g>
</g>
<!-- Node17&#45;&gt;Node16 -->
<g id="edge17_Node000017_Node000016" class="edge">
<title>Node17&#45;&gt;Node16</title>
<g id="a_edge17_Node000017_Node000016"><a xlink:title=" ">
<path fill="none" stroke="#63b8ff" d="M807.32,-46.1C802.03,-37.04 795.78,-26.37 791.52,-19.09"/>
<polygon fill="#63b8ff" stroke="#63b8ff" points="804.31,-47.88 812.38,-54.75 810.35,-44.35 804.31,-47.88"/>
</a>
</g>
</g>
<!-- Node19 -->
<g id="Node000019" class="node">
<title>Node19</title>
<g id="a_Node000019"><a xlink:href="matroskafile_8h.html" target="_top" xlink:title=" ">
<polygon fill="white" stroke="#666666" points="980.5,-19 894.5,-19 894.5,0 980.5,0 980.5,-19"/>
<text text-anchor="middle" x="937.5" y="-7" font-family="Helvetica,sans-Serif" font-size="10.00">matroskafile.h</text>
</a>
</g>
</g>
<!-- Node18&#45;&gt;Node19 -->
<g id="edge19_Node000018_Node000019" class="edge">
<title>Node18&#45;&gt;Node19</title>
<g id="a_edge19_Node000018_Node000019"><a xlink:title=" ">
<path fill="none" stroke="#63b8ff" d="M937.5,-44.66C937.5,-35.93 937.5,-25.99 937.5,-19.09"/>
<polygon fill="#63b8ff" stroke="#63b8ff" points="934,-44.75 937.5,-54.75 941,-44.75 934,-44.75"/>
</a>
</g>
</g>
<!-- Node21&#45;&gt;Node20 -->
<g id="edge22_Node000021_Node000020" class="edge">
<title>Node21&#45;&gt;Node20</title>
<g id="a_edge22_Node000021_Node000020"><a xlink:title=" ">
<path fill="none" stroke="#63b8ff" d="M1091.55,-46.39C1085.19,-37.27 1077.63,-26.45 1072.5,-19.09"/>
<polygon fill="#63b8ff" stroke="#63b8ff" points="1088.8,-48.55 1097.39,-54.75 1094.54,-44.55 1088.8,-48.55"/>
</a>
</g>
</g>
<!-- Node23 -->
<g id="Node000023" class="node">
<title>Node23</title>
<g id="a_Node000023"><a xlink:href="mp4file_8h.html" target="_top" xlink:title=" ">
<polygon fill="white" stroke="#666666" points="1249.5,-19 1187.5,-19 1187.5,0 1249.5,0 1249.5,-19"/>
<text text-anchor="middle" x="1218.5" y="-7" font-family="Helvetica,sans-Serif" font-size="10.00">mp4file.h</text>
</a>
</g>
</g>
<!-- Node22&#45;&gt;Node23 -->
<g id="edge24_Node000022_Node000023" class="edge">
<title>Node22&#45;&gt;Node23</title>
<g id="a_edge24_Node000022_Node000023"><a xlink:title=" ">
<path fill="none" stroke="#63b8ff" d="M1218.5,-44.66C1218.5,-35.93 1218.5,-25.99 1218.5,-19.09"/>
<polygon fill="#63b8ff" stroke="#63b8ff" points="1215,-44.75 1218.5,-54.75 1222,-44.75 1215,-44.75"/>
</a>
</g>
</g>
<!-- Node25 -->
<g id="Node000025" class="node">
<title>Node25</title>
<g id="a_Node000025"><a xlink:href="mpcfile_8h.html" target="_top" xlink:title=" ">
<polygon fill="white" stroke="#666666" points="1364.5,-19 1302.5,-19 1302.5,0 1364.5,0 1364.5,-19"/>
<text text-anchor="middle" x="1333.5" y="-7" font-family="Helvetica,sans-Serif" font-size="10.00">mpcfile.h</text>
</a>
</g>
</g>
<!-- Node24&#45;&gt;Node25 -->
<g id="edge26_Node000024_Node000025" class="edge">
<title>Node24&#45;&gt;Node25</title>
<g id="a_edge26_Node000024_Node000025"><a xlink:title=" ">
<path fill="none" stroke="#63b8ff" d="M1333.5,-44.66C1333.5,-35.93 1333.5,-25.99 1333.5,-19.09"/>
<polygon fill="#63b8ff" stroke="#63b8ff" points="1330,-44.75 1333.5,-54.75 1337,-44.75 1330,-44.75"/>
</a>
</g>
</g>
<!-- Node27 -->
<g id="Node000027" class="node">
<title>Node27</title>
<g id="a_Node000027"><a xlink:href="mpegfile_8h.html" target="_top" xlink:title=" ">
<polygon fill="white" stroke="#666666" points="1485.5,-19 1417.5,-19 1417.5,0 1485.5,0 1485.5,-19"/>
<text text-anchor="middle" x="1451.5" y="-7" font-family="Helvetica,sans-Serif" font-size="10.00">mpegfile.h</text>
</a>
</g>
</g>
<!-- Node26&#45;&gt;Node27 -->
<g id="edge28_Node000026_Node000027" class="edge">
<title>Node26&#45;&gt;Node27</title>
<g id="a_edge28_Node000026_Node000027"><a xlink:title=" ">
<path fill="none" stroke="#63b8ff" d="M1451.5,-44.66C1451.5,-35.93 1451.5,-25.99 1451.5,-19.09"/>
<polygon fill="#63b8ff" stroke="#63b8ff" points="1448,-44.75 1451.5,-54.75 1455,-44.75 1448,-44.75"/>
</a>
</g>
</g>
<!-- Node29 -->
<g id="Node000029" class="node">
<title>Node29</title>
<g id="a_Node000029"><a xlink:href="opusfile_8h.html" target="_top" xlink:title=" ">
<polygon fill="white" stroke="#666666" points="1602.5,-19 1538.5,-19 1538.5,0 1602.5,0 1602.5,-19"/>
<text text-anchor="middle" x="1570.5" y="-7" font-family="Helvetica,sans-Serif" font-size="10.00">opusfile.h</text>
</a>
</g>
</g>
<!-- Node28&#45;&gt;Node29 -->
<g id="edge30_Node000028_Node000029" class="edge">
<title>Node28&#45;&gt;Node29</title>
<g id="a_edge30_Node000028_Node000029"><a xlink:title=" ">
<path fill="none" stroke="#63b8ff" d="M1570.5,-44.66C1570.5,-35.93 1570.5,-25.99 1570.5,-19.09"/>
<polygon fill="#63b8ff" stroke="#63b8ff" points="1567,-44.75 1570.5,-54.75 1574,-44.75 1567,-44.75"/>
</a>
</g>
</g>
<!-- Node31&#45;&gt;Node30 -->
<g id="edge33_Node000031_Node000030" class="edge">
<title>Node31&#45;&gt;Node30</title>
<g id="a_edge33_Node000031_Node000030"><a xlink:title=" ">
<path fill="none" stroke="#63b8ff" d="M1711.88,-46.39C1705.68,-37.27 1698.33,-26.45 1693.33,-19.09"/>
<polygon fill="#63b8ff" stroke="#63b8ff" points="1709.04,-48.44 1717.56,-54.75 1714.83,-44.51 1709.04,-48.44"/>
</a>
</g>
</g>
<!-- Node33 -->
<g id="Node000033" class="node">
<title>Node33</title>
<g id="a_Node000033"><a xlink:href="shortenfile_8h.html" target="_top" xlink:title=" ">
<polygon fill="white" stroke="#666666" points="1884,-19 1807,-19 1807,0 1884,0 1884,-19"/>
<text text-anchor="middle" x="1845.5" y="-7" font-family="Helvetica,sans-Serif" font-size="10.00">shortenfile.h</text>
</a>
</g>
</g>
<!-- Node32&#45;&gt;Node33 -->
<g id="edge35_Node000032_Node000033" class="edge">
<title>Node32&#45;&gt;Node33</title>
<g id="a_edge35_Node000032_Node000033"><a xlink:title=" ">
<path fill="none" stroke="#63b8ff" d="M1845.5,-44.66C1845.5,-35.93 1845.5,-25.99 1845.5,-19.09"/>
<polygon fill="#63b8ff" stroke="#63b8ff" points="1842,-44.75 1845.5,-54.75 1849,-44.75 1842,-44.75"/>
</a>
</g>
</g>
<!-- Node35 -->
<g id="Node000035" class="node">
<title>Node35</title>
<g id="a_Node000035"><a xlink:href="speexfile_8h.html" target="_top" xlink:title=" ">
<polygon fill="white" stroke="#666666" points="2006.5,-19 1936.5,-19 1936.5,0 2006.5,0 2006.5,-19"/>
<text text-anchor="middle" x="1971.5" y="-7" font-family="Helvetica,sans-Serif" font-size="10.00">speexfile.h</text>
</a>
</g>
</g>
<!-- Node34&#45;&gt;Node35 -->
<g id="edge37_Node000034_Node000035" class="edge">
<title>Node34&#45;&gt;Node35</title>
<g id="a_edge37_Node000034_Node000035"><a xlink:title=" ">
<path fill="none" stroke="#63b8ff" d="M1971.5,-44.66C1971.5,-35.93 1971.5,-25.99 1971.5,-19.09"/>
<polygon fill="#63b8ff" stroke="#63b8ff" points="1968,-44.75 1971.5,-54.75 1975,-44.75 1968,-44.75"/>
</a>
</g>
</g>
<!-- Node37 -->
<g id="Node000037" class="node">
<title>Node37</title>
<g id="a_Node000037"><a xlink:href="trueaudiofile_8h.html" target="_top" xlink:title=" ">
<polygon fill="white" stroke="#666666" points="2146,-19 2059,-19 2059,0 2146,0 2146,-19"/>
<text text-anchor="middle" x="2102.5" y="-7" font-family="Helvetica,sans-Serif" font-size="10.00">trueaudiofile.h</text>
</a>
</g>
</g>
<!-- Node36&#45;&gt;Node37 -->
<g id="edge39_Node000036_Node000037" class="edge">
<title>Node36&#45;&gt;Node37</title>
<g id="a_edge39_Node000036_Node000037"><a xlink:title=" ">
<path fill="none" stroke="#63b8ff" d="M2102.5,-44.66C2102.5,-35.93 2102.5,-25.99 2102.5,-19.09"/>
<polygon fill="#63b8ff" stroke="#63b8ff" points="2099,-44.75 2102.5,-54.75 2106,-44.75 2099,-44.75"/>
</a>
</g>
</g>
<!-- Node39 -->
<g id="Node000039" class="node">
<title>Node39</title>
<g id="a_Node000039"><a xlink:href="vorbisfile_8h.html" target="_top" xlink:title=" ">
<polygon fill="white" stroke="#666666" points="2270,-19 2199,-19 2199,0 2270,0 2270,-19"/>
<text text-anchor="middle" x="2234.5" y="-7" font-family="Helvetica,sans-Serif" font-size="10.00">vorbisfile.h</text>
</a>
</g>
</g>
<!-- Node38&#45;&gt;Node39 -->
<g id="edge41_Node000038_Node000039" class="edge">
<title>Node38&#45;&gt;Node39</title>
<g id="a_edge41_Node000038_Node000039"><a xlink:title=" ">
<path fill="none" stroke="#63b8ff" d="M2234.5,-44.66C2234.5,-35.93 2234.5,-25.99 2234.5,-19.09"/>
<polygon fill="#63b8ff" stroke="#63b8ff" points="2231,-44.75 2234.5,-54.75 2238,-44.75 2231,-44.75"/>
</a>
</g>
</g>
<!-- Node41 -->
<g id="Node000041" class="node">
<title>Node41</title>
<g id="a_Node000041"><a xlink:href="wavpackfile_8h.html" target="_top" xlink:title=" ">
<polygon fill="white" stroke="#666666" points="2406.5,-19 2322.5,-19 2322.5,0 2406.5,0 2406.5,-19"/>
<text text-anchor="middle" x="2364.5" y="-7" font-family="Helvetica,sans-Serif" font-size="10.00">wavpackfile.h</text>
</a>
</g>
</g>
<!-- Node40&#45;&gt;Node41 -->
<g id="edge43_Node000040_Node000041" class="edge">
<title>Node40&#45;&gt;Node41</title>
<g id="a_edge43_Node000040_Node000041"><a xlink:title=" ">
<path fill="none" stroke="#63b8ff" d="M2364.5,-44.66C2364.5,-35.93 2364.5,-25.99 2364.5,-19.09"/>
<polygon fill="#63b8ff" stroke="#63b8ff" points="2361,-44.75 2364.5,-54.75 2368,-44.75 2361,-44.75"/>
</a>
</g>
</g>
<!-- Node43 -->
<g id="Node000043" class="node">
<title>Node43</title>
<g id="a_Node000043"><a xlink:href="wavfile_8h.html" target="_top" xlink:title=" ">
<polygon fill="white" stroke="#666666" points="2520,-19 2459,-19 2459,0 2520,0 2520,-19"/>
<text text-anchor="middle" x="2489.5" y="-7" font-family="Helvetica,sans-Serif" font-size="10.00">wavfile.h</text>
</a>
</g>
</g>
<!-- Node42&#45;&gt;Node43 -->
<g id="edge45_Node000042_Node000043" class="edge">
<title>Node42&#45;&gt;Node43</title>
<g id="a_edge45_Node000042_Node000043"><a xlink:title=" ">
<path fill="none" stroke="#63b8ff" d="M2489.5,-44.66C2489.5,-35.93 2489.5,-25.99 2489.5,-19.09"/>
<polygon fill="#63b8ff" stroke="#63b8ff" points="2486,-44.75 2489.5,-54.75 2493,-44.75 2486,-44.75"/>
</a>
</g>
</g>
<!-- Node45&#45;&gt;Node44 -->
<g id="edge48_Node000045_Node000044" class="edge">
<title>Node45&#45;&gt;Node44</title>
<g id="a_edge48_Node000045_Node000044"><a xlink:title=" ">
<path fill="none" stroke="#63b8ff" d="M2627.55,-46.39C2621.19,-37.27 2613.63,-26.45 2608.5,-19.09"/>
<polygon fill="#63b8ff" stroke="#63b8ff" points="2624.8,-48.55 2633.39,-54.75 2630.54,-44.55 2624.8,-48.55"/>
</a>
</g>
</g>
</g>
</svg>
