<?xml version="1.0" encoding="UTF-8" standalone="no"?>
<!DOCTYPE svg PUBLIC "-//W3C//DTD SVG 1.1//EN"
 "http://www.w3.org/Graphics/SVG/1.1/DTD/svg11.dtd">
<!-- Generated by graphviz version 2.43.0 (0)
 -->
<!-- Title: audioproperties.h Pages: 1 -->
<svg width="2423pt" height="140pt"
 viewBox="0.00 0.00 2423.00 140.00" xmlns="http://www.w3.org/2000/svg" xmlns:xlink="http://www.w3.org/1999/xlink">
<g id="graph0" class="graph" transform="scale(1 1) rotate(0) translate(4 136)">
<title>audioproperties.h</title>
<polygon fill="white" stroke="transparent" points="-4,4 -4,-136 2419,-136 2419,4 -4,4"/>
<!-- Node1 -->
<g id="node1" class="node">
<title>Node1</title>
<g id="a_node1"><a xlink:title=" ">
<polygon fill="#bfbfbf" stroke="black" points="1084.5,-112.5 1084.5,-131.5 1186.5,-131.5 1186.5,-112.5 1084.5,-112.5"/>
<text text-anchor="middle" x="1135.5" y="-119.5" font-family="Helvetica,sans-Serif" font-size="10.00">audioproperties.h</text>
</a>
</g>
</g>
<!-- Node2 -->
<g id="node2" class="node">
<title>Node2</title>
<g id="a_node2"><a xlink:href="aiffproperties_8h.html" target="_top" xlink:title=" ">
<polygon fill="white" stroke="black" points="0,-56.5 0,-75.5 91,-75.5 91,-56.5 0,-56.5"/>
<text text-anchor="middle" x="45.5" y="-63.5" font-family="Helvetica,sans-Serif" font-size="10.00">aiffproperties.h</text>
</a>
</g>
</g>
<!-- Node1&#45;&gt;Node2 -->
<g id="edge1" class="edge">
<title>Node1&#45;&gt;Node2</title>
<path fill="none" stroke="midnightblue" d="M1074.25,-120.94C913.79,-120.21 468.09,-114.58 99.5,-76 96.76,-75.71 93.95,-75.38 91.11,-75"/>
<polygon fill="midnightblue" stroke="midnightblue" points="1074.39,-124.44 1084.4,-120.98 1074.42,-117.44 1074.39,-124.44"/>
</g>
<!-- Node4 -->
<g id="node4" class="node">
<title>Node4</title>
<g id="a_node4"><a xlink:href="apeproperties_8h.html" target="_top" xlink:title=" ">
<polygon fill="white" stroke="black" points="109,-56.5 109,-75.5 202,-75.5 202,-56.5 109,-56.5"/>
<text text-anchor="middle" x="155.5" y="-63.5" font-family="Helvetica,sans-Serif" font-size="10.00">apeproperties.h</text>
</a>
</g>
</g>
<!-- Node1&#45;&gt;Node4 -->
<g id="edge3" class="edge">
<title>Node1&#45;&gt;Node4</title>
<path fill="none" stroke="midnightblue" d="M1073.99,-120.35C925.38,-118.28 535.19,-109.79 211.5,-76 208.46,-75.68 205.34,-75.31 202.2,-74.9"/>
<polygon fill="midnightblue" stroke="midnightblue" points="1074.22,-123.86 1084.26,-120.49 1074.31,-116.86 1074.22,-123.86"/>
</g>
<!-- Node6 -->
<g id="node6" class="node">
<title>Node6</title>
<g id="a_node6"><a xlink:href="asfproperties_8h.html" target="_top" xlink:title=" ">
<polygon fill="white" stroke="black" points="220.5,-56.5 220.5,-75.5 310.5,-75.5 310.5,-56.5 220.5,-56.5"/>
<text text-anchor="middle" x="265.5" y="-63.5" font-family="Helvetica,sans-Serif" font-size="10.00">asfproperties.h</text>
</a>
</g>
</g>
<!-- Node1&#45;&gt;Node6 -->
<g id="edge5" class="edge">
<title>Node1&#45;&gt;Node6</title>
<path fill="none" stroke="midnightblue" d="M1074.02,-119.92C937.77,-117.02 600.23,-107.04 319.5,-76 316.57,-75.68 313.56,-75.3 310.53,-74.89"/>
<polygon fill="midnightblue" stroke="midnightblue" points="1074.19,-123.42 1084.26,-120.13 1074.33,-116.42 1074.19,-123.42"/>
</g>
<!-- Node8 -->
<g id="node8" class="node">
<title>Node8</title>
<g id="a_node8"><a xlink:href="dsdiffproperties_8h.html" target="_top" xlink:title=" ">
<polygon fill="white" stroke="black" points="328.5,-56.5 328.5,-75.5 430.5,-75.5 430.5,-56.5 328.5,-56.5"/>
<text text-anchor="middle" x="379.5" y="-63.5" font-family="Helvetica,sans-Serif" font-size="10.00">dsdiffproperties.h</text>
</a>
</g>
</g>
<!-- Node1&#45;&gt;Node8 -->
<g id="edge7" class="edge">
<title>Node1&#45;&gt;Node8</title>
<path fill="none" stroke="midnightblue" d="M1074.08,-118.77C952.6,-113.98 673.18,-101.04 439.5,-76 436.57,-75.69 433.56,-75.33 430.53,-74.95"/>
<polygon fill="midnightblue" stroke="midnightblue" points="1074.16,-122.28 1084.29,-119.17 1074.44,-115.28 1074.16,-122.28"/>
</g>
<!-- Node10 -->
<g id="node10" class="node">
<title>Node10</title>
<g id="a_node10"><a xlink:href="dsfproperties_8h.html" target="_top" xlink:title=" ">
<polygon fill="white" stroke="black" points="448.5,-56.5 448.5,-75.5 538.5,-75.5 538.5,-56.5 448.5,-56.5"/>
<text text-anchor="middle" x="493.5" y="-63.5" font-family="Helvetica,sans-Serif" font-size="10.00">dsfproperties.h</text>
</a>
</g>
</g>
<!-- Node1&#45;&gt;Node10 -->
<g id="edge9" class="edge">
<title>Node1&#45;&gt;Node10</title>
<path fill="none" stroke="midnightblue" d="M1073.92,-118.09C966.68,-112.62 738.81,-99.22 547.5,-76 544.58,-75.65 541.57,-75.24 538.54,-74.81"/>
<polygon fill="midnightblue" stroke="midnightblue" points="1074.06,-121.6 1084.23,-118.61 1074.42,-114.61 1074.06,-121.6"/>
</g>
<!-- Node12 -->
<g id="node12" class="node">
<title>Node12</title>
<g id="a_node12"><a xlink:href="fileref_8h.html" target="_top" xlink:title=" ">
<polygon fill="white" stroke="black" points="557,-56.5 557,-75.5 610,-75.5 610,-56.5 557,-56.5"/>
<text text-anchor="middle" x="583.5" y="-63.5" font-family="Helvetica,sans-Serif" font-size="10.00">fileref.h</text>
</a>
</g>
</g>
<!-- Node1&#45;&gt;Node12 -->
<g id="edge11" class="edge">
<title>Node1&#45;&gt;Node12</title>
<path fill="none" stroke="midnightblue" d="M1074.04,-118.78C976.93,-114.57 782.3,-103.27 619.5,-76 616.45,-75.49 613.28,-74.85 610.14,-74.16"/>
<polygon fill="midnightblue" stroke="midnightblue" points="1074.12,-122.29 1084.26,-119.21 1074.42,-115.29 1074.12,-122.29"/>
</g>
<!-- Node13 -->
<g id="node13" class="node">
<title>Node13</title>
<g id="a_node13"><a xlink:href="flacproperties_8h.html" target="_top" xlink:title=" ">
<polygon fill="white" stroke="black" points="628.5,-56.5 628.5,-75.5 720.5,-75.5 720.5,-56.5 628.5,-56.5"/>
<text text-anchor="middle" x="674.5" y="-63.5" font-family="Helvetica,sans-Serif" font-size="10.00">flacproperties.h</text>
</a>
</g>
</g>
<!-- Node1&#45;&gt;Node13 -->
<g id="edge12" class="edge">
<title>Node1&#45;&gt;Node13</title>
<path fill="none" stroke="midnightblue" d="M1074.25,-114.84C995.52,-106.76 854.66,-91.75 734.5,-76 730.01,-75.41 725.33,-74.77 720.66,-74.1"/>
<polygon fill="midnightblue" stroke="midnightblue" points="1074.17,-118.35 1084.47,-115.89 1074.88,-111.39 1074.17,-118.35"/>
</g>
<!-- Node16 -->
<g id="node16" class="node">
<title>Node16</title>
<g id="a_node16"><a xlink:href="itfile_8h.html" target="_top" xlink:title=" ">
<polygon fill="white" stroke="black" points="777,-0.5 777,-19.5 824,-19.5 824,-0.5 777,-0.5"/>
<text text-anchor="middle" x="800.5" y="-7.5" font-family="Helvetica,sans-Serif" font-size="10.00">itfile.h</text>
</a>
</g>
</g>
<!-- Node1&#45;&gt;Node16 -->
<g id="edge15" class="edge">
<title>Node1&#45;&gt;Node16</title>
<path fill="none" stroke="midnightblue" d="M1074.26,-117.88C974.87,-112.18 787.46,-98.55 767.5,-76 752.23,-58.75 775.35,-33.18 790,-19.83"/>
<polygon fill="midnightblue" stroke="midnightblue" points="1074.29,-121.38 1084.47,-118.45 1074.68,-114.4 1074.29,-121.38"/>
</g>
<!-- Node17 -->
<g id="node17" class="node">
<title>Node17</title>
<g id="a_node17"><a xlink:href="itproperties_8h.html" target="_top" xlink:title=" ">
<polygon fill="white" stroke="black" points="776.5,-56.5 776.5,-75.5 858.5,-75.5 858.5,-56.5 776.5,-56.5"/>
<text text-anchor="middle" x="817.5" y="-63.5" font-family="Helvetica,sans-Serif" font-size="10.00">itproperties.h</text>
</a>
</g>
</g>
<!-- Node1&#45;&gt;Node17 -->
<g id="edge16" class="edge">
<title>Node1&#45;&gt;Node17</title>
<path fill="none" stroke="midnightblue" d="M1075.24,-110.77C1011.79,-99.99 913.61,-83.32 858.55,-73.97"/>
<polygon fill="midnightblue" stroke="midnightblue" points="1074.67,-114.22 1085.11,-112.44 1075.84,-107.32 1074.67,-114.22"/>
</g>
<!-- Node18 -->
<g id="node18" class="node">
<title>Node18</title>
<g id="a_node18"><a xlink:href="modfile_8h.html" target="_top" xlink:title=" ">
<polygon fill="white" stroke="black" points="871.5,-0.5 871.5,-19.5 933.5,-19.5 933.5,-0.5 871.5,-0.5"/>
<text text-anchor="middle" x="902.5" y="-7.5" font-family="Helvetica,sans-Serif" font-size="10.00">modfile.h</text>
</a>
</g>
</g>
<!-- Node1&#45;&gt;Node18 -->
<g id="edge18" class="edge">
<title>Node1&#45;&gt;Node18</title>
<path fill="none" stroke="midnightblue" d="M1074.09,-117.36C1013.54,-112.36 927.04,-100.97 905.5,-76 891.92,-60.26 896.31,-33.57 899.86,-19.8"/>
<polygon fill="midnightblue" stroke="midnightblue" points="1074.07,-120.87 1084.32,-118.16 1074.62,-113.89 1074.07,-120.87"/>
</g>
<!-- Node19 -->
<g id="node19" class="node">
<title>Node19</title>
<g id="a_node19"><a xlink:href="modproperties_8h.html" target="_top" xlink:title=" ">
<polygon fill="white" stroke="black" points="915,-56.5 915,-75.5 1012,-75.5 1012,-56.5 915,-56.5"/>
<text text-anchor="middle" x="963.5" y="-63.5" font-family="Helvetica,sans-Serif" font-size="10.00">modproperties.h</text>
</a>
</g>
</g>
<!-- Node1&#45;&gt;Node19 -->
<g id="edge19" class="edge">
<title>Node1&#45;&gt;Node19</title>
<path fill="none" stroke="midnightblue" d="M1098.67,-109.44C1066.24,-99.26 1019.76,-84.66 990.63,-75.52"/>
<polygon fill="midnightblue" stroke="midnightblue" points="1097.66,-112.79 1108.25,-112.44 1099.75,-106.11 1097.66,-112.79"/>
</g>
<!-- Node20 -->
<g id="node20" class="node">
<title>Node20</title>
<g id="a_node20"><a xlink:href="mp4properties_8h.html" target="_top" xlink:title=" ">
<polygon fill="white" stroke="black" points="1030,-56.5 1030,-75.5 1127,-75.5 1127,-56.5 1030,-56.5"/>
<text text-anchor="middle" x="1078.5" y="-63.5" font-family="Helvetica,sans-Serif" font-size="10.00">mp4properties.h</text>
</a>
</g>
</g>
<!-- Node1&#45;&gt;Node20 -->
<g id="edge21" class="edge">
<title>Node1&#45;&gt;Node20</title>
<path fill="none" stroke="midnightblue" d="M1118.88,-105.25C1108.77,-95.67 1096.22,-83.79 1087.82,-75.83"/>
<polygon fill="midnightblue" stroke="midnightblue" points="1116.68,-107.99 1126.34,-112.32 1121.49,-102.91 1116.68,-107.99"/>
</g>
<!-- Node22 -->
<g id="node22" class="node">
<title>Node22</title>
<g id="a_node22"><a xlink:href="mpcproperties_8h.html" target="_top" xlink:title=" ">
<polygon fill="white" stroke="black" points="1145.5,-56.5 1145.5,-75.5 1241.5,-75.5 1241.5,-56.5 1145.5,-56.5"/>
<text text-anchor="middle" x="1193.5" y="-63.5" font-family="Helvetica,sans-Serif" font-size="10.00">mpcproperties.h</text>
</a>
</g>
</g>
<!-- Node1&#45;&gt;Node22 -->
<g id="edge23" class="edge">
<title>Node1&#45;&gt;Node22</title>
<path fill="none" stroke="midnightblue" d="M1152.41,-105.25C1162.7,-95.67 1175.47,-83.79 1184.01,-75.83"/>
<polygon fill="midnightblue" stroke="midnightblue" points="1149.75,-102.95 1144.82,-112.32 1154.52,-108.07 1149.75,-102.95"/>
</g>
<!-- Node24 -->
<g id="node24" class="node">
<title>Node24</title>
<g id="a_node24"><a xlink:href="mpegproperties_8h.html" target="_top" xlink:title=" ">
<polygon fill="white" stroke="black" points="1260,-56.5 1260,-75.5 1363,-75.5 1363,-56.5 1260,-56.5"/>
<text text-anchor="middle" x="1311.5" y="-63.5" font-family="Helvetica,sans-Serif" font-size="10.00">mpegproperties.h</text>
</a>
</g>
</g>
<!-- Node1&#45;&gt;Node24 -->
<g id="edge25" class="edge">
<title>Node1&#45;&gt;Node24</title>
<path fill="none" stroke="midnightblue" d="M1173.19,-109.44C1206.37,-99.26 1253.93,-84.66 1283.74,-75.52"/>
<polygon fill="midnightblue" stroke="midnightblue" points="1171.92,-106.16 1163.39,-112.44 1173.97,-112.86 1171.92,-106.16"/>
</g>
<!-- Node26 -->
<g id="node26" class="node">
<title>Node26</title>
<g id="a_node26"><a xlink:href="opusproperties_8h.html" target="_top" xlink:title=" ">
<polygon fill="white" stroke="black" points="1381.5,-56.5 1381.5,-75.5 1479.5,-75.5 1479.5,-56.5 1381.5,-56.5"/>
<text text-anchor="middle" x="1430.5" y="-63.5" font-family="Helvetica,sans-Serif" font-size="10.00">opusproperties.h</text>
</a>
</g>
</g>
<!-- Node1&#45;&gt;Node26 -->
<g id="edge27" class="edge">
<title>Node1&#45;&gt;Node26</title>
<path fill="none" stroke="midnightblue" d="M1192.31,-110.6C1248.06,-100.4 1332.06,-85.02 1383.98,-75.52"/>
<polygon fill="midnightblue" stroke="midnightblue" points="1191.45,-107.2 1182.24,-112.44 1192.71,-114.09 1191.45,-107.2"/>
</g>
<!-- Node28 -->
<g id="node28" class="node">
<title>Node28</title>
<g id="a_node28"><a xlink:href="s3mfile_8h.html" target="_top" xlink:title=" ">
<polygon fill="white" stroke="black" points="1516.5,-0.5 1516.5,-19.5 1578.5,-19.5 1578.5,-0.5 1516.5,-0.5"/>
<text text-anchor="middle" x="1547.5" y="-7.5" font-family="Helvetica,sans-Serif" font-size="10.00">s3mfile.h</text>
</a>
</g>
</g>
<!-- Node1&#45;&gt;Node28 -->
<g id="edge29" class="edge">
<title>Node1&#45;&gt;Node28</title>
<path fill="none" stroke="midnightblue" d="M1196.8,-118.28C1284.09,-113.55 1439.09,-101.74 1488.5,-76 1513.91,-62.76 1533.82,-33.91 1542.6,-19.52"/>
<polygon fill="midnightblue" stroke="midnightblue" points="1196.57,-114.78 1186.76,-118.81 1196.93,-121.78 1196.57,-114.78"/>
</g>
<!-- Node29 -->
<g id="node29" class="node">
<title>Node29</title>
<g id="a_node29"><a xlink:href="s3mproperties_8h.html" target="_top" xlink:title=" ">
<polygon fill="white" stroke="black" points="1535.5,-56.5 1535.5,-75.5 1631.5,-75.5 1631.5,-56.5 1535.5,-56.5"/>
<text text-anchor="middle" x="1583.5" y="-63.5" font-family="Helvetica,sans-Serif" font-size="10.00">s3mproperties.h</text>
</a>
</g>
</g>
<!-- Node1&#45;&gt;Node29 -->
<g id="edge30" class="edge">
<title>Node1&#45;&gt;Node29</title>
<path fill="none" stroke="midnightblue" d="M1197.13,-114.36C1273.37,-106.01 1407.13,-90.96 1521.5,-76 1526.03,-75.41 1530.74,-74.77 1535.45,-74.11"/>
<polygon fill="midnightblue" stroke="midnightblue" points="1196.32,-110.92 1186.76,-115.49 1197.08,-117.88 1196.32,-110.92"/>
</g>
<!-- Node30 -->
<g id="node30" class="node">
<title>Node30</title>
<g id="a_node30"><a xlink:href="speexproperties_8h.html" target="_top" xlink:title=" ">
<polygon fill="white" stroke="black" points="1649.5,-56.5 1649.5,-75.5 1753.5,-75.5 1753.5,-56.5 1649.5,-56.5"/>
<text text-anchor="middle" x="1701.5" y="-63.5" font-family="Helvetica,sans-Serif" font-size="10.00">speexproperties.h</text>
</a>
</g>
</g>
<!-- Node1&#45;&gt;Node30 -->
<g id="edge32" class="edge">
<title>Node1&#45;&gt;Node30</title>
<path fill="none" stroke="midnightblue" d="M1196.88,-116.68C1292.05,-109.72 1480.89,-94.87 1640.5,-76 1643.37,-75.66 1646.31,-75.29 1649.28,-74.91"/>
<polygon fill="midnightblue" stroke="midnightblue" points="1196.57,-113.19 1186.85,-117.41 1197.08,-120.17 1196.57,-113.19"/>
</g>
<!-- Node32 -->
<g id="node32" class="node">
<title>Node32</title>
<g id="a_node32"><a xlink:href="trueaudioproperties_8h.html" target="_top" xlink:title=" ">
<polygon fill="white" stroke="black" points="1771.5,-56.5 1771.5,-75.5 1893.5,-75.5 1893.5,-56.5 1771.5,-56.5"/>
<text text-anchor="middle" x="1832.5" y="-63.5" font-family="Helvetica,sans-Serif" font-size="10.00">trueaudioproperties.h</text>
</a>
</g>
</g>
<!-- Node1&#45;&gt;Node32 -->
<g id="edge34" class="edge">
<title>Node1&#45;&gt;Node32</title>
<path fill="none" stroke="midnightblue" d="M1196.92,-117.74C1309.31,-111.52 1555.58,-96.71 1762.5,-76 1765.43,-75.71 1768.42,-75.39 1771.44,-75.06"/>
<polygon fill="midnightblue" stroke="midnightblue" points="1196.58,-114.25 1186.79,-118.3 1196.96,-121.24 1196.58,-114.25"/>
</g>
<!-- Node34 -->
<g id="node34" class="node">
<title>Node34</title>
<g id="a_node34"><a xlink:href="vorbisproperties_8h.html" target="_top" xlink:title=" ">
<polygon fill="white" stroke="black" points="1912,-56.5 1912,-75.5 2017,-75.5 2017,-56.5 1912,-56.5"/>
<text text-anchor="middle" x="1964.5" y="-63.5" font-family="Helvetica,sans-Serif" font-size="10.00">vorbisproperties.h</text>
</a>
</g>
</g>
<!-- Node1&#45;&gt;Node34 -->
<g id="edge36" class="edge">
<title>Node1&#45;&gt;Node34</title>
<path fill="none" stroke="midnightblue" d="M1196.96,-119.18C1327.29,-114.93 1640.86,-102.62 1902.5,-76 1905.53,-75.69 1908.64,-75.34 1911.77,-74.97"/>
<polygon fill="midnightblue" stroke="midnightblue" points="1196.67,-115.69 1186.78,-119.51 1196.89,-122.68 1196.67,-115.69"/>
</g>
<!-- Node36 -->
<g id="node36" class="node">
<title>Node36</title>
<g id="a_node36"><a xlink:href="wavpackproperties_8h.html" target="_top" xlink:title=" ">
<polygon fill="white" stroke="black" points="2035,-56.5 2035,-75.5 2154,-75.5 2154,-56.5 2035,-56.5"/>
<text text-anchor="middle" x="2094.5" y="-63.5" font-family="Helvetica,sans-Serif" font-size="10.00">wavpackproperties.h</text>
</a>
</g>
</g>
<!-- Node1&#45;&gt;Node36 -->
<g id="edge38" class="edge">
<title>Node1&#45;&gt;Node36</title>
<path fill="none" stroke="midnightblue" d="M1196.78,-119.57C1341.32,-115.84 1714.77,-104.08 2025.5,-76 2028.51,-75.73 2031.59,-75.42 2034.69,-75.1"/>
<polygon fill="midnightblue" stroke="midnightblue" points="1196.68,-116.07 1186.77,-119.83 1196.85,-123.07 1196.68,-116.07"/>
</g>
<!-- Node38 -->
<g id="node38" class="node">
<title>Node38</title>
<g id="a_node38"><a xlink:href="wavproperties_8h.html" target="_top" xlink:title=" ">
<polygon fill="white" stroke="black" points="2172,-56.5 2172,-75.5 2267,-75.5 2267,-56.5 2172,-56.5"/>
<text text-anchor="middle" x="2219.5" y="-63.5" font-family="Helvetica,sans-Serif" font-size="10.00">wavproperties.h</text>
</a>
</g>
</g>
<!-- Node1&#45;&gt;Node38 -->
<g id="edge40" class="edge">
<title>Node1&#45;&gt;Node38</title>
<path fill="none" stroke="midnightblue" d="M1196.77,-120.72C1356.27,-119.48 1797.39,-112.71 2162.5,-76 2165.59,-75.69 2168.77,-75.32 2171.97,-74.92"/>
<polygon fill="midnightblue" stroke="midnightblue" points="1196.65,-117.22 1186.67,-120.8 1196.7,-124.22 1196.65,-117.22"/>
</g>
<!-- Node40 -->
<g id="node40" class="node">
<title>Node40</title>
<g id="a_node40"><a xlink:href="xmfile_8h.html" target="_top" xlink:title=" ">
<polygon fill="white" stroke="black" points="2304.5,-0.5 2304.5,-19.5 2360.5,-19.5 2360.5,-0.5 2304.5,-0.5"/>
<text text-anchor="middle" x="2332.5" y="-7.5" font-family="Helvetica,sans-Serif" font-size="10.00">xmfile.h</text>
</a>
</g>
</g>
<!-- Node1&#45;&gt;Node40 -->
<g id="edge42" class="edge">
<title>Node1&#45;&gt;Node40</title>
<path fill="none" stroke="midnightblue" d="M1196.84,-121.39C1419.62,-122.43 2178.05,-122.49 2275.5,-76 2300.97,-63.85 2319.77,-34.49 2327.96,-19.75"/>
<polygon fill="midnightblue" stroke="midnightblue" points="1196.66,-117.89 1186.64,-121.34 1196.62,-124.89 1196.66,-117.89"/>
</g>
<!-- Node41 -->
<g id="node41" class="node">
<title>Node41</title>
<g id="a_node41"><a xlink:href="xmproperties_8h.html" target="_top" xlink:title=" ">
<polygon fill="white" stroke="black" points="2324,-56.5 2324,-75.5 2415,-75.5 2415,-56.5 2324,-56.5"/>
<text text-anchor="middle" x="2369.5" y="-63.5" font-family="Helvetica,sans-Serif" font-size="10.00">xmproperties.h</text>
</a>
</g>
</g>
<!-- Node1&#45;&gt;Node41 -->
<g id="edge43" class="edge">
<title>Node1&#45;&gt;Node41</title>
<path fill="none" stroke="midnightblue" d="M1196.55,-121.04C1370.74,-120.63 1884.9,-115.86 2309.5,-76 2314.11,-75.57 2318.91,-75.02 2323.7,-74.4"/>
<polygon fill="midnightblue" stroke="midnightblue" points="1196.55,-117.54 1186.55,-121.06 1196.56,-124.54 1196.55,-117.54"/>
</g>
<!-- Node3 -->
<g id="node3" class="node">
<title>Node3</title>
<g id="a_node3"><a xlink:href="aifffile_8h.html" target="_top" xlink:title=" ">
<polygon fill="white" stroke="black" points="17.5,-0.5 17.5,-19.5 73.5,-19.5 73.5,-0.5 17.5,-0.5"/>
<text text-anchor="middle" x="45.5" y="-7.5" font-family="Helvetica,sans-Serif" font-size="10.00">aifffile.h</text>
</a>
</g>
</g>
<!-- Node2&#45;&gt;Node3 -->
<g id="edge2" class="edge">
<title>Node2&#45;&gt;Node3</title>
<path fill="none" stroke="midnightblue" d="M45.5,-45.8C45.5,-36.91 45.5,-26.78 45.5,-19.75"/>
<polygon fill="midnightblue" stroke="midnightblue" points="42,-46.08 45.5,-56.08 49,-46.08 42,-46.08"/>
</g>
<!-- Node5 -->
<g id="node5" class="node">
<title>Node5</title>
<g id="a_node5"><a xlink:href="apefile_8h.html" target="_top" xlink:title=" ">
<polygon fill="white" stroke="black" points="126,-0.5 126,-19.5 185,-19.5 185,-0.5 126,-0.5"/>
<text text-anchor="middle" x="155.5" y="-7.5" font-family="Helvetica,sans-Serif" font-size="10.00">apefile.h</text>
</a>
</g>
</g>
<!-- Node4&#45;&gt;Node5 -->
<g id="edge4" class="edge">
<title>Node4&#45;&gt;Node5</title>
<path fill="none" stroke="midnightblue" d="M155.5,-45.8C155.5,-36.91 155.5,-26.78 155.5,-19.75"/>
<polygon fill="midnightblue" stroke="midnightblue" points="152,-46.08 155.5,-56.08 159,-46.08 152,-46.08"/>
</g>
<!-- Node7 -->
<g id="node7" class="node">
<title>Node7</title>
<g id="a_node7"><a xlink:href="asffile_8h.html" target="_top" xlink:title=" ">
<polygon fill="white" stroke="black" points="237.5,-0.5 237.5,-19.5 293.5,-19.5 293.5,-0.5 237.5,-0.5"/>
<text text-anchor="middle" x="265.5" y="-7.5" font-family="Helvetica,sans-Serif" font-size="10.00">asffile.h</text>
</a>
</g>
</g>
<!-- Node6&#45;&gt;Node7 -->
<g id="edge6" class="edge">
<title>Node6&#45;&gt;Node7</title>
<path fill="none" stroke="midnightblue" d="M265.5,-45.8C265.5,-36.91 265.5,-26.78 265.5,-19.75"/>
<polygon fill="midnightblue" stroke="midnightblue" points="262,-46.08 265.5,-56.08 269,-46.08 262,-46.08"/>
</g>
<!-- Node9 -->
<g id="node9" class="node">
<title>Node9</title>
<g id="a_node9"><a xlink:href="dsdifffile_8h.html" target="_top" xlink:title=" ">
<polygon fill="white" stroke="black" points="345.5,-0.5 345.5,-19.5 413.5,-19.5 413.5,-0.5 345.5,-0.5"/>
<text text-anchor="middle" x="379.5" y="-7.5" font-family="Helvetica,sans-Serif" font-size="10.00">dsdifffile.h</text>
</a>
</g>
</g>
<!-- Node8&#45;&gt;Node9 -->
<g id="edge8" class="edge">
<title>Node8&#45;&gt;Node9</title>
<path fill="none" stroke="midnightblue" d="M379.5,-45.8C379.5,-36.91 379.5,-26.78 379.5,-19.75"/>
<polygon fill="midnightblue" stroke="midnightblue" points="376,-46.08 379.5,-56.08 383,-46.08 376,-46.08"/>
</g>
<!-- Node11 -->
<g id="node11" class="node">
<title>Node11</title>
<g id="a_node11"><a xlink:href="dsffile_8h.html" target="_top" xlink:title=" ">
<polygon fill="white" stroke="black" points="465.5,-0.5 465.5,-19.5 521.5,-19.5 521.5,-0.5 465.5,-0.5"/>
<text text-anchor="middle" x="493.5" y="-7.5" font-family="Helvetica,sans-Serif" font-size="10.00">dsffile.h</text>
</a>
</g>
</g>
<!-- Node10&#45;&gt;Node11 -->
<g id="edge10" class="edge">
<title>Node10&#45;&gt;Node11</title>
<path fill="none" stroke="midnightblue" d="M493.5,-45.8C493.5,-36.91 493.5,-26.78 493.5,-19.75"/>
<polygon fill="midnightblue" stroke="midnightblue" points="490,-46.08 493.5,-56.08 497,-46.08 490,-46.08"/>
</g>
<!-- Node14 -->
<g id="node14" class="node">
<title>Node14</title>
<g id="a_node14"><a xlink:href="flacfile_8h.html" target="_top" xlink:title=" ">
<polygon fill="white" stroke="black" points="575.5,-0.5 575.5,-19.5 633.5,-19.5 633.5,-0.5 575.5,-0.5"/>
<text text-anchor="middle" x="604.5" y="-7.5" font-family="Helvetica,sans-Serif" font-size="10.00">flacfile.h</text>
</a>
</g>
</g>
<!-- Node13&#45;&gt;Node14 -->
<g id="edge13" class="edge">
<title>Node13&#45;&gt;Node14</title>
<path fill="none" stroke="midnightblue" d="M655.19,-50.1C642.59,-40.38 626.57,-28.03 615.95,-19.83"/>
<polygon fill="midnightblue" stroke="midnightblue" points="653.2,-52.99 663.25,-56.32 657.47,-47.44 653.2,-52.99"/>
</g>
<!-- Node15 -->
<g id="node15" class="node">
<title>Node15</title>
<g id="a_node15"><a xlink:href="oggflacfile_8h.html" target="_top" xlink:title=" ">
<polygon fill="white" stroke="black" points="651.5,-0.5 651.5,-19.5 727.5,-19.5 727.5,-0.5 651.5,-0.5"/>
<text text-anchor="middle" x="689.5" y="-7.5" font-family="Helvetica,sans-Serif" font-size="10.00">oggflacfile.h</text>
</a>
</g>
</g>
<!-- Node13&#45;&gt;Node15 -->
<g id="edge14" class="edge">
<title>Node13&#45;&gt;Node15</title>
<path fill="none" stroke="midnightblue" d="M679.67,-46.4C682.18,-37.36 685.07,-26.94 687.07,-19.75"/>
<polygon fill="midnightblue" stroke="midnightblue" points="676.28,-45.51 676.98,-56.08 683.03,-47.38 676.28,-45.51"/>
</g>
<!-- Node17&#45;&gt;Node16 -->
<g id="edge17" class="edge">
<title>Node17&#45;&gt;Node16</title>
<path fill="none" stroke="midnightblue" d="M811.64,-46.4C808.8,-37.36 805.52,-26.94 803.25,-19.75"/>
<polygon fill="midnightblue" stroke="midnightblue" points="808.35,-47.6 814.69,-56.08 815.03,-45.49 808.35,-47.6"/>
</g>
<!-- Node19&#45;&gt;Node18 -->
<g id="edge20" class="edge">
<title>Node19&#45;&gt;Node18</title>
<path fill="none" stroke="midnightblue" d="M946.03,-49.54C935.16,-39.91 921.56,-27.87 912.48,-19.83"/>
<polygon fill="midnightblue" stroke="midnightblue" points="943.89,-52.32 953.7,-56.32 948.53,-47.07 943.89,-52.32"/>
</g>
<!-- Node21 -->
<g id="node21" class="node">
<title>Node21</title>
<g id="a_node21"><a xlink:href="mp4file_8h.html" target="_top" xlink:title=" ">
<polygon fill="white" stroke="black" points="1047.5,-0.5 1047.5,-19.5 1109.5,-19.5 1109.5,-0.5 1047.5,-0.5"/>
<text text-anchor="middle" x="1078.5" y="-7.5" font-family="Helvetica,sans-Serif" font-size="10.00">mp4file.h</text>
</a>
</g>
</g>
<!-- Node20&#45;&gt;Node21 -->
<g id="edge22" class="edge">
<title>Node20&#45;&gt;Node21</title>
<path fill="none" stroke="midnightblue" d="M1078.5,-45.8C1078.5,-36.91 1078.5,-26.78 1078.5,-19.75"/>
<polygon fill="midnightblue" stroke="midnightblue" points="1075,-46.08 1078.5,-56.08 1082,-46.08 1075,-46.08"/>
</g>
<!-- Node23 -->
<g id="node23" class="node">
<title>Node23</title>
<g id="a_node23"><a xlink:href="mpcfile_8h.html" target="_top" xlink:title=" ">
<polygon fill="white" stroke="black" points="1162.5,-0.5 1162.5,-19.5 1224.5,-19.5 1224.5,-0.5 1162.5,-0.5"/>
<text text-anchor="middle" x="1193.5" y="-7.5" font-family="Helvetica,sans-Serif" font-size="10.00">mpcfile.h</text>
</a>
</g>
</g>
<!-- Node22&#45;&gt;Node23 -->
<g id="edge24" class="edge">
<title>Node22&#45;&gt;Node23</title>
<path fill="none" stroke="midnightblue" d="M1193.5,-45.8C1193.5,-36.91 1193.5,-26.78 1193.5,-19.75"/>
<polygon fill="midnightblue" stroke="midnightblue" points="1190,-46.08 1193.5,-56.08 1197,-46.08 1190,-46.08"/>
</g>
<!-- Node25 -->
<g id="node25" class="node">
<title>Node25</title>
<g id="a_node25"><a xlink:href="mpegfile_8h.html" target="_top" xlink:title=" ">
<polygon fill="white" stroke="black" points="1277.5,-0.5 1277.5,-19.5 1345.5,-19.5 1345.5,-0.5 1277.5,-0.5"/>
<text text-anchor="middle" x="1311.5" y="-7.5" font-family="Helvetica,sans-Serif" font-size="10.00">mpegfile.h</text>
</a>
</g>
</g>
<!-- Node24&#45;&gt;Node25 -->
<g id="edge26" class="edge">
<title>Node24&#45;&gt;Node25</title>
<path fill="none" stroke="midnightblue" d="M1311.5,-45.8C1311.5,-36.91 1311.5,-26.78 1311.5,-19.75"/>
<polygon fill="midnightblue" stroke="midnightblue" points="1308,-46.08 1311.5,-56.08 1315,-46.08 1308,-46.08"/>
</g>
<!-- Node27 -->
<g id="node27" class="node">
<title>Node27</title>
<g id="a_node27"><a xlink:href="opusfile_8h.html" target="_top" xlink:title=" ">
<polygon fill="white" stroke="black" points="1398.5,-0.5 1398.5,-19.5 1462.5,-19.5 1462.5,-0.5 1398.5,-0.5"/>
<text text-anchor="middle" x="1430.5" y="-7.5" font-family="Helvetica,sans-Serif" font-size="10.00">opusfile.h</text>
</a>
</g>
</g>
<!-- Node26&#45;&gt;Node27 -->
<g id="edge28" class="edge">
<title>Node26&#45;&gt;Node27</title>
<path fill="none" stroke="midnightblue" d="M1430.5,-45.8C1430.5,-36.91 1430.5,-26.78 1430.5,-19.75"/>
<polygon fill="midnightblue" stroke="midnightblue" points="1427,-46.08 1430.5,-56.08 1434,-46.08 1427,-46.08"/>
</g>
<!-- Node29&#45;&gt;Node28 -->
<g id="edge31" class="edge">
<title>Node29&#45;&gt;Node28</title>
<path fill="none" stroke="midnightblue" d="M1571.88,-47.57C1565.68,-38.27 1558.33,-27.25 1553.33,-19.75"/>
<polygon fill="midnightblue" stroke="midnightblue" points="1569.1,-49.7 1577.56,-56.08 1574.92,-45.82 1569.1,-49.7"/>
</g>
<!-- Node31 -->
<g id="node31" class="node">
<title>Node31</title>
<g id="a_node31"><a xlink:href="speexfile_8h.html" target="_top" xlink:title=" ">
<polygon fill="white" stroke="black" points="1666.5,-0.5 1666.5,-19.5 1736.5,-19.5 1736.5,-0.5 1666.5,-0.5"/>
<text text-anchor="middle" x="1701.5" y="-7.5" font-family="Helvetica,sans-Serif" font-size="10.00">speexfile.h</text>
</a>
</g>
</g>
<!-- Node30&#45;&gt;Node31 -->
<g id="edge33" class="edge">
<title>Node30&#45;&gt;Node31</title>
<path fill="none" stroke="midnightblue" d="M1701.5,-45.8C1701.5,-36.91 1701.5,-26.78 1701.5,-19.75"/>
<polygon fill="midnightblue" stroke="midnightblue" points="1698,-46.08 1701.5,-56.08 1705,-46.08 1698,-46.08"/>
</g>
<!-- Node33 -->
<g id="node33" class="node">
<title>Node33</title>
<g id="a_node33"><a xlink:href="trueaudiofile_8h.html" target="_top" xlink:title=" ">
<polygon fill="white" stroke="black" points="1789,-0.5 1789,-19.5 1876,-19.5 1876,-0.5 1789,-0.5"/>
<text text-anchor="middle" x="1832.5" y="-7.5" font-family="Helvetica,sans-Serif" font-size="10.00">trueaudiofile.h</text>
</a>
</g>
</g>
<!-- Node32&#45;&gt;Node33 -->
<g id="edge35" class="edge">
<title>Node32&#45;&gt;Node33</title>
<path fill="none" stroke="midnightblue" d="M1832.5,-45.8C1832.5,-36.91 1832.5,-26.78 1832.5,-19.75"/>
<polygon fill="midnightblue" stroke="midnightblue" points="1829,-46.08 1832.5,-56.08 1836,-46.08 1829,-46.08"/>
</g>
<!-- Node35 -->
<g id="node35" class="node">
<title>Node35</title>
<g id="a_node35"><a xlink:href="vorbisfile_8h.html" target="_top" xlink:title=" ">
<polygon fill="white" stroke="black" points="1929,-0.5 1929,-19.5 2000,-19.5 2000,-0.5 1929,-0.5"/>
<text text-anchor="middle" x="1964.5" y="-7.5" font-family="Helvetica,sans-Serif" font-size="10.00">vorbisfile.h</text>
</a>
</g>
</g>
<!-- Node34&#45;&gt;Node35 -->
<g id="edge37" class="edge">
<title>Node34&#45;&gt;Node35</title>
<path fill="none" stroke="midnightblue" d="M1964.5,-45.8C1964.5,-36.91 1964.5,-26.78 1964.5,-19.75"/>
<polygon fill="midnightblue" stroke="midnightblue" points="1961,-46.08 1964.5,-56.08 1968,-46.08 1961,-46.08"/>
</g>
<!-- Node37 -->
<g id="node37" class="node">
<title>Node37</title>
<g id="a_node37"><a xlink:href="wavpackfile_8h.html" target="_top" xlink:title=" ">
<polygon fill="white" stroke="black" points="2052.5,-0.5 2052.5,-19.5 2136.5,-19.5 2136.5,-0.5 2052.5,-0.5"/>
<text text-anchor="middle" x="2094.5" y="-7.5" font-family="Helvetica,sans-Serif" font-size="10.00">wavpackfile.h</text>
</a>
</g>
</g>
<!-- Node36&#45;&gt;Node37 -->
<g id="edge39" class="edge">
<title>Node36&#45;&gt;Node37</title>
<path fill="none" stroke="midnightblue" d="M2094.5,-45.8C2094.5,-36.91 2094.5,-26.78 2094.5,-19.75"/>
<polygon fill="midnightblue" stroke="midnightblue" points="2091,-46.08 2094.5,-56.08 2098,-46.08 2091,-46.08"/>
</g>
<!-- Node39 -->
<g id="node39" class="node">
<title>Node39</title>
<g id="a_node39"><a xlink:href="wavfile_8h.html" target="_top" xlink:title=" ">
<polygon fill="white" stroke="black" points="2189,-0.5 2189,-19.5 2250,-19.5 2250,-0.5 2189,-0.5"/>
<text text-anchor="middle" x="2219.5" y="-7.5" font-family="Helvetica,sans-Serif" font-size="10.00">wavfile.h</text>
</a>
</g>
</g>
<!-- Node38&#45;&gt;Node39 -->
<g id="edge41" class="edge">
<title>Node38&#45;&gt;Node39</title>
<path fill="none" stroke="midnightblue" d="M2219.5,-45.8C2219.5,-36.91 2219.5,-26.78 2219.5,-19.75"/>
<polygon fill="midnightblue" stroke="midnightblue" points="2216,-46.08 2219.5,-56.08 2223,-46.08 2216,-46.08"/>
</g>
<!-- Node41&#45;&gt;Node40 -->
<g id="edge44" class="edge">
<title>Node41&#45;&gt;Node40</title>
<path fill="none" stroke="midnightblue" d="M2357.55,-47.57C2351.19,-38.27 2343.63,-27.25 2338.5,-19.75"/>
<polygon fill="midnightblue" stroke="midnightblue" points="2354.85,-49.81 2363.39,-56.08 2360.63,-45.86 2354.85,-49.81"/>
</g>
</g>
</svg>
