<?xml version="1.0" encoding="UTF-8" standalone="no"?>
<!DOCTYPE svg PUBLIC "-//W3C//DTD SVG 1.1//EN"
 "http://www.w3.org/Graphics/SVG/1.1/DTD/svg11.dtd">
<!-- Generated by graphviz version 2.46.1 (20210213.1702)
 -->
<!-- Title: audioproperties.h Pages: 1 -->
<svg width="2015pt" height="140pt"
 viewBox="0.00 0.00 2015.00 140.00" xmlns="http://www.w3.org/2000/svg" xmlns:xlink="http://www.w3.org/1999/xlink">
<g id="graph0" class="graph" transform="scale(1 1) rotate(0) translate(4 136)">
<title>audioproperties.h</title>
<polygon fill="white" stroke="transparent" points="-4,4 -4,-136 2011,-136 2011,4 -4,4"/>
<!-- Node1 -->
<g id="node1" class="node">
<title>Node1</title>
<g id="a_node1"><a xlink:title=" ">
<polygon fill="#bfbfbf" stroke="black" points="903,-112.5 903,-131.5 994,-131.5 994,-112.5 903,-112.5"/>
<text text-anchor="middle" x="948.5" y="-119.5" font-family="Helvetica,sans-Serif" font-size="10.00">audioproperties.h</text>
</a>
</g>
</g>
<!-- Node2 -->
<g id="node2" class="node">
<title>Node2</title>
<g id="a_node2"><a xlink:href="apeproperties_8h.html" target="_top" xlink:title=" ">
<polygon fill="white" stroke="black" points="0,-56.5 0,-75.5 83,-75.5 83,-56.5 0,-56.5"/>
<text text-anchor="middle" x="41.5" y="-63.5" font-family="Helvetica,sans-Serif" font-size="10.00">apeproperties.h</text>
</a>
</g>
</g>
<!-- Node1&#45;&gt;Node2 -->
<g id="edge1" class="edge">
<title>Node1&#45;&gt;Node2</title>
<path fill="none" stroke="midnightblue" d="M892.56,-120.49C755.52,-118.72 392.25,-110.82 91.5,-76 88.78,-75.69 85.99,-75.32 83.18,-74.91"/>
<polygon fill="midnightblue" stroke="midnightblue" points="892.76,-123.99 902.81,-120.62 892.85,-116.99 892.76,-123.99"/>
</g>
<!-- Node4 -->
<g id="node4" class="node">
<title>Node4</title>
<g id="a_node4"><a xlink:href="asfproperties_8h.html" target="_top" xlink:title=" ">
<polygon fill="white" stroke="black" points="101,-56.5 101,-75.5 182,-75.5 182,-56.5 101,-56.5"/>
<text text-anchor="middle" x="141.5" y="-63.5" font-family="Helvetica,sans-Serif" font-size="10.00">asfproperties.h</text>
</a>
</g>
</g>
<!-- Node1&#45;&gt;Node4 -->
<g id="edge3" class="edge">
<title>Node1&#45;&gt;Node4</title>
<path fill="none" stroke="midnightblue" d="M892.45,-120.02C766.52,-117.29 451.77,-107.63 190.5,-76 187.75,-75.67 184.93,-75.28 182.08,-74.85"/>
<polygon fill="midnightblue" stroke="midnightblue" points="892.54,-123.52 902.61,-120.23 892.69,-116.52 892.54,-123.52"/>
</g>
<!-- Node6 -->
<g id="node6" class="node">
<title>Node6</title>
<g id="a_node6"><a xlink:href="fileref_8h.html" target="_top" xlink:title=" ">
<polygon fill="white" stroke="black" points="200,-56.5 200,-75.5 249,-75.5 249,-56.5 200,-56.5"/>
<text text-anchor="middle" x="224.5" y="-63.5" font-family="Helvetica,sans-Serif" font-size="10.00">fileref.h</text>
</a>
</g>
</g>
<!-- Node1&#45;&gt;Node6 -->
<g id="edge5" class="edge">
<title>Node1&#45;&gt;Node6</title>
<path fill="none" stroke="midnightblue" d="M892.63,-121.15C774.52,-120.65 491.15,-115.06 257.5,-76 254.81,-75.55 252.01,-74.97 249.25,-74.32"/>
<polygon fill="midnightblue" stroke="midnightblue" points="892.85,-124.65 902.86,-121.19 892.87,-117.65 892.85,-124.65"/>
</g>
<!-- Node7 -->
<g id="node7" class="node">
<title>Node7</title>
<g id="a_node7"><a xlink:href="flacproperties_8h.html" target="_top" xlink:title=" ">
<polygon fill="white" stroke="black" points="267,-56.5 267,-75.5 350,-75.5 350,-56.5 267,-56.5"/>
<text text-anchor="middle" x="308.5" y="-63.5" font-family="Helvetica,sans-Serif" font-size="10.00">flacproperties.h</text>
</a>
</g>
</g>
<!-- Node1&#45;&gt;Node7 -->
<g id="edge6" class="edge">
<title>Node1&#45;&gt;Node7</title>
<path fill="none" stroke="midnightblue" d="M892.67,-118.23C788.56,-112.73 557.8,-98.94 364.5,-76 359.81,-75.44 354.9,-74.78 350.04,-74.07"/>
<polygon fill="midnightblue" stroke="midnightblue" points="892.77,-121.74 902.94,-118.77 893.14,-114.75 892.77,-121.74"/>
</g>
<!-- Node10 -->
<g id="node10" class="node">
<title>Node10</title>
<g id="a_node10"><a xlink:href="itfile_8h.html" target="_top" xlink:title=" ">
<polygon fill="white" stroke="black" points="406,-0.5 406,-19.5 449,-19.5 449,-0.5 406,-0.5"/>
<text text-anchor="middle" x="427.5" y="-7.5" font-family="Helvetica,sans-Serif" font-size="10.00">itfile.h</text>
</a>
</g>
</g>
<!-- Node1&#45;&gt;Node10 -->
<g id="edge9" class="edge">
<title>Node1&#45;&gt;Node10</title>
<path fill="none" stroke="midnightblue" d="M892.56,-120.63C759.09,-119.16 430.58,-111.9 397.5,-76 382,-59.18 404.28,-32.96 418.04,-19.54"/>
<polygon fill="midnightblue" stroke="midnightblue" points="892.55,-124.13 902.59,-120.73 892.62,-117.13 892.55,-124.13"/>
</g>
<!-- Node11 -->
<g id="node11" class="node">
<title>Node11</title>
<g id="a_node11"><a xlink:href="itproperties_8h.html" target="_top" xlink:title=" ">
<polygon fill="white" stroke="black" points="407,-56.5 407,-75.5 480,-75.5 480,-56.5 407,-56.5"/>
<text text-anchor="middle" x="443.5" y="-63.5" font-family="Helvetica,sans-Serif" font-size="10.00">itproperties.h</text>
</a>
</g>
</g>
<!-- Node1&#45;&gt;Node11 -->
<g id="edge10" class="edge">
<title>Node1&#45;&gt;Node11</title>
<path fill="none" stroke="midnightblue" d="M892.9,-116.86C807.16,-110.16 637.57,-95.69 494.5,-76 489.87,-75.36 485.01,-74.61 480.22,-73.82"/>
<polygon fill="midnightblue" stroke="midnightblue" points="892.7,-120.35 902.94,-117.63 893.24,-113.37 892.7,-120.35"/>
</g>
<!-- Node12 -->
<g id="node12" class="node">
<title>Node12</title>
<g id="a_node12"><a xlink:href="modfile_8h.html" target="_top" xlink:title=" ">
<polygon fill="white" stroke="black" points="496.5,-0.5 496.5,-19.5 552.5,-19.5 552.5,-0.5 496.5,-0.5"/>
<text text-anchor="middle" x="524.5" y="-7.5" font-family="Helvetica,sans-Serif" font-size="10.00">modfile.h</text>
</a>
</g>
</g>
<!-- Node1&#45;&gt;Node12 -->
<g id="edge12" class="edge">
<title>Node1&#45;&gt;Node12</title>
<path fill="none" stroke="midnightblue" d="M892.7,-119.01C783.96,-114.57 552.09,-102.12 527.5,-76 513.25,-60.87 517.94,-33.91 521.7,-19.94"/>
<polygon fill="midnightblue" stroke="midnightblue" points="892.7,-122.51 902.83,-119.42 892.98,-115.52 892.7,-122.51"/>
</g>
<!-- Node13 -->
<g id="node13" class="node">
<title>Node13</title>
<g id="a_node13"><a xlink:href="modproperties_8h.html" target="_top" xlink:title=" ">
<polygon fill="white" stroke="black" points="536.5,-56.5 536.5,-75.5 622.5,-75.5 622.5,-56.5 536.5,-56.5"/>
<text text-anchor="middle" x="579.5" y="-63.5" font-family="Helvetica,sans-Serif" font-size="10.00">modproperties.h</text>
</a>
</g>
</g>
<!-- Node1&#45;&gt;Node13 -->
<g id="edge13" class="edge">
<title>Node1&#45;&gt;Node13</title>
<path fill="none" stroke="midnightblue" d="M892.59,-113.59C829.19,-105.06 722.78,-90.38 631.5,-76 628.6,-75.54 625.62,-75.06 622.61,-74.57"/>
<polygon fill="midnightblue" stroke="midnightblue" points="892.39,-117.09 902.76,-114.95 893.32,-110.15 892.39,-117.09"/>
</g>
<!-- Node14 -->
<g id="node14" class="node">
<title>Node14</title>
<g id="a_node14"><a xlink:href="mp4properties_8h.html" target="_top" xlink:title=" ">
<polygon fill="white" stroke="black" points="640.5,-56.5 640.5,-75.5 726.5,-75.5 726.5,-56.5 640.5,-56.5"/>
<text text-anchor="middle" x="683.5" y="-63.5" font-family="Helvetica,sans-Serif" font-size="10.00">mp4properties.h</text>
</a>
</g>
</g>
<!-- Node1&#45;&gt;Node14 -->
<g id="edge15" class="edge">
<title>Node1&#45;&gt;Node14</title>
<path fill="none" stroke="midnightblue" d="M896.53,-110.41C846.45,-100.2 771.64,-84.96 725.29,-75.52"/>
<polygon fill="midnightblue" stroke="midnightblue" points="896.01,-113.88 906.51,-112.44 897.41,-107.02 896.01,-113.88"/>
</g>
<!-- Node16 -->
<g id="node16" class="node">
<title>Node16</title>
<g id="a_node16"><a xlink:href="mpcproperties_8h.html" target="_top" xlink:title=" ">
<polygon fill="white" stroke="black" points="744.5,-56.5 744.5,-75.5 830.5,-75.5 830.5,-56.5 744.5,-56.5"/>
<text text-anchor="middle" x="787.5" y="-63.5" font-family="Helvetica,sans-Serif" font-size="10.00">mpcproperties.h</text>
</a>
</g>
</g>
<!-- Node1&#45;&gt;Node16 -->
<g id="edge17" class="edge">
<title>Node1&#45;&gt;Node16</title>
<path fill="none" stroke="midnightblue" d="M913.24,-109.17C882.92,-99 839.93,-84.59 812.89,-75.52"/>
<polygon fill="midnightblue" stroke="midnightblue" points="912.4,-112.58 922.99,-112.44 914.62,-105.95 912.4,-112.58"/>
</g>
<!-- Node18 -->
<g id="node18" class="node">
<title>Node18</title>
<g id="a_node18"><a xlink:href="mpegproperties_8h.html" target="_top" xlink:title=" ">
<polygon fill="white" stroke="black" points="848.5,-56.5 848.5,-75.5 940.5,-75.5 940.5,-56.5 848.5,-56.5"/>
<text text-anchor="middle" x="894.5" y="-63.5" font-family="Helvetica,sans-Serif" font-size="10.00">mpegproperties.h</text>
</a>
</g>
</g>
<!-- Node1&#45;&gt;Node18 -->
<g id="edge19" class="edge">
<title>Node1&#45;&gt;Node18</title>
<path fill="none" stroke="midnightblue" d="M932.5,-105C922.93,-95.43 911.14,-83.64 903.25,-75.75"/>
<polygon fill="midnightblue" stroke="midnightblue" points="930.04,-107.49 939.58,-112.08 934.99,-102.54 930.04,-107.49"/>
</g>
<!-- Node20 -->
<g id="node20" class="node">
<title>Node20</title>
<g id="a_node20"><a xlink:href="opusproperties_8h.html" target="_top" xlink:title=" ">
<polygon fill="white" stroke="black" points="959,-56.5 959,-75.5 1048,-75.5 1048,-56.5 959,-56.5"/>
<text text-anchor="middle" x="1003.5" y="-63.5" font-family="Helvetica,sans-Serif" font-size="10.00">opusproperties.h</text>
</a>
</g>
</g>
<!-- Node1&#45;&gt;Node20 -->
<g id="edge21" class="edge">
<title>Node1&#45;&gt;Node20</title>
<path fill="none" stroke="midnightblue" d="M964.79,-105C974.54,-95.43 986.55,-83.64 994.59,-75.75"/>
<polygon fill="midnightblue" stroke="midnightblue" points="962.27,-102.58 957.58,-112.08 967.17,-107.57 962.27,-102.58"/>
</g>
<!-- Node22 -->
<g id="node22" class="node">
<title>Node22</title>
<g id="a_node22"><a xlink:href="speexproperties_8h.html" target="_top" xlink:title=" ">
<polygon fill="white" stroke="black" points="1066.5,-56.5 1066.5,-75.5 1160.5,-75.5 1160.5,-56.5 1066.5,-56.5"/>
<text text-anchor="middle" x="1113.5" y="-63.5" font-family="Helvetica,sans-Serif" font-size="10.00">speexproperties.h</text>
</a>
</g>
</g>
<!-- Node1&#45;&gt;Node22 -->
<g id="edge23" class="edge">
<title>Node1&#45;&gt;Node22</title>
<path fill="none" stroke="midnightblue" d="M984.24,-109.3C1015.33,-99.13 1059.65,-84.62 1087.48,-75.52"/>
<polygon fill="midnightblue" stroke="midnightblue" points="983.06,-106.01 974.64,-112.44 985.24,-112.66 983.06,-106.01"/>
</g>
<!-- Node24 -->
<g id="node24" class="node">
<title>Node24</title>
<g id="a_node24"><a xlink:href="vorbisproperties_8h.html" target="_top" xlink:title=" ">
<polygon fill="white" stroke="black" points="1178.5,-56.5 1178.5,-75.5 1272.5,-75.5 1272.5,-56.5 1178.5,-56.5"/>
<text text-anchor="middle" x="1225.5" y="-63.5" font-family="Helvetica,sans-Serif" font-size="10.00">vorbisproperties.h</text>
</a>
</g>
</g>
<!-- Node1&#45;&gt;Node24 -->
<g id="edge25" class="edge">
<title>Node1&#45;&gt;Node24</title>
<path fill="none" stroke="midnightblue" d="M1002.5,-110.47C1054.85,-100.27 1133.27,-84.98 1181.81,-75.52"/>
<polygon fill="midnightblue" stroke="midnightblue" points="1001.54,-107.09 992.39,-112.44 1002.88,-113.97 1001.54,-107.09"/>
</g>
<!-- Node26 -->
<g id="node26" class="node">
<title>Node26</title>
<g id="a_node26"><a xlink:href="aiffproperties_8h.html" target="_top" xlink:title=" ">
<polygon fill="white" stroke="black" points="1291,-56.5 1291,-75.5 1372,-75.5 1372,-56.5 1291,-56.5"/>
<text text-anchor="middle" x="1331.5" y="-63.5" font-family="Helvetica,sans-Serif" font-size="10.00">aiffproperties.h</text>
</a>
</g>
</g>
<!-- Node1&#45;&gt;Node26 -->
<g id="edge27" class="edge">
<title>Node1&#45;&gt;Node26</title>
<path fill="none" stroke="midnightblue" d="M1004.32,-114.21C1070.55,-105.99 1184.27,-91.31 1281.5,-76 1284.55,-75.52 1287.7,-75 1290.87,-74.47"/>
<polygon fill="midnightblue" stroke="midnightblue" points="1003.6,-110.78 994.11,-115.48 1004.46,-117.72 1003.6,-110.78"/>
</g>
<!-- Node28 -->
<g id="node28" class="node">
<title>Node28</title>
<g id="a_node28"><a xlink:href="wavproperties_8h.html" target="_top" xlink:title=" ">
<polygon fill="white" stroke="black" points="1390.5,-56.5 1390.5,-75.5 1476.5,-75.5 1476.5,-56.5 1390.5,-56.5"/>
<text text-anchor="middle" x="1433.5" y="-63.5" font-family="Helvetica,sans-Serif" font-size="10.00">wavproperties.h</text>
</a>
</g>
</g>
<!-- Node1&#45;&gt;Node28 -->
<g id="edge29" class="edge">
<title>Node1&#45;&gt;Node28</title>
<path fill="none" stroke="midnightblue" d="M1004.16,-116.36C1086.57,-109.22 1245.81,-94.43 1380.5,-76 1383.74,-75.56 1387.08,-75.07 1390.44,-74.55"/>
<polygon fill="midnightblue" stroke="midnightblue" points="1003.68,-112.89 994.02,-117.23 1004.28,-119.86 1003.68,-112.89"/>
</g>
<!-- Node30 -->
<g id="node30" class="node">
<title>Node30</title>
<g id="a_node30"><a xlink:href="s3mfile_8h.html" target="_top" xlink:title=" ">
<polygon fill="white" stroke="black" points="1513.5,-0.5 1513.5,-19.5 1569.5,-19.5 1569.5,-0.5 1513.5,-0.5"/>
<text text-anchor="middle" x="1541.5" y="-7.5" font-family="Helvetica,sans-Serif" font-size="10.00">s3mfile.h</text>
</a>
</g>
</g>
<!-- Node1&#45;&gt;Node30 -->
<g id="edge31" class="edge">
<title>Node1&#45;&gt;Node30</title>
<path fill="none" stroke="midnightblue" d="M1004.27,-121.59C1124.22,-122.02 1402.59,-118.28 1485.5,-76 1510.45,-63.28 1528.95,-34.19 1537.03,-19.63"/>
<polygon fill="midnightblue" stroke="midnightblue" points="1004.21,-118.09 994.19,-121.54 1004.17,-125.09 1004.21,-118.09"/>
</g>
<!-- Node31 -->
<g id="node31" class="node">
<title>Node31</title>
<g id="a_node31"><a xlink:href="s3mproperties_8h.html" target="_top" xlink:title=" ">
<polygon fill="white" stroke="black" points="1532.5,-56.5 1532.5,-75.5 1618.5,-75.5 1618.5,-56.5 1532.5,-56.5"/>
<text text-anchor="middle" x="1575.5" y="-63.5" font-family="Helvetica,sans-Serif" font-size="10.00">s3mproperties.h</text>
</a>
</g>
</g>
<!-- Node1&#45;&gt;Node31 -->
<g id="edge32" class="edge">
<title>Node1&#45;&gt;Node31</title>
<path fill="none" stroke="midnightblue" d="M1004.14,-118.05C1106.3,-112.31 1330.51,-98.23 1518.5,-76 1522.98,-75.47 1527.64,-74.85 1532.29,-74.18"/>
<polygon fill="midnightblue" stroke="midnightblue" points="1003.85,-114.56 994.06,-118.61 1004.24,-121.55 1003.85,-114.56"/>
</g>
<!-- Node32 -->
<g id="node32" class="node">
<title>Node32</title>
<g id="a_node32"><a xlink:href="trueaudioproperties_8h.html" target="_top" xlink:title=" ">
<polygon fill="white" stroke="black" points="1637,-56.5 1637,-75.5 1744,-75.5 1744,-56.5 1637,-56.5"/>
<text text-anchor="middle" x="1690.5" y="-63.5" font-family="Helvetica,sans-Serif" font-size="10.00">trueaudioproperties.h</text>
</a>
</g>
</g>
<!-- Node1&#45;&gt;Node32 -->
<g id="edge34" class="edge">
<title>Node1&#45;&gt;Node32</title>
<path fill="none" stroke="midnightblue" d="M1004.38,-118.73C1120.61,-113.7 1396.82,-100.09 1627.5,-76 1630.58,-75.68 1633.73,-75.32 1636.92,-74.94"/>
<polygon fill="midnightblue" stroke="midnightblue" points="1004.14,-115.24 994.3,-119.16 1004.44,-122.23 1004.14,-115.24"/>
</g>
<!-- Node34 -->
<g id="node34" class="node">
<title>Node34</title>
<g id="a_node34"><a xlink:href="wavpackproperties_8h.html" target="_top" xlink:title=" ">
<polygon fill="white" stroke="black" points="1762,-56.5 1762,-75.5 1869,-75.5 1869,-56.5 1762,-56.5"/>
<text text-anchor="middle" x="1815.5" y="-63.5" font-family="Helvetica,sans-Serif" font-size="10.00">wavpackproperties.h</text>
</a>
</g>
</g>
<!-- Node1&#45;&gt;Node34 -->
<g id="edge36" class="edge">
<title>Node1&#45;&gt;Node34</title>
<path fill="none" stroke="midnightblue" d="M1004.58,-119.52C1135.71,-115.7 1472.46,-103.79 1752.5,-76 1755.58,-75.69 1758.74,-75.35 1761.92,-74.97"/>
<polygon fill="midnightblue" stroke="midnightblue" points="1004.28,-116.03 994.39,-119.81 1004.48,-123.02 1004.28,-116.03"/>
</g>
<!-- Node36 -->
<g id="node36" class="node">
<title>Node36</title>
<g id="a_node36"><a xlink:href="xmfile_8h.html" target="_top" xlink:title=" ">
<polygon fill="white" stroke="black" points="1906,-0.5 1906,-19.5 1957,-19.5 1957,-0.5 1906,-0.5"/>
<text text-anchor="middle" x="1931.5" y="-7.5" font-family="Helvetica,sans-Serif" font-size="10.00">xmfile.h</text>
</a>
</g>
</g>
<!-- Node1&#45;&gt;Node36 -->
<g id="edge38" class="edge">
<title>Node1&#45;&gt;Node36</title>
<path fill="none" stroke="midnightblue" d="M1004.28,-120.9C1192.9,-120.2 1799.56,-114.91 1877.5,-76 1902.18,-63.68 1919.73,-34.4 1927.32,-19.71"/>
<polygon fill="midnightblue" stroke="midnightblue" points="1004.02,-117.4 994.03,-120.93 1004.04,-124.4 1004.02,-117.4"/>
</g>
<!-- Node37 -->
<g id="node37" class="node">
<title>Node37</title>
<g id="a_node37"><a xlink:href="xmproperties_8h.html" target="_top" xlink:title=" ">
<polygon fill="white" stroke="black" points="1926,-56.5 1926,-75.5 2007,-75.5 2007,-56.5 1926,-56.5"/>
<text text-anchor="middle" x="1966.5" y="-63.5" font-family="Helvetica,sans-Serif" font-size="10.00">xmproperties.h</text>
</a>
</g>
</g>
<!-- Node1&#45;&gt;Node37 -->
<g id="edge39" class="edge">
<title>Node1&#45;&gt;Node37</title>
<path fill="none" stroke="midnightblue" d="M1004.47,-120.64C1152.79,-119.2 1568.1,-112 1911.5,-76 1916.12,-75.52 1920.94,-74.9 1925.72,-74.21"/>
<polygon fill="midnightblue" stroke="midnightblue" points="1004.22,-117.14 994.26,-120.73 1004.29,-124.14 1004.22,-117.14"/>
</g>
<!-- Node3 -->
<g id="node3" class="node">
<title>Node3</title>
<g id="a_node3"><a xlink:href="apefile_8h.html" target="_top" xlink:title=" ">
<polygon fill="white" stroke="black" points="15,-0.5 15,-19.5 68,-19.5 68,-0.5 15,-0.5"/>
<text text-anchor="middle" x="41.5" y="-7.5" font-family="Helvetica,sans-Serif" font-size="10.00">apefile.h</text>
</a>
</g>
</g>
<!-- Node2&#45;&gt;Node3 -->
<g id="edge2" class="edge">
<title>Node2&#45;&gt;Node3</title>
<path fill="none" stroke="midnightblue" d="M41.5,-45.8C41.5,-36.91 41.5,-26.78 41.5,-19.75"/>
<polygon fill="midnightblue" stroke="midnightblue" points="38,-46.08 41.5,-56.08 45,-46.08 38,-46.08"/>
</g>
<!-- Node5 -->
<g id="node5" class="node">
<title>Node5</title>
<g id="a_node5"><a xlink:href="asffile_8h.html" target="_top" xlink:title=" ">
<polygon fill="white" stroke="black" points="116,-0.5 116,-19.5 167,-19.5 167,-0.5 116,-0.5"/>
<text text-anchor="middle" x="141.5" y="-7.5" font-family="Helvetica,sans-Serif" font-size="10.00">asffile.h</text>
</a>
</g>
</g>
<!-- Node4&#45;&gt;Node5 -->
<g id="edge4" class="edge">
<title>Node4&#45;&gt;Node5</title>
<path fill="none" stroke="midnightblue" d="M141.5,-45.8C141.5,-36.91 141.5,-26.78 141.5,-19.75"/>
<polygon fill="midnightblue" stroke="midnightblue" points="138,-46.08 141.5,-56.08 145,-46.08 138,-46.08"/>
</g>
<!-- Node8 -->
<g id="node8" class="node">
<title>Node8</title>
<g id="a_node8"><a xlink:href="flacfile_8h.html" target="_top" xlink:title=" ">
<polygon fill="white" stroke="black" points="217,-0.5 217,-19.5 270,-19.5 270,-0.5 217,-0.5"/>
<text text-anchor="middle" x="243.5" y="-7.5" font-family="Helvetica,sans-Serif" font-size="10.00">flacfile.h</text>
</a>
</g>
</g>
<!-- Node7&#45;&gt;Node8 -->
<g id="edge7" class="edge">
<title>Node7&#45;&gt;Node8</title>
<path fill="none" stroke="midnightblue" d="M290.23,-49.82C278.58,-40.15 263.9,-27.95 254.13,-19.83"/>
<polygon fill="midnightblue" stroke="midnightblue" points="288.13,-52.63 298.06,-56.32 292.6,-47.24 288.13,-52.63"/>
</g>
<!-- Node9 -->
<g id="node9" class="node">
<title>Node9</title>
<g id="a_node9"><a xlink:href="oggflacfile_8h.html" target="_top" xlink:title=" ">
<polygon fill="white" stroke="black" points="288,-0.5 288,-19.5 357,-19.5 357,-0.5 288,-0.5"/>
<text text-anchor="middle" x="322.5" y="-7.5" font-family="Helvetica,sans-Serif" font-size="10.00">oggflacfile.h</text>
</a>
</g>
</g>
<!-- Node7&#45;&gt;Node9 -->
<g id="edge8" class="edge">
<title>Node7&#45;&gt;Node9</title>
<path fill="none" stroke="midnightblue" d="M313.32,-46.4C315.67,-37.36 318.37,-26.94 320.23,-19.75"/>
<polygon fill="midnightblue" stroke="midnightblue" points="309.93,-45.52 310.81,-56.08 316.71,-47.28 309.93,-45.52"/>
</g>
<!-- Node11&#45;&gt;Node10 -->
<g id="edge11" class="edge">
<title>Node11&#45;&gt;Node10</title>
<path fill="none" stroke="midnightblue" d="M437.99,-46.4C435.31,-37.36 432.22,-26.94 430.09,-19.75"/>
<polygon fill="midnightblue" stroke="midnightblue" points="434.66,-47.49 440.86,-56.08 441.37,-45.5 434.66,-47.49"/>
</g>
<!-- Node13&#45;&gt;Node12 -->
<g id="edge14" class="edge">
<title>Node13&#45;&gt;Node12</title>
<path fill="none" stroke="midnightblue" d="M563.21,-49C553.46,-39.43 541.45,-27.64 533.41,-19.75"/>
<polygon fill="midnightblue" stroke="midnightblue" points="560.83,-51.57 570.42,-56.08 565.73,-46.58 560.83,-51.57"/>
</g>
<!-- Node15 -->
<g id="node15" class="node">
<title>Node15</title>
<g id="a_node15"><a xlink:href="mp4file_8h.html" target="_top" xlink:title=" ">
<polygon fill="white" stroke="black" points="655.5,-0.5 655.5,-19.5 711.5,-19.5 711.5,-0.5 655.5,-0.5"/>
<text text-anchor="middle" x="683.5" y="-7.5" font-family="Helvetica,sans-Serif" font-size="10.00">mp4file.h</text>
</a>
</g>
</g>
<!-- Node14&#45;&gt;Node15 -->
<g id="edge16" class="edge">
<title>Node14&#45;&gt;Node15</title>
<path fill="none" stroke="midnightblue" d="M683.5,-45.8C683.5,-36.91 683.5,-26.78 683.5,-19.75"/>
<polygon fill="midnightblue" stroke="midnightblue" points="680,-46.08 683.5,-56.08 687,-46.08 680,-46.08"/>
</g>
<!-- Node17 -->
<g id="node17" class="node">
<title>Node17</title>
<g id="a_node17"><a xlink:href="mpcfile_8h.html" target="_top" xlink:title=" ">
<polygon fill="white" stroke="black" points="759.5,-0.5 759.5,-19.5 815.5,-19.5 815.5,-0.5 759.5,-0.5"/>
<text text-anchor="middle" x="787.5" y="-7.5" font-family="Helvetica,sans-Serif" font-size="10.00">mpcfile.h</text>
</a>
</g>
</g>
<!-- Node16&#45;&gt;Node17 -->
<g id="edge18" class="edge">
<title>Node16&#45;&gt;Node17</title>
<path fill="none" stroke="midnightblue" d="M787.5,-45.8C787.5,-36.91 787.5,-26.78 787.5,-19.75"/>
<polygon fill="midnightblue" stroke="midnightblue" points="784,-46.08 787.5,-56.08 791,-46.08 784,-46.08"/>
</g>
<!-- Node19 -->
<g id="node19" class="node">
<title>Node19</title>
<g id="a_node19"><a xlink:href="mpegfile_8h.html" target="_top" xlink:title=" ">
<polygon fill="white" stroke="black" points="863.5,-0.5 863.5,-19.5 925.5,-19.5 925.5,-0.5 863.5,-0.5"/>
<text text-anchor="middle" x="894.5" y="-7.5" font-family="Helvetica,sans-Serif" font-size="10.00">mpegfile.h</text>
</a>
</g>
</g>
<!-- Node18&#45;&gt;Node19 -->
<g id="edge20" class="edge">
<title>Node18&#45;&gt;Node19</title>
<path fill="none" stroke="midnightblue" d="M894.5,-45.8C894.5,-36.91 894.5,-26.78 894.5,-19.75"/>
<polygon fill="midnightblue" stroke="midnightblue" points="891,-46.08 894.5,-56.08 898,-46.08 891,-46.08"/>
</g>
<!-- Node21 -->
<g id="node21" class="node">
<title>Node21</title>
<g id="a_node21"><a xlink:href="opusfile_8h.html" target="_top" xlink:title=" ">
<polygon fill="white" stroke="black" points="974,-0.5 974,-19.5 1033,-19.5 1033,-0.5 974,-0.5"/>
<text text-anchor="middle" x="1003.5" y="-7.5" font-family="Helvetica,sans-Serif" font-size="10.00">opusfile.h</text>
</a>
</g>
</g>
<!-- Node20&#45;&gt;Node21 -->
<g id="edge22" class="edge">
<title>Node20&#45;&gt;Node21</title>
<path fill="none" stroke="midnightblue" d="M1003.5,-45.8C1003.5,-36.91 1003.5,-26.78 1003.5,-19.75"/>
<polygon fill="midnightblue" stroke="midnightblue" points="1000,-46.08 1003.5,-56.08 1007,-46.08 1000,-46.08"/>
</g>
<!-- Node23 -->
<g id="node23" class="node">
<title>Node23</title>
<g id="a_node23"><a xlink:href="speexfile_8h.html" target="_top" xlink:title=" ">
<polygon fill="white" stroke="black" points="1081.5,-0.5 1081.5,-19.5 1145.5,-19.5 1145.5,-0.5 1081.5,-0.5"/>
<text text-anchor="middle" x="1113.5" y="-7.5" font-family="Helvetica,sans-Serif" font-size="10.00">speexfile.h</text>
</a>
</g>
</g>
<!-- Node22&#45;&gt;Node23 -->
<g id="edge24" class="edge">
<title>Node22&#45;&gt;Node23</title>
<path fill="none" stroke="midnightblue" d="M1113.5,-45.8C1113.5,-36.91 1113.5,-26.78 1113.5,-19.75"/>
<polygon fill="midnightblue" stroke="midnightblue" points="1110,-46.08 1113.5,-56.08 1117,-46.08 1110,-46.08"/>
</g>
<!-- Node25 -->
<g id="node25" class="node">
<title>Node25</title>
<g id="a_node25"><a xlink:href="vorbisfile_8h.html" target="_top" xlink:title=" ">
<polygon fill="white" stroke="black" points="1193.5,-0.5 1193.5,-19.5 1257.5,-19.5 1257.5,-0.5 1193.5,-0.5"/>
<text text-anchor="middle" x="1225.5" y="-7.5" font-family="Helvetica,sans-Serif" font-size="10.00">vorbisfile.h</text>
</a>
</g>
</g>
<!-- Node24&#45;&gt;Node25 -->
<g id="edge26" class="edge">
<title>Node24&#45;&gt;Node25</title>
<path fill="none" stroke="midnightblue" d="M1225.5,-45.8C1225.5,-36.91 1225.5,-26.78 1225.5,-19.75"/>
<polygon fill="midnightblue" stroke="midnightblue" points="1222,-46.08 1225.5,-56.08 1229,-46.08 1222,-46.08"/>
</g>
<!-- Node27 -->
<g id="node27" class="node">
<title>Node27</title>
<g id="a_node27"><a xlink:href="aifffile_8h.html" target="_top" xlink:title=" ">
<polygon fill="white" stroke="black" points="1306,-0.5 1306,-19.5 1357,-19.5 1357,-0.5 1306,-0.5"/>
<text text-anchor="middle" x="1331.5" y="-7.5" font-family="Helvetica,sans-Serif" font-size="10.00">aifffile.h</text>
</a>
</g>
</g>
<!-- Node26&#45;&gt;Node27 -->
<g id="edge28" class="edge">
<title>Node26&#45;&gt;Node27</title>
<path fill="none" stroke="midnightblue" d="M1331.5,-45.8C1331.5,-36.91 1331.5,-26.78 1331.5,-19.75"/>
<polygon fill="midnightblue" stroke="midnightblue" points="1328,-46.08 1331.5,-56.08 1335,-46.08 1328,-46.08"/>
</g>
<!-- Node29 -->
<g id="node29" class="node">
<title>Node29</title>
<g id="a_node29"><a xlink:href="wavfile_8h.html" target="_top" xlink:title=" ">
<polygon fill="white" stroke="black" points="1405.5,-0.5 1405.5,-19.5 1461.5,-19.5 1461.5,-0.5 1405.5,-0.5"/>
<text text-anchor="middle" x="1433.5" y="-7.5" font-family="Helvetica,sans-Serif" font-size="10.00">wavfile.h</text>
</a>
</g>
</g>
<!-- Node28&#45;&gt;Node29 -->
<g id="edge30" class="edge">
<title>Node28&#45;&gt;Node29</title>
<path fill="none" stroke="midnightblue" d="M1433.5,-45.8C1433.5,-36.91 1433.5,-26.78 1433.5,-19.75"/>
<polygon fill="midnightblue" stroke="midnightblue" points="1430,-46.08 1433.5,-56.08 1437,-46.08 1430,-46.08"/>
</g>
<!-- Node31&#45;&gt;Node30 -->
<g id="edge33" class="edge">
<title>Node31&#45;&gt;Node30</title>
<path fill="none" stroke="midnightblue" d="M1564.52,-47.57C1558.67,-38.27 1551.73,-27.25 1547.01,-19.75"/>
<polygon fill="midnightblue" stroke="midnightblue" points="1561.6,-49.49 1569.89,-56.08 1567.52,-45.76 1561.6,-49.49"/>
</g>
<!-- Node33 -->
<g id="node33" class="node">
<title>Node33</title>
<g id="a_node33"><a xlink:href="trueaudiofile_8h.html" target="_top" xlink:title=" ">
<polygon fill="white" stroke="black" points="1652,-0.5 1652,-19.5 1729,-19.5 1729,-0.5 1652,-0.5"/>
<text text-anchor="middle" x="1690.5" y="-7.5" font-family="Helvetica,sans-Serif" font-size="10.00">trueaudiofile.h</text>
</a>
</g>
</g>
<!-- Node32&#45;&gt;Node33 -->
<g id="edge35" class="edge">
<title>Node32&#45;&gt;Node33</title>
<path fill="none" stroke="midnightblue" d="M1690.5,-45.8C1690.5,-36.91 1690.5,-26.78 1690.5,-19.75"/>
<polygon fill="midnightblue" stroke="midnightblue" points="1687,-46.08 1690.5,-56.08 1694,-46.08 1687,-46.08"/>
</g>
<!-- Node35 -->
<g id="node35" class="node">
<title>Node35</title>
<g id="a_node35"><a xlink:href="wavpackfile_8h.html" target="_top" xlink:title=" ">
<polygon fill="white" stroke="black" points="1777,-0.5 1777,-19.5 1854,-19.5 1854,-0.5 1777,-0.5"/>
<text text-anchor="middle" x="1815.5" y="-7.5" font-family="Helvetica,sans-Serif" font-size="10.00">wavpackfile.h</text>
</a>
</g>
</g>
<!-- Node34&#45;&gt;Node35 -->
<g id="edge37" class="edge">
<title>Node34&#45;&gt;Node35</title>
<path fill="none" stroke="midnightblue" d="M1815.5,-45.8C1815.5,-36.91 1815.5,-26.78 1815.5,-19.75"/>
<polygon fill="midnightblue" stroke="midnightblue" points="1812,-46.08 1815.5,-56.08 1819,-46.08 1812,-46.08"/>
</g>
<!-- Node37&#45;&gt;Node36 -->
<g id="edge40" class="edge">
<title>Node37&#45;&gt;Node36</title>
<path fill="none" stroke="midnightblue" d="M1955.2,-47.57C1949.18,-38.27 1942.03,-27.25 1937.17,-19.75"/>
<polygon fill="midnightblue" stroke="midnightblue" points="1952.34,-49.6 1960.72,-56.08 1958.22,-45.79 1952.34,-49.6"/>
</g>
</g>
</svg>
