<?xml version="1.0" encoding="UTF-8" standalone="no"?>
<!DOCTYPE svg PUBLIC "-//W3C//DTD SVG 1.1//EN"
 "http://www.w3.org/Graphics/SVG/1.1/DTD/svg11.dtd">
<!-- Generated by graphviz version 2.43.0 (0)
 -->
<!-- Title: chapterframe.h Pages: 1 -->
<svg width="1045pt" height="420pt"
 viewBox="0.00 0.00 1045.00 420.00" xmlns="http://www.w3.org/2000/svg" xmlns:xlink="http://www.w3.org/1999/xlink">
<g id="graph0" class="graph" transform="scale(1 1) rotate(0) translate(4 416)">
<title>chapterframe.h</title>
<polygon fill="white" stroke="transparent" points="-4,4 -4,-416 1041,-416 1041,4 -4,4"/>
<!-- Node1 -->
<g id="node1" class="node">
<title>Node1</title>
<g id="a_node1"><a xlink:title=" ">
<polygon fill="#bfbfbf" stroke="black" points="884,-392.5 884,-411.5 976,-411.5 976,-392.5 884,-392.5"/>
<text text-anchor="middle" x="930" y="-399.5" font-family="Helvetica,sans-Serif" font-size="10.00">chapterframe.h</text>
</a>
</g>
</g>
<!-- Node2 -->
<g id="node2" class="node">
<title>Node2</title>
<g id="a_node2"><a xlink:href="taglib__export_8h.html" target="_top" xlink:title=" ">
<polygon fill="white" stroke="black" points="784,-56.5 784,-75.5 874,-75.5 874,-56.5 784,-56.5"/>
<text text-anchor="middle" x="829" y="-63.5" font-family="Helvetica,sans-Serif" font-size="10.00">taglib_export.h</text>
</a>
</g>
</g>
<!-- Node1&#45;&gt;Node2 -->
<g id="edge1" class="edge">
<title>Node1&#45;&gt;Node2</title>
<path fill="none" stroke="midnightblue" d="M948.64,-392.44C979.29,-376.93 1037,-341.09 1037,-291 1037,-291 1037,-291 1037,-177 1037,-107.73 945.75,-81.97 884.13,-72.46"/>
<polygon fill="midnightblue" stroke="midnightblue" points="884.53,-68.99 874.13,-71.02 883.53,-75.91 884.53,-68.99"/>
</g>
<!-- Node3 -->
<g id="node3" class="node">
<title>Node3</title>
<g id="a_node3"><a xlink:href="id3v2tag_8h.html" target="_top" xlink:title=" ">
<polygon fill="white" stroke="black" points="609,-336.5 609,-355.5 677,-355.5 677,-336.5 609,-336.5"/>
<text text-anchor="middle" x="643" y="-343.5" font-family="Helvetica,sans-Serif" font-size="10.00">id3v2tag.h</text>
</a>
</g>
</g>
<!-- Node1&#45;&gt;Node3 -->
<g id="edge2" class="edge">
<title>Node1&#45;&gt;Node3</title>
<path fill="none" stroke="midnightblue" d="M884.52,-392.44C830.33,-382.25 740.39,-365.32 686.9,-355.26"/>
<polygon fill="midnightblue" stroke="midnightblue" points="687.5,-351.81 677.03,-353.4 686.21,-358.69 687.5,-351.81"/>
</g>
<!-- Node26 -->
<g id="node26" class="node">
<title>Node26</title>
<g id="a_node26"><a xlink:href="id3v2frame_8h.html" target="_top" xlink:title=" ">
<polygon fill="white" stroke="black" points="889,-224.5 889,-243.5 971,-243.5 971,-224.5 889,-224.5"/>
<text text-anchor="middle" x="930" y="-231.5" font-family="Helvetica,sans-Serif" font-size="10.00">id3v2frame.h</text>
</a>
</g>
</g>
<!-- Node1&#45;&gt;Node26 -->
<g id="edge54" class="edge">
<title>Node1&#45;&gt;Node26</title>
<path fill="none" stroke="midnightblue" d="M930,-392.08C930,-365.95 930,-289.21 930,-253.58"/>
<polygon fill="midnightblue" stroke="midnightblue" points="933.5,-253.57 930,-243.57 926.5,-253.57 933.5,-253.57"/>
</g>
<!-- Node3&#45;&gt;Node2 -->
<g id="edge31" class="edge">
<title>Node3&#45;&gt;Node2</title>
<path fill="none" stroke="midnightblue" d="M677.13,-341.81C766.24,-332.55 999,-301.95 999,-235 999,-235 999,-235 999,-177 999,-120.81 932.72,-91.9 882.94,-78.12"/>
<polygon fill="midnightblue" stroke="midnightblue" points="883.78,-74.72 873.22,-75.56 882,-81.49 883.78,-74.72"/>
</g>
<!-- Node4 -->
<g id="node4" class="node">
<title>Node4</title>
<g id="a_node4"><a xlink:href="tbytevector_8h.html" target="_top" xlink:title=" ">
<polygon fill="white" stroke="black" points="681.5,-112.5 681.5,-131.5 762.5,-131.5 762.5,-112.5 681.5,-112.5"/>
<text text-anchor="middle" x="722" y="-119.5" font-family="Helvetica,sans-Serif" font-size="10.00">tbytevector.h</text>
</a>
</g>
</g>
<!-- Node3&#45;&gt;Node4 -->
<g id="edge3" class="edge">
<title>Node3&#45;&gt;Node4</title>
<path fill="none" stroke="midnightblue" d="M644.74,-336.25C650.14,-310 667.87,-229.89 695,-168 699.21,-158.4 705.08,-148.35 710.28,-140.18"/>
<polygon fill="midnightblue" stroke="midnightblue" points="713.35,-141.88 715.93,-131.61 707.5,-138.03 713.35,-141.88"/>
</g>
<!-- Node12 -->
<g id="node12" class="node">
<title>Node12</title>
<g id="a_node12"><a xlink:href="tstring_8h.html" target="_top" xlink:title=" ">
<polygon fill="white" stroke="black" points="557.5,-168.5 557.5,-187.5 614.5,-187.5 614.5,-168.5 557.5,-168.5"/>
<text text-anchor="middle" x="586" y="-175.5" font-family="Helvetica,sans-Serif" font-size="10.00">tstring.h</text>
</a>
</g>
</g>
<!-- Node3&#45;&gt;Node12 -->
<g id="edge12" class="edge">
<title>Node3&#45;&gt;Node12</title>
<path fill="none" stroke="midnightblue" d="M639.94,-336.08C630.92,-309.83 604.39,-232.55 592.22,-197.12"/>
<polygon fill="midnightblue" stroke="midnightblue" points="595.5,-195.89 588.94,-187.57 588.88,-198.16 595.5,-195.89"/>
</g>
<!-- Node13 -->
<g id="node13" class="node">
<title>Node13</title>
<g id="a_node13"><a xlink:href="tlist_8h.html" target="_top" xlink:title=" ">
<polygon fill="white" stroke="black" points="307,-112.5 307,-131.5 351,-131.5 351,-112.5 307,-112.5"/>
<text text-anchor="middle" x="329" y="-119.5" font-family="Helvetica,sans-Serif" font-size="10.00">tlist.h</text>
</a>
</g>
</g>
<!-- Node3&#45;&gt;Node13 -->
<g id="edge18" class="edge">
<title>Node3&#45;&gt;Node13</title>
<path fill="none" stroke="midnightblue" d="M619.91,-336.45C569.33,-316.82 447.05,-264.23 369,-188 355.12,-174.44 344.03,-155.12 337.08,-141.07"/>
<polygon fill="midnightblue" stroke="midnightblue" points="340.2,-139.48 332.77,-131.93 333.87,-142.47 340.2,-139.48"/>
</g>
<!-- Node17 -->
<g id="node17" class="node">
<title>Node17</title>
<g id="a_node17"><a xlink:href="tmap_8h.html" target="_top" xlink:title=" ">
<polygon fill="white" stroke="black" points="225.5,-112.5 225.5,-131.5 276.5,-131.5 276.5,-112.5 225.5,-112.5"/>
<text text-anchor="middle" x="251" y="-119.5" font-family="Helvetica,sans-Serif" font-size="10.00">tmap.h</text>
</a>
</g>
</g>
<!-- Node3&#45;&gt;Node17 -->
<g id="edge24" class="edge">
<title>Node3&#45;&gt;Node17</title>
<path fill="none" stroke="midnightblue" d="M608.71,-337.2C578.5,-329.69 533.72,-316.97 497,-300 401.53,-255.89 305.17,-172.75 267.52,-138.43"/>
<polygon fill="midnightblue" stroke="midnightblue" points="269.73,-135.71 260.01,-131.51 264.99,-140.86 269.73,-135.71"/>
</g>
<!-- Node21 -->
<g id="node21" class="node">
<title>Node21</title>
<g id="a_node21"><a xlink:href="tag_8h.html" target="_top" xlink:title=" ">
<polygon fill="white" stroke="black" points="508.5,-224.5 508.5,-243.5 549.5,-243.5 549.5,-224.5 508.5,-224.5"/>
<text text-anchor="middle" x="529" y="-231.5" font-family="Helvetica,sans-Serif" font-size="10.00">tag.h</text>
</a>
</g>
</g>
<!-- Node3&#45;&gt;Node21 -->
<g id="edge32" class="edge">
<title>Node3&#45;&gt;Node21</title>
<path fill="none" stroke="midnightblue" d="M629.15,-336.25C616.26,-327.77 596.86,-314.16 582,-300 566.41,-285.15 551.15,-265.77 541.03,-252.04"/>
<polygon fill="midnightblue" stroke="midnightblue" points="543.61,-249.63 534.92,-243.57 537.93,-253.73 543.61,-249.63"/>
</g>
<!-- Node24 -->
<g id="node24" class="node">
<title>Node24</title>
<g id="a_node24"><a xlink:href="id3v2_8h.html" target="_top" xlink:title=" ">
<polygon fill="white" stroke="black" points="709.5,-168.5 709.5,-187.5 762.5,-187.5 762.5,-168.5 709.5,-168.5"/>
<text text-anchor="middle" x="736" y="-175.5" font-family="Helvetica,sans-Serif" font-size="10.00">id3v2.h</text>
</a>
</g>
</g>
<!-- Node3&#45;&gt;Node24 -->
<g id="edge42" class="edge">
<title>Node3&#45;&gt;Node24</title>
<path fill="none" stroke="midnightblue" d="M648,-336.08C662.77,-309.72 706.38,-231.88 726.11,-196.66"/>
<polygon fill="midnightblue" stroke="midnightblue" points="729.37,-198 731.2,-187.57 723.26,-194.58 729.37,-198"/>
</g>
<!-- Node25 -->
<g id="node25" class="node">
<title>Node25</title>
<g id="a_node25"><a xlink:href="id3v2framefactory_8h.html" target="_top" xlink:title=" ">
<polygon fill="white" stroke="black" points="747.5,-280.5 747.5,-299.5 862.5,-299.5 862.5,-280.5 747.5,-280.5"/>
<text text-anchor="middle" x="805" y="-287.5" font-family="Helvetica,sans-Serif" font-size="10.00">id3v2framefactory.h</text>
</a>
</g>
</g>
<!-- Node3&#45;&gt;Node25 -->
<g id="edge43" class="edge">
<title>Node3&#45;&gt;Node25</title>
<path fill="none" stroke="midnightblue" d="M668.67,-336.44C695.92,-327.36 739.18,-312.94 769.65,-302.78"/>
<polygon fill="midnightblue" stroke="midnightblue" points="771.07,-306 779.45,-299.52 768.86,-299.36 771.07,-306"/>
</g>
<!-- Node4&#45;&gt;Node2 -->
<g id="edge11" class="edge">
<title>Node4&#45;&gt;Node2</title>
<path fill="none" stroke="midnightblue" d="M739.19,-112.32C756.35,-103.66 782.95,-90.24 802.75,-80.25"/>
<polygon fill="midnightblue" stroke="midnightblue" points="804.5,-83.28 811.85,-75.65 801.35,-77.04 804.5,-83.28"/>
</g>
<!-- Node5 -->
<g id="node5" class="node">
<title>Node5</title>
<g id="a_node5"><a xlink:title=" ">
<polygon fill="white" stroke="#bfbfbf" points="605,-56.5 605,-75.5 665,-75.5 665,-56.5 605,-56.5"/>
<text text-anchor="middle" x="635" y="-63.5" font-family="Helvetica,sans-Serif" font-size="10.00">iostream</text>
</a>
</g>
</g>
<!-- Node4&#45;&gt;Node5 -->
<g id="edge4" class="edge">
<title>Node4&#45;&gt;Node5</title>
<path fill="none" stroke="midnightblue" d="M708.02,-112.32C694.45,-103.9 673.62,-90.97 657.68,-81.07"/>
<polygon fill="midnightblue" stroke="midnightblue" points="659.29,-77.95 648.94,-75.65 655.59,-83.9 659.29,-77.95"/>
</g>
<!-- Node6 -->
<g id="node6" class="node">
<title>Node6</title>
<g id="a_node6"><a xlink:title=" ">
<polygon fill="white" stroke="#bfbfbf" points="348,-56.5 348,-75.5 406,-75.5 406,-56.5 348,-56.5"/>
<text text-anchor="middle" x="377" y="-63.5" font-family="Helvetica,sans-Serif" font-size="10.00">memory</text>
</a>
</g>
</g>
<!-- Node4&#45;&gt;Node6 -->
<g id="edge5" class="edge">
<title>Node4&#45;&gt;Node6</title>
<path fill="none" stroke="midnightblue" d="M681.09,-116.15C623.97,-109.14 516.89,-95.07 416.42,-76.14"/>
<polygon fill="midnightblue" stroke="midnightblue" points="416.88,-72.66 406.4,-74.23 415.57,-79.54 416.88,-72.66"/>
</g>
<!-- Node7 -->
<g id="node7" class="node">
<title>Node7</title>
<g id="a_node7"><a xlink:title=" ">
<polygon fill="white" stroke="#bfbfbf" points="698.5,-56.5 698.5,-75.5 745.5,-75.5 745.5,-56.5 698.5,-56.5"/>
<text text-anchor="middle" x="722" y="-63.5" font-family="Helvetica,sans-Serif" font-size="10.00">vector</text>
</a>
</g>
</g>
<!-- Node4&#45;&gt;Node7 -->
<g id="edge6" class="edge">
<title>Node4&#45;&gt;Node7</title>
<path fill="none" stroke="midnightblue" d="M722,-112.08C722,-105.01 722,-94.86 722,-85.99"/>
<polygon fill="midnightblue" stroke="midnightblue" points="725.5,-85.75 722,-75.75 718.5,-85.75 725.5,-85.75"/>
</g>
<!-- Node8 -->
<g id="node8" class="node">
<title>Node8</title>
<g id="a_node8"><a xlink:href="taglib_8h.html" target="_top" xlink:title=" ">
<polygon fill="white" stroke="black" points="495.5,-56.5 495.5,-75.5 548.5,-75.5 548.5,-56.5 495.5,-56.5"/>
<text text-anchor="middle" x="522" y="-63.5" font-family="Helvetica,sans-Serif" font-size="10.00">taglib.h</text>
</a>
</g>
</g>
<!-- Node4&#45;&gt;Node8 -->
<g id="edge7" class="edge">
<title>Node4&#45;&gt;Node8</title>
<path fill="none" stroke="midnightblue" d="M690.31,-112.44C654.57,-102.79 596.53,-87.12 558.81,-76.94"/>
<polygon fill="midnightblue" stroke="midnightblue" points="559.31,-73.45 548.74,-74.22 557.48,-80.21 559.31,-73.45"/>
</g>
<!-- Node9 -->
<g id="node9" class="node">
<title>Node9</title>
<g id="a_node9"><a xlink:title=" ">
<polygon fill="white" stroke="#bfbfbf" points="463,-0.5 463,-19.5 551,-19.5 551,-0.5 463,-0.5"/>
<text text-anchor="middle" x="507" y="-7.5" font-family="Helvetica,sans-Serif" font-size="10.00">taglib_config.h</text>
</a>
</g>
</g>
<!-- Node8&#45;&gt;Node9 -->
<g id="edge8" class="edge">
<title>Node8&#45;&gt;Node9</title>
<path fill="none" stroke="midnightblue" d="M519.52,-56.08C517.51,-48.85 514.61,-38.41 512.11,-29.4"/>
<polygon fill="midnightblue" stroke="midnightblue" points="515.48,-28.45 509.43,-19.75 508.74,-30.32 515.48,-28.45"/>
</g>
<!-- Node10 -->
<g id="node10" class="node">
<title>Node10</title>
<g id="a_node10"><a xlink:title=" ">
<polygon fill="white" stroke="#bfbfbf" points="373,-0.5 373,-19.5 445,-19.5 445,-0.5 373,-0.5"/>
<text text-anchor="middle" x="409" y="-7.5" font-family="Helvetica,sans-Serif" font-size="10.00">sys/types.h</text>
</a>
</g>
</g>
<!-- Node8&#45;&gt;Node10 -->
<g id="edge9" class="edge">
<title>Node8&#45;&gt;Node10</title>
<path fill="none" stroke="midnightblue" d="M504.09,-56.44C485.75,-47.68 456.99,-33.94 435.91,-23.86"/>
<polygon fill="midnightblue" stroke="midnightblue" points="437.35,-20.67 426.82,-19.52 434.33,-26.99 437.35,-20.67"/>
</g>
<!-- Node11 -->
<g id="node11" class="node">
<title>Node11</title>
<g id="a_node11"><a xlink:title=" ">
<polygon fill="white" stroke="#bfbfbf" points="569,-0.5 569,-19.5 613,-19.5 613,-0.5 569,-0.5"/>
<text text-anchor="middle" x="591" y="-7.5" font-family="Helvetica,sans-Serif" font-size="10.00">string</text>
</a>
</g>
</g>
<!-- Node8&#45;&gt;Node11 -->
<g id="edge10" class="edge">
<title>Node8&#45;&gt;Node11</title>
<path fill="none" stroke="midnightblue" d="M533.09,-56.32C543.49,-48.18 559.26,-35.84 571.72,-26.09"/>
<polygon fill="midnightblue" stroke="midnightblue" points="573.99,-28.75 579.71,-19.83 569.68,-23.24 573.99,-28.75"/>
</g>
<!-- Node12&#45;&gt;Node2 -->
<g id="edge16" class="edge">
<title>Node12&#45;&gt;Node2</title>
<path fill="none" stroke="midnightblue" d="M614.62,-175.3C652.77,-171.92 721.26,-161.85 771,-132 790.98,-120.01 807.91,-98.92 818.23,-84.02"/>
<polygon fill="midnightblue" stroke="midnightblue" points="821.16,-85.94 823.77,-75.68 815.32,-82.07 821.16,-85.94"/>
</g>
<!-- Node12&#45;&gt;Node4 -->
<g id="edge15" class="edge">
<title>Node12&#45;&gt;Node4</title>
<path fill="none" stroke="midnightblue" d="M607.55,-168.44C630.03,-159.52 665.49,-145.44 690.98,-135.32"/>
<polygon fill="midnightblue" stroke="midnightblue" points="692.55,-138.46 700.55,-131.52 689.97,-131.95 692.55,-138.46"/>
</g>
<!-- Node12&#45;&gt;Node5 -->
<g id="edge13" class="edge">
<title>Node12&#45;&gt;Node5</title>
<path fill="none" stroke="midnightblue" d="M589.84,-168.37C597.82,-150.46 616.33,-108.92 627,-84.95"/>
<polygon fill="midnightblue" stroke="midnightblue" points="630.3,-86.15 631.17,-75.59 623.91,-83.3 630.3,-86.15"/>
</g>
<!-- Node12&#45;&gt;Node8 -->
<g id="edge17" class="edge">
<title>Node12&#45;&gt;Node8</title>
<path fill="none" stroke="midnightblue" d="M580.98,-168.37C570.46,-150.3 545.96,-108.18 532.07,-84.31"/>
<polygon fill="midnightblue" stroke="midnightblue" points="535.05,-82.47 527,-75.59 529,-86 535.05,-82.47"/>
</g>
<!-- Node12&#45;&gt;Node11 -->
<g id="edge14" class="edge">
<title>Node12&#45;&gt;Node11</title>
<path fill="none" stroke="midnightblue" d="M586.27,-168.08C587.06,-141.95 589.37,-65.21 590.44,-29.58"/>
<polygon fill="midnightblue" stroke="midnightblue" points="593.94,-29.67 590.74,-19.57 586.94,-29.46 593.94,-29.67"/>
</g>
<!-- Node13&#45;&gt;Node6 -->
<g id="edge21" class="edge">
<title>Node13&#45;&gt;Node6</title>
<path fill="none" stroke="midnightblue" d="M336.93,-112.08C343.85,-104.3 354.07,-92.8 362.45,-83.37"/>
<polygon fill="midnightblue" stroke="midnightblue" points="365.19,-85.55 369.22,-75.75 359.96,-80.9 365.19,-85.55"/>
</g>
<!-- Node13&#45;&gt;Node8 -->
<g id="edge22" class="edge">
<title>Node13&#45;&gt;Node8</title>
<path fill="none" stroke="midnightblue" d="M351.14,-114.81C383.93,-105.63 445.79,-88.32 485.39,-77.24"/>
<polygon fill="midnightblue" stroke="midnightblue" points="486.5,-80.57 495.19,-74.5 484.62,-73.83 486.5,-80.57"/>
</g>
<!-- Node14 -->
<g id="node14" class="node">
<title>Node14</title>
<g id="a_node14"><a xlink:title=" ">
<polygon fill="white" stroke="#bfbfbf" points="298,-56.5 298,-75.5 330,-75.5 330,-56.5 298,-56.5"/>
<text text-anchor="middle" x="314" y="-63.5" font-family="Helvetica,sans-Serif" font-size="10.00">list</text>
</a>
</g>
</g>
<!-- Node13&#45;&gt;Node14 -->
<g id="edge19" class="edge">
<title>Node13&#45;&gt;Node14</title>
<path fill="none" stroke="midnightblue" d="M326.52,-112.08C324.51,-104.85 321.61,-94.41 319.11,-85.4"/>
<polygon fill="midnightblue" stroke="midnightblue" points="322.48,-84.45 316.43,-75.75 315.74,-86.32 322.48,-84.45"/>
</g>
<!-- Node15 -->
<g id="node15" class="node">
<title>Node15</title>
<g id="a_node15"><a xlink:title=" ">
<polygon fill="white" stroke="#bfbfbf" points="196.5,-56.5 196.5,-75.5 279.5,-75.5 279.5,-56.5 196.5,-56.5"/>
<text text-anchor="middle" x="238" y="-63.5" font-family="Helvetica,sans-Serif" font-size="10.00">initializer_list</text>
</a>
</g>
</g>
<!-- Node13&#45;&gt;Node15 -->
<g id="edge20" class="edge">
<title>Node13&#45;&gt;Node15</title>
<path fill="none" stroke="midnightblue" d="M314.38,-112.32C300.05,-103.82 277.99,-90.73 261.25,-80.8"/>
<polygon fill="midnightblue" stroke="midnightblue" points="262.97,-77.75 252.58,-75.65 259.4,-83.77 262.97,-77.75"/>
</g>
<!-- Node16 -->
<g id="node16" class="node">
<title>Node16</title>
<g id="a_node16"><a xlink:title=" ">
<polygon fill="white" stroke="#bfbfbf" points="424.5,-56.5 424.5,-75.5 477.5,-75.5 477.5,-56.5 424.5,-56.5"/>
<text text-anchor="middle" x="451" y="-63.5" font-family="Helvetica,sans-Serif" font-size="10.00">tlist.tcc</text>
</a>
</g>
</g>
<!-- Node13&#45;&gt;Node16 -->
<g id="edge23" class="edge">
<title>Node13&#45;&gt;Node16</title>
<path fill="none" stroke="midnightblue" d="M348.33,-112.44C368.32,-103.6 399.74,-89.69 422.56,-79.59"/>
<polygon fill="midnightblue" stroke="midnightblue" points="424.03,-82.76 431.76,-75.52 421.2,-76.36 424.03,-82.76"/>
</g>
<!-- Node17&#45;&gt;Node6 -->
<g id="edge26" class="edge">
<title>Node17&#45;&gt;Node6</title>
<path fill="none" stroke="midnightblue" d="M270.97,-112.44C291.61,-103.6 324.06,-89.69 347.63,-79.59"/>
<polygon fill="midnightblue" stroke="midnightblue" points="349.32,-82.67 357.13,-75.52 346.56,-76.24 349.32,-82.67"/>
</g>
<!-- Node17&#45;&gt;Node8 -->
<g id="edge29" class="edge">
<title>Node17&#45;&gt;Node8</title>
<path fill="none" stroke="midnightblue" d="M276.52,-116.12C329.41,-105.99 448.62,-83.17 485.05,-75.94"/>
<polygon fill="midnightblue" stroke="midnightblue" points="486.21,-79.28 495.3,-73.85 484.8,-72.42 486.21,-79.28"/>
</g>
<!-- Node17&#45;&gt;Node15 -->
<g id="edge27" class="edge">
<title>Node17&#45;&gt;Node15</title>
<path fill="none" stroke="midnightblue" d="M248.85,-112.08C247.13,-104.93 244.65,-94.64 242.5,-85.69"/>
<polygon fill="midnightblue" stroke="midnightblue" points="245.85,-84.65 240.11,-75.75 239.04,-86.29 245.85,-84.65"/>
</g>
<!-- Node18 -->
<g id="node18" class="node">
<title>Node18</title>
<g id="a_node18"><a xlink:title=" ">
<polygon fill="white" stroke="#bfbfbf" points="0,-56.5 0,-75.5 38,-75.5 38,-56.5 0,-56.5"/>
<text text-anchor="middle" x="19" y="-63.5" font-family="Helvetica,sans-Serif" font-size="10.00">map</text>
</a>
</g>
</g>
<!-- Node17&#45;&gt;Node18 -->
<g id="edge25" class="edge">
<title>Node17&#45;&gt;Node18</title>
<path fill="none" stroke="midnightblue" d="M225.37,-116.15C188.27,-108.96 117.3,-94.55 47.98,-76.07"/>
<polygon fill="midnightblue" stroke="midnightblue" points="48.78,-72.66 38.21,-73.44 46.95,-79.42 48.78,-72.66"/>
</g>
<!-- Node19 -->
<g id="node19" class="node">
<title>Node19</title>
<g id="a_node19"><a xlink:title=" ">
<polygon fill="white" stroke="#bfbfbf" points="56.5,-56.5 56.5,-75.5 101.5,-75.5 101.5,-56.5 56.5,-56.5"/>
<text text-anchor="middle" x="79" y="-63.5" font-family="Helvetica,sans-Serif" font-size="10.00">utility</text>
</a>
</g>
</g>
<!-- Node17&#45;&gt;Node19 -->
<g id="edge28" class="edge">
<title>Node17&#45;&gt;Node19</title>
<path fill="none" stroke="midnightblue" d="M225.25,-112.92C194.85,-103.37 144.25,-87.49 111.26,-77.13"/>
<polygon fill="midnightblue" stroke="midnightblue" points="112.22,-73.76 101.63,-74.1 110.12,-80.44 112.22,-73.76"/>
</g>
<!-- Node20 -->
<g id="node20" class="node">
<title>Node20</title>
<g id="a_node20"><a xlink:title=" ">
<polygon fill="white" stroke="#bfbfbf" points="119.5,-56.5 119.5,-75.5 178.5,-75.5 178.5,-56.5 119.5,-56.5"/>
<text text-anchor="middle" x="149" y="-63.5" font-family="Helvetica,sans-Serif" font-size="10.00">tmap.tcc</text>
</a>
</g>
</g>
<!-- Node17&#45;&gt;Node20 -->
<g id="edge30" class="edge">
<title>Node17&#45;&gt;Node20</title>
<path fill="none" stroke="midnightblue" d="M234.61,-112.32C218.33,-103.7 193.13,-90.36 174.28,-80.39"/>
<polygon fill="midnightblue" stroke="midnightblue" points="175.82,-77.24 165.35,-75.65 172.55,-83.43 175.82,-77.24"/>
</g>
<!-- Node21&#45;&gt;Node2 -->
<g id="edge33" class="edge">
<title>Node21&#45;&gt;Node2</title>
<path fill="none" stroke="midnightblue" d="M529.3,-224.34C530.2,-210.76 533.81,-184.33 548,-168 557.92,-156.59 657.81,-117.21 672,-112 708.99,-98.43 752.08,-86.33 783.75,-78.11"/>
<polygon fill="midnightblue" stroke="midnightblue" points="784.8,-81.45 793.61,-75.58 783.06,-74.67 784.8,-81.45"/>
</g>
<!-- Node21&#45;&gt;Node12 -->
<g id="edge34" class="edge">
<title>Node21&#45;&gt;Node12</title>
<path fill="none" stroke="midnightblue" d="M538.16,-224.32C546.5,-216.42 559.03,-204.55 569.18,-194.94"/>
<polygon fill="midnightblue" stroke="midnightblue" points="571.82,-197.25 576.68,-187.83 567.01,-192.17 571.82,-197.25"/>
</g>
<!-- Node21&#45;&gt;Node13 -->
<g id="edge35" class="edge">
<title>Node21&#45;&gt;Node13</title>
<path fill="none" stroke="midnightblue" d="M508.13,-228.84C481.05,-222.8 433.01,-209.87 397,-188 375.53,-174.96 355.31,-154.13 342.59,-139.57"/>
<polygon fill="midnightblue" stroke="midnightblue" points="345.16,-137.19 336.02,-131.83 339.82,-141.72 345.16,-137.19"/>
</g>
<!-- Node22 -->
<g id="node22" class="node">
<title>Node22</title>
<g id="a_node22"><a xlink:href="tvariant_8h.html" target="_top" xlink:title=" ">
<polygon fill="white" stroke="black" points="406,-168.5 406,-187.5 470,-187.5 470,-168.5 406,-168.5"/>
<text text-anchor="middle" x="438" y="-175.5" font-family="Helvetica,sans-Serif" font-size="10.00">tvariant.h</text>
</a>
</g>
</g>
<!-- Node21&#45;&gt;Node22 -->
<g id="edge36" class="edge">
<title>Node21&#45;&gt;Node22</title>
<path fill="none" stroke="midnightblue" d="M514.38,-224.32C500.05,-215.82 477.99,-202.73 461.25,-192.8"/>
<polygon fill="midnightblue" stroke="midnightblue" points="462.97,-189.75 452.58,-187.65 459.4,-195.77 462.97,-189.75"/>
</g>
<!-- Node22&#45;&gt;Node2 -->
<g id="edge41" class="edge">
<title>Node22&#45;&gt;Node2</title>
<path fill="none" stroke="midnightblue" d="M462.25,-168.46C499.84,-155.38 574.54,-130.02 639,-112 686.05,-98.84 740.34,-86.24 778.81,-77.73"/>
<polygon fill="midnightblue" stroke="midnightblue" points="779.71,-81.12 788.73,-75.55 778.21,-74.28 779.71,-81.12"/>
</g>
<!-- Node22&#45;&gt;Node5 -->
<g id="edge38" class="edge">
<title>Node22&#45;&gt;Node5</title>
<path fill="none" stroke="midnightblue" d="M425.77,-168.29C409.03,-155.32 382.7,-130.47 398,-112 410.43,-96.99 530.08,-80.02 594.46,-71.87"/>
<polygon fill="midnightblue" stroke="midnightblue" points="595.18,-75.31 604.67,-70.59 594.31,-68.36 595.18,-75.31"/>
</g>
<!-- Node22&#45;&gt;Node13 -->
<g id="edge39" class="edge">
<title>Node22&#45;&gt;Node13</title>
<path fill="none" stroke="midnightblue" d="M420.49,-168.32C402.93,-159.62 375.67,-146.12 355.47,-136.11"/>
<polygon fill="midnightblue" stroke="midnightblue" points="356.98,-132.96 346.47,-131.65 353.88,-139.23 356.98,-132.96"/>
</g>
<!-- Node22&#45;&gt;Node17 -->
<g id="edge40" class="edge">
<title>Node22&#45;&gt;Node17</title>
<path fill="none" stroke="midnightblue" d="M408.37,-168.44C375.28,-158.89 321.75,-143.43 286.47,-133.24"/>
<polygon fill="midnightblue" stroke="midnightblue" points="287.16,-129.8 276.59,-130.39 285.22,-136.53 287.16,-129.8"/>
</g>
<!-- Node23 -->
<g id="node23" class="node">
<title>Node23</title>
<g id="a_node23"><a xlink:title=" ">
<polygon fill="white" stroke="#bfbfbf" points="407.5,-112.5 407.5,-131.5 472.5,-131.5 472.5,-112.5 407.5,-112.5"/>
<text text-anchor="middle" x="440" y="-119.5" font-family="Helvetica,sans-Serif" font-size="10.00">memory.h</text>
</a>
</g>
</g>
<!-- Node22&#45;&gt;Node23 -->
<g id="edge37" class="edge">
<title>Node22&#45;&gt;Node23</title>
<path fill="none" stroke="midnightblue" d="M438.33,-168.08C438.59,-161.01 438.97,-150.86 439.3,-141.99"/>
<polygon fill="midnightblue" stroke="midnightblue" points="442.8,-141.87 439.68,-131.75 435.81,-141.61 442.8,-141.87"/>
</g>
<!-- Node25&#45;&gt;Node2 -->
<g id="edge45" class="edge">
<title>Node25&#45;&gt;Node2</title>
<path fill="none" stroke="midnightblue" d="M815.44,-280.24C824.42,-271.97 836.75,-258.66 842,-244 861.7,-189.01 845.1,-118.4 835.15,-85.46"/>
<polygon fill="midnightblue" stroke="midnightblue" points="838.45,-84.29 832.1,-75.81 831.78,-86.4 838.45,-84.29"/>
</g>
<!-- Node25&#45;&gt;Node4 -->
<g id="edge44" class="edge">
<title>Node25&#45;&gt;Node4</title>
<path fill="none" stroke="midnightblue" d="M788.57,-280.35C774.16,-272.24 753.2,-259.12 738,-244 716.68,-222.78 708.83,-216.75 700,-188 695.04,-171.85 702.33,-153.64 709.82,-140.61"/>
<polygon fill="midnightblue" stroke="midnightblue" points="713.01,-142.11 715.38,-131.78 707.09,-138.37 713.01,-142.11"/>
</g>
<!-- Node25&#45;&gt;Node26 -->
<g id="edge46" class="edge">
<title>Node25&#45;&gt;Node26</title>
<path fill="none" stroke="midnightblue" d="M824.81,-280.44C845.29,-271.6 877.48,-257.69 900.86,-247.59"/>
<polygon fill="midnightblue" stroke="midnightblue" points="902.49,-250.7 910.29,-243.52 899.72,-244.27 902.49,-250.7"/>
</g>
<!-- Node27 -->
<g id="node27" class="node">
<title>Node27</title>
<g id="a_node27"><a xlink:href="id3v2header_8h.html" target="_top" xlink:title=" ">
<polygon fill="white" stroke="black" points="747,-224.5 747,-243.5 833,-243.5 833,-224.5 747,-224.5"/>
<text text-anchor="middle" x="790" y="-231.5" font-family="Helvetica,sans-Serif" font-size="10.00">id3v2header.h</text>
</a>
</g>
</g>
<!-- Node25&#45;&gt;Node27 -->
<g id="edge50" class="edge">
<title>Node25&#45;&gt;Node27</title>
<path fill="none" stroke="midnightblue" d="M802.52,-280.08C800.51,-272.85 797.61,-262.41 795.11,-253.4"/>
<polygon fill="midnightblue" stroke="midnightblue" points="798.48,-252.45 792.43,-243.75 791.74,-254.32 798.48,-252.45"/>
</g>
<!-- Node26&#45;&gt;Node2 -->
<g id="edge49" class="edge">
<title>Node26&#45;&gt;Node2</title>
<path fill="none" stroke="midnightblue" d="M931.83,-224.45C935.84,-203.27 943.26,-147.54 919,-112 908.46,-96.56 891.01,-86.17 874.27,-79.3"/>
<polygon fill="midnightblue" stroke="midnightblue" points="875.14,-75.89 864.55,-75.65 872.68,-82.44 875.14,-75.89"/>
</g>
<!-- Node26&#45;&gt;Node4 -->
<g id="edge48" class="edge">
<title>Node26&#45;&gt;Node4</title>
<path fill="none" stroke="midnightblue" d="M913.68,-224.37C877.53,-205.25 790.51,-159.23 747.26,-136.36"/>
<polygon fill="midnightblue" stroke="midnightblue" points="748.72,-133.17 738.25,-131.59 745.45,-139.36 748.72,-133.17"/>
</g>
<!-- Node26&#45;&gt;Node12 -->
<g id="edge47" class="edge">
<title>Node26&#45;&gt;Node12</title>
<path fill="none" stroke="midnightblue" d="M888.85,-226.54C821.81,-216.02 689.97,-195.32 624.62,-185.06"/>
<polygon fill="midnightblue" stroke="midnightblue" points="625.14,-181.6 614.72,-183.51 624.05,-188.52 625.14,-181.6"/>
</g>
<!-- Node27&#45;&gt;Node2 -->
<g id="edge52" class="edge">
<title>Node27&#45;&gt;Node2</title>
<path fill="none" stroke="midnightblue" d="M792.1,-224.08C798.24,-197.95 816.26,-121.21 824.64,-85.58"/>
<polygon fill="midnightblue" stroke="midnightblue" points="828.11,-86.1 826.99,-75.57 821.29,-84.5 828.11,-86.1"/>
</g>
<!-- Node27&#45;&gt;Node4 -->
<g id="edge51" class="edge">
<title>Node27&#45;&gt;Node4</title>
<path fill="none" stroke="midnightblue" d="M788.99,-224.4C787.13,-211.36 782.3,-186.17 771,-168 763.74,-156.32 752.63,-145.76 742.82,-137.82"/>
<polygon fill="midnightblue" stroke="midnightblue" points="744.73,-134.87 734.67,-131.54 740.46,-140.42 744.73,-134.87"/>
</g>
<!-- Node27&#45;&gt;Node24 -->
<g id="edge53" class="edge">
<title>Node27&#45;&gt;Node24</title>
<path fill="none" stroke="midnightblue" d="M781.08,-224.08C773.22,-216.22 761.57,-204.57 752.08,-195.08"/>
<polygon fill="midnightblue" stroke="midnightblue" points="754.3,-192.35 744.75,-187.75 749.35,-197.3 754.3,-192.35"/>
</g>
</g>
</svg>
