<?xml version="1.0" encoding="UTF-8" standalone="no"?>
<!DOCTYPE svg PUBLIC "-//W3C//DTD SVG 1.1//EN"
 "http://www.w3.org/Graphics/SVG/1.1/DTD/svg11.dtd">
<!-- Generated by graphviz version 2.42.4 (0)
 -->
<!-- Title: chapterframe.h Pages: 1 -->
<svg width="1001pt" height="357pt"
 viewBox="0.00 0.00 1000.50 357.00" xmlns="http://www.w3.org/2000/svg" xmlns:xlink="http://www.w3.org/1999/xlink">
<g id="graph0" class="graph" transform="scale(1 1) rotate(0) translate(4 353)">
<title>chapterframe.h</title>
<!-- Node1 -->
<g id="Node000001" class="node">
<title>Node1</title>
<g id="a_Node000001"><a xlink:title=" ">
<polygon fill="#999999" stroke="#666666" points="160,-349 68,-349 68,-330 160,-330 160,-349"/>
<text text-anchor="middle" x="114" y="-337" font-family="Helvetica,sans-Serif" font-size="10.00">chapterframe.h</text>
</a>
</g>
</g>
<!-- Node2 -->
<g id="Node000002" class="node">
<title>Node2</title>
<g id="a_Node000002"><a xlink:href="taglib__export_8h.html" target="_top" xlink:title=" ">
<polygon fill="white" stroke="#666666" points="337,-19 247,-19 247,0 337,0 337,-19"/>
<text text-anchor="middle" x="292" y="-7" font-family="Helvetica,sans-Serif" font-size="10.00">taglib_export.h</text>
</a>
</g>
</g>
<!-- Node1&#45;&gt;Node2 -->
<g id="edge1_Node000001_Node000002" class="edge">
<title>Node1&#45;&gt;Node2</title>
<g id="a_edge1_Node000001_Node000002"><a xlink:title=" ">
<path fill="none" stroke="#63b8ff" d="M92.82,-329.95C59.86,-315.06 0,-281.07 0,-230.5 0,-230.5 0,-230.5 0,-118.5 0,-68.57 152.06,-34.46 236.72,-19.34"/>
<polygon fill="#63b8ff" stroke="#63b8ff" points="237.45,-22.77 246.7,-17.59 236.24,-15.87 237.45,-22.77"/>
</a>
</g>
</g>
<!-- Node3 -->
<g id="Node000003" class="node">
<title>Node3</title>
<g id="a_Node000003"><a xlink:href="id3v2tag_8h.html" target="_top" xlink:title=" ">
<polygon fill="white" stroke="#666666" points="466,-294 398,-294 398,-275 466,-275 466,-294"/>
<text text-anchor="middle" x="432" y="-282" font-family="Helvetica,sans-Serif" font-size="10.00">id3v2tag.h</text>
</a>
</g>
</g>
<!-- Node1&#45;&gt;Node3 -->
<g id="edge2_Node000001_Node000003" class="edge">
<title>Node1&#45;&gt;Node3</title>
<g id="a_edge2_Node000001_Node000003"><a xlink:title=" ">
<path fill="none" stroke="#63b8ff" d="M160.24,-330.79C221.3,-320.62 328.09,-302.82 388,-292.83"/>
<polygon fill="#63b8ff" stroke="#63b8ff" points="388.63,-296.28 397.92,-291.18 387.48,-289.37 388.63,-296.28"/>
</a>
</g>
</g>
<!-- Node25 -->
<g id="Node000025" class="node">
<title>Node25</title>
<g id="a_Node000025"><a xlink:href="id3v2frame_8h.html" target="_top" xlink:title=" ">
<polygon fill="white" stroke="#666666" points="349,-184 267,-184 267,-165 349,-165 349,-184"/>
<text text-anchor="middle" x="308" y="-172" font-family="Helvetica,sans-Serif" font-size="10.00">id3v2frame.h</text>
</a>
</g>
</g>
<!-- Node1&#45;&gt;Node25 -->
<g id="edge46_Node000001_Node000025" class="edge">
<title>Node1&#45;&gt;Node25</title>
<g id="a_edge46_Node000001_Node000025"><a xlink:title=" ">
<path fill="none" stroke="#63b8ff" d="M121.72,-329.8C140.2,-309.25 188.96,-256.67 236,-220 250.83,-208.44 268.82,-197.32 283.11,-189.08"/>
<polygon fill="#63b8ff" stroke="#63b8ff" points="284.92,-192.08 291.9,-184.11 281.47,-185.99 284.92,-192.08"/>
</a>
</g>
</g>
<!-- Node3&#45;&gt;Node2 -->
<g id="edge25_Node000003_Node000002" class="edge">
<title>Node3&#45;&gt;Node2</title>
<g id="a_edge25_Node000003_Node000002"><a xlink:title=" ">
<path fill="none" stroke="#63b8ff" d="M397.64,-283.95C355.48,-282.8 283.74,-275.09 236,-239 191.91,-205.67 190.89,-182.74 178,-129 170.17,-96.37 171.19,-80.51 193,-55 206.18,-39.58 225.78,-29.26 244.08,-22.48"/>
<polygon fill="#63b8ff" stroke="#63b8ff" points="245.44,-25.71 253.77,-19.15 243.17,-19.09 245.44,-25.71"/>
</a>
</g>
</g>
<!-- Node4 -->
<g id="Node000004" class="node">
<title>Node4</title>
<g id="a_Node000004"><a xlink:href="tbytevector_8h.html" target="_top" xlink:title=" ">
<polygon fill="white" stroke="#666666" points="501.5,-74 420.5,-74 420.5,-55 501.5,-55 501.5,-74"/>
<text text-anchor="middle" x="461" y="-62" font-family="Helvetica,sans-Serif" font-size="10.00">tbytevector.h</text>
</a>
</g>
</g>
<!-- Node3&#45;&gt;Node4 -->
<g id="edge3_Node000003_Node000004" class="edge">
<title>Node3&#45;&gt;Node4</title>
<g id="a_edge3_Node000003_Node000004"><a xlink:title=" ">
<path fill="none" stroke="#63b8ff" d="M438,-274.77C443.57,-266.13 451.51,-252.29 455,-239 469.31,-184.48 465.91,-117.01 463.04,-84.62"/>
<polygon fill="#63b8ff" stroke="#63b8ff" points="466.5,-83.98 462.04,-74.36 459.53,-84.65 466.5,-83.98"/>
</a>
</g>
</g>
<!-- Node8 -->
<g id="Node000008" class="node">
<title>Node8</title>
<g id="a_Node000008"><a xlink:href="tstring_8h.html" target="_top" xlink:title=" ">
<polygon fill="white" stroke="#666666" points="431.5,-129 374.5,-129 374.5,-110 431.5,-110 431.5,-129"/>
<text text-anchor="middle" x="403" y="-117" font-family="Helvetica,sans-Serif" font-size="10.00">tstring.h</text>
</a>
</g>
</g>
<!-- Node3&#45;&gt;Node8 -->
<g id="edge8_Node000003_Node000008" class="edge">
<title>Node3&#45;&gt;Node8</title>
<g id="a_edge8_Node000003_Node000008"><a xlink:title=" ">
<path fill="none" stroke="#63b8ff" d="M434.06,-274.7C436.04,-265.77 438.88,-251.51 440,-239 440.75,-230.59 441.5,-228.31 440,-220 434.66,-190.33 421.04,-157.94 411.89,-138.43"/>
<polygon fill="#63b8ff" stroke="#63b8ff" points="414.97,-136.74 407.48,-129.25 408.66,-139.78 414.97,-136.74"/>
</a>
</g>
</g>
<!-- Node10 -->
<g id="Node000010" class="node">
<title>Node10</title>
<g id="a_Node000010"><a xlink:href="tlist_8h.html" target="_top" xlink:title=" ">
<polygon fill="white" stroke="#666666" points="714,-74 670,-74 670,-55 714,-55 714,-74"/>
<text text-anchor="middle" x="692" y="-62" font-family="Helvetica,sans-Serif" font-size="10.00">tlist.h</text>
</a>
</g>
</g>
<!-- Node3&#45;&gt;Node10 -->
<g id="edge12_Node000003_Node000010" class="edge">
<title>Node3&#45;&gt;Node10</title>
<g id="a_edge12_Node000003_Node000010"><a xlink:title=" ">
<path fill="none" stroke="#63b8ff" d="M456.68,-274.97C477.78,-267.14 508.52,-254.43 533,-239 596.45,-199 615.16,-188.37 661,-129 671.65,-115.21 680.02,-97.17 685.37,-83.85"/>
<polygon fill="#63b8ff" stroke="#63b8ff" points="688.7,-84.94 688.99,-74.35 682.16,-82.44 688.7,-84.94"/>
</a>
</g>
</g>
<!-- Node14 -->
<g id="Node000014" class="node">
<title>Node14</title>
<g id="a_Node000014"><a xlink:href="tmap_8h.html" target="_top" xlink:title=" ">
<polygon fill="white" stroke="#666666" points="783.5,-74 732.5,-74 732.5,-55 783.5,-55 783.5,-74"/>
<text text-anchor="middle" x="758" y="-62" font-family="Helvetica,sans-Serif" font-size="10.00">tmap.h</text>
</a>
</g>
</g>
<!-- Node3&#45;&gt;Node14 -->
<g id="edge17_Node000003_Node000014" class="edge">
<title>Node3&#45;&gt;Node14</title>
<g id="a_edge17_Node000003_Node000014"><a xlink:title=" ">
<path fill="none" stroke="#63b8ff" d="M466.06,-275.03C493.02,-267.58 531.13,-255.38 562,-239 641.2,-196.99 714.73,-116.69 744.3,-82.07"/>
<polygon fill="#63b8ff" stroke="#63b8ff" points="747.07,-84.2 750.84,-74.3 741.72,-79.69 747.07,-84.2"/>
</a>
</g>
</g>
<!-- Node18 -->
<g id="Node000018" class="node">
<title>Node18</title>
<g id="a_Node000018"><a xlink:href="taglib_8h.html" target="_top" xlink:title=" ">
<polygon fill="white" stroke="#666666" points="85.5,-239 32.5,-239 32.5,-220 85.5,-220 85.5,-239"/>
<text text-anchor="middle" x="59" y="-227" font-family="Helvetica,sans-Serif" font-size="10.00">taglib.h</text>
</a>
</g>
</g>
<!-- Node3&#45;&gt;Node18 -->
<g id="edge23_Node000003_Node000018" class="edge">
<title>Node3&#45;&gt;Node18</title>
<g id="a_edge23_Node000003_Node000018"><a xlink:title=" ">
<path fill="none" stroke="#63b8ff" d="M397.91,-278.66C327.8,-268.69 167.98,-245.99 95.71,-235.72"/>
<polygon fill="#63b8ff" stroke="#63b8ff" points="96.09,-232.24 85.7,-234.29 95.11,-239.17 96.09,-232.24"/>
</a>
</g>
</g>
<!-- Node20 -->
<g id="Node000020" class="node">
<title>Node20</title>
<g id="a_Node000020"><a xlink:href="tag_8h.html" target="_top" xlink:title=" ">
<polygon fill="white" stroke="#666666" points="567.5,-184 526.5,-184 526.5,-165 567.5,-165 567.5,-184"/>
<text text-anchor="middle" x="547" y="-172" font-family="Helvetica,sans-Serif" font-size="10.00">tag.h</text>
</a>
</g>
</g>
<!-- Node3&#45;&gt;Node20 -->
<g id="edge26_Node000003_Node000020" class="edge">
<title>Node3&#45;&gt;Node20</title>
<g id="a_edge26_Node000003_Node000020"><a xlink:title=" ">
<path fill="none" stroke="#63b8ff" d="M454.91,-274.87C472.23,-267.43 495.74,-255.33 512,-239 524.88,-226.07 534.4,-207.41 540.23,-193.66"/>
<polygon fill="#63b8ff" stroke="#63b8ff" points="543.52,-194.87 543.97,-184.28 537.02,-192.28 543.52,-194.87"/>
</a>
</g>
</g>
<!-- Node23 -->
<g id="Node000023" class="node">
<title>Node23</title>
<g id="a_Node000023"><a xlink:href="id3v2_8h.html" target="_top" xlink:title=" ">
<polygon fill="white" stroke="#666666" points="431.5,-239 378.5,-239 378.5,-220 431.5,-220 431.5,-239"/>
<text text-anchor="middle" x="405" y="-227" font-family="Helvetica,sans-Serif" font-size="10.00">id3v2.h</text>
</a>
</g>
</g>
<!-- Node3&#45;&gt;Node23 -->
<g id="edge35_Node000003_Node000023" class="edge">
<title>Node3&#45;&gt;Node23</title>
<g id="a_edge35_Node000003_Node000023"><a xlink:title=" ">
<path fill="none" stroke="#63b8ff" d="M427.54,-274.75C423.88,-267.57 418.59,-257.18 414.05,-248.27"/>
<polygon fill="#63b8ff" stroke="#63b8ff" points="417.03,-246.41 409.38,-239.09 410.8,-249.59 417.03,-246.41"/>
</a>
</g>
</g>
<!-- Node24 -->
<g id="Node000024" class="node">
<title>Node24</title>
<g id="a_Node000024"><a xlink:href="id3v2framefactory_8h.html" target="_top" xlink:title=" ">
<polygon fill="white" stroke="#666666" points="360.5,-239 245.5,-239 245.5,-220 360.5,-220 360.5,-239"/>
<text text-anchor="middle" x="303" y="-227" font-family="Helvetica,sans-Serif" font-size="10.00">id3v2framefactory.h</text>
</a>
</g>
</g>
<!-- Node3&#45;&gt;Node24 -->
<g id="edge36_Node000003_Node000024" class="edge">
<title>Node3&#45;&gt;Node24</title>
<g id="a_edge36_Node000003_Node000024"><a xlink:title=" ">
<path fill="none" stroke="#63b8ff" d="M411.27,-274.98C390.24,-266.34 357.45,-252.87 333.46,-243.02"/>
<polygon fill="#63b8ff" stroke="#63b8ff" points="334.68,-239.73 324.1,-239.17 332.02,-246.21 334.68,-239.73"/>
</a>
</g>
</g>
<!-- Node4&#45;&gt;Node2 -->
<g id="edge7_Node000004_Node000002" class="edge">
<title>Node4&#45;&gt;Node2</title>
<g id="a_edge7_Node000004_Node000002"><a xlink:title=" ">
<path fill="none" stroke="#63b8ff" d="M433.85,-54.98C405.47,-46.09 360.77,-32.07 329.14,-22.15"/>
<polygon fill="#63b8ff" stroke="#63b8ff" points="329.95,-18.73 319.37,-19.08 327.86,-25.41 329.95,-18.73"/>
</a>
</g>
</g>
<!-- Node5 -->
<g id="Node000005" class="node">
<title>Node5</title>
<g id="a_Node000005"><a xlink:title=" ">
<polygon fill="#e0e0e0" stroke="#999999" points="572,-19 514,-19 514,0 572,0 572,-19"/>
<text text-anchor="middle" x="543" y="-7" font-family="Helvetica,sans-Serif" font-size="10.00">memory</text>
</a>
</g>
</g>
<!-- Node4&#45;&gt;Node5 -->
<g id="edge4_Node000004_Node000005" class="edge">
<title>Node4&#45;&gt;Node5</title>
<g id="a_edge4_Node000004_Node000005"><a xlink:title=" ">
<path fill="none" stroke="#63b8ff" d="M474.17,-54.98C486.77,-46.84 506,-34.41 520.94,-24.76"/>
<polygon fill="#63b8ff" stroke="#63b8ff" points="523.09,-27.54 529.59,-19.17 519.29,-21.66 523.09,-27.54"/>
</a>
</g>
</g>
<!-- Node6 -->
<g id="Node000006" class="node">
<title>Node6</title>
<g id="a_Node000006"><a xlink:title=" ">
<polygon fill="#e0e0e0" stroke="#999999" points="422.5,-19 375.5,-19 375.5,0 422.5,0 422.5,-19"/>
<text text-anchor="middle" x="399" y="-7" font-family="Helvetica,sans-Serif" font-size="10.00">vector</text>
</a>
</g>
</g>
<!-- Node4&#45;&gt;Node6 -->
<g id="edge5_Node000004_Node000006" class="edge">
<title>Node4&#45;&gt;Node6</title>
<g id="a_edge5_Node000004_Node000006"><a xlink:title=" ">
<path fill="none" stroke="#63b8ff" d="M451.04,-54.98C441.87,-47.15 428.06,-35.34 416.97,-25.86"/>
<polygon fill="#63b8ff" stroke="#63b8ff" points="419.02,-23.01 409.14,-19.17 414.47,-28.33 419.02,-23.01"/>
</a>
</g>
</g>
<!-- Node7 -->
<g id="Node000007" class="node">
<title>Node7</title>
<g id="a_Node000007"><a xlink:title=" ">
<polygon fill="#e0e0e0" stroke="#999999" points="489,-19 441,-19 441,0 489,0 489,-19"/>
<text text-anchor="middle" x="465" y="-7" font-family="Helvetica,sans-Serif" font-size="10.00">iosfwd</text>
</a>
</g>
</g>
<!-- Node4&#45;&gt;Node7 -->
<g id="edge6_Node000004_Node000007" class="edge">
<title>Node4&#45;&gt;Node7</title>
<g id="a_edge6_Node000004_Node000007"><a xlink:title=" ">
<path fill="none" stroke="#63b8ff" d="M461.66,-54.75C462.18,-47.8 462.94,-37.85 463.59,-29.13"/>
<polygon fill="#63b8ff" stroke="#63b8ff" points="467.09,-29.32 464.35,-19.09 460.11,-28.8 467.09,-29.32"/>
</a>
</g>
</g>
<!-- Node8&#45;&gt;Node2 -->
<g id="edge11_Node000008_Node000002" class="edge">
<title>Node8&#45;&gt;Node2</title>
<g id="a_edge11_Node000008_Node000002"><a xlink:title=" ">
<path fill="none" stroke="#63b8ff" d="M400.74,-109.7C396.95,-96.44 388.21,-71.16 373,-55 359.98,-41.16 341.67,-30.6 325.76,-23.25"/>
<polygon fill="#63b8ff" stroke="#63b8ff" points="326.79,-19.88 316.22,-19.09 323.99,-26.3 326.79,-19.88"/>
</a>
</g>
</g>
<!-- Node8&#45;&gt;Node4 -->
<g id="edge10_Node000008_Node000004" class="edge">
<title>Node8&#45;&gt;Node4</title>
<g id="a_edge10_Node000008_Node000004"><a xlink:title=" ">
<path fill="none" stroke="#63b8ff" d="M412.32,-109.98C420.81,-102.23 433.56,-90.58 443.88,-81.14"/>
<polygon fill="#63b8ff" stroke="#63b8ff" points="446.49,-83.5 451.51,-74.17 441.77,-78.33 446.49,-83.5"/>
</a>
</g>
</g>
<!-- Node9 -->
<g id="Node000009" class="node">
<title>Node9</title>
<g id="a_Node000009"><a xlink:title=" ">
<polygon fill="#e0e0e0" stroke="#999999" points="364,-74 320,-74 320,-55 364,-55 364,-74"/>
<text text-anchor="middle" x="342" y="-62" font-family="Helvetica,sans-Serif" font-size="10.00">string</text>
</a>
</g>
</g>
<!-- Node8&#45;&gt;Node9 -->
<g id="edge9_Node000008_Node000009" class="edge">
<title>Node8&#45;&gt;Node9</title>
<g id="a_edge9_Node000008_Node000009"><a xlink:title=" ">
<path fill="none" stroke="#63b8ff" d="M393.2,-109.98C384.18,-102.15 370.59,-90.34 359.68,-80.86"/>
<polygon fill="#63b8ff" stroke="#63b8ff" points="361.82,-78.09 351.98,-74.17 357.23,-83.37 361.82,-78.09"/>
</a>
</g>
</g>
<!-- Node10&#45;&gt;Node5 -->
<g id="edge15_Node000010_Node000005" class="edge">
<title>Node10&#45;&gt;Node5</title>
<g id="a_edge15_Node000010_Node000005"><a xlink:title=" ">
<path fill="none" stroke="#63b8ff" d="M669.69,-55.57C645,-46.78 604.94,-32.53 576.48,-22.41"/>
<polygon fill="#63b8ff" stroke="#63b8ff" points="577.54,-19.07 566.94,-19.02 575.19,-25.67 577.54,-19.07"/>
</a>
</g>
</g>
<!-- Node11 -->
<g id="Node000011" class="node">
<title>Node11</title>
<g id="a_Node000011"><a xlink:title=" ">
<polygon fill="#e0e0e0" stroke="#999999" points="694,-19 662,-19 662,0 694,0 694,-19"/>
<text text-anchor="middle" x="678" y="-7" font-family="Helvetica,sans-Serif" font-size="10.00">list</text>
</a>
</g>
</g>
<!-- Node10&#45;&gt;Node11 -->
<g id="edge13_Node000010_Node000011" class="edge">
<title>Node10&#45;&gt;Node11</title>
<g id="a_edge13_Node000010_Node000011"><a xlink:title=" ">
<path fill="none" stroke="#63b8ff" d="M689.69,-54.75C687.83,-47.72 685.16,-37.62 682.85,-28.84"/>
<polygon fill="#63b8ff" stroke="#63b8ff" points="686.21,-27.86 680.27,-19.09 679.44,-29.65 686.21,-27.86"/>
</a>
</g>
</g>
<!-- Node12 -->
<g id="Node000012" class="node">
<title>Node12</title>
<g id="a_Node000012"><a xlink:title=" ">
<polygon fill="#e0e0e0" stroke="#999999" points="795.5,-19 712.5,-19 712.5,0 795.5,0 795.5,-19"/>
<text text-anchor="middle" x="754" y="-7" font-family="Helvetica,sans-Serif" font-size="10.00">initializer_list</text>
</a>
</g>
</g>
<!-- Node10&#45;&gt;Node12 -->
<g id="edge14_Node000010_Node000012" class="edge">
<title>Node10&#45;&gt;Node12</title>
<g id="a_edge14_Node000010_Node000012"><a xlink:title=" ">
<path fill="none" stroke="#63b8ff" d="M701.96,-54.98C711.13,-47.15 724.94,-35.34 736.03,-25.86"/>
<polygon fill="#63b8ff" stroke="#63b8ff" points="738.53,-28.33 743.86,-19.17 733.98,-23.01 738.53,-28.33"/>
</a>
</g>
</g>
<!-- Node13 -->
<g id="Node000013" class="node">
<title>Node13</title>
<g id="a_Node000013"><a xlink:title=" ">
<polygon fill="#e0e0e0" stroke="#999999" points="643.5,-19 590.5,-19 590.5,0 643.5,0 643.5,-19"/>
<text text-anchor="middle" x="617" y="-7" font-family="Helvetica,sans-Serif" font-size="10.00">tlist.tcc</text>
</a>
</g>
</g>
<!-- Node10&#45;&gt;Node13 -->
<g id="edge16_Node000010_Node000013" class="edge">
<title>Node10&#45;&gt;Node13</title>
<g id="a_edge16_Node000010_Node000013"><a xlink:title=" ">
<path fill="none" stroke="#63b8ff" d="M679.95,-54.98C668.54,-46.92 651.17,-34.65 637.57,-25.03"/>
<polygon fill="#63b8ff" stroke="#63b8ff" points="639.46,-22.08 629.27,-19.17 635.42,-27.8 639.46,-22.08"/>
</a>
</g>
</g>
<!-- Node14&#45;&gt;Node5 -->
<g id="edge19_Node000014_Node000005" class="edge">
<title>Node14&#45;&gt;Node5</title>
<g id="a_edge19_Node000014_Node000005"><a xlink:title=" ">
<path fill="none" stroke="#63b8ff" d="M732.49,-57.21C695.24,-48.03 625.64,-30.87 581.96,-20.1"/>
<polygon fill="#63b8ff" stroke="#63b8ff" points="582.79,-16.7 572.25,-17.71 581.12,-23.5 582.79,-16.7"/>
</a>
</g>
</g>
<!-- Node14&#45;&gt;Node12 -->
<g id="edge20_Node000014_Node000012" class="edge">
<title>Node14&#45;&gt;Node12</title>
<g id="a_edge20_Node000014_Node000012"><a xlink:title=" ">
<path fill="none" stroke="#63b8ff" d="M757.34,-54.75C756.82,-47.8 756.06,-37.85 755.41,-29.13"/>
<polygon fill="#63b8ff" stroke="#63b8ff" points="758.89,-28.8 754.65,-19.09 751.91,-29.32 758.89,-28.8"/>
</a>
</g>
</g>
<!-- Node15 -->
<g id="Node000015" class="node">
<title>Node15</title>
<g id="a_Node000015"><a xlink:title=" ">
<polygon fill="#e0e0e0" stroke="#999999" points="929,-19 891,-19 891,0 929,0 929,-19"/>
<text text-anchor="middle" x="910" y="-7" font-family="Helvetica,sans-Serif" font-size="10.00">map</text>
</a>
</g>
</g>
<!-- Node14&#45;&gt;Node15 -->
<g id="edge18_Node000014_Node000015" class="edge">
<title>Node14&#45;&gt;Node15</title>
<g id="a_edge18_Node000014_Node000015"><a xlink:title=" ">
<path fill="none" stroke="#63b8ff" d="M782.42,-54.98C809.33,-45.6 852.57,-30.53 881.13,-20.57"/>
<polygon fill="#63b8ff" stroke="#63b8ff" points="882.64,-23.75 890.93,-17.15 880.34,-17.14 882.64,-23.75"/>
</a>
</g>
</g>
<!-- Node16 -->
<g id="Node000016" class="node">
<title>Node16</title>
<g id="a_Node000016"><a xlink:title=" ">
<polygon fill="#e0e0e0" stroke="#999999" points="992.5,-19 947.5,-19 947.5,0 992.5,0 992.5,-19"/>
<text text-anchor="middle" x="970" y="-7" font-family="Helvetica,sans-Serif" font-size="10.00">utility</text>
</a>
</g>
</g>
<!-- Node14&#45;&gt;Node16 -->
<g id="edge21_Node000014_Node000016" class="edge">
<title>Node14&#45;&gt;Node16</title>
<g id="a_edge21_Node000014_Node000016"><a xlink:title=" ">
<path fill="none" stroke="#63b8ff" d="M783.67,-57.3C816.85,-49.26 876.65,-34.65 937.51,-19.09"/>
<polygon fill="#63b8ff" stroke="#63b8ff" points="938.47,-22.46 947.29,-16.58 936.73,-15.68 938.47,-22.46"/>
</a>
</g>
</g>
<!-- Node17 -->
<g id="Node000017" class="node">
<title>Node17</title>
<g id="a_Node000017"><a xlink:title=" ">
<polygon fill="#e0e0e0" stroke="#999999" points="872.5,-19 813.5,-19 813.5,0 872.5,0 872.5,-19"/>
<text text-anchor="middle" x="843" y="-7" font-family="Helvetica,sans-Serif" font-size="10.00">tmap.tcc</text>
</a>
</g>
</g>
<!-- Node14&#45;&gt;Node17 -->
<g id="edge22_Node000014_Node000017" class="edge">
<title>Node14&#45;&gt;Node17</title>
<g id="a_edge22_Node000014_Node000017"><a xlink:title=" ">
<path fill="none" stroke="#63b8ff" d="M771.66,-54.98C784.84,-46.77 805.03,-34.18 820.57,-24.49"/>
<polygon fill="#63b8ff" stroke="#63b8ff" points="822.46,-27.43 829.09,-19.17 818.76,-21.49 822.46,-27.43"/>
</a>
</g>
</g>
<!-- Node19 -->
<g id="Node000019" class="node">
<title>Node19</title>
<g id="a_Node000019"><a xlink:title=" ">
<polygon fill="#e0e0e0" stroke="#999999" points="100,-184 28,-184 28,-165 100,-165 100,-184"/>
<text text-anchor="middle" x="64" y="-172" font-family="Helvetica,sans-Serif" font-size="10.00">sys/types.h</text>
</a>
</g>
</g>
<!-- Node18&#45;&gt;Node19 -->
<g id="edge24_Node000018_Node000019" class="edge">
<title>Node18&#45;&gt;Node19</title>
<g id="a_edge24_Node000018_Node000019"><a xlink:title=" ">
<path fill="none" stroke="#63b8ff" d="M59.83,-219.75C60.48,-212.8 61.42,-202.85 62.24,-194.13"/>
<polygon fill="#63b8ff" stroke="#63b8ff" points="65.73,-194.37 63.19,-184.09 58.77,-193.72 65.73,-194.37"/>
</a>
</g>
</g>
<!-- Node20&#45;&gt;Node2 -->
<g id="edge27_Node000020_Node000002" class="edge">
<title>Node20&#45;&gt;Node2</title>
<g id="a_edge27_Node000020_Node000002"><a xlink:title=" ">
<path fill="none" stroke="#63b8ff" d="M547.17,-164.8C547.08,-142.81 543.6,-84.66 511,-55 498.93,-44.02 408.11,-28.25 347.28,-18.73"/>
<polygon fill="#63b8ff" stroke="#63b8ff" points="347.46,-15.21 337.05,-17.14 346.39,-22.13 347.46,-15.21"/>
</a>
</g>
</g>
<!-- Node20&#45;&gt;Node8 -->
<g id="edge28_Node000020_Node000008" class="edge">
<title>Node20&#45;&gt;Node8</title>
<g id="a_edge28_Node000020_Node000008"><a xlink:title=" ">
<path fill="none" stroke="#63b8ff" d="M526.37,-165.91C502.82,-157.24 463.97,-142.94 436.16,-132.7"/>
<polygon fill="#63b8ff" stroke="#63b8ff" points="437.06,-129.3 426.46,-129.14 434.64,-135.87 437.06,-129.3"/>
</a>
</g>
</g>
<!-- Node20&#45;&gt;Node10 -->
<g id="edge29_Node000020_Node000010" class="edge">
<title>Node20&#45;&gt;Node10</title>
<g id="a_edge29_Node000020_Node000010"><a xlink:title=" ">
<path fill="none" stroke="#63b8ff" d="M567.62,-166.05C586.77,-158.52 615.49,-145.63 637,-129 654.23,-115.68 670.07,-96.3 680.28,-82.46"/>
<polygon fill="#63b8ff" stroke="#63b8ff" points="683.16,-84.45 686.13,-74.28 677.47,-80.37 683.16,-84.45"/>
</a>
</g>
</g>
<!-- Node21 -->
<g id="Node000021" class="node">
<title>Node21</title>
<g id="a_Node000021"><a xlink:href="tvariant_8h.html" target="_top" xlink:title=" ">
<polygon fill="white" stroke="#666666" points="628,-129 564,-129 564,-110 628,-110 628,-129"/>
<text text-anchor="middle" x="596" y="-117" font-family="Helvetica,sans-Serif" font-size="10.00">tvariant.h</text>
</a>
</g>
</g>
<!-- Node20&#45;&gt;Node21 -->
<g id="edge30_Node000020_Node000021" class="edge">
<title>Node20&#45;&gt;Node21</title>
<g id="a_edge30_Node000020_Node000021"><a xlink:title=" ">
<path fill="none" stroke="#63b8ff" d="M555.09,-164.75C562.16,-157.11 572.59,-145.82 581.15,-136.56"/>
<polygon fill="#63b8ff" stroke="#63b8ff" points="583.84,-138.81 588.06,-129.09 578.7,-134.06 583.84,-138.81"/>
</a>
</g>
</g>
<!-- Node21&#45;&gt;Node2 -->
<g id="edge34_Node000021_Node000002" class="edge">
<title>Node21&#45;&gt;Node2</title>
<g id="a_edge34_Node000021_Node000002"><a xlink:title=" ">
<path fill="none" stroke="#63b8ff" d="M591.59,-109.86C583.96,-95.84 566.87,-68.39 544,-55 527.29,-45.22 416.51,-28.13 347.51,-18.21"/>
<polygon fill="#63b8ff" stroke="#63b8ff" points="347.63,-14.7 337.23,-16.75 346.64,-21.63 347.63,-14.7"/>
</a>
</g>
</g>
<!-- Node21&#45;&gt;Node10 -->
<g id="edge32_Node000021_Node000010" class="edge">
<title>Node21&#45;&gt;Node10</title>
<g id="a_edge32_Node000021_Node000010"><a xlink:title=" ">
<path fill="none" stroke="#63b8ff" d="M611.42,-109.98C626.45,-101.69 649.54,-88.94 667.16,-79.22"/>
<polygon fill="#63b8ff" stroke="#63b8ff" points="669.23,-82.07 676.3,-74.17 665.85,-75.94 669.23,-82.07"/>
</a>
</g>
</g>
<!-- Node21&#45;&gt;Node14 -->
<g id="edge33_Node000021_Node000014" class="edge">
<title>Node21&#45;&gt;Node14</title>
<g id="a_edge33_Node000021_Node000014"><a xlink:title=" ">
<path fill="none" stroke="#63b8ff" d="M622.03,-109.98C649.27,-101.07 692.22,-87.02 722.54,-77.1"/>
<polygon fill="#63b8ff" stroke="#63b8ff" points="723.89,-80.34 732.3,-73.91 721.71,-73.69 723.89,-80.34"/>
</a>
</g>
</g>
<!-- Node22 -->
<g id="Node000022" class="node">
<title>Node22</title>
<g id="a_Node000022"><a xlink:title=" ">
<polygon fill="#e0e0e0" stroke="#999999" points="652,-74 596,-74 596,-55 652,-55 652,-74"/>
<text text-anchor="middle" x="624" y="-62" font-family="Helvetica,sans-Serif" font-size="10.00">sstream</text>
</a>
</g>
</g>
<!-- Node21&#45;&gt;Node22 -->
<g id="edge31_Node000021_Node000022" class="edge">
<title>Node21&#45;&gt;Node22</title>
<g id="a_edge31_Node000021_Node000022"><a xlink:title=" ">
<path fill="none" stroke="#63b8ff" d="M600.62,-109.75C604.46,-102.49 610.02,-91.95 614.76,-82.98"/>
<polygon fill="#63b8ff" stroke="#63b8ff" points="617.89,-84.57 619.46,-74.09 611.7,-81.3 617.89,-84.57"/>
</a>
</g>
</g>
<!-- Node24&#45;&gt;Node2 -->
<g id="edge38_Node000024_Node000002" class="edge">
<title>Node24&#45;&gt;Node2</title>
<g id="a_edge38_Node000024_Node000002"><a xlink:title=" ">
<path fill="none" stroke="#63b8ff" d="M284.55,-219.77C256.66,-205.4 204.93,-173.81 185,-129 164.75,-83.47 225.7,-43.45 263.8,-23.65"/>
<polygon fill="#63b8ff" stroke="#63b8ff" points="265.56,-26.68 272.93,-19.07 262.42,-20.43 265.56,-26.68"/>
</a>
</g>
</g>
<!-- Node24&#45;&gt;Node4 -->
<g id="edge37_Node000024_Node000004" class="edge">
<title>Node24&#45;&gt;Node4</title>
<g id="a_edge37_Node000024_Node000004"><a xlink:title=" ">
<path fill="none" stroke="#63b8ff" d="M321.37,-219.92C350.66,-205.32 407.92,-172.91 440,-129 449.74,-115.67 455.14,-97.56 458.01,-84.09"/>
<polygon fill="#63b8ff" stroke="#63b8ff" points="461.49,-84.54 459.88,-74.07 454.61,-83.26 461.49,-84.54"/>
</a>
</g>
</g>
<!-- Node24&#45;&gt;Node25 -->
<g id="edge39_Node000024_Node000025" class="edge">
<title>Node24&#45;&gt;Node25</title>
<g id="a_edge39_Node000024_Node000025"><a xlink:title=" ">
<path fill="none" stroke="#63b8ff" d="M303.83,-219.75C304.48,-212.8 305.42,-202.85 306.24,-194.13"/>
<polygon fill="#63b8ff" stroke="#63b8ff" points="309.73,-194.37 307.19,-184.09 302.77,-193.72 309.73,-194.37"/>
</a>
</g>
</g>
<!-- Node26 -->
<g id="Node000026" class="node">
<title>Node26</title>
<g id="a_Node000026"><a xlink:href="id3v2header_8h.html" target="_top" xlink:title=" ">
<polygon fill="white" stroke="#666666" points="280,-129 194,-129 194,-110 280,-110 280,-129"/>
<text text-anchor="middle" x="237" y="-117" font-family="Helvetica,sans-Serif" font-size="10.00">id3v2header.h</text>
</a>
</g>
</g>
<!-- Node24&#45;&gt;Node26 -->
<g id="edge43_Node000024_Node000026" class="edge">
<title>Node24&#45;&gt;Node26</title>
<g id="a_edge43_Node000024_Node000026"><a xlink:title=" ">
<path fill="none" stroke="#63b8ff" d="M291.51,-219.78C281.39,-211.56 266.92,-198.38 258,-184 249.39,-170.12 243.91,-152.33 240.71,-139.11"/>
<polygon fill="#63b8ff" stroke="#63b8ff" points="244.11,-138.28 238.54,-129.27 237.27,-139.79 244.11,-138.28"/>
</a>
</g>
</g>
<!-- Node25&#45;&gt;Node2 -->
<g id="edge42_Node000025_Node000002" class="edge">
<title>Node25&#45;&gt;Node2</title>
<g id="a_edge42_Node000025_Node000002"><a xlink:title=" ">
<path fill="none" stroke="#63b8ff" d="M307.14,-164.74C304.64,-139.31 297.36,-65.08 293.88,-29.69"/>
<polygon fill="#63b8ff" stroke="#63b8ff" points="297.32,-28.92 292.86,-19.31 290.36,-29.6 297.32,-28.92"/>
</a>
</g>
</g>
<!-- Node25&#45;&gt;Node4 -->
<g id="edge41_Node000025_Node000004" class="edge">
<title>Node25&#45;&gt;Node4</title>
<g id="a_edge41_Node000025_Node000004"><a xlink:title=" ">
<path fill="none" stroke="#63b8ff" d="M314.1,-164.67C323.66,-151.36 343.32,-126.03 365,-110 383.49,-96.33 406.85,-85.39 425.9,-77.77"/>
<polygon fill="#63b8ff" stroke="#63b8ff" points="427.35,-80.97 435.42,-74.1 424.83,-74.44 427.35,-80.97"/>
</a>
</g>
</g>
<!-- Node25&#45;&gt;Node8 -->
<g id="edge40_Node000025_Node000008" class="edge">
<title>Node25&#45;&gt;Node8</title>
<g id="a_edge40_Node000025_Node000008"><a xlink:title=" ">
<path fill="none" stroke="#63b8ff" d="M323.26,-164.98C338.13,-156.69 360.98,-143.94 378.42,-134.22"/>
<polygon fill="#63b8ff" stroke="#63b8ff" points="380.43,-137.1 387.46,-129.17 377.02,-130.99 380.43,-137.1"/>
</a>
</g>
</g>
<!-- Node26&#45;&gt;Node2 -->
<g id="edge45_Node000026_Node000002" class="edge">
<title>Node26&#45;&gt;Node2</title>
<g id="a_edge45_Node000026_Node000002"><a xlink:title=" ">
<path fill="none" stroke="#63b8ff" d="M241.5,-109.66C250.53,-91.93 271,-51.73 282.93,-28.32"/>
<polygon fill="#63b8ff" stroke="#63b8ff" points="286.17,-29.66 287.59,-19.16 279.93,-26.48 286.17,-29.66"/>
</a>
</g>
</g>
<!-- Node26&#45;&gt;Node4 -->
<g id="edge44_Node000026_Node000004" class="edge">
<title>Node26&#45;&gt;Node4</title>
<g id="a_edge44_Node000026_Node000004"><a xlink:title=" ">
<path fill="none" stroke="#63b8ff" d="M272.99,-109.98C311.49,-100.87 372.69,-86.4 414.74,-76.45"/>
<polygon fill="#63b8ff" stroke="#63b8ff" points="415.8,-79.79 424.73,-74.08 414.19,-72.98 415.8,-79.79"/>
</a>
</g>
</g>
</g>
</svg>
