<?xml version="1.0" encoding="UTF-8" standalone="no"?>
<!DOCTYPE svg PUBLIC "-//W3C//DTD SVG 1.1//EN"
 "http://www.w3.org/Graphics/SVG/1.1/DTD/svg11.dtd">
<!-- Generated by graphviz version 2.42.4 (0)
 -->
<!-- Title: TagLib::ID3v2::UrlLinkFrame Pages: 1 -->
<svg width="161pt" height="203pt"
 viewBox="0.00 0.00 161.00 203.00" xmlns="http://www.w3.org/2000/svg" xmlns:xlink="http://www.w3.org/1999/xlink">
<g id="graph0" class="graph" transform="scale(1 1) rotate(0) translate(4 199)">
<title>TagLib::ID3v2::UrlLinkFrame</title>
<!-- Node1 -->
<g id="Node000001" class="node">
<title>Node1</title>
<g id="a_Node000001"><a xlink:title="ID3v2 URL frame.">
<polygon fill="#999999" stroke="#666666" points="153,-85 0,-85 0,-66 153,-66 153,-85"/>
<text text-anchor="middle" x="76.5" y="-73" font-family="Helvetica,sans-Serif" font-size="10.00">TagLib::ID3v2::UrlLinkFrame</text>
</a>
</g>
</g>
<!-- Node4 -->
<g id="Node000004" class="node">
<title>Node4</title>
<g id="a_Node000004"><a xlink:href="classTagLib_1_1ID3v2_1_1UserUrlLinkFrame.html" target="_top" xlink:title="ID3v2 User defined URL frame.">
<polygon fill="white" stroke="#666666" points="149,-30 4,-30 4,0 149,0 149,-30"/>
<text text-anchor="start" x="12" y="-18" font-family="Helvetica,sans-Serif" font-size="10.00">TagLib::ID3v2::UserUrlLink</text>
<text text-anchor="middle" x="76.5" y="-7" font-family="Helvetica,sans-Serif" font-size="10.00">Frame</text>
</a>
</g>
</g>
<!-- Node1&#45;&gt;Node4 -->
<g id="edge3_Node000001_Node000004" class="edge">
<title>Node1&#45;&gt;Node4</title>
<g id="a_edge3_Node000001_Node000004"><a xlink:title=" ">
<path fill="none" stroke="#63b8ff" d="M76.5,-55.65C76.5,-47.36 76.5,-37.78 76.5,-30.11"/>
<polygon fill="#63b8ff" stroke="#63b8ff" points="73,-55.87 76.5,-65.87 80,-55.87 73,-55.87"/>
</a>
</g>
</g>
<!-- Node2 -->
<g id="Node000002" class="node">
<title>Node2</title>
<g id="a_Node000002"><a xlink:href="classTagLib_1_1ID3v2_1_1Frame.html" target="_top" xlink:title="ID3v2 frame implementation.">
<polygon fill="white" stroke="#666666" points="136,-140 17,-140 17,-121 136,-121 136,-140"/>
<text text-anchor="middle" x="76.5" y="-128" font-family="Helvetica,sans-Serif" font-size="10.00">TagLib::ID3v2::Frame</text>
</a>
</g>
</g>
<!-- Node2&#45;&gt;Node1 -->
<g id="edge1_Node000001_Node000002" class="edge">
<title>Node2&#45;&gt;Node1</title>
<g id="a_edge1_Node000001_Node000002"><a xlink:title=" ">
<path fill="none" stroke="#63b8ff" d="M76.5,-110.66C76.5,-101.93 76.5,-91.99 76.5,-85.09"/>
<polygon fill="#63b8ff" stroke="#63b8ff" points="73,-110.75 76.5,-120.75 80,-110.75 73,-110.75"/>
</a>
</g>
</g>
<!-- Node3 -->
<g id="Node000003" class="node">
<title>Node3</title>
<g id="a_Node000003"><a xlink:href="classTagLib_1_1ID3v2_1_1Header.html" target="_top" xlink:title="An implementation of ID3v2 headers.">
<polygon fill="white" stroke="#666666" points="138,-195 15,-195 15,-176 138,-176 138,-195"/>
<text text-anchor="middle" x="76.5" y="-183" font-family="Helvetica,sans-Serif" font-size="10.00">TagLib::ID3v2::Header</text>
</a>
</g>
</g>
<!-- Node3&#45;&gt;Node2 -->
<g id="edge2_Node000002_Node000003" class="edge">
<title>Node3&#45;&gt;Node2</title>
<g id="a_edge2_Node000002_Node000003"><a xlink:title=" ">
<path fill="none" stroke="#8b1a1a" d="M76.5,-165.66C76.5,-156.93 76.5,-146.99 76.5,-140.09"/>
<polygon fill="#8b1a1a" stroke="#8b1a1a" points="73,-165.75 76.5,-175.75 80,-165.75 73,-165.75"/>
</a>
</g>
</g>
</g>
</svg>
