<?xml version="1.0" encoding="UTF-8" standalone="no"?>
<!DOCTYPE svg PUBLIC "-//W3C//DTD SVG 1.1//EN"
 "http://www.w3.org/Graphics/SVG/1.1/DTD/svg11.dtd">
<!-- Generated by graphviz version 2.43.0 (0)
 -->
<!-- Title: TagLib::ID3v2::SynchronizedLyricsFrame Pages: 1 -->
<svg width="254pt" height="196pt"
 viewBox="0.00 0.00 253.50 196.00" xmlns="http://www.w3.org/2000/svg" xmlns:xlink="http://www.w3.org/1999/xlink">
<g id="graph0" class="graph" transform="scale(1 1) rotate(0) translate(4 192)">
<title>TagLib::ID3v2::SynchronizedLyricsFrame</title>
<polygon fill="white" stroke="transparent" points="-4,4 -4,-192 249.5,-192 249.5,4 -4,4"/>
<!-- Node1 -->
<g id="node1" class="node">
<title>Node1</title>
<g id="a_node1"><a xlink:title="ID3v2 synchronized lyrics frame.">
<polygon fill="#bfbfbf" stroke="black" points="45,-0.5 45,-30.5 198,-30.5 198,-0.5 45,-0.5"/>
<text text-anchor="start" x="53" y="-18.5" font-family="Helvetica,sans-Serif" font-size="10.00">TagLib::ID3v2::Synchronized</text>
<text text-anchor="middle" x="121.5" y="-7.5" font-family="Helvetica,sans-Serif" font-size="10.00">LyricsFrame</text>
</a>
</g>
</g>
<!-- Node2 -->
<g id="node2" class="node">
<title>Node2</title>
<g id="a_node2"><a xlink:href="classTagLib_1_1ID3v2_1_1Frame.html" target="_top" xlink:title="ID3v2 frame implementation.">
<polygon fill="white" stroke="black" points="62,-68.5 62,-87.5 181,-87.5 181,-68.5 62,-68.5"/>
<text text-anchor="middle" x="121.5" y="-75.5" font-family="Helvetica,sans-Serif" font-size="10.00">TagLib::ID3v2::Frame</text>
</a>
</g>
</g>
<!-- Node2&#45;&gt;Node1 -->
<g id="edge1" class="edge">
<title>Node2&#45;&gt;Node1</title>
<path fill="none" stroke="midnightblue" d="M121.5,-58.22C121.5,-49.36 121.5,-38.96 121.5,-30.76"/>
<polygon fill="midnightblue" stroke="midnightblue" points="118,-58.33 121.5,-68.33 125,-58.33 118,-58.33"/>
</g>
<!-- Node3 -->
<g id="node3" class="node">
<title>Node3</title>
<g id="a_node3"><a xlink:href="classTagLib_1_1ID3v2_1_1Header.html" target="_top" xlink:title="An implementation of ID3v2 headers.">
<polygon fill="white" stroke="black" points="0,-168.5 0,-187.5 123,-187.5 123,-168.5 0,-168.5"/>
<text text-anchor="middle" x="61.5" y="-175.5" font-family="Helvetica,sans-Serif" font-size="10.00">TagLib::ID3v2::Header</text>
</a>
</g>
</g>
<!-- Node3&#45;&gt;Node2 -->
<g id="edge2" class="edge">
<title>Node3&#45;&gt;Node2</title>
<path fill="none" stroke="#8b1a1a" d="M72.11,-159.67C85.06,-138.52 106.45,-103.58 116.27,-87.54"/>
<polygon fill="#8b1a1a" stroke="#8b1a1a" points="69.06,-157.95 66.82,-168.3 75.03,-161.6 69.06,-157.95"/>
</g>
<!-- Node4 -->
<g id="node4" class="node">
<title>Node4</title>
<g id="a_node4"><a xlink:href="classTagLib_1_1String.html" target="_top" xlink:title="A wide string class suitable for unicode.">
<polygon fill="white" stroke="black" points="141.5,-168.5 141.5,-187.5 223.5,-187.5 223.5,-168.5 141.5,-168.5"/>
<text text-anchor="middle" x="182.5" y="-175.5" font-family="Helvetica,sans-Serif" font-size="10.00">TagLib::String</text>
</a>
</g>
</g>
<!-- Node4&#45;&gt;Node2 -->
<g id="edge3" class="edge">
<title>Node4&#45;&gt;Node2</title>
<path fill="none" stroke="#9a32cd" stroke-dasharray="5,2" d="M171.71,-159.67C158.55,-138.52 136.8,-103.58 126.81,-87.54"/>
<polygon fill="#9a32cd" stroke="#9a32cd" points="168.83,-161.66 177.09,-168.3 174.77,-157.96 168.83,-161.66"/>
<text text-anchor="middle" x="204.5" y="-142" font-family="Helvetica,sans-Serif" font-size="10.00"> commentPrefix</text>
<text text-anchor="middle" x="204.5" y="-131" font-family="Helvetica,sans-Serif" font-size="10.00">instrumentPrefix</text>
<text text-anchor="middle" x="204.5" y="-120" font-family="Helvetica,sans-Serif" font-size="10.00">lyricsPrefix</text>
<text text-anchor="middle" x="204.5" y="-109" font-family="Helvetica,sans-Serif" font-size="10.00">urlPrefix</text>
</g>
</g>
</svg>
