<?xml version="1.0" encoding="UTF-8" standalone="no"?>
<!DOCTYPE svg PUBLIC "-//W3C//DTD SVG 1.1//EN"
 "http://www.w3.org/Graphics/SVG/1.1/DTD/svg11.dtd">
<!-- Generated by graphviz version 2.43.0 (0)
 -->
<!-- Title: TagLib::ByteVectorList Pages: 1 -->
<svg width="160pt" height="152pt"
 viewBox="0.00 0.00 160.00 152.00" xmlns="http://www.w3.org/2000/svg" xmlns:xlink="http://www.w3.org/1999/xlink">
<g id="graph0" class="graph" transform="scale(1 1) rotate(0) translate(4 148)">
<title>TagLib::ByteVectorList</title>
<polygon fill="white" stroke="transparent" points="-4,4 -4,-148 156,-148 156,4 -4,4"/>
<!-- Node1 -->
<g id="node1" class="node">
<title>Node1</title>
<g id="a_node1"><a xlink:title="A list of ByteVectors.">
<polygon fill="#bfbfbf" stroke="black" points="11,-0.5 11,-19.5 135,-19.5 135,-0.5 11,-0.5"/>
<text text-anchor="middle" x="73" y="-7.5" font-family="Helvetica,sans-Serif" font-size="10.00">TagLib::ByteVectorList</text>
</a>
</g>
</g>
<!-- Node2 -->
<g id="node2" class="node">
<title>Node2</title>
<g id="a_node2"><a xlink:href="classTagLib_1_1List.html" target="_top" xlink:title=" ">
<polygon fill="white" stroke="black" points="0,-57.5 0,-76.5 146,-76.5 146,-57.5 0,-57.5"/>
<text text-anchor="middle" x="73" y="-64.5" font-family="Helvetica,sans-Serif" font-size="10.00">TagLib::List&lt; ByteVector &gt;</text>
</a>
</g>
</g>
<!-- Node2&#45;&gt;Node1 -->
<g id="edge1" class="edge">
<title>Node2&#45;&gt;Node1</title>
<path fill="none" stroke="midnightblue" d="M73,-47.12C73,-37.82 73,-27.06 73,-19.71"/>
<polygon fill="midnightblue" stroke="midnightblue" points="69.5,-47.41 73,-57.41 76.5,-47.41 69.5,-47.41"/>
</g>
<!-- Node3 -->
<g id="node3" class="node">
<title>Node3</title>
<g id="a_node3"><a xlink:href="classTagLib_1_1List.html" target="_top" xlink:title="A generic, implicitly shared list.">
<polygon fill="white" stroke="black" points="23.5,-124.5 23.5,-143.5 122.5,-143.5 122.5,-124.5 23.5,-124.5"/>
<text text-anchor="middle" x="73" y="-131.5" font-family="Helvetica,sans-Serif" font-size="10.00">TagLib::List&lt; T &gt;</text>
</a>
</g>
</g>
<!-- Node3&#45;&gt;Node2 -->
<g id="edge2" class="edge">
<title>Node3&#45;&gt;Node2</title>
<path fill="none" stroke="orange" stroke-dasharray="5,2" d="M73,-114.04C73,-101.67 73,-86.12 73,-76.63"/>
<polygon fill="orange" stroke="orange" points="69.5,-114.23 73,-124.23 76.5,-114.23 69.5,-114.23"/>
<text text-anchor="middle" x="112.5" y="-98" font-family="Helvetica,sans-Serif" font-size="10.00"> &lt; ByteVector &gt;</text>
</g>
</g>
</svg>
