<?xml version="1.0" encoding="UTF-8" standalone="no"?>
<!DOCTYPE svg PUBLIC "-//W3C//DTD SVG 1.1//EN"
 "http://www.w3.org/Graphics/SVG/1.1/DTD/svg11.dtd">
<!-- Generated by graphviz version 2.42.4 (0)
 -->
<!-- Title: TagLib::MP4::NeroChapterList Pages: 1 -->
<svg width="167pt" height="215pt"
 viewBox="0.00 0.00 167.00 215.00" xmlns="http://www.w3.org/2000/svg" xmlns:xlink="http://www.w3.org/1999/xlink">
<g id="graph0" class="graph" transform="scale(1 1) rotate(0) translate(4 211)">
<title>TagLib::MP4::NeroChapterList</title>
<!-- Node1 -->
<g id="Node000001" class="node">
<title>Node1</title>
<g id="a_Node000001"><a xlink:title=" ">
<polygon fill="#999999" stroke="#666666" points="159,-19 0,-19 0,0 159,0 159,-19"/>
<text text-anchor="middle" x="79.5" y="-7" font-family="Helvetica,sans-Serif" font-size="10.00">TagLib::MP4::NeroChapterList</text>
</a>
</g>
</g>
<!-- Node2 -->
<g id="Node000002" class="node">
<title>Node2</title>
<g id="a_Node000002"><a xlink:href="classTagLib_1_1MP4_1_1ChapterHolder.html" target="_top" xlink:title=" ">
<polygon fill="white" stroke="#666666" points="155,-75 4,-75 4,-56 155,-56 155,-75"/>
<text text-anchor="middle" x="79.5" y="-63" font-family="Helvetica,sans-Serif" font-size="10.00">TagLib::MP4::ChapterHolder</text>
</a>
</g>
</g>
<!-- Node2&#45;&gt;Node1 -->
<g id="edge1_Node000001_Node000002" class="edge">
<title>Node2&#45;&gt;Node1</title>
<g id="a_edge1_Node000001_Node000002"><a xlink:title=" ">
<path fill="none" stroke="#63b8ff" d="M79.5,-45.3C79.5,-36.41 79.5,-26.28 79.5,-19.25"/>
<polygon fill="#63b8ff" stroke="#63b8ff" points="76,-45.58 79.5,-55.58 83,-45.58 76,-45.58"/>
</a>
</g>
</g>
<!-- Node3 -->
<g id="Node000003" class="node">
<title>Node3</title>
<g id="a_Node000003"><a xlink:href="classTagLib_1_1List.html" target="_top" xlink:title=" ">
<polygon fill="white" stroke="#666666" points="145,-141 14,-141 14,-122 145,-122 145,-141"/>
<text text-anchor="middle" x="79.5" y="-129" font-family="Helvetica,sans-Serif" font-size="10.00">TagLib::List&lt; Chapter &gt;</text>
</a>
</g>
</g>
<!-- Node3&#45;&gt;Node2 -->
<g id="edge2_Node000002_Node000003" class="edge">
<title>Node3&#45;&gt;Node2</title>
<g id="a_edge2_Node000002_Node000003"><a xlink:title=" ">
<path fill="none" stroke="#9a32cd" stroke-dasharray="5,2" d="M79.5,-111.58C79.5,-99.63 79.5,-84.72 79.5,-75.41"/>
<polygon fill="#9a32cd" stroke="#9a32cd" points="76,-111.87 79.5,-121.87 83,-111.87 76,-111.87"/>
</a>
</g>
<text text-anchor="middle" x="108.5" y="-96" font-family="Helvetica,sans-Serif" font-size="10.00" fill="grey"> chapterList</text>
</g>
<!-- Node4 -->
<g id="Node000004" class="node">
<title>Node4</title>
<g id="a_Node000004"><a xlink:href="classTagLib_1_1List.html" target="_top" xlink:title="A generic, implicitly shared list.">
<polygon fill="white" stroke="#666666" points="129,-207 30,-207 30,-188 129,-188 129,-207"/>
<text text-anchor="middle" x="79.5" y="-195" font-family="Helvetica,sans-Serif" font-size="10.00">TagLib::List&lt; T &gt;</text>
</a>
</g>
</g>
<!-- Node4&#45;&gt;Node3 -->
<g id="edge3_Node000003_Node000004" class="edge">
<title>Node4&#45;&gt;Node3</title>
<g id="a_edge3_Node000003_Node000004"><a xlink:title=" ">
<path fill="none" stroke="orange" stroke-dasharray="5,2" d="M79.5,-177.58C79.5,-165.63 79.5,-150.72 79.5,-141.41"/>
<polygon fill="orange" stroke="orange" points="76,-177.87 79.5,-187.87 83,-177.87 76,-177.87"/>
</a>
</g>
<text text-anchor="middle" x="111.5" y="-162" font-family="Helvetica,sans-Serif" font-size="10.00" fill="grey"> &lt; Chapter &gt;</text>
</g>
</g>
</svg>
