<?xml version="1.0" encoding="UTF-8" standalone="no"?>
<!DOCTYPE svg PUBLIC "-//W3C//DTD SVG 1.1//EN"
 "http://www.w3.org/Graphics/SVG/1.1/DTD/svg11.dtd">
<!-- Generated by graphviz version 2.43.0 (0)
 -->
<!-- Title: TagLib::ID3v2::UserUrlLinkFrame Pages: 1 -->
<svg width="254pt" height="253pt"
 viewBox="0.00 0.00 253.50 253.00" xmlns="http://www.w3.org/2000/svg" xmlns:xlink="http://www.w3.org/1999/xlink">
<g id="graph0" class="graph" transform="scale(1 1) rotate(0) translate(4 249)">
<title>TagLib::ID3v2::UserUrlLinkFrame</title>
<polygon fill="white" stroke="transparent" points="-4,4 -4,-249 249.5,-249 249.5,4 -4,4"/>
<!-- Node1 -->
<g id="node1" class="node">
<title>Node1</title>
<g id="a_node1"><a xlink:title="ID3v2 User defined URL frame.">
<polygon fill="#bfbfbf" stroke="black" points="49,-0.5 49,-30.5 194,-30.5 194,-0.5 49,-0.5"/>
<text text-anchor="start" x="57" y="-18.5" font-family="Helvetica,sans-Serif" font-size="10.00">TagLib::ID3v2::UserUrlLink</text>
<text text-anchor="middle" x="121.5" y="-7.5" font-family="Helvetica,sans-Serif" font-size="10.00">Frame</text>
</a>
</g>
</g>
<!-- Node2 -->
<g id="node2" class="node">
<title>Node2</title>
<g id="a_node2"><a xlink:href="classTagLib_1_1ID3v2_1_1UrlLinkFrame.html" target="_top" xlink:title="ID3v2 URL frame.">
<polygon fill="white" stroke="black" points="45,-68.5 45,-87.5 198,-87.5 198,-68.5 45,-68.5"/>
<text text-anchor="middle" x="121.5" y="-75.5" font-family="Helvetica,sans-Serif" font-size="10.00">TagLib::ID3v2::UrlLinkFrame</text>
</a>
</g>
</g>
<!-- Node2&#45;&gt;Node1 -->
<g id="edge1" class="edge">
<title>Node2&#45;&gt;Node1</title>
<path fill="none" stroke="midnightblue" d="M121.5,-58.22C121.5,-49.36 121.5,-38.96 121.5,-30.76"/>
<polygon fill="midnightblue" stroke="midnightblue" points="118,-58.33 121.5,-68.33 125,-58.33 118,-58.33"/>
</g>
<!-- Node3 -->
<g id="node3" class="node">
<title>Node3</title>
<g id="a_node3"><a xlink:href="classTagLib_1_1ID3v2_1_1Frame.html" target="_top" xlink:title="ID3v2 frame implementation.">
<polygon fill="white" stroke="black" points="62,-125.5 62,-144.5 181,-144.5 181,-125.5 62,-125.5"/>
<text text-anchor="middle" x="121.5" y="-132.5" font-family="Helvetica,sans-Serif" font-size="10.00">TagLib::ID3v2::Frame</text>
</a>
</g>
</g>
<!-- Node3&#45;&gt;Node2 -->
<g id="edge2" class="edge">
<title>Node3&#45;&gt;Node2</title>
<path fill="none" stroke="midnightblue" d="M121.5,-115.12C121.5,-105.82 121.5,-95.06 121.5,-87.71"/>
<polygon fill="midnightblue" stroke="midnightblue" points="118,-115.41 121.5,-125.41 125,-115.41 118,-115.41"/>
</g>
<!-- Node4 -->
<g id="node4" class="node">
<title>Node4</title>
<g id="a_node4"><a xlink:href="classTagLib_1_1ID3v2_1_1Header.html" target="_top" xlink:title="An implementation of ID3v2 headers.">
<polygon fill="white" stroke="black" points="0,-225.5 0,-244.5 123,-244.5 123,-225.5 0,-225.5"/>
<text text-anchor="middle" x="61.5" y="-232.5" font-family="Helvetica,sans-Serif" font-size="10.00">TagLib::ID3v2::Header</text>
</a>
</g>
</g>
<!-- Node4&#45;&gt;Node3 -->
<g id="edge3" class="edge">
<title>Node4&#45;&gt;Node3</title>
<path fill="none" stroke="#8b1a1a" d="M72.11,-216.67C85.06,-195.52 106.45,-160.58 116.27,-144.54"/>
<polygon fill="#8b1a1a" stroke="#8b1a1a" points="69.06,-214.95 66.82,-225.3 75.03,-218.6 69.06,-214.95"/>
</g>
<!-- Node5 -->
<g id="node5" class="node">
<title>Node5</title>
<g id="a_node5"><a xlink:href="classTagLib_1_1String.html" target="_top" xlink:title="A wide string class suitable for unicode.">
<polygon fill="white" stroke="black" points="141.5,-225.5 141.5,-244.5 223.5,-244.5 223.5,-225.5 141.5,-225.5"/>
<text text-anchor="middle" x="182.5" y="-232.5" font-family="Helvetica,sans-Serif" font-size="10.00">TagLib::String</text>
</a>
</g>
</g>
<!-- Node5&#45;&gt;Node3 -->
<g id="edge4" class="edge">
<title>Node5&#45;&gt;Node3</title>
<path fill="none" stroke="#9a32cd" stroke-dasharray="5,2" d="M171.71,-216.67C158.55,-195.52 136.8,-160.58 126.81,-144.54"/>
<polygon fill="#9a32cd" stroke="#9a32cd" points="168.83,-218.66 177.09,-225.3 174.77,-214.96 168.83,-218.66"/>
<text text-anchor="middle" x="204.5" y="-199" font-family="Helvetica,sans-Serif" font-size="10.00"> commentPrefix</text>
<text text-anchor="middle" x="204.5" y="-188" font-family="Helvetica,sans-Serif" font-size="10.00">instrumentPrefix</text>
<text text-anchor="middle" x="204.5" y="-177" font-family="Helvetica,sans-Serif" font-size="10.00">lyricsPrefix</text>
<text text-anchor="middle" x="204.5" y="-166" font-family="Helvetica,sans-Serif" font-size="10.00">urlPrefix</text>
</g>
</g>
</svg>
