<?xml version="1.0" encoding="UTF-8" standalone="no"?>
<!DOCTYPE svg PUBLIC "-//W3C//DTD SVG 1.1//EN"
 "http://www.w3.org/Graphics/SVG/1.1/DTD/svg11.dtd">
<!-- Generated by graphviz version 2.42.4 (0)
 -->
<!-- Title: TagLib::File Pages: 1 -->
<svg width="404pt" height="560pt"
 viewBox="0.00 0.00 404.00 560.00" xmlns="http://www.w3.org/2000/svg" xmlns:xlink="http://www.w3.org/1999/xlink">
<g id="graph0" class="graph" transform="scale(1 1) rotate(0) translate(4 556)">
<title>TagLib::File</title>
<!-- Node1 -->
<g id="Node000001" class="node">
<title>Node1</title>
<g id="a_Node000001"><a xlink:title="A file class with some useful methods for tag manipulation.">
<polygon fill="#999999" stroke="#666666" points="71,-311 0,-311 0,-292 71,-292 71,-311"/>
<text text-anchor="middle" x="35.5" y="-299" font-family="Helvetica,sans-Serif" font-size="10.00">TagLib::File</text>
</a>
</g>
</g>
<!-- Node2 -->
<g id="Node000002" class="node">
<title>Node2</title>
<g id="a_Node000002"><a xlink:href="classTagLib_1_1APE_1_1File.html" target="_top" xlink:title="An implementation of TagLib::File with APE specific methods.">
<polygon fill="white" stroke="#666666" points="217,-552 122,-552 122,-533 217,-533 217,-552"/>
<text text-anchor="middle" x="169.5" y="-540" font-family="Helvetica,sans-Serif" font-size="10.00">TagLib::APE::File</text>
</a>
</g>
</g>
<!-- Node1&#45;&gt;Node2 -->
<g id="edge1_Node000001_Node000002" class="edge">
<title>Node1&#45;&gt;Node2</title>
<g id="a_edge1_Node000001_Node000002"><a xlink:title=" ">
<path fill="none" stroke="#63b8ff" d="M36.84,-321.21C38.66,-364.37 49.2,-467.92 107,-524.5 111.21,-528.62 116.32,-531.81 121.77,-534.28"/>
<polygon fill="#63b8ff" stroke="#63b8ff" points="40.33,-321.05 36.53,-311.16 33.34,-321.26 40.33,-321.05"/>
</a>
</g>
</g>
<!-- Node3 -->
<g id="Node000003" class="node">
<title>Node3</title>
<g id="a_Node000003"><a xlink:href="classTagLib_1_1ASF_1_1File.html" target="_top" xlink:title="An implementation of TagLib::File with ASF specific methods.">
<polygon fill="white" stroke="#666666" points="217,-515 122,-515 122,-496 217,-496 217,-515"/>
<text text-anchor="middle" x="169.5" y="-503" font-family="Helvetica,sans-Serif" font-size="10.00">TagLib::ASF::File</text>
</a>
</g>
</g>
<!-- Node1&#45;&gt;Node3 -->
<g id="edge2_Node000001_Node000003" class="edge">
<title>Node1&#45;&gt;Node3</title>
<g id="a_edge2_Node000001_Node000003"><a xlink:title=" ">
<path fill="none" stroke="#63b8ff" d="M38.32,-321.51C42.85,-359.48 58.07,-442.23 107,-487.5 111.33,-491.5 116.5,-494.62 121.98,-497.05"/>
<polygon fill="#63b8ff" stroke="#63b8ff" points="41.76,-320.83 37.23,-311.25 34.8,-321.57 41.76,-320.83"/>
</a>
</g>
</g>
<!-- Node4 -->
<g id="Node000004" class="node">
<title>Node4</title>
<g id="a_Node000004"><a xlink:href="classTagLib_1_1DSDIFF_1_1File.html" target="_top" xlink:title="An implementation of TagLib::File with DSDIFF specific methods.">
<polygon fill="white" stroke="#666666" points="225.5,-478 113.5,-478 113.5,-459 225.5,-459 225.5,-478"/>
<text text-anchor="middle" x="169.5" y="-466" font-family="Helvetica,sans-Serif" font-size="10.00">TagLib::DSDIFF::File</text>
</a>
</g>
</g>
<!-- Node1&#45;&gt;Node4 -->
<g id="edge3_Node000001_Node000004" class="edge">
<title>Node1&#45;&gt;Node4</title>
<g id="a_edge3_Node000001_Node000004"><a xlink:title=" ">
<path fill="none" stroke="#63b8ff" d="M40.34,-321.04C47.63,-352.9 66.51,-415.92 107,-450.5 110.98,-453.9 115.57,-456.65 120.41,-458.89"/>
<polygon fill="#63b8ff" stroke="#63b8ff" points="43.75,-320.22 38.23,-311.17 36.9,-321.68 43.75,-320.22"/>
</a>
</g>
</g>
<!-- Node5 -->
<g id="Node000005" class="node">
<title>Node5</title>
<g id="a_Node000005"><a xlink:href="classTagLib_1_1DSF_1_1File.html" target="_top" xlink:title="An implementation of TagLib::File with DSF specific methods.">
<polygon fill="white" stroke="#666666" points="217,-441 122,-441 122,-422 217,-422 217,-441"/>
<text text-anchor="middle" x="169.5" y="-429" font-family="Helvetica,sans-Serif" font-size="10.00">TagLib::DSF::File</text>
</a>
</g>
</g>
<!-- Node1&#45;&gt;Node5 -->
<g id="edge4_Node000001_Node000005" class="edge">
<title>Node1&#45;&gt;Node5</title>
<g id="a_edge4_Node000001_Node000005"><a xlink:title=" ">
<path fill="none" stroke="#63b8ff" d="M43.57,-320.76C53.75,-345.83 74.91,-389.27 107,-413.5 111.53,-416.92 116.69,-419.69 122.06,-421.94"/>
<polygon fill="#63b8ff" stroke="#63b8ff" points="46.76,-319.31 39.88,-311.26 40.24,-321.85 46.76,-319.31"/>
</a>
</g>
</g>
<!-- Node6 -->
<g id="Node000006" class="node">
<title>Node6</title>
<g id="a_Node000006"><a xlink:href="classTagLib_1_1FLAC_1_1File.html" target="_top" xlink:title="An implementation of TagLib::File with FLAC specific methods.">
<polygon fill="white" stroke="#666666" points="220.5,-404 118.5,-404 118.5,-385 220.5,-385 220.5,-404"/>
<text text-anchor="middle" x="169.5" y="-392" font-family="Helvetica,sans-Serif" font-size="10.00">TagLib::FLAC::File</text>
</a>
</g>
</g>
<!-- Node1&#45;&gt;Node6 -->
<g id="edge5_Node000001_Node000006" class="edge">
<title>Node1&#45;&gt;Node6</title>
<g id="a_edge5_Node000001_Node000006"><a xlink:title=" ">
<path fill="none" stroke="#63b8ff" d="M49.06,-319.63C61.78,-336.69 82.97,-361.75 107,-376.5 112.5,-379.88 118.66,-382.65 124.91,-384.91"/>
<polygon fill="#63b8ff" stroke="#63b8ff" points="51.59,-317.16 42.9,-311.1 45.91,-321.26 51.59,-317.16"/>
</a>
</g>
</g>
<!-- Node7 -->
<g id="Node000007" class="node">
<title>Node7</title>
<g id="a_Node000007"><a xlink:href="classTagLib_1_1MP4_1_1File.html" target="_top" xlink:title="An implementation of TagLib::File with MP4 specific methods.">
<polygon fill="white" stroke="#666666" points="218.5,-367 120.5,-367 120.5,-348 218.5,-348 218.5,-367"/>
<text text-anchor="middle" x="169.5" y="-355" font-family="Helvetica,sans-Serif" font-size="10.00">TagLib::MP4::File</text>
</a>
</g>
</g>
<!-- Node1&#45;&gt;Node7 -->
<g id="edge6_Node000001_Node000007" class="edge">
<title>Node1&#45;&gt;Node7</title>
<g id="a_edge6_Node000001_Node000007"><a xlink:title=" ">
<path fill="none" stroke="#63b8ff" d="M60.97,-316.33C74.25,-323.96 91.16,-333 107,-339.5 114.72,-342.67 123.19,-345.53 131.32,-347.98"/>
<polygon fill="#63b8ff" stroke="#63b8ff" points="62.39,-313.11 52,-311.08 58.86,-319.15 62.39,-313.11"/>
</a>
</g>
</g>
<!-- Node8 -->
<g id="Node000008" class="node">
<title>Node8</title>
<g id="a_Node000008"><a xlink:href="classTagLib_1_1MPC_1_1File.html" target="_top" xlink:title="An implementation of TagLib::File with MPC specific methods.">
<polygon fill="white" stroke="#666666" points="218.5,-330 120.5,-330 120.5,-311 218.5,-311 218.5,-330"/>
<text text-anchor="middle" x="169.5" y="-318" font-family="Helvetica,sans-Serif" font-size="10.00">TagLib::MPC::File</text>
</a>
</g>
</g>
<!-- Node1&#45;&gt;Node8 -->
<g id="edge7_Node000001_Node000008" class="edge">
<title>Node1&#45;&gt;Node8</title>
<g id="a_edge7_Node000001_Node000008"><a xlink:title=" ">
<path fill="none" stroke="#63b8ff" d="M81.36,-307.96C93.85,-309.76 107.47,-311.72 120.16,-313.54"/>
<polygon fill="#63b8ff" stroke="#63b8ff" points="81.58,-304.45 71.18,-306.49 80.58,-311.38 81.58,-304.45"/>
</a>
</g>
</g>
<!-- Node9 -->
<g id="Node000009" class="node">
<title>Node9</title>
<g id="a_Node000009"><a xlink:href="classTagLib_1_1MPEG_1_1File.html" target="_top" xlink:title="An MPEG file class with some useful methods specific to MPEG.">
<polygon fill="white" stroke="#666666" points="222,-293 117,-293 117,-274 222,-274 222,-293"/>
<text text-anchor="middle" x="169.5" y="-281" font-family="Helvetica,sans-Serif" font-size="10.00">TagLib::MPEG::File</text>
</a>
</g>
</g>
<!-- Node1&#45;&gt;Node9 -->
<g id="edge8_Node000001_Node000009" class="edge">
<title>Node1&#45;&gt;Node9</title>
<g id="a_edge8_Node000001_Node000009"><a xlink:title=" ">
<path fill="none" stroke="#63b8ff" d="M81.37,-295.38C92.8,-293.82 105.17,-292.14 116.91,-290.54"/>
<polygon fill="#63b8ff" stroke="#63b8ff" points="80.62,-291.95 71.18,-296.77 81.56,-298.89 80.62,-291.95"/>
</a>
</g>
</g>
<!-- Node10 -->
<g id="Node000010" class="node">
<title>Node10</title>
<g id="a_Node000010"><a xlink:href="classTagLib_1_1Mod_1_1FileBase.html" target="_top" xlink:title="Base class for module files.">
<polygon fill="white" stroke="#666666" points="230.5,-256 108.5,-256 108.5,-237 230.5,-237 230.5,-256"/>
<text text-anchor="middle" x="169.5" y="-244" font-family="Helvetica,sans-Serif" font-size="10.00">TagLib::Mod::FileBase</text>
</a>
</g>
</g>
<!-- Node1&#45;&gt;Node10 -->
<g id="edge9_Node000001_Node000010" class="edge">
<title>Node1&#45;&gt;Node10</title>
<g id="a_edge9_Node000001_Node000010"><a xlink:title=" ">
<path fill="none" stroke="#63b8ff" d="M62.15,-287.05C75.3,-279.99 91.73,-271.7 107,-265.5 115.59,-262.01 125.08,-258.78 133.98,-256.02"/>
<polygon fill="#63b8ff" stroke="#63b8ff" points="60.31,-284.07 53.21,-291.93 63.66,-290.21 60.31,-284.07"/>
</a>
</g>
</g>
<!-- Node15 -->
<g id="Node000015" class="node">
<title>Node15</title>
<g id="a_Node000015"><a xlink:href="classTagLib_1_1Ogg_1_1File.html" target="_top" xlink:title="An implementation of TagLib::File with some helpers for Ogg based formats.">
<polygon fill="white" stroke="#666666" points="217.5,-219 121.5,-219 121.5,-200 217.5,-200 217.5,-219"/>
<text text-anchor="middle" x="169.5" y="-207" font-family="Helvetica,sans-Serif" font-size="10.00">TagLib::Ogg::File</text>
</a>
</g>
</g>
<!-- Node1&#45;&gt;Node15 -->
<g id="edge14_Node000001_Node000015" class="edge">
<title>Node1&#45;&gt;Node15</title>
<g id="a_edge14_Node000001_Node000015"><a xlink:title=" ">
<path fill="none" stroke="#63b8ff" d="M49.42,-283.67C62.28,-267.14 83.44,-242.98 107,-228.5 113.19,-224.7 120.2,-221.6 127.21,-219.09"/>
<polygon fill="#63b8ff" stroke="#63b8ff" points="46.39,-281.87 43.17,-291.96 51.98,-286.08 46.39,-281.87"/>
</a>
</g>
</g>
<!-- Node20 -->
<g id="Node000020" class="node">
<title>Node20</title>
<g id="a_Node000020"><a xlink:href="classTagLib_1_1RIFF_1_1File.html" target="_top" xlink:title="A RIFF file class with some useful methods specific to RIFF.">
<polygon fill="white" stroke="#666666" points="218.5,-182 120.5,-182 120.5,-163 218.5,-163 218.5,-182"/>
<text text-anchor="middle" x="169.5" y="-170" font-family="Helvetica,sans-Serif" font-size="10.00">TagLib::RIFF::File</text>
</a>
</g>
</g>
<!-- Node1&#45;&gt;Node20 -->
<g id="edge19_Node000001_Node000020" class="edge">
<title>Node1&#45;&gt;Node20</title>
<g id="a_edge19_Node000001_Node000020"><a xlink:title=" ">
<path fill="none" stroke="#63b8ff" d="M43.72,-282.65C54.06,-258.11 75.41,-215.53 107,-191.5 112.07,-187.64 117.93,-184.56 123.98,-182.1"/>
<polygon fill="#63b8ff" stroke="#63b8ff" points="40.46,-281.37 39.96,-291.95 46.95,-283.99 40.46,-281.37"/>
</a>
</g>
</g>
<!-- Node23 -->
<g id="Node000023" class="node">
<title>Node23</title>
<g id="a_Node000023"><a xlink:href="classTagLib_1_1Shorten_1_1File.html" target="_top" xlink:title="An implementation of TagLib::File with Shorten specific methods.">
<polygon fill="white" stroke="#666666" points="226.5,-145 112.5,-145 112.5,-126 226.5,-126 226.5,-145"/>
<text text-anchor="middle" x="169.5" y="-133" font-family="Helvetica,sans-Serif" font-size="10.00">TagLib::Shorten::File</text>
</a>
</g>
</g>
<!-- Node1&#45;&gt;Node23 -->
<g id="edge22_Node000001_Node000023" class="edge">
<title>Node1&#45;&gt;Node23</title>
<g id="a_edge22_Node000001_Node000023"><a xlink:title=" ">
<path fill="none" stroke="#63b8ff" d="M40.58,-281.87C48.14,-250.4 67.29,-188.74 107,-154.5 111.49,-150.63 116.75,-147.55 122.28,-145.1"/>
<polygon fill="#63b8ff" stroke="#63b8ff" points="37.08,-281.46 38.3,-291.99 43.91,-283 37.08,-281.46"/>
</a>
</g>
</g>
<!-- Node24 -->
<g id="Node000024" class="node">
<title>Node24</title>
<g id="a_Node000024"><a xlink:href="classTagLib_1_1TrueAudio_1_1File.html" target="_top" xlink:title="An implementation of TagLib::File with TrueAudio specific methods.">
<polygon fill="white" stroke="#666666" points="232,-108 107,-108 107,-89 232,-89 232,-108"/>
<text text-anchor="middle" x="169.5" y="-96" font-family="Helvetica,sans-Serif" font-size="10.00">TagLib::TrueAudio::File</text>
</a>
</g>
</g>
<!-- Node1&#45;&gt;Node24 -->
<g id="edge23_Node000001_Node000024" class="edge">
<title>Node1&#45;&gt;Node24</title>
<g id="a_edge23_Node000001_Node000024"><a xlink:title=" ">
<path fill="none" stroke="#63b8ff" d="M38.45,-281.77C43.2,-244.31 58.79,-162.62 107,-117.5 111.16,-113.61 116.11,-110.51 121.36,-108.05"/>
<polygon fill="#63b8ff" stroke="#63b8ff" points="34.95,-281.55 37.3,-291.88 41.9,-282.34 34.95,-281.55"/>
</a>
</g>
</g>
<!-- Node25 -->
<g id="Node000025" class="node">
<title>Node25</title>
<g id="a_Node000025"><a xlink:href="classTagLib_1_1WavPack_1_1File.html" target="_top" xlink:title="An implementation of TagLib::File with WavPack specific methods.">
<polygon fill="white" stroke="#666666" points="229.5,-71 109.5,-71 109.5,-52 229.5,-52 229.5,-71"/>
<text text-anchor="middle" x="169.5" y="-59" font-family="Helvetica,sans-Serif" font-size="10.00">TagLib::WavPack::File</text>
</a>
</g>
</g>
<!-- Node1&#45;&gt;Node25 -->
<g id="edge24_Node000001_Node000025" class="edge">
<title>Node1&#45;&gt;Node25</title>
<g id="a_edge24_Node000001_Node000025"><a xlink:title=" ">
<path fill="none" stroke="#63b8ff" d="M36.97,-281.75C39.07,-238.93 50.14,-136.85 107,-80.5 110.89,-76.65 115.54,-73.57 120.53,-71.12"/>
<polygon fill="#63b8ff" stroke="#63b8ff" points="33.46,-281.83 36.59,-291.96 40.46,-282.1 33.46,-281.83"/>
</a>
</g>
</g>
<!-- Node11 -->
<g id="Node000011" class="node">
<title>Node11</title>
<g id="a_Node000011"><a xlink:href="classTagLib_1_1IT_1_1File.html" target="_top" xlink:title="An implementation of TagLib::File with IT specific methods.">
<polygon fill="white" stroke="#666666" points="374.5,-386 289.5,-386 289.5,-367 374.5,-367 374.5,-386"/>
<text text-anchor="middle" x="332" y="-374" font-family="Helvetica,sans-Serif" font-size="10.00">TagLib::IT::File</text>
</a>
</g>
</g>
<!-- Node10&#45;&gt;Node11 -->
<g id="edge10_Node000010_Node000011" class="edge">
<title>Node10&#45;&gt;Node11</title>
<g id="a_edge10_Node000010_Node000011"><a xlink:title=" ">
<path fill="none" stroke="#63b8ff" d="M226.57,-261.15C228.48,-262.47 230.31,-263.92 232,-265.5 264.41,-295.73 235.27,-328.62 268,-358.5 273.96,-363.95 281.47,-367.75 289.19,-370.42"/>
<polygon fill="#63b8ff" stroke="#63b8ff" points="228.05,-257.97 217.63,-256.06 224.59,-264.05 228.05,-257.97"/>
</a>
</g>
</g>
<!-- Node12 -->
<g id="Node000012" class="node">
<title>Node12</title>
<g id="a_Node000012"><a xlink:href="classTagLib_1_1Mod_1_1File.html" target="_top" xlink:title="An implementation of TagLib::File with Mod specific methods.">
<polygon fill="white" stroke="#666666" points="381,-349 283,-349 283,-330 381,-330 381,-349"/>
<text text-anchor="middle" x="332" y="-337" font-family="Helvetica,sans-Serif" font-size="10.00">TagLib::Mod::File</text>
</a>
</g>
</g>
<!-- Node10&#45;&gt;Node12 -->
<g id="edge11_Node000010_Node000012" class="edge">
<title>Node10&#45;&gt;Node12</title>
<g id="a_edge11_Node000010_Node000012"><a xlink:title=" ">
<path fill="none" stroke="#63b8ff" d="M224.14,-260.43C226.9,-261.95 229.54,-263.63 232,-265.5 255.56,-283.4 244.25,-303.86 268,-321.5 272.57,-324.89 277.75,-327.64 283.14,-329.88"/>
<polygon fill="#63b8ff" stroke="#63b8ff" points="225.55,-257.22 215.02,-256.11 222.56,-263.55 225.55,-257.22"/>
</a>
</g>
</g>
<!-- Node13 -->
<g id="Node000013" class="node">
<title>Node13</title>
<g id="a_Node000013"><a xlink:href="classTagLib_1_1S3M_1_1File.html" target="_top" xlink:title="An implementation of TagLib::File with S3M specific methods.">
<polygon fill="white" stroke="#666666" points="381,-312 283,-312 283,-293 381,-293 381,-312"/>
<text text-anchor="middle" x="332" y="-300" font-family="Helvetica,sans-Serif" font-size="10.00">TagLib::S3M::File</text>
</a>
</g>
</g>
<!-- Node10&#45;&gt;Node13 -->
<g id="edge12_Node000010_Node000013" class="edge">
<title>Node10&#45;&gt;Node13</title>
<g id="a_edge12_Node000010_Node000013"><a xlink:title=" ">
<path fill="none" stroke="#63b8ff" d="M215.02,-259.17C220.79,-261.13 226.58,-263.25 232,-265.5 248.71,-272.42 251.21,-277.76 268,-284.5 275.92,-287.68 284.6,-290.54 292.93,-293"/>
<polygon fill="#63b8ff" stroke="#63b8ff" points="215.97,-255.8 205.38,-256.04 213.81,-262.46 215.97,-255.8"/>
</a>
</g>
</g>
<!-- Node14 -->
<g id="Node000014" class="node">
<title>Node14</title>
<g id="a_Node000014"><a xlink:href="classTagLib_1_1XM_1_1File.html" target="_top" xlink:title="An implementation of TagLib::File with XM specific methods.">
<polygon fill="white" stroke="#666666" points="378,-275 286,-275 286,-256 378,-256 378,-275"/>
<text text-anchor="middle" x="332" y="-263" font-family="Helvetica,sans-Serif" font-size="10.00">TagLib::XM::File</text>
</a>
</g>
</g>
<!-- Node10&#45;&gt;Node14 -->
<g id="edge13_Node000010_Node000014" class="edge">
<title>Node10&#45;&gt;Node14</title>
<g id="a_edge13_Node000010_Node000014"><a xlink:title=" ">
<path fill="none" stroke="#63b8ff" d="M240.72,-254.81C256.08,-256.63 271.94,-258.51 285.99,-260.17"/>
<polygon fill="#63b8ff" stroke="#63b8ff" points="241.06,-251.33 230.72,-253.63 240.24,-258.28 241.06,-251.33"/>
</a>
</g>
</g>
<!-- Node16 -->
<g id="Node000016" class="node">
<title>Node16</title>
<g id="a_Node000016"><a xlink:href="classTagLib_1_1Ogg_1_1FLAC_1_1File.html" target="_top" xlink:title="An implementation of TagLib::File with Ogg/FLAC specific methods.">
<polygon fill="white" stroke="#666666" points="396,-238 268,-238 268,-219 396,-219 396,-238"/>
<text text-anchor="middle" x="332" y="-226" font-family="Helvetica,sans-Serif" font-size="10.00">TagLib::Ogg::FLAC::File</text>
</a>
</g>
</g>
<!-- Node15&#45;&gt;Node16 -->
<g id="edge15_Node000015_Node000016" class="edge">
<title>Node15&#45;&gt;Node16</title>
<g id="a_edge15_Node000015_Node000016"><a xlink:title=" ">
<path fill="none" stroke="#63b8ff" d="M227.98,-216.3C240.95,-217.84 254.79,-219.48 267.98,-221.04"/>
<polygon fill="#63b8ff" stroke="#63b8ff" points="228.13,-212.8 217.79,-215.1 227.31,-219.75 228.13,-212.8"/>
</a>
</g>
</g>
<!-- Node17 -->
<g id="Node000017" class="node">
<title>Node17</title>
<g id="a_Node000017"><a xlink:href="classTagLib_1_1Ogg_1_1Opus_1_1File.html" target="_top" xlink:title="An implementation of Ogg::File with Opus specific methods.">
<polygon fill="white" stroke="#666666" points="395.5,-201 268.5,-201 268.5,-182 395.5,-182 395.5,-201"/>
<text text-anchor="middle" x="332" y="-189" font-family="Helvetica,sans-Serif" font-size="10.00">TagLib::Ogg::Opus::File</text>
</a>
</g>
</g>
<!-- Node15&#45;&gt;Node17 -->
<g id="edge16_Node000015_Node000017" class="edge">
<title>Node15&#45;&gt;Node17</title>
<g id="a_edge16_Node000015_Node000017"><a xlink:title=" ">
<path fill="none" stroke="#63b8ff" d="M228.04,-203.05C241.09,-201.58 255.02,-200.02 268.28,-198.53"/>
<polygon fill="#63b8ff" stroke="#63b8ff" points="227.33,-199.6 217.79,-204.2 228.12,-206.56 227.33,-199.6"/>
</a>
</g>
</g>
<!-- Node18 -->
<g id="Node000018" class="node">
<title>Node18</title>
<g id="a_Node000018"><a xlink:href="classTagLib_1_1Ogg_1_1Speex_1_1File.html" target="_top" xlink:title="An implementation of Ogg::File with Speex specific methods.">
<polygon fill="white" stroke="#666666" points="386.5,-163.5 277.5,-163.5 277.5,-133.5 386.5,-133.5 386.5,-163.5"/>
<text text-anchor="start" x="285.5" y="-151.5" font-family="Helvetica,sans-Serif" font-size="10.00">TagLib::Ogg::Speex</text>
<text text-anchor="middle" x="332" y="-140.5" font-family="Helvetica,sans-Serif" font-size="10.00">::File</text>
</a>
</g>
</g>
<!-- Node15&#45;&gt;Node18 -->
<g id="edge17_Node000015_Node000018" class="edge">
<title>Node15&#45;&gt;Node18</title>
<g id="a_edge17_Node000015_Node000018"><a xlink:title=" ">
<path fill="none" stroke="#63b8ff" d="M216.84,-196.91C222,-195.22 227.14,-193.41 232,-191.5 248.65,-184.96 251.67,-180.81 268,-173.5 275.52,-170.14 283.64,-166.74 291.46,-163.59"/>
<polygon fill="#63b8ff" stroke="#63b8ff" points="215.46,-193.67 206.96,-200 217.55,-200.35 215.46,-193.67"/>
</a>
</g>
</g>
<!-- Node19 -->
<g id="Node000019" class="node">
<title>Node19</title>
<g id="a_Node000019"><a xlink:href="classTagLib_1_1Ogg_1_1Vorbis_1_1File.html" target="_top" xlink:title="An implementation of Ogg::File with Vorbis specific methods.">
<polygon fill="white" stroke="#666666" points="386.5,-115.5 277.5,-115.5 277.5,-85.5 386.5,-85.5 386.5,-115.5"/>
<text text-anchor="start" x="285.5" y="-103.5" font-family="Helvetica,sans-Serif" font-size="10.00">TagLib::Ogg::Vorbis</text>
<text text-anchor="middle" x="332" y="-92.5" font-family="Helvetica,sans-Serif" font-size="10.00">::File</text>
</a>
</g>
</g>
<!-- Node15&#45;&gt;Node19 -->
<g id="edge18_Node000015_Node000019" class="edge">
<title>Node15&#45;&gt;Node19</title>
<g id="a_edge18_Node000015_Node000019"><a xlink:title=" ">
<path fill="none" stroke="#63b8ff" d="M226.99,-195.09C228.74,-193.98 230.41,-192.79 232,-191.5 258.26,-170.21 242.61,-146.81 268,-124.5 271.87,-121.1 276.27,-118.16 280.9,-115.62"/>
<polygon fill="#63b8ff" stroke="#63b8ff" points="225,-192.19 217.8,-199.96 228.27,-198.37 225,-192.19"/>
</a>
</g>
</g>
<!-- Node21 -->
<g id="Node000021" class="node">
<title>Node21</title>
<g id="a_Node000021"><a xlink:href="classTagLib_1_1RIFF_1_1AIFF_1_1File.html" target="_top" xlink:title="An implementation of TagLib::File with AIFF specific methods.">
<polygon fill="white" stroke="#666666" points="383,-67.5 281,-67.5 281,-37.5 383,-37.5 383,-67.5"/>
<text text-anchor="start" x="289" y="-55.5" font-family="Helvetica,sans-Serif" font-size="10.00">TagLib::RIFF::AIFF</text>
<text text-anchor="middle" x="332" y="-44.5" font-family="Helvetica,sans-Serif" font-size="10.00">::File</text>
</a>
</g>
</g>
<!-- Node20&#45;&gt;Node21 -->
<g id="edge20_Node000020_Node000021" class="edge">
<title>Node20&#45;&gt;Node21</title>
<g id="a_edge20_Node000020_Node000021"><a xlink:title=" ">
<path fill="none" stroke="#63b8ff" d="M227.71,-157.8C229.2,-156.77 230.64,-155.67 232,-154.5 260.92,-129.57 240.09,-102.56 268,-76.5 271.76,-72.99 276.1,-69.97 280.69,-67.39"/>
<polygon fill="#63b8ff" stroke="#63b8ff" points="225.61,-154.96 218.62,-162.92 229.05,-161.06 225.61,-154.96"/>
</a>
</g>
</g>
<!-- Node22 -->
<g id="Node000022" class="node">
<title>Node22</title>
<g id="a_Node000022"><a xlink:href="classTagLib_1_1RIFF_1_1WAV_1_1File.html" target="_top" xlink:title="An implementation of TagLib::File with WAV specific methods.">
<polygon fill="white" stroke="#666666" points="394.5,-19 269.5,-19 269.5,0 394.5,0 394.5,-19"/>
<text text-anchor="middle" x="332" y="-7" font-family="Helvetica,sans-Serif" font-size="10.00">TagLib::RIFF::WAV::File</text>
</a>
</g>
</g>
<!-- Node20&#45;&gt;Node22 -->
<g id="edge21_Node000020_Node000022" class="edge">
<title>Node20&#45;&gt;Node22</title>
<g id="a_edge21_Node000020_Node000022"><a xlink:title=" ">
<path fill="none" stroke="#63b8ff" d="M227.37,-158.51C229.01,-157.28 230.56,-155.95 232,-154.5 273.05,-113.19 227.12,-69.98 268,-28.5 271.85,-24.59 276.47,-21.49 281.44,-19.01"/>
<polygon fill="#63b8ff" stroke="#63b8ff" points="225.33,-155.66 218.57,-163.81 228.94,-161.65 225.33,-155.66"/>
</a>
</g>
</g>
</g>
</svg>
