<?xml version="1.0" encoding="UTF-8" standalone="no"?>
<!DOCTYPE svg PUBLIC "-//W3C//DTD SVG 1.1//EN"
 "http://www.w3.org/Graphics/SVG/1.1/DTD/svg11.dtd">
<!-- Generated by graphviz version 2.43.0 (0)
 -->
<!-- Title: TagLib::ID3v2::UserTextIdentificationFrame Pages: 1 -->
<svg width="254pt" height="264pt"
 viewBox="0.00 0.00 253.50 264.00" xmlns="http://www.w3.org/2000/svg" xmlns:xlink="http://www.w3.org/1999/xlink">
<g id="graph0" class="graph" transform="scale(1 1) rotate(0) translate(4 260)">
<title>TagLib::ID3v2::UserTextIdentificationFrame</title>
<polygon fill="white" stroke="transparent" points="-4,4 -4,-260 249.5,-260 249.5,4 -4,4"/>
<!-- Node1 -->
<g id="node1" class="node">
<title>Node1</title>
<g id="a_node1"><a xlink:title="An ID3v2 custom text identification frame implementation.">
<polygon fill="#bfbfbf" stroke="black" points="24.5,-0.5 24.5,-30.5 218.5,-30.5 218.5,-0.5 24.5,-0.5"/>
<text text-anchor="start" x="32.5" y="-18.5" font-family="Helvetica,sans-Serif" font-size="10.00">TagLib::ID3v2::UserTextIdentification</text>
<text text-anchor="middle" x="121.5" y="-7.5" font-family="Helvetica,sans-Serif" font-size="10.00">Frame</text>
</a>
</g>
</g>
<!-- Node2 -->
<g id="node2" class="node">
<title>Node2</title>
<g id="a_node2"><a xlink:href="classTagLib_1_1ID3v2_1_1TextIdentificationFrame.html" target="_top" xlink:title="An ID3v2 text identification frame implementation.">
<polygon fill="white" stroke="black" points="35.5,-68.5 35.5,-98.5 207.5,-98.5 207.5,-68.5 35.5,-68.5"/>
<text text-anchor="start" x="43.5" y="-86.5" font-family="Helvetica,sans-Serif" font-size="10.00">TagLib::ID3v2::TextIdentification</text>
<text text-anchor="middle" x="121.5" y="-75.5" font-family="Helvetica,sans-Serif" font-size="10.00">Frame</text>
</a>
</g>
</g>
<!-- Node2&#45;&gt;Node1 -->
<g id="edge1" class="edge">
<title>Node2&#45;&gt;Node1</title>
<path fill="none" stroke="midnightblue" d="M121.5,-58.03C121.5,-48.86 121.5,-38.74 121.5,-30.79"/>
<polygon fill="midnightblue" stroke="midnightblue" points="118,-58.18 121.5,-68.18 125,-58.18 118,-58.18"/>
</g>
<!-- Node3 -->
<g id="node3" class="node">
<title>Node3</title>
<g id="a_node3"><a xlink:href="classTagLib_1_1ID3v2_1_1Frame.html" target="_top" xlink:title="ID3v2 frame implementation.">
<polygon fill="white" stroke="black" points="62,-136.5 62,-155.5 181,-155.5 181,-136.5 62,-136.5"/>
<text text-anchor="middle" x="121.5" y="-143.5" font-family="Helvetica,sans-Serif" font-size="10.00">TagLib::ID3v2::Frame</text>
</a>
</g>
</g>
<!-- Node3&#45;&gt;Node2 -->
<g id="edge2" class="edge">
<title>Node3&#45;&gt;Node2</title>
<path fill="none" stroke="midnightblue" d="M121.5,-126.22C121.5,-117.36 121.5,-106.96 121.5,-98.76"/>
<polygon fill="midnightblue" stroke="midnightblue" points="118,-126.33 121.5,-136.33 125,-126.33 118,-126.33"/>
</g>
<!-- Node4 -->
<g id="node4" class="node">
<title>Node4</title>
<g id="a_node4"><a xlink:href="classTagLib_1_1ID3v2_1_1Header.html" target="_top" xlink:title="An implementation of ID3v2 headers.">
<polygon fill="white" stroke="black" points="0,-236.5 0,-255.5 123,-255.5 123,-236.5 0,-236.5"/>
<text text-anchor="middle" x="61.5" y="-243.5" font-family="Helvetica,sans-Serif" font-size="10.00">TagLib::ID3v2::Header</text>
</a>
</g>
</g>
<!-- Node4&#45;&gt;Node3 -->
<g id="edge3" class="edge">
<title>Node4&#45;&gt;Node3</title>
<path fill="none" stroke="#8b1a1a" d="M72.11,-227.67C85.06,-206.52 106.45,-171.58 116.27,-155.54"/>
<polygon fill="#8b1a1a" stroke="#8b1a1a" points="69.06,-225.95 66.82,-236.3 75.03,-229.6 69.06,-225.95"/>
</g>
<!-- Node5 -->
<g id="node5" class="node">
<title>Node5</title>
<g id="a_node5"><a xlink:href="classTagLib_1_1String.html" target="_top" xlink:title="A wide string class suitable for unicode.">
<polygon fill="white" stroke="black" points="141.5,-236.5 141.5,-255.5 223.5,-255.5 223.5,-236.5 141.5,-236.5"/>
<text text-anchor="middle" x="182.5" y="-243.5" font-family="Helvetica,sans-Serif" font-size="10.00">TagLib::String</text>
</a>
</g>
</g>
<!-- Node5&#45;&gt;Node3 -->
<g id="edge4" class="edge">
<title>Node5&#45;&gt;Node3</title>
<path fill="none" stroke="#9a32cd" stroke-dasharray="5,2" d="M171.71,-227.67C158.55,-206.52 136.8,-171.58 126.81,-155.54"/>
<polygon fill="#9a32cd" stroke="#9a32cd" points="168.83,-229.66 177.09,-236.3 174.77,-225.96 168.83,-229.66"/>
<text text-anchor="middle" x="204.5" y="-210" font-family="Helvetica,sans-Serif" font-size="10.00"> commentPrefix</text>
<text text-anchor="middle" x="204.5" y="-199" font-family="Helvetica,sans-Serif" font-size="10.00">instrumentPrefix</text>
<text text-anchor="middle" x="204.5" y="-188" font-family="Helvetica,sans-Serif" font-size="10.00">lyricsPrefix</text>
<text text-anchor="middle" x="204.5" y="-177" font-family="Helvetica,sans-Serif" font-size="10.00">urlPrefix</text>
</g>
</g>
</svg>
