<?xml version="1.0" encoding="UTF-8" standalone="no"?>
<!DOCTYPE svg PUBLIC "-//W3C//DTD SVG 1.1//EN"
 "http://www.w3.org/Graphics/SVG/1.1/DTD/svg11.dtd">
<!-- Generated by graphviz version 2.46.1 (20210213.1702)
 -->
<!-- Title: TagLib::ID3v2::PodcastFrame Pages: 1 -->
<svg width="255pt" height="185pt"
 viewBox="0.00 0.00 255.00 185.00" xmlns="http://www.w3.org/2000/svg" xmlns:xlink="http://www.w3.org/1999/xlink">
<g id="graph0" class="graph" transform="scale(1 1) rotate(0) translate(4 181)">
<title>TagLib::ID3v2::PodcastFrame</title>
<polygon fill="white" stroke="transparent" points="-4,4 -4,-181 251,-181 251,4 -4,4"/>
<!-- Node1 -->
<g id="node1" class="node">
<title>Node1</title>
<g id="a_node1"><a xlink:title="ID3v2 podcast frame.">
<polygon fill="#bfbfbf" stroke="black" points="20,-0.5 20,-19.5 167,-19.5 167,-0.5 20,-0.5"/>
<text text-anchor="middle" x="93.5" y="-7.5" font-family="Helvetica,sans-Serif" font-size="10.00">TagLib::ID3v2::PodcastFrame</text>
</a>
</g>
</g>
<!-- Node2 -->
<g id="node2" class="node">
<title>Node2</title>
<g id="a_node2"><a xlink:href="classTagLib_1_1ID3v2_1_1Frame.html" target="_top" xlink:title="ID3v2 frame implementation.">
<polygon fill="white" stroke="black" points="38,-57.5 38,-76.5 149,-76.5 149,-57.5 38,-57.5"/>
<text text-anchor="middle" x="93.5" y="-64.5" font-family="Helvetica,sans-Serif" font-size="10.00">TagLib::ID3v2::Frame</text>
</a>
</g>
</g>
<!-- Node2&#45;&gt;Node1 -->
<g id="edge1" class="edge">
<title>Node2&#45;&gt;Node1</title>
<path fill="none" stroke="midnightblue" d="M93.5,-47.12C93.5,-37.82 93.5,-27.06 93.5,-19.71"/>
<polygon fill="midnightblue" stroke="midnightblue" points="90,-47.41 93.5,-57.41 97,-47.41 90,-47.41"/>
</g>
<!-- Node3 -->
<g id="node3" class="node">
<title>Node3</title>
<g id="a_node3"><a xlink:href="classTagLib_1_1ID3v2_1_1Header.html" target="_top" xlink:title="An implementation of ID3v2 headers.">
<polygon fill="white" stroke="black" points="0,-157.5 0,-176.5 115,-176.5 115,-157.5 0,-157.5"/>
<text text-anchor="middle" x="57.5" y="-164.5" font-family="Helvetica,sans-Serif" font-size="10.00">TagLib::ID3v2::Header</text>
</a>
</g>
</g>
<!-- Node3&#45;&gt;Node2 -->
<g id="edge2" class="edge">
<title>Node3&#45;&gt;Node2</title>
<path fill="none" stroke="#8b1a1a" d="M64.18,-147.81C71.98,-126.57 84.55,-92.36 90.36,-76.54"/>
<polygon fill="#8b1a1a" stroke="#8b1a1a" points="60.86,-146.71 60.69,-157.3 67.43,-149.12 60.86,-146.71"/>
</g>
<!-- Node4 -->
<g id="node4" class="node">
<title>Node4</title>
<g id="a_node4"><a xlink:href="classTagLib_1_1String.html" target="_top" xlink:title="A wide string class suitable for unicode.">
<polygon fill="white" stroke="black" points="133,-157.5 133,-176.5 210,-176.5 210,-157.5 133,-157.5"/>
<text text-anchor="middle" x="171.5" y="-164.5" font-family="Helvetica,sans-Serif" font-size="10.00">TagLib::String</text>
</a>
</g>
</g>
<!-- Node4&#45;&gt;Node2 -->
<g id="edge3" class="edge">
<title>Node4&#45;&gt;Node2</title>
<path fill="none" stroke="#9a32cd" stroke-dasharray="5,2" d="M158.16,-149.24C141.37,-128.15 113.18,-92.73 100.3,-76.54"/>
<polygon fill="#9a32cd" stroke="#9a32cd" points="155.61,-151.66 164.58,-157.3 161.09,-147.3 155.61,-151.66"/>
<text text-anchor="middle" x="183.5" y="-131" font-family="Helvetica,sans-Serif" font-size="10.00"> commentPrefix</text>
<text text-anchor="middle" x="183.5" y="-120" font-family="Helvetica,sans-Serif" font-size="10.00">instrumentPrefix</text>
<text text-anchor="middle" x="183.5" y="-109" font-family="Helvetica,sans-Serif" font-size="10.00">lyricsPrefix</text>
<text text-anchor="middle" x="183.5" y="-98" font-family="Helvetica,sans-Serif" font-size="10.00">urlPrefix</text>
</g>
<!-- Node4&#45;&gt;Node4 -->
<g id="edge4" class="edge">
<title>Node4&#45;&gt;Node4</title>
<path fill="none" stroke="#9a32cd" stroke-dasharray="5,2" d="M220.22,-174.61C224.98,-173.08 228,-170.54 228,-167 228,-161.34 220.27,-158.24 210.06,-157.71"/>
<polygon fill="#9a32cd" stroke="#9a32cd" points="219.35,-171.21 210.06,-176.29 220.49,-178.11 219.35,-171.21"/>
<text text-anchor="middle" x="237.5" y="-164.5" font-family="Helvetica,sans-Serif" font-size="10.00"> null</text>
</g>
</g>
</svg>
