<?xml version="1.0" encoding="UTF-8" standalone="no"?>
<!DOCTYPE svg PUBLIC "-//W3C//DTD SVG 1.1//EN"
 "http://www.w3.org/Graphics/SVG/1.1/DTD/svg11.dtd">
<!-- Generated by graphviz version 2.46.1 (20210213.1702)
 -->
<!-- Title: TagLib::RIFF::File Pages: 1 -->
<svg width="250pt" height="151pt"
 viewBox="0.00 0.00 249.50 151.00" xmlns="http://www.w3.org/2000/svg" xmlns:xlink="http://www.w3.org/1999/xlink">
<g id="graph0" class="graph" transform="scale(1 1) rotate(0) translate(4 147)">
<title>TagLib::RIFF::File</title>
<polygon fill="white" stroke="transparent" points="-4,4 -4,-147 245.5,-147 245.5,4 -4,4"/>
<!-- Node1 -->
<g id="node1" class="node">
<title>Node1</title>
<g id="a_node1"><a xlink:title="An RIFF file class with some useful methods specific to RIFF.">
<polygon fill="#bfbfbf" stroke="black" points="68,-67.5 68,-86.5 163,-86.5 163,-67.5 68,-67.5"/>
<text text-anchor="middle" x="115.5" y="-74.5" font-family="Helvetica,sans-Serif" font-size="10.00">TagLib::RIFF::File</text>
</a>
</g>
</g>
<!-- Node3 -->
<g id="node3" class="node">
<title>Node3</title>
<g id="a_node3"><a xlink:href="classTagLib_1_1RIFF_1_1AIFF_1_1File.html" target="_top" xlink:title="An implementation of TagLib::File with AIFF specific methods.">
<polygon fill="white" stroke="black" points="0,-0.5 0,-30.5 101,-30.5 101,-0.5 0,-0.5"/>
<text text-anchor="start" x="8" y="-18.5" font-family="Helvetica,sans-Serif" font-size="10.00">TagLib::RIFF::AIFF</text>
<text text-anchor="middle" x="50.5" y="-7.5" font-family="Helvetica,sans-Serif" font-size="10.00">::File</text>
</a>
</g>
</g>
<!-- Node1&#45;&gt;Node3 -->
<g id="edge2" class="edge">
<title>Node1&#45;&gt;Node3</title>
<path fill="none" stroke="midnightblue" d="M98.73,-60.65C88.57,-51.35 75.7,-39.57 65.82,-30.52"/>
<polygon fill="midnightblue" stroke="midnightblue" points="96.45,-63.3 106.19,-67.48 101.17,-58.14 96.45,-63.3"/>
</g>
<!-- Node4 -->
<g id="node4" class="node">
<title>Node4</title>
<g id="a_node4"><a xlink:href="classTagLib_1_1RIFF_1_1WAV_1_1File.html" target="_top" xlink:title="An implementation of TagLib::File with WAV specific methods.">
<polygon fill="white" stroke="black" points="119.5,-6 119.5,-25 241.5,-25 241.5,-6 119.5,-6"/>
<text text-anchor="middle" x="180.5" y="-13" font-family="Helvetica,sans-Serif" font-size="10.00">TagLib::RIFF::WAV::File</text>
</a>
</g>
</g>
<!-- Node1&#45;&gt;Node4 -->
<g id="edge3" class="edge">
<title>Node1&#45;&gt;Node4</title>
<path fill="none" stroke="midnightblue" d="M132.27,-60.65C144.66,-49.31 161.08,-34.28 171.2,-25.01"/>
<polygon fill="midnightblue" stroke="midnightblue" points="129.83,-58.14 124.81,-67.48 134.55,-63.3 129.83,-58.14"/>
</g>
<!-- Node2 -->
<g id="node2" class="node">
<title>Node2</title>
<g id="a_node2"><a xlink:href="classTagLib_1_1File.html" target="_top" xlink:title="A file class with some useful methods for tag manipulation.">
<polygon fill="white" stroke="black" points="82,-123.5 82,-142.5 149,-142.5 149,-123.5 82,-123.5"/>
<text text-anchor="middle" x="115.5" y="-130.5" font-family="Helvetica,sans-Serif" font-size="10.00">TagLib::File</text>
</a>
</g>
</g>
<!-- Node2&#45;&gt;Node1 -->
<g id="edge1" class="edge">
<title>Node2&#45;&gt;Node1</title>
<path fill="none" stroke="midnightblue" d="M115.5,-112.8C115.5,-103.91 115.5,-93.78 115.5,-86.75"/>
<polygon fill="midnightblue" stroke="midnightblue" points="112,-113.08 115.5,-123.08 119,-113.08 112,-113.08"/>
</g>
</g>
</svg>
