<?xml version="1.0" encoding="UTF-8" standalone="no"?>
<!DOCTYPE svg PUBLIC "-//W3C//DTD SVG 1.1//EN"
 "http://www.w3.org/Graphics/SVG/1.1/DTD/svg11.dtd">
<!-- Generated by graphviz version 2.42.4 (0)
 -->
<!-- Title: TagLib::MP4::ChapterHolder Pages: 1 -->
<svg width="332pt" height="82pt"
 viewBox="0.00 0.00 332.00 82.00" xmlns="http://www.w3.org/2000/svg" xmlns:xlink="http://www.w3.org/1999/xlink">
<g id="graph0" class="graph" transform="scale(1 1) rotate(0) translate(4 78)">
<title>TagLib::MP4::ChapterHolder</title>
<!-- Node1 -->
<g id="Node000001" class="node">
<title>Node1</title>
<g id="a_Node000001"><a xlink:title=" ">
<polygon fill="#999999" stroke="#666666" points="240,-74 89,-74 89,-55 240,-55 240,-74"/>
<text text-anchor="middle" x="164.5" y="-62" font-family="Helvetica,sans-Serif" font-size="10.00">TagLib::MP4::ChapterHolder</text>
</a>
</g>
</g>
<!-- Node2 -->
<g id="Node000002" class="node">
<title>Node2</title>
<g id="a_Node000002"><a xlink:href="classTagLib_1_1MP4_1_1NeroChapterList.html" target="_top" xlink:title=" ">
<polygon fill="white" stroke="#666666" points="159,-19 0,-19 0,0 159,0 159,-19"/>
<text text-anchor="middle" x="79.5" y="-7" font-family="Helvetica,sans-Serif" font-size="10.00">TagLib::MP4::NeroChapterList</text>
</a>
</g>
</g>
<!-- Node1&#45;&gt;Node2 -->
<g id="edge1_Node000001_Node000002" class="edge">
<title>Node1&#45;&gt;Node2</title>
<g id="a_edge1_Node000001_Node000002"><a xlink:title=" ">
<path fill="none" stroke="#63b8ff" d="M141.93,-49.42C126.5,-39.81 106.55,-27.37 93.41,-19.17"/>
<polygon fill="#63b8ff" stroke="#63b8ff" points="140.51,-52.66 150.84,-54.98 144.21,-46.72 140.51,-52.66"/>
</a>
</g>
</g>
<!-- Node3 -->
<g id="Node000003" class="node">
<title>Node3</title>
<g id="a_Node000003"><a xlink:href="classTagLib_1_1MP4_1_1QtChapterList.html" target="_top" xlink:title=" ">
<polygon fill="white" stroke="#666666" points="324,-19 177,-19 177,0 324,0 324,-19"/>
<text text-anchor="middle" x="250.5" y="-7" font-family="Helvetica,sans-Serif" font-size="10.00">TagLib::MP4::QtChapterList</text>
</a>
</g>
</g>
<!-- Node1&#45;&gt;Node3 -->
<g id="edge2_Node000001_Node000003" class="edge">
<title>Node1&#45;&gt;Node3</title>
<g id="a_edge2_Node000001_Node000003"><a xlink:title=" ">
<path fill="none" stroke="#63b8ff" d="M186.9,-49.7C202.57,-40.04 223.01,-27.44 236.43,-19.17"/>
<polygon fill="#63b8ff" stroke="#63b8ff" points="184.99,-46.76 178.32,-54.98 188.67,-52.72 184.99,-46.76"/>
</a>
</g>
</g>
</g>
</svg>
