<?xml version="1.0" encoding="UTF-8" standalone="no"?>
<!DOCTYPE svg PUBLIC "-//W3C//DTD SVG 1.1//EN"
 "http://www.w3.org/Graphics/SVG/1.1/DTD/svg11.dtd">
<!-- Generated by graphviz version 2.43.0 (0)
 -->
<!-- Title: TagLib::Ogg::File Pages: 1 -->
<svg width="375pt" height="165pt"
 viewBox="0.00 0.00 375.00 164.50" xmlns="http://www.w3.org/2000/svg" xmlns:xlink="http://www.w3.org/1999/xlink">
<g id="graph0" class="graph" transform="scale(1 1) rotate(0) translate(4 160.5)">
<title>TagLib::Ogg::File</title>
<polygon fill="white" stroke="transparent" points="-4,4 -4,-160.5 371,-160.5 371,4 -4,4"/>
<!-- Node1 -->
<g id="node1" class="node">
<title>Node1</title>
<g id="a_node1"><a xlink:title="An implementation of TagLib::File with some helpers for Ogg based formats.">
<polygon fill="#bfbfbf" stroke="black" points="107,-77 107,-96 203,-96 203,-77 107,-77"/>
<text text-anchor="middle" x="155" y="-84" font-family="Helvetica,sans-Serif" font-size="10.00">TagLib::Ogg::File</text>
</a>
</g>
</g>
<!-- Node3 -->
<g id="node3" class="node">
<title>Node3</title>
<g id="a_node3"><a xlink:href="classTagLib_1_1Ogg_1_1FLAC_1_1File.html" target="_top" xlink:title="An implementation of TagLib::File with Ogg/FLAC specific methods.">
<polygon fill="white" stroke="black" points="239,-137 239,-156 367,-156 367,-137 239,-137"/>
<text text-anchor="middle" x="303" y="-144" font-family="Helvetica,sans-Serif" font-size="10.00">TagLib::Ogg::FLAC::File</text>
</a>
</g>
</g>
<!-- Node1&#45;&gt;Node3 -->
<g id="edge2" class="edge">
<title>Node1&#45;&gt;Node3</title>
<path fill="none" stroke="midnightblue" d="M182.25,-100.87C198.33,-109.31 219.5,-119.81 239,-127.5 247.82,-130.98 257.54,-134.2 266.66,-136.97"/>
<polygon fill="midnightblue" stroke="midnightblue" points="183.9,-97.78 173.42,-96.17 180.61,-103.96 183.9,-97.78"/>
</g>
<!-- Node4 -->
<g id="node4" class="node">
<title>Node4</title>
<g id="a_node4"><a xlink:href="classTagLib_1_1Ogg_1_1Opus_1_1File.html" target="_top" xlink:title="An implementation of Ogg::File with Opus specific methods.">
<polygon fill="white" stroke="black" points="239.5,-99 239.5,-118 366.5,-118 366.5,-99 239.5,-99"/>
<text text-anchor="middle" x="303" y="-106" font-family="Helvetica,sans-Serif" font-size="10.00">TagLib::Ogg::Opus::File</text>
</a>
</g>
</g>
<!-- Node1&#45;&gt;Node4 -->
<g id="edge3" class="edge">
<title>Node1&#45;&gt;Node4</title>
<path fill="none" stroke="midnightblue" d="M213.3,-95.13C221.87,-96.43 230.75,-97.76 239.42,-99.07"/>
<polygon fill="midnightblue" stroke="midnightblue" points="213.81,-91.67 203.4,-93.64 212.77,-98.59 213.81,-91.67"/>
</g>
<!-- Node5 -->
<g id="node5" class="node">
<title>Node5</title>
<g id="a_node5"><a xlink:href="classTagLib_1_1Ogg_1_1Speex_1_1File.html" target="_top" xlink:title="An implementation of Ogg::File with Speex specific methods.">
<polygon fill="white" stroke="black" points="248.5,-49.5 248.5,-79.5 357.5,-79.5 357.5,-49.5 248.5,-49.5"/>
<text text-anchor="start" x="256.5" y="-67.5" font-family="Helvetica,sans-Serif" font-size="10.00">TagLib::Ogg::Speex</text>
<text text-anchor="middle" x="303" y="-56.5" font-family="Helvetica,sans-Serif" font-size="10.00">::File</text>
</a>
</g>
</g>
<!-- Node1&#45;&gt;Node5 -->
<g id="edge4" class="edge">
<title>Node1&#45;&gt;Node5</title>
<path fill="none" stroke="midnightblue" d="M213.34,-77.86C224.84,-76.13 236.88,-74.31 248.25,-72.6"/>
<polygon fill="midnightblue" stroke="midnightblue" points="212.77,-74.41 203.4,-79.36 213.81,-81.33 212.77,-74.41"/>
</g>
<!-- Node6 -->
<g id="node6" class="node">
<title>Node6</title>
<g id="a_node6"><a xlink:href="classTagLib_1_1Ogg_1_1Vorbis_1_1File.html" target="_top" xlink:title="An implementation of Ogg::File with Vorbis specific methods.">
<polygon fill="white" stroke="black" points="248.5,-0.5 248.5,-30.5 357.5,-30.5 357.5,-0.5 248.5,-0.5"/>
<text text-anchor="start" x="256.5" y="-18.5" font-family="Helvetica,sans-Serif" font-size="10.00">TagLib::Ogg::Vorbis</text>
<text text-anchor="middle" x="303" y="-7.5" font-family="Helvetica,sans-Serif" font-size="10.00">::File</text>
</a>
</g>
</g>
<!-- Node1&#45;&gt;Node6 -->
<g id="edge5" class="edge">
<title>Node1&#45;&gt;Node6</title>
<path fill="none" stroke="midnightblue" d="M180.09,-71.57C196.39,-61.8 218.58,-49.1 239,-39.5 245.67,-36.36 252.88,-33.31 259.95,-30.5"/>
<polygon fill="midnightblue" stroke="midnightblue" points="177.97,-68.77 171.23,-76.95 181.6,-74.75 177.97,-68.77"/>
</g>
<!-- Node2 -->
<g id="node2" class="node">
<title>Node2</title>
<g id="a_node2"><a xlink:href="classTagLib_1_1File.html" target="_top" xlink:title="A file class with some useful methods for tag manipulation.">
<polygon fill="white" stroke="black" points="0,-77 0,-96 71,-96 71,-77 0,-77"/>
<text text-anchor="middle" x="35.5" y="-84" font-family="Helvetica,sans-Serif" font-size="10.00">TagLib::File</text>
</a>
</g>
</g>
<!-- Node2&#45;&gt;Node1 -->
<g id="edge1" class="edge">
<title>Node2&#45;&gt;Node1</title>
<path fill="none" stroke="midnightblue" d="M81.32,-86.5C89.58,-86.5 98.23,-86.5 106.57,-86.5"/>
<polygon fill="midnightblue" stroke="midnightblue" points="81.12,-83 71.12,-86.5 81.12,-90 81.12,-83"/>
</g>
</g>
</svg>
