<?xml version="1.0" encoding="UTF-8" standalone="no"?>
<!DOCTYPE svg PUBLIC "-//W3C//DTD SVG 1.1//EN"
 "http://www.w3.org/Graphics/SVG/1.1/DTD/svg11.dtd">
<!-- Generated by graphviz version 2.46.1 (20210213.1702)
 -->
<!-- Title: TagLib::File Pages: 1 -->
<svg width="386pt" height="508pt"
 viewBox="0.00 0.00 386.00 508.00" xmlns="http://www.w3.org/2000/svg" xmlns:xlink="http://www.w3.org/1999/xlink">
<g id="graph0" class="graph" transform="scale(1 1) rotate(0) translate(4 504)">
<title>TagLib::File</title>
<polygon fill="white" stroke="transparent" points="-4,4 -4,-504 382,-504 382,4 -4,4"/>
<!-- Node1 -->
<g id="node1" class="node">
<title>Node1</title>
<g id="a_node1"><a xlink:title="A file class with some useful methods for tag manipulation.">
<polygon fill="#bfbfbf" stroke="black" points="0,-290.5 0,-309.5 67,-309.5 67,-290.5 0,-290.5"/>
<text text-anchor="middle" x="33.5" y="-297.5" font-family="Helvetica,sans-Serif" font-size="10.00">TagLib::File</text>
</a>
</g>
</g>
<!-- Node2 -->
<g id="node2" class="node">
<title>Node2</title>
<g id="a_node2"><a xlink:href="classTagLib_1_1APE_1_1File.html" target="_top" xlink:title="An implementation of TagLib::File with APE specific methods.">
<polygon fill="white" stroke="black" points="115,-480.5 115,-499.5 208,-499.5 208,-480.5 115,-480.5"/>
<text text-anchor="middle" x="161.5" y="-487.5" font-family="Helvetica,sans-Serif" font-size="10.00">TagLib::APE::File</text>
</a>
</g>
</g>
<!-- Node1&#45;&gt;Node2 -->
<g id="edge1" class="edge">
<title>Node1&#45;&gt;Node2</title>
<path fill="none" stroke="midnightblue" d="M36.95,-319.72C42.37,-355.04 58.63,-429.3 103,-471 107.14,-474.89 112.09,-477.98 117.32,-480.44"/>
<polygon fill="midnightblue" stroke="midnightblue" points="40.4,-319.13 35.55,-309.71 33.47,-320.1 40.4,-319.13"/>
</g>
<!-- Node3 -->
<g id="node3" class="node">
<title>Node3</title>
<g id="a_node3"><a xlink:href="classTagLib_1_1ASF_1_1File.html" target="_top" xlink:title=" ">
<polygon fill="white" stroke="black" points="115.5,-442.5 115.5,-461.5 207.5,-461.5 207.5,-442.5 115.5,-442.5"/>
<text text-anchor="middle" x="161.5" y="-449.5" font-family="Helvetica,sans-Serif" font-size="10.00">TagLib::ASF::File</text>
</a>
</g>
</g>
<!-- Node1&#45;&gt;Node3 -->
<g id="edge2" class="edge">
<title>Node1&#45;&gt;Node3</title>
<path fill="none" stroke="midnightblue" d="M39.38,-319.32C47.65,-348.16 67.11,-402.33 103,-433 107.56,-436.89 112.93,-439.99 118.54,-442.46"/>
<polygon fill="midnightblue" stroke="midnightblue" points="42.75,-318.35 36.75,-309.61 35.99,-320.18 42.75,-318.35"/>
</g>
<!-- Node4 -->
<g id="node4" class="node">
<title>Node4</title>
<g id="a_node4"><a xlink:href="classTagLib_1_1FLAC_1_1File.html" target="_top" xlink:title="An implementation of TagLib::File with FLAC specific methods.">
<polygon fill="white" stroke="black" points="112.5,-404.5 112.5,-423.5 210.5,-423.5 210.5,-404.5 112.5,-404.5"/>
<text text-anchor="middle" x="161.5" y="-411.5" font-family="Helvetica,sans-Serif" font-size="10.00">TagLib::FLAC::File</text>
</a>
</g>
</g>
<!-- Node1&#45;&gt;Node4 -->
<g id="edge3" class="edge">
<title>Node1&#45;&gt;Node4</title>
<path fill="none" stroke="midnightblue" d="M43.38,-318.67C54.47,-340.06 75.39,-374.76 103,-395 108.26,-398.85 114.34,-401.96 120.54,-404.44"/>
<polygon fill="midnightblue" stroke="midnightblue" points="46.46,-317 38.87,-309.62 40.2,-320.13 46.46,-317"/>
</g>
<!-- Node5 -->
<g id="node5" class="node">
<title>Node5</title>
<g id="a_node5"><a xlink:href="classTagLib_1_1MP4_1_1File.html" target="_top" xlink:title=" ">
<polygon fill="white" stroke="black" points="115,-366.5 115,-385.5 208,-385.5 208,-366.5 115,-366.5"/>
<text text-anchor="middle" x="161.5" y="-373.5" font-family="Helvetica,sans-Serif" font-size="10.00">TagLib::MP4::File</text>
</a>
</g>
</g>
<!-- Node1&#45;&gt;Node5 -->
<g id="edge4" class="edge">
<title>Node1&#45;&gt;Node5</title>
<path fill="none" stroke="midnightblue" d="M51.15,-316.95C64.26,-329.49 83.51,-346.18 103,-357 109.71,-360.72 117.27,-363.87 124.65,-366.46"/>
<polygon fill="midnightblue" stroke="midnightblue" points="53.43,-314.28 43.84,-309.78 48.52,-319.28 53.43,-314.28"/>
</g>
<!-- Node6 -->
<g id="node6" class="node">
<title>Node6</title>
<g id="a_node6"><a xlink:href="classTagLib_1_1MPC_1_1File.html" target="_top" xlink:title="An implementation of TagLib::File with MPC specific methods.">
<polygon fill="white" stroke="black" points="114,-328.5 114,-347.5 209,-347.5 209,-328.5 114,-328.5"/>
<text text-anchor="middle" x="161.5" y="-335.5" font-family="Helvetica,sans-Serif" font-size="10.00">TagLib::MPC::File</text>
</a>
</g>
</g>
<!-- Node1&#45;&gt;Node6 -->
<g id="edge5" class="edge">
<title>Node1&#45;&gt;Node6</title>
<path fill="none" stroke="midnightblue" d="M76.06,-312.54C93.21,-317.7 112.75,-323.6 128.72,-328.41"/>
<polygon fill="midnightblue" stroke="midnightblue" points="76.88,-309.13 66.3,-309.59 74.86,-315.83 76.88,-309.13"/>
</g>
<!-- Node7 -->
<g id="node7" class="node">
<title>Node7</title>
<g id="a_node7"><a xlink:href="classTagLib_1_1MPEG_1_1File.html" target="_top" xlink:title="An MPEG file class with some useful methods specific to MPEG.">
<polygon fill="white" stroke="black" points="110.5,-290.5 110.5,-309.5 212.5,-309.5 212.5,-290.5 110.5,-290.5"/>
<text text-anchor="middle" x="161.5" y="-297.5" font-family="Helvetica,sans-Serif" font-size="10.00">TagLib::MPEG::File</text>
</a>
</g>
</g>
<!-- Node1&#45;&gt;Node7 -->
<g id="edge6" class="edge">
<title>Node1&#45;&gt;Node7</title>
<path fill="none" stroke="midnightblue" d="M77.5,-300C88.05,-300 99.44,-300 110.3,-300"/>
<polygon fill="midnightblue" stroke="midnightblue" points="77.28,-296.5 67.28,-300 77.28,-303.5 77.28,-296.5"/>
</g>
<!-- Node8 -->
<g id="node8" class="node">
<title>Node8</title>
<g id="a_node8"><a xlink:href="classTagLib_1_1Mod_1_1FileBase.html" target="_top" xlink:title=" ">
<polygon fill="white" stroke="black" points="104.5,-252.5 104.5,-271.5 218.5,-271.5 218.5,-252.5 104.5,-252.5"/>
<text text-anchor="middle" x="161.5" y="-259.5" font-family="Helvetica,sans-Serif" font-size="10.00">TagLib::Mod::FileBase</text>
</a>
</g>
</g>
<!-- Node1&#45;&gt;Node8 -->
<g id="edge7" class="edge">
<title>Node1&#45;&gt;Node8</title>
<path fill="none" stroke="midnightblue" d="M76.06,-287.46C93.21,-282.3 112.75,-276.4 128.72,-271.59"/>
<polygon fill="midnightblue" stroke="midnightblue" points="74.86,-284.17 66.3,-290.41 76.88,-290.87 74.86,-284.17"/>
</g>
<!-- Node13 -->
<g id="node13" class="node">
<title>Node13</title>
<g id="a_node13"><a xlink:href="classTagLib_1_1Ogg_1_1File.html" target="_top" xlink:title="An implementation of TagLib::File with some helpers for Ogg based formats.">
<polygon fill="white" stroke="black" points="116,-195.5 116,-214.5 207,-214.5 207,-195.5 116,-195.5"/>
<text text-anchor="middle" x="161.5" y="-202.5" font-family="Helvetica,sans-Serif" font-size="10.00">TagLib::Ogg::File</text>
</a>
</g>
</g>
<!-- Node1&#45;&gt;Node13 -->
<g id="edge12" class="edge">
<title>Node1&#45;&gt;Node13</title>
<path fill="none" stroke="midnightblue" d="M53.01,-283.65C66.55,-271.93 85.52,-255.99 103,-243 116.83,-232.72 133.3,-221.98 145.05,-214.56"/>
<polygon fill="midnightblue" stroke="midnightblue" points="50.58,-281.12 45.35,-290.33 55.19,-286.4 50.58,-281.12"/>
</g>
<!-- Node18 -->
<g id="node18" class="node">
<title>Node18</title>
<g id="a_node18"><a xlink:href="classTagLib_1_1RIFF_1_1File.html" target="_top" xlink:title="An RIFF file class with some useful methods specific to RIFF.">
<polygon fill="white" stroke="black" points="114,-157.5 114,-176.5 209,-176.5 209,-157.5 114,-157.5"/>
<text text-anchor="middle" x="161.5" y="-164.5" font-family="Helvetica,sans-Serif" font-size="10.00">TagLib::RIFF::File</text>
</a>
</g>
</g>
<!-- Node1&#45;&gt;Node18 -->
<g id="edge17" class="edge">
<title>Node1&#45;&gt;Node18</title>
<path fill="none" stroke="midnightblue" d="M41.11,-280.94C50.81,-255.68 71.28,-211.36 103,-186 107.84,-182.13 113.51,-179.03 119.36,-176.56"/>
<polygon fill="midnightblue" stroke="midnightblue" points="37.76,-279.89 37.61,-290.49 44.34,-282.3 37.76,-279.89"/>
</g>
<!-- Node21 -->
<g id="node21" class="node">
<title>Node21</title>
<g id="a_node21"><a xlink:href="classTagLib_1_1TrueAudio_1_1File.html" target="_top" xlink:title="An implementation of TagLib::File with TrueAudio specific methods.">
<polygon fill="white" stroke="black" points="103,-119.5 103,-138.5 220,-138.5 220,-119.5 103,-119.5"/>
<text text-anchor="middle" x="161.5" y="-126.5" font-family="Helvetica,sans-Serif" font-size="10.00">TagLib::TrueAudio::File</text>
</a>
</g>
</g>
<!-- Node1&#45;&gt;Node21 -->
<g id="edge20" class="edge">
<title>Node1&#45;&gt;Node21</title>
<path fill="none" stroke="midnightblue" d="M38.08,-280.24C44.95,-247.99 62.99,-184.05 103,-148 107.3,-144.13 112.4,-141.05 117.77,-138.59"/>
<polygon fill="midnightblue" stroke="midnightblue" points="34.62,-279.73 36.1,-290.22 41.48,-281.09 34.62,-279.73"/>
</g>
<!-- Node22 -->
<g id="node22" class="node">
<title>Node22</title>
<g id="a_node22"><a xlink:href="classTagLib_1_1WavPack_1_1File.html" target="_top" xlink:title="An implementation of TagLib::File with WavPack specific methods.">
<polygon fill="white" stroke="black" points="104,-81.5 104,-100.5 219,-100.5 219,-81.5 104,-81.5"/>
<text text-anchor="middle" x="161.5" y="-88.5" font-family="Helvetica,sans-Serif" font-size="10.00">TagLib::WavPack::File</text>
</a>
</g>
</g>
<!-- Node1&#45;&gt;Node22 -->
<g id="edge21" class="edge">
<title>Node1&#45;&gt;Node22</title>
<path fill="none" stroke="midnightblue" d="M36.09,-279.74C40.19,-241.25 54.5,-157.21 103,-110 106.99,-106.11 111.8,-103.02 116.91,-100.56"/>
<polygon fill="midnightblue" stroke="midnightblue" points="32.57,-279.85 35.12,-290.13 39.54,-280.5 32.57,-279.85"/>
</g>
<!-- Node9 -->
<g id="node9" class="node">
<title>Node9</title>
<g id="a_node9"><a xlink:href="classTagLib_1_1IT_1_1File.html" target="_top" xlink:title=" ">
<polygon fill="white" stroke="black" points="277,-376.5 277,-395.5 357,-395.5 357,-376.5 277,-376.5"/>
<text text-anchor="middle" x="317" y="-383.5" font-family="Helvetica,sans-Serif" font-size="10.00">TagLib::IT::File</text>
</a>
</g>
</g>
<!-- Node8&#45;&gt;Node9 -->
<g id="edge8" class="edge">
<title>Node8&#45;&gt;Node9</title>
<path fill="none" stroke="midnightblue" d="M214.56,-276.68C216.48,-278 218.31,-279.43 220,-281 250.41,-309.15 225.42,-339.04 256,-367 261.89,-372.38 269.3,-376.24 276.88,-379"/>
<polygon fill="midnightblue" stroke="midnightblue" points="216.05,-273.5 205.62,-271.62 212.6,-279.59 216.05,-273.5"/>
</g>
<!-- Node10 -->
<g id="node10" class="node">
<title>Node10</title>
<g id="a_node10"><a xlink:href="classTagLib_1_1Mod_1_1File.html" target="_top" xlink:title=" ">
<polygon fill="white" stroke="black" points="271,-338.5 271,-357.5 363,-357.5 363,-338.5 271,-338.5"/>
<text text-anchor="middle" x="317" y="-345.5" font-family="Helvetica,sans-Serif" font-size="10.00">TagLib::Mod::File</text>
</a>
</g>
</g>
<!-- Node8&#45;&gt;Node10 -->
<g id="edge9" class="edge">
<title>Node8&#45;&gt;Node10</title>
<path fill="none" stroke="midnightblue" d="M211.4,-275.75C214.41,-277.32 217.31,-279.07 220,-281 241.65,-296.56 234.25,-313.57 256,-329 261.44,-332.86 267.69,-335.95 274.06,-338.43"/>
<polygon fill="midnightblue" stroke="midnightblue" points="212.65,-272.47 202.1,-271.52 209.75,-278.85 212.65,-272.47"/>
</g>
<!-- Node11 -->
<g id="node11" class="node">
<title>Node11</title>
<g id="a_node11"><a xlink:href="classTagLib_1_1S3M_1_1File.html" target="_top" xlink:title=" ">
<polygon fill="white" stroke="black" points="270.5,-300.5 270.5,-319.5 363.5,-319.5 363.5,-300.5 270.5,-300.5"/>
<text text-anchor="middle" x="317" y="-307.5" font-family="Helvetica,sans-Serif" font-size="10.00">TagLib::S3M::File</text>
</a>
</g>
</g>
<!-- Node8&#45;&gt;Node11 -->
<g id="edge10" class="edge">
<title>Node8&#45;&gt;Node11</title>
<path fill="none" stroke="midnightblue" d="M203.06,-274.68C228.86,-282.75 261.74,-293.03 285.36,-300.42"/>
<polygon fill="midnightblue" stroke="midnightblue" points="203.78,-271.24 193.19,-271.6 201.69,-277.92 203.78,-271.24"/>
</g>
<!-- Node12 -->
<g id="node12" class="node">
<title>Node12</title>
<g id="a_node12"><a xlink:href="classTagLib_1_1XM_1_1File.html" target="_top" xlink:title=" ">
<polygon fill="white" stroke="black" points="273,-262.5 273,-281.5 361,-281.5 361,-262.5 273,-262.5"/>
<text text-anchor="middle" x="317" y="-269.5" font-family="Helvetica,sans-Serif" font-size="10.00">TagLib::XM::File</text>
</a>
</g>
</g>
<!-- Node8&#45;&gt;Node12 -->
<g id="edge11" class="edge">
<title>Node8&#45;&gt;Node12</title>
<path fill="none" stroke="midnightblue" d="M228.94,-266.33C243.76,-267.29 259.1,-268.29 272.71,-269.18"/>
<polygon fill="midnightblue" stroke="midnightblue" points="228.99,-262.82 218.79,-265.67 228.54,-269.81 228.99,-262.82"/>
</g>
<!-- Node14 -->
<g id="node14" class="node">
<title>Node14</title>
<g id="a_node14"><a xlink:href="classTagLib_1_1Ogg_1_1FLAC_1_1File.html" target="_top" xlink:title="An implementation of TagLib::File with Ogg/FLAC specific methods.">
<polygon fill="white" stroke="black" points="256,-224.5 256,-243.5 378,-243.5 378,-224.5 256,-224.5"/>
<text text-anchor="middle" x="317" y="-231.5" font-family="Helvetica,sans-Serif" font-size="10.00">TagLib::Ogg::FLAC::File</text>
</a>
</g>
</g>
<!-- Node13&#45;&gt;Node14 -->
<g id="edge13" class="edge">
<title>Node13&#45;&gt;Node14</title>
<path fill="none" stroke="midnightblue" d="M217.39,-215.37C233.07,-218.33 250.07,-221.54 265.47,-224.45"/>
<polygon fill="midnightblue" stroke="midnightblue" points="217.79,-211.88 207.31,-213.47 216.49,-218.76 217.79,-211.88"/>
</g>
<!-- Node15 -->
<g id="node15" class="node">
<title>Node15</title>
<g id="a_node15"><a xlink:href="classTagLib_1_1Ogg_1_1Opus_1_1File.html" target="_top" xlink:title="An implementation of Ogg::File with Opus specific methods.">
<polygon fill="white" stroke="black" points="257,-186.5 257,-205.5 377,-205.5 377,-186.5 257,-186.5"/>
<text text-anchor="middle" x="317" y="-193.5" font-family="Helvetica,sans-Serif" font-size="10.00">TagLib::Ogg::Opus::File</text>
</a>
</g>
</g>
<!-- Node13&#45;&gt;Node15 -->
<g id="edge14" class="edge">
<title>Node13&#45;&gt;Node15</title>
<path fill="none" stroke="midnightblue" d="M217.36,-201.78C230.17,-201.03 243.87,-200.23 256.85,-199.47"/>
<polygon fill="midnightblue" stroke="midnightblue" points="217.09,-198.29 207.31,-202.37 217.5,-205.28 217.09,-198.29"/>
</g>
<!-- Node16 -->
<g id="node16" class="node">
<title>Node16</title>
<g id="a_node16"><a xlink:href="classTagLib_1_1Ogg_1_1Speex_1_1File.html" target="_top" xlink:title="An implementation of Ogg::File with Speex specific methods.">
<polygon fill="white" stroke="black" points="265.5,-137 265.5,-167 368.5,-167 368.5,-137 265.5,-137"/>
<text text-anchor="start" x="273.5" y="-155" font-family="Helvetica,sans-Serif" font-size="10.00">TagLib::Ogg::Speex</text>
<text text-anchor="middle" x="317" y="-144" font-family="Helvetica,sans-Serif" font-size="10.00">::File</text>
</a>
</g>
</g>
<!-- Node13&#45;&gt;Node16 -->
<g id="edge15" class="edge">
<title>Node13&#45;&gt;Node16</title>
<path fill="none" stroke="midnightblue" d="M201.39,-192.27C207.62,-190.2 213.99,-188.06 220,-186 237.73,-179.93 257.24,-173.06 274.01,-167.09"/>
<polygon fill="midnightblue" stroke="midnightblue" points="200.18,-188.99 191.79,-195.45 202.39,-195.63 200.18,-188.99"/>
</g>
<!-- Node17 -->
<g id="node17" class="node">
<title>Node17</title>
<g id="a_node17"><a xlink:href="classTagLib_1_1Ogg_1_1Vorbis_1_1File.html" target="_top" xlink:title="An implementation of Ogg::File with Vorbis specific methods.">
<polygon fill="white" stroke="black" points="265.5,-88 265.5,-118 368.5,-118 368.5,-88 265.5,-88"/>
<text text-anchor="start" x="273.5" y="-106" font-family="Helvetica,sans-Serif" font-size="10.00">TagLib::Ogg::Vorbis</text>
<text text-anchor="middle" x="317" y="-95" font-family="Helvetica,sans-Serif" font-size="10.00">::File</text>
</a>
</g>
</g>
<!-- Node13&#45;&gt;Node17 -->
<g id="edge16" class="edge">
<title>Node13&#45;&gt;Node17</title>
<path fill="none" stroke="midnightblue" d="M212.68,-190.91C215.25,-189.43 217.72,-187.8 220,-186 243.83,-167.23 232.89,-147.66 256,-128 260.47,-124.2 265.6,-120.91 270.93,-118.08"/>
<polygon fill="midnightblue" stroke="midnightblue" points="211.02,-187.83 203.59,-195.38 214.11,-194.11 211.02,-187.83"/>
</g>
<!-- Node19 -->
<g id="node19" class="node">
<title>Node19</title>
<g id="a_node19"><a xlink:href="classTagLib_1_1RIFF_1_1AIFF_1_1File.html" target="_top" xlink:title="An implementation of TagLib::File with AIFF specific methods.">
<polygon fill="white" stroke="black" points="266.5,-39 266.5,-69 367.5,-69 367.5,-39 266.5,-39"/>
<text text-anchor="start" x="274.5" y="-57" font-family="Helvetica,sans-Serif" font-size="10.00">TagLib::RIFF::AIFF</text>
<text text-anchor="middle" x="317" y="-46" font-family="Helvetica,sans-Serif" font-size="10.00">::File</text>
</a>
</g>
</g>
<!-- Node18&#45;&gt;Node19 -->
<g id="edge18" class="edge">
<title>Node18&#45;&gt;Node19</title>
<path fill="none" stroke="midnightblue" d="M213.59,-152.66C215.85,-151.25 218,-149.7 220,-148 246.35,-125.6 230.51,-102.38 256,-79 260.16,-75.19 264.98,-71.91 270.05,-69.1"/>
<polygon fill="midnightblue" stroke="midnightblue" points="211.68,-149.7 204.44,-157.44 214.92,-155.91 211.68,-149.7"/>
</g>
<!-- Node20 -->
<g id="node20" class="node">
<title>Node20</title>
<g id="a_node20"><a xlink:href="classTagLib_1_1RIFF_1_1WAV_1_1File.html" target="_top" xlink:title="An implementation of TagLib::File with WAV specific methods.">
<polygon fill="white" stroke="black" points="256,-0.5 256,-19.5 378,-19.5 378,-0.5 256,-0.5"/>
<text text-anchor="middle" x="317" y="-7.5" font-family="Helvetica,sans-Serif" font-size="10.00">TagLib::RIFF::WAV::File</text>
</a>
</g>
</g>
<!-- Node18&#45;&gt;Node20 -->
<g id="edge19" class="edge">
<title>Node18&#45;&gt;Node20</title>
<path fill="none" stroke="midnightblue" d="M215.39,-152.07C217.02,-150.82 218.57,-149.47 220,-148 258.57,-108.44 217.18,-68.32 256,-29 259.84,-25.11 264.47,-22.02 269.43,-19.56"/>
<polygon fill="midnightblue" stroke="midnightblue" points="213.26,-149.27 206.58,-157.49 216.93,-155.23 213.26,-149.27"/>
</g>
</g>
</svg>
