<?xml version="1.0" encoding="UTF-8" standalone="no"?>
<!DOCTYPE svg PUBLIC "-//W3C//DTD SVG 1.1//EN"
 "http://www.w3.org/Graphics/SVG/1.1/DTD/svg11.dtd">
<!-- Generated by graphviz version 2.46.1 (20210213.1702)
 -->
<!-- Title: TagLib::ID3v2::UserUrlLinkFrame Pages: 1 -->
<svg width="255pt" height="253pt"
 viewBox="0.00 0.00 255.00 253.00" xmlns="http://www.w3.org/2000/svg" xmlns:xlink="http://www.w3.org/1999/xlink">
<g id="graph0" class="graph" transform="scale(1 1) rotate(0) translate(4 249)">
<title>TagLib::ID3v2::UserUrlLinkFrame</title>
<polygon fill="white" stroke="transparent" points="-4,4 -4,-249 251,-249 251,4 -4,4"/>
<!-- Node1 -->
<g id="node1" class="node">
<title>Node1</title>
<g id="a_node1"><a xlink:title="ID3v2 User defined URL frame.">
<polygon fill="#bfbfbf" stroke="black" points="26,-0.5 26,-30.5 161,-30.5 161,-0.5 26,-0.5"/>
<text text-anchor="start" x="34" y="-18.5" font-family="Helvetica,sans-Serif" font-size="10.00">TagLib::ID3v2::UserUrlLink</text>
<text text-anchor="middle" x="93.5" y="-7.5" font-family="Helvetica,sans-Serif" font-size="10.00">Frame</text>
</a>
</g>
</g>
<!-- Node2 -->
<g id="node2" class="node">
<title>Node2</title>
<g id="a_node2"><a xlink:href="classTagLib_1_1ID3v2_1_1UrlLinkFrame.html" target="_top" xlink:title="ID3v2 URL frame.">
<polygon fill="white" stroke="black" points="22.5,-68.5 22.5,-87.5 164.5,-87.5 164.5,-68.5 22.5,-68.5"/>
<text text-anchor="middle" x="93.5" y="-75.5" font-family="Helvetica,sans-Serif" font-size="10.00">TagLib::ID3v2::UrlLinkFrame</text>
</a>
</g>
</g>
<!-- Node2&#45;&gt;Node1 -->
<g id="edge1" class="edge">
<title>Node2&#45;&gt;Node1</title>
<path fill="none" stroke="midnightblue" d="M93.5,-58.22C93.5,-49.36 93.5,-38.96 93.5,-30.76"/>
<polygon fill="midnightblue" stroke="midnightblue" points="90,-58.33 93.5,-68.33 97,-58.33 90,-58.33"/>
</g>
<!-- Node3 -->
<g id="node3" class="node">
<title>Node3</title>
<g id="a_node3"><a xlink:href="classTagLib_1_1ID3v2_1_1Frame.html" target="_top" xlink:title="ID3v2 frame implementation.">
<polygon fill="white" stroke="black" points="38,-125.5 38,-144.5 149,-144.5 149,-125.5 38,-125.5"/>
<text text-anchor="middle" x="93.5" y="-132.5" font-family="Helvetica,sans-Serif" font-size="10.00">TagLib::ID3v2::Frame</text>
</a>
</g>
</g>
<!-- Node3&#45;&gt;Node2 -->
<g id="edge2" class="edge">
<title>Node3&#45;&gt;Node2</title>
<path fill="none" stroke="midnightblue" d="M93.5,-115.12C93.5,-105.82 93.5,-95.06 93.5,-87.71"/>
<polygon fill="midnightblue" stroke="midnightblue" points="90,-115.41 93.5,-125.41 97,-115.41 90,-115.41"/>
</g>
<!-- Node4 -->
<g id="node4" class="node">
<title>Node4</title>
<g id="a_node4"><a xlink:href="classTagLib_1_1ID3v2_1_1Header.html" target="_top" xlink:title="An implementation of ID3v2 headers.">
<polygon fill="white" stroke="black" points="0,-225.5 0,-244.5 115,-244.5 115,-225.5 0,-225.5"/>
<text text-anchor="middle" x="57.5" y="-232.5" font-family="Helvetica,sans-Serif" font-size="10.00">TagLib::ID3v2::Header</text>
</a>
</g>
</g>
<!-- Node4&#45;&gt;Node3 -->
<g id="edge3" class="edge">
<title>Node4&#45;&gt;Node3</title>
<path fill="none" stroke="#8b1a1a" d="M64.18,-215.81C71.98,-194.57 84.55,-160.36 90.36,-144.54"/>
<polygon fill="#8b1a1a" stroke="#8b1a1a" points="60.86,-214.71 60.69,-225.3 67.43,-217.12 60.86,-214.71"/>
</g>
<!-- Node5 -->
<g id="node5" class="node">
<title>Node5</title>
<g id="a_node5"><a xlink:href="classTagLib_1_1String.html" target="_top" xlink:title="A wide string class suitable for unicode.">
<polygon fill="white" stroke="black" points="133,-225.5 133,-244.5 210,-244.5 210,-225.5 133,-225.5"/>
<text text-anchor="middle" x="171.5" y="-232.5" font-family="Helvetica,sans-Serif" font-size="10.00">TagLib::String</text>
</a>
</g>
</g>
<!-- Node5&#45;&gt;Node3 -->
<g id="edge4" class="edge">
<title>Node5&#45;&gt;Node3</title>
<path fill="none" stroke="#9a32cd" stroke-dasharray="5,2" d="M158.16,-217.24C141.37,-196.15 113.18,-160.73 100.3,-144.54"/>
<polygon fill="#9a32cd" stroke="#9a32cd" points="155.61,-219.66 164.58,-225.3 161.09,-215.3 155.61,-219.66"/>
<text text-anchor="middle" x="183.5" y="-199" font-family="Helvetica,sans-Serif" font-size="10.00"> commentPrefix</text>
<text text-anchor="middle" x="183.5" y="-188" font-family="Helvetica,sans-Serif" font-size="10.00">instrumentPrefix</text>
<text text-anchor="middle" x="183.5" y="-177" font-family="Helvetica,sans-Serif" font-size="10.00">lyricsPrefix</text>
<text text-anchor="middle" x="183.5" y="-166" font-family="Helvetica,sans-Serif" font-size="10.00">urlPrefix</text>
</g>
<!-- Node5&#45;&gt;Node5 -->
<g id="edge5" class="edge">
<title>Node5&#45;&gt;Node5</title>
<path fill="none" stroke="#9a32cd" stroke-dasharray="5,2" d="M220.22,-242.61C224.98,-241.08 228,-238.54 228,-235 228,-229.34 220.27,-226.24 210.06,-225.71"/>
<polygon fill="#9a32cd" stroke="#9a32cd" points="219.35,-239.21 210.06,-244.29 220.49,-246.11 219.35,-239.21"/>
<text text-anchor="middle" x="237.5" y="-232.5" font-family="Helvetica,sans-Serif" font-size="10.00"> null</text>
</g>
</g>
</svg>
