<?xml version="1.0" encoding="UTF-8" standalone="no"?>
<!DOCTYPE svg PUBLIC "-//W3C//DTD SVG 1.1//EN"
 "http://www.w3.org/Graphics/SVG/1.1/DTD/svg11.dtd">
<!-- Generated by graphviz version 2.42.4 (0)
 -->
<!-- Title: TagLib::StringList Pages: 1 -->
<svg width="130pt" height="149pt"
 viewBox="0.00 0.00 130.00 149.00" xmlns="http://www.w3.org/2000/svg" xmlns:xlink="http://www.w3.org/1999/xlink">
<g id="graph0" class="graph" transform="scale(1 1) rotate(0) translate(4 145)">
<title>TagLib::StringList</title>
<!-- Node1 -->
<g id="Node000001" class="node">
<title>Node1</title>
<g id="a_Node000001"><a xlink:title="A list of strings.">
<polygon fill="#999999" stroke="#666666" points="110.5,-19 11.5,-19 11.5,0 110.5,0 110.5,-19"/>
<text text-anchor="middle" x="61" y="-7" font-family="Helvetica,sans-Serif" font-size="10.00">TagLib::StringList</text>
</a>
</g>
</g>
<!-- Node2 -->
<g id="Node000002" class="node">
<title>Node2</title>
<g id="a_Node000002"><a xlink:href="classTagLib_1_1List.html" target="_top" xlink:title=" ">
<polygon fill="white" stroke="#666666" points="122,-75 0,-75 0,-56 122,-56 122,-75"/>
<text text-anchor="middle" x="61" y="-63" font-family="Helvetica,sans-Serif" font-size="10.00">TagLib::List&lt; String &gt;</text>
</a>
</g>
</g>
<!-- Node2&#45;&gt;Node1 -->
<g id="edge1_Node000001_Node000002" class="edge">
<title>Node2&#45;&gt;Node1</title>
<g id="a_edge1_Node000001_Node000002"><a xlink:title=" ">
<path fill="none" stroke="#63b8ff" d="M61,-45.3C61,-36.41 61,-26.28 61,-19.25"/>
<polygon fill="#63b8ff" stroke="#63b8ff" points="57.5,-45.58 61,-55.58 64.5,-45.58 57.5,-45.58"/>
</a>
</g>
</g>
<!-- Node3 -->
<g id="Node000003" class="node">
<title>Node3</title>
<g id="a_Node000003"><a xlink:href="classTagLib_1_1List.html" target="_top" xlink:title="A generic, implicitly shared list.">
<polygon fill="white" stroke="#666666" points="110.5,-141 11.5,-141 11.5,-122 110.5,-122 110.5,-141"/>
<text text-anchor="middle" x="61" y="-129" font-family="Helvetica,sans-Serif" font-size="10.00">TagLib::List&lt; T &gt;</text>
</a>
</g>
</g>
<!-- Node3&#45;&gt;Node2 -->
<g id="edge2_Node000002_Node000003" class="edge">
<title>Node3&#45;&gt;Node2</title>
<g id="a_edge2_Node000002_Node000003"><a xlink:title=" ">
<path fill="none" stroke="orange" stroke-dasharray="5,2" d="M61,-111.58C61,-99.63 61,-84.72 61,-75.41"/>
<polygon fill="orange" stroke="orange" points="57.5,-111.87 61,-121.87 64.5,-111.87 57.5,-111.87"/>
</a>
</g>
<text text-anchor="middle" x="88.5" y="-96" font-family="Helvetica,sans-Serif" font-size="10.00" fill="grey"> &lt; String &gt;</text>
</g>
</g>
</svg>
