<?xml version="1.0" encoding="UTF-8" standalone="no"?>
<!DOCTYPE svg PUBLIC "-//W3C//DTD SVG 1.1//EN"
 "http://www.w3.org/Graphics/SVG/1.1/DTD/svg11.dtd">
<!-- Generated by graphviz version 2.42.4 (0)
 -->
<!-- Title: TagLib::FLAC::MetadataBlock Pages: 1 -->
<svg width="322pt" height="93pt"
 viewBox="0.00 0.00 322.00 93.00" xmlns="http://www.w3.org/2000/svg" xmlns:xlink="http://www.w3.org/1999/xlink">
<g id="graph0" class="graph" transform="scale(1 1) rotate(0) translate(4 89)">
<title>TagLib::FLAC::MetadataBlock</title>
<!-- Node1 -->
<g id="Node000001" class="node">
<title>Node1</title>
<g id="a_Node000001"><a xlink:title="FLAC metadata block.">
<polygon fill="#999999" stroke="#666666" points="221.5,-85 63.5,-85 63.5,-66 221.5,-66 221.5,-85"/>
<text text-anchor="middle" x="142.5" y="-73" font-family="Helvetica,sans-Serif" font-size="10.00">TagLib::FLAC::MetadataBlock</text>
</a>
</g>
</g>
<!-- Node2 -->
<g id="Node000002" class="node">
<title>Node2</title>
<g id="a_Node000002"><a xlink:href="classTagLib_1_1FLAC_1_1Picture.html" target="_top" xlink:title="FLAC picture.">
<polygon fill="white" stroke="#666666" points="119,-24.5 0,-24.5 0,-5.5 119,-5.5 119,-24.5"/>
<text text-anchor="middle" x="59.5" y="-12.5" font-family="Helvetica,sans-Serif" font-size="10.00">TagLib::FLAC::Picture</text>
</a>
</g>
</g>
<!-- Node1&#45;&gt;Node2 -->
<g id="edge1_Node000001_Node000002" class="edge">
<title>Node1&#45;&gt;Node2</title>
<g id="a_edge1_Node000001_Node000002"><a xlink:title=" ">
<path fill="none" stroke="#63b8ff" d="M121.71,-59.85C105.99,-48.77 84.94,-33.93 71.8,-24.67"/>
<polygon fill="#63b8ff" stroke="#63b8ff" points="120.06,-62.97 130.25,-65.87 124.1,-57.25 120.06,-62.97"/>
</a>
</g>
</g>
<!-- Node3 -->
<g id="Node000003" class="node">
<title>Node3</title>
<g id="a_Node000003"><a xlink:href="classTagLib_1_1FLAC_1_1UnknownMetadataBlock.html" target="_top" xlink:title="Unknown FLAC metadata block.">
<polygon fill="white" stroke="#666666" points="314,-30 137,-30 137,0 314,0 314,-30"/>
<text text-anchor="start" x="145" y="-18" font-family="Helvetica,sans-Serif" font-size="10.00">TagLib::FLAC::UnknownMetadata</text>
<text text-anchor="middle" x="225.5" y="-7" font-family="Helvetica,sans-Serif" font-size="10.00">Block</text>
</a>
</g>
</g>
<!-- Node1&#45;&gt;Node3 -->
<g id="edge2_Node000001_Node000003" class="edge">
<title>Node1&#45;&gt;Node3</title>
<g id="a_edge2_Node000001_Node000003"><a xlink:title=" ">
<path fill="none" stroke="#63b8ff" d="M163.03,-60.03C175.98,-50.9 192.62,-39.17 205.47,-30.11"/>
<polygon fill="#63b8ff" stroke="#63b8ff" points="160.9,-57.25 154.75,-65.87 164.94,-62.97 160.9,-57.25"/>
</a>
</g>
</g>
</g>
</svg>
