<?xml version="1.0" encoding="UTF-8" standalone="no"?>
<!DOCTYPE svg PUBLIC "-//W3C//DTD SVG 1.1//EN"
 "http://www.w3.org/Graphics/SVG/1.1/DTD/svg11.dtd">
<!-- Generated by graphviz version 2.46.1 (20210213.1702)
 -->
<!-- Title: TagLib::ID3v2::UnsynchronizedLyricsFrame Pages: 1 -->
<svg width="162pt" height="151pt"
 viewBox="0.00 0.00 162.00 151.00" xmlns="http://www.w3.org/2000/svg" xmlns:xlink="http://www.w3.org/1999/xlink">
<g id="graph0" class="graph" transform="scale(1 1) rotate(0) translate(4 147)">
<title>TagLib::ID3v2::UnsynchronizedLyricsFrame</title>
<polygon fill="white" stroke="transparent" points="-4,4 -4,-147 158,-147 158,4 -4,4"/>
<!-- Node1 -->
<g id="node1" class="node">
<title>Node1</title>
<g id="a_node1"><a xlink:title="ID3v2 unsynchronized lyrics frame.">
<polygon fill="#bfbfbf" stroke="black" points="0,-0.5 0,-30.5 154,-30.5 154,-0.5 0,-0.5"/>
<text text-anchor="start" x="8" y="-18.5" font-family="Helvetica,sans-Serif" font-size="10.00">TagLib::ID3v2::Unsynchronized</text>
<text text-anchor="middle" x="77" y="-7.5" font-family="Helvetica,sans-Serif" font-size="10.00">LyricsFrame</text>
</a>
</g>
</g>
<!-- Node2 -->
<g id="node2" class="node">
<title>Node2</title>
<g id="a_node2"><a xlink:href="classTagLib_1_1ID3v2_1_1Frame.html" target="_top" xlink:title="ID3v2 frame implementation.">
<polygon fill="white" stroke="black" points="21.5,-67.5 21.5,-86.5 132.5,-86.5 132.5,-67.5 21.5,-67.5"/>
<text text-anchor="middle" x="77" y="-74.5" font-family="Helvetica,sans-Serif" font-size="10.00">TagLib::ID3v2::Frame</text>
</a>
</g>
</g>
<!-- Node2&#45;&gt;Node1 -->
<g id="edge1" class="edge">
<title>Node2&#45;&gt;Node1</title>
<path fill="none" stroke="midnightblue" d="M77,-57.23C77,-48.59 77,-38.5 77,-30.52"/>
<polygon fill="midnightblue" stroke="midnightblue" points="73.5,-57.48 77,-67.48 80.5,-57.48 73.5,-57.48"/>
</g>
<!-- Node3 -->
<g id="node3" class="node">
<title>Node3</title>
<g id="a_node3"><a xlink:href="classTagLib_1_1ID3v2_1_1Header.html" target="_top" xlink:title="An implementation of ID3v2 headers.">
<polygon fill="white" stroke="black" points="19.5,-123.5 19.5,-142.5 134.5,-142.5 134.5,-123.5 19.5,-123.5"/>
<text text-anchor="middle" x="77" y="-130.5" font-family="Helvetica,sans-Serif" font-size="10.00">TagLib::ID3v2::Header</text>
</a>
</g>
</g>
<!-- Node3&#45;&gt;Node2 -->
<g id="edge2" class="edge">
<title>Node3&#45;&gt;Node2</title>
<path fill="none" stroke="#8b1a1a" d="M77,-112.8C77,-103.91 77,-93.78 77,-86.75"/>
<polygon fill="#8b1a1a" stroke="#8b1a1a" points="73.5,-113.08 77,-123.08 80.5,-113.08 73.5,-113.08"/>
</g>
</g>
</svg>
