<?xml version="1.0" encoding="UTF-8" standalone="no"?>
<!DOCTYPE svg PUBLIC "-//W3C//DTD SVG 1.1//EN"
 "http://www.w3.org/Graphics/SVG/1.1/DTD/svg11.dtd">
<!-- Generated by graphviz version 2.43.0 (0)
 -->
<!-- Title: TagLib::ID3v2::UserTextIdentificationFrame Pages: 1 -->
<svg width="291pt" height="264pt"
 viewBox="0.00 0.00 291.00 264.00" xmlns="http://www.w3.org/2000/svg" xmlns:xlink="http://www.w3.org/1999/xlink">
<g id="graph0" class="graph" transform="scale(1 1) rotate(0) translate(4 260)">
<title>TagLib::ID3v2::UserTextIdentificationFrame</title>
<polygon fill="white" stroke="transparent" points="-4,4 -4,-260 287,-260 287,4 -4,4"/>
<!-- Node1 -->
<g id="node1" class="node">
<title>Node1</title>
<g id="a_node1"><a xlink:title="An ID3v2 custom text identification frame implementation.">
<polygon fill="#bfbfbf" stroke="black" points="0,-0.5 0,-30.5 194,-30.5 194,-0.5 0,-0.5"/>
<text text-anchor="start" x="8" y="-18.5" font-family="Helvetica,sans-Serif" font-size="10.00">TagLib::ID3v2::UserTextIdentification</text>
<text text-anchor="middle" x="97" y="-7.5" font-family="Helvetica,sans-Serif" font-size="10.00">Frame</text>
</a>
</g>
</g>
<!-- Node2 -->
<g id="node2" class="node">
<title>Node2</title>
<g id="a_node2"><a xlink:href="classTagLib_1_1ID3v2_1_1TextIdentificationFrame.html" target="_top" xlink:title="An ID3v2 text identification frame implementation.">
<polygon fill="white" stroke="black" points="11,-68.5 11,-98.5 183,-98.5 183,-68.5 11,-68.5"/>
<text text-anchor="start" x="19" y="-86.5" font-family="Helvetica,sans-Serif" font-size="10.00">TagLib::ID3v2::TextIdentification</text>
<text text-anchor="middle" x="97" y="-75.5" font-family="Helvetica,sans-Serif" font-size="10.00">Frame</text>
</a>
</g>
</g>
<!-- Node2&#45;&gt;Node1 -->
<g id="edge1" class="edge">
<title>Node2&#45;&gt;Node1</title>
<path fill="none" stroke="midnightblue" d="M97,-58.03C97,-48.86 97,-38.74 97,-30.79"/>
<polygon fill="midnightblue" stroke="midnightblue" points="93.5,-58.18 97,-68.18 100.5,-58.18 93.5,-58.18"/>
</g>
<!-- Node3 -->
<g id="node3" class="node">
<title>Node3</title>
<g id="a_node3"><a xlink:href="classTagLib_1_1ID3v2_1_1Frame.html" target="_top" xlink:title="ID3v2 frame implementation.">
<polygon fill="white" stroke="black" points="37.5,-136.5 37.5,-155.5 156.5,-155.5 156.5,-136.5 37.5,-136.5"/>
<text text-anchor="middle" x="97" y="-143.5" font-family="Helvetica,sans-Serif" font-size="10.00">TagLib::ID3v2::Frame</text>
</a>
</g>
</g>
<!-- Node3&#45;&gt;Node2 -->
<g id="edge2" class="edge">
<title>Node3&#45;&gt;Node2</title>
<path fill="none" stroke="midnightblue" d="M97,-126.22C97,-117.36 97,-106.96 97,-98.76"/>
<polygon fill="midnightblue" stroke="midnightblue" points="93.5,-126.33 97,-136.33 100.5,-126.33 93.5,-126.33"/>
</g>
<!-- Node4 -->
<g id="node4" class="node">
<title>Node4</title>
<g id="a_node4"><a xlink:href="classTagLib_1_1ID3v2_1_1Header.html" target="_top" xlink:title="An implementation of ID3v2 headers.">
<polygon fill="white" stroke="black" points="19.5,-236.5 19.5,-255.5 142.5,-255.5 142.5,-236.5 19.5,-236.5"/>
<text text-anchor="middle" x="81" y="-243.5" font-family="Helvetica,sans-Serif" font-size="10.00">TagLib::ID3v2::Header</text>
</a>
</g>
</g>
<!-- Node4&#45;&gt;Node3 -->
<g id="edge3" class="edge">
<title>Node4&#45;&gt;Node3</title>
<path fill="none" stroke="#8b1a1a" d="M84.07,-226.22C87.54,-204.95 93.05,-171.22 95.61,-155.54"/>
<polygon fill="#8b1a1a" stroke="#8b1a1a" points="80.58,-225.87 82.42,-236.3 87.49,-227 80.58,-225.87"/>
</g>
<!-- Node5 -->
<g id="node5" class="node">
<title>Node5</title>
<g id="a_node5"><a xlink:href="classTagLib_1_1String.html" target="_top" xlink:title="A wide string class suitable for unicode.">
<polygon fill="white" stroke="black" points="161,-236.5 161,-255.5 243,-255.5 243,-236.5 161,-236.5"/>
<text text-anchor="middle" x="202" y="-243.5" font-family="Helvetica,sans-Serif" font-size="10.00">TagLib::String</text>
</a>
</g>
</g>
<!-- Node5&#45;&gt;Node3 -->
<g id="edge4" class="edge">
<title>Node5&#45;&gt;Node3</title>
<path fill="none" stroke="#9a32cd" stroke-dasharray="5,2" d="M185.24,-229.35C162.8,-208.42 123.8,-172.01 106.15,-155.54"/>
<polygon fill="#9a32cd" stroke="#9a32cd" points="182.98,-232.04 192.68,-236.3 187.76,-226.92 182.98,-232.04"/>
<text text-anchor="middle" x="211" y="-210" font-family="Helvetica,sans-Serif" font-size="10.00"> commentPrefix</text>
<text text-anchor="middle" x="211" y="-199" font-family="Helvetica,sans-Serif" font-size="10.00">instrumentPrefix</text>
<text text-anchor="middle" x="211" y="-188" font-family="Helvetica,sans-Serif" font-size="10.00">lyricsPrefix</text>
<text text-anchor="middle" x="211" y="-177" font-family="Helvetica,sans-Serif" font-size="10.00">urlPrefix</text>
</g>
<!-- Node5&#45;&gt;Node5 -->
<g id="edge5" class="edge">
<title>Node5&#45;&gt;Node5</title>
<path fill="none" stroke="#9a32cd" stroke-dasharray="5,2" d="M253.26,-253.49C258.01,-251.95 261,-249.45 261,-246 261,-240.48 253.34,-237.4 243.08,-236.75"/>
<polygon fill="#9a32cd" stroke="#9a32cd" points="252.34,-250.1 243.08,-255.25 253.53,-257 252.34,-250.1"/>
<text text-anchor="middle" x="272" y="-243.5" font-family="Helvetica,sans-Serif" font-size="10.00"> null</text>
</g>
</g>
</svg>
