<?xml version="1.0" encoding="UTF-8" standalone="no"?>
<!DOCTYPE svg PUBLIC "-//W3C//DTD SVG 1.1//EN"
 "http://www.w3.org/Graphics/SVG/1.1/DTD/svg11.dtd">
<!-- Generated by graphviz version 2.42.4 (0)
 -->
<!-- Title: TagLib::ByteVectorList Pages: 1 -->
<svg width="160pt" height="149pt"
 viewBox="0.00 0.00 160.00 149.00" xmlns="http://www.w3.org/2000/svg" xmlns:xlink="http://www.w3.org/1999/xlink">
<g id="graph0" class="graph" transform="scale(1 1) rotate(0) translate(4 145)">
<title>TagLib::ByteVectorList</title>
<!-- Node1 -->
<g id="Node000001" class="node">
<title>Node1</title>
<g id="a_Node000001"><a xlink:title="A list of ByteVectors.">
<polygon fill="#999999" stroke="#666666" points="135,-19 11,-19 11,0 135,0 135,-19"/>
<text text-anchor="middle" x="73" y="-7" font-family="Helvetica,sans-Serif" font-size="10.00">TagLib::ByteVectorList</text>
</a>
</g>
</g>
<!-- Node2 -->
<g id="Node000002" class="node">
<title>Node2</title>
<g id="a_Node000002"><a xlink:href="classTagLib_1_1List.html" target="_top" xlink:title=" ">
<polygon fill="white" stroke="#666666" points="146,-75 0,-75 0,-56 146,-56 146,-75"/>
<text text-anchor="middle" x="73" y="-63" font-family="Helvetica,sans-Serif" font-size="10.00">TagLib::List&lt; ByteVector &gt;</text>
</a>
</g>
</g>
<!-- Node2&#45;&gt;Node1 -->
<g id="edge1_Node000001_Node000002" class="edge">
<title>Node2&#45;&gt;Node1</title>
<g id="a_edge1_Node000001_Node000002"><a xlink:title=" ">
<path fill="none" stroke="#63b8ff" d="M73,-45.3C73,-36.41 73,-26.28 73,-19.25"/>
<polygon fill="#63b8ff" stroke="#63b8ff" points="69.5,-45.58 73,-55.58 76.5,-45.58 69.5,-45.58"/>
</a>
</g>
</g>
<!-- Node3 -->
<g id="Node000003" class="node">
<title>Node3</title>
<g id="a_Node000003"><a xlink:href="classTagLib_1_1List.html" target="_top" xlink:title="A generic, implicitly shared list.">
<polygon fill="white" stroke="#666666" points="122.5,-141 23.5,-141 23.5,-122 122.5,-122 122.5,-141"/>
<text text-anchor="middle" x="73" y="-129" font-family="Helvetica,sans-Serif" font-size="10.00">TagLib::List&lt; T &gt;</text>
</a>
</g>
</g>
<!-- Node3&#45;&gt;Node2 -->
<g id="edge2_Node000002_Node000003" class="edge">
<title>Node3&#45;&gt;Node2</title>
<g id="a_edge2_Node000002_Node000003"><a xlink:title=" ">
<path fill="none" stroke="orange" stroke-dasharray="5,2" d="M73,-111.58C73,-99.63 73,-84.72 73,-75.41"/>
<polygon fill="orange" stroke="orange" points="69.5,-111.87 73,-121.87 76.5,-111.87 69.5,-111.87"/>
</a>
</g>
<text text-anchor="middle" x="112.5" y="-96" font-family="Helvetica,sans-Serif" font-size="10.00" fill="grey"> &lt; ByteVector &gt;</text>
</g>
</g>
</svg>
