<?xml version="1.0" encoding="UTF-8" standalone="no"?>
<!DOCTYPE svg PUBLIC "-//W3C//DTD SVG 1.1//EN"
 "http://www.w3.org/Graphics/SVG/1.1/DTD/svg11.dtd">
<!-- Generated by graphviz version 2.43.0 (0)
 -->
<!-- Title: TagLib::ID3v2::PodcastFrame Pages: 1 -->
<svg width="273pt" height="185pt"
 viewBox="0.00 0.00 272.50 185.00" xmlns="http://www.w3.org/2000/svg" xmlns:xlink="http://www.w3.org/1999/xlink">
<g id="graph0" class="graph" transform="scale(1 1) rotate(0) translate(4 181)">
<title>TagLib::ID3v2::PodcastFrame</title>
<polygon fill="white" stroke="transparent" points="-4,4 -4,-181 268.5,-181 268.5,4 -4,4"/>
<!-- Node1 -->
<g id="node1" class="node">
<title>Node1</title>
<g id="a_node1"><a xlink:title="ID3v2 podcast frame.">
<polygon fill="#bfbfbf" stroke="black" points="0,-0.5 0,-19.5 157,-19.5 157,-0.5 0,-0.5"/>
<text text-anchor="middle" x="78.5" y="-7.5" font-family="Helvetica,sans-Serif" font-size="10.00">TagLib::ID3v2::PodcastFrame</text>
</a>
</g>
</g>
<!-- Node2 -->
<g id="node2" class="node">
<title>Node2</title>
<g id="a_node2"><a xlink:href="classTagLib_1_1ID3v2_1_1Frame.html" target="_top" xlink:title="ID3v2 frame implementation.">
<polygon fill="white" stroke="black" points="19,-57.5 19,-76.5 138,-76.5 138,-57.5 19,-57.5"/>
<text text-anchor="middle" x="78.5" y="-64.5" font-family="Helvetica,sans-Serif" font-size="10.00">TagLib::ID3v2::Frame</text>
</a>
</g>
</g>
<!-- Node2&#45;&gt;Node1 -->
<g id="edge1" class="edge">
<title>Node2&#45;&gt;Node1</title>
<path fill="none" stroke="midnightblue" d="M78.5,-47.12C78.5,-37.82 78.5,-27.06 78.5,-19.71"/>
<polygon fill="midnightblue" stroke="midnightblue" points="75,-47.41 78.5,-57.41 82,-47.41 75,-47.41"/>
</g>
<!-- Node3 -->
<g id="node3" class="node">
<title>Node3</title>
<g id="a_node3"><a xlink:href="classTagLib_1_1ID3v2_1_1Header.html" target="_top" xlink:title="An implementation of ID3v2 headers.">
<polygon fill="white" stroke="black" points="1,-157.5 1,-176.5 124,-176.5 124,-157.5 1,-157.5"/>
<text text-anchor="middle" x="62.5" y="-164.5" font-family="Helvetica,sans-Serif" font-size="10.00">TagLib::ID3v2::Header</text>
</a>
</g>
</g>
<!-- Node3&#45;&gt;Node2 -->
<g id="edge2" class="edge">
<title>Node3&#45;&gt;Node2</title>
<path fill="none" stroke="#8b1a1a" d="M65.57,-147.22C69.04,-125.95 74.55,-92.22 77.11,-76.54"/>
<polygon fill="#8b1a1a" stroke="#8b1a1a" points="62.08,-146.87 63.92,-157.3 68.99,-148 62.08,-146.87"/>
</g>
<!-- Node4 -->
<g id="node4" class="node">
<title>Node4</title>
<g id="a_node4"><a xlink:href="classTagLib_1_1String.html" target="_top" xlink:title="A wide string class suitable for unicode.">
<polygon fill="white" stroke="black" points="142.5,-157.5 142.5,-176.5 224.5,-176.5 224.5,-157.5 142.5,-157.5"/>
<text text-anchor="middle" x="183.5" y="-164.5" font-family="Helvetica,sans-Serif" font-size="10.00">TagLib::String</text>
</a>
</g>
</g>
<!-- Node4&#45;&gt;Node2 -->
<g id="edge3" class="edge">
<title>Node4&#45;&gt;Node2</title>
<path fill="none" stroke="#9a32cd" stroke-dasharray="5,2" d="M166.74,-150.35C144.3,-129.42 105.3,-93.01 87.65,-76.54"/>
<polygon fill="#9a32cd" stroke="#9a32cd" points="164.48,-153.04 174.18,-157.3 169.26,-147.92 164.48,-153.04"/>
<text text-anchor="middle" x="192.5" y="-131" font-family="Helvetica,sans-Serif" font-size="10.00"> commentPrefix</text>
<text text-anchor="middle" x="192.5" y="-120" font-family="Helvetica,sans-Serif" font-size="10.00">instrumentPrefix</text>
<text text-anchor="middle" x="192.5" y="-109" font-family="Helvetica,sans-Serif" font-size="10.00">lyricsPrefix</text>
<text text-anchor="middle" x="192.5" y="-98" font-family="Helvetica,sans-Serif" font-size="10.00">urlPrefix</text>
</g>
<!-- Node4&#45;&gt;Node4 -->
<g id="edge4" class="edge">
<title>Node4&#45;&gt;Node4</title>
<path fill="none" stroke="#9a32cd" stroke-dasharray="5,2" d="M234.76,-174.49C239.51,-172.95 242.5,-170.45 242.5,-167 242.5,-161.48 234.84,-158.4 224.58,-157.75"/>
<polygon fill="#9a32cd" stroke="#9a32cd" points="233.84,-171.1 224.58,-176.25 235.03,-178 233.84,-171.1"/>
<text text-anchor="middle" x="253.5" y="-164.5" font-family="Helvetica,sans-Serif" font-size="10.00"> null</text>
</g>
</g>
</svg>
