<?xml version="1.0" encoding="UTF-8" standalone="no"?>
<!DOCTYPE svg PUBLIC "-//W3C//DTD SVG 1.1//EN"
 "http://www.w3.org/Graphics/SVG/1.1/DTD/svg11.dtd">
<!-- Generated by graphviz version 2.42.4 (0)
 -->
<!-- Title: TagLib::Ogg::File Pages: 1 -->
<svg width="375pt" height="161pt"
 viewBox="0.00 0.00 375.00 160.50" xmlns="http://www.w3.org/2000/svg" xmlns:xlink="http://www.w3.org/1999/xlink">
<g id="graph0" class="graph" transform="scale(1 1) rotate(0) translate(4 156.5)">
<title>TagLib::Ogg::File</title>
<!-- Node1 -->
<g id="Node000001" class="node">
<title>Node1</title>
<g id="a_Node000001"><a xlink:title="An implementation of TagLib::File with some helpers for Ogg based formats.">
<polygon fill="#999999" stroke="#666666" points="203,-93.5 107,-93.5 107,-74.5 203,-74.5 203,-93.5"/>
<text text-anchor="middle" x="155" y="-81.5" font-family="Helvetica,sans-Serif" font-size="10.00">TagLib::Ogg::File</text>
</a>
</g>
</g>
<!-- Node3 -->
<g id="Node000003" class="node">
<title>Node3</title>
<g id="a_Node000003"><a xlink:href="classTagLib_1_1Ogg_1_1FLAC_1_1File.html" target="_top" xlink:title="An implementation of TagLib::File with Ogg/FLAC specific methods.">
<polygon fill="white" stroke="#666666" points="367,-152.5 239,-152.5 239,-133.5 367,-133.5 367,-152.5"/>
<text text-anchor="middle" x="303" y="-140.5" font-family="Helvetica,sans-Serif" font-size="10.00">TagLib::Ogg::FLAC::File</text>
</a>
</g>
</g>
<!-- Node1&#45;&gt;Node3 -->
<g id="edge2_Node000001_Node000003" class="edge">
<title>Node1&#45;&gt;Node3</title>
<g id="a_edge2_Node000001_Node000003"><a xlink:title=" ">
<path fill="none" stroke="#63b8ff" d="M181.9,-98.31C198.01,-106.82 219.32,-117.4 239,-125 247.06,-128.11 255.89,-130.97 264.32,-133.44"/>
<polygon fill="#63b8ff" stroke="#63b8ff" points="183.54,-95.21 173.08,-93.57 180.24,-101.38 183.54,-95.21"/>
</a>
</g>
</g>
<!-- Node4 -->
<g id="Node000004" class="node">
<title>Node4</title>
<g id="a_Node000004"><a xlink:href="classTagLib_1_1Ogg_1_1Opus_1_1File.html" target="_top" xlink:title="An implementation of Ogg::File with Opus specific methods.">
<polygon fill="white" stroke="#666666" points="366.5,-115.5 239.5,-115.5 239.5,-96.5 366.5,-96.5 366.5,-115.5"/>
<text text-anchor="middle" x="303" y="-103.5" font-family="Helvetica,sans-Serif" font-size="10.00">TagLib::Ogg::Opus::File</text>
</a>
</g>
</g>
<!-- Node1&#45;&gt;Node4 -->
<g id="edge3_Node000001_Node000004" class="edge">
<title>Node1&#45;&gt;Node4</title>
<g id="a_edge3_Node000001_Node000004"><a xlink:title=" ">
<path fill="none" stroke="#63b8ff" d="M213.3,-92.63C221.87,-93.93 230.75,-95.26 239.42,-96.57"/>
<polygon fill="#63b8ff" stroke="#63b8ff" points="213.81,-89.17 203.4,-91.14 212.77,-96.09 213.81,-89.17"/>
</a>
</g>
</g>
<!-- Node5 -->
<g id="Node000005" class="node">
<title>Node5</title>
<g id="a_Node000005"><a xlink:href="classTagLib_1_1Ogg_1_1Speex_1_1File.html" target="_top" xlink:title="An implementation of Ogg::File with Speex specific methods.">
<polygon fill="white" stroke="#666666" points="357.5,-78 248.5,-78 248.5,-48 357.5,-48 357.5,-78"/>
<text text-anchor="start" x="256.5" y="-66" font-family="Helvetica,sans-Serif" font-size="10.00">TagLib::Ogg::Speex</text>
<text text-anchor="middle" x="303" y="-55" font-family="Helvetica,sans-Serif" font-size="10.00">::File</text>
</a>
</g>
</g>
<!-- Node1&#45;&gt;Node5 -->
<g id="edge4_Node000001_Node000005" class="edge">
<title>Node1&#45;&gt;Node5</title>
<g id="a_edge4_Node000001_Node000005"><a xlink:title=" ">
<path fill="none" stroke="#63b8ff" d="M213.34,-75.75C224.84,-74.1 236.88,-72.37 248.25,-70.73"/>
<polygon fill="#63b8ff" stroke="#63b8ff" points="212.8,-72.29 203.4,-77.18 213.8,-79.22 212.8,-72.29"/>
</a>
</g>
</g>
<!-- Node6 -->
<g id="Node000006" class="node">
<title>Node6</title>
<g id="a_Node000006"><a xlink:href="classTagLib_1_1Ogg_1_1Vorbis_1_1File.html" target="_top" xlink:title="An implementation of Ogg::File with Vorbis specific methods.">
<polygon fill="white" stroke="#666666" points="357.5,-30 248.5,-30 248.5,0 357.5,0 357.5,-30"/>
<text text-anchor="start" x="256.5" y="-18" font-family="Helvetica,sans-Serif" font-size="10.00">TagLib::Ogg::Vorbis</text>
<text text-anchor="middle" x="303" y="-7" font-family="Helvetica,sans-Serif" font-size="10.00">::File</text>
</a>
</g>
</g>
<!-- Node1&#45;&gt;Node6 -->
<g id="edge5_Node000001_Node000006" class="edge">
<title>Node1&#45;&gt;Node6</title>
<g id="a_edge5_Node000001_Node000006"><a xlink:title=" ">
<path fill="none" stroke="#63b8ff" d="M181.07,-69.27C197.31,-60.02 219.08,-48.15 239,-39 245.7,-35.92 252.92,-32.91 259.99,-30.11"/>
<polygon fill="#63b8ff" stroke="#63b8ff" points="179.13,-66.36 172.21,-74.38 182.62,-72.42 179.13,-66.36"/>
</a>
</g>
</g>
<!-- Node2 -->
<g id="Node000002" class="node">
<title>Node2</title>
<g id="a_Node000002"><a xlink:href="classTagLib_1_1File.html" target="_top" xlink:title="A file class with some useful methods for tag manipulation.">
<polygon fill="white" stroke="#666666" points="71,-93.5 0,-93.5 0,-74.5 71,-74.5 71,-93.5"/>
<text text-anchor="middle" x="35.5" y="-81.5" font-family="Helvetica,sans-Serif" font-size="10.00">TagLib::File</text>
</a>
</g>
</g>
<!-- Node2&#45;&gt;Node1 -->
<g id="edge1_Node000001_Node000002" class="edge">
<title>Node2&#45;&gt;Node1</title>
<g id="a_edge1_Node000001_Node000002"><a xlink:title=" ">
<path fill="none" stroke="#63b8ff" d="M81.32,-84C89.58,-84 98.23,-84 106.57,-84"/>
<polygon fill="#63b8ff" stroke="#63b8ff" points="81.12,-80.5 71.12,-84 81.12,-87.5 81.12,-80.5"/>
</a>
</g>
</g>
</g>
</svg>
