<?xml version="1.0" encoding="UTF-8" standalone="no"?>
<!DOCTYPE svg PUBLIC "-//W3C//DTD SVG 1.1//EN"
 "http://www.w3.org/Graphics/SVG/1.1/DTD/svg11.dtd">
<!-- Generated by graphviz version 2.46.1 (20210213.1702)
 -->
<!-- Title: TagLib::ID3v2::TextIdentificationFrame Pages: 1 -->
<svg width="187pt" height="218pt"
 viewBox="0.00 0.00 187.00 218.00" xmlns="http://www.w3.org/2000/svg" xmlns:xlink="http://www.w3.org/1999/xlink">
<g id="graph0" class="graph" transform="scale(1 1) rotate(0) translate(4 214)">
<title>TagLib::ID3v2::TextIdentificationFrame</title>
<polygon fill="white" stroke="transparent" points="-4,4 -4,-214 183,-214 183,4 -4,4"/>
<!-- Node1 -->
<g id="node1" class="node">
<title>Node1</title>
<g id="a_node1"><a xlink:title="An ID3v2 text identification frame implementation.">
<polygon fill="#bfbfbf" stroke="black" points="10.5,-67.5 10.5,-97.5 168.5,-97.5 168.5,-67.5 10.5,-67.5"/>
<text text-anchor="start" x="18.5" y="-85.5" font-family="Helvetica,sans-Serif" font-size="10.00">TagLib::ID3v2::TextIdentification</text>
<text text-anchor="middle" x="89.5" y="-74.5" font-family="Helvetica,sans-Serif" font-size="10.00">Frame</text>
</a>
</g>
</g>
<!-- Node4 -->
<g id="node4" class="node">
<title>Node4</title>
<g id="a_node4"><a xlink:href="classTagLib_1_1ID3v2_1_1UserTextIdentificationFrame.html" target="_top" xlink:title="An ID3v2 custom text identification frame implementation.">
<polygon fill="white" stroke="black" points="0,-0.5 0,-30.5 179,-30.5 179,-0.5 0,-0.5"/>
<text text-anchor="start" x="8" y="-18.5" font-family="Helvetica,sans-Serif" font-size="10.00">TagLib::ID3v2::UserTextIdentification</text>
<text text-anchor="middle" x="89.5" y="-7.5" font-family="Helvetica,sans-Serif" font-size="10.00">Frame</text>
</a>
</g>
</g>
<!-- Node1&#45;&gt;Node4 -->
<g id="edge3" class="edge">
<title>Node1&#45;&gt;Node4</title>
<path fill="none" stroke="midnightblue" d="M89.5,-57.11C89.5,-48.15 89.5,-38.32 89.5,-30.58"/>
<polygon fill="midnightblue" stroke="midnightblue" points="86,-57.4 89.5,-67.4 93,-57.4 86,-57.4"/>
</g>
<!-- Node2 -->
<g id="node2" class="node">
<title>Node2</title>
<g id="a_node2"><a xlink:href="classTagLib_1_1ID3v2_1_1Frame.html" target="_top" xlink:title="ID3v2 frame implementation.">
<polygon fill="white" stroke="black" points="34,-134.5 34,-153.5 145,-153.5 145,-134.5 34,-134.5"/>
<text text-anchor="middle" x="89.5" y="-141.5" font-family="Helvetica,sans-Serif" font-size="10.00">TagLib::ID3v2::Frame</text>
</a>
</g>
</g>
<!-- Node2&#45;&gt;Node1 -->
<g id="edge1" class="edge">
<title>Node2&#45;&gt;Node1</title>
<path fill="none" stroke="midnightblue" d="M89.5,-124.23C89.5,-115.59 89.5,-105.5 89.5,-97.52"/>
<polygon fill="midnightblue" stroke="midnightblue" points="86,-124.48 89.5,-134.48 93,-124.48 86,-124.48"/>
</g>
<!-- Node3 -->
<g id="node3" class="node">
<title>Node3</title>
<g id="a_node3"><a xlink:href="classTagLib_1_1ID3v2_1_1Header.html" target="_top" xlink:title="An implementation of ID3v2 headers.">
<polygon fill="white" stroke="black" points="32,-190.5 32,-209.5 147,-209.5 147,-190.5 32,-190.5"/>
<text text-anchor="middle" x="89.5" y="-197.5" font-family="Helvetica,sans-Serif" font-size="10.00">TagLib::ID3v2::Header</text>
</a>
</g>
</g>
<!-- Node3&#45;&gt;Node2 -->
<g id="edge2" class="edge">
<title>Node3&#45;&gt;Node2</title>
<path fill="none" stroke="#8b1a1a" d="M89.5,-179.8C89.5,-170.91 89.5,-160.78 89.5,-153.75"/>
<polygon fill="#8b1a1a" stroke="#8b1a1a" points="86,-180.08 89.5,-190.08 93,-180.08 86,-180.08"/>
</g>
</g>
</svg>
