<?xml version="1.0" encoding="UTF-8" standalone="no"?>
<!DOCTYPE svg PUBLIC "-//W3C//DTD SVG 1.1//EN"
 "http://www.w3.org/Graphics/SVG/1.1/DTD/svg11.dtd">
<!-- Generated by graphviz version 2.43.0 (0)
 -->
<!-- Title: TagLib::ID3v2::PrivateFrame Pages: 1 -->
<svg width="272pt" height="185pt"
 viewBox="0.00 0.00 271.50 185.00" xmlns="http://www.w3.org/2000/svg" xmlns:xlink="http://www.w3.org/1999/xlink">
<g id="graph0" class="graph" transform="scale(1 1) rotate(0) translate(4 181)">
<title>TagLib::ID3v2::PrivateFrame</title>
<polygon fill="white" stroke="transparent" points="-4,4 -4,-181 267.5,-181 267.5,4 -4,4"/>
<!-- Node1 -->
<g id="node1" class="node">
<title>Node1</title>
<g id="a_node1"><a xlink:title="An implementation of ID3v2 privateframe.">
<polygon fill="#bfbfbf" stroke="black" points="1,-0.5 1,-19.5 154,-19.5 154,-0.5 1,-0.5"/>
<text text-anchor="middle" x="77.5" y="-7.5" font-family="Helvetica,sans-Serif" font-size="10.00">TagLib::ID3v2::PrivateFrame</text>
</a>
</g>
</g>
<!-- Node2 -->
<g id="node2" class="node">
<title>Node2</title>
<g id="a_node2"><a xlink:href="classTagLib_1_1ID3v2_1_1Frame.html" target="_top" xlink:title="ID3v2 frame implementation.">
<polygon fill="white" stroke="black" points="18,-57.5 18,-76.5 137,-76.5 137,-57.5 18,-57.5"/>
<text text-anchor="middle" x="77.5" y="-64.5" font-family="Helvetica,sans-Serif" font-size="10.00">TagLib::ID3v2::Frame</text>
</a>
</g>
</g>
<!-- Node2&#45;&gt;Node1 -->
<g id="edge1" class="edge">
<title>Node2&#45;&gt;Node1</title>
<path fill="none" stroke="midnightblue" d="M77.5,-47.12C77.5,-37.82 77.5,-27.06 77.5,-19.71"/>
<polygon fill="midnightblue" stroke="midnightblue" points="74,-47.41 77.5,-57.41 81,-47.41 74,-47.41"/>
</g>
<!-- Node3 -->
<g id="node3" class="node">
<title>Node3</title>
<g id="a_node3"><a xlink:href="classTagLib_1_1ID3v2_1_1Header.html" target="_top" xlink:title="An implementation of ID3v2 headers.">
<polygon fill="white" stroke="black" points="0,-157.5 0,-176.5 123,-176.5 123,-157.5 0,-157.5"/>
<text text-anchor="middle" x="61.5" y="-164.5" font-family="Helvetica,sans-Serif" font-size="10.00">TagLib::ID3v2::Header</text>
</a>
</g>
</g>
<!-- Node3&#45;&gt;Node2 -->
<g id="edge2" class="edge">
<title>Node3&#45;&gt;Node2</title>
<path fill="none" stroke="#8b1a1a" d="M64.57,-147.22C68.04,-125.95 73.55,-92.22 76.11,-76.54"/>
<polygon fill="#8b1a1a" stroke="#8b1a1a" points="61.08,-146.87 62.92,-157.3 67.99,-148 61.08,-146.87"/>
</g>
<!-- Node4 -->
<g id="node4" class="node">
<title>Node4</title>
<g id="a_node4"><a xlink:href="classTagLib_1_1String.html" target="_top" xlink:title="A wide string class suitable for unicode.">
<polygon fill="white" stroke="black" points="141.5,-157.5 141.5,-176.5 223.5,-176.5 223.5,-157.5 141.5,-157.5"/>
<text text-anchor="middle" x="182.5" y="-164.5" font-family="Helvetica,sans-Serif" font-size="10.00">TagLib::String</text>
</a>
</g>
</g>
<!-- Node4&#45;&gt;Node2 -->
<g id="edge3" class="edge">
<title>Node4&#45;&gt;Node2</title>
<path fill="none" stroke="#9a32cd" stroke-dasharray="5,2" d="M165.74,-150.35C143.3,-129.42 104.3,-93.01 86.65,-76.54"/>
<polygon fill="#9a32cd" stroke="#9a32cd" points="163.48,-153.04 173.18,-157.3 168.26,-147.92 163.48,-153.04"/>
<text text-anchor="middle" x="191.5" y="-131" font-family="Helvetica,sans-Serif" font-size="10.00"> commentPrefix</text>
<text text-anchor="middle" x="191.5" y="-120" font-family="Helvetica,sans-Serif" font-size="10.00">instrumentPrefix</text>
<text text-anchor="middle" x="191.5" y="-109" font-family="Helvetica,sans-Serif" font-size="10.00">lyricsPrefix</text>
<text text-anchor="middle" x="191.5" y="-98" font-family="Helvetica,sans-Serif" font-size="10.00">urlPrefix</text>
</g>
<!-- Node4&#45;&gt;Node4 -->
<g id="edge4" class="edge">
<title>Node4&#45;&gt;Node4</title>
<path fill="none" stroke="#9a32cd" stroke-dasharray="5,2" d="M233.76,-174.49C238.51,-172.95 241.5,-170.45 241.5,-167 241.5,-161.48 233.84,-158.4 223.58,-157.75"/>
<polygon fill="#9a32cd" stroke="#9a32cd" points="232.84,-171.1 223.58,-176.25 234.03,-178 232.84,-171.1"/>
<text text-anchor="middle" x="252.5" y="-164.5" font-family="Helvetica,sans-Serif" font-size="10.00"> null</text>
</g>
</g>
</svg>
