<?xml version="1.0" encoding="UTF-8" standalone="no"?>
<!DOCTYPE svg PUBLIC "-//W3C//DTD SVG 1.1//EN"
 "http://www.w3.org/Graphics/SVG/1.1/DTD/svg11.dtd">
<!-- Generated by graphviz version 2.42.4 (0)
 -->
<!-- Title: TagLib::Ogg::Opus::File Pages: 1 -->
<svg width="135pt" height="137pt"
 viewBox="0.00 0.00 135.00 137.00" xmlns="http://www.w3.org/2000/svg" xmlns:xlink="http://www.w3.org/1999/xlink">
<g id="graph0" class="graph" transform="scale(1 1) rotate(0) translate(4 133)">
<title>TagLib::Ogg::Opus::File</title>
<!-- Node1 -->
<g id="Node000001" class="node">
<title>Node1</title>
<g id="a_Node000001"><a xlink:title="An implementation of Ogg::File with Opus specific methods.">
<polygon fill="#999999" stroke="#666666" points="127,-19 0,-19 0,0 127,0 127,-19"/>
<text text-anchor="middle" x="63.5" y="-7" font-family="Helvetica,sans-Serif" font-size="10.00">TagLib::Ogg::Opus::File</text>
</a>
</g>
</g>
<!-- Node2 -->
<g id="Node000002" class="node">
<title>Node2</title>
<g id="a_Node000002"><a xlink:href="classTagLib_1_1Ogg_1_1File.html" target="_top" xlink:title="An implementation of TagLib::File with some helpers for Ogg based formats.">
<polygon fill="white" stroke="#666666" points="111.5,-74 15.5,-74 15.5,-55 111.5,-55 111.5,-74"/>
<text text-anchor="middle" x="63.5" y="-62" font-family="Helvetica,sans-Serif" font-size="10.00">TagLib::Ogg::File</text>
</a>
</g>
</g>
<!-- Node2&#45;&gt;Node1 -->
<g id="edge1_Node000001_Node000002" class="edge">
<title>Node2&#45;&gt;Node1</title>
<g id="a_edge1_Node000001_Node000002"><a xlink:title=" ">
<path fill="none" stroke="#63b8ff" d="M63.5,-44.66C63.5,-35.93 63.5,-25.99 63.5,-19.09"/>
<polygon fill="#63b8ff" stroke="#63b8ff" points="60,-44.75 63.5,-54.75 67,-44.75 60,-44.75"/>
</a>
</g>
</g>
<!-- Node3 -->
<g id="Node000003" class="node">
<title>Node3</title>
<g id="a_Node000003"><a xlink:href="classTagLib_1_1File.html" target="_top" xlink:title="A file class with some useful methods for tag manipulation.">
<polygon fill="white" stroke="#666666" points="99,-129 28,-129 28,-110 99,-110 99,-129"/>
<text text-anchor="middle" x="63.5" y="-117" font-family="Helvetica,sans-Serif" font-size="10.00">TagLib::File</text>
</a>
</g>
</g>
<!-- Node3&#45;&gt;Node2 -->
<g id="edge2_Node000002_Node000003" class="edge">
<title>Node3&#45;&gt;Node2</title>
<g id="a_edge2_Node000002_Node000003"><a xlink:title=" ">
<path fill="none" stroke="#63b8ff" d="M63.5,-99.66C63.5,-90.93 63.5,-80.99 63.5,-74.09"/>
<polygon fill="#63b8ff" stroke="#63b8ff" points="60,-99.75 63.5,-109.75 67,-99.75 60,-99.75"/>
</a>
</g>
</g>
</g>
</svg>
