<?xml version="1.0" encoding="UTF-8" standalone="no"?>
<!DOCTYPE svg PUBLIC "-//W3C//DTD SVG 1.1//EN"
 "http://www.w3.org/Graphics/SVG/1.1/DTD/svg11.dtd">
<!-- Generated by graphviz version 2.42.4 (0)
 -->
<!-- Title: TagLib::ID3v2::UnsynchronizedLyricsFrame Pages: 1 -->
<svg width="174pt" height="148pt"
 viewBox="0.00 0.00 174.00 148.00" xmlns="http://www.w3.org/2000/svg" xmlns:xlink="http://www.w3.org/1999/xlink">
<g id="graph0" class="graph" transform="scale(1 1) rotate(0) translate(4 144)">
<title>TagLib::ID3v2::UnsynchronizedLyricsFrame</title>
<!-- Node1 -->
<g id="Node000001" class="node">
<title>Node1</title>
<g id="a_Node000001"><a xlink:title="ID3v2 unsynchronized lyrics frame.">
<polygon fill="#999999" stroke="#666666" points="166,-30 0,-30 0,0 166,0 166,-30"/>
<text text-anchor="start" x="8" y="-18" font-family="Helvetica,sans-Serif" font-size="10.00">TagLib::ID3v2::Unsynchronized</text>
<text text-anchor="middle" x="83" y="-7" font-family="Helvetica,sans-Serif" font-size="10.00">LyricsFrame</text>
</a>
</g>
</g>
<!-- Node2 -->
<g id="Node000002" class="node">
<title>Node2</title>
<g id="a_Node000002"><a xlink:href="classTagLib_1_1ID3v2_1_1Frame.html" target="_top" xlink:title="ID3v2 frame implementation.">
<polygon fill="white" stroke="#666666" points="142.5,-85 23.5,-85 23.5,-66 142.5,-66 142.5,-85"/>
<text text-anchor="middle" x="83" y="-73" font-family="Helvetica,sans-Serif" font-size="10.00">TagLib::ID3v2::Frame</text>
</a>
</g>
</g>
<!-- Node2&#45;&gt;Node1 -->
<g id="edge1_Node000001_Node000002" class="edge">
<title>Node2&#45;&gt;Node1</title>
<g id="a_edge1_Node000001_Node000002"><a xlink:title=" ">
<path fill="none" stroke="#63b8ff" d="M83,-55.65C83,-47.36 83,-37.78 83,-30.11"/>
<polygon fill="#63b8ff" stroke="#63b8ff" points="79.5,-55.87 83,-65.87 86.5,-55.87 79.5,-55.87"/>
</a>
</g>
</g>
<!-- Node3 -->
<g id="Node000003" class="node">
<title>Node3</title>
<g id="a_Node000003"><a xlink:href="classTagLib_1_1ID3v2_1_1Header.html" target="_top" xlink:title="An implementation of ID3v2 headers.">
<polygon fill="white" stroke="#666666" points="144.5,-140 21.5,-140 21.5,-121 144.5,-121 144.5,-140"/>
<text text-anchor="middle" x="83" y="-128" font-family="Helvetica,sans-Serif" font-size="10.00">TagLib::ID3v2::Header</text>
</a>
</g>
</g>
<!-- Node3&#45;&gt;Node2 -->
<g id="edge2_Node000002_Node000003" class="edge">
<title>Node3&#45;&gt;Node2</title>
<g id="a_edge2_Node000002_Node000003"><a xlink:title=" ">
<path fill="none" stroke="#8b1a1a" d="M83,-110.66C83,-101.93 83,-91.99 83,-85.09"/>
<polygon fill="#8b1a1a" stroke="#8b1a1a" points="79.5,-110.75 83,-120.75 86.5,-110.75 79.5,-110.75"/>
</a>
</g>
</g>
</g>
</svg>
