<?xml version="1.0" encoding="UTF-8" standalone="no"?>
<!DOCTYPE svg PUBLIC "-//W3C//DTD SVG 1.1//EN"
 "http://www.w3.org/Graphics/SVG/1.1/DTD/svg11.dtd">
<!-- Generated by graphviz version 2.43.0 (0)
 -->
<!-- Title: TagLib::ID3v2::TextIdentificationFrame Pages: 1 -->
<svg width="280pt" height="196pt"
 viewBox="0.00 0.00 280.00 196.00" xmlns="http://www.w3.org/2000/svg" xmlns:xlink="http://www.w3.org/1999/xlink">
<g id="graph0" class="graph" transform="scale(1 1) rotate(0) translate(4 192)">
<title>TagLib::ID3v2::TextIdentificationFrame</title>
<polygon fill="white" stroke="transparent" points="-4,4 -4,-192 276,-192 276,4 -4,4"/>
<!-- Node1 -->
<g id="node1" class="node">
<title>Node1</title>
<g id="a_node1"><a xlink:title="An ID3v2 text identification frame implementation.">
<polygon fill="#bfbfbf" stroke="black" points="0,-0.5 0,-30.5 172,-30.5 172,-0.5 0,-0.5"/>
<text text-anchor="start" x="8" y="-18.5" font-family="Helvetica,sans-Serif" font-size="10.00">TagLib::ID3v2::TextIdentification</text>
<text text-anchor="middle" x="86" y="-7.5" font-family="Helvetica,sans-Serif" font-size="10.00">Frame</text>
</a>
</g>
</g>
<!-- Node2 -->
<g id="node2" class="node">
<title>Node2</title>
<g id="a_node2"><a xlink:href="classTagLib_1_1ID3v2_1_1Frame.html" target="_top" xlink:title="ID3v2 frame implementation.">
<polygon fill="white" stroke="black" points="26.5,-68.5 26.5,-87.5 145.5,-87.5 145.5,-68.5 26.5,-68.5"/>
<text text-anchor="middle" x="86" y="-75.5" font-family="Helvetica,sans-Serif" font-size="10.00">TagLib::ID3v2::Frame</text>
</a>
</g>
</g>
<!-- Node2&#45;&gt;Node1 -->
<g id="edge1" class="edge">
<title>Node2&#45;&gt;Node1</title>
<path fill="none" stroke="midnightblue" d="M86,-58.22C86,-49.36 86,-38.96 86,-30.76"/>
<polygon fill="midnightblue" stroke="midnightblue" points="82.5,-58.33 86,-68.33 89.5,-58.33 82.5,-58.33"/>
</g>
<!-- Node3 -->
<g id="node3" class="node">
<title>Node3</title>
<g id="a_node3"><a xlink:href="classTagLib_1_1ID3v2_1_1Header.html" target="_top" xlink:title="An implementation of ID3v2 headers.">
<polygon fill="white" stroke="black" points="8.5,-168.5 8.5,-187.5 131.5,-187.5 131.5,-168.5 8.5,-168.5"/>
<text text-anchor="middle" x="70" y="-175.5" font-family="Helvetica,sans-Serif" font-size="10.00">TagLib::ID3v2::Header</text>
</a>
</g>
</g>
<!-- Node3&#45;&gt;Node2 -->
<g id="edge2" class="edge">
<title>Node3&#45;&gt;Node2</title>
<path fill="none" stroke="#8b1a1a" d="M73.07,-158.22C76.54,-136.95 82.05,-103.22 84.61,-87.54"/>
<polygon fill="#8b1a1a" stroke="#8b1a1a" points="69.58,-157.87 71.42,-168.3 76.49,-159 69.58,-157.87"/>
</g>
<!-- Node4 -->
<g id="node4" class="node">
<title>Node4</title>
<g id="a_node4"><a xlink:href="classTagLib_1_1String.html" target="_top" xlink:title="A wide string class suitable for unicode.">
<polygon fill="white" stroke="black" points="150,-168.5 150,-187.5 232,-187.5 232,-168.5 150,-168.5"/>
<text text-anchor="middle" x="191" y="-175.5" font-family="Helvetica,sans-Serif" font-size="10.00">TagLib::String</text>
</a>
</g>
</g>
<!-- Node4&#45;&gt;Node2 -->
<g id="edge3" class="edge">
<title>Node4&#45;&gt;Node2</title>
<path fill="none" stroke="#9a32cd" stroke-dasharray="5,2" d="M174.24,-161.35C151.8,-140.42 112.8,-104.01 95.15,-87.54"/>
<polygon fill="#9a32cd" stroke="#9a32cd" points="171.98,-164.04 181.68,-168.3 176.76,-158.92 171.98,-164.04"/>
<text text-anchor="middle" x="200" y="-142" font-family="Helvetica,sans-Serif" font-size="10.00"> commentPrefix</text>
<text text-anchor="middle" x="200" y="-131" font-family="Helvetica,sans-Serif" font-size="10.00">instrumentPrefix</text>
<text text-anchor="middle" x="200" y="-120" font-family="Helvetica,sans-Serif" font-size="10.00">lyricsPrefix</text>
<text text-anchor="middle" x="200" y="-109" font-family="Helvetica,sans-Serif" font-size="10.00">urlPrefix</text>
</g>
<!-- Node4&#45;&gt;Node4 -->
<g id="edge4" class="edge">
<title>Node4&#45;&gt;Node4</title>
<path fill="none" stroke="#9a32cd" stroke-dasharray="5,2" d="M242.26,-185.49C247.01,-183.95 250,-181.45 250,-178 250,-172.48 242.34,-169.4 232.08,-168.75"/>
<polygon fill="#9a32cd" stroke="#9a32cd" points="241.34,-182.1 232.08,-187.25 242.53,-189 241.34,-182.1"/>
<text text-anchor="middle" x="261" y="-175.5" font-family="Helvetica,sans-Serif" font-size="10.00"> null</text>
</g>
</g>
</svg>
