<?xml version="1.0" encoding="UTF-8" standalone="no"?>
<!DOCTYPE svg PUBLIC "-//W3C//DTD SVG 1.1//EN"
 "http://www.w3.org/Graphics/SVG/1.1/DTD/svg11.dtd">
<!-- Generated by graphviz version 2.42.4 (0)
 -->
<!-- Title: TagLib::ID3v2::Frame Pages: 1 -->
<svg width="743pt" height="750pt"
 viewBox="0.00 0.00 743.00 750.00" xmlns="http://www.w3.org/2000/svg" xmlns:xlink="http://www.w3.org/1999/xlink">
<g id="graph0" class="graph" transform="scale(1 1) rotate(0) translate(4 746)">
<title>TagLib::ID3v2::Frame</title>
<!-- Node1 -->
<g id="Node000001" class="node">
<title>Node1</title>
<g id="a_Node000001"><a xlink:title="ID3v2 frame implementation.">
<polygon fill="#999999" stroke="#666666" points="278,-388.5 159,-388.5 159,-369.5 278,-369.5 278,-388.5"/>
<text text-anchor="middle" x="218.5" y="-376.5" font-family="Helvetica,sans-Serif" font-size="10.00">TagLib::ID3v2::Frame</text>
</a>
</g>
</g>
<!-- Node3 -->
<g id="Node000003" class="node">
<title>Node3</title>
<g id="a_Node000003"><a xlink:href="classTagLib_1_1ID3v2_1_1AttachedPictureFrame.html" target="_top" xlink:title="An ID3v2 attached picture frame implementation.">
<polygon fill="white" stroke="#666666" points="492,-742 327,-742 327,-712 492,-712 492,-742"/>
<text text-anchor="start" x="335" y="-730" font-family="Helvetica,sans-Serif" font-size="10.00">TagLib::ID3v2::AttachedPicture</text>
<text text-anchor="middle" x="409.5" y="-719" font-family="Helvetica,sans-Serif" font-size="10.00">Frame</text>
</a>
</g>
</g>
<!-- Node1&#45;&gt;Node3 -->
<g id="edge2_Node000001_Node000003" class="edge">
<title>Node1&#45;&gt;Node3</title>
<g id="a_edge2_Node000001_Node000003"><a xlink:title=" ">
<path fill="none" stroke="#63b8ff" d="M218.98,-398.7C218.63,-454.94 225.66,-617.71 314,-703 317.77,-706.64 322.02,-709.76 326.57,-712.42"/>
<polygon fill="#63b8ff" stroke="#63b8ff" points="222.48,-398.7 219.13,-388.65 215.48,-398.59 222.48,-398.7"/>
</a>
</g>
</g>
<!-- Node5 -->
<g id="Node000005" class="node">
<title>Node5</title>
<g id="a_Node000005"><a xlink:href="classTagLib_1_1ID3v2_1_1ChapterFrame.html" target="_top" xlink:title="An implementation of ID3v2 chapter frames.">
<polygon fill="white" stroke="#666666" points="488,-693.5 331,-693.5 331,-674.5 488,-674.5 488,-693.5"/>
<text text-anchor="middle" x="409.5" y="-681.5" font-family="Helvetica,sans-Serif" font-size="10.00">TagLib::ID3v2::ChapterFrame</text>
</a>
</g>
</g>
<!-- Node1&#45;&gt;Node5 -->
<g id="edge4_Node000001_Node000005" class="edge">
<title>Node1&#45;&gt;Node5</title>
<g id="a_edge4_Node000001_Node000005"><a xlink:title=" ">
<path fill="none" stroke="#63b8ff" d="M219.59,-398.75C220.99,-451.13 232.45,-594.41 314,-666 319.02,-670.41 324.78,-673.88 330.92,-676.59"/>
<polygon fill="#63b8ff" stroke="#63b8ff" points="223.09,-398.44 219.43,-388.5 216.09,-398.56 223.09,-398.44"/>
</a>
</g>
</g>
<!-- Node6 -->
<g id="Node000006" class="node">
<title>Node6</title>
<g id="a_Node000006"><a xlink:href="classTagLib_1_1ID3v2_1_1CommentsFrame.html" target="_top" xlink:title="An implementation of ID3v2 comments.">
<polygon fill="white" stroke="#666666" points="495.5,-656.5 323.5,-656.5 323.5,-637.5 495.5,-637.5 495.5,-656.5"/>
<text text-anchor="middle" x="409.5" y="-644.5" font-family="Helvetica,sans-Serif" font-size="10.00">TagLib::ID3v2::CommentsFrame</text>
</a>
</g>
</g>
<!-- Node1&#45;&gt;Node6 -->
<g id="edge5_Node000001_Node000006" class="edge">
<title>Node1&#45;&gt;Node6</title>
<g id="a_edge5_Node000001_Node000006"><a xlink:title=" ">
<path fill="none" stroke="#63b8ff" d="M220.78,-398.95C224.97,-446.56 242.48,-567.37 314,-628 318.47,-631.79 323.48,-634.89 328.8,-637.44"/>
<polygon fill="#63b8ff" stroke="#63b8ff" points="224.25,-398.44 219.99,-388.74 217.27,-398.98 224.25,-398.44"/>
</a>
</g>
</g>
<!-- Node7 -->
<g id="Node000007" class="node">
<title>Node7</title>
<g id="a_Node000007"><a xlink:href="classTagLib_1_1ID3v2_1_1EventTimingCodesFrame.html" target="_top" xlink:title="ID3v2 event timing codes frame.">
<polygon fill="white" stroke="#666666" points="484,-619 335,-619 335,-589 484,-589 484,-619"/>
<text text-anchor="start" x="343" y="-607" font-family="Helvetica,sans-Serif" font-size="10.00">TagLib::ID3v2::EventTiming</text>
<text text-anchor="middle" x="409.5" y="-596" font-family="Helvetica,sans-Serif" font-size="10.00">CodesFrame</text>
</a>
</g>
</g>
<!-- Node1&#45;&gt;Node7 -->
<g id="edge6_Node000001_Node000007" class="edge">
<title>Node1&#45;&gt;Node7</title>
<g id="a_edge6_Node000001_Node000007"><a xlink:title=" ">
<path fill="none" stroke="#63b8ff" d="M222.97,-398.7C231.15,-439.13 255.56,-531.76 314,-580 320.14,-585.06 327.2,-589.08 334.66,-592.26"/>
<polygon fill="#63b8ff" stroke="#63b8ff" points="226.38,-397.92 221.08,-388.75 219.51,-399.23 226.38,-397.92"/>
</a>
</g>
</g>
<!-- Node8 -->
<g id="Node000008" class="node">
<title>Node8</title>
<g id="a_Node000008"><a xlink:href="classTagLib_1_1ID3v2_1_1GeneralEncapsulatedObjectFrame.html" target="_top" xlink:title="An ID3v2 general encapsulated object frame implementation.">
<polygon fill="white" stroke="#666666" points="505,-571 314,-571 314,-541 505,-541 505,-571"/>
<text text-anchor="start" x="322" y="-559" font-family="Helvetica,sans-Serif" font-size="10.00">TagLib::ID3v2::GeneralEncapsulated</text>
<text text-anchor="middle" x="409.5" y="-548" font-family="Helvetica,sans-Serif" font-size="10.00">ObjectFrame</text>
</a>
</g>
</g>
<!-- Node1&#45;&gt;Node8 -->
<g id="edge7_Node000001_Node000008" class="edge">
<title>Node1&#45;&gt;Node8</title>
<g id="a_edge7_Node000001_Node000008"><a xlink:title=" ">
<path fill="none" stroke="#63b8ff" d="M225.99,-398.42C237.97,-431.2 266.74,-497.31 314,-532 318.64,-535.41 323.71,-538.33 329.03,-540.84"/>
<polygon fill="#63b8ff" stroke="#63b8ff" points="229.18,-396.95 222.57,-388.67 222.58,-399.27 229.18,-396.95"/>
</a>
</g>
</g>
<!-- Node9 -->
<g id="Node000009" class="node">
<title>Node9</title>
<g id="a_Node000009"><a xlink:href="classTagLib_1_1ID3v2_1_1OwnershipFrame.html" target="_top" xlink:title="An implementation of ID3v2 &quot;ownership&quot;.">
<polygon fill="white" stroke="#666666" points="479.5,-523 339.5,-523 339.5,-493 479.5,-493 479.5,-523"/>
<text text-anchor="start" x="347.5" y="-511" font-family="Helvetica,sans-Serif" font-size="10.00">TagLib::ID3v2::Ownership</text>
<text text-anchor="middle" x="409.5" y="-500" font-family="Helvetica,sans-Serif" font-size="10.00">Frame</text>
</a>
</g>
</g>
<!-- Node1&#45;&gt;Node9 -->
<g id="edge8_Node000001_Node000009" class="edge">
<title>Node1&#45;&gt;Node9</title>
<g id="a_edge8_Node000001_Node000009"><a xlink:title=" ">
<path fill="none" stroke="#63b8ff" d="M230.89,-397.26C246.63,-420.94 277.28,-461.82 314,-484 321.82,-488.73 330.55,-492.53 339.45,-495.58"/>
<polygon fill="#63b8ff" stroke="#63b8ff" points="233.62,-395.04 225.26,-388.55 227.74,-398.84 233.62,-395.04"/>
</a>
</g>
</g>
<!-- Node10 -->
<g id="Node000010" class="node">
<title>Node10</title>
<g id="a_Node000010"><a xlink:href="classTagLib_1_1ID3v2_1_1PodcastFrame.html" target="_top" xlink:title="ID3v2 podcast frame.">
<polygon fill="white" stroke="#666666" points="488,-474.5 331,-474.5 331,-455.5 488,-455.5 488,-474.5"/>
<text text-anchor="middle" x="409.5" y="-462.5" font-family="Helvetica,sans-Serif" font-size="10.00">TagLib::ID3v2::PodcastFrame</text>
</a>
</g>
</g>
<!-- Node1&#45;&gt;Node10 -->
<g id="edge9_Node000001_Node000010" class="edge">
<title>Node1&#45;&gt;Node10</title>
<g id="a_edge9_Node000001_Node000010"><a xlink:title=" ">
<path fill="none" stroke="#63b8ff" d="M237.87,-395.62C255.94,-411.04 284.96,-433.46 314,-446 322.99,-449.88 332.8,-452.98 342.6,-455.45"/>
<polygon fill="#63b8ff" stroke="#63b8ff" points="239.76,-392.62 229.93,-388.68 235.16,-397.89 239.76,-392.62"/>
</a>
</g>
</g>
<!-- Node11 -->
<g id="Node000011" class="node">
<title>Node11</title>
<g id="a_Node000011"><a xlink:href="classTagLib_1_1ID3v2_1_1PopularimeterFrame.html" target="_top" xlink:title="An implementation of ID3v2 &quot;popularimeter&quot;.">
<polygon fill="white" stroke="#666666" points="488,-437 331,-437 331,-407 488,-407 488,-437"/>
<text text-anchor="start" x="339" y="-425" font-family="Helvetica,sans-Serif" font-size="10.00">TagLib::ID3v2::Popularimeter</text>
<text text-anchor="middle" x="409.5" y="-414" font-family="Helvetica,sans-Serif" font-size="10.00">Frame</text>
</a>
</g>
</g>
<!-- Node1&#45;&gt;Node11 -->
<g id="edge10_Node000001_Node000011" class="edge">
<title>Node1&#45;&gt;Node11</title>
<g id="a_edge10_Node000001_Node000011"><a xlink:title=" ">
<path fill="none" stroke="#63b8ff" d="M271.26,-390.78C293.26,-395.78 319.19,-401.68 342.54,-406.99"/>
<polygon fill="#63b8ff" stroke="#63b8ff" points="271.97,-387.35 261.45,-388.54 270.42,-394.17 271.97,-387.35"/>
</a>
</g>
</g>
<!-- Node12 -->
<g id="Node000012" class="node">
<title>Node12</title>
<g id="a_Node000012"><a xlink:href="classTagLib_1_1ID3v2_1_1PrivateFrame.html" target="_top" xlink:title="An implementation of ID3v2 private frame.">
<polygon fill="white" stroke="#666666" points="486,-388.5 333,-388.5 333,-369.5 486,-369.5 486,-388.5"/>
<text text-anchor="middle" x="409.5" y="-376.5" font-family="Helvetica,sans-Serif" font-size="10.00">TagLib::ID3v2::PrivateFrame</text>
</a>
</g>
</g>
<!-- Node1&#45;&gt;Node12 -->
<g id="edge11_Node000001_Node000012" class="edge">
<title>Node1&#45;&gt;Node12</title>
<g id="a_edge11_Node000001_Node000012"><a xlink:title=" ">
<path fill="none" stroke="#63b8ff" d="M288.37,-379C302.83,-379 318.17,-379 332.87,-379"/>
<polygon fill="#63b8ff" stroke="#63b8ff" points="288.01,-375.5 278.01,-379 288.01,-382.5 288.01,-375.5"/>
</a>
</g>
</g>
<!-- Node13 -->
<g id="Node000013" class="node">
<title>Node13</title>
<g id="a_Node000013"><a xlink:href="classTagLib_1_1ID3v2_1_1RelativeVolumeFrame.html" target="_top" xlink:title="An ID3v2 relative volume adjustment frame implementation.">
<polygon fill="white" stroke="#666666" points="492,-351 327,-351 327,-321 492,-321 492,-351"/>
<text text-anchor="start" x="335" y="-339" font-family="Helvetica,sans-Serif" font-size="10.00">TagLib::ID3v2::RelativeVolume</text>
<text text-anchor="middle" x="409.5" y="-328" font-family="Helvetica,sans-Serif" font-size="10.00">Frame</text>
</a>
</g>
</g>
<!-- Node1&#45;&gt;Node13 -->
<g id="edge12_Node000001_Node000013" class="edge">
<title>Node1&#45;&gt;Node13</title>
<g id="a_edge12_Node000001_Node000013"><a xlink:title=" ">
<path fill="none" stroke="#63b8ff" d="M271.26,-367.22C293.26,-362.22 319.19,-356.32 342.54,-351.01"/>
<polygon fill="#63b8ff" stroke="#63b8ff" points="270.42,-363.83 261.45,-369.46 271.97,-370.65 270.42,-363.83"/>
</a>
</g>
</g>
<!-- Node14 -->
<g id="Node000014" class="node">
<title>Node14</title>
<g id="a_Node000014"><a xlink:href="classTagLib_1_1ID3v2_1_1SynchronizedLyricsFrame.html" target="_top" xlink:title="ID3v2 synchronized lyrics frame.">
<polygon fill="white" stroke="#666666" points="486,-303 333,-303 333,-273 486,-273 486,-303"/>
<text text-anchor="start" x="341" y="-291" font-family="Helvetica,sans-Serif" font-size="10.00">TagLib::ID3v2::Synchronized</text>
<text text-anchor="middle" x="409.5" y="-280" font-family="Helvetica,sans-Serif" font-size="10.00">LyricsFrame</text>
</a>
</g>
</g>
<!-- Node1&#45;&gt;Node14 -->
<g id="edge13_Node000001_Node000014" class="edge">
<title>Node1&#45;&gt;Node14</title>
<g id="a_edge13_Node000001_Node000014"><a xlink:title=" ">
<path fill="none" stroke="#63b8ff" d="M238.31,-362.46C256.51,-347.27 285.44,-325.19 314,-312 321.38,-308.59 329.31,-305.62 337.33,-303.04"/>
<polygon fill="#63b8ff" stroke="#63b8ff" points="235.64,-360.14 230.29,-369.29 240.18,-365.47 235.64,-360.14"/>
</a>
</g>
</g>
<!-- Node15 -->
<g id="Node000015" class="node">
<title>Node15</title>
<g id="a_Node000015"><a xlink:href="classTagLib_1_1ID3v2_1_1TableOfContentsFrame.html" target="_top" xlink:title="An implementation of ID3v2 table of contents frames.">
<polygon fill="white" stroke="#666666" points="493.5,-255 325.5,-255 325.5,-225 493.5,-225 493.5,-255"/>
<text text-anchor="start" x="333.5" y="-243" font-family="Helvetica,sans-Serif" font-size="10.00">TagLib::ID3v2::TableOfContents</text>
<text text-anchor="middle" x="409.5" y="-232" font-family="Helvetica,sans-Serif" font-size="10.00">Frame</text>
</a>
</g>
</g>
<!-- Node1&#45;&gt;Node15 -->
<g id="edge14_Node000001_Node000015" class="edge">
<title>Node1&#45;&gt;Node15</title>
<g id="a_edge14_Node000001_Node000015"><a xlink:title=" ">
<path fill="none" stroke="#63b8ff" d="M229.6,-360.45C244.57,-334.74 275.12,-288.69 314,-264 319.43,-260.55 325.33,-257.6 331.44,-255.07"/>
<polygon fill="#63b8ff" stroke="#63b8ff" points="226.52,-358.79 224.64,-369.21 232.61,-362.23 226.52,-358.79"/>
</a>
</g>
</g>
<!-- Node16 -->
<g id="Node000016" class="node">
<title>Node16</title>
<g id="a_Node000016"><a xlink:href="classTagLib_1_1ID3v2_1_1TextIdentificationFrame.html" target="_top" xlink:title="An ID3v2 text identification frame implementation.">
<polygon fill="white" stroke="#666666" points="495.5,-207 323.5,-207 323.5,-177 495.5,-177 495.5,-207"/>
<text text-anchor="start" x="331.5" y="-195" font-family="Helvetica,sans-Serif" font-size="10.00">TagLib::ID3v2::TextIdentification</text>
<text text-anchor="middle" x="409.5" y="-184" font-family="Helvetica,sans-Serif" font-size="10.00">Frame</text>
</a>
</g>
</g>
<!-- Node1&#45;&gt;Node16 -->
<g id="edge15_Node000001_Node000016" class="edge">
<title>Node1&#45;&gt;Node16</title>
<g id="a_edge15_Node000001_Node000016"><a xlink:title=" ">
<path fill="none" stroke="#63b8ff" d="M225.31,-359.28C236.53,-324.72 264.55,-253.37 314,-216 318.59,-212.53 323.63,-209.56 328.92,-207.02"/>
<polygon fill="#63b8ff" stroke="#63b8ff" points="221.88,-358.53 222.25,-369.11 228.56,-360.6 221.88,-358.53"/>
</a>
</g>
</g>
<!-- Node18 -->
<g id="Node000018" class="node">
<title>Node18</title>
<g id="a_Node000018"><a xlink:href="classTagLib_1_1ID3v2_1_1UniqueFileIdentifierFrame.html" target="_top" xlink:title="An implementation of ID3v2 unique identifier frames.">
<polygon fill="white" stroke="#666666" points="479.5,-159 339.5,-159 339.5,-129 479.5,-129 479.5,-159"/>
<text text-anchor="start" x="347.5" y="-147" font-family="Helvetica,sans-Serif" font-size="10.00">TagLib::ID3v2::UniqueFile</text>
<text text-anchor="middle" x="409.5" y="-136" font-family="Helvetica,sans-Serif" font-size="10.00">IdentifierFrame</text>
</a>
</g>
</g>
<!-- Node1&#45;&gt;Node18 -->
<g id="edge17_Node000001_Node000018" class="edge">
<title>Node1&#45;&gt;Node18</title>
<g id="a_edge17_Node000001_Node000018"><a xlink:title=" ">
<path fill="none" stroke="#63b8ff" d="M222.5,-359.2C229.94,-317.26 253.22,-219.11 314,-168 321.38,-161.79 330.17,-157.16 339.35,-153.7"/>
<polygon fill="#63b8ff" stroke="#63b8ff" points="219.02,-358.81 220.84,-369.24 225.93,-359.95 219.02,-358.81"/>
</a>
</g>
</g>
<!-- Node19 -->
<g id="Node000019" class="node">
<title>Node19</title>
<g id="a_Node000019"><a xlink:href="classTagLib_1_1ID3v2_1_1UnknownFrame.html" target="_top" xlink:title="A frame type unknown to TagLib.">
<polygon fill="white" stroke="#666666" points="491.5,-110.5 327.5,-110.5 327.5,-91.5 491.5,-91.5 491.5,-110.5"/>
<text text-anchor="middle" x="409.5" y="-98.5" font-family="Helvetica,sans-Serif" font-size="10.00">TagLib::ID3v2::UnknownFrame</text>
</a>
</g>
</g>
<!-- Node1&#45;&gt;Node19 -->
<g id="edge18_Node000001_Node000019" class="edge">
<title>Node1&#45;&gt;Node19</title>
<g id="a_edge18_Node000001_Node000019"><a xlink:title=" ">
<path fill="none" stroke="#63b8ff" d="M220.44,-359.25C223.88,-310.48 239.88,-183.67 314,-120 318.32,-116.29 323.15,-113.23 328.3,-110.72"/>
<polygon fill="#63b8ff" stroke="#63b8ff" points="216.93,-359.22 219.83,-369.41 223.92,-359.63 216.93,-359.22"/>
</a>
</g>
</g>
<!-- Node20 -->
<g id="Node000020" class="node">
<title>Node20</title>
<g id="a_Node000020"><a xlink:href="classTagLib_1_1ID3v2_1_1UnsynchronizedLyricsFrame.html" target="_top" xlink:title="ID3v2 unsynchronized lyrics frame.">
<polygon fill="white" stroke="#666666" points="492.5,-73 326.5,-73 326.5,-43 492.5,-43 492.5,-73"/>
<text text-anchor="start" x="334.5" y="-61" font-family="Helvetica,sans-Serif" font-size="10.00">TagLib::ID3v2::Unsynchronized</text>
<text text-anchor="middle" x="409.5" y="-50" font-family="Helvetica,sans-Serif" font-size="10.00">LyricsFrame</text>
</a>
</g>
</g>
<!-- Node1&#45;&gt;Node20 -->
<g id="edge19_Node000001_Node000020" class="edge">
<title>Node1&#45;&gt;Node20</title>
<g id="a_edge19_Node000001_Node000020"><a xlink:title=" ">
<path fill="none" stroke="#63b8ff" d="M219.6,-359.19C220.98,-306 232.37,-158.92 314,-82 317.7,-78.52 321.82,-75.52 326.23,-72.95"/>
<polygon fill="#63b8ff" stroke="#63b8ff" points="216.09,-359.26 219.43,-369.32 223.09,-359.37 216.09,-359.26"/>
</a>
</g>
</g>
<!-- Node21 -->
<g id="Node000021" class="node">
<title>Node21</title>
<g id="a_Node000021"><a xlink:href="classTagLib_1_1ID3v2_1_1UrlLinkFrame.html" target="_top" xlink:title="ID3v2 URL frame.">
<polygon fill="white" stroke="#666666" points="486,-24.5 333,-24.5 333,-5.5 486,-5.5 486,-24.5"/>
<text text-anchor="middle" x="409.5" y="-12.5" font-family="Helvetica,sans-Serif" font-size="10.00">TagLib::ID3v2::UrlLinkFrame</text>
</a>
</g>
</g>
<!-- Node1&#45;&gt;Node21 -->
<g id="edge20_Node000001_Node000021" class="edge">
<title>Node1&#45;&gt;Node21</title>
<g id="a_edge20_Node000001_Node000021"><a xlink:title=" ">
<path fill="none" stroke="#63b8ff" d="M222.17,-359.28C231.55,-292.98 265.07,-79.66 314,-34 319.51,-28.86 326,-24.94 332.95,-21.97"/>
<polygon fill="#63b8ff" stroke="#63b8ff" points="218.69,-358.87 220.79,-369.25 225.63,-359.83 218.69,-358.87"/>
</a>
</g>
</g>
<!-- Node2 -->
<g id="Node000002" class="node">
<title>Node2</title>
<g id="a_Node000002"><a xlink:href="classTagLib_1_1ID3v2_1_1Header.html" target="_top" xlink:title="An implementation of ID3v2 headers.">
<polygon fill="white" stroke="#666666" points="123,-388.5 0,-388.5 0,-369.5 123,-369.5 123,-388.5"/>
<text text-anchor="middle" x="61.5" y="-376.5" font-family="Helvetica,sans-Serif" font-size="10.00">TagLib::ID3v2::Header</text>
</a>
</g>
</g>
<!-- Node2&#45;&gt;Node1 -->
<g id="edge1_Node000001_Node000002" class="edge">
<title>Node2&#45;&gt;Node1</title>
<g id="a_edge1_Node000001_Node000002"><a xlink:title=" ">
<path fill="none" stroke="#8b1a1a" d="M133.57,-379C142.04,-379 150.62,-379 158.89,-379"/>
<polygon fill="#8b1a1a" stroke="#8b1a1a" points="133.32,-375.5 123.32,-379 133.32,-382.5 133.32,-375.5"/>
</a>
</g>
</g>
<!-- Node4 -->
<g id="Node000004" class="node">
<title>Node4</title>
<g id="a_Node000004"><a xlink:href="classTagLib_1_1ID3v2_1_1AttachedPictureFrameV22.html" target="_top" xlink:title="support for ID3v2.2 PIC frames">
<polygon fill="white" stroke="#666666" points="720.5,-742 555.5,-742 555.5,-712 720.5,-712 720.5,-742"/>
<text text-anchor="start" x="563.5" y="-730" font-family="Helvetica,sans-Serif" font-size="10.00">TagLib::ID3v2::AttachedPicture</text>
<text text-anchor="middle" x="638" y="-719" font-family="Helvetica,sans-Serif" font-size="10.00">FrameV22</text>
</a>
</g>
</g>
<!-- Node3&#45;&gt;Node4 -->
<g id="edge3_Node000003_Node000004" class="edge">
<title>Node3&#45;&gt;Node4</title>
<g id="a_edge3_Node000003_Node000004"><a xlink:title=" ">
<path fill="none" stroke="#63b8ff" d="M502.48,-727C519.99,-727 538.19,-727 555.35,-727"/>
<polygon fill="#63b8ff" stroke="#63b8ff" points="502.27,-723.5 492.27,-727 502.27,-730.5 502.27,-723.5"/>
</a>
</g>
</g>
<!-- Node17 -->
<g id="Node000017" class="node">
<title>Node17</title>
<g id="a_Node000017"><a xlink:href="classTagLib_1_1ID3v2_1_1UserTextIdentificationFrame.html" target="_top" xlink:title="An ID3v2 custom text identification frame implementation.">
<polygon fill="white" stroke="#666666" points="735,-207 541,-207 541,-177 735,-177 735,-207"/>
<text text-anchor="start" x="549" y="-195" font-family="Helvetica,sans-Serif" font-size="10.00">TagLib::ID3v2::UserTextIdentification</text>
<text text-anchor="middle" x="638" y="-184" font-family="Helvetica,sans-Serif" font-size="10.00">Frame</text>
</a>
</g>
</g>
<!-- Node16&#45;&gt;Node17 -->
<g id="edge16_Node000016_Node000017" class="edge">
<title>Node16&#45;&gt;Node17</title>
<g id="a_edge16_Node000016_Node000017"><a xlink:title=" ">
<path fill="none" stroke="#63b8ff" d="M505.87,-192C517.41,-192 529.2,-192 540.75,-192"/>
<polygon fill="#63b8ff" stroke="#63b8ff" points="505.81,-188.5 495.81,-192 505.81,-195.5 505.81,-188.5"/>
</a>
</g>
</g>
<!-- Node22 -->
<g id="Node000022" class="node">
<title>Node22</title>
<g id="a_Node000022"><a xlink:href="classTagLib_1_1ID3v2_1_1UserUrlLinkFrame.html" target="_top" xlink:title="ID3v2 User defined URL frame.">
<polygon fill="white" stroke="#666666" points="710.5,-30 565.5,-30 565.5,0 710.5,0 710.5,-30"/>
<text text-anchor="start" x="573.5" y="-18" font-family="Helvetica,sans-Serif" font-size="10.00">TagLib::ID3v2::UserUrlLink</text>
<text text-anchor="middle" x="638" y="-7" font-family="Helvetica,sans-Serif" font-size="10.00">Frame</text>
</a>
</g>
</g>
<!-- Node21&#45;&gt;Node22 -->
<g id="edge21_Node000021_Node000022" class="edge">
<title>Node21&#45;&gt;Node22</title>
<g id="a_edge21_Node000021_Node000022"><a xlink:title=" ">
<path fill="none" stroke="#63b8ff" d="M496.52,-15C519.17,-15 543.36,-15 565.17,-15"/>
<polygon fill="#63b8ff" stroke="#63b8ff" points="496.24,-11.5 486.24,-15 496.24,-18.5 496.24,-11.5"/>
</a>
</g>
</g>
</g>
</svg>
