<?xml version="1.0" encoding="UTF-8" standalone="no"?>
<!DOCTYPE svg PUBLIC "-//W3C//DTD SVG 1.1//EN"
 "http://www.w3.org/Graphics/SVG/1.1/DTD/svg11.dtd">
<!-- Generated by graphviz version 2.46.1 (20210213.1702)
 -->
<!-- Title: commentsframe.h Pages: 1 -->
<svg width="347pt" height="308pt"
 viewBox="0.00 0.00 347.00 308.00" xmlns="http://www.w3.org/2000/svg" xmlns:xlink="http://www.w3.org/1999/xlink">
<g id="graph0" class="graph" transform="scale(1 1) rotate(0) translate(4 304)">
<title>commentsframe.h</title>
<polygon fill="white" stroke="transparent" points="-4,4 -4,-304 343,-304 343,4 -4,4"/>
<!-- Node1 -->
<g id="node1" class="node">
<title>Node1</title>
<g id="a_node1"><a xlink:title=" ">
<polygon fill="#bfbfbf" stroke="black" points="0,-280.5 0,-299.5 95,-299.5 95,-280.5 0,-280.5"/>
<text text-anchor="middle" x="47.5" y="-287.5" font-family="Helvetica,sans-Serif" font-size="10.00">commentsframe.h</text>
</a>
</g>
</g>
<!-- Node2 -->
<g id="node2" class="node">
<title>Node2</title>
<g id="a_node2"><a xlink:href="id3v2frame_8h.html" target="_top" xlink:title=" ">
<polygon fill="white" stroke="black" points="55,-224.5 55,-243.5 128,-243.5 128,-224.5 55,-224.5"/>
<text text-anchor="middle" x="91.5" y="-231.5" font-family="Helvetica,sans-Serif" font-size="10.00">id3v2frame.h</text>
</a>
</g>
</g>
<!-- Node1&#45;&gt;Node2 -->
<g id="edge1" class="edge">
<title>Node1&#45;&gt;Node2</title>
<path fill="none" stroke="midnightblue" d="M54.77,-280.08C61.04,-272.38 70.29,-261.03 77.93,-251.65"/>
<polygon fill="midnightblue" stroke="midnightblue" points="80.77,-253.71 84.37,-243.75 75.34,-249.29 80.77,-253.71"/>
</g>
<!-- Node4 -->
<g id="node4" class="node">
<title>Node4</title>
<g id="a_node4"><a xlink:href="taglib__export_8h.html" target="_top" xlink:title=" ">
<polygon fill="white" stroke="black" points="10.5,-56.5 10.5,-75.5 90.5,-75.5 90.5,-56.5 10.5,-56.5"/>
<text text-anchor="middle" x="50.5" y="-63.5" font-family="Helvetica,sans-Serif" font-size="10.00">taglib_export.h</text>
</a>
</g>
</g>
<!-- Node1&#45;&gt;Node4 -->
<g id="edge16" class="edge">
<title>Node1&#45;&gt;Node4</title>
<path fill="none" stroke="midnightblue" d="M47,-280.38C46.51,-271.32 45.78,-256.67 45.5,-244 44.22,-186.52 47.48,-118.55 49.33,-86.1"/>
<polygon fill="midnightblue" stroke="midnightblue" points="52.84,-86.03 49.93,-75.84 45.85,-85.62 52.84,-86.03"/>
</g>
<!-- Node3 -->
<g id="node3" class="node">
<title>Node3</title>
<g id="a_node3"><a xlink:href="tstring_8h.html" target="_top" xlink:title=" ">
<polygon fill="white" stroke="black" points="159.5,-168.5 159.5,-187.5 211.5,-187.5 211.5,-168.5 159.5,-168.5"/>
<text text-anchor="middle" x="185.5" y="-175.5" font-family="Helvetica,sans-Serif" font-size="10.00">tstring.h</text>
</a>
</g>
</g>
<!-- Node2&#45;&gt;Node3 -->
<g id="edge2" class="edge">
<title>Node2&#45;&gt;Node3</title>
<path fill="none" stroke="midnightblue" d="M106.6,-224.32C121.4,-215.82 144.19,-202.73 161.48,-192.8"/>
<polygon fill="midnightblue" stroke="midnightblue" points="163.51,-195.67 170.43,-187.65 160.02,-189.6 163.51,-195.67"/>
</g>
<!-- Node2&#45;&gt;Node4 -->
<g id="edge15" class="edge">
<title>Node2&#45;&gt;Node4</title>
<path fill="none" stroke="midnightblue" d="M89.3,-224.08C82.84,-197.95 63.89,-121.21 55.09,-85.58"/>
<polygon fill="midnightblue" stroke="midnightblue" points="58.41,-84.44 52.62,-75.57 51.62,-86.12 58.41,-84.44"/>
</g>
<!-- Node8 -->
<g id="node8" class="node">
<title>Node8</title>
<g id="a_node8"><a xlink:href="tbytevector_8h.html" target="_top" xlink:title=" ">
<polygon fill="white" stroke="black" points="120,-112.5 120,-131.5 193,-131.5 193,-112.5 120,-112.5"/>
<text text-anchor="middle" x="156.5" y="-119.5" font-family="Helvetica,sans-Serif" font-size="10.00">tbytevector.h</text>
</a>
</g>
</g>
<!-- Node2&#45;&gt;Node8 -->
<g id="edge14" class="edge">
<title>Node2&#45;&gt;Node8</title>
<path fill="none" stroke="midnightblue" d="M96.6,-224.37C107.28,-206.3 132.17,-164.18 146.27,-140.31"/>
<polygon fill="midnightblue" stroke="midnightblue" points="149.35,-141.98 151.42,-131.59 143.32,-138.42 149.35,-141.98"/>
</g>
<!-- Node3&#45;&gt;Node4 -->
<g id="edge3" class="edge">
<title>Node3&#45;&gt;Node4</title>
<path fill="none" stroke="midnightblue" d="M168.22,-168.45C152.4,-160.22 128.76,-146.85 110.5,-132 92.54,-117.39 74.93,-97.46 63.49,-83.53"/>
<polygon fill="midnightblue" stroke="midnightblue" points="66.21,-81.32 57.21,-75.73 60.75,-85.72 66.21,-81.32"/>
</g>
<!-- Node5 -->
<g id="node5" class="node">
<title>Node5</title>
<g id="a_node5"><a xlink:href="taglib_8h.html" target="_top" xlink:title=" ">
<polygon fill="white" stroke="black" points="242.5,-56.5 242.5,-75.5 290.5,-75.5 290.5,-56.5 242.5,-56.5"/>
<text text-anchor="middle" x="266.5" y="-63.5" font-family="Helvetica,sans-Serif" font-size="10.00">taglib.h</text>
</a>
</g>
</g>
<!-- Node3&#45;&gt;Node5 -->
<g id="edge4" class="edge">
<title>Node3&#45;&gt;Node5</title>
<path fill="none" stroke="midnightblue" d="M191.86,-168.37C205.28,-150.14 236.73,-107.43 254.22,-83.68"/>
<polygon fill="midnightblue" stroke="midnightblue" points="257.06,-85.72 260.17,-75.59 251.43,-81.57 257.06,-85.72"/>
</g>
<!-- Node7 -->
<g id="node7" class="node">
<title>Node7</title>
<g id="a_node7"><a xlink:title=" ">
<polygon fill="white" stroke="#bfbfbf" points="298,-0.5 298,-19.5 339,-19.5 339,-0.5 298,-0.5"/>
<text text-anchor="middle" x="318.5" y="-7.5" font-family="Helvetica,sans-Serif" font-size="10.00">string</text>
</a>
</g>
</g>
<!-- Node3&#45;&gt;Node7 -->
<g id="edge12" class="edge">
<title>Node3&#45;&gt;Node7</title>
<path fill="none" stroke="midnightblue" d="M199.84,-168.37C224.17,-152.95 273.43,-118.32 299.5,-76 308.27,-61.77 313.16,-43.29 315.77,-29.68"/>
<polygon fill="midnightblue" stroke="midnightblue" points="319.26,-30.03 317.47,-19.59 312.36,-28.87 319.26,-30.03"/>
</g>
<!-- Node3&#45;&gt;Node8 -->
<g id="edge7" class="edge">
<title>Node3&#45;&gt;Node8</title>
<path fill="none" stroke="midnightblue" d="M180.71,-168.08C176.74,-160.69 170.97,-149.95 166.07,-140.81"/>
<polygon fill="midnightblue" stroke="midnightblue" points="169.01,-138.91 161.2,-131.75 162.85,-142.22 169.01,-138.91"/>
</g>
<!-- Node10 -->
<g id="node10" class="node">
<title>Node10</title>
<g id="a_node10"><a xlink:title=" ">
<polygon fill="white" stroke="#bfbfbf" points="170.5,-56.5 170.5,-75.5 224.5,-75.5 224.5,-56.5 170.5,-56.5"/>
<text text-anchor="middle" x="197.5" y="-63.5" font-family="Helvetica,sans-Serif" font-size="10.00">iostream</text>
</a>
</g>
</g>
<!-- Node3&#45;&gt;Node10 -->
<g id="edge13" class="edge">
<title>Node3&#45;&gt;Node10</title>
<path fill="none" stroke="midnightblue" d="M189.87,-168.31C194.06,-159.44 200.1,-145.14 202.5,-132 205.3,-116.67 203.64,-99.03 201.51,-86"/>
<polygon fill="midnightblue" stroke="midnightblue" points="204.9,-85.09 199.62,-75.91 198.02,-86.38 204.9,-85.09"/>
</g>
<!-- Node6 -->
<g id="node6" class="node">
<title>Node6</title>
<g id="a_node6"><a xlink:title=" ">
<polygon fill="white" stroke="#bfbfbf" points="199.5,-0.5 199.5,-19.5 279.5,-19.5 279.5,-0.5 199.5,-0.5"/>
<text text-anchor="middle" x="239.5" y="-7.5" font-family="Helvetica,sans-Serif" font-size="10.00">taglib_config.h</text>
</a>
</g>
</g>
<!-- Node5&#45;&gt;Node6 -->
<g id="edge5" class="edge">
<title>Node5&#45;&gt;Node6</title>
<path fill="none" stroke="midnightblue" d="M262.04,-56.08C258.35,-48.69 252.98,-37.95 248.41,-28.81"/>
<polygon fill="midnightblue" stroke="midnightblue" points="251.48,-27.13 243.88,-19.75 245.22,-30.26 251.48,-27.13"/>
</g>
<!-- Node5&#45;&gt;Node7 -->
<g id="edge6" class="edge">
<title>Node5&#45;&gt;Node7</title>
<path fill="none" stroke="midnightblue" d="M275.09,-56.08C282.66,-48.22 293.88,-36.57 303.01,-27.08"/>
<polygon fill="midnightblue" stroke="midnightblue" points="305.66,-29.38 310.07,-19.75 300.62,-24.53 305.66,-29.38"/>
</g>
<!-- Node8&#45;&gt;Node4 -->
<g id="edge9" class="edge">
<title>Node8&#45;&gt;Node4</title>
<path fill="none" stroke="midnightblue" d="M139.47,-112.32C122.47,-103.66 96.12,-90.24 76.51,-80.25"/>
<polygon fill="midnightblue" stroke="midnightblue" points="77.99,-77.08 67.49,-75.65 74.81,-83.31 77.99,-77.08"/>
</g>
<!-- Node8&#45;&gt;Node5 -->
<g id="edge8" class="edge">
<title>Node8&#45;&gt;Node5</title>
<path fill="none" stroke="midnightblue" d="M174.17,-112.32C191.89,-103.62 219.4,-90.12 239.79,-80.11"/>
<polygon fill="midnightblue" stroke="midnightblue" points="241.44,-83.2 248.87,-75.65 238.35,-76.92 241.44,-83.2"/>
</g>
<!-- Node9 -->
<g id="node9" class="node">
<title>Node9</title>
<g id="a_node9"><a xlink:title=" ">
<polygon fill="white" stroke="#bfbfbf" points="108.5,-56.5 108.5,-75.5 152.5,-75.5 152.5,-56.5 108.5,-56.5"/>
<text text-anchor="middle" x="130.5" y="-63.5" font-family="Helvetica,sans-Serif" font-size="10.00">vector</text>
</a>
</g>
</g>
<!-- Node8&#45;&gt;Node9 -->
<g id="edge10" class="edge">
<title>Node8&#45;&gt;Node9</title>
<path fill="none" stroke="midnightblue" d="M152.21,-112.08C148.65,-104.69 143.48,-93.95 139.08,-84.81"/>
<polygon fill="midnightblue" stroke="midnightblue" points="142.21,-83.24 134.71,-75.75 135.9,-86.28 142.21,-83.24"/>
</g>
<!-- Node8&#45;&gt;Node10 -->
<g id="edge11" class="edge">
<title>Node8&#45;&gt;Node10</title>
<path fill="none" stroke="midnightblue" d="M163.27,-112.08C169.06,-104.46 177.56,-93.26 184.64,-83.94"/>
<polygon fill="midnightblue" stroke="midnightblue" points="187.6,-85.83 190.86,-75.75 182.02,-81.6 187.6,-85.83"/>
</g>
</g>
</svg>
