<?xml version="1.0" encoding="UTF-8" standalone="no"?>
<!DOCTYPE svg PUBLIC "-//W3C//DTD SVG 1.1//EN"
 "http://www.w3.org/Graphics/SVG/1.1/DTD/svg11.dtd">
<!-- Generated by graphviz version 2.43.0 (0)
 -->
<!-- Title: mpeg Pages: 1 -->
<svg width="182pt" height="247pt"
 viewBox="0.00 0.00 182.00 247.00" xmlns="http://www.w3.org/2000/svg" xmlns:xlink="http://www.w3.org/1999/xlink">
<g id="graph0" class="graph" transform="scale(1 1) rotate(0) translate(4 243)">
<title>mpeg</title>
<polygon fill="white" stroke="transparent" points="-4,4 -4,-243 178,-243 178,4 -4,4"/>
<g id="clust1" class="cluster">
<title>clusterdir_501f9c1866672ad030f4cfda4b04b1dc</title>
<g id="a_clust1"><a xlink:href="dir_501f9c1866672ad030f4cfda4b04b1dc.html" target="_top" xlink:title="taglib">
<polygon fill="#ddddee" stroke="black" points="8,-8 8,-231 166,-231 166,-8 8,-8"/>
<text text-anchor="middle" x="87" y="-219" font-family="Helvetica,sans-Serif" font-size="10.00">taglib</text>
</a>
</g>
</g>
<g id="clust2" class="cluster">
<title>clusterdir_cecf31b85937f05106fcc9fdbed9124e</title>
<g id="a_clust2"><a xlink:href="dir_cecf31b85937f05106fcc9fdbed9124e.html" target="_top">
<polygon fill="#eeeeff" stroke="black" points="16,-80 16,-204 158,-204 158,-80 16,-80"/>
</a>
</g>
</g>
<!-- dir_6c55353c8ddedc1504b0a543e75141a6 -->
<g id="node1" class="node">
<title>dir_6c55353c8ddedc1504b0a543e75141a6</title>
<g id="a_node1"><a xlink:href="dir_6c55353c8ddedc1504b0a543e75141a6.html" target="_top" xlink:title="toolkit">
<polygon fill="none" stroke="black" points="117,-52 63,-52 63,-16 117,-16 117,-52"/>
<text text-anchor="middle" x="90" y="-31.5" font-family="Helvetica,sans-Serif" font-size="10.00">toolkit</text>
</a>
</g>
</g>
<!-- dir_cecf31b85937f05106fcc9fdbed9124e -->
<g id="node2" class="node">
<title>dir_cecf31b85937f05106fcc9fdbed9124e</title>
<text text-anchor="middle" x="51" y="-175.5" font-family="Helvetica,sans-Serif" font-size="10.00">mpeg</text>
</g>
<!-- dir_118cdcd9d2449bb37beeb65153949d53 -->
<g id="node4" class="node">
<title>dir_118cdcd9d2449bb37beeb65153949d53</title>
<g id="a_node4"><a xlink:href="dir_118cdcd9d2449bb37beeb65153949d53.html" target="_top" xlink:title="id3v2">
<polygon fill="white" stroke="red" points="91,-124 37,-124 37,-88 91,-88 91,-124"/>
<text text-anchor="middle" x="64" y="-103.5" font-family="Helvetica,sans-Serif" font-size="10.00">id3v2</text>
</a>
</g>
</g>
<!-- dir_cecf31b85937f05106fcc9fdbed9124e&#45;&gt;dir_118cdcd9d2449bb37beeb65153949d53 -->
<g id="edge2" class="edge">
<title>dir_cecf31b85937f05106fcc9fdbed9124e&#45;&gt;dir_118cdcd9d2449bb37beeb65153949d53</title>
<path fill="none" stroke="black" d="M54.21,-159.7C55.65,-151.98 57.37,-142.71 58.96,-134.11"/>
<polygon fill="black" stroke="black" points="62.44,-134.58 60.82,-124.1 55.56,-133.3 62.44,-134.58"/>
<g id="a_edge2&#45;headlabel"><a xlink:href="dir_000006_000007.html" target="_top" xlink:title="1">
<text text-anchor="middle" x="64.57" y="-136.13" font-family="Helvetica,sans-Serif" font-size="10.00">1</text>
</a>
</g>
</g>
<!-- dir_012effd8b15411c766dfa70a1efe8602 -->
<g id="node3" class="node">
<title>dir_012effd8b15411c766dfa70a1efe8602</title>
<g id="a_node3"><a xlink:href="dir_012effd8b15411c766dfa70a1efe8602.html" target="_top" xlink:title="id3v1">
<polygon fill="white" stroke="black" points="150,-196 96,-196 96,-160 150,-160 150,-196"/>
<text text-anchor="middle" x="123" y="-175.5" font-family="Helvetica,sans-Serif" font-size="10.00">id3v1</text>
</a>
</g>
</g>
<!-- dir_012effd8b15411c766dfa70a1efe8602&#45;&gt;dir_6c55353c8ddedc1504b0a543e75141a6 -->
<g id="edge3" class="edge">
<title>dir_012effd8b15411c766dfa70a1efe8602&#45;&gt;dir_6c55353c8ddedc1504b0a543e75141a6</title>
<path fill="none" stroke="black" d="M119.02,-159.87C113.37,-135.56 102.97,-90.82 96.28,-62.01"/>
<polygon fill="black" stroke="black" points="99.67,-61.14 93.99,-52.19 92.85,-62.72 99.67,-61.14"/>
<g id="a_edge3&#45;headlabel"><a xlink:href="dir_000010_000021.html" target="_top" xlink:title="3">
<text text-anchor="middle" x="103.25" y="-61.5" font-family="Helvetica,sans-Serif" font-size="10.00">3</text>
</a>
</g>
</g>
<!-- dir_118cdcd9d2449bb37beeb65153949d53&#45;&gt;dir_6c55353c8ddedc1504b0a543e75141a6 -->
<g id="edge1" class="edge">
<title>dir_118cdcd9d2449bb37beeb65153949d53&#45;&gt;dir_6c55353c8ddedc1504b0a543e75141a6</title>
<path fill="none" stroke="black" d="M70.43,-87.7C73.36,-79.81 76.89,-70.3 80.14,-61.55"/>
<polygon fill="black" stroke="black" points="83.45,-62.7 83.65,-52.1 76.88,-60.26 83.45,-62.7"/>
<g id="a_edge1&#45;headlabel"><a xlink:href="dir_000007_000021.html" target="_top" xlink:title="19">
<text text-anchor="middle" x="84.86" y="-64.56" font-family="Helvetica,sans-Serif" font-size="10.00">19</text>
</a>
</g>
</g>
</g>
</svg>
