<?xml version="1.0" encoding="UTF-8" standalone="no"?>
<!DOCTYPE svg PUBLIC "-//W3C//DTD SVG 1.1//EN"
 "http://www.w3.org/Graphics/SVG/1.1/DTD/svg11.dtd">
<!-- Generated by graphviz version 2.42.4 (0)
 -->
<!-- Title: taglib Pages: 1 -->
<svg width="937pt" height="204pt"
 viewBox="0.00 0.00 937.00 204.00" xmlns="http://www.w3.org/2000/svg" xmlns:xlink="http://www.w3.org/1999/xlink">
<g id="graph0" class="graph" transform="scale(1 1) rotate(0) translate(4 200)">
<title>taglib</title>
<g id="clust1" class="cluster">
<title>clusterdir_b2f33c71d4aa5e7af42a1ca61ff5af1b</title>
<g id="a_clust1"><a xlink:href="dir_b2f33c71d4aa5e7af42a1ca61ff5af1b.html" target="_top" xlink:title="source">
<polygon fill="#edf0f7" stroke="#404040" stroke-dasharray="5,2" points="8,-8 8,-188 921,-188 921,-8 8,-8"/>
<text text-anchor="middle" x="464.5" y="-176" font-family="Helvetica,sans-Serif" font-size="10.00">source</text>
</a>
</g>
</g>
<g id="clust2" class="cluster">
<title>clusterdir_501f9c1866672ad030f4cfda4b04b1dc</title>
<g id="a_clust2"><a xlink:href="dir_501f9c1866672ad030f4cfda4b04b1dc.html" target="_top">
<polygon fill="#edf0f7" stroke="#404040" stroke-width="2" points="16,-16 16,-161 913,-161 913,-16 16,-16"/>
</a>
</g>
</g>
<!-- dir_501f9c1866672ad030f4cfda4b04b1dc -->
<g id="node1" class="node">
<title>dir_501f9c1866672ad030f4cfda4b04b1dc</title>
<text text-anchor="middle" x="883" y="-86" font-family="Helvetica,sans-Serif" font-size="10.00">taglib</text>
</g>
<!-- dir_6c55353c8ddedc1504b0a543e75141a6 -->
<g id="node17" class="node">
<title>dir_6c55353c8ddedc1504b0a543e75141a6</title>
<g id="a_node17"><a xlink:href="dir_6c55353c8ddedc1504b0a543e75141a6.html" target="_top" xlink:title="toolkit">
<polygon fill="#a2b4d6" stroke="#404040" points="468,-43 420,-43 420,-24 468,-24 468,-43"/>
<text text-anchor="middle" x="444" y="-31" font-family="Helvetica,sans-Serif" font-size="10.00">toolkit</text>
</a>
</g>
</g>
<!-- dir_501f9c1866672ad030f4cfda4b04b1dc&#45;&gt;dir_6c55353c8ddedc1504b0a543e75141a6 -->
<g id="edge1" class="edge">
<title>dir_501f9c1866672ad030f4cfda4b04b1dc&#45;&gt;dir_6c55353c8ddedc1504b0a543e75141a6</title>
<g id="a_edge1"><a xlink:href="dir_000024_000025.html" target="_top">
<path fill="none" stroke="#63b8ff" d="M860.75,-80.94C857.82,-80.22 854.85,-79.54 852,-79 714.85,-52.89 548.63,-40.68 478.19,-36.39"/>
<polygon fill="#63b8ff" stroke="#63b8ff" points="478.3,-32.89 468.11,-35.79 477.89,-39.88 478.3,-32.89"/>
</a>
</g>
<g id="a_edge1&#45;headlabel"><a xlink:href="dir_000024_000025.html" target="_top" xlink:title="113">
<text text-anchor="middle" x="482.06" y="-27.77" font-family="Helvetica,sans-Serif" font-size="10.00" fill="#63b8ff">113</text>
</a>
</g>
</g>
<!-- dir_6ac7b66c0b3a7e0af392b8cc062c341b -->
<g id="node2" class="node">
<title>dir_6ac7b66c0b3a7e0af392b8cc062c341b</title>
<g id="a_node2"><a xlink:href="dir_6ac7b66c0b3a7e0af392b8cc062c341b.html" target="_top" xlink:title="ape">
<polygon fill="#a2b4d6" stroke="#404040" points="842.5,-98 807.5,-98 807.5,-79 842.5,-79 842.5,-98"/>
<text text-anchor="middle" x="825" y="-86" font-family="Helvetica,sans-Serif" font-size="10.00">ape</text>
</a>
</g>
</g>
<!-- dir_6ac7b66c0b3a7e0af392b8cc062c341b&#45;&gt;dir_6c55353c8ddedc1504b0a543e75141a6 -->
<g id="edge2" class="edge">
<title>dir_6ac7b66c0b3a7e0af392b8cc062c341b&#45;&gt;dir_6c55353c8ddedc1504b0a543e75141a6</title>
<g id="a_edge2"><a xlink:href="dir_000001_000025.html" target="_top">
<path fill="none" stroke="#63b8ff" d="M807.4,-81.46C804.3,-80.54 801.07,-79.67 798,-79 682.44,-53.76 542.32,-41.42 478.57,-36.77"/>
<polygon fill="#63b8ff" stroke="#63b8ff" points="478.51,-33.26 468.29,-36.04 478.02,-40.24 478.51,-33.26"/>
</a>
</g>
<g id="a_edge2&#45;headlabel"><a xlink:href="dir_000001_000025.html" target="_top" xlink:title="10">
<text text-anchor="middle" x="482.3" y="-28.18" font-family="Helvetica,sans-Serif" font-size="10.00" fill="#63b8ff">10</text>
</a>
</g>
</g>
<!-- dir_778a302a79b7be7ce7f0e58a72b993dc -->
<g id="node3" class="node">
<title>dir_778a302a79b7be7ce7f0e58a72b993dc</title>
<g id="a_node3"><a xlink:href="dir_778a302a79b7be7ce7f0e58a72b993dc.html" target="_top" xlink:title="asf">
<polygon fill="#a2b4d6" stroke="#404040" points="789,-98 757,-98 757,-79 789,-79 789,-98"/>
<text text-anchor="middle" x="773" y="-86" font-family="Helvetica,sans-Serif" font-size="10.00">asf</text>
</a>
</g>
</g>
<!-- dir_778a302a79b7be7ce7f0e58a72b993dc&#45;&gt;dir_6c55353c8ddedc1504b0a543e75141a6 -->
<g id="edge3" class="edge">
<title>dir_778a302a79b7be7ce7f0e58a72b993dc&#45;&gt;dir_6c55353c8ddedc1504b0a543e75141a6</title>
<g id="a_edge3"><a xlink:href="dir_000002_000025.html" target="_top">
<path fill="none" stroke="#63b8ff" d="M756.9,-82.53C752.43,-81.26 747.55,-79.98 743,-79 648.04,-58.57 534.11,-44.42 478.27,-38.15"/>
<polygon fill="#63b8ff" stroke="#63b8ff" points="478.54,-34.66 468.22,-37.04 477.77,-41.62 478.54,-34.66"/>
</a>
</g>
<g id="a_edge3&#45;headlabel"><a xlink:href="dir_000002_000025.html" target="_top" xlink:title="9">
<text text-anchor="middle" x="482.43" y="-29.73" font-family="Helvetica,sans-Serif" font-size="10.00" fill="#63b8ff">9</text>
</a>
</g>
</g>
<!-- dir_9e6fcbbe14d0c1ffd0dbf060977af8ab -->
<g id="node4" class="node">
<title>dir_9e6fcbbe14d0c1ffd0dbf060977af8ab</title>
<g id="a_node4"><a xlink:href="dir_9e6fcbbe14d0c1ffd0dbf060977af8ab.html" target="_top" xlink:title="dsdiff">
<polygon fill="#a2b4d6" stroke="#404040" points="753,-153 709,-153 709,-134 753,-134 753,-153"/>
<text text-anchor="middle" x="731" y="-141" font-family="Helvetica,sans-Serif" font-size="10.00">dsdiff</text>
</a>
</g>
</g>
<!-- dir_cecf31b85937f05106fcc9fdbed9124e -->
<g id="node12" class="node">
<title>dir_cecf31b85937f05106fcc9fdbed9124e</title>
<g id="a_node12"><a xlink:href="dir_cecf31b85937f05106fcc9fdbed9124e.html" target="_top" xlink:title="mpeg">
<polygon fill="#a2b4d6" stroke="#404040" points="719,-98 675,-98 675,-79 719,-79 719,-98"/>
<text text-anchor="middle" x="697" y="-86" font-family="Helvetica,sans-Serif" font-size="10.00">mpeg</text>
</a>
</g>
</g>
<!-- dir_9e6fcbbe14d0c1ffd0dbf060977af8ab&#45;&gt;dir_cecf31b85937f05106fcc9fdbed9124e -->
<g id="edge5" class="edge">
<title>dir_9e6fcbbe14d0c1ffd0dbf060977af8ab&#45;&gt;dir_cecf31b85937f05106fcc9fdbed9124e</title>
<g id="a_edge5"><a xlink:href="dir_000003_000016.html" target="_top">
<path fill="none" stroke="#63b8ff" d="M725.39,-133.75C720.68,-126.42 713.83,-115.73 708.03,-106.7"/>
<polygon fill="#63b8ff" stroke="#63b8ff" points="710.86,-104.62 702.51,-98.09 704.96,-108.4 710.86,-104.62"/>
</a>
</g>
<g id="a_edge5&#45;headlabel"><a xlink:href="dir_000003_000016.html" target="_top" xlink:title="1">
<text text-anchor="middle" x="715.19" y="-103.61" font-family="Helvetica,sans-Serif" font-size="10.00" fill="#63b8ff">1</text>
</a>
</g>
</g>
<!-- dir_9e6fcbbe14d0c1ffd0dbf060977af8ab&#45;&gt;dir_6c55353c8ddedc1504b0a543e75141a6 -->
<g id="edge4" class="edge">
<title>dir_9e6fcbbe14d0c1ffd0dbf060977af8ab&#45;&gt;dir_6c55353c8ddedc1504b0a543e75141a6</title>
<g id="a_edge4"><a xlink:href="dir_000003_000025.html" target="_top">
<path fill="none" stroke="#63b8ff" d="M733.64,-133.84C737.18,-120.31 741.56,-94.12 728,-79 695.41,-42.68 546.91,-35.88 478.59,-34.7"/>
<polygon fill="#63b8ff" stroke="#63b8ff" points="478.39,-31.19 468.34,-34.55 478.29,-38.19 478.39,-31.19"/>
</a>
</g>
<g id="a_edge4&#45;headlabel"><a xlink:href="dir_000003_000025.html" target="_top" xlink:title="1">
<text text-anchor="middle" x="482.02" y="-25.91" font-family="Helvetica,sans-Serif" font-size="10.00" fill="#63b8ff">1</text>
</a>
</g>
</g>
<!-- dir_799097d732b228ddd6a57bcc9c1dcf5d -->
<g id="node5" class="node">
<title>dir_799097d732b228ddd6a57bcc9c1dcf5d</title>
<g id="a_node5"><a xlink:href="dir_799097d732b228ddd6a57bcc9c1dcf5d.html" target="_top" xlink:title="dsf">
<polygon fill="#a2b4d6" stroke="#404040" points="678,-153 646,-153 646,-134 678,-134 678,-153"/>
<text text-anchor="middle" x="662" y="-141" font-family="Helvetica,sans-Serif" font-size="10.00">dsf</text>
</a>
</g>
</g>
<!-- dir_799097d732b228ddd6a57bcc9c1dcf5d&#45;&gt;dir_cecf31b85937f05106fcc9fdbed9124e -->
<g id="edge7" class="edge">
<title>dir_799097d732b228ddd6a57bcc9c1dcf5d&#45;&gt;dir_cecf31b85937f05106fcc9fdbed9124e</title>
<g id="a_edge7"><a xlink:href="dir_000004_000016.html" target="_top">
<path fill="none" stroke="#63b8ff" d="M667.78,-133.75C672.62,-126.42 679.68,-115.73 685.64,-106.7"/>
<polygon fill="#63b8ff" stroke="#63b8ff" points="688.74,-108.36 691.33,-98.09 682.9,-104.5 688.74,-108.36"/>
</a>
</g>
<g id="a_edge7&#45;headlabel"><a xlink:href="dir_000004_000016.html" target="_top" xlink:title="1">
<text text-anchor="middle" x="689.13" y="-110.43" font-family="Helvetica,sans-Serif" font-size="10.00" fill="#63b8ff">1</text>
</a>
</g>
</g>
<!-- dir_799097d732b228ddd6a57bcc9c1dcf5d&#45;&gt;dir_6c55353c8ddedc1504b0a543e75141a6 -->
<g id="edge6" class="edge">
<title>dir_799097d732b228ddd6a57bcc9c1dcf5d&#45;&gt;dir_6c55353c8ddedc1504b0a543e75141a6</title>
<g id="a_edge6"><a xlink:href="dir_000004_000025.html" target="_top">
<path fill="none" stroke="#63b8ff" d="M662.48,-133.71C662.71,-120 661.01,-93.57 646,-79 622.43,-56.13 529.43,-43.22 478.24,-37.72"/>
<polygon fill="#63b8ff" stroke="#63b8ff" points="478.6,-34.24 468.29,-36.69 477.88,-41.2 478.6,-34.24"/>
</a>
</g>
<g id="a_edge6&#45;headlabel"><a xlink:href="dir_000004_000025.html" target="_top" xlink:title="2">
<text text-anchor="middle" x="482.47" y="-29.28" font-family="Helvetica,sans-Serif" font-size="10.00" fill="#63b8ff">2</text>
</a>
</g>
</g>
<!-- dir_b287875b49d08facd3e0538b2efdc446 -->
<g id="node6" class="node">
<title>dir_b287875b49d08facd3e0538b2efdc446</title>
<g id="a_node6"><a xlink:href="dir_b287875b49d08facd3e0538b2efdc446.html" target="_top" xlink:title="flac">
<polygon fill="#a2b4d6" stroke="#404040" points="405,-98 371,-98 371,-79 405,-79 405,-98"/>
<text text-anchor="middle" x="388" y="-86" font-family="Helvetica,sans-Serif" font-size="10.00">flac</text>
</a>
</g>
</g>
<!-- dir_b287875b49d08facd3e0538b2efdc446&#45;&gt;dir_6c55353c8ddedc1504b0a543e75141a6 -->
<g id="edge8" class="edge">
<title>dir_b287875b49d08facd3e0538b2efdc446&#45;&gt;dir_6c55353c8ddedc1504b0a543e75141a6</title>
<g id="a_edge8"><a xlink:href="dir_000006_000025.html" target="_top">
<path fill="none" stroke="#63b8ff" d="M397,-78.98C405.19,-71.23 417.51,-59.58 427.47,-50.14"/>
<polygon fill="#63b8ff" stroke="#63b8ff" points="429.98,-52.59 434.84,-43.17 425.17,-47.5 429.98,-52.59"/>
</a>
</g>
<g id="a_edge8&#45;headlabel"><a xlink:href="dir_000006_000025.html" target="_top" xlink:title="10">
<text text-anchor="middle" x="429.32" y="-54.62" font-family="Helvetica,sans-Serif" font-size="10.00" fill="#63b8ff">10</text>
</a>
</g>
</g>
<!-- dir_8e1720e9a234f2013fa3ad04b2f78903 -->
<g id="node7" class="node">
<title>dir_8e1720e9a234f2013fa3ad04b2f78903</title>
<g id="a_node7"><a xlink:href="dir_8e1720e9a234f2013fa3ad04b2f78903.html" target="_top" xlink:title="it">
<polygon fill="#a2b4d6" stroke="#404040" points="340.5,-153 311.5,-153 311.5,-134 340.5,-134 340.5,-153"/>
<text text-anchor="middle" x="326" y="-141" font-family="Helvetica,sans-Serif" font-size="10.00">it</text>
</a>
</g>
</g>
<!-- dir_85edf4838e8646489e3c7d5be4c00272 -->
<g id="node9" class="node">
<title>dir_85edf4838e8646489e3c7d5be4c00272</title>
<g id="a_node9"><a xlink:href="dir_85edf4838e8646489e3c7d5be4c00272.html" target="_top" xlink:title="mod">
<polygon fill="#a2b4d6" stroke="#404040" points="333,-98 295,-98 295,-79 333,-79 333,-98"/>
<text text-anchor="middle" x="314" y="-86" font-family="Helvetica,sans-Serif" font-size="10.00">mod</text>
</a>
</g>
</g>
<!-- dir_8e1720e9a234f2013fa3ad04b2f78903&#45;&gt;dir_85edf4838e8646489e3c7d5be4c00272 -->
<g id="edge10" class="edge">
<title>dir_8e1720e9a234f2013fa3ad04b2f78903&#45;&gt;dir_85edf4838e8646489e3c7d5be4c00272</title>
<g id="a_edge10"><a xlink:href="dir_000011_000013.html" target="_top">
<path fill="none" stroke="#63b8ff" d="M324.02,-133.75C322.43,-126.72 320.14,-116.62 318.15,-107.84"/>
<polygon fill="#63b8ff" stroke="#63b8ff" points="321.57,-107.07 315.94,-98.09 314.74,-108.62 321.57,-107.07"/>
</a>
</g>
<g id="a_edge10&#45;headlabel"><a xlink:href="dir_000011_000013.html" target="_top" xlink:title="2">
<text text-anchor="middle" x="325.13" y="-107.45" font-family="Helvetica,sans-Serif" font-size="10.00" fill="#63b8ff">2</text>
</a>
</g>
</g>
<!-- dir_8e1720e9a234f2013fa3ad04b2f78903&#45;&gt;dir_6c55353c8ddedc1504b0a543e75141a6 -->
<g id="edge9" class="edge">
<title>dir_8e1720e9a234f2013fa3ad04b2f78903&#45;&gt;dir_6c55353c8ddedc1504b0a543e75141a6</title>
<g id="a_edge9"><a xlink:href="dir_000011_000025.html" target="_top">
<path fill="none" stroke="#63b8ff" d="M329.16,-133.7C334.29,-120.44 345.54,-95.16 362,-79 376.01,-65.25 395.14,-54.54 411.39,-47.08"/>
<polygon fill="#63b8ff" stroke="#63b8ff" points="412.81,-50.28 420.57,-43.06 410.01,-43.87 412.81,-50.28"/>
</a>
</g>
<g id="a_edge9&#45;headlabel"><a xlink:href="dir_000011_000025.html" target="_top" xlink:title="1">
<text text-anchor="middle" x="410.66" y="-51.82" font-family="Helvetica,sans-Serif" font-size="10.00" fill="#63b8ff">1</text>
</a>
</g>
</g>
<!-- dir_1818c85f60a3067d88b59e755db3c6ec -->
<g id="node8" class="node">
<title>dir_1818c85f60a3067d88b59e755db3c6ec</title>
<g id="a_node8"><a xlink:href="dir_1818c85f60a3067d88b59e755db3c6ec.html" target="_top" xlink:title="matroska">
<polygon fill="#a2b4d6" stroke="#404040" points="637,-98 575,-98 575,-79 637,-79 637,-98"/>
<text text-anchor="middle" x="606" y="-86" font-family="Helvetica,sans-Serif" font-size="10.00">matroska</text>
</a>
</g>
</g>
<!-- dir_1818c85f60a3067d88b59e755db3c6ec&#45;&gt;dir_6c55353c8ddedc1504b0a543e75141a6 -->
<g id="edge11" class="edge">
<title>dir_1818c85f60a3067d88b59e755db3c6ec&#45;&gt;dir_6c55353c8ddedc1504b0a543e75141a6</title>
<g id="a_edge11"><a xlink:href="dir_000012_000025.html" target="_top">
<path fill="none" stroke="#63b8ff" d="M579.97,-78.98C552.25,-69.91 508.26,-55.52 477.86,-45.58"/>
<polygon fill="#63b8ff" stroke="#63b8ff" points="478.7,-42.17 468.11,-42.39 476.53,-48.82 478.7,-42.17"/>
</a>
</g>
<g id="a_edge11&#45;headlabel"><a xlink:href="dir_000012_000025.html" target="_top" xlink:title="7">
<text text-anchor="middle" x="483" y="-38.09" font-family="Helvetica,sans-Serif" font-size="10.00" fill="#63b8ff">7</text>
</a>
</g>
</g>
<!-- dir_85edf4838e8646489e3c7d5be4c00272&#45;&gt;dir_6c55353c8ddedc1504b0a543e75141a6 -->
<g id="edge12" class="edge">
<title>dir_85edf4838e8646489e3c7d5be4c00272&#45;&gt;dir_6c55353c8ddedc1504b0a543e75141a6</title>
<g id="a_edge12"><a xlink:href="dir_000013_000025.html" target="_top">
<path fill="none" stroke="#63b8ff" d="M333.18,-79.68C354.38,-71.04 388.81,-57 413.67,-46.86"/>
<polygon fill="#63b8ff" stroke="#63b8ff" points="415.08,-50.07 423.01,-43.06 412.43,-43.59 415.08,-50.07"/>
</a>
</g>
<g id="a_edge12&#45;headlabel"><a xlink:href="dir_000013_000025.html" target="_top" xlink:title="4">
<text text-anchor="middle" x="412.82" y="-51.56" font-family="Helvetica,sans-Serif" font-size="10.00" fill="#63b8ff">4</text>
</a>
</g>
</g>
<!-- dir_c61ea7e1f6ed9d0ac4d5e1b70b6e8c1e -->
<g id="node10" class="node">
<title>dir_c61ea7e1f6ed9d0ac4d5e1b70b6e8c1e</title>
<g id="a_node10"><a xlink:href="dir_c61ea7e1f6ed9d0ac4d5e1b70b6e8c1e.html" target="_top" xlink:title="mp4">
<polygon fill="#a2b4d6" stroke="#404040" points="557,-98 519,-98 519,-79 557,-79 557,-98"/>
<text text-anchor="middle" x="538" y="-86" font-family="Helvetica,sans-Serif" font-size="10.00">mp4</text>
</a>
</g>
</g>
<!-- dir_c61ea7e1f6ed9d0ac4d5e1b70b6e8c1e&#45;&gt;dir_6c55353c8ddedc1504b0a543e75141a6 -->
<g id="edge13" class="edge">
<title>dir_c61ea7e1f6ed9d0ac4d5e1b70b6e8c1e&#45;&gt;dir_6c55353c8ddedc1504b0a543e75141a6</title>
<g id="a_edge13"><a xlink:href="dir_000014_000025.html" target="_top">
<path fill="none" stroke="#63b8ff" d="M522.9,-78.98C508.18,-70.69 485.58,-57.94 468.33,-48.22"/>
<polygon fill="#63b8ff" stroke="#63b8ff" points="469.81,-45.03 459.38,-43.17 466.37,-51.13 469.81,-45.03"/>
</a>
</g>
<g id="a_edge13&#45;headlabel"><a xlink:href="dir_000014_000025.html" target="_top" xlink:title="10">
<text text-anchor="middle" x="474.33" y="-41.83" font-family="Helvetica,sans-Serif" font-size="10.00" fill="#63b8ff">10</text>
</a>
</g>
</g>
<!-- dir_7be1ea31e34e3364ff5902507b69a008 -->
<g id="node11" class="node">
<title>dir_7be1ea31e34e3364ff5902507b69a008</title>
<g id="a_node11"><a xlink:href="dir_7be1ea31e34e3364ff5902507b69a008.html" target="_top" xlink:title="mpc">
<polygon fill="#a2b4d6" stroke="#404040" points="501,-98 463,-98 463,-79 501,-79 501,-98"/>
<text text-anchor="middle" x="482" y="-86" font-family="Helvetica,sans-Serif" font-size="10.00">mpc</text>
</a>
</g>
</g>
<!-- dir_7be1ea31e34e3364ff5902507b69a008&#45;&gt;dir_6c55353c8ddedc1504b0a543e75141a6 -->
<g id="edge14" class="edge">
<title>dir_7be1ea31e34e3364ff5902507b69a008&#45;&gt;dir_6c55353c8ddedc1504b0a543e75141a6</title>
<g id="a_edge14"><a xlink:href="dir_000015_000025.html" target="_top">
<path fill="none" stroke="#63b8ff" d="M475.73,-78.75C470.41,-71.34 462.64,-60.5 456.12,-51.41"/>
<polygon fill="#63b8ff" stroke="#63b8ff" points="458.83,-49.18 450.16,-43.09 453.14,-53.26 458.83,-49.18"/>
</a>
</g>
<g id="a_edge14&#45;headlabel"><a xlink:href="dir_000015_000025.html" target="_top" xlink:title="2">
<text text-anchor="middle" x="463.23" y="-47.94" font-family="Helvetica,sans-Serif" font-size="10.00" fill="#63b8ff">2</text>
</a>
</g>
</g>
<!-- dir_cecf31b85937f05106fcc9fdbed9124e&#45;&gt;dir_6c55353c8ddedc1504b0a543e75141a6 -->
<g id="edge15" class="edge">
<title>dir_cecf31b85937f05106fcc9fdbed9124e&#45;&gt;dir_6c55353c8ddedc1504b0a543e75141a6</title>
<g id="a_edge15"><a xlink:href="dir_000016_000025.html" target="_top">
<path fill="none" stroke="#63b8ff" d="M674.94,-82.18C670.34,-81.1 665.52,-80 661,-79 596.47,-64.77 520.8,-49.59 478.02,-41.15"/>
<polygon fill="#63b8ff" stroke="#63b8ff" points="478.62,-37.7 468.13,-39.21 477.27,-44.57 478.62,-37.7"/>
</a>
</g>
<g id="a_edge15&#45;headlabel"><a xlink:href="dir_000016_000025.html" target="_top" xlink:title="25">
<text text-anchor="middle" x="482.7" y="-33.11" font-family="Helvetica,sans-Serif" font-size="10.00" fill="#63b8ff">25</text>
</a>
</g>
</g>
<!-- dir_840b59c0089045b39e04c943f460db90 -->
<g id="node13" class="node">
<title>dir_840b59c0089045b39e04c943f460db90</title>
<g id="a_node13"><a xlink:href="dir_840b59c0089045b39e04c943f460db90.html" target="_top" xlink:title="ogg">
<polygon fill="#a2b4d6" stroke="#404040" points="407.5,-153 372.5,-153 372.5,-134 407.5,-134 407.5,-153"/>
<text text-anchor="middle" x="390" y="-141" font-family="Helvetica,sans-Serif" font-size="10.00">ogg</text>
</a>
</g>
</g>
<!-- dir_840b59c0089045b39e04c943f460db90&#45;&gt;dir_b287875b49d08facd3e0538b2efdc446 -->
<g id="edge17" class="edge">
<title>dir_840b59c0089045b39e04c943f460db90&#45;&gt;dir_b287875b49d08facd3e0538b2efdc446</title>
<g id="a_edge17"><a xlink:href="dir_000017_000006.html" target="_top">
<path fill="none" stroke="#63b8ff" d="M389.67,-133.75C389.41,-126.8 389.03,-116.85 388.7,-108.13"/>
<polygon fill="#63b8ff" stroke="#63b8ff" points="392.2,-107.95 388.32,-98.09 385.2,-108.21 392.2,-107.95"/>
</a>
</g>
<g id="a_edge17&#45;headlabel"><a xlink:href="dir_000017_000006.html" target="_top" xlink:title="2">
<text text-anchor="middle" x="395.17" y="-108.93" font-family="Helvetica,sans-Serif" font-size="10.00" fill="#63b8ff">2</text>
</a>
</g>
</g>
<!-- dir_840b59c0089045b39e04c943f460db90&#45;&gt;dir_6c55353c8ddedc1504b0a543e75141a6 -->
<g id="edge16" class="edge">
<title>dir_840b59c0089045b39e04c943f460db90&#45;&gt;dir_6c55353c8ddedc1504b0a543e75141a6</title>
<g id="a_edge16"><a xlink:href="dir_000017_000025.html" target="_top">
<path fill="none" stroke="#63b8ff" d="M394.92,-133.71C399.87,-124.78 407.66,-110.53 414,-98 421.72,-82.72 430,-65.09 435.9,-52.29"/>
<polygon fill="#63b8ff" stroke="#63b8ff" points="439.09,-53.75 440.07,-43.2 432.72,-50.83 439.09,-53.75"/>
</a>
</g>
<g id="a_edge16&#45;headlabel"><a xlink:href="dir_000017_000025.html" target="_top" xlink:title="12">
<text text-anchor="middle" x="440.17" y="-55.7" font-family="Helvetica,sans-Serif" font-size="10.00" fill="#63b8ff">12</text>
</a>
</g>
</g>
<!-- dir_5de67a17ea497dd0f0d11e45dc5f99a8 -->
<g id="node14" class="node">
<title>dir_5de67a17ea497dd0f0d11e45dc5f99a8</title>
<g id="a_node14"><a xlink:href="dir_5de67a17ea497dd0f0d11e45dc5f99a8.html" target="_top" xlink:title="riff">
<polygon fill="#a2b4d6" stroke="#404040" points="543,-153 513,-153 513,-134 543,-134 543,-153"/>
<text text-anchor="middle" x="528" y="-141" font-family="Helvetica,sans-Serif" font-size="10.00">riff</text>
</a>
</g>
</g>
<!-- dir_5de67a17ea497dd0f0d11e45dc5f99a8&#45;&gt;dir_cecf31b85937f05106fcc9fdbed9124e -->
<g id="edge19" class="edge">
<title>dir_5de67a17ea497dd0f0d11e45dc5f99a8&#45;&gt;dir_cecf31b85937f05106fcc9fdbed9124e</title>
<g id="a_edge19"><a xlink:href="dir_000019_000016.html" target="_top">
<path fill="none" stroke="#63b8ff" d="M543.3,-137.7C570.7,-129.11 628.7,-110.92 665.1,-99.51"/>
<polygon fill="#63b8ff" stroke="#63b8ff" points="666.25,-102.81 674.74,-96.48 664.15,-96.13 666.25,-102.81"/>
</a>
</g>
<g id="a_edge19&#45;headlabel"><a xlink:href="dir_000019_000016.html" target="_top" xlink:title="2">
<text text-anchor="middle" x="663.67" y="-104.1" font-family="Helvetica,sans-Serif" font-size="10.00" fill="#63b8ff">2</text>
</a>
</g>
</g>
<!-- dir_5de67a17ea497dd0f0d11e45dc5f99a8&#45;&gt;dir_6c55353c8ddedc1504b0a543e75141a6 -->
<g id="edge18" class="edge">
<title>dir_5de67a17ea497dd0f0d11e45dc5f99a8&#45;&gt;dir_6c55353c8ddedc1504b0a543e75141a6</title>
<g id="a_edge18"><a xlink:href="dir_000019_000025.html" target="_top">
<path fill="none" stroke="#63b8ff" d="M512.77,-137.74C495.54,-131.53 468.07,-118.89 454,-98 445.13,-84.84 443.03,-66.71 442.92,-53.19"/>
<polygon fill="#63b8ff" stroke="#63b8ff" points="446.42,-53.22 443.18,-43.13 439.42,-53.03 446.42,-53.22"/>
</a>
</g>
<g id="a_edge18&#45;headlabel"><a xlink:href="dir_000019_000025.html" target="_top" xlink:title="6">
<text text-anchor="middle" x="449.16" y="-54.38" font-family="Helvetica,sans-Serif" font-size="10.00" fill="#63b8ff">6</text>
</a>
</g>
</g>
<!-- dir_a8cda38173802659aa44685b83c371ec -->
<g id="node15" class="node">
<title>dir_a8cda38173802659aa44685b83c371ec</title>
<g id="a_node15"><a xlink:href="dir_a8cda38173802659aa44685b83c371ec.html" target="_top" xlink:title="s3m">
<polygon fill="#a2b4d6" stroke="#404040" points="251,-153 213,-153 213,-134 251,-134 251,-153"/>
<text text-anchor="middle" x="232" y="-141" font-family="Helvetica,sans-Serif" font-size="10.00">s3m</text>
</a>
</g>
</g>
<!-- dir_a8cda38173802659aa44685b83c371ec&#45;&gt;dir_85edf4838e8646489e3c7d5be4c00272 -->
<g id="edge21" class="edge">
<title>dir_a8cda38173802659aa44685b83c371ec&#45;&gt;dir_85edf4838e8646489e3c7d5be4c00272</title>
<g id="a_edge21"><a xlink:href="dir_000020_000013.html" target="_top">
<path fill="none" stroke="#63b8ff" d="M245.17,-133.98C257.77,-125.84 277,-113.41 291.94,-103.76"/>
<polygon fill="#63b8ff" stroke="#63b8ff" points="294.09,-106.54 300.59,-98.17 290.29,-100.66 294.09,-106.54"/>
</a>
</g>
<g id="a_edge21&#45;headlabel"><a xlink:href="dir_000020_000013.html" target="_top" xlink:title="2">
<text text-anchor="middle" x="292.61" y="-108.37" font-family="Helvetica,sans-Serif" font-size="10.00" fill="#63b8ff">2</text>
</a>
</g>
</g>
<!-- dir_a8cda38173802659aa44685b83c371ec&#45;&gt;dir_6c55353c8ddedc1504b0a543e75141a6 -->
<g id="edge20" class="edge">
<title>dir_a8cda38173802659aa44685b83c371ec&#45;&gt;dir_6c55353c8ddedc1504b0a543e75141a6</title>
<g id="a_edge20"><a xlink:href="dir_000020_000025.html" target="_top">
<path fill="none" stroke="#63b8ff" d="M212.88,-142.06C158.41,-140.16 9.25,-130.28 55,-79 78.48,-52.68 319.54,-39.79 409.97,-35.85"/>
<polygon fill="#63b8ff" stroke="#63b8ff" points="410.14,-39.35 419.99,-35.43 409.85,-32.35 410.14,-39.35"/>
</a>
</g>
<g id="a_edge20&#45;headlabel"><a xlink:href="dir_000020_000025.html" target="_top" xlink:title="1">
<text text-anchor="middle" x="406.67" y="-39.84" font-family="Helvetica,sans-Serif" font-size="10.00" fill="#63b8ff">1</text>
</a>
</g>
</g>
<!-- dir_62c578330ee89bfdeccde2c9c0450157 -->
<g id="node16" class="node">
<title>dir_62c578330ee89bfdeccde2c9c0450157</title>
<g id="a_node16"><a xlink:href="dir_62c578330ee89bfdeccde2c9c0450157.html" target="_top" xlink:title="shorten">
<polygon fill="#a2b4d6" stroke="#404040" points="276.5,-98 223.5,-98 223.5,-79 276.5,-79 276.5,-98"/>
<text text-anchor="middle" x="250" y="-86" font-family="Helvetica,sans-Serif" font-size="10.00">shorten</text>
</a>
</g>
</g>
<!-- dir_62c578330ee89bfdeccde2c9c0450157&#45;&gt;dir_6c55353c8ddedc1504b0a543e75141a6 -->
<g id="edge22" class="edge">
<title>dir_62c578330ee89bfdeccde2c9c0450157&#45;&gt;dir_6c55353c8ddedc1504b0a543e75141a6</title>
<g id="a_edge22"><a xlink:href="dir_000021_000025.html" target="_top">
<path fill="none" stroke="#63b8ff" d="M276.57,-80.24C311.19,-70.78 371.79,-54.23 409.8,-43.84"/>
<polygon fill="#63b8ff" stroke="#63b8ff" points="411.16,-47.1 419.89,-41.09 409.32,-40.35 411.16,-47.1"/>
</a>
</g>
<g id="a_edge22&#45;headlabel"><a xlink:href="dir_000021_000025.html" target="_top" xlink:title="1">
<text text-anchor="middle" x="408.44" y="-48.29" font-family="Helvetica,sans-Serif" font-size="10.00" fill="#63b8ff">1</text>
</a>
</g>
</g>
<!-- dir_f7358ff0f722ed12e8b625761d521245 -->
<g id="node18" class="node">
<title>dir_f7358ff0f722ed12e8b625761d521245</title>
<g id="a_node18"><a xlink:href="dir_f7358ff0f722ed12e8b625761d521245.html" target="_top" xlink:title="trueaudio">
<polygon fill="#a2b4d6" stroke="#404040" points="205.5,-98 142.5,-98 142.5,-79 205.5,-79 205.5,-98"/>
<text text-anchor="middle" x="174" y="-86" font-family="Helvetica,sans-Serif" font-size="10.00">trueaudio</text>
</a>
</g>
</g>
<!-- dir_f7358ff0f722ed12e8b625761d521245&#45;&gt;dir_6c55353c8ddedc1504b0a543e75141a6 -->
<g id="edge23" class="edge">
<title>dir_f7358ff0f722ed12e8b625761d521245&#45;&gt;dir_6c55353c8ddedc1504b0a543e75141a6</title>
<g id="a_edge23"><a xlink:href="dir_000026_000025.html" target="_top">
<path fill="none" stroke="#63b8ff" d="M205.78,-80.87C208.89,-80.23 212.01,-79.6 215,-79 284.11,-65.12 365.1,-49.55 409.87,-40.99"/>
<polygon fill="#63b8ff" stroke="#63b8ff" points="410.75,-44.39 419.91,-39.08 409.43,-37.51 410.75,-44.39"/>
</a>
</g>
<g id="a_edge23&#45;headlabel"><a xlink:href="dir_000026_000025.html" target="_top" xlink:title="3">
<text text-anchor="middle" x="407.75" y="-45.35" font-family="Helvetica,sans-Serif" font-size="10.00" fill="#63b8ff">3</text>
</a>
</g>
</g>
<!-- dir_d391cd6126a245b2be34dc43c83d2c20 -->
<g id="node19" class="node">
<title>dir_d391cd6126a245b2be34dc43c83d2c20</title>
<g id="a_node19"><a xlink:href="dir_d391cd6126a245b2be34dc43c83d2c20.html" target="_top" xlink:title="wavpack">
<polygon fill="#a2b4d6" stroke="#404040" points="124,-98 64,-98 64,-79 124,-79 124,-98"/>
<text text-anchor="middle" x="94" y="-86" font-family="Helvetica,sans-Serif" font-size="10.00">wavpack</text>
</a>
</g>
</g>
<!-- dir_d391cd6126a245b2be34dc43c83d2c20&#45;&gt;dir_6c55353c8ddedc1504b0a543e75141a6 -->
<g id="edge24" class="edge">
<title>dir_d391cd6126a245b2be34dc43c83d2c20&#45;&gt;dir_6c55353c8ddedc1504b0a543e75141a6</title>
<g id="a_edge24"><a xlink:href="dir_000029_000025.html" target="_top">
<path fill="none" stroke="#63b8ff" d="M124.1,-80.88C127.43,-80.21 130.78,-79.57 134,-79 233.78,-61.26 352.61,-45.76 409.84,-38.64"/>
<polygon fill="#63b8ff" stroke="#63b8ff" points="410.3,-42.12 419.79,-37.42 409.44,-35.17 410.3,-42.12"/>
</a>
</g>
<g id="a_edge24&#45;headlabel"><a xlink:href="dir_000029_000025.html" target="_top" xlink:title="1">
<text text-anchor="middle" x="407.08" y="-42.87" font-family="Helvetica,sans-Serif" font-size="10.00" fill="#63b8ff">1</text>
</a>
</g>
</g>
<!-- dir_cb860f4e0dbe94c771af478e480f5f9e -->
<g id="node20" class="node">
<title>dir_cb860f4e0dbe94c771af478e480f5f9e</title>
<g id="a_node20"><a xlink:href="dir_cb860f4e0dbe94c771af478e480f5f9e.html" target="_top" xlink:title="xm">
<polygon fill="#a2b4d6" stroke="#404040" points="111,-153 79,-153 79,-134 111,-134 111,-153"/>
<text text-anchor="middle" x="95" y="-141" font-family="Helvetica,sans-Serif" font-size="10.00">xm</text>
</a>
</g>
</g>
<!-- dir_cb860f4e0dbe94c771af478e480f5f9e&#45;&gt;dir_85edf4838e8646489e3c7d5be4c00272 -->
<g id="edge26" class="edge">
<title>dir_cb860f4e0dbe94c771af478e480f5f9e&#45;&gt;dir_85edf4838e8646489e3c7d5be4c00272</title>
<g id="a_edge26"><a xlink:href="dir_000030_000013.html" target="_top">
<path fill="none" stroke="#63b8ff" d="M111.19,-139.11C142.74,-132.41 214.83,-116.72 284.9,-98.16"/>
<polygon fill="#63b8ff" stroke="#63b8ff" points="286.01,-101.48 294.77,-95.52 284.2,-94.72 286.01,-101.48"/>
</a>
</g>
<g id="a_edge26&#45;headlabel"><a xlink:href="dir_000030_000013.html" target="_top" xlink:title="2">
<text text-anchor="middle" x="283.27" y="-102.66" font-family="Helvetica,sans-Serif" font-size="10.00" fill="#63b8ff">2</text>
</a>
</g>
</g>
<!-- dir_cb860f4e0dbe94c771af478e480f5f9e&#45;&gt;dir_6c55353c8ddedc1504b0a543e75141a6 -->
<g id="edge25" class="edge">
<title>dir_cb860f4e0dbe94c771af478e480f5f9e&#45;&gt;dir_6c55353c8ddedc1504b0a543e75141a6</title>
<g id="a_edge25"><a xlink:href="dir_000030_000025.html" target="_top">
<path fill="none" stroke="#63b8ff" d="M78.85,-133.92C57.6,-121.56 24.85,-98.15 42,-79 66.38,-51.77 317.06,-39.4 409.77,-35.73"/>
<polygon fill="#63b8ff" stroke="#63b8ff" points="409.91,-39.22 419.77,-35.34 409.64,-32.23 409.91,-39.22"/>
</a>
</g>
<g id="a_edge25&#45;headlabel"><a xlink:href="dir_000030_000025.html" target="_top" xlink:title="2">
<text text-anchor="middle" x="406.43" y="-39.7" font-family="Helvetica,sans-Serif" font-size="10.00" fill="#63b8ff">2</text>
</a>
</g>
</g>
</g>
</svg>
