<?xml version="1.0" encoding="UTF-8" standalone="no"?>
<!DOCTYPE svg PUBLIC "-//W3C//DTD SVG 1.1//EN"
 "http://www.w3.org/Graphics/SVG/1.1/DTD/svg11.dtd">
<!-- Generated by graphviz version 2.46.1 (20210213.1702)
 -->
<!-- Title: taglib Pages: 1 -->
<svg width="738pt" height="255pt"
 viewBox="0.00 0.00 738.00 255.00" xmlns="http://www.w3.org/2000/svg" xmlns:xlink="http://www.w3.org/1999/xlink">
<g id="graph0" class="graph" transform="scale(1 1) rotate(0) translate(4 251)">
<title>taglib</title>
<polygon fill="white" stroke="transparent" points="-4,4 -4,-251 734,-251 734,4 -4,4"/>
<g id="clust1" class="cluster">
<title>clusterdir_b2f33c71d4aa5e7af42a1ca61ff5af1b</title>
<g id="a_clust1"><a xlink:href="dir_b2f33c71d4aa5e7af42a1ca61ff5af1b.html" target="_top" xlink:title="source">
<polygon fill="#ddddee" stroke="black" points="8,-8 8,-239 722,-239 722,-8 8,-8"/>
<text text-anchor="middle" x="365" y="-227" font-family="Helvetica,sans-Serif" font-size="10.00">source</text>
</a>
</g>
</g>
<g id="clust2" class="cluster">
<title>clusterdir_501f9c1866672ad030f4cfda4b04b1dc</title>
<g id="a_clust2"><a xlink:href="dir_501f9c1866672ad030f4cfda4b04b1dc.html" target="_top">
<polygon fill="#eeeeff" stroke="black" points="16,-16 16,-212 714,-212 714,-16 16,-16"/>
</a>
</g>
</g>
<!-- dir_501f9c1866672ad030f4cfda4b04b1dc -->
<g id="node1" class="node">
<title>dir_501f9c1866672ad030f4cfda4b04b1dc</title>
<text text-anchor="middle" x="674" y="-183.5" font-family="Helvetica,sans-Serif" font-size="10.00">taglib</text>
</g>
<!-- dir_6ac7b66c0b3a7e0af392b8cc062c341b -->
<g id="node2" class="node">
<title>dir_6ac7b66c0b3a7e0af392b8cc062c341b</title>
<g id="a_node2"><a xlink:href="dir_6ac7b66c0b3a7e0af392b8cc062c341b.html" target="_top" xlink:title="ape">
<polygon fill="white" stroke="black" points="706,-132 652,-132 652,-96 706,-96 706,-132"/>
<text text-anchor="middle" x="679" y="-111.5" font-family="Helvetica,sans-Serif" font-size="10.00">ape</text>
</a>
</g>
</g>
<!-- dir_6c55353c8ddedc1504b0a543e75141a6 -->
<g id="node13" class="node">
<title>dir_6c55353c8ddedc1504b0a543e75141a6</title>
<g id="a_node13"><a xlink:href="dir_6c55353c8ddedc1504b0a543e75141a6.html" target="_top" xlink:title="toolkit">
<polygon fill="white" stroke="black" points="355,-60 301,-60 301,-24 355,-24 355,-60"/>
<text text-anchor="middle" x="328" y="-39.5" font-family="Helvetica,sans-Serif" font-size="10.00">toolkit</text>
</a>
</g>
</g>
<!-- dir_6ac7b66c0b3a7e0af392b8cc062c341b&#45;&gt;dir_6c55353c8ddedc1504b0a543e75141a6 -->
<g id="edge4" class="edge">
<title>dir_6ac7b66c0b3a7e0af392b8cc062c341b&#45;&gt;dir_6c55353c8ddedc1504b0a543e75141a6</title>
<path fill="none" stroke="black" d="M651.96,-100.79C647.36,-99.01 642.59,-97.33 638,-96 541.75,-68.2 424.22,-53.02 365.36,-46.66"/>
<polygon fill="black" stroke="black" points="365.72,-43.18 355.41,-45.6 364.99,-50.14 365.72,-43.18"/>
<g id="a_edge4&#45;headlabel"><a xlink:href="dir_000004_000021.html" target="_top" xlink:title="8">
<text text-anchor="middle" x="369.6" y="-38.23" font-family="Helvetica,sans-Serif" font-size="10.00">8</text>
</a>
</g>
</g>
<!-- dir_778a302a79b7be7ce7f0e58a72b993dc -->
<g id="node3" class="node">
<title>dir_778a302a79b7be7ce7f0e58a72b993dc</title>
<g id="a_node3"><a xlink:href="dir_778a302a79b7be7ce7f0e58a72b993dc.html" target="_top" xlink:title="asf">
<polygon fill="white" stroke="black" points="619,-204 565,-204 565,-168 619,-168 619,-204"/>
<text text-anchor="middle" x="592" y="-183.5" font-family="Helvetica,sans-Serif" font-size="10.00">asf</text>
</a>
</g>
</g>
<!-- dir_cecf31b85937f05106fcc9fdbed9124e -->
<g id="node9" class="node">
<title>dir_cecf31b85937f05106fcc9fdbed9124e</title>
<g id="a_node9"><a xlink:href="dir_cecf31b85937f05106fcc9fdbed9124e.html" target="_top" xlink:title="mpeg">
<polygon fill="white" stroke="red" points="614,-132 560,-132 560,-96 614,-96 614,-132"/>
<text text-anchor="middle" x="587" y="-111.5" font-family="Helvetica,sans-Serif" font-size="10.00">mpeg</text>
</a>
</g>
</g>
<!-- dir_778a302a79b7be7ce7f0e58a72b993dc&#45;&gt;dir_cecf31b85937f05106fcc9fdbed9124e -->
<g id="edge20" class="edge">
<title>dir_778a302a79b7be7ce7f0e58a72b993dc&#45;&gt;dir_cecf31b85937f05106fcc9fdbed9124e</title>
<path fill="none" stroke="black" d="M590.76,-167.7C590.21,-159.98 589.55,-150.71 588.94,-142.11"/>
<polygon fill="black" stroke="black" points="592.43,-141.83 588.22,-132.1 585.44,-142.33 592.43,-141.83"/>
<g id="a_edge20&#45;headlabel"><a xlink:href="dir_000005_000006.html" target="_top" xlink:title="1">
<text text-anchor="middle" x="595.51" y="-142.71" font-family="Helvetica,sans-Serif" font-size="10.00">1</text>
</a>
</g>
</g>
<!-- dir_778a302a79b7be7ce7f0e58a72b993dc&#45;&gt;dir_6c55353c8ddedc1504b0a543e75141a6 -->
<g id="edge19" class="edge">
<title>dir_778a302a79b7be7ce7f0e58a72b993dc&#45;&gt;dir_6c55353c8ddedc1504b0a543e75141a6</title>
<path fill="none" stroke="black" d="M606.99,-167.81C622,-148.45 640.53,-116.96 623,-96 590.61,-57.27 437.84,-46.8 365.79,-44.01"/>
<polygon fill="black" stroke="black" points="365.47,-40.49 355.36,-43.63 365.22,-47.49 365.47,-40.49"/>
<g id="a_edge19&#45;headlabel"><a xlink:href="dir_000005_000021.html" target="_top" xlink:title="8">
<text text-anchor="middle" x="369.17" y="-35.28" font-family="Helvetica,sans-Serif" font-size="10.00">8</text>
</a>
</g>
</g>
<!-- dir_b287875b49d08facd3e0538b2efdc446 -->
<g id="node4" class="node">
<title>dir_b287875b49d08facd3e0538b2efdc446</title>
<g id="a_node4"><a xlink:href="dir_b287875b49d08facd3e0538b2efdc446.html" target="_top" xlink:title="flac">
<polygon fill="white" stroke="black" points="378,-132 324,-132 324,-96 378,-96 378,-132"/>
<text text-anchor="middle" x="351" y="-111.5" font-family="Helvetica,sans-Serif" font-size="10.00">flac</text>
</a>
</g>
</g>
<!-- dir_b287875b49d08facd3e0538b2efdc446&#45;&gt;dir_6c55353c8ddedc1504b0a543e75141a6 -->
<g id="edge18" class="edge">
<title>dir_b287875b49d08facd3e0538b2efdc446&#45;&gt;dir_6c55353c8ddedc1504b0a543e75141a6</title>
<path fill="none" stroke="black" d="M345.31,-95.7C342.75,-87.9 339.67,-78.51 336.82,-69.83"/>
<polygon fill="black" stroke="black" points="340.07,-68.51 333.62,-60.1 333.42,-70.7 340.07,-68.51"/>
<g id="a_edge18&#45;headlabel"><a xlink:href="dir_000009_000021.html" target="_top" xlink:title="9">
<text text-anchor="middle" x="343.89" y="-68.54" font-family="Helvetica,sans-Serif" font-size="10.00">9</text>
</a>
</g>
</g>
<!-- dir_8e1720e9a234f2013fa3ad04b2f78903 -->
<g id="node5" class="node">
<title>dir_8e1720e9a234f2013fa3ad04b2f78903</title>
<g id="a_node5"><a xlink:href="dir_8e1720e9a234f2013fa3ad04b2f78903.html" target="_top" xlink:title="it">
<polygon fill="white" stroke="black" points="263,-204 209,-204 209,-168 263,-168 263,-204"/>
<text text-anchor="middle" x="236" y="-183.5" font-family="Helvetica,sans-Serif" font-size="10.00">it</text>
</a>
</g>
</g>
<!-- dir_85edf4838e8646489e3c7d5be4c00272 -->
<g id="node6" class="node">
<title>dir_85edf4838e8646489e3c7d5be4c00272</title>
<g id="a_node6"><a xlink:href="dir_85edf4838e8646489e3c7d5be4c00272.html" target="_top" xlink:title="mod">
<polygon fill="white" stroke="black" points="98,-132 44,-132 44,-96 98,-96 98,-132"/>
<text text-anchor="middle" x="71" y="-111.5" font-family="Helvetica,sans-Serif" font-size="10.00">mod</text>
</a>
</g>
</g>
<!-- dir_8e1720e9a234f2013fa3ad04b2f78903&#45;&gt;dir_85edf4838e8646489e3c7d5be4c00272 -->
<g id="edge10" class="edge">
<title>dir_8e1720e9a234f2013fa3ad04b2f78903&#45;&gt;dir_85edf4838e8646489e3c7d5be4c00272</title>
<path fill="none" stroke="black" d="M208.65,-174.24C184.26,-164.54 147.42,-149.63 107.23,-132"/>
<polygon fill="black" stroke="black" points="108.62,-128.79 98.06,-127.96 105.8,-135.2 108.62,-128.79"/>
<g id="a_edge10&#45;headlabel"><a xlink:href="dir_000012_000013.html" target="_top" xlink:title="2">
<text text-anchor="middle" x="113.06" y="-125.14" font-family="Helvetica,sans-Serif" font-size="10.00">2</text>
</a>
</g>
</g>
<!-- dir_8e1720e9a234f2013fa3ad04b2f78903&#45;&gt;dir_6c55353c8ddedc1504b0a543e75141a6 -->
<g id="edge9" class="edge">
<title>dir_8e1720e9a234f2013fa3ad04b2f78903&#45;&gt;dir_6c55353c8ddedc1504b0a543e75141a6</title>
<path fill="none" stroke="black" d="M247.1,-167.87C263.05,-143.24 292.6,-97.64 311.23,-68.88"/>
<polygon fill="black" stroke="black" points="314.36,-70.48 316.86,-60.19 308.49,-66.68 314.36,-70.48"/>
<g id="a_edge9&#45;headlabel"><a xlink:href="dir_000012_000021.html" target="_top" xlink:title="2">
<text text-anchor="middle" x="314.79" y="-72.55" font-family="Helvetica,sans-Serif" font-size="10.00">2</text>
</a>
</g>
</g>
<!-- dir_85edf4838e8646489e3c7d5be4c00272&#45;&gt;dir_6c55353c8ddedc1504b0a543e75141a6 -->
<g id="edge1" class="edge">
<title>dir_85edf4838e8646489e3c7d5be4c00272&#45;&gt;dir_6c55353c8ddedc1504b0a543e75141a6</title>
<path fill="none" stroke="black" d="M98.27,-99.41C101.18,-98.17 104.13,-97.01 107,-96 170.06,-73.82 246.44,-57.78 290.9,-49.47"/>
<polygon fill="black" stroke="black" points="291.75,-52.88 300.95,-47.63 290.48,-45.99 291.75,-52.88"/>
<g id="a_edge1&#45;headlabel"><a xlink:href="dir_000013_000021.html" target="_top" xlink:title="6">
<text text-anchor="middle" x="288.73" y="-53.82" font-family="Helvetica,sans-Serif" font-size="10.00">6</text>
</a>
</g>
</g>
<!-- dir_c61ea7e1f6ed9d0ac4d5e1b70b6e8c1e -->
<g id="node7" class="node">
<title>dir_c61ea7e1f6ed9d0ac4d5e1b70b6e8c1e</title>
<g id="a_node7"><a xlink:href="dir_c61ea7e1f6ed9d0ac4d5e1b70b6e8c1e.html" target="_top" xlink:title="mp4">
<polygon fill="white" stroke="black" points="542,-132 488,-132 488,-96 542,-96 542,-132"/>
<text text-anchor="middle" x="515" y="-111.5" font-family="Helvetica,sans-Serif" font-size="10.00">mp4</text>
</a>
</g>
</g>
<!-- dir_c61ea7e1f6ed9d0ac4d5e1b70b6e8c1e&#45;&gt;dir_6c55353c8ddedc1504b0a543e75141a6 -->
<g id="edge5" class="edge">
<title>dir_c61ea7e1f6ed9d0ac4d5e1b70b6e8c1e&#45;&gt;dir_6c55353c8ddedc1504b0a543e75141a6</title>
<path fill="none" stroke="black" d="M487.61,-99.71C484.72,-98.41 481.81,-97.15 479,-96 440.67,-80.27 395.75,-64.88 364.93,-54.77"/>
<polygon fill="black" stroke="black" points="365.64,-51.32 355.05,-51.55 363.47,-57.98 365.64,-51.32"/>
<g id="a_edge5&#45;headlabel"><a xlink:href="dir_000014_000021.html" target="_top" xlink:title="8">
<text text-anchor="middle" x="369.94" y="-47.24" font-family="Helvetica,sans-Serif" font-size="10.00">8</text>
</a>
</g>
</g>
<!-- dir_7be1ea31e34e3364ff5902507b69a008 -->
<g id="node8" class="node">
<title>dir_7be1ea31e34e3364ff5902507b69a008</title>
<g id="a_node8"><a xlink:href="dir_7be1ea31e34e3364ff5902507b69a008.html" target="_top" xlink:title="mpc">
<polygon fill="white" stroke="black" points="470,-132 416,-132 416,-96 470,-96 470,-132"/>
<text text-anchor="middle" x="443" y="-111.5" font-family="Helvetica,sans-Serif" font-size="10.00">mpc</text>
</a>
</g>
</g>
<!-- dir_7be1ea31e34e3364ff5902507b69a008&#45;&gt;dir_6c55353c8ddedc1504b0a543e75141a6 -->
<g id="edge11" class="edge">
<title>dir_7be1ea31e34e3364ff5902507b69a008&#45;&gt;dir_6c55353c8ddedc1504b0a543e75141a6</title>
<path fill="none" stroke="black" d="M415.75,-96.41C400.28,-87 380.73,-75.1 364.01,-64.92"/>
<polygon fill="black" stroke="black" points="365.42,-61.68 355.06,-59.47 361.78,-67.66 365.42,-61.68"/>
<g id="a_edge11&#45;headlabel"><a xlink:href="dir_000015_000021.html" target="_top" xlink:title="2">
<text text-anchor="middle" x="369.97" y="-58.62" font-family="Helvetica,sans-Serif" font-size="10.00">2</text>
</a>
</g>
</g>
<!-- dir_cecf31b85937f05106fcc9fdbed9124e&#45;&gt;dir_6c55353c8ddedc1504b0a543e75141a6 -->
<g id="edge12" class="edge">
<title>dir_cecf31b85937f05106fcc9fdbed9124e&#45;&gt;dir_6c55353c8ddedc1504b0a543e75141a6</title>
<path fill="none" stroke="black" d="M559.73,-99.4C556.82,-98.17 553.87,-97.01 551,-96 487.25,-73.64 409.97,-57.63 365.16,-49.38"/>
<polygon fill="black" stroke="black" points="365.76,-45.93 355.29,-47.59 364.51,-52.82 365.76,-45.93"/>
<g id="a_edge12&#45;headlabel"><a xlink:href="dir_000006_000021.html" target="_top" xlink:title="23">
<text text-anchor="middle" x="369.8" y="-41.28" font-family="Helvetica,sans-Serif" font-size="10.00">23</text>
</a>
</g>
</g>
<!-- dir_840b59c0089045b39e04c943f460db90 -->
<g id="node10" class="node">
<title>dir_840b59c0089045b39e04c943f460db90</title>
<g id="a_node10"><a xlink:href="dir_840b59c0089045b39e04c943f460db90.html" target="_top" xlink:title="ogg">
<polygon fill="white" stroke="red" points="342,-204 288,-204 288,-168 342,-168 342,-204"/>
<text text-anchor="middle" x="315" y="-183.5" font-family="Helvetica,sans-Serif" font-size="10.00">ogg</text>
</a>
</g>
</g>
<!-- dir_840b59c0089045b39e04c943f460db90&#45;&gt;dir_b287875b49d08facd3e0538b2efdc446 -->
<g id="edge3" class="edge">
<title>dir_840b59c0089045b39e04c943f460db90&#45;&gt;dir_b287875b49d08facd3e0538b2efdc446</title>
<path fill="none" stroke="black" d="M323.9,-167.7C328,-159.73 332.95,-150.1 337.49,-141.26"/>
<polygon fill="black" stroke="black" points="340.74,-142.6 342.2,-132.1 334.52,-139.4 340.74,-142.6"/>
<g id="a_edge3&#45;headlabel"><a xlink:href="dir_000016_000009.html" target="_top" xlink:title="2">
<text text-anchor="middle" x="341.62" y="-144.59" font-family="Helvetica,sans-Serif" font-size="10.00">2</text>
</a>
</g>
</g>
<!-- dir_840b59c0089045b39e04c943f460db90&#45;&gt;dir_6c55353c8ddedc1504b0a543e75141a6 -->
<g id="edge2" class="edge">
<title>dir_840b59c0089045b39e04c943f460db90&#45;&gt;dir_6c55353c8ddedc1504b0a543e75141a6</title>
<path fill="none" stroke="black" d="M313.79,-167.86C312.79,-149.89 312,-120.85 315,-96 316.02,-87.53 317.93,-78.47 319.98,-70.28"/>
<polygon fill="black" stroke="black" points="323.4,-71.03 322.59,-60.47 316.64,-69.23 323.4,-71.03"/>
<g id="a_edge2&#45;headlabel"><a xlink:href="dir_000016_000021.html" target="_top" xlink:title="10">
<text text-anchor="middle" x="325.22" y="-72.74" font-family="Helvetica,sans-Serif" font-size="10.00">10</text>
</a>
</g>
</g>
<!-- dir_5de67a17ea497dd0f0d11e45dc5f99a8 -->
<g id="node11" class="node">
<title>dir_5de67a17ea497dd0f0d11e45dc5f99a8</title>
<g id="a_node11"><a xlink:href="dir_5de67a17ea497dd0f0d11e45dc5f99a8.html" target="_top" xlink:title="riff">
<polygon fill="white" stroke="red" points="485,-204 431,-204 431,-168 485,-168 485,-204"/>
<text text-anchor="middle" x="458" y="-183.5" font-family="Helvetica,sans-Serif" font-size="10.00">riff</text>
</a>
</g>
</g>
<!-- dir_5de67a17ea497dd0f0d11e45dc5f99a8&#45;&gt;dir_cecf31b85937f05106fcc9fdbed9124e -->
<g id="edge17" class="edge">
<title>dir_5de67a17ea497dd0f0d11e45dc5f99a8&#45;&gt;dir_cecf31b85937f05106fcc9fdbed9124e</title>
<path fill="none" stroke="black" d="M485.04,-170.33C504.22,-159.92 530.16,-145.84 551.08,-134.49"/>
<polygon fill="black" stroke="black" points="552.87,-137.5 559.99,-129.65 549.53,-131.35 552.87,-137.5"/>
<g id="a_edge17&#45;headlabel"><a xlink:href="dir_000002_000006.html" target="_top" xlink:title="2">
<text text-anchor="middle" x="551.07" y="-139.21" font-family="Helvetica,sans-Serif" font-size="10.00">2</text>
</a>
</g>
</g>
<!-- dir_5de67a17ea497dd0f0d11e45dc5f99a8&#45;&gt;dir_6c55353c8ddedc1504b0a543e75141a6 -->
<g id="edge16" class="edge">
<title>dir_5de67a17ea497dd0f0d11e45dc5f99a8&#45;&gt;dir_6c55353c8ddedc1504b0a543e75141a6</title>
<path fill="none" stroke="black" d="M439.3,-167.89C429.07,-157.98 416.57,-144.94 407,-132 396.12,-117.28 398.41,-110.31 387,-96 378.6,-85.47 368.01,-75.24 358.12,-66.63"/>
<polygon fill="black" stroke="black" points="360.29,-63.88 350.39,-60.09 355.77,-69.23 360.29,-63.88"/>
<g id="a_edge16&#45;headlabel"><a xlink:href="dir_000002_000021.html" target="_top" xlink:title="6">
<text text-anchor="middle" x="364.87" y="-61.54" font-family="Helvetica,sans-Serif" font-size="10.00">6</text>
</a>
</g>
</g>
<!-- dir_a8cda38173802659aa44685b83c371ec -->
<g id="node12" class="node">
<title>dir_a8cda38173802659aa44685b83c371ec</title>
<g id="a_node12"><a xlink:href="dir_a8cda38173802659aa44685b83c371ec.html" target="_top" xlink:title="s3m">
<polygon fill="white" stroke="black" points="177,-204 123,-204 123,-168 177,-168 177,-204"/>
<text text-anchor="middle" x="150" y="-183.5" font-family="Helvetica,sans-Serif" font-size="10.00">s3m</text>
</a>
</g>
</g>
<!-- dir_a8cda38173802659aa44685b83c371ec&#45;&gt;dir_85edf4838e8646489e3c7d5be4c00272 -->
<g id="edge14" class="edge">
<title>dir_a8cda38173802659aa44685b83c371ec&#45;&gt;dir_85edf4838e8646489e3c7d5be4c00272</title>
<path fill="none" stroke="black" d="M130.47,-167.7C120.62,-158.97 108.51,-148.24 97.8,-138.75"/>
<polygon fill="black" stroke="black" points="100.11,-136.12 90.3,-132.1 95.47,-141.36 100.11,-136.12"/>
<g id="a_edge14&#45;headlabel"><a xlink:href="dir_000019_000013.html" target="_top" xlink:title="2">
<text text-anchor="middle" x="104.68" y="-133.88" font-family="Helvetica,sans-Serif" font-size="10.00">2</text>
</a>
</g>
</g>
<!-- dir_a8cda38173802659aa44685b83c371ec&#45;&gt;dir_6c55353c8ddedc1504b0a543e75141a6 -->
<g id="edge13" class="edge">
<title>dir_a8cda38173802659aa44685b83c371ec&#45;&gt;dir_6c55353c8ddedc1504b0a543e75141a6</title>
<path fill="none" stroke="black" d="M177.02,-173.92C204.2,-162.34 243.67,-144.19 255,-132 266.8,-119.31 260.03,-110.18 270,-96 277.48,-85.36 287.42,-75.3 296.97,-66.86"/>
<polygon fill="black" stroke="black" points="299.48,-69.32 304.83,-60.17 294.94,-63.99 299.48,-69.32"/>
<g id="a_edge13&#45;headlabel"><a xlink:href="dir_000019_000021.html" target="_top" xlink:title="2">
<text text-anchor="middle" x="298.58" y="-71.31" font-family="Helvetica,sans-Serif" font-size="10.00">2</text>
</a>
</g>
</g>
<!-- dir_f7358ff0f722ed12e8b625761d521245 -->
<g id="node14" class="node">
<title>dir_f7358ff0f722ed12e8b625761d521245</title>
<g id="a_node14"><a xlink:href="dir_f7358ff0f722ed12e8b625761d521245.html" target="_top" xlink:title="trueaudio">
<polygon fill="white" stroke="black" points="246,-132 190,-132 190,-96 246,-96 246,-132"/>
<text text-anchor="middle" x="218" y="-111.5" font-family="Helvetica,sans-Serif" font-size="10.00">trueaudio</text>
</a>
</g>
</g>
<!-- dir_f7358ff0f722ed12e8b625761d521245&#45;&gt;dir_6c55353c8ddedc1504b0a543e75141a6 -->
<g id="edge6" class="edge">
<title>dir_f7358ff0f722ed12e8b625761d521245&#45;&gt;dir_6c55353c8ddedc1504b0a543e75141a6</title>
<path fill="none" stroke="black" d="M244.91,-95.88C259.16,-86.81 276.85,-75.55 292.24,-65.76"/>
<polygon fill="black" stroke="black" points="294.43,-68.51 300.99,-60.19 290.67,-62.61 294.43,-68.51"/>
<g id="a_edge6&#45;headlabel"><a xlink:href="dir_000022_000021.html" target="_top" xlink:title="1">
<text text-anchor="middle" x="292.92" y="-70.34" font-family="Helvetica,sans-Serif" font-size="10.00">1</text>
</a>
</g>
</g>
<!-- dir_d391cd6126a245b2be34dc43c83d2c20 -->
<g id="node15" class="node">
<title>dir_d391cd6126a245b2be34dc43c83d2c20</title>
<g id="a_node15"><a xlink:href="dir_d391cd6126a245b2be34dc43c83d2c20.html" target="_top" xlink:title="wavpack">
<polygon fill="white" stroke="black" points="172,-132 116,-132 116,-96 172,-96 172,-132"/>
<text text-anchor="middle" x="144" y="-111.5" font-family="Helvetica,sans-Serif" font-size="10.00">wavpack</text>
</a>
</g>
</g>
<!-- dir_d391cd6126a245b2be34dc43c83d2c20&#45;&gt;dir_6c55353c8ddedc1504b0a543e75141a6 -->
<g id="edge15" class="edge">
<title>dir_d391cd6126a245b2be34dc43c83d2c20&#45;&gt;dir_6c55353c8ddedc1504b0a543e75141a6</title>
<path fill="none" stroke="black" d="M172.17,-99.76C175.14,-98.45 178.12,-97.18 181,-96 218.11,-80.82 261.36,-65.5 291.3,-55.26"/>
<polygon fill="black" stroke="black" points="292.58,-58.53 300.92,-52 290.32,-51.9 292.58,-58.53"/>
<g id="a_edge15&#45;headlabel"><a xlink:href="dir_000024_000021.html" target="_top" xlink:title="1">
<text text-anchor="middle" x="290.09" y="-59.87" font-family="Helvetica,sans-Serif" font-size="10.00">1</text>
</a>
</g>
</g>
<!-- dir_cb860f4e0dbe94c771af478e480f5f9e -->
<g id="node16" class="node">
<title>dir_cb860f4e0dbe94c771af478e480f5f9e</title>
<g id="a_node16"><a xlink:href="dir_cb860f4e0dbe94c771af478e480f5f9e.html" target="_top" xlink:title="xm">
<polygon fill="white" stroke="black" points="88,-204 34,-204 34,-168 88,-168 88,-204"/>
<text text-anchor="middle" x="61" y="-183.5" font-family="Helvetica,sans-Serif" font-size="10.00">xm</text>
</a>
</g>
</g>
<!-- dir_cb860f4e0dbe94c771af478e480f5f9e&#45;&gt;dir_85edf4838e8646489e3c7d5be4c00272 -->
<g id="edge8" class="edge">
<title>dir_cb860f4e0dbe94c771af478e480f5f9e&#45;&gt;dir_85edf4838e8646489e3c7d5be4c00272</title>
<path fill="none" stroke="black" d="M63.47,-167.7C64.57,-159.98 65.9,-150.71 67.13,-142.11"/>
<polygon fill="black" stroke="black" points="70.61,-142.5 68.56,-132.1 63.68,-141.51 70.61,-142.5"/>
<g id="a_edge8&#45;headlabel"><a xlink:href="dir_000025_000013.html" target="_top" xlink:title="2">
<text text-anchor="middle" x="72.91" y="-143.96" font-family="Helvetica,sans-Serif" font-size="10.00">2</text>
</a>
</g>
</g>
<!-- dir_cb860f4e0dbe94c771af478e480f5f9e&#45;&gt;dir_6c55353c8ddedc1504b0a543e75141a6 -->
<g id="edge7" class="edge">
<title>dir_cb860f4e0dbe94c771af478e480f5f9e&#45;&gt;dir_6c55353c8ddedc1504b0a543e75141a6</title>
<path fill="none" stroke="black" d="M47.51,-167.69C34.08,-148.22 17.77,-116.63 35,-96 67.15,-57.51 218.9,-46.92 290.47,-44.05"/>
<polygon fill="black" stroke="black" points="290.96,-47.53 300.83,-43.66 290.71,-40.54 290.96,-47.53"/>
<g id="a_edge7&#45;headlabel"><a xlink:href="dir_000025_000021.html" target="_top" xlink:title="3">
<text text-anchor="middle" x="287.48" y="-48" font-family="Helvetica,sans-Serif" font-size="10.00">3</text>
</a>
</g>
</g>
</g>
</svg>
