<?xml version="1.0" encoding="UTF-8" standalone="no"?>
<!DOCTYPE svg PUBLIC "-//W3C//DTD SVG 1.1//EN"
 "http://www.w3.org/Graphics/SVG/1.1/DTD/svg11.dtd">
<!-- Generated by graphviz version 2.46.1 (20210213.1702)
 -->
<!-- Title: riff Pages: 1 -->
<svg width="254pt" height="247pt"
 viewBox="0.00 0.00 254.00 247.00" xmlns="http://www.w3.org/2000/svg" xmlns:xlink="http://www.w3.org/1999/xlink">
<g id="graph0" class="graph" transform="scale(1 1) rotate(0) translate(4 243)">
<title>riff</title>
<polygon fill="white" stroke="transparent" points="-4,4 -4,-243 250,-243 250,4 -4,4"/>
<g id="clust1" class="cluster">
<title>clusterdir_501f9c1866672ad030f4cfda4b04b1dc</title>
<g id="a_clust1"><a xlink:href="dir_501f9c1866672ad030f4cfda4b04b1dc.html" target="_top" xlink:title="taglib">
<polygon fill="#ddddee" stroke="black" points="8,-8 8,-231 238,-231 238,-8 8,-8"/>
<text text-anchor="middle" x="123" y="-219" font-family="Helvetica,sans-Serif" font-size="10.00">taglib</text>
</a>
</g>
</g>
<g id="clust2" class="cluster">
<title>clusterdir_5de67a17ea497dd0f0d11e45dc5f99a8</title>
<g id="a_clust2"><a xlink:href="dir_5de67a17ea497dd0f0d11e45dc5f99a8.html" target="_top">
<polygon fill="#eeeeff" stroke="black" points="16,-152 16,-204 230,-204 230,-152 16,-152"/>
</a>
</g>
</g>
<!-- dir_6c55353c8ddedc1504b0a543e75141a6 -->
<g id="node1" class="node">
<title>dir_6c55353c8ddedc1504b0a543e75141a6</title>
<g id="a_node1"><a xlink:href="dir_6c55353c8ddedc1504b0a543e75141a6.html" target="_top" xlink:title="toolkit">
<polygon fill="none" stroke="black" points="156,-52 102,-52 102,-16 156,-16 156,-52"/>
<text text-anchor="middle" x="129" y="-31.5" font-family="Helvetica,sans-Serif" font-size="10.00">toolkit</text>
</a>
</g>
</g>
<!-- dir_cecf31b85937f05106fcc9fdbed9124e -->
<g id="node2" class="node">
<title>dir_cecf31b85937f05106fcc9fdbed9124e</title>
<g id="a_node2"><a xlink:href="dir_cecf31b85937f05106fcc9fdbed9124e.html" target="_top" xlink:title="mpeg">
<polygon fill="white" stroke="red" points="156,-124 102,-124 102,-88 156,-88 156,-124"/>
<text text-anchor="middle" x="129" y="-103.5" font-family="Helvetica,sans-Serif" font-size="10.00">mpeg</text>
</a>
</g>
</g>
<!-- dir_cecf31b85937f05106fcc9fdbed9124e&#45;&gt;dir_6c55353c8ddedc1504b0a543e75141a6 -->
<g id="edge3" class="edge">
<title>dir_cecf31b85937f05106fcc9fdbed9124e&#45;&gt;dir_6c55353c8ddedc1504b0a543e75141a6</title>
<path fill="none" stroke="black" d="M129,-87.7C129,-79.98 129,-70.71 129,-62.11"/>
<polygon fill="black" stroke="black" points="132.5,-62.1 129,-52.1 125.5,-62.1 132.5,-62.1"/>
<g id="a_edge3&#45;headlabel"><a xlink:href="dir_000006_000021.html" target="_top" xlink:title="23">
<text text-anchor="middle" x="135.34" y="-63.2" font-family="Helvetica,sans-Serif" font-size="10.00">23</text>
</a>
</g>
</g>
<!-- dir_5de67a17ea497dd0f0d11e45dc5f99a8 -->
<g id="node3" class="node">
<title>dir_5de67a17ea497dd0f0d11e45dc5f99a8</title>
<text text-anchor="middle" x="51" y="-175.5" font-family="Helvetica,sans-Serif" font-size="10.00">riff</text>
</g>
<!-- dir_5de67a17ea497dd0f0d11e45dc5f99a8&#45;&gt;dir_6c55353c8ddedc1504b0a543e75141a6 -->
<g id="edge5" class="edge">
<title>dir_5de67a17ea497dd0f0d11e45dc5f99a8&#45;&gt;dir_6c55353c8ddedc1504b0a543e75141a6</title>
<path fill="none" stroke="black" d="M58.13,-159.87C65.94,-141.65 79.19,-112.18 93,-88 98.24,-78.82 104.55,-69.16 110.41,-60.63"/>
<polygon fill="black" stroke="black" points="113.43,-62.43 116.29,-52.23 107.69,-58.41 113.43,-62.43"/>
<g id="a_edge5&#45;headlabel"><a xlink:href="dir_000002_000021.html" target="_top" xlink:title="6">
<text text-anchor="middle" x="113.69" y="-64.5" font-family="Helvetica,sans-Serif" font-size="10.00">6</text>
</a>
</g>
</g>
<!-- dir_a5b38b5e80d574eb3cce34c6d15fccf4 -->
<g id="node4" class="node">
<title>dir_a5b38b5e80d574eb3cce34c6d15fccf4</title>
<g id="a_node4"><a xlink:href="dir_a5b38b5e80d574eb3cce34c6d15fccf4.html" target="_top" xlink:title="aiff">
<polygon fill="white" stroke="black" points="150,-196 96,-196 96,-160 150,-160 150,-196"/>
<text text-anchor="middle" x="123" y="-175.5" font-family="Helvetica,sans-Serif" font-size="10.00">aiff</text>
</a>
</g>
</g>
<!-- dir_a5b38b5e80d574eb3cce34c6d15fccf4&#45;&gt;dir_cecf31b85937f05106fcc9fdbed9124e -->
<g id="edge4" class="edge">
<title>dir_a5b38b5e80d574eb3cce34c6d15fccf4&#45;&gt;dir_cecf31b85937f05106fcc9fdbed9124e</title>
<path fill="none" stroke="black" d="M124.48,-159.7C125.14,-151.98 125.94,-142.71 126.68,-134.11"/>
<polygon fill="black" stroke="black" points="130.17,-134.37 127.53,-124.1 123.19,-133.77 130.17,-134.37"/>
<g id="a_edge4&#45;headlabel"><a xlink:href="dir_000003_000006.html" target="_top" xlink:title="1">
<text text-anchor="middle" x="132.69" y="-135.69" font-family="Helvetica,sans-Serif" font-size="10.00">1</text>
</a>
</g>
</g>
<!-- dir_5b3b6f5a9f16a5933b8f978acfb97ee9 -->
<g id="node5" class="node">
<title>dir_5b3b6f5a9f16a5933b8f978acfb97ee9</title>
<g id="a_node5"><a xlink:href="dir_5b3b6f5a9f16a5933b8f978acfb97ee9.html" target="_top" xlink:title="wav">
<polygon fill="white" stroke="black" points="222,-196 168,-196 168,-160 222,-160 222,-196"/>
<text text-anchor="middle" x="195" y="-175.5" font-family="Helvetica,sans-Serif" font-size="10.00">wav</text>
</a>
</g>
</g>
<!-- dir_5b3b6f5a9f16a5933b8f978acfb97ee9&#45;&gt;dir_6c55353c8ddedc1504b0a543e75141a6 -->
<g id="edge1" class="edge">
<title>dir_5b3b6f5a9f16a5933b8f978acfb97ee9&#45;&gt;dir_6c55353c8ddedc1504b0a543e75141a6</title>
<path fill="none" stroke="black" d="M190.68,-159.72C185.75,-141.38 176.82,-111.8 165,-88 160.37,-78.68 154.32,-69.1 148.51,-60.69"/>
<polygon fill="black" stroke="black" points="151.26,-58.52 142.6,-52.41 145.56,-62.58 151.26,-58.52"/>
<g id="a_edge1&#45;headlabel"><a xlink:href="dir_000011_000021.html" target="_top" xlink:title="5">
<text text-anchor="middle" x="155.66" y="-57.3" font-family="Helvetica,sans-Serif" font-size="10.00">5</text>
</a>
</g>
</g>
<!-- dir_5b3b6f5a9f16a5933b8f978acfb97ee9&#45;&gt;dir_cecf31b85937f05106fcc9fdbed9124e -->
<g id="edge2" class="edge">
<title>dir_5b3b6f5a9f16a5933b8f978acfb97ee9&#45;&gt;dir_cecf31b85937f05106fcc9fdbed9124e</title>
<path fill="none" stroke="black" d="M178.69,-159.7C170.69,-151.22 160.93,-140.86 152.18,-131.58"/>
<polygon fill="black" stroke="black" points="154.53,-128.98 145.13,-124.1 149.44,-133.78 154.53,-128.98"/>
<g id="a_edge2&#45;headlabel"><a xlink:href="dir_000011_000006.html" target="_top" xlink:title="1">
<text text-anchor="middle" x="159.07" y="-127.15" font-family="Helvetica,sans-Serif" font-size="10.00">1</text>
</a>
</g>
</g>
</g>
</svg>
