<?xml version="1.0" encoding="UTF-8" standalone="no"?>
<!DOCTYPE svg PUBLIC "-//W3C//DTD SVG 1.1//EN"
 "http://www.w3.org/Graphics/SVG/1.1/DTD/svg11.dtd">
<!-- Generated by graphviz version 2.43.0 (0)
 -->
<!-- Title: id3v2 Pages: 1 -->
<svg width="182pt" height="159pt"
 viewBox="0.00 0.00 182.00 159.00" xmlns="http://www.w3.org/2000/svg" xmlns:xlink="http://www.w3.org/1999/xlink">
<g id="graph0" class="graph" transform="scale(1 1) rotate(0) translate(4 155)">
<title>id3v2</title>
<polygon fill="white" stroke="transparent" points="-4,4 -4,-155 178,-155 178,4 -4,4"/>
<g id="clust1" class="cluster">
<title>clusterdir_cecf31b85937f05106fcc9fdbed9124e</title>
<g id="a_clust1"><a xlink:href="dir_cecf31b85937f05106fcc9fdbed9124e.html" target="_top" xlink:title="mpeg">
<polygon fill="#edf0f7" stroke="#7f7f7f" stroke-dasharray="5,2" points="8,-56 8,-143 166,-143 166,-56 8,-56"/>
<text text-anchor="middle" x="87" y="-131" font-family="Helvetica,sans-Serif" font-size="10.00">mpeg</text>
</a>
</g>
</g>
<g id="clust2" class="cluster">
<title>clusterdir_118cdcd9d2449bb37beeb65153949d53</title>
<g id="a_clust2"><a xlink:href="dir_118cdcd9d2449bb37beeb65153949d53.html" target="_top">
<polygon fill="#edf0f7" stroke="#404040" stroke-width="2" points="16,-64 16,-116 158,-116 158,-64 16,-64"/>
</a>
</g>
</g>
<!-- dir_118cdcd9d2449bb37beeb65153949d53 -->
<g id="node1" class="node">
<title>dir_118cdcd9d2449bb37beeb65153949d53</title>
<text text-anchor="middle" x="123" y="-87.5" font-family="Helvetica,sans-Serif" font-size="10.00">id3v2</text>
</g>
<!-- dir_6c55353c8ddedc1504b0a543e75141a6 -->
<g id="node3" class="node">
<title>dir_6c55353c8ddedc1504b0a543e75141a6</title>
<g id="a_node3"><a xlink:href="dir_6c55353c8ddedc1504b0a543e75141a6.html" target="_top" xlink:title="toolkit">
<polygon fill="none" stroke="#7f7f7f" points="114,-36 60,-36 60,0 114,0 114,-36"/>
<text text-anchor="middle" x="87" y="-15.5" font-family="Helvetica,sans-Serif" font-size="10.00">toolkit</text>
</a>
</g>
</g>
<!-- dir_118cdcd9d2449bb37beeb65153949d53&#45;&gt;dir_6c55353c8ddedc1504b0a543e75141a6 -->
<g id="edge1" class="edge">
<title>dir_118cdcd9d2449bb37beeb65153949d53&#45;&gt;dir_6c55353c8ddedc1504b0a543e75141a6</title>
<path fill="none" stroke="black" d="M114.1,-71.7C110,-63.73 105.05,-54.1 100.51,-45.26"/>
<polygon fill="black" stroke="black" points="103.48,-43.4 95.8,-36.1 97.26,-46.6 103.48,-43.4"/>
<g id="a_edge1&#45;headlabel"><a xlink:href="dir_000009_000022.html" target="_top" xlink:title="20">
<text text-anchor="middle" x="107.65" y="-42.79" font-family="Helvetica,sans-Serif" font-size="10.00">20</text>
</a>
</g>
</g>
<!-- dir_8ba9ab948ff77e18fba8203c331c7f58 -->
<g id="node2" class="node">
<title>dir_8ba9ab948ff77e18fba8203c331c7f58</title>
<g id="a_node2"><a xlink:href="dir_8ba9ab948ff77e18fba8203c331c7f58.html" target="_top" xlink:title="frames">
<polygon fill="#a2b4d6" stroke="#404040" points="78,-108 24,-108 24,-72 78,-72 78,-108"/>
<text text-anchor="middle" x="51" y="-87.5" font-family="Helvetica,sans-Serif" font-size="10.00">frames</text>
</a>
</g>
</g>
<!-- dir_8ba9ab948ff77e18fba8203c331c7f58&#45;&gt;dir_6c55353c8ddedc1504b0a543e75141a6 -->
<g id="edge2" class="edge">
<title>dir_8ba9ab948ff77e18fba8203c331c7f58&#45;&gt;dir_6c55353c8ddedc1504b0a543e75141a6</title>
<path fill="none" stroke="black" d="M59.9,-71.7C64,-63.73 68.95,-54.1 73.49,-45.26"/>
<polygon fill="black" stroke="black" points="76.74,-46.6 78.2,-36.1 70.52,-43.4 76.74,-46.6"/>
<g id="a_edge2&#45;headlabel"><a xlink:href="dir_000007_000022.html" target="_top" xlink:title="7">
<text text-anchor="middle" x="77.62" y="-48.59" font-family="Helvetica,sans-Serif" font-size="10.00">7</text>
</a>
</g>
</g>
</g>
</svg>
