<?xml version="1.0" encoding="UTF-8" standalone="no"?>
<!DOCTYPE svg PUBLIC "-//W3C//DTD SVG 1.1//EN"
 "http://www.w3.org/Graphics/SVG/1.1/DTD/svg11.dtd">
<!-- Generated by graphviz version 2.43.0 (0)
 -->
<!-- Title: dsf Pages: 1 -->
<svg width="166pt" height="167pt"
 viewBox="0.00 0.00 166.00 167.00" xmlns="http://www.w3.org/2000/svg" xmlns:xlink="http://www.w3.org/1999/xlink">
<g id="graph0" class="graph" transform="scale(1 1) rotate(0) translate(4 163)">
<title>dsf</title>
<polygon fill="white" stroke="transparent" points="-4,4 -4,-163 162,-163 162,4 -4,4"/>
<g id="clust1" class="cluster">
<title>clusterdir_501f9c1866672ad030f4cfda4b04b1dc</title>
<g id="a_clust1"><a xlink:href="dir_501f9c1866672ad030f4cfda4b04b1dc.html" target="_top" xlink:title="taglib">
<polygon fill="#edf0f7" stroke="#7f7f7f" stroke-dasharray="5,2" points="8,-8 8,-151 150,-151 150,-8 8,-8"/>
<text text-anchor="middle" x="79" y="-139" font-family="Helvetica,sans-Serif" font-size="10.00">taglib</text>
</a>
</g>
</g>
<!-- dir_6c55353c8ddedc1504b0a543e75141a6 -->
<g id="node1" class="node">
<title>dir_6c55353c8ddedc1504b0a543e75141a6</title>
<g id="a_node1"><a xlink:href="dir_6c55353c8ddedc1504b0a543e75141a6.html" target="_top" xlink:title="toolkit">
<polygon fill="#a2b4d6" stroke="#404040" points="70,-52 16,-52 16,-16 70,-16 70,-52"/>
<text text-anchor="middle" x="43" y="-31.5" font-family="Helvetica,sans-Serif" font-size="10.00">toolkit</text>
</a>
</g>
</g>
<!-- dir_cecf31b85937f05106fcc9fdbed9124e -->
<g id="node2" class="node">
<title>dir_cecf31b85937f05106fcc9fdbed9124e</title>
<g id="a_node2"><a xlink:href="dir_cecf31b85937f05106fcc9fdbed9124e.html" target="_top" xlink:title="mpeg">
<polygon fill="#a2b4d6" stroke="red" points="142,-52 88,-52 88,-16 142,-16 142,-52"/>
<text text-anchor="middle" x="115" y="-31.5" font-family="Helvetica,sans-Serif" font-size="10.00">mpeg</text>
</a>
</g>
</g>
<!-- dir_799097d732b228ddd6a57bcc9c1dcf5d -->
<g id="node3" class="node">
<title>dir_799097d732b228ddd6a57bcc9c1dcf5d</title>
<g id="a_node3"><a xlink:href="dir_799097d732b228ddd6a57bcc9c1dcf5d.html" target="_top" xlink:title="dsf">
<polygon fill="#edf0f7" stroke="#404040" stroke-width="2" points="106,-124 52,-124 52,-88 106,-88 106,-124"/>
<text text-anchor="middle" x="79" y="-103.5" font-family="Helvetica,sans-Serif" font-size="10.00">dsf</text>
</a>
</g>
</g>
<!-- dir_799097d732b228ddd6a57bcc9c1dcf5d&#45;&gt;dir_6c55353c8ddedc1504b0a543e75141a6 -->
<g id="edge1" class="edge">
<title>dir_799097d732b228ddd6a57bcc9c1dcf5d&#45;&gt;dir_6c55353c8ddedc1504b0a543e75141a6</title>
<path fill="none" stroke="black" d="M70.1,-87.7C66,-79.73 61.05,-70.1 56.51,-61.26"/>
<polygon fill="black" stroke="black" points="59.48,-59.4 51.8,-52.1 53.26,-62.6 59.48,-59.4"/>
<g id="a_edge1&#45;headlabel"><a xlink:href="dir_000004_000022.html" target="_top" xlink:title="2">
<text text-anchor="middle" x="63.65" y="-58.79" font-family="Helvetica,sans-Serif" font-size="10.00">2</text>
</a>
</g>
</g>
<!-- dir_799097d732b228ddd6a57bcc9c1dcf5d&#45;&gt;dir_cecf31b85937f05106fcc9fdbed9124e -->
<g id="edge2" class="edge">
<title>dir_799097d732b228ddd6a57bcc9c1dcf5d&#45;&gt;dir_cecf31b85937f05106fcc9fdbed9124e</title>
<path fill="none" stroke="black" d="M87.9,-87.7C92,-79.73 96.95,-70.1 101.49,-61.26"/>
<polygon fill="black" stroke="black" points="104.74,-62.6 106.2,-52.1 98.52,-59.4 104.74,-62.6"/>
<g id="a_edge2&#45;headlabel"><a xlink:href="dir_000004_000014.html" target="_top" xlink:title="1">
<text text-anchor="middle" x="105.62" y="-64.59" font-family="Helvetica,sans-Serif" font-size="10.00">1</text>
</a>
</g>
</g>
</g>
</svg>
