<?xml version="1.0" encoding="UTF-8" standalone="no"?>
<!DOCTYPE svg PUBLIC "-//W3C//DTD SVG 1.1//EN"
 "http://www.w3.org/Graphics/SVG/1.1/DTD/svg11.dtd">
<!-- Generated by graphviz version 2.42.4 (0)
 -->
<!-- Title: taglib Pages: 1 -->
<svg width="857pt" height="204pt"
 viewBox="0.00 0.00 857.00 204.00" xmlns="http://www.w3.org/2000/svg" xmlns:xlink="http://www.w3.org/1999/xlink">
<g id="graph0" class="graph" transform="scale(1 1) rotate(0) translate(4 200)">
<title>taglib</title>
<g id="clust1" class="cluster">
<title>clusterdir_b2f33c71d4aa5e7af42a1ca61ff5af1b</title>
<g id="a_clust1"><a xlink:href="dir_b2f33c71d4aa5e7af42a1ca61ff5af1b.html" target="_top" xlink:title="source">
<polygon fill="#edf0f7" stroke="#404040" stroke-dasharray="5,2" points="8,-8 8,-188 841,-188 841,-8 8,-8"/>
<text text-anchor="middle" x="424.5" y="-176" font-family="Helvetica,sans-Serif" font-size="10.00">source</text>
</a>
</g>
</g>
<g id="clust2" class="cluster">
<title>clusterdir_501f9c1866672ad030f4cfda4b04b1dc</title>
<g id="a_clust2"><a xlink:href="dir_501f9c1866672ad030f4cfda4b04b1dc.html" target="_top">
<polygon fill="#edf0f7" stroke="#404040" stroke-width="2" points="16,-16 16,-161 833,-161 833,-16 16,-16"/>
</a>
</g>
</g>
<!-- dir_501f9c1866672ad030f4cfda4b04b1dc -->
<g id="node1" class="node">
<title>dir_501f9c1866672ad030f4cfda4b04b1dc</title>
<text text-anchor="middle" x="803" y="-86" font-family="Helvetica,sans-Serif" font-size="10.00">taglib</text>
</g>
<!-- dir_6c55353c8ddedc1504b0a543e75141a6 -->
<g id="node16" class="node">
<title>dir_6c55353c8ddedc1504b0a543e75141a6</title>
<g id="a_node16"><a xlink:href="dir_6c55353c8ddedc1504b0a543e75141a6.html" target="_top" xlink:title="toolkit">
<polygon fill="#a2b4d6" stroke="#404040" points="450,-43 402,-43 402,-24 450,-24 450,-43"/>
<text text-anchor="middle" x="426" y="-31" font-family="Helvetica,sans-Serif" font-size="10.00">toolkit</text>
</a>
</g>
</g>
<!-- dir_501f9c1866672ad030f4cfda4b04b1dc&#45;&gt;dir_6c55353c8ddedc1504b0a543e75141a6 -->
<g id="edge1" class="edge">
<title>dir_501f9c1866672ad030f4cfda4b04b1dc&#45;&gt;dir_6c55353c8ddedc1504b0a543e75141a6</title>
<g id="a_edge1"><a xlink:href="dir_000022_000023.html" target="_top">
<path fill="none" stroke="#63b8ff" d="M780.74,-81C777.81,-80.26 774.85,-79.57 772,-79 658.89,-56.33 522.54,-42.76 460.16,-37.3"/>
<polygon fill="#63b8ff" stroke="#63b8ff" points="460.36,-33.8 450.1,-36.43 459.76,-40.78 460.36,-33.8"/>
</a>
</g>
<g id="a_edge1&#45;headlabel"><a xlink:href="dir_000022_000023.html" target="_top" xlink:title="105">
<text text-anchor="middle" x="464.19" y="-28.78" font-family="Helvetica,sans-Serif" font-size="10.00" fill="#63b8ff">105</text>
</a>
</g>
</g>
<!-- dir_6ac7b66c0b3a7e0af392b8cc062c341b -->
<g id="node2" class="node">
<title>dir_6ac7b66c0b3a7e0af392b8cc062c341b</title>
<g id="a_node2"><a xlink:href="dir_6ac7b66c0b3a7e0af392b8cc062c341b.html" target="_top" xlink:title="ape">
<polygon fill="#a2b4d6" stroke="#404040" points="762.5,-98 727.5,-98 727.5,-79 762.5,-79 762.5,-98"/>
<text text-anchor="middle" x="745" y="-86" font-family="Helvetica,sans-Serif" font-size="10.00">ape</text>
</a>
</g>
</g>
<!-- dir_6ac7b66c0b3a7e0af392b8cc062c341b&#45;&gt;dir_6c55353c8ddedc1504b0a543e75141a6 -->
<g id="edge2" class="edge">
<title>dir_6ac7b66c0b3a7e0af392b8cc062c341b&#45;&gt;dir_6c55353c8ddedc1504b0a543e75141a6</title>
<g id="a_edge2"><a xlink:href="dir_000001_000023.html" target="_top">
<path fill="none" stroke="#63b8ff" d="M727.39,-81.53C724.28,-80.6 721.06,-79.71 718,-79 625.98,-57.64 515.19,-43.98 460.29,-38"/>
<polygon fill="#63b8ff" stroke="#63b8ff" points="460.4,-34.49 450.08,-36.9 459.65,-41.45 460.4,-34.49"/>
</a>
</g>
<g id="a_edge2&#45;headlabel"><a xlink:href="dir_000001_000023.html" target="_top" xlink:title="10">
<text text-anchor="middle" x="464.27" y="-29.55" font-family="Helvetica,sans-Serif" font-size="10.00" fill="#63b8ff">10</text>
</a>
</g>
</g>
<!-- dir_778a302a79b7be7ce7f0e58a72b993dc -->
<g id="node3" class="node">
<title>dir_778a302a79b7be7ce7f0e58a72b993dc</title>
<g id="a_node3"><a xlink:href="dir_778a302a79b7be7ce7f0e58a72b993dc.html" target="_top" xlink:title="asf">
<polygon fill="#a2b4d6" stroke="#404040" points="709,-98 677,-98 677,-79 709,-79 709,-98"/>
<text text-anchor="middle" x="693" y="-86" font-family="Helvetica,sans-Serif" font-size="10.00">asf</text>
</a>
</g>
</g>
<!-- dir_778a302a79b7be7ce7f0e58a72b993dc&#45;&gt;dir_6c55353c8ddedc1504b0a543e75141a6 -->
<g id="edge3" class="edge">
<title>dir_778a302a79b7be7ce7f0e58a72b993dc&#45;&gt;dir_6c55353c8ddedc1504b0a543e75141a6</title>
<g id="a_edge3"><a xlink:href="dir_000002_000023.html" target="_top">
<path fill="none" stroke="#63b8ff" d="M676.88,-82.64C672.4,-81.37 667.53,-80.07 663,-79 591.35,-62.16 506.34,-47.46 460.11,-39.91"/>
<polygon fill="#63b8ff" stroke="#63b8ff" points="460.47,-36.42 450.03,-38.27 459.35,-43.33 460.47,-36.42"/>
</a>
</g>
<g id="a_edge3&#45;headlabel"><a xlink:href="dir_000002_000023.html" target="_top" xlink:title="9">
<text text-anchor="middle" x="464.47" y="-31.69" font-family="Helvetica,sans-Serif" font-size="10.00" fill="#63b8ff">9</text>
</a>
</g>
</g>
<!-- dir_9e6fcbbe14d0c1ffd0dbf060977af8ab -->
<g id="node4" class="node">
<title>dir_9e6fcbbe14d0c1ffd0dbf060977af8ab</title>
<g id="a_node4"><a xlink:href="dir_9e6fcbbe14d0c1ffd0dbf060977af8ab.html" target="_top" xlink:title="dsdiff">
<polygon fill="#a2b4d6" stroke="#404040" points="678,-153 634,-153 634,-134 678,-134 678,-153"/>
<text text-anchor="middle" x="656" y="-141" font-family="Helvetica,sans-Serif" font-size="10.00">dsdiff</text>
</a>
</g>
</g>
<!-- dir_cecf31b85937f05106fcc9fdbed9124e -->
<g id="node11" class="node">
<title>dir_cecf31b85937f05106fcc9fdbed9124e</title>
<g id="a_node11"><a xlink:href="dir_cecf31b85937f05106fcc9fdbed9124e.html" target="_top" xlink:title="mpeg">
<polygon fill="#a2b4d6" stroke="#404040" points="619,-98 575,-98 575,-79 619,-79 619,-98"/>
<text text-anchor="middle" x="597" y="-86" font-family="Helvetica,sans-Serif" font-size="10.00">mpeg</text>
</a>
</g>
</g>
<!-- dir_9e6fcbbe14d0c1ffd0dbf060977af8ab&#45;&gt;dir_cecf31b85937f05106fcc9fdbed9124e -->
<g id="edge5" class="edge">
<title>dir_9e6fcbbe14d0c1ffd0dbf060977af8ab&#45;&gt;dir_cecf31b85937f05106fcc9fdbed9124e</title>
<g id="a_edge5"><a xlink:href="dir_000003_000014.html" target="_top">
<path fill="none" stroke="#63b8ff" d="M646.52,-133.98C637.8,-126.15 624.66,-114.34 614.1,-104.86"/>
<polygon fill="#63b8ff" stroke="#63b8ff" points="616.43,-102.25 606.65,-98.17 611.75,-107.46 616.43,-102.25"/>
</a>
</g>
<g id="a_edge5&#45;headlabel"><a xlink:href="dir_000003_000014.html" target="_top" xlink:title="1">
<text text-anchor="middle" x="621" y="-100.04" font-family="Helvetica,sans-Serif" font-size="10.00" fill="#63b8ff">1</text>
</a>
</g>
</g>
<!-- dir_9e6fcbbe14d0c1ffd0dbf060977af8ab&#45;&gt;dir_6c55353c8ddedc1504b0a543e75141a6 -->
<g id="edge4" class="edge">
<title>dir_9e6fcbbe14d0c1ffd0dbf060977af8ab&#45;&gt;dir_6c55353c8ddedc1504b0a543e75141a6</title>
<g id="a_edge4"><a xlink:href="dir_000003_000023.html" target="_top">
<path fill="none" stroke="#63b8ff" d="M655.73,-133.64C654.8,-119.82 650.91,-93.26 635,-79 609.6,-56.24 512.91,-43.22 460.41,-37.69"/>
<polygon fill="#63b8ff" stroke="#63b8ff" points="460.53,-34.18 450.22,-36.65 459.82,-41.15 460.53,-34.18"/>
</a>
</g>
<g id="a_edge4&#45;headlabel"><a xlink:href="dir_000003_000023.html" target="_top" xlink:title="1">
<text text-anchor="middle" x="464.39" y="-29.22" font-family="Helvetica,sans-Serif" font-size="10.00" fill="#63b8ff">1</text>
</a>
</g>
</g>
<!-- dir_799097d732b228ddd6a57bcc9c1dcf5d -->
<g id="node5" class="node">
<title>dir_799097d732b228ddd6a57bcc9c1dcf5d</title>
<g id="a_node5"><a xlink:href="dir_799097d732b228ddd6a57bcc9c1dcf5d.html" target="_top" xlink:title="dsf">
<polygon fill="#a2b4d6" stroke="#404040" points="614,-153 582,-153 582,-134 614,-134 614,-153"/>
<text text-anchor="middle" x="598" y="-141" font-family="Helvetica,sans-Serif" font-size="10.00">dsf</text>
</a>
</g>
</g>
<!-- dir_799097d732b228ddd6a57bcc9c1dcf5d&#45;&gt;dir_cecf31b85937f05106fcc9fdbed9124e -->
<g id="edge7" class="edge">
<title>dir_799097d732b228ddd6a57bcc9c1dcf5d&#45;&gt;dir_cecf31b85937f05106fcc9fdbed9124e</title>
<g id="a_edge7"><a xlink:href="dir_000004_000014.html" target="_top">
<path fill="none" stroke="#63b8ff" d="M597.83,-133.75C597.7,-126.8 597.52,-116.85 597.35,-108.13"/>
<polygon fill="#63b8ff" stroke="#63b8ff" points="600.85,-108.02 597.16,-98.09 593.85,-108.15 600.85,-108.02"/>
</a>
</g>
<g id="a_edge7&#45;headlabel"><a xlink:href="dir_000004_000014.html" target="_top" xlink:title="1">
<text text-anchor="middle" x="603.76" y="-109.06" font-family="Helvetica,sans-Serif" font-size="10.00" fill="#63b8ff">1</text>
</a>
</g>
</g>
<!-- dir_799097d732b228ddd6a57bcc9c1dcf5d&#45;&gt;dir_6c55353c8ddedc1504b0a543e75141a6 -->
<g id="edge6" class="edge">
<title>dir_799097d732b228ddd6a57bcc9c1dcf5d&#45;&gt;dir_6c55353c8ddedc1504b0a543e75141a6</title>
<g id="a_edge6"><a xlink:href="dir_000004_000023.html" target="_top">
<path fill="none" stroke="#63b8ff" d="M607.56,-133.99C620.87,-121.09 641.9,-96.3 628,-79 607.32,-53.27 512.18,-41.55 460.18,-36.98"/>
<polygon fill="#63b8ff" stroke="#63b8ff" points="460.34,-33.48 450.08,-36.14 459.76,-40.46 460.34,-33.48"/>
</a>
</g>
<g id="a_edge6&#45;headlabel"><a xlink:href="dir_000004_000023.html" target="_top" xlink:title="2">
<text text-anchor="middle" x="464.16" y="-28.45" font-family="Helvetica,sans-Serif" font-size="10.00" fill="#63b8ff">2</text>
</a>
</g>
</g>
<!-- dir_b287875b49d08facd3e0538b2efdc446 -->
<g id="node6" class="node">
<title>dir_b287875b49d08facd3e0538b2efdc446</title>
<g id="a_node6"><a xlink:href="dir_b287875b49d08facd3e0538b2efdc446.html" target="_top" xlink:title="flac">
<polygon fill="#a2b4d6" stroke="#404040" points="425,-98 391,-98 391,-79 425,-79 425,-98"/>
<text text-anchor="middle" x="408" y="-86" font-family="Helvetica,sans-Serif" font-size="10.00">flac</text>
</a>
</g>
</g>
<!-- dir_b287875b49d08facd3e0538b2efdc446&#45;&gt;dir_6c55353c8ddedc1504b0a543e75141a6 -->
<g id="edge8" class="edge">
<title>dir_b287875b49d08facd3e0538b2efdc446&#45;&gt;dir_6c55353c8ddedc1504b0a543e75141a6</title>
<g id="a_edge8"><a xlink:href="dir_000005_000023.html" target="_top">
<path fill="none" stroke="#63b8ff" d="M410.97,-78.75C413.36,-71.72 416.79,-61.62 419.77,-52.84"/>
<polygon fill="#63b8ff" stroke="#63b8ff" points="423.18,-53.68 423.08,-43.09 416.55,-51.43 423.18,-53.68"/>
</a>
</g>
<g id="a_edge8&#45;headlabel"><a xlink:href="dir_000005_000023.html" target="_top" xlink:title="10">
<text text-anchor="middle" x="424.71" y="-55.5" font-family="Helvetica,sans-Serif" font-size="10.00" fill="#63b8ff">10</text>
</a>
</g>
</g>
<!-- dir_8e1720e9a234f2013fa3ad04b2f78903 -->
<g id="node7" class="node">
<title>dir_8e1720e9a234f2013fa3ad04b2f78903</title>
<g id="a_node7"><a xlink:href="dir_8e1720e9a234f2013fa3ad04b2f78903.html" target="_top" xlink:title="it">
<polygon fill="#a2b4d6" stroke="#404040" points="305.5,-153 276.5,-153 276.5,-134 305.5,-134 305.5,-153"/>
<text text-anchor="middle" x="291" y="-141" font-family="Helvetica,sans-Serif" font-size="10.00">it</text>
</a>
</g>
</g>
<!-- dir_85edf4838e8646489e3c7d5be4c00272 -->
<g id="node8" class="node">
<title>dir_85edf4838e8646489e3c7d5be4c00272</title>
<g id="a_node8"><a xlink:href="dir_85edf4838e8646489e3c7d5be4c00272.html" target="_top" xlink:title="mod">
<polygon fill="#a2b4d6" stroke="#404040" points="82,-98 44,-98 44,-79 82,-79 82,-98"/>
<text text-anchor="middle" x="63" y="-86" font-family="Helvetica,sans-Serif" font-size="10.00">mod</text>
</a>
</g>
</g>
<!-- dir_8e1720e9a234f2013fa3ad04b2f78903&#45;&gt;dir_85edf4838e8646489e3c7d5be4c00272 -->
<g id="edge10" class="edge">
<title>dir_8e1720e9a234f2013fa3ad04b2f78903&#45;&gt;dir_85edf4838e8646489e3c7d5be4c00272</title>
<g id="a_edge10"><a xlink:href="dir_000010_000011.html" target="_top">
<path fill="none" stroke="#63b8ff" d="M276.35,-139.64C244.6,-133.35 166.88,-117.51 92.25,-98.17"/>
<polygon fill="#63b8ff" stroke="#63b8ff" points="92.79,-94.69 82.23,-95.55 91.01,-101.46 92.79,-94.69"/>
</a>
</g>
<g id="a_edge10&#45;headlabel"><a xlink:href="dir_000010_000011.html" target="_top" xlink:title="2">
<text text-anchor="middle" x="96.98" y="-90.36" font-family="Helvetica,sans-Serif" font-size="10.00" fill="#63b8ff">2</text>
</a>
</g>
</g>
<!-- dir_8e1720e9a234f2013fa3ad04b2f78903&#45;&gt;dir_6c55353c8ddedc1504b0a543e75141a6 -->
<g id="edge9" class="edge">
<title>dir_8e1720e9a234f2013fa3ad04b2f78903&#45;&gt;dir_6c55353c8ddedc1504b0a543e75141a6</title>
<g id="a_edge9"><a xlink:href="dir_000010_000023.html" target="_top">
<path fill="none" stroke="#63b8ff" d="M302.05,-133.66C325.1,-115.22 378.57,-72.45 407.16,-49.57"/>
<polygon fill="#63b8ff" stroke="#63b8ff" points="409.55,-52.14 415.18,-43.16 405.18,-46.67 409.55,-52.14"/>
</a>
</g>
<g id="a_edge9&#45;headlabel"><a xlink:href="dir_000010_000023.html" target="_top" xlink:title="1">
<text text-anchor="middle" x="408.52" y="-54.1" font-family="Helvetica,sans-Serif" font-size="10.00" fill="#63b8ff">1</text>
</a>
</g>
</g>
<!-- dir_85edf4838e8646489e3c7d5be4c00272&#45;&gt;dir_6c55353c8ddedc1504b0a543e75141a6 -->
<g id="edge11" class="edge">
<title>dir_85edf4838e8646489e3c7d5be4c00272&#45;&gt;dir_6c55353c8ddedc1504b0a543e75141a6</title>
<g id="a_edge11"><a xlink:href="dir_000011_000023.html" target="_top">
<path fill="none" stroke="#63b8ff" d="M82.17,-81.23C85.11,-80.4 88.12,-79.62 91,-79 199.45,-55.5 330.52,-42.43 391.58,-37.21"/>
<polygon fill="#63b8ff" stroke="#63b8ff" points="392.13,-40.68 401.8,-36.35 391.54,-33.7 392.13,-40.68"/>
</a>
</g>
<g id="a_edge11&#45;headlabel"><a xlink:href="dir_000011_000023.html" target="_top" xlink:title="4">
<text text-anchor="middle" x="388.78" y="-41.31" font-family="Helvetica,sans-Serif" font-size="10.00" fill="#63b8ff">4</text>
</a>
</g>
</g>
<!-- dir_c61ea7e1f6ed9d0ac4d5e1b70b6e8c1e -->
<g id="node9" class="node">
<title>dir_c61ea7e1f6ed9d0ac4d5e1b70b6e8c1e</title>
<g id="a_node9"><a xlink:href="dir_c61ea7e1f6ed9d0ac4d5e1b70b6e8c1e.html" target="_top" xlink:title="mp4">
<polygon fill="#a2b4d6" stroke="#404040" points="557,-98 519,-98 519,-79 557,-79 557,-98"/>
<text text-anchor="middle" x="538" y="-86" font-family="Helvetica,sans-Serif" font-size="10.00">mp4</text>
</a>
</g>
</g>
<!-- dir_c61ea7e1f6ed9d0ac4d5e1b70b6e8c1e&#45;&gt;dir_6c55353c8ddedc1504b0a543e75141a6 -->
<g id="edge12" class="edge">
<title>dir_c61ea7e1f6ed9d0ac4d5e1b70b6e8c1e&#45;&gt;dir_6c55353c8ddedc1504b0a543e75141a6</title>
<g id="a_edge12"><a xlink:href="dir_000012_000023.html" target="_top">
<path fill="none" stroke="#63b8ff" d="M520.01,-78.98C502.07,-70.5 474.28,-57.35 453.57,-47.54"/>
<polygon fill="#63b8ff" stroke="#63b8ff" points="454.86,-44.28 444.32,-43.17 451.86,-50.61 454.86,-44.28"/>
</a>
</g>
<g id="a_edge12&#45;headlabel"><a xlink:href="dir_000012_000023.html" target="_top" xlink:title="9">
<text text-anchor="middle" x="459.32" y="-40.76" font-family="Helvetica,sans-Serif" font-size="10.00" fill="#63b8ff">9</text>
</a>
</g>
</g>
<!-- dir_7be1ea31e34e3364ff5902507b69a008 -->
<g id="node10" class="node">
<title>dir_7be1ea31e34e3364ff5902507b69a008</title>
<g id="a_node10"><a xlink:href="dir_7be1ea31e34e3364ff5902507b69a008.html" target="_top" xlink:title="mpc">
<polygon fill="#a2b4d6" stroke="#404040" points="501,-98 463,-98 463,-79 501,-79 501,-98"/>
<text text-anchor="middle" x="482" y="-86" font-family="Helvetica,sans-Serif" font-size="10.00">mpc</text>
</a>
</g>
</g>
<!-- dir_7be1ea31e34e3364ff5902507b69a008&#45;&gt;dir_6c55353c8ddedc1504b0a543e75141a6 -->
<g id="edge13" class="edge">
<title>dir_7be1ea31e34e3364ff5902507b69a008&#45;&gt;dir_6c55353c8ddedc1504b0a543e75141a6</title>
<g id="a_edge13"><a xlink:href="dir_000013_000023.html" target="_top">
<path fill="none" stroke="#63b8ff" d="M473,-78.98C464.81,-71.23 452.49,-59.58 442.53,-50.14"/>
<polygon fill="#63b8ff" stroke="#63b8ff" points="444.83,-47.5 435.16,-43.17 440.02,-52.59 444.83,-47.5"/>
</a>
</g>
<g id="a_edge13&#45;headlabel"><a xlink:href="dir_000013_000023.html" target="_top" xlink:title="2">
<text text-anchor="middle" x="449.39" y="-45.41" font-family="Helvetica,sans-Serif" font-size="10.00" fill="#63b8ff">2</text>
</a>
</g>
</g>
<!-- dir_cecf31b85937f05106fcc9fdbed9124e&#45;&gt;dir_6c55353c8ddedc1504b0a543e75141a6 -->
<g id="edge14" class="edge">
<title>dir_cecf31b85937f05106fcc9fdbed9124e&#45;&gt;dir_6c55353c8ddedc1504b0a543e75141a6</title>
<g id="a_edge14"><a xlink:href="dir_000014_000023.html" target="_top">
<path fill="none" stroke="#63b8ff" d="M574.99,-80.68C545.77,-71.62 493.86,-55.53 459.69,-44.94"/>
<polygon fill="#63b8ff" stroke="#63b8ff" points="460.71,-41.59 450.12,-41.98 458.64,-48.28 460.71,-41.59"/>
</a>
</g>
<g id="a_edge14&#45;headlabel"><a xlink:href="dir_000014_000023.html" target="_top" xlink:title="25">
<text text-anchor="middle" x="464.99" y="-37.45" font-family="Helvetica,sans-Serif" font-size="10.00" fill="#63b8ff">25</text>
</a>
</g>
</g>
<!-- dir_840b59c0089045b39e04c943f460db90 -->
<g id="node12" class="node">
<title>dir_840b59c0089045b39e04c943f460db90</title>
<g id="a_node12"><a xlink:href="dir_840b59c0089045b39e04c943f460db90.html" target="_top" xlink:title="ogg">
<polygon fill="#a2b4d6" stroke="#404040" points="399.5,-153 364.5,-153 364.5,-134 399.5,-134 399.5,-153"/>
<text text-anchor="middle" x="382" y="-141" font-family="Helvetica,sans-Serif" font-size="10.00">ogg</text>
</a>
</g>
</g>
<!-- dir_840b59c0089045b39e04c943f460db90&#45;&gt;dir_b287875b49d08facd3e0538b2efdc446 -->
<g id="edge16" class="edge">
<title>dir_840b59c0089045b39e04c943f460db90&#45;&gt;dir_b287875b49d08facd3e0538b2efdc446</title>
<g id="a_edge16"><a xlink:href="dir_000015_000005.html" target="_top">
<path fill="none" stroke="#63b8ff" d="M386.29,-133.75C389.81,-126.57 394.91,-116.18 399.28,-107.27"/>
<polygon fill="#63b8ff" stroke="#63b8ff" points="402.52,-108.61 403.79,-98.09 396.24,-105.53 402.52,-108.61"/>
</a>
</g>
<g id="a_edge16&#45;headlabel"><a xlink:href="dir_000015_000005.html" target="_top" xlink:title="2">
<text text-anchor="middle" x="403.49" y="-110.59" font-family="Helvetica,sans-Serif" font-size="10.00" fill="#63b8ff">2</text>
</a>
</g>
</g>
<!-- dir_840b59c0089045b39e04c943f460db90&#45;&gt;dir_6c55353c8ddedc1504b0a543e75141a6 -->
<g id="edge15" class="edge">
<title>dir_840b59c0089045b39e04c943f460db90&#45;&gt;dir_6c55353c8ddedc1504b0a543e75141a6</title>
<g id="a_edge15"><a xlink:href="dir_000015_000023.html" target="_top">
<path fill="none" stroke="#63b8ff" d="M380.01,-133.89C377.52,-121.29 374.46,-97.35 382,-79 386.81,-67.31 396.33,-57.05 405.3,-49.34"/>
<polygon fill="#63b8ff" stroke="#63b8ff" points="407.6,-51.98 413.22,-43 403.23,-46.51 407.6,-51.98"/>
</a>
</g>
<g id="a_edge15&#45;headlabel"><a xlink:href="dir_000015_000023.html" target="_top" xlink:title="12">
<text text-anchor="middle" x="406.56" y="-53.94" font-family="Helvetica,sans-Serif" font-size="10.00" fill="#63b8ff">12</text>
</a>
</g>
</g>
<!-- dir_5de67a17ea497dd0f0d11e45dc5f99a8 -->
<g id="node13" class="node">
<title>dir_5de67a17ea497dd0f0d11e45dc5f99a8</title>
<g id="a_node13"><a xlink:href="dir_5de67a17ea497dd0f0d11e45dc5f99a8.html" target="_top" xlink:title="riff">
<polygon fill="#a2b4d6" stroke="#404040" points="511,-153 481,-153 481,-134 511,-134 511,-153"/>
<text text-anchor="middle" x="496" y="-141" font-family="Helvetica,sans-Serif" font-size="10.00">riff</text>
</a>
</g>
</g>
<!-- dir_5de67a17ea497dd0f0d11e45dc5f99a8&#45;&gt;dir_cecf31b85937f05106fcc9fdbed9124e -->
<g id="edge18" class="edge">
<title>dir_5de67a17ea497dd0f0d11e45dc5f99a8&#45;&gt;dir_cecf31b85937f05106fcc9fdbed9124e</title>
<g id="a_edge18"><a xlink:href="dir_000017_000014.html" target="_top">
<path fill="none" stroke="#63b8ff" d="M511.34,-134.45C527.3,-126.08 552.55,-112.83 571.51,-102.88"/>
<polygon fill="#63b8ff" stroke="#63b8ff" points="573.28,-105.9 580.51,-98.15 570.03,-99.7 573.28,-105.9"/>
</a>
</g>
<g id="a_edge18&#45;headlabel"><a xlink:href="dir_000017_000014.html" target="_top" xlink:title="2">
<text text-anchor="middle" x="571.42" y="-107.58" font-family="Helvetica,sans-Serif" font-size="10.00" fill="#63b8ff">2</text>
</a>
</g>
</g>
<!-- dir_5de67a17ea497dd0f0d11e45dc5f99a8&#45;&gt;dir_6c55353c8ddedc1504b0a543e75141a6 -->
<g id="edge17" class="edge">
<title>dir_5de67a17ea497dd0f0d11e45dc5f99a8&#45;&gt;dir_6c55353c8ddedc1504b0a543e75141a6</title>
<g id="a_edge17"><a xlink:href="dir_000017_000023.html" target="_top">
<path fill="none" stroke="#63b8ff" d="M485.98,-133.76C476.76,-125.31 463.16,-111.81 454,-98 444.63,-83.88 437.11,-66.11 432.23,-52.97"/>
<polygon fill="#63b8ff" stroke="#63b8ff" points="435.4,-51.45 428.77,-43.19 428.8,-53.78 435.4,-51.45"/>
</a>
</g>
<g id="a_edge17&#45;headlabel"><a xlink:href="dir_000017_000023.html" target="_top" xlink:title="6">
<text text-anchor="middle" x="439.28" y="-51.39" font-family="Helvetica,sans-Serif" font-size="10.00" fill="#63b8ff">6</text>
</a>
</g>
</g>
<!-- dir_a8cda38173802659aa44685b83c371ec -->
<g id="node14" class="node">
<title>dir_a8cda38173802659aa44685b83c371ec</title>
<g id="a_node14"><a xlink:href="dir_a8cda38173802659aa44685b83c371ec.html" target="_top" xlink:title="s3m">
<polygon fill="#a2b4d6" stroke="#404040" points="176,-153 138,-153 138,-134 176,-134 176,-153"/>
<text text-anchor="middle" x="157" y="-141" font-family="Helvetica,sans-Serif" font-size="10.00">s3m</text>
</a>
</g>
</g>
<!-- dir_a8cda38173802659aa44685b83c371ec&#45;&gt;dir_85edf4838e8646489e3c7d5be4c00272 -->
<g id="edge20" class="edge">
<title>dir_a8cda38173802659aa44685b83c371ec&#45;&gt;dir_85edf4838e8646489e3c7d5be4c00272</title>
<g id="a_edge20"><a xlink:href="dir_000018_000011.html" target="_top">
<path fill="none" stroke="#63b8ff" d="M141.9,-133.98C127.18,-125.69 104.58,-112.94 87.33,-103.22"/>
<polygon fill="#63b8ff" stroke="#63b8ff" points="88.81,-100.03 78.38,-98.17 85.37,-106.13 88.81,-100.03"/>
</a>
</g>
<g id="a_edge20&#45;headlabel"><a xlink:href="dir_000018_000011.html" target="_top" xlink:title="2">
<text text-anchor="middle" x="93.33" y="-96.83" font-family="Helvetica,sans-Serif" font-size="10.00" fill="#63b8ff">2</text>
</a>
</g>
</g>
<!-- dir_a8cda38173802659aa44685b83c371ec&#45;&gt;dir_6c55353c8ddedc1504b0a543e75141a6 -->
<g id="edge19" class="edge">
<title>dir_a8cda38173802659aa44685b83c371ec&#45;&gt;dir_6c55353c8ddedc1504b0a543e75141a6</title>
<g id="a_edge19"><a xlink:href="dir_000018_000023.html" target="_top">
<path fill="none" stroke="#63b8ff" d="M176.21,-139.91C207.94,-135.07 272.71,-122.82 322,-98 334.15,-91.88 334.69,-86.55 346,-79 363.19,-67.53 383.55,-56.23 399.43,-47.89"/>
<polygon fill="#63b8ff" stroke="#63b8ff" points="401.4,-50.81 408.67,-43.1 398.18,-44.59 401.4,-50.81"/>
</a>
</g>
<g id="a_edge19&#45;headlabel"><a xlink:href="dir_000018_000023.html" target="_top" xlink:title="1">
<text text-anchor="middle" x="399.52" y="-52.48" font-family="Helvetica,sans-Serif" font-size="10.00" fill="#63b8ff">1</text>
</a>
</g>
</g>
<!-- dir_62c578330ee89bfdeccde2c9c0450157 -->
<g id="node15" class="node">
<title>dir_62c578330ee89bfdeccde2c9c0450157</title>
<g id="a_node15"><a xlink:href="dir_62c578330ee89bfdeccde2c9c0450157.html" target="_top" xlink:title="shorten">
<polygon fill="#a2b4d6" stroke="#404040" points="312.5,-98 259.5,-98 259.5,-79 312.5,-79 312.5,-98"/>
<text text-anchor="middle" x="286" y="-86" font-family="Helvetica,sans-Serif" font-size="10.00">shorten</text>
</a>
</g>
</g>
<!-- dir_62c578330ee89bfdeccde2c9c0450157&#45;&gt;dir_6c55353c8ddedc1504b0a543e75141a6 -->
<g id="edge21" class="edge">
<title>dir_62c578330ee89bfdeccde2c9c0450157&#45;&gt;dir_6c55353c8ddedc1504b0a543e75141a6</title>
<g id="a_edge21"><a xlink:href="dir_000019_000023.html" target="_top">
<path fill="none" stroke="#63b8ff" d="M308.49,-78.98C331.52,-70.27 367.54,-56.63 393.63,-46.75"/>
<polygon fill="#63b8ff" stroke="#63b8ff" points="394.98,-49.98 403.1,-43.17 392.51,-43.44 394.98,-49.98"/>
</a>
</g>
<g id="a_edge21&#45;headlabel"><a xlink:href="dir_000019_000023.html" target="_top" xlink:title="1">
<text text-anchor="middle" x="392.63" y="-51.41" font-family="Helvetica,sans-Serif" font-size="10.00" fill="#63b8ff">1</text>
</a>
</g>
</g>
<!-- dir_f7358ff0f722ed12e8b625761d521245 -->
<g id="node17" class="node">
<title>dir_f7358ff0f722ed12e8b625761d521245</title>
<g id="a_node17"><a xlink:href="dir_f7358ff0f722ed12e8b625761d521245.html" target="_top" xlink:title="trueaudio">
<polygon fill="#a2b4d6" stroke="#404040" points="241.5,-98 178.5,-98 178.5,-79 241.5,-79 241.5,-98"/>
<text text-anchor="middle" x="210" y="-86" font-family="Helvetica,sans-Serif" font-size="10.00">trueaudio</text>
</a>
</g>
</g>
<!-- dir_f7358ff0f722ed12e8b625761d521245&#45;&gt;dir_6c55353c8ddedc1504b0a543e75141a6 -->
<g id="edge22" class="edge">
<title>dir_f7358ff0f722ed12e8b625761d521245&#45;&gt;dir_6c55353c8ddedc1504b0a543e75141a6</title>
<g id="a_edge22"><a xlink:href="dir_000024_000023.html" target="_top">
<path fill="none" stroke="#63b8ff" d="M241.87,-79.68C282.01,-69.83 350.68,-52.98 391.86,-42.88"/>
<polygon fill="#63b8ff" stroke="#63b8ff" points="392.83,-46.24 401.7,-40.46 391.16,-39.45 392.83,-46.24"/>
</a>
</g>
<g id="a_edge22&#45;headlabel"><a xlink:href="dir_000024_000023.html" target="_top" xlink:title="3">
<text text-anchor="middle" x="390.01" y="-47.36" font-family="Helvetica,sans-Serif" font-size="10.00" fill="#63b8ff">3</text>
</a>
</g>
</g>
<!-- dir_d391cd6126a245b2be34dc43c83d2c20 -->
<g id="node18" class="node">
<title>dir_d391cd6126a245b2be34dc43c83d2c20</title>
<g id="a_node18"><a xlink:href="dir_d391cd6126a245b2be34dc43c83d2c20.html" target="_top" xlink:title="wavpack">
<polygon fill="#a2b4d6" stroke="#404040" points="160,-98 100,-98 100,-79 160,-79 160,-98"/>
<text text-anchor="middle" x="130" y="-86" font-family="Helvetica,sans-Serif" font-size="10.00">wavpack</text>
</a>
</g>
</g>
<!-- dir_d391cd6126a245b2be34dc43c83d2c20&#45;&gt;dir_6c55353c8ddedc1504b0a543e75141a6 -->
<g id="edge23" class="edge">
<title>dir_d391cd6126a245b2be34dc43c83d2c20&#45;&gt;dir_6c55353c8ddedc1504b0a543e75141a6</title>
<g id="a_edge23"><a xlink:href="dir_000027_000023.html" target="_top">
<path fill="none" stroke="#63b8ff" d="M160.12,-80.97C163.45,-80.29 166.79,-79.62 170,-79 249.23,-63.7 342.72,-48.06 391.87,-40.02"/>
<polygon fill="#63b8ff" stroke="#63b8ff" points="392.64,-43.44 401.95,-38.37 391.51,-36.53 392.64,-43.44"/>
</a>
</g>
<g id="a_edge23&#45;headlabel"><a xlink:href="dir_000027_000023.html" target="_top" xlink:title="1">
<text text-anchor="middle" x="389.55" y="-44.32" font-family="Helvetica,sans-Serif" font-size="10.00" fill="#63b8ff">1</text>
</a>
</g>
</g>
<!-- dir_cb860f4e0dbe94c771af478e480f5f9e -->
<g id="node19" class="node">
<title>dir_cb860f4e0dbe94c771af478e480f5f9e</title>
<g id="a_node19"><a xlink:href="dir_cb860f4e0dbe94c771af478e480f5f9e.html" target="_top" xlink:title="xm">
<polygon fill="#a2b4d6" stroke="#404040" points="68,-153 36,-153 36,-134 68,-134 68,-153"/>
<text text-anchor="middle" x="52" y="-141" font-family="Helvetica,sans-Serif" font-size="10.00">xm</text>
</a>
</g>
</g>
<!-- dir_cb860f4e0dbe94c771af478e480f5f9e&#45;&gt;dir_85edf4838e8646489e3c7d5be4c00272 -->
<g id="edge25" class="edge">
<title>dir_cb860f4e0dbe94c771af478e480f5f9e&#45;&gt;dir_85edf4838e8646489e3c7d5be4c00272</title>
<g id="a_edge25"><a xlink:href="dir_000028_000011.html" target="_top">
<path fill="none" stroke="#63b8ff" d="M53.82,-133.75C55.26,-126.8 57.32,-116.85 59.13,-108.13"/>
<polygon fill="#63b8ff" stroke="#63b8ff" points="62.61,-108.59 61.22,-98.09 55.76,-107.17 62.61,-108.59"/>
</a>
</g>
<g id="a_edge25&#45;headlabel"><a xlink:href="dir_000028_000011.html" target="_top" xlink:title="2">
<text text-anchor="middle" x="64.66" y="-110.19" font-family="Helvetica,sans-Serif" font-size="10.00" fill="#63b8ff">2</text>
</a>
</g>
</g>
<!-- dir_cb860f4e0dbe94c771af478e480f5f9e&#45;&gt;dir_6c55353c8ddedc1504b0a543e75141a6 -->
<g id="edge24" class="edge">
<title>dir_cb860f4e0dbe94c771af478e480f5f9e&#45;&gt;dir_6c55353c8ddedc1504b0a543e75141a6</title>
<g id="a_edge24"><a xlink:href="dir_000028_000023.html" target="_top">
<path fill="none" stroke="#63b8ff" d="M45.4,-133.97C35.92,-120.62 21.02,-94.67 35,-79 58.6,-52.56 300.9,-39.74 391.8,-35.84"/>
<polygon fill="#63b8ff" stroke="#63b8ff" points="392.02,-39.33 401.86,-35.42 391.72,-32.34 392.02,-39.33"/>
</a>
</g>
<g id="a_edge24&#45;headlabel"><a xlink:href="dir_000028_000023.html" target="_top" xlink:title="2">
<text text-anchor="middle" x="388.55" y="-39.82" font-family="Helvetica,sans-Serif" font-size="10.00" fill="#63b8ff">2</text>
</a>
</g>
</g>
</g>
</svg>
