<?xml version="1.0" encoding="UTF-8" standalone="no"?>
<!DOCTYPE svg PUBLIC "-//W3C//DTD SVG 1.1//EN"
 "http://www.w3.org/Graphics/SVG/1.1/DTD/svg11.dtd">
<!-- Generated by graphviz version 2.43.0 (0)
 -->
<!-- Title: flac Pages: 1 -->
<svg width="94pt" height="151pt"
 viewBox="0.00 0.00 94.00 151.00" xmlns="http://www.w3.org/2000/svg" xmlns:xlink="http://www.w3.org/1999/xlink">
<g id="graph0" class="graph" transform="scale(1 1) rotate(0) translate(4 147)">
<title>flac</title>
<polygon fill="white" stroke="transparent" points="-4,4 -4,-147 90,-147 90,4 -4,4"/>
<g id="clust1" class="cluster">
<title>clusterdir_840b59c0089045b39e04c943f460db90</title>
<g id="a_clust1"><a xlink:href="dir_840b59c0089045b39e04c943f460db90.html" target="_top" xlink:title="ogg">
<polygon fill="#ddddee" stroke="black" points="8,-64 8,-135 78,-135 78,-64 8,-64"/>
<text text-anchor="middle" x="43" y="-123" font-family="Helvetica,sans-Serif" font-size="10.00">ogg</text>
</a>
</g>
</g>
<!-- dir_cde0c56b0dc78a339d714b5777552fd8 -->
<g id="node1" class="node">
<title>dir_cde0c56b0dc78a339d714b5777552fd8</title>
<g id="a_node1"><a xlink:href="dir_cde0c56b0dc78a339d714b5777552fd8.html" target="_top" xlink:title="flac">
<polygon fill="#eeeeff" stroke="black" points="70,-108 16,-108 16,-72 70,-72 70,-108"/>
<text text-anchor="middle" x="43" y="-87.5" font-family="Helvetica,sans-Serif" font-size="10.00">flac</text>
</a>
</g>
</g>
<!-- dir_b287875b49d08facd3e0538b2efdc446 -->
<g id="node2" class="node">
<title>dir_b287875b49d08facd3e0538b2efdc446</title>
<g id="a_node2"><a xlink:href="dir_b287875b49d08facd3e0538b2efdc446.html" target="_top" xlink:title="flac">
<polygon fill="none" stroke="black" points="70,-36 16,-36 16,0 70,0 70,-36"/>
<text text-anchor="middle" x="43" y="-15.5" font-family="Helvetica,sans-Serif" font-size="10.00">flac</text>
</a>
</g>
</g>
<!-- dir_cde0c56b0dc78a339d714b5777552fd8&#45;&gt;dir_b287875b49d08facd3e0538b2efdc446 -->
<g id="edge1" class="edge">
<title>dir_cde0c56b0dc78a339d714b5777552fd8&#45;&gt;dir_b287875b49d08facd3e0538b2efdc446</title>
<path fill="none" stroke="black" d="M43,-71.7C43,-63.98 43,-54.71 43,-46.11"/>
<polygon fill="black" stroke="black" points="46.5,-46.1 43,-36.1 39.5,-46.1 46.5,-46.1"/>
<g id="a_edge1&#45;headlabel"><a xlink:href="dir_000017_000009.html" target="_top" xlink:title="1">
<text text-anchor="middle" x="49.34" y="-47.2" font-family="Helvetica,sans-Serif" font-size="10.00">1</text>
</a>
</g>
</g>
</g>
</svg>
