<?xml version="1.0" encoding="UTF-8" standalone="no"?>
<!DOCTYPE svg PUBLIC "-//W3C//DTD SVG 1.1//EN"
 "http://www.w3.org/Graphics/SVG/1.1/DTD/svg11.dtd">
<!-- Generated by graphviz version 2.43.0 (0)
 -->
<!-- Title: dsdifffile.h Pages: 1 -->
<svg width="1225pt" height="420pt"
 viewBox="0.00 0.00 1225.00 420.00" xmlns="http://www.w3.org/2000/svg" xmlns:xlink="http://www.w3.org/1999/xlink">
<g id="graph0" class="graph" transform="scale(1 1) rotate(0) translate(4 416)">
<title>dsdifffile.h</title>
<polygon fill="white" stroke="transparent" points="-4,4 -4,-416 1221,-416 1221,4 -4,4"/>
<!-- Node1 -->
<g id="node1" class="node">
<title>Node1</title>
<g id="a_node1"><a xlink:title=" ">
<polygon fill="#bfbfbf" stroke="black" points="480.5,-392.5 480.5,-411.5 548.5,-411.5 548.5,-392.5 480.5,-392.5"/>
<text text-anchor="middle" x="514.5" y="-399.5" font-family="Helvetica,sans-Serif" font-size="10.00">dsdifffile.h</text>
</a>
</g>
</g>
<!-- Node2 -->
<g id="node2" class="node">
<title>Node2</title>
<g id="a_node2"><a xlink:href="rifffile_8h.html" target="_top" xlink:title=" ">
<polygon fill="white" stroke="black" points="549.5,-336.5 549.5,-355.5 603.5,-355.5 603.5,-336.5 549.5,-336.5"/>
<text text-anchor="middle" x="576.5" y="-343.5" font-family="Helvetica,sans-Serif" font-size="10.00">rifffile.h</text>
</a>
</g>
</g>
<!-- Node1&#45;&gt;Node2 -->
<g id="edge1" class="edge">
<title>Node1&#45;&gt;Node2</title>
<path fill="none" stroke="midnightblue" d="M524.46,-392.32C533.63,-384.34 547.44,-372.31 558.53,-362.65"/>
<polygon fill="midnightblue" stroke="midnightblue" points="561.12,-365.04 566.36,-355.83 556.52,-359.76 561.12,-365.04"/>
</g>
<!-- Node26 -->
<g id="node26" class="node">
<title>Node26</title>
<g id="a_node26"><a xlink:href="id3v2tag_8h.html" target="_top" xlink:title=" ">
<polygon fill="white" stroke="black" points="744.5,-336.5 744.5,-355.5 812.5,-355.5 812.5,-336.5 744.5,-336.5"/>
<text text-anchor="middle" x="778.5" y="-343.5" font-family="Helvetica,sans-Serif" font-size="10.00">id3v2tag.h</text>
</a>
</g>
</g>
<!-- Node1&#45;&gt;Node26 -->
<g id="edge45" class="edge">
<title>Node1&#45;&gt;Node26</title>
<path fill="none" stroke="midnightblue" d="M548.74,-394C596.22,-384.28 682.09,-366.72 734.34,-356.03"/>
<polygon fill="midnightblue" stroke="midnightblue" points="735.22,-359.42 744.32,-353.99 733.82,-352.57 735.22,-359.42"/>
</g>
<!-- Node31 -->
<g id="node31" class="node">
<title>Node31</title>
<g id="a_node31"><a xlink:href="dsdiffproperties_8h.html" target="_top" xlink:title=" ">
<polygon fill="white" stroke="black" points="288.5,-336.5 288.5,-355.5 390.5,-355.5 390.5,-336.5 288.5,-336.5"/>
<text text-anchor="middle" x="339.5" y="-343.5" font-family="Helvetica,sans-Serif" font-size="10.00">dsdiffproperties.h</text>
</a>
</g>
</g>
<!-- Node1&#45;&gt;Node31 -->
<g id="edge64" class="edge">
<title>Node1&#45;&gt;Node31</title>
<path fill="none" stroke="midnightblue" d="M486.77,-392.44C457.07,-383.28 409.78,-368.69 376.83,-358.52"/>
<polygon fill="midnightblue" stroke="midnightblue" points="377.69,-355.12 367.1,-355.52 375.62,-361.81 377.69,-355.12"/>
</g>
<!-- Node33 -->
<g id="node33" class="node">
<title>Node33</title>
<g id="a_node33"><a xlink:href="dsdiffdiintag_8h.html" target="_top" xlink:title=" ">
<polygon fill="white" stroke="black" points="332.5,-280.5 332.5,-299.5 418.5,-299.5 418.5,-280.5 332.5,-280.5"/>
<text text-anchor="middle" x="375.5" y="-287.5" font-family="Helvetica,sans-Serif" font-size="10.00">dsdiffdiintag.h</text>
</a>
</g>
</g>
<!-- Node1&#45;&gt;Node33 -->
<g id="edge69" class="edge">
<title>Node1&#45;&gt;Node33</title>
<path fill="none" stroke="midnightblue" d="M503.59,-392.37C479.94,-373.65 423.71,-329.15 394.24,-305.83"/>
<polygon fill="midnightblue" stroke="midnightblue" points="396.37,-303.05 386.36,-299.59 392.03,-308.54 396.37,-303.05"/>
</g>
<!-- Node3 -->
<g id="node3" class="node">
<title>Node3</title>
<g id="a_node3"><a xlink:href="tfile_8h.html" target="_top" xlink:title=" ">
<polygon fill="white" stroke="black" points="554.5,-280.5 554.5,-299.5 598.5,-299.5 598.5,-280.5 554.5,-280.5"/>
<text text-anchor="middle" x="576.5" y="-287.5" font-family="Helvetica,sans-Serif" font-size="10.00">tfile.h</text>
</a>
</g>
</g>
<!-- Node2&#45;&gt;Node3 -->
<g id="edge2" class="edge">
<title>Node2&#45;&gt;Node3</title>
<path fill="none" stroke="midnightblue" d="M576.5,-336.08C576.5,-329.01 576.5,-318.86 576.5,-309.99"/>
<polygon fill="midnightblue" stroke="midnightblue" points="580,-309.75 576.5,-299.75 573,-309.75 580,-309.75"/>
</g>
<!-- Node12 -->
<g id="node12" class="node">
<title>Node12</title>
<g id="a_node12"><a xlink:href="taglib__export_8h.html" target="_top" xlink:title=" ">
<polygon fill="white" stroke="black" points="710.5,-56.5 710.5,-75.5 800.5,-75.5 800.5,-56.5 710.5,-56.5"/>
<text text-anchor="middle" x="755.5" y="-63.5" font-family="Helvetica,sans-Serif" font-size="10.00">taglib_export.h</text>
</a>
</g>
</g>
<!-- Node2&#45;&gt;Node12 -->
<g id="edge44" class="edge">
<title>Node2&#45;&gt;Node12</title>
<path fill="none" stroke="midnightblue" d="M583,-336.34C600.47,-312.93 649.63,-246.2 686.5,-188 709.26,-152.07 733.31,-108.4 746.14,-84.58"/>
<polygon fill="midnightblue" stroke="midnightblue" points="749.28,-86.14 750.92,-75.67 743.11,-82.83 749.28,-86.14"/>
</g>
<!-- Node4 -->
<g id="node4" class="node">
<title>Node4</title>
<g id="a_node4"><a xlink:href="tbytevector_8h.html" target="_top" xlink:title=" ">
<polygon fill="white" stroke="black" points="997,-112.5 997,-131.5 1078,-131.5 1078,-112.5 997,-112.5"/>
<text text-anchor="middle" x="1037.5" y="-119.5" font-family="Helvetica,sans-Serif" font-size="10.00">tbytevector.h</text>
</a>
</g>
</g>
<!-- Node3&#45;&gt;Node4 -->
<g id="edge3" class="edge">
<title>Node3&#45;&gt;Node4</title>
<path fill="none" stroke="midnightblue" d="M592.04,-280.45C631.98,-258.79 741.94,-201.13 839.5,-168 888.43,-151.39 946.24,-139.05 986.72,-131.53"/>
<polygon fill="midnightblue" stroke="midnightblue" points="987.41,-134.96 996.62,-129.72 986.16,-128.08 987.41,-134.96"/>
</g>
<!-- Node8 -->
<g id="node8" class="node">
<title>Node8</title>
<g id="a_node8"><a xlink:href="taglib_8h.html" target="_top" xlink:title=" ">
<polygon fill="white" stroke="black" points="505,-56.5 505,-75.5 558,-75.5 558,-56.5 505,-56.5"/>
<text text-anchor="middle" x="531.5" y="-63.5" font-family="Helvetica,sans-Serif" font-size="10.00">taglib.h</text>
</a>
</g>
</g>
<!-- Node3&#45;&gt;Node8 -->
<g id="edge17" class="edge">
<title>Node3&#45;&gt;Node8</title>
<path fill="none" stroke="midnightblue" d="M573.48,-280.46C570.4,-271.48 565.62,-256.88 562.5,-244 548.71,-187.02 538.46,-118.32 533.98,-85.81"/>
<polygon fill="midnightblue" stroke="midnightblue" points="537.41,-85 532.6,-75.55 530.47,-85.93 537.41,-85"/>
</g>
<!-- Node3&#45;&gt;Node12 -->
<g id="edge16" class="edge">
<title>Node3&#45;&gt;Node12</title>
<path fill="none" stroke="midnightblue" d="M575.56,-280.23C573.73,-259.02 571.78,-204.07 595.5,-168 612.17,-142.65 688.07,-101.31 729.05,-80.24"/>
<polygon fill="midnightblue" stroke="midnightblue" points="730.87,-83.25 738.19,-75.59 727.69,-77.01 730.87,-83.25"/>
</g>
<!-- Node13 -->
<g id="node13" class="node">
<title>Node13</title>
<g id="a_node13"><a xlink:href="tiostream_8h.html" target="_top" xlink:title=" ">
<polygon fill="white" stroke="black" points="605,-168.5 605,-187.5 678,-187.5 678,-168.5 605,-168.5"/>
<text text-anchor="middle" x="641.5" y="-175.5" font-family="Helvetica,sans-Serif" font-size="10.00">tiostream.h</text>
</a>
</g>
</g>
<!-- Node3&#45;&gt;Node13 -->
<g id="edge12" class="edge">
<title>Node3&#45;&gt;Node13</title>
<path fill="none" stroke="midnightblue" d="M581.6,-280.37C592.28,-262.3 617.17,-220.18 631.27,-196.31"/>
<polygon fill="midnightblue" stroke="midnightblue" points="634.35,-197.98 636.42,-187.59 628.32,-194.42 634.35,-197.98"/>
</g>
<!-- Node14 -->
<g id="node14" class="node">
<title>Node14</title>
<g id="a_node14"><a xlink:href="tag_8h.html" target="_top" xlink:title=" ">
<polygon fill="white" stroke="black" points="431,-224.5 431,-243.5 472,-243.5 472,-224.5 431,-224.5"/>
<text text-anchor="middle" x="451.5" y="-231.5" font-family="Helvetica,sans-Serif" font-size="10.00">tag.h</text>
</a>
</g>
</g>
<!-- Node3&#45;&gt;Node14 -->
<g id="edge18" class="edge">
<title>Node3&#45;&gt;Node14</title>
<path fill="none" stroke="midnightblue" d="M556.69,-280.44C536.21,-271.6 504.02,-257.69 480.64,-247.59"/>
<polygon fill="midnightblue" stroke="midnightblue" points="481.78,-244.27 471.21,-243.52 479.01,-250.7 481.78,-244.27"/>
</g>
<!-- Node5 -->
<g id="node5" class="node">
<title>Node5</title>
<g id="a_node5"><a xlink:title=" ">
<polygon fill="white" stroke="#bfbfbf" points="971.5,-56.5 971.5,-75.5 1031.5,-75.5 1031.5,-56.5 971.5,-56.5"/>
<text text-anchor="middle" x="1001.5" y="-63.5" font-family="Helvetica,sans-Serif" font-size="10.00">iostream</text>
</a>
</g>
</g>
<!-- Node4&#45;&gt;Node5 -->
<g id="edge4" class="edge">
<title>Node4&#45;&gt;Node5</title>
<path fill="none" stroke="midnightblue" d="M1031.56,-112.08C1026.52,-104.53 1019.16,-93.49 1012.99,-84.23"/>
<polygon fill="midnightblue" stroke="midnightblue" points="1015.79,-82.13 1007.33,-75.75 1009.97,-86.01 1015.79,-82.13"/>
</g>
<!-- Node6 -->
<g id="node6" class="node">
<title>Node6</title>
<g id="a_node6"><a xlink:title=" ">
<polygon fill="white" stroke="#bfbfbf" points="420.5,-56.5 420.5,-75.5 478.5,-75.5 478.5,-56.5 420.5,-56.5"/>
<text text-anchor="middle" x="449.5" y="-63.5" font-family="Helvetica,sans-Serif" font-size="10.00">memory</text>
</a>
</g>
</g>
<!-- Node4&#45;&gt;Node6 -->
<g id="edge5" class="edge">
<title>Node4&#45;&gt;Node6</title>
<path fill="none" stroke="midnightblue" d="M996.88,-119.16C906.45,-114.74 681.84,-101.88 495.5,-76 493.27,-75.69 490.99,-75.34 488.69,-74.97"/>
<polygon fill="midnightblue" stroke="midnightblue" points="489.07,-71.48 478.62,-73.2 487.86,-78.38 489.07,-71.48"/>
</g>
<!-- Node7 -->
<g id="node7" class="node">
<title>Node7</title>
<g id="a_node7"><a xlink:title=" ">
<polygon fill="white" stroke="#bfbfbf" points="1050,-56.5 1050,-75.5 1097,-75.5 1097,-56.5 1050,-56.5"/>
<text text-anchor="middle" x="1073.5" y="-63.5" font-family="Helvetica,sans-Serif" font-size="10.00">vector</text>
</a>
</g>
</g>
<!-- Node4&#45;&gt;Node7 -->
<g id="edge6" class="edge">
<title>Node4&#45;&gt;Node7</title>
<path fill="none" stroke="midnightblue" d="M1043.44,-112.08C1048.48,-104.53 1055.84,-93.49 1062.01,-84.23"/>
<polygon fill="midnightblue" stroke="midnightblue" points="1065.03,-86.01 1067.67,-75.75 1059.21,-82.13 1065.03,-86.01"/>
</g>
<!-- Node4&#45;&gt;Node8 -->
<g id="edge7" class="edge">
<title>Node4&#45;&gt;Node8</title>
<path fill="none" stroke="midnightblue" d="M996.95,-116.67C900.75,-106.41 659.94,-80.71 567.98,-70.89"/>
<polygon fill="midnightblue" stroke="midnightblue" points="568.34,-67.41 558.03,-69.83 567.6,-74.37 568.34,-67.41"/>
</g>
<!-- Node4&#45;&gt;Node12 -->
<g id="edge11" class="edge">
<title>Node4&#45;&gt;Node12</title>
<path fill="none" stroke="midnightblue" d="M996.8,-113.21C947.54,-103.77 864.44,-87.86 809.78,-77.39"/>
<polygon fill="midnightblue" stroke="midnightblue" points="810.39,-73.95 799.91,-75.5 809.08,-80.82 810.39,-73.95"/>
</g>
<!-- Node9 -->
<g id="node9" class="node">
<title>Node9</title>
<g id="a_node9"><a xlink:title=" ">
<polygon fill="white" stroke="#bfbfbf" points="536.5,-0.5 536.5,-19.5 624.5,-19.5 624.5,-0.5 536.5,-0.5"/>
<text text-anchor="middle" x="580.5" y="-7.5" font-family="Helvetica,sans-Serif" font-size="10.00">taglib_config.h</text>
</a>
</g>
</g>
<!-- Node8&#45;&gt;Node9 -->
<g id="edge8" class="edge">
<title>Node8&#45;&gt;Node9</title>
<path fill="none" stroke="midnightblue" d="M539.59,-56.08C546.66,-48.3 557.09,-36.8 565.65,-27.37"/>
<polygon fill="midnightblue" stroke="midnightblue" points="568.43,-29.51 572.56,-19.75 563.25,-24.8 568.43,-29.51"/>
</g>
<!-- Node10 -->
<g id="node10" class="node">
<title>Node10</title>
<g id="a_node10"><a xlink:title=" ">
<polygon fill="white" stroke="#bfbfbf" points="446.5,-0.5 446.5,-19.5 518.5,-19.5 518.5,-0.5 446.5,-0.5"/>
<text text-anchor="middle" x="482.5" y="-7.5" font-family="Helvetica,sans-Serif" font-size="10.00">sys/types.h</text>
</a>
</g>
</g>
<!-- Node8&#45;&gt;Node10 -->
<g id="edge9" class="edge">
<title>Node8&#45;&gt;Node10</title>
<path fill="none" stroke="midnightblue" d="M523.41,-56.08C516.34,-48.3 505.91,-36.8 497.35,-27.37"/>
<polygon fill="midnightblue" stroke="midnightblue" points="499.75,-24.8 490.44,-19.75 494.57,-29.51 499.75,-24.8"/>
</g>
<!-- Node11 -->
<g id="node11" class="node">
<title>Node11</title>
<g id="a_node11"><a xlink:title=" ">
<polygon fill="white" stroke="#bfbfbf" points="941.5,-0.5 941.5,-19.5 985.5,-19.5 985.5,-0.5 941.5,-0.5"/>
<text text-anchor="middle" x="963.5" y="-7.5" font-family="Helvetica,sans-Serif" font-size="10.00">string</text>
</a>
</g>
</g>
<!-- Node8&#45;&gt;Node11 -->
<g id="edge10" class="edge">
<title>Node8&#45;&gt;Node11</title>
<path fill="none" stroke="midnightblue" d="M558.2,-61.66C633.89,-52.2 849.68,-25.23 931.51,-15"/>
<polygon fill="midnightblue" stroke="midnightblue" points="931.99,-18.47 941.48,-13.75 931.12,-11.52 931.99,-18.47"/>
</g>
<!-- Node13&#45;&gt;Node4 -->
<g id="edge13" class="edge">
<title>Node13&#45;&gt;Node4</title>
<path fill="none" stroke="midnightblue" d="M678.04,-172.02C749.11,-162.33 906.01,-140.93 986.98,-129.89"/>
<polygon fill="midnightblue" stroke="midnightblue" points="987.5,-133.35 996.94,-128.53 986.55,-126.41 987.5,-133.35"/>
</g>
<!-- Node13&#45;&gt;Node8 -->
<g id="edge15" class="edge">
<title>Node13&#45;&gt;Node8</title>
<path fill="none" stroke="midnightblue" d="M632.87,-168.37C614.39,-149.89 570.79,-106.29 547.24,-82.74"/>
<polygon fill="midnightblue" stroke="midnightblue" points="549.64,-80.19 540.09,-75.59 544.69,-85.14 549.64,-80.19"/>
</g>
<!-- Node13&#45;&gt;Node12 -->
<g id="edge14" class="edge">
<title>Node13&#45;&gt;Node12</title>
<path fill="none" stroke="midnightblue" d="M650.45,-168.37C669.59,-149.89 714.78,-106.29 739.18,-82.74"/>
<polygon fill="midnightblue" stroke="midnightblue" points="741.83,-85.05 746.6,-75.59 736.97,-80.02 741.83,-85.05"/>
</g>
<!-- Node14&#45;&gt;Node12 -->
<g id="edge19" class="edge">
<title>Node14&#45;&gt;Node12</title>
<path fill="none" stroke="midnightblue" d="M462.81,-224.48C491.19,-203.37 568.2,-147.78 638.5,-112 664.47,-98.79 695.27,-87.09 718.75,-78.93"/>
<polygon fill="midnightblue" stroke="midnightblue" points="720,-82.2 728.33,-75.66 717.74,-75.58 720,-82.2"/>
</g>
<!-- Node15 -->
<g id="node15" class="node">
<title>Node15</title>
<g id="a_node15"><a xlink:href="tstring_8h.html" target="_top" xlink:title=" ">
<polygon fill="white" stroke="black" points="1160,-168.5 1160,-187.5 1217,-187.5 1217,-168.5 1160,-168.5"/>
<text text-anchor="middle" x="1188.5" y="-175.5" font-family="Helvetica,sans-Serif" font-size="10.00">tstring.h</text>
</a>
</g>
</g>
<!-- Node14&#45;&gt;Node15 -->
<g id="edge20" class="edge">
<title>Node14&#45;&gt;Node15</title>
<path fill="none" stroke="midnightblue" d="M472.37,-231.47C573.75,-224.04 1015.41,-191.68 1149.65,-181.85"/>
<polygon fill="midnightblue" stroke="midnightblue" points="1150.15,-185.32 1159.87,-181.1 1149.64,-178.34 1150.15,-185.32"/>
</g>
<!-- Node16 -->
<g id="node16" class="node">
<title>Node16</title>
<g id="a_node16"><a xlink:href="tlist_8h.html" target="_top" xlink:title=" ">
<polygon fill="white" stroke="black" points="154.5,-112.5 154.5,-131.5 198.5,-131.5 198.5,-112.5 154.5,-112.5"/>
<text text-anchor="middle" x="176.5" y="-119.5" font-family="Helvetica,sans-Serif" font-size="10.00">tlist.h</text>
</a>
</g>
</g>
<!-- Node14&#45;&gt;Node16 -->
<g id="edge26" class="edge">
<title>Node14&#45;&gt;Node16</title>
<path fill="none" stroke="midnightblue" d="M430.83,-224.73C382.87,-205.55 263.82,-157.93 207.27,-135.31"/>
<polygon fill="midnightblue" stroke="midnightblue" points="208.37,-131.98 197.79,-131.52 205.77,-138.48 208.37,-131.98"/>
</g>
<!-- Node20 -->
<g id="node20" class="node">
<title>Node20</title>
<g id="a_node20"><a xlink:href="tvariant_8h.html" target="_top" xlink:title=" ">
<polygon fill="white" stroke="black" points="408.5,-168.5 408.5,-187.5 472.5,-187.5 472.5,-168.5 408.5,-168.5"/>
<text text-anchor="middle" x="440.5" y="-175.5" font-family="Helvetica,sans-Serif" font-size="10.00">tvariant.h</text>
</a>
</g>
</g>
<!-- Node14&#45;&gt;Node20 -->
<g id="edge32" class="edge">
<title>Node14&#45;&gt;Node20</title>
<path fill="none" stroke="midnightblue" d="M449.68,-224.08C448.23,-216.93 446.13,-206.64 444.31,-197.69"/>
<polygon fill="midnightblue" stroke="midnightblue" points="447.71,-196.85 442.28,-187.75 440.85,-198.25 447.71,-196.85"/>
</g>
<!-- Node15&#45;&gt;Node4 -->
<g id="edge23" class="edge">
<title>Node15&#45;&gt;Node4</title>
<path fill="none" stroke="midnightblue" d="M1164.57,-168.44C1139.28,-159.4 1099.2,-145.06 1070.82,-134.92"/>
<polygon fill="midnightblue" stroke="midnightblue" points="1071.91,-131.59 1061.31,-131.52 1069.55,-138.18 1071.91,-131.59"/>
</g>
<!-- Node15&#45;&gt;Node5 -->
<g id="edge21" class="edge">
<title>Node15&#45;&gt;Node5</title>
<path fill="none" stroke="midnightblue" d="M1186.93,-168.45C1183.93,-154.54 1176.05,-127.05 1158.5,-112 1149.46,-104.25 1084.73,-87.31 1041.26,-76.56"/>
<polygon fill="midnightblue" stroke="midnightblue" points="1042.07,-73.16 1031.52,-74.17 1040.4,-79.96 1042.07,-73.16"/>
</g>
<!-- Node15&#45;&gt;Node8 -->
<g id="edge25" class="edge">
<title>Node15&#45;&gt;Node8</title>
<path fill="none" stroke="midnightblue" d="M1175.65,-168.5C1149.55,-151.25 1092.36,-113.65 1087.5,-112 1038.52,-95.42 684.26,-75.18 568.2,-68.93"/>
<polygon fill="midnightblue" stroke="midnightblue" points="568.22,-65.43 558.05,-68.39 567.84,-72.42 568.22,-65.43"/>
</g>
<!-- Node15&#45;&gt;Node11 -->
<g id="edge22" class="edge">
<title>Node15&#45;&gt;Node11</title>
<path fill="none" stroke="midnightblue" d="M1189.29,-168.34C1190.08,-155.21 1189.93,-129.92 1179.5,-112 1158.93,-76.66 1142.78,-74.87 1106.5,-56 1070.56,-37.31 1025.46,-24.71 995.63,-17.71"/>
<polygon fill="midnightblue" stroke="midnightblue" points="996.28,-14.26 985.75,-15.46 994.73,-21.09 996.28,-14.26"/>
</g>
<!-- Node15&#45;&gt;Node12 -->
<g id="edge24" class="edge">
<title>Node15&#45;&gt;Node12</title>
<path fill="none" stroke="midnightblue" d="M1182.53,-168.46C1171.91,-154.04 1148.24,-125.15 1120.5,-112 1066.95,-86.61 899.11,-74.38 810.91,-69.57"/>
<polygon fill="midnightblue" stroke="midnightblue" points="810.99,-66.07 800.82,-69.04 810.62,-73.06 810.99,-66.07"/>
</g>
<!-- Node16&#45;&gt;Node6 -->
<g id="edge29" class="edge">
<title>Node16&#45;&gt;Node6</title>
<path fill="none" stroke="midnightblue" d="M198.78,-114.22C201.7,-113.43 204.66,-112.66 207.5,-112 293.69,-91.91 319,-94.12 410.21,-75.95"/>
<polygon fill="midnightblue" stroke="midnightblue" points="411.04,-79.35 420.15,-73.94 409.65,-72.49 411.04,-79.35"/>
</g>
<!-- Node16&#45;&gt;Node8 -->
<g id="edge30" class="edge">
<title>Node16&#45;&gt;Node8</title>
<path fill="none" stroke="midnightblue" d="M198.75,-114.09C201.67,-113.32 204.65,-112.59 207.5,-112 330.34,-86.43 363.73,-96.59 487.5,-76 489.84,-75.61 492.24,-75.19 494.66,-74.74"/>
<polygon fill="midnightblue" stroke="midnightblue" points="495.41,-78.16 504.57,-72.84 494.08,-71.29 495.41,-78.16"/>
</g>
<!-- Node17 -->
<g id="node17" class="node">
<title>Node17</title>
<g id="a_node17"><a xlink:title=" ">
<polygon fill="white" stroke="#bfbfbf" points="71.5,-56.5 71.5,-75.5 103.5,-75.5 103.5,-56.5 71.5,-56.5"/>
<text text-anchor="middle" x="87.5" y="-63.5" font-family="Helvetica,sans-Serif" font-size="10.00">list</text>
</a>
</g>
</g>
<!-- Node16&#45;&gt;Node17 -->
<g id="edge27" class="edge">
<title>Node16&#45;&gt;Node17</title>
<path fill="none" stroke="midnightblue" d="M162.2,-112.32C148.32,-103.9 127.01,-90.97 110.7,-81.07"/>
<polygon fill="midnightblue" stroke="midnightblue" points="112.13,-77.85 101.76,-75.65 108.5,-83.83 112.13,-77.85"/>
</g>
<!-- Node18 -->
<g id="node18" class="node">
<title>Node18</title>
<g id="a_node18"><a xlink:title=" ">
<polygon fill="white" stroke="#bfbfbf" points="122,-56.5 122,-75.5 205,-75.5 205,-56.5 122,-56.5"/>
<text text-anchor="middle" x="163.5" y="-63.5" font-family="Helvetica,sans-Serif" font-size="10.00">initializer_list</text>
</a>
</g>
</g>
<!-- Node16&#45;&gt;Node18 -->
<g id="edge28" class="edge">
<title>Node16&#45;&gt;Node18</title>
<path fill="none" stroke="midnightblue" d="M174.35,-112.08C172.63,-104.93 170.15,-94.64 168,-85.69"/>
<polygon fill="midnightblue" stroke="midnightblue" points="171.35,-84.65 165.61,-75.75 164.54,-86.29 171.35,-84.65"/>
</g>
<!-- Node19 -->
<g id="node19" class="node">
<title>Node19</title>
<g id="a_node19"><a xlink:title=" ">
<polygon fill="white" stroke="#bfbfbf" points="0,-56.5 0,-75.5 53,-75.5 53,-56.5 0,-56.5"/>
<text text-anchor="middle" x="26.5" y="-63.5" font-family="Helvetica,sans-Serif" font-size="10.00">tlist.tcc</text>
</a>
</g>
</g>
<!-- Node16&#45;&gt;Node19 -->
<g id="edge31" class="edge">
<title>Node16&#45;&gt;Node19</title>
<path fill="none" stroke="midnightblue" d="M154.37,-113.03C129.44,-104.06 88.65,-89.37 59.85,-79.01"/>
<polygon fill="midnightblue" stroke="midnightblue" points="60.81,-75.63 50.21,-75.54 58.43,-82.22 60.81,-75.63"/>
</g>
<!-- Node20&#45;&gt;Node5 -->
<g id="edge34" class="edge">
<title>Node20&#45;&gt;Node5</title>
<path fill="none" stroke="midnightblue" d="M472.68,-170.69C569,-151.8 854.95,-95.74 961.18,-74.91"/>
<polygon fill="midnightblue" stroke="midnightblue" points="962.04,-78.3 971.18,-72.95 960.69,-71.44 962.04,-78.3"/>
</g>
<!-- Node20&#45;&gt;Node12 -->
<g id="edge43" class="edge">
<title>Node20&#45;&gt;Node12</title>
<path fill="none" stroke="midnightblue" d="M459.96,-168.33C489.83,-155.2 548.95,-129.9 600.5,-112 638,-98.98 681.46,-86.59 712.81,-78.12"/>
<polygon fill="midnightblue" stroke="midnightblue" points="713.78,-81.48 722.53,-75.51 711.97,-74.72 713.78,-81.48"/>
</g>
<!-- Node20&#45;&gt;Node16 -->
<g id="edge35" class="edge">
<title>Node20&#45;&gt;Node16</title>
<path fill="none" stroke="midnightblue" d="M408.26,-171.74C364.96,-164.46 285.46,-150.36 208.63,-132.1"/>
<polygon fill="midnightblue" stroke="midnightblue" points="209.33,-128.67 198.79,-129.74 207.69,-135.48 209.33,-128.67"/>
</g>
<!-- Node21 -->
<g id="node21" class="node">
<title>Node21</title>
<g id="a_node21"><a xlink:title=" ">
<polygon fill="white" stroke="#bfbfbf" points="407,-112.5 407,-131.5 472,-131.5 472,-112.5 407,-112.5"/>
<text text-anchor="middle" x="439.5" y="-119.5" font-family="Helvetica,sans-Serif" font-size="10.00">memory.h</text>
</a>
</g>
</g>
<!-- Node20&#45;&gt;Node21 -->
<g id="edge33" class="edge">
<title>Node20&#45;&gt;Node21</title>
<path fill="none" stroke="midnightblue" d="M440.33,-168.08C440.2,-161.01 440.02,-150.86 439.85,-141.99"/>
<polygon fill="midnightblue" stroke="midnightblue" points="443.35,-141.68 439.66,-131.75 436.35,-141.81 443.35,-141.68"/>
</g>
<!-- Node22 -->
<g id="node22" class="node">
<title>Node22</title>
<g id="a_node22"><a xlink:href="tmap_8h.html" target="_top" xlink:title=" ">
<polygon fill="white" stroke="black" points="217,-112.5 217,-131.5 268,-131.5 268,-112.5 217,-112.5"/>
<text text-anchor="middle" x="242.5" y="-119.5" font-family="Helvetica,sans-Serif" font-size="10.00">tmap.h</text>
</a>
</g>
</g>
<!-- Node20&#45;&gt;Node22 -->
<g id="edge36" class="edge">
<title>Node20&#45;&gt;Node22</title>
<path fill="none" stroke="midnightblue" d="M409.13,-168.44C373.44,-158.71 315.31,-142.86 278,-132.68"/>
<polygon fill="midnightblue" stroke="midnightblue" points="278.63,-129.23 268.06,-129.97 276.79,-135.98 278.63,-129.23"/>
</g>
<!-- Node22&#45;&gt;Node6 -->
<g id="edge38" class="edge">
<title>Node22&#45;&gt;Node6</title>
<path fill="none" stroke="midnightblue" d="M268.3,-114.27C304.04,-104.95 368.92,-88.02 410.57,-77.15"/>
<polygon fill="midnightblue" stroke="midnightblue" points="411.58,-80.51 420.37,-74.6 409.81,-73.74 411.58,-80.51"/>
</g>
<!-- Node22&#45;&gt;Node8 -->
<g id="edge41" class="edge">
<title>Node22&#45;&gt;Node8</title>
<path fill="none" stroke="midnightblue" d="M268.06,-114.17C271.23,-113.4 274.43,-112.66 277.5,-112 370.1,-92.19 394.43,-93.49 487.5,-76 489.83,-75.56 492.22,-75.1 494.64,-74.63"/>
<polygon fill="midnightblue" stroke="midnightblue" points="495.41,-78.04 504.53,-72.66 494.04,-71.18 495.41,-78.04"/>
</g>
<!-- Node22&#45;&gt;Node18 -->
<g id="edge39" class="edge">
<title>Node22&#45;&gt;Node18</title>
<path fill="none" stroke="midnightblue" d="M229.81,-112.32C217.6,-103.98 198.92,-91.21 184.5,-81.35"/>
<polygon fill="midnightblue" stroke="midnightblue" points="186.39,-78.41 176.16,-75.65 182.44,-84.19 186.39,-78.41"/>
</g>
<!-- Node23 -->
<g id="node23" class="node">
<title>Node23</title>
<g id="a_node23"><a xlink:title=" ">
<polygon fill="white" stroke="#bfbfbf" points="223.5,-56.5 223.5,-75.5 261.5,-75.5 261.5,-56.5 223.5,-56.5"/>
<text text-anchor="middle" x="242.5" y="-63.5" font-family="Helvetica,sans-Serif" font-size="10.00">map</text>
</a>
</g>
</g>
<!-- Node22&#45;&gt;Node23 -->
<g id="edge37" class="edge">
<title>Node22&#45;&gt;Node23</title>
<path fill="none" stroke="midnightblue" d="M242.5,-112.08C242.5,-105.01 242.5,-94.86 242.5,-85.99"/>
<polygon fill="midnightblue" stroke="midnightblue" points="246,-85.75 242.5,-75.75 239,-85.75 246,-85.75"/>
</g>
<!-- Node24 -->
<g id="node24" class="node">
<title>Node24</title>
<g id="a_node24"><a xlink:title=" ">
<polygon fill="white" stroke="#bfbfbf" points="280,-56.5 280,-75.5 325,-75.5 325,-56.5 280,-56.5"/>
<text text-anchor="middle" x="302.5" y="-63.5" font-family="Helvetica,sans-Serif" font-size="10.00">utility</text>
</a>
</g>
</g>
<!-- Node22&#45;&gt;Node24 -->
<g id="edge40" class="edge">
<title>Node22&#45;&gt;Node24</title>
<path fill="none" stroke="midnightblue" d="M252.14,-112.32C261.01,-104.34 274.37,-92.31 285.11,-82.65"/>
<polygon fill="midnightblue" stroke="midnightblue" points="287.59,-85.13 292.68,-75.83 282.91,-79.92 287.59,-85.13"/>
</g>
<!-- Node25 -->
<g id="node25" class="node">
<title>Node25</title>
<g id="a_node25"><a xlink:title=" ">
<polygon fill="white" stroke="#bfbfbf" points="343,-56.5 343,-75.5 402,-75.5 402,-56.5 343,-56.5"/>
<text text-anchor="middle" x="372.5" y="-63.5" font-family="Helvetica,sans-Serif" font-size="10.00">tmap.tcc</text>
</a>
</g>
</g>
<!-- Node22&#45;&gt;Node25 -->
<g id="edge42" class="edge">
<title>Node22&#45;&gt;Node25</title>
<path fill="none" stroke="midnightblue" d="M263.1,-112.44C284.49,-103.56 318.18,-89.56 342.52,-79.45"/>
<polygon fill="midnightblue" stroke="midnightblue" points="344.11,-82.58 352,-75.52 341.42,-76.12 344.11,-82.58"/>
</g>
<!-- Node26&#45;&gt;Node4 -->
<g id="edge46" class="edge">
<title>Node26&#45;&gt;Node4</title>
<path fill="none" stroke="midnightblue" d="M812.85,-342.22C858.47,-337.63 940.95,-326.24 1006.5,-300 1049.54,-282.77 1072.19,-284.64 1094.5,-244 1102.01,-230.33 1100.69,-191.57 1088.5,-168 1082.14,-155.71 1070.92,-145.24 1060.62,-137.5"/>
<polygon fill="midnightblue" stroke="midnightblue" points="1062.5,-134.55 1052.31,-131.66 1058.48,-140.28 1062.5,-134.55"/>
</g>
<!-- Node26&#45;&gt;Node12 -->
<g id="edge50" class="edge">
<title>Node26&#45;&gt;Node12</title>
<path fill="none" stroke="midnightblue" d="M777.79,-336.38C774.59,-297.78 761.58,-140.45 757.06,-85.81"/>
<polygon fill="midnightblue" stroke="midnightblue" points="760.52,-85.2 756.21,-75.52 753.54,-85.78 760.52,-85.2"/>
</g>
<!-- Node26&#45;&gt;Node14 -->
<g id="edge51" class="edge">
<title>Node26&#45;&gt;Node14</title>
<path fill="none" stroke="midnightblue" d="M744.44,-342.83C697.89,-338.89 612.54,-328.18 545.5,-300 516.26,-287.71 486.89,-265.43 468.95,-250.42"/>
<polygon fill="midnightblue" stroke="midnightblue" points="470.98,-247.56 461.11,-243.71 466.43,-252.88 470.98,-247.56"/>
</g>
<!-- Node26&#45;&gt;Node15 -->
<g id="edge47" class="edge">
<title>Node26&#45;&gt;Node15</title>
<path fill="none" stroke="midnightblue" d="M812.67,-345.36C894.31,-345.54 1097.63,-341.67 1148.5,-300 1179.35,-274.73 1186.59,-225.06 1188.17,-197.88"/>
<polygon fill="midnightblue" stroke="midnightblue" points="1191.67,-197.86 1188.55,-187.74 1184.68,-197.6 1191.67,-197.86"/>
</g>
<!-- Node26&#45;&gt;Node16 -->
<g id="edge48" class="edge">
<title>Node26&#45;&gt;Node16</title>
<path fill="none" stroke="midnightblue" d="M744.47,-344.65C685.1,-343.07 559.46,-335.42 460.5,-300 459.8,-299.75 369.14,-244.39 368.5,-244 306.7,-205.72 234.24,-159.76 198.6,-137.08"/>
<polygon fill="midnightblue" stroke="midnightblue" points="200.27,-134 189.96,-131.58 196.51,-139.9 200.27,-134"/>
</g>
<!-- Node26&#45;&gt;Node22 -->
<g id="edge49" class="edge">
<title>Node26&#45;&gt;Node22</title>
<path fill="none" stroke="midnightblue" d="M744.22,-343.88C691.44,-341.16 587.84,-331.85 506.5,-300 403.37,-259.61 299.66,-173.74 259.69,-138.54"/>
<polygon fill="midnightblue" stroke="midnightblue" points="261.94,-135.87 252.15,-131.84 257.29,-141.1 261.94,-135.87"/>
</g>
<!-- Node27 -->
<g id="node27" class="node">
<title>Node27</title>
<g id="a_node27"><a xlink:href="id3v2_8h.html" target="_top" xlink:title=" ">
<polygon fill="white" stroke="black" points="849,-168.5 849,-187.5 902,-187.5 902,-168.5 849,-168.5"/>
<text text-anchor="middle" x="875.5" y="-175.5" font-family="Helvetica,sans-Serif" font-size="10.00">id3v2.h</text>
</a>
</g>
</g>
<!-- Node26&#45;&gt;Node27 -->
<g id="edge52" class="edge">
<title>Node26&#45;&gt;Node27</title>
<path fill="none" stroke="midnightblue" d="M783.72,-336.08C799.18,-309.61 844.99,-231.21 865.44,-196.21"/>
<polygon fill="midnightblue" stroke="midnightblue" points="868.47,-197.97 870.49,-187.57 862.43,-194.44 868.47,-197.97"/>
</g>
<!-- Node28 -->
<g id="node28" class="node">
<title>Node28</title>
<g id="a_node28"><a xlink:href="id3v2framefactory_8h.html" target="_top" xlink:title=" ">
<polygon fill="white" stroke="black" points="883,-280.5 883,-299.5 998,-299.5 998,-280.5 883,-280.5"/>
<text text-anchor="middle" x="940.5" y="-287.5" font-family="Helvetica,sans-Serif" font-size="10.00">id3v2framefactory.h</text>
</a>
</g>
</g>
<!-- Node26&#45;&gt;Node28 -->
<g id="edge53" class="edge">
<title>Node26&#45;&gt;Node28</title>
<path fill="none" stroke="midnightblue" d="M804.17,-336.44C831.42,-327.36 874.68,-312.94 905.15,-302.78"/>
<polygon fill="midnightblue" stroke="midnightblue" points="906.57,-306 914.95,-299.52 904.36,-299.36 906.57,-306"/>
</g>
<!-- Node28&#45;&gt;Node4 -->
<g id="edge54" class="edge">
<title>Node28&#45;&gt;Node4</title>
<path fill="none" stroke="midnightblue" d="M998.04,-285.44C1026.85,-280.4 1059.37,-269.04 1077.5,-244 1100.96,-211.6 1071.33,-164.61 1051.9,-139.8"/>
<polygon fill="midnightblue" stroke="midnightblue" points="1054.35,-137.27 1045.32,-131.73 1048.93,-141.7 1054.35,-137.27"/>
</g>
<!-- Node28&#45;&gt;Node12 -->
<g id="edge55" class="edge">
<title>Node28&#45;&gt;Node12</title>
<path fill="none" stroke="midnightblue" d="M923.6,-280.38C909.07,-272.38 888.21,-259.4 873.5,-244 863.45,-233.48 798.7,-115.04 796.5,-112 789.08,-101.75 779.63,-91.25 771.67,-82.97"/>
<polygon fill="midnightblue" stroke="midnightblue" points="774.12,-80.47 764.62,-75.79 769.13,-85.37 774.12,-80.47"/>
</g>
<!-- Node29 -->
<g id="node29" class="node">
<title>Node29</title>
<g id="a_node29"><a xlink:href="id3v2frame_8h.html" target="_top" xlink:title=" ">
<polygon fill="white" stroke="black" points="986.5,-224.5 986.5,-243.5 1068.5,-243.5 1068.5,-224.5 986.5,-224.5"/>
<text text-anchor="middle" x="1027.5" y="-231.5" font-family="Helvetica,sans-Serif" font-size="10.00">id3v2frame.h</text>
</a>
</g>
</g>
<!-- Node28&#45;&gt;Node29 -->
<g id="edge56" class="edge">
<title>Node28&#45;&gt;Node29</title>
<path fill="none" stroke="midnightblue" d="M954.48,-280.32C968.05,-271.9 988.88,-258.97 1004.82,-249.07"/>
<polygon fill="midnightblue" stroke="midnightblue" points="1006.91,-251.9 1013.56,-243.65 1003.21,-245.95 1006.91,-251.9"/>
</g>
<!-- Node30 -->
<g id="node30" class="node">
<title>Node30</title>
<g id="a_node30"><a xlink:href="id3v2header_8h.html" target="_top" xlink:title=" ">
<polygon fill="white" stroke="black" points="882.5,-224.5 882.5,-243.5 968.5,-243.5 968.5,-224.5 882.5,-224.5"/>
<text text-anchor="middle" x="925.5" y="-231.5" font-family="Helvetica,sans-Serif" font-size="10.00">id3v2header.h</text>
</a>
</g>
</g>
<!-- Node28&#45;&gt;Node30 -->
<g id="edge60" class="edge">
<title>Node28&#45;&gt;Node30</title>
<path fill="none" stroke="midnightblue" d="M938.02,-280.08C936.01,-272.85 933.11,-262.41 930.61,-253.4"/>
<polygon fill="midnightblue" stroke="midnightblue" points="933.98,-252.45 927.93,-243.75 927.24,-254.32 933.98,-252.45"/>
</g>
<!-- Node29&#45;&gt;Node4 -->
<g id="edge58" class="edge">
<title>Node29&#45;&gt;Node4</title>
<path fill="none" stroke="midnightblue" d="M1028.28,-224.37C1029.9,-206.62 1033.62,-165.67 1035.81,-141.6"/>
<polygon fill="midnightblue" stroke="midnightblue" points="1039.3,-141.87 1036.72,-131.59 1032.33,-141.23 1039.3,-141.87"/>
</g>
<!-- Node29&#45;&gt;Node12 -->
<g id="edge59" class="edge">
<title>Node29&#45;&gt;Node12</title>
<path fill="none" stroke="midnightblue" d="M1019.34,-224.5C998.23,-202.94 939.4,-145.5 880.5,-112 854.77,-97.37 823.43,-86.1 798.57,-78.5"/>
<polygon fill="midnightblue" stroke="midnightblue" points="799.27,-75.05 788.69,-75.56 797.28,-81.77 799.27,-75.05"/>
</g>
<!-- Node29&#45;&gt;Node15 -->
<g id="edge57" class="edge">
<title>Node29&#45;&gt;Node15</title>
<path fill="none" stroke="midnightblue" d="M1053.01,-224.44C1080.1,-215.36 1123.09,-200.94 1153.37,-190.78"/>
<polygon fill="midnightblue" stroke="midnightblue" points="1154.74,-194.01 1163.11,-187.52 1152.51,-187.38 1154.74,-194.01"/>
</g>
<!-- Node30&#45;&gt;Node4 -->
<g id="edge61" class="edge">
<title>Node30&#45;&gt;Node4</title>
<path fill="none" stroke="midnightblue" d="M934.29,-224.37C953.1,-205.89 997.49,-162.29 1021.47,-138.74"/>
<polygon fill="midnightblue" stroke="midnightblue" points="1024.07,-141.1 1028.75,-131.59 1019.17,-136.1 1024.07,-141.1"/>
</g>
<!-- Node30&#45;&gt;Node12 -->
<g id="edge62" class="edge">
<title>Node30&#45;&gt;Node12</title>
<path fill="none" stroke="midnightblue" d="M925.37,-224.26C924.77,-211.04 922.07,-185.62 910.5,-168 881.4,-123.71 825.43,-94.56 789.31,-79.43"/>
<polygon fill="midnightblue" stroke="midnightblue" points="790.27,-76.04 779.69,-75.53 787.64,-82.53 790.27,-76.04"/>
</g>
<!-- Node30&#45;&gt;Node27 -->
<g id="edge63" class="edge">
<title>Node30&#45;&gt;Node27</title>
<path fill="none" stroke="midnightblue" d="M917.24,-224.08C910.04,-216.3 899.39,-204.8 890.65,-195.37"/>
<polygon fill="midnightblue" stroke="midnightblue" points="892.97,-192.71 883.6,-187.75 887.83,-197.47 892.97,-192.71"/>
</g>
<!-- Node32 -->
<g id="node32" class="node">
<title>Node32</title>
<g id="a_node32"><a xlink:href="audioproperties_8h.html" target="_top" xlink:title=" ">
<polygon fill="white" stroke="black" points="286.5,-112.5 286.5,-131.5 388.5,-131.5 388.5,-112.5 286.5,-112.5"/>
<text text-anchor="middle" x="337.5" y="-119.5" font-family="Helvetica,sans-Serif" font-size="10.00">audioproperties.h</text>
</a>
</g>
</g>
<!-- Node31&#45;&gt;Node32 -->
<g id="edge65" class="edge">
<title>Node31&#45;&gt;Node32</title>
<path fill="none" stroke="midnightblue" d="M335.39,-336.28C331.44,-327.38 325.76,-313.07 323.5,-300 313.61,-242.67 325.91,-173.66 333.06,-141.36"/>
<polygon fill="midnightblue" stroke="midnightblue" points="336.49,-142.07 335.33,-131.54 329.67,-140.5 336.49,-142.07"/>
</g>
<!-- Node32&#45;&gt;Node6 -->
<g id="edge66" class="edge">
<title>Node32&#45;&gt;Node6</title>
<path fill="none" stroke="midnightblue" d="M355.49,-112.32C373.54,-103.62 401.55,-90.12 422.3,-80.11"/>
<polygon fill="midnightblue" stroke="midnightblue" points="424.06,-83.15 431.55,-75.65 421.02,-76.84 424.06,-83.15"/>
</g>
<!-- Node32&#45;&gt;Node8 -->
<g id="edge67" class="edge">
<title>Node32&#45;&gt;Node8</title>
<path fill="none" stroke="midnightblue" d="M368.24,-112.44C402.71,-102.85 458.58,-87.3 495.18,-77.11"/>
<polygon fill="midnightblue" stroke="midnightblue" points="496.26,-80.44 504.96,-74.39 494.38,-73.7 496.26,-80.44"/>
</g>
<!-- Node32&#45;&gt;Node12 -->
<g id="edge68" class="edge">
<title>Node32&#45;&gt;Node12</title>
<path fill="none" stroke="midnightblue" d="M388.55,-113.26C391.58,-112.82 394.58,-112.4 397.5,-112 504.55,-97.24 629.9,-81.94 700.27,-73.53"/>
<polygon fill="midnightblue" stroke="midnightblue" points="700.73,-77 710.24,-72.34 699.9,-70.05 700.73,-77"/>
</g>
<!-- Node33&#45;&gt;Node14 -->
<g id="edge70" class="edge">
<title>Node33&#45;&gt;Node14</title>
<path fill="none" stroke="midnightblue" d="M387.71,-280.32C399.28,-272.11 416.88,-259.6 430.66,-249.81"/>
<polygon fill="midnightblue" stroke="midnightblue" points="432.94,-252.48 439.07,-243.83 428.89,-246.77 432.94,-252.48"/>
</g>
</g>
</svg>
