<?xml version="1.0" encoding="UTF-8" standalone="no"?>
<!DOCTYPE svg PUBLIC "-//W3C//DTD SVG 1.1//EN"
 "http://www.w3.org/Graphics/SVG/1.1/DTD/svg11.dtd">
<!-- Generated by graphviz version 2.42.4 (0)
 -->
<!-- Title: dsdifffile.h Pages: 1 -->
<svg width="1134pt" height="357pt"
 viewBox="0.00 0.00 1133.50 357.00" xmlns="http://www.w3.org/2000/svg" xmlns:xlink="http://www.w3.org/1999/xlink">
<g id="graph0" class="graph" transform="scale(1 1) rotate(0) translate(4 353)">
<title>dsdifffile.h</title>
<!-- Node1 -->
<g id="Node000001" class="node">
<title>Node1</title>
<g id="a_Node000001"><a xlink:title=" ">
<polygon fill="#999999" stroke="#666666" points="519.5,-349 451.5,-349 451.5,-330 519.5,-330 519.5,-349"/>
<text text-anchor="middle" x="485.5" y="-337" font-family="Helvetica,sans-Serif" font-size="10.00">dsdifffile.h</text>
</a>
</g>
</g>
<!-- Node2 -->
<g id="Node000002" class="node">
<title>Node2</title>
<g id="a_Node000002"><a xlink:href="tfile_8h.html" target="_top" xlink:title=" ">
<polygon fill="white" stroke="#666666" points="869.5,-239 825.5,-239 825.5,-220 869.5,-220 869.5,-239"/>
<text text-anchor="middle" x="847.5" y="-227" font-family="Helvetica,sans-Serif" font-size="10.00">tfile.h</text>
</a>
</g>
</g>
<!-- Node1&#45;&gt;Node2 -->
<g id="edge1_Node000001_Node000002" class="edge">
<title>Node1&#45;&gt;Node2</title>
<g id="a_edge1_Node000001_Node000002"><a xlink:title=" ">
<path fill="none" stroke="#63b8ff" d="M514.21,-329.94C580.86,-310.05 745.69,-260.87 815.47,-240.06"/>
<polygon fill="#63b8ff" stroke="#63b8ff" points="816.86,-243.29 825.44,-237.08 814.86,-236.59 816.86,-243.29"/>
</a>
</g>
</g>
<!-- Node23 -->
<g id="Node000023" class="node">
<title>Node23</title>
<g id="a_Node000023"><a xlink:href="id3v2tag_8h.html" target="_top" xlink:title=" ">
<polygon fill="white" stroke="#666666" points="488.5,-294 420.5,-294 420.5,-275 488.5,-275 488.5,-294"/>
<text text-anchor="middle" x="454.5" y="-282" font-family="Helvetica,sans-Serif" font-size="10.00">id3v2tag.h</text>
</a>
</g>
</g>
<!-- Node1&#45;&gt;Node23 -->
<g id="edge35_Node000001_Node000023" class="edge">
<title>Node1&#45;&gt;Node23</title>
<g id="a_edge35_Node000001_Node000023"><a xlink:title=" ">
<path fill="none" stroke="#63b8ff" d="M480.38,-329.75C476.14,-322.49 469.97,-311.95 464.72,-302.98"/>
<polygon fill="#63b8ff" stroke="#63b8ff" points="467.59,-300.95 459.52,-294.09 461.55,-304.49 467.59,-300.95"/>
</a>
</g>
</g>
<!-- Node28 -->
<g id="Node000028" class="node">
<title>Node28</title>
<g id="a_Node000028"><a xlink:href="dsdiffproperties_8h.html" target="_top" xlink:title=" ">
<polygon fill="white" stroke="#666666" points="972.5,-294 870.5,-294 870.5,-275 972.5,-275 972.5,-294"/>
<text text-anchor="middle" x="921.5" y="-282" font-family="Helvetica,sans-Serif" font-size="10.00">dsdiffproperties.h</text>
</a>
</g>
</g>
<!-- Node1&#45;&gt;Node28 -->
<g id="edge54_Node000001_Node000028" class="edge">
<title>Node1&#45;&gt;Node28</title>
<g id="a_edge54_Node000001_Node000028"><a xlink:title=" ">
<path fill="none" stroke="#63b8ff" d="M519.71,-334.34C593.24,-325.4 767.19,-304.26 860.25,-292.95"/>
<polygon fill="#63b8ff" stroke="#63b8ff" points="860.86,-296.4 870.36,-291.72 860.01,-289.45 860.86,-296.4"/>
</a>
</g>
</g>
<!-- Node30 -->
<g id="Node000030" class="node">
<title>Node30</title>
<g id="a_Node000030"><a xlink:href="dsdiffdiintag_8h.html" target="_top" xlink:title=" ">
<polygon fill="white" stroke="#666666" points="376.5,-294 290.5,-294 290.5,-275 376.5,-275 376.5,-294"/>
<text text-anchor="middle" x="333.5" y="-282" font-family="Helvetica,sans-Serif" font-size="10.00">dsdiffdiintag.h</text>
</a>
</g>
</g>
<!-- Node1&#45;&gt;Node30 -->
<g id="edge59_Node000001_Node000030" class="edge">
<title>Node1&#45;&gt;Node30</title>
<g id="a_edge59_Node000001_Node000030"><a xlink:title=" ">
<path fill="none" stroke="#63b8ff" d="M461.08,-329.98C435.78,-321.16 396.05,-307.31 367.64,-297.41"/>
<polygon fill="#63b8ff" stroke="#63b8ff" points="368.71,-294.07 358.11,-294.08 366.4,-300.68 368.71,-294.07"/>
</a>
</g>
</g>
<!-- Node3 -->
<g id="Node000003" class="node">
<title>Node3</title>
<g id="a_Node000003"><a xlink:href="tbytevector_8h.html" target="_top" xlink:title=" ">
<polygon fill="white" stroke="#666666" points="590,-74 509,-74 509,-55 590,-55 590,-74"/>
<text text-anchor="middle" x="549.5" y="-62" font-family="Helvetica,sans-Serif" font-size="10.00">tbytevector.h</text>
</a>
</g>
</g>
<!-- Node2&#45;&gt;Node3 -->
<g id="edge2_Node000002_Node000003" class="edge">
<title>Node2&#45;&gt;Node3</title>
<g id="a_edge2_Node000002_Node000003"><a xlink:title=" ">
<path fill="none" stroke="#63b8ff" d="M825.28,-219.89C785.69,-204.16 700.87,-168.72 634.5,-129 610,-114.34 584.01,-94.16 567.32,-80.51"/>
<polygon fill="#63b8ff" stroke="#63b8ff" points="569.43,-77.71 559.49,-74.03 564.96,-83.11 569.43,-77.71"/>
</a>
</g>
</g>
<!-- Node7 -->
<g id="Node000007" class="node">
<title>Node7</title>
<g id="a_Node000007"><a xlink:href="taglib__export_8h.html" target="_top" xlink:title=" ">
<polygon fill="white" stroke="#666666" points="779.5,-19 689.5,-19 689.5,0 779.5,0 779.5,-19"/>
<text text-anchor="middle" x="734.5" y="-7" font-family="Helvetica,sans-Serif" font-size="10.00">taglib_export.h</text>
</a>
</g>
</g>
<!-- Node2&#45;&gt;Node7 -->
<g id="edge12_Node000002_Node000007" class="edge">
<title>Node2&#45;&gt;Node7</title>
<g id="a_edge12_Node000002_Node000007"><a xlink:title=" ">
<path fill="none" stroke="#63b8ff" d="M863.53,-219.95C875.91,-212.35 892.15,-199.97 899.5,-184 916.33,-147.44 943.67,-129.07 876.5,-55 854.53,-30.78 819.57,-19.63 789.84,-14.55"/>
<polygon fill="#63b8ff" stroke="#63b8ff" points="789.98,-11.03 779.57,-12.99 788.93,-17.95 789.98,-11.03"/>
</a>
</g>
</g>
<!-- Node8 -->
<g id="Node000008" class="node">
<title>Node8</title>
<g id="a_Node000008"><a xlink:href="tiostream_8h.html" target="_top" xlink:title=" ">
<polygon fill="white" stroke="#666666" points="891,-184 818,-184 818,-165 891,-165 891,-184"/>
<text text-anchor="middle" x="854.5" y="-172" font-family="Helvetica,sans-Serif" font-size="10.00">tiostream.h</text>
</a>
</g>
</g>
<!-- Node2&#45;&gt;Node8 -->
<g id="edge7_Node000002_Node000008" class="edge">
<title>Node2&#45;&gt;Node8</title>
<g id="a_edge7_Node000002_Node000008"><a xlink:title=" ">
<path fill="none" stroke="#63b8ff" d="M848.66,-219.75C849.57,-212.8 850.89,-202.85 852.04,-194.13"/>
<polygon fill="#63b8ff" stroke="#63b8ff" points="855.53,-194.46 853.37,-184.09 848.59,-193.54 855.53,-194.46"/>
</a>
</g>
</g>
<!-- Node9 -->
<g id="Node000009" class="node">
<title>Node9</title>
<g id="a_Node000009"><a xlink:href="taglib_8h.html" target="_top" xlink:title=" ">
<polygon fill="white" stroke="#666666" points="1010,-129 957,-129 957,-110 1010,-110 1010,-129"/>
<text text-anchor="middle" x="983.5" y="-117" font-family="Helvetica,sans-Serif" font-size="10.00">taglib.h</text>
</a>
</g>
</g>
<!-- Node2&#45;&gt;Node9 -->
<g id="edge13_Node000002_Node000009" class="edge">
<title>Node2&#45;&gt;Node9</title>
<g id="a_edge13_Node000002_Node000009"><a xlink:title=" ">
<path fill="none" stroke="#63b8ff" d="M869.53,-220.19C887.88,-212.58 914.06,-200.06 933.5,-184 949.49,-170.78 963.69,-151.65 972.84,-137.84"/>
<polygon fill="#63b8ff" stroke="#63b8ff" points="975.88,-139.58 978.32,-129.27 969.98,-135.81 975.88,-139.58"/>
</a>
</g>
</g>
<!-- Node11 -->
<g id="Node000011" class="node">
<title>Node11</title>
<g id="a_Node000011"><a xlink:href="tag_8h.html" target="_top" xlink:title=" ">
<polygon fill="white" stroke="#666666" points="346,-184 305,-184 305,-165 346,-165 346,-184"/>
<text text-anchor="middle" x="325.5" y="-172" font-family="Helvetica,sans-Serif" font-size="10.00">tag.h</text>
</a>
</g>
</g>
<!-- Node2&#45;&gt;Node11 -->
<g id="edge14_Node000002_Node000011" class="edge">
<title>Node2&#45;&gt;Node11</title>
<g id="a_edge14_Node000002_Node000011"><a xlink:title=" ">
<path fill="none" stroke="#63b8ff" d="M825.4,-226.26C742.82,-217.87 452.11,-188.36 356.35,-178.63"/>
<polygon fill="#63b8ff" stroke="#63b8ff" points="356.47,-175.13 346.17,-177.6 355.76,-182.09 356.47,-175.13"/>
</a>
</g>
</g>
<!-- Node4 -->
<g id="Node000004" class="node">
<title>Node4</title>
<g id="a_Node000004"><a xlink:title=" ">
<polygon fill="#e0e0e0" stroke="#999999" points="477.5,-19 419.5,-19 419.5,0 477.5,0 477.5,-19"/>
<text text-anchor="middle" x="448.5" y="-7" font-family="Helvetica,sans-Serif" font-size="10.00">memory</text>
</a>
</g>
</g>
<!-- Node3&#45;&gt;Node4 -->
<g id="edge3_Node000003_Node000004" class="edge">
<title>Node3&#45;&gt;Node4</title>
<g id="a_edge3_Node000003_Node000004"><a xlink:title=" ">
<path fill="none" stroke="#63b8ff" d="M533.27,-54.98C517.32,-46.61 492.72,-33.7 474.12,-23.95"/>
<polygon fill="#63b8ff" stroke="#63b8ff" points="475.5,-20.72 465.02,-19.17 472.25,-26.92 475.5,-20.72"/>
</a>
</g>
</g>
<!-- Node5 -->
<g id="Node000005" class="node">
<title>Node5</title>
<g id="a_Node000005"><a xlink:title=" ">
<polygon fill="#e0e0e0" stroke="#999999" points="609,-19 562,-19 562,0 609,0 609,-19"/>
<text text-anchor="middle" x="585.5" y="-7" font-family="Helvetica,sans-Serif" font-size="10.00">vector</text>
</a>
</g>
</g>
<!-- Node3&#45;&gt;Node5 -->
<g id="edge4_Node000003_Node000005" class="edge">
<title>Node3&#45;&gt;Node5</title>
<g id="a_edge4_Node000003_Node000005"><a xlink:title=" ">
<path fill="none" stroke="#63b8ff" d="M555.44,-54.75C560.48,-47.34 567.84,-36.5 574.01,-27.41"/>
<polygon fill="#63b8ff" stroke="#63b8ff" points="576.94,-29.33 579.67,-19.09 571.15,-25.39 576.94,-29.33"/>
</a>
</g>
</g>
<!-- Node6 -->
<g id="Node000006" class="node">
<title>Node6</title>
<g id="a_Node000006"><a xlink:title=" ">
<polygon fill="#e0e0e0" stroke="#999999" points="543.5,-19 495.5,-19 495.5,0 543.5,0 543.5,-19"/>
<text text-anchor="middle" x="519.5" y="-7" font-family="Helvetica,sans-Serif" font-size="10.00">iosfwd</text>
</a>
</g>
</g>
<!-- Node3&#45;&gt;Node6 -->
<g id="edge5_Node000003_Node000006" class="edge">
<title>Node3&#45;&gt;Node6</title>
<g id="a_edge5_Node000003_Node000006"><a xlink:title=" ">
<path fill="none" stroke="#63b8ff" d="M544.55,-54.75C540.44,-47.49 534.47,-36.95 529.4,-27.98"/>
<polygon fill="#63b8ff" stroke="#63b8ff" points="532.33,-26.07 524.36,-19.09 526.24,-29.52 532.33,-26.07"/>
</a>
</g>
</g>
<!-- Node3&#45;&gt;Node7 -->
<g id="edge6_Node000003_Node000007" class="edge">
<title>Node3&#45;&gt;Node7</title>
<g id="a_edge6_Node000003_Node000007"><a xlink:title=" ">
<path fill="none" stroke="#63b8ff" d="M579.22,-54.98C610.55,-46.01 660.07,-31.82 694.74,-21.89"/>
<polygon fill="#63b8ff" stroke="#63b8ff" points="695.89,-25.2 704.54,-19.08 693.97,-18.47 695.89,-25.2"/>
</a>
</g>
</g>
<!-- Node8&#45;&gt;Node3 -->
<g id="edge8_Node000008_Node000003" class="edge">
<title>Node8&#45;&gt;Node3</title>
<g id="a_edge8_Node000008_Node000003"><a xlink:title=" ">
<path fill="none" stroke="#63b8ff" d="M817.98,-166.19C782.73,-158.64 728.15,-145.63 682.5,-129 643.32,-114.73 600.12,-92.89 573.9,-78.9"/>
<polygon fill="#63b8ff" stroke="#63b8ff" points="575.51,-75.8 565.04,-74.14 572.19,-81.96 575.51,-75.8"/>
</a>
</g>
</g>
<!-- Node8&#45;&gt;Node7 -->
<g id="edge9_Node000008_Node000007" class="edge">
<title>Node8&#45;&gt;Node7</title>
<g id="a_edge9_Node000008_Node000007"><a xlink:title=" ">
<path fill="none" stroke="#63b8ff" d="M857.92,-164.76C865.55,-143.67 881.49,-89.2 857.5,-55 842.07,-33.01 814.64,-21.84 789.59,-16.19"/>
<polygon fill="#63b8ff" stroke="#63b8ff" points="790.26,-12.75 779.77,-14.21 788.89,-19.62 790.26,-12.75"/>
</a>
</g>
</g>
<!-- Node8&#45;&gt;Node9 -->
<g id="edge10_Node000008_Node000009" class="edge">
<title>Node8&#45;&gt;Node9</title>
<g id="a_edge10_Node000008_Node000009"><a xlink:title=" ">
<path fill="none" stroke="#63b8ff" d="M875.23,-164.98C896.26,-156.34 929.05,-142.87 953.04,-133.02"/>
<polygon fill="#63b8ff" stroke="#63b8ff" points="954.48,-136.21 962.4,-129.17 951.82,-129.73 954.48,-136.21"/>
</a>
</g>
</g>
<!-- Node10 -->
<g id="Node000010" class="node">
<title>Node10</title>
<g id="a_Node000010"><a xlink:title=" ">
<polygon fill="#e0e0e0" stroke="#999999" points="1019.5,-74 947.5,-74 947.5,-55 1019.5,-55 1019.5,-74"/>
<text text-anchor="middle" x="983.5" y="-62" font-family="Helvetica,sans-Serif" font-size="10.00">sys/types.h</text>
</a>
</g>
</g>
<!-- Node9&#45;&gt;Node10 -->
<g id="edge11_Node000009_Node000010" class="edge">
<title>Node9&#45;&gt;Node10</title>
<g id="a_edge11_Node000009_Node000010"><a xlink:title=" ">
<path fill="none" stroke="#63b8ff" d="M983.5,-109.75C983.5,-102.8 983.5,-92.85 983.5,-84.13"/>
<polygon fill="#63b8ff" stroke="#63b8ff" points="987,-84.09 983.5,-74.09 980,-84.09 987,-84.09"/>
</a>
</g>
</g>
<!-- Node11&#45;&gt;Node7 -->
<g id="edge15_Node000011_Node000007" class="edge">
<title>Node11&#45;&gt;Node7</title>
<g id="a_edge15_Node000011_Node000007"><a xlink:title=" ">
<path fill="none" stroke="#63b8ff" d="M329.37,-164.74C340.59,-139.71 373.69,-68.84 394.5,-55 417.71,-39.57 588.93,-22.9 679.17,-15.06"/>
<polygon fill="#63b8ff" stroke="#63b8ff" points="679.57,-18.54 689.23,-14.2 678.97,-11.57 679.57,-18.54"/>
</a>
</g>
</g>
<!-- Node12 -->
<g id="Node000012" class="node">
<title>Node12</title>
<g id="a_Node000012"><a xlink:href="tstring_8h.html" target="_top" xlink:title=" ">
<polygon fill="white" stroke="#666666" points="445,-129 388,-129 388,-110 445,-110 445,-129"/>
<text text-anchor="middle" x="416.5" y="-117" font-family="Helvetica,sans-Serif" font-size="10.00">tstring.h</text>
</a>
</g>
</g>
<!-- Node11&#45;&gt;Node12 -->
<g id="edge16_Node000011_Node000012" class="edge">
<title>Node11&#45;&gt;Node12</title>
<g id="a_edge16_Node000011_Node000012"><a xlink:title=" ">
<path fill="none" stroke="#63b8ff" d="M340.12,-164.98C354.36,-156.69 376.25,-143.94 392.95,-134.22"/>
<polygon fill="#63b8ff" stroke="#63b8ff" points="394.73,-137.23 401.61,-129.17 391.21,-131.18 394.73,-137.23"/>
</a>
</g>
</g>
<!-- Node14 -->
<g id="Node000014" class="node">
<title>Node14</title>
<g id="a_Node000014"><a xlink:href="tlist_8h.html" target="_top" xlink:title=" ">
<polygon fill="white" stroke="#666666" points="185.5,-74 141.5,-74 141.5,-55 185.5,-55 185.5,-74"/>
<text text-anchor="middle" x="163.5" y="-62" font-family="Helvetica,sans-Serif" font-size="10.00">tlist.h</text>
</a>
</g>
</g>
<!-- Node11&#45;&gt;Node14 -->
<g id="edge20_Node000011_Node000014" class="edge">
<title>Node11&#45;&gt;Node14</title>
<g id="a_edge20_Node000011_Node000014"><a xlink:title=" ">
<path fill="none" stroke="#63b8ff" d="M312.65,-164.98C299.16,-156.03 277.33,-141.54 258.5,-129 233.13,-112.1 203.99,-92.61 184.74,-79.73"/>
<polygon fill="#63b8ff" stroke="#63b8ff" points="186.66,-76.79 176.4,-74.14 182.76,-82.61 186.66,-76.79"/>
</a>
</g>
</g>
<!-- Node18 -->
<g id="Node000018" class="node">
<title>Node18</title>
<g id="a_Node000018"><a xlink:href="tvariant_8h.html" target="_top" xlink:title=" ">
<polygon fill="white" stroke="#666666" points="331.5,-129 267.5,-129 267.5,-110 331.5,-110 331.5,-129"/>
<text text-anchor="middle" x="299.5" y="-117" font-family="Helvetica,sans-Serif" font-size="10.00">tvariant.h</text>
</a>
</g>
</g>
<!-- Node11&#45;&gt;Node18 -->
<g id="edge25_Node000011_Node000018" class="edge">
<title>Node11&#45;&gt;Node18</title>
<g id="a_edge25_Node000011_Node000018"><a xlink:title=" ">
<path fill="none" stroke="#63b8ff" d="M321.21,-164.75C317.69,-157.57 312.59,-147.18 308.22,-138.27"/>
<polygon fill="#63b8ff" stroke="#63b8ff" points="311.26,-136.53 303.71,-129.09 304.98,-139.61 311.26,-136.53"/>
</a>
</g>
</g>
<!-- Node12&#45;&gt;Node3 -->
<g id="edge18_Node000012_Node000003" class="edge">
<title>Node12&#45;&gt;Node3</title>
<g id="a_edge18_Node000012_Node000003"><a xlink:title=" ">
<path fill="none" stroke="#63b8ff" d="M437.87,-109.98C459.65,-101.3 493.66,-87.75 518.42,-77.88"/>
<polygon fill="#63b8ff" stroke="#63b8ff" points="519.75,-81.12 527.74,-74.17 517.16,-74.62 519.75,-81.12"/>
</a>
</g>
</g>
<!-- Node12&#45;&gt;Node7 -->
<g id="edge19_Node000012_Node000007" class="edge">
<title>Node12&#45;&gt;Node7</title>
<g id="a_edge19_Node000012_Node000007"><a xlink:title=" ">
<path fill="none" stroke="#63b8ff" d="M424.81,-109.94C438.83,-96.05 468.69,-68.76 499.5,-55 557.55,-29.07 630.22,-18.24 679.26,-13.72"/>
<polygon fill="#63b8ff" stroke="#63b8ff" points="679.69,-17.2 689.35,-12.85 679.09,-10.22 679.69,-17.2"/>
</a>
</g>
</g>
<!-- Node13 -->
<g id="Node000013" class="node">
<title>Node13</title>
<g id="a_Node000013"><a xlink:title=" ">
<polygon fill="#e0e0e0" stroke="#999999" points="447.5,-74 403.5,-74 403.5,-55 447.5,-55 447.5,-74"/>
<text text-anchor="middle" x="425.5" y="-62" font-family="Helvetica,sans-Serif" font-size="10.00">string</text>
</a>
</g>
</g>
<!-- Node12&#45;&gt;Node13 -->
<g id="edge17_Node000012_Node000013" class="edge">
<title>Node12&#45;&gt;Node13</title>
<g id="a_edge17_Node000012_Node000013"><a xlink:title=" ">
<path fill="none" stroke="#63b8ff" d="M417.99,-109.75C419.17,-102.8 420.86,-92.85 422.34,-84.13"/>
<polygon fill="#63b8ff" stroke="#63b8ff" points="425.82,-84.53 424.04,-74.09 418.92,-83.36 425.82,-84.53"/>
</a>
</g>
</g>
<!-- Node14&#45;&gt;Node4 -->
<g id="edge23_Node000014_Node000004" class="edge">
<title>Node14&#45;&gt;Node4</title>
<g id="a_edge23_Node000014_Node000004"><a xlink:title=" ">
<path fill="none" stroke="#63b8ff" d="M185.97,-59.43C193.74,-58.03 202.5,-56.44 210.5,-55 296.26,-39.53 320.3,-37.03 409.47,-19.14"/>
<polygon fill="#63b8ff" stroke="#63b8ff" points="410.37,-22.53 419.48,-17.12 408.99,-15.67 410.37,-22.53"/>
</a>
</g>
</g>
<!-- Node15 -->
<g id="Node000015" class="node">
<title>Node15</title>
<g id="a_Node000015"><a xlink:title=" ">
<polygon fill="#e0e0e0" stroke="#999999" points="103.5,-19 71.5,-19 71.5,0 103.5,0 103.5,-19"/>
<text text-anchor="middle" x="87.5" y="-7" font-family="Helvetica,sans-Serif" font-size="10.00">list</text>
</a>
</g>
</g>
<!-- Node14&#45;&gt;Node15 -->
<g id="edge21_Node000014_Node000015" class="edge">
<title>Node14&#45;&gt;Node15</title>
<g id="a_edge21_Node000014_Node000015"><a xlink:title=" ">
<path fill="none" stroke="#63b8ff" d="M151.29,-54.98C139.72,-46.92 122.12,-34.65 108.34,-25.03"/>
<polygon fill="#63b8ff" stroke="#63b8ff" points="110.14,-22.02 99.93,-19.17 106.13,-27.76 110.14,-22.02"/>
</a>
</g>
</g>
<!-- Node16 -->
<g id="Node000016" class="node">
<title>Node16</title>
<g id="a_Node000016"><a xlink:title=" ">
<polygon fill="#e0e0e0" stroke="#999999" points="205,-19 122,-19 122,0 205,0 205,-19"/>
<text text-anchor="middle" x="163.5" y="-7" font-family="Helvetica,sans-Serif" font-size="10.00">initializer_list</text>
</a>
</g>
</g>
<!-- Node14&#45;&gt;Node16 -->
<g id="edge22_Node000014_Node000016" class="edge">
<title>Node14&#45;&gt;Node16</title>
<g id="a_edge22_Node000014_Node000016"><a xlink:title=" ">
<path fill="none" stroke="#63b8ff" d="M163.5,-54.75C163.5,-47.8 163.5,-37.85 163.5,-29.13"/>
<polygon fill="#63b8ff" stroke="#63b8ff" points="167,-29.09 163.5,-19.09 160,-29.09 167,-29.09"/>
</a>
</g>
</g>
<!-- Node17 -->
<g id="Node000017" class="node">
<title>Node17</title>
<g id="a_Node000017"><a xlink:title=" ">
<polygon fill="#e0e0e0" stroke="#999999" points="53,-19 0,-19 0,0 53,0 53,-19"/>
<text text-anchor="middle" x="26.5" y="-7" font-family="Helvetica,sans-Serif" font-size="10.00">tlist.tcc</text>
</a>
</g>
</g>
<!-- Node14&#45;&gt;Node17 -->
<g id="edge24_Node000014_Node000017" class="edge">
<title>Node14&#45;&gt;Node17</title>
<g id="a_edge24_Node000014_Node000017"><a xlink:title=" ">
<path fill="none" stroke="#63b8ff" d="M141.49,-54.98C119.05,-46.3 84.02,-32.75 58.51,-22.88"/>
<polygon fill="#63b8ff" stroke="#63b8ff" points="59.5,-19.51 48.91,-19.17 56.98,-26.04 59.5,-19.51"/>
</a>
</g>
</g>
<!-- Node18&#45;&gt;Node6 -->
<g id="edge26_Node000018_Node000006" class="edge">
<title>Node18&#45;&gt;Node6</title>
<g id="a_edge26_Node000018_Node000006"><a xlink:title=" ">
<path fill="none" stroke="#63b8ff" d="M300.24,-109.62C301.88,-95.79 307.1,-69.19 323.5,-55 377.19,-8.54 411.32,-33.84 485.18,-19.06"/>
<polygon fill="#63b8ff" stroke="#63b8ff" points="486.36,-22.38 495.37,-16.82 484.85,-15.55 486.36,-22.38"/>
</a>
</g>
</g>
<!-- Node18&#45;&gt;Node7 -->
<g id="edge34_Node000018_Node000007" class="edge">
<title>Node18&#45;&gt;Node7</title>
<g id="a_edge34_Node000018_Node000007"><a xlink:title=" ">
<path fill="none" stroke="#63b8ff" d="M305.11,-109.7C314.71,-95.45 335.8,-67.67 361.5,-55 389.37,-41.26 582.42,-23.32 679.3,-15.04"/>
<polygon fill="#63b8ff" stroke="#63b8ff" points="679.82,-18.51 689.49,-14.18 679.23,-11.54 679.82,-18.51"/>
</a>
</g>
</g>
<!-- Node18&#45;&gt;Node14 -->
<g id="edge27_Node000018_Node000014" class="edge">
<title>Node18&#45;&gt;Node14</title>
<g id="a_edge27_Node000018_Node000014"><a xlink:title=" ">
<path fill="none" stroke="#63b8ff" d="M277.65,-109.98C255.38,-101.3 220.6,-87.75 195.28,-77.88"/>
<polygon fill="#63b8ff" stroke="#63b8ff" points="196.34,-74.54 185.75,-74.17 193.79,-81.06 196.34,-74.54"/>
</a>
</g>
</g>
<!-- Node19 -->
<g id="Node000019" class="node">
<title>Node19</title>
<g id="a_Node000019"><a xlink:href="tmap_8h.html" target="_top" xlink:title=" ">
<polygon fill="white" stroke="#666666" points="271,-74 220,-74 220,-55 271,-55 271,-74"/>
<text text-anchor="middle" x="245.5" y="-62" font-family="Helvetica,sans-Serif" font-size="10.00">tmap.h</text>
</a>
</g>
</g>
<!-- Node18&#45;&gt;Node19 -->
<g id="edge28_Node000018_Node000019" class="edge">
<title>Node18&#45;&gt;Node19</title>
<g id="a_edge28_Node000018_Node000019"><a xlink:title=" ">
<path fill="none" stroke="#63b8ff" d="M290.58,-109.75C282.72,-102.03 271.07,-90.6 261.58,-81.28"/>
<polygon fill="#63b8ff" stroke="#63b8ff" points="263.84,-78.6 254.25,-74.09 258.94,-83.59 263.84,-78.6"/>
</a>
</g>
</g>
<!-- Node19&#45;&gt;Node4 -->
<g id="edge30_Node000019_Node000004" class="edge">
<title>Node19&#45;&gt;Node4</title>
<g id="a_edge30_Node000019_Node000004"><a xlink:title=" ">
<path fill="none" stroke="#63b8ff" d="M271.21,-56.79C306.13,-47.67 368.84,-31.3 409.55,-20.67"/>
<polygon fill="#63b8ff" stroke="#63b8ff" points="410.61,-24.01 419.4,-18.1 408.84,-17.24 410.61,-24.01"/>
</a>
</g>
</g>
<!-- Node19&#45;&gt;Node16 -->
<g id="edge31_Node000019_Node000016" class="edge">
<title>Node19&#45;&gt;Node16</title>
<g id="a_edge31_Node000019_Node000016"><a xlink:title=" ">
<path fill="none" stroke="#63b8ff" d="M232.33,-54.98C219.73,-46.84 200.5,-34.41 185.56,-24.76"/>
<polygon fill="#63b8ff" stroke="#63b8ff" points="187.21,-21.66 176.91,-19.17 183.41,-27.54 187.21,-21.66"/>
</a>
</g>
</g>
<!-- Node20 -->
<g id="Node000020" class="node">
<title>Node20</title>
<g id="a_Node000020"><a xlink:title=" ">
<polygon fill="#e0e0e0" stroke="#999999" points="401.5,-19 363.5,-19 363.5,0 401.5,0 401.5,-19"/>
<text text-anchor="middle" x="382.5" y="-7" font-family="Helvetica,sans-Serif" font-size="10.00">map</text>
</a>
</g>
</g>
<!-- Node19&#45;&gt;Node20 -->
<g id="edge29_Node000019_Node000020" class="edge">
<title>Node19&#45;&gt;Node20</title>
<g id="a_edge29_Node000019_Node000020"><a xlink:title=" ">
<path fill="none" stroke="#63b8ff" d="M267.51,-54.98C290.88,-45.94 327.92,-31.61 353.62,-21.67"/>
<polygon fill="#63b8ff" stroke="#63b8ff" points="355.14,-24.84 363.2,-17.97 352.61,-18.31 355.14,-24.84"/>
</a>
</g>
</g>
<!-- Node21 -->
<g id="Node000021" class="node">
<title>Node21</title>
<g id="a_Node000021"><a xlink:title=" ">
<polygon fill="#e0e0e0" stroke="#999999" points="268,-19 223,-19 223,0 268,0 268,-19"/>
<text text-anchor="middle" x="245.5" y="-7" font-family="Helvetica,sans-Serif" font-size="10.00">utility</text>
</a>
</g>
</g>
<!-- Node19&#45;&gt;Node21 -->
<g id="edge32_Node000019_Node000021" class="edge">
<title>Node19&#45;&gt;Node21</title>
<g id="a_edge32_Node000019_Node000021"><a xlink:title=" ">
<path fill="none" stroke="#63b8ff" d="M245.5,-54.75C245.5,-47.8 245.5,-37.85 245.5,-29.13"/>
<polygon fill="#63b8ff" stroke="#63b8ff" points="249,-29.09 245.5,-19.09 242,-29.09 249,-29.09"/>
</a>
</g>
</g>
<!-- Node22 -->
<g id="Node000022" class="node">
<title>Node22</title>
<g id="a_Node000022"><a xlink:title=" ">
<polygon fill="#e0e0e0" stroke="#999999" points="345,-19 286,-19 286,0 345,0 345,-19"/>
<text text-anchor="middle" x="315.5" y="-7" font-family="Helvetica,sans-Serif" font-size="10.00">tmap.tcc</text>
</a>
</g>
</g>
<!-- Node19&#45;&gt;Node22 -->
<g id="edge33_Node000019_Node000022" class="edge">
<title>Node19&#45;&gt;Node22</title>
<g id="a_edge33_Node000019_Node000022"><a xlink:title=" ">
<path fill="none" stroke="#63b8ff" d="M256.75,-54.98C267.3,-47 283.3,-34.88 295.94,-25.31"/>
<polygon fill="#63b8ff" stroke="#63b8ff" points="298.19,-28 304.05,-19.17 293.96,-22.42 298.19,-28"/>
</a>
</g>
</g>
<!-- Node23&#45;&gt;Node3 -->
<g id="edge36_Node000023_Node000003" class="edge">
<title>Node23&#45;&gt;Node3</title>
<g id="a_edge36_Node000023_Node000003"><a xlink:title=" ">
<path fill="none" stroke="#63b8ff" d="M457.26,-274.97C465.66,-249.38 492.23,-171.18 522.5,-110 527.11,-100.69 533.02,-90.76 538.14,-82.65"/>
<polygon fill="#63b8ff" stroke="#63b8ff" points="541.17,-84.41 543.66,-74.11 535.29,-80.61 541.17,-84.41"/>
</a>
</g>
</g>
<!-- Node23&#45;&gt;Node7 -->
<g id="edge41_Node000023_Node000007" class="edge">
<title>Node23&#45;&gt;Node7</title>
<g id="a_edge41_Node000023_Node000007"><a xlink:title=" ">
<path fill="none" stroke="#63b8ff" d="M488.92,-279.49C548.49,-271.04 672.28,-246.76 754.5,-184 780.76,-163.95 792.59,-159.81 804.5,-129 811.78,-110.17 801.08,-65.58 794.5,-55 786.48,-42.1 773.24,-31.69 761.23,-24.19"/>
<polygon fill="#63b8ff" stroke="#63b8ff" points="762.79,-21.05 752.39,-19.03 759.26,-27.09 762.79,-21.05"/>
</a>
</g>
</g>
<!-- Node23&#45;&gt;Node9 -->
<g id="edge40_Node000023_Node000009" class="edge">
<title>Node23&#45;&gt;Node9</title>
<g id="a_edge40_Node000023_Node000009"><a xlink:title=" ">
<path fill="none" stroke="#63b8ff" d="M488.53,-282.11C576.04,-278.2 807.05,-265.6 878.5,-239 918.59,-224.07 930.74,-217.38 957.5,-184 968.09,-170.78 974.94,-152.66 978.93,-139.16"/>
<polygon fill="#63b8ff" stroke="#63b8ff" points="982.42,-139.68 981.64,-129.11 975.66,-137.86 982.42,-139.68"/>
</a>
</g>
</g>
<!-- Node23&#45;&gt;Node11 -->
<g id="edge42_Node000023_Node000011" class="edge">
<title>Node23&#45;&gt;Node11</title>
<g id="a_edge42_Node000023_Node000011"><a xlink:title=" ">
<path fill="none" stroke="#63b8ff" d="M420.46,-277.82C396.11,-272.04 364.26,-260.71 344.5,-239 333.36,-226.77 328.74,-208.25 326.83,-194.36"/>
<polygon fill="#63b8ff" stroke="#63b8ff" points="330.27,-193.62 325.78,-184.03 323.31,-194.33 330.27,-193.62"/>
</a>
</g>
</g>
<!-- Node23&#45;&gt;Node12 -->
<g id="edge37_Node000023_Node000012" class="edge">
<title>Node23&#45;&gt;Node12</title>
<g id="a_edge37_Node000023_Node000012"><a xlink:title=" ">
<path fill="none" stroke="#63b8ff" d="M452.46,-274.74C446.5,-249.2 429.07,-174.43 420.87,-139.23"/>
<polygon fill="#63b8ff" stroke="#63b8ff" points="424.23,-138.25 418.55,-129.31 417.42,-139.84 424.23,-138.25"/>
</a>
</g>
</g>
<!-- Node23&#45;&gt;Node14 -->
<g id="edge38_Node000023_Node000014" class="edge">
<title>Node23&#45;&gt;Node14</title>
<g id="a_edge38_Node000023_Node000014"><a xlink:title=" ">
<path fill="none" stroke="#63b8ff" d="M420.41,-279.17C388.52,-273.84 340.66,-262.42 305.5,-239 242.4,-196.97 193.12,-118.46 173.15,-83.31"/>
<polygon fill="#63b8ff" stroke="#63b8ff" points="176.03,-81.29 168.11,-74.25 169.91,-84.69 176.03,-81.29"/>
</a>
</g>
</g>
<!-- Node23&#45;&gt;Node19 -->
<g id="edge39_Node000023_Node000019" class="edge">
<title>Node23&#45;&gt;Node19</title>
<g id="a_edge39_Node000023_Node000019"><a xlink:title=" ">
<path fill="none" stroke="#63b8ff" d="M420.25,-277.6C393.32,-271.58 356.05,-260.02 329.5,-239 283.88,-202.87 280.49,-182.87 258.5,-129 252.58,-114.5 249.25,-96.99 247.45,-84.03"/>
<polygon fill="#63b8ff" stroke="#63b8ff" points="250.91,-83.51 246.23,-74.01 243.97,-84.36 250.91,-83.51"/>
</a>
</g>
</g>
<!-- Node24 -->
<g id="Node000024" class="node">
<title>Node24</title>
<g id="a_Node000024"><a xlink:href="id3v2_8h.html" target="_top" xlink:title=" ">
<polygon fill="white" stroke="#666666" points="407,-239 354,-239 354,-220 407,-220 407,-239"/>
<text text-anchor="middle" x="380.5" y="-227" font-family="Helvetica,sans-Serif" font-size="10.00">id3v2.h</text>
</a>
</g>
</g>
<!-- Node23&#45;&gt;Node24 -->
<g id="edge43_Node000023_Node000024" class="edge">
<title>Node23&#45;&gt;Node24</title>
<g id="a_edge43_Node000023_Node000024"><a xlink:title=" ">
<path fill="none" stroke="#63b8ff" d="M442.61,-274.98C431.35,-266.92 414.21,-254.65 400.79,-245.03"/>
<polygon fill="#63b8ff" stroke="#63b8ff" points="402.77,-242.15 392.61,-239.17 398.7,-247.84 402.77,-242.15"/>
</a>
</g>
</g>
<!-- Node25 -->
<g id="Node000025" class="node">
<title>Node25</title>
<g id="a_Node000025"><a xlink:href="id3v2framefactory_8h.html" target="_top" xlink:title=" ">
<polygon fill="white" stroke="#666666" points="638,-239 523,-239 523,-220 638,-220 638,-239"/>
<text text-anchor="middle" x="580.5" y="-227" font-family="Helvetica,sans-Serif" font-size="10.00">id3v2framefactory.h</text>
</a>
</g>
</g>
<!-- Node23&#45;&gt;Node25 -->
<g id="edge44_Node000023_Node000025" class="edge">
<title>Node23&#45;&gt;Node25</title>
<g id="a_edge44_Node000023_Node000025"><a xlink:title=" ">
<path fill="none" stroke="#63b8ff" d="M474.74,-274.98C495.2,-266.38 527.03,-252.99 550.43,-243.15"/>
<polygon fill="#63b8ff" stroke="#63b8ff" points="552.03,-246.27 559.89,-239.17 549.31,-239.82 552.03,-246.27"/>
</a>
</g>
</g>
<!-- Node25&#45;&gt;Node3 -->
<g id="edge45_Node000025_Node000003" class="edge">
<title>Node25&#45;&gt;Node3</title>
<g id="a_edge45_Node000025_Node000003"><a xlink:title=" ">
<path fill="none" stroke="#63b8ff" d="M565.07,-219.8C553.15,-212.11 537.54,-199.69 530.5,-184 515.57,-150.72 529.95,-107.53 540.53,-83.55"/>
<polygon fill="#63b8ff" stroke="#63b8ff" points="543.81,-84.81 544.87,-74.27 537.47,-81.84 543.81,-84.81"/>
</a>
</g>
</g>
<!-- Node25&#45;&gt;Node7 -->
<g id="edge46_Node000025_Node000007" class="edge">
<title>Node25&#45;&gt;Node7</title>
<g id="a_edge46_Node000025_Node000007"><a xlink:title=" ">
<path fill="none" stroke="#63b8ff" d="M630.51,-219.94C679.8,-208.55 752.51,-183.16 786.5,-129 807.97,-94.78 773.63,-50.18 751.29,-26.65"/>
<polygon fill="#63b8ff" stroke="#63b8ff" points="753.51,-23.92 743.99,-19.26 748.53,-28.84 753.51,-23.92"/>
</a>
</g>
</g>
<!-- Node26 -->
<g id="Node000026" class="node">
<title>Node26</title>
<g id="a_Node000026"><a xlink:href="id3v2frame_8h.html" target="_top" xlink:title=" ">
<polygon fill="white" stroke="#666666" points="621.5,-184 539.5,-184 539.5,-165 621.5,-165 621.5,-184"/>
<text text-anchor="middle" x="580.5" y="-172" font-family="Helvetica,sans-Serif" font-size="10.00">id3v2frame.h</text>
</a>
</g>
</g>
<!-- Node25&#45;&gt;Node26 -->
<g id="edge47_Node000025_Node000026" class="edge">
<title>Node25&#45;&gt;Node26</title>
<g id="a_edge47_Node000025_Node000026"><a xlink:title=" ">
<path fill="none" stroke="#63b8ff" d="M580.5,-219.75C580.5,-212.8 580.5,-202.85 580.5,-194.13"/>
<polygon fill="#63b8ff" stroke="#63b8ff" points="584,-194.09 580.5,-184.09 577,-194.09 584,-194.09"/>
</a>
</g>
</g>
<!-- Node27 -->
<g id="Node000027" class="node">
<title>Node27</title>
<g id="a_Node000027"><a xlink:href="id3v2header_8h.html" target="_top" xlink:title=" ">
<polygon fill="white" stroke="#666666" points="777.5,-129 691.5,-129 691.5,-110 777.5,-110 777.5,-129"/>
<text text-anchor="middle" x="734.5" y="-117" font-family="Helvetica,sans-Serif" font-size="10.00">id3v2header.h</text>
</a>
</g>
</g>
<!-- Node25&#45;&gt;Node27 -->
<g id="edge51_Node000025_Node000027" class="edge">
<title>Node25&#45;&gt;Node27</title>
<g id="a_edge51_Node000025_Node000027"><a xlink:title=" ">
<path fill="none" stroke="#63b8ff" d="M592.84,-219.84C619.2,-201.36 681.23,-157.86 713.76,-135.05"/>
<polygon fill="#63b8ff" stroke="#63b8ff" points="715.92,-137.8 722.1,-129.2 711.9,-132.07 715.92,-137.8"/>
</a>
</g>
</g>
<!-- Node26&#45;&gt;Node3 -->
<g id="edge49_Node000026_Node000003" class="edge">
<title>Node26&#45;&gt;Node3</title>
<g id="a_edge49_Node000026_Node000003"><a xlink:title=" ">
<path fill="none" stroke="#63b8ff" d="M577.96,-164.66C572.92,-147.09 561.54,-107.45 554.8,-83.95"/>
<polygon fill="#63b8ff" stroke="#63b8ff" points="558.11,-82.8 551.99,-74.16 551.38,-84.74 558.11,-82.8"/>
</a>
</g>
</g>
<!-- Node26&#45;&gt;Node7 -->
<g id="edge50_Node000026_Node000007" class="edge">
<title>Node26&#45;&gt;Node7</title>
<g id="a_edge50_Node000026_Node000007"><a xlink:title=" ">
<path fill="none" stroke="#63b8ff" d="M588.78,-164.74C613.43,-138.65 686.63,-61.17 718.91,-27"/>
<polygon fill="#63b8ff" stroke="#63b8ff" points="721.86,-28.98 726.18,-19.31 716.77,-24.17 721.86,-28.98"/>
</a>
</g>
</g>
<!-- Node26&#45;&gt;Node12 -->
<g id="edge48_Node000026_Node000012" class="edge">
<title>Node26&#45;&gt;Node12</title>
<g id="a_edge48_Node000026_Node000012"><a xlink:title=" ">
<path fill="none" stroke="#63b8ff" d="M554.15,-164.98C526.74,-156.13 483.61,-142.19 452.94,-132.28"/>
<polygon fill="#63b8ff" stroke="#63b8ff" points="453.65,-128.83 443.06,-129.08 451.5,-135.49 453.65,-128.83"/>
</a>
</g>
</g>
<!-- Node27&#45;&gt;Node3 -->
<g id="edge52_Node000027_Node000003" class="edge">
<title>Node27&#45;&gt;Node3</title>
<g id="a_edge52_Node000027_Node000003"><a xlink:title=" ">
<path fill="none" stroke="#63b8ff" d="M704.78,-109.98C673.45,-101.01 623.93,-86.82 589.26,-76.89"/>
<polygon fill="#63b8ff" stroke="#63b8ff" points="590.03,-73.47 579.46,-74.08 588.11,-80.2 590.03,-73.47"/>
</a>
</g>
</g>
<!-- Node27&#45;&gt;Node7 -->
<g id="edge53_Node000027_Node000007" class="edge">
<title>Node27&#45;&gt;Node7</title>
<g id="a_edge53_Node000027_Node000007"><a xlink:title=" ">
<path fill="none" stroke="#63b8ff" d="M734.5,-109.66C734.5,-92.17 734.5,-52.8 734.5,-29.27"/>
<polygon fill="#63b8ff" stroke="#63b8ff" points="738,-29.16 734.5,-19.16 731,-29.16 738,-29.16"/>
</a>
</g>
</g>
<!-- Node29 -->
<g id="Node000029" class="node">
<title>Node29</title>
<g id="a_Node000029"><a xlink:href="audioproperties_8h.html" target="_top" xlink:title=" ">
<polygon fill="white" stroke="#666666" points="1125.5,-184 1023.5,-184 1023.5,-165 1125.5,-165 1125.5,-184"/>
<text text-anchor="middle" x="1074.5" y="-172" font-family="Helvetica,sans-Serif" font-size="10.00">audioproperties.h</text>
</a>
</g>
</g>
<!-- Node28&#45;&gt;Node29 -->
<g id="edge55_Node000028_Node000029" class="edge">
<title>Node28&#45;&gt;Node29</title>
<g id="a_edge55_Node000028_Node000029"><a xlink:title=" ">
<path fill="none" stroke="#63b8ff" d="M942.79,-274.93C961.28,-266.99 988.34,-254.14 1009.5,-239 1028.84,-225.17 1047.94,-205.61 1060.37,-191.87"/>
<polygon fill="#63b8ff" stroke="#63b8ff" points="1063.19,-193.97 1067.2,-184.16 1057.95,-189.33 1063.19,-193.97"/>
</a>
</g>
</g>
<!-- Node29&#45;&gt;Node4 -->
<g id="edge56_Node000029_Node000004" class="edge">
<title>Node29&#45;&gt;Node4</title>
<g id="a_edge56_Node000029_Node000004"><a xlink:title=" ">
<path fill="none" stroke="#63b8ff" d="M1074.11,-164.78C1072.6,-142.24 1065.14,-81.91 1028.5,-55 981.85,-20.74 581.16,-27 488.08,-18.69"/>
<polygon fill="#63b8ff" stroke="#63b8ff" points="488.21,-15.18 477.88,-17.54 487.42,-22.14 488.21,-15.18"/>
</a>
</g>
</g>
<!-- Node29&#45;&gt;Node7 -->
<g id="edge58_Node000029_Node000007" class="edge">
<title>Node29&#45;&gt;Node7</title>
<g id="a_edge58_Node000029_Node000007"><a xlink:title=" ">
<path fill="none" stroke="#63b8ff" d="M1076.68,-164.88C1081.63,-143.1 1091.11,-85.39 1061.5,-55 1024.84,-17.38 872.95,-10.82 789.7,-10.13"/>
<polygon fill="#63b8ff" stroke="#63b8ff" points="789.67,-6.63 779.65,-10.07 789.63,-13.63 789.67,-6.63"/>
</a>
</g>
</g>
<!-- Node29&#45;&gt;Node9 -->
<g id="edge57_Node000029_Node000009" class="edge">
<title>Node29&#45;&gt;Node9</title>
<g id="a_edge57_Node000029_Node000009"><a xlink:title=" ">
<path fill="none" stroke="#63b8ff" d="M1059.88,-164.98C1045.64,-156.69 1023.75,-143.94 1007.05,-134.22"/>
<polygon fill="#63b8ff" stroke="#63b8ff" points="1008.79,-131.18 998.39,-129.17 1005.27,-137.23 1008.79,-131.18"/>
</a>
</g>
</g>
<!-- Node30&#45;&gt;Node11 -->
<g id="edge60_Node000030_Node000011" class="edge">
<title>Node30&#45;&gt;Node11</title>
<g id="a_edge60_Node000030_Node000011"><a xlink:title=" ">
<path fill="none" stroke="#63b8ff" d="M327.66,-274.76C322.25,-266.1 314.6,-252.26 311.5,-239 307.93,-223.71 312.37,-206.3 317.17,-193.58"/>
<polygon fill="#63b8ff" stroke="#63b8ff" points="320.48,-194.72 321.12,-184.14 314.03,-192.01 320.48,-194.72"/>
</a>
</g>
</g>
</g>
</svg>
