<?xml version="1.0" encoding="UTF-8" standalone="no"?>
<!DOCTYPE svg PUBLIC "-//W3C//DTD SVG 1.1//EN"
 "http://www.w3.org/Graphics/SVG/1.1/DTD/svg11.dtd">
<!-- Generated by graphviz version 2.42.4 (0)
 -->
<!-- Title: dsffile.h Pages: 1 -->
<svg width="1193pt" height="412pt"
 viewBox="0.00 0.00 1192.88 412.00" xmlns="http://www.w3.org/2000/svg" xmlns:xlink="http://www.w3.org/1999/xlink">
<g id="graph0" class="graph" transform="scale(1 1) rotate(0) translate(4 408)">
<title>dsffile.h</title>
<!-- Node1 -->
<g id="Node000001" class="node">
<title>Node1</title>
<g id="a_Node000001"><a xlink:title=" ">
<polygon fill="#999999" stroke="#666666" points="394,-404 338,-404 338,-385 394,-385 394,-404"/>
<text text-anchor="middle" x="366" y="-392" font-family="Helvetica,sans-Serif" font-size="10.00">dsffile.h</text>
</a>
</g>
</g>
<!-- Node2 -->
<g id="Node000002" class="node">
<title>Node2</title>
<g id="a_Node000002"><a xlink:title=" ">
<polygon fill="#e0e0e0" stroke="#999999" points="211,-74 153,-74 153,-55 211,-55 211,-74"/>
<text text-anchor="middle" x="182" y="-62" font-family="Helvetica,sans-Serif" font-size="10.00">memory</text>
</a>
</g>
</g>
<!-- Node1&#45;&gt;Node2 -->
<g id="edge1_Node000001_Node000002" class="edge">
<title>Node1&#45;&gt;Node2</title>
<g id="a_edge1_Node000001_Node000002"><a xlink:title=" ">
<path fill="none" stroke="#63b8ff" d="M350.05,-384.83C323.24,-368.96 272,-332.48 272,-285.5 272,-285.5 272,-285.5 272,-173.5 272,-144.04 270.85,-133.44 253,-110 242.69,-96.46 226.97,-86 212.94,-78.63"/>
<polygon fill="#63b8ff" stroke="#63b8ff" points="214.11,-75.31 203.59,-74.03 211.02,-81.59 214.11,-75.31"/>
</a>
</g>
</g>
<!-- Node3 -->
<g id="Node000003" class="node">
<title>Node3</title>
<g id="a_Node000003"><a xlink:href="taglib__export_8h.html" target="_top" xlink:title=" ">
<polygon fill="white" stroke="#666666" points="751,-74 661,-74 661,-55 751,-55 751,-74"/>
<text text-anchor="middle" x="706" y="-62" font-family="Helvetica,sans-Serif" font-size="10.00">taglib_export.h</text>
</a>
</g>
</g>
<!-- Node1&#45;&gt;Node3 -->
<g id="edge2_Node000001_Node000003" class="edge">
<title>Node1&#45;&gt;Node3</title>
<g id="a_edge2_Node000001_Node000003"><a xlink:title=" ">
<path fill="none" stroke="#63b8ff" d="M366,-384.82C366,-366.48 366,-322.44 366,-285.5 366,-285.5 366,-285.5 366,-228.5 366,-141.79 442.71,-147.28 521,-110 562.17,-90.4 612.72,-79 650.57,-72.65"/>
<polygon fill="#63b8ff" stroke="#63b8ff" points="651.57,-76.04 660.89,-70.99 650.46,-69.13 651.57,-76.04"/>
</a>
</g>
</g>
<!-- Node4 -->
<g id="Node000004" class="node">
<title>Node4</title>
<g id="a_Node000004"><a xlink:href="tfile_8h.html" target="_top" xlink:title=" ">
<polygon fill="white" stroke="#666666" points="528,-294 484,-294 484,-275 528,-275 528,-294"/>
<text text-anchor="middle" x="506" y="-282" font-family="Helvetica,sans-Serif" font-size="10.00">tfile.h</text>
</a>
</g>
</g>
<!-- Node1&#45;&gt;Node4 -->
<g id="edge3_Node000001_Node000004" class="edge">
<title>Node1&#45;&gt;Node4</title>
<g id="a_edge3_Node000001_Node000004"><a xlink:title=" ">
<path fill="none" stroke="#63b8ff" d="M377.46,-384.66C401.47,-366.14 457.29,-323.08 486.85,-300.28"/>
<polygon fill="#63b8ff" stroke="#63b8ff" points="489,-303.04 494.78,-294.16 484.72,-297.5 489,-303.04"/>
</a>
</g>
</g>
<!-- Node24 -->
<g id="Node000024" class="node">
<title>Node24</title>
<g id="a_Node000024"><a xlink:href="dsfproperties_8h.html" target="_top" xlink:title=" ">
<polygon fill="white" stroke="#666666" points="244,-184 154,-184 154,-165 244,-165 244,-184"/>
<text text-anchor="middle" x="199" y="-172" font-family="Helvetica,sans-Serif" font-size="10.00">dsfproperties.h</text>
</a>
</g>
</g>
<!-- Node1&#45;&gt;Node24 -->
<g id="edge37_Node000001_Node000024" class="edge">
<title>Node1&#45;&gt;Node24</title>
<g id="a_edge37_Node000001_Node000024"><a xlink:title=" ">
<path fill="none" stroke="#63b8ff" d="M337.93,-388.67C313.67,-383.1 279.24,-371.62 258,-349 216.33,-304.61 203.99,-229.64 200.41,-194.61"/>
<polygon fill="#63b8ff" stroke="#63b8ff" points="203.88,-194.01 199.51,-184.36 196.9,-194.63 203.88,-194.01"/>
</a>
</g>
</g>
<!-- Node26 -->
<g id="Node000026" class="node">
<title>Node26</title>
<g id="a_Node000026"><a xlink:href="id3v2tag_8h.html" target="_top" xlink:title=" ">
<polygon fill="white" stroke="#666666" points="693,-349 625,-349 625,-330 693,-330 693,-349"/>
<text text-anchor="middle" x="659" y="-337" font-family="Helvetica,sans-Serif" font-size="10.00">id3v2tag.h</text>
</a>
</g>
</g>
<!-- Node1&#45;&gt;Node26 -->
<g id="edge45_Node000001_Node000026" class="edge">
<title>Node1&#45;&gt;Node26</title>
<g id="a_edge45_Node000001_Node000026"><a xlink:title=" ">
<path fill="none" stroke="#63b8ff" d="M394.09,-388.42C445.14,-379.18 553.47,-359.59 614.61,-348.53"/>
<polygon fill="#63b8ff" stroke="#63b8ff" points="615.51,-351.92 624.72,-346.7 614.26,-345.04 615.51,-351.92"/>
</a>
</g>
</g>
<!-- Node4&#45;&gt;Node3 -->
<g id="edge14_Node000004_Node000003" class="edge">
<title>Node4&#45;&gt;Node3</title>
<g id="a_edge14_Node000004_Node000003"><a xlink:title=" ">
<path fill="none" stroke="#63b8ff" d="M502.93,-274.72C496.36,-254.43 482.81,-203.13 499,-165 523.89,-106.39 598.29,-82.18 650.74,-72.26"/>
<polygon fill="#63b8ff" stroke="#63b8ff" points="651.35,-75.71 660.58,-70.52 650.13,-68.82 651.35,-75.71"/>
</a>
</g>
</g>
<!-- Node5 -->
<g id="Node000005" class="node">
<title>Node5</title>
<g id="a_Node000005"><a xlink:href="tbytevector_8h.html" target="_top" xlink:title=" ">
<polygon fill="white" stroke="#666666" points="991.5,-129 910.5,-129 910.5,-110 991.5,-110 991.5,-129"/>
<text text-anchor="middle" x="951" y="-117" font-family="Helvetica,sans-Serif" font-size="10.00">tbytevector.h</text>
</a>
</g>
</g>
<!-- Node4&#45;&gt;Node5 -->
<g id="edge4_Node000004_Node000005" class="edge">
<title>Node4&#45;&gt;Node5</title>
<g id="a_edge4_Node000004_Node000005"><a xlink:title=" ">
<path fill="none" stroke="#63b8ff" d="M528.2,-278C558.67,-270.26 615.03,-255.27 662,-239 759.52,-205.22 871.76,-156.17 922.94,-133.23"/>
<polygon fill="#63b8ff" stroke="#63b8ff" points="924.66,-136.3 932.34,-129 921.79,-129.91 924.66,-136.3"/>
</a>
</g>
</g>
<!-- Node8 -->
<g id="Node000008" class="node">
<title>Node8</title>
<g id="a_Node000008"><a xlink:href="tiostream_8h.html" target="_top" xlink:title=" ">
<polygon fill="white" stroke="#666666" points="581.5,-184 508.5,-184 508.5,-165 581.5,-165 581.5,-184"/>
<text text-anchor="middle" x="545" y="-172" font-family="Helvetica,sans-Serif" font-size="10.00">tiostream.h</text>
</a>
</g>
</g>
<!-- Node4&#45;&gt;Node8 -->
<g id="edge9_Node000004_Node000008" class="edge">
<title>Node4&#45;&gt;Node8</title>
<g id="a_edge9_Node000004_Node000008"><a xlink:title=" ">
<path fill="none" stroke="#63b8ff" d="M509.19,-274.66C515.57,-257.01 529.98,-217.09 538.45,-193.64"/>
<polygon fill="#63b8ff" stroke="#63b8ff" points="541.77,-194.75 541.87,-184.16 535.18,-192.38 541.77,-194.75"/>
</a>
</g>
</g>
<!-- Node9 -->
<g id="Node000009" class="node">
<title>Node9</title>
<g id="a_Node000009"><a xlink:href="taglib_8h.html" target="_top" xlink:title=" ">
<polygon fill="white" stroke="#666666" points="83.5,-74 30.5,-74 30.5,-55 83.5,-55 83.5,-74"/>
<text text-anchor="middle" x="57" y="-62" font-family="Helvetica,sans-Serif" font-size="10.00">taglib.h</text>
</a>
</g>
</g>
<!-- Node4&#45;&gt;Node9 -->
<g id="edge15_Node000004_Node000009" class="edge">
<title>Node4&#45;&gt;Node9</title>
<g id="a_edge15_Node000004_Node000009"><a xlink:title=" ">
<path fill="none" stroke="#63b8ff" d="M483.83,-281.96C424.36,-276.92 258.18,-256.8 145,-184 105.81,-158.79 77.89,-109.6 65.01,-83.22"/>
<polygon fill="#63b8ff" stroke="#63b8ff" points="68.11,-81.58 60.68,-74.03 61.77,-84.57 68.11,-81.58"/>
</a>
</g>
</g>
<!-- Node11 -->
<g id="Node000011" class="node">
<title>Node11</title>
<g id="a_Node000011"><a xlink:href="tag_8h.html" target="_top" xlink:title=" ">
<polygon fill="white" stroke="#666666" points="652.5,-239 611.5,-239 611.5,-220 652.5,-220 652.5,-239"/>
<text text-anchor="middle" x="632" y="-227" font-family="Helvetica,sans-Serif" font-size="10.00">tag.h</text>
</a>
</g>
</g>
<!-- Node4&#45;&gt;Node11 -->
<g id="edge16_Node000004_Node000011" class="edge">
<title>Node4&#45;&gt;Node11</title>
<g id="a_edge16_Node000004_Node000011"><a xlink:title=" ">
<path fill="none" stroke="#63b8ff" d="M526.24,-274.98C546.7,-266.38 578.53,-252.99 601.93,-243.15"/>
<polygon fill="#63b8ff" stroke="#63b8ff" points="603.53,-246.27 611.39,-239.17 600.81,-239.82 603.53,-246.27"/>
</a>
</g>
</g>
<!-- Node5&#45;&gt;Node2 -->
<g id="edge5_Node000005_Node000002" class="edge">
<title>Node5&#45;&gt;Node2</title>
<g id="a_edge5_Node000005_Node000002"><a xlink:title=" ">
<path fill="none" stroke="#63b8ff" d="M910.03,-116.39C771.39,-109.19 323.3,-85.5 221.56,-73.85"/>
<polygon fill="#63b8ff" stroke="#63b8ff" points="221.73,-70.34 211.37,-72.56 220.85,-77.29 221.73,-70.34"/>
</a>
</g>
</g>
<!-- Node5&#45;&gt;Node3 -->
<g id="edge8_Node000005_Node000003" class="edge">
<title>Node5&#45;&gt;Node3</title>
<g id="a_edge8_Node000005_Node000003"><a xlink:title=" ">
<path fill="none" stroke="#63b8ff" d="M911.64,-109.98C869.26,-100.82 801.74,-86.21 755.72,-76.26"/>
<polygon fill="#63b8ff" stroke="#63b8ff" points="756.19,-72.78 745.67,-74.08 754.71,-79.62 756.19,-72.78"/>
</a>
</g>
</g>
<!-- Node6 -->
<g id="Node000006" class="node">
<title>Node6</title>
<g id="a_Node000006"><a xlink:title=" ">
<polygon fill="#e0e0e0" stroke="#999999" points="1007.5,-74 960.5,-74 960.5,-55 1007.5,-55 1007.5,-74"/>
<text text-anchor="middle" x="984" y="-62" font-family="Helvetica,sans-Serif" font-size="10.00">vector</text>
</a>
</g>
</g>
<!-- Node5&#45;&gt;Node6 -->
<g id="edge6_Node000005_Node000006" class="edge">
<title>Node5&#45;&gt;Node6</title>
<g id="a_edge6_Node000005_Node000006"><a xlink:title=" ">
<path fill="none" stroke="#63b8ff" d="M956.45,-109.75C961.01,-102.42 967.67,-91.73 973.29,-82.7"/>
<polygon fill="#63b8ff" stroke="#63b8ff" points="976.34,-84.43 978.65,-74.09 970.4,-80.73 976.34,-84.43"/>
</a>
</g>
</g>
<!-- Node7 -->
<g id="Node000007" class="node">
<title>Node7</title>
<g id="a_Node000007"><a xlink:title=" ">
<polygon fill="#e0e0e0" stroke="#999999" points="942,-74 894,-74 894,-55 942,-55 942,-74"/>
<text text-anchor="middle" x="918" y="-62" font-family="Helvetica,sans-Serif" font-size="10.00">iosfwd</text>
</a>
</g>
</g>
<!-- Node5&#45;&gt;Node7 -->
<g id="edge7_Node000005_Node000007" class="edge">
<title>Node5&#45;&gt;Node7</title>
<g id="a_edge7_Node000005_Node000007"><a xlink:title=" ">
<path fill="none" stroke="#63b8ff" d="M945.55,-109.75C940.99,-102.42 934.33,-91.73 928.71,-82.7"/>
<polygon fill="#63b8ff" stroke="#63b8ff" points="931.6,-80.73 923.35,-74.09 925.66,-84.43 931.6,-80.73"/>
</a>
</g>
</g>
<!-- Node8&#45;&gt;Node3 -->
<g id="edge11_Node000008_Node000003" class="edge">
<title>Node8&#45;&gt;Node3</title>
<g id="a_edge11_Node000008_Node000003"><a xlink:title=" ">
<path fill="none" stroke="#63b8ff" d="M546.81,-164.8C550.09,-151.21 558.26,-124.94 575,-110 596.04,-91.23 625.34,-80.31 650.9,-74"/>
<polygon fill="#63b8ff" stroke="#63b8ff" points="651.88,-77.36 660.85,-71.72 650.32,-70.54 651.88,-77.36"/>
</a>
</g>
</g>
<!-- Node8&#45;&gt;Node5 -->
<g id="edge10_Node000008_Node000005" class="edge">
<title>Node8&#45;&gt;Node5</title>
<g id="a_edge10_Node000008_Node000005"><a xlink:title=" ">
<path fill="none" stroke="#63b8ff" d="M581.62,-166.53C584.79,-165.99 587.95,-165.47 591,-165 700.82,-148.08 830.27,-133.35 900.12,-125.82"/>
<polygon fill="#63b8ff" stroke="#63b8ff" points="900.83,-129.26 910.4,-124.72 900.08,-122.3 900.83,-129.26"/>
</a>
</g>
</g>
<!-- Node8&#45;&gt;Node9 -->
<g id="edge12_Node000008_Node000009" class="edge">
<title>Node8&#45;&gt;Node9</title>
<g id="a_edge12_Node000008_Node000009"><a xlink:title=" ">
<path fill="none" stroke="#63b8ff" d="M508.3,-172.25C420.43,-168.83 200.29,-157.59 133,-129 108.17,-118.45 85.22,-96.97 71.18,-81.93"/>
<polygon fill="#63b8ff" stroke="#63b8ff" points="73.63,-79.42 64.34,-74.34 68.44,-84.11 73.63,-79.42"/>
</a>
</g>
</g>
<!-- Node10 -->
<g id="Node000010" class="node">
<title>Node10</title>
<g id="a_Node000010"><a xlink:title=" ">
<polygon fill="#e0e0e0" stroke="#999999" points="93,-19 21,-19 21,0 93,0 93,-19"/>
<text text-anchor="middle" x="57" y="-7" font-family="Helvetica,sans-Serif" font-size="10.00">sys/types.h</text>
</a>
</g>
</g>
<!-- Node9&#45;&gt;Node10 -->
<g id="edge13_Node000009_Node000010" class="edge">
<title>Node9&#45;&gt;Node10</title>
<g id="a_edge13_Node000009_Node000010"><a xlink:title=" ">
<path fill="none" stroke="#63b8ff" d="M57,-54.75C57,-47.8 57,-37.85 57,-29.13"/>
<polygon fill="#63b8ff" stroke="#63b8ff" points="60.5,-29.09 57,-19.09 53.5,-29.09 60.5,-29.09"/>
</a>
</g>
</g>
<!-- Node11&#45;&gt;Node3 -->
<g id="edge17_Node000011_Node000003" class="edge">
<title>Node11&#45;&gt;Node3</title>
<g id="a_edge17_Node000011_Node000003"><a xlink:title=" ">
<path fill="none" stroke="#63b8ff" d="M642.23,-219.99C651.55,-211.71 665.03,-198.32 673,-184 691.12,-151.46 699.86,-108.27 703.6,-84.03"/>
<polygon fill="#63b8ff" stroke="#63b8ff" points="707.08,-84.46 705.02,-74.06 700.14,-83.47 707.08,-84.46"/>
</a>
</g>
</g>
<!-- Node12 -->
<g id="Node000012" class="node">
<title>Node12</title>
<g id="a_Node000012"><a xlink:href="tstring_8h.html" target="_top" xlink:title=" ">
<polygon fill="white" stroke="#666666" points="777.5,-184 720.5,-184 720.5,-165 777.5,-165 777.5,-184"/>
<text text-anchor="middle" x="749" y="-172" font-family="Helvetica,sans-Serif" font-size="10.00">tstring.h</text>
</a>
</g>
</g>
<!-- Node11&#45;&gt;Node12 -->
<g id="edge18_Node000011_Node000012" class="edge">
<title>Node11&#45;&gt;Node12</title>
<g id="a_edge18_Node000011_Node000012"><a xlink:title=" ">
<path fill="none" stroke="#63b8ff" d="M650.8,-219.98C669.62,-211.46 698.82,-198.23 720.5,-188.41"/>
<polygon fill="#63b8ff" stroke="#63b8ff" points="722.2,-191.48 729.86,-184.17 719.31,-185.11 722.2,-191.48"/>
</a>
</g>
</g>
<!-- Node14 -->
<g id="Node000014" class="node">
<title>Node14</title>
<g id="a_Node000014"><a xlink:href="tlist_8h.html" target="_top" xlink:title=" ">
<polygon fill="white" stroke="#666666" points="414,-129 370,-129 370,-110 414,-110 414,-129"/>
<text text-anchor="middle" x="392" y="-117" font-family="Helvetica,sans-Serif" font-size="10.00">tlist.h</text>
</a>
</g>
</g>
<!-- Node11&#45;&gt;Node14 -->
<g id="edge22_Node000011_Node000014" class="edge">
<title>Node11&#45;&gt;Node14</title>
<g id="a_edge22_Node000011_Node000014"><a xlink:title=" ">
<path fill="none" stroke="#63b8ff" d="M611.2,-223.03C584.57,-215.69 537.3,-201.53 499,-184 467.69,-169.67 433.88,-148.56 412.83,-134.68"/>
<polygon fill="#63b8ff" stroke="#63b8ff" points="414.63,-131.67 404.37,-129.03 410.75,-137.49 414.63,-131.67"/>
</a>
</g>
</g>
<!-- Node18 -->
<g id="Node000018" class="node">
<title>Node18</title>
<g id="a_Node000018"><a xlink:href="tvariant_8h.html" target="_top" xlink:title=" ">
<polygon fill="white" stroke="#666666" points="664,-184 600,-184 600,-165 664,-165 664,-184"/>
<text text-anchor="middle" x="632" y="-172" font-family="Helvetica,sans-Serif" font-size="10.00">tvariant.h</text>
</a>
</g>
</g>
<!-- Node11&#45;&gt;Node18 -->
<g id="edge27_Node000011_Node000018" class="edge">
<title>Node11&#45;&gt;Node18</title>
<g id="a_edge27_Node000011_Node000018"><a xlink:title=" ">
<path fill="none" stroke="#63b8ff" d="M632,-219.75C632,-212.8 632,-202.85 632,-194.13"/>
<polygon fill="#63b8ff" stroke="#63b8ff" points="635.5,-194.09 632,-184.09 628.5,-194.09 635.5,-194.09"/>
</a>
</g>
</g>
<!-- Node12&#45;&gt;Node3 -->
<g id="edge21_Node000012_Node000003" class="edge">
<title>Node12&#45;&gt;Node3</title>
<g id="a_edge21_Node000012_Node000003"><a xlink:title=" ">
<path fill="none" stroke="#63b8ff" d="M760.68,-164.89C775.72,-152.69 798.64,-129.68 787,-110 778.14,-95.02 762.24,-84.74 746.86,-77.88"/>
<polygon fill="#63b8ff" stroke="#63b8ff" points="748,-74.56 737.42,-74.03 745.36,-81.04 748,-74.56"/>
</a>
</g>
</g>
<!-- Node12&#45;&gt;Node5 -->
<g id="edge20_Node000012_Node000005" class="edge">
<title>Node12&#45;&gt;Node5</title>
<g id="a_edge20_Node000012_Node000005"><a xlink:title=" ">
<path fill="none" stroke="#63b8ff" d="M777.51,-166.02C811.63,-157.07 869.06,-142 908.44,-131.67"/>
<polygon fill="#63b8ff" stroke="#63b8ff" points="909.5,-135.01 918.28,-129.08 907.72,-128.24 909.5,-135.01"/>
</a>
</g>
</g>
<!-- Node13 -->
<g id="Node000013" class="node">
<title>Node13</title>
<g id="a_Node000013"><a xlink:title=" ">
<polygon fill="#e0e0e0" stroke="#999999" points="778,-129 734,-129 734,-110 778,-110 778,-129"/>
<text text-anchor="middle" x="756" y="-117" font-family="Helvetica,sans-Serif" font-size="10.00">string</text>
</a>
</g>
</g>
<!-- Node12&#45;&gt;Node13 -->
<g id="edge19_Node000012_Node000013" class="edge">
<title>Node12&#45;&gt;Node13</title>
<g id="a_edge19_Node000012_Node000013"><a xlink:title=" ">
<path fill="none" stroke="#63b8ff" d="M750.16,-164.75C751.07,-157.8 752.39,-147.85 753.54,-139.13"/>
<polygon fill="#63b8ff" stroke="#63b8ff" points="757.03,-139.46 754.87,-129.09 750.09,-138.54 757.03,-139.46"/>
</a>
</g>
</g>
<!-- Node14&#45;&gt;Node2 -->
<g id="edge25_Node000014_Node000002" class="edge">
<title>Node14&#45;&gt;Node2</title>
<g id="a_edge25_Node000014_Node000002"><a xlink:title=" ">
<path fill="none" stroke="#63b8ff" d="M369.98,-112.6C366.64,-111.72 363.23,-110.83 360,-110 312.27,-97.7 257.22,-84.01 221.12,-75.11"/>
<polygon fill="#63b8ff" stroke="#63b8ff" points="221.56,-71.61 211.01,-72.62 219.89,-78.41 221.56,-71.61"/>
</a>
</g>
</g>
<!-- Node15 -->
<g id="Node000015" class="node">
<title>Node15</title>
<g id="a_Node000015"><a xlink:title=" ">
<polygon fill="#e0e0e0" stroke="#999999" points="631,-74 599,-74 599,-55 631,-55 631,-74"/>
<text text-anchor="middle" x="615" y="-62" font-family="Helvetica,sans-Serif" font-size="10.00">list</text>
</a>
</g>
</g>
<!-- Node14&#45;&gt;Node15 -->
<g id="edge23_Node000014_Node000015" class="edge">
<title>Node14&#45;&gt;Node15</title>
<g id="a_edge23_Node000014_Node000015"><a xlink:title=" ">
<path fill="none" stroke="#63b8ff" d="M414.07,-113.24C418.67,-112.16 423.49,-111.03 428,-110 496.8,-94.23 517.24,-93.9 588.96,-74.04"/>
<polygon fill="#63b8ff" stroke="#63b8ff" points="590.26,-77.32 598.94,-71.25 588.37,-70.57 590.26,-77.32"/>
</a>
</g>
</g>
<!-- Node16 -->
<g id="Node000016" class="node">
<title>Node16</title>
<g id="a_Node000016"><a xlink:title=" ">
<polygon fill="#e0e0e0" stroke="#999999" points="509.5,-74 426.5,-74 426.5,-55 509.5,-55 509.5,-74"/>
<text text-anchor="middle" x="468" y="-62" font-family="Helvetica,sans-Serif" font-size="10.00">initializer_list</text>
</a>
</g>
</g>
<!-- Node14&#45;&gt;Node16 -->
<g id="edge24_Node000014_Node000016" class="edge">
<title>Node14&#45;&gt;Node16</title>
<g id="a_edge24_Node000014_Node000016"><a xlink:title=" ">
<path fill="none" stroke="#63b8ff" d="M404.21,-109.98C415.78,-101.92 433.38,-89.65 447.16,-80.03"/>
<polygon fill="#63b8ff" stroke="#63b8ff" points="449.37,-82.76 455.57,-74.17 445.36,-77.02 449.37,-82.76"/>
</a>
</g>
</g>
<!-- Node17 -->
<g id="Node000017" class="node">
<title>Node17</title>
<g id="a_Node000017"><a xlink:title=" ">
<polygon fill="#e0e0e0" stroke="#999999" points="580.5,-74 527.5,-74 527.5,-55 580.5,-55 580.5,-74"/>
<text text-anchor="middle" x="554" y="-62" font-family="Helvetica,sans-Serif" font-size="10.00">tlist.tcc</text>
</a>
</g>
</g>
<!-- Node14&#45;&gt;Node17 -->
<g id="edge26_Node000014_Node000017" class="edge">
<title>Node14&#45;&gt;Node17</title>
<g id="a_edge26_Node000014_Node000017"><a xlink:title=" ">
<path fill="none" stroke="#63b8ff" d="M414.19,-111.24C440.93,-102.49 486.23,-87.67 518,-77.28"/>
<polygon fill="#63b8ff" stroke="#63b8ff" points="519.38,-80.51 527.8,-74.07 517.2,-73.86 519.38,-80.51"/>
</a>
</g>
</g>
<!-- Node18&#45;&gt;Node3 -->
<g id="edge36_Node000018_Node000003" class="edge">
<title>Node18&#45;&gt;Node3</title>
<g id="a_edge36_Node000018_Node000003"><a xlink:title=" ">
<path fill="none" stroke="#63b8ff" d="M638.06,-164.66C650.31,-146.77 678.25,-106 694.22,-82.69"/>
<polygon fill="#63b8ff" stroke="#63b8ff" points="697.3,-84.39 700.07,-74.16 691.53,-80.43 697.3,-84.39"/>
</a>
</g>
</g>
<!-- Node18&#45;&gt;Node14 -->
<g id="edge29_Node000018_Node000014" class="edge">
<title>Node18&#45;&gt;Node14</title>
<g id="a_edge29_Node000018_Node000014"><a xlink:title=" ">
<path fill="none" stroke="#63b8ff" d="M599.63,-166.35C553.69,-156.21 470.08,-137.74 424.22,-127.62"/>
<polygon fill="#63b8ff" stroke="#63b8ff" points="424.75,-124.15 414.23,-125.41 423.24,-130.98 424.75,-124.15"/>
</a>
</g>
</g>
<!-- Node19 -->
<g id="Node000019" class="node">
<title>Node19</title>
<g id="a_Node000019"><a xlink:title=" ">
<polygon fill="#e0e0e0" stroke="#999999" points="640,-129 584,-129 584,-110 640,-110 640,-129"/>
<text text-anchor="middle" x="612" y="-117" font-family="Helvetica,sans-Serif" font-size="10.00">sstream</text>
</a>
</g>
</g>
<!-- Node18&#45;&gt;Node19 -->
<g id="edge28_Node000018_Node000019" class="edge">
<title>Node18&#45;&gt;Node19</title>
<g id="a_edge28_Node000018_Node000019"><a xlink:title=" ">
<path fill="none" stroke="#63b8ff" d="M628.7,-164.75C626.02,-157.65 622.15,-147.4 618.81,-138.56"/>
<polygon fill="#63b8ff" stroke="#63b8ff" points="622.05,-137.21 615.24,-129.09 615.5,-139.68 622.05,-137.21"/>
</a>
</g>
</g>
<!-- Node20 -->
<g id="Node000020" class="node">
<title>Node20</title>
<g id="a_Node000020"><a xlink:href="tmap_8h.html" target="_top" xlink:title=" ">
<polygon fill="white" stroke="#666666" points="351.5,-129 300.5,-129 300.5,-110 351.5,-110 351.5,-129"/>
<text text-anchor="middle" x="326" y="-117" font-family="Helvetica,sans-Serif" font-size="10.00">tmap.h</text>
</a>
</g>
</g>
<!-- Node18&#45;&gt;Node20 -->
<g id="edge30_Node000018_Node000020" class="edge">
<title>Node18&#45;&gt;Node20</title>
<g id="a_edge30_Node000018_Node000020"><a xlink:title=" ">
<path fill="none" stroke="#63b8ff" d="M599.8,-166.67C596.83,-166.09 593.86,-165.52 591,-165 492.28,-147.05 464.16,-149.08 361.41,-128.92"/>
<polygon fill="#63b8ff" stroke="#63b8ff" points="362.05,-125.48 351.56,-126.97 360.69,-132.35 362.05,-125.48"/>
</a>
</g>
</g>
<!-- Node20&#45;&gt;Node2 -->
<g id="edge32_Node000020_Node000002" class="edge">
<title>Node20&#45;&gt;Node2</title>
<g id="a_edge32_Node000020_Node000002"><a xlink:title=" ">
<path fill="none" stroke="#63b8ff" d="M302.86,-109.98C279.18,-101.27 242.13,-87.63 215.29,-77.75"/>
<polygon fill="#63b8ff" stroke="#63b8ff" points="216.15,-74.34 205.56,-74.17 213.73,-80.91 216.15,-74.34"/>
</a>
</g>
</g>
<!-- Node20&#45;&gt;Node16 -->
<g id="edge33_Node000020_Node000016" class="edge">
<title>Node20&#45;&gt;Node16</title>
<g id="a_edge33_Node000020_Node000016"><a xlink:title=" ">
<path fill="none" stroke="#63b8ff" d="M348.81,-109.98C372.17,-101.27 408.7,-87.63 435.17,-77.75"/>
<polygon fill="#63b8ff" stroke="#63b8ff" points="436.63,-80.95 444.77,-74.17 434.18,-74.39 436.63,-80.95"/>
</a>
</g>
</g>
<!-- Node21 -->
<g id="Node000021" class="node">
<title>Node21</title>
<g id="a_Node000021"><a xlink:title=" ">
<polygon fill="#e0e0e0" stroke="#999999" points="345,-74 307,-74 307,-55 345,-55 345,-74"/>
<text text-anchor="middle" x="326" y="-62" font-family="Helvetica,sans-Serif" font-size="10.00">map</text>
</a>
</g>
</g>
<!-- Node20&#45;&gt;Node21 -->
<g id="edge31_Node000020_Node000021" class="edge">
<title>Node20&#45;&gt;Node21</title>
<g id="a_edge31_Node000020_Node000021"><a xlink:title=" ">
<path fill="none" stroke="#63b8ff" d="M326,-109.75C326,-102.8 326,-92.85 326,-84.13"/>
<polygon fill="#63b8ff" stroke="#63b8ff" points="329.5,-84.09 326,-74.09 322.5,-84.09 329.5,-84.09"/>
</a>
</g>
</g>
<!-- Node22 -->
<g id="Node000022" class="node">
<title>Node22</title>
<g id="a_Node000022"><a xlink:title=" ">
<polygon fill="#e0e0e0" stroke="#999999" points="408.5,-74 363.5,-74 363.5,-55 408.5,-55 408.5,-74"/>
<text text-anchor="middle" x="386" y="-62" font-family="Helvetica,sans-Serif" font-size="10.00">utility</text>
</a>
</g>
</g>
<!-- Node20&#45;&gt;Node22 -->
<g id="edge34_Node000020_Node000022" class="edge">
<title>Node20&#45;&gt;Node22</title>
<g id="a_edge34_Node000020_Node000022"><a xlink:title=" ">
<path fill="none" stroke="#63b8ff" d="M335.64,-109.98C344.51,-102.15 357.87,-90.34 368.61,-80.86"/>
<polygon fill="#63b8ff" stroke="#63b8ff" points="371.01,-83.41 376.18,-74.17 366.37,-78.17 371.01,-83.41"/>
</a>
</g>
</g>
<!-- Node23 -->
<g id="Node000023" class="node">
<title>Node23</title>
<g id="a_Node000023"><a xlink:title=" ">
<polygon fill="#e0e0e0" stroke="#999999" points="288.5,-74 229.5,-74 229.5,-55 288.5,-55 288.5,-74"/>
<text text-anchor="middle" x="259" y="-62" font-family="Helvetica,sans-Serif" font-size="10.00">tmap.tcc</text>
</a>
</g>
</g>
<!-- Node20&#45;&gt;Node23 -->
<g id="edge35_Node000020_Node000023" class="edge">
<title>Node20&#45;&gt;Node23</title>
<g id="a_edge35_Node000020_Node000023"><a xlink:title=" ">
<path fill="none" stroke="#63b8ff" d="M315.24,-109.98C305.23,-102.07 290.11,-90.11 278.07,-80.58"/>
<polygon fill="#63b8ff" stroke="#63b8ff" points="279.97,-77.63 269.96,-74.17 275.63,-83.12 279.97,-77.63"/>
</a>
</g>
</g>
<!-- Node24&#45;&gt;Node2 -->
<g id="edge38_Node000024_Node000002" class="edge">
<title>Node24&#45;&gt;Node2</title>
<g id="a_edge38_Node000024_Node000002"><a xlink:title=" ">
<path fill="none" stroke="#63b8ff" d="M176.22,-164.89C160.97,-157.79 142.08,-146.08 133,-129 123.26,-110.68 141.46,-92.17 158.38,-79.9"/>
<polygon fill="#63b8ff" stroke="#63b8ff" points="160.64,-82.6 166.95,-74.09 156.71,-76.8 160.64,-82.6"/>
</a>
</g>
</g>
<!-- Node24&#45;&gt;Node3 -->
<g id="edge39_Node000024_Node000003" class="edge">
<title>Node24&#45;&gt;Node3</title>
<g id="a_edge39_Node000024_Node000003"><a xlink:title=" ">
<path fill="none" stroke="#63b8ff" d="M244.36,-167.48C290.13,-160.72 362.51,-148.12 423,-129 442.92,-122.7 446.04,-116.17 466,-110 499.68,-99.59 590.95,-83.92 650.73,-74.22"/>
<polygon fill="#63b8ff" stroke="#63b8ff" points="651.46,-77.64 660.77,-72.6 650.34,-70.73 651.46,-77.64"/>
</a>
</g>
</g>
<!-- Node24&#45;&gt;Node5 -->
<g id="edge40_Node000024_Node000005" class="edge">
<title>Node24&#45;&gt;Node5</title>
<g id="a_edge40_Node000024_Node000005"><a xlink:title=" ">
<path fill="none" stroke="#63b8ff" d="M244.07,-170.32C375.94,-161.03 760.48,-133.93 899.82,-124.11"/>
<polygon fill="#63b8ff" stroke="#63b8ff" points="900.48,-127.57 910.21,-123.38 899.98,-120.59 900.48,-127.57"/>
</a>
</g>
</g>
<!-- Node25 -->
<g id="Node000025" class="node">
<title>Node25</title>
<g id="a_Node000025"><a xlink:href="audioproperties_8h.html" target="_top" xlink:title=" ">
<polygon fill="white" stroke="#666666" points="244,-129 142,-129 142,-110 244,-110 244,-129"/>
<text text-anchor="middle" x="193" y="-117" font-family="Helvetica,sans-Serif" font-size="10.00">audioproperties.h</text>
</a>
</g>
</g>
<!-- Node24&#45;&gt;Node25 -->
<g id="edge41_Node000024_Node000025" class="edge">
<title>Node24&#45;&gt;Node25</title>
<g id="a_edge41_Node000024_Node000025"><a xlink:title=" ">
<path fill="none" stroke="#63b8ff" d="M198.01,-164.75C197.22,-157.8 196.1,-147.85 195.11,-139.13"/>
<polygon fill="#63b8ff" stroke="#63b8ff" points="198.58,-138.63 193.97,-129.09 191.62,-139.42 198.58,-138.63"/>
</a>
</g>
</g>
<!-- Node25&#45;&gt;Node2 -->
<g id="edge42_Node000025_Node000002" class="edge">
<title>Node25&#45;&gt;Node2</title>
<g id="a_edge42_Node000025_Node000002"><a xlink:title=" ">
<path fill="none" stroke="#63b8ff" d="M191.18,-109.75C189.74,-102.8 187.68,-92.85 185.87,-84.13"/>
<polygon fill="#63b8ff" stroke="#63b8ff" points="189.24,-83.17 183.78,-74.09 182.39,-84.59 189.24,-83.17"/>
</a>
</g>
</g>
<!-- Node25&#45;&gt;Node3 -->
<g id="edge44_Node000025_Node000003" class="edge">
<title>Node25&#45;&gt;Node3</title>
<g id="a_edge44_Node000025_Node000003"><a xlink:title=" ">
<path fill="none" stroke="#63b8ff" d="M244.34,-113.87C327.51,-106.27 496.85,-90.34 640,-74 643.49,-73.6 647.09,-73.18 650.71,-72.74"/>
<polygon fill="#63b8ff" stroke="#63b8ff" points="651.44,-76.18 660.93,-71.48 650.58,-69.23 651.44,-76.18"/>
</a>
</g>
</g>
<!-- Node25&#45;&gt;Node9 -->
<g id="edge43_Node000025_Node000009" class="edge">
<title>Node25&#45;&gt;Node9</title>
<g id="a_edge43_Node000025_Node000009"><a xlink:title=" ">
<path fill="none" stroke="#63b8ff" d="M171.15,-109.98C148.88,-101.3 114.1,-87.75 88.78,-77.88"/>
<polygon fill="#63b8ff" stroke="#63b8ff" points="89.84,-74.54 79.25,-74.17 87.29,-81.06 89.84,-74.54"/>
</a>
</g>
</g>
<!-- Node26&#45;&gt;Node3 -->
<g id="edge51_Node000026_Node000003" class="edge">
<title>Node26&#45;&gt;Node3</title>
<g id="a_edge51_Node000026_Node000003"><a xlink:title=" ">
<path fill="none" stroke="#63b8ff" d="M693.36,-334.14C746.86,-325.2 844,-299.49 844,-230.5 844,-230.5 844,-230.5 844,-173.5 844,-122.94 785.85,-92.51 745.05,-77.39"/>
<polygon fill="#63b8ff" stroke="#63b8ff" points="746.2,-74.08 735.6,-74.04 743.86,-80.68 746.2,-74.08"/>
</a>
</g>
</g>
<!-- Node26&#45;&gt;Node5 -->
<g id="edge46_Node000026_Node000005" class="edge">
<title>Node26&#45;&gt;Node5</title>
<g id="a_edge46_Node000026_Node000005"><a xlink:title=" ">
<path fill="none" stroke="#63b8ff" d="M693.22,-336.79C778.77,-332.18 996.66,-318.15 1018,-294 1056.47,-250.47 1028.21,-213.99 997,-165 989.96,-153.95 979.65,-143.64 970.57,-135.73"/>
<polygon fill="#63b8ff" stroke="#63b8ff" points="972.63,-132.9 962.71,-129.19 968.16,-138.28 972.63,-132.9"/>
</a>
</g>
</g>
<!-- Node26&#45;&gt;Node9 -->
<g id="edge50_Node000026_Node000009" class="edge">
<title>Node26&#45;&gt;Node9</title>
<g id="a_edge50_Node000026_Node000009"><a xlink:title=" ">
<path fill="none" stroke="#63b8ff" d="M624.96,-336.56C490.01,-328.43 0,-294.48 0,-230.5 0,-230.5 0,-230.5 0,-173.5 0,-137.51 25.06,-101.76 41.95,-81.76"/>
<polygon fill="#63b8ff" stroke="#63b8ff" points="44.62,-84.02 48.59,-74.2 39.36,-79.4 44.62,-84.02"/>
</a>
</g>
</g>
<!-- Node26&#45;&gt;Node11 -->
<g id="edge52_Node000026_Node000011" class="edge">
<title>Node26&#45;&gt;Node11</title>
<g id="a_edge52_Node000026_Node000011"><a xlink:title=" ">
<path fill="none" stroke="#63b8ff" d="M656.79,-329.66C652.4,-312.09 642.49,-272.45 636.61,-248.95"/>
<polygon fill="#63b8ff" stroke="#63b8ff" points="639.99,-248.01 634.16,-239.16 633.19,-249.71 639.99,-248.01"/>
</a>
</g>
</g>
<!-- Node26&#45;&gt;Node12 -->
<g id="edge47_Node000026_Node000012" class="edge">
<title>Node26&#45;&gt;Node12</title>
<g id="a_edge47_Node000026_Node000012"><a xlink:title=" ">
<path fill="none" stroke="#63b8ff" d="M678.51,-329.86C693.01,-322.42 712.09,-310.31 723,-294 743.52,-263.32 748.13,-219.11 749,-194.28"/>
<polygon fill="#63b8ff" stroke="#63b8ff" points="752.5,-194.12 749.18,-184.06 745.5,-194 752.5,-194.12"/>
</a>
</g>
</g>
<!-- Node26&#45;&gt;Node14 -->
<g id="edge48_Node000026_Node000014" class="edge">
<title>Node26&#45;&gt;Node14</title>
<g id="a_edge48_Node000026_Node000014"><a xlink:title=" ">
<path fill="none" stroke="#63b8ff" d="M625,-338.7C584.91,-337.21 518.28,-329.07 475,-294 424.9,-253.41 403.16,-175.34 395.5,-139.42"/>
<polygon fill="#63b8ff" stroke="#63b8ff" points="398.87,-138.47 393.49,-129.35 392.01,-139.84 398.87,-138.47"/>
</a>
</g>
</g>
<!-- Node26&#45;&gt;Node20 -->
<g id="edge49_Node000026_Node000020" class="edge">
<title>Node26&#45;&gt;Node20</title>
<g id="a_edge49_Node000026_Node000020"><a xlink:title=" ">
<path fill="none" stroke="#63b8ff" d="M624.65,-337.38C581.82,-334.62 507.6,-325.29 453,-294 395.41,-261 387.58,-240.03 352,-184 343.02,-169.86 336.06,-152.09 331.61,-138.95"/>
<polygon fill="#63b8ff" stroke="#63b8ff" points="334.86,-137.63 328.48,-129.18 328.2,-139.77 334.86,-137.63"/>
</a>
</g>
</g>
<!-- Node27 -->
<g id="Node000027" class="node">
<title>Node27</title>
<g id="a_Node000027"><a xlink:href="id3v2_8h.html" target="_top" xlink:title=" ">
<polygon fill="white" stroke="#666666" points="713.5,-294 660.5,-294 660.5,-275 713.5,-275 713.5,-294"/>
<text text-anchor="middle" x="687" y="-282" font-family="Helvetica,sans-Serif" font-size="10.00">id3v2.h</text>
</a>
</g>
</g>
<!-- Node26&#45;&gt;Node27 -->
<g id="edge53_Node000026_Node000027" class="edge">
<title>Node26&#45;&gt;Node27</title>
<g id="a_edge53_Node000026_Node000027"><a xlink:title=" ">
<path fill="none" stroke="#63b8ff" d="M663.62,-329.75C667.46,-322.49 673.02,-311.95 677.76,-302.98"/>
<polygon fill="#63b8ff" stroke="#63b8ff" points="680.89,-304.57 682.46,-294.09 674.7,-301.3 680.89,-304.57"/>
</a>
</g>
</g>
<!-- Node28 -->
<g id="Node000028" class="node">
<title>Node28</title>
<g id="a_Node000028"><a xlink:href="id3v2framefactory_8h.html" target="_top" xlink:title=" ">
<polygon fill="white" stroke="#666666" points="1008.5,-294 893.5,-294 893.5,-275 1008.5,-275 1008.5,-294"/>
<text text-anchor="middle" x="951" y="-282" font-family="Helvetica,sans-Serif" font-size="10.00">id3v2framefactory.h</text>
</a>
</g>
</g>
<!-- Node26&#45;&gt;Node28 -->
<g id="edge54_Node000026_Node000028" class="edge">
<title>Node26&#45;&gt;Node28</title>
<g id="a_edge54_Node000026_Node000028"><a xlink:title=" ">
<path fill="none" stroke="#63b8ff" d="M693.07,-332.32C742.42,-323.36 834.4,-306.66 894.14,-295.82"/>
<polygon fill="#63b8ff" stroke="#63b8ff" points="894.95,-299.23 904.17,-294 893.7,-292.34 894.95,-299.23"/>
</a>
</g>
</g>
<!-- Node28&#45;&gt;Node3 -->
<g id="edge56_Node000028_Node000003" class="edge">
<title>Node28&#45;&gt;Node3</title>
<g id="a_edge56_Node000028_Node000003"><a xlink:title=" ">
<path fill="none" stroke="#63b8ff" d="M937.76,-274.74C926.52,-266.67 910.72,-253.75 901,-239 867.75,-188.54 901.52,-151.94 858,-110 832.18,-85.12 793.23,-74.04 761.23,-69.16"/>
<polygon fill="#63b8ff" stroke="#63b8ff" points="761.49,-65.66 751.1,-67.78 760.54,-72.6 761.49,-65.66"/>
</a>
</g>
</g>
<!-- Node28&#45;&gt;Node5 -->
<g id="edge55_Node000028_Node000005" class="edge">
<title>Node28&#45;&gt;Node5</title>
<g id="a_edge55_Node000028_Node000005"><a xlink:title=" ">
<path fill="none" stroke="#63b8ff" d="M966.43,-274.8C978.35,-267.11 993.96,-254.69 1001,-239 1004.46,-231.3 1002.95,-228.22 1001,-220 993.64,-188.94 974.97,-156.56 962.65,-137.48"/>
<polygon fill="#63b8ff" stroke="#63b8ff" points="965.48,-135.41 957.03,-129.02 959.65,-139.28 965.48,-135.41"/>
</a>
</g>
</g>
<!-- Node29 -->
<g id="Node000029" class="node">
<title>Node29</title>
<g id="a_Node000029"><a xlink:href="id3v2frame_8h.html" target="_top" xlink:title=" ">
<polygon fill="white" stroke="#666666" points="992,-239 910,-239 910,-220 992,-220 992,-239"/>
<text text-anchor="middle" x="951" y="-227" font-family="Helvetica,sans-Serif" font-size="10.00">id3v2frame.h</text>
</a>
</g>
</g>
<!-- Node28&#45;&gt;Node29 -->
<g id="edge57_Node000028_Node000029" class="edge">
<title>Node28&#45;&gt;Node29</title>
<g id="a_edge57_Node000028_Node000029"><a xlink:title=" ">
<path fill="none" stroke="#63b8ff" d="M951,-274.75C951,-267.8 951,-257.85 951,-249.13"/>
<polygon fill="#63b8ff" stroke="#63b8ff" points="954.5,-249.09 951,-239.09 947.5,-249.09 954.5,-249.09"/>
</a>
</g>
</g>
<!-- Node30 -->
<g id="Node000030" class="node">
<title>Node30</title>
<g id="a_Node000030"><a xlink:href="id3v2header_8h.html" target="_top" xlink:title=" ">
<polygon fill="white" stroke="#666666" points="1172,-184 1086,-184 1086,-165 1172,-165 1172,-184"/>
<text text-anchor="middle" x="1129" y="-172" font-family="Helvetica,sans-Serif" font-size="10.00">id3v2header.h</text>
</a>
</g>
</g>
<!-- Node28&#45;&gt;Node30 -->
<g id="edge61_Node000028_Node000030" class="edge">
<title>Node28&#45;&gt;Node30</title>
<g id="a_edge61_Node000028_Node000030"><a xlink:title=" ">
<path fill="none" stroke="#63b8ff" d="M968.12,-274.94C985.09,-266.31 1011.71,-252.38 1034,-239 1060.43,-223.13 1089.78,-203.13 1108.76,-189.86"/>
<polygon fill="#63b8ff" stroke="#63b8ff" points="1110.78,-192.72 1116.95,-184.11 1106.75,-186.99 1110.78,-192.72"/>
</a>
</g>
</g>
<!-- Node29&#45;&gt;Node3 -->
<g id="edge60_Node000029_Node000003" class="edge">
<title>Node29&#45;&gt;Node3</title>
<g id="a_edge60_Node000029_Node000003"><a xlink:title=" ">
<path fill="none" stroke="#63b8ff" d="M992.13,-226.62C1051.72,-222.94 1157.51,-212.47 1181,-184 1186.37,-177.49 1185.78,-171.96 1181,-165 1133.83,-96.32 876.03,-74.37 761.21,-67.94"/>
<polygon fill="#63b8ff" stroke="#63b8ff" points="761.39,-64.45 751.21,-67.4 761.01,-71.44 761.39,-64.45"/>
</a>
</g>
</g>
<!-- Node29&#45;&gt;Node5 -->
<g id="edge59_Node000029_Node000005" class="edge">
<title>Node29&#45;&gt;Node5</title>
<g id="a_edge59_Node000029_Node000005"><a xlink:title=" ">
<path fill="none" stroke="#63b8ff" d="M951,-219.66C951,-202.17 951,-162.8 951,-139.27"/>
<polygon fill="#63b8ff" stroke="#63b8ff" points="954.5,-139.16 951,-129.16 947.5,-139.16 954.5,-139.16"/>
</a>
</g>
</g>
<!-- Node29&#45;&gt;Node12 -->
<g id="edge58_Node000029_Node000012" class="edge">
<title>Node29&#45;&gt;Node12</title>
<g id="a_edge58_Node000029_Node000012"><a xlink:title=" ">
<path fill="none" stroke="#63b8ff" d="M918.55,-219.98C882.82,-210.61 825.42,-195.55 787.46,-185.59"/>
<polygon fill="#63b8ff" stroke="#63b8ff" points="788.34,-182.2 777.78,-183.05 786.56,-188.97 788.34,-182.2"/>
</a>
</g>
</g>
<!-- Node30&#45;&gt;Node3 -->
<g id="edge63_Node000030_Node000003" class="edge">
<title>Node30&#45;&gt;Node3</title>
<g id="a_edge63_Node000030_Node000003"><a xlink:title=" ">
<path fill="none" stroke="#63b8ff" d="M1115.39,-164.96C1092.64,-151.1 1045.01,-123.86 1001,-110 919.86,-84.44 821.4,-73.36 761.25,-68.7"/>
<polygon fill="#63b8ff" stroke="#63b8ff" points="761.44,-65.21 751.21,-67.96 760.92,-72.19 761.44,-65.21"/>
</a>
</g>
</g>
<!-- Node30&#45;&gt;Node5 -->
<g id="edge62_Node000030_Node000005" class="edge">
<title>Node30&#45;&gt;Node5</title>
<g id="a_edge62_Node000030_Node000005"><a xlink:title=" ">
<path fill="none" stroke="#63b8ff" d="M1100.4,-164.98C1070.39,-156.05 1023.02,-141.94 989.68,-132.02"/>
<polygon fill="#63b8ff" stroke="#63b8ff" points="990.41,-128.58 979.82,-129.08 988.41,-135.29 990.41,-128.58"/>
</a>
</g>
</g>
</g>
</svg>
