<?xml version="1.0" encoding="UTF-8" standalone="no"?>
<!DOCTYPE svg PUBLIC "-//W3C//DTD SVG 1.1//EN"
 "http://www.w3.org/Graphics/SVG/1.1/DTD/svg11.dtd">
<!-- Generated by graphviz version 2.42.4 (0)
 -->
<!-- Title: dsffile.h Pages: 1 -->
<svg width="1293pt" height="412pt"
 viewBox="0.00 0.00 1292.50 412.00" xmlns="http://www.w3.org/2000/svg" xmlns:xlink="http://www.w3.org/1999/xlink">
<g id="graph0" class="graph" transform="scale(1 1) rotate(0) translate(4 408)">
<title>dsffile.h</title>
<!-- Node1 -->
<g id="Node000001" class="node">
<title>Node1</title>
<g id="a_Node000001"><a xlink:title=" ">
<polygon fill="#999999" stroke="#666666" points="639.5,-404 583.5,-404 583.5,-385 639.5,-385 639.5,-404"/>
<text text-anchor="middle" x="611.5" y="-392" font-family="Helvetica,sans-Serif" font-size="10.00">dsffile.h</text>
</a>
</g>
</g>
<!-- Node2 -->
<g id="Node000002" class="node">
<title>Node2</title>
<g id="a_Node000002"><a xlink:title=" ">
<polygon fill="#e0e0e0" stroke="#999999" points="478.5,-74 420.5,-74 420.5,-55 478.5,-55 478.5,-74"/>
<text text-anchor="middle" x="449.5" y="-62" font-family="Helvetica,sans-Serif" font-size="10.00">memory</text>
</a>
</g>
</g>
<!-- Node1&#45;&gt;Node2 -->
<g id="edge1_Node000001_Node000002" class="edge">
<title>Node1&#45;&gt;Node2</title>
<g id="a_edge1_Node000001_Node000002"><a xlink:title=" ">
<path fill="none" stroke="#63b8ff" d="M583.08,-393.95C517.18,-393.36 359.5,-381.89 359.5,-285.5 359.5,-285.5 359.5,-285.5 359.5,-173.5 359.5,-131.84 399.52,-97.72 426.18,-79.6"/>
<polygon fill="#63b8ff" stroke="#63b8ff" points="428.18,-82.48 434.64,-74.09 424.35,-76.62 428.18,-82.48"/>
</a>
</g>
</g>
<!-- Node3 -->
<g id="Node000003" class="node">
<title>Node3</title>
<g id="a_Node000003"><a xlink:href="taglib__export_8h.html" target="_top" xlink:title=" ">
<polygon fill="white" stroke="#666666" points="1066.5,-74 976.5,-74 976.5,-55 1066.5,-55 1066.5,-74"/>
<text text-anchor="middle" x="1021.5" y="-62" font-family="Helvetica,sans-Serif" font-size="10.00">taglib_export.h</text>
</a>
</g>
</g>
<!-- Node1&#45;&gt;Node3 -->
<g id="edge2_Node000001_Node000003" class="edge">
<title>Node1&#45;&gt;Node3</title>
<g id="a_edge2_Node000001_Node000003"><a xlink:title=" ">
<path fill="none" stroke="#63b8ff" d="M639.56,-392.01C766.93,-384.9 1284.5,-351.92 1284.5,-285.5 1284.5,-285.5 1284.5,-285.5 1284.5,-173.5 1284.5,-84.46 1153.9,-67.28 1076.76,-64.9"/>
<polygon fill="#63b8ff" stroke="#63b8ff" points="1076.79,-61.4 1066.71,-64.66 1076.63,-68.39 1076.79,-61.4"/>
</a>
</g>
</g>
<!-- Node4 -->
<g id="Node000004" class="node">
<title>Node4</title>
<g id="a_Node000004"><a xlink:href="tfile_8h.html" target="_top" xlink:title=" ">
<polygon fill="white" stroke="#666666" points="755.5,-294 711.5,-294 711.5,-275 755.5,-275 755.5,-294"/>
<text text-anchor="middle" x="733.5" y="-282" font-family="Helvetica,sans-Serif" font-size="10.00">tfile.h</text>
</a>
</g>
</g>
<!-- Node1&#45;&gt;Node4 -->
<g id="edge3_Node000001_Node000004" class="edge">
<title>Node1&#45;&gt;Node4</title>
<g id="a_edge3_Node000001_Node000004"><a xlink:title=" ">
<path fill="none" stroke="#63b8ff" d="M621.48,-384.66C642.23,-366.3 690.22,-323.81 716.14,-300.87"/>
<polygon fill="#63b8ff" stroke="#63b8ff" points="718.55,-303.41 723.72,-294.16 713.91,-298.17 718.55,-303.41"/>
</a>
</g>
</g>
<!-- Node23 -->
<g id="Node000023" class="node">
<title>Node23</title>
<g id="a_Node000023"><a xlink:href="dsfproperties_8h.html" target="_top" xlink:title=" ">
<polygon fill="white" stroke="#666666" points="559.5,-184 469.5,-184 469.5,-165 559.5,-165 559.5,-184"/>
<text text-anchor="middle" x="514.5" y="-172" font-family="Helvetica,sans-Serif" font-size="10.00">dsfproperties.h</text>
</a>
</g>
</g>
<!-- Node1&#45;&gt;Node23 -->
<g id="edge37_Node000001_Node000023" class="edge">
<title>Node1&#45;&gt;Node23</title>
<g id="a_edge37_Node000001_Node000023"><a xlink:title=" ">
<path fill="none" stroke="#63b8ff" d="M599.29,-384.77C578.73,-369.24 537.87,-334.62 521.5,-294 508.19,-260.98 509.66,-218.57 512.02,-194.47"/>
<polygon fill="#63b8ff" stroke="#63b8ff" points="515.53,-194.57 513.19,-184.24 508.57,-193.78 515.53,-194.57"/>
</a>
</g>
</g>
<!-- Node25 -->
<g id="Node000025" class="node">
<title>Node25</title>
<g id="a_Node000025"><a xlink:href="id3v2tag_8h.html" target="_top" xlink:title=" ">
<polygon fill="white" stroke="#666666" points="645.5,-349 577.5,-349 577.5,-330 645.5,-330 645.5,-349"/>
<text text-anchor="middle" x="611.5" y="-337" font-family="Helvetica,sans-Serif" font-size="10.00">id3v2tag.h</text>
</a>
</g>
</g>
<!-- Node1&#45;&gt;Node25 -->
<g id="edge45_Node000001_Node000025" class="edge">
<title>Node1&#45;&gt;Node25</title>
<g id="a_edge45_Node000001_Node000025"><a xlink:title=" ">
<path fill="none" stroke="#63b8ff" d="M611.5,-384.75C611.5,-377.8 611.5,-367.85 611.5,-359.13"/>
<polygon fill="#63b8ff" stroke="#63b8ff" points="615,-359.09 611.5,-349.09 608,-359.09 615,-359.09"/>
</a>
</g>
</g>
<!-- Node4&#45;&gt;Node3 -->
<g id="edge14_Node000004_Node000003" class="edge">
<title>Node4&#45;&gt;Node3</title>
<g id="a_edge14_Node000004_Node000003"><a xlink:title=" ">
<path fill="none" stroke="#63b8ff" d="M755.51,-281.9C834.83,-275.64 1103.83,-249.76 1151.5,-184 1184.28,-138.78 1103.86,-97.69 1055.26,-77.91"/>
<polygon fill="#63b8ff" stroke="#63b8ff" points="1056.31,-74.55 1045.72,-74.13 1053.73,-81.06 1056.31,-74.55"/>
</a>
</g>
</g>
<!-- Node5 -->
<g id="Node000005" class="node">
<title>Node5</title>
<g id="a_Node000005"><a xlink:href="tbytevector_8h.html" target="_top" xlink:title=" ">
<polygon fill="white" stroke="#666666" points="817,-129 736,-129 736,-110 817,-110 817,-129"/>
<text text-anchor="middle" x="776.5" y="-117" font-family="Helvetica,sans-Serif" font-size="10.00">tbytevector.h</text>
</a>
</g>
</g>
<!-- Node4&#45;&gt;Node5 -->
<g id="edge4_Node000004_Node000005" class="edge">
<title>Node4&#45;&gt;Node5</title>
<g id="a_edge4_Node000004_Node000005"><a xlink:title=" ">
<path fill="none" stroke="#63b8ff" d="M731.35,-274.75C726.84,-254.53 718,-203.34 733.5,-165 738.19,-153.41 747.5,-143.16 756.26,-135.43"/>
<polygon fill="#63b8ff" stroke="#63b8ff" points="758.5,-138.12 764.01,-129.07 754.06,-132.71 758.5,-138.12"/>
</a>
</g>
</g>
<!-- Node8 -->
<g id="Node000008" class="node">
<title>Node8</title>
<g id="a_Node000008"><a xlink:href="tiostream_8h.html" target="_top" xlink:title=" ">
<polygon fill="white" stroke="#666666" points="887,-184 814,-184 814,-165 887,-165 887,-184"/>
<text text-anchor="middle" x="850.5" y="-172" font-family="Helvetica,sans-Serif" font-size="10.00">tiostream.h</text>
</a>
</g>
</g>
<!-- Node4&#45;&gt;Node8 -->
<g id="edge9_Node000004_Node000008" class="edge">
<title>Node4&#45;&gt;Node8</title>
<g id="a_edge9_Node000004_Node000008"><a xlink:title=" ">
<path fill="none" stroke="#63b8ff" d="M736.99,-274.74C742.61,-261.53 754.75,-236.32 771.5,-220 785.23,-206.63 803.76,-195.91 819.43,-188.35"/>
<polygon fill="#63b8ff" stroke="#63b8ff" points="821.13,-191.42 828.75,-184.05 818.2,-185.06 821.13,-191.42"/>
</a>
</g>
</g>
<!-- Node9 -->
<g id="Node000009" class="node">
<title>Node9</title>
<g id="a_Node000009"><a xlink:href="taglib_8h.html" target="_top" xlink:title=" ">
<polygon fill="white" stroke="#666666" points="643,-74 590,-74 590,-55 643,-55 643,-74"/>
<text text-anchor="middle" x="616.5" y="-62" font-family="Helvetica,sans-Serif" font-size="10.00">taglib.h</text>
</a>
</g>
</g>
<!-- Node4&#45;&gt;Node9 -->
<g id="edge15_Node000004_Node000009" class="edge">
<title>Node4&#45;&gt;Node9</title>
<g id="a_edge15_Node000004_Node000009"><a xlink:title=" ">
<path fill="none" stroke="#63b8ff" d="M728.91,-274.95C711.59,-242.67 649.91,-127.75 626.03,-83.26"/>
<polygon fill="#63b8ff" stroke="#63b8ff" points="628.99,-81.38 621.18,-74.22 622.83,-84.69 628.99,-81.38"/>
</a>
</g>
</g>
<!-- Node11 -->
<g id="Node000011" class="node">
<title>Node11</title>
<g id="a_Node000011"><a xlink:href="tag_8h.html" target="_top" xlink:title=" ">
<polygon fill="white" stroke="#666666" points="643,-239 602,-239 602,-220 643,-220 643,-239"/>
<text text-anchor="middle" x="622.5" y="-227" font-family="Helvetica,sans-Serif" font-size="10.00">tag.h</text>
</a>
</g>
</g>
<!-- Node4&#45;&gt;Node11 -->
<g id="edge16_Node000004_Node000011" class="edge">
<title>Node4&#45;&gt;Node11</title>
<g id="a_edge16_Node000004_Node000011"><a xlink:title=" ">
<path fill="none" stroke="#63b8ff" d="M715.67,-274.98C697.89,-266.5 670.35,-253.35 649.82,-243.54"/>
<polygon fill="#63b8ff" stroke="#63b8ff" points="651.19,-240.32 640.66,-239.17 648.17,-246.64 651.19,-240.32"/>
</a>
</g>
</g>
<!-- Node5&#45;&gt;Node2 -->
<g id="edge5_Node000005_Node000002" class="edge">
<title>Node5&#45;&gt;Node2</title>
<g id="a_edge5_Node000005_Node000002"><a xlink:title=" ">
<path fill="none" stroke="#63b8ff" d="M735.75,-111.89C672.47,-101.64 551.37,-82.01 488.92,-71.89"/>
<polygon fill="#63b8ff" stroke="#63b8ff" points="489.12,-68.38 478.69,-70.23 488,-75.29 489.12,-68.38"/>
</a>
</g>
</g>
<!-- Node5&#45;&gt;Node3 -->
<g id="edge8_Node000005_Node000003" class="edge">
<title>Node5&#45;&gt;Node3</title>
<g id="a_edge8_Node000005_Node000003"><a xlink:title=" ">
<path fill="none" stroke="#63b8ff" d="M815.86,-109.98C858.24,-100.82 925.76,-86.21 971.78,-76.26"/>
<polygon fill="#63b8ff" stroke="#63b8ff" points="972.79,-79.62 981.83,-74.08 971.31,-72.78 972.79,-79.62"/>
</a>
</g>
</g>
<!-- Node6 -->
<g id="Node000006" class="node">
<title>Node6</title>
<g id="a_Node000006"><a xlink:title=" ">
<polygon fill="#e0e0e0" stroke="#999999" points="800,-74 753,-74 753,-55 800,-55 800,-74"/>
<text text-anchor="middle" x="776.5" y="-62" font-family="Helvetica,sans-Serif" font-size="10.00">vector</text>
</a>
</g>
</g>
<!-- Node5&#45;&gt;Node6 -->
<g id="edge6_Node000005_Node000006" class="edge">
<title>Node5&#45;&gt;Node6</title>
<g id="a_edge6_Node000005_Node000006"><a xlink:title=" ">
<path fill="none" stroke="#63b8ff" d="M776.5,-109.75C776.5,-102.8 776.5,-92.85 776.5,-84.13"/>
<polygon fill="#63b8ff" stroke="#63b8ff" points="780,-84.09 776.5,-74.09 773,-84.09 780,-84.09"/>
</a>
</g>
</g>
<!-- Node7 -->
<g id="Node000007" class="node">
<title>Node7</title>
<g id="a_Node000007"><a xlink:title=" ">
<polygon fill="#e0e0e0" stroke="#999999" points="562.5,-74 514.5,-74 514.5,-55 562.5,-55 562.5,-74"/>
<text text-anchor="middle" x="538.5" y="-62" font-family="Helvetica,sans-Serif" font-size="10.00">iosfwd</text>
</a>
</g>
</g>
<!-- Node5&#45;&gt;Node7 -->
<g id="edge7_Node000005_Node000007" class="edge">
<title>Node5&#45;&gt;Node7</title>
<g id="a_edge7_Node000005_Node000007"><a xlink:title=" ">
<path fill="none" stroke="#63b8ff" d="M738.26,-109.98C692.4,-99.77 616.24,-82.81 572.4,-73.05"/>
<polygon fill="#63b8ff" stroke="#63b8ff" points="573.03,-69.6 562.51,-70.85 571.51,-76.44 573.03,-69.6"/>
</a>
</g>
</g>
<!-- Node8&#45;&gt;Node3 -->
<g id="edge11_Node000008_Node000003" class="edge">
<title>Node8&#45;&gt;Node3</title>
<g id="a_edge11_Node000008_Node000003"><a xlink:title=" ">
<path fill="none" stroke="#63b8ff" d="M855.47,-164.88C863.64,-151.39 881.18,-125.26 902.5,-110 924,-94.61 951.46,-83.88 974.58,-76.81"/>
<polygon fill="#63b8ff" stroke="#63b8ff" points="975.57,-80.17 984.19,-74.01 973.61,-73.45 975.57,-80.17"/>
</a>
</g>
</g>
<!-- Node8&#45;&gt;Node5 -->
<g id="edge10_Node000008_Node000005" class="edge">
<title>Node8&#45;&gt;Node5</title>
<g id="a_edge10_Node000008_Node000005"><a xlink:title=" ">
<path fill="none" stroke="#63b8ff" d="M838.61,-164.98C827.35,-156.92 810.21,-144.65 796.79,-135.03"/>
<polygon fill="#63b8ff" stroke="#63b8ff" points="798.77,-132.15 788.61,-129.17 794.7,-137.84 798.77,-132.15"/>
</a>
</g>
</g>
<!-- Node8&#45;&gt;Node9 -->
<g id="edge12_Node000008_Node000009" class="edge">
<title>Node8&#45;&gt;Node9</title>
<g id="a_edge12_Node000008_Node000009"><a xlink:title=" ">
<path fill="none" stroke="#63b8ff" d="M849.78,-164.61C848.16,-150.75 842.96,-124.12 826.5,-110 800.85,-87.99 706.1,-74.83 653.06,-69.03"/>
<polygon fill="#63b8ff" stroke="#63b8ff" points="653.36,-65.54 643.05,-67.96 652.62,-72.5 653.36,-65.54"/>
</a>
</g>
</g>
<!-- Node10 -->
<g id="Node000010" class="node">
<title>Node10</title>
<g id="a_Node000010"><a xlink:title=" ">
<polygon fill="#e0e0e0" stroke="#999999" points="652.5,-19 580.5,-19 580.5,0 652.5,0 652.5,-19"/>
<text text-anchor="middle" x="616.5" y="-7" font-family="Helvetica,sans-Serif" font-size="10.00">sys/types.h</text>
</a>
</g>
</g>
<!-- Node9&#45;&gt;Node10 -->
<g id="edge13_Node000009_Node000010" class="edge">
<title>Node9&#45;&gt;Node10</title>
<g id="a_edge13_Node000009_Node000010"><a xlink:title=" ">
<path fill="none" stroke="#63b8ff" d="M616.5,-54.75C616.5,-47.8 616.5,-37.85 616.5,-29.13"/>
<polygon fill="#63b8ff" stroke="#63b8ff" points="620,-29.09 616.5,-19.09 613,-29.09 620,-29.09"/>
</a>
</g>
</g>
<!-- Node11&#45;&gt;Node3 -->
<g id="edge17_Node000011_Node000003" class="edge">
<title>Node11&#45;&gt;Node3</title>
<g id="a_edge17_Node000011_Node000003"><a xlink:title=" ">
<path fill="none" stroke="#63b8ff" d="M643.4,-228.49C710.54,-228.06 919.44,-223.51 971.5,-184 1003.56,-159.67 1015.26,-110.85 1019.38,-84.09"/>
<polygon fill="#63b8ff" stroke="#63b8ff" points="1022.86,-84.49 1020.72,-74.11 1015.92,-83.56 1022.86,-84.49"/>
</a>
</g>
</g>
<!-- Node12 -->
<g id="Node000012" class="node">
<title>Node12</title>
<g id="a_Node000012"><a xlink:href="tstring_8h.html" target="_top" xlink:title=" ">
<polygon fill="white" stroke="#666666" points="962,-184 905,-184 905,-165 962,-165 962,-184"/>
<text text-anchor="middle" x="933.5" y="-172" font-family="Helvetica,sans-Serif" font-size="10.00">tstring.h</text>
</a>
</g>
</g>
<!-- Node11&#45;&gt;Node12 -->
<g id="edge18_Node000011_Node000012" class="edge">
<title>Node11&#45;&gt;Node12</title>
<g id="a_edge18_Node000011_Node000012"><a xlink:title=" ">
<path fill="none" stroke="#63b8ff" d="M643.2,-225.61C687.54,-219.31 795.15,-203.5 894.92,-184.21"/>
<polygon fill="#63b8ff" stroke="#63b8ff" points="895.71,-187.62 904.86,-182.27 894.37,-180.75 895.71,-187.62"/>
</a>
</g>
</g>
<!-- Node14 -->
<g id="Node000014" class="node">
<title>Node14</title>
<g id="a_Node000014"><a xlink:href="tlist_8h.html" target="_top" xlink:title=" ">
<polygon fill="white" stroke="#666666" points="331.5,-129 287.5,-129 287.5,-110 331.5,-110 331.5,-129"/>
<text text-anchor="middle" x="309.5" y="-117" font-family="Helvetica,sans-Serif" font-size="10.00">tlist.h</text>
</a>
</g>
</g>
<!-- Node11&#45;&gt;Node14 -->
<g id="edge22_Node000011_Node000014" class="edge">
<title>Node11&#45;&gt;Node14</title>
<g id="a_edge22_Node000011_Node000014"><a xlink:title=" ">
<path fill="none" stroke="#63b8ff" d="M601.69,-228.53C557.99,-227.79 454.43,-221.82 378.5,-184 355.84,-172.71 335.25,-151.71 322.58,-136.96"/>
<polygon fill="#63b8ff" stroke="#63b8ff" points="325.15,-134.58 316.08,-129.12 319.77,-139.05 325.15,-134.58"/>
</a>
</g>
</g>
<!-- Node18 -->
<g id="Node000018" class="node">
<title>Node18</title>
<g id="a_Node000018"><a xlink:href="tvariant_8h.html" target="_top" xlink:title=" ">
<polygon fill="white" stroke="#666666" points="451.5,-184 387.5,-184 387.5,-165 451.5,-165 451.5,-184"/>
<text text-anchor="middle" x="419.5" y="-172" font-family="Helvetica,sans-Serif" font-size="10.00">tvariant.h</text>
</a>
</g>
</g>
<!-- Node11&#45;&gt;Node18 -->
<g id="edge27_Node000011_Node000018" class="edge">
<title>Node11&#45;&gt;Node18</title>
<g id="a_edge27_Node000011_Node000018"><a xlink:title=" ">
<path fill="none" stroke="#63b8ff" d="M601.92,-223.13C569.16,-214.57 504.51,-197.69 461.64,-186.5"/>
<polygon fill="#63b8ff" stroke="#63b8ff" points="462.33,-183.07 451.77,-183.93 460.57,-189.84 462.33,-183.07"/>
</a>
</g>
</g>
<!-- Node12&#45;&gt;Node3 -->
<g id="edge21_Node000012_Node000003" class="edge">
<title>Node12&#45;&gt;Node3</title>
<g id="a_edge21_Node000012_Node000003"><a xlink:title=" ">
<path fill="none" stroke="#63b8ff" d="M940.7,-164.66C955.41,-146.61 989.09,-105.28 1007.99,-82.08"/>
<polygon fill="#63b8ff" stroke="#63b8ff" points="1010.84,-84.12 1014.45,-74.16 1005.41,-79.7 1010.84,-84.12"/>
</a>
</g>
</g>
<!-- Node12&#45;&gt;Node5 -->
<g id="edge20_Node000012_Node000005" class="edge">
<title>Node12&#45;&gt;Node5</title>
<g id="a_edge20_Node000012_Node000005"><a xlink:title=" ">
<path fill="none" stroke="#63b8ff" d="M908.28,-164.98C882.14,-156.16 841.1,-142.31 811.77,-132.41"/>
<polygon fill="#63b8ff" stroke="#63b8ff" points="812.52,-128.96 801.92,-129.08 810.28,-135.6 812.52,-128.96"/>
</a>
</g>
</g>
<!-- Node13 -->
<g id="Node000013" class="node">
<title>Node13</title>
<g id="a_Node000013"><a xlink:title=" ">
<polygon fill="#e0e0e0" stroke="#999999" points="955.5,-129 911.5,-129 911.5,-110 955.5,-110 955.5,-129"/>
<text text-anchor="middle" x="933.5" y="-117" font-family="Helvetica,sans-Serif" font-size="10.00">string</text>
</a>
</g>
</g>
<!-- Node12&#45;&gt;Node13 -->
<g id="edge19_Node000012_Node000013" class="edge">
<title>Node12&#45;&gt;Node13</title>
<g id="a_edge19_Node000012_Node000013"><a xlink:title=" ">
<path fill="none" stroke="#63b8ff" d="M933.5,-164.75C933.5,-157.8 933.5,-147.85 933.5,-139.13"/>
<polygon fill="#63b8ff" stroke="#63b8ff" points="937,-139.09 933.5,-129.09 930,-139.09 937,-139.09"/>
</a>
</g>
</g>
<!-- Node14&#45;&gt;Node2 -->
<g id="edge25_Node000014_Node000002" class="edge">
<title>Node14&#45;&gt;Node2</title>
<g id="a_edge25_Node000014_Node000002"><a xlink:title=" ">
<path fill="none" stroke="#63b8ff" d="M331.68,-110.1C354.79,-101.35 391.22,-87.56 417.45,-77.63"/>
<polygon fill="#63b8ff" stroke="#63b8ff" points="418.84,-80.85 426.96,-74.03 416.37,-74.3 418.84,-80.85"/>
</a>
</g>
</g>
<!-- Node15 -->
<g id="Node000015" class="node">
<title>Node15</title>
<g id="a_Node000015"><a xlink:title=" ">
<polygon fill="#e0e0e0" stroke="#999999" points="330.5,-74 298.5,-74 298.5,-55 330.5,-55 330.5,-74"/>
<text text-anchor="middle" x="314.5" y="-62" font-family="Helvetica,sans-Serif" font-size="10.00">list</text>
</a>
</g>
</g>
<!-- Node14&#45;&gt;Node15 -->
<g id="edge23_Node000014_Node000015" class="edge">
<title>Node14&#45;&gt;Node15</title>
<g id="a_edge23_Node000014_Node000015"><a xlink:title=" ">
<path fill="none" stroke="#63b8ff" d="M310.33,-109.75C310.98,-102.8 311.92,-92.85 312.74,-84.13"/>
<polygon fill="#63b8ff" stroke="#63b8ff" points="316.23,-84.37 313.69,-74.09 309.27,-83.72 316.23,-84.37"/>
</a>
</g>
</g>
<!-- Node16 -->
<g id="Node000016" class="node">
<title>Node16</title>
<g id="a_Node000016"><a xlink:title=" ">
<polygon fill="#e0e0e0" stroke="#999999" points="280,-74 197,-74 197,-55 280,-55 280,-74"/>
<text text-anchor="middle" x="238.5" y="-62" font-family="Helvetica,sans-Serif" font-size="10.00">initializer_list</text>
</a>
</g>
</g>
<!-- Node14&#45;&gt;Node16 -->
<g id="edge24_Node000014_Node000016" class="edge">
<title>Node14&#45;&gt;Node16</title>
<g id="a_edge24_Node000014_Node000016"><a xlink:title=" ">
<path fill="none" stroke="#63b8ff" d="M298.09,-109.98C287.39,-102 271.16,-89.88 258.34,-80.31"/>
<polygon fill="#63b8ff" stroke="#63b8ff" points="260.22,-77.35 250.11,-74.17 256.03,-82.96 260.22,-77.35"/>
</a>
</g>
</g>
<!-- Node17 -->
<g id="Node000017" class="node">
<title>Node17</title>
<g id="a_Node000017"><a xlink:title=" ">
<polygon fill="#e0e0e0" stroke="#999999" points="402,-74 349,-74 349,-55 402,-55 402,-74"/>
<text text-anchor="middle" x="375.5" y="-62" font-family="Helvetica,sans-Serif" font-size="10.00">tlist.tcc</text>
</a>
</g>
</g>
<!-- Node14&#45;&gt;Node17 -->
<g id="edge26_Node000014_Node000017" class="edge">
<title>Node14&#45;&gt;Node17</title>
<g id="a_edge26_Node000014_Node000017"><a xlink:title=" ">
<path fill="none" stroke="#63b8ff" d="M320.1,-109.98C329.96,-102.07 344.85,-90.11 356.72,-80.58"/>
<polygon fill="#63b8ff" stroke="#63b8ff" points="359.1,-83.16 364.7,-74.17 354.71,-77.7 359.1,-83.16"/>
</a>
</g>
</g>
<!-- Node18&#45;&gt;Node3 -->
<g id="edge36_Node000018_Node000003" class="edge">
<title>Node18&#45;&gt;Node3</title>
<g id="a_edge36_Node000018_Node000003"><a xlink:title=" ">
<path fill="none" stroke="#63b8ff" d="M450.56,-164.9C499.68,-151.57 598.45,-125.78 683.5,-110 782.38,-91.65 898.9,-78.06 966.08,-70.99"/>
<polygon fill="#63b8ff" stroke="#63b8ff" points="966.85,-74.43 976.43,-69.91 966.12,-67.46 966.85,-74.43"/>
</a>
</g>
</g>
<!-- Node18&#45;&gt;Node7 -->
<g id="edge28_Node000018_Node000007" class="edge">
<title>Node18&#45;&gt;Node7</title>
<g id="a_edge28_Node000018_Node000007"><a xlink:title=" ">
<path fill="none" stroke="#63b8ff" d="M422.49,-164.68C427.37,-151.38 438.17,-126.07 454.5,-110 468.76,-95.97 488.35,-85.25 505.02,-77.85"/>
<polygon fill="#63b8ff" stroke="#63b8ff" points="506.59,-80.99 514.44,-73.88 503.87,-74.54 506.59,-80.99"/>
</a>
</g>
</g>
<!-- Node18&#45;&gt;Node14 -->
<g id="edge29_Node000018_Node000014" class="edge">
<title>Node18&#45;&gt;Node14</title>
<g id="a_edge29_Node000018_Node000014"><a xlink:title=" ">
<path fill="none" stroke="#63b8ff" d="M401.83,-164.98C384.21,-156.5 356.92,-143.35 336.57,-133.54"/>
<polygon fill="#63b8ff" stroke="#63b8ff" points="338.02,-130.36 327.49,-129.17 334.98,-136.66 338.02,-130.36"/>
</a>
</g>
</g>
<!-- Node19 -->
<g id="Node000019" class="node">
<title>Node19</title>
<g id="a_Node000019"><a xlink:href="tmap_8h.html" target="_top" xlink:title=" ">
<polygon fill="white" stroke="#666666" points="264,-129 213,-129 213,-110 264,-110 264,-129"/>
<text text-anchor="middle" x="238.5" y="-117" font-family="Helvetica,sans-Serif" font-size="10.00">tmap.h</text>
</a>
</g>
</g>
<!-- Node18&#45;&gt;Node19 -->
<g id="edge30_Node000018_Node000019" class="edge">
<title>Node18&#45;&gt;Node19</title>
<g id="a_edge30_Node000018_Node000019"><a xlink:title=" ">
<path fill="none" stroke="#63b8ff" d="M390.42,-164.98C358.81,-155.73 308.28,-140.93 274.27,-130.97"/>
<polygon fill="#63b8ff" stroke="#63b8ff" points="274.86,-127.5 264.28,-128.05 272.9,-134.22 274.86,-127.5"/>
</a>
</g>
</g>
<!-- Node19&#45;&gt;Node2 -->
<g id="edge32_Node000019_Node000002" class="edge">
<title>Node19&#45;&gt;Node2</title>
<g id="a_edge32_Node000019_Node000002"><a xlink:title=" ">
<path fill="none" stroke="#63b8ff" d="M264.37,-112C300.95,-102.81 368.05,-85.96 410.63,-75.26"/>
<polygon fill="#63b8ff" stroke="#63b8ff" points="411.52,-78.65 420.37,-72.82 409.82,-71.86 411.52,-78.65"/>
</a>
</g>
</g>
<!-- Node19&#45;&gt;Node16 -->
<g id="edge33_Node000019_Node000016" class="edge">
<title>Node19&#45;&gt;Node16</title>
<g id="a_edge33_Node000019_Node000016"><a xlink:title=" ">
<path fill="none" stroke="#63b8ff" d="M238.5,-109.75C238.5,-102.8 238.5,-92.85 238.5,-84.13"/>
<polygon fill="#63b8ff" stroke="#63b8ff" points="242,-84.09 238.5,-74.09 235,-84.09 242,-84.09"/>
</a>
</g>
</g>
<!-- Node20 -->
<g id="Node000020" class="node">
<title>Node20</title>
<g id="a_Node000020"><a xlink:title=" ">
<polygon fill="#e0e0e0" stroke="#999999" points="178.5,-74 140.5,-74 140.5,-55 178.5,-55 178.5,-74"/>
<text text-anchor="middle" x="159.5" y="-62" font-family="Helvetica,sans-Serif" font-size="10.00">map</text>
</a>
</g>
</g>
<!-- Node19&#45;&gt;Node20 -->
<g id="edge31_Node000019_Node000020" class="edge">
<title>Node19&#45;&gt;Node20</title>
<g id="a_edge31_Node000019_Node000020"><a xlink:title=" ">
<path fill="none" stroke="#63b8ff" d="M225.81,-109.98C213.67,-101.84 195.14,-89.41 180.75,-79.76"/>
<polygon fill="#63b8ff" stroke="#63b8ff" points="182.68,-76.84 172.42,-74.17 178.78,-82.65 182.68,-76.84"/>
</a>
</g>
</g>
<!-- Node21 -->
<g id="Node000021" class="node">
<title>Node21</title>
<g id="a_Node000021"><a xlink:title=" ">
<polygon fill="#e0e0e0" stroke="#999999" points="45,-74 0,-74 0,-55 45,-55 45,-74"/>
<text text-anchor="middle" x="22.5" y="-62" font-family="Helvetica,sans-Serif" font-size="10.00">utility</text>
</a>
</g>
</g>
<!-- Node19&#45;&gt;Node21 -->
<g id="edge34_Node000019_Node000021" class="edge">
<title>Node19&#45;&gt;Node21</title>
<g id="a_edge34_Node000019_Node000021"><a xlink:title=" ">
<path fill="none" stroke="#63b8ff" d="M212.7,-112.56C178.71,-104.69 116.83,-90.14 55.07,-74.35"/>
<polygon fill="#63b8ff" stroke="#63b8ff" points="55.72,-70.9 45.16,-71.8 53.98,-77.68 55.72,-70.9"/>
</a>
</g>
</g>
<!-- Node22 -->
<g id="Node000022" class="node">
<title>Node22</title>
<g id="a_Node000022"><a xlink:title=" ">
<polygon fill="#e0e0e0" stroke="#999999" points="122,-74 63,-74 63,-55 122,-55 122,-74"/>
<text text-anchor="middle" x="92.5" y="-62" font-family="Helvetica,sans-Serif" font-size="10.00">tmap.tcc</text>
</a>
</g>
</g>
<!-- Node19&#45;&gt;Node22 -->
<g id="edge35_Node000019_Node000022" class="edge">
<title>Node19&#45;&gt;Node22</title>
<g id="a_edge35_Node000019_Node000022"><a xlink:title=" ">
<path fill="none" stroke="#63b8ff" d="M215.04,-109.98C190.92,-101.23 153.13,-87.51 125.9,-77.62"/>
<polygon fill="#63b8ff" stroke="#63b8ff" points="126.98,-74.29 116.38,-74.17 124.59,-80.87 126.98,-74.29"/>
</a>
</g>
</g>
<!-- Node23&#45;&gt;Node2 -->
<g id="edge38_Node000023_Node000002" class="edge">
<title>Node23&#45;&gt;Node2</title>
<g id="a_edge38_Node000023_Node000002"><a xlink:title=" ">
<path fill="none" stroke="#63b8ff" d="M495.58,-164.94C481.65,-157.54 463.61,-145.45 454.5,-129 447.04,-115.53 446.22,-97.93 447.02,-84.68"/>
<polygon fill="#63b8ff" stroke="#63b8ff" points="450.54,-84.65 448.01,-74.36 443.57,-83.98 450.54,-84.65"/>
</a>
</g>
</g>
<!-- Node23&#45;&gt;Node3 -->
<g id="edge39_Node000023_Node000003" class="edge">
<title>Node23&#45;&gt;Node3</title>
<g id="a_edge39_Node000023_Node000003"><a xlink:title=" ">
<path fill="none" stroke="#63b8ff" d="M553.59,-164.97C588.17,-157 639.77,-144.1 683.5,-129 703.63,-122.05 707.02,-115.86 727.5,-110 808.9,-86.69 906.67,-74.98 966.43,-69.58"/>
<polygon fill="#63b8ff" stroke="#63b8ff" points="966.75,-73.06 976.41,-68.7 966.14,-66.09 966.75,-73.06"/>
</a>
</g>
</g>
<!-- Node23&#45;&gt;Node5 -->
<g id="edge40_Node000023_Node000005" class="edge">
<title>Node23&#45;&gt;Node5</title>
<g id="a_edge40_Node000023_Node000005"><a xlink:title=" ">
<path fill="none" stroke="#63b8ff" d="M556.59,-164.98C602.74,-155.65 676.76,-140.68 726,-130.72"/>
<polygon fill="#63b8ff" stroke="#63b8ff" points="726.7,-134.15 735.8,-128.73 725.31,-127.28 726.7,-134.15"/>
</a>
</g>
</g>
<!-- Node24 -->
<g id="Node000024" class="node">
<title>Node24</title>
<g id="a_Node000024"><a xlink:href="audioproperties_8h.html" target="_top" xlink:title=" ">
<polygon fill="white" stroke="#666666" points="565.5,-129 463.5,-129 463.5,-110 565.5,-110 565.5,-129"/>
<text text-anchor="middle" x="514.5" y="-117" font-family="Helvetica,sans-Serif" font-size="10.00">audioproperties.h</text>
</a>
</g>
</g>
<!-- Node23&#45;&gt;Node24 -->
<g id="edge41_Node000023_Node000024" class="edge">
<title>Node23&#45;&gt;Node24</title>
<g id="a_edge41_Node000023_Node000024"><a xlink:title=" ">
<path fill="none" stroke="#63b8ff" d="M514.5,-164.75C514.5,-157.8 514.5,-147.85 514.5,-139.13"/>
<polygon fill="#63b8ff" stroke="#63b8ff" points="518,-139.09 514.5,-129.09 511,-139.09 518,-139.09"/>
</a>
</g>
</g>
<!-- Node24&#45;&gt;Node2 -->
<g id="edge42_Node000024_Node000002" class="edge">
<title>Node24&#45;&gt;Node2</title>
<g id="a_edge42_Node000024_Node000002"><a xlink:title=" ">
<path fill="none" stroke="#63b8ff" d="M504.06,-109.98C494.35,-102.07 479.68,-90.11 468,-80.58"/>
<polygon fill="#63b8ff" stroke="#63b8ff" points="470.1,-77.78 460.13,-74.17 465.67,-83.2 470.1,-77.78"/>
</a>
</g>
</g>
<!-- Node24&#45;&gt;Node3 -->
<g id="edge44_Node000024_Node000003" class="edge">
<title>Node24&#45;&gt;Node3</title>
<g id="a_edge44_Node000024_Node000003"><a xlink:title=" ">
<path fill="none" stroke="#63b8ff" d="M565.9,-113.13C661.82,-103.1 867.29,-81.62 966.14,-71.29"/>
<polygon fill="#63b8ff" stroke="#63b8ff" points="966.64,-74.75 976.22,-70.23 965.91,-67.79 966.64,-74.75"/>
</a>
</g>
</g>
<!-- Node24&#45;&gt;Node9 -->
<g id="edge43_Node000024_Node000009" class="edge">
<title>Node24&#45;&gt;Node9</title>
<g id="a_edge43_Node000024_Node000009"><a xlink:title=" ">
<path fill="none" stroke="#63b8ff" d="M530.89,-109.98C547.07,-101.57 572.07,-88.59 590.88,-78.81"/>
<polygon fill="#63b8ff" stroke="#63b8ff" points="592.55,-81.89 599.81,-74.17 589.33,-75.68 592.55,-81.89"/>
</a>
</g>
</g>
<!-- Node25&#45;&gt;Node3 -->
<g id="edge51_Node000025_Node000003" class="edge">
<title>Node25&#45;&gt;Node3</title>
<g id="a_edge51_Node000025_Node000003"><a xlink:title=" ">
<path fill="none" stroke="#63b8ff" d="M645.64,-336.34C777.54,-327.56 1246.5,-292 1246.5,-230.5 1246.5,-230.5 1246.5,-230.5 1246.5,-173.5 1246.5,-98.54 1143.75,-75.57 1077.12,-68.56"/>
<polygon fill="#63b8ff" stroke="#63b8ff" points="1077.05,-65.04 1066.76,-67.56 1076.38,-72 1077.05,-65.04"/>
</a>
</g>
</g>
<!-- Node25&#45;&gt;Node5 -->
<g id="edge46_Node000025_Node000005" class="edge">
<title>Node25&#45;&gt;Node5</title>
<g id="a_edge46_Node000025_Node000005"><a xlink:title=" ">
<path fill="none" stroke="#63b8ff" d="M606.44,-329.73C595.24,-309.03 570.95,-256.15 592.5,-220 621.63,-171.13 684.01,-144.81 728.04,-131.75"/>
<polygon fill="#63b8ff" stroke="#63b8ff" points="729.02,-135.1 737.69,-129 727.11,-128.37 729.02,-135.1"/>
</a>
</g>
</g>
<!-- Node25&#45;&gt;Node9 -->
<g id="edge50_Node000025_Node000009" class="edge">
<title>Node25&#45;&gt;Node9</title>
<g id="a_edge50_Node000025_Node000009"><a xlink:title=" ">
<path fill="none" stroke="#63b8ff" d="M603.56,-329.75C596.47,-321.3 586.6,-307.79 582.5,-294 559.9,-217.93 592.55,-122.95 608.54,-83.73"/>
<polygon fill="#63b8ff" stroke="#63b8ff" points="611.81,-84.98 612.46,-74.41 605.36,-82.27 611.81,-84.98"/>
</a>
</g>
</g>
<!-- Node25&#45;&gt;Node11 -->
<g id="edge52_Node000025_Node000011" class="edge">
<title>Node25&#45;&gt;Node11</title>
<g id="a_edge52_Node000025_Node000011"><a xlink:title=" ">
<path fill="none" stroke="#63b8ff" d="M612.4,-329.66C614.18,-312.17 618.19,-272.8 620.59,-249.27"/>
<polygon fill="#63b8ff" stroke="#63b8ff" points="624.09,-249.46 621.62,-239.16 617.12,-248.75 624.09,-249.46"/>
</a>
</g>
</g>
<!-- Node25&#45;&gt;Node12 -->
<g id="edge47_Node000025_Node000012" class="edge">
<title>Node25&#45;&gt;Node12</title>
<g id="a_edge47_Node000025_Node000012"><a xlink:title=" ">
<path fill="none" stroke="#63b8ff" d="M645.79,-331.91C677.6,-325.03 725.72,-312.61 764.5,-294 824.49,-265.22 886.36,-215.85 915.83,-190.9"/>
<polygon fill="#63b8ff" stroke="#63b8ff" points="918.25,-193.43 923.57,-184.27 913.7,-188.11 918.25,-193.43"/>
</a>
</g>
</g>
<!-- Node25&#45;&gt;Node14 -->
<g id="edge48_Node000025_Node000014" class="edge">
<title>Node25&#45;&gt;Node14</title>
<g id="a_edge48_Node000025_Node000014"><a xlink:title=" ">
<path fill="none" stroke="#63b8ff" d="M588.3,-329.89C538.7,-310.52 420.94,-259.26 347.5,-184 334.49,-170.66 324.02,-152.06 317.39,-138.43"/>
<polygon fill="#63b8ff" stroke="#63b8ff" points="320.48,-136.76 313.1,-129.16 314.12,-139.7 320.48,-136.76"/>
</a>
</g>
</g>
<!-- Node25&#45;&gt;Node19 -->
<g id="edge49_Node000025_Node000019" class="edge">
<title>Node25&#45;&gt;Node19</title>
<g id="a_edge49_Node000025_Node000019"><a xlink:title=" ">
<path fill="none" stroke="#63b8ff" d="M577.5,-330.51C548.32,-323.03 505.57,-310.51 470.5,-294 380.35,-251.56 290.78,-170.9 254.89,-136.59"/>
<polygon fill="#63b8ff" stroke="#63b8ff" points="256.95,-133.71 247.32,-129.28 252.08,-138.74 256.95,-133.71"/>
</a>
</g>
</g>
<!-- Node26 -->
<g id="Node000026" class="node">
<title>Node26</title>
<g id="a_Node000026"><a xlink:href="id3v2_8h.html" target="_top" xlink:title=" ">
<polygon fill="white" stroke="#666666" points="693,-294 640,-294 640,-275 693,-275 693,-294"/>
<text text-anchor="middle" x="666.5" y="-282" font-family="Helvetica,sans-Serif" font-size="10.00">id3v2.h</text>
</a>
</g>
</g>
<!-- Node25&#45;&gt;Node26 -->
<g id="edge53_Node000025_Node000026" class="edge">
<title>Node25&#45;&gt;Node26</title>
<g id="a_edge53_Node000025_Node000026"><a xlink:title=" ">
<path fill="none" stroke="#63b8ff" d="M620.58,-329.75C628.59,-322.03 640.46,-310.6 650.12,-301.28"/>
<polygon fill="#63b8ff" stroke="#63b8ff" points="652.81,-303.55 657.59,-294.09 647.96,-298.51 652.81,-303.55"/>
</a>
</g>
</g>
<!-- Node27 -->
<g id="Node000027" class="node">
<title>Node27</title>
<g id="a_Node000027"><a xlink:href="id3v2framefactory_8h.html" target="_top" xlink:title=" ">
<polygon fill="white" stroke="#666666" points="991,-294 876,-294 876,-275 991,-275 991,-294"/>
<text text-anchor="middle" x="933.5" y="-282" font-family="Helvetica,sans-Serif" font-size="10.00">id3v2framefactory.h</text>
</a>
</g>
</g>
<!-- Node25&#45;&gt;Node27 -->
<g id="edge54_Node000025_Node000027" class="edge">
<title>Node25&#45;&gt;Node27</title>
<g id="a_edge54_Node000025_Node000027"><a xlink:title=" ">
<path fill="none" stroke="#63b8ff" d="M645.65,-332.88C699.38,-324.03 804.44,-306.74 871.68,-295.67"/>
<polygon fill="#63b8ff" stroke="#63b8ff" points="872.43,-299.1 881.73,-294.02 871.29,-292.19 872.43,-299.1"/>
</a>
</g>
</g>
<!-- Node27&#45;&gt;Node3 -->
<g id="edge56_Node000027_Node000003" class="edge">
<title>Node27&#45;&gt;Node3</title>
<g id="a_edge56_Node000027_Node000003"><a xlink:title=" ">
<path fill="none" stroke="#63b8ff" d="M991.27,-281.57C1057.58,-277.99 1160.33,-267.83 1184.5,-239 1221.33,-195.06 1219.3,-155.57 1184.5,-110 1171.3,-92.72 1118.71,-80.52 1076.79,-73.33"/>
<polygon fill="#63b8ff" stroke="#63b8ff" points="1077.1,-69.83 1066.66,-71.65 1075.96,-76.74 1077.1,-69.83"/>
</a>
</g>
</g>
<!-- Node27&#45;&gt;Node5 -->
<g id="edge55_Node000027_Node000005" class="edge">
<title>Node27&#45;&gt;Node5</title>
<g id="a_edge55_Node000027_Node000005"><a xlink:title=" ">
<path fill="none" stroke="#63b8ff" d="M910.99,-274.9C878.1,-261.09 817.56,-230.68 787.5,-184 778.89,-170.62 776.45,-152.52 775.98,-139.06"/>
<polygon fill="#63b8ff" stroke="#63b8ff" points="779.48,-139.05 775.96,-129.06 772.48,-139.07 779.48,-139.05"/>
</a>
</g>
</g>
<!-- Node28 -->
<g id="Node000028" class="node">
<title>Node28</title>
<g id="a_Node000028"><a xlink:href="id3v2frame_8h.html" target="_top" xlink:title=" ">
<polygon fill="white" stroke="#666666" points="974.5,-239 892.5,-239 892.5,-220 974.5,-220 974.5,-239"/>
<text text-anchor="middle" x="933.5" y="-227" font-family="Helvetica,sans-Serif" font-size="10.00">id3v2frame.h</text>
</a>
</g>
</g>
<!-- Node27&#45;&gt;Node28 -->
<g id="edge57_Node000027_Node000028" class="edge">
<title>Node27&#45;&gt;Node28</title>
<g id="a_edge57_Node000027_Node000028"><a xlink:title=" ">
<path fill="none" stroke="#63b8ff" d="M933.5,-274.75C933.5,-267.8 933.5,-257.85 933.5,-249.13"/>
<polygon fill="#63b8ff" stroke="#63b8ff" points="937,-249.09 933.5,-239.09 930,-249.09 937,-249.09"/>
</a>
</g>
</g>
<!-- Node29 -->
<g id="Node000029" class="node">
<title>Node29</title>
<g id="a_Node000029"><a xlink:href="id3v2header_8h.html" target="_top" xlink:title=" ">
<polygon fill="white" stroke="#666666" points="1142.5,-184 1056.5,-184 1056.5,-165 1142.5,-165 1142.5,-184"/>
<text text-anchor="middle" x="1099.5" y="-172" font-family="Helvetica,sans-Serif" font-size="10.00">id3v2header.h</text>
</a>
</g>
</g>
<!-- Node27&#45;&gt;Node29 -->
<g id="edge61_Node000027_Node000029" class="edge">
<title>Node27&#45;&gt;Node29</title>
<g id="a_edge61_Node000027_Node000029"><a xlink:title=" ">
<path fill="none" stroke="#63b8ff" d="M946.8,-274.84C975.34,-256.28 1042.65,-212.49 1077.59,-189.75"/>
<polygon fill="#63b8ff" stroke="#63b8ff" points="1079.66,-192.58 1086.13,-184.2 1075.84,-186.72 1079.66,-192.58"/>
</a>
</g>
</g>
<!-- Node28&#45;&gt;Node3 -->
<g id="edge60_Node000028_Node000003" class="edge">
<title>Node28&#45;&gt;Node3</title>
<g id="a_edge60_Node000028_Node000003"><a xlink:title=" ">
<path fill="none" stroke="#63b8ff" d="M952.5,-219.89C967.94,-212.18 989.53,-199.68 1004.5,-184 1023.87,-163.7 1028.38,-156.14 1035.5,-129 1039.48,-113.82 1035.01,-96.39 1030.09,-83.64"/>
<polygon fill="#63b8ff" stroke="#63b8ff" points="1033.19,-81.99 1026.03,-74.18 1026.76,-84.75 1033.19,-81.99"/>
</a>
</g>
</g>
<!-- Node28&#45;&gt;Node5 -->
<g id="edge59_Node000028_Node000005" class="edge">
<title>Node28&#45;&gt;Node5</title>
<g id="a_edge59_Node000028_Node000005"><a xlink:title=" ">
<path fill="none" stroke="#63b8ff" d="M892.29,-222.78C864.83,-217.08 829.51,-205.86 805.5,-184 792.49,-172.15 784.91,-153.32 780.78,-139.24"/>
<polygon fill="#63b8ff" stroke="#63b8ff" points="784.07,-137.98 778.18,-129.18 777.3,-139.74 784.07,-137.98"/>
</a>
</g>
</g>
<!-- Node28&#45;&gt;Node12 -->
<g id="edge58_Node000028_Node000012" class="edge">
<title>Node28&#45;&gt;Node12</title>
<g id="a_edge58_Node000028_Node000012"><a xlink:title=" ">
<path fill="none" stroke="#63b8ff" d="M933.5,-219.75C933.5,-212.8 933.5,-202.85 933.5,-194.13"/>
<polygon fill="#63b8ff" stroke="#63b8ff" points="937,-194.09 933.5,-184.09 930,-194.09 937,-194.09"/>
</a>
</g>
</g>
<!-- Node29&#45;&gt;Node3 -->
<g id="edge63_Node000029_Node000003" class="edge">
<title>Node29&#45;&gt;Node3</title>
<g id="a_edge63_Node000029_Node000003"><a xlink:title=" ">
<path fill="none" stroke="#63b8ff" d="M1097.31,-164.63C1093.81,-151.71 1086.06,-127.38 1073.5,-110 1065.13,-98.41 1053.14,-87.89 1042.78,-79.99"/>
<polygon fill="#63b8ff" stroke="#63b8ff" points="1044.72,-77.07 1034.58,-74 1040.6,-82.72 1044.72,-77.07"/>
</a>
</g>
</g>
<!-- Node29&#45;&gt;Node5 -->
<g id="edge62_Node000029_Node000005" class="edge">
<title>Node29&#45;&gt;Node5</title>
<g id="a_edge62_Node000029_Node000005"><a xlink:title=" ">
<path fill="none" stroke="#63b8ff" d="M1056.27,-166.41C996.92,-156.67 890.38,-139.19 827.3,-128.83"/>
<polygon fill="#63b8ff" stroke="#63b8ff" points="827.61,-125.34 817.18,-127.17 826.48,-132.25 827.61,-125.34"/>
</a>
</g>
</g>
</g>
</svg>
