<?xml version="1.0" encoding="UTF-8" standalone="no"?>
<!DOCTYPE svg PUBLIC "-//W3C//DTD SVG 1.1//EN"
 "http://www.w3.org/Graphics/SVG/1.1/DTD/svg11.dtd">
<!-- Generated by graphviz version 2.43.0 (0)
 -->
<!-- Title: dsfproperties.h Pages: 1 -->
<svg width="378pt" height="196pt"
 viewBox="0.00 0.00 377.50 196.00" xmlns="http://www.w3.org/2000/svg" xmlns:xlink="http://www.w3.org/1999/xlink">
<g id="graph0" class="graph" transform="scale(1 1) rotate(0) translate(4 192)">
<title>dsfproperties.h</title>
<polygon fill="white" stroke="transparent" points="-4,4 -4,-192 373.5,-192 373.5,4 -4,4"/>
<!-- Node1 -->
<g id="node1" class="node">
<title>Node1</title>
<g id="a_node1"><a xlink:title=" ">
<polygon fill="#bfbfbf" stroke="black" points="102,-168.5 102,-187.5 192,-187.5 192,-168.5 102,-168.5"/>
<text text-anchor="middle" x="147" y="-175.5" font-family="Helvetica,sans-Serif" font-size="10.00">dsfproperties.h</text>
</a>
</g>
</g>
<!-- Node2 -->
<g id="node2" class="node">
<title>Node2</title>
<g id="a_node2"><a xlink:title=" ">
<polygon fill="white" stroke="#bfbfbf" points="0,-56.5 0,-75.5 58,-75.5 58,-56.5 0,-56.5"/>
<text text-anchor="middle" x="29" y="-63.5" font-family="Helvetica,sans-Serif" font-size="10.00">memory</text>
</a>
</g>
</g>
<!-- Node1&#45;&gt;Node2 -->
<g id="edge1" class="edge">
<title>Node1&#45;&gt;Node2</title>
<path fill="none" stroke="midnightblue" d="M109.86,-168.35C88.97,-161.68 63.95,-150.4 48,-132 36.82,-119.1 32.21,-99.93 30.31,-85.74"/>
<polygon fill="midnightblue" stroke="midnightblue" points="33.78,-85.25 29.3,-75.65 26.82,-85.95 33.78,-85.25"/>
</g>
<!-- Node3 -->
<g id="node3" class="node">
<title>Node3</title>
<g id="a_node3"><a xlink:href="taglib__export_8h.html" target="_top" xlink:title=" ">
<polygon fill="white" stroke="black" points="148,-56.5 148,-75.5 238,-75.5 238,-56.5 148,-56.5"/>
<text text-anchor="middle" x="193" y="-63.5" font-family="Helvetica,sans-Serif" font-size="10.00">taglib_export.h</text>
</a>
</g>
</g>
<!-- Node1&#45;&gt;Node3 -->
<g id="edge2" class="edge">
<title>Node1&#45;&gt;Node3</title>
<path fill="none" stroke="midnightblue" d="M151.21,-168.45C155.58,-159.46 162.54,-144.85 168,-132 174.58,-116.53 181.39,-98.68 186.23,-85.61"/>
<polygon fill="midnightblue" stroke="midnightblue" points="189.63,-86.5 189.8,-75.91 183.06,-84.09 189.63,-86.5"/>
</g>
<!-- Node4 -->
<g id="node4" class="node">
<title>Node4</title>
<g id="a_node4"><a xlink:href="tbytevector_8h.html" target="_top" xlink:title=" ">
<polygon fill="white" stroke="black" points="215.5,-112.5 215.5,-131.5 296.5,-131.5 296.5,-112.5 215.5,-112.5"/>
<text text-anchor="middle" x="256" y="-119.5" font-family="Helvetica,sans-Serif" font-size="10.00">tbytevector.h</text>
</a>
</g>
</g>
<!-- Node1&#45;&gt;Node4 -->
<g id="edge3" class="edge">
<title>Node1&#45;&gt;Node4</title>
<path fill="none" stroke="midnightblue" d="M164.51,-168.32C182.07,-159.62 209.33,-146.12 229.53,-136.11"/>
<polygon fill="midnightblue" stroke="midnightblue" points="231.12,-139.23 238.53,-131.65 228.02,-132.96 231.12,-139.23"/>
</g>
<!-- Node7 -->
<g id="node7" class="node">
<title>Node7</title>
<g id="a_node7"><a xlink:href="audioproperties_8h.html" target="_top" xlink:title=" ">
<polygon fill="white" stroke="black" points="57,-112.5 57,-131.5 159,-131.5 159,-112.5 57,-112.5"/>
<text text-anchor="middle" x="108" y="-119.5" font-family="Helvetica,sans-Serif" font-size="10.00">audioproperties.h</text>
</a>
</g>
</g>
<!-- Node1&#45;&gt;Node7 -->
<g id="edge8" class="edge">
<title>Node1&#45;&gt;Node7</title>
<path fill="none" stroke="midnightblue" d="M140.56,-168.08C135.05,-160.46 126.97,-149.26 120.24,-139.94"/>
<polygon fill="midnightblue" stroke="midnightblue" points="123.01,-137.81 114.32,-131.75 117.34,-141.91 123.01,-137.81"/>
</g>
<!-- Node4&#45;&gt;Node2 -->
<g id="edge4" class="edge">
<title>Node4&#45;&gt;Node2</title>
<path fill="none" stroke="midnightblue" d="M220.03,-112.44C178.6,-102.59 110.76,-86.45 68.06,-76.29"/>
<polygon fill="midnightblue" stroke="midnightblue" points="68.84,-72.88 58.3,-73.97 67.22,-79.69 68.84,-72.88"/>
</g>
<!-- Node4&#45;&gt;Node3 -->
<g id="edge7" class="edge">
<title>Node4&#45;&gt;Node3</title>
<path fill="none" stroke="midnightblue" d="M245.88,-112.32C236.47,-104.26 222.26,-92.08 210.93,-82.37"/>
<polygon fill="midnightblue" stroke="midnightblue" points="213.18,-79.68 203.31,-75.83 208.62,-85 213.18,-79.68"/>
</g>
<!-- Node5 -->
<g id="node5" class="node">
<title>Node5</title>
<g id="a_node5"><a xlink:title=" ">
<polygon fill="white" stroke="#bfbfbf" points="322.5,-56.5 322.5,-75.5 369.5,-75.5 369.5,-56.5 322.5,-56.5"/>
<text text-anchor="middle" x="346" y="-63.5" font-family="Helvetica,sans-Serif" font-size="10.00">vector</text>
</a>
</g>
</g>
<!-- Node4&#45;&gt;Node5 -->
<g id="edge5" class="edge">
<title>Node4&#45;&gt;Node5</title>
<path fill="none" stroke="midnightblue" d="M270.46,-112.32C284.5,-103.9 306.05,-90.97 322.54,-81.07"/>
<polygon fill="midnightblue" stroke="midnightblue" points="324.8,-83.8 331.58,-75.65 321.2,-77.8 324.8,-83.8"/>
</g>
<!-- Node6 -->
<g id="node6" class="node">
<title>Node6</title>
<g id="a_node6"><a xlink:title=" ">
<polygon fill="white" stroke="#bfbfbf" points="256,-56.5 256,-75.5 304,-75.5 304,-56.5 256,-56.5"/>
<text text-anchor="middle" x="280" y="-63.5" font-family="Helvetica,sans-Serif" font-size="10.00">iosfwd</text>
</a>
</g>
</g>
<!-- Node4&#45;&gt;Node6 -->
<g id="edge6" class="edge">
<title>Node4&#45;&gt;Node6</title>
<path fill="none" stroke="midnightblue" d="M259.96,-112.08C263.21,-104.77 267.92,-94.18 271.95,-85.1"/>
<polygon fill="midnightblue" stroke="midnightblue" points="275.25,-86.31 276.11,-75.75 268.85,-83.47 275.25,-86.31"/>
</g>
<!-- Node7&#45;&gt;Node2 -->
<g id="edge9" class="edge">
<title>Node7&#45;&gt;Node2</title>
<path fill="none" stroke="midnightblue" d="M95.31,-112.32C83.1,-103.98 64.42,-91.21 50,-81.35"/>
<polygon fill="midnightblue" stroke="midnightblue" points="51.89,-78.41 41.66,-75.65 47.94,-84.19 51.89,-78.41"/>
</g>
<!-- Node7&#45;&gt;Node3 -->
<g id="edge12" class="edge">
<title>Node7&#45;&gt;Node3</title>
<path fill="none" stroke="midnightblue" d="M121.66,-112.32C134.92,-103.9 155.27,-90.97 170.85,-81.07"/>
<polygon fill="midnightblue" stroke="midnightblue" points="172.81,-83.97 179.38,-75.65 169.06,-78.06 172.81,-83.97"/>
</g>
<!-- Node8 -->
<g id="node8" class="node">
<title>Node8</title>
<g id="a_node8"><a xlink:href="taglib_8h.html" target="_top" xlink:title=" ">
<polygon fill="white" stroke="black" points="76.5,-56.5 76.5,-75.5 129.5,-75.5 129.5,-56.5 76.5,-56.5"/>
<text text-anchor="middle" x="103" y="-63.5" font-family="Helvetica,sans-Serif" font-size="10.00">taglib.h</text>
</a>
</g>
</g>
<!-- Node7&#45;&gt;Node8 -->
<g id="edge10" class="edge">
<title>Node7&#45;&gt;Node8</title>
<path fill="none" stroke="midnightblue" d="M107.17,-112.08C106.52,-105.01 105.58,-94.86 104.76,-85.99"/>
<polygon fill="midnightblue" stroke="midnightblue" points="108.22,-85.39 103.81,-75.75 101.25,-86.03 108.22,-85.39"/>
</g>
<!-- Node9 -->
<g id="node9" class="node">
<title>Node9</title>
<g id="a_node9"><a xlink:title=" ">
<polygon fill="white" stroke="#bfbfbf" points="67,-0.5 67,-19.5 139,-19.5 139,-0.5 67,-0.5"/>
<text text-anchor="middle" x="103" y="-7.5" font-family="Helvetica,sans-Serif" font-size="10.00">sys/types.h</text>
</a>
</g>
</g>
<!-- Node8&#45;&gt;Node9 -->
<g id="edge11" class="edge">
<title>Node8&#45;&gt;Node9</title>
<path fill="none" stroke="midnightblue" d="M103,-56.08C103,-49.01 103,-38.86 103,-29.99"/>
<polygon fill="midnightblue" stroke="midnightblue" points="106.5,-29.75 103,-19.75 99.5,-29.75 106.5,-29.75"/>
</g>
</g>
</svg>
