<?xml version="1.0" encoding="UTF-8" standalone="no"?>
<!DOCTYPE svg PUBLIC "-//W3C//DTD SVG 1.1//EN"
 "http://www.w3.org/Graphics/SVG/1.1/DTD/svg11.dtd">
<!-- Generated by graphviz version 2.43.0 (0)
 -->
<!-- Title: fileref.h Pages: 1 -->
<svg width="815pt" height="364pt"
 viewBox="0.00 0.00 815.00 364.00" xmlns="http://www.w3.org/2000/svg" xmlns:xlink="http://www.w3.org/1999/xlink">
<g id="graph0" class="graph" transform="scale(1 1) rotate(0) translate(4 360)">
<title>fileref.h</title>
<polygon fill="white" stroke="transparent" points="-4,4 -4,-360 811,-360 811,4 -4,4"/>
<!-- Node1 -->
<g id="node1" class="node">
<title>Node1</title>
<g id="a_node1"><a xlink:title=" ">
<polygon fill="#bfbfbf" stroke="black" points="179.5,-336.5 179.5,-355.5 232.5,-355.5 232.5,-336.5 179.5,-336.5"/>
<text text-anchor="middle" x="206" y="-343.5" font-family="Helvetica,sans-Serif" font-size="10.00">fileref.h</text>
</a>
</g>
</g>
<!-- Node2 -->
<g id="node2" class="node">
<title>Node2</title>
<g id="a_node2"><a xlink:href="tfile_8h.html" target="_top" xlink:title=" ">
<polygon fill="white" stroke="black" points="279,-280.5 279,-299.5 323,-299.5 323,-280.5 279,-280.5"/>
<text text-anchor="middle" x="301" y="-287.5" font-family="Helvetica,sans-Serif" font-size="10.00">tfile.h</text>
</a>
</g>
</g>
<!-- Node1&#45;&gt;Node2 -->
<g id="edge1" class="edge">
<title>Node1&#45;&gt;Node2</title>
<path fill="none" stroke="midnightblue" d="M221.26,-336.32C236.22,-327.82 259.25,-314.73 276.73,-304.8"/>
<polygon fill="midnightblue" stroke="midnightblue" points="278.81,-307.64 285.77,-299.65 275.35,-301.55 278.81,-307.64"/>
</g>
<!-- Node3 -->
<g id="node3" class="node">
<title>Node3</title>
<g id="a_node3"><a xlink:href="taglib__export_8h.html" target="_top" xlink:title=" ">
<polygon fill="white" stroke="black" points="199,-56.5 199,-75.5 289,-75.5 289,-56.5 199,-56.5"/>
<text text-anchor="middle" x="244" y="-63.5" font-family="Helvetica,sans-Serif" font-size="10.00">taglib_export.h</text>
</a>
</g>
</g>
<!-- Node1&#45;&gt;Node3 -->
<g id="edge35" class="edge">
<title>Node1&#45;&gt;Node3</title>
<path fill="none" stroke="midnightblue" d="M194.46,-336.43C173.2,-319.57 130,-279.8 130,-235 130,-235 130,-235 130,-177 130,-130.11 180.55,-96.89 214.33,-79.93"/>
<polygon fill="midnightblue" stroke="midnightblue" points="215.87,-83.07 223.36,-75.58 212.83,-76.77 215.87,-83.07"/>
</g>
<!-- Node13 -->
<g id="node13" class="node">
<title>Node13</title>
<g id="a_node13"><a xlink:href="tstringlist_8h.html" target="_top" xlink:title=" ">
<polygon fill="white" stroke="black" points="536,-224.5 536,-243.5 608,-243.5 608,-224.5 536,-224.5"/>
<text text-anchor="middle" x="572" y="-231.5" font-family="Helvetica,sans-Serif" font-size="10.00">tstringlist.h</text>
</a>
</g>
</g>
<!-- Node1&#45;&gt;Node13 -->
<g id="edge23" class="edge">
<title>Node1&#45;&gt;Node13</title>
<path fill="none" stroke="midnightblue" d="M232.62,-337C296.56,-317.78 459.03,-268.95 533.57,-246.55"/>
<polygon fill="midnightblue" stroke="midnightblue" points="534.91,-249.8 543.48,-243.57 532.9,-243.1 534.91,-249.8"/>
</g>
<!-- Node18 -->
<g id="node18" class="node">
<title>Node18</title>
<g id="a_node18"><a xlink:href="audioproperties_8h.html" target="_top" xlink:title=" ">
<polygon fill="white" stroke="black" points="0,-280.5 0,-299.5 102,-299.5 102,-280.5 0,-280.5"/>
<text text-anchor="middle" x="51" y="-287.5" font-family="Helvetica,sans-Serif" font-size="10.00">audioproperties.h</text>
</a>
</g>
</g>
<!-- Node1&#45;&gt;Node18 -->
<g id="edge36" class="edge">
<title>Node1&#45;&gt;Node18</title>
<path fill="none" stroke="midnightblue" d="M181.44,-336.44C155.48,-327.4 114.33,-313.06 85.2,-302.92"/>
<polygon fill="midnightblue" stroke="midnightblue" points="86.04,-299.5 75.45,-299.52 83.74,-306.11 86.04,-299.5"/>
</g>
<!-- Node2&#45;&gt;Node3 -->
<g id="edge2" class="edge">
<title>Node2&#45;&gt;Node3</title>
<path fill="none" stroke="midnightblue" d="M290.14,-280.42C271.05,-264.58 232.09,-228.62 217,-188 205.23,-156.34 206.72,-144.48 216,-112 218.9,-101.84 224.83,-91.75 230.49,-83.7"/>
<polygon fill="midnightblue" stroke="midnightblue" points="233.38,-85.69 236.59,-75.59 227.78,-81.48 233.38,-85.69"/>
</g>
<!-- Node4 -->
<g id="node4" class="node">
<title>Node4</title>
<g id="a_node4"><a xlink:href="taglib_8h.html" target="_top" xlink:title=" ">
<polygon fill="white" stroke="black" points="390.5,-56.5 390.5,-75.5 443.5,-75.5 443.5,-56.5 390.5,-56.5"/>
<text text-anchor="middle" x="417" y="-63.5" font-family="Helvetica,sans-Serif" font-size="10.00">taglib.h</text>
</a>
</g>
</g>
<!-- Node2&#45;&gt;Node4 -->
<g id="edge3" class="edge">
<title>Node2&#45;&gt;Node4</title>
<path fill="none" stroke="midnightblue" d="M299.59,-280.25C296.68,-259.55 291.71,-206.42 310,-168 328.28,-129.59 368.07,-98.41 393.63,-81.31"/>
<polygon fill="midnightblue" stroke="midnightblue" points="395.86,-84.03 402.34,-75.66 392.05,-78.16 395.86,-84.03"/>
</g>
<!-- Node7 -->
<g id="node7" class="node">
<title>Node7</title>
<g id="a_node7"><a xlink:href="tag_8h.html" target="_top" xlink:title=" ">
<polygon fill="white" stroke="black" points="348.5,-224.5 348.5,-243.5 389.5,-243.5 389.5,-224.5 348.5,-224.5"/>
<text text-anchor="middle" x="369" y="-231.5" font-family="Helvetica,sans-Serif" font-size="10.00">tag.h</text>
</a>
</g>
</g>
<!-- Node2&#45;&gt;Node7 -->
<g id="edge6" class="edge">
<title>Node2&#45;&gt;Node7</title>
<path fill="none" stroke="midnightblue" d="M311.93,-280.32C322.17,-272.18 337.72,-259.84 350,-250.09"/>
<polygon fill="midnightblue" stroke="midnightblue" points="352.22,-252.79 357.88,-243.83 347.87,-247.31 352.22,-252.79"/>
</g>
<!-- Node9 -->
<g id="node9" class="node">
<title>Node9</title>
<g id="a_node9"><a xlink:href="tbytevector_8h.html" target="_top" xlink:title=" ">
<polygon fill="white" stroke="black" points="538.5,-112.5 538.5,-131.5 619.5,-131.5 619.5,-112.5 538.5,-112.5"/>
<text text-anchor="middle" x="579" y="-119.5" font-family="Helvetica,sans-Serif" font-size="10.00">tbytevector.h</text>
</a>
</g>
</g>
<!-- Node2&#45;&gt;Node9 -->
<g id="edge18" class="edge">
<title>Node2&#45;&gt;Node9</title>
<path fill="none" stroke="midnightblue" d="M322.12,-280.44C342.29,-272.01 373.34,-258.33 399,-244 460,-209.94 527.14,-161.68 559.47,-137.71"/>
<polygon fill="midnightblue" stroke="midnightblue" points="561.71,-140.4 567.63,-131.62 557.52,-134.79 561.71,-140.4"/>
</g>
<!-- Node12 -->
<g id="node12" class="node">
<title>Node12</title>
<g id="a_node12"><a xlink:href="tiostream_8h.html" target="_top" xlink:title=" ">
<polygon fill="white" stroke="black" points="318.5,-168.5 318.5,-187.5 391.5,-187.5 391.5,-168.5 318.5,-168.5"/>
<text text-anchor="middle" x="355" y="-175.5" font-family="Helvetica,sans-Serif" font-size="10.00">tiostream.h</text>
</a>
</g>
</g>
<!-- Node2&#45;&gt;Node12 -->
<g id="edge19" class="edge">
<title>Node2&#45;&gt;Node12</title>
<path fill="none" stroke="midnightblue" d="M305.24,-280.37C314.07,-262.38 334.6,-220.55 346.35,-196.63"/>
<polygon fill="midnightblue" stroke="midnightblue" points="349.52,-198.11 350.78,-187.59 343.23,-195.03 349.52,-198.11"/>
</g>
<!-- Node5 -->
<g id="node5" class="node">
<title>Node5</title>
<g id="a_node5"><a xlink:title=" ">
<polygon fill="white" stroke="#bfbfbf" points="344,-0.5 344,-19.5 432,-19.5 432,-0.5 344,-0.5"/>
<text text-anchor="middle" x="388" y="-7.5" font-family="Helvetica,sans-Serif" font-size="10.00">taglib_config.h</text>
</a>
</g>
</g>
<!-- Node4&#45;&gt;Node5 -->
<g id="edge4" class="edge">
<title>Node4&#45;&gt;Node5</title>
<path fill="none" stroke="midnightblue" d="M412.21,-56.08C408.24,-48.69 402.47,-37.95 397.57,-28.81"/>
<polygon fill="midnightblue" stroke="midnightblue" points="400.51,-26.91 392.7,-19.75 394.35,-30.22 400.51,-26.91"/>
</g>
<!-- Node6 -->
<g id="node6" class="node">
<title>Node6</title>
<g id="a_node6"><a xlink:title=" ">
<polygon fill="white" stroke="#bfbfbf" points="450,-0.5 450,-19.5 494,-19.5 494,-0.5 450,-0.5"/>
<text text-anchor="middle" x="472" y="-7.5" font-family="Helvetica,sans-Serif" font-size="10.00">string</text>
</a>
</g>
</g>
<!-- Node4&#45;&gt;Node6 -->
<g id="edge5" class="edge">
<title>Node4&#45;&gt;Node6</title>
<path fill="none" stroke="midnightblue" d="M426.08,-56.08C434.17,-48.14 446.2,-36.34 455.91,-26.8"/>
<polygon fill="midnightblue" stroke="midnightblue" points="458.4,-29.25 463.09,-19.75 453.5,-24.26 458.4,-29.25"/>
</g>
<!-- Node7&#45;&gt;Node3 -->
<g id="edge7" class="edge">
<title>Node7&#45;&gt;Node3</title>
<path fill="none" stroke="midnightblue" d="M348.46,-233.27C316.93,-232.44 257.38,-225.64 230,-188 207.7,-157.34 223.5,-110.27 234.98,-84.82"/>
<polygon fill="midnightblue" stroke="midnightblue" points="238.21,-86.16 239.36,-75.63 231.9,-83.15 238.21,-86.16"/>
</g>
<!-- Node8 -->
<g id="node8" class="node">
<title>Node8</title>
<g id="a_node8"><a xlink:href="tstring_8h.html" target="_top" xlink:title=" ">
<polygon fill="white" stroke="black" points="416.5,-168.5 416.5,-187.5 473.5,-187.5 473.5,-168.5 416.5,-168.5"/>
<text text-anchor="middle" x="445" y="-175.5" font-family="Helvetica,sans-Serif" font-size="10.00">tstring.h</text>
</a>
</g>
</g>
<!-- Node7&#45;&gt;Node8 -->
<g id="edge8" class="edge">
<title>Node7&#45;&gt;Node8</title>
<path fill="none" stroke="midnightblue" d="M381.21,-224.32C392.78,-216.11 410.38,-203.6 424.16,-193.81"/>
<polygon fill="midnightblue" stroke="midnightblue" points="426.44,-196.48 432.57,-187.83 422.39,-190.77 426.44,-196.48"/>
</g>
<!-- Node8&#45;&gt;Node3 -->
<g id="edge9" class="edge">
<title>Node8&#45;&gt;Node3</title>
<path fill="none" stroke="midnightblue" d="M429.23,-168.37C394.37,-149.29 310.55,-103.42 268.68,-80.51"/>
<polygon fill="midnightblue" stroke="midnightblue" points="270.15,-77.32 259.7,-75.59 266.79,-83.46 270.15,-77.32"/>
</g>
<!-- Node8&#45;&gt;Node4 -->
<g id="edge10" class="edge">
<title>Node8&#45;&gt;Node4</title>
<path fill="none" stroke="midnightblue" d="M442.8,-168.37C438.28,-150.62 427.86,-109.67 421.73,-85.6"/>
<polygon fill="midnightblue" stroke="midnightblue" points="425.05,-84.42 419.19,-75.59 418.26,-86.15 425.05,-84.42"/>
</g>
<!-- Node8&#45;&gt;Node6 -->
<g id="edge16" class="edge">
<title>Node8&#45;&gt;Node6</title>
<path fill="none" stroke="midnightblue" d="M446.45,-168.08C450.7,-141.95 463.18,-65.21 468.98,-29.58"/>
<polygon fill="midnightblue" stroke="midnightblue" points="472.46,-30 470.61,-19.57 465.55,-28.88 472.46,-30"/>
</g>
<!-- Node8&#45;&gt;Node9 -->
<g id="edge11" class="edge">
<title>Node8&#45;&gt;Node9</title>
<path fill="none" stroke="midnightblue" d="M466.23,-168.44C488.38,-159.52 523.32,-145.44 548.44,-135.32"/>
<polygon fill="midnightblue" stroke="midnightblue" points="549.9,-138.5 557.87,-131.52 547.28,-132.01 549.9,-138.5"/>
</g>
<!-- Node11 -->
<g id="node11" class="node">
<title>Node11</title>
<g id="a_node11"><a xlink:title=" ">
<polygon fill="white" stroke="#bfbfbf" points="619,-56.5 619,-75.5 679,-75.5 679,-56.5 619,-56.5"/>
<text text-anchor="middle" x="649" y="-63.5" font-family="Helvetica,sans-Serif" font-size="10.00">iostream</text>
</a>
</g>
</g>
<!-- Node8&#45;&gt;Node11 -->
<g id="edge17" class="edge">
<title>Node8&#45;&gt;Node11</title>
<path fill="none" stroke="midnightblue" d="M473.76,-173.45C519.7,-167.23 606.75,-152.98 629,-132 641.61,-120.11 646.33,-100.49 648.07,-85.91"/>
<polygon fill="midnightblue" stroke="midnightblue" points="651.59,-85.79 648.92,-75.54 644.61,-85.22 651.59,-85.79"/>
</g>
<!-- Node9&#45;&gt;Node3 -->
<g id="edge13" class="edge">
<title>Node9&#45;&gt;Node3</title>
<path fill="none" stroke="midnightblue" d="M538.45,-114.35C533.58,-113.56 528.68,-112.76 524,-112 445.99,-99.35 355.73,-84.87 299.25,-75.83"/>
<polygon fill="midnightblue" stroke="midnightblue" points="299.53,-72.33 289.11,-74.21 298.43,-79.25 299.53,-72.33"/>
</g>
<!-- Node9&#45;&gt;Node4 -->
<g id="edge12" class="edge">
<title>Node9&#45;&gt;Node4</title>
<path fill="none" stroke="midnightblue" d="M553.33,-112.44C526.08,-103.36 482.82,-88.94 452.35,-78.78"/>
<polygon fill="midnightblue" stroke="midnightblue" points="453.14,-75.36 442.55,-75.52 450.93,-82 453.14,-75.36"/>
</g>
<!-- Node10 -->
<g id="node10" class="node">
<title>Node10</title>
<g id="a_node10"><a xlink:title=" ">
<polygon fill="white" stroke="#bfbfbf" points="553.5,-56.5 553.5,-75.5 600.5,-75.5 600.5,-56.5 553.5,-56.5"/>
<text text-anchor="middle" x="577" y="-63.5" font-family="Helvetica,sans-Serif" font-size="10.00">vector</text>
</a>
</g>
</g>
<!-- Node9&#45;&gt;Node10 -->
<g id="edge14" class="edge">
<title>Node9&#45;&gt;Node10</title>
<path fill="none" stroke="midnightblue" d="M578.67,-112.08C578.41,-105.01 578.03,-94.86 577.7,-85.99"/>
<polygon fill="midnightblue" stroke="midnightblue" points="581.19,-85.61 577.32,-75.75 574.2,-85.87 581.19,-85.61"/>
</g>
<!-- Node9&#45;&gt;Node11 -->
<g id="edge15" class="edge">
<title>Node9&#45;&gt;Node11</title>
<path fill="none" stroke="midnightblue" d="M590.25,-112.32C600.8,-104.18 616.8,-91.84 629.44,-82.09"/>
<polygon fill="midnightblue" stroke="midnightblue" points="631.77,-84.71 637.55,-75.83 627.49,-79.17 631.77,-84.71"/>
</g>
<!-- Node12&#45;&gt;Node3 -->
<g id="edge20" class="edge">
<title>Node12&#45;&gt;Node3</title>
<path fill="none" stroke="midnightblue" d="M346.29,-168.37C327.65,-149.89 283.65,-106.29 259.89,-82.74"/>
<polygon fill="midnightblue" stroke="midnightblue" points="262.24,-80.14 252.67,-75.59 257.31,-85.12 262.24,-80.14"/>
</g>
<!-- Node12&#45;&gt;Node4 -->
<g id="edge21" class="edge">
<title>Node12&#45;&gt;Node4</title>
<path fill="none" stroke="midnightblue" d="M359.87,-168.37C370.05,-150.3 393.79,-108.18 407.24,-84.31"/>
<polygon fill="midnightblue" stroke="midnightblue" points="410.3,-86.02 412.16,-75.59 404.2,-82.58 410.3,-86.02"/>
</g>
<!-- Node12&#45;&gt;Node9 -->
<g id="edge22" class="edge">
<title>Node12&#45;&gt;Node9</title>
<path fill="none" stroke="midnightblue" d="M390.49,-168.44C429.32,-159.08 491.66,-144.06 533.92,-133.87"/>
<polygon fill="midnightblue" stroke="midnightblue" points="534.77,-137.26 543.67,-131.52 533.13,-130.46 534.77,-137.26"/>
</g>
<!-- Node13&#45;&gt;Node3 -->
<g id="edge33" class="edge">
<title>Node13&#45;&gt;Node3</title>
<path fill="none" stroke="midnightblue" d="M535.85,-230.65C472.71,-225.94 345.66,-213.5 310,-188 274.76,-162.8 256.35,-112.72 248.6,-85.56"/>
<polygon fill="midnightblue" stroke="midnightblue" points="251.94,-84.52 245.98,-75.76 245.18,-86.33 251.94,-84.52"/>
</g>
<!-- Node13&#45;&gt;Node8 -->
<g id="edge24" class="edge">
<title>Node13&#45;&gt;Node8</title>
<path fill="none" stroke="midnightblue" d="M551.88,-224.44C530.98,-215.56 498.07,-201.56 474.28,-191.45"/>
<polygon fill="midnightblue" stroke="midnightblue" points="475.6,-188.21 465.03,-187.52 472.86,-194.65 475.6,-188.21"/>
</g>
<!-- Node13&#45;&gt;Node11 -->
<g id="edge34" class="edge">
<title>Node13&#45;&gt;Node11</title>
<path fill="none" stroke="midnightblue" d="M591.53,-224.45C606.3,-216.96 625.88,-204.67 637,-188 657.72,-156.93 655.53,-111.02 652.21,-85.62"/>
<polygon fill="midnightblue" stroke="midnightblue" points="655.63,-84.88 650.67,-75.51 648.71,-85.93 655.63,-84.88"/>
</g>
<!-- Node14 -->
<g id="node14" class="node">
<title>Node14</title>
<g id="a_node14"><a xlink:href="tlist_8h.html" target="_top" xlink:title=" ">
<polygon fill="white" stroke="black" points="714,-112.5 714,-131.5 758,-131.5 758,-112.5 714,-112.5"/>
<text text-anchor="middle" x="736" y="-119.5" font-family="Helvetica,sans-Serif" font-size="10.00">tlist.h</text>
</a>
</g>
</g>
<!-- Node13&#45;&gt;Node14 -->
<g id="edge25" class="edge">
<title>Node13&#45;&gt;Node14</title>
<path fill="none" stroke="midnightblue" d="M608.04,-227.51C635.79,-221.71 673.73,-210.2 700,-188 714.59,-175.67 724.35,-155.86 729.98,-141.35"/>
<polygon fill="midnightblue" stroke="midnightblue" points="733.29,-142.49 733.36,-131.9 726.7,-140.13 733.29,-142.49"/>
</g>
<!-- Node17 -->
<g id="node17" class="node">
<title>Node17</title>
<g id="a_node17"><a xlink:href="tbytevectorlist_8h.html" target="_top" xlink:title=" ">
<polygon fill="white" stroke="black" points="530.5,-168.5 530.5,-187.5 627.5,-187.5 627.5,-168.5 530.5,-168.5"/>
<text text-anchor="middle" x="579" y="-175.5" font-family="Helvetica,sans-Serif" font-size="10.00">tbytevectorlist.h</text>
</a>
</g>
</g>
<!-- Node13&#45;&gt;Node17 -->
<g id="edge29" class="edge">
<title>Node13&#45;&gt;Node17</title>
<path fill="none" stroke="midnightblue" d="M573.16,-224.08C574.08,-216.93 575.42,-206.64 576.58,-197.69"/>
<polygon fill="midnightblue" stroke="midnightblue" points="580.05,-198.12 577.87,-187.75 573.11,-197.22 580.05,-198.12"/>
</g>
<!-- Node14&#45;&gt;Node4 -->
<g id="edge26" class="edge">
<title>Node14&#45;&gt;Node4</title>
<path fill="none" stroke="midnightblue" d="M713.82,-117.25C659.77,-108.1 520.8,-84.57 453.97,-73.26"/>
<polygon fill="midnightblue" stroke="midnightblue" points="454.33,-69.77 443.89,-71.55 453.16,-76.67 454.33,-69.77"/>
</g>
<!-- Node15 -->
<g id="node15" class="node">
<title>Node15</title>
<g id="a_node15"><a xlink:title=" ">
<polygon fill="white" stroke="#bfbfbf" points="775,-56.5 775,-75.5 807,-75.5 807,-56.5 775,-56.5"/>
<text text-anchor="middle" x="791" y="-63.5" font-family="Helvetica,sans-Serif" font-size="10.00">list</text>
</a>
</g>
</g>
<!-- Node14&#45;&gt;Node15 -->
<g id="edge27" class="edge">
<title>Node14&#45;&gt;Node15</title>
<path fill="none" stroke="midnightblue" d="M745.08,-112.08C753.17,-104.14 765.2,-92.34 774.91,-82.8"/>
<polygon fill="midnightblue" stroke="midnightblue" points="777.4,-85.25 782.09,-75.75 772.5,-80.26 777.4,-85.25"/>
</g>
<!-- Node16 -->
<g id="node16" class="node">
<title>Node16</title>
<g id="a_node16"><a xlink:title=" ">
<polygon fill="white" stroke="#bfbfbf" points="703.5,-56.5 703.5,-75.5 756.5,-75.5 756.5,-56.5 703.5,-56.5"/>
<text text-anchor="middle" x="730" y="-63.5" font-family="Helvetica,sans-Serif" font-size="10.00">tlist.tcc</text>
</a>
</g>
</g>
<!-- Node14&#45;&gt;Node16 -->
<g id="edge28" class="edge">
<title>Node14&#45;&gt;Node16</title>
<path fill="none" stroke="midnightblue" d="M735.01,-112.08C734.21,-104.93 733.07,-94.64 732.08,-85.69"/>
<polygon fill="midnightblue" stroke="midnightblue" points="735.56,-85.3 730.97,-75.75 728.6,-86.08 735.56,-85.3"/>
</g>
<!-- Node17&#45;&gt;Node3 -->
<g id="edge30" class="edge">
<title>Node17&#45;&gt;Node3</title>
<path fill="none" stroke="midnightblue" d="M552.99,-168.46C493.63,-148.97 348.03,-101.16 280.06,-78.84"/>
<polygon fill="midnightblue" stroke="midnightblue" points="280.82,-75.4 270.22,-75.61 278.63,-82.06 280.82,-75.4"/>
</g>
<!-- Node17&#45;&gt;Node9 -->
<g id="edge31" class="edge">
<title>Node17&#45;&gt;Node9</title>
<path fill="none" stroke="midnightblue" d="M579,-168.08C579,-161.01 579,-150.86 579,-141.99"/>
<polygon fill="midnightblue" stroke="midnightblue" points="582.5,-141.75 579,-131.75 575.5,-141.75 582.5,-141.75"/>
</g>
<!-- Node17&#45;&gt;Node14 -->
<g id="edge32" class="edge">
<title>Node17&#45;&gt;Node14</title>
<path fill="none" stroke="midnightblue" d="M603.88,-168.44C631.07,-159.09 674.69,-144.09 704.31,-133.9"/>
<polygon fill="midnightblue" stroke="midnightblue" points="705.46,-137.21 713.78,-130.64 703.18,-130.59 705.46,-137.21"/>
</g>
<!-- Node18&#45;&gt;Node3 -->
<g id="edge37" class="edge">
<title>Node18&#45;&gt;Node3</title>
<path fill="none" stroke="midnightblue" d="M51.65,-280.24C54.21,-251.83 66.12,-161.19 116,-112 135.62,-92.65 164.03,-81.59 189.11,-75.28"/>
<polygon fill="midnightblue" stroke="midnightblue" points="189.94,-78.68 198.89,-73.01 188.36,-71.86 189.94,-78.68"/>
</g>
</g>
</svg>
