<?xml version="1.0" encoding="UTF-8" standalone="no"?>
<!DOCTYPE svg PUBLIC "-//W3C//DTD SVG 1.1//EN"
 "http://www.w3.org/Graphics/SVG/1.1/DTD/svg11.dtd">
<!-- Generated by graphviz version 2.42.4 (0)
 -->
<!-- Title: fileref.h Pages: 1 -->
<svg width="1089pt" height="302pt"
 viewBox="0.00 0.00 1089.00 302.00" xmlns="http://www.w3.org/2000/svg" xmlns:xlink="http://www.w3.org/1999/xlink">
<g id="graph0" class="graph" transform="scale(1 1) rotate(0) translate(4 298)">
<title>fileref.h</title>
<!-- Node1 -->
<g id="Node000001" class="node">
<title>Node1</title>
<g id="a_Node000001"><a xlink:title=" ">
<polygon fill="#999999" stroke="#666666" points="808.5,-294 755.5,-294 755.5,-275 808.5,-275 808.5,-294"/>
<text text-anchor="middle" x="782" y="-282" font-family="Helvetica,sans-Serif" font-size="10.00">fileref.h</text>
</a>
</g>
</g>
<!-- Node2 -->
<g id="Node000002" class="node">
<title>Node2</title>
<g id="a_Node000002"><a xlink:href="tfile_8h.html" target="_top" xlink:title=" ">
<polygon fill="white" stroke="#666666" points="830,-239 786,-239 786,-220 830,-220 830,-239"/>
<text text-anchor="middle" x="808" y="-227" font-family="Helvetica,sans-Serif" font-size="10.00">tfile.h</text>
</a>
</g>
</g>
<!-- Node1&#45;&gt;Node2 -->
<g id="edge1_Node000001_Node000002" class="edge">
<title>Node1&#45;&gt;Node2</title>
<g id="a_edge1_Node000001_Node000002"><a xlink:title=" ">
<path fill="none" stroke="#63b8ff" d="M786.29,-274.75C789.81,-267.57 794.91,-257.18 799.28,-248.27"/>
<polygon fill="#63b8ff" stroke="#63b8ff" points="802.52,-249.61 803.79,-239.09 796.24,-246.53 802.52,-249.61"/>
</a>
</g>
</g>
<!-- Node7 -->
<g id="Node000007" class="node">
<title>Node7</title>
<g id="a_Node000007"><a xlink:href="taglib__export_8h.html" target="_top" xlink:title=" ">
<polygon fill="white" stroke="#666666" points="790,-19 700,-19 700,0 790,0 790,-19"/>
<text text-anchor="middle" x="745" y="-7" font-family="Helvetica,sans-Serif" font-size="10.00">taglib_export.h</text>
</a>
</g>
</g>
<!-- Node1&#45;&gt;Node7 -->
<g id="edge43_Node000001_Node000007" class="edge">
<title>Node1&#45;&gt;Node7</title>
<g id="a_edge43_Node000001_Node000007"><a xlink:title=" ">
<path fill="none" stroke="#63b8ff" d="M808.77,-281.83C864.94,-276.72 990,-256.27 990,-175.5 990,-175.5 990,-175.5 990,-118.5 990,-36.2 872.82,-16.08 800.54,-11.5"/>
<polygon fill="#63b8ff" stroke="#63b8ff" points="800.4,-7.98 790.22,-10.93 800.01,-14.97 800.4,-7.98"/>
</a>
</g>
</g>
<!-- Node24 -->
<g id="Node000024" class="node">
<title>Node24</title>
<g id="a_Node000024"><a xlink:href="tstringlist_8h.html" target="_top" xlink:title=" ">
<polygon fill="white" stroke="#666666" points="522,-184 450,-184 450,-165 522,-165 522,-184"/>
<text text-anchor="middle" x="486" y="-172" font-family="Helvetica,sans-Serif" font-size="10.00">tstringlist.h</text>
</a>
</g>
</g>
<!-- Node1&#45;&gt;Node24 -->
<g id="edge35_Node000001_Node000024" class="edge">
<title>Node1&#45;&gt;Node24</title>
<g id="a_edge35_Node000001_Node000024"><a xlink:title=" ">
<path fill="none" stroke="#63b8ff" d="M758.53,-274.94C706.07,-255.79 579.21,-209.51 518.91,-187.51"/>
<polygon fill="#63b8ff" stroke="#63b8ff" points="520.07,-184.21 509.48,-184.07 517.67,-190.78 520.07,-184.21"/>
</a>
</g>
</g>
<!-- Node26 -->
<g id="Node000026" class="node">
<title>Node26</title>
<g id="a_Node000026"><a xlink:href="audioproperties_8h.html" target="_top" xlink:title=" ">
<polygon fill="white" stroke="#666666" points="794,-129 692,-129 692,-110 794,-110 794,-129"/>
<text text-anchor="middle" x="743" y="-117" font-family="Helvetica,sans-Serif" font-size="10.00">audioproperties.h</text>
</a>
</g>
</g>
<!-- Node1&#45;&gt;Node26 -->
<g id="edge44_Node000001_Node000026" class="edge">
<title>Node1&#45;&gt;Node26</title>
<g id="a_edge44_Node000001_Node000026"><a xlink:title=" ">
<path fill="none" stroke="#63b8ff" d="M779.9,-274.74C773.79,-249.2 755.9,-174.43 747.48,-139.23"/>
<polygon fill="#63b8ff" stroke="#63b8ff" points="750.84,-138.22 745.11,-129.31 744.03,-139.85 750.84,-138.22"/>
</a>
</g>
</g>
<!-- Node3 -->
<g id="Node000003" class="node">
<title>Node3</title>
<g id="a_Node000003"><a xlink:href="tbytevector_8h.html" target="_top" xlink:title=" ">
<polygon fill="white" stroke="#666666" points="559.5,-74 478.5,-74 478.5,-55 559.5,-55 559.5,-74"/>
<text text-anchor="middle" x="519" y="-62" font-family="Helvetica,sans-Serif" font-size="10.00">tbytevector.h</text>
</a>
</g>
</g>
<!-- Node2&#45;&gt;Node3 -->
<g id="edge2_Node000002_Node000003" class="edge">
<title>Node2&#45;&gt;Node3</title>
<g id="a_edge2_Node000002_Node000003"><a xlink:title=" ">
<path fill="none" stroke="#63b8ff" d="M785.79,-223.19C741.35,-211.75 639.78,-181.51 570,-129 553.11,-116.29 538.55,-96.77 529.37,-82.73"/>
<polygon fill="#63b8ff" stroke="#63b8ff" points="532.18,-80.64 523.9,-74.03 526.26,-84.36 532.18,-80.64"/>
</a>
</g>
</g>
<!-- Node2&#45;&gt;Node7 -->
<g id="edge12_Node000002_Node000007" class="edge">
<title>Node2&#45;&gt;Node7</title>
<g id="a_edge12_Node000002_Node000007"><a xlink:title=" ">
<path fill="none" stroke="#63b8ff" d="M809.02,-219.94C811.08,-200.12 814.64,-149.72 803,-110 793.73,-78.34 772.31,-46.16 758.26,-27.28"/>
<polygon fill="#63b8ff" stroke="#63b8ff" points="760.89,-24.96 752.04,-19.14 755.33,-29.21 760.89,-24.96"/>
</a>
</g>
</g>
<!-- Node8 -->
<g id="Node000008" class="node">
<title>Node8</title>
<g id="a_Node000008"><a xlink:href="tiostream_8h.html" target="_top" xlink:title=" ">
<polygon fill="white" stroke="#666666" points="923.5,-129 850.5,-129 850.5,-110 923.5,-110 923.5,-129"/>
<text text-anchor="middle" x="887" y="-117" font-family="Helvetica,sans-Serif" font-size="10.00">tiostream.h</text>
</a>
</g>
</g>
<!-- Node2&#45;&gt;Node8 -->
<g id="edge7_Node000002_Node000008" class="edge">
<title>Node2&#45;&gt;Node8</title>
<g id="a_edge7_Node000002_Node000008"><a xlink:title=" ">
<path fill="none" stroke="#63b8ff" d="M814.46,-219.66C827.61,-201.69 857.64,-160.64 874.65,-137.38"/>
<polygon fill="#63b8ff" stroke="#63b8ff" points="877.59,-139.3 880.67,-129.16 871.94,-135.16 877.59,-139.3"/>
</a>
</g>
</g>
<!-- Node9 -->
<g id="Node000009" class="node">
<title>Node9</title>
<g id="a_Node000009"><a xlink:href="taglib_8h.html" target="_top" xlink:title=" ">
<polygon fill="white" stroke="#666666" points="1071.5,-74 1018.5,-74 1018.5,-55 1071.5,-55 1071.5,-74"/>
<text text-anchor="middle" x="1045" y="-62" font-family="Helvetica,sans-Serif" font-size="10.00">taglib.h</text>
</a>
</g>
</g>
<!-- Node2&#45;&gt;Node9 -->
<g id="edge13_Node000002_Node000009" class="edge">
<title>Node2&#45;&gt;Node9</title>
<g id="a_edge13_Node000002_Node000009"><a xlink:title=" ">
<path fill="none" stroke="#63b8ff" d="M822.74,-219.99C851.13,-203.43 915.06,-165.33 966,-129 987.76,-113.48 1011.5,-94.03 1027.22,-80.77"/>
<polygon fill="#63b8ff" stroke="#63b8ff" points="1029.71,-83.25 1035.06,-74.1 1025.18,-77.91 1029.71,-83.25"/>
</a>
</g>
</g>
<!-- Node11 -->
<g id="Node000011" class="node">
<title>Node11</title>
<g id="a_Node000011"><a xlink:href="tag_8h.html" target="_top" xlink:title=" ">
<polygon fill="white" stroke="#666666" points="431.5,-184 390.5,-184 390.5,-165 431.5,-165 431.5,-184"/>
<text text-anchor="middle" x="411" y="-172" font-family="Helvetica,sans-Serif" font-size="10.00">tag.h</text>
</a>
</g>
</g>
<!-- Node2&#45;&gt;Node11 -->
<g id="edge14_Node000002_Node000011" class="edge">
<title>Node2&#45;&gt;Node11</title>
<g id="a_edge14_Node000002_Node000011"><a xlink:title=" ">
<path fill="none" stroke="#63b8ff" d="M785.89,-227.02C729.9,-223.03 577.97,-210.62 441.75,-183.82"/>
<polygon fill="#63b8ff" stroke="#63b8ff" points="442.05,-180.31 431.55,-181.78 440.67,-187.17 442.05,-180.31"/>
</a>
</g>
</g>
<!-- Node4 -->
<g id="Node000004" class="node">
<title>Node4</title>
<g id="a_Node000004"><a xlink:title=" ">
<polygon fill="#e0e0e0" stroke="#999999" points="477,-19 419,-19 419,0 477,0 477,-19"/>
<text text-anchor="middle" x="448" y="-7" font-family="Helvetica,sans-Serif" font-size="10.00">memory</text>
</a>
</g>
</g>
<!-- Node3&#45;&gt;Node4 -->
<g id="edge3_Node000003_Node000004" class="edge">
<title>Node3&#45;&gt;Node4</title>
<g id="a_edge3_Node000003_Node000004"><a xlink:title=" ">
<path fill="none" stroke="#63b8ff" d="M507.59,-54.98C496.89,-47 480.66,-34.88 467.84,-25.31"/>
<polygon fill="#63b8ff" stroke="#63b8ff" points="469.72,-22.35 459.61,-19.17 465.53,-27.96 469.72,-22.35"/>
</a>
</g>
</g>
<!-- Node5 -->
<g id="Node000005" class="node">
<title>Node5</title>
<g id="a_Node000005"><a xlink:title=" ">
<polygon fill="#e0e0e0" stroke="#999999" points="608.5,-19 561.5,-19 561.5,0 608.5,0 608.5,-19"/>
<text text-anchor="middle" x="585" y="-7" font-family="Helvetica,sans-Serif" font-size="10.00">vector</text>
</a>
</g>
</g>
<!-- Node3&#45;&gt;Node5 -->
<g id="edge4_Node000003_Node000005" class="edge">
<title>Node3&#45;&gt;Node5</title>
<g id="a_edge4_Node000003_Node000005"><a xlink:title=" ">
<path fill="none" stroke="#63b8ff" d="M529.6,-54.98C539.46,-47.07 554.35,-35.11 566.22,-25.58"/>
<polygon fill="#63b8ff" stroke="#63b8ff" points="568.6,-28.16 574.2,-19.17 564.21,-22.7 568.6,-28.16"/>
</a>
</g>
</g>
<!-- Node6 -->
<g id="Node000006" class="node">
<title>Node6</title>
<g id="a_Node000006"><a xlink:title=" ">
<polygon fill="#e0e0e0" stroke="#999999" points="543,-19 495,-19 495,0 543,0 543,-19"/>
<text text-anchor="middle" x="519" y="-7" font-family="Helvetica,sans-Serif" font-size="10.00">iosfwd</text>
</a>
</g>
</g>
<!-- Node3&#45;&gt;Node6 -->
<g id="edge5_Node000003_Node000006" class="edge">
<title>Node3&#45;&gt;Node6</title>
<g id="a_edge5_Node000003_Node000006"><a xlink:title=" ">
<path fill="none" stroke="#63b8ff" d="M519,-54.75C519,-47.8 519,-37.85 519,-29.13"/>
<polygon fill="#63b8ff" stroke="#63b8ff" points="522.5,-29.09 519,-19.09 515.5,-29.09 522.5,-29.09"/>
</a>
</g>
</g>
<!-- Node3&#45;&gt;Node7 -->
<g id="edge6_Node000003_Node000007" class="edge">
<title>Node3&#45;&gt;Node7</title>
<g id="a_edge6_Node000003_Node000007"><a xlink:title=" ">
<path fill="none" stroke="#63b8ff" d="M555.31,-54.98C594.24,-45.86 656.16,-31.33 698.6,-21.38"/>
<polygon fill="#63b8ff" stroke="#63b8ff" points="699.47,-24.77 708.4,-19.08 697.87,-17.96 699.47,-24.77"/>
</a>
</g>
</g>
<!-- Node8&#45;&gt;Node3 -->
<g id="edge8_Node000008_Node000003" class="edge">
<title>Node8&#45;&gt;Node3</title>
<g id="a_edge8_Node000008_Node000003"><a xlink:title=" ">
<path fill="none" stroke="#63b8ff" d="M850.37,-113.22C784.3,-103.71 645.08,-83.66 569.84,-72.82"/>
<polygon fill="#63b8ff" stroke="#63b8ff" points="570.06,-69.32 559.66,-71.36 569.06,-76.25 570.06,-69.32"/>
</a>
</g>
</g>
<!-- Node8&#45;&gt;Node7 -->
<g id="edge9_Node000008_Node000007" class="edge">
<title>Node8&#45;&gt;Node7</title>
<g id="a_edge9_Node000008_Node000007"><a xlink:title=" ">
<path fill="none" stroke="#63b8ff" d="M881.72,-109.68C873.4,-96.39 856.1,-71.07 836,-55 818.96,-41.38 797.07,-30.51 779.03,-22.92"/>
<polygon fill="#63b8ff" stroke="#63b8ff" points="780.04,-19.56 769.46,-19.05 777.42,-26.05 780.04,-19.56"/>
</a>
</g>
</g>
<!-- Node8&#45;&gt;Node9 -->
<g id="edge10_Node000008_Node000009" class="edge">
<title>Node8&#45;&gt;Node9</title>
<g id="a_edge10_Node000008_Node000009"><a xlink:title=" ">
<path fill="none" stroke="#63b8ff" d="M912.39,-109.98C938.8,-101.13 980.35,-87.19 1009.89,-77.28"/>
<polygon fill="#63b8ff" stroke="#63b8ff" points="1011.05,-80.58 1019.42,-74.08 1008.82,-73.94 1011.05,-80.58"/>
</a>
</g>
</g>
<!-- Node10 -->
<g id="Node000010" class="node">
<title>Node10</title>
<g id="a_Node000010"><a xlink:title=" ">
<polygon fill="#e0e0e0" stroke="#999999" points="1081,-19 1009,-19 1009,0 1081,0 1081,-19"/>
<text text-anchor="middle" x="1045" y="-7" font-family="Helvetica,sans-Serif" font-size="10.00">sys/types.h</text>
</a>
</g>
</g>
<!-- Node9&#45;&gt;Node10 -->
<g id="edge11_Node000009_Node000010" class="edge">
<title>Node9&#45;&gt;Node10</title>
<g id="a_edge11_Node000009_Node000010"><a xlink:title=" ">
<path fill="none" stroke="#63b8ff" d="M1045,-54.75C1045,-47.8 1045,-37.85 1045,-29.13"/>
<polygon fill="#63b8ff" stroke="#63b8ff" points="1048.5,-29.09 1045,-19.09 1041.5,-29.09 1048.5,-29.09"/>
</a>
</g>
</g>
<!-- Node11&#45;&gt;Node7 -->
<g id="edge15_Node000011_Node000007" class="edge">
<title>Node11&#45;&gt;Node7</title>
<g id="a_edge15_Node000011_Node000007"><a xlink:title=" ">
<path fill="none" stroke="#63b8ff" d="M431.53,-167.09C434.68,-166.28 437.91,-165.55 441,-165 494.98,-155.48 895.68,-169.15 933,-129 980.88,-77.49 865.26,-39.25 794.7,-21.5"/>
<polygon fill="#63b8ff" stroke="#63b8ff" points="795.18,-18.02 784.64,-19.04 793.52,-24.82 795.18,-18.02"/>
</a>
</g>
</g>
<!-- Node12 -->
<g id="Node000012" class="node">
<title>Node12</title>
<g id="a_Node000012"><a xlink:href="tstring_8h.html" target="_top" xlink:title=" ">
<polygon fill="white" stroke="#666666" points="635.5,-129 578.5,-129 578.5,-110 635.5,-110 635.5,-129"/>
<text text-anchor="middle" x="607" y="-117" font-family="Helvetica,sans-Serif" font-size="10.00">tstring.h</text>
</a>
</g>
</g>
<!-- Node11&#45;&gt;Node12 -->
<g id="edge16_Node000011_Node000012" class="edge">
<title>Node11&#45;&gt;Node12</title>
<g id="a_edge16_Node000011_Node000012"><a xlink:title=" ">
<path fill="none" stroke="#63b8ff" d="M431.65,-167.61C434.78,-166.73 437.97,-165.83 441,-165 484.66,-152.96 534.91,-139.55 568.58,-130.63"/>
<polygon fill="#63b8ff" stroke="#63b8ff" points="569.7,-133.96 578.47,-128.02 567.91,-127.19 569.7,-133.96"/>
</a>
</g>
</g>
<!-- Node14 -->
<g id="Node000014" class="node">
<title>Node14</title>
<g id="a_Node000014"><a xlink:href="tlist_8h.html" target="_top" xlink:title=" ">
<polygon fill="white" stroke="#666666" points="384,-74 340,-74 340,-55 384,-55 384,-74"/>
<text text-anchor="middle" x="362" y="-62" font-family="Helvetica,sans-Serif" font-size="10.00">tlist.h</text>
</a>
</g>
</g>
<!-- Node11&#45;&gt;Node14 -->
<g id="edge20_Node000011_Node000014" class="edge">
<title>Node11&#45;&gt;Node14</title>
<g id="a_edge20_Node000011_Node000014"><a xlink:title=" ">
<path fill="none" stroke="#63b8ff" d="M404.24,-164.72C397.81,-156.04 388.22,-142.17 382,-129 375.2,-114.61 369.93,-97.33 366.51,-84.44"/>
<polygon fill="#63b8ff" stroke="#63b8ff" points="369.82,-83.26 363.99,-74.41 363.04,-84.96 369.82,-83.26"/>
</a>
</g>
</g>
<!-- Node18 -->
<g id="Node000018" class="node">
<title>Node18</title>
<g id="a_Node000018"><a xlink:href="tvariant_8h.html" target="_top" xlink:title=" ">
<polygon fill="white" stroke="#666666" points="330,-129 266,-129 266,-110 330,-110 330,-129"/>
<text text-anchor="middle" x="298" y="-117" font-family="Helvetica,sans-Serif" font-size="10.00">tvariant.h</text>
</a>
</g>
</g>
<!-- Node11&#45;&gt;Node18 -->
<g id="edge25_Node000011_Node000018" class="edge">
<title>Node11&#45;&gt;Node18</title>
<g id="a_edge25_Node000011_Node000018"><a xlink:title=" ">
<path fill="none" stroke="#63b8ff" d="M392.84,-164.98C374.75,-156.5 346.72,-143.35 325.81,-133.54"/>
<polygon fill="#63b8ff" stroke="#63b8ff" points="327.03,-130.25 316.49,-129.17 324.05,-136.59 327.03,-130.25"/>
</a>
</g>
</g>
<!-- Node12&#45;&gt;Node3 -->
<g id="edge18_Node000012_Node000003" class="edge">
<title>Node12&#45;&gt;Node3</title>
<g id="a_edge18_Node000012_Node000003"><a xlink:title=" ">
<path fill="none" stroke="#63b8ff" d="M592.86,-109.98C579.21,-101.77 558.31,-89.18 542.22,-79.49"/>
<polygon fill="#63b8ff" stroke="#63b8ff" points="543.77,-76.33 533.4,-74.17 540.16,-82.33 543.77,-76.33"/>
</a>
</g>
</g>
<!-- Node12&#45;&gt;Node7 -->
<g id="edge19_Node000012_Node000007" class="edge">
<title>Node12&#45;&gt;Node7</title>
<g id="a_edge19_Node000012_Node000007"><a xlink:title=" ">
<path fill="none" stroke="#63b8ff" d="M619.55,-109.9C632.21,-101.12 652.24,-86.99 669,-74 689.41,-58.18 712.03,-39.07 727.24,-25.97"/>
<polygon fill="#63b8ff" stroke="#63b8ff" points="729.6,-28.56 734.87,-19.37 725.02,-23.27 729.6,-28.56"/>
</a>
</g>
</g>
<!-- Node13 -->
<g id="Node000013" class="node">
<title>Node13</title>
<g id="a_Node000013"><a xlink:title=" ">
<polygon fill="#e0e0e0" stroke="#999999" points="660,-74 616,-74 616,-55 660,-55 660,-74"/>
<text text-anchor="middle" x="638" y="-62" font-family="Helvetica,sans-Serif" font-size="10.00">string</text>
</a>
</g>
</g>
<!-- Node12&#45;&gt;Node13 -->
<g id="edge17_Node000012_Node000013" class="edge">
<title>Node12&#45;&gt;Node13</title>
<g id="a_edge17_Node000012_Node000013"><a xlink:title=" ">
<path fill="none" stroke="#63b8ff" d="M612.12,-109.75C616.36,-102.49 622.53,-91.95 627.78,-82.98"/>
<polygon fill="#63b8ff" stroke="#63b8ff" points="630.95,-84.49 632.98,-74.09 624.91,-80.95 630.95,-84.49"/>
</a>
</g>
</g>
<!-- Node14&#45;&gt;Node4 -->
<g id="edge23_Node000014_Node000004" class="edge">
<title>Node14&#45;&gt;Node4</title>
<g id="a_edge23_Node000014_Node000004"><a xlink:title=" ">
<path fill="none" stroke="#63b8ff" d="M375.82,-54.98C389.15,-46.77 409.58,-34.18 425.31,-24.49"/>
<polygon fill="#63b8ff" stroke="#63b8ff" points="427.25,-27.4 433.93,-19.17 423.58,-21.44 427.25,-27.4"/>
</a>
</g>
</g>
<!-- Node15 -->
<g id="Node000015" class="node">
<title>Node15</title>
<g id="a_Node000015"><a xlink:title=" ">
<polygon fill="#e0e0e0" stroke="#999999" points="401,-19 369,-19 369,0 401,0 401,-19"/>
<text text-anchor="middle" x="385" y="-7" font-family="Helvetica,sans-Serif" font-size="10.00">list</text>
</a>
</g>
</g>
<!-- Node14&#45;&gt;Node15 -->
<g id="edge21_Node000014_Node000015" class="edge">
<title>Node14&#45;&gt;Node15</title>
<g id="a_edge21_Node000014_Node000015"><a xlink:title=" ">
<path fill="none" stroke="#63b8ff" d="M365.8,-54.75C368.91,-47.57 373.42,-37.18 377.29,-28.27"/>
<polygon fill="#63b8ff" stroke="#63b8ff" points="380.5,-29.66 381.27,-19.09 374.08,-26.87 380.5,-29.66"/>
</a>
</g>
</g>
<!-- Node16 -->
<g id="Node000016" class="node">
<title>Node16</title>
<g id="a_Node000016"><a xlink:title=" ">
<polygon fill="#e0e0e0" stroke="#999999" points="279.5,-19 196.5,-19 196.5,0 279.5,0 279.5,-19"/>
<text text-anchor="middle" x="238" y="-7" font-family="Helvetica,sans-Serif" font-size="10.00">initializer_list</text>
</a>
</g>
</g>
<!-- Node14&#45;&gt;Node16 -->
<g id="edge22_Node000014_Node000016" class="edge">
<title>Node14&#45;&gt;Node16</title>
<g id="a_edge22_Node000014_Node000016"><a xlink:title=" ">
<path fill="none" stroke="#63b8ff" d="M342.08,-54.98C321.95,-46.38 290.62,-32.99 267.59,-23.15"/>
<polygon fill="#63b8ff" stroke="#63b8ff" points="268.86,-19.88 258.29,-19.17 266.1,-26.32 268.86,-19.88"/>
</a>
</g>
</g>
<!-- Node17 -->
<g id="Node000017" class="node">
<title>Node17</title>
<g id="a_Node000017"><a xlink:title=" ">
<polygon fill="#e0e0e0" stroke="#999999" points="350.5,-19 297.5,-19 297.5,0 350.5,0 350.5,-19"/>
<text text-anchor="middle" x="324" y="-7" font-family="Helvetica,sans-Serif" font-size="10.00">tlist.tcc</text>
</a>
</g>
</g>
<!-- Node14&#45;&gt;Node17 -->
<g id="edge24_Node000014_Node000017" class="edge">
<title>Node14&#45;&gt;Node17</title>
<g id="a_edge24_Node000014_Node000017"><a xlink:title=" ">
<path fill="none" stroke="#63b8ff" d="M355.73,-54.75C350.41,-47.34 342.64,-36.5 336.12,-27.41"/>
<polygon fill="#63b8ff" stroke="#63b8ff" points="338.83,-25.18 330.16,-19.09 333.14,-29.26 338.83,-25.18"/>
</a>
</g>
</g>
<!-- Node18&#45;&gt;Node7 -->
<g id="edge34_Node000018_Node000007" class="edge">
<title>Node18&#45;&gt;Node7</title>
<g id="a_edge34_Node000018_Node000007"><a xlink:title=" ">
<path fill="none" stroke="#63b8ff" d="M317.46,-109.9C348.93,-96.32 413.2,-69.93 470,-55 544.86,-35.32 633.6,-22.86 689.6,-16.28"/>
<polygon fill="#63b8ff" stroke="#63b8ff" points="690.14,-19.74 699.67,-15.12 689.33,-12.78 690.14,-19.74"/>
</a>
</g>
</g>
<!-- Node18&#45;&gt;Node14 -->
<g id="edge27_Node000018_Node000014" class="edge">
<title>Node18&#45;&gt;Node14</title>
<g id="a_edge27_Node000018_Node000014"><a xlink:title=" ">
<path fill="none" stroke="#63b8ff" d="M308.28,-109.98C317.84,-102.07 332.28,-90.11 343.78,-80.58"/>
<polygon fill="#63b8ff" stroke="#63b8ff" points="346.06,-83.24 351.53,-74.17 341.6,-77.85 346.06,-83.24"/>
</a>
</g>
</g>
<!-- Node19 -->
<g id="Node000019" class="node">
<title>Node19</title>
<g id="a_Node000019"><a xlink:title=" ">
<polygon fill="#e0e0e0" stroke="#999999" points="322,-74 266,-74 266,-55 322,-55 322,-74"/>
<text text-anchor="middle" x="294" y="-62" font-family="Helvetica,sans-Serif" font-size="10.00">sstream</text>
</a>
</g>
</g>
<!-- Node18&#45;&gt;Node19 -->
<g id="edge26_Node000018_Node000019" class="edge">
<title>Node18&#45;&gt;Node19</title>
<g id="a_edge26_Node000018_Node000019"><a xlink:title=" ">
<path fill="none" stroke="#63b8ff" d="M297.34,-109.75C296.82,-102.8 296.06,-92.85 295.41,-84.13"/>
<polygon fill="#63b8ff" stroke="#63b8ff" points="298.89,-83.8 294.65,-74.09 291.91,-84.32 298.89,-83.8"/>
</a>
</g>
</g>
<!-- Node20 -->
<g id="Node000020" class="node">
<title>Node20</title>
<g id="a_Node000020"><a xlink:href="tmap_8h.html" target="_top" xlink:title=" ">
<polygon fill="white" stroke="#666666" points="211.5,-74 160.5,-74 160.5,-55 211.5,-55 211.5,-74"/>
<text text-anchor="middle" x="186" y="-62" font-family="Helvetica,sans-Serif" font-size="10.00">tmap.h</text>
</a>
</g>
</g>
<!-- Node18&#45;&gt;Node20 -->
<g id="edge28_Node000018_Node000020" class="edge">
<title>Node18&#45;&gt;Node20</title>
<g id="a_edge28_Node000018_Node000020"><a xlink:title=" ">
<path fill="none" stroke="#63b8ff" d="M280.01,-109.98C262.07,-101.5 234.28,-88.35 213.57,-78.54"/>
<polygon fill="#63b8ff" stroke="#63b8ff" points="214.86,-75.28 204.32,-74.17 211.86,-81.61 214.86,-75.28"/>
</a>
</g>
</g>
<!-- Node20&#45;&gt;Node4 -->
<g id="edge30_Node000020_Node000004" class="edge">
<title>Node20&#45;&gt;Node4</title>
<g id="a_edge30_Node000020_Node000004"><a xlink:title=" ">
<path fill="none" stroke="#63b8ff" d="M211.57,-58.63C251.5,-50.97 331.33,-35.49 409.02,-19.17"/>
<polygon fill="#63b8ff" stroke="#63b8ff" points="409.91,-22.56 418.97,-17.07 408.46,-15.71 409.91,-22.56"/>
</a>
</g>
</g>
<!-- Node20&#45;&gt;Node16 -->
<g id="edge31_Node000020_Node000016" class="edge">
<title>Node20&#45;&gt;Node16</title>
<g id="a_edge31_Node000020_Node000016"><a xlink:title=" ">
<path fill="none" stroke="#63b8ff" d="M194.59,-54.75C202.16,-47.03 213.38,-35.6 222.51,-26.28"/>
<polygon fill="#63b8ff" stroke="#63b8ff" points="225.07,-28.68 229.57,-19.09 220.07,-23.78 225.07,-28.68"/>
</a>
</g>
</g>
<!-- Node21 -->
<g id="Node000021" class="node">
<title>Node21</title>
<g id="a_Node000021"><a xlink:title=" ">
<polygon fill="#e0e0e0" stroke="#999999" points="38,-19 0,-19 0,0 38,0 38,-19"/>
<text text-anchor="middle" x="19" y="-7" font-family="Helvetica,sans-Serif" font-size="10.00">map</text>
</a>
</g>
</g>
<!-- Node20&#45;&gt;Node21 -->
<g id="edge29_Node000020_Node000021" class="edge">
<title>Node20&#45;&gt;Node21</title>
<g id="a_edge29_Node000020_Node000021"><a xlink:title=" ">
<path fill="none" stroke="#63b8ff" d="M160.27,-55.33C129.89,-45.69 79.49,-29.7 47.82,-19.65"/>
<polygon fill="#63b8ff" stroke="#63b8ff" points="48.84,-16.3 38.25,-16.61 46.72,-22.97 48.84,-16.3"/>
</a>
</g>
</g>
<!-- Node22 -->
<g id="Node000022" class="node">
<title>Node22</title>
<g id="a_Node000022"><a xlink:title=" ">
<polygon fill="#e0e0e0" stroke="#999999" points="101.5,-19 56.5,-19 56.5,0 101.5,0 101.5,-19"/>
<text text-anchor="middle" x="79" y="-7" font-family="Helvetica,sans-Serif" font-size="10.00">utility</text>
</a>
</g>
</g>
<!-- Node20&#45;&gt;Node22 -->
<g id="edge32_Node000020_Node000022" class="edge">
<title>Node20&#45;&gt;Node22</title>
<g id="a_edge32_Node000020_Node000022"><a xlink:title=" ">
<path fill="none" stroke="#63b8ff" d="M168.81,-54.98C151.75,-46.54 125.37,-33.47 105.6,-23.68"/>
<polygon fill="#63b8ff" stroke="#63b8ff" points="107.02,-20.47 96.5,-19.17 103.91,-26.75 107.02,-20.47"/>
</a>
</g>
</g>
<!-- Node23 -->
<g id="Node000023" class="node">
<title>Node23</title>
<g id="a_Node000023"><a xlink:title=" ">
<polygon fill="#e0e0e0" stroke="#999999" points="178.5,-19 119.5,-19 119.5,0 178.5,0 178.5,-19"/>
<text text-anchor="middle" x="149" y="-7" font-family="Helvetica,sans-Serif" font-size="10.00">tmap.tcc</text>
</a>
</g>
</g>
<!-- Node20&#45;&gt;Node23 -->
<g id="edge33_Node000020_Node000023" class="edge">
<title>Node20&#45;&gt;Node23</title>
<g id="a_edge33_Node000020_Node000023"><a xlink:title=" ">
<path fill="none" stroke="#63b8ff" d="M179.89,-54.75C174.72,-47.34 167.15,-36.5 160.81,-27.41"/>
<polygon fill="#63b8ff" stroke="#63b8ff" points="163.59,-25.29 155,-19.09 157.85,-29.29 163.59,-25.29"/>
</a>
</g>
</g>
<!-- Node24&#45;&gt;Node7 -->
<g id="edge42_Node000024_Node000007" class="edge">
<title>Node24&#45;&gt;Node7</title>
<g id="a_edge42_Node000024_Node000007"><a xlink:title=" ">
<path fill="none" stroke="#63b8ff" d="M522.14,-169.32C555.99,-164.09 606.94,-152.75 645,-129 686.51,-103.09 719.49,-54.23 735.12,-28.07"/>
<polygon fill="#63b8ff" stroke="#63b8ff" points="738.25,-29.66 740.25,-19.26 732.2,-26.14 738.25,-29.66"/>
</a>
</g>
</g>
<!-- Node24&#45;&gt;Node12 -->
<g id="edge36_Node000024_Node000012" class="edge">
<title>Node24&#45;&gt;Node12</title>
<g id="a_edge36_Node000024_Node000012"><a xlink:title=" ">
<path fill="none" stroke="#63b8ff" d="M505.44,-164.98C524.99,-156.42 555.38,-143.11 577.82,-133.28"/>
<polygon fill="#63b8ff" stroke="#63b8ff" points="579.45,-136.39 587.21,-129.17 576.64,-129.98 579.45,-136.39"/>
</a>
</g>
</g>
<!-- Node24&#45;&gt;Node14 -->
<g id="edge37_Node000024_Node000014" class="edge">
<title>Node24&#45;&gt;Node14</title>
<g id="a_edge37_Node000024_Node000014"><a xlink:title=" ">
<path fill="none" stroke="#63b8ff" d="M469.48,-164.87C454.66,-156.71 432.73,-143.56 416,-129 399.86,-114.95 384.35,-95.94 374.12,-82.4"/>
<polygon fill="#63b8ff" stroke="#63b8ff" points="376.7,-79.99 367.95,-74.02 371.06,-84.14 376.7,-79.99"/>
</a>
</g>
</g>
<!-- Node25 -->
<g id="Node000025" class="node">
<title>Node25</title>
<g id="a_Node000025"><a xlink:href="tbytevectorlist_8h.html" target="_top" xlink:title=" ">
<polygon fill="white" stroke="#666666" points="521.5,-129 424.5,-129 424.5,-110 521.5,-110 521.5,-129"/>
<text text-anchor="middle" x="473" y="-117" font-family="Helvetica,sans-Serif" font-size="10.00">tbytevectorlist.h</text>
</a>
</g>
</g>
<!-- Node24&#45;&gt;Node25 -->
<g id="edge38_Node000024_Node000025" class="edge">
<title>Node24&#45;&gt;Node25</title>
<g id="a_edge38_Node000024_Node000025"><a xlink:title=" ">
<path fill="none" stroke="#63b8ff" d="M483.85,-164.75C482.13,-157.72 479.65,-147.62 477.5,-138.84"/>
<polygon fill="#63b8ff" stroke="#63b8ff" points="480.89,-137.97 475.11,-129.09 474.09,-139.63 480.89,-137.97"/>
</a>
</g>
</g>
<!-- Node25&#45;&gt;Node3 -->
<g id="edge39_Node000025_Node000003" class="edge">
<title>Node25&#45;&gt;Node3</title>
<g id="a_edge39_Node000025_Node000003"><a xlink:title=" ">
<path fill="none" stroke="#63b8ff" d="M480.6,-109.75C487.16,-102.18 496.82,-91.05 504.81,-81.84"/>
<polygon fill="#63b8ff" stroke="#63b8ff" points="507.63,-83.94 511.55,-74.09 502.35,-79.35 507.63,-83.94"/>
</a>
</g>
</g>
<!-- Node25&#45;&gt;Node7 -->
<g id="edge41_Node000025_Node000007" class="edge">
<title>Node25&#45;&gt;Node7</title>
<g id="a_edge41_Node000025_Node000007"><a xlink:title=" ">
<path fill="none" stroke="#63b8ff" d="M491.84,-109.97C511.25,-101.13 542.35,-86.83 569,-74 586.01,-65.81 589.52,-62.14 607,-55 639.07,-41.9 676.53,-30.03 704.33,-21.85"/>
<polygon fill="#63b8ff" stroke="#63b8ff" points="705.48,-25.16 714.1,-19 703.52,-18.43 705.48,-25.16"/>
</a>
</g>
</g>
<!-- Node25&#45;&gt;Node14 -->
<g id="edge40_Node000025_Node000014" class="edge">
<title>Node25&#45;&gt;Node14</title>
<g id="a_edge40_Node000025_Node000014"><a xlink:title=" ">
<path fill="none" stroke="#63b8ff" d="M455.17,-109.98C437.39,-101.5 409.85,-88.35 389.32,-78.54"/>
<polygon fill="#63b8ff" stroke="#63b8ff" points="390.69,-75.32 380.16,-74.17 387.67,-81.64 390.69,-75.32"/>
</a>
</g>
</g>
<!-- Node26&#45;&gt;Node4 -->
<g id="edge45_Node000026_Node000004" class="edge">
<title>Node26&#45;&gt;Node4</title>
<g id="a_edge45_Node000026_Node000004"><a xlink:title=" ">
<path fill="none" stroke="#63b8ff" d="M691.95,-113.02C617.65,-104.62 486.72,-88.07 470,-74 456.9,-62.98 451.59,-43.72 449.44,-29.3"/>
<polygon fill="#63b8ff" stroke="#63b8ff" points="452.88,-28.57 448.31,-19.01 445.92,-29.34 452.88,-28.57"/>
</a>
</g>
</g>
<!-- Node26&#45;&gt;Node7 -->
<g id="edge47_Node000026_Node000007" class="edge">
<title>Node26&#45;&gt;Node7</title>
<g id="a_edge47_Node000026_Node000007"><a xlink:title=" ">
<path fill="none" stroke="#63b8ff" d="M743.16,-109.66C743.49,-92.17 744.22,-52.8 744.65,-29.27"/>
<polygon fill="#63b8ff" stroke="#63b8ff" points="748.15,-29.22 744.84,-19.16 741.16,-29.09 748.15,-29.22"/>
</a>
</g>
</g>
<!-- Node26&#45;&gt;Node9 -->
<g id="edge46_Node000026_Node000009" class="edge">
<title>Node26&#45;&gt;Node9</title>
<g id="a_edge46_Node000026_Node000009"><a xlink:title=" ">
<path fill="none" stroke="#63b8ff" d="M791.52,-109.98C851.98,-99.37 953.95,-81.48 1008.3,-71.94"/>
<polygon fill="#63b8ff" stroke="#63b8ff" points="1008.95,-75.38 1018.2,-70.2 1007.74,-68.49 1008.95,-75.38"/>
</a>
</g>
</g>
</g>
</svg>
