<?xml version="1.0" encoding="UTF-8" standalone="no"?>
<!DOCTYPE svg PUBLIC "-//W3C//DTD SVG 1.1//EN"
 "http://www.w3.org/Graphics/SVG/1.1/DTD/svg11.dtd">
<!-- Generated by graphviz version 2.42.4 (0)
 -->
<!-- Title: flacpicture.h Pages: 1 -->
<svg width="630pt" height="192pt"
 viewBox="0.00 0.00 630.00 192.00" xmlns="http://www.w3.org/2000/svg" xmlns:xlink="http://www.w3.org/1999/xlink">
<g id="graph0" class="graph" transform="scale(1 1) rotate(0) translate(4 188)">
<title>flacpicture.h</title>
<!-- Node1 -->
<g id="Node000001" class="node">
<title>Node1</title>
<g id="a_Node000001"><a xlink:title=" ">
<polygon fill="#999999" stroke="#666666" points="429,-184 352,-184 352,-165 429,-165 429,-184"/>
<text text-anchor="middle" x="390.5" y="-172" font-family="Helvetica,sans-Serif" font-size="10.00">flacpicture.h</text>
</a>
</g>
</g>
<!-- Node2 -->
<g id="Node000002" class="node">
<title>Node2</title>
<g id="a_Node000002"><a xlink:href="tlist_8h.html" target="_top" xlink:title=" ">
<polygon fill="white" stroke="#666666" points="185.5,-129 141.5,-129 141.5,-110 185.5,-110 185.5,-129"/>
<text text-anchor="middle" x="163.5" y="-117" font-family="Helvetica,sans-Serif" font-size="10.00">tlist.h</text>
</a>
</g>
</g>
<!-- Node1&#45;&gt;Node2 -->
<g id="edge1_Node000001_Node000002" class="edge">
<title>Node1&#45;&gt;Node2</title>
<g id="a_edge1_Node000001_Node000002"><a xlink:title=" ">
<path fill="none" stroke="#63b8ff" d="M354.03,-164.98C310.24,-154.76 237.49,-137.78 195.7,-128.02"/>
<polygon fill="#63b8ff" stroke="#63b8ff" points="196.31,-124.57 185.77,-125.7 194.72,-131.38 196.31,-124.57"/>
</a>
</g>
</g>
<!-- Node7 -->
<g id="Node000007" class="node">
<title>Node7</title>
<g id="a_Node000007"><a xlink:href="tstring_8h.html" target="_top" xlink:title=" ">
<polygon fill="white" stroke="#666666" points="519,-129 462,-129 462,-110 519,-110 519,-129"/>
<text text-anchor="middle" x="490.5" y="-117" font-family="Helvetica,sans-Serif" font-size="10.00">tstring.h</text>
</a>
</g>
</g>
<!-- Node1&#45;&gt;Node7 -->
<g id="edge6_Node000001_Node000007" class="edge">
<title>Node1&#45;&gt;Node7</title>
<g id="a_edge6_Node000001_Node000007"><a xlink:title=" ">
<path fill="none" stroke="#63b8ff" d="M406.57,-164.98C422.36,-156.61 446.72,-143.7 465.13,-133.95"/>
<polygon fill="#63b8ff" stroke="#63b8ff" points="466.94,-136.95 474.14,-129.17 463.67,-130.76 466.94,-136.95"/>
</a>
</g>
</g>
<!-- Node9 -->
<g id="Node000009" class="node">
<title>Node9</title>
<g id="a_Node000009"><a xlink:href="tbytevector_8h.html" target="_top" xlink:title=" ">
<polygon fill="white" stroke="#666666" points="367,-74 286,-74 286,-55 367,-55 367,-74"/>
<text text-anchor="middle" x="326.5" y="-62" font-family="Helvetica,sans-Serif" font-size="10.00">tbytevector.h</text>
</a>
</g>
</g>
<!-- Node1&#45;&gt;Node9 -->
<g id="edge14_Node000001_Node000009" class="edge">
<title>Node1&#45;&gt;Node9</title>
<g id="a_edge14_Node000001_Node000009"><a xlink:title=" ">
<path fill="none" stroke="#63b8ff" d="M351.79,-168.82C326.89,-163.58 296.33,-152.49 280.5,-129 269.03,-111.99 287.01,-92.99 303.74,-80.25"/>
<polygon fill="#63b8ff" stroke="#63b8ff" points="306.11,-82.86 312.21,-74.2 302.04,-77.17 306.11,-82.86"/>
</a>
</g>
</g>
<!-- Node12 -->
<g id="Node000012" class="node">
<title>Node12</title>
<g id="a_Node000012"><a xlink:href="taglib__export_8h.html" target="_top" xlink:title=" ">
<polygon fill="white" stroke="#666666" points="490.5,-19 400.5,-19 400.5,0 490.5,0 490.5,-19"/>
<text text-anchor="middle" x="445.5" y="-7" font-family="Helvetica,sans-Serif" font-size="10.00">taglib_export.h</text>
</a>
</g>
</g>
<!-- Node1&#45;&gt;Node12 -->
<g id="edge16_Node000001_Node000012" class="edge">
<title>Node1&#45;&gt;Node12</title>
<g id="a_edge16_Node000001_Node000012"><a xlink:title=" ">
<path fill="none" stroke="#63b8ff" d="M395.92,-164.93C401.26,-156.18 409.35,-142.07 414.5,-129 427.96,-94.82 437.37,-52.82 442.07,-29.11"/>
<polygon fill="#63b8ff" stroke="#63b8ff" points="445.55,-29.53 443.99,-19.05 438.67,-28.22 445.55,-29.53"/>
</a>
</g>
</g>
<!-- Node13 -->
<g id="Node000013" class="node">
<title>Node13</title>
<g id="a_Node000013"><a xlink:href="tpicturetype_8h.html" target="_top" xlink:title=" ">
<polygon fill="white" stroke="#666666" points="622,-129 537,-129 537,-110 622,-110 622,-129"/>
<text text-anchor="middle" x="579.5" y="-117" font-family="Helvetica,sans-Serif" font-size="10.00">tpicturetype.h</text>
</a>
</g>
</g>
<!-- Node1&#45;&gt;Node13 -->
<g id="edge15_Node000001_Node000013" class="edge">
<title>Node1&#45;&gt;Node13</title>
<g id="a_edge15_Node000001_Node000013"><a xlink:title=" ">
<path fill="none" stroke="#63b8ff" d="M420.87,-164.98C452.87,-156.01 503.46,-141.82 538.88,-131.89"/>
<polygon fill="#63b8ff" stroke="#63b8ff" points="540.21,-135.15 548.9,-129.08 538.32,-128.41 540.21,-135.15"/>
</a>
</g>
</g>
<!-- Node14 -->
<g id="Node000014" class="node">
<title>Node14</title>
<g id="a_Node000014"><a xlink:href="flacmetadatablock_8h.html" target="_top" xlink:title=" ">
<polygon fill="white" stroke="#666666" points="405.5,-129 289.5,-129 289.5,-110 405.5,-110 405.5,-129"/>
<text text-anchor="middle" x="347.5" y="-117" font-family="Helvetica,sans-Serif" font-size="10.00">flacmetadatablock.h</text>
</a>
</g>
</g>
<!-- Node1&#45;&gt;Node14 -->
<g id="edge17_Node000001_Node000014" class="edge">
<title>Node1&#45;&gt;Node14</title>
<g id="a_edge17_Node000001_Node000014"><a xlink:title=" ">
<path fill="none" stroke="#63b8ff" d="M383.4,-164.75C377.33,-157.26 368.41,-146.28 360.99,-137.13"/>
<polygon fill="#63b8ff" stroke="#63b8ff" points="363.49,-134.65 354.47,-129.09 358.05,-139.06 363.49,-134.65"/>
</a>
</g>
</g>
<!-- Node3 -->
<g id="Node000003" class="node">
<title>Node3</title>
<g id="a_Node000003"><a xlink:title=" ">
<polygon fill="#e0e0e0" stroke="#999999" points="103.5,-74 71.5,-74 71.5,-55 103.5,-55 103.5,-74"/>
<text text-anchor="middle" x="87.5" y="-62" font-family="Helvetica,sans-Serif" font-size="10.00">list</text>
</a>
</g>
</g>
<!-- Node2&#45;&gt;Node3 -->
<g id="edge2_Node000002_Node000003" class="edge">
<title>Node2&#45;&gt;Node3</title>
<g id="a_edge2_Node000002_Node000003"><a xlink:title=" ">
<path fill="none" stroke="#63b8ff" d="M151.29,-109.98C139.72,-101.92 122.12,-89.65 108.34,-80.03"/>
<polygon fill="#63b8ff" stroke="#63b8ff" points="110.14,-77.02 99.93,-74.17 106.13,-82.76 110.14,-77.02"/>
</a>
</g>
</g>
<!-- Node4 -->
<g id="Node000004" class="node">
<title>Node4</title>
<g id="a_Node000004"><a xlink:title=" ">
<polygon fill="#e0e0e0" stroke="#999999" points="205,-74 122,-74 122,-55 205,-55 205,-74"/>
<text text-anchor="middle" x="163.5" y="-62" font-family="Helvetica,sans-Serif" font-size="10.00">initializer_list</text>
</a>
</g>
</g>
<!-- Node2&#45;&gt;Node4 -->
<g id="edge3_Node000002_Node000004" class="edge">
<title>Node2&#45;&gt;Node4</title>
<g id="a_edge3_Node000002_Node000004"><a xlink:title=" ">
<path fill="none" stroke="#63b8ff" d="M163.5,-109.75C163.5,-102.8 163.5,-92.85 163.5,-84.13"/>
<polygon fill="#63b8ff" stroke="#63b8ff" points="167,-84.09 163.5,-74.09 160,-84.09 167,-84.09"/>
</a>
</g>
</g>
<!-- Node5 -->
<g id="Node000005" class="node">
<title>Node5</title>
<g id="a_Node000005"><a xlink:title=" ">
<polygon fill="#e0e0e0" stroke="#999999" points="250.5,-19 192.5,-19 192.5,0 250.5,0 250.5,-19"/>
<text text-anchor="middle" x="221.5" y="-7" font-family="Helvetica,sans-Serif" font-size="10.00">memory</text>
</a>
</g>
</g>
<!-- Node2&#45;&gt;Node5 -->
<g id="edge4_Node000002_Node000005" class="edge">
<title>Node2&#45;&gt;Node5</title>
<g id="a_edge4_Node000002_Node000005"><a xlink:title=" ">
<path fill="none" stroke="#63b8ff" d="M177.94,-109.86C189.61,-102.05 205.38,-89.43 213.5,-74 220.7,-60.31 222.44,-42.73 222.52,-29.54"/>
<polygon fill="#63b8ff" stroke="#63b8ff" points="226.01,-29.2 222.27,-19.29 219.02,-29.37 226.01,-29.2"/>
</a>
</g>
</g>
<!-- Node6 -->
<g id="Node000006" class="node">
<title>Node6</title>
<g id="a_Node000006"><a xlink:title=" ">
<polygon fill="#e0e0e0" stroke="#999999" points="53,-74 0,-74 0,-55 53,-55 53,-74"/>
<text text-anchor="middle" x="26.5" y="-62" font-family="Helvetica,sans-Serif" font-size="10.00">tlist.tcc</text>
</a>
</g>
</g>
<!-- Node2&#45;&gt;Node6 -->
<g id="edge5_Node000002_Node000006" class="edge">
<title>Node2&#45;&gt;Node6</title>
<g id="a_edge5_Node000002_Node000006"><a xlink:title=" ">
<path fill="none" stroke="#63b8ff" d="M141.49,-109.98C119.05,-101.3 84.02,-87.75 58.51,-77.88"/>
<polygon fill="#63b8ff" stroke="#63b8ff" points="59.5,-74.51 48.91,-74.17 56.98,-81.04 59.5,-74.51"/>
</a>
</g>
</g>
<!-- Node8 -->
<g id="Node000008" class="node">
<title>Node8</title>
<g id="a_Node000008"><a xlink:title=" ">
<polygon fill="#e0e0e0" stroke="#999999" points="505.5,-74 461.5,-74 461.5,-55 505.5,-55 505.5,-74"/>
<text text-anchor="middle" x="483.5" y="-62" font-family="Helvetica,sans-Serif" font-size="10.00">string</text>
</a>
</g>
</g>
<!-- Node7&#45;&gt;Node8 -->
<g id="edge7_Node000007_Node000008" class="edge">
<title>Node7&#45;&gt;Node8</title>
<g id="a_edge7_Node000007_Node000008"><a xlink:title=" ">
<path fill="none" stroke="#63b8ff" d="M489.34,-109.75C488.43,-102.8 487.11,-92.85 485.96,-84.13"/>
<polygon fill="#63b8ff" stroke="#63b8ff" points="489.41,-83.54 484.63,-74.09 482.47,-84.46 489.41,-83.54"/>
</a>
</g>
</g>
<!-- Node7&#45;&gt;Node9 -->
<g id="edge8_Node000007_Node000009" class="edge">
<title>Node7&#45;&gt;Node9</title>
<g id="a_edge8_Node000007_Node000009"><a xlink:title=" ">
<path fill="none" stroke="#63b8ff" d="M464.15,-109.98C436.74,-101.13 393.61,-87.19 362.94,-77.28"/>
<polygon fill="#63b8ff" stroke="#63b8ff" points="363.65,-73.83 353.06,-74.08 361.5,-80.49 363.65,-73.83"/>
</a>
</g>
</g>
<!-- Node7&#45;&gt;Node12 -->
<g id="edge13_Node000007_Node000012" class="edge">
<title>Node7&#45;&gt;Node12</title>
<g id="a_edge13_Node000007_Node000012"><a xlink:title=" ">
<path fill="none" stroke="#63b8ff" d="M498.27,-109.96C508.66,-97.45 524.65,-73.63 514.5,-55 506.85,-40.97 492.67,-30.69 479.14,-23.57"/>
<polygon fill="#63b8ff" stroke="#63b8ff" points="480.49,-20.34 469.97,-19.14 477.45,-26.64 480.49,-20.34"/>
</a>
</g>
</g>
<!-- Node9&#45;&gt;Node5 -->
<g id="edge9_Node000009_Node000005" class="edge">
<title>Node9&#45;&gt;Node5</title>
<g id="a_edge9_Node000009_Node000005"><a xlink:title=" ">
<path fill="none" stroke="#63b8ff" d="M309.63,-54.98C292.89,-46.54 267,-33.47 247.61,-23.68"/>
<polygon fill="#63b8ff" stroke="#63b8ff" points="249.18,-20.55 238.68,-19.17 246.03,-26.8 249.18,-20.55"/>
</a>
</g>
</g>
<!-- Node10 -->
<g id="Node000010" class="node">
<title>Node10</title>
<g id="a_Node000010"><a xlink:title=" ">
<polygon fill="#e0e0e0" stroke="#999999" points="316,-19 269,-19 269,0 316,0 316,-19"/>
<text text-anchor="middle" x="292.5" y="-7" font-family="Helvetica,sans-Serif" font-size="10.00">vector</text>
</a>
</g>
</g>
<!-- Node9&#45;&gt;Node10 -->
<g id="edge10_Node000009_Node000010" class="edge">
<title>Node9&#45;&gt;Node10</title>
<g id="a_edge10_Node000009_Node000010"><a xlink:title=" ">
<path fill="none" stroke="#63b8ff" d="M320.89,-54.75C316.18,-47.42 309.33,-36.73 303.53,-27.7"/>
<polygon fill="#63b8ff" stroke="#63b8ff" points="306.36,-25.62 298.01,-19.09 300.46,-29.4 306.36,-25.62"/>
</a>
</g>
</g>
<!-- Node11 -->
<g id="Node000011" class="node">
<title>Node11</title>
<g id="a_Node000011"><a xlink:title=" ">
<polygon fill="#e0e0e0" stroke="#999999" points="382.5,-19 334.5,-19 334.5,0 382.5,0 382.5,-19"/>
<text text-anchor="middle" x="358.5" y="-7" font-family="Helvetica,sans-Serif" font-size="10.00">iosfwd</text>
</a>
</g>
</g>
<!-- Node9&#45;&gt;Node11 -->
<g id="edge11_Node000009_Node000011" class="edge">
<title>Node9&#45;&gt;Node11</title>
<g id="a_edge11_Node000009_Node000011"><a xlink:title=" ">
<path fill="none" stroke="#63b8ff" d="M331.78,-54.75C336.21,-47.42 342.66,-36.73 348.12,-27.7"/>
<polygon fill="#63b8ff" stroke="#63b8ff" points="351.14,-29.46 353.31,-19.09 345.15,-25.84 351.14,-29.46"/>
</a>
</g>
</g>
<!-- Node9&#45;&gt;Node12 -->
<g id="edge12_Node000009_Node000012" class="edge">
<title>Node9&#45;&gt;Node12</title>
<g id="a_edge12_Node000009_Node000012"><a xlink:title=" ">
<path fill="none" stroke="#63b8ff" d="M345.62,-54.98C364.85,-46.42 394.73,-33.11 416.81,-23.28"/>
<polygon fill="#63b8ff" stroke="#63b8ff" points="418.32,-26.44 426.03,-19.17 415.47,-20.04 418.32,-26.44"/>
</a>
</g>
</g>
<!-- Node14&#45;&gt;Node9 -->
<g id="edge18_Node000014_Node000009" class="edge">
<title>Node14&#45;&gt;Node9</title>
<g id="a_edge18_Node000014_Node000009"><a xlink:title=" ">
<path fill="none" stroke="#63b8ff" d="M344.03,-109.75C341.22,-102.65 337.16,-92.4 333.65,-83.56"/>
<polygon fill="#63b8ff" stroke="#63b8ff" points="336.84,-82.1 329.9,-74.09 330.33,-84.68 336.84,-82.1"/>
</a>
</g>
</g>
<!-- Node14&#45;&gt;Node12 -->
<g id="edge19_Node000014_Node000012" class="edge">
<title>Node14&#45;&gt;Node12</title>
<g id="a_edge19_Node000014_Node000012"><a xlink:title=" ">
<path fill="none" stroke="#63b8ff" d="M355.52,-109.66C371.97,-91.54 409.74,-49.91 430.74,-26.77"/>
<polygon fill="#63b8ff" stroke="#63b8ff" points="433.52,-28.92 437.64,-19.16 428.33,-24.21 433.52,-28.92"/>
</a>
</g>
</g>
</g>
</svg>
