<?xml version="1.0" encoding="UTF-8" standalone="no"?>
<!DOCTYPE svg PUBLIC "-//W3C//DTD SVG 1.1//EN"
 "http://www.w3.org/Graphics/SVG/1.1/DTD/svg11.dtd">
<!-- Generated by graphviz version 2.43.0 (0)
 -->
<!-- Title: flacfile.h Pages: 1 -->
<svg width="1100pt" height="364pt"
 viewBox="0.00 0.00 1099.81 364.00" xmlns="http://www.w3.org/2000/svg" xmlns:xlink="http://www.w3.org/1999/xlink">
<g id="graph0" class="graph" transform="scale(1 1) rotate(0) translate(4 360)">
<title>flacfile.h</title>
<polygon fill="white" stroke="transparent" points="-4,4 -4,-360 1095.81,-360 1095.81,4 -4,4"/>
<!-- Node1 -->
<g id="node1" class="node">
<title>Node1</title>
<g id="a_node1"><a xlink:title=" ">
<polygon fill="#bfbfbf" stroke="black" points="380.31,-336.5 380.31,-355.5 438.31,-355.5 438.31,-336.5 380.31,-336.5"/>
<text text-anchor="middle" x="409.31" y="-343.5" font-family="Helvetica,sans-Serif" font-size="10.00">flacfile.h</text>
</a>
</g>
</g>
<!-- Node2 -->
<g id="node2" class="node">
<title>Node2</title>
<g id="a_node2"><a xlink:href="tfile_8h.html" target="_top" xlink:title=" ">
<polygon fill="white" stroke="black" points="219.31,-280.5 219.31,-299.5 263.31,-299.5 263.31,-280.5 219.31,-280.5"/>
<text text-anchor="middle" x="241.31" y="-287.5" font-family="Helvetica,sans-Serif" font-size="10.00">tfile.h</text>
</a>
</g>
</g>
<!-- Node1&#45;&gt;Node2 -->
<g id="edge1" class="edge">
<title>Node1&#45;&gt;Node2</title>
<path fill="none" stroke="midnightblue" d="M382.69,-336.44C352.97,-326.89 304.89,-311.44 273.19,-301.25"/>
<polygon fill="midnightblue" stroke="midnightblue" points="274.11,-297.86 263.51,-298.14 271.96,-304.53 274.11,-297.86"/>
</g>
<!-- Node7 -->
<g id="node7" class="node">
<title>Node7</title>
<g id="a_node7"><a xlink:href="taglib__export_8h.html" target="_top" xlink:title=" ">
<polygon fill="white" stroke="black" points="301.31,-56.5 301.31,-75.5 391.31,-75.5 391.31,-56.5 301.31,-56.5"/>
<text text-anchor="middle" x="346.31" y="-63.5" font-family="Helvetica,sans-Serif" font-size="10.00">taglib_export.h</text>
</a>
</g>
</g>
<!-- Node1&#45;&gt;Node7 -->
<g id="edge36" class="edge">
<title>Node1&#45;&gt;Node7</title>
<path fill="none" stroke="midnightblue" d="M391.02,-336.35C360.94,-320.69 304.31,-284.63 304.31,-235 304.31,-235 304.31,-235 304.31,-177 304.31,-142.41 322.66,-105.49 335.1,-84.43"/>
<polygon fill="midnightblue" stroke="midnightblue" points="338.22,-86.04 340.47,-75.69 332.25,-82.38 338.22,-86.04"/>
</g>
<!-- Node11 -->
<g id="node11" class="node">
<title>Node11</title>
<g id="a_node11"><a xlink:href="tag_8h.html" target="_top" xlink:title=" ">
<polygon fill="white" stroke="black" points="681.81,-224.5 681.81,-243.5 722.81,-243.5 722.81,-224.5 681.81,-224.5"/>
<text text-anchor="middle" x="702.31" y="-231.5" font-family="Helvetica,sans-Serif" font-size="10.00">tag.h</text>
</a>
</g>
</g>
<!-- Node1&#45;&gt;Node11 -->
<g id="edge37" class="edge">
<title>Node1&#45;&gt;Node11</title>
<path fill="none" stroke="midnightblue" d="M432.3,-336.37C484.84,-316.64 613.69,-268.27 672.35,-246.25"/>
<polygon fill="midnightblue" stroke="midnightblue" points="673.66,-249.49 681.8,-242.7 671.2,-242.94 673.66,-249.49"/>
</g>
<!-- Node14 -->
<g id="node14" class="node">
<title>Node14</title>
<g id="a_node14"><a xlink:href="tlist_8h.html" target="_top" xlink:title=" ">
<polygon fill="white" stroke="black" points="831.31,-112.5 831.31,-131.5 875.31,-131.5 875.31,-112.5 831.31,-112.5"/>
<text text-anchor="middle" x="853.31" y="-119.5" font-family="Helvetica,sans-Serif" font-size="10.00">tlist.h</text>
</a>
</g>
</g>
<!-- Node1&#45;&gt;Node14 -->
<g id="edge35" class="edge">
<title>Node1&#45;&gt;Node14</title>
<path fill="none" stroke="midnightblue" d="M438.34,-340.06C533.55,-323.2 833.35,-264.71 887.31,-188 898.34,-172.33 884.66,-152.62 871.5,-139.04"/>
<polygon fill="midnightblue" stroke="midnightblue" points="873.64,-136.24 864.01,-131.83 868.79,-141.28 873.64,-136.24"/>
</g>
<!-- Node23 -->
<g id="node23" class="node">
<title>Node23</title>
<g id="a_node23"><a xlink:href="flacpicture_8h.html" target="_top" xlink:title=" ">
<polygon fill="white" stroke="black" points="475.81,-224.5 475.81,-243.5 552.81,-243.5 552.81,-224.5 475.81,-224.5"/>
<text text-anchor="middle" x="514.31" y="-231.5" font-family="Helvetica,sans-Serif" font-size="10.00">flacpicture.h</text>
</a>
</g>
</g>
<!-- Node1&#45;&gt;Node23 -->
<g id="edge38" class="edge">
<title>Node1&#45;&gt;Node23</title>
<path fill="none" stroke="midnightblue" d="M417.55,-336.37C435.11,-317.97 476.44,-274.67 498.99,-251.05"/>
<polygon fill="midnightblue" stroke="midnightblue" points="501.74,-253.24 506.11,-243.59 496.67,-248.41 501.74,-253.24"/>
</g>
<!-- Node26 -->
<g id="node26" class="node">
<title>Node26</title>
<g id="a_node26"><a xlink:href="flacproperties_8h.html" target="_top" xlink:title=" ">
<polygon fill="white" stroke="black" points="16.31,-168.5 16.31,-187.5 108.31,-187.5 108.31,-168.5 16.31,-168.5"/>
<text text-anchor="middle" x="62.31" y="-175.5" font-family="Helvetica,sans-Serif" font-size="10.00">flacproperties.h</text>
</a>
</g>
</g>
<!-- Node1&#45;&gt;Node26 -->
<g id="edge47" class="edge">
<title>Node1&#45;&gt;Node26</title>
<path fill="none" stroke="midnightblue" d="M380.25,-342.64C340.22,-338.48 266.66,-327.49 210.31,-300 154.87,-272.95 101.91,-221.39 77.06,-195.17"/>
<polygon fill="midnightblue" stroke="midnightblue" points="79.39,-192.54 70.01,-187.61 74.27,-197.31 79.39,-192.54"/>
</g>
<!-- Node3 -->
<g id="node3" class="node">
<title>Node3</title>
<g id="a_node3"><a xlink:href="tbytevector_8h.html" target="_top" xlink:title=" ">
<polygon fill="white" stroke="black" points="387.81,-112.5 387.81,-131.5 468.81,-131.5 468.81,-112.5 387.81,-112.5"/>
<text text-anchor="middle" x="428.31" y="-119.5" font-family="Helvetica,sans-Serif" font-size="10.00">tbytevector.h</text>
</a>
</g>
</g>
<!-- Node2&#45;&gt;Node3 -->
<g id="edge2" class="edge">
<title>Node2&#45;&gt;Node3</title>
<path fill="none" stroke="midnightblue" d="M245,-280.45C254.74,-258.79 283.19,-201.12 323.31,-168 341.58,-152.92 365.66,-142.11 386.16,-134.88"/>
<polygon fill="midnightblue" stroke="midnightblue" points="387.52,-138.11 395.88,-131.61 385.29,-131.48 387.52,-138.11"/>
</g>
<!-- Node2&#45;&gt;Node7 -->
<g id="edge12" class="edge">
<title>Node2&#45;&gt;Node7</title>
<path fill="none" stroke="midnightblue" d="M241.83,-280.5C243.85,-253.59 252.98,-168.73 290.31,-112 298.48,-99.59 311.18,-88.98 322.41,-81.19"/>
<polygon fill="midnightblue" stroke="midnightblue" points="324.56,-83.97 331,-75.56 320.72,-78.11 324.56,-83.97"/>
</g>
<!-- Node8 -->
<g id="node8" class="node">
<title>Node8</title>
<g id="a_node8"><a xlink:href="tiostream_8h.html" target="_top" xlink:title=" ">
<polygon fill="white" stroke="black" points="126.81,-168.5 126.81,-187.5 199.81,-187.5 199.81,-168.5 126.81,-168.5"/>
<text text-anchor="middle" x="163.31" y="-175.5" font-family="Helvetica,sans-Serif" font-size="10.00">tiostream.h</text>
</a>
</g>
</g>
<!-- Node2&#45;&gt;Node8 -->
<g id="edge7" class="edge">
<title>Node2&#45;&gt;Node8</title>
<path fill="none" stroke="midnightblue" d="M235.19,-280.37C222.32,-262.22 192.24,-219.8 175.36,-195.99"/>
<polygon fill="midnightblue" stroke="midnightblue" points="178.04,-193.72 169.4,-187.59 172.33,-197.77 178.04,-193.72"/>
</g>
<!-- Node9 -->
<g id="node9" class="node">
<title>Node9</title>
<g id="a_node9"><a xlink:href="taglib_8h.html" target="_top" xlink:title=" ">
<polygon fill="white" stroke="black" points="40.81,-56.5 40.81,-75.5 93.81,-75.5 93.81,-56.5 40.81,-56.5"/>
<text text-anchor="middle" x="67.31" y="-63.5" font-family="Helvetica,sans-Serif" font-size="10.00">taglib.h</text>
</a>
</g>
</g>
<!-- Node2&#45;&gt;Node9 -->
<g id="edge13" class="edge">
<title>Node2&#45;&gt;Node9</title>
<path fill="none" stroke="midnightblue" d="M219.24,-287.19C170.83,-281.89 55.81,-261.76 7.31,-188 -16.17,-152.29 24.2,-106.09 49.41,-82.44"/>
<polygon fill="midnightblue" stroke="midnightblue" points="51.9,-84.91 56.96,-75.6 47.2,-79.72 51.9,-84.91"/>
</g>
<!-- Node2&#45;&gt;Node11 -->
<g id="edge14" class="edge">
<title>Node2&#45;&gt;Node11</title>
<path fill="none" stroke="midnightblue" d="M263.55,-286.4C338.91,-277.57 584.8,-248.77 671.61,-238.6"/>
<polygon fill="midnightblue" stroke="midnightblue" points="672.1,-242.06 681.62,-237.42 671.28,-235.11 672.1,-242.06"/>
</g>
<!-- Node4 -->
<g id="node4" class="node">
<title>Node4</title>
<g id="a_node4"><a xlink:title=" ">
<polygon fill="white" stroke="#bfbfbf" points="594.31,-56.5 594.31,-75.5 652.31,-75.5 652.31,-56.5 594.31,-56.5"/>
<text text-anchor="middle" x="623.31" y="-63.5" font-family="Helvetica,sans-Serif" font-size="10.00">memory</text>
</a>
</g>
</g>
<!-- Node3&#45;&gt;Node4 -->
<g id="edge3" class="edge">
<title>Node3&#45;&gt;Node4</title>
<path fill="none" stroke="midnightblue" d="M459.21,-112.44C493.08,-103.07 547.48,-88 584.27,-77.81"/>
<polygon fill="midnightblue" stroke="midnightblue" points="585.45,-81.12 594.15,-75.08 583.58,-74.37 585.45,-81.12"/>
</g>
<!-- Node5 -->
<g id="node5" class="node">
<title>Node5</title>
<g id="a_node5"><a xlink:title=" ">
<polygon fill="white" stroke="#bfbfbf" points="409.81,-56.5 409.81,-75.5 456.81,-75.5 456.81,-56.5 409.81,-56.5"/>
<text text-anchor="middle" x="433.31" y="-63.5" font-family="Helvetica,sans-Serif" font-size="10.00">vector</text>
</a>
</g>
</g>
<!-- Node3&#45;&gt;Node5 -->
<g id="edge4" class="edge">
<title>Node3&#45;&gt;Node5</title>
<path fill="none" stroke="midnightblue" d="M429.14,-112.08C429.79,-105.01 430.73,-94.86 431.55,-85.99"/>
<polygon fill="midnightblue" stroke="midnightblue" points="435.06,-86.03 432.5,-75.75 428.09,-85.39 435.06,-86.03"/>
</g>
<!-- Node6 -->
<g id="node6" class="node">
<title>Node6</title>
<g id="a_node6"><a xlink:title=" ">
<polygon fill="white" stroke="#bfbfbf" points="490.31,-56.5 490.31,-75.5 538.31,-75.5 538.31,-56.5 490.31,-56.5"/>
<text text-anchor="middle" x="514.31" y="-63.5" font-family="Helvetica,sans-Serif" font-size="10.00">iosfwd</text>
</a>
</g>
</g>
<!-- Node3&#45;&gt;Node6 -->
<g id="edge5" class="edge">
<title>Node3&#45;&gt;Node6</title>
<path fill="none" stroke="midnightblue" d="M442.13,-112.32C455.54,-103.9 476.14,-90.97 491.9,-81.07"/>
<polygon fill="midnightblue" stroke="midnightblue" points="493.92,-83.94 500.53,-75.65 490.2,-78.01 493.92,-83.94"/>
</g>
<!-- Node3&#45;&gt;Node7 -->
<g id="edge6" class="edge">
<title>Node3&#45;&gt;Node7</title>
<path fill="none" stroke="midnightblue" d="M415.14,-112.32C402.46,-103.98 383.08,-91.21 368.11,-81.35"/>
<polygon fill="midnightblue" stroke="midnightblue" points="369.73,-78.23 359.45,-75.65 365.88,-84.08 369.73,-78.23"/>
</g>
<!-- Node8&#45;&gt;Node3 -->
<g id="edge8" class="edge">
<title>Node8&#45;&gt;Node3</title>
<path fill="none" stroke="midnightblue" d="M199.88,-169.55C246.07,-160.14 325.78,-143.89 377.77,-133.3"/>
<polygon fill="midnightblue" stroke="midnightblue" points="378.68,-136.69 387.78,-131.26 377.28,-129.83 378.68,-136.69"/>
</g>
<!-- Node8&#45;&gt;Node7 -->
<g id="edge9" class="edge">
<title>Node8&#45;&gt;Node7</title>
<path fill="none" stroke="midnightblue" d="M173.14,-168.46C188.62,-155.27 219.95,-129.63 249.31,-112 270.41,-99.33 295.68,-87.71 315.13,-79.45"/>
<polygon fill="midnightblue" stroke="midnightblue" points="316.57,-82.65 324.45,-75.57 313.87,-76.19 316.57,-82.65"/>
</g>
<!-- Node8&#45;&gt;Node9 -->
<g id="edge10" class="edge">
<title>Node8&#45;&gt;Node9</title>
<path fill="none" stroke="midnightblue" d="M139.15,-168.48C122.06,-161.28 99.85,-149.33 86.31,-132 75.92,-118.69 71.21,-99.86 69.07,-85.89"/>
<polygon fill="midnightblue" stroke="midnightblue" points="72.54,-85.43 67.85,-75.93 65.59,-86.28 72.54,-85.43"/>
</g>
<!-- Node10 -->
<g id="node10" class="node">
<title>Node10</title>
<g id="a_node10"><a xlink:title=" ">
<polygon fill="white" stroke="#bfbfbf" points="31.31,-0.5 31.31,-19.5 103.31,-19.5 103.31,-0.5 31.31,-0.5"/>
<text text-anchor="middle" x="67.31" y="-7.5" font-family="Helvetica,sans-Serif" font-size="10.00">sys/types.h</text>
</a>
</g>
</g>
<!-- Node9&#45;&gt;Node10 -->
<g id="edge11" class="edge">
<title>Node9&#45;&gt;Node10</title>
<path fill="none" stroke="midnightblue" d="M67.31,-56.08C67.31,-49.01 67.31,-38.86 67.31,-29.99"/>
<polygon fill="midnightblue" stroke="midnightblue" points="70.81,-29.75 67.31,-19.75 63.81,-29.75 70.81,-29.75"/>
</g>
<!-- Node11&#45;&gt;Node7 -->
<g id="edge15" class="edge">
<title>Node11&#45;&gt;Node7</title>
<path fill="none" stroke="midnightblue" d="M706.09,-224.48C715.26,-202.37 735.76,-142.77 705.31,-112 659.28,-65.47 483.18,-83.92 401.33,-75.86"/>
<polygon fill="midnightblue" stroke="midnightblue" points="401.71,-72.38 391.37,-74.67 400.88,-79.33 401.71,-72.38"/>
</g>
<!-- Node12 -->
<g id="node12" class="node">
<title>Node12</title>
<g id="a_node12"><a xlink:href="tstring_8h.html" target="_top" xlink:title=" ">
<polygon fill="white" stroke="black" points="645.81,-168.5 645.81,-187.5 702.81,-187.5 702.81,-168.5 645.81,-168.5"/>
<text text-anchor="middle" x="674.31" y="-175.5" font-family="Helvetica,sans-Serif" font-size="10.00">tstring.h</text>
</a>
</g>
</g>
<!-- Node11&#45;&gt;Node12 -->
<g id="edge16" class="edge">
<title>Node11&#45;&gt;Node12</title>
<path fill="none" stroke="midnightblue" d="M697.69,-224.08C693.86,-216.69 688.29,-205.95 683.55,-196.81"/>
<polygon fill="midnightblue" stroke="midnightblue" points="686.56,-195.02 678.85,-187.75 680.35,-198.24 686.56,-195.02"/>
</g>
<!-- Node11&#45;&gt;Node14 -->
<g id="edge20" class="edge">
<title>Node11&#45;&gt;Node14</title>
<path fill="none" stroke="midnightblue" d="M723.01,-230.57C763.84,-225.31 852.34,-211.42 870.31,-188 880.81,-174.32 873.51,-154.75 865.47,-140.67"/>
<polygon fill="midnightblue" stroke="midnightblue" points="868.27,-138.55 859.99,-131.93 862.34,-142.26 868.27,-138.55"/>
</g>
<!-- Node18 -->
<g id="node18" class="node">
<title>Node18</title>
<g id="a_node18"><a xlink:href="tvariant_8h.html" target="_top" xlink:title=" ">
<polygon fill="white" stroke="black" points="797.31,-168.5 797.31,-187.5 861.31,-187.5 861.31,-168.5 797.31,-168.5"/>
<text text-anchor="middle" x="829.31" y="-175.5" font-family="Helvetica,sans-Serif" font-size="10.00">tvariant.h</text>
</a>
</g>
</g>
<!-- Node11&#45;&gt;Node18 -->
<g id="edge25" class="edge">
<title>Node11&#45;&gt;Node18</title>
<path fill="none" stroke="midnightblue" d="M722.43,-224.44C743.34,-215.56 776.25,-201.56 800.03,-191.45"/>
<polygon fill="midnightblue" stroke="midnightblue" points="801.45,-194.65 809.28,-187.52 798.71,-188.21 801.45,-194.65"/>
</g>
<!-- Node12&#45;&gt;Node3 -->
<g id="edge18" class="edge">
<title>Node12&#45;&gt;Node3</title>
<path fill="none" stroke="midnightblue" d="M645.69,-170.16C642.53,-169.42 639.35,-168.69 636.31,-168 582.72,-155.86 521.19,-142.63 479.03,-133.68"/>
<polygon fill="midnightblue" stroke="midnightblue" points="479.53,-130.21 469.02,-131.56 478.07,-137.06 479.53,-130.21"/>
</g>
<!-- Node12&#45;&gt;Node7 -->
<g id="edge19" class="edge">
<title>Node12&#45;&gt;Node7</title>
<path fill="none" stroke="midnightblue" d="M657.62,-168.4C630.9,-154.9 576.6,-128.57 528.31,-112 485.96,-97.46 436.57,-85.56 399.94,-77.65"/>
<polygon fill="midnightblue" stroke="midnightblue" points="400.47,-74.18 389.96,-75.53 399.01,-81.03 400.47,-74.18"/>
</g>
<!-- Node13 -->
<g id="node13" class="node">
<title>Node13</title>
<g id="a_node13"><a xlink:title=" ">
<polygon fill="white" stroke="#bfbfbf" points="652.31,-112.5 652.31,-131.5 696.31,-131.5 696.31,-112.5 652.31,-112.5"/>
<text text-anchor="middle" x="674.31" y="-119.5" font-family="Helvetica,sans-Serif" font-size="10.00">string</text>
</a>
</g>
</g>
<!-- Node12&#45;&gt;Node13 -->
<g id="edge17" class="edge">
<title>Node12&#45;&gt;Node13</title>
<path fill="none" stroke="midnightblue" d="M674.31,-168.08C674.31,-161.01 674.31,-150.86 674.31,-141.99"/>
<polygon fill="midnightblue" stroke="midnightblue" points="677.81,-141.75 674.31,-131.75 670.81,-141.75 677.81,-141.75"/>
</g>
<!-- Node14&#45;&gt;Node4 -->
<g id="edge23" class="edge">
<title>Node14&#45;&gt;Node4</title>
<path fill="none" stroke="midnightblue" d="M831.24,-115.42C826.64,-114.27 821.82,-113.09 817.31,-112 763.78,-99.1 701.77,-84.83 662.55,-75.89"/>
<polygon fill="midnightblue" stroke="midnightblue" points="663.13,-72.44 652.6,-73.63 661.57,-79.26 663.13,-72.44"/>
</g>
<!-- Node15 -->
<g id="node15" class="node">
<title>Node15</title>
<g id="a_node15"><a xlink:title=" ">
<polygon fill="white" stroke="#bfbfbf" points="761.31,-56.5 761.31,-75.5 793.31,-75.5 793.31,-56.5 761.31,-56.5"/>
<text text-anchor="middle" x="777.31" y="-63.5" font-family="Helvetica,sans-Serif" font-size="10.00">list</text>
</a>
</g>
</g>
<!-- Node14&#45;&gt;Node15 -->
<g id="edge21" class="edge">
<title>Node14&#45;&gt;Node15</title>
<path fill="none" stroke="midnightblue" d="M841.1,-112.32C829.54,-104.11 811.94,-91.6 798.15,-81.81"/>
<polygon fill="midnightblue" stroke="midnightblue" points="799.92,-78.77 789.74,-75.83 795.87,-84.48 799.92,-78.77"/>
</g>
<!-- Node16 -->
<g id="node16" class="node">
<title>Node16</title>
<g id="a_node16"><a xlink:title=" ">
<polygon fill="white" stroke="#bfbfbf" points="811.81,-56.5 811.81,-75.5 894.81,-75.5 894.81,-56.5 811.81,-56.5"/>
<text text-anchor="middle" x="853.31" y="-63.5" font-family="Helvetica,sans-Serif" font-size="10.00">initializer_list</text>
</a>
</g>
</g>
<!-- Node14&#45;&gt;Node16 -->
<g id="edge22" class="edge">
<title>Node14&#45;&gt;Node16</title>
<path fill="none" stroke="midnightblue" d="M853.31,-112.08C853.31,-105.01 853.31,-94.86 853.31,-85.99"/>
<polygon fill="midnightblue" stroke="midnightblue" points="856.81,-85.75 853.31,-75.75 849.81,-85.75 856.81,-85.75"/>
</g>
<!-- Node17 -->
<g id="node17" class="node">
<title>Node17</title>
<g id="a_node17"><a xlink:title=" ">
<polygon fill="white" stroke="#bfbfbf" points="689.81,-56.5 689.81,-75.5 742.81,-75.5 742.81,-56.5 689.81,-56.5"/>
<text text-anchor="middle" x="716.31" y="-63.5" font-family="Helvetica,sans-Serif" font-size="10.00">tlist.tcc</text>
</a>
</g>
</g>
<!-- Node14&#45;&gt;Node17 -->
<g id="edge24" class="edge">
<title>Node14&#45;&gt;Node17</title>
<path fill="none" stroke="midnightblue" d="M831.6,-112.44C808.96,-103.52 773.24,-89.44 747.56,-79.32"/>
<polygon fill="midnightblue" stroke="midnightblue" points="748.5,-75.93 737.92,-75.52 745.94,-82.44 748.5,-75.93"/>
</g>
<!-- Node18&#45;&gt;Node6 -->
<g id="edge26" class="edge">
<title>Node18&#45;&gt;Node6</title>
<path fill="none" stroke="midnightblue" d="M825.23,-168.14C818.12,-153.78 802,-125.65 779.31,-112 759.76,-100.24 615.47,-80.19 548.4,-71.38"/>
<polygon fill="midnightblue" stroke="midnightblue" points="548.7,-67.89 538.33,-70.06 547.8,-74.83 548.7,-67.89"/>
</g>
<!-- Node18&#45;&gt;Node7 -->
<g id="edge34" class="edge">
<title>Node18&#45;&gt;Node7</title>
<path fill="none" stroke="midnightblue" d="M821.03,-168.42C806.45,-153.93 774.59,-124.94 741.31,-112 602.32,-57.98 553.42,-94.87 401.52,-76.04"/>
<polygon fill="midnightblue" stroke="midnightblue" points="401.73,-72.54 391.36,-74.72 400.83,-79.48 401.73,-72.54"/>
</g>
<!-- Node18&#45;&gt;Node14 -->
<g id="edge27" class="edge">
<title>Node18&#45;&gt;Node14</title>
<path fill="none" stroke="midnightblue" d="M833.27,-168.08C836.52,-160.77 841.23,-150.18 845.27,-141.1"/>
<polygon fill="midnightblue" stroke="midnightblue" points="848.56,-142.31 849.42,-131.75 842.16,-139.47 848.56,-142.31"/>
</g>
<!-- Node19 -->
<g id="node19" class="node">
<title>Node19</title>
<g id="a_node19"><a xlink:href="tmap_8h.html" target="_top" xlink:title=" ">
<polygon fill="white" stroke="black" points="900.81,-112.5 900.81,-131.5 951.81,-131.5 951.81,-112.5 900.81,-112.5"/>
<text text-anchor="middle" x="926.31" y="-119.5" font-family="Helvetica,sans-Serif" font-size="10.00">tmap.h</text>
</a>
</g>
</g>
<!-- Node18&#45;&gt;Node19 -->
<g id="edge28" class="edge">
<title>Node18&#45;&gt;Node19</title>
<path fill="none" stroke="midnightblue" d="M844.9,-168.32C860.31,-159.74 884.12,-146.49 902.02,-136.52"/>
<polygon fill="midnightblue" stroke="midnightblue" points="903.73,-139.58 910.77,-131.65 900.33,-133.46 903.73,-139.58"/>
</g>
<!-- Node19&#45;&gt;Node4 -->
<g id="edge30" class="edge">
<title>Node19&#45;&gt;Node4</title>
<path fill="none" stroke="midnightblue" d="M900.58,-115.31C895.21,-114.18 889.58,-113.02 884.31,-112 805.75,-96.82 713.4,-81.48 662.3,-73.22"/>
<polygon fill="midnightblue" stroke="midnightblue" points="662.78,-69.75 652.35,-71.61 661.66,-76.66 662.78,-69.75"/>
</g>
<!-- Node19&#45;&gt;Node16 -->
<g id="edge31" class="edge">
<title>Node19&#45;&gt;Node16</title>
<path fill="none" stroke="midnightblue" d="M914.58,-112.32C903.47,-104.11 886.57,-91.6 873.33,-81.81"/>
<polygon fill="midnightblue" stroke="midnightblue" points="875.37,-78.97 865.25,-75.83 871.21,-84.59 875.37,-78.97"/>
</g>
<!-- Node20 -->
<g id="node20" class="node">
<title>Node20</title>
<g id="a_node20"><a xlink:title=" ">
<polygon fill="white" stroke="#bfbfbf" points="913.31,-56.5 913.31,-75.5 951.31,-75.5 951.31,-56.5 913.31,-56.5"/>
<text text-anchor="middle" x="932.31" y="-63.5" font-family="Helvetica,sans-Serif" font-size="10.00">map</text>
</a>
</g>
</g>
<!-- Node19&#45;&gt;Node20 -->
<g id="edge29" class="edge">
<title>Node19&#45;&gt;Node20</title>
<path fill="none" stroke="midnightblue" d="M927.3,-112.08C928.1,-104.93 929.24,-94.64 930.23,-85.69"/>
<polygon fill="midnightblue" stroke="midnightblue" points="933.71,-86.08 931.34,-75.75 926.76,-85.3 933.71,-86.08"/>
</g>
<!-- Node21 -->
<g id="node21" class="node">
<title>Node21</title>
<g id="a_node21"><a xlink:title=" ">
<polygon fill="white" stroke="#bfbfbf" points="969.81,-56.5 969.81,-75.5 1014.81,-75.5 1014.81,-56.5 969.81,-56.5"/>
<text text-anchor="middle" x="992.31" y="-63.5" font-family="Helvetica,sans-Serif" font-size="10.00">utility</text>
</a>
</g>
</g>
<!-- Node19&#45;&gt;Node21 -->
<g id="edge32" class="edge">
<title>Node19&#45;&gt;Node21</title>
<path fill="none" stroke="midnightblue" d="M936.92,-112.32C946.77,-104.26 961.66,-92.08 973.53,-82.37"/>
<polygon fill="midnightblue" stroke="midnightblue" points="975.99,-84.88 981.51,-75.83 971.56,-79.46 975.99,-84.88"/>
</g>
<!-- Node22 -->
<g id="node22" class="node">
<title>Node22</title>
<g id="a_node22"><a xlink:title=" ">
<polygon fill="white" stroke="#bfbfbf" points="1032.81,-56.5 1032.81,-75.5 1091.81,-75.5 1091.81,-56.5 1032.81,-56.5"/>
<text text-anchor="middle" x="1062.31" y="-63.5" font-family="Helvetica,sans-Serif" font-size="10.00">tmap.tcc</text>
</a>
</g>
</g>
<!-- Node19&#45;&gt;Node22 -->
<g id="edge33" class="edge">
<title>Node19&#45;&gt;Node22</title>
<path fill="none" stroke="midnightblue" d="M947.86,-112.44C970.34,-103.52 1005.8,-89.44 1031.29,-79.32"/>
<polygon fill="midnightblue" stroke="midnightblue" points="1032.86,-82.46 1040.86,-75.52 1030.28,-75.95 1032.86,-82.46"/>
</g>
<!-- Node23&#45;&gt;Node3 -->
<g id="edge41" class="edge">
<title>Node23&#45;&gt;Node3</title>
<path fill="none" stroke="midnightblue" d="M507.56,-224.37C493.31,-206.14 459.92,-163.43 441.35,-139.68"/>
<polygon fill="midnightblue" stroke="midnightblue" points="443.94,-137.31 435.03,-131.59 438.43,-141.63 443.94,-137.31"/>
</g>
<!-- Node23&#45;&gt;Node7 -->
<g id="edge43" class="edge">
<title>Node23&#45;&gt;Node7</title>
<path fill="none" stroke="midnightblue" d="M514.22,-224.36C513.51,-202.49 508.61,-144.38 477.31,-112 465.27,-99.54 425.28,-86.85 392.62,-78.14"/>
<polygon fill="midnightblue" stroke="midnightblue" points="393.32,-74.7 382.76,-75.57 391.55,-81.48 393.32,-74.7"/>
</g>
<!-- Node23&#45;&gt;Node12 -->
<g id="edge40" class="edge">
<title>Node23&#45;&gt;Node12</title>
<path fill="none" stroke="midnightblue" d="M539.66,-224.44C566.58,-215.36 609.31,-200.94 639.4,-190.78"/>
<polygon fill="midnightblue" stroke="midnightblue" points="640.72,-194.03 649.08,-187.52 638.48,-187.4 640.72,-194.03"/>
</g>
<!-- Node23&#45;&gt;Node14 -->
<g id="edge39" class="edge">
<title>Node23&#45;&gt;Node14</title>
<path fill="none" stroke="midnightblue" d="M553.09,-226.57C593.29,-219.34 657.65,-206.19 711.31,-188 753.8,-173.59 800.7,-150.65 828.55,-136.23"/>
<polygon fill="midnightblue" stroke="midnightblue" points="830.33,-139.25 837.56,-131.51 827.08,-133.04 830.33,-139.25"/>
</g>
<!-- Node24 -->
<g id="node24" class="node">
<title>Node24</title>
<g id="a_node24"><a xlink:href="tpicturetype_8h.html" target="_top" xlink:title=" ">
<polygon fill="white" stroke="black" points="542.81,-168.5 542.81,-187.5 627.81,-187.5 627.81,-168.5 542.81,-168.5"/>
<text text-anchor="middle" x="585.31" y="-175.5" font-family="Helvetica,sans-Serif" font-size="10.00">tpicturetype.h</text>
</a>
</g>
</g>
<!-- Node23&#45;&gt;Node24 -->
<g id="edge42" class="edge">
<title>Node23&#45;&gt;Node24</title>
<path fill="none" stroke="midnightblue" d="M525.72,-224.32C536.42,-216.18 552.65,-203.84 565.47,-194.09"/>
<polygon fill="midnightblue" stroke="midnightblue" points="567.86,-196.67 573.7,-187.83 563.62,-191.1 567.86,-196.67"/>
</g>
<!-- Node25 -->
<g id="node25" class="node">
<title>Node25</title>
<g id="a_node25"><a xlink:href="flacmetadatablock_8h.html" target="_top" xlink:title=" ">
<polygon fill="white" stroke="black" points="332.31,-168.5 332.31,-187.5 448.31,-187.5 448.31,-168.5 332.31,-168.5"/>
<text text-anchor="middle" x="390.31" y="-175.5" font-family="Helvetica,sans-Serif" font-size="10.00">flacmetadatablock.h</text>
</a>
</g>
</g>
<!-- Node23&#45;&gt;Node25 -->
<g id="edge44" class="edge">
<title>Node23&#45;&gt;Node25</title>
<path fill="none" stroke="midnightblue" d="M494.66,-224.44C474.35,-215.6 442.41,-201.69 419.21,-191.59"/>
<polygon fill="midnightblue" stroke="midnightblue" points="420.43,-188.3 409.87,-187.52 417.64,-194.72 420.43,-188.3"/>
</g>
<!-- Node25&#45;&gt;Node3 -->
<g id="edge45" class="edge">
<title>Node25&#45;&gt;Node3</title>
<path fill="none" stroke="midnightblue" d="M396.59,-168.08C401.95,-160.46 409.83,-149.26 416.39,-139.94"/>
<polygon fill="midnightblue" stroke="midnightblue" points="419.26,-141.94 422.15,-131.75 413.54,-137.91 419.26,-141.94"/>
</g>
<!-- Node25&#45;&gt;Node7 -->
<g id="edge46" class="edge">
<title>Node25&#45;&gt;Node7</title>
<path fill="none" stroke="midnightblue" d="M386.86,-168.37C379.69,-150.46 363.08,-108.92 353.49,-84.95"/>
<polygon fill="midnightblue" stroke="midnightblue" points="356.71,-83.58 349.75,-75.59 350.21,-86.18 356.71,-83.58"/>
</g>
<!-- Node26&#45;&gt;Node3 -->
<g id="edge48" class="edge">
<title>Node26&#45;&gt;Node3</title>
<path fill="none" stroke="midnightblue" d="M108.52,-169.38C111.49,-168.9 114.44,-168.44 117.31,-168 208.8,-153.9 315.64,-138.72 377.29,-130.09"/>
<polygon fill="midnightblue" stroke="midnightblue" points="378.1,-133.51 387.52,-128.66 377.13,-126.58 378.1,-133.51"/>
</g>
<!-- Node26&#45;&gt;Node7 -->
<g id="edge49" class="edge">
<title>Node26&#45;&gt;Node7</title>
<path fill="none" stroke="midnightblue" d="M62.86,-168.29C64.24,-154.14 69.12,-126.32 86.31,-112 116.64,-86.75 223.9,-75.11 290.81,-70.19"/>
<polygon fill="midnightblue" stroke="midnightblue" points="291.46,-73.65 301.19,-69.46 290.97,-66.67 291.46,-73.65"/>
</g>
<!-- Node27 -->
<g id="node27" class="node">
<title>Node27</title>
<g id="a_node27"><a xlink:href="audioproperties_8h.html" target="_top" xlink:title=" ">
<polygon fill="white" stroke="black" points="95.31,-112.5 95.31,-131.5 197.31,-131.5 197.31,-112.5 95.31,-112.5"/>
<text text-anchor="middle" x="146.31" y="-119.5" font-family="Helvetica,sans-Serif" font-size="10.00">audioproperties.h</text>
</a>
</g>
</g>
<!-- Node26&#45;&gt;Node27 -->
<g id="edge50" class="edge">
<title>Node26&#45;&gt;Node27</title>
<path fill="none" stroke="midnightblue" d="M75.81,-168.32C88.91,-159.9 109.02,-146.97 124.42,-137.07"/>
<polygon fill="midnightblue" stroke="midnightblue" points="126.33,-140.01 132.85,-131.65 122.54,-134.12 126.33,-140.01"/>
</g>
<!-- Node27&#45;&gt;Node4 -->
<g id="edge51" class="edge">
<title>Node27&#45;&gt;Node4</title>
<path fill="none" stroke="midnightblue" d="M197.6,-115.35C273.87,-106.92 421.69,-90.49 547.31,-76 559.26,-74.62 572.25,-73.09 584.06,-71.69"/>
<polygon fill="midnightblue" stroke="midnightblue" points="584.57,-75.16 594.08,-70.5 583.74,-68.21 584.57,-75.16"/>
</g>
<!-- Node27&#45;&gt;Node7 -->
<g id="edge53" class="edge">
<title>Node27&#45;&gt;Node7</title>
<path fill="none" stroke="midnightblue" d="M178,-112.44C212.38,-103.16 267.39,-88.31 305.1,-78.13"/>
<polygon fill="midnightblue" stroke="midnightblue" points="306.03,-81.5 314.77,-75.52 304.2,-74.74 306.03,-81.5"/>
</g>
<!-- Node27&#45;&gt;Node9 -->
<g id="edge52" class="edge">
<title>Node27&#45;&gt;Node9</title>
<path fill="none" stroke="midnightblue" d="M133.62,-112.32C121.41,-103.98 102.73,-91.21 88.31,-81.35"/>
<polygon fill="midnightblue" stroke="midnightblue" points="90.2,-78.41 79.97,-75.65 86.25,-84.19 90.2,-78.41"/>
</g>
</g>
</svg>
