<?xml version="1.0" encoding="UTF-8" standalone="no"?>
<!DOCTYPE svg PUBLIC "-//W3C//DTD SVG 1.1//EN"
 "http://www.w3.org/Graphics/SVG/1.1/DTD/svg11.dtd">
<!-- Generated by graphviz version 2.42.4 (0)
 -->
<!-- Title: flacunknownmetadatablock.h Pages: 1 -->
<svg width="505pt" height="192pt"
 viewBox="0.00 0.00 504.50 192.00" xmlns="http://www.w3.org/2000/svg" xmlns:xlink="http://www.w3.org/1999/xlink">
<g id="graph0" class="graph" transform="scale(1 1) rotate(0) translate(4 188)">
<title>flacunknownmetadatablock.h</title>
<!-- Node1 -->
<g id="Node000001" class="node">
<title>Node1</title>
<g id="a_Node000001"><a xlink:title=" ">
<polygon fill="#999999" stroke="#666666" points="403,-184 242,-184 242,-165 403,-165 403,-184"/>
<text text-anchor="middle" x="322.5" y="-172" font-family="Helvetica,sans-Serif" font-size="10.00">flacunknownmetadatablock.h</text>
</a>
</g>
</g>
<!-- Node2 -->
<g id="Node000002" class="node">
<title>Node2</title>
<g id="a_Node000002"><a xlink:href="tlist_8h.html" target="_top" xlink:title=" ">
<polygon fill="white" stroke="#666666" points="185.5,-129 141.5,-129 141.5,-110 185.5,-110 185.5,-129"/>
<text text-anchor="middle" x="163.5" y="-117" font-family="Helvetica,sans-Serif" font-size="10.00">tlist.h</text>
</a>
</g>
</g>
<!-- Node1&#45;&gt;Node2 -->
<g id="edge1_Node000001_Node000002" class="edge">
<title>Node1&#45;&gt;Node2</title>
<g id="a_edge1_Node000001_Node000002"><a xlink:title=" ">
<path fill="none" stroke="#63b8ff" d="M296.95,-164.98C269.27,-155.76 225.06,-141.02 195.19,-131.06"/>
<polygon fill="#63b8ff" stroke="#63b8ff" points="196.24,-127.72 185.65,-127.88 194.03,-134.37 196.24,-127.72"/>
</a>
</g>
</g>
<!-- Node7 -->
<g id="Node000007" class="node">
<title>Node7</title>
<g id="a_Node000007"><a xlink:href="tbytevector_8h.html" target="_top" xlink:title=" ">
<polygon fill="white" stroke="#666666" points="367,-74 286,-74 286,-55 367,-55 367,-74"/>
<text text-anchor="middle" x="326.5" y="-62" font-family="Helvetica,sans-Serif" font-size="10.00">tbytevector.h</text>
</a>
</g>
</g>
<!-- Node1&#45;&gt;Node7 -->
<g id="edge6_Node000001_Node000007" class="edge">
<title>Node1&#45;&gt;Node7</title>
<g id="a_edge6_Node000001_Node000007"><a xlink:title=" ">
<path fill="none" stroke="#63b8ff" d="M315.25,-164.61C306.25,-152.47 292.75,-129.93 298.5,-110 301.37,-100.06 307.18,-90.2 312.78,-82.29"/>
<polygon fill="#63b8ff" stroke="#63b8ff" points="315.58,-84.39 318.83,-74.3 310,-80.16 315.58,-84.39"/>
</a>
</g>
</g>
<!-- Node10 -->
<g id="Node000010" class="node">
<title>Node10</title>
<g id="a_Node000010"><a xlink:href="taglib__export_8h.html" target="_top" xlink:title=" ">
<polygon fill="white" stroke="#666666" points="496.5,-19 406.5,-19 406.5,0 496.5,0 496.5,-19"/>
<text text-anchor="middle" x="451.5" y="-7" font-family="Helvetica,sans-Serif" font-size="10.00">taglib_export.h</text>
</a>
</g>
</g>
<!-- Node1&#45;&gt;Node10 -->
<g id="edge11_Node000001_Node000010" class="edge">
<title>Node1&#45;&gt;Node10</title>
<g id="a_edge11_Node000001_Node000010"><a xlink:title=" ">
<path fill="none" stroke="#63b8ff" d="M371.57,-164.98C393.42,-158.67 417.55,-147.77 432.5,-129 455.47,-100.17 455.76,-54.6 453.76,-29.19"/>
<polygon fill="#63b8ff" stroke="#63b8ff" points="457.22,-28.67 452.74,-19.07 450.26,-29.37 457.22,-28.67"/>
</a>
</g>
</g>
<!-- Node11 -->
<g id="Node000011" class="node">
<title>Node11</title>
<g id="a_Node000011"><a xlink:href="flacmetadatablock_8h.html" target="_top" xlink:title=" ">
<polygon fill="white" stroke="#666666" points="423.5,-129 307.5,-129 307.5,-110 423.5,-110 423.5,-129"/>
<text text-anchor="middle" x="365.5" y="-117" font-family="Helvetica,sans-Serif" font-size="10.00">flacmetadatablock.h</text>
</a>
</g>
</g>
<!-- Node1&#45;&gt;Node11 -->
<g id="edge12_Node000001_Node000011" class="edge">
<title>Node1&#45;&gt;Node11</title>
<g id="a_edge12_Node000001_Node000011"><a xlink:title=" ">
<path fill="none" stroke="#63b8ff" d="M329.6,-164.75C335.67,-157.26 344.59,-146.28 352.01,-137.13"/>
<polygon fill="#63b8ff" stroke="#63b8ff" points="354.95,-139.06 358.53,-129.09 349.51,-134.65 354.95,-139.06"/>
</a>
</g>
</g>
<!-- Node3 -->
<g id="Node000003" class="node">
<title>Node3</title>
<g id="a_Node000003"><a xlink:title=" ">
<polygon fill="#e0e0e0" stroke="#999999" points="103.5,-74 71.5,-74 71.5,-55 103.5,-55 103.5,-74"/>
<text text-anchor="middle" x="87.5" y="-62" font-family="Helvetica,sans-Serif" font-size="10.00">list</text>
</a>
</g>
</g>
<!-- Node2&#45;&gt;Node3 -->
<g id="edge2_Node000002_Node000003" class="edge">
<title>Node2&#45;&gt;Node3</title>
<g id="a_edge2_Node000002_Node000003"><a xlink:title=" ">
<path fill="none" stroke="#63b8ff" d="M151.29,-109.98C139.72,-101.92 122.12,-89.65 108.34,-80.03"/>
<polygon fill="#63b8ff" stroke="#63b8ff" points="110.14,-77.02 99.93,-74.17 106.13,-82.76 110.14,-77.02"/>
</a>
</g>
</g>
<!-- Node4 -->
<g id="Node000004" class="node">
<title>Node4</title>
<g id="a_Node000004"><a xlink:title=" ">
<polygon fill="#e0e0e0" stroke="#999999" points="205,-74 122,-74 122,-55 205,-55 205,-74"/>
<text text-anchor="middle" x="163.5" y="-62" font-family="Helvetica,sans-Serif" font-size="10.00">initializer_list</text>
</a>
</g>
</g>
<!-- Node2&#45;&gt;Node4 -->
<g id="edge3_Node000002_Node000004" class="edge">
<title>Node2&#45;&gt;Node4</title>
<g id="a_edge3_Node000002_Node000004"><a xlink:title=" ">
<path fill="none" stroke="#63b8ff" d="M163.5,-109.75C163.5,-102.8 163.5,-92.85 163.5,-84.13"/>
<polygon fill="#63b8ff" stroke="#63b8ff" points="167,-84.09 163.5,-74.09 160,-84.09 167,-84.09"/>
</a>
</g>
</g>
<!-- Node5 -->
<g id="Node000005" class="node">
<title>Node5</title>
<g id="a_Node000005"><a xlink:title=" ">
<polygon fill="#e0e0e0" stroke="#999999" points="256.5,-19 198.5,-19 198.5,0 256.5,0 256.5,-19"/>
<text text-anchor="middle" x="227.5" y="-7" font-family="Helvetica,sans-Serif" font-size="10.00">memory</text>
</a>
</g>
</g>
<!-- Node2&#45;&gt;Node5 -->
<g id="edge4_Node000002_Node000005" class="edge">
<title>Node2&#45;&gt;Node5</title>
<g id="a_edge4_Node000002_Node000005"><a xlink:title=" ">
<path fill="none" stroke="#63b8ff" d="M177.13,-109.98C188.61,-102.07 204.57,-89.24 213.5,-74 221.45,-60.44 224.89,-42.85 226.38,-29.62"/>
<polygon fill="#63b8ff" stroke="#63b8ff" points="229.9,-29.59 227.25,-19.33 222.92,-29 229.9,-29.59"/>
</a>
</g>
</g>
<!-- Node6 -->
<g id="Node000006" class="node">
<title>Node6</title>
<g id="a_Node000006"><a xlink:title=" ">
<polygon fill="#e0e0e0" stroke="#999999" points="53,-74 0,-74 0,-55 53,-55 53,-74"/>
<text text-anchor="middle" x="26.5" y="-62" font-family="Helvetica,sans-Serif" font-size="10.00">tlist.tcc</text>
</a>
</g>
</g>
<!-- Node2&#45;&gt;Node6 -->
<g id="edge5_Node000002_Node000006" class="edge">
<title>Node2&#45;&gt;Node6</title>
<g id="a_edge5_Node000002_Node000006"><a xlink:title=" ">
<path fill="none" stroke="#63b8ff" d="M141.49,-109.98C119.05,-101.3 84.02,-87.75 58.51,-77.88"/>
<polygon fill="#63b8ff" stroke="#63b8ff" points="59.5,-74.51 48.91,-74.17 56.98,-81.04 59.5,-74.51"/>
</a>
</g>
</g>
<!-- Node7&#45;&gt;Node5 -->
<g id="edge7_Node000007_Node000005" class="edge">
<title>Node7&#45;&gt;Node5</title>
<g id="a_edge7_Node000007_Node000005"><a xlink:title=" ">
<path fill="none" stroke="#63b8ff" d="M310.59,-54.98C294.95,-46.61 270.84,-33.7 252.62,-23.95"/>
<polygon fill="#63b8ff" stroke="#63b8ff" points="254.16,-20.8 243.7,-19.17 250.86,-26.98 254.16,-20.8"/>
</a>
</g>
</g>
<!-- Node8 -->
<g id="Node000008" class="node">
<title>Node8</title>
<g id="a_Node000008"><a xlink:title=" ">
<polygon fill="#e0e0e0" stroke="#999999" points="388,-19 341,-19 341,0 388,0 388,-19"/>
<text text-anchor="middle" x="364.5" y="-7" font-family="Helvetica,sans-Serif" font-size="10.00">vector</text>
</a>
</g>
</g>
<!-- Node7&#45;&gt;Node8 -->
<g id="edge8_Node000007_Node000008" class="edge">
<title>Node7&#45;&gt;Node8</title>
<g id="a_edge8_Node000007_Node000008"><a xlink:title=" ">
<path fill="none" stroke="#63b8ff" d="M332.77,-54.75C338.09,-47.34 345.86,-36.5 352.38,-27.41"/>
<polygon fill="#63b8ff" stroke="#63b8ff" points="355.36,-29.26 358.34,-19.09 349.67,-25.18 355.36,-29.26"/>
</a>
</g>
</g>
<!-- Node9 -->
<g id="Node000009" class="node">
<title>Node9</title>
<g id="a_Node000009"><a xlink:title=" ">
<polygon fill="#e0e0e0" stroke="#999999" points="322.5,-19 274.5,-19 274.5,0 322.5,0 322.5,-19"/>
<text text-anchor="middle" x="298.5" y="-7" font-family="Helvetica,sans-Serif" font-size="10.00">iosfwd</text>
</a>
</g>
</g>
<!-- Node7&#45;&gt;Node9 -->
<g id="edge9_Node000007_Node000009" class="edge">
<title>Node7&#45;&gt;Node9</title>
<g id="a_edge9_Node000007_Node000009"><a xlink:title=" ">
<path fill="none" stroke="#63b8ff" d="M321.88,-54.75C318.04,-47.49 312.48,-36.95 307.74,-27.98"/>
<polygon fill="#63b8ff" stroke="#63b8ff" points="310.8,-26.3 303.04,-19.09 304.61,-29.57 310.8,-26.3"/>
</a>
</g>
</g>
<!-- Node7&#45;&gt;Node10 -->
<g id="edge10_Node000007_Node000010" class="edge">
<title>Node7&#45;&gt;Node10</title>
<g id="a_edge10_Node000007_Node000010"><a xlink:title=" ">
<path fill="none" stroke="#63b8ff" d="M346.58,-54.98C366.87,-46.38 398.46,-32.99 421.67,-23.15"/>
<polygon fill="#63b8ff" stroke="#63b8ff" points="423.21,-26.3 431.05,-19.17 420.48,-19.85 423.21,-26.3"/>
</a>
</g>
</g>
<!-- Node11&#45;&gt;Node7 -->
<g id="edge13_Node000011_Node000007" class="edge">
<title>Node11&#45;&gt;Node7</title>
<g id="a_edge13_Node000011_Node000007"><a xlink:title=" ">
<path fill="none" stroke="#63b8ff" d="M359.06,-109.75C353.61,-102.34 345.64,-91.5 338.94,-82.41"/>
<polygon fill="#63b8ff" stroke="#63b8ff" points="341.57,-80.07 332.82,-74.09 335.93,-84.22 341.57,-80.07"/>
</a>
</g>
</g>
<!-- Node11&#45;&gt;Node10 -->
<g id="edge14_Node000011_Node000010" class="edge">
<title>Node11&#45;&gt;Node10</title>
<g id="a_edge14_Node000011_Node000010"><a xlink:title=" ">
<path fill="none" stroke="#63b8ff" d="M372.54,-109.66C386.91,-91.61 419.83,-50.28 438.3,-27.08"/>
<polygon fill="#63b8ff" stroke="#63b8ff" points="441.11,-29.16 444.61,-19.16 435.64,-24.8 441.11,-29.16"/>
</a>
</g>
</g>
</g>
</svg>
