<?xml version="1.0" encoding="UTF-8" standalone="no"?>
<!DOCTYPE svg PUBLIC "-//W3C//DTD SVG 1.1//EN"
 "http://www.w3.org/Graphics/SVG/1.1/DTD/svg11.dtd">
<!-- Generated by graphviz version 2.46.1 (20210213.1702)
 -->
<!-- Title: flacfile.h Pages: 1 -->
<svg width="758pt" height="364pt"
 viewBox="0.00 0.00 758.29 364.00" xmlns="http://www.w3.org/2000/svg" xmlns:xlink="http://www.w3.org/1999/xlink">
<g id="graph0" class="graph" transform="scale(1 1) rotate(0) translate(4 360)">
<title>flacfile.h</title>
<polygon fill="white" stroke="transparent" points="-4,4 -4,-360 754.29,-360 754.29,4 -4,4"/>
<!-- Node1 -->
<g id="node1" class="node">
<title>Node1</title>
<g id="a_node1"><a xlink:title=" ">
<polygon fill="#bfbfbf" stroke="black" points="287.29,-336.5 287.29,-355.5 340.29,-355.5 340.29,-336.5 287.29,-336.5"/>
<text text-anchor="middle" x="313.79" y="-343.5" font-family="Helvetica,sans-Serif" font-size="10.00">flacfile.h</text>
</a>
</g>
</g>
<!-- Node2 -->
<g id="node2" class="node">
<title>Node2</title>
<g id="a_node2"><a xlink:href="taglib__export_8h.html" target="_top" xlink:title=" ">
<polygon fill="white" stroke="black" points="203.79,-56.5 203.79,-75.5 283.79,-75.5 283.79,-56.5 203.79,-56.5"/>
<text text-anchor="middle" x="243.79" y="-63.5" font-family="Helvetica,sans-Serif" font-size="10.00">taglib_export.h</text>
</a>
</g>
</g>
<!-- Node1&#45;&gt;Node2 -->
<g id="edge1" class="edge">
<title>Node1&#45;&gt;Node2</title>
<path fill="none" stroke="midnightblue" d="M287.11,-341.48C211.42,-330.75 0.79,-295.48 0.79,-235 0.79,-235 0.79,-235 0.79,-177 0.79,-146.9 -2.38,-132.35 19.79,-112 44.68,-89.17 135.56,-76.8 193.64,-71.08"/>
<polygon fill="midnightblue" stroke="midnightblue" points="194.1,-74.55 203.72,-70.12 193.43,-67.58 194.1,-74.55"/>
</g>
<!-- Node3 -->
<g id="node3" class="node">
<title>Node3</title>
<g id="a_node3"><a xlink:href="tfile_8h.html" target="_top" xlink:title=" ">
<polygon fill="white" stroke="black" points="448.29,-280.5 448.29,-299.5 489.29,-299.5 489.29,-280.5 448.29,-280.5"/>
<text text-anchor="middle" x="468.79" y="-287.5" font-family="Helvetica,sans-Serif" font-size="10.00">tfile.h</text>
</a>
</g>
</g>
<!-- Node1&#45;&gt;Node3 -->
<g id="edge2" class="edge">
<title>Node1&#45;&gt;Node3</title>
<path fill="none" stroke="midnightblue" d="M338.35,-336.44C365.39,-327.03 408.88,-311.87 438.13,-301.68"/>
<polygon fill="midnightblue" stroke="midnightblue" points="439.54,-304.9 447.83,-298.3 437.23,-298.29 439.54,-304.9"/>
</g>
<!-- Node7 -->
<g id="node7" class="node">
<title>Node7</title>
<g id="a_node7"><a xlink:href="tag_8h.html" target="_top" xlink:title=" ">
<polygon fill="white" stroke="black" points="167.79,-224.5 167.79,-243.5 205.79,-243.5 205.79,-224.5 167.79,-224.5"/>
<text text-anchor="middle" x="186.79" y="-231.5" font-family="Helvetica,sans-Serif" font-size="10.00">tag.h</text>
</a>
</g>
</g>
<!-- Node1&#45;&gt;Node7 -->
<g id="edge28" class="edge">
<title>Node1&#45;&gt;Node7</title>
<path fill="none" stroke="midnightblue" d="M303.83,-336.37C282.41,-317.81 231.72,-273.91 204.62,-250.44"/>
<polygon fill="midnightblue" stroke="midnightblue" points="206.56,-247.49 196.71,-243.59 201.98,-252.78 206.56,-247.49"/>
</g>
<!-- Node13 -->
<g id="node13" class="node">
<title>Node13</title>
<g id="a_node13"><a xlink:href="tlist_8h.html" target="_top" xlink:title=" ">
<polygon fill="white" stroke="black" points="687.29,-112.5 687.29,-131.5 728.29,-131.5 728.29,-112.5 687.29,-112.5"/>
<text text-anchor="middle" x="707.79" y="-119.5" font-family="Helvetica,sans-Serif" font-size="10.00">tlist.h</text>
</a>
</g>
</g>
<!-- Node1&#45;&gt;Node13 -->
<g id="edge24" class="edge">
<title>Node1&#45;&gt;Node13</title>
<path fill="none" stroke="midnightblue" d="M340.39,-341.49C395.38,-333.11 523.59,-307.69 608.79,-244 648.31,-214.46 681.63,-165.86 697.62,-140.17"/>
<polygon fill="midnightblue" stroke="midnightblue" points="700.67,-141.89 702.88,-131.53 694.69,-138.25 700.67,-141.89"/>
</g>
<!-- Node16 -->
<g id="node16" class="node">
<title>Node16</title>
<g id="a_node16"><a xlink:href="flacpicture_8h.html" target="_top" xlink:title=" ">
<polygon fill="white" stroke="black" points="349.79,-224.5 349.79,-243.5 419.79,-243.5 419.79,-224.5 349.79,-224.5"/>
<text text-anchor="middle" x="384.79" y="-231.5" font-family="Helvetica,sans-Serif" font-size="10.00">flacpicture.h</text>
</a>
</g>
</g>
<!-- Node1&#45;&gt;Node16 -->
<g id="edge29" class="edge">
<title>Node1&#45;&gt;Node16</title>
<path fill="none" stroke="midnightblue" d="M319.37,-336.37C331.03,-318.3 358.22,-276.18 373.62,-252.31"/>
<polygon fill="midnightblue" stroke="midnightblue" points="376.77,-253.89 379.25,-243.59 370.89,-250.1 376.77,-253.89"/>
</g>
<!-- Node18 -->
<g id="node18" class="node">
<title>Node18</title>
<g id="a_node18"><a xlink:href="flacproperties_8h.html" target="_top" xlink:title=" ">
<polygon fill="white" stroke="black" points="75.29,-168.5 75.29,-187.5 158.29,-187.5 158.29,-168.5 75.29,-168.5"/>
<text text-anchor="middle" x="116.79" y="-175.5" font-family="Helvetica,sans-Serif" font-size="10.00">flacproperties.h</text>
</a>
</g>
</g>
<!-- Node1&#45;&gt;Node18 -->
<g id="edge38" class="edge">
<title>Node1&#45;&gt;Node18</title>
<path fill="none" stroke="midnightblue" d="M295.05,-336.48C263.68,-321.48 199.94,-287.75 158.79,-244 145.31,-229.67 133.51,-210.46 125.88,-196.65"/>
<polygon fill="midnightblue" stroke="midnightblue" points="128.89,-194.86 121.09,-187.69 122.72,-198.16 128.89,-194.86"/>
</g>
<!-- Node3&#45;&gt;Node2 -->
<g id="edge3" class="edge">
<title>Node3&#45;&gt;Node2</title>
<path fill="none" stroke="midnightblue" d="M448.21,-285.34C406.06,-276.69 310.01,-250.79 263.79,-188 241.47,-157.67 240.45,-111.47 241.95,-85.83"/>
<polygon fill="midnightblue" stroke="midnightblue" points="245.46,-85.86 242.75,-75.62 238.48,-85.32 245.46,-85.86"/>
</g>
<!-- Node4 -->
<g id="node4" class="node">
<title>Node4</title>
<g id="a_node4"><a xlink:href="taglib_8h.html" target="_top" xlink:title=" ">
<polygon fill="white" stroke="black" points="558.79,-56.5 558.79,-75.5 606.79,-75.5 606.79,-56.5 558.79,-56.5"/>
<text text-anchor="middle" x="582.79" y="-63.5" font-family="Helvetica,sans-Serif" font-size="10.00">taglib.h</text>
</a>
</g>
</g>
<!-- Node3&#45;&gt;Node4 -->
<g id="edge4" class="edge">
<title>Node3&#45;&gt;Node4</title>
<path fill="none" stroke="midnightblue" d="M489.46,-284.17C527.33,-274.02 606.49,-246.42 633.79,-188 651.08,-151.03 619.25,-106.6 598.55,-83.22"/>
<polygon fill="midnightblue" stroke="midnightblue" points="600.88,-80.59 591.53,-75.61 595.74,-85.33 600.88,-80.59"/>
</g>
<!-- Node3&#45;&gt;Node7 -->
<g id="edge7" class="edge">
<title>Node3&#45;&gt;Node7</title>
<path fill="none" stroke="midnightblue" d="M448.01,-285.87C405.12,-279.29 303.77,-263 219.79,-244 218.52,-243.71 217.23,-243.41 215.92,-243.09"/>
<polygon fill="midnightblue" stroke="midnightblue" points="216.48,-239.62 205.92,-240.52 214.73,-246.4 216.48,-239.62"/>
</g>
<!-- Node9 -->
<g id="node9" class="node">
<title>Node9</title>
<g id="a_node9"><a xlink:href="tbytevector_8h.html" target="_top" xlink:title=" ">
<polygon fill="white" stroke="black" points="481.29,-112.5 481.29,-131.5 554.29,-131.5 554.29,-112.5 481.29,-112.5"/>
<text text-anchor="middle" x="517.79" y="-119.5" font-family="Helvetica,sans-Serif" font-size="10.00">tbytevector.h</text>
</a>
</g>
</g>
<!-- Node3&#45;&gt;Node9 -->
<g id="edge19" class="edge">
<title>Node3&#45;&gt;Node9</title>
<path fill="none" stroke="midnightblue" d="M471.43,-280.08C479.14,-253.95 501.79,-177.21 512.31,-141.58"/>
<polygon fill="midnightblue" stroke="midnightblue" points="515.79,-142.15 515.27,-131.57 509.08,-140.17 515.79,-142.15"/>
</g>
<!-- Node12 -->
<g id="node12" class="node">
<title>Node12</title>
<g id="a_node12"><a xlink:href="tiostream_8h.html" target="_top" xlink:title=" ">
<polygon fill="white" stroke="black" points="559.29,-168.5 559.29,-187.5 624.29,-187.5 624.29,-168.5 559.29,-168.5"/>
<text text-anchor="middle" x="591.79" y="-175.5" font-family="Helvetica,sans-Serif" font-size="10.00">tiostream.h</text>
</a>
</g>
</g>
<!-- Node3&#45;&gt;Node12 -->
<g id="edge20" class="edge">
<title>Node3&#45;&gt;Node12</title>
<path fill="none" stroke="midnightblue" d="M488.03,-280.38C504.32,-272.46 527.69,-259.61 544.79,-244 560.01,-230.12 573.33,-210.59 581.86,-196.56"/>
<polygon fill="midnightblue" stroke="midnightblue" points="584.92,-198.27 586.98,-187.87 578.89,-194.72 584.92,-198.27"/>
</g>
<!-- Node5 -->
<g id="node5" class="node">
<title>Node5</title>
<g id="a_node5"><a xlink:title=" ">
<polygon fill="white" stroke="#bfbfbf" points="542.79,-0.5 542.79,-19.5 622.79,-19.5 622.79,-0.5 542.79,-0.5"/>
<text text-anchor="middle" x="582.79" y="-7.5" font-family="Helvetica,sans-Serif" font-size="10.00">taglib_config.h</text>
</a>
</g>
</g>
<!-- Node4&#45;&gt;Node5 -->
<g id="edge5" class="edge">
<title>Node4&#45;&gt;Node5</title>
<path fill="none" stroke="midnightblue" d="M582.79,-56.08C582.79,-49.01 582.79,-38.86 582.79,-29.99"/>
<polygon fill="midnightblue" stroke="midnightblue" points="586.29,-29.75 582.79,-19.75 579.29,-29.75 586.29,-29.75"/>
</g>
<!-- Node6 -->
<g id="node6" class="node">
<title>Node6</title>
<g id="a_node6"><a xlink:title=" ">
<polygon fill="white" stroke="#bfbfbf" points="419.29,-0.5 419.29,-19.5 460.29,-19.5 460.29,-0.5 419.29,-0.5"/>
<text text-anchor="middle" x="439.79" y="-7.5" font-family="Helvetica,sans-Serif" font-size="10.00">string</text>
</a>
</g>
</g>
<!-- Node4&#45;&gt;Node6 -->
<g id="edge6" class="edge">
<title>Node4&#45;&gt;Node6</title>
<path fill="none" stroke="midnightblue" d="M560.14,-56.44C535.83,-47.27 497.11,-32.64 470.18,-22.47"/>
<polygon fill="midnightblue" stroke="midnightblue" points="471.08,-19.07 460.49,-18.82 468.61,-25.62 471.08,-19.07"/>
</g>
<!-- Node7&#45;&gt;Node2 -->
<g id="edge8" class="edge">
<title>Node7&#45;&gt;Node2</title>
<path fill="none" stroke="midnightblue" d="M187.22,-224.41C188.51,-204.04 193.38,-151.6 210.79,-112 215.32,-101.71 222.52,-91.5 229.05,-83.42"/>
<polygon fill="midnightblue" stroke="midnightblue" points="231.9,-85.46 235.7,-75.57 226.56,-80.94 231.9,-85.46"/>
</g>
<!-- Node8 -->
<g id="node8" class="node">
<title>Node8</title>
<g id="a_node8"><a xlink:href="tstring_8h.html" target="_top" xlink:title=" ">
<polygon fill="white" stroke="black" points="290.79,-168.5 290.79,-187.5 342.79,-187.5 342.79,-168.5 290.79,-168.5"/>
<text text-anchor="middle" x="316.79" y="-175.5" font-family="Helvetica,sans-Serif" font-size="10.00">tstring.h</text>
</a>
</g>
</g>
<!-- Node7&#45;&gt;Node8 -->
<g id="edge9" class="edge">
<title>Node7&#45;&gt;Node8</title>
<path fill="none" stroke="midnightblue" d="M205.98,-225.03C227.3,-216.17 262.01,-201.76 286.9,-191.42"/>
<polygon fill="midnightblue" stroke="midnightblue" points="288.35,-194.6 296.25,-187.54 285.67,-188.14 288.35,-194.6"/>
</g>
<!-- Node8&#45;&gt;Node2 -->
<g id="edge10" class="edge">
<title>Node8&#45;&gt;Node2</title>
<path fill="none" stroke="midnightblue" d="M311.83,-168.45C304.47,-155.88 290.11,-131.79 276.79,-112 270.44,-102.55 262.97,-92.3 256.74,-83.97"/>
<polygon fill="midnightblue" stroke="midnightblue" points="259.4,-81.69 250.59,-75.81 253.82,-85.9 259.4,-81.69"/>
</g>
<!-- Node8&#45;&gt;Node4 -->
<g id="edge11" class="edge">
<title>Node8&#45;&gt;Node4</title>
<path fill="none" stroke="midnightblue" d="M337.22,-168.44C367,-155.97 424.11,-132.1 472.79,-112 499.59,-100.94 530.1,-88.47 552.18,-79.46"/>
<polygon fill="midnightblue" stroke="midnightblue" points="553.75,-82.6 561.69,-75.59 551.11,-76.12 553.75,-82.6"/>
</g>
<!-- Node8&#45;&gt;Node6 -->
<g id="edge17" class="edge">
<title>Node8&#45;&gt;Node6</title>
<path fill="none" stroke="midnightblue" d="M323.02,-168.46C337.47,-148.65 374.47,-98.02 405.79,-56 412.83,-46.56 420.76,-36.06 427.19,-27.58"/>
<polygon fill="midnightblue" stroke="midnightblue" points="429.99,-29.68 433.24,-19.6 424.41,-25.45 429.99,-29.68"/>
</g>
<!-- Node8&#45;&gt;Node9 -->
<g id="edge12" class="edge">
<title>Node8&#45;&gt;Node9</title>
<path fill="none" stroke="midnightblue" d="M343.07,-169.94C376.92,-160.85 436.13,-144.94 476.14,-134.19"/>
<polygon fill="midnightblue" stroke="midnightblue" points="477.12,-137.55 485.87,-131.58 475.31,-130.79 477.12,-137.55"/>
</g>
<!-- Node11 -->
<g id="node11" class="node">
<title>Node11</title>
<g id="a_node11"><a xlink:title=" ">
<polygon fill="white" stroke="#bfbfbf" points="414.79,-56.5 414.79,-75.5 468.79,-75.5 468.79,-56.5 414.79,-56.5"/>
<text text-anchor="middle" x="441.79" y="-63.5" font-family="Helvetica,sans-Serif" font-size="10.00">iostream</text>
</a>
</g>
</g>
<!-- Node8&#45;&gt;Node11 -->
<g id="edge18" class="edge">
<title>Node8&#45;&gt;Node11</title>
<path fill="none" stroke="midnightblue" d="M334.74,-168.42C350.52,-160.36 373.59,-147.27 390.79,-132 406.66,-117.92 421.21,-98.42 430.68,-84.46"/>
<polygon fill="midnightblue" stroke="midnightblue" points="433.79,-86.09 436.37,-75.81 427.95,-82.24 433.79,-86.09"/>
</g>
<!-- Node9&#45;&gt;Node2 -->
<g id="edge14" class="edge">
<title>Node9&#45;&gt;Node2</title>
<path fill="none" stroke="midnightblue" d="M481.13,-113.77C432.9,-104.27 347.97,-87.53 293.86,-76.87"/>
<polygon fill="midnightblue" stroke="midnightblue" points="294.29,-73.38 283.8,-74.88 292.94,-80.25 294.29,-73.38"/>
</g>
<!-- Node9&#45;&gt;Node4 -->
<g id="edge13" class="edge">
<title>Node9&#45;&gt;Node4</title>
<path fill="none" stroke="midnightblue" d="M528.24,-112.32C537.94,-104.26 552.61,-92.08 564.29,-82.37"/>
<polygon fill="midnightblue" stroke="midnightblue" points="566.71,-84.92 572.16,-75.83 562.23,-79.53 566.71,-84.92"/>
</g>
<!-- Node10 -->
<g id="node10" class="node">
<title>Node10</title>
<g id="a_node10"><a xlink:title=" ">
<polygon fill="white" stroke="#bfbfbf" points="495.79,-56.5 495.79,-75.5 539.79,-75.5 539.79,-56.5 495.79,-56.5"/>
<text text-anchor="middle" x="517.79" y="-63.5" font-family="Helvetica,sans-Serif" font-size="10.00">vector</text>
</a>
</g>
</g>
<!-- Node9&#45;&gt;Node10 -->
<g id="edge15" class="edge">
<title>Node9&#45;&gt;Node10</title>
<path fill="none" stroke="midnightblue" d="M517.79,-112.08C517.79,-105.01 517.79,-94.86 517.79,-85.99"/>
<polygon fill="midnightblue" stroke="midnightblue" points="521.29,-85.75 517.79,-75.75 514.29,-85.75 521.29,-85.75"/>
</g>
<!-- Node9&#45;&gt;Node11 -->
<g id="edge16" class="edge">
<title>Node9&#45;&gt;Node11</title>
<path fill="none" stroke="midnightblue" d="M505.58,-112.32C494.02,-104.11 476.42,-91.6 462.63,-81.81"/>
<polygon fill="midnightblue" stroke="midnightblue" points="464.41,-78.77 454.23,-75.83 460.35,-84.48 464.41,-78.77"/>
</g>
<!-- Node12&#45;&gt;Node2 -->
<g id="edge21" class="edge">
<title>Node12&#45;&gt;Node2</title>
<path fill="none" stroke="midnightblue" d="M590.73,-168.19C588.51,-153.9 581.96,-125.87 563.79,-112 542.76,-95.95 378.98,-79.12 294.24,-71.37"/>
<polygon fill="midnightblue" stroke="midnightblue" points="294.34,-67.87 284.07,-70.45 293.71,-74.84 294.34,-67.87"/>
</g>
<!-- Node12&#45;&gt;Node4 -->
<g id="edge22" class="edge">
<title>Node12&#45;&gt;Node4</title>
<path fill="none" stroke="midnightblue" d="M593.75,-168.12C596.22,-155.56 599.82,-131.92 596.79,-112 595.43,-103 592.6,-93.33 589.85,-85.26"/>
<polygon fill="midnightblue" stroke="midnightblue" points="593.11,-83.98 586.39,-75.78 586.53,-86.37 593.11,-83.98"/>
</g>
<!-- Node12&#45;&gt;Node9 -->
<g id="edge23" class="edge">
<title>Node12&#45;&gt;Node9</title>
<path fill="none" stroke="midnightblue" d="M579.91,-168.32C568.64,-160.11 551.51,-147.6 538.09,-137.81"/>
<polygon fill="midnightblue" stroke="midnightblue" points="540.04,-134.9 529.9,-131.83 535.92,-140.56 540.04,-134.9"/>
</g>
<!-- Node13&#45;&gt;Node4 -->
<g id="edge25" class="edge">
<title>Node13&#45;&gt;Node4</title>
<path fill="none" stroke="midnightblue" d="M687.99,-112.44C667.51,-103.6 635.31,-89.69 611.93,-79.59"/>
<polygon fill="midnightblue" stroke="midnightblue" points="613.08,-76.27 602.51,-75.52 610.3,-82.7 613.08,-76.27"/>
</g>
<!-- Node14 -->
<g id="node14" class="node">
<title>Node14</title>
<g id="a_node14"><a xlink:title=" ">
<polygon fill="white" stroke="#bfbfbf" points="721.29,-56.5 721.29,-75.5 750.29,-75.5 750.29,-56.5 721.29,-56.5"/>
<text text-anchor="middle" x="735.79" y="-63.5" font-family="Helvetica,sans-Serif" font-size="10.00">list</text>
</a>
</g>
</g>
<!-- Node13&#45;&gt;Node14 -->
<g id="edge26" class="edge">
<title>Node13&#45;&gt;Node14</title>
<path fill="none" stroke="midnightblue" d="M712.42,-112.08C716.25,-104.69 721.82,-93.95 726.56,-84.81"/>
<polygon fill="midnightblue" stroke="midnightblue" points="729.76,-86.24 731.26,-75.75 723.55,-83.02 729.76,-86.24"/>
</g>
<!-- Node15 -->
<g id="node15" class="node">
<title>Node15</title>
<g id="a_node15"><a xlink:title=" ">
<polygon fill="white" stroke="#bfbfbf" points="654.29,-56.5 654.29,-75.5 703.29,-75.5 703.29,-56.5 654.29,-56.5"/>
<text text-anchor="middle" x="678.79" y="-63.5" font-family="Helvetica,sans-Serif" font-size="10.00">tlist.tcc</text>
</a>
</g>
</g>
<!-- Node13&#45;&gt;Node15 -->
<g id="edge27" class="edge">
<title>Node13&#45;&gt;Node15</title>
<path fill="none" stroke="midnightblue" d="M703.01,-112.08C699.04,-104.69 693.27,-93.95 688.36,-84.81"/>
<polygon fill="midnightblue" stroke="midnightblue" points="691.31,-82.91 683.49,-75.75 685.14,-86.22 691.31,-82.91"/>
</g>
<!-- Node16&#45;&gt;Node2 -->
<g id="edge33" class="edge">
<title>Node16&#45;&gt;Node2</title>
<path fill="none" stroke="midnightblue" d="M349.31,-225.48C327.07,-219.04 299.39,-207.6 281.79,-188 255.66,-158.88 247.5,-111.89 244.95,-85.86"/>
<polygon fill="midnightblue" stroke="midnightblue" points="248.43,-85.5 244.15,-75.81 241.45,-86.06 248.43,-85.5"/>
</g>
<!-- Node16&#45;&gt;Node8 -->
<g id="edge31" class="edge">
<title>Node16&#45;&gt;Node8</title>
<path fill="none" stroke="midnightblue" d="M373.87,-224.32C363.62,-216.18 348.07,-203.84 335.79,-194.09"/>
<polygon fill="midnightblue" stroke="midnightblue" points="337.93,-191.31 327.92,-187.83 333.57,-196.79 337.93,-191.31"/>
</g>
<!-- Node16&#45;&gt;Node9 -->
<g id="edge32" class="edge">
<title>Node16&#45;&gt;Node9</title>
<path fill="none" stroke="midnightblue" d="M409.46,-224.47C428.54,-216.99 454.82,-204.71 473.79,-188 488.94,-174.67 501.28,-155.01 509,-140.81"/>
<polygon fill="midnightblue" stroke="midnightblue" points="512.28,-142.09 513.78,-131.6 506.07,-138.87 512.28,-142.09"/>
</g>
<!-- Node16&#45;&gt;Node13 -->
<g id="edge30" class="edge">
<title>Node16&#45;&gt;Node13</title>
<path fill="none" stroke="midnightblue" d="M420.02,-232.5C469.98,-230.52 563.18,-222.09 633.79,-188 657.96,-176.33 680.31,-154.54 693.98,-139.43"/>
<polygon fill="midnightblue" stroke="midnightblue" points="696.69,-141.65 700.65,-131.82 691.42,-137.04 696.69,-141.65"/>
</g>
<!-- Node17 -->
<g id="node17" class="node">
<title>Node17</title>
<g id="a_node17"><a xlink:href="flacmetadatablock_8h.html" target="_top" xlink:title=" ">
<polygon fill="white" stroke="black" points="360.79,-168.5 360.79,-187.5 464.79,-187.5 464.79,-168.5 360.79,-168.5"/>
<text text-anchor="middle" x="412.79" y="-175.5" font-family="Helvetica,sans-Serif" font-size="10.00">flacmetadatablock.h</text>
</a>
</g>
</g>
<!-- Node16&#45;&gt;Node17 -->
<g id="edge34" class="edge">
<title>Node16&#45;&gt;Node17</title>
<path fill="none" stroke="midnightblue" d="M389.42,-224.08C393.25,-216.69 398.82,-205.95 403.56,-196.81"/>
<polygon fill="midnightblue" stroke="midnightblue" points="406.76,-198.24 408.26,-187.75 400.55,-195.02 406.76,-198.24"/>
</g>
<!-- Node17&#45;&gt;Node2 -->
<g id="edge37" class="edge">
<title>Node17&#45;&gt;Node2</title>
<path fill="none" stroke="midnightblue" d="M399.53,-168.37C370.53,-149.49 301.23,-104.38 265.67,-81.24"/>
<polygon fill="midnightblue" stroke="midnightblue" points="267.28,-78.11 256.99,-75.59 263.47,-83.98 267.28,-78.11"/>
</g>
<!-- Node17&#45;&gt;Node9 -->
<g id="edge36" class="edge">
<title>Node17&#45;&gt;Node9</title>
<path fill="none" stroke="midnightblue" d="M429.66,-168.32C446.5,-159.66 472.6,-146.24 492.03,-136.25"/>
<polygon fill="midnightblue" stroke="midnightblue" points="493.67,-139.34 500.97,-131.65 490.47,-133.12 493.67,-139.34"/>
</g>
<!-- Node17&#45;&gt;Node13 -->
<g id="edge35" class="edge">
<title>Node17&#45;&gt;Node13</title>
<path fill="none" stroke="midnightblue" d="M459.54,-168.44C520.49,-157.29 625.4,-138.08 677.13,-128.61"/>
<polygon fill="midnightblue" stroke="midnightblue" points="677.83,-132.04 687.04,-126.8 676.57,-125.16 677.83,-132.04"/>
</g>
<!-- Node18&#45;&gt;Node2 -->
<g id="edge39" class="edge">
<title>Node18&#45;&gt;Node2</title>
<path fill="none" stroke="midnightblue" d="M122.98,-168.29C132.63,-155.1 152.28,-129.72 172.79,-112 186.84,-99.87 204.45,-88.69 218.61,-80.51"/>
<polygon fill="midnightblue" stroke="midnightblue" points="220.36,-83.54 227.36,-75.58 216.92,-77.44 220.36,-83.54"/>
</g>
<!-- Node19 -->
<g id="node19" class="node">
<title>Node19</title>
<g id="a_node19"><a xlink:href="audioproperties_8h.html" target="_top" xlink:title=" ">
<polygon fill="white" stroke="black" points="29.29,-112.5 29.29,-131.5 120.29,-131.5 120.29,-112.5 29.29,-112.5"/>
<text text-anchor="middle" x="74.79" y="-119.5" font-family="Helvetica,sans-Serif" font-size="10.00">audioproperties.h</text>
</a>
</g>
</g>
<!-- Node18&#45;&gt;Node19 -->
<g id="edge40" class="edge">
<title>Node18&#45;&gt;Node19</title>
<path fill="none" stroke="midnightblue" d="M109.86,-168.08C103.87,-160.38 95.04,-149.03 87.75,-139.65"/>
<polygon fill="midnightblue" stroke="midnightblue" points="90.5,-137.5 81.6,-131.75 84.98,-141.79 90.5,-137.5"/>
</g>
<!-- Node19&#45;&gt;Node2 -->
<g id="edge41" class="edge">
<title>Node19&#45;&gt;Node2</title>
<path fill="none" stroke="midnightblue" d="M101.57,-112.44C130.13,-103.32 175.53,-88.81 207.33,-78.65"/>
<polygon fill="midnightblue" stroke="midnightblue" points="208.68,-81.89 217.14,-75.52 206.55,-75.23 208.68,-81.89"/>
</g>
</g>
</svg>
