<?xml version="1.0" encoding="UTF-8" standalone="no"?>
<!DOCTYPE svg PUBLIC "-//W3C//DTD SVG 1.1//EN"
 "http://www.w3.org/Graphics/SVG/1.1/DTD/svg11.dtd">
<!-- Generated by graphviz version 2.43.0 (0)
 -->
<!-- Title: flacfile.h Pages: 1 -->
<svg width="780pt" height="364pt"
 viewBox="0.00 0.00 779.82 364.00" xmlns="http://www.w3.org/2000/svg" xmlns:xlink="http://www.w3.org/1999/xlink">
<g id="graph0" class="graph" transform="scale(1 1) rotate(0) translate(4 360)">
<title>flacfile.h</title>
<polygon fill="white" stroke="transparent" points="-4,4 -4,-360 775.82,-360 775.82,4 -4,4"/>
<!-- Node1 -->
<g id="node1" class="node">
<title>Node1</title>
<g id="a_node1"><a xlink:title=" ">
<polygon fill="#bfbfbf" stroke="black" points="301.82,-336.5 301.82,-355.5 359.82,-355.5 359.82,-336.5 301.82,-336.5"/>
<text text-anchor="middle" x="330.82" y="-343.5" font-family="Helvetica,sans-Serif" font-size="10.00">flacfile.h</text>
</a>
</g>
</g>
<!-- Node2 -->
<g id="node2" class="node">
<title>Node2</title>
<g id="a_node2"><a xlink:href="taglib__export_8h.html" target="_top" xlink:title=" ">
<polygon fill="white" stroke="black" points="208.82,-56.5 208.82,-75.5 298.82,-75.5 298.82,-56.5 208.82,-56.5"/>
<text text-anchor="middle" x="253.82" y="-63.5" font-family="Helvetica,sans-Serif" font-size="10.00">taglib_export.h</text>
</a>
</g>
</g>
<!-- Node1&#45;&gt;Node2 -->
<g id="edge1" class="edge">
<title>Node1&#45;&gt;Node2</title>
<path fill="none" stroke="midnightblue" d="M301.53,-341.62C220.77,-331.49 0.82,-298.11 0.82,-235 0.82,-235 0.82,-235 0.82,-177 0.82,-146.9 -2.45,-132.25 19.82,-112 45.45,-88.68 137.77,-76.61 198.5,-71.05"/>
<polygon fill="midnightblue" stroke="midnightblue" points="199.05,-74.52 208.71,-70.15 198.44,-67.54 199.05,-74.52"/>
</g>
<!-- Node3 -->
<g id="node3" class="node">
<title>Node3</title>
<g id="a_node3"><a xlink:href="tfile_8h.html" target="_top" xlink:title=" ">
<polygon fill="white" stroke="black" points="470.82,-280.5 470.82,-299.5 514.82,-299.5 514.82,-280.5 470.82,-280.5"/>
<text text-anchor="middle" x="492.82" y="-287.5" font-family="Helvetica,sans-Serif" font-size="10.00">tfile.h</text>
</a>
</g>
</g>
<!-- Node1&#45;&gt;Node3 -->
<g id="edge2" class="edge">
<title>Node1&#45;&gt;Node3</title>
<path fill="none" stroke="midnightblue" d="M356.49,-336.44C384.78,-327.01 430.33,-311.83 460.9,-301.64"/>
<polygon fill="midnightblue" stroke="midnightblue" points="462.27,-304.87 470.65,-298.39 460.06,-298.23 462.27,-304.87"/>
</g>
<!-- Node7 -->
<g id="node7" class="node">
<title>Node7</title>
<g id="a_node7"><a xlink:href="tag_8h.html" target="_top" xlink:title=" ">
<polygon fill="white" stroke="black" points="176.32,-224.5 176.32,-243.5 217.32,-243.5 217.32,-224.5 176.32,-224.5"/>
<text text-anchor="middle" x="196.82" y="-231.5" font-family="Helvetica,sans-Serif" font-size="10.00">tag.h</text>
</a>
</g>
</g>
<!-- Node1&#45;&gt;Node7 -->
<g id="edge28" class="edge">
<title>Node1&#45;&gt;Node7</title>
<path fill="none" stroke="midnightblue" d="M320.3,-336.37C297.6,-317.73 243.76,-273.53 215.25,-250.13"/>
<polygon fill="midnightblue" stroke="midnightblue" points="217.23,-247.23 207.28,-243.59 212.79,-252.64 217.23,-247.23"/>
</g>
<!-- Node13 -->
<g id="node13" class="node">
<title>Node13</title>
<g id="a_node13"><a xlink:href="tlist_8h.html" target="_top" xlink:title=" ">
<polygon fill="white" stroke="black" points="716.82,-112.5 716.82,-131.5 760.82,-131.5 760.82,-112.5 716.82,-112.5"/>
<text text-anchor="middle" x="738.82" y="-119.5" font-family="Helvetica,sans-Serif" font-size="10.00">tlist.h</text>
</a>
</g>
</g>
<!-- Node1&#45;&gt;Node13 -->
<g id="edge24" class="edge">
<title>Node1&#45;&gt;Node13</title>
<path fill="none" stroke="midnightblue" d="M360.01,-341.47C418.39,-333.2 551.64,-308.21 641.82,-244 681.68,-215.61 713.84,-166.53 729.14,-140.46"/>
<polygon fill="midnightblue" stroke="midnightblue" points="732.23,-142.1 734.15,-131.68 726.15,-138.63 732.23,-142.1"/>
</g>
<!-- Node16 -->
<g id="node16" class="node">
<title>Node16</title>
<g id="a_node16"><a xlink:href="flacpicture_8h.html" target="_top" xlink:title=" ">
<polygon fill="white" stroke="black" points="366.32,-224.5 366.32,-243.5 443.32,-243.5 443.32,-224.5 366.32,-224.5"/>
<text text-anchor="middle" x="404.82" y="-231.5" font-family="Helvetica,sans-Serif" font-size="10.00">flacpicture.h</text>
</a>
</g>
</g>
<!-- Node1&#45;&gt;Node16 -->
<g id="edge29" class="edge">
<title>Node1&#45;&gt;Node16</title>
<path fill="none" stroke="midnightblue" d="M336.62,-336.37C348.83,-318.22 377.37,-275.8 393.39,-251.99"/>
<polygon fill="midnightblue" stroke="midnightblue" points="396.36,-253.84 399.04,-243.59 390.55,-249.94 396.36,-253.84"/>
</g>
<!-- Node18 -->
<g id="node18" class="node">
<title>Node18</title>
<g id="a_node18"><a xlink:href="flacproperties_8h.html" target="_top" xlink:title=" ">
<polygon fill="white" stroke="black" points="76.82,-168.5 76.82,-187.5 168.82,-187.5 168.82,-168.5 76.82,-168.5"/>
<text text-anchor="middle" x="122.82" y="-175.5" font-family="Helvetica,sans-Serif" font-size="10.00">flacproperties.h</text>
</a>
</g>
</g>
<!-- Node1&#45;&gt;Node18 -->
<g id="edge38" class="edge">
<title>Node1&#45;&gt;Node18</title>
<path fill="none" stroke="midnightblue" d="M310.95,-336.47C278.03,-321.57 211.47,-288.15 167.82,-244 153.68,-229.71 140.99,-210.5 132.72,-196.67"/>
<polygon fill="midnightblue" stroke="midnightblue" points="135.56,-194.6 127.52,-187.7 129.51,-198.11 135.56,-194.6"/>
</g>
<!-- Node3&#45;&gt;Node2 -->
<g id="edge3" class="edge">
<title>Node3&#45;&gt;Node2</title>
<path fill="none" stroke="midnightblue" d="M470.6,-285.68C425.62,-277.71 323.8,-253.08 273.82,-188 250.87,-158.13 250.09,-111.76 251.79,-85.96"/>
<polygon fill="midnightblue" stroke="midnightblue" points="255.31,-85.95 252.68,-75.69 248.33,-85.35 255.31,-85.95"/>
</g>
<!-- Node4 -->
<g id="node4" class="node">
<title>Node4</title>
<g id="a_node4"><a xlink:href="taglib_8h.html" target="_top" xlink:title=" ">
<polygon fill="white" stroke="black" points="594.32,-56.5 594.32,-75.5 647.32,-75.5 647.32,-56.5 594.32,-56.5"/>
<text text-anchor="middle" x="620.82" y="-63.5" font-family="Helvetica,sans-Serif" font-size="10.00">taglib.h</text>
</a>
</g>
</g>
<!-- Node3&#45;&gt;Node4 -->
<g id="edge4" class="edge">
<title>Node3&#45;&gt;Node4</title>
<path fill="none" stroke="midnightblue" d="M515.12,-284.55C555.57,-275.09 639.65,-248.67 669.82,-188 687.88,-151.67 656.72,-106.98 636.35,-83.39"/>
<polygon fill="midnightblue" stroke="midnightblue" points="638.73,-80.8 629.44,-75.71 633.52,-85.48 638.73,-80.8"/>
</g>
<!-- Node3&#45;&gt;Node7 -->
<g id="edge7" class="edge">
<title>Node3&#45;&gt;Node7</title>
<path fill="none" stroke="midnightblue" d="M470.7,-285.81C425.57,-279.15 319.71,-262.85 231.82,-244 230.36,-243.69 228.87,-243.36 227.37,-243.01"/>
<polygon fill="midnightblue" stroke="midnightblue" points="228.02,-239.57 217.48,-240.61 226.37,-246.37 228.02,-239.57"/>
</g>
<!-- Node9 -->
<g id="node9" class="node">
<title>Node9</title>
<g id="a_node9"><a xlink:href="tbytevector_8h.html" target="_top" xlink:title=" ">
<polygon fill="white" stroke="black" points="491.32,-112.5 491.32,-131.5 572.32,-131.5 572.32,-112.5 491.32,-112.5"/>
<text text-anchor="middle" x="531.82" y="-119.5" font-family="Helvetica,sans-Serif" font-size="10.00">tbytevector.h</text>
</a>
</g>
</g>
<!-- Node3&#45;&gt;Node9 -->
<g id="edge19" class="edge">
<title>Node3&#45;&gt;Node9</title>
<path fill="none" stroke="midnightblue" d="M495.67,-280.45C501.35,-263.16 514.19,-222.75 521.82,-188 525.19,-172.65 527.82,-155.01 529.54,-141.98"/>
<polygon fill="midnightblue" stroke="midnightblue" points="533.04,-142.26 530.81,-131.9 526.09,-141.38 533.04,-142.26"/>
</g>
<!-- Node12 -->
<g id="node12" class="node">
<title>Node12</title>
<g id="a_node12"><a xlink:href="tiostream_8h.html" target="_top" xlink:title=" ">
<polygon fill="white" stroke="black" points="587.32,-168.5 587.32,-187.5 660.32,-187.5 660.32,-168.5 587.32,-168.5"/>
<text text-anchor="middle" x="623.82" y="-175.5" font-family="Helvetica,sans-Serif" font-size="10.00">tiostream.h</text>
</a>
</g>
</g>
<!-- Node3&#45;&gt;Node12 -->
<g id="edge20" class="edge">
<title>Node3&#45;&gt;Node12</title>
<path fill="none" stroke="midnightblue" d="M512.93,-280.41C530,-272.51 554.55,-259.67 572.82,-244 588.92,-230.19 603.43,-210.65 612.82,-196.6"/>
<polygon fill="midnightblue" stroke="midnightblue" points="615.96,-198.19 618.46,-187.89 610.09,-194.38 615.96,-198.19"/>
</g>
<!-- Node5 -->
<g id="node5" class="node">
<title>Node5</title>
<g id="a_node5"><a xlink:title=" ">
<polygon fill="white" stroke="#bfbfbf" points="576.82,-0.5 576.82,-19.5 664.82,-19.5 664.82,-0.5 576.82,-0.5"/>
<text text-anchor="middle" x="620.82" y="-7.5" font-family="Helvetica,sans-Serif" font-size="10.00">taglib_config.h</text>
</a>
</g>
</g>
<!-- Node4&#45;&gt;Node5 -->
<g id="edge5" class="edge">
<title>Node4&#45;&gt;Node5</title>
<path fill="none" stroke="midnightblue" d="M620.82,-56.08C620.82,-49.01 620.82,-38.86 620.82,-29.99"/>
<polygon fill="midnightblue" stroke="midnightblue" points="624.32,-29.75 620.82,-19.75 617.32,-29.75 624.32,-29.75"/>
</g>
<!-- Node6 -->
<g id="node6" class="node">
<title>Node6</title>
<g id="a_node6"><a xlink:title=" ">
<polygon fill="white" stroke="#bfbfbf" points="430.82,-0.5 430.82,-19.5 474.82,-19.5 474.82,-0.5 430.82,-0.5"/>
<text text-anchor="middle" x="452.82" y="-7.5" font-family="Helvetica,sans-Serif" font-size="10.00">string</text>
</a>
</g>
</g>
<!-- Node4&#45;&gt;Node6 -->
<g id="edge6" class="edge">
<title>Node4&#45;&gt;Node6</title>
<path fill="none" stroke="midnightblue" d="M594.2,-56.44C564.47,-46.89 516.39,-31.44 484.69,-21.25"/>
<polygon fill="midnightblue" stroke="midnightblue" points="485.61,-17.86 475.02,-18.14 483.47,-24.53 485.61,-17.86"/>
</g>
<!-- Node7&#45;&gt;Node2 -->
<g id="edge8" class="edge">
<title>Node7&#45;&gt;Node2</title>
<path fill="none" stroke="midnightblue" d="M197.24,-224.41C198.53,-204.04 203.4,-151.6 220.82,-112 225.34,-101.71 232.54,-91.5 239.07,-83.42"/>
<polygon fill="midnightblue" stroke="midnightblue" points="241.92,-85.46 245.72,-75.57 236.58,-80.94 241.92,-85.46"/>
</g>
<!-- Node8 -->
<g id="node8" class="node">
<title>Node8</title>
<g id="a_node8"><a xlink:href="tstring_8h.html" target="_top" xlink:title=" ">
<polygon fill="white" stroke="black" points="301.32,-168.5 301.32,-187.5 358.32,-187.5 358.32,-168.5 301.32,-168.5"/>
<text text-anchor="middle" x="329.82" y="-175.5" font-family="Helvetica,sans-Serif" font-size="10.00">tstring.h</text>
</a>
</g>
</g>
<!-- Node7&#45;&gt;Node8 -->
<g id="edge9" class="edge">
<title>Node7&#45;&gt;Node8</title>
<path fill="none" stroke="midnightblue" d="M217.6,-224.56C239.53,-215.66 274.31,-201.54 299.34,-191.37"/>
<polygon fill="midnightblue" stroke="midnightblue" points="300.79,-194.56 308.74,-187.56 298.16,-188.08 300.79,-194.56"/>
</g>
<!-- Node8&#45;&gt;Node2 -->
<g id="edge10" class="edge">
<title>Node8&#45;&gt;Node2</title>
<path fill="none" stroke="midnightblue" d="M324.38,-168.5C316.34,-156 300.74,-131.98 286.82,-112 280.23,-102.54 272.63,-92.16 266.39,-83.75"/>
<polygon fill="midnightblue" stroke="midnightblue" points="269.05,-81.46 260.27,-75.54 263.44,-85.65 269.05,-81.46"/>
</g>
<!-- Node8&#45;&gt;Node4 -->
<g id="edge11" class="edge">
<title>Node8&#45;&gt;Node4</title>
<path fill="none" stroke="midnightblue" d="M348.45,-168.47C377.05,-155.51 433.63,-130.43 482.82,-112 516.86,-99.24 556.37,-86.57 584.36,-77.94"/>
<polygon fill="midnightblue" stroke="midnightblue" points="585.59,-81.23 594.12,-74.95 583.54,-74.53 585.59,-81.23"/>
</g>
<!-- Node8&#45;&gt;Node6 -->
<g id="edge17" class="edge">
<title>Node8&#45;&gt;Node6</title>
<path fill="none" stroke="midnightblue" d="M335.41,-168.27C348.48,-148.03 382.28,-96.59 413.82,-56 421.43,-46.2 430.47,-35.7 437.93,-27.31"/>
<polygon fill="midnightblue" stroke="midnightblue" points="440.67,-29.5 444.76,-19.73 435.47,-24.82 440.67,-29.5"/>
</g>
<!-- Node8&#45;&gt;Node9 -->
<g id="edge12" class="edge">
<title>Node8&#45;&gt;Node9</title>
<path fill="none" stroke="midnightblue" d="M358.33,-169.38C392.64,-160.2 450.55,-144.72 489.94,-134.19"/>
<polygon fill="midnightblue" stroke="midnightblue" points="491.02,-137.53 499.78,-131.56 489.22,-130.77 491.02,-137.53"/>
</g>
<!-- Node11 -->
<g id="node11" class="node">
<title>Node11</title>
<g id="a_node11"><a xlink:title=" ">
<polygon fill="white" stroke="#bfbfbf" points="422.82,-56.5 422.82,-75.5 482.82,-75.5 482.82,-56.5 422.82,-56.5"/>
<text text-anchor="middle" x="452.82" y="-63.5" font-family="Helvetica,sans-Serif" font-size="10.00">iostream</text>
</a>
</g>
</g>
<!-- Node8&#45;&gt;Node11 -->
<g id="edge18" class="edge">
<title>Node8&#45;&gt;Node11</title>
<path fill="none" stroke="midnightblue" d="M346.68,-168.4C361.78,-160.23 384.08,-147 400.82,-132 416.73,-117.74 431.61,-98.27 441.34,-84.36"/>
<polygon fill="midnightblue" stroke="midnightblue" points="444.47,-85.99 447.2,-75.75 438.68,-82.05 444.47,-85.99"/>
</g>
<!-- Node9&#45;&gt;Node2 -->
<g id="edge14" class="edge">
<title>Node9&#45;&gt;Node2</title>
<path fill="none" stroke="midnightblue" d="M491.09,-113.09C442.64,-103.68 361.56,-87.93 307.88,-77.5"/>
<polygon fill="midnightblue" stroke="midnightblue" points="308.35,-74.03 297.86,-75.56 307.01,-80.9 308.35,-74.03"/>
</g>
<!-- Node9&#45;&gt;Node4 -->
<g id="edge13" class="edge">
<title>Node9&#45;&gt;Node4</title>
<path fill="none" stroke="midnightblue" d="M546.12,-112.32C560,-103.9 581.31,-90.97 597.62,-81.07"/>
<polygon fill="midnightblue" stroke="midnightblue" points="599.82,-83.83 606.55,-75.65 596.19,-77.85 599.82,-83.83"/>
</g>
<!-- Node10 -->
<g id="node10" class="node">
<title>Node10</title>
<g id="a_node10"><a xlink:title=" ">
<polygon fill="white" stroke="#bfbfbf" points="508.32,-56.5 508.32,-75.5 555.32,-75.5 555.32,-56.5 508.32,-56.5"/>
<text text-anchor="middle" x="531.82" y="-63.5" font-family="Helvetica,sans-Serif" font-size="10.00">vector</text>
</a>
</g>
</g>
<!-- Node9&#45;&gt;Node10 -->
<g id="edge15" class="edge">
<title>Node9&#45;&gt;Node10</title>
<path fill="none" stroke="midnightblue" d="M531.82,-112.08C531.82,-105.01 531.82,-94.86 531.82,-85.99"/>
<polygon fill="midnightblue" stroke="midnightblue" points="535.32,-85.75 531.82,-75.75 528.32,-85.75 535.32,-85.75"/>
</g>
<!-- Node9&#45;&gt;Node11 -->
<g id="edge16" class="edge">
<title>Node9&#45;&gt;Node11</title>
<path fill="none" stroke="midnightblue" d="M519.12,-112.32C506.91,-103.98 488.24,-91.21 473.81,-81.35"/>
<polygon fill="midnightblue" stroke="midnightblue" points="475.71,-78.41 465.48,-75.65 471.76,-84.19 475.71,-78.41"/>
</g>
<!-- Node12&#45;&gt;Node2 -->
<g id="edge21" class="edge">
<title>Node12&#45;&gt;Node2</title>
<path fill="none" stroke="midnightblue" d="M620.84,-168.09C615.52,-153.65 602.9,-125.42 581.82,-112 537.7,-83.92 390.58,-73.02 309.17,-69.07"/>
<polygon fill="midnightblue" stroke="midnightblue" points="309.26,-65.57 299.1,-68.6 308.93,-72.56 309.26,-65.57"/>
</g>
<!-- Node12&#45;&gt;Node4 -->
<g id="edge22" class="edge">
<title>Node12&#45;&gt;Node4</title>
<path fill="none" stroke="midnightblue" d="M623.58,-168.37C623.1,-150.62 621.98,-109.67 621.32,-85.6"/>
<polygon fill="midnightblue" stroke="midnightblue" points="624.82,-85.49 621.05,-75.59 617.82,-85.68 624.82,-85.49"/>
</g>
<!-- Node12&#45;&gt;Node9 -->
<g id="edge23" class="edge">
<title>Node12&#45;&gt;Node9</title>
<path fill="none" stroke="midnightblue" d="M609.03,-168.32C594.55,-159.82 572.24,-146.73 555.32,-136.8"/>
<polygon fill="midnightblue" stroke="midnightblue" points="556.96,-133.7 546.56,-131.65 553.41,-139.74 556.96,-133.7"/>
</g>
<!-- Node13&#45;&gt;Node4 -->
<g id="edge25" class="edge">
<title>Node13&#45;&gt;Node4</title>
<path fill="none" stroke="midnightblue" d="M720.12,-112.44C700.87,-103.64 670.66,-89.81 648.62,-79.72"/>
<polygon fill="midnightblue" stroke="midnightblue" points="649.98,-76.5 639.43,-75.52 647.06,-82.86 649.98,-76.5"/>
</g>
<!-- Node14 -->
<g id="node14" class="node">
<title>Node14</title>
<g id="a_node14"><a xlink:title=" ">
<polygon fill="white" stroke="#bfbfbf" points="739.82,-56.5 739.82,-75.5 771.82,-75.5 771.82,-56.5 739.82,-56.5"/>
<text text-anchor="middle" x="755.82" y="-63.5" font-family="Helvetica,sans-Serif" font-size="10.00">list</text>
</a>
</g>
</g>
<!-- Node13&#45;&gt;Node14 -->
<g id="edge26" class="edge">
<title>Node13&#45;&gt;Node14</title>
<path fill="none" stroke="midnightblue" d="M741.62,-112.08C743.9,-104.85 747.19,-94.41 750.02,-85.4"/>
<polygon fill="midnightblue" stroke="midnightblue" points="753.4,-86.34 753.06,-75.75 746.72,-84.24 753.4,-86.34"/>
</g>
<!-- Node15 -->
<g id="node15" class="node">
<title>Node15</title>
<g id="a_node15"><a xlink:title=" ">
<polygon fill="white" stroke="#bfbfbf" points="668.32,-56.5 668.32,-75.5 721.32,-75.5 721.32,-56.5 668.32,-56.5"/>
<text text-anchor="middle" x="694.82" y="-63.5" font-family="Helvetica,sans-Serif" font-size="10.00">tlist.tcc</text>
</a>
</g>
</g>
<!-- Node13&#45;&gt;Node15 -->
<g id="edge27" class="edge">
<title>Node13&#45;&gt;Node15</title>
<path fill="none" stroke="midnightblue" d="M731.55,-112.08C725.27,-104.38 716.03,-93.03 708.38,-83.65"/>
<polygon fill="midnightblue" stroke="midnightblue" points="710.98,-81.29 701.95,-75.75 705.55,-85.71 710.98,-81.29"/>
</g>
<!-- Node16&#45;&gt;Node2 -->
<g id="edge33" class="edge">
<title>Node16&#45;&gt;Node2</title>
<path fill="none" stroke="midnightblue" d="M366.06,-226.14C341.97,-219.99 312.03,-208.62 292.82,-188 265.94,-159.17 257.58,-111.68 254.99,-85.6"/>
<polygon fill="midnightblue" stroke="midnightblue" points="258.47,-85.24 254.17,-75.55 251.49,-85.8 258.47,-85.24"/>
</g>
<!-- Node16&#45;&gt;Node8 -->
<g id="edge31" class="edge">
<title>Node16&#45;&gt;Node8</title>
<path fill="none" stroke="midnightblue" d="M392.77,-224.32C381.35,-216.11 363.98,-203.6 350.38,-193.81"/>
<polygon fill="midnightblue" stroke="midnightblue" points="352.25,-190.84 342.08,-187.83 348.16,-196.52 352.25,-190.84"/>
</g>
<!-- Node16&#45;&gt;Node9 -->
<g id="edge32" class="edge">
<title>Node16&#45;&gt;Node9</title>
<path fill="none" stroke="midnightblue" d="M437.02,-224.39C457.72,-217.45 483.98,-205.87 501.82,-188 514.69,-175.1 522.66,-155.66 527.12,-141.39"/>
<polygon fill="midnightblue" stroke="midnightblue" points="530.51,-142.27 529.86,-131.69 523.77,-140.36 530.51,-142.27"/>
</g>
<!-- Node16&#45;&gt;Node13 -->
<g id="edge30" class="edge">
<title>Node16&#45;&gt;Node13</title>
<path fill="none" stroke="midnightblue" d="M443.37,-233.31C496.94,-232.27 595.66,-224.91 669.82,-188 692.72,-176.6 713.26,-155.07 725.85,-139.92"/>
<polygon fill="midnightblue" stroke="midnightblue" points="728.79,-141.85 732.31,-131.86 723.32,-137.48 728.79,-141.85"/>
</g>
<!-- Node17 -->
<g id="node17" class="node">
<title>Node17</title>
<g id="a_node17"><a xlink:href="flacmetadatablock_8h.html" target="_top" xlink:title=" ">
<polygon fill="white" stroke="black" points="376.82,-168.5 376.82,-187.5 492.82,-187.5 492.82,-168.5 376.82,-168.5"/>
<text text-anchor="middle" x="434.82" y="-175.5" font-family="Helvetica,sans-Serif" font-size="10.00">flacmetadatablock.h</text>
</a>
</g>
</g>
<!-- Node16&#45;&gt;Node17 -->
<g id="edge34" class="edge">
<title>Node16&#45;&gt;Node17</title>
<path fill="none" stroke="midnightblue" d="M409.77,-224.08C413.92,-216.61 419.97,-205.72 425.08,-196.52"/>
<polygon fill="midnightblue" stroke="midnightblue" points="428.16,-198.19 429.95,-187.75 422.04,-194.79 428.16,-198.19"/>
</g>
<!-- Node17&#45;&gt;Node2 -->
<g id="edge37" class="edge">
<title>Node17&#45;&gt;Node2</title>
<path fill="none" stroke="midnightblue" d="M420.61,-168.37C389.42,-149.41 314.7,-104 276.76,-80.94"/>
<polygon fill="midnightblue" stroke="midnightblue" points="278.32,-77.79 267.95,-75.59 274.68,-83.78 278.32,-77.79"/>
</g>
<!-- Node17&#45;&gt;Node9 -->
<g id="edge36" class="edge">
<title>Node17&#45;&gt;Node9</title>
<path fill="none" stroke="midnightblue" d="M450.4,-168.32C465.81,-159.74 489.63,-146.49 507.53,-136.52"/>
<polygon fill="midnightblue" stroke="midnightblue" points="509.23,-139.58 516.27,-131.65 505.83,-133.46 509.23,-139.58"/>
</g>
<!-- Node17&#45;&gt;Node13 -->
<g id="edge35" class="edge">
<title>Node17&#45;&gt;Node13</title>
<path fill="none" stroke="midnightblue" d="M482.99,-168.44C545.61,-157.32 653.28,-138.19 706.75,-128.7"/>
<polygon fill="midnightblue" stroke="midnightblue" points="707.46,-132.12 716.69,-126.93 706.24,-125.23 707.46,-132.12"/>
</g>
<!-- Node18&#45;&gt;Node2 -->
<g id="edge39" class="edge">
<title>Node18&#45;&gt;Node2</title>
<path fill="none" stroke="midnightblue" d="M129.58,-168.33C140.08,-155.2 161.35,-129.9 182.82,-112 197.16,-100.04 214.9,-88.79 229.06,-80.53"/>
<polygon fill="midnightblue" stroke="midnightblue" points="230.83,-83.56 237.78,-75.56 227.36,-77.47 230.83,-83.56"/>
</g>
<!-- Node19 -->
<g id="node19" class="node">
<title>Node19</title>
<g id="a_node19"><a xlink:href="audioproperties_8h.html" target="_top" xlink:title=" ">
<polygon fill="white" stroke="black" points="28.82,-112.5 28.82,-131.5 130.82,-131.5 130.82,-112.5 28.82,-112.5"/>
<text text-anchor="middle" x="79.82" y="-119.5" font-family="Helvetica,sans-Serif" font-size="10.00">audioproperties.h</text>
</a>
</g>
</g>
<!-- Node18&#45;&gt;Node19 -->
<g id="edge40" class="edge">
<title>Node18&#45;&gt;Node19</title>
<path fill="none" stroke="midnightblue" d="M115.72,-168.08C109.58,-160.38 100.55,-149.03 93.08,-139.65"/>
<polygon fill="midnightblue" stroke="midnightblue" points="95.75,-137.39 86.78,-131.75 90.28,-141.75 95.75,-137.39"/>
</g>
<!-- Node19&#45;&gt;Node2 -->
<g id="edge41" class="edge">
<title>Node19&#45;&gt;Node2</title>
<path fill="none" stroke="midnightblue" d="M107.39,-112.44C136.91,-103.28 183.93,-88.69 216.7,-78.52"/>
<polygon fill="midnightblue" stroke="midnightblue" points="217.86,-81.82 226.37,-75.52 215.79,-75.14 217.86,-81.82"/>
</g>
</g>
</svg>
