<?xml version="1.0" encoding="UTF-8" standalone="no"?>
<!DOCTYPE svg PUBLIC "-//W3C//DTD SVG 1.1//EN"
 "http://www.w3.org/Graphics/SVG/1.1/DTD/svg11.dtd">
<!-- Generated by graphviz version 2.42.4 (0)
 -->
<!-- Title: flacfile.h Pages: 1 -->
<svg width="1090pt" height="357pt"
 viewBox="0.00 0.00 1089.50 357.00" xmlns="http://www.w3.org/2000/svg" xmlns:xlink="http://www.w3.org/1999/xlink">
<g id="graph0" class="graph" transform="scale(1 1) rotate(0) translate(4 353)">
<title>flacfile.h</title>
<!-- Node1 -->
<g id="Node000001" class="node">
<title>Node1</title>
<g id="a_Node000001"><a xlink:title=" ">
<polygon fill="#999999" stroke="#666666" points="568.5,-349 510.5,-349 510.5,-330 568.5,-330 568.5,-349"/>
<text text-anchor="middle" x="539.5" y="-337" font-family="Helvetica,sans-Serif" font-size="10.00">flacfile.h</text>
</a>
</g>
</g>
<!-- Node2 -->
<g id="Node000002" class="node">
<title>Node2</title>
<g id="a_Node000002"><a xlink:href="tfile_8h.html" target="_top" xlink:title=" ">
<polygon fill="white" stroke="#666666" points="586.5,-294 542.5,-294 542.5,-275 586.5,-275 586.5,-294"/>
<text text-anchor="middle" x="564.5" y="-282" font-family="Helvetica,sans-Serif" font-size="10.00">tfile.h</text>
</a>
</g>
</g>
<!-- Node1&#45;&gt;Node2 -->
<g id="edge1_Node000001_Node000002" class="edge">
<title>Node1&#45;&gt;Node2</title>
<g id="a_edge1_Node000001_Node000002"><a xlink:title=" ">
<path fill="none" stroke="#63b8ff" d="M543.63,-329.75C547.01,-322.57 551.92,-312.18 556.12,-303.27"/>
<polygon fill="#63b8ff" stroke="#63b8ff" points="559.35,-304.63 560.45,-294.09 553.02,-301.64 559.35,-304.63"/>
</a>
</g>
</g>
<!-- Node7 -->
<g id="Node000007" class="node">
<title>Node7</title>
<g id="a_Node000007"><a xlink:href="taglib__export_8h.html" target="_top" xlink:title=" ">
<polygon fill="white" stroke="#666666" points="825.5,-74 735.5,-74 735.5,-55 825.5,-55 825.5,-74"/>
<text text-anchor="middle" x="780.5" y="-62" font-family="Helvetica,sans-Serif" font-size="10.00">taglib_export.h</text>
</a>
</g>
</g>
<!-- Node1&#45;&gt;Node7 -->
<g id="edge36_Node000001_Node000007" class="edge">
<title>Node1&#45;&gt;Node7</title>
<g id="a_edge36_Node000001_Node000007"><a xlink:title=" ">
<path fill="none" stroke="#63b8ff" d="M568.64,-338.95C681.22,-339.94 1081.5,-336.04 1081.5,-230.5 1081.5,-230.5 1081.5,-230.5 1081.5,-173.5 1081.5,-134.67 1055.61,-128.55 1021.5,-110 963.45,-78.43 887.14,-68.79 836.09,-66.08"/>
<polygon fill="#63b8ff" stroke="#63b8ff" points="836.06,-62.58 825.91,-65.62 835.74,-69.57 836.06,-62.58"/>
</a>
</g>
</g>
<!-- Node11 -->
<g id="Node000011" class="node">
<title>Node11</title>
<g id="a_Node000011"><a xlink:href="tag_8h.html" target="_top" xlink:title=" ">
<polygon fill="white" stroke="#666666" points="536,-239 495,-239 495,-220 536,-220 536,-239"/>
<text text-anchor="middle" x="515.5" y="-227" font-family="Helvetica,sans-Serif" font-size="10.00">tag.h</text>
</a>
</g>
</g>
<!-- Node1&#45;&gt;Node11 -->
<g id="edge37_Node000001_Node000011" class="edge">
<title>Node1&#45;&gt;Node11</title>
<g id="a_edge37_Node000001_Node000011"><a xlink:title=" ">
<path fill="none" stroke="#63b8ff" d="M537.54,-329.66C533.63,-312.09 524.82,-272.45 519.6,-248.95"/>
<polygon fill="#63b8ff" stroke="#63b8ff" points="523.01,-248.16 517.42,-239.16 516.18,-249.68 523.01,-248.16"/>
</a>
</g>
</g>
<!-- Node14 -->
<g id="Node000014" class="node">
<title>Node14</title>
<g id="a_Node000014"><a xlink:href="tlist_8h.html" target="_top" xlink:title=" ">
<polygon fill="white" stroke="#666666" points="197.5,-129 153.5,-129 153.5,-110 197.5,-110 197.5,-129"/>
<text text-anchor="middle" x="175.5" y="-117" font-family="Helvetica,sans-Serif" font-size="10.00">tlist.h</text>
</a>
</g>
</g>
<!-- Node1&#45;&gt;Node14 -->
<g id="edge35_Node000001_Node000014" class="edge">
<title>Node1&#45;&gt;Node14</title>
<g id="a_edge35_Node000001_Node000014"><a xlink:title=" ">
<path fill="none" stroke="#63b8ff" d="M510.49,-331.91C447.82,-316.34 298.12,-271.83 207.5,-184 194.64,-171.54 186.08,-152.82 181.08,-138.93"/>
<polygon fill="#63b8ff" stroke="#63b8ff" points="184.4,-137.82 177.93,-129.43 177.75,-140.02 184.4,-137.82"/>
</a>
</g>
</g>
<!-- Node24 -->
<g id="Node000024" class="node">
<title>Node24</title>
<g id="a_Node000024"><a xlink:href="flacpicture_8h.html" target="_top" xlink:title=" ">
<polygon fill="white" stroke="#666666" points="778,-239 701,-239 701,-220 778,-220 778,-239"/>
<text text-anchor="middle" x="739.5" y="-227" font-family="Helvetica,sans-Serif" font-size="10.00">flacpicture.h</text>
</a>
</g>
</g>
<!-- Node1&#45;&gt;Node24 -->
<g id="edge38_Node000001_Node000024" class="edge">
<title>Node1&#45;&gt;Node24</title>
<g id="a_edge38_Node000001_Node000024"><a xlink:title=" ">
<path fill="none" stroke="#63b8ff" d="M555.53,-329.84C590.36,-311.04 673.14,-266.33 714.74,-243.87"/>
<polygon fill="#63b8ff" stroke="#63b8ff" points="716.54,-246.88 723.67,-239.05 713.21,-240.72 716.54,-246.88"/>
</a>
</g>
</g>
<!-- Node27 -->
<g id="Node000027" class="node">
<title>Node27</title>
<g id="a_Node000027"><a xlink:href="flacproperties_8h.html" target="_top" xlink:title=" ">
<polygon fill="white" stroke="#666666" points="495.5,-184 403.5,-184 403.5,-165 495.5,-165 495.5,-184"/>
<text text-anchor="middle" x="449.5" y="-172" font-family="Helvetica,sans-Serif" font-size="10.00">flacproperties.h</text>
</a>
</g>
</g>
<!-- Node1&#45;&gt;Node27 -->
<g id="edge47_Node000001_Node000027" class="edge">
<title>Node1&#45;&gt;Node27</title>
<g id="a_edge47_Node000001_Node000027"><a xlink:title=" ">
<path fill="none" stroke="#63b8ff" d="M534.66,-329.74C520.44,-303.98 478.56,-228.13 459.34,-193.33"/>
<polygon fill="#63b8ff" stroke="#63b8ff" points="462.26,-191.37 454.36,-184.31 456.13,-194.75 462.26,-191.37"/>
</a>
</g>
</g>
<!-- Node3 -->
<g id="Node000003" class="node">
<title>Node3</title>
<g id="a_Node000003"><a xlink:href="tbytevector_8h.html" target="_top" xlink:title=" ">
<polygon fill="white" stroke="#666666" points="714,-129 633,-129 633,-110 714,-110 714,-129"/>
<text text-anchor="middle" x="673.5" y="-117" font-family="Helvetica,sans-Serif" font-size="10.00">tbytevector.h</text>
</a>
</g>
</g>
<!-- Node2&#45;&gt;Node3 -->
<g id="edge2_Node000002_Node000003" class="edge">
<title>Node2&#45;&gt;Node3</title>
<g id="a_edge2_Node000002_Node000003"><a xlink:title=" ">
<path fill="none" stroke="#63b8ff" d="M570.36,-274.74C587.66,-248.87 638.74,-172.48 661.88,-137.88"/>
<polygon fill="#63b8ff" stroke="#63b8ff" points="664.96,-139.57 667.61,-129.31 659.14,-135.67 664.96,-139.57"/>
</a>
</g>
</g>
<!-- Node2&#45;&gt;Node7 -->
<g id="edge12_Node000002_Node000007" class="edge">
<title>Node2&#45;&gt;Node7</title>
<g id="a_edge12_Node000002_Node000007"><a xlink:title=" ">
<path fill="none" stroke="#63b8ff" d="M586.77,-282.27C671.09,-277.12 968.78,-254.13 1024.5,-184 1079.38,-114.93 923.28,-83.49 835.59,-71.59"/>
<polygon fill="#63b8ff" stroke="#63b8ff" points="835.89,-68.1 825.52,-70.27 834.98,-75.04 835.89,-68.1"/>
</a>
</g>
</g>
<!-- Node8 -->
<g id="Node000008" class="node">
<title>Node8</title>
<g id="a_Node000008"><a xlink:href="tiostream_8h.html" target="_top" xlink:title=" ">
<polygon fill="white" stroke="#666666" points="587,-184 514,-184 514,-165 587,-165 587,-184"/>
<text text-anchor="middle" x="550.5" y="-172" font-family="Helvetica,sans-Serif" font-size="10.00">tiostream.h</text>
</a>
</g>
</g>
<!-- Node2&#45;&gt;Node8 -->
<g id="edge7_Node000002_Node000008" class="edge">
<title>Node2&#45;&gt;Node8</title>
<g id="a_edge7_Node000002_Node000008"><a xlink:title=" ">
<path fill="none" stroke="#63b8ff" d="M563.35,-274.66C561.09,-257.17 555.98,-217.8 552.93,-194.27"/>
<polygon fill="#63b8ff" stroke="#63b8ff" points="556.38,-193.63 551.62,-184.16 549.44,-194.53 556.38,-193.63"/>
</a>
</g>
</g>
<!-- Node9 -->
<g id="Node000009" class="node">
<title>Node9</title>
<g id="a_Node000009"><a xlink:href="taglib_8h.html" target="_top" xlink:title=" ">
<polygon fill="white" stroke="#666666" points="550,-74 497,-74 497,-55 550,-55 550,-74"/>
<text text-anchor="middle" x="523.5" y="-62" font-family="Helvetica,sans-Serif" font-size="10.00">taglib.h</text>
</a>
</g>
</g>
<!-- Node2&#45;&gt;Node9 -->
<g id="edge13_Node000002_Node000009" class="edge">
<title>Node2&#45;&gt;Node9</title>
<g id="a_edge13_Node000002_Node000009"><a xlink:title=" ">
<path fill="none" stroke="#63b8ff" d="M542.43,-277.78C504.77,-266.72 428.81,-238.57 394.5,-184 376.95,-156.09 370.21,-136.73 389.5,-110 395.43,-101.79 449.53,-85.64 487.14,-75.22"/>
<polygon fill="#63b8ff" stroke="#63b8ff" points="488.07,-78.59 496.79,-72.57 486.22,-71.84 488.07,-78.59"/>
</a>
</g>
</g>
<!-- Node2&#45;&gt;Node11 -->
<g id="edge14_Node000002_Node000011" class="edge">
<title>Node2&#45;&gt;Node11</title>
<g id="a_edge14_Node000002_Node000011"><a xlink:title=" ">
<path fill="none" stroke="#63b8ff" d="M556.41,-274.75C549.34,-267.11 538.91,-255.82 530.35,-246.56"/>
<polygon fill="#63b8ff" stroke="#63b8ff" points="532.8,-244.06 523.44,-239.09 527.66,-248.81 532.8,-244.06"/>
</a>
</g>
</g>
<!-- Node4 -->
<g id="Node000004" class="node">
<title>Node4</title>
<g id="a_Node000004"><a xlink:title=" ">
<polygon fill="#e0e0e0" stroke="#999999" points="478.5,-74 420.5,-74 420.5,-55 478.5,-55 478.5,-74"/>
<text text-anchor="middle" x="449.5" y="-62" font-family="Helvetica,sans-Serif" font-size="10.00">memory</text>
</a>
</g>
</g>
<!-- Node3&#45;&gt;Node4 -->
<g id="edge3_Node000003_Node000004" class="edge">
<title>Node3&#45;&gt;Node4</title>
<g id="a_edge3_Node000003_Node000004"><a xlink:title=" ">
<path fill="none" stroke="#63b8ff" d="M637.51,-109.98C596.72,-100.33 530.47,-84.66 488.48,-74.72"/>
<polygon fill="#63b8ff" stroke="#63b8ff" points="489.16,-71.29 478.62,-72.39 487.55,-78.1 489.16,-71.29"/>
</a>
</g>
</g>
<!-- Node5 -->
<g id="Node000005" class="node">
<title>Node5</title>
<g id="a_Node000005"><a xlink:title=" ">
<polygon fill="#e0e0e0" stroke="#999999" points="707,-74 660,-74 660,-55 707,-55 707,-74"/>
<text text-anchor="middle" x="683.5" y="-62" font-family="Helvetica,sans-Serif" font-size="10.00">vector</text>
</a>
</g>
</g>
<!-- Node3&#45;&gt;Node5 -->
<g id="edge4_Node000003_Node000005" class="edge">
<title>Node3&#45;&gt;Node5</title>
<g id="a_edge4_Node000003_Node000005"><a xlink:title=" ">
<path fill="none" stroke="#63b8ff" d="M675.15,-109.75C676.46,-102.8 678.34,-92.85 679.98,-84.13"/>
<polygon fill="#63b8ff" stroke="#63b8ff" points="683.46,-84.56 681.88,-74.09 676.59,-83.27 683.46,-84.56"/>
</a>
</g>
</g>
<!-- Node6 -->
<g id="Node000006" class="node">
<title>Node6</title>
<g id="a_Node000006"><a xlink:title=" ">
<polygon fill="#e0e0e0" stroke="#999999" points="641.5,-74 593.5,-74 593.5,-55 641.5,-55 641.5,-74"/>
<text text-anchor="middle" x="617.5" y="-62" font-family="Helvetica,sans-Serif" font-size="10.00">iosfwd</text>
</a>
</g>
</g>
<!-- Node3&#45;&gt;Node6 -->
<g id="edge5_Node000003_Node000006" class="edge">
<title>Node3&#45;&gt;Node6</title>
<g id="a_edge5_Node000003_Node000006"><a xlink:title=" ">
<path fill="none" stroke="#63b8ff" d="M664.5,-109.98C656.31,-102.23 643.99,-90.58 634.03,-81.14"/>
<polygon fill="#63b8ff" stroke="#63b8ff" points="636.33,-78.5 626.66,-74.17 631.52,-83.59 636.33,-78.5"/>
</a>
</g>
</g>
<!-- Node3&#45;&gt;Node7 -->
<g id="edge6_Node000003_Node000007" class="edge">
<title>Node3&#45;&gt;Node7</title>
<g id="a_edge6_Node000003_Node000007"><a xlink:title=" ">
<path fill="none" stroke="#63b8ff" d="M690.69,-109.98C707.75,-101.54 734.13,-88.47 753.9,-78.68"/>
<polygon fill="#63b8ff" stroke="#63b8ff" points="755.59,-81.75 763,-74.17 752.48,-75.47 755.59,-81.75"/>
</a>
</g>
</g>
<!-- Node8&#45;&gt;Node3 -->
<g id="edge8_Node000008_Node000003" class="edge">
<title>Node8&#45;&gt;Node3</title>
<g id="a_edge8_Node000008_Node000003"><a xlink:title=" ">
<path fill="none" stroke="#63b8ff" d="M570.26,-164.98C590.23,-156.38 621.3,-142.99 644.15,-133.15"/>
<polygon fill="#63b8ff" stroke="#63b8ff" points="645.58,-136.34 653.38,-129.17 642.81,-129.91 645.58,-136.34"/>
</a>
</g>
</g>
<!-- Node8&#45;&gt;Node7 -->
<g id="edge9_Node000008_Node000007" class="edge">
<title>Node8&#45;&gt;Node7</title>
<g id="a_edge9_Node000008_Node000007"><a xlink:title=" ">
<path fill="none" stroke="#63b8ff" d="M587.34,-170.28C624.11,-165.69 681.08,-154.75 723.5,-129 742.61,-117.4 759,-97.4 769.24,-82.94"/>
<polygon fill="#63b8ff" stroke="#63b8ff" points="772.32,-84.63 775.04,-74.39 766.53,-80.7 772.32,-84.63"/>
</a>
</g>
</g>
<!-- Node8&#45;&gt;Node9 -->
<g id="edge10_Node000008_Node000009" class="edge">
<title>Node8&#45;&gt;Node9</title>
<g id="a_edge10_Node000008_Node000009"><a xlink:title=" ">
<path fill="none" stroke="#63b8ff" d="M548.29,-164.66C543.9,-147.09 533.99,-107.45 528.11,-83.95"/>
<polygon fill="#63b8ff" stroke="#63b8ff" points="531.49,-83.01 525.66,-74.16 524.69,-84.71 531.49,-83.01"/>
</a>
</g>
</g>
<!-- Node10 -->
<g id="Node000010" class="node">
<title>Node10</title>
<g id="a_Node000010"><a xlink:title=" ">
<polygon fill="#e0e0e0" stroke="#999999" points="559.5,-19 487.5,-19 487.5,0 559.5,0 559.5,-19"/>
<text text-anchor="middle" x="523.5" y="-7" font-family="Helvetica,sans-Serif" font-size="10.00">sys/types.h</text>
</a>
</g>
</g>
<!-- Node9&#45;&gt;Node10 -->
<g id="edge11_Node000009_Node000010" class="edge">
<title>Node9&#45;&gt;Node10</title>
<g id="a_edge11_Node000009_Node000010"><a xlink:title=" ">
<path fill="none" stroke="#63b8ff" d="M523.5,-54.75C523.5,-47.8 523.5,-37.85 523.5,-29.13"/>
<polygon fill="#63b8ff" stroke="#63b8ff" points="527,-29.09 523.5,-19.09 520,-29.09 527,-29.09"/>
</a>
</g>
</g>
<!-- Node11&#45;&gt;Node7 -->
<g id="edge15_Node000011_Node000007" class="edge">
<title>Node11&#45;&gt;Node7</title>
<g id="a_edge15_Node000011_Node000007"><a xlink:title=" ">
<path fill="none" stroke="#63b8ff" d="M536.08,-227.57C610.05,-224.01 859.33,-210.15 882.5,-184 892.86,-172.31 897.75,-139.6 876.5,-110 865.29,-94.39 847.21,-84.1 829.74,-77.4"/>
<polygon fill="#63b8ff" stroke="#63b8ff" points="830.75,-74.04 820.15,-74.03 828.43,-80.65 830.75,-74.04"/>
</a>
</g>
</g>
<!-- Node12 -->
<g id="Node000012" class="node">
<title>Node12</title>
<g id="a_Node000012"><a xlink:href="tstring_8h.html" target="_top" xlink:title=" ">
<polygon fill="white" stroke="#666666" points="873,-184 816,-184 816,-165 873,-165 873,-184"/>
<text text-anchor="middle" x="844.5" y="-172" font-family="Helvetica,sans-Serif" font-size="10.00">tstring.h</text>
</a>
</g>
</g>
<!-- Node11&#45;&gt;Node12 -->
<g id="edge16_Node000011_Node000012" class="edge">
<title>Node11&#45;&gt;Node12</title>
<g id="a_edge16_Node000011_Node000012"><a xlink:title=" ">
<path fill="none" stroke="#63b8ff" d="M536.04,-225.85C582.28,-219.78 698.24,-203.98 805.86,-184"/>
<polygon fill="#63b8ff" stroke="#63b8ff" points="806.73,-187.4 815.91,-182.11 805.44,-180.52 806.73,-187.4"/>
</a>
</g>
</g>
<!-- Node11&#45;&gt;Node14 -->
<g id="edge20_Node000011_Node000014" class="edge">
<title>Node11&#45;&gt;Node14</title>
<g id="a_edge20_Node000011_Node000014"><a xlink:title=" ">
<path fill="none" stroke="#63b8ff" d="M494.93,-226.92C438.39,-222.31 281.81,-207.7 236.5,-184 215.63,-173.09 197.79,-152.32 186.89,-137.5"/>
<polygon fill="#63b8ff" stroke="#63b8ff" points="189.66,-135.35 181.04,-129.19 183.93,-139.38 189.66,-135.35"/>
</a>
</g>
</g>
<!-- Node18 -->
<g id="Node000018" class="node">
<title>Node18</title>
<g id="a_Node000018"><a xlink:href="tvariant_8h.html" target="_top" xlink:title=" ">
<polygon fill="white" stroke="#666666" points="342.5,-184 278.5,-184 278.5,-165 342.5,-165 342.5,-184"/>
<text text-anchor="middle" x="310.5" y="-172" font-family="Helvetica,sans-Serif" font-size="10.00">tvariant.h</text>
</a>
</g>
</g>
<!-- Node11&#45;&gt;Node18 -->
<g id="edge25_Node000011_Node000018" class="edge">
<title>Node11&#45;&gt;Node18</title>
<g id="a_edge25_Node000011_Node000018"><a xlink:title=" ">
<path fill="none" stroke="#63b8ff" d="M494.72,-223.13C461.54,-214.55 395.97,-197.6 352.68,-186.41"/>
<polygon fill="#63b8ff" stroke="#63b8ff" points="353.29,-182.95 342.73,-183.83 351.53,-189.72 353.29,-182.95"/>
</a>
</g>
</g>
<!-- Node12&#45;&gt;Node3 -->
<g id="edge18_Node000012_Node000003" class="edge">
<title>Node12&#45;&gt;Node3</title>
<g id="a_edge18_Node000012_Node000003"><a xlink:title=" ">
<path fill="none" stroke="#63b8ff" d="M817.03,-164.98C788.32,-156.09 743.08,-142.07 711.08,-132.15"/>
<polygon fill="#63b8ff" stroke="#63b8ff" points="711.78,-128.7 701.19,-129.08 709.7,-135.39 711.78,-128.7"/>
</a>
</g>
</g>
<!-- Node12&#45;&gt;Node7 -->
<g id="edge19_Node000012_Node000007" class="edge">
<title>Node12&#45;&gt;Node7</title>
<g id="a_edge19_Node000012_Node000007"><a xlink:title=" ">
<path fill="none" stroke="#63b8ff" d="M850.87,-164.71C859.31,-151.89 871.96,-127.68 861.5,-110 852.64,-95.02 836.74,-84.74 821.36,-77.88"/>
<polygon fill="#63b8ff" stroke="#63b8ff" points="822.5,-74.56 811.92,-74.03 819.86,-81.04 822.5,-74.56"/>
</a>
</g>
</g>
<!-- Node13 -->
<g id="Node000013" class="node">
<title>Node13</title>
<g id="a_Node000013"><a xlink:title=" ">
<polygon fill="#e0e0e0" stroke="#999999" points="852.5,-129 808.5,-129 808.5,-110 852.5,-110 852.5,-129"/>
<text text-anchor="middle" x="830.5" y="-117" font-family="Helvetica,sans-Serif" font-size="10.00">string</text>
</a>
</g>
</g>
<!-- Node12&#45;&gt;Node13 -->
<g id="edge17_Node000012_Node000013" class="edge">
<title>Node12&#45;&gt;Node13</title>
<g id="a_edge17_Node000012_Node000013"><a xlink:title=" ">
<path fill="none" stroke="#63b8ff" d="M842.19,-164.75C840.33,-157.72 837.66,-147.62 835.35,-138.84"/>
<polygon fill="#63b8ff" stroke="#63b8ff" points="838.71,-137.86 832.77,-129.09 831.94,-139.65 838.71,-137.86"/>
</a>
</g>
</g>
<!-- Node14&#45;&gt;Node4 -->
<g id="edge23_Node000014_Node000004" class="edge">
<title>Node14&#45;&gt;Node4</title>
<g id="a_edge23_Node000014_Node000004"><a xlink:title=" ">
<path fill="none" stroke="#63b8ff" d="M197.82,-112.31C201.06,-111.49 204.36,-110.69 207.5,-110 294.33,-90.84 319.51,-91.95 410.56,-74.1"/>
<polygon fill="#63b8ff" stroke="#63b8ff" points="411.35,-77.51 420.48,-72.13 409.99,-70.65 411.35,-77.51"/>
</a>
</g>
</g>
<!-- Node15 -->
<g id="Node000015" class="node">
<title>Node15</title>
<g id="a_Node000015"><a xlink:title=" ">
<polygon fill="#e0e0e0" stroke="#999999" points="103.5,-74 71.5,-74 71.5,-55 103.5,-55 103.5,-74"/>
<text text-anchor="middle" x="87.5" y="-62" font-family="Helvetica,sans-Serif" font-size="10.00">list</text>
</a>
</g>
</g>
<!-- Node14&#45;&gt;Node15 -->
<g id="edge21_Node000014_Node000015" class="edge">
<title>Node14&#45;&gt;Node15</title>
<g id="a_edge21_Node000014_Node000015"><a xlink:title=" ">
<path fill="none" stroke="#63b8ff" d="M161.36,-109.98C147.71,-101.77 126.81,-89.18 110.72,-79.49"/>
<polygon fill="#63b8ff" stroke="#63b8ff" points="112.27,-76.33 101.9,-74.17 108.66,-82.33 112.27,-76.33"/>
</a>
</g>
</g>
<!-- Node16 -->
<g id="Node000016" class="node">
<title>Node16</title>
<g id="a_Node000016"><a xlink:title=" ">
<polygon fill="#e0e0e0" stroke="#999999" points="205,-74 122,-74 122,-55 205,-55 205,-74"/>
<text text-anchor="middle" x="163.5" y="-62" font-family="Helvetica,sans-Serif" font-size="10.00">initializer_list</text>
</a>
</g>
</g>
<!-- Node14&#45;&gt;Node16 -->
<g id="edge22_Node000014_Node000016" class="edge">
<title>Node14&#45;&gt;Node16</title>
<g id="a_edge22_Node000014_Node000016"><a xlink:title=" ">
<path fill="none" stroke="#63b8ff" d="M173.52,-109.75C171.93,-102.72 169.64,-92.62 167.65,-83.84"/>
<polygon fill="#63b8ff" stroke="#63b8ff" points="171.07,-83.07 165.44,-74.09 164.24,-84.62 171.07,-83.07"/>
</a>
</g>
</g>
<!-- Node17 -->
<g id="Node000017" class="node">
<title>Node17</title>
<g id="a_Node000017"><a xlink:title=" ">
<polygon fill="#e0e0e0" stroke="#999999" points="53,-74 0,-74 0,-55 53,-55 53,-74"/>
<text text-anchor="middle" x="26.5" y="-62" font-family="Helvetica,sans-Serif" font-size="10.00">tlist.tcc</text>
</a>
</g>
</g>
<!-- Node14&#45;&gt;Node17 -->
<g id="edge24_Node000014_Node000017" class="edge">
<title>Node14&#45;&gt;Node17</title>
<g id="a_edge24_Node000014_Node000017"><a xlink:title=" ">
<path fill="none" stroke="#63b8ff" d="M153.19,-110.57C128.5,-101.78 88.44,-87.53 59.98,-77.41"/>
<polygon fill="#63b8ff" stroke="#63b8ff" points="61.04,-74.07 50.44,-74.02 58.69,-80.67 61.04,-74.07"/>
</a>
</g>
</g>
<!-- Node18&#45;&gt;Node7 -->
<g id="edge34_Node000018_Node000007" class="edge">
<title>Node18&#45;&gt;Node7</title>
<g id="a_edge34_Node000018_Node000007"><a xlink:title=" ">
<path fill="none" stroke="#63b8ff" d="M342.65,-166.74C382.07,-158.35 450.88,-143.39 509.5,-129 541.22,-121.21 548.77,-117.77 580.5,-110 631.14,-97.6 689.36,-84.81 729.88,-76.14"/>
<polygon fill="#63b8ff" stroke="#63b8ff" points="730.73,-79.54 739.78,-74.03 729.27,-72.69 730.73,-79.54"/>
</a>
</g>
</g>
<!-- Node18&#45;&gt;Node14 -->
<g id="edge27_Node000018_Node000014" class="edge">
<title>Node18&#45;&gt;Node14</title>
<g id="a_edge27_Node000018_Node000014"><a xlink:title=" ">
<path fill="none" stroke="#63b8ff" d="M288.81,-164.98C266.7,-156.3 232.18,-142.75 207.05,-132.88"/>
<polygon fill="#63b8ff" stroke="#63b8ff" points="208.17,-129.57 197.58,-129.17 205.61,-136.08 208.17,-129.57"/>
</a>
</g>
</g>
<!-- Node19 -->
<g id="Node000019" class="node">
<title>Node19</title>
<g id="a_Node000019"><a xlink:title=" ">
<polygon fill="#e0e0e0" stroke="#999999" points="342.5,-129 286.5,-129 286.5,-110 342.5,-110 342.5,-129"/>
<text text-anchor="middle" x="314.5" y="-117" font-family="Helvetica,sans-Serif" font-size="10.00">sstream</text>
</a>
</g>
</g>
<!-- Node18&#45;&gt;Node19 -->
<g id="edge26_Node000018_Node000019" class="edge">
<title>Node18&#45;&gt;Node19</title>
<g id="a_edge26_Node000018_Node000019"><a xlink:title=" ">
<path fill="none" stroke="#63b8ff" d="M311.16,-164.75C311.68,-157.8 312.44,-147.85 313.09,-139.13"/>
<polygon fill="#63b8ff" stroke="#63b8ff" points="316.59,-139.32 313.85,-129.09 309.61,-138.8 316.59,-139.32"/>
</a>
</g>
</g>
<!-- Node20 -->
<g id="Node000020" class="node">
<title>Node20</title>
<g id="a_Node000020"><a xlink:href="tmap_8h.html" target="_top" xlink:title=" ">
<polygon fill="white" stroke="#666666" points="268,-129 217,-129 217,-110 268,-110 268,-129"/>
<text text-anchor="middle" x="242.5" y="-117" font-family="Helvetica,sans-Serif" font-size="10.00">tmap.h</text>
</a>
</g>
</g>
<!-- Node18&#45;&gt;Node20 -->
<g id="edge28_Node000018_Node000020" class="edge">
<title>Node18&#45;&gt;Node20</title>
<g id="a_edge28_Node000018_Node000020"><a xlink:title=" ">
<path fill="none" stroke="#63b8ff" d="M299.57,-164.98C289.42,-157.07 274.08,-145.11 261.85,-135.58"/>
<polygon fill="#63b8ff" stroke="#63b8ff" points="263.66,-132.56 253.62,-129.17 259.36,-138.08 263.66,-132.56"/>
</a>
</g>
</g>
<!-- Node20&#45;&gt;Node4 -->
<g id="edge30_Node000020_Node000004" class="edge">
<title>Node20&#45;&gt;Node4</title>
<g id="a_edge30_Node000020_Node000004"><a xlink:title=" ">
<path fill="none" stroke="#63b8ff" d="M268.3,-111.89C304.04,-102.74 368.92,-86.13 410.57,-75.47"/>
<polygon fill="#63b8ff" stroke="#63b8ff" points="411.55,-78.83 420.37,-72.96 409.82,-72.05 411.55,-78.83"/>
</a>
</g>
</g>
<!-- Node20&#45;&gt;Node16 -->
<g id="edge31_Node000020_Node000016" class="edge">
<title>Node20&#45;&gt;Node16</title>
<g id="a_edge31_Node000020_Node000016"><a xlink:title=" ">
<path fill="none" stroke="#63b8ff" d="M229.81,-109.98C217.67,-101.84 199.14,-89.41 184.75,-79.76"/>
<polygon fill="#63b8ff" stroke="#63b8ff" points="186.68,-76.84 176.42,-74.17 182.78,-82.65 186.68,-76.84"/>
</a>
</g>
</g>
<!-- Node21 -->
<g id="Node000021" class="node">
<title>Node21</title>
<g id="a_Node000021"><a xlink:title=" ">
<polygon fill="#e0e0e0" stroke="#999999" points="261.5,-74 223.5,-74 223.5,-55 261.5,-55 261.5,-74"/>
<text text-anchor="middle" x="242.5" y="-62" font-family="Helvetica,sans-Serif" font-size="10.00">map</text>
</a>
</g>
</g>
<!-- Node20&#45;&gt;Node21 -->
<g id="edge29_Node000020_Node000021" class="edge">
<title>Node20&#45;&gt;Node21</title>
<g id="a_edge29_Node000020_Node000021"><a xlink:title=" ">
<path fill="none" stroke="#63b8ff" d="M242.5,-109.75C242.5,-102.8 242.5,-92.85 242.5,-84.13"/>
<polygon fill="#63b8ff" stroke="#63b8ff" points="246,-84.09 242.5,-74.09 239,-84.09 246,-84.09"/>
</a>
</g>
</g>
<!-- Node22 -->
<g id="Node000022" class="node">
<title>Node22</title>
<g id="a_Node000022"><a xlink:title=" ">
<polygon fill="#e0e0e0" stroke="#999999" points="325,-74 280,-74 280,-55 325,-55 325,-74"/>
<text text-anchor="middle" x="302.5" y="-62" font-family="Helvetica,sans-Serif" font-size="10.00">utility</text>
</a>
</g>
</g>
<!-- Node20&#45;&gt;Node22 -->
<g id="edge32_Node000020_Node000022" class="edge">
<title>Node20&#45;&gt;Node22</title>
<g id="a_edge32_Node000020_Node000022"><a xlink:title=" ">
<path fill="none" stroke="#63b8ff" d="M252.14,-109.98C261.01,-102.15 274.37,-90.34 285.11,-80.86"/>
<polygon fill="#63b8ff" stroke="#63b8ff" points="287.51,-83.41 292.68,-74.17 282.87,-78.17 287.51,-83.41"/>
</a>
</g>
</g>
<!-- Node23 -->
<g id="Node000023" class="node">
<title>Node23</title>
<g id="a_Node000023"><a xlink:title=" ">
<polygon fill="#e0e0e0" stroke="#999999" points="402,-74 343,-74 343,-55 402,-55 402,-74"/>
<text text-anchor="middle" x="372.5" y="-62" font-family="Helvetica,sans-Serif" font-size="10.00">tmap.tcc</text>
</a>
</g>
</g>
<!-- Node20&#45;&gt;Node23 -->
<g id="edge33_Node000020_Node000023" class="edge">
<title>Node20&#45;&gt;Node23</title>
<g id="a_edge33_Node000020_Node000023"><a xlink:title=" ">
<path fill="none" stroke="#63b8ff" d="M263.39,-109.98C284.58,-101.34 317.63,-87.87 341.8,-78.02"/>
<polygon fill="#63b8ff" stroke="#63b8ff" points="343.29,-81.19 351.23,-74.17 340.65,-74.7 343.29,-81.19"/>
</a>
</g>
</g>
<!-- Node24&#45;&gt;Node3 -->
<g id="edge41_Node000024_Node000003" class="edge">
<title>Node24&#45;&gt;Node3</title>
<g id="a_edge41_Node000024_Node000003"><a xlink:title=" ">
<path fill="none" stroke="#63b8ff" d="M716.39,-219.98C700.91,-212.92 681.74,-201.23 672.5,-184 665.17,-170.34 666.2,-152.52 668.61,-139.24"/>
<polygon fill="#63b8ff" stroke="#63b8ff" points="672.06,-139.86 670.81,-129.34 665.22,-138.35 672.06,-139.86"/>
</a>
</g>
</g>
<!-- Node24&#45;&gt;Node7 -->
<g id="edge43_Node000024_Node000007" class="edge">
<title>Node24&#45;&gt;Node7</title>
<g id="a_edge43_Node000024_Node000007"><a xlink:title=" ">
<path fill="none" stroke="#63b8ff" d="M778.17,-228.39C848.56,-227.29 993.24,-220.52 1024.5,-184 1081.94,-116.89 924.21,-84.51 835.79,-71.99"/>
<polygon fill="#63b8ff" stroke="#63b8ff" points="836.01,-68.49 825.63,-70.6 835.06,-75.42 836.01,-68.49"/>
</a>
</g>
</g>
<!-- Node24&#45;&gt;Node12 -->
<g id="edge40_Node000024_Node000012" class="edge">
<title>Node24&#45;&gt;Node12</title>
<g id="a_edge40_Node000024_Node000012"><a xlink:title=" ">
<path fill="none" stroke="#63b8ff" d="M756.37,-219.98C773.11,-211.54 799,-198.47 818.39,-188.68"/>
<polygon fill="#63b8ff" stroke="#63b8ff" points="819.97,-191.8 827.32,-184.17 816.82,-185.55 819.97,-191.8"/>
</a>
</g>
</g>
<!-- Node24&#45;&gt;Node14 -->
<g id="edge39_Node000024_Node000014" class="edge">
<title>Node24&#45;&gt;Node14</title>
<g id="a_edge39_Node000024_Node000014"><a xlink:title=" ">
<path fill="none" stroke="#63b8ff" d="M700.75,-227.29C603.02,-223.86 348.68,-212.39 269.5,-184 261.42,-181.1 220.71,-152.67 195.58,-134.85"/>
<polygon fill="#63b8ff" stroke="#63b8ff" points="197.61,-131.99 187.43,-129.05 193.55,-137.69 197.61,-131.99"/>
</a>
</g>
</g>
<!-- Node25 -->
<g id="Node000025" class="node">
<title>Node25</title>
<g id="a_Node000025"><a xlink:href="tpicturetype_8h.html" target="_top" xlink:title=" ">
<polygon fill="white" stroke="#666666" points="1015,-184 930,-184 930,-165 1015,-165 1015,-184"/>
<text text-anchor="middle" x="972.5" y="-172" font-family="Helvetica,sans-Serif" font-size="10.00">tpicturetype.h</text>
</a>
</g>
</g>
<!-- Node24&#45;&gt;Node25 -->
<g id="edge42_Node000024_Node000025" class="edge">
<title>Node24&#45;&gt;Node25</title>
<g id="a_edge42_Node000024_Node000025"><a xlink:title=" ">
<path fill="none" stroke="#63b8ff" d="M776.94,-219.98C817.15,-210.84 881.18,-196.27 924.94,-186.32"/>
<polygon fill="#63b8ff" stroke="#63b8ff" points="925.8,-189.71 934.77,-184.08 924.24,-182.89 925.8,-189.71"/>
</a>
</g>
</g>
<!-- Node26 -->
<g id="Node000026" class="node">
<title>Node26</title>
<g id="a_Node000026"><a xlink:href="flacmetadatablock_8h.html" target="_top" xlink:title=" ">
<polygon fill="white" stroke="#666666" points="797.5,-184 681.5,-184 681.5,-165 797.5,-165 797.5,-184"/>
<text text-anchor="middle" x="739.5" y="-172" font-family="Helvetica,sans-Serif" font-size="10.00">flacmetadatablock.h</text>
</a>
</g>
</g>
<!-- Node24&#45;&gt;Node26 -->
<g id="edge44_Node000024_Node000026" class="edge">
<title>Node24&#45;&gt;Node26</title>
<g id="a_edge44_Node000024_Node000026"><a xlink:title=" ">
<path fill="none" stroke="#63b8ff" d="M739.5,-219.75C739.5,-212.8 739.5,-202.85 739.5,-194.13"/>
<polygon fill="#63b8ff" stroke="#63b8ff" points="743,-194.09 739.5,-184.09 736,-194.09 743,-194.09"/>
</a>
</g>
</g>
<!-- Node26&#45;&gt;Node3 -->
<g id="edge45_Node000026_Node000003" class="edge">
<title>Node26&#45;&gt;Node3</title>
<g id="a_edge45_Node000026_Node000003"><a xlink:title=" ">
<path fill="none" stroke="#63b8ff" d="M728.9,-164.98C719.04,-157.07 704.15,-145.11 692.28,-135.58"/>
<polygon fill="#63b8ff" stroke="#63b8ff" points="694.29,-132.7 684.3,-129.17 689.9,-138.16 694.29,-132.7"/>
</a>
</g>
</g>
<!-- Node26&#45;&gt;Node7 -->
<g id="edge46_Node000026_Node000007" class="edge">
<title>Node26&#45;&gt;Node7</title>
<g id="a_edge46_Node000026_Node000007"><a xlink:title=" ">
<path fill="none" stroke="#63b8ff" d="M742.77,-164.97C746.2,-156.02 751.74,-141.52 756.5,-129 762.32,-113.68 768.9,-96.27 773.7,-83.55"/>
<polygon fill="#63b8ff" stroke="#63b8ff" points="777,-84.72 777.25,-74.13 770.45,-82.25 777,-84.72"/>
</a>
</g>
</g>
<!-- Node27&#45;&gt;Node3 -->
<g id="edge48_Node000027_Node000003" class="edge">
<title>Node27&#45;&gt;Node3</title>
<g id="a_edge48_Node000027_Node000003"><a xlink:title=" ">
<path fill="none" stroke="#63b8ff" d="M485.49,-164.98C523.99,-155.87 585.19,-141.4 627.24,-131.45"/>
<polygon fill="#63b8ff" stroke="#63b8ff" points="628.3,-134.79 637.23,-129.08 626.69,-127.98 628.3,-134.79"/>
</a>
</g>
</g>
<!-- Node27&#45;&gt;Node7 -->
<g id="edge49_Node000027_Node000007" class="edge">
<title>Node27&#45;&gt;Node7</title>
<g id="a_edge49_Node000027_Node000007"><a xlink:title=" ">
<path fill="none" stroke="#63b8ff" d="M476.82,-164.92C503.48,-156.39 545.08,-142.64 580.5,-129 600.38,-121.35 604.44,-117.16 624.5,-110 661.48,-96.8 704.45,-84.78 735.91,-76.57"/>
<polygon fill="#63b8ff" stroke="#63b8ff" points="736.9,-79.93 745.7,-74.04 735.15,-73.15 736.9,-79.93"/>
</a>
</g>
</g>
<!-- Node28 -->
<g id="Node000028" class="node">
<title>Node28</title>
<g id="a_Node000028"><a xlink:href="audioproperties_8h.html" target="_top" xlink:title=" ">
<polygon fill="white" stroke="#666666" points="500.5,-129 398.5,-129 398.5,-110 500.5,-110 500.5,-129"/>
<text text-anchor="middle" x="449.5" y="-117" font-family="Helvetica,sans-Serif" font-size="10.00">audioproperties.h</text>
</a>
</g>
</g>
<!-- Node27&#45;&gt;Node28 -->
<g id="edge50_Node000027_Node000028" class="edge">
<title>Node27&#45;&gt;Node28</title>
<g id="a_edge50_Node000027_Node000028"><a xlink:title=" ">
<path fill="none" stroke="#63b8ff" d="M449.5,-164.75C449.5,-157.8 449.5,-147.85 449.5,-139.13"/>
<polygon fill="#63b8ff" stroke="#63b8ff" points="453,-139.09 449.5,-129.09 446,-139.09 453,-139.09"/>
</a>
</g>
</g>
<!-- Node28&#45;&gt;Node4 -->
<g id="edge51_Node000028_Node000004" class="edge">
<title>Node28&#45;&gt;Node4</title>
<g id="a_edge51_Node000028_Node000004"><a xlink:title=" ">
<path fill="none" stroke="#63b8ff" d="M449.5,-109.75C449.5,-102.8 449.5,-92.85 449.5,-84.13"/>
<polygon fill="#63b8ff" stroke="#63b8ff" points="453,-84.09 449.5,-74.09 446,-84.09 453,-84.09"/>
</a>
</g>
</g>
<!-- Node28&#45;&gt;Node7 -->
<g id="edge53_Node000028_Node000007" class="edge">
<title>Node28&#45;&gt;Node7</title>
<g id="a_edge53_Node000028_Node000007"><a xlink:title=" ">
<path fill="none" stroke="#63b8ff" d="M500.86,-110.28C561.75,-100.53 662.83,-84.34 725.34,-74.33"/>
<polygon fill="#63b8ff" stroke="#63b8ff" points="726.09,-77.76 735.41,-72.72 724.98,-70.85 726.09,-77.76"/>
</a>
</g>
</g>
<!-- Node28&#45;&gt;Node9 -->
<g id="edge52_Node000028_Node000009" class="edge">
<title>Node28&#45;&gt;Node9</title>
<g id="a_edge52_Node000028_Node000009"><a xlink:title=" ">
<path fill="none" stroke="#63b8ff" d="M461.39,-109.98C472.65,-101.92 489.79,-89.65 503.21,-80.03"/>
<polygon fill="#63b8ff" stroke="#63b8ff" points="505.3,-82.84 511.39,-74.17 501.23,-77.15 505.3,-82.84"/>
</a>
</g>
</g>
</g>
</svg>
