<?xml version="1.0" encoding="UTF-8" standalone="no"?>
<!DOCTYPE svg PUBLIC "-//W3C//DTD SVG 1.1//EN"
 "http://www.w3.org/Graphics/SVG/1.1/DTD/svg11.dtd">
<!-- Generated by graphviz version 2.43.0 (0)
 -->
<!-- Title: flacmetadatablock.h Pages: 1 -->
<svg width="347pt" height="196pt"
 viewBox="0.00 0.00 346.50 196.00" xmlns="http://www.w3.org/2000/svg" xmlns:xlink="http://www.w3.org/1999/xlink">
<g id="graph0" class="graph" transform="scale(1 1) rotate(0) translate(4 192)">
<title>flacmetadatablock.h</title>
<polygon fill="white" stroke="transparent" points="-4,4 -4,-192 342.5,-192 342.5,4 -4,4"/>
<!-- Node1 -->
<g id="node1" class="node">
<title>Node1</title>
<g id="a_node1"><a xlink:title=" ">
<polygon fill="#bfbfbf" stroke="black" points="131,-168.5 131,-187.5 247,-187.5 247,-168.5 131,-168.5"/>
<text text-anchor="middle" x="189" y="-175.5" font-family="Helvetica,sans-Serif" font-size="10.00">flacmetadatablock.h</text>
</a>
</g>
</g>
<!-- Node2 -->
<g id="node2" class="node">
<title>Node2</title>
<g id="a_node2"><a xlink:href="flacpicture_8h.html" target="_top" xlink:title=" ">
<polygon fill="white" stroke="black" points="82.5,-112.5 82.5,-131.5 159.5,-131.5 159.5,-112.5 82.5,-112.5"/>
<text text-anchor="middle" x="121" y="-119.5" font-family="Helvetica,sans-Serif" font-size="10.00">flacpicture.h</text>
</a>
</g>
</g>
<!-- Node1&#45;&gt;Node2 -->
<g id="edge1" class="edge">
<title>Node1&#45;&gt;Node2</title>
<path fill="none" stroke="midnightblue" d="M170.24,-162.1C158,-152.38 142.44,-140.03 132.12,-131.83"/>
<polygon fill="midnightblue" stroke="midnightblue" points="168.07,-164.85 178.07,-168.32 172.42,-159.36 168.07,-164.85"/>
</g>
<!-- Node9 -->
<g id="node9" class="node">
<title>Node9</title>
<g id="a_node9"><a xlink:href="flacunknownmetadatablock_8h.html" target="_top" xlink:title=" ">
<polygon fill="white" stroke="black" points="177.5,-112.5 177.5,-131.5 338.5,-131.5 338.5,-112.5 177.5,-112.5"/>
<text text-anchor="middle" x="258" y="-119.5" font-family="Helvetica,sans-Serif" font-size="10.00">flacunknownmetadatablock.h</text>
</a>
</g>
</g>
<!-- Node1&#45;&gt;Node9 -->
<g id="edge8" class="edge">
<title>Node1&#45;&gt;Node9</title>
<path fill="none" stroke="midnightblue" d="M208.04,-162.1C220.46,-152.38 236.24,-140.03 246.71,-131.83"/>
<polygon fill="midnightblue" stroke="midnightblue" points="205.8,-159.4 200.09,-168.32 210.12,-164.92 205.8,-159.4"/>
</g>
<!-- Node3 -->
<g id="node3" class="node">
<title>Node3</title>
<g id="a_node3"><a xlink:href="flacfile_8h.html" target="_top" xlink:title=" ">
<polygon fill="white" stroke="black" points="45,-56.5 45,-75.5 103,-75.5 103,-56.5 45,-56.5"/>
<text text-anchor="middle" x="74" y="-63.5" font-family="Helvetica,sans-Serif" font-size="10.00">flacfile.h</text>
</a>
</g>
</g>
<!-- Node2&#45;&gt;Node3 -->
<g id="edge2" class="edge">
<title>Node2&#45;&gt;Node3</title>
<path fill="none" stroke="midnightblue" d="M106.58,-104.43C98.34,-94.97 88.35,-83.48 81.62,-75.75"/>
<polygon fill="midnightblue" stroke="midnightblue" points="104.03,-106.84 113.24,-112.08 109.31,-102.24 104.03,-106.84"/>
</g>
<!-- Node4 -->
<g id="node4" class="node">
<title>Node4</title>
<g id="a_node4"><a xlink:href="xiphcomment_8h.html" target="_top" xlink:title=" ">
<polygon fill="white" stroke="black" points="121.5,-56.5 121.5,-75.5 214.5,-75.5 214.5,-56.5 121.5,-56.5"/>
<text text-anchor="middle" x="168" y="-63.5" font-family="Helvetica,sans-Serif" font-size="10.00">xiphcomment.h</text>
</a>
</g>
</g>
<!-- Node2&#45;&gt;Node4 -->
<g id="edge3" class="edge">
<title>Node2&#45;&gt;Node4</title>
<path fill="none" stroke="midnightblue" d="M135.42,-104.43C143.66,-94.97 153.65,-83.48 160.38,-75.75"/>
<polygon fill="midnightblue" stroke="midnightblue" points="132.69,-102.24 128.76,-112.08 137.97,-106.84 132.69,-102.24"/>
</g>
<!-- Node5 -->
<g id="node5" class="node">
<title>Node5</title>
<g id="a_node5"><a xlink:href="oggflacfile_8h.html" target="_top" xlink:title=" ">
<polygon fill="white" stroke="black" points="0,-0.5 0,-19.5 76,-19.5 76,-0.5 0,-0.5"/>
<text text-anchor="middle" x="38" y="-7.5" font-family="Helvetica,sans-Serif" font-size="10.00">oggflacfile.h</text>
</a>
</g>
</g>
<!-- Node4&#45;&gt;Node5 -->
<g id="edge4" class="edge">
<title>Node4&#45;&gt;Node5</title>
<path fill="none" stroke="midnightblue" d="M137.91,-52.5C113.54,-42.38 79.86,-28.39 58.5,-19.52"/>
<polygon fill="midnightblue" stroke="midnightblue" points="136.82,-55.84 147.4,-56.44 139.51,-49.38 136.82,-55.84"/>
</g>
<!-- Node6 -->
<g id="node6" class="node">
<title>Node6</title>
<g id="a_node6"><a xlink:href="opusfile_8h.html" target="_top" xlink:title=" ">
<polygon fill="white" stroke="black" points="94,-0.5 94,-19.5 158,-19.5 158,-0.5 94,-0.5"/>
<text text-anchor="middle" x="126" y="-7.5" font-family="Helvetica,sans-Serif" font-size="10.00">opusfile.h</text>
</a>
</g>
</g>
<!-- Node4&#45;&gt;Node6 -->
<g id="edge5" class="edge">
<title>Node4&#45;&gt;Node6</title>
<path fill="none" stroke="midnightblue" d="M154.89,-48.14C147.57,-38.74 138.76,-27.4 132.81,-19.75"/>
<polygon fill="midnightblue" stroke="midnightblue" points="152.16,-50.34 161.06,-56.08 157.69,-46.04 152.16,-50.34"/>
</g>
<!-- Node7 -->
<g id="node7" class="node">
<title>Node7</title>
<g id="a_node7"><a xlink:href="speexfile_8h.html" target="_top" xlink:title=" ">
<polygon fill="white" stroke="black" points="176,-0.5 176,-19.5 246,-19.5 246,-0.5 176,-0.5"/>
<text text-anchor="middle" x="211" y="-7.5" font-family="Helvetica,sans-Serif" font-size="10.00">speexfile.h</text>
</a>
</g>
</g>
<!-- Node4&#45;&gt;Node7 -->
<g id="edge6" class="edge">
<title>Node4&#45;&gt;Node7</title>
<path fill="none" stroke="midnightblue" d="M181.42,-48.14C188.91,-38.74 197.94,-27.4 204.03,-19.75"/>
<polygon fill="midnightblue" stroke="midnightblue" points="178.59,-46.08 175.1,-56.08 184.07,-50.44 178.59,-46.08"/>
</g>
<!-- Node8 -->
<g id="node8" class="node">
<title>Node8</title>
<g id="a_node8"><a xlink:href="vorbisfile_8h.html" target="_top" xlink:title=" ">
<polygon fill="white" stroke="black" points="264.5,-0.5 264.5,-19.5 335.5,-19.5 335.5,-0.5 264.5,-0.5"/>
<text text-anchor="middle" x="300" y="-7.5" font-family="Helvetica,sans-Serif" font-size="10.00">vorbisfile.h</text>
</a>
</g>
</g>
<!-- Node4&#45;&gt;Node8 -->
<g id="edge7" class="edge">
<title>Node4&#45;&gt;Node8</title>
<path fill="none" stroke="midnightblue" d="M198.22,-52.64C222.99,-42.5 257.4,-28.43 279.18,-19.52"/>
<polygon fill="midnightblue" stroke="midnightblue" points="196.85,-49.42 188.92,-56.44 199.5,-55.9 196.85,-49.42"/>
</g>
</g>
</svg>
