<?xml version="1.0" encoding="UTF-8" standalone="no"?>
<!DOCTYPE svg PUBLIC "-//W3C//DTD SVG 1.1//EN"
 "http://www.w3.org/Graphics/SVG/1.1/DTD/svg11.dtd">
<!-- Generated by graphviz version 2.43.0 (0)
 -->
<!-- Title: generalencapsulatedobjectframe.h Pages: 1 -->
<svg width="427pt" height="308pt"
 viewBox="0.00 0.00 427.00 308.00" xmlns="http://www.w3.org/2000/svg" xmlns:xlink="http://www.w3.org/1999/xlink">
<g id="graph0" class="graph" transform="scale(1 1) rotate(0) translate(4 304)">
<title>generalencapsulatedobjectframe.h</title>
<polygon fill="white" stroke="transparent" points="-4,4 -4,-304 423,-304 423,4 -4,4"/>
<!-- Node1 -->
<g id="node1" class="node">
<title>Node1</title>
<g id="a_node1"><a xlink:title=" ">
<polygon fill="#bfbfbf" stroke="black" points="17.5,-280.5 17.5,-299.5 204.5,-299.5 204.5,-280.5 17.5,-280.5"/>
<text text-anchor="middle" x="111" y="-287.5" font-family="Helvetica,sans-Serif" font-size="10.00">generalencapsulatedobjectframe.h</text>
</a>
</g>
</g>
<!-- Node2 -->
<g id="node2" class="node">
<title>Node2</title>
<g id="a_node2"><a xlink:href="taglib__export_8h.html" target="_top" xlink:title=" ">
<polygon fill="white" stroke="black" points="0,-56.5 0,-75.5 90,-75.5 90,-56.5 0,-56.5"/>
<text text-anchor="middle" x="45" y="-63.5" font-family="Helvetica,sans-Serif" font-size="10.00">taglib_export.h</text>
</a>
</g>
</g>
<!-- Node1&#45;&gt;Node2 -->
<g id="edge1" class="edge">
<title>Node1&#45;&gt;Node2</title>
<path fill="none" stroke="midnightblue" d="M96.41,-280.3C84.66,-272.42 68.84,-259.67 61,-244 34.81,-191.68 38.64,-119.74 42.39,-85.97"/>
<polygon fill="midnightblue" stroke="midnightblue" points="45.9,-86.06 43.66,-75.71 38.96,-85.2 45.9,-86.06"/>
</g>
<!-- Node3 -->
<g id="node3" class="node">
<title>Node3</title>
<g id="a_node3"><a xlink:href="id3v2frame_8h.html" target="_top" xlink:title=" ">
<polygon fill="white" stroke="black" points="70,-224.5 70,-243.5 152,-243.5 152,-224.5 70,-224.5"/>
<text text-anchor="middle" x="111" y="-231.5" font-family="Helvetica,sans-Serif" font-size="10.00">id3v2frame.h</text>
</a>
</g>
</g>
<!-- Node1&#45;&gt;Node3 -->
<g id="edge2" class="edge">
<title>Node1&#45;&gt;Node3</title>
<path fill="none" stroke="midnightblue" d="M111,-280.08C111,-273.01 111,-262.86 111,-253.99"/>
<polygon fill="midnightblue" stroke="midnightblue" points="114.5,-253.75 111,-243.75 107.5,-253.75 114.5,-253.75"/>
</g>
<!-- Node13 -->
<g id="node13" class="node">
<title>Node13</title>
<g id="a_node13"><a xlink:href="id3v2header_8h.html" target="_top" xlink:title=" ">
<polygon fill="white" stroke="black" points="139,-168.5 139,-187.5 225,-187.5 225,-168.5 139,-168.5"/>
<text text-anchor="middle" x="182" y="-175.5" font-family="Helvetica,sans-Serif" font-size="10.00">id3v2header.h</text>
</a>
</g>
</g>
<!-- Node1&#45;&gt;Node13 -->
<g id="edge19" class="edge">
<title>Node1&#45;&gt;Node13</title>
<path fill="none" stroke="midnightblue" d="M123.83,-280.45C135.11,-272.31 151.22,-259.09 161,-244 170.17,-229.85 175.64,-211.37 178.68,-197.73"/>
<polygon fill="midnightblue" stroke="midnightblue" points="182.17,-198.11 180.69,-187.61 175.31,-196.74 182.17,-198.11"/>
</g>
<!-- Node3&#45;&gt;Node2 -->
<g id="edge18" class="edge">
<title>Node3&#45;&gt;Node2</title>
<path fill="none" stroke="midnightblue" d="M107.45,-224.08C97.02,-197.83 66.29,-120.55 52.2,-85.12"/>
<polygon fill="midnightblue" stroke="midnightblue" points="55.35,-83.57 48.41,-75.57 48.85,-86.15 55.35,-83.57"/>
</g>
<!-- Node4 -->
<g id="node4" class="node">
<title>Node4</title>
<g id="a_node4"><a xlink:href="tstring_8h.html" target="_top" xlink:title=" ">
<polygon fill="white" stroke="black" points="268.5,-168.5 268.5,-187.5 325.5,-187.5 325.5,-168.5 268.5,-168.5"/>
<text text-anchor="middle" x="297" y="-175.5" font-family="Helvetica,sans-Serif" font-size="10.00">tstring.h</text>
</a>
</g>
</g>
<!-- Node3&#45;&gt;Node4 -->
<g id="edge3" class="edge">
<title>Node3&#45;&gt;Node4</title>
<path fill="none" stroke="midnightblue" d="M140.47,-224.44C172.36,-215.19 223.33,-200.39 258.39,-190.21"/>
<polygon fill="midnightblue" stroke="midnightblue" points="259.65,-193.49 268.28,-187.34 257.7,-186.77 259.65,-193.49"/>
</g>
<!-- Node7 -->
<g id="node7" class="node">
<title>Node7</title>
<g id="a_node7"><a xlink:href="tbytevector_8h.html" target="_top" xlink:title=" ">
<polygon fill="white" stroke="black" points="141.5,-112.5 141.5,-131.5 222.5,-131.5 222.5,-112.5 141.5,-112.5"/>
<text text-anchor="middle" x="182" y="-119.5" font-family="Helvetica,sans-Serif" font-size="10.00">tbytevector.h</text>
</a>
</g>
</g>
<!-- Node3&#45;&gt;Node7 -->
<g id="edge17" class="edge">
<title>Node3&#45;&gt;Node7</title>
<path fill="none" stroke="midnightblue" d="M111.95,-224.36C113.71,-211.26 118.44,-186 130,-168 137.66,-156.07 149.4,-145.53 159.79,-137.65"/>
<polygon fill="midnightblue" stroke="midnightblue" points="162.01,-140.37 168.08,-131.69 157.92,-134.68 162.01,-140.37"/>
</g>
<!-- Node4&#45;&gt;Node2 -->
<g id="edge15" class="edge">
<title>Node4&#45;&gt;Node2</title>
<path fill="none" stroke="midnightblue" d="M268.3,-172.44C234.64,-166.35 177.75,-153.73 133,-132 106.23,-119 79.26,-97.56 62.37,-82.89"/>
<polygon fill="midnightblue" stroke="midnightblue" points="64.31,-79.93 54.51,-75.91 59.66,-85.17 64.31,-79.93"/>
</g>
<!-- Node5 -->
<g id="node5" class="node">
<title>Node5</title>
<g id="a_node5"><a xlink:title=" ">
<polygon fill="white" stroke="#bfbfbf" points="322,-56.5 322,-75.5 382,-75.5 382,-56.5 322,-56.5"/>
<text text-anchor="middle" x="352" y="-63.5" font-family="Helvetica,sans-Serif" font-size="10.00">iostream</text>
</a>
</g>
</g>
<!-- Node4&#45;&gt;Node5 -->
<g id="edge4" class="edge">
<title>Node4&#45;&gt;Node5</title>
<path fill="none" stroke="midnightblue" d="M301.32,-168.37C310.31,-150.38 331.22,-108.55 343.19,-84.63"/>
<polygon fill="midnightblue" stroke="midnightblue" points="346.36,-86.1 347.7,-75.59 340.1,-82.97 346.36,-86.1"/>
</g>
<!-- Node6 -->
<g id="node6" class="node">
<title>Node6</title>
<g id="a_node6"><a xlink:title=" ">
<polygon fill="white" stroke="#bfbfbf" points="375,-0.5 375,-19.5 419,-19.5 419,-0.5 375,-0.5"/>
<text text-anchor="middle" x="397" y="-7.5" font-family="Helvetica,sans-Serif" font-size="10.00">string</text>
</a>
</g>
</g>
<!-- Node4&#45;&gt;Node6 -->
<g id="edge5" class="edge">
<title>Node4&#45;&gt;Node6</title>
<path fill="none" stroke="midnightblue" d="M309.15,-168.36C330.08,-152.68 372.51,-117.32 391,-76 397.44,-61.6 398.65,-43.64 398.42,-30.25"/>
<polygon fill="midnightblue" stroke="midnightblue" points="401.89,-29.69 397.93,-19.86 394.9,-30.01 401.89,-29.69"/>
</g>
<!-- Node4&#45;&gt;Node7 -->
<g id="edge6" class="edge">
<title>Node4&#45;&gt;Node7</title>
<path fill="none" stroke="midnightblue" d="M278.78,-168.44C260.1,-159.68 230.84,-145.94 209.38,-135.86"/>
<polygon fill="midnightblue" stroke="midnightblue" points="210.68,-132.6 200.14,-131.52 207.7,-138.93 210.68,-132.6"/>
</g>
<!-- Node10 -->
<g id="node10" class="node">
<title>Node10</title>
<g id="a_node10"><a xlink:href="taglib_8h.html" target="_top" xlink:title=" ">
<polygon fill="white" stroke="black" points="250.5,-56.5 250.5,-75.5 303.5,-75.5 303.5,-56.5 250.5,-56.5"/>
<text text-anchor="middle" x="277" y="-63.5" font-family="Helvetica,sans-Serif" font-size="10.00">taglib.h</text>
</a>
</g>
</g>
<!-- Node4&#45;&gt;Node10 -->
<g id="edge16" class="edge">
<title>Node4&#45;&gt;Node10</title>
<path fill="none" stroke="midnightblue" d="M299.67,-168.42C303.17,-155.83 308.28,-131.7 303,-112 300.35,-102.1 294.93,-92.13 289.73,-84.1"/>
<polygon fill="midnightblue" stroke="midnightblue" points="292.46,-81.91 283.89,-75.68 286.71,-85.89 292.46,-81.91"/>
</g>
<!-- Node7&#45;&gt;Node2 -->
<g id="edge14" class="edge">
<title>Node7&#45;&gt;Node2</title>
<path fill="none" stroke="midnightblue" d="M160.29,-112.44C137.65,-103.52 101.93,-89.44 76.25,-79.32"/>
<polygon fill="midnightblue" stroke="midnightblue" points="77.19,-75.93 66.61,-75.52 74.63,-82.44 77.19,-75.93"/>
</g>
<!-- Node7&#45;&gt;Node5 -->
<g id="edge7" class="edge">
<title>Node7&#45;&gt;Node5</title>
<path fill="none" stroke="midnightblue" d="M208.94,-112.44C237.66,-103.32 283.33,-88.81 315.32,-78.65"/>
<polygon fill="midnightblue" stroke="midnightblue" points="316.72,-81.88 325.19,-75.52 314.6,-75.21 316.72,-81.88"/>
</g>
<!-- Node8 -->
<g id="node8" class="node">
<title>Node8</title>
<g id="a_node8"><a xlink:title=" ">
<polygon fill="white" stroke="#bfbfbf" points="174,-56.5 174,-75.5 232,-75.5 232,-56.5 174,-56.5"/>
<text text-anchor="middle" x="203" y="-63.5" font-family="Helvetica,sans-Serif" font-size="10.00">memory</text>
</a>
</g>
</g>
<!-- Node7&#45;&gt;Node8 -->
<g id="edge8" class="edge">
<title>Node7&#45;&gt;Node8</title>
<path fill="none" stroke="midnightblue" d="M185.47,-112.08C188.31,-104.77 192.43,-94.18 195.96,-85.1"/>
<polygon fill="midnightblue" stroke="midnightblue" points="199.23,-86.34 199.6,-75.75 192.71,-83.8 199.23,-86.34"/>
</g>
<!-- Node9 -->
<g id="node9" class="node">
<title>Node9</title>
<g id="a_node9"><a xlink:title=" ">
<polygon fill="white" stroke="#bfbfbf" points="108.5,-56.5 108.5,-75.5 155.5,-75.5 155.5,-56.5 108.5,-56.5"/>
<text text-anchor="middle" x="132" y="-63.5" font-family="Helvetica,sans-Serif" font-size="10.00">vector</text>
</a>
</g>
</g>
<!-- Node7&#45;&gt;Node9 -->
<g id="edge9" class="edge">
<title>Node7&#45;&gt;Node9</title>
<path fill="none" stroke="midnightblue" d="M173.74,-112.08C166.54,-104.3 155.89,-92.8 147.15,-83.37"/>
<polygon fill="midnightblue" stroke="midnightblue" points="149.47,-80.71 140.1,-75.75 144.33,-85.47 149.47,-80.71"/>
</g>
<!-- Node7&#45;&gt;Node10 -->
<g id="edge10" class="edge">
<title>Node7&#45;&gt;Node10</title>
<path fill="none" stroke="midnightblue" d="M197.26,-112.32C212.22,-103.82 235.25,-90.73 252.73,-80.8"/>
<polygon fill="midnightblue" stroke="midnightblue" points="254.81,-83.64 261.77,-75.65 251.35,-77.55 254.81,-83.64"/>
</g>
<!-- Node10&#45;&gt;Node6 -->
<g id="edge13" class="edge">
<title>Node10&#45;&gt;Node6</title>
<path fill="none" stroke="midnightblue" d="M296.01,-56.44C315.59,-47.64 346.31,-33.81 368.73,-23.72"/>
<polygon fill="midnightblue" stroke="midnightblue" points="370.39,-26.81 378.07,-19.52 367.52,-20.43 370.39,-26.81"/>
</g>
<!-- Node11 -->
<g id="node11" class="node">
<title>Node11</title>
<g id="a_node11"><a xlink:title=" ">
<polygon fill="white" stroke="#bfbfbf" points="245,-0.5 245,-19.5 333,-19.5 333,-0.5 245,-0.5"/>
<text text-anchor="middle" x="289" y="-7.5" font-family="Helvetica,sans-Serif" font-size="10.00">taglib_config.h</text>
</a>
</g>
</g>
<!-- Node10&#45;&gt;Node11 -->
<g id="edge11" class="edge">
<title>Node10&#45;&gt;Node11</title>
<path fill="none" stroke="midnightblue" d="M278.98,-56.08C280.57,-48.93 282.86,-38.64 284.85,-29.69"/>
<polygon fill="midnightblue" stroke="midnightblue" points="288.3,-30.27 287.06,-19.75 281.47,-28.75 288.3,-30.27"/>
</g>
<!-- Node12 -->
<g id="node12" class="node">
<title>Node12</title>
<g id="a_node12"><a xlink:title=" ">
<polygon fill="white" stroke="#bfbfbf" points="155,-0.5 155,-19.5 227,-19.5 227,-0.5 155,-0.5"/>
<text text-anchor="middle" x="191" y="-7.5" font-family="Helvetica,sans-Serif" font-size="10.00">sys/types.h</text>
</a>
</g>
</g>
<!-- Node10&#45;&gt;Node12 -->
<g id="edge12" class="edge">
<title>Node10&#45;&gt;Node12</title>
<path fill="none" stroke="midnightblue" d="M263.18,-56.32C249.77,-47.9 229.18,-34.97 213.41,-25.07"/>
<polygon fill="midnightblue" stroke="midnightblue" points="215.11,-22.01 204.78,-19.65 211.39,-27.94 215.11,-22.01"/>
</g>
<!-- Node13&#45;&gt;Node2 -->
<g id="edge21" class="edge">
<title>Node13&#45;&gt;Node2</title>
<path fill="none" stroke="midnightblue" d="M161.22,-168.42C143.57,-160.54 118.13,-147.7 99,-132 82.07,-118.11 66.52,-98.31 56.5,-84.22"/>
<polygon fill="midnightblue" stroke="midnightblue" points="59.32,-82.14 50.75,-75.91 53.56,-86.12 59.32,-82.14"/>
</g>
<!-- Node13&#45;&gt;Node7 -->
<g id="edge20" class="edge">
<title>Node13&#45;&gt;Node7</title>
<path fill="none" stroke="midnightblue" d="M182,-168.08C182,-161.01 182,-150.86 182,-141.99"/>
<polygon fill="midnightblue" stroke="midnightblue" points="185.5,-141.75 182,-131.75 178.5,-141.75 185.5,-141.75"/>
</g>
<!-- Node14 -->
<g id="node14" class="node">
<title>Node14</title>
<g id="a_node14"><a xlink:href="id3v2_8h.html" target="_top" xlink:title=" ">
<polygon fill="white" stroke="black" points="240.5,-112.5 240.5,-131.5 293.5,-131.5 293.5,-112.5 240.5,-112.5"/>
<text text-anchor="middle" x="267" y="-119.5" font-family="Helvetica,sans-Serif" font-size="10.00">id3v2.h</text>
</a>
</g>
</g>
<!-- Node13&#45;&gt;Node14 -->
<g id="edge22" class="edge">
<title>Node13&#45;&gt;Node14</title>
<path fill="none" stroke="midnightblue" d="M195.66,-168.32C208.92,-159.9 229.27,-146.97 244.85,-137.07"/>
<polygon fill="midnightblue" stroke="midnightblue" points="246.81,-139.97 253.38,-131.65 243.06,-134.06 246.81,-139.97"/>
</g>
</g>
</svg>
