<?xml version="1.0" encoding="UTF-8" standalone="no"?>
<!DOCTYPE svg PUBLIC "-//W3C//DTD SVG 1.1//EN"
 "http://www.w3.org/Graphics/SVG/1.1/DTD/svg11.dtd">
<!-- Generated by graphviz version 2.43.0 (0)
 -->
<!-- Title: id3v1tag.h Pages: 1 -->
<svg width="797pt" height="252pt"
 viewBox="0.00 0.00 796.68 252.00" xmlns="http://www.w3.org/2000/svg" xmlns:xlink="http://www.w3.org/1999/xlink">
<g id="graph0" class="graph" transform="scale(1 1) rotate(0) translate(4 248)">
<title>id3v1tag.h</title>
<polygon fill="white" stroke="transparent" points="-4,4 -4,-248 792.68,-248 792.68,4 -4,4"/>
<!-- Node1 -->
<g id="node1" class="node">
<title>Node1</title>
<g id="a_node1"><a xlink:title=" ">
<polygon fill="#bfbfbf" stroke="black" points="156.18,-224.5 156.18,-243.5 224.18,-243.5 224.18,-224.5 156.18,-224.5"/>
<text text-anchor="middle" x="190.18" y="-231.5" font-family="Helvetica,sans-Serif" font-size="10.00">id3v1tag.h</text>
</a>
</g>
</g>
<!-- Node2 -->
<g id="node2" class="node">
<title>Node2</title>
<g id="a_node2"><a xlink:href="tbytevector_8h.html" target="_top" xlink:title=" ">
<polygon fill="white" stroke="black" points="263.68,-56.5 263.68,-75.5 344.68,-75.5 344.68,-56.5 263.68,-56.5"/>
<text text-anchor="middle" x="304.18" y="-63.5" font-family="Helvetica,sans-Serif" font-size="10.00">tbytevector.h</text>
</a>
</g>
</g>
<!-- Node1&#45;&gt;Node2 -->
<g id="edge1" class="edge">
<title>Node1&#45;&gt;Node2</title>
<path fill="none" stroke="midnightblue" d="M196.31,-224.08C214.49,-197.61 268.33,-119.21 292.36,-84.21"/>
<polygon fill="midnightblue" stroke="midnightblue" points="295.52,-85.79 298.3,-75.57 289.75,-81.83 295.52,-85.79"/>
</g>
<!-- Node6 -->
<g id="node6" class="node">
<title>Node6</title>
<g id="a_node6"><a xlink:href="taglib__export_8h.html" target="_top" xlink:title=" ">
<polygon fill="white" stroke="black" points="71.18,-0.5 71.18,-19.5 161.18,-19.5 161.18,-0.5 71.18,-0.5"/>
<text text-anchor="middle" x="116.18" y="-7.5" font-family="Helvetica,sans-Serif" font-size="10.00">taglib_export.h</text>
</a>
</g>
</g>
<!-- Node1&#45;&gt;Node6 -->
<g id="edge8" class="edge">
<title>Node1&#45;&gt;Node6</title>
<path fill="none" stroke="midnightblue" d="M155.84,-227.18C109.69,-217.18 30.42,-191.71 4.18,-132 -16.61,-84.69 47.62,-43.93 87.3,-24.01"/>
<polygon fill="midnightblue" stroke="midnightblue" points="88.85,-27.15 96.31,-19.63 85.79,-20.86 88.85,-27.15"/>
</g>
<!-- Node7 -->
<g id="node7" class="node">
<title>Node7</title>
<g id="a_node7"><a xlink:href="taglib_8h.html" target="_top" xlink:title=" ">
<polygon fill="white" stroke="black" points="74.68,-168.5 74.68,-187.5 127.68,-187.5 127.68,-168.5 74.68,-168.5"/>
<text text-anchor="middle" x="101.18" y="-175.5" font-family="Helvetica,sans-Serif" font-size="10.00">taglib.h</text>
</a>
</g>
</g>
<!-- Node1&#45;&gt;Node7 -->
<g id="edge6" class="edge">
<title>Node1&#45;&gt;Node7</title>
<path fill="none" stroke="midnightblue" d="M175.88,-224.32C162,-215.9 140.69,-202.97 124.38,-193.07"/>
<polygon fill="midnightblue" stroke="midnightblue" points="125.81,-189.85 115.45,-187.65 122.18,-195.83 125.81,-189.85"/>
</g>
<!-- Node9 -->
<g id="node9" class="node">
<title>Node9</title>
<g id="a_node9"><a xlink:href="tag_8h.html" target="_top" xlink:title=" ">
<polygon fill="white" stroke="black" points="270.68,-168.5 270.68,-187.5 311.68,-187.5 311.68,-168.5 270.68,-168.5"/>
<text text-anchor="middle" x="291.18" y="-175.5" font-family="Helvetica,sans-Serif" font-size="10.00">tag.h</text>
</a>
</g>
</g>
<!-- Node1&#45;&gt;Node9 -->
<g id="edge9" class="edge">
<title>Node1&#45;&gt;Node9</title>
<path fill="none" stroke="midnightblue" d="M206.41,-224.32C222.53,-215.7 247.48,-202.36 266.15,-192.39"/>
<polygon fill="midnightblue" stroke="midnightblue" points="267.83,-195.46 274.99,-187.65 264.53,-189.28 267.83,-195.46"/>
</g>
<!-- Node3 -->
<g id="node3" class="node">
<title>Node3</title>
<g id="a_node3"><a xlink:title=" ">
<polygon fill="white" stroke="#bfbfbf" points="311.18,-0.5 311.18,-19.5 369.18,-19.5 369.18,-0.5 311.18,-0.5"/>
<text text-anchor="middle" x="340.18" y="-7.5" font-family="Helvetica,sans-Serif" font-size="10.00">memory</text>
</a>
</g>
</g>
<!-- Node2&#45;&gt;Node3 -->
<g id="edge2" class="edge">
<title>Node2&#45;&gt;Node3</title>
<path fill="none" stroke="midnightblue" d="M310.13,-56.08C315.16,-48.53 322.52,-37.49 328.69,-28.23"/>
<polygon fill="midnightblue" stroke="midnightblue" points="331.71,-30.01 334.35,-19.75 325.89,-26.13 331.71,-30.01"/>
</g>
<!-- Node4 -->
<g id="node4" class="node">
<title>Node4</title>
<g id="a_node4"><a xlink:title=" ">
<polygon fill="white" stroke="#bfbfbf" points="179.68,-0.5 179.68,-19.5 226.68,-19.5 226.68,-0.5 179.68,-0.5"/>
<text text-anchor="middle" x="203.18" y="-7.5" font-family="Helvetica,sans-Serif" font-size="10.00">vector</text>
</a>
</g>
</g>
<!-- Node2&#45;&gt;Node4 -->
<g id="edge3" class="edge">
<title>Node2&#45;&gt;Node4</title>
<path fill="none" stroke="midnightblue" d="M287.95,-56.32C271.83,-47.7 246.88,-34.36 228.22,-24.39"/>
<polygon fill="midnightblue" stroke="midnightblue" points="229.84,-21.28 219.37,-19.65 226.54,-27.46 229.84,-21.28"/>
</g>
<!-- Node5 -->
<g id="node5" class="node">
<title>Node5</title>
<g id="a_node5"><a xlink:title=" ">
<polygon fill="white" stroke="#bfbfbf" points="245.18,-0.5 245.18,-19.5 293.18,-19.5 293.18,-0.5 245.18,-0.5"/>
<text text-anchor="middle" x="269.18" y="-7.5" font-family="Helvetica,sans-Serif" font-size="10.00">iosfwd</text>
</a>
</g>
</g>
<!-- Node2&#45;&gt;Node5 -->
<g id="edge4" class="edge">
<title>Node2&#45;&gt;Node5</title>
<path fill="none" stroke="midnightblue" d="M298.4,-56.08C293.51,-48.53 286.35,-37.49 280.35,-28.23"/>
<polygon fill="midnightblue" stroke="midnightblue" points="283.23,-26.24 274.85,-19.75 277.36,-30.05 283.23,-26.24"/>
</g>
<!-- Node2&#45;&gt;Node6 -->
<g id="edge5" class="edge">
<title>Node2&#45;&gt;Node6</title>
<path fill="none" stroke="midnightblue" d="M274.39,-56.44C242.35,-47.24 191.25,-32.56 155.83,-22.39"/>
<polygon fill="midnightblue" stroke="midnightblue" points="156.41,-18.91 145.83,-19.52 154.48,-25.64 156.41,-18.91"/>
</g>
<!-- Node8 -->
<g id="node8" class="node">
<title>Node8</title>
<g id="a_node8"><a xlink:title=" ">
<polygon fill="white" stroke="#bfbfbf" points="13.18,-112.5 13.18,-131.5 85.18,-131.5 85.18,-112.5 13.18,-112.5"/>
<text text-anchor="middle" x="49.18" y="-119.5" font-family="Helvetica,sans-Serif" font-size="10.00">sys/types.h</text>
</a>
</g>
</g>
<!-- Node7&#45;&gt;Node8 -->
<g id="edge7" class="edge">
<title>Node7&#45;&gt;Node8</title>
<path fill="none" stroke="midnightblue" d="M92.59,-168.08C85.02,-160.22 73.8,-148.57 64.67,-139.08"/>
<polygon fill="midnightblue" stroke="midnightblue" points="67.07,-136.53 57.61,-131.75 62.02,-141.38 67.07,-136.53"/>
</g>
<!-- Node9&#45;&gt;Node6 -->
<g id="edge10" class="edge">
<title>Node9&#45;&gt;Node6</title>
<path fill="none" stroke="midnightblue" d="M270.52,-176.58C239.26,-174.78 180.09,-166.67 147.18,-132 120.52,-103.91 115.97,-56.13 115.66,-29.8"/>
<polygon fill="midnightblue" stroke="midnightblue" points="119.16,-29.68 115.74,-19.65 112.16,-29.63 119.16,-29.68"/>
</g>
<!-- Node10 -->
<g id="node10" class="node">
<title>Node10</title>
<g id="a_node10"><a xlink:href="tstring_8h.html" target="_top" xlink:title=" ">
<polygon fill="white" stroke="black" points="156.68,-112.5 156.68,-131.5 213.68,-131.5 213.68,-112.5 156.68,-112.5"/>
<text text-anchor="middle" x="185.18" y="-119.5" font-family="Helvetica,sans-Serif" font-size="10.00">tstring.h</text>
</a>
</g>
</g>
<!-- Node9&#45;&gt;Node10 -->
<g id="edge11" class="edge">
<title>Node9&#45;&gt;Node10</title>
<path fill="none" stroke="midnightblue" d="M274.15,-168.32C257.15,-159.66 230.81,-146.24 211.19,-136.25"/>
<polygon fill="midnightblue" stroke="midnightblue" points="212.67,-133.08 202.17,-131.65 209.49,-139.31 212.67,-133.08"/>
</g>
<!-- Node12 -->
<g id="node12" class="node">
<title>Node12</title>
<g id="a_node12"><a xlink:href="tlist_8h.html" target="_top" xlink:title=" ">
<polygon fill="white" stroke="black" points="537.18,-56.5 537.18,-75.5 581.18,-75.5 581.18,-56.5 537.18,-56.5"/>
<text text-anchor="middle" x="559.18" y="-63.5" font-family="Helvetica,sans-Serif" font-size="10.00">tlist.h</text>
</a>
</g>
</g>
<!-- Node9&#45;&gt;Node12 -->
<g id="edge15" class="edge">
<title>Node9&#45;&gt;Node12</title>
<path fill="none" stroke="midnightblue" d="M311.81,-169.95C336.38,-161.45 378.58,-146.47 414.18,-132 455.74,-115.11 503.01,-93.45 531.97,-79.89"/>
<polygon fill="midnightblue" stroke="midnightblue" points="533.49,-83.05 541.05,-75.63 530.51,-76.71 533.49,-83.05"/>
</g>
<!-- Node16 -->
<g id="node16" class="node">
<title>Node16</title>
<g id="a_node16"><a xlink:href="tvariant_8h.html" target="_top" xlink:title=" ">
<polygon fill="white" stroke="black" points="341.18,-112.5 341.18,-131.5 405.18,-131.5 405.18,-112.5 341.18,-112.5"/>
<text text-anchor="middle" x="373.18" y="-119.5" font-family="Helvetica,sans-Serif" font-size="10.00">tvariant.h</text>
</a>
</g>
</g>
<!-- Node9&#45;&gt;Node16 -->
<g id="edge20" class="edge">
<title>Node9&#45;&gt;Node16</title>
<path fill="none" stroke="midnightblue" d="M304.36,-168.32C317.03,-159.98 336.41,-147.21 351.39,-137.35"/>
<polygon fill="midnightblue" stroke="midnightblue" points="353.61,-140.08 360.04,-131.65 349.76,-134.23 353.61,-140.08"/>
</g>
<!-- Node10&#45;&gt;Node2 -->
<g id="edge13" class="edge">
<title>Node10&#45;&gt;Node2</title>
<path fill="none" stroke="midnightblue" d="M204.04,-112.44C223.45,-103.64 253.91,-89.81 276.15,-79.72"/>
<polygon fill="midnightblue" stroke="midnightblue" points="277.75,-82.84 285.41,-75.52 274.86,-76.46 277.75,-82.84"/>
</g>
<!-- Node10&#45;&gt;Node6 -->
<g id="edge14" class="edge">
<title>Node10&#45;&gt;Node6</title>
<path fill="none" stroke="midnightblue" d="M178.81,-112.17C172.4,-103.19 162.32,-88.81 154.18,-76 144.12,-60.18 133.41,-41.68 125.93,-28.47"/>
<polygon fill="midnightblue" stroke="midnightblue" points="128.85,-26.54 120.9,-19.53 122.75,-29.97 128.85,-26.54"/>
</g>
<!-- Node11 -->
<g id="node11" class="node">
<title>Node11</title>
<g id="a_node11"><a xlink:title=" ">
<polygon fill="white" stroke="#bfbfbf" points="163.18,-56.5 163.18,-75.5 207.18,-75.5 207.18,-56.5 163.18,-56.5"/>
<text text-anchor="middle" x="185.18" y="-63.5" font-family="Helvetica,sans-Serif" font-size="10.00">string</text>
</a>
</g>
</g>
<!-- Node10&#45;&gt;Node11 -->
<g id="edge12" class="edge">
<title>Node10&#45;&gt;Node11</title>
<path fill="none" stroke="midnightblue" d="M185.18,-112.08C185.18,-105.01 185.18,-94.86 185.18,-85.99"/>
<polygon fill="midnightblue" stroke="midnightblue" points="188.68,-85.75 185.18,-75.75 181.68,-85.75 188.68,-85.75"/>
</g>
<!-- Node12&#45;&gt;Node3 -->
<g id="edge18" class="edge">
<title>Node12&#45;&gt;Node3</title>
<path fill="none" stroke="midnightblue" d="M536.98,-59.53C499.98,-50.4 425.24,-31.97 379.26,-20.64"/>
<polygon fill="midnightblue" stroke="midnightblue" points="379.9,-17.19 369.35,-18.19 378.22,-23.99 379.9,-17.19"/>
</g>
<!-- Node13 -->
<g id="node13" class="node">
<title>Node13</title>
<g id="a_node13"><a xlink:title=" ">
<polygon fill="white" stroke="#bfbfbf" points="685.18,-0.5 685.18,-19.5 717.18,-19.5 717.18,-0.5 685.18,-0.5"/>
<text text-anchor="middle" x="701.18" y="-7.5" font-family="Helvetica,sans-Serif" font-size="10.00">list</text>
</a>
</g>
</g>
<!-- Node12&#45;&gt;Node13 -->
<g id="edge16" class="edge">
<title>Node12&#45;&gt;Node13</title>
<path fill="none" stroke="midnightblue" d="M581.37,-56.56C606.82,-46.88 648.5,-31.03 675.38,-20.81"/>
<polygon fill="midnightblue" stroke="midnightblue" points="676.79,-24.02 684.89,-17.19 674.3,-17.48 676.79,-24.02"/>
</g>
<!-- Node14 -->
<g id="node14" class="node">
<title>Node14</title>
<g id="a_node14"><a xlink:title=" ">
<polygon fill="white" stroke="#bfbfbf" points="583.68,-0.5 583.68,-19.5 666.68,-19.5 666.68,-0.5 583.68,-0.5"/>
<text text-anchor="middle" x="625.18" y="-7.5" font-family="Helvetica,sans-Serif" font-size="10.00">initializer_list</text>
</a>
</g>
</g>
<!-- Node12&#45;&gt;Node14 -->
<g id="edge17" class="edge">
<title>Node12&#45;&gt;Node14</title>
<path fill="none" stroke="midnightblue" d="M569.79,-56.32C579.64,-48.26 594.53,-36.08 606.4,-26.37"/>
<polygon fill="midnightblue" stroke="midnightblue" points="608.86,-28.88 614.38,-19.83 604.43,-23.46 608.86,-28.88"/>
</g>
<!-- Node15 -->
<g id="node15" class="node">
<title>Node15</title>
<g id="a_node15"><a xlink:title=" ">
<polygon fill="white" stroke="#bfbfbf" points="735.68,-0.5 735.68,-19.5 788.68,-19.5 788.68,-0.5 735.68,-0.5"/>
<text text-anchor="middle" x="762.18" y="-7.5" font-family="Helvetica,sans-Serif" font-size="10.00">tlist.tcc</text>
</a>
</g>
</g>
<!-- Node12&#45;&gt;Node15 -->
<g id="edge19" class="edge">
<title>Node12&#45;&gt;Node15</title>
<path fill="none" stroke="midnightblue" d="M581.29,-59.12C616.04,-49.88 683.78,-31.86 725.79,-20.68"/>
<polygon fill="midnightblue" stroke="midnightblue" points="726.85,-24.02 735.62,-18.07 725.05,-17.25 726.85,-24.02"/>
</g>
<!-- Node16&#45;&gt;Node5 -->
<g id="edge21" class="edge">
<title>Node16&#45;&gt;Node5</title>
<path fill="none" stroke="midnightblue" d="M372.6,-112.45C371.28,-99.01 366.99,-72.77 353.18,-56 340.26,-40.3 320.39,-29.31 303.22,-22.12"/>
<polygon fill="midnightblue" stroke="midnightblue" points="304.08,-18.7 293.49,-18.32 301.53,-25.22 304.08,-18.7"/>
</g>
<!-- Node16&#45;&gt;Node6 -->
<g id="edge29" class="edge">
<title>Node16&#45;&gt;Node6</title>
<path fill="none" stroke="midnightblue" d="M347.74,-112.4C323.4,-103.94 285.8,-90.24 254.18,-76 236.78,-68.17 233.34,-64.36 216.18,-56 192.65,-44.53 165.55,-32.4 145.5,-23.63"/>
<polygon fill="midnightblue" stroke="midnightblue" points="146.84,-20.39 136.27,-19.61 144.04,-26.81 146.84,-20.39"/>
</g>
<!-- Node16&#45;&gt;Node12 -->
<g id="edge22" class="edge">
<title>Node16&#45;&gt;Node12</title>
<path fill="none" stroke="midnightblue" d="M402.65,-112.44C436.68,-102.56 492.45,-86.37 527.42,-76.22"/>
<polygon fill="midnightblue" stroke="midnightblue" points="528.5,-79.55 537.13,-73.4 526.55,-72.83 528.5,-79.55"/>
</g>
<!-- Node17 -->
<g id="node17" class="node">
<title>Node17</title>
<g id="a_node17"><a xlink:href="tmap_8h.html" target="_top" xlink:title=" ">
<polygon fill="white" stroke="black" points="421.68,-56.5 421.68,-75.5 472.68,-75.5 472.68,-56.5 421.68,-56.5"/>
<text text-anchor="middle" x="447.18" y="-63.5" font-family="Helvetica,sans-Serif" font-size="10.00">tmap.h</text>
</a>
</g>
</g>
<!-- Node16&#45;&gt;Node17 -->
<g id="edge23" class="edge">
<title>Node16&#45;&gt;Node17</title>
<path fill="none" stroke="midnightblue" d="M385.07,-112.32C396.33,-104.11 413.47,-91.6 426.89,-81.81"/>
<polygon fill="midnightblue" stroke="midnightblue" points="429.06,-84.56 435.08,-75.83 424.93,-78.9 429.06,-84.56"/>
</g>
<!-- Node17&#45;&gt;Node3 -->
<g id="edge25" class="edge">
<title>Node17&#45;&gt;Node3</title>
<path fill="none" stroke="midnightblue" d="M429.99,-56.32C412.83,-47.66 386.24,-34.24 366.43,-24.25"/>
<polygon fill="midnightblue" stroke="midnightblue" points="367.83,-21.04 357.33,-19.65 364.68,-27.28 367.83,-21.04"/>
</g>
<!-- Node17&#45;&gt;Node14 -->
<g id="edge26" class="edge">
<title>Node17&#45;&gt;Node14</title>
<path fill="none" stroke="midnightblue" d="M472.68,-57.26C502.69,-48.16 552.8,-32.96 587.34,-22.48"/>
<polygon fill="midnightblue" stroke="midnightblue" points="588.53,-25.78 597.08,-19.52 586.5,-19.08 588.53,-25.78"/>
</g>
<!-- Node18 -->
<g id="node18" class="node">
<title>Node18</title>
<g id="a_node18"><a xlink:title=" ">
<polygon fill="white" stroke="#bfbfbf" points="387.18,-0.5 387.18,-19.5 425.18,-19.5 425.18,-0.5 387.18,-0.5"/>
<text text-anchor="middle" x="406.18" y="-7.5" font-family="Helvetica,sans-Serif" font-size="10.00">map</text>
</a>
</g>
</g>
<!-- Node17&#45;&gt;Node18 -->
<g id="edge24" class="edge">
<title>Node17&#45;&gt;Node18</title>
<path fill="none" stroke="midnightblue" d="M440.41,-56.08C434.62,-48.46 426.12,-37.26 419.04,-27.94"/>
<polygon fill="midnightblue" stroke="midnightblue" points="421.66,-25.6 412.83,-19.75 416.09,-29.83 421.66,-25.6"/>
</g>
<!-- Node19 -->
<g id="node19" class="node">
<title>Node19</title>
<g id="a_node19"><a xlink:title=" ">
<polygon fill="white" stroke="#bfbfbf" points="443.68,-0.5 443.68,-19.5 488.68,-19.5 488.68,-0.5 443.68,-0.5"/>
<text text-anchor="middle" x="466.18" y="-7.5" font-family="Helvetica,sans-Serif" font-size="10.00">utility</text>
</a>
</g>
</g>
<!-- Node17&#45;&gt;Node19 -->
<g id="edge27" class="edge">
<title>Node17&#45;&gt;Node19</title>
<path fill="none" stroke="midnightblue" d="M450.32,-56.08C452.86,-48.85 456.54,-38.41 459.71,-29.4"/>
<polygon fill="midnightblue" stroke="midnightblue" points="463.08,-30.35 463.1,-19.75 456.48,-28.02 463.08,-30.35"/>
</g>
<!-- Node20 -->
<g id="node20" class="node">
<title>Node20</title>
<g id="a_node20"><a xlink:title=" ">
<polygon fill="white" stroke="#bfbfbf" points="506.68,-0.5 506.68,-19.5 565.68,-19.5 565.68,-0.5 506.68,-0.5"/>
<text text-anchor="middle" x="536.18" y="-7.5" font-family="Helvetica,sans-Serif" font-size="10.00">tmap.tcc</text>
</a>
</g>
</g>
<!-- Node17&#45;&gt;Node20 -->
<g id="edge28" class="edge">
<title>Node17&#45;&gt;Node20</title>
<path fill="none" stroke="midnightblue" d="M461.48,-56.32C475.36,-47.9 496.67,-34.97 512.98,-25.07"/>
<polygon fill="midnightblue" stroke="midnightblue" points="515.18,-27.83 521.92,-19.65 511.55,-21.85 515.18,-27.83"/>
</g>
</g>
</svg>
