<?xml version="1.0" encoding="UTF-8" standalone="no"?>
<!DOCTYPE svg PUBLIC "-//W3C//DTD SVG 1.1//EN"
 "http://www.w3.org/Graphics/SVG/1.1/DTD/svg11.dtd">
<!-- Generated by graphviz version 2.43.0 (0)
 -->
<!-- Title: id3v2tag.h Pages: 1 -->
<svg width="840pt" height="364pt"
 viewBox="0.00 0.00 839.50 364.00" xmlns="http://www.w3.org/2000/svg" xmlns:xlink="http://www.w3.org/1999/xlink">
<g id="graph0" class="graph" transform="scale(1 1) rotate(0) translate(4 360)">
<title>id3v2tag.h</title>
<polygon fill="white" stroke="transparent" points="-4,4 -4,-360 835.5,-360 835.5,4 -4,4"/>
<!-- Node1 -->
<g id="node1" class="node">
<title>Node1</title>
<g id="a_node1"><a xlink:title=" ">
<polygon fill="#bfbfbf" stroke="black" points="363,-336.5 363,-355.5 431,-355.5 431,-336.5 363,-336.5"/>
<text text-anchor="middle" x="397" y="-343.5" font-family="Helvetica,sans-Serif" font-size="10.00">id3v2tag.h</text>
</a>
</g>
</g>
<!-- Node2 -->
<g id="node2" class="node">
<title>Node2</title>
<g id="a_node2"><a xlink:href="tag_8h.html" target="_top" xlink:title=" ">
<polygon fill="white" stroke="black" points="50.5,-224.5 50.5,-243.5 91.5,-243.5 91.5,-224.5 50.5,-224.5"/>
<text text-anchor="middle" x="71" y="-231.5" font-family="Helvetica,sans-Serif" font-size="10.00">tag.h</text>
</a>
</g>
</g>
<!-- Node1&#45;&gt;Node2 -->
<g id="edge1" class="edge">
<title>Node1&#45;&gt;Node2</title>
<path fill="none" stroke="midnightblue" d="M362.72,-343.4C314.98,-340.12 226.62,-330.14 158,-300 130.66,-287.99 103.85,-265.96 87.37,-250.9"/>
<polygon fill="midnightblue" stroke="midnightblue" points="89.44,-248.05 79.76,-243.76 84.65,-253.15 89.44,-248.05"/>
</g>
<!-- Node3 -->
<g id="node3" class="node">
<title>Node3</title>
<g id="a_node3"><a xlink:href="taglib__export_8h.html" target="_top" xlink:title=" ">
<polygon fill="white" stroke="black" points="107,-56.5 107,-75.5 197,-75.5 197,-56.5 107,-56.5"/>
<text text-anchor="middle" x="152" y="-63.5" font-family="Helvetica,sans-Serif" font-size="10.00">taglib_export.h</text>
</a>
</g>
</g>
<!-- Node1&#45;&gt;Node3 -->
<g id="edge25" class="edge">
<title>Node1&#45;&gt;Node3</title>
<path fill="none" stroke="midnightblue" d="M362.81,-342.87C266.51,-335.95 0,-310.01 0,-235 0,-235 0,-235 0,-177 0,-123.44 62.71,-93.3 107.57,-78.59"/>
<polygon fill="midnightblue" stroke="midnightblue" points="108.63,-81.93 117.13,-75.6 106.54,-75.25 108.63,-81.93"/>
</g>
<!-- Node4 -->
<g id="node4" class="node">
<title>Node4</title>
<g id="a_node4"><a xlink:href="tstring_8h.html" target="_top" xlink:title=" ">
<polygon fill="white" stroke="black" points="180.5,-168.5 180.5,-187.5 237.5,-187.5 237.5,-168.5 180.5,-168.5"/>
<text text-anchor="middle" x="209" y="-175.5" font-family="Helvetica,sans-Serif" font-size="10.00">tstring.h</text>
</a>
</g>
</g>
<!-- Node1&#45;&gt;Node4 -->
<g id="edge16" class="edge">
<title>Node1&#45;&gt;Node4</title>
<path fill="none" stroke="midnightblue" d="M362.76,-340.32C313.62,-331.49 225.27,-307.2 191,-244 182.92,-229.09 189.74,-210.24 197.19,-196.69"/>
<polygon fill="midnightblue" stroke="midnightblue" points="200.34,-198.25 202.53,-187.89 194.35,-194.63 200.34,-198.25"/>
</g>
<!-- Node8 -->
<g id="node8" class="node">
<title>Node8</title>
<g id="a_node8"><a xlink:href="tbytevector_8h.html" target="_top" xlink:title=" ">
<polygon fill="white" stroke="black" points="360.5,-112.5 360.5,-131.5 441.5,-131.5 441.5,-112.5 360.5,-112.5"/>
<text text-anchor="middle" x="401" y="-119.5" font-family="Helvetica,sans-Serif" font-size="10.00">tbytevector.h</text>
</a>
</g>
</g>
<!-- Node1&#45;&gt;Node8 -->
<g id="edge15" class="edge">
<title>Node1&#45;&gt;Node8</title>
<path fill="none" stroke="midnightblue" d="M403.31,-336.49C409.48,-327.77 418.71,-313.58 424,-300 442.45,-252.65 441.86,-238.56 447,-188 447.9,-179.16 450.45,-176.19 447,-168 441.97,-156.05 432.06,-145.69 422.71,-137.93"/>
<polygon fill="midnightblue" stroke="midnightblue" points="424.84,-135.15 414.79,-131.81 420.56,-140.69 424.84,-135.15"/>
</g>
<!-- Node11 -->
<g id="node11" class="node">
<title>Node11</title>
<g id="a_node11"><a xlink:href="tlist_8h.html" target="_top" xlink:title=" ">
<polygon fill="white" stroke="black" points="546,-280.5 546,-299.5 590,-299.5 590,-280.5 546,-280.5"/>
<text text-anchor="middle" x="568" y="-287.5" font-family="Helvetica,sans-Serif" font-size="10.00">tlist.h</text>
</a>
</g>
</g>
<!-- Node1&#45;&gt;Node11 -->
<g id="edge17" class="edge">
<title>Node1&#45;&gt;Node11</title>
<path fill="none" stroke="midnightblue" d="M424.1,-336.44C454.52,-326.84 503.84,-311.26 536.1,-301.07"/>
<polygon fill="midnightblue" stroke="midnightblue" points="537.44,-304.32 545.93,-297.97 535.34,-297.64 537.44,-304.32"/>
</g>
<!-- Node14 -->
<g id="node14" class="node">
<title>Node14</title>
<g id="a_node14"><a xlink:href="tmap_8h.html" target="_top" xlink:title=" ">
<polygon fill="white" stroke="black" points="685.5,-280.5 685.5,-299.5 736.5,-299.5 736.5,-280.5 685.5,-280.5"/>
<text text-anchor="middle" x="711" y="-287.5" font-family="Helvetica,sans-Serif" font-size="10.00">tmap.h</text>
</a>
</g>
</g>
<!-- Node1&#45;&gt;Node14 -->
<g id="edge21" class="edge">
<title>Node1&#45;&gt;Node14</title>
<path fill="none" stroke="midnightblue" d="M431.2,-339.12C491.15,-328.81 614.62,-307.57 675.49,-297.11"/>
<polygon fill="midnightblue" stroke="midnightblue" points="676.13,-300.55 685.4,-295.4 674.95,-293.65 676.13,-300.55"/>
</g>
<!-- Node17 -->
<g id="node17" class="node">
<title>Node17</title>
<g id="a_node17"><a xlink:href="id3v2_8h.html" target="_top" xlink:title=" ">
<polygon fill="white" stroke="black" points="370.5,-168.5 370.5,-187.5 423.5,-187.5 423.5,-168.5 370.5,-168.5"/>
<text text-anchor="middle" x="397" y="-175.5" font-family="Helvetica,sans-Serif" font-size="10.00">id3v2.h</text>
</a>
</g>
</g>
<!-- Node1&#45;&gt;Node17 -->
<g id="edge26" class="edge">
<title>Node1&#45;&gt;Node17</title>
<path fill="none" stroke="midnightblue" d="M400.34,-336.2C403.55,-327.24 408.18,-312.88 410,-300 415.14,-263.7 407.34,-221.02 401.78,-197.28"/>
<polygon fill="midnightblue" stroke="midnightblue" points="405.17,-196.4 399.37,-187.53 398.37,-198.08 405.17,-196.4"/>
</g>
<!-- Node18 -->
<g id="node18" class="node">
<title>Node18</title>
<g id="a_node18"><a xlink:href="id3v2framefactory_8h.html" target="_top" xlink:title=" ">
<polygon fill="white" stroke="black" points="285.5,-280.5 285.5,-299.5 400.5,-299.5 400.5,-280.5 285.5,-280.5"/>
<text text-anchor="middle" x="343" y="-287.5" font-family="Helvetica,sans-Serif" font-size="10.00">id3v2framefactory.h</text>
</a>
</g>
</g>
<!-- Node1&#45;&gt;Node18 -->
<g id="edge27" class="edge">
<title>Node1&#45;&gt;Node18</title>
<path fill="none" stroke="midnightblue" d="M388.08,-336.08C380.22,-328.22 368.57,-316.57 359.08,-307.08"/>
<polygon fill="midnightblue" stroke="midnightblue" points="361.3,-304.35 351.75,-299.75 356.35,-309.3 361.3,-304.35"/>
</g>
<!-- Node2&#45;&gt;Node3 -->
<g id="edge2" class="edge">
<title>Node2&#45;&gt;Node3</title>
<path fill="none" stroke="midnightblue" d="M71.28,-224.41C72.33,-203.6 77.22,-149.47 100,-112 107.37,-99.89 119.09,-89.33 129.54,-81.49"/>
<polygon fill="midnightblue" stroke="midnightblue" points="131.76,-84.21 137.9,-75.57 127.71,-78.49 131.76,-84.21"/>
</g>
<!-- Node2&#45;&gt;Node4 -->
<g id="edge3" class="edge">
<title>Node2&#45;&gt;Node4</title>
<path fill="none" stroke="midnightblue" d="M91.66,-224.92C114.33,-216.05 150.99,-201.7 177.3,-191.4"/>
<polygon fill="midnightblue" stroke="midnightblue" points="178.79,-194.58 186.83,-187.68 176.24,-188.06 178.79,-194.58"/>
</g>
<!-- Node4&#45;&gt;Node3 -->
<g id="edge4" class="edge">
<title>Node4&#45;&gt;Node3</title>
<path fill="none" stroke="midnightblue" d="M204.53,-168.37C195.2,-150.38 173.53,-108.55 161.13,-84.63"/>
<polygon fill="midnightblue" stroke="midnightblue" points="164.16,-82.86 156.45,-75.59 157.95,-86.08 164.16,-82.86"/>
</g>
<!-- Node5 -->
<g id="node5" class="node">
<title>Node5</title>
<g id="a_node5"><a xlink:href="taglib_8h.html" target="_top" xlink:title=" ">
<polygon fill="white" stroke="black" points="433.5,-56.5 433.5,-75.5 486.5,-75.5 486.5,-56.5 433.5,-56.5"/>
<text text-anchor="middle" x="460" y="-63.5" font-family="Helvetica,sans-Serif" font-size="10.00">taglib.h</text>
</a>
</g>
</g>
<!-- Node4&#45;&gt;Node5 -->
<g id="edge5" class="edge">
<title>Node4&#45;&gt;Node5</title>
<path fill="none" stroke="midnightblue" d="M227.43,-168.4C254.58,-155.77 306.99,-131.6 352,-112 378,-100.68 407.76,-88.32 429.45,-79.42"/>
<polygon fill="midnightblue" stroke="midnightblue" points="430.88,-82.62 438.81,-75.6 428.23,-76.14 430.88,-82.62"/>
</g>
<!-- Node7 -->
<g id="node7" class="node">
<title>Node7</title>
<g id="a_node7"><a xlink:title=" ">
<polygon fill="white" stroke="#bfbfbf" points="212,-0.5 212,-19.5 256,-19.5 256,-0.5 212,-0.5"/>
<text text-anchor="middle" x="234" y="-7.5" font-family="Helvetica,sans-Serif" font-size="10.00">string</text>
</a>
</g>
</g>
<!-- Node4&#45;&gt;Node7 -->
<g id="edge13" class="edge">
<title>Node4&#45;&gt;Node7</title>
<path fill="none" stroke="midnightblue" d="M189.7,-168.37C149.85,-149.35 64.86,-101.87 98,-56 121.49,-23.49 169.35,-14.08 201.56,-11.57"/>
<polygon fill="midnightblue" stroke="midnightblue" points="202.05,-15.05 211.83,-10.96 201.64,-8.06 202.05,-15.05"/>
</g>
<!-- Node4&#45;&gt;Node8 -->
<g id="edge8" class="edge">
<title>Node4&#45;&gt;Node8</title>
<path fill="none" stroke="midnightblue" d="M237.74,-168.92C270.35,-159.74 323.76,-144.72 360.56,-134.37"/>
<polygon fill="midnightblue" stroke="midnightblue" points="361.79,-137.66 370.47,-131.59 359.9,-130.92 361.79,-137.66"/>
</g>
<!-- Node10 -->
<g id="node10" class="node">
<title>Node10</title>
<g id="a_node10"><a xlink:title=" ">
<polygon fill="white" stroke="#bfbfbf" points="273,-56.5 273,-75.5 333,-75.5 333,-56.5 273,-56.5"/>
<text text-anchor="middle" x="303" y="-63.5" font-family="Helvetica,sans-Serif" font-size="10.00">iostream</text>
</a>
</g>
</g>
<!-- Node4&#45;&gt;Node10 -->
<g id="edge14" class="edge">
<title>Node4&#45;&gt;Node10</title>
<path fill="none" stroke="midnightblue" d="M216.38,-168.37C232.03,-150.05 268.78,-107.05 289.02,-83.36"/>
<polygon fill="midnightblue" stroke="midnightblue" points="291.82,-85.47 295.66,-75.59 286.5,-80.92 291.82,-85.47"/>
</g>
<!-- Node6 -->
<g id="node6" class="node">
<title>Node6</title>
<g id="a_node6"><a xlink:title=" ">
<polygon fill="white" stroke="#bfbfbf" points="416,-0.5 416,-19.5 504,-19.5 504,-0.5 416,-0.5"/>
<text text-anchor="middle" x="460" y="-7.5" font-family="Helvetica,sans-Serif" font-size="10.00">taglib_config.h</text>
</a>
</g>
</g>
<!-- Node5&#45;&gt;Node6 -->
<g id="edge6" class="edge">
<title>Node5&#45;&gt;Node6</title>
<path fill="none" stroke="midnightblue" d="M460,-56.08C460,-49.01 460,-38.86 460,-29.99"/>
<polygon fill="midnightblue" stroke="midnightblue" points="463.5,-29.75 460,-19.75 456.5,-29.75 463.5,-29.75"/>
</g>
<!-- Node5&#45;&gt;Node7 -->
<g id="edge7" class="edge">
<title>Node5&#45;&gt;Node7</title>
<path fill="none" stroke="midnightblue" d="M433.26,-58.06C430.47,-57.36 427.68,-56.66 425,-56 369.21,-42.26 304.04,-27.09 266.05,-18.34"/>
<polygon fill="midnightblue" stroke="midnightblue" points="266.62,-14.88 256.09,-16.05 265.05,-21.7 266.62,-14.88"/>
</g>
<!-- Node8&#45;&gt;Node3 -->
<g id="edge10" class="edge">
<title>Node8&#45;&gt;Node3</title>
<path fill="none" stroke="midnightblue" d="M361.55,-112.44C318.11,-103.02 248.21,-87.87 201.22,-77.68"/>
<polygon fill="midnightblue" stroke="midnightblue" points="201.78,-74.22 191.27,-75.52 200.3,-81.06 201.78,-74.22"/>
</g>
<!-- Node8&#45;&gt;Node5 -->
<g id="edge9" class="edge">
<title>Node8&#45;&gt;Node5</title>
<path fill="none" stroke="midnightblue" d="M410.48,-112.32C419.2,-104.34 432.34,-92.31 442.9,-82.65"/>
<polygon fill="midnightblue" stroke="midnightblue" points="445.33,-85.17 450.35,-75.83 440.61,-80 445.33,-85.17"/>
</g>
<!-- Node9 -->
<g id="node9" class="node">
<title>Node9</title>
<g id="a_node9"><a xlink:title=" ">
<polygon fill="white" stroke="#bfbfbf" points="368.5,-56.5 368.5,-75.5 415.5,-75.5 415.5,-56.5 368.5,-56.5"/>
<text text-anchor="middle" x="392" y="-63.5" font-family="Helvetica,sans-Serif" font-size="10.00">vector</text>
</a>
</g>
</g>
<!-- Node8&#45;&gt;Node9 -->
<g id="edge11" class="edge">
<title>Node8&#45;&gt;Node9</title>
<path fill="none" stroke="midnightblue" d="M399.51,-112.08C398.32,-104.93 396.61,-94.64 395.12,-85.69"/>
<polygon fill="midnightblue" stroke="midnightblue" points="398.55,-85.04 393.46,-75.75 391.65,-86.19 398.55,-85.04"/>
</g>
<!-- Node8&#45;&gt;Node10 -->
<g id="edge12" class="edge">
<title>Node8&#45;&gt;Node10</title>
<path fill="none" stroke="midnightblue" d="M385.25,-112.32C369.68,-103.74 345.62,-90.49 327.54,-80.52"/>
<polygon fill="midnightblue" stroke="midnightblue" points="329.15,-77.42 318.71,-75.65 325.78,-83.55 329.15,-77.42"/>
</g>
<!-- Node11&#45;&gt;Node5 -->
<g id="edge18" class="edge">
<title>Node11&#45;&gt;Node5</title>
<path fill="none" stroke="midnightblue" d="M587.8,-280.4C610.07,-269.34 641.81,-248.6 631,-224 600.9,-155.51 524.55,-103.8 484.84,-80.55"/>
<polygon fill="midnightblue" stroke="midnightblue" points="486.46,-77.44 476.04,-75.51 482.98,-83.51 486.46,-77.44"/>
</g>
<!-- Node12 -->
<g id="node12" class="node">
<title>Node12</title>
<g id="a_node12"><a xlink:title=" ">
<polygon fill="white" stroke="#bfbfbf" points="518,-224.5 518,-243.5 550,-243.5 550,-224.5 518,-224.5"/>
<text text-anchor="middle" x="534" y="-231.5" font-family="Helvetica,sans-Serif" font-size="10.00">list</text>
</a>
</g>
</g>
<!-- Node11&#45;&gt;Node12 -->
<g id="edge19" class="edge">
<title>Node11&#45;&gt;Node12</title>
<path fill="none" stroke="midnightblue" d="M562.39,-280.08C557.63,-272.53 550.68,-261.49 544.85,-252.23"/>
<polygon fill="midnightblue" stroke="midnightblue" points="547.8,-250.35 539.51,-243.75 541.88,-254.08 547.8,-250.35"/>
</g>
<!-- Node13 -->
<g id="node13" class="node">
<title>Node13</title>
<g id="a_node13"><a xlink:title=" ">
<polygon fill="white" stroke="#bfbfbf" points="568.5,-224.5 568.5,-243.5 621.5,-243.5 621.5,-224.5 568.5,-224.5"/>
<text text-anchor="middle" x="595" y="-231.5" font-family="Helvetica,sans-Serif" font-size="10.00">tlist.tcc</text>
</a>
</g>
</g>
<!-- Node11&#45;&gt;Node13 -->
<g id="edge20" class="edge">
<title>Node11&#45;&gt;Node13</title>
<path fill="none" stroke="midnightblue" d="M572.46,-280.08C576.15,-272.69 581.52,-261.95 586.09,-252.81"/>
<polygon fill="midnightblue" stroke="midnightblue" points="589.28,-254.26 590.62,-243.75 583.02,-251.13 589.28,-254.26"/>
</g>
<!-- Node14&#45;&gt;Node5 -->
<g id="edge23" class="edge">
<title>Node14&#45;&gt;Node5</title>
<path fill="none" stroke="midnightblue" d="M705.84,-280.23C688.67,-251.78 630.46,-161.06 559,-112 539.03,-98.29 514.2,-87.02 494.41,-79.18"/>
<polygon fill="midnightblue" stroke="midnightblue" points="495.45,-75.83 484.86,-75.51 492.93,-82.37 495.45,-75.83"/>
</g>
<!-- Node15 -->
<g id="node15" class="node">
<title>Node15</title>
<g id="a_node15"><a xlink:title=" ">
<polygon fill="white" stroke="#bfbfbf" points="716,-224.5 716,-243.5 754,-243.5 754,-224.5 716,-224.5"/>
<text text-anchor="middle" x="735" y="-231.5" font-family="Helvetica,sans-Serif" font-size="10.00">map</text>
</a>
</g>
</g>
<!-- Node14&#45;&gt;Node15 -->
<g id="edge22" class="edge">
<title>Node14&#45;&gt;Node15</title>
<path fill="none" stroke="midnightblue" d="M714.96,-280.08C718.21,-272.77 722.92,-262.18 726.95,-253.1"/>
<polygon fill="midnightblue" stroke="midnightblue" points="730.25,-254.31 731.11,-243.75 723.85,-251.47 730.25,-254.31"/>
</g>
<!-- Node16 -->
<g id="node16" class="node">
<title>Node16</title>
<g id="a_node16"><a xlink:title=" ">
<polygon fill="white" stroke="#bfbfbf" points="772.5,-224.5 772.5,-243.5 831.5,-243.5 831.5,-224.5 772.5,-224.5"/>
<text text-anchor="middle" x="802" y="-231.5" font-family="Helvetica,sans-Serif" font-size="10.00">tmap.tcc</text>
</a>
</g>
</g>
<!-- Node14&#45;&gt;Node16 -->
<g id="edge24" class="edge">
<title>Node14&#45;&gt;Node16</title>
<path fill="none" stroke="midnightblue" d="M725.62,-280.32C739.95,-271.82 762.01,-258.73 778.75,-248.8"/>
<polygon fill="midnightblue" stroke="midnightblue" points="780.6,-251.77 787.42,-243.65 777.03,-245.75 780.6,-251.77"/>
</g>
<!-- Node18&#45;&gt;Node3 -->
<g id="edge28" class="edge">
<title>Node18&#45;&gt;Node3</title>
<path fill="none" stroke="midnightblue" d="M285.26,-282.27C254.69,-276.31 218,-265.09 191,-244 142.26,-205.94 143.58,-173.75 147,-112 147.48,-103.36 148.47,-93.83 149.45,-85.77"/>
<polygon fill="midnightblue" stroke="midnightblue" points="152.95,-85.97 150.76,-75.6 146.01,-85.07 152.95,-85.97"/>
</g>
<!-- Node18&#45;&gt;Node8 -->
<g id="edge29" class="edge">
<title>Node18&#45;&gt;Node8</title>
<path fill="none" stroke="midnightblue" d="M355.93,-280.34C377.57,-264.89 420.03,-230.21 433,-188 435.61,-179.5 435.7,-176.47 433,-168 429.66,-157.54 422.9,-147.43 416.45,-139.45"/>
<polygon fill="midnightblue" stroke="midnightblue" points="418.94,-136.98 409.75,-131.71 413.65,-141.56 418.94,-136.98"/>
</g>
<!-- Node19 -->
<g id="node19" class="node">
<title>Node19</title>
<g id="a_node19"><a xlink:href="id3v2frame_8h.html" target="_top" xlink:title=" ">
<polygon fill="white" stroke="black" points="200,-224.5 200,-243.5 282,-243.5 282,-224.5 200,-224.5"/>
<text text-anchor="middle" x="241" y="-231.5" font-family="Helvetica,sans-Serif" font-size="10.00">id3v2frame.h</text>
</a>
</g>
</g>
<!-- Node18&#45;&gt;Node19 -->
<g id="edge30" class="edge">
<title>Node18&#45;&gt;Node19</title>
<path fill="none" stroke="midnightblue" d="M326.61,-280.32C310.33,-271.7 285.13,-258.36 266.28,-248.39"/>
<polygon fill="midnightblue" stroke="midnightblue" points="267.82,-245.24 257.35,-243.65 264.55,-251.43 267.82,-245.24"/>
</g>
<!-- Node20 -->
<g id="node20" class="node">
<title>Node20</title>
<g id="a_node20"><a xlink:href="id3v2header_8h.html" target="_top" xlink:title=" ">
<polygon fill="white" stroke="black" points="300,-224.5 300,-243.5 386,-243.5 386,-224.5 300,-224.5"/>
<text text-anchor="middle" x="343" y="-231.5" font-family="Helvetica,sans-Serif" font-size="10.00">id3v2header.h</text>
</a>
</g>
</g>
<!-- Node18&#45;&gt;Node20 -->
<g id="edge34" class="edge">
<title>Node18&#45;&gt;Node20</title>
<path fill="none" stroke="midnightblue" d="M343,-280.08C343,-273.01 343,-262.86 343,-253.99"/>
<polygon fill="midnightblue" stroke="midnightblue" points="346.5,-253.75 343,-243.75 339.5,-253.75 346.5,-253.75"/>
</g>
<!-- Node19&#45;&gt;Node3 -->
<g id="edge33" class="edge">
<title>Node19&#45;&gt;Node3</title>
<path fill="none" stroke="midnightblue" d="M218.38,-224.4C202.51,-217.15 182.2,-205.19 171,-188 150.56,-156.64 149.25,-111.19 150.42,-85.86"/>
<polygon fill="midnightblue" stroke="midnightblue" points="153.92,-85.97 151.08,-75.76 146.94,-85.51 153.92,-85.97"/>
</g>
<!-- Node19&#45;&gt;Node4 -->
<g id="edge31" class="edge">
<title>Node19&#45;&gt;Node4</title>
<path fill="none" stroke="midnightblue" d="M235.72,-224.08C231.29,-216.61 224.84,-205.72 219.38,-196.52"/>
<polygon fill="midnightblue" stroke="midnightblue" points="222.29,-194.57 214.19,-187.75 216.27,-198.14 222.29,-194.57"/>
</g>
<!-- Node19&#45;&gt;Node8 -->
<g id="edge32" class="edge">
<title>Node19&#45;&gt;Node8</title>
<path fill="none" stroke="midnightblue" d="M253.55,-224.37C280.89,-205.57 346.06,-160.77 379.86,-137.53"/>
<polygon fill="midnightblue" stroke="midnightblue" points="382.25,-140.14 388.5,-131.59 378.28,-134.37 382.25,-140.14"/>
</g>
<!-- Node20&#45;&gt;Node3 -->
<g id="edge36" class="edge">
<title>Node20&#45;&gt;Node3</title>
<path fill="none" stroke="midnightblue" d="M333,-224.31C302.32,-197.64 209.2,-116.72 169.86,-82.52"/>
<polygon fill="midnightblue" stroke="midnightblue" points="171.74,-79.52 161.9,-75.61 167.15,-84.81 171.74,-79.52"/>
</g>
<!-- Node20&#45;&gt;Node8 -->
<g id="edge35" class="edge">
<title>Node20&#45;&gt;Node8</title>
<path fill="none" stroke="midnightblue" d="M344.35,-224.13C346.59,-211.17 351.87,-186.58 362,-168 367.79,-157.38 376.43,-147.07 384.11,-139"/>
<polygon fill="midnightblue" stroke="midnightblue" points="386.76,-141.31 391.33,-131.75 381.79,-136.37 386.76,-141.31"/>
</g>
<!-- Node20&#45;&gt;Node17 -->
<g id="edge37" class="edge">
<title>Node20&#45;&gt;Node17</title>
<path fill="none" stroke="midnightblue" d="M351.92,-224.08C359.78,-216.22 371.43,-204.57 380.92,-195.08"/>
<polygon fill="midnightblue" stroke="midnightblue" points="383.65,-197.3 388.25,-187.75 378.7,-192.35 383.65,-197.3"/>
</g>
</g>
</svg>
