<?xml version="1.0" encoding="UTF-8" standalone="no"?>
<!DOCTYPE svg PUBLIC "-//W3C//DTD SVG 1.1//EN"
 "http://www.w3.org/Graphics/SVG/1.1/DTD/svg11.dtd">
<!-- Generated by graphviz version 2.46.1 (20210213.1702)
 -->
<!-- Title: id3v1genres.h Pages: 1 -->
<svg width="538pt" height="308pt"
 viewBox="0.00 0.00 537.72 308.00" xmlns="http://www.w3.org/2000/svg" xmlns:xlink="http://www.w3.org/1999/xlink">
<g id="graph0" class="graph" transform="scale(1 1) rotate(0) translate(4 304)">
<title>id3v1genres.h</title>
<polygon fill="white" stroke="transparent" points="-4,4 -4,-304 533.72,-304 533.72,4 -4,4"/>
<!-- Node1 -->
<g id="node1" class="node">
<title>Node1</title>
<g id="a_node1"><a xlink:title=" ">
<polygon fill="#bfbfbf" stroke="black" points="326,-280.5 326,-299.5 403,-299.5 403,-280.5 326,-280.5"/>
<text text-anchor="middle" x="364.5" y="-287.5" font-family="Helvetica,sans-Serif" font-size="10.00">id3v1genres.h</text>
</a>
</g>
</g>
<!-- Node2 -->
<g id="node2" class="node">
<title>Node2</title>
<g id="a_node2"><a xlink:href="tmap_8h.html" target="_top" xlink:title=" ">
<polygon fill="white" stroke="black" points="85,-224.5 85,-243.5 132,-243.5 132,-224.5 85,-224.5"/>
<text text-anchor="middle" x="108.5" y="-231.5" font-family="Helvetica,sans-Serif" font-size="10.00">tmap.h</text>
</a>
</g>
</g>
<!-- Node1&#45;&gt;Node2 -->
<g id="edge1" class="edge">
<title>Node1&#45;&gt;Node2</title>
<path fill="none" stroke="midnightblue" d="M325.9,-280.86C275.9,-270.31 189.56,-252.1 142.13,-242.09"/>
<polygon fill="midnightblue" stroke="midnightblue" points="142.57,-238.61 132.07,-239.97 141.13,-245.46 142.57,-238.61"/>
</g>
<!-- Node8 -->
<g id="node8" class="node">
<title>Node8</title>
<g id="a_node8"><a xlink:href="tstringlist_8h.html" target="_top" xlink:title=" ">
<polygon fill="white" stroke="black" points="332,-224.5 332,-243.5 397,-243.5 397,-224.5 332,-224.5"/>
<text text-anchor="middle" x="364.5" y="-231.5" font-family="Helvetica,sans-Serif" font-size="10.00">tstringlist.h</text>
</a>
</g>
</g>
<!-- Node1&#45;&gt;Node8 -->
<g id="edge7" class="edge">
<title>Node1&#45;&gt;Node8</title>
<path fill="none" stroke="midnightblue" d="M364.5,-280.08C364.5,-273.01 364.5,-262.86 364.5,-253.99"/>
<polygon fill="midnightblue" stroke="midnightblue" points="368,-253.75 364.5,-243.75 361,-253.75 368,-253.75"/>
</g>
<!-- Node10 -->
<g id="node10" class="node">
<title>Node10</title>
<g id="a_node10"><a xlink:href="taglib__export_8h.html" target="_top" xlink:title=" ">
<polygon fill="white" stroke="black" points="438.5,-56.5 438.5,-75.5 518.5,-75.5 518.5,-56.5 438.5,-56.5"/>
<text text-anchor="middle" x="478.5" y="-63.5" font-family="Helvetica,sans-Serif" font-size="10.00">taglib_export.h</text>
</a>
</g>
</g>
<!-- Node1&#45;&gt;Node10 -->
<g id="edge28" class="edge">
<title>Node1&#45;&gt;Node10</title>
<path fill="none" stroke="midnightblue" d="M380.03,-280.37C405.78,-265.21 457.12,-231.26 483.5,-188 501.34,-158.74 502.98,-145.65 496.5,-112 494.71,-102.7 491.02,-92.89 487.44,-84.8"/>
<polygon fill="midnightblue" stroke="midnightblue" points="490.56,-83.21 483.12,-75.66 484.23,-86.2 490.56,-83.21"/>
</g>
<!-- Node3 -->
<g id="node3" class="node">
<title>Node3</title>
<g id="a_node3"><a xlink:title=" ">
<polygon fill="white" stroke="#bfbfbf" points="0,-168.5 0,-187.5 35,-187.5 35,-168.5 0,-168.5"/>
<text text-anchor="middle" x="17.5" y="-175.5" font-family="Helvetica,sans-Serif" font-size="10.00">map</text>
</a>
</g>
</g>
<!-- Node2&#45;&gt;Node3 -->
<g id="edge2" class="edge">
<title>Node2&#45;&gt;Node3</title>
<path fill="none" stroke="midnightblue" d="M93.88,-224.32C79.55,-215.82 57.49,-202.73 40.75,-192.8"/>
<polygon fill="midnightblue" stroke="midnightblue" points="42.47,-189.75 32.08,-187.65 38.9,-195.77 42.47,-189.75"/>
</g>
<!-- Node4 -->
<g id="node4" class="node">
<title>Node4</title>
<g id="a_node4"><a xlink:href="taglib_8h.html" target="_top" xlink:title=" ">
<polygon fill="white" stroke="black" points="211.5,-56.5 211.5,-75.5 259.5,-75.5 259.5,-56.5 211.5,-56.5"/>
<text text-anchor="middle" x="235.5" y="-63.5" font-family="Helvetica,sans-Serif" font-size="10.00">taglib.h</text>
</a>
</g>
</g>
<!-- Node2&#45;&gt;Node4 -->
<g id="edge3" class="edge">
<title>Node2&#45;&gt;Node4</title>
<path fill="none" stroke="midnightblue" d="M109.8,-224.35C113.42,-202.95 125.38,-146.73 155.5,-112 167.86,-97.74 185.91,-87.05 201.73,-79.67"/>
<polygon fill="midnightblue" stroke="midnightblue" points="203.48,-82.73 211.23,-75.5 200.66,-76.32 203.48,-82.73"/>
</g>
<!-- Node7 -->
<g id="node7" class="node">
<title>Node7</title>
<g id="a_node7"><a xlink:title=" ">
<polygon fill="white" stroke="#bfbfbf" points="53,-168.5 53,-187.5 108,-187.5 108,-168.5 53,-168.5"/>
<text text-anchor="middle" x="80.5" y="-175.5" font-family="Helvetica,sans-Serif" font-size="10.00">tmap.tcc</text>
</a>
</g>
</g>
<!-- Node2&#45;&gt;Node7 -->
<g id="edge6" class="edge">
<title>Node2&#45;&gt;Node7</title>
<path fill="none" stroke="midnightblue" d="M103.88,-224.08C100.04,-216.69 94.48,-205.95 89.74,-196.81"/>
<polygon fill="midnightblue" stroke="midnightblue" points="92.75,-195.02 85.04,-187.75 86.53,-198.24 92.75,-195.02"/>
</g>
<!-- Node5 -->
<g id="node5" class="node">
<title>Node5</title>
<g id="a_node5"><a xlink:title=" ">
<polygon fill="white" stroke="#bfbfbf" points="195.5,-0.5 195.5,-19.5 275.5,-19.5 275.5,-0.5 195.5,-0.5"/>
<text text-anchor="middle" x="235.5" y="-7.5" font-family="Helvetica,sans-Serif" font-size="10.00">taglib_config.h</text>
</a>
</g>
</g>
<!-- Node4&#45;&gt;Node5 -->
<g id="edge4" class="edge">
<title>Node4&#45;&gt;Node5</title>
<path fill="none" stroke="midnightblue" d="M235.5,-56.08C235.5,-49.01 235.5,-38.86 235.5,-29.99"/>
<polygon fill="midnightblue" stroke="midnightblue" points="239,-29.75 235.5,-19.75 232,-29.75 239,-29.75"/>
</g>
<!-- Node6 -->
<g id="node6" class="node">
<title>Node6</title>
<g id="a_node6"><a xlink:title=" ">
<polygon fill="white" stroke="#bfbfbf" points="414,-0.5 414,-19.5 455,-19.5 455,-0.5 414,-0.5"/>
<text text-anchor="middle" x="434.5" y="-7.5" font-family="Helvetica,sans-Serif" font-size="10.00">string</text>
</a>
</g>
</g>
<!-- Node4&#45;&gt;Node6 -->
<g id="edge5" class="edge">
<title>Node4&#45;&gt;Node6</title>
<path fill="none" stroke="midnightblue" d="M259.65,-58.41C262.63,-57.6 265.63,-56.78 268.5,-56 315.69,-43.17 370.44,-28.34 403.76,-19.32"/>
<polygon fill="midnightblue" stroke="midnightblue" points="405.06,-22.59 413.79,-16.6 403.23,-15.84 405.06,-22.59"/>
</g>
<!-- Node9 -->
<g id="node9" class="node">
<title>Node9</title>
<g id="a_node9"><a xlink:href="tstring_8h.html" target="_top" xlink:title=" ">
<polygon fill="white" stroke="black" points="403.5,-168.5 403.5,-187.5 455.5,-187.5 455.5,-168.5 403.5,-168.5"/>
<text text-anchor="middle" x="429.5" y="-175.5" font-family="Helvetica,sans-Serif" font-size="10.00">tstring.h</text>
</a>
</g>
</g>
<!-- Node8&#45;&gt;Node9 -->
<g id="edge8" class="edge">
<title>Node8&#45;&gt;Node9</title>
<path fill="none" stroke="midnightblue" d="M374.94,-224.32C384.65,-216.26 399.32,-204.08 411,-194.37"/>
<polygon fill="midnightblue" stroke="midnightblue" points="413.41,-196.92 418.87,-187.83 408.94,-191.53 413.41,-196.92"/>
</g>
<!-- Node8&#45;&gt;Node10 -->
<g id="edge26" class="edge">
<title>Node8&#45;&gt;Node10</title>
<path fill="none" stroke="midnightblue" d="M397.14,-226.9C419.67,-220.92 448.36,-209.45 464.5,-188 487.09,-157.97 485.06,-111.33 481.71,-85.6"/>
<polygon fill="midnightblue" stroke="midnightblue" points="485.17,-85.05 480.21,-75.68 478.25,-86.09 485.17,-85.05"/>
</g>
<!-- Node13 -->
<g id="node13" class="node">
<title>Node13</title>
<g id="a_node13"><a xlink:title=" ">
<polygon fill="white" stroke="#bfbfbf" points="339.5,-56.5 339.5,-75.5 393.5,-75.5 393.5,-56.5 339.5,-56.5"/>
<text text-anchor="middle" x="366.5" y="-63.5" font-family="Helvetica,sans-Serif" font-size="10.00">iostream</text>
</a>
</g>
</g>
<!-- Node8&#45;&gt;Node13 -->
<g id="edge27" class="edge">
<title>Node8&#45;&gt;Node13</title>
<path fill="none" stroke="midnightblue" d="M364.61,-224.08C364.92,-197.95 365.85,-121.21 366.28,-85.58"/>
<polygon fill="midnightblue" stroke="midnightblue" points="369.78,-85.61 366.4,-75.57 362.78,-85.53 369.78,-85.61"/>
</g>
<!-- Node14 -->
<g id="node14" class="node">
<title>Node14</title>
<g id="a_node14"><a xlink:href="tlist_8h.html" target="_top" xlink:title=" ">
<polygon fill="white" stroke="black" points="165,-112.5 165,-131.5 206,-131.5 206,-112.5 165,-112.5"/>
<text text-anchor="middle" x="185.5" y="-119.5" font-family="Helvetica,sans-Serif" font-size="10.00">tlist.h</text>
</a>
</g>
</g>
<!-- Node8&#45;&gt;Node14 -->
<g id="edge18" class="edge">
<title>Node8&#45;&gt;Node14</title>
<path fill="none" stroke="midnightblue" d="M331.81,-225.88C305.71,-219.11 269.08,-207.08 241.5,-188 223.01,-175.21 206.86,-154.91 196.71,-140.39"/>
<polygon fill="midnightblue" stroke="midnightblue" points="199.44,-138.17 190.95,-131.83 193.63,-142.08 199.44,-138.17"/>
</g>
<!-- Node17 -->
<g id="node17" class="node">
<title>Node17</title>
<g id="a_node17"><a xlink:href="tbytevectorlist_8h.html" target="_top" xlink:title=" ">
<polygon fill="white" stroke="black" points="250.5,-168.5 250.5,-187.5 336.5,-187.5 336.5,-168.5 250.5,-168.5"/>
<text text-anchor="middle" x="293.5" y="-175.5" font-family="Helvetica,sans-Serif" font-size="10.00">tbytevectorlist.h</text>
</a>
</g>
</g>
<!-- Node8&#45;&gt;Node17 -->
<g id="edge22" class="edge">
<title>Node8&#45;&gt;Node17</title>
<path fill="none" stroke="midnightblue" d="M353.09,-224.32C342.39,-216.18 326.16,-203.84 313.34,-194.09"/>
<polygon fill="midnightblue" stroke="midnightblue" points="315.19,-191.1 305.11,-187.83 310.96,-196.67 315.19,-191.1"/>
</g>
<!-- Node9&#45;&gt;Node4 -->
<g id="edge10" class="edge">
<title>Node9&#45;&gt;Node4</title>
<path fill="none" stroke="midnightblue" d="M403.16,-173.45C359.69,-167.09 275.63,-152.45 254.5,-132 242.1,-120 237.67,-100.4 236.15,-85.85"/>
<polygon fill="midnightblue" stroke="midnightblue" points="239.62,-85.25 235.46,-75.51 232.64,-85.72 239.62,-85.25"/>
</g>
<!-- Node9&#45;&gt;Node6 -->
<g id="edge16" class="edge">
<title>Node9&#45;&gt;Node6</title>
<path fill="none" stroke="midnightblue" d="M442.92,-168.42C465.48,-153.08 510.24,-118.57 527.5,-76 539.85,-45.53 496.55,-27.16 464.92,-18.06"/>
<polygon fill="midnightblue" stroke="midnightblue" points="465.72,-14.65 455.15,-15.43 463.9,-21.41 465.72,-14.65"/>
</g>
<!-- Node9&#45;&gt;Node10 -->
<g id="edge9" class="edge">
<title>Node9&#45;&gt;Node10</title>
<path fill="none" stroke="midnightblue" d="M434.89,-168.24C440.26,-159.32 448.53,-145 454.5,-132 461.56,-116.63 468.1,-98.53 472.57,-85.34"/>
<polygon fill="midnightblue" stroke="midnightblue" points="475.98,-86.18 475.8,-75.58 469.33,-83.98 475.98,-86.18"/>
</g>
<!-- Node11 -->
<g id="node11" class="node">
<title>Node11</title>
<g id="a_node11"><a xlink:href="tbytevector_8h.html" target="_top" xlink:title=" ">
<polygon fill="white" stroke="black" points="263,-112.5 263,-131.5 336,-131.5 336,-112.5 263,-112.5"/>
<text text-anchor="middle" x="299.5" y="-119.5" font-family="Helvetica,sans-Serif" font-size="10.00">tbytevector.h</text>
</a>
</g>
</g>
<!-- Node9&#45;&gt;Node11 -->
<g id="edge11" class="edge">
<title>Node9&#45;&gt;Node11</title>
<path fill="none" stroke="midnightblue" d="M408.9,-168.44C387.51,-159.56 353.82,-145.56 329.48,-135.45"/>
<polygon fill="midnightblue" stroke="midnightblue" points="330.58,-132.12 320,-131.52 327.89,-138.58 330.58,-132.12"/>
</g>
<!-- Node9&#45;&gt;Node13 -->
<g id="edge17" class="edge">
<title>Node9&#45;&gt;Node13</title>
<path fill="none" stroke="midnightblue" d="M424.56,-168.37C414.21,-150.3 390.08,-108.18 376.41,-84.31"/>
<polygon fill="midnightblue" stroke="midnightblue" points="379.43,-82.53 371.42,-75.59 373.35,-86.01 379.43,-82.53"/>
</g>
<!-- Node11&#45;&gt;Node4 -->
<g id="edge12" class="edge">
<title>Node11&#45;&gt;Node4</title>
<path fill="none" stroke="midnightblue" d="M289.22,-112.32C279.66,-104.26 265.22,-92.08 253.72,-82.37"/>
<polygon fill="midnightblue" stroke="midnightblue" points="255.87,-79.61 245.97,-75.83 251.36,-84.96 255.87,-79.61"/>
</g>
<!-- Node11&#45;&gt;Node10 -->
<g id="edge13" class="edge">
<title>Node11&#45;&gt;Node10</title>
<path fill="none" stroke="midnightblue" d="M327.86,-112.44C358.24,-103.28 406.61,-88.69 440.32,-78.52"/>
<polygon fill="midnightblue" stroke="midnightblue" points="441.71,-81.76 450.27,-75.52 439.68,-75.05 441.71,-81.76"/>
</g>
<!-- Node12 -->
<g id="node12" class="node">
<title>Node12</title>
<g id="a_node12"><a xlink:title=" ">
<polygon fill="white" stroke="#bfbfbf" points="277.5,-56.5 277.5,-75.5 321.5,-75.5 321.5,-56.5 277.5,-56.5"/>
<text text-anchor="middle" x="299.5" y="-63.5" font-family="Helvetica,sans-Serif" font-size="10.00">vector</text>
</a>
</g>
</g>
<!-- Node11&#45;&gt;Node12 -->
<g id="edge14" class="edge">
<title>Node11&#45;&gt;Node12</title>
<path fill="none" stroke="midnightblue" d="M299.5,-112.08C299.5,-105.01 299.5,-94.86 299.5,-85.99"/>
<polygon fill="midnightblue" stroke="midnightblue" points="303,-85.75 299.5,-75.75 296,-85.75 303,-85.75"/>
</g>
<!-- Node11&#45;&gt;Node13 -->
<g id="edge15" class="edge">
<title>Node11&#45;&gt;Node13</title>
<path fill="none" stroke="midnightblue" d="M310.26,-112.32C320.27,-104.26 335.39,-92.08 347.43,-82.37"/>
<polygon fill="midnightblue" stroke="midnightblue" points="349.95,-84.83 355.54,-75.83 345.56,-79.38 349.95,-84.83"/>
</g>
<!-- Node14&#45;&gt;Node4 -->
<g id="edge19" class="edge">
<title>Node14&#45;&gt;Node4</title>
<path fill="none" stroke="midnightblue" d="M193.76,-112.08C200.96,-104.3 211.61,-92.8 220.35,-83.37"/>
<polygon fill="midnightblue" stroke="midnightblue" points="223.17,-85.47 227.4,-75.75 218.03,-80.71 223.17,-85.47"/>
</g>
<!-- Node15 -->
<g id="node15" class="node">
<title>Node15</title>
<g id="a_node15"><a xlink:title=" ">
<polygon fill="white" stroke="#bfbfbf" points="97,-56.5 97,-75.5 126,-75.5 126,-56.5 97,-56.5"/>
<text text-anchor="middle" x="111.5" y="-63.5" font-family="Helvetica,sans-Serif" font-size="10.00">list</text>
</a>
</g>
</g>
<!-- Node14&#45;&gt;Node15 -->
<g id="edge20" class="edge">
<title>Node14&#45;&gt;Node15</title>
<path fill="none" stroke="midnightblue" d="M173.61,-112.32C162.35,-104.11 145.21,-91.6 131.79,-81.81"/>
<polygon fill="midnightblue" stroke="midnightblue" points="133.75,-78.9 123.61,-75.83 129.62,-84.56 133.75,-78.9"/>
</g>
<!-- Node16 -->
<g id="node16" class="node">
<title>Node16</title>
<g id="a_node16"><a xlink:title=" ">
<polygon fill="white" stroke="#bfbfbf" points="144,-56.5 144,-75.5 193,-75.5 193,-56.5 144,-56.5"/>
<text text-anchor="middle" x="168.5" y="-63.5" font-family="Helvetica,sans-Serif" font-size="10.00">tlist.tcc</text>
</a>
</g>
</g>
<!-- Node14&#45;&gt;Node16 -->
<g id="edge21" class="edge">
<title>Node14&#45;&gt;Node16</title>
<path fill="none" stroke="midnightblue" d="M182.69,-112.08C180.42,-104.85 177.13,-94.41 174.29,-85.4"/>
<polygon fill="midnightblue" stroke="midnightblue" points="177.6,-84.24 171.25,-75.75 170.92,-86.34 177.6,-84.24"/>
</g>
<!-- Node17&#45;&gt;Node10 -->
<g id="edge23" class="edge">
<title>Node17&#45;&gt;Node10</title>
<path fill="none" stroke="midnightblue" d="M308.02,-168.37C339.9,-149.41 416.27,-104 455.05,-80.94"/>
<polygon fill="midnightblue" stroke="midnightblue" points="457.24,-83.71 464.05,-75.59 453.67,-77.69 457.24,-83.71"/>
</g>
<!-- Node17&#45;&gt;Node11 -->
<g id="edge24" class="edge">
<title>Node17&#45;&gt;Node11</title>
<path fill="none" stroke="midnightblue" d="M294.49,-168.08C295.29,-160.93 296.43,-150.64 297.42,-141.69"/>
<polygon fill="midnightblue" stroke="midnightblue" points="300.9,-142.08 298.53,-131.75 293.94,-141.3 300.9,-142.08"/>
</g>
<!-- Node17&#45;&gt;Node14 -->
<g id="edge25" class="edge">
<title>Node17&#45;&gt;Node14</title>
<path fill="none" stroke="midnightblue" d="M276.15,-168.32C258.83,-159.66 231.98,-146.24 212,-136.25"/>
<polygon fill="midnightblue" stroke="midnightblue" points="213.32,-133 202.81,-131.65 210.19,-139.26 213.32,-133"/>
</g>
</g>
</svg>
