<?xml version="1.0" encoding="UTF-8" standalone="no"?>
<!DOCTYPE svg PUBLIC "-//W3C//DTD SVG 1.1//EN"
 "http://www.w3.org/Graphics/SVG/1.1/DTD/svg11.dtd">
<!-- Generated by graphviz version 2.46.1 (20210213.1702)
 -->
<!-- Title: id3v2header.h Pages: 1 -->
<svg width="288pt" height="196pt"
 viewBox="0.00 0.00 288.00 196.00" xmlns="http://www.w3.org/2000/svg" xmlns:xlink="http://www.w3.org/1999/xlink">
<g id="graph0" class="graph" transform="scale(1 1) rotate(0) translate(4 192)">
<title>id3v2header.h</title>
<polygon fill="white" stroke="transparent" points="-4,4 -4,-192 284,-192 284,4 -4,4"/>
<!-- Node1 -->
<g id="node1" class="node">
<title>Node1</title>
<g id="a_node1"><a xlink:title=" ">
<polygon fill="#bfbfbf" stroke="black" points="83.5,-168.5 83.5,-187.5 160.5,-187.5 160.5,-168.5 83.5,-168.5"/>
<text text-anchor="middle" x="122" y="-175.5" font-family="Helvetica,sans-Serif" font-size="10.00">id3v2header.h</text>
</a>
</g>
</g>
<!-- Node2 -->
<g id="node2" class="node">
<title>Node2</title>
<g id="a_node2"><a xlink:href="tbytevector_8h.html" target="_top" xlink:title=" ">
<polygon fill="white" stroke="black" points="85.5,-112.5 85.5,-131.5 158.5,-131.5 158.5,-112.5 85.5,-112.5"/>
<text text-anchor="middle" x="122" y="-119.5" font-family="Helvetica,sans-Serif" font-size="10.00">tbytevector.h</text>
</a>
</g>
</g>
<!-- Node1&#45;&gt;Node2 -->
<g id="edge1" class="edge">
<title>Node1&#45;&gt;Node2</title>
<path fill="none" stroke="midnightblue" d="M122,-168.08C122,-161.01 122,-150.86 122,-141.99"/>
<polygon fill="midnightblue" stroke="midnightblue" points="125.5,-141.75 122,-131.75 118.5,-141.75 125.5,-141.75"/>
</g>
<!-- Node6 -->
<g id="node6" class="node">
<title>Node6</title>
<g id="a_node6"><a xlink:href="taglib__export_8h.html" target="_top" xlink:title=" ">
<polygon fill="white" stroke="black" points="0,-56.5 0,-75.5 80,-75.5 80,-56.5 0,-56.5"/>
<text text-anchor="middle" x="40" y="-63.5" font-family="Helvetica,sans-Serif" font-size="10.00">taglib_export.h</text>
</a>
</g>
</g>
<!-- Node1&#45;&gt;Node6 -->
<g id="edge8" class="edge">
<title>Node1&#45;&gt;Node6</title>
<path fill="none" stroke="midnightblue" d="M111.64,-168.44C101.71,-159.89 86.7,-146.04 76,-132 64.79,-117.28 54.84,-98.65 48.26,-85.11"/>
<polygon fill="midnightblue" stroke="midnightblue" points="51.34,-83.45 43.91,-75.9 45.01,-86.44 51.34,-83.45"/>
</g>
<!-- Node9 -->
<g id="node9" class="node">
<title>Node9</title>
<g id="a_node9"><a xlink:href="id3v2_8h.html" target="_top" xlink:title=" ">
<polygon fill="white" stroke="black" points="177,-112.5 177,-131.5 225,-131.5 225,-112.5 177,-112.5"/>
<text text-anchor="middle" x="201" y="-119.5" font-family="Helvetica,sans-Serif" font-size="10.00">id3v2.h</text>
</a>
</g>
</g>
<!-- Node1&#45;&gt;Node9 -->
<g id="edge9" class="edge">
<title>Node1&#45;&gt;Node9</title>
<path fill="none" stroke="midnightblue" d="M134.69,-168.32C146.9,-159.98 165.58,-147.21 180,-137.35"/>
<polygon fill="midnightblue" stroke="midnightblue" points="182.06,-140.19 188.34,-131.65 178.11,-134.41 182.06,-140.19"/>
</g>
<!-- Node3 -->
<g id="node3" class="node">
<title>Node3</title>
<g id="a_node3"><a xlink:href="taglib_8h.html" target="_top" xlink:title=" ">
<polygon fill="white" stroke="black" points="98,-56.5 98,-75.5 146,-75.5 146,-56.5 98,-56.5"/>
<text text-anchor="middle" x="122" y="-63.5" font-family="Helvetica,sans-Serif" font-size="10.00">taglib.h</text>
</a>
</g>
</g>
<!-- Node2&#45;&gt;Node3 -->
<g id="edge2" class="edge">
<title>Node2&#45;&gt;Node3</title>
<path fill="none" stroke="midnightblue" d="M122,-112.08C122,-105.01 122,-94.86 122,-85.99"/>
<polygon fill="midnightblue" stroke="midnightblue" points="125.5,-85.75 122,-75.75 118.5,-85.75 125.5,-85.75"/>
</g>
<!-- Node2&#45;&gt;Node6 -->
<g id="edge5" class="edge">
<title>Node2&#45;&gt;Node6</title>
<path fill="none" stroke="midnightblue" d="M108.83,-112.32C96.15,-103.98 76.77,-91.21 61.79,-81.35"/>
<polygon fill="midnightblue" stroke="midnightblue" points="63.42,-78.23 53.14,-75.65 59.57,-84.08 63.42,-78.23"/>
</g>
<!-- Node7 -->
<g id="node7" class="node">
<title>Node7</title>
<g id="a_node7"><a xlink:title=" ">
<polygon fill="white" stroke="#bfbfbf" points="164,-56.5 164,-75.5 208,-75.5 208,-56.5 164,-56.5"/>
<text text-anchor="middle" x="186" y="-63.5" font-family="Helvetica,sans-Serif" font-size="10.00">vector</text>
</a>
</g>
</g>
<!-- Node2&#45;&gt;Node7 -->
<g id="edge6" class="edge">
<title>Node2&#45;&gt;Node7</title>
<path fill="none" stroke="midnightblue" d="M132.28,-112.32C141.84,-104.26 156.28,-92.08 167.78,-82.37"/>
<polygon fill="midnightblue" stroke="midnightblue" points="170.14,-84.96 175.53,-75.83 165.63,-79.61 170.14,-84.96"/>
</g>
<!-- Node8 -->
<g id="node8" class="node">
<title>Node8</title>
<g id="a_node8"><a xlink:title=" ">
<polygon fill="white" stroke="#bfbfbf" points="226,-56.5 226,-75.5 280,-75.5 280,-56.5 226,-56.5"/>
<text text-anchor="middle" x="253" y="-63.5" font-family="Helvetica,sans-Serif" font-size="10.00">iostream</text>
</a>
</g>
</g>
<!-- Node2&#45;&gt;Node8 -->
<g id="edge7" class="edge">
<title>Node2&#45;&gt;Node8</title>
<path fill="none" stroke="midnightblue" d="M142.76,-112.44C164.32,-103.56 198.26,-89.56 222.79,-79.45"/>
<polygon fill="midnightblue" stroke="midnightblue" points="224.43,-82.56 232.34,-75.52 221.76,-76.09 224.43,-82.56"/>
</g>
<!-- Node4 -->
<g id="node4" class="node">
<title>Node4</title>
<g id="a_node4"><a xlink:title=" ">
<polygon fill="white" stroke="#bfbfbf" points="43,-0.5 43,-19.5 123,-19.5 123,-0.5 43,-0.5"/>
<text text-anchor="middle" x="83" y="-7.5" font-family="Helvetica,sans-Serif" font-size="10.00">taglib_config.h</text>
</a>
</g>
</g>
<!-- Node3&#45;&gt;Node4 -->
<g id="edge3" class="edge">
<title>Node3&#45;&gt;Node4</title>
<path fill="none" stroke="midnightblue" d="M115.56,-56.08C110.05,-48.46 101.97,-37.26 95.24,-27.94"/>
<polygon fill="midnightblue" stroke="midnightblue" points="98.01,-25.81 89.32,-19.75 92.34,-29.91 98.01,-25.81"/>
</g>
<!-- Node5 -->
<g id="node5" class="node">
<title>Node5</title>
<g id="a_node5"><a xlink:title=" ">
<polygon fill="white" stroke="#bfbfbf" points="141.5,-0.5 141.5,-19.5 182.5,-19.5 182.5,-0.5 141.5,-0.5"/>
<text text-anchor="middle" x="162" y="-7.5" font-family="Helvetica,sans-Serif" font-size="10.00">string</text>
</a>
</g>
</g>
<!-- Node3&#45;&gt;Node5 -->
<g id="edge4" class="edge">
<title>Node3&#45;&gt;Node5</title>
<path fill="none" stroke="midnightblue" d="M128.61,-56.08C134.26,-48.46 142.54,-37.26 149.45,-27.94"/>
<polygon fill="midnightblue" stroke="midnightblue" points="152.38,-29.87 155.52,-19.75 146.75,-25.7 152.38,-29.87"/>
</g>
</g>
</svg>
