<?xml version="1.0" encoding="UTF-8" standalone="no"?>
<!DOCTYPE svg PUBLIC "-//W3C//DTD SVG 1.1//EN"
 "http://www.w3.org/Graphics/SVG/1.1/DTD/svg11.dtd">
<!-- Generated by graphviz version 2.46.1 (20210213.1702)
 -->
<!-- Title: id3v2frame.h Pages: 1 -->
<svg width="2130pt" height="308pt"
 viewBox="0.00 0.00 2129.50 308.00" xmlns="http://www.w3.org/2000/svg" xmlns:xlink="http://www.w3.org/1999/xlink">
<g id="graph0" class="graph" transform="scale(1 1) rotate(0) translate(4 304)">
<title>id3v2frame.h</title>
<polygon fill="white" stroke="transparent" points="-4,4 -4,-304 2125.5,-304 2125.5,4 -4,4"/>
<!-- Node1 -->
<g id="node1" class="node">
<title>Node1</title>
<g id="a_node1"><a xlink:title=" ">
<polygon fill="#bfbfbf" stroke="black" points="951.5,-280.5 951.5,-299.5 1024.5,-299.5 1024.5,-280.5 951.5,-280.5"/>
<text text-anchor="middle" x="988" y="-287.5" font-family="Helvetica,sans-Serif" font-size="10.00">id3v2frame.h</text>
</a>
</g>
</g>
<!-- Node2 -->
<g id="node2" class="node">
<title>Node2</title>
<g id="a_node2"><a xlink:href="attachedpictureframe_8h.html" target="_top" xlink:title=" ">
<polygon fill="white" stroke="black" points="0,-224.5 0,-243.5 116,-243.5 116,-224.5 0,-224.5"/>
<text text-anchor="middle" x="58" y="-231.5" font-family="Helvetica,sans-Serif" font-size="10.00">attachedpictureframe.h</text>
</a>
</g>
</g>
<!-- Node1&#45;&gt;Node2 -->
<g id="edge1" class="edge">
<title>Node1&#45;&gt;Node2</title>
<path fill="none" stroke="midnightblue" d="M940.9,-287.66C811.52,-283.72 439.87,-270.78 132,-244 126.84,-243.55 121.49,-243.02 116.13,-242.45"/>
<polygon fill="midnightblue" stroke="midnightblue" points="941.13,-291.17 951.23,-287.97 941.34,-284.17 941.13,-291.17"/>
</g>
<!-- Node7 -->
<g id="node7" class="node">
<title>Node7</title>
<g id="a_node7"><a xlink:href="chapterframe_8h.html" target="_top" xlink:title=" ">
<polygon fill="white" stroke="black" points="104,-112.5 104,-131.5 186,-131.5 186,-112.5 104,-112.5"/>
<text text-anchor="middle" x="145" y="-119.5" font-family="Helvetica,sans-Serif" font-size="10.00">chapterframe.h</text>
</a>
</g>
</g>
<!-- Node1&#45;&gt;Node7 -->
<g id="edge6" class="edge">
<title>Node1&#45;&gt;Node7</title>
<path fill="none" stroke="midnightblue" d="M941.23,-288.01C771.62,-284.24 197.25,-269.59 168,-244 134.85,-214.99 140.16,-154.32 143.5,-131.72"/>
<polygon fill="midnightblue" stroke="midnightblue" points="941.27,-291.52 951.34,-288.24 941.42,-284.52 941.27,-291.52"/>
</g>
<!-- Node8 -->
<g id="node8" class="node">
<title>Node8</title>
<g id="a_node8"><a xlink:href="commentsframe_8h.html" target="_top" xlink:title=" ">
<polygon fill="white" stroke="black" points="335.5,-224.5 335.5,-243.5 430.5,-243.5 430.5,-224.5 335.5,-224.5"/>
<text text-anchor="middle" x="383" y="-231.5" font-family="Helvetica,sans-Serif" font-size="10.00">commentsframe.h</text>
</a>
</g>
</g>
<!-- Node1&#45;&gt;Node8 -->
<g id="edge7" class="edge">
<title>Node1&#45;&gt;Node8</title>
<path fill="none" stroke="midnightblue" d="M941.23,-286.34C846.45,-280.69 625,-266.17 440,-244 436.92,-243.63 433.74,-243.22 430.55,-242.78"/>
<polygon fill="midnightblue" stroke="midnightblue" points="941.16,-289.84 951.35,-286.94 941.57,-282.86 941.16,-289.84"/>
</g>
<!-- Node9 -->
<g id="node9" class="node">
<title>Node9</title>
<g id="a_node9"><a xlink:href="eventtimingcodesframe_8h.html" target="_top" xlink:title=" ">
<polygon fill="white" stroke="black" points="449,-224.5 449,-243.5 575,-243.5 575,-224.5 449,-224.5"/>
<text text-anchor="middle" x="512" y="-231.5" font-family="Helvetica,sans-Serif" font-size="10.00">eventtimingcodesframe.h</text>
</a>
</g>
</g>
<!-- Node1&#45;&gt;Node9 -->
<g id="edge8" class="edge">
<title>Node1&#45;&gt;Node9</title>
<path fill="none" stroke="midnightblue" d="M941.23,-283.95C866.1,-275.81 713.88,-259.14 585,-244 581.83,-243.63 578.58,-243.24 575.3,-242.85"/>
<polygon fill="midnightblue" stroke="midnightblue" points="940.99,-287.45 951.31,-285.05 941.75,-280.49 940.99,-287.45"/>
</g>
<!-- Node10 -->
<g id="node10" class="node">
<title>Node10</title>
<g id="a_node10"><a xlink:href="generalencapsulatedobjectframe_8h.html" target="_top" xlink:title=" ">
<polygon fill="white" stroke="black" points="593.5,-224.5 593.5,-243.5 758.5,-243.5 758.5,-224.5 593.5,-224.5"/>
<text text-anchor="middle" x="676" y="-231.5" font-family="Helvetica,sans-Serif" font-size="10.00">generalencapsulatedobjectframe.h</text>
</a>
</g>
</g>
<!-- Node1&#45;&gt;Node10 -->
<g id="edge9" class="edge">
<title>Node1&#45;&gt;Node10</title>
<path fill="none" stroke="midnightblue" d="M941.28,-280.91C883.15,-270.85 784.34,-253.75 725.12,-243.5"/>
<polygon fill="midnightblue" stroke="midnightblue" points="940.84,-284.39 951.29,-282.65 942.04,-277.49 940.84,-284.39"/>
</g>
<!-- Node11 -->
<g id="node11" class="node">
<title>Node11</title>
<g id="a_node11"><a xlink:href="ownershipframe_8h.html" target="_top" xlink:title=" ">
<polygon fill="white" stroke="black" points="777,-224.5 777,-243.5 871,-243.5 871,-224.5 777,-224.5"/>
<text text-anchor="middle" x="824" y="-231.5" font-family="Helvetica,sans-Serif" font-size="10.00">ownershipframe.h</text>
</a>
</g>
</g>
<!-- Node1&#45;&gt;Node11 -->
<g id="edge10" class="edge">
<title>Node1&#45;&gt;Node11</title>
<path fill="none" stroke="midnightblue" d="M952.48,-277.3C921.58,-267.13 877.53,-252.62 849.86,-243.52"/>
<polygon fill="midnightblue" stroke="midnightblue" points="951.42,-280.64 962.01,-280.44 953.61,-273.99 951.42,-280.64"/>
</g>
<!-- Node12 -->
<g id="node12" class="node">
<title>Node12</title>
<g id="a_node12"><a xlink:href="podcastframe_8h.html" target="_top" xlink:title=" ">
<polygon fill="white" stroke="black" points="889,-224.5 889,-243.5 973,-243.5 973,-224.5 889,-224.5"/>
<text text-anchor="middle" x="931" y="-231.5" font-family="Helvetica,sans-Serif" font-size="10.00">podcastframe.h</text>
</a>
</g>
</g>
<!-- Node1&#45;&gt;Node12 -->
<g id="edge11" class="edge">
<title>Node1&#45;&gt;Node12</title>
<path fill="none" stroke="midnightblue" d="M971.38,-273.25C961.27,-263.67 948.72,-251.79 940.32,-243.83"/>
<polygon fill="midnightblue" stroke="midnightblue" points="969.18,-275.99 978.84,-280.32 973.99,-270.91 969.18,-275.99"/>
</g>
<!-- Node13 -->
<g id="node13" class="node">
<title>Node13</title>
<g id="a_node13"><a xlink:href="popularimeterframe_8h.html" target="_top" xlink:title=" ">
<polygon fill="white" stroke="black" points="991,-224.5 991,-243.5 1099,-243.5 1099,-224.5 991,-224.5"/>
<text text-anchor="middle" x="1045" y="-231.5" font-family="Helvetica,sans-Serif" font-size="10.00">popularimeterframe.h</text>
</a>
</g>
</g>
<!-- Node1&#45;&gt;Node13 -->
<g id="edge12" class="edge">
<title>Node1&#45;&gt;Node13</title>
<path fill="none" stroke="midnightblue" d="M1004.62,-273.25C1014.73,-263.67 1027.28,-251.79 1035.68,-243.83"/>
<polygon fill="midnightblue" stroke="midnightblue" points="1002.01,-270.91 997.16,-280.32 1006.82,-275.99 1002.01,-270.91"/>
</g>
<!-- Node14 -->
<g id="node14" class="node">
<title>Node14</title>
<g id="a_node14"><a xlink:href="privateframe_8h.html" target="_top" xlink:title=" ">
<polygon fill="white" stroke="black" points="1117.5,-224.5 1117.5,-243.5 1196.5,-243.5 1196.5,-224.5 1117.5,-224.5"/>
<text text-anchor="middle" x="1157" y="-231.5" font-family="Helvetica,sans-Serif" font-size="10.00">privateframe.h</text>
</a>
</g>
</g>
<!-- Node1&#45;&gt;Node14 -->
<g id="edge13" class="edge">
<title>Node1&#45;&gt;Node14</title>
<path fill="none" stroke="midnightblue" d="M1024.6,-277.3C1056.45,-267.13 1101.84,-252.62 1130.35,-243.52"/>
<polygon fill="midnightblue" stroke="midnightblue" points="1023.24,-274.07 1014.78,-280.44 1025.37,-280.73 1023.24,-274.07"/>
</g>
<!-- Node15 -->
<g id="node15" class="node">
<title>Node15</title>
<g id="a_node15"><a xlink:href="relativevolumeframe_8h.html" target="_top" xlink:title=" ">
<polygon fill="white" stroke="black" points="1214.5,-224.5 1214.5,-243.5 1327.5,-243.5 1327.5,-224.5 1214.5,-224.5"/>
<text text-anchor="middle" x="1271" y="-231.5" font-family="Helvetica,sans-Serif" font-size="10.00">relativevolumeframe.h</text>
</a>
</g>
</g>
<!-- Node1&#45;&gt;Node15 -->
<g id="edge14" class="edge">
<title>Node1&#45;&gt;Node15</title>
<path fill="none" stroke="midnightblue" d="M1034.56,-280.12C1087.73,-269.97 1174.11,-253.49 1226.44,-243.5"/>
<polygon fill="midnightblue" stroke="midnightblue" points="1033.87,-276.68 1024.71,-282 1035.19,-283.56 1033.87,-276.68"/>
</g>
<!-- Node16 -->
<g id="node16" class="node">
<title>Node16</title>
<g id="a_node16"><a xlink:href="synchronizedlyricsframe_8h.html" target="_top" xlink:title=" ">
<polygon fill="white" stroke="black" points="1345.5,-224.5 1345.5,-243.5 1476.5,-243.5 1476.5,-224.5 1345.5,-224.5"/>
<text text-anchor="middle" x="1411" y="-231.5" font-family="Helvetica,sans-Serif" font-size="10.00">synchronizedlyricsframe.h</text>
</a>
</g>
</g>
<!-- Node1&#45;&gt;Node16 -->
<g id="edge15" class="edge">
<title>Node1&#45;&gt;Node16</title>
<path fill="none" stroke="midnightblue" d="M1034.96,-283.01C1110.48,-273.36 1259.16,-254.38 1345.22,-243.4"/>
<polygon fill="midnightblue" stroke="midnightblue" points="1034.27,-279.56 1024.8,-284.3 1035.16,-286.51 1034.27,-279.56"/>
</g>
<!-- Node17 -->
<g id="node17" class="node">
<title>Node17</title>
<g id="a_node17"><a xlink:href="tableofcontentsframe_8h.html" target="_top" xlink:title=" ">
<polygon fill="white" stroke="black" points="348,-112.5 348,-131.5 464,-131.5 464,-112.5 348,-112.5"/>
<text text-anchor="middle" x="406" y="-119.5" font-family="Helvetica,sans-Serif" font-size="10.00">tableofcontentsframe.h</text>
</a>
</g>
</g>
<!-- Node1&#45;&gt;Node17 -->
<g id="edge16" class="edge">
<title>Node1&#45;&gt;Node17</title>
<path fill="none" stroke="midnightblue" d="M941.2,-289.41C797.34,-290.18 368.75,-288.69 327,-244 292.23,-206.79 362.28,-152.51 392.77,-131.63"/>
<polygon fill="midnightblue" stroke="midnightblue" points="941.48,-292.91 951.46,-289.35 941.44,-285.91 941.48,-292.91"/>
</g>
<!-- Node18 -->
<g id="node18" class="node">
<title>Node18</title>
<g id="a_node18"><a xlink:href="textidentificationframe_8h.html" target="_top" xlink:title=" ">
<polygon fill="white" stroke="black" points="1494.5,-224.5 1494.5,-243.5 1615.5,-243.5 1615.5,-224.5 1494.5,-224.5"/>
<text text-anchor="middle" x="1555" y="-231.5" font-family="Helvetica,sans-Serif" font-size="10.00">textidentificationframe.h</text>
</a>
</g>
</g>
<!-- Node1&#45;&gt;Node18 -->
<g id="edge17" class="edge">
<title>Node1&#45;&gt;Node18</title>
<path fill="none" stroke="midnightblue" d="M1034.82,-285.39C1123.15,-278.44 1320.37,-262.28 1486,-244 1488.76,-243.7 1491.58,-243.37 1494.43,-243.04"/>
<polygon fill="midnightblue" stroke="midnightblue" points="1034.3,-281.92 1024.6,-286.19 1034.84,-288.9 1034.3,-281.92"/>
</g>
<!-- Node19 -->
<g id="node19" class="node">
<title>Node19</title>
<g id="a_node19"><a xlink:href="uniquefileidentifierframe_8h.html" target="_top" xlink:title=" ">
<polygon fill="white" stroke="black" points="1634,-224.5 1634,-243.5 1762,-243.5 1762,-224.5 1634,-224.5"/>
<text text-anchor="middle" x="1698" y="-231.5" font-family="Helvetica,sans-Serif" font-size="10.00">uniquefileidentifierframe.h</text>
</a>
</g>
</g>
<!-- Node1&#45;&gt;Node19 -->
<g id="edge18" class="edge">
<title>Node1&#45;&gt;Node19</title>
<path fill="none" stroke="midnightblue" d="M1034.67,-286.54C1140.06,-280.8 1404.47,-265.37 1625,-244 1627.92,-243.72 1630.91,-243.41 1633.93,-243.09"/>
<polygon fill="midnightblue" stroke="midnightblue" points="1034.48,-283.04 1024.68,-287.08 1034.85,-290.03 1034.48,-283.04"/>
</g>
<!-- Node20 -->
<g id="node20" class="node">
<title>Node20</title>
<g id="a_node20"><a xlink:href="unknownframe_8h.html" target="_top" xlink:title=" ">
<polygon fill="white" stroke="black" points="1780.5,-224.5 1780.5,-243.5 1869.5,-243.5 1869.5,-224.5 1780.5,-224.5"/>
<text text-anchor="middle" x="1825" y="-231.5" font-family="Helvetica,sans-Serif" font-size="10.00">unknownframe.h</text>
</a>
</g>
</g>
<!-- Node1&#45;&gt;Node20 -->
<g id="edge19" class="edge">
<title>Node1&#45;&gt;Node20</title>
<path fill="none" stroke="midnightblue" d="M1034.91,-288.07C1156.7,-285.26 1492.9,-275.07 1771,-244 1774.02,-243.66 1777.13,-243.27 1780.26,-242.84"/>
<polygon fill="midnightblue" stroke="midnightblue" points="1034.73,-284.57 1024.81,-288.29 1034.89,-291.57 1034.73,-284.57"/>
</g>
<!-- Node21 -->
<g id="node21" class="node">
<title>Node21</title>
<g id="a_node21"><a xlink:href="unsynchronizedlyricsframe_8h.html" target="_top" xlink:title=" ">
<polygon fill="white" stroke="black" points="1887.5,-224.5 1887.5,-243.5 2028.5,-243.5 2028.5,-224.5 1887.5,-224.5"/>
<text text-anchor="middle" x="1958" y="-231.5" font-family="Helvetica,sans-Serif" font-size="10.00">unsynchronizedlyricsframe.h</text>
</a>
</g>
</g>
<!-- Node1&#45;&gt;Node21 -->
<g id="edge20" class="edge">
<title>Node1&#45;&gt;Node21</title>
<path fill="none" stroke="midnightblue" d="M1034.74,-287.68C1167.25,-283.7 1556.62,-270.48 1879,-244 1881.75,-243.77 1884.56,-243.53 1887.39,-243.27"/>
<polygon fill="midnightblue" stroke="midnightblue" points="1034.44,-284.18 1024.55,-287.98 1034.65,-291.18 1034.44,-284.18"/>
</g>
<!-- Node22 -->
<g id="node22" class="node">
<title>Node22</title>
<g id="a_node22"><a xlink:href="urllinkframe_8h.html" target="_top" xlink:title=" ">
<polygon fill="white" stroke="black" points="2046.5,-224.5 2046.5,-243.5 2121.5,-243.5 2121.5,-224.5 2046.5,-224.5"/>
<text text-anchor="middle" x="2084" y="-231.5" font-family="Helvetica,sans-Serif" font-size="10.00">urllinkframe.h</text>
</a>
</g>
</g>
<!-- Node1&#45;&gt;Node22 -->
<g id="edge21" class="edge">
<title>Node1&#45;&gt;Node22</title>
<path fill="none" stroke="midnightblue" d="M1034.99,-289.5C1183.02,-290.52 1652.71,-289.69 2038,-244 2040.75,-243.67 2043.58,-243.28 2046.42,-242.83"/>
<polygon fill="midnightblue" stroke="midnightblue" points="1034.92,-286 1024.89,-289.42 1034.87,-293 1034.92,-286"/>
</g>
<!-- Node23 -->
<g id="node23" class="node">
<title>Node23</title>
<g id="a_node23"><a xlink:href="id3v2framefactory_8h.html" target="_top" xlink:title=" ">
<polygon fill="white" stroke="black" points="177.5,-224.5 177.5,-243.5 278.5,-243.5 278.5,-224.5 177.5,-224.5"/>
<text text-anchor="middle" x="228" y="-231.5" font-family="Helvetica,sans-Serif" font-size="10.00">id3v2framefactory.h</text>
</a>
</g>
</g>
<!-- Node1&#45;&gt;Node23 -->
<g id="edge22" class="edge">
<title>Node1&#45;&gt;Node23</title>
<path fill="none" stroke="midnightblue" d="M941.09,-287.14C828.89,-282.45 536.27,-268.68 293,-244 288.35,-243.53 283.53,-242.98 278.7,-242.38"/>
<polygon fill="midnightblue" stroke="midnightblue" points="941.24,-290.65 951.38,-287.57 941.53,-283.66 941.24,-290.65"/>
</g>
<!-- Node3 -->
<g id="node3" class="node">
<title>Node3</title>
<g id="a_node3"><a xlink:href="asfpicture_8h.html" target="_top" xlink:title=" ">
<polygon fill="white" stroke="black" points="19,-168.5 19,-187.5 87,-187.5 87,-168.5 19,-168.5"/>
<text text-anchor="middle" x="53" y="-175.5" font-family="Helvetica,sans-Serif" font-size="10.00">asfpicture.h</text>
</a>
</g>
</g>
<!-- Node2&#45;&gt;Node3 -->
<g id="edge2" class="edge">
<title>Node2&#45;&gt;Node3</title>
<path fill="none" stroke="midnightblue" d="M56.25,-214.1C55.42,-205.14 54.47,-194.86 53.81,-187.75"/>
<polygon fill="midnightblue" stroke="midnightblue" points="52.77,-214.45 57.17,-224.08 59.74,-213.8 52.77,-214.45"/>
</g>
<!-- Node4 -->
<g id="node4" class="node">
<title>Node4</title>
<g id="a_node4"><a xlink:href="asfattribute_8h.html" target="_top" xlink:title=" ">
<polygon fill="white" stroke="black" points="12,-112.5 12,-131.5 86,-131.5 86,-112.5 12,-112.5"/>
<text text-anchor="middle" x="49" y="-119.5" font-family="Helvetica,sans-Serif" font-size="10.00">asfattribute.h</text>
</a>
</g>
</g>
<!-- Node3&#45;&gt;Node4 -->
<g id="edge3" class="edge">
<title>Node3&#45;&gt;Node4</title>
<path fill="none" stroke="midnightblue" d="M51.6,-158.1C50.94,-149.14 50.17,-138.86 49.65,-131.75"/>
<polygon fill="midnightblue" stroke="midnightblue" points="48.11,-158.37 52.34,-168.08 55.09,-157.85 48.11,-158.37"/>
</g>
<!-- Node5 -->
<g id="node5" class="node">
<title>Node5</title>
<g id="a_node5"><a xlink:href="asftag_8h.html" target="_top" xlink:title=" ">
<polygon fill="white" stroke="black" points="23,-56.5 23,-75.5 75,-75.5 75,-56.5 23,-56.5"/>
<text text-anchor="middle" x="49" y="-63.5" font-family="Helvetica,sans-Serif" font-size="10.00">asftag.h</text>
</a>
</g>
</g>
<!-- Node4&#45;&gt;Node5 -->
<g id="edge4" class="edge">
<title>Node4&#45;&gt;Node5</title>
<path fill="none" stroke="midnightblue" d="M49,-101.8C49,-92.91 49,-82.78 49,-75.75"/>
<polygon fill="midnightblue" stroke="midnightblue" points="45.5,-102.08 49,-112.08 52.5,-102.08 45.5,-102.08"/>
</g>
<!-- Node6 -->
<g id="node6" class="node">
<title>Node6</title>
<g id="a_node6"><a xlink:href="asffile_8h.html" target="_top" xlink:title=" ">
<polygon fill="white" stroke="black" points="23.5,-0.5 23.5,-19.5 74.5,-19.5 74.5,-0.5 23.5,-0.5"/>
<text text-anchor="middle" x="49" y="-7.5" font-family="Helvetica,sans-Serif" font-size="10.00">asffile.h</text>
</a>
</g>
</g>
<!-- Node5&#45;&gt;Node6 -->
<g id="edge5" class="edge">
<title>Node5&#45;&gt;Node6</title>
<path fill="none" stroke="midnightblue" d="M49,-45.8C49,-36.91 49,-26.78 49,-19.75"/>
<polygon fill="midnightblue" stroke="midnightblue" points="45.5,-46.08 49,-56.08 52.5,-46.08 45.5,-46.08"/>
</g>
<!-- Node24 -->
<g id="node24" class="node">
<title>Node24</title>
<g id="a_node24"><a xlink:href="id3v2tag_8h.html" target="_top" xlink:title=" ">
<polygon fill="white" stroke="black" points="199,-168.5 199,-187.5 261,-187.5 261,-168.5 199,-168.5"/>
<text text-anchor="middle" x="230" y="-175.5" font-family="Helvetica,sans-Serif" font-size="10.00">id3v2tag.h</text>
</a>
</g>
</g>
<!-- Node23&#45;&gt;Node24 -->
<g id="edge23" class="edge">
<title>Node23&#45;&gt;Node24</title>
<path fill="none" stroke="midnightblue" d="M228.71,-213.8C229.04,-204.91 229.42,-194.78 229.68,-187.75"/>
<polygon fill="midnightblue" stroke="midnightblue" points="225.2,-213.96 228.33,-224.08 232.2,-214.22 225.2,-213.96"/>
</g>
<!-- Node24&#45;&gt;Node7 -->
<g id="edge24" class="edge">
<title>Node24&#45;&gt;Node7</title>
<path fill="none" stroke="midnightblue" d="M207.81,-162.9C192.22,-153 171.87,-140.07 158.62,-131.65"/>
<polygon fill="midnightblue" stroke="midnightblue" points="206.03,-165.92 216.34,-168.32 209.78,-160.01 206.03,-165.92"/>
</g>
<!-- Node24&#45;&gt;Node17 -->
<g id="edge25" class="edge">
<title>Node24&#45;&gt;Node17</title>
<path fill="none" stroke="midnightblue" d="M267.69,-165.44C300.87,-155.26 348.43,-140.66 378.24,-131.52"/>
<polygon fill="midnightblue" stroke="midnightblue" points="266.42,-162.16 257.89,-168.44 268.47,-168.86 266.42,-162.16"/>
</g>
<!-- Node25 -->
<g id="node25" class="node">
<title>Node25</title>
<g id="a_node25"><a xlink:href="aifffile_8h.html" target="_top" xlink:title=" ">
<polygon fill="white" stroke="black" points="204.5,-112.5 204.5,-131.5 255.5,-131.5 255.5,-112.5 204.5,-112.5"/>
<text text-anchor="middle" x="230" y="-119.5" font-family="Helvetica,sans-Serif" font-size="10.00">aifffile.h</text>
</a>
</g>
</g>
<!-- Node24&#45;&gt;Node25 -->
<g id="edge26" class="edge">
<title>Node24&#45;&gt;Node25</title>
<path fill="none" stroke="midnightblue" d="M230,-157.8C230,-148.91 230,-138.78 230,-131.75"/>
<polygon fill="midnightblue" stroke="midnightblue" points="226.5,-158.08 230,-168.08 233.5,-158.08 226.5,-158.08"/>
</g>
<!-- Node26 -->
<g id="node26" class="node">
<title>Node26</title>
<g id="a_node26"><a xlink:href="wavfile_8h.html" target="_top" xlink:title=" ">
<polygon fill="white" stroke="black" points="274,-112.5 274,-131.5 330,-131.5 330,-112.5 274,-112.5"/>
<text text-anchor="middle" x="302" y="-119.5" font-family="Helvetica,sans-Serif" font-size="10.00">wavfile.h</text>
</a>
</g>
</g>
<!-- Node24&#45;&gt;Node26 -->
<g id="edge27" class="edge">
<title>Node24&#45;&gt;Node26</title>
<path fill="none" stroke="midnightblue" d="M249.87,-162.1C262.82,-152.38 279.3,-140.03 290.22,-131.83"/>
<polygon fill="midnightblue" stroke="midnightblue" points="247.47,-159.52 241.57,-168.32 251.67,-165.12 247.47,-159.52"/>
</g>
</g>
</svg>
