<?xml version="1.0" encoding="UTF-8" standalone="no"?>
<!DOCTYPE svg PUBLIC "-//W3C//DTD SVG 1.1//EN"
 "http://www.w3.org/Graphics/SVG/1.1/DTD/svg11.dtd">
<!-- Generated by graphviz version 2.43.0 (0)
 -->
<!-- Title: id3v2synchdata.h Pages: 1 -->
<svg width="461pt" height="196pt"
 viewBox="0.00 0.00 461.00 196.00" xmlns="http://www.w3.org/2000/svg" xmlns:xlink="http://www.w3.org/1999/xlink">
<g id="graph0" class="graph" transform="scale(1 1) rotate(0) translate(4 192)">
<title>id3v2synchdata.h</title>
<polygon fill="white" stroke="transparent" points="-4,4 -4,-192 457,-192 457,4 -4,4"/>
<!-- Node1 -->
<g id="node1" class="node">
<title>Node1</title>
<g id="a_node1"><a xlink:title=" ">
<polygon fill="#bfbfbf" stroke="black" points="203.5,-168.5 203.5,-187.5 306.5,-187.5 306.5,-168.5 203.5,-168.5"/>
<text text-anchor="middle" x="255" y="-175.5" font-family="Helvetica,sans-Serif" font-size="10.00">id3v2synchdata.h</text>
</a>
</g>
</g>
<!-- Node2 -->
<g id="node2" class="node">
<title>Node2</title>
<g id="a_node2"><a xlink:href="tbytevector_8h.html" target="_top" xlink:title=" ">
<polygon fill="white" stroke="black" points="180.5,-112.5 180.5,-131.5 261.5,-131.5 261.5,-112.5 180.5,-112.5"/>
<text text-anchor="middle" x="221" y="-119.5" font-family="Helvetica,sans-Serif" font-size="10.00">tbytevector.h</text>
</a>
</g>
</g>
<!-- Node1&#45;&gt;Node2 -->
<g id="edge1" class="edge">
<title>Node1&#45;&gt;Node2</title>
<path fill="none" stroke="midnightblue" d="M249.39,-168.08C244.63,-160.53 237.68,-149.49 231.85,-140.23"/>
<polygon fill="midnightblue" stroke="midnightblue" points="234.8,-138.35 226.51,-131.75 228.88,-142.08 234.8,-138.35"/>
</g>
<!-- Node6 -->
<g id="node6" class="node">
<title>Node6</title>
<g id="a_node6"><a xlink:href="taglib_8h.html" target="_top" xlink:title=" ">
<polygon fill="white" stroke="black" points="328.5,-56.5 328.5,-75.5 381.5,-75.5 381.5,-56.5 328.5,-56.5"/>
<text text-anchor="middle" x="355" y="-63.5" font-family="Helvetica,sans-Serif" font-size="10.00">taglib.h</text>
</a>
</g>
</g>
<!-- Node1&#45;&gt;Node6 -->
<g id="edge10" class="edge">
<title>Node1&#45;&gt;Node6</title>
<path fill="none" stroke="midnightblue" d="M262.85,-168.37C279.57,-149.97 318.94,-106.67 340.41,-83.05"/>
<polygon fill="midnightblue" stroke="midnightblue" points="343.05,-85.35 347.19,-75.59 337.87,-80.64 343.05,-85.35"/>
</g>
<!-- Node3 -->
<g id="node3" class="node">
<title>Node3</title>
<g id="a_node3"><a xlink:title=" ">
<polygon fill="white" stroke="#bfbfbf" points="0,-56.5 0,-75.5 60,-75.5 60,-56.5 0,-56.5"/>
<text text-anchor="middle" x="30" y="-63.5" font-family="Helvetica,sans-Serif" font-size="10.00">iostream</text>
</a>
</g>
</g>
<!-- Node2&#45;&gt;Node3 -->
<g id="edge2" class="edge">
<title>Node2&#45;&gt;Node3</title>
<path fill="none" stroke="midnightblue" d="M190.74,-112.44C158.04,-103.2 105.82,-88.44 69.82,-78.26"/>
<polygon fill="midnightblue" stroke="midnightblue" points="70.7,-74.87 60.12,-75.52 68.79,-81.61 70.7,-74.87"/>
</g>
<!-- Node4 -->
<g id="node4" class="node">
<title>Node4</title>
<g id="a_node4"><a xlink:title=" ">
<polygon fill="white" stroke="#bfbfbf" points="78,-56.5 78,-75.5 136,-75.5 136,-56.5 78,-56.5"/>
<text text-anchor="middle" x="107" y="-63.5" font-family="Helvetica,sans-Serif" font-size="10.00">memory</text>
</a>
</g>
</g>
<!-- Node2&#45;&gt;Node4 -->
<g id="edge3" class="edge">
<title>Node2&#45;&gt;Node4</title>
<path fill="none" stroke="midnightblue" d="M202.94,-112.44C184.43,-103.68 155.42,-89.94 134.14,-79.86"/>
<polygon fill="midnightblue" stroke="midnightblue" points="135.51,-76.63 124.98,-75.52 132.52,-82.96 135.51,-76.63"/>
</g>
<!-- Node5 -->
<g id="node5" class="node">
<title>Node5</title>
<g id="a_node5"><a xlink:title=" ">
<polygon fill="white" stroke="#bfbfbf" points="154.5,-56.5 154.5,-75.5 201.5,-75.5 201.5,-56.5 154.5,-56.5"/>
<text text-anchor="middle" x="178" y="-63.5" font-family="Helvetica,sans-Serif" font-size="10.00">vector</text>
</a>
</g>
</g>
<!-- Node2&#45;&gt;Node5 -->
<g id="edge4" class="edge">
<title>Node2&#45;&gt;Node5</title>
<path fill="none" stroke="midnightblue" d="M213.9,-112.08C207.76,-104.38 198.73,-93.03 191.26,-83.65"/>
<polygon fill="midnightblue" stroke="midnightblue" points="193.94,-81.39 184.97,-75.75 188.46,-85.75 193.94,-81.39"/>
</g>
<!-- Node2&#45;&gt;Node6 -->
<g id="edge5" class="edge">
<title>Node2&#45;&gt;Node6</title>
<path fill="none" stroke="midnightblue" d="M242.23,-112.44C264.38,-103.52 299.32,-89.44 324.44,-79.32"/>
<polygon fill="midnightblue" stroke="midnightblue" points="325.9,-82.5 333.87,-75.52 323.28,-76.01 325.9,-82.5"/>
</g>
<!-- Node10 -->
<g id="node10" class="node">
<title>Node10</title>
<g id="a_node10"><a xlink:href="taglib__export_8h.html" target="_top" xlink:title=" ">
<polygon fill="white" stroke="black" points="220,-56.5 220,-75.5 310,-75.5 310,-56.5 220,-56.5"/>
<text text-anchor="middle" x="265" y="-63.5" font-family="Helvetica,sans-Serif" font-size="10.00">taglib_export.h</text>
</a>
</g>
</g>
<!-- Node2&#45;&gt;Node10 -->
<g id="edge9" class="edge">
<title>Node2&#45;&gt;Node10</title>
<path fill="none" stroke="midnightblue" d="M228.27,-112.08C234.54,-104.38 243.79,-93.03 251.43,-83.65"/>
<polygon fill="midnightblue" stroke="midnightblue" points="254.27,-85.71 257.87,-75.75 248.84,-81.29 254.27,-85.71"/>
</g>
<!-- Node7 -->
<g id="node7" class="node">
<title>Node7</title>
<g id="a_node7"><a xlink:title=" ">
<polygon fill="white" stroke="#bfbfbf" points="213,-0.5 213,-19.5 301,-19.5 301,-0.5 213,-0.5"/>
<text text-anchor="middle" x="257" y="-7.5" font-family="Helvetica,sans-Serif" font-size="10.00">taglib_config.h</text>
</a>
</g>
</g>
<!-- Node6&#45;&gt;Node7 -->
<g id="edge6" class="edge">
<title>Node6&#45;&gt;Node7</title>
<path fill="none" stroke="midnightblue" d="M339.25,-56.32C323.68,-47.74 299.62,-34.49 281.54,-24.52"/>
<polygon fill="midnightblue" stroke="midnightblue" points="283.15,-21.42 272.71,-19.65 279.78,-27.55 283.15,-21.42"/>
</g>
<!-- Node8 -->
<g id="node8" class="node">
<title>Node8</title>
<g id="a_node8"><a xlink:title=" ">
<polygon fill="white" stroke="#bfbfbf" points="319,-0.5 319,-19.5 391,-19.5 391,-0.5 319,-0.5"/>
<text text-anchor="middle" x="355" y="-7.5" font-family="Helvetica,sans-Serif" font-size="10.00">sys/types.h</text>
</a>
</g>
</g>
<!-- Node6&#45;&gt;Node8 -->
<g id="edge7" class="edge">
<title>Node6&#45;&gt;Node8</title>
<path fill="none" stroke="midnightblue" d="M355,-56.08C355,-49.01 355,-38.86 355,-29.99"/>
<polygon fill="midnightblue" stroke="midnightblue" points="358.5,-29.75 355,-19.75 351.5,-29.75 358.5,-29.75"/>
</g>
<!-- Node9 -->
<g id="node9" class="node">
<title>Node9</title>
<g id="a_node9"><a xlink:title=" ">
<polygon fill="white" stroke="#bfbfbf" points="409,-0.5 409,-19.5 453,-19.5 453,-0.5 409,-0.5"/>
<text text-anchor="middle" x="431" y="-7.5" font-family="Helvetica,sans-Serif" font-size="10.00">string</text>
</a>
</g>
</g>
<!-- Node6&#45;&gt;Node9 -->
<g id="edge8" class="edge">
<title>Node6&#45;&gt;Node9</title>
<path fill="none" stroke="midnightblue" d="M367.21,-56.32C378.78,-48.11 396.38,-35.6 410.16,-25.81"/>
<polygon fill="midnightblue" stroke="midnightblue" points="412.44,-28.48 418.57,-19.83 408.39,-22.77 412.44,-28.48"/>
</g>
</g>
</svg>
