<?xml version="1.0" encoding="UTF-8" standalone="no"?>
<!DOCTYPE svg PUBLIC "-//W3C//DTD SVG 1.1//EN"
 "http://www.w3.org/Graphics/SVG/1.1/DTD/svg11.dtd">
<!-- Generated by graphviz version 2.43.0 (0)
 -->
<!-- Title: id3v2tag.h Pages: 1 -->
<svg width="404pt" height="84pt"
 viewBox="0.00 0.00 403.50 84.00" xmlns="http://www.w3.org/2000/svg" xmlns:xlink="http://www.w3.org/1999/xlink">
<g id="graph0" class="graph" transform="scale(1 1) rotate(0) translate(4 80)">
<title>id3v2tag.h</title>
<polygon fill="white" stroke="transparent" points="-4,4 -4,-80 399.5,-80 399.5,4 -4,4"/>
<!-- Node1 -->
<g id="node1" class="node">
<title>Node1</title>
<g id="a_node1"><a xlink:title=" ">
<polygon fill="#bfbfbf" stroke="black" points="198,-56.5 198,-75.5 266,-75.5 266,-56.5 198,-56.5"/>
<text text-anchor="middle" x="232" y="-63.5" font-family="Helvetica,sans-Serif" font-size="10.00">id3v2tag.h</text>
</a>
</g>
</g>
<!-- Node2 -->
<g id="node2" class="node">
<title>Node2</title>
<g id="a_node2"><a xlink:href="chapterframe_8h.html" target="_top" xlink:title=" ">
<polygon fill="white" stroke="black" points="0,-0.5 0,-19.5 92,-19.5 92,-0.5 0,-0.5"/>
<text text-anchor="middle" x="46" y="-7.5" font-family="Helvetica,sans-Serif" font-size="10.00">chapterframe.h</text>
</a>
</g>
</g>
<!-- Node1&#45;&gt;Node2 -->
<g id="edge1" class="edge">
<title>Node1&#45;&gt;Node2</title>
<path fill="none" stroke="midnightblue" d="M192.62,-53.57C157.53,-43.38 106.98,-28.7 75.33,-19.52"/>
<polygon fill="midnightblue" stroke="midnightblue" points="191.95,-57.02 202.53,-56.44 193.9,-50.29 191.95,-57.02"/>
</g>
<!-- Node3 -->
<g id="node3" class="node">
<title>Node3</title>
<g id="a_node3"><a xlink:href="tableofcontentsframe_8h.html" target="_top" xlink:title=" ">
<polygon fill="white" stroke="black" points="110.5,-0.5 110.5,-19.5 241.5,-19.5 241.5,-0.5 110.5,-0.5"/>
<text text-anchor="middle" x="176" y="-7.5" font-family="Helvetica,sans-Serif" font-size="10.00">tableofcontentsframe.h</text>
</a>
</g>
</g>
<!-- Node1&#45;&gt;Node3 -->
<g id="edge2" class="edge">
<title>Node1&#45;&gt;Node3</title>
<path fill="none" stroke="midnightblue" d="M215.67,-49.25C205.74,-39.67 193.41,-27.79 185.16,-19.83"/>
<polygon fill="midnightblue" stroke="midnightblue" points="213.37,-51.9 223,-56.32 218.23,-46.86 213.37,-51.9"/>
</g>
<!-- Node4 -->
<g id="node4" class="node">
<title>Node4</title>
<g id="a_node4"><a xlink:href="aifffile_8h.html" target="_top" xlink:title=" ">
<polygon fill="white" stroke="black" points="260,-0.5 260,-19.5 316,-19.5 316,-0.5 260,-0.5"/>
<text text-anchor="middle" x="288" y="-7.5" font-family="Helvetica,sans-Serif" font-size="10.00">aifffile.h</text>
</a>
</g>
</g>
<!-- Node1&#45;&gt;Node4 -->
<g id="edge3" class="edge">
<title>Node1&#45;&gt;Node4</title>
<path fill="none" stroke="midnightblue" d="M248.33,-49.25C258.26,-39.67 270.59,-27.79 278.84,-19.83"/>
<polygon fill="midnightblue" stroke="midnightblue" points="245.77,-46.86 241,-56.32 250.63,-51.9 245.77,-46.86"/>
</g>
<!-- Node5 -->
<g id="node5" class="node">
<title>Node5</title>
<g id="a_node5"><a xlink:href="wavfile_8h.html" target="_top" xlink:title=" ">
<polygon fill="white" stroke="black" points="334.5,-0.5 334.5,-19.5 395.5,-19.5 395.5,-0.5 334.5,-0.5"/>
<text text-anchor="middle" x="365" y="-7.5" font-family="Helvetica,sans-Serif" font-size="10.00">wavfile.h</text>
</a>
</g>
</g>
<!-- Node1&#45;&gt;Node5 -->
<g id="edge4" class="edge">
<title>Node1&#45;&gt;Node5</title>
<path fill="none" stroke="midnightblue" d="M262.45,-52.64C287.41,-42.5 322.08,-28.43 344.02,-19.52"/>
<polygon fill="midnightblue" stroke="midnightblue" points="261.02,-49.44 253.07,-56.44 263.66,-55.92 261.02,-49.44"/>
</g>
</g>
</svg>
