<?xml version="1.0" encoding="UTF-8" standalone="no"?>
<!DOCTYPE svg PUBLIC "-//W3C//DTD SVG 1.1//EN"
 "http://www.w3.org/Graphics/SVG/1.1/DTD/svg11.dtd">
<!-- Generated by graphviz version 2.43.0 (0)
 -->
<!-- Title: id3v2framefactory.h Pages: 1 -->
<svg width="312pt" height="252pt"
 viewBox="0.00 0.00 311.50 252.00" xmlns="http://www.w3.org/2000/svg" xmlns:xlink="http://www.w3.org/1999/xlink">
<g id="graph0" class="graph" transform="scale(1 1) rotate(0) translate(4 248)">
<title>id3v2framefactory.h</title>
<polygon fill="white" stroke="transparent" points="-4,4 -4,-248 307.5,-248 307.5,4 -4,4"/>
<!-- Node1 -->
<g id="node1" class="node">
<title>Node1</title>
<g id="a_node1"><a xlink:title=" ">
<polygon fill="#bfbfbf" stroke="black" points="90,-224.5 90,-243.5 205,-243.5 205,-224.5 90,-224.5"/>
<text text-anchor="middle" x="147.5" y="-231.5" font-family="Helvetica,sans-Serif" font-size="10.00">id3v2framefactory.h</text>
</a>
</g>
</g>
<!-- Node2 -->
<g id="node2" class="node">
<title>Node2</title>
<g id="a_node2"><a xlink:href="tbytevector_8h.html" target="_top" xlink:title=" ">
<polygon fill="white" stroke="black" points="49,-56.5 49,-75.5 130,-75.5 130,-56.5 49,-56.5"/>
<text text-anchor="middle" x="89.5" y="-63.5" font-family="Helvetica,sans-Serif" font-size="10.00">tbytevector.h</text>
</a>
</g>
</g>
<!-- Node1&#45;&gt;Node2 -->
<g id="edge1" class="edge">
<title>Node1&#45;&gt;Node2</title>
<path fill="none" stroke="midnightblue" d="M135.74,-224.33C115.53,-208.6 74.92,-173.16 59.5,-132 53.13,-115.01 63.79,-96.25 74.12,-83.27"/>
<polygon fill="midnightblue" stroke="midnightblue" points="76.81,-85.52 80.68,-75.66 71.5,-80.95 76.81,-85.52"/>
</g>
<!-- Node6 -->
<g id="node6" class="node">
<title>Node6</title>
<g id="a_node6"><a xlink:href="taglib__export_8h.html" target="_top" xlink:title=" ">
<polygon fill="white" stroke="black" points="213.5,-0.5 213.5,-19.5 303.5,-19.5 303.5,-0.5 213.5,-0.5"/>
<text text-anchor="middle" x="258.5" y="-7.5" font-family="Helvetica,sans-Serif" font-size="10.00">taglib_export.h</text>
</a>
</g>
</g>
<!-- Node1&#45;&gt;Node6 -->
<g id="edge6" class="edge">
<title>Node1&#45;&gt;Node6</title>
<path fill="none" stroke="midnightblue" d="M185.58,-224.46C209.17,-217.66 238.98,-206.21 260.5,-188 282.73,-169.2 286.65,-160.04 294.5,-132 303.6,-99.47 305.68,-87.87 294.5,-56 290.71,-45.21 283.13,-35.08 275.9,-27.18"/>
<polygon fill="midnightblue" stroke="midnightblue" points="278.17,-24.49 268.66,-19.81 273.17,-29.4 278.17,-24.49"/>
</g>
<!-- Node7 -->
<g id="node7" class="node">
<title>Node7</title>
<g id="a_node7"><a xlink:href="id3v2frame_8h.html" target="_top" xlink:title=" ">
<polygon fill="white" stroke="black" points="169.5,-168.5 169.5,-187.5 251.5,-187.5 251.5,-168.5 169.5,-168.5"/>
<text text-anchor="middle" x="210.5" y="-175.5" font-family="Helvetica,sans-Serif" font-size="10.00">id3v2frame.h</text>
</a>
</g>
</g>
<!-- Node1&#45;&gt;Node7 -->
<g id="edge7" class="edge">
<title>Node1&#45;&gt;Node7</title>
<path fill="none" stroke="midnightblue" d="M157.62,-224.32C167.03,-216.26 181.24,-204.08 192.57,-194.37"/>
<polygon fill="midnightblue" stroke="midnightblue" points="194.88,-197 200.19,-187.83 190.32,-191.68 194.88,-197"/>
</g>
<!-- Node10 -->
<g id="node10" class="node">
<title>Node10</title>
<g id="a_node10"><a xlink:href="id3v2header_8h.html" target="_top" xlink:title=" ">
<polygon fill="white" stroke="black" points="68.5,-112.5 68.5,-131.5 154.5,-131.5 154.5,-112.5 68.5,-112.5"/>
<text text-anchor="middle" x="111.5" y="-119.5" font-family="Helvetica,sans-Serif" font-size="10.00">id3v2header.h</text>
</a>
</g>
</g>
<!-- Node1&#45;&gt;Node10 -->
<g id="edge14" class="edge">
<title>Node1&#45;&gt;Node10</title>
<path fill="none" stroke="midnightblue" d="M144.68,-224.37C138.84,-206.54 125.34,-165.3 117.48,-141.27"/>
<polygon fill="midnightblue" stroke="midnightblue" points="120.75,-140.01 114.31,-131.59 114.1,-142.18 120.75,-140.01"/>
</g>
<!-- Node3 -->
<g id="node3" class="node">
<title>Node3</title>
<g id="a_node3"><a xlink:title=" ">
<polygon fill="white" stroke="#bfbfbf" points="131.5,-0.5 131.5,-19.5 189.5,-19.5 189.5,-0.5 131.5,-0.5"/>
<text text-anchor="middle" x="160.5" y="-7.5" font-family="Helvetica,sans-Serif" font-size="10.00">memory</text>
</a>
</g>
</g>
<!-- Node2&#45;&gt;Node3 -->
<g id="edge2" class="edge">
<title>Node2&#45;&gt;Node3</title>
<path fill="none" stroke="midnightblue" d="M100.91,-56.32C111.61,-48.18 127.84,-35.84 140.66,-26.09"/>
<polygon fill="midnightblue" stroke="midnightblue" points="143.04,-28.67 148.89,-19.83 138.81,-23.1 143.04,-28.67"/>
</g>
<!-- Node4 -->
<g id="node4" class="node">
<title>Node4</title>
<g id="a_node4"><a xlink:title=" ">
<polygon fill="white" stroke="#bfbfbf" points="0,-0.5 0,-19.5 47,-19.5 47,-0.5 0,-0.5"/>
<text text-anchor="middle" x="23.5" y="-7.5" font-family="Helvetica,sans-Serif" font-size="10.00">vector</text>
</a>
</g>
</g>
<!-- Node2&#45;&gt;Node4 -->
<g id="edge3" class="edge">
<title>Node2&#45;&gt;Node4</title>
<path fill="none" stroke="midnightblue" d="M78.9,-56.32C69.04,-48.26 54.15,-36.08 42.28,-26.37"/>
<polygon fill="midnightblue" stroke="midnightblue" points="44.25,-23.46 34.3,-19.83 39.82,-28.88 44.25,-23.46"/>
</g>
<!-- Node5 -->
<g id="node5" class="node">
<title>Node5</title>
<g id="a_node5"><a xlink:title=" ">
<polygon fill="white" stroke="#bfbfbf" points="65.5,-0.5 65.5,-19.5 113.5,-19.5 113.5,-0.5 65.5,-0.5"/>
<text text-anchor="middle" x="89.5" y="-7.5" font-family="Helvetica,sans-Serif" font-size="10.00">iosfwd</text>
</a>
</g>
</g>
<!-- Node2&#45;&gt;Node5 -->
<g id="edge4" class="edge">
<title>Node2&#45;&gt;Node5</title>
<path fill="none" stroke="midnightblue" d="M89.5,-56.08C89.5,-49.01 89.5,-38.86 89.5,-29.99"/>
<polygon fill="midnightblue" stroke="midnightblue" points="93,-29.75 89.5,-19.75 86,-29.75 93,-29.75"/>
</g>
<!-- Node2&#45;&gt;Node6 -->
<g id="edge5" class="edge">
<title>Node2&#45;&gt;Node6</title>
<path fill="none" stroke="midnightblue" d="M116.28,-56.44C144.83,-47.32 190.23,-32.81 222.04,-22.65"/>
<polygon fill="midnightblue" stroke="midnightblue" points="223.39,-25.89 231.85,-19.52 221.26,-19.23 223.39,-25.89"/>
</g>
<!-- Node7&#45;&gt;Node2 -->
<g id="edge12" class="edge">
<title>Node7&#45;&gt;Node2</title>
<path fill="none" stroke="midnightblue" d="M205.66,-168.16C198.02,-154.79 182.12,-129.19 163.5,-112 149.73,-99.28 131.81,-88.28 117.06,-80.33"/>
<polygon fill="midnightblue" stroke="midnightblue" points="118.39,-77.08 107.9,-75.57 115.16,-83.29 118.39,-77.08"/>
</g>
<!-- Node7&#45;&gt;Node6 -->
<g id="edge13" class="edge">
<title>Node7&#45;&gt;Node6</title>
<path fill="none" stroke="midnightblue" d="M233.29,-168.47C248.83,-161.32 268.21,-149.44 277.5,-132 295.27,-98.67 279.23,-53.34 267.75,-28.71"/>
<polygon fill="midnightblue" stroke="midnightblue" points="270.78,-26.94 263.22,-19.51 264.5,-30.03 270.78,-26.94"/>
</g>
<!-- Node8 -->
<g id="node8" class="node">
<title>Node8</title>
<g id="a_node8"><a xlink:href="tstring_8h.html" target="_top" xlink:title=" ">
<polygon fill="white" stroke="black" points="211,-112.5 211,-131.5 268,-131.5 268,-112.5 211,-112.5"/>
<text text-anchor="middle" x="239.5" y="-119.5" font-family="Helvetica,sans-Serif" font-size="10.00">tstring.h</text>
</a>
</g>
</g>
<!-- Node7&#45;&gt;Node8 -->
<g id="edge8" class="edge">
<title>Node7&#45;&gt;Node8</title>
<path fill="none" stroke="midnightblue" d="M215.29,-168.08C219.26,-160.69 225.03,-149.95 229.93,-140.81"/>
<polygon fill="midnightblue" stroke="midnightblue" points="233.15,-142.22 234.8,-131.75 226.99,-138.91 233.15,-142.22"/>
</g>
<!-- Node8&#45;&gt;Node2 -->
<g id="edge10" class="edge">
<title>Node8&#45;&gt;Node2</title>
<path fill="none" stroke="midnightblue" d="M215.73,-112.44C190.61,-103.4 150.79,-89.06 122.6,-78.92"/>
<polygon fill="midnightblue" stroke="midnightblue" points="123.75,-75.61 113.16,-75.52 121.38,-82.2 123.75,-75.61"/>
</g>
<!-- Node8&#45;&gt;Node6 -->
<g id="edge11" class="edge">
<title>Node8&#45;&gt;Node6</title>
<path fill="none" stroke="midnightblue" d="M240.99,-112.37C244.06,-94.62 251.13,-53.67 255.29,-29.6"/>
<polygon fill="midnightblue" stroke="midnightblue" points="258.76,-30.04 257.02,-19.59 251.86,-28.85 258.76,-30.04"/>
</g>
<!-- Node9 -->
<g id="node9" class="node">
<title>Node9</title>
<g id="a_node9"><a xlink:title=" ">
<polygon fill="white" stroke="#bfbfbf" points="186.5,-56.5 186.5,-75.5 230.5,-75.5 230.5,-56.5 186.5,-56.5"/>
<text text-anchor="middle" x="208.5" y="-63.5" font-family="Helvetica,sans-Serif" font-size="10.00">string</text>
</a>
</g>
</g>
<!-- Node8&#45;&gt;Node9 -->
<g id="edge9" class="edge">
<title>Node8&#45;&gt;Node9</title>
<path fill="none" stroke="midnightblue" d="M234.38,-112.08C230.09,-104.61 223.84,-93.72 218.56,-84.52"/>
<polygon fill="midnightblue" stroke="midnightblue" points="221.54,-82.68 213.52,-75.75 215.47,-86.17 221.54,-82.68"/>
</g>
<!-- Node10&#45;&gt;Node2 -->
<g id="edge15" class="edge">
<title>Node10&#45;&gt;Node2</title>
<path fill="none" stroke="midnightblue" d="M107.87,-112.08C104.89,-104.77 100.57,-94.18 96.88,-85.1"/>
<polygon fill="midnightblue" stroke="midnightblue" points="100.08,-83.69 93.07,-75.75 93.6,-86.33 100.08,-83.69"/>
</g>
<!-- Node10&#45;&gt;Node6 -->
<g id="edge16" class="edge">
<title>Node10&#45;&gt;Node6</title>
<path fill="none" stroke="midnightblue" d="M118.98,-112.24C130.59,-98.99 154.07,-73.54 177.5,-56 194.19,-43.51 214.73,-32.14 230.96,-23.95"/>
<polygon fill="midnightblue" stroke="midnightblue" points="232.53,-27.08 239.95,-19.51 229.43,-20.8 232.53,-27.08"/>
</g>
</g>
</svg>
