<?xml version="1.0" encoding="UTF-8" standalone="no"?>
<!DOCTYPE svg PUBLIC "-//W3C//DTD SVG 1.1//EN"
 "http://www.w3.org/Graphics/SVG/1.1/DTD/svg11.dtd">
<!-- Generated by graphviz version 2.42.4 (0)
 -->
<!-- Title: id3v2.h Pages: 1 -->
<svg width="563pt" height="137pt"
 viewBox="0.00 0.00 562.50 137.00" xmlns="http://www.w3.org/2000/svg" xmlns:xlink="http://www.w3.org/1999/xlink">
<g id="graph0" class="graph" transform="scale(1 1) rotate(0) translate(4 133)">
<title>id3v2.h</title>
<!-- Node1 -->
<g id="Node000001" class="node">
<title>Node1</title>
<g id="a_Node000001"><a xlink:title=" ">
<polygon fill="#999999" stroke="#666666" points="327.5,-129 274.5,-129 274.5,-110 327.5,-110 327.5,-129"/>
<text text-anchor="middle" x="301" y="-117" font-family="Helvetica,sans-Serif" font-size="10.00">id3v2.h</text>
</a>
</g>
</g>
<!-- Node2 -->
<g id="Node000002" class="node">
<title>Node2</title>
<g id="a_Node000002"><a xlink:href="id3v2tag_8h.html" target="_top" xlink:title=" ">
<polygon fill="white" stroke="#666666" points="292,-74 224,-74 224,-55 292,-55 292,-74"/>
<text text-anchor="middle" x="258" y="-62" font-family="Helvetica,sans-Serif" font-size="10.00">id3v2tag.h</text>
</a>
</g>
</g>
<!-- Node1&#45;&gt;Node2 -->
<g id="edge1_Node000001_Node000002" class="edge">
<title>Node1&#45;&gt;Node2</title>
<g id="a_edge1_Node000001_Node000002"><a xlink:title=" ">
<path fill="none" stroke="#63b8ff" d="M287.58,-101.96C280.09,-92.72 271.06,-81.6 264.97,-74.09"/>
<polygon fill="#63b8ff" stroke="#63b8ff" points="284.88,-104.19 293.9,-109.75 290.32,-99.78 284.88,-104.19"/>
</a>
</g>
</g>
<!-- Node9 -->
<g id="Node000009" class="node">
<title>Node9</title>
<g id="a_Node000009"><a xlink:href="mpegfile_8h.html" target="_top" xlink:title=" ">
<polygon fill="white" stroke="#666666" points="378,-74 310,-74 310,-55 378,-55 378,-74"/>
<text text-anchor="middle" x="344" y="-62" font-family="Helvetica,sans-Serif" font-size="10.00">mpegfile.h</text>
</a>
</g>
</g>
<!-- Node1&#45;&gt;Node9 -->
<g id="edge8_Node000001_Node000009" class="edge">
<title>Node1&#45;&gt;Node9</title>
<g id="a_edge8_Node000001_Node000009"><a xlink:title=" ">
<path fill="none" stroke="#63b8ff" d="M314.42,-101.96C321.91,-92.72 330.94,-81.6 337.03,-74.09"/>
<polygon fill="#63b8ff" stroke="#63b8ff" points="311.68,-99.78 308.1,-109.75 317.12,-104.19 311.68,-99.78"/>
</a>
</g>
</g>
<!-- Node3 -->
<g id="Node000003" class="node">
<title>Node3</title>
<g id="a_Node000003"><a xlink:href="aifffile_8h.html" target="_top" xlink:title=" ">
<polygon fill="white" stroke="#666666" points="56,-19 0,-19 0,0 56,0 56,-19"/>
<text text-anchor="middle" x="28" y="-7" font-family="Helvetica,sans-Serif" font-size="10.00">aifffile.h</text>
</a>
</g>
</g>
<!-- Node2&#45;&gt;Node3 -->
<g id="edge2_Node000002_Node000003" class="edge">
<title>Node2&#45;&gt;Node3</title>
<g id="a_edge2_Node000002_Node000003"><a xlink:title=" ">
<path fill="none" stroke="#63b8ff" d="M213.76,-53.31C167.24,-42.59 95.46,-26.05 56.14,-16.98"/>
<polygon fill="#63b8ff" stroke="#63b8ff" points="213.04,-56.73 223.57,-55.57 214.61,-49.91 213.04,-56.73"/>
</a>
</g>
</g>
<!-- Node4 -->
<g id="Node000004" class="node">
<title>Node4</title>
<g id="a_Node000004"><a xlink:href="chapterframe_8h.html" target="_top" xlink:title=" ">
<polygon fill="white" stroke="#666666" points="166,-19 74,-19 74,0 166,0 166,-19"/>
<text text-anchor="middle" x="120" y="-7" font-family="Helvetica,sans-Serif" font-size="10.00">chapterframe.h</text>
</a>
</g>
</g>
<!-- Node2&#45;&gt;Node4 -->
<g id="edge3_Node000002_Node000004" class="edge">
<title>Node2&#45;&gt;Node4</title>
<g id="a_edge3_Node000002_Node000004"><a xlink:title=" ">
<path fill="none" stroke="#63b8ff" d="M226.21,-51.29C200.63,-41.47 165.33,-27.91 142.58,-19.17"/>
<polygon fill="#63b8ff" stroke="#63b8ff" points="225.24,-54.67 235.83,-54.98 227.75,-48.13 225.24,-54.67"/>
</a>
</g>
</g>
<!-- Node5 -->
<g id="Node000005" class="node">
<title>Node5</title>
<g id="a_Node000005"><a xlink:href="dsdifffile_8h.html" target="_top" xlink:title=" ">
<polygon fill="white" stroke="#666666" points="252,-19 184,-19 184,0 252,0 252,-19"/>
<text text-anchor="middle" x="218" y="-7" font-family="Helvetica,sans-Serif" font-size="10.00">dsdifffile.h</text>
</a>
</g>
</g>
<!-- Node2&#45;&gt;Node5 -->
<g id="edge4_Node000002_Node000005" class="edge">
<title>Node2&#45;&gt;Node5</title>
<g id="a_edge4_Node000002_Node000005"><a xlink:title=" ">
<path fill="none" stroke="#63b8ff" d="M245.3,-46.67C238.37,-37.5 230.09,-26.52 224.48,-19.09"/>
<polygon fill="#63b8ff" stroke="#63b8ff" points="242.58,-48.87 251.39,-54.75 248.16,-44.66 242.58,-48.87"/>
</a>
</g>
</g>
<!-- Node6 -->
<g id="Node000006" class="node">
<title>Node6</title>
<g id="a_Node000006"><a xlink:href="dsffile_8h.html" target="_top" xlink:title=" ">
<polygon fill="white" stroke="#666666" points="326,-19 270,-19 270,0 326,0 326,-19"/>
<text text-anchor="middle" x="298" y="-7" font-family="Helvetica,sans-Serif" font-size="10.00">dsffile.h</text>
</a>
</g>
</g>
<!-- Node2&#45;&gt;Node6 -->
<g id="edge5_Node000002_Node000006" class="edge">
<title>Node2&#45;&gt;Node6</title>
<g id="a_edge5_Node000002_Node000006"><a xlink:title=" ">
<path fill="none" stroke="#63b8ff" d="M270.7,-46.67C277.63,-37.5 285.91,-26.52 291.52,-19.09"/>
<polygon fill="#63b8ff" stroke="#63b8ff" points="267.84,-44.66 264.61,-54.75 273.42,-48.87 267.84,-44.66"/>
</a>
</g>
</g>
<!-- Node7 -->
<g id="Node000007" class="node">
<title>Node7</title>
<g id="a_Node000007"><a xlink:href="tableofcontentsframe_8h.html" target="_top" xlink:title=" ">
<polygon fill="white" stroke="#666666" points="475.5,-19 344.5,-19 344.5,0 475.5,0 475.5,-19"/>
<text text-anchor="middle" x="410" y="-7" font-family="Helvetica,sans-Serif" font-size="10.00">tableofcontentsframe.h</text>
</a>
</g>
</g>
<!-- Node2&#45;&gt;Node7 -->
<g id="edge6_Node000002_Node000007" class="edge">
<title>Node2&#45;&gt;Node7</title>
<g id="a_edge6_Node000002_Node000007"><a xlink:title=" ">
<path fill="none" stroke="#63b8ff" d="M291.93,-51.67C320.27,-41.79 360.02,-27.93 385.39,-19.08"/>
<polygon fill="#63b8ff" stroke="#63b8ff" points="290.71,-48.39 282.42,-54.98 293.02,-55 290.71,-48.39"/>
</a>
</g>
</g>
<!-- Node8 -->
<g id="Node000008" class="node">
<title>Node8</title>
<g id="a_Node000008"><a xlink:href="wavfile_8h.html" target="_top" xlink:title=" ">
<polygon fill="white" stroke="#666666" points="554.5,-19 493.5,-19 493.5,0 554.5,0 554.5,-19"/>
<text text-anchor="middle" x="524" y="-7" font-family="Helvetica,sans-Serif" font-size="10.00">wavfile.h</text>
</a>
</g>
</g>
<!-- Node2&#45;&gt;Node8 -->
<g id="edge7_Node000002_Node000008" class="edge">
<title>Node2&#45;&gt;Node8</title>
<g id="a_edge7_Node000002_Node000008"><a xlink:title=" ">
<path fill="none" stroke="#63b8ff" d="M302.31,-54.75C384.42,-38.67 406.51,-35.23 485,-19 487.71,-18.44 490.53,-17.85 493.36,-17.24"/>
<polygon fill="#63b8ff" stroke="#63b8ff" points="301.41,-51.36 292.27,-56.72 302.75,-58.23 301.41,-51.36"/>
</a>
</g>
</g>
</g>
</svg>
