<?xml version="1.0" encoding="UTF-8" standalone="no"?>
<!DOCTYPE svg PUBLIC "-//W3C//DTD SVG 1.1//EN"
 "http://www.w3.org/Graphics/SVG/1.1/DTD/svg11.dtd">
<!-- Generated by graphviz version 2.42.4 (0)
 -->
<!-- Title: id3v1tag.h Pages: 1 -->
<svg width="829pt" height="247pt"
 viewBox="0.00 0.00 829.00 247.00" xmlns="http://www.w3.org/2000/svg" xmlns:xlink="http://www.w3.org/1999/xlink">
<g id="graph0" class="graph" transform="scale(1 1) rotate(0) translate(4 243)">
<title>id3v1tag.h</title>
<!-- Node1 -->
<g id="Node000001" class="node">
<title>Node1</title>
<g id="a_Node000001"><a xlink:title=" ">
<polygon fill="#999999" stroke="#666666" points="667,-239 599,-239 599,-220 667,-220 667,-239"/>
<text text-anchor="middle" x="633" y="-227" font-family="Helvetica,sans-Serif" font-size="10.00">id3v1tag.h</text>
</a>
</g>
</g>
<!-- Node2 -->
<g id="Node000002" class="node">
<title>Node2</title>
<g id="a_Node000002"><a xlink:href="tbytevector_8h.html" target="_top" xlink:title=" ">
<polygon fill="white" stroke="#666666" points="442.5,-74 361.5,-74 361.5,-55 442.5,-55 442.5,-74"/>
<text text-anchor="middle" x="402" y="-62" font-family="Helvetica,sans-Serif" font-size="10.00">tbytevector.h</text>
</a>
</g>
</g>
<!-- Node1&#45;&gt;Node2 -->
<g id="edge1_Node000001_Node000002" class="edge">
<title>Node1&#45;&gt;Node2</title>
<g id="a_edge1_Node000001_Node000002"><a xlink:title=" ">
<path fill="none" stroke="#63b8ff" d="M613.42,-219.92C579.77,-204.63 509.69,-170.36 459,-129 441.86,-115.02 425.33,-95.75 414.52,-82.11"/>
<polygon fill="#63b8ff" stroke="#63b8ff" points="417.19,-79.84 408.3,-74.08 411.65,-84.13 417.19,-79.84"/>
</a>
</g>
</g>
<!-- Node6 -->
<g id="Node000006" class="node">
<title>Node6</title>
<g id="a_Node000006"><a xlink:href="taglib__export_8h.html" target="_top" xlink:title=" ">
<polygon fill="white" stroke="#666666" points="717,-19 627,-19 627,0 717,0 717,-19"/>
<text text-anchor="middle" x="672" y="-7" font-family="Helvetica,sans-Serif" font-size="10.00">taglib_export.h</text>
</a>
</g>
</g>
<!-- Node1&#45;&gt;Node6 -->
<g id="edge8_Node000001_Node000006" class="edge">
<title>Node1&#45;&gt;Node6</title>
<g id="a_edge8_Node000001_Node000006"><a xlink:title=" ">
<path fill="none" stroke="#63b8ff" d="M634.97,-219.83C640.24,-196.41 654.88,-129.89 664,-74 666.44,-59.05 668.55,-42.03 669.99,-29.37"/>
<polygon fill="#63b8ff" stroke="#63b8ff" points="673.5,-29.48 671.11,-19.16 666.54,-28.71 673.5,-29.48"/>
</a>
</g>
</g>
<!-- Node7 -->
<g id="Node000007" class="node">
<title>Node7</title>
<g id="a_Node000007"><a xlink:href="taglib_8h.html" target="_top" xlink:title=" ">
<polygon fill="white" stroke="#666666" points="787.5,-184 734.5,-184 734.5,-165 787.5,-165 787.5,-184"/>
<text text-anchor="middle" x="761" y="-172" font-family="Helvetica,sans-Serif" font-size="10.00">taglib.h</text>
</a>
</g>
</g>
<!-- Node1&#45;&gt;Node7 -->
<g id="edge6_Node000001_Node000007" class="edge">
<title>Node1&#45;&gt;Node7</title>
<g id="a_edge6_Node000001_Node000007"><a xlink:title=" ">
<path fill="none" stroke="#63b8ff" d="M653.57,-219.98C674.43,-211.34 706.97,-197.87 730.77,-188.02"/>
<polygon fill="#63b8ff" stroke="#63b8ff" points="732.16,-191.23 740.06,-184.17 729.48,-184.76 732.16,-191.23"/>
</a>
</g>
</g>
<!-- Node9 -->
<g id="Node000009" class="node">
<title>Node9</title>
<g id="a_Node000009"><a xlink:href="tag_8h.html" target="_top" xlink:title=" ">
<polygon fill="white" stroke="#666666" points="603.5,-184 562.5,-184 562.5,-165 603.5,-165 603.5,-184"/>
<text text-anchor="middle" x="583" y="-172" font-family="Helvetica,sans-Serif" font-size="10.00">tag.h</text>
</a>
</g>
</g>
<!-- Node1&#45;&gt;Node9 -->
<g id="edge9_Node000001_Node000009" class="edge">
<title>Node1&#45;&gt;Node9</title>
<g id="a_edge9_Node000001_Node000009"><a xlink:title=" ">
<path fill="none" stroke="#63b8ff" d="M624.74,-219.75C617.54,-212.11 606.89,-200.82 598.15,-191.56"/>
<polygon fill="#63b8ff" stroke="#63b8ff" points="600.51,-188.96 591.1,-184.09 595.42,-193.76 600.51,-188.96"/>
</a>
</g>
</g>
<!-- Node3 -->
<g id="Node000003" class="node">
<title>Node3</title>
<g id="a_Node000003"><a xlink:title=" ">
<polygon fill="#e0e0e0" stroke="#999999" points="281,-19 223,-19 223,0 281,0 281,-19"/>
<text text-anchor="middle" x="252" y="-7" font-family="Helvetica,sans-Serif" font-size="10.00">memory</text>
</a>
</g>
</g>
<!-- Node2&#45;&gt;Node3 -->
<g id="edge2_Node000002_Node000003" class="edge">
<title>Node2&#45;&gt;Node3</title>
<g id="a_edge2_Node000002_Node000003"><a xlink:title=" ">
<path fill="none" stroke="#63b8ff" d="M377.9,-54.98C353.12,-46.23 314.3,-32.51 286.31,-22.62"/>
<polygon fill="#63b8ff" stroke="#63b8ff" points="287.13,-19.2 276.54,-19.17 284.8,-25.8 287.13,-19.2"/>
</a>
</g>
</g>
<!-- Node4 -->
<g id="Node000004" class="node">
<title>Node4</title>
<g id="a_Node000004"><a xlink:title=" ">
<polygon fill="#e0e0e0" stroke="#999999" points="542.5,-19 495.5,-19 495.5,0 542.5,0 542.5,-19"/>
<text text-anchor="middle" x="519" y="-7" font-family="Helvetica,sans-Serif" font-size="10.00">vector</text>
</a>
</g>
</g>
<!-- Node2&#45;&gt;Node4 -->
<g id="edge3_Node000002_Node000004" class="edge">
<title>Node2&#45;&gt;Node4</title>
<g id="a_edge3_Node000002_Node000004"><a xlink:title=" ">
<path fill="none" stroke="#63b8ff" d="M420.8,-54.98C439.62,-46.46 468.82,-33.23 490.5,-23.41"/>
<polygon fill="#63b8ff" stroke="#63b8ff" points="492.2,-26.48 499.86,-19.17 489.31,-20.11 492.2,-26.48"/>
</a>
</g>
</g>
<!-- Node5 -->
<g id="Node000005" class="node">
<title>Node5</title>
<g id="a_Node000005"><a xlink:title=" ">
<polygon fill="#e0e0e0" stroke="#999999" points="609,-19 561,-19 561,0 609,0 609,-19"/>
<text text-anchor="middle" x="585" y="-7" font-family="Helvetica,sans-Serif" font-size="10.00">iosfwd</text>
</a>
</g>
</g>
<!-- Node2&#45;&gt;Node5 -->
<g id="edge4_Node000002_Node000005" class="edge">
<title>Node2&#45;&gt;Node5</title>
<g id="a_edge4_Node000002_Node000005"><a xlink:title=" ">
<path fill="none" stroke="#63b8ff" d="M431.4,-54.98C464,-45.54 516.5,-30.34 550.88,-20.38"/>
<polygon fill="#63b8ff" stroke="#63b8ff" points="552.3,-23.62 560.93,-17.47 550.35,-16.89 552.3,-23.62"/>
</a>
</g>
</g>
<!-- Node2&#45;&gt;Node6 -->
<g id="edge5_Node000002_Node000006" class="edge">
<title>Node2&#45;&gt;Node6</title>
<g id="a_edge5_Node000002_Node000006"><a xlink:title=" ">
<path fill="none" stroke="#63b8ff" d="M442.71,-55.51C489.53,-46.32 566.57,-31.19 618.28,-21.05"/>
<polygon fill="#63b8ff" stroke="#63b8ff" points="619.12,-24.45 628.26,-19.09 617.78,-17.58 619.12,-24.45"/>
</a>
</g>
</g>
<!-- Node8 -->
<g id="Node000008" class="node">
<title>Node8</title>
<g id="a_Node000008"><a xlink:title=" ">
<polygon fill="#e0e0e0" stroke="#999999" points="821,-129 749,-129 749,-110 821,-110 821,-129"/>
<text text-anchor="middle" x="785" y="-117" font-family="Helvetica,sans-Serif" font-size="10.00">sys/types.h</text>
</a>
</g>
</g>
<!-- Node7&#45;&gt;Node8 -->
<g id="edge7_Node000007_Node000008" class="edge">
<title>Node7&#45;&gt;Node8</title>
<g id="a_edge7_Node000007_Node000008"><a xlink:title=" ">
<path fill="none" stroke="#63b8ff" d="M764.96,-164.75C768.21,-157.57 772.92,-147.18 776.95,-138.27"/>
<polygon fill="#63b8ff" stroke="#63b8ff" points="780.17,-139.64 781.11,-129.09 773.8,-136.75 780.17,-139.64"/>
</a>
</g>
</g>
<!-- Node9&#45;&gt;Node6 -->
<g id="edge10_Node000009_Node000006" class="edge">
<title>Node9&#45;&gt;Node6</title>
<g id="a_edge10_Node000009_Node000006"><a xlink:title=" ">
<path fill="none" stroke="#63b8ff" d="M593.09,-164.84C610.88,-148.91 647.52,-112.98 664,-74 670.02,-59.75 671.86,-42.22 672.29,-29.19"/>
<polygon fill="#63b8ff" stroke="#63b8ff" points="675.79,-29.12 672.36,-19.1 668.79,-29.07 675.79,-29.12"/>
</a>
</g>
</g>
<!-- Node10 -->
<g id="Node000010" class="node">
<title>Node10</title>
<g id="a_Node000010"><a xlink:href="tstring_8h.html" target="_top" xlink:title=" ">
<polygon fill="white" stroke="#666666" points="611.5,-129 554.5,-129 554.5,-110 611.5,-110 611.5,-129"/>
<text text-anchor="middle" x="583" y="-117" font-family="Helvetica,sans-Serif" font-size="10.00">tstring.h</text>
</a>
</g>
</g>
<!-- Node9&#45;&gt;Node10 -->
<g id="edge11_Node000009_Node000010" class="edge">
<title>Node9&#45;&gt;Node10</title>
<g id="a_edge11_Node000009_Node000010"><a xlink:title=" ">
<path fill="none" stroke="#63b8ff" d="M583,-164.75C583,-157.8 583,-147.85 583,-139.13"/>
<polygon fill="#63b8ff" stroke="#63b8ff" points="586.5,-139.09 583,-129.09 579.5,-139.09 586.5,-139.09"/>
</a>
</g>
</g>
<!-- Node12 -->
<g id="Node000012" class="node">
<title>Node12</title>
<g id="a_Node000012"><a xlink:href="tlist_8h.html" target="_top" xlink:title=" ">
<polygon fill="white" stroke="#666666" points="230,-74 186,-74 186,-55 230,-55 230,-74"/>
<text text-anchor="middle" x="208" y="-62" font-family="Helvetica,sans-Serif" font-size="10.00">tlist.h</text>
</a>
</g>
</g>
<!-- Node9&#45;&gt;Node12 -->
<g id="edge15_Node000009_Node000012" class="edge">
<title>Node9&#45;&gt;Node12</title>
<g id="a_edge15_Node000009_Node000012"><a xlink:title=" ">
<path fill="none" stroke="#63b8ff" d="M562.3,-167.54C500.13,-149.63 314.67,-96.22 239.83,-74.67"/>
<polygon fill="#63b8ff" stroke="#63b8ff" points="240.61,-71.25 230.03,-71.85 238.67,-77.98 240.61,-71.25"/>
</a>
</g>
</g>
<!-- Node16 -->
<g id="Node000016" class="node">
<title>Node16</title>
<g id="a_Node000016"><a xlink:href="tvariant_8h.html" target="_top" xlink:title=" ">
<polygon fill="white" stroke="#666666" points="532,-129 468,-129 468,-110 532,-110 532,-129"/>
<text text-anchor="middle" x="500" y="-117" font-family="Helvetica,sans-Serif" font-size="10.00">tvariant.h</text>
</a>
</g>
</g>
<!-- Node9&#45;&gt;Node16 -->
<g id="edge20_Node000009_Node000016" class="edge">
<title>Node9&#45;&gt;Node16</title>
<g id="a_edge20_Node000009_Node000016"><a xlink:title=" ">
<path fill="none" stroke="#63b8ff" d="M569.66,-164.98C556.91,-156.84 537.45,-144.41 522.33,-134.76"/>
<polygon fill="#63b8ff" stroke="#63b8ff" points="523.89,-131.6 513.58,-129.17 520.12,-137.5 523.89,-131.6"/>
</a>
</g>
</g>
<!-- Node10&#45;&gt;Node2 -->
<g id="edge13_Node000010_Node000002" class="edge">
<title>Node10&#45;&gt;Node2</title>
<g id="a_edge13_Node000010_Node000002"><a xlink:title=" ">
<path fill="none" stroke="#63b8ff" d="M554.32,-110.1C523.65,-101.12 474.85,-86.83 440.77,-76.85"/>
<polygon fill="#63b8ff" stroke="#63b8ff" points="441.73,-73.49 431.15,-74.03 439.76,-80.2 441.73,-73.49"/>
</a>
</g>
</g>
<!-- Node10&#45;&gt;Node6 -->
<g id="edge14_Node000010_Node000006" class="edge">
<title>Node10&#45;&gt;Node6</title>
<g id="a_edge14_Node000010_Node000006"><a xlink:title=" ">
<path fill="none" stroke="#63b8ff" d="M583.68,-109.84C585.09,-96.75 589.37,-71.7 602,-55 612.16,-41.56 627.66,-31.11 641.49,-23.73"/>
<polygon fill="#63b8ff" stroke="#63b8ff" points="643.34,-26.71 650.71,-19.1 640.2,-20.46 643.34,-26.71"/>
</a>
</g>
</g>
<!-- Node11 -->
<g id="Node000011" class="node">
<title>Node11</title>
<g id="a_Node000011"><a xlink:title=" ">
<polygon fill="#e0e0e0" stroke="#999999" points="655,-74 611,-74 611,-55 655,-55 655,-74"/>
<text text-anchor="middle" x="633" y="-62" font-family="Helvetica,sans-Serif" font-size="10.00">string</text>
</a>
</g>
</g>
<!-- Node10&#45;&gt;Node11 -->
<g id="edge12_Node000010_Node000011" class="edge">
<title>Node10&#45;&gt;Node11</title>
<g id="a_edge12_Node000010_Node000011"><a xlink:title=" ">
<path fill="none" stroke="#63b8ff" d="M591.26,-109.75C598.46,-102.11 609.11,-90.82 617.85,-81.56"/>
<polygon fill="#63b8ff" stroke="#63b8ff" points="620.58,-83.76 624.9,-74.09 615.49,-78.96 620.58,-83.76"/>
</a>
</g>
</g>
<!-- Node12&#45;&gt;Node3 -->
<g id="edge18_Node000012_Node000003" class="edge">
<title>Node12&#45;&gt;Node3</title>
<g id="a_edge18_Node000012_Node000003"><a xlink:title=" ">
<path fill="none" stroke="#63b8ff" d="M215.27,-54.75C221.54,-47.18 230.79,-36.05 238.43,-26.84"/>
<polygon fill="#63b8ff" stroke="#63b8ff" points="241.17,-29.02 244.87,-19.09 235.79,-24.55 241.17,-29.02"/>
</a>
</g>
</g>
<!-- Node13 -->
<g id="Node000013" class="node">
<title>Node13</title>
<g id="a_Node000013"><a xlink:title=" ">
<polygon fill="#e0e0e0" stroke="#999999" points="32,-19 0,-19 0,0 32,0 32,-19"/>
<text text-anchor="middle" x="16" y="-7" font-family="Helvetica,sans-Serif" font-size="10.00">list</text>
</a>
</g>
</g>
<!-- Node12&#45;&gt;Node13 -->
<g id="edge16_Node000012_Node000013" class="edge">
<title>Node12&#45;&gt;Node13</title>
<g id="a_edge16_Node000012_Node000013"><a xlink:title=" ">
<path fill="none" stroke="#63b8ff" d="M185.98,-58.14C155.67,-50.64 99.17,-36.29 42.01,-19.15"/>
<polygon fill="#63b8ff" stroke="#63b8ff" points="42.67,-15.69 32.09,-16.15 40.64,-22.39 42.67,-15.69"/>
</a>
</g>
</g>
<!-- Node14 -->
<g id="Node000014" class="node">
<title>Node14</title>
<g id="a_Node000014"><a xlink:title=" ">
<polygon fill="#e0e0e0" stroke="#999999" points="204.5,-19 121.5,-19 121.5,0 204.5,0 204.5,-19"/>
<text text-anchor="middle" x="163" y="-7" font-family="Helvetica,sans-Serif" font-size="10.00">initializer_list</text>
</a>
</g>
</g>
<!-- Node12&#45;&gt;Node14 -->
<g id="edge17_Node000012_Node000014" class="edge">
<title>Node12&#45;&gt;Node14</title>
<g id="a_edge17_Node000012_Node000014"><a xlink:title=" ">
<path fill="none" stroke="#63b8ff" d="M200.57,-54.75C194.15,-47.18 184.69,-36.05 176.88,-26.84"/>
<polygon fill="#63b8ff" stroke="#63b8ff" points="179.43,-24.45 170.29,-19.09 174.1,-28.98 179.43,-24.45"/>
</a>
</g>
</g>
<!-- Node15 -->
<g id="Node000015" class="node">
<title>Node15</title>
<g id="a_Node000015"><a xlink:title=" ">
<polygon fill="#e0e0e0" stroke="#999999" points="103.5,-19 50.5,-19 50.5,0 103.5,0 103.5,-19"/>
<text text-anchor="middle" x="77" y="-7" font-family="Helvetica,sans-Serif" font-size="10.00">tlist.tcc</text>
</a>
</g>
</g>
<!-- Node12&#45;&gt;Node15 -->
<g id="edge19_Node000012_Node000015" class="edge">
<title>Node12&#45;&gt;Node15</title>
<g id="a_edge19_Node000012_Node000015"><a xlink:title=" ">
<path fill="none" stroke="#63b8ff" d="M186.95,-54.98C165.59,-46.34 132.3,-32.87 107.94,-23.02"/>
<polygon fill="#63b8ff" stroke="#63b8ff" points="109.01,-19.68 98.43,-19.17 106.39,-26.17 109.01,-19.68"/>
</a>
</g>
</g>
<!-- Node16&#45;&gt;Node6 -->
<g id="edge29_Node000016_Node000006" class="edge">
<title>Node16&#45;&gt;Node6</title>
<g id="a_edge29_Node000016_Node000006"><a xlink:title=" ">
<path fill="none" stroke="#63b8ff" d="M494.83,-109.65C487.8,-96.33 477.46,-70.98 490,-55 497.98,-44.84 566.18,-30.14 616.76,-20.46"/>
<polygon fill="#63b8ff" stroke="#63b8ff" points="617.45,-23.89 626.62,-18.59 616.14,-17.02 617.45,-23.89"/>
</a>
</g>
</g>
<!-- Node16&#45;&gt;Node12 -->
<g id="edge22_Node000016_Node000012" class="edge">
<title>Node16&#45;&gt;Node12</title>
<g id="a_edge22_Node000016_Node000012"><a xlink:title=" ">
<path fill="none" stroke="#63b8ff" d="M467.83,-112.54C463.19,-111.68 458.47,-110.82 454,-110 377.2,-95.96 286.86,-79.68 239.93,-71.24"/>
<polygon fill="#63b8ff" stroke="#63b8ff" points="240.52,-67.79 230.06,-69.46 239.28,-74.68 240.52,-67.79"/>
</a>
</g>
</g>
<!-- Node17 -->
<g id="Node000017" class="node">
<title>Node17</title>
<g id="a_Node000017"><a xlink:title=" ">
<polygon fill="#e0e0e0" stroke="#999999" points="555,-74 499,-74 499,-55 555,-55 555,-74"/>
<text text-anchor="middle" x="527" y="-62" font-family="Helvetica,sans-Serif" font-size="10.00">sstream</text>
</a>
</g>
</g>
<!-- Node16&#45;&gt;Node17 -->
<g id="edge21_Node000016_Node000017" class="edge">
<title>Node16&#45;&gt;Node17</title>
<g id="a_edge21_Node000016_Node000017"><a xlink:title=" ">
<path fill="none" stroke="#63b8ff" d="M504.46,-109.75C508.12,-102.57 513.41,-92.18 517.95,-83.27"/>
<polygon fill="#63b8ff" stroke="#63b8ff" points="521.2,-84.59 522.62,-74.09 514.97,-81.41 521.2,-84.59"/>
</a>
</g>
</g>
<!-- Node18 -->
<g id="Node000018" class="node">
<title>Node18</title>
<g id="a_Node000018"><a xlink:href="tmap_8h.html" target="_top" xlink:title=" ">
<polygon fill="white" stroke="#666666" points="343.5,-74 292.5,-74 292.5,-55 343.5,-55 343.5,-74"/>
<text text-anchor="middle" x="318" y="-62" font-family="Helvetica,sans-Serif" font-size="10.00">tmap.h</text>
</a>
</g>
</g>
<!-- Node16&#45;&gt;Node18 -->
<g id="edge23_Node000016_Node000018" class="edge">
<title>Node16&#45;&gt;Node18</title>
<g id="a_edge23_Node000016_Node000018"><a xlink:title=" ">
<path fill="none" stroke="#63b8ff" d="M470.76,-109.98C438.89,-100.7 387.88,-85.85 353.67,-75.89"/>
<polygon fill="#63b8ff" stroke="#63b8ff" points="354.22,-72.4 343.64,-72.97 352.26,-79.12 354.22,-72.4"/>
</a>
</g>
</g>
<!-- Node18&#45;&gt;Node3 -->
<g id="edge25_Node000018_Node000003" class="edge">
<title>Node18&#45;&gt;Node3</title>
<g id="a_edge25_Node000018_Node000003"><a xlink:title=" ">
<path fill="none" stroke="#63b8ff" d="M307.4,-54.98C297.54,-47.07 282.65,-35.11 270.78,-25.58"/>
<polygon fill="#63b8ff" stroke="#63b8ff" points="272.79,-22.7 262.8,-19.17 268.4,-28.16 272.79,-22.7"/>
</a>
</g>
</g>
<!-- Node18&#45;&gt;Node14 -->
<g id="edge26_Node000018_Node000014" class="edge">
<title>Node18&#45;&gt;Node14</title>
<g id="a_edge26_Node000018_Node000014"><a xlink:title=" ">
<path fill="none" stroke="#63b8ff" d="M293.1,-54.98C267.3,-46.16 226.78,-32.31 197.82,-22.41"/>
<polygon fill="#63b8ff" stroke="#63b8ff" points="198.69,-19.01 188.1,-19.08 196.43,-25.63 198.69,-19.01"/>
</a>
</g>
</g>
<!-- Node19 -->
<g id="Node000019" class="node">
<title>Node19</title>
<g id="a_Node000019"><a xlink:title=" ">
<polygon fill="#e0e0e0" stroke="#999999" points="337,-19 299,-19 299,0 337,0 337,-19"/>
<text text-anchor="middle" x="318" y="-7" font-family="Helvetica,sans-Serif" font-size="10.00">map</text>
</a>
</g>
</g>
<!-- Node18&#45;&gt;Node19 -->
<g id="edge24_Node000018_Node000019" class="edge">
<title>Node18&#45;&gt;Node19</title>
<g id="a_edge24_Node000018_Node000019"><a xlink:title=" ">
<path fill="none" stroke="#63b8ff" d="M318,-54.75C318,-47.8 318,-37.85 318,-29.13"/>
<polygon fill="#63b8ff" stroke="#63b8ff" points="321.5,-29.09 318,-19.09 314.5,-29.09 321.5,-29.09"/>
</a>
</g>
</g>
<!-- Node20 -->
<g id="Node000020" class="node">
<title>Node20</title>
<g id="a_Node000020"><a xlink:title=" ">
<polygon fill="#e0e0e0" stroke="#999999" points="400.5,-19 355.5,-19 355.5,0 400.5,0 400.5,-19"/>
<text text-anchor="middle" x="378" y="-7" font-family="Helvetica,sans-Serif" font-size="10.00">utility</text>
</a>
</g>
</g>
<!-- Node18&#45;&gt;Node20 -->
<g id="edge27_Node000018_Node000020" class="edge">
<title>Node18&#45;&gt;Node20</title>
<g id="a_edge27_Node000018_Node000020"><a xlink:title=" ">
<path fill="none" stroke="#63b8ff" d="M327.64,-54.98C336.51,-47.15 349.87,-35.34 360.61,-25.86"/>
<polygon fill="#63b8ff" stroke="#63b8ff" points="363.01,-28.41 368.18,-19.17 358.37,-23.17 363.01,-28.41"/>
</a>
</g>
</g>
<!-- Node21 -->
<g id="Node000021" class="node">
<title>Node21</title>
<g id="a_Node000021"><a xlink:title=" ">
<polygon fill="#e0e0e0" stroke="#999999" points="477.5,-19 418.5,-19 418.5,0 477.5,0 477.5,-19"/>
<text text-anchor="middle" x="448" y="-7" font-family="Helvetica,sans-Serif" font-size="10.00">tmap.tcc</text>
</a>
</g>
</g>
<!-- Node18&#45;&gt;Node21 -->
<g id="edge28_Node000018_Node000021" class="edge">
<title>Node18&#45;&gt;Node21</title>
<g id="a_edge28_Node000018_Node000021"><a xlink:title=" ">
<path fill="none" stroke="#63b8ff" d="M338.89,-54.98C360.08,-46.34 393.13,-32.87 417.3,-23.02"/>
<polygon fill="#63b8ff" stroke="#63b8ff" points="418.79,-26.19 426.73,-19.17 416.15,-19.7 418.79,-26.19"/>
</a>
</g>
</g>
</g>
</svg>
