<?xml version="1.0" encoding="UTF-8" standalone="no"?>
<!DOCTYPE svg PUBLIC "-//W3C//DTD SVG 1.1//EN"
 "http://www.w3.org/Graphics/SVG/1.1/DTD/svg11.dtd">
<!-- Generated by graphviz version 2.43.0 (0)
 -->
<!-- Title: id3v1tag.h Pages: 1 -->
<svg width="820pt" height="308pt"
 viewBox="0.00 0.00 820.19 308.00" xmlns="http://www.w3.org/2000/svg" xmlns:xlink="http://www.w3.org/1999/xlink">
<g id="graph0" class="graph" transform="scale(1 1) rotate(0) translate(4 304)">
<title>id3v1tag.h</title>
<polygon fill="white" stroke="transparent" points="-4,4 -4,-304 816.19,-304 816.19,4 -4,4"/>
<!-- Node1 -->
<g id="node1" class="node">
<title>Node1</title>
<g id="a_node1"><a xlink:title=" ">
<polygon fill="#bfbfbf" stroke="black" points="644,-280.5 644,-299.5 712,-299.5 712,-280.5 644,-280.5"/>
<text text-anchor="middle" x="678" y="-287.5" font-family="Helvetica,sans-Serif" font-size="10.00">id3v1tag.h</text>
</a>
</g>
</g>
<!-- Node2 -->
<g id="node2" class="node">
<title>Node2</title>
<g id="a_node2"><a xlink:href="tbytevector_8h.html" target="_top" xlink:title=" ">
<polygon fill="white" stroke="black" points="530.5,-112.5 530.5,-131.5 611.5,-131.5 611.5,-112.5 530.5,-112.5"/>
<text text-anchor="middle" x="571" y="-119.5" font-family="Helvetica,sans-Serif" font-size="10.00">tbytevector.h</text>
</a>
</g>
</g>
<!-- Node1&#45;&gt;Node2 -->
<g id="edge1" class="edge">
<title>Node1&#45;&gt;Node2</title>
<path fill="none" stroke="midnightblue" d="M669.83,-280.42C654.24,-263.72 619.89,-225.21 598,-188 589.2,-173.04 581.85,-154.67 577.06,-141.28"/>
<polygon fill="midnightblue" stroke="midnightblue" points="580.35,-140.09 573.78,-131.77 573.73,-142.37 580.35,-140.09"/>
</g>
<!-- Node10 -->
<g id="node10" class="node">
<title>Node10</title>
<g id="a_node10"><a xlink:href="taglib__export_8h.html" target="_top" xlink:title=" ">
<polygon fill="white" stroke="black" points="711,-56.5 711,-75.5 801,-75.5 801,-56.5 711,-56.5"/>
<text text-anchor="middle" x="756" y="-63.5" font-family="Helvetica,sans-Serif" font-size="10.00">taglib_export.h</text>
</a>
</g>
</g>
<!-- Node1&#45;&gt;Node10 -->
<g id="edge10" class="edge">
<title>Node1&#45;&gt;Node10</title>
<path fill="none" stroke="midnightblue" d="M690.06,-280.29C710.9,-264.51 753.28,-229 773,-188 787.72,-157.39 789.52,-144.88 781,-112 778.45,-102.18 773.25,-92.21 768.24,-84.17"/>
<polygon fill="midnightblue" stroke="midnightblue" points="771.08,-82.11 762.63,-75.73 765.25,-85.99 771.08,-82.11"/>
</g>
<!-- Node11 -->
<g id="node11" class="node">
<title>Node11</title>
<g id="a_node11"><a xlink:href="tag_8h.html" target="_top" xlink:title=" ">
<polygon fill="white" stroke="black" points="657.5,-224.5 657.5,-243.5 698.5,-243.5 698.5,-224.5 657.5,-224.5"/>
<text text-anchor="middle" x="678" y="-231.5" font-family="Helvetica,sans-Serif" font-size="10.00">tag.h</text>
</a>
</g>
</g>
<!-- Node1&#45;&gt;Node11 -->
<g id="edge11" class="edge">
<title>Node1&#45;&gt;Node11</title>
<path fill="none" stroke="midnightblue" d="M678,-280.08C678,-273.01 678,-262.86 678,-253.99"/>
<polygon fill="midnightblue" stroke="midnightblue" points="681.5,-253.75 678,-243.75 674.5,-253.75 681.5,-253.75"/>
</g>
<!-- Node3 -->
<g id="node3" class="node">
<title>Node3</title>
<g id="a_node3"><a xlink:title=" ">
<polygon fill="white" stroke="#bfbfbf" points="633,-56.5 633,-75.5 693,-75.5 693,-56.5 633,-56.5"/>
<text text-anchor="middle" x="663" y="-63.5" font-family="Helvetica,sans-Serif" font-size="10.00">iostream</text>
</a>
</g>
</g>
<!-- Node2&#45;&gt;Node3 -->
<g id="edge2" class="edge">
<title>Node2&#45;&gt;Node3</title>
<path fill="none" stroke="midnightblue" d="M585.78,-112.32C600.27,-103.82 622.57,-90.73 639.49,-80.8"/>
<polygon fill="midnightblue" stroke="midnightblue" points="641.4,-83.74 648.26,-75.65 637.86,-77.7 641.4,-83.74"/>
</g>
<!-- Node4 -->
<g id="node4" class="node">
<title>Node4</title>
<g id="a_node4"><a xlink:title=" ">
<polygon fill="white" stroke="#bfbfbf" points="343,-56.5 343,-75.5 401,-75.5 401,-56.5 343,-56.5"/>
<text text-anchor="middle" x="372" y="-63.5" font-family="Helvetica,sans-Serif" font-size="10.00">memory</text>
</a>
</g>
</g>
<!-- Node2&#45;&gt;Node4 -->
<g id="edge3" class="edge">
<title>Node2&#45;&gt;Node4</title>
<path fill="none" stroke="midnightblue" d="M539.47,-112.44C504.71,-103.01 448.74,-87.83 411.19,-77.63"/>
<polygon fill="midnightblue" stroke="midnightblue" points="411.69,-74.14 401.12,-74.9 409.85,-80.9 411.69,-74.14"/>
</g>
<!-- Node5 -->
<g id="node5" class="node">
<title>Node5</title>
<g id="a_node5"><a xlink:title=" ">
<polygon fill="white" stroke="#bfbfbf" points="567.5,-56.5 567.5,-75.5 614.5,-75.5 614.5,-56.5 567.5,-56.5"/>
<text text-anchor="middle" x="591" y="-63.5" font-family="Helvetica,sans-Serif" font-size="10.00">vector</text>
</a>
</g>
</g>
<!-- Node2&#45;&gt;Node5 -->
<g id="edge4" class="edge">
<title>Node2&#45;&gt;Node5</title>
<path fill="none" stroke="midnightblue" d="M574.3,-112.08C576.98,-104.85 580.85,-94.41 584.19,-85.4"/>
<polygon fill="midnightblue" stroke="midnightblue" points="587.57,-86.34 587.76,-75.75 581,-83.91 587.57,-86.34"/>
</g>
<!-- Node6 -->
<g id="node6" class="node">
<title>Node6</title>
<g id="a_node6"><a xlink:href="taglib_8h.html" target="_top" xlink:title=" ">
<polygon fill="white" stroke="black" points="496.5,-56.5 496.5,-75.5 549.5,-75.5 549.5,-56.5 496.5,-56.5"/>
<text text-anchor="middle" x="523" y="-63.5" font-family="Helvetica,sans-Serif" font-size="10.00">taglib.h</text>
</a>
</g>
</g>
<!-- Node2&#45;&gt;Node6 -->
<g id="edge5" class="edge">
<title>Node2&#45;&gt;Node6</title>
<path fill="none" stroke="midnightblue" d="M563.07,-112.08C556.15,-104.3 545.93,-92.8 537.55,-83.37"/>
<polygon fill="midnightblue" stroke="midnightblue" points="540.04,-80.9 530.78,-75.75 534.81,-85.55 540.04,-80.9"/>
</g>
<!-- Node2&#45;&gt;Node10 -->
<g id="edge9" class="edge">
<title>Node2&#45;&gt;Node10</title>
<path fill="none" stroke="midnightblue" d="M600.31,-112.44C631.84,-103.24 682.13,-88.56 716.99,-78.39"/>
<polygon fill="midnightblue" stroke="midnightblue" points="718.2,-81.68 726.82,-75.52 716.24,-74.96 718.2,-81.68"/>
</g>
<!-- Node7 -->
<g id="node7" class="node">
<title>Node7</title>
<g id="a_node7"><a xlink:title=" ">
<polygon fill="white" stroke="#bfbfbf" points="528,-0.5 528,-19.5 616,-19.5 616,-0.5 528,-0.5"/>
<text text-anchor="middle" x="572" y="-7.5" font-family="Helvetica,sans-Serif" font-size="10.00">taglib_config.h</text>
</a>
</g>
</g>
<!-- Node6&#45;&gt;Node7 -->
<g id="edge6" class="edge">
<title>Node6&#45;&gt;Node7</title>
<path fill="none" stroke="midnightblue" d="M531.09,-56.08C538.16,-48.3 548.59,-36.8 557.15,-27.37"/>
<polygon fill="midnightblue" stroke="midnightblue" points="559.93,-29.51 564.06,-19.75 554.75,-24.8 559.93,-29.51"/>
</g>
<!-- Node8 -->
<g id="node8" class="node">
<title>Node8</title>
<g id="a_node8"><a xlink:title=" ">
<polygon fill="white" stroke="#bfbfbf" points="438,-0.5 438,-19.5 510,-19.5 510,-0.5 438,-0.5"/>
<text text-anchor="middle" x="474" y="-7.5" font-family="Helvetica,sans-Serif" font-size="10.00">sys/types.h</text>
</a>
</g>
</g>
<!-- Node6&#45;&gt;Node8 -->
<g id="edge7" class="edge">
<title>Node6&#45;&gt;Node8</title>
<path fill="none" stroke="midnightblue" d="M514.91,-56.08C507.84,-48.3 497.41,-36.8 488.85,-27.37"/>
<polygon fill="midnightblue" stroke="midnightblue" points="491.25,-24.8 481.94,-19.75 486.07,-29.51 491.25,-24.8"/>
</g>
<!-- Node9 -->
<g id="node9" class="node">
<title>Node9</title>
<g id="a_node9"><a xlink:title=" ">
<polygon fill="white" stroke="#bfbfbf" points="745,-0.5 745,-19.5 789,-19.5 789,-0.5 745,-0.5"/>
<text text-anchor="middle" x="767" y="-7.5" font-family="Helvetica,sans-Serif" font-size="10.00">string</text>
</a>
</g>
</g>
<!-- Node6&#45;&gt;Node9 -->
<g id="edge8" class="edge">
<title>Node6&#45;&gt;Node9</title>
<path fill="none" stroke="midnightblue" d="M549.71,-58.22C552.84,-57.46 555.99,-56.7 559,-56 621.06,-41.53 693.92,-26.13 734.85,-17.62"/>
<polygon fill="midnightblue" stroke="midnightblue" points="735.7,-21.02 744.78,-15.56 734.28,-14.17 735.7,-21.02"/>
</g>
<!-- Node11&#45;&gt;Node10 -->
<g id="edge12" class="edge">
<title>Node11&#45;&gt;Node10</title>
<path fill="none" stroke="midnightblue" d="M698.82,-227.43C717.51,-221.21 743.8,-209.12 756,-188 774.58,-155.83 767.49,-110.37 761.33,-85.33"/>
<polygon fill="midnightblue" stroke="midnightblue" points="764.71,-84.42 758.74,-75.66 757.95,-86.23 764.71,-84.42"/>
</g>
<!-- Node12 -->
<g id="node12" class="node">
<title>Node12</title>
<g id="a_node12"><a xlink:href="tstring_8h.html" target="_top" xlink:title=" ">
<polygon fill="white" stroke="black" points="689.5,-168.5 689.5,-187.5 746.5,-187.5 746.5,-168.5 689.5,-168.5"/>
<text text-anchor="middle" x="718" y="-175.5" font-family="Helvetica,sans-Serif" font-size="10.00">tstring.h</text>
</a>
</g>
</g>
<!-- Node11&#45;&gt;Node12 -->
<g id="edge13" class="edge">
<title>Node11&#45;&gt;Node12</title>
<path fill="none" stroke="midnightblue" d="M684.61,-224.08C690.26,-216.46 698.54,-205.26 705.45,-195.94"/>
<polygon fill="midnightblue" stroke="midnightblue" points="708.38,-197.87 711.52,-187.75 702.75,-193.7 708.38,-197.87"/>
</g>
<!-- Node13 -->
<g id="node13" class="node">
<title>Node13</title>
<g id="a_node13"><a xlink:href="tlist_8h.html" target="_top" xlink:title=" ">
<polygon fill="white" stroke="black" points="277,-112.5 277,-131.5 321,-131.5 321,-112.5 277,-112.5"/>
<text text-anchor="middle" x="299" y="-119.5" font-family="Helvetica,sans-Serif" font-size="10.00">tlist.h</text>
</a>
</g>
</g>
<!-- Node11&#45;&gt;Node13 -->
<g id="edge19" class="edge">
<title>Node11&#45;&gt;Node13</title>
<path fill="none" stroke="midnightblue" d="M657.35,-227.01C594.8,-208.85 407.03,-154.35 331.24,-132.36"/>
<polygon fill="midnightblue" stroke="midnightblue" points="331.89,-128.9 321.32,-129.48 329.94,-135.63 331.89,-128.9"/>
</g>
<!-- Node17 -->
<g id="node17" class="node">
<title>Node17</title>
<g id="a_node17"><a xlink:href="tvariant_8h.html" target="_top" xlink:title=" ">
<polygon fill="white" stroke="black" points="607,-168.5 607,-187.5 671,-187.5 671,-168.5 607,-168.5"/>
<text text-anchor="middle" x="639" y="-175.5" font-family="Helvetica,sans-Serif" font-size="10.00">tvariant.h</text>
</a>
</g>
</g>
<!-- Node11&#45;&gt;Node17 -->
<g id="edge25" class="edge">
<title>Node11&#45;&gt;Node17</title>
<path fill="none" stroke="midnightblue" d="M671.56,-224.08C666.05,-216.46 657.97,-205.26 651.24,-195.94"/>
<polygon fill="midnightblue" stroke="midnightblue" points="654.01,-193.81 645.32,-187.75 648.34,-197.91 654.01,-193.81"/>
</g>
<!-- Node12&#45;&gt;Node2 -->
<g id="edge16" class="edge">
<title>Node12&#45;&gt;Node2</title>
<path fill="none" stroke="midnightblue" d="M694.71,-168.44C670.19,-159.44 631.4,-145.19 603.8,-135.05"/>
<polygon fill="midnightblue" stroke="midnightblue" points="604.78,-131.68 594.18,-131.52 602.36,-138.25 604.78,-131.68"/>
</g>
<!-- Node12&#45;&gt;Node3 -->
<g id="edge14" class="edge">
<title>Node12&#45;&gt;Node3</title>
<path fill="none" stroke="midnightblue" d="M713.68,-168.37C704.69,-150.38 683.78,-108.55 671.81,-84.63"/>
<polygon fill="midnightblue" stroke="midnightblue" points="674.9,-82.97 667.3,-75.59 668.64,-86.1 674.9,-82.97"/>
</g>
<!-- Node12&#45;&gt;Node6 -->
<g id="edge18" class="edge">
<title>Node12&#45;&gt;Node6</title>
<path fill="none" stroke="midnightblue" d="M689.37,-170.19C686.21,-169.45 683.04,-168.71 680,-168 609.85,-151.7 566.92,-188.3 522,-132 511.68,-119.06 513.51,-99.62 516.96,-85.37"/>
<polygon fill="midnightblue" stroke="midnightblue" points="520.34,-86.26 519.73,-75.68 513.61,-84.33 520.34,-86.26"/>
</g>
<!-- Node12&#45;&gt;Node9 -->
<g id="edge15" class="edge">
<title>Node12&#45;&gt;Node9</title>
<path fill="none" stroke="midnightblue" d="M730.28,-168.46C751.38,-152.93 793.81,-117.8 810,-76 817.19,-57.44 801.91,-38.74 787.62,-26.2"/>
<polygon fill="midnightblue" stroke="midnightblue" points="789.45,-23.18 779.49,-19.57 785.03,-28.6 789.45,-23.18"/>
</g>
<!-- Node12&#45;&gt;Node10 -->
<g id="edge17" class="edge">
<title>Node12&#45;&gt;Node10</title>
<path fill="none" stroke="midnightblue" d="M720.98,-168.37C727.14,-150.54 741.39,-109.3 749.69,-85.27"/>
<polygon fill="midnightblue" stroke="midnightblue" points="753.07,-86.19 753.03,-75.59 746.46,-83.9 753.07,-86.19"/>
</g>
<!-- Node13&#45;&gt;Node4 -->
<g id="edge22" class="edge">
<title>Node13&#45;&gt;Node4</title>
<path fill="none" stroke="midnightblue" d="M310.73,-112.32C321.84,-104.11 338.74,-91.6 351.98,-81.81"/>
<polygon fill="midnightblue" stroke="midnightblue" points="354.1,-84.59 360.06,-75.83 349.94,-78.97 354.1,-84.59"/>
</g>
<!-- Node13&#45;&gt;Node6 -->
<g id="edge23" class="edge">
<title>Node13&#45;&gt;Node6</title>
<path fill="none" stroke="midnightblue" d="M321.34,-114.57C324.58,-113.68 327.87,-112.8 331,-112 397.25,-95.1 416.71,-93.07 486.13,-76.4"/>
<polygon fill="midnightblue" stroke="midnightblue" points="487.37,-79.71 496.27,-73.95 485.72,-72.9 487.37,-79.71"/>
</g>
<!-- Node14 -->
<g id="node14" class="node">
<title>Node14</title>
<g id="a_node14"><a xlink:title=" ">
<polygon fill="white" stroke="#bfbfbf" points="0,-56.5 0,-75.5 32,-75.5 32,-56.5 0,-56.5"/>
<text text-anchor="middle" x="16" y="-63.5" font-family="Helvetica,sans-Serif" font-size="10.00">list</text>
</a>
</g>
</g>
<!-- Node13&#45;&gt;Node14 -->
<g id="edge20" class="edge">
<title>Node13&#45;&gt;Node14</title>
<path fill="none" stroke="midnightblue" d="M276.98,-118.46C233.61,-113.2 134.04,-99.74 41.77,-75.81"/>
<polygon fill="midnightblue" stroke="midnightblue" points="42.57,-72.4 32.01,-73.22 40.78,-79.16 42.57,-72.4"/>
</g>
<!-- Node15 -->
<g id="node15" class="node">
<title>Node15</title>
<g id="a_node15"><a xlink:title=" ">
<polygon fill="white" stroke="#bfbfbf" points="121.5,-56.5 121.5,-75.5 204.5,-75.5 204.5,-56.5 121.5,-56.5"/>
<text text-anchor="middle" x="163" y="-63.5" font-family="Helvetica,sans-Serif" font-size="10.00">initializer_list</text>
</a>
</g>
</g>
<!-- Node13&#45;&gt;Node15 -->
<g id="edge21" class="edge">
<title>Node13&#45;&gt;Node15</title>
<path fill="none" stroke="midnightblue" d="M277.45,-112.44C254.97,-103.52 219.51,-89.44 194.02,-79.32"/>
<polygon fill="midnightblue" stroke="midnightblue" points="195.03,-75.95 184.45,-75.52 192.45,-82.46 195.03,-75.95"/>
</g>
<!-- Node16 -->
<g id="node16" class="node">
<title>Node16</title>
<g id="a_node16"><a xlink:title=" ">
<polygon fill="white" stroke="#bfbfbf" points="50.5,-56.5 50.5,-75.5 103.5,-75.5 103.5,-56.5 50.5,-56.5"/>
<text text-anchor="middle" x="77" y="-63.5" font-family="Helvetica,sans-Serif" font-size="10.00">tlist.tcc</text>
</a>
</g>
</g>
<!-- Node13&#45;&gt;Node16 -->
<g id="edge24" class="edge">
<title>Node13&#45;&gt;Node16</title>
<path fill="none" stroke="midnightblue" d="M276.81,-115.78C243.47,-107.91 178.24,-92.41 113.68,-76.39"/>
<polygon fill="midnightblue" stroke="midnightblue" points="114.29,-72.94 103.74,-73.92 112.6,-79.73 114.29,-72.94"/>
</g>
<!-- Node17&#45;&gt;Node3 -->
<g id="edge27" class="edge">
<title>Node17&#45;&gt;Node3</title>
<path fill="none" stroke="midnightblue" d="M640.88,-168.37C644.76,-150.62 653.69,-109.67 658.94,-85.6"/>
<polygon fill="midnightblue" stroke="midnightblue" points="662.41,-86.11 661.13,-75.59 655.57,-84.62 662.41,-86.11"/>
</g>
<!-- Node17&#45;&gt;Node10 -->
<g id="edge36" class="edge">
<title>Node17&#45;&gt;Node10</title>
<path fill="none" stroke="midnightblue" d="M648.18,-168.37C667.83,-149.89 714.21,-106.29 739.25,-82.74"/>
<polygon fill="midnightblue" stroke="midnightblue" points="741.97,-84.99 746.86,-75.59 737.18,-79.89 741.97,-84.99"/>
</g>
<!-- Node17&#45;&gt;Node13 -->
<g id="edge28" class="edge">
<title>Node17&#45;&gt;Node13</title>
<path fill="none" stroke="midnightblue" d="M606.87,-170.47C602.22,-169.6 597.5,-168.75 593,-168 480.23,-149.24 447.83,-155.59 331.31,-131.77"/>
<polygon fill="midnightblue" stroke="midnightblue" points="331.79,-128.3 321.28,-129.69 330.36,-135.15 331.79,-128.3"/>
</g>
<!-- Node18 -->
<g id="node18" class="node">
<title>Node18</title>
<g id="a_node18"><a xlink:title=" ">
<polygon fill="white" stroke="#bfbfbf" points="408.5,-112.5 408.5,-131.5 473.5,-131.5 473.5,-112.5 408.5,-112.5"/>
<text text-anchor="middle" x="441" y="-119.5" font-family="Helvetica,sans-Serif" font-size="10.00">memory.h</text>
</a>
</g>
</g>
<!-- Node17&#45;&gt;Node18 -->
<g id="edge26" class="edge">
<title>Node17&#45;&gt;Node18</title>
<path fill="none" stroke="midnightblue" d="M607.63,-168.44C573.74,-159.2 519.6,-144.44 482.28,-134.26"/>
<polygon fill="midnightblue" stroke="midnightblue" points="482.8,-130.77 472.23,-131.52 480.95,-137.52 482.8,-130.77"/>
</g>
<!-- Node19 -->
<g id="node19" class="node">
<title>Node19</title>
<g id="a_node19"><a xlink:href="tmap_8h.html" target="_top" xlink:title=" ">
<polygon fill="white" stroke="black" points="339.5,-112.5 339.5,-131.5 390.5,-131.5 390.5,-112.5 339.5,-112.5"/>
<text text-anchor="middle" x="365" y="-119.5" font-family="Helvetica,sans-Serif" font-size="10.00">tmap.h</text>
</a>
</g>
</g>
<!-- Node17&#45;&gt;Node19 -->
<g id="edge29" class="edge">
<title>Node17&#45;&gt;Node19</title>
<path fill="none" stroke="midnightblue" d="M606.84,-170.67C602.19,-169.77 597.48,-168.86 593,-168 510.39,-152.21 486.87,-150.95 400.55,-131.99"/>
<polygon fill="midnightblue" stroke="midnightblue" points="401.09,-128.53 390.57,-129.79 399.57,-135.36 401.09,-128.53"/>
</g>
<!-- Node19&#45;&gt;Node4 -->
<g id="edge31" class="edge">
<title>Node19&#45;&gt;Node4</title>
<path fill="none" stroke="midnightblue" d="M366.16,-112.08C367.08,-104.93 368.42,-94.64 369.58,-85.69"/>
<polygon fill="midnightblue" stroke="midnightblue" points="373.05,-86.12 370.87,-75.75 366.11,-85.22 373.05,-86.12"/>
</g>
<!-- Node19&#45;&gt;Node6 -->
<g id="edge34" class="edge">
<title>Node19&#45;&gt;Node6</title>
<path fill="none" stroke="midnightblue" d="M390.04,-112.44C416.62,-103.36 458.81,-88.94 488.52,-78.78"/>
<polygon fill="midnightblue" stroke="midnightblue" points="489.75,-82.06 498.08,-75.52 487.49,-75.44 489.75,-82.06"/>
</g>
<!-- Node19&#45;&gt;Node15 -->
<g id="edge32" class="edge">
<title>Node19&#45;&gt;Node15</title>
<path fill="none" stroke="midnightblue" d="M339.42,-114.16C305.55,-105.11 245.41,-89.03 204.88,-78.2"/>
<polygon fill="midnightblue" stroke="midnightblue" points="205.59,-74.76 195.02,-75.56 203.78,-81.53 205.59,-74.76"/>
</g>
<!-- Node20 -->
<g id="node20" class="node">
<title>Node20</title>
<g id="a_node20"><a xlink:title=" ">
<polygon fill="white" stroke="#bfbfbf" points="223,-56.5 223,-75.5 261,-75.5 261,-56.5 223,-56.5"/>
<text text-anchor="middle" x="242" y="-63.5" font-family="Helvetica,sans-Serif" font-size="10.00">map</text>
</a>
</g>
</g>
<!-- Node19&#45;&gt;Node20 -->
<g id="edge30" class="edge">
<title>Node19&#45;&gt;Node20</title>
<path fill="none" stroke="midnightblue" d="M345.51,-112.44C325.36,-103.6 293.68,-89.69 270.67,-79.59"/>
<polygon fill="midnightblue" stroke="midnightblue" points="271.96,-76.33 261.4,-75.52 269.15,-82.74 271.96,-76.33"/>
</g>
<!-- Node21 -->
<g id="node21" class="node">
<title>Node21</title>
<g id="a_node21"><a xlink:title=" ">
<polygon fill="white" stroke="#bfbfbf" points="279.5,-56.5 279.5,-75.5 324.5,-75.5 324.5,-56.5 279.5,-56.5"/>
<text text-anchor="middle" x="302" y="-63.5" font-family="Helvetica,sans-Serif" font-size="10.00">utility</text>
</a>
</g>
</g>
<!-- Node19&#45;&gt;Node21 -->
<g id="edge33" class="edge">
<title>Node19&#45;&gt;Node21</title>
<path fill="none" stroke="midnightblue" d="M354.88,-112.32C345.47,-104.26 331.26,-92.08 319.93,-82.37"/>
<polygon fill="midnightblue" stroke="midnightblue" points="322.18,-79.68 312.31,-75.83 317.62,-85 322.18,-79.68"/>
</g>
<!-- Node22 -->
<g id="node22" class="node">
<title>Node22</title>
<g id="a_node22"><a xlink:title=" ">
<polygon fill="white" stroke="#bfbfbf" points="419.5,-56.5 419.5,-75.5 478.5,-75.5 478.5,-56.5 419.5,-56.5"/>
<text text-anchor="middle" x="449" y="-63.5" font-family="Helvetica,sans-Serif" font-size="10.00">tmap.tcc</text>
</a>
</g>
</g>
<!-- Node19&#45;&gt;Node22 -->
<g id="edge35" class="edge">
<title>Node19&#45;&gt;Node22</title>
<path fill="none" stroke="midnightblue" d="M378.5,-112.32C391.6,-103.9 411.71,-90.97 427.11,-81.07"/>
<polygon fill="midnightblue" stroke="midnightblue" points="429.02,-84.01 435.54,-75.65 425.23,-78.12 429.02,-84.01"/>
</g>
</g>
</svg>
