<?xml version="1.0" encoding="UTF-8" standalone="no"?>
<!DOCTYPE svg PUBLIC "-//W3C//DTD SVG 1.1//EN"
 "http://www.w3.org/Graphics/SVG/1.1/DTD/svg11.dtd">
<!-- Generated by graphviz version 2.43.0 (0)
 -->
<!-- Title: id3v2frame.h Pages: 1 -->
<svg width="2355pt" height="196pt"
 viewBox="0.00 0.00 2354.50 196.00" xmlns="http://www.w3.org/2000/svg" xmlns:xlink="http://www.w3.org/1999/xlink">
<g id="graph0" class="graph" transform="scale(1 1) rotate(0) translate(4 192)">
<title>id3v2frame.h</title>
<polygon fill="white" stroke="transparent" points="-4,4 -4,-192 2350.5,-192 2350.5,4 -4,4"/>
<!-- Node1 -->
<g id="node1" class="node">
<title>Node1</title>
<g id="a_node1"><a xlink:title=" ">
<polygon fill="#bfbfbf" stroke="black" points="1042.5,-168.5 1042.5,-187.5 1124.5,-187.5 1124.5,-168.5 1042.5,-168.5"/>
<text text-anchor="middle" x="1083.5" y="-175.5" font-family="Helvetica,sans-Serif" font-size="10.00">id3v2frame.h</text>
</a>
</g>
</g>
<!-- Node2 -->
<g id="node2" class="node">
<title>Node2</title>
<g id="a_node2"><a xlink:href="attachedpictureframe_8h.html" target="_top" xlink:title=" ">
<polygon fill="white" stroke="black" points="0,-112.5 0,-131.5 131,-131.5 131,-112.5 0,-112.5"/>
<text text-anchor="middle" x="65.5" y="-119.5" font-family="Helvetica,sans-Serif" font-size="10.00">attachedpictureframe.h</text>
</a>
</g>
</g>
<!-- Node1&#45;&gt;Node2 -->
<g id="edge1" class="edge">
<title>Node1&#45;&gt;Node2</title>
<path fill="none" stroke="midnightblue" d="M1032.18,-175.69C890.7,-171.84 483.2,-159.07 145.5,-132 140.9,-131.63 136.16,-131.21 131.39,-130.75"/>
<polygon fill="midnightblue" stroke="midnightblue" points="1032.21,-179.2 1042.3,-175.97 1032.39,-172.2 1032.21,-179.2"/>
</g>
<!-- Node3 -->
<g id="node3" class="node">
<title>Node3</title>
<g id="a_node3"><a xlink:href="chapterframe_8h.html" target="_top" xlink:title=" ">
<polygon fill="white" stroke="black" points="223.5,-0.5 223.5,-19.5 315.5,-19.5 315.5,-0.5 223.5,-0.5"/>
<text text-anchor="middle" x="269.5" y="-7.5" font-family="Helvetica,sans-Serif" font-size="10.00">chapterframe.h</text>
</a>
</g>
</g>
<!-- Node1&#45;&gt;Node3 -->
<g id="edge2" class="edge">
<title>Node1&#45;&gt;Node3</title>
<path fill="none" stroke="midnightblue" d="M1032.19,-176.38C844.99,-173.88 208.08,-163.09 178.5,-132 141.81,-93.44 220.1,-40.17 254.43,-19.59"/>
<polygon fill="midnightblue" stroke="midnightblue" points="1032.28,-179.88 1042.32,-176.51 1032.37,-172.88 1032.28,-179.88"/>
</g>
<!-- Node4 -->
<g id="node4" class="node">
<title>Node4</title>
<g id="a_node4"><a xlink:href="commentsframe_8h.html" target="_top" xlink:title=" ">
<polygon fill="white" stroke="black" points="188,-112.5 188,-131.5 295,-131.5 295,-112.5 188,-112.5"/>
<text text-anchor="middle" x="241.5" y="-119.5" font-family="Helvetica,sans-Serif" font-size="10.00">commentsframe.h</text>
</a>
</g>
</g>
<!-- Node1&#45;&gt;Node4 -->
<g id="edge3" class="edge">
<title>Node1&#45;&gt;Node4</title>
<path fill="none" stroke="midnightblue" d="M1032.35,-175.58C907.53,-171.78 577.51,-159.74 303.5,-132 300.79,-131.73 298.03,-131.42 295.23,-131.09"/>
<polygon fill="midnightblue" stroke="midnightblue" points="1032.28,-179.08 1042.38,-175.88 1032.49,-172.08 1032.28,-179.08"/>
</g>
<!-- Node5 -->
<g id="node5" class="node">
<title>Node5</title>
<g id="a_node5"><a xlink:href="eventtimingcodesframe_8h.html" target="_top" xlink:title=" ">
<polygon fill="white" stroke="black" points="313,-112.5 313,-131.5 456,-131.5 456,-112.5 313,-112.5"/>
<text text-anchor="middle" x="384.5" y="-119.5" font-family="Helvetica,sans-Serif" font-size="10.00">eventtimingcodesframe.h</text>
</a>
</g>
</g>
<!-- Node1&#45;&gt;Node5 -->
<g id="edge4" class="edge">
<title>Node1&#45;&gt;Node5</title>
<path fill="none" stroke="midnightblue" d="M1032.04,-173.95C925.85,-167.5 674.76,-151.46 464.5,-132 461.72,-131.74 458.88,-131.47 456.01,-131.19"/>
<polygon fill="midnightblue" stroke="midnightblue" points="1031.97,-177.45 1042.16,-174.56 1032.39,-170.46 1031.97,-177.45"/>
</g>
<!-- Node6 -->
<g id="node6" class="node">
<title>Node6</title>
<g id="a_node6"><a xlink:href="generalencapsulatedobjectframe_8h.html" target="_top" xlink:title=" ">
<polygon fill="white" stroke="black" points="474,-112.5 474,-131.5 661,-131.5 661,-112.5 474,-112.5"/>
<text text-anchor="middle" x="567.5" y="-119.5" font-family="Helvetica,sans-Serif" font-size="10.00">generalencapsulatedobjectframe.h</text>
</a>
</g>
</g>
<!-- Node1&#45;&gt;Node6 -->
<g id="edge5" class="edge">
<title>Node1&#45;&gt;Node6</title>
<path fill="none" stroke="midnightblue" d="M1031.95,-171.6C942.18,-162.21 756.54,-142.78 649.13,-131.54"/>
<polygon fill="midnightblue" stroke="midnightblue" points="1031.84,-175.11 1042.15,-172.67 1032.56,-168.15 1031.84,-175.11"/>
</g>
<!-- Node7 -->
<g id="node7" class="node">
<title>Node7</title>
<g id="a_node7"><a xlink:href="id3v2framefactory_8h.html" target="_top" xlink:title=" ">
<polygon fill="white" stroke="black" points="679,-112.5 679,-131.5 794,-131.5 794,-112.5 679,-112.5"/>
<text text-anchor="middle" x="736.5" y="-119.5" font-family="Helvetica,sans-Serif" font-size="10.00">id3v2framefactory.h</text>
</a>
</g>
</g>
<!-- Node1&#45;&gt;Node7 -->
<g id="edge6" class="edge">
<title>Node1&#45;&gt;Node7</title>
<path fill="none" stroke="midnightblue" d="M1032.39,-169.05C967.91,-159.01 857.48,-141.83 791.3,-131.53"/>
<polygon fill="midnightblue" stroke="midnightblue" points="1031.91,-172.51 1042.33,-170.59 1032.99,-165.6 1031.91,-172.51"/>
</g>
<!-- Node12 -->
<g id="node12" class="node">
<title>Node12</title>
<g id="a_node12"><a xlink:href="tableofcontentsframe_8h.html" target="_top" xlink:title=" ">
<polygon fill="white" stroke="black" points="757,-0.5 757,-19.5 888,-19.5 888,-0.5 757,-0.5"/>
<text text-anchor="middle" x="822.5" y="-7.5" font-family="Helvetica,sans-Serif" font-size="10.00">tableofcontentsframe.h</text>
</a>
</g>
</g>
<!-- Node1&#45;&gt;Node12 -->
<g id="edge20" class="edge">
<title>Node1&#45;&gt;Node12</title>
<path fill="none" stroke="midnightblue" d="M1032.17,-174.18C969.4,-169.62 868.28,-158.32 842.5,-132 811.96,-100.82 817.51,-41.98 820.93,-19.78"/>
<polygon fill="midnightblue" stroke="midnightblue" points="1032.06,-177.68 1042.28,-174.88 1032.55,-170.7 1032.06,-177.68"/>
</g>
<!-- Node14 -->
<g id="node14" class="node">
<title>Node14</title>
<g id="a_node14"><a xlink:href="ownershipframe_8h.html" target="_top" xlink:title=" ">
<polygon fill="white" stroke="black" points="851,-112.5 851,-131.5 956,-131.5 956,-112.5 851,-112.5"/>
<text text-anchor="middle" x="903.5" y="-119.5" font-family="Helvetica,sans-Serif" font-size="10.00">ownershipframe.h</text>
</a>
</g>
</g>
<!-- Node1&#45;&gt;Node14 -->
<g id="edge14" class="edge">
<title>Node1&#45;&gt;Node14</title>
<path fill="none" stroke="midnightblue" d="M1045.39,-165.57C1011.44,-155.38 962.51,-140.7 931.89,-131.52"/>
<polygon fill="midnightblue" stroke="midnightblue" points="1044.39,-168.92 1054.98,-168.44 1046.41,-162.22 1044.39,-168.92"/>
</g>
<!-- Node15 -->
<g id="node15" class="node">
<title>Node15</title>
<g id="a_node15"><a xlink:href="podcastframe_8h.html" target="_top" xlink:title=" ">
<polygon fill="white" stroke="black" points="974,-112.5 974,-131.5 1067,-131.5 1067,-112.5 974,-112.5"/>
<text text-anchor="middle" x="1020.5" y="-119.5" font-family="Helvetica,sans-Serif" font-size="10.00">podcastframe.h</text>
</a>
</g>
</g>
<!-- Node1&#45;&gt;Node15 -->
<g id="edge15" class="edge">
<title>Node1&#45;&gt;Node15</title>
<path fill="none" stroke="midnightblue" d="M1065.46,-161.54C1054.23,-151.91 1040.18,-139.87 1030.81,-131.83"/>
<polygon fill="midnightblue" stroke="midnightblue" points="1063.51,-164.47 1073.38,-168.32 1068.06,-159.16 1063.51,-164.47"/>
</g>
<!-- Node16 -->
<g id="node16" class="node">
<title>Node16</title>
<g id="a_node16"><a xlink:href="popularimeterframe_8h.html" target="_top" xlink:title=" ">
<polygon fill="white" stroke="black" points="1085.5,-112.5 1085.5,-131.5 1209.5,-131.5 1209.5,-112.5 1085.5,-112.5"/>
<text text-anchor="middle" x="1147.5" y="-119.5" font-family="Helvetica,sans-Serif" font-size="10.00">popularimeterframe.h</text>
</a>
</g>
</g>
<!-- Node1&#45;&gt;Node16 -->
<g id="edge16" class="edge">
<title>Node1&#45;&gt;Node16</title>
<path fill="none" stroke="midnightblue" d="M1101.49,-161.82C1112.96,-152.15 1127.41,-139.95 1137.03,-131.83"/>
<polygon fill="midnightblue" stroke="midnightblue" points="1099.17,-159.2 1093.78,-168.32 1103.68,-164.55 1099.17,-159.2"/>
</g>
<!-- Node17 -->
<g id="node17" class="node">
<title>Node17</title>
<g id="a_node17"><a xlink:href="privateframe_8h.html" target="_top" xlink:title=" ">
<polygon fill="white" stroke="black" points="1228,-112.5 1228,-131.5 1317,-131.5 1317,-112.5 1228,-112.5"/>
<text text-anchor="middle" x="1272.5" y="-119.5" font-family="Helvetica,sans-Serif" font-size="10.00">privateframe.h</text>
</a>
</g>
</g>
<!-- Node1&#45;&gt;Node17 -->
<g id="edge17" class="edge">
<title>Node1&#45;&gt;Node17</title>
<path fill="none" stroke="midnightblue" d="M1123.51,-165.57C1159.17,-155.38 1210.54,-140.7 1242.69,-131.52"/>
<polygon fill="midnightblue" stroke="midnightblue" points="1122.1,-162.33 1113.45,-168.44 1124.02,-169.06 1122.1,-162.33"/>
</g>
<!-- Node18 -->
<g id="node18" class="node">
<title>Node18</title>
<g id="a_node18"><a xlink:href="relativevolumeframe_8h.html" target="_top" xlink:title=" ">
<polygon fill="white" stroke="black" points="1335,-112.5 1335,-131.5 1464,-131.5 1464,-112.5 1335,-112.5"/>
<text text-anchor="middle" x="1399.5" y="-119.5" font-family="Helvetica,sans-Serif" font-size="10.00">relativevolumeframe.h</text>
</a>
</g>
</g>
<!-- Node1&#45;&gt;Node18 -->
<g id="edge18" class="edge">
<title>Node1&#45;&gt;Node18</title>
<path fill="none" stroke="midnightblue" d="M1134.7,-168.25C1193.96,-158.12 1290.88,-141.56 1349.58,-131.53"/>
<polygon fill="midnightblue" stroke="midnightblue" points="1134.08,-164.81 1124.81,-169.94 1135.26,-171.71 1134.08,-164.81"/>
</g>
<!-- Node19 -->
<g id="node19" class="node">
<title>Node19</title>
<g id="a_node19"><a xlink:href="synchronizedlyricsframe_8h.html" target="_top" xlink:title=" ">
<polygon fill="white" stroke="black" points="1482.5,-112.5 1482.5,-131.5 1628.5,-131.5 1628.5,-112.5 1482.5,-112.5"/>
<text text-anchor="middle" x="1555.5" y="-119.5" font-family="Helvetica,sans-Serif" font-size="10.00">synchronizedlyricsframe.h</text>
</a>
</g>
</g>
<!-- Node1&#45;&gt;Node19 -->
<g id="edge19" class="edge">
<title>Node1&#45;&gt;Node19</title>
<path fill="none" stroke="midnightblue" d="M1134.61,-171.15C1218.47,-161.56 1385.58,-142.44 1482.1,-131.4"/>
<polygon fill="midnightblue" stroke="midnightblue" points="1134.1,-167.69 1124.56,-172.3 1134.89,-174.64 1134.1,-167.69"/>
</g>
<!-- Node20 -->
<g id="node20" class="node">
<title>Node20</title>
<g id="a_node20"><a xlink:href="textidentificationframe_8h.html" target="_top" xlink:title=" ">
<polygon fill="white" stroke="black" points="1646.5,-112.5 1646.5,-131.5 1784.5,-131.5 1784.5,-112.5 1646.5,-112.5"/>
<text text-anchor="middle" x="1715.5" y="-119.5" font-family="Helvetica,sans-Serif" font-size="10.00">textidentificationframe.h</text>
</a>
</g>
</g>
<!-- Node1&#45;&gt;Node20 -->
<g id="edge21" class="edge">
<title>Node1&#45;&gt;Node20</title>
<path fill="none" stroke="midnightblue" d="M1134.75,-173.42C1232.57,-166.46 1452.65,-150.17 1637.5,-132 1640.35,-131.72 1643.26,-131.43 1646.19,-131.12"/>
<polygon fill="midnightblue" stroke="midnightblue" points="1134.27,-169.94 1124.55,-174.14 1134.77,-176.93 1134.27,-169.94"/>
</g>
<!-- Node21 -->
<g id="node21" class="node">
<title>Node21</title>
<g id="a_node21"><a xlink:href="uniquefileidentifierframe_8h.html" target="_top" xlink:title=" ">
<polygon fill="white" stroke="black" points="1802.5,-112.5 1802.5,-131.5 1948.5,-131.5 1948.5,-112.5 1802.5,-112.5"/>
<text text-anchor="middle" x="1875.5" y="-119.5" font-family="Helvetica,sans-Serif" font-size="10.00">uniquefileidentifierframe.h</text>
</a>
</g>
</g>
<!-- Node1&#45;&gt;Node21 -->
<g id="edge22" class="edge">
<title>Node1&#45;&gt;Node21</title>
<path fill="none" stroke="midnightblue" d="M1134.87,-174.56C1251.87,-168.81 1547.14,-153.32 1793.5,-132 1796.35,-131.75 1799.26,-131.49 1802.2,-131.21"/>
<polygon fill="midnightblue" stroke="midnightblue" points="1134.58,-171.07 1124.77,-175.05 1134.92,-178.06 1134.58,-171.07"/>
</g>
<!-- Node22 -->
<g id="node22" class="node">
<title>Node22</title>
<g id="a_node22"><a xlink:href="unknownframe_8h.html" target="_top" xlink:title=" ">
<polygon fill="white" stroke="black" points="1967,-112.5 1967,-131.5 2066,-131.5 2066,-112.5 1967,-112.5"/>
<text text-anchor="middle" x="2016.5" y="-119.5" font-family="Helvetica,sans-Serif" font-size="10.00">unknownframe.h</text>
</a>
</g>
</g>
<!-- Node1&#45;&gt;Node22 -->
<g id="edge23" class="edge">
<title>Node1&#45;&gt;Node22</title>
<path fill="none" stroke="midnightblue" d="M1134.61,-176.15C1269.46,-173.53 1645.92,-163.71 1957.5,-132 1960.59,-131.69 1963.77,-131.32 1966.97,-130.92"/>
<polygon fill="midnightblue" stroke="midnightblue" points="1134.5,-172.65 1124.57,-176.34 1134.63,-179.65 1134.5,-172.65"/>
</g>
<!-- Node23 -->
<g id="node23" class="node">
<title>Node23</title>
<g id="a_node23"><a xlink:href="unsynchronizedlyricsframe_8h.html" target="_top" xlink:title=" ">
<polygon fill="white" stroke="black" points="2084.5,-112.5 2084.5,-131.5 2242.5,-131.5 2242.5,-112.5 2084.5,-112.5"/>
<text text-anchor="middle" x="2163.5" y="-119.5" font-family="Helvetica,sans-Serif" font-size="10.00">unsynchronizedlyricsframe.h</text>
</a>
</g>
</g>
<!-- Node1&#45;&gt;Node23 -->
<g id="edge24" class="edge">
<title>Node1&#45;&gt;Node23</title>
<path fill="none" stroke="midnightblue" d="M1134.72,-175.7C1281.42,-171.75 1715.77,-158.53 2075.5,-132 2078.41,-131.79 2081.37,-131.55 2084.36,-131.31"/>
<polygon fill="midnightblue" stroke="midnightblue" points="1134.56,-172.2 1124.65,-175.97 1134.74,-179.2 1134.56,-172.2"/>
</g>
<!-- Node24 -->
<g id="node24" class="node">
<title>Node24</title>
<g id="a_node24"><a xlink:href="urllinkframe_8h.html" target="_top" xlink:title=" ">
<polygon fill="white" stroke="black" points="2260.5,-112.5 2260.5,-131.5 2346.5,-131.5 2346.5,-112.5 2260.5,-112.5"/>
<text text-anchor="middle" x="2303.5" y="-119.5" font-family="Helvetica,sans-Serif" font-size="10.00">urllinkframe.h</text>
</a>
</g>
</g>
<!-- Node1&#45;&gt;Node24 -->
<g id="edge25" class="edge">
<title>Node1&#45;&gt;Node24</title>
<path fill="none" stroke="midnightblue" d="M1134.74,-177.45C1298.16,-178.36 1821.5,-177.29 2251.5,-132 2254.42,-131.69 2257.41,-131.32 2260.43,-130.91"/>
<polygon fill="midnightblue" stroke="midnightblue" points="1134.52,-173.95 1124.5,-177.39 1134.48,-180.95 1134.52,-173.95"/>
</g>
<!-- Node8 -->
<g id="node8" class="node">
<title>Node8</title>
<g id="a_node8"><a xlink:href="id3v2tag_8h.html" target="_top" xlink:title=" ">
<polygon fill="white" stroke="black" points="597.5,-56.5 597.5,-75.5 665.5,-75.5 665.5,-56.5 597.5,-56.5"/>
<text text-anchor="middle" x="631.5" y="-63.5" font-family="Helvetica,sans-Serif" font-size="10.00">id3v2tag.h</text>
</a>
</g>
</g>
<!-- Node7&#45;&gt;Node8 -->
<g id="edge7" class="edge">
<title>Node7&#45;&gt;Node8</title>
<path fill="none" stroke="midnightblue" d="M710.69,-107.73C691.25,-97.73 665.15,-84.31 648.33,-75.65"/>
<polygon fill="midnightblue" stroke="midnightblue" points="709.14,-110.86 719.63,-112.32 712.34,-104.64 709.14,-110.86"/>
</g>
<!-- Node8&#45;&gt;Node3 -->
<g id="edge9" class="edge">
<title>Node8&#45;&gt;Node3</title>
<path fill="none" stroke="midnightblue" d="M587.34,-58.41C518.36,-48.12 385.69,-28.33 315.56,-17.87"/>
<polygon fill="midnightblue" stroke="midnightblue" points="587.04,-61.91 597.44,-59.92 588.07,-54.98 587.04,-61.91"/>
</g>
<!-- Node9 -->
<g id="node9" class="node">
<title>Node9</title>
<g id="a_node9"><a xlink:href="aifffile_8h.html" target="_top" xlink:title=" ">
<polygon fill="white" stroke="black" points="443.5,-0.5 443.5,-19.5 499.5,-19.5 499.5,-0.5 443.5,-0.5"/>
<text text-anchor="middle" x="471.5" y="-7.5" font-family="Helvetica,sans-Serif" font-size="10.00">aifffile.h</text>
</a>
</g>
</g>
<!-- Node8&#45;&gt;Node9 -->
<g id="edge8" class="edge">
<title>Node8&#45;&gt;Node9</title>
<path fill="none" stroke="midnightblue" d="M596.45,-53.17C566.33,-43 523.6,-28.59 496.73,-19.52"/>
<polygon fill="midnightblue" stroke="midnightblue" points="595.55,-56.56 606.15,-56.44 597.79,-49.93 595.55,-56.56"/>
</g>
<!-- Node10 -->
<g id="node10" class="node">
<title>Node10</title>
<g id="a_node10"><a xlink:href="dsdifffile_8h.html" target="_top" xlink:title=" ">
<polygon fill="white" stroke="black" points="517.5,-0.5 517.5,-19.5 585.5,-19.5 585.5,-0.5 517.5,-0.5"/>
<text text-anchor="middle" x="551.5" y="-7.5" font-family="Helvetica,sans-Serif" font-size="10.00">dsdifffile.h</text>
</a>
</g>
</g>
<!-- Node8&#45;&gt;Node10 -->
<g id="edge10" class="edge">
<title>Node8&#45;&gt;Node10</title>
<path fill="none" stroke="midnightblue" d="M610.2,-50.62C595.58,-40.76 576.67,-27.99 564.32,-19.65"/>
<polygon fill="midnightblue" stroke="midnightblue" points="608.4,-53.63 618.65,-56.32 612.32,-47.83 608.4,-53.63"/>
</g>
<!-- Node11 -->
<g id="node11" class="node">
<title>Node11</title>
<g id="a_node11"><a xlink:href="dsffile_8h.html" target="_top" xlink:title=" ">
<polygon fill="white" stroke="black" points="603.5,-0.5 603.5,-19.5 659.5,-19.5 659.5,-0.5 603.5,-0.5"/>
<text text-anchor="middle" x="631.5" y="-7.5" font-family="Helvetica,sans-Serif" font-size="10.00">dsffile.h</text>
</a>
</g>
</g>
<!-- Node8&#45;&gt;Node11 -->
<g id="edge11" class="edge">
<title>Node8&#45;&gt;Node11</title>
<path fill="none" stroke="midnightblue" d="M631.5,-45.8C631.5,-36.91 631.5,-26.78 631.5,-19.75"/>
<polygon fill="midnightblue" stroke="midnightblue" points="628,-46.08 631.5,-56.08 635,-46.08 628,-46.08"/>
</g>
<!-- Node8&#45;&gt;Node12 -->
<g id="edge12" class="edge">
<title>Node8&#45;&gt;Node12</title>
<path fill="none" stroke="midnightblue" d="M671.47,-53.7C707.52,-43.51 759.74,-28.74 792.38,-19.52"/>
<polygon fill="midnightblue" stroke="midnightblue" points="670.44,-50.35 661.76,-56.44 672.34,-57.09 670.44,-50.35"/>
</g>
<!-- Node13 -->
<g id="node13" class="node">
<title>Node13</title>
<g id="a_node13"><a xlink:href="wavfile_8h.html" target="_top" xlink:title=" ">
<polygon fill="white" stroke="black" points="678,-0.5 678,-19.5 739,-19.5 739,-0.5 678,-0.5"/>
<text text-anchor="middle" x="708.5" y="-7.5" font-family="Helvetica,sans-Serif" font-size="10.00">wavfile.h</text>
</a>
</g>
</g>
<!-- Node8&#45;&gt;Node13 -->
<g id="edge13" class="edge">
<title>Node8&#45;&gt;Node13</title>
<path fill="none" stroke="midnightblue" d="M652.4,-50.34C666.41,-40.52 684.38,-27.91 696.16,-19.65"/>
<polygon fill="midnightblue" stroke="midnightblue" points="650.05,-47.72 643.87,-56.32 654.07,-53.45 650.05,-47.72"/>
</g>
</g>
</svg>
