<?xml version="1.0" encoding="UTF-8" standalone="no"?>
<!DOCTYPE svg PUBLIC "-//W3C//DTD SVG 1.1//EN"
 "http://www.w3.org/Graphics/SVG/1.1/DTD/svg11.dtd">
<!-- Generated by graphviz version 2.43.0 (0)
 -->
<!-- Title: id3v1tag.h Pages: 1 -->
<svg width="370pt" height="308pt"
 viewBox="0.00 0.00 370.00 308.00" xmlns="http://www.w3.org/2000/svg" xmlns:xlink="http://www.w3.org/1999/xlink">
<g id="graph0" class="graph" transform="scale(1 1) rotate(0) translate(4 304)">
<title>id3v1tag.h</title>
<polygon fill="white" stroke="transparent" points="-4,4 -4,-304 366,-304 366,4 -4,4"/>
<!-- Node1 -->
<g id="node1" class="node">
<title>Node1</title>
<g id="a_node1"><a xlink:title=" ">
<polygon fill="#bfbfbf" stroke="black" points="228,-280.5 228,-299.5 296,-299.5 296,-280.5 228,-280.5"/>
<text text-anchor="middle" x="262" y="-287.5" font-family="Helvetica,sans-Serif" font-size="10.00">id3v1tag.h</text>
</a>
</g>
</g>
<!-- Node2 -->
<g id="node2" class="node">
<title>Node2</title>
<g id="a_node2"><a xlink:href="tag_8h.html" target="_top" xlink:title=" ">
<polygon fill="white" stroke="black" points="241.5,-224.5 241.5,-243.5 282.5,-243.5 282.5,-224.5 241.5,-224.5"/>
<text text-anchor="middle" x="262" y="-231.5" font-family="Helvetica,sans-Serif" font-size="10.00">tag.h</text>
</a>
</g>
</g>
<!-- Node1&#45;&gt;Node2 -->
<g id="edge1" class="edge">
<title>Node1&#45;&gt;Node2</title>
<path fill="none" stroke="midnightblue" d="M262,-280.08C262,-273.01 262,-262.86 262,-253.99"/>
<polygon fill="midnightblue" stroke="midnightblue" points="265.5,-253.75 262,-243.75 258.5,-253.75 265.5,-253.75"/>
</g>
<!-- Node3 -->
<g id="node3" class="node">
<title>Node3</title>
<g id="a_node3"><a xlink:href="taglib__export_8h.html" target="_top" xlink:title=" ">
<polygon fill="white" stroke="black" points="272,-56.5 272,-75.5 362,-75.5 362,-56.5 272,-56.5"/>
<text text-anchor="middle" x="317" y="-63.5" font-family="Helvetica,sans-Serif" font-size="10.00">taglib_export.h</text>
</a>
</g>
</g>
<!-- Node1&#45;&gt;Node3 -->
<g id="edge16" class="edge">
<title>Node1&#45;&gt;Node3</title>
<path fill="none" stroke="midnightblue" d="M269.06,-280.24C275.7,-271.55 285.45,-257.6 291,-244 313.15,-189.72 316.77,-119.27 317.15,-85.99"/>
<polygon fill="midnightblue" stroke="midnightblue" points="320.65,-85.87 317.17,-75.86 313.65,-85.85 320.65,-85.87"/>
</g>
<!-- Node8 -->
<g id="node8" class="node">
<title>Node8</title>
<g id="a_node8"><a xlink:href="tbytevector_8h.html" target="_top" xlink:title=" ">
<polygon fill="white" stroke="black" points="94.5,-112.5 94.5,-131.5 175.5,-131.5 175.5,-112.5 94.5,-112.5"/>
<text text-anchor="middle" x="135" y="-119.5" font-family="Helvetica,sans-Serif" font-size="10.00">tbytevector.h</text>
</a>
</g>
</g>
<!-- Node1&#45;&gt;Node8 -->
<g id="edge15" class="edge">
<title>Node1&#45;&gt;Node8</title>
<path fill="none" stroke="midnightblue" d="M255.17,-280.08C234.83,-253.49 174.43,-174.54 147.82,-139.76"/>
<polygon fill="midnightblue" stroke="midnightblue" points="150.41,-137.38 141.56,-131.57 144.85,-141.64 150.41,-137.38"/>
</g>
<!-- Node2&#45;&gt;Node3 -->
<g id="edge2" class="edge">
<title>Node2&#45;&gt;Node3</title>
<path fill="none" stroke="midnightblue" d="M264.96,-224.08C273.65,-197.83 299.26,-120.55 311,-85.12"/>
<polygon fill="midnightblue" stroke="midnightblue" points="314.34,-86.16 314.16,-75.57 307.69,-83.96 314.34,-86.16"/>
</g>
<!-- Node4 -->
<g id="node4" class="node">
<title>Node4</title>
<g id="a_node4"><a xlink:href="tstring_8h.html" target="_top" xlink:title=" ">
<polygon fill="white" stroke="black" points="201.5,-168.5 201.5,-187.5 258.5,-187.5 258.5,-168.5 201.5,-168.5"/>
<text text-anchor="middle" x="230" y="-175.5" font-family="Helvetica,sans-Serif" font-size="10.00">tstring.h</text>
</a>
</g>
</g>
<!-- Node2&#45;&gt;Node4 -->
<g id="edge3" class="edge">
<title>Node2&#45;&gt;Node4</title>
<path fill="none" stroke="midnightblue" d="M256.72,-224.08C252.29,-216.61 245.84,-205.72 240.38,-196.52"/>
<polygon fill="midnightblue" stroke="midnightblue" points="243.29,-194.57 235.19,-187.75 237.27,-198.14 243.29,-194.57"/>
</g>
<!-- Node4&#45;&gt;Node3 -->
<g id="edge4" class="edge">
<title>Node4&#45;&gt;Node3</title>
<path fill="none" stroke="midnightblue" d="M236.83,-168.37C251.25,-150.14 285.03,-107.43 303.81,-83.68"/>
<polygon fill="midnightblue" stroke="midnightblue" points="306.75,-85.61 310.2,-75.59 301.26,-81.26 306.75,-85.61"/>
</g>
<!-- Node5 -->
<g id="node5" class="node">
<title>Node5</title>
<g id="a_node5"><a xlink:href="taglib_8h.html" target="_top" xlink:title=" ">
<polygon fill="white" stroke="black" points="17.5,-56.5 17.5,-75.5 70.5,-75.5 70.5,-56.5 17.5,-56.5"/>
<text text-anchor="middle" x="44" y="-63.5" font-family="Helvetica,sans-Serif" font-size="10.00">taglib.h</text>
</a>
</g>
</g>
<!-- Node4&#45;&gt;Node5 -->
<g id="edge5" class="edge">
<title>Node4&#45;&gt;Node5</title>
<path fill="none" stroke="midnightblue" d="M201.42,-174.06C170.07,-169.58 119.61,-158.56 85,-132 69.16,-119.84 57.82,-99.68 51.14,-85.03"/>
<polygon fill="midnightblue" stroke="midnightblue" points="54.24,-83.37 47.1,-75.53 47.8,-86.11 54.24,-83.37"/>
</g>
<!-- Node7 -->
<g id="node7" class="node">
<title>Node7</title>
<g id="a_node7"><a xlink:title=" ">
<polygon fill="white" stroke="#bfbfbf" points="163,-0.5 163,-19.5 207,-19.5 207,-0.5 163,-0.5"/>
<text text-anchor="middle" x="185" y="-7.5" font-family="Helvetica,sans-Serif" font-size="10.00">string</text>
</a>
</g>
</g>
<!-- Node4&#45;&gt;Node7 -->
<g id="edge13" class="edge">
<title>Node4&#45;&gt;Node7</title>
<path fill="none" stroke="midnightblue" d="M231.3,-168.39C234,-147.99 238.75,-95.48 223,-56 218.62,-45.03 210.46,-34.8 202.82,-26.87"/>
<polygon fill="midnightblue" stroke="midnightblue" points="205.12,-24.23 195.51,-19.77 200.25,-29.25 205.12,-24.23"/>
</g>
<!-- Node4&#45;&gt;Node8 -->
<g id="edge8" class="edge">
<title>Node4&#45;&gt;Node8</title>
<path fill="none" stroke="midnightblue" d="M214.74,-168.32C199.78,-159.82 176.75,-146.73 159.27,-136.8"/>
<polygon fill="midnightblue" stroke="midnightblue" points="160.65,-133.55 150.23,-131.65 157.19,-139.64 160.65,-133.55"/>
</g>
<!-- Node10 -->
<g id="node10" class="node">
<title>Node10</title>
<g id="a_node10"><a xlink:title=" ">
<polygon fill="white" stroke="#bfbfbf" points="154,-56.5 154,-75.5 214,-75.5 214,-56.5 154,-56.5"/>
<text text-anchor="middle" x="184" y="-63.5" font-family="Helvetica,sans-Serif" font-size="10.00">iostream</text>
</a>
</g>
</g>
<!-- Node4&#45;&gt;Node10 -->
<g id="edge14" class="edge">
<title>Node4&#45;&gt;Node10</title>
<path fill="none" stroke="midnightblue" d="M226.39,-168.37C218.9,-150.46 201.53,-108.92 191.51,-84.95"/>
<polygon fill="midnightblue" stroke="midnightblue" points="194.68,-83.47 187.59,-75.59 188.22,-86.17 194.68,-83.47"/>
</g>
<!-- Node6 -->
<g id="node6" class="node">
<title>Node6</title>
<g id="a_node6"><a xlink:title=" ">
<polygon fill="white" stroke="#bfbfbf" points="0,-0.5 0,-19.5 88,-19.5 88,-0.5 0,-0.5"/>
<text text-anchor="middle" x="44" y="-7.5" font-family="Helvetica,sans-Serif" font-size="10.00">taglib_config.h</text>
</a>
</g>
</g>
<!-- Node5&#45;&gt;Node6 -->
<g id="edge6" class="edge">
<title>Node5&#45;&gt;Node6</title>
<path fill="none" stroke="midnightblue" d="M44,-56.08C44,-49.01 44,-38.86 44,-29.99"/>
<polygon fill="midnightblue" stroke="midnightblue" points="47.5,-29.75 44,-19.75 40.5,-29.75 47.5,-29.75"/>
</g>
<!-- Node5&#45;&gt;Node7 -->
<g id="edge7" class="edge">
<title>Node5&#45;&gt;Node7</title>
<path fill="none" stroke="midnightblue" d="M66.34,-56.44C89.75,-47.48 126.74,-33.31 153.19,-23.18"/>
<polygon fill="midnightblue" stroke="midnightblue" points="154.68,-26.36 162.76,-19.52 152.17,-19.82 154.68,-26.36"/>
</g>
<!-- Node8&#45;&gt;Node3 -->
<g id="edge10" class="edge">
<title>Node8&#45;&gt;Node3</title>
<path fill="none" stroke="midnightblue" d="M163.84,-112.44C194.86,-103.24 244.33,-88.56 278.62,-78.39"/>
<polygon fill="midnightblue" stroke="midnightblue" points="279.71,-81.72 288.3,-75.52 277.71,-75.01 279.71,-81.72"/>
</g>
<!-- Node8&#45;&gt;Node5 -->
<g id="edge9" class="edge">
<title>Node8&#45;&gt;Node5</title>
<path fill="none" stroke="midnightblue" d="M120.38,-112.32C106.05,-103.82 83.99,-90.73 67.25,-80.8"/>
<polygon fill="midnightblue" stroke="midnightblue" points="68.97,-77.75 58.58,-75.65 65.4,-83.77 68.97,-77.75"/>
</g>
<!-- Node9 -->
<g id="node9" class="node">
<title>Node9</title>
<g id="a_node9"><a xlink:title=" ">
<polygon fill="white" stroke="#bfbfbf" points="88.5,-56.5 88.5,-75.5 135.5,-75.5 135.5,-56.5 88.5,-56.5"/>
<text text-anchor="middle" x="112" y="-63.5" font-family="Helvetica,sans-Serif" font-size="10.00">vector</text>
</a>
</g>
</g>
<!-- Node8&#45;&gt;Node9 -->
<g id="edge11" class="edge">
<title>Node8&#45;&gt;Node9</title>
<path fill="none" stroke="midnightblue" d="M131.2,-112.08C128.09,-104.77 123.58,-94.18 119.71,-85.1"/>
<polygon fill="midnightblue" stroke="midnightblue" points="122.87,-83.58 115.73,-75.75 116.43,-86.32 122.87,-83.58"/>
</g>
<!-- Node8&#45;&gt;Node10 -->
<g id="edge12" class="edge">
<title>Node8&#45;&gt;Node10</title>
<path fill="none" stroke="midnightblue" d="M143.09,-112.08C150.16,-104.3 160.59,-92.8 169.15,-83.37"/>
<polygon fill="midnightblue" stroke="midnightblue" points="171.93,-85.51 176.06,-75.75 166.75,-80.8 171.93,-85.51"/>
</g>
</g>
</svg>
