<?xml version="1.0" encoding="UTF-8" standalone="no"?>
<!DOCTYPE svg PUBLIC "-//W3C//DTD SVG 1.1//EN"
 "http://www.w3.org/Graphics/SVG/1.1/DTD/svg11.dtd">
<!-- Generated by graphviz version 2.46.1 (20210213.1702)
 -->
<!-- Title: id3v2frame.h Pages: 1 -->
<svg width="314pt" height="252pt"
 viewBox="0.00 0.00 313.50 252.00" xmlns="http://www.w3.org/2000/svg" xmlns:xlink="http://www.w3.org/1999/xlink">
<g id="graph0" class="graph" transform="scale(1 1) rotate(0) translate(4 248)">
<title>id3v2frame.h</title>
<polygon fill="white" stroke="transparent" points="-4,4 -4,-248 309.5,-248 309.5,4 -4,4"/>
<!-- Node1 -->
<g id="node1" class="node">
<title>Node1</title>
<g id="a_node1"><a xlink:title=" ">
<polygon fill="#bfbfbf" stroke="black" points="106.5,-224.5 106.5,-243.5 179.5,-243.5 179.5,-224.5 106.5,-224.5"/>
<text text-anchor="middle" x="143" y="-231.5" font-family="Helvetica,sans-Serif" font-size="10.00">id3v2frame.h</text>
</a>
</g>
</g>
<!-- Node2 -->
<g id="node2" class="node">
<title>Node2</title>
<g id="a_node2"><a xlink:href="tstring_8h.html" target="_top" xlink:title=" ">
<polygon fill="white" stroke="black" points="176,-168.5 176,-187.5 228,-187.5 228,-168.5 176,-168.5"/>
<text text-anchor="middle" x="202" y="-175.5" font-family="Helvetica,sans-Serif" font-size="10.00">tstring.h</text>
</a>
</g>
</g>
<!-- Node1&#45;&gt;Node2 -->
<g id="edge1" class="edge">
<title>Node1&#45;&gt;Node2</title>
<path fill="none" stroke="midnightblue" d="M152.48,-224.32C161.2,-216.34 174.34,-204.31 184.9,-194.65"/>
<polygon fill="midnightblue" stroke="midnightblue" points="187.33,-197.17 192.35,-187.83 182.61,-192 187.33,-197.17"/>
</g>
<!-- Node3 -->
<g id="node3" class="node">
<title>Node3</title>
<g id="a_node3"><a xlink:href="taglib__export_8h.html" target="_top" xlink:title=" ">
<polygon fill="white" stroke="black" points="0,-56.5 0,-75.5 80,-75.5 80,-56.5 0,-56.5"/>
<text text-anchor="middle" x="40" y="-63.5" font-family="Helvetica,sans-Serif" font-size="10.00">taglib_export.h</text>
</a>
</g>
</g>
<!-- Node1&#45;&gt;Node3 -->
<g id="edge14" class="edge">
<title>Node1&#45;&gt;Node3</title>
<path fill="none" stroke="midnightblue" d="M136.25,-224.39C123.04,-207.33 93.2,-167.77 72,-132 62.89,-116.63 54.04,-98.31 47.96,-85.04"/>
<polygon fill="midnightblue" stroke="midnightblue" points="51.03,-83.32 43.73,-75.64 44.64,-86.19 51.03,-83.32"/>
</g>
<!-- Node7 -->
<g id="node7" class="node">
<title>Node7</title>
<g id="a_node7"><a xlink:href="tbytevector_8h.html" target="_top" xlink:title=" ">
<polygon fill="white" stroke="black" points="106.5,-112.5 106.5,-131.5 179.5,-131.5 179.5,-112.5 106.5,-112.5"/>
<text text-anchor="middle" x="143" y="-119.5" font-family="Helvetica,sans-Serif" font-size="10.00">tbytevector.h</text>
</a>
</g>
</g>
<!-- Node1&#45;&gt;Node7 -->
<g id="edge13" class="edge">
<title>Node1&#45;&gt;Node7</title>
<path fill="none" stroke="midnightblue" d="M143,-224.37C143,-206.62 143,-165.67 143,-141.6"/>
<polygon fill="midnightblue" stroke="midnightblue" points="146.5,-141.59 143,-131.59 139.5,-141.59 146.5,-141.59"/>
</g>
<!-- Node2&#45;&gt;Node3 -->
<g id="edge2" class="edge">
<title>Node2&#45;&gt;Node3</title>
<path fill="none" stroke="midnightblue" d="M175.73,-169.38C153.41,-162.09 121.24,-149.59 97,-132 78.67,-118.69 62.14,-98.48 51.66,-84.13"/>
<polygon fill="midnightblue" stroke="midnightblue" points="54.32,-81.83 45.69,-75.68 48.6,-85.87 54.32,-81.83"/>
</g>
<!-- Node4 -->
<g id="node4" class="node">
<title>Node4</title>
<g id="a_node4"><a xlink:href="taglib_8h.html" target="_top" xlink:title=" ">
<polygon fill="white" stroke="black" points="160,-56.5 160,-75.5 208,-75.5 208,-56.5 160,-56.5"/>
<text text-anchor="middle" x="184" y="-63.5" font-family="Helvetica,sans-Serif" font-size="10.00">taglib.h</text>
</a>
</g>
</g>
<!-- Node2&#45;&gt;Node4 -->
<g id="edge3" class="edge">
<title>Node2&#45;&gt;Node4</title>
<path fill="none" stroke="midnightblue" d="M200.59,-168.37C197.68,-150.62 190.98,-109.67 187.04,-85.6"/>
<polygon fill="midnightblue" stroke="midnightblue" points="190.47,-84.89 185.41,-75.59 183.57,-86.03 190.47,-84.89"/>
</g>
<!-- Node6 -->
<g id="node6" class="node">
<title>Node6</title>
<g id="a_node6"><a xlink:title=" ">
<polygon fill="white" stroke="#bfbfbf" points="264.5,-0.5 264.5,-19.5 305.5,-19.5 305.5,-0.5 264.5,-0.5"/>
<text text-anchor="middle" x="285" y="-7.5" font-family="Helvetica,sans-Serif" font-size="10.00">string</text>
</a>
</g>
</g>
<!-- Node2&#45;&gt;Node6 -->
<g id="edge11" class="edge">
<title>Node2&#45;&gt;Node6</title>
<path fill="none" stroke="midnightblue" d="M213.68,-168.31C233.75,-152.57 274.04,-117.1 289,-76 294.44,-61.06 292.7,-42.92 290.02,-29.6"/>
<polygon fill="midnightblue" stroke="midnightblue" points="293.39,-28.66 287.69,-19.73 286.58,-30.27 293.39,-28.66"/>
</g>
<!-- Node2&#45;&gt;Node7 -->
<g id="edge6" class="edge">
<title>Node2&#45;&gt;Node7</title>
<path fill="none" stroke="midnightblue" d="M192.52,-168.32C183.8,-160.34 170.66,-148.31 160.1,-138.65"/>
<polygon fill="midnightblue" stroke="midnightblue" points="162.39,-136 152.65,-131.83 157.67,-141.17 162.39,-136"/>
</g>
<!-- Node9 -->
<g id="node9" class="node">
<title>Node9</title>
<g id="a_node9"><a xlink:title=" ">
<polygon fill="white" stroke="#bfbfbf" points="226,-56.5 226,-75.5 280,-75.5 280,-56.5 226,-56.5"/>
<text text-anchor="middle" x="253" y="-63.5" font-family="Helvetica,sans-Serif" font-size="10.00">iostream</text>
</a>
</g>
</g>
<!-- Node2&#45;&gt;Node9 -->
<g id="edge12" class="edge">
<title>Node2&#45;&gt;Node9</title>
<path fill="none" stroke="midnightblue" d="M206,-168.37C214.31,-150.46 233.56,-108.92 244.68,-84.95"/>
<polygon fill="midnightblue" stroke="midnightblue" points="247.99,-86.14 249.02,-75.59 241.64,-83.19 247.99,-86.14"/>
</g>
<!-- Node5 -->
<g id="node5" class="node">
<title>Node5</title>
<g id="a_node5"><a xlink:title=" ">
<polygon fill="white" stroke="#bfbfbf" points="144,-0.5 144,-19.5 224,-19.5 224,-0.5 144,-0.5"/>
<text text-anchor="middle" x="184" y="-7.5" font-family="Helvetica,sans-Serif" font-size="10.00">taglib_config.h</text>
</a>
</g>
</g>
<!-- Node4&#45;&gt;Node5 -->
<g id="edge4" class="edge">
<title>Node4&#45;&gt;Node5</title>
<path fill="none" stroke="midnightblue" d="M184,-56.08C184,-49.01 184,-38.86 184,-29.99"/>
<polygon fill="midnightblue" stroke="midnightblue" points="187.5,-29.75 184,-19.75 180.5,-29.75 187.5,-29.75"/>
</g>
<!-- Node4&#45;&gt;Node6 -->
<g id="edge5" class="edge">
<title>Node4&#45;&gt;Node6</title>
<path fill="none" stroke="midnightblue" d="M200.23,-56.32C216.35,-47.7 241.3,-34.36 259.96,-24.39"/>
<polygon fill="midnightblue" stroke="midnightblue" points="261.64,-27.46 268.81,-19.65 258.34,-21.28 261.64,-27.46"/>
</g>
<!-- Node7&#45;&gt;Node3 -->
<g id="edge8" class="edge">
<title>Node7&#45;&gt;Node3</title>
<path fill="none" stroke="midnightblue" d="M126.45,-112.32C110.01,-103.7 84.57,-90.36 65.53,-80.39"/>
<polygon fill="midnightblue" stroke="midnightblue" points="66.99,-77.2 56.51,-75.65 63.74,-83.4 66.99,-77.2"/>
</g>
<!-- Node7&#45;&gt;Node4 -->
<g id="edge7" class="edge">
<title>Node7&#45;&gt;Node4</title>
<path fill="none" stroke="midnightblue" d="M149.77,-112.08C155.56,-104.46 164.06,-93.26 171.14,-83.94"/>
<polygon fill="midnightblue" stroke="midnightblue" points="174.1,-85.83 177.36,-75.75 168.52,-81.6 174.1,-85.83"/>
</g>
<!-- Node8 -->
<g id="node8" class="node">
<title>Node8</title>
<g id="a_node8"><a xlink:title=" ">
<polygon fill="white" stroke="#bfbfbf" points="98,-56.5 98,-75.5 142,-75.5 142,-56.5 98,-56.5"/>
<text text-anchor="middle" x="120" y="-63.5" font-family="Helvetica,sans-Serif" font-size="10.00">vector</text>
</a>
</g>
</g>
<!-- Node7&#45;&gt;Node8 -->
<g id="edge9" class="edge">
<title>Node7&#45;&gt;Node8</title>
<path fill="none" stroke="midnightblue" d="M139.2,-112.08C136.09,-104.77 131.58,-94.18 127.71,-85.1"/>
<polygon fill="midnightblue" stroke="midnightblue" points="130.87,-83.58 123.73,-75.75 124.43,-86.32 130.87,-83.58"/>
</g>
<!-- Node7&#45;&gt;Node9 -->
<g id="edge10" class="edge">
<title>Node7&#45;&gt;Node9</title>
<path fill="none" stroke="midnightblue" d="M160.67,-112.32C178.39,-103.62 205.9,-90.12 226.29,-80.11"/>
<polygon fill="midnightblue" stroke="midnightblue" points="227.94,-83.2 235.37,-75.65 224.85,-76.92 227.94,-83.2"/>
</g>
</g>
</svg>
