<?xml version="1.0" encoding="UTF-8" standalone="no"?>
<!DOCTYPE svg PUBLIC "-//W3C//DTD SVG 1.1//EN"
 "http://www.w3.org/Graphics/SVG/1.1/DTD/svg11.dtd">
<!-- Generated by graphviz version 2.43.0 (0)
 -->
<!-- Title: id3v2synchdata.h Pages: 1 -->
<svg width="373pt" height="196pt"
 viewBox="0.00 0.00 373.00 196.00" xmlns="http://www.w3.org/2000/svg" xmlns:xlink="http://www.w3.org/1999/xlink">
<g id="graph0" class="graph" transform="scale(1 1) rotate(0) translate(4 192)">
<title>id3v2synchdata.h</title>
<polygon fill="white" stroke="transparent" points="-4,4 -4,-192 369,-192 369,4 -4,4"/>
<!-- Node1 -->
<g id="node1" class="node">
<title>Node1</title>
<g id="a_node1"><a xlink:title=" ">
<polygon fill="#bfbfbf" stroke="black" points="79.5,-168.5 79.5,-187.5 182.5,-187.5 182.5,-168.5 79.5,-168.5"/>
<text text-anchor="middle" x="131" y="-175.5" font-family="Helvetica,sans-Serif" font-size="10.00">id3v2synchdata.h</text>
</a>
</g>
</g>
<!-- Node2 -->
<g id="node2" class="node">
<title>Node2</title>
<g id="a_node2"><a xlink:href="tbytevector_8h.html" target="_top" xlink:title=" ">
<polygon fill="white" stroke="black" points="135.5,-112.5 135.5,-131.5 216.5,-131.5 216.5,-112.5 135.5,-112.5"/>
<text text-anchor="middle" x="176" y="-119.5" font-family="Helvetica,sans-Serif" font-size="10.00">tbytevector.h</text>
</a>
</g>
</g>
<!-- Node1&#45;&gt;Node2 -->
<g id="edge1" class="edge">
<title>Node1&#45;&gt;Node2</title>
<path fill="none" stroke="midnightblue" d="M138.43,-168.08C144.85,-160.38 154.31,-149.03 162.12,-139.65"/>
<polygon fill="midnightblue" stroke="midnightblue" points="164.99,-141.67 168.71,-131.75 159.62,-137.19 164.99,-141.67"/>
</g>
<!-- Node3 -->
<g id="node3" class="node">
<title>Node3</title>
<g id="a_node3"><a xlink:href="taglib_8h.html" target="_top" xlink:title=" ">
<polygon fill="white" stroke="black" points="59.5,-56.5 59.5,-75.5 112.5,-75.5 112.5,-56.5 59.5,-56.5"/>
<text text-anchor="middle" x="86" y="-63.5" font-family="Helvetica,sans-Serif" font-size="10.00">taglib.h</text>
</a>
</g>
</g>
<!-- Node1&#45;&gt;Node3 -->
<g id="edge8" class="edge">
<title>Node1&#45;&gt;Node3</title>
<path fill="none" stroke="midnightblue" d="M127.47,-168.37C120.14,-150.46 103.15,-108.92 93.34,-84.95"/>
<polygon fill="midnightblue" stroke="midnightblue" points="96.54,-83.52 89.51,-75.59 90.06,-86.17 96.54,-83.52"/>
</g>
<!-- Node2&#45;&gt;Node3 -->
<g id="edge2" class="edge">
<title>Node2&#45;&gt;Node3</title>
<path fill="none" stroke="midnightblue" d="M161.54,-112.32C147.5,-103.9 125.95,-90.97 109.46,-81.07"/>
<polygon fill="midnightblue" stroke="midnightblue" points="110.8,-77.8 100.42,-75.65 107.2,-83.8 110.8,-77.8"/>
</g>
<!-- Node6 -->
<g id="node6" class="node">
<title>Node6</title>
<g id="a_node6"><a xlink:href="taglib__export_8h.html" target="_top" xlink:title=" ">
<polygon fill="white" stroke="black" points="131,-56.5 131,-75.5 221,-75.5 221,-56.5 131,-56.5"/>
<text text-anchor="middle" x="176" y="-63.5" font-family="Helvetica,sans-Serif" font-size="10.00">taglib_export.h</text>
</a>
</g>
</g>
<!-- Node2&#45;&gt;Node6 -->
<g id="edge5" class="edge">
<title>Node2&#45;&gt;Node6</title>
<path fill="none" stroke="midnightblue" d="M176,-112.08C176,-105.01 176,-94.86 176,-85.99"/>
<polygon fill="midnightblue" stroke="midnightblue" points="179.5,-85.75 176,-75.75 172.5,-85.75 179.5,-85.75"/>
</g>
<!-- Node7 -->
<g id="node7" class="node">
<title>Node7</title>
<g id="a_node7"><a xlink:title=" ">
<polygon fill="white" stroke="#bfbfbf" points="239.5,-56.5 239.5,-75.5 286.5,-75.5 286.5,-56.5 239.5,-56.5"/>
<text text-anchor="middle" x="263" y="-63.5" font-family="Helvetica,sans-Serif" font-size="10.00">vector</text>
</a>
</g>
</g>
<!-- Node2&#45;&gt;Node7 -->
<g id="edge6" class="edge">
<title>Node2&#45;&gt;Node7</title>
<path fill="none" stroke="midnightblue" d="M189.98,-112.32C203.55,-103.9 224.38,-90.97 240.32,-81.07"/>
<polygon fill="midnightblue" stroke="midnightblue" points="242.41,-83.9 249.06,-75.65 238.71,-77.95 242.41,-83.9"/>
</g>
<!-- Node8 -->
<g id="node8" class="node">
<title>Node8</title>
<g id="a_node8"><a xlink:title=" ">
<polygon fill="white" stroke="#bfbfbf" points="305,-56.5 305,-75.5 365,-75.5 365,-56.5 305,-56.5"/>
<text text-anchor="middle" x="335" y="-63.5" font-family="Helvetica,sans-Serif" font-size="10.00">iostream</text>
</a>
</g>
</g>
<!-- Node2&#45;&gt;Node8 -->
<g id="edge7" class="edge">
<title>Node2&#45;&gt;Node8</title>
<path fill="none" stroke="midnightblue" d="M201.19,-112.44C227.94,-103.36 270.4,-88.94 300.31,-78.78"/>
<polygon fill="midnightblue" stroke="midnightblue" points="301.58,-82.05 309.92,-75.52 299.33,-75.42 301.58,-82.05"/>
</g>
<!-- Node4 -->
<g id="node4" class="node">
<title>Node4</title>
<g id="a_node4"><a xlink:title=" ">
<polygon fill="white" stroke="#bfbfbf" points="0,-0.5 0,-19.5 88,-19.5 88,-0.5 0,-0.5"/>
<text text-anchor="middle" x="44" y="-7.5" font-family="Helvetica,sans-Serif" font-size="10.00">taglib_config.h</text>
</a>
</g>
</g>
<!-- Node3&#45;&gt;Node4 -->
<g id="edge3" class="edge">
<title>Node3&#45;&gt;Node4</title>
<path fill="none" stroke="midnightblue" d="M79.06,-56.08C73.07,-48.38 64.25,-37.03 56.95,-27.65"/>
<polygon fill="midnightblue" stroke="midnightblue" points="59.71,-25.5 50.81,-19.75 54.18,-29.79 59.71,-25.5"/>
</g>
<!-- Node5 -->
<g id="node5" class="node">
<title>Node5</title>
<g id="a_node5"><a xlink:title=" ">
<polygon fill="white" stroke="#bfbfbf" points="106,-0.5 106,-19.5 150,-19.5 150,-0.5 106,-0.5"/>
<text text-anchor="middle" x="128" y="-7.5" font-family="Helvetica,sans-Serif" font-size="10.00">string</text>
</a>
</g>
</g>
<!-- Node3&#45;&gt;Node5 -->
<g id="edge4" class="edge">
<title>Node3&#45;&gt;Node5</title>
<path fill="none" stroke="midnightblue" d="M92.94,-56.08C98.93,-48.38 107.75,-37.03 115.05,-27.65"/>
<polygon fill="midnightblue" stroke="midnightblue" points="117.82,-29.79 121.19,-19.75 112.29,-25.5 117.82,-29.79"/>
</g>
</g>
</svg>
