<?xml version="1.0" encoding="UTF-8" standalone="no"?>
<!DOCTYPE svg PUBLIC "-//W3C//DTD SVG 1.1//EN"
 "http://www.w3.org/Graphics/SVG/1.1/DTD/svg11.dtd">
<!-- Generated by graphviz version 2.43.0 (0)
 -->
<!-- Title: infotag.h Pages: 1 -->
<svg width="821pt" height="308pt"
 viewBox="0.00 0.00 821.31 308.00" xmlns="http://www.w3.org/2000/svg" xmlns:xlink="http://www.w3.org/1999/xlink">
<g id="graph0" class="graph" transform="scale(1 1) rotate(0) translate(4 304)">
<title>infotag.h</title>
<polygon fill="white" stroke="transparent" points="-4,4 -4,-304 817.31,-304 817.31,4 -4,4"/>
<!-- Node1 -->
<g id="node1" class="node">
<title>Node1</title>
<g id="a_node1"><a xlink:title=" ">
<polygon fill="#bfbfbf" stroke="black" points="310.31,-280.5 310.31,-299.5 370.31,-299.5 370.31,-280.5 310.31,-280.5"/>
<text text-anchor="middle" x="340.31" y="-287.5" font-family="Helvetica,sans-Serif" font-size="10.00">infotag.h</text>
</a>
</g>
</g>
<!-- Node2 -->
<g id="node2" class="node">
<title>Node2</title>
<g id="a_node2"><a xlink:href="tmap_8h.html" target="_top" xlink:title=" ">
<polygon fill="white" stroke="black" points="310.81,-112.5 310.81,-131.5 361.81,-131.5 361.81,-112.5 310.81,-112.5"/>
<text text-anchor="middle" x="336.31" y="-119.5" font-family="Helvetica,sans-Serif" font-size="10.00">tmap.h</text>
</a>
</g>
</g>
<!-- Node1&#45;&gt;Node2 -->
<g id="edge1" class="edge">
<title>Node1&#45;&gt;Node2</title>
<path fill="none" stroke="midnightblue" d="M336.97,-280.2C333.76,-271.24 329.14,-256.88 327.31,-244 322.21,-207.97 328.09,-165.48 332.46,-141.64"/>
<polygon fill="midnightblue" stroke="midnightblue" points="335.95,-142.04 334.43,-131.55 329.08,-140.7 335.95,-142.04"/>
</g>
<!-- Node12 -->
<g id="node12" class="node">
<title>Node12</title>
<g id="a_node12"><a xlink:href="tstring_8h.html" target="_top" xlink:title=" ">
<polygon fill="white" stroke="black" points="222.81,-168.5 222.81,-187.5 279.81,-187.5 279.81,-168.5 222.81,-168.5"/>
<text text-anchor="middle" x="251.31" y="-175.5" font-family="Helvetica,sans-Serif" font-size="10.00">tstring.h</text>
</a>
</g>
</g>
<!-- Node1&#45;&gt;Node12 -->
<g id="edge11" class="edge">
<title>Node1&#45;&gt;Node12</title>
<path fill="none" stroke="midnightblue" d="M330.19,-280.25C320.44,-271.56 305.56,-257.61 294.31,-244 281.83,-228.89 269.71,-210.07 261.54,-196.58"/>
<polygon fill="midnightblue" stroke="midnightblue" points="264.45,-194.63 256.33,-187.82 258.43,-198.2 264.45,-194.63"/>
</g>
<!-- Node14 -->
<g id="node14" class="node">
<title>Node14</title>
<g id="a_node14"><a xlink:href="tbytevector_8h.html" target="_top" xlink:title=" ">
<polygon fill="white" stroke="black" points="210.81,-112.5 210.81,-131.5 291.81,-131.5 291.81,-112.5 210.81,-112.5"/>
<text text-anchor="middle" x="251.31" y="-119.5" font-family="Helvetica,sans-Serif" font-size="10.00">tbytevector.h</text>
</a>
</g>
</g>
<!-- Node1&#45;&gt;Node14 -->
<g id="edge36" class="edge">
<title>Node1&#45;&gt;Node14</title>
<path fill="none" stroke="midnightblue" d="M319.96,-280.27C289.87,-266.05 234.84,-234.71 214.31,-188 206.61,-170.48 220.05,-151.58 232.83,-138.71"/>
<polygon fill="midnightblue" stroke="midnightblue" points="235.59,-140.92 240.51,-131.53 230.82,-135.8 235.59,-140.92"/>
</g>
<!-- Node16 -->
<g id="node16" class="node">
<title>Node16</title>
<g id="a_node16"><a xlink:href="taglib__export_8h.html" target="_top" xlink:title=" ">
<polygon fill="white" stroke="black" points="723.31,-56.5 723.31,-75.5 813.31,-75.5 813.31,-56.5 723.31,-56.5"/>
<text text-anchor="middle" x="768.31" y="-63.5" font-family="Helvetica,sans-Serif" font-size="10.00">taglib_export.h</text>
</a>
</g>
</g>
<!-- Node1&#45;&gt;Node16 -->
<g id="edge37" class="edge">
<title>Node1&#45;&gt;Node16</title>
<path fill="none" stroke="midnightblue" d="M370.37,-286.71C412.64,-282.59 491.31,-271.63 552.31,-244 640.22,-204.19 722.01,-119.28 754.05,-83.47"/>
<polygon fill="midnightblue" stroke="midnightblue" points="756.78,-85.67 760.77,-75.86 751.53,-81.04 756.78,-85.67"/>
</g>
<!-- Node17 -->
<g id="node17" class="node">
<title>Node17</title>
<g id="a_node17"><a xlink:href="tstringlist_8h.html" target="_top" xlink:title=" ">
<polygon fill="white" stroke="black" points="336.31,-224.5 336.31,-243.5 408.31,-243.5 408.31,-224.5 336.31,-224.5"/>
<text text-anchor="middle" x="372.31" y="-231.5" font-family="Helvetica,sans-Serif" font-size="10.00">tstringlist.h</text>
</a>
</g>
</g>
<!-- Node1&#45;&gt;Node17 -->
<g id="edge22" class="edge">
<title>Node1&#45;&gt;Node17</title>
<path fill="none" stroke="midnightblue" d="M345.6,-280.08C350.03,-272.61 356.48,-261.72 361.93,-252.52"/>
<polygon fill="midnightblue" stroke="midnightblue" points="365.04,-254.14 367.13,-243.75 359.02,-250.57 365.04,-254.14"/>
</g>
<!-- Node22 -->
<g id="node22" class="node">
<title>Node22</title>
<g id="a_node22"><a xlink:href="tag_8h.html" target="_top" xlink:title=" ">
<polygon fill="white" stroke="black" points="501.81,-224.5 501.81,-243.5 542.81,-243.5 542.81,-224.5 501.81,-224.5"/>
<text text-anchor="middle" x="522.31" y="-231.5" font-family="Helvetica,sans-Serif" font-size="10.00">tag.h</text>
</a>
</g>
</g>
<!-- Node1&#45;&gt;Node22 -->
<g id="edge38" class="edge">
<title>Node1&#45;&gt;Node22</title>
<path fill="none" stroke="midnightblue" d="M369.15,-280.44C402.67,-270.5 457.74,-254.16 491.91,-244.02"/>
<polygon fill="midnightblue" stroke="midnightblue" points="493.21,-247.29 501.8,-241.09 491.22,-240.58 493.21,-247.29"/>
</g>
<!-- Node3 -->
<g id="node3" class="node">
<title>Node3</title>
<g id="a_node3"><a xlink:title=" ">
<polygon fill="white" stroke="#bfbfbf" points="227.31,-56.5 227.31,-75.5 265.31,-75.5 265.31,-56.5 227.31,-56.5"/>
<text text-anchor="middle" x="246.31" y="-63.5" font-family="Helvetica,sans-Serif" font-size="10.00">map</text>
</a>
</g>
</g>
<!-- Node2&#45;&gt;Node3 -->
<g id="edge2" class="edge">
<title>Node2&#45;&gt;Node3</title>
<path fill="none" stroke="midnightblue" d="M321.85,-112.32C307.81,-103.9 286.27,-90.97 269.77,-81.07"/>
<polygon fill="midnightblue" stroke="midnightblue" points="271.11,-77.8 260.74,-75.65 267.51,-83.8 271.11,-77.8"/>
</g>
<!-- Node4 -->
<g id="node4" class="node">
<title>Node4</title>
<g id="a_node4"><a xlink:title=" ">
<polygon fill="white" stroke="#bfbfbf" points="283.31,-56.5 283.31,-75.5 341.31,-75.5 341.31,-56.5 283.31,-56.5"/>
<text text-anchor="middle" x="312.31" y="-63.5" font-family="Helvetica,sans-Serif" font-size="10.00">memory</text>
</a>
</g>
</g>
<!-- Node2&#45;&gt;Node4 -->
<g id="edge3" class="edge">
<title>Node2&#45;&gt;Node4</title>
<path fill="none" stroke="midnightblue" d="M332.35,-112.08C329.1,-104.77 324.4,-94.18 320.36,-85.1"/>
<polygon fill="midnightblue" stroke="midnightblue" points="323.46,-83.47 316.2,-75.75 317.07,-86.31 323.46,-83.47"/>
</g>
<!-- Node5 -->
<g id="node5" class="node">
<title>Node5</title>
<g id="a_node5"><a xlink:title=" ">
<polygon fill="white" stroke="#bfbfbf" points="499.81,-56.5 499.81,-75.5 582.81,-75.5 582.81,-56.5 499.81,-56.5"/>
<text text-anchor="middle" x="541.31" y="-63.5" font-family="Helvetica,sans-Serif" font-size="10.00">initializer_list</text>
</a>
</g>
</g>
<!-- Node2&#45;&gt;Node5 -->
<g id="edge4" class="edge">
<title>Node2&#45;&gt;Node5</title>
<path fill="none" stroke="midnightblue" d="M361.86,-114.27C396.27,-105.21 457.94,-88.96 499.24,-78.08"/>
<polygon fill="midnightblue" stroke="midnightblue" points="500.24,-81.44 509.02,-75.51 498.46,-74.67 500.24,-81.44"/>
</g>
<!-- Node6 -->
<g id="node6" class="node">
<title>Node6</title>
<g id="a_node6"><a xlink:title=" ">
<polygon fill="white" stroke="#bfbfbf" points="359.81,-56.5 359.81,-75.5 404.81,-75.5 404.81,-56.5 359.81,-56.5"/>
<text text-anchor="middle" x="382.31" y="-63.5" font-family="Helvetica,sans-Serif" font-size="10.00">utility</text>
</a>
</g>
</g>
<!-- Node2&#45;&gt;Node6 -->
<g id="edge5" class="edge">
<title>Node2&#45;&gt;Node6</title>
<path fill="none" stroke="midnightblue" d="M343.91,-112.08C350.54,-104.3 360.34,-92.8 368.37,-83.37"/>
<polygon fill="midnightblue" stroke="midnightblue" points="371.04,-85.63 374.86,-75.75 365.71,-81.09 371.04,-85.63"/>
</g>
<!-- Node7 -->
<g id="node7" class="node">
<title>Node7</title>
<g id="a_node7"><a xlink:href="taglib_8h.html" target="_top" xlink:title=" ">
<polygon fill="white" stroke="black" points="155.81,-56.5 155.81,-75.5 208.81,-75.5 208.81,-56.5 155.81,-56.5"/>
<text text-anchor="middle" x="182.31" y="-63.5" font-family="Helvetica,sans-Serif" font-size="10.00">taglib.h</text>
</a>
</g>
</g>
<!-- Node2&#45;&gt;Node7 -->
<g id="edge6" class="edge">
<title>Node2&#45;&gt;Node7</title>
<path fill="none" stroke="midnightblue" d="M311.91,-112.44C286.12,-103.4 245.24,-89.06 216.3,-78.92"/>
<polygon fill="midnightblue" stroke="midnightblue" points="217.2,-75.52 206.6,-75.52 214.88,-82.13 217.2,-75.52"/>
</g>
<!-- Node11 -->
<g id="node11" class="node">
<title>Node11</title>
<g id="a_node11"><a xlink:title=" ">
<polygon fill="white" stroke="#bfbfbf" points="422.81,-56.5 422.81,-75.5 481.81,-75.5 481.81,-56.5 422.81,-56.5"/>
<text text-anchor="middle" x="452.31" y="-63.5" font-family="Helvetica,sans-Serif" font-size="10.00">tmap.tcc</text>
</a>
</g>
</g>
<!-- Node2&#45;&gt;Node11 -->
<g id="edge10" class="edge">
<title>Node2&#45;&gt;Node11</title>
<path fill="none" stroke="midnightblue" d="M354.7,-112.44C373.53,-103.68 403.05,-89.94 424.69,-79.86"/>
<polygon fill="midnightblue" stroke="midnightblue" points="426.43,-82.91 434.02,-75.52 423.48,-76.56 426.43,-82.91"/>
</g>
<!-- Node8 -->
<g id="node8" class="node">
<title>Node8</title>
<g id="a_node8"><a xlink:title=" ">
<polygon fill="white" stroke="#bfbfbf" points="187.31,-0.5 187.31,-19.5 275.31,-19.5 275.31,-0.5 187.31,-0.5"/>
<text text-anchor="middle" x="231.31" y="-7.5" font-family="Helvetica,sans-Serif" font-size="10.00">taglib_config.h</text>
</a>
</g>
</g>
<!-- Node7&#45;&gt;Node8 -->
<g id="edge7" class="edge">
<title>Node7&#45;&gt;Node8</title>
<path fill="none" stroke="midnightblue" d="M190.41,-56.08C197.47,-48.3 207.9,-36.8 216.46,-27.37"/>
<polygon fill="midnightblue" stroke="midnightblue" points="219.25,-29.51 223.37,-19.75 214.06,-24.8 219.25,-29.51"/>
</g>
<!-- Node9 -->
<g id="node9" class="node">
<title>Node9</title>
<g id="a_node9"><a xlink:title=" ">
<polygon fill="white" stroke="#bfbfbf" points="97.31,-0.5 97.31,-19.5 169.31,-19.5 169.31,-0.5 97.31,-0.5"/>
<text text-anchor="middle" x="133.31" y="-7.5" font-family="Helvetica,sans-Serif" font-size="10.00">sys/types.h</text>
</a>
</g>
</g>
<!-- Node7&#45;&gt;Node9 -->
<g id="edge8" class="edge">
<title>Node7&#45;&gt;Node9</title>
<path fill="none" stroke="midnightblue" d="M174.22,-56.08C167.16,-48.3 156.73,-36.8 148.17,-27.37"/>
<polygon fill="midnightblue" stroke="midnightblue" points="150.57,-24.8 141.26,-19.75 145.38,-29.51 150.57,-24.8"/>
</g>
<!-- Node10 -->
<g id="node10" class="node">
<title>Node10</title>
<g id="a_node10"><a xlink:title=" ">
<polygon fill="white" stroke="#bfbfbf" points="23.31,-0.5 23.31,-19.5 67.31,-19.5 67.31,-0.5 23.31,-0.5"/>
<text text-anchor="middle" x="45.31" y="-7.5" font-family="Helvetica,sans-Serif" font-size="10.00">string</text>
</a>
</g>
</g>
<!-- Node7&#45;&gt;Node10 -->
<g id="edge9" class="edge">
<title>Node7&#45;&gt;Node10</title>
<path fill="none" stroke="midnightblue" d="M160.61,-56.44C137.96,-47.52 102.24,-33.44 76.56,-23.32"/>
<polygon fill="midnightblue" stroke="midnightblue" points="77.51,-19.93 66.92,-19.52 74.94,-26.44 77.51,-19.93"/>
</g>
<!-- Node12&#45;&gt;Node7 -->
<g id="edge21" class="edge">
<title>Node12&#45;&gt;Node7</title>
<path fill="none" stroke="midnightblue" d="M238.7,-168.42C227.61,-160.27 211.81,-147.04 202.31,-132 193.35,-117.81 188.18,-99.33 185.34,-85.7"/>
<polygon fill="midnightblue" stroke="midnightblue" points="188.74,-84.8 183.49,-75.6 181.85,-86.07 188.74,-84.8"/>
</g>
<!-- Node12&#45;&gt;Node10 -->
<g id="edge13" class="edge">
<title>Node12&#45;&gt;Node10</title>
<path fill="none" stroke="midnightblue" d="M222.5,-175.93C167.14,-172.09 47.5,-154.62 3.31,-76 -6.57,-58.41 9.6,-39.09 24.65,-26.12"/>
<polygon fill="midnightblue" stroke="midnightblue" points="27.13,-28.62 32.73,-19.62 22.75,-23.16 27.13,-28.62"/>
</g>
<!-- Node13 -->
<g id="node13" class="node">
<title>Node13</title>
<g id="a_node13"><a xlink:title=" ">
<polygon fill="white" stroke="#bfbfbf" points="12.31,-56.5 12.31,-75.5 72.31,-75.5 72.31,-56.5 12.31,-56.5"/>
<text text-anchor="middle" x="42.31" y="-63.5" font-family="Helvetica,sans-Serif" font-size="10.00">iostream</text>
</a>
</g>
</g>
<!-- Node12&#45;&gt;Node13 -->
<g id="edge12" class="edge">
<title>Node12&#45;&gt;Node13</title>
<path fill="none" stroke="midnightblue" d="M222.46,-168.78C197.31,-161.04 160.27,-148.22 130.31,-132 104.14,-117.83 77.04,-96.66 59.95,-82.36"/>
<polygon fill="midnightblue" stroke="midnightblue" points="61.87,-79.4 51.99,-75.58 57.34,-84.73 61.87,-79.4"/>
</g>
<!-- Node12&#45;&gt;Node14 -->
<g id="edge14" class="edge">
<title>Node12&#45;&gt;Node14</title>
<path fill="none" stroke="midnightblue" d="M251.31,-168.08C251.31,-161.01 251.31,-150.86 251.31,-141.99"/>
<polygon fill="midnightblue" stroke="midnightblue" points="254.81,-141.75 251.31,-131.75 247.81,-141.75 254.81,-141.75"/>
</g>
<!-- Node12&#45;&gt;Node16 -->
<g id="edge20" class="edge">
<title>Node12&#45;&gt;Node16</title>
<path fill="none" stroke="midnightblue" d="M279.99,-171.07C316.11,-163.34 379.91,-148.8 433.31,-132 456.93,-124.57 461.4,-118.4 485.31,-112 581.73,-86.19 610.81,-92.06 713.11,-76.15"/>
<polygon fill="midnightblue" stroke="midnightblue" points="713.91,-79.57 723.24,-74.54 712.81,-72.66 713.91,-79.57"/>
</g>
<!-- Node14&#45;&gt;Node4 -->
<g id="edge16" class="edge">
<title>Node14&#45;&gt;Node4</title>
<path fill="none" stroke="midnightblue" d="M261.12,-112.32C270.13,-104.34 283.72,-92.31 294.63,-82.65"/>
<polygon fill="midnightblue" stroke="midnightblue" points="297.17,-85.08 302.34,-75.83 292.53,-79.84 297.17,-85.08"/>
</g>
<!-- Node14&#45;&gt;Node7 -->
<g id="edge18" class="edge">
<title>Node14&#45;&gt;Node7</title>
<path fill="none" stroke="midnightblue" d="M240.23,-112.32C229.83,-104.18 214.05,-91.84 201.59,-82.09"/>
<polygon fill="midnightblue" stroke="midnightblue" points="203.63,-79.24 193.6,-75.83 199.32,-84.75 203.63,-79.24"/>
</g>
<!-- Node14&#45;&gt;Node13 -->
<g id="edge15" class="edge">
<title>Node14&#45;&gt;Node13</title>
<path fill="none" stroke="midnightblue" d="M218.2,-112.44C181.35,-102.92 121.82,-87.54 82.38,-77.35"/>
<polygon fill="midnightblue" stroke="midnightblue" points="83.12,-73.93 72.56,-74.82 81.37,-80.71 83.12,-73.93"/>
</g>
<!-- Node15 -->
<g id="node15" class="node">
<title>Node15</title>
<g id="a_node15"><a xlink:title=" ">
<polygon fill="white" stroke="#bfbfbf" points="90.81,-56.5 90.81,-75.5 137.81,-75.5 137.81,-56.5 90.81,-56.5"/>
<text text-anchor="middle" x="114.31" y="-63.5" font-family="Helvetica,sans-Serif" font-size="10.00">vector</text>
</a>
</g>
</g>
<!-- Node14&#45;&gt;Node15 -->
<g id="edge17" class="edge">
<title>Node14&#45;&gt;Node15</title>
<path fill="none" stroke="midnightblue" d="M229.61,-112.44C206.96,-103.52 171.24,-89.44 145.56,-79.32"/>
<polygon fill="midnightblue" stroke="midnightblue" points="146.51,-75.93 135.92,-75.52 143.94,-82.44 146.51,-75.93"/>
</g>
<!-- Node14&#45;&gt;Node16 -->
<g id="edge19" class="edge">
<title>Node14&#45;&gt;Node16</title>
<path fill="none" stroke="midnightblue" d="M291.91,-113.51C295.42,-112.96 298.93,-112.45 302.31,-112 481.35,-88.43 530.26,-98.75 713.32,-76.03"/>
<polygon fill="midnightblue" stroke="midnightblue" points="713.79,-79.5 723.27,-74.78 712.91,-72.55 713.79,-79.5"/>
</g>
<!-- Node17&#45;&gt;Node12 -->
<g id="edge24" class="edge">
<title>Node17&#45;&gt;Node12</title>
<path fill="none" stroke="midnightblue" d="M353.14,-224.44C333.41,-215.64 302.43,-201.81 279.82,-191.72"/>
<polygon fill="midnightblue" stroke="midnightblue" points="280.96,-188.4 270.4,-187.52 278.1,-194.79 280.96,-188.4"/>
</g>
<!-- Node17&#45;&gt;Node13 -->
<g id="edge23" class="edge">
<title>Node17&#45;&gt;Node13</title>
<path fill="none" stroke="midnightblue" d="M336.06,-227.2C279.56,-216.65 169.33,-189.83 95.31,-132 78,-118.47 62.68,-98.3 53.02,-84.02"/>
<polygon fill="midnightblue" stroke="midnightblue" points="55.93,-82.07 47.52,-75.62 50.07,-85.9 55.93,-82.07"/>
</g>
<!-- Node17&#45;&gt;Node16 -->
<g id="edge35" class="edge">
<title>Node17&#45;&gt;Node16</title>
<path fill="none" stroke="midnightblue" d="M408.46,-228.62C447.87,-222.92 512.15,-210.86 563.31,-188 617.24,-163.91 621.17,-141.53 672.31,-112 693.72,-99.64 719.09,-87.86 738.37,-79.46"/>
<polygon fill="midnightblue" stroke="midnightblue" points="739.77,-82.67 747.58,-75.5 737.01,-76.24 739.77,-82.67"/>
</g>
<!-- Node18 -->
<g id="node18" class="node">
<title>Node18</title>
<g id="a_node18"><a xlink:href="tlist_8h.html" target="_top" xlink:title=" ">
<polygon fill="white" stroke="black" points="380.31,-112.5 380.31,-131.5 424.31,-131.5 424.31,-112.5 380.31,-112.5"/>
<text text-anchor="middle" x="402.31" y="-119.5" font-family="Helvetica,sans-Serif" font-size="10.00">tlist.h</text>
</a>
</g>
</g>
<!-- Node17&#45;&gt;Node18 -->
<g id="edge25" class="edge">
<title>Node17&#45;&gt;Node18</title>
<path fill="none" stroke="midnightblue" d="M369.26,-224.3C365.27,-211.56 359.56,-187.25 366.31,-168 370.1,-157.21 377.68,-147.08 384.91,-139.18"/>
<polygon fill="midnightblue" stroke="midnightblue" points="387.64,-141.4 392.15,-131.81 382.65,-136.49 387.64,-141.4"/>
</g>
<!-- Node21 -->
<g id="node21" class="node">
<title>Node21</title>
<g id="a_node21"><a xlink:href="tbytevectorlist_8h.html" target="_top" xlink:title=" ">
<polygon fill="white" stroke="black" points="374.81,-168.5 374.81,-187.5 471.81,-187.5 471.81,-168.5 374.81,-168.5"/>
<text text-anchor="middle" x="423.31" y="-175.5" font-family="Helvetica,sans-Serif" font-size="10.00">tbytevectorlist.h</text>
</a>
</g>
</g>
<!-- Node17&#45;&gt;Node21 -->
<g id="edge31" class="edge">
<title>Node17&#45;&gt;Node21</title>
<path fill="none" stroke="midnightblue" d="M380.74,-224.08C388.16,-216.22 399.17,-204.57 408.13,-195.08"/>
<polygon fill="midnightblue" stroke="midnightblue" points="410.73,-197.42 415.05,-187.75 405.64,-192.62 410.73,-197.42"/>
</g>
<!-- Node18&#45;&gt;Node4 -->
<g id="edge28" class="edge">
<title>Node18&#45;&gt;Node4</title>
<path fill="none" stroke="midnightblue" d="M387.85,-112.32C373.81,-103.9 352.27,-90.97 335.77,-81.07"/>
<polygon fill="midnightblue" stroke="midnightblue" points="337.11,-77.8 326.74,-75.65 333.51,-83.8 337.11,-77.8"/>
</g>
<!-- Node18&#45;&gt;Node5 -->
<g id="edge27" class="edge">
<title>Node18&#45;&gt;Node5</title>
<path fill="none" stroke="midnightblue" d="M424.34,-112.44C447.42,-103.48 483.88,-89.31 509.96,-79.18"/>
<polygon fill="midnightblue" stroke="midnightblue" points="511.34,-82.4 519.39,-75.52 508.8,-75.88 511.34,-82.4"/>
</g>
<!-- Node18&#45;&gt;Node7 -->
<g id="edge29" class="edge">
<title>Node18&#45;&gt;Node7</title>
<path fill="none" stroke="midnightblue" d="M380,-114.37C377.09,-113.55 374.13,-112.74 371.31,-112 306.78,-95.05 287.88,-92.66 219.09,-76.15"/>
<polygon fill="midnightblue" stroke="midnightblue" points="219.58,-72.67 209.04,-73.73 217.94,-79.48 219.58,-72.67"/>
</g>
<!-- Node19 -->
<g id="node19" class="node">
<title>Node19</title>
<g id="a_node19"><a xlink:title=" ">
<polygon fill="white" stroke="#bfbfbf" points="601.31,-56.5 601.31,-75.5 633.31,-75.5 633.31,-56.5 601.31,-56.5"/>
<text text-anchor="middle" x="617.31" y="-63.5" font-family="Helvetica,sans-Serif" font-size="10.00">list</text>
</a>
</g>
</g>
<!-- Node18&#45;&gt;Node19 -->
<g id="edge26" class="edge">
<title>Node18&#45;&gt;Node19</title>
<path fill="none" stroke="midnightblue" d="M424.39,-115.43C428.99,-114.28 433.81,-113.09 438.31,-112 503.57,-96.22 523.17,-95.93 591.32,-76.03"/>
<polygon fill="midnightblue" stroke="midnightblue" points="592.67,-79.28 601.27,-73.09 590.69,-72.57 592.67,-79.28"/>
</g>
<!-- Node20 -->
<g id="node20" class="node">
<title>Node20</title>
<g id="a_node20"><a xlink:title=" ">
<polygon fill="white" stroke="#bfbfbf" points="651.81,-56.5 651.81,-75.5 704.81,-75.5 704.81,-56.5 651.81,-56.5"/>
<text text-anchor="middle" x="678.31" y="-63.5" font-family="Helvetica,sans-Serif" font-size="10.00">tlist.tcc</text>
</a>
</g>
</g>
<!-- Node18&#45;&gt;Node20 -->
<g id="edge30" class="edge">
<title>Node18&#45;&gt;Node20</title>
<path fill="none" stroke="midnightblue" d="M424.34,-115.23C428.95,-114.1 433.78,-112.97 438.31,-112 525.29,-93.48 550.55,-95.04 641.7,-76"/>
<polygon fill="midnightblue" stroke="midnightblue" points="642.57,-79.39 651.63,-73.89 641.12,-72.54 642.57,-79.39"/>
</g>
<!-- Node21&#45;&gt;Node14 -->
<g id="edge32" class="edge">
<title>Node21&#45;&gt;Node14</title>
<path fill="none" stroke="midnightblue" d="M396.06,-168.44C366.87,-159.28 320.39,-144.69 288.01,-134.52"/>
<polygon fill="midnightblue" stroke="midnightblue" points="289.03,-131.17 278.44,-131.52 286.93,-137.85 289.03,-131.17"/>
</g>
<!-- Node21&#45;&gt;Node16 -->
<g id="edge34" class="edge">
<title>Node21&#45;&gt;Node16</title>
<path fill="none" stroke="midnightblue" d="M434.35,-168.32C452.87,-154.21 491.85,-126.45 529.31,-112 546.21,-105.48 647.81,-87.49 712.99,-76.33"/>
<polygon fill="midnightblue" stroke="midnightblue" points="713.85,-79.73 723.12,-74.6 712.67,-72.83 713.85,-79.73"/>
</g>
<!-- Node21&#45;&gt;Node18 -->
<g id="edge33" class="edge">
<title>Node21&#45;&gt;Node18</title>
<path fill="none" stroke="midnightblue" d="M419.85,-168.08C417,-160.77 412.89,-150.18 409.35,-141.1"/>
<polygon fill="midnightblue" stroke="midnightblue" points="412.6,-139.8 405.72,-131.75 406.08,-142.34 412.6,-139.8"/>
</g>
<!-- Node22&#45;&gt;Node12 -->
<g id="edge40" class="edge">
<title>Node22&#45;&gt;Node12</title>
<path fill="none" stroke="midnightblue" d="M501.5,-228.85C456.25,-219.84 348.33,-198.33 290.12,-186.73"/>
<polygon fill="midnightblue" stroke="midnightblue" points="290.68,-183.28 280.19,-184.75 289.32,-190.14 290.68,-183.28"/>
</g>
<!-- Node22&#45;&gt;Node16 -->
<g id="edge39" class="edge">
<title>Node22&#45;&gt;Node16</title>
<path fill="none" stroke="midnightblue" d="M535.19,-224.31C575.21,-197.3 697.68,-114.67 747.2,-81.25"/>
<polygon fill="midnightblue" stroke="midnightblue" points="749.23,-84.1 755.56,-75.61 745.32,-78.3 749.23,-84.1"/>
</g>
<!-- Node22&#45;&gt;Node18 -->
<g id="edge41" class="edge">
<title>Node22&#45;&gt;Node18</title>
<path fill="none" stroke="midnightblue" d="M534.57,-224.49C551.37,-211.77 577.91,-187.24 563.31,-168 547.83,-147.59 477.14,-133.93 434.74,-127.42"/>
<polygon fill="midnightblue" stroke="midnightblue" points="435.03,-123.92 424.63,-125.91 434,-130.85 435.03,-123.92"/>
</g>
<!-- Node23 -->
<g id="node23" class="node">
<title>Node23</title>
<g id="a_node23"><a xlink:href="tvariant_8h.html" target="_top" xlink:title=" ">
<polygon fill="white" stroke="black" points="490.31,-168.5 490.31,-187.5 554.31,-187.5 554.31,-168.5 490.31,-168.5"/>
<text text-anchor="middle" x="522.31" y="-175.5" font-family="Helvetica,sans-Serif" font-size="10.00">tvariant.h</text>
</a>
</g>
</g>
<!-- Node22&#45;&gt;Node23 -->
<g id="edge42" class="edge">
<title>Node22&#45;&gt;Node23</title>
<path fill="none" stroke="midnightblue" d="M522.31,-224.08C522.31,-217.01 522.31,-206.86 522.31,-197.99"/>
<polygon fill="midnightblue" stroke="midnightblue" points="525.81,-197.75 522.31,-187.75 518.81,-197.75 525.81,-197.75"/>
</g>
<!-- Node23&#45;&gt;Node2 -->
<g id="edge46" class="edge">
<title>Node23&#45;&gt;Node2</title>
<path fill="none" stroke="midnightblue" d="M492.84,-168.44C460.02,-158.92 406.99,-143.52 371.89,-133.33"/>
<polygon fill="midnightblue" stroke="midnightblue" points="372.63,-129.9 362.05,-130.47 370.68,-136.62 372.63,-129.9"/>
</g>
<!-- Node23&#45;&gt;Node13 -->
<g id="edge44" class="edge">
<title>Node23&#45;&gt;Node13</title>
<path fill="none" stroke="midnightblue" d="M490.14,-169.66C487.16,-169.06 484.19,-168.5 481.31,-168 358.14,-146.58 323.23,-163.79 202.31,-132 153.39,-119.14 99.44,-94.99 68.36,-80.02"/>
<polygon fill="midnightblue" stroke="midnightblue" points="69.62,-76.75 59.1,-75.51 66.56,-83.04 69.62,-76.75"/>
</g>
<!-- Node23&#45;&gt;Node16 -->
<g id="edge47" class="edge">
<title>Node23&#45;&gt;Node16</title>
<path fill="none" stroke="midnightblue" d="M523.19,-168.33C525.1,-154.24 530.97,-126.49 548.31,-112 554.68,-106.68 649.9,-88.53 712.97,-76.97"/>
<polygon fill="midnightblue" stroke="midnightblue" points="713.97,-80.34 723.18,-75.1 712.71,-73.46 713.97,-80.34"/>
</g>
<!-- Node23&#45;&gt;Node18 -->
<g id="edge45" class="edge">
<title>Node23&#45;&gt;Node18</title>
<path fill="none" stroke="midnightblue" d="M503.3,-168.44C483.73,-159.64 453.01,-145.81 430.59,-135.72"/>
<polygon fill="midnightblue" stroke="midnightblue" points="431.8,-132.43 421.24,-131.52 428.92,-138.81 431.8,-132.43"/>
</g>
<!-- Node24 -->
<g id="node24" class="node">
<title>Node24</title>
<g id="a_node24"><a xlink:title=" ">
<polygon fill="white" stroke="#bfbfbf" points="556.81,-112.5 556.81,-131.5 621.81,-131.5 621.81,-112.5 556.81,-112.5"/>
<text text-anchor="middle" x="589.31" y="-119.5" font-family="Helvetica,sans-Serif" font-size="10.00">memory.h</text>
</a>
</g>
</g>
<!-- Node23&#45;&gt;Node24 -->
<g id="edge43" class="edge">
<title>Node23&#45;&gt;Node24</title>
<path fill="none" stroke="midnightblue" d="M533.08,-168.32C543.08,-160.26 558.2,-148.08 570.25,-138.37"/>
<polygon fill="midnightblue" stroke="midnightblue" points="572.76,-140.83 578.35,-131.83 568.37,-135.38 572.76,-140.83"/>
</g>
</g>
</svg>
