<?xml version="1.0" encoding="UTF-8" standalone="no"?>
<!DOCTYPE svg PUBLIC "-//W3C//DTD SVG 1.1//EN"
 "http://www.w3.org/Graphics/SVG/1.1/DTD/svg11.dtd">
<!-- Generated by graphviz version 2.42.4 (0)
 -->
<!-- Title: infotag.h Pages: 1 -->
<svg width="760pt" height="247pt"
 viewBox="0.00 0.00 760.19 247.00" xmlns="http://www.w3.org/2000/svg" xmlns:xlink="http://www.w3.org/1999/xlink">
<g id="graph0" class="graph" transform="scale(1 1) rotate(0) translate(4 243)">
<title>infotag.h</title>
<!-- Node1 -->
<g id="Node000001" class="node">
<title>Node1</title>
<g id="a_Node000001"><a xlink:title=" ">
<polygon fill="#999999" stroke="#666666" points="587.5,-239 527.5,-239 527.5,-220 587.5,-220 587.5,-239"/>
<text text-anchor="middle" x="557.5" y="-227" font-family="Helvetica,sans-Serif" font-size="10.00">infotag.h</text>
</a>
</g>
</g>
<!-- Node2 -->
<g id="Node000002" class="node">
<title>Node2</title>
<g id="a_Node000002"><a xlink:href="tmap_8h.html" target="_top" xlink:title=" ">
<polygon fill="white" stroke="#666666" points="264,-74 213,-74 213,-55 264,-55 264,-74"/>
<text text-anchor="middle" x="238.5" y="-62" font-family="Helvetica,sans-Serif" font-size="10.00">tmap.h</text>
</a>
</g>
</g>
<!-- Node1&#45;&gt;Node2 -->
<g id="edge1_Node000001_Node000002" class="edge">
<title>Node1&#45;&gt;Node2</title>
<g id="a_edge1_Node000001_Node000002"><a xlink:title=" ">
<path fill="none" stroke="#63b8ff" d="M540.8,-219.97C488.49,-193.24 327.55,-111 264.35,-78.71"/>
<polygon fill="#63b8ff" stroke="#63b8ff" points="265.92,-75.58 255.42,-74.15 262.73,-81.81 265.92,-75.58"/>
</a>
</g>
</g>
<!-- Node8 -->
<g id="Node000008" class="node">
<title>Node8</title>
<g id="a_Node000008"><a xlink:href="tstring_8h.html" target="_top" xlink:title=" ">
<polygon fill="white" stroke="#666666" points="706,-129 649,-129 649,-110 706,-110 706,-129"/>
<text text-anchor="middle" x="677.5" y="-117" font-family="Helvetica,sans-Serif" font-size="10.00">tstring.h</text>
</a>
</g>
</g>
<!-- Node1&#45;&gt;Node8 -->
<g id="edge7_Node000001_Node000008" class="edge">
<title>Node1&#45;&gt;Node8</title>
<g id="a_edge7_Node000001_Node000008"><a xlink:title=" ">
<path fill="none" stroke="#63b8ff" d="M567.32,-219.66C587.73,-201.3 634.93,-158.81 660.43,-135.87"/>
<polygon fill="#63b8ff" stroke="#63b8ff" points="662.79,-138.45 667.88,-129.16 658.11,-133.25 662.79,-138.45"/>
</a>
</g>
</g>
<!-- Node10 -->
<g id="Node000010" class="node">
<title>Node10</title>
<g id="a_Node000010"><a xlink:href="tbytevector_8h.html" target="_top" xlink:title=" ">
<polygon fill="white" stroke="#666666" points="564,-74 483,-74 483,-55 564,-55 564,-74"/>
<text text-anchor="middle" x="523.5" y="-62" font-family="Helvetica,sans-Serif" font-size="10.00">tbytevector.h</text>
</a>
</g>
</g>
<!-- Node1&#45;&gt;Node10 -->
<g id="edge15_Node000001_Node000010" class="edge">
<title>Node1&#45;&gt;Node10</title>
<g id="a_edge15_Node000001_Node000010"><a xlink:title=" ">
<path fill="none" stroke="#63b8ff" d="M555.67,-219.74C550.35,-194.2 534.75,-119.43 527.41,-84.23"/>
<polygon fill="#63b8ff" stroke="#63b8ff" points="530.81,-83.38 525.34,-74.31 523.95,-84.81 530.81,-83.38"/>
</a>
</g>
</g>
<!-- Node13 -->
<g id="Node000013" class="node">
<title>Node13</title>
<g id="a_Node000013"><a xlink:href="taglib__export_8h.html" target="_top" xlink:title=" ">
<polygon fill="white" stroke="#666666" points="717.5,-19 627.5,-19 627.5,0 717.5,0 717.5,-19"/>
<text text-anchor="middle" x="672.5" y="-7" font-family="Helvetica,sans-Serif" font-size="10.00">taglib_export.h</text>
</a>
</g>
</g>
<!-- Node1&#45;&gt;Node13 -->
<g id="edge16_Node000001_Node000013" class="edge">
<title>Node1&#45;&gt;Node13</title>
<g id="a_edge16_Node000001_Node000013"><a xlink:title=" ">
<path fill="none" stroke="#63b8ff" d="M581.48,-219.89C627.74,-201.65 726.76,-154.05 749.5,-74 751.81,-65.88 753.72,-62.31 749.5,-55 741.08,-40.41 725.85,-30.17 711.15,-23.23"/>
<polygon fill="#63b8ff" stroke="#63b8ff" points="712.21,-19.87 701.64,-19.13 709.43,-26.3 712.21,-19.87"/>
</a>
</g>
</g>
<!-- Node14 -->
<g id="Node000014" class="node">
<title>Node14</title>
<g id="a_Node000014"><a xlink:href="tag_8h.html" target="_top" xlink:title=" ">
<polygon fill="white" stroke="#666666" points="529,-184 488,-184 488,-165 529,-165 529,-184"/>
<text text-anchor="middle" x="508.5" y="-172" font-family="Helvetica,sans-Serif" font-size="10.00">tag.h</text>
</a>
</g>
</g>
<!-- Node1&#45;&gt;Node14 -->
<g id="edge17_Node000001_Node000014" class="edge">
<title>Node1&#45;&gt;Node14</title>
<g id="a_edge17_Node000001_Node000014"><a xlink:title=" ">
<path fill="none" stroke="#63b8ff" d="M549.41,-219.75C542.34,-212.11 531.91,-200.82 523.35,-191.56"/>
<polygon fill="#63b8ff" stroke="#63b8ff" points="525.8,-189.06 516.44,-184.09 520.66,-193.81 525.8,-189.06"/>
</a>
</g>
</g>
<!-- Node3 -->
<g id="Node000003" class="node">
<title>Node3</title>
<g id="a_Node000003"><a xlink:title=" ">
<polygon fill="#e0e0e0" stroke="#999999" points="178.5,-19 140.5,-19 140.5,0 178.5,0 178.5,-19"/>
<text text-anchor="middle" x="159.5" y="-7" font-family="Helvetica,sans-Serif" font-size="10.00">map</text>
</a>
</g>
</g>
<!-- Node2&#45;&gt;Node3 -->
<g id="edge2_Node000002_Node000003" class="edge">
<title>Node2&#45;&gt;Node3</title>
<g id="a_edge2_Node000002_Node000003"><a xlink:title=" ">
<path fill="none" stroke="#63b8ff" d="M225.81,-54.98C213.67,-46.84 195.14,-34.41 180.75,-24.76"/>
<polygon fill="#63b8ff" stroke="#63b8ff" points="182.68,-21.84 172.42,-19.17 178.78,-27.65 182.68,-21.84"/>
</a>
</g>
</g>
<!-- Node4 -->
<g id="Node000004" class="node">
<title>Node4</title>
<g id="a_Node000004"><a xlink:title=" ">
<polygon fill="#e0e0e0" stroke="#999999" points="427.5,-19 369.5,-19 369.5,0 427.5,0 427.5,-19"/>
<text text-anchor="middle" x="398.5" y="-7" font-family="Helvetica,sans-Serif" font-size="10.00">memory</text>
</a>
</g>
</g>
<!-- Node2&#45;&gt;Node4 -->
<g id="edge3_Node000002_Node000004" class="edge">
<title>Node2&#45;&gt;Node4</title>
<g id="a_edge3_Node000002_Node000004"><a xlink:title=" ">
<path fill="none" stroke="#63b8ff" d="M264.21,-54.98C290.95,-46.13 333.03,-32.19 362.95,-22.28"/>
<polygon fill="#63b8ff" stroke="#63b8ff" points="364.2,-25.55 372.59,-19.08 362,-18.9 364.2,-25.55"/>
</a>
</g>
</g>
<!-- Node5 -->
<g id="Node000005" class="node">
<title>Node5</title>
<g id="a_Node000005"><a xlink:title=" ">
<polygon fill="#e0e0e0" stroke="#999999" points="280,-19 197,-19 197,0 280,0 280,-19"/>
<text text-anchor="middle" x="238.5" y="-7" font-family="Helvetica,sans-Serif" font-size="10.00">initializer_list</text>
</a>
</g>
</g>
<!-- Node2&#45;&gt;Node5 -->
<g id="edge4_Node000002_Node000005" class="edge">
<title>Node2&#45;&gt;Node5</title>
<g id="a_edge4_Node000002_Node000005"><a xlink:title=" ">
<path fill="none" stroke="#63b8ff" d="M238.5,-54.75C238.5,-47.8 238.5,-37.85 238.5,-29.13"/>
<polygon fill="#63b8ff" stroke="#63b8ff" points="242,-29.09 238.5,-19.09 235,-29.09 242,-29.09"/>
</a>
</g>
</g>
<!-- Node6 -->
<g id="Node000006" class="node">
<title>Node6</title>
<g id="a_Node000006"><a xlink:title=" ">
<polygon fill="#e0e0e0" stroke="#999999" points="45,-19 0,-19 0,0 45,0 45,-19"/>
<text text-anchor="middle" x="22.5" y="-7" font-family="Helvetica,sans-Serif" font-size="10.00">utility</text>
</a>
</g>
</g>
<!-- Node2&#45;&gt;Node6 -->
<g id="edge5_Node000002_Node000006" class="edge">
<title>Node2&#45;&gt;Node6</title>
<g id="a_edge5_Node000002_Node000006"><a xlink:title=" ">
<path fill="none" stroke="#63b8ff" d="M212.7,-57.56C178.71,-49.69 116.83,-35.14 55.07,-19.35"/>
<polygon fill="#63b8ff" stroke="#63b8ff" points="55.72,-15.9 45.16,-16.8 53.98,-22.68 55.72,-15.9"/>
</a>
</g>
</g>
<!-- Node7 -->
<g id="Node000007" class="node">
<title>Node7</title>
<g id="a_Node000007"><a xlink:title=" ">
<polygon fill="#e0e0e0" stroke="#999999" points="122,-19 63,-19 63,0 122,0 122,-19"/>
<text text-anchor="middle" x="92.5" y="-7" font-family="Helvetica,sans-Serif" font-size="10.00">tmap.tcc</text>
</a>
</g>
</g>
<!-- Node2&#45;&gt;Node7 -->
<g id="edge6_Node000002_Node000007" class="edge">
<title>Node2&#45;&gt;Node7</title>
<g id="a_edge6_Node000002_Node000007"><a xlink:title=" ">
<path fill="none" stroke="#63b8ff" d="M215.04,-54.98C190.92,-46.23 153.13,-32.51 125.9,-22.62"/>
<polygon fill="#63b8ff" stroke="#63b8ff" points="126.98,-19.29 116.38,-19.17 124.59,-25.87 126.98,-19.29"/>
</a>
</g>
</g>
<!-- Node9 -->
<g id="Node000009" class="node">
<title>Node9</title>
<g id="a_Node000009"><a xlink:title=" ">
<polygon fill="#e0e0e0" stroke="#999999" points="740.5,-74 696.5,-74 696.5,-55 740.5,-55 740.5,-74"/>
<text text-anchor="middle" x="718.5" y="-62" font-family="Helvetica,sans-Serif" font-size="10.00">string</text>
</a>
</g>
</g>
<!-- Node8&#45;&gt;Node9 -->
<g id="edge8_Node000008_Node000009" class="edge">
<title>Node8&#45;&gt;Node9</title>
<g id="a_edge8_Node000008_Node000009"><a xlink:title=" ">
<path fill="none" stroke="#63b8ff" d="M684.27,-109.75C690.06,-102.26 698.56,-91.28 705.64,-82.13"/>
<polygon fill="#63b8ff" stroke="#63b8ff" points="708.51,-84.14 711.86,-74.09 702.97,-79.86 708.51,-84.14"/>
</a>
</g>
</g>
<!-- Node8&#45;&gt;Node10 -->
<g id="edge9_Node000008_Node000010" class="edge">
<title>Node8&#45;&gt;Node10</title>
<g id="a_edge9_Node000008_Node000010"><a xlink:title=" ">
<path fill="none" stroke="#63b8ff" d="M652.76,-109.98C627.13,-101.16 586.87,-87.31 558.09,-77.41"/>
<polygon fill="#63b8ff" stroke="#63b8ff" points="559.03,-74.03 548.44,-74.08 556.75,-80.65 559.03,-74.03"/>
</a>
</g>
</g>
<!-- Node8&#45;&gt;Node13 -->
<g id="edge14_Node000008_Node000013" class="edge">
<title>Node8&#45;&gt;Node13</title>
<g id="a_edge14_Node000008_Node000013"><a xlink:title=" ">
<path fill="none" stroke="#63b8ff" d="M677.09,-109.66C676.28,-92.17 674.46,-52.8 673.37,-29.27"/>
<polygon fill="#63b8ff" stroke="#63b8ff" points="676.86,-28.99 672.9,-19.16 669.87,-29.31 676.86,-28.99"/>
</a>
</g>
</g>
<!-- Node10&#45;&gt;Node4 -->
<g id="edge10_Node000010_Node000004" class="edge">
<title>Node10&#45;&gt;Node4</title>
<g id="a_edge10_Node000010_Node000004"><a xlink:title=" ">
<path fill="none" stroke="#63b8ff" d="M503.42,-54.98C483.13,-46.38 451.54,-32.99 428.33,-23.15"/>
<polygon fill="#63b8ff" stroke="#63b8ff" points="429.52,-19.85 418.95,-19.17 426.79,-26.3 429.52,-19.85"/>
</a>
</g>
</g>
<!-- Node11 -->
<g id="Node000011" class="node">
<title>Node11</title>
<g id="a_Node000011"><a xlink:title=" ">
<polygon fill="#e0e0e0" stroke="#999999" points="609,-19 562,-19 562,0 609,0 609,-19"/>
<text text-anchor="middle" x="585.5" y="-7" font-family="Helvetica,sans-Serif" font-size="10.00">vector</text>
</a>
</g>
</g>
<!-- Node10&#45;&gt;Node11 -->
<g id="edge11_Node000010_Node000011" class="edge">
<title>Node10&#45;&gt;Node11</title>
<g id="a_edge11_Node000010_Node000011"><a xlink:title=" ">
<path fill="none" stroke="#63b8ff" d="M533.46,-54.98C542.63,-47.15 556.44,-35.34 567.53,-25.86"/>
<polygon fill="#63b8ff" stroke="#63b8ff" points="570.03,-28.33 575.36,-19.17 565.48,-23.01 570.03,-28.33"/>
</a>
</g>
</g>
<!-- Node12 -->
<g id="Node000012" class="node">
<title>Node12</title>
<g id="a_Node000012"><a xlink:title=" ">
<polygon fill="#e0e0e0" stroke="#999999" points="543.5,-19 495.5,-19 495.5,0 543.5,0 543.5,-19"/>
<text text-anchor="middle" x="519.5" y="-7" font-family="Helvetica,sans-Serif" font-size="10.00">iosfwd</text>
</a>
</g>
</g>
<!-- Node10&#45;&gt;Node12 -->
<g id="edge12_Node000010_Node000012" class="edge">
<title>Node10&#45;&gt;Node12</title>
<g id="a_edge12_Node000010_Node000012"><a xlink:title=" ">
<path fill="none" stroke="#63b8ff" d="M522.84,-54.75C522.32,-47.8 521.56,-37.85 520.91,-29.13"/>
<polygon fill="#63b8ff" stroke="#63b8ff" points="524.39,-28.8 520.15,-19.09 517.41,-29.32 524.39,-28.8"/>
</a>
</g>
</g>
<!-- Node10&#45;&gt;Node13 -->
<g id="edge13_Node000010_Node000013" class="edge">
<title>Node10&#45;&gt;Node13</title>
<g id="a_edge13_Node000010_Node000013"><a xlink:title=" ">
<path fill="none" stroke="#63b8ff" d="M547.44,-54.98C572.06,-46.23 610.62,-32.51 638.42,-22.62"/>
<polygon fill="#63b8ff" stroke="#63b8ff" points="639.88,-25.82 648.12,-19.17 637.53,-19.22 639.88,-25.82"/>
</a>
</g>
</g>
<!-- Node14&#45;&gt;Node8 -->
<g id="edge19_Node000014_Node000008" class="edge">
<title>Node14&#45;&gt;Node8</title>
<g id="a_edge19_Node000014_Node000008"><a xlink:title=" ">
<path fill="none" stroke="#63b8ff" d="M529.22,-167C556.9,-158.32 606.4,-142.8 640.54,-132.09"/>
<polygon fill="#63b8ff" stroke="#63b8ff" points="641.68,-135.4 650.17,-129.07 639.58,-128.72 641.68,-135.4"/>
</a>
</g>
</g>
<!-- Node14&#45;&gt;Node13 -->
<g id="edge18_Node000014_Node000013" class="edge">
<title>Node14&#45;&gt;Node13</title>
<g id="a_edge18_Node000014_Node000013"><a xlink:title=" ">
<path fill="none" stroke="#63b8ff" d="M517.32,-164.74C543.68,-138.53 622.18,-60.51 656.33,-26.57"/>
<polygon fill="#63b8ff" stroke="#63b8ff" points="659.01,-28.84 663.64,-19.31 654.08,-23.87 659.01,-28.84"/>
</a>
</g>
</g>
<!-- Node15 -->
<g id="Node000015" class="node">
<title>Node15</title>
<g id="a_Node000015"><a xlink:href="tlist_8h.html" target="_top" xlink:title=" ">
<polygon fill="white" stroke="#666666" points="420.5,-74 376.5,-74 376.5,-55 420.5,-55 420.5,-74"/>
<text text-anchor="middle" x="398.5" y="-62" font-family="Helvetica,sans-Serif" font-size="10.00">tlist.h</text>
</a>
</g>
</g>
<!-- Node14&#45;&gt;Node15 -->
<g id="edge20_Node000014_Node000015" class="edge">
<title>Node14&#45;&gt;Node15</title>
<g id="a_edge20_Node000014_Node000015"><a xlink:title=" ">
<path fill="none" stroke="#63b8ff" d="M487.77,-168.59C467.08,-162.63 435.81,-150.59 417.5,-129 406.92,-116.52 402.23,-98.32 400.15,-84.59"/>
<polygon fill="#63b8ff" stroke="#63b8ff" points="403.59,-83.87 398.95,-74.35 396.64,-84.69 403.59,-83.87"/>
</a>
</g>
</g>
<!-- Node18 -->
<g id="Node000018" class="node">
<title>Node18</title>
<g id="a_Node000018"><a xlink:href="tvariant_8h.html" target="_top" xlink:title=" ">
<polygon fill="white" stroke="#666666" points="490.5,-129 426.5,-129 426.5,-110 490.5,-110 490.5,-129"/>
<text text-anchor="middle" x="458.5" y="-117" font-family="Helvetica,sans-Serif" font-size="10.00">tvariant.h</text>
</a>
</g>
</g>
<!-- Node14&#45;&gt;Node18 -->
<g id="edge25_Node000014_Node000018" class="edge">
<title>Node14&#45;&gt;Node18</title>
<g id="a_edge25_Node000014_Node000018"><a xlink:title=" ">
<path fill="none" stroke="#63b8ff" d="M500.24,-164.75C493.04,-157.11 482.39,-145.82 473.65,-136.56"/>
<polygon fill="#63b8ff" stroke="#63b8ff" points="476.01,-133.96 466.6,-129.09 470.92,-138.76 476.01,-133.96"/>
</a>
</g>
</g>
<!-- Node15&#45;&gt;Node4 -->
<g id="edge23_Node000015_Node000004" class="edge">
<title>Node15&#45;&gt;Node4</title>
<g id="a_edge23_Node000015_Node000004"><a xlink:title=" ">
<path fill="none" stroke="#63b8ff" d="M398.5,-54.75C398.5,-47.8 398.5,-37.85 398.5,-29.13"/>
<polygon fill="#63b8ff" stroke="#63b8ff" points="402,-29.09 398.5,-19.09 395,-29.09 402,-29.09"/>
</a>
</g>
</g>
<!-- Node15&#45;&gt;Node5 -->
<g id="edge22_Node000015_Node000005" class="edge">
<title>Node15&#45;&gt;Node5</title>
<g id="a_edge22_Node000015_Node000005"><a xlink:title=" ">
<path fill="none" stroke="#63b8ff" d="M376.25,-56.13C349.75,-47.35 305.15,-32.58 273.9,-22.23"/>
<polygon fill="#63b8ff" stroke="#63b8ff" points="274.86,-18.86 264.26,-19.03 272.65,-25.5 274.86,-18.86"/>
</a>
</g>
</g>
<!-- Node16 -->
<g id="Node000016" class="node">
<title>Node16</title>
<g id="a_Node000016"><a xlink:title=" ">
<polygon fill="#e0e0e0" stroke="#999999" points="477.5,-19 445.5,-19 445.5,0 477.5,0 477.5,-19"/>
<text text-anchor="middle" x="461.5" y="-7" font-family="Helvetica,sans-Serif" font-size="10.00">list</text>
</a>
</g>
</g>
<!-- Node15&#45;&gt;Node16 -->
<g id="edge21_Node000015_Node000016" class="edge">
<title>Node15&#45;&gt;Node16</title>
<g id="a_edge21_Node000015_Node000016"><a xlink:title=" ">
<path fill="none" stroke="#63b8ff" d="M408.62,-54.98C417.94,-47.15 431.97,-35.34 443.24,-25.86"/>
<polygon fill="#63b8ff" stroke="#63b8ff" points="445.79,-28.29 451.19,-19.17 441.29,-22.93 445.79,-28.29"/>
</a>
</g>
</g>
<!-- Node17 -->
<g id="Node000017" class="node">
<title>Node17</title>
<g id="a_Node000017"><a xlink:title=" ">
<polygon fill="#e0e0e0" stroke="#999999" points="351,-19 298,-19 298,0 351,0 351,-19"/>
<text text-anchor="middle" x="324.5" y="-7" font-family="Helvetica,sans-Serif" font-size="10.00">tlist.tcc</text>
</a>
</g>
</g>
<!-- Node15&#45;&gt;Node17 -->
<g id="edge24_Node000015_Node000017" class="edge">
<title>Node15&#45;&gt;Node17</title>
<g id="a_edge24_Node000015_Node000017"><a xlink:title=" ">
<path fill="none" stroke="#63b8ff" d="M386.61,-54.98C375.35,-46.92 358.21,-34.65 344.79,-25.03"/>
<polygon fill="#63b8ff" stroke="#63b8ff" points="346.77,-22.15 336.61,-19.17 342.7,-27.84 346.77,-22.15"/>
</a>
</g>
</g>
<!-- Node18&#45;&gt;Node2 -->
<g id="edge28_Node000018_Node000002" class="edge">
<title>Node18&#45;&gt;Node2</title>
<g id="a_edge28_Node000018_Node000002"><a xlink:title=" ">
<path fill="none" stroke="#63b8ff" d="M426.04,-110.68C385.4,-100.89 316.05,-84.18 274.03,-74.06"/>
<polygon fill="#63b8ff" stroke="#63b8ff" points="274.76,-70.64 264.22,-71.7 273.12,-77.44 274.76,-70.64"/>
</a>
</g>
</g>
<!-- Node18&#45;&gt;Node12 -->
<g id="edge26_Node000018_Node000012" class="edge">
<title>Node18&#45;&gt;Node12</title>
<g id="a_edge26_Node000018_Node000012"><a xlink:title=" ">
<path fill="none" stroke="#63b8ff" d="M459.02,-109.72C460.1,-96.92 463.42,-72.73 473.5,-55 479.89,-43.76 489.98,-33.54 499.08,-25.74"/>
<polygon fill="#63b8ff" stroke="#63b8ff" points="501.46,-28.31 507.03,-19.3 497.05,-22.88 501.46,-28.31"/>
</a>
</g>
</g>
<!-- Node18&#45;&gt;Node13 -->
<g id="edge29_Node000018_Node000013" class="edge">
<title>Node18&#45;&gt;Node13</title>
<g id="a_edge29_Node000018_Node000013"><a xlink:title=" ">
<path fill="none" stroke="#63b8ff" d="M484.47,-109.98C507.99,-101.89 543.31,-88.79 572.5,-74 601.45,-59.33 632.72,-38.61 652.43,-24.88"/>
<polygon fill="#63b8ff" stroke="#63b8ff" points="654.47,-27.73 660.63,-19.11 650.44,-22 654.47,-27.73"/>
</a>
</g>
</g>
<!-- Node18&#45;&gt;Node15 -->
<g id="edge27_Node000018_Node000015" class="edge">
<title>Node18&#45;&gt;Node15</title>
<g id="a_edge27_Node000018_Node000015"><a xlink:title=" ">
<path fill="none" stroke="#63b8ff" d="M448.86,-109.98C439.99,-102.15 426.63,-90.34 415.89,-80.86"/>
<polygon fill="#63b8ff" stroke="#63b8ff" points="418.13,-78.17 408.32,-74.17 413.49,-83.41 418.13,-78.17"/>
</a>
</g>
</g>
</g>
</svg>
