<?xml version="1.0" encoding="UTF-8" standalone="no"?>
<!DOCTYPE svg PUBLIC "-//W3C//DTD SVG 1.1//EN"
 "http://www.w3.org/Graphics/SVG/1.1/DTD/svg11.dtd">
<!-- Generated by graphviz version 2.46.1 (20210213.1702)
 -->
<!-- Title: Graphical Class Hierarchy Pages: 1 -->
<svg width="356pt" height="78pt"
 viewBox="0.00 0.00 356.00 77.50" xmlns="http://www.w3.org/2000/svg" xmlns:xlink="http://www.w3.org/1999/xlink">
<g id="graph0" class="graph" transform="scale(1 1) rotate(0) translate(4 73.5)">
<title>Graphical Class Hierarchy</title>
<polygon fill="white" stroke="transparent" points="-4,4 -4,-73.5 352,-73.5 352,4 -4,4"/>
<!-- Node0 -->
<g id="node1" class="node">
<title>Node0</title>
<g id="a_node1"><a xlink:href="classTagLib_1_1FLAC_1_1MetadataBlock.html" target="_top" xlink:title=" ">
<polygon fill="white" stroke="black" points="0,-28 0,-47 148,-47 148,-28 0,-28"/>
<text text-anchor="middle" x="74" y="-35" font-family="Helvetica,sans-Serif" font-size="10.00">TagLib::FLAC::MetadataBlock</text>
</a>
</g>
</g>
<!-- Node1 -->
<g id="node2" class="node">
<title>Node1</title>
<g id="a_node2"><a xlink:href="classTagLib_1_1FLAC_1_1Picture.html" target="_top" xlink:title=" ">
<polygon fill="white" stroke="black" points="209.5,-50 209.5,-69 322.5,-69 322.5,-50 209.5,-50"/>
<text text-anchor="middle" x="266" y="-57" font-family="Helvetica,sans-Serif" font-size="10.00">TagLib::FLAC::Picture</text>
</a>
</g>
</g>
<!-- Node0&#45;&gt;Node1 -->
<g id="edge1" class="edge">
<title>Node0&#45;&gt;Node1</title>
<path fill="none" stroke="midnightblue" d="M158.26,-47.14C175.51,-49.14 193.29,-51.2 209.26,-53.05"/>
<polygon fill="midnightblue" stroke="midnightblue" points="158.52,-43.65 148.19,-45.97 157.72,-50.6 158.52,-43.65"/>
</g>
<!-- Node2 -->
<g id="node3" class="node">
<title>Node2</title>
<g id="a_node3"><a xlink:href="classTagLib_1_1FLAC_1_1UnknownMetadataBlock.html" target="_top" xlink:title=" ">
<polygon fill="white" stroke="black" points="184,-0.5 184,-30.5 348,-30.5 348,-0.5 184,-0.5"/>
<text text-anchor="start" x="192" y="-18.5" font-family="Helvetica,sans-Serif" font-size="10.00">TagLib::FLAC::UnknownMetadata</text>
<text text-anchor="middle" x="266" y="-7.5" font-family="Helvetica,sans-Serif" font-size="10.00">Block</text>
</a>
</g>
</g>
<!-- Node0&#45;&gt;Node2 -->
<g id="edge2" class="edge">
<title>Node0&#45;&gt;Node2</title>
<path fill="none" stroke="midnightblue" d="M158.16,-27.87C166.72,-26.88 175.41,-25.87 183.95,-24.88"/>
<polygon fill="midnightblue" stroke="midnightblue" points="157.72,-24.4 148.19,-29.03 158.52,-31.35 157.72,-24.4"/>
</g>
</g>
</svg>
