<?xml version="1.0" encoding="UTF-8" standalone="no"?>
<!DOCTYPE svg PUBLIC "-//W3C//DTD SVG 1.1//EN"
 "http://www.w3.org/Graphics/SVG/1.1/DTD/svg11.dtd">
<!-- Generated by graphviz version 2.43.0 (0)
 -->
<!-- Title: Graphical Class Hierarchy Pages: 1 -->
<svg width="285pt" height="66pt"
 viewBox="0.00 0.00 285.00 66.00" xmlns="http://www.w3.org/2000/svg" xmlns:xlink="http://www.w3.org/1999/xlink">
<g id="graph0" class="graph" transform="scale(1 1) rotate(0) translate(4 62)">
<title>Graphical Class Hierarchy</title>
<polygon fill="white" stroke="transparent" points="-4,4 -4,-62 281,-62 281,4 -4,4"/>
<!-- Node0 -->
<g id="node1" class="node">
<title>Node0</title>
<g id="a_node1"><a xlink:href="classTagLib_1_1IOStream.html" target="_top" xlink:title="An abstract class that provides operations on a sequence of bytes.">
<polygon fill="white" stroke="black" points="0,-19.5 0,-38.5 99,-38.5 99,-19.5 0,-19.5"/>
<text text-anchor="middle" x="49.5" y="-26.5" font-family="Helvetica,sans-Serif" font-size="10.00">TagLib::IOStream</text>
</a>
</g>
</g>
<!-- Node1 -->
<g id="node2" class="node">
<title>Node1</title>
<g id="a_node2"><a xlink:href="classTagLib_1_1ByteVectorStream.html" target="_top" xlink:title="In&#45;memory Stream class using ByteVector for its storage.">
<polygon fill="white" stroke="black" points="135,-38.5 135,-57.5 277,-57.5 277,-38.5 135,-38.5"/>
<text text-anchor="middle" x="206" y="-45.5" font-family="Helvetica,sans-Serif" font-size="10.00">TagLib::ByteVectorStream</text>
</a>
</g>
</g>
<!-- Node0&#45;&gt;Node1 -->
<g id="edge1" class="edge">
<title>Node0&#45;&gt;Node1</title>
<path fill="none" stroke="midnightblue" d="M109.41,-36.24C117.77,-37.27 126.44,-38.34 134.98,-39.39"/>
<polygon fill="midnightblue" stroke="midnightblue" points="109.74,-32.76 99.38,-35.01 108.88,-39.71 109.74,-32.76"/>
</g>
<!-- Node2 -->
<g id="node3" class="node">
<title>Node2</title>
<g id="a_node3"><a xlink:href="classTagLib_1_1FileStream.html" target="_top" xlink:title="I/O stream with data from a file.">
<polygon fill="white" stroke="black" points="153,-0.5 153,-19.5 259,-19.5 259,-0.5 153,-0.5"/>
<text text-anchor="middle" x="206" y="-7.5" font-family="Helvetica,sans-Serif" font-size="10.00">TagLib::FileStream</text>
</a>
</g>
</g>
<!-- Node0&#45;&gt;Node2 -->
<g id="edge2" class="edge">
<title>Node0&#45;&gt;Node2</title>
<path fill="none" stroke="midnightblue" d="M109.6,-21.73C123.88,-19.98 139.03,-18.11 152.96,-16.4"/>
<polygon fill="midnightblue" stroke="midnightblue" points="108.88,-18.29 99.38,-22.99 109.74,-25.24 108.88,-18.29"/>
</g>
</g>
</svg>
