<?xml version="1.0" encoding="UTF-8" standalone="no"?>
<!DOCTYPE svg PUBLIC "-//W3C//DTD SVG 1.1//EN"
 "http://www.w3.org/Graphics/SVG/1.1/DTD/svg11.dtd">
<!-- Generated by graphviz version 2.42.4 (0)
 -->
<!-- Title: Graphical Class Hierarchy Pages: 1 -->
<svg width="404pt" height="597pt"
 viewBox="0.00 0.00 404.00 597.00" xmlns="http://www.w3.org/2000/svg" xmlns:xlink="http://www.w3.org/1999/xlink">
<g id="graph0" class="graph" transform="scale(1 1) rotate(0) translate(4 593)">
<title>Graphical Class Hierarchy</title>
<!-- Node0 -->
<g id="Node000000" class="node">
<title>Node0</title>
<g id="a_Node000000"><a xlink:href="classTagLib_1_1File.html" target="_top" xlink:title="A file class with some useful methods for tag manipulation.">
<polygon fill="white" stroke="#666666" points="71,-330 0,-330 0,-311 71,-311 71,-330"/>
<text text-anchor="middle" x="35.5" y="-318" font-family="Helvetica,sans-Serif" font-size="10.00">TagLib::File</text>
</a>
</g>
</g>
<!-- Node1 -->
<g id="Node000001" class="node">
<title>Node1</title>
<g id="a_Node000001"><a xlink:href="classTagLib_1_1APE_1_1File.html" target="_top" xlink:title="An implementation of TagLib::File with APE specific methods.">
<polygon fill="white" stroke="#666666" points="217,-589 122,-589 122,-570 217,-570 217,-589"/>
<text text-anchor="middle" x="169.5" y="-577" font-family="Helvetica,sans-Serif" font-size="10.00">TagLib::APE::File</text>
</a>
</g>
</g>
<!-- Node0&#45;&gt;Node1 -->
<g id="edge22_Node000000_Node000001" class="edge">
<title>Node0&#45;&gt;Node1</title>
<g id="a_edge22_Node000000_Node000001"><a xlink:title=" ">
<path fill="none" stroke="#63b8ff" d="M36.29,-340.53C36.92,-386.34 45.05,-499.55 107,-561.5 111.25,-565.75 116.44,-569.01 121.99,-571.5"/>
<polygon fill="#63b8ff" stroke="#63b8ff" points="39.79,-340.4 36.26,-330.41 32.79,-340.42 39.79,-340.4"/>
</a>
</g>
</g>
<!-- Node2 -->
<g id="Node000002" class="node">
<title>Node2</title>
<g id="a_Node000002"><a xlink:href="classTagLib_1_1ASF_1_1File.html" target="_top" xlink:title="An implementation of TagLib::File with ASF specific methods.">
<polygon fill="white" stroke="#666666" points="217,-552 122,-552 122,-533 217,-533 217,-552"/>
<text text-anchor="middle" x="169.5" y="-540" font-family="Helvetica,sans-Serif" font-size="10.00">TagLib::ASF::File</text>
</a>
</g>
</g>
<!-- Node0&#45;&gt;Node2 -->
<g id="edge23_Node000000_Node000002" class="edge">
<title>Node0&#45;&gt;Node2</title>
<g id="a_edge23_Node000000_Node000002"><a xlink:title=" ">
<path fill="none" stroke="#63b8ff" d="M37.54,-340.45C40.74,-381.07 53.81,-473.8 107,-524.5 111.27,-528.57 116.41,-531.72 121.87,-534.17"/>
<polygon fill="#63b8ff" stroke="#63b8ff" points="41.01,-339.99 36.86,-330.24 34.03,-340.45 41.01,-339.99"/>
</a>
</g>
</g>
<!-- Node3 -->
<g id="Node000003" class="node">
<title>Node3</title>
<g id="a_Node000003"><a xlink:href="classTagLib_1_1DSDIFF_1_1File.html" target="_top" xlink:title="An implementation of TagLib::File with DSDIFF specific methods.">
<polygon fill="white" stroke="#666666" points="225.5,-515 113.5,-515 113.5,-496 225.5,-496 225.5,-515"/>
<text text-anchor="middle" x="169.5" y="-503" font-family="Helvetica,sans-Serif" font-size="10.00">TagLib::DSDIFF::File</text>
</a>
</g>
</g>
<!-- Node0&#45;&gt;Node3 -->
<g id="edge24_Node000000_Node000003" class="edge">
<title>Node0&#45;&gt;Node3</title>
<g id="a_edge24_Node000000_Node000003"><a xlink:title=" ">
<path fill="none" stroke="#63b8ff" d="M39.28,-340.38C45.23,-375.32 62.47,-447.8 107,-487.5 110.82,-490.91 115.25,-493.67 119.96,-495.91"/>
<polygon fill="#63b8ff" stroke="#63b8ff" points="42.67,-339.41 37.67,-330.07 35.76,-340.49 42.67,-339.41"/>
</a>
</g>
</g>
<!-- Node4 -->
<g id="Node000004" class="node">
<title>Node4</title>
<g id="a_Node000004"><a xlink:href="classTagLib_1_1DSF_1_1File.html" target="_top" xlink:title="An implementation of TagLib::File with DSF specific methods.">
<polygon fill="white" stroke="#666666" points="217,-478 122,-478 122,-459 217,-459 217,-478"/>
<text text-anchor="middle" x="169.5" y="-466" font-family="Helvetica,sans-Serif" font-size="10.00">TagLib::DSF::File</text>
</a>
</g>
</g>
<!-- Node0&#45;&gt;Node4 -->
<g id="edge25_Node000000_Node000004" class="edge">
<title>Node0&#45;&gt;Node4</title>
<g id="a_edge25_Node000000_Node000004"><a xlink:title=" ">
<path fill="none" stroke="#63b8ff" d="M41.81,-339.97C50.6,-368.47 70.87,-421.32 107,-450.5 111.41,-454.06 116.51,-456.92 121.84,-459.22"/>
<polygon fill="#63b8ff" stroke="#63b8ff" points="45.16,-338.96 39,-330.34 38.45,-340.92 45.16,-338.96"/>
</a>
</g>
</g>
<!-- Node5 -->
<g id="Node000005" class="node">
<title>Node5</title>
<g id="a_Node000005"><a xlink:href="classTagLib_1_1FLAC_1_1File.html" target="_top" xlink:title="An implementation of TagLib::File with FLAC specific methods.">
<polygon fill="white" stroke="#666666" points="220.5,-441 118.5,-441 118.5,-422 220.5,-422 220.5,-441"/>
<text text-anchor="middle" x="169.5" y="-429" font-family="Helvetica,sans-Serif" font-size="10.00">TagLib::FLAC::File</text>
</a>
</g>
</g>
<!-- Node0&#45;&gt;Node5 -->
<g id="edge26_Node000000_Node000005" class="edge">
<title>Node0&#45;&gt;Node5</title>
<g id="a_edge26_Node000000_Node000005"><a xlink:title=" ">
<path fill="none" stroke="#63b8ff" d="M45.76,-338.94C57.28,-360.03 78.92,-394.15 107,-413.5 111.95,-416.91 117.54,-419.68 123.29,-421.93"/>
<polygon fill="#63b8ff" stroke="#63b8ff" points="48.81,-337.23 41.06,-330.01 42.62,-340.49 48.81,-337.23"/>
</a>
</g>
</g>
<!-- Node6 -->
<g id="Node000006" class="node">
<title>Node6</title>
<g id="a_Node000006"><a xlink:href="classTagLib_1_1MP4_1_1File.html" target="_top" xlink:title="An implementation of TagLib::File with MP4 specific methods.">
<polygon fill="white" stroke="#666666" points="218.5,-404 120.5,-404 120.5,-385 218.5,-385 218.5,-404"/>
<text text-anchor="middle" x="169.5" y="-392" font-family="Helvetica,sans-Serif" font-size="10.00">TagLib::MP4::File</text>
</a>
</g>
</g>
<!-- Node0&#45;&gt;Node6 -->
<g id="edge27_Node000000_Node000006" class="edge">
<title>Node0&#45;&gt;Node6</title>
<g id="a_edge27_Node000000_Node000006"><a xlink:title=" ">
<path fill="none" stroke="#63b8ff" d="M53.67,-337.31C67.18,-349.7 87,-366.14 107,-376.5 113.42,-379.83 120.55,-382.62 127.6,-384.95"/>
<polygon fill="#63b8ff" stroke="#63b8ff" points="55.81,-334.51 46.13,-330.21 51.01,-339.61 55.81,-334.51"/>
</a>
</g>
</g>
<!-- Node7 -->
<g id="Node000007" class="node">
<title>Node7</title>
<g id="a_Node000007"><a xlink:href="classTagLib_1_1MPC_1_1File.html" target="_top" xlink:title="An implementation of TagLib::File with MPC specific methods.">
<polygon fill="white" stroke="#666666" points="218.5,-367 120.5,-367 120.5,-348 218.5,-348 218.5,-367"/>
<text text-anchor="middle" x="169.5" y="-355" font-family="Helvetica,sans-Serif" font-size="10.00">TagLib::MPC::File</text>
</a>
</g>
</g>
<!-- Node0&#45;&gt;Node7 -->
<g id="edge28_Node000000_Node000007" class="edge">
<title>Node0&#45;&gt;Node7</title>
<g id="a_edge28_Node000000_Node000007"><a xlink:title=" ">
<path fill="none" stroke="#63b8ff" d="M80.47,-332.83C97.96,-337.73 117.77,-343.28 134.16,-347.88"/>
<polygon fill="#63b8ff" stroke="#63b8ff" points="81.07,-329.36 70.49,-330.03 79.18,-336.1 81.07,-329.36"/>
</a>
</g>
</g>
<!-- Node8 -->
<g id="Node000008" class="node">
<title>Node8</title>
<g id="a_Node000008"><a xlink:href="classTagLib_1_1MPEG_1_1File.html" target="_top" xlink:title="An MPEG file class with some useful methods specific to MPEG.">
<polygon fill="white" stroke="#666666" points="222,-330 117,-330 117,-311 222,-311 222,-330"/>
<text text-anchor="middle" x="169.5" y="-318" font-family="Helvetica,sans-Serif" font-size="10.00">TagLib::MPEG::File</text>
</a>
</g>
</g>
<!-- Node0&#45;&gt;Node8 -->
<g id="edge29_Node000000_Node000008" class="edge">
<title>Node0&#45;&gt;Node8</title>
<g id="a_edge29_Node000000_Node000008"><a xlink:title=" ">
<path fill="none" stroke="#63b8ff" d="M81.37,-320.5C92.8,-320.5 105.17,-320.5 116.91,-320.5"/>
<polygon fill="#63b8ff" stroke="#63b8ff" points="81.18,-317 71.18,-320.5 81.18,-324 81.18,-317"/>
</a>
</g>
</g>
<!-- Node9 -->
<g id="Node000009" class="node">
<title>Node9</title>
<g id="a_Node000009"><a xlink:href="classTagLib_1_1Matroska_1_1File.html" target="_top" xlink:title="An implementation of TagLib::File with Matroska specific methods.">
<polygon fill="white" stroke="#666666" points="230.5,-293 108.5,-293 108.5,-274 230.5,-274 230.5,-293"/>
<text text-anchor="middle" x="169.5" y="-281" font-family="Helvetica,sans-Serif" font-size="10.00">TagLib::Matroska::File</text>
</a>
</g>
</g>
<!-- Node0&#45;&gt;Node9 -->
<g id="edge30_Node000000_Node000009" class="edge">
<title>Node0&#45;&gt;Node9</title>
<g id="a_edge30_Node000000_Node000009"><a xlink:title=" ">
<path fill="none" stroke="#63b8ff" d="M80.47,-308.17C97.96,-303.27 117.77,-297.72 134.16,-293.12"/>
<polygon fill="#63b8ff" stroke="#63b8ff" points="79.18,-304.9 70.49,-310.97 81.07,-311.64 79.18,-304.9"/>
</a>
</g>
</g>
<!-- Node10 -->
<g id="Node000010" class="node">
<title>Node10</title>
<g id="a_Node000010"><a xlink:href="classTagLib_1_1Mod_1_1FileBase.html" target="_top" xlink:title="Base class for module files.">
<polygon fill="white" stroke="#666666" points="230.5,-256 108.5,-256 108.5,-237 230.5,-237 230.5,-256"/>
<text text-anchor="middle" x="169.5" y="-244" font-family="Helvetica,sans-Serif" font-size="10.00">TagLib::Mod::FileBase</text>
</a>
</g>
</g>
<!-- Node0&#45;&gt;Node10 -->
<g id="edge31_Node000000_Node000010" class="edge">
<title>Node0&#45;&gt;Node10</title>
<g id="a_edge31_Node000000_Node000010"><a xlink:title=" ">
<path fill="none" stroke="#63b8ff" d="M54.24,-303.67C67.78,-291.6 87.4,-275.73 107,-265.5 114.13,-261.78 122.12,-258.65 129.91,-256.07"/>
<polygon fill="#63b8ff" stroke="#63b8ff" points="51.67,-301.28 46.64,-310.61 56.39,-306.45 51.67,-301.28"/>
</a>
</g>
</g>
<!-- Node15 -->
<g id="Node000015" class="node">
<title>Node15</title>
<g id="a_Node000015"><a xlink:href="classTagLib_1_1Ogg_1_1File.html" target="_top" xlink:title="An implementation of TagLib::File with some helpers for Ogg based formats.">
<polygon fill="white" stroke="#666666" points="217.5,-219 121.5,-219 121.5,-200 217.5,-200 217.5,-219"/>
<text text-anchor="middle" x="169.5" y="-207" font-family="Helvetica,sans-Serif" font-size="10.00">TagLib::Ogg::File</text>
</a>
</g>
</g>
<!-- Node0&#45;&gt;Node15 -->
<g id="edge36_Node000000_Node000015" class="edge">
<title>Node0&#45;&gt;Node15</title>
<g id="a_edge36_Node000000_Node000015"><a xlink:title=" ">
<path fill="none" stroke="#63b8ff" d="M46.04,-302.01C57.7,-281.19 79.34,-247.76 107,-228.5 112.5,-224.67 118.8,-221.59 125.23,-219.12"/>
<polygon fill="#63b8ff" stroke="#63b8ff" points="42.94,-300.39 41.27,-310.85 49.1,-303.72 42.94,-300.39"/>
</a>
</g>
</g>
<!-- Node20 -->
<g id="Node000020" class="node">
<title>Node20</title>
<g id="a_Node000020"><a xlink:href="classTagLib_1_1RIFF_1_1File.html" target="_top" xlink:title="A RIFF file class with some useful methods specific to RIFF.">
<polygon fill="white" stroke="#666666" points="218.5,-182 120.5,-182 120.5,-163 218.5,-163 218.5,-182"/>
<text text-anchor="middle" x="169.5" y="-170" font-family="Helvetica,sans-Serif" font-size="10.00">TagLib::RIFF::File</text>
</a>
</g>
</g>
<!-- Node0&#45;&gt;Node20 -->
<g id="edge41_Node000000_Node000020" class="edge">
<title>Node0&#45;&gt;Node20</title>
<g id="a_edge41_Node000000_Node000020"><a xlink:title=" ">
<path fill="none" stroke="#63b8ff" d="M42.03,-300.87C51,-272.59 71.41,-220.58 107,-191.5 111.76,-187.61 117.31,-184.52 123.1,-182.05"/>
<polygon fill="#63b8ff" stroke="#63b8ff" points="38.58,-300.19 39.05,-310.77 45.29,-302.2 38.58,-300.19"/>
</a>
</g>
</g>
<!-- Node23 -->
<g id="Node000023" class="node">
<title>Node23</title>
<g id="a_Node000023"><a xlink:href="classTagLib_1_1Shorten_1_1File.html" target="_top" xlink:title="An implementation of TagLib::File with Shorten specific methods.">
<polygon fill="white" stroke="#666666" points="226.5,-145 112.5,-145 112.5,-126 226.5,-126 226.5,-145"/>
<text text-anchor="middle" x="169.5" y="-133" font-family="Helvetica,sans-Serif" font-size="10.00">TagLib::Shorten::File</text>
</a>
</g>
</g>
<!-- Node0&#45;&gt;Node23 -->
<g id="edge44_Node000000_Node000023" class="edge">
<title>Node0&#45;&gt;Node23</title>
<g id="a_edge44_Node000000_Node000023"><a xlink:title=" ">
<path fill="none" stroke="#63b8ff" d="M39.47,-300.31C45.64,-265.49 63.15,-194.09 107,-154.5 111.31,-150.61 116.41,-147.51 121.8,-145.05"/>
<polygon fill="#63b8ff" stroke="#63b8ff" points="35.94,-300.18 37.78,-310.62 42.85,-301.31 35.94,-300.18"/>
</a>
</g>
</g>
<!-- Node24 -->
<g id="Node000024" class="node">
<title>Node24</title>
<g id="a_Node000024"><a xlink:href="classTagLib_1_1TrueAudio_1_1File.html" target="_top" xlink:title="An implementation of TagLib::File with TrueAudio specific methods.">
<polygon fill="white" stroke="#666666" points="232,-108 107,-108 107,-89 232,-89 232,-108"/>
<text text-anchor="middle" x="169.5" y="-96" font-family="Helvetica,sans-Serif" font-size="10.00">TagLib::TrueAudio::File</text>
</a>
</g>
</g>
<!-- Node0&#45;&gt;Node24 -->
<g id="edge45_Node000000_Node000024" class="edge">
<title>Node0&#45;&gt;Node24</title>
<g id="a_edge45_Node000000_Node000024"><a xlink:title=" ">
<path fill="none" stroke="#63b8ff" d="M37.63,-300.71C41.01,-260.41 54.38,-168.33 107,-117.5 111.02,-113.62 115.81,-110.53 120.93,-108.07"/>
<polygon fill="#63b8ff" stroke="#63b8ff" points="34.13,-300.61 36.91,-310.84 41.11,-301.11 34.13,-300.61"/>
</a>
</g>
</g>
<!-- Node25 -->
<g id="Node000025" class="node">
<title>Node25</title>
<g id="a_Node000025"><a xlink:href="classTagLib_1_1WavPack_1_1File.html" target="_top" xlink:title="An implementation of TagLib::File with WavPack specific methods.">
<polygon fill="white" stroke="#666666" points="229.5,-71 109.5,-71 109.5,-52 229.5,-52 229.5,-71"/>
<text text-anchor="middle" x="169.5" y="-59" font-family="Helvetica,sans-Serif" font-size="10.00">TagLib::WavPack::File</text>
</a>
</g>
</g>
<!-- Node0&#45;&gt;Node25 -->
<g id="edge46_Node000000_Node000025" class="edge">
<title>Node0&#45;&gt;Node25</title>
<g id="a_edge46_Node000000_Node000025"><a xlink:title=" ">
<path fill="none" stroke="#63b8ff" d="M36.38,-300.61C37.21,-255.12 45.72,-142.64 107,-80.5 110.84,-76.6 115.47,-73.5 120.44,-71.03"/>
<polygon fill="#63b8ff" stroke="#63b8ff" points="32.88,-300.64 36.3,-310.66 39.88,-300.69 32.88,-300.64"/>
</a>
</g>
</g>
<!-- Node11 -->
<g id="Node000011" class="node">
<title>Node11</title>
<g id="a_Node000011"><a xlink:href="classTagLib_1_1IT_1_1File.html" target="_top" xlink:title="An implementation of TagLib::File with IT specific methods.">
<polygon fill="white" stroke="#666666" points="374.5,-386 289.5,-386 289.5,-367 374.5,-367 374.5,-386"/>
<text text-anchor="middle" x="332" y="-374" font-family="Helvetica,sans-Serif" font-size="10.00">TagLib::IT::File</text>
</a>
</g>
</g>
<!-- Node10&#45;&gt;Node11 -->
<g id="edge32_Node000010_Node000011" class="edge">
<title>Node10&#45;&gt;Node11</title>
<g id="a_edge32_Node000010_Node000011"><a xlink:title=" ">
<path fill="none" stroke="#63b8ff" d="M226.57,-261.15C228.48,-262.47 230.31,-263.92 232,-265.5 264.41,-295.73 235.27,-328.62 268,-358.5 273.96,-363.95 281.47,-367.75 289.19,-370.42"/>
<polygon fill="#63b8ff" stroke="#63b8ff" points="228.05,-257.97 217.63,-256.06 224.59,-264.05 228.05,-257.97"/>
</a>
</g>
</g>
<!-- Node12 -->
<g id="Node000012" class="node">
<title>Node12</title>
<g id="a_Node000012"><a xlink:href="classTagLib_1_1Mod_1_1File.html" target="_top" xlink:title="An implementation of TagLib::File with Mod specific methods.">
<polygon fill="white" stroke="#666666" points="381,-349 283,-349 283,-330 381,-330 381,-349"/>
<text text-anchor="middle" x="332" y="-337" font-family="Helvetica,sans-Serif" font-size="10.00">TagLib::Mod::File</text>
</a>
</g>
</g>
<!-- Node10&#45;&gt;Node12 -->
<g id="edge33_Node000010_Node000012" class="edge">
<title>Node10&#45;&gt;Node12</title>
<g id="a_edge33_Node000010_Node000012"><a xlink:title=" ">
<path fill="none" stroke="#63b8ff" d="M224.14,-260.43C226.9,-261.95 229.54,-263.63 232,-265.5 255.56,-283.4 244.25,-303.86 268,-321.5 272.57,-324.89 277.75,-327.64 283.14,-329.88"/>
<polygon fill="#63b8ff" stroke="#63b8ff" points="225.55,-257.22 215.02,-256.11 222.56,-263.55 225.55,-257.22"/>
</a>
</g>
</g>
<!-- Node13 -->
<g id="Node000013" class="node">
<title>Node13</title>
<g id="a_Node000013"><a xlink:href="classTagLib_1_1S3M_1_1File.html" target="_top" xlink:title="An implementation of TagLib::File with S3M specific methods.">
<polygon fill="white" stroke="#666666" points="381,-312 283,-312 283,-293 381,-293 381,-312"/>
<text text-anchor="middle" x="332" y="-300" font-family="Helvetica,sans-Serif" font-size="10.00">TagLib::S3M::File</text>
</a>
</g>
</g>
<!-- Node10&#45;&gt;Node13 -->
<g id="edge34_Node000010_Node000013" class="edge">
<title>Node10&#45;&gt;Node13</title>
<g id="a_edge34_Node000010_Node000013"><a xlink:title=" ">
<path fill="none" stroke="#63b8ff" d="M215.02,-259.17C220.79,-261.13 226.58,-263.25 232,-265.5 248.71,-272.42 251.21,-277.76 268,-284.5 275.92,-287.68 284.6,-290.54 292.93,-293"/>
<polygon fill="#63b8ff" stroke="#63b8ff" points="215.97,-255.8 205.38,-256.04 213.81,-262.46 215.97,-255.8"/>
</a>
</g>
</g>
<!-- Node14 -->
<g id="Node000014" class="node">
<title>Node14</title>
<g id="a_Node000014"><a xlink:href="classTagLib_1_1XM_1_1File.html" target="_top" xlink:title="An implementation of TagLib::File with XM specific methods.">
<polygon fill="white" stroke="#666666" points="378,-275 286,-275 286,-256 378,-256 378,-275"/>
<text text-anchor="middle" x="332" y="-263" font-family="Helvetica,sans-Serif" font-size="10.00">TagLib::XM::File</text>
</a>
</g>
</g>
<!-- Node10&#45;&gt;Node14 -->
<g id="edge35_Node000010_Node000014" class="edge">
<title>Node10&#45;&gt;Node14</title>
<g id="a_edge35_Node000010_Node000014"><a xlink:title=" ">
<path fill="none" stroke="#63b8ff" d="M240.72,-254.81C256.08,-256.63 271.94,-258.51 285.99,-260.17"/>
<polygon fill="#63b8ff" stroke="#63b8ff" points="241.06,-251.33 230.72,-253.63 240.24,-258.28 241.06,-251.33"/>
</a>
</g>
</g>
<!-- Node16 -->
<g id="Node000016" class="node">
<title>Node16</title>
<g id="a_Node000016"><a xlink:href="classTagLib_1_1Ogg_1_1FLAC_1_1File.html" target="_top" xlink:title="An implementation of TagLib::File with Ogg/FLAC specific methods.">
<polygon fill="white" stroke="#666666" points="396,-238 268,-238 268,-219 396,-219 396,-238"/>
<text text-anchor="middle" x="332" y="-226" font-family="Helvetica,sans-Serif" font-size="10.00">TagLib::Ogg::FLAC::File</text>
</a>
</g>
</g>
<!-- Node15&#45;&gt;Node16 -->
<g id="edge37_Node000015_Node000016" class="edge">
<title>Node15&#45;&gt;Node16</title>
<g id="a_edge37_Node000015_Node000016"><a xlink:title=" ">
<path fill="none" stroke="#63b8ff" d="M227.98,-216.3C240.95,-217.84 254.79,-219.48 267.98,-221.04"/>
<polygon fill="#63b8ff" stroke="#63b8ff" points="228.13,-212.8 217.79,-215.1 227.31,-219.75 228.13,-212.8"/>
</a>
</g>
</g>
<!-- Node17 -->
<g id="Node000017" class="node">
<title>Node17</title>
<g id="a_Node000017"><a xlink:href="classTagLib_1_1Ogg_1_1Opus_1_1File.html" target="_top" xlink:title="An implementation of Ogg::File with Opus specific methods.">
<polygon fill="white" stroke="#666666" points="395.5,-201 268.5,-201 268.5,-182 395.5,-182 395.5,-201"/>
<text text-anchor="middle" x="332" y="-189" font-family="Helvetica,sans-Serif" font-size="10.00">TagLib::Ogg::Opus::File</text>
</a>
</g>
</g>
<!-- Node15&#45;&gt;Node17 -->
<g id="edge38_Node000015_Node000017" class="edge">
<title>Node15&#45;&gt;Node17</title>
<g id="a_edge38_Node000015_Node000017"><a xlink:title=" ">
<path fill="none" stroke="#63b8ff" d="M228.04,-203.05C241.09,-201.58 255.02,-200.02 268.28,-198.53"/>
<polygon fill="#63b8ff" stroke="#63b8ff" points="227.33,-199.6 217.79,-204.2 228.12,-206.56 227.33,-199.6"/>
</a>
</g>
</g>
<!-- Node18 -->
<g id="Node000018" class="node">
<title>Node18</title>
<g id="a_Node000018"><a xlink:href="classTagLib_1_1Ogg_1_1Speex_1_1File.html" target="_top" xlink:title="An implementation of Ogg::File with Speex specific methods.">
<polygon fill="white" stroke="#666666" points="386.5,-163.5 277.5,-163.5 277.5,-133.5 386.5,-133.5 386.5,-163.5"/>
<text text-anchor="start" x="285.5" y="-151.5" font-family="Helvetica,sans-Serif" font-size="10.00">TagLib::Ogg::Speex</text>
<text text-anchor="middle" x="332" y="-140.5" font-family="Helvetica,sans-Serif" font-size="10.00">::File</text>
</a>
</g>
</g>
<!-- Node15&#45;&gt;Node18 -->
<g id="edge39_Node000015_Node000018" class="edge">
<title>Node15&#45;&gt;Node18</title>
<g id="a_edge39_Node000015_Node000018"><a xlink:title=" ">
<path fill="none" stroke="#63b8ff" d="M216.84,-196.91C222,-195.22 227.14,-193.41 232,-191.5 248.65,-184.96 251.67,-180.81 268,-173.5 275.52,-170.14 283.64,-166.74 291.46,-163.59"/>
<polygon fill="#63b8ff" stroke="#63b8ff" points="215.46,-193.67 206.96,-200 217.55,-200.35 215.46,-193.67"/>
</a>
</g>
</g>
<!-- Node19 -->
<g id="Node000019" class="node">
<title>Node19</title>
<g id="a_Node000019"><a xlink:href="classTagLib_1_1Ogg_1_1Vorbis_1_1File.html" target="_top" xlink:title="An implementation of Ogg::File with Vorbis specific methods.">
<polygon fill="white" stroke="#666666" points="386.5,-115.5 277.5,-115.5 277.5,-85.5 386.5,-85.5 386.5,-115.5"/>
<text text-anchor="start" x="285.5" y="-103.5" font-family="Helvetica,sans-Serif" font-size="10.00">TagLib::Ogg::Vorbis</text>
<text text-anchor="middle" x="332" y="-92.5" font-family="Helvetica,sans-Serif" font-size="10.00">::File</text>
</a>
</g>
</g>
<!-- Node15&#45;&gt;Node19 -->
<g id="edge40_Node000015_Node000019" class="edge">
<title>Node15&#45;&gt;Node19</title>
<g id="a_edge40_Node000015_Node000019"><a xlink:title=" ">
<path fill="none" stroke="#63b8ff" d="M226.99,-195.09C228.74,-193.98 230.41,-192.79 232,-191.5 258.26,-170.21 242.61,-146.81 268,-124.5 271.87,-121.1 276.27,-118.16 280.9,-115.62"/>
<polygon fill="#63b8ff" stroke="#63b8ff" points="225,-192.19 217.8,-199.96 228.27,-198.37 225,-192.19"/>
</a>
</g>
</g>
<!-- Node21 -->
<g id="Node000021" class="node">
<title>Node21</title>
<g id="a_Node000021"><a xlink:href="classTagLib_1_1RIFF_1_1AIFF_1_1File.html" target="_top" xlink:title="An implementation of TagLib::File with AIFF specific methods.">
<polygon fill="white" stroke="#666666" points="383,-67.5 281,-67.5 281,-37.5 383,-37.5 383,-67.5"/>
<text text-anchor="start" x="289" y="-55.5" font-family="Helvetica,sans-Serif" font-size="10.00">TagLib::RIFF::AIFF</text>
<text text-anchor="middle" x="332" y="-44.5" font-family="Helvetica,sans-Serif" font-size="10.00">::File</text>
</a>
</g>
</g>
<!-- Node20&#45;&gt;Node21 -->
<g id="edge42_Node000020_Node000021" class="edge">
<title>Node20&#45;&gt;Node21</title>
<g id="a_edge42_Node000020_Node000021"><a xlink:title=" ">
<path fill="none" stroke="#63b8ff" d="M227.71,-157.8C229.2,-156.77 230.64,-155.67 232,-154.5 260.92,-129.57 240.09,-102.56 268,-76.5 271.76,-72.99 276.1,-69.97 280.69,-67.39"/>
<polygon fill="#63b8ff" stroke="#63b8ff" points="225.61,-154.96 218.62,-162.92 229.05,-161.06 225.61,-154.96"/>
</a>
</g>
</g>
<!-- Node22 -->
<g id="Node000022" class="node">
<title>Node22</title>
<g id="a_Node000022"><a xlink:href="classTagLib_1_1RIFF_1_1WAV_1_1File.html" target="_top" xlink:title="An implementation of TagLib::File with WAV specific methods.">
<polygon fill="white" stroke="#666666" points="394.5,-19 269.5,-19 269.5,0 394.5,0 394.5,-19"/>
<text text-anchor="middle" x="332" y="-7" font-family="Helvetica,sans-Serif" font-size="10.00">TagLib::RIFF::WAV::File</text>
</a>
</g>
</g>
<!-- Node20&#45;&gt;Node22 -->
<g id="edge43_Node000020_Node000022" class="edge">
<title>Node20&#45;&gt;Node22</title>
<g id="a_edge43_Node000020_Node000022"><a xlink:title=" ">
<path fill="none" stroke="#63b8ff" d="M227.37,-158.51C229.01,-157.28 230.56,-155.95 232,-154.5 273.05,-113.19 227.12,-69.98 268,-28.5 271.85,-24.59 276.47,-21.49 281.44,-19.01"/>
<polygon fill="#63b8ff" stroke="#63b8ff" points="225.33,-155.66 218.57,-163.81 228.94,-161.65 225.33,-155.66"/>
</a>
</g>
</g>
</g>
</svg>
