<?xml version="1.0" encoding="UTF-8" standalone="no"?>
<!DOCTYPE svg PUBLIC "-//W3C//DTD SVG 1.1//EN"
 "http://www.w3.org/Graphics/SVG/1.1/DTD/svg11.dtd">
<!-- Generated by graphviz version 2.43.0 (0)
 -->
<!-- Title: Graphical Class Hierarchy Pages: 1 -->
<svg width="327pt" height="780pt"
 viewBox="0.00 0.00 327.00 780.00" xmlns="http://www.w3.org/2000/svg" xmlns:xlink="http://www.w3.org/1999/xlink">
<g id="graph0" class="graph" transform="scale(1 1) rotate(0) translate(4 776)">
<title>Graphical Class Hierarchy</title>
<polygon fill="white" stroke="transparent" points="-4,4 -4,-776 323,-776 323,4 -4,4"/>
<!-- Node0 -->
<g id="node1" class="node">
<title>Node0</title>
<g id="a_node1"><a xlink:href="classTagLib_1_1AudioProperties.html" target="_top" xlink:title="A simple, abstract interface to common audio properties.">
<polygon fill="white" stroke="black" points="0,-410.5 0,-429.5 131,-429.5 131,-410.5 0,-410.5"/>
<text text-anchor="middle" x="65.5" y="-417.5" font-family="Helvetica,sans-Serif" font-size="10.00">TagLib::AudioProperties</text>
</a>
</g>
</g>
<!-- Node1 -->
<g id="node2" class="node">
<title>Node1</title>
<g id="a_node2"><a xlink:href="classTagLib_1_1APE_1_1Properties.html" target="_top" xlink:title="An implementation of audio property reading for APE.">
<polygon fill="white" stroke="black" points="179,-752.5 179,-771.5 307,-771.5 307,-752.5 179,-752.5"/>
<text text-anchor="middle" x="243" y="-759.5" font-family="Helvetica,sans-Serif" font-size="10.00">TagLib::APE::Properties</text>
</a>
</g>
</g>
<!-- Node0&#45;&gt;Node1 -->
<g id="edge1" class="edge">
<title>Node0&#45;&gt;Node1</title>
<path fill="none" stroke="midnightblue" d="M66.4,-439.67C67.25,-495.84 77.68,-658.34 167,-743 171,-746.79 175.64,-749.85 180.61,-752.32"/>
<polygon fill="midnightblue" stroke="midnightblue" points="69.9,-439.62 66.34,-429.64 62.9,-439.66 69.9,-439.62"/>
</g>
<!-- Node2 -->
<g id="node3" class="node">
<title>Node2</title>
<g id="a_node3"><a xlink:href="classTagLib_1_1ASF_1_1Properties.html" target="_top" xlink:title="An implementation of ASF audio properties.">
<polygon fill="white" stroke="black" points="179.5,-714.5 179.5,-733.5 306.5,-733.5 306.5,-714.5 179.5,-714.5"/>
<text text-anchor="middle" x="243" y="-721.5" font-family="Helvetica,sans-Serif" font-size="10.00">TagLib::ASF::Properties</text>
</a>
</g>
</g>
<!-- Node0&#45;&gt;Node2 -->
<g id="edge2" class="edge">
<title>Node0&#45;&gt;Node2</title>
<path fill="none" stroke="midnightblue" d="M67.35,-439.73C70.68,-491.46 87.03,-631.99 167,-705 171.17,-708.8 175.98,-711.87 181.13,-714.34"/>
<polygon fill="midnightblue" stroke="midnightblue" points="70.84,-439.38 66.8,-429.59 63.85,-439.77 70.84,-439.38"/>
</g>
<!-- Node3 -->
<g id="node4" class="node">
<title>Node3</title>
<g id="a_node4"><a xlink:href="classTagLib_1_1DSDIFF_1_1Properties.html" target="_top" xlink:title="An implementation of audio property reading for DSDIFF.">
<polygon fill="white" stroke="black" points="171,-676.5 171,-695.5 315,-695.5 315,-676.5 171,-676.5"/>
<text text-anchor="middle" x="243" y="-683.5" font-family="Helvetica,sans-Serif" font-size="10.00">TagLib::DSDIFF::Properties</text>
</a>
</g>
</g>
<!-- Node0&#45;&gt;Node3 -->
<g id="edge3" class="edge">
<title>Node0&#45;&gt;Node3</title>
<path fill="none" stroke="midnightblue" d="M68.54,-439.59C74.5,-486.4 96.19,-605.36 167,-667 171.46,-670.88 176.6,-673.99 182.06,-676.47"/>
<polygon fill="midnightblue" stroke="midnightblue" points="72.01,-439.09 67.37,-429.56 65.06,-439.9 72.01,-439.09"/>
</g>
<!-- Node4 -->
<g id="node5" class="node">
<title>Node4</title>
<g id="a_node5"><a xlink:href="classTagLib_1_1DSF_1_1Properties.html" target="_top" xlink:title=" ">
<polygon fill="white" stroke="black" points="179,-638.5 179,-657.5 307,-657.5 307,-638.5 179,-638.5"/>
<text text-anchor="middle" x="243" y="-645.5" font-family="Helvetica,sans-Serif" font-size="10.00">TagLib::DSF::Properties</text>
</a>
</g>
</g>
<!-- Node0&#45;&gt;Node4 -->
<g id="edge4" class="edge">
<title>Node0&#45;&gt;Node4</title>
<path fill="none" stroke="midnightblue" d="M70.15,-439.64C78.95,-481.25 105.33,-578.58 167,-629 171.68,-632.83 177.03,-635.89 182.67,-638.35"/>
<polygon fill="midnightblue" stroke="midnightblue" points="73.55,-438.8 68.16,-429.68 66.69,-440.17 73.55,-438.8"/>
</g>
<!-- Node5 -->
<g id="node6" class="node">
<title>Node5</title>
<g id="a_node6"><a xlink:href="classTagLib_1_1FLAC_1_1Properties.html" target="_top" xlink:title="An implementation of audio property reading for FLAC.">
<polygon fill="white" stroke="black" points="176,-600.5 176,-619.5 310,-619.5 310,-600.5 176,-600.5"/>
<text text-anchor="middle" x="243" y="-607.5" font-family="Helvetica,sans-Serif" font-size="10.00">TagLib::FLAC::Properties</text>
</a>
</g>
</g>
<!-- Node0&#45;&gt;Node5 -->
<g id="edge5" class="edge">
<title>Node0&#45;&gt;Node5</title>
<path fill="none" stroke="midnightblue" d="M72.27,-439.21C83.99,-474.87 114.08,-551.29 167,-591 172.16,-594.87 178.02,-597.96 184.13,-600.42"/>
<polygon fill="midnightblue" stroke="midnightblue" points="75.56,-438.02 69.21,-429.53 68.88,-440.12 75.56,-438.02"/>
</g>
<!-- Node6 -->
<g id="node7" class="node">
<title>Node6</title>
<g id="a_node7"><a xlink:href="classTagLib_1_1IT_1_1Properties.html" target="_top" xlink:title=" ">
<polygon fill="white" stroke="black" points="184.5,-562.5 184.5,-581.5 301.5,-581.5 301.5,-562.5 184.5,-562.5"/>
<text text-anchor="middle" x="243" y="-569.5" font-family="Helvetica,sans-Serif" font-size="10.00">TagLib::IT::Properties</text>
</a>
</g>
</g>
<!-- Node0&#45;&gt;Node6 -->
<g id="edge6" class="edge">
<title>Node0&#45;&gt;Node6</title>
<path fill="none" stroke="midnightblue" d="M75.5,-438.95C90.34,-468.11 122.78,-523.65 167,-553 172.82,-556.86 179.37,-559.94 186.11,-562.39"/>
<polygon fill="midnightblue" stroke="midnightblue" points="78.56,-437.24 70.99,-429.83 72.28,-440.34 78.56,-437.24"/>
</g>
<!-- Node7 -->
<g id="node8" class="node">
<title>Node7</title>
<g id="a_node8"><a xlink:href="classTagLib_1_1MP4_1_1Properties.html" target="_top" xlink:title="An implementation of MP4 audio properties.">
<polygon fill="white" stroke="black" points="178,-524.5 178,-543.5 308,-543.5 308,-524.5 178,-524.5"/>
<text text-anchor="middle" x="243" y="-531.5" font-family="Helvetica,sans-Serif" font-size="10.00">TagLib::MP4::Properties</text>
</a>
</g>
</g>
<!-- Node0&#45;&gt;Node7 -->
<g id="edge7" class="edge">
<title>Node0&#45;&gt;Node7</title>
<path fill="none" stroke="midnightblue" d="M80.36,-437.78C98.12,-459.32 130.94,-495.17 167,-515 174.06,-518.88 181.93,-521.99 189.85,-524.47"/>
<polygon fill="midnightblue" stroke="midnightblue" points="82.91,-435.36 73.91,-429.77 77.46,-439.75 82.91,-435.36"/>
</g>
<!-- Node8 -->
<g id="node9" class="node">
<title>Node8</title>
<g id="a_node9"><a xlink:href="classTagLib_1_1MPC_1_1Properties.html" target="_top" xlink:title="An implementation of audio property reading for MPC.">
<polygon fill="white" stroke="black" points="177.5,-486.5 177.5,-505.5 308.5,-505.5 308.5,-486.5 177.5,-486.5"/>
<text text-anchor="middle" x="243" y="-493.5" font-family="Helvetica,sans-Serif" font-size="10.00">TagLib::MPC::Properties</text>
</a>
</g>
</g>
<!-- Node0&#45;&gt;Node8 -->
<g id="edge8" class="edge">
<title>Node0&#45;&gt;Node8</title>
<path fill="none" stroke="midnightblue" d="M89.14,-435.18C108.95,-447.89 138.88,-465.7 167,-477 176.22,-480.71 186.38,-483.86 196.16,-486.46"/>
<polygon fill="midnightblue" stroke="midnightblue" points="90.82,-432.1 80.53,-429.58 87,-437.97 90.82,-432.1"/>
</g>
<!-- Node9 -->
<g id="node10" class="node">
<title>Node9</title>
<g id="a_node10"><a xlink:href="classTagLib_1_1MPEG_1_1Properties.html" target="_top" xlink:title="An implementation of audio property reading for MP3.">
<polygon fill="white" stroke="black" points="174.5,-448.5 174.5,-467.5 311.5,-467.5 311.5,-448.5 174.5,-448.5"/>
<text text-anchor="middle" x="243" y="-455.5" font-family="Helvetica,sans-Serif" font-size="10.00">TagLib::MPEG::Properties</text>
</a>
</g>
</g>
<!-- Node0&#45;&gt;Node9 -->
<g id="edge9" class="edge">
<title>Node0&#45;&gt;Node9</title>
<path fill="none" stroke="midnightblue" d="M120.78,-431.75C145.59,-437.13 174.61,-443.41 198.03,-448.48"/>
<polygon fill="midnightblue" stroke="midnightblue" points="121.3,-428.28 110.79,-429.59 119.82,-435.13 121.3,-428.28"/>
</g>
<!-- Node10 -->
<g id="node11" class="node">
<title>Node10</title>
<g id="a_node11"><a xlink:href="classTagLib_1_1Mod_1_1Properties.html" target="_top" xlink:title=" ">
<polygon fill="white" stroke="black" points="178,-410.5 178,-429.5 308,-429.5 308,-410.5 178,-410.5"/>
<text text-anchor="middle" x="243" y="-417.5" font-family="Helvetica,sans-Serif" font-size="10.00">TagLib::Mod::Properties</text>
</a>
</g>
</g>
<!-- Node0&#45;&gt;Node10 -->
<g id="edge10" class="edge">
<title>Node0&#45;&gt;Node10</title>
<path fill="none" stroke="midnightblue" d="M141.4,-420C153.49,-420 165.9,-420 177.71,-420"/>
<polygon fill="midnightblue" stroke="midnightblue" points="141.35,-416.5 131.35,-420 141.35,-423.5 141.35,-416.5"/>
</g>
<!-- Node11 -->
<g id="node12" class="node">
<title>Node11</title>
<g id="a_node12"><a xlink:href="classTagLib_1_1Ogg_1_1Opus_1_1Properties.html" target="_top" xlink:title="An implementation of audio property reading for Ogg Opus.">
<polygon fill="white" stroke="black" points="188,-361 188,-391 298,-391 298,-361 188,-361"/>
<text text-anchor="start" x="196" y="-379" font-family="Helvetica,sans-Serif" font-size="10.00">TagLib::Ogg::Opus::</text>
<text text-anchor="middle" x="243" y="-368" font-family="Helvetica,sans-Serif" font-size="10.00">Properties</text>
</a>
</g>
</g>
<!-- Node0&#45;&gt;Node11 -->
<g id="edge11" class="edge">
<title>Node0&#45;&gt;Node11</title>
<path fill="none" stroke="midnightblue" d="M114.33,-408.01C137.01,-402.32 164.22,-395.5 187.68,-389.62"/>
<polygon fill="midnightblue" stroke="midnightblue" points="113.43,-404.63 104.58,-410.45 115.13,-411.42 113.43,-404.63"/>
</g>
<!-- Node12 -->
<g id="node13" class="node">
<title>Node12</title>
<g id="a_node13"><a xlink:href="classTagLib_1_1Ogg_1_1Speex_1_1Properties.html" target="_top" xlink:title="An implementation of audio property reading for Ogg Speex.">
<polygon fill="white" stroke="black" points="188.5,-312 188.5,-342 297.5,-342 297.5,-312 188.5,-312"/>
<text text-anchor="start" x="196.5" y="-330" font-family="Helvetica,sans-Serif" font-size="10.00">TagLib::Ogg::Speex</text>
<text text-anchor="middle" x="243" y="-319" font-family="Helvetica,sans-Serif" font-size="10.00">::Properties</text>
</a>
</g>
</g>
<!-- Node0&#45;&gt;Node12 -->
<g id="edge12" class="edge">
<title>Node0&#45;&gt;Node12</title>
<path fill="none" stroke="midnightblue" d="M86.35,-404.16C105.93,-389.13 137.18,-366.71 167,-352 174.39,-348.36 182.43,-345.05 190.42,-342.12"/>
<polygon fill="midnightblue" stroke="midnightblue" points="83.96,-401.59 78.22,-410.49 88.26,-407.11 83.96,-401.59"/>
</g>
<!-- Node13 -->
<g id="node14" class="node">
<title>Node13</title>
<g id="a_node14"><a xlink:href="classTagLib_1_1Ogg_1_1Vorbis_1_1Properties.html" target="_top" xlink:title="An implementation of audio property reading for Ogg Vorbis.">
<polygon fill="white" stroke="black" points="188.5,-263 188.5,-293 297.5,-293 297.5,-263 188.5,-263"/>
<text text-anchor="start" x="196.5" y="-281" font-family="Helvetica,sans-Serif" font-size="10.00">TagLib::Ogg::Vorbis</text>
<text text-anchor="middle" x="243" y="-270" font-family="Helvetica,sans-Serif" font-size="10.00">::Properties</text>
</a>
</g>
</g>
<!-- Node0&#45;&gt;Node13 -->
<g id="edge13" class="edge">
<title>Node0&#45;&gt;Node13</title>
<path fill="none" stroke="midnightblue" d="M77.72,-401.53C94.21,-375.88 127.38,-329.61 167,-303 173.49,-298.64 180.82,-294.98 188.27,-291.93"/>
<polygon fill="midnightblue" stroke="midnightblue" points="74.59,-399.94 72.24,-410.27 80.52,-403.66 74.59,-399.94"/>
</g>
<!-- Node14 -->
<g id="node15" class="node">
<title>Node14</title>
<g id="a_node15"><a xlink:href="classTagLib_1_1RIFF_1_1AIFF_1_1Properties.html" target="_top" xlink:title="An implementation of audio property reading for AIFF.">
<polygon fill="white" stroke="black" points="192,-214 192,-244 294,-244 294,-214 192,-214"/>
<text text-anchor="start" x="200" y="-232" font-family="Helvetica,sans-Serif" font-size="10.00">TagLib::RIFF::AIFF</text>
<text text-anchor="middle" x="243" y="-221" font-family="Helvetica,sans-Serif" font-size="10.00">::Properties</text>
</a>
</g>
</g>
<!-- Node0&#45;&gt;Node14 -->
<g id="edge14" class="edge">
<title>Node0&#45;&gt;Node14</title>
<path fill="none" stroke="midnightblue" d="M73.23,-400.28C86.02,-365.66 117.12,-293.85 167,-254 174.29,-248.17 183,-243.68 191.86,-240.22"/>
<polygon fill="midnightblue" stroke="midnightblue" points="69.78,-399.53 69.71,-410.12 76.37,-401.88 69.78,-399.53"/>
</g>
<!-- Node15 -->
<g id="node16" class="node">
<title>Node15</title>
<g id="a_node16"><a xlink:href="classTagLib_1_1RIFF_1_1WAV_1_1Properties.html" target="_top" xlink:title="An implementation of audio property reading for WAV.">
<polygon fill="white" stroke="black" points="189.5,-165 189.5,-195 296.5,-195 296.5,-165 189.5,-165"/>
<text text-anchor="start" x="197.5" y="-183" font-family="Helvetica,sans-Serif" font-size="10.00">TagLib::RIFF::WAV::</text>
<text text-anchor="middle" x="243" y="-172" font-family="Helvetica,sans-Serif" font-size="10.00">Properties</text>
</a>
</g>
</g>
<!-- Node0&#45;&gt;Node15 -->
<g id="edge15" class="edge">
<title>Node0&#45;&gt;Node15</title>
<path fill="none" stroke="midnightblue" d="M70.22,-400.43C79.2,-358.48 105.99,-259.34 167,-205 173.46,-199.25 181.28,-194.81 189.4,-191.4"/>
<polygon fill="midnightblue" stroke="midnightblue" points="66.79,-399.73 68.23,-410.23 73.65,-401.13 66.79,-399.73"/>
</g>
<!-- Node16 -->
<g id="node17" class="node">
<title>Node16</title>
<g id="a_node17"><a xlink:href="classTagLib_1_1S3M_1_1Properties.html" target="_top" xlink:title=" ">
<polygon fill="white" stroke="black" points="178,-126.5 178,-145.5 308,-145.5 308,-126.5 178,-126.5"/>
<text text-anchor="middle" x="243" y="-133.5" font-family="Helvetica,sans-Serif" font-size="10.00">TagLib::S3M::Properties</text>
</a>
</g>
</g>
<!-- Node0&#45;&gt;Node16 -->
<g id="edge16" class="edge">
<title>Node0&#45;&gt;Node16</title>
<path fill="none" stroke="midnightblue" d="M68.05,-400.14C72.97,-351.03 92.66,-223.05 167,-156 171.8,-151.67 177.44,-148.26 183.43,-145.57"/>
<polygon fill="midnightblue" stroke="midnightblue" points="64.54,-400.08 67.13,-410.36 71.51,-400.71 64.54,-400.08"/>
</g>
<!-- Node17 -->
<g id="node18" class="node">
<title>Node17</title>
<g id="a_node18"><a xlink:href="classTagLib_1_1TrueAudio_1_1Properties.html" target="_top" xlink:title="An implementation of audio property reading for TrueAudio.">
<polygon fill="white" stroke="black" points="189.5,-77 189.5,-107 296.5,-107 296.5,-77 189.5,-77"/>
<text text-anchor="start" x="197.5" y="-95" font-family="Helvetica,sans-Serif" font-size="10.00">TagLib::TrueAudio::</text>
<text text-anchor="middle" x="243" y="-84" font-family="Helvetica,sans-Serif" font-size="10.00">Properties</text>
</a>
</g>
</g>
<!-- Node0&#45;&gt;Node17 -->
<g id="edge17" class="edge">
<title>Node0&#45;&gt;Node17</title>
<path fill="none" stroke="midnightblue" d="M67.21,-400.09C70.22,-346.6 85.82,-198.3 167,-117 173.21,-110.78 181,-106.11 189.19,-102.6"/>
<polygon fill="midnightblue" stroke="midnightblue" points="63.71,-400.12 66.74,-410.27 70.7,-400.45 63.71,-400.12"/>
</g>
<!-- Node18 -->
<g id="node19" class="node">
<title>Node18</title>
<g id="a_node19"><a xlink:href="classTagLib_1_1WavPack_1_1Properties.html" target="_top" xlink:title="An implementation of audio property reading for WavPack.">
<polygon fill="white" stroke="black" points="167,-38.5 167,-57.5 319,-57.5 319,-38.5 167,-38.5"/>
<text text-anchor="middle" x="243" y="-45.5" font-family="Helvetica,sans-Serif" font-size="10.00">TagLib::WavPack::Properties</text>
</a>
</g>
</g>
<!-- Node0&#45;&gt;Node18 -->
<g id="edge18" class="edge">
<title>Node0&#45;&gt;Node18</title>
<path fill="none" stroke="midnightblue" d="M65.86,-400.25C65.08,-340.86 71.17,-162.17 167,-68 171.42,-63.66 176.68,-60.23 182.32,-57.52"/>
<polygon fill="midnightblue" stroke="midnightblue" points="62.37,-400.56 66.09,-410.48 69.37,-400.4 62.37,-400.56"/>
</g>
<!-- Node19 -->
<g id="node20" class="node">
<title>Node19</title>
<g id="a_node20"><a xlink:href="classTagLib_1_1XM_1_1Properties.html" target="_top" xlink:title=" ">
<polygon fill="white" stroke="black" points="180.5,-0.5 180.5,-19.5 305.5,-19.5 305.5,-0.5 180.5,-0.5"/>
<text text-anchor="middle" x="243" y="-7.5" font-family="Helvetica,sans-Serif" font-size="10.00">TagLib::XM::Properties</text>
</a>
</g>
</g>
<!-- Node0&#45;&gt;Node19 -->
<g id="edge19" class="edge">
<title>Node0&#45;&gt;Node19</title>
<path fill="none" stroke="midnightblue" d="M68.93,-400.15C78.1,-328.26 112.92,-82.89 167,-29 170.9,-25.11 175.48,-21.98 180.41,-19.47"/>
<polygon fill="midnightblue" stroke="midnightblue" points="65.4,-400.12 67.63,-410.48 72.35,-400.99 65.4,-400.12"/>
</g>
</g>
</svg>
