<?xml version="1.0" encoding="UTF-8" standalone="no"?>
<!DOCTYPE svg PUBLIC "-//W3C//DTD SVG 1.1//EN"
 "http://www.w3.org/Graphics/SVG/1.1/DTD/svg11.dtd">
<!-- Generated by graphviz version 2.43.0 (0)
 -->
<!-- Title: Graphical Class Hierarchy Pages: 1 -->
<svg width="404pt" height="508pt"
 viewBox="0.00 0.00 404.00 508.00" xmlns="http://www.w3.org/2000/svg" xmlns:xlink="http://www.w3.org/1999/xlink">
<g id="graph0" class="graph" transform="scale(1 1) rotate(0) translate(4 504)">
<title>Graphical Class Hierarchy</title>
<polygon fill="white" stroke="transparent" points="-4,4 -4,-504 400,-504 400,4 -4,4"/>
<!-- Node0 -->
<g id="node1" class="node">
<title>Node0</title>
<g id="a_node1"><a xlink:href="classTagLib_1_1File.html" target="_top" xlink:title="A file class with some useful methods for tag manipulation.">
<polygon fill="white" stroke="black" points="0,-290.5 0,-309.5 71,-309.5 71,-290.5 0,-290.5"/>
<text text-anchor="middle" x="35.5" y="-297.5" font-family="Helvetica,sans-Serif" font-size="10.00">TagLib::File</text>
</a>
</g>
</g>
<!-- Node1 -->
<g id="node2" class="node">
<title>Node1</title>
<g id="a_node2"><a xlink:href="classTagLib_1_1APE_1_1File.html" target="_top" xlink:title="An implementation of TagLib::File with APE specific methods.">
<polygon fill="white" stroke="black" points="122,-480.5 122,-499.5 217,-499.5 217,-480.5 122,-480.5"/>
<text text-anchor="middle" x="169.5" y="-487.5" font-family="Helvetica,sans-Serif" font-size="10.00">TagLib::APE::File</text>
</a>
</g>
</g>
<!-- Node0&#45;&gt;Node1 -->
<g id="edge1" class="edge">
<title>Node0&#45;&gt;Node1</title>
<path fill="none" stroke="midnightblue" d="M39.12,-319.82C44.86,-355.29 61.84,-429.79 107,-471 111.29,-474.92 116.38,-478.03 121.76,-480.5"/>
<polygon fill="midnightblue" stroke="midnightblue" points="42.56,-319.14 37.63,-309.76 35.63,-320.16 42.56,-319.14"/>
</g>
<!-- Node2 -->
<g id="node3" class="node">
<title>Node2</title>
<g id="a_node3"><a xlink:href="classTagLib_1_1ASF_1_1File.html" target="_top" xlink:title=" ">
<polygon fill="white" stroke="black" points="122,-442.5 122,-461.5 217,-461.5 217,-442.5 122,-442.5"/>
<text text-anchor="middle" x="169.5" y="-449.5" font-family="Helvetica,sans-Serif" font-size="10.00">TagLib::ASF::File</text>
</a>
</g>
</g>
<!-- Node0&#45;&gt;Node2 -->
<g id="edge2" class="edge">
<title>Node0&#45;&gt;Node2</title>
<path fill="none" stroke="midnightblue" d="M41.61,-319.42C50.24,-348.38 70.41,-402.71 107,-433 111.65,-436.85 117.07,-439.92 122.74,-442.37"/>
<polygon fill="midnightblue" stroke="midnightblue" points="44.95,-318.34 38.87,-309.66 38.21,-320.24 44.95,-318.34"/>
</g>
<!-- Node3 -->
<g id="node4" class="node">
<title>Node3</title>
<g id="a_node4"><a xlink:href="classTagLib_1_1FLAC_1_1File.html" target="_top" xlink:title="An implementation of TagLib::File with FLAC specific methods.">
<polygon fill="white" stroke="black" points="118.5,-404.5 118.5,-423.5 220.5,-423.5 220.5,-404.5 118.5,-404.5"/>
<text text-anchor="middle" x="169.5" y="-411.5" font-family="Helvetica,sans-Serif" font-size="10.00">TagLib::FLAC::File</text>
</a>
</g>
</g>
<!-- Node0&#45;&gt;Node3 -->
<g id="edge3" class="edge">
<title>Node0&#45;&gt;Node3</title>
<path fill="none" stroke="midnightblue" d="M45.71,-318.76C57.19,-340.24 78.78,-375.02 107,-395 112.47,-398.87 118.76,-401.98 125.18,-404.45"/>
<polygon fill="midnightblue" stroke="midnightblue" points="48.72,-316.96 41.03,-309.67 42.5,-320.16 48.72,-316.96"/>
</g>
<!-- Node4 -->
<g id="node5" class="node">
<title>Node4</title>
<g id="a_node5"><a xlink:href="classTagLib_1_1MP4_1_1File.html" target="_top" xlink:title=" ">
<polygon fill="white" stroke="black" points="120.5,-366.5 120.5,-385.5 218.5,-385.5 218.5,-366.5 120.5,-366.5"/>
<text text-anchor="middle" x="169.5" y="-373.5" font-family="Helvetica,sans-Serif" font-size="10.00">TagLib::MP4::File</text>
</a>
</g>
</g>
<!-- Node0&#45;&gt;Node4 -->
<g id="edge4" class="edge">
<title>Node0&#45;&gt;Node4</title>
<path fill="none" stroke="midnightblue" d="M53.66,-317.04C67.17,-329.61 86.99,-346.33 107,-357 114,-360.73 121.85,-363.86 129.54,-366.42"/>
<polygon fill="midnightblue" stroke="midnightblue" points="55.77,-314.21 46.13,-309.83 50.94,-319.27 55.77,-314.21"/>
</g>
<!-- Node5 -->
<g id="node6" class="node">
<title>Node5</title>
<g id="a_node6"><a xlink:href="classTagLib_1_1MPC_1_1File.html" target="_top" xlink:title="An implementation of TagLib::File with MPC specific methods.">
<polygon fill="white" stroke="black" points="120.5,-328.5 120.5,-347.5 218.5,-347.5 218.5,-328.5 120.5,-328.5"/>
<text text-anchor="middle" x="169.5" y="-335.5" font-family="Helvetica,sans-Serif" font-size="10.00">TagLib::MPC::File</text>
</a>
</g>
</g>
<!-- Node0&#45;&gt;Node5 -->
<g id="edge5" class="edge">
<title>Node0&#45;&gt;Node5</title>
<path fill="none" stroke="midnightblue" d="M79.54,-312.39C97.62,-317.59 118.32,-323.55 135.2,-328.41"/>
<polygon fill="midnightblue" stroke="midnightblue" points="80.39,-308.99 69.81,-309.59 78.45,-315.72 80.39,-308.99"/>
</g>
<!-- Node6 -->
<g id="node7" class="node">
<title>Node6</title>
<g id="a_node7"><a xlink:href="classTagLib_1_1MPEG_1_1File.html" target="_top" xlink:title="An MPEG file class with some useful methods specific to MPEG.">
<polygon fill="white" stroke="black" points="117,-290.5 117,-309.5 222,-309.5 222,-290.5 117,-290.5"/>
<text text-anchor="middle" x="169.5" y="-297.5" font-family="Helvetica,sans-Serif" font-size="10.00">TagLib::MPEG::File</text>
</a>
</g>
</g>
<!-- Node0&#45;&gt;Node6 -->
<g id="edge6" class="edge">
<title>Node0&#45;&gt;Node6</title>
<path fill="none" stroke="midnightblue" d="M81.37,-300C92.8,-300 105.17,-300 116.91,-300"/>
<polygon fill="midnightblue" stroke="midnightblue" points="81.18,-296.5 71.18,-300 81.18,-303.5 81.18,-296.5"/>
</g>
<!-- Node7 -->
<g id="node8" class="node">
<title>Node7</title>
<g id="a_node8"><a xlink:href="classTagLib_1_1Mod_1_1FileBase.html" target="_top" xlink:title=" ">
<polygon fill="white" stroke="black" points="108.5,-252.5 108.5,-271.5 230.5,-271.5 230.5,-252.5 108.5,-252.5"/>
<text text-anchor="middle" x="169.5" y="-259.5" font-family="Helvetica,sans-Serif" font-size="10.00">TagLib::Mod::FileBase</text>
</a>
</g>
</g>
<!-- Node0&#45;&gt;Node7 -->
<g id="edge7" class="edge">
<title>Node0&#45;&gt;Node7</title>
<path fill="none" stroke="midnightblue" d="M79.54,-287.61C97.62,-282.41 118.32,-276.45 135.2,-271.59"/>
<polygon fill="midnightblue" stroke="midnightblue" points="78.45,-284.28 69.81,-290.41 80.39,-291.01 78.45,-284.28"/>
</g>
<!-- Node12 -->
<g id="node13" class="node">
<title>Node12</title>
<g id="a_node13"><a xlink:href="classTagLib_1_1Ogg_1_1File.html" target="_top" xlink:title="An implementation of TagLib::File with some helpers for Ogg based formats.">
<polygon fill="white" stroke="black" points="121.5,-195.5 121.5,-214.5 217.5,-214.5 217.5,-195.5 121.5,-195.5"/>
<text text-anchor="middle" x="169.5" y="-202.5" font-family="Helvetica,sans-Serif" font-size="10.00">TagLib::Ogg::File</text>
</a>
</g>
</g>
<!-- Node0&#45;&gt;Node12 -->
<g id="edge12" class="edge">
<title>Node0&#45;&gt;Node12</title>
<path fill="none" stroke="midnightblue" d="M55.5,-283.54C69.41,-271.77 88.92,-255.82 107,-243 121.64,-232.62 139.12,-221.98 151.69,-214.61"/>
<polygon fill="midnightblue" stroke="midnightblue" points="52.96,-281.11 47.63,-290.26 57.51,-286.43 52.96,-281.11"/>
</g>
<!-- Node17 -->
<g id="node18" class="node">
<title>Node17</title>
<g id="a_node18"><a xlink:href="classTagLib_1_1RIFF_1_1File.html" target="_top" xlink:title="An RIFF file class with some useful methods specific to RIFF.">
<polygon fill="white" stroke="black" points="120.5,-157.5 120.5,-176.5 218.5,-176.5 218.5,-157.5 120.5,-157.5"/>
<text text-anchor="middle" x="169.5" y="-164.5" font-family="Helvetica,sans-Serif" font-size="10.00">TagLib::RIFF::File</text>
</a>
</g>
</g>
<!-- Node0&#45;&gt;Node17 -->
<g id="edge17" class="edge">
<title>Node0&#45;&gt;Node17</title>
<path fill="none" stroke="midnightblue" d="M43.38,-280.85C53.46,-255.48 74.63,-211.04 107,-186 112.04,-182.1 117.88,-179 123.92,-176.53"/>
<polygon fill="midnightblue" stroke="midnightblue" points="40.02,-279.85 39.74,-290.44 46.56,-282.33 40.02,-279.85"/>
</g>
<!-- Node20 -->
<g id="node21" class="node">
<title>Node20</title>
<g id="a_node21"><a xlink:href="classTagLib_1_1TrueAudio_1_1File.html" target="_top" xlink:title="An implementation of TagLib::File with TrueAudio specific methods.">
<polygon fill="white" stroke="black" points="107,-119.5 107,-138.5 232,-138.5 232,-119.5 107,-119.5"/>
<text text-anchor="middle" x="169.5" y="-126.5" font-family="Helvetica,sans-Serif" font-size="10.00">TagLib::TrueAudio::File</text>
</a>
</g>
</g>
<!-- Node0&#45;&gt;Node20 -->
<g id="edge20" class="edge">
<title>Node0&#45;&gt;Node20</title>
<path fill="none" stroke="midnightblue" d="M40.28,-280.14C47.49,-247.75 66.24,-183.61 107,-148 111.46,-144.1 116.71,-141.01 122.23,-138.54"/>
<polygon fill="midnightblue" stroke="midnightblue" points="36.81,-279.67 38.2,-290.17 43.66,-281.09 36.81,-279.67"/>
</g>
<!-- Node21 -->
<g id="node22" class="node">
<title>Node21</title>
<g id="a_node22"><a xlink:href="classTagLib_1_1WavPack_1_1File.html" target="_top" xlink:title="An implementation of TagLib::File with WavPack specific methods.">
<polygon fill="white" stroke="black" points="109.5,-81.5 109.5,-100.5 229.5,-100.5 229.5,-81.5 109.5,-81.5"/>
<text text-anchor="middle" x="169.5" y="-88.5" font-family="Helvetica,sans-Serif" font-size="10.00">TagLib::WavPack::File</text>
</a>
</g>
</g>
<!-- Node0&#45;&gt;Node21 -->
<g id="edge21" class="edge">
<title>Node0&#45;&gt;Node21</title>
<path fill="none" stroke="midnightblue" d="M38.24,-279.64C42.64,-240.98 57.66,-156.67 107,-110 111.14,-106.08 116.07,-102.97 121.32,-100.5"/>
<polygon fill="midnightblue" stroke="midnightblue" points="34.71,-279.78 37.19,-290.08 41.68,-280.48 34.71,-279.78"/>
</g>
<!-- Node8 -->
<g id="node9" class="node">
<title>Node8</title>
<g id="a_node9"><a xlink:href="classTagLib_1_1IT_1_1File.html" target="_top" xlink:title=" ">
<polygon fill="white" stroke="black" points="289.5,-376.5 289.5,-395.5 374.5,-395.5 374.5,-376.5 289.5,-376.5"/>
<text text-anchor="middle" x="332" y="-383.5" font-family="Helvetica,sans-Serif" font-size="10.00">TagLib::IT::File</text>
</a>
</g>
</g>
<!-- Node7&#45;&gt;Node8 -->
<g id="edge8" class="edge">
<title>Node7&#45;&gt;Node8</title>
<path fill="none" stroke="midnightblue" d="M226.4,-276.63C228.37,-277.96 230.25,-279.41 232,-281 262.68,-308.85 237.22,-339.26 268,-367 274.02,-372.43 281.55,-376.31 289.29,-379.08"/>
<polygon fill="midnightblue" stroke="midnightblue" points="227.66,-273.32 217.22,-271.53 224.26,-279.44 227.66,-273.32"/>
</g>
<!-- Node9 -->
<g id="node10" class="node">
<title>Node9</title>
<g id="a_node10"><a xlink:href="classTagLib_1_1Mod_1_1File.html" target="_top" xlink:title=" ">
<polygon fill="white" stroke="black" points="283,-338.5 283,-357.5 381,-357.5 381,-338.5 283,-338.5"/>
<text text-anchor="middle" x="332" y="-345.5" font-family="Helvetica,sans-Serif" font-size="10.00">TagLib::Mod::File</text>
</a>
</g>
</g>
<!-- Node7&#45;&gt;Node9 -->
<g id="edge9" class="edge">
<title>Node7&#45;&gt;Node9</title>
<path fill="none" stroke="midnightblue" d="M222.97,-275.62C226.13,-277.22 229.17,-279.01 232,-281 253.8,-296.35 246.14,-313.72 268,-329 273.52,-332.86 279.85,-335.95 286.31,-338.42"/>
<polygon fill="midnightblue" stroke="midnightblue" points="224.37,-272.41 213.81,-271.57 221.54,-278.81 224.37,-272.41"/>
</g>
<!-- Node10 -->
<g id="node11" class="node">
<title>Node10</title>
<g id="a_node11"><a xlink:href="classTagLib_1_1S3M_1_1File.html" target="_top" xlink:title=" ">
<polygon fill="white" stroke="black" points="283,-300.5 283,-319.5 381,-319.5 381,-300.5 283,-300.5"/>
<text text-anchor="middle" x="332" y="-307.5" font-family="Helvetica,sans-Serif" font-size="10.00">TagLib::S3M::File</text>
</a>
</g>
</g>
<!-- Node7&#45;&gt;Node10 -->
<g id="edge10" class="edge">
<title>Node7&#45;&gt;Node10</title>
<path fill="none" stroke="midnightblue" d="M212.19,-274.47C239.28,-282.57 274.05,-292.97 298.96,-300.42"/>
<polygon fill="midnightblue" stroke="midnightblue" points="213.18,-271.11 202.59,-271.6 211.17,-277.82 213.18,-271.11"/>
</g>
<!-- Node11 -->
<g id="node12" class="node">
<title>Node11</title>
<g id="a_node12"><a xlink:href="classTagLib_1_1XM_1_1File.html" target="_top" xlink:title=" ">
<polygon fill="white" stroke="black" points="286,-262.5 286,-281.5 378,-281.5 378,-262.5 286,-262.5"/>
<text text-anchor="middle" x="332" y="-269.5" font-family="Helvetica,sans-Serif" font-size="10.00">TagLib::XM::File</text>
</a>
</g>
</g>
<!-- Node7&#45;&gt;Node11 -->
<g id="edge11" class="edge">
<title>Node7&#45;&gt;Node11</title>
<path fill="none" stroke="midnightblue" d="M240.72,-266.37C256.08,-267.33 271.94,-268.32 285.99,-269.2"/>
<polygon fill="midnightblue" stroke="midnightblue" points="240.92,-262.88 230.72,-265.75 240.48,-269.87 240.92,-262.88"/>
</g>
<!-- Node13 -->
<g id="node14" class="node">
<title>Node13</title>
<g id="a_node14"><a xlink:href="classTagLib_1_1Ogg_1_1FLAC_1_1File.html" target="_top" xlink:title="An implementation of TagLib::File with Ogg/FLAC specific methods.">
<polygon fill="white" stroke="black" points="268,-224.5 268,-243.5 396,-243.5 396,-224.5 268,-224.5"/>
<text text-anchor="middle" x="332" y="-231.5" font-family="Helvetica,sans-Serif" font-size="10.00">TagLib::Ogg::FLAC::File</text>
</a>
</g>
</g>
<!-- Node12&#45;&gt;Node13 -->
<g id="edge13" class="edge">
<title>Node12&#45;&gt;Node13</title>
<path fill="none" stroke="midnightblue" d="M227.8,-215.35C244.21,-218.32 262.02,-221.54 278.15,-224.45"/>
<polygon fill="midnightblue" stroke="midnightblue" points="228.25,-211.88 217.79,-213.54 227.01,-218.77 228.25,-211.88"/>
</g>
<!-- Node14 -->
<g id="node15" class="node">
<title>Node14</title>
<g id="a_node15"><a xlink:href="classTagLib_1_1Ogg_1_1Opus_1_1File.html" target="_top" xlink:title="An implementation of Ogg::File with Opus specific methods.">
<polygon fill="white" stroke="black" points="268.5,-186.5 268.5,-205.5 395.5,-205.5 395.5,-186.5 268.5,-186.5"/>
<text text-anchor="middle" x="332" y="-193.5" font-family="Helvetica,sans-Serif" font-size="10.00">TagLib::Ogg::Opus::File</text>
</a>
</g>
</g>
<!-- Node12&#45;&gt;Node14 -->
<g id="edge14" class="edge">
<title>Node12&#45;&gt;Node14</title>
<path fill="none" stroke="midnightblue" d="M228.04,-201.77C241.09,-201.04 255.02,-200.26 268.28,-199.52"/>
<polygon fill="midnightblue" stroke="midnightblue" points="227.58,-198.29 217.79,-202.35 227.97,-205.28 227.58,-198.29"/>
</g>
<!-- Node15 -->
<g id="node16" class="node">
<title>Node15</title>
<g id="a_node16"><a xlink:href="classTagLib_1_1Ogg_1_1Speex_1_1File.html" target="_top" xlink:title="An implementation of Ogg::File with Speex specific methods.">
<polygon fill="white" stroke="black" points="277.5,-137 277.5,-167 386.5,-167 386.5,-137 277.5,-137"/>
<text text-anchor="start" x="285.5" y="-155" font-family="Helvetica,sans-Serif" font-size="10.00">TagLib::Ogg::Speex</text>
<text text-anchor="middle" x="332" y="-144" font-family="Helvetica,sans-Serif" font-size="10.00">::File</text>
</a>
</g>
</g>
<!-- Node12&#45;&gt;Node15 -->
<g id="edge15" class="edge">
<title>Node12&#45;&gt;Node15</title>
<path fill="none" stroke="midnightblue" d="M211.86,-192.42C218.6,-190.31 225.5,-188.12 232,-186 250.49,-179.97 270.81,-173.04 288.22,-167.02"/>
<polygon fill="midnightblue" stroke="midnightblue" points="210.68,-189.12 202.16,-195.42 212.75,-195.8 210.68,-189.12"/>
</g>
<!-- Node16 -->
<g id="node17" class="node">
<title>Node16</title>
<g id="a_node17"><a xlink:href="classTagLib_1_1Ogg_1_1Vorbis_1_1File.html" target="_top" xlink:title="An implementation of Ogg::File with Vorbis specific methods.">
<polygon fill="white" stroke="black" points="277.5,-88 277.5,-118 386.5,-118 386.5,-88 277.5,-88"/>
<text text-anchor="start" x="285.5" y="-106" font-family="Helvetica,sans-Serif" font-size="10.00">TagLib::Ogg::Vorbis</text>
<text text-anchor="middle" x="332" y="-95" font-family="Helvetica,sans-Serif" font-size="10.00">::File</text>
</a>
</g>
</g>
<!-- Node12&#45;&gt;Node16 -->
<g id="edge16" class="edge">
<title>Node12&#45;&gt;Node16</title>
<path fill="none" stroke="midnightblue" d="M224.18,-191.12C226.93,-189.59 229.56,-187.89 232,-186 256.02,-167.46 244.73,-147.46 268,-128 272.6,-124.15 277.87,-120.84 283.36,-118.01"/>
<polygon fill="midnightblue" stroke="midnightblue" points="222.59,-188 215.07,-195.46 225.6,-194.31 222.59,-188"/>
</g>
<!-- Node18 -->
<g id="node19" class="node">
<title>Node18</title>
<g id="a_node19"><a xlink:href="classTagLib_1_1RIFF_1_1AIFF_1_1File.html" target="_top" xlink:title="An implementation of TagLib::File with AIFF specific methods.">
<polygon fill="white" stroke="black" points="281,-39 281,-69 383,-69 383,-39 281,-39"/>
<text text-anchor="start" x="289" y="-57" font-family="Helvetica,sans-Serif" font-size="10.00">TagLib::RIFF::AIFF</text>
<text text-anchor="middle" x="332" y="-46" font-family="Helvetica,sans-Serif" font-size="10.00">::File</text>
</a>
</g>
</g>
<!-- Node17&#45;&gt;Node18 -->
<g id="edge18" class="edge">
<title>Node17&#45;&gt;Node18</title>
<path fill="none" stroke="midnightblue" d="M225.51,-152.63C227.79,-151.23 229.97,-149.69 232,-148 258.57,-125.86 242.31,-102.17 268,-79 272.28,-75.14 277.23,-71.84 282.44,-69.03"/>
<polygon fill="midnightblue" stroke="midnightblue" points="223.57,-149.7 216.29,-157.4 226.78,-155.92 223.57,-149.7"/>
</g>
<!-- Node19 -->
<g id="node20" class="node">
<title>Node19</title>
<g id="a_node20"><a xlink:href="classTagLib_1_1RIFF_1_1WAV_1_1File.html" target="_top" xlink:title="An implementation of TagLib::File with WAV specific methods.">
<polygon fill="white" stroke="black" points="269.5,-0.5 269.5,-19.5 394.5,-19.5 394.5,-0.5 269.5,-0.5"/>
<text text-anchor="middle" x="332" y="-7.5" font-family="Helvetica,sans-Serif" font-size="10.00">TagLib::RIFF::WAV::File</text>
</a>
</g>
</g>
<!-- Node17&#45;&gt;Node19 -->
<g id="edge19" class="edge">
<title>Node17&#45;&gt;Node19</title>
<path fill="none" stroke="midnightblue" d="M227.35,-152.04C229,-150.8 230.55,-149.46 232,-148 270.96,-108.81 228.91,-68.06 268,-29 271.88,-25.12 276.52,-22.03 281.5,-19.57"/>
<polygon fill="midnightblue" stroke="midnightblue" points="225.24,-149.24 218.53,-157.44 228.89,-155.21 225.24,-149.24"/>
</g>
</g>
</svg>
