<?xml version="1.0" encoding="UTF-8" standalone="no"?>
<!DOCTYPE svg PUBLIC "-//W3C//DTD SVG 1.1//EN"
 "http://www.w3.org/Graphics/SVG/1.1/DTD/svg11.dtd">
<!-- Generated by graphviz version 2.46.1 (20210213.1702)
 -->
<!-- Title: Graphical Class Hierarchy Pages: 1 -->
<svg width="307pt" height="704pt"
 viewBox="0.00 0.00 307.00 704.00" xmlns="http://www.w3.org/2000/svg" xmlns:xlink="http://www.w3.org/1999/xlink">
<g id="graph0" class="graph" transform="scale(1 1) rotate(0) translate(4 700)">
<title>Graphical Class Hierarchy</title>
<polygon fill="white" stroke="transparent" points="-4,4 -4,-700 303,-700 303,4 -4,4"/>
<!-- Node0 -->
<g id="node1" class="node">
<title>Node0</title>
<g id="a_node1"><a xlink:href="classTagLib_1_1AudioProperties.html" target="_top" xlink:title="A simple, abstract interface to common audio properties.">
<polygon fill="white" stroke="black" points="0,-366.5 0,-385.5 120,-385.5 120,-366.5 0,-366.5"/>
<text text-anchor="middle" x="60" y="-373.5" font-family="Helvetica,sans-Serif" font-size="10.00">TagLib::AudioProperties</text>
</a>
</g>
</g>
<!-- Node1 -->
<g id="node2" class="node">
<title>Node1</title>
<g id="a_node2"><a xlink:href="classTagLib_1_1APE_1_1Properties.html" target="_top" xlink:title="An implementation of audio property reading for APE.">
<polygon fill="white" stroke="black" points="166.5,-676.5 166.5,-695.5 288.5,-695.5 288.5,-676.5 166.5,-676.5"/>
<text text-anchor="middle" x="227.5" y="-683.5" font-family="Helvetica,sans-Serif" font-size="10.00">TagLib::APE::Properties</text>
</a>
</g>
</g>
<!-- Node0&#45;&gt;Node1 -->
<g id="edge1" class="edge">
<title>Node0&#45;&gt;Node1</title>
<path fill="none" stroke="midnightblue" d="M61.36,-396.04C63.42,-448.59 76.44,-591.49 156,-667 160.05,-670.84 164.78,-673.92 169.86,-676.39"/>
<polygon fill="midnightblue" stroke="midnightblue" points="64.85,-395.63 61.05,-385.74 57.85,-395.84 64.85,-395.63"/>
</g>
<!-- Node2 -->
<g id="node3" class="node">
<title>Node2</title>
<g id="a_node3"><a xlink:href="classTagLib_1_1ASF_1_1Properties.html" target="_top" xlink:title="An implementation of ASF audio properties.">
<polygon fill="white" stroke="black" points="167,-638.5 167,-657.5 288,-657.5 288,-638.5 167,-638.5"/>
<text text-anchor="middle" x="227.5" y="-645.5" font-family="Helvetica,sans-Serif" font-size="10.00">TagLib::ASF::Properties</text>
</a>
</g>
</g>
<!-- Node0&#45;&gt;Node2 -->
<g id="edge2" class="edge">
<title>Node0&#45;&gt;Node2</title>
<path fill="none" stroke="midnightblue" d="M62.48,-395.96C67.11,-443.66 85.58,-565.03 156,-629 160.22,-632.84 165.14,-635.91 170.37,-638.37"/>
<polygon fill="midnightblue" stroke="midnightblue" points="65.94,-395.4 61.59,-385.74 58.97,-396 65.94,-395.4"/>
</g>
<!-- Node3 -->
<g id="node4" class="node">
<title>Node3</title>
<g id="a_node4"><a xlink:href="classTagLib_1_1FLAC_1_1Properties.html" target="_top" xlink:title="An implementation of audio property reading for FLAC.">
<polygon fill="white" stroke="black" points="164,-600.5 164,-619.5 291,-619.5 291,-600.5 164,-600.5"/>
<text text-anchor="middle" x="227.5" y="-607.5" font-family="Helvetica,sans-Serif" font-size="10.00">TagLib::FLAC::Properties</text>
</a>
</g>
</g>
<!-- Node0&#45;&gt;Node3 -->
<g id="edge3" class="edge">
<title>Node0&#45;&gt;Node3</title>
<path fill="none" stroke="midnightblue" d="M63.94,-395.83C71.31,-438.26 94.58,-538.32 156,-591 160.52,-594.88 165.76,-597.97 171.3,-600.44"/>
<polygon fill="midnightblue" stroke="midnightblue" points="67.39,-395.21 62.33,-385.9 60.48,-396.34 67.39,-395.21"/>
</g>
<!-- Node4 -->
<g id="node5" class="node">
<title>Node4</title>
<g id="a_node5"><a xlink:href="classTagLib_1_1IT_1_1Properties.html" target="_top" xlink:title=" ">
<polygon fill="white" stroke="black" points="173,-562.5 173,-581.5 282,-581.5 282,-562.5 173,-562.5"/>
<text text-anchor="middle" x="227.5" y="-569.5" font-family="Helvetica,sans-Serif" font-size="10.00">TagLib::IT::Properties</text>
</a>
</g>
</g>
<!-- Node0&#45;&gt;Node4 -->
<g id="edge4" class="edge">
<title>Node0&#45;&gt;Node4</title>
<path fill="none" stroke="midnightblue" d="M65.99,-395.78C76.3,-432.52 103.51,-511.35 156,-553 160.97,-556.94 166.68,-560.06 172.66,-562.54"/>
<polygon fill="midnightblue" stroke="midnightblue" points="69.29,-394.57 63.32,-385.82 62.53,-396.38 69.29,-394.57"/>
</g>
<!-- Node5 -->
<g id="node6" class="node">
<title>Node5</title>
<g id="a_node6"><a xlink:href="classTagLib_1_1MP4_1_1Properties.html" target="_top" xlink:title="An implementation of MP4 audio properties.">
<polygon fill="white" stroke="black" points="166.5,-524.5 166.5,-543.5 288.5,-543.5 288.5,-524.5 166.5,-524.5"/>
<text text-anchor="middle" x="227.5" y="-531.5" font-family="Helvetica,sans-Serif" font-size="10.00">TagLib::MP4::Properties</text>
</a>
</g>
</g>
<!-- Node0&#45;&gt;Node5 -->
<g id="edge5" class="edge">
<title>Node0&#45;&gt;Node5</title>
<path fill="none" stroke="midnightblue" d="M68.85,-395.28C82.16,-425.51 112.08,-483.82 156,-515 161.48,-518.89 167.71,-521.98 174.15,-524.44"/>
<polygon fill="midnightblue" stroke="midnightblue" points="71.97,-393.68 64.84,-385.85 65.53,-396.42 71.97,-393.68"/>
</g>
<!-- Node6 -->
<g id="node7" class="node">
<title>Node6</title>
<g id="a_node7"><a xlink:href="classTagLib_1_1MPC_1_1Properties.html" target="_top" xlink:title="An implementation of audio property reading for MPC.">
<polygon fill="white" stroke="black" points="165.5,-486.5 165.5,-505.5 289.5,-505.5 289.5,-486.5 165.5,-486.5"/>
<text text-anchor="middle" x="227.5" y="-493.5" font-family="Helvetica,sans-Serif" font-size="10.00">TagLib::MPC::Properties</text>
</a>
</g>
</g>
<!-- Node0&#45;&gt;Node6 -->
<g id="edge6" class="edge">
<title>Node0&#45;&gt;Node6</title>
<path fill="none" stroke="midnightblue" d="M73.18,-394.16C89.4,-416.94 120.24,-455.58 156,-477 162.42,-480.84 169.62,-483.92 176.91,-486.39"/>
<polygon fill="midnightblue" stroke="midnightblue" points="75.91,-391.96 67.33,-385.74 70.16,-395.95 75.91,-391.96"/>
</g>
<!-- Node7 -->
<g id="node8" class="node">
<title>Node7</title>
<g id="a_node8"><a xlink:href="classTagLib_1_1MPEG_1_1Properties.html" target="_top" xlink:title="An implementation of audio property reading for MP3.">
<polygon fill="white" stroke="black" points="162,-448.5 162,-467.5 293,-467.5 293,-448.5 162,-448.5"/>
<text text-anchor="middle" x="227.5" y="-455.5" font-family="Helvetica,sans-Serif" font-size="10.00">TagLib::MPEG::Properties</text>
</a>
</g>
</g>
<!-- Node0&#45;&gt;Node7 -->
<g id="edge7" class="edge">
<title>Node0&#45;&gt;Node7</title>
<path fill="none" stroke="midnightblue" d="M80.81,-391.91C99.29,-406.06 128.13,-426.41 156,-439 164.32,-442.76 173.53,-445.91 182.48,-448.49"/>
<polygon fill="midnightblue" stroke="midnightblue" points="82.89,-389.1 72.85,-385.71 78.59,-394.62 82.89,-389.1"/>
</g>
<!-- Node8 -->
<g id="node9" class="node">
<title>Node8</title>
<g id="a_node9"><a xlink:href="classTagLib_1_1Mod_1_1Properties.html" target="_top" xlink:title=" ">
<polygon fill="white" stroke="black" points="167.5,-410.5 167.5,-429.5 287.5,-429.5 287.5,-410.5 167.5,-410.5"/>
<text text-anchor="middle" x="227.5" y="-417.5" font-family="Helvetica,sans-Serif" font-size="10.00">TagLib::Mod::Properties</text>
</a>
</g>
</g>
<!-- Node0&#45;&gt;Node8 -->
<g id="edge8" class="edge">
<title>Node0&#45;&gt;Node8</title>
<path fill="none" stroke="midnightblue" d="M106.72,-388.15C133.2,-395.2 166.06,-403.93 190.66,-410.47"/>
<polygon fill="midnightblue" stroke="midnightblue" points="107.47,-384.73 96.91,-385.55 105.68,-391.5 107.47,-384.73"/>
</g>
<!-- Node9 -->
<g id="node10" class="node">
<title>Node9</title>
<g id="a_node10"><a xlink:href="classTagLib_1_1Ogg_1_1Opus_1_1Properties.html" target="_top" xlink:title="An implementation of audio property reading for Ogg Opus.">
<polygon fill="white" stroke="black" points="175.5,-361 175.5,-391 279.5,-391 279.5,-361 175.5,-361"/>
<text text-anchor="start" x="183.5" y="-379" font-family="Helvetica,sans-Serif" font-size="10.00">TagLib::Ogg::Opus::</text>
<text text-anchor="middle" x="227.5" y="-368" font-family="Helvetica,sans-Serif" font-size="10.00">Properties</text>
</a>
</g>
</g>
<!-- Node0&#45;&gt;Node9 -->
<g id="edge9" class="edge">
<title>Node0&#45;&gt;Node9</title>
<path fill="none" stroke="midnightblue" d="M130.55,-376C145.55,-376 161.15,-376 175.3,-376"/>
<polygon fill="midnightblue" stroke="midnightblue" points="130.28,-372.5 120.28,-376 130.28,-379.5 130.28,-372.5"/>
</g>
<!-- Node10 -->
<g id="node11" class="node">
<title>Node10</title>
<g id="a_node11"><a xlink:href="classTagLib_1_1Ogg_1_1Speex_1_1Properties.html" target="_top" xlink:title="An implementation of audio property reading for Ogg Speex.">
<polygon fill="white" stroke="black" points="176,-312 176,-342 279,-342 279,-312 176,-312"/>
<text text-anchor="start" x="184" y="-330" font-family="Helvetica,sans-Serif" font-size="10.00">TagLib::Ogg::Speex</text>
<text text-anchor="middle" x="227.5" y="-319" font-family="Helvetica,sans-Serif" font-size="10.00">::Properties</text>
</a>
</g>
</g>
<!-- Node0&#45;&gt;Node10 -->
<g id="edge10" class="edge">
<title>Node0&#45;&gt;Node10</title>
<path fill="none" stroke="midnightblue" d="M103.06,-363.55C125.17,-357 152.43,-348.93 175.71,-342.04"/>
<polygon fill="midnightblue" stroke="midnightblue" points="101.9,-360.24 93.3,-366.44 103.89,-366.95 101.9,-360.24"/>
</g>
<!-- Node11 -->
<g id="node12" class="node">
<title>Node11</title>
<g id="a_node12"><a xlink:href="classTagLib_1_1Ogg_1_1Vorbis_1_1Properties.html" target="_top" xlink:title="An implementation of audio property reading for Ogg Vorbis.">
<polygon fill="white" stroke="black" points="176,-263 176,-293 279,-293 279,-263 176,-263"/>
<text text-anchor="start" x="184" y="-281" font-family="Helvetica,sans-Serif" font-size="10.00">TagLib::Ogg::Vorbis</text>
<text text-anchor="middle" x="227.5" y="-270" font-family="Helvetica,sans-Serif" font-size="10.00">::Properties</text>
</a>
</g>
</g>
<!-- Node0&#45;&gt;Node11 -->
<g id="edge11" class="edge">
<title>Node0&#45;&gt;Node11</title>
<path fill="none" stroke="midnightblue" d="M78.87,-359.48C97.12,-343.3 126.84,-318.85 156,-303 162.73,-299.34 170.1,-296.04 177.47,-293.13"/>
<polygon fill="midnightblue" stroke="midnightblue" points="76.43,-356.97 71.34,-366.26 81.11,-362.17 76.43,-356.97"/>
</g>
<!-- Node12 -->
<g id="node13" class="node">
<title>Node12</title>
<g id="a_node13"><a xlink:href="classTagLib_1_1RIFF_1_1AIFF_1_1Properties.html" target="_top" xlink:title="An implementation of audio property reading for AIFF.">
<polygon fill="white" stroke="black" points="177,-214 177,-244 278,-244 278,-214 177,-214"/>
<text text-anchor="start" x="185" y="-232" font-family="Helvetica,sans-Serif" font-size="10.00">TagLib::RIFF::AIFF</text>
<text text-anchor="middle" x="227.5" y="-221" font-family="Helvetica,sans-Serif" font-size="10.00">::Properties</text>
</a>
</g>
</g>
<!-- Node0&#45;&gt;Node12 -->
<g id="edge12" class="edge">
<title>Node0&#45;&gt;Node12</title>
<path fill="none" stroke="midnightblue" d="M71.01,-357.21C86.07,-330.62 117.01,-282.13 156,-254 162.32,-249.44 169.55,-245.65 176.91,-242.51"/>
<polygon fill="midnightblue" stroke="midnightblue" points="67.79,-355.79 66.03,-366.24 73.92,-359.17 67.79,-355.79"/>
</g>
<!-- Node13 -->
<g id="node14" class="node">
<title>Node13</title>
<g id="a_node14"><a xlink:href="classTagLib_1_1RIFF_1_1WAV_1_1Properties.html" target="_top" xlink:title="An implementation of audio property reading for WAV.">
<polygon fill="white" stroke="black" points="174.5,-165 174.5,-195 280.5,-195 280.5,-165 174.5,-165"/>
<text text-anchor="start" x="182.5" y="-183" font-family="Helvetica,sans-Serif" font-size="10.00">TagLib::RIFF::WAV::</text>
<text text-anchor="middle" x="227.5" y="-172" font-family="Helvetica,sans-Serif" font-size="10.00">Properties</text>
</a>
</g>
</g>
<!-- Node0&#45;&gt;Node13 -->
<g id="edge13" class="edge">
<title>Node0&#45;&gt;Node13</title>
<path fill="none" stroke="midnightblue" d="M66.79,-356.29C78.15,-320.99 106.64,-246.77 156,-205 161.45,-200.39 167.82,-196.6 174.45,-193.5"/>
<polygon fill="midnightblue" stroke="midnightblue" points="63.31,-355.71 63.7,-366.3 70,-357.78 63.31,-355.71"/>
</g>
<!-- Node14 -->
<g id="node15" class="node">
<title>Node14</title>
<g id="a_node15"><a xlink:href="classTagLib_1_1S3M_1_1Properties.html" target="_top" xlink:title=" ">
<polygon fill="white" stroke="black" points="166.5,-126.5 166.5,-145.5 288.5,-145.5 288.5,-126.5 166.5,-126.5"/>
<text text-anchor="middle" x="227.5" y="-133.5" font-family="Helvetica,sans-Serif" font-size="10.00">TagLib::S3M::Properties</text>
</a>
</g>
</g>
<!-- Node0&#45;&gt;Node14 -->
<g id="edge14" class="edge">
<title>Node0&#45;&gt;Node14</title>
<path fill="none" stroke="midnightblue" d="M63.75,-356.38C70.83,-313.45 93.68,-210.63 156,-156 160.97,-151.64 166.84,-148.22 173.02,-145.55"/>
<polygon fill="midnightblue" stroke="midnightblue" points="60.27,-355.97 62.22,-366.38 67.19,-357.03 60.27,-355.97"/>
</g>
<!-- Node15 -->
<g id="node16" class="node">
<title>Node15</title>
<g id="a_node16"><a xlink:href="classTagLib_1_1TrueAudio_1_1Properties.html" target="_top" xlink:title="An implementation of audio property reading for TrueAudio.">
<polygon fill="white" stroke="black" points="177,-77 177,-107 278,-107 278,-77 177,-77"/>
<text text-anchor="start" x="185" y="-95" font-family="Helvetica,sans-Serif" font-size="10.00">TagLib::TrueAudio::</text>
<text text-anchor="middle" x="227.5" y="-84" font-family="Helvetica,sans-Serif" font-size="10.00">Properties</text>
</a>
</g>
</g>
<!-- Node0&#45;&gt;Node15 -->
<g id="edge15" class="edge">
<title>Node0&#45;&gt;Node15</title>
<path fill="none" stroke="midnightblue" d="M62.62,-356.26C67.6,-308.46 86.8,-185.46 156,-117 161.91,-111.15 169.27,-106.67 176.99,-103.23"/>
<polygon fill="midnightblue" stroke="midnightblue" points="59.12,-356.19 61.66,-366.47 66.08,-356.84 59.12,-356.19"/>
</g>
<!-- Node16 -->
<g id="node17" class="node">
<title>Node16</title>
<g id="a_node17"><a xlink:href="classTagLib_1_1WavPack_1_1Properties.html" target="_top" xlink:title="An implementation of audio property reading for WavPack.">
<polygon fill="white" stroke="black" points="156,-38.5 156,-57.5 299,-57.5 299,-38.5 156,-38.5"/>
<text text-anchor="middle" x="227.5" y="-45.5" font-family="Helvetica,sans-Serif" font-size="10.00">TagLib::WavPack::Properties</text>
</a>
</g>
</g>
<!-- Node0&#45;&gt;Node16 -->
<g id="edge16" class="edge">
<title>Node0&#45;&gt;Node16</title>
<path fill="none" stroke="midnightblue" d="M60.99,-356.31C62.05,-302.12 72.69,-149.44 156,-68 160.46,-63.64 165.79,-60.22 171.5,-57.53"/>
<polygon fill="midnightblue" stroke="midnightblue" points="57.49,-356.28 60.88,-366.31 64.49,-356.35 57.49,-356.28"/>
</g>
<!-- Node17 -->
<g id="node18" class="node">
<title>Node17</title>
<g id="a_node18"><a xlink:href="classTagLib_1_1XM_1_1Properties.html" target="_top" xlink:title=" ">
<polygon fill="white" stroke="black" points="169.5,-0.5 169.5,-19.5 285.5,-19.5 285.5,-0.5 169.5,-0.5"/>
<text text-anchor="middle" x="227.5" y="-7.5" font-family="Helvetica,sans-Serif" font-size="10.00">TagLib::XM::Properties</text>
</a>
</g>
</g>
<!-- Node0&#45;&gt;Node17 -->
<g id="edge17" class="edge">
<title>Node0&#45;&gt;Node17</title>
<path fill="none" stroke="midnightblue" d="M63.8,-356.29C73.58,-289.98 108.31,-76.5 156,-29 159.86,-25.15 164.42,-22.06 169.32,-19.58"/>
<polygon fill="midnightblue" stroke="midnightblue" points="60.32,-355.86 62.35,-366.26 67.25,-356.86 60.32,-355.86"/>
</g>
</g>
</svg>
