<?xml version="1.0" encoding="UTF-8" standalone="no"?>
<!DOCTYPE svg PUBLIC "-//W3C//DTD SVG 1.1//EN"
 "http://www.w3.org/Graphics/SVG/1.1/DTD/svg11.dtd">
<!-- Generated by graphviz version 2.43.0 (0)
 -->
<!-- Title: itfile.h Pages: 1 -->
<svg width="777pt" height="420pt"
 viewBox="0.00 0.00 777.00 420.00" xmlns="http://www.w3.org/2000/svg" xmlns:xlink="http://www.w3.org/1999/xlink">
<g id="graph0" class="graph" transform="scale(1 1) rotate(0) translate(4 416)">
<title>itfile.h</title>
<polygon fill="white" stroke="transparent" points="-4,4 -4,-416 773,-416 773,4 -4,4"/>
<!-- Node1 -->
<g id="node1" class="node">
<title>Node1</title>
<g id="a_node1"><a xlink:title=" ">
<polygon fill="#bfbfbf" stroke="black" points="223.5,-392.5 223.5,-411.5 270.5,-411.5 270.5,-392.5 223.5,-392.5"/>
<text text-anchor="middle" x="247" y="-399.5" font-family="Helvetica,sans-Serif" font-size="10.00">itfile.h</text>
</a>
</g>
</g>
<!-- Node2 -->
<g id="node2" class="node">
<title>Node2</title>
<g id="a_node2"><a xlink:href="tfile_8h.html" target="_top" xlink:title=" ">
<polygon fill="white" stroke="black" points="295,-280.5 295,-299.5 339,-299.5 339,-280.5 295,-280.5"/>
<text text-anchor="middle" x="317" y="-287.5" font-family="Helvetica,sans-Serif" font-size="10.00">tfile.h</text>
</a>
</g>
</g>
<!-- Node1&#45;&gt;Node2 -->
<g id="edge1" class="edge">
<title>Node1&#45;&gt;Node2</title>
<path fill="none" stroke="midnightblue" d="M252.49,-392.37C263.99,-374.3 290.8,-332.18 305.99,-308.31"/>
<polygon fill="midnightblue" stroke="midnightblue" points="309.12,-309.91 311.53,-299.59 303.21,-306.15 309.12,-309.91"/>
</g>
<!-- Node3 -->
<g id="node3" class="node">
<title>Node3</title>
<g id="a_node3"><a xlink:href="taglib__export_8h.html" target="_top" xlink:title=" ">
<polygon fill="white" stroke="black" points="180,-56.5 180,-75.5 270,-75.5 270,-56.5 180,-56.5"/>
<text text-anchor="middle" x="225" y="-63.5" font-family="Helvetica,sans-Serif" font-size="10.00">taglib_export.h</text>
</a>
</g>
</g>
<!-- Node1&#45;&gt;Node3 -->
<g id="edge25" class="edge">
<title>Node1&#45;&gt;Node3</title>
<path fill="none" stroke="midnightblue" d="M225.54,-392.46C191.76,-377.43 130,-342.86 130,-291 130,-291 130,-291 130,-177 130,-133.74 172.61,-99.09 200.75,-80.91"/>
<polygon fill="midnightblue" stroke="midnightblue" points="202.66,-83.85 209.31,-75.6 198.97,-77.9 202.66,-83.85"/>
</g>
<!-- Node13 -->
<g id="node13" class="node">
<title>Node13</title>
<g id="a_node13"><a xlink:href="audioproperties_8h.html" target="_top" xlink:title=" ">
<polygon fill="white" stroke="black" points="0,-280.5 0,-299.5 102,-299.5 102,-280.5 0,-280.5"/>
<text text-anchor="middle" x="51" y="-287.5" font-family="Helvetica,sans-Serif" font-size="10.00">audioproperties.h</text>
</a>
</g>
</g>
<!-- Node1&#45;&gt;Node13 -->
<g id="edge23" class="edge">
<title>Node1&#45;&gt;Node13</title>
<path fill="none" stroke="midnightblue" d="M223.35,-396.29C195.98,-390.09 150.27,-377.4 116,-356 95.37,-343.12 76.27,-322.55 64.19,-308"/>
<polygon fill="midnightblue" stroke="midnightblue" points="66.62,-305.44 57.62,-299.84 61.17,-309.83 66.62,-305.44"/>
</g>
<!-- Node14 -->
<g id="node14" class="node">
<title>Node14</title>
<g id="a_node14"><a xlink:href="modfilebase_8h.html" target="_top" xlink:title=" ">
<polygon fill="white" stroke="black" points="452,-336.5 452,-355.5 538,-355.5 538,-336.5 452,-336.5"/>
<text text-anchor="middle" x="495" y="-343.5" font-family="Helvetica,sans-Serif" font-size="10.00">modfilebase.h</text>
</a>
</g>
</g>
<!-- Node1&#45;&gt;Node14 -->
<g id="edge26" class="edge">
<title>Node1&#45;&gt;Node14</title>
<path fill="none" stroke="midnightblue" d="M270.78,-395.82C310.98,-387.07 393.17,-369.17 446.09,-357.65"/>
<polygon fill="midnightblue" stroke="midnightblue" points="446.91,-361.05 455.94,-355.5 445.43,-354.21 446.91,-361.05"/>
</g>
<!-- Node19 -->
<g id="node19" class="node">
<title>Node19</title>
<g id="a_node19"><a xlink:href="modtag_8h.html" target="_top" xlink:title=" ">
<polygon fill="white" stroke="black" points="185.5,-336.5 185.5,-355.5 248.5,-355.5 248.5,-336.5 185.5,-336.5"/>
<text text-anchor="middle" x="217" y="-343.5" font-family="Helvetica,sans-Serif" font-size="10.00">modtag.h</text>
</a>
</g>
</g>
<!-- Node1&#45;&gt;Node19 -->
<g id="edge36" class="edge">
<title>Node1&#45;&gt;Node19</title>
<path fill="none" stroke="midnightblue" d="M242.05,-392.08C237.9,-384.61 231.85,-373.72 226.73,-364.52"/>
<polygon fill="midnightblue" stroke="midnightblue" points="229.78,-362.79 221.86,-355.75 223.66,-366.19 229.78,-362.79"/>
</g>
<!-- Node20 -->
<g id="node20" class="node">
<title>Node20</title>
<g id="a_node20"><a xlink:href="itproperties_8h.html" target="_top" xlink:title=" ">
<polygon fill="white" stroke="black" points="305,-336.5 305,-355.5 387,-355.5 387,-336.5 305,-336.5"/>
<text text-anchor="middle" x="346" y="-343.5" font-family="Helvetica,sans-Serif" font-size="10.00">itproperties.h</text>
</a>
</g>
</g>
<!-- Node1&#45;&gt;Node20 -->
<g id="edge38" class="edge">
<title>Node1&#45;&gt;Node20</title>
<path fill="none" stroke="midnightblue" d="M262.91,-392.32C278.64,-383.74 302.94,-370.49 321.21,-360.52"/>
<polygon fill="midnightblue" stroke="midnightblue" points="323.03,-363.52 330.13,-355.65 319.68,-357.37 323.03,-363.52"/>
</g>
<!-- Node2&#45;&gt;Node3 -->
<g id="edge2" class="edge">
<title>Node2&#45;&gt;Node3</title>
<path fill="none" stroke="midnightblue" d="M313.39,-280.3C299.8,-247.49 251.47,-130.88 232.62,-85.38"/>
<polygon fill="midnightblue" stroke="midnightblue" points="235.74,-83.78 228.68,-75.88 229.28,-86.46 235.74,-83.78"/>
</g>
<!-- Node4 -->
<g id="node4" class="node">
<title>Node4</title>
<g id="a_node4"><a xlink:href="taglib_8h.html" target="_top" xlink:title=" ">
<polygon fill="white" stroke="black" points="575.5,-56.5 575.5,-75.5 628.5,-75.5 628.5,-56.5 575.5,-56.5"/>
<text text-anchor="middle" x="602" y="-63.5" font-family="Helvetica,sans-Serif" font-size="10.00">taglib.h</text>
</a>
</g>
</g>
<!-- Node2&#45;&gt;Node4 -->
<g id="edge3" class="edge">
<title>Node2&#45;&gt;Node4</title>
<path fill="none" stroke="midnightblue" d="M339.35,-281.34C388.63,-263.31 507.31,-213.48 571,-132 582.06,-117.85 590.46,-99.12 595.71,-85.4"/>
<polygon fill="midnightblue" stroke="midnightblue" points="599.13,-86.25 599.24,-75.66 592.55,-83.87 599.13,-86.25"/>
</g>
<!-- Node7 -->
<g id="node7" class="node">
<title>Node7</title>
<g id="a_node7"><a xlink:href="tag_8h.html" target="_top" xlink:title=" ">
<polygon fill="white" stroke="black" points="196.5,-224.5 196.5,-243.5 237.5,-243.5 237.5,-224.5 196.5,-224.5"/>
<text text-anchor="middle" x="217" y="-231.5" font-family="Helvetica,sans-Serif" font-size="10.00">tag.h</text>
</a>
</g>
</g>
<!-- Node2&#45;&gt;Node7 -->
<g id="edge6" class="edge">
<title>Node2&#45;&gt;Node7</title>
<path fill="none" stroke="midnightblue" d="M300.93,-280.32C285.04,-271.74 260.49,-258.49 242.04,-248.52"/>
<polygon fill="midnightblue" stroke="midnightblue" points="243.49,-245.33 233.03,-243.65 240.16,-251.49 243.49,-245.33"/>
</g>
<!-- Node9 -->
<g id="node9" class="node">
<title>Node9</title>
<g id="a_node9"><a xlink:href="tbytevector_8h.html" target="_top" xlink:title=" ">
<polygon fill="white" stroke="black" points="348.5,-112.5 348.5,-131.5 429.5,-131.5 429.5,-112.5 348.5,-112.5"/>
<text text-anchor="middle" x="389" y="-119.5" font-family="Helvetica,sans-Serif" font-size="10.00">tbytevector.h</text>
</a>
</g>
</g>
<!-- Node2&#45;&gt;Node9 -->
<g id="edge18" class="edge">
<title>Node2&#45;&gt;Node9</title>
<path fill="none" stroke="midnightblue" d="M316.5,-280.44C315.68,-259.7 315.88,-205.71 337,-168 343.84,-155.79 355.31,-145.33 365.74,-137.58"/>
<polygon fill="midnightblue" stroke="midnightblue" points="367.94,-140.31 374.14,-131.72 363.93,-134.57 367.94,-140.31"/>
</g>
<!-- Node12 -->
<g id="node12" class="node">
<title>Node12</title>
<g id="a_node12"><a xlink:href="tiostream_8h.html" target="_top" xlink:title=" ">
<polygon fill="white" stroke="black" points="345.5,-168.5 345.5,-187.5 418.5,-187.5 418.5,-168.5 345.5,-168.5"/>
<text text-anchor="middle" x="382" y="-175.5" font-family="Helvetica,sans-Serif" font-size="10.00">tiostream.h</text>
</a>
</g>
</g>
<!-- Node2&#45;&gt;Node12 -->
<g id="edge19" class="edge">
<title>Node2&#45;&gt;Node12</title>
<path fill="none" stroke="midnightblue" d="M322.1,-280.37C332.78,-262.3 357.67,-220.18 371.77,-196.31"/>
<polygon fill="midnightblue" stroke="midnightblue" points="374.85,-197.98 376.92,-187.59 368.82,-194.42 374.85,-197.98"/>
</g>
<!-- Node5 -->
<g id="node5" class="node">
<title>Node5</title>
<g id="a_node5"><a xlink:title=" ">
<polygon fill="white" stroke="#bfbfbf" points="558,-0.5 558,-19.5 646,-19.5 646,-0.5 558,-0.5"/>
<text text-anchor="middle" x="602" y="-7.5" font-family="Helvetica,sans-Serif" font-size="10.00">taglib_config.h</text>
</a>
</g>
</g>
<!-- Node4&#45;&gt;Node5 -->
<g id="edge4" class="edge">
<title>Node4&#45;&gt;Node5</title>
<path fill="none" stroke="midnightblue" d="M602,-56.08C602,-49.01 602,-38.86 602,-29.99"/>
<polygon fill="midnightblue" stroke="midnightblue" points="605.5,-29.75 602,-19.75 598.5,-29.75 605.5,-29.75"/>
</g>
<!-- Node6 -->
<g id="node6" class="node">
<title>Node6</title>
<g id="a_node6"><a xlink:title=" ">
<polygon fill="white" stroke="#bfbfbf" points="489,-0.5 489,-19.5 533,-19.5 533,-0.5 489,-0.5"/>
<text text-anchor="middle" x="511" y="-7.5" font-family="Helvetica,sans-Serif" font-size="10.00">string</text>
</a>
</g>
</g>
<!-- Node4&#45;&gt;Node6 -->
<g id="edge5" class="edge">
<title>Node4&#45;&gt;Node6</title>
<path fill="none" stroke="midnightblue" d="M587.38,-56.32C573.05,-47.82 550.99,-34.73 534.25,-24.8"/>
<polygon fill="midnightblue" stroke="midnightblue" points="535.97,-21.75 525.58,-19.65 532.4,-27.77 535.97,-21.75"/>
</g>
<!-- Node7&#45;&gt;Node3 -->
<g id="edge7" class="edge">
<title>Node7&#45;&gt;Node3</title>
<path fill="none" stroke="midnightblue" d="M217.43,-224.08C218.69,-197.95 222.39,-121.21 224.1,-85.58"/>
<polygon fill="midnightblue" stroke="midnightblue" points="227.6,-85.73 224.59,-75.57 220.61,-85.39 227.6,-85.73"/>
</g>
<!-- Node8 -->
<g id="node8" class="node">
<title>Node8</title>
<g id="a_node8"><a xlink:href="tstring_8h.html" target="_top" xlink:title=" ">
<polygon fill="white" stroke="black" points="436.5,-168.5 436.5,-187.5 493.5,-187.5 493.5,-168.5 436.5,-168.5"/>
<text text-anchor="middle" x="465" y="-175.5" font-family="Helvetica,sans-Serif" font-size="10.00">tstring.h</text>
</a>
</g>
</g>
<!-- Node7&#45;&gt;Node8 -->
<g id="edge8" class="edge">
<title>Node7&#45;&gt;Node8</title>
<path fill="none" stroke="midnightblue" d="M237.71,-228.79C273.94,-221.38 351.4,-205.33 426.27,-188.35"/>
<polygon fill="midnightblue" stroke="midnightblue" points="427.36,-191.69 436.34,-186.06 425.81,-184.87 427.36,-191.69"/>
</g>
<!-- Node8&#45;&gt;Node3 -->
<g id="edge9" class="edge">
<title>Node8&#45;&gt;Node3</title>
<path fill="none" stroke="midnightblue" d="M436.6,-168.45C410.86,-160.31 372.16,-147.09 340,-132 324.13,-124.55 321.22,-120.7 306,-112 287.09,-101.19 265.52,-89.22 249.39,-80.35"/>
<polygon fill="midnightblue" stroke="midnightblue" points="251.04,-77.26 240.59,-75.51 247.67,-83.4 251.04,-77.26"/>
</g>
<!-- Node8&#45;&gt;Node4 -->
<g id="edge10" class="edge">
<title>Node8&#45;&gt;Node4</title>
<path fill="none" stroke="midnightblue" d="M485.78,-168.42C503.43,-160.54 528.87,-147.7 548,-132 564.93,-118.11 580.48,-98.31 590.5,-84.22"/>
<polygon fill="midnightblue" stroke="midnightblue" points="593.44,-86.12 596.25,-75.91 587.68,-82.14 593.44,-86.12"/>
</g>
<!-- Node8&#45;&gt;Node6 -->
<g id="edge16" class="edge">
<title>Node8&#45;&gt;Node6</title>
<path fill="none" stroke="midnightblue" d="M467.47,-168.08C474.71,-141.95 495.98,-65.21 505.85,-29.58"/>
<polygon fill="midnightblue" stroke="midnightblue" points="509.33,-30.14 508.63,-19.57 502.58,-28.27 509.33,-30.14"/>
</g>
<!-- Node8&#45;&gt;Node9 -->
<g id="edge11" class="edge">
<title>Node8&#45;&gt;Node9</title>
<path fill="none" stroke="midnightblue" d="M452.79,-168.32C441.22,-160.11 423.62,-147.6 409.84,-137.81"/>
<polygon fill="midnightblue" stroke="midnightblue" points="411.61,-134.77 401.43,-131.83 407.56,-140.48 411.61,-134.77"/>
</g>
<!-- Node11 -->
<g id="node11" class="node">
<title>Node11</title>
<g id="a_node11"><a xlink:title=" ">
<polygon fill="white" stroke="#bfbfbf" points="408,-56.5 408,-75.5 468,-75.5 468,-56.5 408,-56.5"/>
<text text-anchor="middle" x="438" y="-63.5" font-family="Helvetica,sans-Serif" font-size="10.00">iostream</text>
</a>
</g>
</g>
<!-- Node8&#45;&gt;Node11 -->
<g id="edge17" class="edge">
<title>Node8&#45;&gt;Node11</title>
<path fill="none" stroke="midnightblue" d="M462.88,-168.37C458.52,-150.62 448.47,-109.67 442.56,-85.6"/>
<polygon fill="midnightblue" stroke="midnightblue" points="445.89,-84.47 440.11,-75.59 439.09,-86.14 445.89,-84.47"/>
</g>
<!-- Node9&#45;&gt;Node3 -->
<g id="edge13" class="edge">
<title>Node9&#45;&gt;Node3</title>
<path fill="none" stroke="midnightblue" d="M363.01,-112.44C335.3,-103.32 291.25,-88.81 260.38,-78.65"/>
<polygon fill="midnightblue" stroke="midnightblue" points="261.46,-75.32 250.86,-75.52 259.27,-81.97 261.46,-75.32"/>
</g>
<!-- Node9&#45;&gt;Node4 -->
<g id="edge12" class="edge">
<title>Node9&#45;&gt;Node4</title>
<path fill="none" stroke="midnightblue" d="M422.75,-112.44C461.71,-102.57 525.54,-86.38 565.59,-76.23"/>
<polygon fill="midnightblue" stroke="midnightblue" points="566.64,-79.58 575.47,-73.73 564.92,-72.79 566.64,-79.58"/>
</g>
<!-- Node10 -->
<g id="node10" class="node">
<title>Node10</title>
<g id="a_node10"><a xlink:title=" ">
<polygon fill="white" stroke="#bfbfbf" points="342.5,-56.5 342.5,-75.5 389.5,-75.5 389.5,-56.5 342.5,-56.5"/>
<text text-anchor="middle" x="366" y="-63.5" font-family="Helvetica,sans-Serif" font-size="10.00">vector</text>
</a>
</g>
</g>
<!-- Node9&#45;&gt;Node10 -->
<g id="edge14" class="edge">
<title>Node9&#45;&gt;Node10</title>
<path fill="none" stroke="midnightblue" d="M385.2,-112.08C382.09,-104.77 377.58,-94.18 373.71,-85.1"/>
<polygon fill="midnightblue" stroke="midnightblue" points="376.87,-83.58 369.73,-75.75 370.43,-86.32 376.87,-83.58"/>
</g>
<!-- Node9&#45;&gt;Node11 -->
<g id="edge15" class="edge">
<title>Node9&#45;&gt;Node11</title>
<path fill="none" stroke="midnightblue" d="M397.09,-112.08C404.16,-104.3 414.59,-92.8 423.15,-83.37"/>
<polygon fill="midnightblue" stroke="midnightblue" points="425.93,-85.51 430.06,-75.75 420.75,-80.8 425.93,-85.51"/>
</g>
<!-- Node12&#45;&gt;Node3 -->
<g id="edge20" class="edge">
<title>Node12&#45;&gt;Node3</title>
<path fill="none" stroke="midnightblue" d="M366.17,-168.49C350.51,-159.87 326.05,-145.88 306,-132 283.48,-116.42 259.17,-96.45 243.12,-82.78"/>
<polygon fill="midnightblue" stroke="midnightblue" points="244.99,-79.76 235.12,-75.9 240.43,-85.07 244.99,-79.76"/>
</g>
<!-- Node12&#45;&gt;Node4 -->
<g id="edge21" class="edge">
<title>Node12&#45;&gt;Node4</title>
<path fill="none" stroke="midnightblue" d="M399.26,-168.37C437.66,-149.17 530.32,-102.84 575.85,-80.07"/>
<polygon fill="midnightblue" stroke="midnightblue" points="577.44,-83.19 584.82,-75.59 574.31,-76.93 577.44,-83.19"/>
</g>
<!-- Node12&#45;&gt;Node9 -->
<g id="edge22" class="edge">
<title>Node12&#45;&gt;Node9</title>
<path fill="none" stroke="midnightblue" d="M383.16,-168.08C384.08,-160.93 385.42,-150.64 386.58,-141.69"/>
<polygon fill="midnightblue" stroke="midnightblue" points="390.05,-142.12 387.87,-131.75 383.11,-141.22 390.05,-142.12"/>
</g>
<!-- Node13&#45;&gt;Node3 -->
<g id="edge24" class="edge">
<title>Node13&#45;&gt;Node3</title>
<path fill="none" stroke="midnightblue" d="M51.75,-280.35C54.65,-252.26 67.45,-162.51 116,-112 131.42,-95.95 153.4,-85.42 173.59,-78.61"/>
<polygon fill="midnightblue" stroke="midnightblue" points="174.82,-81.89 183.32,-75.56 172.73,-75.21 174.82,-81.89"/>
</g>
<!-- Node14&#45;&gt;Node2 -->
<g id="edge28" class="edge">
<title>Node14&#45;&gt;Node2</title>
<path fill="none" stroke="midnightblue" d="M466.8,-336.44C434.72,-326.71 382.48,-310.86 348.93,-300.69"/>
<polygon fill="midnightblue" stroke="midnightblue" points="349.75,-297.28 339.17,-297.73 347.72,-303.98 349.75,-297.28"/>
</g>
<!-- Node14&#45;&gt;Node3 -->
<g id="edge34" class="edge">
<title>Node14&#45;&gt;Node3</title>
<path fill="none" stroke="midnightblue" d="M451.91,-339.7C363.12,-327.59 168,-294.22 168,-235 168,-235 168,-235 168,-177 168,-140.3 193.32,-103.66 210.21,-83.3"/>
<polygon fill="midnightblue" stroke="midnightblue" points="212.95,-85.48 216.83,-75.62 207.65,-80.9 212.95,-85.48"/>
</g>
<!-- Node14&#45;&gt;Node4 -->
<g id="edge27" class="edge">
<title>Node14&#45;&gt;Node4</title>
<path fill="none" stroke="midnightblue" d="M538.11,-339.83C577.34,-333.94 636.11,-322.14 683,-300 726.33,-279.55 769,-282.91 769,-235 769,-235 769,-235 769,-177 769,-115.09 687.97,-86.06 638.8,-74.14"/>
<polygon fill="midnightblue" stroke="midnightblue" points="639.36,-70.68 628.83,-71.85 637.79,-77.5 639.36,-70.68"/>
</g>
<!-- Node14&#45;&gt;Node8 -->
<g id="edge29" class="edge">
<title>Node14&#45;&gt;Node8</title>
<path fill="none" stroke="midnightblue" d="M493.39,-336.08C488.66,-309.95 474.8,-233.21 468.36,-197.58"/>
<polygon fill="midnightblue" stroke="midnightblue" points="471.77,-196.79 466.55,-187.57 464.88,-198.03 471.77,-196.79"/>
</g>
<!-- Node15 -->
<g id="node15" class="node">
<title>Node15</title>
<g id="a_node15"><a xlink:href="tlist_8h.html" target="_top" xlink:title=" ">
<polygon fill="white" stroke="black" points="630,-280.5 630,-299.5 674,-299.5 674,-280.5 630,-280.5"/>
<text text-anchor="middle" x="652" y="-287.5" font-family="Helvetica,sans-Serif" font-size="10.00">tlist.h</text>
</a>
</g>
</g>
<!-- Node14&#45;&gt;Node15 -->
<g id="edge30" class="edge">
<title>Node14&#45;&gt;Node15</title>
<path fill="none" stroke="midnightblue" d="M519.88,-336.44C547.07,-327.09 590.69,-312.09 620.31,-301.9"/>
<polygon fill="midnightblue" stroke="midnightblue" points="621.46,-305.21 629.78,-298.64 619.18,-298.59 621.46,-305.21"/>
</g>
<!-- Node18 -->
<g id="node18" class="node">
<title>Node18</title>
<g id="a_node18"><a xlink:title=" ">
<polygon fill="white" stroke="#bfbfbf" points="523,-280.5 523,-299.5 587,-299.5 587,-280.5 523,-280.5"/>
<text text-anchor="middle" x="555" y="-287.5" font-family="Helvetica,sans-Serif" font-size="10.00">algorithm</text>
</a>
</g>
</g>
<!-- Node14&#45;&gt;Node18 -->
<g id="edge35" class="edge">
<title>Node14&#45;&gt;Node18</title>
<path fill="none" stroke="midnightblue" d="M504.64,-336.32C513.51,-328.34 526.87,-316.31 537.61,-306.65"/>
<polygon fill="midnightblue" stroke="midnightblue" points="540.09,-309.13 545.18,-299.83 535.41,-303.92 540.09,-309.13"/>
</g>
<!-- Node15&#45;&gt;Node4 -->
<g id="edge31" class="edge">
<title>Node15&#45;&gt;Node4</title>
<path fill="none" stroke="midnightblue" d="M671.3,-280.48C685.43,-273.08 703.56,-260.89 712,-244 715.98,-236.05 713.85,-232.69 712,-224 700.64,-170.68 696,-154.61 662,-112 652.16,-99.67 638.2,-88.94 626.22,-81.05"/>
<polygon fill="midnightblue" stroke="midnightblue" points="627.88,-77.95 617.55,-75.59 624.15,-83.88 627.88,-77.95"/>
</g>
<!-- Node16 -->
<g id="node16" class="node">
<title>Node16</title>
<g id="a_node16"><a xlink:title=" ">
<polygon fill="white" stroke="#bfbfbf" points="599,-224.5 599,-243.5 631,-243.5 631,-224.5 599,-224.5"/>
<text text-anchor="middle" x="615" y="-231.5" font-family="Helvetica,sans-Serif" font-size="10.00">list</text>
</a>
</g>
</g>
<!-- Node15&#45;&gt;Node16 -->
<g id="edge32" class="edge">
<title>Node15&#45;&gt;Node16</title>
<path fill="none" stroke="midnightblue" d="M645.89,-280.08C640.72,-272.53 633.15,-261.49 626.81,-252.23"/>
<polygon fill="midnightblue" stroke="midnightblue" points="629.54,-250.02 621,-243.75 623.76,-253.98 629.54,-250.02"/>
</g>
<!-- Node17 -->
<g id="node17" class="node">
<title>Node17</title>
<g id="a_node17"><a xlink:title=" ">
<polygon fill="white" stroke="#bfbfbf" points="649.5,-224.5 649.5,-243.5 702.5,-243.5 702.5,-224.5 649.5,-224.5"/>
<text text-anchor="middle" x="676" y="-231.5" font-family="Helvetica,sans-Serif" font-size="10.00">tlist.tcc</text>
</a>
</g>
</g>
<!-- Node15&#45;&gt;Node17 -->
<g id="edge33" class="edge">
<title>Node15&#45;&gt;Node17</title>
<path fill="none" stroke="midnightblue" d="M655.96,-280.08C659.21,-272.77 663.92,-262.18 667.95,-253.1"/>
<polygon fill="midnightblue" stroke="midnightblue" points="671.25,-254.31 672.11,-243.75 664.85,-251.47 671.25,-254.31"/>
</g>
<!-- Node19&#45;&gt;Node7 -->
<g id="edge37" class="edge">
<title>Node19&#45;&gt;Node7</title>
<path fill="none" stroke="midnightblue" d="M217,-336.37C217,-318.62 217,-277.67 217,-253.6"/>
<polygon fill="midnightblue" stroke="midnightblue" points="220.5,-253.59 217,-243.59 213.5,-253.59 220.5,-253.59"/>
</g>
<!-- Node20&#45;&gt;Node4 -->
<g id="edge39" class="edge">
<title>Node20&#45;&gt;Node4</title>
<path fill="none" stroke="midnightblue" d="M363.25,-336.49C410.21,-312.23 540.19,-237.65 591,-132 597.98,-117.5 600.61,-99.31 601.56,-85.87"/>
<polygon fill="midnightblue" stroke="midnightblue" points="605.06,-86.03 602.03,-75.88 598.07,-85.7 605.06,-86.03"/>
</g>
<!-- Node20&#45;&gt;Node13 -->
<g id="edge40" class="edge">
<title>Node20&#45;&gt;Node13</title>
<path fill="none" stroke="midnightblue" d="M304.98,-337.49C253.61,-328.09 165.32,-311.93 107.56,-301.35"/>
<polygon fill="midnightblue" stroke="midnightblue" points="107.97,-297.87 97.5,-299.51 106.71,-304.76 107.97,-297.87"/>
</g>
</g>
</svg>
