<?xml version="1.0" encoding="UTF-8" standalone="no"?>
<!DOCTYPE svg PUBLIC "-//W3C//DTD SVG 1.1//EN"
 "http://www.w3.org/Graphics/SVG/1.1/DTD/svg11.dtd">
<!-- Generated by graphviz version 2.42.4 (0)
 -->
<!-- Title: matroskafile.h Pages: 1 -->
<svg width="936pt" height="302pt"
 viewBox="0.00 0.00 936.00 302.00" xmlns="http://www.w3.org/2000/svg" xmlns:xlink="http://www.w3.org/1999/xlink">
<g id="graph0" class="graph" transform="scale(1 1) rotate(0) translate(4 298)">
<title>matroskafile.h</title>
<!-- Node1 -->
<g id="Node000001" class="node">
<title>Node1</title>
<g id="a_Node000001"><a xlink:title=" ">
<polygon fill="#999999" stroke="#666666" points="245,-294 159,-294 159,-275 245,-275 245,-294"/>
<text text-anchor="middle" x="202" y="-282" font-family="Helvetica,sans-Serif" font-size="10.00">matroskafile.h</text>
</a>
</g>
</g>
<!-- Node2 -->
<g id="Node000002" class="node">
<title>Node2</title>
<g id="a_Node000002"><a xlink:href="taglib__export_8h.html" target="_top" xlink:title=" ">
<polygon fill="white" stroke="#666666" points="301,-19 211,-19 211,0 301,0 301,-19"/>
<text text-anchor="middle" x="256" y="-7" font-family="Helvetica,sans-Serif" font-size="10.00">taglib_export.h</text>
</a>
</g>
</g>
<!-- Node1&#45;&gt;Node2 -->
<g id="edge1_Node000001_Node000002" class="edge">
<title>Node1&#45;&gt;Node2</title>
<g id="a_edge1_Node000001_Node000002"><a xlink:title=" ">
<path fill="none" stroke="#63b8ff" d="M158.67,-279.45C99.31,-271.26 0,-246.88 0,-175.5 0,-175.5 0,-175.5 0,-118.5 0,-76.5 32.85,-74.61 70,-55 92.5,-43.12 154.72,-29.52 201.04,-20.51"/>
<polygon fill="#63b8ff" stroke="#63b8ff" points="201.8,-23.93 210.96,-18.6 200.48,-17.05 201.8,-23.93"/>
</a>
</g>
</g>
<!-- Node3 -->
<g id="Node000003" class="node">
<title>Node3</title>
<g id="a_Node000003"><a xlink:href="tfile_8h.html" target="_top" xlink:title=" ">
<polygon fill="white" stroke="#666666" points="256,-239 212,-239 212,-220 256,-220 256,-239"/>
<text text-anchor="middle" x="234" y="-227" font-family="Helvetica,sans-Serif" font-size="10.00">tfile.h</text>
</a>
</g>
</g>
<!-- Node1&#45;&gt;Node3 -->
<g id="edge2_Node000001_Node000003" class="edge">
<title>Node1&#45;&gt;Node3</title>
<g id="a_edge2_Node000001_Node000003"><a xlink:title=" ">
<path fill="none" stroke="#63b8ff" d="M207.28,-274.75C211.71,-267.42 218.16,-256.73 223.62,-247.7"/>
<polygon fill="#63b8ff" stroke="#63b8ff" points="226.64,-249.46 228.81,-239.09 220.65,-245.84 226.64,-249.46"/>
</a>
</g>
</g>
<!-- Node24 -->
<g id="Node000024" class="node">
<title>Node24</title>
<g id="a_Node000024"><a xlink:href="matroskaproperties_8h.html" target="_top" xlink:title=" ">
<polygon fill="white" stroke="#666666" points="167.5,-184 46.5,-184 46.5,-165 167.5,-165 167.5,-184"/>
<text text-anchor="middle" x="107" y="-172" font-family="Helvetica,sans-Serif" font-size="10.00">matroskaproperties.h</text>
</a>
</g>
</g>
<!-- Node1&#45;&gt;Node24 -->
<g id="edge36_Node000001_Node000024" class="edge">
<title>Node1&#45;&gt;Node24</title>
<g id="a_edge36_Node000001_Node000024"><a xlink:title=" ">
<path fill="none" stroke="#63b8ff" d="M194.23,-274.66C178.28,-256.54 141.67,-214.91 121.31,-191.77"/>
<polygon fill="#63b8ff" stroke="#63b8ff" points="123.85,-189.36 114.62,-184.16 118.59,-193.98 123.85,-189.36"/>
</a>
</g>
</g>
<!-- Node26 -->
<g id="Node000026" class="node">
<title>Node26</title>
<g id="a_Node000026"><a xlink:href="matroskawritestyle_8h.html" target="_top" xlink:title=" ">
<polygon fill="white" stroke="#666666" points="394,-239 274,-239 274,-220 394,-220 394,-239"/>
<text text-anchor="middle" x="334" y="-227" font-family="Helvetica,sans-Serif" font-size="10.00">matroskawritestyle.h</text>
</a>
</g>
</g>
<!-- Node1&#45;&gt;Node26 -->
<g id="edge42_Node000001_Node000026" class="edge">
<title>Node1&#45;&gt;Node26</title>
<g id="a_edge42_Node000001_Node000026"><a xlink:title=" ">
<path fill="none" stroke="#63b8ff" d="M223.21,-274.98C244.73,-266.34 278.28,-252.87 302.83,-243.02"/>
<polygon fill="#63b8ff" stroke="#63b8ff" points="304.43,-246.14 312.41,-239.17 301.82,-239.65 304.43,-246.14"/>
</a>
</g>
</g>
<!-- Node3&#45;&gt;Node2 -->
<g id="edge13_Node000003_Node000002" class="edge">
<title>Node3&#45;&gt;Node2</title>
<g id="a_edge13_Node000003_Node000002"><a xlink:title=" ">
<path fill="none" stroke="#63b8ff" d="M234.86,-219.95C238.09,-187.95 249.52,-74.68 254.09,-29.4"/>
<polygon fill="#63b8ff" stroke="#63b8ff" points="257.6,-29.52 255.12,-19.22 250.63,-28.82 257.6,-29.52"/>
</a>
</g>
</g>
<!-- Node4 -->
<g id="Node000004" class="node">
<title>Node4</title>
<g id="a_Node000004"><a xlink:href="tbytevector_8h.html" target="_top" xlink:title=" ">
<polygon fill="white" stroke="#666666" points="419.5,-74 338.5,-74 338.5,-55 419.5,-55 419.5,-74"/>
<text text-anchor="middle" x="379" y="-62" font-family="Helvetica,sans-Serif" font-size="10.00">tbytevector.h</text>
</a>
</g>
</g>
<!-- Node3&#45;&gt;Node4 -->
<g id="edge3_Node000003_Node000004" class="edge">
<title>Node3&#45;&gt;Node4</title>
<g id="a_edge3_Node000003_Node000004"><a xlink:title=" ">
<path fill="none" stroke="#63b8ff" d="M246.27,-219.78C268.2,-203.75 314.63,-167.67 345,-129 355.97,-115.03 365.23,-97.02 371.31,-83.75"/>
<polygon fill="#63b8ff" stroke="#63b8ff" points="374.64,-84.85 375.47,-74.29 368.24,-82.03 374.64,-84.85"/>
</a>
</g>
</g>
<!-- Node8 -->
<g id="Node000008" class="node">
<title>Node8</title>
<g id="a_Node000008"><a xlink:href="tiostream_8h.html" target="_top" xlink:title=" ">
<polygon fill="white" stroke="#666666" points="335.5,-129 262.5,-129 262.5,-110 335.5,-110 335.5,-129"/>
<text text-anchor="middle" x="299" y="-117" font-family="Helvetica,sans-Serif" font-size="10.00">tiostream.h</text>
</a>
</g>
</g>
<!-- Node3&#45;&gt;Node8 -->
<g id="edge8_Node000003_Node000008" class="edge">
<title>Node3&#45;&gt;Node8</title>
<g id="a_edge8_Node000003_Node000008"><a xlink:title=" ">
<path fill="none" stroke="#63b8ff" d="M239.32,-219.66C250.04,-201.85 274.4,-161.37 288.46,-138.01"/>
<polygon fill="#63b8ff" stroke="#63b8ff" points="291.63,-139.53 293.79,-129.16 285.63,-135.92 291.63,-139.53"/>
</a>
</g>
</g>
<!-- Node9 -->
<g id="Node000009" class="node">
<title>Node9</title>
<g id="a_Node000009"><a xlink:href="taglib_8h.html" target="_top" xlink:title=" ">
<polygon fill="white" stroke="#666666" points="205.5,-74 152.5,-74 152.5,-55 205.5,-55 205.5,-74"/>
<text text-anchor="middle" x="179" y="-62" font-family="Helvetica,sans-Serif" font-size="10.00">taglib.h</text>
</a>
</g>
</g>
<!-- Node3&#45;&gt;Node9 -->
<g id="edge14_Node000003_Node000009" class="edge">
<title>Node3&#45;&gt;Node9</title>
<g id="a_edge14_Node000003_Node000009"><a xlink:title=" ">
<path fill="none" stroke="#63b8ff" d="M231.04,-219.74C222.43,-194.2 197.2,-119.43 185.32,-84.23"/>
<polygon fill="#63b8ff" stroke="#63b8ff" points="188.49,-82.66 181.97,-74.31 181.85,-84.9 188.49,-82.66"/>
</a>
</g>
</g>
<!-- Node11 -->
<g id="Node000011" class="node">
<title>Node11</title>
<g id="a_Node000011"><a xlink:href="tag_8h.html" target="_top" xlink:title=" ">
<polygon fill="white" stroke="#666666" points="480.5,-184 439.5,-184 439.5,-165 480.5,-165 480.5,-184"/>
<text text-anchor="middle" x="460" y="-172" font-family="Helvetica,sans-Serif" font-size="10.00">tag.h</text>
</a>
</g>
</g>
<!-- Node3&#45;&gt;Node11 -->
<g id="edge15_Node000003_Node000011" class="edge">
<title>Node3&#45;&gt;Node11</title>
<g id="a_edge15_Node000003_Node000011"><a xlink:title=" ">
<path fill="none" stroke="#63b8ff" d="M256.32,-222.26C259.24,-221.48 262.19,-220.71 265,-220 322.88,-205.47 390.92,-190.39 429.4,-182.05"/>
<polygon fill="#63b8ff" stroke="#63b8ff" points="430.4,-185.42 439.44,-179.89 428.92,-178.58 430.4,-185.42"/>
</a>
</g>
</g>
<!-- Node4&#45;&gt;Node2 -->
<g id="edge7_Node000004_Node000002" class="edge">
<title>Node4&#45;&gt;Node2</title>
<g id="a_edge7_Node000004_Node000002"><a xlink:title=" ">
<path fill="none" stroke="#63b8ff" d="M359.24,-54.98C339.27,-46.38 308.2,-32.99 285.35,-23.15"/>
<polygon fill="#63b8ff" stroke="#63b8ff" points="286.69,-19.91 276.12,-19.17 283.92,-26.34 286.69,-19.91"/>
</a>
</g>
</g>
<!-- Node5 -->
<g id="Node000005" class="node">
<title>Node5</title>
<g id="a_Node000005"><a xlink:title=" ">
<polygon fill="#e0e0e0" stroke="#999999" points="509,-19 451,-19 451,0 509,0 509,-19"/>
<text text-anchor="middle" x="480" y="-7" font-family="Helvetica,sans-Serif" font-size="10.00">memory</text>
</a>
</g>
</g>
<!-- Node4&#45;&gt;Node5 -->
<g id="edge4_Node000004_Node000005" class="edge">
<title>Node4&#45;&gt;Node5</title>
<g id="a_edge4_Node000004_Node000005"><a xlink:title=" ">
<path fill="none" stroke="#63b8ff" d="M395.23,-54.98C411.18,-46.61 435.78,-33.7 454.38,-23.95"/>
<polygon fill="#63b8ff" stroke="#63b8ff" points="456.25,-26.92 463.48,-19.17 453,-20.72 456.25,-26.92"/>
</a>
</g>
</g>
<!-- Node6 -->
<g id="Node000006" class="node">
<title>Node6</title>
<g id="a_Node000006"><a xlink:title=" ">
<polygon fill="#e0e0e0" stroke="#999999" points="366.5,-19 319.5,-19 319.5,0 366.5,0 366.5,-19"/>
<text text-anchor="middle" x="343" y="-7" font-family="Helvetica,sans-Serif" font-size="10.00">vector</text>
</a>
</g>
</g>
<!-- Node4&#45;&gt;Node6 -->
<g id="edge5_Node000004_Node000006" class="edge">
<title>Node4&#45;&gt;Node6</title>
<g id="a_edge5_Node000004_Node000006"><a xlink:title=" ">
<path fill="none" stroke="#63b8ff" d="M373.06,-54.75C368.02,-47.34 360.66,-36.5 354.49,-27.41"/>
<polygon fill="#63b8ff" stroke="#63b8ff" points="357.35,-25.39 348.83,-19.09 351.56,-29.33 357.35,-25.39"/>
</a>
</g>
</g>
<!-- Node7 -->
<g id="Node000007" class="node">
<title>Node7</title>
<g id="a_Node000007"><a xlink:title=" ">
<polygon fill="#e0e0e0" stroke="#999999" points="433,-19 385,-19 385,0 433,0 433,-19"/>
<text text-anchor="middle" x="409" y="-7" font-family="Helvetica,sans-Serif" font-size="10.00">iosfwd</text>
</a>
</g>
</g>
<!-- Node4&#45;&gt;Node7 -->
<g id="edge6_Node000004_Node000007" class="edge">
<title>Node4&#45;&gt;Node7</title>
<g id="a_edge6_Node000004_Node000007"><a xlink:title=" ">
<path fill="none" stroke="#63b8ff" d="M383.95,-54.75C388.06,-47.49 394.03,-36.95 399.1,-27.98"/>
<polygon fill="#63b8ff" stroke="#63b8ff" points="402.26,-29.52 404.14,-19.09 396.17,-26.07 402.26,-29.52"/>
</a>
</g>
</g>
<!-- Node8&#45;&gt;Node2 -->
<g id="edge10_Node000008_Node000002" class="edge">
<title>Node8&#45;&gt;Node2</title>
<g id="a_edge10_Node000008_Node000002"><a xlink:title=" ">
<path fill="none" stroke="#63b8ff" d="M295.48,-109.66C288.45,-92.01 272.56,-52.09 263.22,-28.64"/>
<polygon fill="#63b8ff" stroke="#63b8ff" points="266.4,-27.15 259.45,-19.16 259.89,-29.74 266.4,-27.15"/>
</a>
</g>
</g>
<!-- Node8&#45;&gt;Node4 -->
<g id="edge9_Node000008_Node000004" class="edge">
<title>Node8&#45;&gt;Node4</title>
<g id="a_edge9_Node000008_Node000004"><a xlink:title=" ">
<path fill="none" stroke="#63b8ff" d="M311.85,-109.98C324.14,-101.84 342.91,-89.41 357.48,-79.76"/>
<polygon fill="#63b8ff" stroke="#63b8ff" points="359.51,-82.61 365.91,-74.17 355.64,-76.78 359.51,-82.61"/>
</a>
</g>
</g>
<!-- Node8&#45;&gt;Node9 -->
<g id="edge11_Node000008_Node000009" class="edge">
<title>Node8&#45;&gt;Node9</title>
<g id="a_edge11_Node000008_Node000009"><a xlink:title=" ">
<path fill="none" stroke="#63b8ff" d="M279.72,-109.98C260.33,-101.42 230.19,-88.11 207.93,-78.28"/>
<polygon fill="#63b8ff" stroke="#63b8ff" points="209.19,-75.01 198.63,-74.17 206.36,-81.41 209.19,-75.01"/>
</a>
</g>
</g>
<!-- Node10 -->
<g id="Node000010" class="node">
<title>Node10</title>
<g id="a_Node000010"><a xlink:title=" ">
<polygon fill="#e0e0e0" stroke="#999999" points="193,-19 121,-19 121,0 193,0 193,-19"/>
<text text-anchor="middle" x="157" y="-7" font-family="Helvetica,sans-Serif" font-size="10.00">sys/types.h</text>
</a>
</g>
</g>
<!-- Node9&#45;&gt;Node10 -->
<g id="edge12_Node000009_Node000010" class="edge">
<title>Node9&#45;&gt;Node10</title>
<g id="a_edge12_Node000009_Node000010"><a xlink:title=" ">
<path fill="none" stroke="#63b8ff" d="M175.37,-54.75C172.42,-47.65 168.17,-37.4 164.49,-28.56"/>
<polygon fill="#63b8ff" stroke="#63b8ff" points="167.63,-26.98 160.57,-19.09 161.17,-29.67 167.63,-26.98"/>
</a>
</g>
</g>
<!-- Node11&#45;&gt;Node2 -->
<g id="edge16_Node000011_Node000002" class="edge">
<title>Node11&#45;&gt;Node2</title>
<g id="a_edge16_Node000011_Node000002"><a xlink:title=" ">
<path fill="none" stroke="#63b8ff" d="M448.35,-164.93C425.4,-147.96 372.83,-108.72 330,-74 310.43,-58.14 288.61,-39.26 273.77,-26.23"/>
<polygon fill="#63b8ff" stroke="#63b8ff" points="275.72,-23.29 265.9,-19.31 271.09,-28.54 275.72,-23.29"/>
</a>
</g>
</g>
<!-- Node12 -->
<g id="Node000012" class="node">
<title>Node12</title>
<g id="a_Node000012"><a xlink:href="tstring_8h.html" target="_top" xlink:title=" ">
<polygon fill="white" stroke="#666666" points="488.5,-129 431.5,-129 431.5,-110 488.5,-110 488.5,-129"/>
<text text-anchor="middle" x="460" y="-117" font-family="Helvetica,sans-Serif" font-size="10.00">tstring.h</text>
</a>
</g>
</g>
<!-- Node11&#45;&gt;Node12 -->
<g id="edge17_Node000011_Node000012" class="edge">
<title>Node11&#45;&gt;Node12</title>
<g id="a_edge17_Node000011_Node000012"><a xlink:title=" ">
<path fill="none" stroke="#63b8ff" d="M460,-164.75C460,-157.8 460,-147.85 460,-139.13"/>
<polygon fill="#63b8ff" stroke="#63b8ff" points="463.5,-139.09 460,-129.09 456.5,-139.09 463.5,-139.09"/>
</a>
</g>
</g>
<!-- Node14 -->
<g id="Node000014" class="node">
<title>Node14</title>
<g id="a_Node000014"><a xlink:href="tlist_8h.html" target="_top" xlink:title=" ">
<polygon fill="white" stroke="#666666" points="776,-74 732,-74 732,-55 776,-55 776,-74"/>
<text text-anchor="middle" x="754" y="-62" font-family="Helvetica,sans-Serif" font-size="10.00">tlist.h</text>
</a>
</g>
</g>
<!-- Node11&#45;&gt;Node14 -->
<g id="edge21_Node000011_Node000014" class="edge">
<title>Node11&#45;&gt;Node14</title>
<g id="a_edge21_Node000011_Node000014"><a xlink:title=" ">
<path fill="none" stroke="#63b8ff" d="M480.58,-170.56C515.38,-165.15 587.67,-152.02 645,-129 677.58,-115.92 712.09,-94.33 733.34,-80.01"/>
<polygon fill="#63b8ff" stroke="#63b8ff" points="735.58,-82.72 741.86,-74.18 731.63,-76.94 735.58,-82.72"/>
</a>
</g>
</g>
<!-- Node18 -->
<g id="Node000018" class="node">
<title>Node18</title>
<g id="a_Node000018"><a xlink:href="tvariant_8h.html" target="_top" xlink:title=" ">
<polygon fill="white" stroke="#666666" points="636,-129 572,-129 572,-110 636,-110 636,-129"/>
<text text-anchor="middle" x="604" y="-117" font-family="Helvetica,sans-Serif" font-size="10.00">tvariant.h</text>
</a>
</g>
</g>
<!-- Node11&#45;&gt;Node18 -->
<g id="edge26_Node000011_Node000018" class="edge">
<title>Node11&#45;&gt;Node18</title>
<g id="a_edge26_Node000011_Node000018"><a xlink:title=" ">
<path fill="none" stroke="#63b8ff" d="M480.63,-165.91C504.18,-157.24 543.03,-142.94 570.84,-132.7"/>
<polygon fill="#63b8ff" stroke="#63b8ff" points="572.36,-135.87 580.54,-129.14 569.94,-129.3 572.36,-135.87"/>
</a>
</g>
</g>
<!-- Node12&#45;&gt;Node2 -->
<g id="edge20_Node000012_Node000002" class="edge">
<title>Node12&#45;&gt;Node2</title>
<g id="a_edge20_Node000012_Node000002"><a xlink:title=" ">
<path fill="none" stroke="#63b8ff" d="M469.84,-109.96C483.57,-97.04 505.24,-72.19 491,-55 485.24,-48.05 378.96,-30.02 311.32,-19.16"/>
<polygon fill="#63b8ff" stroke="#63b8ff" points="311.65,-15.67 301.22,-17.55 310.55,-22.59 311.65,-15.67"/>
</a>
</g>
</g>
<!-- Node12&#45;&gt;Node4 -->
<g id="edge19_Node000012_Node000004" class="edge">
<title>Node12&#45;&gt;Node4</title>
<g id="a_edge19_Node000012_Node000004"><a xlink:title=" ">
<path fill="none" stroke="#63b8ff" d="M446.99,-109.98C434.54,-101.84 415.54,-89.41 400.79,-79.76"/>
<polygon fill="#63b8ff" stroke="#63b8ff" points="402.54,-76.72 392.25,-74.17 398.7,-82.57 402.54,-76.72"/>
</a>
</g>
</g>
<!-- Node13 -->
<g id="Node000013" class="node">
<title>Node13</title>
<g id="a_Node000013"><a xlink:title=" ">
<polygon fill="#e0e0e0" stroke="#999999" points="482,-74 438,-74 438,-55 482,-55 482,-74"/>
<text text-anchor="middle" x="460" y="-62" font-family="Helvetica,sans-Serif" font-size="10.00">string</text>
</a>
</g>
</g>
<!-- Node12&#45;&gt;Node13 -->
<g id="edge18_Node000012_Node000013" class="edge">
<title>Node12&#45;&gt;Node13</title>
<g id="a_edge18_Node000012_Node000013"><a xlink:title=" ">
<path fill="none" stroke="#63b8ff" d="M460,-109.75C460,-102.8 460,-92.85 460,-84.13"/>
<polygon fill="#63b8ff" stroke="#63b8ff" points="463.5,-84.09 460,-74.09 456.5,-84.09 463.5,-84.09"/>
</a>
</g>
</g>
<!-- Node14&#45;&gt;Node5 -->
<g id="edge24_Node000014_Node000005" class="edge">
<title>Node14&#45;&gt;Node5</title>
<g id="a_edge24_Node000014_Node000005"><a xlink:title=" ">
<path fill="none" stroke="#63b8ff" d="M731.69,-59.04C725.04,-57.73 717.73,-56.29 711,-55 628.41,-39.13 605.14,-36.69 518.98,-19.14"/>
<polygon fill="#63b8ff" stroke="#63b8ff" points="519.52,-15.68 509.02,-17.1 518.12,-22.54 519.52,-15.68"/>
</a>
</g>
</g>
<!-- Node15 -->
<g id="Node000015" class="node">
<title>Node15</title>
<g id="a_Node000015"><a xlink:title=" ">
<polygon fill="#e0e0e0" stroke="#999999" points="928,-19 896,-19 896,0 928,0 928,-19"/>
<text text-anchor="middle" x="912" y="-7" font-family="Helvetica,sans-Serif" font-size="10.00">list</text>
</a>
</g>
</g>
<!-- Node14&#45;&gt;Node15 -->
<g id="edge22_Node000014_Node000015" class="edge">
<title>Node14&#45;&gt;Node15</title>
<g id="a_edge22_Node000014_Node000015"><a xlink:title=" ">
<path fill="none" stroke="#63b8ff" d="M776.13,-56.13C800.78,-47.92 842.05,-34.14 886.37,-19.2"/>
<polygon fill="#63b8ff" stroke="#63b8ff" points="887.51,-22.51 895.87,-16 885.27,-15.88 887.51,-22.51"/>
</a>
</g>
</g>
<!-- Node16 -->
<g id="Node000016" class="node">
<title>Node16</title>
<g id="a_Node000016"><a xlink:title=" ">
<polygon fill="#e0e0e0" stroke="#999999" points="806.5,-19 723.5,-19 723.5,0 806.5,0 806.5,-19"/>
<text text-anchor="middle" x="765" y="-7" font-family="Helvetica,sans-Serif" font-size="10.00">initializer_list</text>
</a>
</g>
</g>
<!-- Node14&#45;&gt;Node16 -->
<g id="edge23_Node000014_Node000016" class="edge">
<title>Node14&#45;&gt;Node16</title>
<g id="a_edge23_Node000014_Node000016"><a xlink:title=" ">
<path fill="none" stroke="#63b8ff" d="M755.82,-54.75C757.26,-47.8 759.32,-37.85 761.13,-29.13"/>
<polygon fill="#63b8ff" stroke="#63b8ff" points="764.61,-29.59 763.22,-19.09 757.76,-28.17 764.61,-29.59"/>
</a>
</g>
</g>
<!-- Node17 -->
<g id="Node000017" class="node">
<title>Node17</title>
<g id="a_Node000017"><a xlink:title=" ">
<polygon fill="#e0e0e0" stroke="#999999" points="877.5,-19 824.5,-19 824.5,0 877.5,0 877.5,-19"/>
<text text-anchor="middle" x="851" y="-7" font-family="Helvetica,sans-Serif" font-size="10.00">tlist.tcc</text>
</a>
</g>
</g>
<!-- Node14&#45;&gt;Node17 -->
<g id="edge25_Node000014_Node000017" class="edge">
<title>Node14&#45;&gt;Node17</title>
<g id="a_edge25_Node000014_Node000017"><a xlink:title=" ">
<path fill="none" stroke="#63b8ff" d="M769.58,-54.98C784.77,-46.69 808.1,-33.94 825.9,-24.22"/>
<polygon fill="#63b8ff" stroke="#63b8ff" points="828.03,-27.04 835.13,-19.17 824.68,-20.89 828.03,-27.04"/>
</a>
</g>
</g>
<!-- Node18&#45;&gt;Node2 -->
<g id="edge35_Node000018_Node000002" class="edge">
<title>Node18&#45;&gt;Node2</title>
<g id="a_edge35_Node000018_Node000002"><a xlink:title=" ">
<path fill="none" stroke="#63b8ff" d="M594.01,-109.95C577.24,-96.07 541.8,-68.8 507,-55 489.12,-47.91 379.8,-29.93 311.46,-19.12"/>
<polygon fill="#63b8ff" stroke="#63b8ff" points="311.7,-15.61 301.27,-17.51 310.61,-22.53 311.7,-15.61"/>
</a>
</g>
</g>
<!-- Node18&#45;&gt;Node14 -->
<g id="edge28_Node000018_Node000014" class="edge">
<title>Node18&#45;&gt;Node14</title>
<g id="a_edge28_Node000018_Node000014"><a xlink:title=" ">
<path fill="none" stroke="#63b8ff" d="M628.1,-109.98C653.62,-100.97 694.03,-86.69 722.16,-76.75"/>
<polygon fill="#63b8ff" stroke="#63b8ff" points="723.65,-79.94 731.91,-73.3 721.32,-73.33 723.65,-79.94"/>
</a>
</g>
</g>
<!-- Node19 -->
<g id="Node000019" class="node">
<title>Node19</title>
<g id="a_Node000019"><a xlink:title=" ">
<polygon fill="#e0e0e0" stroke="#999999" points="632,-74 576,-74 576,-55 632,-55 632,-74"/>
<text text-anchor="middle" x="604" y="-62" font-family="Helvetica,sans-Serif" font-size="10.00">sstream</text>
</a>
</g>
</g>
<!-- Node18&#45;&gt;Node19 -->
<g id="edge27_Node000018_Node000019" class="edge">
<title>Node18&#45;&gt;Node19</title>
<g id="a_edge27_Node000018_Node000019"><a xlink:title=" ">
<path fill="none" stroke="#63b8ff" d="M604,-109.75C604,-102.8 604,-92.85 604,-84.13"/>
<polygon fill="#63b8ff" stroke="#63b8ff" points="607.5,-84.09 604,-74.09 600.5,-84.09 607.5,-84.09"/>
</a>
</g>
</g>
<!-- Node20 -->
<g id="Node000020" class="node">
<title>Node20</title>
<g id="a_Node000020"><a xlink:href="tmap_8h.html" target="_top" xlink:title=" ">
<polygon fill="white" stroke="#666666" points="701.5,-74 650.5,-74 650.5,-55 701.5,-55 701.5,-74"/>
<text text-anchor="middle" x="676" y="-62" font-family="Helvetica,sans-Serif" font-size="10.00">tmap.h</text>
</a>
</g>
</g>
<!-- Node18&#45;&gt;Node20 -->
<g id="edge29_Node000018_Node000020" class="edge">
<title>Node18&#45;&gt;Node20</title>
<g id="a_edge29_Node000018_Node000020"><a xlink:title=" ">
<path fill="none" stroke="#63b8ff" d="M615.57,-109.98C626.42,-102 642.88,-89.88 655.88,-80.31"/>
<polygon fill="#63b8ff" stroke="#63b8ff" points="658.24,-82.92 664.22,-74.17 654.09,-77.28 658.24,-82.92"/>
</a>
</g>
</g>
<!-- Node20&#45;&gt;Node5 -->
<g id="edge31_Node000020_Node000005" class="edge">
<title>Node20&#45;&gt;Node5</title>
<g id="a_edge31_Node000020_Node000005"><a xlink:title=" ">
<path fill="none" stroke="#63b8ff" d="M650.38,-56.57C616.94,-47.53 558.11,-31.62 519.1,-21.07"/>
<polygon fill="#63b8ff" stroke="#63b8ff" points="519.71,-17.61 509.14,-18.38 517.88,-24.37 519.71,-17.61"/>
</a>
</g>
</g>
<!-- Node20&#45;&gt;Node16 -->
<g id="edge32_Node000020_Node000016" class="edge">
<title>Node20&#45;&gt;Node16</title>
<g id="a_edge32_Node000020_Node000016"><a xlink:title=" ">
<path fill="none" stroke="#63b8ff" d="M690.3,-54.98C704.1,-46.77 725.24,-34.18 741.51,-24.49"/>
<polygon fill="#63b8ff" stroke="#63b8ff" points="743.64,-27.29 750.44,-19.17 740.06,-21.28 743.64,-27.29"/>
</a>
</g>
</g>
<!-- Node21 -->
<g id="Node000021" class="node">
<title>Node21</title>
<g id="a_Node000021"><a xlink:title=" ">
<polygon fill="#e0e0e0" stroke="#999999" points="565,-19 527,-19 527,0 565,0 565,-19"/>
<text text-anchor="middle" x="546" y="-7" font-family="Helvetica,sans-Serif" font-size="10.00">map</text>
</a>
</g>
</g>
<!-- Node20&#45;&gt;Node21 -->
<g id="edge30_Node000020_Node000021" class="edge">
<title>Node20&#45;&gt;Node21</title>
<g id="a_edge30_Node000020_Node000021"><a xlink:title=" ">
<path fill="none" stroke="#63b8ff" d="M655.11,-54.98C633.29,-46.09 598.9,-32.07 574.56,-22.15"/>
<polygon fill="#63b8ff" stroke="#63b8ff" points="575.72,-18.84 565.14,-18.3 573.08,-25.32 575.72,-18.84"/>
</a>
</g>
</g>
<!-- Node22 -->
<g id="Node000022" class="node">
<title>Node22</title>
<g id="a_Node000022"><a xlink:title=" ">
<polygon fill="#e0e0e0" stroke="#999999" points="628.5,-19 583.5,-19 583.5,0 628.5,0 628.5,-19"/>
<text text-anchor="middle" x="606" y="-7" font-family="Helvetica,sans-Serif" font-size="10.00">utility</text>
</a>
</g>
</g>
<!-- Node20&#45;&gt;Node22 -->
<g id="edge33_Node000020_Node000022" class="edge">
<title>Node20&#45;&gt;Node22</title>
<g id="a_edge33_Node000020_Node000022"><a xlink:title=" ">
<path fill="none" stroke="#63b8ff" d="M664.75,-54.98C654.2,-47 638.2,-34.88 625.56,-25.31"/>
<polygon fill="#63b8ff" stroke="#63b8ff" points="627.54,-22.42 617.45,-19.17 623.31,-28 627.54,-22.42"/>
</a>
</g>
</g>
<!-- Node23 -->
<g id="Node000023" class="node">
<title>Node23</title>
<g id="a_Node000023"><a xlink:title=" ">
<polygon fill="#e0e0e0" stroke="#999999" points="705.5,-19 646.5,-19 646.5,0 705.5,0 705.5,-19"/>
<text text-anchor="middle" x="676" y="-7" font-family="Helvetica,sans-Serif" font-size="10.00">tmap.tcc</text>
</a>
</g>
</g>
<!-- Node20&#45;&gt;Node23 -->
<g id="edge34_Node000020_Node000023" class="edge">
<title>Node20&#45;&gt;Node23</title>
<g id="a_edge34_Node000020_Node000023"><a xlink:title=" ">
<path fill="none" stroke="#63b8ff" d="M676,-54.75C676,-47.8 676,-37.85 676,-29.13"/>
<polygon fill="#63b8ff" stroke="#63b8ff" points="679.5,-29.09 676,-19.09 672.5,-29.09 679.5,-29.09"/>
</a>
</g>
</g>
<!-- Node24&#45;&gt;Node2 -->
<g id="edge37_Node000024_Node000002" class="edge">
<title>Node24&#45;&gt;Node2</title>
<g id="a_edge37_Node000024_Node000002"><a xlink:title=" ">
<path fill="none" stroke="#63b8ff" d="M91.57,-164.8C79.65,-157.11 64.04,-144.69 57,-129 41.43,-94.3 68.45,-76.24 100,-55 117.32,-43.34 166.89,-30.26 205.56,-21.32"/>
<polygon fill="#63b8ff" stroke="#63b8ff" points="206.66,-24.66 215.63,-19.02 205.11,-17.83 206.66,-24.66"/>
</a>
</g>
</g>
<!-- Node25 -->
<g id="Node000025" class="node">
<title>Node25</title>
<g id="a_Node000025"><a xlink:href="audioproperties_8h.html" target="_top" xlink:title=" ">
<polygon fill="white" stroke="#666666" points="168,-129 66,-129 66,-110 168,-110 168,-129"/>
<text text-anchor="middle" x="117" y="-117" font-family="Helvetica,sans-Serif" font-size="10.00">audioproperties.h</text>
</a>
</g>
</g>
<!-- Node24&#45;&gt;Node25 -->
<g id="edge38_Node000024_Node000025" class="edge">
<title>Node24&#45;&gt;Node25</title>
<g id="a_edge38_Node000024_Node000025"><a xlink:title=" ">
<path fill="none" stroke="#63b8ff" d="M108.65,-164.75C109.96,-157.8 111.84,-147.85 113.48,-139.13"/>
<polygon fill="#63b8ff" stroke="#63b8ff" points="116.96,-139.56 115.38,-129.09 110.09,-138.27 116.96,-139.56"/>
</a>
</g>
</g>
<!-- Node25&#45;&gt;Node2 -->
<g id="edge41_Node000025_Node000002" class="edge">
<title>Node25&#45;&gt;Node2</title>
<g id="a_edge41_Node000025_Node000002"><a xlink:title=" ">
<path fill="none" stroke="#63b8ff" d="M112.57,-109.72C106.59,-96.47 97.99,-71.22 110,-55 121.1,-40.01 164.14,-28.05 200.63,-20.32"/>
<polygon fill="#63b8ff" stroke="#63b8ff" points="201.63,-23.69 210.72,-18.25 200.22,-16.83 201.63,-23.69"/>
</a>
</g>
</g>
<!-- Node25&#45;&gt;Node5 -->
<g id="edge39_Node000025_Node000005" class="edge">
<title>Node25&#45;&gt;Node5</title>
<g id="a_edge39_Node000025_Node000005"><a xlink:title=" ">
<path fill="none" stroke="#63b8ff" d="M117.96,-109.86C120.01,-95.84 126.19,-68.39 144,-55 195.03,-16.65 361.11,-29.08 440.46,-18.9"/>
<polygon fill="#63b8ff" stroke="#63b8ff" points="441.23,-22.32 450.6,-17.38 440.19,-15.4 441.23,-22.32"/>
</a>
</g>
</g>
<!-- Node25&#45;&gt;Node9 -->
<g id="edge40_Node000025_Node000009" class="edge">
<title>Node25&#45;&gt;Node9</title>
<g id="a_edge40_Node000025_Node000009"><a xlink:title=" ">
<path fill="none" stroke="#63b8ff" d="M126.96,-109.98C136.13,-102.15 149.94,-90.34 161.03,-80.86"/>
<polygon fill="#63b8ff" stroke="#63b8ff" points="163.53,-83.33 168.86,-74.17 158.98,-78.01 163.53,-83.33"/>
</a>
</g>
</g>
</g>
</svg>
