<?xml version="1.0" encoding="UTF-8" standalone="no"?>
<!DOCTYPE svg PUBLIC "-//W3C//DTD SVG 1.1//EN"
 "http://www.w3.org/Graphics/SVG/1.1/DTD/svg11.dtd">
<!-- Generated by graphviz version 2.42.4 (0)
 -->
<!-- Title: modfile.h Pages: 1 -->
<svg width="942pt" height="357pt"
 viewBox="0.00 0.00 941.50 357.00" xmlns="http://www.w3.org/2000/svg" xmlns:xlink="http://www.w3.org/1999/xlink">
<g id="graph0" class="graph" transform="scale(1 1) rotate(0) translate(4 353)">
<title>modfile.h</title>
<!-- Node1 -->
<g id="Node000001" class="node">
<title>Node1</title>
<g id="a_Node000001"><a xlink:title=" ">
<polygon fill="#999999" stroke="#666666" points="241,-349 179,-349 179,-330 241,-330 241,-349"/>
<text text-anchor="middle" x="210" y="-337" font-family="Helvetica,sans-Serif" font-size="10.00">modfile.h</text>
</a>
</g>
</g>
<!-- Node2 -->
<g id="Node000002" class="node">
<title>Node2</title>
<g id="a_Node000002"><a xlink:href="tfile_8h.html" target="_top" xlink:title=" ">
<polygon fill="white" stroke="#666666" points="358,-239 314,-239 314,-220 358,-220 358,-239"/>
<text text-anchor="middle" x="336" y="-227" font-family="Helvetica,sans-Serif" font-size="10.00">tfile.h</text>
</a>
</g>
</g>
<!-- Node1&#45;&gt;Node2 -->
<g id="edge1_Node000001_Node000002" class="edge">
<title>Node1&#45;&gt;Node2</title>
<g id="a_edge1_Node000001_Node000002"><a xlink:title=" ">
<path fill="none" stroke="#63b8ff" d="M241.39,-333C265.29,-327.22 297.33,-315.82 317,-294 328.08,-281.71 332.7,-263.2 334.63,-249.33"/>
<polygon fill="#63b8ff" stroke="#63b8ff" points="338.15,-249.32 335.7,-239.01 331.19,-248.6 338.15,-249.32"/>
</a>
</g>
</g>
<!-- Node7 -->
<g id="Node000007" class="node">
<title>Node7</title>
<g id="a_Node000007"><a xlink:href="taglib__export_8h.html" target="_top" xlink:title=" ">
<polygon fill="white" stroke="#666666" points="291,-19 201,-19 201,0 291,0 291,-19"/>
<text text-anchor="middle" x="246" y="-7" font-family="Helvetica,sans-Serif" font-size="10.00">taglib_export.h</text>
</a>
</g>
</g>
<!-- Node1&#45;&gt;Node7 -->
<g id="edge35_Node000001_Node000007" class="edge">
<title>Node1&#45;&gt;Node7</title>
<g id="a_edge35_Node000001_Node000007"><a xlink:title=" ">
<path fill="none" stroke="#63b8ff" d="M178.56,-336.52C119.98,-330.94 0,-309.83 0,-230.5 0,-230.5 0,-230.5 0,-118.5 0,-35.81 117.97,-15.85 190.52,-11.4"/>
<polygon fill="#63b8ff" stroke="#63b8ff" points="191.08,-14.88 200.88,-10.85 190.71,-7.88 191.08,-14.88"/>
</a>
</g>
</g>
<!-- Node24 -->
<g id="Node000024" class="node">
<title>Node24</title>
<g id="a_Node000024"><a xlink:href="audioproperties_8h.html" target="_top" xlink:title=" ">
<polygon fill="white" stroke="#666666" points="168,-184 66,-184 66,-165 168,-165 168,-184"/>
<text text-anchor="middle" x="117" y="-172" font-family="Helvetica,sans-Serif" font-size="10.00">audioproperties.h</text>
</a>
</g>
</g>
<!-- Node1&#45;&gt;Node24 -->
<g id="edge36_Node000001_Node000024" class="edge">
<title>Node1&#45;&gt;Node24</title>
<g id="a_edge36_Node000001_Node000024"><a xlink:title=" ">
<path fill="none" stroke="#63b8ff" d="M178.92,-335.68C152.21,-331.42 115.22,-320.75 97,-294 76.05,-263.23 94.02,-217.79 106.83,-193.08"/>
<polygon fill="#63b8ff" stroke="#63b8ff" points="109.99,-194.59 111.72,-184.13 103.85,-191.23 109.99,-194.59"/>
</a>
</g>
</g>
<!-- Node25 -->
<g id="Node000025" class="node">
<title>Node25</title>
<g id="a_Node000025"><a xlink:href="modfilebase_8h.html" target="_top" xlink:title=" ">
<polygon fill="white" stroke="#666666" points="308,-294 222,-294 222,-275 308,-275 308,-294"/>
<text text-anchor="middle" x="265" y="-282" font-family="Helvetica,sans-Serif" font-size="10.00">modfilebase.h</text>
</a>
</g>
</g>
<!-- Node1&#45;&gt;Node25 -->
<g id="edge40_Node000001_Node000025" class="edge">
<title>Node1&#45;&gt;Node25</title>
<g id="a_edge40_Node000001_Node000025"><a xlink:title=" ">
<path fill="none" stroke="#63b8ff" d="M219.08,-329.75C227.09,-322.03 238.96,-310.6 248.62,-301.28"/>
<polygon fill="#63b8ff" stroke="#63b8ff" points="251.31,-303.55 256.09,-294.09 246.46,-298.51 251.31,-303.55"/>
</a>
</g>
</g>
<!-- Node26 -->
<g id="Node000026" class="node">
<title>Node26</title>
<g id="a_Node000026"><a xlink:href="modtag_8h.html" target="_top" xlink:title=" ">
<polygon fill="white" stroke="#666666" points="583.5,-294 520.5,-294 520.5,-275 583.5,-275 583.5,-294"/>
<text text-anchor="middle" x="552" y="-282" font-family="Helvetica,sans-Serif" font-size="10.00">modtag.h</text>
</a>
</g>
</g>
<!-- Node1&#45;&gt;Node26 -->
<g id="edge45_Node000001_Node000026" class="edge">
<title>Node1&#45;&gt;Node26</title>
<g id="a_edge45_Node000001_Node000026"><a xlink:title=" ">
<path fill="none" stroke="#63b8ff" d="M241.26,-333.66C303.05,-324.08 440.87,-302.72 510.31,-291.96"/>
<polygon fill="#63b8ff" stroke="#63b8ff" points="511.1,-295.38 520.44,-290.39 510.03,-288.46 511.1,-295.38"/>
</a>
</g>
</g>
<!-- Node27 -->
<g id="Node000027" class="node">
<title>Node27</title>
<g id="a_Node000027"><a xlink:href="modproperties_8h.html" target="_top" xlink:title=" ">
<polygon fill="white" stroke="#666666" points="203.5,-294 106.5,-294 106.5,-275 203.5,-275 203.5,-294"/>
<text text-anchor="middle" x="155" y="-282" font-family="Helvetica,sans-Serif" font-size="10.00">modproperties.h</text>
</a>
</g>
</g>
<!-- Node1&#45;&gt;Node27 -->
<g id="edge47_Node000001_Node000027" class="edge">
<title>Node1&#45;&gt;Node27</title>
<g id="a_edge47_Node000001_Node000027"><a xlink:title=" ">
<path fill="none" stroke="#63b8ff" d="M200.92,-329.75C192.91,-322.03 181.04,-310.6 171.38,-301.28"/>
<polygon fill="#63b8ff" stroke="#63b8ff" points="173.54,-298.51 163.91,-294.09 168.69,-303.55 173.54,-298.51"/>
</a>
</g>
</g>
<!-- Node3 -->
<g id="Node000003" class="node">
<title>Node3</title>
<g id="a_Node000003"><a xlink:href="tbytevector_8h.html" target="_top" xlink:title=" ">
<polygon fill="white" stroke="#666666" points="469.5,-74 388.5,-74 388.5,-55 469.5,-55 469.5,-74"/>
<text text-anchor="middle" x="429" y="-62" font-family="Helvetica,sans-Serif" font-size="10.00">tbytevector.h</text>
</a>
</g>
</g>
<!-- Node2&#45;&gt;Node3 -->
<g id="edge2_Node000002_Node000003" class="edge">
<title>Node2&#45;&gt;Node3</title>
<g id="a_edge2_Node000002_Node000003"><a xlink:title=" ">
<path fill="none" stroke="#63b8ff" d="M347.56,-219.71C357.77,-211.44 372.48,-198.22 382,-184 403.56,-151.78 417.62,-108.17 424.35,-83.84"/>
<polygon fill="#63b8ff" stroke="#63b8ff" points="427.75,-84.7 426.93,-74.13 420.98,-82.9 427.75,-84.7"/>
</a>
</g>
</g>
<!-- Node2&#45;&gt;Node7 -->
<g id="edge12_Node000002_Node000007" class="edge">
<title>Node2&#45;&gt;Node7</title>
<g id="a_edge12_Node000002_Node000007"><a xlink:title=" ">
<path fill="none" stroke="#63b8ff" d="M313.79,-222.33C275.64,-210.59 197.68,-181.41 155,-129 133.63,-102.75 118.12,-83.1 137,-55 149.3,-36.69 170.6,-25.91 191.12,-19.57"/>
<polygon fill="#63b8ff" stroke="#63b8ff" points="192.09,-22.93 200.78,-16.87 190.21,-16.19 192.09,-22.93"/>
</a>
</g>
</g>
<!-- Node8 -->
<g id="Node000008" class="node">
<title>Node8</title>
<g id="a_Node000008"><a xlink:href="tiostream_8h.html" target="_top" xlink:title=" ">
<polygon fill="white" stroke="#666666" points="373.5,-184 300.5,-184 300.5,-165 373.5,-165 373.5,-184"/>
<text text-anchor="middle" x="337" y="-172" font-family="Helvetica,sans-Serif" font-size="10.00">tiostream.h</text>
</a>
</g>
</g>
<!-- Node2&#45;&gt;Node8 -->
<g id="edge7_Node000002_Node000008" class="edge">
<title>Node2&#45;&gt;Node8</title>
<g id="a_edge7_Node000002_Node000008"><a xlink:title=" ">
<path fill="none" stroke="#63b8ff" d="M336.17,-219.75C336.3,-212.8 336.48,-202.85 336.65,-194.13"/>
<polygon fill="#63b8ff" stroke="#63b8ff" points="340.15,-194.15 336.84,-184.09 333.15,-194.02 340.15,-194.15"/>
</a>
</g>
</g>
<!-- Node9 -->
<g id="Node000009" class="node">
<title>Node9</title>
<g id="a_Node000009"><a xlink:href="taglib_8h.html" target="_top" xlink:title=" ">
<polygon fill="white" stroke="#666666" points="217.5,-129 164.5,-129 164.5,-110 217.5,-110 217.5,-129"/>
<text text-anchor="middle" x="191" y="-117" font-family="Helvetica,sans-Serif" font-size="10.00">taglib.h</text>
</a>
</g>
</g>
<!-- Node2&#45;&gt;Node9 -->
<g id="edge13_Node000002_Node000009" class="edge">
<title>Node2&#45;&gt;Node9</title>
<g id="a_edge13_Node000002_Node000009"><a xlink:title=" ">
<path fill="none" stroke="#63b8ff" d="M324.13,-219.66C299.26,-201.14 241.45,-158.08 210.84,-135.28"/>
<polygon fill="#63b8ff" stroke="#63b8ff" points="212.74,-132.32 202.62,-129.16 208.55,-137.94 212.74,-132.32"/>
</a>
</g>
</g>
<!-- Node11 -->
<g id="Node000011" class="node">
<title>Node11</title>
<g id="a_Node000011"><a xlink:href="tag_8h.html" target="_top" xlink:title=" ">
<polygon fill="white" stroke="#666666" points="549.5,-184 508.5,-184 508.5,-165 549.5,-165 549.5,-184"/>
<text text-anchor="middle" x="529" y="-172" font-family="Helvetica,sans-Serif" font-size="10.00">tag.h</text>
</a>
</g>
</g>
<!-- Node2&#45;&gt;Node11 -->
<g id="edge14_Node000002_Node000011" class="edge">
<title>Node2&#45;&gt;Node11</title>
<g id="a_edge14_Node000002_Node000011"><a xlink:title=" ">
<path fill="none" stroke="#63b8ff" d="M358.14,-222.42C392.68,-212.94 459.46,-194.6 498.52,-183.87"/>
<polygon fill="#63b8ff" stroke="#63b8ff" points="499.57,-187.21 508.29,-181.19 497.72,-180.46 499.57,-187.21"/>
</a>
</g>
</g>
<!-- Node4 -->
<g id="Node000004" class="node">
<title>Node4</title>
<g id="a_Node000004"><a xlink:title=" ">
<polygon fill="#e0e0e0" stroke="#999999" points="513,-19 455,-19 455,0 513,0 513,-19"/>
<text text-anchor="middle" x="484" y="-7" font-family="Helvetica,sans-Serif" font-size="10.00">memory</text>
</a>
</g>
</g>
<!-- Node3&#45;&gt;Node4 -->
<g id="edge3_Node000003_Node000004" class="edge">
<title>Node3&#45;&gt;Node4</title>
<g id="a_edge3_Node000003_Node000004"><a xlink:title=" ">
<path fill="none" stroke="#63b8ff" d="M438.08,-54.75C446.09,-47.03 457.96,-35.6 467.62,-26.28"/>
<polygon fill="#63b8ff" stroke="#63b8ff" points="470.31,-28.55 475.09,-19.09 465.46,-23.51 470.31,-28.55"/>
</a>
</g>
</g>
<!-- Node5 -->
<g id="Node000005" class="node">
<title>Node5</title>
<g id="a_Node000005"><a xlink:title=" ">
<polygon fill="#e0e0e0" stroke="#999999" points="436.5,-19 389.5,-19 389.5,0 436.5,0 436.5,-19"/>
<text text-anchor="middle" x="413" y="-7" font-family="Helvetica,sans-Serif" font-size="10.00">vector</text>
</a>
</g>
</g>
<!-- Node3&#45;&gt;Node5 -->
<g id="edge4_Node000003_Node000005" class="edge">
<title>Node3&#45;&gt;Node5</title>
<g id="a_edge4_Node000003_Node000005"><a xlink:title=" ">
<path fill="none" stroke="#63b8ff" d="M426.36,-54.75C424.24,-47.72 421.19,-37.62 418.54,-28.84"/>
<polygon fill="#63b8ff" stroke="#63b8ff" points="421.83,-27.65 415.59,-19.09 415.13,-29.67 421.83,-27.65"/>
</a>
</g>
</g>
<!-- Node6 -->
<g id="Node000006" class="node">
<title>Node6</title>
<g id="a_Node000006"><a xlink:title=" ">
<polygon fill="#e0e0e0" stroke="#999999" points="371,-19 323,-19 323,0 371,0 371,-19"/>
<text text-anchor="middle" x="347" y="-7" font-family="Helvetica,sans-Serif" font-size="10.00">iosfwd</text>
</a>
</g>
</g>
<!-- Node3&#45;&gt;Node6 -->
<g id="edge5_Node000003_Node000006" class="edge">
<title>Node3&#45;&gt;Node6</title>
<g id="a_edge5_Node000003_Node000006"><a xlink:title=" ">
<path fill="none" stroke="#63b8ff" d="M415.83,-54.98C403.23,-46.84 384,-34.41 369.06,-24.76"/>
<polygon fill="#63b8ff" stroke="#63b8ff" points="370.71,-21.66 360.41,-19.17 366.91,-27.54 370.71,-21.66"/>
</a>
</g>
</g>
<!-- Node3&#45;&gt;Node7 -->
<g id="edge6_Node000003_Node000007" class="edge">
<title>Node3&#45;&gt;Node7</title>
<g id="a_edge6_Node000003_Node000007"><a xlink:title=" ">
<path fill="none" stroke="#63b8ff" d="M399.6,-54.98C368.61,-46.01 319.62,-31.82 285.33,-21.89"/>
<polygon fill="#63b8ff" stroke="#63b8ff" points="286.21,-18.5 275.63,-19.08 284.26,-25.23 286.21,-18.5"/>
</a>
</g>
</g>
<!-- Node8&#45;&gt;Node3 -->
<g id="edge8_Node000008_Node000003" class="edge">
<title>Node8&#45;&gt;Node3</title>
<g id="a_edge8_Node000008_Node000003"><a xlink:title=" ">
<path fill="none" stroke="#63b8ff" d="M344.53,-164.66C359.9,-146.61 395.12,-105.28 414.88,-82.08"/>
<polygon fill="#63b8ff" stroke="#63b8ff" points="417.8,-84.04 421.62,-74.16 412.48,-79.5 417.8,-84.04"/>
</a>
</g>
</g>
<!-- Node8&#45;&gt;Node7 -->
<g id="edge9_Node000008_Node000007" class="edge">
<title>Node8&#45;&gt;Node7</title>
<g id="a_edge9_Node000008_Node000007"><a xlink:title=" ">
<path fill="none" stroke="#63b8ff" d="M316.19,-164.98C301.02,-157.68 281.22,-145.68 270,-129 249.47,-98.48 245.8,-54.21 245.53,-29.32"/>
<polygon fill="#63b8ff" stroke="#63b8ff" points="249.03,-29.11 245.6,-19.09 242.03,-29.06 249.03,-29.11"/>
</a>
</g>
</g>
<!-- Node8&#45;&gt;Node9 -->
<g id="edge10_Node000008_Node000009" class="edge">
<title>Node8&#45;&gt;Node9</title>
<g id="a_edge10_Node000008_Node000009"><a xlink:title=" ">
<path fill="none" stroke="#63b8ff" d="M313.54,-164.98C289.42,-156.23 251.63,-142.51 224.4,-132.62"/>
<polygon fill="#63b8ff" stroke="#63b8ff" points="225.48,-129.29 214.88,-129.17 223.09,-135.87 225.48,-129.29"/>
</a>
</g>
</g>
<!-- Node10 -->
<g id="Node000010" class="node">
<title>Node10</title>
<g id="a_Node000010"><a xlink:title=" ">
<polygon fill="#e0e0e0" stroke="#999999" points="218,-74 146,-74 146,-55 218,-55 218,-74"/>
<text text-anchor="middle" x="182" y="-62" font-family="Helvetica,sans-Serif" font-size="10.00">sys/types.h</text>
</a>
</g>
</g>
<!-- Node9&#45;&gt;Node10 -->
<g id="edge11_Node000009_Node000010" class="edge">
<title>Node9&#45;&gt;Node10</title>
<g id="a_edge11_Node000009_Node000010"><a xlink:title=" ">
<path fill="none" stroke="#63b8ff" d="M189.51,-109.75C188.33,-102.8 186.64,-92.85 185.16,-84.13"/>
<polygon fill="#63b8ff" stroke="#63b8ff" points="188.58,-83.36 183.46,-74.09 181.68,-84.53 188.58,-83.36"/>
</a>
</g>
</g>
<!-- Node11&#45;&gt;Node7 -->
<g id="edge15_Node000011_Node000007" class="edge">
<title>Node11&#45;&gt;Node7</title>
<g id="a_edge15_Node000011_Node000007"><a xlink:title=" ">
<path fill="none" stroke="#63b8ff" d="M510.05,-164.91C474.76,-148.67 396.92,-111.69 335,-74 310.01,-58.79 282.85,-38.87 265.19,-25.44"/>
<polygon fill="#63b8ff" stroke="#63b8ff" points="266.95,-22.37 256.88,-19.06 262.68,-27.92 266.95,-22.37"/>
</a>
</g>
</g>
<!-- Node12 -->
<g id="Node000012" class="node">
<title>Node12</title>
<g id="a_Node000012"><a xlink:href="tstring_8h.html" target="_top" xlink:title=" ">
<polygon fill="white" stroke="#666666" points="517.5,-129 460.5,-129 460.5,-110 517.5,-110 517.5,-129"/>
<text text-anchor="middle" x="489" y="-117" font-family="Helvetica,sans-Serif" font-size="10.00">tstring.h</text>
</a>
</g>
</g>
<!-- Node11&#45;&gt;Node12 -->
<g id="edge16_Node000011_Node000012" class="edge">
<title>Node11&#45;&gt;Node12</title>
<g id="a_edge16_Node000011_Node000012"><a xlink:title=" ">
<path fill="none" stroke="#63b8ff" d="M522.39,-164.75C516.74,-157.26 508.46,-146.28 501.55,-137.13"/>
<polygon fill="#63b8ff" stroke="#63b8ff" points="504.3,-134.96 495.48,-129.09 498.71,-139.18 504.3,-134.96"/>
</a>
</g>
</g>
<!-- Node14 -->
<g id="Node000014" class="node">
<title>Node14</title>
<g id="a_Node000014"><a xlink:href="tlist_8h.html" target="_top" xlink:title=" ">
<polygon fill="white" stroke="#666666" points="776,-74 732,-74 732,-55 776,-55 776,-74"/>
<text text-anchor="middle" x="754" y="-62" font-family="Helvetica,sans-Serif" font-size="10.00">tlist.h</text>
</a>
</g>
</g>
<!-- Node11&#45;&gt;Node14 -->
<g id="edge20_Node000011_Node000014" class="edge">
<title>Node11&#45;&gt;Node14</title>
<g id="a_edge20_Node000011_Node000014"><a xlink:title=" ">
<path fill="none" stroke="#63b8ff" d="M544.76,-164.95C568,-152.43 612.94,-128.58 652,-110 675.84,-98.66 703.29,-86.75 723.7,-78.11"/>
<polygon fill="#63b8ff" stroke="#63b8ff" points="725.26,-81.25 733.11,-74.14 722.54,-74.8 725.26,-81.25"/>
</a>
</g>
</g>
<!-- Node18 -->
<g id="Node000018" class="node">
<title>Node18</title>
<g id="a_Node000018"><a xlink:href="tvariant_8h.html" target="_top" xlink:title=" ">
<polygon fill="white" stroke="#666666" points="600,-129 536,-129 536,-110 600,-110 600,-129"/>
<text text-anchor="middle" x="568" y="-117" font-family="Helvetica,sans-Serif" font-size="10.00">tvariant.h</text>
</a>
</g>
</g>
<!-- Node11&#45;&gt;Node18 -->
<g id="edge25_Node000011_Node000018" class="edge">
<title>Node11&#45;&gt;Node18</title>
<g id="a_edge25_Node000011_Node000018"><a xlink:title=" ">
<path fill="none" stroke="#63b8ff" d="M535.44,-164.75C540.89,-157.34 548.86,-146.5 555.56,-137.41"/>
<polygon fill="#63b8ff" stroke="#63b8ff" points="558.57,-139.22 561.68,-129.09 552.93,-135.07 558.57,-139.22"/>
</a>
</g>
</g>
<!-- Node12&#45;&gt;Node3 -->
<g id="edge18_Node000012_Node000003" class="edge">
<title>Node12&#45;&gt;Node3</title>
<g id="a_edge18_Node000012_Node000003"><a xlink:title=" ">
<path fill="none" stroke="#63b8ff" d="M479.36,-109.98C470.49,-102.15 457.13,-90.34 446.39,-80.86"/>
<polygon fill="#63b8ff" stroke="#63b8ff" points="448.63,-78.17 438.82,-74.17 443.99,-83.41 448.63,-78.17"/>
</a>
</g>
</g>
<!-- Node12&#45;&gt;Node7 -->
<g id="edge19_Node000012_Node000007" class="edge">
<title>Node12&#45;&gt;Node7</title>
<g id="a_edge19_Node000012_Node000007"><a xlink:title=" ">
<path fill="none" stroke="#63b8ff" d="M466.5,-109.86C444.15,-101.17 408.98,-87.2 379,-74 341.46,-57.46 298.78,-36.74 272.12,-23.55"/>
<polygon fill="#63b8ff" stroke="#63b8ff" points="273.58,-20.37 263.06,-19.06 270.46,-26.64 273.58,-20.37"/>
</a>
</g>
</g>
<!-- Node13 -->
<g id="Node000013" class="node">
<title>Node13</title>
<g id="a_Node000013"><a xlink:title=" ">
<polygon fill="#e0e0e0" stroke="#999999" points="532,-74 488,-74 488,-55 532,-55 532,-74"/>
<text text-anchor="middle" x="510" y="-62" font-family="Helvetica,sans-Serif" font-size="10.00">string</text>
</a>
</g>
</g>
<!-- Node12&#45;&gt;Node13 -->
<g id="edge17_Node000012_Node000013" class="edge">
<title>Node12&#45;&gt;Node13</title>
<g id="a_edge17_Node000012_Node000013"><a xlink:title=" ">
<path fill="none" stroke="#63b8ff" d="M492.47,-109.75C495.28,-102.65 499.34,-92.4 502.85,-83.56"/>
<polygon fill="#63b8ff" stroke="#63b8ff" points="506.17,-84.68 506.6,-74.09 499.66,-82.1 506.17,-84.68"/>
</a>
</g>
</g>
<!-- Node14&#45;&gt;Node4 -->
<g id="edge23_Node000014_Node000004" class="edge">
<title>Node14&#45;&gt;Node4</title>
<g id="a_edge23_Node000014_Node000004"><a xlink:title=" ">
<path fill="none" stroke="#63b8ff" d="M731.71,-57.13C728.79,-56.37 725.83,-55.64 723,-55 637.59,-35.68 612.7,-36.8 523.08,-19.13"/>
<polygon fill="#63b8ff" stroke="#63b8ff" points="523.51,-15.65 513.02,-17.13 522.14,-22.52 523.51,-15.65"/>
</a>
</g>
</g>
<!-- Node15 -->
<g id="Node000015" class="node">
<title>Node15</title>
<g id="a_Node000015"><a xlink:title=" ">
<polygon fill="#e0e0e0" stroke="#999999" points="862,-19 830,-19 830,0 862,0 862,-19"/>
<text text-anchor="middle" x="846" y="-7" font-family="Helvetica,sans-Serif" font-size="10.00">list</text>
</a>
</g>
</g>
<!-- Node14&#45;&gt;Node15 -->
<g id="edge21_Node000014_Node000015" class="edge">
<title>Node14&#45;&gt;Node15</title>
<g id="a_edge21_Node000014_Node000015"><a xlink:title=" ">
<path fill="none" stroke="#63b8ff" d="M768.78,-54.98C783.18,-46.69 805.31,-33.94 822.19,-24.22"/>
<polygon fill="#63b8ff" stroke="#63b8ff" points="824.03,-27.19 830.95,-19.17 820.54,-21.13 824.03,-27.19"/>
</a>
</g>
</g>
<!-- Node16 -->
<g id="Node000016" class="node">
<title>Node16</title>
<g id="a_Node000016"><a xlink:title=" ">
<polygon fill="#e0e0e0" stroke="#999999" points="811.5,-19 728.5,-19 728.5,0 811.5,0 811.5,-19"/>
<text text-anchor="middle" x="770" y="-7" font-family="Helvetica,sans-Serif" font-size="10.00">initializer_list</text>
</a>
</g>
</g>
<!-- Node14&#45;&gt;Node16 -->
<g id="edge22_Node000014_Node000016" class="edge">
<title>Node14&#45;&gt;Node16</title>
<g id="a_edge22_Node000014_Node000016"><a xlink:title=" ">
<path fill="none" stroke="#63b8ff" d="M756.64,-54.75C758.76,-47.72 761.81,-37.62 764.46,-28.84"/>
<polygon fill="#63b8ff" stroke="#63b8ff" points="767.87,-29.67 767.41,-19.09 761.17,-27.65 767.87,-29.67"/>
</a>
</g>
</g>
<!-- Node17 -->
<g id="Node000017" class="node">
<title>Node17</title>
<g id="a_Node000017"><a xlink:title=" ">
<polygon fill="#e0e0e0" stroke="#999999" points="933.5,-19 880.5,-19 880.5,0 933.5,0 933.5,-19"/>
<text text-anchor="middle" x="907" y="-7" font-family="Helvetica,sans-Serif" font-size="10.00">tlist.tcc</text>
</a>
</g>
</g>
<!-- Node14&#45;&gt;Node17 -->
<g id="edge24_Node000014_Node000017" class="edge">
<title>Node14&#45;&gt;Node17</title>
<g id="a_edge24_Node000014_Node000017"><a xlink:title=" ">
<path fill="none" stroke="#63b8ff" d="M776.25,-55.79C801.64,-47 843.46,-32.51 872.96,-22.29"/>
<polygon fill="#63b8ff" stroke="#63b8ff" points="874.14,-25.59 882.45,-19.01 871.85,-18.97 874.14,-25.59"/>
</a>
</g>
</g>
<!-- Node18&#45;&gt;Node7 -->
<g id="edge34_Node000018_Node000007" class="edge">
<title>Node18&#45;&gt;Node7</title>
<g id="a_edge34_Node000018_Node000007"><a xlink:title=" ">
<path fill="none" stroke="#63b8ff" d="M567,-109.91C564.89,-95.98 558.61,-68.65 541,-55 531.6,-47.72 383.96,-27.99 301.19,-17.42"/>
<polygon fill="#63b8ff" stroke="#63b8ff" points="301.55,-13.94 291.19,-16.14 300.67,-20.88 301.55,-13.94"/>
</a>
</g>
</g>
<!-- Node18&#45;&gt;Node14 -->
<g id="edge27_Node000018_Node000014" class="edge">
<title>Node18&#45;&gt;Node14</title>
<g id="a_edge27_Node000018_Node000014"><a xlink:title=" ">
<path fill="none" stroke="#63b8ff" d="M597.88,-109.98C631.91,-100.29 687.26,-84.52 722.1,-74.59"/>
<polygon fill="#63b8ff" stroke="#63b8ff" points="723.12,-77.94 731.78,-71.83 721.2,-71.21 723.12,-77.94"/>
</a>
</g>
</g>
<!-- Node19 -->
<g id="Node000019" class="node">
<title>Node19</title>
<g id="a_Node000019"><a xlink:title=" ">
<polygon fill="#e0e0e0" stroke="#999999" points="644,-74 588,-74 588,-55 644,-55 644,-74"/>
<text text-anchor="middle" x="616" y="-62" font-family="Helvetica,sans-Serif" font-size="10.00">sstream</text>
</a>
</g>
</g>
<!-- Node18&#45;&gt;Node19 -->
<g id="edge26_Node000018_Node000019" class="edge">
<title>Node18&#45;&gt;Node19</title>
<g id="a_edge26_Node000018_Node000019"><a xlink:title=" ">
<path fill="none" stroke="#63b8ff" d="M575.93,-109.75C582.85,-102.11 593.07,-90.82 601.45,-81.56"/>
<polygon fill="#63b8ff" stroke="#63b8ff" points="604.1,-83.85 608.22,-74.09 598.91,-79.15 604.1,-83.85"/>
</a>
</g>
</g>
<!-- Node20 -->
<g id="Node000020" class="node">
<title>Node20</title>
<g id="a_Node000020"><a xlink:href="tmap_8h.html" target="_top" xlink:title=" ">
<polygon fill="white" stroke="#666666" points="713.5,-74 662.5,-74 662.5,-55 713.5,-55 713.5,-74"/>
<text text-anchor="middle" x="688" y="-62" font-family="Helvetica,sans-Serif" font-size="10.00">tmap.h</text>
</a>
</g>
</g>
<!-- Node18&#45;&gt;Node20 -->
<g id="edge28_Node000018_Node000020" class="edge">
<title>Node18&#45;&gt;Node20</title>
<g id="a_edge28_Node000018_Node000020"><a xlink:title=" ">
<path fill="none" stroke="#63b8ff" d="M587.28,-109.98C606.67,-101.42 636.81,-88.11 659.07,-78.28"/>
<polygon fill="#63b8ff" stroke="#63b8ff" points="660.64,-81.41 668.37,-74.17 657.81,-75.01 660.64,-81.41"/>
</a>
</g>
</g>
<!-- Node20&#45;&gt;Node4 -->
<g id="edge30_Node000020_Node000004" class="edge">
<title>Node20&#45;&gt;Node4</title>
<g id="a_edge30_Node000020_Node000004"><a xlink:title=" ">
<path fill="none" stroke="#63b8ff" d="M662.16,-56.79C627.08,-47.67 564.05,-31.3 523.14,-20.67"/>
<polygon fill="#63b8ff" stroke="#63b8ff" points="523.81,-17.23 513.25,-18.1 522.05,-24 523.81,-17.23"/>
</a>
</g>
</g>
<!-- Node20&#45;&gt;Node16 -->
<g id="edge31_Node000020_Node000016" class="edge">
<title>Node20&#45;&gt;Node16</title>
<g id="a_edge31_Node000020_Node000016"><a xlink:title=" ">
<path fill="none" stroke="#63b8ff" d="M701.17,-54.98C713.77,-46.84 733,-34.41 747.94,-24.76"/>
<polygon fill="#63b8ff" stroke="#63b8ff" points="750.09,-27.54 756.59,-19.17 746.29,-21.66 750.09,-27.54"/>
</a>
</g>
</g>
<!-- Node21 -->
<g id="Node000021" class="node">
<title>Node21</title>
<g id="a_Node000021"><a xlink:title=" ">
<polygon fill="#e0e0e0" stroke="#999999" points="647,-19 609,-19 609,0 647,0 647,-19"/>
<text text-anchor="middle" x="628" y="-7" font-family="Helvetica,sans-Serif" font-size="10.00">map</text>
</a>
</g>
</g>
<!-- Node20&#45;&gt;Node21 -->
<g id="edge29_Node000020_Node000021" class="edge">
<title>Node20&#45;&gt;Node21</title>
<g id="a_edge29_Node000020_Node000021"><a xlink:title=" ">
<path fill="none" stroke="#63b8ff" d="M678.36,-54.98C669.49,-47.15 656.13,-35.34 645.39,-25.86"/>
<polygon fill="#63b8ff" stroke="#63b8ff" points="647.63,-23.17 637.82,-19.17 642.99,-28.41 647.63,-23.17"/>
</a>
</g>
</g>
<!-- Node22 -->
<g id="Node000022" class="node">
<title>Node22</title>
<g id="a_Node000022"><a xlink:title=" ">
<polygon fill="#e0e0e0" stroke="#999999" points="710.5,-19 665.5,-19 665.5,0 710.5,0 710.5,-19"/>
<text text-anchor="middle" x="688" y="-7" font-family="Helvetica,sans-Serif" font-size="10.00">utility</text>
</a>
</g>
</g>
<!-- Node20&#45;&gt;Node22 -->
<g id="edge32_Node000020_Node000022" class="edge">
<title>Node20&#45;&gt;Node22</title>
<g id="a_edge32_Node000020_Node000022"><a xlink:title=" ">
<path fill="none" stroke="#63b8ff" d="M688,-54.75C688,-47.8 688,-37.85 688,-29.13"/>
<polygon fill="#63b8ff" stroke="#63b8ff" points="691.5,-29.09 688,-19.09 684.5,-29.09 691.5,-29.09"/>
</a>
</g>
</g>
<!-- Node23 -->
<g id="Node000023" class="node">
<title>Node23</title>
<g id="a_Node000023"><a xlink:title=" ">
<polygon fill="#e0e0e0" stroke="#999999" points="590.5,-19 531.5,-19 531.5,0 590.5,0 590.5,-19"/>
<text text-anchor="middle" x="561" y="-7" font-family="Helvetica,sans-Serif" font-size="10.00">tmap.tcc</text>
</a>
</g>
</g>
<!-- Node20&#45;&gt;Node23 -->
<g id="edge33_Node000020_Node000023" class="edge">
<title>Node20&#45;&gt;Node23</title>
<g id="a_edge33_Node000020_Node000023"><a xlink:title=" ">
<path fill="none" stroke="#63b8ff" d="M667.6,-54.98C646.98,-46.38 614.89,-32.99 591.31,-23.15"/>
<polygon fill="#63b8ff" stroke="#63b8ff" points="592.35,-19.79 581.78,-19.17 589.66,-26.25 592.35,-19.79"/>
</a>
</g>
</g>
<!-- Node24&#45;&gt;Node4 -->
<g id="edge37_Node000024_Node000004" class="edge">
<title>Node24&#45;&gt;Node4</title>
<g id="a_edge37_Node000024_Node000004"><a xlink:title=" ">
<path fill="none" stroke="#63b8ff" d="M139.3,-164.87C161.45,-156.19 196.31,-142.22 226,-129 295,-98.27 310.2,-86.19 379,-55 403.91,-43.71 432.5,-31.65 453.56,-22.93"/>
<polygon fill="#63b8ff" stroke="#63b8ff" points="455.04,-26.11 462.95,-19.06 452.37,-19.64 455.04,-26.11"/>
</a>
</g>
</g>
<!-- Node24&#45;&gt;Node7 -->
<g id="edge39_Node000024_Node000007" class="edge">
<title>Node24&#45;&gt;Node7</title>
<g id="a_edge39_Node000024_Node000007"><a xlink:title=" ">
<path fill="none" stroke="#63b8ff" d="M112.36,-164.72C101.88,-143.53 79.13,-88.86 104,-55 123.79,-28.06 159.84,-16.99 190.67,-12.62"/>
<polygon fill="#63b8ff" stroke="#63b8ff" points="191.38,-16.06 200.89,-11.38 190.54,-9.11 191.38,-16.06"/>
</a>
</g>
</g>
<!-- Node24&#45;&gt;Node9 -->
<g id="edge38_Node000024_Node000009" class="edge">
<title>Node24&#45;&gt;Node9</title>
<g id="a_edge38_Node000024_Node000009"><a xlink:title=" ">
<path fill="none" stroke="#63b8ff" d="M128.89,-164.98C140.15,-156.92 157.29,-144.65 170.71,-135.03"/>
<polygon fill="#63b8ff" stroke="#63b8ff" points="172.8,-137.84 178.89,-129.17 168.73,-132.15 172.8,-137.84"/>
</a>
</g>
</g>
<!-- Node25&#45;&gt;Node2 -->
<g id="edge42_Node000025_Node000002" class="edge">
<title>Node25&#45;&gt;Node2</title>
<g id="a_edge42_Node000025_Node000002"><a xlink:title=" ">
<path fill="none" stroke="#63b8ff" d="M276.41,-274.98C287.11,-267 303.34,-254.88 316.16,-245.31"/>
<polygon fill="#63b8ff" stroke="#63b8ff" points="318.47,-247.96 324.39,-239.17 314.28,-242.35 318.47,-247.96"/>
</a>
</g>
</g>
<!-- Node25&#45;&gt;Node7 -->
<g id="edge44_Node000025_Node000007" class="edge">
<title>Node25&#45;&gt;Node7</title>
<g id="a_edge44_Node000025_Node000007"><a xlink:title=" ">
<path fill="none" stroke="#63b8ff" d="M231.02,-274.88C167.69,-257.82 38,-217.72 38,-175.5 38,-175.5 38,-175.5 38,-118.5 38,-49.51 129.25,-24.53 190.87,-15.53"/>
<polygon fill="#63b8ff" stroke="#63b8ff" points="191.43,-18.98 200.87,-14.17 190.49,-12.05 191.43,-18.98"/>
</a>
</g>
</g>
<!-- Node25&#45;&gt;Node9 -->
<g id="edge41_Node000025_Node000009" class="edge">
<title>Node25&#45;&gt;Node9</title>
<g id="a_edge41_Node000025_Node000009"><a xlink:title=" ">
<path fill="none" stroke="#63b8ff" d="M261.02,-274.74C249.38,-249.09 215.19,-173.78 199.3,-138.78"/>
<polygon fill="#63b8ff" stroke="#63b8ff" points="202.32,-136.97 195,-129.31 195.95,-139.86 202.32,-136.97"/>
</a>
</g>
</g>
<!-- Node25&#45;&gt;Node14 -->
<g id="edge43_Node000025_Node000014" class="edge">
<title>Node25&#45;&gt;Node14</title>
<g id="a_edge43_Node000025_Node000014"><a xlink:title=" ">
<path fill="none" stroke="#63b8ff" d="M297.66,-274.99C352.89,-260.04 467.67,-226.57 559,-184 625.91,-152.81 698.73,-104.24 733.41,-80.12"/>
<polygon fill="#63b8ff" stroke="#63b8ff" points="735.58,-82.87 741.76,-74.27 731.56,-77.14 735.58,-82.87"/>
</a>
</g>
</g>
<!-- Node26&#45;&gt;Node11 -->
<g id="edge46_Node000026_Node000011" class="edge">
<title>Node26&#45;&gt;Node11</title>
<g id="a_edge46_Node000026_Node000011"><a xlink:title=" ">
<path fill="none" stroke="#63b8ff" d="M550.12,-274.66C546.38,-257.09 537.93,-217.45 532.93,-193.95"/>
<polygon fill="#63b8ff" stroke="#63b8ff" points="536.35,-193.21 530.84,-184.16 529.5,-194.67 536.35,-193.21"/>
</a>
</g>
</g>
<!-- Node27&#45;&gt;Node24 -->
<g id="edge48_Node000027_Node000024" class="edge">
<title>Node27&#45;&gt;Node24</title>
<g id="a_edge48_Node000027_Node000024"><a xlink:title=" ">
<path fill="none" stroke="#63b8ff" d="M151.89,-274.66C145.68,-257.01 131.63,-217.09 123.38,-193.64"/>
<polygon fill="#63b8ff" stroke="#63b8ff" points="126.67,-192.43 120.05,-184.16 120.06,-194.75 126.67,-192.43"/>
</a>
</g>
</g>
</g>
</svg>
