<?xml version="1.0" encoding="UTF-8" standalone="no"?>
<!DOCTYPE svg PUBLIC "-//W3C//DTD SVG 1.1//EN"
 "http://www.w3.org/Graphics/SVG/1.1/DTD/svg11.dtd">
<!-- Generated by graphviz version 2.43.0 (0)
 -->
<!-- Title: modfile.h Pages: 1 -->
<svg width="1020pt" height="364pt"
 viewBox="0.00 0.00 1019.50 364.00" xmlns="http://www.w3.org/2000/svg" xmlns:xlink="http://www.w3.org/1999/xlink">
<g id="graph0" class="graph" transform="scale(1 1) rotate(0) translate(4 360)">
<title>modfile.h</title>
<polygon fill="white" stroke="transparent" points="-4,4 -4,-360 1015.5,-360 1015.5,4 -4,4"/>
<!-- Node1 -->
<g id="node1" class="node">
<title>Node1</title>
<g id="a_node1"><a xlink:title=" ">
<polygon fill="#bfbfbf" stroke="black" points="678.5,-336.5 678.5,-355.5 740.5,-355.5 740.5,-336.5 678.5,-336.5"/>
<text text-anchor="middle" x="709.5" y="-343.5" font-family="Helvetica,sans-Serif" font-size="10.00">modfile.h</text>
</a>
</g>
</g>
<!-- Node2 -->
<g id="node2" class="node">
<title>Node2</title>
<g id="a_node2"><a xlink:href="tfile_8h.html" target="_top" xlink:title=" ">
<polygon fill="white" stroke="black" points="690.5,-224.5 690.5,-243.5 734.5,-243.5 734.5,-224.5 690.5,-224.5"/>
<text text-anchor="middle" x="712.5" y="-231.5" font-family="Helvetica,sans-Serif" font-size="10.00">tfile.h</text>
</a>
</g>
</g>
<!-- Node1&#45;&gt;Node2 -->
<g id="edge1" class="edge">
<title>Node1&#45;&gt;Node2</title>
<path fill="none" stroke="midnightblue" d="M704.81,-336.22C698.73,-323.78 689.4,-300.28 693.5,-280 695.39,-270.65 699.29,-260.83 703.07,-252.75"/>
<polygon fill="midnightblue" stroke="midnightblue" points="706.29,-254.14 707.62,-243.63 700.03,-251.01 706.29,-254.14"/>
</g>
<!-- Node7 -->
<g id="node7" class="node">
<title>Node7</title>
<g id="a_node7"><a xlink:href="taglib__export_8h.html" target="_top" xlink:title=" ">
<polygon fill="white" stroke="black" points="675.5,-0.5 675.5,-19.5 765.5,-19.5 765.5,-0.5 675.5,-0.5"/>
<text text-anchor="middle" x="720.5" y="-7.5" font-family="Helvetica,sans-Serif" font-size="10.00">taglib_export.h</text>
</a>
</g>
</g>
<!-- Node1&#45;&gt;Node7 -->
<g id="edge35" class="edge">
<title>Node1&#45;&gt;Node7</title>
<path fill="none" stroke="midnightblue" d="M704.36,-336.34C699.33,-327.5 691.82,-313.23 687.5,-300 669.08,-243.6 657.88,-226.55 667.5,-168 676.06,-115.89 699.59,-57.8 712.22,-29.09"/>
<polygon fill="midnightblue" stroke="midnightblue" points="715.58,-30.15 716.48,-19.6 709.19,-27.29 715.58,-30.15"/>
</g>
<!-- Node23 -->
<g id="node23" class="node">
<title>Node23</title>
<g id="a_node23"><a xlink:href="audioproperties_8h.html" target="_top" xlink:title=" ">
<polygon fill="white" stroke="black" points="881.5,-168.5 881.5,-187.5 983.5,-187.5 983.5,-168.5 881.5,-168.5"/>
<text text-anchor="middle" x="932.5" y="-175.5" font-family="Helvetica,sans-Serif" font-size="10.00">audioproperties.h</text>
</a>
</g>
</g>
<!-- Node1&#45;&gt;Node23 -->
<g id="edge36" class="edge">
<title>Node1&#45;&gt;Node23</title>
<path fill="none" stroke="midnightblue" d="M740.91,-342.34C792.13,-337.33 890.27,-324.7 913.5,-300 939.51,-272.34 938.48,-224.39 935.48,-197.92"/>
<polygon fill="midnightblue" stroke="midnightblue" points="938.9,-197.15 934.09,-187.71 931.97,-198.09 938.9,-197.15"/>
</g>
<!-- Node24 -->
<g id="node24" class="node">
<title>Node24</title>
<g id="a_node24"><a xlink:href="modfilebase_8h.html" target="_top" xlink:title=" ">
<polygon fill="white" stroke="black" points="702.5,-280.5 702.5,-299.5 788.5,-299.5 788.5,-280.5 702.5,-280.5"/>
<text text-anchor="middle" x="745.5" y="-287.5" font-family="Helvetica,sans-Serif" font-size="10.00">modfilebase.h</text>
</a>
</g>
</g>
<!-- Node1&#45;&gt;Node24 -->
<g id="edge40" class="edge">
<title>Node1&#45;&gt;Node24</title>
<path fill="none" stroke="midnightblue" d="M715.44,-336.08C720.48,-328.53 727.84,-317.49 734.01,-308.23"/>
<polygon fill="midnightblue" stroke="midnightblue" points="737.03,-310.01 739.67,-299.75 731.21,-306.13 737.03,-310.01"/>
</g>
<!-- Node25 -->
<g id="node25" class="node">
<title>Node25</title>
<g id="a_node25"><a xlink:href="modtag_8h.html" target="_top" xlink:title=" ">
<polygon fill="white" stroke="black" points="518,-280.5 518,-299.5 581,-299.5 581,-280.5 518,-280.5"/>
<text text-anchor="middle" x="549.5" y="-287.5" font-family="Helvetica,sans-Serif" font-size="10.00">modtag.h</text>
</a>
</g>
</g>
<!-- Node1&#45;&gt;Node25 -->
<g id="edge45" class="edge">
<title>Node1&#45;&gt;Node25</title>
<path fill="none" stroke="midnightblue" d="M684.15,-336.44C657.23,-327.36 614.5,-312.94 584.41,-302.78"/>
<polygon fill="midnightblue" stroke="midnightblue" points="585.33,-299.4 574.73,-299.52 583.09,-306.03 585.33,-299.4"/>
</g>
<!-- Node26 -->
<g id="node26" class="node">
<title>Node26</title>
<g id="a_node26"><a xlink:href="modproperties_8h.html" target="_top" xlink:title=" ">
<polygon fill="white" stroke="black" points="807,-280.5 807,-299.5 904,-299.5 904,-280.5 807,-280.5"/>
<text text-anchor="middle" x="855.5" y="-287.5" font-family="Helvetica,sans-Serif" font-size="10.00">modproperties.h</text>
</a>
</g>
</g>
<!-- Node1&#45;&gt;Node26 -->
<g id="edge47" class="edge">
<title>Node1&#45;&gt;Node26</title>
<path fill="none" stroke="midnightblue" d="M732.63,-336.44C756.98,-327.44 795.51,-313.19 822.92,-303.05"/>
<polygon fill="midnightblue" stroke="midnightblue" points="824.31,-306.27 832.47,-299.52 821.88,-299.7 824.31,-306.27"/>
</g>
<!-- Node3 -->
<g id="node3" class="node">
<title>Node3</title>
<g id="a_node3"><a xlink:href="tbytevector_8h.html" target="_top" xlink:title=" ">
<polygon fill="white" stroke="black" points="535,-56.5 535,-75.5 616,-75.5 616,-56.5 535,-56.5"/>
<text text-anchor="middle" x="575.5" y="-63.5" font-family="Helvetica,sans-Serif" font-size="10.00">tbytevector.h</text>
</a>
</g>
</g>
<!-- Node2&#45;&gt;Node3 -->
<g id="edge2" class="edge">
<title>Node2&#45;&gt;Node3</title>
<path fill="none" stroke="midnightblue" d="M703.17,-224.38C693.8,-215.57 679.13,-201.32 667.5,-188 636.55,-152.55 604.08,-107.77 587.22,-83.87"/>
<polygon fill="midnightblue" stroke="midnightblue" points="589.98,-81.7 581.37,-75.52 584.24,-85.72 589.98,-81.7"/>
</g>
<!-- Node2&#45;&gt;Node7 -->
<g id="edge12" class="edge">
<title>Node2&#45;&gt;Node7</title>
<path fill="none" stroke="midnightblue" d="M731.02,-224.41C782.18,-199.53 918.39,-124.8 867.5,-56 846.59,-27.73 808.27,-16.64 776,-12.53"/>
<polygon fill="midnightblue" stroke="midnightblue" points="776.08,-9.02 765.76,-11.43 775.33,-15.98 776.08,-9.02"/>
</g>
<!-- Node8 -->
<g id="node8" class="node">
<title>Node8</title>
<g id="a_node8"><a xlink:href="tiostream_8h.html" target="_top" xlink:title=" ">
<polygon fill="white" stroke="black" points="676,-168.5 676,-187.5 749,-187.5 749,-168.5 676,-168.5"/>
<text text-anchor="middle" x="712.5" y="-175.5" font-family="Helvetica,sans-Serif" font-size="10.00">tiostream.h</text>
</a>
</g>
</g>
<!-- Node2&#45;&gt;Node8 -->
<g id="edge7" class="edge">
<title>Node2&#45;&gt;Node8</title>
<path fill="none" stroke="midnightblue" d="M712.5,-224.08C712.5,-217.01 712.5,-206.86 712.5,-197.99"/>
<polygon fill="midnightblue" stroke="midnightblue" points="716,-197.75 712.5,-187.75 709,-197.75 716,-197.75"/>
</g>
<!-- Node9 -->
<g id="node9" class="node">
<title>Node9</title>
<g id="a_node9"><a xlink:href="taglib_8h.html" target="_top" xlink:title=" ">
<polygon fill="white" stroke="black" points="789,-112.5 789,-131.5 842,-131.5 842,-112.5 789,-112.5"/>
<text text-anchor="middle" x="815.5" y="-119.5" font-family="Helvetica,sans-Serif" font-size="10.00">taglib.h</text>
</a>
</g>
</g>
<!-- Node2&#45;&gt;Node9 -->
<g id="edge13" class="edge">
<title>Node2&#45;&gt;Node9</title>
<path fill="none" stroke="midnightblue" d="M721.87,-224.24C731.31,-215.31 746.21,-200.98 758.5,-188 773.74,-171.91 790.36,-152.76 801.7,-139.43"/>
<polygon fill="midnightblue" stroke="midnightblue" points="804.54,-141.49 808.32,-131.6 799.19,-136.97 804.54,-141.49"/>
</g>
<!-- Node11 -->
<g id="node11" class="node">
<title>Node11</title>
<g id="a_node11"><a xlink:href="tag_8h.html" target="_top" xlink:title=" ">
<polygon fill="white" stroke="black" points="529,-168.5 529,-187.5 570,-187.5 570,-168.5 529,-168.5"/>
<text text-anchor="middle" x="549.5" y="-175.5" font-family="Helvetica,sans-Serif" font-size="10.00">tag.h</text>
</a>
</g>
</g>
<!-- Node2&#45;&gt;Node11 -->
<g id="edge14" class="edge">
<title>Node2&#45;&gt;Node11</title>
<path fill="none" stroke="midnightblue" d="M690.18,-225.6C661.54,-216.12 611.75,-199.62 579.73,-189.02"/>
<polygon fill="midnightblue" stroke="midnightblue" points="580.61,-185.62 570.01,-185.8 578.4,-192.26 580.61,-185.62"/>
</g>
<!-- Node4 -->
<g id="node4" class="node">
<title>Node4</title>
<g id="a_node4"><a xlink:title=" ">
<polygon fill="white" stroke="#bfbfbf" points="420.5,-0.5 420.5,-19.5 478.5,-19.5 478.5,-0.5 420.5,-0.5"/>
<text text-anchor="middle" x="449.5" y="-7.5" font-family="Helvetica,sans-Serif" font-size="10.00">memory</text>
</a>
</g>
</g>
<!-- Node3&#45;&gt;Node4 -->
<g id="edge3" class="edge">
<title>Node3&#45;&gt;Node4</title>
<path fill="none" stroke="midnightblue" d="M555.53,-56.44C534.89,-47.6 502.44,-33.69 478.87,-23.59"/>
<polygon fill="midnightblue" stroke="midnightblue" points="479.94,-20.24 469.37,-19.52 477.18,-26.67 479.94,-20.24"/>
</g>
<!-- Node5 -->
<g id="node5" class="node">
<title>Node5</title>
<g id="a_node5"><a xlink:title=" ">
<polygon fill="white" stroke="#bfbfbf" points="563,-0.5 563,-19.5 610,-19.5 610,-0.5 563,-0.5"/>
<text text-anchor="middle" x="586.5" y="-7.5" font-family="Helvetica,sans-Serif" font-size="10.00">vector</text>
</a>
</g>
</g>
<!-- Node3&#45;&gt;Node5 -->
<g id="edge4" class="edge">
<title>Node3&#45;&gt;Node5</title>
<path fill="none" stroke="midnightblue" d="M577.32,-56.08C578.77,-48.93 580.87,-38.64 582.69,-29.69"/>
<polygon fill="midnightblue" stroke="midnightblue" points="586.15,-30.25 584.72,-19.75 579.29,-28.85 586.15,-30.25"/>
</g>
<!-- Node6 -->
<g id="node6" class="node">
<title>Node6</title>
<g id="a_node6"><a xlink:title=" ">
<polygon fill="white" stroke="#bfbfbf" points="496.5,-0.5 496.5,-19.5 544.5,-19.5 544.5,-0.5 496.5,-0.5"/>
<text text-anchor="middle" x="520.5" y="-7.5" font-family="Helvetica,sans-Serif" font-size="10.00">iosfwd</text>
</a>
</g>
</g>
<!-- Node3&#45;&gt;Node6 -->
<g id="edge5" class="edge">
<title>Node3&#45;&gt;Node6</title>
<path fill="none" stroke="midnightblue" d="M566.42,-56.08C558.33,-48.14 546.3,-36.34 536.59,-26.8"/>
<polygon fill="midnightblue" stroke="midnightblue" points="539,-24.26 529.41,-19.75 534.1,-29.25 539,-24.26"/>
</g>
<!-- Node3&#45;&gt;Node7 -->
<g id="edge6" class="edge">
<title>Node3&#45;&gt;Node7</title>
<path fill="none" stroke="midnightblue" d="M598.48,-56.44C622.66,-47.44 660.92,-33.19 688.15,-23.05"/>
<polygon fill="midnightblue" stroke="midnightblue" points="689.48,-26.29 697.63,-19.52 687.04,-19.73 689.48,-26.29"/>
</g>
<!-- Node8&#45;&gt;Node3 -->
<g id="edge8" class="edge">
<title>Node8&#45;&gt;Node3</title>
<path fill="none" stroke="midnightblue" d="M701.75,-168.37C678.54,-149.73 623.49,-105.53 594.35,-82.13"/>
<polygon fill="midnightblue" stroke="midnightblue" points="596.19,-79.12 586.2,-75.59 591.81,-84.58 596.19,-79.12"/>
</g>
<!-- Node8&#45;&gt;Node7 -->
<g id="edge9" class="edge">
<title>Node8&#45;&gt;Node7</title>
<path fill="none" stroke="midnightblue" d="M718.14,-168.48C723.55,-159.74 731.36,-145.56 734.5,-132 742.11,-99.09 739.57,-89.39 734.5,-56 733.13,-47 730.31,-37.33 727.55,-29.26"/>
<polygon fill="midnightblue" stroke="midnightblue" points="730.81,-27.98 724.1,-19.78 724.23,-30.37 730.81,-27.98"/>
</g>
<!-- Node8&#45;&gt;Node9 -->
<g id="edge10" class="edge">
<title>Node8&#45;&gt;Node9</title>
<path fill="none" stroke="midnightblue" d="M729.05,-168.32C745.49,-159.7 770.93,-146.36 789.97,-136.39"/>
<polygon fill="midnightblue" stroke="midnightblue" points="791.76,-139.4 798.99,-131.65 788.51,-133.2 791.76,-139.4"/>
</g>
<!-- Node10 -->
<g id="node10" class="node">
<title>Node10</title>
<g id="a_node10"><a xlink:title=" ">
<polygon fill="white" stroke="#bfbfbf" points="786.5,-56.5 786.5,-75.5 858.5,-75.5 858.5,-56.5 786.5,-56.5"/>
<text text-anchor="middle" x="822.5" y="-63.5" font-family="Helvetica,sans-Serif" font-size="10.00">sys/types.h</text>
</a>
</g>
</g>
<!-- Node9&#45;&gt;Node10 -->
<g id="edge11" class="edge">
<title>Node9&#45;&gt;Node10</title>
<path fill="none" stroke="midnightblue" d="M816.66,-112.08C817.58,-104.93 818.92,-94.64 820.08,-85.69"/>
<polygon fill="midnightblue" stroke="midnightblue" points="823.55,-86.12 821.37,-75.75 816.61,-85.22 823.55,-86.12"/>
</g>
<!-- Node11&#45;&gt;Node7 -->
<g id="edge15" class="edge">
<title>Node11&#45;&gt;Node7</title>
<path fill="none" stroke="midnightblue" d="M558.69,-168.08C586.31,-141.27 668.8,-61.19 704.14,-26.89"/>
<polygon fill="midnightblue" stroke="midnightblue" points="706.94,-29.04 711.67,-19.57 702.06,-24.02 706.94,-29.04"/>
</g>
<!-- Node12 -->
<g id="node12" class="node">
<title>Node12</title>
<g id="a_node12"><a xlink:href="tstring_8h.html" target="_top" xlink:title=" ">
<polygon fill="white" stroke="black" points="521,-112.5 521,-131.5 578,-131.5 578,-112.5 521,-112.5"/>
<text text-anchor="middle" x="549.5" y="-119.5" font-family="Helvetica,sans-Serif" font-size="10.00">tstring.h</text>
</a>
</g>
</g>
<!-- Node11&#45;&gt;Node12 -->
<g id="edge16" class="edge">
<title>Node11&#45;&gt;Node12</title>
<path fill="none" stroke="midnightblue" d="M549.5,-168.08C549.5,-161.01 549.5,-150.86 549.5,-141.99"/>
<polygon fill="midnightblue" stroke="midnightblue" points="553,-141.75 549.5,-131.75 546,-141.75 553,-141.75"/>
</g>
<!-- Node14 -->
<g id="node14" class="node">
<title>Node14</title>
<g id="a_node14"><a xlink:href="tlist_8h.html" target="_top" xlink:title=" ">
<polygon fill="white" stroke="black" points="296.5,-56.5 296.5,-75.5 340.5,-75.5 340.5,-56.5 296.5,-56.5"/>
<text text-anchor="middle" x="318.5" y="-63.5" font-family="Helvetica,sans-Serif" font-size="10.00">tlist.h</text>
</a>
</g>
</g>
<!-- Node11&#45;&gt;Node14 -->
<g id="edge20" class="edge">
<title>Node11&#45;&gt;Node14</title>
<path fill="none" stroke="midnightblue" d="M528.93,-174.98C482.49,-170.04 371.42,-155.96 343.5,-132 329.9,-120.33 323.67,-100.38 320.83,-85.66"/>
<polygon fill="midnightblue" stroke="midnightblue" points="324.27,-84.97 319.26,-75.64 317.35,-86.06 324.27,-84.97"/>
</g>
<!-- Node18 -->
<g id="node18" class="node">
<title>Node18</title>
<g id="a_node18"><a xlink:href="tvariant_8h.html" target="_top" xlink:title=" ">
<polygon fill="white" stroke="black" points="352.5,-112.5 352.5,-131.5 416.5,-131.5 416.5,-112.5 352.5,-112.5"/>
<text text-anchor="middle" x="384.5" y="-119.5" font-family="Helvetica,sans-Serif" font-size="10.00">tvariant.h</text>
</a>
</g>
</g>
<!-- Node11&#45;&gt;Node18 -->
<g id="edge25" class="edge">
<title>Node11&#45;&gt;Node18</title>
<path fill="none" stroke="midnightblue" d="M528.94,-170.27C501.77,-161.38 453.49,-145.58 420.28,-134.71"/>
<polygon fill="midnightblue" stroke="midnightblue" points="421.09,-131.29 410.49,-131.51 418.91,-137.94 421.09,-131.29"/>
</g>
<!-- Node12&#45;&gt;Node3 -->
<g id="edge18" class="edge">
<title>Node12&#45;&gt;Node3</title>
<path fill="none" stroke="midnightblue" d="M553.79,-112.08C557.35,-104.69 562.52,-93.95 566.92,-84.81"/>
<polygon fill="midnightblue" stroke="midnightblue" points="570.1,-86.28 571.29,-75.75 563.79,-83.24 570.1,-86.28"/>
</g>
<!-- Node12&#45;&gt;Node7 -->
<g id="edge19" class="edge">
<title>Node12&#45;&gt;Node7</title>
<path fill="none" stroke="midnightblue" d="M564.53,-112.49C579.99,-103.64 604.68,-89.27 625.5,-76 651.69,-59.31 681.09,-38.93 700.15,-25.49"/>
<polygon fill="midnightblue" stroke="midnightblue" points="702.23,-28.31 708.37,-19.67 698.19,-22.59 702.23,-28.31"/>
</g>
<!-- Node13 -->
<g id="node13" class="node">
<title>Node13</title>
<g id="a_node13"><a xlink:title=" ">
<polygon fill="white" stroke="#bfbfbf" points="472.5,-56.5 472.5,-75.5 516.5,-75.5 516.5,-56.5 472.5,-56.5"/>
<text text-anchor="middle" x="494.5" y="-63.5" font-family="Helvetica,sans-Serif" font-size="10.00">string</text>
</a>
</g>
</g>
<!-- Node12&#45;&gt;Node13 -->
<g id="edge17" class="edge">
<title>Node12&#45;&gt;Node13</title>
<path fill="none" stroke="midnightblue" d="M540.42,-112.08C532.33,-104.14 520.3,-92.34 510.59,-82.8"/>
<polygon fill="midnightblue" stroke="midnightblue" points="513,-80.26 503.41,-75.75 508.1,-85.25 513,-80.26"/>
</g>
<!-- Node14&#45;&gt;Node4 -->
<g id="edge23" class="edge">
<title>Node14&#45;&gt;Node4</title>
<path fill="none" stroke="midnightblue" d="M339.26,-56.44C360.82,-47.56 394.76,-33.56 419.29,-23.45"/>
<polygon fill="midnightblue" stroke="midnightblue" points="420.93,-26.56 428.84,-19.52 418.26,-20.09 420.93,-26.56"/>
</g>
<!-- Node15 -->
<g id="node15" class="node">
<title>Node15</title>
<g id="a_node15"><a xlink:title=" ">
<polygon fill="white" stroke="#bfbfbf" points="298.5,-0.5 298.5,-19.5 330.5,-19.5 330.5,-0.5 298.5,-0.5"/>
<text text-anchor="middle" x="314.5" y="-7.5" font-family="Helvetica,sans-Serif" font-size="10.00">list</text>
</a>
</g>
</g>
<!-- Node14&#45;&gt;Node15 -->
<g id="edge21" class="edge">
<title>Node14&#45;&gt;Node15</title>
<path fill="none" stroke="midnightblue" d="M317.84,-56.08C317.32,-49.01 316.56,-38.86 315.91,-29.99"/>
<polygon fill="midnightblue" stroke="midnightblue" points="319.38,-29.47 315.15,-19.75 312.4,-29.98 319.38,-29.47"/>
</g>
<!-- Node16 -->
<g id="node16" class="node">
<title>Node16</title>
<g id="a_node16"><a xlink:title=" ">
<polygon fill="white" stroke="#bfbfbf" points="197,-0.5 197,-19.5 280,-19.5 280,-0.5 197,-0.5"/>
<text text-anchor="middle" x="238.5" y="-7.5" font-family="Helvetica,sans-Serif" font-size="10.00">initializer_list</text>
</a>
</g>
</g>
<!-- Node14&#45;&gt;Node16 -->
<g id="edge22" class="edge">
<title>Node14&#45;&gt;Node16</title>
<path fill="none" stroke="midnightblue" d="M305.65,-56.32C293.28,-47.98 274.37,-35.21 259.76,-25.35"/>
<polygon fill="midnightblue" stroke="midnightblue" points="261.57,-22.35 251.32,-19.65 257.65,-28.15 261.57,-22.35"/>
</g>
<!-- Node17 -->
<g id="node17" class="node">
<title>Node17</title>
<g id="a_node17"><a xlink:title=" ">
<polygon fill="white" stroke="#bfbfbf" points="349,-0.5 349,-19.5 402,-19.5 402,-0.5 349,-0.5"/>
<text text-anchor="middle" x="375.5" y="-7.5" font-family="Helvetica,sans-Serif" font-size="10.00">tlist.tcc</text>
</a>
</g>
</g>
<!-- Node14&#45;&gt;Node17 -->
<g id="edge24" class="edge">
<title>Node14&#45;&gt;Node17</title>
<path fill="none" stroke="midnightblue" d="M327.66,-56.32C336,-48.42 348.53,-36.55 358.68,-26.94"/>
<polygon fill="midnightblue" stroke="midnightblue" points="361.32,-29.25 366.18,-19.83 356.51,-24.17 361.32,-29.25"/>
</g>
<!-- Node18&#45;&gt;Node6 -->
<g id="edge26" class="edge">
<title>Node18&#45;&gt;Node6</title>
<path fill="none" stroke="midnightblue" d="M382.93,-112.34C380.99,-98.75 379.38,-72.3 392.5,-56 398.64,-48.37 450.85,-31.65 486.67,-20.88"/>
<polygon fill="midnightblue" stroke="midnightblue" points="487.7,-24.23 496.28,-18.01 485.7,-17.52 487.7,-24.23"/>
</g>
<!-- Node18&#45;&gt;Node7 -->
<g id="edge34" class="edge">
<title>Node18&#45;&gt;Node7</title>
<path fill="none" stroke="midnightblue" d="M392.26,-112.17C405.38,-97.86 433.48,-69.8 463.5,-56 498.56,-39.88 600.8,-25.28 665.26,-17.32"/>
<polygon fill="midnightblue" stroke="midnightblue" points="665.76,-20.79 675.26,-16.1 664.91,-13.84 665.76,-20.79"/>
</g>
<!-- Node18&#45;&gt;Node14 -->
<g id="edge27" class="edge">
<title>Node18&#45;&gt;Node14</title>
<path fill="none" stroke="midnightblue" d="M373.9,-112.32C364.04,-104.26 349.15,-92.08 337.28,-82.37"/>
<polygon fill="midnightblue" stroke="midnightblue" points="339.25,-79.46 329.3,-75.83 334.82,-84.88 339.25,-79.46"/>
</g>
<!-- Node19 -->
<g id="node19" class="node">
<title>Node19</title>
<g id="a_node19"><a xlink:href="tmap_8h.html" target="_top" xlink:title=" ">
<polygon fill="white" stroke="black" points="172,-56.5 172,-75.5 223,-75.5 223,-56.5 172,-56.5"/>
<text text-anchor="middle" x="197.5" y="-63.5" font-family="Helvetica,sans-Serif" font-size="10.00">tmap.h</text>
</a>
</g>
</g>
<!-- Node18&#45;&gt;Node19 -->
<g id="edge28" class="edge">
<title>Node18&#45;&gt;Node19</title>
<path fill="none" stroke="midnightblue" d="M354.87,-112.44C321.78,-102.89 268.25,-87.43 232.97,-77.24"/>
<polygon fill="midnightblue" stroke="midnightblue" points="233.66,-73.8 223.09,-74.39 231.72,-80.53 233.66,-73.8"/>
</g>
<!-- Node19&#45;&gt;Node4 -->
<g id="edge30" class="edge">
<title>Node19&#45;&gt;Node4</title>
<path fill="none" stroke="midnightblue" d="M223.11,-59.75C261.42,-51.86 336.18,-36.33 410.17,-20.04"/>
<polygon fill="midnightblue" stroke="midnightblue" points="411.12,-23.41 420.13,-17.84 409.61,-16.58 411.12,-23.41"/>
</g>
<!-- Node19&#45;&gt;Node16 -->
<g id="edge31" class="edge">
<title>Node19&#45;&gt;Node16</title>
<path fill="none" stroke="midnightblue" d="M204.27,-56.08C210.06,-48.46 218.56,-37.26 225.64,-27.94"/>
<polygon fill="midnightblue" stroke="midnightblue" points="228.6,-29.83 231.86,-19.75 223.02,-25.6 228.6,-29.83"/>
</g>
<!-- Node20 -->
<g id="node20" class="node">
<title>Node20</title>
<g id="a_node20"><a xlink:title=" ">
<polygon fill="white" stroke="#bfbfbf" points="77.5,-0.5 77.5,-19.5 115.5,-19.5 115.5,-0.5 77.5,-0.5"/>
<text text-anchor="middle" x="96.5" y="-7.5" font-family="Helvetica,sans-Serif" font-size="10.00">map</text>
</a>
</g>
</g>
<!-- Node19&#45;&gt;Node20 -->
<g id="edge29" class="edge">
<title>Node19&#45;&gt;Node20</title>
<path fill="none" stroke="midnightblue" d="M181.27,-56.32C165.15,-47.7 140.2,-34.36 121.54,-24.39"/>
<polygon fill="midnightblue" stroke="midnightblue" points="123.16,-21.28 112.69,-19.65 119.86,-27.46 123.16,-21.28"/>
</g>
<!-- Node21 -->
<g id="node21" class="node">
<title>Node21</title>
<g id="a_node21"><a xlink:title=" ">
<polygon fill="white" stroke="#bfbfbf" points="134,-0.5 134,-19.5 179,-19.5 179,-0.5 134,-0.5"/>
<text text-anchor="middle" x="156.5" y="-7.5" font-family="Helvetica,sans-Serif" font-size="10.00">utility</text>
</a>
</g>
</g>
<!-- Node19&#45;&gt;Node21 -->
<g id="edge32" class="edge">
<title>Node19&#45;&gt;Node21</title>
<path fill="none" stroke="midnightblue" d="M190.73,-56.08C184.94,-48.46 176.44,-37.26 169.36,-27.94"/>
<polygon fill="midnightblue" stroke="midnightblue" points="171.98,-25.6 163.14,-19.75 166.4,-29.83 171.98,-25.6"/>
</g>
<!-- Node22 -->
<g id="node22" class="node">
<title>Node22</title>
<g id="a_node22"><a xlink:title=" ">
<polygon fill="white" stroke="#bfbfbf" points="0,-0.5 0,-19.5 59,-19.5 59,-0.5 0,-0.5"/>
<text text-anchor="middle" x="29.5" y="-7.5" font-family="Helvetica,sans-Serif" font-size="10.00">tmap.tcc</text>
</a>
</g>
</g>
<!-- Node19&#45;&gt;Node22 -->
<g id="edge33" class="edge">
<title>Node19&#45;&gt;Node22</title>
<path fill="none" stroke="midnightblue" d="M171.98,-56.8C143.74,-47.72 97.98,-33.01 65.96,-22.72"/>
<polygon fill="midnightblue" stroke="midnightblue" points="66.68,-19.27 56.09,-19.55 64.54,-25.94 66.68,-19.27"/>
</g>
<!-- Node23&#45;&gt;Node4 -->
<g id="edge37" class="edge">
<title>Node23&#45;&gt;Node4</title>
<path fill="none" stroke="midnightblue" d="M881.23,-173.64C776.16,-166.46 543.58,-148.88 511.5,-132 482.49,-116.74 478.06,-105.37 463.5,-76 456.29,-61.46 452.77,-43.28 451.07,-29.85"/>
<polygon fill="midnightblue" stroke="midnightblue" points="454.55,-29.44 450.03,-19.86 447.59,-30.17 454.55,-29.44"/>
</g>
<!-- Node23&#45;&gt;Node7 -->
<g id="edge39" class="edge">
<title>Node23&#45;&gt;Node7</title>
<path fill="none" stroke="midnightblue" d="M932.97,-168.23C933.65,-146.06 932.21,-87.28 900.5,-56 882.93,-38.67 821.89,-25.96 775.72,-18.55"/>
<polygon fill="midnightblue" stroke="midnightblue" points="776.24,-15.09 765.82,-17.01 775.16,-22.01 776.24,-15.09"/>
</g>
<!-- Node23&#45;&gt;Node9 -->
<g id="edge38" class="edge">
<title>Node23&#45;&gt;Node9</title>
<path fill="none" stroke="midnightblue" d="M913.96,-168.44C894.88,-159.64 864.93,-145.81 843.06,-135.72"/>
<polygon fill="midnightblue" stroke="midnightblue" points="844.5,-132.53 833.95,-131.52 841.57,-138.88 844.5,-132.53"/>
</g>
<!-- Node24&#45;&gt;Node2 -->
<g id="edge42" class="edge">
<title>Node24&#45;&gt;Node2</title>
<path fill="none" stroke="midnightblue" d="M740.05,-280.08C735.49,-272.61 728.83,-261.72 723.21,-252.52"/>
<polygon fill="midnightblue" stroke="midnightblue" points="726.05,-250.46 717.85,-243.75 720.08,-254.11 726.05,-250.46"/>
</g>
<!-- Node24&#45;&gt;Node7 -->
<g id="edge44" class="edge">
<title>Node24&#45;&gt;Node7</title>
<path fill="none" stroke="midnightblue" d="M788.53,-280.49C863.82,-264.37 1011.5,-226.66 1011.5,-179 1011.5,-179 1011.5,-179 1011.5,-121 1011.5,-71.66 966.5,-76.25 921.5,-56 874.65,-34.92 817.09,-23.33 775.59,-17.21"/>
<polygon fill="midnightblue" stroke="midnightblue" points="776.06,-13.74 765.67,-15.81 775.08,-20.68 776.06,-13.74"/>
</g>
<!-- Node24&#45;&gt;Node9 -->
<g id="edge41" class="edge">
<title>Node24&#45;&gt;Node9</title>
<path fill="none" stroke="midnightblue" d="M749.26,-280.08C760.33,-253.83 792.92,-176.55 807.86,-141.12"/>
<polygon fill="midnightblue" stroke="midnightblue" points="811.23,-142.14 811.89,-131.57 804.78,-139.42 811.23,-142.14"/>
</g>
<!-- Node24&#45;&gt;Node14 -->
<g id="edge43" class="edge">
<title>Node24&#45;&gt;Node14</title>
<path fill="none" stroke="midnightblue" d="M702.19,-287.01C615.06,-280.45 418.95,-252.36 325.5,-132 315.39,-118.98 314.5,-99.82 315.62,-85.68"/>
<polygon fill="midnightblue" stroke="midnightblue" points="319.11,-85.96 316.81,-75.62 312.16,-85.14 319.11,-85.96"/>
</g>
<!-- Node25&#45;&gt;Node11 -->
<g id="edge46" class="edge">
<title>Node25&#45;&gt;Node11</title>
<path fill="none" stroke="midnightblue" d="M549.5,-280.37C549.5,-262.62 549.5,-221.67 549.5,-197.6"/>
<polygon fill="midnightblue" stroke="midnightblue" points="553,-197.59 549.5,-187.59 546,-197.59 553,-197.59"/>
</g>
<!-- Node26&#45;&gt;Node23 -->
<g id="edge48" class="edge">
<title>Node26&#45;&gt;Node23</title>
<path fill="none" stroke="midnightblue" d="M861.54,-280.37C874.25,-262.22 903.94,-219.8 920.61,-195.99"/>
<polygon fill="midnightblue" stroke="midnightblue" points="923.62,-197.79 926.49,-187.59 917.88,-193.78 923.62,-197.79"/>
</g>
</g>
</svg>
