<?xml version="1.0" encoding="UTF-8" standalone="no"?>
<!DOCTYPE svg PUBLIC "-//W3C//DTD SVG 1.1//EN"
 "http://www.w3.org/Graphics/SVG/1.1/DTD/svg11.dtd">
<!-- Generated by graphviz version 2.42.4 (0)
 -->
<!-- Title: modfilebase.h Pages: 1 -->
<svg width="943pt" height="302pt"
 viewBox="0.00 0.00 942.50 302.00" xmlns="http://www.w3.org/2000/svg" xmlns:xlink="http://www.w3.org/1999/xlink">
<g id="graph0" class="graph" transform="scale(1 1) rotate(0) translate(4 298)">
<title>modfilebase.h</title>
<!-- Node1 -->
<g id="Node000001" class="node">
<title>Node1</title>
<g id="a_Node000001"><a xlink:title=" ">
<polygon fill="#999999" stroke="#666666" points="887.5,-294 801.5,-294 801.5,-275 887.5,-275 887.5,-294"/>
<text text-anchor="middle" x="844.5" y="-282" font-family="Helvetica,sans-Serif" font-size="10.00">modfilebase.h</text>
</a>
</g>
</g>
<!-- Node2 -->
<g id="Node000002" class="node">
<title>Node2</title>
<g id="a_Node000002"><a xlink:href="taglib_8h.html" target="_top" xlink:title=" ">
<polygon fill="white" stroke="#666666" points="885,-129 832,-129 832,-110 885,-110 885,-129"/>
<text text-anchor="middle" x="858.5" y="-117" font-family="Helvetica,sans-Serif" font-size="10.00">taglib.h</text>
</a>
</g>
</g>
<!-- Node1&#45;&gt;Node2 -->
<g id="edge1_Node000001_Node000002" class="edge">
<title>Node1&#45;&gt;Node2</title>
<g id="a_edge1_Node000001_Node000002"><a xlink:title=" ">
<path fill="none" stroke="#63b8ff" d="M846.15,-274.76C849.32,-257.49 856.14,-217.76 858.5,-184 859.55,-169.01 859.48,-151.99 859.19,-139.34"/>
<polygon fill="#63b8ff" stroke="#63b8ff" points="862.68,-139.03 858.88,-129.14 855.68,-139.24 862.68,-139.03"/>
</a>
</g>
</g>
<!-- Node4 -->
<g id="Node000004" class="node">
<title>Node4</title>
<g id="a_Node000004"><a xlink:href="tfile_8h.html" target="_top" xlink:title=" ">
<polygon fill="white" stroke="#666666" points="782.5,-239 738.5,-239 738.5,-220 782.5,-220 782.5,-239"/>
<text text-anchor="middle" x="760.5" y="-227" font-family="Helvetica,sans-Serif" font-size="10.00">tfile.h</text>
</a>
</g>
</g>
<!-- Node1&#45;&gt;Node4 -->
<g id="edge3_Node000001_Node000004" class="edge">
<title>Node1&#45;&gt;Node4</title>
<g id="a_edge3_Node000001_Node000004"><a xlink:title=" ">
<path fill="none" stroke="#63b8ff" d="M831,-274.98C818.1,-266.84 798.4,-254.41 783.1,-244.76"/>
<polygon fill="#63b8ff" stroke="#63b8ff" points="784.57,-241.55 774.24,-239.17 780.83,-247.47 784.57,-241.55"/>
</a>
</g>
</g>
<!-- Node9 -->
<g id="Node000009" class="node">
<title>Node9</title>
<g id="a_Node000009"><a xlink:href="taglib__export_8h.html" target="_top" xlink:title=" ">
<polygon fill="white" stroke="#666666" points="763.5,-19 673.5,-19 673.5,0 763.5,0 763.5,-19"/>
<text text-anchor="middle" x="718.5" y="-7" font-family="Helvetica,sans-Serif" font-size="10.00">taglib_export.h</text>
</a>
</g>
</g>
<!-- Node1&#45;&gt;Node9 -->
<g id="edge37_Node000001_Node000009" class="edge">
<title>Node1&#45;&gt;Node9</title>
<g id="a_edge37_Node000001_Node000009"><a xlink:title=" ">
<path fill="none" stroke="#63b8ff" d="M859.36,-274.91C884.92,-258.9 934.5,-221.87 934.5,-175.5 934.5,-175.5 934.5,-175.5 934.5,-118.5 934.5,-87.09 927.99,-74.66 903.5,-55 866.77,-25.52 813.56,-15.07 773.63,-11.6"/>
<polygon fill="#63b8ff" stroke="#63b8ff" points="773.75,-8.1 763.52,-10.85 773.23,-15.08 773.75,-8.1"/>
</a>
</g>
</g>
<!-- Node14 -->
<g id="Node000014" class="node">
<title>Node14</title>
<g id="a_Node000014"><a xlink:href="tlist_8h.html" target="_top" xlink:title=" ">
<polygon fill="white" stroke="#666666" points="407.5,-74 363.5,-74 363.5,-55 407.5,-55 407.5,-74"/>
<text text-anchor="middle" x="385.5" y="-62" font-family="Helvetica,sans-Serif" font-size="10.00">tlist.h</text>
</a>
</g>
</g>
<!-- Node1&#45;&gt;Node14 -->
<g id="edge36_Node000001_Node000014" class="edge">
<title>Node1&#45;&gt;Node14</title>
<g id="a_edge36_Node000001_Node000014"><a xlink:title=" ">
<path fill="none" stroke="#63b8ff" d="M801.2,-279.44C716.02,-269.25 525.21,-235.29 412.5,-129 399.85,-117.07 392.86,-98.24 389.18,-84.19"/>
<polygon fill="#63b8ff" stroke="#63b8ff" points="392.53,-83.13 386.9,-74.15 385.71,-84.68 392.53,-83.13"/>
</a>
</g>
</g>
<!-- Node3 -->
<g id="Node000003" class="node">
<title>Node3</title>
<g id="a_Node000003"><a xlink:title=" ">
<polygon fill="#e0e0e0" stroke="#999999" points="894.5,-74 822.5,-74 822.5,-55 894.5,-55 894.5,-74"/>
<text text-anchor="middle" x="858.5" y="-62" font-family="Helvetica,sans-Serif" font-size="10.00">sys/types.h</text>
</a>
</g>
</g>
<!-- Node2&#45;&gt;Node3 -->
<g id="edge2_Node000002_Node000003" class="edge">
<title>Node2&#45;&gt;Node3</title>
<g id="a_edge2_Node000002_Node000003"><a xlink:title=" ">
<path fill="none" stroke="#63b8ff" d="M858.5,-109.75C858.5,-102.8 858.5,-92.85 858.5,-84.13"/>
<polygon fill="#63b8ff" stroke="#63b8ff" points="862,-84.09 858.5,-74.09 855,-84.09 862,-84.09"/>
</a>
</g>
</g>
<!-- Node4&#45;&gt;Node2 -->
<g id="edge14_Node000004_Node000002" class="edge">
<title>Node4&#45;&gt;Node2</title>
<g id="a_edge14_Node000004_Node000002"><a xlink:title=" ">
<path fill="none" stroke="#63b8ff" d="M782.69,-221.28C800.5,-214.39 824.86,-202.32 839.5,-184 849.72,-171.22 854.44,-153.05 856.63,-139.41"/>
<polygon fill="#63b8ff" stroke="#63b8ff" points="860.13,-139.61 857.93,-129.25 853.19,-138.72 860.13,-139.61"/>
</a>
</g>
</g>
<!-- Node5 -->
<g id="Node000005" class="node">
<title>Node5</title>
<g id="a_Node000005"><a xlink:href="tbytevector_8h.html" target="_top" xlink:title=" ">
<polygon fill="white" stroke="#666666" points="552,-74 471,-74 471,-55 552,-55 552,-74"/>
<text text-anchor="middle" x="511.5" y="-62" font-family="Helvetica,sans-Serif" font-size="10.00">tbytevector.h</text>
</a>
</g>
</g>
<!-- Node4&#45;&gt;Node5 -->
<g id="edge4_Node000004_Node000005" class="edge">
<title>Node4&#45;&gt;Node5</title>
<g id="a_edge4_Node000004_Node000005"><a xlink:title=" ">
<path fill="none" stroke="#63b8ff" d="M738.44,-226.44C706.66,-222.59 647.26,-211.95 605.5,-184 566.01,-157.56 535.37,-109.28 520.81,-83.26"/>
<polygon fill="#63b8ff" stroke="#63b8ff" points="523.73,-81.29 515.88,-74.17 517.57,-84.63 523.73,-81.29"/>
</a>
</g>
</g>
<!-- Node4&#45;&gt;Node9 -->
<g id="edge13_Node000004_Node000009" class="edge">
<title>Node4&#45;&gt;Node9</title>
<g id="a_edge13_Node000004_Node000009"><a xlink:title=" ">
<path fill="none" stroke="#63b8ff" d="M757.87,-219.69C755.26,-210.76 751.26,-196.5 748.5,-184 736.17,-128.17 725.85,-61.31 721.18,-29.34"/>
<polygon fill="#63b8ff" stroke="#63b8ff" points="724.61,-28.62 719.72,-19.22 717.68,-29.62 724.61,-28.62"/>
</a>
</g>
</g>
<!-- Node10 -->
<g id="Node000010" class="node">
<title>Node10</title>
<g id="a_Node000010"><a xlink:href="tiostream_8h.html" target="_top" xlink:title=" ">
<polygon fill="white" stroke="#666666" points="830,-184 757,-184 757,-165 830,-165 830,-184"/>
<text text-anchor="middle" x="793.5" y="-172" font-family="Helvetica,sans-Serif" font-size="10.00">tiostream.h</text>
</a>
</g>
</g>
<!-- Node4&#45;&gt;Node10 -->
<g id="edge9_Node000004_Node000010" class="edge">
<title>Node4&#45;&gt;Node10</title>
<g id="a_edge9_Node000004_Node000010"><a xlink:title=" ">
<path fill="none" stroke="#63b8ff" d="M765.95,-219.75C770.51,-212.42 777.17,-201.73 782.79,-192.7"/>
<polygon fill="#63b8ff" stroke="#63b8ff" points="785.84,-194.43 788.15,-184.09 779.9,-190.73 785.84,-194.43"/>
</a>
</g>
</g>
<!-- Node11 -->
<g id="Node000011" class="node">
<title>Node11</title>
<g id="a_Node000011"><a xlink:href="tag_8h.html" target="_top" xlink:title=" ">
<polygon fill="white" stroke="#666666" points="655,-184 614,-184 614,-165 655,-165 655,-184"/>
<text text-anchor="middle" x="634.5" y="-172" font-family="Helvetica,sans-Serif" font-size="10.00">tag.h</text>
</a>
</g>
</g>
<!-- Node4&#45;&gt;Node11 -->
<g id="edge15_Node000004_Node000011" class="edge">
<title>Node4&#45;&gt;Node11</title>
<g id="a_edge15_Node000004_Node000011"><a xlink:title=" ">
<path fill="none" stroke="#63b8ff" d="M740.26,-219.98C719.8,-211.38 687.97,-197.99 664.57,-188.15"/>
<polygon fill="#63b8ff" stroke="#63b8ff" points="665.69,-184.82 655.11,-184.17 662.97,-191.27 665.69,-184.82"/>
</a>
</g>
</g>
<!-- Node6 -->
<g id="Node000006" class="node">
<title>Node6</title>
<g id="a_Node000006"><a xlink:title=" ">
<polygon fill="#e0e0e0" stroke="#999999" points="477.5,-19 419.5,-19 419.5,0 477.5,0 477.5,-19"/>
<text text-anchor="middle" x="448.5" y="-7" font-family="Helvetica,sans-Serif" font-size="10.00">memory</text>
</a>
</g>
</g>
<!-- Node5&#45;&gt;Node6 -->
<g id="edge5_Node000005_Node000006" class="edge">
<title>Node5&#45;&gt;Node6</title>
<g id="a_edge5_Node000005_Node000006"><a xlink:title=" ">
<path fill="none" stroke="#63b8ff" d="M501.38,-54.98C492.06,-47.15 478.03,-35.34 466.76,-25.86"/>
<polygon fill="#63b8ff" stroke="#63b8ff" points="468.71,-22.93 458.81,-19.17 464.21,-28.29 468.71,-22.93"/>
</a>
</g>
</g>
<!-- Node7 -->
<g id="Node000007" class="node">
<title>Node7</title>
<g id="a_Node000007"><a xlink:title=" ">
<polygon fill="#e0e0e0" stroke="#999999" points="609,-19 562,-19 562,0 609,0 609,-19"/>
<text text-anchor="middle" x="585.5" y="-7" font-family="Helvetica,sans-Serif" font-size="10.00">vector</text>
</a>
</g>
</g>
<!-- Node5&#45;&gt;Node7 -->
<g id="edge6_Node000005_Node000007" class="edge">
<title>Node5&#45;&gt;Node7</title>
<g id="a_edge6_Node000005_Node000007"><a xlink:title=" ">
<path fill="none" stroke="#63b8ff" d="M523.39,-54.98C534.65,-46.92 551.79,-34.65 565.21,-25.03"/>
<polygon fill="#63b8ff" stroke="#63b8ff" points="567.3,-27.84 573.39,-19.17 563.23,-22.15 567.3,-27.84"/>
</a>
</g>
</g>
<!-- Node8 -->
<g id="Node000008" class="node">
<title>Node8</title>
<g id="a_Node000008"><a xlink:title=" ">
<polygon fill="#e0e0e0" stroke="#999999" points="543.5,-19 495.5,-19 495.5,0 543.5,0 543.5,-19"/>
<text text-anchor="middle" x="519.5" y="-7" font-family="Helvetica,sans-Serif" font-size="10.00">iosfwd</text>
</a>
</g>
</g>
<!-- Node5&#45;&gt;Node8 -->
<g id="edge7_Node000005_Node000008" class="edge">
<title>Node5&#45;&gt;Node8</title>
<g id="a_edge7_Node000005_Node000008"><a xlink:title=" ">
<path fill="none" stroke="#63b8ff" d="M512.82,-54.75C513.87,-47.8 515.37,-37.85 516.69,-29.13"/>
<polygon fill="#63b8ff" stroke="#63b8ff" points="520.17,-29.5 518.2,-19.09 513.25,-28.45 520.17,-29.5"/>
</a>
</g>
</g>
<!-- Node5&#45;&gt;Node9 -->
<g id="edge8_Node000005_Node000009" class="edge">
<title>Node5&#45;&gt;Node9</title>
<g id="a_edge8_Node000005_Node000009"><a xlink:title=" ">
<path fill="none" stroke="#63b8ff" d="M544.76,-54.98C580.11,-45.93 636.17,-31.58 675.01,-21.64"/>
<polygon fill="#63b8ff" stroke="#63b8ff" points="676.16,-24.95 684.98,-19.08 674.43,-18.17 676.16,-24.95"/>
</a>
</g>
</g>
<!-- Node10&#45;&gt;Node2 -->
<g id="edge12_Node000010_Node000002" class="edge">
<title>Node10&#45;&gt;Node2</title>
<g id="a_edge12_Node000010_Node000002"><a xlink:title=" ">
<path fill="none" stroke="#63b8ff" d="M803.94,-164.98C813.65,-157.07 828.32,-145.11 840,-135.58"/>
<polygon fill="#63b8ff" stroke="#63b8ff" points="842.33,-138.2 847.87,-129.17 837.9,-132.78 842.33,-138.2"/>
</a>
</g>
</g>
<!-- Node10&#45;&gt;Node5 -->
<g id="edge10_Node000010_Node000005" class="edge">
<title>Node10&#45;&gt;Node5</title>
<g id="a_edge10_Node000010_Node000005"><a xlink:title=" ">
<path fill="none" stroke="#63b8ff" d="M756.65,-169.72C716.13,-164.54 649.84,-152.98 597.5,-129 571.06,-116.89 544.77,-95.81 528.35,-81.29"/>
<polygon fill="#63b8ff" stroke="#63b8ff" points="530.48,-78.49 520.71,-74.37 525.77,-83.68 530.48,-78.49"/>
</a>
</g>
</g>
<!-- Node10&#45;&gt;Node9 -->
<g id="edge11_Node000010_Node000009" class="edge">
<title>Node10&#45;&gt;Node9</title>
<g id="a_edge11_Node000010_Node000009"><a xlink:title=" ">
<path fill="none" stroke="#63b8ff" d="M793.71,-164.79C793.81,-144.21 791.8,-91.58 770.5,-55 763.49,-42.97 752,-32.63 741.61,-24.95"/>
<polygon fill="#63b8ff" stroke="#63b8ff" points="743.46,-21.98 733.25,-19.15 739.47,-27.73 743.46,-21.98"/>
</a>
</g>
</g>
<!-- Node11&#45;&gt;Node9 -->
<g id="edge16_Node000011_Node000009" class="edge">
<title>Node11&#45;&gt;Node9</title>
<g id="a_edge16_Node000011_Node000009"><a xlink:title=" ">
<path fill="none" stroke="#63b8ff" d="M643.32,-164.99C651.72,-156.5 664.27,-142.78 672.5,-129 692.23,-95.98 706.42,-52.99 713.46,-28.91"/>
<polygon fill="#63b8ff" stroke="#63b8ff" points="716.83,-29.86 716.19,-19.29 710.1,-27.95 716.83,-29.86"/>
</a>
</g>
</g>
<!-- Node12 -->
<g id="Node000012" class="node">
<title>Node12</title>
<g id="a_Node000012"><a xlink:href="tstring_8h.html" target="_top" xlink:title=" ">
<polygon fill="white" stroke="#666666" points="663,-129 606,-129 606,-110 663,-110 663,-129"/>
<text text-anchor="middle" x="634.5" y="-117" font-family="Helvetica,sans-Serif" font-size="10.00">tstring.h</text>
</a>
</g>
</g>
<!-- Node11&#45;&gt;Node12 -->
<g id="edge17_Node000011_Node000012" class="edge">
<title>Node11&#45;&gt;Node12</title>
<g id="a_edge17_Node000011_Node000012"><a xlink:title=" ">
<path fill="none" stroke="#63b8ff" d="M634.5,-164.75C634.5,-157.8 634.5,-147.85 634.5,-139.13"/>
<polygon fill="#63b8ff" stroke="#63b8ff" points="638,-139.09 634.5,-129.09 631,-139.09 638,-139.09"/>
</a>
</g>
</g>
<!-- Node11&#45;&gt;Node14 -->
<g id="edge21_Node000011_Node000014" class="edge">
<title>Node11&#45;&gt;Node14</title>
<g id="a_edge21_Node000011_Node000014"><a xlink:title=" ">
<path fill="none" stroke="#63b8ff" d="M613.71,-173.07C576.05,-171.4 495.19,-163.7 438.5,-129 419.81,-117.56 404.57,-97.2 395.31,-82.62"/>
<polygon fill="#63b8ff" stroke="#63b8ff" points="398.28,-80.76 390.11,-74.02 392.29,-84.39 398.28,-80.76"/>
</a>
</g>
</g>
<!-- Node18 -->
<g id="Node000018" class="node">
<title>Node18</title>
<g id="a_Node000018"><a xlink:href="tvariant_8h.html" target="_top" xlink:title=" ">
<polygon fill="white" stroke="#666666" points="511.5,-129 447.5,-129 447.5,-110 511.5,-110 511.5,-129"/>
<text text-anchor="middle" x="479.5" y="-117" font-family="Helvetica,sans-Serif" font-size="10.00">tvariant.h</text>
</a>
</g>
</g>
<!-- Node11&#45;&gt;Node18 -->
<g id="edge26_Node000011_Node000018" class="edge">
<title>Node11&#45;&gt;Node18</title>
<g id="a_edge26_Node000011_Node000018"><a xlink:title=" ">
<path fill="none" stroke="#63b8ff" d="M613.92,-166.46C588.54,-157.78 545.02,-142.9 514.38,-132.43"/>
<polygon fill="#63b8ff" stroke="#63b8ff" points="515.13,-128.98 504.53,-129.06 512.86,-135.61 515.13,-128.98"/>
</a>
</g>
</g>
<!-- Node12&#45;&gt;Node5 -->
<g id="edge19_Node000012_Node000005" class="edge">
<title>Node12&#45;&gt;Node5</title>
<g id="a_edge19_Node000012_Node000005"><a xlink:title=" ">
<path fill="none" stroke="#63b8ff" d="M614.74,-109.98C594.77,-101.38 563.7,-87.99 540.85,-78.15"/>
<polygon fill="#63b8ff" stroke="#63b8ff" points="542.19,-74.91 531.62,-74.17 539.42,-81.34 542.19,-74.91"/>
</a>
</g>
</g>
<!-- Node12&#45;&gt;Node9 -->
<g id="edge20_Node000012_Node000009" class="edge">
<title>Node12&#45;&gt;Node9</title>
<g id="a_edge20_Node000012_Node000009"><a xlink:title=" ">
<path fill="none" stroke="#63b8ff" d="M641.37,-109.66C655.41,-91.61 687.56,-50.28 705.61,-27.08"/>
<polygon fill="#63b8ff" stroke="#63b8ff" points="708.39,-29.2 711.77,-19.16 702.86,-24.9 708.39,-29.2"/>
</a>
</g>
</g>
<!-- Node13 -->
<g id="Node000013" class="node">
<title>Node13</title>
<g id="a_Node000013"><a xlink:title=" ">
<polygon fill="#e0e0e0" stroke="#999999" points="652.5,-74 608.5,-74 608.5,-55 652.5,-55 652.5,-74"/>
<text text-anchor="middle" x="630.5" y="-62" font-family="Helvetica,sans-Serif" font-size="10.00">string</text>
</a>
</g>
</g>
<!-- Node12&#45;&gt;Node13 -->
<g id="edge18_Node000012_Node000013" class="edge">
<title>Node12&#45;&gt;Node13</title>
<g id="a_edge18_Node000012_Node000013"><a xlink:title=" ">
<path fill="none" stroke="#63b8ff" d="M633.84,-109.75C633.32,-102.8 632.56,-92.85 631.91,-84.13"/>
<polygon fill="#63b8ff" stroke="#63b8ff" points="635.39,-83.8 631.15,-74.09 628.41,-84.32 635.39,-83.8"/>
</a>
</g>
</g>
<!-- Node14&#45;&gt;Node6 -->
<g id="edge24_Node000014_Node000006" class="edge">
<title>Node14&#45;&gt;Node6</title>
<g id="a_edge24_Node000014_Node000006"><a xlink:title=" ">
<path fill="none" stroke="#63b8ff" d="M395.62,-54.98C404.94,-47.15 418.97,-35.34 430.24,-25.86"/>
<polygon fill="#63b8ff" stroke="#63b8ff" points="432.79,-28.29 438.19,-19.17 428.29,-22.93 432.79,-28.29"/>
</a>
</g>
</g>
<!-- Node15 -->
<g id="Node000015" class="node">
<title>Node15</title>
<g id="a_Node000015"><a xlink:title=" ">
<polygon fill="#e0e0e0" stroke="#999999" points="401.5,-19 369.5,-19 369.5,0 401.5,0 401.5,-19"/>
<text text-anchor="middle" x="385.5" y="-7" font-family="Helvetica,sans-Serif" font-size="10.00">list</text>
</a>
</g>
</g>
<!-- Node14&#45;&gt;Node15 -->
<g id="edge22_Node000014_Node000015" class="edge">
<title>Node14&#45;&gt;Node15</title>
<g id="a_edge22_Node000014_Node000015"><a xlink:title=" ">
<path fill="none" stroke="#63b8ff" d="M385.5,-54.75C385.5,-47.8 385.5,-37.85 385.5,-29.13"/>
<polygon fill="#63b8ff" stroke="#63b8ff" points="389,-29.09 385.5,-19.09 382,-29.09 389,-29.09"/>
</a>
</g>
</g>
<!-- Node16 -->
<g id="Node000016" class="node">
<title>Node16</title>
<g id="a_Node000016"><a xlink:title=" ">
<polygon fill="#e0e0e0" stroke="#999999" points="280,-19 197,-19 197,0 280,0 280,-19"/>
<text text-anchor="middle" x="238.5" y="-7" font-family="Helvetica,sans-Serif" font-size="10.00">initializer_list</text>
</a>
</g>
</g>
<!-- Node14&#45;&gt;Node16 -->
<g id="edge23_Node000014_Node000016" class="edge">
<title>Node14&#45;&gt;Node16</title>
<g id="a_edge23_Node000014_Node000016"><a xlink:title=" ">
<path fill="none" stroke="#63b8ff" d="M363.49,-55.57C339.13,-46.78 299.61,-32.53 271.53,-22.41"/>
<polygon fill="#63b8ff" stroke="#63b8ff" points="272.72,-19.12 262.12,-19.02 270.34,-25.7 272.72,-19.12"/>
</a>
</g>
</g>
<!-- Node17 -->
<g id="Node000017" class="node">
<title>Node17</title>
<g id="a_Node000017"><a xlink:title=" ">
<polygon fill="#e0e0e0" stroke="#999999" points="351,-19 298,-19 298,0 351,0 351,-19"/>
<text text-anchor="middle" x="324.5" y="-7" font-family="Helvetica,sans-Serif" font-size="10.00">tlist.tcc</text>
</a>
</g>
</g>
<!-- Node14&#45;&gt;Node17 -->
<g id="edge25_Node000014_Node000017" class="edge">
<title>Node14&#45;&gt;Node17</title>
<g id="a_edge25_Node000014_Node000017"><a xlink:title=" ">
<path fill="none" stroke="#63b8ff" d="M375.7,-54.98C366.68,-47.15 353.09,-35.34 342.18,-25.86"/>
<polygon fill="#63b8ff" stroke="#63b8ff" points="344.32,-23.09 334.48,-19.17 339.73,-28.37 344.32,-23.09"/>
</a>
</g>
</g>
<!-- Node18&#45;&gt;Node8 -->
<g id="edge27_Node000018_Node000008" class="edge">
<title>Node18&#45;&gt;Node8</title>
<g id="a_edge27_Node000018_Node000008"><a xlink:title=" ">
<path fill="none" stroke="#63b8ff" d="M473.51,-109.91C465.56,-97.36 453.49,-73.46 462.5,-55 468.8,-42.09 480.85,-31.83 492.26,-24.43"/>
<polygon fill="#63b8ff" stroke="#63b8ff" points="494.36,-27.25 501.15,-19.12 490.77,-21.25 494.36,-27.25"/>
</a>
</g>
</g>
<!-- Node18&#45;&gt;Node9 -->
<g id="edge35_Node000018_Node000009" class="edge">
<title>Node18&#45;&gt;Node9</title>
<g id="a_edge35_Node000018_Node000009"><a xlink:title=" ">
<path fill="none" stroke="#63b8ff" d="M495.24,-109.84C522.87,-94.71 579.08,-64.18 599.5,-55 626.96,-42.66 658.97,-30.83 682.87,-22.47"/>
<polygon fill="#63b8ff" stroke="#63b8ff" points="684.27,-25.69 692.58,-19.11 681.98,-19.07 684.27,-25.69"/>
</a>
</g>
</g>
<!-- Node18&#45;&gt;Node14 -->
<g id="edge28_Node000018_Node000014" class="edge">
<title>Node18&#45;&gt;Node14</title>
<g id="a_edge28_Node000018_Node000014"><a xlink:title=" ">
<path fill="none" stroke="#63b8ff" d="M464.4,-109.98C449.68,-101.69 427.08,-88.94 409.83,-79.22"/>
<polygon fill="#63b8ff" stroke="#63b8ff" points="411.31,-76.03 400.88,-74.17 407.87,-82.13 411.31,-76.03"/>
</a>
</g>
</g>
<!-- Node19 -->
<g id="Node000019" class="node">
<title>Node19</title>
<g id="a_Node000019"><a xlink:href="tmap_8h.html" target="_top" xlink:title=" ">
<polygon fill="white" stroke="#666666" points="225,-74 174,-74 174,-55 225,-55 225,-74"/>
<text text-anchor="middle" x="199.5" y="-62" font-family="Helvetica,sans-Serif" font-size="10.00">tmap.h</text>
</a>
</g>
</g>
<!-- Node18&#45;&gt;Node19 -->
<g id="edge29_Node000018_Node000019" class="edge">
<title>Node18&#45;&gt;Node19</title>
<g id="a_edge29_Node000018_Node000019"><a xlink:title=" ">
<path fill="none" stroke="#63b8ff" d="M447.38,-112.42C394.62,-102.43 289.97,-82.63 235.05,-72.23"/>
<polygon fill="#63b8ff" stroke="#63b8ff" points="235.56,-68.76 225.08,-70.34 234.25,-75.64 235.56,-68.76"/>
</a>
</g>
</g>
<!-- Node19&#45;&gt;Node6 -->
<g id="edge31_Node000019_Node000006" class="edge">
<title>Node19&#45;&gt;Node6</title>
<g id="a_edge31_Node000019_Node000006"><a xlink:title=" ">
<path fill="none" stroke="#63b8ff" d="M225.18,-58.19C263.22,-50.3 337.03,-34.9 409.69,-19.16"/>
<polygon fill="#63b8ff" stroke="#63b8ff" points="410.43,-22.58 419.46,-17.03 408.95,-15.74 410.43,-22.58"/>
</a>
</g>
</g>
<!-- Node19&#45;&gt;Node16 -->
<g id="edge32_Node000019_Node000016" class="edge">
<title>Node19&#45;&gt;Node16</title>
<g id="a_edge32_Node000019_Node000016"><a xlink:title=" ">
<path fill="none" stroke="#63b8ff" d="M205.94,-54.75C211.39,-47.34 219.36,-36.5 226.06,-27.41"/>
<polygon fill="#63b8ff" stroke="#63b8ff" points="229.07,-29.22 232.18,-19.09 223.43,-25.07 229.07,-29.22"/>
</a>
</g>
</g>
<!-- Node20 -->
<g id="Node000020" class="node">
<title>Node20</title>
<g id="a_Node000020"><a xlink:title=" ">
<polygon fill="#e0e0e0" stroke="#999999" points="178.5,-19 140.5,-19 140.5,0 178.5,0 178.5,-19"/>
<text text-anchor="middle" x="159.5" y="-7" font-family="Helvetica,sans-Serif" font-size="10.00">map</text>
</a>
</g>
</g>
<!-- Node19&#45;&gt;Node20 -->
<g id="edge30_Node000019_Node000020" class="edge">
<title>Node19&#45;&gt;Node20</title>
<g id="a_edge30_Node000019_Node000020"><a xlink:title=" ">
<path fill="none" stroke="#63b8ff" d="M192.89,-54.75C187.24,-47.26 178.96,-36.28 172.05,-27.13"/>
<polygon fill="#63b8ff" stroke="#63b8ff" points="174.8,-24.96 165.98,-19.09 169.21,-29.18 174.8,-24.96"/>
</a>
</g>
</g>
<!-- Node21 -->
<g id="Node000021" class="node">
<title>Node21</title>
<g id="a_Node000021"><a xlink:title=" ">
<polygon fill="#e0e0e0" stroke="#999999" points="122,-19 77,-19 77,0 122,0 122,-19"/>
<text text-anchor="middle" x="99.5" y="-7" font-family="Helvetica,sans-Serif" font-size="10.00">utility</text>
</a>
</g>
</g>
<!-- Node19&#45;&gt;Node21 -->
<g id="edge33_Node000019_Node000021" class="edge">
<title>Node19&#45;&gt;Node21</title>
<g id="a_edge33_Node000019_Node000021"><a xlink:title=" ">
<path fill="none" stroke="#63b8ff" d="M183.43,-54.98C167.64,-46.61 143.28,-33.7 124.87,-23.95"/>
<polygon fill="#63b8ff" stroke="#63b8ff" points="126.33,-20.76 115.86,-19.17 123.06,-26.95 126.33,-20.76"/>
</a>
</g>
</g>
<!-- Node22 -->
<g id="Node000022" class="node">
<title>Node22</title>
<g id="a_Node000022"><a xlink:title=" ">
<polygon fill="#e0e0e0" stroke="#999999" points="59,-19 0,-19 0,0 59,0 59,-19"/>
<text text-anchor="middle" x="29.5" y="-7" font-family="Helvetica,sans-Serif" font-size="10.00">tmap.tcc</text>
</a>
</g>
</g>
<!-- Node19&#45;&gt;Node22 -->
<g id="edge34_Node000019_Node000022" class="edge">
<title>Node19&#45;&gt;Node22</title>
<g id="a_edge34_Node000019_Node000022"><a xlink:title=" ">
<path fill="none" stroke="#63b8ff" d="M173.68,-55.45C145.14,-46.55 98.94,-32.15 66.55,-22.05"/>
<polygon fill="#63b8ff" stroke="#63b8ff" points="67.56,-18.7 56.97,-19.07 65.48,-25.38 67.56,-18.7"/>
</a>
</g>
</g>
</g>
</svg>
