<?xml version="1.0" encoding="UTF-8" standalone="no"?>
<!DOCTYPE svg PUBLIC "-//W3C//DTD SVG 1.1//EN"
 "http://www.w3.org/Graphics/SVG/1.1/DTD/svg11.dtd">
<!-- Generated by graphviz version 2.43.0 (0)
 -->
<!-- Title: modfile.h Pages: 1 -->
<svg width="1171pt" height="420pt"
 viewBox="0.00 0.00 1171.00 420.00" xmlns="http://www.w3.org/2000/svg" xmlns:xlink="http://www.w3.org/1999/xlink">
<g id="graph0" class="graph" transform="scale(1 1) rotate(0) translate(4 416)">
<title>modfile.h</title>
<polygon fill="white" stroke="transparent" points="-4,4 -4,-416 1167,-416 1167,4 -4,4"/>
<!-- Node1 -->
<g id="node1" class="node">
<title>Node1</title>
<g id="a_node1"><a xlink:title=" ">
<polygon fill="#bfbfbf" stroke="black" points="424,-392.5 424,-411.5 486,-411.5 486,-392.5 424,-392.5"/>
<text text-anchor="middle" x="455" y="-399.5" font-family="Helvetica,sans-Serif" font-size="10.00">modfile.h</text>
</a>
</g>
</g>
<!-- Node2 -->
<g id="node2" class="node">
<title>Node2</title>
<g id="a_node2"><a xlink:href="tfile_8h.html" target="_top" xlink:title=" ">
<polygon fill="white" stroke="black" points="327,-280.5 327,-299.5 371,-299.5 371,-280.5 327,-280.5"/>
<text text-anchor="middle" x="349" y="-287.5" font-family="Helvetica,sans-Serif" font-size="10.00">tfile.h</text>
</a>
</g>
</g>
<!-- Node1&#45;&gt;Node2 -->
<g id="edge1" class="edge">
<title>Node1&#45;&gt;Node2</title>
<path fill="none" stroke="midnightblue" d="M426.1,-392.38C407.35,-385.39 383.76,-373.75 369,-356 358.04,-342.82 353.08,-323.68 350.84,-309.58"/>
<polygon fill="midnightblue" stroke="midnightblue" points="354.3,-309.05 349.56,-299.57 347.35,-309.93 354.3,-309.05"/>
</g>
<!-- Node11 -->
<g id="node11" class="node">
<title>Node11</title>
<g id="a_node11"><a xlink:href="taglib__export_8h.html" target="_top" xlink:title=" ">
<polygon fill="white" stroke="black" points="107,-56.5 107,-75.5 197,-75.5 197,-56.5 107,-56.5"/>
<text text-anchor="middle" x="152" y="-63.5" font-family="Helvetica,sans-Serif" font-size="10.00">taglib_export.h</text>
</a>
</g>
</g>
<!-- Node1&#45;&gt;Node11 -->
<g id="edge43" class="edge">
<title>Node1&#45;&gt;Node11</title>
<path fill="none" stroke="midnightblue" d="M423.73,-400.16C320.93,-396.57 0,-378.36 0,-291 0,-291 0,-291 0,-177 0,-123.44 62.71,-93.3 107.57,-78.59"/>
<polygon fill="midnightblue" stroke="midnightblue" points="108.63,-81.93 117.13,-75.6 106.54,-75.25 108.63,-81.93"/>
</g>
<!-- Node25 -->
<g id="node25" class="node">
<title>Node25</title>
<g id="a_node25"><a xlink:href="audioproperties_8h.html" target="_top" xlink:title=" ">
<polygon fill="white" stroke="black" points="706,-112.5 706,-131.5 808,-131.5 808,-112.5 706,-112.5"/>
<text text-anchor="middle" x="757" y="-119.5" font-family="Helvetica,sans-Serif" font-size="10.00">audioproperties.h</text>
</a>
</g>
</g>
<!-- Node1&#45;&gt;Node25 -->
<g id="edge44" class="edge">
<title>Node1&#45;&gt;Node25</title>
<path fill="none" stroke="midnightblue" d="M486.15,-396.35C562.73,-384.04 754,-347.62 754,-291 754,-291 754,-291 754,-233 754,-200.94 755.29,-163.63 756.18,-141.74"/>
<polygon fill="midnightblue" stroke="midnightblue" points="759.68,-141.69 756.61,-131.56 752.69,-141.4 759.68,-141.69"/>
</g>
<!-- Node26 -->
<g id="node26" class="node">
<title>Node26</title>
<g id="a_node26"><a xlink:href="modfilebase_8h.html" target="_top" xlink:title=" ">
<polygon fill="white" stroke="black" points="459,-336.5 459,-355.5 545,-355.5 545,-336.5 459,-336.5"/>
<text text-anchor="middle" x="502" y="-343.5" font-family="Helvetica,sans-Serif" font-size="10.00">modfilebase.h</text>
</a>
</g>
</g>
<!-- Node1&#45;&gt;Node26 -->
<g id="edge48" class="edge">
<title>Node1&#45;&gt;Node26</title>
<path fill="none" stroke="midnightblue" d="M462.76,-392.08C469.54,-384.3 479.54,-372.8 487.76,-363.37"/>
<polygon fill="midnightblue" stroke="midnightblue" points="490.46,-365.59 494.38,-355.75 485.18,-361 490.46,-365.59"/>
</g>
<!-- Node28 -->
<g id="node28" class="node">
<title>Node28</title>
<g id="a_node28"><a xlink:href="modtag_8h.html" target="_top" xlink:title=" ">
<polygon fill="white" stroke="black" points="377.5,-336.5 377.5,-355.5 440.5,-355.5 440.5,-336.5 377.5,-336.5"/>
<text text-anchor="middle" x="409" y="-343.5" font-family="Helvetica,sans-Serif" font-size="10.00">modtag.h</text>
</a>
</g>
</g>
<!-- Node1&#45;&gt;Node28 -->
<g id="edge55" class="edge">
<title>Node1&#45;&gt;Node28</title>
<path fill="none" stroke="midnightblue" d="M447.4,-392.08C440.77,-384.3 430.98,-372.8 422.94,-363.37"/>
<polygon fill="midnightblue" stroke="midnightblue" points="425.6,-361.09 416.45,-355.75 420.27,-365.63 425.6,-361.09"/>
</g>
<!-- Node29 -->
<g id="node29" class="node">
<title>Node29</title>
<g id="a_node29"><a xlink:href="modproperties_8h.html" target="_top" xlink:title=" ">
<polygon fill="white" stroke="black" points="782.5,-168.5 782.5,-187.5 879.5,-187.5 879.5,-168.5 782.5,-168.5"/>
<text text-anchor="middle" x="831" y="-175.5" font-family="Helvetica,sans-Serif" font-size="10.00">modproperties.h</text>
</a>
</g>
</g>
<!-- Node1&#45;&gt;Node29 -->
<g id="edge57" class="edge">
<title>Node1&#45;&gt;Node29</title>
<path fill="none" stroke="midnightblue" d="M486.22,-400.5C556.7,-398.76 725.3,-390.94 768,-356 816.97,-315.92 827.9,-234.94 830.32,-198.06"/>
<polygon fill="midnightblue" stroke="midnightblue" points="833.83,-197.91 830.85,-187.75 826.84,-197.56 833.83,-197.91"/>
</g>
<!-- Node3 -->
<g id="node3" class="node">
<title>Node3</title>
<g id="a_node3"><a xlink:href="tbytevector_8h.html" target="_top" xlink:title=" ">
<polygon fill="white" stroke="black" points="256.5,-112.5 256.5,-131.5 337.5,-131.5 337.5,-112.5 256.5,-112.5"/>
<text text-anchor="middle" x="297" y="-119.5" font-family="Helvetica,sans-Serif" font-size="10.00">tbytevector.h</text>
</a>
</g>
</g>
<!-- Node2&#45;&gt;Node3 -->
<g id="edge2" class="edge">
<title>Node2&#45;&gt;Node3</title>
<path fill="none" stroke="midnightblue" d="M346.2,-280.08C337.98,-253.83 313.77,-176.55 302.68,-141.12"/>
<polygon fill="midnightblue" stroke="midnightblue" points="306.01,-140.06 299.68,-131.57 299.33,-142.16 306.01,-140.06"/>
</g>
<!-- Node7 -->
<g id="node7" class="node">
<title>Node7</title>
<g id="a_node7"><a xlink:href="taglib_8h.html" target="_top" xlink:title=" ">
<polygon fill="white" stroke="black" points="613.5,-56.5 613.5,-75.5 666.5,-75.5 666.5,-56.5 613.5,-56.5"/>
<text text-anchor="middle" x="640" y="-63.5" font-family="Helvetica,sans-Serif" font-size="10.00">taglib.h</text>
</a>
</g>
</g>
<!-- Node2&#45;&gt;Node7 -->
<g id="edge16" class="edge">
<title>Node2&#45;&gt;Node7</title>
<path fill="none" stroke="midnightblue" d="M371.23,-282.44C413.32,-269.3 506.31,-236.77 572,-188 598.55,-168.29 605.1,-161 621,-132 628.95,-117.5 633.9,-99.32 636.75,-85.87"/>
<polygon fill="midnightblue" stroke="midnightblue" points="640.22,-86.36 638.66,-75.88 633.34,-85.04 640.22,-86.36"/>
</g>
<!-- Node2&#45;&gt;Node11 -->
<g id="edge15" class="edge">
<title>Node2&#45;&gt;Node11</title>
<path fill="none" stroke="midnightblue" d="M326.93,-288.11C275.48,-284.68 148.06,-268.1 96,-188 73.11,-152.78 110.82,-106.68 134.71,-82.83"/>
<polygon fill="midnightblue" stroke="midnightblue" points="137.4,-85.1 142.18,-75.65 132.54,-80.06 137.4,-85.1"/>
</g>
<!-- Node12 -->
<g id="node12" class="node">
<title>Node12</title>
<g id="a_node12"><a xlink:href="tiostream_8h.html" target="_top" xlink:title=" ">
<polygon fill="white" stroke="black" points="104.5,-168.5 104.5,-187.5 177.5,-187.5 177.5,-168.5 104.5,-168.5"/>
<text text-anchor="middle" x="141" y="-175.5" font-family="Helvetica,sans-Serif" font-size="10.00">tiostream.h</text>
</a>
</g>
</g>
<!-- Node2&#45;&gt;Node12 -->
<g id="edge11" class="edge">
<title>Node2&#45;&gt;Node12</title>
<path fill="none" stroke="midnightblue" d="M332.68,-280.37C296.53,-261.25 209.51,-215.23 166.26,-192.36"/>
<polygon fill="midnightblue" stroke="midnightblue" points="167.72,-189.17 157.25,-187.59 164.45,-195.36 167.72,-189.17"/>
</g>
<!-- Node13 -->
<g id="node13" class="node">
<title>Node13</title>
<g id="a_node13"><a xlink:href="tag_8h.html" target="_top" xlink:title=" ">
<polygon fill="white" stroke="black" points="383.5,-224.5 383.5,-243.5 424.5,-243.5 424.5,-224.5 383.5,-224.5"/>
<text text-anchor="middle" x="404" y="-231.5" font-family="Helvetica,sans-Serif" font-size="10.00">tag.h</text>
</a>
</g>
</g>
<!-- Node2&#45;&gt;Node13 -->
<g id="edge17" class="edge">
<title>Node2&#45;&gt;Node13</title>
<path fill="none" stroke="midnightblue" d="M358.08,-280.08C366.17,-272.14 378.2,-260.34 387.91,-250.8"/>
<polygon fill="midnightblue" stroke="midnightblue" points="390.4,-253.25 395.09,-243.75 385.5,-248.26 390.4,-253.25"/>
</g>
<!-- Node4 -->
<g id="node4" class="node">
<title>Node4</title>
<g id="a_node4"><a xlink:title=" ">
<polygon fill="white" stroke="#bfbfbf" points="338,-56.5 338,-75.5 398,-75.5 398,-56.5 338,-56.5"/>
<text text-anchor="middle" x="368" y="-63.5" font-family="Helvetica,sans-Serif" font-size="10.00">iostream</text>
</a>
</g>
</g>
<!-- Node3&#45;&gt;Node4 -->
<g id="edge3" class="edge">
<title>Node3&#45;&gt;Node4</title>
<path fill="none" stroke="midnightblue" d="M308.41,-112.32C319.11,-104.18 335.34,-91.84 348.16,-82.09"/>
<polygon fill="midnightblue" stroke="midnightblue" points="350.54,-84.67 356.39,-75.83 346.31,-79.1 350.54,-84.67"/>
</g>
<!-- Node5 -->
<g id="node5" class="node">
<title>Node5</title>
<g id="a_node5"><a xlink:title=" ">
<polygon fill="white" stroke="#bfbfbf" points="685,-56.5 685,-75.5 743,-75.5 743,-56.5 685,-56.5"/>
<text text-anchor="middle" x="714" y="-63.5" font-family="Helvetica,sans-Serif" font-size="10.00">memory</text>
</a>
</g>
</g>
<!-- Node3&#45;&gt;Node5 -->
<g id="edge4" class="edge">
<title>Node3&#45;&gt;Node5</title>
<path fill="none" stroke="midnightblue" d="M337.61,-117.71C405.45,-111.89 546.28,-98.39 674.61,-76.07"/>
<polygon fill="midnightblue" stroke="midnightblue" points="675.37,-79.49 684.61,-74.31 674.16,-72.6 675.37,-79.49"/>
</g>
<!-- Node6 -->
<g id="node6" class="node">
<title>Node6</title>
<g id="a_node6"><a xlink:title=" ">
<polygon fill="white" stroke="#bfbfbf" points="272.5,-56.5 272.5,-75.5 319.5,-75.5 319.5,-56.5 272.5,-56.5"/>
<text text-anchor="middle" x="296" y="-63.5" font-family="Helvetica,sans-Serif" font-size="10.00">vector</text>
</a>
</g>
</g>
<!-- Node3&#45;&gt;Node6 -->
<g id="edge5" class="edge">
<title>Node3&#45;&gt;Node6</title>
<path fill="none" stroke="midnightblue" d="M296.83,-112.08C296.7,-105.01 296.52,-94.86 296.35,-85.99"/>
<polygon fill="midnightblue" stroke="midnightblue" points="299.85,-85.68 296.16,-75.75 292.85,-85.81 299.85,-85.68"/>
</g>
<!-- Node3&#45;&gt;Node7 -->
<g id="edge6" class="edge">
<title>Node3&#45;&gt;Node7</title>
<path fill="none" stroke="midnightblue" d="M337.69,-114.59C404.93,-104.01 538.22,-83.02 602.97,-72.83"/>
<polygon fill="midnightblue" stroke="midnightblue" points="603.79,-76.24 613.12,-71.23 602.7,-69.33 603.79,-76.24"/>
</g>
<!-- Node3&#45;&gt;Node11 -->
<g id="edge10" class="edge">
<title>Node3&#45;&gt;Node11</title>
<path fill="none" stroke="midnightblue" d="M274.02,-112.44C249.84,-103.44 211.58,-89.19 184.35,-79.05"/>
<polygon fill="midnightblue" stroke="midnightblue" points="185.46,-75.73 174.87,-75.52 183.02,-82.29 185.46,-75.73"/>
</g>
<!-- Node8 -->
<g id="node8" class="node">
<title>Node8</title>
<g id="a_node8"><a xlink:title=" ">
<polygon fill="white" stroke="#bfbfbf" points="645,-0.5 645,-19.5 733,-19.5 733,-0.5 645,-0.5"/>
<text text-anchor="middle" x="689" y="-7.5" font-family="Helvetica,sans-Serif" font-size="10.00">taglib_config.h</text>
</a>
</g>
</g>
<!-- Node7&#45;&gt;Node8 -->
<g id="edge7" class="edge">
<title>Node7&#45;&gt;Node8</title>
<path fill="none" stroke="midnightblue" d="M648.09,-56.08C655.16,-48.3 665.59,-36.8 674.15,-27.37"/>
<polygon fill="midnightblue" stroke="midnightblue" points="676.93,-29.51 681.06,-19.75 671.75,-24.8 676.93,-29.51"/>
</g>
<!-- Node9 -->
<g id="node9" class="node">
<title>Node9</title>
<g id="a_node9"><a xlink:title=" ">
<polygon fill="white" stroke="#bfbfbf" points="555,-0.5 555,-19.5 627,-19.5 627,-0.5 555,-0.5"/>
<text text-anchor="middle" x="591" y="-7.5" font-family="Helvetica,sans-Serif" font-size="10.00">sys/types.h</text>
</a>
</g>
</g>
<!-- Node7&#45;&gt;Node9 -->
<g id="edge8" class="edge">
<title>Node7&#45;&gt;Node9</title>
<path fill="none" stroke="midnightblue" d="M631.91,-56.08C624.84,-48.3 614.41,-36.8 605.85,-27.37"/>
<polygon fill="midnightblue" stroke="midnightblue" points="608.25,-24.8 598.94,-19.75 603.07,-29.51 608.25,-24.8"/>
</g>
<!-- Node10 -->
<g id="node10" class="node">
<title>Node10</title>
<g id="a_node10"><a xlink:title=" ">
<polygon fill="white" stroke="#bfbfbf" points="481,-0.5 481,-19.5 525,-19.5 525,-0.5 481,-0.5"/>
<text text-anchor="middle" x="503" y="-7.5" font-family="Helvetica,sans-Serif" font-size="10.00">string</text>
</a>
</g>
</g>
<!-- Node7&#45;&gt;Node10 -->
<g id="edge9" class="edge">
<title>Node7&#45;&gt;Node10</title>
<path fill="none" stroke="midnightblue" d="M618.29,-56.44C595.65,-47.52 559.93,-33.44 534.25,-23.32"/>
<polygon fill="midnightblue" stroke="midnightblue" points="535.19,-19.93 524.61,-19.52 532.63,-26.44 535.19,-19.93"/>
</g>
<!-- Node12&#45;&gt;Node3 -->
<g id="edge12" class="edge">
<title>Node12&#45;&gt;Node3</title>
<path fill="none" stroke="midnightblue" d="M165.72,-168.44C191.85,-159.4 233.26,-145.06 262.58,-134.92"/>
<polygon fill="midnightblue" stroke="midnightblue" points="264.09,-138.1 272.4,-131.52 261.8,-131.48 264.09,-138.1"/>
</g>
<!-- Node12&#45;&gt;Node7 -->
<g id="edge14" class="edge">
<title>Node12&#45;&gt;Node7</title>
<path fill="none" stroke="midnightblue" d="M177.85,-168.99C219.07,-160.02 287.83,-145.03 347,-132 439.26,-111.69 547.81,-87.54 603.3,-75.18"/>
<polygon fill="midnightblue" stroke="midnightblue" points="604.34,-78.54 613.34,-72.94 602.82,-71.7 604.34,-78.54"/>
</g>
<!-- Node12&#45;&gt;Node11 -->
<g id="edge13" class="edge">
<title>Node12&#45;&gt;Node11</title>
<path fill="none" stroke="midnightblue" d="M139.49,-168.11C137.61,-155.54 134.98,-131.88 138,-112 139.37,-103 142.19,-93.33 144.95,-85.26"/>
<polygon fill="midnightblue" stroke="midnightblue" points="148.27,-86.37 148.4,-75.78 141.69,-83.98 148.27,-86.37"/>
</g>
<!-- Node13&#45;&gt;Node11 -->
<g id="edge18" class="edge">
<title>Node13&#45;&gt;Node11</title>
<path fill="none" stroke="midnightblue" d="M383.46,-228.5C341.13,-218.28 243.18,-189.6 184,-132 170.78,-119.14 162.21,-99.69 157.29,-85.41"/>
<polygon fill="midnightblue" stroke="midnightblue" points="160.58,-84.19 154.23,-75.7 153.9,-86.29 160.58,-84.19"/>
</g>
<!-- Node14 -->
<g id="node14" class="node">
<title>Node14</title>
<g id="a_node14"><a xlink:href="tstring_8h.html" target="_top" xlink:title=" ">
<polygon fill="white" stroke="black" points="375.5,-168.5 375.5,-187.5 432.5,-187.5 432.5,-168.5 375.5,-168.5"/>
<text text-anchor="middle" x="404" y="-175.5" font-family="Helvetica,sans-Serif" font-size="10.00">tstring.h</text>
</a>
</g>
</g>
<!-- Node13&#45;&gt;Node14 -->
<g id="edge19" class="edge">
<title>Node13&#45;&gt;Node14</title>
<path fill="none" stroke="midnightblue" d="M404,-224.08C404,-217.01 404,-206.86 404,-197.99"/>
<polygon fill="midnightblue" stroke="midnightblue" points="407.5,-197.75 404,-187.75 400.5,-197.75 407.5,-197.75"/>
</g>
<!-- Node15 -->
<g id="node15" class="node">
<title>Node15</title>
<g id="a_node15"><a xlink:href="tlist_8h.html" target="_top" xlink:title=" ">
<polygon fill="white" stroke="black" points="934,-112.5 934,-131.5 978,-131.5 978,-112.5 934,-112.5"/>
<text text-anchor="middle" x="956" y="-119.5" font-family="Helvetica,sans-Serif" font-size="10.00">tlist.h</text>
</a>
</g>
</g>
<!-- Node13&#45;&gt;Node15 -->
<g id="edge25" class="edge">
<title>Node13&#45;&gt;Node15</title>
<path fill="none" stroke="midnightblue" d="M424.51,-232.89C505.7,-232.2 804.31,-226.98 889,-188 912.14,-177.35 932.12,-155.28 944.1,-139.82"/>
<polygon fill="midnightblue" stroke="midnightblue" points="947.03,-141.74 950.19,-131.63 941.41,-137.56 947.03,-141.74"/>
</g>
<!-- Node19 -->
<g id="node19" class="node">
<title>Node19</title>
<g id="a_node19"><a xlink:href="tvariant_8h.html" target="_top" xlink:title=" ">
<polygon fill="white" stroke="black" points="499,-168.5 499,-187.5 563,-187.5 563,-168.5 499,-168.5"/>
<text text-anchor="middle" x="531" y="-175.5" font-family="Helvetica,sans-Serif" font-size="10.00">tvariant.h</text>
</a>
</g>
</g>
<!-- Node13&#45;&gt;Node19 -->
<g id="edge31" class="edge">
<title>Node13&#45;&gt;Node19</title>
<path fill="none" stroke="midnightblue" d="M424.12,-224.44C445.02,-215.56 477.93,-201.56 501.72,-191.45"/>
<polygon fill="midnightblue" stroke="midnightblue" points="503.14,-194.65 510.97,-187.52 500.4,-188.21 503.14,-194.65"/>
</g>
<!-- Node14&#45;&gt;Node3 -->
<g id="edge22" class="edge">
<title>Node14&#45;&gt;Node3</title>
<path fill="none" stroke="midnightblue" d="M386.81,-168.32C369.65,-159.66 343.05,-146.24 323.25,-136.25"/>
<polygon fill="midnightblue" stroke="midnightblue" points="324.65,-133.04 314.15,-131.65 321.5,-139.28 324.65,-133.04"/>
</g>
<!-- Node14&#45;&gt;Node4 -->
<g id="edge20" class="edge">
<title>Node14&#45;&gt;Node4</title>
<path fill="none" stroke="midnightblue" d="M401.18,-168.37C395.34,-150.54 381.84,-109.3 373.98,-85.27"/>
<polygon fill="midnightblue" stroke="midnightblue" points="377.25,-84.01 370.81,-75.59 370.6,-86.18 377.25,-84.01"/>
</g>
<!-- Node14&#45;&gt;Node7 -->
<g id="edge24" class="edge">
<title>Node14&#45;&gt;Node7</title>
<path fill="none" stroke="midnightblue" d="M421.25,-168.38C446.68,-155.74 495.76,-131.55 538,-112 562.3,-100.75 590.13,-88.52 610.57,-79.65"/>
<polygon fill="midnightblue" stroke="midnightblue" points="612.18,-82.77 619.97,-75.58 609.4,-76.34 612.18,-82.77"/>
</g>
<!-- Node14&#45;&gt;Node10 -->
<g id="edge21" class="edge">
<title>Node14&#45;&gt;Node10</title>
<path fill="none" stroke="midnightblue" d="M409.32,-168.08C425.11,-141.61 471.86,-63.21 492.74,-28.21"/>
<polygon fill="midnightblue" stroke="midnightblue" points="495.77,-29.95 497.89,-19.57 489.76,-26.36 495.77,-29.95"/>
</g>
<!-- Node14&#45;&gt;Node11 -->
<g id="edge23" class="edge">
<title>Node14&#45;&gt;Node11</title>
<path fill="none" stroke="midnightblue" d="M375.43,-175.29C336.55,-171.88 265.9,-161.77 214,-132 193.16,-120.05 174.96,-98.95 163.76,-84.03"/>
<polygon fill="midnightblue" stroke="midnightblue" points="166.42,-81.74 157.73,-75.68 160.74,-85.84 166.42,-81.74"/>
</g>
<!-- Node15&#45;&gt;Node5 -->
<g id="edge28" class="edge">
<title>Node15&#45;&gt;Node5</title>
<path fill="none" stroke="midnightblue" d="M933.7,-114.31C930.79,-113.5 927.83,-112.71 925,-112 852.18,-93.84 830.92,-92.83 753.15,-75.98"/>
<polygon fill="midnightblue" stroke="midnightblue" points="753.89,-72.56 743.37,-73.85 752.39,-79.4 753.89,-72.56"/>
</g>
<!-- Node15&#45;&gt;Node7 -->
<g id="edge29" class="edge">
<title>Node15&#45;&gt;Node7</title>
<path fill="none" stroke="midnightblue" d="M933.74,-114.14C930.82,-113.35 927.85,-112.62 925,-112 818.81,-89.02 787.48,-97.09 676.57,-75.91"/>
<polygon fill="midnightblue" stroke="midnightblue" points="677.15,-72.46 666.67,-73.99 675.82,-79.33 677.15,-72.46"/>
</g>
<!-- Node16 -->
<g id="node16" class="node">
<title>Node16</title>
<g id="a_node16"><a xlink:title=" ">
<polygon fill="white" stroke="#bfbfbf" points="1131,-56.5 1131,-75.5 1163,-75.5 1163,-56.5 1131,-56.5"/>
<text text-anchor="middle" x="1147" y="-63.5" font-family="Helvetica,sans-Serif" font-size="10.00">list</text>
</a>
</g>
</g>
<!-- Node15&#45;&gt;Node16 -->
<g id="edge26" class="edge">
<title>Node15&#45;&gt;Node16</title>
<path fill="none" stroke="midnightblue" d="M978.18,-115.59C1008.42,-108.09 1064.45,-93.74 1121.1,-76.1"/>
<polygon fill="midnightblue" stroke="midnightblue" points="1122.44,-79.34 1130.93,-73 1120.34,-72.67 1122.44,-79.34"/>
</g>
<!-- Node17 -->
<g id="node17" class="node">
<title>Node17</title>
<g id="a_node17"><a xlink:title=" ">
<polygon fill="white" stroke="#bfbfbf" points="958.5,-56.5 958.5,-75.5 1041.5,-75.5 1041.5,-56.5 958.5,-56.5"/>
<text text-anchor="middle" x="1000" y="-63.5" font-family="Helvetica,sans-Serif" font-size="10.00">initializer_list</text>
</a>
</g>
</g>
<!-- Node15&#45;&gt;Node17 -->
<g id="edge27" class="edge">
<title>Node15&#45;&gt;Node17</title>
<path fill="none" stroke="midnightblue" d="M963.27,-112.08C969.54,-104.38 978.79,-93.03 986.43,-83.65"/>
<polygon fill="midnightblue" stroke="midnightblue" points="989.27,-85.71 992.87,-75.75 983.84,-81.29 989.27,-85.71"/>
</g>
<!-- Node18 -->
<g id="node18" class="node">
<title>Node18</title>
<g id="a_node18"><a xlink:title=" ">
<polygon fill="white" stroke="#bfbfbf" points="1059.5,-56.5 1059.5,-75.5 1112.5,-75.5 1112.5,-56.5 1059.5,-56.5"/>
<text text-anchor="middle" x="1086" y="-63.5" font-family="Helvetica,sans-Serif" font-size="10.00">tlist.tcc</text>
</a>
</g>
</g>
<!-- Node15&#45;&gt;Node18 -->
<g id="edge30" class="edge">
<title>Node15&#45;&gt;Node18</title>
<path fill="none" stroke="midnightblue" d="M976.6,-112.44C997.99,-103.56 1031.68,-89.56 1056.02,-79.45"/>
<polygon fill="midnightblue" stroke="midnightblue" points="1057.61,-82.58 1065.5,-75.52 1054.92,-76.12 1057.61,-82.58"/>
</g>
<!-- Node19&#45;&gt;Node4 -->
<g id="edge33" class="edge">
<title>Node19&#45;&gt;Node4</title>
<path fill="none" stroke="midnightblue" d="M518.21,-168.37C490.24,-149.49 423.4,-104.38 389.1,-81.24"/>
<polygon fill="midnightblue" stroke="midnightblue" points="390.98,-78.28 380.73,-75.59 387.06,-84.09 390.98,-78.28"/>
</g>
<!-- Node19&#45;&gt;Node11 -->
<g id="edge42" class="edge">
<title>Node19&#45;&gt;Node11</title>
<path fill="none" stroke="midnightblue" d="M498.63,-173.64C434.42,-166.69 293.22,-149.88 248,-132 231.98,-125.67 194.48,-98.75 171.37,-81.61"/>
<polygon fill="midnightblue" stroke="midnightblue" points="173.41,-78.75 163.3,-75.57 169.22,-84.36 173.41,-78.75"/>
</g>
<!-- Node19&#45;&gt;Node15 -->
<g id="edge34" class="edge">
<title>Node19&#45;&gt;Node15</title>
<path fill="none" stroke="midnightblue" d="M563.2,-175.17C629.21,-171.02 784.68,-159.23 923.78,-131.94"/>
<polygon fill="midnightblue" stroke="midnightblue" points="924.64,-135.33 933.76,-129.94 923.27,-128.47 924.64,-135.33"/>
</g>
<!-- Node20 -->
<g id="node20" class="node">
<title>Node20</title>
<g id="a_node20"><a xlink:title=" ">
<polygon fill="white" stroke="#bfbfbf" points="546.5,-112.5 546.5,-131.5 611.5,-131.5 611.5,-112.5 546.5,-112.5"/>
<text text-anchor="middle" x="579" y="-119.5" font-family="Helvetica,sans-Serif" font-size="10.00">memory.h</text>
</a>
</g>
</g>
<!-- Node19&#45;&gt;Node20 -->
<g id="edge32" class="edge">
<title>Node19&#45;&gt;Node20</title>
<path fill="none" stroke="midnightblue" d="M538.93,-168.08C545.85,-160.3 556.07,-148.8 564.45,-139.37"/>
<polygon fill="midnightblue" stroke="midnightblue" points="567.19,-141.55 571.22,-131.75 561.96,-136.9 567.19,-141.55"/>
</g>
<!-- Node21 -->
<g id="node21" class="node">
<title>Node21</title>
<g id="a_node21"><a xlink:href="tmap_8h.html" target="_top" xlink:title=" ">
<polygon fill="white" stroke="black" points="864.5,-112.5 864.5,-131.5 915.5,-131.5 915.5,-112.5 864.5,-112.5"/>
<text text-anchor="middle" x="890" y="-119.5" font-family="Helvetica,sans-Serif" font-size="10.00">tmap.h</text>
</a>
</g>
</g>
<!-- Node19&#45;&gt;Node21 -->
<g id="edge35" class="edge">
<title>Node19&#45;&gt;Node21</title>
<path fill="none" stroke="midnightblue" d="M563.17,-172.16C630.13,-162.09 784.02,-138.94 854.08,-128.4"/>
<polygon fill="midnightblue" stroke="midnightblue" points="854.82,-131.83 864.19,-126.88 853.78,-124.91 854.82,-131.83"/>
</g>
<!-- Node21&#45;&gt;Node5 -->
<g id="edge37" class="edge">
<title>Node21&#45;&gt;Node5</title>
<path fill="none" stroke="midnightblue" d="M864.41,-113.15C834.73,-104.04 785.55,-88.95 751.54,-78.52"/>
<polygon fill="midnightblue" stroke="midnightblue" points="752.54,-75.16 741.95,-75.58 750.48,-81.85 752.54,-75.16"/>
</g>
<!-- Node21&#45;&gt;Node7 -->
<g id="edge40" class="edge">
<title>Node21&#45;&gt;Node7</title>
<path fill="none" stroke="midnightblue" d="M864.19,-115.12C859.48,-114.07 854.59,-112.99 850,-112 775.82,-95.98 754.63,-93.74 676.52,-76.04"/>
<polygon fill="midnightblue" stroke="midnightblue" points="677.23,-72.62 666.71,-73.81 675.68,-79.44 677.23,-72.62"/>
</g>
<!-- Node21&#45;&gt;Node17 -->
<g id="edge38" class="edge">
<title>Node21&#45;&gt;Node17</title>
<path fill="none" stroke="midnightblue" d="M907.67,-112.32C925.39,-103.62 952.9,-90.12 973.29,-80.11"/>
<polygon fill="midnightblue" stroke="midnightblue" points="974.94,-83.2 982.37,-75.65 971.85,-76.92 974.94,-83.2"/>
</g>
<!-- Node22 -->
<g id="node22" class="node">
<title>Node22</title>
<g id="a_node22"><a xlink:title=" ">
<polygon fill="white" stroke="#bfbfbf" points="839,-56.5 839,-75.5 877,-75.5 877,-56.5 839,-56.5"/>
<text text-anchor="middle" x="858" y="-63.5" font-family="Helvetica,sans-Serif" font-size="10.00">map</text>
</a>
</g>
</g>
<!-- Node21&#45;&gt;Node22 -->
<g id="edge36" class="edge">
<title>Node21&#45;&gt;Node22</title>
<path fill="none" stroke="midnightblue" d="M884.72,-112.08C880.29,-104.61 873.84,-93.72 868.38,-84.52"/>
<polygon fill="midnightblue" stroke="midnightblue" points="871.29,-82.57 863.19,-75.75 865.27,-86.14 871.29,-82.57"/>
</g>
<!-- Node23 -->
<g id="node23" class="node">
<title>Node23</title>
<g id="a_node23"><a xlink:title=" ">
<polygon fill="white" stroke="#bfbfbf" points="895.5,-56.5 895.5,-75.5 940.5,-75.5 940.5,-56.5 895.5,-56.5"/>
<text text-anchor="middle" x="918" y="-63.5" font-family="Helvetica,sans-Serif" font-size="10.00">utility</text>
</a>
</g>
</g>
<!-- Node21&#45;&gt;Node23 -->
<g id="edge39" class="edge">
<title>Node21&#45;&gt;Node23</title>
<path fill="none" stroke="midnightblue" d="M894.62,-112.08C898.46,-104.69 904.02,-93.95 908.76,-84.81"/>
<polygon fill="midnightblue" stroke="midnightblue" points="911.97,-86.24 913.46,-75.75 905.75,-83.02 911.97,-86.24"/>
</g>
<!-- Node24 -->
<g id="node24" class="node">
<title>Node24</title>
<g id="a_node24"><a xlink:title=" ">
<polygon fill="white" stroke="#bfbfbf" points="761.5,-56.5 761.5,-75.5 820.5,-75.5 820.5,-56.5 761.5,-56.5"/>
<text text-anchor="middle" x="791" y="-63.5" font-family="Helvetica,sans-Serif" font-size="10.00">tmap.tcc</text>
</a>
</g>
</g>
<!-- Node21&#45;&gt;Node24 -->
<g id="edge41" class="edge">
<title>Node21&#45;&gt;Node24</title>
<path fill="none" stroke="midnightblue" d="M874.09,-112.32C858.36,-103.74 834.06,-90.49 815.79,-80.52"/>
<polygon fill="midnightblue" stroke="midnightblue" points="817.32,-77.37 806.87,-75.65 813.97,-83.52 817.32,-77.37"/>
</g>
<!-- Node25&#45;&gt;Node5 -->
<g id="edge45" class="edge">
<title>Node25&#45;&gt;Node5</title>
<path fill="none" stroke="midnightblue" d="M749.9,-112.08C743.76,-104.38 734.73,-93.03 727.26,-83.65"/>
<polygon fill="midnightblue" stroke="midnightblue" points="729.94,-81.39 720.97,-75.75 724.46,-85.75 729.94,-81.39"/>
</g>
<!-- Node25&#45;&gt;Node7 -->
<g id="edge46" class="edge">
<title>Node25&#45;&gt;Node7</title>
<path fill="none" stroke="midnightblue" d="M738.46,-112.44C719.38,-103.64 689.43,-89.81 667.56,-79.72"/>
<polygon fill="midnightblue" stroke="midnightblue" points="669,-76.53 658.45,-75.52 666.07,-82.88 669,-76.53"/>
</g>
<!-- Node25&#45;&gt;Node11 -->
<g id="edge47" class="edge">
<title>Node25&#45;&gt;Node11</title>
<path fill="none" stroke="midnightblue" d="M705.94,-116.44C593.25,-106.38 324.05,-82.36 207.43,-71.95"/>
<polygon fill="midnightblue" stroke="midnightblue" points="207.57,-68.45 197.3,-71.04 206.95,-75.42 207.57,-68.45"/>
</g>
<!-- Node26&#45;&gt;Node2 -->
<g id="edge50" class="edge">
<title>Node26&#45;&gt;Node2</title>
<path fill="none" stroke="midnightblue" d="M477.76,-336.44C451.53,-327.19 409.6,-312.39 380.75,-302.21"/>
<polygon fill="midnightblue" stroke="midnightblue" points="381.74,-298.84 371.14,-298.82 379.41,-305.44 381.74,-298.84"/>
</g>
<!-- Node26&#45;&gt;Node7 -->
<g id="edge49" class="edge">
<title>Node26&#45;&gt;Node7</title>
<path fill="none" stroke="midnightblue" d="M545.05,-337.57C597.16,-325.82 678,-297.52 678,-235 678,-235 678,-235 678,-177 678,-142.81 661.4,-105.76 650.14,-84.57"/>
<polygon fill="midnightblue" stroke="midnightblue" points="653.18,-82.83 645.28,-75.77 647.05,-86.22 653.18,-82.83"/>
</g>
<!-- Node26&#45;&gt;Node11 -->
<g id="edge53" class="edge">
<title>Node26&#45;&gt;Node11</title>
<path fill="none" stroke="midnightblue" d="M458.76,-337.04C343.58,-315.55 38,-256.5 38,-235 38,-235 38,-235 38,-177 38,-130.11 88.55,-96.89 122.33,-79.93"/>
<polygon fill="midnightblue" stroke="midnightblue" points="123.87,-83.07 131.36,-75.58 120.83,-76.77 123.87,-83.07"/>
</g>
<!-- Node26&#45;&gt;Node14 -->
<g id="edge51" class="edge">
<title>Node26&#45;&gt;Node14</title>
<path fill="none" stroke="midnightblue" d="M495.69,-336.24C489.37,-327.32 479.54,-312.99 472,-300 453.04,-267.34 452.96,-256.66 434,-224 428.52,-214.56 421.83,-204.41 416.16,-196.15"/>
<polygon fill="midnightblue" stroke="midnightblue" points="418.9,-193.96 410.31,-187.76 413.16,-197.96 418.9,-193.96"/>
</g>
<!-- Node26&#45;&gt;Node15 -->
<g id="edge52" class="edge">
<title>Node26&#45;&gt;Node15</title>
<path fill="none" stroke="midnightblue" d="M545.19,-339.49C627.39,-326.91 807.83,-288.92 917,-188 931.31,-174.77 942.11,-155.1 948.68,-140.87"/>
<polygon fill="midnightblue" stroke="midnightblue" points="951.92,-142.2 952.7,-131.63 945.5,-139.4 951.92,-142.2"/>
</g>
<!-- Node27 -->
<g id="node27" class="node">
<title>Node27</title>
<g id="a_node27"><a xlink:title=" ">
<polygon fill="white" stroke="#bfbfbf" points="481,-280.5 481,-299.5 545,-299.5 545,-280.5 481,-280.5"/>
<text text-anchor="middle" x="513" y="-287.5" font-family="Helvetica,sans-Serif" font-size="10.00">algorithm</text>
</a>
</g>
</g>
<!-- Node26&#45;&gt;Node27 -->
<g id="edge54" class="edge">
<title>Node26&#45;&gt;Node27</title>
<path fill="none" stroke="midnightblue" d="M503.82,-336.08C505.27,-328.93 507.37,-318.64 509.19,-309.69"/>
<polygon fill="midnightblue" stroke="midnightblue" points="512.65,-310.25 511.22,-299.75 505.79,-308.85 512.65,-310.25"/>
</g>
<!-- Node28&#45;&gt;Node13 -->
<g id="edge56" class="edge">
<title>Node28&#45;&gt;Node13</title>
<path fill="none" stroke="midnightblue" d="M408.61,-336.37C407.8,-318.62 405.94,-277.67 404.85,-253.6"/>
<polygon fill="midnightblue" stroke="midnightblue" points="408.34,-253.42 404.39,-243.59 401.35,-253.74 408.34,-253.42"/>
</g>
<!-- Node29&#45;&gt;Node7 -->
<g id="edge58" class="edge">
<title>Node29&#45;&gt;Node7</title>
<path fill="none" stroke="midnightblue" d="M831.8,-168.1C832.52,-154.18 831.74,-127.29 817,-112 816.38,-111.35 728.22,-89.14 676.57,-76.17"/>
<polygon fill="midnightblue" stroke="midnightblue" points="677.31,-72.75 666.76,-73.71 675.61,-79.54 677.31,-72.75"/>
</g>
<!-- Node29&#45;&gt;Node25 -->
<g id="edge59" class="edge">
<title>Node29&#45;&gt;Node25</title>
<path fill="none" stroke="midnightblue" d="M819.11,-168.32C807.85,-160.11 790.71,-147.6 777.29,-137.81"/>
<polygon fill="midnightblue" stroke="midnightblue" points="779.25,-134.9 769.11,-131.83 775.12,-140.56 779.25,-134.9"/>
</g>
</g>
</svg>
