<?xml version="1.0" encoding="UTF-8" standalone="no"?>
<!DOCTYPE svg PUBLIC "-//W3C//DTD SVG 1.1//EN"
 "http://www.w3.org/Graphics/SVG/1.1/DTD/svg11.dtd">
<!-- Generated by graphviz version 2.46.1 (20210213.1702)
 -->
<!-- Title: modfilebase.h Pages: 1 -->
<svg width="643pt" height="364pt"
 viewBox="0.00 0.00 642.50 364.00" xmlns="http://www.w3.org/2000/svg" xmlns:xlink="http://www.w3.org/1999/xlink">
<g id="graph0" class="graph" transform="scale(1 1) rotate(0) translate(4 360)">
<title>modfilebase.h</title>
<polygon fill="white" stroke="transparent" points="-4,4 -4,-360 638.5,-360 638.5,4 -4,4"/>
<!-- Node1 -->
<g id="node1" class="node">
<title>Node1</title>
<g id="a_node1"><a xlink:title=" ">
<polygon fill="#bfbfbf" stroke="black" points="414.5,-336.5 414.5,-355.5 491.5,-355.5 491.5,-336.5 414.5,-336.5"/>
<text text-anchor="middle" x="453" y="-343.5" font-family="Helvetica,sans-Serif" font-size="10.00">modfilebase.h</text>
</a>
</g>
</g>
<!-- Node2 -->
<g id="node2" class="node">
<title>Node2</title>
<g id="a_node2"><a xlink:href="taglib_8h.html" target="_top" xlink:title=" ">
<polygon fill="white" stroke="black" points="398,-56.5 398,-75.5 446,-75.5 446,-56.5 398,-56.5"/>
<text text-anchor="middle" x="422" y="-63.5" font-family="Helvetica,sans-Serif" font-size="10.00">taglib.h</text>
</a>
</g>
</g>
<!-- Node1&#45;&gt;Node2 -->
<g id="edge1" class="edge">
<title>Node1&#45;&gt;Node2</title>
<path fill="none" stroke="midnightblue" d="M455.56,-336.25C460.75,-317.74 472,-273.18 472,-235 472,-235 472,-235 472,-177 472,-141.18 449.76,-104.21 434.95,-83.56"/>
<polygon fill="midnightblue" stroke="midnightblue" points="437.73,-81.45 428.95,-75.52 432.12,-85.63 437.73,-81.45"/>
</g>
<!-- Node5 -->
<g id="node5" class="node">
<title>Node5</title>
<g id="a_node5"><a xlink:href="tfile_8h.html" target="_top" xlink:title=" ">
<polygon fill="white" stroke="black" points="190.5,-280.5 190.5,-299.5 231.5,-299.5 231.5,-280.5 190.5,-280.5"/>
<text text-anchor="middle" x="211" y="-287.5" font-family="Helvetica,sans-Serif" font-size="10.00">tfile.h</text>
</a>
</g>
</g>
<!-- Node1&#45;&gt;Node5 -->
<g id="edge4" class="edge">
<title>Node1&#45;&gt;Node5</title>
<path fill="none" stroke="midnightblue" d="M414.65,-336.44C366.66,-325.73 285.42,-307.61 241.46,-297.8"/>
<polygon fill="midnightblue" stroke="midnightblue" points="242.16,-294.37 231.64,-295.6 240.63,-301.2 242.16,-294.37"/>
</g>
<!-- Node6 -->
<g id="node6" class="node">
<title>Node6</title>
<g id="a_node6"><a xlink:href="taglib__export_8h.html" target="_top" xlink:title=" ">
<polygon fill="white" stroke="black" points="55,-56.5 55,-75.5 135,-75.5 135,-56.5 55,-56.5"/>
<text text-anchor="middle" x="95" y="-63.5" font-family="Helvetica,sans-Serif" font-size="10.00">taglib_export.h</text>
</a>
</g>
</g>
<!-- Node1&#45;&gt;Node6 -->
<g id="edge29" class="edge">
<title>Node1&#45;&gt;Node6</title>
<path fill="none" stroke="midnightblue" d="M414.38,-343.85C304.83,-339.56 0,-319.98 0,-235 0,-235 0,-235 0,-177 0,-133.74 42.61,-99.09 70.75,-80.91"/>
<polygon fill="midnightblue" stroke="midnightblue" points="72.66,-83.85 79.31,-75.6 68.97,-77.9 72.66,-83.85"/>
</g>
<!-- Node8 -->
<g id="node8" class="node">
<title>Node8</title>
<g id="a_node8"><a xlink:href="tstring_8h.html" target="_top" xlink:title=" ">
<polygon fill="white" stroke="black" points="298,-168.5 298,-187.5 350,-187.5 350,-168.5 298,-168.5"/>
<text text-anchor="middle" x="324" y="-175.5" font-family="Helvetica,sans-Serif" font-size="10.00">tstring.h</text>
</a>
</g>
</g>
<!-- Node1&#45;&gt;Node8 -->
<g id="edge24" class="edge">
<title>Node1&#45;&gt;Node8</title>
<path fill="none" stroke="midnightblue" d="M446.06,-336.08C425.41,-309.49 364.05,-230.54 337.03,-195.76"/>
<polygon fill="midnightblue" stroke="midnightblue" points="339.56,-193.32 330.66,-187.57 334.03,-197.61 339.56,-193.32"/>
</g>
<!-- Node13 -->
<g id="node13" class="node">
<title>Node13</title>
<g id="a_node13"><a xlink:href="tlist_8h.html" target="_top" xlink:title=" ">
<polygon fill="white" stroke="black" points="500.5,-280.5 500.5,-299.5 541.5,-299.5 541.5,-280.5 500.5,-280.5"/>
<text text-anchor="middle" x="521" y="-287.5" font-family="Helvetica,sans-Serif" font-size="10.00">tlist.h</text>
</a>
</g>
</g>
<!-- Node1&#45;&gt;Node13 -->
<g id="edge25" class="edge">
<title>Node1&#45;&gt;Node13</title>
<path fill="none" stroke="midnightblue" d="M463.93,-336.32C474.17,-328.18 489.72,-315.84 502,-306.09"/>
<polygon fill="midnightblue" stroke="midnightblue" points="504.22,-308.79 509.88,-299.83 499.87,-303.31 504.22,-308.79"/>
</g>
<!-- Node16 -->
<g id="node16" class="node">
<title>Node16</title>
<g id="a_node16"><a xlink:title=" ">
<polygon fill="white" stroke="#bfbfbf" points="560,-280.5 560,-299.5 616,-299.5 616,-280.5 560,-280.5"/>
<text text-anchor="middle" x="588" y="-287.5" font-family="Helvetica,sans-Serif" font-size="10.00">algorithm</text>
</a>
</g>
</g>
<!-- Node1&#45;&gt;Node16 -->
<g id="edge30" class="edge">
<title>Node1&#45;&gt;Node16</title>
<path fill="none" stroke="midnightblue" d="M474.39,-336.44C496.71,-327.52 531.9,-313.44 557.21,-303.32"/>
<polygon fill="midnightblue" stroke="midnightblue" points="558.72,-306.48 566.71,-299.52 556.12,-299.98 558.72,-306.48"/>
</g>
<!-- Node3 -->
<g id="node3" class="node">
<title>Node3</title>
<g id="a_node3"><a xlink:title=" ">
<polygon fill="white" stroke="#bfbfbf" points="397,-0.5 397,-19.5 477,-19.5 477,-0.5 397,-0.5"/>
<text text-anchor="middle" x="437" y="-7.5" font-family="Helvetica,sans-Serif" font-size="10.00">taglib_config.h</text>
</a>
</g>
</g>
<!-- Node2&#45;&gt;Node3 -->
<g id="edge2" class="edge">
<title>Node2&#45;&gt;Node3</title>
<path fill="none" stroke="midnightblue" d="M424.48,-56.08C426.49,-48.85 429.39,-38.41 431.89,-29.4"/>
<polygon fill="midnightblue" stroke="midnightblue" points="435.26,-30.32 434.57,-19.75 428.52,-28.45 435.26,-30.32"/>
</g>
<!-- Node4 -->
<g id="node4" class="node">
<title>Node4</title>
<g id="a_node4"><a xlink:title=" ">
<polygon fill="white" stroke="#bfbfbf" points="337.5,-0.5 337.5,-19.5 378.5,-19.5 378.5,-0.5 337.5,-0.5"/>
<text text-anchor="middle" x="358" y="-7.5" font-family="Helvetica,sans-Serif" font-size="10.00">string</text>
</a>
</g>
</g>
<!-- Node2&#45;&gt;Node4 -->
<g id="edge3" class="edge">
<title>Node2&#45;&gt;Node4</title>
<path fill="none" stroke="midnightblue" d="M411.72,-56.32C402.16,-48.26 387.72,-36.08 376.22,-26.37"/>
<polygon fill="midnightblue" stroke="midnightblue" points="378.37,-23.61 368.47,-19.83 373.86,-28.96 378.37,-23.61"/>
</g>
<!-- Node5&#45;&gt;Node2 -->
<g id="edge6" class="edge">
<title>Node5&#45;&gt;Node2</title>
<path fill="none" stroke="midnightblue" d="M228.15,-280.28C257.52,-264.74 318.22,-229.92 359,-188 388.48,-157.7 407.48,-110.83 416.28,-85.22"/>
<polygon fill="midnightblue" stroke="midnightblue" points="419.62,-86.26 419.43,-75.66 412.98,-84.07 419.62,-86.26"/>
</g>
<!-- Node5&#45;&gt;Node6 -->
<g id="edge5" class="edge">
<title>Node5&#45;&gt;Node6</title>
<path fill="none" stroke="midnightblue" d="M190.25,-285.94C166.83,-281.29 129.56,-270.05 111,-244 76.74,-195.91 84.76,-120.81 90.99,-85.95"/>
<polygon fill="midnightblue" stroke="midnightblue" points="94.5,-86.26 92.97,-75.77 87.63,-84.92 94.5,-86.26"/>
</g>
<!-- Node7 -->
<g id="node7" class="node">
<title>Node7</title>
<g id="a_node7"><a xlink:href="tag_8h.html" target="_top" xlink:title=" ">
<polygon fill="white" stroke="black" points="120,-224.5 120,-243.5 158,-243.5 158,-224.5 120,-224.5"/>
<text text-anchor="middle" x="139" y="-231.5" font-family="Helvetica,sans-Serif" font-size="10.00">tag.h</text>
</a>
</g>
</g>
<!-- Node5&#45;&gt;Node7 -->
<g id="edge7" class="edge">
<title>Node5&#45;&gt;Node7</title>
<path fill="none" stroke="midnightblue" d="M199.43,-280.32C188.58,-272.18 172.12,-259.84 159.12,-250.09"/>
<polygon fill="midnightblue" stroke="midnightblue" points="160.88,-247.03 150.78,-243.83 156.68,-252.63 160.88,-247.03"/>
</g>
<!-- Node9 -->
<g id="node9" class="node">
<title>Node9</title>
<g id="a_node9"><a xlink:href="tbytevector_8h.html" target="_top" xlink:title=" ">
<polygon fill="white" stroke="black" points="180.5,-112.5 180.5,-131.5 253.5,-131.5 253.5,-112.5 180.5,-112.5"/>
<text text-anchor="middle" x="217" y="-119.5" font-family="Helvetica,sans-Serif" font-size="10.00">tbytevector.h</text>
</a>
</g>
</g>
<!-- Node5&#45;&gt;Node9 -->
<g id="edge19" class="edge">
<title>Node5&#45;&gt;Node9</title>
<path fill="none" stroke="midnightblue" d="M209.53,-280.45C206.34,-260.6 199.51,-209.92 205,-168 206.16,-159.18 208.53,-149.63 210.87,-141.61"/>
<polygon fill="midnightblue" stroke="midnightblue" points="214.29,-142.42 213.91,-131.83 207.6,-140.34 214.29,-142.42"/>
</g>
<!-- Node12 -->
<g id="node12" class="node">
<title>Node12</title>
<g id="a_node12"><a xlink:href="tiostream_8h.html" target="_top" xlink:title=" ">
<polygon fill="white" stroke="black" points="214.5,-168.5 214.5,-187.5 279.5,-187.5 279.5,-168.5 214.5,-168.5"/>
<text text-anchor="middle" x="247" y="-175.5" font-family="Helvetica,sans-Serif" font-size="10.00">tiostream.h</text>
</a>
</g>
</g>
<!-- Node5&#45;&gt;Node12 -->
<g id="edge20" class="edge">
<title>Node5&#45;&gt;Node12</title>
<path fill="none" stroke="midnightblue" d="M213.82,-280.37C219.66,-262.54 233.16,-221.3 241.02,-197.27"/>
<polygon fill="midnightblue" stroke="midnightblue" points="244.4,-198.18 244.19,-187.59 237.75,-196.01 244.4,-198.18"/>
</g>
<!-- Node7&#45;&gt;Node6 -->
<g id="edge8" class="edge">
<title>Node7&#45;&gt;Node6</title>
<path fill="none" stroke="midnightblue" d="M136.63,-224.08C129.71,-197.95 109.37,-121.21 99.92,-85.58"/>
<polygon fill="midnightblue" stroke="midnightblue" points="103.22,-84.34 97.27,-75.57 96.45,-86.13 103.22,-84.34"/>
</g>
<!-- Node7&#45;&gt;Node8 -->
<g id="edge9" class="edge">
<title>Node7&#45;&gt;Node8</title>
<path fill="none" stroke="midnightblue" d="M158.1,-227.42C188.69,-218.49 249.18,-200.84 288.05,-189.49"/>
<polygon fill="midnightblue" stroke="midnightblue" points="289.3,-192.77 297.92,-186.61 287.34,-186.06 289.3,-192.77"/>
</g>
<!-- Node8&#45;&gt;Node2 -->
<g id="edge11" class="edge">
<title>Node8&#45;&gt;Node2</title>
<path fill="none" stroke="midnightblue" d="M334.01,-168.47C344.04,-159.73 359.72,-145.54 372,-132 385.99,-116.58 400.31,-97.56 410.02,-84.09"/>
<polygon fill="midnightblue" stroke="midnightblue" points="413,-85.94 415.95,-75.77 407.3,-81.88 413,-85.94"/>
</g>
<!-- Node8&#45;&gt;Node4 -->
<g id="edge17" class="edge">
<title>Node8&#45;&gt;Node4</title>
<path fill="none" stroke="midnightblue" d="M325.83,-168.08C331.18,-141.95 346.9,-65.21 354.2,-29.58"/>
<polygon fill="midnightblue" stroke="midnightblue" points="357.67,-30.07 356.25,-19.57 350.81,-28.66 357.67,-30.07"/>
</g>
<!-- Node8&#45;&gt;Node6 -->
<g id="edge10" class="edge">
<title>Node8&#45;&gt;Node6</title>
<path fill="none" stroke="midnightblue" d="M297.82,-169.94C257.15,-158.89 182.26,-138.1 171,-132 147.3,-119.15 124.4,-97.98 110.04,-83.31"/>
<polygon fill="midnightblue" stroke="midnightblue" points="112.42,-80.74 102.99,-75.92 107.36,-85.57 112.42,-80.74"/>
</g>
<!-- Node8&#45;&gt;Node9 -->
<g id="edge12" class="edge">
<title>Node8&#45;&gt;Node9</title>
<path fill="none" stroke="midnightblue" d="M306.81,-168.32C289.65,-159.66 263.05,-146.24 243.25,-136.25"/>
<polygon fill="midnightblue" stroke="midnightblue" points="244.65,-133.04 234.15,-131.65 241.5,-139.28 244.65,-133.04"/>
</g>
<!-- Node11 -->
<g id="node11" class="node">
<title>Node11</title>
<g id="a_node11"><a xlink:title=" ">
<polygon fill="white" stroke="#bfbfbf" points="255,-56.5 255,-75.5 309,-75.5 309,-56.5 255,-56.5"/>
<text text-anchor="middle" x="282" y="-63.5" font-family="Helvetica,sans-Serif" font-size="10.00">iostream</text>
</a>
</g>
</g>
<!-- Node8&#45;&gt;Node11 -->
<g id="edge18" class="edge">
<title>Node8&#45;&gt;Node11</title>
<path fill="none" stroke="midnightblue" d="M320.7,-168.37C313.87,-150.46 298.01,-108.92 288.85,-84.95"/>
<polygon fill="midnightblue" stroke="midnightblue" points="292.12,-83.69 285.28,-75.59 285.58,-86.18 292.12,-83.69"/>
</g>
<!-- Node9&#45;&gt;Node2 -->
<g id="edge13" class="edge">
<title>Node9&#45;&gt;Node2</title>
<path fill="none" stroke="midnightblue" d="M249.48,-112.44C287.41,-102.45 349.85,-86.01 388.3,-75.88"/>
<polygon fill="midnightblue" stroke="midnightblue" points="389.22,-79.25 398,-73.32 387.43,-72.49 389.22,-79.25"/>
</g>
<!-- Node9&#45;&gt;Node6 -->
<g id="edge14" class="edge">
<title>Node9&#45;&gt;Node6</title>
<path fill="none" stroke="midnightblue" d="M197.67,-112.44C177.68,-103.6 146.26,-89.69 123.44,-79.59"/>
<polygon fill="midnightblue" stroke="midnightblue" points="124.8,-76.36 114.24,-75.52 121.97,-82.76 124.8,-76.36"/>
</g>
<!-- Node10 -->
<g id="node10" class="node">
<title>Node10</title>
<g id="a_node10"><a xlink:title=" ">
<polygon fill="white" stroke="#bfbfbf" points="193,-56.5 193,-75.5 237,-75.5 237,-56.5 193,-56.5"/>
<text text-anchor="middle" x="215" y="-63.5" font-family="Helvetica,sans-Serif" font-size="10.00">vector</text>
</a>
</g>
</g>
<!-- Node9&#45;&gt;Node10 -->
<g id="edge15" class="edge">
<title>Node9&#45;&gt;Node10</title>
<path fill="none" stroke="midnightblue" d="M216.67,-112.08C216.41,-105.01 216.03,-94.86 215.7,-85.99"/>
<polygon fill="midnightblue" stroke="midnightblue" points="219.19,-85.61 215.32,-75.75 212.2,-85.87 219.19,-85.61"/>
</g>
<!-- Node9&#45;&gt;Node11 -->
<g id="edge16" class="edge">
<title>Node9&#45;&gt;Node11</title>
<path fill="none" stroke="midnightblue" d="M227.44,-112.32C237.15,-104.26 251.82,-92.08 263.5,-82.37"/>
<polygon fill="midnightblue" stroke="midnightblue" points="265.91,-84.92 271.37,-75.83 261.44,-79.53 265.91,-84.92"/>
</g>
<!-- Node12&#45;&gt;Node2 -->
<g id="edge22" class="edge">
<title>Node12&#45;&gt;Node2</title>
<path fill="none" stroke="midnightblue" d="M260.73,-168.37C290.89,-149.41 363.14,-104 399.82,-80.94"/>
<polygon fill="midnightblue" stroke="midnightblue" points="401.73,-83.88 408.33,-75.59 398,-77.95 401.73,-83.88"/>
</g>
<!-- Node12&#45;&gt;Node6 -->
<g id="edge21" class="edge">
<title>Node12&#45;&gt;Node6</title>
<path fill="none" stroke="midnightblue" d="M214.26,-169.03C191.09,-162.14 160.28,-150.35 138,-132 122.54,-119.26 110.58,-99.52 103.24,-85.13"/>
<polygon fill="midnightblue" stroke="midnightblue" points="106.23,-83.26 98.73,-75.78 99.92,-86.3 106.23,-83.26"/>
</g>
<!-- Node12&#45;&gt;Node9 -->
<g id="edge23" class="edge">
<title>Node12&#45;&gt;Node9</title>
<path fill="none" stroke="midnightblue" d="M242.05,-168.08C237.9,-160.61 231.85,-149.72 226.73,-140.52"/>
<polygon fill="midnightblue" stroke="midnightblue" points="229.78,-138.79 221.86,-131.75 223.66,-142.19 229.78,-138.79"/>
</g>
<!-- Node13&#45;&gt;Node2 -->
<g id="edge26" class="edge">
<title>Node13&#45;&gt;Node2</title>
<path fill="none" stroke="midnightblue" d="M521.45,-280.43C522.45,-253.32 522.37,-167.93 486,-112 477.3,-98.62 463.11,-88.05 450.29,-80.52"/>
<polygon fill="midnightblue" stroke="midnightblue" points="451.76,-77.33 441.31,-75.58 448.38,-83.46 451.76,-77.33"/>
</g>
<!-- Node14 -->
<g id="node14" class="node">
<title>Node14</title>
<g id="a_node14"><a xlink:title=" ">
<polygon fill="white" stroke="#bfbfbf" points="605.5,-224.5 605.5,-243.5 634.5,-243.5 634.5,-224.5 605.5,-224.5"/>
<text text-anchor="middle" x="620" y="-231.5" font-family="Helvetica,sans-Serif" font-size="10.00">list</text>
</a>
</g>
</g>
<!-- Node13&#45;&gt;Node14 -->
<g id="edge27" class="edge">
<title>Node13&#45;&gt;Node14</title>
<path fill="none" stroke="midnightblue" d="M536.91,-280.32C553.01,-271.54 578.1,-257.86 596.5,-247.82"/>
<polygon fill="midnightblue" stroke="midnightblue" points="598.32,-250.81 605.42,-242.95 594.97,-244.67 598.32,-250.81"/>
</g>
<!-- Node15 -->
<g id="node15" class="node">
<title>Node15</title>
<g id="a_node15"><a xlink:title=" ">
<polygon fill="white" stroke="#bfbfbf" points="538.5,-224.5 538.5,-243.5 587.5,-243.5 587.5,-224.5 538.5,-224.5"/>
<text text-anchor="middle" x="563" y="-231.5" font-family="Helvetica,sans-Serif" font-size="10.00">tlist.tcc</text>
</a>
</g>
</g>
<!-- Node13&#45;&gt;Node15 -->
<g id="edge28" class="edge">
<title>Node13&#45;&gt;Node15</title>
<path fill="none" stroke="midnightblue" d="M527.94,-280.08C533.93,-272.38 542.75,-261.03 550.05,-251.65"/>
<polygon fill="midnightblue" stroke="midnightblue" points="552.82,-253.79 556.19,-243.75 547.29,-249.5 552.82,-253.79"/>
</g>
</g>
</svg>
