<?xml version="1.0" encoding="UTF-8" standalone="no"?>
<!DOCTYPE svg PUBLIC "-//W3C//DTD SVG 1.1//EN"
 "http://www.w3.org/Graphics/SVG/1.1/DTD/svg11.dtd">
<!-- Generated by graphviz version 2.46.1 (20210213.1702)
 -->
<!-- Title: mp4atom.h Pages: 1 -->
<svg width="114pt" height="252pt"
 viewBox="0.00 0.00 114.00 252.00" xmlns="http://www.w3.org/2000/svg" xmlns:xlink="http://www.w3.org/1999/xlink">
<g id="graph0" class="graph" transform="scale(1 1) rotate(0) translate(4 248)">
<title>mp4atom.h</title>
<polygon fill="white" stroke="transparent" points="-4,4 -4,-248 110,-248 110,4 -4,4"/>
<!-- Node1 -->
<g id="node1" class="node">
<title>Node1</title>
<g id="a_node1"><a xlink:title=" ">
<polygon fill="#bfbfbf" stroke="black" points="41,-224.5 41,-243.5 106,-243.5 106,-224.5 41,-224.5"/>
<text text-anchor="middle" x="73.5" y="-231.5" font-family="Helvetica,sans-Serif" font-size="10.00">mp4atom.h</text>
</a>
</g>
</g>
<!-- Node2 -->
<g id="node2" class="node">
<title>Node2</title>
<g id="a_node2"><a xlink:href="mp4coverart_8h.html" target="_top" xlink:title=" ">
<polygon fill="white" stroke="black" points="0,-168.5 0,-187.5 79,-187.5 79,-168.5 0,-168.5"/>
<text text-anchor="middle" x="39.5" y="-175.5" font-family="Helvetica,sans-Serif" font-size="10.00">mp4coverart.h</text>
</a>
</g>
</g>
<!-- Node1&#45;&gt;Node2 -->
<g id="edge1" class="edge">
<title>Node1&#45;&gt;Node2</title>
<path fill="none" stroke="midnightblue" d="M62.52,-215.57C56.67,-206.27 49.73,-195.25 45.01,-187.75"/>
<polygon fill="midnightblue" stroke="midnightblue" points="59.6,-217.49 67.89,-224.08 65.52,-213.76 59.6,-217.49"/>
</g>
<!-- Node4 -->
<g id="node4" class="node">
<title>Node4</title>
<g id="a_node4"><a xlink:href="mp4tag_8h.html" target="_top" xlink:title=" ">
<polygon fill="white" stroke="black" points="45,-56.5 45,-75.5 102,-75.5 102,-56.5 45,-56.5"/>
<text text-anchor="middle" x="73.5" y="-63.5" font-family="Helvetica,sans-Serif" font-size="10.00">mp4tag.h</text>
</a>
</g>
</g>
<!-- Node1&#45;&gt;Node4 -->
<g id="edge5" class="edge">
<title>Node1&#45;&gt;Node4</title>
<path fill="none" stroke="midnightblue" d="M81.06,-214.78C84.01,-206.72 87.03,-197.04 88.5,-188 95.32,-146 82.18,-95.36 76.22,-75.54"/>
<polygon fill="midnightblue" stroke="midnightblue" points="77.74,-213.66 77.36,-224.25 84.26,-216.21 77.74,-213.66"/>
</g>
<!-- Node3 -->
<g id="node3" class="node">
<title>Node3</title>
<g id="a_node3"><a xlink:href="mp4item_8h.html" target="_top" xlink:title=" ">
<polygon fill="white" stroke="black" points="13.5,-112.5 13.5,-131.5 75.5,-131.5 75.5,-112.5 13.5,-112.5"/>
<text text-anchor="middle" x="44.5" y="-119.5" font-family="Helvetica,sans-Serif" font-size="10.00">mp4item.h</text>
</a>
</g>
</g>
<!-- Node2&#45;&gt;Node3 -->
<g id="edge2" class="edge">
<title>Node2&#45;&gt;Node3</title>
<path fill="none" stroke="midnightblue" d="M41.25,-158.1C42.08,-149.14 43.03,-138.86 43.69,-131.75"/>
<polygon fill="midnightblue" stroke="midnightblue" points="37.76,-157.8 40.33,-168.08 44.73,-158.45 37.76,-157.8"/>
</g>
<!-- Node3&#45;&gt;Node4 -->
<g id="edge3" class="edge">
<title>Node3&#45;&gt;Node4</title>
<path fill="none" stroke="midnightblue" d="M54.18,-102.98C59.1,-93.82 64.86,-83.09 68.8,-75.75"/>
<polygon fill="midnightblue" stroke="midnightblue" points="50.94,-101.62 49.29,-112.08 57.1,-104.93 50.94,-101.62"/>
</g>
<!-- Node5 -->
<g id="node5" class="node">
<title>Node5</title>
<g id="a_node5"><a xlink:href="mp4file_8h.html" target="_top" xlink:title=" ">
<polygon fill="white" stroke="black" points="45.5,-0.5 45.5,-19.5 101.5,-19.5 101.5,-0.5 45.5,-0.5"/>
<text text-anchor="middle" x="73.5" y="-7.5" font-family="Helvetica,sans-Serif" font-size="10.00">mp4file.h</text>
</a>
</g>
</g>
<!-- Node4&#45;&gt;Node5 -->
<g id="edge4" class="edge">
<title>Node4&#45;&gt;Node5</title>
<path fill="none" stroke="midnightblue" d="M73.5,-45.8C73.5,-36.91 73.5,-26.78 73.5,-19.75"/>
<polygon fill="midnightblue" stroke="midnightblue" points="70,-46.08 73.5,-56.08 77,-46.08 70,-46.08"/>
</g>
</g>
</svg>
