<?xml version="1.0" encoding="UTF-8" standalone="no"?>
<!DOCTYPE svg PUBLIC "-//W3C//DTD SVG 1.1//EN"
 "http://www.w3.org/Graphics/SVG/1.1/DTD/svg11.dtd">
<!-- Generated by graphviz version 2.42.4 (0)
 -->
<!-- Title: mp4atom.h Pages: 1 -->
<svg width="834pt" height="302pt"
 viewBox="0.00 0.00 833.50 302.00" xmlns="http://www.w3.org/2000/svg" xmlns:xlink="http://www.w3.org/1999/xlink">
<g id="graph0" class="graph" transform="scale(1 1) rotate(0) translate(4 298)">
<title>mp4atom.h</title>
<!-- Node1 -->
<g id="Node000001" class="node">
<title>Node1</title>
<g id="a_Node000001"><a xlink:title=" ">
<polygon fill="#999999" stroke="#666666" points="401.5,-294 328.5,-294 328.5,-275 401.5,-275 401.5,-294"/>
<text text-anchor="middle" x="365" y="-282" font-family="Helvetica,sans-Serif" font-size="10.00">mp4atom.h</text>
</a>
</g>
</g>
<!-- Node2 -->
<g id="Node000002" class="node">
<title>Node2</title>
<g id="a_Node000002"><a xlink:href="tfile_8h.html" target="_top" xlink:title=" ">
<polygon fill="white" stroke="#666666" points="277,-239 233,-239 233,-220 277,-220 277,-239"/>
<text text-anchor="middle" x="255" y="-227" font-family="Helvetica,sans-Serif" font-size="10.00">tfile.h</text>
</a>
</g>
</g>
<!-- Node1&#45;&gt;Node2 -->
<g id="edge1_Node000001_Node000002" class="edge">
<title>Node1&#45;&gt;Node2</title>
<g id="a_edge1_Node000001_Node000002"><a xlink:title=" ">
<path fill="none" stroke="#63b8ff" d="M347.33,-274.98C329.71,-266.5 302.42,-253.35 282.07,-243.54"/>
<polygon fill="#63b8ff" stroke="#63b8ff" points="283.52,-240.36 272.99,-239.17 280.48,-246.66 283.52,-240.36"/>
</a>
</g>
</g>
<!-- Node14 -->
<g id="Node000014" class="node">
<title>Node14</title>
<g id="a_Node000014"><a xlink:href="tlist_8h.html" target="_top" xlink:title=" ">
<polygon fill="white" stroke="#666666" points="630,-74 586,-74 586,-55 630,-55 630,-74"/>
<text text-anchor="middle" x="608" y="-62" font-family="Helvetica,sans-Serif" font-size="10.00">tlist.h</text>
</a>
</g>
</g>
<!-- Node1&#45;&gt;Node14 -->
<g id="edge35_Node000001_Node000014" class="edge">
<title>Node1&#45;&gt;Node14</title>
<g id="a_edge35_Node000001_Node000014"><a xlink:title=" ">
<path fill="none" stroke="#63b8ff" d="M374.87,-274.85C401.49,-251.48 476.97,-185.08 539,-129 556.97,-112.76 577.36,-93.94 591.29,-81.03"/>
<polygon fill="#63b8ff" stroke="#63b8ff" points="593.72,-83.55 598.67,-74.18 588.96,-78.42 593.72,-83.55"/>
</a>
</g>
</g>
<!-- Node3 -->
<g id="Node000003" class="node">
<title>Node3</title>
<g id="a_Node000003"><a xlink:href="tbytevector_8h.html" target="_top" xlink:title=" ">
<polygon fill="white" stroke="#666666" points="385.5,-74 304.5,-74 304.5,-55 385.5,-55 385.5,-74"/>
<text text-anchor="middle" x="345" y="-62" font-family="Helvetica,sans-Serif" font-size="10.00">tbytevector.h</text>
</a>
</g>
</g>
<!-- Node2&#45;&gt;Node3 -->
<g id="edge2_Node000002_Node000003" class="edge">
<title>Node2&#45;&gt;Node3</title>
<g id="a_edge2_Node000002_Node000003"><a xlink:title=" ">
<path fill="none" stroke="#63b8ff" d="M260.3,-219.82C270.73,-202.65 294.5,-163.09 313,-129 321.27,-113.76 330.1,-96.13 336.38,-83.32"/>
<polygon fill="#63b8ff" stroke="#63b8ff" points="339.58,-84.74 340.82,-74.21 333.29,-81.67 339.58,-84.74"/>
</a>
</g>
</g>
<!-- Node7 -->
<g id="Node000007" class="node">
<title>Node7</title>
<g id="a_Node000007"><a xlink:href="taglib__export_8h.html" target="_top" xlink:title=" ">
<polygon fill="white" stroke="#666666" points="197,-19 107,-19 107,0 197,0 197,-19"/>
<text text-anchor="middle" x="152" y="-7" font-family="Helvetica,sans-Serif" font-size="10.00">taglib_export.h</text>
</a>
</g>
</g>
<!-- Node2&#45;&gt;Node7 -->
<g id="edge12_Node000002_Node000007" class="edge">
<title>Node2&#45;&gt;Node7</title>
<g id="a_edge12_Node000002_Node000007"><a xlink:title=" ">
<path fill="none" stroke="#63b8ff" d="M247.71,-219.82C229.35,-197.42 181.25,-135.1 161,-74 156.23,-59.6 153.98,-42.53 152.93,-29.72"/>
<polygon fill="#63b8ff" stroke="#63b8ff" points="156.4,-29.11 152.26,-19.35 149.41,-29.56 156.4,-29.11"/>
</a>
</g>
</g>
<!-- Node8 -->
<g id="Node000008" class="node">
<title>Node8</title>
<g id="a_Node000008"><a xlink:href="tiostream_8h.html" target="_top" xlink:title=" ">
<polygon fill="white" stroke="#666666" points="136.5,-184 63.5,-184 63.5,-165 136.5,-165 136.5,-184"/>
<text text-anchor="middle" x="100" y="-172" font-family="Helvetica,sans-Serif" font-size="10.00">tiostream.h</text>
</a>
</g>
</g>
<!-- Node2&#45;&gt;Node8 -->
<g id="edge7_Node000002_Node000008" class="edge">
<title>Node2&#45;&gt;Node8</title>
<g id="a_edge7_Node000002_Node000008"><a xlink:title=" ">
<path fill="none" stroke="#63b8ff" d="M232.79,-220.91C207.15,-212.14 164.65,-197.6 134.64,-187.35"/>
<polygon fill="#63b8ff" stroke="#63b8ff" points="135.59,-183.97 124.99,-184.05 133.32,-190.59 135.59,-183.97"/>
</a>
</g>
</g>
<!-- Node9 -->
<g id="Node000009" class="node">
<title>Node9</title>
<g id="a_Node000009"><a xlink:href="taglib_8h.html" target="_top" xlink:title=" ">
<polygon fill="white" stroke="#666666" points="62.5,-129 9.5,-129 9.5,-110 62.5,-110 62.5,-129"/>
<text text-anchor="middle" x="36" y="-117" font-family="Helvetica,sans-Serif" font-size="10.00">taglib.h</text>
</a>
</g>
</g>
<!-- Node2&#45;&gt;Node9 -->
<g id="edge13_Node000002_Node000009" class="edge">
<title>Node2&#45;&gt;Node9</title>
<g id="a_edge13_Node000002_Node000009"><a xlink:title=" ">
<path fill="none" stroke="#63b8ff" d="M232.69,-226.42C185.9,-221.62 79.74,-208.28 54,-184 41.9,-172.58 37.73,-153.69 36.4,-139.48"/>
<polygon fill="#63b8ff" stroke="#63b8ff" points="39.88,-139.1 35.83,-129.31 32.89,-139.49 39.88,-139.1"/>
</a>
</g>
</g>
<!-- Node11 -->
<g id="Node000011" class="node">
<title>Node11</title>
<g id="a_Node000011"><a xlink:href="tag_8h.html" target="_top" xlink:title=" ">
<polygon fill="white" stroke="#666666" points="414.5,-184 373.5,-184 373.5,-165 414.5,-165 414.5,-184"/>
<text text-anchor="middle" x="394" y="-172" font-family="Helvetica,sans-Serif" font-size="10.00">tag.h</text>
</a>
</g>
</g>
<!-- Node2&#45;&gt;Node11 -->
<g id="edge14_Node000002_Node000011" class="edge">
<title>Node2&#45;&gt;Node11</title>
<g id="a_edge14_Node000002_Node000011"><a xlink:title=" ">
<path fill="none" stroke="#63b8ff" d="M277.02,-220.1C300.51,-211.15 337.85,-196.91 364.01,-186.93"/>
<polygon fill="#63b8ff" stroke="#63b8ff" points="365.34,-190.17 373.44,-183.34 362.85,-183.63 365.34,-190.17"/>
</a>
</g>
</g>
<!-- Node4 -->
<g id="Node000004" class="node">
<title>Node4</title>
<g id="a_Node000004"><a xlink:title=" ">
<polygon fill="#e0e0e0" stroke="#999999" points="483,-19 425,-19 425,0 483,0 483,-19"/>
<text text-anchor="middle" x="454" y="-7" font-family="Helvetica,sans-Serif" font-size="10.00">memory</text>
</a>
</g>
</g>
<!-- Node3&#45;&gt;Node4 -->
<g id="edge3_Node000003_Node000004" class="edge">
<title>Node3&#45;&gt;Node4</title>
<g id="a_edge3_Node000003_Node000004"><a xlink:title=" ">
<path fill="none" stroke="#63b8ff" d="M362.51,-54.98C379.97,-46.5 407.01,-33.35 427.17,-23.54"/>
<polygon fill="#63b8ff" stroke="#63b8ff" points="428.71,-26.69 436.17,-19.17 425.64,-20.4 428.71,-26.69"/>
</a>
</g>
</g>
<!-- Node5 -->
<g id="Node000005" class="node">
<title>Node5</title>
<g id="a_Node000005"><a xlink:title=" ">
<polygon fill="#e0e0e0" stroke="#999999" points="262.5,-19 215.5,-19 215.5,0 262.5,0 262.5,-19"/>
<text text-anchor="middle" x="239" y="-7" font-family="Helvetica,sans-Serif" font-size="10.00">vector</text>
</a>
</g>
</g>
<!-- Node3&#45;&gt;Node5 -->
<g id="edge4_Node000003_Node000005" class="edge">
<title>Node3&#45;&gt;Node5</title>
<g id="a_edge4_Node000003_Node000005"><a xlink:title=" ">
<path fill="none" stroke="#63b8ff" d="M327.97,-54.98C311.07,-46.54 284.94,-33.47 265.36,-23.68"/>
<polygon fill="#63b8ff" stroke="#63b8ff" points="266.85,-20.51 256.34,-19.17 263.72,-26.77 266.85,-20.51"/>
</a>
</g>
</g>
<!-- Node6 -->
<g id="Node000006" class="node">
<title>Node6</title>
<g id="a_Node000006"><a xlink:title=" ">
<polygon fill="#e0e0e0" stroke="#999999" points="329,-19 281,-19 281,0 329,0 329,-19"/>
<text text-anchor="middle" x="305" y="-7" font-family="Helvetica,sans-Serif" font-size="10.00">iosfwd</text>
</a>
</g>
</g>
<!-- Node3&#45;&gt;Node6 -->
<g id="edge5_Node000003_Node000006" class="edge">
<title>Node3&#45;&gt;Node6</title>
<g id="a_edge5_Node000003_Node000006"><a xlink:title=" ">
<path fill="none" stroke="#63b8ff" d="M338.39,-54.75C332.74,-47.26 324.46,-36.28 317.55,-27.13"/>
<polygon fill="#63b8ff" stroke="#63b8ff" points="320.3,-24.96 311.48,-19.09 314.71,-29.18 320.3,-24.96"/>
</a>
</g>
</g>
<!-- Node3&#45;&gt;Node7 -->
<g id="edge6_Node000003_Node000007" class="edge">
<title>Node3&#45;&gt;Node7</title>
<g id="a_edge6_Node000003_Node000007"><a xlink:title=" ">
<path fill="none" stroke="#63b8ff" d="M313.99,-54.98C281.17,-45.97 229.2,-31.7 193.01,-21.76"/>
<polygon fill="#63b8ff" stroke="#63b8ff" points="193.82,-18.36 183.25,-19.08 191.97,-25.11 193.82,-18.36"/>
</a>
</g>
</g>
<!-- Node8&#45;&gt;Node3 -->
<g id="edge8_Node000008_Node000003" class="edge">
<title>Node8&#45;&gt;Node3</title>
<g id="a_edge8_Node000008_Node000003"><a xlink:title=" ">
<path fill="none" stroke="#63b8ff" d="M136.82,-171.15C176.36,-167.22 239.84,-156.77 287,-129 306.42,-117.57 323.1,-97.54 333.52,-83.03"/>
<polygon fill="#63b8ff" stroke="#63b8ff" points="336.65,-84.66 339.43,-74.44 330.88,-80.69 336.65,-84.66"/>
</a>
</g>
</g>
<!-- Node8&#45;&gt;Node7 -->
<g id="edge9_Node000008_Node000007" class="edge">
<title>Node8&#45;&gt;Node7</title>
<g id="a_edge9_Node000008_Node000007"><a xlink:title=" ">
<path fill="none" stroke="#63b8ff" d="M100.68,-164.87C102.47,-144.88 108.32,-94.17 124,-55 127.85,-45.38 133.8,-35.53 139.22,-27.56"/>
<polygon fill="#63b8ff" stroke="#63b8ff" points="142.23,-29.36 145.19,-19.18 136.53,-25.3 142.23,-29.36"/>
</a>
</g>
</g>
<!-- Node8&#45;&gt;Node9 -->
<g id="edge10_Node000008_Node000009" class="edge">
<title>Node8&#45;&gt;Node9</title>
<g id="a_edge10_Node000008_Node000009"><a xlink:title=" ">
<path fill="none" stroke="#63b8ff" d="M89.72,-164.98C80.16,-157.07 65.72,-145.11 54.22,-135.58"/>
<polygon fill="#63b8ff" stroke="#63b8ff" points="56.4,-132.85 46.47,-129.17 51.94,-138.24 56.4,-132.85"/>
</a>
</g>
</g>
<!-- Node10 -->
<g id="Node000010" class="node">
<title>Node10</title>
<g id="a_Node000010"><a xlink:title=" ">
<polygon fill="#e0e0e0" stroke="#999999" points="72,-74 0,-74 0,-55 72,-55 72,-74"/>
<text text-anchor="middle" x="36" y="-62" font-family="Helvetica,sans-Serif" font-size="10.00">sys/types.h</text>
</a>
</g>
</g>
<!-- Node9&#45;&gt;Node10 -->
<g id="edge11_Node000009_Node000010" class="edge">
<title>Node9&#45;&gt;Node10</title>
<g id="a_edge11_Node000009_Node000010"><a xlink:title=" ">
<path fill="none" stroke="#63b8ff" d="M36,-109.75C36,-102.8 36,-92.85 36,-84.13"/>
<polygon fill="#63b8ff" stroke="#63b8ff" points="39.5,-84.09 36,-74.09 32.5,-84.09 39.5,-84.09"/>
</a>
</g>
</g>
<!-- Node11&#45;&gt;Node7 -->
<g id="edge15_Node000011_Node000007" class="edge">
<title>Node11&#45;&gt;Node7</title>
<g id="a_edge15_Node000011_Node000007"><a xlink:title=" ">
<path fill="none" stroke="#63b8ff" d="M373.31,-173.81C336.81,-173.29 260.28,-167.32 212,-129 179.6,-103.28 163.15,-55.43 156.2,-29.08"/>
<polygon fill="#63b8ff" stroke="#63b8ff" points="159.57,-28.11 153.79,-19.24 152.77,-29.78 159.57,-28.11"/>
</a>
</g>
</g>
<!-- Node12 -->
<g id="Node000012" class="node">
<title>Node12</title>
<g id="a_Node000012"><a xlink:href="tstring_8h.html" target="_top" xlink:title=" ">
<polygon fill="white" stroke="#666666" points="278.5,-129 221.5,-129 221.5,-110 278.5,-110 278.5,-129"/>
<text text-anchor="middle" x="250" y="-117" font-family="Helvetica,sans-Serif" font-size="10.00">tstring.h</text>
</a>
</g>
</g>
<!-- Node11&#45;&gt;Node12 -->
<g id="edge16_Node000011_Node000012" class="edge">
<title>Node11&#45;&gt;Node12</title>
<g id="a_edge16_Node000011_Node000012"><a xlink:title=" ">
<path fill="none" stroke="#63b8ff" d="M373.37,-165.91C349.82,-157.24 310.97,-142.94 283.16,-132.7"/>
<polygon fill="#63b8ff" stroke="#63b8ff" points="284.06,-129.3 273.46,-129.14 281.64,-135.87 284.06,-129.3"/>
</a>
</g>
</g>
<!-- Node11&#45;&gt;Node14 -->
<g id="edge20_Node000011_Node000014" class="edge">
<title>Node11&#45;&gt;Node14</title>
<g id="a_edge20_Node000011_Node000014"><a xlink:title=" ">
<path fill="none" stroke="#63b8ff" d="M414.9,-166.83C438.37,-159.02 477.31,-145.09 509,-129 537.61,-114.48 568.39,-93.86 587.9,-80.1"/>
<polygon fill="#63b8ff" stroke="#63b8ff" points="590.16,-82.79 596.27,-74.13 586.1,-77.09 590.16,-82.79"/>
</a>
</g>
</g>
<!-- Node18 -->
<g id="Node000018" class="node">
<title>Node18</title>
<g id="a_Node000018"><a xlink:href="tvariant_8h.html" target="_top" xlink:title=" ">
<polygon fill="white" stroke="#666666" points="500,-129 436,-129 436,-110 500,-110 500,-129"/>
<text text-anchor="middle" x="468" y="-117" font-family="Helvetica,sans-Serif" font-size="10.00">tvariant.h</text>
</a>
</g>
</g>
<!-- Node11&#45;&gt;Node18 -->
<g id="edge25_Node000011_Node000018" class="edge">
<title>Node11&#45;&gt;Node18</title>
<g id="a_edge25_Node000011_Node000018"><a xlink:title=" ">
<path fill="none" stroke="#63b8ff" d="M405.89,-164.98C417.15,-156.92 434.29,-144.65 447.71,-135.03"/>
<polygon fill="#63b8ff" stroke="#63b8ff" points="449.8,-137.84 455.89,-129.17 445.73,-132.15 449.8,-137.84"/>
</a>
</g>
</g>
<!-- Node12&#45;&gt;Node3 -->
<g id="edge18_Node000012_Node000003" class="edge">
<title>Node12&#45;&gt;Node3</title>
<g id="a_edge18_Node000012_Node000003"><a xlink:title=" ">
<path fill="none" stroke="#63b8ff" d="M265.26,-109.98C280.13,-101.69 302.98,-88.94 320.42,-79.22"/>
<polygon fill="#63b8ff" stroke="#63b8ff" points="322.43,-82.1 329.46,-74.17 319.02,-75.99 322.43,-82.1"/>
</a>
</g>
</g>
<!-- Node12&#45;&gt;Node7 -->
<g id="edge19_Node000012_Node000007" class="edge">
<title>Node12&#45;&gt;Node7</title>
<g id="a_edge19_Node000012_Node000007"><a xlink:title=" ">
<path fill="none" stroke="#63b8ff" d="M241.98,-109.66C225.53,-91.54 187.76,-49.91 166.76,-26.77"/>
<polygon fill="#63b8ff" stroke="#63b8ff" points="169.17,-24.21 159.86,-19.16 163.98,-28.92 169.17,-24.21"/>
</a>
</g>
</g>
<!-- Node13 -->
<g id="Node000013" class="node">
<title>Node13</title>
<g id="a_Node000013"><a xlink:title=" ">
<polygon fill="#e0e0e0" stroke="#999999" points="286,-74 242,-74 242,-55 286,-55 286,-74"/>
<text text-anchor="middle" x="264" y="-62" font-family="Helvetica,sans-Serif" font-size="10.00">string</text>
</a>
</g>
</g>
<!-- Node12&#45;&gt;Node13 -->
<g id="edge17_Node000012_Node000013" class="edge">
<title>Node12&#45;&gt;Node13</title>
<g id="a_edge17_Node000012_Node000013"><a xlink:title=" ">
<path fill="none" stroke="#63b8ff" d="M252.31,-109.75C254.17,-102.72 256.84,-92.62 259.15,-83.84"/>
<polygon fill="#63b8ff" stroke="#63b8ff" points="262.56,-84.65 261.73,-74.09 255.79,-82.86 262.56,-84.65"/>
</a>
</g>
</g>
<!-- Node14&#45;&gt;Node4 -->
<g id="edge23_Node000014_Node000004" class="edge">
<title>Node14&#45;&gt;Node4</title>
<g id="a_edge23_Node000014_Node000004"><a xlink:title=" ">
<path fill="none" stroke="#63b8ff" d="M585.94,-55.91C560.46,-47.14 518.23,-32.6 488.42,-22.35"/>
<polygon fill="#63b8ff" stroke="#63b8ff" points="489.42,-18.99 478.83,-19.05 487.15,-25.61 489.42,-18.99"/>
</a>
</g>
</g>
<!-- Node15 -->
<g id="Node000015" class="node">
<title>Node15</title>
<g id="a_Node000015"><a xlink:title=" ">
<polygon fill="#e0e0e0" stroke="#999999" points="754,-19 722,-19 722,0 754,0 754,-19"/>
<text text-anchor="middle" x="738" y="-7" font-family="Helvetica,sans-Serif" font-size="10.00">list</text>
</a>
</g>
</g>
<!-- Node14&#45;&gt;Node15 -->
<g id="edge21_Node000014_Node000015" class="edge">
<title>Node14&#45;&gt;Node15</title>
<g id="a_edge21_Node000014_Node000015"><a xlink:title=" ">
<path fill="none" stroke="#63b8ff" d="M628.89,-54.98C651.6,-45.73 687.91,-30.92 712.34,-20.96"/>
<polygon fill="#63b8ff" stroke="#63b8ff" points="713.75,-24.17 721.69,-17.15 711.11,-17.68 713.75,-24.17"/>
</a>
</g>
</g>
<!-- Node16 -->
<g id="Node000016" class="node">
<title>Node16</title>
<g id="a_Node000016"><a xlink:title=" ">
<polygon fill="#e0e0e0" stroke="#999999" points="703.5,-19 620.5,-19 620.5,0 703.5,0 703.5,-19"/>
<text text-anchor="middle" x="662" y="-7" font-family="Helvetica,sans-Serif" font-size="10.00">initializer_list</text>
</a>
</g>
</g>
<!-- Node14&#45;&gt;Node16 -->
<g id="edge22_Node000014_Node000016" class="edge">
<title>Node14&#45;&gt;Node16</title>
<g id="a_edge22_Node000014_Node000016"><a xlink:title=" ">
<path fill="none" stroke="#63b8ff" d="M616.92,-54.75C624.78,-47.03 636.43,-35.6 645.92,-26.28"/>
<polygon fill="#63b8ff" stroke="#63b8ff" points="648.56,-28.59 653.25,-19.09 643.66,-23.6 648.56,-28.59"/>
</a>
</g>
</g>
<!-- Node17 -->
<g id="Node000017" class="node">
<title>Node17</title>
<g id="a_Node000017"><a xlink:title=" ">
<polygon fill="#e0e0e0" stroke="#999999" points="825.5,-19 772.5,-19 772.5,0 825.5,0 825.5,-19"/>
<text text-anchor="middle" x="799" y="-7" font-family="Helvetica,sans-Serif" font-size="10.00">tlist.tcc</text>
</a>
</g>
</g>
<!-- Node14&#45;&gt;Node17 -->
<g id="edge24_Node000014_Node000017" class="edge">
<title>Node14&#45;&gt;Node17</title>
<g id="a_edge24_Node000014_Node000017"><a xlink:title=" ">
<path fill="none" stroke="#63b8ff" d="M630.28,-57.32C662.71,-48.32 723.29,-31.51 762.35,-20.67"/>
<polygon fill="#63b8ff" stroke="#63b8ff" points="763.57,-23.96 772.27,-17.92 761.7,-17.22 763.57,-23.96"/>
</a>
</g>
</g>
<!-- Node18&#45;&gt;Node7 -->
<g id="edge34_Node000018_Node000007" class="edge">
<title>Node18&#45;&gt;Node7</title>
<g id="a_edge34_Node000018_Node000007"><a xlink:title=" ">
<path fill="none" stroke="#63b8ff" d="M460.8,-109.9C448.6,-95.94 422.41,-68.57 394,-55 385.59,-50.98 276.15,-31.76 207.36,-19.93"/>
<polygon fill="#63b8ff" stroke="#63b8ff" points="207.56,-16.41 197.11,-18.17 206.37,-23.31 207.56,-16.41"/>
</a>
</g>
</g>
<!-- Node18&#45;&gt;Node14 -->
<g id="edge27_Node000018_Node000014" class="edge">
<title>Node18&#45;&gt;Node14</title>
<g id="a_edge27_Node000018_Node000014"><a xlink:title=" ">
<path fill="none" stroke="#63b8ff" d="M490.49,-109.98C513.66,-101.21 549.97,-87.47 576.1,-77.58"/>
<polygon fill="#63b8ff" stroke="#63b8ff" points="577.45,-80.81 585.56,-73.99 574.97,-74.26 577.45,-80.81"/>
</a>
</g>
</g>
<!-- Node19 -->
<g id="Node000019" class="node">
<title>Node19</title>
<g id="a_Node000019"><a xlink:title=" ">
<polygon fill="#e0e0e0" stroke="#999999" points="568,-74 512,-74 512,-55 568,-55 568,-74"/>
<text text-anchor="middle" x="540" y="-62" font-family="Helvetica,sans-Serif" font-size="10.00">sstream</text>
</a>
</g>
</g>
<!-- Node18&#45;&gt;Node19 -->
<g id="edge26_Node000018_Node000019" class="edge">
<title>Node18&#45;&gt;Node19</title>
<g id="a_edge26_Node000018_Node000019"><a xlink:title=" ">
<path fill="none" stroke="#63b8ff" d="M479.57,-109.98C490.42,-102 506.88,-89.88 519.88,-80.31"/>
<polygon fill="#63b8ff" stroke="#63b8ff" points="522.24,-82.92 528.22,-74.17 518.09,-77.28 522.24,-82.92"/>
</a>
</g>
</g>
<!-- Node20 -->
<g id="Node000020" class="node">
<title>Node20</title>
<g id="a_Node000020"><a xlink:href="tmap_8h.html" target="_top" xlink:title=" ">
<polygon fill="white" stroke="#666666" points="493.5,-74 442.5,-74 442.5,-55 493.5,-55 493.5,-74"/>
<text text-anchor="middle" x="468" y="-62" font-family="Helvetica,sans-Serif" font-size="10.00">tmap.h</text>
</a>
</g>
</g>
<!-- Node18&#45;&gt;Node20 -->
<g id="edge28_Node000018_Node000020" class="edge">
<title>Node18&#45;&gt;Node20</title>
<g id="a_edge28_Node000018_Node000020"><a xlink:title=" ">
<path fill="none" stroke="#63b8ff" d="M468,-109.75C468,-102.8 468,-92.85 468,-84.13"/>
<polygon fill="#63b8ff" stroke="#63b8ff" points="471.5,-84.09 468,-74.09 464.5,-84.09 471.5,-84.09"/>
</a>
</g>
</g>
<!-- Node20&#45;&gt;Node4 -->
<g id="edge30_Node000020_Node000004" class="edge">
<title>Node20&#45;&gt;Node4</title>
<g id="a_edge30_Node000020_Node000004"><a xlink:title=" ">
<path fill="none" stroke="#63b8ff" d="M465.69,-54.75C463.83,-47.72 461.16,-37.62 458.85,-28.84"/>
<polygon fill="#63b8ff" stroke="#63b8ff" points="462.21,-27.86 456.27,-19.09 455.44,-29.65 462.21,-27.86"/>
</a>
</g>
</g>
<!-- Node20&#45;&gt;Node16 -->
<g id="edge31_Node000020_Node000016" class="edge">
<title>Node20&#45;&gt;Node16</title>
<g id="a_edge31_Node000020_Node000016"><a xlink:title=" ">
<path fill="none" stroke="#63b8ff" d="M493.76,-56.46C526.21,-47.6 582.38,-32.25 620.82,-21.75"/>
<polygon fill="#63b8ff" stroke="#63b8ff" points="621.94,-25.07 630.67,-19.06 620.1,-18.32 621.94,-25.07"/>
</a>
</g>
</g>
<!-- Node21 -->
<g id="Node000021" class="node">
<title>Node21</title>
<g id="a_Node000021"><a xlink:title=" ">
<polygon fill="#e0e0e0" stroke="#999999" points="539,-19 501,-19 501,0 539,0 539,-19"/>
<text text-anchor="middle" x="520" y="-7" font-family="Helvetica,sans-Serif" font-size="10.00">map</text>
</a>
</g>
</g>
<!-- Node20&#45;&gt;Node21 -->
<g id="edge29_Node000020_Node000021" class="edge">
<title>Node20&#45;&gt;Node21</title>
<g id="a_edge29_Node000020_Node000021"><a xlink:title=" ">
<path fill="none" stroke="#63b8ff" d="M476.59,-54.75C484.16,-47.03 495.38,-35.6 504.51,-26.28"/>
<polygon fill="#63b8ff" stroke="#63b8ff" points="507.07,-28.68 511.57,-19.09 502.07,-23.78 507.07,-28.68"/>
</a>
</g>
</g>
<!-- Node22 -->
<g id="Node000022" class="node">
<title>Node22</title>
<g id="a_Node000022"><a xlink:title=" ">
<polygon fill="#e0e0e0" stroke="#999999" points="602.5,-19 557.5,-19 557.5,0 602.5,0 602.5,-19"/>
<text text-anchor="middle" x="580" y="-7" font-family="Helvetica,sans-Serif" font-size="10.00">utility</text>
</a>
</g>
</g>
<!-- Node20&#45;&gt;Node22 -->
<g id="edge32_Node000020_Node000022" class="edge">
<title>Node20&#45;&gt;Node22</title>
<g id="a_edge32_Node000020_Node000022"><a xlink:title=" ">
<path fill="none" stroke="#63b8ff" d="M485.99,-54.98C503.93,-46.5 531.72,-33.35 552.43,-23.54"/>
<polygon fill="#63b8ff" stroke="#63b8ff" points="554.14,-26.61 561.68,-19.17 551.14,-20.28 554.14,-26.61"/>
</a>
</g>
</g>
<!-- Node23 -->
<g id="Node000023" class="node">
<title>Node23</title>
<g id="a_Node000023"><a xlink:title=" ">
<polygon fill="#e0e0e0" stroke="#999999" points="406.5,-19 347.5,-19 347.5,0 406.5,0 406.5,-19"/>
<text text-anchor="middle" x="377" y="-7" font-family="Helvetica,sans-Serif" font-size="10.00">tmap.tcc</text>
</a>
</g>
</g>
<!-- Node20&#45;&gt;Node23 -->
<g id="edge33_Node000020_Node000023" class="edge">
<title>Node20&#45;&gt;Node23</title>
<g id="a_edge33_Node000020_Node000023"><a xlink:title=" ">
<path fill="none" stroke="#63b8ff" d="M453.38,-54.98C439.14,-46.69 417.25,-33.94 400.55,-24.22"/>
<polygon fill="#63b8ff" stroke="#63b8ff" points="402.29,-21.18 391.89,-19.17 398.77,-27.23 402.29,-21.18"/>
</a>
</g>
</g>
</g>
</svg>
