<?xml version="1.0" encoding="UTF-8" standalone="no"?>
<!DOCTYPE svg PUBLIC "-//W3C//DTD SVG 1.1//EN"
 "http://www.w3.org/Graphics/SVG/1.1/DTD/svg11.dtd">
<!-- Generated by graphviz version 2.42.4 (0)
 -->
<!-- Title: mp4atom.h Pages: 1 -->
<svg width="192pt" height="247pt"
 viewBox="0.00 0.00 192.00 247.00" xmlns="http://www.w3.org/2000/svg" xmlns:xlink="http://www.w3.org/1999/xlink">
<g id="graph0" class="graph" transform="scale(1 1) rotate(0) translate(4 243)">
<title>mp4atom.h</title>
<!-- Node1 -->
<g id="Node000001" class="node">
<title>Node1</title>
<g id="a_Node000001"><a xlink:title=" ">
<polygon fill="#999999" stroke="#666666" points="153,-239 80,-239 80,-220 153,-220 153,-239"/>
<text text-anchor="middle" x="116.5" y="-227" font-family="Helvetica,sans-Serif" font-size="10.00">mp4atom.h</text>
</a>
</g>
</g>
<!-- Node2 -->
<g id="Node000002" class="node">
<title>Node2</title>
<g id="a_Node000002"><a xlink:href="mp4coverart_8h.html" target="_top" xlink:title=" ">
<polygon fill="white" stroke="#666666" points="124.5,-184 36.5,-184 36.5,-165 124.5,-165 124.5,-184"/>
<text text-anchor="middle" x="80.5" y="-172" font-family="Helvetica,sans-Serif" font-size="10.00">mp4coverart.h</text>
</a>
</g>
</g>
<!-- Node1&#45;&gt;Node2 -->
<g id="edge1_Node000001_Node000002" class="edge">
<title>Node1&#45;&gt;Node2</title>
<g id="a_edge1_Node000001_Node000002"><a xlink:title=" ">
<path fill="none" stroke="#63b8ff" d="M104.88,-211.39C98.68,-202.27 91.33,-191.45 86.33,-184.09"/>
<polygon fill="#63b8ff" stroke="#63b8ff" points="102.04,-213.44 110.56,-219.75 107.83,-209.51 102.04,-213.44"/>
</a>
</g>
</g>
<!-- Node5 -->
<g id="Node000005" class="node">
<title>Node5</title>
<g id="a_Node000005"><a xlink:href="mp4tag_8h.html" target="_top" xlink:title=" ">
<polygon fill="white" stroke="#666666" points="184,-74 121,-74 121,-55 184,-55 184,-74"/>
<text text-anchor="middle" x="152.5" y="-62" font-family="Helvetica,sans-Serif" font-size="10.00">mp4tag.h</text>
</a>
</g>
</g>
<!-- Node1&#45;&gt;Node5 -->
<g id="edge6_Node000001_Node000005" class="edge">
<title>Node1&#45;&gt;Node5</title>
<g id="a_edge6_Node000001_Node000005"><a xlink:title=" ">
<path fill="none" stroke="#63b8ff" d="M124.37,-210.43C127.6,-202.45 131.12,-192.89 133.5,-184 144.29,-143.75 149.82,-94.06 151.72,-74.25"/>
<polygon fill="#63b8ff" stroke="#63b8ff" points="121.08,-209.24 120.43,-219.81 127.53,-211.95 121.08,-209.24"/>
</a>
</g>
</g>
<!-- Node3 -->
<g id="Node000003" class="node">
<title>Node3</title>
<g id="a_Node000003"><a xlink:href="mp4item_8h.html" target="_top" xlink:title=" ">
<polygon fill="white" stroke="#666666" points="115.5,-129 45.5,-129 45.5,-110 115.5,-110 115.5,-129"/>
<text text-anchor="middle" x="80.5" y="-117" font-family="Helvetica,sans-Serif" font-size="10.00">mp4item.h</text>
</a>
</g>
</g>
<!-- Node2&#45;&gt;Node3 -->
<g id="edge2_Node000002_Node000003" class="edge">
<title>Node2&#45;&gt;Node3</title>
<g id="a_edge2_Node000002_Node000003"><a xlink:title=" ">
<path fill="none" stroke="#63b8ff" d="M80.5,-154.66C80.5,-145.93 80.5,-135.99 80.5,-129.09"/>
<polygon fill="#63b8ff" stroke="#63b8ff" points="77,-154.75 80.5,-164.75 84,-154.75 77,-154.75"/>
</a>
</g>
</g>
<!-- Node4 -->
<g id="Node000004" class="node">
<title>Node4</title>
<g id="a_Node000004"><a xlink:href="mp4itemfactory_8h.html" target="_top" xlink:title=" ">
<polygon fill="white" stroke="#666666" points="103,-74 0,-74 0,-55 103,-55 103,-74"/>
<text text-anchor="middle" x="51.5" y="-62" font-family="Helvetica,sans-Serif" font-size="10.00">mp4itemfactory.h</text>
</a>
</g>
</g>
<!-- Node3&#45;&gt;Node4 -->
<g id="edge3_Node000003_Node000004" class="edge">
<title>Node3&#45;&gt;Node4</title>
<g id="a_edge3_Node000003_Node000004"><a xlink:title=" ">
<path fill="none" stroke="#63b8ff" d="M70.82,-100.82C65.9,-91.82 60.14,-81.29 56.2,-74.09"/>
<polygon fill="#63b8ff" stroke="#63b8ff" points="67.84,-102.66 75.71,-109.75 73.98,-99.3 67.84,-102.66"/>
</a>
</g>
</g>
<!-- Node3&#45;&gt;Node5 -->
<g id="edge4_Node000003_Node000005" class="edge">
<title>Node3&#45;&gt;Node5</title>
<g id="a_edge4_Node000003_Node000005"><a xlink:title=" ">
<path fill="none" stroke="#63b8ff" d="M100.37,-103.88C113.32,-94.34 129.8,-82.21 140.72,-74.17"/>
<polygon fill="#63b8ff" stroke="#63b8ff" points="98.05,-101.24 92.07,-109.98 102.2,-106.88 98.05,-101.24"/>
</a>
</g>
</g>
<!-- Node6 -->
<g id="Node000006" class="node">
<title>Node6</title>
<g id="a_Node000006"><a xlink:href="mp4file_8h.html" target="_top" xlink:title=" ">
<polygon fill="white" stroke="#666666" points="183.5,-19 121.5,-19 121.5,0 183.5,0 183.5,-19"/>
<text text-anchor="middle" x="152.5" y="-7" font-family="Helvetica,sans-Serif" font-size="10.00">mp4file.h</text>
</a>
</g>
</g>
<!-- Node5&#45;&gt;Node6 -->
<g id="edge5_Node000005_Node000006" class="edge">
<title>Node5&#45;&gt;Node6</title>
<g id="a_edge5_Node000005_Node000006"><a xlink:title=" ">
<path fill="none" stroke="#63b8ff" d="M152.5,-44.66C152.5,-35.93 152.5,-25.99 152.5,-19.09"/>
<polygon fill="#63b8ff" stroke="#63b8ff" points="149,-44.75 152.5,-54.75 156,-44.75 149,-44.75"/>
</a>
</g>
</g>
</g>
</svg>
