<?xml version="1.0" encoding="UTF-8" standalone="no"?>
<!DOCTYPE svg PUBLIC "-//W3C//DTD SVG 1.1//EN"
 "http://www.w3.org/Graphics/SVG/1.1/DTD/svg11.dtd">
<!-- Generated by graphviz version 2.43.0 (0)
 -->
<!-- Title: mp4atom.h Pages: 1 -->
<svg width="838pt" height="308pt"
 viewBox="0.00 0.00 838.32 308.00" xmlns="http://www.w3.org/2000/svg" xmlns:xlink="http://www.w3.org/1999/xlink">
<g id="graph0" class="graph" transform="scale(1 1) rotate(0) translate(4 304)">
<title>mp4atom.h</title>
<polygon fill="white" stroke="transparent" points="-4,4 -4,-304 834.32,-304 834.32,4 -4,4"/>
<!-- Node1 -->
<g id="node1" class="node">
<title>Node1</title>
<g id="a_node1"><a xlink:title=" ">
<polygon fill="#bfbfbf" stroke="black" points="359.32,-280.5 359.32,-299.5 432.32,-299.5 432.32,-280.5 359.32,-280.5"/>
<text text-anchor="middle" x="395.82" y="-287.5" font-family="Helvetica,sans-Serif" font-size="10.00">mp4atom.h</text>
</a>
</g>
</g>
<!-- Node2 -->
<g id="node2" class="node">
<title>Node2</title>
<g id="a_node2"><a xlink:href="tfile_8h.html" target="_top" xlink:title=" ">
<polygon fill="white" stroke="black" points="271.82,-224.5 271.82,-243.5 315.82,-243.5 315.82,-224.5 271.82,-224.5"/>
<text text-anchor="middle" x="293.82" y="-231.5" font-family="Helvetica,sans-Serif" font-size="10.00">tfile.h</text>
</a>
</g>
</g>
<!-- Node1&#45;&gt;Node2 -->
<g id="edge1" class="edge">
<title>Node1&#45;&gt;Node2</title>
<path fill="none" stroke="midnightblue" d="M379.43,-280.32C363.15,-271.7 337.95,-258.36 319.1,-248.39"/>
<polygon fill="midnightblue" stroke="midnightblue" points="320.64,-245.24 310.16,-243.65 317.36,-251.43 320.64,-245.24"/>
</g>
<!-- Node14 -->
<g id="node14" class="node">
<title>Node14</title>
<g id="a_node14"><a xlink:href="tlist_8h.html" target="_top" xlink:title=" ">
<polygon fill="white" stroke="black" points="530.82,-56.5 530.82,-75.5 574.82,-75.5 574.82,-56.5 530.82,-56.5"/>
<text text-anchor="middle" x="552.82" y="-63.5" font-family="Helvetica,sans-Serif" font-size="10.00">tlist.h</text>
</a>
</g>
</g>
<!-- Node1&#45;&gt;Node14 -->
<g id="edge35" class="edge">
<title>Node1&#45;&gt;Node14</title>
<path fill="none" stroke="midnightblue" d="M401.97,-280.3C425.37,-247.22 509.03,-128.91 540.62,-84.24"/>
<polygon fill="midnightblue" stroke="midnightblue" points="543.62,-86.07 546.53,-75.88 537.9,-82.03 543.62,-86.07"/>
</g>
<!-- Node3 -->
<g id="node3" class="node">
<title>Node3</title>
<g id="a_node3"><a xlink:href="tbytevector_8h.html" target="_top" xlink:title=" ">
<polygon fill="white" stroke="black" points="285.32,-56.5 285.32,-75.5 366.32,-75.5 366.32,-56.5 285.32,-56.5"/>
<text text-anchor="middle" x="325.82" y="-63.5" font-family="Helvetica,sans-Serif" font-size="10.00">tbytevector.h</text>
</a>
</g>
</g>
<!-- Node2&#45;&gt;Node3 -->
<g id="edge2" class="edge">
<title>Node2&#45;&gt;Node3</title>
<path fill="none" stroke="midnightblue" d="M295.54,-224.08C300.57,-197.95 315.37,-121.21 322.24,-85.58"/>
<polygon fill="midnightblue" stroke="midnightblue" points="325.71,-86.05 324.17,-75.57 318.84,-84.72 325.71,-86.05"/>
</g>
<!-- Node7 -->
<g id="node7" class="node">
<title>Node7</title>
<g id="a_node7"><a xlink:href="taglib__export_8h.html" target="_top" xlink:title=" ">
<polygon fill="white" stroke="black" points="111.82,-0.5 111.82,-19.5 201.82,-19.5 201.82,-0.5 111.82,-0.5"/>
<text text-anchor="middle" x="156.82" y="-7.5" font-family="Helvetica,sans-Serif" font-size="10.00">taglib_export.h</text>
</a>
</g>
</g>
<!-- Node2&#45;&gt;Node7 -->
<g id="edge12" class="edge">
<title>Node2&#45;&gt;Node7</title>
<path fill="none" stroke="midnightblue" d="M271.44,-231.96C219.16,-228.2 88.8,-210.98 27.82,-132 6.6,-104.53 -10.83,-83.91 9.82,-56 30.73,-27.73 69.05,-16.64 101.32,-12.53"/>
<polygon fill="midnightblue" stroke="midnightblue" points="101.99,-15.98 111.55,-11.43 101.24,-9.02 101.99,-15.98"/>
</g>
<!-- Node8 -->
<g id="node8" class="node">
<title>Node8</title>
<g id="a_node8"><a xlink:href="tiostream_8h.html" target="_top" xlink:title=" ">
<polygon fill="white" stroke="black" points="158.32,-168.5 158.32,-187.5 231.32,-187.5 231.32,-168.5 158.32,-168.5"/>
<text text-anchor="middle" x="194.82" y="-175.5" font-family="Helvetica,sans-Serif" font-size="10.00">tiostream.h</text>
</a>
</g>
</g>
<!-- Node2&#45;&gt;Node8 -->
<g id="edge7" class="edge">
<title>Node2&#45;&gt;Node8</title>
<path fill="none" stroke="midnightblue" d="M277.91,-224.32C262.18,-215.74 237.87,-202.49 219.61,-192.52"/>
<polygon fill="midnightblue" stroke="midnightblue" points="221.14,-189.37 210.68,-187.65 217.79,-195.52 221.14,-189.37"/>
</g>
<!-- Node9 -->
<g id="node9" class="node">
<title>Node9</title>
<g id="a_node9"><a xlink:href="taglib_8h.html" target="_top" xlink:title=" ">
<polygon fill="white" stroke="black" points="37.32,-112.5 37.32,-131.5 90.32,-131.5 90.32,-112.5 37.32,-112.5"/>
<text text-anchor="middle" x="63.82" y="-119.5" font-family="Helvetica,sans-Serif" font-size="10.00">taglib.h</text>
</a>
</g>
</g>
<!-- Node2&#45;&gt;Node9 -->
<g id="edge13" class="edge">
<title>Node2&#45;&gt;Node9</title>
<path fill="none" stroke="midnightblue" d="M271.76,-228.69C242.51,-222.43 189.8,-209.17 148.82,-188 122.96,-174.64 96.91,-153.28 80.59,-138.72"/>
<polygon fill="midnightblue" stroke="midnightblue" points="82.75,-135.95 73,-131.81 78.04,-141.13 82.75,-135.95"/>
</g>
<!-- Node11 -->
<g id="node11" class="node">
<title>Node11</title>
<g id="a_node11"><a xlink:href="tag_8h.html" target="_top" xlink:title=" ">
<polygon fill="white" stroke="black" points="354.32,-168.5 354.32,-187.5 395.32,-187.5 395.32,-168.5 354.32,-168.5"/>
<text text-anchor="middle" x="374.82" y="-175.5" font-family="Helvetica,sans-Serif" font-size="10.00">tag.h</text>
</a>
</g>
</g>
<!-- Node2&#45;&gt;Node11 -->
<g id="edge14" class="edge">
<title>Node2&#45;&gt;Node11</title>
<path fill="none" stroke="midnightblue" d="M306.83,-224.32C319.35,-215.98 338.5,-203.21 353.29,-193.35"/>
<polygon fill="midnightblue" stroke="midnightblue" points="355.46,-196.11 361.84,-187.65 351.57,-190.29 355.46,-196.11"/>
</g>
<!-- Node4 -->
<g id="node4" class="node">
<title>Node4</title>
<g id="a_node4"><a xlink:title=" ">
<polygon fill="white" stroke="#bfbfbf" points="351.82,-0.5 351.82,-19.5 409.82,-19.5 409.82,-0.5 351.82,-0.5"/>
<text text-anchor="middle" x="380.82" y="-7.5" font-family="Helvetica,sans-Serif" font-size="10.00">memory</text>
</a>
</g>
</g>
<!-- Node3&#45;&gt;Node4 -->
<g id="edge3" class="edge">
<title>Node3&#45;&gt;Node4</title>
<path fill="none" stroke="midnightblue" d="M334.9,-56.08C342.99,-48.14 355.01,-36.34 364.73,-26.8"/>
<polygon fill="midnightblue" stroke="midnightblue" points="367.22,-29.25 371.9,-19.75 362.32,-24.26 367.22,-29.25"/>
</g>
<!-- Node5 -->
<g id="node5" class="node">
<title>Node5</title>
<g id="a_node5"><a xlink:title=" ">
<polygon fill="white" stroke="#bfbfbf" points="220.32,-0.5 220.32,-19.5 267.32,-19.5 267.32,-0.5 220.32,-0.5"/>
<text text-anchor="middle" x="243.82" y="-7.5" font-family="Helvetica,sans-Serif" font-size="10.00">vector</text>
</a>
</g>
</g>
<!-- Node3&#45;&gt;Node5 -->
<g id="edge4" class="edge">
<title>Node3&#45;&gt;Node5</title>
<path fill="none" stroke="midnightblue" d="M312.64,-56.32C299.97,-47.98 280.58,-35.21 265.61,-25.35"/>
<polygon fill="midnightblue" stroke="midnightblue" points="267.24,-22.23 256.96,-19.65 263.39,-28.08 267.24,-22.23"/>
</g>
<!-- Node6 -->
<g id="node6" class="node">
<title>Node6</title>
<g id="a_node6"><a xlink:title=" ">
<polygon fill="white" stroke="#bfbfbf" points="285.82,-0.5 285.82,-19.5 333.82,-19.5 333.82,-0.5 285.82,-0.5"/>
<text text-anchor="middle" x="309.82" y="-7.5" font-family="Helvetica,sans-Serif" font-size="10.00">iosfwd</text>
</a>
</g>
</g>
<!-- Node3&#45;&gt;Node6 -->
<g id="edge5" class="edge">
<title>Node3&#45;&gt;Node6</title>
<path fill="none" stroke="midnightblue" d="M323.17,-56.08C321.03,-48.85 317.94,-38.41 315.27,-29.4"/>
<polygon fill="midnightblue" stroke="midnightblue" points="318.61,-28.34 312.41,-19.75 311.9,-30.33 318.61,-28.34"/>
</g>
<!-- Node3&#45;&gt;Node7 -->
<g id="edge6" class="edge">
<title>Node3&#45;&gt;Node7</title>
<path fill="none" stroke="midnightblue" d="M299.04,-56.44C270.48,-47.32 225.08,-32.81 193.28,-22.65"/>
<polygon fill="midnightblue" stroke="midnightblue" points="194.06,-19.23 183.47,-19.52 191.93,-25.89 194.06,-19.23"/>
</g>
<!-- Node8&#45;&gt;Node3 -->
<g id="edge8" class="edge">
<title>Node8&#45;&gt;Node3</title>
<path fill="none" stroke="midnightblue" d="M211.68,-168.43C227.1,-160.19 250.13,-146.82 267.82,-132 285.13,-117.5 301.97,-97.81 313.01,-83.91"/>
<polygon fill="midnightblue" stroke="midnightblue" points="316,-85.77 319.37,-75.72 310.47,-81.47 316,-85.77"/>
</g>
<!-- Node8&#45;&gt;Node7 -->
<g id="edge9" class="edge">
<title>Node8&#45;&gt;Node7</title>
<path fill="none" stroke="midnightblue" d="M179.03,-168.47C166.61,-160.77 150.21,-148.18 142.82,-132 127.35,-98.16 139.76,-53.67 149.03,-29.16"/>
<polygon fill="midnightblue" stroke="midnightblue" points="152.35,-30.28 152.84,-19.69 145.86,-27.67 152.35,-30.28"/>
</g>
<!-- Node8&#45;&gt;Node9 -->
<g id="edge10" class="edge">
<title>Node8&#45;&gt;Node9</title>
<path fill="none" stroke="midnightblue" d="M174.06,-168.44C152.5,-159.56 118.55,-145.56 94.02,-135.45"/>
<polygon fill="midnightblue" stroke="midnightblue" points="95.06,-132.09 84.48,-131.52 92.39,-138.56 95.06,-132.09"/>
</g>
<!-- Node10 -->
<g id="node10" class="node">
<title>Node10</title>
<g id="a_node10"><a xlink:title=" ">
<polygon fill="white" stroke="#bfbfbf" points="18.82,-56.5 18.82,-75.5 90.82,-75.5 90.82,-56.5 18.82,-56.5"/>
<text text-anchor="middle" x="54.82" y="-63.5" font-family="Helvetica,sans-Serif" font-size="10.00">sys/types.h</text>
</a>
</g>
</g>
<!-- Node9&#45;&gt;Node10 -->
<g id="edge11" class="edge">
<title>Node9&#45;&gt;Node10</title>
<path fill="none" stroke="midnightblue" d="M62.33,-112.08C61.14,-104.93 59.42,-94.64 57.93,-85.69"/>
<polygon fill="midnightblue" stroke="midnightblue" points="61.37,-85.04 56.28,-75.75 54.47,-86.19 61.37,-85.04"/>
</g>
<!-- Node11&#45;&gt;Node7 -->
<g id="edge15" class="edge">
<title>Node11&#45;&gt;Node7</title>
<path fill="none" stroke="midnightblue" d="M354.29,-174.5C311.77,-168.92 216.07,-154.19 192.82,-132 164.5,-104.98 158.17,-56.78 156.93,-30.09"/>
<polygon fill="midnightblue" stroke="midnightblue" points="160.43,-29.7 156.66,-19.8 153.43,-29.89 160.43,-29.7"/>
</g>
<!-- Node12 -->
<g id="node12" class="node">
<title>Node12</title>
<g id="a_node12"><a xlink:href="tstring_8h.html" target="_top" xlink:title=" ">
<polygon fill="white" stroke="black" points="202.32,-112.5 202.32,-131.5 259.32,-131.5 259.32,-112.5 202.32,-112.5"/>
<text text-anchor="middle" x="230.82" y="-119.5" font-family="Helvetica,sans-Serif" font-size="10.00">tstring.h</text>
</a>
</g>
</g>
<!-- Node11&#45;&gt;Node12 -->
<g id="edge16" class="edge">
<title>Node11&#45;&gt;Node12</title>
<path fill="none" stroke="midnightblue" d="M354.19,-169.26C330.5,-160.38 291.33,-145.69 263.49,-135.25"/>
<polygon fill="midnightblue" stroke="midnightblue" points="264.38,-131.85 253.79,-131.62 261.93,-138.4 264.38,-131.85"/>
</g>
<!-- Node11&#45;&gt;Node14 -->
<g id="edge20" class="edge">
<title>Node11&#45;&gt;Node14</title>
<path fill="none" stroke="midnightblue" d="M395.33,-169.5C415.92,-161.57 448.18,-147.98 473.82,-132 496.96,-117.57 520.76,-97.06 536.11,-82.96"/>
<polygon fill="midnightblue" stroke="midnightblue" points="538.79,-85.25 543.71,-75.87 534.01,-80.13 538.79,-85.25"/>
</g>
<!-- Node18 -->
<g id="node18" class="node">
<title>Node18</title>
<g id="a_node18"><a xlink:href="tvariant_8h.html" target="_top" xlink:title=" ">
<polygon fill="white" stroke="black" points="400.82,-112.5 400.82,-131.5 464.82,-131.5 464.82,-112.5 400.82,-112.5"/>
<text text-anchor="middle" x="432.82" y="-119.5" font-family="Helvetica,sans-Serif" font-size="10.00">tvariant.h</text>
</a>
</g>
</g>
<!-- Node11&#45;&gt;Node18 -->
<g id="edge25" class="edge">
<title>Node11&#45;&gt;Node18</title>
<path fill="none" stroke="midnightblue" d="M384.14,-168.32C392.71,-160.34 405.63,-148.31 416,-138.65"/>
<polygon fill="midnightblue" stroke="midnightblue" points="418.39,-141.21 423.33,-131.83 413.62,-136.09 418.39,-141.21"/>
</g>
<!-- Node12&#45;&gt;Node3 -->
<g id="edge18" class="edge">
<title>Node12&#45;&gt;Node3</title>
<path fill="none" stroke="midnightblue" d="M246.08,-112.32C261.04,-103.82 284.07,-90.73 301.54,-80.8"/>
<polygon fill="midnightblue" stroke="midnightblue" points="303.63,-83.64 310.59,-75.65 300.17,-77.55 303.63,-83.64"/>
</g>
<!-- Node12&#45;&gt;Node7 -->
<g id="edge19" class="edge">
<title>Node12&#45;&gt;Node7</title>
<path fill="none" stroke="midnightblue" d="M225.01,-112.37C212.8,-94.22 184.27,-51.8 168.25,-27.99"/>
<polygon fill="midnightblue" stroke="midnightblue" points="171.08,-25.94 162.6,-19.59 165.27,-29.84 171.08,-25.94"/>
</g>
<!-- Node13 -->
<g id="node13" class="node">
<title>Node13</title>
<g id="a_node13"><a xlink:title=" ">
<polygon fill="white" stroke="#bfbfbf" points="222.82,-56.5 222.82,-75.5 266.82,-75.5 266.82,-56.5 222.82,-56.5"/>
<text text-anchor="middle" x="244.82" y="-63.5" font-family="Helvetica,sans-Serif" font-size="10.00">string</text>
</a>
</g>
</g>
<!-- Node12&#45;&gt;Node13 -->
<g id="edge17" class="edge">
<title>Node12&#45;&gt;Node13</title>
<path fill="none" stroke="midnightblue" d="M233.13,-112.08C234.98,-104.93 237.65,-94.64 239.97,-85.69"/>
<polygon fill="midnightblue" stroke="midnightblue" points="243.43,-86.31 242.55,-75.75 236.65,-84.55 243.43,-86.31"/>
</g>
<!-- Node14&#45;&gt;Node4 -->
<g id="edge23" class="edge">
<title>Node14&#45;&gt;Node4</title>
<path fill="none" stroke="midnightblue" d="M530.68,-58.05C502.11,-49.08 451.99,-33.35 417.64,-22.56"/>
<polygon fill="midnightblue" stroke="midnightblue" points="418.55,-19.18 407.96,-19.52 416.46,-25.86 418.55,-19.18"/>
</g>
<!-- Node15 -->
<g id="node15" class="node">
<title>Node15</title>
<g id="a_node15"><a xlink:title=" ">
<polygon fill="white" stroke="#bfbfbf" points="726.82,-0.5 726.82,-19.5 758.82,-19.5 758.82,-0.5 726.82,-0.5"/>
<text text-anchor="middle" x="742.82" y="-7.5" font-family="Helvetica,sans-Serif" font-size="10.00">list</text>
</a>
</g>
</g>
<!-- Node14&#45;&gt;Node15 -->
<g id="edge21" class="edge">
<title>Node14&#45;&gt;Node15</title>
<path fill="none" stroke="midnightblue" d="M574.97,-59.41C606.6,-51.32 666.48,-35.6 716.82,-20 716.92,-19.97 717.02,-19.94 717.12,-19.91"/>
<polygon fill="midnightblue" stroke="midnightblue" points="718.23,-23.22 726.64,-16.78 716.05,-16.57 718.23,-23.22"/>
</g>
<!-- Node16 -->
<g id="node16" class="node">
<title>Node16</title>
<g id="a_node16"><a xlink:title=" ">
<polygon fill="white" stroke="#bfbfbf" points="625.32,-0.5 625.32,-19.5 708.32,-19.5 708.32,-0.5 625.32,-0.5"/>
<text text-anchor="middle" x="666.82" y="-7.5" font-family="Helvetica,sans-Serif" font-size="10.00">initializer_list</text>
</a>
</g>
</g>
<!-- Node14&#45;&gt;Node16 -->
<g id="edge22" class="edge">
<title>Node14&#45;&gt;Node16</title>
<path fill="none" stroke="midnightblue" d="M570.88,-56.44C589.39,-47.68 618.4,-33.94 639.67,-23.86"/>
<polygon fill="midnightblue" stroke="midnightblue" points="641.3,-26.96 648.84,-19.52 638.3,-20.63 641.3,-26.96"/>
</g>
<!-- Node17 -->
<g id="node17" class="node">
<title>Node17</title>
<g id="a_node17"><a xlink:title=" ">
<polygon fill="white" stroke="#bfbfbf" points="777.32,-0.5 777.32,-19.5 830.32,-19.5 830.32,-0.5 777.32,-0.5"/>
<text text-anchor="middle" x="803.82" y="-7.5" font-family="Helvetica,sans-Serif" font-size="10.00">tlist.tcc</text>
</a>
</g>
</g>
<!-- Node14&#45;&gt;Node17 -->
<g id="edge24" class="edge">
<title>Node14&#45;&gt;Node17</title>
<path fill="none" stroke="midnightblue" d="M574.85,-60.68C612.26,-53.29 690.78,-37.49 767.3,-20.05"/>
<polygon fill="midnightblue" stroke="midnightblue" points="768.14,-23.44 777.11,-17.8 766.58,-16.62 768.14,-23.44"/>
</g>
<!-- Node18&#45;&gt;Node6 -->
<g id="edge26" class="edge">
<title>Node18&#45;&gt;Node6</title>
<path fill="none" stroke="midnightblue" d="M431.77,-112.31C429.69,-98.7 423.89,-72.21 408.82,-56 399.4,-45.87 368.32,-32.59 343.47,-23.09"/>
<polygon fill="midnightblue" stroke="midnightblue" points="344.56,-19.76 333.97,-19.52 342.1,-26.31 344.56,-19.76"/>
</g>
<!-- Node18&#45;&gt;Node7 -->
<g id="edge34" class="edge">
<title>Node18&#45;&gt;Node7</title>
<path fill="none" stroke="midnightblue" d="M427.65,-112.23C418.76,-98 399.19,-70.05 374.82,-56 360.81,-47.93 271.99,-31.18 212.13,-20.55"/>
<polygon fill="midnightblue" stroke="midnightblue" points="212.51,-17.07 202.05,-18.77 211.29,-23.96 212.51,-17.07"/>
</g>
<!-- Node18&#45;&gt;Node14 -->
<g id="edge27" class="edge">
<title>Node18&#45;&gt;Node14</title>
<path fill="none" stroke="midnightblue" d="M451.83,-112.44C471.4,-103.64 502.12,-89.81 524.55,-79.72"/>
<polygon fill="midnightblue" stroke="midnightblue" points="526.21,-82.81 533.89,-75.52 523.34,-76.43 526.21,-82.81"/>
</g>
<!-- Node19 -->
<g id="node19" class="node">
<title>Node19</title>
<g id="a_node19"><a xlink:href="tmap_8h.html" target="_top" xlink:title=" ">
<polygon fill="white" stroke="black" points="461.32,-56.5 461.32,-75.5 512.32,-75.5 512.32,-56.5 461.32,-56.5"/>
<text text-anchor="middle" x="486.82" y="-63.5" font-family="Helvetica,sans-Serif" font-size="10.00">tmap.h</text>
</a>
</g>
</g>
<!-- Node18&#45;&gt;Node19 -->
<g id="edge28" class="edge">
<title>Node18&#45;&gt;Node19</title>
<path fill="none" stroke="midnightblue" d="M441.73,-112.08C449.6,-104.22 461.25,-92.57 470.74,-83.08"/>
<polygon fill="midnightblue" stroke="midnightblue" points="473.47,-85.3 478.07,-75.75 468.52,-80.35 473.47,-85.3"/>
</g>
<!-- Node19&#45;&gt;Node4 -->
<g id="edge30" class="edge">
<title>Node19&#45;&gt;Node4</title>
<path fill="none" stroke="midnightblue" d="M469.79,-56.32C452.79,-47.66 426.44,-34.24 406.82,-24.25"/>
<polygon fill="midnightblue" stroke="midnightblue" points="408.3,-21.08 397.81,-19.65 405.13,-27.31 408.3,-21.08"/>
</g>
<!-- Node19&#45;&gt;Node16 -->
<g id="edge31" class="edge">
<title>Node19&#45;&gt;Node16</title>
<path fill="none" stroke="midnightblue" d="M512.61,-57.26C542.95,-48.16 593.63,-32.96 628.55,-22.48"/>
<polygon fill="midnightblue" stroke="midnightblue" points="629.83,-25.75 638.4,-19.52 627.82,-19.05 629.83,-25.75"/>
</g>
<!-- Node20 -->
<g id="node20" class="node">
<title>Node20</title>
<g id="a_node20"><a xlink:title=" ">
<polygon fill="white" stroke="#bfbfbf" points="505.82,-0.5 505.82,-19.5 543.82,-19.5 543.82,-0.5 505.82,-0.5"/>
<text text-anchor="middle" x="524.82" y="-7.5" font-family="Helvetica,sans-Serif" font-size="10.00">map</text>
</a>
</g>
</g>
<!-- Node19&#45;&gt;Node20 -->
<g id="edge29" class="edge">
<title>Node19&#45;&gt;Node20</title>
<path fill="none" stroke="midnightblue" d="M493.09,-56.08C498.46,-48.46 506.33,-37.26 512.9,-27.94"/>
<polygon fill="midnightblue" stroke="midnightblue" points="515.77,-29.94 518.66,-19.75 510.04,-25.91 515.77,-29.94"/>
</g>
<!-- Node21 -->
<g id="node21" class="node">
<title>Node21</title>
<g id="a_node21"><a xlink:title=" ">
<polygon fill="white" stroke="#bfbfbf" points="562.32,-0.5 562.32,-19.5 607.32,-19.5 607.32,-0.5 562.32,-0.5"/>
<text text-anchor="middle" x="584.82" y="-7.5" font-family="Helvetica,sans-Serif" font-size="10.00">utility</text>
</a>
</g>
</g>
<!-- Node19&#45;&gt;Node21 -->
<g id="edge32" class="edge">
<title>Node19&#45;&gt;Node21</title>
<path fill="none" stroke="midnightblue" d="M502.56,-56.32C518.14,-47.74 542.19,-34.49 560.28,-24.52"/>
<polygon fill="midnightblue" stroke="midnightblue" points="562.04,-27.55 569.11,-19.65 558.66,-21.42 562.04,-27.55"/>
</g>
<!-- Node22 -->
<g id="node22" class="node">
<title>Node22</title>
<g id="a_node22"><a xlink:title=" ">
<polygon fill="white" stroke="#bfbfbf" points="428.32,-0.5 428.32,-19.5 487.32,-19.5 487.32,-0.5 428.32,-0.5"/>
<text text-anchor="middle" x="457.82" y="-7.5" font-family="Helvetica,sans-Serif" font-size="10.00">tmap.tcc</text>
</a>
</g>
</g>
<!-- Node19&#45;&gt;Node22 -->
<g id="edge33" class="edge">
<title>Node19&#45;&gt;Node22</title>
<path fill="none" stroke="midnightblue" d="M482.03,-56.08C478.06,-48.69 472.29,-37.95 467.38,-28.81"/>
<polygon fill="midnightblue" stroke="midnightblue" points="470.33,-26.91 462.52,-19.75 464.16,-30.22 470.33,-26.91"/>
</g>
</g>
</svg>
