<?xml version="1.0" encoding="UTF-8" standalone="no"?>
<!DOCTYPE svg PUBLIC "-//W3C//DTD SVG 1.1//EN"
 "http://www.w3.org/Graphics/SVG/1.1/DTD/svg11.dtd">
<!-- Generated by graphviz version 2.43.0 (0)
 -->
<!-- Title: mp4atom.h Pages: 1 -->
<svg width="945pt" height="364pt"
 viewBox="0.00 0.00 944.50 364.00" xmlns="http://www.w3.org/2000/svg" xmlns:xlink="http://www.w3.org/1999/xlink">
<g id="graph0" class="graph" transform="scale(1 1) rotate(0) translate(4 360)">
<title>mp4atom.h</title>
<polygon fill="white" stroke="transparent" points="-4,4 -4,-360 940.5,-360 940.5,4 -4,4"/>
<!-- Node1 -->
<g id="node1" class="node">
<title>Node1</title>
<g id="a_node1"><a xlink:title=" ">
<polygon fill="#bfbfbf" stroke="black" points="310.5,-336.5 310.5,-355.5 383.5,-355.5 383.5,-336.5 310.5,-336.5"/>
<text text-anchor="middle" x="347" y="-343.5" font-family="Helvetica,sans-Serif" font-size="10.00">mp4atom.h</text>
</a>
</g>
</g>
<!-- Node2 -->
<g id="node2" class="node">
<title>Node2</title>
<g id="a_node2"><a xlink:title=" ">
<polygon fill="white" stroke="#bfbfbf" points="265,-280.5 265,-299.5 307,-299.5 307,-280.5 265,-280.5"/>
<text text-anchor="middle" x="286" y="-287.5" font-family="Helvetica,sans-Serif" font-size="10.00">array</text>
</a>
</g>
</g>
<!-- Node1&#45;&gt;Node2 -->
<g id="edge1" class="edge">
<title>Node1&#45;&gt;Node2</title>
<path fill="none" stroke="midnightblue" d="M337.2,-336.32C328.18,-328.34 314.59,-316.31 303.68,-306.65"/>
<polygon fill="midnightblue" stroke="midnightblue" points="305.79,-303.84 295.98,-299.83 301.15,-309.08 305.79,-303.84"/>
</g>
<!-- Node3 -->
<g id="node3" class="node">
<title>Node3</title>
<g id="a_node3"><a xlink:href="tfile_8h.html" target="_top" xlink:title=" ">
<polygon fill="white" stroke="black" points="325,-280.5 325,-299.5 369,-299.5 369,-280.5 325,-280.5"/>
<text text-anchor="middle" x="347" y="-287.5" font-family="Helvetica,sans-Serif" font-size="10.00">tfile.h</text>
</a>
</g>
</g>
<!-- Node1&#45;&gt;Node3 -->
<g id="edge2" class="edge">
<title>Node1&#45;&gt;Node3</title>
<path fill="none" stroke="midnightblue" d="M347,-336.08C347,-329.01 347,-318.86 347,-309.99"/>
<polygon fill="midnightblue" stroke="midnightblue" points="350.5,-309.75 347,-299.75 343.5,-309.75 350.5,-309.75"/>
</g>
<!-- Node16 -->
<g id="node16" class="node">
<title>Node16</title>
<g id="a_node16"><a xlink:href="tlist_8h.html" target="_top" xlink:title=" ">
<polygon fill="white" stroke="black" points="611,-112.5 611,-131.5 655,-131.5 655,-112.5 611,-112.5"/>
<text text-anchor="middle" x="633" y="-119.5" font-family="Helvetica,sans-Serif" font-size="10.00">tlist.h</text>
</a>
</g>
</g>
<!-- Node1&#45;&gt;Node16 -->
<g id="edge44" class="edge">
<title>Node1&#45;&gt;Node16</title>
<path fill="none" stroke="midnightblue" d="M358.55,-336.21C389.71,-312.45 478.09,-244.95 551,-188 572.82,-170.95 597.73,-151.16 614.31,-137.94"/>
<polygon fill="midnightblue" stroke="midnightblue" points="616.53,-140.65 622.16,-131.67 612.16,-135.17 616.53,-140.65"/>
</g>
<!-- Node4 -->
<g id="node4" class="node">
<title>Node4</title>
<g id="a_node4"><a xlink:href="tbytevector_8h.html" target="_top" xlink:title=" ">
<polygon fill="white" stroke="black" points="130.5,-112.5 130.5,-131.5 211.5,-131.5 211.5,-112.5 130.5,-112.5"/>
<text text-anchor="middle" x="171" y="-119.5" font-family="Helvetica,sans-Serif" font-size="10.00">tbytevector.h</text>
</a>
</g>
</g>
<!-- Node3&#45;&gt;Node4 -->
<g id="edge3" class="edge">
<title>Node3&#45;&gt;Node4</title>
<path fill="none" stroke="midnightblue" d="M326.26,-280.38C293.84,-265.92 231.12,-233.76 195,-188 184.3,-174.44 178.05,-155.64 174.63,-141.74"/>
<polygon fill="midnightblue" stroke="midnightblue" points="178.02,-140.86 172.46,-131.85 171.18,-142.36 178.02,-140.86"/>
</g>
<!-- Node8 -->
<g id="node8" class="node">
<title>Node8</title>
<g id="a_node8"><a xlink:href="taglib_8h.html" target="_top" xlink:title=" ">
<polygon fill="white" stroke="black" points="327.5,-56.5 327.5,-75.5 380.5,-75.5 380.5,-56.5 327.5,-56.5"/>
<text text-anchor="middle" x="354" y="-63.5" font-family="Helvetica,sans-Serif" font-size="10.00">taglib.h</text>
</a>
</g>
</g>
<!-- Node3&#45;&gt;Node8 -->
<g id="edge17" class="edge">
<title>Node3&#45;&gt;Node8</title>
<path fill="none" stroke="midnightblue" d="M349.51,-280.46C354.45,-263.18 365.25,-222.79 369,-188 372.91,-151.66 364.72,-109.3 358.98,-85.57"/>
<polygon fill="midnightblue" stroke="midnightblue" points="362.35,-84.62 356.49,-75.79 355.56,-86.35 362.35,-84.62"/>
</g>
<!-- Node12 -->
<g id="node12" class="node">
<title>Node12</title>
<g id="a_node12"><a xlink:href="taglib__export_8h.html" target="_top" xlink:title=" ">
<polygon fill="white" stroke="black" points="0,-56.5 0,-75.5 90,-75.5 90,-56.5 0,-56.5"/>
<text text-anchor="middle" x="45" y="-63.5" font-family="Helvetica,sans-Serif" font-size="10.00">taglib_export.h</text>
</a>
</g>
</g>
<!-- Node3&#45;&gt;Node12 -->
<g id="edge16" class="edge">
<title>Node3&#45;&gt;Node12</title>
<path fill="none" stroke="midnightblue" d="M324.71,-281.4C270.32,-262.67 132.26,-213.94 91,-188 59.57,-168.23 44.08,-165.93 29,-132 22.23,-116.77 28.07,-98.2 34.51,-84.81"/>
<polygon fill="midnightblue" stroke="midnightblue" points="37.74,-86.2 39.36,-75.73 31.57,-82.91 37.74,-86.2"/>
</g>
<!-- Node13 -->
<g id="node13" class="node">
<title>Node13</title>
<g id="a_node13"><a xlink:href="tiostream_8h.html" target="_top" xlink:title=" ">
<polygon fill="white" stroke="black" points="203.5,-168.5 203.5,-187.5 276.5,-187.5 276.5,-168.5 203.5,-168.5"/>
<text text-anchor="middle" x="240" y="-175.5" font-family="Helvetica,sans-Serif" font-size="10.00">tiostream.h</text>
</a>
</g>
</g>
<!-- Node3&#45;&gt;Node13 -->
<g id="edge12" class="edge">
<title>Node3&#45;&gt;Node13</title>
<path fill="none" stroke="midnightblue" d="M338.6,-280.37C320.71,-261.97 278.59,-218.67 255.61,-195.05"/>
<polygon fill="midnightblue" stroke="midnightblue" points="257.84,-192.32 248.36,-187.59 252.82,-197.2 257.84,-192.32"/>
</g>
<!-- Node14 -->
<g id="node14" class="node">
<title>Node14</title>
<g id="a_node14"><a xlink:href="tag_8h.html" target="_top" xlink:title=" ">
<polygon fill="white" stroke="black" points="420.5,-224.5 420.5,-243.5 461.5,-243.5 461.5,-224.5 420.5,-224.5"/>
<text text-anchor="middle" x="441" y="-231.5" font-family="Helvetica,sans-Serif" font-size="10.00">tag.h</text>
</a>
</g>
</g>
<!-- Node3&#45;&gt;Node14 -->
<g id="edge18" class="edge">
<title>Node3&#45;&gt;Node14</title>
<path fill="none" stroke="midnightblue" d="M362.1,-280.32C376.9,-271.82 399.69,-258.73 416.98,-248.8"/>
<polygon fill="midnightblue" stroke="midnightblue" points="419.01,-251.67 425.93,-243.65 415.52,-245.6 419.01,-251.67"/>
</g>
<!-- Node5 -->
<g id="node5" class="node">
<title>Node5</title>
<g id="a_node5"><a xlink:title=" ">
<polygon fill="white" stroke="#bfbfbf" points="211,-56.5 211,-75.5 271,-75.5 271,-56.5 211,-56.5"/>
<text text-anchor="middle" x="241" y="-63.5" font-family="Helvetica,sans-Serif" font-size="10.00">iostream</text>
</a>
</g>
</g>
<!-- Node4&#45;&gt;Node5 -->
<g id="edge4" class="edge">
<title>Node4&#45;&gt;Node5</title>
<path fill="none" stroke="midnightblue" d="M182.25,-112.32C192.8,-104.18 208.8,-91.84 221.44,-82.09"/>
<polygon fill="midnightblue" stroke="midnightblue" points="223.77,-84.71 229.55,-75.83 219.49,-79.17 223.77,-84.71"/>
</g>
<!-- Node6 -->
<g id="node6" class="node">
<title>Node6</title>
<g id="a_node6"><a xlink:title=" ">
<polygon fill="white" stroke="#bfbfbf" points="578,-56.5 578,-75.5 636,-75.5 636,-56.5 578,-56.5"/>
<text text-anchor="middle" x="607" y="-63.5" font-family="Helvetica,sans-Serif" font-size="10.00">memory</text>
</a>
</g>
</g>
<!-- Node4&#45;&gt;Node6 -->
<g id="edge5" class="edge">
<title>Node4&#45;&gt;Node6</title>
<path fill="none" stroke="midnightblue" d="M211.62,-118.03C282.12,-112.51 431.81,-99.27 567.46,-76.09"/>
<polygon fill="midnightblue" stroke="midnightblue" points="568.36,-79.48 577.61,-74.33 567.16,-72.59 568.36,-79.48"/>
</g>
<!-- Node7 -->
<g id="node7" class="node">
<title>Node7</title>
<g id="a_node7"><a xlink:title=" ">
<polygon fill="white" stroke="#bfbfbf" points="145.5,-56.5 145.5,-75.5 192.5,-75.5 192.5,-56.5 145.5,-56.5"/>
<text text-anchor="middle" x="169" y="-63.5" font-family="Helvetica,sans-Serif" font-size="10.00">vector</text>
</a>
</g>
</g>
<!-- Node4&#45;&gt;Node7 -->
<g id="edge6" class="edge">
<title>Node4&#45;&gt;Node7</title>
<path fill="none" stroke="midnightblue" d="M170.67,-112.08C170.41,-105.01 170.03,-94.86 169.7,-85.99"/>
<polygon fill="midnightblue" stroke="midnightblue" points="173.19,-85.61 169.32,-75.75 166.2,-85.87 173.19,-85.61"/>
</g>
<!-- Node4&#45;&gt;Node8 -->
<g id="edge7" class="edge">
<title>Node4&#45;&gt;Node8</title>
<path fill="none" stroke="midnightblue" d="M200,-112.44C231.83,-103.05 282.99,-87.95 317.52,-77.77"/>
<polygon fill="midnightblue" stroke="midnightblue" points="318.62,-81.09 327.22,-74.9 316.64,-74.37 318.62,-81.09"/>
</g>
<!-- Node4&#45;&gt;Node12 -->
<g id="edge11" class="edge">
<title>Node4&#45;&gt;Node12</title>
<path fill="none" stroke="midnightblue" d="M151.03,-112.44C130.39,-103.6 97.94,-89.69 74.37,-79.59"/>
<polygon fill="midnightblue" stroke="midnightblue" points="75.44,-76.24 64.87,-75.52 72.68,-82.67 75.44,-76.24"/>
</g>
<!-- Node9 -->
<g id="node9" class="node">
<title>Node9</title>
<g id="a_node9"><a xlink:title=" ">
<polygon fill="white" stroke="#bfbfbf" points="306,-0.5 306,-19.5 394,-19.5 394,-0.5 306,-0.5"/>
<text text-anchor="middle" x="350" y="-7.5" font-family="Helvetica,sans-Serif" font-size="10.00">taglib_config.h</text>
</a>
</g>
</g>
<!-- Node8&#45;&gt;Node9 -->
<g id="edge8" class="edge">
<title>Node8&#45;&gt;Node9</title>
<path fill="none" stroke="midnightblue" d="M353.34,-56.08C352.82,-49.01 352.06,-38.86 351.41,-29.99"/>
<polygon fill="midnightblue" stroke="midnightblue" points="354.88,-29.47 350.65,-19.75 347.9,-29.98 354.88,-29.47"/>
</g>
<!-- Node10 -->
<g id="node10" class="node">
<title>Node10</title>
<g id="a_node10"><a xlink:title=" ">
<polygon fill="white" stroke="#bfbfbf" points="216,-0.5 216,-19.5 288,-19.5 288,-0.5 216,-0.5"/>
<text text-anchor="middle" x="252" y="-7.5" font-family="Helvetica,sans-Serif" font-size="10.00">sys/types.h</text>
</a>
</g>
</g>
<!-- Node8&#45;&gt;Node10 -->
<g id="edge9" class="edge">
<title>Node8&#45;&gt;Node10</title>
<path fill="none" stroke="midnightblue" d="M337.61,-56.32C321.33,-47.7 296.13,-34.36 277.28,-24.39"/>
<polygon fill="midnightblue" stroke="midnightblue" points="278.82,-21.24 268.35,-19.65 275.55,-27.43 278.82,-21.24"/>
</g>
<!-- Node11 -->
<g id="node11" class="node">
<title>Node11</title>
<g id="a_node11"><a xlink:title=" ">
<polygon fill="white" stroke="#bfbfbf" points="412,-0.5 412,-19.5 456,-19.5 456,-0.5 412,-0.5"/>
<text text-anchor="middle" x="434" y="-7.5" font-family="Helvetica,sans-Serif" font-size="10.00">string</text>
</a>
</g>
</g>
<!-- Node8&#45;&gt;Node11 -->
<g id="edge10" class="edge">
<title>Node8&#45;&gt;Node11</title>
<path fill="none" stroke="midnightblue" d="M366.85,-56.32C379.22,-47.98 398.13,-35.21 412.74,-25.35"/>
<polygon fill="midnightblue" stroke="midnightblue" points="414.85,-28.15 421.18,-19.65 410.93,-22.35 414.85,-28.15"/>
</g>
<!-- Node13&#45;&gt;Node4 -->
<g id="edge13" class="edge">
<title>Node13&#45;&gt;Node4</title>
<path fill="none" stroke="midnightblue" d="M228.91,-168.32C218.51,-160.18 202.74,-147.84 190.28,-138.09"/>
<polygon fill="midnightblue" stroke="midnightblue" points="192.32,-135.24 182.29,-131.83 188.01,-140.75 192.32,-135.24"/>
</g>
<!-- Node13&#45;&gt;Node8 -->
<g id="edge15" class="edge">
<title>Node13&#45;&gt;Node8</title>
<path fill="none" stroke="midnightblue" d="M248.95,-168.37C268.09,-149.89 313.28,-106.29 337.68,-82.74"/>
<polygon fill="midnightblue" stroke="midnightblue" points="340.33,-85.05 345.1,-75.59 335.47,-80.02 340.33,-85.05"/>
</g>
<!-- Node13&#45;&gt;Node12 -->
<g id="edge14" class="edge">
<title>Node13&#45;&gt;Node12</title>
<path fill="none" stroke="midnightblue" d="M203.29,-173.4C153.81,-167.73 69.61,-154.93 50,-132 39.32,-119.51 39.15,-100.28 41,-85.97"/>
<polygon fill="midnightblue" stroke="midnightblue" points="44.5,-86.23 42.75,-75.78 37.61,-85.04 44.5,-86.23"/>
</g>
<!-- Node14&#45;&gt;Node12 -->
<g id="edge19" class="edge">
<title>Node14&#45;&gt;Node12</title>
<path fill="none" stroke="midnightblue" d="M420.25,-231.26C344.29,-224.38 83.35,-196.33 38,-132 28.51,-118.55 32.02,-99.47 36.85,-85.47"/>
<polygon fill="midnightblue" stroke="midnightblue" points="40.2,-86.51 40.6,-75.92 33.68,-83.95 40.2,-86.51"/>
</g>
<!-- Node15 -->
<g id="node15" class="node">
<title>Node15</title>
<g id="a_node15"><a xlink:href="tstring_8h.html" target="_top" xlink:title=" ">
<polygon fill="white" stroke="black" points="302.5,-168.5 302.5,-187.5 359.5,-187.5 359.5,-168.5 302.5,-168.5"/>
<text text-anchor="middle" x="331" y="-175.5" font-family="Helvetica,sans-Serif" font-size="10.00">tstring.h</text>
</a>
</g>
</g>
<!-- Node14&#45;&gt;Node15 -->
<g id="edge20" class="edge">
<title>Node14&#45;&gt;Node15</title>
<path fill="none" stroke="midnightblue" d="M423.33,-224.32C405.61,-215.62 378.1,-202.12 357.71,-192.11"/>
<polygon fill="midnightblue" stroke="midnightblue" points="359.15,-188.92 348.63,-187.65 356.06,-195.2 359.15,-188.92"/>
</g>
<!-- Node14&#45;&gt;Node16 -->
<g id="edge26" class="edge">
<title>Node14&#45;&gt;Node16</title>
<path fill="none" stroke="midnightblue" d="M456.07,-224.37C489.29,-205.33 569.09,-159.62 609.17,-136.65"/>
<polygon fill="midnightblue" stroke="midnightblue" points="611.07,-139.6 618,-131.59 607.59,-133.53 611.07,-139.6"/>
</g>
<!-- Node20 -->
<g id="node20" class="node">
<title>Node20</title>
<g id="a_node20"><a xlink:href="tvariant_8h.html" target="_top" xlink:title=" ">
<polygon fill="white" stroke="black" points="439,-168.5 439,-187.5 503,-187.5 503,-168.5 439,-168.5"/>
<text text-anchor="middle" x="471" y="-175.5" font-family="Helvetica,sans-Serif" font-size="10.00">tvariant.h</text>
</a>
</g>
</g>
<!-- Node14&#45;&gt;Node20 -->
<g id="edge32" class="edge">
<title>Node14&#45;&gt;Node20</title>
<path fill="none" stroke="midnightblue" d="M445.95,-224.08C450.1,-216.61 456.15,-205.72 461.27,-196.52"/>
<polygon fill="midnightblue" stroke="midnightblue" points="464.34,-198.19 466.14,-187.75 458.22,-194.79 464.34,-198.19"/>
</g>
<!-- Node15&#45;&gt;Node4 -->
<g id="edge23" class="edge">
<title>Node15&#45;&gt;Node4</title>
<path fill="none" stroke="midnightblue" d="M305.65,-168.44C278.73,-159.36 236,-144.94 205.91,-134.78"/>
<polygon fill="midnightblue" stroke="midnightblue" points="206.83,-131.4 196.23,-131.52 204.59,-138.03 206.83,-131.4"/>
</g>
<!-- Node15&#45;&gt;Node5 -->
<g id="edge21" class="edge">
<title>Node15&#45;&gt;Node5</title>
<path fill="none" stroke="midnightblue" d="M312.07,-168.48C297.12,-160.87 276.71,-148.39 264,-132 253.46,-118.42 247.51,-99.62 244.31,-85.73"/>
<polygon fill="midnightblue" stroke="midnightblue" points="247.73,-84.94 242.31,-75.84 240.87,-86.33 247.73,-84.94"/>
</g>
<!-- Node15&#45;&gt;Node8 -->
<g id="edge25" class="edge">
<title>Node15&#45;&gt;Node8</title>
<path fill="none" stroke="midnightblue" d="M332.8,-168.37C336.52,-150.62 345.08,-109.67 350.11,-85.6"/>
<polygon fill="midnightblue" stroke="midnightblue" points="353.58,-86.1 352.2,-75.59 346.73,-84.66 353.58,-86.1"/>
</g>
<!-- Node15&#45;&gt;Node11 -->
<g id="edge22" class="edge">
<title>Node15&#45;&gt;Node11</title>
<path fill="none" stroke="midnightblue" d="M336.54,-168.08C352.96,-141.61 401.61,-63.21 423.32,-28.21"/>
<polygon fill="midnightblue" stroke="midnightblue" points="426.39,-29.91 428.68,-19.57 420.44,-26.22 426.39,-29.91"/>
</g>
<!-- Node15&#45;&gt;Node12 -->
<g id="edge24" class="edge">
<title>Node15&#45;&gt;Node12</title>
<path fill="none" stroke="midnightblue" d="M302.45,-171.21C296.99,-170.13 291.32,-169.02 286,-168 198.14,-151.23 162.66,-181.25 88,-132 70.93,-120.74 59.03,-100.12 52.14,-85.12"/>
<polygon fill="midnightblue" stroke="midnightblue" points="55.32,-83.64 48.17,-75.81 48.88,-86.39 55.32,-83.64"/>
</g>
<!-- Node16&#45;&gt;Node6 -->
<g id="edge29" class="edge">
<title>Node16&#45;&gt;Node6</title>
<path fill="none" stroke="midnightblue" d="M628.71,-112.08C625.15,-104.69 619.98,-93.95 615.58,-84.81"/>
<polygon fill="midnightblue" stroke="midnightblue" points="618.71,-83.24 611.21,-75.75 612.4,-86.28 618.71,-83.24"/>
</g>
<!-- Node16&#45;&gt;Node8 -->
<g id="edge30" class="edge">
<title>Node16&#45;&gt;Node8</title>
<path fill="none" stroke="midnightblue" d="M610.72,-114.23C607.8,-113.43 604.84,-112.67 602,-112 527.59,-94.5 439.26,-79.93 390.65,-72.44"/>
<polygon fill="midnightblue" stroke="midnightblue" points="391.03,-68.96 380.61,-70.91 389.97,-75.88 391.03,-68.96"/>
</g>
<!-- Node17 -->
<g id="node17" class="node">
<title>Node17</title>
<g id="a_node17"><a xlink:title=" ">
<polygon fill="white" stroke="#bfbfbf" points="833,-56.5 833,-75.5 865,-75.5 865,-56.5 833,-56.5"/>
<text text-anchor="middle" x="849" y="-63.5" font-family="Helvetica,sans-Serif" font-size="10.00">list</text>
</a>
</g>
</g>
<!-- Node16&#45;&gt;Node17 -->
<g id="edge27" class="edge">
<title>Node16&#45;&gt;Node17</title>
<path fill="none" stroke="midnightblue" d="M655.27,-116.61C689.45,-109.7 757.02,-95.31 823.2,-75.97"/>
<polygon fill="midnightblue" stroke="midnightblue" points="824.36,-79.28 832.95,-73.08 822.37,-72.57 824.36,-79.28"/>
</g>
<!-- Node18 -->
<g id="node18" class="node">
<title>Node18</title>
<g id="a_node18"><a xlink:title=" ">
<polygon fill="white" stroke="#bfbfbf" points="731.5,-56.5 731.5,-75.5 814.5,-75.5 814.5,-56.5 731.5,-56.5"/>
<text text-anchor="middle" x="773" y="-63.5" font-family="Helvetica,sans-Serif" font-size="10.00">initializer_list</text>
</a>
</g>
</g>
<!-- Node16&#45;&gt;Node18 -->
<g id="edge28" class="edge">
<title>Node16&#45;&gt;Node18</title>
<path fill="none" stroke="midnightblue" d="M655.18,-112.44C678.43,-103.48 715.15,-89.31 741.42,-79.18"/>
<polygon fill="midnightblue" stroke="midnightblue" points="742.85,-82.38 750.92,-75.52 740.33,-75.85 742.85,-82.38"/>
</g>
<!-- Node19 -->
<g id="node19" class="node">
<title>Node19</title>
<g id="a_node19"><a xlink:title=" ">
<polygon fill="white" stroke="#bfbfbf" points="883.5,-56.5 883.5,-75.5 936.5,-75.5 936.5,-56.5 883.5,-56.5"/>
<text text-anchor="middle" x="910" y="-63.5" font-family="Helvetica,sans-Serif" font-size="10.00">tlist.tcc</text>
</a>
</g>
</g>
<!-- Node16&#45;&gt;Node19 -->
<g id="edge31" class="edge">
<title>Node16&#45;&gt;Node19</title>
<path fill="none" stroke="midnightblue" d="M655.02,-117.35C695.94,-110.46 786.67,-94.73 873.31,-76.04"/>
<polygon fill="midnightblue" stroke="midnightblue" points="874.28,-79.41 883.31,-73.86 872.79,-72.57 874.28,-79.41"/>
</g>
<!-- Node20&#45;&gt;Node5 -->
<g id="edge34" class="edge">
<title>Node20&#45;&gt;Node5</title>
<path fill="none" stroke="midnightblue" d="M452.95,-168.37C412.73,-149.13 315.54,-102.65 268.04,-79.93"/>
<polygon fill="midnightblue" stroke="midnightblue" points="269.5,-76.75 258.96,-75.59 266.48,-83.06 269.5,-76.75"/>
</g>
<!-- Node20&#45;&gt;Node12 -->
<g id="edge43" class="edge">
<title>Node20&#45;&gt;Node12</title>
<path fill="none" stroke="midnightblue" d="M438.87,-173.93C357.88,-166.03 149.77,-144.77 121,-132 95.83,-120.83 72.67,-98.54 58.7,-83.21"/>
<polygon fill="midnightblue" stroke="midnightblue" points="61.16,-80.71 51.92,-75.52 55.91,-85.34 61.16,-80.71"/>
</g>
<!-- Node20&#45;&gt;Node16 -->
<g id="edge35" class="edge">
<title>Node20&#45;&gt;Node16</title>
<path fill="none" stroke="midnightblue" d="M496.67,-168.44C524.96,-159.01 570.52,-143.83 601.09,-133.64"/>
<polygon fill="midnightblue" stroke="midnightblue" points="602.45,-136.87 610.83,-130.39 600.24,-130.23 602.45,-136.87"/>
</g>
<!-- Node21 -->
<g id="node21" class="node">
<title>Node21</title>
<g id="a_node21"><a xlink:title=" ">
<polygon fill="white" stroke="#bfbfbf" points="458.5,-112.5 458.5,-131.5 523.5,-131.5 523.5,-112.5 458.5,-112.5"/>
<text text-anchor="middle" x="491" y="-119.5" font-family="Helvetica,sans-Serif" font-size="10.00">memory.h</text>
</a>
</g>
</g>
<!-- Node20&#45;&gt;Node21 -->
<g id="edge33" class="edge">
<title>Node20&#45;&gt;Node21</title>
<path fill="none" stroke="midnightblue" d="M474.3,-168.08C476.98,-160.85 480.85,-150.41 484.19,-141.4"/>
<polygon fill="midnightblue" stroke="midnightblue" points="487.57,-142.34 487.76,-131.75 481,-139.91 487.57,-142.34"/>
</g>
<!-- Node22 -->
<g id="node22" class="node">
<title>Node22</title>
<g id="a_node22"><a xlink:href="tmap_8h.html" target="_top" xlink:title=" ">
<polygon fill="white" stroke="black" points="541.5,-112.5 541.5,-131.5 592.5,-131.5 592.5,-112.5 541.5,-112.5"/>
<text text-anchor="middle" x="567" y="-119.5" font-family="Helvetica,sans-Serif" font-size="10.00">tmap.h</text>
</a>
</g>
</g>
<!-- Node20&#45;&gt;Node22 -->
<g id="edge36" class="edge">
<title>Node20&#45;&gt;Node22</title>
<path fill="none" stroke="midnightblue" d="M486.42,-168.32C501.54,-159.82 524.82,-146.73 542.47,-136.8"/>
<polygon fill="midnightblue" stroke="midnightblue" points="544.61,-139.61 551.61,-131.65 541.18,-133.51 544.61,-139.61"/>
</g>
<!-- Node22&#45;&gt;Node6 -->
<g id="edge38" class="edge">
<title>Node22&#45;&gt;Node6</title>
<path fill="none" stroke="midnightblue" d="M573.61,-112.08C579.26,-104.46 587.54,-93.26 594.45,-83.94"/>
<polygon fill="midnightblue" stroke="midnightblue" points="597.38,-85.87 600.52,-75.75 591.75,-81.7 597.38,-85.87"/>
</g>
<!-- Node22&#45;&gt;Node8 -->
<g id="edge41" class="edge">
<title>Node22&#45;&gt;Node8</title>
<path fill="none" stroke="midnightblue" d="M541.39,-114.18C538.56,-113.44 535.72,-112.7 533,-112 483.86,-99.32 427.02,-85.11 390.81,-76.11"/>
<polygon fill="midnightblue" stroke="midnightblue" points="391.26,-72.62 380.71,-73.61 389.58,-79.41 391.26,-72.62"/>
</g>
<!-- Node22&#45;&gt;Node18 -->
<g id="edge39" class="edge">
<title>Node22&#45;&gt;Node18</title>
<path fill="none" stroke="midnightblue" d="M592.67,-114.27C627.25,-105.21 689.22,-88.96 730.73,-78.08"/>
<polygon fill="midnightblue" stroke="midnightblue" points="731.76,-81.43 740.55,-75.51 729.99,-74.66 731.76,-81.43"/>
</g>
<!-- Node23 -->
<g id="node23" class="node">
<title>Node23</title>
<g id="a_node23"><a xlink:title=" ">
<polygon fill="white" stroke="#bfbfbf" points="458,-56.5 458,-75.5 496,-75.5 496,-56.5 458,-56.5"/>
<text text-anchor="middle" x="477" y="-63.5" font-family="Helvetica,sans-Serif" font-size="10.00">map</text>
</a>
</g>
</g>
<!-- Node22&#45;&gt;Node23 -->
<g id="edge37" class="edge">
<title>Node22&#45;&gt;Node23</title>
<path fill="none" stroke="midnightblue" d="M552.54,-112.32C538.5,-103.9 516.95,-90.97 500.46,-81.07"/>
<polygon fill="midnightblue" stroke="midnightblue" points="501.8,-77.8 491.42,-75.65 498.2,-83.8 501.8,-77.8"/>
</g>
<!-- Node24 -->
<g id="node24" class="node">
<title>Node24</title>
<g id="a_node24"><a xlink:title=" ">
<polygon fill="white" stroke="#bfbfbf" points="514.5,-56.5 514.5,-75.5 559.5,-75.5 559.5,-56.5 514.5,-56.5"/>
<text text-anchor="middle" x="537" y="-63.5" font-family="Helvetica,sans-Serif" font-size="10.00">utility</text>
</a>
</g>
</g>
<!-- Node22&#45;&gt;Node24 -->
<g id="edge40" class="edge">
<title>Node22&#45;&gt;Node24</title>
<path fill="none" stroke="midnightblue" d="M562.05,-112.08C557.9,-104.61 551.85,-93.72 546.73,-84.52"/>
<polygon fill="midnightblue" stroke="midnightblue" points="549.78,-82.79 541.86,-75.75 543.66,-86.19 549.78,-82.79"/>
</g>
<!-- Node25 -->
<g id="node25" class="node">
<title>Node25</title>
<g id="a_node25"><a xlink:title=" ">
<polygon fill="white" stroke="#bfbfbf" points="654.5,-56.5 654.5,-75.5 713.5,-75.5 713.5,-56.5 654.5,-56.5"/>
<text text-anchor="middle" x="684" y="-63.5" font-family="Helvetica,sans-Serif" font-size="10.00">tmap.tcc</text>
</a>
</g>
</g>
<!-- Node22&#45;&gt;Node25 -->
<g id="edge42" class="edge">
<title>Node22&#45;&gt;Node25</title>
<path fill="none" stroke="midnightblue" d="M585.54,-112.44C604.62,-103.64 634.57,-89.81 656.44,-79.72"/>
<polygon fill="midnightblue" stroke="midnightblue" points="657.93,-82.88 665.55,-75.52 655,-76.53 657.93,-82.88"/>
</g>
</g>
</svg>
