<?xml version="1.0" encoding="UTF-8" standalone="no"?>
<!DOCTYPE svg PUBLIC "-//W3C//DTD SVG 1.1//EN"
 "http://www.w3.org/Graphics/SVG/1.1/DTD/svg11.dtd">
<!-- Generated by graphviz version 2.43.0 (0)
 -->
<!-- Title: mp4coverart.h Pages: 1 -->
<svg width="878pt" height="364pt"
 viewBox="0.00 0.00 878.00 364.00" xmlns="http://www.w3.org/2000/svg" xmlns:xlink="http://www.w3.org/1999/xlink">
<g id="graph0" class="graph" transform="scale(1 1) rotate(0) translate(4 360)">
<title>mp4coverart.h</title>
<polygon fill="white" stroke="transparent" points="-4,4 -4,-360 874,-360 874,4 -4,4"/>
<!-- Node1 -->
<g id="node1" class="node">
<title>Node1</title>
<g id="a_node1"><a xlink:title=" ">
<polygon fill="#bfbfbf" stroke="black" points="361,-336.5 361,-355.5 449,-355.5 449,-336.5 361,-336.5"/>
<text text-anchor="middle" x="405" y="-343.5" font-family="Helvetica,sans-Serif" font-size="10.00">mp4coverart.h</text>
</a>
</g>
</g>
<!-- Node2 -->
<g id="node2" class="node">
<title>Node2</title>
<g id="a_node2"><a xlink:href="tlist_8h.html" target="_top" xlink:title=" ">
<polygon fill="white" stroke="black" points="248,-56.5 248,-75.5 292,-75.5 292,-56.5 248,-56.5"/>
<text text-anchor="middle" x="270" y="-63.5" font-family="Helvetica,sans-Serif" font-size="10.00">tlist.h</text>
</a>
</g>
</g>
<!-- Node1&#45;&gt;Node2 -->
<g id="edge1" class="edge">
<title>Node1&#45;&gt;Node2</title>
<path fill="none" stroke="midnightblue" d="M377.35,-336.42C337.86,-322.23 270,-289.87 270,-235 270,-235 270,-235 270,-177 270,-144.95 270,-107.64 270,-85.75"/>
<polygon fill="midnightblue" stroke="midnightblue" points="273.5,-85.56 270,-75.56 266.5,-85.56 273.5,-85.56"/>
</g>
<!-- Node7 -->
<g id="node7" class="node">
<title>Node7</title>
<g id="a_node7"><a xlink:href="tbytevector_8h.html" target="_top" xlink:title=" ">
<polygon fill="white" stroke="black" points="456.5,-56.5 456.5,-75.5 537.5,-75.5 537.5,-56.5 456.5,-56.5"/>
<text text-anchor="middle" x="497" y="-63.5" font-family="Helvetica,sans-Serif" font-size="10.00">tbytevector.h</text>
</a>
</g>
</g>
<!-- Node1&#45;&gt;Node7 -->
<g id="edge6" class="edge">
<title>Node1&#45;&gt;Node7</title>
<path fill="none" stroke="midnightblue" d="M401.41,-336.19C396.77,-323.71 389.67,-300.15 393,-280 401.56,-228.14 408,-215.26 431,-168 446.27,-136.62 469.62,-103.3 484.07,-83.86"/>
<polygon fill="midnightblue" stroke="midnightblue" points="486.97,-85.83 490.19,-75.74 481.38,-81.62 486.97,-85.83"/>
</g>
<!-- Node10 -->
<g id="node10" class="node">
<title>Node10</title>
<g id="a_node10"><a xlink:href="taglib__export_8h.html" target="_top" xlink:title=" ">
<polygon fill="white" stroke="black" points="628,-0.5 628,-19.5 718,-19.5 718,-0.5 628,-0.5"/>
<text text-anchor="middle" x="673" y="-7.5" font-family="Helvetica,sans-Serif" font-size="10.00">taglib_export.h</text>
</a>
</g>
</g>
<!-- Node1&#45;&gt;Node10 -->
<g id="edge11" class="edge">
<title>Node1&#45;&gt;Node10</title>
<path fill="none" stroke="midnightblue" d="M449.17,-343.9C565.24,-339.83 870,-320.96 870,-235 870,-235 870,-235 870,-121 870,-55.78 786.66,-28.86 728.4,-18.02"/>
<polygon fill="midnightblue" stroke="midnightblue" points="728.65,-14.51 718.2,-16.23 727.44,-21.4 728.65,-14.51"/>
</g>
<!-- Node11 -->
<g id="node11" class="node">
<title>Node11</title>
<g id="a_node11"><a xlink:href="mp4atom_8h.html" target="_top" xlink:title=" ">
<polygon fill="white" stroke="black" points="401.5,-280.5 401.5,-299.5 474.5,-299.5 474.5,-280.5 401.5,-280.5"/>
<text text-anchor="middle" x="438" y="-287.5" font-family="Helvetica,sans-Serif" font-size="10.00">mp4atom.h</text>
</a>
</g>
</g>
<!-- Node1&#45;&gt;Node11 -->
<g id="edge12" class="edge">
<title>Node1&#45;&gt;Node11</title>
<path fill="none" stroke="midnightblue" d="M410.45,-336.08C415.01,-328.61 421.67,-317.72 427.29,-308.52"/>
<polygon fill="midnightblue" stroke="midnightblue" points="430.42,-310.11 432.65,-299.75 424.45,-306.46 430.42,-310.11"/>
</g>
<!-- Node3 -->
<g id="node3" class="node">
<title>Node3</title>
<g id="a_node3"><a xlink:title=" ">
<polygon fill="white" stroke="#bfbfbf" points="0,-0.5 0,-19.5 32,-19.5 32,-0.5 0,-0.5"/>
<text text-anchor="middle" x="16" y="-7.5" font-family="Helvetica,sans-Serif" font-size="10.00">list</text>
</a>
</g>
</g>
<!-- Node2&#45;&gt;Node3 -->
<g id="edge2" class="edge">
<title>Node2&#45;&gt;Node3</title>
<path fill="none" stroke="midnightblue" d="M247.96,-61.81C208.43,-55.84 122.82,-41.83 41.87,-19.89"/>
<polygon fill="midnightblue" stroke="midnightblue" points="42.59,-16.46 32.02,-17.17 40.73,-23.21 42.59,-16.46"/>
</g>
<!-- Node4 -->
<g id="node4" class="node">
<title>Node4</title>
<g id="a_node4"><a xlink:title=" ">
<polygon fill="white" stroke="#bfbfbf" points="121.5,-0.5 121.5,-19.5 204.5,-19.5 204.5,-0.5 121.5,-0.5"/>
<text text-anchor="middle" x="163" y="-7.5" font-family="Helvetica,sans-Serif" font-size="10.00">initializer_list</text>
</a>
</g>
</g>
<!-- Node2&#45;&gt;Node4 -->
<g id="edge3" class="edge">
<title>Node2&#45;&gt;Node4</title>
<path fill="none" stroke="midnightblue" d="M252.81,-56.32C235.65,-47.66 209.05,-34.24 189.25,-24.25"/>
<polygon fill="midnightblue" stroke="midnightblue" points="190.65,-21.04 180.15,-19.65 187.5,-27.28 190.65,-21.04"/>
</g>
<!-- Node5 -->
<g id="node5" class="node">
<title>Node5</title>
<g id="a_node5"><a xlink:title=" ">
<polygon fill="white" stroke="#bfbfbf" points="300,-0.5 300,-19.5 358,-19.5 358,-0.5 300,-0.5"/>
<text text-anchor="middle" x="329" y="-7.5" font-family="Helvetica,sans-Serif" font-size="10.00">memory</text>
</a>
</g>
</g>
<!-- Node2&#45;&gt;Node5 -->
<g id="edge4" class="edge">
<title>Node2&#45;&gt;Node5</title>
<path fill="none" stroke="midnightblue" d="M279.48,-56.32C288.2,-48.34 301.34,-36.31 311.9,-26.65"/>
<polygon fill="midnightblue" stroke="midnightblue" points="314.33,-29.17 319.35,-19.83 309.61,-24 314.33,-29.17"/>
</g>
<!-- Node6 -->
<g id="node6" class="node">
<title>Node6</title>
<g id="a_node6"><a xlink:title=" ">
<polygon fill="white" stroke="#bfbfbf" points="50.5,-0.5 50.5,-19.5 103.5,-19.5 103.5,-0.5 50.5,-0.5"/>
<text text-anchor="middle" x="77" y="-7.5" font-family="Helvetica,sans-Serif" font-size="10.00">tlist.tcc</text>
</a>
</g>
</g>
<!-- Node2&#45;&gt;Node6 -->
<g id="edge5" class="edge">
<title>Node2&#45;&gt;Node6</title>
<path fill="none" stroke="midnightblue" d="M247.86,-58.81C215.07,-49.63 153.21,-32.32 113.61,-21.24"/>
<polygon fill="midnightblue" stroke="midnightblue" points="114.38,-17.83 103.81,-18.5 112.5,-24.57 114.38,-17.83"/>
</g>
<!-- Node7&#45;&gt;Node5 -->
<g id="edge7" class="edge">
<title>Node7&#45;&gt;Node5</title>
<path fill="none" stroke="midnightblue" d="M470.38,-56.44C441.99,-47.32 396.86,-32.81 365.25,-22.65"/>
<polygon fill="midnightblue" stroke="midnightblue" points="366.09,-19.24 355.5,-19.52 363.94,-25.91 366.09,-19.24"/>
</g>
<!-- Node8 -->
<g id="node8" class="node">
<title>Node8</title>
<g id="a_node8"><a xlink:title=" ">
<polygon fill="white" stroke="#bfbfbf" points="562.5,-0.5 562.5,-19.5 609.5,-19.5 609.5,-0.5 562.5,-0.5"/>
<text text-anchor="middle" x="586" y="-7.5" font-family="Helvetica,sans-Serif" font-size="10.00">vector</text>
</a>
</g>
</g>
<!-- Node7&#45;&gt;Node8 -->
<g id="edge8" class="edge">
<title>Node7&#45;&gt;Node8</title>
<path fill="none" stroke="midnightblue" d="M511.3,-56.32C525.18,-47.9 546.49,-34.97 562.8,-25.07"/>
<polygon fill="midnightblue" stroke="midnightblue" points="565,-27.83 571.74,-19.65 561.37,-21.85 565,-27.83"/>
</g>
<!-- Node9 -->
<g id="node9" class="node">
<title>Node9</title>
<g id="a_node9"><a xlink:title=" ">
<polygon fill="white" stroke="#bfbfbf" points="496,-0.5 496,-19.5 544,-19.5 544,-0.5 496,-0.5"/>
<text text-anchor="middle" x="520" y="-7.5" font-family="Helvetica,sans-Serif" font-size="10.00">iosfwd</text>
</a>
</g>
</g>
<!-- Node7&#45;&gt;Node9 -->
<g id="edge9" class="edge">
<title>Node7&#45;&gt;Node9</title>
<path fill="none" stroke="midnightblue" d="M500.8,-56.08C503.91,-48.77 508.42,-38.18 512.29,-29.1"/>
<polygon fill="midnightblue" stroke="midnightblue" points="515.57,-30.32 516.27,-19.75 509.13,-27.58 515.57,-30.32"/>
</g>
<!-- Node7&#45;&gt;Node10 -->
<g id="edge10" class="edge">
<title>Node7&#45;&gt;Node10</title>
<path fill="none" stroke="midnightblue" d="M524.89,-56.44C554.75,-47.28 602.31,-32.69 635.46,-22.52"/>
<polygon fill="midnightblue" stroke="midnightblue" points="636.71,-25.8 645.24,-19.52 634.66,-19.1 636.71,-25.8"/>
</g>
<!-- Node11&#45;&gt;Node2 -->
<g id="edge39" class="edge">
<title>Node11&#45;&gt;Node2</title>
<path fill="none" stroke="midnightblue" d="M431.41,-280.3C406.33,-247.15 316.48,-128.41 282.84,-83.96"/>
<polygon fill="midnightblue" stroke="midnightblue" points="285.55,-81.75 276.72,-75.88 279.97,-85.97 285.55,-81.75"/>
</g>
<!-- Node12 -->
<g id="node12" class="node">
<title>Node12</title>
<g id="a_node12"><a xlink:href="tfile_8h.html" target="_top" xlink:title=" ">
<polygon fill="white" stroke="black" points="537,-224.5 537,-243.5 581,-243.5 581,-224.5 537,-224.5"/>
<text text-anchor="middle" x="559" y="-231.5" font-family="Helvetica,sans-Serif" font-size="10.00">tfile.h</text>
</a>
</g>
</g>
<!-- Node11&#45;&gt;Node12 -->
<g id="edge13" class="edge">
<title>Node11&#45;&gt;Node12</title>
<path fill="none" stroke="midnightblue" d="M457.17,-280.44C476.91,-271.64 507.89,-257.81 530.49,-247.72"/>
<polygon fill="midnightblue" stroke="midnightblue" points="532.21,-250.79 539.92,-243.52 529.36,-244.4 532.21,-250.79"/>
</g>
<!-- Node12&#45;&gt;Node7 -->
<g id="edge14" class="edge">
<title>Node12&#45;&gt;Node7</title>
<path fill="none" stroke="midnightblue" d="M555.67,-224.08C545.87,-197.83 517,-120.55 503.77,-85.12"/>
<polygon fill="midnightblue" stroke="midnightblue" points="506.98,-83.71 500.2,-75.57 500.42,-86.16 506.98,-83.71"/>
</g>
<!-- Node12&#45;&gt;Node10 -->
<g id="edge20" class="edge">
<title>Node12&#45;&gt;Node10</title>
<path fill="none" stroke="midnightblue" d="M581.02,-230.13C627.84,-222.81 737.66,-199.08 795,-132 817.55,-105.61 833.45,-84.05 813,-56 793.68,-29.49 758.49,-18.26 728.23,-13.64"/>
<polygon fill="midnightblue" stroke="midnightblue" points="728.55,-10.16 718.18,-12.32 727.64,-17.1 728.55,-10.16"/>
</g>
<!-- Node13 -->
<g id="node13" class="node">
<title>Node13</title>
<g id="a_node13"><a xlink:href="tiostream_8h.html" target="_top" xlink:title=" ">
<polygon fill="white" stroke="black" points="571.5,-168.5 571.5,-187.5 644.5,-187.5 644.5,-168.5 571.5,-168.5"/>
<text text-anchor="middle" x="608" y="-175.5" font-family="Helvetica,sans-Serif" font-size="10.00">tiostream.h</text>
</a>
</g>
</g>
<!-- Node12&#45;&gt;Node13 -->
<g id="edge15" class="edge">
<title>Node12&#45;&gt;Node13</title>
<path fill="none" stroke="midnightblue" d="M567.09,-224.08C574.16,-216.3 584.59,-204.8 593.15,-195.37"/>
<polygon fill="midnightblue" stroke="midnightblue" points="595.93,-197.51 600.06,-187.75 590.75,-192.8 595.93,-197.51"/>
</g>
<!-- Node14 -->
<g id="node14" class="node">
<title>Node14</title>
<g id="a_node14"><a xlink:href="taglib_8h.html" target="_top" xlink:title=" ">
<polygon fill="white" stroke="black" points="732.5,-112.5 732.5,-131.5 785.5,-131.5 785.5,-112.5 732.5,-112.5"/>
<text text-anchor="middle" x="759" y="-119.5" font-family="Helvetica,sans-Serif" font-size="10.00">taglib.h</text>
</a>
</g>
</g>
<!-- Node12&#45;&gt;Node14 -->
<g id="edge21" class="edge">
<title>Node12&#45;&gt;Node14</title>
<path fill="none" stroke="midnightblue" d="M578.6,-224.49C598.04,-215.87 628.51,-201.87 654,-188 683.69,-171.84 716.64,-150.93 737.57,-137.25"/>
<polygon fill="midnightblue" stroke="midnightblue" points="739.59,-140.11 746.02,-131.69 735.74,-134.26 739.59,-140.11"/>
</g>
<!-- Node16 -->
<g id="node16" class="node">
<title>Node16</title>
<g id="a_node16"><a xlink:href="tag_8h.html" target="_top" xlink:title=" ">
<polygon fill="white" stroke="black" points="439.5,-168.5 439.5,-187.5 480.5,-187.5 480.5,-168.5 439.5,-168.5"/>
<text text-anchor="middle" x="460" y="-175.5" font-family="Helvetica,sans-Serif" font-size="10.00">tag.h</text>
</a>
</g>
</g>
<!-- Node12&#45;&gt;Node16 -->
<g id="edge22" class="edge">
<title>Node12&#45;&gt;Node16</title>
<path fill="none" stroke="midnightblue" d="M543.09,-224.32C527.36,-215.74 503.06,-202.49 484.79,-192.52"/>
<polygon fill="midnightblue" stroke="midnightblue" points="486.32,-189.37 475.87,-187.65 482.97,-195.52 486.32,-189.37"/>
</g>
<!-- Node13&#45;&gt;Node7 -->
<g id="edge16" class="edge">
<title>Node13&#45;&gt;Node7</title>
<path fill="none" stroke="midnightblue" d="M599.29,-168.37C580.65,-149.89 536.65,-106.29 512.89,-82.74"/>
<polygon fill="midnightblue" stroke="midnightblue" points="515.24,-80.14 505.67,-75.59 510.31,-85.12 515.24,-80.14"/>
</g>
<!-- Node13&#45;&gt;Node10 -->
<g id="edge17" class="edge">
<title>Node13&#45;&gt;Node10</title>
<path fill="none" stroke="midnightblue" d="M633.5,-168.47C649.99,-161.48 670.14,-149.79 680,-132 698.04,-99.46 687.82,-54.14 679.77,-29.22"/>
<polygon fill="midnightblue" stroke="midnightblue" points="683.02,-27.91 676.44,-19.61 676.41,-30.2 683.02,-27.91"/>
</g>
<!-- Node13&#45;&gt;Node14 -->
<g id="edge18" class="edge">
<title>Node13&#45;&gt;Node14</title>
<path fill="none" stroke="midnightblue" d="M631.93,-168.44C657.22,-159.4 697.3,-145.06 725.68,-134.92"/>
<polygon fill="midnightblue" stroke="midnightblue" points="726.95,-138.18 735.19,-131.52 724.59,-131.59 726.95,-138.18"/>
</g>
<!-- Node15 -->
<g id="node15" class="node">
<title>Node15</title>
<g id="a_node15"><a xlink:title=" ">
<polygon fill="white" stroke="#bfbfbf" points="732,-56.5 732,-75.5 804,-75.5 804,-56.5 732,-56.5"/>
<text text-anchor="middle" x="768" y="-63.5" font-family="Helvetica,sans-Serif" font-size="10.00">sys/types.h</text>
</a>
</g>
</g>
<!-- Node14&#45;&gt;Node15 -->
<g id="edge19" class="edge">
<title>Node14&#45;&gt;Node15</title>
<path fill="none" stroke="midnightblue" d="M760.49,-112.08C761.68,-104.93 763.39,-94.64 764.88,-85.69"/>
<polygon fill="midnightblue" stroke="midnightblue" points="768.35,-86.19 766.54,-75.75 761.45,-85.04 768.35,-86.19"/>
</g>
<!-- Node16&#45;&gt;Node2 -->
<g id="edge28" class="edge">
<title>Node16&#45;&gt;Node2</title>
<path fill="none" stroke="midnightblue" d="M439.51,-168.42C419.95,-159.96 389.85,-146.27 365,-132 337.77,-116.37 308.18,-95.44 289.38,-81.6"/>
<polygon fill="midnightblue" stroke="midnightblue" points="291.43,-78.77 281.32,-75.61 287.26,-84.39 291.43,-78.77"/>
</g>
<!-- Node16&#45;&gt;Node10 -->
<g id="edge23" class="edge">
<title>Node16&#45;&gt;Node10</title>
<path fill="none" stroke="midnightblue" d="M480.59,-174.57C523.24,-169.13 619.18,-154.63 642,-132 669.5,-104.73 673.72,-56.63 673.75,-30.03"/>
<polygon fill="midnightblue" stroke="midnightblue" points="677.25,-29.7 673.56,-19.77 670.25,-29.83 677.25,-29.7"/>
</g>
<!-- Node17 -->
<g id="node17" class="node">
<title>Node17</title>
<g id="a_node17"><a xlink:href="tstring_8h.html" target="_top" xlink:title=" ">
<polygon fill="white" stroke="black" points="575.5,-112.5 575.5,-131.5 632.5,-131.5 632.5,-112.5 575.5,-112.5"/>
<text text-anchor="middle" x="604" y="-119.5" font-family="Helvetica,sans-Serif" font-size="10.00">tstring.h</text>
</a>
</g>
</g>
<!-- Node16&#45;&gt;Node17 -->
<g id="edge24" class="edge">
<title>Node16&#45;&gt;Node17</title>
<path fill="none" stroke="midnightblue" d="M480.63,-169.26C504.32,-160.38 543.49,-145.69 571.33,-135.25"/>
<polygon fill="midnightblue" stroke="midnightblue" points="572.89,-138.4 581.03,-131.62 570.43,-131.85 572.89,-138.4"/>
</g>
<!-- Node19 -->
<g id="node19" class="node">
<title>Node19</title>
<g id="a_node19"><a xlink:href="tvariant_8h.html" target="_top" xlink:title=" ">
<polygon fill="white" stroke="black" points="374,-112.5 374,-131.5 438,-131.5 438,-112.5 374,-112.5"/>
<text text-anchor="middle" x="406" y="-119.5" font-family="Helvetica,sans-Serif" font-size="10.00">tvariant.h</text>
</a>
</g>
</g>
<!-- Node16&#45;&gt;Node19 -->
<g id="edge29" class="edge">
<title>Node16&#45;&gt;Node19</title>
<path fill="none" stroke="midnightblue" d="M451.08,-168.08C443.22,-160.22 431.57,-148.57 422.08,-139.08"/>
<polygon fill="midnightblue" stroke="midnightblue" points="424.3,-136.35 414.75,-131.75 419.35,-141.3 424.3,-136.35"/>
</g>
<!-- Node17&#45;&gt;Node7 -->
<g id="edge26" class="edge">
<title>Node17&#45;&gt;Node7</title>
<path fill="none" stroke="midnightblue" d="M586.81,-112.32C569.65,-103.66 543.05,-90.24 523.25,-80.25"/>
<polygon fill="midnightblue" stroke="midnightblue" points="524.65,-77.04 514.15,-75.65 521.5,-83.28 524.65,-77.04"/>
</g>
<!-- Node17&#45;&gt;Node10 -->
<g id="edge27" class="edge">
<title>Node17&#45;&gt;Node10</title>
<path fill="none" stroke="midnightblue" d="M609.41,-112.37C620.75,-94.3 647.17,-52.18 662.14,-28.31"/>
<polygon fill="midnightblue" stroke="midnightblue" points="665.26,-29.92 667.61,-19.59 659.33,-26.2 665.26,-29.92"/>
</g>
<!-- Node18 -->
<g id="node18" class="node">
<title>Node18</title>
<g id="a_node18"><a xlink:title=" ">
<polygon fill="white" stroke="#bfbfbf" points="556,-56.5 556,-75.5 600,-75.5 600,-56.5 556,-56.5"/>
<text text-anchor="middle" x="578" y="-63.5" font-family="Helvetica,sans-Serif" font-size="10.00">string</text>
</a>
</g>
</g>
<!-- Node17&#45;&gt;Node18 -->
<g id="edge25" class="edge">
<title>Node17&#45;&gt;Node18</title>
<path fill="none" stroke="midnightblue" d="M599.71,-112.08C596.15,-104.69 590.98,-93.95 586.58,-84.81"/>
<polygon fill="midnightblue" stroke="midnightblue" points="589.71,-83.24 582.21,-75.75 583.4,-86.28 589.71,-83.24"/>
</g>
<!-- Node19&#45;&gt;Node2 -->
<g id="edge31" class="edge">
<title>Node19&#45;&gt;Node2</title>
<path fill="none" stroke="midnightblue" d="M384.45,-112.44C361.97,-103.52 326.51,-89.44 301.02,-79.32"/>
<polygon fill="midnightblue" stroke="midnightblue" points="302.03,-75.95 291.45,-75.52 299.45,-82.46 302.03,-75.95"/>
</g>
<!-- Node19&#45;&gt;Node9 -->
<g id="edge30" class="edge">
<title>Node19&#45;&gt;Node9</title>
<path fill="none" stroke="midnightblue" d="M404.55,-112.43C402.78,-98.98 401.41,-72.71 414,-56 423.11,-43.91 458.52,-30.38 485.94,-21.34"/>
<polygon fill="midnightblue" stroke="midnightblue" points="487.17,-24.63 495.61,-18.23 485.02,-17.96 487.17,-24.63"/>
</g>
<!-- Node19&#45;&gt;Node10 -->
<g id="edge38" class="edge">
<title>Node19&#45;&gt;Node10</title>
<path fill="none" stroke="midnightblue" d="M409.07,-112.23C414.53,-98 427.34,-70.05 448,-56 455.05,-51.2 553.45,-32.67 617.76,-20.94"/>
<polygon fill="midnightblue" stroke="midnightblue" points="618.56,-24.35 627.77,-19.11 617.31,-17.46 618.56,-24.35"/>
</g>
<!-- Node20 -->
<g id="node20" class="node">
<title>Node20</title>
<g id="a_node20"><a xlink:href="tmap_8h.html" target="_top" xlink:title=" ">
<polygon fill="white" stroke="black" points="310.5,-56.5 310.5,-75.5 361.5,-75.5 361.5,-56.5 310.5,-56.5"/>
<text text-anchor="middle" x="336" y="-63.5" font-family="Helvetica,sans-Serif" font-size="10.00">tmap.h</text>
</a>
</g>
</g>
<!-- Node19&#45;&gt;Node20 -->
<g id="edge32" class="edge">
<title>Node19&#45;&gt;Node20</title>
<path fill="none" stroke="midnightblue" d="M394.75,-112.32C384.2,-104.18 368.2,-91.84 355.56,-82.09"/>
<polygon fill="midnightblue" stroke="midnightblue" points="357.51,-79.17 347.45,-75.83 353.23,-84.71 357.51,-79.17"/>
</g>
<!-- Node20&#45;&gt;Node4 -->
<g id="edge35" class="edge">
<title>Node20&#45;&gt;Node4</title>
<path fill="none" stroke="midnightblue" d="M310.47,-57.03C281.34,-47.94 233.44,-32.99 200.17,-22.6"/>
<polygon fill="midnightblue" stroke="midnightblue" points="200.94,-19.17 190.35,-19.54 198.85,-25.86 200.94,-19.17"/>
</g>
<!-- Node20&#45;&gt;Node5 -->
<g id="edge34" class="edge">
<title>Node20&#45;&gt;Node5</title>
<path fill="none" stroke="midnightblue" d="M334.84,-56.08C333.92,-48.93 332.58,-38.64 331.42,-29.69"/>
<polygon fill="midnightblue" stroke="midnightblue" points="334.89,-29.22 330.13,-19.75 327.95,-30.12 334.89,-29.22"/>
</g>
<!-- Node21 -->
<g id="node21" class="node">
<title>Node21</title>
<g id="a_node21"><a xlink:title=" ">
<polygon fill="white" stroke="#bfbfbf" points="376,-0.5 376,-19.5 414,-19.5 414,-0.5 376,-0.5"/>
<text text-anchor="middle" x="395" y="-7.5" font-family="Helvetica,sans-Serif" font-size="10.00">map</text>
</a>
</g>
</g>
<!-- Node20&#45;&gt;Node21 -->
<g id="edge33" class="edge">
<title>Node20&#45;&gt;Node21</title>
<path fill="none" stroke="midnightblue" d="M345.48,-56.32C354.2,-48.34 367.34,-36.31 377.9,-26.65"/>
<polygon fill="midnightblue" stroke="midnightblue" points="380.33,-29.17 385.35,-19.83 375.61,-24 380.33,-29.17"/>
</g>
<!-- Node22 -->
<g id="node22" class="node">
<title>Node22</title>
<g id="a_node22"><a xlink:title=" ">
<polygon fill="white" stroke="#bfbfbf" points="432.5,-0.5 432.5,-19.5 477.5,-19.5 477.5,-0.5 432.5,-0.5"/>
<text text-anchor="middle" x="455" y="-7.5" font-family="Helvetica,sans-Serif" font-size="10.00">utility</text>
</a>
</g>
</g>
<!-- Node20&#45;&gt;Node22 -->
<g id="edge36" class="edge">
<title>Node20&#45;&gt;Node22</title>
<path fill="none" stroke="midnightblue" d="M354.86,-56.44C374.27,-47.64 404.73,-33.81 426.96,-23.72"/>
<polygon fill="midnightblue" stroke="midnightblue" points="428.57,-26.84 436.23,-19.52 425.68,-20.46 428.57,-26.84"/>
</g>
<!-- Node23 -->
<g id="node23" class="node">
<title>Node23</title>
<g id="a_node23"><a xlink:title=" ">
<polygon fill="white" stroke="#bfbfbf" points="222.5,-0.5 222.5,-19.5 281.5,-19.5 281.5,-0.5 222.5,-0.5"/>
<text text-anchor="middle" x="252" y="-7.5" font-family="Helvetica,sans-Serif" font-size="10.00">tmap.tcc</text>
</a>
</g>
</g>
<!-- Node20&#45;&gt;Node23 -->
<g id="edge37" class="edge">
<title>Node20&#45;&gt;Node23</title>
<path fill="none" stroke="midnightblue" d="M322.5,-56.32C309.4,-47.9 289.29,-34.97 273.89,-25.07"/>
<polygon fill="midnightblue" stroke="midnightblue" points="275.77,-22.12 265.46,-19.65 271.98,-28.01 275.77,-22.12"/>
</g>
</g>
</svg>
