<?xml version="1.0" encoding="UTF-8" standalone="no"?>
<!DOCTYPE svg PUBLIC "-//W3C//DTD SVG 1.1//EN"
 "http://www.w3.org/Graphics/SVG/1.1/DTD/svg11.dtd">
<!-- Generated by graphviz version 2.43.0 (0)
 -->
<!-- Title: mp4coverart.h Pages: 1 -->
<svg width="436pt" height="196pt"
 viewBox="0.00 0.00 435.50 196.00" xmlns="http://www.w3.org/2000/svg" xmlns:xlink="http://www.w3.org/1999/xlink">
<g id="graph0" class="graph" transform="scale(1 1) rotate(0) translate(4 192)">
<title>mp4coverart.h</title>
<polygon fill="white" stroke="transparent" points="-4,4 -4,-192 431.5,-192 431.5,4 -4,4"/>
<!-- Node1 -->
<g id="node1" class="node">
<title>Node1</title>
<g id="a_node1"><a xlink:title=" ">
<polygon fill="#bfbfbf" stroke="black" points="197,-168.5 197,-187.5 285,-187.5 285,-168.5 197,-168.5"/>
<text text-anchor="middle" x="241" y="-175.5" font-family="Helvetica,sans-Serif" font-size="10.00">mp4coverart.h</text>
</a>
</g>
</g>
<!-- Node2 -->
<g id="node2" class="node">
<title>Node2</title>
<g id="a_node2"><a xlink:href="tlist_8h.html" target="_top" xlink:title=" ">
<polygon fill="white" stroke="black" points="260,-112.5 260,-131.5 304,-131.5 304,-112.5 260,-112.5"/>
<text text-anchor="middle" x="282" y="-119.5" font-family="Helvetica,sans-Serif" font-size="10.00">tlist.h</text>
</a>
</g>
</g>
<!-- Node1&#45;&gt;Node2 -->
<g id="edge1" class="edge">
<title>Node1&#45;&gt;Node2</title>
<path fill="none" stroke="midnightblue" d="M247.77,-168.08C253.56,-160.46 262.06,-149.26 269.14,-139.94"/>
<polygon fill="midnightblue" stroke="midnightblue" points="272.1,-141.83 275.36,-131.75 266.52,-137.6 272.1,-141.83"/>
</g>
<!-- Node8 -->
<g id="node8" class="node">
<title>Node8</title>
<g id="a_node8"><a xlink:href="tbytevector_8h.html" target="_top" xlink:title=" ">
<polygon fill="white" stroke="black" points="160.5,-112.5 160.5,-131.5 241.5,-131.5 241.5,-112.5 160.5,-112.5"/>
<text text-anchor="middle" x="201" y="-119.5" font-family="Helvetica,sans-Serif" font-size="10.00">tbytevector.h</text>
</a>
</g>
</g>
<!-- Node1&#45;&gt;Node8 -->
<g id="edge7" class="edge">
<title>Node1&#45;&gt;Node8</title>
<path fill="none" stroke="midnightblue" d="M234.39,-168.08C228.74,-160.46 220.46,-149.26 213.55,-139.94"/>
<polygon fill="midnightblue" stroke="midnightblue" points="216.25,-137.7 207.48,-131.75 210.62,-141.87 216.25,-137.7"/>
</g>
<!-- Node9 -->
<g id="node9" class="node">
<title>Node9</title>
<g id="a_node9"><a xlink:href="taglib__export_8h.html" target="_top" xlink:title=" ">
<polygon fill="white" stroke="black" points="0,-56.5 0,-75.5 90,-75.5 90,-56.5 0,-56.5"/>
<text text-anchor="middle" x="45" y="-63.5" font-family="Helvetica,sans-Serif" font-size="10.00">taglib_export.h</text>
</a>
</g>
</g>
<!-- Node1&#45;&gt;Node9 -->
<g id="edge12" class="edge">
<title>Node1&#45;&gt;Node9</title>
<path fill="none" stroke="midnightblue" d="M223.06,-168.44C204.93,-159.67 176.22,-145.45 152,-132 122.04,-115.36 88.4,-94.56 66.97,-81.04"/>
<polygon fill="midnightblue" stroke="midnightblue" points="68.63,-77.95 58.31,-75.55 64.89,-83.86 68.63,-77.95"/>
</g>
<!-- Node12 -->
<g id="node12" class="node">
<title>Node12</title>
<g id="a_node12"><a xlink:href="mp4atom_8h.html" target="_top" xlink:title=" ">
<polygon fill="white" stroke="black" points="322.5,-112.5 322.5,-131.5 395.5,-131.5 395.5,-112.5 322.5,-112.5"/>
<text text-anchor="middle" x="359" y="-119.5" font-family="Helvetica,sans-Serif" font-size="10.00">mp4atom.h</text>
</a>
</g>
</g>
<!-- Node1&#45;&gt;Node12 -->
<g id="edge13" class="edge">
<title>Node1&#45;&gt;Node12</title>
<path fill="none" stroke="midnightblue" d="M259.7,-168.44C278.94,-159.64 309.15,-145.81 331.2,-135.72"/>
<polygon fill="midnightblue" stroke="midnightblue" points="332.75,-138.86 340.39,-131.52 329.84,-132.5 332.75,-138.86"/>
</g>
<!-- Node3 -->
<g id="node3" class="node">
<title>Node3</title>
<g id="a_node3"><a xlink:href="taglib_8h.html" target="_top" xlink:title=" ">
<polygon fill="white" stroke="black" points="252.5,-56.5 252.5,-75.5 305.5,-75.5 305.5,-56.5 252.5,-56.5"/>
<text text-anchor="middle" x="279" y="-63.5" font-family="Helvetica,sans-Serif" font-size="10.00">taglib.h</text>
</a>
</g>
</g>
<!-- Node2&#45;&gt;Node3 -->
<g id="edge2" class="edge">
<title>Node2&#45;&gt;Node3</title>
<path fill="none" stroke="midnightblue" d="M281.5,-112.08C281.11,-105.01 280.55,-94.86 280.05,-85.99"/>
<polygon fill="midnightblue" stroke="midnightblue" points="283.54,-85.54 279.49,-75.75 276.55,-85.93 283.54,-85.54"/>
</g>
<!-- Node6 -->
<g id="node6" class="node">
<title>Node6</title>
<g id="a_node6"><a xlink:title=" ">
<polygon fill="white" stroke="#bfbfbf" points="324,-56.5 324,-75.5 356,-75.5 356,-56.5 324,-56.5"/>
<text text-anchor="middle" x="340" y="-63.5" font-family="Helvetica,sans-Serif" font-size="10.00">list</text>
</a>
</g>
</g>
<!-- Node2&#45;&gt;Node6 -->
<g id="edge5" class="edge">
<title>Node2&#45;&gt;Node6</title>
<path fill="none" stroke="midnightblue" d="M291.32,-112.32C299.89,-104.34 312.81,-92.31 323.19,-82.65"/>
<polygon fill="midnightblue" stroke="midnightblue" points="325.58,-85.21 330.51,-75.83 320.81,-80.09 325.58,-85.21"/>
</g>
<!-- Node7 -->
<g id="node7" class="node">
<title>Node7</title>
<g id="a_node7"><a xlink:title=" ">
<polygon fill="white" stroke="#bfbfbf" points="374.5,-56.5 374.5,-75.5 427.5,-75.5 427.5,-56.5 374.5,-56.5"/>
<text text-anchor="middle" x="401" y="-63.5" font-family="Helvetica,sans-Serif" font-size="10.00">tlist.tcc</text>
</a>
</g>
</g>
<!-- Node2&#45;&gt;Node7 -->
<g id="edge6" class="edge">
<title>Node2&#45;&gt;Node7</title>
<path fill="none" stroke="midnightblue" d="M300.86,-112.44C320.27,-103.64 350.73,-89.81 372.96,-79.72"/>
<polygon fill="midnightblue" stroke="midnightblue" points="374.57,-82.84 382.23,-75.52 371.68,-76.46 374.57,-82.84"/>
</g>
<!-- Node4 -->
<g id="node4" class="node">
<title>Node4</title>
<g id="a_node4"><a xlink:title=" ">
<polygon fill="white" stroke="#bfbfbf" points="193,-0.5 193,-19.5 281,-19.5 281,-0.5 193,-0.5"/>
<text text-anchor="middle" x="237" y="-7.5" font-family="Helvetica,sans-Serif" font-size="10.00">taglib_config.h</text>
</a>
</g>
</g>
<!-- Node3&#45;&gt;Node4 -->
<g id="edge3" class="edge">
<title>Node3&#45;&gt;Node4</title>
<path fill="none" stroke="midnightblue" d="M272.06,-56.08C266.07,-48.38 257.25,-37.03 249.95,-27.65"/>
<polygon fill="midnightblue" stroke="midnightblue" points="252.71,-25.5 243.81,-19.75 247.18,-29.79 252.71,-25.5"/>
</g>
<!-- Node5 -->
<g id="node5" class="node">
<title>Node5</title>
<g id="a_node5"><a xlink:title=" ">
<polygon fill="white" stroke="#bfbfbf" points="299,-0.5 299,-19.5 343,-19.5 343,-0.5 299,-0.5"/>
<text text-anchor="middle" x="321" y="-7.5" font-family="Helvetica,sans-Serif" font-size="10.00">string</text>
</a>
</g>
</g>
<!-- Node3&#45;&gt;Node5 -->
<g id="edge4" class="edge">
<title>Node3&#45;&gt;Node5</title>
<path fill="none" stroke="midnightblue" d="M285.94,-56.08C291.93,-48.38 300.75,-37.03 308.05,-27.65"/>
<polygon fill="midnightblue" stroke="midnightblue" points="310.82,-29.79 314.19,-19.75 305.29,-25.5 310.82,-29.79"/>
</g>
<!-- Node8&#45;&gt;Node3 -->
<g id="edge8" class="edge">
<title>Node8&#45;&gt;Node3</title>
<path fill="none" stroke="midnightblue" d="M213.53,-112.32C225.59,-103.98 244.03,-91.21 258.27,-81.35"/>
<polygon fill="midnightblue" stroke="midnightblue" points="260.27,-84.22 266.5,-75.65 256.28,-78.47 260.27,-84.22"/>
</g>
<!-- Node8&#45;&gt;Node9 -->
<g id="edge9" class="edge">
<title>Node8&#45;&gt;Node9</title>
<path fill="none" stroke="midnightblue" d="M176.28,-112.44C150.15,-103.4 108.74,-89.06 79.42,-78.92"/>
<polygon fill="midnightblue" stroke="midnightblue" points="80.2,-75.48 69.6,-75.52 77.91,-82.1 80.2,-75.48"/>
</g>
<!-- Node10 -->
<g id="node10" class="node">
<title>Node10</title>
<g id="a_node10"><a xlink:title=" ">
<polygon fill="white" stroke="#bfbfbf" points="108.5,-56.5 108.5,-75.5 155.5,-75.5 155.5,-56.5 108.5,-56.5"/>
<text text-anchor="middle" x="132" y="-63.5" font-family="Helvetica,sans-Serif" font-size="10.00">vector</text>
</a>
</g>
</g>
<!-- Node8&#45;&gt;Node10 -->
<g id="edge10" class="edge">
<title>Node8&#45;&gt;Node10</title>
<path fill="none" stroke="midnightblue" d="M189.91,-112.32C179.51,-104.18 163.74,-91.84 151.28,-82.09"/>
<polygon fill="midnightblue" stroke="midnightblue" points="153.32,-79.24 143.29,-75.83 149.01,-84.75 153.32,-79.24"/>
</g>
<!-- Node11 -->
<g id="node11" class="node">
<title>Node11</title>
<g id="a_node11"><a xlink:title=" ">
<polygon fill="white" stroke="#bfbfbf" points="174,-56.5 174,-75.5 234,-75.5 234,-56.5 174,-56.5"/>
<text text-anchor="middle" x="204" y="-63.5" font-family="Helvetica,sans-Serif" font-size="10.00">iostream</text>
</a>
</g>
</g>
<!-- Node8&#45;&gt;Node11 -->
<g id="edge11" class="edge">
<title>Node8&#45;&gt;Node11</title>
<path fill="none" stroke="midnightblue" d="M201.5,-112.08C201.89,-105.01 202.45,-94.86 202.95,-85.99"/>
<polygon fill="midnightblue" stroke="midnightblue" points="206.45,-85.93 203.51,-75.75 199.46,-85.54 206.45,-85.93"/>
</g>
</g>
</svg>
