<?xml version="1.0" encoding="UTF-8" standalone="no"?>
<!DOCTYPE svg PUBLIC "-//W3C//DTD SVG 1.1//EN"
 "http://www.w3.org/Graphics/SVG/1.1/DTD/svg11.dtd">
<!-- Generated by graphviz version 2.42.4 (0)
 -->
<!-- Title: mp4coverart.h Pages: 1 -->
<svg width="878pt" height="357pt"
 viewBox="0.00 0.00 878.00 357.00" xmlns="http://www.w3.org/2000/svg" xmlns:xlink="http://www.w3.org/1999/xlink">
<g id="graph0" class="graph" transform="scale(1 1) rotate(0) translate(4 353)">
<title>mp4coverart.h</title>
<!-- Node1 -->
<g id="Node000001" class="node">
<title>Node1</title>
<g id="a_Node000001"><a xlink:title=" ">
<polygon fill="#999999" stroke="#666666" points="449,-349 361,-349 361,-330 449,-330 449,-349"/>
<text text-anchor="middle" x="405" y="-337" font-family="Helvetica,sans-Serif" font-size="10.00">mp4coverart.h</text>
</a>
</g>
</g>
<!-- Node2 -->
<g id="Node000002" class="node">
<title>Node2</title>
<g id="a_Node000002"><a xlink:href="tlist_8h.html" target="_top" xlink:title=" ">
<polygon fill="white" stroke="#666666" points="292,-74 248,-74 248,-55 292,-55 292,-74"/>
<text text-anchor="middle" x="270" y="-62" font-family="Helvetica,sans-Serif" font-size="10.00">tlist.h</text>
</a>
</g>
</g>
<!-- Node1&#45;&gt;Node2 -->
<g id="edge1_Node000001_Node000002" class="edge">
<title>Node1&#45;&gt;Node2</title>
<g id="a_edge1_Node000001_Node000002"><a xlink:title=" ">
<path fill="none" stroke="#63b8ff" d="M376.7,-330C337.11,-316.15 270,-284.68 270,-230.5 270,-230.5 270,-230.5 270,-173.5 270,-142.19 270,-105.77 270,-84.23"/>
<polygon fill="#63b8ff" stroke="#63b8ff" points="273.5,-84.18 270,-74.18 266.5,-84.18 273.5,-84.18"/>
</a>
</g>
</g>
<!-- Node7 -->
<g id="Node000007" class="node">
<title>Node7</title>
<g id="a_Node000007"><a xlink:href="tbytevector_8h.html" target="_top" xlink:title=" ">
<polygon fill="white" stroke="#666666" points="537.5,-74 456.5,-74 456.5,-55 537.5,-55 537.5,-74"/>
<text text-anchor="middle" x="497" y="-62" font-family="Helvetica,sans-Serif" font-size="10.00">tbytevector.h</text>
</a>
</g>
</g>
<!-- Node1&#45;&gt;Node7 -->
<g id="edge6_Node000001_Node000007" class="edge">
<title>Node1&#45;&gt;Node7</title>
<g id="a_edge6_Node000001_Node000007"><a xlink:title=" ">
<path fill="none" stroke="#63b8ff" d="M401.42,-329.89C396.79,-317.7 389.69,-294.7 393,-275 401.56,-223.99 408.08,-211.37 431,-165 446.31,-134.04 469.65,-101.23 484.08,-82.1"/>
<polygon fill="#63b8ff" stroke="#63b8ff" points="486.9,-84.17 490.2,-74.1 481.34,-79.91 486.9,-84.17"/>
</a>
</g>
</g>
<!-- Node10 -->
<g id="Node000010" class="node">
<title>Node10</title>
<g id="a_Node000010"><a xlink:href="taglib__export_8h.html" target="_top" xlink:title=" ">
<polygon fill="white" stroke="#666666" points="718,-19 628,-19 628,0 718,0 718,-19"/>
<text text-anchor="middle" x="673" y="-7" font-family="Helvetica,sans-Serif" font-size="10.00">taglib_export.h</text>
</a>
</g>
</g>
<!-- Node1&#45;&gt;Node10 -->
<g id="edge11_Node000001_Node000010" class="edge">
<title>Node1&#45;&gt;Node10</title>
<g id="a_edge11_Node000001_Node000010"><a xlink:title=" ">
<path fill="none" stroke="#63b8ff" d="M449.17,-337.59C565.24,-333.99 870,-316.38 870,-230.5 870,-230.5 870,-230.5 870,-118.5 870,-53.56 786.66,-27.41 728.4,-17.06"/>
<polygon fill="#63b8ff" stroke="#63b8ff" points="728.63,-13.55 718.2,-15.36 727.49,-20.45 728.63,-13.55"/>
</a>
</g>
</g>
<!-- Node11 -->
<g id="Node000011" class="node">
<title>Node11</title>
<g id="a_Node000011"><a xlink:href="mp4atom_8h.html" target="_top" xlink:title=" ">
<polygon fill="white" stroke="#666666" points="474.5,-294 401.5,-294 401.5,-275 474.5,-275 474.5,-294"/>
<text text-anchor="middle" x="438" y="-282" font-family="Helvetica,sans-Serif" font-size="10.00">mp4atom.h</text>
</a>
</g>
</g>
<!-- Node1&#45;&gt;Node11 -->
<g id="edge12_Node000001_Node000011" class="edge">
<title>Node1&#45;&gt;Node11</title>
<g id="a_edge12_Node000001_Node000011"><a xlink:title=" ">
<path fill="none" stroke="#63b8ff" d="M410.45,-329.75C415.01,-322.42 421.67,-311.73 427.29,-302.7"/>
<polygon fill="#63b8ff" stroke="#63b8ff" points="430.34,-304.43 432.65,-294.09 424.4,-300.73 430.34,-304.43"/>
</a>
</g>
</g>
<!-- Node3 -->
<g id="Node000003" class="node">
<title>Node3</title>
<g id="a_Node000003"><a xlink:title=" ">
<polygon fill="#e0e0e0" stroke="#999999" points="32,-19 0,-19 0,0 32,0 32,-19"/>
<text text-anchor="middle" x="16" y="-7" font-family="Helvetica,sans-Serif" font-size="10.00">list</text>
</a>
</g>
</g>
<!-- Node2&#45;&gt;Node3 -->
<g id="edge2_Node000002_Node000003" class="edge">
<title>Node2&#45;&gt;Node3</title>
<g id="a_edge2_Node000002_Node000003"><a xlink:title=" ">
<path fill="none" stroke="#63b8ff" d="M247.99,-60.24C208.52,-54.19 122.99,-40.09 41.9,-18.93"/>
<polygon fill="#63b8ff" stroke="#63b8ff" points="42.6,-15.49 32.04,-16.31 40.81,-22.26 42.6,-15.49"/>
</a>
</g>
</g>
<!-- Node4 -->
<g id="Node000004" class="node">
<title>Node4</title>
<g id="a_Node000004"><a xlink:title=" ">
<polygon fill="#e0e0e0" stroke="#999999" points="204.5,-19 121.5,-19 121.5,0 204.5,0 204.5,-19"/>
<text text-anchor="middle" x="163" y="-7" font-family="Helvetica,sans-Serif" font-size="10.00">initializer_list</text>
</a>
</g>
</g>
<!-- Node2&#45;&gt;Node4 -->
<g id="edge3_Node000002_Node000004" class="edge">
<title>Node2&#45;&gt;Node4</title>
<g id="a_edge3_Node000002_Node000004"><a xlink:title=" ">
<path fill="none" stroke="#63b8ff" d="M252.81,-54.98C235.75,-46.54 209.37,-33.47 189.6,-23.68"/>
<polygon fill="#63b8ff" stroke="#63b8ff" points="191.02,-20.47 180.5,-19.17 187.91,-26.75 191.02,-20.47"/>
</a>
</g>
</g>
<!-- Node5 -->
<g id="Node000005" class="node">
<title>Node5</title>
<g id="a_Node000005"><a xlink:title=" ">
<polygon fill="#e0e0e0" stroke="#999999" points="358,-19 300,-19 300,0 358,0 358,-19"/>
<text text-anchor="middle" x="329" y="-7" font-family="Helvetica,sans-Serif" font-size="10.00">memory</text>
</a>
</g>
</g>
<!-- Node2&#45;&gt;Node5 -->
<g id="edge4_Node000002_Node000005" class="edge">
<title>Node2&#45;&gt;Node5</title>
<g id="a_edge4_Node000002_Node000005"><a xlink:title=" ">
<path fill="none" stroke="#63b8ff" d="M279.48,-54.98C288.2,-47.15 301.34,-35.34 311.9,-25.86"/>
<polygon fill="#63b8ff" stroke="#63b8ff" points="314.25,-28.46 319.35,-19.17 309.57,-23.25 314.25,-28.46"/>
</a>
</g>
</g>
<!-- Node6 -->
<g id="Node000006" class="node">
<title>Node6</title>
<g id="a_Node000006"><a xlink:title=" ">
<polygon fill="#e0e0e0" stroke="#999999" points="103.5,-19 50.5,-19 50.5,0 103.5,0 103.5,-19"/>
<text text-anchor="middle" x="77" y="-7" font-family="Helvetica,sans-Serif" font-size="10.00">tlist.tcc</text>
</a>
</g>
</g>
<!-- Node2&#45;&gt;Node6 -->
<g id="edge5_Node000002_Node000006" class="edge">
<title>Node2&#45;&gt;Node6</title>
<g id="a_edge5_Node000002_Node000006"><a xlink:title=" ">
<path fill="none" stroke="#63b8ff" d="M247.86,-57.42C215.07,-48.42 153.21,-31.43 113.61,-20.55"/>
<polygon fill="#63b8ff" stroke="#63b8ff" points="114.38,-17.14 103.81,-17.86 112.53,-23.89 114.38,-17.14"/>
</a>
</g>
</g>
<!-- Node7&#45;&gt;Node5 -->
<g id="edge7_Node000007_Node000005" class="edge">
<title>Node7&#45;&gt;Node5</title>
<g id="a_edge7_Node000007_Node000005"><a xlink:title=" ">
<path fill="none" stroke="#63b8ff" d="M470.01,-54.98C441.8,-46.09 397.36,-32.07 365.92,-22.15"/>
<polygon fill="#63b8ff" stroke="#63b8ff" points="366.79,-18.75 356.2,-19.08 364.69,-25.43 366.79,-18.75"/>
</a>
</g>
</g>
<!-- Node8 -->
<g id="Node000008" class="node">
<title>Node8</title>
<g id="a_Node000008"><a xlink:title=" ">
<polygon fill="#e0e0e0" stroke="#999999" points="609.5,-19 562.5,-19 562.5,0 609.5,0 609.5,-19"/>
<text text-anchor="middle" x="586" y="-7" font-family="Helvetica,sans-Serif" font-size="10.00">vector</text>
</a>
</g>
</g>
<!-- Node7&#45;&gt;Node8 -->
<g id="edge8_Node000007_Node000008" class="edge">
<title>Node7&#45;&gt;Node8</title>
<g id="a_edge8_Node000007_Node000008"><a xlink:title=" ">
<path fill="none" stroke="#63b8ff" d="M511.3,-54.98C525.1,-46.77 546.24,-34.18 562.51,-24.49"/>
<polygon fill="#63b8ff" stroke="#63b8ff" points="564.64,-27.29 571.44,-19.17 561.06,-21.28 564.64,-27.29"/>
</a>
</g>
</g>
<!-- Node9 -->
<g id="Node000009" class="node">
<title>Node9</title>
<g id="a_Node000009"><a xlink:title=" ">
<polygon fill="#e0e0e0" stroke="#999999" points="544,-19 496,-19 496,0 544,0 544,-19"/>
<text text-anchor="middle" x="520" y="-7" font-family="Helvetica,sans-Serif" font-size="10.00">iosfwd</text>
</a>
</g>
</g>
<!-- Node7&#45;&gt;Node9 -->
<g id="edge9_Node000007_Node000009" class="edge">
<title>Node7&#45;&gt;Node9</title>
<g id="a_edge9_Node000007_Node000009"><a xlink:title=" ">
<path fill="none" stroke="#63b8ff" d="M500.8,-54.75C503.91,-47.57 508.42,-37.18 512.29,-28.27"/>
<polygon fill="#63b8ff" stroke="#63b8ff" points="515.5,-29.66 516.27,-19.09 509.08,-26.87 515.5,-29.66"/>
</a>
</g>
</g>
<!-- Node7&#45;&gt;Node10 -->
<g id="edge10_Node000007_Node000010" class="edge">
<title>Node7&#45;&gt;Node10</title>
<g id="a_edge10_Node000007_Node000010"><a xlink:title=" ">
<path fill="none" stroke="#63b8ff" d="M525.28,-54.98C554.95,-46.05 601.79,-31.94 634.75,-22.02"/>
<polygon fill="#63b8ff" stroke="#63b8ff" points="635.93,-25.32 644.5,-19.08 633.92,-18.61 635.93,-25.32"/>
</a>
</g>
</g>
<!-- Node11&#45;&gt;Node2 -->
<g id="edge39_Node000011_Node000002" class="edge">
<title>Node11&#45;&gt;Node2</title>
<g id="a_edge39_Node000011_Node000002"><a xlink:title=" ">
<path fill="none" stroke="#63b8ff" d="M431.41,-274.95C406.33,-242.4 316.48,-125.81 282.84,-82.16"/>
<polygon fill="#63b8ff" stroke="#63b8ff" points="285.6,-80.01 276.72,-74.22 280.05,-84.28 285.6,-80.01"/>
</a>
</g>
</g>
<!-- Node12 -->
<g id="Node000012" class="node">
<title>Node12</title>
<g id="a_Node000012"><a xlink:href="tfile_8h.html" target="_top" xlink:title=" ">
<polygon fill="white" stroke="#666666" points="581,-239 537,-239 537,-220 581,-220 581,-239"/>
<text text-anchor="middle" x="559" y="-227" font-family="Helvetica,sans-Serif" font-size="10.00">tfile.h</text>
</a>
</g>
</g>
<!-- Node11&#45;&gt;Node12 -->
<g id="edge13_Node000011_Node000012" class="edge">
<title>Node11&#45;&gt;Node12</title>
<g id="a_edge13_Node000011_Node000012"><a xlink:title=" ">
<path fill="none" stroke="#63b8ff" d="M457.44,-274.98C476.99,-266.42 507.38,-253.11 529.82,-243.28"/>
<polygon fill="#63b8ff" stroke="#63b8ff" points="531.45,-246.39 539.21,-239.17 528.64,-239.98 531.45,-246.39"/>
</a>
</g>
</g>
<!-- Node12&#45;&gt;Node7 -->
<g id="edge14_Node000012_Node000007" class="edge">
<title>Node12&#45;&gt;Node7</title>
<g id="a_edge14_Node000012_Node000007"><a xlink:title=" ">
<path fill="none" stroke="#63b8ff" d="M555.67,-219.74C545.91,-194.09 517.27,-118.78 503.95,-83.78"/>
<polygon fill="#63b8ff" stroke="#63b8ff" points="507.18,-82.41 500.35,-74.31 500.63,-84.9 507.18,-82.41"/>
</a>
</g>
</g>
<!-- Node12&#45;&gt;Node10 -->
<g id="edge20_Node000012_Node000010" class="edge">
<title>Node12&#45;&gt;Node10</title>
<g id="a_edge20_Node000012_Node000010"><a xlink:title=" ">
<path fill="none" stroke="#63b8ff" d="M581.33,-225.69C628.27,-218.57 737.52,-195.4 795,-129 817.15,-103.41 832.98,-82.32 813,-55 793.66,-28.55 758.47,-17.44 728.21,-12.94"/>
<polygon fill="#63b8ff" stroke="#63b8ff" points="728.53,-9.45 718.17,-11.65 727.64,-16.39 728.53,-9.45"/>
</a>
</g>
</g>
<!-- Node13 -->
<g id="Node000013" class="node">
<title>Node13</title>
<g id="a_Node000013"><a xlink:href="tiostream_8h.html" target="_top" xlink:title=" ">
<polygon fill="white" stroke="#666666" points="644.5,-184 571.5,-184 571.5,-165 644.5,-165 644.5,-184"/>
<text text-anchor="middle" x="608" y="-172" font-family="Helvetica,sans-Serif" font-size="10.00">tiostream.h</text>
</a>
</g>
</g>
<!-- Node12&#45;&gt;Node13 -->
<g id="edge15_Node000012_Node000013" class="edge">
<title>Node12&#45;&gt;Node13</title>
<g id="a_edge15_Node000012_Node000013"><a xlink:title=" ">
<path fill="none" stroke="#63b8ff" d="M567.09,-219.75C574.16,-212.11 584.59,-200.82 593.15,-191.56"/>
<polygon fill="#63b8ff" stroke="#63b8ff" points="595.84,-193.81 600.06,-184.09 590.7,-189.06 595.84,-193.81"/>
</a>
</g>
</g>
<!-- Node14 -->
<g id="Node000014" class="node">
<title>Node14</title>
<g id="a_Node000014"><a xlink:href="taglib_8h.html" target="_top" xlink:title=" ">
<polygon fill="white" stroke="#666666" points="785.5,-129 732.5,-129 732.5,-110 785.5,-110 785.5,-129"/>
<text text-anchor="middle" x="759" y="-117" font-family="Helvetica,sans-Serif" font-size="10.00">taglib.h</text>
</a>
</g>
</g>
<!-- Node12&#45;&gt;Node14 -->
<g id="edge21_Node000012_Node000014" class="edge">
<title>Node12&#45;&gt;Node14</title>
<g id="a_edge21_Node000012_Node000014"><a xlink:title=" ">
<path fill="none" stroke="#63b8ff" d="M578.95,-219.89C598.38,-211.34 628.62,-197.57 654,-184 683.46,-168.25 716.22,-147.97 737.19,-134.62"/>
<polygon fill="#63b8ff" stroke="#63b8ff" points="739.14,-137.53 745.67,-129.19 735.36,-131.63 739.14,-137.53"/>
</a>
</g>
</g>
<!-- Node16 -->
<g id="Node000016" class="node">
<title>Node16</title>
<g id="a_Node000016"><a xlink:href="tag_8h.html" target="_top" xlink:title=" ">
<polygon fill="white" stroke="#666666" points="480.5,-184 439.5,-184 439.5,-165 480.5,-165 480.5,-184"/>
<text text-anchor="middle" x="460" y="-172" font-family="Helvetica,sans-Serif" font-size="10.00">tag.h</text>
</a>
</g>
</g>
<!-- Node12&#45;&gt;Node16 -->
<g id="edge22_Node000012_Node000016" class="edge">
<title>Node12&#45;&gt;Node16</title>
<g id="a_edge22_Node000012_Node000016"><a xlink:title=" ">
<path fill="none" stroke="#63b8ff" d="M543.09,-219.98C527.45,-211.61 503.34,-198.7 485.12,-188.95"/>
<polygon fill="#63b8ff" stroke="#63b8ff" points="486.66,-185.8 476.2,-184.17 483.36,-191.98 486.66,-185.8"/>
</a>
</g>
</g>
<!-- Node13&#45;&gt;Node7 -->
<g id="edge16_Node000013_Node000007" class="edge">
<title>Node13&#45;&gt;Node7</title>
<g id="a_edge16_Node000013_Node000007"><a xlink:title=" ">
<path fill="none" stroke="#63b8ff" d="M598.92,-164.66C580.12,-146.38 536.76,-104.18 513.1,-81.17"/>
<polygon fill="#63b8ff" stroke="#63b8ff" points="515.51,-78.62 505.9,-74.16 510.63,-83.64 515.51,-78.62"/>
</a>
</g>
</g>
<!-- Node13&#45;&gt;Node10 -->
<g id="edge17_Node000013_Node000010" class="edge">
<title>Node13&#45;&gt;Node10</title>
<g id="a_edge17_Node000013_Node000010"><a xlink:title=" ">
<path fill="none" stroke="#63b8ff" d="M633.85,-164.99C650.27,-158.09 670.2,-146.58 680,-129 697.66,-97.33 687.73,-53.21 679.8,-28.72"/>
<polygon fill="#63b8ff" stroke="#63b8ff" points="683.1,-27.54 676.51,-19.24 676.49,-29.83 683.1,-27.54"/>
</a>
</g>
</g>
<!-- Node13&#45;&gt;Node14 -->
<g id="edge18_Node000013_Node000014" class="edge">
<title>Node13&#45;&gt;Node14</title>
<g id="a_edge18_Node000013_Node000014"><a xlink:title=" ">
<path fill="none" stroke="#63b8ff" d="M632.26,-164.98C657.32,-156.19 696.63,-142.39 724.83,-132.49"/>
<polygon fill="#63b8ff" stroke="#63b8ff" points="726.02,-135.78 734.3,-129.17 723.7,-129.18 726.02,-135.78"/>
</a>
</g>
</g>
<!-- Node15 -->
<g id="Node000015" class="node">
<title>Node15</title>
<g id="a_Node000015"><a xlink:title=" ">
<polygon fill="#e0e0e0" stroke="#999999" points="804,-74 732,-74 732,-55 804,-55 804,-74"/>
<text text-anchor="middle" x="768" y="-62" font-family="Helvetica,sans-Serif" font-size="10.00">sys/types.h</text>
</a>
</g>
</g>
<!-- Node14&#45;&gt;Node15 -->
<g id="edge19_Node000014_Node000015" class="edge">
<title>Node14&#45;&gt;Node15</title>
<g id="a_edge19_Node000014_Node000015"><a xlink:title=" ">
<path fill="none" stroke="#63b8ff" d="M760.49,-109.75C761.67,-102.8 763.36,-92.85 764.84,-84.13"/>
<polygon fill="#63b8ff" stroke="#63b8ff" points="768.32,-84.53 766.54,-74.09 761.42,-83.36 768.32,-84.53"/>
</a>
</g>
</g>
<!-- Node16&#45;&gt;Node2 -->
<g id="edge28_Node000016_Node000002" class="edge">
<title>Node16&#45;&gt;Node2</title>
<g id="a_edge28_Node000016_Node000002"><a xlink:title=" ">
<path fill="none" stroke="#63b8ff" d="M439.54,-164.99C419.99,-156.6 389.9,-143.05 365,-129 338.12,-113.84 308.84,-93.66 289.99,-80.16"/>
<polygon fill="#63b8ff" stroke="#63b8ff" points="291.79,-77.14 281.63,-74.11 287.69,-82.81 291.79,-77.14"/>
</a>
</g>
</g>
<!-- Node16&#45;&gt;Node10 -->
<g id="edge23_Node000016_Node000010" class="edge">
<title>Node16&#45;&gt;Node10</title>
<g id="a_edge23_Node000016_Node000010"><a xlink:title=" ">
<path fill="none" stroke="#63b8ff" d="M480.58,-171.12C523.21,-165.78 619.1,-151.53 642,-129 669.07,-102.36 673.46,-55.23 673.64,-29.15"/>
<polygon fill="#63b8ff" stroke="#63b8ff" points="677.13,-29.05 673.5,-19.09 670.14,-29.14 677.13,-29.05"/>
</a>
</g>
</g>
<!-- Node17 -->
<g id="Node000017" class="node">
<title>Node17</title>
<g id="a_Node000017"><a xlink:href="tstring_8h.html" target="_top" xlink:title=" ">
<polygon fill="white" stroke="#666666" points="632.5,-129 575.5,-129 575.5,-110 632.5,-110 632.5,-129"/>
<text text-anchor="middle" x="604" y="-117" font-family="Helvetica,sans-Serif" font-size="10.00">tstring.h</text>
</a>
</g>
</g>
<!-- Node16&#45;&gt;Node17 -->
<g id="edge24_Node000016_Node000017" class="edge">
<title>Node16&#45;&gt;Node17</title>
<g id="a_edge24_Node000016_Node000017"><a xlink:title=" ">
<path fill="none" stroke="#63b8ff" d="M480.63,-165.91C504.18,-157.24 543.03,-142.94 570.84,-132.7"/>
<polygon fill="#63b8ff" stroke="#63b8ff" points="572.36,-135.87 580.54,-129.14 569.94,-129.3 572.36,-135.87"/>
</a>
</g>
</g>
<!-- Node19 -->
<g id="Node000019" class="node">
<title>Node19</title>
<g id="a_Node000019"><a xlink:href="tvariant_8h.html" target="_top" xlink:title=" ">
<polygon fill="white" stroke="#666666" points="438,-129 374,-129 374,-110 438,-110 438,-129"/>
<text text-anchor="middle" x="406" y="-117" font-family="Helvetica,sans-Serif" font-size="10.00">tvariant.h</text>
</a>
</g>
</g>
<!-- Node16&#45;&gt;Node19 -->
<g id="edge29_Node000016_Node000019" class="edge">
<title>Node16&#45;&gt;Node19</title>
<g id="a_edge29_Node000016_Node000019"><a xlink:title=" ">
<path fill="none" stroke="#63b8ff" d="M451.08,-164.75C443.22,-157.03 431.57,-145.6 422.08,-136.28"/>
<polygon fill="#63b8ff" stroke="#63b8ff" points="424.34,-133.6 414.75,-129.09 419.44,-138.59 424.34,-133.6"/>
</a>
</g>
</g>
<!-- Node17&#45;&gt;Node7 -->
<g id="edge26_Node000017_Node000007" class="edge">
<title>Node17&#45;&gt;Node7</title>
<g id="a_edge26_Node000017_Node000007"><a xlink:title=" ">
<path fill="none" stroke="#63b8ff" d="M586.81,-109.98C569.75,-101.54 543.37,-88.47 523.6,-78.68"/>
<polygon fill="#63b8ff" stroke="#63b8ff" points="525.02,-75.47 514.5,-74.17 521.91,-81.75 525.02,-75.47"/>
</a>
</g>
</g>
<!-- Node17&#45;&gt;Node10 -->
<g id="edge27_Node000017_Node000010" class="edge">
<title>Node17&#45;&gt;Node10</title>
<g id="a_edge27_Node000017_Node000010"><a xlink:title=" ">
<path fill="none" stroke="#63b8ff" d="M609.65,-109.66C621.08,-91.77 647.12,-51 662.02,-27.69"/>
<polygon fill="#63b8ff" stroke="#63b8ff" points="665.03,-29.47 667.47,-19.16 659.13,-25.7 665.03,-29.47"/>
</a>
</g>
</g>
<!-- Node18 -->
<g id="Node000018" class="node">
<title>Node18</title>
<g id="a_Node000018"><a xlink:title=" ">
<polygon fill="#e0e0e0" stroke="#999999" points="600,-74 556,-74 556,-55 600,-55 600,-74"/>
<text text-anchor="middle" x="578" y="-62" font-family="Helvetica,sans-Serif" font-size="10.00">string</text>
</a>
</g>
</g>
<!-- Node17&#45;&gt;Node18 -->
<g id="edge25_Node000017_Node000018" class="edge">
<title>Node17&#45;&gt;Node18</title>
<g id="a_edge25_Node000017_Node000018"><a xlink:title=" ">
<path fill="none" stroke="#63b8ff" d="M599.71,-109.75C596.19,-102.57 591.09,-92.18 586.72,-83.27"/>
<polygon fill="#63b8ff" stroke="#63b8ff" points="589.76,-81.53 582.21,-74.09 583.48,-84.61 589.76,-81.53"/>
</a>
</g>
</g>
<!-- Node19&#45;&gt;Node2 -->
<g id="edge31_Node000019_Node000002" class="edge">
<title>Node19&#45;&gt;Node2</title>
<g id="a_edge31_Node000019_Node000002"><a xlink:title=" ">
<path fill="none" stroke="#63b8ff" d="M384.15,-109.98C361.88,-101.3 327.1,-87.75 301.78,-77.88"/>
<polygon fill="#63b8ff" stroke="#63b8ff" points="302.84,-74.54 292.25,-74.17 300.29,-81.06 302.84,-74.54"/>
</a>
</g>
</g>
<!-- Node19&#45;&gt;Node9 -->
<g id="edge30_Node000019_Node000009" class="edge">
<title>Node19&#45;&gt;Node9</title>
<g id="a_edge30_Node000019_Node000009"><a xlink:title=" ">
<path fill="none" stroke="#63b8ff" d="M404.55,-109.69C402.89,-96.41 401.77,-71.11 414,-55 423.14,-42.97 458.54,-29.6 485.95,-20.69"/>
<polygon fill="#63b8ff" stroke="#63b8ff" points="487.15,-23.98 495.62,-17.62 485.03,-17.31 487.15,-23.98"/>
</a>
</g>
</g>
<!-- Node19&#45;&gt;Node10 -->
<g id="edge38_Node000019_Node000010" class="edge">
<title>Node19&#45;&gt;Node10</title>
<g id="a_edge38_Node000019_Node000010"><a xlink:title=" ">
<path fill="none" stroke="#63b8ff" d="M409.12,-109.93C414.66,-96.01 427.58,-68.7 448,-55 455.08,-50.25 553.47,-31.92 617.77,-20.32"/>
<polygon fill="#63b8ff" stroke="#63b8ff" points="618.56,-23.74 627.78,-18.52 617.32,-16.85 618.56,-23.74"/>
</a>
</g>
</g>
<!-- Node20 -->
<g id="Node000020" class="node">
<title>Node20</title>
<g id="a_Node000020"><a xlink:href="tmap_8h.html" target="_top" xlink:title=" ">
<polygon fill="white" stroke="#666666" points="361.5,-74 310.5,-74 310.5,-55 361.5,-55 361.5,-74"/>
<text text-anchor="middle" x="336" y="-62" font-family="Helvetica,sans-Serif" font-size="10.00">tmap.h</text>
</a>
</g>
</g>
<!-- Node19&#45;&gt;Node20 -->
<g id="edge32_Node000019_Node000020" class="edge">
<title>Node19&#45;&gt;Node20</title>
<g id="a_edge32_Node000019_Node000020"><a xlink:title=" ">
<path fill="none" stroke="#63b8ff" d="M394.75,-109.98C384.2,-102 368.2,-89.88 355.56,-80.31"/>
<polygon fill="#63b8ff" stroke="#63b8ff" points="357.54,-77.42 347.45,-74.17 353.31,-83 357.54,-77.42"/>
</a>
</g>
</g>
<!-- Node20&#45;&gt;Node4 -->
<g id="edge35_Node000020_Node000004" class="edge">
<title>Node20&#45;&gt;Node4</title>
<g id="a_edge35_Node000020_Node000004"><a xlink:title=" ">
<path fill="none" stroke="#63b8ff" d="M310.47,-55.68C281.51,-46.81 234,-32.25 200.75,-22.07"/>
<polygon fill="#63b8ff" stroke="#63b8ff" points="201.51,-18.64 190.93,-19.06 199.46,-25.33 201.51,-18.64"/>
</a>
</g>
</g>
<!-- Node20&#45;&gt;Node5 -->
<g id="edge34_Node000020_Node000005" class="edge">
<title>Node20&#45;&gt;Node5</title>
<g id="a_edge34_Node000020_Node000005"><a xlink:title=" ">
<path fill="none" stroke="#63b8ff" d="M334.84,-54.75C333.93,-47.8 332.61,-37.85 331.46,-29.13"/>
<polygon fill="#63b8ff" stroke="#63b8ff" points="334.91,-28.54 330.13,-19.09 327.97,-29.46 334.91,-28.54"/>
</a>
</g>
</g>
<!-- Node21 -->
<g id="Node000021" class="node">
<title>Node21</title>
<g id="a_Node000021"><a xlink:title=" ">
<polygon fill="#e0e0e0" stroke="#999999" points="414,-19 376,-19 376,0 414,0 414,-19"/>
<text text-anchor="middle" x="395" y="-7" font-family="Helvetica,sans-Serif" font-size="10.00">map</text>
</a>
</g>
</g>
<!-- Node20&#45;&gt;Node21 -->
<g id="edge33_Node000020_Node000021" class="edge">
<title>Node20&#45;&gt;Node21</title>
<g id="a_edge33_Node000020_Node000021"><a xlink:title=" ">
<path fill="none" stroke="#63b8ff" d="M345.48,-54.98C354.2,-47.15 367.34,-35.34 377.9,-25.86"/>
<polygon fill="#63b8ff" stroke="#63b8ff" points="380.25,-28.46 385.35,-19.17 375.57,-23.25 380.25,-28.46"/>
</a>
</g>
</g>
<!-- Node22 -->
<g id="Node000022" class="node">
<title>Node22</title>
<g id="a_Node000022"><a xlink:title=" ">
<polygon fill="#e0e0e0" stroke="#999999" points="477.5,-19 432.5,-19 432.5,0 477.5,0 477.5,-19"/>
<text text-anchor="middle" x="455" y="-7" font-family="Helvetica,sans-Serif" font-size="10.00">utility</text>
</a>
</g>
</g>
<!-- Node20&#45;&gt;Node22 -->
<g id="edge36_Node000020_Node000022" class="edge">
<title>Node20&#45;&gt;Node22</title>
<g id="a_edge36_Node000020_Node000022"><a xlink:title=" ">
<path fill="none" stroke="#63b8ff" d="M355.12,-54.98C374.35,-46.42 404.23,-33.11 426.31,-23.28"/>
<polygon fill="#63b8ff" stroke="#63b8ff" points="427.82,-26.44 435.53,-19.17 424.97,-20.04 427.82,-26.44"/>
</a>
</g>
</g>
<!-- Node23 -->
<g id="Node000023" class="node">
<title>Node23</title>
<g id="a_Node000023"><a xlink:title=" ">
<polygon fill="#e0e0e0" stroke="#999999" points="281.5,-19 222.5,-19 222.5,0 281.5,0 281.5,-19"/>
<text text-anchor="middle" x="252" y="-7" font-family="Helvetica,sans-Serif" font-size="10.00">tmap.tcc</text>
</a>
</g>
</g>
<!-- Node20&#45;&gt;Node23 -->
<g id="edge37_Node000020_Node000023" class="edge">
<title>Node20&#45;&gt;Node23</title>
<g id="a_edge37_Node000020_Node000023"><a xlink:title=" ">
<path fill="none" stroke="#63b8ff" d="M322.5,-54.98C309.6,-46.84 289.9,-34.41 274.6,-24.76"/>
<polygon fill="#63b8ff" stroke="#63b8ff" points="276.07,-21.55 265.74,-19.17 272.33,-27.47 276.07,-21.55"/>
</a>
</g>
</g>
</g>
</svg>
