<?xml version="1.0" encoding="UTF-8" standalone="no"?>
<!DOCTYPE svg PUBLIC "-//W3C//DTD SVG 1.1//EN"
 "http://www.w3.org/Graphics/SVG/1.1/DTD/svg11.dtd">
<!-- Generated by graphviz version 2.46.1 (20210213.1702)
 -->
<!-- Title: mp4coverart.h Pages: 1 -->
<svg width="403pt" height="196pt"
 viewBox="0.00 0.00 402.50 196.00" xmlns="http://www.w3.org/2000/svg" xmlns:xlink="http://www.w3.org/1999/xlink">
<g id="graph0" class="graph" transform="scale(1 1) rotate(0) translate(4 192)">
<title>mp4coverart.h</title>
<polygon fill="white" stroke="transparent" points="-4,4 -4,-192 398.5,-192 398.5,4 -4,4"/>
<!-- Node1 -->
<g id="node1" class="node">
<title>Node1</title>
<g id="a_node1"><a xlink:title=" ">
<polygon fill="#bfbfbf" stroke="black" points="181.5,-168.5 181.5,-187.5 260.5,-187.5 260.5,-168.5 181.5,-168.5"/>
<text text-anchor="middle" x="221" y="-175.5" font-family="Helvetica,sans-Serif" font-size="10.00">mp4coverart.h</text>
</a>
</g>
</g>
<!-- Node2 -->
<g id="node2" class="node">
<title>Node2</title>
<g id="a_node2"><a xlink:href="tlist_8h.html" target="_top" xlink:title=" ">
<polygon fill="white" stroke="black" points="238.5,-112.5 238.5,-131.5 279.5,-131.5 279.5,-112.5 238.5,-112.5"/>
<text text-anchor="middle" x="259" y="-119.5" font-family="Helvetica,sans-Serif" font-size="10.00">tlist.h</text>
</a>
</g>
</g>
<!-- Node1&#45;&gt;Node2 -->
<g id="edge1" class="edge">
<title>Node1&#45;&gt;Node2</title>
<path fill="none" stroke="midnightblue" d="M227.27,-168.08C232.64,-160.46 240.52,-149.26 247.08,-139.94"/>
<polygon fill="midnightblue" stroke="midnightblue" points="249.95,-141.94 252.84,-131.75 244.22,-137.91 249.95,-141.94"/>
</g>
<!-- Node8 -->
<g id="node8" class="node">
<title>Node8</title>
<g id="a_node8"><a xlink:href="tbytevector_8h.html" target="_top" xlink:title=" ">
<polygon fill="white" stroke="black" points="147.5,-112.5 147.5,-131.5 220.5,-131.5 220.5,-112.5 147.5,-112.5"/>
<text text-anchor="middle" x="184" y="-119.5" font-family="Helvetica,sans-Serif" font-size="10.00">tbytevector.h</text>
</a>
</g>
</g>
<!-- Node1&#45;&gt;Node8 -->
<g id="edge7" class="edge">
<title>Node1&#45;&gt;Node8</title>
<path fill="none" stroke="midnightblue" d="M214.89,-168.08C209.72,-160.53 202.15,-149.49 195.81,-140.23"/>
<polygon fill="midnightblue" stroke="midnightblue" points="198.54,-138.02 190,-131.75 192.76,-141.98 198.54,-138.02"/>
</g>
<!-- Node9 -->
<g id="node9" class="node">
<title>Node9</title>
<g id="a_node9"><a xlink:href="taglib__export_8h.html" target="_top" xlink:title=" ">
<polygon fill="white" stroke="black" points="0,-56.5 0,-75.5 80,-75.5 80,-56.5 0,-56.5"/>
<text text-anchor="middle" x="40" y="-63.5" font-family="Helvetica,sans-Serif" font-size="10.00">taglib_export.h</text>
</a>
</g>
</g>
<!-- Node1&#45;&gt;Node9 -->
<g id="edge12" class="edge">
<title>Node1&#45;&gt;Node9</title>
<path fill="none" stroke="midnightblue" d="M204.45,-168.41C187.73,-159.62 161.27,-145.39 139,-132 111.34,-115.37 80.38,-94.7 60.57,-81.19"/>
<polygon fill="midnightblue" stroke="midnightblue" points="62.53,-78.29 52.3,-75.53 58.58,-84.07 62.53,-78.29"/>
</g>
<!-- Node12 -->
<g id="node12" class="node">
<title>Node12</title>
<g id="a_node12"><a xlink:href="mp4atom_8h.html" target="_top" xlink:title=" ">
<polygon fill="white" stroke="black" points="297.5,-112.5 297.5,-131.5 362.5,-131.5 362.5,-112.5 297.5,-112.5"/>
<text text-anchor="middle" x="330" y="-119.5" font-family="Helvetica,sans-Serif" font-size="10.00">mp4atom.h</text>
</a>
</g>
</g>
<!-- Node1&#45;&gt;Node12 -->
<g id="edge13" class="edge">
<title>Node1&#45;&gt;Node12</title>
<path fill="none" stroke="midnightblue" d="M238.51,-168.32C256.07,-159.62 283.33,-146.12 303.53,-136.11"/>
<polygon fill="midnightblue" stroke="midnightblue" points="305.12,-139.23 312.53,-131.65 302.02,-132.96 305.12,-139.23"/>
</g>
<!-- Node3 -->
<g id="node3" class="node">
<title>Node3</title>
<g id="a_node3"><a xlink:href="taglib_8h.html" target="_top" xlink:title=" ">
<polygon fill="white" stroke="black" points="232,-56.5 232,-75.5 280,-75.5 280,-56.5 232,-56.5"/>
<text text-anchor="middle" x="256" y="-63.5" font-family="Helvetica,sans-Serif" font-size="10.00">taglib.h</text>
</a>
</g>
</g>
<!-- Node2&#45;&gt;Node3 -->
<g id="edge2" class="edge">
<title>Node2&#45;&gt;Node3</title>
<path fill="none" stroke="midnightblue" d="M258.5,-112.08C258.11,-105.01 257.55,-94.86 257.05,-85.99"/>
<polygon fill="midnightblue" stroke="midnightblue" points="260.54,-85.54 256.49,-75.75 253.55,-85.93 260.54,-85.54"/>
</g>
<!-- Node6 -->
<g id="node6" class="node">
<title>Node6</title>
<g id="a_node6"><a xlink:title=" ">
<polygon fill="white" stroke="#bfbfbf" points="298.5,-56.5 298.5,-75.5 327.5,-75.5 327.5,-56.5 298.5,-56.5"/>
<text text-anchor="middle" x="313" y="-63.5" font-family="Helvetica,sans-Serif" font-size="10.00">list</text>
</a>
</g>
</g>
<!-- Node2&#45;&gt;Node6 -->
<g id="edge5" class="edge">
<title>Node2&#45;&gt;Node6</title>
<path fill="none" stroke="midnightblue" d="M267.92,-112.08C275.78,-104.22 287.43,-92.57 296.92,-83.08"/>
<polygon fill="midnightblue" stroke="midnightblue" points="299.65,-85.3 304.25,-75.75 294.7,-80.35 299.65,-85.3"/>
</g>
<!-- Node7 -->
<g id="node7" class="node">
<title>Node7</title>
<g id="a_node7"><a xlink:title=" ">
<polygon fill="white" stroke="#bfbfbf" points="345.5,-56.5 345.5,-75.5 394.5,-75.5 394.5,-56.5 345.5,-56.5"/>
<text text-anchor="middle" x="370" y="-63.5" font-family="Helvetica,sans-Serif" font-size="10.00">tlist.tcc</text>
</a>
</g>
</g>
<!-- Node2&#45;&gt;Node7 -->
<g id="edge6" class="edge">
<title>Node2&#45;&gt;Node7</title>
<path fill="none" stroke="midnightblue" d="M276.83,-112.32C294.72,-103.62 322.48,-90.12 343.05,-80.11"/>
<polygon fill="midnightblue" stroke="midnightblue" points="344.75,-83.18 352.21,-75.65 341.69,-76.88 344.75,-83.18"/>
</g>
<!-- Node4 -->
<g id="node4" class="node">
<title>Node4</title>
<g id="a_node4"><a xlink:title=" ">
<polygon fill="white" stroke="#bfbfbf" points="176,-0.5 176,-19.5 256,-19.5 256,-0.5 176,-0.5"/>
<text text-anchor="middle" x="216" y="-7.5" font-family="Helvetica,sans-Serif" font-size="10.00">taglib_config.h</text>
</a>
</g>
</g>
<!-- Node3&#45;&gt;Node4 -->
<g id="edge3" class="edge">
<title>Node3&#45;&gt;Node4</title>
<path fill="none" stroke="midnightblue" d="M249.39,-56.08C243.74,-48.46 235.46,-37.26 228.55,-27.94"/>
<polygon fill="midnightblue" stroke="midnightblue" points="231.25,-25.7 222.48,-19.75 225.62,-29.87 231.25,-25.7"/>
</g>
<!-- Node5 -->
<g id="node5" class="node">
<title>Node5</title>
<g id="a_node5"><a xlink:title=" ">
<polygon fill="white" stroke="#bfbfbf" points="274.5,-0.5 274.5,-19.5 315.5,-19.5 315.5,-0.5 274.5,-0.5"/>
<text text-anchor="middle" x="295" y="-7.5" font-family="Helvetica,sans-Serif" font-size="10.00">string</text>
</a>
</g>
</g>
<!-- Node3&#45;&gt;Node5 -->
<g id="edge4" class="edge">
<title>Node3&#45;&gt;Node5</title>
<path fill="none" stroke="midnightblue" d="M262.44,-56.08C267.95,-48.46 276.03,-37.26 282.76,-27.94"/>
<polygon fill="midnightblue" stroke="midnightblue" points="285.66,-29.91 288.68,-19.75 279.99,-25.81 285.66,-29.91"/>
</g>
<!-- Node8&#45;&gt;Node3 -->
<g id="edge8" class="edge">
<title>Node8&#45;&gt;Node3</title>
<path fill="none" stroke="midnightblue" d="M195.57,-112.32C206.42,-104.18 222.88,-91.84 235.88,-82.09"/>
<polygon fill="midnightblue" stroke="midnightblue" points="238.32,-84.63 244.22,-75.83 234.12,-79.03 238.32,-84.63"/>
</g>
<!-- Node8&#45;&gt;Node9 -->
<g id="edge9" class="edge">
<title>Node8&#45;&gt;Node9</title>
<path fill="none" stroke="midnightblue" d="M161.18,-112.44C137.17,-103.44 99.17,-89.19 72.13,-79.05"/>
<polygon fill="midnightblue" stroke="midnightblue" points="73.3,-75.75 62.71,-75.52 70.84,-82.3 73.3,-75.75"/>
</g>
<!-- Node10 -->
<g id="node10" class="node">
<title>Node10</title>
<g id="a_node10"><a xlink:title=" ">
<polygon fill="white" stroke="#bfbfbf" points="98,-56.5 98,-75.5 142,-75.5 142,-56.5 98,-56.5"/>
<text text-anchor="middle" x="120" y="-63.5" font-family="Helvetica,sans-Serif" font-size="10.00">vector</text>
</a>
</g>
</g>
<!-- Node8&#45;&gt;Node10 -->
<g id="edge10" class="edge">
<title>Node8&#45;&gt;Node10</title>
<path fill="none" stroke="midnightblue" d="M173.72,-112.32C164.16,-104.26 149.72,-92.08 138.22,-82.37"/>
<polygon fill="midnightblue" stroke="midnightblue" points="140.37,-79.61 130.47,-75.83 135.86,-84.96 140.37,-79.61"/>
</g>
<!-- Node11 -->
<g id="node11" class="node">
<title>Node11</title>
<g id="a_node11"><a xlink:title=" ">
<polygon fill="white" stroke="#bfbfbf" points="160,-56.5 160,-75.5 214,-75.5 214,-56.5 160,-56.5"/>
<text text-anchor="middle" x="187" y="-63.5" font-family="Helvetica,sans-Serif" font-size="10.00">iostream</text>
</a>
</g>
</g>
<!-- Node8&#45;&gt;Node11 -->
<g id="edge11" class="edge">
<title>Node8&#45;&gt;Node11</title>
<path fill="none" stroke="midnightblue" d="M184.5,-112.08C184.89,-105.01 185.45,-94.86 185.95,-85.99"/>
<polygon fill="midnightblue" stroke="midnightblue" points="189.45,-85.93 186.51,-75.75 182.46,-85.54 189.45,-85.93"/>
</g>
</g>
</svg>
