<?xml version="1.0" encoding="UTF-8" standalone="no"?>
<!DOCTYPE svg PUBLIC "-//W3C//DTD SVG 1.1//EN"
 "http://www.w3.org/Graphics/SVG/1.1/DTD/svg11.dtd">
<!-- Generated by graphviz version 2.42.4 (0)
 -->
<!-- Title: mp4file.h Pages: 1 -->
<svg width="1339pt" height="522pt"
 viewBox="0.00 0.00 1339.00 522.00" xmlns="http://www.w3.org/2000/svg" xmlns:xlink="http://www.w3.org/1999/xlink">
<g id="graph0" class="graph" transform="scale(1 1) rotate(0) translate(4 518)">
<title>mp4file.h</title>
<!-- Node1 -->
<g id="Node000001" class="node">
<title>Node1</title>
<g id="a_Node000001"><a xlink:title=" ">
<polygon fill="#999999" stroke="#666666" points="808,-514 746,-514 746,-495 808,-495 808,-514"/>
<text text-anchor="middle" x="777" y="-502" font-family="Helvetica,sans-Serif" font-size="10.00">mp4file.h</text>
</a>
</g>
</g>
<!-- Node2 -->
<g id="Node000002" class="node">
<title>Node2</title>
<g id="a_Node000002"><a xlink:href="tfile_8h.html" target="_top" xlink:title=" ">
<polygon fill="white" stroke="#666666" points="595,-239 551,-239 551,-220 595,-220 595,-239"/>
<text text-anchor="middle" x="573" y="-227" font-family="Helvetica,sans-Serif" font-size="10.00">tfile.h</text>
</a>
</g>
</g>
<!-- Node1&#45;&gt;Node2 -->
<g id="edge1_Node000001_Node000002" class="edge">
<title>Node1&#45;&gt;Node2</title>
<g id="a_edge1_Node000001_Node000002"><a xlink:title=" ">
<path fill="none" stroke="#63b8ff" d="M745.86,-503.58C635.14,-503.06 267,-493.92 267,-395.5 267,-395.5 267,-395.5 267,-338.5 267,-280.93 462.05,-246.44 540.7,-234.88"/>
<polygon fill="#63b8ff" stroke="#63b8ff" points="541.59,-238.29 550.99,-233.4 540.6,-231.36 541.59,-238.29"/>
</a>
</g>
</g>
<!-- Node7 -->
<g id="Node000007" class="node">
<title>Node7</title>
<g id="a_Node000007"><a xlink:href="taglib__export_8h.html" target="_top" xlink:title=" ">
<polygon fill="white" stroke="#666666" points="1008,-19 918,-19 918,0 1008,0 1008,-19"/>
<text text-anchor="middle" x="963" y="-7" font-family="Helvetica,sans-Serif" font-size="10.00">taglib_export.h</text>
</a>
</g>
</g>
<!-- Node1&#45;&gt;Node7 -->
<g id="edge35_Node000001_Node000007" class="edge">
<title>Node1&#45;&gt;Node7</title>
<g id="a_edge35_Node000001_Node000007"><a xlink:title=" ">
<path fill="none" stroke="#63b8ff" d="M808.37,-504.11C925.57,-505.55 1331,-502.8 1331,-395.5 1331,-395.5 1331,-395.5 1331,-118.5 1331,-54.13 1121.06,-25.38 1018.32,-15.17"/>
<polygon fill="#63b8ff" stroke="#63b8ff" points="1018.41,-11.67 1008.12,-14.18 1017.74,-18.63 1018.41,-11.67"/>
</a>
</g>
</g>
<!-- Node11 -->
<g id="Node000011" class="node">
<title>Node11</title>
<g id="a_Node000011"><a xlink:href="tag_8h.html" target="_top" xlink:title=" ">
<polygon fill="white" stroke="#666666" points="797.5,-184 756.5,-184 756.5,-165 797.5,-165 797.5,-184"/>
<text text-anchor="middle" x="777" y="-172" font-family="Helvetica,sans-Serif" font-size="10.00">tag.h</text>
</a>
</g>
</g>
<!-- Node1&#45;&gt;Node11 -->
<g id="edge63_Node000001_Node000011" class="edge">
<title>Node1&#45;&gt;Node11</title>
<g id="a_edge63_Node000001_Node000011"><a xlink:title=" ">
<path fill="none" stroke="#63b8ff" d="M774.43,-494.73C771.95,-485.83 768.4,-471.59 767,-459 766.07,-450.61 766.84,-448.44 767,-440 768.74,-347.83 773.89,-237.69 776.04,-194.35"/>
<polygon fill="#63b8ff" stroke="#63b8ff" points="779.55,-194.34 776.55,-184.17 772.56,-193.99 779.55,-194.34"/>
</a>
</g>
</g>
<!-- Node24 -->
<g id="Node000024" class="node">
<title>Node24</title>
<g id="a_Node000024"><a xlink:href="mp4tag_8h.html" target="_top" xlink:title=" ">
<polygon fill="white" stroke="#666666" points="838.5,-459 775.5,-459 775.5,-440 838.5,-440 838.5,-459"/>
<text text-anchor="middle" x="807" y="-447" font-family="Helvetica,sans-Serif" font-size="10.00">mp4tag.h</text>
</a>
</g>
</g>
<!-- Node1&#45;&gt;Node24 -->
<g id="edge36_Node000001_Node000024" class="edge">
<title>Node1&#45;&gt;Node24</title>
<g id="a_edge36_Node000001_Node000024"><a xlink:title=" ">
<path fill="none" stroke="#63b8ff" d="M781.95,-494.75C786.06,-487.49 792.03,-476.95 797.1,-467.98"/>
<polygon fill="#63b8ff" stroke="#63b8ff" points="800.26,-469.52 802.14,-459.09 794.17,-466.07 800.26,-469.52"/>
</a>
</g>
</g>
<!-- Node31 -->
<g id="Node000031" class="node">
<title>Node31</title>
<g id="a_Node000031"><a xlink:href="mp4properties_8h.html" target="_top" xlink:title=" ">
<polygon fill="white" stroke="#666666" points="1226.5,-184 1129.5,-184 1129.5,-165 1226.5,-165 1226.5,-184"/>
<text text-anchor="middle" x="1178" y="-172" font-family="Helvetica,sans-Serif" font-size="10.00">mp4properties.h</text>
</a>
</g>
</g>
<!-- Node1&#45;&gt;Node31 -->
<g id="edge64_Node000001_Node000031" class="edge">
<title>Node1&#45;&gt;Node31</title>
<g id="a_edge64_Node000001_Node000031"><a xlink:title=" ">
<path fill="none" stroke="#63b8ff" d="M802.63,-494.9C856.16,-475.9 981.47,-425.82 1061,-349 1111.2,-300.51 1151.95,-227.08 1169.16,-193.46"/>
<polygon fill="#63b8ff" stroke="#63b8ff" points="1172.36,-194.88 1173.73,-184.37 1166.11,-191.73 1172.36,-194.88"/>
</a>
</g>
</g>
<!-- Node33 -->
<g id="Node000033" class="node">
<title>Node33</title>
<g id="a_Node000033"><a xlink:href="mp4chapter_8h.html" target="_top" xlink:title=" ">
<polygon fill="white" stroke="#666666" points="232.5,-129 149.5,-129 149.5,-110 232.5,-110 232.5,-129"/>
<text text-anchor="middle" x="191" y="-117" font-family="Helvetica,sans-Serif" font-size="10.00">mp4chapter.h</text>
</a>
</g>
</g>
<!-- Node1&#45;&gt;Node33 -->
<g id="edge70_Node000001_Node000033" class="edge">
<title>Node1&#45;&gt;Node33</title>
<g id="a_edge70_Node000001_Node000033"><a xlink:title=" ">
<path fill="none" stroke="#63b8ff" d="M745.83,-502.42C653.23,-498.91 381.02,-486.48 297,-459 244.8,-441.93 191,-450.42 191,-395.5 191,-395.5 191,-395.5 191,-228.5 191,-197.19 191,-160.77 191,-139.23"/>
<polygon fill="#63b8ff" stroke="#63b8ff" points="194.5,-139.18 191,-129.18 187.5,-139.18 194.5,-139.18"/>
</a>
</g>
</g>
<!-- Node3 -->
<g id="Node000003" class="node">
<title>Node3</title>
<g id="a_Node000003"><a xlink:href="tbytevector_8h.html" target="_top" xlink:title=" ">
<polygon fill="white" stroke="#666666" points="712.5,-74 631.5,-74 631.5,-55 712.5,-55 712.5,-74"/>
<text text-anchor="middle" x="672" y="-62" font-family="Helvetica,sans-Serif" font-size="10.00">tbytevector.h</text>
</a>
</g>
</g>
<!-- Node2&#45;&gt;Node3 -->
<g id="edge2_Node000002_Node000003" class="edge">
<title>Node2&#45;&gt;Node3</title>
<g id="a_edge2_Node000002_Node000003"><a xlink:title=" ">
<path fill="none" stroke="#63b8ff" d="M573.91,-219.94C576.47,-199.24 585.32,-145.56 611,-110 620.11,-97.38 633.89,-86.9 646.05,-79.28"/>
<polygon fill="#63b8ff" stroke="#63b8ff" points="648.11,-82.13 654.93,-74.02 644.54,-76.11 648.11,-82.13"/>
</a>
</g>
</g>
<!-- Node2&#45;&gt;Node7 -->
<g id="edge12_Node000002_Node000007" class="edge">
<title>Node2&#45;&gt;Node7</title>
<g id="a_edge12_Node000002_Node000007"><a xlink:title=" ">
<path fill="none" stroke="#63b8ff" d="M589.96,-219.93C623.02,-203.13 698.27,-164.41 760,-129 814.35,-97.82 825.7,-86.26 880,-55 898.95,-44.09 920.76,-32.43 937.26,-23.79"/>
<polygon fill="#63b8ff" stroke="#63b8ff" points="939.05,-26.8 946.3,-19.07 935.82,-20.59 939.05,-26.8"/>
</a>
</g>
</g>
<!-- Node8 -->
<g id="Node000008" class="node">
<title>Node8</title>
<g id="a_Node000008"><a xlink:href="tiostream_8h.html" target="_top" xlink:title=" ">
<polygon fill="white" stroke="#666666" points="438.5,-129 365.5,-129 365.5,-110 438.5,-110 438.5,-129"/>
<text text-anchor="middle" x="402" y="-117" font-family="Helvetica,sans-Serif" font-size="10.00">tiostream.h</text>
</a>
</g>
</g>
<!-- Node2&#45;&gt;Node8 -->
<g id="edge7_Node000002_Node000008" class="edge">
<title>Node2&#45;&gt;Node8</title>
<g id="a_edge7_Node000002_Node000008"><a xlink:title=" ">
<path fill="none" stroke="#63b8ff" d="M559.3,-219.84C529.9,-201.28 460.56,-157.49 424.57,-134.75"/>
<polygon fill="#63b8ff" stroke="#63b8ff" points="426.09,-131.58 415.77,-129.2 422.36,-137.5 426.09,-131.58"/>
</a>
</g>
</g>
<!-- Node9 -->
<g id="Node000009" class="node">
<title>Node9</title>
<g id="a_Node000009"><a xlink:href="taglib_8h.html" target="_top" xlink:title=" ">
<polygon fill="white" stroke="#666666" points="163.5,-74 110.5,-74 110.5,-55 163.5,-55 163.5,-74"/>
<text text-anchor="middle" x="137" y="-62" font-family="Helvetica,sans-Serif" font-size="10.00">taglib.h</text>
</a>
</g>
</g>
<!-- Node2&#45;&gt;Node9 -->
<g id="edge13_Node000002_Node000009" class="edge">
<title>Node2&#45;&gt;Node9</title>
<g id="a_edge13_Node000002_Node000009"><a xlink:title=" ">
<path fill="none" stroke="#63b8ff" d="M550.77,-226.84C470,-220.31 193.91,-193.52 140,-129 129.73,-116.7 130.14,-97.93 132.42,-83.98"/>
<polygon fill="#63b8ff" stroke="#63b8ff" points="135.88,-84.55 134.49,-74.05 129.03,-83.12 135.88,-84.55"/>
</a>
</g>
</g>
<!-- Node2&#45;&gt;Node11 -->
<g id="edge14_Node000002_Node000011" class="edge">
<title>Node2&#45;&gt;Node11</title>
<g id="a_edge14_Node000002_Node000011"><a xlink:title=" ">
<path fill="none" stroke="#63b8ff" d="M595.22,-222.73C631.87,-213.2 705.06,-194.19 746.52,-183.42"/>
<polygon fill="#63b8ff" stroke="#63b8ff" points="747.54,-186.77 756.33,-180.87 745.77,-180 747.54,-186.77"/>
</a>
</g>
</g>
<!-- Node4 -->
<g id="Node000004" class="node">
<title>Node4</title>
<g id="a_Node000004"><a xlink:title=" ">
<polygon fill="#e0e0e0" stroke="#999999" points="497,-19 439,-19 439,0 497,0 497,-19"/>
<text text-anchor="middle" x="468" y="-7" font-family="Helvetica,sans-Serif" font-size="10.00">memory</text>
</a>
</g>
</g>
<!-- Node3&#45;&gt;Node4 -->
<g id="edge3_Node000003_Node000004" class="edge">
<title>Node3&#45;&gt;Node4</title>
<g id="a_edge3_Node000003_Node000004"><a xlink:title=" ">
<path fill="none" stroke="#63b8ff" d="M639.22,-54.98C603.14,-45.61 545.17,-30.55 506.84,-20.59"/>
<polygon fill="#63b8ff" stroke="#63b8ff" points="507.62,-17.18 497.06,-18.05 505.86,-23.95 507.62,-17.18"/>
</a>
</g>
</g>
<!-- Node5 -->
<g id="Node000005" class="node">
<title>Node5</title>
<g id="a_Node000005"><a xlink:title=" ">
<polygon fill="#e0e0e0" stroke="#999999" points="665.5,-19 618.5,-19 618.5,0 665.5,0 665.5,-19"/>
<text text-anchor="middle" x="642" y="-7" font-family="Helvetica,sans-Serif" font-size="10.00">vector</text>
</a>
</g>
</g>
<!-- Node3&#45;&gt;Node5 -->
<g id="edge4_Node000003_Node000005" class="edge">
<title>Node3&#45;&gt;Node5</title>
<g id="a_edge4_Node000003_Node000005"><a xlink:title=" ">
<path fill="none" stroke="#63b8ff" d="M667.05,-54.75C662.94,-47.49 656.97,-36.95 651.9,-27.98"/>
<polygon fill="#63b8ff" stroke="#63b8ff" points="654.83,-26.07 646.86,-19.09 648.74,-29.52 654.83,-26.07"/>
</a>
</g>
</g>
<!-- Node6 -->
<g id="Node000006" class="node">
<title>Node6</title>
<g id="a_Node000006"><a xlink:title=" ">
<polygon fill="#e0e0e0" stroke="#999999" points="732,-19 684,-19 684,0 732,0 732,-19"/>
<text text-anchor="middle" x="708" y="-7" font-family="Helvetica,sans-Serif" font-size="10.00">iosfwd</text>
</a>
</g>
</g>
<!-- Node3&#45;&gt;Node6 -->
<g id="edge5_Node000003_Node000006" class="edge">
<title>Node3&#45;&gt;Node6</title>
<g id="a_edge5_Node000003_Node000006"><a xlink:title=" ">
<path fill="none" stroke="#63b8ff" d="M677.94,-54.75C682.98,-47.34 690.34,-36.5 696.51,-27.41"/>
<polygon fill="#63b8ff" stroke="#63b8ff" points="699.44,-29.33 702.17,-19.09 693.65,-25.39 699.44,-29.33"/>
</a>
</g>
</g>
<!-- Node3&#45;&gt;Node7 -->
<g id="edge6_Node000003_Node000007" class="edge">
<title>Node3&#45;&gt;Node7</title>
<g id="a_edge6_Node000003_Node000007"><a xlink:title=" ">
<path fill="none" stroke="#63b8ff" d="M712.77,-56.07C763.68,-46.8 850.97,-30.9 907.83,-20.55"/>
<polygon fill="#63b8ff" stroke="#63b8ff" points="908.51,-23.98 917.73,-18.75 907.26,-17.09 908.51,-23.98"/>
</a>
</g>
</g>
<!-- Node8&#45;&gt;Node3 -->
<g id="edge8_Node000008_Node000003" class="edge">
<title>Node8&#45;&gt;Node3</title>
<g id="a_edge8_Node000008_Node000003"><a xlink:title=" ">
<path fill="none" stroke="#63b8ff" d="M438.69,-111.3C485.97,-102.02 568.37,-85.84 621.52,-75.41"/>
<polygon fill="#63b8ff" stroke="#63b8ff" points="622.28,-78.83 631.42,-73.47 620.93,-71.96 622.28,-78.83"/>
</a>
</g>
</g>
<!-- Node8&#45;&gt;Node7 -->
<g id="edge9_Node000008_Node000007" class="edge">
<title>Node8&#45;&gt;Node7</title>
<g id="a_edge9_Node000008_Node000007"><a xlink:title=" ">
<path fill="none" stroke="#63b8ff" d="M408.57,-109.6C419.76,-95.23 444.05,-67.26 472,-55 511.13,-37.83 787.94,-20.37 907.84,-13.52"/>
<polygon fill="#63b8ff" stroke="#63b8ff" points="908.13,-17.01 917.92,-12.95 907.74,-10.02 908.13,-17.01"/>
</a>
</g>
</g>
<!-- Node8&#45;&gt;Node9 -->
<g id="edge10_Node000008_Node000009" class="edge">
<title>Node8&#45;&gt;Node9</title>
<g id="a_edge10_Node000008_Node000009"><a xlink:title=" ">
<path fill="none" stroke="#63b8ff" d="M365.43,-111.19C314.82,-101.06 223.97,-82.89 173.43,-72.79"/>
<polygon fill="#63b8ff" stroke="#63b8ff" points="174.08,-69.35 163.59,-70.82 172.71,-76.21 174.08,-69.35"/>
</a>
</g>
</g>
<!-- Node10 -->
<g id="Node000010" class="node">
<title>Node10</title>
<g id="a_Node000010"><a xlink:title=" ">
<polygon fill="#e0e0e0" stroke="#999999" points="72,-19 0,-19 0,0 72,0 72,-19"/>
<text text-anchor="middle" x="36" y="-7" font-family="Helvetica,sans-Serif" font-size="10.00">sys/types.h</text>
</a>
</g>
</g>
<!-- Node9&#45;&gt;Node10 -->
<g id="edge11_Node000009_Node000010" class="edge">
<title>Node9&#45;&gt;Node10</title>
<g id="a_edge11_Node000009_Node000010"><a xlink:title=" ">
<path fill="none" stroke="#63b8ff" d="M120.77,-54.98C104.82,-46.61 80.22,-33.7 61.62,-23.95"/>
<polygon fill="#63b8ff" stroke="#63b8ff" points="63,-20.72 52.52,-19.17 59.75,-26.92 63,-20.72"/>
</a>
</g>
</g>
<!-- Node11&#45;&gt;Node7 -->
<g id="edge15_Node000011_Node000007" class="edge">
<title>Node11&#45;&gt;Node7</title>
<g id="a_edge15_Node000011_Node000007"><a xlink:title=" ">
<path fill="none" stroke="#63b8ff" d="M797.61,-169.68C832.72,-162.75 901.9,-147.14 918,-129 940.22,-103.97 919.04,-85.86 932,-55 936.19,-45.03 942.85,-35.06 948.93,-27.09"/>
<polygon fill="#63b8ff" stroke="#63b8ff" points="951.86,-29.03 955.38,-19.04 946.4,-24.65 951.86,-29.03"/>
</a>
</g>
</g>
<!-- Node12 -->
<g id="Node000012" class="node">
<title>Node12</title>
<g id="a_Node000012"><a xlink:href="tstring_8h.html" target="_top" xlink:title=" ">
<polygon fill="white" stroke="#666666" points="1022.5,-129 965.5,-129 965.5,-110 1022.5,-110 1022.5,-129"/>
<text text-anchor="middle" x="994" y="-117" font-family="Helvetica,sans-Serif" font-size="10.00">tstring.h</text>
</a>
</g>
</g>
<!-- Node11&#45;&gt;Node12 -->
<g id="edge16_Node000011_Node000012" class="edge">
<title>Node11&#45;&gt;Node12</title>
<g id="a_edge16_Node000011_Node000012"><a xlink:title=" ">
<path fill="none" stroke="#63b8ff" d="M797.81,-168.42C834.1,-159.55 909.49,-141.14 955.52,-129.9"/>
<polygon fill="#63b8ff" stroke="#63b8ff" points="956.55,-133.25 965.44,-127.48 954.89,-126.45 956.55,-133.25"/>
</a>
</g>
</g>
<!-- Node14 -->
<g id="Node000014" class="node">
<title>Node14</title>
<g id="a_Node000014"><a xlink:href="tlist_8h.html" target="_top" xlink:title=" ">
<polygon fill="white" stroke="#666666" points="425,-74 381,-74 381,-55 425,-55 425,-74"/>
<text text-anchor="middle" x="403" y="-62" font-family="Helvetica,sans-Serif" font-size="10.00">tlist.h</text>
</a>
</g>
</g>
<!-- Node11&#45;&gt;Node14 -->
<g id="edge20_Node000011_Node000014" class="edge">
<title>Node11&#45;&gt;Node14</title>
<g id="a_edge20_Node000011_Node000014"><a xlink:title=" ">
<path fill="none" stroke="#63b8ff" d="M756.35,-172.08C673.71,-166.28 370.55,-144.06 357,-129 342.92,-113.35 362.65,-93.42 380.47,-80.11"/>
<polygon fill="#63b8ff" stroke="#63b8ff" points="382.76,-82.78 388.91,-74.15 378.72,-77.06 382.76,-82.78"/>
</a>
</g>
</g>
<!-- Node18 -->
<g id="Node000018" class="node">
<title>Node18</title>
<g id="a_Node000018"><a xlink:href="tvariant_8h.html" target="_top" xlink:title=" ">
<polygon fill="white" stroke="#666666" points="559,-129 495,-129 495,-110 559,-110 559,-129"/>
<text text-anchor="middle" x="527" y="-117" font-family="Helvetica,sans-Serif" font-size="10.00">tvariant.h</text>
</a>
</g>
</g>
<!-- Node11&#45;&gt;Node18 -->
<g id="edge25_Node000011_Node000018" class="edge">
<title>Node11&#45;&gt;Node18</title>
<g id="a_edge25_Node000011_Node000018"><a xlink:title=" ">
<path fill="none" stroke="#63b8ff" d="M756.12,-169.07C715.1,-160.38 623.33,-140.92 569.2,-129.45"/>
<polygon fill="#63b8ff" stroke="#63b8ff" points="569.74,-125.98 559.23,-127.33 568.29,-132.83 569.74,-125.98"/>
</a>
</g>
</g>
<!-- Node12&#45;&gt;Node3 -->
<g id="edge18_Node000012_Node000003" class="edge">
<title>Node12&#45;&gt;Node3</title>
<g id="a_edge18_Node000012_Node000003"><a xlink:title=" ">
<path fill="none" stroke="#63b8ff" d="M965.42,-113.8C910.89,-104.82 791.32,-85.14 722.84,-73.87"/>
<polygon fill="#63b8ff" stroke="#63b8ff" points="723.14,-70.37 712.71,-72.2 722.01,-77.28 723.14,-70.37"/>
</a>
</g>
</g>
<!-- Node12&#45;&gt;Node7 -->
<g id="edge19_Node000012_Node000007" class="edge">
<title>Node12&#45;&gt;Node7</title>
<g id="a_edge19_Node000012_Node000007"><a xlink:title=" ">
<path fill="none" stroke="#63b8ff" d="M995.64,-109.62C997.58,-97.11 999.88,-73.72 994,-55 990.77,-44.71 984.22,-34.72 977.97,-26.82"/>
<polygon fill="#63b8ff" stroke="#63b8ff" points="980.61,-24.52 971.48,-19.15 975.27,-29.04 980.61,-24.52"/>
</a>
</g>
</g>
<!-- Node13 -->
<g id="Node000013" class="node">
<title>Node13</title>
<g id="a_Node000013"><a xlink:title=" ">
<polygon fill="#e0e0e0" stroke="#999999" points="985,-74 941,-74 941,-55 985,-55 985,-74"/>
<text text-anchor="middle" x="963" y="-62" font-family="Helvetica,sans-Serif" font-size="10.00">string</text>
</a>
</g>
</g>
<!-- Node12&#45;&gt;Node13 -->
<g id="edge17_Node000012_Node000013" class="edge">
<title>Node12&#45;&gt;Node13</title>
<g id="a_edge17_Node000012_Node000013"><a xlink:title=" ">
<path fill="none" stroke="#63b8ff" d="M988.88,-109.75C984.64,-102.49 978.47,-91.95 973.22,-82.98"/>
<polygon fill="#63b8ff" stroke="#63b8ff" points="976.09,-80.95 968.02,-74.09 970.05,-84.49 976.09,-80.95"/>
</a>
</g>
</g>
<!-- Node14&#45;&gt;Node4 -->
<g id="edge23_Node000014_Node000004" class="edge">
<title>Node14&#45;&gt;Node4</title>
<g id="a_edge23_Node000014_Node000004"><a xlink:title=" ">
<path fill="none" stroke="#63b8ff" d="M413.44,-54.98C423.15,-47.07 437.82,-35.11 449.5,-25.58"/>
<polygon fill="#63b8ff" stroke="#63b8ff" points="451.83,-28.2 457.37,-19.17 447.4,-22.78 451.83,-28.2"/>
</a>
</g>
</g>
<!-- Node15 -->
<g id="Node000015" class="node">
<title>Node15</title>
<g id="a_Node000015"><a xlink:title=" ">
<polygon fill="#e0e0e0" stroke="#999999" points="421,-19 389,-19 389,0 421,0 421,-19"/>
<text text-anchor="middle" x="405" y="-7" font-family="Helvetica,sans-Serif" font-size="10.00">list</text>
</a>
</g>
</g>
<!-- Node14&#45;&gt;Node15 -->
<g id="edge21_Node000014_Node000015" class="edge">
<title>Node14&#45;&gt;Node15</title>
<g id="a_edge21_Node000014_Node000015"><a xlink:title=" ">
<path fill="none" stroke="#63b8ff" d="M403.33,-54.75C403.59,-47.8 403.97,-37.85 404.3,-29.13"/>
<polygon fill="#63b8ff" stroke="#63b8ff" points="407.8,-29.21 404.68,-19.09 400.8,-28.95 407.8,-29.21"/>
</a>
</g>
</g>
<!-- Node16 -->
<g id="Node000016" class="node">
<title>Node16</title>
<g id="a_Node000016"><a xlink:title=" ">
<polygon fill="#e0e0e0" stroke="#999999" points="370.5,-19 287.5,-19 287.5,0 370.5,0 370.5,-19"/>
<text text-anchor="middle" x="329" y="-7" font-family="Helvetica,sans-Serif" font-size="10.00">initializer_list</text>
</a>
</g>
</g>
<!-- Node14&#45;&gt;Node16 -->
<g id="edge22_Node000014_Node000016" class="edge">
<title>Node14&#45;&gt;Node16</title>
<g id="a_edge22_Node000014_Node000016"><a xlink:title=" ">
<path fill="none" stroke="#63b8ff" d="M391.11,-54.98C379.85,-46.92 362.71,-34.65 349.29,-25.03"/>
<polygon fill="#63b8ff" stroke="#63b8ff" points="351.27,-22.15 341.11,-19.17 347.2,-27.84 351.27,-22.15"/>
</a>
</g>
</g>
<!-- Node17 -->
<g id="Node000017" class="node">
<title>Node17</title>
<g id="a_Node000017"><a xlink:title=" ">
<polygon fill="#e0e0e0" stroke="#999999" points="568.5,-19 515.5,-19 515.5,0 568.5,0 568.5,-19"/>
<text text-anchor="middle" x="542" y="-7" font-family="Helvetica,sans-Serif" font-size="10.00">tlist.tcc</text>
</a>
</g>
</g>
<!-- Node14&#45;&gt;Node17 -->
<g id="edge24_Node000014_Node000017" class="edge">
<title>Node14&#45;&gt;Node17</title>
<g id="a_edge24_Node000014_Node000017"><a xlink:title=" ">
<path fill="none" stroke="#63b8ff" d="M425.02,-55.1C447.97,-46.35 484.13,-32.56 510.18,-22.63"/>
<polygon fill="#63b8ff" stroke="#63b8ff" points="511.52,-25.87 519.62,-19.03 509.03,-19.33 511.52,-25.87"/>
</a>
</g>
</g>
<!-- Node18&#45;&gt;Node7 -->
<g id="edge34_Node000018_Node000007" class="edge">
<title>Node18&#45;&gt;Node7</title>
<g id="a_edge34_Node000018_Node000007"><a xlink:title=" ">
<path fill="none" stroke="#63b8ff" d="M536.53,-110C552.9,-95.93 587.99,-68.07 623,-55 718.75,-19.26 839,-11.44 907.81,-10.17"/>
<polygon fill="#63b8ff" stroke="#63b8ff" points="908.04,-13.67 917.99,-10.02 907.94,-6.67 908.04,-13.67"/>
</a>
</g>
</g>
<!-- Node18&#45;&gt;Node14 -->
<g id="edge27_Node000018_Node000014" class="edge">
<title>Node18&#45;&gt;Node14</title>
<g id="a_edge27_Node000018_Node000014"><a xlink:title=" ">
<path fill="none" stroke="#63b8ff" d="M507.08,-109.98C486.95,-101.38 455.62,-87.99 432.59,-78.15"/>
<polygon fill="#63b8ff" stroke="#63b8ff" points="433.86,-74.88 423.29,-74.17 431.1,-81.32 433.86,-74.88"/>
</a>
</g>
</g>
<!-- Node19 -->
<g id="Node000019" class="node">
<title>Node19</title>
<g id="a_Node000019"><a xlink:title=" ">
<polygon fill="#e0e0e0" stroke="#999999" points="537,-74 481,-74 481,-55 537,-55 537,-74"/>
<text text-anchor="middle" x="509" y="-62" font-family="Helvetica,sans-Serif" font-size="10.00">sstream</text>
</a>
</g>
</g>
<!-- Node18&#45;&gt;Node19 -->
<g id="edge26_Node000018_Node000019" class="edge">
<title>Node18&#45;&gt;Node19</title>
<g id="a_edge26_Node000018_Node000019"><a xlink:title=" ">
<path fill="none" stroke="#63b8ff" d="M524.03,-109.75C521.64,-102.72 518.21,-92.62 515.23,-83.84"/>
<polygon fill="#63b8ff" stroke="#63b8ff" points="518.45,-82.43 511.92,-74.09 511.82,-84.68 518.45,-82.43"/>
</a>
</g>
</g>
<!-- Node20 -->
<g id="Node000020" class="node">
<title>Node20</title>
<g id="a_Node000020"><a xlink:href="tmap_8h.html" target="_top" xlink:title=" ">
<polygon fill="white" stroke="#666666" points="275.5,-74 224.5,-74 224.5,-55 275.5,-55 275.5,-74"/>
<text text-anchor="middle" x="250" y="-62" font-family="Helvetica,sans-Serif" font-size="10.00">tmap.h</text>
</a>
</g>
</g>
<!-- Node18&#45;&gt;Node20 -->
<g id="edge28_Node000018_Node000020" class="edge">
<title>Node18&#45;&gt;Node20</title>
<g id="a_edge28_Node000018_Node000020"><a xlink:title=" ">
<path fill="none" stroke="#63b8ff" d="M494.95,-112.37C442.78,-102.38 339.84,-82.69 285.51,-72.29"/>
<polygon fill="#63b8ff" stroke="#63b8ff" points="286.12,-68.85 275.64,-70.4 284.8,-75.72 286.12,-68.85"/>
</a>
</g>
</g>
<!-- Node20&#45;&gt;Node4 -->
<g id="edge30_Node000020_Node000004" class="edge">
<title>Node20&#45;&gt;Node4</title>
<g id="a_edge30_Node000020_Node000004"><a xlink:title=" ">
<path fill="none" stroke="#63b8ff" d="M275.86,-57.21C313.74,-48 384.6,-30.78 428.87,-20.01"/>
<polygon fill="#63b8ff" stroke="#63b8ff" points="429.81,-23.39 438.7,-17.62 428.16,-16.58 429.81,-23.39"/>
</a>
</g>
</g>
<!-- Node20&#45;&gt;Node16 -->
<g id="edge31_Node000020_Node000016" class="edge">
<title>Node20&#45;&gt;Node16</title>
<g id="a_edge31_Node000020_Node000016"><a xlink:title=" ">
<path fill="none" stroke="#63b8ff" d="M262.69,-54.98C274.83,-46.84 293.36,-34.41 307.75,-24.76"/>
<polygon fill="#63b8ff" stroke="#63b8ff" points="309.72,-27.65 316.08,-19.17 305.82,-21.84 309.72,-27.65"/>
</a>
</g>
</g>
<!-- Node21 -->
<g id="Node000021" class="node">
<title>Node21</title>
<g id="a_Node000021"><a xlink:title=" ">
<polygon fill="#e0e0e0" stroke="#999999" points="269,-19 231,-19 231,0 269,0 269,-19"/>
<text text-anchor="middle" x="250" y="-7" font-family="Helvetica,sans-Serif" font-size="10.00">map</text>
</a>
</g>
</g>
<!-- Node20&#45;&gt;Node21 -->
<g id="edge29_Node000020_Node000021" class="edge">
<title>Node20&#45;&gt;Node21</title>
<g id="a_edge29_Node000020_Node000021"><a xlink:title=" ">
<path fill="none" stroke="#63b8ff" d="M250,-54.75C250,-47.8 250,-37.85 250,-29.13"/>
<polygon fill="#63b8ff" stroke="#63b8ff" points="253.5,-29.09 250,-19.09 246.5,-29.09 253.5,-29.09"/>
</a>
</g>
</g>
<!-- Node22 -->
<g id="Node000022" class="node">
<title>Node22</title>
<g id="a_Node000022"><a xlink:title=" ">
<polygon fill="#e0e0e0" stroke="#999999" points="135.5,-19 90.5,-19 90.5,0 135.5,0 135.5,-19"/>
<text text-anchor="middle" x="113" y="-7" font-family="Helvetica,sans-Serif" font-size="10.00">utility</text>
</a>
</g>
</g>
<!-- Node20&#45;&gt;Node22 -->
<g id="edge32_Node000020_Node000022" class="edge">
<title>Node20&#45;&gt;Node22</title>
<g id="a_edge32_Node000020_Node000022"><a xlink:title=" ">
<path fill="none" stroke="#63b8ff" d="M227.99,-54.98C205.55,-46.3 170.52,-32.75 145.01,-22.88"/>
<polygon fill="#63b8ff" stroke="#63b8ff" points="146,-19.51 135.41,-19.17 143.48,-26.04 146,-19.51"/>
</a>
</g>
</g>
<!-- Node23 -->
<g id="Node000023" class="node">
<title>Node23</title>
<g id="a_Node000023"><a xlink:title=" ">
<polygon fill="#e0e0e0" stroke="#999999" points="212.5,-19 153.5,-19 153.5,0 212.5,0 212.5,-19"/>
<text text-anchor="middle" x="183" y="-7" font-family="Helvetica,sans-Serif" font-size="10.00">tmap.tcc</text>
</a>
</g>
</g>
<!-- Node20&#45;&gt;Node23 -->
<g id="edge33_Node000020_Node000023" class="edge">
<title>Node20&#45;&gt;Node23</title>
<g id="a_edge33_Node000020_Node000023"><a xlink:title=" ">
<path fill="none" stroke="#63b8ff" d="M239.24,-54.98C229.23,-47.07 214.11,-35.11 202.07,-25.58"/>
<polygon fill="#63b8ff" stroke="#63b8ff" points="203.97,-22.63 193.96,-19.17 199.63,-28.12 203.97,-22.63"/>
</a>
</g>
</g>
<!-- Node24&#45;&gt;Node2 -->
<g id="edge37_Node000024_Node000002" class="edge">
<title>Node24&#45;&gt;Node2</title>
<g id="a_edge37_Node000024_Node000002"><a xlink:title=" ">
<path fill="none" stroke="#63b8ff" d="M792.5,-439.98C755.49,-418.16 659.6,-361.11 648,-349 621.84,-321.69 626.63,-306.69 606,-275 599.83,-265.53 592.38,-255.38 586.11,-247.17"/>
<polygon fill="#63b8ff" stroke="#63b8ff" points="588.79,-244.91 579.9,-239.14 583.25,-249.19 588.79,-244.91"/>
</a>
</g>
</g>
<!-- Node24&#45;&gt;Node7 -->
<g id="edge47_Node000024_Node000007" class="edge">
<title>Node24&#45;&gt;Node7</title>
<g id="a_edge47_Node000024_Node000007"><a xlink:title=" ">
<path fill="none" stroke="#63b8ff" d="M838.51,-444.89C946.21,-431.69 1293,-381.72 1293,-285.5 1293,-285.5 1293,-285.5 1293,-118.5 1293,-61.41 1112.37,-29.68 1018.38,-17.03"/>
<polygon fill="#63b8ff" stroke="#63b8ff" points="1018.56,-13.53 1008.19,-15.69 1017.65,-20.47 1018.56,-13.53"/>
</a>
</g>
</g>
<!-- Node24&#45;&gt;Node11 -->
<g id="edge48_Node000024_Node000011" class="edge">
<title>Node24&#45;&gt;Node11</title>
<g id="a_edge48_Node000024_Node000011"><a xlink:title=" ">
<path fill="none" stroke="#63b8ff" d="M808.08,-439.84C810.26,-421.53 815,-377.54 815,-340.5 815,-340.5 815,-340.5 815,-283.5 815,-250.02 798.55,-213.84 787.3,-193.01"/>
<polygon fill="#63b8ff" stroke="#63b8ff" points="790.24,-191.1 782.28,-184.1 784.13,-194.53 790.24,-191.1"/>
</a>
</g>
</g>
<!-- Node24&#45;&gt;Node20 -->
<g id="edge38_Node000024_Node000020" class="edge">
<title>Node24&#45;&gt;Node20</title>
<g id="a_edge38_Node000024_Node000020"><a xlink:title=" ">
<path fill="none" stroke="#63b8ff" d="M775.3,-442.27C676.55,-421.51 369.62,-346.6 177,-184 148.9,-160.28 119.44,-140.49 140,-110 156.5,-85.53 188.98,-74.51 214.39,-69.55"/>
<polygon fill="#63b8ff" stroke="#63b8ff" points="215.16,-72.97 224.43,-67.83 213.98,-66.07 215.16,-72.97"/>
</a>
</g>
</g>
<!-- Node25 -->
<g id="Node000025" class="node">
<title>Node25</title>
<g id="a_Node000025"><a xlink:href="tstringlist_8h.html" target="_top" xlink:title=" ">
<polygon fill="white" stroke="#666666" points="927,-184 855,-184 855,-165 927,-165 927,-184"/>
<text text-anchor="middle" x="891" y="-172" font-family="Helvetica,sans-Serif" font-size="10.00">tstringlist.h</text>
</a>
</g>
</g>
<!-- Node24&#45;&gt;Node25 -->
<g id="edge39_Node000024_Node000025" class="edge">
<title>Node24&#45;&gt;Node25</title>
<g id="a_edge39_Node000024_Node000025"><a xlink:title=" ">
<path fill="none" stroke="#63b8ff" d="M813.59,-439.8C826.31,-422.1 853,-380.24 853,-340.5 853,-340.5 853,-340.5 853,-283.5 853,-250.02 869.45,-213.84 880.7,-193.01"/>
<polygon fill="#63b8ff" stroke="#63b8ff" points="883.87,-194.53 885.72,-184.1 877.76,-191.1 883.87,-194.53"/>
</a>
</g>
</g>
<!-- Node27 -->
<g id="Node000027" class="node">
<title>Node27</title>
<g id="a_Node000027"><a xlink:href="mp4atom_8h.html" target="_top" xlink:title=" ">
<polygon fill="white" stroke="#666666" points="596.5,-294 523.5,-294 523.5,-275 596.5,-275 596.5,-294"/>
<text text-anchor="middle" x="560" y="-282" font-family="Helvetica,sans-Serif" font-size="10.00">mp4atom.h</text>
</a>
</g>
</g>
<!-- Node24&#45;&gt;Node27 -->
<g id="edge49_Node000024_Node000027" class="edge">
<title>Node24&#45;&gt;Node27</title>
<g id="a_edge49_Node000024_Node000027"><a xlink:title=" ">
<path fill="none" stroke="#63b8ff" d="M783.44,-440C745.06,-425.4 667.84,-392.86 613,-349 596.42,-335.74 581.31,-316.61 571.5,-302.82"/>
<polygon fill="#63b8ff" stroke="#63b8ff" points="574.16,-300.51 565.61,-294.26 568.4,-304.48 574.16,-300.51"/>
</a>
</g>
</g>
<!-- Node28 -->
<g id="Node000028" class="node">
<title>Node28</title>
<g id="a_Node000028"><a xlink:href="mp4item_8h.html" target="_top" xlink:title=" ">
<polygon fill="white" stroke="#666666" points="964,-404 894,-404 894,-385 964,-385 964,-404"/>
<text text-anchor="middle" x="929" y="-392" font-family="Helvetica,sans-Serif" font-size="10.00">mp4item.h</text>
</a>
</g>
</g>
<!-- Node24&#45;&gt;Node28 -->
<g id="edge52_Node000024_Node000028" class="edge">
<title>Node24&#45;&gt;Node28</title>
<g id="a_edge52_Node000024_Node000028"><a xlink:title=" ">
<path fill="none" stroke="#63b8ff" d="M826.6,-439.98C846.32,-431.42 876.95,-418.11 899.58,-408.28"/>
<polygon fill="#63b8ff" stroke="#63b8ff" points="901.26,-411.37 909.04,-404.17 898.48,-404.94 901.26,-411.37"/>
</a>
</g>
</g>
<!-- Node25&#45;&gt;Node7 -->
<g id="edge46_Node000025_Node000007" class="edge">
<title>Node25&#45;&gt;Node7</title>
<g id="a_edge46_Node000025_Node000007"><a xlink:title=" ">
<path fill="none" stroke="#63b8ff" d="M927.04,-167.1C964.52,-159.63 1019.48,-146.08 1032,-129 1057.64,-94.03 1011.86,-48.83 983.31,-25.66"/>
<polygon fill="#63b8ff" stroke="#63b8ff" points="985.13,-22.64 975.1,-19.21 980.81,-28.14 985.13,-22.64"/>
</a>
</g>
</g>
<!-- Node25&#45;&gt;Node12 -->
<g id="edge40_Node000025_Node000012" class="edge">
<title>Node25&#45;&gt;Node12</title>
<g id="a_edge40_Node000025_Node000012"><a xlink:title=" ">
<path fill="none" stroke="#63b8ff" d="M907.55,-164.98C923.89,-156.57 949.13,-143.59 968.13,-133.81"/>
<polygon fill="#63b8ff" stroke="#63b8ff" points="969.86,-136.86 977.15,-129.17 966.66,-130.63 969.86,-136.86"/>
</a>
</g>
</g>
<!-- Node25&#45;&gt;Node14 -->
<g id="edge41_Node000025_Node000014" class="edge">
<title>Node25&#45;&gt;Node14</title>
<g id="a_edge41_Node000025_Node000014"><a xlink:title=" ">
<path fill="none" stroke="#63b8ff" d="M854.88,-169.79C757.19,-159.73 494.55,-132.43 486,-129 459.33,-118.31 433.89,-96.54 418.36,-81.49"/>
<polygon fill="#63b8ff" stroke="#63b8ff" points="420.75,-78.92 411.2,-74.33 415.8,-83.87 420.75,-78.92"/>
</a>
</g>
</g>
<!-- Node26 -->
<g id="Node000026" class="node">
<title>Node26</title>
<g id="a_Node000026"><a xlink:href="tbytevectorlist_8h.html" target="_top" xlink:title=" ">
<polygon fill="white" stroke="#666666" points="750.5,-129 653.5,-129 653.5,-110 750.5,-110 750.5,-129"/>
<text text-anchor="middle" x="702" y="-117" font-family="Helvetica,sans-Serif" font-size="10.00">tbytevectorlist.h</text>
</a>
</g>
</g>
<!-- Node25&#45;&gt;Node26 -->
<g id="edge42_Node000025_Node000026" class="edge">
<title>Node25&#45;&gt;Node26</title>
<g id="a_edge42_Node000025_Node000026"><a xlink:title=" ">
<path fill="none" stroke="#63b8ff" d="M860.63,-164.98C828.63,-156.01 778.04,-141.82 742.62,-131.89"/>
<polygon fill="#63b8ff" stroke="#63b8ff" points="743.18,-128.41 732.6,-129.08 741.29,-135.15 743.18,-128.41"/>
</a>
</g>
</g>
<!-- Node26&#45;&gt;Node3 -->
<g id="edge43_Node000026_Node000003" class="edge">
<title>Node26&#45;&gt;Node3</title>
<g id="a_edge43_Node000026_Node000003"><a xlink:title=" ">
<path fill="none" stroke="#63b8ff" d="M697.05,-109.75C692.94,-102.49 686.97,-91.95 681.9,-82.98"/>
<polygon fill="#63b8ff" stroke="#63b8ff" points="684.83,-81.07 676.86,-74.09 678.74,-84.52 684.83,-81.07"/>
</a>
</g>
</g>
<!-- Node26&#45;&gt;Node7 -->
<g id="edge45_Node000026_Node000007" class="edge">
<title>Node26&#45;&gt;Node7</title>
<g id="a_edge45_Node000026_Node000007"><a xlink:title=" ">
<path fill="none" stroke="#63b8ff" d="M707.89,-109.99C717.92,-96.17 739.72,-68.98 765,-55 809.34,-30.48 866.35,-19.46 907.8,-14.52"/>
<polygon fill="#63b8ff" stroke="#63b8ff" points="908.43,-17.97 917.98,-13.39 907.66,-11.01 908.43,-17.97"/>
</a>
</g>
</g>
<!-- Node26&#45;&gt;Node14 -->
<g id="edge44_Node000026_Node000014" class="edge">
<title>Node26&#45;&gt;Node14</title>
<g id="a_edge44_Node000026_Node000014"><a xlink:title=" ">
<path fill="none" stroke="#63b8ff" d="M653.96,-109.98C592.49,-99.09 487.7,-80.51 435.11,-71.19"/>
<polygon fill="#63b8ff" stroke="#63b8ff" points="435.47,-67.7 425.01,-69.4 434.25,-74.59 435.47,-67.7"/>
</a>
</g>
</g>
<!-- Node27&#45;&gt;Node2 -->
<g id="edge50_Node000027_Node000002" class="edge">
<title>Node27&#45;&gt;Node2</title>
<g id="a_edge50_Node000027_Node000002"><a xlink:title=" ">
<path fill="none" stroke="#63b8ff" d="M562.15,-274.75C563.87,-267.72 566.35,-257.62 568.5,-248.84"/>
<polygon fill="#63b8ff" stroke="#63b8ff" points="571.91,-249.63 570.89,-239.09 565.11,-247.97 571.91,-249.63"/>
</a>
</g>
</g>
<!-- Node27&#45;&gt;Node14 -->
<g id="edge51_Node000027_Node000014" class="edge">
<title>Node27&#45;&gt;Node14</title>
<g id="a_edge51_Node000027_Node000014"><a xlink:title=" ">
<path fill="none" stroke="#63b8ff" d="M523.11,-275.4C460.93,-259.53 337,-217.86 285,-129 280.73,-121.71 280.2,-116.95 285,-110 295.07,-95.44 339.51,-81.52 370.87,-73.24"/>
<polygon fill="#63b8ff" stroke="#63b8ff" points="372.12,-76.53 380.94,-70.65 370.38,-69.75 372.12,-76.53"/>
</a>
</g>
</g>
<!-- Node28&#45;&gt;Node7 -->
<g id="edge54_Node000028_Node000007" class="edge">
<title>Node28&#45;&gt;Node7</title>
<g id="a_edge54_Node000028_Node000007"><a xlink:title=" ">
<path fill="none" stroke="#63b8ff" d="M964.2,-392.01C1048.49,-386.38 1255,-359.43 1255,-230.5 1255,-230.5 1255,-230.5 1255,-118.5 1255,-68.57 1102.94,-34.46 1018.28,-19.34"/>
<polygon fill="#63b8ff" stroke="#63b8ff" points="1018.76,-15.87 1008.3,-17.59 1017.55,-22.77 1018.76,-15.87"/>
</a>
</g>
</g>
<!-- Node28&#45;&gt;Node25 -->
<g id="edge53_Node000028_Node000025" class="edge">
<title>Node28&#45;&gt;Node25</title>
<g id="a_edge53_Node000028_Node000025"><a xlink:title=" ">
<path fill="none" stroke="#63b8ff" d="M927.51,-384.95C921.92,-352.88 902.1,-239.2 894.24,-194.12"/>
<polygon fill="#63b8ff" stroke="#63b8ff" points="897.69,-193.47 892.52,-184.22 890.79,-194.68 897.69,-193.47"/>
</a>
</g>
</g>
<!-- Node29 -->
<g id="Node000029" class="node">
<title>Node29</title>
<g id="a_Node000029"><a xlink:href="mp4coverart_8h.html" target="_top" xlink:title=" ">
<polygon fill="white" stroke="#666666" points="745,-349 657,-349 657,-330 745,-330 745,-349"/>
<text text-anchor="middle" x="701" y="-337" font-family="Helvetica,sans-Serif" font-size="10.00">mp4coverart.h</text>
</a>
</g>
</g>
<!-- Node28&#45;&gt;Node29 -->
<g id="edge55_Node000028_Node000029" class="edge">
<title>Node28&#45;&gt;Node29</title>
<g id="a_edge55_Node000028_Node000029"><a xlink:title=" ">
<path fill="none" stroke="#63b8ff" d="M893.87,-385.33C854.59,-376.2 790.79,-361.37 747.42,-351.29"/>
<polygon fill="#63b8ff" stroke="#63b8ff" points="748.21,-347.88 737.68,-349.03 746.62,-354.7 748.21,-347.88"/>
</a>
</g>
</g>
<!-- Node30 -->
<g id="Node000030" class="node">
<title>Node30</title>
<g id="a_Node000030"><a xlink:href="mp4stem_8h.html" target="_top" xlink:title=" ">
<polygon fill="white" stroke="#666666" points="1189,-129 1117,-129 1117,-110 1189,-110 1189,-129"/>
<text text-anchor="middle" x="1153" y="-117" font-family="Helvetica,sans-Serif" font-size="10.00">mp4stem.h</text>
</a>
</g>
</g>
<!-- Node28&#45;&gt;Node30 -->
<g id="edge60_Node000028_Node000030" class="edge">
<title>Node28&#45;&gt;Node30</title>
<g id="a_edge60_Node000028_Node000030"><a xlink:title=" ">
<path fill="none" stroke="#63b8ff" d="M961.54,-384.98C1004.29,-371.59 1074,-341.22 1074,-285.5 1074,-285.5 1074,-285.5 1074,-228.5 1074,-188.78 1109.25,-153.93 1132.66,-135.17"/>
<polygon fill="#63b8ff" stroke="#63b8ff" points="1134.87,-137.89 1140.66,-129.01 1130.6,-132.34 1134.87,-137.89"/>
</a>
</g>
</g>
<!-- Node29&#45;&gt;Node3 -->
<g id="edge57_Node000029_Node000003" class="edge">
<title>Node29&#45;&gt;Node3</title>
<g id="a_edge57_Node000029_Node000003"><a xlink:title=" ">
<path fill="none" stroke="#63b8ff" d="M697.82,-329.88C687.58,-301.61 655.49,-208.88 645,-129 643.9,-120.63 642.73,-118.13 645,-110 647.76,-100.12 653.39,-90.25 658.79,-82.32"/>
<polygon fill="#63b8ff" stroke="#63b8ff" points="661.78,-84.17 664.85,-74.03 656.13,-80.04 661.78,-84.17"/>
</a>
</g>
</g>
<!-- Node29&#45;&gt;Node7 -->
<g id="edge58_Node000029_Node000007" class="edge">
<title>Node29&#45;&gt;Node7</title>
<g id="a_edge58_Node000029_Node000007"><a xlink:title=" ">
<path fill="none" stroke="#63b8ff" d="M735.36,-329.98C808.83,-309.7 980.12,-250.86 1049,-129 1059.45,-110.51 1045.47,-69.26 1035,-55 1024.87,-41.2 1009.05,-30.75 994.82,-23.45"/>
<polygon fill="#63b8ff" stroke="#63b8ff" points="996.3,-20.28 985.77,-19.11 993.27,-26.59 996.3,-20.28"/>
</a>
</g>
</g>
<!-- Node29&#45;&gt;Node14 -->
<g id="edge56_Node000029_Node000014" class="edge">
<title>Node29&#45;&gt;Node14</title>
<g id="a_edge56_Node000029_Node000014"><a xlink:title=" ">
<path fill="none" stroke="#63b8ff" d="M696.29,-330C683.96,-308.49 648.57,-251.36 604,-220 505.25,-150.51 417.63,-227.65 348,-129 335.16,-110.81 357.18,-91.74 377.06,-79.3"/>
<polygon fill="#63b8ff" stroke="#63b8ff" points="379.07,-82.18 385.91,-74.08 375.52,-76.15 379.07,-82.18"/>
</a>
</g>
</g>
<!-- Node29&#45;&gt;Node27 -->
<g id="edge59_Node000029_Node000027" class="edge">
<title>Node29&#45;&gt;Node27</title>
<g id="a_edge59_Node000029_Node000027"><a xlink:title=" ">
<path fill="none" stroke="#63b8ff" d="M678.35,-329.98C655.15,-321.27 618.88,-307.63 592.6,-297.75"/>
<polygon fill="#63b8ff" stroke="#63b8ff" points="593.66,-294.41 583.07,-294.17 591.2,-300.97 593.66,-294.41"/>
</a>
</g>
</g>
<!-- Node30&#45;&gt;Node3 -->
<g id="edge61_Node000030_Node000003" class="edge">
<title>Node30&#45;&gt;Node3</title>
<g id="a_edge61_Node000030_Node000003"><a xlink:title=" ">
<path fill="none" stroke="#63b8ff" d="M1116.85,-114.52C1032.11,-105.18 820.46,-81.86 722.82,-71.1"/>
<polygon fill="#63b8ff" stroke="#63b8ff" points="722.94,-67.59 712.61,-69.98 722.17,-74.55 722.94,-67.59"/>
</a>
</g>
</g>
<!-- Node30&#45;&gt;Node7 -->
<g id="edge62_Node000030_Node000007" class="edge">
<title>Node30&#45;&gt;Node7</title>
<g id="a_edge62_Node000030_Node000007"><a xlink:title=" ">
<path fill="none" stroke="#63b8ff" d="M1148.4,-109.75C1140.77,-96.07 1124.22,-69.7 1103,-55 1077.79,-37.54 1045.38,-26.66 1018.09,-20.04"/>
<polygon fill="#63b8ff" stroke="#63b8ff" points="1018.82,-16.62 1008.29,-17.79 1017.26,-23.44 1018.82,-16.62"/>
</a>
</g>
</g>
<!-- Node31&#45;&gt;Node7 -->
<g id="edge65_Node000031_Node000007" class="edge">
<title>Node31&#45;&gt;Node7</title>
<g id="a_edge65_Node000031_Node000007"><a xlink:title=" ">
<path fill="none" stroke="#63b8ff" d="M1184.68,-164.96C1193.59,-152.47 1207.22,-128.65 1198,-110 1180.15,-73.9 1162.09,-72.86 1126,-55 1092.07,-38.22 1050.94,-27.05 1018.48,-20.09"/>
<polygon fill="#63b8ff" stroke="#63b8ff" points="1018.76,-16.58 1008.26,-17.98 1017.35,-23.44 1018.76,-16.58"/>
</a>
</g>
</g>
<!-- Node32 -->
<g id="Node000032" class="node">
<title>Node32</title>
<g id="a_Node000032"><a xlink:href="audioproperties_8h.html" target="_top" xlink:title=" ">
<polygon fill="white" stroke="#666666" points="909,-129 807,-129 807,-110 909,-110 909,-129"/>
<text text-anchor="middle" x="858" y="-117" font-family="Helvetica,sans-Serif" font-size="10.00">audioproperties.h</text>
</a>
</g>
</g>
<!-- Node31&#45;&gt;Node32 -->
<g id="edge66_Node000031_Node000032" class="edge">
<title>Node31&#45;&gt;Node32</title>
<g id="a_edge66_Node000031_Node000032"><a xlink:title=" ">
<path fill="none" stroke="#63b8ff" d="M1129.4,-165.45C1073.09,-156.12 980.23,-140.74 919.09,-130.62"/>
<polygon fill="#63b8ff" stroke="#63b8ff" points="919.62,-127.16 909.18,-128.98 918.47,-134.06 919.62,-127.16"/>
</a>
</g>
</g>
<!-- Node32&#45;&gt;Node4 -->
<g id="edge67_Node000032_Node000004" class="edge">
<title>Node32&#45;&gt;Node4</title>
<g id="a_edge67_Node000032_Node000004"><a xlink:title=" ">
<path fill="none" stroke="#63b8ff" d="M806.87,-111.86C758.79,-104.9 685.11,-92.4 623,-74 576.71,-60.29 525.26,-37.65 494.82,-23.43"/>
<polygon fill="#63b8ff" stroke="#63b8ff" points="496.25,-20.24 485.71,-19.14 493.26,-26.57 496.25,-20.24"/>
</a>
</g>
</g>
<!-- Node32&#45;&gt;Node7 -->
<g id="edge69_Node000032_Node000007" class="edge">
<title>Node32&#45;&gt;Node7</title>
<g id="a_edge69_Node000032_Node000007"><a xlink:title=" ">
<path fill="none" stroke="#63b8ff" d="M862.14,-109.96C868.68,-97.02 882.4,-72.17 899,-55 910.58,-43.02 925.82,-32.27 938.53,-24.34"/>
<polygon fill="#63b8ff" stroke="#63b8ff" points="940.49,-27.24 947.24,-19.08 936.87,-21.25 940.49,-27.24"/>
</a>
</g>
</g>
<!-- Node32&#45;&gt;Node9 -->
<g id="edge68_Node000032_Node000009" class="edge">
<title>Node32&#45;&gt;Node9</title>
<g id="a_edge68_Node000032_Node000009"><a xlink:title=" ">
<path fill="none" stroke="#63b8ff" d="M806.9,-113.87C791.8,-112.55 775.24,-111.16 760,-110 517.96,-91.51 456.83,-95.15 215,-74 201.51,-72.82 186.73,-71.27 173.7,-69.83"/>
<polygon fill="#63b8ff" stroke="#63b8ff" points="174.02,-66.34 163.69,-68.69 173.23,-73.29 174.02,-66.34"/>
</a>
</g>
</g>
<!-- Node33&#45;&gt;Node4 -->
<g id="edge71_Node000033_Node000004" class="edge">
<title>Node33&#45;&gt;Node4</title>
<g id="a_edge71_Node000033_Node000004"><a xlink:title=" ">
<path fill="none" stroke="#63b8ff" d="M209.1,-109.96C236.33,-97.25 289.61,-72.94 336,-55 367.6,-42.78 404.15,-30.61 430.76,-22.09"/>
<polygon fill="#63b8ff" stroke="#63b8ff" points="431.98,-25.38 440.45,-19.01 429.86,-18.71 431.98,-25.38"/>
</a>
</g>
</g>
<!-- Node33&#45;&gt;Node7 -->
<g id="edge72_Node000033_Node000007" class="edge">
<title>Node33&#45;&gt;Node7</title>
<g id="a_edge72_Node000033_Node000007"><a xlink:title=" ">
<path fill="none" stroke="#63b8ff" d="M219.37,-109.97C247.05,-101.48 290.23,-87.75 327,-74 347.33,-66.4 350.9,-60.1 372,-55 472.68,-30.65 780.56,-17.07 907.45,-12.39"/>
<polygon fill="#63b8ff" stroke="#63b8ff" points="907.84,-15.88 917.71,-12.01 907.59,-8.88 907.84,-15.88"/>
</a>
</g>
</g>
<!-- Node33&#45;&gt;Node14 -->
<g id="edge73_Node000033_Node000014" class="edge">
<title>Node33&#45;&gt;Node14</title>
<g id="a_edge73_Node000033_Node000014"><a xlink:title=" ">
<path fill="none" stroke="#63b8ff" d="M225.06,-109.98C265.25,-99.94 331.55,-83.36 370.87,-73.53"/>
<polygon fill="#63b8ff" stroke="#63b8ff" points="371.88,-76.89 380.73,-71.07 370.18,-70.1 371.88,-76.89"/>
</a>
</g>
</g>
</g>
</svg>
