<?xml version="1.0" encoding="UTF-8" standalone="no"?>
<!DOCTYPE svg PUBLIC "-//W3C//DTD SVG 1.1//EN"
 "http://www.w3.org/Graphics/SVG/1.1/DTD/svg11.dtd">
<!-- Generated by graphviz version 2.46.1 (20210213.1702)
 -->
<!-- Title: mp4file.h Pages: 1 -->
<svg width="990pt" height="420pt"
 viewBox="0.00 0.00 989.53 420.00" xmlns="http://www.w3.org/2000/svg" xmlns:xlink="http://www.w3.org/1999/xlink">
<g id="graph0" class="graph" transform="scale(1 1) rotate(0) translate(4 416)">
<title>mp4file.h</title>
<polygon fill="white" stroke="transparent" points="-4,4 -4,-416 985.53,-416 985.53,4 -4,4"/>
<!-- Node1 -->
<g id="node1" class="node">
<title>Node1</title>
<g id="a_node1"><a xlink:title=" ">
<polygon fill="#bfbfbf" stroke="black" points="205.89,-392.5 205.89,-411.5 261.89,-411.5 261.89,-392.5 205.89,-392.5"/>
<text text-anchor="middle" x="233.89" y="-399.5" font-family="Helvetica,sans-Serif" font-size="10.00">mp4file.h</text>
</a>
</g>
</g>
<!-- Node2 -->
<g id="node2" class="node">
<title>Node2</title>
<g id="a_node2"><a xlink:href="tag_8h.html" target="_top" xlink:title=" ">
<polygon fill="white" stroke="black" points="214.89,-224.5 214.89,-243.5 252.89,-243.5 252.89,-224.5 214.89,-224.5"/>
<text text-anchor="middle" x="233.89" y="-231.5" font-family="Helvetica,sans-Serif" font-size="10.00">tag.h</text>
</a>
</g>
</g>
<!-- Node1&#45;&gt;Node2 -->
<g id="edge1" class="edge">
<title>Node1&#45;&gt;Node2</title>
<path fill="none" stroke="midnightblue" d="M233.89,-392.08C233.89,-365.95 233.89,-289.21 233.89,-253.58"/>
<polygon fill="midnightblue" stroke="midnightblue" points="237.39,-253.57 233.89,-243.57 230.39,-253.57 237.39,-253.57"/>
</g>
<!-- Node3 -->
<g id="node3" class="node">
<title>Node3</title>
<g id="a_node3"><a xlink:href="taglib__export_8h.html" target="_top" xlink:title=" ">
<polygon fill="white" stroke="black" points="260.89,-56.5 260.89,-75.5 340.89,-75.5 340.89,-56.5 260.89,-56.5"/>
<text text-anchor="middle" x="300.89" y="-63.5" font-family="Helvetica,sans-Serif" font-size="10.00">taglib_export.h</text>
</a>
</g>
</g>
<!-- Node1&#45;&gt;Node3 -->
<g id="edge24" class="edge">
<title>Node1&#45;&gt;Node3</title>
<path fill="none" stroke="midnightblue" d="M205.79,-400.38C143.82,-397.36 0.89,-380.69 0.89,-291 0.89,-291 0.89,-291 0.89,-177 0.89,-146.9 -2.68,-131.9 19.89,-112 53.32,-82.53 179.15,-72.25 250.57,-68.75"/>
<polygon fill="midnightblue" stroke="midnightblue" points="250.87,-72.24 260.7,-68.28 250.54,-65.24 250.87,-72.24"/>
</g>
<!-- Node11 -->
<g id="node11" class="node">
<title>Node11</title>
<g id="a_node11"><a xlink:href="tfile_8h.html" target="_top" xlink:title=" ">
<polygon fill="white" stroke="black" points="413.39,-280.5 413.39,-299.5 454.39,-299.5 454.39,-280.5 413.39,-280.5"/>
<text text-anchor="middle" x="433.89" y="-287.5" font-family="Helvetica,sans-Serif" font-size="10.00">tfile.h</text>
</a>
</g>
</g>
<!-- Node1&#45;&gt;Node11 -->
<g id="edge15" class="edge">
<title>Node1&#45;&gt;Node11</title>
<path fill="none" stroke="midnightblue" d="M249.59,-392.37C284.27,-373.29 367.67,-327.42 409.34,-304.51"/>
<polygon fill="midnightblue" stroke="midnightblue" points="411.2,-307.48 418.27,-299.59 407.82,-301.34 411.2,-307.48"/>
</g>
<!-- Node13 -->
<g id="node13" class="node">
<title>Node13</title>
<g id="a_node13"><a xlink:href="mp4properties_8h.html" target="_top" xlink:title=" ">
<polygon fill="white" stroke="black" points="72.89,-168.5 72.89,-187.5 158.89,-187.5 158.89,-168.5 72.89,-168.5"/>
<text text-anchor="middle" x="115.89" y="-175.5" font-family="Helvetica,sans-Serif" font-size="10.00">mp4properties.h</text>
</a>
</g>
</g>
<!-- Node1&#45;&gt;Node13 -->
<g id="edge25" class="edge">
<title>Node1&#45;&gt;Node13</title>
<path fill="none" stroke="midnightblue" d="M228.2,-392.26C217.01,-374.97 191.66,-335.03 172.89,-300 153.7,-264.16 134.09,-220.74 123.62,-196.88"/>
<polygon fill="midnightblue" stroke="midnightblue" points="126.81,-195.43 119.6,-187.66 120.39,-198.22 126.81,-195.43"/>
</g>
<!-- Node15 -->
<g id="node15" class="node">
<title>Node15</title>
<g id="a_node15"><a xlink:href="mp4tag_8h.html" target="_top" xlink:title=" ">
<polygon fill="white" stroke="black" points="576.39,-336.5 576.39,-355.5 633.39,-355.5 633.39,-336.5 576.39,-336.5"/>
<text text-anchor="middle" x="604.89" y="-343.5" font-family="Helvetica,sans-Serif" font-size="10.00">mp4tag.h</text>
</a>
</g>
</g>
<!-- Node1&#45;&gt;Node15 -->
<g id="edge29" class="edge">
<title>Node1&#45;&gt;Node15</title>
<path fill="none" stroke="midnightblue" d="M262.08,-396.9C327.82,-387.33 491.34,-363.53 566.27,-352.62"/>
<polygon fill="midnightblue" stroke="midnightblue" points="566.85,-356.07 576.24,-351.17 565.84,-349.15 566.85,-356.07"/>
</g>
<!-- Node2&#45;&gt;Node3 -->
<g id="edge2" class="edge">
<title>Node2&#45;&gt;Node3</title>
<path fill="none" stroke="midnightblue" d="M232.95,-224.46C231.08,-203.78 228.66,-149.91 248.89,-112 255.48,-99.66 266.94,-89.19 277.42,-81.46"/>
<polygon fill="midnightblue" stroke="midnightblue" points="279.62,-84.19 285.87,-75.63 275.65,-78.43 279.62,-84.19"/>
</g>
<!-- Node4 -->
<g id="node4" class="node">
<title>Node4</title>
<g id="a_node4"><a xlink:href="tstring_8h.html" target="_top" xlink:title=" ">
<polygon fill="white" stroke="black" points="545.89,-168.5 545.89,-187.5 597.89,-187.5 597.89,-168.5 545.89,-168.5"/>
<text text-anchor="middle" x="571.89" y="-175.5" font-family="Helvetica,sans-Serif" font-size="10.00">tstring.h</text>
</a>
</g>
</g>
<!-- Node2&#45;&gt;Node4 -->
<g id="edge3" class="edge">
<title>Node2&#45;&gt;Node4</title>
<path fill="none" stroke="midnightblue" d="M253.16,-230.85C299.92,-225.47 423.3,-210.39 535.78,-188.05"/>
<polygon fill="midnightblue" stroke="midnightblue" points="536.48,-191.48 545.59,-186.08 535.09,-184.62 536.48,-191.48"/>
</g>
<!-- Node4&#45;&gt;Node3 -->
<g id="edge4" class="edge">
<title>Node4&#45;&gt;Node3</title>
<path fill="none" stroke="midnightblue" d="M545.76,-169.32C518.65,-161.09 475.23,-147.15 438.89,-132 420.55,-124.35 416.82,-120.59 398.89,-112 375.64,-100.85 349.04,-88.67 329.43,-79.8"/>
<polygon fill="midnightblue" stroke="midnightblue" points="330.69,-76.53 320.14,-75.61 327.81,-82.91 330.69,-76.53"/>
</g>
<!-- Node5 -->
<g id="node5" class="node">
<title>Node5</title>
<g id="a_node5"><a xlink:href="taglib_8h.html" target="_top" xlink:title=" ">
<polygon fill="white" stroke="black" points="580.89,-56.5 580.89,-75.5 628.89,-75.5 628.89,-56.5 580.89,-56.5"/>
<text text-anchor="middle" x="604.89" y="-63.5" font-family="Helvetica,sans-Serif" font-size="10.00">taglib.h</text>
</a>
</g>
</g>
<!-- Node4&#45;&gt;Node5 -->
<g id="edge5" class="edge">
<title>Node4&#45;&gt;Node5</title>
<path fill="none" stroke="midnightblue" d="M574.48,-168.37C579.83,-150.54 592.21,-109.3 599.41,-85.27"/>
<polygon fill="midnightblue" stroke="midnightblue" points="602.8,-86.18 602.32,-75.59 596.09,-84.16 602.8,-86.18"/>
</g>
<!-- Node7 -->
<g id="node7" class="node">
<title>Node7</title>
<g id="a_node7"><a xlink:title=" ">
<polygon fill="white" stroke="#bfbfbf" points="469.39,-0.5 469.39,-19.5 510.39,-19.5 510.39,-0.5 469.39,-0.5"/>
<text text-anchor="middle" x="489.89" y="-7.5" font-family="Helvetica,sans-Serif" font-size="10.00">string</text>
</a>
</g>
</g>
<!-- Node4&#45;&gt;Node7 -->
<g id="edge13" class="edge">
<title>Node4&#45;&gt;Node7</title>
<path fill="none" stroke="midnightblue" d="M567.49,-168.08C554.47,-141.72 516.01,-63.88 498.62,-28.66"/>
<polygon fill="midnightblue" stroke="midnightblue" points="501.69,-26.98 494.13,-19.57 495.42,-30.08 501.69,-26.98"/>
</g>
<!-- Node8 -->
<g id="node8" class="node">
<title>Node8</title>
<g id="a_node8"><a xlink:href="tbytevector_8h.html" target="_top" xlink:title=" ">
<polygon fill="white" stroke="black" points="633.39,-112.5 633.39,-131.5 706.39,-131.5 706.39,-112.5 633.39,-112.5"/>
<text text-anchor="middle" x="669.89" y="-119.5" font-family="Helvetica,sans-Serif" font-size="10.00">tbytevector.h</text>
</a>
</g>
</g>
<!-- Node4&#45;&gt;Node8 -->
<g id="edge8" class="edge">
<title>Node4&#45;&gt;Node8</title>
<path fill="none" stroke="midnightblue" d="M587.64,-168.32C603.21,-159.74 627.27,-146.49 645.35,-136.52"/>
<polygon fill="midnightblue" stroke="midnightblue" points="647.12,-139.55 654.19,-131.65 643.74,-133.42 647.12,-139.55"/>
</g>
<!-- Node10 -->
<g id="node10" class="node">
<title>Node10</title>
<g id="a_node10"><a xlink:title=" ">
<polygon fill="white" stroke="#bfbfbf" points="708.89,-56.5 708.89,-75.5 762.89,-75.5 762.89,-56.5 708.89,-56.5"/>
<text text-anchor="middle" x="735.89" y="-63.5" font-family="Helvetica,sans-Serif" font-size="10.00">iostream</text>
</a>
</g>
</g>
<!-- Node4&#45;&gt;Node10 -->
<g id="edge14" class="edge">
<title>Node4&#45;&gt;Node10</title>
<path fill="none" stroke="midnightblue" d="M597.96,-175.96C630.03,-173.26 684.11,-163.93 715.89,-132 727.99,-119.85 732.8,-100.58 734.69,-86.16"/>
<polygon fill="midnightblue" stroke="midnightblue" points="738.21,-86.17 735.68,-75.88 731.24,-85.5 738.21,-86.17"/>
</g>
<!-- Node6 -->
<g id="node6" class="node">
<title>Node6</title>
<g id="a_node6"><a xlink:title=" ">
<polygon fill="white" stroke="#bfbfbf" points="564.89,-0.5 564.89,-19.5 644.89,-19.5 644.89,-0.5 564.89,-0.5"/>
<text text-anchor="middle" x="604.89" y="-7.5" font-family="Helvetica,sans-Serif" font-size="10.00">taglib_config.h</text>
</a>
</g>
</g>
<!-- Node5&#45;&gt;Node6 -->
<g id="edge6" class="edge">
<title>Node5&#45;&gt;Node6</title>
<path fill="none" stroke="midnightblue" d="M604.89,-56.08C604.89,-49.01 604.89,-38.86 604.89,-29.99"/>
<polygon fill="midnightblue" stroke="midnightblue" points="608.39,-29.75 604.89,-19.75 601.39,-29.75 608.39,-29.75"/>
</g>
<!-- Node5&#45;&gt;Node7 -->
<g id="edge7" class="edge">
<title>Node5&#45;&gt;Node7</title>
<path fill="none" stroke="midnightblue" d="M586.67,-56.44C568,-47.68 538.74,-33.94 517.28,-23.86"/>
<polygon fill="midnightblue" stroke="midnightblue" points="518.57,-20.6 508.03,-19.52 515.59,-26.93 518.57,-20.6"/>
</g>
<!-- Node8&#45;&gt;Node3 -->
<g id="edge10" class="edge">
<title>Node8&#45;&gt;Node3</title>
<path fill="none" stroke="midnightblue" d="M633.16,-115.62C566.74,-105.9 426.58,-85.39 351.28,-74.37"/>
<polygon fill="midnightblue" stroke="midnightblue" points="351.5,-70.87 341.09,-72.88 350.48,-77.79 351.5,-70.87"/>
</g>
<!-- Node8&#45;&gt;Node5 -->
<g id="edge9" class="edge">
<title>Node8&#45;&gt;Node5</title>
<path fill="none" stroke="midnightblue" d="M659.45,-112.32C649.75,-104.26 635.08,-92.08 623.39,-82.37"/>
<polygon fill="midnightblue" stroke="midnightblue" points="625.46,-79.53 615.53,-75.83 620.98,-84.92 625.46,-79.53"/>
</g>
<!-- Node9 -->
<g id="node9" class="node">
<title>Node9</title>
<g id="a_node9"><a xlink:title=" ">
<polygon fill="white" stroke="#bfbfbf" points="646.89,-56.5 646.89,-75.5 690.89,-75.5 690.89,-56.5 646.89,-56.5"/>
<text text-anchor="middle" x="668.89" y="-63.5" font-family="Helvetica,sans-Serif" font-size="10.00">vector</text>
</a>
</g>
</g>
<!-- Node8&#45;&gt;Node9 -->
<g id="edge11" class="edge">
<title>Node8&#45;&gt;Node9</title>
<path fill="none" stroke="midnightblue" d="M669.73,-112.08C669.6,-105.01 669.41,-94.86 669.25,-85.99"/>
<polygon fill="midnightblue" stroke="midnightblue" points="672.74,-85.68 669.06,-75.75 665.74,-85.81 672.74,-85.68"/>
</g>
<!-- Node8&#45;&gt;Node10 -->
<g id="edge12" class="edge">
<title>Node8&#45;&gt;Node10</title>
<path fill="none" stroke="midnightblue" d="M680.5,-112.32C690.35,-104.26 705.24,-92.08 717.11,-82.37"/>
<polygon fill="midnightblue" stroke="midnightblue" points="719.57,-84.88 725.1,-75.83 715.14,-79.46 719.57,-84.88"/>
</g>
<!-- Node11&#45;&gt;Node2 -->
<g id="edge18" class="edge">
<title>Node11&#45;&gt;Node2</title>
<path fill="none" stroke="midnightblue" d="M413.32,-283.48C381.79,-275.01 319.64,-258.3 266.89,-244 265.64,-243.66 264.35,-243.31 263.06,-242.96"/>
<polygon fill="midnightblue" stroke="midnightblue" points="263.65,-239.49 253.09,-240.24 261.82,-246.25 263.65,-239.49"/>
</g>
<!-- Node11&#45;&gt;Node3 -->
<g id="edge16" class="edge">
<title>Node11&#45;&gt;Node3</title>
<path fill="none" stroke="midnightblue" d="M413.17,-284.16C380.76,-276.21 320.22,-259.7 304.89,-244 263.07,-201.13 282.59,-120.99 294.31,-85.14"/>
<polygon fill="midnightblue" stroke="midnightblue" points="297.67,-86.12 297.62,-75.53 291.05,-83.84 297.67,-86.12"/>
</g>
<!-- Node11&#45;&gt;Node5 -->
<g id="edge17" class="edge">
<title>Node11&#45;&gt;Node5</title>
<path fill="none" stroke="midnightblue" d="M433.1,-280.26C431.62,-259.13 430.48,-204.33 453.89,-168 482.16,-124.14 536.96,-94.79 572.19,-79.51"/>
<polygon fill="midnightblue" stroke="midnightblue" points="573.7,-82.67 581.57,-75.57 570.99,-76.21 573.7,-82.67"/>
</g>
<!-- Node11&#45;&gt;Node8 -->
<g id="edge19" class="edge">
<title>Node11&#45;&gt;Node8</title>
<path fill="none" stroke="midnightblue" d="M452.09,-280.45C484.78,-264.65 554.88,-228.76 606.89,-188 625.54,-173.39 644.07,-153.45 656.15,-139.52"/>
<polygon fill="midnightblue" stroke="midnightblue" points="658.97,-141.61 662.79,-131.73 653.64,-137.08 658.97,-141.61"/>
</g>
<!-- Node12 -->
<g id="node12" class="node">
<title>Node12</title>
<g id="a_node12"><a xlink:href="tiostream_8h.html" target="_top" xlink:title=" ">
<polygon fill="white" stroke="black" points="462.39,-168.5 462.39,-187.5 527.39,-187.5 527.39,-168.5 462.39,-168.5"/>
<text text-anchor="middle" x="494.89" y="-175.5" font-family="Helvetica,sans-Serif" font-size="10.00">tiostream.h</text>
</a>
</g>
</g>
<!-- Node11&#45;&gt;Node12 -->
<g id="edge20" class="edge">
<title>Node11&#45;&gt;Node12</title>
<path fill="none" stroke="midnightblue" d="M438.68,-280.37C448.66,-262.38 471.85,-220.55 485.12,-196.63"/>
<polygon fill="midnightblue" stroke="midnightblue" points="488.34,-198.03 490.13,-187.59 482.22,-194.64 488.34,-198.03"/>
</g>
<!-- Node12&#45;&gt;Node3 -->
<g id="edge21" class="edge">
<title>Node12&#45;&gt;Node3</title>
<path fill="none" stroke="midnightblue" d="M475.07,-168.42C455.79,-159.85 425.82,-145.99 400.89,-132 372.4,-116.01 341.03,-95.03 321.16,-81.29"/>
<polygon fill="midnightblue" stroke="midnightblue" points="323.1,-78.37 312.89,-75.53 319.1,-84.12 323.1,-78.37"/>
</g>
<!-- Node12&#45;&gt;Node5 -->
<g id="edge22" class="edge">
<title>Node12&#45;&gt;Node5</title>
<path fill="none" stroke="midnightblue" d="M504.61,-168.19C514.41,-159.23 529.91,-144.87 542.89,-132 559.4,-115.63 577.71,-96.29 590.12,-82.98"/>
<polygon fill="midnightblue" stroke="midnightblue" points="592.77,-85.27 597.02,-75.56 587.65,-80.5 592.77,-85.27"/>
</g>
<!-- Node12&#45;&gt;Node8 -->
<g id="edge23" class="edge">
<title>Node12&#45;&gt;Node8</title>
<path fill="none" stroke="midnightblue" d="M522.62,-168.44C552.32,-159.28 599.61,-144.69 632.56,-134.52"/>
<polygon fill="midnightblue" stroke="midnightblue" points="633.77,-137.81 642.29,-131.52 631.71,-131.12 633.77,-137.81"/>
</g>
<!-- Node13&#45;&gt;Node3 -->
<g id="edge26" class="edge">
<title>Node13&#45;&gt;Node3</title>
<path fill="none" stroke="midnightblue" d="M121.45,-168.14C130.58,-154.28 150.02,-127.47 172.89,-112 196.31,-96.17 225.89,-85.3 250.71,-78.21"/>
<polygon fill="midnightblue" stroke="midnightblue" points="251.95,-81.5 260.67,-75.49 250.1,-74.75 251.95,-81.5"/>
</g>
<!-- Node14 -->
<g id="node14" class="node">
<title>Node14</title>
<g id="a_node14"><a xlink:href="audioproperties_8h.html" target="_top" xlink:title=" ">
<polygon fill="white" stroke="black" points="29.39,-112.5 29.39,-131.5 120.39,-131.5 120.39,-112.5 29.39,-112.5"/>
<text text-anchor="middle" x="74.89" y="-119.5" font-family="Helvetica,sans-Serif" font-size="10.00">audioproperties.h</text>
</a>
</g>
</g>
<!-- Node13&#45;&gt;Node14 -->
<g id="edge27" class="edge">
<title>Node13&#45;&gt;Node14</title>
<path fill="none" stroke="midnightblue" d="M109.12,-168.08C103.33,-160.46 94.84,-149.26 87.76,-139.94"/>
<polygon fill="midnightblue" stroke="midnightblue" points="90.37,-137.6 81.54,-131.75 84.8,-141.83 90.37,-137.6"/>
</g>
<!-- Node14&#45;&gt;Node3 -->
<g id="edge28" class="edge">
<title>Node14&#45;&gt;Node3</title>
<path fill="none" stroke="midnightblue" d="M110.7,-112.44C149.88,-103.08 212.77,-88.06 255.41,-77.87"/>
<polygon fill="midnightblue" stroke="midnightblue" points="256.34,-81.24 265.25,-75.52 254.71,-74.44 256.34,-81.24"/>
</g>
<!-- Node15&#45;&gt;Node2 -->
<g id="edge30" class="edge">
<title>Node15&#45;&gt;Node2</title>
<path fill="none" stroke="midnightblue" d="M576.08,-339.85C536.91,-332.55 464.88,-318.05 404.89,-300 353.9,-284.66 296.36,-261.53 262.71,-247.4"/>
<polygon fill="midnightblue" stroke="midnightblue" points="263.65,-243.99 253.07,-243.32 260.92,-250.44 263.65,-243.99"/>
</g>
<!-- Node15&#45;&gt;Node3 -->
<g id="edge49" class="edge">
<title>Node15&#45;&gt;Node3</title>
<path fill="none" stroke="midnightblue" d="M576.16,-343.65C481.73,-338.43 186.89,-315.67 186.89,-235 186.89,-235 186.89,-235 186.89,-177 186.89,-130.11 237.45,-96.89 271.22,-79.93"/>
<polygon fill="midnightblue" stroke="midnightblue" points="272.76,-83.07 280.25,-75.58 269.72,-76.77 272.76,-83.07"/>
</g>
<!-- Node15&#45;&gt;Node11 -->
<g id="edge38" class="edge">
<title>Node15&#45;&gt;Node11</title>
<path fill="none" stroke="midnightblue" d="M577.8,-336.44C546.87,-326.68 496.4,-310.74 464.19,-300.57"/>
<polygon fill="midnightblue" stroke="midnightblue" points="465.01,-297.16 454.42,-297.48 462.9,-303.83 465.01,-297.16"/>
</g>
<!-- Node16 -->
<g id="node16" class="node">
<title>Node16</title>
<g id="a_node16"><a xlink:href="tbytevectorlist_8h.html" target="_top" xlink:title=" ">
<polygon fill="white" stroke="black" points="691.89,-168.5 691.89,-187.5 777.89,-187.5 777.89,-168.5 691.89,-168.5"/>
<text text-anchor="middle" x="734.89" y="-175.5" font-family="Helvetica,sans-Serif" font-size="10.00">tbytevectorlist.h</text>
</a>
</g>
</g>
<!-- Node15&#45;&gt;Node16 -->
<g id="edge31" class="edge">
<title>Node15&#45;&gt;Node16</title>
<path fill="none" stroke="midnightblue" d="M618.11,-336.22C630.4,-327.72 648.87,-314.09 662.89,-300 685.03,-277.76 689.83,-270.96 705.89,-244 714.88,-228.92 722.82,-210.57 728.11,-197.21"/>
<polygon fill="midnightblue" stroke="midnightblue" points="731.43,-198.32 731.75,-187.73 724.9,-195.81 731.43,-198.32"/>
</g>
<!-- Node20 -->
<g id="node20" class="node">
<title>Node20</title>
<g id="a_node20"><a xlink:href="tmap_8h.html" target="_top" xlink:title=" ">
<polygon fill="white" stroke="black" points="800.39,-280.5 800.39,-299.5 847.39,-299.5 847.39,-280.5 800.39,-280.5"/>
<text text-anchor="middle" x="823.89" y="-287.5" font-family="Helvetica,sans-Serif" font-size="10.00">tmap.h</text>
</a>
</g>
</g>
<!-- Node15&#45;&gt;Node20 -->
<g id="edge39" class="edge">
<title>Node15&#45;&gt;Node20</title>
<path fill="none" stroke="midnightblue" d="M633.52,-337.94C673.91,-327.98 747.44,-309.85 790.33,-299.27"/>
<polygon fill="midnightblue" stroke="midnightblue" points="791.41,-302.61 800.28,-296.82 789.74,-295.82 791.41,-302.61"/>
</g>
<!-- Node23 -->
<g id="node23" class="node">
<title>Node23</title>
<g id="a_node23"><a xlink:href="tstringlist_8h.html" target="_top" xlink:title=" ">
<polygon fill="white" stroke="black" points="631.39,-224.5 631.39,-243.5 696.39,-243.5 696.39,-224.5 631.39,-224.5"/>
<text text-anchor="middle" x="663.89" y="-231.5" font-family="Helvetica,sans-Serif" font-size="10.00">tstringlist.h</text>
</a>
</g>
</g>
<!-- Node15&#45;&gt;Node23 -->
<g id="edge43" class="edge">
<title>Node15&#45;&gt;Node23</title>
<path fill="none" stroke="midnightblue" d="M614.82,-336.3C623.87,-327.86 637,-314.27 644.89,-300 652.9,-285.53 657.84,-267.35 660.67,-253.89"/>
<polygon fill="midnightblue" stroke="midnightblue" points="664.15,-254.37 662.57,-243.89 657.27,-253.06 664.15,-254.37"/>
</g>
<!-- Node24 -->
<g id="node24" class="node">
<title>Node24</title>
<g id="a_node24"><a xlink:href="mp4atom_8h.html" target="_top" xlink:title=" ">
<polygon fill="white" stroke="black" points="898.39,-112.5 898.39,-131.5 963.39,-131.5 963.39,-112.5 898.39,-112.5"/>
<text text-anchor="middle" x="930.89" y="-119.5" font-family="Helvetica,sans-Serif" font-size="10.00">mp4atom.h</text>
</a>
</g>
</g>
<!-- Node15&#45;&gt;Node24 -->
<g id="edge50" class="edge">
<title>Node15&#45;&gt;Node24</title>
<path fill="none" stroke="midnightblue" d="M633.42,-343.42C681.14,-340.02 779.52,-329.71 856.89,-300 900.87,-283.11 924.01,-285.18 946.89,-244 965.17,-211.1 950.38,-165.6 939.61,-140.83"/>
<polygon fill="midnightblue" stroke="midnightblue" points="942.72,-139.2 935.35,-131.58 936.36,-142.12 942.72,-139.2"/>
</g>
<!-- Node25 -->
<g id="node25" class="node">
<title>Node25</title>
<g id="a_node25"><a xlink:href="mp4item_8h.html" target="_top" xlink:title=" ">
<polygon fill="white" stroke="black" points="573.89,-280.5 573.89,-299.5 635.89,-299.5 635.89,-280.5 573.89,-280.5"/>
<text text-anchor="middle" x="604.89" y="-287.5" font-family="Helvetica,sans-Serif" font-size="10.00">mp4item.h</text>
</a>
</g>
</g>
<!-- Node15&#45;&gt;Node25 -->
<g id="edge51" class="edge">
<title>Node15&#45;&gt;Node25</title>
<path fill="none" stroke="midnightblue" d="M604.89,-336.08C604.89,-329.01 604.89,-318.86 604.89,-309.99"/>
<polygon fill="midnightblue" stroke="midnightblue" points="608.39,-309.75 604.89,-299.75 601.39,-309.75 608.39,-309.75"/>
</g>
<!-- Node16&#45;&gt;Node3 -->
<g id="edge32" class="edge">
<title>Node16&#45;&gt;Node3</title>
<path fill="none" stroke="midnightblue" d="M701.2,-168.46C623.32,-148.72 430.92,-99.96 344.34,-78.01"/>
<polygon fill="midnightblue" stroke="midnightblue" points="345.12,-74.6 334.57,-75.53 343.4,-81.38 345.12,-74.6"/>
</g>
<!-- Node16&#45;&gt;Node8 -->
<g id="edge33" class="edge">
<title>Node16&#45;&gt;Node8</title>
<path fill="none" stroke="midnightblue" d="M724.45,-168.32C714.75,-160.26 700.08,-148.08 688.39,-138.37"/>
<polygon fill="midnightblue" stroke="midnightblue" points="690.46,-135.53 680.53,-131.83 685.98,-140.92 690.46,-135.53"/>
</g>
<!-- Node17 -->
<g id="node17" class="node">
<title>Node17</title>
<g id="a_node17"><a xlink:href="tlist_8h.html" target="_top" xlink:title=" ">
<polygon fill="white" stroke="black" points="839.39,-112.5 839.39,-131.5 880.39,-131.5 880.39,-112.5 839.39,-112.5"/>
<text text-anchor="middle" x="859.89" y="-119.5" font-family="Helvetica,sans-Serif" font-size="10.00">tlist.h</text>
</a>
</g>
</g>
<!-- Node16&#45;&gt;Node17 -->
<g id="edge34" class="edge">
<title>Node16&#45;&gt;Node17</title>
<path fill="none" stroke="midnightblue" d="M754.7,-168.44C775.18,-159.6 807.38,-145.69 830.76,-135.59"/>
<polygon fill="midnightblue" stroke="midnightblue" points="832.39,-138.7 840.18,-131.52 829.61,-132.27 832.39,-138.7"/>
</g>
<!-- Node17&#45;&gt;Node5 -->
<g id="edge35" class="edge">
<title>Node17&#45;&gt;Node5</title>
<path fill="none" stroke="midnightblue" d="M839.22,-115.46C834.52,-114.26 829.55,-113.04 824.89,-112 745.38,-94.14 722.05,-95.05 638.88,-76.08"/>
<polygon fill="midnightblue" stroke="midnightblue" points="639.52,-72.64 628.99,-73.8 637.95,-79.46 639.52,-72.64"/>
</g>
<!-- Node18 -->
<g id="node18" class="node">
<title>Node18</title>
<g id="a_node18"><a xlink:title=" ">
<polygon fill="white" stroke="#bfbfbf" points="875.39,-56.5 875.39,-75.5 904.39,-75.5 904.39,-56.5 875.39,-56.5"/>
<text text-anchor="middle" x="889.89" y="-63.5" font-family="Helvetica,sans-Serif" font-size="10.00">list</text>
</a>
</g>
</g>
<!-- Node17&#45;&gt;Node18 -->
<g id="edge36" class="edge">
<title>Node17&#45;&gt;Node18</title>
<path fill="none" stroke="midnightblue" d="M864.85,-112.08C869,-104.61 875.05,-93.72 880.16,-84.52"/>
<polygon fill="midnightblue" stroke="midnightblue" points="883.24,-86.19 885.03,-75.75 877.12,-82.79 883.24,-86.19"/>
</g>
<!-- Node19 -->
<g id="node19" class="node">
<title>Node19</title>
<g id="a_node19"><a xlink:title=" ">
<polygon fill="white" stroke="#bfbfbf" points="808.39,-56.5 808.39,-75.5 857.39,-75.5 857.39,-56.5 808.39,-56.5"/>
<text text-anchor="middle" x="832.89" y="-63.5" font-family="Helvetica,sans-Serif" font-size="10.00">tlist.tcc</text>
</a>
</g>
</g>
<!-- Node17&#45;&gt;Node19 -->
<g id="edge37" class="edge">
<title>Node17&#45;&gt;Node19</title>
<path fill="none" stroke="midnightblue" d="M855.44,-112.08C851.74,-104.69 846.37,-93.95 841.8,-84.81"/>
<polygon fill="midnightblue" stroke="midnightblue" points="844.87,-83.13 837.27,-75.75 838.61,-86.26 844.87,-83.13"/>
</g>
<!-- Node20&#45;&gt;Node5 -->
<g id="edge41" class="edge">
<title>Node20&#45;&gt;Node5</title>
<path fill="none" stroke="midnightblue" d="M820.49,-280.17C815.96,-266.83 809.73,-241.27 820.89,-224 842.06,-191.26 867.49,-208.11 900.89,-188 940.76,-164 1003.99,-146.61 972.89,-112 924.76,-58.42 727.33,-87.46 638.92,-75.64"/>
<polygon fill="midnightblue" stroke="midnightblue" points="639.37,-72.17 628.94,-74.03 638.26,-79.08 639.37,-72.17"/>
</g>
<!-- Node21 -->
<g id="node21" class="node">
<title>Node21</title>
<g id="a_node21"><a xlink:title=" ">
<polygon fill="white" stroke="#bfbfbf" points="829.39,-224.5 829.39,-243.5 864.39,-243.5 864.39,-224.5 829.39,-224.5"/>
<text text-anchor="middle" x="846.89" y="-231.5" font-family="Helvetica,sans-Serif" font-size="10.00">map</text>
</a>
</g>
</g>
<!-- Node20&#45;&gt;Node21 -->
<g id="edge40" class="edge">
<title>Node20&#45;&gt;Node21</title>
<path fill="none" stroke="midnightblue" d="M827.69,-280.08C830.81,-272.77 835.32,-262.18 839.18,-253.1"/>
<polygon fill="midnightblue" stroke="midnightblue" points="842.47,-254.32 843.17,-243.75 836.03,-251.58 842.47,-254.32"/>
</g>
<!-- Node22 -->
<g id="node22" class="node">
<title>Node22</title>
<g id="a_node22"><a xlink:title=" ">
<polygon fill="white" stroke="#bfbfbf" points="882.39,-224.5 882.39,-243.5 937.39,-243.5 937.39,-224.5 882.39,-224.5"/>
<text text-anchor="middle" x="909.89" y="-231.5" font-family="Helvetica,sans-Serif" font-size="10.00">tmap.tcc</text>
</a>
</g>
</g>
<!-- Node20&#45;&gt;Node22 -->
<g id="edge42" class="edge">
<title>Node20&#45;&gt;Node22</title>
<path fill="none" stroke="midnightblue" d="M837.71,-280.32C851.13,-271.9 871.72,-258.97 887.48,-249.07"/>
<polygon fill="midnightblue" stroke="midnightblue" points="889.5,-251.94 896.11,-243.65 885.78,-246.01 889.5,-251.94"/>
</g>
<!-- Node23&#45;&gt;Node3 -->
<g id="edge47" class="edge">
<title>Node23&#45;&gt;Node3</title>
<path fill="none" stroke="midnightblue" d="M631.17,-229.63C588.93,-224.48 513.75,-212.53 453.89,-188 411,-170.42 402.06,-161.01 365.89,-132 347.13,-116.95 327.93,-97.09 315.31,-83.3"/>
<polygon fill="midnightblue" stroke="midnightblue" points="317.66,-80.68 308.37,-75.6 312.46,-85.37 317.66,-80.68"/>
</g>
<!-- Node23&#45;&gt;Node4 -->
<g id="edge44" class="edge">
<title>Node23&#45;&gt;Node4</title>
<path fill="none" stroke="midnightblue" d="M649.11,-224.32C634.63,-215.82 612.32,-202.73 595.4,-192.8"/>
<polygon fill="midnightblue" stroke="midnightblue" points="597.03,-189.7 586.64,-187.65 593.49,-195.74 597.03,-189.7"/>
</g>
<!-- Node23&#45;&gt;Node10 -->
<g id="edge48" class="edge">
<title>Node23&#45;&gt;Node10</title>
<path fill="none" stroke="midnightblue" d="M664.6,-224.2C666.05,-210.89 670.38,-185.35 682.89,-168 699.34,-145.2 721.66,-156.8 734.89,-132 742.45,-117.84 741.92,-99.36 739.96,-85.72"/>
<polygon fill="midnightblue" stroke="midnightblue" points="743.35,-84.82 738.12,-75.61 736.46,-86.08 743.35,-84.82"/>
</g>
<!-- Node23&#45;&gt;Node16 -->
<g id="edge46" class="edge">
<title>Node23&#45;&gt;Node16</title>
<path fill="none" stroke="midnightblue" d="M675.3,-224.32C686,-216.18 702.23,-203.84 715.06,-194.09"/>
<polygon fill="midnightblue" stroke="midnightblue" points="717.44,-196.67 723.28,-187.83 713.2,-191.1 717.44,-196.67"/>
</g>
<!-- Node23&#45;&gt;Node17 -->
<g id="edge45" class="edge">
<title>Node23&#45;&gt;Node17</title>
<path fill="none" stroke="midnightblue" d="M696.57,-231.25C752.18,-227.53 861.49,-216.66 884.89,-188 896.42,-173.89 885.71,-153.86 874.95,-139.78"/>
<polygon fill="midnightblue" stroke="midnightblue" points="877.5,-137.37 868.44,-131.88 872.1,-141.82 877.5,-137.37"/>
</g>
<!-- Node25&#45;&gt;Node3 -->
<g id="edge58" class="edge">
<title>Node25&#45;&gt;Node3</title>
<path fill="none" stroke="midnightblue" d="M579.76,-280.36C528.04,-261.39 408.76,-211.36 339.89,-132 327.38,-117.58 316.53,-98.64 309.47,-84.93"/>
<polygon fill="midnightblue" stroke="midnightblue" points="312.43,-83.02 304.85,-75.62 306.16,-86.13 312.43,-83.02"/>
</g>
<!-- Node25&#45;&gt;Node23 -->
<g id="edge52" class="edge">
<title>Node25&#45;&gt;Node23</title>
<path fill="none" stroke="midnightblue" d="M614.37,-280.32C623.1,-272.34 636.24,-260.31 646.79,-250.65"/>
<polygon fill="midnightblue" stroke="midnightblue" points="649.23,-253.17 654.24,-243.83 644.5,-248 649.23,-253.17"/>
</g>
<!-- Node26 -->
<g id="node26" class="node">
<title>Node26</title>
<g id="a_node26"><a xlink:href="mp4coverart_8h.html" target="_top" xlink:title=" ">
<polygon fill="white" stroke="black" points="796.39,-168.5 796.39,-187.5 875.39,-187.5 875.39,-168.5 796.39,-168.5"/>
<text text-anchor="middle" x="835.89" y="-175.5" font-family="Helvetica,sans-Serif" font-size="10.00">mp4coverart.h</text>
</a>
</g>
</g>
<!-- Node25&#45;&gt;Node26 -->
<g id="edge53" class="edge">
<title>Node25&#45;&gt;Node26</title>
<path fill="none" stroke="midnightblue" d="M624.75,-280.46C645.21,-271.6 677.95,-257.2 705.89,-244 742.31,-226.79 783.85,-205.78 809.97,-192.39"/>
<polygon fill="midnightblue" stroke="midnightblue" points="811.89,-195.34 819.18,-187.65 808.69,-189.11 811.89,-195.34"/>
</g>
<!-- Node26&#45;&gt;Node3 -->
<g id="edge56" class="edge">
<title>Node26&#45;&gt;Node3</title>
<path fill="none" stroke="midnightblue" d="M823.99,-168.48C803.2,-154.1 758.42,-125.26 715.89,-112 588.93,-72.42 430.74,-66.46 351.33,-66.26"/>
<polygon fill="midnightblue" stroke="midnightblue" points="351.12,-62.76 341.12,-66.26 351.13,-69.76 351.12,-62.76"/>
</g>
<!-- Node26&#45;&gt;Node8 -->
<g id="edge55" class="edge">
<title>Node26&#45;&gt;Node8</title>
<path fill="none" stroke="midnightblue" d="M809.59,-168.44C781.54,-159.32 736.95,-144.81 705.71,-134.65"/>
<polygon fill="midnightblue" stroke="midnightblue" points="706.67,-131.28 696.07,-131.52 704.5,-137.94 706.67,-131.28"/>
</g>
<!-- Node26&#45;&gt;Node17 -->
<g id="edge54" class="edge">
<title>Node26&#45;&gt;Node17</title>
<path fill="none" stroke="midnightblue" d="M839.86,-168.08C843.11,-160.77 847.81,-150.18 851.85,-141.1"/>
<polygon fill="midnightblue" stroke="midnightblue" points="855.14,-142.31 856,-131.75 848.74,-139.47 855.14,-142.31"/>
</g>
<!-- Node26&#45;&gt;Node24 -->
<g id="edge57" class="edge">
<title>Node26&#45;&gt;Node24</title>
<path fill="none" stroke="midnightblue" d="M851.16,-168.32C866.12,-159.82 889.15,-146.73 906.62,-136.8"/>
<polygon fill="midnightblue" stroke="midnightblue" points="908.7,-139.64 915.67,-131.65 905.25,-133.55 908.7,-139.64"/>
</g>
</g>
</svg>
