<?xml version="1.0" encoding="UTF-8" standalone="no"?>
<!DOCTYPE svg PUBLIC "-//W3C//DTD SVG 1.1//EN"
 "http://www.w3.org/Graphics/SVG/1.1/DTD/svg11.dtd">
<!-- Generated by graphviz version 2.42.4 (0)
 -->
<!-- Title: mp4file.h Pages: 1 -->
<svg width="1386pt" height="522pt"
 viewBox="0.00 0.00 1386.00 522.00" xmlns="http://www.w3.org/2000/svg" xmlns:xlink="http://www.w3.org/1999/xlink">
<g id="graph0" class="graph" transform="scale(1 1) rotate(0) translate(4 518)">
<title>mp4file.h</title>
<!-- Node1 -->
<g id="Node000001" class="node">
<title>Node1</title>
<g id="a_Node000001"><a xlink:title=" ">
<polygon fill="#999999" stroke="#666666" points="675,-514 613,-514 613,-495 675,-495 675,-514"/>
<text text-anchor="middle" x="644" y="-502" font-family="Helvetica,sans-Serif" font-size="10.00">mp4file.h</text>
</a>
</g>
</g>
<!-- Node2 -->
<g id="Node000002" class="node">
<title>Node2</title>
<g id="a_Node000002"><a xlink:href="tfile_8h.html" target="_top" xlink:title=" ">
<polygon fill="white" stroke="#666666" points="614,-239 570,-239 570,-220 614,-220 614,-239"/>
<text text-anchor="middle" x="592" y="-227" font-family="Helvetica,sans-Serif" font-size="10.00">tfile.h</text>
</a>
</g>
</g>
<!-- Node1&#45;&gt;Node2 -->
<g id="edge1_Node000001_Node000002" class="edge">
<title>Node1&#45;&gt;Node2</title>
<g id="a_edge1_Node000001_Node000002"><a xlink:title=" ">
<path fill="none" stroke="#63b8ff" d="M612.79,-498.07C564.21,-487.63 476,-459.82 476,-395.5 476,-395.5 476,-395.5 476,-338.5 476,-308.91 476.47,-297.23 496,-275 512.67,-256.03 539.13,-244.6 560.05,-238.08"/>
<polygon fill="#63b8ff" stroke="#63b8ff" points="561.17,-241.4 569.81,-235.27 559.23,-234.67 561.17,-241.4"/>
</a>
</g>
</g>
<!-- Node7 -->
<g id="Node000007" class="node">
<title>Node7</title>
<g id="a_Node000007"><a xlink:href="taglib__export_8h.html" target="_top" xlink:title=" ">
<polygon fill="white" stroke="#666666" points="1027,-19 937,-19 937,0 1027,0 1027,-19"/>
<text text-anchor="middle" x="982" y="-7" font-family="Helvetica,sans-Serif" font-size="10.00">taglib_export.h</text>
</a>
</g>
</g>
<!-- Node1&#45;&gt;Node7 -->
<g id="edge35_Node000001_Node000007" class="edge">
<title>Node1&#45;&gt;Node7</title>
<g id="a_edge35_Node000001_Node000007"><a xlink:title=" ">
<path fill="none" stroke="#63b8ff" d="M675.07,-502.26C814.78,-496.28 1378,-467.71 1378,-395.5 1378,-395.5 1378,-395.5 1378,-118.5 1378,-48.69 1146.04,-22.48 1037.18,-14.02"/>
<polygon fill="#63b8ff" stroke="#63b8ff" points="1037.28,-10.51 1027.04,-13.25 1036.75,-17.5 1037.28,-10.51"/>
</a>
</g>
</g>
<!-- Node11 -->
<g id="Node000011" class="node">
<title>Node11</title>
<g id="a_Node000011"><a xlink:href="tag_8h.html" target="_top" xlink:title=" ">
<polygon fill="white" stroke="#666666" points="409.5,-184 368.5,-184 368.5,-165 409.5,-165 409.5,-184"/>
<text text-anchor="middle" x="389" y="-172" font-family="Helvetica,sans-Serif" font-size="10.00">tag.h</text>
</a>
</g>
</g>
<!-- Node1&#45;&gt;Node11 -->
<g id="edge63_Node000001_Node000011" class="edge">
<title>Node1&#45;&gt;Node11</title>
<g id="a_edge63_Node000001_Node000011"><a xlink:title=" ">
<path fill="none" stroke="#63b8ff" d="M612.86,-500.09C530.46,-490.22 313,-458.21 313,-395.5 313,-395.5 313,-395.5 313,-283.5 313,-244.47 346.61,-209.58 369.13,-190.6"/>
<polygon fill="#63b8ff" stroke="#63b8ff" points="371.56,-193.14 377.12,-184.12 367.15,-187.7 371.56,-193.14"/>
</a>
</g>
</g>
<!-- Node24 -->
<g id="Node000024" class="node">
<title>Node24</title>
<g id="a_Node000024"><a xlink:href="mp4tag_8h.html" target="_top" xlink:title=" ">
<polygon fill="white" stroke="#666666" points="675.5,-459 612.5,-459 612.5,-440 675.5,-440 675.5,-459"/>
<text text-anchor="middle" x="644" y="-447" font-family="Helvetica,sans-Serif" font-size="10.00">mp4tag.h</text>
</a>
</g>
</g>
<!-- Node1&#45;&gt;Node24 -->
<g id="edge36_Node000001_Node000024" class="edge">
<title>Node1&#45;&gt;Node24</title>
<g id="a_edge36_Node000001_Node000024"><a xlink:title=" ">
<path fill="none" stroke="#63b8ff" d="M644,-494.75C644,-487.8 644,-477.85 644,-469.13"/>
<polygon fill="#63b8ff" stroke="#63b8ff" points="647.5,-469.09 644,-459.09 640.5,-469.09 647.5,-469.09"/>
</a>
</g>
</g>
<!-- Node31 -->
<g id="Node000031" class="node">
<title>Node31</title>
<g id="a_Node000031"><a xlink:href="mp4properties_8h.html" target="_top" xlink:title=" ">
<polygon fill="white" stroke="#666666" points="1349.5,-184 1252.5,-184 1252.5,-165 1349.5,-165 1349.5,-184"/>
<text text-anchor="middle" x="1301" y="-172" font-family="Helvetica,sans-Serif" font-size="10.00">mp4properties.h</text>
</a>
</g>
</g>
<!-- Node1&#45;&gt;Node31 -->
<g id="edge64_Node000001_Node000031" class="edge">
<title>Node1&#45;&gt;Node31</title>
<g id="a_edge64_Node000001_Node000031"><a xlink:title=" ">
<path fill="none" stroke="#63b8ff" d="M675.16,-501.56C803.05,-493.17 1281,-457.68 1281,-395.5 1281,-395.5 1281,-395.5 1281,-283.5 1281,-251.51 1289.59,-215.07 1295.51,-193.75"/>
<polygon fill="#63b8ff" stroke="#63b8ff" points="1298.89,-194.66 1298.3,-184.08 1292.16,-192.71 1298.89,-194.66"/>
</a>
</g>
</g>
<!-- Node3 -->
<g id="Node000003" class="node">
<title>Node3</title>
<g id="a_Node000003"><a xlink:href="tbytevector_8h.html" target="_top" xlink:title=" ">
<polygon fill="white" stroke="#666666" points="797.5,-74 716.5,-74 716.5,-55 797.5,-55 797.5,-74"/>
<text text-anchor="middle" x="757" y="-62" font-family="Helvetica,sans-Serif" font-size="10.00">tbytevector.h</text>
</a>
</g>
</g>
<!-- Node2&#45;&gt;Node3 -->
<g id="edge2_Node000002_Node000003" class="edge">
<title>Node2&#45;&gt;Node3</title>
<g id="a_edge2_Node000002_Node000003"><a xlink:title=" ">
<path fill="none" stroke="#63b8ff" d="M601.31,-219.84C619.65,-202.73 661.69,-163.24 696,-129 711.8,-113.23 729.42,-94.79 741.65,-81.86"/>
<polygon fill="#63b8ff" stroke="#63b8ff" points="744.52,-83.92 748.83,-74.24 739.42,-79.12 744.52,-83.92"/>
</a>
</g>
</g>
<!-- Node2&#45;&gt;Node7 -->
<g id="edge12_Node000002_Node000007" class="edge">
<title>Node2&#45;&gt;Node7</title>
<g id="a_edge12_Node000002_Node000007"><a xlink:title=" ">
<path fill="none" stroke="#63b8ff" d="M614.29,-228.09C682.86,-226.48 889.34,-218.77 945,-184 990.7,-155.45 988.85,-127.41 996,-74 997.12,-65.63 997.28,-63.35 996,-55 994.65,-46.19 991.87,-36.74 989.15,-28.82"/>
<polygon fill="#63b8ff" stroke="#63b8ff" points="992.34,-27.35 985.6,-19.18 985.77,-29.77 992.34,-27.35"/>
</a>
</g>
</g>
<!-- Node8 -->
<g id="Node000008" class="node">
<title>Node8</title>
<g id="a_Node000008"><a xlink:href="tiostream_8h.html" target="_top" xlink:title=" ">
<polygon fill="white" stroke="#666666" points="686.5,-129 613.5,-129 613.5,-110 686.5,-110 686.5,-129"/>
<text text-anchor="middle" x="650" y="-117" font-family="Helvetica,sans-Serif" font-size="10.00">tiostream.h</text>
</a>
</g>
</g>
<!-- Node2&#45;&gt;Node8 -->
<g id="edge7_Node000002_Node000008" class="edge">
<title>Node2&#45;&gt;Node8</title>
<g id="a_edge7_Node000002_Node000008"><a xlink:title=" ">
<path fill="none" stroke="#63b8ff" d="M596.75,-219.66C606.31,-201.85 628.05,-161.37 640.6,-138.01"/>
<polygon fill="#63b8ff" stroke="#63b8ff" points="643.7,-139.62 645.35,-129.16 637.54,-136.31 643.7,-139.62"/>
</a>
</g>
</g>
<!-- Node9 -->
<g id="Node000009" class="node">
<title>Node9</title>
<g id="a_Node000009"><a xlink:href="taglib_8h.html" target="_top" xlink:title=" ">
<polygon fill="white" stroke="#666666" points="570.5,-74 517.5,-74 517.5,-55 570.5,-55 570.5,-74"/>
<text text-anchor="middle" x="544" y="-62" font-family="Helvetica,sans-Serif" font-size="10.00">taglib.h</text>
</a>
</g>
</g>
<!-- Node2&#45;&gt;Node9 -->
<g id="edge13_Node000002_Node000009" class="edge">
<title>Node2&#45;&gt;Node9</title>
<g id="a_edge13_Node000002_Node000009"><a xlink:title=" ">
<path fill="none" stroke="#63b8ff" d="M576.46,-219.99C551.42,-205.28 503.04,-172.43 484,-129 475.02,-108.52 496.28,-90.57 515.93,-79.03"/>
<polygon fill="#63b8ff" stroke="#63b8ff" points="517.65,-82.07 524.73,-74.19 514.28,-75.94 517.65,-82.07"/>
</a>
</g>
</g>
<!-- Node2&#45;&gt;Node11 -->
<g id="edge14_Node000002_Node000011" class="edge">
<title>Node2&#45;&gt;Node11</title>
<g id="a_edge14_Node000002_Node000011"><a xlink:title=" ">
<path fill="none" stroke="#63b8ff" d="M569.89,-222.73C533.42,-213.2 460.59,-194.19 419.33,-183.42"/>
<polygon fill="#63b8ff" stroke="#63b8ff" points="420.12,-180.01 409.56,-180.87 418.36,-186.78 420.12,-180.01"/>
</a>
</g>
</g>
<!-- Node4 -->
<g id="Node000004" class="node">
<title>Node4</title>
<g id="a_Node000004"><a xlink:title=" ">
<polygon fill="#e0e0e0" stroke="#999999" points="477,-19 419,-19 419,0 477,0 477,-19"/>
<text text-anchor="middle" x="448" y="-7" font-family="Helvetica,sans-Serif" font-size="10.00">memory</text>
</a>
</g>
</g>
<!-- Node3&#45;&gt;Node4 -->
<g id="edge3_Node000003_Node000004" class="edge">
<title>Node3&#45;&gt;Node4</title>
<g id="a_edge3_Node000003_Node000004"><a xlink:title=" ">
<path fill="none" stroke="#63b8ff" d="M716.29,-56.52C656.61,-46.28 546.12,-27.33 487.27,-17.24"/>
<polygon fill="#63b8ff" stroke="#63b8ff" points="487.7,-13.76 477.25,-15.52 486.52,-20.66 487.7,-13.76"/>
</a>
</g>
</g>
<!-- Node5 -->
<g id="Node000005" class="node">
<title>Node5</title>
<g id="a_Node000005"><a xlink:title=" ">
<polygon fill="#e0e0e0" stroke="#999999" points="813.5,-19 766.5,-19 766.5,0 813.5,0 813.5,-19"/>
<text text-anchor="middle" x="790" y="-7" font-family="Helvetica,sans-Serif" font-size="10.00">vector</text>
</a>
</g>
</g>
<!-- Node3&#45;&gt;Node5 -->
<g id="edge4_Node000003_Node000005" class="edge">
<title>Node3&#45;&gt;Node5</title>
<g id="a_edge4_Node000003_Node000005"><a xlink:title=" ">
<path fill="none" stroke="#63b8ff" d="M762.45,-54.75C767.01,-47.42 773.67,-36.73 779.29,-27.7"/>
<polygon fill="#63b8ff" stroke="#63b8ff" points="782.34,-29.43 784.65,-19.09 776.4,-25.73 782.34,-29.43"/>
</a>
</g>
</g>
<!-- Node6 -->
<g id="Node000006" class="node">
<title>Node6</title>
<g id="a_Node000006"><a xlink:title=" ">
<polygon fill="#e0e0e0" stroke="#999999" points="748,-19 700,-19 700,0 748,0 748,-19"/>
<text text-anchor="middle" x="724" y="-7" font-family="Helvetica,sans-Serif" font-size="10.00">iosfwd</text>
</a>
</g>
</g>
<!-- Node3&#45;&gt;Node6 -->
<g id="edge5_Node000003_Node000006" class="edge">
<title>Node3&#45;&gt;Node6</title>
<g id="a_edge5_Node000003_Node000006"><a xlink:title=" ">
<path fill="none" stroke="#63b8ff" d="M751.55,-54.75C746.99,-47.42 740.33,-36.73 734.71,-27.7"/>
<polygon fill="#63b8ff" stroke="#63b8ff" points="737.6,-25.73 729.35,-19.09 731.66,-29.43 737.6,-25.73"/>
</a>
</g>
</g>
<!-- Node3&#45;&gt;Node7 -->
<g id="edge6_Node000003_Node000007" class="edge">
<title>Node3&#45;&gt;Node7</title>
<g id="a_edge6_Node000003_Node000007"><a xlink:title=" ">
<path fill="none" stroke="#63b8ff" d="M793.15,-54.98C831.91,-45.86 893.55,-31.33 935.8,-21.38"/>
<polygon fill="#63b8ff" stroke="#63b8ff" points="936.64,-24.78 945.57,-19.08 935.03,-17.97 936.64,-24.78"/>
</a>
</g>
</g>
<!-- Node8&#45;&gt;Node3 -->
<g id="edge8_Node000008_Node000003" class="edge">
<title>Node8&#45;&gt;Node3</title>
<g id="a_edge8_Node000008_Node000003"><a xlink:title=" ">
<path fill="none" stroke="#63b8ff" d="M667.19,-109.98C684.25,-101.54 710.63,-88.47 730.4,-78.68"/>
<polygon fill="#63b8ff" stroke="#63b8ff" points="732.09,-81.75 739.5,-74.17 728.98,-75.47 732.09,-81.75"/>
</a>
</g>
</g>
<!-- Node8&#45;&gt;Node7 -->
<g id="edge9_Node000008_Node000007" class="edge">
<title>Node8&#45;&gt;Node7</title>
<g id="a_edge9_Node000008_Node000007"><a xlink:title=" ">
<path fill="none" stroke="#63b8ff" d="M655.16,-109.82C664.02,-95.75 683.57,-68.21 708,-55 744.79,-35.1 857.67,-21.73 926.53,-15.18"/>
<polygon fill="#63b8ff" stroke="#63b8ff" points="927.14,-18.64 936.78,-14.22 926.49,-11.67 927.14,-18.64"/>
</a>
</g>
</g>
<!-- Node8&#45;&gt;Node9 -->
<g id="edge10_Node000008_Node000009" class="edge">
<title>Node8&#45;&gt;Node9</title>
<g id="a_edge10_Node000008_Node000009"><a xlink:title=" ">
<path fill="none" stroke="#63b8ff" d="M632.97,-109.98C616.07,-101.54 589.94,-88.47 570.36,-78.68"/>
<polygon fill="#63b8ff" stroke="#63b8ff" points="571.85,-75.51 561.34,-74.17 568.72,-81.77 571.85,-75.51"/>
</a>
</g>
</g>
<!-- Node10 -->
<g id="Node000010" class="node">
<title>Node10</title>
<g id="a_Node000010"><a xlink:title=" ">
<polygon fill="#e0e0e0" stroke="#999999" points="580,-19 508,-19 508,0 580,0 580,-19"/>
<text text-anchor="middle" x="544" y="-7" font-family="Helvetica,sans-Serif" font-size="10.00">sys/types.h</text>
</a>
</g>
</g>
<!-- Node9&#45;&gt;Node10 -->
<g id="edge11_Node000009_Node000010" class="edge">
<title>Node9&#45;&gt;Node10</title>
<g id="a_edge11_Node000009_Node000010"><a xlink:title=" ">
<path fill="none" stroke="#63b8ff" d="M544,-54.75C544,-47.8 544,-37.85 544,-29.13"/>
<polygon fill="#63b8ff" stroke="#63b8ff" points="547.5,-29.09 544,-19.09 540.5,-29.09 547.5,-29.09"/>
</a>
</g>
</g>
<!-- Node11&#45;&gt;Node7 -->
<g id="edge15_Node000011_Node000007" class="edge">
<title>Node11&#45;&gt;Node7</title>
<g id="a_edge15_Node000011_Node000007"><a xlink:title=" ">
<path fill="none" stroke="#63b8ff" d="M394.47,-164.95C409.51,-142.29 454.07,-80.62 509,-55 546.1,-37.7 810.07,-20.47 926.76,-13.61"/>
<polygon fill="#63b8ff" stroke="#63b8ff" points="927.14,-17.09 936.91,-13.01 926.73,-10.1 927.14,-17.09"/>
</a>
</g>
</g>
<!-- Node12 -->
<g id="Node000012" class="node">
<title>Node12</title>
<g id="a_Node000012"><a xlink:href="tstring_8h.html" target="_top" xlink:title=" ">
<polygon fill="white" stroke="#666666" points="953.5,-129 896.5,-129 896.5,-110 953.5,-110 953.5,-129"/>
<text text-anchor="middle" x="925" y="-117" font-family="Helvetica,sans-Serif" font-size="10.00">tstring.h</text>
</a>
</g>
</g>
<!-- Node11&#45;&gt;Node12 -->
<g id="edge16_Node000011_Node000012" class="edge">
<title>Node11&#45;&gt;Node12</title>
<g id="a_edge16_Node000011_Node000012"><a xlink:title=" ">
<path fill="none" stroke="#63b8ff" d="M409.56,-172.68C476.76,-169.77 696.07,-158.63 886.49,-129.04"/>
<polygon fill="#63b8ff" stroke="#63b8ff" points="887.06,-132.49 896.39,-127.48 885.97,-125.58 887.06,-132.49"/>
</a>
</g>
</g>
<!-- Node14 -->
<g id="Node000014" class="node">
<title>Node14</title>
<g id="a_Node000014"><a xlink:href="tlist_8h.html" target="_top" xlink:title=" ">
<polygon fill="white" stroke="#666666" points="349,-74 305,-74 305,-55 349,-55 349,-74"/>
<text text-anchor="middle" x="327" y="-62" font-family="Helvetica,sans-Serif" font-size="10.00">tlist.h</text>
</a>
</g>
</g>
<!-- Node11&#45;&gt;Node14 -->
<g id="edge20_Node000011_Node000014" class="edge">
<title>Node11&#45;&gt;Node14</title>
<g id="a_edge20_Node000011_Node000014"><a xlink:title=" ">
<path fill="none" stroke="#63b8ff" d="M383.93,-164.66C373.7,-146.85 350.46,-106.37 337.05,-83.01"/>
<polygon fill="#63b8ff" stroke="#63b8ff" points="339.98,-81.09 331.97,-74.16 333.91,-84.57 339.98,-81.09"/>
</a>
</g>
</g>
<!-- Node18 -->
<g id="Node000018" class="node">
<title>Node18</title>
<g id="a_Node000018"><a xlink:href="tvariant_8h.html" target="_top" xlink:title=" ">
<polygon fill="white" stroke="#666666" points="247,-129 183,-129 183,-110 247,-110 247,-129"/>
<text text-anchor="middle" x="215" y="-117" font-family="Helvetica,sans-Serif" font-size="10.00">tvariant.h</text>
</a>
</g>
</g>
<!-- Node11&#45;&gt;Node18 -->
<g id="edge25_Node000011_Node000018" class="edge">
<title>Node11&#45;&gt;Node18</title>
<g id="a_edge25_Node000011_Node000018"><a xlink:title=" ">
<path fill="none" stroke="#63b8ff" d="M368.36,-167.21C340.01,-158.58 288.52,-142.89 253.07,-132.1"/>
<polygon fill="#63b8ff" stroke="#63b8ff" points="253.67,-128.62 243.09,-129.05 251.63,-135.32 253.67,-128.62"/>
</a>
</g>
</g>
<!-- Node12&#45;&gt;Node3 -->
<g id="edge18_Node000012_Node000003" class="edge">
<title>Node12&#45;&gt;Node3</title>
<g id="a_edge18_Node000012_Node000003"><a xlink:title=" ">
<path fill="none" stroke="#63b8ff" d="M898.01,-109.98C869.8,-101.09 825.36,-87.07 793.92,-77.15"/>
<polygon fill="#63b8ff" stroke="#63b8ff" points="794.79,-73.75 784.2,-74.08 792.69,-80.43 794.79,-73.75"/>
</a>
</g>
</g>
<!-- Node12&#45;&gt;Node7 -->
<g id="edge19_Node000012_Node000007" class="edge">
<title>Node12&#45;&gt;Node7</title>
<g id="a_edge19_Node000012_Node000007"><a xlink:title=" ">
<path fill="none" stroke="#63b8ff" d="M929.66,-109.66C939.06,-91.85 960.43,-51.37 972.76,-28.01"/>
<polygon fill="#63b8ff" stroke="#63b8ff" points="975.86,-29.64 977.43,-19.16 969.67,-26.37 975.86,-29.64"/>
</a>
</g>
</g>
<!-- Node13 -->
<g id="Node000013" class="node">
<title>Node13</title>
<g id="a_Node000013"><a xlink:title=" ">
<polygon fill="#e0e0e0" stroke="#999999" points="916,-74 872,-74 872,-55 916,-55 916,-74"/>
<text text-anchor="middle" x="894" y="-62" font-family="Helvetica,sans-Serif" font-size="10.00">string</text>
</a>
</g>
</g>
<!-- Node12&#45;&gt;Node13 -->
<g id="edge17_Node000012_Node000013" class="edge">
<title>Node12&#45;&gt;Node13</title>
<g id="a_edge17_Node000012_Node000013"><a xlink:title=" ">
<path fill="none" stroke="#63b8ff" d="M919.88,-109.75C915.64,-102.49 909.47,-91.95 904.22,-82.98"/>
<polygon fill="#63b8ff" stroke="#63b8ff" points="907.09,-80.95 899.02,-74.09 901.05,-84.49 907.09,-80.95"/>
</a>
</g>
</g>
<!-- Node14&#45;&gt;Node4 -->
<g id="edge23_Node000014_Node000004" class="edge">
<title>Node14&#45;&gt;Node4</title>
<g id="a_edge23_Node000014_Node000004"><a xlink:title=" ">
<path fill="none" stroke="#63b8ff" d="M346.44,-54.98C365.99,-46.42 396.38,-33.11 418.82,-23.28"/>
<polygon fill="#63b8ff" stroke="#63b8ff" points="420.45,-26.39 428.21,-19.17 417.64,-19.98 420.45,-26.39"/>
</a>
</g>
</g>
<!-- Node15 -->
<g id="Node000015" class="node">
<title>Node15</title>
<g id="a_Node000015"><a xlink:title=" ">
<polygon fill="#e0e0e0" stroke="#999999" points="401,-19 369,-19 369,0 401,0 401,-19"/>
<text text-anchor="middle" x="385" y="-7" font-family="Helvetica,sans-Serif" font-size="10.00">list</text>
</a>
</g>
</g>
<!-- Node14&#45;&gt;Node15 -->
<g id="edge21_Node000014_Node000015" class="edge">
<title>Node14&#45;&gt;Node15</title>
<g id="a_edge21_Node000014_Node000015"><a xlink:title=" ">
<path fill="none" stroke="#63b8ff" d="M336.32,-54.98C344.81,-47.23 357.56,-35.58 367.88,-26.14"/>
<polygon fill="#63b8ff" stroke="#63b8ff" points="370.49,-28.5 375.51,-19.17 365.77,-23.33 370.49,-28.5"/>
</a>
</g>
</g>
<!-- Node16 -->
<g id="Node000016" class="node">
<title>Node16</title>
<g id="a_Node000016"><a xlink:title=" ">
<polygon fill="#e0e0e0" stroke="#999999" points="279.5,-19 196.5,-19 196.5,0 279.5,0 279.5,-19"/>
<text text-anchor="middle" x="238" y="-7" font-family="Helvetica,sans-Serif" font-size="10.00">initializer_list</text>
</a>
</g>
</g>
<!-- Node14&#45;&gt;Node16 -->
<g id="edge22_Node000014_Node000016" class="edge">
<title>Node14&#45;&gt;Node16</title>
<g id="a_edge22_Node000014_Node000016"><a xlink:title=" ">
<path fill="none" stroke="#63b8ff" d="M312.7,-54.98C298.9,-46.77 277.76,-34.18 261.49,-24.49"/>
<polygon fill="#63b8ff" stroke="#63b8ff" points="262.94,-21.28 252.56,-19.17 259.36,-27.29 262.94,-21.28"/>
</a>
</g>
</g>
<!-- Node17 -->
<g id="Node000017" class="node">
<title>Node17</title>
<g id="a_Node000017"><a xlink:title=" ">
<polygon fill="#e0e0e0" stroke="#999999" points="350.5,-19 297.5,-19 297.5,0 350.5,0 350.5,-19"/>
<text text-anchor="middle" x="324" y="-7" font-family="Helvetica,sans-Serif" font-size="10.00">tlist.tcc</text>
</a>
</g>
</g>
<!-- Node14&#45;&gt;Node17 -->
<g id="edge24_Node000014_Node000017" class="edge">
<title>Node14&#45;&gt;Node17</title>
<g id="a_edge24_Node000014_Node000017"><a xlink:title=" ">
<path fill="none" stroke="#63b8ff" d="M326.5,-54.75C326.11,-47.8 325.55,-37.85 325.05,-29.13"/>
<polygon fill="#63b8ff" stroke="#63b8ff" points="328.55,-28.88 324.49,-19.09 321.56,-29.27 328.55,-28.88"/>
</a>
</g>
</g>
<!-- Node18&#45;&gt;Node7 -->
<g id="edge34_Node000018_Node000007" class="edge">
<title>Node18&#45;&gt;Node7</title>
<g id="a_edge34_Node000018_Node000007"><a xlink:title=" ">
<path fill="none" stroke="#63b8ff" d="M222.47,-109.98C235.64,-95.61 264.62,-66.99 296,-55 310.69,-49.39 766.1,-22.86 926.65,-13.65"/>
<polygon fill="#63b8ff" stroke="#63b8ff" points="927.01,-17.14 936.79,-13.07 926.61,-10.15 927.01,-17.14"/>
</a>
</g>
</g>
<!-- Node18&#45;&gt;Node14 -->
<g id="edge27_Node000018_Node000014" class="edge">
<title>Node18&#45;&gt;Node14</title>
<g id="a_edge27_Node000018_Node000014"><a xlink:title=" ">
<path fill="none" stroke="#63b8ff" d="M232.99,-109.98C250.93,-101.5 278.72,-88.35 299.43,-78.54"/>
<polygon fill="#63b8ff" stroke="#63b8ff" points="301.14,-81.61 308.68,-74.17 298.14,-75.28 301.14,-81.61"/>
</a>
</g>
</g>
<!-- Node19 -->
<g id="Node000019" class="node">
<title>Node19</title>
<g id="a_Node000019"><a xlink:title=" ">
<polygon fill="#e0e0e0" stroke="#999999" points="249,-74 193,-74 193,-55 249,-55 249,-74"/>
<text text-anchor="middle" x="221" y="-62" font-family="Helvetica,sans-Serif" font-size="10.00">sstream</text>
</a>
</g>
</g>
<!-- Node18&#45;&gt;Node19 -->
<g id="edge26_Node000018_Node000019" class="edge">
<title>Node18&#45;&gt;Node19</title>
<g id="a_edge26_Node000018_Node000019"><a xlink:title=" ">
<path fill="none" stroke="#63b8ff" d="M215.99,-109.75C216.78,-102.8 217.9,-92.85 218.89,-84.13"/>
<polygon fill="#63b8ff" stroke="#63b8ff" points="222.38,-84.42 220.03,-74.09 215.42,-83.63 222.38,-84.42"/>
</a>
</g>
</g>
<!-- Node20 -->
<g id="Node000020" class="node">
<title>Node20</title>
<g id="a_Node000020"><a xlink:href="tmap_8h.html" target="_top" xlink:title=" ">
<polygon fill="white" stroke="#666666" points="174.5,-74 123.5,-74 123.5,-55 174.5,-55 174.5,-74"/>
<text text-anchor="middle" x="149" y="-62" font-family="Helvetica,sans-Serif" font-size="10.00">tmap.h</text>
</a>
</g>
</g>
<!-- Node18&#45;&gt;Node20 -->
<g id="edge28_Node000018_Node000020" class="edge">
<title>Node18&#45;&gt;Node20</title>
<g id="a_edge28_Node000018_Node000020"><a xlink:title=" ">
<path fill="none" stroke="#63b8ff" d="M204.4,-109.98C194.54,-102.07 179.65,-90.11 167.78,-80.58"/>
<polygon fill="#63b8ff" stroke="#63b8ff" points="169.79,-77.7 159.8,-74.17 165.4,-83.16 169.79,-77.7"/>
</a>
</g>
</g>
<!-- Node20&#45;&gt;Node4 -->
<g id="edge30_Node000020_Node000004" class="edge">
<title>Node20&#45;&gt;Node4</title>
<g id="a_edge30_Node000020_Node000004"><a xlink:title=" ">
<path fill="none" stroke="#63b8ff" d="M174.56,-57.04C177.73,-56.31 180.93,-55.62 184,-55 280.61,-35.61 308.38,-37.94 409.02,-19.08"/>
<polygon fill="#63b8ff" stroke="#63b8ff" points="409.82,-22.49 418.99,-17.18 408.52,-15.61 409.82,-22.49"/>
</a>
</g>
</g>
<!-- Node20&#45;&gt;Node16 -->
<g id="edge31_Node000020_Node000016" class="edge">
<title>Node20&#45;&gt;Node16</title>
<g id="a_edge31_Node000020_Node000016"><a xlink:title=" ">
<path fill="none" stroke="#63b8ff" d="M163.3,-54.98C177.1,-46.77 198.24,-34.18 214.51,-24.49"/>
<polygon fill="#63b8ff" stroke="#63b8ff" points="216.64,-27.29 223.44,-19.17 213.06,-21.28 216.64,-27.29"/>
</a>
</g>
</g>
<!-- Node21 -->
<g id="Node000021" class="node">
<title>Node21</title>
<g id="a_Node000021"><a xlink:title=" ">
<polygon fill="#e0e0e0" stroke="#999999" points="38,-19 0,-19 0,0 38,0 38,-19"/>
<text text-anchor="middle" x="19" y="-7" font-family="Helvetica,sans-Serif" font-size="10.00">map</text>
</a>
</g>
</g>
<!-- Node20&#45;&gt;Node21 -->
<g id="edge29_Node000020_Node000021" class="edge">
<title>Node20&#45;&gt;Node21</title>
<g id="a_edge29_Node000020_Node000021"><a xlink:title=" ">
<path fill="none" stroke="#63b8ff" d="M128.11,-54.98C106.29,-46.09 71.9,-32.07 47.56,-22.15"/>
<polygon fill="#63b8ff" stroke="#63b8ff" points="48.72,-18.84 38.14,-18.3 46.08,-25.32 48.72,-18.84"/>
</a>
</g>
</g>
<!-- Node22 -->
<g id="Node000022" class="node">
<title>Node22</title>
<g id="a_Node000022"><a xlink:title=" ">
<polygon fill="#e0e0e0" stroke="#999999" points="101.5,-19 56.5,-19 56.5,0 101.5,0 101.5,-19"/>
<text text-anchor="middle" x="79" y="-7" font-family="Helvetica,sans-Serif" font-size="10.00">utility</text>
</a>
</g>
</g>
<!-- Node20&#45;&gt;Node22 -->
<g id="edge32_Node000020_Node000022" class="edge">
<title>Node20&#45;&gt;Node22</title>
<g id="a_edge32_Node000020_Node000022"><a xlink:title=" ">
<path fill="none" stroke="#63b8ff" d="M137.75,-54.98C127.2,-47 111.2,-34.88 98.56,-25.31"/>
<polygon fill="#63b8ff" stroke="#63b8ff" points="100.54,-22.42 90.45,-19.17 96.31,-28 100.54,-22.42"/>
</a>
</g>
</g>
<!-- Node23 -->
<g id="Node000023" class="node">
<title>Node23</title>
<g id="a_Node000023"><a xlink:title=" ">
<polygon fill="#e0e0e0" stroke="#999999" points="178.5,-19 119.5,-19 119.5,0 178.5,0 178.5,-19"/>
<text text-anchor="middle" x="149" y="-7" font-family="Helvetica,sans-Serif" font-size="10.00">tmap.tcc</text>
</a>
</g>
</g>
<!-- Node20&#45;&gt;Node23 -->
<g id="edge33_Node000020_Node000023" class="edge">
<title>Node20&#45;&gt;Node23</title>
<g id="a_edge33_Node000020_Node000023"><a xlink:title=" ">
<path fill="none" stroke="#63b8ff" d="M149,-54.75C149,-47.8 149,-37.85 149,-29.13"/>
<polygon fill="#63b8ff" stroke="#63b8ff" points="152.5,-29.09 149,-19.09 145.5,-29.09 152.5,-29.09"/>
</a>
</g>
</g>
<!-- Node24&#45;&gt;Node2 -->
<g id="edge37_Node000024_Node000002" class="edge">
<title>Node24&#45;&gt;Node2</title>
<g id="a_edge37_Node000024_Node000002"><a xlink:title=" ">
<path fill="none" stroke="#63b8ff" d="M641.96,-439.95C634.31,-407.88 607.19,-294.2 596.44,-249.12"/>
<polygon fill="#63b8ff" stroke="#63b8ff" points="599.81,-248.14 594.08,-239.22 593,-249.76 599.81,-248.14"/>
</a>
</g>
</g>
<!-- Node24&#45;&gt;Node7 -->
<g id="edge47_Node000024_Node000007" class="edge">
<title>Node24&#45;&gt;Node7</title>
<g id="a_edge47_Node000024_Node000007"><a xlink:title=" ">
<path fill="none" stroke="#63b8ff" d="M675.59,-447.76C770.07,-445.22 1049.22,-435.19 1134,-404 1179.94,-387.1 1224,-389.45 1224,-340.5 1224,-340.5 1224,-340.5 1224,-118.5 1224,-37.27 1108.88,-16.71 1037.44,-11.78"/>
<polygon fill="#63b8ff" stroke="#63b8ff" points="1037.43,-8.27 1027.23,-11.16 1037,-15.26 1037.43,-8.27"/>
</a>
</g>
</g>
<!-- Node24&#45;&gt;Node11 -->
<g id="edge48_Node000024_Node000011" class="edge">
<title>Node24&#45;&gt;Node11</title>
<g id="a_edge48_Node000024_Node000011"><a xlink:title=" ">
<path fill="none" stroke="#63b8ff" d="M635.74,-439.98C627.07,-431.04 613.06,-416.55 601,-404 554.18,-355.25 541.99,-343.53 496,-294 462.41,-257.82 423.76,-214.62 403.35,-191.68"/>
<polygon fill="#63b8ff" stroke="#63b8ff" points="405.96,-189.35 396.71,-184.2 400.73,-194 405.96,-189.35"/>
</a>
</g>
</g>
<!-- Node24&#45;&gt;Node20 -->
<g id="edge38_Node000024_Node000020" class="edge">
<title>Node24&#45;&gt;Node20</title>
<g id="a_edge38_Node000024_Node000020"><a xlink:title=" ">
<path fill="none" stroke="#63b8ff" d="M623.36,-439.98C551.1,-409.17 306.7,-296.39 174,-129 163.53,-115.8 156.98,-97.67 153.22,-84.17"/>
<polygon fill="#63b8ff" stroke="#63b8ff" points="156.53,-82.96 150.7,-74.11 149.74,-84.67 156.53,-82.96"/>
</a>
</g>
</g>
<!-- Node25 -->
<g id="Node000025" class="node">
<title>Node25</title>
<g id="a_Node000025"><a xlink:href="tstringlist_8h.html" target="_top" xlink:title=" ">
<polygon fill="white" stroke="#666666" points="936,-184 864,-184 864,-165 936,-165 936,-184"/>
<text text-anchor="middle" x="900" y="-172" font-family="Helvetica,sans-Serif" font-size="10.00">tstringlist.h</text>
</a>
</g>
</g>
<!-- Node24&#45;&gt;Node25 -->
<g id="edge39_Node000024_Node000025" class="edge">
<title>Node24&#45;&gt;Node25</title>
<g id="a_edge39_Node000024_Node000025"><a xlink:title=" ">
<path fill="none" stroke="#63b8ff" d="M675.74,-446.21C733.52,-440.13 850,-418.23 850,-340.5 850,-340.5 850,-340.5 850,-283.5 850,-248.56 871.82,-212.66 886.63,-192.31"/>
<polygon fill="#63b8ff" stroke="#63b8ff" points="889.59,-194.2 892.84,-184.11 884.01,-189.97 889.59,-194.2"/>
</a>
</g>
</g>
<!-- Node27 -->
<g id="Node000027" class="node">
<title>Node27</title>
<g id="a_Node000027"><a xlink:href="mp4atom_8h.html" target="_top" xlink:title=" ">
<polygon fill="white" stroke="#666666" points="577.5,-294 504.5,-294 504.5,-275 577.5,-275 577.5,-294"/>
<text text-anchor="middle" x="541" y="-282" font-family="Helvetica,sans-Serif" font-size="10.00">mp4atom.h</text>
</a>
</g>
</g>
<!-- Node24&#45;&gt;Node27 -->
<g id="edge49_Node000024_Node000027" class="edge">
<title>Node24&#45;&gt;Node27</title>
<g id="a_edge49_Node000024_Node000027"><a xlink:title=" ">
<path fill="none" stroke="#63b8ff" d="M638.46,-439.74C622.12,-413.87 573.85,-337.48 551.98,-302.88"/>
<polygon fill="#63b8ff" stroke="#63b8ff" points="554.87,-300.89 546.57,-294.31 548.95,-304.63 554.87,-300.89"/>
</a>
</g>
</g>
<!-- Node28 -->
<g id="Node000028" class="node">
<title>Node28</title>
<g id="a_Node000028"><a xlink:href="mp4item_8h.html" target="_top" xlink:title=" ">
<polygon fill="white" stroke="#666666" points="1125,-404 1055,-404 1055,-385 1125,-385 1125,-404"/>
<text text-anchor="middle" x="1090" y="-392" font-family="Helvetica,sans-Serif" font-size="10.00">mp4item.h</text>
</a>
</g>
</g>
<!-- Node24&#45;&gt;Node28 -->
<g id="edge52_Node000024_Node000028" class="edge">
<title>Node24&#45;&gt;Node28</title>
<g id="a_edge52_Node000024_Node000028"><a xlink:title=" ">
<path fill="none" stroke="#63b8ff" d="M675.72,-444.73C753.61,-435.47 954.53,-411.6 1044.85,-400.87"/>
<polygon fill="#63b8ff" stroke="#63b8ff" points="1045.27,-404.34 1054.78,-399.68 1044.44,-397.39 1045.27,-404.34"/>
</a>
</g>
</g>
<!-- Node25&#45;&gt;Node7 -->
<g id="edge46_Node000025_Node000007" class="edge">
<title>Node25&#45;&gt;Node7</title>
<g id="a_edge46_Node000025_Node000007"><a xlink:title=" ">
<path fill="none" stroke="#63b8ff" d="M919.47,-164.95C933.88,-157.57 952.73,-145.48 963,-129 982.32,-98.01 984.09,-53.92 983.29,-29.19"/>
<polygon fill="#63b8ff" stroke="#63b8ff" points="986.77,-28.83 982.77,-19.02 979.78,-29.18 986.77,-28.83"/>
</a>
</g>
</g>
<!-- Node25&#45;&gt;Node12 -->
<g id="edge40_Node000025_Node000012" class="edge">
<title>Node25&#45;&gt;Node12</title>
<g id="a_edge40_Node000025_Node000012"><a xlink:title=" ">
<path fill="none" stroke="#63b8ff" d="M904.13,-164.75C907.51,-157.57 912.42,-147.18 916.62,-138.27"/>
<polygon fill="#63b8ff" stroke="#63b8ff" points="919.85,-139.63 920.95,-129.09 913.52,-136.64 919.85,-139.63"/>
</a>
</g>
</g>
<!-- Node25&#45;&gt;Node14 -->
<g id="edge41_Node000025_Node000014" class="edge">
<title>Node25&#45;&gt;Node14</title>
<g id="a_edge41_Node000025_Node000014"><a xlink:title=" ">
<path fill="none" stroke="#63b8ff" d="M863.8,-172.99C790.85,-171.22 621.39,-163.42 484,-129 436.13,-117.01 383.55,-93.45 353.01,-78.64"/>
<polygon fill="#63b8ff" stroke="#63b8ff" points="354.42,-75.43 343.9,-74.17 351.33,-81.72 354.42,-75.43"/>
</a>
</g>
</g>
<!-- Node26 -->
<g id="Node000026" class="node">
<title>Node26</title>
<g id="a_Node000026"><a xlink:href="tbytevectorlist_8h.html" target="_top" xlink:title=" ">
<polygon fill="white" stroke="#666666" points="878.5,-129 781.5,-129 781.5,-110 878.5,-110 878.5,-129"/>
<text text-anchor="middle" x="830" y="-117" font-family="Helvetica,sans-Serif" font-size="10.00">tbytevectorlist.h</text>
</a>
</g>
</g>
<!-- Node25&#45;&gt;Node26 -->
<g id="edge42_Node000025_Node000026" class="edge">
<title>Node25&#45;&gt;Node26</title>
<g id="a_edge42_Node000025_Node000026"><a xlink:title=" ">
<path fill="none" stroke="#63b8ff" d="M888.75,-164.98C878.2,-157 862.2,-144.88 849.56,-135.31"/>
<polygon fill="#63b8ff" stroke="#63b8ff" points="851.54,-132.42 841.45,-129.17 847.31,-138 851.54,-132.42"/>
</a>
</g>
</g>
<!-- Node26&#45;&gt;Node3 -->
<g id="edge43_Node000026_Node000003" class="edge">
<title>Node26&#45;&gt;Node3</title>
<g id="a_edge43_Node000026_Node000003"><a xlink:title=" ">
<path fill="none" stroke="#63b8ff" d="M818.27,-109.98C807.27,-102 790.58,-89.88 777.4,-80.31"/>
<polygon fill="#63b8ff" stroke="#63b8ff" points="779.09,-77.21 768.94,-74.17 774.98,-82.88 779.09,-77.21"/>
</a>
</g>
</g>
<!-- Node26&#45;&gt;Node7 -->
<g id="edge45_Node000026_Node000007" class="edge">
<title>Node26&#45;&gt;Node7</title>
<g id="a_edge45_Node000026_Node000007"><a xlink:title=" ">
<path fill="none" stroke="#63b8ff" d="M832.3,-109.85C836.32,-96.33 845.88,-70.15 863,-55 881.04,-39.02 905.36,-28.58 927.32,-21.85"/>
<polygon fill="#63b8ff" stroke="#63b8ff" points="928.55,-25.14 937.2,-19.02 926.63,-18.41 928.55,-25.14"/>
</a>
</g>
</g>
<!-- Node26&#45;&gt;Node14 -->
<g id="edge44_Node000026_Node000014" class="edge">
<title>Node26&#45;&gt;Node14</title>
<g id="a_edge44_Node000026_Node000014"><a xlink:title=" ">
<path fill="none" stroke="#63b8ff" d="M781.31,-113.37C679.17,-102.61 444.88,-77.92 359.17,-68.89"/>
<polygon fill="#63b8ff" stroke="#63b8ff" points="359.32,-65.39 349.01,-67.82 358.59,-72.35 359.32,-65.39"/>
</a>
</g>
</g>
<!-- Node27&#45;&gt;Node2 -->
<g id="edge50_Node000027_Node000002" class="edge">
<title>Node27&#45;&gt;Node2</title>
<g id="a_edge50_Node000027_Node000002"><a xlink:title=" ">
<path fill="none" stroke="#63b8ff" d="M549.42,-274.75C556.77,-267.11 567.63,-255.82 576.54,-246.56"/>
<polygon fill="#63b8ff" stroke="#63b8ff" points="579.32,-248.72 583.74,-239.09 574.28,-243.87 579.32,-248.72"/>
</a>
</g>
</g>
<!-- Node27&#45;&gt;Node14 -->
<g id="edge51_Node000027_Node000014" class="edge">
<title>Node27&#45;&gt;Node14</title>
<g id="a_edge51_Node000027_Node000014"><a xlink:title=" ">
<path fill="none" stroke="#63b8ff" d="M504.34,-280.66C466.39,-276.35 406.54,-265.6 362,-239 313.63,-210.12 305.52,-184.96 299,-129 298.02,-120.61 296.66,-118.11 299,-110 301.87,-100.06 307.68,-90.2 313.28,-82.29"/>
<polygon fill="#63b8ff" stroke="#63b8ff" points="316.08,-84.39 319.33,-74.3 310.5,-80.16 316.08,-84.39"/>
</a>
</g>
</g>
<!-- Node28&#45;&gt;Node7 -->
<g id="edge54_Node000028_Node000007" class="edge">
<title>Node28&#45;&gt;Node7</title>
<g id="a_edge54_Node000028_Node000007"><a xlink:title=" ">
<path fill="none" stroke="#63b8ff" d="M1106.29,-384.92C1133.67,-369.18 1186,-332.91 1186,-285.5 1186,-285.5 1186,-285.5 1186,-118.5 1186,-50.98 1097.62,-25.55 1037.2,-16.06"/>
<polygon fill="#63b8ff" stroke="#63b8ff" points="1037.42,-12.56 1027.02,-14.57 1036.41,-19.48 1037.42,-12.56"/>
</a>
</g>
</g>
<!-- Node28&#45;&gt;Node25 -->
<g id="edge53_Node000028_Node000025" class="edge">
<title>Node28&#45;&gt;Node25</title>
<g id="a_edge53_Node000028_Node000025"><a xlink:title=" ">
<path fill="none" stroke="#63b8ff" d="M1082.55,-384.95C1054.12,-352.33 952.14,-235.32 914.28,-191.88"/>
<polygon fill="#63b8ff" stroke="#63b8ff" points="916.81,-189.46 907.6,-184.22 911.54,-194.06 916.81,-189.46"/>
</a>
</g>
</g>
<!-- Node29 -->
<g id="Node000029" class="node">
<title>Node29</title>
<g id="a_Node000029"><a xlink:href="mp4coverart_8h.html" target="_top" xlink:title=" ">
<polygon fill="white" stroke="#666666" points="797,-349 709,-349 709,-330 797,-330 797,-349"/>
<text text-anchor="middle" x="753" y="-337" font-family="Helvetica,sans-Serif" font-size="10.00">mp4coverart.h</text>
</a>
</g>
</g>
<!-- Node28&#45;&gt;Node29 -->
<g id="edge55_Node000028_Node000029" class="edge">
<title>Node28&#45;&gt;Node29</title>
<g id="a_edge55_Node000028_Node000029"><a xlink:title=" ">
<path fill="none" stroke="#63b8ff" d="M1054.89,-387.98C995.92,-378.7 876.62,-359.94 806.94,-348.98"/>
<polygon fill="#63b8ff" stroke="#63b8ff" points="807.46,-345.52 797.04,-347.43 806.37,-352.44 807.46,-345.52"/>
</a>
</g>
</g>
<!-- Node30 -->
<g id="Node000030" class="node">
<title>Node30</title>
<g id="a_Node000030"><a xlink:href="mp4stem_8h.html" target="_top" xlink:title=" ">
<polygon fill="white" stroke="#666666" points="1158,-129 1086,-129 1086,-110 1158,-110 1158,-129"/>
<text text-anchor="middle" x="1122" y="-117" font-family="Helvetica,sans-Serif" font-size="10.00">mp4stem.h</text>
</a>
</g>
</g>
<!-- Node28&#45;&gt;Node30 -->
<g id="edge60_Node000028_Node000030" class="edge">
<title>Node28&#45;&gt;Node30</title>
<g id="a_edge60_Node000028_Node000030"><a xlink:title=" ">
<path fill="none" stroke="#63b8ff" d="M1095.28,-384.9C1105.73,-367.07 1128,-324.46 1128,-285.5 1128,-285.5 1128,-285.5 1128,-228.5 1128,-197.14 1125.45,-160.74 1123.67,-139.22"/>
<polygon fill="#63b8ff" stroke="#63b8ff" points="1127.15,-138.83 1122.81,-129.17 1120.18,-139.43 1127.15,-138.83"/>
</a>
</g>
</g>
<!-- Node29&#45;&gt;Node3 -->
<g id="edge57_Node000029_Node000003" class="edge">
<title>Node29&#45;&gt;Node3</title>
<g id="a_edge57_Node000029_Node000003"><a xlink:title=" ">
<path fill="none" stroke="#63b8ff" d="M753,-329.82C753,-311.48 753,-267.44 753,-230.5 753,-230.5 753,-230.5 753,-173.5 753,-142.17 754.7,-105.76 755.89,-84.23"/>
<polygon fill="#63b8ff" stroke="#63b8ff" points="759.38,-84.36 756.46,-74.18 752.4,-83.96 759.38,-84.36"/>
</a>
</g>
</g>
<!-- Node29&#45;&gt;Node7 -->
<g id="edge58_Node000029_Node000007" class="edge">
<title>Node29&#45;&gt;Node7</title>
<g id="a_edge58_Node000029_Node000007"><a xlink:title=" ">
<path fill="none" stroke="#63b8ff" d="M769.43,-329.93C808.14,-309.13 906.58,-252.59 970,-184 1010.75,-139.93 1026.64,-112.68 1010,-55 1007.13,-45.06 1001.32,-35.2 995.72,-27.29"/>
<polygon fill="#63b8ff" stroke="#63b8ff" points="998.5,-25.16 989.67,-19.3 992.92,-29.39 998.5,-25.16"/>
</a>
</g>
</g>
<!-- Node29&#45;&gt;Node14 -->
<g id="edge56_Node000029_Node000014" class="edge">
<title>Node29&#45;&gt;Node14</title>
<g id="a_edge56_Node000029_Node000014"><a xlink:title=" ">
<path fill="none" stroke="#63b8ff" d="M730.9,-329.99C648.31,-298.15 362.35,-187.75 359,-184 333.85,-155.92 328.18,-110.06 327.07,-84.4"/>
<polygon fill="#63b8ff" stroke="#63b8ff" points="330.57,-84.09 326.83,-74.17 323.57,-84.25 330.57,-84.09"/>
</a>
</g>
</g>
<!-- Node29&#45;&gt;Node27 -->
<g id="edge59_Node000029_Node000027" class="edge">
<title>Node29&#45;&gt;Node27</title>
<g id="a_edge59_Node000029_Node000027"><a xlink:title=" ">
<path fill="none" stroke="#63b8ff" d="M718.94,-329.98C682.58,-320.89 624.83,-306.46 585.03,-296.51"/>
<polygon fill="#63b8ff" stroke="#63b8ff" points="585.88,-293.11 575.33,-294.08 584.18,-299.9 585.88,-293.11"/>
</a>
</g>
</g>
<!-- Node30&#45;&gt;Node3 -->
<g id="edge61_Node000030_Node000003" class="edge">
<title>Node30&#45;&gt;Node3</title>
<g id="a_edge61_Node000030_Node000003"><a xlink:title=" ">
<path fill="none" stroke="#63b8ff" d="M1085.67,-113.22C1020.23,-103.72 882.42,-83.71 807.72,-72.86"/>
<polygon fill="#63b8ff" stroke="#63b8ff" points="808.01,-69.37 797.61,-71.4 807,-76.3 808.01,-69.37"/>
</a>
</g>
</g>
<!-- Node30&#45;&gt;Node7 -->
<g id="edge62_Node000030_Node000007" class="edge">
<title>Node30&#45;&gt;Node7</title>
<g id="a_edge62_Node000030_Node000007"><a xlink:title=" ">
<path fill="none" stroke="#63b8ff" d="M1116.85,-109.68C1108.74,-96.4 1091.83,-71.09 1072,-55 1055.21,-41.38 1033.56,-30.51 1015.71,-22.93"/>
<polygon fill="#63b8ff" stroke="#63b8ff" points="1016.81,-19.6 1006.23,-19.05 1014.16,-26.08 1016.81,-19.6"/>
</a>
</g>
</g>
<!-- Node31&#45;&gt;Node7 -->
<g id="edge65_Node000031_Node000007" class="edge">
<title>Node31&#45;&gt;Node7</title>
<g id="a_edge65_Node000031_Node000007"><a xlink:title=" ">
<path fill="none" stroke="#63b8ff" d="M1299.18,-164.93C1293.98,-142.73 1276.86,-83.17 1238,-55 1206.71,-32.32 1102.63,-20.07 1037.21,-14.44"/>
<polygon fill="#63b8ff" stroke="#63b8ff" points="1037.32,-10.94 1027.06,-13.59 1036.74,-17.91 1037.32,-10.94"/>
</a>
</g>
</g>
<!-- Node32 -->
<g id="Node000032" class="node">
<title>Node32</title>
<g id="a_Node000032"><a xlink:href="audioproperties_8h.html" target="_top" xlink:title=" ">
<polygon fill="white" stroke="#666666" points="595,-129 493,-129 493,-110 595,-110 595,-129"/>
<text text-anchor="middle" x="544" y="-117" font-family="Helvetica,sans-Serif" font-size="10.00">audioproperties.h</text>
</a>
</g>
</g>
<!-- Node31&#45;&gt;Node32 -->
<g id="edge66_Node000031_Node000032" class="edge">
<title>Node31&#45;&gt;Node32</title>
<g id="a_edge66_Node000031_Node000032"><a xlink:title=" ">
<path fill="none" stroke="#63b8ff" d="M1252.38,-171.64C1140.32,-167.09 855.08,-153.96 605.22,-128.93"/>
<polygon fill="#63b8ff" stroke="#63b8ff" points="605.52,-125.44 595.22,-127.92 604.82,-132.41 605.52,-125.44"/>
</a>
</g>
</g>
<!-- Node32&#45;&gt;Node4 -->
<g id="edge67_Node000032_Node000004" class="edge">
<title>Node32&#45;&gt;Node4</title>
<g id="a_edge67_Node000032_Node000004"><a xlink:title=" ">
<path fill="none" stroke="#63b8ff" d="M536.14,-109.66C520.03,-91.54 483.03,-49.91 462.46,-26.77"/>
<polygon fill="#63b8ff" stroke="#63b8ff" points="464.96,-24.31 455.7,-19.16 459.72,-28.96 464.96,-24.31"/>
</a>
</g>
</g>
<!-- Node32&#45;&gt;Node7 -->
<g id="edge69_Node000032_Node000007" class="edge">
<title>Node32&#45;&gt;Node7</title>
<g id="a_edge69_Node000032_Node000007"><a xlink:title=" ">
<path fill="none" stroke="#63b8ff" d="M558.41,-109.97C582.51,-96.12 632.87,-68.9 679,-55 763.21,-29.62 865.12,-18.46 926.68,-13.74"/>
<polygon fill="#63b8ff" stroke="#63b8ff" points="927.23,-17.21 936.95,-12.98 926.72,-10.23 927.23,-17.21"/>
</a>
</g>
</g>
<!-- Node32&#45;&gt;Node9 -->
<g id="edge68_Node000032_Node000009" class="edge">
<title>Node32&#45;&gt;Node9</title>
<g id="a_edge68_Node000032_Node000009"><a xlink:title=" ">
<path fill="none" stroke="#63b8ff" d="M544,-109.75C544,-102.8 544,-92.85 544,-84.13"/>
<polygon fill="#63b8ff" stroke="#63b8ff" points="547.5,-84.09 544,-74.09 540.5,-84.09 547.5,-84.09"/>
</a>
</g>
</g>
</g>
</svg>
