<?xml version="1.0" encoding="UTF-8" standalone="no"?>
<!DOCTYPE svg PUBLIC "-//W3C//DTD SVG 1.1//EN"
 "http://www.w3.org/Graphics/SVG/1.1/DTD/svg11.dtd">
<!-- Generated by graphviz version 2.43.0 (0)
 -->
<!-- Title: mp4file.h Pages: 1 -->
<svg width="1265pt" height="532pt"
 viewBox="0.00 0.00 1264.50 532.00" xmlns="http://www.w3.org/2000/svg" xmlns:xlink="http://www.w3.org/1999/xlink">
<g id="graph0" class="graph" transform="scale(1 1) rotate(0) translate(4 528)">
<title>mp4file.h</title>
<polygon fill="white" stroke="transparent" points="-4,4 -4,-528 1260.5,-528 1260.5,4 -4,4"/>
<!-- Node1 -->
<g id="node1" class="node">
<title>Node1</title>
<g id="a_node1"><a xlink:title=" ">
<polygon fill="#bfbfbf" stroke="black" points="934.5,-504.5 934.5,-523.5 996.5,-523.5 996.5,-504.5 934.5,-504.5"/>
<text text-anchor="middle" x="965.5" y="-511.5" font-family="Helvetica,sans-Serif" font-size="10.00">mp4file.h</text>
</a>
</g>
</g>
<!-- Node2 -->
<g id="node2" class="node">
<title>Node2</title>
<g id="a_node2"><a xlink:href="tfile_8h.html" target="_top" xlink:title=" ">
<polygon fill="white" stroke="black" points="867.5,-224.5 867.5,-243.5 911.5,-243.5 911.5,-224.5 867.5,-224.5"/>
<text text-anchor="middle" x="889.5" y="-231.5" font-family="Helvetica,sans-Serif" font-size="10.00">tfile.h</text>
</a>
</g>
</g>
<!-- Node1&#45;&gt;Node2 -->
<g id="edge1" class="edge">
<title>Node1&#45;&gt;Node2</title>
<path fill="none" stroke="midnightblue" d="M965.5,-504.44C965.5,-485.94 965.5,-440.81 965.5,-403 965.5,-403 965.5,-403 965.5,-345 965.5,-305.28 931.54,-269.5 909.02,-250.15"/>
<polygon fill="midnightblue" stroke="midnightblue" points="910.98,-247.24 901.04,-243.57 906.52,-252.63 910.98,-247.24"/>
</g>
<!-- Node7 -->
<g id="node7" class="node">
<title>Node7</title>
<g id="a_node7"><a xlink:href="taglib__export_8h.html" target="_top" xlink:title=" ">
<polygon fill="white" stroke="black" points="776.5,-0.5 776.5,-19.5 866.5,-19.5 866.5,-0.5 776.5,-0.5"/>
<text text-anchor="middle" x="821.5" y="-7.5" font-family="Helvetica,sans-Serif" font-size="10.00">taglib_export.h</text>
</a>
</g>
</g>
<!-- Node1&#45;&gt;Node7 -->
<g id="edge35" class="edge">
<title>Node1&#45;&gt;Node7</title>
<path fill="none" stroke="midnightblue" d="M996.64,-508.05C1071.71,-495.23 1256.5,-458.09 1256.5,-403 1256.5,-403 1256.5,-403 1256.5,-121 1256.5,-43.59 994.3,-20.07 877.03,-13.43"/>
<polygon fill="midnightblue" stroke="midnightblue" points="877,-9.92 866.82,-12.87 876.62,-16.91 877,-9.92"/>
</g>
<!-- Node11 -->
<g id="node11" class="node">
<title>Node11</title>
<g id="a_node11"><a xlink:href="tag_8h.html" target="_top" xlink:title=" ">
<polygon fill="white" stroke="black" points="342,-168.5 342,-187.5 383,-187.5 383,-168.5 342,-168.5"/>
<text text-anchor="middle" x="362.5" y="-175.5" font-family="Helvetica,sans-Serif" font-size="10.00">tag.h</text>
</a>
</g>
</g>
<!-- Node1&#45;&gt;Node11 -->
<g id="edge60" class="edge">
<title>Node1&#45;&gt;Node11</title>
<path fill="none" stroke="midnightblue" d="M934.21,-511.49C797.38,-504.47 258.5,-472.41 258.5,-403 258.5,-403 258.5,-403 258.5,-289 258.5,-244.22 304.56,-210.32 335.38,-192.66"/>
<polygon fill="midnightblue" stroke="midnightblue" points="337.31,-195.59 344.38,-187.7 333.94,-189.46 337.31,-195.59"/>
</g>
<!-- Node23 -->
<g id="node23" class="node">
<title>Node23</title>
<g id="a_node23"><a xlink:href="mp4tag_8h.html" target="_top" xlink:title=" ">
<polygon fill="white" stroke="black" points="766,-448.5 766,-467.5 829,-467.5 829,-448.5 766,-448.5"/>
<text text-anchor="middle" x="797.5" y="-455.5" font-family="Helvetica,sans-Serif" font-size="10.00">mp4tag.h</text>
</a>
</g>
</g>
<!-- Node1&#45;&gt;Node23 -->
<g id="edge36" class="edge">
<title>Node1&#45;&gt;Node23</title>
<path fill="none" stroke="midnightblue" d="M938.88,-504.44C910.49,-495.32 865.36,-480.81 833.75,-470.65"/>
<polygon fill="midnightblue" stroke="midnightblue" points="834.59,-467.24 824,-467.52 832.44,-473.91 834.59,-467.24"/>
</g>
<!-- Node29 -->
<g id="node29" class="node">
<title>Node29</title>
<g id="a_node29"><a xlink:href="mp4properties_8h.html" target="_top" xlink:title=" ">
<polygon fill="white" stroke="black" points="1131,-168.5 1131,-187.5 1228,-187.5 1228,-168.5 1131,-168.5"/>
<text text-anchor="middle" x="1179.5" y="-175.5" font-family="Helvetica,sans-Serif" font-size="10.00">mp4properties.h</text>
</a>
</g>
</g>
<!-- Node1&#45;&gt;Node29 -->
<g id="edge61" class="edge">
<title>Node1&#45;&gt;Node29</title>
<path fill="none" stroke="midnightblue" d="M993.15,-504.42C1032.64,-490.23 1100.5,-457.87 1100.5,-403 1100.5,-403 1100.5,-403 1100.5,-289 1100.5,-248.79 1135.75,-213.22 1159.16,-194.03"/>
<polygon fill="midnightblue" stroke="midnightblue" points="1161.47,-196.66 1167.16,-187.72 1157.14,-191.17 1161.47,-196.66"/>
</g>
<!-- Node3 -->
<g id="node3" class="node">
<title>Node3</title>
<g id="a_node3"><a xlink:href="tbytevector_8h.html" target="_top" xlink:title=" ">
<polygon fill="white" stroke="black" points="479,-56.5 479,-75.5 560,-75.5 560,-56.5 479,-56.5"/>
<text text-anchor="middle" x="519.5" y="-63.5" font-family="Helvetica,sans-Serif" font-size="10.00">tbytevector.h</text>
</a>
</g>
</g>
<!-- Node2&#45;&gt;Node3 -->
<g id="edge2" class="edge">
<title>Node2&#45;&gt;Node3</title>
<path fill="none" stroke="midnightblue" d="M878.86,-224.25C851.41,-202.11 775.27,-143.43 702.5,-112 659.67,-93.5 607.78,-81.65 570.2,-74.78"/>
<polygon fill="midnightblue" stroke="midnightblue" points="570.46,-71.27 560.01,-72.97 569.24,-78.16 570.46,-71.27"/>
</g>
<!-- Node2&#45;&gt;Node7 -->
<g id="edge12" class="edge">
<title>Node2&#45;&gt;Node7</title>
<path fill="none" stroke="midnightblue" d="M899.05,-224.48C920.01,-204.69 966.62,-154.12 946.5,-112 926.64,-70.43 880.39,-40.46 850.06,-24.43"/>
<polygon fill="midnightblue" stroke="midnightblue" points="851.33,-21.14 840.83,-19.72 848.14,-27.38 851.33,-21.14"/>
</g>
<!-- Node8 -->
<g id="node8" class="node">
<title>Node8</title>
<g id="a_node8"><a xlink:href="tiostream_8h.html" target="_top" xlink:title=" ">
<polygon fill="white" stroke="black" points="864,-112.5 864,-131.5 937,-131.5 937,-112.5 864,-112.5"/>
<text text-anchor="middle" x="900.5" y="-119.5" font-family="Helvetica,sans-Serif" font-size="10.00">tiostream.h</text>
</a>
</g>
</g>
<!-- Node2&#45;&gt;Node8 -->
<g id="edge7" class="edge">
<title>Node2&#45;&gt;Node8</title>
<path fill="none" stroke="midnightblue" d="M890.36,-224.37C892.14,-206.62 896.23,-165.67 898.64,-141.6"/>
<polygon fill="midnightblue" stroke="midnightblue" points="902.13,-141.89 899.64,-131.59 895.16,-141.19 902.13,-141.89"/>
</g>
<!-- Node9 -->
<g id="node9" class="node">
<title>Node9</title>
<g id="a_node9"><a xlink:href="taglib_8h.html" target="_top" xlink:title=" ">
<polygon fill="white" stroke="black" points="1070,-56.5 1070,-75.5 1123,-75.5 1123,-56.5 1070,-56.5"/>
<text text-anchor="middle" x="1096.5" y="-63.5" font-family="Helvetica,sans-Serif" font-size="10.00">taglib.h</text>
</a>
</g>
</g>
<!-- Node2&#45;&gt;Node9 -->
<g id="edge13" class="edge">
<title>Node2&#45;&gt;Node9</title>
<path fill="none" stroke="midnightblue" d="M911.75,-231.94C963,-228.17 1089.05,-210.89 1142.5,-132 1154.32,-114.55 1135.76,-94.84 1118.8,-81.74"/>
<polygon fill="midnightblue" stroke="midnightblue" points="1120.4,-78.58 1110.25,-75.54 1116.29,-84.25 1120.4,-78.58"/>
</g>
<!-- Node2&#45;&gt;Node11 -->
<g id="edge14" class="edge">
<title>Node2&#45;&gt;Node11</title>
<path fill="none" stroke="midnightblue" d="M867.19,-230.71C783.72,-222.16 489.66,-192.03 393.32,-182.16"/>
<polygon fill="midnightblue" stroke="midnightblue" points="393.39,-178.65 383.08,-181.11 392.67,-185.61 393.39,-178.65"/>
</g>
<!-- Node4 -->
<g id="node4" class="node">
<title>Node4</title>
<g id="a_node4"><a xlink:title=" ">
<polygon fill="white" stroke="#bfbfbf" points="420.5,-0.5 420.5,-19.5 478.5,-19.5 478.5,-0.5 420.5,-0.5"/>
<text text-anchor="middle" x="449.5" y="-7.5" font-family="Helvetica,sans-Serif" font-size="10.00">memory</text>
</a>
</g>
</g>
<!-- Node3&#45;&gt;Node4 -->
<g id="edge3" class="edge">
<title>Node3&#45;&gt;Node4</title>
<path fill="none" stroke="midnightblue" d="M508.25,-56.32C497.7,-48.18 481.7,-35.84 469.06,-26.09"/>
<polygon fill="midnightblue" stroke="midnightblue" points="471.01,-23.17 460.95,-19.83 466.73,-28.71 471.01,-23.17"/>
</g>
<!-- Node5 -->
<g id="node5" class="node">
<title>Node5</title>
<g id="a_node5"><a xlink:title=" ">
<polygon fill="white" stroke="#bfbfbf" points="563,-0.5 563,-19.5 610,-19.5 610,-0.5 563,-0.5"/>
<text text-anchor="middle" x="586.5" y="-7.5" font-family="Helvetica,sans-Serif" font-size="10.00">vector</text>
</a>
</g>
</g>
<!-- Node3&#45;&gt;Node5 -->
<g id="edge4" class="edge">
<title>Node3&#45;&gt;Node5</title>
<path fill="none" stroke="midnightblue" d="M530.26,-56.32C540.27,-48.26 555.39,-36.08 567.43,-26.37"/>
<polygon fill="midnightblue" stroke="midnightblue" points="569.95,-28.83 575.54,-19.83 565.56,-23.38 569.95,-28.83"/>
</g>
<!-- Node6 -->
<g id="node6" class="node">
<title>Node6</title>
<g id="a_node6"><a xlink:title=" ">
<polygon fill="white" stroke="#bfbfbf" points="496.5,-0.5 496.5,-19.5 544.5,-19.5 544.5,-0.5 496.5,-0.5"/>
<text text-anchor="middle" x="520.5" y="-7.5" font-family="Helvetica,sans-Serif" font-size="10.00">iosfwd</text>
</a>
</g>
</g>
<!-- Node3&#45;&gt;Node6 -->
<g id="edge5" class="edge">
<title>Node3&#45;&gt;Node6</title>
<path fill="none" stroke="midnightblue" d="M519.67,-56.08C519.8,-49.01 519.98,-38.86 520.15,-29.99"/>
<polygon fill="midnightblue" stroke="midnightblue" points="523.65,-29.81 520.34,-19.75 516.65,-29.68 523.65,-29.81"/>
</g>
<!-- Node3&#45;&gt;Node7 -->
<g id="edge6" class="edge">
<title>Node3&#45;&gt;Node7</title>
<path fill="none" stroke="midnightblue" d="M560.23,-57.72C613.42,-48.21 706.76,-31.52 766.28,-20.87"/>
<polygon fill="midnightblue" stroke="midnightblue" points="767.03,-24.3 776.26,-19.09 765.8,-17.4 767.03,-24.3"/>
</g>
<!-- Node8&#45;&gt;Node3 -->
<g id="edge8" class="edge">
<title>Node8&#45;&gt;Node3</title>
<path fill="none" stroke="midnightblue" d="M863.97,-115.82C795.61,-106.13 648.25,-85.25 570.27,-74.2"/>
<polygon fill="midnightblue" stroke="midnightblue" points="570.6,-70.71 560.2,-72.77 569.61,-77.64 570.6,-70.71"/>
</g>
<!-- Node8&#45;&gt;Node7 -->
<g id="edge9" class="edge">
<title>Node8&#45;&gt;Node7</title>
<path fill="none" stroke="midnightblue" d="M894.3,-112.14C885.5,-99.59 868.88,-75.97 854.5,-56 847.76,-46.65 840.16,-36.27 833.95,-27.84"/>
<polygon fill="midnightblue" stroke="midnightblue" points="836.62,-25.56 827.87,-19.6 830.99,-29.72 836.62,-25.56"/>
</g>
<!-- Node8&#45;&gt;Node9 -->
<g id="edge10" class="edge">
<title>Node8&#45;&gt;Node9</title>
<path fill="none" stroke="midnightblue" d="M931.56,-112.44C966.48,-102.82 1023.14,-87.21 1060.12,-77.02"/>
<polygon fill="midnightblue" stroke="midnightblue" points="1061.28,-80.33 1069.99,-74.3 1059.42,-73.59 1061.28,-80.33"/>
</g>
<!-- Node10 -->
<g id="node10" class="node">
<title>Node10</title>
<g id="a_node10"><a xlink:title=" ">
<polygon fill="white" stroke="#bfbfbf" points="1060.5,-0.5 1060.5,-19.5 1132.5,-19.5 1132.5,-0.5 1060.5,-0.5"/>
<text text-anchor="middle" x="1096.5" y="-7.5" font-family="Helvetica,sans-Serif" font-size="10.00">sys/types.h</text>
</a>
</g>
</g>
<!-- Node9&#45;&gt;Node10 -->
<g id="edge11" class="edge">
<title>Node9&#45;&gt;Node10</title>
<path fill="none" stroke="midnightblue" d="M1096.5,-56.08C1096.5,-49.01 1096.5,-38.86 1096.5,-29.99"/>
<polygon fill="midnightblue" stroke="midnightblue" points="1100,-29.75 1096.5,-19.75 1093,-29.75 1100,-29.75"/>
</g>
<!-- Node11&#45;&gt;Node7 -->
<g id="edge15" class="edge">
<title>Node11&#45;&gt;Node7</title>
<path fill="none" stroke="midnightblue" d="M369.49,-168.5C391.28,-142.11 457.23,-62.99 470.5,-56 520.64,-29.59 680.82,-17.87 766.39,-13.39"/>
<polygon fill="midnightblue" stroke="midnightblue" points="766.63,-16.88 776.44,-12.88 766.28,-9.89 766.63,-16.88"/>
</g>
<!-- Node12 -->
<g id="node12" class="node">
<title>Node12</title>
<g id="a_node12"><a xlink:href="tstring_8h.html" target="_top" xlink:title=" ">
<polygon fill="white" stroke="black" points="636,-112.5 636,-131.5 693,-131.5 693,-112.5 636,-112.5"/>
<text text-anchor="middle" x="664.5" y="-119.5" font-family="Helvetica,sans-Serif" font-size="10.00">tstring.h</text>
</a>
</g>
</g>
<!-- Node11&#45;&gt;Node12 -->
<g id="edge16" class="edge">
<title>Node11&#45;&gt;Node12</title>
<path fill="none" stroke="midnightblue" d="M383.21,-173.99C426.48,-167.6 529.84,-151.76 625.98,-132.2"/>
<polygon fill="midnightblue" stroke="midnightblue" points="626.77,-135.62 635.86,-130.18 625.36,-128.76 626.77,-135.62"/>
</g>
<!-- Node14 -->
<g id="node14" class="node">
<title>Node14</title>
<g id="a_node14"><a xlink:href="tlist_8h.html" target="_top" xlink:title=" ">
<polygon fill="white" stroke="black" points="293.5,-56.5 293.5,-75.5 337.5,-75.5 337.5,-56.5 293.5,-56.5"/>
<text text-anchor="middle" x="315.5" y="-63.5" font-family="Helvetica,sans-Serif" font-size="10.00">tlist.h</text>
</a>
</g>
</g>
<!-- Node11&#45;&gt;Node14 -->
<g id="edge20" class="edge">
<title>Node11&#45;&gt;Node14</title>
<path fill="none" stroke="midnightblue" d="M348.42,-168.26C337.15,-160.35 322.15,-147.58 315.5,-132 309.27,-117.41 309.88,-99.23 311.7,-85.81"/>
<polygon fill="midnightblue" stroke="midnightblue" points="315.17,-86.29 313.39,-75.85 308.27,-85.12 315.17,-86.29"/>
</g>
<!-- Node18 -->
<g id="node18" class="node">
<title>Node18</title>
<g id="a_node18"><a xlink:href="tvariant_8h.html" target="_top" xlink:title=" ">
<polygon fill="white" stroke="black" points="324.5,-112.5 324.5,-131.5 388.5,-131.5 388.5,-112.5 324.5,-112.5"/>
<text text-anchor="middle" x="356.5" y="-119.5" font-family="Helvetica,sans-Serif" font-size="10.00">tvariant.h</text>
</a>
</g>
</g>
<!-- Node11&#45;&gt;Node18 -->
<g id="edge25" class="edge">
<title>Node11&#45;&gt;Node18</title>
<path fill="none" stroke="midnightblue" d="M361.51,-168.08C360.71,-160.93 359.57,-150.64 358.58,-141.69"/>
<polygon fill="midnightblue" stroke="midnightblue" points="362.06,-141.3 357.47,-131.75 355.1,-142.08 362.06,-141.3"/>
</g>
<!-- Node12&#45;&gt;Node3 -->
<g id="edge18" class="edge">
<title>Node12&#45;&gt;Node3</title>
<path fill="none" stroke="midnightblue" d="M641.52,-112.44C617.34,-103.44 579.08,-89.19 551.85,-79.05"/>
<polygon fill="midnightblue" stroke="midnightblue" points="552.96,-75.73 542.37,-75.52 550.52,-82.29 552.96,-75.73"/>
</g>
<!-- Node12&#45;&gt;Node7 -->
<g id="edge19" class="edge">
<title>Node12&#45;&gt;Node7</title>
<path fill="none" stroke="midnightblue" d="M675.42,-112.29C691.54,-99.53 722.81,-75.19 750.5,-56 766.24,-45.09 784.51,-33.54 798.57,-24.87"/>
<polygon fill="midnightblue" stroke="midnightblue" points="800.43,-27.83 807.13,-19.63 796.78,-21.86 800.43,-27.83"/>
</g>
<!-- Node13 -->
<g id="node13" class="node">
<title>Node13</title>
<g id="a_node13"><a xlink:title=" ">
<polygon fill="white" stroke="#bfbfbf" points="616.5,-56.5 616.5,-75.5 660.5,-75.5 660.5,-56.5 616.5,-56.5"/>
<text text-anchor="middle" x="638.5" y="-63.5" font-family="Helvetica,sans-Serif" font-size="10.00">string</text>
</a>
</g>
</g>
<!-- Node12&#45;&gt;Node13 -->
<g id="edge17" class="edge">
<title>Node12&#45;&gt;Node13</title>
<path fill="none" stroke="midnightblue" d="M660.21,-112.08C656.65,-104.69 651.48,-93.95 647.08,-84.81"/>
<polygon fill="midnightblue" stroke="midnightblue" points="650.21,-83.24 642.71,-75.75 643.9,-86.28 650.21,-83.24"/>
</g>
<!-- Node14&#45;&gt;Node4 -->
<g id="edge23" class="edge">
<title>Node14&#45;&gt;Node4</title>
<path fill="none" stroke="midnightblue" d="M336.73,-56.44C358.88,-47.52 393.82,-33.44 418.94,-23.32"/>
<polygon fill="midnightblue" stroke="midnightblue" points="420.4,-26.5 428.37,-19.52 417.78,-20.01 420.4,-26.5"/>
</g>
<!-- Node15 -->
<g id="node15" class="node">
<title>Node15</title>
<g id="a_node15"><a xlink:title=" ">
<polygon fill="white" stroke="#bfbfbf" points="298.5,-0.5 298.5,-19.5 330.5,-19.5 330.5,-0.5 298.5,-0.5"/>
<text text-anchor="middle" x="314.5" y="-7.5" font-family="Helvetica,sans-Serif" font-size="10.00">list</text>
</a>
</g>
</g>
<!-- Node14&#45;&gt;Node15 -->
<g id="edge21" class="edge">
<title>Node14&#45;&gt;Node15</title>
<path fill="none" stroke="midnightblue" d="M315.33,-56.08C315.2,-49.01 315.02,-38.86 314.85,-29.99"/>
<polygon fill="midnightblue" stroke="midnightblue" points="318.35,-29.68 314.66,-19.75 311.35,-29.81 318.35,-29.68"/>
</g>
<!-- Node16 -->
<g id="node16" class="node">
<title>Node16</title>
<g id="a_node16"><a xlink:title=" ">
<polygon fill="white" stroke="#bfbfbf" points="197,-0.5 197,-19.5 280,-19.5 280,-0.5 197,-0.5"/>
<text text-anchor="middle" x="238.5" y="-7.5" font-family="Helvetica,sans-Serif" font-size="10.00">initializer_list</text>
</a>
</g>
</g>
<!-- Node14&#45;&gt;Node16 -->
<g id="edge22" class="edge">
<title>Node14&#45;&gt;Node16</title>
<path fill="none" stroke="midnightblue" d="M303.13,-56.32C291.34,-48.06 273.37,-35.45 259.36,-25.63"/>
<polygon fill="midnightblue" stroke="midnightblue" points="261.04,-22.53 250.84,-19.65 257.02,-28.26 261.04,-22.53"/>
</g>
<!-- Node17 -->
<g id="node17" class="node">
<title>Node17</title>
<g id="a_node17"><a xlink:title=" ">
<polygon fill="white" stroke="#bfbfbf" points="349,-0.5 349,-19.5 402,-19.5 402,-0.5 349,-0.5"/>
<text text-anchor="middle" x="375.5" y="-7.5" font-family="Helvetica,sans-Serif" font-size="10.00">tlist.tcc</text>
</a>
</g>
</g>
<!-- Node14&#45;&gt;Node17 -->
<g id="edge24" class="edge">
<title>Node14&#45;&gt;Node17</title>
<path fill="none" stroke="midnightblue" d="M325.14,-56.32C334.01,-48.34 347.37,-36.31 358.11,-26.65"/>
<polygon fill="midnightblue" stroke="midnightblue" points="360.59,-29.13 365.68,-19.83 355.91,-23.92 360.59,-29.13"/>
</g>
<!-- Node18&#45;&gt;Node6 -->
<g id="edge26" class="edge">
<title>Node18&#45;&gt;Node6</title>
<path fill="none" stroke="midnightblue" d="M359.87,-112.13C365.58,-98.26 378.4,-71.42 397.5,-56 411.51,-44.69 455.25,-30.15 486.58,-20.71"/>
<polygon fill="midnightblue" stroke="midnightblue" points="487.68,-24.03 496.27,-17.83 485.68,-17.32 487.68,-24.03"/>
</g>
<!-- Node18&#45;&gt;Node7 -->
<g id="edge34" class="edge">
<title>Node18&#45;&gt;Node7</title>
<path fill="none" stroke="midnightblue" d="M363.87,-112.45C376.89,-98 405.5,-69.08 436.5,-56 494.63,-31.47 674.18,-18.73 766.07,-13.67"/>
<polygon fill="midnightblue" stroke="midnightblue" points="766.5,-17.15 776.3,-13.12 766.12,-10.16 766.5,-17.15"/>
</g>
<!-- Node18&#45;&gt;Node14 -->
<g id="edge27" class="edge">
<title>Node18&#45;&gt;Node14</title>
<path fill="none" stroke="midnightblue" d="M349.73,-112.08C343.94,-104.46 335.44,-93.26 328.36,-83.94"/>
<polygon fill="midnightblue" stroke="midnightblue" points="330.98,-81.6 322.14,-75.75 325.4,-85.83 330.98,-81.6"/>
</g>
<!-- Node19 -->
<g id="node19" class="node">
<title>Node19</title>
<g id="a_node19"><a xlink:href="tmap_8h.html" target="_top" xlink:title=" ">
<polygon fill="white" stroke="black" points="157,-56.5 157,-75.5 208,-75.5 208,-56.5 157,-56.5"/>
<text text-anchor="middle" x="182.5" y="-63.5" font-family="Helvetica,sans-Serif" font-size="10.00">tmap.h</text>
</a>
</g>
</g>
<!-- Node18&#45;&gt;Node19 -->
<g id="edge28" class="edge">
<title>Node18&#45;&gt;Node19</title>
<path fill="none" stroke="midnightblue" d="M328.93,-112.44C298.88,-103.12 250.72,-88.17 217.9,-77.99"/>
<polygon fill="midnightblue" stroke="midnightblue" points="218.83,-74.61 208.24,-74.99 216.75,-81.3 218.83,-74.61"/>
</g>
<!-- Node19&#45;&gt;Node4 -->
<g id="edge30" class="edge">
<title>Node19&#45;&gt;Node4</title>
<path fill="none" stroke="midnightblue" d="M208.32,-60.26C249.06,-52.71 330.96,-37.25 410.32,-20.19"/>
<polygon fill="midnightblue" stroke="midnightblue" points="411.45,-23.53 420.48,-17.99 409.97,-16.69 411.45,-23.53"/>
</g>
<!-- Node19&#45;&gt;Node16 -->
<g id="edge31" class="edge">
<title>Node19&#45;&gt;Node16</title>
<path fill="none" stroke="midnightblue" d="M191.5,-56.32C199.69,-48.42 212.01,-36.55 221.97,-26.94"/>
<polygon fill="midnightblue" stroke="midnightblue" points="224.57,-29.29 229.34,-19.83 219.71,-24.26 224.57,-29.29"/>
</g>
<!-- Node20 -->
<g id="node20" class="node">
<title>Node20</title>
<g id="a_node20"><a xlink:title=" ">
<polygon fill="white" stroke="#bfbfbf" points="77.5,-0.5 77.5,-19.5 115.5,-19.5 115.5,-0.5 77.5,-0.5"/>
<text text-anchor="middle" x="96.5" y="-7.5" font-family="Helvetica,sans-Serif" font-size="10.00">map</text>
</a>
</g>
</g>
<!-- Node19&#45;&gt;Node20 -->
<g id="edge29" class="edge">
<title>Node19&#45;&gt;Node20</title>
<path fill="none" stroke="midnightblue" d="M168.68,-56.32C155.27,-47.9 134.68,-34.97 118.91,-25.07"/>
<polygon fill="midnightblue" stroke="midnightblue" points="120.61,-22.01 110.28,-19.65 116.89,-27.94 120.61,-22.01"/>
</g>
<!-- Node21 -->
<g id="node21" class="node">
<title>Node21</title>
<g id="a_node21"><a xlink:title=" ">
<polygon fill="white" stroke="#bfbfbf" points="134,-0.5 134,-19.5 179,-19.5 179,-0.5 134,-0.5"/>
<text text-anchor="middle" x="156.5" y="-7.5" font-family="Helvetica,sans-Serif" font-size="10.00">utility</text>
</a>
</g>
</g>
<!-- Node19&#45;&gt;Node21 -->
<g id="edge32" class="edge">
<title>Node19&#45;&gt;Node21</title>
<path fill="none" stroke="midnightblue" d="M178.21,-56.08C174.65,-48.69 169.48,-37.95 165.08,-28.81"/>
<polygon fill="midnightblue" stroke="midnightblue" points="168.21,-27.24 160.71,-19.75 161.9,-30.28 168.21,-27.24"/>
</g>
<!-- Node22 -->
<g id="node22" class="node">
<title>Node22</title>
<g id="a_node22"><a xlink:title=" ">
<polygon fill="white" stroke="#bfbfbf" points="0,-0.5 0,-19.5 59,-19.5 59,-0.5 0,-0.5"/>
<text text-anchor="middle" x="29.5" y="-7.5" font-family="Helvetica,sans-Serif" font-size="10.00">tmap.tcc</text>
</a>
</g>
</g>
<!-- Node19&#45;&gt;Node22 -->
<g id="edge33" class="edge">
<title>Node19&#45;&gt;Node22</title>
<path fill="none" stroke="midnightblue" d="M158.26,-56.44C132.63,-47.4 92.01,-33.06 63.26,-22.92"/>
<polygon fill="midnightblue" stroke="midnightblue" points="64.22,-19.54 53.63,-19.52 61.89,-26.15 64.22,-19.54"/>
</g>
<!-- Node23&#45;&gt;Node2 -->
<g id="edge37" class="edge">
<title>Node23&#45;&gt;Node2</title>
<path fill="none" stroke="midnightblue" d="M811.65,-448.46C823.59,-440.51 840.17,-427.57 849.5,-412 880.21,-360.75 887.37,-288.3 889.02,-254.18"/>
<polygon fill="midnightblue" stroke="midnightblue" points="892.53,-253.93 889.4,-243.81 885.54,-253.68 892.53,-253.93"/>
</g>
<!-- Node23&#45;&gt;Node7 -->
<g id="edge47" class="edge">
<title>Node23&#45;&gt;Node7</title>
<path fill="none" stroke="midnightblue" d="M815.78,-448.41C866.2,-423.32 1003.5,-344.89 1003.5,-235 1003.5,-235 1003.5,-235 1003.5,-121 1003.5,-61.17 930.57,-33.01 877.04,-20.4"/>
<polygon fill="midnightblue" stroke="midnightblue" points="877.48,-16.91 866.96,-18.15 875.96,-23.74 877.48,-16.91"/>
</g>
<!-- Node23&#45;&gt;Node11 -->
<g id="edge48" class="edge">
<title>Node23&#45;&gt;Node11</title>
<path fill="none" stroke="midnightblue" d="M765.87,-455.8C665.76,-451.17 362.5,-430.25 362.5,-347 362.5,-347 362.5,-347 362.5,-289 362.5,-256.95 362.5,-219.64 362.5,-197.75"/>
<polygon fill="midnightblue" stroke="midnightblue" points="366,-197.56 362.5,-187.56 359,-197.56 366,-197.56"/>
</g>
<!-- Node23&#45;&gt;Node19 -->
<g id="edge38" class="edge">
<title>Node23&#45;&gt;Node19</title>
<path fill="none" stroke="midnightblue" d="M765.73,-454.72C639.8,-445.28 182.5,-406.86 182.5,-347 182.5,-347 182.5,-347 182.5,-177 182.5,-144.95 182.5,-107.64 182.5,-85.75"/>
<polygon fill="midnightblue" stroke="midnightblue" points="186,-85.56 182.5,-75.56 179,-85.56 186,-85.56"/>
</g>
<!-- Node24 -->
<g id="node24" class="node">
<title>Node24</title>
<g id="a_node24"><a xlink:href="tstringlist_8h.html" target="_top" xlink:title=" ">
<polygon fill="white" stroke="black" points="636.5,-168.5 636.5,-187.5 708.5,-187.5 708.5,-168.5 636.5,-168.5"/>
<text text-anchor="middle" x="672.5" y="-175.5" font-family="Helvetica,sans-Serif" font-size="10.00">tstringlist.h</text>
</a>
</g>
</g>
<!-- Node23&#45;&gt;Node24 -->
<g id="edge39" class="edge">
<title>Node23&#45;&gt;Node24</title>
<path fill="none" stroke="midnightblue" d="M801.49,-448.48C806.82,-435.96 814.98,-411.92 809.5,-392 786.71,-309.15 718.87,-228.66 688.05,-195.21"/>
<polygon fill="midnightblue" stroke="midnightblue" points="690.45,-192.66 681.06,-187.75 685.34,-197.44 690.45,-192.66"/>
</g>
<!-- Node26 -->
<g id="node26" class="node">
<title>Node26</title>
<g id="a_node26"><a xlink:href="mp4atom_8h.html" target="_top" xlink:title=" ">
<polygon fill="white" stroke="black" points="391,-280.5 391,-299.5 464,-299.5 464,-280.5 391,-280.5"/>
<text text-anchor="middle" x="427.5" y="-287.5" font-family="Helvetica,sans-Serif" font-size="10.00">mp4atom.h</text>
</a>
</g>
</g>
<!-- Node23&#45;&gt;Node26 -->
<g id="edge49" class="edge">
<title>Node23&#45;&gt;Node26</title>
<path fill="none" stroke="midnightblue" d="M765.83,-457.44C697.6,-456.62 535.69,-444.82 446.5,-356 434.4,-343.96 429.92,-324.67 428.3,-310.22"/>
<polygon fill="midnightblue" stroke="midnightblue" points="431.76,-309.62 427.53,-299.91 424.78,-310.14 431.76,-309.62"/>
</g>
<!-- Node27 -->
<g id="node27" class="node">
<title>Node27</title>
<g id="a_node27"><a xlink:href="mp4item_8h.html" target="_top" xlink:title=" ">
<polygon fill="white" stroke="black" points="730.5,-392.5 730.5,-411.5 800.5,-411.5 800.5,-392.5 730.5,-392.5"/>
<text text-anchor="middle" x="765.5" y="-399.5" font-family="Helvetica,sans-Serif" font-size="10.00">mp4item.h</text>
</a>
</g>
</g>
<!-- Node23&#45;&gt;Node27 -->
<g id="edge52" class="edge">
<title>Node23&#45;&gt;Node27</title>
<path fill="none" stroke="midnightblue" d="M792.22,-448.08C787.79,-440.61 781.34,-429.72 775.88,-420.52"/>
<polygon fill="midnightblue" stroke="midnightblue" points="778.79,-418.57 770.69,-411.75 772.77,-422.14 778.79,-418.57"/>
</g>
<!-- Node24&#45;&gt;Node7 -->
<g id="edge46" class="edge">
<title>Node24&#45;&gt;Node7</title>
<path fill="none" stroke="midnightblue" d="M680.51,-168.08C704.47,-141.38 775.84,-61.87 806.85,-27.32"/>
<polygon fill="midnightblue" stroke="midnightblue" points="809.73,-29.35 813.81,-19.57 804.52,-24.67 809.73,-29.35"/>
</g>
<!-- Node24&#45;&gt;Node12 -->
<g id="edge40" class="edge">
<title>Node24&#45;&gt;Node12</title>
<path fill="none" stroke="midnightblue" d="M671.18,-168.08C670.12,-160.93 668.59,-150.64 667.27,-141.69"/>
<polygon fill="midnightblue" stroke="midnightblue" points="670.72,-141.13 665.8,-131.75 663.8,-142.16 670.72,-141.13"/>
</g>
<!-- Node24&#45;&gt;Node14 -->
<g id="edge41" class="edge">
<title>Node24&#45;&gt;Node14</title>
<path fill="none" stroke="midnightblue" d="M640.5,-168.45C608.12,-159.69 556.66,-145.49 512.5,-132 453.85,-114.09 386.06,-91.24 347.24,-77.96"/>
<polygon fill="midnightblue" stroke="midnightblue" points="348.15,-74.57 337.56,-74.63 345.88,-81.19 348.15,-74.57"/>
</g>
<!-- Node25 -->
<g id="node25" class="node">
<title>Node25</title>
<g id="a_node25"><a xlink:href="tbytevectorlist_8h.html" target="_top" xlink:title=" ">
<polygon fill="white" stroke="black" points="521,-112.5 521,-131.5 618,-131.5 618,-112.5 521,-112.5"/>
<text text-anchor="middle" x="569.5" y="-119.5" font-family="Helvetica,sans-Serif" font-size="10.00">tbytevectorlist.h</text>
</a>
</g>
</g>
<!-- Node24&#45;&gt;Node25 -->
<g id="edge42" class="edge">
<title>Node24&#45;&gt;Node25</title>
<path fill="none" stroke="midnightblue" d="M655.95,-168.32C639.51,-159.7 614.07,-146.36 595.03,-136.39"/>
<polygon fill="midnightblue" stroke="midnightblue" points="596.49,-133.2 586.01,-131.65 593.24,-139.4 596.49,-133.2"/>
</g>
<!-- Node25&#45;&gt;Node3 -->
<g id="edge43" class="edge">
<title>Node25&#45;&gt;Node3</title>
<path fill="none" stroke="midnightblue" d="M561.24,-112.08C554.04,-104.3 543.39,-92.8 534.65,-83.37"/>
<polygon fill="midnightblue" stroke="midnightblue" points="536.97,-80.71 527.6,-75.75 531.83,-85.47 536.97,-80.71"/>
</g>
<!-- Node25&#45;&gt;Node7 -->
<g id="edge45" class="edge">
<title>Node25&#45;&gt;Node7</title>
<path fill="none" stroke="midnightblue" d="M572.05,-112.27C576.65,-98.09 587.78,-70.22 607.5,-56 632.38,-38.07 711.11,-24.84 765.8,-17.53"/>
<polygon fill="midnightblue" stroke="midnightblue" points="766.59,-20.96 776.05,-16.19 765.68,-14.01 766.59,-20.96"/>
</g>
<!-- Node25&#45;&gt;Node14 -->
<g id="edge44" class="edge">
<title>Node25&#45;&gt;Node14</title>
<path fill="none" stroke="midnightblue" d="M529.25,-112.44C479.03,-101.77 394.13,-83.72 347.89,-73.89"/>
<polygon fill="midnightblue" stroke="midnightblue" points="348.33,-70.4 337.82,-71.75 346.87,-77.25 348.33,-70.4"/>
</g>
<!-- Node26&#45;&gt;Node2 -->
<g id="edge50" class="edge">
<title>Node26&#45;&gt;Node2</title>
<path fill="none" stroke="midnightblue" d="M464.14,-284.72C552.06,-274.44 773.86,-248.52 857.19,-238.78"/>
<polygon fill="midnightblue" stroke="midnightblue" points="857.8,-242.23 867.33,-237.59 856.99,-235.28 857.8,-242.23"/>
</g>
<!-- Node26&#45;&gt;Node14 -->
<g id="edge51" class="edge">
<title>Node26&#45;&gt;Node14</title>
<path fill="none" stroke="midnightblue" d="M416.09,-280.36C389.03,-258.92 322.06,-200.1 306.5,-132 302.97,-116.56 305.93,-98.71 309.37,-85.63"/>
<polygon fill="midnightblue" stroke="midnightblue" points="312.76,-86.5 312.24,-75.92 306.05,-84.52 312.76,-86.5"/>
</g>
<!-- Node27&#45;&gt;Node7 -->
<g id="edge54" class="edge">
<title>Node27&#45;&gt;Node7</title>
<path fill="none" stroke="midnightblue" d="M766.72,-392.49C773.72,-343.74 808.78,-99.61 818.81,-29.72"/>
<polygon fill="midnightblue" stroke="midnightblue" points="822.29,-30.13 820.25,-19.73 815.36,-29.13 822.29,-30.13"/>
</g>
<!-- Node27&#45;&gt;Node24 -->
<g id="edge53" class="edge">
<title>Node27&#45;&gt;Node24</title>
<path fill="none" stroke="midnightblue" d="M761.85,-392.3C748.11,-359.49 699.26,-242.88 680.2,-197.38"/>
<polygon fill="midnightblue" stroke="midnightblue" points="683.31,-195.75 676.22,-187.88 676.86,-198.46 683.31,-195.75"/>
</g>
<!-- Node28 -->
<g id="node28" class="node">
<title>Node28</title>
<g id="a_node28"><a xlink:href="mp4coverart_8h.html" target="_top" xlink:title=" ">
<polygon fill="white" stroke="black" points="455.5,-336.5 455.5,-355.5 543.5,-355.5 543.5,-336.5 455.5,-336.5"/>
<text text-anchor="middle" x="499.5" y="-343.5" font-family="Helvetica,sans-Serif" font-size="10.00">mp4coverart.h</text>
</a>
</g>
</g>
<!-- Node27&#45;&gt;Node28 -->
<g id="edge55" class="edge">
<title>Node27&#45;&gt;Node28</title>
<path fill="none" stroke="midnightblue" d="M730.45,-393.88C684.73,-384.6 604.34,-368.28 551.51,-357.56"/>
<polygon fill="midnightblue" stroke="midnightblue" points="552.15,-354.12 541.65,-355.56 550.75,-360.98 552.15,-354.12"/>
</g>
<!-- Node28&#45;&gt;Node3 -->
<g id="edge57" class="edge">
<title>Node28&#45;&gt;Node3</title>
<path fill="none" stroke="midnightblue" d="M498.58,-336.45C496.69,-317.97 492.5,-272.89 492.5,-235 492.5,-235 492.5,-235 492.5,-177 492.5,-143.86 504.2,-106.68 512.2,-85.14"/>
<polygon fill="midnightblue" stroke="midnightblue" points="515.52,-86.25 515.86,-75.66 508.99,-83.73 515.52,-86.25"/>
</g>
<!-- Node28&#45;&gt;Node7 -->
<g id="edge58" class="edge">
<title>Node28&#45;&gt;Node7</title>
<path fill="none" stroke="midnightblue" d="M515.65,-336.35C554.21,-315.14 653.16,-257.14 717.5,-188 764.16,-137.85 799.38,-63.23 814.04,-29.16"/>
<polygon fill="midnightblue" stroke="midnightblue" points="817.41,-30.17 818.06,-19.6 810.95,-27.46 817.41,-30.17"/>
</g>
<!-- Node28&#45;&gt;Node14 -->
<g id="edge56" class="edge">
<title>Node28&#45;&gt;Node14</title>
<path fill="none" stroke="midnightblue" d="M455.29,-337.06C376.62,-321.67 220.5,-284.85 220.5,-235 220.5,-235 220.5,-235 220.5,-177 220.5,-133.74 263.11,-99.09 291.25,-80.91"/>
<polygon fill="midnightblue" stroke="midnightblue" points="293.16,-83.85 299.81,-75.6 289.47,-77.9 293.16,-83.85"/>
</g>
<!-- Node28&#45;&gt;Node26 -->
<g id="edge59" class="edge">
<title>Node28&#45;&gt;Node26</title>
<path fill="none" stroke="midnightblue" d="M487.93,-336.32C477.08,-328.18 460.62,-315.84 447.62,-306.09"/>
<polygon fill="midnightblue" stroke="midnightblue" points="449.38,-303.03 439.28,-299.83 445.18,-308.63 449.38,-303.03"/>
</g>
<!-- Node29&#45;&gt;Node7 -->
<g id="edge62" class="edge">
<title>Node29&#45;&gt;Node7</title>
<path fill="none" stroke="midnightblue" d="M1179.08,-168.49C1177.48,-145.88 1169.71,-84.13 1132.5,-56 1093.3,-26.36 955.24,-16.15 876.89,-12.71"/>
<polygon fill="midnightblue" stroke="midnightblue" points="876.85,-9.2 866.71,-12.28 876.56,-16.19 876.85,-9.2"/>
</g>
<!-- Node30 -->
<g id="node30" class="node">
<title>Node30</title>
<g id="a_node30"><a xlink:href="audioproperties_8h.html" target="_top" xlink:title=" ">
<polygon fill="white" stroke="black" points="1031.5,-112.5 1031.5,-131.5 1133.5,-131.5 1133.5,-112.5 1031.5,-112.5"/>
<text text-anchor="middle" x="1082.5" y="-119.5" font-family="Helvetica,sans-Serif" font-size="10.00">audioproperties.h</text>
</a>
</g>
</g>
<!-- Node29&#45;&gt;Node30 -->
<g id="edge63" class="edge">
<title>Node29&#45;&gt;Node30</title>
<path fill="none" stroke="midnightblue" d="M1163.92,-168.32C1148.5,-159.74 1124.69,-146.49 1106.79,-136.52"/>
<polygon fill="midnightblue" stroke="midnightblue" points="1108.49,-133.46 1098.05,-131.65 1105.08,-139.58 1108.49,-133.46"/>
</g>
<!-- Node30&#45;&gt;Node4 -->
<g id="edge64" class="edge">
<title>Node30&#45;&gt;Node4</title>
<path fill="none" stroke="midnightblue" d="M1031.36,-113.46C929.76,-98.22 695.21,-61.82 488.33,-20.06"/>
<polygon fill="midnightblue" stroke="midnightblue" points="489,-16.63 478.5,-18.07 487.61,-23.49 489,-16.63"/>
</g>
<!-- Node30&#45;&gt;Node7 -->
<g id="edge66" class="edge">
<title>Node30&#45;&gt;Node7</title>
<path fill="none" stroke="midnightblue" d="M1076.4,-112.3C1066.02,-98.17 1043.47,-70.38 1017.5,-56 973.85,-31.84 917.87,-20.63 876.91,-15.44"/>
<polygon fill="midnightblue" stroke="midnightblue" points="877.19,-11.95 866.84,-14.25 876.36,-18.9 877.19,-11.95"/>
</g>
<!-- Node30&#45;&gt;Node9 -->
<g id="edge65" class="edge">
<title>Node30&#45;&gt;Node9</title>
<path fill="none" stroke="midnightblue" d="M1084.81,-112.08C1086.67,-104.93 1089.34,-94.64 1091.65,-85.69"/>
<polygon fill="midnightblue" stroke="midnightblue" points="1095.11,-86.31 1094.23,-75.75 1088.33,-84.55 1095.11,-86.31"/>
</g>
</g>
</svg>
