<?xml version="1.0" encoding="UTF-8" standalone="no"?>
<!DOCTYPE svg PUBLIC "-//W3C//DTD SVG 1.1//EN"
 "http://www.w3.org/Graphics/SVG/1.1/DTD/svg11.dtd">
<!-- Generated by graphviz version 2.43.0 (0)
 -->
<!-- Title: mp4file.h Pages: 1 -->
<svg width="1327pt" height="588pt"
 viewBox="0.00 0.00 1326.50 588.00" xmlns="http://www.w3.org/2000/svg" xmlns:xlink="http://www.w3.org/1999/xlink">
<g id="graph0" class="graph" transform="scale(1 1) rotate(0) translate(4 584)">
<title>mp4file.h</title>
<polygon fill="white" stroke="transparent" points="-4,4 -4,-584 1322.5,-584 1322.5,4 -4,4"/>
<!-- Node1 -->
<g id="node1" class="node">
<title>Node1</title>
<g id="a_node1"><a xlink:title=" ">
<polygon fill="#bfbfbf" stroke="black" points="83,-560.5 83,-579.5 145,-579.5 145,-560.5 83,-560.5"/>
<text text-anchor="middle" x="114" y="-567.5" font-family="Helvetica,sans-Serif" font-size="10.00">mp4file.h</text>
</a>
</g>
</g>
<!-- Node2 -->
<g id="node2" class="node">
<title>Node2</title>
<g id="a_node2"><a xlink:href="tfile_8h.html" target="_top" xlink:title=" ">
<polygon fill="white" stroke="black" points="406,-280.5 406,-299.5 450,-299.5 450,-280.5 406,-280.5"/>
<text text-anchor="middle" x="428" y="-287.5" font-family="Helvetica,sans-Serif" font-size="10.00">tfile.h</text>
</a>
</g>
</g>
<!-- Node1&#45;&gt;Node2 -->
<g id="edge1" class="edge">
<title>Node1&#45;&gt;Node2</title>
<path fill="none" stroke="midnightblue" d="M114,-560.44C114,-541.94 114,-496.81 114,-459 114,-459 114,-459 114,-401 114,-341.71 315.91,-306.78 395.91,-295.26"/>
<polygon fill="midnightblue" stroke="midnightblue" points="396.51,-298.71 405.92,-293.85 395.53,-291.78 396.51,-298.71"/>
</g>
<!-- Node11 -->
<g id="node11" class="node">
<title>Node11</title>
<g id="a_node11"><a xlink:href="taglib__export_8h.html" target="_top" xlink:title=" ">
<polygon fill="white" stroke="black" points="202,-56.5 202,-75.5 292,-75.5 292,-56.5 202,-56.5"/>
<text text-anchor="middle" x="247" y="-63.5" font-family="Helvetica,sans-Serif" font-size="10.00">taglib_export.h</text>
</a>
</g>
</g>
<!-- Node1&#45;&gt;Node11 -->
<g id="edge43" class="edge">
<title>Node1&#45;&gt;Node11</title>
<path fill="none" stroke="midnightblue" d="M93.36,-560.42C60.5,-545.23 0,-510.29 0,-459 0,-459 0,-459 0,-177 0,-93.67 118.77,-73.01 191.59,-68.18"/>
<polygon fill="midnightblue" stroke="midnightblue" points="192.2,-71.65 201.98,-67.58 191.8,-64.66 192.2,-71.65"/>
</g>
<!-- Node13 -->
<g id="node13" class="node">
<title>Node13</title>
<g id="a_node13"><a xlink:href="tag_8h.html" target="_top" xlink:title=" ">
<polygon fill="white" stroke="black" points="920.5,-224.5 920.5,-243.5 961.5,-243.5 961.5,-224.5 920.5,-224.5"/>
<text text-anchor="middle" x="941" y="-231.5" font-family="Helvetica,sans-Serif" font-size="10.00">tag.h</text>
</a>
</g>
</g>
<!-- Node1&#45;&gt;Node13 -->
<g id="edge71" class="edge">
<title>Node1&#45;&gt;Node13</title>
<path fill="none" stroke="midnightblue" d="M145.01,-568.35C298.65,-564.73 971,-544.03 971,-459 971,-459 971,-459 971,-345 971,-311.64 958,-274.53 949.11,-253.07"/>
<polygon fill="midnightblue" stroke="midnightblue" points="952.22,-251.42 945.05,-243.62 945.79,-254.19 952.22,-251.42"/>
</g>
<!-- Node25 -->
<g id="node25" class="node">
<title>Node25</title>
<g id="a_node25"><a xlink:href="mp4tag_8h.html" target="_top" xlink:title=" ">
<polygon fill="white" stroke="black" points="669.5,-504.5 669.5,-523.5 732.5,-523.5 732.5,-504.5 669.5,-504.5"/>
<text text-anchor="middle" x="701" y="-511.5" font-family="Helvetica,sans-Serif" font-size="10.00">mp4tag.h</text>
</a>
</g>
</g>
<!-- Node1&#45;&gt;Node25 -->
<g id="edge44" class="edge">
<title>Node1&#45;&gt;Node25</title>
<path fill="none" stroke="midnightblue" d="M145.15,-566.13C243.42,-557.09 547.06,-529.16 658.99,-518.86"/>
<polygon fill="midnightblue" stroke="midnightblue" points="659.58,-522.33 669.22,-517.92 658.94,-515.35 659.58,-522.33"/>
</g>
<!-- Node32 -->
<g id="node32" class="node">
<title>Node32</title>
<g id="a_node32"><a xlink:href="mp4properties_8h.html" target="_top" xlink:title=" ">
<polygon fill="white" stroke="black" points="180.5,-168.5 180.5,-187.5 277.5,-187.5 277.5,-168.5 180.5,-168.5"/>
<text text-anchor="middle" x="229" y="-175.5" font-family="Helvetica,sans-Serif" font-size="10.00">mp4properties.h</text>
</a>
</g>
</g>
<!-- Node1&#45;&gt;Node32 -->
<g id="edge72" class="edge">
<title>Node1&#45;&gt;Node32</title>
<path fill="none" stroke="midnightblue" d="M108.72,-560.23C98.27,-542.04 76,-498.6 76,-459 76,-459 76,-459 76,-401 76,-308.36 167.45,-226.27 208.95,-193.79"/>
<polygon fill="midnightblue" stroke="midnightblue" points="211.18,-196.49 216.99,-187.63 206.93,-190.93 211.18,-196.49"/>
</g>
<!-- Node3 -->
<g id="node3" class="node">
<title>Node3</title>
<g id="a_node3"><a xlink:href="tbytevector_8h.html" target="_top" xlink:title=" ">
<polygon fill="white" stroke="black" points="642.5,-112.5 642.5,-131.5 723.5,-131.5 723.5,-112.5 642.5,-112.5"/>
<text text-anchor="middle" x="683" y="-119.5" font-family="Helvetica,sans-Serif" font-size="10.00">tbytevector.h</text>
</a>
</g>
</g>
<!-- Node2&#45;&gt;Node3 -->
<g id="edge2" class="edge">
<title>Node2&#45;&gt;Node3</title>
<path fill="none" stroke="midnightblue" d="M436.29,-280.44C444.56,-271.68 457.4,-257.47 467,-244 489.66,-212.22 479.95,-191.65 511,-168 529.96,-153.55 588.66,-140.16 632.24,-131.8"/>
<polygon fill="midnightblue" stroke="midnightblue" points="632.95,-135.23 642.13,-129.95 631.65,-128.35 632.95,-135.23"/>
</g>
<!-- Node7 -->
<g id="node7" class="node">
<title>Node7</title>
<g id="a_node7"><a xlink:href="taglib_8h.html" target="_top" xlink:title=" ">
<polygon fill="white" stroke="black" points="587.5,-56.5 587.5,-75.5 640.5,-75.5 640.5,-56.5 587.5,-56.5"/>
<text text-anchor="middle" x="614" y="-63.5" font-family="Helvetica,sans-Serif" font-size="10.00">taglib.h</text>
</a>
</g>
</g>
<!-- Node2&#45;&gt;Node7 -->
<g id="edge16" class="edge">
<title>Node2&#45;&gt;Node7</title>
<path fill="none" stroke="midnightblue" d="M429.96,-280.36C435.36,-258.48 452.44,-200.34 488,-168 521.09,-137.9 548.95,-162.15 582,-132 595.63,-119.57 604.14,-100.06 608.93,-85.65"/>
<polygon fill="midnightblue" stroke="midnightblue" points="612.35,-86.42 611.89,-75.83 605.65,-84.4 612.35,-86.42"/>
</g>
<!-- Node2&#45;&gt;Node11 -->
<g id="edge15" class="edge">
<title>Node2&#45;&gt;Node11</title>
<path fill="none" stroke="midnightblue" d="M405.88,-288.06C354.3,-284.55 226.3,-267.79 172,-188 146.56,-150.62 195.78,-104.87 225.95,-81.81"/>
<polygon fill="midnightblue" stroke="midnightblue" points="228.28,-84.43 234.23,-75.67 224.11,-78.81 228.28,-84.43"/>
</g>
<!-- Node12 -->
<g id="node12" class="node">
<title>Node12</title>
<g id="a_node12"><a xlink:href="tiostream_8h.html" target="_top" xlink:title=" ">
<polygon fill="white" stroke="black" points="351.5,-168.5 351.5,-187.5 424.5,-187.5 424.5,-168.5 351.5,-168.5"/>
<text text-anchor="middle" x="388" y="-175.5" font-family="Helvetica,sans-Serif" font-size="10.00">tiostream.h</text>
</a>
</g>
</g>
<!-- Node2&#45;&gt;Node12 -->
<g id="edge11" class="edge">
<title>Node2&#45;&gt;Node12</title>
<path fill="none" stroke="midnightblue" d="M424.86,-280.37C418.38,-262.54 403.38,-221.3 394.64,-197.27"/>
<polygon fill="midnightblue" stroke="midnightblue" points="397.83,-195.79 391.12,-187.59 391.25,-198.19 397.83,-195.79"/>
</g>
<!-- Node2&#45;&gt;Node13 -->
<g id="edge17" class="edge">
<title>Node2&#45;&gt;Node13</title>
<path fill="none" stroke="midnightblue" d="M450.04,-286.68C531.57,-278.1 816.18,-248.14 910.43,-238.22"/>
<polygon fill="midnightblue" stroke="midnightblue" points="910.88,-241.69 920.45,-237.16 910.14,-234.73 910.88,-241.69"/>
</g>
<!-- Node4 -->
<g id="node4" class="node">
<title>Node4</title>
<g id="a_node4"><a xlink:title=" ">
<polygon fill="white" stroke="#bfbfbf" points="838,-56.5 838,-75.5 898,-75.5 898,-56.5 838,-56.5"/>
<text text-anchor="middle" x="868" y="-63.5" font-family="Helvetica,sans-Serif" font-size="10.00">iostream</text>
</a>
</g>
</g>
<!-- Node3&#45;&gt;Node4 -->
<g id="edge3" class="edge">
<title>Node3&#45;&gt;Node4</title>
<path fill="none" stroke="midnightblue" d="M712.31,-112.44C743.84,-103.24 794.13,-88.56 828.99,-78.39"/>
<polygon fill="midnightblue" stroke="midnightblue" points="830.2,-81.68 838.82,-75.52 828.24,-74.96 830.2,-81.68"/>
</g>
<!-- Node5 -->
<g id="node5" class="node">
<title>Node5</title>
<g id="a_node5"><a xlink:title=" ">
<polygon fill="white" stroke="#bfbfbf" points="762,-56.5 762,-75.5 820,-75.5 820,-56.5 762,-56.5"/>
<text text-anchor="middle" x="791" y="-63.5" font-family="Helvetica,sans-Serif" font-size="10.00">memory</text>
</a>
</g>
</g>
<!-- Node3&#45;&gt;Node5 -->
<g id="edge4" class="edge">
<title>Node3&#45;&gt;Node5</title>
<path fill="none" stroke="midnightblue" d="M700.35,-112.32C717.67,-103.66 744.52,-90.24 764.5,-80.25"/>
<polygon fill="midnightblue" stroke="midnightblue" points="766.31,-83.26 773.69,-75.65 763.18,-77 766.31,-83.26"/>
</g>
<!-- Node6 -->
<g id="node6" class="node">
<title>Node6</title>
<g id="a_node6"><a xlink:title=" ">
<polygon fill="white" stroke="#bfbfbf" points="658.5,-56.5 658.5,-75.5 705.5,-75.5 705.5,-56.5 658.5,-56.5"/>
<text text-anchor="middle" x="682" y="-63.5" font-family="Helvetica,sans-Serif" font-size="10.00">vector</text>
</a>
</g>
</g>
<!-- Node3&#45;&gt;Node6 -->
<g id="edge5" class="edge">
<title>Node3&#45;&gt;Node6</title>
<path fill="none" stroke="midnightblue" d="M682.83,-112.08C682.7,-105.01 682.52,-94.86 682.35,-85.99"/>
<polygon fill="midnightblue" stroke="midnightblue" points="685.85,-85.68 682.16,-75.75 678.85,-85.81 685.85,-85.68"/>
</g>
<!-- Node3&#45;&gt;Node7 -->
<g id="edge6" class="edge">
<title>Node3&#45;&gt;Node7</title>
<path fill="none" stroke="midnightblue" d="M671.91,-112.32C661.51,-104.18 645.74,-91.84 633.28,-82.09"/>
<polygon fill="midnightblue" stroke="midnightblue" points="635.32,-79.24 625.29,-75.83 631.01,-84.75 635.32,-79.24"/>
</g>
<!-- Node3&#45;&gt;Node11 -->
<g id="edge10" class="edge">
<title>Node3&#45;&gt;Node11</title>
<path fill="none" stroke="midnightblue" d="M642.37,-115.97C563.88,-106.25 391.3,-84.87 302.38,-73.86"/>
<polygon fill="midnightblue" stroke="midnightblue" points="302.58,-70.36 292.22,-72.6 301.72,-77.3 302.58,-70.36"/>
</g>
<!-- Node8 -->
<g id="node8" class="node">
<title>Node8</title>
<g id="a_node8"><a xlink:title=" ">
<polygon fill="white" stroke="#bfbfbf" points="579,-0.5 579,-19.5 667,-19.5 667,-0.5 579,-0.5"/>
<text text-anchor="middle" x="623" y="-7.5" font-family="Helvetica,sans-Serif" font-size="10.00">taglib_config.h</text>
</a>
</g>
</g>
<!-- Node7&#45;&gt;Node8 -->
<g id="edge7" class="edge">
<title>Node7&#45;&gt;Node8</title>
<path fill="none" stroke="midnightblue" d="M615.49,-56.08C616.68,-48.93 618.39,-38.64 619.88,-29.69"/>
<polygon fill="midnightblue" stroke="midnightblue" points="623.35,-30.19 621.54,-19.75 616.45,-29.04 623.35,-30.19"/>
</g>
<!-- Node9 -->
<g id="node9" class="node">
<title>Node9</title>
<g id="a_node9"><a xlink:title=" ">
<polygon fill="white" stroke="#bfbfbf" points="489,-0.5 489,-19.5 561,-19.5 561,-0.5 489,-0.5"/>
<text text-anchor="middle" x="525" y="-7.5" font-family="Helvetica,sans-Serif" font-size="10.00">sys/types.h</text>
</a>
</g>
</g>
<!-- Node7&#45;&gt;Node9 -->
<g id="edge8" class="edge">
<title>Node7&#45;&gt;Node9</title>
<path fill="none" stroke="midnightblue" d="M599.7,-56.32C585.82,-47.9 564.51,-34.97 548.2,-25.07"/>
<polygon fill="midnightblue" stroke="midnightblue" points="549.63,-21.85 539.26,-19.65 546,-27.83 549.63,-21.85"/>
</g>
<!-- Node10 -->
<g id="node10" class="node">
<title>Node10</title>
<g id="a_node10"><a xlink:title=" ">
<polygon fill="white" stroke="#bfbfbf" points="703,-0.5 703,-19.5 747,-19.5 747,-0.5 703,-0.5"/>
<text text-anchor="middle" x="725" y="-7.5" font-family="Helvetica,sans-Serif" font-size="10.00">string</text>
</a>
</g>
</g>
<!-- Node7&#45;&gt;Node10 -->
<g id="edge9" class="edge">
<title>Node7&#45;&gt;Node10</title>
<path fill="none" stroke="midnightblue" d="M631.83,-56.32C649.72,-47.62 677.48,-34.12 698.05,-24.11"/>
<polygon fill="midnightblue" stroke="midnightblue" points="699.75,-27.18 707.21,-19.65 696.69,-20.88 699.75,-27.18"/>
</g>
<!-- Node12&#45;&gt;Node3 -->
<g id="edge12" class="edge">
<title>Node12&#45;&gt;Node3</title>
<path fill="none" stroke="midnightblue" d="M424.77,-170.27C477.18,-160.68 573.56,-143.03 632.6,-132.23"/>
<polygon fill="midnightblue" stroke="midnightblue" points="633.25,-135.66 642.46,-130.42 631.99,-128.78 633.25,-135.66"/>
</g>
<!-- Node12&#45;&gt;Node7 -->
<g id="edge14" class="edge">
<title>Node12&#45;&gt;Node7</title>
<path fill="none" stroke="midnightblue" d="M424.6,-169.86C467.35,-161.08 535.01,-145.65 557,-132 576.46,-119.92 592.97,-99.15 603.13,-84.34"/>
<polygon fill="midnightblue" stroke="midnightblue" points="606.3,-85.9 608.87,-75.62 600.45,-82.05 606.3,-85.9"/>
</g>
<!-- Node12&#45;&gt;Node11 -->
<g id="edge13" class="edge">
<title>Node12&#45;&gt;Node11</title>
<path fill="none" stroke="midnightblue" d="M359.02,-168.47C338.13,-161.25 310.19,-149.3 290,-132 274.79,-118.97 262.79,-99.27 255.37,-84.97"/>
<polygon fill="midnightblue" stroke="midnightblue" points="258.36,-83.11 250.8,-75.69 252.08,-86.21 258.36,-83.11"/>
</g>
<!-- Node13&#45;&gt;Node11 -->
<g id="edge18" class="edge">
<title>Node13&#45;&gt;Node11</title>
<path fill="none" stroke="midnightblue" d="M920.21,-229.55C878.73,-222.57 782.81,-205.89 703,-188 668.5,-180.27 660.7,-174.79 626,-168 507.19,-144.74 469.29,-174.68 356,-132 341,-126.35 339.64,-120.42 326,-112 308.2,-101.02 287.66,-89.35 271.99,-80.65"/>
<polygon fill="midnightblue" stroke="midnightblue" points="273.38,-77.41 262.93,-75.64 269.99,-83.54 273.38,-77.41"/>
</g>
<!-- Node14 -->
<g id="node14" class="node">
<title>Node14</title>
<g id="a_node14"><a xlink:href="tstring_8h.html" target="_top" xlink:title=" ">
<polygon fill="white" stroke="black" points="711.5,-168.5 711.5,-187.5 768.5,-187.5 768.5,-168.5 711.5,-168.5"/>
<text text-anchor="middle" x="740" y="-175.5" font-family="Helvetica,sans-Serif" font-size="10.00">tstring.h</text>
</a>
</g>
</g>
<!-- Node13&#45;&gt;Node14 -->
<g id="edge19" class="edge">
<title>Node13&#45;&gt;Node14</title>
<path fill="none" stroke="midnightblue" d="M920.25,-227.42C886.89,-218.46 820.81,-200.71 778.6,-189.37"/>
<polygon fill="midnightblue" stroke="midnightblue" points="779.24,-185.92 768.68,-186.7 777.43,-192.68 779.24,-185.92"/>
</g>
<!-- Node15 -->
<g id="node15" class="node">
<title>Node15</title>
<g id="a_node15"><a xlink:href="tlist_8h.html" target="_top" xlink:title=" ">
<polygon fill="white" stroke="black" points="894,-112.5 894,-131.5 938,-131.5 938,-112.5 894,-112.5"/>
<text text-anchor="middle" x="916" y="-119.5" font-family="Helvetica,sans-Serif" font-size="10.00">tlist.h</text>
</a>
</g>
</g>
<!-- Node13&#45;&gt;Node15 -->
<g id="edge25" class="edge">
<title>Node13&#45;&gt;Node15</title>
<path fill="none" stroke="midnightblue" d="M939.04,-224.37C935,-206.62 925.7,-165.67 920.23,-141.6"/>
<polygon fill="midnightblue" stroke="midnightblue" points="923.58,-140.57 917.95,-131.59 916.76,-142.12 923.58,-140.57"/>
</g>
<!-- Node19 -->
<g id="node19" class="node">
<title>Node19</title>
<g id="a_node19"><a xlink:href="tvariant_8h.html" target="_top" xlink:title=" ">
<polygon fill="white" stroke="black" points="977,-168.5 977,-187.5 1041,-187.5 1041,-168.5 977,-168.5"/>
<text text-anchor="middle" x="1009" y="-175.5" font-family="Helvetica,sans-Serif" font-size="10.00">tvariant.h</text>
</a>
</g>
</g>
<!-- Node13&#45;&gt;Node19 -->
<g id="edge31" class="edge">
<title>Node13&#45;&gt;Node19</title>
<path fill="none" stroke="midnightblue" d="M951.93,-224.32C962.17,-216.18 977.72,-203.84 990,-194.09"/>
<polygon fill="midnightblue" stroke="midnightblue" points="992.22,-196.79 997.88,-187.83 987.87,-191.31 992.22,-196.79"/>
</g>
<!-- Node14&#45;&gt;Node3 -->
<g id="edge22" class="edge">
<title>Node14&#45;&gt;Node3</title>
<path fill="none" stroke="midnightblue" d="M730.84,-168.32C722.5,-160.42 709.97,-148.55 699.82,-138.94"/>
<polygon fill="midnightblue" stroke="midnightblue" points="701.99,-136.17 692.32,-131.83 697.18,-141.25 701.99,-136.17"/>
</g>
<!-- Node14&#45;&gt;Node4 -->
<g id="edge20" class="edge">
<title>Node14&#45;&gt;Node4</title>
<path fill="none" stroke="midnightblue" d="M753.76,-168.36C767.09,-159.76 787.63,-145.87 804,-132 822.01,-116.74 840.75,-97.21 853.25,-83.56"/>
<polygon fill="midnightblue" stroke="midnightblue" points="856.06,-85.68 860.18,-75.91 850.87,-80.98 856.06,-85.68"/>
</g>
<!-- Node14&#45;&gt;Node7 -->
<g id="edge24" class="edge">
<title>Node14&#45;&gt;Node7</title>
<path fill="none" stroke="midnightblue" d="M741.68,-168.39C743.8,-154.87 745.78,-128.52 733,-112 722.54,-98.48 681.25,-84.86 650.21,-76.2"/>
<polygon fill="midnightblue" stroke="midnightblue" points="651.12,-72.82 640.55,-73.57 649.28,-79.58 651.12,-72.82"/>
</g>
<!-- Node14&#45;&gt;Node10 -->
<g id="edge21" class="edge">
<title>Node14&#45;&gt;Node10</title>
<path fill="none" stroke="midnightblue" d="M742.73,-168.49C745.45,-159.52 749.44,-144.94 751,-132 755.46,-95 741.94,-52.6 732.76,-29.09"/>
<polygon fill="midnightblue" stroke="midnightblue" points="735.95,-27.65 728.93,-19.71 729.47,-30.29 735.95,-27.65"/>
</g>
<!-- Node14&#45;&gt;Node11 -->
<g id="edge23" class="edge">
<title>Node14&#45;&gt;Node11</title>
<path fill="none" stroke="midnightblue" d="M711.29,-173.59C635.43,-164.52 433.44,-139.96 404,-132 381.69,-125.97 377.35,-120.85 356,-112 329.43,-100.98 299.2,-88.5 277.32,-79.49"/>
<polygon fill="midnightblue" stroke="midnightblue" points="278.48,-76.18 267.9,-75.61 275.82,-82.65 278.48,-76.18"/>
</g>
<!-- Node15&#45;&gt;Node5 -->
<g id="edge28" class="edge">
<title>Node15&#45;&gt;Node5</title>
<path fill="none" stroke="midnightblue" d="M896.19,-112.44C875.71,-103.6 843.52,-89.69 820.14,-79.59"/>
<polygon fill="midnightblue" stroke="midnightblue" points="821.28,-76.27 810.71,-75.52 818.51,-82.7 821.28,-76.27"/>
</g>
<!-- Node15&#45;&gt;Node7 -->
<g id="edge29" class="edge">
<title>Node15&#45;&gt;Node7</title>
<path fill="none" stroke="midnightblue" d="M893.82,-117.84C849.56,-111.41 746.97,-95.88 650.59,-75.98"/>
<polygon fill="midnightblue" stroke="midnightblue" points="651.19,-72.53 640.68,-73.92 649.76,-79.38 651.19,-72.53"/>
</g>
<!-- Node16 -->
<g id="node16" class="node">
<title>Node16</title>
<g id="a_node16"><a xlink:title=" ">
<polygon fill="white" stroke="#bfbfbf" points="988,-56.5 988,-75.5 1020,-75.5 1020,-56.5 988,-56.5"/>
<text text-anchor="middle" x="1004" y="-63.5" font-family="Helvetica,sans-Serif" font-size="10.00">list</text>
</a>
</g>
</g>
<!-- Node15&#45;&gt;Node16 -->
<g id="edge26" class="edge">
<title>Node15&#45;&gt;Node16</title>
<path fill="none" stroke="midnightblue" d="M930.14,-112.32C943.87,-103.9 964.94,-90.97 981.06,-81.07"/>
<polygon fill="midnightblue" stroke="midnightblue" points="983.2,-83.87 989.9,-75.65 979.54,-77.9 983.2,-83.87"/>
</g>
<!-- Node17 -->
<g id="node17" class="node">
<title>Node17</title>
<g id="a_node17"><a xlink:title=" ">
<polygon fill="white" stroke="#bfbfbf" points="1038.5,-56.5 1038.5,-75.5 1121.5,-75.5 1121.5,-56.5 1038.5,-56.5"/>
<text text-anchor="middle" x="1080" y="-63.5" font-family="Helvetica,sans-Serif" font-size="10.00">initializer_list</text>
</a>
</g>
</g>
<!-- Node15&#45;&gt;Node17 -->
<g id="edge27" class="edge">
<title>Node15&#45;&gt;Node17</title>
<path fill="none" stroke="midnightblue" d="M938.12,-113.72C965.37,-104.74 1012.04,-89.38 1044.37,-78.73"/>
<polygon fill="midnightblue" stroke="midnightblue" points="1045.51,-82.04 1053.91,-75.59 1043.32,-75.39 1045.51,-82.04"/>
</g>
<!-- Node18 -->
<g id="node18" class="node">
<title>Node18</title>
<g id="a_node18"><a xlink:title=" ">
<polygon fill="white" stroke="#bfbfbf" points="916.5,-56.5 916.5,-75.5 969.5,-75.5 969.5,-56.5 916.5,-56.5"/>
<text text-anchor="middle" x="943" y="-63.5" font-family="Helvetica,sans-Serif" font-size="10.00">tlist.tcc</text>
</a>
</g>
</g>
<!-- Node15&#45;&gt;Node18 -->
<g id="edge30" class="edge">
<title>Node15&#45;&gt;Node18</title>
<path fill="none" stroke="midnightblue" d="M920.46,-112.08C924.15,-104.69 929.52,-93.95 934.09,-84.81"/>
<polygon fill="midnightblue" stroke="midnightblue" points="937.28,-86.26 938.62,-75.75 931.02,-83.13 937.28,-86.26"/>
</g>
<!-- Node19&#45;&gt;Node4 -->
<g id="edge33" class="edge">
<title>Node19&#45;&gt;Node4</title>
<path fill="none" stroke="midnightblue" d="M1016.74,-168.17C1027.47,-154.83 1044.13,-129.25 1031,-112 1027.18,-106.98 955,-88.41 907.99,-76.76"/>
<polygon fill="midnightblue" stroke="midnightblue" points="908.63,-73.31 898.08,-74.31 906.95,-80.11 908.63,-73.31"/>
</g>
<!-- Node19&#45;&gt;Node11 -->
<g id="edge42" class="edge">
<title>Node19&#45;&gt;Node11</title>
<path fill="none" stroke="midnightblue" d="M976.92,-175.98C872.08,-172.39 540.33,-159.15 437,-132 416.61,-126.64 413.68,-119.55 394,-112 359.45,-98.75 319.2,-86.65 289.57,-78.34"/>
<polygon fill="midnightblue" stroke="midnightblue" points="290.12,-74.87 279.55,-75.57 288.25,-81.61 290.12,-74.87"/>
</g>
<!-- Node19&#45;&gt;Node15 -->
<g id="edge34" class="edge">
<title>Node19&#45;&gt;Node15</title>
<path fill="none" stroke="midnightblue" d="M994.06,-168.32C979.41,-159.82 956.87,-146.73 939.76,-136.8"/>
<polygon fill="midnightblue" stroke="midnightblue" points="941.31,-133.65 930.9,-131.65 937.8,-139.7 941.31,-133.65"/>
</g>
<!-- Node20 -->
<g id="node20" class="node">
<title>Node20</title>
<g id="a_node20"><a xlink:title=" ">
<polygon fill="white" stroke="#bfbfbf" points="956.5,-112.5 956.5,-131.5 1021.5,-131.5 1021.5,-112.5 956.5,-112.5"/>
<text text-anchor="middle" x="989" y="-119.5" font-family="Helvetica,sans-Serif" font-size="10.00">memory.h</text>
</a>
</g>
</g>
<!-- Node19&#45;&gt;Node20 -->
<g id="edge32" class="edge">
<title>Node19&#45;&gt;Node20</title>
<path fill="none" stroke="midnightblue" d="M1005.7,-168.08C1003.02,-160.85 999.15,-150.41 995.81,-141.4"/>
<polygon fill="midnightblue" stroke="midnightblue" points="999,-139.91 992.24,-131.75 992.43,-142.34 999,-139.91"/>
</g>
<!-- Node21 -->
<g id="node21" class="node">
<title>Node21</title>
<g id="a_node21"><a xlink:href="tmap_8h.html" target="_top" xlink:title=" ">
<polygon fill="white" stroke="black" points="1078.5,-112.5 1078.5,-131.5 1129.5,-131.5 1129.5,-112.5 1078.5,-112.5"/>
<text text-anchor="middle" x="1104" y="-119.5" font-family="Helvetica,sans-Serif" font-size="10.00">tmap.h</text>
</a>
</g>
</g>
<!-- Node19&#45;&gt;Node21 -->
<g id="edge35" class="edge">
<title>Node19&#45;&gt;Node21</title>
<path fill="none" stroke="midnightblue" d="M1024.26,-168.32C1039.22,-159.82 1062.25,-146.73 1079.73,-136.8"/>
<polygon fill="midnightblue" stroke="midnightblue" points="1081.81,-139.64 1088.77,-131.65 1078.35,-133.55 1081.81,-139.64"/>
</g>
<!-- Node21&#45;&gt;Node5 -->
<g id="edge37" class="edge">
<title>Node21&#45;&gt;Node5</title>
<path fill="none" stroke="midnightblue" d="M1078.49,-117.44C1031.41,-110.73 927.52,-95.33 830.02,-76.09"/>
<polygon fill="midnightblue" stroke="midnightblue" points="830.49,-72.61 820,-74.09 829.12,-79.48 830.49,-72.61"/>
</g>
<!-- Node21&#45;&gt;Node7 -->
<g id="edge40" class="edge">
<title>Node21&#45;&gt;Node7</title>
<path fill="none" stroke="midnightblue" d="M1078.34,-117.66C1064.36,-115.88 1046.74,-113.71 1031,-112 865.13,-93.94 819.38,-104.3 650.61,-75.84"/>
<polygon fill="midnightblue" stroke="midnightblue" points="651.09,-72.37 640.64,-74.14 649.91,-79.27 651.09,-72.37"/>
</g>
<!-- Node21&#45;&gt;Node17 -->
<g id="edge38" class="edge">
<title>Node21&#45;&gt;Node17</title>
<path fill="none" stroke="midnightblue" d="M1100.04,-112.08C1096.79,-104.77 1092.08,-94.18 1088.05,-85.1"/>
<polygon fill="midnightblue" stroke="midnightblue" points="1091.15,-83.47 1083.89,-75.75 1084.75,-86.31 1091.15,-83.47"/>
</g>
<!-- Node22 -->
<g id="node22" class="node">
<title>Node22</title>
<g id="a_node22"><a xlink:title=" ">
<polygon fill="white" stroke="#bfbfbf" points="1140,-56.5 1140,-75.5 1178,-75.5 1178,-56.5 1140,-56.5"/>
<text text-anchor="middle" x="1159" y="-63.5" font-family="Helvetica,sans-Serif" font-size="10.00">map</text>
</a>
</g>
</g>
<!-- Node21&#45;&gt;Node22 -->
<g id="edge36" class="edge">
<title>Node21&#45;&gt;Node22</title>
<path fill="none" stroke="midnightblue" d="M1113.08,-112.08C1121.17,-104.14 1133.2,-92.34 1142.91,-82.8"/>
<polygon fill="midnightblue" stroke="midnightblue" points="1145.4,-85.25 1150.09,-75.75 1140.5,-80.26 1145.4,-85.25"/>
</g>
<!-- Node23 -->
<g id="node23" class="node">
<title>Node23</title>
<g id="a_node23"><a xlink:title=" ">
<polygon fill="white" stroke="#bfbfbf" points="1196.5,-56.5 1196.5,-75.5 1241.5,-75.5 1241.5,-56.5 1196.5,-56.5"/>
<text text-anchor="middle" x="1219" y="-63.5" font-family="Helvetica,sans-Serif" font-size="10.00">utility</text>
</a>
</g>
</g>
<!-- Node21&#45;&gt;Node23 -->
<g id="edge39" class="edge">
<title>Node21&#45;&gt;Node23</title>
<path fill="none" stroke="midnightblue" d="M1122.22,-112.44C1140.9,-103.68 1170.16,-89.94 1191.62,-79.86"/>
<polygon fill="midnightblue" stroke="midnightblue" points="1193.3,-82.93 1200.86,-75.52 1190.32,-76.6 1193.3,-82.93"/>
</g>
<!-- Node24 -->
<g id="node24" class="node">
<title>Node24</title>
<g id="a_node24"><a xlink:title=" ">
<polygon fill="white" stroke="#bfbfbf" points="1259.5,-56.5 1259.5,-75.5 1318.5,-75.5 1318.5,-56.5 1259.5,-56.5"/>
<text text-anchor="middle" x="1289" y="-63.5" font-family="Helvetica,sans-Serif" font-size="10.00">tmap.tcc</text>
</a>
</g>
</g>
<!-- Node21&#45;&gt;Node24 -->
<g id="edge41" class="edge">
<title>Node21&#45;&gt;Node24</title>
<path fill="none" stroke="midnightblue" d="M1129.72,-113.49C1160.94,-104.38 1213.89,-88.92 1250.1,-78.35"/>
<polygon fill="midnightblue" stroke="midnightblue" points="1251.22,-81.67 1259.84,-75.51 1249.26,-74.95 1251.22,-81.67"/>
</g>
<!-- Node25&#45;&gt;Node2 -->
<g id="edge49" class="edge">
<title>Node25&#45;&gt;Node2</title>
<path fill="none" stroke="midnightblue" d="M680.12,-504.4C661.65,-496.31 634.4,-483.21 613,-468 542.16,-417.64 471.61,-340.95 442.23,-307.53"/>
<polygon fill="midnightblue" stroke="midnightblue" points="444.58,-304.9 435.37,-299.66 439.3,-309.5 444.58,-304.9"/>
</g>
<!-- Node25&#45;&gt;Node11 -->
<g id="edge57" class="edge">
<title>Node25&#45;&gt;Node11</title>
<path fill="none" stroke="midnightblue" d="M669.47,-509.48C537.71,-493.89 38,-425.89 38,-291 38,-291 38,-291 38,-177 38,-107.38 129.95,-81.72 191.87,-72.33"/>
<polygon fill="midnightblue" stroke="midnightblue" points="192.5,-75.78 201.91,-70.91 191.52,-68.85 192.5,-75.78"/>
</g>
<!-- Node25&#45;&gt;Node13 -->
<g id="edge58" class="edge">
<title>Node25&#45;&gt;Node13</title>
<path fill="none" stroke="midnightblue" d="M732.77,-512.13C796.31,-508.53 933,-490.59 933,-403 933,-403 933,-403 933,-345 933,-312.86 936.44,-275.58 938.81,-253.72"/>
<polygon fill="midnightblue" stroke="midnightblue" points="942.31,-253.87 939.95,-243.54 935.36,-253.09 942.31,-253.87"/>
</g>
<!-- Node25&#45;&gt;Node21 -->
<g id="edge50" class="edge">
<title>Node25&#45;&gt;Node21</title>
<path fill="none" stroke="midnightblue" d="M732.51,-510.8C824.46,-503.51 1086,-476.34 1086,-403 1086,-403 1086,-403 1086,-233 1086,-200.54 1093.73,-163.38 1099.06,-141.63"/>
<polygon fill="midnightblue" stroke="midnightblue" points="1102.49,-142.32 1101.57,-131.76 1095.71,-140.59 1102.49,-142.32"/>
</g>
<!-- Node26 -->
<g id="node26" class="node">
<title>Node26</title>
<g id="a_node26"><a xlink:href="tbytevectorlist_8h.html" target="_top" xlink:title=" ">
<polygon fill="white" stroke="black" points="519.5,-168.5 519.5,-187.5 616.5,-187.5 616.5,-168.5 519.5,-168.5"/>
<text text-anchor="middle" x="568" y="-175.5" font-family="Helvetica,sans-Serif" font-size="10.00">tbytevectorlist.h</text>
</a>
</g>
</g>
<!-- Node25&#45;&gt;Node26 -->
<g id="edge45" class="edge">
<title>Node25&#45;&gt;Node26</title>
<path fill="none" stroke="midnightblue" d="M689.76,-504.36C669.06,-487.38 627,-447.42 627,-403 627,-403 627,-403 627,-289 627,-252.02 600.79,-215.47 583.31,-195.21"/>
<polygon fill="midnightblue" stroke="midnightblue" points="585.74,-192.67 576.45,-187.56 580.53,-197.34 585.74,-192.67"/>
</g>
<!-- Node27 -->
<g id="node27" class="node">
<title>Node27</title>
<g id="a_node27"><a xlink:href="tstringlist_8h.html" target="_top" xlink:title=" ">
<polygon fill="white" stroke="black" points="754,-224.5 754,-243.5 826,-243.5 826,-224.5 754,-224.5"/>
<text text-anchor="middle" x="790" y="-231.5" font-family="Helvetica,sans-Serif" font-size="10.00">tstringlist.h</text>
</a>
</g>
</g>
<!-- Node25&#45;&gt;Node27 -->
<g id="edge51" class="edge">
<title>Node25&#45;&gt;Node27</title>
<path fill="none" stroke="midnightblue" d="M732.6,-509.57C787.57,-501.66 895,-476.76 895,-403 895,-403 895,-403 895,-345 895,-300.02 848.49,-266.19 817.38,-248.59"/>
<polygon fill="midnightblue" stroke="midnightblue" points="818.75,-245.35 808.29,-243.65 815.41,-251.5 818.75,-245.35"/>
</g>
<!-- Node28 -->
<g id="node28" class="node">
<title>Node28</title>
<g id="a_node28"><a xlink:href="mp4atom_8h.html" target="_top" xlink:title=" ">
<polygon fill="white" stroke="black" points="749.5,-336.5 749.5,-355.5 822.5,-355.5 822.5,-336.5 749.5,-336.5"/>
<text text-anchor="middle" x="786" y="-343.5" font-family="Helvetica,sans-Serif" font-size="10.00">mp4atom.h</text>
</a>
</g>
</g>
<!-- Node25&#45;&gt;Node28 -->
<g id="edge59" class="edge">
<title>Node25&#45;&gt;Node28</title>
<path fill="none" stroke="midnightblue" d="M711.82,-504.42C721.7,-496.06 736.08,-482.53 745,-468 765.32,-434.89 777.03,-390.43 782.4,-365.67"/>
<polygon fill="midnightblue" stroke="midnightblue" points="785.84,-366.28 784.42,-355.78 778.99,-364.88 785.84,-366.28"/>
</g>
<!-- Node30 -->
<g id="node30" class="node">
<title>Node30</title>
<g id="a_node30"><a xlink:href="mp4item_8h.html" target="_top" xlink:title=" ">
<polygon fill="white" stroke="black" points="666,-448.5 666,-467.5 736,-467.5 736,-448.5 666,-448.5"/>
<text text-anchor="middle" x="701" y="-455.5" font-family="Helvetica,sans-Serif" font-size="10.00">mp4item.h</text>
</a>
</g>
</g>
<!-- Node25&#45;&gt;Node30 -->
<g id="edge63" class="edge">
<title>Node25&#45;&gt;Node30</title>
<path fill="none" stroke="midnightblue" d="M701,-504.08C701,-497.01 701,-486.86 701,-477.99"/>
<polygon fill="midnightblue" stroke="midnightblue" points="704.5,-477.75 701,-467.75 697.5,-477.75 704.5,-477.75"/>
</g>
<!-- Node26&#45;&gt;Node3 -->
<g id="edge46" class="edge">
<title>Node26&#45;&gt;Node3</title>
<path fill="none" stroke="midnightblue" d="M586.22,-168.44C604.9,-159.68 634.16,-145.94 655.62,-135.86"/>
<polygon fill="midnightblue" stroke="midnightblue" points="657.3,-138.93 664.86,-131.52 654.32,-132.6 657.3,-138.93"/>
</g>
<!-- Node26&#45;&gt;Node11 -->
<g id="edge48" class="edge">
<title>Node26&#45;&gt;Node11</title>
<path fill="none" stroke="midnightblue" d="M519.46,-174.82C469.44,-171.02 390.21,-160.59 328,-132 302.05,-120.07 277.2,-98.02 262.03,-82.94"/>
<polygon fill="midnightblue" stroke="midnightblue" points="264.52,-80.48 255.02,-75.78 259.51,-85.38 264.52,-80.48"/>
</g>
<!-- Node26&#45;&gt;Node15 -->
<g id="edge47" class="edge">
<title>Node26&#45;&gt;Node15</title>
<path fill="none" stroke="midnightblue" d="M616.75,-169.43C688.93,-158.24 822.26,-137.55 883.59,-128.03"/>
<polygon fill="midnightblue" stroke="midnightblue" points="884.48,-131.43 893.83,-126.44 883.41,-124.52 884.48,-131.43"/>
</g>
<!-- Node27&#45;&gt;Node4 -->
<g id="edge52" class="edge">
<title>Node27&#45;&gt;Node4</title>
<path fill="none" stroke="midnightblue" d="M794.19,-224.08C806.58,-197.72 843.15,-119.88 859.7,-84.66"/>
<polygon fill="midnightblue" stroke="midnightblue" points="862.89,-86.11 863.97,-75.57 856.55,-83.13 862.89,-86.11"/>
</g>
<!-- Node27&#45;&gt;Node11 -->
<g id="edge56" class="edge">
<title>Node27&#45;&gt;Node11</title>
<path fill="none" stroke="midnightblue" d="M753.74,-231.84C661.1,-228.48 417.78,-217.08 343,-188 304.23,-172.92 292.2,-165.83 268,-132 258.19,-118.29 252.8,-99.75 249.94,-85.99"/>
<polygon fill="midnightblue" stroke="midnightblue" points="253.32,-84.97 248.1,-75.75 246.43,-86.22 253.32,-84.97"/>
</g>
<!-- Node27&#45;&gt;Node14 -->
<g id="edge53" class="edge">
<title>Node27&#45;&gt;Node14</title>
<path fill="none" stroke="midnightblue" d="M781.74,-224.08C774.54,-216.3 763.89,-204.8 755.15,-195.37"/>
<polygon fill="midnightblue" stroke="midnightblue" points="757.47,-192.71 748.1,-187.75 752.33,-197.47 757.47,-192.71"/>
</g>
<!-- Node27&#45;&gt;Node15 -->
<g id="edge54" class="edge">
<title>Node27&#45;&gt;Node15</title>
<path fill="none" stroke="midnightblue" d="M798.7,-224.33C811.57,-211.63 836.57,-187.35 859,-168 871.05,-157.6 885.08,-146.51 896.2,-137.95"/>
<polygon fill="midnightblue" stroke="midnightblue" points="898.59,-140.53 904.41,-131.68 894.34,-134.97 898.59,-140.53"/>
</g>
<!-- Node27&#45;&gt;Node26 -->
<g id="edge55" class="edge">
<title>Node27&#45;&gt;Node26</title>
<path fill="none" stroke="midnightblue" d="M754.82,-224.44C716.42,-215.1 654.82,-200.12 612.94,-189.93"/>
<polygon fill="midnightblue" stroke="midnightblue" points="613.56,-186.48 603.01,-187.52 611.9,-193.28 613.56,-186.48"/>
</g>
<!-- Node28&#45;&gt;Node2 -->
<g id="edge61" class="edge">
<title>Node28&#45;&gt;Node2</title>
<path fill="none" stroke="midnightblue" d="M749.37,-339.47C679.17,-328.89 526.76,-305.9 460.19,-295.86"/>
<polygon fill="midnightblue" stroke="midnightblue" points="460.68,-292.39 450.27,-294.36 459.64,-299.31 460.68,-292.39"/>
</g>
<!-- Node28&#45;&gt;Node15 -->
<g id="edge62" class="edge">
<title>Node28&#45;&gt;Node15</title>
<path fill="none" stroke="midnightblue" d="M794.45,-336.49C810.55,-319.92 845.97,-281.62 868,-244 888.01,-209.84 903.11,-165.77 910.65,-141.35"/>
<polygon fill="midnightblue" stroke="midnightblue" points="914.05,-142.21 913.57,-131.62 907.34,-140.19 914.05,-142.21"/>
</g>
<!-- Node29 -->
<g id="node29" class="node">
<title>Node29</title>
<g id="a_node29"><a xlink:title=" ">
<polygon fill="white" stroke="#bfbfbf" points="749,-280.5 749,-299.5 791,-299.5 791,-280.5 749,-280.5"/>
<text text-anchor="middle" x="770" y="-287.5" font-family="Helvetica,sans-Serif" font-size="10.00">array</text>
</a>
</g>
</g>
<!-- Node28&#45;&gt;Node29 -->
<g id="edge60" class="edge">
<title>Node28&#45;&gt;Node29</title>
<path fill="none" stroke="midnightblue" d="M783.36,-336.08C781.21,-328.85 778.12,-318.41 775.45,-309.4"/>
<polygon fill="midnightblue" stroke="midnightblue" points="778.79,-308.34 772.59,-299.75 772.08,-310.33 778.79,-308.34"/>
</g>
<!-- Node30&#45;&gt;Node11 -->
<g id="edge65" class="edge">
<title>Node30&#45;&gt;Node11</title>
<path fill="none" stroke="midnightblue" d="M665.61,-452.33C533.39,-433.91 76,-361.09 76,-235 76,-235 76,-235 76,-177 76,-120.74 142.28,-91.9 192.31,-78.14"/>
<polygon fill="midnightblue" stroke="midnightblue" points="193.28,-81.5 202.07,-75.58 191.51,-74.73 193.28,-81.5"/>
</g>
<!-- Node30&#45;&gt;Node27 -->
<g id="edge64" class="edge">
<title>Node30&#45;&gt;Node27</title>
<path fill="none" stroke="midnightblue" d="M721.48,-448.43C752.14,-434.34 808.87,-403.03 832,-356 849.49,-320.43 822.27,-275.74 804.11,-251.87"/>
<polygon fill="midnightblue" stroke="midnightblue" points="806.67,-249.46 797.71,-243.8 801.19,-253.81 806.67,-249.46"/>
</g>
<!-- Node31 -->
<g id="node31" class="node">
<title>Node31</title>
<g id="a_node31"><a xlink:href="mp4coverart_8h.html" target="_top" xlink:title=" ">
<polygon fill="white" stroke="black" points="657,-392.5 657,-411.5 745,-411.5 745,-392.5 657,-392.5"/>
<text text-anchor="middle" x="701" y="-399.5" font-family="Helvetica,sans-Serif" font-size="10.00">mp4coverart.h</text>
</a>
</g>
</g>
<!-- Node30&#45;&gt;Node31 -->
<g id="edge66" class="edge">
<title>Node30&#45;&gt;Node31</title>
<path fill="none" stroke="midnightblue" d="M701,-448.08C701,-441.01 701,-430.86 701,-421.99"/>
<polygon fill="midnightblue" stroke="midnightblue" points="704.5,-421.75 701,-411.75 697.5,-421.75 704.5,-421.75"/>
</g>
<!-- Node31&#45;&gt;Node3 -->
<g id="edge68" class="edge">
<title>Node31&#45;&gt;Node3</title>
<path fill="none" stroke="midnightblue" d="M698.57,-392.24C693.66,-373.71 683,-329.12 683,-291 683,-291 683,-291 683,-233 683,-200.95 683,-163.64 683,-141.75"/>
<polygon fill="midnightblue" stroke="midnightblue" points="686.5,-141.56 683,-131.56 679.5,-141.56 686.5,-141.56"/>
</g>
<!-- Node31&#45;&gt;Node11 -->
<g id="edge69" class="edge">
<title>Node31&#45;&gt;Node11</title>
<path fill="none" stroke="midnightblue" d="M656.89,-396.08C565.07,-384.01 349.83,-346.13 204,-244 154.55,-209.37 137.31,-161.4 172,-112 182.02,-97.73 198.14,-87.2 212.88,-79.94"/>
<polygon fill="midnightblue" stroke="midnightblue" points="214.65,-82.98 222.28,-75.63 211.73,-76.61 214.65,-82.98"/>
</g>
<!-- Node31&#45;&gt;Node15 -->
<g id="edge67" class="edge">
<title>Node31&#45;&gt;Node15</title>
<path fill="none" stroke="midnightblue" d="M701.31,-392.41C702.57,-370.66 708.82,-312.79 740,-280 771.11,-247.28 799.65,-272.09 835,-244 853.67,-229.16 888.82,-170.47 906.01,-140.63"/>
<polygon fill="midnightblue" stroke="midnightblue" points="909.18,-142.14 911.11,-131.72 903.11,-138.66 909.18,-142.14"/>
</g>
<!-- Node31&#45;&gt;Node28 -->
<g id="edge70" class="edge">
<title>Node31&#45;&gt;Node28</title>
<path fill="none" stroke="midnightblue" d="M714.66,-392.32C727.92,-383.9 748.27,-370.97 763.85,-361.07"/>
<polygon fill="midnightblue" stroke="midnightblue" points="765.81,-363.97 772.38,-355.65 762.06,-358.06 765.81,-363.97"/>
</g>
<!-- Node32&#45;&gt;Node11 -->
<g id="edge73" class="edge">
<title>Node32&#45;&gt;Node11</title>
<path fill="none" stroke="midnightblue" d="M224.1,-168.45C217.56,-155.9 207.51,-131.81 214,-112 217.49,-101.34 224.57,-91.12 231.29,-83.12"/>
<polygon fill="midnightblue" stroke="midnightblue" points="233.9,-85.44 237.98,-75.66 228.7,-80.76 233.9,-85.44"/>
</g>
<!-- Node33 -->
<g id="node33" class="node">
<title>Node33</title>
<g id="a_node33"><a xlink:href="audioproperties_8h.html" target="_top" xlink:title=" ">
<polygon fill="white" stroke="black" points="446,-112.5 446,-131.5 548,-131.5 548,-112.5 446,-112.5"/>
<text text-anchor="middle" x="497" y="-119.5" font-family="Helvetica,sans-Serif" font-size="10.00">audioproperties.h</text>
</a>
</g>
</g>
<!-- Node32&#45;&gt;Node33 -->
<g id="edge74" class="edge">
<title>Node32&#45;&gt;Node33</title>
<path fill="none" stroke="midnightblue" d="M271.47,-168.44C318.41,-158.98 394.08,-143.74 444.65,-133.55"/>
<polygon fill="midnightblue" stroke="midnightblue" points="445.62,-136.92 454.73,-131.52 444.24,-130.06 445.62,-136.92"/>
</g>
<!-- Node33&#45;&gt;Node5 -->
<g id="edge75" class="edge">
<title>Node33&#45;&gt;Node5</title>
<path fill="none" stroke="midnightblue" d="M543.59,-112.44C601.08,-101.88 697.84,-84.11 751.74,-74.21"/>
<polygon fill="midnightblue" stroke="midnightblue" points="752.4,-77.65 761.61,-72.4 751.14,-70.76 752.4,-77.65"/>
</g>
<!-- Node33&#45;&gt;Node7 -->
<g id="edge76" class="edge">
<title>Node33&#45;&gt;Node7</title>
<path fill="none" stroke="midnightblue" d="M515.54,-112.44C534.62,-103.64 564.57,-89.81 586.44,-79.72"/>
<polygon fill="midnightblue" stroke="midnightblue" points="587.93,-82.88 595.55,-75.52 585,-76.53 587.93,-82.88"/>
</g>
<!-- Node33&#45;&gt;Node11 -->
<g id="edge77" class="edge">
<title>Node33&#45;&gt;Node11</title>
<path fill="none" stroke="midnightblue" d="M457.39,-112.44C413.77,-103.02 343.6,-87.87 296.42,-77.68"/>
<polygon fill="midnightblue" stroke="midnightblue" points="296.94,-74.21 286.43,-75.52 295.46,-81.05 296.94,-74.21"/>
</g>
</g>
</svg>
