<?xml version="1.0" encoding="UTF-8" standalone="no"?>
<!DOCTYPE svg PUBLIC "-//W3C//DTD SVG 1.1//EN"
 "http://www.w3.org/Graphics/SVG/1.1/DTD/svg11.dtd">
<!-- Generated by graphviz version 2.43.0 (0)
 -->
<!-- Title: mp4itemfactory.h Pages: 1 -->
<svg width="1110pt" height="476pt"
 viewBox="0.00 0.00 1110.00 476.00" xmlns="http://www.w3.org/2000/svg" xmlns:xlink="http://www.w3.org/1999/xlink">
<g id="graph0" class="graph" transform="scale(1 1) rotate(0) translate(4 472)">
<title>mp4itemfactory.h</title>
<polygon fill="white" stroke="transparent" points="-4,4 -4,-472 1106,-472 1106,4 -4,4"/>
<!-- Node1 -->
<g id="node1" class="node">
<title>Node1</title>
<g id="a_node1"><a xlink:title=" ">
<polygon fill="#bfbfbf" stroke="black" points="220.5,-448.5 220.5,-467.5 323.5,-467.5 323.5,-448.5 220.5,-448.5"/>
<text text-anchor="middle" x="272" y="-455.5" font-family="Helvetica,sans-Serif" font-size="10.00">mp4itemfactory.h</text>
</a>
</g>
</g>
<!-- Node2 -->
<g id="node2" class="node">
<title>Node2</title>
<g id="a_node2"><a xlink:title=" ">
<polygon fill="white" stroke="#bfbfbf" points="746,-0.5 746,-19.5 804,-19.5 804,-0.5 746,-0.5"/>
<text text-anchor="middle" x="775" y="-7.5" font-family="Helvetica,sans-Serif" font-size="10.00">memory</text>
</a>
</g>
</g>
<!-- Node1&#45;&gt;Node2 -->
<g id="edge1" class="edge">
<title>Node1&#45;&gt;Node2</title>
<path fill="none" stroke="midnightblue" d="M323.58,-453.05C469.89,-441.16 877,-403.05 877,-347 877,-347 877,-347 877,-121 877,-76.39 831.34,-42.23 801.12,-24.51"/>
<polygon fill="midnightblue" stroke="midnightblue" points="802.73,-21.4 792.3,-19.55 799.3,-27.5 802.73,-21.4"/>
</g>
<!-- Node3 -->
<g id="node3" class="node">
<title>Node3</title>
<g id="a_node3"><a xlink:href="taglib__export_8h.html" target="_top" xlink:title=" ">
<polygon fill="white" stroke="black" points="207,-0.5 207,-19.5 297,-19.5 297,-0.5 207,-0.5"/>
<text text-anchor="middle" x="252" y="-7.5" font-family="Helvetica,sans-Serif" font-size="10.00">taglib_export.h</text>
</a>
</g>
</g>
<!-- Node1&#45;&gt;Node3 -->
<g id="edge2" class="edge">
<title>Node1&#45;&gt;Node3</title>
<path fill="none" stroke="midnightblue" d="M227.08,-448.48C149.83,-432.54 0,-395.39 0,-347 0,-347 0,-347 0,-121 0,-35.74 122.65,-15.91 196.82,-11.71"/>
<polygon fill="midnightblue" stroke="midnightblue" points="197.13,-15.19 206.95,-11.21 196.79,-8.2 197.13,-15.19"/>
</g>
<!-- Node4 -->
<g id="node4" class="node">
<title>Node4</title>
<g id="a_node4"><a xlink:href="mp4item_8h.html" target="_top" xlink:title=" ">
<polygon fill="white" stroke="black" points="237,-392.5 237,-411.5 307,-411.5 307,-392.5 237,-392.5"/>
<text text-anchor="middle" x="272" y="-399.5" font-family="Helvetica,sans-Serif" font-size="10.00">mp4item.h</text>
</a>
</g>
</g>
<!-- Node1&#45;&gt;Node4 -->
<g id="edge3" class="edge">
<title>Node1&#45;&gt;Node4</title>
<path fill="none" stroke="midnightblue" d="M272,-448.08C272,-441.01 272,-430.86 272,-421.99"/>
<polygon fill="midnightblue" stroke="midnightblue" points="275.5,-421.75 272,-411.75 268.5,-421.75 275.5,-421.75"/>
</g>
<!-- Node4&#45;&gt;Node3 -->
<g id="edge23" class="edge">
<title>Node4&#45;&gt;Node3</title>
<path fill="none" stroke="midnightblue" d="M236.97,-400.06C171.69,-396.26 38,-377.86 38,-291 38,-291 38,-291 38,-121 38,-49.67 133.2,-24.56 196.61,-15.74"/>
<polygon fill="midnightblue" stroke="midnightblue" points="197.41,-19.17 206.88,-14.42 196.51,-12.23 197.41,-19.17"/>
</g>
<!-- Node5 -->
<g id="node5" class="node">
<title>Node5</title>
<g id="a_node5"><a xlink:href="tstringlist_8h.html" target="_top" xlink:title=" ">
<polygon fill="white" stroke="black" points="236,-168.5 236,-187.5 308,-187.5 308,-168.5 236,-168.5"/>
<text text-anchor="middle" x="272" y="-175.5" font-family="Helvetica,sans-Serif" font-size="10.00">tstringlist.h</text>
</a>
</g>
</g>
<!-- Node4&#45;&gt;Node5 -->
<g id="edge4" class="edge">
<title>Node4&#45;&gt;Node5</title>
<path fill="none" stroke="midnightblue" d="M272,-392.3C272,-359.63 272,-243.87 272,-197.96"/>
<polygon fill="midnightblue" stroke="midnightblue" points="275.5,-197.88 272,-187.88 268.5,-197.88 275.5,-197.88"/>
</g>
<!-- Node16 -->
<g id="node16" class="node">
<title>Node16</title>
<g id="a_node16"><a xlink:href="mp4coverart_8h.html" target="_top" xlink:title=" ">
<polygon fill="white" stroke="black" points="458,-336.5 458,-355.5 546,-355.5 546,-336.5 458,-336.5"/>
<text text-anchor="middle" x="502" y="-343.5" font-family="Helvetica,sans-Serif" font-size="10.00">mp4coverart.h</text>
</a>
</g>
</g>
<!-- Node4&#45;&gt;Node16 -->
<g id="edge24" class="edge">
<title>Node4&#45;&gt;Node16</title>
<path fill="none" stroke="midnightblue" d="M307.18,-392.74C346.99,-383.39 411.98,-368.13 455.84,-357.84"/>
<polygon fill="midnightblue" stroke="midnightblue" points="456.75,-361.22 465.68,-355.53 455.15,-354.41 456.75,-361.22"/>
</g>
<!-- Node5&#45;&gt;Node3 -->
<g id="edge22" class="edge">
<title>Node5&#45;&gt;Node3</title>
<path fill="none" stroke="midnightblue" d="M235.6,-171.04C212.83,-165.23 185.22,-153.9 171,-132 152.61,-103.67 153.87,-85.11 171,-56 179.92,-40.84 195.99,-30.43 211.48,-23.46"/>
<polygon fill="midnightblue" stroke="midnightblue" points="213.06,-26.6 220.98,-19.56 210.4,-20.12 213.06,-26.6"/>
</g>
<!-- Node6 -->
<g id="node6" class="node">
<title>Node6</title>
<g id="a_node6"><a xlink:href="tstring_8h.html" target="_top" xlink:title=" ">
<polygon fill="white" stroke="black" points="180.5,-112.5 180.5,-131.5 237.5,-131.5 237.5,-112.5 180.5,-112.5"/>
<text text-anchor="middle" x="209" y="-119.5" font-family="Helvetica,sans-Serif" font-size="10.00">tstring.h</text>
</a>
</g>
</g>
<!-- Node5&#45;&gt;Node6 -->
<g id="edge5" class="edge">
<title>Node5&#45;&gt;Node6</title>
<path fill="none" stroke="midnightblue" d="M261.88,-168.32C252.47,-160.26 238.26,-148.08 226.93,-138.37"/>
<polygon fill="midnightblue" stroke="midnightblue" points="229.18,-135.68 219.31,-131.83 224.62,-141 229.18,-135.68"/>
</g>
<!-- Node11 -->
<g id="node11" class="node">
<title>Node11</title>
<g id="a_node11"><a xlink:href="tlist_8h.html" target="_top" xlink:title=" ">
<polygon fill="white" stroke="black" points="741,-56.5 741,-75.5 785,-75.5 785,-56.5 741,-56.5"/>
<text text-anchor="middle" x="763" y="-63.5" font-family="Helvetica,sans-Serif" font-size="10.00">tlist.h</text>
</a>
</g>
</g>
<!-- Node5&#45;&gt;Node11 -->
<g id="edge13" class="edge">
<title>Node5&#45;&gt;Node11</title>
<path fill="none" stroke="midnightblue" d="M308.1,-168.91C400.36,-148.24 643.62,-93.75 731.09,-74.15"/>
<polygon fill="midnightblue" stroke="midnightblue" points="731.98,-77.54 740.97,-71.94 730.45,-70.71 731.98,-77.54"/>
</g>
<!-- Node15 -->
<g id="node15" class="node">
<title>Node15</title>
<g id="a_node15"><a xlink:href="tbytevectorlist_8h.html" target="_top" xlink:title=" ">
<polygon fill="white" stroke="black" points="294.5,-112.5 294.5,-131.5 391.5,-131.5 391.5,-112.5 294.5,-112.5"/>
<text text-anchor="middle" x="343" y="-119.5" font-family="Helvetica,sans-Serif" font-size="10.00">tbytevectorlist.h</text>
</a>
</g>
</g>
<!-- Node5&#45;&gt;Node15 -->
<g id="edge18" class="edge">
<title>Node5&#45;&gt;Node15</title>
<path fill="none" stroke="midnightblue" d="M283.41,-168.32C294.11,-160.18 310.34,-147.84 323.16,-138.09"/>
<polygon fill="midnightblue" stroke="midnightblue" points="325.54,-140.67 331.39,-131.83 321.31,-135.1 325.54,-140.67"/>
</g>
<!-- Node6&#45;&gt;Node3 -->
<g id="edge12" class="edge">
<title>Node6&#45;&gt;Node3</title>
<path fill="none" stroke="midnightblue" d="M214.34,-112.3C219.61,-103.42 227.65,-89.12 233,-76 239.24,-60.69 244.36,-42.59 247.7,-29.38"/>
<polygon fill="midnightblue" stroke="midnightblue" points="251.12,-30.15 250.08,-19.6 244.32,-28.49 251.12,-30.15"/>
</g>
<!-- Node7 -->
<g id="node7" class="node">
<title>Node7</title>
<g id="a_node7"><a xlink:title=" ">
<polygon fill="white" stroke="#bfbfbf" points="180,-56.5 180,-75.5 224,-75.5 224,-56.5 180,-56.5"/>
<text text-anchor="middle" x="202" y="-63.5" font-family="Helvetica,sans-Serif" font-size="10.00">string</text>
</a>
</g>
</g>
<!-- Node6&#45;&gt;Node7 -->
<g id="edge6" class="edge">
<title>Node6&#45;&gt;Node7</title>
<path fill="none" stroke="midnightblue" d="M207.84,-112.08C206.92,-104.93 205.58,-94.64 204.42,-85.69"/>
<polygon fill="midnightblue" stroke="midnightblue" points="207.89,-85.22 203.13,-75.75 200.95,-86.12 207.89,-85.22"/>
</g>
<!-- Node8 -->
<g id="node8" class="node">
<title>Node8</title>
<g id="a_node8"><a xlink:href="tbytevector_8h.html" target="_top" xlink:title=" ">
<polygon fill="white" stroke="black" points="481.5,-56.5 481.5,-75.5 562.5,-75.5 562.5,-56.5 481.5,-56.5"/>
<text text-anchor="middle" x="522" y="-63.5" font-family="Helvetica,sans-Serif" font-size="10.00">tbytevector.h</text>
</a>
</g>
</g>
<!-- Node6&#45;&gt;Node8 -->
<g id="edge7" class="edge">
<title>Node6&#45;&gt;Node8</title>
<path fill="none" stroke="midnightblue" d="M237.81,-116.15C284.51,-108.28 379.89,-92.13 471.37,-76.1"/>
<polygon fill="midnightblue" stroke="midnightblue" points="472.1,-79.52 481.35,-74.35 470.89,-72.63 472.1,-79.52"/>
</g>
<!-- Node8&#45;&gt;Node2 -->
<g id="edge8" class="edge">
<title>Node8&#45;&gt;Node2</title>
<path fill="none" stroke="midnightblue" d="M562.89,-56.77C604.16,-48.4 669.98,-34.84 736.2,-20.13"/>
<polygon fill="midnightblue" stroke="midnightblue" points="736.97,-23.55 745.97,-17.96 735.45,-16.72 736.97,-23.55"/>
</g>
<!-- Node8&#45;&gt;Node3 -->
<g id="edge11" class="edge">
<title>Node8&#45;&gt;Node3</title>
<path fill="none" stroke="midnightblue" d="M481.29,-56.86C434.19,-47.44 356.52,-31.9 304.81,-21.56"/>
<polygon fill="midnightblue" stroke="midnightblue" points="305.33,-18.1 294.83,-19.57 303.95,-24.96 305.33,-18.1"/>
</g>
<!-- Node9 -->
<g id="node9" class="node">
<title>Node9</title>
<g id="a_node9"><a xlink:title=" ">
<polygon fill="white" stroke="#bfbfbf" points="492.5,-0.5 492.5,-19.5 539.5,-19.5 539.5,-0.5 492.5,-0.5"/>
<text text-anchor="middle" x="516" y="-7.5" font-family="Helvetica,sans-Serif" font-size="10.00">vector</text>
</a>
</g>
</g>
<!-- Node8&#45;&gt;Node9 -->
<g id="edge9" class="edge">
<title>Node8&#45;&gt;Node9</title>
<path fill="none" stroke="midnightblue" d="M521.01,-56.08C520.21,-48.93 519.07,-38.64 518.08,-29.69"/>
<polygon fill="midnightblue" stroke="midnightblue" points="521.56,-29.3 516.97,-19.75 514.6,-30.08 521.56,-29.3"/>
</g>
<!-- Node10 -->
<g id="node10" class="node">
<title>Node10</title>
<g id="a_node10"><a xlink:title=" ">
<polygon fill="white" stroke="#bfbfbf" points="558,-0.5 558,-19.5 606,-19.5 606,-0.5 558,-0.5"/>
<text text-anchor="middle" x="582" y="-7.5" font-family="Helvetica,sans-Serif" font-size="10.00">iosfwd</text>
</a>
</g>
</g>
<!-- Node8&#45;&gt;Node10 -->
<g id="edge10" class="edge">
<title>Node8&#45;&gt;Node10</title>
<path fill="none" stroke="midnightblue" d="M531.64,-56.32C540.51,-48.34 553.87,-36.31 564.61,-26.65"/>
<polygon fill="midnightblue" stroke="midnightblue" points="567.09,-29.13 572.18,-19.83 562.41,-23.92 567.09,-29.13"/>
</g>
<!-- Node11&#45;&gt;Node2 -->
<g id="edge16" class="edge">
<title>Node11&#45;&gt;Node2</title>
<path fill="none" stroke="midnightblue" d="M764.98,-56.08C766.57,-48.93 768.86,-38.64 770.85,-29.69"/>
<polygon fill="midnightblue" stroke="midnightblue" points="774.3,-30.27 773.06,-19.75 767.47,-28.75 774.3,-30.27"/>
</g>
<!-- Node12 -->
<g id="node12" class="node">
<title>Node12</title>
<g id="a_node12"><a xlink:title=" ">
<polygon fill="white" stroke="#bfbfbf" points="696,-0.5 696,-19.5 728,-19.5 728,-0.5 696,-0.5"/>
<text text-anchor="middle" x="712" y="-7.5" font-family="Helvetica,sans-Serif" font-size="10.00">list</text>
</a>
</g>
</g>
<!-- Node11&#45;&gt;Node12 -->
<g id="edge14" class="edge">
<title>Node11&#45;&gt;Node12</title>
<path fill="none" stroke="midnightblue" d="M754.58,-56.08C747.15,-48.22 736.15,-36.57 727.19,-27.08"/>
<polygon fill="midnightblue" stroke="midnightblue" points="729.68,-24.62 720.26,-19.75 724.59,-29.42 729.68,-24.62"/>
</g>
<!-- Node13 -->
<g id="node13" class="node">
<title>Node13</title>
<g id="a_node13"><a xlink:title=" ">
<polygon fill="white" stroke="#bfbfbf" points="822.5,-0.5 822.5,-19.5 905.5,-19.5 905.5,-0.5 822.5,-0.5"/>
<text text-anchor="middle" x="864" y="-7.5" font-family="Helvetica,sans-Serif" font-size="10.00">initializer_list</text>
</a>
</g>
</g>
<!-- Node11&#45;&gt;Node13 -->
<g id="edge15" class="edge">
<title>Node11&#45;&gt;Node13</title>
<path fill="none" stroke="midnightblue" d="M779.23,-56.32C795.35,-47.7 820.3,-34.36 838.96,-24.39"/>
<polygon fill="midnightblue" stroke="midnightblue" points="840.64,-27.46 847.81,-19.65 837.34,-21.28 840.64,-27.46"/>
</g>
<!-- Node14 -->
<g id="node14" class="node">
<title>Node14</title>
<g id="a_node14"><a xlink:title=" ">
<polygon fill="white" stroke="#bfbfbf" points="624.5,-0.5 624.5,-19.5 677.5,-19.5 677.5,-0.5 624.5,-0.5"/>
<text text-anchor="middle" x="651" y="-7.5" font-family="Helvetica,sans-Serif" font-size="10.00">tlist.tcc</text>
</a>
</g>
</g>
<!-- Node11&#45;&gt;Node14 -->
<g id="edge17" class="edge">
<title>Node11&#45;&gt;Node14</title>
<path fill="none" stroke="midnightblue" d="M745.01,-56.32C726.96,-47.62 698.95,-34.12 678.2,-24.11"/>
<polygon fill="midnightblue" stroke="midnightblue" points="679.48,-20.84 668.95,-19.65 676.44,-27.15 679.48,-20.84"/>
</g>
<!-- Node15&#45;&gt;Node3 -->
<g id="edge21" class="edge">
<title>Node15&#45;&gt;Node3</title>
<path fill="none" stroke="midnightblue" d="M338.97,-112.44C332.62,-99.45 319.41,-74.34 304,-56 294.64,-44.86 282.4,-34.13 272.16,-25.94"/>
<polygon fill="midnightblue" stroke="midnightblue" points="274.17,-23.07 264.12,-19.71 269.88,-28.6 274.17,-23.07"/>
</g>
<!-- Node15&#45;&gt;Node8 -->
<g id="edge19" class="edge">
<title>Node15&#45;&gt;Node8</title>
<path fill="none" stroke="midnightblue" d="M371.36,-112.44C401.74,-103.28 450.11,-88.69 483.82,-78.52"/>
<polygon fill="midnightblue" stroke="midnightblue" points="485.21,-81.76 493.77,-75.52 483.18,-75.05 485.21,-81.76"/>
</g>
<!-- Node15&#45;&gt;Node11 -->
<g id="edge20" class="edge">
<title>Node15&#45;&gt;Node11</title>
<path fill="none" stroke="midnightblue" d="M391.8,-113.19C394.57,-112.78 397.32,-112.38 400,-112 521.86,-94.83 667.24,-77.87 730.7,-70.64"/>
<polygon fill="midnightblue" stroke="midnightblue" points="731.33,-74.09 740.87,-69.48 730.54,-67.13 731.33,-74.09"/>
</g>
<!-- Node16&#45;&gt;Node3 -->
<g id="edge27" class="edge">
<title>Node16&#45;&gt;Node3</title>
<path fill="none" stroke="midnightblue" d="M457.62,-342.94C348.51,-336.68 76,-313.2 76,-235 76,-235 76,-235 76,-121 76,-63.11 145.31,-34.56 196.94,-21.32"/>
<polygon fill="midnightblue" stroke="midnightblue" points="197.79,-24.72 206.68,-18.95 196.13,-17.92 197.79,-24.72"/>
</g>
<!-- Node16&#45;&gt;Node8 -->
<g id="edge26" class="edge">
<title>Node16&#45;&gt;Node8</title>
<path fill="none" stroke="midnightblue" d="M519.94,-336.25C549.45,-320.45 605,-284.19 605,-235 605,-235 605,-235 605,-177 605,-135.91 567.64,-100.44 543.05,-81.55"/>
<polygon fill="midnightblue" stroke="midnightblue" points="545.09,-78.7 534.97,-75.57 540.93,-84.33 545.09,-78.7"/>
</g>
<!-- Node16&#45;&gt;Node11 -->
<g id="edge25" class="edge">
<title>Node16&#45;&gt;Node11</title>
<path fill="none" stroke="midnightblue" d="M546.06,-340C637.4,-328.41 839,-295.93 839,-235 839,-235 839,-235 839,-177 839,-137.28 805.04,-101.5 782.52,-82.15"/>
<polygon fill="midnightblue" stroke="midnightblue" points="784.48,-79.24 774.54,-75.57 780.02,-84.63 784.48,-79.24"/>
</g>
<!-- Node17 -->
<g id="node17" class="node">
<title>Node17</title>
<g id="a_node17"><a xlink:href="mp4atom_8h.html" target="_top" xlink:title=" ">
<polygon fill="white" stroke="black" points="465.5,-280.5 465.5,-299.5 538.5,-299.5 538.5,-280.5 465.5,-280.5"/>
<text text-anchor="middle" x="502" y="-287.5" font-family="Helvetica,sans-Serif" font-size="10.00">mp4atom.h</text>
</a>
</g>
</g>
<!-- Node16&#45;&gt;Node17 -->
<g id="edge28" class="edge">
<title>Node16&#45;&gt;Node17</title>
<path fill="none" stroke="midnightblue" d="M502,-336.08C502,-329.01 502,-318.86 502,-309.99"/>
<polygon fill="midnightblue" stroke="midnightblue" points="505.5,-309.75 502,-299.75 498.5,-309.75 505.5,-309.75"/>
</g>
<!-- Node17&#45;&gt;Node11 -->
<g id="edge52" class="edge">
<title>Node17&#45;&gt;Node11</title>
<path fill="none" stroke="midnightblue" d="M537.32,-280.48C597.35,-263.82 717.23,-220.55 763,-132 770.37,-117.75 769.55,-99.27 767.37,-85.67"/>
<polygon fill="midnightblue" stroke="midnightblue" points="770.75,-84.71 765.36,-75.58 763.88,-86.07 770.75,-84.71"/>
</g>
<!-- Node18 -->
<g id="node18" class="node">
<title>Node18</title>
<g id="a_node18"><a xlink:href="tfile_8h.html" target="_top" xlink:title=" ">
<polygon fill="white" stroke="black" points="475,-224.5 475,-243.5 519,-243.5 519,-224.5 475,-224.5"/>
<text text-anchor="middle" x="497" y="-231.5" font-family="Helvetica,sans-Serif" font-size="10.00">tfile.h</text>
</a>
</g>
</g>
<!-- Node17&#45;&gt;Node18 -->
<g id="edge29" class="edge">
<title>Node17&#45;&gt;Node18</title>
<path fill="none" stroke="midnightblue" d="M501.17,-280.08C500.52,-273.01 499.58,-262.86 498.76,-253.99"/>
<polygon fill="midnightblue" stroke="midnightblue" points="502.22,-253.39 497.81,-243.75 495.25,-254.03 502.22,-253.39"/>
</g>
<!-- Node18&#45;&gt;Node3 -->
<g id="edge36" class="edge">
<title>Node18&#45;&gt;Node3</title>
<path fill="none" stroke="midnightblue" d="M474.91,-233.07C427.39,-232.44 312.78,-226.66 227,-188 190.99,-171.77 174.98,-167.66 158,-132 143.47,-101.5 140,-84.58 158,-56 168.01,-40.11 185.35,-29.71 202.44,-22.96"/>
<polygon fill="midnightblue" stroke="midnightblue" points="203.63,-26.25 211.85,-19.57 201.26,-19.66 203.63,-26.25"/>
</g>
<!-- Node18&#45;&gt;Node8 -->
<g id="edge30" class="edge">
<title>Node18&#45;&gt;Node8</title>
<path fill="none" stroke="midnightblue" d="M499.7,-224.46C502.44,-215.48 506.61,-200.88 509,-188 515.67,-152.12 519.26,-109.57 520.89,-85.69"/>
<polygon fill="midnightblue" stroke="midnightblue" points="524.39,-85.78 521.53,-75.57 517.4,-85.33 524.39,-85.78"/>
</g>
<!-- Node19 -->
<g id="node19" class="node">
<title>Node19</title>
<g id="a_node19"><a xlink:href="tiostream_8h.html" target="_top" xlink:title=" ">
<polygon fill="white" stroke="black" points="427.5,-168.5 427.5,-187.5 500.5,-187.5 500.5,-168.5 427.5,-168.5"/>
<text text-anchor="middle" x="464" y="-175.5" font-family="Helvetica,sans-Serif" font-size="10.00">tiostream.h</text>
</a>
</g>
</g>
<!-- Node18&#45;&gt;Node19 -->
<g id="edge31" class="edge">
<title>Node18&#45;&gt;Node19</title>
<path fill="none" stroke="midnightblue" d="M491.55,-224.08C486.99,-216.61 480.33,-205.72 474.71,-196.52"/>
<polygon fill="midnightblue" stroke="midnightblue" points="477.55,-194.46 469.35,-187.75 471.58,-198.11 477.55,-194.46"/>
</g>
<!-- Node20 -->
<g id="node20" class="node">
<title>Node20</title>
<g id="a_node20"><a xlink:href="taglib_8h.html" target="_top" xlink:title=" ">
<polygon fill="white" stroke="black" points="409.5,-112.5 409.5,-131.5 462.5,-131.5 462.5,-112.5 409.5,-112.5"/>
<text text-anchor="middle" x="436" y="-119.5" font-family="Helvetica,sans-Serif" font-size="10.00">taglib.h</text>
</a>
</g>
</g>
<!-- Node18&#45;&gt;Node20 -->
<g id="edge37" class="edge">
<title>Node18&#45;&gt;Node20</title>
<path fill="none" stroke="midnightblue" d="M474.82,-227.15C455.98,-220.87 430.14,-208.88 418,-188 409.38,-173.17 416.52,-154.04 424.2,-140.38"/>
<polygon fill="midnightblue" stroke="midnightblue" points="427.38,-141.88 429.67,-131.54 421.43,-138.19 427.38,-141.88"/>
</g>
<!-- Node22 -->
<g id="node22" class="node">
<title>Node22</title>
<g id="a_node22"><a xlink:href="tag_8h.html" target="_top" xlink:title=" ">
<polygon fill="white" stroke="black" points="633.5,-168.5 633.5,-187.5 674.5,-187.5 674.5,-168.5 633.5,-168.5"/>
<text text-anchor="middle" x="654" y="-175.5" font-family="Helvetica,sans-Serif" font-size="10.00">tag.h</text>
</a>
</g>
</g>
<!-- Node18&#45;&gt;Node22 -->
<g id="edge38" class="edge">
<title>Node18&#45;&gt;Node22</title>
<path fill="none" stroke="midnightblue" d="M519.16,-225.38C546.5,-215.97 593.11,-199.94 623.73,-189.41"/>
<polygon fill="midnightblue" stroke="midnightblue" points="625.13,-192.63 633.45,-186.07 622.86,-186.01 625.13,-192.63"/>
</g>
<!-- Node19&#45;&gt;Node3 -->
<g id="edge33" class="edge">
<title>Node19&#45;&gt;Node3</title>
<path fill="none" stroke="midnightblue" d="M427.2,-172.17C380.88,-165.37 304.97,-151.57 285,-132 257.23,-104.78 252.15,-56.66 251.61,-30.04"/>
<polygon fill="midnightblue" stroke="midnightblue" points="255.11,-29.77 251.61,-19.77 248.11,-29.77 255.11,-29.77"/>
</g>
<!-- Node19&#45;&gt;Node8 -->
<g id="edge32" class="edge">
<title>Node19&#45;&gt;Node8</title>
<path fill="none" stroke="midnightblue" d="M468.55,-168.37C478.04,-150.38 500.09,-108.55 512.71,-84.63"/>
<polygon fill="midnightblue" stroke="midnightblue" points="515.9,-86.07 517.47,-75.59 509.71,-82.8 515.9,-86.07"/>
</g>
<!-- Node19&#45;&gt;Node20 -->
<g id="edge34" class="edge">
<title>Node19&#45;&gt;Node20</title>
<path fill="none" stroke="midnightblue" d="M459.38,-168.08C455.54,-160.69 449.98,-149.95 445.24,-140.81"/>
<polygon fill="midnightblue" stroke="midnightblue" points="448.25,-139.02 440.54,-131.75 442.03,-142.24 448.25,-139.02"/>
</g>
<!-- Node21 -->
<g id="node21" class="node">
<title>Node21</title>
<g id="a_node21"><a xlink:title=" ">
<polygon fill="white" stroke="#bfbfbf" points="391,-56.5 391,-75.5 463,-75.5 463,-56.5 391,-56.5"/>
<text text-anchor="middle" x="427" y="-63.5" font-family="Helvetica,sans-Serif" font-size="10.00">sys/types.h</text>
</a>
</g>
</g>
<!-- Node20&#45;&gt;Node21 -->
<g id="edge35" class="edge">
<title>Node20&#45;&gt;Node21</title>
<path fill="none" stroke="midnightblue" d="M434.51,-112.08C433.32,-104.93 431.61,-94.64 430.12,-85.69"/>
<polygon fill="midnightblue" stroke="midnightblue" points="433.55,-85.04 428.46,-75.75 426.65,-86.19 433.55,-85.04"/>
</g>
<!-- Node22&#45;&gt;Node3 -->
<g id="edge39" class="edge">
<title>Node22&#45;&gt;Node3</title>
<path fill="none" stroke="midnightblue" d="M651.19,-168.2C643.2,-144.86 617.94,-81.47 572,-56 527.68,-31.43 386.58,-19.13 307.34,-14.02"/>
<polygon fill="midnightblue" stroke="midnightblue" points="307.26,-10.5 297.06,-13.37 306.82,-17.49 307.26,-10.5"/>
</g>
<!-- Node22&#45;&gt;Node6 -->
<g id="edge40" class="edge">
<title>Node22&#45;&gt;Node6</title>
<path fill="none" stroke="midnightblue" d="M633.43,-174.5C564.21,-166.1 338.96,-138.77 247.81,-127.71"/>
<polygon fill="midnightblue" stroke="midnightblue" points="247.99,-124.21 237.64,-126.48 247.14,-131.15 247.99,-124.21"/>
</g>
<!-- Node22&#45;&gt;Node11 -->
<g id="edge41" class="edge">
<title>Node22&#45;&gt;Node11</title>
<path fill="none" stroke="midnightblue" d="M674.54,-171.93C695.02,-165.82 725.97,-153.59 744,-132 754.94,-118.9 759.58,-99.75 761.55,-85.63"/>
<polygon fill="midnightblue" stroke="midnightblue" points="765.04,-85.91 762.63,-75.59 758.08,-85.16 765.04,-85.91"/>
</g>
<!-- Node23 -->
<g id="node23" class="node">
<title>Node23</title>
<g id="a_node23"><a xlink:href="tvariant_8h.html" target="_top" xlink:title=" ">
<polygon fill="white" stroke="black" points="671,-112.5 671,-131.5 735,-131.5 735,-112.5 671,-112.5"/>
<text text-anchor="middle" x="703" y="-119.5" font-family="Helvetica,sans-Serif" font-size="10.00">tvariant.h</text>
</a>
</g>
</g>
<!-- Node22&#45;&gt;Node23 -->
<g id="edge42" class="edge">
<title>Node22&#45;&gt;Node23</title>
<path fill="none" stroke="midnightblue" d="M662.09,-168.08C669.16,-160.3 679.59,-148.8 688.15,-139.37"/>
<polygon fill="midnightblue" stroke="midnightblue" points="690.93,-141.51 695.06,-131.75 685.75,-136.8 690.93,-141.51"/>
</g>
<!-- Node23&#45;&gt;Node3 -->
<g id="edge51" class="edge">
<title>Node23&#45;&gt;Node3</title>
<path fill="none" stroke="midnightblue" d="M698.98,-112.46C691.68,-98.03 674.79,-69.13 651,-56 593.21,-24.12 402.62,-14.78 307.3,-12.08"/>
<polygon fill="midnightblue" stroke="midnightblue" points="307.36,-8.58 297.27,-11.81 307.17,-15.58 307.36,-8.58"/>
</g>
<!-- Node23&#45;&gt;Node10 -->
<g id="edge43" class="edge">
<title>Node23&#45;&gt;Node10</title>
<path fill="none" stroke="midnightblue" d="M703.52,-112.35C703.86,-98.78 702.56,-72.35 689,-56 679.26,-44.26 643.61,-30.66 616.11,-21.52"/>
<polygon fill="midnightblue" stroke="midnightblue" points="617,-18.13 606.41,-18.36 614.84,-24.78 617,-18.13"/>
</g>
<!-- Node23&#45;&gt;Node11 -->
<g id="edge44" class="edge">
<title>Node23&#45;&gt;Node11</title>
<path fill="none" stroke="midnightblue" d="M712.64,-112.32C721.51,-104.34 734.87,-92.31 745.61,-82.65"/>
<polygon fill="midnightblue" stroke="midnightblue" points="748.09,-85.13 753.18,-75.83 743.41,-79.92 748.09,-85.13"/>
</g>
<!-- Node24 -->
<g id="node24" class="node">
<title>Node24</title>
<g id="a_node24"><a xlink:href="tmap_8h.html" target="_top" xlink:title=" ">
<polygon fill="white" stroke="black" points="906.5,-56.5 906.5,-75.5 957.5,-75.5 957.5,-56.5 906.5,-56.5"/>
<text text-anchor="middle" x="932" y="-63.5" font-family="Helvetica,sans-Serif" font-size="10.00">tmap.h</text>
</a>
</g>
</g>
<!-- Node23&#45;&gt;Node24 -->
<g id="edge45" class="edge">
<title>Node23&#45;&gt;Node24</title>
<path fill="none" stroke="midnightblue" d="M735.32,-113.38C777.78,-103.37 852.11,-85.84 896.22,-75.44"/>
<polygon fill="midnightblue" stroke="midnightblue" points="897.28,-78.78 906.21,-73.08 895.68,-71.97 897.28,-78.78"/>
</g>
<!-- Node24&#45;&gt;Node2 -->
<g id="edge47" class="edge">
<title>Node24&#45;&gt;Node2</title>
<path fill="none" stroke="midnightblue" d="M907.12,-56.44C880.71,-47.36 838.78,-32.94 809.26,-22.78"/>
<polygon fill="midnightblue" stroke="midnightblue" points="810.36,-19.46 799.76,-19.52 808.08,-26.08 810.36,-19.46"/>
</g>
<!-- Node24&#45;&gt;Node13 -->
<g id="edge48" class="edge">
<title>Node24&#45;&gt;Node13</title>
<path fill="none" stroke="midnightblue" d="M921.07,-56.32C910.83,-48.18 895.28,-35.84 883,-26.09"/>
<polygon fill="midnightblue" stroke="midnightblue" points="885.13,-23.31 875.12,-19.83 880.78,-28.79 885.13,-23.31"/>
</g>
<!-- Node25 -->
<g id="node25" class="node">
<title>Node25</title>
<g id="a_node25"><a xlink:title=" ">
<polygon fill="white" stroke="#bfbfbf" points="1064,-0.5 1064,-19.5 1102,-19.5 1102,-0.5 1064,-0.5"/>
<text text-anchor="middle" x="1083" y="-7.5" font-family="Helvetica,sans-Serif" font-size="10.00">map</text>
</a>
</g>
</g>
<!-- Node24&#45;&gt;Node25 -->
<g id="edge46" class="edge">
<title>Node24&#45;&gt;Node25</title>
<path fill="none" stroke="midnightblue" d="M955.93,-56.44C982.59,-46.91 1025.69,-31.49 1054.19,-21.3"/>
<polygon fill="midnightblue" stroke="midnightblue" points="1055.73,-24.47 1063.97,-17.81 1053.37,-17.88 1055.73,-24.47"/>
</g>
<!-- Node26 -->
<g id="node26" class="node">
<title>Node26</title>
<g id="a_node26"><a xlink:title=" ">
<polygon fill="white" stroke="#bfbfbf" points="923.5,-0.5 923.5,-19.5 968.5,-19.5 968.5,-0.5 923.5,-0.5"/>
<text text-anchor="middle" x="946" y="-7.5" font-family="Helvetica,sans-Serif" font-size="10.00">utility</text>
</a>
</g>
</g>
<!-- Node24&#45;&gt;Node26 -->
<g id="edge49" class="edge">
<title>Node24&#45;&gt;Node26</title>
<path fill="none" stroke="midnightblue" d="M934.31,-56.08C936.17,-48.93 938.84,-38.64 941.15,-29.69"/>
<polygon fill="midnightblue" stroke="midnightblue" points="944.61,-30.31 943.73,-19.75 937.83,-28.55 944.61,-30.31"/>
</g>
<!-- Node27 -->
<g id="node27" class="node">
<title>Node27</title>
<g id="a_node27"><a xlink:title=" ">
<polygon fill="white" stroke="#bfbfbf" points="986.5,-0.5 986.5,-19.5 1045.5,-19.5 1045.5,-0.5 986.5,-0.5"/>
<text text-anchor="middle" x="1016" y="-7.5" font-family="Helvetica,sans-Serif" font-size="10.00">tmap.tcc</text>
</a>
</g>
</g>
<!-- Node24&#45;&gt;Node27 -->
<g id="edge50" class="edge">
<title>Node24&#45;&gt;Node27</title>
<path fill="none" stroke="midnightblue" d="M945.5,-56.32C958.6,-47.9 978.71,-34.97 994.11,-25.07"/>
<polygon fill="midnightblue" stroke="midnightblue" points="996.02,-28.01 1002.54,-19.65 992.23,-22.12 996.02,-28.01"/>
</g>
</g>
</svg>
