<?xml version="1.0" encoding="UTF-8" standalone="no"?>
<!DOCTYPE svg PUBLIC "-//W3C//DTD SVG 1.1//EN"
 "http://www.w3.org/Graphics/SVG/1.1/DTD/svg11.dtd">
<!-- Generated by graphviz version 2.43.0 (0)
 -->
<!-- Title: mp4item.h Pages: 1 -->
<svg width="1007pt" height="420pt"
 viewBox="0.00 0.00 1006.50 420.00" xmlns="http://www.w3.org/2000/svg" xmlns:xlink="http://www.w3.org/1999/xlink">
<g id="graph0" class="graph" transform="scale(1 1) rotate(0) translate(4 416)">
<title>mp4item.h</title>
<polygon fill="white" stroke="transparent" points="-4,4 -4,-416 1002.5,-416 1002.5,4 -4,4"/>
<!-- Node1 -->
<g id="node1" class="node">
<title>Node1</title>
<g id="a_node1"><a xlink:title=" ">
<polygon fill="#bfbfbf" stroke="black" points="887.5,-392.5 887.5,-411.5 957.5,-411.5 957.5,-392.5 887.5,-392.5"/>
<text text-anchor="middle" x="922.5" y="-399.5" font-family="Helvetica,sans-Serif" font-size="10.00">mp4item.h</text>
</a>
</g>
</g>
<!-- Node2 -->
<g id="node2" class="node">
<title>Node2</title>
<g id="a_node2"><a xlink:href="tstringlist_8h.html" target="_top" xlink:title=" ">
<polygon fill="white" stroke="black" points="829.5,-168.5 829.5,-187.5 901.5,-187.5 901.5,-168.5 829.5,-168.5"/>
<text text-anchor="middle" x="865.5" y="-175.5" font-family="Helvetica,sans-Serif" font-size="10.00">tstringlist.h</text>
</a>
</g>
</g>
<!-- Node1&#45;&gt;Node2 -->
<g id="edge1" class="edge">
<title>Node1&#45;&gt;Node2</title>
<path fill="none" stroke="midnightblue" d="M920.27,-392.3C911.86,-359.56 882.03,-243.38 870.29,-197.67"/>
<polygon fill="midnightblue" stroke="midnightblue" points="873.66,-196.7 867.78,-187.88 866.88,-198.44 873.66,-196.7"/>
</g>
<!-- Node9 -->
<g id="node9" class="node">
<title>Node9</title>
<g id="a_node9"><a xlink:href="taglib__export_8h.html" target="_top" xlink:title=" ">
<polygon fill="white" stroke="black" points="719.5,-0.5 719.5,-19.5 809.5,-19.5 809.5,-0.5 719.5,-0.5"/>
<text text-anchor="middle" x="764.5" y="-7.5" font-family="Helvetica,sans-Serif" font-size="10.00">taglib_export.h</text>
</a>
</g>
</g>
<!-- Node1&#45;&gt;Node9 -->
<g id="edge20" class="edge">
<title>Node1&#45;&gt;Node9</title>
<path fill="none" stroke="midnightblue" d="M934.04,-392.43C955.3,-375.57 998.5,-335.8 998.5,-291 998.5,-291 998.5,-291 998.5,-121 998.5,-42.44 889.13,-19.88 819.94,-13.47"/>
<polygon fill="midnightblue" stroke="midnightblue" points="819.87,-9.96 809.62,-12.61 819.29,-16.93 819.87,-9.96"/>
</g>
<!-- Node15 -->
<g id="node15" class="node">
<title>Node15</title>
<g id="a_node15"><a xlink:href="mp4coverart_8h.html" target="_top" xlink:title=" ">
<polygon fill="white" stroke="black" points="484.5,-336.5 484.5,-355.5 572.5,-355.5 572.5,-336.5 484.5,-336.5"/>
<text text-anchor="middle" x="528.5" y="-343.5" font-family="Helvetica,sans-Serif" font-size="10.00">mp4coverart.h</text>
</a>
</g>
</g>
<!-- Node1&#45;&gt;Node15 -->
<g id="edge21" class="edge">
<title>Node1&#45;&gt;Node15</title>
<path fill="none" stroke="midnightblue" d="M887.19,-396.16C818.18,-386.7 665,-365.71 582.92,-354.46"/>
<polygon fill="midnightblue" stroke="midnightblue" points="583.18,-350.96 572.79,-353.07 582.23,-357.9 583.18,-350.96"/>
</g>
<!-- Node3 -->
<g id="node3" class="node">
<title>Node3</title>
<g id="a_node3"><a xlink:href="tstring_8h.html" target="_top" xlink:title=" ">
<polygon fill="white" stroke="black" points="837,-112.5 837,-131.5 894,-131.5 894,-112.5 837,-112.5"/>
<text text-anchor="middle" x="865.5" y="-119.5" font-family="Helvetica,sans-Serif" font-size="10.00">tstring.h</text>
</a>
</g>
</g>
<!-- Node2&#45;&gt;Node3 -->
<g id="edge2" class="edge">
<title>Node2&#45;&gt;Node3</title>
<path fill="none" stroke="midnightblue" d="M865.5,-168.08C865.5,-161.01 865.5,-150.86 865.5,-141.99"/>
<polygon fill="midnightblue" stroke="midnightblue" points="869,-141.75 865.5,-131.75 862,-141.75 869,-141.75"/>
</g>
<!-- Node2&#45;&gt;Node9 -->
<g id="edge19" class="edge">
<title>Node2&#45;&gt;Node9</title>
<path fill="none" stroke="midnightblue" d="M876.21,-168.3C885.44,-160.07 898.09,-146.79 903.5,-132 915.54,-99.09 907.21,-80.85 882.5,-56 865.54,-38.95 841.45,-28.24 819.45,-21.58"/>
<polygon fill="midnightblue" stroke="midnightblue" points="820.1,-18.13 809.52,-18.8 818.21,-24.87 820.1,-18.13"/>
</g>
<!-- Node10 -->
<g id="node10" class="node">
<title>Node10</title>
<g id="a_node10"><a xlink:href="tlist_8h.html" target="_top" xlink:title=" ">
<polygon fill="white" stroke="black" points="220.5,-56.5 220.5,-75.5 264.5,-75.5 264.5,-56.5 220.5,-56.5"/>
<text text-anchor="middle" x="242.5" y="-63.5" font-family="Helvetica,sans-Serif" font-size="10.00">tlist.h</text>
</a>
</g>
</g>
<!-- Node2&#45;&gt;Node10 -->
<g id="edge10" class="edge">
<title>Node2&#45;&gt;Node10</title>
<path fill="none" stroke="midnightblue" d="M829.32,-174.5C712.85,-166.39 353.86,-140.79 330.5,-132 315.42,-126.32 281.69,-99.63 260.64,-82.27"/>
<polygon fill="midnightblue" stroke="midnightblue" points="262.67,-79.4 252.75,-75.7 258.2,-84.78 262.67,-79.4"/>
</g>
<!-- Node14 -->
<g id="node14" class="node">
<title>Node14</title>
<g id="a_node14"><a xlink:href="tbytevectorlist_8h.html" target="_top" xlink:title=" ">
<polygon fill="white" stroke="black" points="683,-112.5 683,-131.5 780,-131.5 780,-112.5 683,-112.5"/>
<text text-anchor="middle" x="731.5" y="-119.5" font-family="Helvetica,sans-Serif" font-size="10.00">tbytevectorlist.h</text>
</a>
</g>
</g>
<!-- Node2&#45;&gt;Node14 -->
<g id="edge15" class="edge">
<title>Node2&#45;&gt;Node14</title>
<path fill="none" stroke="midnightblue" d="M844.27,-168.44C822.12,-159.52 787.18,-145.44 762.06,-135.32"/>
<polygon fill="midnightblue" stroke="midnightblue" points="763.22,-132.01 752.63,-131.52 760.6,-138.5 763.22,-132.01"/>
</g>
<!-- Node4 -->
<g id="node4" class="node">
<title>Node4</title>
<g id="a_node4"><a xlink:title=" ">
<polygon fill="white" stroke="#bfbfbf" points="812.5,-56.5 812.5,-75.5 856.5,-75.5 856.5,-56.5 812.5,-56.5"/>
<text text-anchor="middle" x="834.5" y="-63.5" font-family="Helvetica,sans-Serif" font-size="10.00">string</text>
</a>
</g>
</g>
<!-- Node3&#45;&gt;Node4 -->
<g id="edge3" class="edge">
<title>Node3&#45;&gt;Node4</title>
<path fill="none" stroke="midnightblue" d="M860.38,-112.08C856.09,-104.61 849.84,-93.72 844.56,-84.52"/>
<polygon fill="midnightblue" stroke="midnightblue" points="847.54,-82.68 839.52,-75.75 841.47,-86.17 847.54,-82.68"/>
</g>
<!-- Node5 -->
<g id="node5" class="node">
<title>Node5</title>
<g id="a_node5"><a xlink:href="tbytevector_8h.html" target="_top" xlink:title=" ">
<polygon fill="white" stroke="black" points="436,-56.5 436,-75.5 517,-75.5 517,-56.5 436,-56.5"/>
<text text-anchor="middle" x="476.5" y="-63.5" font-family="Helvetica,sans-Serif" font-size="10.00">tbytevector.h</text>
</a>
</g>
</g>
<!-- Node3&#45;&gt;Node5 -->
<g id="edge4" class="edge">
<title>Node3&#45;&gt;Node5</title>
<path fill="none" stroke="midnightblue" d="M836.9,-117.03C771.38,-107.93 609.72,-85.49 527.01,-74.01"/>
<polygon fill="midnightblue" stroke="midnightblue" points="527.47,-70.54 517.09,-72.63 526.51,-77.48 527.47,-70.54"/>
</g>
<!-- Node3&#45;&gt;Node9 -->
<g id="edge9" class="edge">
<title>Node3&#45;&gt;Node9</title>
<path fill="none" stroke="midnightblue" d="M868.3,-112.16C871.97,-98.81 876.68,-73.23 865.5,-56 855,-39.83 837.21,-29.43 819.45,-22.75"/>
<polygon fill="midnightblue" stroke="midnightblue" points="820.22,-19.32 809.63,-19.41 817.97,-25.94 820.22,-19.32"/>
</g>
<!-- Node6 -->
<g id="node6" class="node">
<title>Node6</title>
<g id="a_node6"><a xlink:title=" ">
<polygon fill="white" stroke="#bfbfbf" points="286.5,-0.5 286.5,-19.5 344.5,-19.5 344.5,-0.5 286.5,-0.5"/>
<text text-anchor="middle" x="315.5" y="-7.5" font-family="Helvetica,sans-Serif" font-size="10.00">memory</text>
</a>
</g>
</g>
<!-- Node5&#45;&gt;Node6 -->
<g id="edge5" class="edge">
<title>Node5&#45;&gt;Node6</title>
<path fill="none" stroke="midnightblue" d="M450.99,-56.44C423.9,-47.36 380.91,-32.94 350.63,-22.78"/>
<polygon fill="midnightblue" stroke="midnightblue" points="351.49,-19.38 340.89,-19.52 349.26,-26.01 351.49,-19.38"/>
</g>
<!-- Node7 -->
<g id="node7" class="node">
<title>Node7</title>
<g id="a_node7"><a xlink:title=" ">
<polygon fill="white" stroke="#bfbfbf" points="563,-0.5 563,-19.5 610,-19.5 610,-0.5 563,-0.5"/>
<text text-anchor="middle" x="586.5" y="-7.5" font-family="Helvetica,sans-Serif" font-size="10.00">vector</text>
</a>
</g>
</g>
<!-- Node5&#45;&gt;Node7 -->
<g id="edge6" class="edge">
<title>Node5&#45;&gt;Node7</title>
<path fill="none" stroke="midnightblue" d="M494.17,-56.32C511.89,-47.62 539.4,-34.12 559.79,-24.11"/>
<polygon fill="midnightblue" stroke="midnightblue" points="561.44,-27.2 568.87,-19.65 558.35,-20.92 561.44,-27.2"/>
</g>
<!-- Node8 -->
<g id="node8" class="node">
<title>Node8</title>
<g id="a_node8"><a xlink:title=" ">
<polygon fill="white" stroke="#bfbfbf" points="496.5,-0.5 496.5,-19.5 544.5,-19.5 544.5,-0.5 496.5,-0.5"/>
<text text-anchor="middle" x="520.5" y="-7.5" font-family="Helvetica,sans-Serif" font-size="10.00">iosfwd</text>
</a>
</g>
</g>
<!-- Node5&#45;&gt;Node8 -->
<g id="edge7" class="edge">
<title>Node5&#45;&gt;Node8</title>
<path fill="none" stroke="midnightblue" d="M483.77,-56.08C490.04,-48.38 499.29,-37.03 506.93,-27.65"/>
<polygon fill="midnightblue" stroke="midnightblue" points="509.77,-29.71 513.37,-19.75 504.34,-25.29 509.77,-29.71"/>
</g>
<!-- Node5&#45;&gt;Node9 -->
<g id="edge8" class="edge">
<title>Node5&#45;&gt;Node9</title>
<path fill="none" stroke="midnightblue" d="M517.15,-57.38C567.37,-47.96 653.01,-31.9 709.18,-21.37"/>
<polygon fill="midnightblue" stroke="midnightblue" points="710.13,-24.76 719.31,-19.47 708.84,-17.88 710.13,-24.76"/>
</g>
<!-- Node10&#45;&gt;Node6 -->
<g id="edge13" class="edge">
<title>Node10&#45;&gt;Node6</title>
<path fill="none" stroke="midnightblue" d="M254.23,-56.32C265.34,-48.11 282.24,-35.6 295.48,-25.81"/>
<polygon fill="midnightblue" stroke="midnightblue" points="297.6,-28.59 303.56,-19.83 293.44,-22.97 297.6,-28.59"/>
</g>
<!-- Node11 -->
<g id="node11" class="node">
<title>Node11</title>
<g id="a_node11"><a xlink:title=" ">
<polygon fill="white" stroke="#bfbfbf" points="71.5,-0.5 71.5,-19.5 103.5,-19.5 103.5,-0.5 71.5,-0.5"/>
<text text-anchor="middle" x="87.5" y="-7.5" font-family="Helvetica,sans-Serif" font-size="10.00">list</text>
</a>
</g>
</g>
<!-- Node10&#45;&gt;Node11 -->
<g id="edge11" class="edge">
<title>Node10&#45;&gt;Node11</title>
<path fill="none" stroke="midnightblue" d="M220.39,-57.44C196.27,-49.17 156.29,-35.41 113.17,-20.21"/>
<polygon fill="midnightblue" stroke="midnightblue" points="114.22,-16.87 103.63,-16.84 111.89,-23.47 114.22,-16.87"/>
</g>
<!-- Node12 -->
<g id="node12" class="node">
<title>Node12</title>
<g id="a_node12"><a xlink:title=" ">
<polygon fill="white" stroke="#bfbfbf" points="122,-0.5 122,-19.5 205,-19.5 205,-0.5 122,-0.5"/>
<text text-anchor="middle" x="163.5" y="-7.5" font-family="Helvetica,sans-Serif" font-size="10.00">initializer_list</text>
</a>
</g>
</g>
<!-- Node10&#45;&gt;Node12 -->
<g id="edge12" class="edge">
<title>Node10&#45;&gt;Node12</title>
<path fill="none" stroke="midnightblue" d="M229.81,-56.32C217.6,-47.98 198.92,-35.21 184.5,-25.35"/>
<polygon fill="midnightblue" stroke="midnightblue" points="186.39,-22.41 176.16,-19.65 182.44,-28.19 186.39,-22.41"/>
</g>
<!-- Node13 -->
<g id="node13" class="node">
<title>Node13</title>
<g id="a_node13"><a xlink:title=" ">
<polygon fill="white" stroke="#bfbfbf" points="0,-0.5 0,-19.5 53,-19.5 53,-0.5 0,-0.5"/>
<text text-anchor="middle" x="26.5" y="-7.5" font-family="Helvetica,sans-Serif" font-size="10.00">tlist.tcc</text>
</a>
</g>
</g>
<!-- Node10&#45;&gt;Node13 -->
<g id="edge14" class="edge">
<title>Node10&#45;&gt;Node13</title>
<path fill="none" stroke="midnightblue" d="M220.2,-59.42C183,-50.12 107.94,-31.36 62.96,-20.12"/>
<polygon fill="midnightblue" stroke="midnightblue" points="63.58,-16.66 53.03,-17.63 61.89,-23.45 63.58,-16.66"/>
</g>
<!-- Node14&#45;&gt;Node5 -->
<g id="edge16" class="edge">
<title>Node14&#45;&gt;Node5</title>
<path fill="none" stroke="midnightblue" d="M691.09,-112.44C646.52,-103 574.73,-87.8 526.61,-77.61"/>
<polygon fill="midnightblue" stroke="midnightblue" points="527.22,-74.16 516.72,-75.52 525.77,-81.01 527.22,-74.16"/>
</g>
<!-- Node14&#45;&gt;Node9 -->
<g id="edge18" class="edge">
<title>Node14&#45;&gt;Node9</title>
<path fill="none" stroke="midnightblue" d="M734.09,-112.37C739.44,-94.54 751.81,-53.3 759.02,-29.27"/>
<polygon fill="midnightblue" stroke="midnightblue" points="762.4,-30.18 761.92,-19.59 755.7,-28.16 762.4,-30.18"/>
</g>
<!-- Node14&#45;&gt;Node10 -->
<g id="edge17" class="edge">
<title>Node14&#45;&gt;Node10</title>
<path fill="none" stroke="midnightblue" d="M682.71,-113.08C679.94,-112.7 677.18,-112.33 674.5,-112 500.01,-90.28 454.04,-104.33 280.5,-76 278.75,-75.71 276.96,-75.39 275.17,-75.05"/>
<polygon fill="midnightblue" stroke="midnightblue" points="275.41,-71.52 264.9,-72.86 273.95,-78.37 275.41,-71.52"/>
</g>
<!-- Node15&#45;&gt;Node5 -->
<g id="edge23" class="edge">
<title>Node15&#45;&gt;Node5</title>
<path fill="none" stroke="midnightblue" d="M512.48,-336.48C484.93,-320.54 431.5,-283.38 431.5,-235 431.5,-235 431.5,-235 431.5,-177 431.5,-141.93 451.34,-104.94 464.67,-84.04"/>
<polygon fill="midnightblue" stroke="midnightblue" points="467.63,-85.9 470.24,-75.63 461.8,-82.03 467.63,-85.9"/>
</g>
<!-- Node15&#45;&gt;Node9 -->
<g id="edge24" class="edge">
<title>Node15&#45;&gt;Node9</title>
<path fill="none" stroke="midnightblue" d="M572.7,-337.74C682.8,-318.4 960.5,-261.46 960.5,-179 960.5,-179 960.5,-179 960.5,-121 960.5,-56.21 878.06,-29.19 820.11,-18.2"/>
<polygon fill="midnightblue" stroke="midnightblue" points="820.42,-14.7 809.96,-16.39 819.19,-21.59 820.42,-14.7"/>
</g>
<!-- Node15&#45;&gt;Node10 -->
<g id="edge22" class="edge">
<title>Node15&#45;&gt;Node10</title>
<path fill="none" stroke="midnightblue" d="M484.2,-339.72C394.01,-327.72 197.5,-294.72 197.5,-235 197.5,-235 197.5,-235 197.5,-177 197.5,-141.93 217.34,-104.94 230.67,-84.04"/>
<polygon fill="midnightblue" stroke="midnightblue" points="233.63,-85.9 236.24,-75.63 227.8,-82.03 233.63,-85.9"/>
</g>
<!-- Node16 -->
<g id="node16" class="node">
<title>Node16</title>
<g id="a_node16"><a xlink:href="mp4atom_8h.html" target="_top" xlink:title=" ">
<polygon fill="white" stroke="black" points="492,-280.5 492,-299.5 565,-299.5 565,-280.5 492,-280.5"/>
<text text-anchor="middle" x="528.5" y="-287.5" font-family="Helvetica,sans-Serif" font-size="10.00">mp4atom.h</text>
</a>
</g>
</g>
<!-- Node15&#45;&gt;Node16 -->
<g id="edge25" class="edge">
<title>Node15&#45;&gt;Node16</title>
<path fill="none" stroke="midnightblue" d="M528.5,-336.08C528.5,-329.01 528.5,-318.86 528.5,-309.99"/>
<polygon fill="midnightblue" stroke="midnightblue" points="532,-309.75 528.5,-299.75 525,-309.75 532,-309.75"/>
</g>
<!-- Node16&#45;&gt;Node10 -->
<g id="edge49" class="edge">
<title>Node16&#45;&gt;Node10</title>
<path fill="none" stroke="midnightblue" d="M504.88,-280.4C455.1,-261.17 338.43,-210.16 270.5,-132 258.93,-118.68 251.53,-99.85 247.26,-85.88"/>
<polygon fill="midnightblue" stroke="midnightblue" points="250.54,-84.62 244.49,-75.92 243.8,-86.49 250.54,-84.62"/>
</g>
<!-- Node17 -->
<g id="node17" class="node">
<title>Node17</title>
<g id="a_node17"><a xlink:href="tfile_8h.html" target="_top" xlink:title=" ">
<polygon fill="white" stroke="black" points="537.5,-224.5 537.5,-243.5 581.5,-243.5 581.5,-224.5 537.5,-224.5"/>
<text text-anchor="middle" x="559.5" y="-231.5" font-family="Helvetica,sans-Serif" font-size="10.00">tfile.h</text>
</a>
</g>
</g>
<!-- Node16&#45;&gt;Node17 -->
<g id="edge26" class="edge">
<title>Node16&#45;&gt;Node17</title>
<path fill="none" stroke="midnightblue" d="M533.62,-280.08C537.91,-272.61 544.16,-261.72 549.44,-252.52"/>
<polygon fill="midnightblue" stroke="midnightblue" points="552.53,-254.17 554.48,-243.75 546.46,-250.68 552.53,-254.17"/>
</g>
<!-- Node17&#45;&gt;Node5 -->
<g id="edge27" class="edge">
<title>Node17&#45;&gt;Node5</title>
<path fill="none" stroke="midnightblue" d="M544.3,-224.48C531.7,-216.63 514.34,-203.82 504.5,-188 484.55,-155.91 478.79,-111.05 477.14,-85.95"/>
<polygon fill="midnightblue" stroke="midnightblue" points="480.62,-85.45 476.63,-75.63 473.63,-85.79 480.62,-85.45"/>
</g>
<!-- Node17&#45;&gt;Node9 -->
<g id="edge33" class="edge">
<title>Node17&#45;&gt;Node9</title>
<path fill="none" stroke="midnightblue" d="M560.48,-224.1C564.2,-191.71 578.53,-80.77 602.5,-56 630.12,-27.46 674.15,-16.55 709.34,-12.58"/>
<polygon fill="midnightblue" stroke="midnightblue" points="709.86,-16.05 719.47,-11.6 709.18,-9.08 709.86,-16.05"/>
</g>
<!-- Node18 -->
<g id="node18" class="node">
<title>Node18</title>
<g id="a_node18"><a xlink:href="tiostream_8h.html" target="_top" xlink:title=" ">
<polygon fill="white" stroke="black" points="650,-168.5 650,-187.5 723,-187.5 723,-168.5 650,-168.5"/>
<text text-anchor="middle" x="686.5" y="-175.5" font-family="Helvetica,sans-Serif" font-size="10.00">tiostream.h</text>
</a>
</g>
</g>
<!-- Node17&#45;&gt;Node18 -->
<g id="edge28" class="edge">
<title>Node17&#45;&gt;Node18</title>
<path fill="none" stroke="midnightblue" d="M579.62,-224.44C600.52,-215.56 633.43,-201.56 657.22,-191.45"/>
<polygon fill="midnightblue" stroke="midnightblue" points="658.64,-194.65 666.47,-187.52 655.9,-188.21 658.64,-194.65"/>
</g>
<!-- Node19 -->
<g id="node19" class="node">
<title>Node19</title>
<g id="a_node19"><a xlink:href="taglib_8h.html" target="_top" xlink:title=" ">
<polygon fill="white" stroke="black" points="612,-112.5 612,-131.5 665,-131.5 665,-112.5 612,-112.5"/>
<text text-anchor="middle" x="638.5" y="-119.5" font-family="Helvetica,sans-Serif" font-size="10.00">taglib.h</text>
</a>
</g>
</g>
<!-- Node17&#45;&gt;Node19 -->
<g id="edge34" class="edge">
<title>Node17&#45;&gt;Node19</title>
<path fill="none" stroke="midnightblue" d="M567.45,-224.33C575.41,-215.48 587.83,-201.2 597.5,-188 608.92,-172.41 620.54,-153.65 628.48,-140.3"/>
<polygon fill="midnightblue" stroke="midnightblue" points="631.51,-142.06 633.56,-131.66 625.47,-138.51 631.51,-142.06"/>
</g>
<!-- Node21 -->
<g id="node21" class="node">
<title>Node21</title>
<g id="a_node21"><a xlink:href="tag_8h.html" target="_top" xlink:title=" ">
<polygon fill="white" stroke="black" points="514,-168.5 514,-187.5 555,-187.5 555,-168.5 514,-168.5"/>
<text text-anchor="middle" x="534.5" y="-175.5" font-family="Helvetica,sans-Serif" font-size="10.00">tag.h</text>
</a>
</g>
</g>
<!-- Node17&#45;&gt;Node21 -->
<g id="edge35" class="edge">
<title>Node17&#45;&gt;Node21</title>
<path fill="none" stroke="midnightblue" d="M555.37,-224.08C551.99,-216.77 547.08,-206.18 542.88,-197.1"/>
<polygon fill="midnightblue" stroke="midnightblue" points="545.93,-195.36 538.55,-187.75 539.58,-198.3 545.93,-195.36"/>
</g>
<!-- Node18&#45;&gt;Node5 -->
<g id="edge29" class="edge">
<title>Node18&#45;&gt;Node5</title>
<path fill="none" stroke="midnightblue" d="M670.02,-168.37C633.53,-149.25 545.66,-103.23 502.01,-80.36"/>
<polygon fill="midnightblue" stroke="midnightblue" points="503.38,-77.13 492.9,-75.59 500.14,-83.33 503.38,-77.13"/>
</g>
<!-- Node18&#45;&gt;Node9 -->
<g id="edge30" class="edge">
<title>Node18&#45;&gt;Node9</title>
<path fill="none" stroke="midnightblue" d="M723.09,-171.37C746.39,-165.69 774.86,-154.37 789.5,-132 810.55,-99.83 789.88,-53.41 775.58,-28.45"/>
<polygon fill="midnightblue" stroke="midnightblue" points="778.49,-26.49 770.34,-19.73 772.49,-30.1 778.49,-26.49"/>
</g>
<!-- Node18&#45;&gt;Node19 -->
<g id="edge31" class="edge">
<title>Node18&#45;&gt;Node19</title>
<path fill="none" stroke="midnightblue" d="M678.57,-168.08C671.65,-160.3 661.43,-148.8 653.05,-139.37"/>
<polygon fill="midnightblue" stroke="midnightblue" points="655.54,-136.9 646.28,-131.75 650.31,-141.55 655.54,-136.9"/>
</g>
<!-- Node20 -->
<g id="node20" class="node">
<title>Node20</title>
<g id="a_node20"><a xlink:title=" ">
<polygon fill="white" stroke="#bfbfbf" points="611.5,-56.5 611.5,-75.5 683.5,-75.5 683.5,-56.5 611.5,-56.5"/>
<text text-anchor="middle" x="647.5" y="-63.5" font-family="Helvetica,sans-Serif" font-size="10.00">sys/types.h</text>
</a>
</g>
</g>
<!-- Node19&#45;&gt;Node20 -->
<g id="edge32" class="edge">
<title>Node19&#45;&gt;Node20</title>
<path fill="none" stroke="midnightblue" d="M639.99,-112.08C641.18,-104.93 642.89,-94.64 644.38,-85.69"/>
<polygon fill="midnightblue" stroke="midnightblue" points="647.85,-86.19 646.04,-75.75 640.95,-85.04 647.85,-86.19"/>
</g>
<!-- Node21&#45;&gt;Node3 -->
<g id="edge37" class="edge">
<title>Node21&#45;&gt;Node3</title>
<path fill="none" stroke="midnightblue" d="M555.21,-173.62C609.32,-164.79 755.67,-140.92 826.31,-129.39"/>
<polygon fill="midnightblue" stroke="midnightblue" points="827.26,-132.79 836.57,-127.72 826.13,-125.88 827.26,-132.79"/>
</g>
<!-- Node21&#45;&gt;Node9 -->
<g id="edge36" class="edge">
<title>Node21&#45;&gt;Node9</title>
<path fill="none" stroke="midnightblue" d="M534.24,-168.5C534.06,-146.45 536.79,-86.97 569.5,-56 589.39,-37.17 658.72,-24.47 709.07,-17.49"/>
<polygon fill="midnightblue" stroke="midnightblue" points="709.74,-20.93 719.18,-16.12 708.8,-13.99 709.74,-20.93"/>
</g>
<!-- Node21&#45;&gt;Node10 -->
<g id="edge38" class="edge">
<title>Node21&#45;&gt;Node10</title>
<path fill="none" stroke="midnightblue" d="M513.89,-177.56C470.7,-177.81 368.77,-173.57 297.5,-132 278.02,-120.63 262.22,-99.73 252.64,-84.69"/>
<polygon fill="midnightblue" stroke="midnightblue" points="255.44,-82.55 247.26,-75.81 249.45,-86.18 255.44,-82.55"/>
</g>
<!-- Node22 -->
<g id="node22" class="node">
<title>Node22</title>
<g id="a_node22"><a xlink:href="tvariant_8h.html" target="_top" xlink:title=" ">
<polygon fill="white" stroke="black" points="339.5,-112.5 339.5,-131.5 403.5,-131.5 403.5,-112.5 339.5,-112.5"/>
<text text-anchor="middle" x="371.5" y="-119.5" font-family="Helvetica,sans-Serif" font-size="10.00">tvariant.h</text>
</a>
</g>
</g>
<!-- Node21&#45;&gt;Node22 -->
<g id="edge39" class="edge">
<title>Node21&#45;&gt;Node22</title>
<path fill="none" stroke="midnightblue" d="M513.86,-170.16C486.99,-161.26 439.64,-145.57 406.97,-134.75"/>
<polygon fill="midnightblue" stroke="midnightblue" points="407.94,-131.38 397.34,-131.56 405.73,-138.03 407.94,-131.38"/>
</g>
<!-- Node22&#45;&gt;Node8 -->
<g id="edge40" class="edge">
<title>Node22&#45;&gt;Node8</title>
<path fill="none" stroke="midnightblue" d="M372.09,-112.17C373.48,-98.36 378.11,-71.61 393.5,-56 400.28,-49.12 451.19,-32.38 486.46,-21.37"/>
<polygon fill="midnightblue" stroke="midnightblue" points="487.87,-24.6 496.39,-18.29 485.8,-17.91 487.87,-24.6"/>
</g>
<!-- Node22&#45;&gt;Node9 -->
<g id="edge48" class="edge">
<title>Node22&#45;&gt;Node9</title>
<path fill="none" stroke="midnightblue" d="M376.18,-112.04C384.27,-97.53 402.38,-69.19 426.5,-56 450.79,-42.72 620.02,-24.82 709.42,-16.15"/>
<polygon fill="midnightblue" stroke="midnightblue" points="709.77,-19.63 719.39,-15.18 709.1,-12.66 709.77,-19.63"/>
</g>
<!-- Node22&#45;&gt;Node10 -->
<g id="edge41" class="edge">
<title>Node22&#45;&gt;Node10</title>
<path fill="none" stroke="midnightblue" d="M351.06,-112.44C329.83,-103.56 296.4,-89.56 272.25,-79.45"/>
<polygon fill="midnightblue" stroke="midnightblue" points="273.42,-76.15 262.84,-75.52 270.72,-82.61 273.42,-76.15"/>
</g>
<!-- Node23 -->
<g id="node23" class="node">
<title>Node23</title>
<g id="a_node23"><a xlink:href="tmap_8h.html" target="_top" xlink:title=" ">
<polygon fill="white" stroke="black" points="290,-56.5 290,-75.5 341,-75.5 341,-56.5 290,-56.5"/>
<text text-anchor="middle" x="315.5" y="-63.5" font-family="Helvetica,sans-Serif" font-size="10.00">tmap.h</text>
</a>
</g>
</g>
<!-- Node22&#45;&gt;Node23 -->
<g id="edge42" class="edge">
<title>Node22&#45;&gt;Node23</title>
<path fill="none" stroke="midnightblue" d="M362.5,-112.32C354.31,-104.42 341.99,-92.55 332.03,-82.94"/>
<polygon fill="midnightblue" stroke="midnightblue" points="334.29,-80.26 324.66,-75.83 329.43,-85.29 334.29,-80.26"/>
</g>
<!-- Node23&#45;&gt;Node6 -->
<g id="edge44" class="edge">
<title>Node23&#45;&gt;Node6</title>
<path fill="none" stroke="midnightblue" d="M315.5,-56.08C315.5,-49.01 315.5,-38.86 315.5,-29.99"/>
<polygon fill="midnightblue" stroke="midnightblue" points="319,-29.75 315.5,-19.75 312,-29.75 319,-29.75"/>
</g>
<!-- Node23&#45;&gt;Node12 -->
<g id="edge45" class="edge">
<title>Node23&#45;&gt;Node12</title>
<path fill="none" stroke="midnightblue" d="M291.42,-56.44C265.96,-47.4 225.61,-33.06 197.04,-22.92"/>
<polygon fill="midnightblue" stroke="midnightblue" points="198.07,-19.57 187.47,-19.52 195.72,-26.16 198.07,-19.57"/>
</g>
<!-- Node24 -->
<g id="node24" class="node">
<title>Node24</title>
<g id="a_node24"><a xlink:title=" ">
<polygon fill="white" stroke="#bfbfbf" points="362.5,-0.5 362.5,-19.5 400.5,-19.5 400.5,-0.5 362.5,-0.5"/>
<text text-anchor="middle" x="381.5" y="-7.5" font-family="Helvetica,sans-Serif" font-size="10.00">map</text>
</a>
</g>
</g>
<!-- Node23&#45;&gt;Node24 -->
<g id="edge43" class="edge">
<title>Node23&#45;&gt;Node24</title>
<path fill="none" stroke="midnightblue" d="M326.1,-56.32C335.96,-48.26 350.85,-36.08 362.72,-26.37"/>
<polygon fill="midnightblue" stroke="midnightblue" points="365.18,-28.88 370.7,-19.83 360.75,-23.46 365.18,-28.88"/>
</g>
<!-- Node25 -->
<g id="node25" class="node">
<title>Node25</title>
<g id="a_node25"><a xlink:title=" ">
<polygon fill="white" stroke="#bfbfbf" points="223,-0.5 223,-19.5 268,-19.5 268,-0.5 223,-0.5"/>
<text text-anchor="middle" x="245.5" y="-7.5" font-family="Helvetica,sans-Serif" font-size="10.00">utility</text>
</a>
</g>
</g>
<!-- Node23&#45;&gt;Node25 -->
<g id="edge46" class="edge">
<title>Node23&#45;&gt;Node25</title>
<path fill="none" stroke="midnightblue" d="M304.25,-56.32C293.7,-48.18 277.7,-35.84 265.06,-26.09"/>
<polygon fill="midnightblue" stroke="midnightblue" points="267.01,-23.17 256.95,-19.83 262.73,-28.71 267.01,-23.17"/>
</g>
<!-- Node26 -->
<g id="node26" class="node">
<title>Node26</title>
<g id="a_node26"><a xlink:title=" ">
<polygon fill="white" stroke="#bfbfbf" points="419,-0.5 419,-19.5 478,-19.5 478,-0.5 419,-0.5"/>
<text text-anchor="middle" x="448.5" y="-7.5" font-family="Helvetica,sans-Serif" font-size="10.00">tmap.tcc</text>
</a>
</g>
</g>
<!-- Node23&#45;&gt;Node26 -->
<g id="edge47" class="edge">
<title>Node23&#45;&gt;Node26</title>
<path fill="none" stroke="midnightblue" d="M336.57,-56.44C358.56,-47.52 393.23,-33.44 418.16,-23.32"/>
<polygon fill="midnightblue" stroke="midnightblue" points="419.58,-26.52 427.52,-19.52 416.94,-20.04 419.58,-26.52"/>
</g>
</g>
</svg>
