<?xml version="1.0" encoding="UTF-8" standalone="no"?>
<!DOCTYPE svg PUBLIC "-//W3C//DTD SVG 1.1//EN"
 "http://www.w3.org/Graphics/SVG/1.1/DTD/svg11.dtd">
<!-- Generated by graphviz version 2.43.0 (0)
 -->
<!-- Title: mp4item.h Pages: 1 -->
<svg width="1106pt" height="476pt"
 viewBox="0.00 0.00 1105.50 476.00" xmlns="http://www.w3.org/2000/svg" xmlns:xlink="http://www.w3.org/1999/xlink">
<g id="graph0" class="graph" transform="scale(1 1) rotate(0) translate(4 472)">
<title>mp4item.h</title>
<polygon fill="white" stroke="transparent" points="-4,4 -4,-472 1101.5,-472 1101.5,4 -4,4"/>
<!-- Node1 -->
<g id="node1" class="node">
<title>Node1</title>
<g id="a_node1"><a xlink:title=" ">
<polygon fill="#bfbfbf" stroke="black" points="777.5,-448.5 777.5,-467.5 847.5,-467.5 847.5,-448.5 777.5,-448.5"/>
<text text-anchor="middle" x="812.5" y="-455.5" font-family="Helvetica,sans-Serif" font-size="10.00">mp4item.h</text>
</a>
</g>
</g>
<!-- Node2 -->
<g id="node2" class="node">
<title>Node2</title>
<g id="a_node2"><a xlink:href="tstringlist_8h.html" target="_top" xlink:title=" ">
<polygon fill="white" stroke="black" points="776.5,-224.5 776.5,-243.5 848.5,-243.5 848.5,-224.5 776.5,-224.5"/>
<text text-anchor="middle" x="812.5" y="-231.5" font-family="Helvetica,sans-Serif" font-size="10.00">tstringlist.h</text>
</a>
</g>
</g>
<!-- Node1&#45;&gt;Node2 -->
<g id="edge1" class="edge">
<title>Node1&#45;&gt;Node2</title>
<path fill="none" stroke="midnightblue" d="M812.5,-448.3C812.5,-415.63 812.5,-299.87 812.5,-253.96"/>
<polygon fill="midnightblue" stroke="midnightblue" points="816,-253.88 812.5,-243.88 809,-253.88 816,-253.88"/>
</g>
<!-- Node12 -->
<g id="node12" class="node">
<title>Node12</title>
<g id="a_node12"><a xlink:href="taglib__export_8h.html" target="_top" xlink:title=" ">
<polygon fill="white" stroke="black" points="881.5,-56.5 881.5,-75.5 971.5,-75.5 971.5,-56.5 881.5,-56.5"/>
<text text-anchor="middle" x="926.5" y="-63.5" font-family="Helvetica,sans-Serif" font-size="10.00">taglib_export.h</text>
</a>
</g>
</g>
<!-- Node1&#45;&gt;Node12 -->
<g id="edge28" class="edge">
<title>Node1&#45;&gt;Node12</title>
<path fill="none" stroke="midnightblue" d="M847.73,-451.07C923.98,-437.25 1097.5,-399.97 1097.5,-347 1097.5,-347 1097.5,-347 1097.5,-177 1097.5,-120.74 1031.22,-91.9 981.19,-78.14"/>
<polygon fill="midnightblue" stroke="midnightblue" points="981.99,-74.73 971.43,-75.58 980.22,-81.5 981.99,-74.73"/>
</g>
<!-- Node18 -->
<g id="node18" class="node">
<title>Node18</title>
<g id="a_node18"><a xlink:href="mp4coverart_8h.html" target="_top" xlink:title=" ">
<polygon fill="white" stroke="black" points="596.5,-392.5 596.5,-411.5 684.5,-411.5 684.5,-392.5 596.5,-392.5"/>
<text text-anchor="middle" x="640.5" y="-399.5" font-family="Helvetica,sans-Serif" font-size="10.00">mp4coverart.h</text>
</a>
</g>
</g>
<!-- Node1&#45;&gt;Node18 -->
<g id="edge29" class="edge">
<title>Node1&#45;&gt;Node18</title>
<path fill="none" stroke="midnightblue" d="M785.25,-448.44C756.06,-439.28 709.58,-424.69 677.19,-414.52"/>
<polygon fill="midnightblue" stroke="midnightblue" points="678.22,-411.17 667.63,-411.52 676.12,-417.85 678.22,-411.17"/>
</g>
<!-- Node3 -->
<g id="node3" class="node">
<title>Node3</title>
<g id="a_node3"><a xlink:title=" ">
<polygon fill="white" stroke="#bfbfbf" points="696.5,-56.5 696.5,-75.5 756.5,-75.5 756.5,-56.5 696.5,-56.5"/>
<text text-anchor="middle" x="726.5" y="-63.5" font-family="Helvetica,sans-Serif" font-size="10.00">iostream</text>
</a>
</g>
</g>
<!-- Node2&#45;&gt;Node3 -->
<g id="edge2" class="edge">
<title>Node2&#45;&gt;Node3</title>
<path fill="none" stroke="midnightblue" d="M823.68,-224.44C838.13,-212.27 860.35,-189.08 850.5,-168 831.08,-126.47 785.12,-96.49 754.94,-80.44"/>
<polygon fill="midnightblue" stroke="midnightblue" points="756.24,-77.18 745.75,-75.73 753.05,-83.41 756.24,-77.18"/>
</g>
<!-- Node4 -->
<g id="node4" class="node">
<title>Node4</title>
<g id="a_node4"><a xlink:href="tstring_8h.html" target="_top" xlink:title=" ">
<polygon fill="white" stroke="black" points="784,-168.5 784,-187.5 841,-187.5 841,-168.5 784,-168.5"/>
<text text-anchor="middle" x="812.5" y="-175.5" font-family="Helvetica,sans-Serif" font-size="10.00">tstring.h</text>
</a>
</g>
</g>
<!-- Node2&#45;&gt;Node4 -->
<g id="edge3" class="edge">
<title>Node2&#45;&gt;Node4</title>
<path fill="none" stroke="midnightblue" d="M812.5,-224.08C812.5,-217.01 812.5,-206.86 812.5,-197.99"/>
<polygon fill="midnightblue" stroke="midnightblue" points="816,-197.75 812.5,-187.75 809,-197.75 816,-197.75"/>
</g>
<!-- Node2&#45;&gt;Node12 -->
<g id="edge27" class="edge">
<title>Node2&#45;&gt;Node12</title>
<path fill="none" stroke="midnightblue" d="M848.62,-233.23C883.35,-231.27 934.18,-222.22 959.5,-188 979.59,-160.84 970.01,-144.1 959.5,-112 956.01,-101.34 948.93,-91.12 942.21,-83.12"/>
<polygon fill="midnightblue" stroke="midnightblue" points="944.8,-80.76 935.52,-75.66 939.6,-85.44 944.8,-80.76"/>
</g>
<!-- Node13 -->
<g id="node13" class="node">
<title>Node13</title>
<g id="a_node13"><a xlink:href="tlist_8h.html" target="_top" xlink:title=" ">
<polygon fill="white" stroke="black" points="309.5,-112.5 309.5,-131.5 353.5,-131.5 353.5,-112.5 309.5,-112.5"/>
<text text-anchor="middle" x="331.5" y="-119.5" font-family="Helvetica,sans-Serif" font-size="10.00">tlist.h</text>
</a>
</g>
</g>
<!-- Node2&#45;&gt;Node13 -->
<g id="edge17" class="edge">
<title>Node2&#45;&gt;Node13</title>
<path fill="none" stroke="midnightblue" d="M776.28,-231.62C690.12,-227.9 475.23,-216.02 409.5,-188 383.78,-177.03 359.99,-154.7 345.61,-139.3"/>
<polygon fill="midnightblue" stroke="midnightblue" points="347.93,-136.65 338.63,-131.57 342.73,-141.34 347.93,-136.65"/>
</g>
<!-- Node17 -->
<g id="node17" class="node">
<title>Node17</title>
<g id="a_node17"><a xlink:href="tbytevectorlist_8h.html" target="_top" xlink:title=" ">
<polygon fill="white" stroke="black" points="669,-168.5 669,-187.5 766,-187.5 766,-168.5 669,-168.5"/>
<text text-anchor="middle" x="717.5" y="-175.5" font-family="Helvetica,sans-Serif" font-size="10.00">tbytevectorlist.h</text>
</a>
</g>
</g>
<!-- Node2&#45;&gt;Node17 -->
<g id="edge23" class="edge">
<title>Node2&#45;&gt;Node17</title>
<path fill="none" stroke="midnightblue" d="M797.24,-224.32C782.28,-215.82 759.25,-202.73 741.77,-192.8"/>
<polygon fill="midnightblue" stroke="midnightblue" points="743.15,-189.55 732.73,-187.65 739.69,-195.64 743.15,-189.55"/>
</g>
<!-- Node4&#45;&gt;Node3 -->
<g id="edge4" class="edge">
<title>Node4&#45;&gt;Node3</title>
<path fill="none" stroke="midnightblue" d="M805.75,-168.37C791.5,-150.14 758.11,-107.43 739.54,-83.68"/>
<polygon fill="midnightblue" stroke="midnightblue" points="742.13,-81.31 733.22,-75.59 736.62,-85.63 742.13,-81.31"/>
</g>
<!-- Node5 -->
<g id="node5" class="node">
<title>Node5</title>
<g id="a_node5"><a xlink:title=" ">
<polygon fill="white" stroke="#bfbfbf" points="737.5,-0.5 737.5,-19.5 781.5,-19.5 781.5,-0.5 737.5,-0.5"/>
<text text-anchor="middle" x="759.5" y="-7.5" font-family="Helvetica,sans-Serif" font-size="10.00">string</text>
</a>
</g>
</g>
<!-- Node4&#45;&gt;Node5 -->
<g id="edge5" class="edge">
<title>Node4&#45;&gt;Node5</title>
<path fill="none" stroke="midnightblue" d="M809.65,-168.08C801.27,-141.83 776.6,-64.55 765.28,-29.12"/>
<polygon fill="midnightblue" stroke="midnightblue" points="768.61,-28.03 762.24,-19.57 761.94,-30.16 768.61,-28.03"/>
</g>
<!-- Node6 -->
<g id="node6" class="node">
<title>Node6</title>
<g id="a_node6"><a xlink:href="tbytevector_8h.html" target="_top" xlink:title=" ">
<polygon fill="white" stroke="black" points="532,-112.5 532,-131.5 613,-131.5 613,-112.5 532,-112.5"/>
<text text-anchor="middle" x="572.5" y="-119.5" font-family="Helvetica,sans-Serif" font-size="10.00">tbytevector.h</text>
</a>
</g>
</g>
<!-- Node4&#45;&gt;Node6 -->
<g id="edge6" class="edge">
<title>Node4&#45;&gt;Node6</title>
<path fill="none" stroke="midnightblue" d="M783.83,-169.97C781.02,-169.29 778.2,-168.63 775.5,-168 723.2,-155.84 663.15,-142.62 622.01,-133.68"/>
<polygon fill="midnightblue" stroke="midnightblue" points="622.75,-130.26 612.23,-131.56 621.26,-137.1 622.75,-130.26"/>
</g>
<!-- Node9 -->
<g id="node9" class="node">
<title>Node9</title>
<g id="a_node9"><a xlink:href="taglib_8h.html" target="_top" xlink:title=" ">
<polygon fill="white" stroke="black" points="496,-56.5 496,-75.5 549,-75.5 549,-56.5 496,-56.5"/>
<text text-anchor="middle" x="522.5" y="-63.5" font-family="Helvetica,sans-Serif" font-size="10.00">taglib.h</text>
</a>
</g>
</g>
<!-- Node4&#45;&gt;Node9 -->
<g id="edge16" class="edge">
<title>Node4&#45;&gt;Node9</title>
<path fill="none" stroke="midnightblue" d="M789.74,-168.37C738.5,-148.93 613.91,-101.67 554.74,-79.23"/>
<polygon fill="midnightblue" stroke="midnightblue" points="555.74,-75.87 545.15,-75.59 553.26,-82.41 555.74,-75.87"/>
</g>
<!-- Node4&#45;&gt;Node12 -->
<g id="edge15" class="edge">
<title>Node4&#45;&gt;Node12</title>
<path fill="none" stroke="midnightblue" d="M821.45,-168.37C840.59,-149.89 885.78,-106.29 910.18,-82.74"/>
<polygon fill="midnightblue" stroke="midnightblue" points="912.83,-85.05 917.6,-75.59 907.97,-80.02 912.83,-85.05"/>
</g>
<!-- Node6&#45;&gt;Node3 -->
<g id="edge7" class="edge">
<title>Node6&#45;&gt;Node3</title>
<path fill="none" stroke="midnightblue" d="M596.9,-112.44C622.7,-103.4 663.58,-89.06 692.52,-78.92"/>
<polygon fill="midnightblue" stroke="midnightblue" points="693.93,-82.13 702.21,-75.52 691.62,-75.52 693.93,-82.13"/>
</g>
<!-- Node7 -->
<g id="node7" class="node">
<title>Node7</title>
<g id="a_node7"><a xlink:title=" ">
<polygon fill="white" stroke="#bfbfbf" points="348.5,-56.5 348.5,-75.5 406.5,-75.5 406.5,-56.5 348.5,-56.5"/>
<text text-anchor="middle" x="377.5" y="-63.5" font-family="Helvetica,sans-Serif" font-size="10.00">memory</text>
</a>
</g>
</g>
<!-- Node6&#45;&gt;Node7 -->
<g id="edge8" class="edge">
<title>Node6&#45;&gt;Node7</title>
<path fill="none" stroke="midnightblue" d="M541.6,-112.44C507.74,-103.07 453.33,-88 416.54,-77.81"/>
<polygon fill="midnightblue" stroke="midnightblue" points="417.23,-74.37 406.66,-75.08 415.36,-81.12 417.23,-74.37"/>
</g>
<!-- Node8 -->
<g id="node8" class="node">
<title>Node8</title>
<g id="a_node8"><a xlink:title=" ">
<polygon fill="white" stroke="#bfbfbf" points="567,-56.5 567,-75.5 614,-75.5 614,-56.5 567,-56.5"/>
<text text-anchor="middle" x="590.5" y="-63.5" font-family="Helvetica,sans-Serif" font-size="10.00">vector</text>
</a>
</g>
</g>
<!-- Node6&#45;&gt;Node8 -->
<g id="edge9" class="edge">
<title>Node6&#45;&gt;Node8</title>
<path fill="none" stroke="midnightblue" d="M575.47,-112.08C577.88,-104.85 581.36,-94.41 584.37,-85.4"/>
<polygon fill="midnightblue" stroke="midnightblue" points="587.74,-86.34 587.58,-75.75 581.1,-84.13 587.74,-86.34"/>
</g>
<!-- Node6&#45;&gt;Node9 -->
<g id="edge10" class="edge">
<title>Node6&#45;&gt;Node9</title>
<path fill="none" stroke="midnightblue" d="M564.24,-112.08C557.04,-104.3 546.39,-92.8 537.65,-83.37"/>
<polygon fill="midnightblue" stroke="midnightblue" points="539.97,-80.71 530.6,-75.75 534.83,-85.47 539.97,-80.71"/>
</g>
<!-- Node6&#45;&gt;Node12 -->
<g id="edge14" class="edge">
<title>Node6&#45;&gt;Node12</title>
<path fill="none" stroke="midnightblue" d="M613.11,-114.81C676.63,-105.12 799.64,-86.35 871.2,-75.44"/>
<polygon fill="midnightblue" stroke="midnightblue" points="872.01,-78.85 881.37,-73.88 870.95,-71.93 872.01,-78.85"/>
</g>
<!-- Node9&#45;&gt;Node5 -->
<g id="edge13" class="edge">
<title>Node9&#45;&gt;Node5</title>
<path fill="none" stroke="midnightblue" d="M549.22,-58.24C552.34,-57.47 555.49,-56.71 558.5,-56 618.07,-41.89 687.86,-26.52 727.56,-17.9"/>
<polygon fill="midnightblue" stroke="midnightblue" points="728.42,-21.29 737.45,-15.75 726.93,-14.45 728.42,-21.29"/>
</g>
<!-- Node10 -->
<g id="node10" class="node">
<title>Node10</title>
<g id="a_node10"><a xlink:title=" ">
<polygon fill="white" stroke="#bfbfbf" points="527.5,-0.5 527.5,-19.5 615.5,-19.5 615.5,-0.5 527.5,-0.5"/>
<text text-anchor="middle" x="571.5" y="-7.5" font-family="Helvetica,sans-Serif" font-size="10.00">taglib_config.h</text>
</a>
</g>
</g>
<!-- Node9&#45;&gt;Node10 -->
<g id="edge11" class="edge">
<title>Node9&#45;&gt;Node10</title>
<path fill="none" stroke="midnightblue" d="M530.59,-56.08C537.66,-48.3 548.09,-36.8 556.65,-27.37"/>
<polygon fill="midnightblue" stroke="midnightblue" points="559.43,-29.51 563.56,-19.75 554.25,-24.8 559.43,-29.51"/>
</g>
<!-- Node11 -->
<g id="node11" class="node">
<title>Node11</title>
<g id="a_node11"><a xlink:title=" ">
<polygon fill="white" stroke="#bfbfbf" points="437.5,-0.5 437.5,-19.5 509.5,-19.5 509.5,-0.5 437.5,-0.5"/>
<text text-anchor="middle" x="473.5" y="-7.5" font-family="Helvetica,sans-Serif" font-size="10.00">sys/types.h</text>
</a>
</g>
</g>
<!-- Node9&#45;&gt;Node11 -->
<g id="edge12" class="edge">
<title>Node9&#45;&gt;Node11</title>
<path fill="none" stroke="midnightblue" d="M514.41,-56.08C507.34,-48.3 496.91,-36.8 488.35,-27.37"/>
<polygon fill="midnightblue" stroke="midnightblue" points="490.75,-24.8 481.44,-19.75 485.57,-29.51 490.75,-24.8"/>
</g>
<!-- Node13&#45;&gt;Node7 -->
<g id="edge20" class="edge">
<title>Node13&#45;&gt;Node7</title>
<path fill="none" stroke="midnightblue" d="M339.1,-112.08C345.73,-104.3 355.52,-92.8 363.56,-83.37"/>
<polygon fill="midnightblue" stroke="midnightblue" points="366.23,-85.63 370.05,-75.75 360.9,-81.09 366.23,-85.63"/>
</g>
<!-- Node13&#45;&gt;Node9 -->
<g id="edge21" class="edge">
<title>Node13&#45;&gt;Node9</title>
<path fill="none" stroke="midnightblue" d="M353.78,-114.7C386.21,-105.53 446.79,-88.4 485.85,-77.36"/>
<polygon fill="midnightblue" stroke="midnightblue" points="487.1,-80.65 495.77,-74.56 485.2,-73.91 487.1,-80.65"/>
</g>
<!-- Node14 -->
<g id="node14" class="node">
<title>Node14</title>
<g id="a_node14"><a xlink:title=" ">
<polygon fill="white" stroke="#bfbfbf" points="298.5,-56.5 298.5,-75.5 330.5,-75.5 330.5,-56.5 298.5,-56.5"/>
<text text-anchor="middle" x="314.5" y="-63.5" font-family="Helvetica,sans-Serif" font-size="10.00">list</text>
</a>
</g>
</g>
<!-- Node13&#45;&gt;Node14 -->
<g id="edge18" class="edge">
<title>Node13&#45;&gt;Node14</title>
<path fill="none" stroke="midnightblue" d="M328.69,-112.08C326.42,-104.85 323.13,-94.41 320.29,-85.4"/>
<polygon fill="midnightblue" stroke="midnightblue" points="323.6,-84.24 317.25,-75.75 316.92,-86.34 323.6,-84.24"/>
</g>
<!-- Node15 -->
<g id="node15" class="node">
<title>Node15</title>
<g id="a_node15"><a xlink:title=" ">
<polygon fill="white" stroke="#bfbfbf" points="197,-56.5 197,-75.5 280,-75.5 280,-56.5 197,-56.5"/>
<text text-anchor="middle" x="238.5" y="-63.5" font-family="Helvetica,sans-Serif" font-size="10.00">initializer_list</text>
</a>
</g>
</g>
<!-- Node13&#45;&gt;Node15 -->
<g id="edge19" class="edge">
<title>Node13&#45;&gt;Node15</title>
<path fill="none" stroke="midnightblue" d="M316.56,-112.32C301.91,-103.82 279.37,-90.73 262.26,-80.8"/>
<polygon fill="midnightblue" stroke="midnightblue" points="263.81,-77.65 253.4,-75.65 260.3,-83.7 263.81,-77.65"/>
</g>
<!-- Node16 -->
<g id="node16" class="node">
<title>Node16</title>
<g id="a_node16"><a xlink:title=" ">
<polygon fill="white" stroke="#bfbfbf" points="425,-56.5 425,-75.5 478,-75.5 478,-56.5 425,-56.5"/>
<text text-anchor="middle" x="451.5" y="-63.5" font-family="Helvetica,sans-Serif" font-size="10.00">tlist.tcc</text>
</a>
</g>
</g>
<!-- Node13&#45;&gt;Node16 -->
<g id="edge22" class="edge">
<title>Node13&#45;&gt;Node16</title>
<path fill="none" stroke="midnightblue" d="M350.51,-112.44C370.09,-103.64 400.81,-89.81 423.23,-79.72"/>
<polygon fill="midnightblue" stroke="midnightblue" points="424.89,-82.81 432.57,-75.52 422.02,-76.43 424.89,-82.81"/>
</g>
<!-- Node17&#45;&gt;Node6 -->
<g id="edge24" class="edge">
<title>Node17&#45;&gt;Node6</title>
<path fill="none" stroke="midnightblue" d="M694.52,-168.44C670.34,-159.44 632.08,-145.19 604.85,-135.05"/>
<polygon fill="midnightblue" stroke="midnightblue" points="605.96,-131.73 595.37,-131.52 603.52,-138.29 605.96,-131.73"/>
</g>
<!-- Node17&#45;&gt;Node12 -->
<g id="edge26" class="edge">
<title>Node17&#45;&gt;Node12</title>
<path fill="none" stroke="midnightblue" d="M733.9,-168.37C770.22,-149.25 857.66,-103.23 901.11,-80.36"/>
<polygon fill="midnightblue" stroke="midnightblue" points="902.96,-83.35 910.18,-75.59 899.7,-77.15 902.96,-83.35"/>
</g>
<!-- Node17&#45;&gt;Node13 -->
<g id="edge25" class="edge">
<title>Node17&#45;&gt;Node13</title>
<path fill="none" stroke="midnightblue" d="M668.75,-173.1C602.08,-167.26 478.66,-154.65 363.8,-131.75"/>
<polygon fill="midnightblue" stroke="midnightblue" points="364.27,-128.27 353.78,-129.72 362.88,-135.13 364.27,-128.27"/>
</g>
<!-- Node18&#45;&gt;Node6 -->
<g id="edge31" class="edge">
<title>Node18&#45;&gt;Node6</title>
<path fill="none" stroke="midnightblue" d="M640.5,-392.44C640.5,-373.94 640.5,-328.81 640.5,-291 640.5,-291 640.5,-291 640.5,-233 640.5,-194.55 610.07,-158.31 589.92,-138.54"/>
<polygon fill="midnightblue" stroke="midnightblue" points="592.21,-135.89 582.53,-131.57 587.4,-140.98 592.21,-135.89"/>
</g>
<!-- Node18&#45;&gt;Node12 -->
<g id="edge32" class="edge">
<title>Node18&#45;&gt;Node12</title>
<path fill="none" stroke="midnightblue" d="M684.55,-398.77C792.13,-392.13 1059.5,-367.9 1059.5,-291 1059.5,-291 1059.5,-291 1059.5,-177 1059.5,-126.73 1002.37,-95.1 963,-79.27"/>
<polygon fill="midnightblue" stroke="midnightblue" points="964,-75.91 953.41,-75.59 961.49,-82.45 964,-75.91"/>
</g>
<!-- Node18&#45;&gt;Node13 -->
<g id="edge30" class="edge">
<title>Node18&#45;&gt;Node13</title>
<path fill="none" stroke="midnightblue" d="M621.4,-392.33C569.83,-367.94 426.72,-293.56 352.5,-188 342.8,-174.21 337.4,-155.68 334.51,-141.94"/>
<polygon fill="midnightblue" stroke="midnightblue" points="337.88,-140.93 332.64,-131.73 331,-142.2 337.88,-140.93"/>
</g>
<!-- Node19 -->
<g id="node19" class="node">
<title>Node19</title>
<g id="a_node19"><a xlink:href="mp4atom_8h.html" target="_top" xlink:title=" ">
<polygon fill="white" stroke="black" points="273,-336.5 273,-355.5 346,-355.5 346,-336.5 273,-336.5"/>
<text text-anchor="middle" x="309.5" y="-343.5" font-family="Helvetica,sans-Serif" font-size="10.00">mp4atom.h</text>
</a>
</g>
</g>
<!-- Node18&#45;&gt;Node19 -->
<g id="edge33" class="edge">
<title>Node18&#45;&gt;Node19</title>
<path fill="none" stroke="midnightblue" d="M596.33,-394.12C541.13,-385.46 443.76,-370.04 360.5,-356 359.06,-355.76 357.6,-355.51 356.12,-355.26"/>
<polygon fill="midnightblue" stroke="midnightblue" points="356.71,-351.81 346.26,-353.56 355.52,-358.71 356.71,-351.81"/>
</g>
<!-- Node19&#45;&gt;Node13 -->
<g id="edge59" class="edge">
<title>Node19&#45;&gt;Node13</title>
<path fill="none" stroke="midnightblue" d="M305.9,-336.22C302.44,-327.28 297.47,-312.94 295.5,-300 290.06,-264.19 277.06,-237.83 300.5,-168 303.96,-157.7 310.53,-147.6 316.74,-139.6"/>
<polygon fill="midnightblue" stroke="midnightblue" points="319.49,-141.75 323.16,-131.81 314.1,-137.3 319.49,-141.75"/>
</g>
<!-- Node20 -->
<g id="node20" class="node">
<title>Node20</title>
<g id="a_node20"><a xlink:title=" ">
<polygon fill="white" stroke="#bfbfbf" points="304.5,-280.5 304.5,-299.5 346.5,-299.5 346.5,-280.5 304.5,-280.5"/>
<text text-anchor="middle" x="325.5" y="-287.5" font-family="Helvetica,sans-Serif" font-size="10.00">array</text>
</a>
</g>
</g>
<!-- Node19&#45;&gt;Node20 -->
<g id="edge34" class="edge">
<title>Node19&#45;&gt;Node20</title>
<path fill="none" stroke="midnightblue" d="M312.14,-336.08C314.29,-328.85 317.38,-318.41 320.05,-309.4"/>
<polygon fill="midnightblue" stroke="midnightblue" points="323.42,-310.33 322.91,-299.75 316.71,-308.34 323.42,-310.33"/>
</g>
<!-- Node21 -->
<g id="node21" class="node">
<title>Node21</title>
<g id="a_node21"><a xlink:href="tfile_8h.html" target="_top" xlink:title=" ">
<polygon fill="white" stroke="black" points="506.5,-280.5 506.5,-299.5 550.5,-299.5 550.5,-280.5 506.5,-280.5"/>
<text text-anchor="middle" x="528.5" y="-287.5" font-family="Helvetica,sans-Serif" font-size="10.00">tfile.h</text>
</a>
</g>
</g>
<!-- Node19&#45;&gt;Node21 -->
<g id="edge35" class="edge">
<title>Node19&#45;&gt;Node21</title>
<path fill="none" stroke="midnightblue" d="M344.2,-336.44C386.03,-326.13 455.75,-308.94 496.39,-298.92"/>
<polygon fill="midnightblue" stroke="midnightblue" points="497.43,-302.27 506.3,-296.47 495.75,-295.47 497.43,-302.27"/>
</g>
<!-- Node21&#45;&gt;Node6 -->
<g id="edge36" class="edge">
<title>Node21&#45;&gt;Node6</title>
<path fill="none" stroke="midnightblue" d="M545.7,-280.39C558.75,-272.79 575.73,-260.39 583.5,-244 599.39,-210.46 588.24,-165.86 579.71,-141.25"/>
<polygon fill="midnightblue" stroke="midnightblue" points="582.95,-139.91 576.2,-131.74 576.38,-142.33 582.95,-139.91"/>
</g>
<!-- Node21&#45;&gt;Node9 -->
<g id="edge42" class="edge">
<title>Node21&#45;&gt;Node9</title>
<path fill="none" stroke="midnightblue" d="M506.1,-282.81C436.46,-262.5 232.37,-194.49 300.5,-112 352.39,-49.16 401.17,-91.16 485.84,-76.06"/>
<polygon fill="midnightblue" stroke="midnightblue" points="486.68,-79.46 495.79,-74.05 485.29,-72.6 486.68,-79.46"/>
</g>
<!-- Node21&#45;&gt;Node12 -->
<g id="edge41" class="edge">
<title>Node21&#45;&gt;Node12</title>
<path fill="none" stroke="midnightblue" d="M550.74,-287.93C634.85,-283.32 931.23,-261.96 978.5,-188 984.98,-177.85 991.68,-144.52 976.5,-112 970.71,-99.6 959.74,-89.12 949.55,-81.41"/>
<polygon fill="midnightblue" stroke="midnightblue" points="951.5,-78.49 941.31,-75.59 947.46,-84.21 951.5,-78.49"/>
</g>
<!-- Node22 -->
<g id="node22" class="node">
<title>Node22</title>
<g id="a_node22"><a xlink:href="tiostream_8h.html" target="_top" xlink:title=" ">
<polygon fill="white" stroke="black" points="501,-168.5 501,-187.5 574,-187.5 574,-168.5 501,-168.5"/>
<text text-anchor="middle" x="537.5" y="-175.5" font-family="Helvetica,sans-Serif" font-size="10.00">tiostream.h</text>
</a>
</g>
</g>
<!-- Node21&#45;&gt;Node22 -->
<g id="edge37" class="edge">
<title>Node21&#45;&gt;Node22</title>
<path fill="none" stroke="midnightblue" d="M526.83,-280.12C524.72,-267.57 521.68,-243.93 524.5,-224 525.77,-215.04 528.39,-205.37 530.95,-197.3"/>
<polygon fill="midnightblue" stroke="midnightblue" points="534.27,-198.4 534.16,-187.8 527.64,-196.16 534.27,-198.4"/>
</g>
<!-- Node23 -->
<g id="node23" class="node">
<title>Node23</title>
<g id="a_node23"><a xlink:href="tag_8h.html" target="_top" xlink:title=" ">
<polygon fill="white" stroke="black" points="533,-224.5 533,-243.5 574,-243.5 574,-224.5 533,-224.5"/>
<text text-anchor="middle" x="553.5" y="-231.5" font-family="Helvetica,sans-Serif" font-size="10.00">tag.h</text>
</a>
</g>
</g>
<!-- Node21&#45;&gt;Node23 -->
<g id="edge43" class="edge">
<title>Node21&#45;&gt;Node23</title>
<path fill="none" stroke="midnightblue" d="M532.63,-280.08C536.01,-272.77 540.92,-262.18 545.12,-253.1"/>
<polygon fill="midnightblue" stroke="midnightblue" points="548.42,-254.3 549.45,-243.75 542.07,-251.36 548.42,-254.3"/>
</g>
<!-- Node22&#45;&gt;Node6 -->
<g id="edge38" class="edge">
<title>Node22&#45;&gt;Node6</title>
<path fill="none" stroke="midnightblue" d="M543.28,-168.08C548.17,-160.53 555.33,-149.49 561.33,-140.23"/>
<polygon fill="midnightblue" stroke="midnightblue" points="564.33,-142.05 566.83,-131.75 558.45,-138.24 564.33,-142.05"/>
</g>
<!-- Node22&#45;&gt;Node9 -->
<g id="edge40" class="edge">
<title>Node22&#45;&gt;Node9</title>
<path fill="none" stroke="midnightblue" d="M533.94,-168.22C530.52,-159.27 525.57,-144.93 523.5,-132 521.05,-116.66 520.94,-99.02 521.37,-85.99"/>
<polygon fill="midnightblue" stroke="midnightblue" points="524.87,-86.05 521.84,-75.9 517.88,-85.73 524.87,-86.05"/>
</g>
<!-- Node22&#45;&gt;Node12 -->
<g id="edge39" class="edge">
<title>Node22&#45;&gt;Node12</title>
<path fill="none" stroke="midnightblue" d="M567.7,-168.46C637.15,-148.82 808.21,-100.45 886.37,-78.35"/>
<polygon fill="midnightblue" stroke="midnightblue" points="887.65,-81.62 896.32,-75.53 885.74,-74.89 887.65,-81.62"/>
</g>
<!-- Node23&#45;&gt;Node4 -->
<g id="edge45" class="edge">
<title>Node23&#45;&gt;Node4</title>
<path fill="none" stroke="midnightblue" d="M574.06,-229.11C611.71,-221.92 694.45,-205.86 773.7,-188.34"/>
<polygon fill="midnightblue" stroke="midnightblue" points="774.84,-191.67 783.84,-186.09 773.32,-184.84 774.84,-191.67"/>
</g>
<!-- Node23&#45;&gt;Node12 -->
<g id="edge44" class="edge">
<title>Node23&#45;&gt;Node12</title>
<path fill="none" stroke="midnightblue" d="M574.39,-232.07C634.19,-229.07 804.7,-218.02 850.5,-188 888.25,-163.26 910.73,-112.57 920.58,-85.31"/>
<polygon fill="midnightblue" stroke="midnightblue" points="924,-86.1 923.93,-75.51 917.38,-83.83 924,-86.1"/>
</g>
<!-- Node23&#45;&gt;Node13 -->
<g id="edge46" class="edge">
<title>Node23&#45;&gt;Node13</title>
<path fill="none" stroke="midnightblue" d="M532.75,-232.34C497.58,-230.29 425.33,-221.92 376.5,-188 359.46,-176.17 346.86,-155.65 339.39,-140.83"/>
<polygon fill="midnightblue" stroke="midnightblue" points="342.49,-139.2 335.05,-131.66 336.16,-142.19 342.49,-139.2"/>
</g>
<!-- Node24 -->
<g id="node24" class="node">
<title>Node24</title>
<g id="a_node24"><a xlink:href="tvariant_8h.html" target="_top" xlink:title=" ">
<polygon fill="white" stroke="black" points="418.5,-168.5 418.5,-187.5 482.5,-187.5 482.5,-168.5 418.5,-168.5"/>
<text text-anchor="middle" x="450.5" y="-175.5" font-family="Helvetica,sans-Serif" font-size="10.00">tvariant.h</text>
</a>
</g>
</g>
<!-- Node23&#45;&gt;Node24 -->
<g id="edge47" class="edge">
<title>Node23&#45;&gt;Node24</title>
<path fill="none" stroke="midnightblue" d="M536.95,-224.32C520.51,-215.7 495.07,-202.36 476.03,-192.39"/>
<polygon fill="midnightblue" stroke="midnightblue" points="477.49,-189.2 467.01,-187.65 474.24,-195.4 477.49,-189.2"/>
</g>
<!-- Node24&#45;&gt;Node3 -->
<g id="edge49" class="edge">
<title>Node24&#45;&gt;Node3</title>
<path fill="none" stroke="midnightblue" d="M457.59,-168.3C469.6,-154.17 495.4,-126.37 523.5,-112 575.9,-85.19 643.91,-74.28 686.38,-69.89"/>
<polygon fill="midnightblue" stroke="midnightblue" points="686.72,-73.37 696.34,-68.93 686.05,-66.4 686.72,-73.37"/>
</g>
<!-- Node24&#45;&gt;Node12 -->
<g id="edge58" class="edge">
<title>Node24&#45;&gt;Node12</title>
<path fill="none" stroke="midnightblue" d="M482.56,-168.8C517.15,-159.92 573.8,-145.23 622.5,-132 654.14,-123.41 661.6,-119.56 693.5,-112 753.82,-97.71 823.72,-84.67 871.1,-76.35"/>
<polygon fill="midnightblue" stroke="midnightblue" points="871.91,-79.76 881.16,-74.6 870.71,-72.87 871.91,-79.76"/>
</g>
<!-- Node24&#45;&gt;Node13 -->
<g id="edge50" class="edge">
<title>Node24&#45;&gt;Node13</title>
<path fill="none" stroke="midnightblue" d="M431.64,-168.44C412.23,-159.64 381.77,-145.81 359.54,-135.72"/>
<polygon fill="midnightblue" stroke="midnightblue" points="360.82,-132.46 350.27,-131.52 357.93,-138.84 360.82,-132.46"/>
</g>
<!-- Node25 -->
<g id="node25" class="node">
<title>Node25</title>
<g id="a_node25"><a xlink:title=" ">
<polygon fill="white" stroke="#bfbfbf" points="372,-112.5 372,-131.5 437,-131.5 437,-112.5 372,-112.5"/>
<text text-anchor="middle" x="404.5" y="-119.5" font-family="Helvetica,sans-Serif" font-size="10.00">memory.h</text>
</a>
</g>
</g>
<!-- Node24&#45;&gt;Node25 -->
<g id="edge48" class="edge">
<title>Node24&#45;&gt;Node25</title>
<path fill="none" stroke="midnightblue" d="M442.9,-168.08C436.27,-160.3 426.48,-148.8 418.44,-139.37"/>
<polygon fill="midnightblue" stroke="midnightblue" points="421.1,-137.09 411.95,-131.75 415.77,-141.63 421.1,-137.09"/>
</g>
<!-- Node26 -->
<g id="node26" class="node">
<title>Node26</title>
<g id="a_node26"><a xlink:href="tmap_8h.html" target="_top" xlink:title=" ">
<polygon fill="white" stroke="black" points="159,-112.5 159,-131.5 210,-131.5 210,-112.5 159,-112.5"/>
<text text-anchor="middle" x="184.5" y="-119.5" font-family="Helvetica,sans-Serif" font-size="10.00">tmap.h</text>
</a>
</g>
</g>
<!-- Node24&#45;&gt;Node26 -->
<g id="edge51" class="edge">
<title>Node24&#45;&gt;Node26</title>
<path fill="none" stroke="midnightblue" d="M418.41,-170.49C368.41,-160.34 272.24,-140.81 220.14,-130.24"/>
<polygon fill="midnightblue" stroke="midnightblue" points="220.83,-126.8 210.34,-128.24 219.44,-133.66 220.83,-126.8"/>
</g>
<!-- Node26&#45;&gt;Node7 -->
<g id="edge53" class="edge">
<title>Node26&#45;&gt;Node7</title>
<path fill="none" stroke="midnightblue" d="M210.13,-113.83C242.98,-104.64 300.25,-88.61 338.52,-77.91"/>
<polygon fill="midnightblue" stroke="midnightblue" points="339.6,-81.24 348.29,-75.17 337.72,-74.5 339.6,-81.24"/>
</g>
<!-- Node26&#45;&gt;Node9 -->
<g id="edge56" class="edge">
<title>Node26&#45;&gt;Node9</title>
<path fill="none" stroke="midnightblue" d="M210.25,-114.87C214.98,-113.84 219.88,-112.83 224.5,-112 337.43,-91.61 369.97,-98.33 485.85,-76.14"/>
<polygon fill="midnightblue" stroke="midnightblue" points="486.67,-79.55 495.82,-74.2 485.34,-72.67 486.67,-79.55"/>
</g>
<!-- Node26&#45;&gt;Node15 -->
<g id="edge54" class="edge">
<title>Node26&#45;&gt;Node15</title>
<path fill="none" stroke="midnightblue" d="M193.42,-112.08C201.28,-104.22 212.93,-92.57 222.42,-83.08"/>
<polygon fill="midnightblue" stroke="midnightblue" points="225.15,-85.3 229.75,-75.75 220.2,-80.35 225.15,-85.3"/>
</g>
<!-- Node27 -->
<g id="node27" class="node">
<title>Node27</title>
<g id="a_node27"><a xlink:title=" ">
<polygon fill="white" stroke="#bfbfbf" points="140.5,-56.5 140.5,-75.5 178.5,-75.5 178.5,-56.5 140.5,-56.5"/>
<text text-anchor="middle" x="159.5" y="-63.5" font-family="Helvetica,sans-Serif" font-size="10.00">map</text>
</a>
</g>
</g>
<!-- Node26&#45;&gt;Node27 -->
<g id="edge52" class="edge">
<title>Node26&#45;&gt;Node27</title>
<path fill="none" stroke="midnightblue" d="M180.37,-112.08C176.99,-104.77 172.08,-94.18 167.88,-85.1"/>
<polygon fill="midnightblue" stroke="midnightblue" points="170.93,-83.36 163.55,-75.75 164.58,-86.3 170.93,-83.36"/>
</g>
<!-- Node28 -->
<g id="node28" class="node">
<title>Node28</title>
<g id="a_node28"><a xlink:title=" ">
<polygon fill="white" stroke="#bfbfbf" points="0,-56.5 0,-75.5 45,-75.5 45,-56.5 0,-56.5"/>
<text text-anchor="middle" x="22.5" y="-63.5" font-family="Helvetica,sans-Serif" font-size="10.00">utility</text>
</a>
</g>
</g>
<!-- Node26&#45;&gt;Node28 -->
<g id="edge55" class="edge">
<title>Node26&#45;&gt;Node28</title>
<path fill="none" stroke="midnightblue" d="M158.83,-112.44C130.7,-103.07 85.5,-88 54.93,-77.81"/>
<polygon fill="midnightblue" stroke="midnightblue" points="55.77,-74.4 45.17,-74.56 53.55,-81.04 55.77,-74.4"/>
</g>
<!-- Node29 -->
<g id="node29" class="node">
<title>Node29</title>
<g id="a_node29"><a xlink:title=" ">
<polygon fill="white" stroke="#bfbfbf" points="63,-56.5 63,-75.5 122,-75.5 122,-56.5 63,-56.5"/>
<text text-anchor="middle" x="92.5" y="-63.5" font-family="Helvetica,sans-Serif" font-size="10.00">tmap.tcc</text>
</a>
</g>
</g>
<!-- Node26&#45;&gt;Node29 -->
<g id="edge57" class="edge">
<title>Node26&#45;&gt;Node29</title>
<path fill="none" stroke="midnightblue" d="M169.72,-112.32C155.23,-103.82 132.93,-90.73 116.01,-80.8"/>
<polygon fill="midnightblue" stroke="midnightblue" points="117.64,-77.7 107.24,-75.65 114.1,-83.74 117.64,-77.7"/>
</g>
</g>
</svg>
