<?xml version="1.0" encoding="UTF-8" standalone="no"?>
<!DOCTYPE svg PUBLIC "-//W3C//DTD SVG 1.1//EN"
 "http://www.w3.org/Graphics/SVG/1.1/DTD/svg11.dtd">
<!-- Generated by graphviz version 2.42.4 (0)
 -->
<!-- Title: mp4item.h Pages: 1 -->
<svg width="1007pt" height="412pt"
 viewBox="0.00 0.00 1006.50 412.00" xmlns="http://www.w3.org/2000/svg" xmlns:xlink="http://www.w3.org/1999/xlink">
<g id="graph0" class="graph" transform="scale(1 1) rotate(0) translate(4 408)">
<title>mp4item.h</title>
<!-- Node1 -->
<g id="Node000001" class="node">
<title>Node1</title>
<g id="a_Node000001"><a xlink:title=" ">
<polygon fill="#999999" stroke="#666666" points="957.5,-404 887.5,-404 887.5,-385 957.5,-385 957.5,-404"/>
<text text-anchor="middle" x="922.5" y="-392" font-family="Helvetica,sans-Serif" font-size="10.00">mp4item.h</text>
</a>
</g>
</g>
<!-- Node2 -->
<g id="Node000002" class="node">
<title>Node2</title>
<g id="a_Node000002"><a xlink:href="tstringlist_8h.html" target="_top" xlink:title=" ">
<polygon fill="white" stroke="#666666" points="901.5,-184 829.5,-184 829.5,-165 901.5,-165 901.5,-184"/>
<text text-anchor="middle" x="865.5" y="-172" font-family="Helvetica,sans-Serif" font-size="10.00">tstringlist.h</text>
</a>
</g>
</g>
<!-- Node1&#45;&gt;Node2 -->
<g id="edge1_Node000001_Node000002" class="edge">
<title>Node1&#45;&gt;Node2</title>
<g id="a_edge1_Node000001_Node000002"><a xlink:title=" ">
<path fill="none" stroke="#63b8ff" d="M920.27,-384.95C911.88,-352.88 882.15,-239.2 870.37,-194.12"/>
<polygon fill="#63b8ff" stroke="#63b8ff" points="873.7,-193.01 867.78,-184.22 866.92,-194.78 873.7,-193.01"/>
</a>
</g>
</g>
<!-- Node9 -->
<g id="Node000009" class="node">
<title>Node9</title>
<g id="a_Node000009"><a xlink:href="taglib__export_8h.html" target="_top" xlink:title=" ">
<polygon fill="white" stroke="#666666" points="809.5,-19 719.5,-19 719.5,0 809.5,0 809.5,-19"/>
<text text-anchor="middle" x="764.5" y="-7" font-family="Helvetica,sans-Serif" font-size="10.00">taglib_export.h</text>
</a>
</g>
</g>
<!-- Node1&#45;&gt;Node9 -->
<g id="edge20_Node000001_Node000009" class="edge">
<title>Node1&#45;&gt;Node9</title>
<g id="a_edge20_Node000001_Node000009"><a xlink:title=" ">
<path fill="none" stroke="#63b8ff" d="M934.38,-384.88C955.75,-368.26 998.5,-329.52 998.5,-285.5 998.5,-285.5 998.5,-285.5 998.5,-118.5 998.5,-40.19 889.13,-18.48 819.94,-12.58"/>
<polygon fill="#63b8ff" stroke="#63b8ff" points="819.86,-9.06 809.62,-11.79 819.32,-16.04 819.86,-9.06"/>
</a>
</g>
</g>
<!-- Node15 -->
<g id="Node000015" class="node">
<title>Node15</title>
<g id="a_Node000015"><a xlink:href="mp4coverart_8h.html" target="_top" xlink:title=" ">
<polygon fill="white" stroke="#666666" points="572.5,-349 484.5,-349 484.5,-330 572.5,-330 572.5,-349"/>
<text text-anchor="middle" x="528.5" y="-337" font-family="Helvetica,sans-Serif" font-size="10.00">mp4coverart.h</text>
</a>
</g>
</g>
<!-- Node1&#45;&gt;Node15 -->
<g id="edge21_Node000001_Node000015" class="edge">
<title>Node1&#45;&gt;Node15</title>
<g id="a_edge21_Node000001_Node000015"><a xlink:title=" ">
<path fill="none" stroke="#63b8ff" d="M887.19,-388.75C818.18,-379.47 665,-358.86 582.92,-347.82"/>
<polygon fill="#63b8ff" stroke="#63b8ff" points="583.17,-344.32 572.79,-346.46 582.24,-351.26 583.17,-344.32"/>
</a>
</g>
</g>
<!-- Node3 -->
<g id="Node000003" class="node">
<title>Node3</title>
<g id="a_Node000003"><a xlink:href="tstring_8h.html" target="_top" xlink:title=" ">
<polygon fill="white" stroke="#666666" points="894,-129 837,-129 837,-110 894,-110 894,-129"/>
<text text-anchor="middle" x="865.5" y="-117" font-family="Helvetica,sans-Serif" font-size="10.00">tstring.h</text>
</a>
</g>
</g>
<!-- Node2&#45;&gt;Node3 -->
<g id="edge2_Node000002_Node000003" class="edge">
<title>Node2&#45;&gt;Node3</title>
<g id="a_edge2_Node000002_Node000003"><a xlink:title=" ">
<path fill="none" stroke="#63b8ff" d="M865.5,-164.75C865.5,-157.8 865.5,-147.85 865.5,-139.13"/>
<polygon fill="#63b8ff" stroke="#63b8ff" points="869,-139.09 865.5,-129.09 862,-139.09 869,-139.09"/>
</a>
</g>
</g>
<!-- Node2&#45;&gt;Node9 -->
<g id="edge19_Node000002_Node000009" class="edge">
<title>Node2&#45;&gt;Node9</title>
<g id="a_edge19_Node000002_Node000009"><a xlink:title=" ">
<path fill="none" stroke="#63b8ff" d="M876.21,-164.93C885.43,-156.8 898.09,-143.68 903.5,-129 915.33,-96.93 906.72,-79.12 882.5,-55 865.55,-38.12 841.57,-27.54 819.65,-20.96"/>
<polygon fill="#63b8ff" stroke="#63b8ff" points="820.33,-17.52 809.76,-18.21 818.46,-24.26 820.33,-17.52"/>
</a>
</g>
</g>
<!-- Node10 -->
<g id="Node000010" class="node">
<title>Node10</title>
<g id="a_Node000010"><a xlink:href="tlist_8h.html" target="_top" xlink:title=" ">
<polygon fill="white" stroke="#666666" points="264.5,-74 220.5,-74 220.5,-55 264.5,-55 264.5,-74"/>
<text text-anchor="middle" x="242.5" y="-62" font-family="Helvetica,sans-Serif" font-size="10.00">tlist.h</text>
</a>
</g>
</g>
<!-- Node2&#45;&gt;Node10 -->
<g id="edge10_Node000002_Node000010" class="edge">
<title>Node2&#45;&gt;Node10</title>
<g id="a_edge10_Node000002_Node000010"><a xlink:title=" ">
<path fill="none" stroke="#63b8ff" d="M829.32,-171.03C712.86,-162.99 353.91,-137.65 330.5,-129 315.59,-123.49 282.1,-97.65 261,-80.68"/>
<polygon fill="#63b8ff" stroke="#63b8ff" points="263.04,-77.83 253.07,-74.25 258.63,-83.26 263.04,-77.83"/>
</a>
</g>
</g>
<!-- Node14 -->
<g id="Node000014" class="node">
<title>Node14</title>
<g id="a_Node000014"><a xlink:href="tbytevectorlist_8h.html" target="_top" xlink:title=" ">
<polygon fill="white" stroke="#666666" points="780,-129 683,-129 683,-110 780,-110 780,-129"/>
<text text-anchor="middle" x="731.5" y="-117" font-family="Helvetica,sans-Serif" font-size="10.00">tbytevectorlist.h</text>
</a>
</g>
</g>
<!-- Node2&#45;&gt;Node14 -->
<g id="edge15_Node000002_Node000014" class="edge">
<title>Node2&#45;&gt;Node14</title>
<g id="a_edge15_Node000002_Node000014"><a xlink:title=" ">
<path fill="none" stroke="#63b8ff" d="M843.97,-164.98C822.03,-156.3 787.76,-142.75 762.81,-132.88"/>
<polygon fill="#63b8ff" stroke="#63b8ff" points="764.01,-129.59 753.42,-129.17 761.43,-136.1 764.01,-129.59"/>
</a>
</g>
</g>
<!-- Node4 -->
<g id="Node000004" class="node">
<title>Node4</title>
<g id="a_Node000004"><a xlink:title=" ">
<polygon fill="#e0e0e0" stroke="#999999" points="856.5,-74 812.5,-74 812.5,-55 856.5,-55 856.5,-74"/>
<text text-anchor="middle" x="834.5" y="-62" font-family="Helvetica,sans-Serif" font-size="10.00">string</text>
</a>
</g>
</g>
<!-- Node3&#45;&gt;Node4 -->
<g id="edge3_Node000003_Node000004" class="edge">
<title>Node3&#45;&gt;Node4</title>
<g id="a_edge3_Node000003_Node000004"><a xlink:title=" ">
<path fill="none" stroke="#63b8ff" d="M860.38,-109.75C856.14,-102.49 849.97,-91.95 844.72,-82.98"/>
<polygon fill="#63b8ff" stroke="#63b8ff" points="847.59,-80.95 839.52,-74.09 841.55,-84.49 847.59,-80.95"/>
</a>
</g>
</g>
<!-- Node5 -->
<g id="Node000005" class="node">
<title>Node5</title>
<g id="a_Node000005"><a xlink:href="tbytevector_8h.html" target="_top" xlink:title=" ">
<polygon fill="white" stroke="#666666" points="517,-74 436,-74 436,-55 517,-55 517,-74"/>
<text text-anchor="middle" x="476.5" y="-62" font-family="Helvetica,sans-Serif" font-size="10.00">tbytevector.h</text>
</a>
</g>
</g>
<!-- Node3&#45;&gt;Node5 -->
<g id="edge4_Node000003_Node000005" class="edge">
<title>Node3&#45;&gt;Node5</title>
<g id="a_edge4_Node000003_Node000005"><a xlink:title=" ">
<path fill="none" stroke="#63b8ff" d="M836.9,-114.6C771.38,-105.68 609.72,-83.65 527.01,-72.38"/>
<polygon fill="#63b8ff" stroke="#63b8ff" points="527.47,-68.91 517.09,-71.03 526.52,-75.85 527.47,-68.91"/>
</a>
</g>
</g>
<!-- Node3&#45;&gt;Node9 -->
<g id="edge9_Node000003_Node000009" class="edge">
<title>Node3&#45;&gt;Node9</title>
<g id="a_edge9_Node000003_Node000009"><a xlink:title=" ">
<path fill="none" stroke="#63b8ff" d="M868.25,-109.86C871.84,-96.81 876.46,-71.81 865.5,-55 854.99,-38.89 837.19,-28.57 819.43,-21.97"/>
<polygon fill="#63b8ff" stroke="#63b8ff" points="820.21,-18.54 809.62,-18.68 817.98,-25.18 820.21,-18.54"/>
</a>
</g>
</g>
<!-- Node6 -->
<g id="Node000006" class="node">
<title>Node6</title>
<g id="a_Node000006"><a xlink:title=" ">
<polygon fill="#e0e0e0" stroke="#999999" points="344.5,-19 286.5,-19 286.5,0 344.5,0 344.5,-19"/>
<text text-anchor="middle" x="315.5" y="-7" font-family="Helvetica,sans-Serif" font-size="10.00">memory</text>
</a>
</g>
</g>
<!-- Node5&#45;&gt;Node6 -->
<g id="edge5_Node000005_Node000006" class="edge">
<title>Node5&#45;&gt;Node6</title>
<g id="a_edge5_Node000005_Node000006"><a xlink:title=" ">
<path fill="none" stroke="#63b8ff" d="M450.63,-54.98C423.72,-46.13 381.38,-32.19 351.27,-22.28"/>
<polygon fill="#63b8ff" stroke="#63b8ff" points="352.16,-18.88 341.57,-19.08 349.97,-25.53 352.16,-18.88"/>
</a>
</g>
</g>
<!-- Node7 -->
<g id="Node000007" class="node">
<title>Node7</title>
<g id="a_Node000007"><a xlink:title=" ">
<polygon fill="#e0e0e0" stroke="#999999" points="610,-19 563,-19 563,0 610,0 610,-19"/>
<text text-anchor="middle" x="586.5" y="-7" font-family="Helvetica,sans-Serif" font-size="10.00">vector</text>
</a>
</g>
</g>
<!-- Node5&#45;&gt;Node7 -->
<g id="edge6_Node000005_Node000007" class="edge">
<title>Node5&#45;&gt;Node7</title>
<g id="a_edge6_Node000005_Node000007"><a xlink:title=" ">
<path fill="none" stroke="#63b8ff" d="M494.17,-54.98C511.79,-46.5 539.08,-33.35 559.43,-23.54"/>
<polygon fill="#63b8ff" stroke="#63b8ff" points="561.02,-26.66 568.51,-19.17 557.98,-20.36 561.02,-26.66"/>
</a>
</g>
</g>
<!-- Node8 -->
<g id="Node000008" class="node">
<title>Node8</title>
<g id="a_Node000008"><a xlink:title=" ">
<polygon fill="#e0e0e0" stroke="#999999" points="544.5,-19 496.5,-19 496.5,0 544.5,0 544.5,-19"/>
<text text-anchor="middle" x="520.5" y="-7" font-family="Helvetica,sans-Serif" font-size="10.00">iosfwd</text>
</a>
</g>
</g>
<!-- Node5&#45;&gt;Node8 -->
<g id="edge7_Node000005_Node000008" class="edge">
<title>Node5&#45;&gt;Node8</title>
<g id="a_edge7_Node000005_Node000008"><a xlink:title=" ">
<path fill="none" stroke="#63b8ff" d="M483.77,-54.75C490.04,-47.18 499.29,-36.05 506.93,-26.84"/>
<polygon fill="#63b8ff" stroke="#63b8ff" points="509.67,-29.02 513.37,-19.09 504.29,-24.55 509.67,-29.02"/>
</a>
</g>
</g>
<!-- Node5&#45;&gt;Node9 -->
<g id="edge8_Node000005_Node000009" class="edge">
<title>Node5&#45;&gt;Node9</title>
<g id="a_edge8_Node000005_Node000009"><a xlink:title=" ">
<path fill="none" stroke="#63b8ff" d="M517.15,-56.02C567.37,-46.78 653.01,-31.02 709.18,-20.68"/>
<polygon fill="#63b8ff" stroke="#63b8ff" points="710.11,-24.07 719.31,-18.82 708.84,-17.18 710.11,-24.07"/>
</a>
</g>
</g>
<!-- Node10&#45;&gt;Node6 -->
<g id="edge13_Node000010_Node000006" class="edge">
<title>Node10&#45;&gt;Node6</title>
<g id="a_edge13_Node000010_Node000006"><a xlink:title=" ">
<path fill="none" stroke="#63b8ff" d="M254.23,-54.98C265.23,-47 281.92,-34.88 295.1,-25.31"/>
<polygon fill="#63b8ff" stroke="#63b8ff" points="297.52,-27.88 303.56,-19.17 293.41,-22.21 297.52,-27.88"/>
</a>
</g>
</g>
<!-- Node11 -->
<g id="Node000011" class="node">
<title>Node11</title>
<g id="a_Node000011"><a xlink:title=" ">
<polygon fill="#e0e0e0" stroke="#999999" points="103.5,-19 71.5,-19 71.5,0 103.5,0 103.5,-19"/>
<text text-anchor="middle" x="87.5" y="-7" font-family="Helvetica,sans-Serif" font-size="10.00">list</text>
</a>
</g>
</g>
<!-- Node10&#45;&gt;Node11 -->
<g id="edge11_Node000010_Node000011" class="edge">
<title>Node10&#45;&gt;Node11</title>
<g id="a_edge11_Node000010_Node000011"><a xlink:title=" ">
<path fill="none" stroke="#63b8ff" d="M220.29,-55.91C191.99,-46.23 143.15,-29.53 113.25,-19.3"/>
<polygon fill="#63b8ff" stroke="#63b8ff" points="114.12,-15.9 103.52,-15.98 111.85,-22.53 114.12,-15.9"/>
</a>
</g>
</g>
<!-- Node12 -->
<g id="Node000012" class="node">
<title>Node12</title>
<g id="a_Node000012"><a xlink:title=" ">
<polygon fill="#e0e0e0" stroke="#999999" points="205,-19 122,-19 122,0 205,0 205,-19"/>
<text text-anchor="middle" x="163.5" y="-7" font-family="Helvetica,sans-Serif" font-size="10.00">initializer_list</text>
</a>
</g>
</g>
<!-- Node10&#45;&gt;Node12 -->
<g id="edge12_Node000010_Node000012" class="edge">
<title>Node10&#45;&gt;Node12</title>
<g id="a_edge12_Node000010_Node000012"><a xlink:title=" ">
<path fill="none" stroke="#63b8ff" d="M229.81,-54.98C217.67,-46.84 199.14,-34.41 184.75,-24.76"/>
<polygon fill="#63b8ff" stroke="#63b8ff" points="186.68,-21.84 176.42,-19.17 182.78,-27.65 186.68,-21.84"/>
</a>
</g>
</g>
<!-- Node13 -->
<g id="Node000013" class="node">
<title>Node13</title>
<g id="a_Node000013"><a xlink:title=" ">
<polygon fill="#e0e0e0" stroke="#999999" points="53,-19 0,-19 0,0 53,0 53,-19"/>
<text text-anchor="middle" x="26.5" y="-7" font-family="Helvetica,sans-Serif" font-size="10.00">tlist.tcc</text>
</a>
</g>
</g>
<!-- Node10&#45;&gt;Node13 -->
<g id="edge14_Node000010_Node000013" class="edge">
<title>Node10&#45;&gt;Node13</title>
<g id="a_edge14_Node000010_Node000013"><a xlink:title=" ">
<path fill="none" stroke="#63b8ff" d="M220.2,-58.03C183,-48.9 107.94,-30.48 62.96,-19.45"/>
<polygon fill="#63b8ff" stroke="#63b8ff" points="63.58,-15.99 53.03,-17.01 61.91,-22.79 63.58,-15.99"/>
</a>
</g>
</g>
<!-- Node14&#45;&gt;Node5 -->
<g id="edge16_Node000014_Node000005" class="edge">
<title>Node14&#45;&gt;Node5</title>
<g id="a_edge16_Node000014_Node000005"><a xlink:title=" ">
<path fill="none" stroke="#63b8ff" d="M690.53,-109.98C646.1,-100.75 575.14,-86 527.23,-76.04"/>
<polygon fill="#63b8ff" stroke="#63b8ff" points="527.87,-72.6 517.37,-73.99 526.45,-79.46 527.87,-72.6"/>
</a>
</g>
</g>
<!-- Node14&#45;&gt;Node9 -->
<g id="edge18_Node000014_Node000009" class="edge">
<title>Node14&#45;&gt;Node9</title>
<g id="a_edge18_Node000014_Node000009"><a xlink:title=" ">
<path fill="none" stroke="#63b8ff" d="M734.2,-109.66C739.57,-92.09 751.68,-52.45 758.86,-28.95"/>
<polygon fill="#63b8ff" stroke="#63b8ff" points="762.28,-29.74 761.85,-19.16 755.58,-27.7 762.28,-29.74"/>
</a>
</g>
</g>
<!-- Node14&#45;&gt;Node10 -->
<g id="edge17_Node000014_Node000010" class="edge">
<title>Node14&#45;&gt;Node10</title>
<g id="a_edge17_Node000014_Node000010"><a xlink:title=" ">
<path fill="none" stroke="#63b8ff" d="M682.71,-111.04C679.93,-110.67 677.18,-110.32 674.5,-110 499.92,-89.02 454.22,-101.25 280.5,-74 278.55,-73.69 276.54,-73.35 274.53,-72.97"/>
<polygon fill="#63b8ff" stroke="#63b8ff" points="275.01,-69.5 264.51,-70.93 273.61,-76.36 275.01,-69.5"/>
</a>
</g>
</g>
<!-- Node15&#45;&gt;Node5 -->
<g id="edge23_Node000015_Node000005" class="edge">
<title>Node15&#45;&gt;Node5</title>
<g id="a_edge23_Node000015_Node000005"><a xlink:title=" ">
<path fill="none" stroke="#63b8ff" d="M512.05,-329.97C484.37,-314.3 431.5,-278.13 431.5,-230.5 431.5,-230.5 431.5,-230.5 431.5,-173.5 431.5,-139.31 450.96,-103.38 464.28,-82.79"/>
<polygon fill="#63b8ff" stroke="#63b8ff" points="467.37,-84.48 470.05,-74.23 461.56,-80.57 467.37,-84.48"/>
</a>
</g>
</g>
<!-- Node15&#45;&gt;Node9 -->
<g id="edge24_Node000015_Node000009" class="edge">
<title>Node15&#45;&gt;Node9</title>
<g id="a_edge24_Node000015_Node000009"><a xlink:title=" ">
<path fill="none" stroke="#63b8ff" d="M572.7,-331.52C682.8,-312.9 960.5,-257.77 960.5,-175.5 960.5,-175.5 960.5,-175.5 960.5,-118.5 960.5,-53.99 878.06,-27.73 820.11,-17.24"/>
<polygon fill="#63b8ff" stroke="#63b8ff" points="820.4,-13.74 809.96,-15.52 819.23,-20.64 820.4,-13.74"/>
</a>
</g>
</g>
<!-- Node15&#45;&gt;Node10 -->
<g id="edge22_Node000015_Node000010" class="edge">
<title>Node15&#45;&gt;Node10</title>
<g id="a_edge22_Node000015_Node000010"><a xlink:title=" ">
<path fill="none" stroke="#63b8ff" d="M484.2,-333.47C394.01,-321.98 197.5,-290.12 197.5,-230.5 197.5,-230.5 197.5,-230.5 197.5,-173.5 197.5,-139.31 216.96,-103.38 230.28,-82.79"/>
<polygon fill="#63b8ff" stroke="#63b8ff" points="233.37,-84.48 236.05,-74.23 227.56,-80.57 233.37,-84.48"/>
</a>
</g>
</g>
<!-- Node16 -->
<g id="Node000016" class="node">
<title>Node16</title>
<g id="a_Node000016"><a xlink:href="mp4atom_8h.html" target="_top" xlink:title=" ">
<polygon fill="white" stroke="#666666" points="565,-294 492,-294 492,-275 565,-275 565,-294"/>
<text text-anchor="middle" x="528.5" y="-282" font-family="Helvetica,sans-Serif" font-size="10.00">mp4atom.h</text>
</a>
</g>
</g>
<!-- Node15&#45;&gt;Node16 -->
<g id="edge25_Node000015_Node000016" class="edge">
<title>Node15&#45;&gt;Node16</title>
<g id="a_edge25_Node000015_Node000016"><a xlink:title=" ">
<path fill="none" stroke="#63b8ff" d="M528.5,-329.75C528.5,-322.8 528.5,-312.85 528.5,-304.13"/>
<polygon fill="#63b8ff" stroke="#63b8ff" points="532,-304.09 528.5,-294.09 525,-304.09 532,-304.09"/>
</a>
</g>
</g>
<!-- Node16&#45;&gt;Node10 -->
<g id="edge49_Node000016_Node000010" class="edge">
<title>Node16&#45;&gt;Node10</title>
<g id="a_edge49_Node000016_Node000010"><a xlink:title=" ">
<path fill="none" stroke="#63b8ff" d="M504.55,-274.95C454.66,-256.03 338.57,-206.1 270.5,-129 259.05,-116.03 251.63,-97.63 247.33,-83.97"/>
<polygon fill="#63b8ff" stroke="#63b8ff" points="250.66,-82.87 244.53,-74.23 243.93,-84.81 250.66,-82.87"/>
</a>
</g>
</g>
<!-- Node17 -->
<g id="Node000017" class="node">
<title>Node17</title>
<g id="a_Node000017"><a xlink:href="tfile_8h.html" target="_top" xlink:title=" ">
<polygon fill="white" stroke="#666666" points="581.5,-239 537.5,-239 537.5,-220 581.5,-220 581.5,-239"/>
<text text-anchor="middle" x="559.5" y="-227" font-family="Helvetica,sans-Serif" font-size="10.00">tfile.h</text>
</a>
</g>
</g>
<!-- Node16&#45;&gt;Node17 -->
<g id="edge26_Node000016_Node000017" class="edge">
<title>Node16&#45;&gt;Node17</title>
<g id="a_edge26_Node000016_Node000017"><a xlink:title=" ">
<path fill="none" stroke="#63b8ff" d="M533.62,-274.75C537.86,-267.49 544.03,-256.95 549.28,-247.98"/>
<polygon fill="#63b8ff" stroke="#63b8ff" points="552.45,-249.49 554.48,-239.09 546.41,-245.95 552.45,-249.49"/>
</a>
</g>
</g>
<!-- Node17&#45;&gt;Node5 -->
<g id="edge27_Node000017_Node000005" class="edge">
<title>Node17&#45;&gt;Node5</title>
<g id="a_edge27_Node000017_Node000005"><a xlink:title=" ">
<path fill="none" stroke="#63b8ff" d="M544.06,-219.95C531.5,-212.19 514.31,-199.6 504.5,-184 484.88,-152.79 479,-109.12 477.24,-84.44"/>
<polygon fill="#63b8ff" stroke="#63b8ff" points="480.72,-84.06 476.68,-74.27 473.74,-84.45 480.72,-84.06"/>
</a>
</g>
</g>
<!-- Node17&#45;&gt;Node9 -->
<g id="edge33_Node000017_Node000009" class="edge">
<title>Node17&#45;&gt;Node9</title>
<g id="a_edge33_Node000017_Node000009"><a xlink:title=" ">
<path fill="none" stroke="#63b8ff" d="M560.5,-219.77C564.31,-188 578.88,-79.22 602.5,-55 630.12,-26.68 673.93,-15.88 709.04,-11.98"/>
<polygon fill="#63b8ff" stroke="#63b8ff" points="709.53,-15.45 719.16,-11.02 708.87,-8.48 709.53,-15.45"/>
</a>
</g>
</g>
<!-- Node18 -->
<g id="Node000018" class="node">
<title>Node18</title>
<g id="a_Node000018"><a xlink:href="tiostream_8h.html" target="_top" xlink:title=" ">
<polygon fill="white" stroke="#666666" points="723,-184 650,-184 650,-165 723,-165 723,-184"/>
<text text-anchor="middle" x="686.5" y="-172" font-family="Helvetica,sans-Serif" font-size="10.00">tiostream.h</text>
</a>
</g>
</g>
<!-- Node17&#45;&gt;Node18 -->
<g id="edge28_Node000017_Node000018" class="edge">
<title>Node17&#45;&gt;Node18</title>
<g id="a_edge28_Node000017_Node000018"><a xlink:title=" ">
<path fill="none" stroke="#63b8ff" d="M579.9,-219.98C600.52,-211.38 632.61,-197.99 656.19,-188.15"/>
<polygon fill="#63b8ff" stroke="#63b8ff" points="657.84,-191.25 665.72,-184.17 655.15,-184.79 657.84,-191.25"/>
</a>
</g>
</g>
<!-- Node19 -->
<g id="Node000019" class="node">
<title>Node19</title>
<g id="a_Node000019"><a xlink:href="taglib_8h.html" target="_top" xlink:title=" ">
<polygon fill="white" stroke="#666666" points="665,-129 612,-129 612,-110 665,-110 665,-129"/>
<text text-anchor="middle" x="638.5" y="-117" font-family="Helvetica,sans-Serif" font-size="10.00">taglib.h</text>
</a>
</g>
</g>
<!-- Node17&#45;&gt;Node19 -->
<g id="edge34_Node000017_Node000019" class="edge">
<title>Node17&#45;&gt;Node19</title>
<g id="a_edge34_Node000017_Node000019"><a xlink:title=" ">
<path fill="none" stroke="#63b8ff" d="M567.43,-219.92C575.38,-211.16 587.79,-197.04 597.5,-184 608.62,-169.07 620,-151.19 627.94,-138.21"/>
<polygon fill="#63b8ff" stroke="#63b8ff" points="631.11,-139.74 633.29,-129.37 625.12,-136.12 631.11,-139.74"/>
</a>
</g>
</g>
<!-- Node21 -->
<g id="Node000021" class="node">
<title>Node21</title>
<g id="a_Node000021"><a xlink:href="tag_8h.html" target="_top" xlink:title=" ">
<polygon fill="white" stroke="#666666" points="555,-184 514,-184 514,-165 555,-165 555,-184"/>
<text text-anchor="middle" x="534.5" y="-172" font-family="Helvetica,sans-Serif" font-size="10.00">tag.h</text>
</a>
</g>
</g>
<!-- Node17&#45;&gt;Node21 -->
<g id="edge35_Node000017_Node000021" class="edge">
<title>Node17&#45;&gt;Node21</title>
<g id="a_edge35_Node000017_Node000021"><a xlink:title=" ">
<path fill="none" stroke="#63b8ff" d="M555.37,-219.75C551.99,-212.57 547.08,-202.18 542.88,-193.27"/>
<polygon fill="#63b8ff" stroke="#63b8ff" points="545.98,-191.64 538.55,-184.09 539.65,-194.63 545.98,-191.64"/>
</a>
</g>
</g>
<!-- Node18&#45;&gt;Node5 -->
<g id="edge29_Node000018_Node000005" class="edge">
<title>Node18&#45;&gt;Node5</title>
<g id="a_edge29_Node000018_Node000005"><a xlink:title=" ">
<path fill="none" stroke="#63b8ff" d="M669.67,-164.84C633.02,-146 545.81,-101.14 502.22,-78.73"/>
<polygon fill="#63b8ff" stroke="#63b8ff" points="503.61,-75.51 493.12,-74.05 500.41,-81.73 503.61,-75.51"/>
</a>
</g>
</g>
<!-- Node18&#45;&gt;Node9 -->
<g id="edge30_Node000018_Node000009" class="edge">
<title>Node18&#45;&gt;Node9</title>
<g id="a_edge30_Node000018_Node000009"><a xlink:title=" ">
<path fill="none" stroke="#63b8ff" d="M723.08,-168.05C746.37,-162.48 774.84,-151.3 789.5,-129 810.2,-97.51 789.66,-52.04 775.49,-27.59"/>
<polygon fill="#63b8ff" stroke="#63b8ff" points="778.47,-25.77 770.29,-19.05 772.5,-29.41 778.47,-25.77"/>
</a>
</g>
</g>
<!-- Node18&#45;&gt;Node19 -->
<g id="edge31_Node000018_Node000019" class="edge">
<title>Node18&#45;&gt;Node19</title>
<g id="a_edge31_Node000018_Node000019"><a xlink:title=" ">
<path fill="none" stroke="#63b8ff" d="M678.57,-164.75C671.65,-157.11 661.43,-145.82 653.05,-136.56"/>
<polygon fill="#63b8ff" stroke="#63b8ff" points="655.59,-134.15 646.28,-129.09 650.4,-138.85 655.59,-134.15"/>
</a>
</g>
</g>
<!-- Node20 -->
<g id="Node000020" class="node">
<title>Node20</title>
<g id="a_Node000020"><a xlink:title=" ">
<polygon fill="#e0e0e0" stroke="#999999" points="683.5,-74 611.5,-74 611.5,-55 683.5,-55 683.5,-74"/>
<text text-anchor="middle" x="647.5" y="-62" font-family="Helvetica,sans-Serif" font-size="10.00">sys/types.h</text>
</a>
</g>
</g>
<!-- Node19&#45;&gt;Node20 -->
<g id="edge32_Node000019_Node000020" class="edge">
<title>Node19&#45;&gt;Node20</title>
<g id="a_edge32_Node000019_Node000020"><a xlink:title=" ">
<path fill="none" stroke="#63b8ff" d="M639.99,-109.75C641.17,-102.8 642.86,-92.85 644.34,-84.13"/>
<polygon fill="#63b8ff" stroke="#63b8ff" points="647.82,-84.53 646.04,-74.09 640.92,-83.36 647.82,-84.53"/>
</a>
</g>
</g>
<!-- Node21&#45;&gt;Node3 -->
<g id="edge37_Node000021_Node000003" class="edge">
<title>Node21&#45;&gt;Node3</title>
<g id="a_edge37_Node000021_Node000003"><a xlink:title=" ">
<path fill="none" stroke="#63b8ff" d="M555.21,-170.18C609.32,-161.52 755.67,-138.09 826.31,-126.78"/>
<polygon fill="#63b8ff" stroke="#63b8ff" points="827.24,-130.17 836.57,-125.13 826.14,-123.26 827.24,-130.17"/>
</a>
</g>
</g>
<!-- Node21&#45;&gt;Node9 -->
<g id="edge36_Node000021_Node000009" class="edge">
<title>Node21&#45;&gt;Node9</title>
<g id="a_edge36_Node000021_Node000009"><a xlink:title=" ">
<path fill="none" stroke="#63b8ff" d="M534.3,-164.85C534.28,-142.98 537.44,-85.1 569.5,-55 589.45,-36.26 658.77,-23.73 709.1,-16.86"/>
<polygon fill="#63b8ff" stroke="#63b8ff" points="709.75,-20.31 719.2,-15.52 708.83,-13.37 709.75,-20.31"/>
</a>
</g>
</g>
<!-- Node21&#45;&gt;Node10 -->
<g id="edge38_Node000021_Node000010" class="edge">
<title>Node21&#45;&gt;Node10</title>
<g id="a_edge38_Node000021_Node000010"><a xlink:title=" ">
<path fill="none" stroke="#63b8ff" d="M513.93,-174.04C470.81,-174.28 369.02,-170.07 297.5,-129 278.2,-117.92 262.37,-97.49 252.73,-82.79"/>
<polygon fill="#63b8ff" stroke="#63b8ff" points="255.58,-80.74 247.31,-74.12 249.64,-84.45 255.58,-80.74"/>
</a>
</g>
</g>
<!-- Node22 -->
<g id="Node000022" class="node">
<title>Node22</title>
<g id="a_Node000022"><a xlink:href="tvariant_8h.html" target="_top" xlink:title=" ">
<polygon fill="white" stroke="#666666" points="403.5,-129 339.5,-129 339.5,-110 403.5,-110 403.5,-129"/>
<text text-anchor="middle" x="371.5" y="-117" font-family="Helvetica,sans-Serif" font-size="10.00">tvariant.h</text>
</a>
</g>
</g>
<!-- Node21&#45;&gt;Node22 -->
<g id="edge39_Node000021_Node000022" class="edge">
<title>Node21&#45;&gt;Node22</title>
<g id="a_edge39_Node000021_Node000022"><a xlink:title=" ">
<path fill="none" stroke="#63b8ff" d="M513.86,-166.79C487.15,-158.1 440.19,-142.83 407.54,-132.22"/>
<polygon fill="#63b8ff" stroke="#63b8ff" points="408.5,-128.85 397.9,-129.09 406.33,-135.51 408.5,-128.85"/>
</a>
</g>
</g>
<!-- Node22&#45;&gt;Node8 -->
<g id="edge40_Node000022_Node000008" class="edge">
<title>Node22&#45;&gt;Node8</title>
<g id="a_edge40_Node000022_Node000008"><a xlink:title=" ">
<path fill="none" stroke="#63b8ff" d="M372.15,-109.87C373.61,-96.36 378.35,-70.21 393.5,-55 400.31,-48.17 451.21,-31.62 486.47,-20.75"/>
<polygon fill="#63b8ff" stroke="#63b8ff" points="487.86,-23.98 496.39,-17.7 485.81,-17.29 487.86,-23.98"/>
</a>
</g>
</g>
<!-- Node22&#45;&gt;Node9 -->
<g id="edge48_Node000022_Node000009" class="edge">
<title>Node22&#45;&gt;Node9</title>
<g id="a_edge48_Node000022_Node000009"><a xlink:title=" ">
<path fill="none" stroke="#63b8ff" d="M376.23,-109.74C384.4,-95.55 402.62,-67.86 426.5,-55 474.15,-29.34 626.2,-17.63 709.18,-13.04"/>
<polygon fill="#63b8ff" stroke="#63b8ff" points="709.39,-16.53 719.19,-12.5 709.02,-9.54 709.39,-16.53"/>
</a>
</g>
</g>
<!-- Node22&#45;&gt;Node10 -->
<g id="edge41_Node000022_Node000010" class="edge">
<title>Node22&#45;&gt;Node10</title>
<g id="a_edge41_Node000022_Node000010"><a xlink:title=" ">
<path fill="none" stroke="#63b8ff" d="M350.77,-109.98C329.74,-101.34 296.95,-87.87 272.96,-78.02"/>
<polygon fill="#63b8ff" stroke="#63b8ff" points="274.18,-74.73 263.6,-74.17 271.52,-81.21 274.18,-74.73"/>
</a>
</g>
</g>
<!-- Node23 -->
<g id="Node000023" class="node">
<title>Node23</title>
<g id="a_Node000023"><a xlink:href="tmap_8h.html" target="_top" xlink:title=" ">
<polygon fill="white" stroke="#666666" points="341,-74 290,-74 290,-55 341,-55 341,-74"/>
<text text-anchor="middle" x="315.5" y="-62" font-family="Helvetica,sans-Serif" font-size="10.00">tmap.h</text>
</a>
</g>
</g>
<!-- Node22&#45;&gt;Node23 -->
<g id="edge42_Node000022_Node000023" class="edge">
<title>Node22&#45;&gt;Node23</title>
<g id="a_edge42_Node000022_Node000023"><a xlink:title=" ">
<path fill="none" stroke="#63b8ff" d="M362.5,-109.98C354.31,-102.23 341.99,-90.58 332.03,-81.14"/>
<polygon fill="#63b8ff" stroke="#63b8ff" points="334.33,-78.5 324.66,-74.17 329.52,-83.59 334.33,-78.5"/>
</a>
</g>
</g>
<!-- Node23&#45;&gt;Node6 -->
<g id="edge44_Node000023_Node000006" class="edge">
<title>Node23&#45;&gt;Node6</title>
<g id="a_edge44_Node000023_Node000006"><a xlink:title=" ">
<path fill="none" stroke="#63b8ff" d="M315.5,-54.75C315.5,-47.8 315.5,-37.85 315.5,-29.13"/>
<polygon fill="#63b8ff" stroke="#63b8ff" points="319,-29.09 315.5,-19.09 312,-29.09 319,-29.09"/>
</a>
</g>
</g>
<!-- Node23&#45;&gt;Node12 -->
<g id="edge45_Node000023_Node000012" class="edge">
<title>Node23&#45;&gt;Node12</title>
<g id="a_edge45_Node000023_Node000012"><a xlink:title=" ">
<path fill="none" stroke="#63b8ff" d="M291.08,-54.98C265.78,-46.16 226.05,-32.31 197.64,-22.41"/>
<polygon fill="#63b8ff" stroke="#63b8ff" points="198.71,-19.07 188.11,-19.08 196.4,-25.68 198.71,-19.07"/>
</a>
</g>
</g>
<!-- Node24 -->
<g id="Node000024" class="node">
<title>Node24</title>
<g id="a_Node000024"><a xlink:title=" ">
<polygon fill="#e0e0e0" stroke="#999999" points="400.5,-19 362.5,-19 362.5,0 400.5,0 400.5,-19"/>
<text text-anchor="middle" x="381.5" y="-7" font-family="Helvetica,sans-Serif" font-size="10.00">map</text>
</a>
</g>
</g>
<!-- Node23&#45;&gt;Node24 -->
<g id="edge43_Node000023_Node000024" class="edge">
<title>Node23&#45;&gt;Node24</title>
<g id="a_edge43_Node000023_Node000024"><a xlink:title=" ">
<path fill="none" stroke="#63b8ff" d="M326.1,-54.98C335.96,-47.07 350.85,-35.11 362.72,-25.58"/>
<polygon fill="#63b8ff" stroke="#63b8ff" points="365.1,-28.16 370.7,-19.17 360.71,-22.7 365.1,-28.16"/>
</a>
</g>
</g>
<!-- Node25 -->
<g id="Node000025" class="node">
<title>Node25</title>
<g id="a_Node000025"><a xlink:title=" ">
<polygon fill="#e0e0e0" stroke="#999999" points="268,-19 223,-19 223,0 268,0 268,-19"/>
<text text-anchor="middle" x="245.5" y="-7" font-family="Helvetica,sans-Serif" font-size="10.00">utility</text>
</a>
</g>
</g>
<!-- Node23&#45;&gt;Node25 -->
<g id="edge46_Node000023_Node000025" class="edge">
<title>Node23&#45;&gt;Node25</title>
<g id="a_edge46_Node000023_Node000025"><a xlink:title=" ">
<path fill="none" stroke="#63b8ff" d="M304.25,-54.98C293.7,-47 277.7,-34.88 265.06,-25.31"/>
<polygon fill="#63b8ff" stroke="#63b8ff" points="267.04,-22.42 256.95,-19.17 262.81,-28 267.04,-22.42"/>
</a>
</g>
</g>
<!-- Node26 -->
<g id="Node000026" class="node">
<title>Node26</title>
<g id="a_Node000026"><a xlink:title=" ">
<polygon fill="#e0e0e0" stroke="#999999" points="478,-19 419,-19 419,0 478,0 478,-19"/>
<text text-anchor="middle" x="448.5" y="-7" font-family="Helvetica,sans-Serif" font-size="10.00">tmap.tcc</text>
</a>
</g>
</g>
<!-- Node23&#45;&gt;Node26 -->
<g id="edge47_Node000023_Node000026" class="edge">
<title>Node23&#45;&gt;Node26</title>
<g id="a_edge47_Node000023_Node000026"><a xlink:title=" ">
<path fill="none" stroke="#63b8ff" d="M336.87,-54.98C358.65,-46.3 392.66,-32.75 417.42,-22.88"/>
<polygon fill="#63b8ff" stroke="#63b8ff" points="418.75,-26.12 426.74,-19.17 416.16,-19.62 418.75,-26.12"/>
</a>
</g>
</g>
</g>
</svg>
