<?xml version="1.0" encoding="UTF-8" standalone="no"?>
<!DOCTYPE svg PUBLIC "-//W3C//DTD SVG 1.1//EN"
 "http://www.w3.org/Graphics/SVG/1.1/DTD/svg11.dtd">
<!-- Generated by graphviz version 2.42.4 (0)
 -->
<!-- Title: mp4item.h Pages: 1 -->
<svg width="1040pt" height="412pt"
 viewBox="0.00 0.00 1040.00 412.00" xmlns="http://www.w3.org/2000/svg" xmlns:xlink="http://www.w3.org/1999/xlink">
<g id="graph0" class="graph" transform="scale(1 1) rotate(0) translate(4 408)">
<title>mp4item.h</title>
<!-- Node1 -->
<g id="Node000001" class="node">
<title>Node1</title>
<g id="a_Node000001"><a xlink:title=" ">
<polygon fill="#999999" stroke="#666666" points="929,-404 859,-404 859,-385 929,-385 929,-404"/>
<text text-anchor="middle" x="894" y="-392" font-family="Helvetica,sans-Serif" font-size="10.00">mp4item.h</text>
</a>
</g>
</g>
<!-- Node2 -->
<g id="Node000002" class="node">
<title>Node2</title>
<g id="a_Node000002"><a xlink:href="tstringlist_8h.html" target="_top" xlink:title=" ">
<polygon fill="white" stroke="#666666" points="477,-184 405,-184 405,-165 477,-165 477,-184"/>
<text text-anchor="middle" x="441" y="-172" font-family="Helvetica,sans-Serif" font-size="10.00">tstringlist.h</text>
</a>
</g>
</g>
<!-- Node1&#45;&gt;Node2 -->
<g id="edge1_Node000001_Node000002" class="edge">
<title>Node1&#45;&gt;Node2</title>
<g id="a_edge1_Node000001_Node000002"><a xlink:title=" ">
<path fill="none" stroke="#63b8ff" d="M866.5,-385C817.96,-369.56 714.44,-334.75 632,-294 566.81,-261.77 495.32,-213.67 461.25,-189.89"/>
<polygon fill="#63b8ff" stroke="#63b8ff" points="463.23,-187 453.04,-184.12 459.21,-192.73 463.23,-187"/>
</a>
</g>
</g>
<!-- Node9 -->
<g id="Node000009" class="node">
<title>Node9</title>
<g id="a_Node000009"><a xlink:href="taglib__export_8h.html" target="_top" xlink:title=" ">
<polygon fill="white" stroke="#666666" points="672,-19 582,-19 582,0 672,0 672,-19"/>
<text text-anchor="middle" x="627" y="-7" font-family="Helvetica,sans-Serif" font-size="10.00">taglib_export.h</text>
</a>
</g>
</g>
<!-- Node1&#45;&gt;Node9 -->
<g id="edge20_Node000001_Node000009" class="edge">
<title>Node1&#45;&gt;Node9</title>
<g id="a_edge20_Node000001_Node000009"><a xlink:title=" ">
<path fill="none" stroke="#63b8ff" d="M899.28,-384.9C909.73,-367.07 932,-324.46 932,-285.5 932,-285.5 932,-285.5 932,-118.5 932,-85.15 919.76,-73.49 892,-55 858.44,-32.65 749.36,-20.19 682.06,-14.46"/>
<polygon fill="#63b8ff" stroke="#63b8ff" points="682.3,-10.97 672.04,-13.63 681.72,-17.94 682.3,-10.97"/>
</a>
</g>
</g>
<!-- Node15 -->
<g id="Node000015" class="node">
<title>Node15</title>
<g id="a_Node000015"><a xlink:href="mp4coverart_8h.html" target="_top" xlink:title=" ">
<polygon fill="white" stroke="#666666" points="900,-349 812,-349 812,-330 900,-330 900,-349"/>
<text text-anchor="middle" x="856" y="-337" font-family="Helvetica,sans-Serif" font-size="10.00">mp4coverart.h</text>
</a>
</g>
</g>
<!-- Node1&#45;&gt;Node15 -->
<g id="edge21_Node000001_Node000015" class="edge">
<title>Node1&#45;&gt;Node15</title>
<g id="a_edge21_Node000001_Node000015"><a xlink:title=" ">
<path fill="none" stroke="#63b8ff" d="M887.73,-384.75C882.41,-377.34 874.64,-366.5 868.12,-357.41"/>
<polygon fill="#63b8ff" stroke="#63b8ff" points="870.83,-355.18 862.16,-349.09 865.14,-359.26 870.83,-355.18"/>
</a>
</g>
</g>
<!-- Node28 -->
<g id="Node000028" class="node">
<title>Node28</title>
<g id="a_Node000028"><a xlink:href="mp4stem_8h.html" target="_top" xlink:title=" ">
<polygon fill="white" stroke="#666666" points="1032,-129 960,-129 960,-110 1032,-110 1032,-129"/>
<text text-anchor="middle" x="996" y="-117" font-family="Helvetica,sans-Serif" font-size="10.00">mp4stem.h</text>
</a>
</g>
</g>
<!-- Node1&#45;&gt;Node28 -->
<g id="edge50_Node000001_Node000028" class="edge">
<title>Node1&#45;&gt;Node28</title>
<g id="a_edge50_Node000001_Node000028"><a xlink:title=" ">
<path fill="none" stroke="#63b8ff" d="M908.7,-384.87C933.98,-368.79 983,-331.66 983,-285.5 983,-285.5 983,-285.5 983,-228.5 983,-196.96 988.53,-160.62 992.38,-139.15"/>
<polygon fill="#63b8ff" stroke="#63b8ff" points="995.85,-139.61 994.25,-129.14 988.97,-138.33 995.85,-139.61"/>
</a>
</g>
</g>
<!-- Node3 -->
<g id="Node000003" class="node">
<title>Node3</title>
<g id="a_Node000003"><a xlink:href="tstring_8h.html" target="_top" xlink:title=" ">
<polygon fill="white" stroke="#666666" points="603.5,-129 546.5,-129 546.5,-110 603.5,-110 603.5,-129"/>
<text text-anchor="middle" x="575" y="-117" font-family="Helvetica,sans-Serif" font-size="10.00">tstring.h</text>
</a>
</g>
</g>
<!-- Node2&#45;&gt;Node3 -->
<g id="edge2_Node000002_Node000003" class="edge">
<title>Node2&#45;&gt;Node3</title>
<g id="a_edge2_Node000002_Node000003"><a xlink:title=" ">
<path fill="none" stroke="#63b8ff" d="M462.53,-164.98C484.47,-156.3 518.74,-142.75 543.69,-132.88"/>
<polygon fill="#63b8ff" stroke="#63b8ff" points="545.07,-136.1 553.08,-129.17 542.49,-129.59 545.07,-136.1"/>
</a>
</g>
</g>
<!-- Node2&#45;&gt;Node9 -->
<g id="edge19_Node000002_Node000009" class="edge">
<title>Node2&#45;&gt;Node9</title>
<g id="a_edge19_Node000002_Node000009"><a xlink:title=" ">
<path fill="none" stroke="#63b8ff" d="M404.99,-173.18C371.94,-170.73 324.64,-161.32 301,-129 289.28,-112.98 291.37,-73.86 311,-55 329.47,-37.25 486.24,-21.92 571.8,-14.78"/>
<polygon fill="#63b8ff" stroke="#63b8ff" points="572.19,-18.26 581.87,-13.95 571.61,-11.28 572.19,-18.26"/>
</a>
</g>
</g>
<!-- Node10 -->
<g id="Node000010" class="node">
<title>Node10</title>
<g id="a_Node000010"><a xlink:href="tlist_8h.html" target="_top" xlink:title=" ">
<polygon fill="white" stroke="#666666" points="191,-74 147,-74 147,-55 191,-55 191,-74"/>
<text text-anchor="middle" x="169" y="-62" font-family="Helvetica,sans-Serif" font-size="10.00">tlist.h</text>
</a>
</g>
</g>
<!-- Node2&#45;&gt;Node10 -->
<g id="edge10_Node000002_Node000010" class="edge">
<title>Node2&#45;&gt;Node10</title>
<g id="a_edge10_Node000002_Node000010"><a xlink:title=" ">
<path fill="none" stroke="#63b8ff" d="M404.79,-172.29C360.88,-169.43 285.81,-159.98 230,-129 209.41,-117.57 191.52,-96.91 180.52,-82.26"/>
<polygon fill="#63b8ff" stroke="#63b8ff" points="183.3,-80.12 174.61,-74.05 177.62,-84.21 183.3,-80.12"/>
</a>
</g>
</g>
<!-- Node14 -->
<g id="Node000014" class="node">
<title>Node14</title>
<g id="a_Node000014"><a xlink:href="tbytevectorlist_8h.html" target="_top" xlink:title=" ">
<polygon fill="white" stroke="#666666" points="489.5,-129 392.5,-129 392.5,-110 489.5,-110 489.5,-129"/>
<text text-anchor="middle" x="441" y="-117" font-family="Helvetica,sans-Serif" font-size="10.00">tbytevectorlist.h</text>
</a>
</g>
</g>
<!-- Node2&#45;&gt;Node14 -->
<g id="edge15_Node000002_Node000014" class="edge">
<title>Node2&#45;&gt;Node14</title>
<g id="a_edge15_Node000002_Node000014"><a xlink:title=" ">
<path fill="none" stroke="#63b8ff" d="M441,-164.75C441,-157.8 441,-147.85 441,-139.13"/>
<polygon fill="#63b8ff" stroke="#63b8ff" points="444.5,-139.09 441,-129.09 437.5,-139.09 444.5,-139.09"/>
</a>
</g>
</g>
<!-- Node4 -->
<g id="Node000004" class="node">
<title>Node4</title>
<g id="a_Node000004"><a xlink:title=" ">
<polygon fill="#e0e0e0" stroke="#999999" points="561,-74 517,-74 517,-55 561,-55 561,-74"/>
<text text-anchor="middle" x="539" y="-62" font-family="Helvetica,sans-Serif" font-size="10.00">string</text>
</a>
</g>
</g>
<!-- Node3&#45;&gt;Node4 -->
<g id="edge3_Node000003_Node000004" class="edge">
<title>Node3&#45;&gt;Node4</title>
<g id="a_edge3_Node000003_Node000004"><a xlink:title=" ">
<path fill="none" stroke="#63b8ff" d="M569.06,-109.75C564.02,-102.34 556.66,-91.5 550.49,-82.41"/>
<polygon fill="#63b8ff" stroke="#63b8ff" points="553.35,-80.39 544.83,-74.09 547.56,-84.33 553.35,-80.39"/>
</a>
</g>
</g>
<!-- Node5 -->
<g id="Node000005" class="node">
<title>Node5</title>
<g id="a_Node000005"><a xlink:href="tbytevector_8h.html" target="_top" xlink:title=" ">
<polygon fill="white" stroke="#666666" points="864.5,-74 783.5,-74 783.5,-55 864.5,-55 864.5,-74"/>
<text text-anchor="middle" x="824" y="-62" font-family="Helvetica,sans-Serif" font-size="10.00">tbytevector.h</text>
</a>
</g>
</g>
<!-- Node3&#45;&gt;Node5 -->
<g id="edge4_Node000003_Node000005" class="edge">
<title>Node3&#45;&gt;Node5</title>
<g id="a_edge4_Node000003_Node000005"><a xlink:title=" ">
<path fill="none" stroke="#63b8ff" d="M603.56,-112.42C645.12,-103.57 722.86,-87.03 774.03,-76.14"/>
<polygon fill="#63b8ff" stroke="#63b8ff" points="774.83,-79.54 783.89,-74.04 773.38,-72.7 774.83,-79.54"/>
</a>
</g>
</g>
<!-- Node3&#45;&gt;Node9 -->
<g id="edge9_Node000003_Node000009" class="edge">
<title>Node3&#45;&gt;Node9</title>
<g id="a_edge9_Node000003_Node000009"><a xlink:title=" ">
<path fill="none" stroke="#63b8ff" d="M579.26,-109.66C587.79,-91.93 607.15,-51.73 618.42,-28.32"/>
<polygon fill="#63b8ff" stroke="#63b8ff" points="621.65,-29.69 622.83,-19.16 615.34,-26.65 621.65,-29.69"/>
</a>
</g>
</g>
<!-- Node6 -->
<g id="Node000006" class="node">
<title>Node6</title>
<g id="a_Node000006"><a xlink:title=" ">
<polygon fill="#e0e0e0" stroke="#999999" points="401,-19 343,-19 343,0 401,0 401,-19"/>
<text text-anchor="middle" x="372" y="-7" font-family="Helvetica,sans-Serif" font-size="10.00">memory</text>
</a>
</g>
</g>
<!-- Node5&#45;&gt;Node6 -->
<g id="edge5_Node000005_Node000006" class="edge">
<title>Node5&#45;&gt;Node6</title>
<g id="a_edge5_Node000005_Node000006"><a xlink:title=" ">
<path fill="none" stroke="#63b8ff" d="M783.23,-59.36C691.92,-50.05 474.7,-27.7 411.3,-18.75"/>
<polygon fill="#63b8ff" stroke="#63b8ff" points="411.73,-15.28 401.32,-17.24 410.69,-22.2 411.73,-15.28"/>
</a>
</g>
</g>
<!-- Node7 -->
<g id="Node000007" class="node">
<title>Node7</title>
<g id="a_Node000007"><a xlink:title=" ">
<polygon fill="#e0e0e0" stroke="#999999" points="814.5,-19 767.5,-19 767.5,0 814.5,0 814.5,-19"/>
<text text-anchor="middle" x="791" y="-7" font-family="Helvetica,sans-Serif" font-size="10.00">vector</text>
</a>
</g>
</g>
<!-- Node5&#45;&gt;Node7 -->
<g id="edge6_Node000005_Node000007" class="edge">
<title>Node5&#45;&gt;Node7</title>
<g id="a_edge6_Node000005_Node000007"><a xlink:title=" ">
<path fill="none" stroke="#63b8ff" d="M818.55,-54.75C813.99,-47.42 807.33,-36.73 801.71,-27.7"/>
<polygon fill="#63b8ff" stroke="#63b8ff" points="804.6,-25.73 796.35,-19.09 798.66,-29.43 804.6,-25.73"/>
</a>
</g>
</g>
<!-- Node8 -->
<g id="Node000008" class="node">
<title>Node8</title>
<g id="a_Node000008"><a xlink:title=" ">
<polygon fill="#e0e0e0" stroke="#999999" points="881,-19 833,-19 833,0 881,0 881,-19"/>
<text text-anchor="middle" x="857" y="-7" font-family="Helvetica,sans-Serif" font-size="10.00">iosfwd</text>
</a>
</g>
</g>
<!-- Node5&#45;&gt;Node8 -->
<g id="edge7_Node000005_Node000008" class="edge">
<title>Node5&#45;&gt;Node8</title>
<g id="a_edge7_Node000005_Node000008"><a xlink:title=" ">
<path fill="none" stroke="#63b8ff" d="M829.45,-54.75C834.01,-47.42 840.67,-36.73 846.29,-27.7"/>
<polygon fill="#63b8ff" stroke="#63b8ff" points="849.34,-29.43 851.65,-19.09 843.4,-25.73 849.34,-29.43"/>
</a>
</g>
</g>
<!-- Node5&#45;&gt;Node9 -->
<g id="edge8_Node000005_Node000009" class="edge">
<title>Node5&#45;&gt;Node9</title>
<g id="a_edge8_Node000005_Node000009"><a xlink:title=" ">
<path fill="none" stroke="#63b8ff" d="M792.35,-54.98C758.84,-45.97 705.8,-31.7 668.86,-21.76"/>
<polygon fill="#63b8ff" stroke="#63b8ff" points="669.47,-18.3 658.9,-19.08 667.65,-25.06 669.47,-18.3"/>
</a>
</g>
</g>
<!-- Node10&#45;&gt;Node6 -->
<g id="edge13_Node000010_Node000006" class="edge">
<title>Node10&#45;&gt;Node6</title>
<g id="a_edge13_Node000010_Node000006"><a xlink:title=" ">
<path fill="none" stroke="#63b8ff" d="M191.11,-57.73C225.1,-48.85 290.65,-31.74 332.81,-20.73"/>
<polygon fill="#63b8ff" stroke="#63b8ff" points="333.94,-24.05 342.73,-18.14 332.17,-17.28 333.94,-24.05"/>
</a>
</g>
</g>
<!-- Node11 -->
<g id="Node000011" class="node">
<title>Node11</title>
<g id="a_Node000011"><a xlink:title=" ">
<polygon fill="#e0e0e0" stroke="#999999" points="32,-19 0,-19 0,0 32,0 32,-19"/>
<text text-anchor="middle" x="16" y="-7" font-family="Helvetica,sans-Serif" font-size="10.00">list</text>
</a>
</g>
</g>
<!-- Node10&#45;&gt;Node11 -->
<g id="edge11_Node000010_Node000011" class="edge">
<title>Node10&#45;&gt;Node11</title>
<g id="a_edge11_Node000010_Node000011"><a xlink:title=" ">
<path fill="none" stroke="#63b8ff" d="M146.75,-55.79C118.88,-46.14 71.2,-29.62 41.77,-19.43"/>
<polygon fill="#63b8ff" stroke="#63b8ff" points="42.77,-16.07 32.18,-16.1 40.48,-22.69 42.77,-16.07"/>
</a>
</g>
</g>
<!-- Node12 -->
<g id="Node000012" class="node">
<title>Node12</title>
<g id="a_Node000012"><a xlink:title=" ">
<polygon fill="#e0e0e0" stroke="#999999" points="204.5,-19 121.5,-19 121.5,0 204.5,0 204.5,-19"/>
<text text-anchor="middle" x="163" y="-7" font-family="Helvetica,sans-Serif" font-size="10.00">initializer_list</text>
</a>
</g>
</g>
<!-- Node10&#45;&gt;Node12 -->
<g id="edge12_Node000010_Node000012" class="edge">
<title>Node10&#45;&gt;Node12</title>
<g id="a_edge12_Node000010_Node000012"><a xlink:title=" ">
<path fill="none" stroke="#63b8ff" d="M168.01,-54.75C167.22,-47.8 166.1,-37.85 165.11,-29.13"/>
<polygon fill="#63b8ff" stroke="#63b8ff" points="168.58,-28.63 163.97,-19.09 161.62,-29.42 168.58,-28.63"/>
</a>
</g>
</g>
<!-- Node13 -->
<g id="Node000013" class="node">
<title>Node13</title>
<g id="a_Node000013"><a xlink:title=" ">
<polygon fill="#e0e0e0" stroke="#999999" points="103.5,-19 50.5,-19 50.5,0 103.5,0 103.5,-19"/>
<text text-anchor="middle" x="77" y="-7" font-family="Helvetica,sans-Serif" font-size="10.00">tlist.tcc</text>
</a>
</g>
</g>
<!-- Node10&#45;&gt;Node13 -->
<g id="edge14_Node000010_Node000013" class="edge">
<title>Node10&#45;&gt;Node13</title>
<g id="a_edge14_Node000010_Node000013"><a xlink:title=" ">
<path fill="none" stroke="#63b8ff" d="M154.22,-54.98C139.82,-46.69 117.69,-33.94 100.81,-24.22"/>
<polygon fill="#63b8ff" stroke="#63b8ff" points="102.46,-21.13 92.05,-19.17 98.97,-27.19 102.46,-21.13"/>
</a>
</g>
</g>
<!-- Node14&#45;&gt;Node5 -->
<g id="edge16_Node000014_Node000005" class="edge">
<title>Node14&#45;&gt;Node5</title>
<g id="a_edge16_Node000014_Node000005"><a xlink:title=" ">
<path fill="none" stroke="#63b8ff" d="M489.51,-111.79C562.37,-101.7 699.39,-82.74 773.44,-72.5"/>
<polygon fill="#63b8ff" stroke="#63b8ff" points="774.03,-75.95 783.46,-71.11 773.07,-69.01 774.03,-75.95"/>
</a>
</g>
</g>
<!-- Node14&#45;&gt;Node9 -->
<g id="edge18_Node000014_Node000009" class="edge">
<title>Node14&#45;&gt;Node9</title>
<g id="a_edge18_Node000014_Node000009"><a xlink:title=" ">
<path fill="none" stroke="#63b8ff" d="M443.32,-109.7C447.39,-95.96 457.14,-69.5 475,-55 502.45,-32.71 540.67,-21.59 571.92,-16.03"/>
<polygon fill="#63b8ff" stroke="#63b8ff" points="572.49,-19.49 581.8,-14.42 571.36,-12.58 572.49,-19.49"/>
</a>
</g>
</g>
<!-- Node14&#45;&gt;Node10 -->
<g id="edge17_Node000014_Node000010" class="edge">
<title>Node14&#45;&gt;Node10</title>
<g id="a_edge17_Node000014_Node000010"><a xlink:title=" ">
<path fill="none" stroke="#63b8ff" d="M392.05,-110.24C343.82,-101.88 268.09,-88.21 203,-74 202.41,-73.87 201.81,-73.74 201.2,-73.6"/>
<polygon fill="#63b8ff" stroke="#63b8ff" points="201.8,-70.15 191.27,-71.27 200.2,-76.96 201.8,-70.15"/>
</a>
</g>
</g>
<!-- Node15&#45;&gt;Node5 -->
<g id="edge23_Node000015_Node000005" class="edge">
<title>Node15&#45;&gt;Node5</title>
<g id="a_edge23_Node000015_Node000005"><a xlink:title=" ">
<path fill="none" stroke="#63b8ff" d="M859.6,-329.82C863.06,-320.99 868.03,-306.81 870,-294 871.28,-285.65 870.91,-283.4 870,-275 862.21,-203.2 839.82,-119.95 829.43,-83.81"/>
<polygon fill="#63b8ff" stroke="#63b8ff" points="832.77,-82.79 826.61,-74.17 826.05,-84.75 832.77,-82.79"/>
</a>
</g>
</g>
<!-- Node15&#45;&gt;Node9 -->
<g id="edge24_Node000015_Node000009" class="edge">
<title>Node15&#45;&gt;Node9</title>
<g id="a_edge24_Node000015_Node000009"><a xlink:title=" ">
<path fill="none" stroke="#63b8ff" d="M858.09,-329.78C868.17,-286.8 909.82,-97.85 874,-55 850.06,-26.36 747.53,-16.12 682.32,-12.49"/>
<polygon fill="#63b8ff" stroke="#63b8ff" points="682.37,-8.98 672.2,-11.96 682,-15.97 682.37,-8.98"/>
</a>
</g>
</g>
<!-- Node15&#45;&gt;Node10 -->
<g id="edge22_Node000015_Node000010" class="edge">
<title>Node15&#45;&gt;Node10</title>
<g id="a_edge22_Node000015_Node000010"><a xlink:title=" ">
<path fill="none" stroke="#63b8ff" d="M811.95,-336.62C654.66,-329.33 130,-299.83 130,-230.5 130,-230.5 130,-230.5 130,-173.5 130,-139.92 146.88,-103.78 158.43,-82.98"/>
<polygon fill="#63b8ff" stroke="#63b8ff" points="161.6,-84.49 163.58,-74.08 155.54,-80.98 161.6,-84.49"/>
</a>
</g>
</g>
<!-- Node16 -->
<g id="Node000016" class="node">
<title>Node16</title>
<g id="a_Node000016"><a xlink:href="mp4atom_8h.html" target="_top" xlink:title=" ">
<polygon fill="white" stroke="#666666" points="713.5,-294 640.5,-294 640.5,-275 713.5,-275 713.5,-294"/>
<text text-anchor="middle" x="677" y="-282" font-family="Helvetica,sans-Serif" font-size="10.00">mp4atom.h</text>
</a>
</g>
</g>
<!-- Node15&#45;&gt;Node16 -->
<g id="edge25_Node000015_Node000016" class="edge">
<title>Node15&#45;&gt;Node16</title>
<g id="a_edge25_Node000015_Node000016"><a xlink:title=" ">
<path fill="none" stroke="#63b8ff" d="M827.24,-329.98C797.06,-321.05 749.43,-306.94 715.9,-297.02"/>
<polygon fill="#63b8ff" stroke="#63b8ff" points="716.57,-293.57 705.98,-294.08 714.58,-300.28 716.57,-293.57"/>
</a>
</g>
</g>
<!-- Node16&#45;&gt;Node10 -->
<g id="edge49_Node000016_Node000010" class="edge">
<title>Node16&#45;&gt;Node10</title>
<g id="a_edge49_Node000016_Node000010"><a xlink:title=" ">
<path fill="none" stroke="#63b8ff" d="M640.35,-280.89C554.12,-272.97 335.64,-242.25 202,-129 188.1,-117.22 179.3,-98.11 174.31,-83.92"/>
<polygon fill="#63b8ff" stroke="#63b8ff" points="177.6,-82.7 171.22,-74.24 170.93,-84.83 177.6,-82.7"/>
</a>
</g>
</g>
<!-- Node17 -->
<g id="Node000017" class="node">
<title>Node17</title>
<g id="a_Node000017"><a xlink:href="tfile_8h.html" target="_top" xlink:title=" ">
<polygon fill="white" stroke="#666666" points="699,-239 655,-239 655,-220 699,-220 699,-239"/>
<text text-anchor="middle" x="677" y="-227" font-family="Helvetica,sans-Serif" font-size="10.00">tfile.h</text>
</a>
</g>
</g>
<!-- Node16&#45;&gt;Node17 -->
<g id="edge26_Node000016_Node000017" class="edge">
<title>Node16&#45;&gt;Node17</title>
<g id="a_edge26_Node000016_Node000017"><a xlink:title=" ">
<path fill="none" stroke="#63b8ff" d="M677,-274.75C677,-267.8 677,-257.85 677,-249.13"/>
<polygon fill="#63b8ff" stroke="#63b8ff" points="680.5,-249.09 677,-239.09 673.5,-249.09 680.5,-249.09"/>
</a>
</g>
</g>
<!-- Node17&#45;&gt;Node5 -->
<g id="edge27_Node000017_Node000005" class="edge">
<title>Node17&#45;&gt;Node5</title>
<g id="a_edge27_Node000017_Node000005"><a xlink:title=" ">
<path fill="none" stroke="#63b8ff" d="M699.42,-225.37C724.47,-220.7 764.56,-209.55 788,-184 813.71,-155.97 821.08,-110.09 823.18,-84.42"/>
<polygon fill="#63b8ff" stroke="#63b8ff" points="826.69,-84.38 823.82,-74.18 819.7,-83.94 826.69,-84.38"/>
</a>
</g>
</g>
<!-- Node17&#45;&gt;Node9 -->
<g id="edge33_Node000017_Node000009" class="edge">
<title>Node17&#45;&gt;Node9</title>
<g id="a_edge33_Node000017_Node000009"><a xlink:title=" ">
<path fill="none" stroke="#63b8ff" d="M654.9,-226.86C626.07,-223.56 575.8,-213.65 546,-184 509.33,-147.52 516.56,-125.01 508,-74 506.6,-65.67 503.19,-61.94 508,-55 522.52,-34.07 548.16,-22.97 571.93,-17.08"/>
<polygon fill="#63b8ff" stroke="#63b8ff" points="572.96,-20.44 581.97,-14.87 571.45,-13.61 572.96,-20.44"/>
</a>
</g>
</g>
<!-- Node18 -->
<g id="Node000018" class="node">
<title>Node18</title>
<g id="a_Node000018"><a xlink:href="tiostream_8h.html" target="_top" xlink:title=" ">
<polygon fill="white" stroke="#666666" points="778.5,-184 705.5,-184 705.5,-165 778.5,-165 778.5,-184"/>
<text text-anchor="middle" x="742" y="-172" font-family="Helvetica,sans-Serif" font-size="10.00">tiostream.h</text>
</a>
</g>
</g>
<!-- Node17&#45;&gt;Node18 -->
<g id="edge28_Node000017_Node000018" class="edge">
<title>Node17&#45;&gt;Node18</title>
<g id="a_edge28_Node000017_Node000018"><a xlink:title=" ">
<path fill="none" stroke="#63b8ff" d="M687.44,-219.98C697.15,-212.07 711.82,-200.11 723.5,-190.58"/>
<polygon fill="#63b8ff" stroke="#63b8ff" points="725.83,-193.2 731.37,-184.17 721.4,-187.78 725.83,-193.2"/>
</a>
</g>
</g>
<!-- Node19 -->
<g id="Node000019" class="node">
<title>Node19</title>
<g id="a_Node000019"><a xlink:href="taglib_8h.html" target="_top" xlink:title=" ">
<polygon fill="white" stroke="#666666" points="713.5,-129 660.5,-129 660.5,-110 713.5,-110 713.5,-129"/>
<text text-anchor="middle" x="687" y="-117" font-family="Helvetica,sans-Serif" font-size="10.00">taglib.h</text>
</a>
</g>
</g>
<!-- Node17&#45;&gt;Node19 -->
<g id="edge34_Node000017_Node000019" class="edge">
<title>Node17&#45;&gt;Node19</title>
<g id="a_edge34_Node000017_Node000019"><a xlink:title=" ">
<path fill="none" stroke="#63b8ff" d="M677.82,-219.66C679.44,-202.17 683.08,-162.8 685.26,-139.27"/>
<polygon fill="#63b8ff" stroke="#63b8ff" points="688.76,-139.44 686.2,-129.16 681.79,-138.79 688.76,-139.44"/>
</a>
</g>
</g>
<!-- Node21 -->
<g id="Node000021" class="node">
<title>Node21</title>
<g id="a_Node000021"><a xlink:href="tag_8h.html" target="_top" xlink:title=" ">
<polygon fill="white" stroke="#666666" points="595.5,-184 554.5,-184 554.5,-165 595.5,-165 595.5,-184"/>
<text text-anchor="middle" x="575" y="-172" font-family="Helvetica,sans-Serif" font-size="10.00">tag.h</text>
</a>
</g>
</g>
<!-- Node17&#45;&gt;Node21 -->
<g id="edge35_Node000017_Node000021" class="edge">
<title>Node17&#45;&gt;Node21</title>
<g id="a_edge35_Node000017_Node000021"><a xlink:title=" ">
<path fill="none" stroke="#63b8ff" d="M660.61,-219.98C644.43,-211.57 619.43,-198.59 600.62,-188.81"/>
<polygon fill="#63b8ff" stroke="#63b8ff" points="602.17,-185.68 591.69,-184.17 598.95,-191.89 602.17,-185.68"/>
</a>
</g>
</g>
<!-- Node18&#45;&gt;Node5 -->
<g id="edge29_Node000018_Node000005" class="edge">
<title>Node18&#45;&gt;Node5</title>
<g id="a_edge29_Node000018_Node000005"><a xlink:title=" ">
<path fill="none" stroke="#63b8ff" d="M748.71,-164.66C762.35,-146.69 793.52,-105.64 811.18,-82.38"/>
<polygon fill="#63b8ff" stroke="#63b8ff" points="814.17,-84.24 817.43,-74.16 808.59,-80.01 814.17,-84.24"/>
</a>
</g>
</g>
<!-- Node18&#45;&gt;Node9 -->
<g id="edge30_Node000018_Node000009" class="edge">
<title>Node18&#45;&gt;Node9</title>
<g id="a_edge30_Node000018_Node000009"><a xlink:title=" ">
<path fill="none" stroke="#63b8ff" d="M744.45,-164.75C749.79,-143.64 760.19,-89.11 736,-55 723.35,-37.16 702.23,-26.46 681.94,-20.05"/>
<polygon fill="#63b8ff" stroke="#63b8ff" points="682.66,-16.61 672.08,-17.23 680.74,-23.34 682.66,-16.61"/>
</a>
</g>
</g>
<!-- Node18&#45;&gt;Node19 -->
<g id="edge31_Node000018_Node000019" class="edge">
<title>Node18&#45;&gt;Node19</title>
<g id="a_edge31_Node000018_Node000019"><a xlink:title=" ">
<path fill="none" stroke="#63b8ff" d="M732.92,-164.75C724.91,-157.03 713.04,-145.6 703.38,-136.28"/>
<polygon fill="#63b8ff" stroke="#63b8ff" points="705.54,-133.51 695.91,-129.09 700.69,-138.55 705.54,-133.51"/>
</a>
</g>
</g>
<!-- Node20 -->
<g id="Node000020" class="node">
<title>Node20</title>
<g id="a_Node000020"><a xlink:title=" ">
<polygon fill="#e0e0e0" stroke="#999999" points="727,-74 655,-74 655,-55 727,-55 727,-74"/>
<text text-anchor="middle" x="691" y="-62" font-family="Helvetica,sans-Serif" font-size="10.00">sys/types.h</text>
</a>
</g>
</g>
<!-- Node19&#45;&gt;Node20 -->
<g id="edge32_Node000019_Node000020" class="edge">
<title>Node19&#45;&gt;Node20</title>
<g id="a_edge32_Node000019_Node000020"><a xlink:title=" ">
<path fill="none" stroke="#63b8ff" d="M687.66,-109.75C688.18,-102.8 688.94,-92.85 689.59,-84.13"/>
<polygon fill="#63b8ff" stroke="#63b8ff" points="693.09,-84.32 690.35,-74.09 686.11,-83.8 693.09,-84.32"/>
</a>
</g>
</g>
<!-- Node21&#45;&gt;Node3 -->
<g id="edge37_Node000021_Node000003" class="edge">
<title>Node21&#45;&gt;Node3</title>
<g id="a_edge37_Node000021_Node000003"><a xlink:title=" ">
<path fill="none" stroke="#63b8ff" d="M575,-164.75C575,-157.8 575,-147.85 575,-139.13"/>
<polygon fill="#63b8ff" stroke="#63b8ff" points="578.5,-139.09 575,-129.09 571.5,-139.09 578.5,-139.09"/>
</a>
</g>
</g>
<!-- Node21&#45;&gt;Node9 -->
<g id="edge36_Node000021_Node000009" class="edge">
<title>Node21&#45;&gt;Node9</title>
<g id="a_edge36_Node000021_Node000009"><a xlink:title=" ">
<path fill="none" stroke="#63b8ff" d="M585.31,-164.76C594.25,-156.53 606.73,-143.33 613,-129 627.34,-96.21 628.7,-53.72 628.07,-29.55"/>
<polygon fill="#63b8ff" stroke="#63b8ff" points="631.56,-29.12 627.65,-19.28 624.56,-29.41 631.56,-29.12"/>
</a>
</g>
</g>
<!-- Node21&#45;&gt;Node10 -->
<g id="edge38_Node000021_Node000010" class="edge">
<title>Node21&#45;&gt;Node10</title>
<g id="a_edge38_Node000021_Node000010"><a xlink:title=" ">
<path fill="none" stroke="#63b8ff" d="M554.36,-170.93C499.09,-163.92 348.7,-144 301,-129 261.2,-116.48 218.21,-93.93 192.46,-79.35"/>
<polygon fill="#63b8ff" stroke="#63b8ff" points="193.89,-76.13 183.47,-74.19 190.4,-82.2 193.89,-76.13"/>
</a>
</g>
</g>
<!-- Node22 -->
<g id="Node000022" class="node">
<title>Node22</title>
<g id="a_Node000022"><a xlink:href="tvariant_8h.html" target="_top" xlink:title=" ">
<polygon fill="white" stroke="#666666" points="374,-129 310,-129 310,-110 374,-110 374,-129"/>
<text text-anchor="middle" x="342" y="-117" font-family="Helvetica,sans-Serif" font-size="10.00">tvariant.h</text>
</a>
</g>
</g>
<!-- Node21&#45;&gt;Node22 -->
<g id="edge39_Node000021_Node000022" class="edge">
<title>Node21&#45;&gt;Node22</title>
<g id="a_edge39_Node000021_Node000022"><a xlink:title=" ">
<path fill="none" stroke="#63b8ff" d="M554.32,-168.8C516.19,-160.12 434.1,-141.45 383.9,-130.03"/>
<polygon fill="#63b8ff" stroke="#63b8ff" points="384.53,-126.59 374,-127.78 382.98,-133.41 384.53,-126.59"/>
</a>
</g>
</g>
<!-- Node22&#45;&gt;Node9 -->
<g id="edge48_Node000022_Node000009" class="edge">
<title>Node22&#45;&gt;Node9</title>
<g id="a_edge48_Node000022_Node000009"><a xlink:title=" ">
<path fill="none" stroke="#63b8ff" d="M354.67,-109.92C375.02,-96.5 416.59,-70.46 455,-55 492.89,-39.75 537.61,-28.37 571.95,-20.94"/>
<polygon fill="#63b8ff" stroke="#63b8ff" points="572.74,-24.35 581.8,-18.85 571.29,-17.5 572.74,-24.35"/>
</a>
</g>
</g>
<!-- Node22&#45;&gt;Node10 -->
<g id="edge41_Node000022_Node000010" class="edge">
<title>Node22&#45;&gt;Node10</title>
<g id="a_edge41_Node000022_Node000010"><a xlink:title=" ">
<path fill="none" stroke="#63b8ff" d="M314.2,-109.98C283.35,-100.53 233.63,-85.3 201.13,-75.34"/>
<polygon fill="#63b8ff" stroke="#63b8ff" points="201.81,-71.89 191.23,-72.31 199.76,-78.59 201.81,-71.89"/>
</a>
</g>
</g>
<!-- Node23 -->
<g id="Node000023" class="node">
<title>Node23</title>
<g id="a_Node000023"><a xlink:title=" ">
<polygon fill="#e0e0e0" stroke="#999999" points="376,-74 320,-74 320,-55 376,-55 376,-74"/>
<text text-anchor="middle" x="348" y="-62" font-family="Helvetica,sans-Serif" font-size="10.00">sstream</text>
</a>
</g>
</g>
<!-- Node22&#45;&gt;Node23 -->
<g id="edge40_Node000022_Node000023" class="edge">
<title>Node22&#45;&gt;Node23</title>
<g id="a_edge40_Node000022_Node000023"><a xlink:title=" ">
<path fill="none" stroke="#63b8ff" d="M342.99,-109.75C343.78,-102.8 344.9,-92.85 345.89,-84.13"/>
<polygon fill="#63b8ff" stroke="#63b8ff" points="349.38,-84.42 347.03,-74.09 342.42,-83.63 349.38,-84.42"/>
</a>
</g>
</g>
<!-- Node24 -->
<g id="Node000024" class="node">
<title>Node24</title>
<g id="a_Node000024"><a xlink:href="tmap_8h.html" target="_top" xlink:title=" ">
<polygon fill="white" stroke="#666666" points="263.5,-74 212.5,-74 212.5,-55 263.5,-55 263.5,-74"/>
<text text-anchor="middle" x="238" y="-62" font-family="Helvetica,sans-Serif" font-size="10.00">tmap.h</text>
</a>
</g>
</g>
<!-- Node22&#45;&gt;Node24 -->
<g id="edge42_Node000022_Node000024" class="edge">
<title>Node22&#45;&gt;Node24</title>
<g id="a_edge42_Node000022_Node000024"><a xlink:title=" ">
<path fill="none" stroke="#63b8ff" d="M325.29,-109.98C308.79,-101.57 283.3,-88.59 264.12,-78.81"/>
<polygon fill="#63b8ff" stroke="#63b8ff" points="265.51,-75.59 255.01,-74.17 262.33,-81.83 265.51,-75.59"/>
</a>
</g>
</g>
<!-- Node24&#45;&gt;Node6 -->
<g id="edge44_Node000024_Node000006" class="edge">
<title>Node24&#45;&gt;Node6</title>
<g id="a_edge44_Node000024_Node000006"><a xlink:title=" ">
<path fill="none" stroke="#63b8ff" d="M259.53,-54.98C281.47,-46.3 315.74,-32.75 340.69,-22.88"/>
<polygon fill="#63b8ff" stroke="#63b8ff" points="342.07,-26.1 350.08,-19.17 339.49,-19.59 342.07,-26.1"/>
</a>
</g>
</g>
<!-- Node24&#45;&gt;Node12 -->
<g id="edge45_Node000024_Node000012" class="edge">
<title>Node24&#45;&gt;Node12</title>
<g id="a_edge45_Node000024_Node000012"><a xlink:title=" ">
<path fill="none" stroke="#63b8ff" d="M225.95,-54.98C214.54,-46.92 197.17,-34.65 183.57,-25.03"/>
<polygon fill="#63b8ff" stroke="#63b8ff" points="185.46,-22.08 175.27,-19.17 181.42,-27.8 185.46,-22.08"/>
</a>
</g>
</g>
<!-- Node25 -->
<g id="Node000025" class="node">
<title>Node25</title>
<g id="a_Node000025"><a xlink:title=" ">
<polygon fill="#e0e0e0" stroke="#999999" points="261,-19 223,-19 223,0 261,0 261,-19"/>
<text text-anchor="middle" x="242" y="-7" font-family="Helvetica,sans-Serif" font-size="10.00">map</text>
</a>
</g>
</g>
<!-- Node24&#45;&gt;Node25 -->
<g id="edge43_Node000024_Node000025" class="edge">
<title>Node24&#45;&gt;Node25</title>
<g id="a_edge43_Node000024_Node000025"><a xlink:title=" ">
<path fill="none" stroke="#63b8ff" d="M238.66,-54.75C239.18,-47.8 239.94,-37.85 240.59,-29.13"/>
<polygon fill="#63b8ff" stroke="#63b8ff" points="244.09,-29.32 241.35,-19.09 237.11,-28.8 244.09,-29.32"/>
</a>
</g>
</g>
<!-- Node26 -->
<g id="Node000026" class="node">
<title>Node26</title>
<g id="a_Node000026"><a xlink:title=" ">
<polygon fill="#e0e0e0" stroke="#999999" points="324.5,-19 279.5,-19 279.5,0 324.5,0 324.5,-19"/>
<text text-anchor="middle" x="302" y="-7" font-family="Helvetica,sans-Serif" font-size="10.00">utility</text>
</a>
</g>
</g>
<!-- Node24&#45;&gt;Node26 -->
<g id="edge46_Node000024_Node000026" class="edge">
<title>Node24&#45;&gt;Node26</title>
<g id="a_edge46_Node000024_Node000026"><a xlink:title=" ">
<path fill="none" stroke="#63b8ff" d="M248.28,-54.98C257.84,-47.07 272.28,-35.11 283.78,-25.58"/>
<polygon fill="#63b8ff" stroke="#63b8ff" points="286.06,-28.24 291.53,-19.17 281.6,-22.85 286.06,-28.24"/>
</a>
</g>
</g>
<!-- Node27 -->
<g id="Node000027" class="node">
<title>Node27</title>
<g id="a_Node000027"><a xlink:title=" ">
<polygon fill="#e0e0e0" stroke="#999999" points="478.5,-19 419.5,-19 419.5,0 478.5,0 478.5,-19"/>
<text text-anchor="middle" x="449" y="-7" font-family="Helvetica,sans-Serif" font-size="10.00">tmap.tcc</text>
</a>
</g>
</g>
<!-- Node24&#45;&gt;Node27 -->
<g id="edge47_Node000024_Node000027" class="edge">
<title>Node24&#45;&gt;Node27</title>
<g id="a_edge47_Node000024_Node000027"><a xlink:title=" ">
<path fill="none" stroke="#63b8ff" d="M263.87,-57C300.24,-47.87 366.8,-31.15 409.41,-20.44"/>
<polygon fill="#63b8ff" stroke="#63b8ff" points="410.33,-23.82 419.17,-17.99 408.62,-17.03 410.33,-23.82"/>
</a>
</g>
</g>
<!-- Node28&#45;&gt;Node5 -->
<g id="edge51_Node000028_Node000005" class="edge">
<title>Node28&#45;&gt;Node5</title>
<g id="a_edge51_Node000028_Node000005"><a xlink:title=" ">
<path fill="none" stroke="#63b8ff" d="M968.37,-109.98C939.49,-101.09 893.99,-87.07 861.8,-77.15"/>
<polygon fill="#63b8ff" stroke="#63b8ff" points="862.44,-73.68 851.85,-74.08 860.38,-80.37 862.44,-73.68"/>
</a>
</g>
</g>
<!-- Node28&#45;&gt;Node9 -->
<g id="edge52_Node000028_Node000009" class="edge">
<title>Node28&#45;&gt;Node9</title>
<g id="a_edge52_Node000028_Node000009"><a xlink:title=" ">
<path fill="none" stroke="#63b8ff" d="M991.91,-109.77C984.77,-95.63 968.63,-68 946,-55 902.2,-29.85 761.38,-18.04 682.27,-13.26"/>
<polygon fill="#63b8ff" stroke="#63b8ff" points="682.19,-9.75 672,-12.66 681.78,-16.74 682.19,-9.75"/>
</a>
</g>
</g>
</g>
</svg>
