<?xml version="1.0" encoding="UTF-8" standalone="no"?>
<!DOCTYPE svg PUBLIC "-//W3C//DTD SVG 1.1//EN"
 "http://www.w3.org/Graphics/SVG/1.1/DTD/svg11.dtd">
<!-- Generated by graphviz version 2.42.4 (0)
 -->
<!-- Title: mp4stem.h Pages: 1 -->
<svg width="192pt" height="192pt"
 viewBox="0.00 0.00 192.00 192.00" xmlns="http://www.w3.org/2000/svg" xmlns:xlink="http://www.w3.org/1999/xlink">
<g id="graph0" class="graph" transform="scale(1 1) rotate(0) translate(4 188)">
<title>mp4stem.h</title>
<!-- Node1 -->
<g id="Node000001" class="node">
<title>Node1</title>
<g id="a_Node000001"><a xlink:title=" ">
<polygon fill="#999999" stroke="#666666" points="137.5,-184 65.5,-184 65.5,-165 137.5,-165 137.5,-184"/>
<text text-anchor="middle" x="101.5" y="-172" font-family="Helvetica,sans-Serif" font-size="10.00">mp4stem.h</text>
</a>
</g>
</g>
<!-- Node2 -->
<g id="Node000002" class="node">
<title>Node2</title>
<g id="a_Node000002"><a xlink:href="mp4item_8h.html" target="_top" xlink:title=" ">
<polygon fill="white" stroke="#666666" points="136.5,-129 66.5,-129 66.5,-110 136.5,-110 136.5,-129"/>
<text text-anchor="middle" x="101.5" y="-117" font-family="Helvetica,sans-Serif" font-size="10.00">mp4item.h</text>
</a>
</g>
</g>
<!-- Node1&#45;&gt;Node2 -->
<g id="edge1_Node000001_Node000002" class="edge">
<title>Node1&#45;&gt;Node2</title>
<g id="a_edge1_Node000001_Node000002"><a xlink:title=" ">
<path fill="none" stroke="#63b8ff" d="M101.5,-154.66C101.5,-145.93 101.5,-135.99 101.5,-129.09"/>
<polygon fill="#63b8ff" stroke="#63b8ff" points="98,-154.75 101.5,-164.75 105,-154.75 98,-154.75"/>
</a>
</g>
</g>
<!-- Node3 -->
<g id="Node000003" class="node">
<title>Node3</title>
<g id="a_Node000003"><a xlink:href="mp4itemfactory_8h.html" target="_top" xlink:title=" ">
<polygon fill="white" stroke="#666666" points="103,-74 0,-74 0,-55 103,-55 103,-74"/>
<text text-anchor="middle" x="51.5" y="-62" font-family="Helvetica,sans-Serif" font-size="10.00">mp4itemfactory.h</text>
</a>
</g>
</g>
<!-- Node2&#45;&gt;Node3 -->
<g id="edge2_Node000002_Node000003" class="edge">
<title>Node2&#45;&gt;Node3</title>
<g id="a_edge2_Node000002_Node000003"><a xlink:title=" ">
<path fill="none" stroke="#63b8ff" d="M86.16,-102.24C77.4,-92.95 66.76,-81.68 59.6,-74.09"/>
<polygon fill="#63b8ff" stroke="#63b8ff" points="83.84,-104.88 93.24,-109.75 88.93,-100.07 83.84,-104.88"/>
</a>
</g>
</g>
<!-- Node4 -->
<g id="Node000004" class="node">
<title>Node4</title>
<g id="a_Node000004"><a xlink:href="mp4tag_8h.html" target="_top" xlink:title=" ">
<polygon fill="white" stroke="#666666" points="184,-74 121,-74 121,-55 184,-55 184,-74"/>
<text text-anchor="middle" x="152.5" y="-62" font-family="Helvetica,sans-Serif" font-size="10.00">mp4tag.h</text>
</a>
</g>
</g>
<!-- Node2&#45;&gt;Node4 -->
<g id="edge3_Node000002_Node000004" class="edge">
<title>Node2&#45;&gt;Node4</title>
<g id="a_edge3_Node000002_Node000004"><a xlink:title=" ">
<path fill="none" stroke="#63b8ff" d="M116.88,-102.52C125.87,-93.18 136.86,-81.75 144.24,-74.09"/>
<polygon fill="#63b8ff" stroke="#63b8ff" points="114.33,-100.12 109.92,-109.75 119.38,-104.97 114.33,-100.12"/>
</a>
</g>
</g>
<!-- Node5 -->
<g id="Node000005" class="node">
<title>Node5</title>
<g id="a_Node000005"><a xlink:href="mp4file_8h.html" target="_top" xlink:title=" ">
<polygon fill="white" stroke="#666666" points="183.5,-19 121.5,-19 121.5,0 183.5,0 183.5,-19"/>
<text text-anchor="middle" x="152.5" y="-7" font-family="Helvetica,sans-Serif" font-size="10.00">mp4file.h</text>
</a>
</g>
</g>
<!-- Node4&#45;&gt;Node5 -->
<g id="edge4_Node000004_Node000005" class="edge">
<title>Node4&#45;&gt;Node5</title>
<g id="a_edge4_Node000004_Node000005"><a xlink:title=" ">
<path fill="none" stroke="#63b8ff" d="M152.5,-44.66C152.5,-35.93 152.5,-25.99 152.5,-19.09"/>
<polygon fill="#63b8ff" stroke="#63b8ff" points="149,-44.75 152.5,-54.75 156,-44.75 149,-44.75"/>
</a>
</g>
</g>
</g>
</svg>
