<?xml version="1.0" encoding="UTF-8" standalone="no"?>
<!DOCTYPE svg PUBLIC "-//W3C//DTD SVG 1.1//EN"
 "http://www.w3.org/Graphics/SVG/1.1/DTD/svg11.dtd">
<!-- Generated by graphviz version 2.46.1 (20210213.1702)
 -->
<!-- Title: mp4tag.h Pages: 1 -->
<svg width="927pt" height="364pt"
 viewBox="0.00 0.00 926.86 364.00" xmlns="http://www.w3.org/2000/svg" xmlns:xlink="http://www.w3.org/1999/xlink">
<g id="graph0" class="graph" transform="scale(1 1) rotate(0) translate(4 360)">
<title>mp4tag.h</title>
<polygon fill="white" stroke="transparent" points="-4,4 -4,-360 922.86,-360 922.86,4 -4,4"/>
<!-- Node1 -->
<g id="node1" class="node">
<title>Node1</title>
<g id="a_node1"><a xlink:title=" ">
<polygon fill="#bfbfbf" stroke="black" points="416.5,-336.5 416.5,-355.5 473.5,-355.5 473.5,-336.5 416.5,-336.5"/>
<text text-anchor="middle" x="445" y="-343.5" font-family="Helvetica,sans-Serif" font-size="10.00">mp4tag.h</text>
</a>
</g>
</g>
<!-- Node2 -->
<g id="node2" class="node">
<title>Node2</title>
<g id="a_node2"><a xlink:href="tag_8h.html" target="_top" xlink:title=" ">
<polygon fill="white" stroke="black" points="28,-224.5 28,-243.5 66,-243.5 66,-224.5 28,-224.5"/>
<text text-anchor="middle" x="47" y="-231.5" font-family="Helvetica,sans-Serif" font-size="10.00">tag.h</text>
</a>
</g>
</g>
<!-- Node1&#45;&gt;Node2 -->
<g id="edge1" class="edge">
<title>Node1&#45;&gt;Node2</title>
<path fill="none" stroke="midnightblue" d="M416.38,-337.09C343.16,-316.85 149.65,-263.37 76.01,-243.02"/>
<polygon fill="midnightblue" stroke="midnightblue" points="76.61,-239.55 66.04,-240.26 74.75,-246.3 76.61,-239.55"/>
</g>
<!-- Node3 -->
<g id="node3" class="node">
<title>Node3</title>
<g id="a_node3"><a xlink:href="taglib__export_8h.html" target="_top" xlink:title=" ">
<polygon fill="white" stroke="black" points="131,-56.5 131,-75.5 211,-75.5 211,-56.5 131,-56.5"/>
<text text-anchor="middle" x="171" y="-63.5" font-family="Helvetica,sans-Serif" font-size="10.00">taglib_export.h</text>
</a>
</g>
</g>
<!-- Node1&#45;&gt;Node3 -->
<g id="edge41" class="edge">
<title>Node1&#45;&gt;Node3</title>
<path fill="none" stroke="midnightblue" d="M416.49,-344.1C318.27,-340.26 0,-321.15 0,-235 0,-235 0,-235 0,-177 0,-118.92 70.63,-90.06 121.11,-76.85"/>
<polygon fill="midnightblue" stroke="midnightblue" points="122.05,-80.22 130.91,-74.41 120.36,-73.43 122.05,-80.22"/>
</g>
<!-- Node11 -->
<g id="node11" class="node">
<title>Node11</title>
<g id="a_node11"><a xlink:href="tbytevectorlist_8h.html" target="_top" xlink:title=" ">
<polygon fill="white" stroke="black" points="525,-168.5 525,-187.5 611,-187.5 611,-168.5 525,-168.5"/>
<text text-anchor="middle" x="568" y="-175.5" font-family="Helvetica,sans-Serif" font-size="10.00">tbytevectorlist.h</text>
</a>
</g>
</g>
<!-- Node1&#45;&gt;Node11 -->
<g id="edge15" class="edge">
<title>Node1&#45;&gt;Node11</title>
<path fill="none" stroke="midnightblue" d="M467.04,-336.42C483.58,-328.99 505.75,-316.78 520,-300 545.99,-269.39 559.03,-222.97 564.57,-197.44"/>
<polygon fill="midnightblue" stroke="midnightblue" points="568.01,-198.09 566.56,-187.6 561.15,-196.71 568.01,-198.09"/>
</g>
<!-- Node15 -->
<g id="node15" class="node">
<title>Node15</title>
<g id="a_node15"><a xlink:href="tfile_8h.html" target="_top" xlink:title=" ">
<polygon fill="white" stroke="black" points="389.5,-280.5 389.5,-299.5 430.5,-299.5 430.5,-280.5 389.5,-280.5"/>
<text text-anchor="middle" x="410" y="-287.5" font-family="Helvetica,sans-Serif" font-size="10.00">tfile.h</text>
</a>
</g>
</g>
<!-- Node1&#45;&gt;Node15 -->
<g id="edge22" class="edge">
<title>Node1&#45;&gt;Node15</title>
<path fill="none" stroke="midnightblue" d="M439.22,-336.08C434.33,-328.53 427.17,-317.49 421.17,-308.23"/>
<polygon fill="midnightblue" stroke="midnightblue" points="424.05,-306.24 415.67,-299.75 418.17,-310.05 424.05,-306.24"/>
</g>
<!-- Node17 -->
<g id="node17" class="node">
<title>Node17</title>
<g id="a_node17"><a xlink:href="tmap_8h.html" target="_top" xlink:title=" ">
<polygon fill="white" stroke="black" points="773.5,-280.5 773.5,-299.5 820.5,-299.5 820.5,-280.5 773.5,-280.5"/>
<text text-anchor="middle" x="797" y="-287.5" font-family="Helvetica,sans-Serif" font-size="10.00">tmap.h</text>
</a>
</g>
</g>
<!-- Node1&#45;&gt;Node17 -->
<g id="edge31" class="edge">
<title>Node1&#45;&gt;Node17</title>
<path fill="none" stroke="midnightblue" d="M473.51,-340.63C537.96,-330.74 694.63,-306.71 763.54,-296.13"/>
<polygon fill="midnightblue" stroke="midnightblue" points="764.08,-299.59 773.43,-294.62 763.01,-292.67 764.08,-299.59"/>
</g>
<!-- Node20 -->
<g id="node20" class="node">
<title>Node20</title>
<g id="a_node20"><a xlink:href="tstringlist_8h.html" target="_top" xlink:title=" ">
<polygon fill="white" stroke="black" points="319.5,-224.5 319.5,-243.5 384.5,-243.5 384.5,-224.5 319.5,-224.5"/>
<text text-anchor="middle" x="352" y="-231.5" font-family="Helvetica,sans-Serif" font-size="10.00">tstringlist.h</text>
</a>
</g>
</g>
<!-- Node1&#45;&gt;Node20 -->
<g id="edge35" class="edge">
<title>Node1&#45;&gt;Node20</title>
<path fill="none" stroke="midnightblue" d="M427.5,-336.44C413.12,-328.64 393.04,-315.93 380,-300 368.82,-286.35 361.37,-267.56 356.99,-253.69"/>
<polygon fill="midnightblue" stroke="midnightblue" points="360.27,-252.44 354.12,-243.82 353.55,-254.4 360.27,-252.44"/>
</g>
<!-- Node21 -->
<g id="node21" class="node">
<title>Node21</title>
<g id="a_node21"><a xlink:href="mp4atom_8h.html" target="_top" xlink:title=" ">
<polygon fill="white" stroke="black" points="726.5,-112.5 726.5,-131.5 791.5,-131.5 791.5,-112.5 726.5,-112.5"/>
<text text-anchor="middle" x="759" y="-119.5" font-family="Helvetica,sans-Serif" font-size="10.00">mp4atom.h</text>
</a>
</g>
</g>
<!-- Node1&#45;&gt;Node21 -->
<g id="edge42" class="edge">
<title>Node1&#45;&gt;Node21</title>
<path fill="none" stroke="midnightblue" d="M473.61,-343.41C551.23,-338.83 764.38,-324.32 830,-300 871.73,-284.53 892.11,-283.29 913,-244 941.55,-190.3 855.02,-152.57 800.29,-134.71"/>
<polygon fill="midnightblue" stroke="midnightblue" points="801.07,-131.28 790.48,-131.61 798.96,-137.96 801.07,-131.28"/>
</g>
<!-- Node22 -->
<g id="node22" class="node">
<title>Node22</title>
<g id="a_node22"><a xlink:href="mp4item_8h.html" target="_top" xlink:title=" ">
<polygon fill="white" stroke="black" points="449,-280.5 449,-299.5 511,-299.5 511,-280.5 449,-280.5"/>
<text text-anchor="middle" x="480" y="-287.5" font-family="Helvetica,sans-Serif" font-size="10.00">mp4item.h</text>
</a>
</g>
</g>
<!-- Node1&#45;&gt;Node22 -->
<g id="edge43" class="edge">
<title>Node1&#45;&gt;Node22</title>
<path fill="none" stroke="midnightblue" d="M450.78,-336.08C455.67,-328.53 462.83,-317.49 468.83,-308.23"/>
<polygon fill="midnightblue" stroke="midnightblue" points="471.83,-310.05 474.33,-299.75 465.95,-306.24 471.83,-310.05"/>
</g>
<!-- Node2&#45;&gt;Node3 -->
<g id="edge2" class="edge">
<title>Node2&#45;&gt;Node3</title>
<path fill="none" stroke="midnightblue" d="M46.76,-224.29C46.62,-202.74 49.11,-146.23 77,-112 89.63,-96.5 108.88,-85.99 126.67,-79.06"/>
<polygon fill="midnightblue" stroke="midnightblue" points="128.14,-82.25 136.36,-75.57 125.77,-75.67 128.14,-82.25"/>
</g>
<!-- Node4 -->
<g id="node4" class="node">
<title>Node4</title>
<g id="a_node4"><a xlink:href="tstring_8h.html" target="_top" xlink:title=" ">
<polygon fill="white" stroke="black" points="293,-168.5 293,-187.5 345,-187.5 345,-168.5 293,-168.5"/>
<text text-anchor="middle" x="319" y="-175.5" font-family="Helvetica,sans-Serif" font-size="10.00">tstring.h</text>
</a>
</g>
</g>
<!-- Node2&#45;&gt;Node4 -->
<g id="edge3" class="edge">
<title>Node2&#45;&gt;Node4</title>
<path fill="none" stroke="midnightblue" d="M66.13,-229.2C111.19,-220.26 224.6,-197.74 283,-186.15"/>
<polygon fill="midnightblue" stroke="midnightblue" points="283.78,-189.56 292.9,-184.18 282.41,-182.7 283.78,-189.56"/>
</g>
<!-- Node4&#45;&gt;Node3 -->
<g id="edge4" class="edge">
<title>Node4&#45;&gt;Node3</title>
<path fill="none" stroke="midnightblue" d="M296.19,-168.43C277.14,-160.63 249.81,-147.92 229,-132 210.87,-118.13 193.95,-98.02 183.13,-83.85"/>
<polygon fill="midnightblue" stroke="midnightblue" points="185.71,-81.46 176.94,-75.52 180.09,-85.63 185.71,-81.46"/>
</g>
<!-- Node5 -->
<g id="node5" class="node">
<title>Node5</title>
<g id="a_node5"><a xlink:href="taglib_8h.html" target="_top" xlink:title=" ">
<polygon fill="white" stroke="black" points="539,-56.5 539,-75.5 587,-75.5 587,-56.5 539,-56.5"/>
<text text-anchor="middle" x="563" y="-63.5" font-family="Helvetica,sans-Serif" font-size="10.00">taglib.h</text>
</a>
</g>
</g>
<!-- Node4&#45;&gt;Node5 -->
<g id="edge5" class="edge">
<title>Node4&#45;&gt;Node5</title>
<path fill="none" stroke="midnightblue" d="M335.62,-168.41C360.63,-155.6 409.52,-130.96 452,-112 478.46,-100.19 509.01,-87.9 531.36,-79.15"/>
<polygon fill="midnightblue" stroke="midnightblue" points="532.65,-82.41 540.7,-75.52 530.11,-75.88 532.65,-82.41"/>
</g>
<!-- Node7 -->
<g id="node7" class="node">
<title>Node7</title>
<g id="a_node7"><a xlink:title=" ">
<polygon fill="white" stroke="#bfbfbf" points="343.5,-0.5 343.5,-19.5 384.5,-19.5 384.5,-0.5 343.5,-0.5"/>
<text text-anchor="middle" x="364" y="-7.5" font-family="Helvetica,sans-Serif" font-size="10.00">string</text>
</a>
</g>
</g>
<!-- Node4&#45;&gt;Node7 -->
<g id="edge13" class="edge">
<title>Node4&#45;&gt;Node7</title>
<path fill="none" stroke="midnightblue" d="M321.42,-168.08C328.5,-141.95 349.3,-65.21 358.96,-29.58"/>
<polygon fill="midnightblue" stroke="midnightblue" points="362.44,-30.14 361.68,-19.57 355.68,-28.3 362.44,-30.14"/>
</g>
<!-- Node8 -->
<g id="node8" class="node">
<title>Node8</title>
<g id="a_node8"><a xlink:href="tbytevector_8h.html" target="_top" xlink:title=" ">
<polygon fill="white" stroke="black" points="461.5,-112.5 461.5,-131.5 534.5,-131.5 534.5,-112.5 461.5,-112.5"/>
<text text-anchor="middle" x="498" y="-119.5" font-family="Helvetica,sans-Serif" font-size="10.00">tbytevector.h</text>
</a>
</g>
</g>
<!-- Node4&#45;&gt;Node8 -->
<g id="edge8" class="edge">
<title>Node4&#45;&gt;Node8</title>
<path fill="none" stroke="midnightblue" d="M345.03,-169.15C375.21,-160.04 425.23,-144.95 459.82,-134.52"/>
<polygon fill="midnightblue" stroke="midnightblue" points="461.01,-137.81 469.57,-131.58 458.99,-131.11 461.01,-137.81"/>
</g>
<!-- Node10 -->
<g id="node10" class="node">
<title>Node10</title>
<g id="a_node10"><a xlink:title=" ">
<polygon fill="white" stroke="#bfbfbf" points="368,-56.5 368,-75.5 422,-75.5 422,-56.5 368,-56.5"/>
<text text-anchor="middle" x="395" y="-63.5" font-family="Helvetica,sans-Serif" font-size="10.00">iostream</text>
</a>
</g>
</g>
<!-- Node4&#45;&gt;Node10 -->
<g id="edge14" class="edge">
<title>Node4&#45;&gt;Node10</title>
<path fill="none" stroke="midnightblue" d="M324.96,-168.37C337.51,-150.22 366.81,-107.8 383.26,-83.99"/>
<polygon fill="midnightblue" stroke="midnightblue" points="386.26,-85.81 389.06,-75.59 380.5,-81.83 386.26,-85.81"/>
</g>
<!-- Node6 -->
<g id="node6" class="node">
<title>Node6</title>
<g id="a_node6"><a xlink:title=" ">
<polygon fill="white" stroke="#bfbfbf" points="523,-0.5 523,-19.5 603,-19.5 603,-0.5 523,-0.5"/>
<text text-anchor="middle" x="563" y="-7.5" font-family="Helvetica,sans-Serif" font-size="10.00">taglib_config.h</text>
</a>
</g>
</g>
<!-- Node5&#45;&gt;Node6 -->
<g id="edge6" class="edge">
<title>Node5&#45;&gt;Node6</title>
<path fill="none" stroke="midnightblue" d="M563,-56.08C563,-49.01 563,-38.86 563,-29.99"/>
<polygon fill="midnightblue" stroke="midnightblue" points="566.5,-29.75 563,-19.75 559.5,-29.75 566.5,-29.75"/>
</g>
<!-- Node5&#45;&gt;Node7 -->
<g id="edge7" class="edge">
<title>Node5&#45;&gt;Node7</title>
<path fill="none" stroke="midnightblue" d="M539,-58.49C502.76,-48.65 434.13,-30.03 394.44,-19.26"/>
<polygon fill="midnightblue" stroke="midnightblue" points="395.34,-15.88 384.77,-16.64 393.5,-22.63 395.34,-15.88"/>
</g>
<!-- Node8&#45;&gt;Node3 -->
<g id="edge10" class="edge">
<title>Node8&#45;&gt;Node3</title>
<path fill="none" stroke="midnightblue" d="M461.44,-114.96C402.83,-105.28 287.7,-86.27 221.35,-75.32"/>
<polygon fill="midnightblue" stroke="midnightblue" points="221.58,-71.8 211.14,-73.63 220.44,-78.71 221.58,-71.8"/>
</g>
<!-- Node8&#45;&gt;Node5 -->
<g id="edge9" class="edge">
<title>Node8&#45;&gt;Node5</title>
<path fill="none" stroke="midnightblue" d="M508.44,-112.32C518.15,-104.26 532.82,-92.08 544.5,-82.37"/>
<polygon fill="midnightblue" stroke="midnightblue" points="546.91,-84.92 552.37,-75.83 542.44,-79.53 546.91,-84.92"/>
</g>
<!-- Node9 -->
<g id="node9" class="node">
<title>Node9</title>
<g id="a_node9"><a xlink:title=" ">
<polygon fill="white" stroke="#bfbfbf" points="476,-56.5 476,-75.5 520,-75.5 520,-56.5 476,-56.5"/>
<text text-anchor="middle" x="498" y="-63.5" font-family="Helvetica,sans-Serif" font-size="10.00">vector</text>
</a>
</g>
</g>
<!-- Node8&#45;&gt;Node9 -->
<g id="edge11" class="edge">
<title>Node8&#45;&gt;Node9</title>
<path fill="none" stroke="midnightblue" d="M498,-112.08C498,-105.01 498,-94.86 498,-85.99"/>
<polygon fill="midnightblue" stroke="midnightblue" points="501.5,-85.75 498,-75.75 494.5,-85.75 501.5,-85.75"/>
</g>
<!-- Node8&#45;&gt;Node10 -->
<g id="edge12" class="edge">
<title>Node8&#45;&gt;Node10</title>
<path fill="none" stroke="midnightblue" d="M481.45,-112.32C465.01,-103.7 439.57,-90.36 420.53,-80.39"/>
<polygon fill="midnightblue" stroke="midnightblue" points="421.99,-77.2 411.51,-75.65 418.74,-83.4 421.99,-77.2"/>
</g>
<!-- Node11&#45;&gt;Node3 -->
<g id="edge16" class="edge">
<title>Node11&#45;&gt;Node3</title>
<path fill="none" stroke="midnightblue" d="M537.18,-168.46C466.16,-148.78 291.01,-100.25 211.47,-78.21"/>
<polygon fill="midnightblue" stroke="midnightblue" points="212.37,-74.83 201.8,-75.53 210.5,-81.58 212.37,-74.83"/>
</g>
<!-- Node11&#45;&gt;Node8 -->
<g id="edge17" class="edge">
<title>Node11&#45;&gt;Node8</title>
<path fill="none" stroke="midnightblue" d="M556.75,-168.32C546.2,-160.18 530.2,-147.84 517.56,-138.09"/>
<polygon fill="midnightblue" stroke="midnightblue" points="519.51,-135.17 509.45,-131.83 515.23,-140.71 519.51,-135.17"/>
</g>
<!-- Node12 -->
<g id="node12" class="node">
<title>Node12</title>
<g id="a_node12"><a xlink:href="tlist_8h.html" target="_top" xlink:title=" ">
<polygon fill="white" stroke="black" points="667.5,-112.5 667.5,-131.5 708.5,-131.5 708.5,-112.5 667.5,-112.5"/>
<text text-anchor="middle" x="688" y="-119.5" font-family="Helvetica,sans-Serif" font-size="10.00">tlist.h</text>
</a>
</g>
</g>
<!-- Node11&#45;&gt;Node12 -->
<g id="edge18" class="edge">
<title>Node11&#45;&gt;Node12</title>
<path fill="none" stroke="midnightblue" d="M587.01,-168.44C606.59,-159.64 637.31,-145.81 659.73,-135.72"/>
<polygon fill="midnightblue" stroke="midnightblue" points="661.39,-138.81 669.07,-131.52 658.52,-132.43 661.39,-138.81"/>
</g>
<!-- Node12&#45;&gt;Node5 -->
<g id="edge19" class="edge">
<title>Node12&#45;&gt;Node5</title>
<path fill="none" stroke="midnightblue" d="M668.19,-112.44C647.71,-103.6 615.52,-89.69 592.14,-79.59"/>
<polygon fill="midnightblue" stroke="midnightblue" points="593.28,-76.27 582.71,-75.52 590.51,-82.7 593.28,-76.27"/>
</g>
<!-- Node13 -->
<g id="node13" class="node">
<title>Node13</title>
<g id="a_node13"><a xlink:title=" ">
<polygon fill="white" stroke="#bfbfbf" points="701.5,-56.5 701.5,-75.5 730.5,-75.5 730.5,-56.5 701.5,-56.5"/>
<text text-anchor="middle" x="716" y="-63.5" font-family="Helvetica,sans-Serif" font-size="10.00">list</text>
</a>
</g>
</g>
<!-- Node12&#45;&gt;Node13 -->
<g id="edge20" class="edge">
<title>Node12&#45;&gt;Node13</title>
<path fill="none" stroke="midnightblue" d="M692.62,-112.08C696.46,-104.69 702.02,-93.95 706.76,-84.81"/>
<polygon fill="midnightblue" stroke="midnightblue" points="709.97,-86.24 711.46,-75.75 703.75,-83.02 709.97,-86.24"/>
</g>
<!-- Node14 -->
<g id="node14" class="node">
<title>Node14</title>
<g id="a_node14"><a xlink:title=" ">
<polygon fill="white" stroke="#bfbfbf" points="634.5,-56.5 634.5,-75.5 683.5,-75.5 683.5,-56.5 634.5,-56.5"/>
<text text-anchor="middle" x="659" y="-63.5" font-family="Helvetica,sans-Serif" font-size="10.00">tlist.tcc</text>
</a>
</g>
</g>
<!-- Node12&#45;&gt;Node14 -->
<g id="edge21" class="edge">
<title>Node12&#45;&gt;Node14</title>
<path fill="none" stroke="midnightblue" d="M683.21,-112.08C679.24,-104.69 673.47,-93.95 668.57,-84.81"/>
<polygon fill="midnightblue" stroke="midnightblue" points="671.51,-82.91 663.7,-75.75 665.35,-86.22 671.51,-82.91"/>
</g>
<!-- Node15&#45;&gt;Node2 -->
<g id="edge25" class="edge">
<title>Node15&#45;&gt;Node2</title>
<path fill="none" stroke="midnightblue" d="M389.38,-287.13C337.2,-282.21 195.87,-267.59 80,-244 78.72,-243.74 77.42,-243.46 76.11,-243.16"/>
<polygon fill="midnightblue" stroke="midnightblue" points="76.64,-239.69 66.09,-240.66 74.95,-246.48 76.64,-239.69"/>
</g>
<!-- Node15&#45;&gt;Node3 -->
<g id="edge23" class="edge">
<title>Node15&#45;&gt;Node3</title>
<path fill="none" stroke="midnightblue" d="M389.16,-287.29C325.41,-281.87 136.29,-264.2 118,-244 109.43,-234.53 111.26,-119.81 115,-112 121.25,-98.95 133.34,-88.49 144.68,-80.95"/>
<polygon fill="midnightblue" stroke="midnightblue" points="146.81,-83.75 153.5,-75.54 143.15,-77.79 146.81,-83.75"/>
</g>
<!-- Node15&#45;&gt;Node5 -->
<g id="edge24" class="edge">
<title>Node15&#45;&gt;Node5</title>
<path fill="none" stroke="midnightblue" d="M430.82,-282.15C479.49,-265.69 598.2,-222.68 620,-188 642.43,-152.32 604.41,-106.42 580.38,-82.72"/>
<polygon fill="midnightblue" stroke="midnightblue" points="582.53,-79.93 572.87,-75.58 577.71,-85.01 582.53,-79.93"/>
</g>
<!-- Node15&#45;&gt;Node8 -->
<g id="edge26" class="edge">
<title>Node15&#45;&gt;Node8</title>
<path fill="none" stroke="midnightblue" d="M409.4,-280.26C408.39,-259.13 408.39,-204.35 432,-168 440.9,-154.3 455.59,-143.68 468.85,-136.2"/>
<polygon fill="midnightblue" stroke="midnightblue" points="470.5,-139.29 477.71,-131.53 467.24,-133.1 470.5,-139.29"/>
</g>
<!-- Node16 -->
<g id="node16" class="node">
<title>Node16</title>
<g id="a_node16"><a xlink:href="tiostream_8h.html" target="_top" xlink:title=" ">
<polygon fill="white" stroke="black" points="441.5,-168.5 441.5,-187.5 506.5,-187.5 506.5,-168.5 441.5,-168.5"/>
<text text-anchor="middle" x="474" y="-175.5" font-family="Helvetica,sans-Serif" font-size="10.00">tiostream.h</text>
</a>
</g>
</g>
<!-- Node15&#45;&gt;Node16 -->
<g id="edge27" class="edge">
<title>Node15&#45;&gt;Node16</title>
<path fill="none" stroke="midnightblue" d="M415.02,-280.37C425.54,-262.3 450.04,-220.18 463.93,-196.31"/>
<polygon fill="midnightblue" stroke="midnightblue" points="467,-198 469,-187.59 460.95,-194.47 467,-198"/>
</g>
<!-- Node16&#45;&gt;Node3 -->
<g id="edge28" class="edge">
<title>Node16&#45;&gt;Node3</title>
<path fill="none" stroke="midnightblue" d="M448.32,-168.43C421.84,-159.55 379.42,-145.13 343,-132 293.67,-114.21 236.82,-92.48 202.42,-79.2"/>
<polygon fill="midnightblue" stroke="midnightblue" points="203.5,-75.87 192.91,-75.53 200.98,-82.4 203.5,-75.87"/>
</g>
<!-- Node16&#45;&gt;Node5 -->
<g id="edge29" class="edge">
<title>Node16&#45;&gt;Node5</title>
<path fill="none" stroke="midnightblue" d="M494.31,-168.45C509.76,-160.97 530.44,-148.68 543,-132 553.2,-118.46 558.25,-99.65 560.72,-85.75"/>
<polygon fill="midnightblue" stroke="midnightblue" points="564.18,-86.26 562.19,-75.85 557.26,-85.23 564.18,-86.26"/>
</g>
<!-- Node16&#45;&gt;Node8 -->
<g id="edge30" class="edge">
<title>Node16&#45;&gt;Node8</title>
<path fill="none" stroke="midnightblue" d="M477.96,-168.08C481.21,-160.77 485.92,-150.18 489.95,-141.1"/>
<polygon fill="midnightblue" stroke="midnightblue" points="493.25,-142.31 494.11,-131.75 486.85,-139.47 493.25,-142.31"/>
</g>
<!-- Node17&#45;&gt;Node5 -->
<g id="edge33" class="edge">
<title>Node17&#45;&gt;Node5</title>
<path fill="none" stroke="midnightblue" d="M800.68,-280.36C811.98,-252.31 842.97,-162.65 801,-112 794.5,-104.16 661.56,-82.42 597.26,-72.3"/>
<polygon fill="midnightblue" stroke="midnightblue" points="597.61,-68.82 587.19,-70.73 596.53,-75.73 597.61,-68.82"/>
</g>
<!-- Node18 -->
<g id="node18" class="node">
<title>Node18</title>
<g id="a_node18"><a xlink:title=" ">
<polygon fill="white" stroke="#bfbfbf" points="756.5,-224.5 756.5,-243.5 791.5,-243.5 791.5,-224.5 756.5,-224.5"/>
<text text-anchor="middle" x="774" y="-231.5" font-family="Helvetica,sans-Serif" font-size="10.00">map</text>
</a>
</g>
</g>
<!-- Node17&#45;&gt;Node18 -->
<g id="edge32" class="edge">
<title>Node17&#45;&gt;Node18</title>
<path fill="none" stroke="midnightblue" d="M793.2,-280.08C790.09,-272.77 785.58,-262.18 781.71,-253.1"/>
<polygon fill="midnightblue" stroke="midnightblue" points="784.87,-251.58 777.73,-243.75 778.43,-254.32 784.87,-251.58"/>
</g>
<!-- Node19 -->
<g id="node19" class="node">
<title>Node19</title>
<g id="a_node19"><a xlink:title=" ">
<polygon fill="white" stroke="#bfbfbf" points="848.5,-224.5 848.5,-243.5 903.5,-243.5 903.5,-224.5 848.5,-224.5"/>
<text text-anchor="middle" x="876" y="-231.5" font-family="Helvetica,sans-Serif" font-size="10.00">tmap.tcc</text>
</a>
</g>
</g>
<!-- Node17&#45;&gt;Node19 -->
<g id="edge34" class="edge">
<title>Node17&#45;&gt;Node19</title>
<path fill="none" stroke="midnightblue" d="M809.69,-280.32C821.9,-271.98 840.58,-259.21 855,-249.35"/>
<polygon fill="midnightblue" stroke="midnightblue" points="857.06,-252.19 863.34,-243.65 853.11,-246.41 857.06,-252.19"/>
</g>
<!-- Node20&#45;&gt;Node3 -->
<g id="edge39" class="edge">
<title>Node20&#45;&gt;Node3</title>
<path fill="none" stroke="midnightblue" d="M333.36,-224.28C302.87,-209.21 241.93,-175.69 204,-132 191.97,-118.14 182.98,-99.12 177.44,-85.24"/>
<polygon fill="midnightblue" stroke="midnightblue" points="180.69,-83.92 173.89,-75.79 174.14,-86.39 180.69,-83.92"/>
</g>
<!-- Node20&#45;&gt;Node4 -->
<g id="edge36" class="edge">
<title>Node20&#45;&gt;Node4</title>
<path fill="none" stroke="midnightblue" d="M346.55,-224.08C341.99,-216.61 335.33,-205.72 329.71,-196.52"/>
<polygon fill="midnightblue" stroke="midnightblue" points="332.55,-194.46 324.35,-187.75 326.58,-198.11 332.55,-194.46"/>
</g>
<!-- Node20&#45;&gt;Node10 -->
<g id="edge40" class="edge">
<title>Node20&#45;&gt;Node10</title>
<path fill="none" stroke="midnightblue" d="M354.31,-224.08C361.08,-197.95 380.96,-121.21 390.19,-85.58"/>
<polygon fill="midnightblue" stroke="midnightblue" points="393.66,-86.13 392.78,-75.57 386.88,-84.37 393.66,-86.13"/>
</g>
<!-- Node20&#45;&gt;Node11 -->
<g id="edge38" class="edge">
<title>Node20&#45;&gt;Node11</title>
<path fill="none" stroke="midnightblue" d="M384.81,-224.8C421.98,-215.5 482.76,-200.31 524.03,-189.99"/>
<polygon fill="midnightblue" stroke="midnightblue" points="524.96,-193.37 533.81,-187.55 523.26,-186.58 524.96,-193.37"/>
</g>
<!-- Node20&#45;&gt;Node12 -->
<g id="edge37" class="edge">
<title>Node20&#45;&gt;Node12</title>
<path fill="none" stroke="midnightblue" d="M384.83,-233.56C437.33,-233.16 542.18,-227 620,-188 642.7,-176.62 662.91,-155.09 675.28,-139.93"/>
<polygon fill="midnightblue" stroke="midnightblue" points="678.19,-141.89 681.62,-131.87 672.69,-137.57 678.19,-141.89"/>
</g>
<!-- Node22&#45;&gt;Node3 -->
<g id="edge50" class="edge">
<title>Node22&#45;&gt;Node3</title>
<path fill="none" stroke="midnightblue" d="M448.7,-281.47C403.08,-270.38 322.38,-250.29 310,-244 244.09,-210.5 222.72,-196.73 187,-132 179.02,-117.53 174.96,-99.08 172.94,-85.54"/>
<polygon fill="midnightblue" stroke="midnightblue" points="176.4,-85 171.68,-75.51 169.46,-85.87 176.4,-85"/>
</g>
<!-- Node22&#45;&gt;Node20 -->
<g id="edge44" class="edge">
<title>Node22&#45;&gt;Node20</title>
<path fill="none" stroke="midnightblue" d="M459.72,-280.44C438.65,-271.56 405.48,-257.56 381.51,-247.45"/>
<polygon fill="midnightblue" stroke="midnightblue" points="382.76,-244.18 372.19,-243.52 380.04,-250.63 382.76,-244.18"/>
</g>
<!-- Node23 -->
<g id="node23" class="node">
<title>Node23</title>
<g id="a_node23"><a xlink:href="mp4coverart_8h.html" target="_top" xlink:title=" ">
<polygon fill="white" stroke="black" points="705.5,-168.5 705.5,-187.5 784.5,-187.5 784.5,-168.5 705.5,-168.5"/>
<text text-anchor="middle" x="745" y="-175.5" font-family="Helvetica,sans-Serif" font-size="10.00">mp4coverart.h</text>
</a>
</g>
</g>
<!-- Node22&#45;&gt;Node23 -->
<g id="edge45" class="edge">
<title>Node22&#45;&gt;Node23</title>
<path fill="none" stroke="midnightblue" d="M511.15,-284.38C546.7,-278.33 605.99,-265.83 653,-244 681.2,-230.9 709.86,-209 727.53,-194.29"/>
<polygon fill="midnightblue" stroke="midnightblue" points="729.91,-196.85 735.27,-187.71 725.38,-191.52 729.91,-196.85"/>
</g>
<!-- Node23&#45;&gt;Node3 -->
<g id="edge48" class="edge">
<title>Node23&#45;&gt;Node3</title>
<path fill="none" stroke="midnightblue" d="M723.26,-168.48C686.65,-154.49 610.11,-126.72 543,-112 429.44,-87.1 293.14,-75.03 221.2,-70.02"/>
<polygon fill="midnightblue" stroke="midnightblue" points="221.27,-66.52 211.06,-69.33 220.8,-73.5 221.27,-66.52"/>
</g>
<!-- Node23&#45;&gt;Node8 -->
<g id="edge47" class="edge">
<title>Node23&#45;&gt;Node8</title>
<path fill="none" stroke="midnightblue" d="M705.86,-168.44C662.01,-158.86 590.99,-143.33 544.38,-133.14"/>
<polygon fill="midnightblue" stroke="midnightblue" points="545.06,-129.7 534.54,-130.99 543.56,-136.54 545.06,-129.7"/>
</g>
<!-- Node23&#45;&gt;Node12 -->
<g id="edge46" class="edge">
<title>Node23&#45;&gt;Node12</title>
<path fill="none" stroke="midnightblue" d="M735.84,-168.32C727.5,-160.42 714.97,-148.55 704.82,-138.94"/>
<polygon fill="midnightblue" stroke="midnightblue" points="706.99,-136.17 697.32,-131.83 702.18,-141.25 706.99,-136.17"/>
</g>
<!-- Node23&#45;&gt;Node21 -->
<g id="edge49" class="edge">
<title>Node23&#45;&gt;Node21</title>
<path fill="none" stroke="midnightblue" d="M747.31,-168.08C749.17,-160.93 751.84,-150.64 754.15,-141.69"/>
<polygon fill="midnightblue" stroke="midnightblue" points="757.61,-142.31 756.73,-131.75 750.83,-140.55 757.61,-142.31"/>
</g>
</g>
</svg>
