<?xml version="1.0" encoding="UTF-8" standalone="no"?>
<!DOCTYPE svg PUBLIC "-//W3C//DTD SVG 1.1//EN"
 "http://www.w3.org/Graphics/SVG/1.1/DTD/svg11.dtd">
<!-- Generated by graphviz version 2.43.0 (0)
 -->
<!-- Title: mpcfile.h Pages: 1 -->
<svg width="935pt" height="364pt"
 viewBox="0.00 0.00 935.00 364.00" xmlns="http://www.w3.org/2000/svg" xmlns:xlink="http://www.w3.org/1999/xlink">
<g id="graph0" class="graph" transform="scale(1 1) rotate(0) translate(4 360)">
<title>mpcfile.h</title>
<polygon fill="white" stroke="transparent" points="-4,4 -4,-360 931,-360 931,4 -4,4"/>
<!-- Node1 -->
<g id="node1" class="node">
<title>Node1</title>
<g id="a_node1"><a xlink:title=" ">
<polygon fill="#bfbfbf" stroke="black" points="208,-336.5 208,-355.5 270,-355.5 270,-336.5 208,-336.5"/>
<text text-anchor="middle" x="239" y="-343.5" font-family="Helvetica,sans-Serif" font-size="10.00">mpcfile.h</text>
</a>
</g>
</g>
<!-- Node2 -->
<g id="node2" class="node">
<title>Node2</title>
<g id="a_node2"><a xlink:href="tfile_8h.html" target="_top" xlink:title=" ">
<polygon fill="white" stroke="black" points="192,-280.5 192,-299.5 236,-299.5 236,-280.5 192,-280.5"/>
<text text-anchor="middle" x="214" y="-287.5" font-family="Helvetica,sans-Serif" font-size="10.00">tfile.h</text>
</a>
</g>
</g>
<!-- Node1&#45;&gt;Node2 -->
<g id="edge1" class="edge">
<title>Node1&#45;&gt;Node2</title>
<path fill="none" stroke="midnightblue" d="M234.87,-336.08C231.49,-328.77 226.58,-318.18 222.38,-309.1"/>
<polygon fill="midnightblue" stroke="midnightblue" points="225.43,-307.36 218.05,-299.75 219.08,-310.3 225.43,-307.36"/>
</g>
<!-- Node7 -->
<g id="node7" class="node">
<title>Node7</title>
<g id="a_node7"><a xlink:href="taglib__export_8h.html" target="_top" xlink:title=" ">
<polygon fill="white" stroke="black" points="209,-56.5 209,-75.5 299,-75.5 299,-56.5 209,-56.5"/>
<text text-anchor="middle" x="254" y="-63.5" font-family="Helvetica,sans-Serif" font-size="10.00">taglib_export.h</text>
</a>
</g>
</g>
<!-- Node1&#45;&gt;Node7 -->
<g id="edge35" class="edge">
<title>Node1&#45;&gt;Node7</title>
<path fill="none" stroke="midnightblue" d="M221.28,-336.4C176.62,-313.39 64.75,-246.8 90,-168 99.33,-138.87 105.64,-130.49 130,-112 151.15,-95.95 178.57,-85.2 202.25,-78.25"/>
<polygon fill="midnightblue" stroke="midnightblue" points="203.45,-81.55 212.14,-75.5 201.57,-74.81 203.45,-81.55"/>
</g>
<!-- Node11 -->
<g id="node11" class="node">
<title>Node11</title>
<g id="a_node11"><a xlink:href="tag_8h.html" target="_top" xlink:title=" ">
<polygon fill="white" stroke="black" points="502.5,-224.5 502.5,-243.5 543.5,-243.5 543.5,-224.5 502.5,-224.5"/>
<text text-anchor="middle" x="523" y="-231.5" font-family="Helvetica,sans-Serif" font-size="10.00">tag.h</text>
</a>
</g>
</g>
<!-- Node1&#45;&gt;Node11 -->
<g id="edge36" class="edge">
<title>Node1&#45;&gt;Node11</title>
<path fill="none" stroke="midnightblue" d="M261.29,-336.37C311.86,-316.78 435.38,-268.94 492.77,-246.71"/>
<polygon fill="midnightblue" stroke="midnightblue" points="494.3,-249.87 502.36,-242.99 491.77,-243.34 494.3,-249.87"/>
</g>
<!-- Node23 -->
<g id="node23" class="node">
<title>Node23</title>
<g id="a_node23"><a xlink:href="mpcproperties_8h.html" target="_top" xlink:title=" ">
<polygon fill="white" stroke="black" points="229,-168.5 229,-187.5 325,-187.5 325,-168.5 229,-168.5"/>
<text text-anchor="middle" x="277" y="-175.5" font-family="Helvetica,sans-Serif" font-size="10.00">mpcproperties.h</text>
</a>
</g>
</g>
<!-- Node1&#45;&gt;Node23 -->
<g id="edge37" class="edge">
<title>Node1&#45;&gt;Node23</title>
<path fill="none" stroke="midnightblue" d="M241.04,-336.08C247.02,-309.95 264.59,-233.21 272.75,-197.58"/>
<polygon fill="midnightblue" stroke="midnightblue" points="276.22,-198.1 275.04,-187.57 269.4,-196.53 276.22,-198.1"/>
</g>
<!-- Node3 -->
<g id="node3" class="node">
<title>Node3</title>
<g id="a_node3"><a xlink:href="tbytevector_8h.html" target="_top" xlink:title=" ">
<polygon fill="white" stroke="black" points="342.5,-112.5 342.5,-131.5 423.5,-131.5 423.5,-112.5 342.5,-112.5"/>
<text text-anchor="middle" x="383" y="-119.5" font-family="Helvetica,sans-Serif" font-size="10.00">tbytevector.h</text>
</a>
</g>
</g>
<!-- Node2&#45;&gt;Node3 -->
<g id="edge2" class="edge">
<title>Node2&#45;&gt;Node3</title>
<path fill="none" stroke="midnightblue" d="M226.01,-280.33C248.52,-263.79 298.04,-225.95 334,-188 348.22,-173 362.18,-153.92 371.54,-140.32"/>
<polygon fill="midnightblue" stroke="midnightblue" points="374.54,-142.15 377.23,-131.9 368.74,-138.23 374.54,-142.15"/>
</g>
<!-- Node2&#45;&gt;Node7 -->
<g id="edge12" class="edge">
<title>Node2&#45;&gt;Node7</title>
<path fill="none" stroke="midnightblue" d="M211.18,-280.42C203,-254 181.4,-171.96 207,-112 212.15,-99.95 222.28,-89.58 231.83,-81.84"/>
<polygon fill="midnightblue" stroke="midnightblue" points="234.04,-84.55 239.92,-75.74 229.83,-78.96 234.04,-84.55"/>
</g>
<!-- Node8 -->
<g id="node8" class="node">
<title>Node8</title>
<g id="a_node8"><a xlink:href="tiostream_8h.html" target="_top" xlink:title=" ">
<polygon fill="white" stroke="black" points="99.5,-168.5 99.5,-187.5 172.5,-187.5 172.5,-168.5 99.5,-168.5"/>
<text text-anchor="middle" x="136" y="-175.5" font-family="Helvetica,sans-Serif" font-size="10.00">tiostream.h</text>
</a>
</g>
</g>
<!-- Node2&#45;&gt;Node8 -->
<g id="edge7" class="edge">
<title>Node2&#45;&gt;Node8</title>
<path fill="none" stroke="midnightblue" d="M207.88,-280.37C195.01,-262.22 164.93,-219.8 148.05,-195.99"/>
<polygon fill="midnightblue" stroke="midnightblue" points="150.73,-193.72 142.09,-187.59 145.02,-197.77 150.73,-193.72"/>
</g>
<!-- Node9 -->
<g id="node9" class="node">
<title>Node9</title>
<g id="a_node9"><a xlink:href="taglib_8h.html" target="_top" xlink:title=" ">
<polygon fill="white" stroke="black" points="9.5,-56.5 9.5,-75.5 62.5,-75.5 62.5,-56.5 9.5,-56.5"/>
<text text-anchor="middle" x="36" y="-63.5" font-family="Helvetica,sans-Serif" font-size="10.00">taglib.h</text>
</a>
</g>
</g>
<!-- Node2&#45;&gt;Node9 -->
<g id="edge13" class="edge">
<title>Node2&#45;&gt;Node9</title>
<path fill="none" stroke="midnightblue" d="M199.52,-280.43C174.29,-264.86 121.9,-229.66 90,-188 65.27,-155.7 48.94,-110.29 41.2,-85.29"/>
<polygon fill="midnightblue" stroke="midnightblue" points="44.54,-84.23 38.33,-75.64 37.83,-86.23 44.54,-84.23"/>
</g>
<!-- Node2&#45;&gt;Node11 -->
<g id="edge14" class="edge">
<title>Node2&#45;&gt;Node11</title>
<path fill="none" stroke="midnightblue" d="M236.22,-285.12C290.51,-275.63 429.97,-251.26 492.21,-240.38"/>
<polygon fill="midnightblue" stroke="midnightblue" points="492.96,-243.8 502.2,-238.63 491.75,-236.91 492.96,-243.8"/>
</g>
<!-- Node4 -->
<g id="node4" class="node">
<title>Node4</title>
<g id="a_node4"><a xlink:title=" ">
<polygon fill="white" stroke="#bfbfbf" points="449,-56.5 449,-75.5 507,-75.5 507,-56.5 449,-56.5"/>
<text text-anchor="middle" x="478" y="-63.5" font-family="Helvetica,sans-Serif" font-size="10.00">memory</text>
</a>
</g>
</g>
<!-- Node3&#45;&gt;Node4 -->
<g id="edge3" class="edge">
<title>Node3&#45;&gt;Node4</title>
<path fill="none" stroke="midnightblue" d="M398.26,-112.32C413.22,-103.82 436.25,-90.73 453.73,-80.8"/>
<polygon fill="midnightblue" stroke="midnightblue" points="455.81,-83.64 462.77,-75.65 452.35,-77.55 455.81,-83.64"/>
</g>
<!-- Node5 -->
<g id="node5" class="node">
<title>Node5</title>
<g id="a_node5"><a xlink:title=" ">
<polygon fill="white" stroke="#bfbfbf" points="317.5,-56.5 317.5,-75.5 364.5,-75.5 364.5,-56.5 317.5,-56.5"/>
<text text-anchor="middle" x="341" y="-63.5" font-family="Helvetica,sans-Serif" font-size="10.00">vector</text>
</a>
</g>
</g>
<!-- Node3&#45;&gt;Node5 -->
<g id="edge4" class="edge">
<title>Node3&#45;&gt;Node5</title>
<path fill="none" stroke="midnightblue" d="M376.06,-112.08C370.07,-104.38 361.25,-93.03 353.95,-83.65"/>
<polygon fill="midnightblue" stroke="midnightblue" points="356.71,-81.5 347.81,-75.75 351.18,-85.79 356.71,-81.5"/>
</g>
<!-- Node6 -->
<g id="node6" class="node">
<title>Node6</title>
<g id="a_node6"><a xlink:title=" ">
<polygon fill="white" stroke="#bfbfbf" points="383,-56.5 383,-75.5 431,-75.5 431,-56.5 383,-56.5"/>
<text text-anchor="middle" x="407" y="-63.5" font-family="Helvetica,sans-Serif" font-size="10.00">iosfwd</text>
</a>
</g>
</g>
<!-- Node3&#45;&gt;Node6 -->
<g id="edge5" class="edge">
<title>Node3&#45;&gt;Node6</title>
<path fill="none" stroke="midnightblue" d="M386.96,-112.08C390.21,-104.77 394.92,-94.18 398.95,-85.1"/>
<polygon fill="midnightblue" stroke="midnightblue" points="402.25,-86.31 403.11,-75.75 395.85,-83.47 402.25,-86.31"/>
</g>
<!-- Node3&#45;&gt;Node7 -->
<g id="edge6" class="edge">
<title>Node3&#45;&gt;Node7</title>
<path fill="none" stroke="midnightblue" d="M362.56,-112.44C341.33,-103.56 307.9,-89.56 283.75,-79.45"/>
<polygon fill="midnightblue" stroke="midnightblue" points="284.92,-76.15 274.34,-75.52 282.22,-82.61 284.92,-76.15"/>
</g>
<!-- Node8&#45;&gt;Node3 -->
<g id="edge8" class="edge">
<title>Node8&#45;&gt;Node3</title>
<path fill="none" stroke="midnightblue" d="M172.71,-168.97C215.53,-159.61 286.49,-144.1 333.99,-133.71"/>
<polygon fill="midnightblue" stroke="midnightblue" points="335.02,-137.07 344.05,-131.52 333.53,-130.23 335.02,-137.07"/>
</g>
<!-- Node8&#45;&gt;Node7 -->
<g id="edge9" class="edge">
<title>Node8&#45;&gt;Node7</title>
<path fill="none" stroke="midnightblue" d="M134.2,-168.44C131.89,-154.98 129.54,-128.72 142,-112 155.62,-93.72 177.89,-82.85 198.99,-76.4"/>
<polygon fill="midnightblue" stroke="midnightblue" points="200.19,-79.69 208.89,-73.65 198.32,-72.95 200.19,-79.69"/>
</g>
<!-- Node8&#45;&gt;Node9 -->
<g id="edge10" class="edge">
<title>Node8&#45;&gt;Node9</title>
<path fill="none" stroke="midnightblue" d="M128.15,-168.37C111.43,-149.97 72.06,-106.67 50.59,-83.05"/>
<polygon fill="midnightblue" stroke="midnightblue" points="53.13,-80.64 43.81,-75.59 47.95,-85.35 53.13,-80.64"/>
</g>
<!-- Node10 -->
<g id="node10" class="node">
<title>Node10</title>
<g id="a_node10"><a xlink:title=" ">
<polygon fill="white" stroke="#bfbfbf" points="0,-0.5 0,-19.5 72,-19.5 72,-0.5 0,-0.5"/>
<text text-anchor="middle" x="36" y="-7.5" font-family="Helvetica,sans-Serif" font-size="10.00">sys/types.h</text>
</a>
</g>
</g>
<!-- Node9&#45;&gt;Node10 -->
<g id="edge11" class="edge">
<title>Node9&#45;&gt;Node10</title>
<path fill="none" stroke="midnightblue" d="M36,-56.08C36,-49.01 36,-38.86 36,-29.99"/>
<polygon fill="midnightblue" stroke="midnightblue" points="39.5,-29.75 36,-19.75 32.5,-29.75 39.5,-29.75"/>
</g>
<!-- Node11&#45;&gt;Node7 -->
<g id="edge15" class="edge">
<title>Node11&#45;&gt;Node7</title>
<path fill="none" stroke="midnightblue" d="M525.35,-224.29C530.73,-202.26 541.3,-143.8 512,-112 510.28,-110.13 384.72,-88.86 309.42,-76.24"/>
<polygon fill="midnightblue" stroke="midnightblue" points="309.58,-72.72 299.14,-74.52 308.43,-79.62 309.58,-72.72"/>
</g>
<!-- Node12 -->
<g id="node12" class="node">
<title>Node12</title>
<g id="a_node12"><a xlink:href="tstring_8h.html" target="_top" xlink:title=" ">
<polygon fill="white" stroke="black" points="450.5,-168.5 450.5,-187.5 507.5,-187.5 507.5,-168.5 450.5,-168.5"/>
<text text-anchor="middle" x="479" y="-175.5" font-family="Helvetica,sans-Serif" font-size="10.00">tstring.h</text>
</a>
</g>
</g>
<!-- Node11&#45;&gt;Node12 -->
<g id="edge16" class="edge">
<title>Node11&#45;&gt;Node12</title>
<path fill="none" stroke="midnightblue" d="M515.73,-224.08C509.46,-216.38 500.21,-205.03 492.57,-195.65"/>
<polygon fill="midnightblue" stroke="midnightblue" points="495.16,-193.29 486.13,-187.75 489.73,-197.71 495.16,-193.29"/>
</g>
<!-- Node14 -->
<g id="node14" class="node">
<title>Node14</title>
<g id="a_node14"><a xlink:href="tlist_8h.html" target="_top" xlink:title=" ">
<polygon fill="white" stroke="black" points="734,-112.5 734,-131.5 778,-131.5 778,-112.5 734,-112.5"/>
<text text-anchor="middle" x="756" y="-119.5" font-family="Helvetica,sans-Serif" font-size="10.00">tlist.h</text>
</a>
</g>
</g>
<!-- Node11&#45;&gt;Node14 -->
<g id="edge20" class="edge">
<title>Node11&#45;&gt;Node14</title>
<path fill="none" stroke="midnightblue" d="M543.68,-228.97C572.77,-222.79 626.91,-209.4 669,-188 695.33,-174.61 722.02,-153.26 738.77,-138.71"/>
<polygon fill="midnightblue" stroke="midnightblue" points="741.4,-141.05 746.56,-131.8 736.76,-135.82 741.4,-141.05"/>
</g>
<!-- Node18 -->
<g id="node18" class="node">
<title>Node18</title>
<g id="a_node18"><a xlink:href="tvariant_8h.html" target="_top" xlink:title=" ">
<polygon fill="white" stroke="black" points="596,-168.5 596,-187.5 660,-187.5 660,-168.5 596,-168.5"/>
<text text-anchor="middle" x="628" y="-175.5" font-family="Helvetica,sans-Serif" font-size="10.00">tvariant.h</text>
</a>
</g>
</g>
<!-- Node11&#45;&gt;Node18 -->
<g id="edge25" class="edge">
<title>Node11&#45;&gt;Node18</title>
<path fill="none" stroke="midnightblue" d="M539.87,-224.32C556.71,-215.66 582.81,-202.24 602.24,-192.25"/>
<polygon fill="midnightblue" stroke="midnightblue" points="603.88,-195.34 611.17,-187.65 600.68,-189.12 603.88,-195.34"/>
</g>
<!-- Node12&#45;&gt;Node3 -->
<g id="edge18" class="edge">
<title>Node12&#45;&gt;Node3</title>
<path fill="none" stroke="midnightblue" d="M463.58,-168.32C448.46,-159.82 425.18,-146.73 407.53,-136.8"/>
<polygon fill="midnightblue" stroke="midnightblue" points="408.82,-133.51 398.39,-131.65 405.39,-139.61 408.82,-133.51"/>
</g>
<!-- Node12&#45;&gt;Node7 -->
<g id="edge19" class="edge">
<title>Node12&#45;&gt;Node7</title>
<path fill="none" stroke="midnightblue" d="M485.33,-168.37C494.42,-154.83 508.66,-128.45 495,-112 492.01,-108.4 379.41,-88.51 309.2,-76.41"/>
<polygon fill="midnightblue" stroke="midnightblue" points="309.61,-72.93 299.16,-74.69 308.43,-79.83 309.61,-72.93"/>
</g>
<!-- Node13 -->
<g id="node13" class="node">
<title>Node13</title>
<g id="a_node13"><a xlink:title=" ">
<polygon fill="white" stroke="#bfbfbf" points="442,-112.5 442,-131.5 486,-131.5 486,-112.5 442,-112.5"/>
<text text-anchor="middle" x="464" y="-119.5" font-family="Helvetica,sans-Serif" font-size="10.00">string</text>
</a>
</g>
</g>
<!-- Node12&#45;&gt;Node13 -->
<g id="edge17" class="edge">
<title>Node12&#45;&gt;Node13</title>
<path fill="none" stroke="midnightblue" d="M476.52,-168.08C474.51,-160.85 471.61,-150.41 469.11,-141.4"/>
<polygon fill="midnightblue" stroke="midnightblue" points="472.48,-140.45 466.43,-131.75 465.74,-142.32 472.48,-140.45"/>
</g>
<!-- Node14&#45;&gt;Node4 -->
<g id="edge23" class="edge">
<title>Node14&#45;&gt;Node4</title>
<path fill="none" stroke="midnightblue" d="M733.61,-115.78C727.88,-114.5 721.72,-113.16 716,-112 630.59,-94.71 606.12,-94.41 517.01,-76.12"/>
<polygon fill="midnightblue" stroke="midnightblue" points="517.51,-72.64 507.01,-74.04 516.09,-79.5 517.51,-72.64"/>
</g>
<!-- Node15 -->
<g id="node15" class="node">
<title>Node15</title>
<g id="a_node15"><a xlink:title=" ">
<polygon fill="white" stroke="#bfbfbf" points="895,-56.5 895,-75.5 927,-75.5 927,-56.5 895,-56.5"/>
<text text-anchor="middle" x="911" y="-63.5" font-family="Helvetica,sans-Serif" font-size="10.00">list</text>
</a>
</g>
</g>
<!-- Node14&#45;&gt;Node15 -->
<g id="edge21" class="edge">
<title>Node14&#45;&gt;Node15</title>
<path fill="none" stroke="midnightblue" d="M778.11,-113.44C802.23,-105.17 842.21,-91.41 885.33,-76.21"/>
<polygon fill="midnightblue" stroke="midnightblue" points="886.61,-79.47 894.87,-72.84 884.28,-72.87 886.61,-79.47"/>
</g>
<!-- Node16 -->
<g id="node16" class="node">
<title>Node16</title>
<g id="a_node16"><a xlink:title=" ">
<polygon fill="white" stroke="#bfbfbf" points="722.5,-56.5 722.5,-75.5 805.5,-75.5 805.5,-56.5 722.5,-56.5"/>
<text text-anchor="middle" x="764" y="-63.5" font-family="Helvetica,sans-Serif" font-size="10.00">initializer_list</text>
</a>
</g>
</g>
<!-- Node14&#45;&gt;Node16 -->
<g id="edge22" class="edge">
<title>Node14&#45;&gt;Node16</title>
<path fill="none" stroke="midnightblue" d="M757.32,-112.08C758.38,-104.93 759.91,-94.64 761.23,-85.69"/>
<polygon fill="midnightblue" stroke="midnightblue" points="764.7,-86.16 762.7,-75.75 757.78,-85.13 764.7,-86.16"/>
</g>
<!-- Node17 -->
<g id="node17" class="node">
<title>Node17</title>
<g id="a_node17"><a xlink:title=" ">
<polygon fill="white" stroke="#bfbfbf" points="823.5,-56.5 823.5,-75.5 876.5,-75.5 876.5,-56.5 823.5,-56.5"/>
<text text-anchor="middle" x="850" y="-63.5" font-family="Helvetica,sans-Serif" font-size="10.00">tlist.tcc</text>
</a>
</g>
</g>
<!-- Node14&#45;&gt;Node17 -->
<g id="edge24" class="edge">
<title>Node14&#45;&gt;Node17</title>
<path fill="none" stroke="midnightblue" d="M771.1,-112.32C785.9,-103.82 808.69,-90.73 825.98,-80.8"/>
<polygon fill="midnightblue" stroke="midnightblue" points="828.01,-83.67 834.93,-75.65 824.52,-77.6 828.01,-83.67"/>
</g>
<!-- Node18&#45;&gt;Node6 -->
<g id="edge26" class="edge">
<title>Node18&#45;&gt;Node6</title>
<path fill="none" stroke="midnightblue" d="M627.38,-168.37C625.9,-154.35 620.87,-126.7 604,-112 550.04,-65 515.39,-91.43 440.9,-75.95"/>
<polygon fill="midnightblue" stroke="midnightblue" points="441.64,-72.53 431.11,-73.73 440.09,-79.36 441.64,-72.53"/>
</g>
<!-- Node18&#45;&gt;Node7 -->
<g id="edge34" class="edge">
<title>Node18&#45;&gt;Node7</title>
<path fill="none" stroke="midnightblue" d="M622.42,-168.05C612.84,-153.55 591.81,-125.24 566,-112 465.79,-60.62 424.71,-91.71 309,-76.04"/>
<polygon fill="midnightblue" stroke="midnightblue" points="309.46,-72.57 299.07,-74.6 308.46,-79.5 309.46,-72.57"/>
</g>
<!-- Node18&#45;&gt;Node14 -->
<g id="edge27" class="edge">
<title>Node18&#45;&gt;Node14</title>
<path fill="none" stroke="midnightblue" d="M648.28,-168.44C669.35,-159.56 702.52,-145.56 726.49,-135.45"/>
<polygon fill="midnightblue" stroke="midnightblue" points="727.96,-138.63 735.81,-131.52 725.24,-132.18 727.96,-138.63"/>
</g>
<!-- Node19 -->
<g id="node19" class="node">
<title>Node19</title>
<g id="a_node19"><a xlink:href="tmap_8h.html" target="_top" xlink:title=" ">
<polygon fill="white" stroke="black" points="656.5,-112.5 656.5,-131.5 707.5,-131.5 707.5,-112.5 656.5,-112.5"/>
<text text-anchor="middle" x="682" y="-119.5" font-family="Helvetica,sans-Serif" font-size="10.00">tmap.h</text>
</a>
</g>
</g>
<!-- Node18&#45;&gt;Node19 -->
<g id="edge28" class="edge">
<title>Node18&#45;&gt;Node19</title>
<path fill="none" stroke="midnightblue" d="M636.92,-168.08C644.78,-160.22 656.43,-148.57 665.92,-139.08"/>
<polygon fill="midnightblue" stroke="midnightblue" points="668.65,-141.3 673.25,-131.75 663.7,-136.35 668.65,-141.3"/>
</g>
<!-- Node19&#45;&gt;Node4 -->
<g id="edge30" class="edge">
<title>Node19&#45;&gt;Node4</title>
<path fill="none" stroke="midnightblue" d="M656.16,-114.16C621.08,-104.87 558.05,-88.19 517.14,-77.36"/>
<polygon fill="midnightblue" stroke="midnightblue" points="517.81,-73.92 507.25,-74.74 516.02,-80.68 517.81,-73.92"/>
</g>
<!-- Node19&#45;&gt;Node16 -->
<g id="edge31" class="edge">
<title>Node19&#45;&gt;Node16</title>
<path fill="none" stroke="midnightblue" d="M695.17,-112.32C707.85,-103.98 727.23,-91.21 742.21,-81.35"/>
<polygon fill="midnightblue" stroke="midnightblue" points="744.43,-84.08 750.86,-75.65 740.58,-78.23 744.43,-84.08"/>
</g>
<!-- Node20 -->
<g id="node20" class="node">
<title>Node20</title>
<g id="a_node20"><a xlink:title=" ">
<polygon fill="white" stroke="#bfbfbf" points="603,-56.5 603,-75.5 641,-75.5 641,-56.5 603,-56.5"/>
<text text-anchor="middle" x="622" y="-63.5" font-family="Helvetica,sans-Serif" font-size="10.00">map</text>
</a>
</g>
</g>
<!-- Node19&#45;&gt;Node20 -->
<g id="edge29" class="edge">
<title>Node19&#45;&gt;Node20</title>
<path fill="none" stroke="midnightblue" d="M672.36,-112.32C663.49,-104.34 650.13,-92.31 639.39,-82.65"/>
<polygon fill="midnightblue" stroke="midnightblue" points="641.59,-79.92 631.82,-75.83 636.91,-85.13 641.59,-79.92"/>
</g>
<!-- Node21 -->
<g id="node21" class="node">
<title>Node21</title>
<g id="a_node21"><a xlink:title=" ">
<polygon fill="white" stroke="#bfbfbf" points="659.5,-56.5 659.5,-75.5 704.5,-75.5 704.5,-56.5 659.5,-56.5"/>
<text text-anchor="middle" x="682" y="-63.5" font-family="Helvetica,sans-Serif" font-size="10.00">utility</text>
</a>
</g>
</g>
<!-- Node19&#45;&gt;Node21 -->
<g id="edge32" class="edge">
<title>Node19&#45;&gt;Node21</title>
<path fill="none" stroke="midnightblue" d="M682,-112.08C682,-105.01 682,-94.86 682,-85.99"/>
<polygon fill="midnightblue" stroke="midnightblue" points="685.5,-85.75 682,-75.75 678.5,-85.75 685.5,-85.75"/>
</g>
<!-- Node22 -->
<g id="node22" class="node">
<title>Node22</title>
<g id="a_node22"><a xlink:title=" ">
<polygon fill="white" stroke="#bfbfbf" points="525.5,-56.5 525.5,-75.5 584.5,-75.5 584.5,-56.5 525.5,-56.5"/>
<text text-anchor="middle" x="555" y="-63.5" font-family="Helvetica,sans-Serif" font-size="10.00">tmap.tcc</text>
</a>
</g>
</g>
<!-- Node19&#45;&gt;Node22 -->
<g id="edge33" class="edge">
<title>Node19&#45;&gt;Node22</title>
<path fill="none" stroke="midnightblue" d="M661.88,-112.44C640.98,-103.56 608.07,-89.56 584.28,-79.45"/>
<polygon fill="midnightblue" stroke="midnightblue" points="585.6,-76.21 575.03,-75.52 582.86,-82.65 585.6,-76.21"/>
</g>
<!-- Node23&#45;&gt;Node3 -->
<g id="edge38" class="edge">
<title>Node23&#45;&gt;Node3</title>
<path fill="none" stroke="midnightblue" d="M294.03,-168.32C311.03,-159.66 337.38,-146.24 356.99,-136.25"/>
<polygon fill="midnightblue" stroke="midnightblue" points="358.69,-139.31 366.01,-131.65 355.51,-133.08 358.69,-139.31"/>
</g>
<!-- Node23&#45;&gt;Node7 -->
<g id="edge39" class="edge">
<title>Node23&#45;&gt;Node7</title>
<path fill="none" stroke="midnightblue" d="M255.52,-168.36C240.61,-161.09 221.89,-149.12 213,-132 203.76,-114.22 219.48,-94.93 234.04,-82.02"/>
<polygon fill="midnightblue" stroke="midnightblue" points="236.38,-84.63 241.85,-75.56 231.92,-79.24 236.38,-84.63"/>
</g>
<!-- Node24 -->
<g id="node24" class="node">
<title>Node24</title>
<g id="a_node24"><a xlink:href="audioproperties_8h.html" target="_top" xlink:title=" ">
<polygon fill="white" stroke="black" points="222,-112.5 222,-131.5 324,-131.5 324,-112.5 222,-112.5"/>
<text text-anchor="middle" x="273" y="-119.5" font-family="Helvetica,sans-Serif" font-size="10.00">audioproperties.h</text>
</a>
</g>
</g>
<!-- Node23&#45;&gt;Node24 -->
<g id="edge40" class="edge">
<title>Node23&#45;&gt;Node24</title>
<path fill="none" stroke="midnightblue" d="M276.34,-168.08C275.82,-161.01 275.06,-150.86 274.41,-141.99"/>
<polygon fill="midnightblue" stroke="midnightblue" points="277.88,-141.47 273.65,-131.75 270.9,-141.98 277.88,-141.47"/>
</g>
<!-- Node24&#45;&gt;Node4 -->
<g id="edge41" class="edge">
<title>Node24&#45;&gt;Node4</title>
<path fill="none" stroke="midnightblue" d="M305.48,-112.44C341.76,-102.89 400.44,-87.43 439.12,-77.24"/>
<polygon fill="midnightblue" stroke="midnightblue" points="440.21,-80.58 448.98,-74.64 438.42,-73.81 440.21,-80.58"/>
</g>
<!-- Node24&#45;&gt;Node7 -->
<g id="edge43" class="edge">
<title>Node24&#45;&gt;Node7</title>
<path fill="none" stroke="midnightblue" d="M269.86,-112.08C267.32,-104.85 263.64,-94.41 260.47,-85.4"/>
<polygon fill="midnightblue" stroke="midnightblue" points="263.7,-84.02 257.08,-75.75 257.1,-86.35 263.7,-84.02"/>
</g>
<!-- Node24&#45;&gt;Node9 -->
<g id="edge42" class="edge">
<title>Node24&#45;&gt;Node9</title>
<path fill="none" stroke="midnightblue" d="M235.45,-112.44C190.76,-102.26 116.67,-85.38 72.47,-75.31"/>
<polygon fill="midnightblue" stroke="midnightblue" points="73.24,-71.9 62.71,-73.09 71.69,-78.72 73.24,-71.9"/>
</g>
</g>
</svg>
