<?xml version="1.0" encoding="UTF-8" standalone="no"?>
<!DOCTYPE svg PUBLIC "-//W3C//DTD SVG 1.1//EN"
 "http://www.w3.org/Graphics/SVG/1.1/DTD/svg11.dtd">
<!-- Generated by graphviz version 2.43.0 (0)
 -->
<!-- Title: mpcfile.h Pages: 1 -->
<svg width="737pt" height="364pt"
 viewBox="0.00 0.00 737.04 364.00" xmlns="http://www.w3.org/2000/svg" xmlns:xlink="http://www.w3.org/1999/xlink">
<g id="graph0" class="graph" transform="scale(1 1) rotate(0) translate(4 360)">
<title>mpcfile.h</title>
<polygon fill="white" stroke="transparent" points="-4,4 -4,-360 733.04,-360 733.04,4 -4,4"/>
<!-- Node1 -->
<g id="node1" class="node">
<title>Node1</title>
<g id="a_node1"><a xlink:title=" ">
<polygon fill="#bfbfbf" stroke="black" points="161.65,-336.5 161.65,-355.5 223.65,-355.5 223.65,-336.5 161.65,-336.5"/>
<text text-anchor="middle" x="192.65" y="-343.5" font-family="Helvetica,sans-Serif" font-size="10.00">mpcfile.h</text>
</a>
</g>
</g>
<!-- Node2 -->
<g id="node2" class="node">
<title>Node2</title>
<g id="a_node2"><a xlink:href="taglib__export_8h.html" target="_top" xlink:title=" ">
<polygon fill="white" stroke="black" points="155.65,-56.5 155.65,-75.5 245.65,-75.5 245.65,-56.5 155.65,-56.5"/>
<text text-anchor="middle" x="200.65" y="-63.5" font-family="Helvetica,sans-Serif" font-size="10.00">taglib_export.h</text>
</a>
</g>
</g>
<!-- Node1&#45;&gt;Node2 -->
<g id="edge1" class="edge">
<title>Node1&#45;&gt;Node2</title>
<path fill="none" stroke="midnightblue" d="M185.83,-336.46C172.37,-318.69 143.65,-275.98 143.65,-235 143.65,-235 143.65,-235 143.65,-177 143.65,-140.3 168.97,-103.66 185.86,-83.3"/>
<polygon fill="midnightblue" stroke="midnightblue" points="188.6,-85.48 192.48,-75.62 183.3,-80.9 188.6,-85.48"/>
</g>
<!-- Node3 -->
<g id="node3" class="node">
<title>Node3</title>
<g id="a_node3"><a xlink:href="tfile_8h.html" target="_top" xlink:title=" ">
<polygon fill="white" stroke="black" points="286.65,-280.5 286.65,-299.5 330.65,-299.5 330.65,-280.5 286.65,-280.5"/>
<text text-anchor="middle" x="308.65" y="-287.5" font-family="Helvetica,sans-Serif" font-size="10.00">tfile.h</text>
</a>
</g>
</g>
<!-- Node1&#45;&gt;Node3 -->
<g id="edge2" class="edge">
<title>Node1&#45;&gt;Node3</title>
<path fill="none" stroke="midnightblue" d="M211.03,-336.44C229.86,-327.68 259.38,-313.94 281.03,-303.86"/>
<polygon fill="midnightblue" stroke="midnightblue" points="282.76,-306.91 290.35,-299.52 279.81,-300.56 282.76,-306.91"/>
</g>
<!-- Node7 -->
<g id="node7" class="node">
<title>Node7</title>
<g id="a_node7"><a xlink:href="tag_8h.html" target="_top" xlink:title=" ">
<polygon fill="white" stroke="black" points="172.15,-224.5 172.15,-243.5 213.15,-243.5 213.15,-224.5 172.15,-224.5"/>
<text text-anchor="middle" x="192.65" y="-231.5" font-family="Helvetica,sans-Serif" font-size="10.00">tag.h</text>
</a>
</g>
</g>
<!-- Node1&#45;&gt;Node7 -->
<g id="edge24" class="edge">
<title>Node1&#45;&gt;Node7</title>
<path fill="none" stroke="midnightblue" d="M192.65,-336.37C192.65,-318.62 192.65,-277.67 192.65,-253.6"/>
<polygon fill="midnightblue" stroke="midnightblue" points="196.15,-253.59 192.65,-243.59 189.15,-253.59 196.15,-253.59"/>
</g>
<!-- Node13 -->
<g id="node13" class="node">
<title>Node13</title>
<g id="a_node13"><a xlink:href="mpcproperties_8h.html" target="_top" xlink:title=" ">
<polygon fill="white" stroke="black" points="16.65,-168.5 16.65,-187.5 112.65,-187.5 112.65,-168.5 16.65,-168.5"/>
<text text-anchor="middle" x="64.65" y="-175.5" font-family="Helvetica,sans-Serif" font-size="10.00">mpcproperties.h</text>
</a>
</g>
</g>
<!-- Node1&#45;&gt;Node13 -->
<g id="edge25" class="edge">
<title>Node1&#45;&gt;Node13</title>
<path fill="none" stroke="midnightblue" d="M176.59,-336.35C162.82,-328.32 143.15,-315.34 129.65,-300 101.66,-268.2 81.22,-222.28 71.32,-197.14"/>
<polygon fill="midnightblue" stroke="midnightblue" points="74.57,-195.83 67.74,-187.74 68.03,-198.33 74.57,-195.83"/>
</g>
<!-- Node15 -->
<g id="node15" class="node">
<title>Node15</title>
<g id="a_node15"><a xlink:href="tlist_8h.html" target="_top" xlink:title=" ">
<polygon fill="white" stroke="black" points="637.65,-280.5 637.65,-299.5 681.65,-299.5 681.65,-280.5 637.65,-280.5"/>
<text text-anchor="middle" x="659.65" y="-287.5" font-family="Helvetica,sans-Serif" font-size="10.00">tlist.h</text>
</a>
</g>
</g>
<!-- Node1&#45;&gt;Node15 -->
<g id="edge29" class="edge">
<title>Node1&#45;&gt;Node15</title>
<path fill="none" stroke="midnightblue" d="M223.65,-341.42C308.13,-331.65 541.79,-304.63 627.55,-294.71"/>
<polygon fill="midnightblue" stroke="midnightblue" points="627.95,-298.19 637.49,-293.56 627.15,-291.23 627.95,-298.19"/>
</g>
<!-- Node3&#45;&gt;Node2 -->
<g id="edge3" class="edge">
<title>Node3&#45;&gt;Node2</title>
<path fill="none" stroke="midnightblue" d="M303.94,-280.44C294.48,-263.13 272.61,-222.69 255.65,-188 237.97,-151.87 218.87,-108.85 208.48,-85.06"/>
<polygon fill="midnightblue" stroke="midnightblue" points="211.55,-83.36 204.35,-75.59 205.13,-86.15 211.55,-83.36"/>
</g>
<!-- Node4 -->
<g id="node4" class="node">
<title>Node4</title>
<g id="a_node4"><a xlink:href="taglib_8h.html" target="_top" xlink:title=" ">
<polygon fill="white" stroke="black" points="503.15,-56.5 503.15,-75.5 556.15,-75.5 556.15,-56.5 503.15,-56.5"/>
<text text-anchor="middle" x="529.65" y="-63.5" font-family="Helvetica,sans-Serif" font-size="10.00">taglib.h</text>
</a>
</g>
</g>
<!-- Node3&#45;&gt;Node4 -->
<g id="edge4" class="edge">
<title>Node3&#45;&gt;Node4</title>
<path fill="none" stroke="midnightblue" d="M330.67,-282.44C380.03,-266.37 498.53,-219.78 541.65,-132 548.9,-117.23 544.26,-98.6 538.78,-85.08"/>
<polygon fill="midnightblue" stroke="midnightblue" points="541.92,-83.54 534.6,-75.88 535.55,-86.44 541.92,-83.54"/>
</g>
<!-- Node3&#45;&gt;Node7 -->
<g id="edge7" class="edge">
<title>Node3&#45;&gt;Node7</title>
<path fill="none" stroke="midnightblue" d="M290.27,-280.44C271.43,-271.68 241.92,-257.94 220.27,-247.86"/>
<polygon fill="midnightblue" stroke="midnightblue" points="221.48,-244.56 210.94,-243.52 218.53,-250.91 221.48,-244.56"/>
</g>
<!-- Node9 -->
<g id="node9" class="node">
<title>Node9</title>
<g id="a_node9"><a xlink:href="tbytevector_8h.html" target="_top" xlink:title=" ">
<polygon fill="white" stroke="black" points="400.15,-112.5 400.15,-131.5 481.15,-131.5 481.15,-112.5 400.15,-112.5"/>
<text text-anchor="middle" x="440.65" y="-119.5" font-family="Helvetica,sans-Serif" font-size="10.00">tbytevector.h</text>
</a>
</g>
</g>
<!-- Node3&#45;&gt;Node9 -->
<g id="edge19" class="edge">
<title>Node3&#45;&gt;Node9</title>
<path fill="none" stroke="midnightblue" d="M322.93,-280.33C347.18,-264.87 396.33,-230.17 422.65,-188 431.46,-173.88 436.04,-155.39 438.36,-141.74"/>
<polygon fill="midnightblue" stroke="midnightblue" points="441.86,-142.02 439.83,-131.62 434.93,-141.02 441.86,-142.02"/>
</g>
<!-- Node12 -->
<g id="node12" class="node">
<title>Node12</title>
<g id="a_node12"><a xlink:href="tiostream_8h.html" target="_top" xlink:title=" ">
<polygon fill="white" stroke="black" points="340.15,-168.5 340.15,-187.5 413.15,-187.5 413.15,-168.5 340.15,-168.5"/>
<text text-anchor="middle" x="376.65" y="-175.5" font-family="Helvetica,sans-Serif" font-size="10.00">tiostream.h</text>
</a>
</g>
</g>
<!-- Node3&#45;&gt;Node12 -->
<g id="edge20" class="edge">
<title>Node3&#45;&gt;Node12</title>
<path fill="none" stroke="midnightblue" d="M313.98,-280.37C325.15,-262.3 351.19,-220.18 365.95,-196.31"/>
<polygon fill="midnightblue" stroke="midnightblue" points="369.05,-197.94 371.34,-187.59 363.1,-194.26 369.05,-197.94"/>
</g>
<!-- Node5 -->
<g id="node5" class="node">
<title>Node5</title>
<g id="a_node5"><a xlink:title=" ">
<polygon fill="white" stroke="#bfbfbf" points="485.65,-0.5 485.65,-19.5 573.65,-19.5 573.65,-0.5 485.65,-0.5"/>
<text text-anchor="middle" x="529.65" y="-7.5" font-family="Helvetica,sans-Serif" font-size="10.00">taglib_config.h</text>
</a>
</g>
</g>
<!-- Node4&#45;&gt;Node5 -->
<g id="edge5" class="edge">
<title>Node4&#45;&gt;Node5</title>
<path fill="none" stroke="midnightblue" d="M529.65,-56.08C529.65,-49.01 529.65,-38.86 529.65,-29.99"/>
<polygon fill="midnightblue" stroke="midnightblue" points="533.15,-29.75 529.65,-19.75 526.15,-29.75 533.15,-29.75"/>
</g>
<!-- Node6 -->
<g id="node6" class="node">
<title>Node6</title>
<g id="a_node6"><a xlink:title=" ">
<polygon fill="white" stroke="#bfbfbf" points="348.65,-0.5 348.65,-19.5 392.65,-19.5 392.65,-0.5 348.65,-0.5"/>
<text text-anchor="middle" x="370.65" y="-7.5" font-family="Helvetica,sans-Serif" font-size="10.00">string</text>
</a>
</g>
</g>
<!-- Node4&#45;&gt;Node6 -->
<g id="edge6" class="edge">
<title>Node4&#45;&gt;Node6</title>
<path fill="none" stroke="midnightblue" d="M504.45,-56.44C476.76,-47.04 432.23,-31.91 402.22,-21.72"/>
<polygon fill="midnightblue" stroke="midnightblue" points="403.25,-18.37 392.65,-18.47 400.99,-25 403.25,-18.37"/>
</g>
<!-- Node7&#45;&gt;Node2 -->
<g id="edge8" class="edge">
<title>Node7&#45;&gt;Node2</title>
<path fill="none" stroke="midnightblue" d="M193.08,-224.08C194.34,-197.95 198.03,-121.21 199.75,-85.58"/>
<polygon fill="midnightblue" stroke="midnightblue" points="203.25,-85.73 200.23,-75.57 196.26,-85.39 203.25,-85.73"/>
</g>
<!-- Node8 -->
<g id="node8" class="node">
<title>Node8</title>
<g id="a_node8"><a xlink:href="tstring_8h.html" target="_top" xlink:title=" ">
<polygon fill="white" stroke="black" points="265.15,-168.5 265.15,-187.5 322.15,-187.5 322.15,-168.5 265.15,-168.5"/>
<text text-anchor="middle" x="293.65" y="-175.5" font-family="Helvetica,sans-Serif" font-size="10.00">tstring.h</text>
</a>
</g>
</g>
<!-- Node7&#45;&gt;Node8 -->
<g id="edge9" class="edge">
<title>Node7&#45;&gt;Node8</title>
<path fill="none" stroke="midnightblue" d="M208.87,-224.32C225,-215.7 249.95,-202.36 268.61,-192.39"/>
<polygon fill="midnightblue" stroke="midnightblue" points="270.29,-195.46 277.46,-187.65 266.99,-189.28 270.29,-195.46"/>
</g>
<!-- Node8&#45;&gt;Node2 -->
<g id="edge10" class="edge">
<title>Node8&#45;&gt;Node2</title>
<path fill="none" stroke="midnightblue" d="M286.35,-168.37C270.87,-150.05 234.51,-107.05 214.48,-83.36"/>
<polygon fill="midnightblue" stroke="midnightblue" points="217.04,-80.97 207.91,-75.59 211.69,-85.49 217.04,-80.97"/>
</g>
<!-- Node8&#45;&gt;Node4 -->
<g id="edge11" class="edge">
<title>Node8&#45;&gt;Node4</title>
<path fill="none" stroke="midnightblue" d="M322.27,-170.19C325.44,-169.45 328.61,-168.7 331.65,-168 402.23,-151.65 431.95,-174.48 490.65,-132 506.6,-120.45 517.23,-100.19 523.31,-85.35"/>
<polygon fill="midnightblue" stroke="midnightblue" points="526.69,-86.29 526.94,-75.7 520.14,-83.83 526.69,-86.29"/>
</g>
<!-- Node8&#45;&gt;Node6 -->
<g id="edge17" class="edge">
<title>Node8&#45;&gt;Node6</title>
<path fill="none" stroke="midnightblue" d="M295.23,-168.32C299.24,-147.78 311.02,-94.99 332.65,-56 338.53,-45.4 347.1,-34.98 354.62,-26.83"/>
<polygon fill="midnightblue" stroke="midnightblue" points="357.24,-29.16 361.65,-19.52 352.2,-24.31 357.24,-29.16"/>
</g>
<!-- Node8&#45;&gt;Node9 -->
<g id="edge12" class="edge">
<title>Node8&#45;&gt;Node9</title>
<path fill="none" stroke="midnightblue" d="M316.94,-168.44C341.45,-159.44 380.24,-145.19 407.85,-135.05"/>
<polygon fill="midnightblue" stroke="midnightblue" points="409.28,-138.25 417.46,-131.52 406.87,-131.68 409.28,-138.25"/>
</g>
<!-- Node11 -->
<g id="node11" class="node">
<title>Node11</title>
<g id="a_node11"><a xlink:title=" ">
<polygon fill="white" stroke="#bfbfbf" points="341.65,-56.5 341.65,-75.5 401.65,-75.5 401.65,-56.5 341.65,-56.5"/>
<text text-anchor="middle" x="371.65" y="-63.5" font-family="Helvetica,sans-Serif" font-size="10.00">iostream</text>
</a>
</g>
</g>
<!-- Node8&#45;&gt;Node11 -->
<g id="edge18" class="edge">
<title>Node8&#45;&gt;Node11</title>
<path fill="none" stroke="midnightblue" d="M299.77,-168.37C312.64,-150.22 342.71,-107.8 359.6,-83.99"/>
<polygon fill="midnightblue" stroke="midnightblue" points="362.63,-85.77 365.55,-75.59 356.92,-81.72 362.63,-85.77"/>
</g>
<!-- Node9&#45;&gt;Node2 -->
<g id="edge14" class="edge">
<title>Node9&#45;&gt;Node2</title>
<path fill="none" stroke="midnightblue" d="M402.62,-112.44C360.84,-103.04 293.67,-87.93 248.38,-77.74"/>
<polygon fill="midnightblue" stroke="midnightblue" points="249.02,-74.3 238.5,-75.52 247.49,-81.13 249.02,-74.3"/>
</g>
<!-- Node9&#45;&gt;Node4 -->
<g id="edge13" class="edge">
<title>Node9&#45;&gt;Node4</title>
<path fill="none" stroke="midnightblue" d="M454.95,-112.32C468.83,-103.9 490.14,-90.97 506.45,-81.07"/>
<polygon fill="midnightblue" stroke="midnightblue" points="508.65,-83.83 515.38,-75.65 505.02,-77.85 508.65,-83.83"/>
</g>
<!-- Node10 -->
<g id="node10" class="node">
<title>Node10</title>
<g id="a_node10"><a xlink:title=" ">
<polygon fill="white" stroke="#bfbfbf" points="420.15,-56.5 420.15,-75.5 467.15,-75.5 467.15,-56.5 420.15,-56.5"/>
<text text-anchor="middle" x="443.65" y="-63.5" font-family="Helvetica,sans-Serif" font-size="10.00">vector</text>
</a>
</g>
</g>
<!-- Node9&#45;&gt;Node10 -->
<g id="edge15" class="edge">
<title>Node9&#45;&gt;Node10</title>
<path fill="none" stroke="midnightblue" d="M441.14,-112.08C441.54,-105.01 442.1,-94.86 442.59,-85.99"/>
<polygon fill="midnightblue" stroke="midnightblue" points="446.1,-85.93 443.16,-75.75 439.11,-85.54 446.1,-85.93"/>
</g>
<!-- Node9&#45;&gt;Node11 -->
<g id="edge16" class="edge">
<title>Node9&#45;&gt;Node11</title>
<path fill="none" stroke="midnightblue" d="M429.56,-112.32C419.16,-104.18 403.39,-91.84 390.93,-82.09"/>
<polygon fill="midnightblue" stroke="midnightblue" points="392.97,-79.24 382.93,-75.83 388.65,-84.75 392.97,-79.24"/>
</g>
<!-- Node12&#45;&gt;Node2 -->
<g id="edge21" class="edge">
<title>Node12&#45;&gt;Node2</title>
<path fill="none" stroke="midnightblue" d="M362.84,-168.37C332.51,-149.41 259.85,-104 222.95,-80.94"/>
<polygon fill="midnightblue" stroke="midnightblue" points="224.73,-77.92 214.39,-75.59 221.02,-83.86 224.73,-77.92"/>
</g>
<!-- Node12&#45;&gt;Node4 -->
<g id="edge22" class="edge">
<title>Node12&#45;&gt;Node4</title>
<path fill="none" stroke="midnightblue" d="M413.41,-176.62C447.59,-174.13 497.12,-164.61 523.65,-132 534.03,-119.24 534.57,-100.04 533.08,-85.82"/>
<polygon fill="midnightblue" stroke="midnightblue" points="536.51,-85.09 531.61,-75.69 529.59,-86.09 536.51,-85.09"/>
</g>
<!-- Node12&#45;&gt;Node9 -->
<g id="edge23" class="edge">
<title>Node12&#45;&gt;Node9</title>
<path fill="none" stroke="midnightblue" d="M386.93,-168.32C396.48,-160.26 410.93,-148.08 422.43,-138.37"/>
<polygon fill="midnightblue" stroke="midnightblue" points="424.79,-140.96 430.18,-131.83 420.28,-135.61 424.79,-140.96"/>
</g>
<!-- Node13&#45;&gt;Node2 -->
<g id="edge26" class="edge">
<title>Node13&#45;&gt;Node2</title>
<path fill="none" stroke="midnightblue" d="M46.19,-168.33C22.88,-156.2 -12.29,-133.26 4.65,-112 21.98,-90.24 93.7,-78.13 145.36,-72.09"/>
<polygon fill="midnightblue" stroke="midnightblue" points="145.86,-75.56 155.41,-70.96 145.08,-68.6 145.86,-75.56"/>
</g>
<!-- Node14 -->
<g id="node14" class="node">
<title>Node14</title>
<g id="a_node14"><a xlink:href="audioproperties_8h.html" target="_top" xlink:title=" ">
<polygon fill="white" stroke="black" points="13.65,-112.5 13.65,-131.5 115.65,-131.5 115.65,-112.5 13.65,-112.5"/>
<text text-anchor="middle" x="64.65" y="-119.5" font-family="Helvetica,sans-Serif" font-size="10.00">audioproperties.h</text>
</a>
</g>
</g>
<!-- Node13&#45;&gt;Node14 -->
<g id="edge27" class="edge">
<title>Node13&#45;&gt;Node14</title>
<path fill="none" stroke="midnightblue" d="M64.65,-168.08C64.65,-161.01 64.65,-150.86 64.65,-141.99"/>
<polygon fill="midnightblue" stroke="midnightblue" points="68.15,-141.75 64.65,-131.75 61.15,-141.75 68.15,-141.75"/>
</g>
<!-- Node14&#45;&gt;Node2 -->
<g id="edge28" class="edge">
<title>Node14&#45;&gt;Node2</title>
<path fill="none" stroke="midnightblue" d="M86.2,-112.44C108.68,-103.52 144.13,-89.44 169.63,-79.32"/>
<polygon fill="midnightblue" stroke="midnightblue" points="171.2,-82.46 179.2,-75.52 168.61,-75.95 171.2,-82.46"/>
</g>
<!-- Node15&#45;&gt;Node4 -->
<g id="edge30" class="edge">
<title>Node15&#45;&gt;Node4</title>
<path fill="none" stroke="midnightblue" d="M681.09,-280.42C704.72,-269.53 737.98,-249.11 726.65,-224 693.47,-150.5 605.89,-101.43 559.48,-79.73"/>
<polygon fill="midnightblue" stroke="midnightblue" points="560.79,-76.48 550.24,-75.52 557.89,-82.85 560.79,-76.48"/>
</g>
<!-- Node16 -->
<g id="node16" class="node">
<title>Node16</title>
<g id="a_node16"><a xlink:title=" ">
<polygon fill="white" stroke="#bfbfbf" points="613.65,-224.5 613.65,-243.5 645.65,-243.5 645.65,-224.5 613.65,-224.5"/>
<text text-anchor="middle" x="629.65" y="-231.5" font-family="Helvetica,sans-Serif" font-size="10.00">list</text>
</a>
</g>
</g>
<!-- Node15&#45;&gt;Node16 -->
<g id="edge31" class="edge">
<title>Node15&#45;&gt;Node16</title>
<path fill="none" stroke="midnightblue" d="M654.69,-280.08C650.54,-272.61 644.49,-261.72 639.38,-252.52"/>
<polygon fill="midnightblue" stroke="midnightblue" points="642.42,-250.79 634.51,-243.75 636.31,-254.19 642.42,-250.79"/>
</g>
<!-- Node17 -->
<g id="node17" class="node">
<title>Node17</title>
<g id="a_node17"><a xlink:title=" ">
<polygon fill="white" stroke="#bfbfbf" points="664.15,-224.5 664.15,-243.5 717.15,-243.5 717.15,-224.5 664.15,-224.5"/>
<text text-anchor="middle" x="690.65" y="-231.5" font-family="Helvetica,sans-Serif" font-size="10.00">tlist.tcc</text>
</a>
</g>
</g>
<!-- Node15&#45;&gt;Node17 -->
<g id="edge32" class="edge">
<title>Node15&#45;&gt;Node17</title>
<path fill="none" stroke="midnightblue" d="M664.77,-280.08C669.05,-272.61 675.3,-261.72 680.59,-252.52"/>
<polygon fill="midnightblue" stroke="midnightblue" points="683.68,-254.17 685.62,-243.75 677.61,-250.68 683.68,-254.17"/>
</g>
</g>
</svg>
