<?xml version="1.0" encoding="UTF-8" standalone="no"?>
<!DOCTYPE svg PUBLIC "-//W3C//DTD SVG 1.1//EN"
 "http://www.w3.org/Graphics/SVG/1.1/DTD/svg11.dtd">
<!-- Generated by graphviz version 2.42.4 (0)
 -->
<!-- Title: mpcfile.h Pages: 1 -->
<svg width="973pt" height="357pt"
 viewBox="0.00 0.00 973.00 357.00" xmlns="http://www.w3.org/2000/svg" xmlns:xlink="http://www.w3.org/1999/xlink">
<g id="graph0" class="graph" transform="scale(1 1) rotate(0) translate(4 353)">
<title>mpcfile.h</title>
<!-- Node1 -->
<g id="Node000001" class="node">
<title>Node1</title>
<g id="a_Node000001"><a xlink:title=" ">
<polygon fill="#999999" stroke="#666666" points="165,-349 103,-349 103,-330 165,-330 165,-349"/>
<text text-anchor="middle" x="134" y="-337" font-family="Helvetica,sans-Serif" font-size="10.00">mpcfile.h</text>
</a>
</g>
</g>
<!-- Node2 -->
<g id="Node000002" class="node">
<title>Node2</title>
<g id="a_Node000002"><a xlink:href="tfile_8h.html" target="_top" xlink:title=" ">
<polygon fill="white" stroke="#666666" points="285,-294 241,-294 241,-275 285,-275 285,-294"/>
<text text-anchor="middle" x="263" y="-282" font-family="Helvetica,sans-Serif" font-size="10.00">tfile.h</text>
</a>
</g>
</g>
<!-- Node1&#45;&gt;Node2 -->
<g id="edge1_Node000001_Node000002" class="edge">
<title>Node1&#45;&gt;Node2</title>
<g id="a_edge1_Node000001_Node000002"><a xlink:title=" ">
<path fill="none" stroke="#63b8ff" d="M154.73,-329.98C175.76,-321.34 208.55,-307.87 232.54,-298.02"/>
<polygon fill="#63b8ff" stroke="#63b8ff" points="233.98,-301.21 241.9,-294.17 231.32,-294.73 233.98,-301.21"/>
</a>
</g>
</g>
<!-- Node7 -->
<g id="Node000007" class="node">
<title>Node7</title>
<g id="a_Node000007"><a xlink:href="taglib__export_8h.html" target="_top" xlink:title=" ">
<polygon fill="white" stroke="#666666" points="337,-74 247,-74 247,-55 337,-55 337,-74"/>
<text text-anchor="middle" x="292" y="-62" font-family="Helvetica,sans-Serif" font-size="10.00">taglib_export.h</text>
</a>
</g>
</g>
<!-- Node1&#45;&gt;Node7 -->
<g id="edge35_Node000001_Node000007" class="edge">
<title>Node1&#45;&gt;Node7</title>
<g id="a_edge35_Node000001_Node000007"><a xlink:title=" ">
<path fill="none" stroke="#63b8ff" d="M105.91,-329.93C66.62,-316 0,-284.43 0,-230.5 0,-230.5 0,-230.5 0,-173.5 0,-123.57 152.06,-89.46 236.72,-74.34"/>
<polygon fill="#63b8ff" stroke="#63b8ff" points="237.45,-77.77 246.7,-72.59 236.24,-70.87 237.45,-77.77"/>
</a>
</g>
</g>
<!-- Node11 -->
<g id="Node000011" class="node">
<title>Node11</title>
<g id="a_Node000011"><a xlink:href="tag_8h.html" target="_top" xlink:title=" ">
<polygon fill="white" stroke="#666666" points="459.5,-239 418.5,-239 418.5,-220 459.5,-220 459.5,-239"/>
<text text-anchor="middle" x="439" y="-227" font-family="Helvetica,sans-Serif" font-size="10.00">tag.h</text>
</a>
</g>
</g>
<!-- Node1&#45;&gt;Node11 -->
<g id="edge36_Node000001_Node000011" class="edge">
<title>Node1&#45;&gt;Node11</title>
<g id="a_edge36_Node000001_Node000011"><a xlink:title=" ">
<path fill="none" stroke="#63b8ff" d="M165.08,-331.24C197.61,-323.32 250,-309.67 294,-294 336.15,-278.99 383.33,-257.39 412.1,-243.65"/>
<polygon fill="#63b8ff" stroke="#63b8ff" points="413.98,-246.64 421.47,-239.15 410.94,-240.33 413.98,-246.64"/>
</a>
</g>
</g>
<!-- Node24 -->
<g id="Node000024" class="node">
<title>Node24</title>
<g id="a_Node000024"><a xlink:href="mpcproperties_8h.html" target="_top" xlink:title=" ">
<polygon fill="white" stroke="#666666" points="189,-184 93,-184 93,-165 189,-165 189,-184"/>
<text text-anchor="middle" x="141" y="-172" font-family="Helvetica,sans-Serif" font-size="10.00">mpcproperties.h</text>
</a>
</g>
</g>
<!-- Node1&#45;&gt;Node24 -->
<g id="edge37_Node000001_Node000024" class="edge">
<title>Node1&#45;&gt;Node24</title>
<g id="a_edge37_Node000001_Node000024"><a xlink:title=" ">
<path fill="none" stroke="#63b8ff" d="M134.38,-329.74C135.47,-304.31 138.66,-230.08 140.18,-194.69"/>
<polygon fill="#63b8ff" stroke="#63b8ff" points="143.69,-194.45 140.62,-184.31 136.7,-194.15 143.69,-194.45"/>
</a>
</g>
</g>
<!-- Node3 -->
<g id="Node000003" class="node">
<title>Node3</title>
<g id="a_Node000003"><a xlink:href="tbytevector_8h.html" target="_top" xlink:title=" ">
<polygon fill="white" stroke="#666666" points="495.5,-129 414.5,-129 414.5,-110 495.5,-110 495.5,-129"/>
<text text-anchor="middle" x="455" y="-117" font-family="Helvetica,sans-Serif" font-size="10.00">tbytevector.h</text>
</a>
</g>
</g>
<!-- Node2&#45;&gt;Node3 -->
<g id="edge2_Node000002_Node000003" class="edge">
<title>Node2&#45;&gt;Node3</title>
<g id="a_edge2_Node000002_Node000003"><a xlink:title=" ">
<path fill="none" stroke="#63b8ff" d="M273.05,-274.97C303.75,-248.9 396.63,-170.06 436.5,-136.21"/>
<polygon fill="#63b8ff" stroke="#63b8ff" points="439.22,-138.48 444.58,-129.34 434.69,-133.15 439.22,-138.48"/>
</a>
</g>
</g>
<!-- Node2&#45;&gt;Node7 -->
<g id="edge12_Node000002_Node000007" class="edge">
<title>Node2&#45;&gt;Node7</title>
<g id="a_edge12_Node000002_Node000007"><a xlink:title=" ">
<path fill="none" stroke="#63b8ff" d="M261.12,-274.8C257.16,-255.09 248.88,-205.6 256,-165 261.22,-135.25 274.59,-102.66 283.48,-83.16"/>
<polygon fill="#63b8ff" stroke="#63b8ff" points="286.7,-84.55 287.77,-74 280.36,-81.58 286.7,-84.55"/>
</a>
</g>
</g>
<!-- Node8 -->
<g id="Node000008" class="node">
<title>Node8</title>
<g id="a_Node000008"><a xlink:href="tiostream_8h.html" target="_top" xlink:title=" ">
<polygon fill="white" stroke="#666666" points="338.5,-184 265.5,-184 265.5,-165 338.5,-165 338.5,-184"/>
<text text-anchor="middle" x="302" y="-172" font-family="Helvetica,sans-Serif" font-size="10.00">tiostream.h</text>
</a>
</g>
</g>
<!-- Node2&#45;&gt;Node8 -->
<g id="edge7_Node000002_Node000008" class="edge">
<title>Node2&#45;&gt;Node8</title>
<g id="a_edge7_Node000002_Node000008"><a xlink:title=" ">
<path fill="none" stroke="#63b8ff" d="M266.19,-274.66C272.57,-257.01 286.98,-217.09 295.45,-193.64"/>
<polygon fill="#63b8ff" stroke="#63b8ff" points="298.77,-194.75 298.87,-184.16 292.18,-192.38 298.77,-194.75"/>
</a>
</g>
</g>
<!-- Node9 -->
<g id="Node000009" class="node">
<title>Node9</title>
<g id="a_Node000009"><a xlink:href="taglib_8h.html" target="_top" xlink:title=" ">
<polygon fill="white" stroke="#666666" points="140.5,-74 87.5,-74 87.5,-55 140.5,-55 140.5,-74"/>
<text text-anchor="middle" x="114" y="-62" font-family="Helvetica,sans-Serif" font-size="10.00">taglib.h</text>
</a>
</g>
</g>
<!-- Node2&#45;&gt;Node9 -->
<g id="edge13_Node000002_Node000009" class="edge">
<title>Node2&#45;&gt;Node9</title>
<g id="a_edge13_Node000002_Node000009"><a xlink:title=" ">
<path fill="none" stroke="#63b8ff" d="M240.9,-278.83C201.13,-269.11 118.43,-242.53 84,-184 64.81,-151.38 86.91,-106.7 102.09,-82.6"/>
<polygon fill="#63b8ff" stroke="#63b8ff" points="105.07,-84.44 107.66,-74.16 99.23,-80.58 105.07,-84.44"/>
</a>
</g>
</g>
<!-- Node2&#45;&gt;Node11 -->
<g id="edge14_Node000002_Node000011" class="edge">
<title>Node2&#45;&gt;Node11</title>
<g id="a_edge14_Node000002_Node000011"><a xlink:title=" ">
<path fill="none" stroke="#63b8ff" d="M285.29,-276.79C316.52,-267.38 373.42,-250.25 408.54,-239.67"/>
<polygon fill="#63b8ff" stroke="#63b8ff" points="409.69,-242.98 418.26,-236.75 407.67,-236.28 409.69,-242.98"/>
</a>
</g>
</g>
<!-- Node4 -->
<g id="Node000004" class="node">
<title>Node4</title>
<g id="a_Node000004"><a xlink:title=" ">
<polygon fill="#e0e0e0" stroke="#999999" points="545,-74 487,-74 487,-55 545,-55 545,-74"/>
<text text-anchor="middle" x="516" y="-62" font-family="Helvetica,sans-Serif" font-size="10.00">memory</text>
</a>
</g>
</g>
<!-- Node3&#45;&gt;Node4 -->
<g id="edge3_Node000003_Node000004" class="edge">
<title>Node3&#45;&gt;Node4</title>
<g id="a_edge3_Node000003_Node000004"><a xlink:title=" ">
<path fill="none" stroke="#63b8ff" d="M464.8,-109.98C473.82,-102.15 487.41,-90.34 498.32,-80.86"/>
<polygon fill="#63b8ff" stroke="#63b8ff" points="500.77,-83.37 506.02,-74.17 496.18,-78.09 500.77,-83.37"/>
</a>
</g>
</g>
<!-- Node5 -->
<g id="Node000005" class="node">
<title>Node5</title>
<g id="a_Node000005"><a xlink:title=" ">
<polygon fill="#e0e0e0" stroke="#999999" points="468.5,-74 421.5,-74 421.5,-55 468.5,-55 468.5,-74"/>
<text text-anchor="middle" x="445" y="-62" font-family="Helvetica,sans-Serif" font-size="10.00">vector</text>
</a>
</g>
</g>
<!-- Node3&#45;&gt;Node5 -->
<g id="edge4_Node000003_Node000005" class="edge">
<title>Node3&#45;&gt;Node5</title>
<g id="a_edge4_Node000003_Node000005"><a xlink:title=" ">
<path fill="none" stroke="#63b8ff" d="M453.35,-109.75C452.04,-102.8 450.16,-92.85 448.52,-84.13"/>
<polygon fill="#63b8ff" stroke="#63b8ff" points="451.91,-83.27 446.62,-74.09 445.04,-84.56 451.91,-83.27"/>
</a>
</g>
</g>
<!-- Node6 -->
<g id="Node000006" class="node">
<title>Node6</title>
<g id="a_Node000006"><a xlink:title=" ">
<polygon fill="#e0e0e0" stroke="#999999" points="403,-74 355,-74 355,-55 403,-55 403,-74"/>
<text text-anchor="middle" x="379" y="-62" font-family="Helvetica,sans-Serif" font-size="10.00">iosfwd</text>
</a>
</g>
</g>
<!-- Node3&#45;&gt;Node6 -->
<g id="edge5_Node000003_Node000006" class="edge">
<title>Node3&#45;&gt;Node6</title>
<g id="a_edge5_Node000003_Node000006"><a xlink:title=" ">
<path fill="none" stroke="#63b8ff" d="M442.79,-109.98C431.22,-101.92 413.62,-89.65 399.84,-80.03"/>
<polygon fill="#63b8ff" stroke="#63b8ff" points="401.64,-77.02 391.43,-74.17 397.63,-82.76 401.64,-77.02"/>
</a>
</g>
</g>
<!-- Node3&#45;&gt;Node7 -->
<g id="edge6_Node000003_Node000007" class="edge">
<title>Node3&#45;&gt;Node7</title>
<g id="a_edge6_Node000003_Node000007"><a xlink:title=" ">
<path fill="none" stroke="#63b8ff" d="M428.81,-109.98C401.56,-101.13 358.7,-87.19 328.22,-77.28"/>
<polygon fill="#63b8ff" stroke="#63b8ff" points="328.99,-73.85 318.39,-74.08 326.82,-80.5 328.99,-73.85"/>
</a>
</g>
</g>
<!-- Node8&#45;&gt;Node3 -->
<g id="edge8_Node000008_Node000003" class="edge">
<title>Node8&#45;&gt;Node3</title>
<g id="a_edge8_Node000008_Node000003"><a xlink:title=" ">
<path fill="none" stroke="#63b8ff" d="M326.58,-164.98C352.05,-156.16 392.04,-142.31 420.63,-132.41"/>
<polygon fill="#63b8ff" stroke="#63b8ff" points="421.92,-135.66 430.23,-129.08 419.63,-129.05 421.92,-135.66"/>
</a>
</g>
</g>
<!-- Node8&#45;&gt;Node7 -->
<g id="edge9_Node000008_Node000007" class="edge">
<title>Node8&#45;&gt;Node7</title>
<g id="a_edge9_Node000008_Node000007"><a xlink:title=" ">
<path fill="none" stroke="#63b8ff" d="M301.18,-164.66C299.56,-147.17 295.92,-107.8 293.74,-84.27"/>
<polygon fill="#63b8ff" stroke="#63b8ff" points="297.21,-83.79 292.8,-74.16 290.24,-84.44 297.21,-83.79"/>
</a>
</g>
</g>
<!-- Node8&#45;&gt;Node9 -->
<g id="edge10_Node000008_Node000009" class="edge">
<title>Node8&#45;&gt;Node9</title>
<g id="a_edge10_Node000008_Node000009"><a xlink:title=" ">
<path fill="none" stroke="#63b8ff" d="M265.37,-173.76C227.34,-172.02 168.55,-163.38 133,-129 120.99,-117.38 116.49,-98.52 114.85,-84.36"/>
<polygon fill="#63b8ff" stroke="#63b8ff" points="118.33,-83.94 114.05,-74.25 111.35,-84.49 118.33,-83.94"/>
</a>
</g>
</g>
<!-- Node10 -->
<g id="Node000010" class="node">
<title>Node10</title>
<g id="a_Node000010"><a xlink:title=" ">
<polygon fill="#e0e0e0" stroke="#999999" points="150,-19 78,-19 78,0 150,0 150,-19"/>
<text text-anchor="middle" x="114" y="-7" font-family="Helvetica,sans-Serif" font-size="10.00">sys/types.h</text>
</a>
</g>
</g>
<!-- Node9&#45;&gt;Node10 -->
<g id="edge11_Node000009_Node000010" class="edge">
<title>Node9&#45;&gt;Node10</title>
<g id="a_edge11_Node000009_Node000010"><a xlink:title=" ">
<path fill="none" stroke="#63b8ff" d="M114,-54.75C114,-47.8 114,-37.85 114,-29.13"/>
<polygon fill="#63b8ff" stroke="#63b8ff" points="117.5,-29.09 114,-19.09 110.5,-29.09 117.5,-29.09"/>
</a>
</g>
</g>
<!-- Node11&#45;&gt;Node7 -->
<g id="edge15_Node000011_Node000007" class="edge">
<title>Node11&#45;&gt;Node7</title>
<g id="a_edge15_Node000011_Node000007"><a xlink:title=" ">
<path fill="none" stroke="#63b8ff" d="M431.1,-219.74C407.57,-193.65 337.7,-116.17 306.88,-82"/>
<polygon fill="#63b8ff" stroke="#63b8ff" points="309.24,-79.39 299.94,-74.31 304.04,-84.08 309.24,-79.39"/>
</a>
</g>
</g>
<!-- Node12 -->
<g id="Node000012" class="node">
<title>Node12</title>
<g id="a_Node000012"><a xlink:href="tstring_8h.html" target="_top" xlink:title=" ">
<polygon fill="white" stroke="#666666" points="490.5,-184 433.5,-184 433.5,-165 490.5,-165 490.5,-184"/>
<text text-anchor="middle" x="462" y="-172" font-family="Helvetica,sans-Serif" font-size="10.00">tstring.h</text>
</a>
</g>
</g>
<!-- Node11&#45;&gt;Node12 -->
<g id="edge16_Node000011_Node000012" class="edge">
<title>Node11&#45;&gt;Node12</title>
<g id="a_edge16_Node000011_Node000012"><a xlink:title=" ">
<path fill="none" stroke="#63b8ff" d="M442.8,-219.75C445.91,-212.57 450.42,-202.18 454.29,-193.27"/>
<polygon fill="#63b8ff" stroke="#63b8ff" points="457.5,-194.66 458.27,-184.09 451.08,-191.87 457.5,-194.66"/>
</a>
</g>
</g>
<!-- Node14 -->
<g id="Node000014" class="node">
<title>Node14</title>
<g id="a_Node000014"><a xlink:href="tlist_8h.html" target="_top" xlink:title=" ">
<polygon fill="white" stroke="#666666" points="818,-129 774,-129 774,-110 818,-110 818,-129"/>
<text text-anchor="middle" x="796" y="-117" font-family="Helvetica,sans-Serif" font-size="10.00">tlist.h</text>
</a>
</g>
</g>
<!-- Node11&#45;&gt;Node14 -->
<g id="edge20_Node000011_Node000014" class="edge">
<title>Node11&#45;&gt;Node14</title>
<g id="a_edge20_Node000011_Node000014"><a xlink:title=" ">
<path fill="none" stroke="#63b8ff" d="M459.52,-227.06C502.24,-223.56 603.41,-212.71 683,-184 717.27,-171.64 753.38,-149.52 775.3,-134.93"/>
<polygon fill="#63b8ff" stroke="#63b8ff" points="777.47,-137.69 783.78,-129.18 773.54,-131.89 777.47,-137.69"/>
</a>
</g>
</g>
<!-- Node18 -->
<g id="Node000018" class="node">
<title>Node18</title>
<g id="a_Node000018"><a xlink:href="tvariant_8h.html" target="_top" xlink:title=" ">
<polygon fill="white" stroke="#666666" points="674,-184 610,-184 610,-165 674,-165 674,-184"/>
<text text-anchor="middle" x="642" y="-172" font-family="Helvetica,sans-Serif" font-size="10.00">tvariant.h</text>
</a>
</g>
</g>
<!-- Node11&#45;&gt;Node18 -->
<g id="edge25_Node000011_Node000018" class="edge">
<title>Node11&#45;&gt;Node18</title>
<g id="a_edge25_Node000011_Node000018"><a xlink:title=" ">
<path fill="none" stroke="#63b8ff" d="M459.58,-223.13C492.34,-214.57 556.99,-197.69 599.86,-186.5"/>
<polygon fill="#63b8ff" stroke="#63b8ff" points="600.93,-189.84 609.73,-183.93 599.17,-183.07 600.93,-189.84"/>
</a>
</g>
</g>
<!-- Node12&#45;&gt;Node3 -->
<g id="edge18_Node000012_Node000003" class="edge">
<title>Node12&#45;&gt;Node3</title>
<g id="a_edge18_Node000012_Node000003"><a xlink:title=" ">
<path fill="none" stroke="#63b8ff" d="M460.84,-164.75C459.93,-157.8 458.61,-147.85 457.46,-139.13"/>
<polygon fill="#63b8ff" stroke="#63b8ff" points="460.91,-138.54 456.13,-129.09 453.97,-139.46 460.91,-138.54"/>
</a>
</g>
</g>
<!-- Node12&#45;&gt;Node7 -->
<g id="edge19_Node000012_Node000007" class="edge">
<title>Node12&#45;&gt;Node7</title>
<g id="a_edge19_Node000012_Node000007"><a xlink:title=" ">
<path fill="none" stroke="#63b8ff" d="M448.38,-164.84C419.16,-146.28 350.22,-102.49 314.44,-79.75"/>
<polygon fill="#63b8ff" stroke="#63b8ff" points="316.01,-76.6 305.69,-74.2 312.25,-82.51 316.01,-76.6"/>
</a>
</g>
</g>
<!-- Node13 -->
<g id="Node000013" class="node">
<title>Node13</title>
<g id="a_Node000013"><a xlink:title=" ">
<polygon fill="#e0e0e0" stroke="#999999" points="558,-129 514,-129 514,-110 558,-110 558,-129"/>
<text text-anchor="middle" x="536" y="-117" font-family="Helvetica,sans-Serif" font-size="10.00">string</text>
</a>
</g>
</g>
<!-- Node12&#45;&gt;Node13 -->
<g id="edge17_Node000012_Node000013" class="edge">
<title>Node12&#45;&gt;Node13</title>
<g id="a_edge17_Node000012_Node000013"><a xlink:title=" ">
<path fill="none" stroke="#63b8ff" d="M473.89,-164.98C485.15,-156.92 502.29,-144.65 515.71,-135.03"/>
<polygon fill="#63b8ff" stroke="#63b8ff" points="517.8,-137.84 523.89,-129.17 513.73,-132.15 517.8,-137.84"/>
</a>
</g>
</g>
<!-- Node14&#45;&gt;Node4 -->
<g id="edge23_Node000014_Node000004" class="edge">
<title>Node14&#45;&gt;Node4</title>
<g id="a_edge23_Node000014_Node000004"><a xlink:title=" ">
<path fill="none" stroke="#63b8ff" d="M773.88,-114.54C725.62,-105.9 611.29,-85.31 555.12,-74.15"/>
<polygon fill="#63b8ff" stroke="#63b8ff" points="555.52,-70.66 545.02,-72.11 554.13,-77.52 555.52,-70.66"/>
</a>
</g>
</g>
<!-- Node15 -->
<g id="Node000015" class="node">
<title>Node15</title>
<g id="a_Node000015"><a xlink:title=" ">
<polygon fill="#e0e0e0" stroke="#999999" points="965,-74 933,-74 933,-55 965,-55 965,-74"/>
<text text-anchor="middle" x="949" y="-62" font-family="Helvetica,sans-Serif" font-size="10.00">list</text>
</a>
</g>
</g>
<!-- Node14&#45;&gt;Node15 -->
<g id="edge21_Node000014_Node000015" class="edge">
<title>Node14&#45;&gt;Node15</title>
<g id="a_edge21_Node000014_Node000015"><a xlink:title=" ">
<path fill="none" stroke="#63b8ff" d="M818.25,-110.79C846.12,-101.14 893.8,-84.62 923.23,-74.43"/>
<polygon fill="#63b8ff" stroke="#63b8ff" points="924.52,-77.69 932.82,-71.1 922.23,-71.07 924.52,-77.69"/>
</a>
</g>
</g>
<!-- Node16 -->
<g id="Node000016" class="node">
<title>Node16</title>
<g id="a_Node000016"><a xlink:title=" ">
<polygon fill="#e0e0e0" stroke="#999999" points="843.5,-74 760.5,-74 760.5,-55 843.5,-55 843.5,-74"/>
<text text-anchor="middle" x="802" y="-62" font-family="Helvetica,sans-Serif" font-size="10.00">initializer_list</text>
</a>
</g>
</g>
<!-- Node14&#45;&gt;Node16 -->
<g id="edge22_Node000014_Node000016" class="edge">
<title>Node14&#45;&gt;Node16</title>
<g id="a_edge22_Node000014_Node000016"><a xlink:title=" ">
<path fill="none" stroke="#63b8ff" d="M796.99,-109.75C797.78,-102.8 798.9,-92.85 799.89,-84.13"/>
<polygon fill="#63b8ff" stroke="#63b8ff" points="803.38,-84.42 801.03,-74.09 796.42,-83.63 803.38,-84.42"/>
</a>
</g>
</g>
<!-- Node17 -->
<g id="Node000017" class="node">
<title>Node17</title>
<g id="a_Node000017"><a xlink:title=" ">
<polygon fill="#e0e0e0" stroke="#999999" points="914.5,-74 861.5,-74 861.5,-55 914.5,-55 914.5,-74"/>
<text text-anchor="middle" x="888" y="-62" font-family="Helvetica,sans-Serif" font-size="10.00">tlist.tcc</text>
</a>
</g>
</g>
<!-- Node14&#45;&gt;Node17 -->
<g id="edge24_Node000014_Node000017" class="edge">
<title>Node14&#45;&gt;Node17</title>
<g id="a_edge24_Node000014_Node000017"><a xlink:title=" ">
<path fill="none" stroke="#63b8ff" d="M810.78,-109.98C825.18,-101.69 847.31,-88.94 864.19,-79.22"/>
<polygon fill="#63b8ff" stroke="#63b8ff" points="866.03,-82.19 872.95,-74.17 862.54,-76.13 866.03,-82.19"/>
</a>
</g>
</g>
<!-- Node18&#45;&gt;Node7 -->
<g id="edge34_Node000018_Node000007" class="edge">
<title>Node18&#45;&gt;Node7</title>
<g id="a_edge34_Node000018_Node000007"><a xlink:title=" ">
<path fill="none" stroke="#63b8ff" d="M634.71,-164.83C622.36,-150.78 595.82,-123.27 567,-110 564.51,-108.85 427.17,-86.94 347.55,-74.3"/>
<polygon fill="#63b8ff" stroke="#63b8ff" points="347.62,-70.77 337.2,-72.66 346.52,-77.68 347.62,-70.77"/>
</a>
</g>
</g>
<!-- Node18&#45;&gt;Node14 -->
<g id="edge27_Node000018_Node000014" class="edge">
<title>Node18&#45;&gt;Node14</title>
<g id="a_edge27_Node000018_Node000014"><a xlink:title=" ">
<path fill="none" stroke="#63b8ff" d="M666.74,-164.98C693.21,-155.88 735.28,-141.4 764.19,-131.45"/>
<polygon fill="#63b8ff" stroke="#63b8ff" points="765.5,-134.7 773.82,-128.13 763.22,-128.08 765.5,-134.7"/>
</a>
</g>
</g>
<!-- Node19 -->
<g id="Node000019" class="node">
<title>Node19</title>
<g id="a_Node000019"><a xlink:title=" ">
<polygon fill="#e0e0e0" stroke="#999999" points="670,-129 614,-129 614,-110 670,-110 670,-129"/>
<text text-anchor="middle" x="642" y="-117" font-family="Helvetica,sans-Serif" font-size="10.00">sstream</text>
</a>
</g>
</g>
<!-- Node18&#45;&gt;Node19 -->
<g id="edge26_Node000018_Node000019" class="edge">
<title>Node18&#45;&gt;Node19</title>
<g id="a_edge26_Node000018_Node000019"><a xlink:title=" ">
<path fill="none" stroke="#63b8ff" d="M642,-164.75C642,-157.8 642,-147.85 642,-139.13"/>
<polygon fill="#63b8ff" stroke="#63b8ff" points="645.5,-139.09 642,-129.09 638.5,-139.09 645.5,-139.09"/>
</a>
</g>
</g>
<!-- Node20 -->
<g id="Node000020" class="node">
<title>Node20</title>
<g id="a_Node000020"><a xlink:href="tmap_8h.html" target="_top" xlink:title=" ">
<polygon fill="white" stroke="#666666" points="739.5,-129 688.5,-129 688.5,-110 739.5,-110 739.5,-129"/>
<text text-anchor="middle" x="714" y="-117" font-family="Helvetica,sans-Serif" font-size="10.00">tmap.h</text>
</a>
</g>
</g>
<!-- Node18&#45;&gt;Node20 -->
<g id="edge28_Node000018_Node000020" class="edge">
<title>Node18&#45;&gt;Node20</title>
<g id="a_edge28_Node000018_Node000020"><a xlink:title=" ">
<path fill="none" stroke="#63b8ff" d="M653.57,-164.98C664.42,-157 680.88,-144.88 693.88,-135.31"/>
<polygon fill="#63b8ff" stroke="#63b8ff" points="696.24,-137.92 702.22,-129.17 692.09,-132.28 696.24,-137.92"/>
</a>
</g>
</g>
<!-- Node20&#45;&gt;Node4 -->
<g id="edge30_Node000020_Node000004" class="edge">
<title>Node20&#45;&gt;Node4</title>
<g id="a_edge30_Node000020_Node000004"><a xlink:title=" ">
<path fill="none" stroke="#63b8ff" d="M688.11,-111.57C654.17,-102.49 594.32,-86.46 554.91,-75.91"/>
<polygon fill="#63b8ff" stroke="#63b8ff" points="555.67,-72.5 545.11,-73.29 553.86,-79.26 555.67,-72.5"/>
</a>
</g>
</g>
<!-- Node20&#45;&gt;Node16 -->
<g id="edge31_Node000020_Node000016" class="edge">
<title>Node20&#45;&gt;Node16</title>
<g id="a_edge31_Node000020_Node000016"><a xlink:title=" ">
<path fill="none" stroke="#63b8ff" d="M728.14,-109.98C741.79,-101.77 762.69,-89.18 778.78,-79.49"/>
<polygon fill="#63b8ff" stroke="#63b8ff" points="780.84,-82.33 787.6,-74.17 777.23,-76.33 780.84,-82.33"/>
</a>
</g>
</g>
<!-- Node21 -->
<g id="Node000021" class="node">
<title>Node21</title>
<g id="a_Node000021"><a xlink:title=" ">
<polygon fill="#e0e0e0" stroke="#999999" points="742,-74 704,-74 704,-55 742,-55 742,-74"/>
<text text-anchor="middle" x="723" y="-62" font-family="Helvetica,sans-Serif" font-size="10.00">map</text>
</a>
</g>
</g>
<!-- Node20&#45;&gt;Node21 -->
<g id="edge29_Node000020_Node000021" class="edge">
<title>Node20&#45;&gt;Node21</title>
<g id="a_edge29_Node000020_Node000021"><a xlink:title=" ">
<path fill="none" stroke="#63b8ff" d="M715.49,-109.75C716.67,-102.8 718.36,-92.85 719.84,-84.13"/>
<polygon fill="#63b8ff" stroke="#63b8ff" points="723.32,-84.53 721.54,-74.09 716.42,-83.36 723.32,-84.53"/>
</a>
</g>
</g>
<!-- Node22 -->
<g id="Node000022" class="node">
<title>Node22</title>
<g id="a_Node000022"><a xlink:title=" ">
<polygon fill="#e0e0e0" stroke="#999999" points="608.5,-74 563.5,-74 563.5,-55 608.5,-55 608.5,-74"/>
<text text-anchor="middle" x="586" y="-62" font-family="Helvetica,sans-Serif" font-size="10.00">utility</text>
</a>
</g>
</g>
<!-- Node20&#45;&gt;Node22 -->
<g id="edge32_Node000020_Node000022" class="edge">
<title>Node20&#45;&gt;Node22</title>
<g id="a_edge32_Node000020_Node000022"><a xlink:title=" ">
<path fill="none" stroke="#63b8ff" d="M693.43,-109.98C672.57,-101.34 640.03,-87.87 616.23,-78.02"/>
<polygon fill="#63b8ff" stroke="#63b8ff" points="617.52,-74.76 606.94,-74.17 614.84,-81.23 617.52,-74.76"/>
</a>
</g>
</g>
<!-- Node23 -->
<g id="Node000023" class="node">
<title>Node23</title>
<g id="a_Node000023"><a xlink:title=" ">
<polygon fill="#e0e0e0" stroke="#999999" points="685.5,-74 626.5,-74 626.5,-55 685.5,-55 685.5,-74"/>
<text text-anchor="middle" x="656" y="-62" font-family="Helvetica,sans-Serif" font-size="10.00">tmap.tcc</text>
</a>
</g>
</g>
<!-- Node20&#45;&gt;Node23 -->
<g id="edge33_Node000020_Node000023" class="edge">
<title>Node20&#45;&gt;Node23</title>
<g id="a_edge33_Node000020_Node000023"><a xlink:title=" ">
<path fill="none" stroke="#63b8ff" d="M704.68,-109.98C696.19,-102.23 683.44,-90.58 673.12,-81.14"/>
<polygon fill="#63b8ff" stroke="#63b8ff" points="675.23,-78.33 665.49,-74.17 670.51,-83.5 675.23,-78.33"/>
</a>
</g>
</g>
<!-- Node24&#45;&gt;Node3 -->
<g id="edge38_Node000024_Node000003" class="edge">
<title>Node24&#45;&gt;Node3</title>
<g id="a_edge38_Node000024_Node000003"><a xlink:title=" ">
<path fill="none" stroke="#63b8ff" d="M189.03,-165.39C247.33,-155.55 345.2,-139.03 404.56,-129.01"/>
<polygon fill="#63b8ff" stroke="#63b8ff" points="405.19,-132.46 414.47,-127.34 404.02,-125.56 405.19,-132.46"/>
</a>
</g>
</g>
<!-- Node24&#45;&gt;Node7 -->
<g id="edge39_Node000024_Node000007" class="edge">
<title>Node24&#45;&gt;Node7</title>
<g id="a_edge39_Node000024_Node000007"><a xlink:title=" ">
<path fill="none" stroke="#63b8ff" d="M136.32,-164.69C129.98,-151.41 120.78,-126.11 133,-110 145.7,-93.26 195.98,-81.1 236.65,-73.77"/>
<polygon fill="#63b8ff" stroke="#63b8ff" points="237.5,-77.17 246.75,-72.01 236.3,-70.27 237.5,-77.17"/>
</a>
</g>
</g>
<!-- Node25 -->
<g id="Node000025" class="node">
<title>Node25</title>
<g id="a_Node000025"><a xlink:href="audioproperties_8h.html" target="_top" xlink:title=" ">
<polygon fill="white" stroke="#666666" points="244,-129 142,-129 142,-110 244,-110 244,-129"/>
<text text-anchor="middle" x="193" y="-117" font-family="Helvetica,sans-Serif" font-size="10.00">audioproperties.h</text>
</a>
</g>
</g>
<!-- Node24&#45;&gt;Node25 -->
<g id="edge40_Node000024_Node000025" class="edge">
<title>Node24&#45;&gt;Node25</title>
<g id="a_edge40_Node000024_Node000025"><a xlink:title=" ">
<path fill="none" stroke="#63b8ff" d="M149.59,-164.75C157.16,-157.03 168.38,-145.6 177.51,-136.28"/>
<polygon fill="#63b8ff" stroke="#63b8ff" points="180.07,-138.68 184.57,-129.09 175.07,-133.78 180.07,-138.68"/>
</a>
</g>
</g>
<!-- Node25&#45;&gt;Node4 -->
<g id="edge41_Node000025_Node000004" class="edge">
<title>Node25&#45;&gt;Node4</title>
<g id="a_edge41_Node000025_Node000004"><a xlink:title=" ">
<path fill="none" stroke="#63b8ff" d="M244.2,-111.41C299.13,-103.59 389.14,-90.18 476.8,-73.93"/>
<polygon fill="#63b8ff" stroke="#63b8ff" points="477.46,-77.37 486.65,-72.09 476.18,-70.49 477.46,-77.37"/>
</a>
</g>
</g>
<!-- Node25&#45;&gt;Node7 -->
<g id="edge43_Node000025_Node000007" class="edge">
<title>Node25&#45;&gt;Node7</title>
<g id="a_edge43_Node000025_Node000007"><a xlink:title=" ">
<path fill="none" stroke="#63b8ff" d="M208.91,-109.98C224.55,-101.61 248.66,-88.7 266.88,-78.95"/>
<polygon fill="#63b8ff" stroke="#63b8ff" points="268.64,-81.98 275.8,-74.17 265.34,-75.8 268.64,-81.98"/>
</a>
</g>
</g>
<!-- Node25&#45;&gt;Node9 -->
<g id="edge42_Node000025_Node000009" class="edge">
<title>Node25&#45;&gt;Node9</title>
<g id="a_edge42_Node000025_Node000009"><a xlink:title=" ">
<path fill="none" stroke="#63b8ff" d="M180.31,-109.98C168.17,-101.84 149.64,-89.41 135.25,-79.76"/>
<polygon fill="#63b8ff" stroke="#63b8ff" points="137.18,-76.84 126.92,-74.17 133.28,-82.65 137.18,-76.84"/>
</a>
</g>
</g>
</g>
</svg>
