<?xml version="1.0" encoding="UTF-8" standalone="no"?>
<!DOCTYPE svg PUBLIC "-//W3C//DTD SVG 1.1//EN"
 "http://www.w3.org/Graphics/SVG/1.1/DTD/svg11.dtd">
<!-- Generated by graphviz version 2.43.0 (0)
 -->
<!-- Title: mpcfile.h Pages: 1 -->
<svg width="1172pt" height="364pt"
 viewBox="0.00 0.00 1172.00 364.00" xmlns="http://www.w3.org/2000/svg" xmlns:xlink="http://www.w3.org/1999/xlink">
<g id="graph0" class="graph" transform="scale(1 1) rotate(0) translate(4 360)">
<title>mpcfile.h</title>
<polygon fill="white" stroke="transparent" points="-4,4 -4,-360 1168,-360 1168,4 -4,4"/>
<!-- Node1 -->
<g id="node1" class="node">
<title>Node1</title>
<g id="a_node1"><a xlink:title=" ">
<polygon fill="#bfbfbf" stroke="black" points="678,-336.5 678,-355.5 740,-355.5 740,-336.5 678,-336.5"/>
<text text-anchor="middle" x="709" y="-343.5" font-family="Helvetica,sans-Serif" font-size="10.00">mpcfile.h</text>
</a>
</g>
</g>
<!-- Node2 -->
<g id="node2" class="node">
<title>Node2</title>
<g id="a_node2"><a xlink:href="tfile_8h.html" target="_top" xlink:title=" ">
<polygon fill="white" stroke="black" points="687,-280.5 687,-299.5 731,-299.5 731,-280.5 687,-280.5"/>
<text text-anchor="middle" x="709" y="-287.5" font-family="Helvetica,sans-Serif" font-size="10.00">tfile.h</text>
</a>
</g>
</g>
<!-- Node1&#45;&gt;Node2 -->
<g id="edge1" class="edge">
<title>Node1&#45;&gt;Node2</title>
<path fill="none" stroke="midnightblue" d="M709,-336.08C709,-329.01 709,-318.86 709,-309.99"/>
<polygon fill="midnightblue" stroke="midnightblue" points="712.5,-309.75 709,-299.75 705.5,-309.75 712.5,-309.75"/>
</g>
<!-- Node11 -->
<g id="node11" class="node">
<title>Node11</title>
<g id="a_node11"><a xlink:href="taglib__export_8h.html" target="_top" xlink:title=" ">
<polygon fill="white" stroke="black" points="967,-56.5 967,-75.5 1057,-75.5 1057,-56.5 967,-56.5"/>
<text text-anchor="middle" x="1012" y="-63.5" font-family="Helvetica,sans-Serif" font-size="10.00">taglib_export.h</text>
</a>
</g>
</g>
<!-- Node1&#45;&gt;Node11 -->
<g id="edge44" class="edge">
<title>Node1&#45;&gt;Node11</title>
<path fill="none" stroke="midnightblue" d="M740.27,-344.16C843.07,-340.57 1164,-322.36 1164,-235 1164,-235 1164,-235 1164,-177 1164,-123.44 1101.29,-93.3 1056.43,-78.59"/>
<polygon fill="midnightblue" stroke="midnightblue" points="1057.46,-75.25 1046.87,-75.6 1055.37,-81.93 1057.46,-75.25"/>
</g>
<!-- Node13 -->
<g id="node13" class="node">
<title>Node13</title>
<g id="a_node13"><a xlink:href="tag_8h.html" target="_top" xlink:title=" ">
<polygon fill="white" stroke="black" points="566.5,-224.5 566.5,-243.5 607.5,-243.5 607.5,-224.5 566.5,-224.5"/>
<text text-anchor="middle" x="587" y="-231.5" font-family="Helvetica,sans-Serif" font-size="10.00">tag.h</text>
</a>
</g>
</g>
<!-- Node1&#45;&gt;Node13 -->
<g id="edge45" class="edge">
<title>Node1&#45;&gt;Node13</title>
<path fill="none" stroke="midnightblue" d="M699.43,-336.37C678.85,-317.81 630.16,-273.91 604.12,-250.44"/>
<polygon fill="midnightblue" stroke="midnightblue" points="606.3,-247.69 596.53,-243.59 601.61,-252.89 606.3,-247.69"/>
</g>
<!-- Node15 -->
<g id="node15" class="node">
<title>Node15</title>
<g id="a_node15"><a xlink:href="tlist_8h.html" target="_top" xlink:title=" ">
<polygon fill="white" stroke="black" points="262,-112.5 262,-131.5 306,-131.5 306,-112.5 262,-112.5"/>
<text text-anchor="middle" x="284" y="-119.5" font-family="Helvetica,sans-Serif" font-size="10.00">tlist.h</text>
</a>
</g>
</g>
<!-- Node1&#45;&gt;Node15 -->
<g id="edge43" class="edge">
<title>Node1&#45;&gt;Node15</title>
<path fill="none" stroke="midnightblue" d="M685.14,-336.37C627.88,-315.2 479.08,-257.29 366,-188 341.99,-173.29 317,-152.57 301.01,-138.5"/>
<polygon fill="midnightblue" stroke="midnightblue" points="303.32,-135.87 293.53,-131.82 298.66,-141.09 303.32,-135.87"/>
</g>
<!-- Node25 -->
<g id="node25" class="node">
<title>Node25</title>
<g id="a_node25"><a xlink:href="mpcproperties_8h.html" target="_top" xlink:title=" ">
<polygon fill="white" stroke="black" points="898,-168.5 898,-187.5 994,-187.5 994,-168.5 898,-168.5"/>
<text text-anchor="middle" x="946" y="-175.5" font-family="Helvetica,sans-Serif" font-size="10.00">mpcproperties.h</text>
</a>
</g>
</g>
<!-- Node1&#45;&gt;Node25 -->
<g id="edge46" class="edge">
<title>Node1&#45;&gt;Node25</title>
<path fill="none" stroke="midnightblue" d="M721.41,-336.31C759.88,-309.36 877.46,-227.01 925.36,-193.46"/>
<polygon fill="midnightblue" stroke="midnightblue" points="927.53,-196.21 933.71,-187.61 923.52,-190.48 927.53,-196.21"/>
</g>
<!-- Node3 -->
<g id="node3" class="node">
<title>Node3</title>
<g id="a_node3"><a xlink:href="tbytevector_8h.html" target="_top" xlink:title=" ">
<polygon fill="white" stroke="black" points="668.5,-112.5 668.5,-131.5 749.5,-131.5 749.5,-112.5 668.5,-112.5"/>
<text text-anchor="middle" x="709" y="-119.5" font-family="Helvetica,sans-Serif" font-size="10.00">tbytevector.h</text>
</a>
</g>
</g>
<!-- Node2&#45;&gt;Node3 -->
<g id="edge2" class="edge">
<title>Node2&#45;&gt;Node3</title>
<path fill="none" stroke="midnightblue" d="M709,-280.08C709,-253.95 709,-177.21 709,-141.58"/>
<polygon fill="midnightblue" stroke="midnightblue" points="712.5,-141.57 709,-131.57 705.5,-141.57 712.5,-141.57"/>
</g>
<!-- Node7 -->
<g id="node7" class="node">
<title>Node7</title>
<g id="a_node7"><a xlink:href="taglib_8h.html" target="_top" xlink:title=" ">
<polygon fill="white" stroke="black" points="614.5,-56.5 614.5,-75.5 667.5,-75.5 667.5,-56.5 614.5,-56.5"/>
<text text-anchor="middle" x="641" y="-63.5" font-family="Helvetica,sans-Serif" font-size="10.00">taglib.h</text>
</a>
</g>
</g>
<!-- Node2&#45;&gt;Node7 -->
<g id="edge16" class="edge">
<title>Node2&#45;&gt;Node7</title>
<path fill="none" stroke="midnightblue" d="M706.06,-280.18C698.16,-256.38 675.89,-188.75 659,-132 654.36,-116.39 649.45,-98.56 645.93,-85.53"/>
<polygon fill="midnightblue" stroke="midnightblue" points="649.31,-84.62 643.34,-75.86 642.55,-86.43 649.31,-84.62"/>
</g>
<!-- Node2&#45;&gt;Node11 -->
<g id="edge15" class="edge">
<title>Node2&#45;&gt;Node11</title>
<path fill="none" stroke="midnightblue" d="M731.36,-287.84C788.09,-283.8 939.57,-265.88 1031,-188 1058.4,-164.66 1073.14,-145.11 1059,-112 1053.85,-99.95 1043.72,-89.58 1034.17,-81.84"/>
<polygon fill="midnightblue" stroke="midnightblue" points="1036.17,-78.96 1026.08,-75.74 1031.96,-84.55 1036.17,-78.96"/>
</g>
<!-- Node12 -->
<g id="node12" class="node">
<title>Node12</title>
<g id="a_node12"><a xlink:href="tiostream_8h.html" target="_top" xlink:title=" ">
<polygon fill="white" stroke="black" points="739.5,-168.5 739.5,-187.5 812.5,-187.5 812.5,-168.5 739.5,-168.5"/>
<text text-anchor="middle" x="776" y="-175.5" font-family="Helvetica,sans-Serif" font-size="10.00">tiostream.h</text>
</a>
</g>
</g>
<!-- Node2&#45;&gt;Node12 -->
<g id="edge11" class="edge">
<title>Node2&#45;&gt;Node12</title>
<path fill="none" stroke="midnightblue" d="M714.26,-280.37C725.27,-262.3 750.92,-220.18 765.46,-196.31"/>
<polygon fill="midnightblue" stroke="midnightblue" points="768.55,-197.95 770.77,-187.59 762.58,-194.31 768.55,-197.95"/>
</g>
<!-- Node2&#45;&gt;Node13 -->
<g id="edge17" class="edge">
<title>Node2&#45;&gt;Node13</title>
<path fill="none" stroke="midnightblue" d="M689.67,-280.44C669.68,-271.6 638.26,-257.69 615.44,-247.59"/>
<polygon fill="midnightblue" stroke="midnightblue" points="616.8,-244.36 606.24,-243.52 613.97,-250.76 616.8,-244.36"/>
</g>
<!-- Node4 -->
<g id="node4" class="node">
<title>Node4</title>
<g id="a_node4"><a xlink:title=" ">
<polygon fill="white" stroke="#bfbfbf" points="496,-56.5 496,-75.5 556,-75.5 556,-56.5 496,-56.5"/>
<text text-anchor="middle" x="526" y="-63.5" font-family="Helvetica,sans-Serif" font-size="10.00">iostream</text>
</a>
</g>
</g>
<!-- Node3&#45;&gt;Node4 -->
<g id="edge3" class="edge">
<title>Node3&#45;&gt;Node4</title>
<path fill="none" stroke="midnightblue" d="M680,-112.44C648.82,-103.24 599.07,-88.56 564.59,-78.39"/>
<polygon fill="midnightblue" stroke="midnightblue" points="565.44,-74.99 554.86,-75.52 563.46,-81.7 565.44,-74.99"/>
</g>
<!-- Node5 -->
<g id="node5" class="node">
<title>Node5</title>
<g id="a_node5"><a xlink:title=" ">
<polygon fill="white" stroke="#bfbfbf" points="420,-56.5 420,-75.5 478,-75.5 478,-56.5 420,-56.5"/>
<text text-anchor="middle" x="449" y="-63.5" font-family="Helvetica,sans-Serif" font-size="10.00">memory</text>
</a>
</g>
</g>
<!-- Node3&#45;&gt;Node5 -->
<g id="edge4" class="edge">
<title>Node3&#45;&gt;Node5</title>
<path fill="none" stroke="midnightblue" d="M668.41,-113.18C625.92,-104.91 557.02,-91.24 488.18,-76.2"/>
<polygon fill="midnightblue" stroke="midnightblue" points="488.54,-72.7 478.02,-73.98 487.04,-79.54 488.54,-72.7"/>
</g>
<!-- Node6 -->
<g id="node6" class="node">
<title>Node6</title>
<g id="a_node6"><a xlink:title=" ">
<polygon fill="white" stroke="#bfbfbf" points="685.5,-56.5 685.5,-75.5 732.5,-75.5 732.5,-56.5 685.5,-56.5"/>
<text text-anchor="middle" x="709" y="-63.5" font-family="Helvetica,sans-Serif" font-size="10.00">vector</text>
</a>
</g>
</g>
<!-- Node3&#45;&gt;Node6 -->
<g id="edge5" class="edge">
<title>Node3&#45;&gt;Node6</title>
<path fill="none" stroke="midnightblue" d="M709,-112.08C709,-105.01 709,-94.86 709,-85.99"/>
<polygon fill="midnightblue" stroke="midnightblue" points="712.5,-85.75 709,-75.75 705.5,-85.75 712.5,-85.75"/>
</g>
<!-- Node3&#45;&gt;Node7 -->
<g id="edge6" class="edge">
<title>Node3&#45;&gt;Node7</title>
<path fill="none" stroke="midnightblue" d="M698.07,-112.32C687.83,-104.18 672.28,-91.84 660,-82.09"/>
<polygon fill="midnightblue" stroke="midnightblue" points="662.13,-79.31 652.12,-75.83 657.78,-84.79 662.13,-79.31"/>
</g>
<!-- Node3&#45;&gt;Node11 -->
<g id="edge10" class="edge">
<title>Node3&#45;&gt;Node11</title>
<path fill="none" stroke="midnightblue" d="M749.55,-113.77C802.9,-104.26 896.9,-87.51 956.73,-76.85"/>
<polygon fill="midnightblue" stroke="midnightblue" points="957.52,-80.26 966.75,-75.06 956.3,-73.37 957.52,-80.26"/>
</g>
<!-- Node8 -->
<g id="node8" class="node">
<title>Node8</title>
<g id="a_node8"><a xlink:title=" ">
<polygon fill="white" stroke="#bfbfbf" points="610,-0.5 610,-19.5 698,-19.5 698,-0.5 610,-0.5"/>
<text text-anchor="middle" x="654" y="-7.5" font-family="Helvetica,sans-Serif" font-size="10.00">taglib_config.h</text>
</a>
</g>
</g>
<!-- Node7&#45;&gt;Node8 -->
<g id="edge7" class="edge">
<title>Node7&#45;&gt;Node8</title>
<path fill="none" stroke="midnightblue" d="M643.15,-56.08C644.87,-48.93 647.35,-38.64 649.5,-29.69"/>
<polygon fill="midnightblue" stroke="midnightblue" points="652.96,-30.29 651.89,-19.75 646.15,-28.65 652.96,-30.29"/>
</g>
<!-- Node9 -->
<g id="node9" class="node">
<title>Node9</title>
<g id="a_node9"><a xlink:title=" ">
<polygon fill="white" stroke="#bfbfbf" points="716,-0.5 716,-19.5 788,-19.5 788,-0.5 716,-0.5"/>
<text text-anchor="middle" x="752" y="-7.5" font-family="Helvetica,sans-Serif" font-size="10.00">sys/types.h</text>
</a>
</g>
</g>
<!-- Node7&#45;&gt;Node9 -->
<g id="edge8" class="edge">
<title>Node7&#45;&gt;Node9</title>
<path fill="none" stroke="midnightblue" d="M658.83,-56.32C676.72,-47.62 704.48,-34.12 725.05,-24.11"/>
<polygon fill="midnightblue" stroke="midnightblue" points="726.75,-27.18 734.21,-19.65 723.69,-20.88 726.75,-27.18"/>
</g>
<!-- Node10 -->
<g id="node10" class="node">
<title>Node10</title>
<g id="a_node10"><a xlink:title=" ">
<polygon fill="white" stroke="#bfbfbf" points="548,-0.5 548,-19.5 592,-19.5 592,-0.5 548,-0.5"/>
<text text-anchor="middle" x="570" y="-7.5" font-family="Helvetica,sans-Serif" font-size="10.00">string</text>
</a>
</g>
</g>
<!-- Node7&#45;&gt;Node10 -->
<g id="edge9" class="edge">
<title>Node7&#45;&gt;Node10</title>
<path fill="none" stroke="midnightblue" d="M629.59,-56.32C618.89,-48.18 602.66,-35.84 589.84,-26.09"/>
<polygon fill="midnightblue" stroke="midnightblue" points="591.69,-23.1 581.61,-19.83 587.46,-28.67 591.69,-23.1"/>
</g>
<!-- Node12&#45;&gt;Node3 -->
<g id="edge12" class="edge">
<title>Node12&#45;&gt;Node3</title>
<path fill="none" stroke="midnightblue" d="M765.24,-168.32C755.23,-160.26 740.11,-148.08 728.07,-138.37"/>
<polygon fill="midnightblue" stroke="midnightblue" points="729.94,-135.38 719.96,-131.83 725.55,-140.83 729.94,-135.38"/>
</g>
<!-- Node12&#45;&gt;Node7 -->
<g id="edge14" class="edge">
<title>Node12&#45;&gt;Node7</title>
<path fill="none" stroke="midnightblue" d="M775.97,-168.25C775.44,-154.55 772.48,-127.96 758,-112 746.83,-99.69 707.34,-86.05 677.3,-77.05"/>
<polygon fill="midnightblue" stroke="midnightblue" points="678.11,-73.64 667.53,-74.19 676.14,-80.36 678.11,-73.64"/>
</g>
<!-- Node12&#45;&gt;Node11 -->
<g id="edge13" class="edge">
<title>Node12&#45;&gt;Node11</title>
<path fill="none" stroke="midnightblue" d="M812.85,-173.46C866.41,-167.62 962.18,-154.34 988,-132 1001.49,-120.34 1007.4,-100.39 1009.99,-85.66"/>
<polygon fill="midnightblue" stroke="midnightblue" points="1013.47,-86.03 1011.39,-75.64 1006.54,-85.06 1013.47,-86.03"/>
</g>
<!-- Node13&#45;&gt;Node11 -->
<g id="edge18" class="edge">
<title>Node13&#45;&gt;Node11</title>
<path fill="none" stroke="midnightblue" d="M607.51,-232.96C681.62,-232.49 934.73,-227.92 1003,-188 1035.95,-168.73 1054.34,-148.45 1043,-112 1039.77,-101.62 1033.22,-91.52 1026.98,-83.53"/>
<polygon fill="midnightblue" stroke="midnightblue" points="1029.58,-81.19 1020.48,-75.77 1024.21,-85.68 1029.58,-81.19"/>
</g>
<!-- Node14 -->
<g id="node14" class="node">
<title>Node14</title>
<g id="a_node14"><a xlink:href="tstring_8h.html" target="_top" xlink:title=" ">
<polygon fill="white" stroke="black" points="554.5,-168.5 554.5,-187.5 611.5,-187.5 611.5,-168.5 554.5,-168.5"/>
<text text-anchor="middle" x="583" y="-175.5" font-family="Helvetica,sans-Serif" font-size="10.00">tstring.h</text>
</a>
</g>
</g>
<!-- Node13&#45;&gt;Node14 -->
<g id="edge19" class="edge">
<title>Node13&#45;&gt;Node14</title>
<path fill="none" stroke="midnightblue" d="M586.34,-224.08C585.82,-217.01 585.06,-206.86 584.41,-197.99"/>
<polygon fill="midnightblue" stroke="midnightblue" points="587.88,-197.47 583.65,-187.75 580.9,-197.98 587.88,-197.47"/>
</g>
<!-- Node13&#45;&gt;Node15 -->
<g id="edge25" class="edge">
<title>Node13&#45;&gt;Node15</title>
<path fill="none" stroke="midnightblue" d="M566.33,-229.09C533.44,-222.53 467.46,-208.07 414,-188 375.46,-173.53 333.24,-151.1 307.68,-136.74"/>
<polygon fill="midnightblue" stroke="midnightblue" points="309.17,-133.56 298.75,-131.66 305.71,-139.64 309.17,-133.56"/>
</g>
<!-- Node19 -->
<g id="node19" class="node">
<title>Node19</title>
<g id="a_node19"><a xlink:href="tvariant_8h.html" target="_top" xlink:title=" ">
<polygon fill="white" stroke="black" points="423,-168.5 423,-187.5 487,-187.5 487,-168.5 423,-168.5"/>
<text text-anchor="middle" x="455" y="-175.5" font-family="Helvetica,sans-Serif" font-size="10.00">tvariant.h</text>
</a>
</g>
</g>
<!-- Node13&#45;&gt;Node19 -->
<g id="edge31" class="edge">
<title>Node13&#45;&gt;Node19</title>
<path fill="none" stroke="midnightblue" d="M566.38,-224.56C544.61,-215.66 510.09,-201.54 485.24,-191.37"/>
<polygon fill="midnightblue" stroke="midnightblue" points="486.5,-188.1 475.92,-187.56 483.85,-194.58 486.5,-188.1"/>
</g>
<!-- Node14&#45;&gt;Node3 -->
<g id="edge22" class="edge">
<title>Node14&#45;&gt;Node3</title>
<path fill="none" stroke="midnightblue" d="M602.97,-168.44C623.61,-159.6 656.06,-145.69 679.63,-135.59"/>
<polygon fill="midnightblue" stroke="midnightblue" points="681.32,-138.67 689.13,-131.52 678.56,-132.24 681.32,-138.67"/>
</g>
<!-- Node14&#45;&gt;Node4 -->
<g id="edge20" class="edge">
<title>Node14&#45;&gt;Node4</title>
<path fill="none" stroke="midnightblue" d="M575.38,-168.19C568.12,-159.46 557.25,-145.48 550,-132 541.99,-117.1 535.54,-98.96 531.35,-85.63"/>
<polygon fill="midnightblue" stroke="midnightblue" points="534.61,-84.31 528.38,-75.74 527.91,-86.33 534.61,-84.31"/>
</g>
<!-- Node14&#45;&gt;Node7 -->
<g id="edge24" class="edge">
<title>Node14&#45;&gt;Node7</title>
<path fill="none" stroke="midnightblue" d="M587.55,-168.37C597.04,-150.38 619.09,-108.55 631.71,-84.63"/>
<polygon fill="midnightblue" stroke="midnightblue" points="634.9,-86.07 636.47,-75.59 628.71,-82.8 634.9,-86.07"/>
</g>
<!-- Node14&#45;&gt;Node10 -->
<g id="edge21" class="edge">
<title>Node14&#45;&gt;Node10</title>
<path fill="none" stroke="midnightblue" d="M582.3,-168.08C580.25,-141.95 574.25,-65.21 571.45,-29.58"/>
<polygon fill="midnightblue" stroke="midnightblue" points="574.94,-29.26 570.67,-19.57 567.96,-29.81 574.94,-29.26"/>
</g>
<!-- Node14&#45;&gt;Node11 -->
<g id="edge23" class="edge">
<title>Node14&#45;&gt;Node11</title>
<path fill="none" stroke="midnightblue" d="M611.66,-174.6C692.76,-167.67 919.92,-147.11 950,-132 971.7,-121.1 989.93,-99.42 1000.9,-84.1"/>
<polygon fill="midnightblue" stroke="midnightblue" points="1003.99,-85.77 1006.75,-75.54 998.21,-81.82 1003.99,-85.77"/>
</g>
<!-- Node15&#45;&gt;Node5 -->
<g id="edge28" class="edge">
<title>Node15&#45;&gt;Node5</title>
<path fill="none" stroke="midnightblue" d="M306.25,-113.72C333.68,-104.74 380.63,-89.38 413.16,-78.73"/>
<polygon fill="midnightblue" stroke="midnightblue" points="414.34,-82.03 422.75,-75.59 412.16,-75.37 414.34,-82.03"/>
</g>
<!-- Node15&#45;&gt;Node7 -->
<g id="edge29" class="edge">
<title>Node15&#45;&gt;Node7</title>
<path fill="none" stroke="midnightblue" d="M306.25,-114.12C309.18,-113.34 312.15,-112.61 315,-112 369.59,-100.37 530.76,-80.28 604.01,-71.42"/>
<polygon fill="midnightblue" stroke="midnightblue" points="604.65,-74.87 614.16,-70.19 603.81,-67.92 604.65,-74.87"/>
</g>
<!-- Node16 -->
<g id="node16" class="node">
<title>Node16</title>
<g id="a_node16"><a xlink:title=" ">
<polygon fill="white" stroke="#bfbfbf" points="0,-56.5 0,-75.5 32,-75.5 32,-56.5 0,-56.5"/>
<text text-anchor="middle" x="16" y="-63.5" font-family="Helvetica,sans-Serif" font-size="10.00">list</text>
</a>
</g>
</g>
<!-- Node15&#45;&gt;Node16 -->
<g id="edge26" class="edge">
<title>Node15&#45;&gt;Node16</title>
<path fill="none" stroke="midnightblue" d="M261.95,-118.14C220.51,-112.51 128.13,-98.73 41.71,-75.82"/>
<polygon fill="midnightblue" stroke="midnightblue" points="42.58,-72.43 32.02,-73.2 40.76,-79.18 42.58,-72.43"/>
</g>
<!-- Node17 -->
<g id="node17" class="node">
<title>Node17</title>
<g id="a_node17"><a xlink:title=" ">
<polygon fill="white" stroke="#bfbfbf" points="121.5,-56.5 121.5,-75.5 204.5,-75.5 204.5,-56.5 121.5,-56.5"/>
<text text-anchor="middle" x="163" y="-63.5" font-family="Helvetica,sans-Serif" font-size="10.00">initializer_list</text>
</a>
</g>
</g>
<!-- Node15&#45;&gt;Node17 -->
<g id="edge27" class="edge">
<title>Node15&#45;&gt;Node17</title>
<path fill="none" stroke="midnightblue" d="M264.83,-112.44C245.09,-103.64 214.11,-89.81 191.51,-79.72"/>
<polygon fill="midnightblue" stroke="midnightblue" points="192.64,-76.4 182.08,-75.52 189.79,-82.79 192.64,-76.4"/>
</g>
<!-- Node18 -->
<g id="node18" class="node">
<title>Node18</title>
<g id="a_node18"><a xlink:title=" ">
<polygon fill="white" stroke="#bfbfbf" points="50.5,-56.5 50.5,-75.5 103.5,-75.5 103.5,-56.5 50.5,-56.5"/>
<text text-anchor="middle" x="77" y="-63.5" font-family="Helvetica,sans-Serif" font-size="10.00">tlist.tcc</text>
</a>
</g>
</g>
<!-- Node15&#45;&gt;Node18 -->
<g id="edge30" class="edge">
<title>Node15&#45;&gt;Node18</title>
<path fill="none" stroke="midnightblue" d="M261.85,-115.22C226.31,-105.95 156.23,-87.67 113.3,-76.47"/>
<polygon fill="midnightblue" stroke="midnightblue" points="114.09,-73.06 103.53,-73.92 112.32,-79.83 114.09,-73.06"/>
</g>
<!-- Node19&#45;&gt;Node4 -->
<g id="edge33" class="edge">
<title>Node19&#45;&gt;Node4</title>
<path fill="none" stroke="midnightblue" d="M444.94,-168.22C431.46,-155.38 410.6,-130.94 423,-112 430.63,-100.34 461.78,-87.69 487.85,-78.78"/>
<polygon fill="midnightblue" stroke="midnightblue" points="489.15,-82.04 497.53,-75.56 486.93,-75.4 489.15,-82.04"/>
</g>
<!-- Node19&#45;&gt;Node11 -->
<g id="edge42" class="edge">
<title>Node19&#45;&gt;Node11</title>
<path fill="none" stroke="midnightblue" d="M487.07,-173.77C504.25,-172.04 525.78,-169.89 545,-168 710.31,-151.74 760.87,-188.69 917,-132 925.19,-129.03 966.33,-99.93 991.71,-81.69"/>
<polygon fill="midnightblue" stroke="midnightblue" points="993.88,-84.43 999.95,-75.75 989.79,-78.75 993.88,-84.43"/>
</g>
<!-- Node19&#45;&gt;Node15 -->
<g id="edge34" class="edge">
<title>Node19&#45;&gt;Node15</title>
<path fill="none" stroke="midnightblue" d="M427.9,-168.44C397.48,-158.84 348.16,-143.26 315.9,-133.07"/>
<polygon fill="midnightblue" stroke="midnightblue" points="316.66,-129.64 306.07,-129.97 314.56,-136.32 316.66,-129.64"/>
</g>
<!-- Node20 -->
<g id="node20" class="node">
<title>Node20</title>
<g id="a_node20"><a xlink:title=" ">
<polygon fill="white" stroke="#bfbfbf" points="432.5,-112.5 432.5,-131.5 497.5,-131.5 497.5,-112.5 432.5,-112.5"/>
<text text-anchor="middle" x="465" y="-119.5" font-family="Helvetica,sans-Serif" font-size="10.00">memory.h</text>
</a>
</g>
</g>
<!-- Node19&#45;&gt;Node20 -->
<g id="edge32" class="edge">
<title>Node19&#45;&gt;Node20</title>
<path fill="none" stroke="midnightblue" d="M456.65,-168.08C457.98,-160.93 459.88,-150.64 461.54,-141.69"/>
<polygon fill="midnightblue" stroke="midnightblue" points="465,-142.22 463.38,-131.75 458.12,-140.95 465,-142.22"/>
</g>
<!-- Node21 -->
<g id="node21" class="node">
<title>Node21</title>
<g id="a_node21"><a xlink:href="tmap_8h.html" target="_top" xlink:title=" ">
<polygon fill="white" stroke="black" points="324.5,-112.5 324.5,-131.5 375.5,-131.5 375.5,-112.5 324.5,-112.5"/>
<text text-anchor="middle" x="350" y="-119.5" font-family="Helvetica,sans-Serif" font-size="10.00">tmap.h</text>
</a>
</g>
</g>
<!-- Node19&#45;&gt;Node21 -->
<g id="edge35" class="edge">
<title>Node19&#45;&gt;Node21</title>
<path fill="none" stroke="midnightblue" d="M438.13,-168.32C421.29,-159.66 395.19,-146.24 375.76,-136.25"/>
<polygon fill="midnightblue" stroke="midnightblue" points="377.32,-133.12 366.83,-131.65 374.12,-139.34 377.32,-133.12"/>
</g>
<!-- Node21&#45;&gt;Node5 -->
<g id="edge37" class="edge">
<title>Node21&#45;&gt;Node5</title>
<path fill="none" stroke="midnightblue" d="M365.91,-112.32C381.64,-103.74 405.94,-90.49 424.21,-80.52"/>
<polygon fill="midnightblue" stroke="midnightblue" points="426.03,-83.52 433.13,-75.65 422.68,-77.37 426.03,-83.52"/>
</g>
<!-- Node21&#45;&gt;Node7 -->
<g id="edge40" class="edge">
<title>Node21&#45;&gt;Node7</title>
<path fill="none" stroke="midnightblue" d="M375.57,-116.26C427.25,-106.67 544.3,-84.94 604.19,-73.83"/>
<polygon fill="midnightblue" stroke="midnightblue" points="605.14,-77.21 614.33,-71.95 603.86,-70.33 605.14,-77.21"/>
</g>
<!-- Node21&#45;&gt;Node17 -->
<g id="edge38" class="edge">
<title>Node21&#45;&gt;Node17</title>
<path fill="none" stroke="midnightblue" d="M324.39,-113.6C292.94,-104.52 239.25,-89.02 202.5,-78.41"/>
<polygon fill="midnightblue" stroke="midnightblue" points="203.19,-74.96 192.61,-75.55 201.25,-81.69 203.19,-74.96"/>
</g>
<!-- Node22 -->
<g id="node22" class="node">
<title>Node22</title>
<g id="a_node22"><a xlink:title=" ">
<polygon fill="white" stroke="#bfbfbf" points="223,-56.5 223,-75.5 261,-75.5 261,-56.5 223,-56.5"/>
<text text-anchor="middle" x="242" y="-63.5" font-family="Helvetica,sans-Serif" font-size="10.00">map</text>
</a>
</g>
</g>
<!-- Node21&#45;&gt;Node22 -->
<g id="edge36" class="edge">
<title>Node21&#45;&gt;Node22</title>
<path fill="none" stroke="midnightblue" d="M332.65,-112.32C315.33,-103.66 288.48,-90.24 268.5,-80.25"/>
<polygon fill="midnightblue" stroke="midnightblue" points="269.82,-77 259.31,-75.65 266.69,-83.26 269.82,-77"/>
</g>
<!-- Node23 -->
<g id="node23" class="node">
<title>Node23</title>
<g id="a_node23"><a xlink:title=" ">
<polygon fill="white" stroke="#bfbfbf" points="279.5,-56.5 279.5,-75.5 324.5,-75.5 324.5,-56.5 279.5,-56.5"/>
<text text-anchor="middle" x="302" y="-63.5" font-family="Helvetica,sans-Serif" font-size="10.00">utility</text>
</a>
</g>
</g>
<!-- Node21&#45;&gt;Node23 -->
<g id="edge39" class="edge">
<title>Node21&#45;&gt;Node23</title>
<path fill="none" stroke="midnightblue" d="M342.07,-112.08C335.15,-104.3 324.93,-92.8 316.55,-83.37"/>
<polygon fill="midnightblue" stroke="midnightblue" points="319.04,-80.9 309.78,-75.75 313.81,-85.55 319.04,-80.9"/>
</g>
<!-- Node24 -->
<g id="node24" class="node">
<title>Node24</title>
<g id="a_node24"><a xlink:title=" ">
<polygon fill="white" stroke="#bfbfbf" points="342.5,-56.5 342.5,-75.5 401.5,-75.5 401.5,-56.5 342.5,-56.5"/>
<text text-anchor="middle" x="372" y="-63.5" font-family="Helvetica,sans-Serif" font-size="10.00">tmap.tcc</text>
</a>
</g>
</g>
<!-- Node21&#45;&gt;Node24 -->
<g id="edge41" class="edge">
<title>Node21&#45;&gt;Node24</title>
<path fill="none" stroke="midnightblue" d="M353.63,-112.08C356.61,-104.77 360.93,-94.18 364.62,-85.1"/>
<polygon fill="midnightblue" stroke="midnightblue" points="367.9,-86.33 368.43,-75.75 361.42,-83.69 367.9,-86.33"/>
</g>
<!-- Node25&#45;&gt;Node3 -->
<g id="edge47" class="edge">
<title>Node25&#45;&gt;Node3</title>
<path fill="none" stroke="midnightblue" d="M908.45,-168.44C867.19,-159.04 800.86,-143.93 756.13,-133.74"/>
<polygon fill="midnightblue" stroke="midnightblue" points="756.91,-130.33 746.38,-131.52 755.35,-137.15 756.91,-130.33"/>
</g>
<!-- Node25&#45;&gt;Node11 -->
<g id="edge48" class="edge">
<title>Node25&#45;&gt;Node11</title>
<path fill="none" stroke="midnightblue" d="M976.25,-168.49C994.13,-161.73 1015.3,-150.29 1026,-132 1034.53,-117.41 1028.72,-98.24 1022.19,-84.5"/>
<polygon fill="midnightblue" stroke="midnightblue" points="1025.25,-82.82 1017.49,-75.61 1019.06,-86.09 1025.25,-82.82"/>
</g>
<!-- Node26 -->
<g id="node26" class="node">
<title>Node26</title>
<g id="a_node26"><a xlink:href="audioproperties_8h.html" target="_top" xlink:title=" ">
<polygon fill="white" stroke="black" points="806,-112.5 806,-131.5 908,-131.5 908,-112.5 806,-112.5"/>
<text text-anchor="middle" x="857" y="-119.5" font-family="Helvetica,sans-Serif" font-size="10.00">audioproperties.h</text>
</a>
</g>
</g>
<!-- Node25&#45;&gt;Node26 -->
<g id="edge49" class="edge">
<title>Node25&#45;&gt;Node26</title>
<path fill="none" stroke="midnightblue" d="M931.7,-168.32C917.82,-159.9 896.51,-146.97 880.2,-137.07"/>
<polygon fill="midnightblue" stroke="midnightblue" points="881.63,-133.85 871.26,-131.65 878,-139.83 881.63,-133.85"/>
</g>
<!-- Node26&#45;&gt;Node5 -->
<g id="edge50" class="edge">
<title>Node26&#45;&gt;Node5</title>
<path fill="none" stroke="midnightblue" d="M805.86,-116.6C736.18,-110.2 607.36,-96.95 488.4,-76.08"/>
<polygon fill="midnightblue" stroke="midnightblue" points="488.85,-72.61 478.39,-74.3 487.62,-79.5 488.85,-72.61"/>
</g>
<!-- Node26&#45;&gt;Node7 -->
<g id="edge51" class="edge">
<title>Node26&#45;&gt;Node7</title>
<path fill="none" stroke="midnightblue" d="M822.28,-112.46C787.89,-103.97 733.46,-90.5 677.79,-76.44"/>
<polygon fill="midnightblue" stroke="midnightblue" points="678.3,-72.96 667.75,-73.9 676.58,-79.75 678.3,-72.96"/>
</g>
<!-- Node26&#45;&gt;Node11 -->
<g id="edge52" class="edge">
<title>Node26&#45;&gt;Node11</title>
<path fill="none" stroke="midnightblue" d="M881.56,-112.44C907.52,-103.4 948.67,-89.06 977.8,-78.92"/>
<polygon fill="midnightblue" stroke="midnightblue" points="979.26,-82.11 987.55,-75.52 976.96,-75.5 979.26,-82.11"/>
</g>
</g>
</svg>
