<?xml version="1.0" encoding="UTF-8" standalone="no"?>
<!DOCTYPE svg PUBLIC "-//W3C//DTD SVG 1.1//EN"
 "http://www.w3.org/Graphics/SVG/1.1/DTD/svg11.dtd">
<!-- Generated by graphviz version 2.43.0 (0)
 -->
<!-- Title: mpegheader.h Pages: 1 -->
<svg width="210pt" height="140pt"
 viewBox="0.00 0.00 209.50 140.00" xmlns="http://www.w3.org/2000/svg" xmlns:xlink="http://www.w3.org/1999/xlink">
<g id="graph0" class="graph" transform="scale(1 1) rotate(0) translate(4 136)">
<title>mpegheader.h</title>
<polygon fill="white" stroke="transparent" points="-4,4 -4,-136 205.5,-136 205.5,4 -4,4"/>
<!-- Node1 -->
<g id="node1" class="node">
<title>Node1</title>
<g id="a_node1"><a xlink:title=" ">
<polygon fill="#bfbfbf" stroke="black" points="63.5,-112.5 63.5,-131.5 149.5,-131.5 149.5,-112.5 63.5,-112.5"/>
<text text-anchor="middle" x="106.5" y="-119.5" font-family="Helvetica,sans-Serif" font-size="10.00">mpegheader.h</text>
</a>
</g>
</g>
<!-- Node2 -->
<g id="node2" class="node">
<title>Node2</title>
<g id="a_node2"><a xlink:href="mpegproperties_8h.html" target="_top" xlink:title=" ">
<polygon fill="white" stroke="black" points="0,-56.5 0,-75.5 103,-75.5 103,-56.5 0,-56.5"/>
<text text-anchor="middle" x="51.5" y="-63.5" font-family="Helvetica,sans-Serif" font-size="10.00">mpegproperties.h</text>
</a>
</g>
</g>
<!-- Node1&#45;&gt;Node2 -->
<g id="edge1" class="edge">
<title>Node1&#45;&gt;Node2</title>
<path fill="none" stroke="midnightblue" d="M90.21,-105C80.46,-95.43 68.45,-83.64 60.41,-75.75"/>
<polygon fill="midnightblue" stroke="midnightblue" points="87.83,-107.57 97.42,-112.08 92.73,-102.58 87.83,-107.57"/>
</g>
<!-- Node4 -->
<g id="node4" class="node">
<title>Node4</title>
<g id="a_node4"><a xlink:href="xingheader_8h.html" target="_top" xlink:title=" ">
<polygon fill="white" stroke="black" points="121.5,-56.5 121.5,-75.5 201.5,-75.5 201.5,-56.5 121.5,-56.5"/>
<text text-anchor="middle" x="161.5" y="-63.5" font-family="Helvetica,sans-Serif" font-size="10.00">xingheader.h</text>
</a>
</g>
</g>
<!-- Node1&#45;&gt;Node4 -->
<g id="edge3" class="edge">
<title>Node1&#45;&gt;Node4</title>
<path fill="none" stroke="midnightblue" d="M122.79,-105C132.54,-95.43 144.55,-83.64 152.59,-75.75"/>
<polygon fill="midnightblue" stroke="midnightblue" points="120.27,-102.58 115.58,-112.08 125.17,-107.57 120.27,-102.58"/>
</g>
<!-- Node3 -->
<g id="node3" class="node">
<title>Node3</title>
<g id="a_node3"><a xlink:href="mpegfile_8h.html" target="_top" xlink:title=" ">
<polygon fill="white" stroke="black" points="17.5,-0.5 17.5,-19.5 85.5,-19.5 85.5,-0.5 17.5,-0.5"/>
<text text-anchor="middle" x="51.5" y="-7.5" font-family="Helvetica,sans-Serif" font-size="10.00">mpegfile.h</text>
</a>
</g>
</g>
<!-- Node2&#45;&gt;Node3 -->
<g id="edge2" class="edge">
<title>Node2&#45;&gt;Node3</title>
<path fill="none" stroke="midnightblue" d="M51.5,-45.8C51.5,-36.91 51.5,-26.78 51.5,-19.75"/>
<polygon fill="midnightblue" stroke="midnightblue" points="48,-46.08 51.5,-56.08 55,-46.08 48,-46.08"/>
</g>
</g>
</svg>
