<?xml version="1.0" encoding="UTF-8" standalone="no"?>
<!DOCTYPE svg PUBLIC "-//W3C//DTD SVG 1.1//EN"
 "http://www.w3.org/Graphics/SVG/1.1/DTD/svg11.dtd">
<!-- Generated by graphviz version 2.43.0 (0)
 -->
<!-- Title: mpegfile.h Pages: 1 -->
<svg width="689pt" height="364pt"
 viewBox="0.00 0.00 689.18 364.00" xmlns="http://www.w3.org/2000/svg" xmlns:xlink="http://www.w3.org/1999/xlink">
<g id="graph0" class="graph" transform="scale(1 1) rotate(0) translate(4 360)">
<title>mpegfile.h</title>
<polygon fill="white" stroke="transparent" points="-4,4 -4,-360 685.18,-360 685.18,4 -4,4"/>
<!-- Node1 -->
<g id="node1" class="node">
<title>Node1</title>
<g id="a_node1"><a xlink:title=" ">
<polygon fill="#bfbfbf" stroke="black" points="398,-336.5 398,-355.5 466,-355.5 466,-336.5 398,-336.5"/>
<text text-anchor="middle" x="432" y="-343.5" font-family="Helvetica,sans-Serif" font-size="10.00">mpegfile.h</text>
</a>
</g>
</g>
<!-- Node2 -->
<g id="node2" class="node">
<title>Node2</title>
<g id="a_node2"><a xlink:href="taglib__export_8h.html" target="_top" xlink:title=" ">
<polygon fill="white" stroke="black" points="349,-56.5 349,-75.5 439,-75.5 439,-56.5 349,-56.5"/>
<text text-anchor="middle" x="394" y="-63.5" font-family="Helvetica,sans-Serif" font-size="10.00">taglib_export.h</text>
</a>
</g>
</g>
<!-- Node1&#45;&gt;Node2 -->
<g id="edge1" class="edge">
<title>Node1&#45;&gt;Node2</title>
<path fill="none" stroke="midnightblue" d="M432,-336.44C432,-317.94 432,-272.81 432,-235 432,-235 432,-235 432,-177 432,-142.81 415.4,-105.76 404.14,-84.57"/>
<polygon fill="midnightblue" stroke="midnightblue" points="407.18,-82.83 399.28,-75.77 401.05,-86.22 407.18,-82.83"/>
</g>
<!-- Node3 -->
<g id="node3" class="node">
<title>Node3</title>
<g id="a_node3"><a xlink:href="tfile_8h.html" target="_top" xlink:title=" ">
<polygon fill="white" stroke="black" points="309,-280.5 309,-299.5 353,-299.5 353,-280.5 309,-280.5"/>
<text text-anchor="middle" x="331" y="-287.5" font-family="Helvetica,sans-Serif" font-size="10.00">tfile.h</text>
</a>
</g>
</g>
<!-- Node1&#45;&gt;Node3 -->
<g id="edge2" class="edge">
<title>Node1&#45;&gt;Node3</title>
<path fill="none" stroke="midnightblue" d="M415.77,-336.32C399.65,-327.7 374.7,-314.36 356.04,-304.39"/>
<polygon fill="midnightblue" stroke="midnightblue" points="357.66,-301.28 347.19,-299.65 354.36,-307.46 357.66,-301.28"/>
</g>
<!-- Node7 -->
<g id="node7" class="node">
<title>Node7</title>
<g id="a_node7"><a xlink:href="tag_8h.html" target="_top" xlink:title=" ">
<polygon fill="white" stroke="black" points="362.5,-224.5 362.5,-243.5 403.5,-243.5 403.5,-224.5 362.5,-224.5"/>
<text text-anchor="middle" x="383" y="-231.5" font-family="Helvetica,sans-Serif" font-size="10.00">tag.h</text>
</a>
</g>
</g>
<!-- Node1&#45;&gt;Node7 -->
<g id="edge24" class="edge">
<title>Node1&#45;&gt;Node7</title>
<path fill="none" stroke="midnightblue" d="M428.16,-336.37C420.18,-318.46 401.67,-276.92 391,-252.95"/>
<polygon fill="midnightblue" stroke="midnightblue" points="394.09,-251.3 386.83,-243.59 387.7,-254.15 394.09,-251.3"/>
</g>
<!-- Node13 -->
<g id="node13" class="node">
<title>Node13</title>
<g id="a_node13"><a xlink:href="mpegproperties_8h.html" target="_top" xlink:title=" ">
<polygon fill="white" stroke="black" points="515.5,-168.5 515.5,-187.5 618.5,-187.5 618.5,-168.5 515.5,-168.5"/>
<text text-anchor="middle" x="567" y="-175.5" font-family="Helvetica,sans-Serif" font-size="10.00">mpegproperties.h</text>
</a>
</g>
</g>
<!-- Node1&#45;&gt;Node13 -->
<g id="edge25" class="edge">
<title>Node1&#45;&gt;Node13</title>
<path fill="none" stroke="midnightblue" d="M439.26,-336.08C460.88,-309.49 525.09,-230.54 553.37,-195.76"/>
<polygon fill="midnightblue" stroke="midnightblue" points="556.44,-197.53 560.03,-187.57 551.01,-193.12 556.44,-197.53"/>
</g>
<!-- Node16 -->
<g id="node16" class="node">
<title>Node16</title>
<g id="a_node16"><a xlink:href="id3v2_8h.html" target="_top" xlink:title=" ">
<polygon fill="white" stroke="black" points="498.5,-280.5 498.5,-299.5 551.5,-299.5 551.5,-280.5 498.5,-280.5"/>
<text text-anchor="middle" x="525" y="-287.5" font-family="Helvetica,sans-Serif" font-size="10.00">id3v2.h</text>
</a>
</g>
</g>
<!-- Node1&#45;&gt;Node16 -->
<g id="edge31" class="edge">
<title>Node1&#45;&gt;Node16</title>
<path fill="none" stroke="midnightblue" d="M446.94,-336.32C461.59,-327.82 484.13,-314.73 501.24,-304.8"/>
<polygon fill="midnightblue" stroke="midnightblue" points="503.2,-307.7 510.1,-299.65 499.69,-301.65 503.2,-307.7"/>
</g>
<!-- Node3&#45;&gt;Node2 -->
<g id="edge3" class="edge">
<title>Node3&#45;&gt;Node2</title>
<path fill="none" stroke="midnightblue" d="M333.47,-280.3C342.76,-247.56 375.73,-131.38 388.7,-85.67"/>
<polygon fill="midnightblue" stroke="midnightblue" points="392.12,-86.46 391.48,-75.88 385.38,-84.55 392.12,-86.46"/>
</g>
<!-- Node4 -->
<g id="node4" class="node">
<title>Node4</title>
<g id="a_node4"><a xlink:href="taglib_8h.html" target="_top" xlink:title=" ">
<polygon fill="white" stroke="black" points="17.5,-56.5 17.5,-75.5 70.5,-75.5 70.5,-56.5 17.5,-56.5"/>
<text text-anchor="middle" x="44" y="-63.5" font-family="Helvetica,sans-Serif" font-size="10.00">taglib.h</text>
</a>
</g>
</g>
<!-- Node3&#45;&gt;Node4 -->
<g id="edge4" class="edge">
<title>Node3&#45;&gt;Node4</title>
<path fill="none" stroke="midnightblue" d="M308.82,-286.46C275.44,-281.92 211.09,-270.28 163,-244 98.12,-208.54 69.88,-199.63 40,-132 33.57,-117.46 35.41,-99.28 38.38,-85.85"/>
<polygon fill="midnightblue" stroke="midnightblue" points="41.85,-86.42 40.98,-75.86 35.07,-84.66 41.85,-86.42"/>
</g>
<!-- Node3&#45;&gt;Node7 -->
<g id="edge7" class="edge">
<title>Node3&#45;&gt;Node7</title>
<path fill="none" stroke="midnightblue" d="M339.59,-280.08C347.16,-272.22 358.38,-260.57 367.51,-251.08"/>
<polygon fill="midnightblue" stroke="midnightblue" points="370.16,-253.38 374.57,-243.75 365.12,-248.53 370.16,-253.38"/>
</g>
<!-- Node9 -->
<g id="node9" class="node">
<title>Node9</title>
<g id="a_node9"><a xlink:href="tbytevector_8h.html" target="_top" xlink:title=" ">
<polygon fill="white" stroke="black" points="94.5,-112.5 94.5,-131.5 175.5,-131.5 175.5,-112.5 94.5,-112.5"/>
<text text-anchor="middle" x="135" y="-119.5" font-family="Helvetica,sans-Serif" font-size="10.00">tbytevector.h</text>
</a>
</g>
</g>
<!-- Node3&#45;&gt;Node9 -->
<g id="edge19" class="edge">
<title>Node3&#45;&gt;Node9</title>
<path fill="none" stroke="midnightblue" d="M308.89,-285.46C265.85,-277.22 171.62,-252.36 133,-188 124.66,-174.1 126.3,-155.34 129.36,-141.55"/>
<polygon fill="midnightblue" stroke="midnightblue" points="132.78,-142.3 131.95,-131.74 126.01,-140.51 132.78,-142.3"/>
</g>
<!-- Node12 -->
<g id="node12" class="node">
<title>Node12</title>
<g id="a_node12"><a xlink:href="tiostream_8h.html" target="_top" xlink:title=" ">
<polygon fill="white" stroke="black" points="142.5,-168.5 142.5,-187.5 215.5,-187.5 215.5,-168.5 142.5,-168.5"/>
<text text-anchor="middle" x="179" y="-175.5" font-family="Helvetica,sans-Serif" font-size="10.00">tiostream.h</text>
</a>
</g>
</g>
<!-- Node3&#45;&gt;Node12 -->
<g id="edge20" class="edge">
<title>Node3&#45;&gt;Node12</title>
<path fill="none" stroke="midnightblue" d="M319.07,-280.37C293.1,-261.57 231.19,-216.77 199.08,-193.53"/>
<polygon fill="midnightblue" stroke="midnightblue" points="201.02,-190.62 190.87,-187.59 196.92,-196.29 201.02,-190.62"/>
</g>
<!-- Node5 -->
<g id="node5" class="node">
<title>Node5</title>
<g id="a_node5"><a xlink:title=" ">
<polygon fill="white" stroke="#bfbfbf" points="0,-0.5 0,-19.5 88,-19.5 88,-0.5 0,-0.5"/>
<text text-anchor="middle" x="44" y="-7.5" font-family="Helvetica,sans-Serif" font-size="10.00">taglib_config.h</text>
</a>
</g>
</g>
<!-- Node4&#45;&gt;Node5 -->
<g id="edge5" class="edge">
<title>Node4&#45;&gt;Node5</title>
<path fill="none" stroke="midnightblue" d="M44,-56.08C44,-49.01 44,-38.86 44,-29.99"/>
<polygon fill="midnightblue" stroke="midnightblue" points="47.5,-29.75 44,-19.75 40.5,-29.75 47.5,-29.75"/>
</g>
<!-- Node6 -->
<g id="node6" class="node">
<title>Node6</title>
<g id="a_node6"><a xlink:title=" ">
<polygon fill="white" stroke="#bfbfbf" points="163,-0.5 163,-19.5 207,-19.5 207,-0.5 163,-0.5"/>
<text text-anchor="middle" x="185" y="-7.5" font-family="Helvetica,sans-Serif" font-size="10.00">string</text>
</a>
</g>
</g>
<!-- Node4&#45;&gt;Node6 -->
<g id="edge6" class="edge">
<title>Node4&#45;&gt;Node6</title>
<path fill="none" stroke="midnightblue" d="M66.34,-56.44C89.75,-47.48 126.74,-33.31 153.19,-23.18"/>
<polygon fill="midnightblue" stroke="midnightblue" points="154.68,-26.36 162.76,-19.52 152.17,-19.82 154.68,-26.36"/>
</g>
<!-- Node7&#45;&gt;Node2 -->
<g id="edge8" class="edge">
<title>Node7&#45;&gt;Node2</title>
<path fill="none" stroke="midnightblue" d="M383.59,-224.08C385.32,-197.95 390.41,-121.21 392.77,-85.58"/>
<polygon fill="midnightblue" stroke="midnightblue" points="396.26,-85.78 393.43,-75.57 389.28,-85.31 396.26,-85.78"/>
</g>
<!-- Node8 -->
<g id="node8" class="node">
<title>Node8</title>
<g id="a_node8"><a xlink:href="tstring_8h.html" target="_top" xlink:title=" ">
<polygon fill="white" stroke="black" points="233.5,-168.5 233.5,-187.5 290.5,-187.5 290.5,-168.5 233.5,-168.5"/>
<text text-anchor="middle" x="262" y="-175.5" font-family="Helvetica,sans-Serif" font-size="10.00">tstring.h</text>
</a>
</g>
</g>
<!-- Node7&#45;&gt;Node8 -->
<g id="edge9" class="edge">
<title>Node7&#45;&gt;Node8</title>
<path fill="none" stroke="midnightblue" d="M363.83,-224.44C344.09,-215.64 313.11,-201.81 290.51,-191.72"/>
<polygon fill="midnightblue" stroke="midnightblue" points="291.64,-188.4 281.08,-187.52 288.79,-194.79 291.64,-188.4"/>
</g>
<!-- Node8&#45;&gt;Node2 -->
<g id="edge10" class="edge">
<title>Node8&#45;&gt;Node2</title>
<path fill="none" stroke="midnightblue" d="M272.36,-168.37C294.72,-149.73 347.76,-105.53 375.84,-82.13"/>
<polygon fill="midnightblue" stroke="midnightblue" points="378.25,-84.68 383.69,-75.59 373.77,-79.3 378.25,-84.68"/>
</g>
<!-- Node8&#45;&gt;Node4 -->
<g id="edge11" class="edge">
<title>Node8&#45;&gt;Node4</title>
<path fill="none" stroke="midnightblue" d="M233.38,-170.01C184.07,-157.93 88.05,-134.21 85,-132 68.85,-120.26 57.57,-100.03 50.98,-85.25"/>
<polygon fill="midnightblue" stroke="midnightblue" points="54.07,-83.55 47.02,-75.65 47.6,-86.23 54.07,-83.55"/>
</g>
<!-- Node8&#45;&gt;Node6 -->
<g id="edge17" class="edge">
<title>Node8&#45;&gt;Node6</title>
<path fill="none" stroke="midnightblue" d="M260.41,-168.32C256.41,-147.78 244.63,-94.99 223,-56 217.12,-45.4 208.54,-34.98 201.02,-26.83"/>
<polygon fill="midnightblue" stroke="midnightblue" points="203.45,-24.31 194,-19.52 198.41,-29.16 203.45,-24.31"/>
</g>
<!-- Node8&#45;&gt;Node9 -->
<g id="edge12" class="edge">
<title>Node8&#45;&gt;Node9</title>
<path fill="none" stroke="midnightblue" d="M241.88,-168.44C220.98,-159.56 188.07,-145.56 164.28,-135.45"/>
<polygon fill="midnightblue" stroke="midnightblue" points="165.6,-132.21 155.03,-131.52 162.86,-138.65 165.6,-132.21"/>
</g>
<!-- Node11 -->
<g id="node11" class="node">
<title>Node11</title>
<g id="a_node11"><a xlink:title=" ">
<polygon fill="white" stroke="#bfbfbf" points="154,-56.5 154,-75.5 214,-75.5 214,-56.5 154,-56.5"/>
<text text-anchor="middle" x="184" y="-63.5" font-family="Helvetica,sans-Serif" font-size="10.00">iostream</text>
</a>
</g>
</g>
<!-- Node8&#45;&gt;Node11 -->
<g id="edge18" class="edge">
<title>Node8&#45;&gt;Node11</title>
<path fill="none" stroke="midnightblue" d="M255.35,-168.47C248.39,-159.49 237.23,-144.9 228,-132 216.51,-115.95 203.94,-97.25 195.19,-84.04"/>
<polygon fill="midnightblue" stroke="midnightblue" points="197.99,-81.93 189.56,-75.51 192.14,-85.78 197.99,-81.93"/>
</g>
<!-- Node9&#45;&gt;Node2 -->
<g id="edge14" class="edge">
<title>Node9&#45;&gt;Node2</title>
<path fill="none" stroke="midnightblue" d="M175.75,-112.5C220.97,-103.08 294.01,-87.85 342.99,-77.64"/>
<polygon fill="midnightblue" stroke="midnightblue" points="343.98,-81 353.06,-75.54 342.55,-74.15 343.98,-81"/>
</g>
<!-- Node9&#45;&gt;Node4 -->
<g id="edge13" class="edge">
<title>Node9&#45;&gt;Node4</title>
<path fill="none" stroke="midnightblue" d="M120.38,-112.32C106.05,-103.82 83.99,-90.73 67.25,-80.8"/>
<polygon fill="midnightblue" stroke="midnightblue" points="68.97,-77.75 58.58,-75.65 65.4,-83.77 68.97,-77.75"/>
</g>
<!-- Node10 -->
<g id="node10" class="node">
<title>Node10</title>
<g id="a_node10"><a xlink:title=" ">
<polygon fill="white" stroke="#bfbfbf" points="88.5,-56.5 88.5,-75.5 135.5,-75.5 135.5,-56.5 88.5,-56.5"/>
<text text-anchor="middle" x="112" y="-63.5" font-family="Helvetica,sans-Serif" font-size="10.00">vector</text>
</a>
</g>
</g>
<!-- Node9&#45;&gt;Node10 -->
<g id="edge15" class="edge">
<title>Node9&#45;&gt;Node10</title>
<path fill="none" stroke="midnightblue" d="M131.2,-112.08C128.09,-104.77 123.58,-94.18 119.71,-85.1"/>
<polygon fill="midnightblue" stroke="midnightblue" points="122.87,-83.58 115.73,-75.75 116.43,-86.32 122.87,-83.58"/>
</g>
<!-- Node9&#45;&gt;Node11 -->
<g id="edge16" class="edge">
<title>Node9&#45;&gt;Node11</title>
<path fill="none" stroke="midnightblue" d="M143.09,-112.08C150.16,-104.3 160.59,-92.8 169.15,-83.37"/>
<polygon fill="midnightblue" stroke="midnightblue" points="171.93,-85.51 176.06,-75.75 166.75,-80.8 171.93,-85.51"/>
</g>
<!-- Node12&#45;&gt;Node2 -->
<g id="edge21" class="edge">
<title>Node12&#45;&gt;Node2</title>
<path fill="none" stroke="midnightblue" d="M195.87,-168.37C233.31,-149.21 323.57,-103.04 368.17,-80.22"/>
<polygon fill="midnightblue" stroke="midnightblue" points="369.9,-83.26 377.21,-75.59 366.71,-77.03 369.9,-83.26"/>
</g>
<!-- Node12&#45;&gt;Node4 -->
<g id="edge22" class="edge">
<title>Node12&#45;&gt;Node4</title>
<path fill="none" stroke="midnightblue" d="M142.42,-174.23C113.26,-169.97 73.82,-159.18 52,-132 41.67,-119.13 40.48,-99.95 41.39,-85.76"/>
<polygon fill="midnightblue" stroke="midnightblue" points="44.89,-85.97 42.43,-75.66 37.92,-85.25 44.89,-85.97"/>
</g>
<!-- Node12&#45;&gt;Node9 -->
<g id="edge23" class="edge">
<title>Node12&#45;&gt;Node9</title>
<path fill="none" stroke="midnightblue" d="M171.73,-168.08C165.46,-160.38 156.21,-149.03 148.57,-139.65"/>
<polygon fill="midnightblue" stroke="midnightblue" points="151.16,-137.29 142.13,-131.75 145.73,-141.71 151.16,-137.29"/>
</g>
<!-- Node13&#45;&gt;Node2 -->
<g id="edge26" class="edge">
<title>Node13&#45;&gt;Node2</title>
<path fill="none" stroke="midnightblue" d="M607.84,-168.43C647.41,-158.31 698.29,-139.31 675,-112 646.57,-78.65 522.59,-69.91 449.15,-67.69"/>
<polygon fill="midnightblue" stroke="midnightblue" points="449.23,-64.19 439.14,-67.42 449.04,-71.19 449.23,-64.19"/>
</g>
<!-- Node14 -->
<g id="node14" class="node">
<title>Node14</title>
<g id="a_node14"><a xlink:href="audioproperties_8h.html" target="_top" xlink:title=" ">
<polygon fill="white" stroke="black" points="460,-112.5 460,-131.5 562,-131.5 562,-112.5 460,-112.5"/>
<text text-anchor="middle" x="511" y="-119.5" font-family="Helvetica,sans-Serif" font-size="10.00">audioproperties.h</text>
</a>
</g>
</g>
<!-- Node13&#45;&gt;Node14 -->
<g id="edge27" class="edge">
<title>Node13&#45;&gt;Node14</title>
<path fill="none" stroke="midnightblue" d="M558,-168.32C549.81,-160.42 537.49,-148.55 527.53,-138.94"/>
<polygon fill="midnightblue" stroke="midnightblue" points="529.79,-136.26 520.16,-131.83 524.93,-141.29 529.79,-136.26"/>
</g>
<!-- Node15 -->
<g id="node15" class="node">
<title>Node15</title>
<g id="a_node15"><a xlink:href="mpegheader_8h.html" target="_top" xlink:title=" ">
<polygon fill="white" stroke="black" points="580,-112.5 580,-131.5 666,-131.5 666,-112.5 580,-112.5"/>
<text text-anchor="middle" x="623" y="-119.5" font-family="Helvetica,sans-Serif" font-size="10.00">mpegheader.h</text>
</a>
</g>
</g>
<!-- Node13&#45;&gt;Node15 -->
<g id="edge29" class="edge">
<title>Node13&#45;&gt;Node15</title>
<path fill="none" stroke="midnightblue" d="M576,-168.32C584.19,-160.42 596.51,-148.55 606.47,-138.94"/>
<polygon fill="midnightblue" stroke="midnightblue" points="609.07,-141.29 613.84,-131.83 604.21,-136.26 609.07,-141.29"/>
</g>
<!-- Node14&#45;&gt;Node2 -->
<g id="edge28" class="edge">
<title>Node14&#45;&gt;Node2</title>
<path fill="none" stroke="midnightblue" d="M492.46,-112.44C473.38,-103.64 443.43,-89.81 421.56,-79.72"/>
<polygon fill="midnightblue" stroke="midnightblue" points="423,-76.53 412.45,-75.52 420.07,-82.88 423,-76.53"/>
</g>
<!-- Node15&#45;&gt;Node2 -->
<g id="edge30" class="edge">
<title>Node15&#45;&gt;Node2</title>
<path fill="none" stroke="midnightblue" d="M586.71,-112.44C547.02,-103.08 483.29,-88.06 440.09,-77.87"/>
<polygon fill="midnightblue" stroke="midnightblue" points="440.65,-74.41 430.12,-75.52 439.05,-81.22 440.65,-74.41"/>
</g>
</g>
</svg>
