<?xml version="1.0" encoding="UTF-8" standalone="no"?>
<!DOCTYPE svg PUBLIC "-//W3C//DTD SVG 1.1//EN"
 "http://www.w3.org/Graphics/SVG/1.1/DTD/svg11.dtd">
<!-- Generated by graphviz version 2.46.1 (20210213.1702)
 -->
<!-- Title: mpegproperties.h Pages: 1 -->
<svg width="206pt" height="140pt"
 viewBox="0.00 0.00 206.37 140.00" xmlns="http://www.w3.org/2000/svg" xmlns:xlink="http://www.w3.org/1999/xlink">
<g id="graph0" class="graph" transform="scale(1 1) rotate(0) translate(4 136)">
<title>mpegproperties.h</title>
<polygon fill="white" stroke="transparent" points="-4,4 -4,-136 202.37,-136 202.37,4 -4,4"/>
<!-- Node1 -->
<g id="node1" class="node">
<title>Node1</title>
<g id="a_node1"><a xlink:title=" ">
<polygon fill="#bfbfbf" stroke="black" points="11.87,-112.5 11.87,-131.5 103.87,-131.5 103.87,-112.5 11.87,-112.5"/>
<text text-anchor="middle" x="57.87" y="-119.5" font-family="Helvetica,sans-Serif" font-size="10.00">mpegproperties.h</text>
</a>
</g>
</g>
<!-- Node2 -->
<g id="node2" class="node">
<title>Node2</title>
<g id="a_node2"><a xlink:href="taglib__export_8h.html" target="_top" xlink:title=" ">
<polygon fill="white" stroke="black" points="17.87,-0.5 17.87,-19.5 97.87,-19.5 97.87,-0.5 17.87,-0.5"/>
<text text-anchor="middle" x="57.87" y="-7.5" font-family="Helvetica,sans-Serif" font-size="10.00">taglib_export.h</text>
</a>
</g>
</g>
<!-- Node1&#45;&gt;Node2 -->
<g id="edge1" class="edge">
<title>Node1&#45;&gt;Node2</title>
<path fill="none" stroke="midnightblue" d="M40.68,-112.39C27.62,-104.79 10.64,-92.39 2.87,-76 -6.64,-55.93 13.95,-37.04 32.59,-24.85"/>
<polygon fill="midnightblue" stroke="midnightblue" points="34.48,-27.79 41.17,-19.58 30.82,-21.83 34.48,-27.79"/>
</g>
<!-- Node3 -->
<g id="node3" class="node">
<title>Node3</title>
<g id="a_node3"><a xlink:href="audioproperties_8h.html" target="_top" xlink:title=" ">
<polygon fill="white" stroke="black" points="12.37,-56.5 12.37,-75.5 103.37,-75.5 103.37,-56.5 12.37,-56.5"/>
<text text-anchor="middle" x="57.87" y="-63.5" font-family="Helvetica,sans-Serif" font-size="10.00">audioproperties.h</text>
</a>
</g>
</g>
<!-- Node1&#45;&gt;Node3 -->
<g id="edge2" class="edge">
<title>Node1&#45;&gt;Node3</title>
<path fill="none" stroke="midnightblue" d="M57.87,-112.08C57.87,-105.01 57.87,-94.86 57.87,-85.99"/>
<polygon fill="midnightblue" stroke="midnightblue" points="61.37,-85.75 57.87,-75.75 54.37,-85.75 61.37,-85.75"/>
</g>
<!-- Node4 -->
<g id="node4" class="node">
<title>Node4</title>
<g id="a_node4"><a xlink:href="mpegheader_8h.html" target="_top" xlink:title=" ">
<polygon fill="white" stroke="black" points="121.37,-56.5 121.37,-75.5 198.37,-75.5 198.37,-56.5 121.37,-56.5"/>
<text text-anchor="middle" x="159.87" y="-63.5" font-family="Helvetica,sans-Serif" font-size="10.00">mpegheader.h</text>
</a>
</g>
</g>
<!-- Node1&#45;&gt;Node4 -->
<g id="edge4" class="edge">
<title>Node1&#45;&gt;Node4</title>
<path fill="none" stroke="midnightblue" d="M74.26,-112.32C90.54,-103.7 115.74,-90.36 134.59,-80.39"/>
<polygon fill="midnightblue" stroke="midnightblue" points="136.33,-83.43 143.53,-75.65 133.05,-77.24 136.33,-83.43"/>
</g>
<!-- Node3&#45;&gt;Node2 -->
<g id="edge3" class="edge">
<title>Node3&#45;&gt;Node2</title>
<path fill="none" stroke="midnightblue" d="M57.87,-56.08C57.87,-49.01 57.87,-38.86 57.87,-29.99"/>
<polygon fill="midnightblue" stroke="midnightblue" points="61.37,-29.75 57.87,-19.75 54.37,-29.75 61.37,-29.75"/>
</g>
<!-- Node4&#45;&gt;Node2 -->
<g id="edge5" class="edge">
<title>Node4&#45;&gt;Node2</title>
<path fill="none" stroke="midnightblue" d="M143.49,-56.32C127.2,-47.7 102.01,-34.36 83.16,-24.39"/>
<polygon fill="midnightblue" stroke="midnightblue" points="84.7,-21.24 74.22,-19.65 81.42,-27.43 84.7,-21.24"/>
</g>
</g>
</svg>
