<?xml version="1.0" encoding="UTF-8" standalone="no"?>
<!DOCTYPE svg PUBLIC "-//W3C//DTD SVG 1.1//EN"
 "http://www.w3.org/Graphics/SVG/1.1/DTD/svg11.dtd">
<!-- Generated by graphviz version 2.42.4 (0)
 -->
<!-- Title: oggflacfile.h Pages: 1 -->
<svg width="1406pt" height="412pt"
 viewBox="0.00 0.00 1406.20 412.00" xmlns="http://www.w3.org/2000/svg" xmlns:xlink="http://www.w3.org/1999/xlink">
<g id="graph0" class="graph" transform="scale(1 1) rotate(0) translate(4 408)">
<title>oggflacfile.h</title>
<!-- Node1 -->
<g id="Node000001" class="node">
<title>Node1</title>
<g id="a_Node000001"><a xlink:title=" ">
<polygon fill="#999999" stroke="#666666" points="954.5,-404 878.5,-404 878.5,-385 954.5,-385 954.5,-404"/>
<text text-anchor="middle" x="916.5" y="-392" font-family="Helvetica,sans-Serif" font-size="10.00">oggflacfile.h</text>
</a>
</g>
</g>
<!-- Node2 -->
<g id="Node000002" class="node">
<title>Node2</title>
<g id="a_Node000002"><a xlink:href="taglib__export_8h.html" target="_top" xlink:title=" ">
<polygon fill="white" stroke="#666666" points="892.5,-74 802.5,-74 802.5,-55 892.5,-55 892.5,-74"/>
<text text-anchor="middle" x="847.5" y="-62" font-family="Helvetica,sans-Serif" font-size="10.00">taglib_export.h</text>
</a>
</g>
</g>
<!-- Node1&#45;&gt;Node2 -->
<g id="edge1_Node000001_Node000002" class="edge">
<title>Node1&#45;&gt;Node2</title>
<g id="a_edge1_Node000001_Node000002"><a xlink:title=" ">
<path fill="none" stroke="#63b8ff" d="M878.32,-386.91C831.06,-378.64 748.15,-363.73 677.5,-349 483.19,-308.48 314.19,-375.64 262.5,-184 257.33,-164.82 259.9,-117.5 267.5,-110 286.03,-91.73 650.62,-74.04 792.08,-67.83"/>
<polygon fill="#63b8ff" stroke="#63b8ff" points="792.43,-71.32 802.27,-67.39 792.13,-64.33 792.43,-71.32"/>
</a>
</g>
</g>
<!-- Node3 -->
<g id="Node000003" class="node">
<title>Node3</title>
<g id="a_Node000003"><a xlink:href="oggfile_8h.html" target="_top" xlink:title=" ">
<polygon fill="white" stroke="#666666" points="1211,-349 1152,-349 1152,-330 1211,-330 1211,-349"/>
<text text-anchor="middle" x="1181.5" y="-337" font-family="Helvetica,sans-Serif" font-size="10.00">oggfile.h</text>
</a>
</g>
</g>
<!-- Node1&#45;&gt;Node3 -->
<g id="edge2_Node000001_Node000003" class="edge">
<title>Node1&#45;&gt;Node3</title>
<g id="a_edge2_Node000001_Node000003"><a xlink:title=" ">
<path fill="none" stroke="#63b8ff" d="M954.75,-385.85C1004.63,-375.87 1091.47,-358.51 1141.97,-348.41"/>
<polygon fill="#63b8ff" stroke="#63b8ff" points="1142.75,-351.82 1151.87,-346.43 1141.38,-344.96 1142.75,-351.82"/>
</a>
</g>
</g>
<!-- Node26 -->
<g id="Node000026" class="node">
<title>Node26</title>
<g id="a_Node000026"><a xlink:href="xiphcomment_8h.html" target="_top" xlink:title=" ">
<polygon fill="white" stroke="#666666" points="542,-294 449,-294 449,-275 542,-275 542,-294"/>
<text text-anchor="middle" x="495.5" y="-282" font-family="Helvetica,sans-Serif" font-size="10.00">xiphcomment.h</text>
</a>
</g>
</g>
<!-- Node1&#45;&gt;Node26 -->
<g id="edge42_Node000001_Node000026" class="edge">
<title>Node1&#45;&gt;Node26</title>
<g id="a_edge42_Node000001_Node000026"><a xlink:title=" ">
<path fill="none" stroke="#63b8ff" d="M883.11,-384.94C807.42,-365.52 622.85,-318.17 538.65,-296.57"/>
<polygon fill="#63b8ff" stroke="#63b8ff" points="539.45,-293.16 528.89,-294.07 537.71,-299.94 539.45,-293.16"/>
</a>
</g>
</g>
<!-- Node31 -->
<g id="Node000031" class="node">
<title>Node31</title>
<g id="a_Node000031"><a xlink:href="flacproperties_8h.html" target="_top" xlink:title=" ">
<polygon fill="white" stroke="#666666" points="1101.5,-184 1009.5,-184 1009.5,-165 1101.5,-165 1101.5,-184"/>
<text text-anchor="middle" x="1055.5" y="-172" font-family="Helvetica,sans-Serif" font-size="10.00">flacproperties.h</text>
</a>
</g>
</g>
<!-- Node1&#45;&gt;Node31 -->
<g id="edge63_Node000001_Node000031" class="edge">
<title>Node1&#45;&gt;Node31</title>
<g id="a_edge63_Node000001_Node000031"><a xlink:title=" ">
<path fill="none" stroke="#63b8ff" d="M921.95,-384.95C942.62,-352.54 1016.43,-236.78 1044.53,-192.71"/>
<polygon fill="#63b8ff" stroke="#63b8ff" points="1047.51,-194.54 1049.94,-184.22 1041.61,-190.77 1047.51,-194.54"/>
</a>
</g>
</g>
<!-- Node3&#45;&gt;Node2 -->
<g id="edge41_Node000003_Node000002" class="edge">
<title>Node3&#45;&gt;Node2</title>
<g id="a_edge41_Node000003_Node000002"><a xlink:title=" ">
<path fill="none" stroke="#63b8ff" d="M1184.74,-329.96C1191.29,-311.9 1205.5,-268.34 1205.5,-230.5 1205.5,-230.5 1205.5,-230.5 1205.5,-173.5 1205.5,-139.42 1191.41,-128.05 1162.5,-110 1120.29,-83.66 981.48,-72.35 902.94,-67.97"/>
<polygon fill="#63b8ff" stroke="#63b8ff" points="902.92,-64.46 892.74,-67.42 902.54,-71.45 902.92,-64.46"/>
</a>
</g>
</g>
<!-- Node4 -->
<g id="Node000004" class="node">
<title>Node4</title>
<g id="a_Node000004"><a xlink:href="tfile_8h.html" target="_top" xlink:title=" ">
<polygon fill="white" stroke="#666666" points="1290.5,-294 1246.5,-294 1246.5,-275 1290.5,-275 1290.5,-294"/>
<text text-anchor="middle" x="1268.5" y="-282" font-family="Helvetica,sans-Serif" font-size="10.00">tfile.h</text>
</a>
</g>
</g>
<!-- Node3&#45;&gt;Node4 -->
<g id="edge3_Node000003_Node000004" class="edge">
<title>Node3&#45;&gt;Node4</title>
<g id="a_edge3_Node000003_Node000004"><a xlink:title=" ">
<path fill="none" stroke="#63b8ff" d="M1195.48,-329.98C1208.97,-321.77 1229.63,-309.18 1245.54,-299.49"/>
<polygon fill="#63b8ff" stroke="#63b8ff" points="1247.55,-302.36 1254.27,-294.17 1243.91,-296.38 1247.55,-302.36"/>
</a>
</g>
</g>
<!-- Node25 -->
<g id="Node000025" class="node">
<title>Node25</title>
<g id="a_Node000025"><a xlink:href="tbytevectorlist_8h.html" target="_top" xlink:title=" ">
<polygon fill="white" stroke="#666666" points="819,-184 722,-184 722,-165 819,-165 819,-184"/>
<text text-anchor="middle" x="770.5" y="-172" font-family="Helvetica,sans-Serif" font-size="10.00">tbytevectorlist.h</text>
</a>
</g>
</g>
<!-- Node3&#45;&gt;Node25 -->
<g id="edge37_Node000003_Node000025" class="edge">
<title>Node3&#45;&gt;Node25</title>
<g id="a_edge37_Node000003_Node000025"><a xlink:title=" ">
<path fill="none" stroke="#63b8ff" d="M1159.98,-329.97C1092.03,-303.02 881.81,-219.65 801.83,-187.92"/>
<polygon fill="#63b8ff" stroke="#63b8ff" points="802.89,-184.58 792.3,-184.15 800.31,-191.09 802.89,-184.58"/>
</a>
</g>
</g>
<!-- Node4&#45;&gt;Node2 -->
<g id="edge14_Node000004_Node000002" class="edge">
<title>Node4&#45;&gt;Node2</title>
<g id="a_edge14_Node000004_Node000002"><a xlink:title=" ">
<path fill="none" stroke="#63b8ff" d="M1269.07,-274.94C1270.45,-246.38 1270.65,-153.73 1219.5,-110 1195.89,-89.82 1000.45,-74.98 902.72,-68.75"/>
<polygon fill="#63b8ff" stroke="#63b8ff" points="902.92,-65.25 892.72,-68.12 902.48,-72.24 902.92,-65.25"/>
</a>
</g>
</g>
<!-- Node5 -->
<g id="Node000005" class="node">
<title>Node5</title>
<g id="a_Node000005"><a xlink:href="tbytevector_8h.html" target="_top" xlink:title=" ">
<polygon fill="white" stroke="#666666" points="1153,-129 1072,-129 1072,-110 1153,-110 1153,-129"/>
<text text-anchor="middle" x="1112.5" y="-117" font-family="Helvetica,sans-Serif" font-size="10.00">tbytevector.h</text>
</a>
</g>
</g>
<!-- Node4&#45;&gt;Node5 -->
<g id="edge4_Node000004_Node000005" class="edge">
<title>Node4&#45;&gt;Node5</title>
<g id="a_edge4_Node000004_Node000005"><a xlink:title=" ">
<path fill="none" stroke="#63b8ff" d="M1263.71,-274.93C1251.83,-254.22 1219.23,-200.51 1181.5,-165 1168.6,-152.85 1151.95,-142.01 1138.25,-134.07"/>
<polygon fill="#63b8ff" stroke="#63b8ff" points="1139.74,-130.9 1129.31,-129.05 1136.32,-137 1139.74,-130.9"/>
</a>
</g>
</g>
<!-- Node9 -->
<g id="Node000009" class="node">
<title>Node9</title>
<g id="a_Node000009"><a xlink:href="tiostream_8h.html" target="_top" xlink:title=" ">
<polygon fill="white" stroke="#666666" points="1383,-184 1310,-184 1310,-165 1383,-165 1383,-184"/>
<text text-anchor="middle" x="1346.5" y="-172" font-family="Helvetica,sans-Serif" font-size="10.00">tiostream.h</text>
</a>
</g>
</g>
<!-- Node4&#45;&gt;Node9 -->
<g id="edge9_Node000004_Node000009" class="edge">
<title>Node4&#45;&gt;Node9</title>
<g id="a_edge9_Node000004_Node000009"><a xlink:title=" ">
<path fill="none" stroke="#63b8ff" d="M1274.88,-274.66C1287.86,-256.69 1317.51,-215.64 1334.31,-192.38"/>
<polygon fill="#63b8ff" stroke="#63b8ff" points="1337.23,-194.31 1340.25,-184.16 1331.55,-190.22 1337.23,-194.31"/>
</a>
</g>
</g>
<!-- Node10 -->
<g id="Node000010" class="node">
<title>Node10</title>
<g id="a_Node000010"><a xlink:href="taglib_8h.html" target="_top" xlink:title=" ">
<polygon fill="white" stroke="#666666" points="1384,-74 1331,-74 1331,-55 1384,-55 1384,-74"/>
<text text-anchor="middle" x="1357.5" y="-62" font-family="Helvetica,sans-Serif" font-size="10.00">taglib.h</text>
</a>
</g>
</g>
<!-- Node4&#45;&gt;Node10 -->
<g id="edge15_Node000004_Node000010" class="edge">
<title>Node4&#45;&gt;Node10</title>
<g id="a_edge15_Node000004_Node000010"><a xlink:title=" ">
<path fill="none" stroke="#63b8ff" d="M1287.67,-274.95C1316.68,-260.82 1370.65,-229.54 1392.5,-184 1408.96,-149.68 1385.79,-106 1370.01,-82.43"/>
<polygon fill="#63b8ff" stroke="#63b8ff" points="1372.84,-80.36 1364.23,-74.18 1367.1,-84.37 1372.84,-80.36"/>
</a>
</g>
</g>
<!-- Node12 -->
<g id="Node000012" class="node">
<title>Node12</title>
<g id="a_Node000012"><a xlink:href="tag_8h.html" target="_top" xlink:title=" ">
<polygon fill="white" stroke="#666666" points="516,-239 475,-239 475,-220 516,-220 516,-239"/>
<text text-anchor="middle" x="495.5" y="-227" font-family="Helvetica,sans-Serif" font-size="10.00">tag.h</text>
</a>
</g>
</g>
<!-- Node4&#45;&gt;Node12 -->
<g id="edge16_Node000004_Node000012" class="edge">
<title>Node4&#45;&gt;Node12</title>
<g id="a_edge16_Node000004_Node000012"><a xlink:title=" ">
<path fill="none" stroke="#63b8ff" d="M1246.3,-282.43C1160,-278.18 838.54,-261.66 574.5,-239 558.57,-237.63 540.88,-235.76 526.28,-234.12"/>
<polygon fill="#63b8ff" stroke="#63b8ff" points="526.6,-230.64 516.27,-232.98 525.81,-237.59 526.6,-230.64"/>
</a>
</g>
</g>
<!-- Node5&#45;&gt;Node2 -->
<g id="edge8_Node000005_Node000002" class="edge">
<title>Node5&#45;&gt;Node2</title>
<g id="a_edge8_Node000005_Node000002"><a xlink:title=" ">
<path fill="none" stroke="#63b8ff" d="M1071.96,-110.39C1025.98,-101.2 950.84,-86.17 900.3,-76.06"/>
<polygon fill="#63b8ff" stroke="#63b8ff" points="900.72,-72.57 890.23,-74.05 899.35,-79.44 900.72,-72.57"/>
</a>
</g>
</g>
<!-- Node6 -->
<g id="Node000006" class="node">
<title>Node6</title>
<g id="a_Node000006"><a xlink:title=" ">
<polygon fill="#e0e0e0" stroke="#999999" points="635.5,-74 577.5,-74 577.5,-55 635.5,-55 635.5,-74"/>
<text text-anchor="middle" x="606.5" y="-62" font-family="Helvetica,sans-Serif" font-size="10.00">memory</text>
</a>
</g>
</g>
<!-- Node5&#45;&gt;Node6 -->
<g id="edge5_Node000005_Node000006" class="edge">
<title>Node5&#45;&gt;Node6</title>
<g id="a_edge5_Node000005_Node000006"><a xlink:title=" ">
<path fill="none" stroke="#63b8ff" d="M1071.95,-114.25C976.77,-104.28 740.02,-79.48 645.94,-69.63"/>
<polygon fill="#63b8ff" stroke="#63b8ff" points="646.03,-66.12 635.72,-68.56 645.3,-73.08 646.03,-66.12"/>
</a>
</g>
</g>
<!-- Node7 -->
<g id="Node000007" class="node">
<title>Node7</title>
<g id="a_Node000007"><a xlink:title=" ">
<polygon fill="#e0e0e0" stroke="#999999" points="1169,-74 1122,-74 1122,-55 1169,-55 1169,-74"/>
<text text-anchor="middle" x="1145.5" y="-62" font-family="Helvetica,sans-Serif" font-size="10.00">vector</text>
</a>
</g>
</g>
<!-- Node5&#45;&gt;Node7 -->
<g id="edge6_Node000005_Node000007" class="edge">
<title>Node5&#45;&gt;Node7</title>
<g id="a_edge6_Node000005_Node000007"><a xlink:title=" ">
<path fill="none" stroke="#63b8ff" d="M1117.95,-109.75C1122.51,-102.42 1129.17,-91.73 1134.79,-82.7"/>
<polygon fill="#63b8ff" stroke="#63b8ff" points="1137.84,-84.43 1140.15,-74.09 1131.9,-80.73 1137.84,-84.43"/>
</a>
</g>
</g>
<!-- Node8 -->
<g id="Node000008" class="node">
<title>Node8</title>
<g id="a_Node000008"><a xlink:title=" ">
<polygon fill="#e0e0e0" stroke="#999999" points="1103.5,-74 1055.5,-74 1055.5,-55 1103.5,-55 1103.5,-74"/>
<text text-anchor="middle" x="1079.5" y="-62" font-family="Helvetica,sans-Serif" font-size="10.00">iosfwd</text>
</a>
</g>
</g>
<!-- Node5&#45;&gt;Node8 -->
<g id="edge7_Node000005_Node000008" class="edge">
<title>Node5&#45;&gt;Node8</title>
<g id="a_edge7_Node000005_Node000008"><a xlink:title=" ">
<path fill="none" stroke="#63b8ff" d="M1107.05,-109.75C1102.49,-102.42 1095.83,-91.73 1090.21,-82.7"/>
<polygon fill="#63b8ff" stroke="#63b8ff" points="1093.1,-80.73 1084.85,-74.09 1087.16,-84.43 1093.1,-80.73"/>
</a>
</g>
</g>
<!-- Node9&#45;&gt;Node2 -->
<g id="edge11_Node000009_Node000002" class="edge">
<title>Node9&#45;&gt;Node2</title>
<g id="a_edge11_Node000009_Node000002"><a xlink:title=" ">
<path fill="none" stroke="#63b8ff" d="M1342.33,-164.66C1335.07,-150.37 1318.62,-122.53 1295.5,-110 1261.68,-91.67 1014.97,-75.22 902.77,-68.59"/>
<polygon fill="#63b8ff" stroke="#63b8ff" points="902.86,-65.09 892.67,-68 902.45,-72.08 902.86,-65.09"/>
</a>
</g>
</g>
<!-- Node9&#45;&gt;Node5 -->
<g id="edge10_Node000009_Node000005" class="edge">
<title>Node9&#45;&gt;Node5</title>
<g id="a_edge10_Node000009_Node000005"><a xlink:title=" ">
<path fill="none" stroke="#63b8ff" d="M1309.94,-165.22C1269.63,-156.09 1204.64,-141.37 1160.32,-131.33"/>
<polygon fill="#63b8ff" stroke="#63b8ff" points="1160.88,-127.87 1150.36,-129.07 1159.34,-134.7 1160.88,-127.87"/>
</a>
</g>
</g>
<!-- Node9&#45;&gt;Node10 -->
<g id="edge12_Node000009_Node000010" class="edge">
<title>Node9&#45;&gt;Node10</title>
<g id="a_edge12_Node000009_Node000010"><a xlink:title=" ">
<path fill="none" stroke="#63b8ff" d="M1347.4,-164.66C1349.18,-147.17 1353.19,-107.8 1355.59,-84.27"/>
<polygon fill="#63b8ff" stroke="#63b8ff" points="1359.09,-84.46 1356.62,-74.16 1352.12,-83.75 1359.09,-84.46"/>
</a>
</g>
</g>
<!-- Node11 -->
<g id="Node000011" class="node">
<title>Node11</title>
<g id="a_Node000011"><a xlink:title=" ">
<polygon fill="#e0e0e0" stroke="#999999" points="1393.5,-19 1321.5,-19 1321.5,0 1393.5,0 1393.5,-19"/>
<text text-anchor="middle" x="1357.5" y="-7" font-family="Helvetica,sans-Serif" font-size="10.00">sys/types.h</text>
</a>
</g>
</g>
<!-- Node10&#45;&gt;Node11 -->
<g id="edge13_Node000010_Node000011" class="edge">
<title>Node10&#45;&gt;Node11</title>
<g id="a_edge13_Node000010_Node000011"><a xlink:title=" ">
<path fill="none" stroke="#63b8ff" d="M1357.5,-54.75C1357.5,-47.8 1357.5,-37.85 1357.5,-29.13"/>
<polygon fill="#63b8ff" stroke="#63b8ff" points="1361,-29.09 1357.5,-19.09 1354,-29.09 1361,-29.09"/>
</a>
</g>
</g>
<!-- Node12&#45;&gt;Node2 -->
<g id="edge17_Node000012_Node000002" class="edge">
<title>Node12&#45;&gt;Node2</title>
<g id="a_edge17_Node000012_Node000002"><a xlink:title=" ">
<path fill="none" stroke="#63b8ff" d="M516.37,-226.04C588.3,-217.51 821.84,-189.47 827.5,-184 854.29,-158.11 853.44,-110.68 850.47,-84.36"/>
<polygon fill="#63b8ff" stroke="#63b8ff" points="853.9,-83.64 849.1,-74.2 846.97,-84.57 853.9,-83.64"/>
</a>
</g>
</g>
<!-- Node13 -->
<g id="Node000013" class="node">
<title>Node13</title>
<g id="a_Node000013"><a xlink:href="tstring_8h.html" target="_top" xlink:title=" ">
<polygon fill="white" stroke="#666666" points="562,-184 505,-184 505,-165 562,-165 562,-184"/>
<text text-anchor="middle" x="533.5" y="-172" font-family="Helvetica,sans-Serif" font-size="10.00">tstring.h</text>
</a>
</g>
</g>
<!-- Node12&#45;&gt;Node13 -->
<g id="edge18_Node000012_Node000013" class="edge">
<title>Node12&#45;&gt;Node13</title>
<g id="a_edge18_Node000012_Node000013"><a xlink:title=" ">
<path fill="none" stroke="#63b8ff" d="M501.77,-219.75C507.09,-212.34 514.86,-201.5 521.38,-192.41"/>
<polygon fill="#63b8ff" stroke="#63b8ff" points="524.36,-194.26 527.34,-184.09 518.67,-190.18 524.36,-194.26"/>
</a>
</g>
</g>
<!-- Node15 -->
<g id="Node000015" class="node">
<title>Node15</title>
<g id="a_Node000015"><a xlink:href="tlist_8h.html" target="_top" xlink:title=" ">
<polygon fill="white" stroke="#666666" points="336.5,-129 292.5,-129 292.5,-110 336.5,-110 336.5,-129"/>
<text text-anchor="middle" x="314.5" y="-117" font-family="Helvetica,sans-Serif" font-size="10.00">tlist.h</text>
</a>
</g>
</g>
<!-- Node12&#45;&gt;Node15 -->
<g id="edge22_Node000012_Node000015" class="edge">
<title>Node12&#45;&gt;Node15</title>
<g id="a_edge22_Node000012_Node000015"><a xlink:title=" ">
<path fill="none" stroke="#63b8ff" d="M474.93,-221.64C446.44,-211.95 396.66,-194.3 380.5,-184 360.07,-170.97 340.58,-150.96 328.15,-136.89"/>
<polygon fill="#63b8ff" stroke="#63b8ff" points="330.55,-134.31 321.37,-129.01 325.24,-138.87 330.55,-134.31"/>
</a>
</g>
</g>
<!-- Node19 -->
<g id="Node000019" class="node">
<title>Node19</title>
<g id="a_Node000019"><a xlink:href="tvariant_8h.html" target="_top" xlink:title=" ">
<polygon fill="white" stroke="#666666" points="486.5,-184 422.5,-184 422.5,-165 486.5,-165 486.5,-184"/>
<text text-anchor="middle" x="454.5" y="-172" font-family="Helvetica,sans-Serif" font-size="10.00">tvariant.h</text>
</a>
</g>
</g>
<!-- Node12&#45;&gt;Node19 -->
<g id="edge27_Node000012_Node000019" class="edge">
<title>Node12&#45;&gt;Node19</title>
<g id="a_edge27_Node000012_Node000019"><a xlink:title=" ">
<path fill="none" stroke="#63b8ff" d="M488.73,-219.75C482.94,-212.26 474.44,-201.28 467.36,-192.13"/>
<polygon fill="#63b8ff" stroke="#63b8ff" points="470.03,-189.86 461.14,-184.09 464.49,-194.14 470.03,-189.86"/>
</a>
</g>
</g>
<!-- Node13&#45;&gt;Node2 -->
<g id="edge21_Node000013_Node000002" class="edge">
<title>Node13&#45;&gt;Node2</title>
<g id="a_edge21_Node000013_Node000002"><a xlink:title=" ">
<path fill="none" stroke="#63b8ff" d="M551.13,-164.79C578.24,-151.65 631.98,-126.52 679.5,-110 718.89,-96.31 764.71,-84.43 798.54,-76.4"/>
<polygon fill="#63b8ff" stroke="#63b8ff" points="799.7,-79.72 808.63,-74.03 798.1,-72.91 799.7,-79.72"/>
</a>
</g>
</g>
<!-- Node13&#45;&gt;Node5 -->
<g id="edge20_Node000013_Node000005" class="edge">
<title>Node13&#45;&gt;Node5</title>
<g id="a_edge20_Node000013_Node000005"><a xlink:title=" ">
<path fill="none" stroke="#63b8ff" d="M562.1,-166.49C564.93,-165.93 567.76,-165.42 570.5,-165 770.56,-134.26 822.87,-146.73 1024.5,-129 1036.56,-127.94 1049.55,-126.72 1061.75,-125.55"/>
<polygon fill="#63b8ff" stroke="#63b8ff" points="1062.15,-129.03 1071.77,-124.58 1061.48,-122.06 1062.15,-129.03"/>
</a>
</g>
</g>
<!-- Node14 -->
<g id="Node000014" class="node">
<title>Node14</title>
<g id="a_Node000014"><a xlink:title=" ">
<polygon fill="#e0e0e0" stroke="#999999" points="568.5,-129 524.5,-129 524.5,-110 568.5,-110 568.5,-129"/>
<text text-anchor="middle" x="546.5" y="-117" font-family="Helvetica,sans-Serif" font-size="10.00">string</text>
</a>
</g>
</g>
<!-- Node13&#45;&gt;Node14 -->
<g id="edge19_Node000013_Node000014" class="edge">
<title>Node13&#45;&gt;Node14</title>
<g id="a_edge19_Node000013_Node000014"><a xlink:title=" ">
<path fill="none" stroke="#63b8ff" d="M535.65,-164.75C537.37,-157.72 539.85,-147.62 542,-138.84"/>
<polygon fill="#63b8ff" stroke="#63b8ff" points="545.41,-139.63 544.39,-129.09 538.61,-137.97 545.41,-139.63"/>
</a>
</g>
</g>
<!-- Node15&#45;&gt;Node6 -->
<g id="edge25_Node000015_Node000006" class="edge">
<title>Node15&#45;&gt;Node6</title>
<g id="a_edge25_Node000015_Node000006"><a xlink:title=" ">
<path fill="none" stroke="#63b8ff" d="M336.54,-113.08C341.14,-112.01 345.97,-110.93 350.5,-110 426.83,-94.37 516.69,-79.57 567.08,-71.6"/>
<polygon fill="#63b8ff" stroke="#63b8ff" points="567.88,-75.02 577.21,-70.01 566.79,-68.1 567.88,-75.02"/>
</a>
</g>
</g>
<!-- Node16 -->
<g id="Node000016" class="node">
<title>Node16</title>
<g id="a_Node000016"><a xlink:title=" ">
<polygon fill="#e0e0e0" stroke="#999999" points="330.5,-74 298.5,-74 298.5,-55 330.5,-55 330.5,-74"/>
<text text-anchor="middle" x="314.5" y="-62" font-family="Helvetica,sans-Serif" font-size="10.00">list</text>
</a>
</g>
</g>
<!-- Node15&#45;&gt;Node16 -->
<g id="edge23_Node000015_Node000016" class="edge">
<title>Node15&#45;&gt;Node16</title>
<g id="a_edge23_Node000015_Node000016"><a xlink:title=" ">
<path fill="none" stroke="#63b8ff" d="M314.5,-109.75C314.5,-102.8 314.5,-92.85 314.5,-84.13"/>
<polygon fill="#63b8ff" stroke="#63b8ff" points="318,-84.09 314.5,-74.09 311,-84.09 318,-84.09"/>
</a>
</g>
</g>
<!-- Node17 -->
<g id="Node000017" class="node">
<title>Node17</title>
<g id="a_Node000017"><a xlink:title=" ">
<polygon fill="#e0e0e0" stroke="#999999" points="280,-74 197,-74 197,-55 280,-55 280,-74"/>
<text text-anchor="middle" x="238.5" y="-62" font-family="Helvetica,sans-Serif" font-size="10.00">initializer_list</text>
</a>
</g>
</g>
<!-- Node15&#45;&gt;Node17 -->
<g id="edge24_Node000015_Node000017" class="edge">
<title>Node15&#45;&gt;Node17</title>
<g id="a_edge24_Node000015_Node000017"><a xlink:title=" ">
<path fill="none" stroke="#63b8ff" d="M302.29,-109.98C290.72,-101.92 273.12,-89.65 259.34,-80.03"/>
<polygon fill="#63b8ff" stroke="#63b8ff" points="261.14,-77.02 250.93,-74.17 257.13,-82.76 261.14,-77.02"/>
</a>
</g>
</g>
<!-- Node18 -->
<g id="Node000018" class="node">
<title>Node18</title>
<g id="a_Node000018"><a xlink:title=" ">
<polygon fill="#e0e0e0" stroke="#999999" points="402,-74 349,-74 349,-55 402,-55 402,-74"/>
<text text-anchor="middle" x="375.5" y="-62" font-family="Helvetica,sans-Serif" font-size="10.00">tlist.tcc</text>
</a>
</g>
</g>
<!-- Node15&#45;&gt;Node18 -->
<g id="edge26_Node000015_Node000018" class="edge">
<title>Node15&#45;&gt;Node18</title>
<g id="a_edge26_Node000015_Node000018"><a xlink:title=" ">
<path fill="none" stroke="#63b8ff" d="M324.3,-109.98C333.32,-102.15 346.91,-90.34 357.82,-80.86"/>
<polygon fill="#63b8ff" stroke="#63b8ff" points="360.27,-83.37 365.52,-74.17 355.68,-78.09 360.27,-83.37"/>
</a>
</g>
</g>
<!-- Node19&#45;&gt;Node2 -->
<g id="edge36_Node000019_Node000002" class="edge">
<title>Node19&#45;&gt;Node2</title>
<g id="a_edge36_Node000019_Node000002"><a xlink:title=" ">
<path fill="none" stroke="#63b8ff" d="M460,-164.74C469.43,-150.55 490.14,-122.86 515.5,-110 562.69,-86.07 710.54,-73.67 792.1,-68.51"/>
<polygon fill="#63b8ff" stroke="#63b8ff" points="792.43,-71.99 802.19,-67.88 791.99,-65.01 792.43,-71.99"/>
</a>
</g>
</g>
<!-- Node19&#45;&gt;Node15 -->
<g id="edge29_Node000019_Node000015" class="edge">
<title>Node19&#45;&gt;Node15</title>
<g id="a_edge29_Node000019_Node000015"><a xlink:title=" ">
<path fill="none" stroke="#63b8ff" d="M432.01,-164.98C408.84,-156.21 372.53,-142.47 346.4,-132.58"/>
<polygon fill="#63b8ff" stroke="#63b8ff" points="347.53,-129.26 336.94,-128.99 345.05,-135.81 347.53,-129.26"/>
</a>
</g>
</g>
<!-- Node20 -->
<g id="Node000020" class="node">
<title>Node20</title>
<g id="a_Node000020"><a xlink:title=" ">
<polygon fill="#e0e0e0" stroke="#999999" points="468.5,-129 412.5,-129 412.5,-110 468.5,-110 468.5,-129"/>
<text text-anchor="middle" x="440.5" y="-117" font-family="Helvetica,sans-Serif" font-size="10.00">sstream</text>
</a>
</g>
</g>
<!-- Node19&#45;&gt;Node20 -->
<g id="edge28_Node000019_Node000020" class="edge">
<title>Node19&#45;&gt;Node20</title>
<g id="a_edge28_Node000019_Node000020"><a xlink:title=" ">
<path fill="none" stroke="#63b8ff" d="M452.19,-164.75C450.33,-157.72 447.66,-147.62 445.35,-138.84"/>
<polygon fill="#63b8ff" stroke="#63b8ff" points="448.71,-137.86 442.77,-129.09 441.94,-139.65 448.71,-137.86"/>
</a>
</g>
</g>
<!-- Node21 -->
<g id="Node000021" class="node">
<title>Node21</title>
<g id="a_Node000021"><a xlink:href="tmap_8h.html" target="_top" xlink:title=" ">
<polygon fill="white" stroke="#666666" points="138,-129 87,-129 87,-110 138,-110 138,-129"/>
<text text-anchor="middle" x="112.5" y="-117" font-family="Helvetica,sans-Serif" font-size="10.00">tmap.h</text>
</a>
</g>
</g>
<!-- Node19&#45;&gt;Node21 -->
<g id="edge30_Node000019_Node000021" class="edge">
<title>Node19&#45;&gt;Node21</title>
<g id="a_edge30_Node000019_Node000021"><a xlink:title=" ">
<path fill="none" stroke="#63b8ff" d="M422.33,-168.51C358.24,-158.58 215.1,-136.4 148.22,-126.03"/>
<polygon fill="#63b8ff" stroke="#63b8ff" points="148.58,-122.55 138.16,-124.48 147.51,-129.47 148.58,-122.55"/>
</a>
</g>
</g>
<!-- Node21&#45;&gt;Node6 -->
<g id="edge32_Node000021_Node000006" class="edge">
<title>Node21&#45;&gt;Node6</title>
<g id="a_edge32_Node000021_Node000006"><a xlink:title=" ">
<path fill="none" stroke="#63b8ff" d="M138.24,-112.59C142.97,-111.63 147.87,-110.72 152.5,-110 304.8,-86.43 487.89,-72.98 566.96,-67.88"/>
<polygon fill="#63b8ff" stroke="#63b8ff" points="567.65,-71.35 577.41,-67.22 567.21,-64.36 567.65,-71.35"/>
</a>
</g>
</g>
<!-- Node21&#45;&gt;Node17 -->
<g id="edge33_Node000021_Node000017" class="edge">
<title>Node21&#45;&gt;Node17</title>
<g id="a_edge33_Node000021_Node000017"><a xlink:title=" ">
<path fill="none" stroke="#63b8ff" d="M132.74,-109.98C153.2,-101.38 185.03,-87.99 208.43,-78.15"/>
<polygon fill="#63b8ff" stroke="#63b8ff" points="210.03,-81.27 217.89,-74.17 207.31,-74.82 210.03,-81.27"/>
</a>
</g>
</g>
<!-- Node22 -->
<g id="Node000022" class="node">
<title>Node22</title>
<g id="a_Node000022"><a xlink:title=" ">
<polygon fill="#e0e0e0" stroke="#999999" points="178.5,-74 140.5,-74 140.5,-55 178.5,-55 178.5,-74"/>
<text text-anchor="middle" x="159.5" y="-62" font-family="Helvetica,sans-Serif" font-size="10.00">map</text>
</a>
</g>
</g>
<!-- Node21&#45;&gt;Node22 -->
<g id="edge31_Node000021_Node000022" class="edge">
<title>Node21&#45;&gt;Node22</title>
<g id="a_edge31_Node000021_Node000022"><a xlink:title=" ">
<path fill="none" stroke="#63b8ff" d="M120.26,-109.75C126.97,-102.18 136.84,-91.05 145.01,-81.84"/>
<polygon fill="#63b8ff" stroke="#63b8ff" points="147.87,-83.89 151.88,-74.09 142.63,-79.25 147.87,-83.89"/>
</a>
</g>
</g>
<!-- Node23 -->
<g id="Node000023" class="node">
<title>Node23</title>
<g id="a_Node000023"><a xlink:title=" ">
<polygon fill="#e0e0e0" stroke="#999999" points="45,-74 0,-74 0,-55 45,-55 45,-74"/>
<text text-anchor="middle" x="22.5" y="-62" font-family="Helvetica,sans-Serif" font-size="10.00">utility</text>
</a>
</g>
</g>
<!-- Node21&#45;&gt;Node23 -->
<g id="edge34_Node000021_Node000023" class="edge">
<title>Node21&#45;&gt;Node23</title>
<g id="a_edge34_Node000021_Node000023"><a xlink:title=" ">
<path fill="none" stroke="#63b8ff" d="M98.04,-109.98C84.08,-101.77 62.71,-89.18 46.25,-79.49"/>
<polygon fill="#63b8ff" stroke="#63b8ff" points="47.62,-76.23 37.22,-74.17 44.06,-82.26 47.62,-76.23"/>
</a>
</g>
</g>
<!-- Node24 -->
<g id="Node000024" class="node">
<title>Node24</title>
<g id="a_Node000024"><a xlink:title=" ">
<polygon fill="#e0e0e0" stroke="#999999" points="122,-74 63,-74 63,-55 122,-55 122,-74"/>
<text text-anchor="middle" x="92.5" y="-62" font-family="Helvetica,sans-Serif" font-size="10.00">tmap.tcc</text>
</a>
</g>
</g>
<!-- Node21&#45;&gt;Node24 -->
<g id="edge35_Node000021_Node000024" class="edge">
<title>Node21&#45;&gt;Node24</title>
<g id="a_edge35_Node000021_Node000024"><a xlink:title=" ">
<path fill="none" stroke="#63b8ff" d="M109.2,-109.75C106.52,-102.65 102.65,-92.4 99.31,-83.56"/>
<polygon fill="#63b8ff" stroke="#63b8ff" points="102.55,-82.21 95.74,-74.09 96,-84.68 102.55,-82.21"/>
</a>
</g>
</g>
<!-- Node25&#45;&gt;Node2 -->
<g id="edge40_Node000025_Node000002" class="edge">
<title>Node25&#45;&gt;Node2</title>
<g id="a_edge40_Node000025_Node000002"><a xlink:title=" ">
<path fill="none" stroke="#63b8ff" d="M776.8,-164.66C789.61,-146.69 818.88,-105.64 835.46,-82.38"/>
<polygon fill="#63b8ff" stroke="#63b8ff" points="838.37,-84.33 841.33,-74.16 832.67,-80.27 838.37,-84.33"/>
</a>
</g>
</g>
<!-- Node25&#45;&gt;Node5 -->
<g id="edge38_Node000025_Node000005" class="edge">
<title>Node25&#45;&gt;Node5</title>
<g id="a_edge38_Node000025_Node000005"><a xlink:title=" ">
<path fill="none" stroke="#63b8ff" d="M819.14,-165.96C883.47,-155.99 996.32,-138.5 1061.71,-128.37"/>
<polygon fill="#63b8ff" stroke="#63b8ff" points="1062.44,-131.8 1071.78,-126.81 1061.37,-124.88 1062.44,-131.8"/>
</a>
</g>
</g>
<!-- Node25&#45;&gt;Node15 -->
<g id="edge39_Node000025_Node000015" class="edge">
<title>Node25&#45;&gt;Node15</title>
<g id="a_edge39_Node000025_Node000015"><a xlink:title=" ">
<path fill="none" stroke="#63b8ff" d="M721.7,-167.83C628.22,-156.96 426.17,-133.48 347.13,-124.29"/>
<polygon fill="#63b8ff" stroke="#63b8ff" points="347.16,-120.77 336.82,-123.09 346.35,-127.73 347.16,-120.77"/>
</a>
</g>
</g>
<!-- Node26&#45;&gt;Node2 -->
<g id="edge52_Node000026_Node000002" class="edge">
<title>Node26&#45;&gt;Node2</title>
<g id="a_edge52_Node000026_Node000002"><a xlink:title=" ">
<path fill="none" stroke="#63b8ff" d="M448.88,-281.42C410.95,-277.59 357.79,-267.14 320.5,-239 272.89,-203.07 243.02,-153.8 283.5,-110 300.61,-91.48 653.21,-74.04 792.03,-67.86"/>
<polygon fill="#63b8ff" stroke="#63b8ff" points="792.21,-71.36 802.05,-67.42 791.9,-64.36 792.21,-71.36"/>
</a>
</g>
</g>
<!-- Node26&#45;&gt;Node5 -->
<g id="edge51_Node000026_Node000005" class="edge">
<title>Node26&#45;&gt;Node5</title>
<g id="a_edge51_Node000026_Node000005"><a xlink:title=" ">
<path fill="none" stroke="#63b8ff" d="M542.19,-283.63C675.55,-282.9 1053.46,-272.9 1129.5,-184 1140.47,-171.17 1133.09,-151.98 1124.91,-138.05"/>
<polygon fill="#63b8ff" stroke="#63b8ff" points="1127.69,-135.9 1119.32,-129.39 1121.8,-139.69 1127.69,-135.9"/>
</a>
</g>
</g>
<!-- Node26&#45;&gt;Node12 -->
<g id="edge53_Node000026_Node000012" class="edge">
<title>Node26&#45;&gt;Node12</title>
<g id="a_edge53_Node000026_Node000012"><a xlink:title=" ">
<path fill="none" stroke="#63b8ff" d="M495.5,-274.75C495.5,-267.8 495.5,-257.85 495.5,-249.13"/>
<polygon fill="#63b8ff" stroke="#63b8ff" points="499,-249.09 495.5,-239.09 492,-249.09 499,-249.09"/>
</a>
</g>
</g>
<!-- Node26&#45;&gt;Node13 -->
<g id="edge45_Node000026_Node000013" class="edge">
<title>Node26&#45;&gt;Node13</title>
<g id="a_edge45_Node000026_Node000013"><a xlink:title=" ">
<path fill="none" stroke="#63b8ff" d="M502.74,-274.93C509.53,-266.39 519.38,-252.64 524.5,-239 529.95,-224.49 532.13,-206.98 532.99,-194.03"/>
<polygon fill="#63b8ff" stroke="#63b8ff" points="536.49,-194.16 533.45,-184.01 529.5,-193.83 536.49,-194.16"/>
</a>
</g>
</g>
<!-- Node26&#45;&gt;Node15 -->
<g id="edge43_Node000026_Node000015" class="edge">
<title>Node26&#45;&gt;Node15</title>
<g id="a_edge43_Node000026_Node000015"><a xlink:title=" ">
<path fill="none" stroke="#63b8ff" d="M448.94,-276.19C399.76,-265.6 325.29,-240.63 295.5,-184 287.74,-169.25 294.84,-150.86 302.48,-137.68"/>
<polygon fill="#63b8ff" stroke="#63b8ff" points="305.5,-139.44 307.92,-129.12 299.6,-135.68 305.5,-139.44"/>
</a>
</g>
</g>
<!-- Node26&#45;&gt;Node21 -->
<g id="edge44_Node000026_Node000021" class="edge">
<title>Node26&#45;&gt;Node21</title>
<g id="a_edge44_Node000026_Node000021"><a xlink:title=" ">
<path fill="none" stroke="#63b8ff" d="M448.98,-281.33C374.47,-277.1 232.48,-265.72 190.5,-239 152.88,-215.06 129.46,-165.71 118.97,-138.87"/>
<polygon fill="#63b8ff" stroke="#63b8ff" points="122.13,-137.33 115.37,-129.18 115.57,-139.77 122.13,-137.33"/>
</a>
</g>
</g>
<!-- Node27 -->
<g id="Node000027" class="node">
<title>Node27</title>
<g id="a_Node000027"><a xlink:href="tstringlist_8h.html" target="_top" xlink:title=" ">
<polygon fill="white" stroke="#666666" points="456.5,-239 384.5,-239 384.5,-220 456.5,-220 456.5,-239"/>
<text text-anchor="middle" x="420.5" y="-227" font-family="Helvetica,sans-Serif" font-size="10.00">tstringlist.h</text>
</a>
</g>
</g>
<!-- Node26&#45;&gt;Node27 -->
<g id="edge46_Node000026_Node000027" class="edge">
<title>Node26&#45;&gt;Node27</title>
<g id="a_edge46_Node000026_Node000027"><a xlink:title=" ">
<path fill="none" stroke="#63b8ff" d="M483.45,-274.98C472.04,-266.92 454.67,-254.65 441.07,-245.03"/>
<polygon fill="#63b8ff" stroke="#63b8ff" points="442.96,-242.08 432.77,-239.17 438.92,-247.8 442.96,-242.08"/>
</a>
</g>
</g>
<!-- Node28 -->
<g id="Node000028" class="node">
<title>Node28</title>
<g id="a_Node000028"><a xlink:href="flacpicture_8h.html" target="_top" xlink:title=" ">
<polygon fill="white" stroke="#666666" points="661,-239 584,-239 584,-220 661,-220 661,-239"/>
<text text-anchor="middle" x="622.5" y="-227" font-family="Helvetica,sans-Serif" font-size="10.00">flacpicture.h</text>
</a>
</g>
</g>
<!-- Node26&#45;&gt;Node28 -->
<g id="edge54_Node000026_Node000028" class="edge">
<title>Node26&#45;&gt;Node28</title>
<g id="a_edge54_Node000026_Node000028"><a xlink:title=" ">
<path fill="none" stroke="#63b8ff" d="M515.9,-274.98C536.52,-266.38 568.61,-252.99 592.19,-243.15"/>
<polygon fill="#63b8ff" stroke="#63b8ff" points="593.84,-246.25 601.72,-239.17 591.15,-239.79 593.84,-246.25"/>
</a>
</g>
</g>
<!-- Node27&#45;&gt;Node2 -->
<g id="edge50_Node000027_Node000002" class="edge">
<title>Node27&#45;&gt;Node2</title>
<g id="a_edge50_Node000027_Node000002"><a xlink:title=" ">
<path fill="none" stroke="#63b8ff" d="M415.16,-219.71C402.74,-198.02 375.05,-141.44 403.5,-110 416.4,-95.75 676.26,-76.84 792.33,-69.07"/>
<polygon fill="#63b8ff" stroke="#63b8ff" points="792.69,-72.55 802.44,-68.4 792.23,-65.57 792.69,-72.55"/>
</a>
</g>
</g>
<!-- Node27&#45;&gt;Node13 -->
<g id="edge47_Node000027_Node000013" class="edge">
<title>Node27&#45;&gt;Node13</title>
<g id="a_edge47_Node000027_Node000013"><a xlink:title=" ">
<path fill="none" stroke="#63b8ff" d="M438.66,-219.98C456.75,-211.5 484.78,-198.35 505.69,-188.54"/>
<polygon fill="#63b8ff" stroke="#63b8ff" points="507.45,-191.59 515.01,-184.17 504.47,-185.25 507.45,-191.59"/>
</a>
</g>
</g>
<!-- Node27&#45;&gt;Node15 -->
<g id="edge48_Node000027_Node000015" class="edge">
<title>Node27&#45;&gt;Node15</title>
<g id="a_edge48_Node000027_Node000015"><a xlink:title=" ">
<path fill="none" stroke="#63b8ff" d="M384.26,-225.24C357.32,-220.7 322.28,-209.86 304.5,-184 295.33,-170.66 299.76,-152.06 305.32,-138.43"/>
<polygon fill="#63b8ff" stroke="#63b8ff" points="308.59,-139.7 309.59,-129.15 302.23,-136.78 308.59,-139.7"/>
</a>
</g>
</g>
<!-- Node27&#45;&gt;Node25 -->
<g id="edge49_Node000027_Node000025" class="edge">
<title>Node27&#45;&gt;Node25</title>
<g id="a_edge49_Node000027_Node000025"><a xlink:title=" ">
<path fill="none" stroke="#63b8ff" d="M456.83,-221.5C459.76,-220.98 462.68,-220.47 465.5,-220 550.82,-205.73 650,-191.73 711.52,-183.36"/>
<polygon fill="#63b8ff" stroke="#63b8ff" points="712.37,-186.78 721.8,-181.97 711.42,-179.84 712.37,-186.78"/>
</a>
</g>
</g>
<!-- Node28&#45;&gt;Node2 -->
<g id="edge59_Node000028_Node000002" class="edge">
<title>Node28&#45;&gt;Node2</title>
<g id="a_edge59_Node000028_Node000002"><a xlink:title=" ">
<path fill="none" stroke="#63b8ff" d="M634.28,-219.97C670.65,-193.62 781.45,-113.35 827.3,-80.13"/>
<polygon fill="#63b8ff" stroke="#63b8ff" points="829.52,-82.85 835.56,-74.15 825.41,-77.18 829.52,-82.85"/>
</a>
</g>
</g>
<!-- Node28&#45;&gt;Node5 -->
<g id="edge57_Node000028_Node000005" class="edge">
<title>Node28&#45;&gt;Node5</title>
<g id="a_edge57_Node000028_Node000005"><a xlink:title=" ">
<path fill="none" stroke="#63b8ff" d="M661.14,-227.85C771.11,-225.63 1079.87,-216.51 1110.5,-184 1121.48,-172.34 1120.65,-153.49 1117.87,-139.34"/>
<polygon fill="#63b8ff" stroke="#63b8ff" points="1121.18,-138.13 1115.42,-129.24 1114.38,-139.78 1121.18,-138.13"/>
</a>
</g>
</g>
<!-- Node28&#45;&gt;Node13 -->
<g id="edge56_Node000028_Node000013" class="edge">
<title>Node28&#45;&gt;Node13</title>
<g id="a_edge56_Node000028_Node000013"><a xlink:title=" ">
<path fill="none" stroke="#63b8ff" d="M608.2,-219.98C594.4,-211.77 573.26,-199.18 556.99,-189.49"/>
<polygon fill="#63b8ff" stroke="#63b8ff" points="558.44,-186.28 548.06,-184.17 554.86,-192.29 558.44,-186.28"/>
</a>
</g>
</g>
<!-- Node28&#45;&gt;Node15 -->
<g id="edge55_Node000028_Node000015" class="edge">
<title>Node28&#45;&gt;Node15</title>
<g id="a_edge55_Node000028_Node000015"><a xlink:title=" ">
<path fill="none" stroke="#63b8ff" d="M583.9,-224.5C541,-219.1 470.29,-207.35 413.5,-184 405.31,-180.63 362.73,-152.65 336.15,-134.97"/>
<polygon fill="#63b8ff" stroke="#63b8ff" points="337.76,-131.84 327.5,-129.21 333.88,-137.67 337.76,-131.84"/>
</a>
</g>
</g>
<!-- Node29 -->
<g id="Node000029" class="node">
<title>Node29</title>
<g id="a_Node000029"><a xlink:href="tpicturetype_8h.html" target="_top" xlink:title=" ">
<polygon fill="white" stroke="#666666" points="665,-184 580,-184 580,-165 665,-165 665,-184"/>
<text text-anchor="middle" x="622.5" y="-172" font-family="Helvetica,sans-Serif" font-size="10.00">tpicturetype.h</text>
</a>
</g>
</g>
<!-- Node28&#45;&gt;Node29 -->
<g id="edge58_Node000028_Node000029" class="edge">
<title>Node28&#45;&gt;Node29</title>
<g id="a_edge58_Node000028_Node000029"><a xlink:title=" ">
<path fill="none" stroke="#63b8ff" d="M622.5,-219.75C622.5,-212.8 622.5,-202.85 622.5,-194.13"/>
<polygon fill="#63b8ff" stroke="#63b8ff" points="626,-194.09 622.5,-184.09 619,-194.09 626,-194.09"/>
</a>
</g>
</g>
<!-- Node30 -->
<g id="Node000030" class="node">
<title>Node30</title>
<g id="a_Node000030"><a xlink:href="flacmetadatablock_8h.html" target="_top" xlink:title=" ">
<polygon fill="white" stroke="#666666" points="991.5,-184 875.5,-184 875.5,-165 991.5,-165 991.5,-184"/>
<text text-anchor="middle" x="933.5" y="-172" font-family="Helvetica,sans-Serif" font-size="10.00">flacmetadatablock.h</text>
</a>
</g>
</g>
<!-- Node28&#45;&gt;Node30 -->
<g id="edge60_Node000028_Node000030" class="edge">
<title>Node28&#45;&gt;Node30</title>
<g id="a_edge60_Node000028_Node000030"><a xlink:title=" ">
<path fill="none" stroke="#63b8ff" d="M661.26,-221.89C714.47,-212.83 810.67,-196.43 873.3,-185.76"/>
<polygon fill="#63b8ff" stroke="#63b8ff" points="874.16,-189.16 883.43,-184.03 872.99,-182.26 874.16,-189.16"/>
</a>
</g>
</g>
<!-- Node30&#45;&gt;Node2 -->
<g id="edge62_Node000030_Node000002" class="edge">
<title>Node30&#45;&gt;Node2</title>
<g id="a_edge62_Node000030_Node000002"><a xlink:title=" ">
<path fill="none" stroke="#63b8ff" d="M926.46,-164.66C912.09,-146.61 879.17,-105.28 860.7,-82.08"/>
<polygon fill="#63b8ff" stroke="#63b8ff" points="863.36,-79.8 854.39,-74.16 857.89,-84.16 863.36,-79.8"/>
</a>
</g>
</g>
<!-- Node30&#45;&gt;Node5 -->
<g id="edge61_Node000030_Node000005" class="edge">
<title>Node30&#45;&gt;Node5</title>
<g id="a_edge61_Node000030_Node000005"><a xlink:title=" ">
<path fill="none" stroke="#63b8ff" d="M962.26,-164.98C992.44,-156.05 1040.07,-141.94 1073.6,-132.02"/>
<polygon fill="#63b8ff" stroke="#63b8ff" points="1074.92,-135.28 1083.52,-129.08 1072.93,-128.57 1074.92,-135.28"/>
</a>
</g>
</g>
<!-- Node31&#45;&gt;Node2 -->
<g id="edge65_Node000031_Node000002" class="edge">
<title>Node31&#45;&gt;Node2</title>
<g id="a_edge65_Node000031_Node000002"><a xlink:title=" ">
<path fill="none" stroke="#63b8ff" d="M1053.68,-164.63C1050.38,-150.8 1042.03,-124.22 1024.5,-110 990.31,-82.27 941.1,-71.53 903.24,-67.51"/>
<polygon fill="#63b8ff" stroke="#63b8ff" points="903.16,-63.99 892.88,-66.54 902.51,-70.96 903.16,-63.99"/>
</a>
</g>
</g>
<!-- Node31&#45;&gt;Node5 -->
<g id="edge64_Node000031_Node000005" class="edge">
<title>Node31&#45;&gt;Node5</title>
<g id="a_edge64_Node000031_Node000005"><a xlink:title=" ">
<path fill="none" stroke="#63b8ff" d="M1064.66,-164.98C1073,-157.23 1085.53,-145.58 1095.68,-136.14"/>
<polygon fill="#63b8ff" stroke="#63b8ff" points="1098.24,-138.54 1103.18,-129.17 1093.47,-133.42 1098.24,-138.54"/>
</a>
</g>
</g>
<!-- Node32 -->
<g id="Node000032" class="node">
<title>Node32</title>
<g id="a_Node000032"><a xlink:href="audioproperties_8h.html" target="_top" xlink:title=" ">
<polygon fill="white" stroke="#666666" points="1015.5,-129 913.5,-129 913.5,-110 1015.5,-110 1015.5,-129"/>
<text text-anchor="middle" x="964.5" y="-117" font-family="Helvetica,sans-Serif" font-size="10.00">audioproperties.h</text>
</a>
</g>
</g>
<!-- Node31&#45;&gt;Node32 -->
<g id="edge66_Node000031_Node000032" class="edge">
<title>Node31&#45;&gt;Node32</title>
<g id="a_edge66_Node000031_Node000032"><a xlink:title=" ">
<path fill="none" stroke="#63b8ff" d="M1040.88,-164.98C1026.64,-156.69 1004.75,-143.94 988.05,-134.22"/>
<polygon fill="#63b8ff" stroke="#63b8ff" points="989.79,-131.18 979.39,-129.17 986.27,-137.23 989.79,-131.18"/>
</a>
</g>
</g>
<!-- Node32&#45;&gt;Node2 -->
<g id="edge69_Node000032_Node000002" class="edge">
<title>Node32&#45;&gt;Node2</title>
<g id="a_edge69_Node000032_Node000002"><a xlink:title=" ">
<path fill="none" stroke="#63b8ff" d="M945.7,-109.98C926.88,-101.46 897.68,-88.23 876,-78.41"/>
<polygon fill="#63b8ff" stroke="#63b8ff" points="877.19,-75.11 866.64,-74.17 874.3,-81.48 877.19,-75.11"/>
</a>
</g>
</g>
<!-- Node32&#45;&gt;Node6 -->
<g id="edge67_Node000032_Node000006" class="edge">
<title>Node32&#45;&gt;Node6</title>
<g id="a_edge67_Node000032_Node000006"><a xlink:title=" ">
<path fill="none" stroke="#63b8ff" d="M913.21,-110.91C841.05,-100.22 711.12,-80.99 645.98,-71.34"/>
<polygon fill="#63b8ff" stroke="#63b8ff" points="646.13,-67.83 635.73,-69.83 645.11,-74.75 646.13,-67.83"/>
</a>
</g>
</g>
<!-- Node32&#45;&gt;Node10 -->
<g id="edge68_Node000032_Node000010" class="edge">
<title>Node32&#45;&gt;Node10</title>
<g id="a_edge68_Node000032_Node000010"><a xlink:title=" ">
<path fill="none" stroke="#63b8ff" d="M1015.88,-111.57C1096.42,-100.71 1250.47,-79.93 1320.82,-70.45"/>
<polygon fill="#63b8ff" stroke="#63b8ff" points="1321.53,-73.88 1330.97,-69.08 1320.6,-66.95 1321.53,-73.88"/>
</a>
</g>
</g>
</g>
</svg>
