<?xml version="1.0" encoding="UTF-8" standalone="no"?>
<!DOCTYPE svg PUBLIC "-//W3C//DTD SVG 1.1//EN"
 "http://www.w3.org/Graphics/SVG/1.1/DTD/svg11.dtd">
<!-- Generated by graphviz version 2.43.0 (0)
 -->
<!-- Title: oggfile.h Pages: 1 -->
<svg width="601pt" height="364pt"
 viewBox="0.00 0.00 601.00 364.00" xmlns="http://www.w3.org/2000/svg" xmlns:xlink="http://www.w3.org/1999/xlink">
<g id="graph0" class="graph" transform="scale(1 1) rotate(0) translate(4 360)">
<title>oggfile.h</title>
<polygon fill="white" stroke="transparent" points="-4,4 -4,-360 597,-360 597,4 -4,4"/>
<!-- Node1 -->
<g id="node1" class="node">
<title>Node1</title>
<g id="a_node1"><a xlink:title=" ">
<polygon fill="#bfbfbf" stroke="black" points="200.5,-336.5 200.5,-355.5 259.5,-355.5 259.5,-336.5 200.5,-336.5"/>
<text text-anchor="middle" x="230" y="-343.5" font-family="Helvetica,sans-Serif" font-size="10.00">oggfile.h</text>
</a>
</g>
</g>
<!-- Node2 -->
<g id="node2" class="node">
<title>Node2</title>
<g id="a_node2"><a xlink:href="taglib__export_8h.html" target="_top" xlink:title=" ">
<polygon fill="white" stroke="black" points="97,-56.5 97,-75.5 187,-75.5 187,-56.5 97,-56.5"/>
<text text-anchor="middle" x="142" y="-63.5" font-family="Helvetica,sans-Serif" font-size="10.00">taglib_export.h</text>
</a>
</g>
</g>
<!-- Node1&#45;&gt;Node2 -->
<g id="edge1" class="edge">
<title>Node1&#45;&gt;Node2</title>
<path fill="none" stroke="midnightblue" d="M200.4,-344.14C138.28,-340.6 0,-322.86 0,-235 0,-235 0,-235 0,-177 0,-125.07 60.09,-94.15 102.09,-78.89"/>
<polygon fill="midnightblue" stroke="midnightblue" points="103.24,-82.19 111.54,-75.6 100.94,-75.58 103.24,-82.19"/>
</g>
<!-- Node3 -->
<g id="node3" class="node">
<title>Node3</title>
<g id="a_node3"><a xlink:href="tfile_8h.html" target="_top" xlink:title=" ">
<polygon fill="white" stroke="black" points="208,-280.5 208,-299.5 252,-299.5 252,-280.5 208,-280.5"/>
<text text-anchor="middle" x="230" y="-287.5" font-family="Helvetica,sans-Serif" font-size="10.00">tfile.h</text>
</a>
</g>
</g>
<!-- Node1&#45;&gt;Node3 -->
<g id="edge2" class="edge">
<title>Node1&#45;&gt;Node3</title>
<path fill="none" stroke="midnightblue" d="M230,-336.08C230,-329.01 230,-318.86 230,-309.99"/>
<polygon fill="midnightblue" stroke="midnightblue" points="233.5,-309.75 230,-299.75 226.5,-309.75 233.5,-309.75"/>
</g>
<!-- Node13 -->
<g id="node13" class="node">
<title>Node13</title>
<g id="a_node13"><a xlink:href="tbytevectorlist_8h.html" target="_top" xlink:title=" ">
<polygon fill="white" stroke="black" points="349.5,-168.5 349.5,-187.5 446.5,-187.5 446.5,-168.5 349.5,-168.5"/>
<text text-anchor="middle" x="398" y="-175.5" font-family="Helvetica,sans-Serif" font-size="10.00">tbytevectorlist.h</text>
</a>
</g>
</g>
<!-- Node1&#45;&gt;Node13 -->
<g id="edge24" class="edge">
<title>Node1&#45;&gt;Node13</title>
<path fill="none" stroke="midnightblue" d="M239.03,-336.08C266.16,-309.27 347.21,-229.19 381.92,-194.89"/>
<polygon fill="midnightblue" stroke="midnightblue" points="384.68,-197.09 389.33,-187.57 379.76,-192.11 384.68,-197.09"/>
</g>
<!-- Node3&#45;&gt;Node2 -->
<g id="edge3" class="edge">
<title>Node3&#45;&gt;Node2</title>
<path fill="none" stroke="midnightblue" d="M207.8,-282.78C188.31,-276.21 160.55,-263.99 144,-244 106.19,-198.35 114.35,-170.31 125,-112 126.69,-102.76 130.17,-92.95 133.55,-84.85"/>
<polygon fill="midnightblue" stroke="midnightblue" points="136.76,-86.25 137.63,-75.69 130.37,-83.4 136.76,-86.25"/>
</g>
<!-- Node4 -->
<g id="node4" class="node">
<title>Node4</title>
<g id="a_node4"><a xlink:href="taglib_8h.html" target="_top" xlink:title=" ">
<polygon fill="white" stroke="black" points="391.5,-56.5 391.5,-75.5 444.5,-75.5 444.5,-56.5 391.5,-56.5"/>
<text text-anchor="middle" x="418" y="-63.5" font-family="Helvetica,sans-Serif" font-size="10.00">taglib.h</text>
</a>
</g>
</g>
<!-- Node3&#45;&gt;Node4 -->
<g id="edge4" class="edge">
<title>Node3&#45;&gt;Node4</title>
<path fill="none" stroke="midnightblue" d="M252.06,-286.84C299.27,-280.88 409.59,-259.58 456,-188 477.66,-154.6 449.77,-108.02 431.52,-83.54"/>
<polygon fill="midnightblue" stroke="midnightblue" points="434.24,-81.34 425.34,-75.59 428.71,-85.63 434.24,-81.34"/>
</g>
<!-- Node7 -->
<g id="node7" class="node">
<title>Node7</title>
<g id="a_node7"><a xlink:href="tag_8h.html" target="_top" xlink:title=" ">
<polygon fill="white" stroke="black" points="152.5,-224.5 152.5,-243.5 193.5,-243.5 193.5,-224.5 152.5,-224.5"/>
<text text-anchor="middle" x="173" y="-231.5" font-family="Helvetica,sans-Serif" font-size="10.00">tag.h</text>
</a>
</g>
</g>
<!-- Node3&#45;&gt;Node7 -->
<g id="edge7" class="edge">
<title>Node3&#45;&gt;Node7</title>
<path fill="none" stroke="midnightblue" d="M220.84,-280.32C212.5,-272.42 199.97,-260.55 189.82,-250.94"/>
<polygon fill="midnightblue" stroke="midnightblue" points="191.99,-248.17 182.32,-243.83 187.18,-253.25 191.99,-248.17"/>
</g>
<!-- Node9 -->
<g id="node9" class="node">
<title>Node9</title>
<g id="a_node9"><a xlink:href="tbytevector_8h.html" target="_top" xlink:title=" ">
<polygon fill="white" stroke="black" points="256.5,-112.5 256.5,-131.5 337.5,-131.5 337.5,-112.5 256.5,-112.5"/>
<text text-anchor="middle" x="297" y="-119.5" font-family="Helvetica,sans-Serif" font-size="10.00">tbytevector.h</text>
</a>
</g>
</g>
<!-- Node3&#45;&gt;Node9 -->
<g id="edge19" class="edge">
<title>Node3&#45;&gt;Node9</title>
<path fill="none" stroke="midnightblue" d="M229.62,-280.2C229.08,-259.39 229.93,-206.04 250,-168 256.2,-156.25 266.61,-145.81 276.07,-137.94"/>
<polygon fill="midnightblue" stroke="midnightblue" points="278.29,-140.65 284,-131.73 273.97,-135.14 278.29,-140.65"/>
</g>
<!-- Node12 -->
<g id="node12" class="node">
<title>Node12</title>
<g id="a_node12"><a xlink:href="tiostream_8h.html" target="_top" xlink:title=" ">
<polygon fill="white" stroke="black" points="258.5,-168.5 258.5,-187.5 331.5,-187.5 331.5,-168.5 258.5,-168.5"/>
<text text-anchor="middle" x="295" y="-175.5" font-family="Helvetica,sans-Serif" font-size="10.00">tiostream.h</text>
</a>
</g>
</g>
<!-- Node3&#45;&gt;Node12 -->
<g id="edge20" class="edge">
<title>Node3&#45;&gt;Node12</title>
<path fill="none" stroke="midnightblue" d="M235.1,-280.37C245.78,-262.3 270.67,-220.18 284.77,-196.31"/>
<polygon fill="midnightblue" stroke="midnightblue" points="287.85,-197.98 289.92,-187.59 281.82,-194.42 287.85,-197.98"/>
</g>
<!-- Node5 -->
<g id="node5" class="node">
<title>Node5</title>
<g id="a_node5"><a xlink:title=" ">
<polygon fill="white" stroke="#bfbfbf" points="374,-0.5 374,-19.5 462,-19.5 462,-0.5 374,-0.5"/>
<text text-anchor="middle" x="418" y="-7.5" font-family="Helvetica,sans-Serif" font-size="10.00">taglib_config.h</text>
</a>
</g>
</g>
<!-- Node4&#45;&gt;Node5 -->
<g id="edge5" class="edge">
<title>Node4&#45;&gt;Node5</title>
<path fill="none" stroke="midnightblue" d="M418,-56.08C418,-49.01 418,-38.86 418,-29.99"/>
<polygon fill="midnightblue" stroke="midnightblue" points="421.5,-29.75 418,-19.75 414.5,-29.75 421.5,-29.75"/>
</g>
<!-- Node6 -->
<g id="node6" class="node">
<title>Node6</title>
<g id="a_node6"><a xlink:title=" ">
<polygon fill="white" stroke="#bfbfbf" points="171,-0.5 171,-19.5 215,-19.5 215,-0.5 171,-0.5"/>
<text text-anchor="middle" x="193" y="-7.5" font-family="Helvetica,sans-Serif" font-size="10.00">string</text>
</a>
</g>
</g>
<!-- Node4&#45;&gt;Node6 -->
<g id="edge6" class="edge">
<title>Node4&#45;&gt;Node6</title>
<path fill="none" stroke="midnightblue" d="M391.31,-58.59C349.73,-48.61 269.65,-29.4 225.03,-18.69"/>
<polygon fill="midnightblue" stroke="midnightblue" points="225.82,-15.28 215.28,-16.35 224.19,-22.08 225.82,-15.28"/>
</g>
<!-- Node7&#45;&gt;Node2 -->
<g id="edge8" class="edge">
<title>Node7&#45;&gt;Node2</title>
<path fill="none" stroke="midnightblue" d="M162.56,-224.24C153.58,-215.97 141.25,-202.66 136,-188 123.63,-153.47 130.9,-109.84 136.79,-85.53"/>
<polygon fill="midnightblue" stroke="midnightblue" points="140.25,-86.1 139.4,-75.54 133.48,-84.33 140.25,-86.1"/>
</g>
<!-- Node8 -->
<g id="node8" class="node">
<title>Node8</title>
<g id="a_node8"><a xlink:href="tstring_8h.html" target="_top" xlink:title=" ">
<polygon fill="white" stroke="black" points="144.5,-168.5 144.5,-187.5 201.5,-187.5 201.5,-168.5 144.5,-168.5"/>
<text text-anchor="middle" x="173" y="-175.5" font-family="Helvetica,sans-Serif" font-size="10.00">tstring.h</text>
</a>
</g>
</g>
<!-- Node7&#45;&gt;Node8 -->
<g id="edge9" class="edge">
<title>Node7&#45;&gt;Node8</title>
<path fill="none" stroke="midnightblue" d="M173,-224.08C173,-217.01 173,-206.86 173,-197.99"/>
<polygon fill="midnightblue" stroke="midnightblue" points="176.5,-197.75 173,-187.75 169.5,-197.75 176.5,-197.75"/>
</g>
<!-- Node8&#45;&gt;Node2 -->
<g id="edge10" class="edge">
<title>Node8&#45;&gt;Node2</title>
<path fill="none" stroke="midnightblue" d="M170.57,-168.37C165.54,-150.54 153.92,-109.3 147.15,-85.27"/>
<polygon fill="midnightblue" stroke="midnightblue" points="150.5,-84.27 144.42,-75.59 143.77,-86.17 150.5,-84.27"/>
</g>
<!-- Node8&#45;&gt;Node4 -->
<g id="edge11" class="edge">
<title>Node8&#45;&gt;Node4</title>
<path fill="none" stroke="midnightblue" d="M201.67,-173.91C237.5,-169.11 299.83,-157.6 347,-132 369.84,-119.61 391.13,-98.29 404.32,-83.46"/>
<polygon fill="midnightblue" stroke="midnightblue" points="407.22,-85.45 411.11,-75.6 401.92,-80.88 407.22,-85.45"/>
</g>
<!-- Node8&#45;&gt;Node6 -->
<g id="edge17" class="edge">
<title>Node8&#45;&gt;Node6</title>
<path fill="none" stroke="midnightblue" d="M158.52,-168.32C127.51,-148.61 59.74,-98.86 88,-56 104.05,-31.66 136.29,-20.44 160.83,-15.29"/>
<polygon fill="midnightblue" stroke="midnightblue" points="161.62,-18.7 170.81,-13.44 160.34,-11.82 161.62,-18.7"/>
</g>
<!-- Node8&#45;&gt;Node9 -->
<g id="edge12" class="edge">
<title>Node8&#45;&gt;Node9</title>
<path fill="none" stroke="midnightblue" d="M192.65,-168.44C212.96,-159.6 244.9,-145.69 268.1,-135.59"/>
<polygon fill="midnightblue" stroke="midnightblue" points="269.67,-138.72 277.44,-131.52 266.88,-132.3 269.67,-138.72"/>
</g>
<!-- Node11 -->
<g id="node11" class="node">
<title>Node11</title>
<g id="a_node11"><a xlink:title=" ">
<polygon fill="white" stroke="#bfbfbf" points="205,-56.5 205,-75.5 265,-75.5 265,-56.5 205,-56.5"/>
<text text-anchor="middle" x="235" y="-63.5" font-family="Helvetica,sans-Serif" font-size="10.00">iostream</text>
</a>
</g>
</g>
<!-- Node8&#45;&gt;Node11 -->
<g id="edge18" class="edge">
<title>Node8&#45;&gt;Node11</title>
<path fill="none" stroke="midnightblue" d="M177.87,-168.37C188.05,-150.3 211.79,-108.18 225.24,-84.31"/>
<polygon fill="midnightblue" stroke="midnightblue" points="228.3,-86.02 230.16,-75.59 222.2,-82.58 228.3,-86.02"/>
</g>
<!-- Node9&#45;&gt;Node2 -->
<g id="edge14" class="edge">
<title>Node9&#45;&gt;Node2</title>
<path fill="none" stroke="midnightblue" d="M272.44,-112.44C246.48,-103.4 205.33,-89.06 176.2,-78.92"/>
<polygon fill="midnightblue" stroke="midnightblue" points="177.04,-75.5 166.45,-75.52 174.74,-82.11 177.04,-75.5"/>
</g>
<!-- Node9&#45;&gt;Node4 -->
<g id="edge13" class="edge">
<title>Node9&#45;&gt;Node4</title>
<path fill="none" stroke="midnightblue" d="M316.17,-112.44C335.91,-103.64 366.89,-89.81 389.49,-79.72"/>
<polygon fill="midnightblue" stroke="midnightblue" points="391.21,-82.79 398.92,-75.52 388.36,-76.4 391.21,-82.79"/>
</g>
<!-- Node10 -->
<g id="node10" class="node">
<title>Node10</title>
<g id="a_node10"><a xlink:title=" ">
<polygon fill="white" stroke="#bfbfbf" points="283.5,-56.5 283.5,-75.5 330.5,-75.5 330.5,-56.5 283.5,-56.5"/>
<text text-anchor="middle" x="307" y="-63.5" font-family="Helvetica,sans-Serif" font-size="10.00">vector</text>
</a>
</g>
</g>
<!-- Node9&#45;&gt;Node10 -->
<g id="edge15" class="edge">
<title>Node9&#45;&gt;Node10</title>
<path fill="none" stroke="midnightblue" d="M298.65,-112.08C299.98,-104.93 301.88,-94.64 303.54,-85.69"/>
<polygon fill="midnightblue" stroke="midnightblue" points="307,-86.22 305.38,-75.75 300.12,-84.95 307,-86.22"/>
</g>
<!-- Node9&#45;&gt;Node11 -->
<g id="edge16" class="edge">
<title>Node9&#45;&gt;Node11</title>
<path fill="none" stroke="midnightblue" d="M287.04,-112.32C277.87,-104.34 264.06,-92.31 252.97,-82.65"/>
<polygon fill="midnightblue" stroke="midnightblue" points="254.98,-79.76 245.14,-75.83 250.38,-85.04 254.98,-79.76"/>
</g>
<!-- Node12&#45;&gt;Node2 -->
<g id="edge21" class="edge">
<title>Node12&#45;&gt;Node2</title>
<path fill="none" stroke="midnightblue" d="M282.99,-168.37C256.85,-149.57 194.53,-104.77 162.21,-81.53"/>
<polygon fill="midnightblue" stroke="midnightblue" points="164.11,-78.59 153.95,-75.59 160.03,-84.27 164.11,-78.59"/>
</g>
<!-- Node12&#45;&gt;Node4 -->
<g id="edge22" class="edge">
<title>Node12&#45;&gt;Node4</title>
<path fill="none" stroke="midnightblue" d="M331.68,-168.5C364.11,-160.15 407.81,-146.58 418,-132 427.28,-118.72 426.15,-99.88 423.37,-85.9"/>
<polygon fill="midnightblue" stroke="midnightblue" points="426.71,-84.83 420.95,-75.93 419.91,-86.48 426.71,-84.83"/>
</g>
<!-- Node12&#45;&gt;Node9 -->
<g id="edge23" class="edge">
<title>Node12&#45;&gt;Node9</title>
<path fill="none" stroke="midnightblue" d="M295.33,-168.08C295.59,-161.01 295.97,-150.86 296.3,-141.99"/>
<polygon fill="midnightblue" stroke="midnightblue" points="299.8,-141.87 296.68,-131.75 292.81,-141.61 299.8,-141.87"/>
</g>
<!-- Node13&#45;&gt;Node2 -->
<g id="edge25" class="edge">
<title>Node13&#45;&gt;Node2</title>
<path fill="none" stroke="midnightblue" d="M393.71,-168.26C386.28,-154.07 369.59,-126.19 347,-112 334.3,-104.02 253.17,-87.7 196.86,-77.06"/>
<polygon fill="midnightblue" stroke="midnightblue" points="197.48,-73.62 187.01,-75.21 196.19,-80.49 197.48,-73.62"/>
</g>
<!-- Node13&#45;&gt;Node9 -->
<g id="edge26" class="edge">
<title>Node13&#45;&gt;Node9</title>
<path fill="none" stroke="midnightblue" d="M381.77,-168.32C365.65,-159.7 340.7,-146.36 322.04,-136.39"/>
<polygon fill="midnightblue" stroke="midnightblue" points="323.66,-133.28 313.19,-131.65 320.36,-139.46 323.66,-133.28"/>
</g>
<!-- Node14 -->
<g id="node14" class="node">
<title>Node14</title>
<g id="a_node14"><a xlink:href="tlist_8h.html" target="_top" xlink:title=" ">
<polygon fill="white" stroke="black" points="508,-112.5 508,-131.5 552,-131.5 552,-112.5 508,-112.5"/>
<text text-anchor="middle" x="530" y="-119.5" font-family="Helvetica,sans-Serif" font-size="10.00">tlist.h</text>
</a>
</g>
</g>
<!-- Node13&#45;&gt;Node14 -->
<g id="edge27" class="edge">
<title>Node13&#45;&gt;Node14</title>
<path fill="none" stroke="midnightblue" d="M418.92,-168.44C440.74,-159.52 475.15,-145.44 499.89,-135.32"/>
<polygon fill="midnightblue" stroke="midnightblue" points="501.25,-138.54 509.18,-131.52 498.6,-132.06 501.25,-138.54"/>
</g>
<!-- Node14&#45;&gt;Node4 -->
<g id="edge28" class="edge">
<title>Node14&#45;&gt;Node4</title>
<path fill="none" stroke="midnightblue" d="M512.01,-112.32C493.96,-103.62 465.95,-90.12 445.2,-80.11"/>
<polygon fill="midnightblue" stroke="midnightblue" points="446.48,-76.84 435.95,-75.65 443.44,-83.15 446.48,-76.84"/>
</g>
<!-- Node15 -->
<g id="node15" class="node">
<title>Node15</title>
<g id="a_node15"><a xlink:title=" ">
<polygon fill="white" stroke="#bfbfbf" points="561,-56.5 561,-75.5 593,-75.5 593,-56.5 561,-56.5"/>
<text text-anchor="middle" x="577" y="-63.5" font-family="Helvetica,sans-Serif" font-size="10.00">list</text>
</a>
</g>
</g>
<!-- Node14&#45;&gt;Node15 -->
<g id="edge29" class="edge">
<title>Node14&#45;&gt;Node15</title>
<path fill="none" stroke="midnightblue" d="M537.76,-112.08C544.54,-104.3 554.54,-92.8 562.76,-83.37"/>
<polygon fill="midnightblue" stroke="midnightblue" points="565.46,-85.59 569.38,-75.75 560.18,-81 565.46,-85.59"/>
</g>
<!-- Node16 -->
<g id="node16" class="node">
<title>Node16</title>
<g id="a_node16"><a xlink:title=" ">
<polygon fill="white" stroke="#bfbfbf" points="489.5,-56.5 489.5,-75.5 542.5,-75.5 542.5,-56.5 489.5,-56.5"/>
<text text-anchor="middle" x="516" y="-63.5" font-family="Helvetica,sans-Serif" font-size="10.00">tlist.tcc</text>
</a>
</g>
</g>
<!-- Node14&#45;&gt;Node16 -->
<g id="edge30" class="edge">
<title>Node14&#45;&gt;Node16</title>
<path fill="none" stroke="midnightblue" d="M527.69,-112.08C525.83,-104.93 523.16,-94.64 520.85,-85.69"/>
<polygon fill="midnightblue" stroke="midnightblue" points="524.17,-84.55 518.27,-75.75 517.39,-86.31 524.17,-84.55"/>
</g>
</g>
</svg>
