<?xml version="1.0" encoding="UTF-8" standalone="no"?>
<!DOCTYPE svg PUBLIC "-//W3C//DTD SVG 1.1//EN"
 "http://www.w3.org/Graphics/SVG/1.1/DTD/svg11.dtd">
<!-- Generated by graphviz version 2.42.4 (0)
 -->
<!-- Title: opusfile.h Pages: 1 -->
<svg width="1369pt" height="357pt"
 viewBox="0.00 0.00 1369.00 357.00" xmlns="http://www.w3.org/2000/svg" xmlns:xlink="http://www.w3.org/1999/xlink">
<g id="graph0" class="graph" transform="scale(1 1) rotate(0) translate(4 353)">
<title>opusfile.h</title>
<!-- Node1 -->
<g id="Node000001" class="node">
<title>Node1</title>
<g id="a_Node000001"><a xlink:title=" ">
<polygon fill="#999999" stroke="#666666" points="297,-349 233,-349 233,-330 297,-330 297,-349"/>
<text text-anchor="middle" x="265" y="-337" font-family="Helvetica,sans-Serif" font-size="10.00">opusfile.h</text>
</a>
</g>
</g>
<!-- Node2 -->
<g id="Node000002" class="node">
<title>Node2</title>
<g id="a_Node000002"><a xlink:href="oggfile_8h.html" target="_top" xlink:title=" ">
<polygon fill="white" stroke="#666666" points="197.5,-294 138.5,-294 138.5,-275 197.5,-275 197.5,-294"/>
<text text-anchor="middle" x="168" y="-282" font-family="Helvetica,sans-Serif" font-size="10.00">oggfile.h</text>
</a>
</g>
</g>
<!-- Node1&#45;&gt;Node2 -->
<g id="edge1_Node000001_Node000002" class="edge">
<title>Node1&#45;&gt;Node2</title>
<g id="a_edge1_Node000001_Node000002"><a xlink:title=" ">
<path fill="none" stroke="#63b8ff" d="M249.42,-329.98C234.23,-321.69 210.9,-308.94 193.1,-299.22"/>
<polygon fill="#63b8ff" stroke="#63b8ff" points="194.32,-295.89 183.87,-294.17 190.97,-302.04 194.32,-295.89"/>
</a>
</g>
</g>
<!-- Node25 -->
<g id="Node000025" class="node">
<title>Node25</title>
<g id="a_Node000025"><a xlink:href="xiphcomment_8h.html" target="_top" xlink:title=" ">
<polygon fill="white" stroke="#666666" points="837.5,-239 744.5,-239 744.5,-220 837.5,-220 837.5,-239"/>
<text text-anchor="middle" x="791" y="-227" font-family="Helvetica,sans-Serif" font-size="10.00">xiphcomment.h</text>
</a>
</g>
</g>
<!-- Node1&#45;&gt;Node25 -->
<g id="edge41_Node000001_Node000025" class="edge">
<title>Node1&#45;&gt;Node25</title>
<g id="a_edge41_Node000001_Node000025"><a xlink:title=" ">
<path fill="none" stroke="#63b8ff" d="M297.11,-331.91C385.27,-313.81 631.65,-263.22 739.42,-241.09"/>
<polygon fill="#63b8ff" stroke="#63b8ff" points="740.32,-244.48 749.41,-239.04 738.91,-237.62 740.32,-244.48"/>
</a>
</g>
</g>
<!-- Node30 -->
<g id="Node000030" class="node">
<title>Node30</title>
<g id="a_Node000030"><a xlink:href="opusproperties_8h.html" target="_top" xlink:title=" ">
<polygon fill="white" stroke="#666666" points="314,-294 216,-294 216,-275 314,-275 314,-294"/>
<text text-anchor="middle" x="265" y="-282" font-family="Helvetica,sans-Serif" font-size="10.00">opusproperties.h</text>
</a>
</g>
</g>
<!-- Node1&#45;&gt;Node30 -->
<g id="edge62_Node000001_Node000030" class="edge">
<title>Node1&#45;&gt;Node30</title>
<g id="a_edge62_Node000001_Node000030"><a xlink:title=" ">
<path fill="none" stroke="#63b8ff" d="M265,-329.75C265,-322.8 265,-312.85 265,-304.13"/>
<polygon fill="#63b8ff" stroke="#63b8ff" points="268.5,-304.09 265,-294.09 261.5,-304.09 268.5,-304.09"/>
</a>
</g>
</g>
<!-- Node3 -->
<g id="Node000003" class="node">
<title>Node3</title>
<g id="a_Node000003"><a xlink:href="tfile_8h.html" target="_top" xlink:title=" ">
<polygon fill="white" stroke="#666666" points="190,-239 146,-239 146,-220 190,-220 190,-239"/>
<text text-anchor="middle" x="168" y="-227" font-family="Helvetica,sans-Serif" font-size="10.00">tfile.h</text>
</a>
</g>
</g>
<!-- Node2&#45;&gt;Node3 -->
<g id="edge2_Node000002_Node000003" class="edge">
<title>Node2&#45;&gt;Node3</title>
<g id="a_edge2_Node000002_Node000003"><a xlink:title=" ">
<path fill="none" stroke="#63b8ff" d="M168,-274.75C168,-267.8 168,-257.85 168,-249.13"/>
<polygon fill="#63b8ff" stroke="#63b8ff" points="171.5,-249.09 168,-239.09 164.5,-249.09 171.5,-249.09"/>
</a>
</g>
</g>
<!-- Node8 -->
<g id="Node000008" class="node">
<title>Node8</title>
<g id="a_Node000008"><a xlink:href="taglib__export_8h.html" target="_top" xlink:title=" ">
<polygon fill="white" stroke="#666666" points="523,-19 433,-19 433,0 523,0 523,-19"/>
<text text-anchor="middle" x="478" y="-7" font-family="Helvetica,sans-Serif" font-size="10.00">taglib_export.h</text>
</a>
</g>
</g>
<!-- Node2&#45;&gt;Node8 -->
<g id="edge40_Node000002_Node000008" class="edge">
<title>Node2&#45;&gt;Node8</title>
<g id="a_edge40_Node000002_Node000008"><a xlink:title=" ">
<path fill="none" stroke="#63b8ff" d="M138.35,-278.4C90.12,-268.23 0,-240.51 0,-175.5 0,-175.5 0,-175.5 0,-118.5 0,-85.38 10.95,-72.61 39,-55 101.57,-15.72 319.05,-10.37 422.5,-10.12"/>
<polygon fill="#63b8ff" stroke="#63b8ff" points="422.75,-13.62 432.75,-10.11 422.74,-6.62 422.75,-13.62"/>
</a>
</g>
</g>
<!-- Node24 -->
<g id="Node000024" class="node">
<title>Node24</title>
<g id="a_Node000024"><a xlink:href="tbytevectorlist_8h.html" target="_top" xlink:title=" ">
<polygon fill="white" stroke="#666666" points="1030.5,-129 933.5,-129 933.5,-110 1030.5,-110 1030.5,-129"/>
<text text-anchor="middle" x="982" y="-117" font-family="Helvetica,sans-Serif" font-size="10.00">tbytevectorlist.h</text>
</a>
</g>
</g>
<!-- Node2&#45;&gt;Node24 -->
<g id="edge36_Node000002_Node000024" class="edge">
<title>Node2&#45;&gt;Node24</title>
<g id="a_edge36_Node000002_Node000024"><a xlink:title=" ">
<path fill="none" stroke="#63b8ff" d="M197.72,-276.51C200.84,-275.93 203.98,-275.41 207,-275 489.29,-236.55 572.68,-315.9 847,-239 896.97,-224.99 913.74,-221.13 950,-184 962.39,-171.32 970.95,-152.88 976.07,-139.14"/>
<polygon fill="#63b8ff" stroke="#63b8ff" points="979.51,-139.92 979.46,-129.32 972.89,-137.63 979.51,-139.92"/>
</a>
</g>
</g>
<!-- Node4 -->
<g id="Node000004" class="node">
<title>Node4</title>
<g id="a_Node000004"><a xlink:href="tbytevector_8h.html" target="_top" xlink:title=" ">
<polygon fill="white" stroke="#666666" points="717.5,-74 636.5,-74 636.5,-55 717.5,-55 717.5,-74"/>
<text text-anchor="middle" x="677" y="-62" font-family="Helvetica,sans-Serif" font-size="10.00">tbytevector.h</text>
</a>
</g>
</g>
<!-- Node3&#45;&gt;Node4 -->
<g id="edge3_Node000003_Node000004" class="edge">
<title>Node3&#45;&gt;Node4</title>
<g id="a_edge3_Node000003_Node000004"><a xlink:title=" ">
<path fill="none" stroke="#63b8ff" d="M185.63,-219.97C230.35,-198.63 352.23,-142.33 459,-110 515.25,-92.97 581.64,-80.46 626.25,-73.12"/>
<polygon fill="#63b8ff" stroke="#63b8ff" points="626.95,-76.55 636.26,-71.5 625.83,-69.64 626.95,-76.55"/>
</a>
</g>
</g>
<!-- Node3&#45;&gt;Node8 -->
<g id="edge13_Node000003_Node000008" class="edge">
<title>Node3&#45;&gt;Node8</title>
<g id="a_edge13_Node000003_Node000008"><a xlink:title=" ">
<path fill="none" stroke="#63b8ff" d="M167,-219.83C165.06,-198.9 162.87,-144.74 187,-110 239.65,-34.19 353.89,-15.39 422.53,-11.18"/>
<polygon fill="#63b8ff" stroke="#63b8ff" points="422.93,-14.66 432.73,-10.64 422.56,-7.67 422.93,-14.66"/>
</a>
</g>
</g>
<!-- Node9 -->
<g id="Node000009" class="node">
<title>Node9</title>
<g id="a_Node000009"><a xlink:href="tiostream_8h.html" target="_top" xlink:title=" ">
<polygon fill="white" stroke="#666666" points="139.5,-129 66.5,-129 66.5,-110 139.5,-110 139.5,-129"/>
<text text-anchor="middle" x="103" y="-117" font-family="Helvetica,sans-Serif" font-size="10.00">tiostream.h</text>
</a>
</g>
</g>
<!-- Node3&#45;&gt;Node9 -->
<g id="edge8_Node000003_Node000009" class="edge">
<title>Node3&#45;&gt;Node9</title>
<g id="a_edge8_Node000003_Node000009"><a xlink:title=" ">
<path fill="none" stroke="#63b8ff" d="M162.68,-219.66C151.96,-201.85 127.6,-161.37 113.54,-138.01"/>
<polygon fill="#63b8ff" stroke="#63b8ff" points="116.37,-135.92 108.21,-129.16 110.37,-139.53 116.37,-135.92"/>
</a>
</g>
</g>
<!-- Node10 -->
<g id="Node000010" class="node">
<title>Node10</title>
<g id="a_Node000010"><a xlink:href="taglib_8h.html" target="_top" xlink:title=" ">
<polygon fill="white" stroke="#666666" points="101.5,-74 48.5,-74 48.5,-55 101.5,-55 101.5,-74"/>
<text text-anchor="middle" x="75" y="-62" font-family="Helvetica,sans-Serif" font-size="10.00">taglib.h</text>
</a>
</g>
</g>
<!-- Node3&#45;&gt;Node10 -->
<g id="edge14_Node000003_Node000010" class="edge">
<title>Node3&#45;&gt;Node10</title>
<g id="a_edge14_Node000003_Node000010"><a xlink:title=" ">
<path fill="none" stroke="#63b8ff" d="M151.63,-219.87C125.8,-205.21 76.52,-172.72 57,-129 50.37,-114.16 56.62,-96.27 63.5,-83.27"/>
<polygon fill="#63b8ff" stroke="#63b8ff" points="66.66,-84.8 68.69,-74.41 60.62,-81.27 66.66,-84.8"/>
</a>
</g>
</g>
<!-- Node12 -->
<g id="Node000012" class="node">
<title>Node12</title>
<g id="a_Node000012"><a xlink:href="tag_8h.html" target="_top" xlink:title=" ">
<polygon fill="white" stroke="#666666" points="762.5,-184 721.5,-184 721.5,-165 762.5,-165 762.5,-184"/>
<text text-anchor="middle" x="742" y="-172" font-family="Helvetica,sans-Serif" font-size="10.00">tag.h</text>
</a>
</g>
</g>
<!-- Node3&#45;&gt;Node12 -->
<g id="edge15_Node000003_Node000012" class="edge">
<title>Node3&#45;&gt;Node12</title>
<g id="a_edge15_Node000003_Node000012"><a xlink:title=" ">
<path fill="none" stroke="#63b8ff" d="M190.02,-228.3C263.11,-227.32 504.37,-221.4 711.09,-184.01"/>
<polygon fill="#63b8ff" stroke="#63b8ff" points="712.01,-187.39 721.21,-182.14 710.75,-180.51 712.01,-187.39"/>
</a>
</g>
</g>
<!-- Node5 -->
<g id="Node000005" class="node">
<title>Node5</title>
<g id="a_Node000005"><a xlink:title=" ">
<polygon fill="#e0e0e0" stroke="#999999" points="934,-19 876,-19 876,0 934,0 934,-19"/>
<text text-anchor="middle" x="905" y="-7" font-family="Helvetica,sans-Serif" font-size="10.00">memory</text>
</a>
</g>
</g>
<!-- Node4&#45;&gt;Node5 -->
<g id="edge4_Node000004_Node000005" class="edge">
<title>Node4&#45;&gt;Node5</title>
<g id="a_edge4_Node000004_Node000005"><a xlink:title=" ">
<path fill="none" stroke="#63b8ff" d="M713.63,-54.98C755.35,-45.29 823.25,-29.5 865.95,-19.58"/>
<polygon fill="#63b8ff" stroke="#63b8ff" points="866.76,-22.98 875.71,-17.31 865.17,-16.16 866.76,-22.98"/>
</a>
</g>
</g>
<!-- Node6 -->
<g id="Node000006" class="node">
<title>Node6</title>
<g id="a_Node000006"><a xlink:title=" ">
<polygon fill="#e0e0e0" stroke="#999999" points="700.5,-19 653.5,-19 653.5,0 700.5,0 700.5,-19"/>
<text text-anchor="middle" x="677" y="-7" font-family="Helvetica,sans-Serif" font-size="10.00">vector</text>
</a>
</g>
</g>
<!-- Node4&#45;&gt;Node6 -->
<g id="edge5_Node000004_Node000006" class="edge">
<title>Node4&#45;&gt;Node6</title>
<g id="a_edge5_Node000004_Node000006"><a xlink:title=" ">
<path fill="none" stroke="#63b8ff" d="M677,-54.75C677,-47.8 677,-37.85 677,-29.13"/>
<polygon fill="#63b8ff" stroke="#63b8ff" points="680.5,-29.09 677,-19.09 673.5,-29.09 680.5,-29.09"/>
</a>
</g>
</g>
<!-- Node7 -->
<g id="Node000007" class="node">
<title>Node7</title>
<g id="a_Node000007"><a xlink:title=" ">
<polygon fill="#e0e0e0" stroke="#999999" points="843,-19 795,-19 795,0 843,0 843,-19"/>
<text text-anchor="middle" x="819" y="-7" font-family="Helvetica,sans-Serif" font-size="10.00">iosfwd</text>
</a>
</g>
</g>
<!-- Node4&#45;&gt;Node7 -->
<g id="edge6_Node000004_Node000007" class="edge">
<title>Node4&#45;&gt;Node7</title>
<g id="a_edge6_Node000004_Node000007"><a xlink:title=" ">
<path fill="none" stroke="#63b8ff" d="M699.81,-54.98C723.17,-46.27 759.7,-32.63 786.17,-22.75"/>
<polygon fill="#63b8ff" stroke="#63b8ff" points="787.63,-25.95 795.77,-19.17 785.18,-19.39 787.63,-25.95"/>
</a>
</g>
</g>
<!-- Node4&#45;&gt;Node8 -->
<g id="edge7_Node000004_Node000008" class="edge">
<title>Node4&#45;&gt;Node8</title>
<g id="a_edge7_Node000004_Node000008"><a xlink:title=" ">
<path fill="none" stroke="#63b8ff" d="M645.03,-54.98C611.18,-45.97 557.6,-31.7 520.29,-21.76"/>
<polygon fill="#63b8ff" stroke="#63b8ff" points="520.79,-18.27 510.22,-19.08 518.99,-25.04 520.79,-18.27"/>
</a>
</g>
</g>
<!-- Node9&#45;&gt;Node4 -->
<g id="edge9_Node000009_Node000004" class="edge">
<title>Node9&#45;&gt;Node4</title>
<g id="a_edge9_Node000009_Node000004"><a xlink:title=" ">
<path fill="none" stroke="#63b8ff" d="M139.79,-114.69C154.47,-113.2 171.53,-111.48 187,-110 347.31,-94.61 537.26,-77.75 626.24,-69.94"/>
<polygon fill="#63b8ff" stroke="#63b8ff" points="626.68,-73.41 636.33,-69.05 626.06,-66.44 626.68,-73.41"/>
</a>
</g>
</g>
<!-- Node9&#45;&gt;Node8 -->
<g id="edge10_Node000009_Node000008" class="edge">
<title>Node9&#45;&gt;Node8</title>
<g id="a_edge10_Node000009_Node000008"><a xlink:title=" ">
<path fill="none" stroke="#63b8ff" d="M107.22,-109.76C114.56,-95.61 131.12,-67.96 154,-55 198.74,-29.66 342.35,-17.9 422.54,-13.19"/>
<polygon fill="#63b8ff" stroke="#63b8ff" points="423.15,-16.66 432.94,-12.6 422.76,-9.67 423.15,-16.66"/>
</a>
</g>
</g>
<!-- Node9&#45;&gt;Node10 -->
<g id="edge11_Node000009_Node000010" class="edge">
<title>Node9&#45;&gt;Node10</title>
<g id="a_edge11_Node000009_Node000010"><a xlink:title=" ">
<path fill="none" stroke="#63b8ff" d="M98.38,-109.75C94.54,-102.49 88.98,-91.95 84.24,-82.98"/>
<polygon fill="#63b8ff" stroke="#63b8ff" points="87.3,-81.3 79.54,-74.09 81.11,-84.57 87.3,-81.3"/>
</a>
</g>
</g>
<!-- Node11 -->
<g id="Node000011" class="node">
<title>Node11</title>
<g id="a_Node000011"><a xlink:title=" ">
<polygon fill="#e0e0e0" stroke="#999999" points="111,-19 39,-19 39,0 111,0 111,-19"/>
<text text-anchor="middle" x="75" y="-7" font-family="Helvetica,sans-Serif" font-size="10.00">sys/types.h</text>
</a>
</g>
</g>
<!-- Node10&#45;&gt;Node11 -->
<g id="edge12_Node000010_Node000011" class="edge">
<title>Node10&#45;&gt;Node11</title>
<g id="a_edge12_Node000010_Node000011"><a xlink:title=" ">
<path fill="none" stroke="#63b8ff" d="M75,-54.75C75,-47.8 75,-37.85 75,-29.13"/>
<polygon fill="#63b8ff" stroke="#63b8ff" points="78.5,-29.09 75,-19.09 71.5,-29.09 78.5,-29.09"/>
</a>
</g>
</g>
<!-- Node12&#45;&gt;Node8 -->
<g id="edge16_Node000012_Node000008" class="edge">
<title>Node12&#45;&gt;Node8</title>
<g id="a_edge16_Node000012_Node000008"><a xlink:title=" ">
<path fill="none" stroke="#63b8ff" d="M721.5,-167.09C718.66,-166.32 715.77,-165.6 713,-165 657.28,-152.95 496.38,-172.05 459,-129 434.4,-100.67 453.81,-53.55 467.49,-28.1"/>
<polygon fill="#63b8ff" stroke="#63b8ff" points="470.64,-29.64 472.52,-19.21 464.55,-26.19 470.64,-29.64"/>
</a>
</g>
</g>
<!-- Node13 -->
<g id="Node000013" class="node">
<title>Node13</title>
<g id="a_Node000013"><a xlink:href="tstring_8h.html" target="_top" xlink:title=" ">
<polygon fill="white" stroke="#666666" points="800.5,-129 743.5,-129 743.5,-110 800.5,-110 800.5,-129"/>
<text text-anchor="middle" x="772" y="-117" font-family="Helvetica,sans-Serif" font-size="10.00">tstring.h</text>
</a>
</g>
</g>
<!-- Node12&#45;&gt;Node13 -->
<g id="edge17_Node000012_Node000013" class="edge">
<title>Node12&#45;&gt;Node13</title>
<g id="a_edge17_Node000012_Node000013"><a xlink:title=" ">
<path fill="none" stroke="#63b8ff" d="M746.95,-164.75C751.06,-157.49 757.03,-146.95 762.1,-137.98"/>
<polygon fill="#63b8ff" stroke="#63b8ff" points="765.26,-139.52 767.14,-129.09 759.17,-136.07 765.26,-139.52"/>
</a>
</g>
</g>
<!-- Node15 -->
<g id="Node000015" class="node">
<title>Node15</title>
<g id="a_Node000015"><a xlink:href="tlist_8h.html" target="_top" xlink:title=" ">
<polygon fill="white" stroke="#666666" points="1102,-74 1058,-74 1058,-55 1102,-55 1102,-74"/>
<text text-anchor="middle" x="1080" y="-62" font-family="Helvetica,sans-Serif" font-size="10.00">tlist.h</text>
</a>
</g>
</g>
<!-- Node12&#45;&gt;Node15 -->
<g id="edge21_Node000012_Node000015" class="edge">
<title>Node12&#45;&gt;Node15</title>
<g id="a_edge21_Node000012_Node000015"><a xlink:title=" ">
<path fill="none" stroke="#63b8ff" d="M762.76,-171.83C840.41,-165.49 1109.91,-142.58 1122,-129 1135.54,-113.78 1117.55,-93.87 1101.09,-80.43"/>
<polygon fill="#63b8ff" stroke="#63b8ff" points="1102.86,-77.38 1092.8,-74.05 1098.59,-82.93 1102.86,-77.38"/>
</a>
</g>
</g>
<!-- Node19 -->
<g id="Node000019" class="node">
<title>Node19</title>
<g id="a_Node000019"><a xlink:href="tvariant_8h.html" target="_top" xlink:title=" ">
<polygon fill="white" stroke="#666666" points="1113,-129 1049,-129 1049,-110 1113,-110 1113,-129"/>
<text text-anchor="middle" x="1081" y="-117" font-family="Helvetica,sans-Serif" font-size="10.00">tvariant.h</text>
</a>
</g>
</g>
<!-- Node12&#45;&gt;Node19 -->
<g id="edge26_Node000012_Node000019" class="edge">
<title>Node12&#45;&gt;Node19</title>
<g id="a_edge26_Node000012_Node000019"><a xlink:title=" ">
<path fill="none" stroke="#63b8ff" d="M762.66,-170.82C809.77,-164.63 928.97,-148.47 1038.88,-129.11"/>
<polygon fill="#63b8ff" stroke="#63b8ff" points="1039.57,-132.55 1048.8,-127.35 1038.35,-125.65 1039.57,-132.55"/>
</a>
</g>
</g>
<!-- Node13&#45;&gt;Node4 -->
<g id="edge19_Node000013_Node000004" class="edge">
<title>Node13&#45;&gt;Node4</title>
<g id="a_edge19_Node000013_Node000004"><a xlink:title=" ">
<path fill="none" stroke="#63b8ff" d="M756.74,-109.98C741.87,-101.69 719.02,-88.94 701.58,-79.22"/>
<polygon fill="#63b8ff" stroke="#63b8ff" points="702.98,-75.99 692.54,-74.17 699.57,-82.1 702.98,-75.99"/>
</a>
</g>
</g>
<!-- Node13&#45;&gt;Node8 -->
<g id="edge20_Node000013_Node000008" class="edge">
<title>Node13&#45;&gt;Node8</title>
<g id="a_edge20_Node000013_Node000008"><a xlink:title=" ">
<path fill="none" stroke="#63b8ff" d="M743.3,-110.56C714.04,-102.24 667.45,-88.4 628,-74 584.8,-58.23 535.96,-36.87 506.07,-23.39"/>
<polygon fill="#63b8ff" stroke="#63b8ff" points="507.25,-20.08 496.7,-19.14 504.36,-26.45 507.25,-20.08"/>
</a>
</g>
</g>
<!-- Node14 -->
<g id="Node000014" class="node">
<title>Node14</title>
<g id="a_Node000014"><a xlink:title=" ">
<polygon fill="#e0e0e0" stroke="#999999" points="794,-74 750,-74 750,-55 794,-55 794,-74"/>
<text text-anchor="middle" x="772" y="-62" font-family="Helvetica,sans-Serif" font-size="10.00">string</text>
</a>
</g>
</g>
<!-- Node13&#45;&gt;Node14 -->
<g id="edge18_Node000013_Node000014" class="edge">
<title>Node13&#45;&gt;Node14</title>
<g id="a_edge18_Node000013_Node000014"><a xlink:title=" ">
<path fill="none" stroke="#63b8ff" d="M772,-109.75C772,-102.8 772,-92.85 772,-84.13"/>
<polygon fill="#63b8ff" stroke="#63b8ff" points="775.5,-84.09 772,-74.09 768.5,-84.09 775.5,-84.09"/>
</a>
</g>
</g>
<!-- Node15&#45;&gt;Node5 -->
<g id="edge24_Node000015_Node000005" class="edge">
<title>Node15&#45;&gt;Node5</title>
<g id="a_edge24_Node000015_Node000005"><a xlink:title=" ">
<path fill="none" stroke="#63b8ff" d="M1057.84,-56.79C1029.04,-48.07 978.31,-32.7 943.24,-22.08"/>
<polygon fill="#63b8ff" stroke="#63b8ff" points="943.93,-18.63 933.35,-19.09 941.9,-25.33 943.93,-18.63"/>
</a>
</g>
</g>
<!-- Node16 -->
<g id="Node000016" class="node">
<title>Node16</title>
<g id="a_Node000016"><a xlink:title=" ">
<polygon fill="#e0e0e0" stroke="#999999" points="992,-19 960,-19 960,0 992,0 992,-19"/>
<text text-anchor="middle" x="976" y="-7" font-family="Helvetica,sans-Serif" font-size="10.00">list</text>
</a>
</g>
</g>
<!-- Node15&#45;&gt;Node16 -->
<g id="edge22_Node000015_Node000016" class="edge">
<title>Node15&#45;&gt;Node16</title>
<g id="a_edge22_Node000015_Node000016"><a xlink:title=" ">
<path fill="none" stroke="#63b8ff" d="M1063.29,-54.98C1046.59,-46.47 1020.69,-33.28 1001.44,-23.46"/>
<polygon fill="#63b8ff" stroke="#63b8ff" points="1002.82,-20.24 992.33,-18.82 999.65,-26.48 1002.82,-20.24"/>
</a>
</g>
</g>
<!-- Node17 -->
<g id="Node000017" class="node">
<title>Node17</title>
<g id="a_Node000017"><a xlink:title=" ">
<polygon fill="#e0e0e0" stroke="#999999" points="1164.5,-19 1081.5,-19 1081.5,0 1164.5,0 1164.5,-19"/>
<text text-anchor="middle" x="1123" y="-7" font-family="Helvetica,sans-Serif" font-size="10.00">initializer_list</text>
</a>
</g>
</g>
<!-- Node15&#45;&gt;Node17 -->
<g id="edge23_Node000015_Node000017" class="edge">
<title>Node15&#45;&gt;Node17</title>
<g id="a_edge23_Node000015_Node000017"><a xlink:title=" ">
<path fill="none" stroke="#63b8ff" d="M1087.1,-54.75C1093.17,-47.26 1102.09,-36.28 1109.51,-27.13"/>
<polygon fill="#63b8ff" stroke="#63b8ff" points="1112.45,-29.06 1116.03,-19.09 1107.01,-24.65 1112.45,-29.06"/>
</a>
</g>
</g>
<!-- Node18 -->
<g id="Node000018" class="node">
<title>Node18</title>
<g id="a_Node000018"><a xlink:title=" ">
<polygon fill="#e0e0e0" stroke="#999999" points="1063.5,-19 1010.5,-19 1010.5,0 1063.5,0 1063.5,-19"/>
<text text-anchor="middle" x="1037" y="-7" font-family="Helvetica,sans-Serif" font-size="10.00">tlist.tcc</text>
</a>
</g>
</g>
<!-- Node15&#45;&gt;Node18 -->
<g id="edge25_Node000015_Node000018" class="edge">
<title>Node15&#45;&gt;Node18</title>
<g id="a_edge25_Node000015_Node000018"><a xlink:title=" ">
<path fill="none" stroke="#63b8ff" d="M1072.9,-54.75C1066.83,-47.26 1057.91,-36.28 1050.49,-27.13"/>
<polygon fill="#63b8ff" stroke="#63b8ff" points="1052.99,-24.65 1043.97,-19.09 1047.55,-29.06 1052.99,-24.65"/>
</a>
</g>
</g>
<!-- Node19&#45;&gt;Node7 -->
<g id="edge27_Node000019_Node000007" class="edge">
<title>Node19&#45;&gt;Node7</title>
<g id="a_edge27_Node000019_Node000007"><a xlink:title=" ">
<path fill="none" stroke="#63b8ff" d="M1072.92,-109.63C1059.83,-95.81 1032.53,-69.24 1004,-55 977.81,-41.93 899.24,-25.63 853.35,-16.84"/>
<polygon fill="#63b8ff" stroke="#63b8ff" points="853.74,-13.35 843.26,-14.93 852.44,-20.23 853.74,-13.35"/>
</a>
</g>
</g>
<!-- Node19&#45;&gt;Node8 -->
<g id="edge35_Node000019_Node000008" class="edge">
<title>Node19&#45;&gt;Node8</title>
<g id="a_edge35_Node000019_Node000008"><a xlink:title=" ">
<path fill="none" stroke="#63b8ff" d="M1066.93,-109.94C1042.91,-95.79 992.02,-67.81 945,-55 868.76,-34.24 639.8,-19.38 533.43,-13.41"/>
<polygon fill="#63b8ff" stroke="#63b8ff" points="533.4,-9.9 523.22,-12.84 533.01,-16.89 533.4,-9.9"/>
</a>
</g>
</g>
<!-- Node19&#45;&gt;Node15 -->
<g id="edge28_Node000019_Node000015" class="edge">
<title>Node19&#45;&gt;Node15</title>
<g id="a_edge28_Node000019_Node000015"><a xlink:title=" ">
<path fill="none" stroke="#63b8ff" d="M1080.83,-109.75C1080.7,-102.8 1080.52,-92.85 1080.35,-84.13"/>
<polygon fill="#63b8ff" stroke="#63b8ff" points="1083.85,-84.02 1080.16,-74.09 1076.85,-84.15 1083.85,-84.02"/>
</a>
</g>
</g>
<!-- Node20 -->
<g id="Node000020" class="node">
<title>Node20</title>
<g id="a_Node000020"><a xlink:href="tmap_8h.html" target="_top" xlink:title=" ">
<polygon fill="white" stroke="#666666" points="1230.5,-74 1179.5,-74 1179.5,-55 1230.5,-55 1230.5,-74"/>
<text text-anchor="middle" x="1205" y="-62" font-family="Helvetica,sans-Serif" font-size="10.00">tmap.h</text>
</a>
</g>
</g>
<!-- Node19&#45;&gt;Node20 -->
<g id="edge29_Node000019_Node000020" class="edge">
<title>Node19&#45;&gt;Node20</title>
<g id="a_edge29_Node000019_Node000020"><a xlink:title=" ">
<path fill="none" stroke="#63b8ff" d="M1100.92,-109.98C1121.05,-101.38 1152.38,-87.99 1175.41,-78.15"/>
<polygon fill="#63b8ff" stroke="#63b8ff" points="1176.9,-81.32 1184.71,-74.17 1174.14,-74.88 1176.9,-81.32"/>
</a>
</g>
</g>
<!-- Node20&#45;&gt;Node5 -->
<g id="edge31_Node000020_Node000005" class="edge">
<title>Node20&#45;&gt;Node5</title>
<g id="a_edge31_Node000020_Node000005"><a xlink:title=" ">
<path fill="none" stroke="#63b8ff" d="M1179.39,-59.09C1133.56,-51.19 1034.5,-34.03 951,-19 948.79,-18.6 946.52,-18.19 944.24,-17.78"/>
<polygon fill="#63b8ff" stroke="#63b8ff" points="944.66,-14.3 934.19,-15.94 943.4,-21.18 944.66,-14.3"/>
</a>
</g>
</g>
<!-- Node20&#45;&gt;Node17 -->
<g id="edge32_Node000020_Node000017" class="edge">
<title>Node20&#45;&gt;Node17</title>
<g id="a_edge32_Node000020_Node000017"><a xlink:title=" ">
<path fill="none" stroke="#63b8ff" d="M1191.83,-54.98C1179.23,-46.84 1160,-34.41 1145.06,-24.76"/>
<polygon fill="#63b8ff" stroke="#63b8ff" points="1146.71,-21.66 1136.41,-19.17 1142.91,-27.54 1146.71,-21.66"/>
</a>
</g>
</g>
<!-- Node21 -->
<g id="Node000021" class="node">
<title>Node21</title>
<g id="a_Node000021"><a xlink:title=" ">
<polygon fill="#e0e0e0" stroke="#999999" points="1361,-19 1323,-19 1323,0 1361,0 1361,-19"/>
<text text-anchor="middle" x="1342" y="-7" font-family="Helvetica,sans-Serif" font-size="10.00">map</text>
</a>
</g>
</g>
<!-- Node20&#45;&gt;Node21 -->
<g id="edge30_Node000020_Node000021" class="edge">
<title>Node20&#45;&gt;Node21</title>
<g id="a_edge30_Node000020_Node000021"><a xlink:title=" ">
<path fill="none" stroke="#63b8ff" d="M1227.01,-54.98C1250.38,-45.94 1287.42,-31.61 1313.12,-21.67"/>
<polygon fill="#63b8ff" stroke="#63b8ff" points="1314.64,-24.84 1322.7,-17.97 1312.11,-18.31 1314.64,-24.84"/>
</a>
</g>
</g>
<!-- Node22 -->
<g id="Node000022" class="node">
<title>Node22</title>
<g id="a_Node000022"><a xlink:title=" ">
<polygon fill="#e0e0e0" stroke="#999999" points="1227.5,-19 1182.5,-19 1182.5,0 1227.5,0 1227.5,-19"/>
<text text-anchor="middle" x="1205" y="-7" font-family="Helvetica,sans-Serif" font-size="10.00">utility</text>
</a>
</g>
</g>
<!-- Node20&#45;&gt;Node22 -->
<g id="edge33_Node000020_Node000022" class="edge">
<title>Node20&#45;&gt;Node22</title>
<g id="a_edge33_Node000020_Node000022"><a xlink:title=" ">
<path fill="none" stroke="#63b8ff" d="M1205,-54.75C1205,-47.8 1205,-37.85 1205,-29.13"/>
<polygon fill="#63b8ff" stroke="#63b8ff" points="1208.5,-29.09 1205,-19.09 1201.5,-29.09 1208.5,-29.09"/>
</a>
</g>
</g>
<!-- Node23 -->
<g id="Node000023" class="node">
<title>Node23</title>
<g id="a_Node000023"><a xlink:title=" ">
<polygon fill="#e0e0e0" stroke="#999999" points="1304.5,-19 1245.5,-19 1245.5,0 1304.5,0 1304.5,-19"/>
<text text-anchor="middle" x="1275" y="-7" font-family="Helvetica,sans-Serif" font-size="10.00">tmap.tcc</text>
</a>
</g>
</g>
<!-- Node20&#45;&gt;Node23 -->
<g id="edge34_Node000020_Node000023" class="edge">
<title>Node20&#45;&gt;Node23</title>
<g id="a_edge34_Node000020_Node000023"><a xlink:title=" ">
<path fill="none" stroke="#63b8ff" d="M1216.25,-54.98C1226.8,-47 1242.8,-34.88 1255.44,-25.31"/>
<polygon fill="#63b8ff" stroke="#63b8ff" points="1257.69,-28 1263.55,-19.17 1253.46,-22.42 1257.69,-28"/>
</a>
</g>
</g>
<!-- Node24&#45;&gt;Node4 -->
<g id="edge37_Node000024_Node000004" class="edge">
<title>Node24&#45;&gt;Node4</title>
<g id="a_edge37_Node000024_Node000004"><a xlink:title=" ">
<path fill="none" stroke="#63b8ff" d="M933.33,-110.04C877.01,-100.26 784.7,-84.22 727.58,-74.29"/>
<polygon fill="#63b8ff" stroke="#63b8ff" points="728.14,-70.83 717.68,-72.57 726.94,-77.73 728.14,-70.83"/>
</a>
</g>
</g>
<!-- Node24&#45;&gt;Node8 -->
<g id="edge39_Node000024_Node000008" class="edge">
<title>Node24&#45;&gt;Node8</title>
<g id="a_edge39_Node000024_Node000008"><a xlink:title=" ">
<path fill="none" stroke="#63b8ff" d="M976.29,-109.64C966.52,-95.32 945.07,-67.43 919,-55 884.94,-38.76 644.12,-21.28 533.42,-13.99"/>
<polygon fill="#63b8ff" stroke="#63b8ff" points="533.33,-10.48 523.12,-13.32 532.87,-17.47 533.33,-10.48"/>
</a>
</g>
</g>
<!-- Node24&#45;&gt;Node15 -->
<g id="edge38_Node000024_Node000015" class="edge">
<title>Node24&#45;&gt;Node15</title>
<g id="a_edge38_Node000024_Node000015"><a xlink:title=" ">
<path fill="none" stroke="#63b8ff" d="M997.75,-109.98C1013.23,-101.61 1037.09,-88.7 1055.14,-78.95"/>
<polygon fill="#63b8ff" stroke="#63b8ff" points="1056.84,-82.01 1063.97,-74.17 1053.51,-75.85 1056.84,-82.01"/>
</a>
</g>
</g>
<!-- Node25&#45;&gt;Node4 -->
<g id="edge50_Node000025_Node000004" class="edge">
<title>Node25&#45;&gt;Node4</title>
<g id="a_edge50_Node000025_Node000004"><a xlink:title=" ">
<path fill="none" stroke="#63b8ff" d="M796.28,-219.78C808.29,-198.73 834.71,-144.33 810,-110 800.01,-96.12 760.94,-84.08 727.71,-76.03"/>
<polygon fill="#63b8ff" stroke="#63b8ff" points="728.16,-72.54 717.62,-73.66 726.56,-79.35 728.16,-72.54"/>
</a>
</g>
</g>
<!-- Node25&#45;&gt;Node8 -->
<g id="edge51_Node000025_Node000008" class="edge">
<title>Node25&#45;&gt;Node8</title>
<g id="a_edge51_Node000025_Node000008"><a xlink:title=" ">
<path fill="none" stroke="#63b8ff" d="M744.18,-223.21C652.38,-211.78 454.19,-181.46 414,-129 404.05,-116.02 407.19,-82.21 423,-55 430.25,-42.51 442.45,-32.11 453.51,-24.51"/>
<polygon fill="#63b8ff" stroke="#63b8ff" points="455.51,-27.39 462.03,-19.03 451.72,-21.5 455.51,-27.39"/>
</a>
</g>
</g>
<!-- Node25&#45;&gt;Node12 -->
<g id="edge52_Node000025_Node000012" class="edge">
<title>Node25&#45;&gt;Node12</title>
<g id="a_edge52_Node000025_Node000012"><a xlink:title=" ">
<path fill="none" stroke="#63b8ff" d="M782.91,-219.75C775.84,-212.11 765.41,-200.82 756.85,-191.56"/>
<polygon fill="#63b8ff" stroke="#63b8ff" points="759.3,-189.06 749.94,-184.09 754.16,-193.81 759.3,-189.06"/>
</a>
</g>
</g>
<!-- Node25&#45;&gt;Node13 -->
<g id="edge44_Node000025_Node000013" class="edge">
<title>Node25&#45;&gt;Node13</title>
<g id="a_edge44_Node000025_Node000013"><a xlink:title=" ">
<path fill="none" stroke="#63b8ff" d="M789.45,-219.66C786.37,-202.17 779.44,-162.8 775.3,-139.27"/>
<polygon fill="#63b8ff" stroke="#63b8ff" points="778.7,-138.4 773.52,-129.16 771.81,-139.61 778.7,-138.4"/>
</a>
</g>
</g>
<!-- Node25&#45;&gt;Node15 -->
<g id="edge42_Node000025_Node000015" class="edge">
<title>Node25&#45;&gt;Node15</title>
<g id="a_edge42_Node000025_Node000015"><a xlink:title=" ">
<path fill="none" stroke="#63b8ff" d="M837.81,-223.3C930.13,-211.97 1130.27,-181.77 1171,-129 1190.74,-103.43 1145.59,-84.12 1112.08,-73.83"/>
<polygon fill="#63b8ff" stroke="#63b8ff" points="1112.72,-70.37 1102.14,-70.93 1110.76,-77.09 1112.72,-70.37"/>
</a>
</g>
</g>
<!-- Node25&#45;&gt;Node20 -->
<g id="edge43_Node000025_Node000020" class="edge">
<title>Node25&#45;&gt;Node20</title>
<g id="a_edge43_Node000025_Node000020"><a xlink:title=" ">
<path fill="none" stroke="#63b8ff" d="M837.68,-227.61C899.12,-225.12 1009.68,-216.11 1098,-184 1141.7,-168.11 1158.98,-166.11 1187,-129 1196.82,-116 1201.28,-97.85 1203.31,-84.28"/>
<polygon fill="#63b8ff" stroke="#63b8ff" points="1206.81,-84.52 1204.51,-74.18 1199.86,-83.7 1206.81,-84.52"/>
</a>
</g>
</g>
<!-- Node26 -->
<g id="Node000026" class="node">
<title>Node26</title>
<g id="a_Node000026"><a xlink:href="tstringlist_8h.html" target="_top" xlink:title=" ">
<polygon fill="white" stroke="#666666" points="941,-184 869,-184 869,-165 941,-165 941,-184"/>
<text text-anchor="middle" x="905" y="-172" font-family="Helvetica,sans-Serif" font-size="10.00">tstringlist.h</text>
</a>
</g>
</g>
<!-- Node25&#45;&gt;Node26 -->
<g id="edge45_Node000025_Node000026" class="edge">
<title>Node25&#45;&gt;Node26</title>
<g id="a_edge45_Node000025_Node000026"><a xlink:title=" ">
<path fill="none" stroke="#63b8ff" d="M809.32,-219.98C827.66,-211.46 856.11,-198.23 877.23,-188.41"/>
<polygon fill="#63b8ff" stroke="#63b8ff" points="878.76,-191.56 886.35,-184.17 875.81,-185.21 878.76,-191.56"/>
</a>
</g>
</g>
<!-- Node27 -->
<g id="Node000027" class="node">
<title>Node27</title>
<g id="a_Node000027"><a xlink:href="flacpicture_8h.html" target="_top" xlink:title=" ">
<polygon fill="white" stroke="#666666" points="703.5,-184 626.5,-184 626.5,-165 703.5,-165 703.5,-184"/>
<text text-anchor="middle" x="665" y="-172" font-family="Helvetica,sans-Serif" font-size="10.00">flacpicture.h</text>
</a>
</g>
</g>
<!-- Node25&#45;&gt;Node27 -->
<g id="edge53_Node000025_Node000027" class="edge">
<title>Node25&#45;&gt;Node27</title>
<g id="a_edge53_Node000025_Node000027"><a xlink:title=" ">
<path fill="none" stroke="#63b8ff" d="M770.76,-219.98C750.3,-211.38 718.47,-197.99 695.07,-188.15"/>
<polygon fill="#63b8ff" stroke="#63b8ff" points="696.19,-184.82 685.61,-184.17 693.47,-191.27 696.19,-184.82"/>
</a>
</g>
</g>
<!-- Node26&#45;&gt;Node8 -->
<g id="edge49_Node000026_Node000008" class="edge">
<title>Node26&#45;&gt;Node8</title>
<g id="a_edge49_Node000026_Node000008"><a xlink:title=" ">
<path fill="none" stroke="#63b8ff" d="M900.47,-164.76C888.24,-142.17 852.12,-81.71 803,-55 757.69,-30.36 613.82,-18.31 533.52,-13.37"/>
<polygon fill="#63b8ff" stroke="#63b8ff" points="533.3,-9.85 523.11,-12.75 532.88,-16.84 533.3,-9.85"/>
</a>
</g>
</g>
<!-- Node26&#45;&gt;Node13 -->
<g id="edge46_Node000026_Node000013" class="edge">
<title>Node26&#45;&gt;Node13</title>
<g id="a_edge46_Node000026_Node000013"><a xlink:title=" ">
<path fill="none" stroke="#63b8ff" d="M883.63,-164.98C861.85,-156.3 827.84,-142.75 803.08,-132.88"/>
<polygon fill="#63b8ff" stroke="#63b8ff" points="804.34,-129.62 793.76,-129.17 801.75,-136.12 804.34,-129.62"/>
</a>
</g>
</g>
<!-- Node26&#45;&gt;Node15 -->
<g id="edge47_Node000026_Node000015" class="edge">
<title>Node26&#45;&gt;Node15</title>
<g id="a_edge47_Node000026_Node000015"><a xlink:title=" ">
<path fill="none" stroke="#63b8ff" d="M941.41,-172.53C1004.08,-170.02 1128.18,-161.02 1155,-129 1172.44,-108.18 1139.17,-88.69 1111.53,-76.93"/>
<polygon fill="#63b8ff" stroke="#63b8ff" points="1112.66,-73.62 1102.08,-73.11 1110.03,-80.11 1112.66,-73.62"/>
</a>
</g>
</g>
<!-- Node26&#45;&gt;Node24 -->
<g id="edge48_Node000026_Node000024" class="edge">
<title>Node26&#45;&gt;Node24</title>
<g id="a_edge48_Node000026_Node000024"><a xlink:title=" ">
<path fill="none" stroke="#63b8ff" d="M917.37,-164.98C929.09,-156.92 946.92,-144.65 960.89,-135.03"/>
<polygon fill="#63b8ff" stroke="#63b8ff" points="963.15,-137.72 969.4,-129.17 959.18,-131.96 963.15,-137.72"/>
</a>
</g>
</g>
<!-- Node27&#45;&gt;Node4 -->
<g id="edge56_Node000027_Node000004" class="edge">
<title>Node27&#45;&gt;Node4</title>
<g id="a_edge56_Node000027_Node000004"><a xlink:title=" ">
<path fill="none" stroke="#63b8ff" d="M654.88,-164.68C642.33,-152.63 623.58,-130.18 632,-110 636.86,-98.36 646.42,-88.2 655.48,-80.55"/>
<polygon fill="#63b8ff" stroke="#63b8ff" points="657.8,-83.17 663.51,-74.25 653.48,-77.67 657.8,-83.17"/>
</a>
</g>
</g>
<!-- Node27&#45;&gt;Node8 -->
<g id="edge58_Node000027_Node000008" class="edge">
<title>Node27&#45;&gt;Node8</title>
<g id="a_edge58_Node000027_Node000008"><a xlink:title=" ">
<path fill="none" stroke="#63b8ff" d="M626.3,-172.08C565.27,-168.95 451.02,-159.11 426,-129 399.81,-97.49 437.33,-50.73 461.08,-26.44"/>
<polygon fill="#63b8ff" stroke="#63b8ff" points="463.83,-28.64 468.49,-19.12 458.91,-23.66 463.83,-28.64"/>
</a>
</g>
</g>
<!-- Node27&#45;&gt;Node13 -->
<g id="edge55_Node000027_Node000013" class="edge">
<title>Node27&#45;&gt;Node13</title>
<g id="a_edge55_Node000027_Node000013"><a xlink:title=" ">
<path fill="none" stroke="#63b8ff" d="M682.19,-164.98C699.25,-156.54 725.63,-143.47 745.4,-133.68"/>
<polygon fill="#63b8ff" stroke="#63b8ff" points="747.09,-136.75 754.5,-129.17 743.98,-130.47 747.09,-136.75"/>
</a>
</g>
</g>
<!-- Node27&#45;&gt;Node15 -->
<g id="edge54_Node000027_Node000015" class="edge">
<title>Node27&#45;&gt;Node15</title>
<g id="a_edge54_Node000027_Node000015"><a xlink:title=" ">
<path fill="none" stroke="#63b8ff" d="M697.91,-164.94C775.73,-144.68 970.31,-94.05 1047.61,-73.93"/>
<polygon fill="#63b8ff" stroke="#63b8ff" points="1048.91,-77.21 1057.71,-71.3 1047.15,-70.43 1048.91,-77.21"/>
</a>
</g>
</g>
<!-- Node28 -->
<g id="Node000028" class="node">
<title>Node28</title>
<g id="a_Node000028"><a xlink:href="tpicturetype_8h.html" target="_top" xlink:title=" ">
<polygon fill="white" stroke="#666666" points="725.5,-129 640.5,-129 640.5,-110 725.5,-110 725.5,-129"/>
<text text-anchor="middle" x="683" y="-117" font-family="Helvetica,sans-Serif" font-size="10.00">tpicturetype.h</text>
</a>
</g>
</g>
<!-- Node27&#45;&gt;Node28 -->
<g id="edge57_Node000027_Node000028" class="edge">
<title>Node27&#45;&gt;Node28</title>
<g id="a_edge57_Node000027_Node000028"><a xlink:title=" ">
<path fill="none" stroke="#63b8ff" d="M667.97,-164.75C670.36,-157.72 673.79,-147.62 676.77,-138.84"/>
<polygon fill="#63b8ff" stroke="#63b8ff" points="680.18,-139.68 680.08,-129.09 673.55,-137.43 680.18,-139.68"/>
</a>
</g>
</g>
<!-- Node29 -->
<g id="Node000029" class="node">
<title>Node29</title>
<g id="a_Node000029"><a xlink:href="flacmetadatablock_8h.html" target="_top" xlink:title=" ">
<polygon fill="white" stroke="#666666" points="584,-129 468,-129 468,-110 584,-110 584,-129"/>
<text text-anchor="middle" x="526" y="-117" font-family="Helvetica,sans-Serif" font-size="10.00">flacmetadatablock.h</text>
</a>
</g>
</g>
<!-- Node27&#45;&gt;Node29 -->
<g id="edge59_Node000027_Node000029" class="edge">
<title>Node27&#45;&gt;Node29</title>
<g id="a_edge59_Node000027_Node000029"><a xlink:title=" ">
<path fill="none" stroke="#63b8ff" d="M642.67,-164.98C619.8,-156.27 584.04,-142.63 558.14,-132.75"/>
<polygon fill="#63b8ff" stroke="#63b8ff" points="559.33,-129.46 548.74,-129.17 556.84,-136 559.33,-129.46"/>
</a>
</g>
</g>
<!-- Node29&#45;&gt;Node4 -->
<g id="edge60_Node000029_Node000004" class="edge">
<title>Node29&#45;&gt;Node4</title>
<g id="a_edge60_Node000029_Node000004"><a xlink:title=" ">
<path fill="none" stroke="#63b8ff" d="M550.26,-109.98C575.32,-101.19 614.63,-87.39 642.83,-77.49"/>
<polygon fill="#63b8ff" stroke="#63b8ff" points="644.02,-80.78 652.3,-74.17 641.7,-74.18 644.02,-80.78"/>
</a>
</g>
</g>
<!-- Node29&#45;&gt;Node8 -->
<g id="edge61_Node000029_Node000008" class="edge">
<title>Node29&#45;&gt;Node8</title>
<g id="a_edge61_Node000029_Node000008"><a xlink:title=" ">
<path fill="none" stroke="#63b8ff" d="M522.07,-109.66C514.19,-91.93 496.32,-51.73 485.92,-28.32"/>
<polygon fill="#63b8ff" stroke="#63b8ff" points="489.11,-26.87 481.85,-19.16 482.71,-29.72 489.11,-26.87"/>
</a>
</g>
</g>
<!-- Node31 -->
<g id="Node000031" class="node">
<title>Node31</title>
<g id="a_Node000031"><a xlink:href="audioproperties_8h.html" target="_top" xlink:title=" ">
<polygon fill="white" stroke="#666666" points="298,-129 196,-129 196,-110 298,-110 298,-129"/>
<text text-anchor="middle" x="247" y="-117" font-family="Helvetica,sans-Serif" font-size="10.00">audioproperties.h</text>
</a>
</g>
</g>
<!-- Node30&#45;&gt;Node31 -->
<g id="edge63_Node000030_Node000031" class="edge">
<title>Node30&#45;&gt;Node31</title>
<g id="a_edge63_Node000030_Node000031"><a xlink:title=" ">
<path fill="none" stroke="#63b8ff" d="M264.03,-274.74C261.22,-249.31 253.03,-175.08 249.12,-139.69"/>
<polygon fill="#63b8ff" stroke="#63b8ff" points="252.55,-138.86 247.97,-129.31 245.59,-139.63 252.55,-138.86"/>
</a>
</g>
</g>
<!-- Node31&#45;&gt;Node5 -->
<g id="edge64_Node000031_Node000005" class="edge">
<title>Node31&#45;&gt;Node5</title>
<g id="a_edge64_Node000031_Node000005"><a xlink:title=" ">
<path fill="none" stroke="#63b8ff" d="M297.52,-109.98C370.47,-97.71 509.54,-74.39 628,-55 651.03,-51.23 794.84,-28.16 865.67,-16.81"/>
<polygon fill="#63b8ff" stroke="#63b8ff" points="866.66,-20.19 875.97,-15.15 865.55,-13.28 866.66,-20.19"/>
</a>
</g>
</g>
<!-- Node31&#45;&gt;Node8 -->
<g id="edge66_Node000031_Node000008" class="edge">
<title>Node31&#45;&gt;Node8</title>
<g id="a_edge66_Node000031_Node000008"><a xlink:title=" ">
<path fill="none" stroke="#63b8ff" d="M253.55,-109.67C264.23,-95.89 286.78,-69.37 312,-55 346.19,-35.53 389.19,-24.31 422.87,-18.01"/>
<polygon fill="#63b8ff" stroke="#63b8ff" points="423.77,-21.4 433,-16.2 422.54,-14.51 423.77,-21.4"/>
</a>
</g>
</g>
<!-- Node31&#45;&gt;Node10 -->
<g id="edge65_Node000031_Node000010" class="edge">
<title>Node31&#45;&gt;Node10</title>
<g id="a_edge65_Node000031_Node000010"><a xlink:title=" ">
<path fill="none" stroke="#63b8ff" d="M219.37,-109.98C190.15,-100.98 143.91,-86.73 111.66,-76.8"/>
<polygon fill="#63b8ff" stroke="#63b8ff" points="112.3,-73.33 101.72,-73.73 110.24,-80.02 112.3,-73.33"/>
</a>
</g>
</g>
</g>
</svg>
