<?xml version="1.0" encoding="UTF-8" standalone="no"?>
<!DOCTYPE svg PUBLIC "-//W3C//DTD SVG 1.1//EN"
 "http://www.w3.org/Graphics/SVG/1.1/DTD/svg11.dtd">
<!-- Generated by graphviz version 2.46.1 (20210213.1702)
 -->
<!-- Title: ownershipframe.h Pages: 1 -->
<svg width="347pt" height="308pt"
 viewBox="0.00 0.00 346.50 308.00" xmlns="http://www.w3.org/2000/svg" xmlns:xlink="http://www.w3.org/1999/xlink">
<g id="graph0" class="graph" transform="scale(1 1) rotate(0) translate(4 304)">
<title>ownershipframe.h</title>
<polygon fill="white" stroke="transparent" points="-4,4 -4,-304 342.5,-304 342.5,4 -4,4"/>
<!-- Node1 -->
<g id="node1" class="node">
<title>Node1</title>
<g id="a_node1"><a xlink:title=" ">
<polygon fill="#bfbfbf" stroke="black" points="0,-280.5 0,-299.5 94,-299.5 94,-280.5 0,-280.5"/>
<text text-anchor="middle" x="47" y="-287.5" font-family="Helvetica,sans-Serif" font-size="10.00">ownershipframe.h</text>
</a>
</g>
</g>
<!-- Node2 -->
<g id="node2" class="node">
<title>Node2</title>
<g id="a_node2"><a xlink:href="id3v2frame_8h.html" target="_top" xlink:title=" ">
<polygon fill="white" stroke="black" points="54.5,-224.5 54.5,-243.5 127.5,-243.5 127.5,-224.5 54.5,-224.5"/>
<text text-anchor="middle" x="91" y="-231.5" font-family="Helvetica,sans-Serif" font-size="10.00">id3v2frame.h</text>
</a>
</g>
</g>
<!-- Node1&#45;&gt;Node2 -->
<g id="edge1" class="edge">
<title>Node1&#45;&gt;Node2</title>
<path fill="none" stroke="midnightblue" d="M54.27,-280.08C60.54,-272.38 69.79,-261.03 77.43,-251.65"/>
<polygon fill="midnightblue" stroke="midnightblue" points="80.27,-253.71 83.87,-243.75 74.84,-249.29 80.27,-253.71"/>
</g>
<!-- Node4 -->
<g id="node4" class="node">
<title>Node4</title>
<g id="a_node4"><a xlink:href="taglib__export_8h.html" target="_top" xlink:title=" ">
<polygon fill="white" stroke="black" points="10,-56.5 10,-75.5 90,-75.5 90,-56.5 10,-56.5"/>
<text text-anchor="middle" x="50" y="-63.5" font-family="Helvetica,sans-Serif" font-size="10.00">taglib_export.h</text>
</a>
</g>
</g>
<!-- Node1&#45;&gt;Node4 -->
<g id="edge16" class="edge">
<title>Node1&#45;&gt;Node4</title>
<path fill="none" stroke="midnightblue" d="M46.5,-280.38C46.01,-271.32 45.28,-256.67 45,-244 43.72,-186.52 46.98,-118.55 48.83,-86.1"/>
<polygon fill="midnightblue" stroke="midnightblue" points="52.34,-86.03 49.43,-75.84 45.35,-85.62 52.34,-86.03"/>
</g>
<!-- Node3 -->
<g id="node3" class="node">
<title>Node3</title>
<g id="a_node3"><a xlink:href="tstring_8h.html" target="_top" xlink:title=" ">
<polygon fill="white" stroke="black" points="159,-168.5 159,-187.5 211,-187.5 211,-168.5 159,-168.5"/>
<text text-anchor="middle" x="185" y="-175.5" font-family="Helvetica,sans-Serif" font-size="10.00">tstring.h</text>
</a>
</g>
</g>
<!-- Node2&#45;&gt;Node3 -->
<g id="edge2" class="edge">
<title>Node2&#45;&gt;Node3</title>
<path fill="none" stroke="midnightblue" d="M106.1,-224.32C120.9,-215.82 143.69,-202.73 160.98,-192.8"/>
<polygon fill="midnightblue" stroke="midnightblue" points="163.01,-195.67 169.93,-187.65 159.52,-189.6 163.01,-195.67"/>
</g>
<!-- Node2&#45;&gt;Node4 -->
<g id="edge15" class="edge">
<title>Node2&#45;&gt;Node4</title>
<path fill="none" stroke="midnightblue" d="M88.8,-224.08C82.34,-197.95 63.39,-121.21 54.59,-85.58"/>
<polygon fill="midnightblue" stroke="midnightblue" points="57.91,-84.44 52.12,-75.57 51.12,-86.12 57.91,-84.44"/>
</g>
<!-- Node8 -->
<g id="node8" class="node">
<title>Node8</title>
<g id="a_node8"><a xlink:href="tbytevector_8h.html" target="_top" xlink:title=" ">
<polygon fill="white" stroke="black" points="119.5,-112.5 119.5,-131.5 192.5,-131.5 192.5,-112.5 119.5,-112.5"/>
<text text-anchor="middle" x="156" y="-119.5" font-family="Helvetica,sans-Serif" font-size="10.00">tbytevector.h</text>
</a>
</g>
</g>
<!-- Node2&#45;&gt;Node8 -->
<g id="edge14" class="edge">
<title>Node2&#45;&gt;Node8</title>
<path fill="none" stroke="midnightblue" d="M96.1,-224.37C106.78,-206.3 131.67,-164.18 145.77,-140.31"/>
<polygon fill="midnightblue" stroke="midnightblue" points="148.85,-141.98 150.92,-131.59 142.82,-138.42 148.85,-141.98"/>
</g>
<!-- Node3&#45;&gt;Node4 -->
<g id="edge3" class="edge">
<title>Node3&#45;&gt;Node4</title>
<path fill="none" stroke="midnightblue" d="M167.72,-168.45C151.9,-160.22 128.26,-146.85 110,-132 92.04,-117.39 74.43,-97.46 62.99,-83.53"/>
<polygon fill="midnightblue" stroke="midnightblue" points="65.71,-81.32 56.71,-75.73 60.25,-85.72 65.71,-81.32"/>
</g>
<!-- Node5 -->
<g id="node5" class="node">
<title>Node5</title>
<g id="a_node5"><a xlink:href="taglib_8h.html" target="_top" xlink:title=" ">
<polygon fill="white" stroke="black" points="242,-56.5 242,-75.5 290,-75.5 290,-56.5 242,-56.5"/>
<text text-anchor="middle" x="266" y="-63.5" font-family="Helvetica,sans-Serif" font-size="10.00">taglib.h</text>
</a>
</g>
</g>
<!-- Node3&#45;&gt;Node5 -->
<g id="edge4" class="edge">
<title>Node3&#45;&gt;Node5</title>
<path fill="none" stroke="midnightblue" d="M191.36,-168.37C204.78,-150.14 236.23,-107.43 253.72,-83.68"/>
<polygon fill="midnightblue" stroke="midnightblue" points="256.56,-85.72 259.67,-75.59 250.93,-81.57 256.56,-85.72"/>
</g>
<!-- Node7 -->
<g id="node7" class="node">
<title>Node7</title>
<g id="a_node7"><a xlink:title=" ">
<polygon fill="white" stroke="#bfbfbf" points="297.5,-0.5 297.5,-19.5 338.5,-19.5 338.5,-0.5 297.5,-0.5"/>
<text text-anchor="middle" x="318" y="-7.5" font-family="Helvetica,sans-Serif" font-size="10.00">string</text>
</a>
</g>
</g>
<!-- Node3&#45;&gt;Node7 -->
<g id="edge12" class="edge">
<title>Node3&#45;&gt;Node7</title>
<path fill="none" stroke="midnightblue" d="M199.34,-168.37C223.67,-152.95 272.93,-118.32 299,-76 307.77,-61.77 312.66,-43.29 315.27,-29.68"/>
<polygon fill="midnightblue" stroke="midnightblue" points="318.76,-30.03 316.97,-19.59 311.86,-28.87 318.76,-30.03"/>
</g>
<!-- Node3&#45;&gt;Node8 -->
<g id="edge7" class="edge">
<title>Node3&#45;&gt;Node8</title>
<path fill="none" stroke="midnightblue" d="M180.21,-168.08C176.24,-160.69 170.47,-149.95 165.57,-140.81"/>
<polygon fill="midnightblue" stroke="midnightblue" points="168.51,-138.91 160.7,-131.75 162.35,-142.22 168.51,-138.91"/>
</g>
<!-- Node10 -->
<g id="node10" class="node">
<title>Node10</title>
<g id="a_node10"><a xlink:title=" ">
<polygon fill="white" stroke="#bfbfbf" points="170,-56.5 170,-75.5 224,-75.5 224,-56.5 170,-56.5"/>
<text text-anchor="middle" x="197" y="-63.5" font-family="Helvetica,sans-Serif" font-size="10.00">iostream</text>
</a>
</g>
</g>
<!-- Node3&#45;&gt;Node10 -->
<g id="edge13" class="edge">
<title>Node3&#45;&gt;Node10</title>
<path fill="none" stroke="midnightblue" d="M189.37,-168.31C193.56,-159.44 199.6,-145.14 202,-132 204.8,-116.67 203.14,-99.03 201.01,-86"/>
<polygon fill="midnightblue" stroke="midnightblue" points="204.4,-85.09 199.12,-75.91 197.52,-86.38 204.4,-85.09"/>
</g>
<!-- Node6 -->
<g id="node6" class="node">
<title>Node6</title>
<g id="a_node6"><a xlink:title=" ">
<polygon fill="white" stroke="#bfbfbf" points="199,-0.5 199,-19.5 279,-19.5 279,-0.5 199,-0.5"/>
<text text-anchor="middle" x="239" y="-7.5" font-family="Helvetica,sans-Serif" font-size="10.00">taglib_config.h</text>
</a>
</g>
</g>
<!-- Node5&#45;&gt;Node6 -->
<g id="edge5" class="edge">
<title>Node5&#45;&gt;Node6</title>
<path fill="none" stroke="midnightblue" d="M261.54,-56.08C257.85,-48.69 252.48,-37.95 247.91,-28.81"/>
<polygon fill="midnightblue" stroke="midnightblue" points="250.98,-27.13 243.38,-19.75 244.72,-30.26 250.98,-27.13"/>
</g>
<!-- Node5&#45;&gt;Node7 -->
<g id="edge6" class="edge">
<title>Node5&#45;&gt;Node7</title>
<path fill="none" stroke="midnightblue" d="M274.59,-56.08C282.16,-48.22 293.38,-36.57 302.51,-27.08"/>
<polygon fill="midnightblue" stroke="midnightblue" points="305.16,-29.38 309.57,-19.75 300.12,-24.53 305.16,-29.38"/>
</g>
<!-- Node8&#45;&gt;Node4 -->
<g id="edge9" class="edge">
<title>Node8&#45;&gt;Node4</title>
<path fill="none" stroke="midnightblue" d="M138.97,-112.32C121.97,-103.66 95.62,-90.24 76.01,-80.25"/>
<polygon fill="midnightblue" stroke="midnightblue" points="77.49,-77.08 66.99,-75.65 74.31,-83.31 77.49,-77.08"/>
</g>
<!-- Node8&#45;&gt;Node5 -->
<g id="edge8" class="edge">
<title>Node8&#45;&gt;Node5</title>
<path fill="none" stroke="midnightblue" d="M173.67,-112.32C191.39,-103.62 218.9,-90.12 239.29,-80.11"/>
<polygon fill="midnightblue" stroke="midnightblue" points="240.94,-83.2 248.37,-75.65 237.85,-76.92 240.94,-83.2"/>
</g>
<!-- Node9 -->
<g id="node9" class="node">
<title>Node9</title>
<g id="a_node9"><a xlink:title=" ">
<polygon fill="white" stroke="#bfbfbf" points="108,-56.5 108,-75.5 152,-75.5 152,-56.5 108,-56.5"/>
<text text-anchor="middle" x="130" y="-63.5" font-family="Helvetica,sans-Serif" font-size="10.00">vector</text>
</a>
</g>
</g>
<!-- Node8&#45;&gt;Node9 -->
<g id="edge10" class="edge">
<title>Node8&#45;&gt;Node9</title>
<path fill="none" stroke="midnightblue" d="M151.71,-112.08C148.15,-104.69 142.98,-93.95 138.58,-84.81"/>
<polygon fill="midnightblue" stroke="midnightblue" points="141.71,-83.24 134.21,-75.75 135.4,-86.28 141.71,-83.24"/>
</g>
<!-- Node8&#45;&gt;Node10 -->
<g id="edge11" class="edge">
<title>Node8&#45;&gt;Node10</title>
<path fill="none" stroke="midnightblue" d="M162.77,-112.08C168.56,-104.46 177.06,-93.26 184.14,-83.94"/>
<polygon fill="midnightblue" stroke="midnightblue" points="187.1,-85.83 190.36,-75.75 181.52,-81.6 187.1,-85.83"/>
</g>
</g>
</svg>
