<?xml version="1.0" encoding="UTF-8" standalone="no"?>
<!DOCTYPE svg PUBLIC "-//W3C//DTD SVG 1.1//EN"
 "http://www.w3.org/Graphics/SVG/1.1/DTD/svg11.dtd">
<!-- Generated by graphviz version 2.43.0 (0)
 -->
<!-- Title: ownershipframe.h Pages: 1 -->
<svg width="371pt" height="308pt"
 viewBox="0.00 0.00 370.50 308.00" xmlns="http://www.w3.org/2000/svg" xmlns:xlink="http://www.w3.org/1999/xlink">
<g id="graph0" class="graph" transform="scale(1 1) rotate(0) translate(4 304)">
<title>ownershipframe.h</title>
<polygon fill="white" stroke="transparent" points="-4,4 -4,-304 366.5,-304 366.5,4 -4,4"/>
<!-- Node1 -->
<g id="node1" class="node">
<title>Node1</title>
<g id="a_node1"><a xlink:title=" ">
<polygon fill="#bfbfbf" stroke="black" points="0,-280.5 0,-299.5 105,-299.5 105,-280.5 0,-280.5"/>
<text text-anchor="middle" x="52.5" y="-287.5" font-family="Helvetica,sans-Serif" font-size="10.00">ownershipframe.h</text>
</a>
</g>
</g>
<!-- Node2 -->
<g id="node2" class="node">
<title>Node2</title>
<g id="a_node2"><a xlink:href="id3v2frame_8h.html" target="_top" xlink:title=" ">
<polygon fill="white" stroke="black" points="55.5,-224.5 55.5,-243.5 137.5,-243.5 137.5,-224.5 55.5,-224.5"/>
<text text-anchor="middle" x="96.5" y="-231.5" font-family="Helvetica,sans-Serif" font-size="10.00">id3v2frame.h</text>
</a>
</g>
</g>
<!-- Node1&#45;&gt;Node2 -->
<g id="edge1" class="edge">
<title>Node1&#45;&gt;Node2</title>
<path fill="none" stroke="midnightblue" d="M59.77,-280.08C66.04,-272.38 75.29,-261.03 82.93,-251.65"/>
<polygon fill="midnightblue" stroke="midnightblue" points="85.77,-253.71 89.37,-243.75 80.34,-249.29 85.77,-253.71"/>
</g>
<!-- Node4 -->
<g id="node4" class="node">
<title>Node4</title>
<g id="a_node4"><a xlink:href="taglib__export_8h.html" target="_top" xlink:title=" ">
<polygon fill="white" stroke="black" points="6.5,-56.5 6.5,-75.5 96.5,-75.5 96.5,-56.5 6.5,-56.5"/>
<text text-anchor="middle" x="51.5" y="-63.5" font-family="Helvetica,sans-Serif" font-size="10.00">taglib_export.h</text>
</a>
</g>
</g>
<!-- Node1&#45;&gt;Node4 -->
<g id="edge16" class="edge">
<title>Node1&#45;&gt;Node4</title>
<path fill="none" stroke="midnightblue" d="M51.01,-280.41C49.52,-271.38 47.35,-256.74 46.5,-244 42.69,-186.63 47.12,-118.61 49.78,-86.13"/>
<polygon fill="midnightblue" stroke="midnightblue" points="53.29,-86.11 50.66,-75.85 46.32,-85.52 53.29,-86.11"/>
</g>
<!-- Node3 -->
<g id="node3" class="node">
<title>Node3</title>
<g id="a_node3"><a xlink:href="tstring_8h.html" target="_top" xlink:title=" ">
<polygon fill="white" stroke="black" points="166,-168.5 166,-187.5 223,-187.5 223,-168.5 166,-168.5"/>
<text text-anchor="middle" x="194.5" y="-175.5" font-family="Helvetica,sans-Serif" font-size="10.00">tstring.h</text>
</a>
</g>
</g>
<!-- Node2&#45;&gt;Node3 -->
<g id="edge2" class="edge">
<title>Node2&#45;&gt;Node3</title>
<path fill="none" stroke="midnightblue" d="M112.25,-224.32C127.82,-215.74 151.88,-202.49 169.96,-192.52"/>
<polygon fill="midnightblue" stroke="midnightblue" points="171.72,-195.55 178.79,-187.65 168.35,-189.42 171.72,-195.55"/>
</g>
<!-- Node2&#45;&gt;Node4 -->
<g id="edge15" class="edge">
<title>Node2&#45;&gt;Node4</title>
<path fill="none" stroke="midnightblue" d="M94.08,-224.08C87,-197.95 66.2,-121.21 56.54,-85.58"/>
<polygon fill="midnightblue" stroke="midnightblue" points="59.82,-84.3 53.82,-75.57 53.06,-86.14 59.82,-84.3"/>
</g>
<!-- Node8 -->
<g id="node8" class="node">
<title>Node8</title>
<g id="a_node8"><a xlink:href="tbytevector_8h.html" target="_top" xlink:title=" ">
<polygon fill="white" stroke="black" points="123,-112.5 123,-131.5 204,-131.5 204,-112.5 123,-112.5"/>
<text text-anchor="middle" x="163.5" y="-119.5" font-family="Helvetica,sans-Serif" font-size="10.00">tbytevector.h</text>
</a>
</g>
</g>
<!-- Node2&#45;&gt;Node8 -->
<g id="edge14" class="edge">
<title>Node2&#45;&gt;Node8</title>
<path fill="none" stroke="midnightblue" d="M101.76,-224.37C112.77,-206.3 138.42,-164.18 152.96,-140.31"/>
<polygon fill="midnightblue" stroke="midnightblue" points="156.05,-141.95 158.27,-131.59 150.08,-138.31 156.05,-141.95"/>
</g>
<!-- Node3&#45;&gt;Node4 -->
<g id="edge3" class="edge">
<title>Node3&#45;&gt;Node4</title>
<path fill="none" stroke="midnightblue" d="M175.51,-168.48C158.43,-160.36 133.1,-147.15 113.5,-132 94.9,-117.62 76.71,-97.65 64.9,-83.64"/>
<polygon fill="midnightblue" stroke="midnightblue" points="67.49,-81.28 58.42,-75.8 62.09,-85.74 67.49,-81.28"/>
</g>
<!-- Node5 -->
<g id="node5" class="node">
<title>Node5</title>
<g id="a_node5"><a xlink:href="taglib_8h.html" target="_top" xlink:title=" ">
<polygon fill="white" stroke="black" points="259,-56.5 259,-75.5 312,-75.5 312,-56.5 259,-56.5"/>
<text text-anchor="middle" x="285.5" y="-63.5" font-family="Helvetica,sans-Serif" font-size="10.00">taglib.h</text>
</a>
</g>
</g>
<!-- Node3&#45;&gt;Node5 -->
<g id="edge4" class="edge">
<title>Node3&#45;&gt;Node5</title>
<path fill="none" stroke="midnightblue" d="M201.64,-168.37C216.79,-150.05 252.37,-107.05 271.96,-83.36"/>
<polygon fill="midnightblue" stroke="midnightblue" points="274.72,-85.53 278.39,-75.59 269.32,-81.07 274.72,-85.53"/>
</g>
<!-- Node7 -->
<g id="node7" class="node">
<title>Node7</title>
<g id="a_node7"><a xlink:title=" ">
<polygon fill="white" stroke="#bfbfbf" points="318.5,-0.5 318.5,-19.5 362.5,-19.5 362.5,-0.5 318.5,-0.5"/>
<text text-anchor="middle" x="340.5" y="-7.5" font-family="Helvetica,sans-Serif" font-size="10.00">string</text>
</a>
</g>
</g>
<!-- Node3&#45;&gt;Node7 -->
<g id="edge12" class="edge">
<title>Node3&#45;&gt;Node7</title>
<path fill="none" stroke="midnightblue" d="M211.32,-168.29C238.68,-153.24 292.65,-119.74 321.5,-76 330.7,-62.05 335.55,-43.54 338.03,-29.84"/>
<polygon fill="midnightblue" stroke="midnightblue" points="341.53,-30.09 339.61,-19.68 334.62,-29.02 341.53,-30.09"/>
</g>
<!-- Node3&#45;&gt;Node8 -->
<g id="edge7" class="edge">
<title>Node3&#45;&gt;Node8</title>
<path fill="none" stroke="midnightblue" d="M189.38,-168.08C185.09,-160.61 178.84,-149.72 173.56,-140.52"/>
<polygon fill="midnightblue" stroke="midnightblue" points="176.54,-138.68 168.52,-131.75 170.47,-142.17 176.54,-138.68"/>
</g>
<!-- Node10 -->
<g id="node10" class="node">
<title>Node10</title>
<g id="a_node10"><a xlink:title=" ">
<polygon fill="white" stroke="#bfbfbf" points="180.5,-56.5 180.5,-75.5 240.5,-75.5 240.5,-56.5 180.5,-56.5"/>
<text text-anchor="middle" x="210.5" y="-63.5" font-family="Helvetica,sans-Serif" font-size="10.00">iostream</text>
</a>
</g>
</g>
<!-- Node3&#45;&gt;Node10 -->
<g id="edge13" class="edge">
<title>Node3&#45;&gt;Node10</title>
<path fill="none" stroke="midnightblue" d="M199.12,-168.34C203.56,-159.49 209.95,-145.22 212.5,-132 215.47,-116.57 214.62,-98.7 213.22,-85.6"/>
<polygon fill="midnightblue" stroke="midnightblue" points="216.67,-84.99 211.94,-75.51 209.73,-85.87 216.67,-84.99"/>
</g>
<!-- Node6 -->
<g id="node6" class="node">
<title>Node6</title>
<g id="a_node6"><a xlink:title=" ">
<polygon fill="white" stroke="#bfbfbf" points="212.5,-0.5 212.5,-19.5 300.5,-19.5 300.5,-0.5 212.5,-0.5"/>
<text text-anchor="middle" x="256.5" y="-7.5" font-family="Helvetica,sans-Serif" font-size="10.00">taglib_config.h</text>
</a>
</g>
</g>
<!-- Node5&#45;&gt;Node6 -->
<g id="edge5" class="edge">
<title>Node5&#45;&gt;Node6</title>
<path fill="none" stroke="midnightblue" d="M280.71,-56.08C276.74,-48.69 270.97,-37.95 266.07,-28.81"/>
<polygon fill="midnightblue" stroke="midnightblue" points="269.01,-26.91 261.2,-19.75 262.85,-30.22 269.01,-26.91"/>
</g>
<!-- Node5&#45;&gt;Node7 -->
<g id="edge6" class="edge">
<title>Node5&#45;&gt;Node7</title>
<path fill="none" stroke="midnightblue" d="M294.58,-56.08C302.67,-48.14 314.7,-36.34 324.41,-26.8"/>
<polygon fill="midnightblue" stroke="midnightblue" points="326.9,-29.25 331.59,-19.75 322,-24.26 326.9,-29.25"/>
</g>
<!-- Node8&#45;&gt;Node4 -->
<g id="edge9" class="edge">
<title>Node8&#45;&gt;Node4</title>
<path fill="none" stroke="midnightblue" d="M145.51,-112.32C127.46,-103.62 99.45,-90.12 78.7,-80.11"/>
<polygon fill="midnightblue" stroke="midnightblue" points="79.98,-76.84 69.45,-75.65 76.94,-83.15 79.98,-76.84"/>
</g>
<!-- Node8&#45;&gt;Node5 -->
<g id="edge8" class="edge">
<title>Node8&#45;&gt;Node5</title>
<path fill="none" stroke="midnightblue" d="M182.83,-112.44C202.82,-103.6 234.24,-89.69 257.06,-79.59"/>
<polygon fill="midnightblue" stroke="midnightblue" points="258.53,-82.76 266.26,-75.52 255.7,-76.36 258.53,-82.76"/>
</g>
<!-- Node9 -->
<g id="node9" class="node">
<title>Node9</title>
<g id="a_node9"><a xlink:title=" ">
<polygon fill="white" stroke="#bfbfbf" points="115,-56.5 115,-75.5 162,-75.5 162,-56.5 115,-56.5"/>
<text text-anchor="middle" x="138.5" y="-63.5" font-family="Helvetica,sans-Serif" font-size="10.00">vector</text>
</a>
</g>
</g>
<!-- Node8&#45;&gt;Node9 -->
<g id="edge10" class="edge">
<title>Node8&#45;&gt;Node9</title>
<path fill="none" stroke="midnightblue" d="M159.37,-112.08C155.99,-104.77 151.08,-94.18 146.88,-85.1"/>
<polygon fill="midnightblue" stroke="midnightblue" points="149.93,-83.36 142.55,-75.75 143.58,-86.3 149.93,-83.36"/>
</g>
<!-- Node8&#45;&gt;Node10 -->
<g id="edge11" class="edge">
<title>Node8&#45;&gt;Node10</title>
<path fill="none" stroke="midnightblue" d="M171.26,-112.08C178.04,-104.3 188.04,-92.8 196.26,-83.37"/>
<polygon fill="midnightblue" stroke="midnightblue" points="198.96,-85.59 202.88,-75.75 193.68,-81 198.96,-85.59"/>
</g>
</g>
</svg>
