<?xml version="1.0" encoding="UTF-8" standalone="no"?>
<!DOCTYPE svg PUBLIC "-//W3C//DTD SVG 1.1//EN"
 "http://www.w3.org/Graphics/SVG/1.1/DTD/svg11.dtd">
<!-- Generated by graphviz version 2.43.0 (0)
 -->
<!-- Title: ownershipframe.h Pages: 1 -->
<svg width="324pt" height="252pt"
 viewBox="0.00 0.00 323.50 252.00" xmlns="http://www.w3.org/2000/svg" xmlns:xlink="http://www.w3.org/1999/xlink">
<g id="graph0" class="graph" transform="scale(1 1) rotate(0) translate(4 248)">
<title>ownershipframe.h</title>
<polygon fill="white" stroke="transparent" points="-4,4 -4,-248 319.5,-248 319.5,4 -4,4"/>
<!-- Node1 -->
<g id="node1" class="node">
<title>Node1</title>
<g id="a_node1"><a xlink:title=" ">
<polygon fill="#bfbfbf" stroke="black" points="0,-224.5 0,-243.5 105,-243.5 105,-224.5 0,-224.5"/>
<text text-anchor="middle" x="52.5" y="-231.5" font-family="Helvetica,sans-Serif" font-size="10.00">ownershipframe.h</text>
</a>
</g>
</g>
<!-- Node2 -->
<g id="node2" class="node">
<title>Node2</title>
<g id="a_node2"><a xlink:href="taglib__export_8h.html" target="_top" xlink:title=" ">
<polygon fill="white" stroke="black" points="14.5,-0.5 14.5,-19.5 104.5,-19.5 104.5,-0.5 14.5,-0.5"/>
<text text-anchor="middle" x="59.5" y="-7.5" font-family="Helvetica,sans-Serif" font-size="10.00">taglib_export.h</text>
</a>
</g>
</g>
<!-- Node1&#45;&gt;Node2 -->
<g id="edge1" class="edge">
<title>Node1&#45;&gt;Node2</title>
<path fill="none" stroke="midnightblue" d="M52,-224.38C51.51,-215.32 50.78,-200.67 50.5,-188 49.22,-130.47 54.62,-62.52 57.61,-30.09"/>
<polygon fill="midnightblue" stroke="midnightblue" points="61.13,-30.12 58.59,-19.83 54.16,-29.46 61.13,-30.12"/>
</g>
<!-- Node3 -->
<g id="node3" class="node">
<title>Node3</title>
<g id="a_node3"><a xlink:href="id3v2frame_8h.html" target="_top" xlink:title=" ">
<polygon fill="white" stroke="black" points="59.5,-168.5 59.5,-187.5 141.5,-187.5 141.5,-168.5 59.5,-168.5"/>
<text text-anchor="middle" x="100.5" y="-175.5" font-family="Helvetica,sans-Serif" font-size="10.00">id3v2frame.h</text>
</a>
</g>
</g>
<!-- Node1&#45;&gt;Node3 -->
<g id="edge2" class="edge">
<title>Node1&#45;&gt;Node3</title>
<path fill="none" stroke="midnightblue" d="M60.43,-224.08C67.35,-216.3 77.57,-204.8 85.95,-195.37"/>
<polygon fill="midnightblue" stroke="midnightblue" points="88.69,-197.55 92.72,-187.75 83.46,-192.9 88.69,-197.55"/>
</g>
<!-- Node3&#45;&gt;Node2 -->
<g id="edge12" class="edge">
<title>Node3&#45;&gt;Node2</title>
<path fill="none" stroke="midnightblue" d="M98.3,-168.08C91.84,-141.95 72.89,-65.21 64.09,-29.58"/>
<polygon fill="midnightblue" stroke="midnightblue" points="67.41,-28.44 61.62,-19.57 60.62,-30.12 67.41,-28.44"/>
</g>
<!-- Node4 -->
<g id="node4" class="node">
<title>Node4</title>
<g id="a_node4"><a xlink:href="tstring_8h.html" target="_top" xlink:title=" ">
<polygon fill="white" stroke="black" points="100,-112.5 100,-131.5 157,-131.5 157,-112.5 100,-112.5"/>
<text text-anchor="middle" x="128.5" y="-119.5" font-family="Helvetica,sans-Serif" font-size="10.00">tstring.h</text>
</a>
</g>
</g>
<!-- Node3&#45;&gt;Node4 -->
<g id="edge3" class="edge">
<title>Node3&#45;&gt;Node4</title>
<path fill="none" stroke="midnightblue" d="M105.12,-168.08C108.96,-160.69 114.52,-149.95 119.26,-140.81"/>
<polygon fill="midnightblue" stroke="midnightblue" points="122.47,-142.24 123.96,-131.75 116.25,-139.02 122.47,-142.24"/>
</g>
<!-- Node6 -->
<g id="node6" class="node">
<title>Node6</title>
<g id="a_node6"><a xlink:href="tbytevector_8h.html" target="_top" xlink:title=" ">
<polygon fill="white" stroke="black" points="185,-56.5 185,-75.5 266,-75.5 266,-56.5 185,-56.5"/>
<text text-anchor="middle" x="225.5" y="-63.5" font-family="Helvetica,sans-Serif" font-size="10.00">tbytevector.h</text>
</a>
</g>
</g>
<!-- Node3&#45;&gt;Node6 -->
<g id="edge11" class="edge">
<title>Node3&#45;&gt;Node6</title>
<path fill="none" stroke="midnightblue" d="M114.85,-168.36C128.47,-159.86 149.24,-146.14 165.5,-132 182.81,-116.96 200.33,-97.36 211.94,-83.62"/>
<polygon fill="midnightblue" stroke="midnightblue" points="214.94,-85.48 218.65,-75.56 209.56,-81.01 214.94,-85.48"/>
</g>
<!-- Node4&#45;&gt;Node2 -->
<g id="edge10" class="edge">
<title>Node4&#45;&gt;Node2</title>
<path fill="none" stroke="midnightblue" d="M123.09,-112.37C111.75,-94.3 85.33,-52.18 70.36,-28.31"/>
<polygon fill="midnightblue" stroke="midnightblue" points="73.17,-26.2 64.89,-19.59 67.24,-29.92 73.17,-26.2"/>
</g>
<!-- Node5 -->
<g id="node5" class="node">
<title>Node5</title>
<g id="a_node5"><a xlink:title=" ">
<polygon fill="white" stroke="#bfbfbf" points="122.5,-56.5 122.5,-75.5 166.5,-75.5 166.5,-56.5 122.5,-56.5"/>
<text text-anchor="middle" x="144.5" y="-63.5" font-family="Helvetica,sans-Serif" font-size="10.00">string</text>
</a>
</g>
</g>
<!-- Node4&#45;&gt;Node5 -->
<g id="edge4" class="edge">
<title>Node4&#45;&gt;Node5</title>
<path fill="none" stroke="midnightblue" d="M131.14,-112.08C133.29,-104.85 136.38,-94.41 139.05,-85.4"/>
<polygon fill="midnightblue" stroke="midnightblue" points="142.42,-86.33 141.91,-75.75 135.71,-84.34 142.42,-86.33"/>
</g>
<!-- Node4&#45;&gt;Node6 -->
<g id="edge5" class="edge">
<title>Node4&#45;&gt;Node6</title>
<path fill="none" stroke="midnightblue" d="M144.08,-112.32C159.5,-103.74 183.31,-90.49 201.21,-80.52"/>
<polygon fill="midnightblue" stroke="midnightblue" points="202.92,-83.58 209.95,-75.65 199.51,-77.46 202.92,-83.58"/>
</g>
<!-- Node6&#45;&gt;Node2 -->
<g id="edge9" class="edge">
<title>Node6&#45;&gt;Node2</title>
<path fill="none" stroke="midnightblue" d="M199.2,-56.44C171.15,-47.32 126.56,-32.81 95.32,-22.65"/>
<polygon fill="midnightblue" stroke="midnightblue" points="96.27,-19.28 85.68,-19.52 94.11,-25.94 96.27,-19.28"/>
</g>
<!-- Node7 -->
<g id="node7" class="node">
<title>Node7</title>
<g id="a_node7"><a xlink:title=" ">
<polygon fill="white" stroke="#bfbfbf" points="125.5,-0.5 125.5,-19.5 183.5,-19.5 183.5,-0.5 125.5,-0.5"/>
<text text-anchor="middle" x="154.5" y="-7.5" font-family="Helvetica,sans-Serif" font-size="10.00">memory</text>
</a>
</g>
</g>
<!-- Node6&#45;&gt;Node7 -->
<g id="edge6" class="edge">
<title>Node6&#45;&gt;Node7</title>
<path fill="none" stroke="midnightblue" d="M214.09,-56.32C203.39,-48.18 187.16,-35.84 174.34,-26.09"/>
<polygon fill="midnightblue" stroke="midnightblue" points="176.19,-23.1 166.11,-19.83 171.96,-28.67 176.19,-23.1"/>
</g>
<!-- Node8 -->
<g id="node8" class="node">
<title>Node8</title>
<g id="a_node8"><a xlink:title=" ">
<polygon fill="white" stroke="#bfbfbf" points="202,-0.5 202,-19.5 249,-19.5 249,-0.5 202,-0.5"/>
<text text-anchor="middle" x="225.5" y="-7.5" font-family="Helvetica,sans-Serif" font-size="10.00">vector</text>
</a>
</g>
</g>
<!-- Node6&#45;&gt;Node8 -->
<g id="edge7" class="edge">
<title>Node6&#45;&gt;Node8</title>
<path fill="none" stroke="midnightblue" d="M225.5,-56.08C225.5,-49.01 225.5,-38.86 225.5,-29.99"/>
<polygon fill="midnightblue" stroke="midnightblue" points="229,-29.75 225.5,-19.75 222,-29.75 229,-29.75"/>
</g>
<!-- Node9 -->
<g id="node9" class="node">
<title>Node9</title>
<g id="a_node9"><a xlink:title=" ">
<polygon fill="white" stroke="#bfbfbf" points="267.5,-0.5 267.5,-19.5 315.5,-19.5 315.5,-0.5 267.5,-0.5"/>
<text text-anchor="middle" x="291.5" y="-7.5" font-family="Helvetica,sans-Serif" font-size="10.00">iosfwd</text>
</a>
</g>
</g>
<!-- Node6&#45;&gt;Node9 -->
<g id="edge8" class="edge">
<title>Node6&#45;&gt;Node9</title>
<path fill="none" stroke="midnightblue" d="M236.1,-56.32C245.96,-48.26 260.85,-36.08 272.72,-26.37"/>
<polygon fill="midnightblue" stroke="midnightblue" points="275.18,-28.88 280.7,-19.83 270.75,-23.46 275.18,-28.88"/>
</g>
</g>
</svg>
