<?xml version="1.0" encoding="UTF-8" standalone="no"?>
<!DOCTYPE svg PUBLIC "-//W3C//DTD SVG 1.1//EN"
 "http://www.w3.org/Graphics/SVG/1.1/DTD/svg11.dtd">
<!-- Generated by graphviz version 2.43.0 (0)
 -->
<!-- Title: popularimeterframe.h Pages: 1 -->
<svg width="380pt" height="308pt"
 viewBox="0.00 0.00 380.00 308.00" xmlns="http://www.w3.org/2000/svg" xmlns:xlink="http://www.w3.org/1999/xlink">
<g id="graph0" class="graph" transform="scale(1 1) rotate(0) translate(4 304)">
<title>popularimeterframe.h</title>
<polygon fill="white" stroke="transparent" points="-4,4 -4,-304 376,-304 376,4 -4,4"/>
<!-- Node1 -->
<g id="node1" class="node">
<title>Node1</title>
<g id="a_node1"><a xlink:title=" ">
<polygon fill="#bfbfbf" stroke="black" points="0,-280.5 0,-299.5 124,-299.5 124,-280.5 0,-280.5"/>
<text text-anchor="middle" x="62" y="-287.5" font-family="Helvetica,sans-Serif" font-size="10.00">popularimeterframe.h</text>
</a>
</g>
</g>
<!-- Node2 -->
<g id="node2" class="node">
<title>Node2</title>
<g id="a_node2"><a xlink:href="id3v2frame_8h.html" target="_top" xlink:title=" ">
<polygon fill="white" stroke="black" points="65,-224.5 65,-243.5 147,-243.5 147,-224.5 65,-224.5"/>
<text text-anchor="middle" x="106" y="-231.5" font-family="Helvetica,sans-Serif" font-size="10.00">id3v2frame.h</text>
</a>
</g>
</g>
<!-- Node1&#45;&gt;Node2 -->
<g id="edge1" class="edge">
<title>Node1&#45;&gt;Node2</title>
<path fill="none" stroke="midnightblue" d="M69.27,-280.08C75.54,-272.38 84.79,-261.03 92.43,-251.65"/>
<polygon fill="midnightblue" stroke="midnightblue" points="95.27,-253.71 98.87,-243.75 89.84,-249.29 95.27,-253.71"/>
</g>
<!-- Node4 -->
<g id="node4" class="node">
<title>Node4</title>
<g id="a_node4"><a xlink:href="taglib__export_8h.html" target="_top" xlink:title=" ">
<polygon fill="white" stroke="black" points="16,-56.5 16,-75.5 106,-75.5 106,-56.5 16,-56.5"/>
<text text-anchor="middle" x="61" y="-63.5" font-family="Helvetica,sans-Serif" font-size="10.00">taglib_export.h</text>
</a>
</g>
</g>
<!-- Node1&#45;&gt;Node4 -->
<g id="edge16" class="edge">
<title>Node1&#45;&gt;Node4</title>
<path fill="none" stroke="midnightblue" d="M60.51,-280.41C59.02,-271.38 56.85,-256.74 56,-244 52.19,-186.63 56.62,-118.61 59.28,-86.13"/>
<polygon fill="midnightblue" stroke="midnightblue" points="62.79,-86.11 60.16,-75.85 55.82,-85.52 62.79,-86.11"/>
</g>
<!-- Node3 -->
<g id="node3" class="node">
<title>Node3</title>
<g id="a_node3"><a xlink:href="tstring_8h.html" target="_top" xlink:title=" ">
<polygon fill="white" stroke="black" points="175.5,-168.5 175.5,-187.5 232.5,-187.5 232.5,-168.5 175.5,-168.5"/>
<text text-anchor="middle" x="204" y="-175.5" font-family="Helvetica,sans-Serif" font-size="10.00">tstring.h</text>
</a>
</g>
</g>
<!-- Node2&#45;&gt;Node3 -->
<g id="edge2" class="edge">
<title>Node2&#45;&gt;Node3</title>
<path fill="none" stroke="midnightblue" d="M121.75,-224.32C137.32,-215.74 161.38,-202.49 179.46,-192.52"/>
<polygon fill="midnightblue" stroke="midnightblue" points="181.22,-195.55 188.29,-187.65 177.85,-189.42 181.22,-195.55"/>
</g>
<!-- Node2&#45;&gt;Node4 -->
<g id="edge15" class="edge">
<title>Node2&#45;&gt;Node4</title>
<path fill="none" stroke="midnightblue" d="M103.58,-224.08C96.5,-197.95 75.7,-121.21 66.04,-85.58"/>
<polygon fill="midnightblue" stroke="midnightblue" points="69.32,-84.3 63.32,-75.57 62.56,-86.14 69.32,-84.3"/>
</g>
<!-- Node8 -->
<g id="node8" class="node">
<title>Node8</title>
<g id="a_node8"><a xlink:href="tbytevector_8h.html" target="_top" xlink:title=" ">
<polygon fill="white" stroke="black" points="132.5,-112.5 132.5,-131.5 213.5,-131.5 213.5,-112.5 132.5,-112.5"/>
<text text-anchor="middle" x="173" y="-119.5" font-family="Helvetica,sans-Serif" font-size="10.00">tbytevector.h</text>
</a>
</g>
</g>
<!-- Node2&#45;&gt;Node8 -->
<g id="edge14" class="edge">
<title>Node2&#45;&gt;Node8</title>
<path fill="none" stroke="midnightblue" d="M111.26,-224.37C122.27,-206.3 147.92,-164.18 162.46,-140.31"/>
<polygon fill="midnightblue" stroke="midnightblue" points="165.55,-141.95 167.77,-131.59 159.58,-138.31 165.55,-141.95"/>
</g>
<!-- Node3&#45;&gt;Node4 -->
<g id="edge3" class="edge">
<title>Node3&#45;&gt;Node4</title>
<path fill="none" stroke="midnightblue" d="M185.01,-168.48C167.93,-160.36 142.6,-147.15 123,-132 104.4,-117.62 86.21,-97.65 74.4,-83.64"/>
<polygon fill="midnightblue" stroke="midnightblue" points="76.99,-81.28 67.92,-75.8 71.59,-85.74 76.99,-81.28"/>
</g>
<!-- Node5 -->
<g id="node5" class="node">
<title>Node5</title>
<g id="a_node5"><a xlink:href="taglib_8h.html" target="_top" xlink:title=" ">
<polygon fill="white" stroke="black" points="268.5,-56.5 268.5,-75.5 321.5,-75.5 321.5,-56.5 268.5,-56.5"/>
<text text-anchor="middle" x="295" y="-63.5" font-family="Helvetica,sans-Serif" font-size="10.00">taglib.h</text>
</a>
</g>
</g>
<!-- Node3&#45;&gt;Node5 -->
<g id="edge4" class="edge">
<title>Node3&#45;&gt;Node5</title>
<path fill="none" stroke="midnightblue" d="M211.14,-168.37C226.29,-150.05 261.87,-107.05 281.46,-83.36"/>
<polygon fill="midnightblue" stroke="midnightblue" points="284.22,-85.53 287.89,-75.59 278.82,-81.07 284.22,-85.53"/>
</g>
<!-- Node7 -->
<g id="node7" class="node">
<title>Node7</title>
<g id="a_node7"><a xlink:title=" ">
<polygon fill="white" stroke="#bfbfbf" points="328,-0.5 328,-19.5 372,-19.5 372,-0.5 328,-0.5"/>
<text text-anchor="middle" x="350" y="-7.5" font-family="Helvetica,sans-Serif" font-size="10.00">string</text>
</a>
</g>
</g>
<!-- Node3&#45;&gt;Node7 -->
<g id="edge12" class="edge">
<title>Node3&#45;&gt;Node7</title>
<path fill="none" stroke="midnightblue" d="M220.82,-168.29C248.18,-153.24 302.15,-119.74 331,-76 340.2,-62.05 345.05,-43.54 347.53,-29.84"/>
<polygon fill="midnightblue" stroke="midnightblue" points="351.03,-30.09 349.11,-19.68 344.12,-29.02 351.03,-30.09"/>
</g>
<!-- Node3&#45;&gt;Node8 -->
<g id="edge7" class="edge">
<title>Node3&#45;&gt;Node8</title>
<path fill="none" stroke="midnightblue" d="M198.88,-168.08C194.59,-160.61 188.34,-149.72 183.06,-140.52"/>
<polygon fill="midnightblue" stroke="midnightblue" points="186.04,-138.68 178.02,-131.75 179.97,-142.17 186.04,-138.68"/>
</g>
<!-- Node10 -->
<g id="node10" class="node">
<title>Node10</title>
<g id="a_node10"><a xlink:title=" ">
<polygon fill="white" stroke="#bfbfbf" points="190,-56.5 190,-75.5 250,-75.5 250,-56.5 190,-56.5"/>
<text text-anchor="middle" x="220" y="-63.5" font-family="Helvetica,sans-Serif" font-size="10.00">iostream</text>
</a>
</g>
</g>
<!-- Node3&#45;&gt;Node10 -->
<g id="edge13" class="edge">
<title>Node3&#45;&gt;Node10</title>
<path fill="none" stroke="midnightblue" d="M208.62,-168.34C213.06,-159.49 219.45,-145.22 222,-132 224.97,-116.57 224.12,-98.7 222.72,-85.6"/>
<polygon fill="midnightblue" stroke="midnightblue" points="226.17,-84.99 221.44,-75.51 219.23,-85.87 226.17,-84.99"/>
</g>
<!-- Node6 -->
<g id="node6" class="node">
<title>Node6</title>
<g id="a_node6"><a xlink:title=" ">
<polygon fill="white" stroke="#bfbfbf" points="222,-0.5 222,-19.5 310,-19.5 310,-0.5 222,-0.5"/>
<text text-anchor="middle" x="266" y="-7.5" font-family="Helvetica,sans-Serif" font-size="10.00">taglib_config.h</text>
</a>
</g>
</g>
<!-- Node5&#45;&gt;Node6 -->
<g id="edge5" class="edge">
<title>Node5&#45;&gt;Node6</title>
<path fill="none" stroke="midnightblue" d="M290.21,-56.08C286.24,-48.69 280.47,-37.95 275.57,-28.81"/>
<polygon fill="midnightblue" stroke="midnightblue" points="278.51,-26.91 270.7,-19.75 272.35,-30.22 278.51,-26.91"/>
</g>
<!-- Node5&#45;&gt;Node7 -->
<g id="edge6" class="edge">
<title>Node5&#45;&gt;Node7</title>
<path fill="none" stroke="midnightblue" d="M304.08,-56.08C312.17,-48.14 324.2,-36.34 333.91,-26.8"/>
<polygon fill="midnightblue" stroke="midnightblue" points="336.4,-29.25 341.09,-19.75 331.5,-24.26 336.4,-29.25"/>
</g>
<!-- Node8&#45;&gt;Node4 -->
<g id="edge9" class="edge">
<title>Node8&#45;&gt;Node4</title>
<path fill="none" stroke="midnightblue" d="M155.01,-112.32C136.96,-103.62 108.95,-90.12 88.2,-80.11"/>
<polygon fill="midnightblue" stroke="midnightblue" points="89.48,-76.84 78.95,-75.65 86.44,-83.15 89.48,-76.84"/>
</g>
<!-- Node8&#45;&gt;Node5 -->
<g id="edge8" class="edge">
<title>Node8&#45;&gt;Node5</title>
<path fill="none" stroke="midnightblue" d="M192.33,-112.44C212.32,-103.6 243.74,-89.69 266.56,-79.59"/>
<polygon fill="midnightblue" stroke="midnightblue" points="268.03,-82.76 275.76,-75.52 265.2,-76.36 268.03,-82.76"/>
</g>
<!-- Node9 -->
<g id="node9" class="node">
<title>Node9</title>
<g id="a_node9"><a xlink:title=" ">
<polygon fill="white" stroke="#bfbfbf" points="124.5,-56.5 124.5,-75.5 171.5,-75.5 171.5,-56.5 124.5,-56.5"/>
<text text-anchor="middle" x="148" y="-63.5" font-family="Helvetica,sans-Serif" font-size="10.00">vector</text>
</a>
</g>
</g>
<!-- Node8&#45;&gt;Node9 -->
<g id="edge10" class="edge">
<title>Node8&#45;&gt;Node9</title>
<path fill="none" stroke="midnightblue" d="M168.87,-112.08C165.49,-104.77 160.58,-94.18 156.38,-85.1"/>
<polygon fill="midnightblue" stroke="midnightblue" points="159.43,-83.36 152.05,-75.75 153.08,-86.3 159.43,-83.36"/>
</g>
<!-- Node8&#45;&gt;Node10 -->
<g id="edge11" class="edge">
<title>Node8&#45;&gt;Node10</title>
<path fill="none" stroke="midnightblue" d="M180.76,-112.08C187.54,-104.3 197.54,-92.8 205.76,-83.37"/>
<polygon fill="midnightblue" stroke="midnightblue" points="208.46,-85.59 212.38,-75.75 203.18,-81 208.46,-85.59"/>
</g>
</g>
</svg>
