<?xml version="1.0" encoding="UTF-8" standalone="no"?>
<!DOCTYPE svg PUBLIC "-//W3C//DTD SVG 1.1//EN"
 "http://www.w3.org/Graphics/SVG/1.1/DTD/svg11.dtd">
<!-- Generated by graphviz version 2.46.1 (20210213.1702)
 -->
<!-- Title: popularimeterframe.h Pages: 1 -->
<svg width="354pt" height="308pt"
 viewBox="0.00 0.00 353.50 308.00" xmlns="http://www.w3.org/2000/svg" xmlns:xlink="http://www.w3.org/1999/xlink">
<g id="graph0" class="graph" transform="scale(1 1) rotate(0) translate(4 304)">
<title>popularimeterframe.h</title>
<polygon fill="white" stroke="transparent" points="-4,4 -4,-304 349.5,-304 349.5,4 -4,4"/>
<!-- Node1 -->
<g id="node1" class="node">
<title>Node1</title>
<g id="a_node1"><a xlink:title=" ">
<polygon fill="#bfbfbf" stroke="black" points="0,-280.5 0,-299.5 108,-299.5 108,-280.5 0,-280.5"/>
<text text-anchor="middle" x="54" y="-287.5" font-family="Helvetica,sans-Serif" font-size="10.00">popularimeterframe.h</text>
</a>
</g>
</g>
<!-- Node2 -->
<g id="node2" class="node">
<title>Node2</title>
<g id="a_node2"><a xlink:href="id3v2frame_8h.html" target="_top" xlink:title=" ">
<polygon fill="white" stroke="black" points="61.5,-224.5 61.5,-243.5 134.5,-243.5 134.5,-224.5 61.5,-224.5"/>
<text text-anchor="middle" x="98" y="-231.5" font-family="Helvetica,sans-Serif" font-size="10.00">id3v2frame.h</text>
</a>
</g>
</g>
<!-- Node1&#45;&gt;Node2 -->
<g id="edge1" class="edge">
<title>Node1&#45;&gt;Node2</title>
<path fill="none" stroke="midnightblue" d="M61.27,-280.08C67.54,-272.38 76.79,-261.03 84.43,-251.65"/>
<polygon fill="midnightblue" stroke="midnightblue" points="87.27,-253.71 90.87,-243.75 81.84,-249.29 87.27,-253.71"/>
</g>
<!-- Node4 -->
<g id="node4" class="node">
<title>Node4</title>
<g id="a_node4"><a xlink:href="taglib__export_8h.html" target="_top" xlink:title=" ">
<polygon fill="white" stroke="black" points="17,-56.5 17,-75.5 97,-75.5 97,-56.5 17,-56.5"/>
<text text-anchor="middle" x="57" y="-63.5" font-family="Helvetica,sans-Serif" font-size="10.00">taglib_export.h</text>
</a>
</g>
</g>
<!-- Node1&#45;&gt;Node4 -->
<g id="edge16" class="edge">
<title>Node1&#45;&gt;Node4</title>
<path fill="none" stroke="midnightblue" d="M53.5,-280.38C53.01,-271.32 52.28,-256.67 52,-244 50.72,-186.52 53.98,-118.55 55.83,-86.1"/>
<polygon fill="midnightblue" stroke="midnightblue" points="59.34,-86.03 56.43,-75.84 52.35,-85.62 59.34,-86.03"/>
</g>
<!-- Node3 -->
<g id="node3" class="node">
<title>Node3</title>
<g id="a_node3"><a xlink:href="tstring_8h.html" target="_top" xlink:title=" ">
<polygon fill="white" stroke="black" points="166,-168.5 166,-187.5 218,-187.5 218,-168.5 166,-168.5"/>
<text text-anchor="middle" x="192" y="-175.5" font-family="Helvetica,sans-Serif" font-size="10.00">tstring.h</text>
</a>
</g>
</g>
<!-- Node2&#45;&gt;Node3 -->
<g id="edge2" class="edge">
<title>Node2&#45;&gt;Node3</title>
<path fill="none" stroke="midnightblue" d="M113.1,-224.32C127.9,-215.82 150.69,-202.73 167.98,-192.8"/>
<polygon fill="midnightblue" stroke="midnightblue" points="170.01,-195.67 176.93,-187.65 166.52,-189.6 170.01,-195.67"/>
</g>
<!-- Node2&#45;&gt;Node4 -->
<g id="edge15" class="edge">
<title>Node2&#45;&gt;Node4</title>
<path fill="none" stroke="midnightblue" d="M95.8,-224.08C89.34,-197.95 70.39,-121.21 61.59,-85.58"/>
<polygon fill="midnightblue" stroke="midnightblue" points="64.91,-84.44 59.12,-75.57 58.12,-86.12 64.91,-84.44"/>
</g>
<!-- Node8 -->
<g id="node8" class="node">
<title>Node8</title>
<g id="a_node8"><a xlink:href="tbytevector_8h.html" target="_top" xlink:title=" ">
<polygon fill="white" stroke="black" points="126.5,-112.5 126.5,-131.5 199.5,-131.5 199.5,-112.5 126.5,-112.5"/>
<text text-anchor="middle" x="163" y="-119.5" font-family="Helvetica,sans-Serif" font-size="10.00">tbytevector.h</text>
</a>
</g>
</g>
<!-- Node2&#45;&gt;Node8 -->
<g id="edge14" class="edge">
<title>Node2&#45;&gt;Node8</title>
<path fill="none" stroke="midnightblue" d="M103.1,-224.37C113.78,-206.3 138.67,-164.18 152.77,-140.31"/>
<polygon fill="midnightblue" stroke="midnightblue" points="155.85,-141.98 157.92,-131.59 149.82,-138.42 155.85,-141.98"/>
</g>
<!-- Node3&#45;&gt;Node4 -->
<g id="edge3" class="edge">
<title>Node3&#45;&gt;Node4</title>
<path fill="none" stroke="midnightblue" d="M174.72,-168.45C158.9,-160.22 135.26,-146.85 117,-132 99.04,-117.39 81.43,-97.46 69.99,-83.53"/>
<polygon fill="midnightblue" stroke="midnightblue" points="72.71,-81.32 63.71,-75.73 67.25,-85.72 72.71,-81.32"/>
</g>
<!-- Node5 -->
<g id="node5" class="node">
<title>Node5</title>
<g id="a_node5"><a xlink:href="taglib_8h.html" target="_top" xlink:title=" ">
<polygon fill="white" stroke="black" points="249,-56.5 249,-75.5 297,-75.5 297,-56.5 249,-56.5"/>
<text text-anchor="middle" x="273" y="-63.5" font-family="Helvetica,sans-Serif" font-size="10.00">taglib.h</text>
</a>
</g>
</g>
<!-- Node3&#45;&gt;Node5 -->
<g id="edge4" class="edge">
<title>Node3&#45;&gt;Node5</title>
<path fill="none" stroke="midnightblue" d="M198.36,-168.37C211.78,-150.14 243.23,-107.43 260.72,-83.68"/>
<polygon fill="midnightblue" stroke="midnightblue" points="263.56,-85.72 266.67,-75.59 257.93,-81.57 263.56,-85.72"/>
</g>
<!-- Node7 -->
<g id="node7" class="node">
<title>Node7</title>
<g id="a_node7"><a xlink:title=" ">
<polygon fill="white" stroke="#bfbfbf" points="304.5,-0.5 304.5,-19.5 345.5,-19.5 345.5,-0.5 304.5,-0.5"/>
<text text-anchor="middle" x="325" y="-7.5" font-family="Helvetica,sans-Serif" font-size="10.00">string</text>
</a>
</g>
</g>
<!-- Node3&#45;&gt;Node7 -->
<g id="edge12" class="edge">
<title>Node3&#45;&gt;Node7</title>
<path fill="none" stroke="midnightblue" d="M206.34,-168.37C230.67,-152.95 279.93,-118.32 306,-76 314.77,-61.77 319.66,-43.29 322.27,-29.68"/>
<polygon fill="midnightblue" stroke="midnightblue" points="325.76,-30.03 323.97,-19.59 318.86,-28.87 325.76,-30.03"/>
</g>
<!-- Node3&#45;&gt;Node8 -->
<g id="edge7" class="edge">
<title>Node3&#45;&gt;Node8</title>
<path fill="none" stroke="midnightblue" d="M187.21,-168.08C183.24,-160.69 177.47,-149.95 172.57,-140.81"/>
<polygon fill="midnightblue" stroke="midnightblue" points="175.51,-138.91 167.7,-131.75 169.35,-142.22 175.51,-138.91"/>
</g>
<!-- Node10 -->
<g id="node10" class="node">
<title>Node10</title>
<g id="a_node10"><a xlink:title=" ">
<polygon fill="white" stroke="#bfbfbf" points="177,-56.5 177,-75.5 231,-75.5 231,-56.5 177,-56.5"/>
<text text-anchor="middle" x="204" y="-63.5" font-family="Helvetica,sans-Serif" font-size="10.00">iostream</text>
</a>
</g>
</g>
<!-- Node3&#45;&gt;Node10 -->
<g id="edge13" class="edge">
<title>Node3&#45;&gt;Node10</title>
<path fill="none" stroke="midnightblue" d="M196.37,-168.31C200.56,-159.44 206.6,-145.14 209,-132 211.8,-116.67 210.14,-99.03 208.01,-86"/>
<polygon fill="midnightblue" stroke="midnightblue" points="211.4,-85.09 206.12,-75.91 204.52,-86.38 211.4,-85.09"/>
</g>
<!-- Node6 -->
<g id="node6" class="node">
<title>Node6</title>
<g id="a_node6"><a xlink:title=" ">
<polygon fill="white" stroke="#bfbfbf" points="206,-0.5 206,-19.5 286,-19.5 286,-0.5 206,-0.5"/>
<text text-anchor="middle" x="246" y="-7.5" font-family="Helvetica,sans-Serif" font-size="10.00">taglib_config.h</text>
</a>
</g>
</g>
<!-- Node5&#45;&gt;Node6 -->
<g id="edge5" class="edge">
<title>Node5&#45;&gt;Node6</title>
<path fill="none" stroke="midnightblue" d="M268.54,-56.08C264.85,-48.69 259.48,-37.95 254.91,-28.81"/>
<polygon fill="midnightblue" stroke="midnightblue" points="257.98,-27.13 250.38,-19.75 251.72,-30.26 257.98,-27.13"/>
</g>
<!-- Node5&#45;&gt;Node7 -->
<g id="edge6" class="edge">
<title>Node5&#45;&gt;Node7</title>
<path fill="none" stroke="midnightblue" d="M281.59,-56.08C289.16,-48.22 300.38,-36.57 309.51,-27.08"/>
<polygon fill="midnightblue" stroke="midnightblue" points="312.16,-29.38 316.57,-19.75 307.12,-24.53 312.16,-29.38"/>
</g>
<!-- Node8&#45;&gt;Node4 -->
<g id="edge9" class="edge">
<title>Node8&#45;&gt;Node4</title>
<path fill="none" stroke="midnightblue" d="M145.97,-112.32C128.97,-103.66 102.62,-90.24 83.01,-80.25"/>
<polygon fill="midnightblue" stroke="midnightblue" points="84.49,-77.08 73.99,-75.65 81.31,-83.31 84.49,-77.08"/>
</g>
<!-- Node8&#45;&gt;Node5 -->
<g id="edge8" class="edge">
<title>Node8&#45;&gt;Node5</title>
<path fill="none" stroke="midnightblue" d="M180.67,-112.32C198.39,-103.62 225.9,-90.12 246.29,-80.11"/>
<polygon fill="midnightblue" stroke="midnightblue" points="247.94,-83.2 255.37,-75.65 244.85,-76.92 247.94,-83.2"/>
</g>
<!-- Node9 -->
<g id="node9" class="node">
<title>Node9</title>
<g id="a_node9"><a xlink:title=" ">
<polygon fill="white" stroke="#bfbfbf" points="115,-56.5 115,-75.5 159,-75.5 159,-56.5 115,-56.5"/>
<text text-anchor="middle" x="137" y="-63.5" font-family="Helvetica,sans-Serif" font-size="10.00">vector</text>
</a>
</g>
</g>
<!-- Node8&#45;&gt;Node9 -->
<g id="edge10" class="edge">
<title>Node8&#45;&gt;Node9</title>
<path fill="none" stroke="midnightblue" d="M158.71,-112.08C155.15,-104.69 149.98,-93.95 145.58,-84.81"/>
<polygon fill="midnightblue" stroke="midnightblue" points="148.71,-83.24 141.21,-75.75 142.4,-86.28 148.71,-83.24"/>
</g>
<!-- Node8&#45;&gt;Node10 -->
<g id="edge11" class="edge">
<title>Node8&#45;&gt;Node10</title>
<path fill="none" stroke="midnightblue" d="M169.77,-112.08C175.56,-104.46 184.06,-93.26 191.14,-83.94"/>
<polygon fill="midnightblue" stroke="midnightblue" points="194.1,-85.83 197.36,-75.75 188.52,-81.6 194.1,-85.83"/>
</g>
</g>
</svg>
