<?xml version="1.0" encoding="UTF-8" standalone="no"?>
<!DOCTYPE svg PUBLIC "-//W3C//DTD SVG 1.1//EN"
 "http://www.w3.org/Graphics/SVG/1.1/DTD/svg11.dtd">
<!-- Generated by graphviz version 2.43.0 (0)
 -->
<!-- Title: privateframe.h Pages: 1 -->
<svg width="316pt" height="252pt"
 viewBox="0.00 0.00 315.50 252.00" xmlns="http://www.w3.org/2000/svg" xmlns:xlink="http://www.w3.org/1999/xlink">
<g id="graph0" class="graph" transform="scale(1 1) rotate(0) translate(4 248)">
<title>privateframe.h</title>
<polygon fill="white" stroke="transparent" points="-4,4 -4,-248 311.5,-248 311.5,4 -4,4"/>
<!-- Node1 -->
<g id="node1" class="node">
<title>Node1</title>
<g id="a_node1"><a xlink:title=" ">
<polygon fill="#bfbfbf" stroke="black" points="0,-224.5 0,-243.5 89,-243.5 89,-224.5 0,-224.5"/>
<text text-anchor="middle" x="44.5" y="-231.5" font-family="Helvetica,sans-Serif" font-size="10.00">privateframe.h</text>
</a>
</g>
</g>
<!-- Node2 -->
<g id="node2" class="node">
<title>Node2</title>
<g id="a_node2"><a xlink:href="taglib__export_8h.html" target="_top" xlink:title=" ">
<polygon fill="white" stroke="black" points="6.5,-0.5 6.5,-19.5 96.5,-19.5 96.5,-0.5 6.5,-0.5"/>
<text text-anchor="middle" x="51.5" y="-7.5" font-family="Helvetica,sans-Serif" font-size="10.00">taglib_export.h</text>
</a>
</g>
</g>
<!-- Node1&#45;&gt;Node2 -->
<g id="edge1" class="edge">
<title>Node1&#45;&gt;Node2</title>
<path fill="none" stroke="midnightblue" d="M44,-224.38C43.51,-215.32 42.78,-200.67 42.5,-188 41.22,-130.47 46.62,-62.52 49.61,-30.09"/>
<polygon fill="midnightblue" stroke="midnightblue" points="53.13,-30.12 50.59,-19.83 46.16,-29.46 53.13,-30.12"/>
</g>
<!-- Node3 -->
<g id="node3" class="node">
<title>Node3</title>
<g id="a_node3"><a xlink:href="id3v2frame_8h.html" target="_top" xlink:title=" ">
<polygon fill="white" stroke="black" points="51.5,-168.5 51.5,-187.5 133.5,-187.5 133.5,-168.5 51.5,-168.5"/>
<text text-anchor="middle" x="92.5" y="-175.5" font-family="Helvetica,sans-Serif" font-size="10.00">id3v2frame.h</text>
</a>
</g>
</g>
<!-- Node1&#45;&gt;Node3 -->
<g id="edge2" class="edge">
<title>Node1&#45;&gt;Node3</title>
<path fill="none" stroke="midnightblue" d="M52.43,-224.08C59.35,-216.3 69.57,-204.8 77.95,-195.37"/>
<polygon fill="midnightblue" stroke="midnightblue" points="80.69,-197.55 84.72,-187.75 75.46,-192.9 80.69,-197.55"/>
</g>
<!-- Node3&#45;&gt;Node2 -->
<g id="edge12" class="edge">
<title>Node3&#45;&gt;Node2</title>
<path fill="none" stroke="midnightblue" d="M90.3,-168.08C83.84,-141.95 64.89,-65.21 56.09,-29.58"/>
<polygon fill="midnightblue" stroke="midnightblue" points="59.41,-28.44 53.62,-19.57 52.62,-30.12 59.41,-28.44"/>
</g>
<!-- Node4 -->
<g id="node4" class="node">
<title>Node4</title>
<g id="a_node4"><a xlink:href="tstring_8h.html" target="_top" xlink:title=" ">
<polygon fill="white" stroke="black" points="92,-112.5 92,-131.5 149,-131.5 149,-112.5 92,-112.5"/>
<text text-anchor="middle" x="120.5" y="-119.5" font-family="Helvetica,sans-Serif" font-size="10.00">tstring.h</text>
</a>
</g>
</g>
<!-- Node3&#45;&gt;Node4 -->
<g id="edge3" class="edge">
<title>Node3&#45;&gt;Node4</title>
<path fill="none" stroke="midnightblue" d="M97.12,-168.08C100.96,-160.69 106.52,-149.95 111.26,-140.81"/>
<polygon fill="midnightblue" stroke="midnightblue" points="114.47,-142.24 115.96,-131.75 108.25,-139.02 114.47,-142.24"/>
</g>
<!-- Node6 -->
<g id="node6" class="node">
<title>Node6</title>
<g id="a_node6"><a xlink:href="tbytevector_8h.html" target="_top" xlink:title=" ">
<polygon fill="white" stroke="black" points="177,-56.5 177,-75.5 258,-75.5 258,-56.5 177,-56.5"/>
<text text-anchor="middle" x="217.5" y="-63.5" font-family="Helvetica,sans-Serif" font-size="10.00">tbytevector.h</text>
</a>
</g>
</g>
<!-- Node3&#45;&gt;Node6 -->
<g id="edge11" class="edge">
<title>Node3&#45;&gt;Node6</title>
<path fill="none" stroke="midnightblue" d="M106.85,-168.36C120.47,-159.86 141.24,-146.14 157.5,-132 174.81,-116.96 192.33,-97.36 203.94,-83.62"/>
<polygon fill="midnightblue" stroke="midnightblue" points="206.94,-85.48 210.65,-75.56 201.56,-81.01 206.94,-85.48"/>
</g>
<!-- Node4&#45;&gt;Node2 -->
<g id="edge10" class="edge">
<title>Node4&#45;&gt;Node2</title>
<path fill="none" stroke="midnightblue" d="M115.09,-112.37C103.75,-94.3 77.33,-52.18 62.36,-28.31"/>
<polygon fill="midnightblue" stroke="midnightblue" points="65.17,-26.2 56.89,-19.59 59.24,-29.92 65.17,-26.2"/>
</g>
<!-- Node5 -->
<g id="node5" class="node">
<title>Node5</title>
<g id="a_node5"><a xlink:title=" ">
<polygon fill="white" stroke="#bfbfbf" points="114.5,-56.5 114.5,-75.5 158.5,-75.5 158.5,-56.5 114.5,-56.5"/>
<text text-anchor="middle" x="136.5" y="-63.5" font-family="Helvetica,sans-Serif" font-size="10.00">string</text>
</a>
</g>
</g>
<!-- Node4&#45;&gt;Node5 -->
<g id="edge4" class="edge">
<title>Node4&#45;&gt;Node5</title>
<path fill="none" stroke="midnightblue" d="M123.14,-112.08C125.29,-104.85 128.38,-94.41 131.05,-85.4"/>
<polygon fill="midnightblue" stroke="midnightblue" points="134.42,-86.33 133.91,-75.75 127.71,-84.34 134.42,-86.33"/>
</g>
<!-- Node4&#45;&gt;Node6 -->
<g id="edge5" class="edge">
<title>Node4&#45;&gt;Node6</title>
<path fill="none" stroke="midnightblue" d="M136.08,-112.32C151.5,-103.74 175.31,-90.49 193.21,-80.52"/>
<polygon fill="midnightblue" stroke="midnightblue" points="194.92,-83.58 201.95,-75.65 191.51,-77.46 194.92,-83.58"/>
</g>
<!-- Node6&#45;&gt;Node2 -->
<g id="edge9" class="edge">
<title>Node6&#45;&gt;Node2</title>
<path fill="none" stroke="midnightblue" d="M191.2,-56.44C163.15,-47.32 118.56,-32.81 87.32,-22.65"/>
<polygon fill="midnightblue" stroke="midnightblue" points="88.27,-19.28 77.68,-19.52 86.11,-25.94 88.27,-19.28"/>
</g>
<!-- Node7 -->
<g id="node7" class="node">
<title>Node7</title>
<g id="a_node7"><a xlink:title=" ">
<polygon fill="white" stroke="#bfbfbf" points="117.5,-0.5 117.5,-19.5 175.5,-19.5 175.5,-0.5 117.5,-0.5"/>
<text text-anchor="middle" x="146.5" y="-7.5" font-family="Helvetica,sans-Serif" font-size="10.00">memory</text>
</a>
</g>
</g>
<!-- Node6&#45;&gt;Node7 -->
<g id="edge6" class="edge">
<title>Node6&#45;&gt;Node7</title>
<path fill="none" stroke="midnightblue" d="M206.09,-56.32C195.39,-48.18 179.16,-35.84 166.34,-26.09"/>
<polygon fill="midnightblue" stroke="midnightblue" points="168.19,-23.1 158.11,-19.83 163.96,-28.67 168.19,-23.1"/>
</g>
<!-- Node8 -->
<g id="node8" class="node">
<title>Node8</title>
<g id="a_node8"><a xlink:title=" ">
<polygon fill="white" stroke="#bfbfbf" points="194,-0.5 194,-19.5 241,-19.5 241,-0.5 194,-0.5"/>
<text text-anchor="middle" x="217.5" y="-7.5" font-family="Helvetica,sans-Serif" font-size="10.00">vector</text>
</a>
</g>
</g>
<!-- Node6&#45;&gt;Node8 -->
<g id="edge7" class="edge">
<title>Node6&#45;&gt;Node8</title>
<path fill="none" stroke="midnightblue" d="M217.5,-56.08C217.5,-49.01 217.5,-38.86 217.5,-29.99"/>
<polygon fill="midnightblue" stroke="midnightblue" points="221,-29.75 217.5,-19.75 214,-29.75 221,-29.75"/>
</g>
<!-- Node9 -->
<g id="node9" class="node">
<title>Node9</title>
<g id="a_node9"><a xlink:title=" ">
<polygon fill="white" stroke="#bfbfbf" points="259.5,-0.5 259.5,-19.5 307.5,-19.5 307.5,-0.5 259.5,-0.5"/>
<text text-anchor="middle" x="283.5" y="-7.5" font-family="Helvetica,sans-Serif" font-size="10.00">iosfwd</text>
</a>
</g>
</g>
<!-- Node6&#45;&gt;Node9 -->
<g id="edge8" class="edge">
<title>Node6&#45;&gt;Node9</title>
<path fill="none" stroke="midnightblue" d="M228.1,-56.32C237.96,-48.26 252.85,-36.08 264.72,-26.37"/>
<polygon fill="midnightblue" stroke="midnightblue" points="267.18,-28.88 272.7,-19.83 262.75,-23.46 267.18,-28.88"/>
</g>
</g>
</svg>
