<?xml version="1.0" encoding="UTF-8" standalone="no"?>
<!DOCTYPE svg PUBLIC "-//W3C//DTD SVG 1.1//EN"
 "http://www.w3.org/Graphics/SVG/1.1/DTD/svg11.dtd">
<!-- Generated by graphviz version 2.46.1 (20210213.1702)
 -->
<!-- Title: privateframe.h Pages: 1 -->
<svg width="339pt" height="308pt"
 viewBox="0.00 0.00 339.00 308.00" xmlns="http://www.w3.org/2000/svg" xmlns:xlink="http://www.w3.org/1999/xlink">
<g id="graph0" class="graph" transform="scale(1 1) rotate(0) translate(4 304)">
<title>privateframe.h</title>
<polygon fill="white" stroke="transparent" points="-4,4 -4,-304 335,-304 335,4 -4,4"/>
<!-- Node1 -->
<g id="node1" class="node">
<title>Node1</title>
<g id="a_node1"><a xlink:title=" ">
<polygon fill="#bfbfbf" stroke="black" points="0,-280.5 0,-299.5 79,-299.5 79,-280.5 0,-280.5"/>
<text text-anchor="middle" x="39.5" y="-287.5" font-family="Helvetica,sans-Serif" font-size="10.00">privateframe.h</text>
</a>
</g>
</g>
<!-- Node2 -->
<g id="node2" class="node">
<title>Node2</title>
<g id="a_node2"><a xlink:href="id3v2frame_8h.html" target="_top" xlink:title=" ">
<polygon fill="white" stroke="black" points="47,-224.5 47,-243.5 120,-243.5 120,-224.5 47,-224.5"/>
<text text-anchor="middle" x="83.5" y="-231.5" font-family="Helvetica,sans-Serif" font-size="10.00">id3v2frame.h</text>
</a>
</g>
</g>
<!-- Node1&#45;&gt;Node2 -->
<g id="edge1" class="edge">
<title>Node1&#45;&gt;Node2</title>
<path fill="none" stroke="midnightblue" d="M46.77,-280.08C53.04,-272.38 62.29,-261.03 69.93,-251.65"/>
<polygon fill="midnightblue" stroke="midnightblue" points="72.77,-253.71 76.37,-243.75 67.34,-249.29 72.77,-253.71"/>
</g>
<!-- Node4 -->
<g id="node4" class="node">
<title>Node4</title>
<g id="a_node4"><a xlink:href="taglib__export_8h.html" target="_top" xlink:title=" ">
<polygon fill="white" stroke="black" points="2.5,-56.5 2.5,-75.5 82.5,-75.5 82.5,-56.5 2.5,-56.5"/>
<text text-anchor="middle" x="42.5" y="-63.5" font-family="Helvetica,sans-Serif" font-size="10.00">taglib_export.h</text>
</a>
</g>
</g>
<!-- Node1&#45;&gt;Node4 -->
<g id="edge16" class="edge">
<title>Node1&#45;&gt;Node4</title>
<path fill="none" stroke="midnightblue" d="M39,-280.38C38.51,-271.32 37.78,-256.67 37.5,-244 36.22,-186.52 39.48,-118.55 41.33,-86.1"/>
<polygon fill="midnightblue" stroke="midnightblue" points="44.84,-86.03 41.93,-75.84 37.85,-85.62 44.84,-86.03"/>
</g>
<!-- Node3 -->
<g id="node3" class="node">
<title>Node3</title>
<g id="a_node3"><a xlink:href="tstring_8h.html" target="_top" xlink:title=" ">
<polygon fill="white" stroke="black" points="151.5,-168.5 151.5,-187.5 203.5,-187.5 203.5,-168.5 151.5,-168.5"/>
<text text-anchor="middle" x="177.5" y="-175.5" font-family="Helvetica,sans-Serif" font-size="10.00">tstring.h</text>
</a>
</g>
</g>
<!-- Node2&#45;&gt;Node3 -->
<g id="edge2" class="edge">
<title>Node2&#45;&gt;Node3</title>
<path fill="none" stroke="midnightblue" d="M98.6,-224.32C113.4,-215.82 136.19,-202.73 153.48,-192.8"/>
<polygon fill="midnightblue" stroke="midnightblue" points="155.51,-195.67 162.43,-187.65 152.02,-189.6 155.51,-195.67"/>
</g>
<!-- Node2&#45;&gt;Node4 -->
<g id="edge15" class="edge">
<title>Node2&#45;&gt;Node4</title>
<path fill="none" stroke="midnightblue" d="M81.3,-224.08C74.84,-197.95 55.89,-121.21 47.09,-85.58"/>
<polygon fill="midnightblue" stroke="midnightblue" points="50.41,-84.44 44.62,-75.57 43.62,-86.12 50.41,-84.44"/>
</g>
<!-- Node8 -->
<g id="node8" class="node">
<title>Node8</title>
<g id="a_node8"><a xlink:href="tbytevector_8h.html" target="_top" xlink:title=" ">
<polygon fill="white" stroke="black" points="112,-112.5 112,-131.5 185,-131.5 185,-112.5 112,-112.5"/>
<text text-anchor="middle" x="148.5" y="-119.5" font-family="Helvetica,sans-Serif" font-size="10.00">tbytevector.h</text>
</a>
</g>
</g>
<!-- Node2&#45;&gt;Node8 -->
<g id="edge14" class="edge">
<title>Node2&#45;&gt;Node8</title>
<path fill="none" stroke="midnightblue" d="M88.6,-224.37C99.28,-206.3 124.17,-164.18 138.27,-140.31"/>
<polygon fill="midnightblue" stroke="midnightblue" points="141.35,-141.98 143.42,-131.59 135.32,-138.42 141.35,-141.98"/>
</g>
<!-- Node3&#45;&gt;Node4 -->
<g id="edge3" class="edge">
<title>Node3&#45;&gt;Node4</title>
<path fill="none" stroke="midnightblue" d="M160.22,-168.45C144.4,-160.22 120.76,-146.85 102.5,-132 84.54,-117.39 66.93,-97.46 55.49,-83.53"/>
<polygon fill="midnightblue" stroke="midnightblue" points="58.21,-81.32 49.21,-75.73 52.75,-85.72 58.21,-81.32"/>
</g>
<!-- Node5 -->
<g id="node5" class="node">
<title>Node5</title>
<g id="a_node5"><a xlink:href="taglib_8h.html" target="_top" xlink:title=" ">
<polygon fill="white" stroke="black" points="234.5,-56.5 234.5,-75.5 282.5,-75.5 282.5,-56.5 234.5,-56.5"/>
<text text-anchor="middle" x="258.5" y="-63.5" font-family="Helvetica,sans-Serif" font-size="10.00">taglib.h</text>
</a>
</g>
</g>
<!-- Node3&#45;&gt;Node5 -->
<g id="edge4" class="edge">
<title>Node3&#45;&gt;Node5</title>
<path fill="none" stroke="midnightblue" d="M183.86,-168.37C197.28,-150.14 228.73,-107.43 246.22,-83.68"/>
<polygon fill="midnightblue" stroke="midnightblue" points="249.06,-85.72 252.17,-75.59 243.43,-81.57 249.06,-85.72"/>
</g>
<!-- Node7 -->
<g id="node7" class="node">
<title>Node7</title>
<g id="a_node7"><a xlink:title=" ">
<polygon fill="white" stroke="#bfbfbf" points="290,-0.5 290,-19.5 331,-19.5 331,-0.5 290,-0.5"/>
<text text-anchor="middle" x="310.5" y="-7.5" font-family="Helvetica,sans-Serif" font-size="10.00">string</text>
</a>
</g>
</g>
<!-- Node3&#45;&gt;Node7 -->
<g id="edge12" class="edge">
<title>Node3&#45;&gt;Node7</title>
<path fill="none" stroke="midnightblue" d="M191.84,-168.37C216.17,-152.95 265.43,-118.32 291.5,-76 300.27,-61.77 305.16,-43.29 307.77,-29.68"/>
<polygon fill="midnightblue" stroke="midnightblue" points="311.26,-30.03 309.47,-19.59 304.36,-28.87 311.26,-30.03"/>
</g>
<!-- Node3&#45;&gt;Node8 -->
<g id="edge7" class="edge">
<title>Node3&#45;&gt;Node8</title>
<path fill="none" stroke="midnightblue" d="M172.71,-168.08C168.74,-160.69 162.97,-149.95 158.07,-140.81"/>
<polygon fill="midnightblue" stroke="midnightblue" points="161.01,-138.91 153.2,-131.75 154.85,-142.22 161.01,-138.91"/>
</g>
<!-- Node10 -->
<g id="node10" class="node">
<title>Node10</title>
<g id="a_node10"><a xlink:title=" ">
<polygon fill="white" stroke="#bfbfbf" points="162.5,-56.5 162.5,-75.5 216.5,-75.5 216.5,-56.5 162.5,-56.5"/>
<text text-anchor="middle" x="189.5" y="-63.5" font-family="Helvetica,sans-Serif" font-size="10.00">iostream</text>
</a>
</g>
</g>
<!-- Node3&#45;&gt;Node10 -->
<g id="edge13" class="edge">
<title>Node3&#45;&gt;Node10</title>
<path fill="none" stroke="midnightblue" d="M181.87,-168.31C186.06,-159.44 192.1,-145.14 194.5,-132 197.3,-116.67 195.64,-99.03 193.51,-86"/>
<polygon fill="midnightblue" stroke="midnightblue" points="196.9,-85.09 191.62,-75.91 190.02,-86.38 196.9,-85.09"/>
</g>
<!-- Node6 -->
<g id="node6" class="node">
<title>Node6</title>
<g id="a_node6"><a xlink:title=" ">
<polygon fill="white" stroke="#bfbfbf" points="191.5,-0.5 191.5,-19.5 271.5,-19.5 271.5,-0.5 191.5,-0.5"/>
<text text-anchor="middle" x="231.5" y="-7.5" font-family="Helvetica,sans-Serif" font-size="10.00">taglib_config.h</text>
</a>
</g>
</g>
<!-- Node5&#45;&gt;Node6 -->
<g id="edge5" class="edge">
<title>Node5&#45;&gt;Node6</title>
<path fill="none" stroke="midnightblue" d="M254.04,-56.08C250.35,-48.69 244.98,-37.95 240.41,-28.81"/>
<polygon fill="midnightblue" stroke="midnightblue" points="243.48,-27.13 235.88,-19.75 237.22,-30.26 243.48,-27.13"/>
</g>
<!-- Node5&#45;&gt;Node7 -->
<g id="edge6" class="edge">
<title>Node5&#45;&gt;Node7</title>
<path fill="none" stroke="midnightblue" d="M267.09,-56.08C274.66,-48.22 285.88,-36.57 295.01,-27.08"/>
<polygon fill="midnightblue" stroke="midnightblue" points="297.66,-29.38 302.07,-19.75 292.62,-24.53 297.66,-29.38"/>
</g>
<!-- Node8&#45;&gt;Node4 -->
<g id="edge9" class="edge">
<title>Node8&#45;&gt;Node4</title>
<path fill="none" stroke="midnightblue" d="M131.47,-112.32C114.47,-103.66 88.12,-90.24 68.51,-80.25"/>
<polygon fill="midnightblue" stroke="midnightblue" points="69.99,-77.08 59.49,-75.65 66.81,-83.31 69.99,-77.08"/>
</g>
<!-- Node8&#45;&gt;Node5 -->
<g id="edge8" class="edge">
<title>Node8&#45;&gt;Node5</title>
<path fill="none" stroke="midnightblue" d="M166.17,-112.32C183.89,-103.62 211.4,-90.12 231.79,-80.11"/>
<polygon fill="midnightblue" stroke="midnightblue" points="233.44,-83.2 240.87,-75.65 230.35,-76.92 233.44,-83.2"/>
</g>
<!-- Node9 -->
<g id="node9" class="node">
<title>Node9</title>
<g id="a_node9"><a xlink:title=" ">
<polygon fill="white" stroke="#bfbfbf" points="100.5,-56.5 100.5,-75.5 144.5,-75.5 144.5,-56.5 100.5,-56.5"/>
<text text-anchor="middle" x="122.5" y="-63.5" font-family="Helvetica,sans-Serif" font-size="10.00">vector</text>
</a>
</g>
</g>
<!-- Node8&#45;&gt;Node9 -->
<g id="edge10" class="edge">
<title>Node8&#45;&gt;Node9</title>
<path fill="none" stroke="midnightblue" d="M144.21,-112.08C140.65,-104.69 135.48,-93.95 131.08,-84.81"/>
<polygon fill="midnightblue" stroke="midnightblue" points="134.21,-83.24 126.71,-75.75 127.9,-86.28 134.21,-83.24"/>
</g>
<!-- Node8&#45;&gt;Node10 -->
<g id="edge11" class="edge">
<title>Node8&#45;&gt;Node10</title>
<path fill="none" stroke="midnightblue" d="M155.27,-112.08C161.06,-104.46 169.56,-93.26 176.64,-83.94"/>
<polygon fill="midnightblue" stroke="midnightblue" points="179.6,-85.83 182.86,-75.75 174.02,-81.6 179.6,-85.83"/>
</g>
</g>
</svg>
