<?xml version="1.0" encoding="UTF-8" standalone="no"?>
<!DOCTYPE svg PUBLIC "-//W3C//DTD SVG 1.1//EN"
 "http://www.w3.org/Graphics/SVG/1.1/DTD/svg11.dtd">
<!-- Generated by graphviz version 2.46.1 (20210213.1702)
 -->
<!-- Title: relativevolumeframe.h Pages: 1 -->
<svg width="451pt" height="308pt"
 viewBox="0.00 0.00 450.50 308.00" xmlns="http://www.w3.org/2000/svg" xmlns:xlink="http://www.w3.org/1999/xlink">
<g id="graph0" class="graph" transform="scale(1 1) rotate(0) translate(4 304)">
<title>relativevolumeframe.h</title>
<polygon fill="white" stroke="transparent" points="-4,4 -4,-304 446.5,-304 446.5,4 -4,4"/>
<!-- Node1 -->
<g id="node1" class="node">
<title>Node1</title>
<g id="a_node1"><a xlink:title=" ">
<polygon fill="#bfbfbf" stroke="black" points="93.5,-280.5 93.5,-299.5 206.5,-299.5 206.5,-280.5 93.5,-280.5"/>
<text text-anchor="middle" x="150" y="-287.5" font-family="Helvetica,sans-Serif" font-size="10.00">relativevolumeframe.h</text>
</a>
</g>
</g>
<!-- Node2 -->
<g id="node2" class="node">
<title>Node2</title>
<g id="a_node2"><a xlink:href="tlist_8h.html" target="_top" xlink:title=" ">
<polygon fill="white" stroke="black" points="318.5,-224.5 318.5,-243.5 359.5,-243.5 359.5,-224.5 318.5,-224.5"/>
<text text-anchor="middle" x="339" y="-231.5" font-family="Helvetica,sans-Serif" font-size="10.00">tlist.h</text>
</a>
</g>
</g>
<!-- Node1&#45;&gt;Node2 -->
<g id="edge1" class="edge">
<title>Node1&#45;&gt;Node2</title>
<path fill="none" stroke="midnightblue" d="M179.95,-280.44C215.09,-270.4 273.06,-253.84 308.46,-243.73"/>
<polygon fill="midnightblue" stroke="midnightblue" points="309.59,-247.04 318.24,-240.93 307.67,-240.31 309.59,-247.04"/>
</g>
<!-- Node8 -->
<g id="node8" class="node">
<title>Node8</title>
<g id="a_node8"><a xlink:href="id3v2frame_8h.html" target="_top" xlink:title=" ">
<polygon fill="white" stroke="black" points="113.5,-224.5 113.5,-243.5 186.5,-243.5 186.5,-224.5 113.5,-224.5"/>
<text text-anchor="middle" x="150" y="-231.5" font-family="Helvetica,sans-Serif" font-size="10.00">id3v2frame.h</text>
</a>
</g>
</g>
<!-- Node1&#45;&gt;Node8 -->
<g id="edge7" class="edge">
<title>Node1&#45;&gt;Node8</title>
<path fill="none" stroke="midnightblue" d="M150,-280.08C150,-273.01 150,-262.86 150,-253.99"/>
<polygon fill="midnightblue" stroke="midnightblue" points="153.5,-253.75 150,-243.75 146.5,-253.75 153.5,-253.75"/>
</g>
<!-- Node10 -->
<g id="node10" class="node">
<title>Node10</title>
<g id="a_node10"><a xlink:href="taglib__export_8h.html" target="_top" xlink:title=" ">
<polygon fill="white" stroke="black" points="0,-56.5 0,-75.5 80,-75.5 80,-56.5 0,-56.5"/>
<text text-anchor="middle" x="40" y="-63.5" font-family="Helvetica,sans-Serif" font-size="10.00">taglib_export.h</text>
</a>
</g>
</g>
<!-- Node1&#45;&gt;Node10 -->
<g id="edge20" class="edge">
<title>Node1&#45;&gt;Node10</title>
<path fill="none" stroke="midnightblue" d="M138.81,-280.43C128.56,-272.09 113.57,-258.56 104,-244 69.81,-191.99 51.07,-119.39 43.71,-85.63"/>
<polygon fill="midnightblue" stroke="midnightblue" points="47.12,-84.83 41.65,-75.76 40.27,-86.26 47.12,-84.83"/>
</g>
<!-- Node3 -->
<g id="node3" class="node">
<title>Node3</title>
<g id="a_node3"><a xlink:href="taglib_8h.html" target="_top" xlink:title=" ">
<polygon fill="white" stroke="black" points="274,-56.5 274,-75.5 322,-75.5 322,-56.5 274,-56.5"/>
<text text-anchor="middle" x="298" y="-63.5" font-family="Helvetica,sans-Serif" font-size="10.00">taglib.h</text>
</a>
</g>
</g>
<!-- Node2&#45;&gt;Node3 -->
<g id="edge2" class="edge">
<title>Node2&#45;&gt;Node3</title>
<path fill="none" stroke="midnightblue" d="M336.8,-224.08C330.34,-197.95 311.39,-121.21 302.59,-85.58"/>
<polygon fill="midnightblue" stroke="midnightblue" points="305.91,-84.44 300.12,-75.57 299.12,-86.12 305.91,-84.44"/>
</g>
<!-- Node6 -->
<g id="node6" class="node">
<title>Node6</title>
<g id="a_node6"><a xlink:title=" ">
<polygon fill="white" stroke="#bfbfbf" points="346.5,-168.5 346.5,-187.5 375.5,-187.5 375.5,-168.5 346.5,-168.5"/>
<text text-anchor="middle" x="361" y="-175.5" font-family="Helvetica,sans-Serif" font-size="10.00">list</text>
</a>
</g>
</g>
<!-- Node2&#45;&gt;Node6 -->
<g id="edge5" class="edge">
<title>Node2&#45;&gt;Node6</title>
<path fill="none" stroke="midnightblue" d="M342.63,-224.08C345.61,-216.77 349.93,-206.18 353.62,-197.1"/>
<polygon fill="midnightblue" stroke="midnightblue" points="356.9,-198.33 357.43,-187.75 350.42,-195.69 356.9,-198.33"/>
</g>
<!-- Node7 -->
<g id="node7" class="node">
<title>Node7</title>
<g id="a_node7"><a xlink:title=" ">
<polygon fill="white" stroke="#bfbfbf" points="393.5,-168.5 393.5,-187.5 442.5,-187.5 442.5,-168.5 393.5,-168.5"/>
<text text-anchor="middle" x="418" y="-175.5" font-family="Helvetica,sans-Serif" font-size="10.00">tlist.tcc</text>
</a>
</g>
</g>
<!-- Node2&#45;&gt;Node7 -->
<g id="edge6" class="edge">
<title>Node2&#45;&gt;Node7</title>
<path fill="none" stroke="midnightblue" d="M351.69,-224.32C363.9,-215.98 382.58,-203.21 397,-193.35"/>
<polygon fill="midnightblue" stroke="midnightblue" points="399.06,-196.19 405.34,-187.65 395.11,-190.41 399.06,-196.19"/>
</g>
<!-- Node4 -->
<g id="node4" class="node">
<title>Node4</title>
<g id="a_node4"><a xlink:title=" ">
<polygon fill="white" stroke="#bfbfbf" points="258,-0.5 258,-19.5 338,-19.5 338,-0.5 258,-0.5"/>
<text text-anchor="middle" x="298" y="-7.5" font-family="Helvetica,sans-Serif" font-size="10.00">taglib_config.h</text>
</a>
</g>
</g>
<!-- Node3&#45;&gt;Node4 -->
<g id="edge3" class="edge">
<title>Node3&#45;&gt;Node4</title>
<path fill="none" stroke="midnightblue" d="M298,-56.08C298,-49.01 298,-38.86 298,-29.99"/>
<polygon fill="midnightblue" stroke="midnightblue" points="301.5,-29.75 298,-19.75 294.5,-29.75 301.5,-29.75"/>
</g>
<!-- Node5 -->
<g id="node5" class="node">
<title>Node5</title>
<g id="a_node5"><a xlink:title=" ">
<polygon fill="white" stroke="#bfbfbf" points="145.5,-0.5 145.5,-19.5 186.5,-19.5 186.5,-0.5 145.5,-0.5"/>
<text text-anchor="middle" x="166" y="-7.5" font-family="Helvetica,sans-Serif" font-size="10.00">string</text>
</a>
</g>
</g>
<!-- Node3&#45;&gt;Node5 -->
<g id="edge4" class="edge">
<title>Node3&#45;&gt;Node5</title>
<path fill="none" stroke="midnightblue" d="M277.08,-56.44C255.26,-47.52 220.85,-33.44 196.11,-23.32"/>
<polygon fill="midnightblue" stroke="midnightblue" points="197.4,-20.06 186.82,-19.52 194.75,-26.54 197.4,-20.06"/>
</g>
<!-- Node9 -->
<g id="node9" class="node">
<title>Node9</title>
<g id="a_node9"><a xlink:href="tstring_8h.html" target="_top" xlink:title=" ">
<polygon fill="white" stroke="black" points="124,-168.5 124,-187.5 176,-187.5 176,-168.5 124,-168.5"/>
<text text-anchor="middle" x="150" y="-175.5" font-family="Helvetica,sans-Serif" font-size="10.00">tstring.h</text>
</a>
</g>
</g>
<!-- Node8&#45;&gt;Node9 -->
<g id="edge8" class="edge">
<title>Node8&#45;&gt;Node9</title>
<path fill="none" stroke="midnightblue" d="M150,-224.08C150,-217.01 150,-206.86 150,-197.99"/>
<polygon fill="midnightblue" stroke="midnightblue" points="153.5,-197.75 150,-187.75 146.5,-197.75 153.5,-197.75"/>
</g>
<!-- Node8&#45;&gt;Node10 -->
<g id="edge19" class="edge">
<title>Node8&#45;&gt;Node10</title>
<path fill="none" stroke="midnightblue" d="M143.15,-224.48C136,-215.5 124.51,-200.91 115,-188 97.02,-163.58 92.04,-157.74 76,-132 66.22,-116.29 56.1,-97.78 49.09,-84.54"/>
<polygon fill="midnightblue" stroke="midnightblue" points="52.13,-82.81 44.39,-75.57 45.93,-86.06 52.13,-82.81"/>
</g>
<!-- Node11 -->
<g id="node11" class="node">
<title>Node11</title>
<g id="a_node11"><a xlink:href="tbytevector_8h.html" target="_top" xlink:title=" ">
<polygon fill="white" stroke="black" points="178.5,-112.5 178.5,-131.5 251.5,-131.5 251.5,-112.5 178.5,-112.5"/>
<text text-anchor="middle" x="215" y="-119.5" font-family="Helvetica,sans-Serif" font-size="10.00">tbytevector.h</text>
</a>
</g>
</g>
<!-- Node8&#45;&gt;Node11 -->
<g id="edge18" class="edge">
<title>Node8&#45;&gt;Node11</title>
<path fill="none" stroke="midnightblue" d="M157.6,-224.47C165.15,-215.72 176.77,-201.53 185,-188 194.18,-172.92 202.41,-154.57 207.91,-141.21"/>
<polygon fill="midnightblue" stroke="midnightblue" points="211.24,-142.32 211.71,-131.73 204.74,-139.71 211.24,-142.32"/>
</g>
<!-- Node9&#45;&gt;Node3 -->
<g id="edge10" class="edge">
<title>Node9&#45;&gt;Node3</title>
<path fill="none" stroke="midnightblue" d="M176.41,-171.55C200.72,-165.41 236.6,-153.37 261,-132 275.46,-119.33 285.57,-99.58 291.53,-85.17"/>
<polygon fill="midnightblue" stroke="midnightblue" points="294.81,-86.39 295.13,-75.8 288.27,-83.87 294.81,-86.39"/>
</g>
<!-- Node9&#45;&gt;Node5 -->
<g id="edge16" class="edge">
<title>Node9&#45;&gt;Node5</title>
<path fill="none" stroke="midnightblue" d="M145.83,-168.24C136.75,-147.96 117.13,-96.43 131,-56 134.72,-45.16 142.23,-34.92 149.35,-26.96"/>
<polygon fill="midnightblue" stroke="midnightblue" points="152.05,-29.19 156.44,-19.55 147,-24.35 152.05,-29.19"/>
</g>
<!-- Node9&#45;&gt;Node10 -->
<g id="edge9" class="edge">
<title>Node9&#45;&gt;Node10</title>
<path fill="none" stroke="midnightblue" d="M139.29,-168.42C128.52,-159.63 111.61,-145.4 98,-132 82.09,-116.33 65.24,-97.11 53.82,-83.65"/>
<polygon fill="midnightblue" stroke="midnightblue" points="56.28,-81.14 47.17,-75.73 50.92,-85.64 56.28,-81.14"/>
</g>
<!-- Node9&#45;&gt;Node11 -->
<g id="edge11" class="edge">
<title>Node9&#45;&gt;Node11</title>
<path fill="none" stroke="midnightblue" d="M160.44,-168.32C170.15,-160.26 184.82,-148.08 196.5,-138.37"/>
<polygon fill="midnightblue" stroke="midnightblue" points="198.91,-140.92 204.37,-131.83 194.44,-135.53 198.91,-140.92"/>
</g>
<!-- Node13 -->
<g id="node13" class="node">
<title>Node13</title>
<g id="a_node13"><a xlink:title=" ">
<polygon fill="white" stroke="#bfbfbf" points="140,-56.5 140,-75.5 194,-75.5 194,-56.5 140,-56.5"/>
<text text-anchor="middle" x="167" y="-63.5" font-family="Helvetica,sans-Serif" font-size="10.00">iostream</text>
</a>
</g>
</g>
<!-- Node9&#45;&gt;Node13 -->
<g id="edge17" class="edge">
<title>Node9&#45;&gt;Node13</title>
<path fill="none" stroke="midnightblue" d="M151.33,-168.37C154.08,-150.62 160.41,-109.67 164.13,-85.6"/>
<polygon fill="midnightblue" stroke="midnightblue" points="167.6,-86.01 165.67,-75.59 160.69,-84.94 167.6,-86.01"/>
</g>
<!-- Node11&#45;&gt;Node3 -->
<g id="edge12" class="edge">
<title>Node11&#45;&gt;Node3</title>
<path fill="none" stroke="midnightblue" d="M228.34,-112.32C241.16,-103.98 260.78,-91.21 275.94,-81.35"/>
<polygon fill="midnightblue" stroke="midnightblue" points="278.22,-84.04 284.7,-75.65 274.41,-78.17 278.22,-84.04"/>
</g>
<!-- Node11&#45;&gt;Node10 -->
<g id="edge13" class="edge">
<title>Node11&#45;&gt;Node10</title>
<path fill="none" stroke="midnightblue" d="M187.27,-112.44C157.57,-103.28 110.28,-88.69 77.33,-78.52"/>
<polygon fill="midnightblue" stroke="midnightblue" points="78.19,-75.12 67.6,-75.52 76.12,-81.81 78.19,-75.12"/>
</g>
<!-- Node12 -->
<g id="node12" class="node">
<title>Node12</title>
<g id="a_node12"><a xlink:title=" ">
<polygon fill="white" stroke="#bfbfbf" points="212,-56.5 212,-75.5 256,-75.5 256,-56.5 212,-56.5"/>
<text text-anchor="middle" x="234" y="-63.5" font-family="Helvetica,sans-Serif" font-size="10.00">vector</text>
</a>
</g>
</g>
<!-- Node11&#45;&gt;Node12 -->
<g id="edge14" class="edge">
<title>Node11&#45;&gt;Node12</title>
<path fill="none" stroke="midnightblue" d="M218.14,-112.08C220.68,-104.85 224.36,-94.41 227.53,-85.4"/>
<polygon fill="midnightblue" stroke="midnightblue" points="230.9,-86.35 230.92,-75.75 224.3,-84.02 230.9,-86.35"/>
</g>
<!-- Node11&#45;&gt;Node13 -->
<g id="edge15" class="edge">
<title>Node11&#45;&gt;Node13</title>
<path fill="none" stroke="midnightblue" d="M207.07,-112.08C200.15,-104.3 189.93,-92.8 181.55,-83.37"/>
<polygon fill="midnightblue" stroke="midnightblue" points="184.04,-80.9 174.78,-75.75 178.81,-85.55 184.04,-80.9"/>
</g>
</g>
</svg>
