<?xml version="1.0" encoding="UTF-8" standalone="no"?>
<!DOCTYPE svg PUBLIC "-//W3C//DTD SVG 1.1//EN"
 "http://www.w3.org/Graphics/SVG/1.1/DTD/svg11.dtd">
<!-- Generated by graphviz version 2.42.4 (0)
 -->
<!-- Title: rifffile.h Pages: 1 -->
<svg width="887pt" height="302pt"
 viewBox="0.00 0.00 886.50 302.00" xmlns="http://www.w3.org/2000/svg" xmlns:xlink="http://www.w3.org/1999/xlink">
<g id="graph0" class="graph" transform="scale(1 1) rotate(0) translate(4 298)">
<title>rifffile.h</title>
<!-- Node1 -->
<g id="Node000001" class="node">
<title>Node1</title>
<g id="a_Node000001"><a xlink:title=" ">
<polygon fill="#999999" stroke="#666666" points="77,-294 23,-294 23,-275 77,-275 77,-294"/>
<text text-anchor="middle" x="50" y="-282" font-family="Helvetica,sans-Serif" font-size="10.00">rifffile.h</text>
</a>
</g>
</g>
<!-- Node2 -->
<g id="Node000002" class="node">
<title>Node2</title>
<g id="a_Node000002"><a xlink:href="tfile_8h.html" target="_top" xlink:title=" ">
<polygon fill="white" stroke="#666666" points="155,-239 111,-239 111,-220 155,-220 155,-239"/>
<text text-anchor="middle" x="133" y="-227" font-family="Helvetica,sans-Serif" font-size="10.00">tfile.h</text>
</a>
</g>
</g>
<!-- Node1&#45;&gt;Node2 -->
<g id="edge1_Node000001_Node000002" class="edge">
<title>Node1&#45;&gt;Node2</title>
<g id="a_edge1_Node000001_Node000002"><a xlink:title=" ">
<path fill="none" stroke="#63b8ff" d="M63.34,-274.98C76.09,-266.84 95.55,-254.41 110.67,-244.76"/>
<polygon fill="#63b8ff" stroke="#63b8ff" points="112.88,-247.5 119.42,-239.17 109.11,-241.6 112.88,-247.5"/>
</a>
</g>
</g>
<!-- Node7 -->
<g id="Node000007" class="node">
<title>Node7</title>
<g id="a_Node000007"><a xlink:href="taglib__export_8h.html" target="_top" xlink:title=" ">
<polygon fill="white" stroke="#666666" points="249,-19 159,-19 159,0 249,0 249,-19"/>
<text text-anchor="middle" x="204" y="-7" font-family="Helvetica,sans-Serif" font-size="10.00">taglib_export.h</text>
</a>
</g>
</g>
<!-- Node1&#45;&gt;Node7 -->
<g id="edge35_Node000001_Node000007" class="edge">
<title>Node1&#45;&gt;Node7</title>
<g id="a_edge35_Node000001_Node000007"><a xlink:title=" ">
<path fill="none" stroke="#63b8ff" d="M42.84,-274.89C29.01,-257.36 0,-215.79 0,-175.5 0,-175.5 0,-175.5 0,-118.5 0,-50.98 88.38,-25.55 148.8,-16.06"/>
<polygon fill="#63b8ff" stroke="#63b8ff" points="149.59,-19.48 158.98,-14.57 148.58,-12.56 149.59,-19.48"/>
</a>
</g>
</g>
<!-- Node3 -->
<g id="Node000003" class="node">
<title>Node3</title>
<g id="a_Node000003"><a xlink:href="tbytevector_8h.html" target="_top" xlink:title=" ">
<polygon fill="white" stroke="#666666" points="413.5,-74 332.5,-74 332.5,-55 413.5,-55 413.5,-74"/>
<text text-anchor="middle" x="373" y="-62" font-family="Helvetica,sans-Serif" font-size="10.00">tbytevector.h</text>
</a>
</g>
</g>
<!-- Node2&#45;&gt;Node3 -->
<g id="edge2_Node000002_Node000003" class="edge">
<title>Node2&#45;&gt;Node3</title>
<g id="a_edge2_Node000002_Node000003"><a xlink:title=" ">
<path fill="none" stroke="#63b8ff" d="M149.28,-219.88C165.43,-211.2 190.76,-197.24 212,-184 248.61,-161.17 257.23,-154.55 292,-129 313.75,-113.02 338.03,-93.8 354.28,-80.71"/>
<polygon fill="#63b8ff" stroke="#63b8ff" points="356.84,-83.15 362.42,-74.14 352.44,-77.7 356.84,-83.15"/>
</a>
</g>
</g>
<!-- Node2&#45;&gt;Node7 -->
<g id="edge12_Node000002_Node000007" class="edge">
<title>Node2&#45;&gt;Node7</title>
<g id="a_edge12_Node000002_Node000007"><a xlink:title=" ">
<path fill="none" stroke="#63b8ff" d="M123.35,-219.85C94.84,-193.23 15.45,-110.98 57,-55 77.93,-26.79 116.25,-15.83 148.52,-11.84"/>
<polygon fill="#63b8ff" stroke="#63b8ff" points="149.17,-15.29 158.75,-10.77 148.44,-8.33 149.17,-15.29"/>
</a>
</g>
</g>
<!-- Node8 -->
<g id="Node000008" class="node">
<title>Node8</title>
<g id="a_Node000008"><a xlink:href="tiostream_8h.html" target="_top" xlink:title=" ">
<polygon fill="white" stroke="#666666" points="202.5,-184 129.5,-184 129.5,-165 202.5,-165 202.5,-184"/>
<text text-anchor="middle" x="166" y="-172" font-family="Helvetica,sans-Serif" font-size="10.00">tiostream.h</text>
</a>
</g>
</g>
<!-- Node2&#45;&gt;Node8 -->
<g id="edge7_Node000002_Node000008" class="edge">
<title>Node2&#45;&gt;Node8</title>
<g id="a_edge7_Node000002_Node000008"><a xlink:title=" ">
<path fill="none" stroke="#63b8ff" d="M138.45,-219.75C143.01,-212.42 149.67,-201.73 155.29,-192.7"/>
<polygon fill="#63b8ff" stroke="#63b8ff" points="158.34,-194.43 160.65,-184.09 152.4,-190.73 158.34,-194.43"/>
</a>
</g>
</g>
<!-- Node9 -->
<g id="Node000009" class="node">
<title>Node9</title>
<g id="a_Node000009"><a xlink:href="taglib_8h.html" target="_top" xlink:title=" ">
<polygon fill="white" stroke="#666666" points="128.5,-129 75.5,-129 75.5,-110 128.5,-110 128.5,-129"/>
<text text-anchor="middle" x="102" y="-117" font-family="Helvetica,sans-Serif" font-size="10.00">taglib.h</text>
</a>
</g>
</g>
<!-- Node2&#45;&gt;Node9 -->
<g id="edge13_Node000002_Node000009" class="edge">
<title>Node2&#45;&gt;Node9</title>
<g id="a_edge13_Node000002_Node000009"><a xlink:title=" ">
<path fill="none" stroke="#63b8ff" d="M130.49,-219.97C127.85,-211.02 123.61,-196.53 120,-184 115.64,-168.84 110.76,-151.62 107.19,-138.94"/>
<polygon fill="#63b8ff" stroke="#63b8ff" points="110.5,-137.81 104.42,-129.13 103.77,-139.71 110.5,-137.81"/>
</a>
</g>
</g>
<!-- Node11 -->
<g id="Node000011" class="node">
<title>Node11</title>
<g id="a_Node000011"><a xlink:href="tag_8h.html" target="_top" xlink:title=" ">
<polygon fill="white" stroke="#666666" points="387.5,-184 346.5,-184 346.5,-165 387.5,-165 387.5,-184"/>
<text text-anchor="middle" x="367" y="-172" font-family="Helvetica,sans-Serif" font-size="10.00">tag.h</text>
</a>
</g>
</g>
<!-- Node2&#45;&gt;Node11 -->
<g id="edge14_Node000002_Node000011" class="edge">
<title>Node2&#45;&gt;Node11</title>
<g id="a_edge14_Node000002_Node000011"><a xlink:title=" ">
<path fill="none" stroke="#63b8ff" d="M155.12,-223.69C191.88,-215.67 267.87,-198.96 332,-184 333.45,-183.66 334.93,-183.31 336.42,-182.96"/>
<polygon fill="#63b8ff" stroke="#63b8ff" points="337.38,-186.33 346.29,-180.6 335.75,-179.52 337.38,-186.33"/>
</a>
</g>
</g>
<!-- Node4 -->
<g id="Node000004" class="node">
<title>Node4</title>
<g id="a_Node000004"><a xlink:title=" ">
<polygon fill="#e0e0e0" stroke="#999999" points="521,-19 463,-19 463,0 521,0 521,-19"/>
<text text-anchor="middle" x="492" y="-7" font-family="Helvetica,sans-Serif" font-size="10.00">memory</text>
</a>
</g>
</g>
<!-- Node3&#45;&gt;Node4 -->
<g id="edge3_Node000003_Node000004" class="edge">
<title>Node3&#45;&gt;Node4</title>
<g id="a_edge3_Node000003_Node000004"><a xlink:title=" ">
<path fill="none" stroke="#63b8ff" d="M392.12,-54.98C411.35,-46.42 441.23,-33.11 463.31,-23.28"/>
<polygon fill="#63b8ff" stroke="#63b8ff" points="464.82,-26.44 472.53,-19.17 461.97,-20.04 464.82,-26.44"/>
</a>
</g>
</g>
<!-- Node5 -->
<g id="Node000005" class="node">
<title>Node5</title>
<g id="a_Node000005"><a xlink:title=" ">
<polygon fill="#e0e0e0" stroke="#999999" points="381.5,-19 334.5,-19 334.5,0 381.5,0 381.5,-19"/>
<text text-anchor="middle" x="358" y="-7" font-family="Helvetica,sans-Serif" font-size="10.00">vector</text>
</a>
</g>
</g>
<!-- Node3&#45;&gt;Node5 -->
<g id="edge4_Node000003_Node000005" class="edge">
<title>Node3&#45;&gt;Node5</title>
<g id="a_edge4_Node000003_Node000005"><a xlink:title=" ">
<path fill="none" stroke="#63b8ff" d="M370.52,-54.75C368.54,-47.72 365.68,-37.62 363.19,-28.84"/>
<polygon fill="#63b8ff" stroke="#63b8ff" points="366.52,-27.76 360.43,-19.09 359.79,-29.66 366.52,-27.76"/>
</a>
</g>
</g>
<!-- Node6 -->
<g id="Node000006" class="node">
<title>Node6</title>
<g id="a_Node000006"><a xlink:title=" ">
<polygon fill="#e0e0e0" stroke="#999999" points="316,-19 268,-19 268,0 316,0 316,-19"/>
<text text-anchor="middle" x="292" y="-7" font-family="Helvetica,sans-Serif" font-size="10.00">iosfwd</text>
</a>
</g>
</g>
<!-- Node3&#45;&gt;Node6 -->
<g id="edge5_Node000003_Node000006" class="edge">
<title>Node3&#45;&gt;Node6</title>
<g id="a_edge5_Node000003_Node000006"><a xlink:title=" ">
<path fill="none" stroke="#63b8ff" d="M359.99,-54.98C347.54,-46.84 328.54,-34.41 313.79,-24.76"/>
<polygon fill="#63b8ff" stroke="#63b8ff" points="315.54,-21.72 305.25,-19.17 311.7,-27.57 315.54,-21.72"/>
</a>
</g>
</g>
<!-- Node3&#45;&gt;Node7 -->
<g id="edge6_Node000003_Node000007" class="edge">
<title>Node3&#45;&gt;Node7</title>
<g id="a_edge6_Node000003_Node000007"><a xlink:title=" ">
<path fill="none" stroke="#63b8ff" d="M345.85,-54.98C317.47,-46.09 272.77,-32.07 241.14,-22.15"/>
<polygon fill="#63b8ff" stroke="#63b8ff" points="241.95,-18.73 231.37,-19.08 239.86,-25.41 241.95,-18.73"/>
</a>
</g>
</g>
<!-- Node8&#45;&gt;Node3 -->
<g id="edge8_Node000008_Node000003" class="edge">
<title>Node8&#45;&gt;Node3</title>
<g id="a_edge8_Node000008_Node000003"><a xlink:title=" ">
<path fill="none" stroke="#63b8ff" d="M185.5,-164.9C204.86,-156.24 235.27,-142.29 261,-129 292.28,-112.84 327.46,-92.53 349.91,-79.29"/>
<polygon fill="#63b8ff" stroke="#63b8ff" points="351.88,-82.19 358.7,-74.08 348.31,-76.17 351.88,-82.19"/>
</a>
</g>
</g>
<!-- Node8&#45;&gt;Node7 -->
<g id="edge9_Node000008_Node000007" class="edge">
<title>Node8&#45;&gt;Node7</title>
<g id="a_edge9_Node000008_Node000007"><a xlink:title=" ">
<path fill="none" stroke="#63b8ff" d="M168.04,-164.74C174,-139.2 191.43,-64.43 199.63,-29.23"/>
<polygon fill="#63b8ff" stroke="#63b8ff" points="203.08,-29.84 201.95,-19.31 196.27,-28.25 203.08,-29.84"/>
</a>
</g>
</g>
<!-- Node8&#45;&gt;Node9 -->
<g id="edge10_Node000008_Node000009" class="edge">
<title>Node8&#45;&gt;Node9</title>
<g id="a_edge10_Node000008_Node000009"><a xlink:title=" ">
<path fill="none" stroke="#63b8ff" d="M155.72,-164.98C146.16,-157.07 131.72,-145.11 120.22,-135.58"/>
<polygon fill="#63b8ff" stroke="#63b8ff" points="122.4,-132.85 112.47,-129.17 117.94,-138.24 122.4,-132.85"/>
</a>
</g>
</g>
<!-- Node10 -->
<g id="Node000010" class="node">
<title>Node10</title>
<g id="a_Node000010"><a xlink:title=" ">
<polygon fill="#e0e0e0" stroke="#999999" points="138,-74 66,-74 66,-55 138,-55 138,-74"/>
<text text-anchor="middle" x="102" y="-62" font-family="Helvetica,sans-Serif" font-size="10.00">sys/types.h</text>
</a>
</g>
</g>
<!-- Node9&#45;&gt;Node10 -->
<g id="edge11_Node000009_Node000010" class="edge">
<title>Node9&#45;&gt;Node10</title>
<g id="a_edge11_Node000009_Node000010"><a xlink:title=" ">
<path fill="none" stroke="#63b8ff" d="M102,-109.75C102,-102.8 102,-92.85 102,-84.13"/>
<polygon fill="#63b8ff" stroke="#63b8ff" points="105.5,-84.09 102,-74.09 98.5,-84.09 105.5,-84.09"/>
</a>
</g>
</g>
<!-- Node11&#45;&gt;Node7 -->
<g id="edge15_Node000011_Node000007" class="edge">
<title>Node11&#45;&gt;Node7</title>
<g id="a_edge15_Node000011_Node000007"><a xlink:title=" ">
<path fill="none" stroke="#63b8ff" d="M362.76,-164.74C352.18,-143.6 322.71,-89.02 285,-55 270.4,-41.83 251.21,-31.07 235.18,-23.43"/>
<polygon fill="#63b8ff" stroke="#63b8ff" points="236.22,-20.06 225.67,-19.09 233.31,-26.43 236.22,-20.06"/>
</a>
</g>
</g>
<!-- Node12 -->
<g id="Node000012" class="node">
<title>Node12</title>
<g id="a_Node000012"><a xlink:href="tstring_8h.html" target="_top" xlink:title=" ">
<polygon fill="white" stroke="#666666" points="251.5,-129 194.5,-129 194.5,-110 251.5,-110 251.5,-129"/>
<text text-anchor="middle" x="223" y="-117" font-family="Helvetica,sans-Serif" font-size="10.00">tstring.h</text>
</a>
</g>
</g>
<!-- Node11&#45;&gt;Node12 -->
<g id="edge16_Node000011_Node000012" class="edge">
<title>Node11&#45;&gt;Node12</title>
<g id="a_edge16_Node000011_Node000012"><a xlink:title=" ">
<path fill="none" stroke="#63b8ff" d="M346.37,-165.91C322.82,-157.24 283.97,-142.94 256.16,-132.7"/>
<polygon fill="#63b8ff" stroke="#63b8ff" points="257.06,-129.3 246.46,-129.14 254.64,-135.87 257.06,-129.3"/>
</a>
</g>
</g>
<!-- Node14 -->
<g id="Node000014" class="node">
<title>Node14</title>
<g id="a_Node000014"><a xlink:href="tlist_8h.html" target="_top" xlink:title=" ">
<polygon fill="white" stroke="#666666" points="698,-74 654,-74 654,-55 698,-55 698,-74"/>
<text text-anchor="middle" x="676" y="-62" font-family="Helvetica,sans-Serif" font-size="10.00">tlist.h</text>
</a>
</g>
</g>
<!-- Node11&#45;&gt;Node14 -->
<g id="edge20_Node000011_Node000014" class="edge">
<title>Node11&#45;&gt;Node14</title>
<g id="a_edge20_Node000011_Node000014"><a xlink:title=" ">
<path fill="none" stroke="#63b8ff" d="M387.75,-169.4C420.44,-162.66 485.71,-148.07 539,-129 579.23,-114.61 623.76,-92.8 650.82,-78.86"/>
<polygon fill="#63b8ff" stroke="#63b8ff" points="652.7,-81.82 659.95,-74.1 649.47,-75.61 652.7,-81.82"/>
</a>
</g>
</g>
<!-- Node18 -->
<g id="Node000018" class="node">
<title>Node18</title>
<g id="a_Node000018"><a xlink:href="tvariant_8h.html" target="_top" xlink:title=" ">
<polygon fill="white" stroke="#666666" points="530,-129 466,-129 466,-110 530,-110 530,-129"/>
<text text-anchor="middle" x="498" y="-117" font-family="Helvetica,sans-Serif" font-size="10.00">tvariant.h</text>
</a>
</g>
</g>
<!-- Node11&#45;&gt;Node18 -->
<g id="edge25_Node000011_Node000018" class="edge">
<title>Node11&#45;&gt;Node18</title>
<g id="a_edge25_Node000011_Node000018"><a xlink:title=" ">
<path fill="none" stroke="#63b8ff" d="M387.76,-165.1C409.19,-156.43 442.86,-142.81 467.36,-132.9"/>
<polygon fill="#63b8ff" stroke="#63b8ff" points="468.95,-136.03 476.91,-129.03 466.32,-129.54 468.95,-136.03"/>
</a>
</g>
</g>
<!-- Node12&#45;&gt;Node3 -->
<g id="edge18_Node000012_Node000003" class="edge">
<title>Node12&#45;&gt;Node3</title>
<g id="a_edge18_Node000012_Node000003"><a xlink:title=" ">
<path fill="none" stroke="#63b8ff" d="M247.1,-109.98C271.88,-101.23 310.7,-87.51 338.69,-77.62"/>
<polygon fill="#63b8ff" stroke="#63b8ff" points="340.2,-80.8 348.46,-74.17 337.87,-74.2 340.2,-80.8"/>
</a>
</g>
</g>
<!-- Node12&#45;&gt;Node7 -->
<g id="edge19_Node000012_Node000007" class="edge">
<title>Node12&#45;&gt;Node7</title>
<g id="a_edge19_Node000012_Node000007"><a xlink:title=" ">
<path fill="none" stroke="#63b8ff" d="M221.45,-109.66C218.37,-92.17 211.44,-52.8 207.3,-29.27"/>
<polygon fill="#63b8ff" stroke="#63b8ff" points="210.7,-28.4 205.52,-19.16 203.81,-29.61 210.7,-28.4"/>
</a>
</g>
</g>
<!-- Node13 -->
<g id="Node000013" class="node">
<title>Node13</title>
<g id="a_Node000013"><a xlink:title=" ">
<polygon fill="#e0e0e0" stroke="#999999" points="276,-74 232,-74 232,-55 276,-55 276,-74"/>
<text text-anchor="middle" x="254" y="-62" font-family="Helvetica,sans-Serif" font-size="10.00">string</text>
</a>
</g>
</g>
<!-- Node12&#45;&gt;Node13 -->
<g id="edge17_Node000012_Node000013" class="edge">
<title>Node12&#45;&gt;Node13</title>
<g id="a_edge17_Node000012_Node000013"><a xlink:title=" ">
<path fill="none" stroke="#63b8ff" d="M228.12,-109.75C232.36,-102.49 238.53,-91.95 243.78,-82.98"/>
<polygon fill="#63b8ff" stroke="#63b8ff" points="246.95,-84.49 248.98,-74.09 240.91,-80.95 246.95,-84.49"/>
</a>
</g>
</g>
<!-- Node14&#45;&gt;Node4 -->
<g id="edge23_Node000014_Node000004" class="edge">
<title>Node14&#45;&gt;Node4</title>
<g id="a_edge23_Node000014_Node000004"><a xlink:title=" ">
<path fill="none" stroke="#63b8ff" d="M653.81,-57.11C623.49,-48.37 568.64,-32.57 531.28,-21.82"/>
<polygon fill="#63b8ff" stroke="#63b8ff" points="531.83,-18.33 521.25,-18.92 529.89,-25.06 531.83,-18.33"/>
</a>
</g>
</g>
<!-- Node15 -->
<g id="Node000015" class="node">
<title>Node15</title>
<g id="a_Node000015"><a xlink:title=" ">
<polygon fill="#e0e0e0" stroke="#999999" points="807,-19 775,-19 775,0 807,0 807,-19"/>
<text text-anchor="middle" x="791" y="-7" font-family="Helvetica,sans-Serif" font-size="10.00">list</text>
</a>
</g>
</g>
<!-- Node14&#45;&gt;Node15 -->
<g id="edge21_Node000014_Node000015" class="edge">
<title>Node14&#45;&gt;Node15</title>
<g id="a_edge21_Node000014_Node000015"><a xlink:title=" ">
<path fill="none" stroke="#63b8ff" d="M694.48,-54.98C713.75,-46.1 744.09,-32.12 765.61,-22.2"/>
<polygon fill="#63b8ff" stroke="#63b8ff" points="767.18,-25.33 774.8,-17.97 764.25,-18.97 767.18,-25.33"/>
</a>
</g>
</g>
<!-- Node16 -->
<g id="Node000016" class="node">
<title>Node16</title>
<g id="a_Node000016"><a xlink:title=" ">
<polygon fill="#e0e0e0" stroke="#999999" points="756.5,-19 673.5,-19 673.5,0 756.5,0 756.5,-19"/>
<text text-anchor="middle" x="715" y="-7" font-family="Helvetica,sans-Serif" font-size="10.00">initializer_list</text>
</a>
</g>
</g>
<!-- Node14&#45;&gt;Node16 -->
<g id="edge22_Node000014_Node000016" class="edge">
<title>Node14&#45;&gt;Node16</title>
<g id="a_edge22_Node000014_Node000016"><a xlink:title=" ">
<path fill="none" stroke="#63b8ff" d="M682.44,-54.75C687.89,-47.34 695.86,-36.5 702.56,-27.41"/>
<polygon fill="#63b8ff" stroke="#63b8ff" points="705.57,-29.22 708.68,-19.09 699.93,-25.07 705.57,-29.22"/>
</a>
</g>
</g>
<!-- Node17 -->
<g id="Node000017" class="node">
<title>Node17</title>
<g id="a_Node000017"><a xlink:title=" ">
<polygon fill="#e0e0e0" stroke="#999999" points="878.5,-19 825.5,-19 825.5,0 878.5,0 878.5,-19"/>
<text text-anchor="middle" x="852" y="-7" font-family="Helvetica,sans-Serif" font-size="10.00">tlist.tcc</text>
</a>
</g>
</g>
<!-- Node14&#45;&gt;Node17 -->
<g id="edge24_Node000014_Node000017" class="edge">
<title>Node14&#45;&gt;Node17</title>
<g id="a_edge24_Node000014_Node000017"><a xlink:title=" ">
<path fill="none" stroke="#63b8ff" d="M698.29,-56.79C727.76,-47.91 780.06,-32.16 815.37,-21.53"/>
<polygon fill="#63b8ff" stroke="#63b8ff" points="816.73,-24.78 825.3,-18.54 814.71,-18.07 816.73,-24.78"/>
</a>
</g>
</g>
<!-- Node18&#45;&gt;Node7 -->
<g id="edge34_Node000018_Node000007" class="edge">
<title>Node18&#45;&gt;Node7</title>
<g id="a_edge34_Node000018_Node000007"><a xlink:title=" ">
<path fill="none" stroke="#63b8ff" d="M490.65,-109.96C478.21,-96.09 451.55,-68.85 423,-55 408.38,-47.91 319.08,-31.04 259.12,-20.23"/>
<polygon fill="#63b8ff" stroke="#63b8ff" points="259.49,-16.74 249.03,-18.41 258.25,-23.63 259.49,-16.74"/>
</a>
</g>
</g>
<!-- Node18&#45;&gt;Node14 -->
<g id="edge27_Node000018_Node000014" class="edge">
<title>Node18&#45;&gt;Node14</title>
<g id="a_edge27_Node000018_Node000014"><a xlink:title=" ">
<path fill="none" stroke="#63b8ff" d="M526.6,-109.98C558.75,-100.41 610.81,-84.91 644.21,-74.96"/>
<polygon fill="#63b8ff" stroke="#63b8ff" points="645.35,-78.28 653.94,-72.07 643.35,-71.57 645.35,-78.28"/>
</a>
</g>
</g>
<!-- Node19 -->
<g id="Node000019" class="node">
<title>Node19</title>
<g id="a_Node000019"><a xlink:title=" ">
<polygon fill="#e0e0e0" stroke="#999999" points="526,-74 470,-74 470,-55 526,-55 526,-74"/>
<text text-anchor="middle" x="498" y="-62" font-family="Helvetica,sans-Serif" font-size="10.00">sstream</text>
</a>
</g>
</g>
<!-- Node18&#45;&gt;Node19 -->
<g id="edge26_Node000018_Node000019" class="edge">
<title>Node18&#45;&gt;Node19</title>
<g id="a_edge26_Node000018_Node000019"><a xlink:title=" ">
<path fill="none" stroke="#63b8ff" d="M498,-109.75C498,-102.8 498,-92.85 498,-84.13"/>
<polygon fill="#63b8ff" stroke="#63b8ff" points="501.5,-84.09 498,-74.09 494.5,-84.09 501.5,-84.09"/>
</a>
</g>
</g>
<!-- Node20 -->
<g id="Node000020" class="node">
<title>Node20</title>
<g id="a_Node000020"><a xlink:href="tmap_8h.html" target="_top" xlink:title=" ">
<polygon fill="white" stroke="#666666" points="595.5,-74 544.5,-74 544.5,-55 595.5,-55 595.5,-74"/>
<text text-anchor="middle" x="570" y="-62" font-family="Helvetica,sans-Serif" font-size="10.00">tmap.h</text>
</a>
</g>
</g>
<!-- Node18&#45;&gt;Node20 -->
<g id="edge28_Node000018_Node000020" class="edge">
<title>Node18&#45;&gt;Node20</title>
<g id="a_edge28_Node000018_Node000020"><a xlink:title=" ">
<path fill="none" stroke="#63b8ff" d="M509.57,-109.98C520.42,-102 536.88,-89.88 549.88,-80.31"/>
<polygon fill="#63b8ff" stroke="#63b8ff" points="552.24,-82.92 558.22,-74.17 548.09,-77.28 552.24,-82.92"/>
</a>
</g>
</g>
<!-- Node20&#45;&gt;Node4 -->
<g id="edge30_Node000020_Node000004" class="edge">
<title>Node20&#45;&gt;Node4</title>
<g id="a_edge30_Node000020_Node000004"><a xlink:title=" ">
<path fill="none" stroke="#63b8ff" d="M557.47,-54.98C545.6,-46.92 527.54,-34.65 513.39,-25.03"/>
<polygon fill="#63b8ff" stroke="#63b8ff" points="515,-21.9 504.76,-19.17 511.06,-27.69 515,-21.9"/>
</a>
</g>
</g>
<!-- Node20&#45;&gt;Node16 -->
<g id="edge31_Node000020_Node000016" class="edge">
<title>Node20&#45;&gt;Node16</title>
<g id="a_edge31_Node000020_Node000016"><a xlink:title=" ">
<path fill="none" stroke="#63b8ff" d="M593.3,-54.98C617.25,-46.23 654.78,-32.51 681.83,-22.62"/>
<polygon fill="#63b8ff" stroke="#63b8ff" points="683.09,-25.89 691.28,-19.17 680.69,-19.32 683.09,-25.89"/>
</a>
</g>
</g>
<!-- Node21 -->
<g id="Node000021" class="node">
<title>Node21</title>
<g id="a_Node000021"><a xlink:title=" ">
<polygon fill="#e0e0e0" stroke="#999999" points="655,-19 617,-19 617,0 655,0 655,-19"/>
<text text-anchor="middle" x="636" y="-7" font-family="Helvetica,sans-Serif" font-size="10.00">map</text>
</a>
</g>
</g>
<!-- Node20&#45;&gt;Node21 -->
<g id="edge29_Node000020_Node000021" class="edge">
<title>Node20&#45;&gt;Node21</title>
<g id="a_edge29_Node000020_Node000021"><a xlink:title=" ">
<path fill="none" stroke="#63b8ff" d="M580.6,-54.98C590.46,-47.07 605.35,-35.11 617.22,-25.58"/>
<polygon fill="#63b8ff" stroke="#63b8ff" points="619.6,-28.16 625.2,-19.17 615.21,-22.7 619.6,-28.16"/>
</a>
</g>
</g>
<!-- Node22 -->
<g id="Node000022" class="node">
<title>Node22</title>
<g id="a_Node000022"><a xlink:title=" ">
<polygon fill="#e0e0e0" stroke="#999999" points="444.5,-19 399.5,-19 399.5,0 444.5,0 444.5,-19"/>
<text text-anchor="middle" x="422" y="-7" font-family="Helvetica,sans-Serif" font-size="10.00">utility</text>
</a>
</g>
</g>
<!-- Node20&#45;&gt;Node22 -->
<g id="edge32_Node000020_Node000022" class="edge">
<title>Node20&#45;&gt;Node22</title>
<g id="a_edge32_Node000020_Node000022"><a xlink:title=" ">
<path fill="none" stroke="#63b8ff" d="M546.22,-54.98C521.33,-46.07 482.09,-32.02 454.39,-22.1"/>
<polygon fill="#63b8ff" stroke="#63b8ff" points="455.34,-18.72 444.75,-18.65 452.98,-25.31 455.34,-18.72"/>
</a>
</g>
</g>
<!-- Node23 -->
<g id="Node000023" class="node">
<title>Node23</title>
<g id="a_Node000023"><a xlink:title=" ">
<polygon fill="#e0e0e0" stroke="#999999" points="598.5,-19 539.5,-19 539.5,0 598.5,0 598.5,-19"/>
<text text-anchor="middle" x="569" y="-7" font-family="Helvetica,sans-Serif" font-size="10.00">tmap.tcc</text>
</a>
</g>
</g>
<!-- Node20&#45;&gt;Node23 -->
<g id="edge33_Node000020_Node000023" class="edge">
<title>Node20&#45;&gt;Node23</title>
<g id="a_edge33_Node000020_Node000023"><a xlink:title=" ">
<path fill="none" stroke="#63b8ff" d="M569.83,-54.75C569.7,-47.8 569.52,-37.85 569.35,-29.13"/>
<polygon fill="#63b8ff" stroke="#63b8ff" points="572.85,-29.02 569.16,-19.09 565.85,-29.15 572.85,-29.02"/>
</a>
</g>
</g>
</g>
</svg>
