<?xml version="1.0" encoding="UTF-8" standalone="no"?>
<!DOCTYPE svg PUBLIC "-//W3C//DTD SVG 1.1//EN"
 "http://www.w3.org/Graphics/SVG/1.1/DTD/svg11.dtd">
<!-- Generated by graphviz version 2.42.4 (0)
 -->
<!-- Title: rifffile.h Pages: 1 -->
<svg width="879pt" height="302pt"
 viewBox="0.00 0.00 879.00 302.00" xmlns="http://www.w3.org/2000/svg" xmlns:xlink="http://www.w3.org/1999/xlink">
<g id="graph0" class="graph" transform="scale(1 1) rotate(0) translate(4 298)">
<title>rifffile.h</title>
<!-- Node1 -->
<g id="Node000001" class="node">
<title>Node1</title>
<g id="a_Node000001"><a xlink:title=" ">
<polygon fill="#999999" stroke="#666666" points="815,-294 761,-294 761,-275 815,-275 815,-294"/>
<text text-anchor="middle" x="788" y="-282" font-family="Helvetica,sans-Serif" font-size="10.00">rifffile.h</text>
</a>
</g>
</g>
<!-- Node2 -->
<g id="Node000002" class="node">
<title>Node2</title>
<g id="a_Node000002"><a xlink:href="tfile_8h.html" target="_top" xlink:title=" ">
<polygon fill="white" stroke="#666666" points="760,-239 716,-239 716,-220 760,-220 760,-239"/>
<text text-anchor="middle" x="738" y="-227" font-family="Helvetica,sans-Serif" font-size="10.00">tfile.h</text>
</a>
</g>
</g>
<!-- Node1&#45;&gt;Node2 -->
<g id="edge1_Node000001_Node000002" class="edge">
<title>Node1&#45;&gt;Node2</title>
<g id="a_edge1_Node000001_Node000002"><a xlink:title=" ">
<path fill="none" stroke="#63b8ff" d="M779.74,-274.75C772.54,-267.11 761.89,-255.82 753.15,-246.56"/>
<polygon fill="#63b8ff" stroke="#63b8ff" points="755.51,-243.96 746.1,-239.09 750.42,-248.76 755.51,-243.96"/>
</a>
</g>
</g>
<!-- Node7 -->
<g id="Node000007" class="node">
<title>Node7</title>
<g id="a_Node000007"><a xlink:href="taglib__export_8h.html" target="_top" xlink:title=" ">
<polygon fill="white" stroke="#666666" points="718,-19 628,-19 628,0 718,0 718,-19"/>
<text text-anchor="middle" x="673" y="-7" font-family="Helvetica,sans-Serif" font-size="10.00">taglib_export.h</text>
</a>
</g>
</g>
<!-- Node1&#45;&gt;Node7 -->
<g id="edge35_Node000001_Node000007" class="edge">
<title>Node1&#45;&gt;Node7</title>
<g id="a_edge35_Node000001_Node000007"><a xlink:title=" ">
<path fill="none" stroke="#63b8ff" d="M801.34,-274.88C824.8,-258.56 871,-220.67 871,-175.5 871,-175.5 871,-175.5 871,-118.5 871,-53.17 786.89,-27.12 728.31,-16.9"/>
<polygon fill="#63b8ff" stroke="#63b8ff" points="728.86,-13.44 718.43,-15.28 727.73,-20.35 728.86,-13.44"/>
</a>
</g>
</g>
<!-- Node3 -->
<g id="Node000003" class="node">
<title>Node3</title>
<g id="a_Node000003"><a xlink:href="tbytevector_8h.html" target="_top" xlink:title=" ">
<polygon fill="white" stroke="#666666" points="538.5,-74 457.5,-74 457.5,-55 538.5,-55 538.5,-74"/>
<text text-anchor="middle" x="498" y="-62" font-family="Helvetica,sans-Serif" font-size="10.00">tbytevector.h</text>
</a>
</g>
</g>
<!-- Node2&#45;&gt;Node3 -->
<g id="edge2_Node000002_Node000003" class="edge">
<title>Node2&#45;&gt;Node3</title>
<g id="a_edge2_Node000002_Node000003"><a xlink:title=" ">
<path fill="none" stroke="#63b8ff" d="M715.79,-223.04C674.45,-211.86 584.9,-182.78 530,-129 517.34,-116.59 508.81,-98.12 503.76,-84.3"/>
<polygon fill="#63b8ff" stroke="#63b8ff" points="506.95,-82.78 500.45,-74.41 500.31,-85 506.95,-82.78"/>
</a>
</g>
</g>
<!-- Node2&#45;&gt;Node7 -->
<g id="edge12_Node000002_Node000007" class="edge">
<title>Node2&#45;&gt;Node7</title>
<g id="a_edge12_Node000002_Node000007"><a xlink:title=" ">
<path fill="none" stroke="#63b8ff" d="M747.62,-219.87C776.05,-193.31 855.22,-111.23 814,-55 794.43,-28.31 758.81,-17.22 728.27,-12.78"/>
<polygon fill="#63b8ff" stroke="#63b8ff" points="728.5,-9.28 718.14,-11.52 727.63,-16.23 728.5,-9.28"/>
</a>
</g>
</g>
<!-- Node8 -->
<g id="Node000008" class="node">
<title>Node8</title>
<g id="a_Node000008"><a xlink:href="tiostream_8h.html" target="_top" xlink:title=" ">
<polygon fill="white" stroke="#666666" points="741.5,-184 668.5,-184 668.5,-165 741.5,-165 741.5,-184"/>
<text text-anchor="middle" x="705" y="-172" font-family="Helvetica,sans-Serif" font-size="10.00">tiostream.h</text>
</a>
</g>
</g>
<!-- Node2&#45;&gt;Node8 -->
<g id="edge7_Node000002_Node000008" class="edge">
<title>Node2&#45;&gt;Node8</title>
<g id="a_edge7_Node000002_Node000008"><a xlink:title=" ">
<path fill="none" stroke="#63b8ff" d="M732.55,-219.75C727.99,-212.42 721.33,-201.73 715.71,-192.7"/>
<polygon fill="#63b8ff" stroke="#63b8ff" points="718.6,-190.73 710.35,-184.09 712.66,-194.43 718.6,-190.73"/>
</a>
</g>
</g>
<!-- Node9 -->
<g id="Node000009" class="node">
<title>Node9</title>
<g id="a_Node000009"><a xlink:href="taglib_8h.html" target="_top" xlink:title=" ">
<polygon fill="white" stroke="#666666" points="795.5,-129 742.5,-129 742.5,-110 795.5,-110 795.5,-129"/>
<text text-anchor="middle" x="769" y="-117" font-family="Helvetica,sans-Serif" font-size="10.00">taglib.h</text>
</a>
</g>
</g>
<!-- Node2&#45;&gt;Node9 -->
<g id="edge13_Node000002_Node000009" class="edge">
<title>Node2&#45;&gt;Node9</title>
<g id="a_edge13_Node000002_Node000009"><a xlink:title=" ">
<path fill="none" stroke="#63b8ff" d="M740.51,-219.97C743.15,-211.02 747.39,-196.53 751,-184 755.36,-168.84 760.24,-151.62 763.81,-138.94"/>
<polygon fill="#63b8ff" stroke="#63b8ff" points="767.23,-139.71 766.58,-129.13 760.5,-137.81 767.23,-139.71"/>
</a>
</g>
</g>
<!-- Node11 -->
<g id="Node000011" class="node">
<title>Node11</title>
<g id="a_Node000011"><a xlink:href="tag_8h.html" target="_top" xlink:title=" ">
<polygon fill="white" stroke="#666666" points="469.5,-184 428.5,-184 428.5,-165 469.5,-165 469.5,-184"/>
<text text-anchor="middle" x="449" y="-172" font-family="Helvetica,sans-Serif" font-size="10.00">tag.h</text>
</a>
</g>
</g>
<!-- Node2&#45;&gt;Node11 -->
<g id="edge14_Node000002_Node000011" class="edge">
<title>Node2&#45;&gt;Node11</title>
<g id="a_edge14_Node000002_Node000011"><a xlink:title=" ">
<path fill="none" stroke="#63b8ff" d="M715.82,-225.11C671.57,-218.24 569.24,-201.8 484,-184 482.55,-183.7 481.06,-183.38 479.56,-183.04"/>
<polygon fill="#63b8ff" stroke="#63b8ff" points="480.21,-179.6 469.68,-180.76 478.63,-186.42 480.21,-179.6"/>
</a>
</g>
</g>
<!-- Node4 -->
<g id="Node000004" class="node">
<title>Node4</title>
<g id="a_Node000004"><a xlink:title=" ">
<polygon fill="#e0e0e0" stroke="#999999" points="478,-19 420,-19 420,0 478,0 478,-19"/>
<text text-anchor="middle" x="449" y="-7" font-family="Helvetica,sans-Serif" font-size="10.00">memory</text>
</a>
</g>
</g>
<!-- Node3&#45;&gt;Node4 -->
<g id="edge3_Node000003_Node000004" class="edge">
<title>Node3&#45;&gt;Node4</title>
<g id="a_edge3_Node000003_Node000004"><a xlink:title=" ">
<path fill="none" stroke="#63b8ff" d="M489.91,-54.75C482.84,-47.11 472.41,-35.82 463.85,-26.56"/>
<polygon fill="#63b8ff" stroke="#63b8ff" points="466.3,-24.06 456.94,-19.09 461.16,-28.81 466.3,-24.06"/>
</a>
</g>
</g>
<!-- Node5 -->
<g id="Node000005" class="node">
<title>Node5</title>
<g id="a_Node000005"><a xlink:title=" ">
<polygon fill="#e0e0e0" stroke="#999999" points="609.5,-19 562.5,-19 562.5,0 609.5,0 609.5,-19"/>
<text text-anchor="middle" x="586" y="-7" font-family="Helvetica,sans-Serif" font-size="10.00">vector</text>
</a>
</g>
</g>
<!-- Node3&#45;&gt;Node5 -->
<g id="edge4_Node000003_Node000005" class="edge">
<title>Node3&#45;&gt;Node5</title>
<g id="a_edge4_Node000003_Node000005"><a xlink:title=" ">
<path fill="none" stroke="#63b8ff" d="M512.14,-54.98C525.79,-46.77 546.69,-34.18 562.78,-24.49"/>
<polygon fill="#63b8ff" stroke="#63b8ff" points="564.84,-27.33 571.6,-19.17 561.23,-21.33 564.84,-27.33"/>
</a>
</g>
</g>
<!-- Node6 -->
<g id="Node000006" class="node">
<title>Node6</title>
<g id="a_Node000006"><a xlink:title=" ">
<polygon fill="#e0e0e0" stroke="#999999" points="544,-19 496,-19 496,0 544,0 544,-19"/>
<text text-anchor="middle" x="520" y="-7" font-family="Helvetica,sans-Serif" font-size="10.00">iosfwd</text>
</a>
</g>
</g>
<!-- Node3&#45;&gt;Node6 -->
<g id="edge5_Node000003_Node000006" class="edge">
<title>Node3&#45;&gt;Node6</title>
<g id="a_edge5_Node000003_Node000006"><a xlink:title=" ">
<path fill="none" stroke="#63b8ff" d="M501.63,-54.75C504.58,-47.65 508.83,-37.4 512.51,-28.56"/>
<polygon fill="#63b8ff" stroke="#63b8ff" points="515.83,-29.67 516.43,-19.09 509.37,-26.98 515.83,-29.67"/>
</a>
</g>
</g>
<!-- Node3&#45;&gt;Node7 -->
<g id="edge6_Node000003_Node000007" class="edge">
<title>Node3&#45;&gt;Node7</title>
<g id="a_edge6_Node000003_Node000007"><a xlink:title=" ">
<path fill="none" stroke="#63b8ff" d="M526.12,-54.98C555.62,-46.05 602.19,-31.94 634.97,-22.02"/>
<polygon fill="#63b8ff" stroke="#63b8ff" points="636.11,-25.33 644.66,-19.08 634.08,-18.63 636.11,-25.33"/>
</a>
</g>
</g>
<!-- Node8&#45;&gt;Node3 -->
<g id="edge8_Node000008_Node000003" class="edge">
<title>Node8&#45;&gt;Node3</title>
<g id="a_edge8_Node000008_Node000003"><a xlink:title=" ">
<path fill="none" stroke="#63b8ff" d="M668.44,-168.42C636.54,-162.69 590.01,-151.14 555,-129 536.1,-117.05 519.67,-97.12 509.37,-82.77"/>
<polygon fill="#63b8ff" stroke="#63b8ff" points="512.08,-80.53 503.52,-74.29 506.32,-84.51 512.08,-80.53"/>
</a>
</g>
</g>
<!-- Node8&#45;&gt;Node7 -->
<g id="edge9_Node000008_Node000007" class="edge">
<title>Node8&#45;&gt;Node7</title>
<g id="a_edge9_Node000008_Node000007"><a xlink:title=" ">
<path fill="none" stroke="#63b8ff" d="M703.28,-164.74C698.27,-139.2 683.59,-64.43 676.68,-29.23"/>
<polygon fill="#63b8ff" stroke="#63b8ff" points="680.09,-28.45 674.73,-19.31 673.22,-29.79 680.09,-28.45"/>
</a>
</g>
</g>
<!-- Node8&#45;&gt;Node9 -->
<g id="edge10_Node000008_Node000009" class="edge">
<title>Node8&#45;&gt;Node9</title>
<g id="a_edge10_Node000008_Node000009"><a xlink:title=" ">
<path fill="none" stroke="#63b8ff" d="M715.28,-164.98C724.84,-157.07 739.28,-145.11 750.78,-135.58"/>
<polygon fill="#63b8ff" stroke="#63b8ff" points="753.06,-138.24 758.53,-129.17 748.6,-132.85 753.06,-138.24"/>
</a>
</g>
</g>
<!-- Node10 -->
<g id="Node000010" class="node">
<title>Node10</title>
<g id="a_Node000010"><a xlink:title=" ">
<polygon fill="#e0e0e0" stroke="#999999" points="805,-74 733,-74 733,-55 805,-55 805,-74"/>
<text text-anchor="middle" x="769" y="-62" font-family="Helvetica,sans-Serif" font-size="10.00">sys/types.h</text>
</a>
</g>
</g>
<!-- Node9&#45;&gt;Node10 -->
<g id="edge11_Node000009_Node000010" class="edge">
<title>Node9&#45;&gt;Node10</title>
<g id="a_edge11_Node000009_Node000010"><a xlink:title=" ">
<path fill="none" stroke="#63b8ff" d="M769,-109.75C769,-102.8 769,-92.85 769,-84.13"/>
<polygon fill="#63b8ff" stroke="#63b8ff" points="772.5,-84.09 769,-74.09 765.5,-84.09 772.5,-84.09"/>
</a>
</g>
</g>
<!-- Node11&#45;&gt;Node7 -->
<g id="edge15_Node000011_Node000007" class="edge">
<title>Node11&#45;&gt;Node7</title>
<g id="a_edge15_Node000011_Node000007"><a xlink:title=" ">
<path fill="none" stroke="#63b8ff" d="M469.62,-174.41C506.7,-174.91 585.03,-170.55 631,-129 659.91,-102.86 668.93,-55.53 671.73,-29.29"/>
<polygon fill="#63b8ff" stroke="#63b8ff" points="675.23,-29.43 672.62,-19.16 668.26,-28.82 675.23,-29.43"/>
</a>
</g>
</g>
<!-- Node12 -->
<g id="Node000012" class="node">
<title>Node12</title>
<g id="a_Node000012"><a xlink:href="tstring_8h.html" target="_top" xlink:title=" ">
<polygon fill="white" stroke="#666666" points="621.5,-129 564.5,-129 564.5,-110 621.5,-110 621.5,-129"/>
<text text-anchor="middle" x="593" y="-117" font-family="Helvetica,sans-Serif" font-size="10.00">tstring.h</text>
</a>
</g>
</g>
<!-- Node11&#45;&gt;Node12 -->
<g id="edge16_Node000011_Node000012" class="edge">
<title>Node11&#45;&gt;Node12</title>
<g id="a_edge16_Node000011_Node000012"><a xlink:title=" ">
<path fill="none" stroke="#63b8ff" d="M469.63,-165.91C493.18,-157.24 532.03,-142.94 559.84,-132.7"/>
<polygon fill="#63b8ff" stroke="#63b8ff" points="561.36,-135.87 569.54,-129.14 558.94,-129.3 561.36,-135.87"/>
</a>
</g>
</g>
<!-- Node14 -->
<g id="Node000014" class="node">
<title>Node14</title>
<g id="a_Node000014"><a xlink:href="tlist_8h.html" target="_top" xlink:title=" ">
<polygon fill="white" stroke="#666666" points="236,-74 192,-74 192,-55 236,-55 236,-74"/>
<text text-anchor="middle" x="214" y="-62" font-family="Helvetica,sans-Serif" font-size="10.00">tlist.h</text>
</a>
</g>
</g>
<!-- Node11&#45;&gt;Node14 -->
<g id="edge20_Node000011_Node000014" class="edge">
<title>Node11&#45;&gt;Node14</title>
<g id="a_edge20_Node000011_Node000014"><a xlink:title=" ">
<path fill="none" stroke="#63b8ff" d="M429.61,-164.88C409.63,-155.98 377.58,-141.64 350,-129 312.23,-111.7 268.76,-91.32 241.34,-78.41"/>
<polygon fill="#63b8ff" stroke="#63b8ff" points="242.54,-75.1 232,-74.01 239.55,-81.43 242.54,-75.1"/>
</a>
</g>
</g>
<!-- Node18 -->
<g id="Node000018" class="node">
<title>Node18</title>
<g id="a_Node000018"><a xlink:href="tvariant_8h.html" target="_top" xlink:title=" ">
<polygon fill="white" stroke="#666666" points="423,-129 359,-129 359,-110 423,-110 423,-129"/>
<text text-anchor="middle" x="391" y="-117" font-family="Helvetica,sans-Serif" font-size="10.00">tvariant.h</text>
</a>
</g>
</g>
<!-- Node11&#45;&gt;Node18 -->
<g id="edge25_Node000011_Node000018" class="edge">
<title>Node11&#45;&gt;Node18</title>
<g id="a_edge25_Node000011_Node000018"><a xlink:title=" ">
<path fill="none" stroke="#63b8ff" d="M439.68,-164.98C431.19,-157.23 418.44,-145.58 408.12,-136.14"/>
<polygon fill="#63b8ff" stroke="#63b8ff" points="410.23,-133.33 400.49,-129.17 405.51,-138.5 410.23,-133.33"/>
</a>
</g>
</g>
<!-- Node12&#45;&gt;Node3 -->
<g id="edge18_Node000012_Node000003" class="edge">
<title>Node12&#45;&gt;Node3</title>
<g id="a_edge18_Node000012_Node000003"><a xlink:title=" ">
<path fill="none" stroke="#63b8ff" d="M577.74,-109.98C562.87,-101.69 540.02,-88.94 522.58,-79.22"/>
<polygon fill="#63b8ff" stroke="#63b8ff" points="523.98,-75.99 513.54,-74.17 520.57,-82.1 523.98,-75.99"/>
</a>
</g>
</g>
<!-- Node12&#45;&gt;Node7 -->
<g id="edge19_Node000012_Node000007" class="edge">
<title>Node12&#45;&gt;Node7</title>
<g id="a_edge19_Node000012_Node000007"><a xlink:title=" ">
<path fill="none" stroke="#63b8ff" d="M599.55,-109.66C612.86,-91.69 643.27,-50.64 660.49,-27.38"/>
<polygon fill="#63b8ff" stroke="#63b8ff" points="663.45,-29.28 666.59,-19.16 657.82,-25.11 663.45,-29.28"/>
</a>
</g>
</g>
<!-- Node13 -->
<g id="Node000013" class="node">
<title>Node13</title>
<g id="a_Node000013"><a xlink:title=" ">
<polygon fill="#e0e0e0" stroke="#999999" points="601,-74 557,-74 557,-55 601,-55 601,-74"/>
<text text-anchor="middle" x="579" y="-62" font-family="Helvetica,sans-Serif" font-size="10.00">string</text>
</a>
</g>
</g>
<!-- Node12&#45;&gt;Node13 -->
<g id="edge17_Node000012_Node000013" class="edge">
<title>Node12&#45;&gt;Node13</title>
<g id="a_edge17_Node000012_Node000013"><a xlink:title=" ">
<path fill="none" stroke="#63b8ff" d="M590.69,-109.75C588.83,-102.72 586.16,-92.62 583.85,-83.84"/>
<polygon fill="#63b8ff" stroke="#63b8ff" points="587.21,-82.86 581.27,-74.09 580.44,-84.65 587.21,-82.86"/>
</a>
</g>
</g>
<!-- Node14&#45;&gt;Node4 -->
<g id="edge23_Node000014_Node000004" class="edge">
<title>Node14&#45;&gt;Node4</title>
<g id="a_edge23_Node000014_Node000004"><a xlink:title=" ">
<path fill="none" stroke="#63b8ff" d="M236.11,-58.51C275.98,-49.52 360.39,-30.48 410.11,-19.27"/>
<polygon fill="#63b8ff" stroke="#63b8ff" points="410.89,-22.68 419.87,-17.07 409.35,-15.86 410.89,-22.68"/>
</a>
</g>
</g>
<!-- Node15 -->
<g id="Node000015" class="node">
<title>Node15</title>
<g id="a_Node000015"><a xlink:title=" ">
<polygon fill="#e0e0e0" stroke="#999999" points="32,-19 0,-19 0,0 32,0 32,-19"/>
<text text-anchor="middle" x="16" y="-7" font-family="Helvetica,sans-Serif" font-size="10.00">list</text>
</a>
</g>
</g>
<!-- Node14&#45;&gt;Node15 -->
<g id="edge21_Node000014_Node000015" class="edge">
<title>Node14&#45;&gt;Node15</title>
<g id="a_edge21_Node000014_Node000015"><a xlink:title=" ">
<path fill="none" stroke="#63b8ff" d="M191.73,-58.34C160.39,-50.97 101.31,-36.61 41.99,-19.12"/>
<polygon fill="#63b8ff" stroke="#63b8ff" points="42.66,-15.67 32.08,-16.17 40.66,-22.38 42.66,-15.67"/>
</a>
</g>
</g>
<!-- Node16 -->
<g id="Node000016" class="node">
<title>Node16</title>
<g id="a_Node000016"><a xlink:title=" ">
<polygon fill="#e0e0e0" stroke="#999999" points="204.5,-19 121.5,-19 121.5,0 204.5,0 204.5,-19"/>
<text text-anchor="middle" x="163" y="-7" font-family="Helvetica,sans-Serif" font-size="10.00">initializer_list</text>
</a>
</g>
</g>
<!-- Node14&#45;&gt;Node16 -->
<g id="edge22_Node000014_Node000016" class="edge">
<title>Node14&#45;&gt;Node16</title>
<g id="a_edge22_Node000014_Node000016"><a xlink:title=" ">
<path fill="none" stroke="#63b8ff" d="M205.58,-54.75C198.23,-47.11 187.37,-35.82 178.46,-26.56"/>
<polygon fill="#63b8ff" stroke="#63b8ff" points="180.72,-23.87 171.26,-19.09 175.68,-28.72 180.72,-23.87"/>
</a>
</g>
</g>
<!-- Node17 -->
<g id="Node000017" class="node">
<title>Node17</title>
<g id="a_Node000017"><a xlink:title=" ">
<polygon fill="#e0e0e0" stroke="#999999" points="103.5,-19 50.5,-19 50.5,0 103.5,0 103.5,-19"/>
<text text-anchor="middle" x="77" y="-7" font-family="Helvetica,sans-Serif" font-size="10.00">tlist.tcc</text>
</a>
</g>
</g>
<!-- Node14&#45;&gt;Node17 -->
<g id="edge24_Node000014_Node000017" class="edge">
<title>Node14&#45;&gt;Node17</title>
<g id="a_edge24_Node000014_Node000017"><a xlink:title=" ">
<path fill="none" stroke="#63b8ff" d="M191.99,-54.98C169.55,-46.3 134.52,-32.75 109.01,-22.88"/>
<polygon fill="#63b8ff" stroke="#63b8ff" points="110,-19.51 99.41,-19.17 107.48,-26.04 110,-19.51"/>
</a>
</g>
</g>
<!-- Node18&#45;&gt;Node6 -->
<g id="edge26_Node000018_Node000006" class="edge">
<title>Node18&#45;&gt;Node6</title>
<g id="a_edge26_Node000018_Node000006"><a xlink:title=" ">
<path fill="none" stroke="#63b8ff" d="M392.06,-109.97C394.15,-96.6 399.97,-70.63 415,-55 425.28,-44.31 459.5,-30.88 486.12,-21.59"/>
<polygon fill="#63b8ff" stroke="#63b8ff" points="487.55,-24.8 495.88,-18.25 485.28,-18.18 487.55,-24.8"/>
</a>
</g>
</g>
<!-- Node18&#45;&gt;Node7 -->
<g id="edge34_Node000018_Node000007" class="edge">
<title>Node18&#45;&gt;Node7</title>
<g id="a_edge34_Node000018_Node000007"><a xlink:title=" ">
<path fill="none" stroke="#63b8ff" d="M396.08,-109.91C404.81,-95.97 424.05,-68.63 448,-55 462.63,-46.68 556.09,-29.93 617.87,-19.53"/>
<polygon fill="#63b8ff" stroke="#63b8ff" points="618.59,-22.95 627.87,-17.85 617.43,-16.05 618.59,-22.95"/>
</a>
</g>
</g>
<!-- Node18&#45;&gt;Node14 -->
<g id="edge27_Node000018_Node000014" class="edge">
<title>Node18&#45;&gt;Node14</title>
<g id="a_edge27_Node000018_Node000014"><a xlink:title=" ">
<path fill="none" stroke="#63b8ff" d="M362.56,-109.98C330.68,-100.44 279.11,-85 245.88,-75.05"/>
<polygon fill="#63b8ff" stroke="#63b8ff" points="246.79,-71.66 236.2,-72.15 244.78,-78.37 246.79,-71.66"/>
</a>
</g>
</g>
<!-- Node19 -->
<g id="Node000019" class="node">
<title>Node19</title>
<g id="a_Node000019"><a xlink:href="tmap_8h.html" target="_top" xlink:title=" ">
<polygon fill="white" stroke="#666666" points="350.5,-74 299.5,-74 299.5,-55 350.5,-55 350.5,-74"/>
<text text-anchor="middle" x="325" y="-62" font-family="Helvetica,sans-Serif" font-size="10.00">tmap.h</text>
</a>
</g>
</g>
<!-- Node18&#45;&gt;Node19 -->
<g id="edge28_Node000018_Node000019" class="edge">
<title>Node18&#45;&gt;Node19</title>
<g id="a_edge28_Node000018_Node000019"><a xlink:title=" ">
<path fill="none" stroke="#63b8ff" d="M380.4,-109.98C370.54,-102.07 355.65,-90.11 343.78,-80.58"/>
<polygon fill="#63b8ff" stroke="#63b8ff" points="345.79,-77.7 335.8,-74.17 341.4,-83.16 345.79,-77.7"/>
</a>
</g>
</g>
<!-- Node19&#45;&gt;Node4 -->
<g id="edge30_Node000019_Node000004" class="edge">
<title>Node19&#45;&gt;Node4</title>
<g id="a_edge30_Node000019_Node000004"><a xlink:title=" ">
<path fill="none" stroke="#63b8ff" d="M344.92,-54.98C365.05,-46.38 396.38,-32.99 419.41,-23.15"/>
<polygon fill="#63b8ff" stroke="#63b8ff" points="420.9,-26.32 428.71,-19.17 418.14,-19.88 420.9,-26.32"/>
</a>
</g>
</g>
<!-- Node19&#45;&gt;Node16 -->
<g id="edge31_Node000019_Node000016" class="edge">
<title>Node19&#45;&gt;Node16</title>
<g id="a_edge31_Node000019_Node000016"><a xlink:title=" ">
<path fill="none" stroke="#63b8ff" d="M299.33,-55.1C272.24,-46.24 229.32,-32.2 198.89,-22.24"/>
<polygon fill="#63b8ff" stroke="#63b8ff" points="199.68,-18.82 189.09,-19.03 197.5,-25.47 199.68,-18.82"/>
</a>
</g>
</g>
<!-- Node20 -->
<g id="Node000020" class="node">
<title>Node20</title>
<g id="a_Node000020"><a xlink:title=" ">
<polygon fill="#e0e0e0" stroke="#999999" points="338,-19 300,-19 300,0 338,0 338,-19"/>
<text text-anchor="middle" x="319" y="-7" font-family="Helvetica,sans-Serif" font-size="10.00">map</text>
</a>
</g>
</g>
<!-- Node19&#45;&gt;Node20 -->
<g id="edge29_Node000019_Node000020" class="edge">
<title>Node19&#45;&gt;Node20</title>
<g id="a_edge29_Node000019_Node000020"><a xlink:title=" ">
<path fill="none" stroke="#63b8ff" d="M324.01,-54.75C323.22,-47.8 322.1,-37.85 321.11,-29.13"/>
<polygon fill="#63b8ff" stroke="#63b8ff" points="324.58,-28.63 319.97,-19.09 317.62,-29.42 324.58,-28.63"/>
</a>
</g>
</g>
<!-- Node21 -->
<g id="Node000021" class="node">
<title>Node21</title>
<g id="a_Node000021"><a xlink:title=" ">
<polygon fill="#e0e0e0" stroke="#999999" points="401.5,-19 356.5,-19 356.5,0 401.5,0 401.5,-19"/>
<text text-anchor="middle" x="379" y="-7" font-family="Helvetica,sans-Serif" font-size="10.00">utility</text>
</a>
</g>
</g>
<!-- Node19&#45;&gt;Node21 -->
<g id="edge32_Node000019_Node000021" class="edge">
<title>Node19&#45;&gt;Node21</title>
<g id="a_edge32_Node000019_Node000021"><a xlink:title=" ">
<path fill="none" stroke="#63b8ff" d="M333.92,-54.75C341.78,-47.03 353.43,-35.6 362.92,-26.28"/>
<polygon fill="#63b8ff" stroke="#63b8ff" points="365.56,-28.59 370.25,-19.09 360.66,-23.6 365.56,-28.59"/>
</a>
</g>
</g>
<!-- Node22 -->
<g id="Node000022" class="node">
<title>Node22</title>
<g id="a_Node000022"><a xlink:title=" ">
<polygon fill="#e0e0e0" stroke="#999999" points="281.5,-19 222.5,-19 222.5,0 281.5,0 281.5,-19"/>
<text text-anchor="middle" x="252" y="-7" font-family="Helvetica,sans-Serif" font-size="10.00">tmap.tcc</text>
</a>
</g>
</g>
<!-- Node19&#45;&gt;Node22 -->
<g id="edge33_Node000019_Node000022" class="edge">
<title>Node19&#45;&gt;Node22</title>
<g id="a_edge33_Node000019_Node000022"><a xlink:title=" ">
<path fill="none" stroke="#63b8ff" d="M313.27,-54.98C302.27,-47 285.58,-34.88 272.4,-25.31"/>
<polygon fill="#63b8ff" stroke="#63b8ff" points="274.09,-22.21 263.94,-19.17 269.98,-27.88 274.09,-22.21"/>
</a>
</g>
</g>
</g>
</svg>
