<?xml version="1.0" encoding="UTF-8" standalone="no"?>
<!DOCTYPE svg PUBLIC "-//W3C//DTD SVG 1.1//EN"
 "http://www.w3.org/Graphics/SVG/1.1/DTD/svg11.dtd">
<!-- Generated by graphviz version 2.46.1 (20210213.1702)
 -->
<!-- Title: rifffile.h Pages: 1 -->
<svg width="406pt" height="364pt"
 viewBox="0.00 0.00 406.00 364.00" xmlns="http://www.w3.org/2000/svg" xmlns:xlink="http://www.w3.org/1999/xlink">
<g id="graph0" class="graph" transform="scale(1 1) rotate(0) translate(4 360)">
<title>rifffile.h</title>
<polygon fill="white" stroke="transparent" points="-4,4 -4,-360 402,-360 402,4 -4,4"/>
<!-- Node1 -->
<g id="node1" class="node">
<title>Node1</title>
<g id="a_node1"><a xlink:title=" ">
<polygon fill="#bfbfbf" stroke="black" points="64.5,-336.5 64.5,-355.5 113.5,-355.5 113.5,-336.5 64.5,-336.5"/>
<text text-anchor="middle" x="89" y="-343.5" font-family="Helvetica,sans-Serif" font-size="10.00">rifffile.h</text>
</a>
</g>
</g>
<!-- Node2 -->
<g id="node2" class="node">
<title>Node2</title>
<g id="a_node2"><a xlink:href="taglib__export_8h.html" target="_top" xlink:title=" ">
<polygon fill="white" stroke="black" points="40,-56.5 40,-75.5 120,-75.5 120,-56.5 40,-56.5"/>
<text text-anchor="middle" x="80" y="-63.5" font-family="Helvetica,sans-Serif" font-size="10.00">taglib_export.h</text>
</a>
</g>
</g>
<!-- Node1&#45;&gt;Node2 -->
<g id="edge1" class="edge">
<title>Node1&#45;&gt;Node2</title>
<path fill="none" stroke="midnightblue" d="M74.7,-336.4C49.54,-320.06 0,-281.92 0,-235 0,-235 0,-235 0,-177 0,-136.62 35.69,-101.11 59.4,-81.97"/>
<polygon fill="midnightblue" stroke="midnightblue" points="61.74,-84.58 67.5,-75.69 57.45,-79.05 61.74,-84.58"/>
</g>
<!-- Node3 -->
<g id="node3" class="node">
<title>Node3</title>
<g id="a_node3"><a xlink:href="tfile_8h.html" target="_top" xlink:title=" ">
<polygon fill="white" stroke="black" points="184.5,-280.5 184.5,-299.5 225.5,-299.5 225.5,-280.5 184.5,-280.5"/>
<text text-anchor="middle" x="205" y="-287.5" font-family="Helvetica,sans-Serif" font-size="10.00">tfile.h</text>
</a>
</g>
</g>
<!-- Node1&#45;&gt;Node3 -->
<g id="edge2" class="edge">
<title>Node1&#45;&gt;Node3</title>
<path fill="none" stroke="midnightblue" d="M107.38,-336.44C126.22,-327.68 155.73,-313.94 177.38,-303.86"/>
<polygon fill="midnightblue" stroke="midnightblue" points="179.12,-306.91 186.71,-299.52 176.16,-300.56 179.12,-306.91"/>
</g>
<!-- Node3&#45;&gt;Node2 -->
<g id="edge3" class="edge">
<title>Node3&#45;&gt;Node2</title>
<path fill="none" stroke="midnightblue" d="M191.31,-280.41C179.18,-272.25 161.65,-259.01 150,-244 111.23,-194.04 91.31,-119.86 83.72,-85.6"/>
<polygon fill="midnightblue" stroke="midnightblue" points="87.1,-84.66 81.61,-75.6 80.25,-86.1 87.1,-84.66"/>
</g>
<!-- Node4 -->
<g id="node4" class="node">
<title>Node4</title>
<g id="a_node4"><a xlink:href="taglib_8h.html" target="_top" xlink:title=" ">
<polygon fill="white" stroke="black" points="334,-56.5 334,-75.5 382,-75.5 382,-56.5 334,-56.5"/>
<text text-anchor="middle" x="358" y="-63.5" font-family="Helvetica,sans-Serif" font-size="10.00">taglib.h</text>
</a>
</g>
</g>
<!-- Node3&#45;&gt;Node4 -->
<g id="edge4" class="edge">
<title>Node3&#45;&gt;Node4</title>
<path fill="none" stroke="midnightblue" d="M223.9,-280.48C264.17,-261.07 357.26,-209.2 388,-132 394.71,-115.14 384.01,-96.37 373.57,-83.35"/>
<polygon fill="midnightblue" stroke="midnightblue" points="376.13,-80.96 366.94,-75.7 370.85,-85.55 376.13,-80.96"/>
</g>
<!-- Node7 -->
<g id="node7" class="node">
<title>Node7</title>
<g id="a_node7"><a xlink:href="tag_8h.html" target="_top" xlink:title=" ">
<polygon fill="white" stroke="black" points="159,-224.5 159,-243.5 197,-243.5 197,-224.5 159,-224.5"/>
<text text-anchor="middle" x="178" y="-231.5" font-family="Helvetica,sans-Serif" font-size="10.00">tag.h</text>
</a>
</g>
</g>
<!-- Node3&#45;&gt;Node7 -->
<g id="edge7" class="edge">
<title>Node3&#45;&gt;Node7</title>
<path fill="none" stroke="midnightblue" d="M200.54,-280.08C196.85,-272.69 191.48,-261.95 186.91,-252.81"/>
<polygon fill="midnightblue" stroke="midnightblue" points="189.98,-251.13 182.38,-243.75 183.72,-254.26 189.98,-251.13"/>
</g>
<!-- Node9 -->
<g id="node9" class="node">
<title>Node9</title>
<g id="a_node9"><a xlink:href="tbytevector_8h.html" target="_top" xlink:title=" ">
<polygon fill="white" stroke="black" points="256.5,-112.5 256.5,-131.5 329.5,-131.5 329.5,-112.5 256.5,-112.5"/>
<text text-anchor="middle" x="293" y="-119.5" font-family="Helvetica,sans-Serif" font-size="10.00">tbytevector.h</text>
</a>
</g>
</g>
<!-- Node3&#45;&gt;Node9 -->
<g id="edge19" class="edge">
<title>Node3&#45;&gt;Node9</title>
<path fill="none" stroke="midnightblue" d="M207.19,-280.29C212.62,-259.66 228.02,-206.7 252,-168 258.51,-157.49 267.64,-147.19 275.62,-139.1"/>
<polygon fill="midnightblue" stroke="midnightblue" points="278.37,-141.3 283.09,-131.82 273.49,-136.29 278.37,-141.3"/>
</g>
<!-- Node12 -->
<g id="node12" class="node">
<title>Node12</title>
<g id="a_node12"><a xlink:href="tiostream_8h.html" target="_top" xlink:title=" ">
<polygon fill="white" stroke="black" points="260.5,-168.5 260.5,-187.5 325.5,-187.5 325.5,-168.5 260.5,-168.5"/>
<text text-anchor="middle" x="293" y="-175.5" font-family="Helvetica,sans-Serif" font-size="10.00">tiostream.h</text>
</a>
</g>
</g>
<!-- Node3&#45;&gt;Node12 -->
<g id="edge20" class="edge">
<title>Node3&#45;&gt;Node12</title>
<path fill="none" stroke="midnightblue" d="M213.47,-280.3C221.99,-271.42 235.33,-257.12 246,-244 258.72,-228.35 272.09,-209.6 281.31,-196.27"/>
<polygon fill="midnightblue" stroke="midnightblue" points="284.45,-197.87 287.21,-187.64 278.68,-193.92 284.45,-197.87"/>
</g>
<!-- Node5 -->
<g id="node5" class="node">
<title>Node5</title>
<g id="a_node5"><a xlink:title=" ">
<polygon fill="white" stroke="#bfbfbf" points="318,-0.5 318,-19.5 398,-19.5 398,-0.5 318,-0.5"/>
<text text-anchor="middle" x="358" y="-7.5" font-family="Helvetica,sans-Serif" font-size="10.00">taglib_config.h</text>
</a>
</g>
</g>
<!-- Node4&#45;&gt;Node5 -->
<g id="edge5" class="edge">
<title>Node4&#45;&gt;Node5</title>
<path fill="none" stroke="midnightblue" d="M358,-56.08C358,-49.01 358,-38.86 358,-29.99"/>
<polygon fill="midnightblue" stroke="midnightblue" points="361.5,-29.75 358,-19.75 354.5,-29.75 361.5,-29.75"/>
</g>
<!-- Node6 -->
<g id="node6" class="node">
<title>Node6</title>
<g id="a_node6"><a xlink:title=" ">
<polygon fill="white" stroke="#bfbfbf" points="195.5,-0.5 195.5,-19.5 236.5,-19.5 236.5,-0.5 195.5,-0.5"/>
<text text-anchor="middle" x="216" y="-7.5" font-family="Helvetica,sans-Serif" font-size="10.00">string</text>
</a>
</g>
</g>
<!-- Node4&#45;&gt;Node6 -->
<g id="edge6" class="edge">
<title>Node4&#45;&gt;Node6</title>
<path fill="none" stroke="midnightblue" d="M335.5,-56.44C311.37,-47.27 272.92,-32.64 246.17,-22.47"/>
<polygon fill="midnightblue" stroke="midnightblue" points="247.14,-19.1 236.55,-18.82 244.65,-25.64 247.14,-19.1"/>
</g>
<!-- Node7&#45;&gt;Node2 -->
<g id="edge8" class="edge">
<title>Node7&#45;&gt;Node2</title>
<path fill="none" stroke="midnightblue" d="M170.53,-224.38C163.09,-215.57 151.55,-201.33 143,-188 120.49,-152.93 99.16,-108.9 88.02,-84.8"/>
<polygon fill="midnightblue" stroke="midnightblue" points="91.12,-83.15 83.78,-75.51 84.75,-86.06 91.12,-83.15"/>
</g>
<!-- Node8 -->
<g id="node8" class="node">
<title>Node8</title>
<g id="a_node8"><a xlink:href="tstring_8h.html" target="_top" xlink:title=" ">
<polygon fill="white" stroke="black" points="152,-168.5 152,-187.5 204,-187.5 204,-168.5 152,-168.5"/>
<text text-anchor="middle" x="178" y="-175.5" font-family="Helvetica,sans-Serif" font-size="10.00">tstring.h</text>
</a>
</g>
</g>
<!-- Node7&#45;&gt;Node8 -->
<g id="edge9" class="edge">
<title>Node7&#45;&gt;Node8</title>
<path fill="none" stroke="midnightblue" d="M178,-224.08C178,-217.01 178,-206.86 178,-197.99"/>
<polygon fill="midnightblue" stroke="midnightblue" points="181.5,-197.75 178,-187.75 174.5,-197.75 181.5,-197.75"/>
</g>
<!-- Node8&#45;&gt;Node2 -->
<g id="edge10" class="edge">
<title>Node8&#45;&gt;Node2</title>
<path fill="none" stroke="midnightblue" d="M170.31,-168.37C153.99,-150.05 115.68,-107.05 94.58,-83.36"/>
<polygon fill="midnightblue" stroke="midnightblue" points="96.92,-80.73 87.65,-75.59 91.69,-85.39 96.92,-80.73"/>
</g>
<!-- Node8&#45;&gt;Node4 -->
<g id="edge11" class="edge">
<title>Node8&#45;&gt;Node4</title>
<path fill="none" stroke="midnightblue" d="M204.21,-172.83C244.74,-165.89 319.96,-150.82 339,-132 351.14,-120 355.62,-100.71 357.23,-86.25"/>
<polygon fill="midnightblue" stroke="midnightblue" points="360.74,-86.15 357.99,-75.92 353.76,-85.64 360.74,-86.15"/>
</g>
<!-- Node8&#45;&gt;Node6 -->
<g id="edge17" class="edge">
<title>Node8&#45;&gt;Node6</title>
<path fill="none" stroke="midnightblue" d="M176.44,-168.46C173.11,-148.2 166.73,-95.98 181,-56 184.85,-45.21 192.38,-34.97 199.47,-27"/>
<polygon fill="midnightblue" stroke="midnightblue" points="202.17,-29.24 206.53,-19.58 197.1,-24.41 202.17,-29.24"/>
</g>
<!-- Node8&#45;&gt;Node9 -->
<g id="edge12" class="edge">
<title>Node8&#45;&gt;Node9</title>
<path fill="none" stroke="midnightblue" d="M196.22,-168.44C214.9,-159.68 244.16,-145.94 265.62,-135.86"/>
<polygon fill="midnightblue" stroke="midnightblue" points="267.3,-138.93 274.86,-131.52 264.32,-132.6 267.3,-138.93"/>
</g>
<!-- Node11 -->
<g id="node11" class="node">
<title>Node11</title>
<g id="a_node11"><a xlink:title=" ">
<polygon fill="white" stroke="#bfbfbf" points="190,-56.5 190,-75.5 244,-75.5 244,-56.5 190,-56.5"/>
<text text-anchor="middle" x="217" y="-63.5" font-family="Helvetica,sans-Serif" font-size="10.00">iostream</text>
</a>
</g>
</g>
<!-- Node8&#45;&gt;Node11 -->
<g id="edge18" class="edge">
<title>Node8&#45;&gt;Node11</title>
<path fill="none" stroke="midnightblue" d="M181.06,-168.37C187.38,-150.54 202,-109.3 210.52,-85.27"/>
<polygon fill="midnightblue" stroke="midnightblue" points="213.91,-86.19 213.95,-75.59 207.31,-83.85 213.91,-86.19"/>
</g>
<!-- Node9&#45;&gt;Node2 -->
<g id="edge14" class="edge">
<title>Node9&#45;&gt;Node2</title>
<path fill="none" stroke="midnightblue" d="M259.25,-112.44C222.48,-103.12 163.55,-88.18 123.38,-78"/>
<polygon fill="midnightblue" stroke="midnightblue" points="124.15,-74.58 113.59,-75.52 122.43,-81.37 124.15,-74.58"/>
</g>
<!-- Node9&#45;&gt;Node4 -->
<g id="edge13" class="edge">
<title>Node9&#45;&gt;Node4</title>
<path fill="none" stroke="midnightblue" d="M303.44,-112.32C313.15,-104.26 327.82,-92.08 339.5,-82.37"/>
<polygon fill="midnightblue" stroke="midnightblue" points="341.91,-84.92 347.37,-75.83 337.44,-79.53 341.91,-84.92"/>
</g>
<!-- Node10 -->
<g id="node10" class="node">
<title>Node10</title>
<g id="a_node10"><a xlink:title=" ">
<polygon fill="white" stroke="#bfbfbf" points="271,-56.5 271,-75.5 315,-75.5 315,-56.5 271,-56.5"/>
<text text-anchor="middle" x="293" y="-63.5" font-family="Helvetica,sans-Serif" font-size="10.00">vector</text>
</a>
</g>
</g>
<!-- Node9&#45;&gt;Node10 -->
<g id="edge15" class="edge">
<title>Node9&#45;&gt;Node10</title>
<path fill="none" stroke="midnightblue" d="M293,-112.08C293,-105.01 293,-94.86 293,-85.99"/>
<polygon fill="midnightblue" stroke="midnightblue" points="296.5,-85.75 293,-75.75 289.5,-85.75 296.5,-85.75"/>
</g>
<!-- Node9&#45;&gt;Node11 -->
<g id="edge16" class="edge">
<title>Node9&#45;&gt;Node11</title>
<path fill="none" stroke="midnightblue" d="M280.79,-112.32C269.22,-104.11 251.62,-91.6 237.84,-81.81"/>
<polygon fill="midnightblue" stroke="midnightblue" points="239.61,-78.77 229.43,-75.83 235.56,-84.48 239.61,-78.77"/>
</g>
<!-- Node12&#45;&gt;Node2 -->
<g id="edge21" class="edge">
<title>Node12&#45;&gt;Node2</title>
<path fill="none" stroke="midnightblue" d="M276.29,-168.37C239.19,-149.21 149.78,-103.04 105.59,-80.22"/>
<polygon fill="midnightblue" stroke="midnightblue" points="107.13,-77.07 96.64,-75.59 103.92,-83.29 107.13,-77.07"/>
</g>
<!-- Node12&#45;&gt;Node4 -->
<g id="edge22" class="edge">
<title>Node12&#45;&gt;Node4</title>
<path fill="none" stroke="midnightblue" d="M322.88,-168.39C340.54,-161.59 361.45,-150.15 372,-132 380.5,-117.38 374.69,-98.22 368.16,-84.49"/>
<polygon fill="midnightblue" stroke="midnightblue" points="371.24,-82.82 363.48,-75.6 365.04,-86.08 371.24,-82.82"/>
</g>
<!-- Node12&#45;&gt;Node9 -->
<g id="edge23" class="edge">
<title>Node12&#45;&gt;Node9</title>
<path fill="none" stroke="midnightblue" d="M293,-168.08C293,-161.01 293,-150.86 293,-141.99"/>
<polygon fill="midnightblue" stroke="midnightblue" points="296.5,-141.75 293,-131.75 289.5,-141.75 296.5,-141.75"/>
</g>
</g>
</svg>
