<?xml version="1.0" encoding="UTF-8" standalone="no"?>
<!DOCTYPE svg PUBLIC "-//W3C//DTD SVG 1.1//EN"
 "http://www.w3.org/Graphics/SVG/1.1/DTD/svg11.dtd">
<!-- Generated by graphviz version 2.42.4 (0)
 -->
<!-- Title: speexfile.h Pages: 1 -->
<svg width="1363pt" height="357pt"
 viewBox="0.00 0.00 1362.75 357.00" xmlns="http://www.w3.org/2000/svg" xmlns:xlink="http://www.w3.org/1999/xlink">
<g id="graph0" class="graph" transform="scale(1 1) rotate(0) translate(4 353)">
<title>speexfile.h</title>
<!-- Node1 -->
<g id="Node000001" class="node">
<title>Node1</title>
<g id="a_Node000001"><a xlink:title=" ">
<polygon fill="#999999" stroke="#666666" points="280.75,-349 210.75,-349 210.75,-330 280.75,-330 280.75,-349"/>
<text text-anchor="middle" x="245.75" y="-337" font-family="Helvetica,sans-Serif" font-size="10.00">speexfile.h</text>
</a>
</g>
</g>
<!-- Node2 -->
<g id="Node000002" class="node">
<title>Node2</title>
<g id="a_Node000002"><a xlink:href="oggfile_8h.html" target="_top" xlink:title=" ">
<polygon fill="white" stroke="#666666" points="175.25,-294 116.25,-294 116.25,-275 175.25,-275 175.25,-294"/>
<text text-anchor="middle" x="145.75" y="-282" font-family="Helvetica,sans-Serif" font-size="10.00">oggfile.h</text>
</a>
</g>
</g>
<!-- Node1&#45;&gt;Node2 -->
<g id="edge1_Node000001_Node000002" class="edge">
<title>Node1&#45;&gt;Node2</title>
<g id="a_edge1_Node000001_Node000002"><a xlink:title=" ">
<path fill="none" stroke="#63b8ff" d="M229.69,-329.98C213.89,-321.61 189.53,-308.7 171.12,-298.95"/>
<polygon fill="#63b8ff" stroke="#63b8ff" points="172.59,-295.76 162.11,-294.17 169.31,-301.95 172.59,-295.76"/>
</a>
</g>
</g>
<!-- Node26 -->
<g id="Node000026" class="node">
<title>Node26</title>
<g id="a_Node000026"><a xlink:href="xiphcomment_8h.html" target="_top" xlink:title=" ">
<polygon fill="white" stroke="#666666" points="813.25,-239 720.25,-239 720.25,-220 813.25,-220 813.25,-239"/>
<text text-anchor="middle" x="766.75" y="-227" font-family="Helvetica,sans-Serif" font-size="10.00">xiphcomment.h</text>
</a>
</g>
</g>
<!-- Node1&#45;&gt;Node26 -->
<g id="edge41_Node000001_Node000026" class="edge">
<title>Node1&#45;&gt;Node26</title>
<g id="a_edge41_Node000001_Node000026"><a xlink:title=" ">
<path fill="none" stroke="#63b8ff" d="M281.15,-331.16C371.36,-312.46 610.17,-262.96 715.55,-241.11"/>
<polygon fill="#63b8ff" stroke="#63b8ff" points="716.54,-244.48 725.62,-239.03 715.12,-237.63 716.54,-244.48"/>
</a>
</g>
</g>
<!-- Node31 -->
<g id="Node000031" class="node">
<title>Node31</title>
<g id="a_Node000031"><a xlink:href="speexproperties_8h.html" target="_top" xlink:title=" ">
<polygon fill="white" stroke="#666666" points="297.75,-294 193.75,-294 193.75,-275 297.75,-275 297.75,-294"/>
<text text-anchor="middle" x="245.75" y="-282" font-family="Helvetica,sans-Serif" font-size="10.00">speexproperties.h</text>
</a>
</g>
</g>
<!-- Node1&#45;&gt;Node31 -->
<g id="edge62_Node000001_Node000031" class="edge">
<title>Node1&#45;&gt;Node31</title>
<g id="a_edge62_Node000001_Node000031"><a xlink:title=" ">
<path fill="none" stroke="#63b8ff" d="M245.75,-329.75C245.75,-322.8 245.75,-312.85 245.75,-304.13"/>
<polygon fill="#63b8ff" stroke="#63b8ff" points="249.25,-304.09 245.75,-294.09 242.25,-304.09 249.25,-304.09"/>
</a>
</g>
</g>
<!-- Node3 -->
<g id="Node000003" class="node">
<title>Node3</title>
<g id="a_Node000003"><a xlink:href="tfile_8h.html" target="_top" xlink:title=" ">
<polygon fill="white" stroke="#666666" points="113.75,-239 69.75,-239 69.75,-220 113.75,-220 113.75,-239"/>
<text text-anchor="middle" x="91.75" y="-227" font-family="Helvetica,sans-Serif" font-size="10.00">tfile.h</text>
</a>
</g>
</g>
<!-- Node2&#45;&gt;Node3 -->
<g id="edge2_Node000002_Node000003" class="edge">
<title>Node2&#45;&gt;Node3</title>
<g id="a_edge2_Node000002_Node000003"><a xlink:title=" ">
<path fill="none" stroke="#63b8ff" d="M136.83,-274.75C128.97,-267.03 117.32,-255.6 107.83,-246.28"/>
<polygon fill="#63b8ff" stroke="#63b8ff" points="110.09,-243.6 100.5,-239.09 105.19,-248.59 110.09,-243.6"/>
</a>
</g>
</g>
<!-- Node8 -->
<g id="Node000008" class="node">
<title>Node8</title>
<g id="a_Node000008"><a xlink:href="taglib__export_8h.html" target="_top" xlink:title=" ">
<polygon fill="white" stroke="#666666" points="383.75,-19 293.75,-19 293.75,0 383.75,0 383.75,-19"/>
<text text-anchor="middle" x="338.75" y="-7" font-family="Helvetica,sans-Serif" font-size="10.00">taglib_export.h</text>
</a>
</g>
</g>
<!-- Node2&#45;&gt;Node8 -->
<g id="edge40_Node000002_Node000008" class="edge">
<title>Node2&#45;&gt;Node8</title>
<g id="a_edge40_Node000002_Node000008"><a xlink:title=" ">
<path fill="none" stroke="#63b8ff" d="M145.75,-274.82C145.75,-256.48 145.75,-212.44 145.75,-175.5 145.75,-175.5 145.75,-175.5 145.75,-118.5 145.75,-54.93 226.47,-28.41 283.51,-17.61"/>
<polygon fill="#63b8ff" stroke="#63b8ff" points="284.27,-21.03 293.5,-15.83 283.04,-14.14 284.27,-21.03"/>
</a>
</g>
</g>
<!-- Node25 -->
<g id="Node000025" class="node">
<title>Node25</title>
<g id="a_Node000025"><a xlink:href="tbytevectorlist_8h.html" target="_top" xlink:title=" ">
<polygon fill="white" stroke="#666666" points="1091.25,-129 994.25,-129 994.25,-110 1091.25,-110 1091.25,-129"/>
<text text-anchor="middle" x="1042.75" y="-117" font-family="Helvetica,sans-Serif" font-size="10.00">tbytevectorlist.h</text>
</a>
</g>
</g>
<!-- Node2&#45;&gt;Node25 -->
<g id="edge36_Node000002_Node000025" class="edge">
<title>Node2&#45;&gt;Node25</title>
<g id="a_edge36_Node000002_Node000025"><a xlink:title=" ">
<path fill="none" stroke="#63b8ff" d="M175.48,-276.51C178.6,-275.93 181.73,-275.41 184.75,-275 466.16,-236.64 548.43,-312.52 822.75,-239 902.72,-217.57 985.71,-162.24 1022.78,-135.46"/>
<polygon fill="#63b8ff" stroke="#63b8ff" points="1025.19,-138.04 1031.19,-129.31 1021.05,-132.39 1025.19,-138.04"/>
</a>
</g>
</g>
<!-- Node4 -->
<g id="Node000004" class="node">
<title>Node4</title>
<g id="a_Node000004"><a xlink:href="tbytevector_8h.html" target="_top" xlink:title=" ">
<polygon fill="white" stroke="#666666" points="826.25,-74 745.25,-74 745.25,-55 826.25,-55 826.25,-74"/>
<text text-anchor="middle" x="785.75" y="-62" font-family="Helvetica,sans-Serif" font-size="10.00">tbytevector.h</text>
</a>
</g>
</g>
<!-- Node3&#45;&gt;Node4 -->
<g id="edge3_Node000003_Node000004" class="edge">
<title>Node3&#45;&gt;Node4</title>
<g id="a_edge3_Node000003_Node000004"><a xlink:title=" ">
<path fill="none" stroke="#63b8ff" d="M114.03,-227.16C213.91,-220.85 620.18,-191.67 728.75,-129 748.33,-117.7 764.82,-97.31 774.94,-82.69"/>
<polygon fill="#63b8ff" stroke="#63b8ff" points="778.05,-84.33 780.65,-74.06 772.21,-80.47 778.05,-84.33"/>
</a>
</g>
</g>
<!-- Node3&#45;&gt;Node8 -->
<g id="edge13_Node000003_Node000008" class="edge">
<title>Node3&#45;&gt;Node8</title>
<g id="a_edge13_Node000003_Node000008"><a xlink:title=" ">
<path fill="none" stroke="#63b8ff" d="M79.87,-219.92C69.44,-211.78 54.59,-198.65 45.75,-184 15.41,-133.67 -21.85,-99.31 16.75,-55 50.66,-16.08 200.52,-10.06 283.31,-9.79"/>
<polygon fill="#63b8ff" stroke="#63b8ff" points="283.55,-13.29 293.55,-9.79 283.55,-6.29 283.55,-13.29"/>
</a>
</g>
</g>
<!-- Node9 -->
<g id="Node000009" class="node">
<title>Node9</title>
<g id="a_Node000009"><a xlink:href="tiostream_8h.html" target="_top" xlink:title=" ">
<polygon fill="white" stroke="#666666" points="117.25,-129 44.25,-129 44.25,-110 117.25,-110 117.25,-129"/>
<text text-anchor="middle" x="80.75" y="-117" font-family="Helvetica,sans-Serif" font-size="10.00">tiostream.h</text>
</a>
</g>
</g>
<!-- Node3&#45;&gt;Node9 -->
<g id="edge8_Node000003_Node000009" class="edge">
<title>Node3&#45;&gt;Node9</title>
<g id="a_edge8_Node000003_Node000009"><a xlink:title=" ">
<path fill="none" stroke="#63b8ff" d="M90.85,-219.66C89.07,-202.17 85.06,-162.8 82.66,-139.27"/>
<polygon fill="#63b8ff" stroke="#63b8ff" points="86.13,-138.75 81.63,-129.16 79.17,-139.46 86.13,-138.75"/>
</a>
</g>
</g>
<!-- Node10 -->
<g id="Node000010" class="node">
<title>Node10</title>
<g id="a_Node000010"><a xlink:href="taglib_8h.html" target="_top" xlink:title=" ">
<polygon fill="white" stroke="#666666" points="79.25,-74 26.25,-74 26.25,-55 79.25,-55 79.25,-74"/>
<text text-anchor="middle" x="52.75" y="-62" font-family="Helvetica,sans-Serif" font-size="10.00">taglib.h</text>
</a>
</g>
</g>
<!-- Node3&#45;&gt;Node10 -->
<g id="edge14_Node000003_Node000010" class="edge">
<title>Node3&#45;&gt;Node10</title>
<g id="a_edge14_Node000003_Node000010"><a xlink:title=" ">
<path fill="none" stroke="#63b8ff" d="M84.69,-219.88C71.73,-203.44 44.58,-165.94 34.75,-129 30.61,-113.45 36.43,-95.85 42.53,-83.13"/>
<polygon fill="#63b8ff" stroke="#63b8ff" points="45.72,-84.58 47.3,-74.1 39.53,-81.31 45.72,-84.58"/>
</a>
</g>
</g>
<!-- Node12 -->
<g id="Node000012" class="node">
<title>Node12</title>
<g id="a_Node000012"><a xlink:href="tag_8h.html" target="_top" xlink:title=" ">
<polygon fill="white" stroke="#666666" points="458.25,-184 417.25,-184 417.25,-165 458.25,-165 458.25,-184"/>
<text text-anchor="middle" x="437.75" y="-172" font-family="Helvetica,sans-Serif" font-size="10.00">tag.h</text>
</a>
</g>
</g>
<!-- Node3&#45;&gt;Node12 -->
<g id="edge15_Node000003_Node000012" class="edge">
<title>Node3&#45;&gt;Node12</title>
<g id="a_edge15_Node000003_Node000012"><a xlink:title=" ">
<path fill="none" stroke="#63b8ff" d="M113.92,-225.1C173.67,-215.95 338.14,-190.76 406.9,-180.23"/>
<polygon fill="#63b8ff" stroke="#63b8ff" points="407.73,-183.64 417.09,-178.67 406.67,-176.72 407.73,-183.64"/>
</a>
</g>
</g>
<!-- Node5 -->
<g id="Node000005" class="node">
<title>Node5</title>
<g id="a_Node000005"><a xlink:title=" ">
<polygon fill="#e0e0e0" stroke="#999999" points="920.75,-19 862.75,-19 862.75,0 920.75,0 920.75,-19"/>
<text text-anchor="middle" x="891.75" y="-7" font-family="Helvetica,sans-Serif" font-size="10.00">memory</text>
</a>
</g>
</g>
<!-- Node4&#45;&gt;Node5 -->
<g id="edge4_Node000004_Node000005" class="edge">
<title>Node4&#45;&gt;Node5</title>
<g id="a_edge4_Node000004_Node000005"><a xlink:title=" ">
<path fill="none" stroke="#63b8ff" d="M802.78,-54.98C819.68,-46.54 845.82,-33.47 865.4,-23.68"/>
<polygon fill="#63b8ff" stroke="#63b8ff" points="867.03,-26.77 874.41,-19.17 863.9,-20.51 867.03,-26.77"/>
</a>
</g>
</g>
<!-- Node6 -->
<g id="Node000006" class="node">
<title>Node6</title>
<g id="a_Node000006"><a xlink:title=" ">
<polygon fill="#e0e0e0" stroke="#999999" points="813.25,-19 766.25,-19 766.25,0 813.25,0 813.25,-19"/>
<text text-anchor="middle" x="789.75" y="-7" font-family="Helvetica,sans-Serif" font-size="10.00">vector</text>
</a>
</g>
</g>
<!-- Node4&#45;&gt;Node6 -->
<g id="edge5_Node000004_Node000006" class="edge">
<title>Node4&#45;&gt;Node6</title>
<g id="a_edge5_Node000004_Node000006"><a xlink:title=" ">
<path fill="none" stroke="#63b8ff" d="M786.41,-54.75C786.94,-47.8 787.69,-37.85 788.35,-29.13"/>
<polygon fill="#63b8ff" stroke="#63b8ff" points="791.84,-29.32 789.1,-19.09 784.86,-28.8 791.84,-29.32"/>
</a>
</g>
</g>
<!-- Node7 -->
<g id="Node000007" class="node">
<title>Node7</title>
<g id="a_Node000007"><a xlink:title=" ">
<polygon fill="#e0e0e0" stroke="#999999" points="747.75,-19 699.75,-19 699.75,0 747.75,0 747.75,-19"/>
<text text-anchor="middle" x="723.75" y="-7" font-family="Helvetica,sans-Serif" font-size="10.00">iosfwd</text>
</a>
</g>
</g>
<!-- Node4&#45;&gt;Node7 -->
<g id="edge6_Node000004_Node000007" class="edge">
<title>Node4&#45;&gt;Node7</title>
<g id="a_edge6_Node000004_Node000007"><a xlink:title=" ">
<path fill="none" stroke="#63b8ff" d="M775.79,-54.98C766.63,-47.15 752.81,-35.34 741.72,-25.86"/>
<polygon fill="#63b8ff" stroke="#63b8ff" points="743.77,-23.01 733.89,-19.17 739.22,-28.33 743.77,-23.01"/>
</a>
</g>
</g>
<!-- Node4&#45;&gt;Node8 -->
<g id="edge7_Node000004_Node000008" class="edge">
<title>Node4&#45;&gt;Node8</title>
<g id="a_edge7_Node000004_Node000008"><a xlink:title=" ">
<path fill="none" stroke="#63b8ff" d="M744.9,-58.66C664.38,-49.11 485.12,-27.85 394.09,-17.06"/>
<polygon fill="#63b8ff" stroke="#63b8ff" points="394.31,-13.56 383.97,-15.86 393.48,-20.51 394.31,-13.56"/>
</a>
</g>
</g>
<!-- Node9&#45;&gt;Node4 -->
<g id="edge9_Node000009_Node000004" class="edge">
<title>Node9&#45;&gt;Node4</title>
<g id="a_edge9_Node000009_Node000004"><a xlink:title=" ">
<path fill="none" stroke="#63b8ff" d="M117.53,-114.54C132.21,-113.02 149.27,-111.34 164.75,-110 376.31,-91.72 628.89,-75.29 734.93,-68.64"/>
<polygon fill="#63b8ff" stroke="#63b8ff" points="735.27,-72.12 745.03,-68 734.83,-65.13 735.27,-72.12"/>
</a>
</g>
</g>
<!-- Node9&#45;&gt;Node8 -->
<g id="edge10_Node000009_Node000008" class="edge">
<title>Node9&#45;&gt;Node8</title>
<g id="a_edge10_Node000009_Node000008"><a xlink:title=" ">
<path fill="none" stroke="#63b8ff" d="M85.09,-109.95C92.59,-96.07 109.37,-68.81 131.75,-55 177.8,-26.58 239.33,-16.13 283.31,-12.38"/>
<polygon fill="#63b8ff" stroke="#63b8ff" points="283.83,-15.85 293.54,-11.6 283.3,-8.87 283.83,-15.85"/>
</a>
</g>
</g>
<!-- Node9&#45;&gt;Node10 -->
<g id="edge11_Node000009_Node000010" class="edge">
<title>Node9&#45;&gt;Node10</title>
<g id="a_edge11_Node000009_Node000010"><a xlink:title=" ">
<path fill="none" stroke="#63b8ff" d="M76.13,-109.75C72.3,-102.49 66.73,-91.95 61.99,-82.98"/>
<polygon fill="#63b8ff" stroke="#63b8ff" points="65.06,-81.3 57.29,-74.09 58.87,-84.57 65.06,-81.3"/>
</a>
</g>
</g>
<!-- Node11 -->
<g id="Node000011" class="node">
<title>Node11</title>
<g id="a_Node000011"><a xlink:title=" ">
<polygon fill="#e0e0e0" stroke="#999999" points="88.75,-19 16.75,-19 16.75,0 88.75,0 88.75,-19"/>
<text text-anchor="middle" x="52.75" y="-7" font-family="Helvetica,sans-Serif" font-size="10.00">sys/types.h</text>
</a>
</g>
</g>
<!-- Node10&#45;&gt;Node11 -->
<g id="edge12_Node000010_Node000011" class="edge">
<title>Node10&#45;&gt;Node11</title>
<g id="a_edge12_Node000010_Node000011"><a xlink:title=" ">
<path fill="none" stroke="#63b8ff" d="M52.75,-54.75C52.75,-47.8 52.75,-37.85 52.75,-29.13"/>
<polygon fill="#63b8ff" stroke="#63b8ff" points="56.25,-29.09 52.75,-19.09 49.25,-29.09 56.25,-29.09"/>
</a>
</g>
</g>
<!-- Node12&#45;&gt;Node8 -->
<g id="edge16_Node000012_Node000008" class="edge">
<title>Node12&#45;&gt;Node8</title>
<g id="a_edge16_Node000012_Node000008"><a xlink:title=" ">
<path fill="none" stroke="#63b8ff" d="M417.12,-166.31C399.96,-159.32 376.1,-147.09 361.75,-129 338.72,-99.95 336.53,-54.46 337.39,-29.13"/>
<polygon fill="#63b8ff" stroke="#63b8ff" points="340.89,-29.21 337.93,-19.04 333.9,-28.83 340.89,-29.21"/>
</a>
</g>
</g>
<!-- Node13 -->
<g id="Node000013" class="node">
<title>Node13</title>
<g id="a_Node000013"><a xlink:href="tstring_8h.html" target="_top" xlink:title=" ">
<polygon fill="white" stroke="#666666" points="427.25,-129 370.25,-129 370.25,-110 427.25,-110 427.25,-129"/>
<text text-anchor="middle" x="398.75" y="-117" font-family="Helvetica,sans-Serif" font-size="10.00">tstring.h</text>
</a>
</g>
</g>
<!-- Node12&#45;&gt;Node13 -->
<g id="edge17_Node000012_Node000013" class="edge">
<title>Node12&#45;&gt;Node13</title>
<g id="a_edge17_Node000012_Node000013"><a xlink:title=" ">
<path fill="none" stroke="#63b8ff" d="M431.31,-164.75C425.86,-157.34 417.89,-146.5 411.2,-137.41"/>
<polygon fill="#63b8ff" stroke="#63b8ff" points="413.82,-135.07 405.07,-129.09 408.18,-139.22 413.82,-135.07"/>
</a>
</g>
</g>
<!-- Node15 -->
<g id="Node000015" class="node">
<title>Node15</title>
<g id="a_Node000015"><a xlink:href="tlist_8h.html" target="_top" xlink:title=" ">
<polygon fill="white" stroke="#666666" points="1056.75,-74 1012.75,-74 1012.75,-55 1056.75,-55 1056.75,-74"/>
<text text-anchor="middle" x="1034.75" y="-62" font-family="Helvetica,sans-Serif" font-size="10.00">tlist.h</text>
</a>
</g>
</g>
<!-- Node12&#45;&gt;Node15 -->
<g id="edge21_Node000012_Node000015" class="edge">
<title>Node12&#45;&gt;Node15</title>
<g id="a_edge21_Node000012_Node000015"><a xlink:title=" ">
<path fill="none" stroke="#63b8ff" d="M458.28,-170.74C505.92,-164.26 627.65,-147.21 728.75,-129 829.08,-110.93 946.97,-85.18 1002.6,-72.76"/>
<polygon fill="#63b8ff" stroke="#63b8ff" points="1003.57,-76.13 1012.56,-70.53 1002.04,-69.3 1003.57,-76.13"/>
</a>
</g>
</g>
<!-- Node19 -->
<g id="Node000019" class="node">
<title>Node19</title>
<g id="a_Node000019"><a xlink:href="tvariant_8h.html" target="_top" xlink:title=" ">
<polygon fill="white" stroke="#666666" points="509.75,-129 445.75,-129 445.75,-110 509.75,-110 509.75,-129"/>
<text text-anchor="middle" x="477.75" y="-117" font-family="Helvetica,sans-Serif" font-size="10.00">tvariant.h</text>
</a>
</g>
</g>
<!-- Node12&#45;&gt;Node19 -->
<g id="edge26_Node000012_Node000019" class="edge">
<title>Node12&#45;&gt;Node19</title>
<g id="a_edge26_Node000012_Node000019"><a xlink:title=" ">
<path fill="none" stroke="#63b8ff" d="M444.36,-164.75C450.01,-157.26 458.3,-146.28 465.2,-137.13"/>
<polygon fill="#63b8ff" stroke="#63b8ff" points="468.04,-139.18 471.27,-129.09 462.45,-134.96 468.04,-139.18"/>
</a>
</g>
</g>
<!-- Node13&#45;&gt;Node4 -->
<g id="edge19_Node000013_Node000004" class="edge">
<title>Node13&#45;&gt;Node4</title>
<g id="a_edge19_Node000013_Node000004"><a xlink:title=" ">
<path fill="none" stroke="#63b8ff" d="M427.33,-111.81C430.5,-111.15 433.69,-110.54 436.75,-110 542.19,-91.53 666.83,-77.49 734.96,-70.48"/>
<polygon fill="#63b8ff" stroke="#63b8ff" points="735.4,-73.95 745,-69.45 734.69,-66.98 735.4,-73.95"/>
</a>
</g>
</g>
<!-- Node13&#45;&gt;Node8 -->
<g id="edge20_Node000013_Node000008" class="edge">
<title>Node13&#45;&gt;Node8</title>
<g id="a_edge20_Node000013_Node000008"><a xlink:title=" ">
<path fill="none" stroke="#63b8ff" d="M388.58,-109.95C379.31,-101.65 365.86,-88.24 357.75,-74 349.83,-60.08 344.9,-42.52 342.06,-29.4"/>
<polygon fill="#63b8ff" stroke="#63b8ff" points="345.42,-28.35 340.07,-19.21 338.55,-29.69 345.42,-28.35"/>
</a>
</g>
</g>
<!-- Node14 -->
<g id="Node000014" class="node">
<title>Node14</title>
<g id="a_Node000014"><a xlink:title=" ">
<polygon fill="#e0e0e0" stroke="#999999" points="410.75,-74 366.75,-74 366.75,-55 410.75,-55 410.75,-74"/>
<text text-anchor="middle" x="388.75" y="-62" font-family="Helvetica,sans-Serif" font-size="10.00">string</text>
</a>
</g>
</g>
<!-- Node13&#45;&gt;Node14 -->
<g id="edge18_Node000013_Node000014" class="edge">
<title>Node13&#45;&gt;Node14</title>
<g id="a_edge18_Node000013_Node000014"><a xlink:title=" ">
<path fill="none" stroke="#63b8ff" d="M397.1,-109.75C395.79,-102.8 393.91,-92.85 392.27,-84.13"/>
<polygon fill="#63b8ff" stroke="#63b8ff" points="395.67,-83.27 390.37,-74.09 388.79,-84.56 395.67,-83.27"/>
</a>
</g>
</g>
<!-- Node15&#45;&gt;Node5 -->
<g id="edge24_Node000015_Node000005" class="edge">
<title>Node15&#45;&gt;Node5</title>
<g id="a_edge24_Node000015_Node000005"><a xlink:title=" ">
<path fill="none" stroke="#63b8ff" d="M1012.72,-55.33C989.14,-46.59 951.47,-32.63 924.43,-22.61"/>
<polygon fill="#63b8ff" stroke="#63b8ff" points="925.59,-19.31 914.99,-19.11 923.15,-25.87 925.59,-19.31"/>
</a>
</g>
</g>
<!-- Node16 -->
<g id="Node000016" class="node">
<title>Node16</title>
<g id="a_Node000016"><a xlink:title=" ">
<polygon fill="#e0e0e0" stroke="#999999" points="985.75,-19 953.75,-19 953.75,0 985.75,0 985.75,-19"/>
<text text-anchor="middle" x="969.75" y="-7" font-family="Helvetica,sans-Serif" font-size="10.00">list</text>
</a>
</g>
</g>
<!-- Node15&#45;&gt;Node16 -->
<g id="edge22_Node000015_Node000016" class="edge">
<title>Node15&#45;&gt;Node16</title>
<g id="a_edge22_Node000015_Node000016"><a xlink:title=" ">
<path fill="none" stroke="#63b8ff" d="M1024.31,-54.98C1014.61,-47.07 999.94,-35.11 988.25,-25.58"/>
<polygon fill="#63b8ff" stroke="#63b8ff" points="990.35,-22.78 980.39,-19.17 985.92,-28.2 990.35,-22.78"/>
</a>
</g>
</g>
<!-- Node17 -->
<g id="Node000017" class="node">
<title>Node17</title>
<g id="a_Node000017"><a xlink:title=" ">
<polygon fill="#e0e0e0" stroke="#999999" points="1158.25,-19 1075.25,-19 1075.25,0 1158.25,0 1158.25,-19"/>
<text text-anchor="middle" x="1116.75" y="-7" font-family="Helvetica,sans-Serif" font-size="10.00">initializer_list</text>
</a>
</g>
</g>
<!-- Node15&#45;&gt;Node17 -->
<g id="edge23_Node000015_Node000017" class="edge">
<title>Node15&#45;&gt;Node17</title>
<g id="a_edge23_Node000015_Node000017"><a xlink:title=" ">
<path fill="none" stroke="#63b8ff" d="M1047.93,-54.98C1060.52,-46.84 1079.76,-34.41 1094.69,-24.76"/>
<polygon fill="#63b8ff" stroke="#63b8ff" points="1096.84,-27.54 1103.34,-19.17 1093.04,-21.66 1096.84,-27.54"/>
</a>
</g>
</g>
<!-- Node18 -->
<g id="Node000018" class="node">
<title>Node18</title>
<g id="a_Node000018"><a xlink:title=" ">
<polygon fill="#e0e0e0" stroke="#999999" points="1057.25,-19 1004.25,-19 1004.25,0 1057.25,0 1057.25,-19"/>
<text text-anchor="middle" x="1030.75" y="-7" font-family="Helvetica,sans-Serif" font-size="10.00">tlist.tcc</text>
</a>
</g>
</g>
<!-- Node15&#45;&gt;Node18 -->
<g id="edge25_Node000015_Node000018" class="edge">
<title>Node15&#45;&gt;Node18</title>
<g id="a_edge25_Node000015_Node000018"><a xlink:title=" ">
<path fill="none" stroke="#63b8ff" d="M1034.09,-54.75C1033.57,-47.8 1032.82,-37.85 1032.16,-29.13"/>
<polygon fill="#63b8ff" stroke="#63b8ff" points="1035.64,-28.8 1031.4,-19.09 1028.66,-29.32 1035.64,-28.8"/>
</a>
</g>
</g>
<!-- Node19&#45;&gt;Node8 -->
<g id="edge35_Node000019_Node000008" class="edge">
<title>Node19&#45;&gt;Node8</title>
<g id="a_edge35_Node000019_Node000008"><a xlink:title=" ">
<path fill="none" stroke="#63b8ff" d="M484.11,-109.79C492.86,-96.65 506.2,-71.53 493.75,-55 481.55,-38.8 433.51,-26.68 394.11,-19.22"/>
<polygon fill="#63b8ff" stroke="#63b8ff" points="394.51,-15.73 384.04,-17.37 393.25,-22.62 394.51,-15.73"/>
</a>
</g>
</g>
<!-- Node19&#45;&gt;Node15 -->
<g id="edge28_Node000019_Node000015" class="edge">
<title>Node19&#45;&gt;Node15</title>
<g id="a_edge28_Node000019_Node000015"><a xlink:title=" ">
<path fill="none" stroke="#63b8ff" d="M510.11,-115.42C608.58,-106.05 903.89,-77.95 1002.38,-68.58"/>
<polygon fill="#63b8ff" stroke="#63b8ff" points="1002.98,-72.04 1012.61,-67.61 1002.32,-65.07 1002.98,-72.04"/>
</a>
</g>
</g>
<!-- Node20 -->
<g id="Node000020" class="node">
<title>Node20</title>
<g id="a_Node000020"><a xlink:title=" ">
<polygon fill="#e0e0e0" stroke="#999999" points="484.75,-74 428.75,-74 428.75,-55 484.75,-55 484.75,-74"/>
<text text-anchor="middle" x="456.75" y="-62" font-family="Helvetica,sans-Serif" font-size="10.00">sstream</text>
</a>
</g>
</g>
<!-- Node19&#45;&gt;Node20 -->
<g id="edge27_Node000019_Node000020" class="edge">
<title>Node19&#45;&gt;Node20</title>
<g id="a_edge27_Node000019_Node000020"><a xlink:title=" ">
<path fill="none" stroke="#63b8ff" d="M474.28,-109.75C471.47,-102.65 467.41,-92.4 463.91,-83.56"/>
<polygon fill="#63b8ff" stroke="#63b8ff" points="467.09,-82.1 460.16,-74.09 460.58,-84.68 467.09,-82.1"/>
</a>
</g>
</g>
<!-- Node21 -->
<g id="Node000021" class="node">
<title>Node21</title>
<g id="a_Node000021"><a xlink:href="tmap_8h.html" target="_top" xlink:title=" ">
<polygon fill="white" stroke="#666666" points="1224.25,-74 1173.25,-74 1173.25,-55 1224.25,-55 1224.25,-74"/>
<text text-anchor="middle" x="1198.75" y="-62" font-family="Helvetica,sans-Serif" font-size="10.00">tmap.h</text>
</a>
</g>
</g>
<!-- Node19&#45;&gt;Node21 -->
<g id="edge29_Node000019_Node000021" class="edge">
<title>Node19&#45;&gt;Node21</title>
<g id="a_edge29_Node000019_Node000021"><a xlink:title=" ">
<path fill="none" stroke="#63b8ff" d="M510.13,-116.12C628.75,-107.4 1039.04,-77.24 1163,-68.13"/>
<polygon fill="#63b8ff" stroke="#63b8ff" points="1163.38,-71.61 1173.1,-67.39 1162.87,-64.63 1163.38,-71.61"/>
</a>
</g>
</g>
<!-- Node21&#45;&gt;Node5 -->
<g id="edge31_Node000021_Node000005" class="edge">
<title>Node21&#45;&gt;Node5</title>
<g id="a_edge31_Node000021_Node000005"><a xlink:title=" ">
<path fill="none" stroke="#63b8ff" d="M1173.11,-59.07C1119.46,-49.81 995.08,-28.34 931.19,-17.31"/>
<polygon fill="#63b8ff" stroke="#63b8ff" points="931.55,-13.82 921.1,-15.57 930.36,-20.72 931.55,-13.82"/>
</a>
</g>
</g>
<!-- Node21&#45;&gt;Node17 -->
<g id="edge32_Node000021_Node000017" class="edge">
<title>Node21&#45;&gt;Node17</title>
<g id="a_edge32_Node000021_Node000017"><a xlink:title=" ">
<path fill="none" stroke="#63b8ff" d="M1185.58,-54.98C1172.98,-46.84 1153.75,-34.41 1138.81,-24.76"/>
<polygon fill="#63b8ff" stroke="#63b8ff" points="1140.46,-21.66 1130.17,-19.17 1136.66,-27.54 1140.46,-21.66"/>
</a>
</g>
</g>
<!-- Node22 -->
<g id="Node000022" class="node">
<title>Node22</title>
<g id="a_Node000022"><a xlink:title=" ">
<polygon fill="#e0e0e0" stroke="#999999" points="1354.75,-19 1316.75,-19 1316.75,0 1354.75,0 1354.75,-19"/>
<text text-anchor="middle" x="1335.75" y="-7" font-family="Helvetica,sans-Serif" font-size="10.00">map</text>
</a>
</g>
</g>
<!-- Node21&#45;&gt;Node22 -->
<g id="edge30_Node000021_Node000022" class="edge">
<title>Node21&#45;&gt;Node22</title>
<g id="a_edge30_Node000021_Node000022"><a xlink:title=" ">
<path fill="none" stroke="#63b8ff" d="M1220.76,-54.98C1244.13,-45.94 1281.18,-31.61 1306.88,-21.67"/>
<polygon fill="#63b8ff" stroke="#63b8ff" points="1308.39,-24.84 1316.45,-17.97 1305.86,-18.31 1308.39,-24.84"/>
</a>
</g>
</g>
<!-- Node23 -->
<g id="Node000023" class="node">
<title>Node23</title>
<g id="a_Node000023"><a xlink:title=" ">
<polygon fill="#e0e0e0" stroke="#999999" points="1221.25,-19 1176.25,-19 1176.25,0 1221.25,0 1221.25,-19"/>
<text text-anchor="middle" x="1198.75" y="-7" font-family="Helvetica,sans-Serif" font-size="10.00">utility</text>
</a>
</g>
</g>
<!-- Node21&#45;&gt;Node23 -->
<g id="edge33_Node000021_Node000023" class="edge">
<title>Node21&#45;&gt;Node23</title>
<g id="a_edge33_Node000021_Node000023"><a xlink:title=" ">
<path fill="none" stroke="#63b8ff" d="M1198.75,-54.75C1198.75,-47.8 1198.75,-37.85 1198.75,-29.13"/>
<polygon fill="#63b8ff" stroke="#63b8ff" points="1202.25,-29.09 1198.75,-19.09 1195.25,-29.09 1202.25,-29.09"/>
</a>
</g>
</g>
<!-- Node24 -->
<g id="Node000024" class="node">
<title>Node24</title>
<g id="a_Node000024"><a xlink:title=" ">
<polygon fill="#e0e0e0" stroke="#999999" points="1298.25,-19 1239.25,-19 1239.25,0 1298.25,0 1298.25,-19"/>
<text text-anchor="middle" x="1268.75" y="-7" font-family="Helvetica,sans-Serif" font-size="10.00">tmap.tcc</text>
</a>
</g>
</g>
<!-- Node21&#45;&gt;Node24 -->
<g id="edge34_Node000021_Node000024" class="edge">
<title>Node21&#45;&gt;Node24</title>
<g id="a_edge34_Node000021_Node000024"><a xlink:title=" ">
<path fill="none" stroke="#63b8ff" d="M1210,-54.98C1220.55,-47 1236.55,-34.88 1249.19,-25.31"/>
<polygon fill="#63b8ff" stroke="#63b8ff" points="1251.44,-28 1257.3,-19.17 1247.22,-22.42 1251.44,-28"/>
</a>
</g>
</g>
<!-- Node25&#45;&gt;Node4 -->
<g id="edge37_Node000025_Node000004" class="edge">
<title>Node25&#45;&gt;Node4</title>
<g id="a_edge37_Node000025_Node000004"><a xlink:title=" ">
<path fill="none" stroke="#63b8ff" d="M1001.46,-109.98C956.55,-100.72 884.74,-85.91 836.45,-75.95"/>
<polygon fill="#63b8ff" stroke="#63b8ff" points="837.02,-72.5 826.52,-73.91 835.6,-79.35 837.02,-72.5"/>
</a>
</g>
</g>
<!-- Node25&#45;&gt;Node8 -->
<g id="edge39_Node000025_Node000008" class="edge">
<title>Node25&#45;&gt;Node8</title>
<g id="a_edge39_Node000025_Node000008"><a xlink:title=" ">
<path fill="none" stroke="#63b8ff" d="M1020.48,-109.98C982.97,-96.02 904.55,-68.48 835.75,-55 677.56,-24.01 486.75,-14.56 394.32,-11.71"/>
<polygon fill="#63b8ff" stroke="#63b8ff" points="394.18,-8.2 384.08,-11.41 393.98,-15.2 394.18,-8.2"/>
</a>
</g>
</g>
<!-- Node25&#45;&gt;Node15 -->
<g id="edge38_Node000025_Node000015" class="edge">
<title>Node25&#45;&gt;Node15</title>
<g id="a_edge38_Node000025_Node000015"><a xlink:title=" ">
<path fill="none" stroke="#63b8ff" d="M1041.43,-109.75C1040.38,-102.8 1038.88,-92.85 1037.56,-84.13"/>
<polygon fill="#63b8ff" stroke="#63b8ff" points="1041,-83.45 1036.05,-74.09 1034.08,-84.5 1041,-83.45"/>
</a>
</g>
</g>
<!-- Node26&#45;&gt;Node4 -->
<g id="edge50_Node000026_Node000004" class="edge">
<title>Node26&#45;&gt;Node4</title>
<g id="a_edge50_Node000026_Node000004"><a xlink:title=" ">
<path fill="none" stroke="#63b8ff" d="M813.36,-221.62C842.63,-215.5 879.96,-204.26 907.75,-184 931.97,-166.35 937.66,-157.55 946.75,-129 949.32,-120.95 951.87,-116.72 946.75,-110 939.85,-100.94 880.78,-86.24 836.17,-76.23"/>
<polygon fill="#63b8ff" stroke="#63b8ff" points="836.85,-72.8 826.33,-74.05 835.33,-79.63 836.85,-72.8"/>
</a>
</g>
</g>
<!-- Node26&#45;&gt;Node8 -->
<g id="edge51_Node000026_Node000008" class="edge">
<title>Node26&#45;&gt;Node8</title>
<g id="a_edge51_Node000026_Node000008"><a xlink:title=" ">
<path fill="none" stroke="#63b8ff" d="M720.1,-226.14C636.16,-221.32 463.32,-208.68 408.75,-184 375.19,-168.82 365.65,-160.62 346.75,-129 328.22,-97.98 331.31,-53.9 335.1,-29.18"/>
<polygon fill="#63b8ff" stroke="#63b8ff" points="338.61,-29.47 336.88,-19.01 331.71,-28.26 338.61,-29.47"/>
</a>
</g>
</g>
<!-- Node26&#45;&gt;Node12 -->
<g id="edge52_Node000026_Node000012" class="edge">
<title>Node26&#45;&gt;Node12</title>
<g id="a_edge52_Node000026_Node000012"><a xlink:title=" ">
<path fill="none" stroke="#63b8ff" d="M719.96,-220.96C651.66,-209.96 526.49,-189.79 468.61,-180.47"/>
<polygon fill="#63b8ff" stroke="#63b8ff" points="469.04,-177 458.61,-178.86 467.93,-183.91 469.04,-177"/>
</a>
</g>
</g>
<!-- Node26&#45;&gt;Node13 -->
<g id="edge44_Node000026_Node000013" class="edge">
<title>Node26&#45;&gt;Node13</title>
<g id="a_edge44_Node000026_Node000013"><a xlink:title=" ">
<path fill="none" stroke="#63b8ff" d="M737.57,-219.94C671.65,-200.59 511.24,-153.51 437.28,-131.81"/>
<polygon fill="#63b8ff" stroke="#63b8ff" points="438.01,-128.37 427.43,-128.92 436.04,-135.09 438.01,-128.37"/>
</a>
</g>
</g>
<!-- Node26&#45;&gt;Node15 -->
<g id="edge42_Node000026_Node000015" class="edge">
<title>Node26&#45;&gt;Node15</title>
<g id="a_edge42_Node000026_Node000015"><a xlink:title=" ">
<path fill="none" stroke="#63b8ff" d="M813.57,-223.4C906.45,-212.21 1108.62,-182.19 1149.75,-129 1174.69,-96.75 1108.73,-78.58 1066.65,-70.55"/>
<polygon fill="#63b8ff" stroke="#63b8ff" points="1067.26,-67.1 1056.8,-68.76 1066.01,-73.99 1067.26,-67.1"/>
</a>
</g>
</g>
<!-- Node26&#45;&gt;Node21 -->
<g id="edge43_Node000026_Node000021" class="edge">
<title>Node26&#45;&gt;Node21</title>
<g id="a_edge43_Node000026_Node000021"><a xlink:title=" ">
<path fill="none" stroke="#63b8ff" d="M813.44,-227.6C875.21,-225.11 986.64,-216.1 1075.75,-184 1119.85,-168.11 1133.77,-163.28 1165.75,-129 1177.92,-115.95 1186.82,-97.56 1192.29,-83.93"/>
<polygon fill="#63b8ff" stroke="#63b8ff" points="1195.7,-84.8 1195.94,-74.21 1189.15,-82.34 1195.7,-84.8"/>
</a>
</g>
</g>
<!-- Node27 -->
<g id="Node000027" class="node">
<title>Node27</title>
<g id="a_Node000027"><a xlink:href="tstringlist_8h.html" target="_top" xlink:title=" ">
<polygon fill="white" stroke="#666666" points="802.75,-184 730.75,-184 730.75,-165 802.75,-165 802.75,-184"/>
<text text-anchor="middle" x="766.75" y="-172" font-family="Helvetica,sans-Serif" font-size="10.00">tstringlist.h</text>
</a>
</g>
</g>
<!-- Node26&#45;&gt;Node27 -->
<g id="edge45_Node000026_Node000027" class="edge">
<title>Node26&#45;&gt;Node27</title>
<g id="a_edge45_Node000026_Node000027"><a xlink:title=" ">
<path fill="none" stroke="#63b8ff" d="M766.75,-219.75C766.75,-212.8 766.75,-202.85 766.75,-194.13"/>
<polygon fill="#63b8ff" stroke="#63b8ff" points="770.25,-194.09 766.75,-184.09 763.25,-194.09 770.25,-194.09"/>
</a>
</g>
</g>
<!-- Node28 -->
<g id="Node000028" class="node">
<title>Node28</title>
<g id="a_Node000028"><a xlink:href="flacpicture_8h.html" target="_top" xlink:title=" ">
<polygon fill="white" stroke="#666666" points="898.25,-184 821.25,-184 821.25,-165 898.25,-165 898.25,-184"/>
<text text-anchor="middle" x="859.75" y="-172" font-family="Helvetica,sans-Serif" font-size="10.00">flacpicture.h</text>
</a>
</g>
</g>
<!-- Node26&#45;&gt;Node28 -->
<g id="edge53_Node000026_Node000028" class="edge">
<title>Node26&#45;&gt;Node28</title>
<g id="a_edge53_Node000026_Node000028"><a xlink:title=" ">
<path fill="none" stroke="#63b8ff" d="M781.69,-219.98C796.25,-211.69 818.62,-198.94 835.69,-189.22"/>
<polygon fill="#63b8ff" stroke="#63b8ff" points="837.58,-192.16 844.54,-184.17 834.12,-186.08 837.58,-192.16"/>
</a>
</g>
</g>
<!-- Node27&#45;&gt;Node8 -->
<g id="edge49_Node000027_Node000008" class="edge">
<title>Node27&#45;&gt;Node8</title>
<g id="a_edge49_Node000027_Node000008"><a xlink:title=" ">
<path fill="none" stroke="#63b8ff" d="M730.74,-173.42C687.24,-171.68 613.49,-163.34 561.75,-129 528.26,-106.77 542.78,-77.91 509.75,-55 475.68,-31.37 429.92,-20.29 394.31,-15.09"/>
<polygon fill="#63b8ff" stroke="#63b8ff" points="394.46,-11.58 384.09,-13.72 393.53,-18.52 394.46,-11.58"/>
</a>
</g>
</g>
<!-- Node27&#45;&gt;Node13 -->
<g id="edge46_Node000027_Node000013" class="edge">
<title>Node27&#45;&gt;Node13</title>
<g id="a_edge46_Node000027_Node000013"><a xlink:title=" ">
<path fill="none" stroke="#63b8ff" d="M730.46,-169.64C671.31,-163.12 550.25,-148.86 437.51,-128.98"/>
<polygon fill="#63b8ff" stroke="#63b8ff" points="437.79,-125.48 427.33,-127.17 436.56,-132.37 437.79,-125.48"/>
</a>
</g>
</g>
<!-- Node27&#45;&gt;Node15 -->
<g id="edge47_Node000027_Node000015" class="edge">
<title>Node27&#45;&gt;Node15</title>
<g id="a_edge47_Node000027_Node000015"><a xlink:title=" ">
<path fill="none" stroke="#63b8ff" d="M802.88,-166.62C806.21,-166.05 809.54,-165.5 812.75,-165 876.49,-155.14 1058.07,-177.35 1100.75,-129 1117.17,-110.4 1089.05,-90.88 1064.58,-78.47"/>
<polygon fill="#63b8ff" stroke="#63b8ff" points="1066.01,-75.28 1055.49,-74.08 1062.97,-81.58 1066.01,-75.28"/>
</a>
</g>
</g>
<!-- Node27&#45;&gt;Node25 -->
<g id="edge48_Node000027_Node000025" class="edge">
<title>Node27&#45;&gt;Node25</title>
<g id="a_edge48_Node000027_Node000025"><a xlink:title=" ">
<path fill="none" stroke="#63b8ff" d="M802.83,-166.57C850.15,-157.48 933.6,-141.46 988.53,-130.91"/>
<polygon fill="#63b8ff" stroke="#63b8ff" points="989.29,-134.33 998.45,-129.01 987.97,-127.46 989.29,-134.33"/>
</a>
</g>
</g>
<!-- Node28&#45;&gt;Node4 -->
<g id="edge56_Node000028_Node000004" class="edge">
<title>Node28&#45;&gt;Node4</title>
<g id="a_edge56_Node000028_Node000004"><a xlink:title=" ">
<path fill="none" stroke="#63b8ff" d="M853.7,-164.66C841.44,-146.77 813.5,-106 797.53,-82.69"/>
<polygon fill="#63b8ff" stroke="#63b8ff" points="800.22,-80.43 791.68,-74.16 794.45,-84.39 800.22,-80.43"/>
</a>
</g>
</g>
<!-- Node28&#45;&gt;Node8 -->
<g id="edge58_Node000028_Node000008" class="edge">
<title>Node28&#45;&gt;Node8</title>
<g id="a_edge58_Node000028_Node000008"><a xlink:title=" ">
<path fill="none" stroke="#63b8ff" d="M821.25,-166.64C818.03,-166.08 814.84,-165.53 811.75,-165 715.4,-148.48 679.84,-177.15 594.75,-129 557.16,-107.73 568.66,-77.43 531.75,-55 489.76,-29.48 434.52,-18.59 393.9,-13.94"/>
<polygon fill="#63b8ff" stroke="#63b8ff" points="394.21,-10.45 383.9,-12.89 393.48,-17.42 394.21,-10.45"/>
</a>
</g>
</g>
<!-- Node28&#45;&gt;Node13 -->
<g id="edge55_Node000028_Node000013" class="edge">
<title>Node28&#45;&gt;Node13</title>
<g id="a_edge55_Node000028_Node000013"><a xlink:title=" ">
<path fill="none" stroke="#63b8ff" d="M821.02,-166.37C817.89,-165.88 814.77,-165.41 811.75,-165 649.09,-142.83 603.86,-154.83 437.41,-128.88"/>
<polygon fill="#63b8ff" stroke="#63b8ff" points="437.74,-125.39 427.31,-127.29 436.64,-132.31 437.74,-125.39"/>
</a>
</g>
</g>
<!-- Node28&#45;&gt;Node15 -->
<g id="edge54_Node000028_Node000015" class="edge">
<title>Node28&#45;&gt;Node15</title>
<g id="a_edge54_Node000028_Node000015"><a xlink:title=" ">
<path fill="none" stroke="#63b8ff" d="M898.27,-173.12C966.45,-171.55 1103.97,-164.01 1133.75,-129 1156.55,-102.2 1103.81,-82.71 1066.89,-72.83"/>
<polygon fill="#63b8ff" stroke="#63b8ff" points="1067.53,-69.38 1056.97,-70.3 1065.8,-76.16 1067.53,-69.38"/>
</a>
</g>
</g>
<!-- Node29 -->
<g id="Node000029" class="node">
<title>Node29</title>
<g id="a_Node000029"><a xlink:href="tpicturetype_8h.html" target="_top" xlink:title=" ">
<polygon fill="white" stroke="#666666" points="937.25,-129 852.25,-129 852.25,-110 937.25,-110 937.25,-129"/>
<text text-anchor="middle" x="894.75" y="-117" font-family="Helvetica,sans-Serif" font-size="10.00">tpicturetype.h</text>
</a>
</g>
</g>
<!-- Node28&#45;&gt;Node29 -->
<g id="edge57_Node000028_Node000029" class="edge">
<title>Node28&#45;&gt;Node29</title>
<g id="a_edge57_Node000028_Node000029"><a xlink:title=" ">
<path fill="none" stroke="#63b8ff" d="M865.53,-164.75C870.37,-157.42 877.43,-146.73 883.4,-137.7"/>
<polygon fill="#63b8ff" stroke="#63b8ff" points="886.49,-139.36 889.08,-129.09 880.65,-135.5 886.49,-139.36"/>
</a>
</g>
</g>
<!-- Node30 -->
<g id="Node000030" class="node">
<title>Node30</title>
<g id="a_Node000030"><a xlink:href="flacmetadatablock_8h.html" target="_top" xlink:title=" ">
<polygon fill="white" stroke="#666666" points="719.75,-129 603.75,-129 603.75,-110 719.75,-110 719.75,-129"/>
<text text-anchor="middle" x="661.75" y="-117" font-family="Helvetica,sans-Serif" font-size="10.00">flacmetadatablock.h</text>
</a>
</g>
</g>
<!-- Node28&#45;&gt;Node30 -->
<g id="edge59_Node000028_Node000030" class="edge">
<title>Node28&#45;&gt;Node30</title>
<g id="a_edge59_Node000028_Node000030"><a xlink:title=" ">
<path fill="none" stroke="#63b8ff" d="M827.94,-164.98C794.27,-155.97 740.96,-141.7 703.83,-131.76"/>
<polygon fill="#63b8ff" stroke="#63b8ff" points="704.38,-128.29 693.81,-129.08 702.57,-135.05 704.38,-128.29"/>
</a>
</g>
</g>
<!-- Node30&#45;&gt;Node4 -->
<g id="edge60_Node000030_Node000004" class="edge">
<title>Node30&#45;&gt;Node4</title>
<g id="a_edge60_Node000030_Node000004"><a xlink:title=" ">
<path fill="none" stroke="#63b8ff" d="M681.67,-109.98C701.8,-101.38 733.13,-87.99 756.16,-78.15"/>
<polygon fill="#63b8ff" stroke="#63b8ff" points="757.65,-81.32 765.47,-74.17 754.9,-74.88 757.65,-81.32"/>
</a>
</g>
</g>
<!-- Node30&#45;&gt;Node8 -->
<g id="edge61_Node000030_Node000008" class="edge">
<title>Node30&#45;&gt;Node8</title>
<g id="a_edge61_Node000030_Node000008"><a xlink:title=" ">
<path fill="none" stroke="#63b8ff" d="M661.61,-109.97C660.88,-96.12 657.29,-68.89 640.75,-55 604.42,-24.47 471.14,-14.88 394.33,-11.87"/>
<polygon fill="#63b8ff" stroke="#63b8ff" points="394,-8.36 383.88,-11.49 393.74,-15.35 394,-8.36"/>
</a>
</g>
</g>
<!-- Node32 -->
<g id="Node000032" class="node">
<title>Node32</title>
<g id="a_Node000032"><a xlink:href="audioproperties_8h.html" target="_top" xlink:title=" ">
<polygon fill="white" stroke="#666666" points="275.75,-129 173.75,-129 173.75,-110 275.75,-110 275.75,-129"/>
<text text-anchor="middle" x="224.75" y="-117" font-family="Helvetica,sans-Serif" font-size="10.00">audioproperties.h</text>
</a>
</g>
</g>
<!-- Node31&#45;&gt;Node32 -->
<g id="edge63_Node000031_Node000032" class="edge">
<title>Node31&#45;&gt;Node32</title>
<g id="a_edge63_Node000031_Node000032"><a xlink:title=" ">
<path fill="none" stroke="#63b8ff" d="M244.62,-274.74C241.33,-249.2 231.7,-174.43 227.17,-139.23"/>
<polygon fill="#63b8ff" stroke="#63b8ff" points="230.64,-138.78 225.89,-129.31 223.69,-139.67 230.64,-138.78"/>
</a>
</g>
</g>
<!-- Node32&#45;&gt;Node5 -->
<g id="edge64_Node000032_Node000005" class="edge">
<title>Node32&#45;&gt;Node5</title>
<g id="a_edge64_Node000032_Node000005"><a xlink:title=" ">
<path fill="none" stroke="#63b8ff" d="M275.98,-110.2C404.37,-89.42 737.75,-35.44 852.37,-16.88"/>
<polygon fill="#63b8ff" stroke="#63b8ff" points="853.14,-20.3 862.45,-15.24 852.02,-13.39 853.14,-20.3"/>
</a>
</g>
</g>
<!-- Node32&#45;&gt;Node8 -->
<g id="edge66_Node000032_Node000008" class="edge">
<title>Node32&#45;&gt;Node8</title>
<g id="a_edge66_Node000032_Node000008"><a xlink:title=" ">
<path fill="none" stroke="#63b8ff" d="M226,-109.63C228.29,-96.28 234.34,-70.89 248.75,-55 262.19,-40.18 281.66,-29.71 299.06,-22.66"/>
<polygon fill="#63b8ff" stroke="#63b8ff" points="300.35,-25.91 308.46,-19.09 297.87,-19.37 300.35,-25.91"/>
</a>
</g>
</g>
<!-- Node32&#45;&gt;Node10 -->
<g id="edge65_Node000032_Node000010" class="edge">
<title>Node32&#45;&gt;Node10</title>
<g id="a_edge65_Node000032_Node000010"><a xlink:title=" ">
<path fill="none" stroke="#63b8ff" d="M197.12,-109.98C167.9,-100.98 121.66,-86.73 89.41,-76.8"/>
<polygon fill="#63b8ff" stroke="#63b8ff" points="90.06,-73.33 79.47,-73.73 87.99,-80.02 90.06,-73.33"/>
</a>
</g>
</g>
</g>
</svg>
