<?xml version="1.0" encoding="UTF-8" standalone="no"?>
<!DOCTYPE svg PUBLIC "-//W3C//DTD SVG 1.1//EN"
 "http://www.w3.org/Graphics/SVG/1.1/DTD/svg11.dtd">
<!-- Generated by graphviz version 2.46.1 (20210213.1702)
 -->
<!-- Title: synchronizedlyricsframe.h Pages: 1 -->
<svg width="451pt" height="308pt"
 viewBox="0.00 0.00 450.50 308.00" xmlns="http://www.w3.org/2000/svg" xmlns:xlink="http://www.w3.org/1999/xlink">
<g id="graph0" class="graph" transform="scale(1 1) rotate(0) translate(4 304)">
<title>synchronizedlyricsframe.h</title>
<polygon fill="white" stroke="transparent" points="-4,4 -4,-304 446.5,-304 446.5,4 -4,4"/>
<!-- Node1 -->
<g id="node1" class="node">
<title>Node1</title>
<g id="a_node1"><a xlink:title=" ">
<polygon fill="#bfbfbf" stroke="black" points="163.5,-280.5 163.5,-299.5 294.5,-299.5 294.5,-280.5 163.5,-280.5"/>
<text text-anchor="middle" x="229" y="-287.5" font-family="Helvetica,sans-Serif" font-size="10.00">synchronizedlyricsframe.h</text>
</a>
</g>
</g>
<!-- Node2 -->
<g id="node2" class="node">
<title>Node2</title>
<g id="a_node2"><a xlink:href="id3v2frame_8h.html" target="_top" xlink:title=" ">
<polygon fill="white" stroke="black" points="135.5,-224.5 135.5,-243.5 208.5,-243.5 208.5,-224.5 135.5,-224.5"/>
<text text-anchor="middle" x="172" y="-231.5" font-family="Helvetica,sans-Serif" font-size="10.00">id3v2frame.h</text>
</a>
</g>
</g>
<!-- Node1&#45;&gt;Node2 -->
<g id="edge1" class="edge">
<title>Node1&#45;&gt;Node2</title>
<path fill="none" stroke="midnightblue" d="M219.84,-280.32C211.5,-272.42 198.97,-260.55 188.82,-250.94"/>
<polygon fill="midnightblue" stroke="midnightblue" points="190.99,-248.17 181.32,-243.83 186.18,-253.25 190.99,-248.17"/>
</g>
<!-- Node11 -->
<g id="node11" class="node">
<title>Node11</title>
<g id="a_node11"><a xlink:href="tlist_8h.html" target="_top" xlink:title=" ">
<polygon fill="white" stroke="black" points="318.5,-224.5 318.5,-243.5 359.5,-243.5 359.5,-224.5 318.5,-224.5"/>
<text text-anchor="middle" x="339" y="-231.5" font-family="Helvetica,sans-Serif" font-size="10.00">tlist.h</text>
</a>
</g>
</g>
<!-- Node1&#45;&gt;Node11 -->
<g id="edge16" class="edge">
<title>Node1&#45;&gt;Node11</title>
<path fill="none" stroke="midnightblue" d="M246.67,-280.32C264.39,-271.62 291.9,-258.12 312.29,-248.11"/>
<polygon fill="midnightblue" stroke="midnightblue" points="313.94,-251.2 321.37,-243.65 310.85,-244.92 313.94,-251.2"/>
</g>
<!-- Node3 -->
<g id="node3" class="node">
<title>Node3</title>
<g id="a_node3"><a xlink:href="tstring_8h.html" target="_top" xlink:title=" ">
<polygon fill="white" stroke="black" points="175,-168.5 175,-187.5 227,-187.5 227,-168.5 175,-168.5"/>
<text text-anchor="middle" x="201" y="-175.5" font-family="Helvetica,sans-Serif" font-size="10.00">tstring.h</text>
</a>
</g>
</g>
<!-- Node2&#45;&gt;Node3 -->
<g id="edge2" class="edge">
<title>Node2&#45;&gt;Node3</title>
<path fill="none" stroke="midnightblue" d="M176.79,-224.08C180.76,-216.69 186.53,-205.95 191.43,-196.81"/>
<polygon fill="midnightblue" stroke="midnightblue" points="194.65,-198.22 196.3,-187.75 188.49,-194.91 194.65,-198.22"/>
</g>
<!-- Node4 -->
<g id="node4" class="node">
<title>Node4</title>
<g id="a_node4"><a xlink:href="taglib__export_8h.html" target="_top" xlink:title=" ">
<polygon fill="white" stroke="black" points="0,-56.5 0,-75.5 80,-75.5 80,-56.5 0,-56.5"/>
<text text-anchor="middle" x="40" y="-63.5" font-family="Helvetica,sans-Serif" font-size="10.00">taglib_export.h</text>
</a>
</g>
</g>
<!-- Node2&#45;&gt;Node4 -->
<g id="edge15" class="edge">
<title>Node2&#45;&gt;Node4</title>
<path fill="none" stroke="midnightblue" d="M160.73,-224.37C140.2,-208.17 96.3,-171.28 69,-132 58.87,-117.43 50.98,-98.75 46,-85.16"/>
<polygon fill="midnightblue" stroke="midnightblue" points="49.24,-83.82 42.65,-75.52 42.63,-86.12 49.24,-83.82"/>
</g>
<!-- Node8 -->
<g id="node8" class="node">
<title>Node8</title>
<g id="a_node8"><a xlink:href="tbytevector_8h.html" target="_top" xlink:title=" ">
<polygon fill="white" stroke="black" points="102.5,-112.5 102.5,-131.5 175.5,-131.5 175.5,-112.5 102.5,-112.5"/>
<text text-anchor="middle" x="139" y="-119.5" font-family="Helvetica,sans-Serif" font-size="10.00">tbytevector.h</text>
</a>
</g>
</g>
<!-- Node2&#45;&gt;Node8 -->
<g id="edge14" class="edge">
<title>Node2&#45;&gt;Node8</title>
<path fill="none" stroke="midnightblue" d="M169.41,-224.37C164.06,-206.54 151.69,-165.3 144.48,-141.27"/>
<polygon fill="midnightblue" stroke="midnightblue" points="147.8,-140.16 141.58,-131.59 141.1,-142.18 147.8,-140.16"/>
</g>
<!-- Node3&#45;&gt;Node4 -->
<g id="edge3" class="edge">
<title>Node3&#45;&gt;Node4</title>
<path fill="none" stroke="midnightblue" d="M174.72,-170.03C151.62,-163.02 117.91,-150.58 93,-132 75.38,-118.86 60.11,-98.62 50.55,-84.22"/>
<polygon fill="midnightblue" stroke="midnightblue" points="53.46,-82.27 45.12,-75.73 47.56,-86.04 53.46,-82.27"/>
</g>
<!-- Node5 -->
<g id="node5" class="node">
<title>Node5</title>
<g id="a_node5"><a xlink:href="taglib_8h.html" target="_top" xlink:title=" ">
<polygon fill="white" stroke="black" points="270,-56.5 270,-75.5 318,-75.5 318,-56.5 270,-56.5"/>
<text text-anchor="middle" x="294" y="-63.5" font-family="Helvetica,sans-Serif" font-size="10.00">taglib.h</text>
</a>
</g>
</g>
<!-- Node3&#45;&gt;Node5 -->
<g id="edge4" class="edge">
<title>Node3&#45;&gt;Node5</title>
<path fill="none" stroke="midnightblue" d="M213.9,-168.46C225.81,-160.14 243.5,-146.63 256,-132 268.31,-117.59 278.87,-98.64 285.71,-84.93"/>
<polygon fill="midnightblue" stroke="midnightblue" points="289.01,-86.15 290.18,-75.62 282.7,-83.12 289.01,-86.15"/>
</g>
<!-- Node7 -->
<g id="node7" class="node">
<title>Node7</title>
<g id="a_node7"><a xlink:title=" ">
<polygon fill="white" stroke="#bfbfbf" points="221.5,-0.5 221.5,-19.5 262.5,-19.5 262.5,-0.5 221.5,-0.5"/>
<text text-anchor="middle" x="242" y="-7.5" font-family="Helvetica,sans-Serif" font-size="10.00">string</text>
</a>
</g>
</g>
<!-- Node3&#45;&gt;Node7 -->
<g id="edge12" class="edge">
<title>Node3&#45;&gt;Node7</title>
<path fill="none" stroke="midnightblue" d="M203.2,-168.08C209.66,-141.95 228.61,-65.21 237.41,-29.58"/>
<polygon fill="midnightblue" stroke="midnightblue" points="240.88,-30.12 239.88,-19.57 234.09,-28.44 240.88,-30.12"/>
</g>
<!-- Node3&#45;&gt;Node8 -->
<g id="edge7" class="edge">
<title>Node3&#45;&gt;Node8</title>
<path fill="none" stroke="midnightblue" d="M191.04,-168.32C181.87,-160.34 168.06,-148.31 156.97,-138.65"/>
<polygon fill="midnightblue" stroke="midnightblue" points="158.98,-135.76 149.14,-131.83 154.38,-141.04 158.98,-135.76"/>
</g>
<!-- Node10 -->
<g id="node10" class="node">
<title>Node10</title>
<g id="a_node10"><a xlink:title=" ">
<polygon fill="white" stroke="#bfbfbf" points="160,-56.5 160,-75.5 214,-75.5 214,-56.5 160,-56.5"/>
<text text-anchor="middle" x="187" y="-63.5" font-family="Helvetica,sans-Serif" font-size="10.00">iostream</text>
</a>
</g>
</g>
<!-- Node3&#45;&gt;Node10 -->
<g id="edge13" class="edge">
<title>Node3&#45;&gt;Node10</title>
<path fill="none" stroke="midnightblue" d="M199.9,-168.37C197.64,-150.62 192.43,-109.67 189.37,-85.6"/>
<polygon fill="midnightblue" stroke="midnightblue" points="192.83,-85.07 188.09,-75.59 185.88,-85.95 192.83,-85.07"/>
</g>
<!-- Node6 -->
<g id="node6" class="node">
<title>Node6</title>
<g id="a_node6"><a xlink:title=" ">
<polygon fill="white" stroke="#bfbfbf" points="281,-0.5 281,-19.5 361,-19.5 361,-0.5 281,-0.5"/>
<text text-anchor="middle" x="321" y="-7.5" font-family="Helvetica,sans-Serif" font-size="10.00">taglib_config.h</text>
</a>
</g>
</g>
<!-- Node5&#45;&gt;Node6 -->
<g id="edge5" class="edge">
<title>Node5&#45;&gt;Node6</title>
<path fill="none" stroke="midnightblue" d="M298.46,-56.08C302.15,-48.69 307.52,-37.95 312.09,-28.81"/>
<polygon fill="midnightblue" stroke="midnightblue" points="315.28,-30.26 316.62,-19.75 309.02,-27.13 315.28,-30.26"/>
</g>
<!-- Node5&#45;&gt;Node7 -->
<g id="edge6" class="edge">
<title>Node5&#45;&gt;Node7</title>
<path fill="none" stroke="midnightblue" d="M285.41,-56.08C277.84,-48.22 266.62,-36.57 257.49,-27.08"/>
<polygon fill="midnightblue" stroke="midnightblue" points="259.88,-24.53 250.43,-19.75 254.84,-29.38 259.88,-24.53"/>
</g>
<!-- Node8&#45;&gt;Node4 -->
<g id="edge9" class="edge">
<title>Node8&#45;&gt;Node4</title>
<path fill="none" stroke="midnightblue" d="M123.09,-112.32C107.36,-103.74 83.06,-90.49 64.79,-80.52"/>
<polygon fill="midnightblue" stroke="midnightblue" points="66.32,-77.37 55.87,-75.65 62.97,-83.52 66.32,-77.37"/>
</g>
<!-- Node8&#45;&gt;Node5 -->
<g id="edge8" class="edge">
<title>Node8&#45;&gt;Node5</title>
<path fill="none" stroke="midnightblue" d="M163.56,-112.44C189.6,-103.37 230.91,-88.98 260.05,-78.83"/>
<polygon fill="midnightblue" stroke="midnightblue" points="261.52,-82.02 269.81,-75.43 259.22,-75.41 261.52,-82.02"/>
</g>
<!-- Node9 -->
<g id="node9" class="node">
<title>Node9</title>
<g id="a_node9"><a xlink:title=" ">
<polygon fill="white" stroke="#bfbfbf" points="98,-56.5 98,-75.5 142,-75.5 142,-56.5 98,-56.5"/>
<text text-anchor="middle" x="120" y="-63.5" font-family="Helvetica,sans-Serif" font-size="10.00">vector</text>
</a>
</g>
</g>
<!-- Node8&#45;&gt;Node9 -->
<g id="edge10" class="edge">
<title>Node8&#45;&gt;Node9</title>
<path fill="none" stroke="midnightblue" d="M135.86,-112.08C133.32,-104.85 129.64,-94.41 126.47,-85.4"/>
<polygon fill="midnightblue" stroke="midnightblue" points="129.7,-84.02 123.08,-75.75 123.1,-86.35 129.7,-84.02"/>
</g>
<!-- Node8&#45;&gt;Node10 -->
<g id="edge11" class="edge">
<title>Node8&#45;&gt;Node10</title>
<path fill="none" stroke="midnightblue" d="M146.93,-112.08C153.85,-104.3 164.07,-92.8 172.45,-83.37"/>
<polygon fill="midnightblue" stroke="midnightblue" points="175.19,-85.55 179.22,-75.75 169.96,-80.9 175.19,-85.55"/>
</g>
<!-- Node11&#45;&gt;Node5 -->
<g id="edge17" class="edge">
<title>Node11&#45;&gt;Node5</title>
<path fill="none" stroke="midnightblue" d="M336.58,-224.08C329.5,-197.95 308.7,-121.21 299.04,-85.58"/>
<polygon fill="midnightblue" stroke="midnightblue" points="302.32,-84.3 296.32,-75.57 295.56,-86.14 302.32,-84.3"/>
</g>
<!-- Node12 -->
<g id="node12" class="node">
<title>Node12</title>
<g id="a_node12"><a xlink:title=" ">
<polygon fill="white" stroke="#bfbfbf" points="346.5,-168.5 346.5,-187.5 375.5,-187.5 375.5,-168.5 346.5,-168.5"/>
<text text-anchor="middle" x="361" y="-175.5" font-family="Helvetica,sans-Serif" font-size="10.00">list</text>
</a>
</g>
</g>
<!-- Node11&#45;&gt;Node12 -->
<g id="edge18" class="edge">
<title>Node11&#45;&gt;Node12</title>
<path fill="none" stroke="midnightblue" d="M342.63,-224.08C345.61,-216.77 349.93,-206.18 353.62,-197.1"/>
<polygon fill="midnightblue" stroke="midnightblue" points="356.9,-198.33 357.43,-187.75 350.42,-195.69 356.9,-198.33"/>
</g>
<!-- Node13 -->
<g id="node13" class="node">
<title>Node13</title>
<g id="a_node13"><a xlink:title=" ">
<polygon fill="white" stroke="#bfbfbf" points="393.5,-168.5 393.5,-187.5 442.5,-187.5 442.5,-168.5 393.5,-168.5"/>
<text text-anchor="middle" x="418" y="-175.5" font-family="Helvetica,sans-Serif" font-size="10.00">tlist.tcc</text>
</a>
</g>
</g>
<!-- Node11&#45;&gt;Node13 -->
<g id="edge19" class="edge">
<title>Node11&#45;&gt;Node13</title>
<path fill="none" stroke="midnightblue" d="M351.69,-224.32C363.9,-215.98 382.58,-203.21 397,-193.35"/>
<polygon fill="midnightblue" stroke="midnightblue" points="399.06,-196.19 405.34,-187.65 395.11,-190.41 399.06,-196.19"/>
</g>
</g>
</svg>
