<?xml version="1.0" encoding="UTF-8" standalone="no"?>
<!DOCTYPE svg PUBLIC "-//W3C//DTD SVG 1.1//EN"
 "http://www.w3.org/Graphics/SVG/1.1/DTD/svg11.dtd">
<!-- Generated by graphviz version 2.43.0 (0)
 -->
<!-- Title: tableofcontentsframe.h Pages: 1 -->
<svg width="779pt" height="420pt"
 viewBox="0.00 0.00 778.50 420.00" xmlns="http://www.w3.org/2000/svg" xmlns:xlink="http://www.w3.org/1999/xlink">
<g id="graph0" class="graph" transform="scale(1 1) rotate(0) translate(4 416)">
<title>tableofcontentsframe.h</title>
<polygon fill="white" stroke="transparent" points="-4,4 -4,-416 774.5,-416 774.5,4 -4,4"/>
<!-- Node1 -->
<g id="node1" class="node">
<title>Node1</title>
<g id="a_node1"><a xlink:title=" ">
<polygon fill="#bfbfbf" stroke="black" points="430.5,-392.5 430.5,-411.5 561.5,-411.5 561.5,-392.5 430.5,-392.5"/>
<text text-anchor="middle" x="496" y="-399.5" font-family="Helvetica,sans-Serif" font-size="10.00">tableofcontentsframe.h</text>
</a>
</g>
</g>
<!-- Node2 -->
<g id="node2" class="node">
<title>Node2</title>
<g id="a_node2"><a xlink:href="id3v2tag_8h.html" target="_top" xlink:title=" ">
<polygon fill="white" stroke="black" points="462,-336.5 462,-355.5 530,-355.5 530,-336.5 462,-336.5"/>
<text text-anchor="middle" x="496" y="-343.5" font-family="Helvetica,sans-Serif" font-size="10.00">id3v2tag.h</text>
</a>
</g>
</g>
<!-- Node1&#45;&gt;Node2 -->
<g id="edge1" class="edge">
<title>Node1&#45;&gt;Node2</title>
<path fill="none" stroke="midnightblue" d="M496,-392.08C496,-385.01 496,-374.86 496,-365.99"/>
<polygon fill="midnightblue" stroke="midnightblue" points="499.5,-365.75 496,-355.75 492.5,-365.75 499.5,-365.75"/>
</g>
<!-- Node20 -->
<g id="node20" class="node">
<title>Node20</title>
<g id="a_node20"><a xlink:href="id3v2frame_8h.html" target="_top" xlink:title=" ">
<polygon fill="white" stroke="black" points="268,-224.5 268,-243.5 350,-243.5 350,-224.5 268,-224.5"/>
<text text-anchor="middle" x="309" y="-231.5" font-family="Helvetica,sans-Serif" font-size="10.00">id3v2frame.h</text>
</a>
</g>
</g>
<!-- Node1&#45;&gt;Node20 -->
<g id="edge39" class="edge">
<title>Node1&#45;&gt;Node20</title>
<path fill="none" stroke="midnightblue" d="M487.68,-392.26C464.43,-367.92 398.91,-299.81 375,-280 361.42,-268.75 345.05,-257.58 332.01,-249.18"/>
<polygon fill="midnightblue" stroke="midnightblue" points="333.51,-245.98 323.19,-243.59 329.77,-251.9 333.51,-245.98"/>
</g>
<!-- Node22 -->
<g id="node22" class="node">
<title>Node22</title>
<g id="a_node22"><a xlink:href="tbytevectorlist_8h.html" target="_top" xlink:title=" ">
<polygon fill="white" stroke="black" points="654.5,-168.5 654.5,-187.5 751.5,-187.5 751.5,-168.5 654.5,-168.5"/>
<text text-anchor="middle" x="703" y="-175.5" font-family="Helvetica,sans-Serif" font-size="10.00">tbytevectorlist.h</text>
</a>
</g>
</g>
<!-- Node1&#45;&gt;Node22 -->
<g id="edge40" class="edge">
<title>Node1&#45;&gt;Node22</title>
<path fill="none" stroke="midnightblue" d="M504.28,-392.41C512.97,-383.38 527,-368.75 539,-356 594.37,-297.16 659.39,-226.51 688.1,-195.25"/>
<polygon fill="midnightblue" stroke="midnightblue" points="691.01,-197.25 695.19,-187.52 685.85,-192.52 691.01,-197.25"/>
</g>
<!-- Node3 -->
<g id="node3" class="node">
<title>Node3</title>
<g id="a_node3"><a xlink:href="tag_8h.html" target="_top" xlink:title=" ">
<polygon fill="white" stroke="black" points="208.5,-224.5 208.5,-243.5 249.5,-243.5 249.5,-224.5 208.5,-224.5"/>
<text text-anchor="middle" x="229" y="-231.5" font-family="Helvetica,sans-Serif" font-size="10.00">tag.h</text>
</a>
</g>
</g>
<!-- Node2&#45;&gt;Node3 -->
<g id="edge2" class="edge">
<title>Node2&#45;&gt;Node3</title>
<path fill="none" stroke="midnightblue" d="M482.28,-336.48C460.28,-323.1 415.48,-296.92 375,-280 369.54,-277.72 300.8,-256.77 259.62,-244.27"/>
<polygon fill="midnightblue" stroke="midnightblue" points="260.38,-240.85 249.8,-241.29 258.35,-247.55 260.38,-240.85"/>
</g>
<!-- Node4 -->
<g id="node4" class="node">
<title>Node4</title>
<g id="a_node4"><a xlink:href="taglib__export_8h.html" target="_top" xlink:title=" ">
<polygon fill="white" stroke="black" points="160,-56.5 160,-75.5 250,-75.5 250,-56.5 160,-56.5"/>
<text text-anchor="middle" x="205" y="-63.5" font-family="Helvetica,sans-Serif" font-size="10.00">taglib_export.h</text>
</a>
</g>
</g>
<!-- Node2&#45;&gt;Node4 -->
<g id="edge26" class="edge">
<title>Node2&#45;&gt;Node4</title>
<path fill="none" stroke="midnightblue" d="M461.91,-344.74C349.85,-342.96 0,-329.82 0,-235 0,-235 0,-235 0,-177 0,-108.94 88.81,-82.82 149.53,-72.91"/>
<polygon fill="midnightblue" stroke="midnightblue" points="150.4,-76.32 159.76,-71.35 149.34,-69.4 150.4,-76.32"/>
</g>
<!-- Node5 -->
<g id="node5" class="node">
<title>Node5</title>
<g id="a_node5"><a xlink:href="tstring_8h.html" target="_top" xlink:title=" ">
<polygon fill="white" stroke="black" points="271.5,-168.5 271.5,-187.5 328.5,-187.5 328.5,-168.5 271.5,-168.5"/>
<text text-anchor="middle" x="300" y="-175.5" font-family="Helvetica,sans-Serif" font-size="10.00">tstring.h</text>
</a>
</g>
</g>
<!-- Node2&#45;&gt;Node5 -->
<g id="edge17" class="edge">
<title>Node2&#45;&gt;Node5</title>
<path fill="none" stroke="midnightblue" d="M505.56,-336.45C514.09,-328.12 525.99,-314.6 531,-300 541.96,-268.05 552.48,-250.07 531,-224 507.1,-195 398.27,-184.44 338.91,-180.79"/>
<polygon fill="midnightblue" stroke="midnightblue" points="338.97,-177.29 328.78,-180.21 338.56,-184.28 338.97,-177.29"/>
</g>
<!-- Node9 -->
<g id="node9" class="node">
<title>Node9</title>
<g id="a_node9"><a xlink:href="tbytevector_8h.html" target="_top" xlink:title=" ">
<polygon fill="white" stroke="black" points="404.5,-112.5 404.5,-131.5 485.5,-131.5 485.5,-112.5 404.5,-112.5"/>
<text text-anchor="middle" x="445" y="-119.5" font-family="Helvetica,sans-Serif" font-size="10.00">tbytevector.h</text>
</a>
</g>
</g>
<!-- Node2&#45;&gt;Node9 -->
<g id="edge16" class="edge">
<title>Node2&#45;&gt;Node9</title>
<path fill="none" stroke="midnightblue" d="M511.88,-336.24C524.18,-328.49 540.37,-315.94 548,-300 562.59,-269.52 563.23,-255.09 550,-224 533.5,-185.24 494.03,-154.16 468.46,-137.18"/>
<polygon fill="midnightblue" stroke="midnightblue" points="470.04,-134.04 459.73,-131.57 466.25,-139.92 470.04,-134.04"/>
</g>
<!-- Node12 -->
<g id="node12" class="node">
<title>Node12</title>
<g id="a_node12"><a xlink:href="tlist_8h.html" target="_top" xlink:title=" ">
<polygon fill="white" stroke="black" points="692,-112.5 692,-131.5 736,-131.5 736,-112.5 692,-112.5"/>
<text text-anchor="middle" x="714" y="-119.5" font-family="Helvetica,sans-Serif" font-size="10.00">tlist.h</text>
</a>
</g>
</g>
<!-- Node2&#45;&gt;Node12 -->
<g id="edge18" class="edge">
<title>Node2&#45;&gt;Node12</title>
<path fill="none" stroke="midnightblue" d="M530.2,-336.54C589.73,-319.77 710.83,-276.04 761,-188 771.39,-169.76 753.25,-150.47 736.58,-137.68"/>
<polygon fill="midnightblue" stroke="midnightblue" points="738.32,-134.62 728.15,-131.63 734.23,-140.31 738.32,-134.62"/>
</g>
<!-- Node15 -->
<g id="node15" class="node">
<title>Node15</title>
<g id="a_node15"><a xlink:href="tmap_8h.html" target="_top" xlink:title=" ">
<polygon fill="white" stroke="black" points="470.5,-280.5 470.5,-299.5 521.5,-299.5 521.5,-280.5 470.5,-280.5"/>
<text text-anchor="middle" x="496" y="-287.5" font-family="Helvetica,sans-Serif" font-size="10.00">tmap.h</text>
</a>
</g>
</g>
<!-- Node2&#45;&gt;Node15 -->
<g id="edge22" class="edge">
<title>Node2&#45;&gt;Node15</title>
<path fill="none" stroke="midnightblue" d="M496,-336.08C496,-329.01 496,-318.86 496,-309.99"/>
<polygon fill="midnightblue" stroke="midnightblue" points="499.5,-309.75 496,-299.75 492.5,-309.75 499.5,-309.75"/>
</g>
<!-- Node18 -->
<g id="node18" class="node">
<title>Node18</title>
<g id="a_node18"><a xlink:href="id3v2_8h.html" target="_top" xlink:title=" ">
<polygon fill="white" stroke="black" points="66.5,-168.5 66.5,-187.5 119.5,-187.5 119.5,-168.5 66.5,-168.5"/>
<text text-anchor="middle" x="93" y="-175.5" font-family="Helvetica,sans-Serif" font-size="10.00">id3v2.h</text>
</a>
</g>
</g>
<!-- Node2&#45;&gt;Node18 -->
<g id="edge27" class="edge">
<title>Node2&#45;&gt;Node18</title>
<path fill="none" stroke="midnightblue" d="M461.97,-341.94C373.11,-333.14 138.05,-304.45 95,-244 85.49,-230.65 86.13,-211.53 88.46,-197.49"/>
<polygon fill="midnightblue" stroke="midnightblue" points="91.92,-198.02 90.53,-187.52 85.07,-196.6 91.92,-198.02"/>
</g>
<!-- Node19 -->
<g id="node19" class="node">
<title>Node19</title>
<g id="a_node19"><a xlink:href="id3v2framefactory_8h.html" target="_top" xlink:title=" ">
<polygon fill="white" stroke="black" points="251.5,-280.5 251.5,-299.5 366.5,-299.5 366.5,-280.5 251.5,-280.5"/>
<text text-anchor="middle" x="309" y="-287.5" font-family="Helvetica,sans-Serif" font-size="10.00">id3v2framefactory.h</text>
</a>
</g>
</g>
<!-- Node2&#45;&gt;Node19 -->
<g id="edge28" class="edge">
<title>Node2&#45;&gt;Node19</title>
<path fill="none" stroke="midnightblue" d="M466.37,-336.44C434.5,-327.24 383.67,-312.56 348.44,-302.39"/>
<polygon fill="midnightblue" stroke="midnightblue" points="349.07,-298.93 338.49,-299.52 347.13,-305.65 349.07,-298.93"/>
</g>
<!-- Node3&#45;&gt;Node4 -->
<g id="edge3" class="edge">
<title>Node3&#45;&gt;Node4</title>
<path fill="none" stroke="midnightblue" d="M224.24,-224.35C219.65,-215.51 212.97,-201.24 210,-188 202.06,-152.56 202.56,-109.86 203.72,-85.83"/>
<polygon fill="midnightblue" stroke="midnightblue" points="207.23,-85.83 204.31,-75.65 200.24,-85.43 207.23,-85.83"/>
</g>
<!-- Node3&#45;&gt;Node5 -->
<g id="edge4" class="edge">
<title>Node3&#45;&gt;Node5</title>
<path fill="none" stroke="midnightblue" d="M240.41,-224.32C251.11,-216.18 267.34,-203.84 280.16,-194.09"/>
<polygon fill="midnightblue" stroke="midnightblue" points="282.54,-196.67 288.39,-187.83 278.31,-191.1 282.54,-196.67"/>
</g>
<!-- Node5&#45;&gt;Node4 -->
<g id="edge5" class="edge">
<title>Node5&#45;&gt;Node4</title>
<path fill="none" stroke="midnightblue" d="M292.55,-168.37C276.73,-150.05 239.59,-107.05 219.13,-83.36"/>
<polygon fill="midnightblue" stroke="midnightblue" points="221.6,-80.87 212.42,-75.59 216.31,-85.45 221.6,-80.87"/>
</g>
<!-- Node6 -->
<g id="node6" class="node">
<title>Node6</title>
<g id="a_node6"><a xlink:href="taglib_8h.html" target="_top" xlink:title=" ">
<polygon fill="white" stroke="black" points="482.5,-56.5 482.5,-75.5 535.5,-75.5 535.5,-56.5 482.5,-56.5"/>
<text text-anchor="middle" x="509" y="-63.5" font-family="Helvetica,sans-Serif" font-size="10.00">taglib.h</text>
</a>
</g>
</g>
<!-- Node5&#45;&gt;Node6 -->
<g id="edge6" class="edge">
<title>Node5&#45;&gt;Node6</title>
<path fill="none" stroke="midnightblue" d="M310.89,-168.34C328.03,-154.99 362.7,-129.15 395,-112 420.05,-98.7 449.91,-87.06 472.79,-78.94"/>
<polygon fill="midnightblue" stroke="midnightblue" points="474.16,-82.17 482.45,-75.58 471.86,-75.56 474.16,-82.17"/>
</g>
<!-- Node8 -->
<g id="node8" class="node">
<title>Node8</title>
<g id="a_node8"><a xlink:title=" ">
<polygon fill="white" stroke="#bfbfbf" points="341,-0.5 341,-19.5 385,-19.5 385,-0.5 341,-0.5"/>
<text text-anchor="middle" x="363" y="-7.5" font-family="Helvetica,sans-Serif" font-size="10.00">string</text>
</a>
</g>
</g>
<!-- Node5&#45;&gt;Node8 -->
<g id="edge14" class="edge">
<title>Node5&#45;&gt;Node8</title>
<path fill="none" stroke="midnightblue" d="M300.46,-168.34C301.85,-147.83 307.13,-95.08 326,-56 331.15,-45.34 339.32,-35.03 346.67,-26.97"/>
<polygon fill="midnightblue" stroke="midnightblue" points="349.22,-29.37 353.61,-19.73 344.17,-24.53 349.22,-29.37"/>
</g>
<!-- Node5&#45;&gt;Node9 -->
<g id="edge9" class="edge">
<title>Node5&#45;&gt;Node9</title>
<path fill="none" stroke="midnightblue" d="M322.98,-168.44C347.16,-159.44 385.42,-145.19 412.65,-135.05"/>
<polygon fill="midnightblue" stroke="midnightblue" points="413.98,-138.29 422.13,-131.52 411.54,-131.73 413.98,-138.29"/>
</g>
<!-- Node11 -->
<g id="node11" class="node">
<title>Node11</title>
<g id="a_node11"><a xlink:title=" ">
<polygon fill="white" stroke="#bfbfbf" points="335,-56.5 335,-75.5 395,-75.5 395,-56.5 335,-56.5"/>
<text text-anchor="middle" x="365" y="-63.5" font-family="Helvetica,sans-Serif" font-size="10.00">iostream</text>
</a>
</g>
</g>
<!-- Node5&#45;&gt;Node11 -->
<g id="edge15" class="edge">
<title>Node5&#45;&gt;Node11</title>
<path fill="none" stroke="midnightblue" d="M305.1,-168.37C315.78,-150.3 340.67,-108.18 354.77,-84.31"/>
<polygon fill="midnightblue" stroke="midnightblue" points="357.85,-85.98 359.92,-75.59 351.82,-82.42 357.85,-85.98"/>
</g>
<!-- Node7 -->
<g id="node7" class="node">
<title>Node7</title>
<g id="a_node7"><a xlink:title=" ">
<polygon fill="white" stroke="#bfbfbf" points="465,-0.5 465,-19.5 553,-19.5 553,-0.5 465,-0.5"/>
<text text-anchor="middle" x="509" y="-7.5" font-family="Helvetica,sans-Serif" font-size="10.00">taglib_config.h</text>
</a>
</g>
</g>
<!-- Node6&#45;&gt;Node7 -->
<g id="edge7" class="edge">
<title>Node6&#45;&gt;Node7</title>
<path fill="none" stroke="midnightblue" d="M509,-56.08C509,-49.01 509,-38.86 509,-29.99"/>
<polygon fill="midnightblue" stroke="midnightblue" points="512.5,-29.75 509,-19.75 505.5,-29.75 512.5,-29.75"/>
</g>
<!-- Node6&#45;&gt;Node8 -->
<g id="edge8" class="edge">
<title>Node6&#45;&gt;Node8</title>
<path fill="none" stroke="midnightblue" d="M485.87,-56.44C461.23,-47.33 422.08,-32.85 394.61,-22.69"/>
<polygon fill="midnightblue" stroke="midnightblue" points="395.66,-19.35 385.07,-19.16 393.24,-25.91 395.66,-19.35"/>
</g>
<!-- Node9&#45;&gt;Node4 -->
<g id="edge11" class="edge">
<title>Node9&#45;&gt;Node4</title>
<path fill="none" stroke="midnightblue" d="M406.97,-112.44C365.19,-103.04 298.02,-87.93 252.73,-77.74"/>
<polygon fill="midnightblue" stroke="midnightblue" points="253.38,-74.3 242.85,-75.52 251.84,-81.13 253.38,-74.3"/>
</g>
<!-- Node9&#45;&gt;Node6 -->
<g id="edge10" class="edge">
<title>Node9&#45;&gt;Node6</title>
<path fill="none" stroke="midnightblue" d="M455.28,-112.32C464.84,-104.26 479.28,-92.08 490.78,-82.37"/>
<polygon fill="midnightblue" stroke="midnightblue" points="493.14,-84.96 498.53,-75.83 488.63,-79.61 493.14,-84.96"/>
</g>
<!-- Node10 -->
<g id="node10" class="node">
<title>Node10</title>
<g id="a_node10"><a xlink:title=" ">
<polygon fill="white" stroke="#bfbfbf" points="417.5,-56.5 417.5,-75.5 464.5,-75.5 464.5,-56.5 417.5,-56.5"/>
<text text-anchor="middle" x="441" y="-63.5" font-family="Helvetica,sans-Serif" font-size="10.00">vector</text>
</a>
</g>
</g>
<!-- Node9&#45;&gt;Node10 -->
<g id="edge12" class="edge">
<title>Node9&#45;&gt;Node10</title>
<path fill="none" stroke="midnightblue" d="M444.34,-112.08C443.82,-105.01 443.06,-94.86 442.41,-85.99"/>
<polygon fill="midnightblue" stroke="midnightblue" points="445.88,-85.47 441.65,-75.75 438.9,-85.98 445.88,-85.47"/>
</g>
<!-- Node9&#45;&gt;Node11 -->
<g id="edge13" class="edge">
<title>Node9&#45;&gt;Node11</title>
<path fill="none" stroke="midnightblue" d="M432.15,-112.32C419.78,-103.98 400.87,-91.21 386.26,-81.35"/>
<polygon fill="midnightblue" stroke="midnightblue" points="388.07,-78.35 377.82,-75.65 384.15,-84.15 388.07,-78.35"/>
</g>
<!-- Node12&#45;&gt;Node6 -->
<g id="edge19" class="edge">
<title>Node12&#45;&gt;Node6</title>
<path fill="none" stroke="midnightblue" d="M691.67,-115.12C656.58,-105.88 588.17,-87.86 545.75,-76.68"/>
<polygon fill="midnightblue" stroke="midnightblue" points="546.39,-73.23 535.82,-74.07 544.6,-80 546.39,-73.23"/>
</g>
<!-- Node13 -->
<g id="node13" class="node">
<title>Node13</title>
<g id="a_node13"><a xlink:title=" ">
<polygon fill="white" stroke="#bfbfbf" points="667,-56.5 667,-75.5 699,-75.5 699,-56.5 667,-56.5"/>
<text text-anchor="middle" x="683" y="-63.5" font-family="Helvetica,sans-Serif" font-size="10.00">list</text>
</a>
</g>
</g>
<!-- Node12&#45;&gt;Node13 -->
<g id="edge20" class="edge">
<title>Node12&#45;&gt;Node13</title>
<path fill="none" stroke="midnightblue" d="M708.88,-112.08C704.59,-104.61 698.34,-93.72 693.06,-84.52"/>
<polygon fill="midnightblue" stroke="midnightblue" points="696.04,-82.68 688.02,-75.75 689.97,-86.17 696.04,-82.68"/>
</g>
<!-- Node14 -->
<g id="node14" class="node">
<title>Node14</title>
<g id="a_node14"><a xlink:title=" ">
<polygon fill="white" stroke="#bfbfbf" points="717.5,-56.5 717.5,-75.5 770.5,-75.5 770.5,-56.5 717.5,-56.5"/>
<text text-anchor="middle" x="744" y="-63.5" font-family="Helvetica,sans-Serif" font-size="10.00">tlist.tcc</text>
</a>
</g>
</g>
<!-- Node12&#45;&gt;Node14 -->
<g id="edge21" class="edge">
<title>Node12&#45;&gt;Node14</title>
<path fill="none" stroke="midnightblue" d="M718.95,-112.08C723.1,-104.61 729.15,-93.72 734.27,-84.52"/>
<polygon fill="midnightblue" stroke="midnightblue" points="737.34,-86.19 739.14,-75.75 731.22,-82.79 737.34,-86.19"/>
</g>
<!-- Node15&#45;&gt;Node6 -->
<g id="edge24" class="edge">
<title>Node15&#45;&gt;Node6</title>
<path fill="none" stroke="midnightblue" d="M505.56,-280.45C514.09,-272.12 525.99,-258.6 531,-244 550.05,-188.48 528.82,-118.13 516.52,-85.35"/>
<polygon fill="midnightblue" stroke="midnightblue" points="519.67,-83.79 512.77,-75.76 513.15,-86.34 519.67,-83.79"/>
</g>
<!-- Node16 -->
<g id="node16" class="node">
<title>Node16</title>
<g id="a_node16"><a xlink:title=" ">
<polygon fill="white" stroke="#bfbfbf" points="484,-224.5 484,-243.5 522,-243.5 522,-224.5 484,-224.5"/>
<text text-anchor="middle" x="503" y="-231.5" font-family="Helvetica,sans-Serif" font-size="10.00">map</text>
</a>
</g>
</g>
<!-- Node15&#45;&gt;Node16 -->
<g id="edge23" class="edge">
<title>Node15&#45;&gt;Node16</title>
<path fill="none" stroke="midnightblue" d="M497.16,-280.08C498.08,-272.93 499.42,-262.64 500.58,-253.69"/>
<polygon fill="midnightblue" stroke="midnightblue" points="504.05,-254.12 501.87,-243.75 497.11,-253.22 504.05,-254.12"/>
</g>
<!-- Node17 -->
<g id="node17" class="node">
<title>Node17</title>
<g id="a_node17"><a xlink:title=" ">
<polygon fill="white" stroke="#bfbfbf" points="406.5,-224.5 406.5,-243.5 465.5,-243.5 465.5,-224.5 406.5,-224.5"/>
<text text-anchor="middle" x="436" y="-231.5" font-family="Helvetica,sans-Serif" font-size="10.00">tmap.tcc</text>
</a>
</g>
</g>
<!-- Node15&#45;&gt;Node17 -->
<g id="edge25" class="edge">
<title>Node15&#45;&gt;Node17</title>
<path fill="none" stroke="midnightblue" d="M486.36,-280.32C477.49,-272.34 464.13,-260.31 453.39,-250.65"/>
<polygon fill="midnightblue" stroke="midnightblue" points="455.59,-247.92 445.82,-243.83 450.91,-253.13 455.59,-247.92"/>
</g>
<!-- Node19&#45;&gt;Node4 -->
<g id="edge29" class="edge">
<title>Node19&#45;&gt;Node4</title>
<path fill="none" stroke="midnightblue" d="M251.32,-288.41C205.46,-285.38 141.5,-275.2 95,-244 70.02,-227.24 65.83,-216.75 57,-188 39.87,-132.23 116.04,-96 165.46,-78.77"/>
<polygon fill="midnightblue" stroke="midnightblue" points="166.59,-82.08 174.96,-75.58 164.36,-75.45 166.59,-82.08"/>
</g>
<!-- Node19&#45;&gt;Node9 -->
<g id="edge30" class="edge">
<title>Node19&#45;&gt;Node9</title>
<path fill="none" stroke="midnightblue" d="M319.97,-280.32C330.55,-271.69 346.72,-257.78 359,-244 389.44,-209.84 419.02,-164.87 434.3,-140.51"/>
<polygon fill="midnightblue" stroke="midnightblue" points="437.46,-142.04 439.76,-131.69 431.51,-138.35 437.46,-142.04"/>
</g>
<!-- Node19&#45;&gt;Node20 -->
<g id="edge31" class="edge">
<title>Node19&#45;&gt;Node20</title>
<path fill="none" stroke="midnightblue" d="M309,-280.08C309,-273.01 309,-262.86 309,-253.99"/>
<polygon fill="midnightblue" stroke="midnightblue" points="312.5,-253.75 309,-243.75 305.5,-253.75 312.5,-253.75"/>
</g>
<!-- Node21 -->
<g id="node21" class="node">
<title>Node21</title>
<g id="a_node21"><a xlink:href="id3v2header_8h.html" target="_top" xlink:title=" ">
<polygon fill="white" stroke="black" points="104,-224.5 104,-243.5 190,-243.5 190,-224.5 104,-224.5"/>
<text text-anchor="middle" x="147" y="-231.5" font-family="Helvetica,sans-Serif" font-size="10.00">id3v2header.h</text>
</a>
</g>
</g>
<!-- Node19&#45;&gt;Node21 -->
<g id="edge35" class="edge">
<title>Node19&#45;&gt;Node21</title>
<path fill="none" stroke="midnightblue" d="M283.33,-280.44C256.08,-271.36 212.82,-256.94 182.35,-246.78"/>
<polygon fill="midnightblue" stroke="midnightblue" points="183.14,-243.36 172.55,-243.52 180.93,-250 183.14,-243.36"/>
</g>
<!-- Node20&#45;&gt;Node4 -->
<g id="edge34" class="edge">
<title>Node20&#45;&gt;Node4</title>
<path fill="none" stroke="midnightblue" d="M297.8,-224.31C287.49,-215.89 272.29,-202.31 262,-188 238.14,-154.83 220.15,-110.09 211.23,-85.36"/>
<polygon fill="midnightblue" stroke="midnightblue" points="214.49,-84.08 207.88,-75.8 207.89,-86.39 214.49,-84.08"/>
</g>
<!-- Node20&#45;&gt;Node5 -->
<g id="edge32" class="edge">
<title>Node20&#45;&gt;Node5</title>
<path fill="none" stroke="midnightblue" d="M307.51,-224.08C306.32,-216.93 304.61,-206.64 303.12,-197.69"/>
<polygon fill="midnightblue" stroke="midnightblue" points="306.55,-197.04 301.46,-187.75 299.65,-198.19 306.55,-197.04"/>
</g>
<!-- Node20&#45;&gt;Node9 -->
<g id="edge33" class="edge">
<title>Node20&#45;&gt;Node9</title>
<path fill="none" stroke="midnightblue" d="M321.6,-224.37C334.31,-215.54 354.38,-201.29 371,-188 391.1,-171.94 413.14,-152.3 427.89,-138.84"/>
<polygon fill="midnightblue" stroke="midnightblue" points="430.66,-141.04 435.66,-131.7 425.93,-135.89 430.66,-141.04"/>
</g>
<!-- Node21&#45;&gt;Node4 -->
<g id="edge37" class="edge">
<title>Node21&#45;&gt;Node4</title>
<path fill="none" stroke="midnightblue" d="M150.12,-224.08C159.29,-197.83 186.29,-120.55 198.67,-85.12"/>
<polygon fill="midnightblue" stroke="midnightblue" points="202.01,-86.16 202.01,-75.57 195.4,-83.85 202.01,-86.16"/>
</g>
<!-- Node21&#45;&gt;Node9 -->
<g id="edge36" class="edge">
<title>Node21&#45;&gt;Node9</title>
<path fill="none" stroke="midnightblue" d="M190,-224.43C237.48,-214.68 310.71,-198.72 337,-188 339.26,-187.08 390.89,-155.83 421.94,-137"/>
<polygon fill="midnightblue" stroke="midnightblue" points="424.1,-139.78 430.83,-131.6 420.47,-133.8 424.1,-139.78"/>
</g>
<!-- Node21&#45;&gt;Node18 -->
<g id="edge38" class="edge">
<title>Node21&#45;&gt;Node18</title>
<path fill="none" stroke="midnightblue" d="M138.08,-224.08C130.22,-216.22 118.57,-204.57 109.08,-195.08"/>
<polygon fill="midnightblue" stroke="midnightblue" points="111.3,-192.35 101.75,-187.75 106.35,-197.3 111.3,-192.35"/>
</g>
<!-- Node22&#45;&gt;Node4 -->
<g id="edge41" class="edge">
<title>Node22&#45;&gt;Node4</title>
<path fill="none" stroke="midnightblue" d="M679.61,-168.43C641.44,-154.74 563.17,-127.85 495,-112 414.24,-93.23 318.98,-80.14 260.28,-73.09"/>
<polygon fill="midnightblue" stroke="midnightblue" points="260.45,-69.59 250.11,-71.89 259.63,-76.54 260.45,-69.59"/>
</g>
<!-- Node22&#45;&gt;Node9 -->
<g id="edge42" class="edge">
<title>Node22&#45;&gt;Node9</title>
<path fill="none" stroke="midnightblue" d="M662.12,-168.44C617.02,-159 544.39,-143.8 495.7,-133.61"/>
<polygon fill="midnightblue" stroke="midnightblue" points="496.19,-130.14 485.69,-131.52 494.76,-136.99 496.19,-130.14"/>
</g>
<!-- Node22&#45;&gt;Node12 -->
<g id="edge43" class="edge">
<title>Node22&#45;&gt;Node12</title>
<path fill="none" stroke="midnightblue" d="M704.82,-168.08C706.27,-160.93 708.37,-150.64 710.19,-141.69"/>
<polygon fill="midnightblue" stroke="midnightblue" points="713.65,-142.25 712.22,-131.75 706.79,-140.85 713.65,-142.25"/>
</g>
</g>
</svg>
