<?xml version="1.0" encoding="UTF-8" standalone="no"?>
<!DOCTYPE svg PUBLIC "-//W3C//DTD SVG 1.1//EN"
 "http://www.w3.org/Graphics/SVG/1.1/DTD/svg11.dtd">
<!-- Generated by graphviz version 2.42.4 (0)
 -->
<!-- Title: tableofcontentsframe.h Pages: 1 -->
<svg width="841pt" height="357pt"
 viewBox="0.00 0.00 841.07 357.00" xmlns="http://www.w3.org/2000/svg" xmlns:xlink="http://www.w3.org/1999/xlink">
<g id="graph0" class="graph" transform="scale(1 1) rotate(0) translate(4 353)">
<title>tableofcontentsframe.h</title>
<!-- Node1 -->
<g id="Node000001" class="node">
<title>Node1</title>
<g id="a_Node000001"><a xlink:title=" ">
<polygon fill="#999999" stroke="#666666" points="545,-349 414,-349 414,-330 545,-330 545,-349"/>
<text text-anchor="middle" x="479.5" y="-337" font-family="Helvetica,sans-Serif" font-size="10.00">tableofcontentsframe.h</text>
</a>
</g>
</g>
<!-- Node2 -->
<g id="Node000002" class="node">
<title>Node2</title>
<g id="a_Node000002"><a xlink:href="tbytevectorlist_8h.html" target="_top" xlink:title=" ">
<polygon fill="white" stroke="#666666" points="428,-129 331,-129 331,-110 428,-110 428,-129"/>
<text text-anchor="middle" x="379.5" y="-117" font-family="Helvetica,sans-Serif" font-size="10.00">tbytevectorlist.h</text>
</a>
</g>
</g>
<!-- Node1&#45;&gt;Node2 -->
<g id="edge1_Node000001_Node000002" class="edge">
<title>Node1&#45;&gt;Node2</title>
<g id="a_edge1_Node000001_Node000002"><a xlink:title=" ">
<path fill="none" stroke="#63b8ff" d="M460.33,-329.95C431.32,-315.82 377.35,-284.54 355.5,-239 341.27,-209.35 347.45,-196.89 355.5,-165 357.91,-155.44 362.83,-145.7 367.59,-137.78"/>
<polygon fill="#63b8ff" stroke="#63b8ff" points="370.67,-139.46 373.13,-129.16 364.78,-135.68 370.67,-139.46"/>
</a>
</g>
</g>
<!-- Node12 -->
<g id="Node000012" class="node">
<title>Node12</title>
<g id="a_Node000012"><a xlink:href="id3v2tag_8h.html" target="_top" xlink:title=" ">
<polygon fill="white" stroke="#666666" points="513.5,-294 445.5,-294 445.5,-275 513.5,-275 513.5,-294"/>
<text text-anchor="middle" x="479.5" y="-282" font-family="Helvetica,sans-Serif" font-size="10.00">id3v2tag.h</text>
</a>
</g>
</g>
<!-- Node1&#45;&gt;Node12 -->
<g id="edge13_Node000001_Node000012" class="edge">
<title>Node1&#45;&gt;Node12</title>
<g id="a_edge13_Node000001_Node000012"><a xlink:title=" ">
<path fill="none" stroke="#63b8ff" d="M479.5,-329.75C479.5,-322.8 479.5,-312.85 479.5,-304.13"/>
<polygon fill="#63b8ff" stroke="#63b8ff" points="483,-304.09 479.5,-294.09 476,-304.09 483,-304.09"/>
</a>
</g>
</g>
<!-- Node26 -->
<g id="Node000026" class="node">
<title>Node26</title>
<g id="a_Node000026"><a xlink:href="id3v2frame_8h.html" target="_top" xlink:title=" ">
<polygon fill="white" stroke="#666666" points="818.5,-184 736.5,-184 736.5,-165 818.5,-165 818.5,-184"/>
<text text-anchor="middle" x="777.5" y="-172" font-family="Helvetica,sans-Serif" font-size="10.00">id3v2frame.h</text>
</a>
</g>
</g>
<!-- Node1&#45;&gt;Node26 -->
<g id="edge49_Node000001_Node000026" class="edge">
<title>Node1&#45;&gt;Node26</title>
<g id="a_edge49_Node000001_Node000026"><a xlink:title=" ">
<path fill="none" stroke="#63b8ff" d="M531.2,-329.99C588.59,-318.25 681.18,-292.17 742.5,-239 756.44,-226.91 765.9,-207.84 771.43,-193.75"/>
<polygon fill="#63b8ff" stroke="#63b8ff" points="774.79,-194.74 774.9,-184.14 768.21,-192.36 774.79,-194.74"/>
</a>
</g>
</g>
<!-- Node3 -->
<g id="Node000003" class="node">
<title>Node3</title>
<g id="a_Node000003"><a xlink:href="tbytevector_8h.html" target="_top" xlink:title=" ">
<polygon fill="white" stroke="#666666" points="780,-74 699,-74 699,-55 780,-55 780,-74"/>
<text text-anchor="middle" x="739.5" y="-62" font-family="Helvetica,sans-Serif" font-size="10.00">tbytevector.h</text>
</a>
</g>
</g>
<!-- Node2&#45;&gt;Node3 -->
<g id="edge2_Node000002_Node000003" class="edge">
<title>Node2&#45;&gt;Node3</title>
<g id="a_edge2_Node000002_Node000003"><a xlink:title=" ">
<path fill="none" stroke="#63b8ff" d="M428.05,-111.35C496.14,-101.33 619.42,-83.18 688.7,-72.98"/>
<polygon fill="#63b8ff" stroke="#63b8ff" points="689.54,-76.39 698.93,-71.47 688.52,-69.47 689.54,-76.39"/>
</a>
</g>
</g>
<!-- Node7 -->
<g id="Node000007" class="node">
<title>Node7</title>
<g id="a_Node000007"><a xlink:href="taglib__export_8h.html" target="_top" xlink:title=" ">
<polygon fill="white" stroke="#666666" points="587.5,-19 497.5,-19 497.5,0 587.5,0 587.5,-19"/>
<text text-anchor="middle" x="542.5" y="-7" font-family="Helvetica,sans-Serif" font-size="10.00">taglib_export.h</text>
</a>
</g>
</g>
<!-- Node2&#45;&gt;Node7 -->
<g id="edge12_Node000002_Node000007" class="edge">
<title>Node2&#45;&gt;Node7</title>
<g id="a_edge12_Node000002_Node000007"><a xlink:title=" ">
<path fill="none" stroke="#63b8ff" d="M386.42,-109.67C397.21,-96.38 419.24,-71.05 442.5,-55 462.3,-41.34 486.98,-30.3 506.86,-22.64"/>
<polygon fill="#63b8ff" stroke="#63b8ff" points="508.34,-25.83 516.48,-19.05 505.89,-19.27 508.34,-25.83"/>
</a>
</g>
</g>
<!-- Node8 -->
<g id="Node000008" class="node">
<title>Node8</title>
<g id="a_Node000008"><a xlink:href="tlist_8h.html" target="_top" xlink:title=" ">
<polygon fill="white" stroke="#666666" points="194.5,-74 150.5,-74 150.5,-55 194.5,-55 194.5,-74"/>
<text text-anchor="middle" x="172.5" y="-62" font-family="Helvetica,sans-Serif" font-size="10.00">tlist.h</text>
</a>
</g>
</g>
<!-- Node2&#45;&gt;Node8 -->
<g id="edge7_Node000002_Node000008" class="edge">
<title>Node2&#45;&gt;Node8</title>
<g id="a_edge7_Node000002_Node000008"><a xlink:title=" ">
<path fill="none" stroke="#63b8ff" d="M346.24,-109.98C307.28,-100.01 243.16,-83.59 204.67,-73.74"/>
<polygon fill="#63b8ff" stroke="#63b8ff" points="205.09,-70.23 194.54,-71.14 203.36,-77.01 205.09,-70.23"/>
</a>
</g>
</g>
<!-- Node4 -->
<g id="Node000004" class="node">
<title>Node4</title>
<g id="a_Node000004"><a xlink:title=" ">
<polygon fill="#e0e0e0" stroke="#999999" points="281.5,-19 223.5,-19 223.5,0 281.5,0 281.5,-19"/>
<text text-anchor="middle" x="252.5" y="-7" font-family="Helvetica,sans-Serif" font-size="10.00">memory</text>
</a>
</g>
</g>
<!-- Node3&#45;&gt;Node4 -->
<g id="edge3_Node000003_Node000004" class="edge">
<title>Node3&#45;&gt;Node4</title>
<g id="a_edge3_Node000003_Node000004"><a xlink:title=" ">
<path fill="none" stroke="#63b8ff" d="M698.82,-59.52C599.22,-49.77 347.69,-25.11 291.85,-18.57"/>
<polygon fill="#63b8ff" stroke="#63b8ff" points="292.18,-15.08 281.82,-17.27 291.29,-22.02 292.18,-15.08"/>
</a>
</g>
</g>
<!-- Node5 -->
<g id="Node000005" class="node">
<title>Node5</title>
<g id="a_Node000005"><a xlink:title=" ">
<polygon fill="#e0e0e0" stroke="#999999" points="730,-19 683,-19 683,0 730,0 730,-19"/>
<text text-anchor="middle" x="706.5" y="-7" font-family="Helvetica,sans-Serif" font-size="10.00">vector</text>
</a>
</g>
</g>
<!-- Node3&#45;&gt;Node5 -->
<g id="edge4_Node000003_Node000005" class="edge">
<title>Node3&#45;&gt;Node5</title>
<g id="a_edge4_Node000003_Node000005"><a xlink:title=" ">
<path fill="none" stroke="#63b8ff" d="M734.05,-54.75C729.49,-47.42 722.83,-36.73 717.21,-27.7"/>
<polygon fill="#63b8ff" stroke="#63b8ff" points="720.1,-25.73 711.85,-19.09 714.16,-29.43 720.1,-25.73"/>
</a>
</g>
</g>
<!-- Node6 -->
<g id="Node000006" class="node">
<title>Node6</title>
<g id="a_Node000006"><a xlink:title=" ">
<polygon fill="#e0e0e0" stroke="#999999" points="796.5,-19 748.5,-19 748.5,0 796.5,0 796.5,-19"/>
<text text-anchor="middle" x="772.5" y="-7" font-family="Helvetica,sans-Serif" font-size="10.00">iosfwd</text>
</a>
</g>
</g>
<!-- Node3&#45;&gt;Node6 -->
<g id="edge5_Node000003_Node000006" class="edge">
<title>Node3&#45;&gt;Node6</title>
<g id="a_edge5_Node000003_Node000006"><a xlink:title=" ">
<path fill="none" stroke="#63b8ff" d="M744.95,-54.75C749.51,-47.42 756.17,-36.73 761.79,-27.7"/>
<polygon fill="#63b8ff" stroke="#63b8ff" points="764.84,-29.43 767.15,-19.09 758.9,-25.73 764.84,-29.43"/>
</a>
</g>
</g>
<!-- Node3&#45;&gt;Node7 -->
<g id="edge6_Node000003_Node000007" class="edge">
<title>Node3&#45;&gt;Node7</title>
<g id="a_edge6_Node000003_Node000007"><a xlink:title=" ">
<path fill="none" stroke="#63b8ff" d="M707.85,-54.98C674.34,-45.97 621.3,-31.7 584.36,-21.76"/>
<polygon fill="#63b8ff" stroke="#63b8ff" points="584.97,-18.3 574.4,-19.08 583.15,-25.06 584.97,-18.3"/>
</a>
</g>
</g>
<!-- Node8&#45;&gt;Node4 -->
<g id="edge10_Node000008_Node000004" class="edge">
<title>Node8&#45;&gt;Node4</title>
<g id="a_edge10_Node000008_Node000004"><a xlink:title=" ">
<path fill="none" stroke="#63b8ff" d="M185.35,-54.98C197.64,-46.84 216.41,-34.41 230.98,-24.76"/>
<polygon fill="#63b8ff" stroke="#63b8ff" points="233.01,-27.61 239.41,-19.17 229.14,-21.78 233.01,-27.61"/>
</a>
</g>
</g>
<!-- Node9 -->
<g id="Node000009" class="node">
<title>Node9</title>
<g id="a_Node000009"><a xlink:title=" ">
<polygon fill="#e0e0e0" stroke="#999999" points="103.5,-19 71.5,-19 71.5,0 103.5,0 103.5,-19"/>
<text text-anchor="middle" x="87.5" y="-7" font-family="Helvetica,sans-Serif" font-size="10.00">list</text>
</a>
</g>
</g>
<!-- Node8&#45;&gt;Node9 -->
<g id="edge8_Node000008_Node000009" class="edge">
<title>Node8&#45;&gt;Node9</title>
<g id="a_edge8_Node000008_Node000009"><a xlink:title=" ">
<path fill="none" stroke="#63b8ff" d="M158.84,-54.98C145.66,-46.77 125.47,-34.18 109.93,-24.49"/>
<polygon fill="#63b8ff" stroke="#63b8ff" points="111.74,-21.49 101.41,-19.17 108.04,-27.43 111.74,-21.49"/>
</a>
</g>
</g>
<!-- Node10 -->
<g id="Node000010" class="node">
<title>Node10</title>
<g id="a_Node000010"><a xlink:title=" ">
<polygon fill="#e0e0e0" stroke="#999999" points="205,-19 122,-19 122,0 205,0 205,-19"/>
<text text-anchor="middle" x="163.5" y="-7" font-family="Helvetica,sans-Serif" font-size="10.00">initializer_list</text>
</a>
</g>
</g>
<!-- Node8&#45;&gt;Node10 -->
<g id="edge9_Node000008_Node000010" class="edge">
<title>Node8&#45;&gt;Node10</title>
<g id="a_edge9_Node000008_Node000010"><a xlink:title=" ">
<path fill="none" stroke="#63b8ff" d="M171.01,-54.75C169.83,-47.8 168.14,-37.85 166.66,-29.13"/>
<polygon fill="#63b8ff" stroke="#63b8ff" points="170.08,-28.36 164.96,-19.09 163.18,-29.53 170.08,-28.36"/>
</a>
</g>
</g>
<!-- Node11 -->
<g id="Node000011" class="node">
<title>Node11</title>
<g id="a_Node000011"><a xlink:title=" ">
<polygon fill="#e0e0e0" stroke="#999999" points="53,-19 0,-19 0,0 53,0 53,-19"/>
<text text-anchor="middle" x="26.5" y="-7" font-family="Helvetica,sans-Serif" font-size="10.00">tlist.tcc</text>
</a>
</g>
</g>
<!-- Node8&#45;&gt;Node11 -->
<g id="edge11_Node000008_Node000011" class="edge">
<title>Node8&#45;&gt;Node11</title>
<g id="a_edge11_Node000008_Node000011"><a xlink:title=" ">
<path fill="none" stroke="#63b8ff" d="M150.33,-55.45C126.31,-46.73 87.73,-32.73 60.01,-22.67"/>
<polygon fill="#63b8ff" stroke="#63b8ff" points="60.94,-19.28 50.34,-19.15 58.55,-25.86 60.94,-19.28"/>
</a>
</g>
</g>
<!-- Node12&#45;&gt;Node3 -->
<g id="edge14_Node000012_Node000003" class="edge">
<title>Node12&#45;&gt;Node3</title>
<g id="a_edge14_Node000012_Node000003"><a xlink:title=" ">
<path fill="none" stroke="#63b8ff" d="M513.88,-282.1C565.26,-279.05 664.38,-269.39 742.5,-239 784.44,-222.69 806,-223.53 827.5,-184 849.66,-143.26 796.51,-100.9 763.45,-79.57"/>
<polygon fill="#63b8ff" stroke="#63b8ff" points="765.07,-76.46 754.74,-74.13 761.37,-82.39 765.07,-76.46"/>
</a>
</g>
</g>
<!-- Node12&#45;&gt;Node7 -->
<g id="edge28_Node000012_Node000007" class="edge">
<title>Node12&#45;&gt;Node7</title>
<g id="a_edge28_Node000012_Node000007"><a xlink:title=" ">
<path fill="none" stroke="#63b8ff" d="M445.28,-275.97C425.36,-269.66 401.82,-258.43 389.5,-239 371.89,-211.22 373.65,-194.35 388.5,-165 400.7,-140.89 417.54,-147.22 437.5,-129 473.87,-95.81 510.75,-51.06 529.62,-27.16"/>
<polygon fill="#63b8ff" stroke="#63b8ff" points="532.52,-29.13 535.93,-19.1 527.01,-24.82 532.52,-29.13"/>
</a>
</g>
</g>
<!-- Node12&#45;&gt;Node8 -->
<g id="edge19_Node000012_Node000008" class="edge">
<title>Node12&#45;&gt;Node8</title>
<g id="a_edge19_Node000012_Node000008"><a xlink:title=" ">
<path fill="none" stroke="#63b8ff" d="M445.38,-278.25C412.09,-272.16 360.72,-260.13 320.5,-239 251.62,-202.81 201.28,-119.94 181.6,-83.38"/>
<polygon fill="#63b8ff" stroke="#63b8ff" points="184.62,-81.61 176.87,-74.38 178.42,-84.86 184.62,-81.61"/>
</a>
</g>
</g>
<!-- Node13 -->
<g id="Node000013" class="node">
<title>Node13</title>
<g id="a_Node000013"><a xlink:href="tstring_8h.html" target="_top" xlink:title=" ">
<polygon fill="white" stroke="#666666" points="618,-129 561,-129 561,-110 618,-110 618,-129"/>
<text text-anchor="middle" x="589.5" y="-117" font-family="Helvetica,sans-Serif" font-size="10.00">tstring.h</text>
</a>
</g>
</g>
<!-- Node12&#45;&gt;Node13 -->
<g id="edge15_Node000012_Node000013" class="edge">
<title>Node12&#45;&gt;Node13</title>
<g id="a_edge15_Node000012_Node000013"><a xlink:title=" ">
<path fill="none" stroke="#63b8ff" d="M513.59,-275.27C533.28,-268.73 556.79,-257.51 570.5,-239 592.33,-209.52 593.12,-164.55 591.49,-139.33"/>
<polygon fill="#63b8ff" stroke="#63b8ff" points="594.96,-138.93 590.63,-129.26 587.99,-139.52 594.96,-138.93"/>
</a>
</g>
</g>
<!-- Node15 -->
<g id="Node000015" class="node">
<title>Node15</title>
<g id="a_Node000015"><a xlink:href="tmap_8h.html" target="_top" xlink:title=" ">
<polygon fill="white" stroke="#666666" points="278,-74 227,-74 227,-55 278,-55 278,-74"/>
<text text-anchor="middle" x="252.5" y="-62" font-family="Helvetica,sans-Serif" font-size="10.00">tmap.h</text>
</a>
</g>
</g>
<!-- Node12&#45;&gt;Node15 -->
<g id="edge20_Node000012_Node000015" class="edge">
<title>Node12&#45;&gt;Node15</title>
<g id="a_edge20_Node000012_Node000015"><a xlink:title=" ">
<path fill="none" stroke="#63b8ff" d="M445.44,-275.39C419.53,-268.27 383.65,-256.32 355.5,-239 294.99,-201.76 267.56,-194.28 239.5,-129 233.19,-114.32 237.88,-96.38 243.31,-83.32"/>
<polygon fill="#63b8ff" stroke="#63b8ff" points="246.58,-84.59 247.63,-74.05 240.23,-81.64 246.58,-84.59"/>
</a>
</g>
</g>
<!-- Node19 -->
<g id="Node000019" class="node">
<title>Node19</title>
<g id="a_Node000019"><a xlink:href="taglib_8h.html" target="_top" xlink:title=" ">
<polygon fill="white" stroke="#666666" points="451,-239 398,-239 398,-220 451,-220 451,-239"/>
<text text-anchor="middle" x="424.5" y="-227" font-family="Helvetica,sans-Serif" font-size="10.00">taglib.h</text>
</a>
</g>
</g>
<!-- Node12&#45;&gt;Node19 -->
<g id="edge26_Node000012_Node000019" class="edge">
<title>Node12&#45;&gt;Node19</title>
<g id="a_edge26_Node000012_Node000019"><a xlink:title=" ">
<path fill="none" stroke="#63b8ff" d="M470.42,-274.75C462.41,-267.03 450.54,-255.6 440.88,-246.28"/>
<polygon fill="#63b8ff" stroke="#63b8ff" points="443.04,-243.51 433.41,-239.09 438.19,-248.55 443.04,-243.51"/>
</a>
</g>
</g>
<!-- Node21 -->
<g id="Node000021" class="node">
<title>Node21</title>
<g id="a_Node000021"><a xlink:href="tag_8h.html" target="_top" xlink:title=" ">
<polygon fill="white" stroke="#666666" points="529,-184 488,-184 488,-165 529,-165 529,-184"/>
<text text-anchor="middle" x="508.5" y="-172" font-family="Helvetica,sans-Serif" font-size="10.00">tag.h</text>
</a>
</g>
</g>
<!-- Node12&#45;&gt;Node21 -->
<g id="edge29_Node000012_Node000021" class="edge">
<title>Node12&#45;&gt;Node21</title>
<g id="a_edge29_Node000012_Node000021"><a xlink:title=" ">
<path fill="none" stroke="#63b8ff" d="M481.87,-274.66C486.59,-257.09 497.24,-217.45 503.54,-193.95"/>
<polygon fill="#63b8ff" stroke="#63b8ff" points="506.96,-194.72 506.18,-184.16 500.2,-192.91 506.96,-194.72"/>
</a>
</g>
</g>
<!-- Node24 -->
<g id="Node000024" class="node">
<title>Node24</title>
<g id="a_Node000024"><a xlink:href="id3v2_8h.html" target="_top" xlink:title=" ">
<polygon fill="white" stroke="#666666" points="561,-239 508,-239 508,-220 561,-220 561,-239"/>
<text text-anchor="middle" x="534.5" y="-227" font-family="Helvetica,sans-Serif" font-size="10.00">id3v2.h</text>
</a>
</g>
</g>
<!-- Node12&#45;&gt;Node24 -->
<g id="edge38_Node000012_Node000024" class="edge">
<title>Node12&#45;&gt;Node24</title>
<g id="a_edge38_Node000012_Node000024"><a xlink:title=" ">
<path fill="none" stroke="#63b8ff" d="M488.58,-274.75C496.59,-267.03 508.46,-255.6 518.12,-246.28"/>
<polygon fill="#63b8ff" stroke="#63b8ff" points="520.81,-248.55 525.59,-239.09 515.96,-243.51 520.81,-248.55"/>
</a>
</g>
</g>
<!-- Node25 -->
<g id="Node000025" class="node">
<title>Node25</title>
<g id="a_Node000025"><a xlink:href="id3v2framefactory_8h.html" target="_top" xlink:title=" ">
<polygon fill="white" stroke="#666666" points="733,-239 618,-239 618,-220 733,-220 733,-239"/>
<text text-anchor="middle" x="675.5" y="-227" font-family="Helvetica,sans-Serif" font-size="10.00">id3v2framefactory.h</text>
</a>
</g>
</g>
<!-- Node12&#45;&gt;Node25 -->
<g id="edge39_Node000012_Node000025" class="edge">
<title>Node12&#45;&gt;Node25</title>
<g id="a_edge39_Node000012_Node000025"><a xlink:title=" ">
<path fill="none" stroke="#63b8ff" d="M510.99,-274.98C544.32,-265.97 597.1,-251.7 633.85,-241.76"/>
<polygon fill="#63b8ff" stroke="#63b8ff" points="635.02,-245.07 643.76,-239.08 633.2,-238.31 635.02,-245.07"/>
</a>
</g>
</g>
<!-- Node13&#45;&gt;Node3 -->
<g id="edge17_Node000013_Node000003" class="edge">
<title>Node13&#45;&gt;Node3</title>
<g id="a_edge17_Node000013_Node000003"><a xlink:title=" ">
<path fill="none" stroke="#63b8ff" d="M613.6,-109.98C638.38,-101.23 677.2,-87.51 705.19,-77.62"/>
<polygon fill="#63b8ff" stroke="#63b8ff" points="706.7,-80.8 714.96,-74.17 704.37,-74.2 706.7,-80.8"/>
</a>
</g>
</g>
<!-- Node13&#45;&gt;Node7 -->
<g id="edge18_Node000013_Node000007" class="edge">
<title>Node13&#45;&gt;Node7</title>
<g id="a_edge18_Node000013_Node000007"><a xlink:title=" ">
<path fill="none" stroke="#63b8ff" d="M585.65,-109.66C577.97,-92.01 560.6,-52.09 550.39,-28.64"/>
<polygon fill="#63b8ff" stroke="#63b8ff" points="553.47,-26.93 546.27,-19.16 547.05,-29.72 553.47,-26.93"/>
</a>
</g>
</g>
<!-- Node14 -->
<g id="Node000014" class="node">
<title>Node14</title>
<g id="a_Node000014"><a xlink:title=" ">
<polygon fill="#e0e0e0" stroke="#999999" points="642.5,-74 598.5,-74 598.5,-55 642.5,-55 642.5,-74"/>
<text text-anchor="middle" x="620.5" y="-62" font-family="Helvetica,sans-Serif" font-size="10.00">string</text>
</a>
</g>
</g>
<!-- Node13&#45;&gt;Node14 -->
<g id="edge16_Node000013_Node000014" class="edge">
<title>Node13&#45;&gt;Node14</title>
<g id="a_edge16_Node000013_Node000014"><a xlink:title=" ">
<path fill="none" stroke="#63b8ff" d="M594.62,-109.75C598.86,-102.49 605.03,-91.95 610.28,-82.98"/>
<polygon fill="#63b8ff" stroke="#63b8ff" points="613.45,-84.49 615.48,-74.09 607.41,-80.95 613.45,-84.49"/>
</a>
</g>
</g>
<!-- Node15&#45;&gt;Node4 -->
<g id="edge22_Node000015_Node000004" class="edge">
<title>Node15&#45;&gt;Node4</title>
<g id="a_edge22_Node000015_Node000004"><a xlink:title=" ">
<path fill="none" stroke="#63b8ff" d="M252.5,-54.75C252.5,-47.8 252.5,-37.85 252.5,-29.13"/>
<polygon fill="#63b8ff" stroke="#63b8ff" points="256,-29.09 252.5,-19.09 249,-29.09 256,-29.09"/>
</a>
</g>
</g>
<!-- Node15&#45;&gt;Node10 -->
<g id="edge23_Node000015_Node000010" class="edge">
<title>Node15&#45;&gt;Node10</title>
<g id="a_edge23_Node000015_Node000010"><a xlink:title=" ">
<path fill="none" stroke="#63b8ff" d="M238.2,-54.98C224.4,-46.77 203.26,-34.18 186.99,-24.49"/>
<polygon fill="#63b8ff" stroke="#63b8ff" points="188.44,-21.28 178.06,-19.17 184.86,-27.29 188.44,-21.28"/>
</a>
</g>
</g>
<!-- Node16 -->
<g id="Node000016" class="node">
<title>Node16</title>
<g id="a_Node000016"><a xlink:title=" ">
<polygon fill="#e0e0e0" stroke="#999999" points="415.5,-19 377.5,-19 377.5,0 415.5,0 415.5,-19"/>
<text text-anchor="middle" x="396.5" y="-7" font-family="Helvetica,sans-Serif" font-size="10.00">map</text>
</a>
</g>
</g>
<!-- Node15&#45;&gt;Node16 -->
<g id="edge21_Node000015_Node000016" class="edge">
<title>Node15&#45;&gt;Node16</title>
<g id="a_edge21_Node000015_Node000016"><a xlink:title=" ">
<path fill="none" stroke="#63b8ff" d="M275.64,-54.98C300.59,-45.8 340.38,-31.16 367.43,-21.2"/>
<polygon fill="#63b8ff" stroke="#63b8ff" points="368.94,-24.37 377.11,-17.63 366.52,-17.8 368.94,-24.37"/>
</a>
</g>
</g>
<!-- Node17 -->
<g id="Node000017" class="node">
<title>Node17</title>
<g id="a_Node000017"><a xlink:title=" ">
<polygon fill="#e0e0e0" stroke="#999999" points="479,-19 434,-19 434,0 479,0 479,-19"/>
<text text-anchor="middle" x="456.5" y="-7" font-family="Helvetica,sans-Serif" font-size="10.00">utility</text>
</a>
</g>
</g>
<!-- Node15&#45;&gt;Node17 -->
<g id="edge24_Node000015_Node000017" class="edge">
<title>Node15&#45;&gt;Node17</title>
<g id="a_edge24_Node000015_Node000017"><a xlink:title=" ">
<path fill="none" stroke="#63b8ff" d="M278.16,-56.92C310.01,-48.73 366.25,-34.24 424.11,-19.09"/>
<polygon fill="#63b8ff" stroke="#63b8ff" points="424.99,-22.48 433.78,-16.55 423.22,-15.7 424.99,-22.48"/>
</a>
</g>
</g>
<!-- Node18 -->
<g id="Node000018" class="node">
<title>Node18</title>
<g id="a_Node000018"><a xlink:title=" ">
<polygon fill="#e0e0e0" stroke="#999999" points="359,-19 300,-19 300,0 359,0 359,-19"/>
<text text-anchor="middle" x="329.5" y="-7" font-family="Helvetica,sans-Serif" font-size="10.00">tmap.tcc</text>
</a>
</g>
</g>
<!-- Node15&#45;&gt;Node18 -->
<g id="edge25_Node000015_Node000018" class="edge">
<title>Node15&#45;&gt;Node18</title>
<g id="a_edge25_Node000015_Node000018"><a xlink:title=" ">
<path fill="none" stroke="#63b8ff" d="M264.87,-54.98C276.59,-46.92 294.42,-34.65 308.39,-25.03"/>
<polygon fill="#63b8ff" stroke="#63b8ff" points="310.65,-27.72 316.9,-19.17 306.68,-21.96 310.65,-27.72"/>
</a>
</g>
</g>
<!-- Node20 -->
<g id="Node000020" class="node">
<title>Node20</title>
<g id="a_Node000020"><a xlink:title=" ">
<polygon fill="#e0e0e0" stroke="#999999" points="469.5,-184 397.5,-184 397.5,-165 469.5,-165 469.5,-184"/>
<text text-anchor="middle" x="433.5" y="-172" font-family="Helvetica,sans-Serif" font-size="10.00">sys/types.h</text>
</a>
</g>
</g>
<!-- Node19&#45;&gt;Node20 -->
<g id="edge27_Node000019_Node000020" class="edge">
<title>Node19&#45;&gt;Node20</title>
<g id="a_edge27_Node000019_Node000020"><a xlink:title=" ">
<path fill="none" stroke="#63b8ff" d="M425.99,-219.75C427.17,-212.8 428.86,-202.85 430.34,-194.13"/>
<polygon fill="#63b8ff" stroke="#63b8ff" points="433.82,-194.53 432.04,-184.09 426.92,-193.36 433.82,-194.53"/>
</a>
</g>
</g>
<!-- Node21&#45;&gt;Node7 -->
<g id="edge30_Node000021_Node000007" class="edge">
<title>Node21&#45;&gt;Node7</title>
<g id="a_edge30_Node000021_Node000007"><a xlink:title=" ">
<path fill="none" stroke="#63b8ff" d="M508.05,-164.95C507.25,-145.14 506.66,-94.77 518.5,-55 521.31,-45.55 526.28,-35.83 530.97,-27.89"/>
<polygon fill="#63b8ff" stroke="#63b8ff" points="534.05,-29.56 536.38,-19.23 528.11,-25.85 534.05,-29.56"/>
</a>
</g>
</g>
<!-- Node21&#45;&gt;Node8 -->
<g id="edge32_Node000021_Node000008" class="edge">
<title>Node21&#45;&gt;Node8</title>
<g id="a_edge32_Node000021_Node000008"><a xlink:title=" ">
<path fill="none" stroke="#63b8ff" d="M487.93,-167.3C484.79,-166.46 481.57,-165.66 478.5,-165 373.5,-142.31 336.04,-176.12 239.5,-129 217.11,-118.07 197.2,-96.99 185.02,-82.13"/>
<polygon fill="#63b8ff" stroke="#63b8ff" points="187.72,-79.9 178.78,-74.21 182.22,-84.23 187.72,-79.9"/>
</a>
</g>
</g>
<!-- Node21&#45;&gt;Node13 -->
<g id="edge31_Node000021_Node000013" class="edge">
<title>Node21&#45;&gt;Node13</title>
<g id="a_edge31_Node000021_Node000013"><a xlink:title=" ">
<path fill="none" stroke="#63b8ff" d="M521.51,-164.98C533.96,-156.84 552.96,-144.41 567.71,-134.76"/>
<polygon fill="#63b8ff" stroke="#63b8ff" points="569.8,-137.57 576.25,-129.17 565.96,-131.72 569.8,-137.57"/>
</a>
</g>
</g>
<!-- Node22 -->
<g id="Node000022" class="node">
<title>Node22</title>
<g id="a_Node000022"><a xlink:href="tvariant_8h.html" target="_top" xlink:title=" ">
<polygon fill="white" stroke="#666666" points="312.5,-129 248.5,-129 248.5,-110 312.5,-110 312.5,-129"/>
<text text-anchor="middle" x="280.5" y="-117" font-family="Helvetica,sans-Serif" font-size="10.00">tvariant.h</text>
</a>
</g>
</g>
<!-- Node21&#45;&gt;Node22 -->
<g id="edge33_Node000021_Node000022" class="edge">
<title>Node21&#45;&gt;Node22</title>
<g id="a_edge33_Node000021_Node000022"><a xlink:title=" ">
<path fill="none" stroke="#63b8ff" d="M487.88,-167.5C484.75,-166.63 481.54,-165.77 478.5,-165 424.94,-151.4 362.68,-137.76 322.49,-129.24"/>
<polygon fill="#63b8ff" stroke="#63b8ff" points="323.03,-125.77 312.52,-127.13 321.58,-132.62 323.03,-125.77"/>
</a>
</g>
</g>
<!-- Node22&#45;&gt;Node7 -->
<g id="edge37_Node000022_Node000007" class="edge">
<title>Node22&#45;&gt;Node7</title>
<g id="a_edge37_Node000022_Node000007"><a xlink:title=" ">
<path fill="none" stroke="#63b8ff" d="M297.3,-109.91C322.59,-97.14 372.11,-72.75 415.5,-55 445.47,-42.74 480.22,-30.71 505.78,-22.26"/>
<polygon fill="#63b8ff" stroke="#63b8ff" points="507.03,-25.53 515.44,-19.09 504.85,-18.88 507.03,-25.53"/>
</a>
</g>
</g>
<!-- Node22&#45;&gt;Node8 -->
<g id="edge35_Node000022_Node000008" class="edge">
<title>Node22&#45;&gt;Node8</title>
<g id="a_edge35_Node000022_Node000008"><a xlink:title=" ">
<path fill="none" stroke="#63b8ff" d="M263.15,-109.98C245.93,-101.54 219.3,-88.47 199.35,-78.68"/>
<polygon fill="#63b8ff" stroke="#63b8ff" points="200.69,-75.43 190.17,-74.17 197.6,-81.72 200.69,-75.43"/>
</a>
</g>
</g>
<!-- Node22&#45;&gt;Node15 -->
<g id="edge36_Node000022_Node000015" class="edge">
<title>Node22&#45;&gt;Node15</title>
<g id="a_edge36_Node000022_Node000015"><a xlink:title=" ">
<path fill="none" stroke="#63b8ff" d="M275.88,-109.75C272.04,-102.49 266.48,-91.95 261.74,-82.98"/>
<polygon fill="#63b8ff" stroke="#63b8ff" points="264.8,-81.3 257.04,-74.09 258.61,-84.57 264.8,-81.3"/>
</a>
</g>
</g>
<!-- Node23 -->
<g id="Node000023" class="node">
<title>Node23</title>
<g id="a_Node000023"><a xlink:title=" ">
<polygon fill="#e0e0e0" stroke="#999999" points="352.5,-74 296.5,-74 296.5,-55 352.5,-55 352.5,-74"/>
<text text-anchor="middle" x="324.5" y="-62" font-family="Helvetica,sans-Serif" font-size="10.00">sstream</text>
</a>
</g>
</g>
<!-- Node22&#45;&gt;Node23 -->
<g id="edge34_Node000022_Node000023" class="edge">
<title>Node22&#45;&gt;Node23</title>
<g id="a_edge34_Node000022_Node000023"><a xlink:title=" ">
<path fill="none" stroke="#63b8ff" d="M287.77,-109.75C294.04,-102.18 303.29,-91.05 310.93,-81.84"/>
<polygon fill="#63b8ff" stroke="#63b8ff" points="313.67,-84.02 317.37,-74.09 308.29,-79.55 313.67,-84.02"/>
</a>
</g>
</g>
<!-- Node25&#45;&gt;Node3 -->
<g id="edge40_Node000025_Node000003" class="edge">
<title>Node25&#45;&gt;Node3</title>
<g id="a_edge40_Node000025_Node000003"><a xlink:title=" ">
<path fill="none" stroke="#63b8ff" d="M681.83,-219.99C693.77,-203.43 719.5,-165.33 731.5,-129 736.25,-114.62 738.21,-97.56 739,-84.74"/>
<polygon fill="#63b8ff" stroke="#63b8ff" points="742.52,-84.5 739.45,-74.36 735.52,-84.2 742.52,-84.5"/>
</a>
</g>
</g>
<!-- Node25&#45;&gt;Node7 -->
<g id="edge41_Node000025_Node000007" class="edge">
<title>Node25&#45;&gt;Node7</title>
<g id="a_edge41_Node000025_Node000007"><a xlink:title=" ">
<path fill="none" stroke="#63b8ff" d="M657.4,-219.91C629.36,-205.52 576.17,-173.65 552.5,-129 535.64,-97.19 537.11,-53.73 539.76,-29.25"/>
<polygon fill="#63b8ff" stroke="#63b8ff" points="543.25,-29.54 541.04,-19.17 536.31,-28.65 543.25,-29.54"/>
</a>
</g>
</g>
<!-- Node25&#45;&gt;Node26 -->
<g id="edge42_Node000025_Node000026" class="edge">
<title>Node25&#45;&gt;Node26</title>
<g id="a_edge42_Node000025_Node000026"><a xlink:title=" ">
<path fill="none" stroke="#63b8ff" d="M691.89,-219.98C708.07,-211.57 733.07,-198.59 751.88,-188.81"/>
<polygon fill="#63b8ff" stroke="#63b8ff" points="753.55,-191.89 760.81,-184.17 750.33,-185.68 753.55,-191.89"/>
</a>
</g>
</g>
<!-- Node27 -->
<g id="Node000027" class="node">
<title>Node27</title>
<g id="a_Node000027"><a xlink:href="id3v2header_8h.html" target="_top" xlink:title=" ">
<polygon fill="white" stroke="#666666" points="722.5,-129 636.5,-129 636.5,-110 722.5,-110 722.5,-129"/>
<text text-anchor="middle" x="679.5" y="-117" font-family="Helvetica,sans-Serif" font-size="10.00">id3v2header.h</text>
</a>
</g>
</g>
<!-- Node25&#45;&gt;Node27 -->
<g id="edge46_Node000025_Node000027" class="edge">
<title>Node25&#45;&gt;Node27</title>
<g id="a_edge46_Node000025_Node000027"><a xlink:title=" ">
<path fill="none" stroke="#63b8ff" d="M675.83,-219.66C676.48,-202.17 677.93,-162.8 678.8,-139.27"/>
<polygon fill="#63b8ff" stroke="#63b8ff" points="682.31,-139.28 679.18,-129.16 675.31,-139.02 682.31,-139.28"/>
</a>
</g>
</g>
<!-- Node26&#45;&gt;Node3 -->
<g id="edge44_Node000026_Node000003" class="edge">
<title>Node26&#45;&gt;Node3</title>
<g id="a_edge44_Node000026_Node000003"><a xlink:title=" ">
<path fill="none" stroke="#63b8ff" d="M776.56,-164.63C775.05,-152.14 771.5,-128.77 764.5,-110 761.02,-100.67 755.78,-90.96 751,-83"/>
<polygon fill="#63b8ff" stroke="#63b8ff" points="753.82,-80.91 745.54,-74.3 747.89,-84.63 753.82,-80.91"/>
</a>
</g>
</g>
<!-- Node26&#45;&gt;Node7 -->
<g id="edge45_Node000026_Node000007" class="edge">
<title>Node26&#45;&gt;Node7</title>
<g id="a_edge45_Node000026_Node000007"><a xlink:title=" ">
<path fill="none" stroke="#63b8ff" d="M782.13,-164.82C792.87,-143.4 816.55,-87.36 789.5,-55 765.56,-26.36 663.03,-16.12 597.82,-12.49"/>
<polygon fill="#63b8ff" stroke="#63b8ff" points="597.87,-8.98 587.7,-11.96 597.5,-15.97 597.87,-8.98"/>
</a>
</g>
</g>
<!-- Node26&#45;&gt;Node13 -->
<g id="edge43_Node000026_Node000013" class="edge">
<title>Node26&#45;&gt;Node13</title>
<g id="a_edge43_Node000026_Node000013"><a xlink:title=" ">
<path fill="none" stroke="#63b8ff" d="M747.29,-164.98C714.89,-155.85 663.34,-141.32 628.04,-131.36"/>
<polygon fill="#63b8ff" stroke="#63b8ff" points="628.66,-127.9 618.09,-128.56 626.77,-134.64 628.66,-127.9"/>
</a>
</g>
</g>
<!-- Node27&#45;&gt;Node3 -->
<g id="edge47_Node000027_Node000003" class="edge">
<title>Node27&#45;&gt;Node3</title>
<g id="a_edge47_Node000027_Node000003"><a xlink:title=" ">
<path fill="none" stroke="#63b8ff" d="M689.14,-109.98C698.01,-102.15 711.37,-90.34 722.11,-80.86"/>
<polygon fill="#63b8ff" stroke="#63b8ff" points="724.51,-83.41 729.68,-74.17 719.87,-78.17 724.51,-83.41"/>
</a>
</g>
</g>
<!-- Node27&#45;&gt;Node7 -->
<g id="edge48_Node000027_Node000007" class="edge">
<title>Node27&#45;&gt;Node7</title>
<g id="a_edge48_Node000027_Node000007"><a xlink:title=" ">
<path fill="none" stroke="#63b8ff" d="M677.87,-109.92C674.9,-96.5 667.39,-70.46 651.5,-55 635.38,-39.32 612.99,-28.9 592.69,-22.12"/>
<polygon fill="#63b8ff" stroke="#63b8ff" points="593.52,-18.71 582.93,-19.07 591.44,-25.39 593.52,-18.71"/>
</a>
</g>
</g>
</g>
</svg>
