<?xml version="1.0" encoding="UTF-8" standalone="no"?>
<!DOCTYPE svg PUBLIC "-//W3C//DTD SVG 1.1//EN"
 "http://www.w3.org/Graphics/SVG/1.1/DTD/svg11.dtd">
<!-- Generated by graphviz version 2.43.0 (0)
 -->
<!-- Title: tableofcontentsframe.h Pages: 1 -->
<svg width="929pt" height="364pt"
 viewBox="0.00 0.00 928.50 364.00" xmlns="http://www.w3.org/2000/svg" xmlns:xlink="http://www.w3.org/1999/xlink">
<g id="graph0" class="graph" transform="scale(1 1) rotate(0) translate(4 360)">
<title>tableofcontentsframe.h</title>
<polygon fill="white" stroke="transparent" points="-4,4 -4,-360 924.5,-360 924.5,4 -4,4"/>
<!-- Node1 -->
<g id="node1" class="node">
<title>Node1</title>
<g id="a_node1"><a xlink:title=" ">
<polygon fill="#bfbfbf" stroke="black" points="474,-336.5 474,-355.5 605,-355.5 605,-336.5 474,-336.5"/>
<text text-anchor="middle" x="539.5" y="-343.5" font-family="Helvetica,sans-Serif" font-size="10.00">tableofcontentsframe.h</text>
</a>
</g>
</g>
<!-- Node2 -->
<g id="node2" class="node">
<title>Node2</title>
<g id="a_node2"><a xlink:href="tbytevectorlist_8h.html" target="_top" xlink:title=" ">
<polygon fill="white" stroke="black" points="387,-112.5 387,-131.5 484,-131.5 484,-112.5 387,-112.5"/>
<text text-anchor="middle" x="435.5" y="-119.5" font-family="Helvetica,sans-Serif" font-size="10.00">tbytevectorlist.h</text>
</a>
</g>
</g>
<!-- Node1&#45;&gt;Node2 -->
<g id="edge1" class="edge">
<title>Node1&#45;&gt;Node2</title>
<path fill="none" stroke="midnightblue" d="M521.28,-336.3C493.1,-321.71 439.85,-289.39 417.5,-244 402.58,-213.69 408.49,-201.05 415.5,-168 417.5,-158.59 421.6,-148.76 425.57,-140.7"/>
<polygon fill="midnightblue" stroke="midnightblue" points="428.81,-142.07 430.37,-131.59 422.61,-138.81 428.81,-142.07"/>
</g>
<!-- Node12 -->
<g id="node12" class="node">
<title>Node12</title>
<g id="a_node12"><a xlink:href="id3v2tag_8h.html" target="_top" xlink:title=" ">
<polygon fill="white" stroke="black" points="505.5,-280.5 505.5,-299.5 573.5,-299.5 573.5,-280.5 505.5,-280.5"/>
<text text-anchor="middle" x="539.5" y="-287.5" font-family="Helvetica,sans-Serif" font-size="10.00">id3v2tag.h</text>
</a>
</g>
</g>
<!-- Node1&#45;&gt;Node12 -->
<g id="edge13" class="edge">
<title>Node1&#45;&gt;Node12</title>
<path fill="none" stroke="midnightblue" d="M539.5,-336.08C539.5,-329.01 539.5,-318.86 539.5,-309.99"/>
<polygon fill="midnightblue" stroke="midnightblue" points="543,-309.75 539.5,-299.75 536,-309.75 543,-309.75"/>
</g>
<!-- Node25 -->
<g id="node25" class="node">
<title>Node25</title>
<g id="a_node25"><a xlink:href="id3v2frame_8h.html" target="_top" xlink:title=" ">
<polygon fill="white" stroke="black" points="664.5,-168.5 664.5,-187.5 746.5,-187.5 746.5,-168.5 664.5,-168.5"/>
<text text-anchor="middle" x="705.5" y="-175.5" font-family="Helvetica,sans-Serif" font-size="10.00">id3v2frame.h</text>
</a>
</g>
</g>
<!-- Node1&#45;&gt;Node25 -->
<g id="edge49" class="edge">
<title>Node1&#45;&gt;Node25</title>
<path fill="none" stroke="midnightblue" d="M605.22,-338.31C664.06,-328.44 747.09,-304.08 787.5,-244 802.89,-221.11 771.18,-202.51 742.83,-191.16"/>
<polygon fill="midnightblue" stroke="midnightblue" points="744,-187.86 733.41,-187.59 741.52,-194.41 744,-187.86"/>
</g>
<!-- Node3 -->
<g id="node3" class="node">
<title>Node3</title>
<g id="a_node3"><a xlink:href="tbytevector_8h.html" target="_top" xlink:title=" ">
<polygon fill="white" stroke="black" points="482,-56.5 482,-75.5 563,-75.5 563,-56.5 482,-56.5"/>
<text text-anchor="middle" x="522.5" y="-63.5" font-family="Helvetica,sans-Serif" font-size="10.00">tbytevector.h</text>
</a>
</g>
</g>
<!-- Node2&#45;&gt;Node3 -->
<g id="edge2" class="edge">
<title>Node2&#45;&gt;Node3</title>
<path fill="none" stroke="midnightblue" d="M449.48,-112.32C463.05,-103.9 483.88,-90.97 499.82,-81.07"/>
<polygon fill="midnightblue" stroke="midnightblue" points="501.91,-83.9 508.56,-75.65 498.21,-77.95 501.91,-83.9"/>
</g>
<!-- Node7 -->
<g id="node7" class="node">
<title>Node7</title>
<g id="a_node7"><a xlink:href="taglib__export_8h.html" target="_top" xlink:title=" ">
<polygon fill="white" stroke="black" points="662.5,-0.5 662.5,-19.5 752.5,-19.5 752.5,-0.5 662.5,-0.5"/>
<text text-anchor="middle" x="707.5" y="-7.5" font-family="Helvetica,sans-Serif" font-size="10.00">taglib_export.h</text>
</a>
</g>
</g>
<!-- Node2&#45;&gt;Node7 -->
<g id="edge12" class="edge">
<title>Node2&#45;&gt;Node7</title>
<path fill="none" stroke="midnightblue" d="M438.02,-112.23C442.59,-97.99 453.65,-70.05 473.5,-56 501.67,-36.06 592.52,-23 652.38,-16.32"/>
<polygon fill="midnightblue" stroke="midnightblue" points="652.88,-19.78 662.44,-15.22 652.12,-12.83 652.88,-19.78"/>
</g>
<!-- Node8 -->
<g id="node8" class="node">
<title>Node8</title>
<g id="a_node8"><a xlink:href="tlist_8h.html" target="_top" xlink:title=" ">
<polygon fill="white" stroke="black" points="305.5,-56.5 305.5,-75.5 349.5,-75.5 349.5,-56.5 305.5,-56.5"/>
<text text-anchor="middle" x="327.5" y="-63.5" font-family="Helvetica,sans-Serif" font-size="10.00">tlist.h</text>
</a>
</g>
</g>
<!-- Node2&#45;&gt;Node8 -->
<g id="edge7" class="edge">
<title>Node2&#45;&gt;Node8</title>
<path fill="none" stroke="midnightblue" d="M418.15,-112.32C400.83,-103.66 373.98,-90.24 354,-80.25"/>
<polygon fill="midnightblue" stroke="midnightblue" points="355.32,-77 344.81,-75.65 352.19,-83.26 355.32,-77"/>
</g>
<!-- Node4 -->
<g id="node4" class="node">
<title>Node4</title>
<g id="a_node4"><a xlink:title=" ">
<polygon fill="white" stroke="#bfbfbf" points="298.5,-0.5 298.5,-19.5 356.5,-19.5 356.5,-0.5 298.5,-0.5"/>
<text text-anchor="middle" x="327.5" y="-7.5" font-family="Helvetica,sans-Serif" font-size="10.00">memory</text>
</a>
</g>
</g>
<!-- Node3&#45;&gt;Node4 -->
<g id="edge3" class="edge">
<title>Node3&#45;&gt;Node4</title>
<path fill="none" stroke="midnightblue" d="M491.6,-56.44C457.74,-47.07 403.33,-32 366.54,-21.81"/>
<polygon fill="midnightblue" stroke="midnightblue" points="367.23,-18.37 356.66,-19.08 365.36,-25.12 367.23,-18.37"/>
</g>
<!-- Node5 -->
<g id="node5" class="node">
<title>Node5</title>
<g id="a_node5"><a xlink:title=" ">
<polygon fill="white" stroke="#bfbfbf" points="563,-0.5 563,-19.5 610,-19.5 610,-0.5 563,-0.5"/>
<text text-anchor="middle" x="586.5" y="-7.5" font-family="Helvetica,sans-Serif" font-size="10.00">vector</text>
</a>
</g>
</g>
<!-- Node3&#45;&gt;Node5 -->
<g id="edge4" class="edge">
<title>Node3&#45;&gt;Node5</title>
<path fill="none" stroke="midnightblue" d="M532.78,-56.32C542.34,-48.26 556.78,-36.08 568.28,-26.37"/>
<polygon fill="midnightblue" stroke="midnightblue" points="570.64,-28.96 576.03,-19.83 566.13,-23.61 570.64,-28.96"/>
</g>
<!-- Node6 -->
<g id="node6" class="node">
<title>Node6</title>
<g id="a_node6"><a xlink:title=" ">
<polygon fill="white" stroke="#bfbfbf" points="496.5,-0.5 496.5,-19.5 544.5,-19.5 544.5,-0.5 496.5,-0.5"/>
<text text-anchor="middle" x="520.5" y="-7.5" font-family="Helvetica,sans-Serif" font-size="10.00">iosfwd</text>
</a>
</g>
</g>
<!-- Node3&#45;&gt;Node6 -->
<g id="edge5" class="edge">
<title>Node3&#45;&gt;Node6</title>
<path fill="none" stroke="midnightblue" d="M522.17,-56.08C521.91,-49.01 521.53,-38.86 521.2,-29.99"/>
<polygon fill="midnightblue" stroke="midnightblue" points="524.69,-29.61 520.82,-19.75 517.7,-29.87 524.69,-29.61"/>
</g>
<!-- Node3&#45;&gt;Node7 -->
<g id="edge6" class="edge">
<title>Node3&#45;&gt;Node7</title>
<path fill="none" stroke="midnightblue" d="M551.81,-56.44C583.34,-47.24 633.63,-32.56 668.49,-22.39"/>
<polygon fill="midnightblue" stroke="midnightblue" points="669.7,-25.68 678.32,-19.52 667.74,-18.96 669.7,-25.68"/>
</g>
<!-- Node8&#45;&gt;Node4 -->
<g id="edge10" class="edge">
<title>Node8&#45;&gt;Node4</title>
<path fill="none" stroke="midnightblue" d="M327.5,-56.08C327.5,-49.01 327.5,-38.86 327.5,-29.99"/>
<polygon fill="midnightblue" stroke="midnightblue" points="331,-29.75 327.5,-19.75 324,-29.75 331,-29.75"/>
</g>
<!-- Node9 -->
<g id="node9" class="node">
<title>Node9</title>
<g id="a_node9"><a xlink:title=" ">
<polygon fill="white" stroke="#bfbfbf" points="446.5,-0.5 446.5,-19.5 478.5,-19.5 478.5,-0.5 446.5,-0.5"/>
<text text-anchor="middle" x="462.5" y="-7.5" font-family="Helvetica,sans-Serif" font-size="10.00">list</text>
</a>
</g>
</g>
<!-- Node8&#45;&gt;Node9 -->
<g id="edge8" class="edge">
<title>Node8&#45;&gt;Node9</title>
<path fill="none" stroke="midnightblue" d="M348.89,-56.44C372.78,-46.89 411.44,-31.43 436.91,-21.24"/>
<polygon fill="midnightblue" stroke="midnightblue" points="438.31,-24.45 446.29,-17.48 435.71,-17.95 438.31,-24.45"/>
</g>
<!-- Node10 -->
<g id="node10" class="node">
<title>Node10</title>
<g id="a_node10"><a xlink:title=" ">
<polygon fill="white" stroke="#bfbfbf" points="197,-0.5 197,-19.5 280,-19.5 280,-0.5 197,-0.5"/>
<text text-anchor="middle" x="238.5" y="-7.5" font-family="Helvetica,sans-Serif" font-size="10.00">initializer_list</text>
</a>
</g>
</g>
<!-- Node8&#45;&gt;Node10 -->
<g id="edge9" class="edge">
<title>Node8&#45;&gt;Node10</title>
<path fill="none" stroke="midnightblue" d="M313.2,-56.32C299.32,-47.9 278.01,-34.97 261.7,-25.07"/>
<polygon fill="midnightblue" stroke="midnightblue" points="263.13,-21.85 252.76,-19.65 259.5,-27.83 263.13,-21.85"/>
</g>
<!-- Node11 -->
<g id="node11" class="node">
<title>Node11</title>
<g id="a_node11"><a xlink:title=" ">
<polygon fill="white" stroke="#bfbfbf" points="375,-0.5 375,-19.5 428,-19.5 428,-0.5 375,-0.5"/>
<text text-anchor="middle" x="401.5" y="-7.5" font-family="Helvetica,sans-Serif" font-size="10.00">tlist.tcc</text>
</a>
</g>
</g>
<!-- Node8&#45;&gt;Node11 -->
<g id="edge11" class="edge">
<title>Node8&#45;&gt;Node11</title>
<path fill="none" stroke="midnightblue" d="M339.39,-56.32C350.65,-48.11 367.79,-35.6 381.21,-25.81"/>
<polygon fill="midnightblue" stroke="midnightblue" points="383.38,-28.56 389.39,-19.83 379.25,-22.9 383.38,-28.56"/>
</g>
<!-- Node12&#45;&gt;Node3 -->
<g id="edge14" class="edge">
<title>Node12&#45;&gt;Node3</title>
<path fill="none" stroke="midnightblue" d="M505.49,-284.03C481.25,-278.58 450.12,-267.26 433.5,-244 413.84,-216.48 412.42,-197.2 429.5,-168 445.98,-139.83 471.52,-156.12 493.5,-132 505.58,-118.74 513.29,-99.61 517.7,-85.54"/>
<polygon fill="midnightblue" stroke="midnightblue" points="521.17,-86.12 520.54,-75.54 514.44,-84.2 521.17,-86.12"/>
</g>
<!-- Node12&#45;&gt;Node7 -->
<g id="edge28" class="edge">
<title>Node12&#45;&gt;Node7</title>
<path fill="none" stroke="midnightblue" d="M573.65,-286.49C667.16,-278.67 920.5,-250.86 920.5,-179 920.5,-179 920.5,-179 920.5,-121 920.5,-50.04 826.01,-24.8 762.9,-15.87"/>
<polygon fill="midnightblue" stroke="midnightblue" points="763.04,-12.36 752.67,-14.52 762.13,-19.3 763.04,-12.36"/>
</g>
<!-- Node12&#45;&gt;Node8 -->
<g id="edge19" class="edge">
<title>Node12&#45;&gt;Node8</title>
<path fill="none" stroke="midnightblue" d="M505.09,-280.57C446.1,-263.93 328.1,-220.56 287.5,-132 279.33,-114.18 293.97,-95.24 307.78,-82.44"/>
<polygon fill="midnightblue" stroke="midnightblue" points="310.35,-84.84 315.63,-75.66 305.77,-79.54 310.35,-84.84"/>
</g>
<!-- Node13 -->
<g id="node13" class="node">
<title>Node13</title>
<g id="a_node13"><a xlink:href="tstring_8h.html" target="_top" xlink:title=" ">
<polygon fill="white" stroke="black" points="655,-112.5 655,-131.5 712,-131.5 712,-112.5 655,-112.5"/>
<text text-anchor="middle" x="683.5" y="-119.5" font-family="Helvetica,sans-Serif" font-size="10.00">tstring.h</text>
</a>
</g>
</g>
<!-- Node12&#45;&gt;Node13 -->
<g id="edge15" class="edge">
<title>Node12&#45;&gt;Node13</title>
<path fill="none" stroke="midnightblue" d="M550.35,-280.21C560.83,-271.49 576.93,-257.51 589.5,-244 621.81,-209.27 654.72,-164.21 671.71,-140.06"/>
<polygon fill="midnightblue" stroke="midnightblue" points="674.75,-141.83 677.6,-131.63 669.01,-137.83 674.75,-141.83"/>
</g>
<!-- Node15 -->
<g id="node15" class="node">
<title>Node15</title>
<g id="a_node15"><a xlink:href="tmap_8h.html" target="_top" xlink:title=" ">
<polygon fill="white" stroke="black" points="175,-56.5 175,-75.5 226,-75.5 226,-56.5 175,-56.5"/>
<text text-anchor="middle" x="200.5" y="-63.5" font-family="Helvetica,sans-Serif" font-size="10.00">tmap.h</text>
</a>
</g>
</g>
<!-- Node12&#45;&gt;Node15 -->
<g id="edge20" class="edge">
<title>Node12&#45;&gt;Node15</title>
<path fill="none" stroke="midnightblue" d="M505.22,-284.36C470.26,-278.6 415.22,-266.63 372.5,-244 297.77,-204.41 236.04,-120.66 211.68,-84.37"/>
<polygon fill="midnightblue" stroke="midnightblue" points="214.48,-82.27 206.06,-75.85 208.64,-86.12 214.48,-82.27"/>
</g>
<!-- Node19 -->
<g id="node19" class="node">
<title>Node19</title>
<g id="a_node19"><a xlink:href="taglib_8h.html" target="_top" xlink:title=" ">
<polygon fill="white" stroke="black" points="442,-224.5 442,-243.5 495,-243.5 495,-224.5 442,-224.5"/>
<text text-anchor="middle" x="468.5" y="-231.5" font-family="Helvetica,sans-Serif" font-size="10.00">taglib.h</text>
</a>
</g>
</g>
<!-- Node12&#45;&gt;Node19 -->
<g id="edge26" class="edge">
<title>Node12&#45;&gt;Node19</title>
<path fill="none" stroke="midnightblue" d="M528.09,-280.32C517.39,-272.18 501.16,-259.84 488.34,-250.09"/>
<polygon fill="midnightblue" stroke="midnightblue" points="490.19,-247.1 480.11,-243.83 485.96,-252.67 490.19,-247.1"/>
</g>
<!-- Node21 -->
<g id="node21" class="node">
<title>Node21</title>
<g id="a_node21"><a xlink:href="tag_8h.html" target="_top" xlink:title=" ">
<polygon fill="white" stroke="black" points="529,-168.5 529,-187.5 570,-187.5 570,-168.5 529,-168.5"/>
<text text-anchor="middle" x="549.5" y="-175.5" font-family="Helvetica,sans-Serif" font-size="10.00">tag.h</text>
</a>
</g>
</g>
<!-- Node12&#45;&gt;Node21 -->
<g id="edge29" class="edge">
<title>Node12&#45;&gt;Node21</title>
<path fill="none" stroke="midnightblue" d="M549.66,-280.19C558.41,-271.87 570.4,-258.54 575.5,-244 581.32,-227.41 572.26,-208.82 563.29,-195.79"/>
<polygon fill="midnightblue" stroke="midnightblue" points="566.06,-193.65 557.26,-187.74 560.45,-197.84 566.06,-193.65"/>
</g>
<!-- Node23 -->
<g id="node23" class="node">
<title>Node23</title>
<g id="a_node23"><a xlink:href="id3v2_8h.html" target="_top" xlink:title=" ">
<polygon fill="white" stroke="black" points="513,-224.5 513,-243.5 566,-243.5 566,-224.5 513,-224.5"/>
<text text-anchor="middle" x="539.5" y="-231.5" font-family="Helvetica,sans-Serif" font-size="10.00">id3v2.h</text>
</a>
</g>
</g>
<!-- Node12&#45;&gt;Node23 -->
<g id="edge38" class="edge">
<title>Node12&#45;&gt;Node23</title>
<path fill="none" stroke="midnightblue" d="M539.5,-280.08C539.5,-273.01 539.5,-262.86 539.5,-253.99"/>
<polygon fill="midnightblue" stroke="midnightblue" points="543,-253.75 539.5,-243.75 536,-253.75 543,-253.75"/>
</g>
<!-- Node24 -->
<g id="node24" class="node">
<title>Node24</title>
<g id="a_node24"><a xlink:href="id3v2framefactory_8h.html" target="_top" xlink:title=" ">
<polygon fill="white" stroke="black" points="663,-224.5 663,-243.5 778,-243.5 778,-224.5 663,-224.5"/>
<text text-anchor="middle" x="720.5" y="-231.5" font-family="Helvetica,sans-Serif" font-size="10.00">id3v2framefactory.h</text>
</a>
</g>
</g>
<!-- Node12&#45;&gt;Node24 -->
<g id="edge39" class="edge">
<title>Node12&#45;&gt;Node24</title>
<path fill="none" stroke="midnightblue" d="M568.18,-280.44C599.03,-271.24 648.23,-256.56 682.33,-246.39"/>
<polygon fill="midnightblue" stroke="midnightblue" points="683.37,-249.73 691.95,-243.52 681.37,-243.02 683.37,-249.73"/>
</g>
<!-- Node13&#45;&gt;Node3 -->
<g id="edge17" class="edge">
<title>Node13&#45;&gt;Node3</title>
<path fill="none" stroke="midnightblue" d="M657.99,-112.44C630.9,-103.36 587.91,-88.94 557.63,-78.78"/>
<polygon fill="midnightblue" stroke="midnightblue" points="558.49,-75.38 547.89,-75.52 556.26,-82.01 558.49,-75.38"/>
</g>
<!-- Node13&#45;&gt;Node7 -->
<g id="edge18" class="edge">
<title>Node13&#45;&gt;Node7</title>
<path fill="none" stroke="midnightblue" d="M685.38,-112.37C689.26,-94.62 698.19,-53.67 703.44,-29.6"/>
<polygon fill="midnightblue" stroke="midnightblue" points="706.91,-30.11 705.63,-19.59 700.07,-28.62 706.91,-30.11"/>
</g>
<!-- Node14 -->
<g id="node14" class="node">
<title>Node14</title>
<g id="a_node14"><a xlink:title=" ">
<polygon fill="white" stroke="#bfbfbf" points="635.5,-56.5 635.5,-75.5 679.5,-75.5 679.5,-56.5 635.5,-56.5"/>
<text text-anchor="middle" x="657.5" y="-63.5" font-family="Helvetica,sans-Serif" font-size="10.00">string</text>
</a>
</g>
</g>
<!-- Node13&#45;&gt;Node14 -->
<g id="edge16" class="edge">
<title>Node13&#45;&gt;Node14</title>
<path fill="none" stroke="midnightblue" d="M679.21,-112.08C675.65,-104.69 670.48,-93.95 666.08,-84.81"/>
<polygon fill="midnightblue" stroke="midnightblue" points="669.21,-83.24 661.71,-75.75 662.9,-86.28 669.21,-83.24"/>
</g>
<!-- Node15&#45;&gt;Node4 -->
<g id="edge22" class="edge">
<title>Node15&#45;&gt;Node4</title>
<path fill="none" stroke="midnightblue" d="M220.62,-56.44C241.52,-47.56 274.43,-33.56 298.22,-23.45"/>
<polygon fill="midnightblue" stroke="midnightblue" points="299.64,-26.65 307.47,-19.52 296.9,-20.21 299.64,-26.65"/>
</g>
<!-- Node15&#45;&gt;Node10 -->
<g id="edge23" class="edge">
<title>Node15&#45;&gt;Node10</title>
<path fill="none" stroke="midnightblue" d="M206.77,-56.08C212.14,-48.46 220.02,-37.26 226.58,-27.94"/>
<polygon fill="midnightblue" stroke="midnightblue" points="229.45,-29.94 232.34,-19.75 223.72,-25.91 229.45,-29.94"/>
</g>
<!-- Node16 -->
<g id="node16" class="node">
<title>Node16</title>
<g id="a_node16"><a xlink:title=" ">
<polygon fill="white" stroke="#bfbfbf" points="140.5,-0.5 140.5,-19.5 178.5,-19.5 178.5,-0.5 140.5,-0.5"/>
<text text-anchor="middle" x="159.5" y="-7.5" font-family="Helvetica,sans-Serif" font-size="10.00">map</text>
</a>
</g>
</g>
<!-- Node15&#45;&gt;Node16 -->
<g id="edge21" class="edge">
<title>Node15&#45;&gt;Node16</title>
<path fill="none" stroke="midnightblue" d="M193.73,-56.08C187.94,-48.46 179.44,-37.26 172.36,-27.94"/>
<polygon fill="midnightblue" stroke="midnightblue" points="174.98,-25.6 166.14,-19.75 169.4,-29.83 174.98,-25.6"/>
</g>
<!-- Node17 -->
<g id="node17" class="node">
<title>Node17</title>
<g id="a_node17"><a xlink:title=" ">
<polygon fill="white" stroke="#bfbfbf" points="0,-0.5 0,-19.5 45,-19.5 45,-0.5 0,-0.5"/>
<text text-anchor="middle" x="22.5" y="-7.5" font-family="Helvetica,sans-Serif" font-size="10.00">utility</text>
</a>
</g>
</g>
<!-- Node15&#45;&gt;Node17 -->
<g id="edge24" class="edge">
<title>Node15&#45;&gt;Node17</title>
<path fill="none" stroke="midnightblue" d="M175,-57.26C143.32,-47.65 89.27,-31.25 54.75,-20.78"/>
<polygon fill="midnightblue" stroke="midnightblue" points="55.72,-17.42 45.14,-17.87 53.69,-24.12 55.72,-17.42"/>
</g>
<!-- Node18 -->
<g id="node18" class="node">
<title>Node18</title>
<g id="a_node18"><a xlink:title=" ">
<polygon fill="white" stroke="#bfbfbf" points="63,-0.5 63,-19.5 122,-19.5 122,-0.5 63,-0.5"/>
<text text-anchor="middle" x="92.5" y="-7.5" font-family="Helvetica,sans-Serif" font-size="10.00">tmap.tcc</text>
</a>
</g>
</g>
<!-- Node15&#45;&gt;Node18 -->
<g id="edge25" class="edge">
<title>Node15&#45;&gt;Node18</title>
<path fill="none" stroke="midnightblue" d="M183.15,-56.32C165.83,-47.66 138.98,-34.24 119,-24.25"/>
<polygon fill="midnightblue" stroke="midnightblue" points="120.32,-21 109.81,-19.65 117.19,-27.26 120.32,-21"/>
</g>
<!-- Node20 -->
<g id="node20" class="node">
<title>Node20</title>
<g id="a_node20"><a xlink:title=" ">
<polygon fill="white" stroke="#bfbfbf" points="438.5,-168.5 438.5,-187.5 510.5,-187.5 510.5,-168.5 438.5,-168.5"/>
<text text-anchor="middle" x="474.5" y="-175.5" font-family="Helvetica,sans-Serif" font-size="10.00">sys/types.h</text>
</a>
</g>
</g>
<!-- Node19&#45;&gt;Node20 -->
<g id="edge27" class="edge">
<title>Node19&#45;&gt;Node20</title>
<path fill="none" stroke="midnightblue" d="M469.49,-224.08C470.29,-216.93 471.43,-206.64 472.42,-197.69"/>
<polygon fill="midnightblue" stroke="midnightblue" points="475.9,-198.08 473.53,-187.75 468.94,-197.3 475.9,-198.08"/>
</g>
<!-- Node21&#45;&gt;Node7 -->
<g id="edge30" class="edge">
<title>Node21&#45;&gt;Node7</title>
<path fill="none" stroke="midnightblue" d="M553.16,-168.36C562.58,-146.99 589.53,-90.83 626.5,-56 640.85,-42.48 660.03,-31.59 676.12,-23.91"/>
<polygon fill="midnightblue" stroke="midnightblue" points="678.03,-26.89 685.67,-19.55 675.12,-20.52 678.03,-26.89"/>
</g>
<!-- Node21&#45;&gt;Node8 -->
<g id="edge32" class="edge">
<title>Node21&#45;&gt;Node8</title>
<path fill="none" stroke="midnightblue" d="M528.94,-170.44C525.8,-169.55 522.57,-168.7 519.5,-168 470.36,-156.73 328.2,-170.37 295.5,-132 283.09,-117.43 296.73,-97.22 309.84,-83.22"/>
<polygon fill="midnightblue" stroke="midnightblue" points="312.69,-85.33 317.3,-75.79 307.75,-80.37 312.69,-85.33"/>
</g>
<!-- Node21&#45;&gt;Node13 -->
<g id="edge31" class="edge">
<title>Node21&#45;&gt;Node13</title>
<path fill="none" stroke="midnightblue" d="M570.14,-168.68C592.18,-159.8 627.34,-145.63 652.66,-135.43"/>
<polygon fill="midnightblue" stroke="midnightblue" points="654.2,-138.58 662.17,-131.6 651.58,-132.09 654.2,-138.58"/>
</g>
<!-- Node22 -->
<g id="node22" class="node">
<title>Node22</title>
<g id="a_node22"><a xlink:href="tvariant_8h.html" target="_top" xlink:title=" ">
<polygon fill="white" stroke="black" points="304.5,-112.5 304.5,-131.5 368.5,-131.5 368.5,-112.5 304.5,-112.5"/>
<text text-anchor="middle" x="336.5" y="-119.5" font-family="Helvetica,sans-Serif" font-size="10.00">tvariant.h</text>
</a>
</g>
</g>
<!-- Node21&#45;&gt;Node22 -->
<g id="edge33" class="edge">
<title>Node21&#45;&gt;Node22</title>
<path fill="none" stroke="midnightblue" d="M528.88,-170.67C525.75,-169.75 522.54,-168.83 519.5,-168 471.46,-154.9 415.86,-141.47 378.67,-132.73"/>
<polygon fill="midnightblue" stroke="midnightblue" points="379.23,-129.27 368.69,-130.4 377.63,-136.08 379.23,-129.27"/>
</g>
<!-- Node22&#45;&gt;Node6 -->
<g id="edge34" class="edge">
<title>Node22&#45;&gt;Node6</title>
<path fill="none" stroke="midnightblue" d="M343.18,-112.25C354.05,-98.54 376.83,-71.93 401.5,-56 415.96,-46.66 456.93,-32.01 486.77,-21.98"/>
<polygon fill="midnightblue" stroke="midnightblue" points="488.02,-25.25 496.4,-18.77 485.81,-18.61 488.02,-25.25"/>
</g>
<!-- Node22&#45;&gt;Node7 -->
<g id="edge37" class="edge">
<title>Node22&#45;&gt;Node7</title>
<path fill="none" stroke="midnightblue" d="M348.47,-112.3C368.52,-98.17 410.63,-70.36 450.5,-56 486.75,-42.94 588.35,-27.36 652.41,-18.38"/>
<polygon fill="midnightblue" stroke="midnightblue" points="652.93,-21.84 662.35,-17 651.96,-14.91 652.93,-21.84"/>
</g>
<!-- Node22&#45;&gt;Node8 -->
<g id="edge35" class="edge">
<title>Node22&#45;&gt;Node8</title>
<path fill="none" stroke="midnightblue" d="M335.01,-112.08C333.82,-104.93 332.11,-94.64 330.62,-85.69"/>
<polygon fill="midnightblue" stroke="midnightblue" points="334.05,-85.04 328.96,-75.75 327.15,-86.19 334.05,-85.04"/>
</g>
<!-- Node22&#45;&gt;Node15 -->
<g id="edge36" class="edge">
<title>Node22&#45;&gt;Node15</title>
<path fill="none" stroke="midnightblue" d="M314.95,-112.44C292.47,-103.52 257.01,-89.44 231.52,-79.32"/>
<polygon fill="midnightblue" stroke="midnightblue" points="232.53,-75.95 221.95,-75.52 229.95,-82.46 232.53,-75.95"/>
</g>
<!-- Node24&#45;&gt;Node3 -->
<g id="edge40" class="edge">
<title>Node24&#45;&gt;Node3</title>
<path fill="none" stroke="midnightblue" d="M706.93,-224.36C693.52,-215.65 672.58,-201.58 655.5,-188 611.16,-152.74 562.85,-106.66 538.48,-82.82"/>
<polygon fill="midnightblue" stroke="midnightblue" points="540.75,-80.16 531.17,-75.64 535.85,-85.15 540.75,-80.16"/>
</g>
<!-- Node24&#45;&gt;Node7 -->
<g id="edge41" class="edge">
<title>Node24&#45;&gt;Node7</title>
<path fill="none" stroke="midnightblue" d="M742.1,-224.47C780.23,-207.86 854.41,-167.87 842.5,-112 836.82,-85.34 837.07,-74.97 817.5,-56 801,-40.01 778.04,-29.42 757.36,-22.55"/>
<polygon fill="midnightblue" stroke="midnightblue" points="758.33,-19.19 747.74,-19.56 756.25,-25.87 758.33,-19.19"/>
</g>
<!-- Node24&#45;&gt;Node25 -->
<g id="edge42" class="edge">
<title>Node24&#45;&gt;Node25</title>
<path fill="none" stroke="midnightblue" d="M718.02,-224.08C716.01,-216.85 713.11,-206.41 710.61,-197.4"/>
<polygon fill="midnightblue" stroke="midnightblue" points="713.98,-196.45 707.93,-187.75 707.24,-198.32 713.98,-196.45"/>
</g>
<!-- Node26 -->
<g id="node26" class="node">
<title>Node26</title>
<g id="a_node26"><a xlink:href="id3v2header_8h.html" target="_top" xlink:title=" ">
<polygon fill="white" stroke="black" points="730.5,-112.5 730.5,-131.5 816.5,-131.5 816.5,-112.5 730.5,-112.5"/>
<text text-anchor="middle" x="773.5" y="-119.5" font-family="Helvetica,sans-Serif" font-size="10.00">id3v2header.h</text>
</a>
</g>
</g>
<!-- Node24&#45;&gt;Node26 -->
<g id="edge46" class="edge">
<title>Node24&#45;&gt;Node26</title>
<path fill="none" stroke="midnightblue" d="M728.87,-224.41C736.79,-215.84 748.48,-201.97 755.5,-188 762.89,-173.29 767.6,-155.12 770.33,-141.74"/>
<polygon fill="midnightblue" stroke="midnightblue" points="773.79,-142.28 772.18,-131.81 766.91,-140.99 773.79,-142.28"/>
</g>
<!-- Node25&#45;&gt;Node3 -->
<g id="edge44" class="edge">
<title>Node25&#45;&gt;Node3</title>
<path fill="none" stroke="midnightblue" d="M692.3,-168.37C672.83,-155.71 635.19,-131.49 602.5,-112 584.25,-101.12 563.31,-89.37 547.43,-80.6"/>
<polygon fill="midnightblue" stroke="midnightblue" points="548.72,-77.31 538.27,-75.56 545.35,-83.45 548.72,-77.31"/>
</g>
<!-- Node25&#45;&gt;Node7 -->
<g id="edge45" class="edge">
<title>Node25&#45;&gt;Node7</title>
<path fill="none" stroke="midnightblue" d="M746.75,-173.32C774.02,-168.5 807.88,-157.42 825.5,-132 856.25,-87.62 781.84,-44.53 737.55,-23.8"/>
<polygon fill="midnightblue" stroke="midnightblue" points="738.89,-20.57 728.34,-19.61 735.99,-26.94 738.89,-20.57"/>
</g>
<!-- Node25&#45;&gt;Node13 -->
<g id="edge43" class="edge">
<title>Node25&#45;&gt;Node13</title>
<path fill="none" stroke="midnightblue" d="M701.87,-168.08C698.89,-160.77 694.57,-150.18 690.88,-141.1"/>
<polygon fill="midnightblue" stroke="midnightblue" points="694.08,-139.69 687.07,-131.75 687.6,-142.33 694.08,-139.69"/>
</g>
<!-- Node26&#45;&gt;Node3 -->
<g id="edge47" class="edge">
<title>Node26&#45;&gt;Node3</title>
<path fill="none" stroke="midnightblue" d="M733.73,-112.44C689.94,-103.02 619.49,-87.87 572.12,-77.68"/>
<polygon fill="midnightblue" stroke="midnightblue" points="572.6,-74.2 562.09,-75.52 571.13,-81.04 572.6,-74.2"/>
</g>
<!-- Node26&#45;&gt;Node7 -->
<g id="edge48" class="edge">
<title>Node26&#45;&gt;Node7</title>
<path fill="none" stroke="midnightblue" d="M768.32,-112.37C757.48,-94.3 732.21,-52.18 717.88,-28.31"/>
<polygon fill="midnightblue" stroke="midnightblue" points="720.8,-26.37 712.65,-19.59 714.8,-29.97 720.8,-26.37"/>
</g>
</g>
</svg>
