<?xml version="1.0" encoding="UTF-8" standalone="no"?>
<!DOCTYPE svg PUBLIC "-//W3C//DTD SVG 1.1//EN"
 "http://www.w3.org/Graphics/SVG/1.1/DTD/svg11.dtd">
<!-- Generated by graphviz version 2.46.1 (20210213.1702)
 -->
<!-- Title: tag.h Pages: 1 -->
<svg width="1711pt" height="196pt"
 viewBox="0.00 0.00 1711.00 196.00" xmlns="http://www.w3.org/2000/svg" xmlns:xlink="http://www.w3.org/1999/xlink">
<g id="graph0" class="graph" transform="scale(1 1) rotate(0) translate(4 192)">
<title>tag.h</title>
<polygon fill="white" stroke="transparent" points="-4,4 -4,-192 1707,-192 1707,4 -4,4"/>
<!-- Node1 -->
<g id="node1" class="node">
<title>Node1</title>
<g id="a_node1"><a xlink:title=" ">
<polygon fill="#bfbfbf" stroke="black" points="623,-168.5 623,-187.5 661,-187.5 661,-168.5 623,-168.5"/>
<text text-anchor="middle" x="642" y="-175.5" font-family="Helvetica,sans-Serif" font-size="10.00">tag.h</text>
</a>
</g>
</g>
<!-- Node2 -->
<g id="node2" class="node">
<title>Node2</title>
<g id="a_node2"><a xlink:href="apetag_8h.html" target="_top" xlink:title=" ">
<polygon fill="white" stroke="black" points="0,-112.5 0,-131.5 54,-131.5 54,-112.5 0,-112.5"/>
<text text-anchor="middle" x="27" y="-119.5" font-family="Helvetica,sans-Serif" font-size="10.00">apetag.h</text>
</a>
</g>
</g>
<!-- Node1&#45;&gt;Node2 -->
<g id="edge1" class="edge">
<title>Node1&#45;&gt;Node2</title>
<path fill="none" stroke="midnightblue" d="M612.64,-176.45C527.24,-174.48 271.79,-165.97 63,-132 60.07,-131.52 57.04,-130.93 54.03,-130.27"/>
<polygon fill="midnightblue" stroke="midnightblue" points="612.8,-179.96 622.87,-176.67 612.95,-172.96 612.8,-179.96"/>
</g>
<!-- Node3 -->
<g id="node3" class="node">
<title>Node3</title>
<g id="a_node3"><a xlink:href="asffile_8h.html" target="_top" xlink:title=" ">
<polygon fill="white" stroke="black" points="91.5,-56.5 91.5,-75.5 142.5,-75.5 142.5,-56.5 91.5,-56.5"/>
<text text-anchor="middle" x="117" y="-63.5" font-family="Helvetica,sans-Serif" font-size="10.00">asffile.h</text>
</a>
</g>
</g>
<!-- Node1&#45;&gt;Node3 -->
<g id="edge2" class="edge">
<title>Node1&#45;&gt;Node3</title>
<path fill="none" stroke="midnightblue" d="M612.73,-176.9C522.98,-176.16 253.14,-170.7 176,-132 150.39,-119.15 130.58,-90.12 121.86,-75.6"/>
<polygon fill="midnightblue" stroke="midnightblue" points="612.73,-180.4 622.75,-176.97 612.78,-173.4 612.73,-180.4"/>
</g>
<!-- Node4 -->
<g id="node4" class="node">
<title>Node4</title>
<g id="a_node4"><a xlink:href="asftag_8h.html" target="_top" xlink:title=" ">
<polygon fill="white" stroke="black" points="72,-112.5 72,-131.5 124,-131.5 124,-112.5 72,-112.5"/>
<text text-anchor="middle" x="98" y="-119.5" font-family="Helvetica,sans-Serif" font-size="10.00">asftag.h</text>
</a>
</g>
</g>
<!-- Node1&#45;&gt;Node4 -->
<g id="edge3" class="edge">
<title>Node1&#45;&gt;Node4</title>
<path fill="none" stroke="midnightblue" d="M612.63,-175.74C534.82,-172.1 317.05,-160.01 138,-132 133.5,-131.3 128.75,-130.38 124.15,-129.41"/>
<polygon fill="midnightblue" stroke="midnightblue" points="612.51,-179.24 622.66,-176.2 612.83,-172.24 612.51,-179.24"/>
</g>
<!-- Node5 -->
<g id="node5" class="node">
<title>Node5</title>
<g id="a_node5"><a xlink:href="flacfile_8h.html" target="_top" xlink:title=" ">
<polygon fill="white" stroke="black" points="274.5,-56.5 274.5,-75.5 327.5,-75.5 327.5,-56.5 274.5,-56.5"/>
<text text-anchor="middle" x="301" y="-63.5" font-family="Helvetica,sans-Serif" font-size="10.00">flacfile.h</text>
</a>
</g>
</g>
<!-- Node1&#45;&gt;Node5 -->
<g id="edge5" class="edge">
<title>Node1&#45;&gt;Node5</title>
<path fill="none" stroke="midnightblue" d="M613.06,-167.67C547.98,-146.67 390.85,-95.99 327.82,-75.65"/>
<polygon fill="midnightblue" stroke="midnightblue" points="612.1,-171.03 622.69,-170.77 614.25,-164.37 612.1,-171.03"/>
</g>
<!-- Node6 -->
<g id="node6" class="node">
<title>Node6</title>
<g id="a_node6"><a xlink:href="modtag_8h.html" target="_top" xlink:title=" ">
<polygon fill="white" stroke="black" points="422.5,-56.5 422.5,-75.5 479.5,-75.5 479.5,-56.5 422.5,-56.5"/>
<text text-anchor="middle" x="451" y="-63.5" font-family="Helvetica,sans-Serif" font-size="10.00">modtag.h</text>
</a>
</g>
</g>
<!-- Node1&#45;&gt;Node6 -->
<g id="edge6" class="edge">
<title>Node1&#45;&gt;Node6</title>
<path fill="none" stroke="midnightblue" d="M618.21,-163.3C578.28,-140.3 498.91,-94.59 465.92,-75.59"/>
<polygon fill="midnightblue" stroke="midnightblue" points="616.6,-166.41 627.01,-168.37 620.09,-160.34 616.6,-166.41"/>
</g>
<!-- Node11 -->
<g id="node11" class="node">
<title>Node11</title>
<g id="a_node11"><a xlink:href="mp4file_8h.html" target="_top" xlink:title=" ">
<polygon fill="white" stroke="black" points="200,-0.5 200,-19.5 256,-19.5 256,-0.5 200,-0.5"/>
<text text-anchor="middle" x="228" y="-7.5" font-family="Helvetica,sans-Serif" font-size="10.00">mp4file.h</text>
</a>
</g>
</g>
<!-- Node1&#45;&gt;Node11 -->
<g id="edge11" class="edge">
<title>Node1&#45;&gt;Node11</title>
<path fill="none" stroke="midnightblue" d="M612.72,-175.29C520.71,-169.24 240.51,-145.32 190,-76 176.07,-56.88 200.83,-32.3 216.54,-19.54"/>
<polygon fill="midnightblue" stroke="midnightblue" points="612.78,-178.81 622.98,-175.95 613.22,-171.82 612.78,-178.81"/>
</g>
<!-- Node12 -->
<g id="node12" class="node">
<title>Node12</title>
<g id="a_node12"><a xlink:href="mp4tag_8h.html" target="_top" xlink:title=" ">
<polygon fill="white" stroke="black" points="199.5,-56.5 199.5,-75.5 256.5,-75.5 256.5,-56.5 199.5,-56.5"/>
<text text-anchor="middle" x="228" y="-63.5" font-family="Helvetica,sans-Serif" font-size="10.00">mp4tag.h</text>
</a>
</g>
</g>
<!-- Node1&#45;&gt;Node12 -->
<g id="edge12" class="edge">
<title>Node1&#45;&gt;Node12</title>
<path fill="none" stroke="midnightblue" d="M613.1,-171.47C573.23,-163.65 499.24,-148.48 437,-132 369.78,-114.2 291.86,-88.64 252.89,-75.5"/>
<polygon fill="midnightblue" stroke="midnightblue" points="612.45,-174.91 622.93,-173.38 613.79,-168.03 612.45,-174.91"/>
</g>
<!-- Node13 -->
<g id="node13" class="node">
<title>Node13</title>
<g id="a_node13"><a xlink:href="mpcfile_8h.html" target="_top" xlink:title=" ">
<polygon fill="white" stroke="black" points="1108,-56.5 1108,-75.5 1164,-75.5 1164,-56.5 1108,-56.5"/>
<text text-anchor="middle" x="1136" y="-63.5" font-family="Helvetica,sans-Serif" font-size="10.00">mpcfile.h</text>
</a>
</g>
</g>
<!-- Node1&#45;&gt;Node13 -->
<g id="edge14" class="edge">
<title>Node1&#45;&gt;Node13</title>
<path fill="none" stroke="midnightblue" d="M654.94,-160.6C668.2,-145.13 690.32,-122.74 715,-112 872.18,-43.6 929.94,-104.33 1099,-76 1101.87,-75.52 1104.84,-74.94 1107.81,-74.3"/>
<polygon fill="midnightblue" stroke="midnightblue" points="652.19,-158.43 648.52,-168.37 657.59,-162.89 652.19,-158.43"/>
</g>
<!-- Node14 -->
<g id="node14" class="node">
<title>Node14</title>
<g id="a_node14"><a xlink:href="id3v1tag_8h.html" target="_top" xlink:title=" ">
<polygon fill="white" stroke="black" points="905,-112.5 905,-131.5 967,-131.5 967,-112.5 905,-112.5"/>
<text text-anchor="middle" x="936" y="-119.5" font-family="Helvetica,sans-Serif" font-size="10.00">id3v1tag.h</text>
</a>
</g>
</g>
<!-- Node1&#45;&gt;Node14 -->
<g id="edge15" class="edge">
<title>Node1&#45;&gt;Node14</title>
<path fill="none" stroke="midnightblue" d="M671.05,-171.93C717.54,-163.78 811.53,-147.13 891,-132 895.38,-131.17 900,-130.27 904.54,-129.37"/>
<polygon fill="midnightblue" stroke="midnightblue" points="670.32,-168.5 661.08,-173.68 671.53,-175.4 670.32,-168.5"/>
</g>
<!-- Node15 -->
<g id="node15" class="node">
<title>Node15</title>
<g id="a_node15"><a xlink:href="id3v2tag_8h.html" target="_top" xlink:title=" ">
<polygon fill="white" stroke="black" points="1469,-56.5 1469,-75.5 1531,-75.5 1531,-56.5 1469,-56.5"/>
<text text-anchor="middle" x="1500" y="-63.5" font-family="Helvetica,sans-Serif" font-size="10.00">id3v2tag.h</text>
</a>
</g>
</g>
<!-- Node1&#45;&gt;Node15 -->
<g id="edge16" class="edge">
<title>Node1&#45;&gt;Node15</title>
<path fill="none" stroke="midnightblue" d="M671.41,-173.52C713.65,-167.94 793.5,-155.18 858,-132 875.96,-125.55 877.63,-117.19 896,-112 1130.05,-45.92 1200.27,-102.67 1442,-76 1450.71,-75.04 1460.11,-73.71 1468.76,-72.36"/>
<polygon fill="midnightblue" stroke="midnightblue" points="670.74,-170.08 661.27,-174.82 671.63,-177.02 670.74,-170.08"/>
</g>
<!-- Node20 -->
<g id="node20" class="node">
<title>Node20</title>
<g id="a_node20"><a xlink:href="mpegfile_8h.html" target="_top" xlink:title=" ">
<polygon fill="white" stroke="black" points="1182,-56.5 1182,-75.5 1244,-75.5 1244,-56.5 1182,-56.5"/>
<text text-anchor="middle" x="1213" y="-63.5" font-family="Helvetica,sans-Serif" font-size="10.00">mpegfile.h</text>
</a>
</g>
</g>
<!-- Node1&#45;&gt;Node20 -->
<g id="edge21" class="edge">
<title>Node1&#45;&gt;Node20</title>
<path fill="none" stroke="midnightblue" d="M665.02,-162.78C694.71,-144.57 743.64,-114.97 753,-112 931.56,-55.27 987.85,-104.63 1173,-76 1175.81,-75.56 1178.72,-75.05 1181.63,-74.48"/>
<polygon fill="midnightblue" stroke="midnightblue" points="662.82,-160.03 656.14,-168.25 666.49,-165.99 662.82,-160.03"/>
</g>
<!-- Node21 -->
<g id="node21" class="node">
<title>Node21</title>
<g id="a_node21"><a xlink:href="xiphcomment_8h.html" target="_top" xlink:title=" ">
<polygon fill="white" stroke="black" points="1262.5,-56.5 1262.5,-75.5 1345.5,-75.5 1345.5,-56.5 1262.5,-56.5"/>
<text text-anchor="middle" x="1304" y="-63.5" font-family="Helvetica,sans-Serif" font-size="10.00">xiphcomment.h</text>
</a>
</g>
</g>
<!-- Node1&#45;&gt;Node21 -->
<g id="edge22" class="edge">
<title>Node1&#45;&gt;Node21</title>
<path fill="none" stroke="midnightblue" d="M670.44,-166.16C692.44,-157.54 723.52,-144.82 750,-132 766.47,-124.02 768.47,-117.27 786,-112 985.36,-52.07 1046.47,-102.12 1253,-76 1256.03,-75.62 1259.16,-75.18 1262.3,-74.7"/>
<polygon fill="midnightblue" stroke="midnightblue" points="669.07,-162.94 661.01,-169.83 671.6,-169.47 669.07,-162.94"/>
</g>
<!-- Node26 -->
<g id="node26" class="node">
<title>Node26</title>
<g id="a_node26"><a xlink:href="infotag_8h.html" target="_top" xlink:title=" ">
<polygon fill="white" stroke="black" points="795,-112.5 795,-131.5 849,-131.5 849,-112.5 795,-112.5"/>
<text text-anchor="middle" x="822" y="-119.5" font-family="Helvetica,sans-Serif" font-size="10.00">infotag.h</text>
</a>
</g>
</g>
<!-- Node1&#45;&gt;Node26 -->
<g id="edge27" class="edge">
<title>Node1&#45;&gt;Node26</title>
<path fill="none" stroke="midnightblue" d="M671.1,-168.27C705.23,-158.03 761.37,-141.19 794.7,-131.19"/>
<polygon fill="midnightblue" stroke="midnightblue" points="669.84,-165 661.26,-171.22 671.85,-171.7 669.84,-165"/>
</g>
<!-- Node27 -->
<g id="node27" class="node">
<title>Node27</title>
<g id="a_node27"><a xlink:href="tagunion_8h.html" target="_top" xlink:title=" ">
<polygon fill="white" stroke="black" points="985,-112.5 985,-131.5 1047,-131.5 1047,-112.5 985,-112.5"/>
<text text-anchor="middle" x="1016" y="-119.5" font-family="Helvetica,sans-Serif" font-size="10.00">tagunion.h</text>
</a>
</g>
</g>
<!-- Node1&#45;&gt;Node27 -->
<g id="edge29" class="edge">
<title>Node1&#45;&gt;Node27</title>
<path fill="none" stroke="midnightblue" d="M671.26,-173.93C729.52,-167.62 864.05,-152.1 976,-132 978.8,-131.5 981.71,-130.93 984.61,-130.34"/>
<polygon fill="midnightblue" stroke="midnightblue" points="670.86,-170.45 661.29,-175 671.61,-177.41 670.86,-170.45"/>
</g>
<!-- Node28 -->
<g id="node28" class="node">
<title>Node28</title>
<g id="a_node28"><a xlink:href="tfile_8h.html" target="_top" xlink:title=" ">
<polygon fill="white" stroke="black" points="621.5,-112.5 621.5,-131.5 662.5,-131.5 662.5,-112.5 621.5,-112.5"/>
<text text-anchor="middle" x="642" y="-119.5" font-family="Helvetica,sans-Serif" font-size="10.00">tfile.h</text>
</a>
</g>
</g>
<!-- Node1&#45;&gt;Node28 -->
<g id="edge30" class="edge">
<title>Node1&#45;&gt;Node28</title>
<path fill="none" stroke="midnightblue" d="M642,-157.8C642,-148.91 642,-138.78 642,-131.75"/>
<polygon fill="midnightblue" stroke="midnightblue" points="638.5,-158.08 642,-168.08 645.5,-158.08 638.5,-158.08"/>
</g>
<!-- Node4&#45;&gt;Node3 -->
<g id="edge4" class="edge">
<title>Node4&#45;&gt;Node3</title>
<path fill="none" stroke="midnightblue" d="M104.55,-102.4C107.72,-93.36 111.39,-82.94 113.92,-75.75"/>
<polygon fill="midnightblue" stroke="midnightblue" points="101.15,-101.49 101.14,-112.08 107.76,-103.81 101.15,-101.49"/>
</g>
<!-- Node7 -->
<g id="node7" class="node">
<title>Node7</title>
<g id="a_node7"><a xlink:href="itfile_8h.html" target="_top" xlink:title=" ">
<polygon fill="white" stroke="black" points="620.5,-0.5 620.5,-19.5 663.5,-19.5 663.5,-0.5 620.5,-0.5"/>
<text text-anchor="middle" x="642" y="-7.5" font-family="Helvetica,sans-Serif" font-size="10.00">itfile.h</text>
</a>
</g>
</g>
<!-- Node6&#45;&gt;Node7 -->
<g id="edge7" class="edge">
<title>Node6&#45;&gt;Node7</title>
<path fill="none" stroke="midnightblue" d="M489.6,-54.24C522.03,-45.18 569.57,-31.84 611,-20 614.02,-19.14 617.2,-18.22 620.33,-17.32"/>
<polygon fill="midnightblue" stroke="midnightblue" points="488.32,-50.96 479.63,-57.02 490.21,-57.71 488.32,-50.96"/>
</g>
<!-- Node8 -->
<g id="node8" class="node">
<title>Node8</title>
<g id="a_node8"><a xlink:href="modfile_8h.html" target="_top" xlink:title=" ">
<polygon fill="white" stroke="black" points="423,-0.5 423,-19.5 479,-19.5 479,-0.5 423,-0.5"/>
<text text-anchor="middle" x="451" y="-7.5" font-family="Helvetica,sans-Serif" font-size="10.00">modfile.h</text>
</a>
</g>
</g>
<!-- Node6&#45;&gt;Node8 -->
<g id="edge8" class="edge">
<title>Node6&#45;&gt;Node8</title>
<path fill="none" stroke="midnightblue" d="M451,-45.8C451,-36.91 451,-26.78 451,-19.75"/>
<polygon fill="midnightblue" stroke="midnightblue" points="447.5,-46.08 451,-56.08 454.5,-46.08 447.5,-46.08"/>
</g>
<!-- Node9 -->
<g id="node9" class="node">
<title>Node9</title>
<g id="a_node9"><a xlink:href="s3mfile_8h.html" target="_top" xlink:title=" ">
<polygon fill="white" stroke="black" points="546,-0.5 546,-19.5 602,-19.5 602,-0.5 546,-0.5"/>
<text text-anchor="middle" x="574" y="-7.5" font-family="Helvetica,sans-Serif" font-size="10.00">s3mfile.h</text>
</a>
</g>
</g>
<!-- Node6&#45;&gt;Node9 -->
<g id="edge9" class="edge">
<title>Node6&#45;&gt;Node9</title>
<path fill="none" stroke="midnightblue" d="M479.77,-52.37C502.81,-42.26 534.48,-28.35 554.6,-19.52"/>
<polygon fill="midnightblue" stroke="midnightblue" points="478.24,-49.22 470.49,-56.44 481.05,-55.63 478.24,-49.22"/>
</g>
<!-- Node10 -->
<g id="node10" class="node">
<title>Node10</title>
<g id="a_node10"><a xlink:href="xmfile_8h.html" target="_top" xlink:title=" ">
<polygon fill="white" stroke="black" points="681.5,-0.5 681.5,-19.5 732.5,-19.5 732.5,-0.5 681.5,-0.5"/>
<text text-anchor="middle" x="707" y="-7.5" font-family="Helvetica,sans-Serif" font-size="10.00">xmfile.h</text>
</a>
</g>
</g>
<!-- Node6&#45;&gt;Node10 -->
<g id="edge10" class="edge">
<title>Node6&#45;&gt;Node10</title>
<path fill="none" stroke="midnightblue" d="M489.86,-55.67C571.15,-38.14 593.9,-37.67 672,-20 675.06,-19.31 678.26,-18.54 681.43,-17.76"/>
<polygon fill="midnightblue" stroke="midnightblue" points="488.68,-52.35 479.65,-57.89 490.17,-59.19 488.68,-52.35"/>
</g>
<!-- Node12&#45;&gt;Node11 -->
<g id="edge13" class="edge">
<title>Node12&#45;&gt;Node11</title>
<path fill="none" stroke="midnightblue" d="M228,-45.8C228,-36.91 228,-26.78 228,-19.75"/>
<polygon fill="midnightblue" stroke="midnightblue" points="224.5,-46.08 228,-56.08 231.5,-46.08 224.5,-46.08"/>
</g>
<!-- Node16 -->
<g id="node16" class="node">
<title>Node16</title>
<g id="a_node16"><a xlink:href="chapterframe_8h.html" target="_top" xlink:title=" ">
<polygon fill="white" stroke="black" points="1621,-0.5 1621,-19.5 1703,-19.5 1703,-0.5 1621,-0.5"/>
<text text-anchor="middle" x="1662" y="-7.5" font-family="Helvetica,sans-Serif" font-size="10.00">chapterframe.h</text>
</a>
</g>
</g>
<!-- Node15&#45;&gt;Node16 -->
<g id="edge17" class="edge">
<title>Node15&#45;&gt;Node16</title>
<path fill="none" stroke="midnightblue" d="M1535.48,-53.17C1565.99,-43 1609.24,-28.59 1636.45,-19.52"/>
<polygon fill="midnightblue" stroke="midnightblue" points="1534.05,-49.96 1525.67,-56.44 1536.26,-56.6 1534.05,-49.96"/>
</g>
<!-- Node17 -->
<g id="node17" class="node">
<title>Node17</title>
<g id="a_node17"><a xlink:href="tableofcontentsframe_8h.html" target="_top" xlink:title=" ">
<polygon fill="white" stroke="black" points="1487,-0.5 1487,-19.5 1603,-19.5 1603,-0.5 1487,-0.5"/>
<text text-anchor="middle" x="1545" y="-7.5" font-family="Helvetica,sans-Serif" font-size="10.00">tableofcontentsframe.h</text>
</a>
</g>
</g>
<!-- Node15&#45;&gt;Node17 -->
<g id="edge18" class="edge">
<title>Node15&#45;&gt;Node17</title>
<path fill="none" stroke="midnightblue" d="M1514.05,-48.14C1521.89,-38.74 1531.33,-27.4 1537.71,-19.75"/>
<polygon fill="midnightblue" stroke="midnightblue" points="1511.14,-46.16 1507.43,-56.08 1516.52,-50.64 1511.14,-46.16"/>
</g>
<!-- Node18 -->
<g id="node18" class="node">
<title>Node18</title>
<g id="a_node18"><a xlink:href="aifffile_8h.html" target="_top" xlink:title=" ">
<polygon fill="white" stroke="black" points="1343.5,-0.5 1343.5,-19.5 1394.5,-19.5 1394.5,-0.5 1343.5,-0.5"/>
<text text-anchor="middle" x="1369" y="-7.5" font-family="Helvetica,sans-Serif" font-size="10.00">aifffile.h</text>
</a>
</g>
</g>
<!-- Node15&#45;&gt;Node18 -->
<g id="edge19" class="edge">
<title>Node15&#45;&gt;Node18</title>
<path fill="none" stroke="midnightblue" d="M1469.68,-52.5C1445.12,-42.38 1411.18,-28.39 1389.66,-19.52"/>
<polygon fill="midnightblue" stroke="midnightblue" points="1468.66,-55.87 1479.24,-56.44 1471.33,-49.4 1468.66,-55.87"/>
</g>
<!-- Node19 -->
<g id="node19" class="node">
<title>Node19</title>
<g id="a_node19"><a xlink:href="wavfile_8h.html" target="_top" xlink:title=" ">
<polygon fill="white" stroke="black" points="1413,-0.5 1413,-19.5 1469,-19.5 1469,-0.5 1413,-0.5"/>
<text text-anchor="middle" x="1441" y="-7.5" font-family="Helvetica,sans-Serif" font-size="10.00">wavfile.h</text>
</a>
</g>
</g>
<!-- Node15&#45;&gt;Node19 -->
<g id="edge20" class="edge">
<title>Node15&#45;&gt;Node19</title>
<path fill="none" stroke="midnightblue" d="M1483.11,-49.54C1472.59,-39.91 1459.43,-27.87 1450.65,-19.83"/>
<polygon fill="midnightblue" stroke="midnightblue" points="1480.78,-52.15 1490.52,-56.32 1485.51,-46.99 1480.78,-52.15"/>
</g>
<!-- Node22 -->
<g id="node22" class="node">
<title>Node22</title>
<g id="a_node22"><a xlink:href="oggflacfile_8h.html" target="_top" xlink:title=" ">
<polygon fill="white" stroke="black" points="961.5,-0.5 961.5,-19.5 1030.5,-19.5 1030.5,-0.5 961.5,-0.5"/>
<text text-anchor="middle" x="996" y="-7.5" font-family="Helvetica,sans-Serif" font-size="10.00">oggflacfile.h</text>
</a>
</g>
</g>
<!-- Node21&#45;&gt;Node22 -->
<g id="edge23" class="edge">
<title>Node21&#45;&gt;Node22</title>
<path fill="none" stroke="midnightblue" d="M1252.34,-55.89C1158.52,-39.59 1133.69,-36.13 1044,-20 1039.66,-19.22 1035.1,-18.38 1030.6,-17.55"/>
<polygon fill="midnightblue" stroke="midnightblue" points="1251.8,-59.35 1262.25,-57.62 1253,-52.46 1251.8,-59.35"/>
</g>
<!-- Node23 -->
<g id="node23" class="node">
<title>Node23</title>
<g id="a_node23"><a xlink:href="opusfile_8h.html" target="_top" xlink:title=" ">
<polygon fill="white" stroke="black" points="1052.5,-0.5 1052.5,-19.5 1111.5,-19.5 1111.5,-0.5 1052.5,-0.5"/>
<text text-anchor="middle" x="1082" y="-7.5" font-family="Helvetica,sans-Serif" font-size="10.00">opusfile.h</text>
</a>
</g>
</g>
<!-- Node21&#45;&gt;Node23 -->
<g id="edge24" class="edge">
<title>Node21&#45;&gt;Node23</title>
<path fill="none" stroke="midnightblue" d="M1258.97,-54.05C1215.03,-43.36 1149.45,-27.41 1111.68,-18.22"/>
<polygon fill="midnightblue" stroke="midnightblue" points="1258.28,-57.48 1268.82,-56.44 1259.93,-50.68 1258.28,-57.48"/>
</g>
<!-- Node24 -->
<g id="node24" class="node">
<title>Node24</title>
<g id="a_node24"><a xlink:href="speexfile_8h.html" target="_top" xlink:title=" ">
<polygon fill="white" stroke="black" points="1158,-0.5 1158,-19.5 1222,-19.5 1222,-0.5 1158,-0.5"/>
<text text-anchor="middle" x="1190" y="-7.5" font-family="Helvetica,sans-Serif" font-size="10.00">speexfile.h</text>
</a>
</g>
</g>
<!-- Node21&#45;&gt;Node24 -->
<g id="edge25" class="edge">
<title>Node21&#45;&gt;Node24</title>
<path fill="none" stroke="midnightblue" d="M1276.76,-52.1C1255.46,-42.01 1226.46,-28.27 1207.98,-19.52"/>
<polygon fill="midnightblue" stroke="midnightblue" points="1275.4,-55.33 1285.94,-56.44 1278.4,-49 1275.4,-55.33"/>
</g>
<!-- Node25 -->
<g id="node25" class="node">
<title>Node25</title>
<g id="a_node25"><a xlink:href="vorbisfile_8h.html" target="_top" xlink:title=" ">
<polygon fill="white" stroke="black" points="1254,-0.5 1254,-19.5 1318,-19.5 1318,-0.5 1254,-0.5"/>
<text text-anchor="middle" x="1286" y="-7.5" font-family="Helvetica,sans-Serif" font-size="10.00">vorbisfile.h</text>
</a>
</g>
</g>
<!-- Node21&#45;&gt;Node25 -->
<g id="edge26" class="edge">
<title>Node21&#45;&gt;Node25</title>
<path fill="none" stroke="midnightblue" d="M1297.8,-46.4C1294.79,-37.36 1291.31,-26.94 1288.92,-19.75"/>
<polygon fill="midnightblue" stroke="midnightblue" points="1294.54,-47.7 1301.03,-56.08 1301.19,-45.49 1294.54,-47.7"/>
</g>
<!-- Node26&#45;&gt;Node19 -->
<g id="edge28" class="edge">
<title>Node26&#45;&gt;Node19</title>
<path fill="none" stroke="midnightblue" d="M859.18,-112.58C860.46,-112.37 861.74,-112.18 863,-112 924.63,-103.3 1373.42,-114.91 1422,-76 1439.07,-62.33 1441.36,-34.21 1441.34,-19.86"/>
<polygon fill="midnightblue" stroke="midnightblue" points="858.44,-109.16 849.24,-114.42 859.71,-116.04 858.44,-109.16"/>
</g>
<!-- Node28&#45;&gt;Node3 -->
<g id="edge32" class="edge">
<title>Node28&#45;&gt;Node3</title>
<path fill="none" stroke="midnightblue" d="M610.9,-118.16C537.55,-111.4 348.04,-93.61 190,-76 174.26,-74.25 156.64,-72.08 142.66,-70.31"/>
<polygon fill="midnightblue" stroke="midnightblue" points="610.98,-121.68 621.26,-119.11 611.62,-114.71 610.98,-121.68"/>
</g>
<!-- Node28&#45;&gt;Node5 -->
<g id="edge34" class="edge">
<title>Node28&#45;&gt;Node5</title>
<path fill="none" stroke="midnightblue" d="M611.14,-117.07C556.64,-109.97 439.84,-94.05 342,-76 337.41,-75.15 332.56,-74.17 327.85,-73.17"/>
<polygon fill="midnightblue" stroke="midnightblue" points="610.82,-120.56 621.19,-118.37 611.72,-113.61 610.82,-120.56"/>
</g>
<!-- Node28&#45;&gt;Node7 -->
<g id="edge35" class="edge">
<title>Node28&#45;&gt;Node7</title>
<path fill="none" stroke="midnightblue" d="M664.17,-106.16C673.72,-98.42 683.85,-88.05 689,-76 698.57,-53.59 673.09,-31.44 656.01,-19.67"/>
<polygon fill="midnightblue" stroke="midnightblue" points="661.96,-103.45 656.08,-112.26 666.17,-109.04 661.96,-103.45"/>
</g>
<!-- Node28&#45;&gt;Node8 -->
<g id="edge36" class="edge">
<title>Node28&#45;&gt;Node8</title>
<path fill="none" stroke="midnightblue" d="M611.37,-119.63C554.88,-116.39 437.79,-106.13 413,-76 397.89,-57.63 423.47,-32.53 439.52,-19.55"/>
<polygon fill="midnightblue" stroke="midnightblue" points="611.32,-123.13 621.5,-120.17 611.7,-116.14 611.32,-123.13"/>
</g>
<!-- Node28&#45;&gt;Node9 -->
<g id="edge54" class="edge">
<title>Node28&#45;&gt;Node9</title>
<path fill="none" stroke="midnightblue" d="M621.68,-106.06C612.1,-98.08 601.2,-87.54 594,-76 582.62,-57.77 577.31,-32.61 575.19,-19.58"/>
<polygon fill="midnightblue" stroke="midnightblue" points="619.64,-108.9 629.65,-112.37 623.98,-103.42 619.64,-108.9"/>
</g>
<!-- Node28&#45;&gt;Node10 -->
<g id="edge57" class="edge">
<title>Node28&#45;&gt;Node10</title>
<path fill="none" stroke="midnightblue" d="M671.37,-107.66C684.06,-100.26 697.66,-89.74 705,-76 714.68,-57.88 711.61,-32.67 709.02,-19.61"/>
<polygon fill="midnightblue" stroke="midnightblue" points="669.53,-104.67 662.39,-112.5 672.85,-110.84 669.53,-104.67"/>
</g>
<!-- Node28&#45;&gt;Node11 -->
<g id="edge42" class="edge">
<title>Node28&#45;&gt;Node11</title>
<path fill="none" stroke="midnightblue" d="M611.35,-116.83C565.82,-110.26 477.87,-96.15 405,-76 346.63,-59.86 280.19,-33.1 247.82,-19.5"/>
<polygon fill="midnightblue" stroke="midnightblue" points="611.06,-120.32 621.45,-118.26 612.04,-113.39 611.06,-120.32"/>
</g>
<!-- Node28&#45;&gt;Node12 -->
<g id="edge43" class="edge">
<title>Node28&#45;&gt;Node12</title>
<path fill="none" stroke="midnightblue" d="M611.15,-118.58C546.57,-113.23 392.54,-99.04 265,-76 262.27,-75.51 259.44,-74.93 256.61,-74.32"/>
<polygon fill="midnightblue" stroke="midnightblue" points="611.19,-122.09 621.44,-119.42 611.76,-115.12 611.19,-122.09"/>
</g>
<!-- Node28&#45;&gt;Node13 -->
<g id="edge44" class="edge">
<title>Node28&#45;&gt;Node13</title>
<path fill="none" stroke="midnightblue" d="M672.52,-112.83C674.03,-112.53 675.53,-112.25 677,-112 862.57,-80.45 913.22,-106.33 1099,-76 1101.87,-75.53 1104.85,-74.96 1107.81,-74.33"/>
<polygon fill="midnightblue" stroke="midnightblue" points="671.58,-109.46 662.61,-115.09 673.13,-116.29 671.58,-109.46"/>
</g>
<!-- Node28&#45;&gt;Node20 -->
<g id="edge45" class="edge">
<title>Node28&#45;&gt;Node20</title>
<path fill="none" stroke="midnightblue" d="M673.01,-116.87C685.98,-115.22 701.2,-113.39 715,-112 918.15,-91.5 971.11,-106.49 1173,-76 1175.82,-75.57 1178.73,-75.06 1181.64,-74.5"/>
<polygon fill="midnightblue" stroke="midnightblue" points="672.21,-113.44 662.74,-118.2 673.11,-120.39 672.21,-113.44"/>
</g>
<!-- Node29 -->
<g id="node29" class="node">
<title>Node29</title>
<g id="a_node29"><a xlink:href="apefile_8h.html" target="_top" xlink:title=" ">
<polygon fill="white" stroke="black" points="1036.5,-56.5 1036.5,-75.5 1089.5,-75.5 1089.5,-56.5 1036.5,-56.5"/>
<text text-anchor="middle" x="1063" y="-63.5" font-family="Helvetica,sans-Serif" font-size="10.00">apefile.h</text>
</a>
</g>
</g>
<!-- Node28&#45;&gt;Node29 -->
<g id="edge31" class="edge">
<title>Node28&#45;&gt;Node29</title>
<path fill="none" stroke="midnightblue" d="M672.53,-112.87C674.04,-112.55 675.53,-112.26 677,-112 831.37,-84.4 873.63,-103.6 1028,-76 1030.72,-75.51 1033.53,-74.93 1036.34,-74.29"/>
<polygon fill="midnightblue" stroke="midnightblue" points="671.57,-109.49 662.62,-115.15 673.15,-116.32 671.57,-109.49"/>
</g>
<!-- Node30 -->
<g id="node30" class="node">
<title>Node30</title>
<g id="a_node30"><a xlink:href="fileref_8h.html" target="_top" xlink:title=" ">
<polygon fill="white" stroke="black" points="497.5,-56.5 497.5,-75.5 546.5,-75.5 546.5,-56.5 497.5,-56.5"/>
<text text-anchor="middle" x="522" y="-63.5" font-family="Helvetica,sans-Serif" font-size="10.00">fileref.h</text>
</a>
</g>
</g>
<!-- Node28&#45;&gt;Node30 -->
<g id="edge33" class="edge">
<title>Node28&#45;&gt;Node30</title>
<path fill="none" stroke="midnightblue" d="M613.63,-108.23C591.18,-98.13 560.46,-84.31 540.93,-75.52"/>
<polygon fill="midnightblue" stroke="midnightblue" points="612.43,-111.53 622.99,-112.44 615.3,-105.15 612.43,-111.53"/>
</g>
<!-- Node31 -->
<g id="node31" class="node">
<title>Node31</title>
<g id="a_node31"><a xlink:href="modfilebase_8h.html" target="_top" xlink:title=" ">
<polygon fill="white" stroke="black" points="603.5,-56.5 603.5,-75.5 680.5,-75.5 680.5,-56.5 603.5,-56.5"/>
<text text-anchor="middle" x="642" y="-63.5" font-family="Helvetica,sans-Serif" font-size="10.00">modfilebase.h</text>
</a>
</g>
</g>
<!-- Node28&#45;&gt;Node31 -->
<g id="edge37" class="edge">
<title>Node28&#45;&gt;Node31</title>
<path fill="none" stroke="midnightblue" d="M642,-101.8C642,-92.91 642,-82.78 642,-75.75"/>
<polygon fill="midnightblue" stroke="midnightblue" points="638.5,-102.08 642,-112.08 645.5,-102.08 638.5,-102.08"/>
</g>
<!-- Node32 -->
<g id="node32" class="node">
<title>Node32</title>
<g id="a_node32"><a xlink:href="oggfile_8h.html" target="_top" xlink:title=" ">
<polygon fill="white" stroke="black" points="965.5,-56.5 965.5,-75.5 1018.5,-75.5 1018.5,-56.5 965.5,-56.5"/>
<text text-anchor="middle" x="992" y="-63.5" font-family="Helvetica,sans-Serif" font-size="10.00">oggfile.h</text>
</a>
</g>
</g>
<!-- Node28&#45;&gt;Node32 -->
<g id="edge46" class="edge">
<title>Node28&#45;&gt;Node32</title>
<path fill="none" stroke="midnightblue" d="M672.54,-112.91C674.04,-112.59 675.54,-112.28 677,-112 800.22,-88.33 833.78,-99.67 957,-76 959.71,-75.48 962.52,-74.87 965.32,-74.22"/>
<polygon fill="midnightblue" stroke="midnightblue" points="671.56,-109.55 662.63,-115.24 673.17,-116.36 671.56,-109.55"/>
</g>
<!-- Node33 -->
<g id="node33" class="node">
<title>Node33</title>
<g id="a_node33"><a xlink:href="rifffile_8h.html" target="_top" xlink:title=" ">
<polygon fill="white" stroke="black" points="1363.5,-56.5 1363.5,-75.5 1412.5,-75.5 1412.5,-56.5 1363.5,-56.5"/>
<text text-anchor="middle" x="1388" y="-63.5" font-family="Helvetica,sans-Serif" font-size="10.00">rifffile.h</text>
</a>
</g>
</g>
<!-- Node28&#45;&gt;Node33 -->
<g id="edge51" class="edge">
<title>Node28&#45;&gt;Node33</title>
<path fill="none" stroke="midnightblue" d="M673,-119.06C809.53,-110.54 1350.72,-76.71 1355,-76 1357.69,-75.55 1360.49,-74.97 1363.25,-74.33"/>
<polygon fill="midnightblue" stroke="midnightblue" points="672.58,-115.58 662.81,-119.7 673.01,-122.57 672.58,-115.58"/>
</g>
<!-- Node34 -->
<g id="node34" class="node">
<title>Node34</title>
<g id="a_node34"><a xlink:href="trueaudiofile_8h.html" target="_top" xlink:title=" ">
<polygon fill="white" stroke="black" points="775.5,-56.5 775.5,-75.5 852.5,-75.5 852.5,-56.5 775.5,-56.5"/>
<text text-anchor="middle" x="814" y="-63.5" font-family="Helvetica,sans-Serif" font-size="10.00">trueaudiofile.h</text>
</a>
</g>
</g>
<!-- Node28&#45;&gt;Node34 -->
<g id="edge55" class="edge">
<title>Node28&#45;&gt;Node34</title>
<path fill="none" stroke="midnightblue" d="M672.57,-111.4C704.94,-101.24 755.57,-85.34 786.66,-75.58"/>
<polygon fill="midnightblue" stroke="midnightblue" points="671.24,-108.15 662.75,-114.49 673.34,-114.83 671.24,-108.15"/>
</g>
<!-- Node35 -->
<g id="node35" class="node">
<title>Node35</title>
<g id="a_node35"><a xlink:href="wavpackfile_8h.html" target="_top" xlink:title=" ">
<polygon fill="white" stroke="black" points="870.5,-56.5 870.5,-75.5 947.5,-75.5 947.5,-56.5 870.5,-56.5"/>
<text text-anchor="middle" x="909" y="-63.5" font-family="Helvetica,sans-Serif" font-size="10.00">wavpackfile.h</text>
</a>
</g>
</g>
<!-- Node28&#45;&gt;Node35 -->
<g id="edge56" class="edge">
<title>Node28&#45;&gt;Node35</title>
<path fill="none" stroke="midnightblue" d="M672.56,-113.03C674.06,-112.67 675.55,-112.33 677,-112 686.39,-109.88 806.8,-86.67 870.33,-74.44"/>
<polygon fill="midnightblue" stroke="midnightblue" points="671.55,-109.67 662.68,-115.46 673.23,-116.47 671.55,-109.67"/>
</g>
<!-- Node31&#45;&gt;Node7 -->
<g id="edge38" class="edge">
<title>Node31&#45;&gt;Node7</title>
<path fill="none" stroke="midnightblue" d="M642,-45.8C642,-36.91 642,-26.78 642,-19.75"/>
<polygon fill="midnightblue" stroke="midnightblue" points="638.5,-46.08 642,-56.08 645.5,-46.08 638.5,-46.08"/>
</g>
<!-- Node31&#45;&gt;Node8 -->
<g id="edge39" class="edge">
<title>Node31&#45;&gt;Node8</title>
<path fill="none" stroke="midnightblue" d="M601.85,-53.65C565.11,-43.26 511.68,-28.16 479.25,-18.99"/>
<polygon fill="midnightblue" stroke="midnightblue" points="601.16,-57.09 611.74,-56.44 603.06,-50.35 601.16,-57.09"/>
</g>
<!-- Node31&#45;&gt;Node9 -->
<g id="edge40" class="edge">
<title>Node31&#45;&gt;Node9</title>
<path fill="none" stroke="midnightblue" d="M623.24,-50.1C611,-40.38 595.44,-28.03 585.12,-19.83"/>
<polygon fill="midnightblue" stroke="midnightblue" points="621.07,-52.85 631.07,-56.32 625.42,-47.36 621.07,-52.85"/>
</g>
<!-- Node31&#45;&gt;Node10 -->
<g id="edge41" class="edge">
<title>Node31&#45;&gt;Node10</title>
<path fill="none" stroke="midnightblue" d="M660.27,-49.82C671.92,-40.15 686.6,-27.95 696.37,-19.83"/>
<polygon fill="midnightblue" stroke="midnightblue" points="657.9,-47.24 652.44,-56.32 662.37,-52.63 657.9,-47.24"/>
</g>
<!-- Node32&#45;&gt;Node22 -->
<g id="edge47" class="edge">
<title>Node32&#45;&gt;Node22</title>
<path fill="none" stroke="midnightblue" d="M993.4,-46.1C994.06,-37.14 994.83,-26.86 995.35,-19.75"/>
<polygon fill="midnightblue" stroke="midnightblue" points="989.91,-45.85 992.66,-56.08 996.89,-46.37 989.91,-45.85"/>
</g>
<!-- Node32&#45;&gt;Node23 -->
<g id="edge48" class="edge">
<title>Node32&#45;&gt;Node23</title>
<path fill="none" stroke="midnightblue" d="M1015.04,-51.18C1031.6,-41.24 1053.42,-28.15 1067.58,-19.65"/>
<polygon fill="midnightblue" stroke="midnightblue" points="1013.23,-48.18 1006.46,-56.32 1016.84,-54.18 1013.23,-48.18"/>
</g>
<!-- Node32&#45;&gt;Node24 -->
<g id="edge49" class="edge">
<title>Node32&#45;&gt;Node24</title>
<path fill="none" stroke="midnightblue" d="M1028.66,-55C1065.97,-44.83 1123.18,-29.22 1158.5,-19.59"/>
<polygon fill="midnightblue" stroke="midnightblue" points="1027.43,-51.71 1018.7,-57.72 1029.27,-58.46 1027.43,-51.71"/>
</g>
<!-- Node32&#45;&gt;Node25 -->
<g id="edge50" class="edge">
<title>Node32&#45;&gt;Node25</title>
<path fill="none" stroke="midnightblue" d="M1028.54,-56.05C1084.98,-44.55 1197.95,-25.59 1253.69,-16.33"/>
<polygon fill="midnightblue" stroke="midnightblue" points="1027.76,-52.63 1018.69,-58.1 1029.19,-59.49 1027.76,-52.63"/>
</g>
<!-- Node33&#45;&gt;Node18 -->
<g id="edge52" class="edge">
<title>Node33&#45;&gt;Node18</title>
<path fill="none" stroke="midnightblue" d="M1381.45,-46.4C1378.28,-37.36 1374.61,-26.94 1372.08,-19.75"/>
<polygon fill="midnightblue" stroke="midnightblue" points="1378.24,-47.81 1384.86,-56.08 1384.85,-45.49 1378.24,-47.81"/>
</g>
<!-- Node33&#45;&gt;Node19 -->
<g id="edge53" class="edge">
<title>Node33&#45;&gt;Node19</title>
<path fill="none" stroke="midnightblue" d="M1403.98,-48.72C1413.32,-39.2 1424.75,-27.56 1432.41,-19.75"/>
<polygon fill="midnightblue" stroke="midnightblue" points="1401.26,-46.49 1396.75,-56.08 1406.25,-51.4 1401.26,-46.49"/>
</g>
</g>
</svg>
