<?xml version="1.0" encoding="UTF-8" standalone="no"?>
<!DOCTYPE svg PUBLIC "-//W3C//DTD SVG 1.1//EN"
 "http://www.w3.org/Graphics/SVG/1.1/DTD/svg11.dtd">
<!-- Generated by graphviz version 2.43.0 (0)
 -->
<!-- Title: tag.h Pages: 1 -->
<svg width="1835pt" height="196pt"
 viewBox="0.00 0.00 1834.50 196.00" xmlns="http://www.w3.org/2000/svg" xmlns:xlink="http://www.w3.org/1999/xlink">
<g id="graph0" class="graph" transform="scale(1 1) rotate(0) translate(4 192)">
<title>tag.h</title>
<polygon fill="white" stroke="transparent" points="-4,4 -4,-192 1830.5,-192 1830.5,4 -4,4"/>
<!-- Node1 -->
<g id="node1" class="node">
<title>Node1</title>
<g id="a_node1"><a xlink:title=" ">
<polygon fill="#bfbfbf" stroke="black" points="656,-168.5 656,-187.5 697,-187.5 697,-168.5 656,-168.5"/>
<text text-anchor="middle" x="676.5" y="-175.5" font-family="Helvetica,sans-Serif" font-size="10.00">tag.h</text>
</a>
</g>
</g>
<!-- Node2 -->
<g id="node2" class="node">
<title>Node2</title>
<g id="a_node2"><a xlink:href="apetag_8h.html" target="_top" xlink:title=" ">
<polygon fill="white" stroke="black" points="0,-112.5 0,-131.5 59,-131.5 59,-112.5 0,-112.5"/>
<text text-anchor="middle" x="29.5" y="-119.5" font-family="Helvetica,sans-Serif" font-size="10.00">apetag.h</text>
</a>
</g>
</g>
<!-- Node1&#45;&gt;Node2 -->
<g id="edge1" class="edge">
<title>Node1&#45;&gt;Node2</title>
<path fill="none" stroke="midnightblue" d="M645.9,-176.39C556.52,-174.24 288.23,-165.28 68.5,-132 65.48,-131.54 62.34,-130.98 59.22,-130.35"/>
<polygon fill="midnightblue" stroke="midnightblue" points="645.83,-179.89 655.9,-176.62 645.99,-172.89 645.83,-179.89"/>
</g>
<!-- Node3 -->
<g id="node3" class="node">
<title>Node3</title>
<g id="a_node3"><a xlink:href="asffile_8h.html" target="_top" xlink:title=" ">
<polygon fill="white" stroke="black" points="96.5,-56.5 96.5,-75.5 152.5,-75.5 152.5,-56.5 96.5,-56.5"/>
<text text-anchor="middle" x="124.5" y="-63.5" font-family="Helvetica,sans-Serif" font-size="10.00">asffile.h</text>
</a>
</g>
</g>
<!-- Node1&#45;&gt;Node3 -->
<g id="edge2" class="edge">
<title>Node1&#45;&gt;Node3</title>
<path fill="none" stroke="midnightblue" d="M645.94,-177C551.74,-176.57 267.25,-171.92 185.5,-132 159.36,-119.23 138.71,-90.16 129.59,-75.62"/>
<polygon fill="midnightblue" stroke="midnightblue" points="645.95,-180.5 655.96,-177.03 645.98,-173.5 645.95,-180.5"/>
</g>
<!-- Node4 -->
<g id="node4" class="node">
<title>Node4</title>
<g id="a_node4"><a xlink:href="asftag_8h.html" target="_top" xlink:title=" ">
<polygon fill="white" stroke="black" points="77.5,-112.5 77.5,-131.5 133.5,-131.5 133.5,-112.5 77.5,-112.5"/>
<text text-anchor="middle" x="105.5" y="-119.5" font-family="Helvetica,sans-Serif" font-size="10.00">asftag.h</text>
</a>
</g>
</g>
<!-- Node1&#45;&gt;Node4 -->
<g id="edge3" class="edge">
<title>Node1&#45;&gt;Node4</title>
<path fill="none" stroke="midnightblue" d="M645.62,-175.74C563.93,-172.1 335.52,-160.03 147.5,-132 143.07,-131.34 138.42,-130.5 133.88,-129.59"/>
<polygon fill="midnightblue" stroke="midnightblue" points="645.58,-179.24 655.72,-176.18 645.88,-172.25 645.58,-179.24"/>
</g>
<!-- Node5 -->
<g id="node5" class="node">
<title>Node5</title>
<g id="a_node5"><a xlink:href="flacfile_8h.html" target="_top" xlink:title=" ">
<polygon fill="white" stroke="black" points="290.5,-56.5 290.5,-75.5 348.5,-75.5 348.5,-56.5 290.5,-56.5"/>
<text text-anchor="middle" x="319.5" y="-63.5" font-family="Helvetica,sans-Serif" font-size="10.00">flacfile.h</text>
</a>
</g>
</g>
<!-- Node1&#45;&gt;Node5 -->
<g id="edge5" class="edge">
<title>Node1&#45;&gt;Node5</title>
<path fill="none" stroke="midnightblue" d="M646.02,-167.61C577.65,-146.54 412.89,-95.78 347.21,-75.54"/>
<polygon fill="midnightblue" stroke="midnightblue" points="645.18,-171.01 655.76,-170.61 647.24,-164.32 645.18,-171.01"/>
</g>
<!-- Node6 -->
<g id="node6" class="node">
<title>Node6</title>
<g id="a_node6"><a xlink:href="modtag_8h.html" target="_top" xlink:title=" ">
<polygon fill="white" stroke="black" points="443,-56.5 443,-75.5 506,-75.5 506,-56.5 443,-56.5"/>
<text text-anchor="middle" x="474.5" y="-63.5" font-family="Helvetica,sans-Serif" font-size="10.00">modtag.h</text>
</a>
</g>
</g>
<!-- Node1&#45;&gt;Node6 -->
<g id="edge6" class="edge">
<title>Node1&#45;&gt;Node6</title>
<path fill="none" stroke="midnightblue" d="M651.61,-163.45C609.47,-140.5 525.24,-94.63 490.28,-75.59"/>
<polygon fill="midnightblue" stroke="midnightblue" points="650.19,-166.66 660.65,-168.37 653.54,-160.51 650.19,-166.66"/>
</g>
<!-- Node11 -->
<g id="node11" class="node">
<title>Node11</title>
<g id="a_node11"><a xlink:href="mp4file_8h.html" target="_top" xlink:title=" ">
<polygon fill="white" stroke="black" points="209.5,-0.5 209.5,-19.5 271.5,-19.5 271.5,-0.5 209.5,-0.5"/>
<text text-anchor="middle" x="240.5" y="-7.5" font-family="Helvetica,sans-Serif" font-size="10.00">mp4file.h</text>
</a>
</g>
</g>
<!-- Node1&#45;&gt;Node11 -->
<g id="edge11" class="edge">
<title>Node1&#45;&gt;Node11</title>
<path fill="none" stroke="midnightblue" d="M645.88,-175.57C549.16,-170.33 253.4,-148.52 199.5,-76 185.17,-56.73 211.26,-32.42 228.02,-19.69"/>
<polygon fill="midnightblue" stroke="midnightblue" points="645.72,-179.07 655.89,-176.09 646.09,-172.08 645.72,-179.07"/>
</g>
<!-- Node12 -->
<g id="node12" class="node">
<title>Node12</title>
<g id="a_node12"><a xlink:href="mp4tag_8h.html" target="_top" xlink:title=" ">
<polygon fill="white" stroke="black" points="209,-56.5 209,-75.5 272,-75.5 272,-56.5 209,-56.5"/>
<text text-anchor="middle" x="240.5" y="-63.5" font-family="Helvetica,sans-Serif" font-size="10.00">mp4tag.h</text>
</a>
</g>
</g>
<!-- Node1&#45;&gt;Node12 -->
<g id="edge12" class="edge">
<title>Node1&#45;&gt;Node12</title>
<path fill="none" stroke="midnightblue" d="M645.64,-171.29C603.9,-163.39 527.2,-148.25 462.5,-132 391.42,-114.15 308.86,-88.72 267.31,-75.58"/>
<polygon fill="midnightblue" stroke="midnightblue" points="645.24,-174.78 655.72,-173.19 646.54,-167.9 645.24,-174.78"/>
</g>
<!-- Node13 -->
<g id="node13" class="node">
<title>Node13</title>
<g id="a_node13"><a xlink:href="mpcfile_8h.html" target="_top" xlink:title=" ">
<polygon fill="white" stroke="black" points="1176.5,-56.5 1176.5,-75.5 1238.5,-75.5 1238.5,-56.5 1176.5,-56.5"/>
<text text-anchor="middle" x="1207.5" y="-63.5" font-family="Helvetica,sans-Serif" font-size="10.00">mpcfile.h</text>
</a>
</g>
</g>
<!-- Node1&#45;&gt;Node13 -->
<g id="edge14" class="edge">
<title>Node1&#45;&gt;Node13</title>
<path fill="none" stroke="midnightblue" d="M689.65,-160.56C703.11,-145.06 725.55,-122.65 750.5,-112 836.04,-75.49 1075.59,-90.24 1167.5,-76 1170.31,-75.56 1173.22,-75.04 1176.13,-74.48"/>
<polygon fill="midnightblue" stroke="midnightblue" points="686.86,-158.43 683.13,-168.35 692.23,-162.93 686.86,-158.43"/>
</g>
<!-- Node14 -->
<g id="node14" class="node">
<title>Node14</title>
<g id="a_node14"><a xlink:href="id3v1tag_8h.html" target="_top" xlink:title=" ">
<polygon fill="white" stroke="black" points="946.5,-112.5 946.5,-131.5 1014.5,-131.5 1014.5,-112.5 946.5,-112.5"/>
<text text-anchor="middle" x="980.5" y="-119.5" font-family="Helvetica,sans-Serif" font-size="10.00">id3v1tag.h</text>
</a>
</g>
</g>
<!-- Node1&#45;&gt;Node14 -->
<g id="edge15" class="edge">
<title>Node1&#45;&gt;Node14</title>
<path fill="none" stroke="midnightblue" d="M707.14,-171.73C755.19,-163.44 851.18,-146.77 932.5,-132 937,-131.18 941.74,-130.31 946.42,-129.44"/>
<polygon fill="midnightblue" stroke="midnightblue" points="706.35,-168.31 697.09,-173.46 707.54,-175.21 706.35,-168.31"/>
</g>
<!-- Node15 -->
<g id="node15" class="node">
<title>Node15</title>
<g id="a_node15"><a xlink:href="id3v2tag_8h.html" target="_top" xlink:title=" ">
<polygon fill="white" stroke="black" points="1564.5,-56.5 1564.5,-75.5 1632.5,-75.5 1632.5,-56.5 1564.5,-56.5"/>
<text text-anchor="middle" x="1598.5" y="-63.5" font-family="Helvetica,sans-Serif" font-size="10.00">id3v2tag.h</text>
</a>
</g>
</g>
<!-- Node1&#45;&gt;Node15 -->
<g id="edge16" class="edge">
<title>Node1&#45;&gt;Node15</title>
<path fill="none" stroke="midnightblue" d="M706.98,-173.65C750.63,-168.22 832.98,-155.66 899.5,-132 917.48,-125.6 919.12,-117.13 937.5,-112 1194.81,-40.18 1271.78,-103.52 1537.5,-76 1546.23,-75.1 1555.63,-73.85 1564.37,-72.57"/>
<polygon fill="midnightblue" stroke="midnightblue" points="706.52,-170.18 697.01,-174.84 707.36,-177.13 706.52,-170.18"/>
</g>
<!-- Node20 -->
<g id="node20" class="node">
<title>Node20</title>
<g id="a_node20"><a xlink:href="mpegfile_8h.html" target="_top" xlink:title=" ">
<polygon fill="white" stroke="black" points="1256.5,-56.5 1256.5,-75.5 1324.5,-75.5 1324.5,-56.5 1256.5,-56.5"/>
<text text-anchor="middle" x="1290.5" y="-63.5" font-family="Helvetica,sans-Serif" font-size="10.00">mpegfile.h</text>
</a>
</g>
</g>
<!-- Node1&#45;&gt;Node20 -->
<g id="edge21" class="edge">
<title>Node1&#45;&gt;Node20</title>
<path fill="none" stroke="midnightblue" d="M699.34,-163.01C729.26,-144.8 779.02,-114.95 788.5,-112 983.86,-51.13 1044.94,-105.02 1247.5,-76 1250.37,-75.59 1253.33,-75.1 1256.3,-74.57"/>
<polygon fill="midnightblue" stroke="midnightblue" points="697.48,-160.05 690.76,-168.24 701.12,-166.02 697.48,-160.05"/>
</g>
<!-- Node21 -->
<g id="node21" class="node">
<title>Node21</title>
<g id="a_node21"><a xlink:href="xiphcomment_8h.html" target="_top" xlink:title=" ">
<polygon fill="white" stroke="black" points="1343,-56.5 1343,-75.5 1436,-75.5 1436,-56.5 1343,-56.5"/>
<text text-anchor="middle" x="1389.5" y="-63.5" font-family="Helvetica,sans-Serif" font-size="10.00">xiphcomment.h</text>
</a>
</g>
</g>
<!-- Node1&#45;&gt;Node21 -->
<g id="edge22" class="edge">
<title>Node1&#45;&gt;Node21</title>
<path fill="none" stroke="midnightblue" d="M706.49,-165.45C728.36,-156.79 758.59,-144.36 784.5,-132 801.37,-123.95 803.55,-117.22 821.5,-112 1040.55,-48.33 1106.88,-102.12 1333.5,-76 1336.53,-75.65 1339.65,-75.25 1342.79,-74.83"/>
<polygon fill="midnightblue" stroke="midnightblue" points="705.1,-162.23 697.07,-169.14 707.66,-168.75 705.1,-162.23"/>
</g>
<!-- Node26 -->
<g id="node26" class="node">
<title>Node26</title>
<g id="a_node26"><a xlink:href="infotag_8h.html" target="_top" xlink:title=" ">
<polygon fill="white" stroke="black" points="830.5,-112.5 830.5,-131.5 890.5,-131.5 890.5,-112.5 830.5,-112.5"/>
<text text-anchor="middle" x="860.5" y="-119.5" font-family="Helvetica,sans-Serif" font-size="10.00">infotag.h</text>
</a>
</g>
</g>
<!-- Node1&#45;&gt;Node26 -->
<g id="edge27" class="edge">
<title>Node1&#45;&gt;Node26</title>
<path fill="none" stroke="midnightblue" d="M707.25,-167.98C741.81,-157.83 797.49,-141.49 831.37,-131.55"/>
<polygon fill="midnightblue" stroke="midnightblue" points="705.86,-164.74 697.25,-170.91 707.83,-171.45 705.86,-164.74"/>
</g>
<!-- Node27 -->
<g id="node27" class="node">
<title>Node27</title>
<g id="a_node27"><a xlink:href="tagunion_8h.html" target="_top" xlink:title=" ">
<polygon fill="white" stroke="black" points="1032.5,-112.5 1032.5,-131.5 1100.5,-131.5 1100.5,-112.5 1032.5,-112.5"/>
<text text-anchor="middle" x="1066.5" y="-119.5" font-family="Helvetica,sans-Serif" font-size="10.00">tagunion.h</text>
</a>
</g>
</g>
<!-- Node1&#45;&gt;Node27 -->
<g id="edge29" class="edge">
<title>Node1&#45;&gt;Node27</title>
<path fill="none" stroke="midnightblue" d="M707.39,-173.81C768.14,-167.34 907.39,-151.65 1023.5,-132 1026.36,-131.52 1029.31,-130.98 1032.28,-130.41"/>
<polygon fill="midnightblue" stroke="midnightblue" points="706.89,-170.34 697.31,-174.87 707.62,-177.3 706.89,-170.34"/>
</g>
<!-- Node28 -->
<g id="node28" class="node">
<title>Node28</title>
<g id="a_node28"><a xlink:href="tfile_8h.html" target="_top" xlink:title=" ">
<polygon fill="white" stroke="black" points="654.5,-112.5 654.5,-131.5 698.5,-131.5 698.5,-112.5 654.5,-112.5"/>
<text text-anchor="middle" x="676.5" y="-119.5" font-family="Helvetica,sans-Serif" font-size="10.00">tfile.h</text>
</a>
</g>
</g>
<!-- Node1&#45;&gt;Node28 -->
<g id="edge30" class="edge">
<title>Node1&#45;&gt;Node28</title>
<path fill="none" stroke="midnightblue" d="M676.5,-157.8C676.5,-148.91 676.5,-138.78 676.5,-131.75"/>
<polygon fill="midnightblue" stroke="midnightblue" points="673,-158.08 676.5,-168.08 680,-158.08 673,-158.08"/>
</g>
<!-- Node4&#45;&gt;Node3 -->
<g id="edge4" class="edge">
<title>Node4&#45;&gt;Node3</title>
<path fill="none" stroke="midnightblue" d="M112.05,-102.4C115.22,-93.36 118.89,-82.94 121.42,-75.75"/>
<polygon fill="midnightblue" stroke="midnightblue" points="108.65,-101.49 108.64,-112.08 115.26,-103.81 108.65,-101.49"/>
</g>
<!-- Node7 -->
<g id="node7" class="node">
<title>Node7</title>
<g id="a_node7"><a xlink:href="itfile_8h.html" target="_top" xlink:title=" ">
<polygon fill="white" stroke="black" points="653,-0.5 653,-19.5 700,-19.5 700,-0.5 653,-0.5"/>
<text text-anchor="middle" x="676.5" y="-7.5" font-family="Helvetica,sans-Serif" font-size="10.00">itfile.h</text>
</a>
</g>
</g>
<!-- Node6&#45;&gt;Node7 -->
<g id="edge7" class="edge">
<title>Node6&#45;&gt;Node7</title>
<path fill="none" stroke="midnightblue" d="M516.38,-53.92C550.6,-44.86 600.19,-31.67 643.5,-20 646.48,-19.2 649.61,-18.35 652.71,-17.51"/>
<polygon fill="midnightblue" stroke="midnightblue" points="515.06,-50.65 506.29,-56.6 516.85,-57.42 515.06,-50.65"/>
</g>
<!-- Node8 -->
<g id="node8" class="node">
<title>Node8</title>
<g id="a_node8"><a xlink:href="modfile_8h.html" target="_top" xlink:title=" ">
<polygon fill="white" stroke="black" points="443.5,-0.5 443.5,-19.5 505.5,-19.5 505.5,-0.5 443.5,-0.5"/>
<text text-anchor="middle" x="474.5" y="-7.5" font-family="Helvetica,sans-Serif" font-size="10.00">modfile.h</text>
</a>
</g>
</g>
<!-- Node6&#45;&gt;Node8 -->
<g id="edge8" class="edge">
<title>Node6&#45;&gt;Node8</title>
<path fill="none" stroke="midnightblue" d="M474.5,-45.8C474.5,-36.91 474.5,-26.78 474.5,-19.75"/>
<polygon fill="midnightblue" stroke="midnightblue" points="471,-46.08 474.5,-56.08 478,-46.08 471,-46.08"/>
</g>
<!-- Node9 -->
<g id="node9" class="node">
<title>Node9</title>
<g id="a_node9"><a xlink:href="s3mfile_8h.html" target="_top" xlink:title=" ">
<polygon fill="white" stroke="black" points="572.5,-0.5 572.5,-19.5 634.5,-19.5 634.5,-0.5 572.5,-0.5"/>
<text text-anchor="middle" x="603.5" y="-7.5" font-family="Helvetica,sans-Serif" font-size="10.00">s3mfile.h</text>
</a>
</g>
</g>
<!-- Node6&#45;&gt;Node9 -->
<g id="edge9" class="edge">
<title>Node6&#45;&gt;Node9</title>
<path fill="none" stroke="midnightblue" d="M504.35,-52.5C528.54,-42.38 561.96,-28.39 583.16,-19.52"/>
<polygon fill="midnightblue" stroke="midnightblue" points="502.81,-49.35 494.94,-56.44 505.52,-55.81 502.81,-49.35"/>
</g>
<!-- Node10 -->
<g id="node10" class="node">
<title>Node10</title>
<g id="a_node10"><a xlink:href="xmfile_8h.html" target="_top" xlink:title=" ">
<polygon fill="white" stroke="black" points="718.5,-0.5 718.5,-19.5 774.5,-19.5 774.5,-0.5 718.5,-0.5"/>
<text text-anchor="middle" x="746.5" y="-7.5" font-family="Helvetica,sans-Serif" font-size="10.00">xmfile.h</text>
</a>
</g>
</g>
<!-- Node6&#45;&gt;Node10 -->
<g id="edge10" class="edge">
<title>Node6&#45;&gt;Node10</title>
<path fill="none" stroke="midnightblue" d="M516.27,-55.69C602.1,-38.33 625.8,-37.46 708.5,-20 711.68,-19.33 715.01,-18.59 718.31,-17.84"/>
<polygon fill="midnightblue" stroke="midnightblue" points="515.45,-52.29 506.35,-57.72 516.85,-59.15 515.45,-52.29"/>
</g>
<!-- Node12&#45;&gt;Node11 -->
<g id="edge13" class="edge">
<title>Node12&#45;&gt;Node11</title>
<path fill="none" stroke="midnightblue" d="M240.5,-45.8C240.5,-36.91 240.5,-26.78 240.5,-19.75"/>
<polygon fill="midnightblue" stroke="midnightblue" points="237,-46.08 240.5,-56.08 244,-46.08 237,-46.08"/>
</g>
<!-- Node16 -->
<g id="node16" class="node">
<title>Node16</title>
<g id="a_node16"><a xlink:href="chapterframe_8h.html" target="_top" xlink:title=" ">
<polygon fill="white" stroke="black" points="1734.5,-0.5 1734.5,-19.5 1826.5,-19.5 1826.5,-0.5 1734.5,-0.5"/>
<text text-anchor="middle" x="1780.5" y="-7.5" font-family="Helvetica,sans-Serif" font-size="10.00">chapterframe.h</text>
</a>
</g>
</g>
<!-- Node15&#45;&gt;Node16 -->
<g id="edge17" class="edge">
<title>Node15&#45;&gt;Node16</title>
<path fill="none" stroke="midnightblue" d="M1637.03,-53.57C1671.36,-43.38 1720.83,-28.7 1751.8,-19.52"/>
<polygon fill="midnightblue" stroke="midnightblue" points="1635.93,-50.24 1627.34,-56.44 1637.92,-56.95 1635.93,-50.24"/>
</g>
<!-- Node17 -->
<g id="node17" class="node">
<title>Node17</title>
<g id="a_node17"><a xlink:href="tableofcontentsframe_8h.html" target="_top" xlink:title=" ">
<polygon fill="white" stroke="black" points="1585,-0.5 1585,-19.5 1716,-19.5 1716,-0.5 1585,-0.5"/>
<text text-anchor="middle" x="1650.5" y="-7.5" font-family="Helvetica,sans-Serif" font-size="10.00">tableofcontentsframe.h</text>
</a>
</g>
</g>
<!-- Node15&#45;&gt;Node17 -->
<g id="edge18" class="edge">
<title>Node15&#45;&gt;Node17</title>
<path fill="none" stroke="midnightblue" d="M1614.18,-48.72C1623.34,-39.2 1634.55,-27.56 1642.07,-19.75"/>
<polygon fill="midnightblue" stroke="midnightblue" points="1611.5,-46.45 1607.09,-56.08 1616.54,-51.31 1611.5,-46.45"/>
</g>
<!-- Node18 -->
<g id="node18" class="node">
<title>Node18</title>
<g id="a_node18"><a xlink:href="aifffile_8h.html" target="_top" xlink:title=" ">
<polygon fill="white" stroke="black" points="1431.5,-0.5 1431.5,-19.5 1487.5,-19.5 1487.5,-0.5 1431.5,-0.5"/>
<text text-anchor="middle" x="1459.5" y="-7.5" font-family="Helvetica,sans-Serif" font-size="10.00">aifffile.h</text>
</a>
</g>
</g>
<!-- Node15&#45;&gt;Node18 -->
<g id="edge19" class="edge">
<title>Node15&#45;&gt;Node18</title>
<path fill="none" stroke="midnightblue" d="M1567.02,-52.77C1540.91,-42.63 1504.46,-28.47 1481.42,-19.52"/>
<polygon fill="midnightblue" stroke="midnightblue" points="1565.89,-56.08 1576.48,-56.44 1568.42,-49.56 1565.89,-56.08"/>
</g>
<!-- Node19 -->
<g id="node19" class="node">
<title>Node19</title>
<g id="a_node19"><a xlink:href="wavfile_8h.html" target="_top" xlink:title=" ">
<polygon fill="white" stroke="black" points="1506,-0.5 1506,-19.5 1567,-19.5 1567,-0.5 1506,-0.5"/>
<text text-anchor="middle" x="1536.5" y="-7.5" font-family="Helvetica,sans-Serif" font-size="10.00">wavfile.h</text>
</a>
</g>
</g>
<!-- Node15&#45;&gt;Node19 -->
<g id="edge20" class="edge">
<title>Node15&#45;&gt;Node19</title>
<path fill="none" stroke="midnightblue" d="M1580.75,-49.54C1569.69,-39.91 1555.87,-27.87 1546.64,-19.83"/>
<polygon fill="midnightblue" stroke="midnightblue" points="1578.7,-52.4 1588.54,-56.32 1583.3,-47.12 1578.7,-52.4"/>
</g>
<!-- Node22 -->
<g id="node22" class="node">
<title>Node22</title>
<g id="a_node22"><a xlink:href="oggflacfile_8h.html" target="_top" xlink:title=" ">
<polygon fill="white" stroke="black" points="1017.5,-0.5 1017.5,-19.5 1093.5,-19.5 1093.5,-0.5 1017.5,-0.5"/>
<text text-anchor="middle" x="1055.5" y="-7.5" font-family="Helvetica,sans-Serif" font-size="10.00">oggflacfile.h</text>
</a>
</g>
</g>
<!-- Node21&#45;&gt;Node22 -->
<g id="edge23" class="edge">
<title>Node21&#45;&gt;Node22</title>
<path fill="none" stroke="midnightblue" d="M1332.67,-55.87C1230.97,-39.69 1204.1,-36.35 1106.5,-20 1102.33,-19.3 1097.98,-18.56 1093.64,-17.81"/>
<polygon fill="midnightblue" stroke="midnightblue" points="1332.32,-59.36 1342.75,-57.48 1333.43,-52.45 1332.32,-59.36"/>
</g>
<!-- Node23 -->
<g id="node23" class="node">
<title>Node23</title>
<g id="a_node23"><a xlink:href="opusfile_8h.html" target="_top" xlink:title=" ">
<polygon fill="white" stroke="black" points="1115.5,-0.5 1115.5,-19.5 1179.5,-19.5 1179.5,-0.5 1115.5,-0.5"/>
<text text-anchor="middle" x="1147.5" y="-7.5" font-family="Helvetica,sans-Serif" font-size="10.00">opusfile.h</text>
</a>
</g>
</g>
<!-- Node21&#45;&gt;Node23 -->
<g id="edge24" class="edge">
<title>Node21&#45;&gt;Node23</title>
<path fill="none" stroke="midnightblue" d="M1341.32,-54.25C1293.42,-43.56 1221.29,-27.46 1179.86,-18.22"/>
<polygon fill="midnightblue" stroke="midnightblue" points="1340.63,-57.68 1351.15,-56.44 1342.16,-50.85 1340.63,-57.68"/>
</g>
<!-- Node24 -->
<g id="node24" class="node">
<title>Node24</title>
<g id="a_node24"><a xlink:href="speexfile_8h.html" target="_top" xlink:title=" ">
<polygon fill="white" stroke="black" points="1229.5,-0.5 1229.5,-19.5 1299.5,-19.5 1299.5,-0.5 1229.5,-0.5"/>
<text text-anchor="middle" x="1264.5" y="-7.5" font-family="Helvetica,sans-Serif" font-size="10.00">speexfile.h</text>
</a>
</g>
</g>
<!-- Node21&#45;&gt;Node24 -->
<g id="edge25" class="edge">
<title>Node21&#45;&gt;Node24</title>
<path fill="none" stroke="midnightblue" d="M1360.26,-52.37C1336.85,-42.26 1304.66,-28.35 1284.21,-19.52"/>
<polygon fill="midnightblue" stroke="midnightblue" points="1359.13,-55.69 1369.69,-56.44 1361.9,-49.26 1359.13,-55.69"/>
</g>
<!-- Node25 -->
<g id="node25" class="node">
<title>Node25</title>
<g id="a_node25"><a xlink:href="vorbisfile_8h.html" target="_top" xlink:title=" ">
<polygon fill="white" stroke="black" points="1334,-0.5 1334,-19.5 1405,-19.5 1405,-0.5 1334,-0.5"/>
<text text-anchor="middle" x="1369.5" y="-7.5" font-family="Helvetica,sans-Serif" font-size="10.00">vorbisfile.h</text>
</a>
</g>
</g>
<!-- Node21&#45;&gt;Node25 -->
<g id="edge26" class="edge">
<title>Node21&#45;&gt;Node25</title>
<path fill="none" stroke="midnightblue" d="M1382.72,-46.69C1379.35,-37.59 1375.43,-27.01 1372.74,-19.75"/>
<polygon fill="midnightblue" stroke="midnightblue" points="1379.44,-47.92 1386.2,-56.08 1386.01,-45.49 1379.44,-47.92"/>
</g>
<!-- Node26&#45;&gt;Node19 -->
<g id="edge28" class="edge">
<title>Node26&#45;&gt;Node19</title>
<path fill="none" stroke="midnightblue" d="M900.67,-112.54C901.96,-112.35 903.24,-112.17 904.5,-112 972.15,-103.14 1464.13,-118.5 1517.5,-76 1534.61,-62.38 1536.88,-34.24 1536.85,-19.87"/>
<polygon fill="midnightblue" stroke="midnightblue" points="899.97,-109.11 890.7,-114.23 901.15,-116.01 899.97,-109.11"/>
</g>
<!-- Node28&#45;&gt;Node3 -->
<g id="edge32" class="edge">
<title>Node28&#45;&gt;Node3</title>
<path fill="none" stroke="midnightblue" d="M644.08,-118.23C566.97,-111.57 366.57,-93.9 199.5,-76 183.98,-74.34 166.69,-72.28 152.62,-70.55"/>
<polygon fill="midnightblue" stroke="midnightblue" points="643.86,-121.72 654.13,-119.09 644.47,-114.75 643.86,-121.72"/>
</g>
<!-- Node28&#45;&gt;Node5 -->
<g id="edge34" class="edge">
<title>Node28&#45;&gt;Node5</title>
<path fill="none" stroke="midnightblue" d="M644.14,-117.06C587.08,-109.95 464.91,-94.04 362.5,-76 357.99,-75.21 353.24,-74.29 348.6,-73.35"/>
<polygon fill="midnightblue" stroke="midnightblue" points="643.99,-120.56 654.34,-118.32 644.85,-113.62 643.99,-120.56"/>
</g>
<!-- Node28&#45;&gt;Node7 -->
<g id="edge35" class="edge">
<title>Node28&#45;&gt;Node7</title>
<path fill="none" stroke="midnightblue" d="M701.14,-106.48C718.58,-94.18 737.4,-75.48 728.5,-56 721.11,-39.82 704.7,-27.23 692.28,-19.53"/>
<polygon fill="midnightblue" stroke="midnightblue" points="698.73,-103.88 692.31,-112.3 702.58,-109.73 698.73,-103.88"/>
</g>
<!-- Node28&#45;&gt;Node8 -->
<g id="edge36" class="edge">
<title>Node28&#45;&gt;Node8</title>
<path fill="none" stroke="midnightblue" d="M644.33,-119.95C584.54,-117.24 459.97,-107.82 433.5,-76 418.06,-57.43 444.95,-32.63 462.03,-19.69"/>
<polygon fill="midnightblue" stroke="midnightblue" points="644.22,-123.44 654.36,-120.36 644.51,-116.45 644.22,-123.44"/>
</g>
<!-- Node28&#45;&gt;Node9 -->
<g id="edge54" class="edge">
<title>Node28&#45;&gt;Node9</title>
<path fill="none" stroke="midnightblue" d="M654.44,-106.26C644.08,-98.36 632.33,-87.82 624.5,-76 612.58,-58.01 607,-32.74 604.76,-19.64"/>
<polygon fill="midnightblue" stroke="midnightblue" points="652.54,-109.2 662.69,-112.24 656.65,-103.54 652.54,-109.2"/>
</g>
<!-- Node28&#45;&gt;Node10 -->
<g id="edge57" class="edge">
<title>Node28&#45;&gt;Node10</title>
<path fill="none" stroke="midnightblue" d="M708.03,-108.25C721.75,-100.96 736.49,-90.37 744.5,-76 754.5,-58.05 751.29,-32.77 748.6,-19.65"/>
<polygon fill="midnightblue" stroke="midnightblue" points="706.23,-105.23 698.79,-112.77 709.31,-111.52 706.23,-105.23"/>
</g>
<!-- Node28&#45;&gt;Node11 -->
<g id="edge42" class="edge">
<title>Node28&#45;&gt;Node11</title>
<path fill="none" stroke="midnightblue" d="M644.3,-116.91C596.19,-110.43 502.91,-96.4 425.5,-76 364.6,-59.95 295.11,-33.15 261.24,-19.52"/>
<polygon fill="midnightblue" stroke="midnightblue" points="644.05,-120.41 654.42,-118.26 644.97,-113.47 644.05,-120.41"/>
</g>
<!-- Node28&#45;&gt;Node12 -->
<g id="edge43" class="edge">
<title>Node28&#45;&gt;Node12</title>
<path fill="none" stroke="midnightblue" d="M644.07,-118.44C576.4,-112.85 415.28,-98.24 281.5,-76 278.48,-75.5 275.35,-74.92 272.22,-74.3"/>
<polygon fill="midnightblue" stroke="midnightblue" points="643.86,-121.94 654.12,-119.26 644.43,-114.96 643.86,-121.94"/>
</g>
<!-- Node28&#45;&gt;Node13 -->
<g id="edge44" class="edge">
<title>Node28&#45;&gt;Node13</title>
<path fill="none" stroke="midnightblue" d="M708.69,-112.67C709.98,-112.43 711.25,-112.2 712.5,-112 912.7,-79.29 966.93,-106.34 1167.5,-76 1170.32,-75.57 1173.23,-75.06 1176.14,-74.5"/>
<polygon fill="midnightblue" stroke="midnightblue" points="707.88,-109.27 698.85,-114.8 709.36,-116.11 707.88,-109.27"/>
</g>
<!-- Node28&#45;&gt;Node20 -->
<g id="edge45" class="edge">
<title>Node28&#45;&gt;Node20</title>
<path fill="none" stroke="midnightblue" d="M709.08,-116.69C721.96,-115.08 736.91,-113.32 750.5,-112 970.93,-90.62 1028.18,-106.75 1247.5,-76 1250.37,-75.6 1253.34,-75.12 1256.31,-74.59"/>
<polygon fill="midnightblue" stroke="midnightblue" points="708.29,-113.26 698.81,-118 709.18,-120.21 708.29,-113.26"/>
</g>
<!-- Node29 -->
<g id="node29" class="node">
<title>Node29</title>
<g id="a_node29"><a xlink:href="apefile_8h.html" target="_top" xlink:title=" ">
<polygon fill="white" stroke="black" points="1099,-56.5 1099,-75.5 1158,-75.5 1158,-56.5 1099,-56.5"/>
<text text-anchor="middle" x="1128.5" y="-63.5" font-family="Helvetica,sans-Serif" font-size="10.00">apefile.h</text>
</a>
</g>
</g>
<!-- Node28&#45;&gt;Node29 -->
<g id="edge31" class="edge">
<title>Node28&#45;&gt;Node29</title>
<path fill="none" stroke="midnightblue" d="M708.7,-112.7C709.98,-112.45 711.25,-112.21 712.5,-112 878.83,-83.45 924,-103.51 1090.5,-76 1093.18,-75.56 1095.94,-75.03 1098.71,-74.47"/>
<polygon fill="midnightblue" stroke="midnightblue" points="707.88,-109.3 698.86,-114.86 709.38,-116.13 707.88,-109.3"/>
</g>
<!-- Node30 -->
<g id="node30" class="node">
<title>Node30</title>
<g id="a_node30"><a xlink:href="fileref_8h.html" target="_top" xlink:title=" ">
<polygon fill="white" stroke="black" points="524,-56.5 524,-75.5 577,-75.5 577,-56.5 524,-56.5"/>
<text text-anchor="middle" x="550.5" y="-63.5" font-family="Helvetica,sans-Serif" font-size="10.00">fileref.h</text>
</a>
</g>
</g>
<!-- Node28&#45;&gt;Node30 -->
<g id="edge33" class="edge">
<title>Node28&#45;&gt;Node30</title>
<path fill="none" stroke="midnightblue" d="M647.34,-108.5C623.72,-98.38 591.07,-84.39 570.37,-75.52"/>
<polygon fill="midnightblue" stroke="midnightblue" points="645.96,-111.72 656.53,-112.44 648.72,-105.29 645.96,-111.72"/>
</g>
<!-- Node31 -->
<g id="node31" class="node">
<title>Node31</title>
<g id="a_node31"><a xlink:href="modfilebase_8h.html" target="_top" xlink:title=" ">
<polygon fill="white" stroke="black" points="633.5,-56.5 633.5,-75.5 719.5,-75.5 719.5,-56.5 633.5,-56.5"/>
<text text-anchor="middle" x="676.5" y="-63.5" font-family="Helvetica,sans-Serif" font-size="10.00">modfilebase.h</text>
</a>
</g>
</g>
<!-- Node28&#45;&gt;Node31 -->
<g id="edge37" class="edge">
<title>Node28&#45;&gt;Node31</title>
<path fill="none" stroke="midnightblue" d="M676.5,-101.8C676.5,-92.91 676.5,-82.78 676.5,-75.75"/>
<polygon fill="midnightblue" stroke="midnightblue" points="673,-102.08 676.5,-112.08 680,-102.08 673,-102.08"/>
</g>
<!-- Node32 -->
<g id="node32" class="node">
<title>Node32</title>
<g id="a_node32"><a xlink:href="oggfile_8h.html" target="_top" xlink:title=" ">
<polygon fill="white" stroke="black" points="1022,-56.5 1022,-75.5 1081,-75.5 1081,-56.5 1022,-56.5"/>
<text text-anchor="middle" x="1051.5" y="-63.5" font-family="Helvetica,sans-Serif" font-size="10.00">oggfile.h</text>
</a>
</g>
</g>
<!-- Node28&#45;&gt;Node32 -->
<g id="edge46" class="edge">
<title>Node28&#45;&gt;Node32</title>
<path fill="none" stroke="midnightblue" d="M708.71,-112.74C709.98,-112.48 711.25,-112.23 712.5,-112 844.57,-87.67 880.22,-99.13 1012.5,-76 1015.51,-75.47 1018.64,-74.86 1021.76,-74.21"/>
<polygon fill="midnightblue" stroke="midnightblue" points="707.86,-109.34 698.87,-114.94 709.4,-116.17 707.86,-109.34"/>
</g>
<!-- Node33 -->
<g id="node33" class="node">
<title>Node33</title>
<g id="a_node33"><a xlink:href="rifffile_8h.html" target="_top" xlink:title=" ">
<polygon fill="white" stroke="black" points="1454.5,-56.5 1454.5,-75.5 1508.5,-75.5 1508.5,-56.5 1454.5,-56.5"/>
<text text-anchor="middle" x="1481.5" y="-63.5" font-family="Helvetica,sans-Serif" font-size="10.00">rifffile.h</text>
</a>
</g>
</g>
<!-- Node28&#45;&gt;Node33 -->
<g id="edge51" class="edge">
<title>Node28&#45;&gt;Node33</title>
<path fill="none" stroke="midnightblue" d="M708.7,-118.96C738.09,-117.11 782.71,-114.32 821.5,-112 1098.8,-95.4 1170.88,-117.87 1445.5,-76 1448.43,-75.55 1451.47,-74.98 1454.48,-74.33"/>
<polygon fill="midnightblue" stroke="midnightblue" points="708.37,-115.47 698.61,-119.6 708.81,-122.46 708.37,-115.47"/>
</g>
<!-- Node34 -->
<g id="node34" class="node">
<title>Node34</title>
<g id="a_node34"><a xlink:href="trueaudiofile_8h.html" target="_top" xlink:title=" ">
<polygon fill="white" stroke="black" points="814,-56.5 814,-75.5 901,-75.5 901,-56.5 814,-56.5"/>
<text text-anchor="middle" x="857.5" y="-63.5" font-family="Helvetica,sans-Serif" font-size="10.00">trueaudiofile.h</text>
</a>
</g>
</g>
<!-- Node28&#45;&gt;Node34 -->
<g id="edge55" class="edge">
<title>Node28&#45;&gt;Node34</title>
<path fill="none" stroke="midnightblue" d="M708.62,-111.42C742.72,-101.24 796.14,-85.31 828.86,-75.55"/>
<polygon fill="midnightblue" stroke="midnightblue" points="707.28,-108.17 698.69,-114.38 709.28,-114.87 707.28,-108.17"/>
</g>
<!-- Node35 -->
<g id="node35" class="node">
<title>Node35</title>
<g id="a_node35"><a xlink:href="wavpackfile_8h.html" target="_top" xlink:title=" ">
<polygon fill="white" stroke="black" points="919.5,-56.5 919.5,-75.5 1003.5,-75.5 1003.5,-56.5 919.5,-56.5"/>
<text text-anchor="middle" x="961.5" y="-63.5" font-family="Helvetica,sans-Serif" font-size="10.00">wavpackfile.h</text>
</a>
</g>
</g>
<!-- Node28&#45;&gt;Node35 -->
<g id="edge56" class="edge">
<title>Node28&#45;&gt;Node35</title>
<path fill="none" stroke="midnightblue" d="M708.62,-112.86C709.93,-112.56 711.22,-112.27 712.5,-112 732.36,-107.73 853.55,-86.13 919.25,-74.48"/>
<polygon fill="midnightblue" stroke="midnightblue" points="707.45,-109.54 698.53,-115.25 709.07,-116.35 707.45,-109.54"/>
</g>
<!-- Node31&#45;&gt;Node7 -->
<g id="edge38" class="edge">
<title>Node31&#45;&gt;Node7</title>
<path fill="none" stroke="midnightblue" d="M676.5,-45.8C676.5,-36.91 676.5,-26.78 676.5,-19.75"/>
<polygon fill="midnightblue" stroke="midnightblue" points="673,-46.08 676.5,-56.08 680,-46.08 673,-46.08"/>
</g>
<!-- Node31&#45;&gt;Node8 -->
<g id="edge39" class="edge">
<title>Node31&#45;&gt;Node8</title>
<path fill="none" stroke="midnightblue" d="M634.65,-53.81C596.27,-43.55 540.29,-28.59 505.69,-19.34"/>
<polygon fill="midnightblue" stroke="midnightblue" points="633.93,-57.24 644.49,-56.44 635.74,-50.48 633.93,-57.24"/>
</g>
<!-- Node31&#45;&gt;Node9 -->
<g id="edge40" class="edge">
<title>Node31&#45;&gt;Node9</title>
<path fill="none" stroke="midnightblue" d="M656.36,-50.1C643.22,-40.38 626.52,-28.03 615.44,-19.83"/>
<polygon fill="midnightblue" stroke="midnightblue" points="654.65,-53.19 664.77,-56.32 658.81,-47.56 654.65,-53.19"/>
</g>
<!-- Node31&#45;&gt;Node10 -->
<g id="edge41" class="edge">
<title>Node31&#45;&gt;Node10</title>
<path fill="none" stroke="midnightblue" d="M695.81,-50.1C708.41,-40.38 724.43,-28.03 735.05,-19.83"/>
<polygon fill="midnightblue" stroke="midnightblue" points="693.53,-47.44 687.75,-56.32 697.8,-52.99 693.53,-47.44"/>
</g>
<!-- Node32&#45;&gt;Node22 -->
<g id="edge47" class="edge">
<title>Node32&#45;&gt;Node22</title>
<path fill="none" stroke="midnightblue" d="M1052.9,-46.1C1053.56,-37.14 1054.33,-26.86 1054.85,-19.75"/>
<polygon fill="midnightblue" stroke="midnightblue" points="1049.41,-45.85 1052.16,-56.08 1056.39,-46.37 1049.41,-45.85"/>
</g>
<!-- Node32&#45;&gt;Node23 -->
<g id="edge48" class="edge">
<title>Node32&#45;&gt;Node23</title>
<path fill="none" stroke="midnightblue" d="M1076.07,-51.18C1093.74,-41.24 1117.01,-28.15 1132.11,-19.65"/>
<polygon fill="midnightblue" stroke="midnightblue" points="1073.92,-48.37 1066.92,-56.32 1077.36,-54.47 1073.92,-48.37"/>
</g>
<!-- Node32&#45;&gt;Node24 -->
<g id="edge49" class="edge">
<title>Node32&#45;&gt;Node24</title>
<path fill="none" stroke="midnightblue" d="M1090.85,-55.02C1131.09,-44.82 1192.92,-29.15 1230.93,-19.51"/>
<polygon fill="midnightblue" stroke="midnightblue" points="1089.95,-51.64 1081.12,-57.49 1091.67,-58.43 1089.95,-51.64"/>
</g>
<!-- Node32&#45;&gt;Node25 -->
<g id="edge50" class="edge">
<title>Node32&#45;&gt;Node25</title>
<path fill="none" stroke="midnightblue" d="M1091.38,-55.97C1151.38,-44.68 1273.15,-25.77 1333.82,-16.45"/>
<polygon fill="midnightblue" stroke="midnightblue" points="1090.42,-52.59 1081.27,-57.91 1091.75,-59.46 1090.42,-52.59"/>
</g>
<!-- Node33&#45;&gt;Node18 -->
<g id="edge52" class="edge">
<title>Node33&#45;&gt;Node18</title>
<path fill="none" stroke="midnightblue" d="M1474.04,-46.69C1470.33,-37.59 1466.02,-27.01 1463.07,-19.75"/>
<polygon fill="midnightblue" stroke="midnightblue" points="1470.85,-48.14 1477.87,-56.08 1477.34,-45.5 1470.85,-48.14"/>
</g>
<!-- Node33&#45;&gt;Node19 -->
<g id="edge53" class="edge">
<title>Node33&#45;&gt;Node19</title>
<path fill="none" stroke="midnightblue" d="M1497.79,-49C1507.54,-39.43 1519.55,-27.64 1527.59,-19.75"/>
<polygon fill="midnightblue" stroke="midnightblue" points="1495.27,-46.58 1490.58,-56.08 1500.17,-51.57 1495.27,-46.58"/>
</g>
</g>
</svg>
