<?xml version="1.0" encoding="UTF-8" standalone="no"?>
<!DOCTYPE svg PUBLIC "-//W3C//DTD SVG 1.1//EN"
 "http://www.w3.org/Graphics/SVG/1.1/DTD/svg11.dtd">
<!-- Generated by graphviz version 2.43.0 (0)
 -->
<!-- Title: tagunion.h Pages: 1 -->
<svg width="820pt" height="308pt"
 viewBox="0.00 0.00 820.14 308.00" xmlns="http://www.w3.org/2000/svg" xmlns:xlink="http://www.w3.org/1999/xlink">
<g id="graph0" class="graph" transform="scale(1 1) rotate(0) translate(4 304)">
<title>tagunion.h</title>
<polygon fill="white" stroke="transparent" points="-4,4 -4,-304 816.14,-304 816.14,4 -4,4"/>
<!-- Node1 -->
<g id="node1" class="node">
<title>Node1</title>
<g id="a_node1"><a xlink:title=" ">
<polygon fill="#bfbfbf" stroke="black" points="178.64,-280.5 178.64,-299.5 246.64,-299.5 246.64,-280.5 178.64,-280.5"/>
<text text-anchor="middle" x="212.64" y="-287.5" font-family="Helvetica,sans-Serif" font-size="10.00">tagunion.h</text>
</a>
</g>
</g>
<!-- Node2 -->
<g id="node2" class="node">
<title>Node2</title>
<g id="a_node2"><a xlink:href="tag_8h.html" target="_top" xlink:title=" ">
<polygon fill="white" stroke="black" points="192.14,-224.5 192.14,-243.5 233.14,-243.5 233.14,-224.5 192.14,-224.5"/>
<text text-anchor="middle" x="212.64" y="-231.5" font-family="Helvetica,sans-Serif" font-size="10.00">tag.h</text>
</a>
</g>
</g>
<!-- Node1&#45;&gt;Node2 -->
<g id="edge1" class="edge">
<title>Node1&#45;&gt;Node2</title>
<path fill="none" stroke="midnightblue" d="M212.64,-280.08C212.64,-273.01 212.64,-262.86 212.64,-253.99"/>
<polygon fill="midnightblue" stroke="midnightblue" points="216.14,-253.75 212.64,-243.75 209.14,-253.75 216.14,-253.75"/>
</g>
<!-- Node3 -->
<g id="node3" class="node">
<title>Node3</title>
<g id="a_node3"><a xlink:href="taglib__export_8h.html" target="_top" xlink:title=" ">
<polygon fill="white" stroke="black" points="11.64,-56.5 11.64,-75.5 101.64,-75.5 101.64,-56.5 11.64,-56.5"/>
<text text-anchor="middle" x="56.64" y="-63.5" font-family="Helvetica,sans-Serif" font-size="10.00">taglib_export.h</text>
</a>
</g>
</g>
<!-- Node2&#45;&gt;Node3 -->
<g id="edge2" class="edge">
<title>Node2&#45;&gt;Node3</title>
<path fill="none" stroke="midnightblue" d="M191.93,-225.34C159.14,-211.99 96.08,-181.12 67.64,-132 59.49,-117.92 57,-99.43 56.4,-85.77"/>
<polygon fill="midnightblue" stroke="midnightblue" points="59.9,-85.58 56.25,-75.63 52.9,-85.68 59.9,-85.58"/>
</g>
<!-- Node4 -->
<g id="node4" class="node">
<title>Node4</title>
<g id="a_node4"><a xlink:href="tstring_8h.html" target="_top" xlink:title=" ">
<polygon fill="white" stroke="black" points="145.14,-168.5 145.14,-187.5 202.14,-187.5 202.14,-168.5 145.14,-168.5"/>
<text text-anchor="middle" x="173.64" y="-175.5" font-family="Helvetica,sans-Serif" font-size="10.00">tstring.h</text>
</a>
</g>
</g>
<!-- Node2&#45;&gt;Node4 -->
<g id="edge3" class="edge">
<title>Node2&#45;&gt;Node4</title>
<path fill="none" stroke="midnightblue" d="M206.2,-224.08C200.69,-216.46 192.61,-205.26 185.88,-195.94"/>
<polygon fill="midnightblue" stroke="midnightblue" points="188.66,-193.81 179.96,-187.75 182.98,-197.91 188.66,-193.81"/>
</g>
<!-- Node13 -->
<g id="node13" class="node">
<title>Node13</title>
<g id="a_node13"><a xlink:href="tlist_8h.html" target="_top" xlink:title=" ">
<polygon fill="white" stroke="black" points="492.64,-112.5 492.64,-131.5 536.64,-131.5 536.64,-112.5 492.64,-112.5"/>
<text text-anchor="middle" x="514.64" y="-119.5" font-family="Helvetica,sans-Serif" font-size="10.00">tlist.h</text>
</a>
</g>
</g>
<!-- Node2&#45;&gt;Node13 -->
<g id="edge17" class="edge">
<title>Node2&#45;&gt;Node13</title>
<path fill="none" stroke="midnightblue" d="M233.38,-227.99C263.54,-220.49 321.11,-205.34 368.64,-188 411.5,-172.36 459.53,-150 488.41,-136"/>
<polygon fill="midnightblue" stroke="midnightblue" points="489.98,-139.13 497.43,-131.6 486.91,-132.84 489.98,-139.13"/>
</g>
<!-- Node17 -->
<g id="node17" class="node">
<title>Node17</title>
<g id="a_node17"><a xlink:href="tvariant_8h.html" target="_top" xlink:title=" ">
<polygon fill="white" stroke="black" points="295.64,-168.5 295.64,-187.5 359.64,-187.5 359.64,-168.5 295.64,-168.5"/>
<text text-anchor="middle" x="327.64" y="-175.5" font-family="Helvetica,sans-Serif" font-size="10.00">tvariant.h</text>
</a>
</g>
</g>
<!-- Node2&#45;&gt;Node17 -->
<g id="edge23" class="edge">
<title>Node2&#45;&gt;Node17</title>
<path fill="none" stroke="midnightblue" d="M230.87,-224.44C249.54,-215.68 278.8,-201.94 300.26,-191.86"/>
<polygon fill="midnightblue" stroke="midnightblue" points="301.94,-194.93 309.51,-187.52 298.97,-188.6 301.94,-194.93"/>
</g>
<!-- Node4&#45;&gt;Node3 -->
<g id="edge15" class="edge">
<title>Node4&#45;&gt;Node3</title>
<path fill="none" stroke="midnightblue" d="M144.81,-168.52C125.31,-161.5 100.2,-149.76 83.64,-132 71.54,-119.02 64.48,-99.86 60.64,-85.7"/>
<polygon fill="midnightblue" stroke="midnightblue" points="63.96,-84.53 58.21,-75.63 57.15,-86.17 63.96,-84.53"/>
</g>
<!-- Node5 -->
<g id="node5" class="node">
<title>Node5</title>
<g id="a_node5"><a xlink:title=" ">
<polygon fill="white" stroke="#bfbfbf" points="119.64,-56.5 119.64,-75.5 179.64,-75.5 179.64,-56.5 119.64,-56.5"/>
<text text-anchor="middle" x="149.64" y="-63.5" font-family="Helvetica,sans-Serif" font-size="10.00">iostream</text>
</a>
</g>
</g>
<!-- Node4&#45;&gt;Node5 -->
<g id="edge4" class="edge">
<title>Node4&#45;&gt;Node5</title>
<path fill="none" stroke="midnightblue" d="M170.57,-168.48C167.44,-159.5 162.63,-144.91 159.64,-132 156.1,-116.69 153.48,-99.04 151.81,-86.01"/>
<polygon fill="midnightblue" stroke="midnightblue" points="155.26,-85.42 150.59,-75.91 148.31,-86.26 155.26,-85.42"/>
</g>
<!-- Node6 -->
<g id="node6" class="node">
<title>Node6</title>
<g id="a_node6"><a xlink:title=" ">
<polygon fill="white" stroke="#bfbfbf" points="72.64,-0.5 72.64,-19.5 116.64,-19.5 116.64,-0.5 72.64,-0.5"/>
<text text-anchor="middle" x="94.64" y="-7.5" font-family="Helvetica,sans-Serif" font-size="10.00">string</text>
</a>
</g>
</g>
<!-- Node4&#45;&gt;Node6 -->
<g id="edge5" class="edge">
<title>Node4&#45;&gt;Node6</title>
<path fill="none" stroke="midnightblue" d="M144.91,-170.68C103.36,-159.73 28.65,-132.73 2.64,-76 -10.78,-46.72 31.14,-28.22 62.75,-18.74"/>
<polygon fill="midnightblue" stroke="midnightblue" points="63.89,-22.05 72.57,-15.97 61.99,-15.31 63.89,-22.05"/>
</g>
<!-- Node7 -->
<g id="node7" class="node">
<title>Node7</title>
<g id="a_node7"><a xlink:href="tbytevector_8h.html" target="_top" xlink:title=" ">
<polygon fill="white" stroke="black" points="202.14,-112.5 202.14,-131.5 283.14,-131.5 283.14,-112.5 202.14,-112.5"/>
<text text-anchor="middle" x="242.64" y="-119.5" font-family="Helvetica,sans-Serif" font-size="10.00">tbytevector.h</text>
</a>
</g>
</g>
<!-- Node4&#45;&gt;Node7 -->
<g id="edge6" class="edge">
<title>Node4&#45;&gt;Node7</title>
<path fill="none" stroke="midnightblue" d="M184.73,-168.32C195.13,-160.18 210.9,-147.84 223.37,-138.09"/>
<polygon fill="midnightblue" stroke="midnightblue" points="225.64,-140.75 231.36,-131.83 221.32,-135.24 225.64,-140.75"/>
</g>
<!-- Node10 -->
<g id="node10" class="node">
<title>Node10</title>
<g id="a_node10"><a xlink:href="taglib_8h.html" target="_top" xlink:title=" ">
<polygon fill="white" stroke="black" points="263.14,-56.5 263.14,-75.5 316.14,-75.5 316.14,-56.5 263.14,-56.5"/>
<text text-anchor="middle" x="289.64" y="-63.5" font-family="Helvetica,sans-Serif" font-size="10.00">taglib.h</text>
</a>
</g>
</g>
<!-- Node4&#45;&gt;Node10 -->
<g id="edge16" class="edge">
<title>Node4&#45;&gt;Node10</title>
<path fill="none" stroke="midnightblue" d="M202.32,-174.98C230.37,-171.31 271.68,-160.98 291.64,-132 300.84,-118.65 299.09,-99.82 295.78,-85.86"/>
<polygon fill="midnightblue" stroke="midnightblue" points="299.06,-84.58 292.97,-75.91 292.32,-86.49 299.06,-84.58"/>
</g>
<!-- Node7&#45;&gt;Node3 -->
<g id="edge14" class="edge">
<title>Node7&#45;&gt;Node3</title>
<path fill="none" stroke="midnightblue" d="M213.17,-112.44C181.47,-103.24 130.91,-88.56 95.87,-78.39"/>
<polygon fill="midnightblue" stroke="midnightblue" points="96.56,-74.94 85.98,-75.52 94.61,-81.67 96.56,-74.94"/>
</g>
<!-- Node7&#45;&gt;Node5 -->
<g id="edge7" class="edge">
<title>Node7&#45;&gt;Node5</title>
<path fill="none" stroke="midnightblue" d="M227.7,-112.32C213.06,-103.82 190.51,-90.73 173.41,-80.8"/>
<polygon fill="midnightblue" stroke="midnightblue" points="174.95,-77.65 164.55,-75.65 171.44,-83.7 174.95,-77.65"/>
</g>
<!-- Node8 -->
<g id="node8" class="node">
<title>Node8</title>
<g id="a_node8"><a xlink:title=" ">
<polygon fill="white" stroke="#bfbfbf" points="334.64,-56.5 334.64,-75.5 392.64,-75.5 392.64,-56.5 334.64,-56.5"/>
<text text-anchor="middle" x="363.64" y="-63.5" font-family="Helvetica,sans-Serif" font-size="10.00">memory</text>
</a>
</g>
</g>
<!-- Node7&#45;&gt;Node8 -->
<g id="edge8" class="edge">
<title>Node7&#45;&gt;Node8</title>
<path fill="none" stroke="midnightblue" d="M261.82,-112.44C281.55,-103.64 312.53,-89.81 335.14,-79.72"/>
<polygon fill="midnightblue" stroke="midnightblue" points="336.85,-82.79 344.56,-75.52 334,-76.4 336.85,-82.79"/>
</g>
<!-- Node9 -->
<g id="node9" class="node">
<title>Node9</title>
<g id="a_node9"><a xlink:title=" ">
<polygon fill="white" stroke="#bfbfbf" points="198.14,-56.5 198.14,-75.5 245.14,-75.5 245.14,-56.5 198.14,-56.5"/>
<text text-anchor="middle" x="221.64" y="-63.5" font-family="Helvetica,sans-Serif" font-size="10.00">vector</text>
</a>
</g>
</g>
<!-- Node7&#45;&gt;Node9 -->
<g id="edge9" class="edge">
<title>Node7&#45;&gt;Node9</title>
<path fill="none" stroke="midnightblue" d="M239.18,-112.08C236.33,-104.77 232.21,-94.18 228.68,-85.1"/>
<polygon fill="midnightblue" stroke="midnightblue" points="231.93,-83.8 225.05,-75.75 225.41,-86.34 231.93,-83.8"/>
</g>
<!-- Node7&#45;&gt;Node10 -->
<g id="edge10" class="edge">
<title>Node7&#45;&gt;Node10</title>
<path fill="none" stroke="midnightblue" d="M250.4,-112.08C257.18,-104.3 267.19,-92.8 275.4,-83.37"/>
<polygon fill="midnightblue" stroke="midnightblue" points="278.1,-85.59 282.03,-75.75 272.82,-81 278.1,-85.59"/>
</g>
<!-- Node10&#45;&gt;Node6 -->
<g id="edge13" class="edge">
<title>Node10&#45;&gt;Node6</title>
<path fill="none" stroke="midnightblue" d="M262.94,-57.6C227.47,-47.78 164.88,-30.45 126.84,-19.92"/>
<polygon fill="midnightblue" stroke="midnightblue" points="127.38,-16.43 116.81,-17.14 125.51,-23.18 127.38,-16.43"/>
</g>
<!-- Node11 -->
<g id="node11" class="node">
<title>Node11</title>
<g id="a_node11"><a xlink:title=" ">
<polygon fill="white" stroke="#bfbfbf" points="196.64,-0.5 196.64,-19.5 284.64,-19.5 284.64,-0.5 196.64,-0.5"/>
<text text-anchor="middle" x="240.64" y="-7.5" font-family="Helvetica,sans-Serif" font-size="10.00">taglib_config.h</text>
</a>
</g>
</g>
<!-- Node10&#45;&gt;Node11 -->
<g id="edge11" class="edge">
<title>Node10&#45;&gt;Node11</title>
<path fill="none" stroke="midnightblue" d="M281.55,-56.08C274.49,-48.3 264.06,-36.8 255.49,-27.37"/>
<polygon fill="midnightblue" stroke="midnightblue" points="257.9,-24.8 248.58,-19.75 252.71,-29.51 257.9,-24.8"/>
</g>
<!-- Node12 -->
<g id="node12" class="node">
<title>Node12</title>
<g id="a_node12"><a xlink:title=" ">
<polygon fill="white" stroke="#bfbfbf" points="302.64,-0.5 302.64,-19.5 374.64,-19.5 374.64,-0.5 302.64,-0.5"/>
<text text-anchor="middle" x="338.64" y="-7.5" font-family="Helvetica,sans-Serif" font-size="10.00">sys/types.h</text>
</a>
</g>
</g>
<!-- Node10&#45;&gt;Node12 -->
<g id="edge12" class="edge">
<title>Node10&#45;&gt;Node12</title>
<path fill="none" stroke="midnightblue" d="M297.73,-56.08C304.8,-48.3 315.23,-36.8 323.79,-27.37"/>
<polygon fill="midnightblue" stroke="midnightblue" points="326.57,-29.51 330.7,-19.75 321.39,-24.8 326.57,-29.51"/>
</g>
<!-- Node13&#45;&gt;Node8 -->
<g id="edge20" class="edge">
<title>Node13&#45;&gt;Node8</title>
<path fill="none" stroke="midnightblue" d="M492.36,-113.03C467.27,-104.06 426.2,-89.37 397.22,-79.01"/>
<polygon fill="midnightblue" stroke="midnightblue" points="398.11,-75.61 387.51,-75.54 395.75,-82.2 398.11,-75.61"/>
</g>
<!-- Node13&#45;&gt;Node10 -->
<g id="edge21" class="edge">
<title>Node13&#45;&gt;Node10</title>
<path fill="none" stroke="midnightblue" d="M492.34,-114.35C489.42,-113.54 486.46,-112.73 483.64,-112 416.92,-94.73 397.36,-92.87 326.26,-76.1"/>
<polygon fill="midnightblue" stroke="midnightblue" points="326.9,-72.65 316.36,-73.75 325.28,-79.46 326.9,-72.65"/>
</g>
<!-- Node14 -->
<g id="node14" class="node">
<title>Node14</title>
<g id="a_node14"><a xlink:title=" ">
<polygon fill="white" stroke="#bfbfbf" points="708.64,-56.5 708.64,-75.5 740.64,-75.5 740.64,-56.5 708.64,-56.5"/>
<text text-anchor="middle" x="724.64" y="-63.5" font-family="Helvetica,sans-Serif" font-size="10.00">list</text>
</a>
</g>
</g>
<!-- Node13&#45;&gt;Node14 -->
<g id="edge18" class="edge">
<title>Node13&#45;&gt;Node14</title>
<path fill="none" stroke="midnightblue" d="M536.78,-116.42C569.99,-109.38 634.82,-94.96 698.75,-76.02"/>
<polygon fill="midnightblue" stroke="midnightblue" points="700.02,-79.29 708.59,-73.07 698.01,-72.59 700.02,-79.29"/>
</g>
<!-- Node15 -->
<g id="node15" class="node">
<title>Node15</title>
<g id="a_node15"><a xlink:title=" ">
<polygon fill="white" stroke="#bfbfbf" points="607.14,-56.5 607.14,-75.5 690.14,-75.5 690.14,-56.5 607.14,-56.5"/>
<text text-anchor="middle" x="648.64" y="-63.5" font-family="Helvetica,sans-Serif" font-size="10.00">initializer_list</text>
</a>
</g>
</g>
<!-- Node13&#45;&gt;Node15 -->
<g id="edge19" class="edge">
<title>Node13&#45;&gt;Node15</title>
<path fill="none" stroke="midnightblue" d="M535.88,-112.44C558.03,-103.52 592.96,-89.44 618.08,-79.32"/>
<polygon fill="midnightblue" stroke="midnightblue" points="619.54,-82.5 627.51,-75.52 616.93,-76.01 619.54,-82.5"/>
</g>
<!-- Node16 -->
<g id="node16" class="node">
<title>Node16</title>
<g id="a_node16"><a xlink:title=" ">
<polygon fill="white" stroke="#bfbfbf" points="759.14,-56.5 759.14,-75.5 812.14,-75.5 812.14,-56.5 759.14,-56.5"/>
<text text-anchor="middle" x="785.64" y="-63.5" font-family="Helvetica,sans-Serif" font-size="10.00">tlist.tcc</text>
</a>
</g>
</g>
<!-- Node13&#45;&gt;Node16 -->
<g id="edge22" class="edge">
<title>Node13&#45;&gt;Node16</title>
<path fill="none" stroke="midnightblue" d="M536.76,-117.19C576.92,-110.18 664.73,-94.44 748.96,-76.05"/>
<polygon fill="midnightblue" stroke="midnightblue" points="749.93,-79.42 758.95,-73.85 748.43,-72.58 749.93,-79.42"/>
</g>
<!-- Node17&#45;&gt;Node3 -->
<g id="edge34" class="edge">
<title>Node17&#45;&gt;Node3</title>
<path fill="none" stroke="midnightblue" d="M295.61,-170.19C263.33,-162.79 212.45,-149.61 170.64,-132 136.84,-117.76 100.47,-95.72 78.12,-81.33"/>
<polygon fill="midnightblue" stroke="midnightblue" points="79.74,-78.21 69.46,-75.67 75.92,-84.07 79.74,-78.21"/>
</g>
<!-- Node17&#45;&gt;Node5 -->
<g id="edge25" class="edge">
<title>Node17&#45;&gt;Node5</title>
<path fill="none" stroke="midnightblue" d="M295.38,-172.39C266.11,-166.88 223.03,-155.3 192.64,-132 176.74,-119.81 164.85,-99.98 157.65,-85.42"/>
<polygon fill="midnightblue" stroke="midnightblue" points="160.63,-83.53 153.25,-75.94 154.28,-86.48 160.63,-83.53"/>
</g>
<!-- Node17&#45;&gt;Node13 -->
<g id="edge26" class="edge">
<title>Node17&#45;&gt;Node13</title>
<path fill="none" stroke="midnightblue" d="M357.26,-168.47C386.69,-160 433.35,-146.55 482.72,-132.26"/>
<polygon fill="midnightblue" stroke="midnightblue" points="484,-135.54 492.63,-129.4 482.05,-128.81 484,-135.54"/>
</g>
<!-- Node18 -->
<g id="node18" class="node">
<title>Node18</title>
<g id="a_node18"><a xlink:title=" ">
<polygon fill="white" stroke="#bfbfbf" points="409.14,-112.5 409.14,-131.5 474.14,-131.5 474.14,-112.5 409.14,-112.5"/>
<text text-anchor="middle" x="441.64" y="-119.5" font-family="Helvetica,sans-Serif" font-size="10.00">memory.h</text>
</a>
</g>
</g>
<!-- Node17&#45;&gt;Node18 -->
<g id="edge24" class="edge">
<title>Node17&#45;&gt;Node18</title>
<path fill="none" stroke="midnightblue" d="M345.71,-168.44C364.22,-159.68 393.22,-145.94 414.5,-135.86"/>
<polygon fill="midnightblue" stroke="midnightblue" points="416.13,-138.96 423.66,-131.52 413.13,-132.63 416.13,-138.96"/>
</g>
<!-- Node19 -->
<g id="node19" class="node">
<title>Node19</title>
<g id="a_node19"><a xlink:href="tmap_8h.html" target="_top" xlink:title=" ">
<polygon fill="white" stroke="black" points="340.14,-112.5 340.14,-131.5 391.14,-131.5 391.14,-112.5 340.14,-112.5"/>
<text text-anchor="middle" x="365.64" y="-119.5" font-family="Helvetica,sans-Serif" font-size="10.00">tmap.h</text>
</a>
</g>
</g>
<!-- Node17&#45;&gt;Node19 -->
<g id="edge27" class="edge">
<title>Node17&#45;&gt;Node19</title>
<path fill="none" stroke="midnightblue" d="M333.92,-168.08C339.29,-160.46 347.16,-149.26 353.72,-139.94"/>
<polygon fill="midnightblue" stroke="midnightblue" points="356.59,-141.94 359.49,-131.75 350.87,-137.91 356.59,-141.94"/>
</g>
<!-- Node19&#45;&gt;Node8 -->
<g id="edge29" class="edge">
<title>Node19&#45;&gt;Node8</title>
<path fill="none" stroke="midnightblue" d="M365.31,-112.08C365.05,-105.01 364.68,-94.86 364.35,-85.99"/>
<polygon fill="midnightblue" stroke="midnightblue" points="367.84,-85.61 363.97,-75.75 360.84,-85.87 367.84,-85.61"/>
</g>
<!-- Node19&#45;&gt;Node10 -->
<g id="edge32" class="edge">
<title>Node19&#45;&gt;Node10</title>
<path fill="none" stroke="midnightblue" d="M353.43,-112.32C341.87,-104.11 324.27,-91.6 310.48,-81.81"/>
<polygon fill="midnightblue" stroke="midnightblue" points="312.26,-78.77 302.08,-75.83 308.2,-84.48 312.26,-78.77"/>
</g>
<!-- Node19&#45;&gt;Node15 -->
<g id="edge30" class="edge">
<title>Node19&#45;&gt;Node15</title>
<path fill="none" stroke="midnightblue" d="M391.21,-114C394.05,-113.29 396.9,-112.61 399.64,-112 402.06,-111.46 524.37,-89.4 596.64,-76.37"/>
<polygon fill="midnightblue" stroke="midnightblue" points="597.7,-79.74 606.92,-74.52 596.46,-72.85 597.7,-79.74"/>
</g>
<!-- Node20 -->
<g id="node20" class="node">
<title>Node20</title>
<g id="a_node20"><a xlink:title=" ">
<polygon fill="white" stroke="#bfbfbf" points="410.64,-56.5 410.64,-75.5 448.64,-75.5 448.64,-56.5 410.64,-56.5"/>
<text text-anchor="middle" x="429.64" y="-63.5" font-family="Helvetica,sans-Serif" font-size="10.00">map</text>
</a>
</g>
</g>
<!-- Node19&#45;&gt;Node20 -->
<g id="edge28" class="edge">
<title>Node19&#45;&gt;Node20</title>
<path fill="none" stroke="midnightblue" d="M375.93,-112.32C385.48,-104.26 399.92,-92.08 411.43,-82.37"/>
<polygon fill="midnightblue" stroke="midnightblue" points="413.79,-84.96 419.17,-75.83 409.27,-79.61 413.79,-84.96"/>
</g>
<!-- Node21 -->
<g id="node21" class="node">
<title>Node21</title>
<g id="a_node21"><a xlink:title=" ">
<polygon fill="white" stroke="#bfbfbf" points="467.14,-56.5 467.14,-75.5 512.14,-75.5 512.14,-56.5 467.14,-56.5"/>
<text text-anchor="middle" x="489.64" y="-63.5" font-family="Helvetica,sans-Serif" font-size="10.00">utility</text>
</a>
</g>
</g>
<!-- Node19&#45;&gt;Node21 -->
<g id="edge31" class="edge">
<title>Node19&#45;&gt;Node21</title>
<path fill="none" stroke="midnightblue" d="M385.29,-112.44C405.61,-103.6 437.55,-89.69 460.74,-79.59"/>
<polygon fill="midnightblue" stroke="midnightblue" points="462.32,-82.72 470.09,-75.52 459.52,-76.3 462.32,-82.72"/>
</g>
<!-- Node22 -->
<g id="node22" class="node">
<title>Node22</title>
<g id="a_node22"><a xlink:title=" ">
<polygon fill="white" stroke="#bfbfbf" points="530.14,-56.5 530.14,-75.5 589.14,-75.5 589.14,-56.5 530.14,-56.5"/>
<text text-anchor="middle" x="559.64" y="-63.5" font-family="Helvetica,sans-Serif" font-size="10.00">tmap.tcc</text>
</a>
</g>
</g>
<!-- Node19&#45;&gt;Node22 -->
<g id="edge33" class="edge">
<title>Node19&#45;&gt;Node22</title>
<path fill="none" stroke="midnightblue" d="M391.41,-113.83C424.33,-104.66 481.66,-88.71 520.13,-78"/>
<polygon fill="midnightblue" stroke="midnightblue" points="521.26,-81.32 529.96,-75.26 519.39,-74.57 521.26,-81.32"/>
</g>
</g>
</svg>
