<?xml version="1.0" encoding="UTF-8" standalone="no"?>
<!DOCTYPE svg PUBLIC "-//W3C//DTD SVG 1.1//EN"
 "http://www.w3.org/Graphics/SVG/1.1/DTD/svg11.dtd">
<!-- Generated by graphviz version 2.46.1 (20210213.1702)
 -->
<!-- Title: tbytevectorlist.h Pages: 1 -->
<svg width="403pt" height="196pt"
 viewBox="0.00 0.00 402.50 196.00" xmlns="http://www.w3.org/2000/svg" xmlns:xlink="http://www.w3.org/1999/xlink">
<g id="graph0" class="graph" transform="scale(1 1) rotate(0) translate(4 192)">
<title>tbytevectorlist.h</title>
<polygon fill="white" stroke="transparent" points="-4,4 -4,-192 398.5,-192 398.5,4 -4,4"/>
<!-- Node1 -->
<g id="node1" class="node">
<title>Node1</title>
<g id="a_node1"><a xlink:title=" ">
<polygon fill="#bfbfbf" stroke="black" points="107,-168.5 107,-187.5 193,-187.5 193,-168.5 107,-168.5"/>
<text text-anchor="middle" x="150" y="-175.5" font-family="Helvetica,sans-Serif" font-size="10.00">tbytevectorlist.h</text>
</a>
</g>
</g>
<!-- Node2 -->
<g id="node2" class="node">
<title>Node2</title>
<g id="a_node2"><a xlink:href="taglib__export_8h.html" target="_top" xlink:title=" ">
<polygon fill="white" stroke="black" points="0,-56.5 0,-75.5 80,-75.5 80,-56.5 0,-56.5"/>
<text text-anchor="middle" x="40" y="-63.5" font-family="Helvetica,sans-Serif" font-size="10.00">taglib_export.h</text>
</a>
</g>
</g>
<!-- Node1&#45;&gt;Node2 -->
<g id="edge1" class="edge">
<title>Node1&#45;&gt;Node2</title>
<path fill="none" stroke="midnightblue" d="M141.13,-168.42C131.83,-159.4 116.82,-144.78 104,-132 87.47,-115.52 68.75,-96.47 55.85,-83.27"/>
<polygon fill="midnightblue" stroke="midnightblue" points="58.13,-80.59 48.64,-75.88 53.12,-85.48 58.13,-80.59"/>
</g>
<!-- Node3 -->
<g id="node3" class="node">
<title>Node3</title>
<g id="a_node3"><a xlink:href="tbytevector_8h.html" target="_top" xlink:title=" ">
<polygon fill="white" stroke="black" points="113.5,-112.5 113.5,-131.5 186.5,-131.5 186.5,-112.5 113.5,-112.5"/>
<text text-anchor="middle" x="150" y="-119.5" font-family="Helvetica,sans-Serif" font-size="10.00">tbytevector.h</text>
</a>
</g>
</g>
<!-- Node1&#45;&gt;Node3 -->
<g id="edge2" class="edge">
<title>Node1&#45;&gt;Node3</title>
<path fill="none" stroke="midnightblue" d="M150,-168.08C150,-161.01 150,-150.86 150,-141.99"/>
<polygon fill="midnightblue" stroke="midnightblue" points="153.5,-141.75 150,-131.75 146.5,-141.75 153.5,-141.75"/>
</g>
<!-- Node9 -->
<g id="node9" class="node">
<title>Node9</title>
<g id="a_node9"><a xlink:href="tlist_8h.html" target="_top" xlink:title=" ">
<polygon fill="white" stroke="black" points="263.5,-112.5 263.5,-131.5 304.5,-131.5 304.5,-112.5 263.5,-112.5"/>
<text text-anchor="middle" x="284" y="-119.5" font-family="Helvetica,sans-Serif" font-size="10.00">tlist.h</text>
</a>
</g>
</g>
<!-- Node1&#45;&gt;Node9 -->
<g id="edge9" class="edge">
<title>Node1&#45;&gt;Node9</title>
<path fill="none" stroke="midnightblue" d="M171.23,-168.44C193.51,-159.46 228.73,-145.27 253.88,-135.14"/>
<polygon fill="midnightblue" stroke="midnightblue" points="255.34,-138.32 263.31,-131.34 252.72,-131.83 255.34,-138.32"/>
</g>
<!-- Node3&#45;&gt;Node2 -->
<g id="edge6" class="edge">
<title>Node3&#45;&gt;Node2</title>
<path fill="none" stroke="midnightblue" d="M132.33,-112.32C114.61,-103.62 87.1,-90.12 66.71,-80.11"/>
<polygon fill="midnightblue" stroke="midnightblue" points="68.15,-76.92 57.63,-75.65 65.06,-83.2 68.15,-76.92"/>
</g>
<!-- Node4 -->
<g id="node4" class="node">
<title>Node4</title>
<g id="a_node4"><a xlink:href="taglib_8h.html" target="_top" xlink:title=" ">
<polygon fill="white" stroke="black" points="232,-56.5 232,-75.5 280,-75.5 280,-56.5 232,-56.5"/>
<text text-anchor="middle" x="256" y="-63.5" font-family="Helvetica,sans-Serif" font-size="10.00">taglib.h</text>
</a>
</g>
</g>
<!-- Node3&#45;&gt;Node4 -->
<g id="edge3" class="edge">
<title>Node3&#45;&gt;Node4</title>
<path fill="none" stroke="midnightblue" d="M167.03,-112.32C184.03,-103.66 210.38,-90.24 229.99,-80.25"/>
<polygon fill="midnightblue" stroke="midnightblue" points="231.69,-83.31 239.01,-75.65 228.51,-77.08 231.69,-83.31"/>
</g>
<!-- Node7 -->
<g id="node7" class="node">
<title>Node7</title>
<g id="a_node7"><a xlink:title=" ">
<polygon fill="white" stroke="#bfbfbf" points="98,-56.5 98,-75.5 142,-75.5 142,-56.5 98,-56.5"/>
<text text-anchor="middle" x="120" y="-63.5" font-family="Helvetica,sans-Serif" font-size="10.00">vector</text>
</a>
</g>
</g>
<!-- Node3&#45;&gt;Node7 -->
<g id="edge7" class="edge">
<title>Node3&#45;&gt;Node7</title>
<path fill="none" stroke="midnightblue" d="M145.05,-112.08C140.9,-104.61 134.85,-93.72 129.73,-84.52"/>
<polygon fill="midnightblue" stroke="midnightblue" points="132.78,-82.79 124.86,-75.75 126.66,-86.19 132.78,-82.79"/>
</g>
<!-- Node8 -->
<g id="node8" class="node">
<title>Node8</title>
<g id="a_node8"><a xlink:title=" ">
<polygon fill="white" stroke="#bfbfbf" points="160,-56.5 160,-75.5 214,-75.5 214,-56.5 160,-56.5"/>
<text text-anchor="middle" x="187" y="-63.5" font-family="Helvetica,sans-Serif" font-size="10.00">iostream</text>
</a>
</g>
</g>
<!-- Node3&#45;&gt;Node8 -->
<g id="edge8" class="edge">
<title>Node3&#45;&gt;Node8</title>
<path fill="none" stroke="midnightblue" d="M156.11,-112.08C161.28,-104.53 168.85,-93.49 175.19,-84.23"/>
<polygon fill="midnightblue" stroke="midnightblue" points="178.24,-85.98 181,-75.75 172.46,-82.02 178.24,-85.98"/>
</g>
<!-- Node5 -->
<g id="node5" class="node">
<title>Node5</title>
<g id="a_node5"><a xlink:title=" ">
<polygon fill="white" stroke="#bfbfbf" points="177,-0.5 177,-19.5 257,-19.5 257,-0.5 177,-0.5"/>
<text text-anchor="middle" x="217" y="-7.5" font-family="Helvetica,sans-Serif" font-size="10.00">taglib_config.h</text>
</a>
</g>
</g>
<!-- Node4&#45;&gt;Node5 -->
<g id="edge4" class="edge">
<title>Node4&#45;&gt;Node5</title>
<path fill="none" stroke="midnightblue" d="M249.56,-56.08C244.05,-48.46 235.97,-37.26 229.24,-27.94"/>
<polygon fill="midnightblue" stroke="midnightblue" points="232.01,-25.81 223.32,-19.75 226.34,-29.91 232.01,-25.81"/>
</g>
<!-- Node6 -->
<g id="node6" class="node">
<title>Node6</title>
<g id="a_node6"><a xlink:title=" ">
<polygon fill="white" stroke="#bfbfbf" points="275.5,-0.5 275.5,-19.5 316.5,-19.5 316.5,-0.5 275.5,-0.5"/>
<text text-anchor="middle" x="296" y="-7.5" font-family="Helvetica,sans-Serif" font-size="10.00">string</text>
</a>
</g>
</g>
<!-- Node4&#45;&gt;Node6 -->
<g id="edge5" class="edge">
<title>Node4&#45;&gt;Node6</title>
<path fill="none" stroke="midnightblue" d="M262.61,-56.08C268.26,-48.46 276.54,-37.26 283.45,-27.94"/>
<polygon fill="midnightblue" stroke="midnightblue" points="286.38,-29.87 289.52,-19.75 280.75,-25.7 286.38,-29.87"/>
</g>
<!-- Node9&#45;&gt;Node4 -->
<g id="edge10" class="edge">
<title>Node9&#45;&gt;Node4</title>
<path fill="none" stroke="midnightblue" d="M279.38,-112.08C275.54,-104.69 269.98,-93.95 265.24,-84.81"/>
<polygon fill="midnightblue" stroke="midnightblue" points="268.25,-83.02 260.54,-75.75 262.03,-86.24 268.25,-83.02"/>
</g>
<!-- Node10 -->
<g id="node10" class="node">
<title>Node10</title>
<g id="a_node10"><a xlink:title=" ">
<polygon fill="white" stroke="#bfbfbf" points="298.5,-56.5 298.5,-75.5 327.5,-75.5 327.5,-56.5 298.5,-56.5"/>
<text text-anchor="middle" x="313" y="-63.5" font-family="Helvetica,sans-Serif" font-size="10.00">list</text>
</a>
</g>
</g>
<!-- Node9&#45;&gt;Node10 -->
<g id="edge11" class="edge">
<title>Node9&#45;&gt;Node10</title>
<path fill="none" stroke="midnightblue" d="M288.79,-112.08C292.76,-104.69 298.53,-93.95 303.43,-84.81"/>
<polygon fill="midnightblue" stroke="midnightblue" points="306.65,-86.22 308.3,-75.75 300.49,-82.91 306.65,-86.22"/>
</g>
<!-- Node11 -->
<g id="node11" class="node">
<title>Node11</title>
<g id="a_node11"><a xlink:title=" ">
<polygon fill="white" stroke="#bfbfbf" points="345.5,-56.5 345.5,-75.5 394.5,-75.5 394.5,-56.5 345.5,-56.5"/>
<text text-anchor="middle" x="370" y="-63.5" font-family="Helvetica,sans-Serif" font-size="10.00">tlist.tcc</text>
</a>
</g>
</g>
<!-- Node9&#45;&gt;Node11 -->
<g id="edge12" class="edge">
<title>Node9&#45;&gt;Node11</title>
<path fill="none" stroke="midnightblue" d="M297.82,-112.32C311.23,-103.9 331.82,-90.97 347.59,-81.07"/>
<polygon fill="midnightblue" stroke="midnightblue" points="349.61,-83.94 356.22,-75.65 345.89,-78.01 349.61,-83.94"/>
</g>
</g>
</svg>
