<?xml version="1.0" encoding="UTF-8" standalone="no"?>
<!DOCTYPE svg PUBLIC "-//W3C//DTD SVG 1.1//EN"
 "http://www.w3.org/Graphics/SVG/1.1/DTD/svg11.dtd">
<!-- Generated by graphviz version 2.43.0 (0)
 -->
<!-- Title: tbytevectorlist.h Pages: 1 -->
<svg width="1058pt" height="252pt"
 viewBox="0.00 0.00 1058.00 252.00" xmlns="http://www.w3.org/2000/svg" xmlns:xlink="http://www.w3.org/1999/xlink">
<g id="graph0" class="graph" transform="scale(1 1) rotate(0) translate(4 248)">
<title>tbytevectorlist.h</title>
<polygon fill="white" stroke="transparent" points="-4,4 -4,-248 1054,-248 1054,4 -4,4"/>
<!-- Node1 -->
<g id="node1" class="node">
<title>Node1</title>
<g id="a_node1"><a xlink:title=" ">
<polygon fill="#bfbfbf" stroke="black" points="400,-224.5 400,-243.5 497,-243.5 497,-224.5 400,-224.5"/>
<text text-anchor="middle" x="448.5" y="-231.5" font-family="Helvetica,sans-Serif" font-size="10.00">tbytevectorlist.h</text>
</a>
</g>
</g>
<!-- Node2 -->
<g id="node2" class="node">
<title>Node2</title>
<g id="a_node2"><a xlink:href="mp4tag_8h.html" target="_top" xlink:title=" ">
<polygon fill="white" stroke="black" points="0,-56.5 0,-75.5 63,-75.5 63,-56.5 0,-56.5"/>
<text text-anchor="middle" x="31.5" y="-63.5" font-family="Helvetica,sans-Serif" font-size="10.00">mp4tag.h</text>
</a>
</g>
</g>
<!-- Node1&#45;&gt;Node2 -->
<g id="edge1" class="edge">
<title>Node1&#45;&gt;Node2</title>
<path fill="none" stroke="midnightblue" d="M389.53,-232.7C306.98,-229.24 156.48,-211.49 61.5,-132 43.77,-117.16 35.97,-89.57 33.03,-75.59"/>
<polygon fill="midnightblue" stroke="midnightblue" points="389.61,-236.2 399.73,-233.07 389.87,-229.21 389.61,-236.2"/>
</g>
<!-- Node4 -->
<g id="node4" class="node">
<title>Node4</title>
<g id="a_node4"><a xlink:href="oggfile_8h.html" target="_top" xlink:title=" ">
<polygon fill="white" stroke="black" points="901,-112.5 901,-131.5 960,-131.5 960,-112.5 901,-112.5"/>
<text text-anchor="middle" x="930.5" y="-119.5" font-family="Helvetica,sans-Serif" font-size="10.00">oggfile.h</text>
</a>
</g>
</g>
<!-- Node1&#45;&gt;Node4 -->
<g id="edge3" class="edge">
<title>Node1&#45;&gt;Node4</title>
<path fill="none" stroke="midnightblue" d="M448.59,-214C449.77,-199.08 454.01,-179.03 467.5,-168 540.7,-108.13 798.08,-146.67 891.5,-132 894.52,-131.53 897.65,-130.95 900.77,-130.32"/>
<polygon fill="midnightblue" stroke="midnightblue" points="445.09,-214.05 448.19,-224.18 452.08,-214.33 445.09,-214.05"/>
</g>
<!-- Node9 -->
<g id="node9" class="node">
<title>Node9</title>
<g id="a_node9"><a xlink:href="oggpage_8h.html" target="_top" xlink:title=" ">
<polygon fill="white" stroke="black" points="476.5,-168.5 476.5,-187.5 544.5,-187.5 544.5,-168.5 476.5,-168.5"/>
<text text-anchor="middle" x="510.5" y="-175.5" font-family="Helvetica,sans-Serif" font-size="10.00">oggpage.h</text>
</a>
</g>
</g>
<!-- Node1&#45;&gt;Node9 -->
<g id="edge8" class="edge">
<title>Node1&#45;&gt;Node9</title>
<path fill="none" stroke="midnightblue" d="M466.25,-217.54C477.31,-207.91 491.13,-195.87 500.36,-187.83"/>
<polygon fill="midnightblue" stroke="midnightblue" points="463.7,-215.12 458.46,-224.32 468.3,-220.4 463.7,-215.12"/>
</g>
<!-- Node10 -->
<g id="node10" class="node">
<title>Node10</title>
<g id="a_node10"><a xlink:href="tableofcontentsframe_8h.html" target="_top" xlink:title=" ">
<polygon fill="white" stroke="black" points="563,-168.5 563,-187.5 694,-187.5 694,-168.5 563,-168.5"/>
<text text-anchor="middle" x="628.5" y="-175.5" font-family="Helvetica,sans-Serif" font-size="10.00">tableofcontentsframe.h</text>
</a>
</g>
</g>
<!-- Node1&#45;&gt;Node10 -->
<g id="edge9" class="edge">
<title>Node1&#45;&gt;Node10</title>
<path fill="none" stroke="midnightblue" d="M486.61,-221.57C520.56,-211.38 569.49,-196.7 600.11,-187.52"/>
<polygon fill="midnightblue" stroke="midnightblue" points="485.59,-218.22 477.02,-224.44 487.61,-224.92 485.59,-218.22"/>
</g>
<!-- Node11 -->
<g id="node11" class="node">
<title>Node11</title>
<g id="a_node11"><a xlink:href="tstringlist_8h.html" target="_top" xlink:title=" ">
<polygon fill="white" stroke="black" points="348.5,-168.5 348.5,-187.5 420.5,-187.5 420.5,-168.5 348.5,-168.5"/>
<text text-anchor="middle" x="384.5" y="-175.5" font-family="Helvetica,sans-Serif" font-size="10.00">tstringlist.h</text>
</a>
</g>
</g>
<!-- Node1&#45;&gt;Node11 -->
<g id="edge10" class="edge">
<title>Node1&#45;&gt;Node11</title>
<path fill="none" stroke="midnightblue" d="M430.51,-217.82C419.04,-208.15 404.59,-195.95 394.97,-187.83"/>
<polygon fill="midnightblue" stroke="midnightblue" points="428.32,-220.55 438.22,-224.32 432.83,-215.2 428.32,-220.55"/>
</g>
<!-- Node3 -->
<g id="node3" class="node">
<title>Node3</title>
<g id="a_node3"><a xlink:href="mp4file_8h.html" target="_top" xlink:title=" ">
<polygon fill="white" stroke="black" points="0.5,-0.5 0.5,-19.5 62.5,-19.5 62.5,-0.5 0.5,-0.5"/>
<text text-anchor="middle" x="31.5" y="-7.5" font-family="Helvetica,sans-Serif" font-size="10.00">mp4file.h</text>
</a>
</g>
</g>
<!-- Node2&#45;&gt;Node3 -->
<g id="edge2" class="edge">
<title>Node2&#45;&gt;Node3</title>
<path fill="none" stroke="midnightblue" d="M31.5,-45.8C31.5,-36.91 31.5,-26.78 31.5,-19.75"/>
<polygon fill="midnightblue" stroke="midnightblue" points="28,-46.08 31.5,-56.08 35,-46.08 28,-46.08"/>
</g>
<!-- Node5 -->
<g id="node5" class="node">
<title>Node5</title>
<g id="a_node5"><a xlink:href="oggflacfile_8h.html" target="_top" xlink:title=" ">
<polygon fill="white" stroke="black" points="714.5,-56.5 714.5,-75.5 790.5,-75.5 790.5,-56.5 714.5,-56.5"/>
<text text-anchor="middle" x="752.5" y="-63.5" font-family="Helvetica,sans-Serif" font-size="10.00">oggflacfile.h</text>
</a>
</g>
</g>
<!-- Node4&#45;&gt;Node5 -->
<g id="edge4" class="edge">
<title>Node4&#45;&gt;Node5</title>
<path fill="none" stroke="midnightblue" d="M892.38,-109.44C858.82,-99.26 810.73,-84.66 780.57,-75.52"/>
<polygon fill="midnightblue" stroke="midnightblue" points="891.71,-112.89 902.3,-112.44 893.74,-106.19 891.71,-112.89"/>
</g>
<!-- Node6 -->
<g id="node6" class="node">
<title>Node6</title>
<g id="a_node6"><a xlink:href="opusfile_8h.html" target="_top" xlink:title=" ">
<polygon fill="white" stroke="black" points="808.5,-56.5 808.5,-75.5 872.5,-75.5 872.5,-56.5 808.5,-56.5"/>
<text text-anchor="middle" x="840.5" y="-63.5" font-family="Helvetica,sans-Serif" font-size="10.00">opusfile.h</text>
</a>
</g>
</g>
<!-- Node4&#45;&gt;Node6 -->
<g id="edge5" class="edge">
<title>Node4&#45;&gt;Node6</title>
<path fill="none" stroke="midnightblue" d="M907.46,-107.18C890.9,-97.24 869.08,-84.15 854.92,-75.65"/>
<polygon fill="midnightblue" stroke="midnightblue" points="905.66,-110.18 916.04,-112.32 909.27,-104.18 905.66,-110.18"/>
</g>
<!-- Node7 -->
<g id="node7" class="node">
<title>Node7</title>
<g id="a_node7"><a xlink:href="speexfile_8h.html" target="_top" xlink:title=" ">
<polygon fill="white" stroke="black" points="890.5,-56.5 890.5,-75.5 960.5,-75.5 960.5,-56.5 890.5,-56.5"/>
<text text-anchor="middle" x="925.5" y="-63.5" font-family="Helvetica,sans-Serif" font-size="10.00">speexfile.h</text>
</a>
</g>
</g>
<!-- Node4&#45;&gt;Node7 -->
<g id="edge6" class="edge">
<title>Node4&#45;&gt;Node7</title>
<path fill="none" stroke="midnightblue" d="M928.75,-102.1C927.92,-93.14 926.97,-82.86 926.31,-75.75"/>
<polygon fill="midnightblue" stroke="midnightblue" points="925.27,-102.45 929.67,-112.08 932.24,-101.8 925.27,-102.45"/>
</g>
<!-- Node8 -->
<g id="node8" class="node">
<title>Node8</title>
<g id="a_node8"><a xlink:href="vorbisfile_8h.html" target="_top" xlink:title=" ">
<polygon fill="white" stroke="black" points="979,-56.5 979,-75.5 1050,-75.5 1050,-56.5 979,-56.5"/>
<text text-anchor="middle" x="1014.5" y="-63.5" font-family="Helvetica,sans-Serif" font-size="10.00">vorbisfile.h</text>
</a>
</g>
</g>
<!-- Node4&#45;&gt;Node8 -->
<g id="edge7" class="edge">
<title>Node4&#45;&gt;Node8</title>
<path fill="none" stroke="midnightblue" d="M952.43,-106.9C967.84,-97 987.95,-84.07 1001.04,-75.65"/>
<polygon fill="midnightblue" stroke="midnightblue" points="950.52,-103.97 944,-112.32 954.3,-109.86 950.52,-103.97"/>
</g>
<!-- Node11&#45;&gt;Node2 -->
<g id="edge20" class="edge">
<title>Node11&#45;&gt;Node2</title>
<path fill="none" stroke="midnightblue" d="M338.17,-173.83C265.99,-168.26 130.6,-155.05 88.5,-132 64.01,-118.59 45.02,-90.36 36.46,-75.92"/>
<polygon fill="midnightblue" stroke="midnightblue" points="338.11,-177.34 348.34,-174.6 338.63,-170.36 338.11,-177.34"/>
</g>
<!-- Node12 -->
<g id="node12" class="node">
<title>Node12</title>
<g id="a_node12"><a xlink:href="apeitem_8h.html" target="_top" xlink:title=" ">
<polygon fill="white" stroke="black" points="185.5,-112.5 185.5,-131.5 251.5,-131.5 251.5,-112.5 185.5,-112.5"/>
<text text-anchor="middle" x="218.5" y="-119.5" font-family="Helvetica,sans-Serif" font-size="10.00">apeitem.h</text>
</a>
</g>
</g>
<!-- Node11&#45;&gt;Node12 -->
<g id="edge11" class="edge">
<title>Node11&#45;&gt;Node12</title>
<path fill="none" stroke="midnightblue" d="M348.55,-165.3C317.27,-155.13 272.68,-140.62 244.68,-131.52"/>
<polygon fill="midnightblue" stroke="midnightblue" points="347.6,-168.68 358.2,-168.44 349.77,-162.02 347.6,-168.68"/>
</g>
<!-- Node14 -->
<g id="node14" class="node">
<title>Node14</title>
<g id="a_node14"><a xlink:href="fileref_8h.html" target="_top" xlink:title=" ">
<polygon fill="white" stroke="black" points="270,-112.5 270,-131.5 323,-131.5 323,-112.5 270,-112.5"/>
<text text-anchor="middle" x="296.5" y="-119.5" font-family="Helvetica,sans-Serif" font-size="10.00">fileref.h</text>
</a>
</g>
</g>
<!-- Node11&#45;&gt;Node14 -->
<g id="edge13" class="edge">
<title>Node11&#45;&gt;Node14</title>
<path fill="none" stroke="midnightblue" d="M361.52,-162.9C345.39,-153 324.32,-140.07 310.6,-131.65"/>
<polygon fill="midnightblue" stroke="midnightblue" points="360.01,-166.08 370.36,-168.32 363.67,-160.11 360.01,-166.08"/>
</g>
<!-- Node15 -->
<g id="node15" class="node">
<title>Node15</title>
<g id="a_node15"><a xlink:href="id3v1genres_8h.html" target="_top" xlink:title=" ">
<polygon fill="white" stroke="black" points="341.5,-112.5 341.5,-131.5 427.5,-131.5 427.5,-112.5 341.5,-112.5"/>
<text text-anchor="middle" x="384.5" y="-119.5" font-family="Helvetica,sans-Serif" font-size="10.00">id3v1genres.h</text>
</a>
</g>
</g>
<!-- Node11&#45;&gt;Node15 -->
<g id="edge14" class="edge">
<title>Node11&#45;&gt;Node15</title>
<path fill="none" stroke="midnightblue" d="M384.5,-157.8C384.5,-148.91 384.5,-138.78 384.5,-131.75"/>
<polygon fill="midnightblue" stroke="midnightblue" points="381,-158.08 384.5,-168.08 388,-158.08 381,-158.08"/>
</g>
<!-- Node16 -->
<g id="node16" class="node">
<title>Node16</title>
<g id="a_node16"><a xlink:href="infotag_8h.html" target="_top" xlink:title=" ">
<polygon fill="white" stroke="black" points="445.5,-112.5 445.5,-131.5 505.5,-131.5 505.5,-112.5 445.5,-112.5"/>
<text text-anchor="middle" x="475.5" y="-119.5" font-family="Helvetica,sans-Serif" font-size="10.00">infotag.h</text>
</a>
</g>
</g>
<!-- Node11&#45;&gt;Node16 -->
<g id="edge15" class="edge">
<title>Node11&#45;&gt;Node16</title>
<path fill="none" stroke="midnightblue" d="M407.79,-163.18C424.54,-153.24 446.6,-140.15 460.92,-131.65"/>
<polygon fill="midnightblue" stroke="midnightblue" points="405.93,-160.21 399.12,-168.32 409.51,-166.23 405.93,-160.21"/>
</g>
<!-- Node18 -->
<g id="node18" class="node">
<title>Node18</title>
<g id="a_node18"><a xlink:href="mp4item_8h.html" target="_top" xlink:title=" ">
<polygon fill="white" stroke="black" points="97.5,-112.5 97.5,-131.5 167.5,-131.5 167.5,-112.5 97.5,-112.5"/>
<text text-anchor="middle" x="132.5" y="-119.5" font-family="Helvetica,sans-Serif" font-size="10.00">mp4item.h</text>
</a>
</g>
</g>
<!-- Node11&#45;&gt;Node18 -->
<g id="edge17" class="edge">
<title>Node11&#45;&gt;Node18</title>
<path fill="none" stroke="midnightblue" d="M338.33,-167.11C289.12,-156.56 212.28,-140.1 167.73,-130.55"/>
<polygon fill="midnightblue" stroke="midnightblue" points="337.88,-170.59 348.39,-169.26 339.35,-163.75 337.88,-170.59"/>
</g>
<!-- Node20 -->
<g id="node20" class="node">
<title>Node20</title>
<g id="a_node20"><a xlink:href="textidentificationframe_8h.html" target="_top" xlink:title=" ">
<polygon fill="white" stroke="black" points="523.5,-112.5 523.5,-131.5 661.5,-131.5 661.5,-112.5 523.5,-112.5"/>
<text text-anchor="middle" x="592.5" y="-119.5" font-family="Helvetica,sans-Serif" font-size="10.00">textidentificationframe.h</text>
</a>
</g>
</g>
<!-- Node11&#45;&gt;Node20 -->
<g id="edge21" class="edge">
<title>Node11&#45;&gt;Node20</title>
<path fill="none" stroke="midnightblue" d="M427.28,-165.89C466.56,-155.7 523.93,-140.8 559.7,-131.52"/>
<polygon fill="midnightblue" stroke="midnightblue" points="426.26,-162.54 417.46,-168.44 428.02,-169.32 426.26,-162.54"/>
</g>
<!-- Node21 -->
<g id="node21" class="node">
<title>Node21</title>
<g id="a_node21"><a xlink:href="tpropertymap_8h.html" target="_top" xlink:title=" ">
<polygon fill="white" stroke="black" points="679.5,-112.5 679.5,-131.5 771.5,-131.5 771.5,-112.5 679.5,-112.5"/>
<text text-anchor="middle" x="725.5" y="-119.5" font-family="Helvetica,sans-Serif" font-size="10.00">tpropertymap.h</text>
</a>
</g>
</g>
<!-- Node11&#45;&gt;Node21 -->
<g id="edge22" class="edge">
<title>Node11&#45;&gt;Node21</title>
<path fill="none" stroke="midnightblue" d="M430.64,-168.65C431.94,-168.43 433.23,-168.21 434.5,-168 539.17,-150.6 565.7,-148.57 670.5,-132 673.37,-131.55 676.32,-131.08 679.29,-130.6"/>
<polygon fill="midnightblue" stroke="midnightblue" points="429.79,-165.24 420.53,-170.4 430.98,-172.14 429.79,-165.24"/>
</g>
<!-- Node22 -->
<g id="node22" class="node">
<title>Node22</title>
<g id="a_node22"><a xlink:href="xiphcomment_8h.html" target="_top" xlink:title=" ">
<polygon fill="white" stroke="black" points="790,-112.5 790,-131.5 883,-131.5 883,-112.5 790,-112.5"/>
<text text-anchor="middle" x="836.5" y="-119.5" font-family="Helvetica,sans-Serif" font-size="10.00">xiphcomment.h</text>
</a>
</g>
</g>
<!-- Node11&#45;&gt;Node22 -->
<g id="edge23" class="edge">
<title>Node11&#45;&gt;Node22</title>
<path fill="none" stroke="midnightblue" d="M430.7,-168.56C431.98,-168.36 433.25,-168.18 434.5,-168 587.58,-146.29 627.23,-152.27 780.5,-132 783.53,-131.6 786.64,-131.16 789.78,-130.71"/>
<polygon fill="midnightblue" stroke="midnightblue" points="430.09,-165.11 420.77,-170.14 431.2,-172.02 430.09,-165.11"/>
</g>
<!-- Node13 -->
<g id="node13" class="node">
<title>Node13</title>
<g id="a_node13"><a xlink:href="apetag_8h.html" target="_top" xlink:title=" ">
<polygon fill="white" stroke="black" points="202,-56.5 202,-75.5 261,-75.5 261,-56.5 202,-56.5"/>
<text text-anchor="middle" x="231.5" y="-63.5" font-family="Helvetica,sans-Serif" font-size="10.00">apetag.h</text>
</a>
</g>
</g>
<!-- Node12&#45;&gt;Node13 -->
<g id="edge12" class="edge">
<title>Node12&#45;&gt;Node13</title>
<path fill="none" stroke="midnightblue" d="M223.05,-102.1C225.21,-93.14 227.68,-82.86 229.39,-75.75"/>
<polygon fill="midnightblue" stroke="midnightblue" points="219.58,-101.54 220.65,-112.08 226.39,-103.18 219.58,-101.54"/>
</g>
<!-- Node17 -->
<g id="node17" class="node">
<title>Node17</title>
<g id="a_node17"><a xlink:href="wavfile_8h.html" target="_top" xlink:title=" ">
<polygon fill="white" stroke="black" points="445,-56.5 445,-75.5 506,-75.5 506,-56.5 445,-56.5"/>
<text text-anchor="middle" x="475.5" y="-63.5" font-family="Helvetica,sans-Serif" font-size="10.00">wavfile.h</text>
</a>
</g>
</g>
<!-- Node16&#45;&gt;Node17 -->
<g id="edge16" class="edge">
<title>Node16&#45;&gt;Node17</title>
<path fill="none" stroke="midnightblue" d="M475.5,-101.8C475.5,-92.91 475.5,-82.78 475.5,-75.75"/>
<polygon fill="midnightblue" stroke="midnightblue" points="472,-102.08 475.5,-112.08 479,-102.08 472,-102.08"/>
</g>
<!-- Node18&#45;&gt;Node2 -->
<g id="edge19" class="edge">
<title>Node18&#45;&gt;Node2</title>
<path fill="none" stroke="midnightblue" d="M107.42,-107.59C88.74,-97.61 63.8,-84.27 47.69,-75.65"/>
<polygon fill="midnightblue" stroke="midnightblue" points="105.8,-110.7 116.27,-112.32 109.1,-104.52 105.8,-110.7"/>
</g>
<!-- Node19 -->
<g id="node19" class="node">
<title>Node19</title>
<g id="a_node19"><a xlink:href="mp4itemfactory_8h.html" target="_top" xlink:title=" ">
<polygon fill="white" stroke="black" points="81,-56.5 81,-75.5 184,-75.5 184,-56.5 81,-56.5"/>
<text text-anchor="middle" x="132.5" y="-63.5" font-family="Helvetica,sans-Serif" font-size="10.00">mp4itemfactory.h</text>
</a>
</g>
</g>
<!-- Node18&#45;&gt;Node19 -->
<g id="edge18" class="edge">
<title>Node18&#45;&gt;Node19</title>
<path fill="none" stroke="midnightblue" d="M132.5,-101.8C132.5,-92.91 132.5,-82.78 132.5,-75.75"/>
<polygon fill="midnightblue" stroke="midnightblue" points="129,-102.08 132.5,-112.08 136,-102.08 129,-102.08"/>
</g>
<!-- Node22&#45;&gt;Node5 -->
<g id="edge24" class="edge">
<title>Node22&#45;&gt;Node5</title>
<path fill="none" stroke="midnightblue" d="M814.57,-106.9C799.16,-97 779.05,-84.07 765.96,-75.65"/>
<polygon fill="midnightblue" stroke="midnightblue" points="812.7,-109.86 823,-112.32 816.48,-103.97 812.7,-109.86"/>
</g>
<!-- Node22&#45;&gt;Node6 -->
<g id="edge25" class="edge">
<title>Node22&#45;&gt;Node6</title>
<path fill="none" stroke="midnightblue" d="M837.9,-102.1C838.56,-93.14 839.33,-82.86 839.85,-75.75"/>
<polygon fill="midnightblue" stroke="midnightblue" points="834.41,-101.85 837.16,-112.08 841.39,-102.37 834.41,-101.85"/>
</g>
<!-- Node22&#45;&gt;Node7 -->
<g id="edge26" class="edge">
<title>Node22&#45;&gt;Node7</title>
<path fill="none" stroke="midnightblue" d="M859.74,-106.9C876.06,-97 897.37,-84.07 911.24,-75.65"/>
<polygon fill="midnightblue" stroke="midnightblue" points="857.53,-104.14 850.8,-112.32 861.16,-110.13 857.53,-104.14"/>
</g>
<!-- Node22&#45;&gt;Node8 -->
<g id="edge27" class="edge">
<title>Node22&#45;&gt;Node8</title>
<path fill="none" stroke="midnightblue" d="M874.62,-109.44C908.18,-99.26 956.27,-84.66 986.43,-75.52"/>
<polygon fill="midnightblue" stroke="midnightblue" points="873.26,-106.19 864.7,-112.44 875.29,-112.89 873.26,-106.19"/>
</g>
</g>
</svg>
