<?xml version="1.0" encoding="UTF-8" standalone="no"?>
<!DOCTYPE svg PUBLIC "-//W3C//DTD SVG 1.1//EN"
 "http://www.w3.org/Graphics/SVG/1.1/DTD/svg11.dtd">
<!-- Generated by graphviz version 2.43.0 (0)
 -->
<!-- Title: tbytevectorlist.h Pages: 1 -->
<svg width="613pt" height="196pt"
 viewBox="0.00 0.00 612.50 196.00" xmlns="http://www.w3.org/2000/svg" xmlns:xlink="http://www.w3.org/1999/xlink">
<g id="graph0" class="graph" transform="scale(1 1) rotate(0) translate(4 192)">
<title>tbytevectorlist.h</title>
<polygon fill="white" stroke="transparent" points="-4,4 -4,-192 608.5,-192 608.5,4 -4,4"/>
<!-- Node1 -->
<g id="node1" class="node">
<title>Node1</title>
<g id="a_node1"><a xlink:title=" ">
<polygon fill="#bfbfbf" stroke="black" points="161.5,-168.5 161.5,-187.5 258.5,-187.5 258.5,-168.5 161.5,-168.5"/>
<text text-anchor="middle" x="210" y="-175.5" font-family="Helvetica,sans-Serif" font-size="10.00">tbytevectorlist.h</text>
</a>
</g>
</g>
<!-- Node2 -->
<g id="node2" class="node">
<title>Node2</title>
<g id="a_node2"><a xlink:href="tbytevector_8h.html" target="_top" xlink:title=" ">
<polygon fill="white" stroke="black" points="169.5,-112.5 169.5,-131.5 250.5,-131.5 250.5,-112.5 169.5,-112.5"/>
<text text-anchor="middle" x="210" y="-119.5" font-family="Helvetica,sans-Serif" font-size="10.00">tbytevector.h</text>
</a>
</g>
</g>
<!-- Node1&#45;&gt;Node2 -->
<g id="edge1" class="edge">
<title>Node1&#45;&gt;Node2</title>
<path fill="none" stroke="midnightblue" d="M210,-168.08C210,-161.01 210,-150.86 210,-141.99"/>
<polygon fill="midnightblue" stroke="midnightblue" points="213.5,-141.75 210,-131.75 206.5,-141.75 213.5,-141.75"/>
</g>
<!-- Node10 -->
<g id="node10" class="node">
<title>Node10</title>
<g id="a_node10"><a xlink:href="taglib__export_8h.html" target="_top" xlink:title=" ">
<polygon fill="white" stroke="black" points="0,-56.5 0,-75.5 90,-75.5 90,-56.5 0,-56.5"/>
<text text-anchor="middle" x="45" y="-63.5" font-family="Helvetica,sans-Serif" font-size="10.00">taglib_export.h</text>
</a>
</g>
</g>
<!-- Node1&#45;&gt;Node10 -->
<g id="edge16" class="edge">
<title>Node1&#45;&gt;Node10</title>
<path fill="none" stroke="midnightblue" d="M197.05,-168.37C168.74,-149.49 101.08,-104.38 66.36,-81.24"/>
<polygon fill="midnightblue" stroke="midnightblue" points="68.15,-78.23 57.89,-75.59 64.27,-84.05 68.15,-78.23"/>
</g>
<!-- Node11 -->
<g id="node11" class="node">
<title>Node11</title>
<g id="a_node11"><a xlink:href="tlist_8h.html" target="_top" xlink:title=" ">
<polygon fill="white" stroke="black" points="363,-112.5 363,-131.5 407,-131.5 407,-112.5 363,-112.5"/>
<text text-anchor="middle" x="385" y="-119.5" font-family="Helvetica,sans-Serif" font-size="10.00">tlist.h</text>
</a>
</g>
</g>
<!-- Node1&#45;&gt;Node11 -->
<g id="edge10" class="edge">
<title>Node1&#45;&gt;Node11</title>
<path fill="none" stroke="midnightblue" d="M237.73,-168.44C269.17,-158.74 320.34,-142.95 353.33,-132.77"/>
<polygon fill="midnightblue" stroke="midnightblue" points="354.42,-136.1 362.94,-129.81 352.35,-129.41 354.42,-136.1"/>
</g>
<!-- Node3 -->
<g id="node3" class="node">
<title>Node3</title>
<g id="a_node3"><a xlink:title=" ">
<polygon fill="white" stroke="#bfbfbf" points="108,-56.5 108,-75.5 168,-75.5 168,-56.5 108,-56.5"/>
<text text-anchor="middle" x="138" y="-63.5" font-family="Helvetica,sans-Serif" font-size="10.00">iostream</text>
</a>
</g>
</g>
<!-- Node2&#45;&gt;Node3 -->
<g id="edge2" class="edge">
<title>Node2&#45;&gt;Node3</title>
<path fill="none" stroke="midnightblue" d="M198.43,-112.32C187.58,-104.18 171.12,-91.84 158.12,-82.09"/>
<polygon fill="midnightblue" stroke="midnightblue" points="159.88,-79.03 149.78,-75.83 155.68,-84.63 159.88,-79.03"/>
</g>
<!-- Node4 -->
<g id="node4" class="node">
<title>Node4</title>
<g id="a_node4"><a xlink:title=" ">
<polygon fill="white" stroke="#bfbfbf" points="252,-56.5 252,-75.5 310,-75.5 310,-56.5 252,-56.5"/>
<text text-anchor="middle" x="281" y="-63.5" font-family="Helvetica,sans-Serif" font-size="10.00">memory</text>
</a>
</g>
</g>
<!-- Node2&#45;&gt;Node4 -->
<g id="edge3" class="edge">
<title>Node2&#45;&gt;Node4</title>
<path fill="none" stroke="midnightblue" d="M221.41,-112.32C232.11,-104.18 248.34,-91.84 261.16,-82.09"/>
<polygon fill="midnightblue" stroke="midnightblue" points="263.54,-84.67 269.39,-75.83 259.31,-79.1 263.54,-84.67"/>
</g>
<!-- Node5 -->
<g id="node5" class="node">
<title>Node5</title>
<g id="a_node5"><a xlink:title=" ">
<polygon fill="white" stroke="#bfbfbf" points="186.5,-56.5 186.5,-75.5 233.5,-75.5 233.5,-56.5 186.5,-56.5"/>
<text text-anchor="middle" x="210" y="-63.5" font-family="Helvetica,sans-Serif" font-size="10.00">vector</text>
</a>
</g>
</g>
<!-- Node2&#45;&gt;Node5 -->
<g id="edge4" class="edge">
<title>Node2&#45;&gt;Node5</title>
<path fill="none" stroke="midnightblue" d="M210,-112.08C210,-105.01 210,-94.86 210,-85.99"/>
<polygon fill="midnightblue" stroke="midnightblue" points="213.5,-85.75 210,-75.75 206.5,-85.75 213.5,-85.75"/>
</g>
<!-- Node6 -->
<g id="node6" class="node">
<title>Node6</title>
<g id="a_node6"><a xlink:href="taglib_8h.html" target="_top" xlink:title=" ">
<polygon fill="white" stroke="black" points="328.5,-56.5 328.5,-75.5 381.5,-75.5 381.5,-56.5 328.5,-56.5"/>
<text text-anchor="middle" x="355" y="-63.5" font-family="Helvetica,sans-Serif" font-size="10.00">taglib.h</text>
</a>
</g>
</g>
<!-- Node2&#45;&gt;Node6 -->
<g id="edge5" class="edge">
<title>Node2&#45;&gt;Node6</title>
<path fill="none" stroke="midnightblue" d="M232.98,-112.44C257.16,-103.44 295.42,-89.19 322.65,-79.05"/>
<polygon fill="midnightblue" stroke="midnightblue" points="323.98,-82.29 332.13,-75.52 321.54,-75.73 323.98,-82.29"/>
</g>
<!-- Node2&#45;&gt;Node10 -->
<g id="edge9" class="edge">
<title>Node2&#45;&gt;Node10</title>
<path fill="none" stroke="midnightblue" d="M183.86,-112.44C155.98,-103.32 111.65,-88.81 80.6,-78.65"/>
<polygon fill="midnightblue" stroke="midnightblue" points="81.62,-75.3 71.02,-75.52 79.44,-81.95 81.62,-75.3"/>
</g>
<!-- Node7 -->
<g id="node7" class="node">
<title>Node7</title>
<g id="a_node7"><a xlink:title=" ">
<polygon fill="white" stroke="#bfbfbf" points="213,-0.5 213,-19.5 301,-19.5 301,-0.5 213,-0.5"/>
<text text-anchor="middle" x="257" y="-7.5" font-family="Helvetica,sans-Serif" font-size="10.00">taglib_config.h</text>
</a>
</g>
</g>
<!-- Node6&#45;&gt;Node7 -->
<g id="edge6" class="edge">
<title>Node6&#45;&gt;Node7</title>
<path fill="none" stroke="midnightblue" d="M339.25,-56.32C323.68,-47.74 299.62,-34.49 281.54,-24.52"/>
<polygon fill="midnightblue" stroke="midnightblue" points="283.15,-21.42 272.71,-19.65 279.78,-27.55 283.15,-21.42"/>
</g>
<!-- Node8 -->
<g id="node8" class="node">
<title>Node8</title>
<g id="a_node8"><a xlink:title=" ">
<polygon fill="white" stroke="#bfbfbf" points="319,-0.5 319,-19.5 391,-19.5 391,-0.5 319,-0.5"/>
<text text-anchor="middle" x="355" y="-7.5" font-family="Helvetica,sans-Serif" font-size="10.00">sys/types.h</text>
</a>
</g>
</g>
<!-- Node6&#45;&gt;Node8 -->
<g id="edge7" class="edge">
<title>Node6&#45;&gt;Node8</title>
<path fill="none" stroke="midnightblue" d="M355,-56.08C355,-49.01 355,-38.86 355,-29.99"/>
<polygon fill="midnightblue" stroke="midnightblue" points="358.5,-29.75 355,-19.75 351.5,-29.75 358.5,-29.75"/>
</g>
<!-- Node9 -->
<g id="node9" class="node">
<title>Node9</title>
<g id="a_node9"><a xlink:title=" ">
<polygon fill="white" stroke="#bfbfbf" points="409,-0.5 409,-19.5 453,-19.5 453,-0.5 409,-0.5"/>
<text text-anchor="middle" x="431" y="-7.5" font-family="Helvetica,sans-Serif" font-size="10.00">string</text>
</a>
</g>
</g>
<!-- Node6&#45;&gt;Node9 -->
<g id="edge8" class="edge">
<title>Node6&#45;&gt;Node9</title>
<path fill="none" stroke="midnightblue" d="M367.21,-56.32C378.78,-48.11 396.38,-35.6 410.16,-25.81"/>
<polygon fill="midnightblue" stroke="midnightblue" points="412.44,-28.48 418.57,-19.83 408.39,-22.77 412.44,-28.48"/>
</g>
<!-- Node11&#45;&gt;Node4 -->
<g id="edge13" class="edge">
<title>Node11&#45;&gt;Node4</title>
<path fill="none" stroke="midnightblue" d="M368.29,-112.32C351.69,-103.7 326,-90.36 306.78,-80.39"/>
<polygon fill="midnightblue" stroke="midnightblue" points="308.16,-77.16 297.67,-75.65 304.93,-83.37 308.16,-77.16"/>
</g>
<!-- Node11&#45;&gt;Node6 -->
<g id="edge14" class="edge">
<title>Node11&#45;&gt;Node6</title>
<path fill="none" stroke="midnightblue" d="M380.05,-112.08C375.9,-104.61 369.85,-93.72 364.73,-84.52"/>
<polygon fill="midnightblue" stroke="midnightblue" points="367.78,-82.79 359.86,-75.75 361.66,-86.19 367.78,-82.79"/>
</g>
<!-- Node12 -->
<g id="node12" class="node">
<title>Node12</title>
<g id="a_node12"><a xlink:title=" ">
<polygon fill="white" stroke="#bfbfbf" points="400,-56.5 400,-75.5 432,-75.5 432,-56.5 400,-56.5"/>
<text text-anchor="middle" x="416" y="-63.5" font-family="Helvetica,sans-Serif" font-size="10.00">list</text>
</a>
</g>
</g>
<!-- Node11&#45;&gt;Node12 -->
<g id="edge11" class="edge">
<title>Node11&#45;&gt;Node12</title>
<path fill="none" stroke="midnightblue" d="M390.12,-112.08C394.41,-104.61 400.66,-93.72 405.94,-84.52"/>
<polygon fill="midnightblue" stroke="midnightblue" points="409.03,-86.17 410.98,-75.75 402.96,-82.68 409.03,-86.17"/>
</g>
<!-- Node13 -->
<g id="node13" class="node">
<title>Node13</title>
<g id="a_node13"><a xlink:title=" ">
<polygon fill="white" stroke="#bfbfbf" points="450.5,-56.5 450.5,-75.5 533.5,-75.5 533.5,-56.5 450.5,-56.5"/>
<text text-anchor="middle" x="492" y="-63.5" font-family="Helvetica,sans-Serif" font-size="10.00">initializer_list</text>
</a>
</g>
</g>
<!-- Node11&#45;&gt;Node13 -->
<g id="edge12" class="edge">
<title>Node11&#45;&gt;Node13</title>
<path fill="none" stroke="midnightblue" d="M402.19,-112.32C419.35,-103.66 445.95,-90.24 465.75,-80.25"/>
<polygon fill="midnightblue" stroke="midnightblue" points="467.5,-83.28 474.85,-75.65 464.35,-77.04 467.5,-83.28"/>
</g>
<!-- Node14 -->
<g id="node14" class="node">
<title>Node14</title>
<g id="a_node14"><a xlink:title=" ">
<polygon fill="white" stroke="#bfbfbf" points="551.5,-56.5 551.5,-75.5 604.5,-75.5 604.5,-56.5 551.5,-56.5"/>
<text text-anchor="middle" x="578" y="-63.5" font-family="Helvetica,sans-Serif" font-size="10.00">tlist.tcc</text>
</a>
</g>
</g>
<!-- Node11&#45;&gt;Node14 -->
<g id="edge15" class="edge">
<title>Node11&#45;&gt;Node14</title>
<path fill="none" stroke="midnightblue" d="M407.14,-114.81C439.93,-105.63 501.79,-88.32 541.39,-77.24"/>
<polygon fill="midnightblue" stroke="midnightblue" points="542.5,-80.57 551.19,-74.5 540.62,-73.83 542.5,-80.57"/>
</g>
</g>
</svg>
