<?xml version="1.0" encoding="UTF-8" standalone="no"?>
<!DOCTYPE svg PUBLIC "-//W3C//DTD SVG 1.1//EN"
 "http://www.w3.org/Graphics/SVG/1.1/DTD/svg11.dtd">
<!-- Generated by graphviz version 2.43.0 (0)
 -->
<!-- Title: tdebuglistener.h Pages: 1 -->
<svg width="454pt" height="252pt"
 viewBox="0.00 0.00 454.00 252.00" xmlns="http://www.w3.org/2000/svg" xmlns:xlink="http://www.w3.org/1999/xlink">
<g id="graph0" class="graph" transform="scale(1 1) rotate(0) translate(4 248)">
<title>tdebuglistener.h</title>
<polygon fill="white" stroke="transparent" points="-4,4 -4,-248 450,-248 450,4 -4,4"/>
<!-- Node1 -->
<g id="node1" class="node">
<title>Node1</title>
<g id="a_node1"><a xlink:title=" ">
<polygon fill="#bfbfbf" stroke="black" points="262.5,-224.5 262.5,-243.5 357.5,-243.5 357.5,-224.5 262.5,-224.5"/>
<text text-anchor="middle" x="310" y="-231.5" font-family="Helvetica,sans-Serif" font-size="10.00">tdebuglistener.h</text>
</a>
</g>
</g>
<!-- Node2 -->
<g id="node2" class="node">
<title>Node2</title>
<g id="a_node2"><a xlink:href="tstring_8h.html" target="_top" xlink:title=" ">
<polygon fill="white" stroke="black" points="243.5,-168.5 243.5,-187.5 300.5,-187.5 300.5,-168.5 243.5,-168.5"/>
<text text-anchor="middle" x="272" y="-175.5" font-family="Helvetica,sans-Serif" font-size="10.00">tstring.h</text>
</a>
</g>
</g>
<!-- Node1&#45;&gt;Node2 -->
<g id="edge1" class="edge">
<title>Node1&#45;&gt;Node2</title>
<path fill="none" stroke="midnightblue" d="M303.73,-224.08C298.36,-216.46 290.48,-205.26 283.92,-195.94"/>
<polygon fill="midnightblue" stroke="midnightblue" points="286.78,-193.91 278.16,-187.75 281.05,-197.94 286.78,-193.91"/>
</g>
<!-- Node11 -->
<g id="node11" class="node">
<title>Node11</title>
<g id="a_node11"><a xlink:href="taglib__export_8h.html" target="_top" xlink:title=" ">
<polygon fill="white" stroke="black" points="356,-56.5 356,-75.5 446,-75.5 446,-56.5 356,-56.5"/>
<text text-anchor="middle" x="401" y="-63.5" font-family="Helvetica,sans-Serif" font-size="10.00">taglib_export.h</text>
</a>
</g>
</g>
<!-- Node1&#45;&gt;Node11 -->
<g id="edge15" class="edge">
<title>Node1&#45;&gt;Node11</title>
<path fill="none" stroke="midnightblue" d="M314.89,-224.08C329.34,-197.72 372.01,-119.88 391.32,-84.66"/>
<polygon fill="midnightblue" stroke="midnightblue" points="394.57,-86.02 396.3,-75.57 388.43,-82.65 394.57,-86.02"/>
</g>
<!-- Node3 -->
<g id="node3" class="node">
<title>Node3</title>
<g id="a_node3"><a xlink:title=" ">
<polygon fill="white" stroke="#bfbfbf" points="278,-56.5 278,-75.5 338,-75.5 338,-56.5 278,-56.5"/>
<text text-anchor="middle" x="308" y="-63.5" font-family="Helvetica,sans-Serif" font-size="10.00">iostream</text>
</a>
</g>
</g>
<!-- Node2&#45;&gt;Node3 -->
<g id="edge2" class="edge">
<title>Node2&#45;&gt;Node3</title>
<path fill="none" stroke="midnightblue" d="M274.82,-168.37C280.66,-150.54 294.16,-109.3 302.02,-85.27"/>
<polygon fill="midnightblue" stroke="midnightblue" points="305.4,-86.18 305.19,-75.59 298.75,-84.01 305.4,-86.18"/>
</g>
<!-- Node4 -->
<g id="node4" class="node">
<title>Node4</title>
<g id="a_node4"><a xlink:title=" ">
<polygon fill="white" stroke="#bfbfbf" points="0,-0.5 0,-19.5 44,-19.5 44,-0.5 0,-0.5"/>
<text text-anchor="middle" x="22" y="-7.5" font-family="Helvetica,sans-Serif" font-size="10.00">string</text>
</a>
</g>
</g>
<!-- Node2&#45;&gt;Node4 -->
<g id="edge3" class="edge">
<title>Node2&#45;&gt;Node4</title>
<path fill="none" stroke="midnightblue" d="M243.18,-170.72C197.59,-159.38 108.62,-131.36 56,-76 43.14,-62.47 33.85,-43.11 28.27,-29.04"/>
<polygon fill="midnightblue" stroke="midnightblue" points="31.49,-27.66 24.72,-19.5 24.93,-30.1 31.49,-27.66"/>
</g>
<!-- Node5 -->
<g id="node5" class="node">
<title>Node5</title>
<g id="a_node5"><a xlink:href="tbytevector_8h.html" target="_top" xlink:title=" ">
<polygon fill="white" stroke="black" points="192.5,-112.5 192.5,-131.5 273.5,-131.5 273.5,-112.5 192.5,-112.5"/>
<text text-anchor="middle" x="233" y="-119.5" font-family="Helvetica,sans-Serif" font-size="10.00">tbytevector.h</text>
</a>
</g>
</g>
<!-- Node2&#45;&gt;Node5 -->
<g id="edge4" class="edge">
<title>Node2&#45;&gt;Node5</title>
<path fill="none" stroke="midnightblue" d="M265.56,-168.08C260.05,-160.46 251.97,-149.26 245.24,-139.94"/>
<polygon fill="midnightblue" stroke="midnightblue" points="248.01,-137.81 239.32,-131.75 242.34,-141.91 248.01,-137.81"/>
</g>
<!-- Node8 -->
<g id="node8" class="node">
<title>Node8</title>
<g id="a_node8"><a xlink:href="taglib_8h.html" target="_top" xlink:title=" ">
<polygon fill="white" stroke="black" points="65.5,-56.5 65.5,-75.5 118.5,-75.5 118.5,-56.5 65.5,-56.5"/>
<text text-anchor="middle" x="92" y="-63.5" font-family="Helvetica,sans-Serif" font-size="10.00">taglib.h</text>
</a>
</g>
</g>
<!-- Node2&#45;&gt;Node8 -->
<g id="edge14" class="edge">
<title>Node2&#45;&gt;Node8</title>
<path fill="none" stroke="midnightblue" d="M253.15,-168.49C234.82,-159.99 206.4,-146.16 183,-132 157.02,-116.28 128.82,-95.5 110.81,-81.72"/>
<polygon fill="midnightblue" stroke="midnightblue" points="112.89,-78.91 102.84,-75.57 108.61,-84.45 112.89,-78.91"/>
</g>
<!-- Node2&#45;&gt;Node11 -->
<g id="edge13" class="edge">
<title>Node2&#45;&gt;Node11</title>
<path fill="none" stroke="midnightblue" d="M282.12,-168.37C303.98,-149.73 355.81,-105.53 383.25,-82.13"/>
<polygon fill="midnightblue" stroke="midnightblue" points="385.59,-84.74 390.92,-75.59 381.04,-79.42 385.59,-84.74"/>
</g>
<!-- Node5&#45;&gt;Node3 -->
<g id="edge5" class="edge">
<title>Node5&#45;&gt;Node3</title>
<path fill="none" stroke="midnightblue" d="M245.05,-112.32C256.46,-104.11 273.83,-91.6 287.43,-81.81"/>
<polygon fill="midnightblue" stroke="midnightblue" points="289.66,-84.52 295.73,-75.83 285.57,-78.84 289.66,-84.52"/>
</g>
<!-- Node6 -->
<g id="node6" class="node">
<title>Node6</title>
<g id="a_node6"><a xlink:title=" ">
<polygon fill="white" stroke="#bfbfbf" points="202,-56.5 202,-75.5 260,-75.5 260,-56.5 202,-56.5"/>
<text text-anchor="middle" x="231" y="-63.5" font-family="Helvetica,sans-Serif" font-size="10.00">memory</text>
</a>
</g>
</g>
<!-- Node5&#45;&gt;Node6 -->
<g id="edge6" class="edge">
<title>Node5&#45;&gt;Node6</title>
<path fill="none" stroke="midnightblue" d="M232.67,-112.08C232.41,-105.01 232.03,-94.86 231.7,-85.99"/>
<polygon fill="midnightblue" stroke="midnightblue" points="235.19,-85.61 231.32,-75.75 228.2,-85.87 235.19,-85.61"/>
</g>
<!-- Node7 -->
<g id="node7" class="node">
<title>Node7</title>
<g id="a_node7"><a xlink:title=" ">
<polygon fill="white" stroke="#bfbfbf" points="136.5,-56.5 136.5,-75.5 183.5,-75.5 183.5,-56.5 136.5,-56.5"/>
<text text-anchor="middle" x="160" y="-63.5" font-family="Helvetica,sans-Serif" font-size="10.00">vector</text>
</a>
</g>
</g>
<!-- Node5&#45;&gt;Node7 -->
<g id="edge7" class="edge">
<title>Node5&#45;&gt;Node7</title>
<path fill="none" stroke="midnightblue" d="M221.27,-112.32C210.16,-104.11 193.26,-91.6 180.02,-81.81"/>
<polygon fill="midnightblue" stroke="midnightblue" points="182.06,-78.97 171.94,-75.83 177.9,-84.59 182.06,-78.97"/>
</g>
<!-- Node5&#45;&gt;Node8 -->
<g id="edge8" class="edge">
<title>Node5&#45;&gt;Node8</title>
<path fill="none" stroke="midnightblue" d="M210.66,-112.44C187.25,-103.48 150.26,-89.31 123.81,-79.18"/>
<polygon fill="midnightblue" stroke="midnightblue" points="124.83,-75.82 114.24,-75.52 122.32,-82.36 124.83,-75.82"/>
</g>
<!-- Node5&#45;&gt;Node11 -->
<g id="edge12" class="edge">
<title>Node5&#45;&gt;Node11</title>
<path fill="none" stroke="midnightblue" d="M259.62,-112.44C288.01,-103.32 333.14,-88.81 364.75,-78.65"/>
<polygon fill="midnightblue" stroke="midnightblue" points="366.06,-81.91 374.5,-75.52 363.91,-75.24 366.06,-81.91"/>
</g>
<!-- Node8&#45;&gt;Node4 -->
<g id="edge11" class="edge">
<title>Node8&#45;&gt;Node4</title>
<path fill="none" stroke="midnightblue" d="M80.75,-56.32C70.2,-48.18 54.2,-35.84 41.56,-26.09"/>
<polygon fill="midnightblue" stroke="midnightblue" points="43.51,-23.17 33.45,-19.83 39.23,-28.71 43.51,-23.17"/>
</g>
<!-- Node9 -->
<g id="node9" class="node">
<title>Node9</title>
<g id="a_node9"><a xlink:title=" ">
<polygon fill="white" stroke="#bfbfbf" points="152,-0.5 152,-19.5 240,-19.5 240,-0.5 152,-0.5"/>
<text text-anchor="middle" x="196" y="-7.5" font-family="Helvetica,sans-Serif" font-size="10.00">taglib_config.h</text>
</a>
</g>
</g>
<!-- Node8&#45;&gt;Node9 -->
<g id="edge9" class="edge">
<title>Node8&#45;&gt;Node9</title>
<path fill="none" stroke="midnightblue" d="M108.71,-56.32C125.31,-47.7 151,-34.36 170.22,-24.39"/>
<polygon fill="midnightblue" stroke="midnightblue" points="172.07,-27.37 179.33,-19.65 168.84,-21.16 172.07,-27.37"/>
</g>
<!-- Node10 -->
<g id="node10" class="node">
<title>Node10</title>
<g id="a_node10"><a xlink:title=" ">
<polygon fill="white" stroke="#bfbfbf" points="62,-0.5 62,-19.5 134,-19.5 134,-0.5 62,-0.5"/>
<text text-anchor="middle" x="98" y="-7.5" font-family="Helvetica,sans-Serif" font-size="10.00">sys/types.h</text>
</a>
</g>
</g>
<!-- Node8&#45;&gt;Node10 -->
<g id="edge10" class="edge">
<title>Node8&#45;&gt;Node10</title>
<path fill="none" stroke="midnightblue" d="M92.99,-56.08C93.79,-48.93 94.93,-38.64 95.92,-29.69"/>
<polygon fill="midnightblue" stroke="midnightblue" points="99.4,-30.08 97.03,-19.75 92.44,-29.3 99.4,-30.08"/>
</g>
</g>
</svg>
