<?xml version="1.0" encoding="UTF-8" standalone="no"?>
<!DOCTYPE svg PUBLIC "-//W3C//DTD SVG 1.1//EN"
 "http://www.w3.org/Graphics/SVG/1.1/DTD/svg11.dtd">
<!-- Generated by graphviz version 2.43.0 (0)
 -->
<!-- Title: tdebuglistener.h Pages: 1 -->
<svg width="364pt" height="252pt"
 viewBox="0.00 0.00 364.00 252.00" xmlns="http://www.w3.org/2000/svg" xmlns:xlink="http://www.w3.org/1999/xlink">
<g id="graph0" class="graph" transform="scale(1 1) rotate(0) translate(4 248)">
<title>tdebuglistener.h</title>
<polygon fill="white" stroke="transparent" points="-4,4 -4,-248 360,-248 360,4 -4,4"/>
<!-- Node1 -->
<g id="node1" class="node">
<title>Node1</title>
<g id="a_node1"><a xlink:title=" ">
<polygon fill="#bfbfbf" stroke="black" points="50.5,-224.5 50.5,-243.5 145.5,-243.5 145.5,-224.5 50.5,-224.5"/>
<text text-anchor="middle" x="98" y="-231.5" font-family="Helvetica,sans-Serif" font-size="10.00">tdebuglistener.h</text>
</a>
</g>
</g>
<!-- Node2 -->
<g id="node2" class="node">
<title>Node2</title>
<g id="a_node2"><a xlink:href="taglib__export_8h.html" target="_top" xlink:title=" ">
<polygon fill="white" stroke="black" points="0,-56.5 0,-75.5 90,-75.5 90,-56.5 0,-56.5"/>
<text text-anchor="middle" x="45" y="-63.5" font-family="Helvetica,sans-Serif" font-size="10.00">taglib_export.h</text>
</a>
</g>
</g>
<!-- Node1&#45;&gt;Node2 -->
<g id="edge1" class="edge">
<title>Node1&#45;&gt;Node2</title>
<path fill="none" stroke="midnightblue" d="M95.15,-224.08C86.77,-197.83 62.1,-120.55 50.78,-85.12"/>
<polygon fill="midnightblue" stroke="midnightblue" points="54.11,-84.03 47.74,-75.57 47.44,-86.16 54.11,-84.03"/>
</g>
<!-- Node3 -->
<g id="node3" class="node">
<title>Node3</title>
<g id="a_node3"><a xlink:href="tstring_8h.html" target="_top" xlink:title=" ">
<polygon fill="white" stroke="black" points="157.5,-168.5 157.5,-187.5 214.5,-187.5 214.5,-168.5 157.5,-168.5"/>
<text text-anchor="middle" x="186" y="-175.5" font-family="Helvetica,sans-Serif" font-size="10.00">tstring.h</text>
</a>
</g>
</g>
<!-- Node1&#45;&gt;Node3 -->
<g id="edge2" class="edge">
<title>Node1&#45;&gt;Node3</title>
<path fill="none" stroke="midnightblue" d="M112.14,-224.32C125.87,-215.9 146.94,-202.97 163.06,-193.07"/>
<polygon fill="midnightblue" stroke="midnightblue" points="165.2,-195.87 171.9,-187.65 161.54,-189.9 165.2,-195.87"/>
</g>
<!-- Node3&#45;&gt;Node2 -->
<g id="edge3" class="edge">
<title>Node3&#45;&gt;Node2</title>
<path fill="none" stroke="midnightblue" d="M165.42,-168.5C147.61,-160.57 121.69,-147.64 102,-132 84.45,-118.06 67.99,-98.27 57.31,-84.2"/>
<polygon fill="midnightblue" stroke="midnightblue" points="59.93,-81.86 51.17,-75.89 54.3,-86.02 59.93,-81.86"/>
</g>
<!-- Node4 -->
<g id="node4" class="node">
<title>Node4</title>
<g id="a_node4"><a xlink:href="taglib_8h.html" target="_top" xlink:title=" ">
<polygon fill="white" stroke="black" points="252.5,-56.5 252.5,-75.5 305.5,-75.5 305.5,-56.5 252.5,-56.5"/>
<text text-anchor="middle" x="279" y="-63.5" font-family="Helvetica,sans-Serif" font-size="10.00">taglib.h</text>
</a>
</g>
</g>
<!-- Node3&#45;&gt;Node4 -->
<g id="edge4" class="edge">
<title>Node3&#45;&gt;Node4</title>
<path fill="none" stroke="midnightblue" d="M193.3,-168.37C208.78,-150.05 245.14,-107.05 265.17,-83.36"/>
<polygon fill="midnightblue" stroke="midnightblue" points="267.95,-85.49 271.74,-75.59 262.61,-80.97 267.95,-85.49"/>
</g>
<!-- Node6 -->
<g id="node6" class="node">
<title>Node6</title>
<g id="a_node6"><a xlink:title=" ">
<polygon fill="white" stroke="#bfbfbf" points="312,-0.5 312,-19.5 356,-19.5 356,-0.5 312,-0.5"/>
<text text-anchor="middle" x="334" y="-7.5" font-family="Helvetica,sans-Serif" font-size="10.00">string</text>
</a>
</g>
</g>
<!-- Node3&#45;&gt;Node6 -->
<g id="edge12" class="edge">
<title>Node3&#45;&gt;Node6</title>
<path fill="none" stroke="midnightblue" d="M203.09,-168.36C230.88,-153.41 285.71,-120.06 315,-76 324.25,-62.08 329.09,-43.57 331.56,-29.86"/>
<polygon fill="midnightblue" stroke="midnightblue" points="335.07,-30.1 333.12,-19.69 328.15,-29.04 335.07,-30.1"/>
</g>
<!-- Node7 -->
<g id="node7" class="node">
<title>Node7</title>
<g id="a_node7"><a xlink:href="tbytevector_8h.html" target="_top" xlink:title=" ">
<polygon fill="white" stroke="black" points="111.5,-112.5 111.5,-131.5 192.5,-131.5 192.5,-112.5 111.5,-112.5"/>
<text text-anchor="middle" x="152" y="-119.5" font-family="Helvetica,sans-Serif" font-size="10.00">tbytevector.h</text>
</a>
</g>
</g>
<!-- Node3&#45;&gt;Node7 -->
<g id="edge7" class="edge">
<title>Node3&#45;&gt;Node7</title>
<path fill="none" stroke="midnightblue" d="M180.39,-168.08C175.63,-160.53 168.68,-149.49 162.85,-140.23"/>
<polygon fill="midnightblue" stroke="midnightblue" points="165.8,-138.35 157.51,-131.75 159.88,-142.08 165.8,-138.35"/>
</g>
<!-- Node9 -->
<g id="node9" class="node">
<title>Node9</title>
<g id="a_node9"><a xlink:title=" ">
<polygon fill="white" stroke="#bfbfbf" points="174,-56.5 174,-75.5 234,-75.5 234,-56.5 174,-56.5"/>
<text text-anchor="middle" x="204" y="-63.5" font-family="Helvetica,sans-Serif" font-size="10.00">iostream</text>
</a>
</g>
</g>
<!-- Node3&#45;&gt;Node9 -->
<g id="edge13" class="edge">
<title>Node3&#45;&gt;Node9</title>
<path fill="none" stroke="midnightblue" d="M190.03,-168.26C193.91,-159.36 199.54,-145.04 202,-132 204.91,-116.55 205.25,-98.68 204.95,-85.6"/>
<polygon fill="midnightblue" stroke="midnightblue" points="208.44,-85.37 204.57,-75.5 201.45,-85.63 208.44,-85.37"/>
</g>
<!-- Node5 -->
<g id="node5" class="node">
<title>Node5</title>
<g id="a_node5"><a xlink:title=" ">
<polygon fill="white" stroke="#bfbfbf" points="206,-0.5 206,-19.5 294,-19.5 294,-0.5 206,-0.5"/>
<text text-anchor="middle" x="250" y="-7.5" font-family="Helvetica,sans-Serif" font-size="10.00">taglib_config.h</text>
</a>
</g>
</g>
<!-- Node4&#45;&gt;Node5 -->
<g id="edge5" class="edge">
<title>Node4&#45;&gt;Node5</title>
<path fill="none" stroke="midnightblue" d="M274.21,-56.08C270.24,-48.69 264.47,-37.95 259.57,-28.81"/>
<polygon fill="midnightblue" stroke="midnightblue" points="262.51,-26.91 254.7,-19.75 256.35,-30.22 262.51,-26.91"/>
</g>
<!-- Node4&#45;&gt;Node6 -->
<g id="edge6" class="edge">
<title>Node4&#45;&gt;Node6</title>
<path fill="none" stroke="midnightblue" d="M288.08,-56.08C296.17,-48.14 308.2,-36.34 317.91,-26.8"/>
<polygon fill="midnightblue" stroke="midnightblue" points="320.4,-29.25 325.09,-19.75 315.5,-24.26 320.4,-29.25"/>
</g>
<!-- Node7&#45;&gt;Node2 -->
<g id="edge9" class="edge">
<title>Node7&#45;&gt;Node2</title>
<path fill="none" stroke="midnightblue" d="M134.81,-112.32C117.65,-103.66 91.05,-90.24 71.25,-80.25"/>
<polygon fill="midnightblue" stroke="midnightblue" points="72.65,-77.04 62.15,-75.65 69.5,-83.28 72.65,-77.04"/>
</g>
<!-- Node7&#45;&gt;Node4 -->
<g id="edge8" class="edge">
<title>Node7&#45;&gt;Node4</title>
<path fill="none" stroke="midnightblue" d="M172.12,-112.44C193.02,-103.56 225.93,-89.56 249.72,-79.45"/>
<polygon fill="midnightblue" stroke="midnightblue" points="251.14,-82.65 258.97,-75.52 248.4,-76.21 251.14,-82.65"/>
</g>
<!-- Node8 -->
<g id="node8" class="node">
<title>Node8</title>
<g id="a_node8"><a xlink:title=" ">
<polygon fill="white" stroke="#bfbfbf" points="108.5,-56.5 108.5,-75.5 155.5,-75.5 155.5,-56.5 108.5,-56.5"/>
<text text-anchor="middle" x="132" y="-63.5" font-family="Helvetica,sans-Serif" font-size="10.00">vector</text>
</a>
</g>
</g>
<!-- Node7&#45;&gt;Node8 -->
<g id="edge10" class="edge">
<title>Node7&#45;&gt;Node8</title>
<path fill="none" stroke="midnightblue" d="M148.7,-112.08C146.02,-104.85 142.15,-94.41 138.81,-85.4"/>
<polygon fill="midnightblue" stroke="midnightblue" points="142,-83.91 135.24,-75.75 135.43,-86.34 142,-83.91"/>
</g>
<!-- Node7&#45;&gt;Node9 -->
<g id="edge11" class="edge">
<title>Node7&#45;&gt;Node9</title>
<path fill="none" stroke="midnightblue" d="M160.59,-112.08C168.16,-104.22 179.38,-92.57 188.51,-83.08"/>
<polygon fill="midnightblue" stroke="midnightblue" points="191.16,-85.38 195.57,-75.75 186.12,-80.53 191.16,-85.38"/>
</g>
</g>
</svg>
