<?xml version="1.0" encoding="UTF-8" standalone="no"?>
<!DOCTYPE svg PUBLIC "-//W3C//DTD SVG 1.1//EN"
 "http://www.w3.org/Graphics/SVG/1.1/DTD/svg11.dtd">
<!-- Generated by graphviz version 2.43.0 (0)
 -->
<!-- Title: textidentificationframe.h Pages: 1 -->
<svg width="642pt" height="308pt"
 viewBox="0.00 0.00 642.00 308.00" xmlns="http://www.w3.org/2000/svg" xmlns:xlink="http://www.w3.org/1999/xlink">
<g id="graph0" class="graph" transform="scale(1 1) rotate(0) translate(4 304)">
<title>textidentificationframe.h</title>
<polygon fill="white" stroke="transparent" points="-4,4 -4,-304 638,-304 638,4 -4,4"/>
<!-- Node1 -->
<g id="node1" class="node">
<title>Node1</title>
<g id="a_node1"><a xlink:title=" ">
<polygon fill="#bfbfbf" stroke="black" points="152,-280.5 152,-299.5 290,-299.5 290,-280.5 152,-280.5"/>
<text text-anchor="middle" x="221" y="-287.5" font-family="Helvetica,sans-Serif" font-size="10.00">textidentificationframe.h</text>
</a>
</g>
</g>
<!-- Node2 -->
<g id="node2" class="node">
<title>Node2</title>
<g id="a_node2"><a xlink:href="tstringlist_8h.html" target="_top" xlink:title=" ">
<polygon fill="white" stroke="black" points="138,-224.5 138,-243.5 210,-243.5 210,-224.5 138,-224.5"/>
<text text-anchor="middle" x="174" y="-231.5" font-family="Helvetica,sans-Serif" font-size="10.00">tstringlist.h</text>
</a>
</g>
</g>
<!-- Node1&#45;&gt;Node2 -->
<g id="edge1" class="edge">
<title>Node1&#45;&gt;Node2</title>
<path fill="none" stroke="midnightblue" d="M213.24,-280.08C206.46,-272.3 196.46,-260.8 188.24,-251.37"/>
<polygon fill="midnightblue" stroke="midnightblue" points="190.82,-249 181.62,-243.75 185.54,-253.59 190.82,-249"/>
</g>
<!-- Node4 -->
<g id="node4" class="node">
<title>Node4</title>
<g id="a_node4"><a xlink:href="taglib__export_8h.html" target="_top" xlink:title=" ">
<polygon fill="white" stroke="black" points="132,-56.5 132,-75.5 222,-75.5 222,-56.5 132,-56.5"/>
<text text-anchor="middle" x="177" y="-63.5" font-family="Helvetica,sans-Serif" font-size="10.00">taglib_export.h</text>
</a>
</g>
</g>
<!-- Node1&#45;&gt;Node4 -->
<g id="edge28" class="edge">
<title>Node1&#45;&gt;Node4</title>
<path fill="none" stroke="midnightblue" d="M175.55,-280.41C127.76,-268.68 55,-242.52 22,-188 8.42,-165.57 33.52,-121.16 43,-112 64.21,-91.52 95.03,-80.35 121.76,-74.26"/>
<polygon fill="midnightblue" stroke="midnightblue" points="122.71,-77.64 131.78,-72.17 121.28,-70.79 122.71,-77.64"/>
</g>
<!-- Node15 -->
<g id="node15" class="node">
<title>Node15</title>
<g id="a_node15"><a xlink:href="tmap_8h.html" target="_top" xlink:title=" ">
<polygon fill="white" stroke="black" points="493.5,-224.5 493.5,-243.5 544.5,-243.5 544.5,-224.5 493.5,-224.5"/>
<text text-anchor="middle" x="519" y="-231.5" font-family="Helvetica,sans-Serif" font-size="10.00">tmap.h</text>
</a>
</g>
</g>
<!-- Node1&#45;&gt;Node15 -->
<g id="edge24" class="edge">
<title>Node1&#45;&gt;Node15</title>
<path fill="none" stroke="midnightblue" d="M268.22,-280.44C327.92,-269.63 429.37,-251.24 483.11,-241.5"/>
<polygon fill="midnightblue" stroke="midnightblue" points="483.99,-244.9 493.2,-239.67 482.74,-238.01 483.99,-244.9"/>
</g>
<!-- Node18 -->
<g id="node18" class="node">
<title>Node18</title>
<g id="a_node18"><a xlink:href="id3v2frame_8h.html" target="_top" xlink:title=" ">
<polygon fill="white" stroke="black" points="233,-224.5 233,-243.5 315,-243.5 315,-224.5 233,-224.5"/>
<text text-anchor="middle" x="274" y="-231.5" font-family="Helvetica,sans-Serif" font-size="10.00">id3v2frame.h</text>
</a>
</g>
</g>
<!-- Node1&#45;&gt;Node18 -->
<g id="edge29" class="edge">
<title>Node1&#45;&gt;Node18</title>
<path fill="none" stroke="midnightblue" d="M229.75,-280.08C237.47,-272.22 248.9,-260.57 258.22,-251.08"/>
<polygon fill="midnightblue" stroke="midnightblue" points="260.9,-253.34 265.41,-243.75 255.91,-248.44 260.9,-253.34"/>
</g>
<!-- Node3 -->
<g id="node3" class="node">
<title>Node3</title>
<g id="a_node3"><a xlink:href="tstring_8h.html" target="_top" xlink:title=" ">
<polygon fill="white" stroke="black" points="247.5,-168.5 247.5,-187.5 304.5,-187.5 304.5,-168.5 247.5,-168.5"/>
<text text-anchor="middle" x="276" y="-175.5" font-family="Helvetica,sans-Serif" font-size="10.00">tstring.h</text>
</a>
</g>
</g>
<!-- Node2&#45;&gt;Node3 -->
<g id="edge2" class="edge">
<title>Node2&#45;&gt;Node3</title>
<path fill="none" stroke="midnightblue" d="M190.39,-224.32C206.67,-215.7 231.87,-202.36 250.72,-192.39"/>
<polygon fill="midnightblue" stroke="midnightblue" points="252.45,-195.43 259.65,-187.65 249.18,-189.24 252.45,-195.43"/>
</g>
<!-- Node2&#45;&gt;Node4 -->
<g id="edge22" class="edge">
<title>Node2&#45;&gt;Node4</title>
<path fill="none" stroke="midnightblue" d="M174.16,-224.08C174.63,-197.95 176.02,-121.21 176.66,-85.58"/>
<polygon fill="midnightblue" stroke="midnightblue" points="180.16,-85.63 176.85,-75.57 173.16,-85.5 180.16,-85.63"/>
</g>
<!-- Node10 -->
<g id="node10" class="node">
<title>Node10</title>
<g id="a_node10"><a xlink:title=" ">
<polygon fill="white" stroke="#bfbfbf" points="382,-56.5 382,-75.5 442,-75.5 442,-56.5 382,-56.5"/>
<text text-anchor="middle" x="412" y="-63.5" font-family="Helvetica,sans-Serif" font-size="10.00">iostream</text>
</a>
</g>
</g>
<!-- Node2&#45;&gt;Node10 -->
<g id="edge23" class="edge">
<title>Node2&#45;&gt;Node10</title>
<path fill="none" stroke="midnightblue" d="M206.44,-224.5C266.73,-207.93 391.94,-169.64 414,-132 422.2,-118.01 420.57,-99.26 417.56,-85.5"/>
<polygon fill="midnightblue" stroke="midnightblue" points="420.92,-84.5 415.01,-75.71 414.14,-86.27 420.92,-84.5"/>
</g>
<!-- Node11 -->
<g id="node11" class="node">
<title>Node11</title>
<g id="a_node11"><a xlink:href="tlist_8h.html" target="_top" xlink:title=" ">
<polygon fill="white" stroke="black" points="52,-112.5 52,-131.5 96,-131.5 96,-112.5 52,-112.5"/>
<text text-anchor="middle" x="74" y="-119.5" font-family="Helvetica,sans-Serif" font-size="10.00">tlist.h</text>
</a>
</g>
</g>
<!-- Node2&#45;&gt;Node11 -->
<g id="edge14" class="edge">
<title>Node2&#45;&gt;Node11</title>
<path fill="none" stroke="midnightblue" d="M137.95,-232.95C103.93,-230.73 54.59,-221.45 30,-188 17.63,-171.17 35.85,-151.19 52.46,-137.87"/>
<polygon fill="midnightblue" stroke="midnightblue" points="54.95,-140.37 60.83,-131.56 50.73,-134.78 54.95,-140.37"/>
</g>
<!-- Node14 -->
<g id="node14" class="node">
<title>Node14</title>
<g id="a_node14"><a xlink:href="tbytevectorlist_8h.html" target="_top" xlink:title=" ">
<polygon fill="white" stroke="black" points="39.5,-168.5 39.5,-187.5 136.5,-187.5 136.5,-168.5 39.5,-168.5"/>
<text text-anchor="middle" x="88" y="-175.5" font-family="Helvetica,sans-Serif" font-size="10.00">tbytevectorlist.h</text>
</a>
</g>
</g>
<!-- Node2&#45;&gt;Node14 -->
<g id="edge18" class="edge">
<title>Node2&#45;&gt;Node14</title>
<path fill="none" stroke="midnightblue" d="M160.18,-224.32C146.77,-215.9 126.18,-202.97 110.41,-193.07"/>
<polygon fill="midnightblue" stroke="midnightblue" points="112.11,-190.01 101.78,-187.65 108.39,-195.94 112.11,-190.01"/>
</g>
<!-- Node3&#45;&gt;Node4 -->
<g id="edge3" class="edge">
<title>Node3&#45;&gt;Node4</title>
<path fill="none" stroke="midnightblue" d="M268.23,-168.37C251.68,-149.97 212.7,-106.67 191.45,-83.05"/>
<polygon fill="midnightblue" stroke="midnightblue" points="194.02,-80.68 184.73,-75.59 188.82,-85.37 194.02,-80.68"/>
</g>
<!-- Node5 -->
<g id="node5" class="node">
<title>Node5</title>
<g id="a_node5"><a xlink:href="taglib_8h.html" target="_top" xlink:title=" ">
<polygon fill="white" stroke="black" points="245.5,-56.5 245.5,-75.5 298.5,-75.5 298.5,-56.5 245.5,-56.5"/>
<text text-anchor="middle" x="272" y="-63.5" font-family="Helvetica,sans-Serif" font-size="10.00">taglib.h</text>
</a>
</g>
</g>
<!-- Node3&#45;&gt;Node5 -->
<g id="edge4" class="edge">
<title>Node3&#45;&gt;Node5</title>
<path fill="none" stroke="midnightblue" d="M275.69,-168.37C275.04,-150.62 273.55,-109.67 272.68,-85.6"/>
<polygon fill="midnightblue" stroke="midnightblue" points="276.17,-85.46 272.31,-75.59 269.18,-85.71 276.17,-85.46"/>
</g>
<!-- Node7 -->
<g id="node7" class="node">
<title>Node7</title>
<g id="a_node7"><a xlink:title=" ">
<polygon fill="white" stroke="#bfbfbf" points="391,-0.5 391,-19.5 435,-19.5 435,-0.5 391,-0.5"/>
<text text-anchor="middle" x="413" y="-7.5" font-family="Helvetica,sans-Serif" font-size="10.00">string</text>
</a>
</g>
</g>
<!-- Node3&#45;&gt;Node7 -->
<g id="edge12" class="edge">
<title>Node3&#45;&gt;Node7</title>
<path fill="none" stroke="midnightblue" d="M304.74,-173.31C334.6,-168.26 381.43,-156.82 414,-132 443.88,-109.23 463.9,-91.28 451,-56 446.94,-44.91 438.81,-34.67 431.11,-26.76"/>
<polygon fill="midnightblue" stroke="midnightblue" points="433.36,-24.07 423.71,-19.7 428.53,-29.14 433.36,-24.07"/>
</g>
<!-- Node8 -->
<g id="node8" class="node">
<title>Node8</title>
<g id="a_node8"><a xlink:href="tbytevector_8h.html" target="_top" xlink:title=" ">
<polygon fill="white" stroke="black" points="304.5,-112.5 304.5,-131.5 385.5,-131.5 385.5,-112.5 304.5,-112.5"/>
<text text-anchor="middle" x="345" y="-119.5" font-family="Helvetica,sans-Serif" font-size="10.00">tbytevector.h</text>
</a>
</g>
</g>
<!-- Node3&#45;&gt;Node8 -->
<g id="edge7" class="edge">
<title>Node3&#45;&gt;Node8</title>
<path fill="none" stroke="midnightblue" d="M287.09,-168.32C297.49,-160.18 313.26,-147.84 325.72,-138.09"/>
<polygon fill="midnightblue" stroke="midnightblue" points="327.99,-140.75 333.71,-131.83 323.68,-135.24 327.99,-140.75"/>
</g>
<!-- Node3&#45;&gt;Node10 -->
<g id="edge13" class="edge">
<title>Node3&#45;&gt;Node10</title>
<path fill="none" stroke="midnightblue" d="M304.7,-173.67C331.8,-169.01 371.66,-157.95 395,-132 406.33,-119.41 410.27,-100.19 411.57,-85.92"/>
<polygon fill="midnightblue" stroke="midnightblue" points="415.07,-85.92 412.13,-75.75 408.08,-85.54 415.07,-85.92"/>
</g>
<!-- Node6 -->
<g id="node6" class="node">
<title>Node6</title>
<g id="a_node6"><a xlink:title=" ">
<polygon fill="white" stroke="#bfbfbf" points="228,-0.5 228,-19.5 316,-19.5 316,-0.5 228,-0.5"/>
<text text-anchor="middle" x="272" y="-7.5" font-family="Helvetica,sans-Serif" font-size="10.00">taglib_config.h</text>
</a>
</g>
</g>
<!-- Node5&#45;&gt;Node6 -->
<g id="edge5" class="edge">
<title>Node5&#45;&gt;Node6</title>
<path fill="none" stroke="midnightblue" d="M272,-56.08C272,-49.01 272,-38.86 272,-29.99"/>
<polygon fill="midnightblue" stroke="midnightblue" points="275.5,-29.75 272,-19.75 268.5,-29.75 275.5,-29.75"/>
</g>
<!-- Node5&#45;&gt;Node7 -->
<g id="edge6" class="edge">
<title>Node5&#45;&gt;Node7</title>
<path fill="none" stroke="midnightblue" d="M294.34,-56.44C317.75,-47.48 354.74,-33.31 381.19,-23.18"/>
<polygon fill="midnightblue" stroke="midnightblue" points="382.68,-26.36 390.76,-19.52 380.17,-19.82 382.68,-26.36"/>
</g>
<!-- Node8&#45;&gt;Node4 -->
<g id="edge9" class="edge">
<title>Node8&#45;&gt;Node4</title>
<path fill="none" stroke="midnightblue" d="M318.38,-112.44C289.99,-103.32 244.86,-88.81 213.25,-78.65"/>
<polygon fill="midnightblue" stroke="midnightblue" points="214.09,-75.24 203.5,-75.52 211.94,-81.91 214.09,-75.24"/>
</g>
<!-- Node8&#45;&gt;Node5 -->
<g id="edge8" class="edge">
<title>Node8&#45;&gt;Node5</title>
<path fill="none" stroke="midnightblue" d="M333.27,-112.32C322.16,-104.11 305.26,-91.6 292.02,-81.81"/>
<polygon fill="midnightblue" stroke="midnightblue" points="294.06,-78.97 283.94,-75.83 289.9,-84.59 294.06,-78.97"/>
</g>
<!-- Node9 -->
<g id="node9" class="node">
<title>Node9</title>
<g id="a_node9"><a xlink:title=" ">
<polygon fill="white" stroke="#bfbfbf" points="316.5,-56.5 316.5,-75.5 363.5,-75.5 363.5,-56.5 316.5,-56.5"/>
<text text-anchor="middle" x="340" y="-63.5" font-family="Helvetica,sans-Serif" font-size="10.00">vector</text>
</a>
</g>
</g>
<!-- Node8&#45;&gt;Node9 -->
<g id="edge10" class="edge">
<title>Node8&#45;&gt;Node9</title>
<path fill="none" stroke="midnightblue" d="M344.17,-112.08C343.52,-105.01 342.58,-94.86 341.76,-85.99"/>
<polygon fill="midnightblue" stroke="midnightblue" points="345.22,-85.39 340.81,-75.75 338.25,-86.03 345.22,-85.39"/>
</g>
<!-- Node8&#45;&gt;Node10 -->
<g id="edge11" class="edge">
<title>Node8&#45;&gt;Node10</title>
<path fill="none" stroke="midnightblue" d="M355.76,-112.32C365.77,-104.26 380.89,-92.08 392.93,-82.37"/>
<polygon fill="midnightblue" stroke="midnightblue" points="395.45,-84.83 401.04,-75.83 391.06,-79.38 395.45,-84.83"/>
</g>
<!-- Node11&#45;&gt;Node5 -->
<g id="edge15" class="edge">
<title>Node11&#45;&gt;Node5</title>
<path fill="none" stroke="midnightblue" d="M96.33,-114.91C130.17,-105.68 194.82,-88.05 235.55,-76.94"/>
<polygon fill="midnightblue" stroke="midnightblue" points="236.63,-80.28 245.35,-74.27 234.79,-73.52 236.63,-80.28"/>
</g>
<!-- Node12 -->
<g id="node12" class="node">
<title>Node12</title>
<g id="a_node12"><a xlink:title=" ">
<polygon fill="white" stroke="#bfbfbf" points="0,-56.5 0,-75.5 32,-75.5 32,-56.5 0,-56.5"/>
<text text-anchor="middle" x="16" y="-63.5" font-family="Helvetica,sans-Serif" font-size="10.00">list</text>
</a>
</g>
</g>
<!-- Node11&#45;&gt;Node12 -->
<g id="edge16" class="edge">
<title>Node11&#45;&gt;Node12</title>
<path fill="none" stroke="midnightblue" d="M64.68,-112.32C56.11,-104.34 43.19,-92.31 32.81,-82.65"/>
<polygon fill="midnightblue" stroke="midnightblue" points="35.19,-80.09 25.49,-75.83 30.42,-85.21 35.19,-80.09"/>
</g>
<!-- Node13 -->
<g id="node13" class="node">
<title>Node13</title>
<g id="a_node13"><a xlink:title=" ">
<polygon fill="white" stroke="#bfbfbf" points="50.5,-56.5 50.5,-75.5 103.5,-75.5 103.5,-56.5 50.5,-56.5"/>
<text text-anchor="middle" x="77" y="-63.5" font-family="Helvetica,sans-Serif" font-size="10.00">tlist.tcc</text>
</a>
</g>
</g>
<!-- Node11&#45;&gt;Node13 -->
<g id="edge17" class="edge">
<title>Node11&#45;&gt;Node13</title>
<path fill="none" stroke="midnightblue" d="M74.5,-112.08C74.89,-105.01 75.45,-94.86 75.95,-85.99"/>
<polygon fill="midnightblue" stroke="midnightblue" points="79.45,-85.93 76.51,-75.75 72.46,-85.54 79.45,-85.93"/>
</g>
<!-- Node14&#45;&gt;Node4 -->
<g id="edge19" class="edge">
<title>Node14&#45;&gt;Node4</title>
<path fill="none" stroke="midnightblue" d="M94.98,-168.37C109.74,-150.14 144.29,-107.43 163.51,-83.68"/>
<polygon fill="midnightblue" stroke="midnightblue" points="166.48,-85.57 170.05,-75.59 161.04,-81.16 166.48,-85.57"/>
</g>
<!-- Node14&#45;&gt;Node8 -->
<g id="edge20" class="edge">
<title>Node14&#45;&gt;Node8</title>
<path fill="none" stroke="midnightblue" d="M128.72,-168.44C173.65,-159 246,-143.8 294.5,-133.61"/>
<polygon fill="midnightblue" stroke="midnightblue" points="295.4,-137 304.47,-131.52 293.96,-130.15 295.4,-137"/>
</g>
<!-- Node14&#45;&gt;Node11 -->
<g id="edge21" class="edge">
<title>Node14&#45;&gt;Node11</title>
<path fill="none" stroke="midnightblue" d="M85.69,-168.08C83.83,-160.93 81.16,-150.64 78.85,-141.69"/>
<polygon fill="midnightblue" stroke="midnightblue" points="82.17,-140.55 76.27,-131.75 75.39,-142.31 82.17,-140.55"/>
</g>
<!-- Node15&#45;&gt;Node5 -->
<g id="edge26" class="edge">
<title>Node15&#45;&gt;Node5</title>
<path fill="none" stroke="midnightblue" d="M512.41,-224.42C495.31,-202.68 447.18,-144.86 395,-112 380.2,-102.68 338.76,-88.31 308.05,-78.33"/>
<polygon fill="midnightblue" stroke="midnightblue" points="309.1,-74.98 298.51,-75.25 306.95,-81.65 309.1,-74.98"/>
</g>
<!-- Node16 -->
<g id="node16" class="node">
<title>Node16</title>
<g id="a_node16"><a xlink:title=" ">
<polygon fill="white" stroke="#bfbfbf" points="596,-168.5 596,-187.5 634,-187.5 634,-168.5 596,-168.5"/>
<text text-anchor="middle" x="615" y="-175.5" font-family="Helvetica,sans-Serif" font-size="10.00">map</text>
</a>
</g>
</g>
<!-- Node15&#45;&gt;Node16 -->
<g id="edge25" class="edge">
<title>Node15&#45;&gt;Node16</title>
<path fill="none" stroke="midnightblue" d="M534.42,-224.32C549.54,-215.82 572.82,-202.73 590.47,-192.8"/>
<polygon fill="midnightblue" stroke="midnightblue" points="592.61,-195.61 599.61,-187.65 589.18,-189.51 592.61,-195.61"/>
</g>
<!-- Node17 -->
<g id="node17" class="node">
<title>Node17</title>
<g id="a_node17"><a xlink:title=" ">
<polygon fill="white" stroke="#bfbfbf" points="518.5,-168.5 518.5,-187.5 577.5,-187.5 577.5,-168.5 518.5,-168.5"/>
<text text-anchor="middle" x="548" y="-175.5" font-family="Helvetica,sans-Serif" font-size="10.00">tmap.tcc</text>
</a>
</g>
</g>
<!-- Node15&#45;&gt;Node17 -->
<g id="edge27" class="edge">
<title>Node15&#45;&gt;Node17</title>
<path fill="none" stroke="midnightblue" d="M523.79,-224.08C527.76,-216.69 533.53,-205.95 538.43,-196.81"/>
<polygon fill="midnightblue" stroke="midnightblue" points="541.65,-198.22 543.3,-187.75 535.49,-194.91 541.65,-198.22"/>
</g>
<!-- Node18&#45;&gt;Node3 -->
<g id="edge30" class="edge">
<title>Node18&#45;&gt;Node3</title>
<path fill="none" stroke="midnightblue" d="M274.33,-224.08C274.59,-217.01 274.97,-206.86 275.3,-197.99"/>
<polygon fill="midnightblue" stroke="midnightblue" points="278.8,-197.87 275.68,-187.75 271.81,-197.61 278.8,-197.87"/>
</g>
<!-- Node18&#45;&gt;Node4 -->
<g id="edge32" class="edge">
<title>Node18&#45;&gt;Node4</title>
<path fill="none" stroke="midnightblue" d="M266.52,-224.4C259.05,-215.59 247.51,-201.36 239,-188 216.68,-152.97 195.75,-108.93 184.85,-84.82"/>
<polygon fill="midnightblue" stroke="midnightblue" points="187.97,-83.22 180.69,-75.51 181.57,-86.07 187.97,-83.22"/>
</g>
<!-- Node18&#45;&gt;Node8 -->
<g id="edge31" class="edge">
<title>Node18&#45;&gt;Node8</title>
<path fill="none" stroke="midnightblue" d="M283.08,-224.32C291.77,-215.68 304.87,-201.76 314,-188 323.82,-173.2 332.28,-154.82 337.88,-141.38"/>
<polygon fill="midnightblue" stroke="midnightblue" points="341.23,-142.41 341.72,-131.83 334.74,-139.8 341.23,-142.41"/>
</g>
</g>
</svg>
