<?xml version="1.0" encoding="UTF-8" standalone="no"?>
<!DOCTYPE svg PUBLIC "-//W3C//DTD SVG 1.1//EN"
 "http://www.w3.org/Graphics/SVG/1.1/DTD/svg11.dtd">
<!-- Generated by graphviz version 2.46.1 (20210213.1702)
 -->
<!-- Title: textidentificationframe.h Pages: 1 -->
<svg width="618pt" height="308pt"
 viewBox="0.00 0.00 618.00 308.00" xmlns="http://www.w3.org/2000/svg" xmlns:xlink="http://www.w3.org/1999/xlink">
<g id="graph0" class="graph" transform="scale(1 1) rotate(0) translate(4 304)">
<title>textidentificationframe.h</title>
<polygon fill="white" stroke="transparent" points="-4,4 -4,-304 614,-304 614,4 -4,4"/>
<!-- Node1 -->
<g id="node1" class="node">
<title>Node1</title>
<g id="a_node1"><a xlink:title=" ">
<polygon fill="#bfbfbf" stroke="black" points="155,-280.5 155,-299.5 276,-299.5 276,-280.5 155,-280.5"/>
<text text-anchor="middle" x="215.5" y="-287.5" font-family="Helvetica,sans-Serif" font-size="10.00">textidentificationframe.h</text>
</a>
</g>
</g>
<!-- Node2 -->
<g id="node2" class="node">
<title>Node2</title>
<g id="a_node2"><a xlink:href="tstringlist_8h.html" target="_top" xlink:title=" ">
<polygon fill="white" stroke="black" points="140,-224.5 140,-243.5 205,-243.5 205,-224.5 140,-224.5"/>
<text text-anchor="middle" x="172.5" y="-231.5" font-family="Helvetica,sans-Serif" font-size="10.00">tstringlist.h</text>
</a>
</g>
</g>
<!-- Node1&#45;&gt;Node2 -->
<g id="edge1" class="edge">
<title>Node1&#45;&gt;Node2</title>
<path fill="none" stroke="midnightblue" d="M208.4,-280.08C202.26,-272.38 193.23,-261.03 185.76,-251.65"/>
<polygon fill="midnightblue" stroke="midnightblue" points="188.44,-249.39 179.47,-243.75 182.96,-253.75 188.44,-249.39"/>
</g>
<!-- Node4 -->
<g id="node4" class="node">
<title>Node4</title>
<g id="a_node4"><a xlink:href="taglib__export_8h.html" target="_top" xlink:title=" ">
<polygon fill="white" stroke="black" points="131.5,-56.5 131.5,-75.5 211.5,-75.5 211.5,-56.5 131.5,-56.5"/>
<text text-anchor="middle" x="171.5" y="-63.5" font-family="Helvetica,sans-Serif" font-size="10.00">taglib_export.h</text>
</a>
</g>
</g>
<!-- Node1&#45;&gt;Node4 -->
<g id="edge28" class="edge">
<title>Node1&#45;&gt;Node4</title>
<path fill="none" stroke="midnightblue" d="M178.08,-280.48C134.4,-268.28 64.22,-241.2 33.5,-188 25.65,-174.41 18.97,-135 36.5,-112 47.17,-98.01 87.76,-85.65 121.67,-77.45"/>
<polygon fill="midnightblue" stroke="midnightblue" points="122.55,-80.84 131.48,-75.14 120.95,-74.02 122.55,-80.84"/>
</g>
<!-- Node15 -->
<g id="node15" class="node">
<title>Node15</title>
<g id="a_node15"><a xlink:href="tmap_8h.html" target="_top" xlink:title=" ">
<polygon fill="white" stroke="black" points="478,-224.5 478,-243.5 525,-243.5 525,-224.5 478,-224.5"/>
<text text-anchor="middle" x="501.5" y="-231.5" font-family="Helvetica,sans-Serif" font-size="10.00">tmap.h</text>
</a>
</g>
</g>
<!-- Node1&#45;&gt;Node15 -->
<g id="edge24" class="edge">
<title>Node1&#45;&gt;Node15</title>
<path fill="none" stroke="midnightblue" d="M260.82,-280.44C318.43,-269.56 416.58,-251.03 467.93,-241.34"/>
<polygon fill="midnightblue" stroke="midnightblue" points="468.67,-244.76 477.85,-239.47 467.37,-237.88 468.67,-244.76"/>
</g>
<!-- Node18 -->
<g id="node18" class="node">
<title>Node18</title>
<g id="a_node18"><a xlink:href="id3v2frame_8h.html" target="_top" xlink:title=" ">
<polygon fill="white" stroke="black" points="227,-224.5 227,-243.5 300,-243.5 300,-224.5 227,-224.5"/>
<text text-anchor="middle" x="263.5" y="-231.5" font-family="Helvetica,sans-Serif" font-size="10.00">id3v2frame.h</text>
</a>
</g>
</g>
<!-- Node1&#45;&gt;Node18 -->
<g id="edge29" class="edge">
<title>Node1&#45;&gt;Node18</title>
<path fill="none" stroke="midnightblue" d="M223.43,-280.08C230.35,-272.3 240.57,-260.8 248.95,-251.37"/>
<polygon fill="midnightblue" stroke="midnightblue" points="251.69,-253.55 255.72,-243.75 246.46,-248.9 251.69,-253.55"/>
</g>
<!-- Node3 -->
<g id="node3" class="node">
<title>Node3</title>
<g id="a_node3"><a xlink:href="tstring_8h.html" target="_top" xlink:title=" ">
<polygon fill="white" stroke="black" points="241.5,-168.5 241.5,-187.5 293.5,-187.5 293.5,-168.5 241.5,-168.5"/>
<text text-anchor="middle" x="267.5" y="-175.5" font-family="Helvetica,sans-Serif" font-size="10.00">tstring.h</text>
</a>
</g>
</g>
<!-- Node2&#45;&gt;Node3 -->
<g id="edge2" class="edge">
<title>Node2&#45;&gt;Node3</title>
<path fill="none" stroke="midnightblue" d="M187.76,-224.32C202.72,-215.82 225.75,-202.73 243.23,-192.8"/>
<polygon fill="midnightblue" stroke="midnightblue" points="245.31,-195.64 252.27,-187.65 241.85,-189.55 245.31,-195.64"/>
</g>
<!-- Node2&#45;&gt;Node4 -->
<g id="edge22" class="edge">
<title>Node2&#45;&gt;Node4</title>
<path fill="none" stroke="midnightblue" d="M172.45,-224.08C172.29,-197.95 171.83,-121.21 171.61,-85.58"/>
<polygon fill="midnightblue" stroke="midnightblue" points="175.11,-85.55 171.55,-75.57 168.11,-85.59 175.11,-85.55"/>
</g>
<!-- Node10 -->
<g id="node10" class="node">
<title>Node10</title>
<g id="a_node10"><a xlink:title=" ">
<polygon fill="white" stroke="#bfbfbf" points="366.5,-56.5 366.5,-75.5 420.5,-75.5 420.5,-56.5 366.5,-56.5"/>
<text text-anchor="middle" x="393.5" y="-63.5" font-family="Helvetica,sans-Serif" font-size="10.00">iostream</text>
</a>
</g>
</g>
<!-- Node2&#45;&gt;Node10 -->
<g id="edge23" class="edge">
<title>Node2&#45;&gt;Node10</title>
<path fill="none" stroke="midnightblue" d="M202.07,-224.44C258.31,-207.47 376.9,-168.06 397.5,-132 405.55,-117.9 403.31,-99.17 399.79,-85.43"/>
<polygon fill="midnightblue" stroke="midnightblue" points="403.09,-84.25 396.87,-75.68 396.39,-86.26 403.09,-84.25"/>
</g>
<!-- Node11 -->
<g id="node11" class="node">
<title>Node11</title>
<g id="a_node11"><a xlink:href="tlist_8h.html" target="_top" xlink:title=" ">
<polygon fill="white" stroke="black" points="46,-112.5 46,-131.5 87,-131.5 87,-112.5 46,-112.5"/>
<text text-anchor="middle" x="66.5" y="-119.5" font-family="Helvetica,sans-Serif" font-size="10.00">tlist.h</text>
</a>
</g>
</g>
<!-- Node2&#45;&gt;Node11 -->
<g id="edge14" class="edge">
<title>Node2&#45;&gt;Node11</title>
<path fill="none" stroke="midnightblue" d="M139.9,-231.92C108.87,-228.94 63.71,-219.12 41.5,-188 31.01,-173.31 41.26,-153.65 51.62,-139.81"/>
<polygon fill="midnightblue" stroke="midnightblue" points="54.65,-141.63 58.24,-131.66 49.22,-137.22 54.65,-141.63"/>
</g>
<!-- Node14 -->
<g id="node14" class="node">
<title>Node14</title>
<g id="a_node14"><a xlink:href="tbytevectorlist_8h.html" target="_top" xlink:title=" ">
<polygon fill="white" stroke="black" points="50.5,-168.5 50.5,-187.5 136.5,-187.5 136.5,-168.5 50.5,-168.5"/>
<text text-anchor="middle" x="93.5" y="-175.5" font-family="Helvetica,sans-Serif" font-size="10.00">tbytevectorlist.h</text>
</a>
</g>
</g>
<!-- Node2&#45;&gt;Node14 -->
<g id="edge18" class="edge">
<title>Node2&#45;&gt;Node14</title>
<path fill="none" stroke="midnightblue" d="M159.81,-224.32C147.6,-215.98 128.92,-203.21 114.5,-193.35"/>
<polygon fill="midnightblue" stroke="midnightblue" points="116.39,-190.41 106.16,-187.65 112.44,-196.19 116.39,-190.41"/>
</g>
<!-- Node3&#45;&gt;Node4 -->
<g id="edge3" class="edge">
<title>Node3&#45;&gt;Node4</title>
<path fill="none" stroke="midnightblue" d="M259.97,-168.37C243.98,-150.05 206.45,-107.05 185.78,-83.36"/>
<polygon fill="midnightblue" stroke="midnightblue" points="188.21,-80.82 179,-75.59 182.94,-85.43 188.21,-80.82"/>
</g>
<!-- Node5 -->
<g id="node5" class="node">
<title>Node5</title>
<g id="a_node5"><a xlink:href="taglib_8h.html" target="_top" xlink:title=" ">
<polygon fill="white" stroke="black" points="238.5,-56.5 238.5,-75.5 286.5,-75.5 286.5,-56.5 238.5,-56.5"/>
<text text-anchor="middle" x="262.5" y="-63.5" font-family="Helvetica,sans-Serif" font-size="10.00">taglib.h</text>
</a>
</g>
</g>
<!-- Node3&#45;&gt;Node5 -->
<g id="edge4" class="edge">
<title>Node3&#45;&gt;Node5</title>
<path fill="none" stroke="midnightblue" d="M267.11,-168.37C266.3,-150.62 264.44,-109.67 263.35,-85.6"/>
<polygon fill="midnightblue" stroke="midnightblue" points="266.84,-85.42 262.89,-75.59 259.85,-85.74 266.84,-85.42"/>
</g>
<!-- Node7 -->
<g id="node7" class="node">
<title>Node7</title>
<g id="a_node7"><a xlink:title=" ">
<polygon fill="white" stroke="#bfbfbf" points="374,-0.5 374,-19.5 415,-19.5 415,-0.5 374,-0.5"/>
<text text-anchor="middle" x="394.5" y="-7.5" font-family="Helvetica,sans-Serif" font-size="10.00">string</text>
</a>
</g>
</g>
<!-- Node3&#45;&gt;Node7 -->
<g id="edge12" class="edge">
<title>Node3&#45;&gt;Node7</title>
<path fill="none" stroke="midnightblue" d="M293.6,-173.52C321.93,-168.58 367.17,-157.16 397.5,-132 425.71,-108.6 441.39,-90.67 429.5,-56 425.78,-45.16 418.27,-34.92 411.15,-26.96"/>
<polygon fill="midnightblue" stroke="midnightblue" points="413.5,-24.35 404.06,-19.55 408.45,-29.19 413.5,-24.35"/>
</g>
<!-- Node8 -->
<g id="node8" class="node">
<title>Node8</title>
<g id="a_node8"><a xlink:href="tbytevector_8h.html" target="_top" xlink:title=" ">
<polygon fill="white" stroke="black" points="296,-112.5 296,-131.5 369,-131.5 369,-112.5 296,-112.5"/>
<text text-anchor="middle" x="332.5" y="-119.5" font-family="Helvetica,sans-Serif" font-size="10.00">tbytevector.h</text>
</a>
</g>
</g>
<!-- Node3&#45;&gt;Node8 -->
<g id="edge7" class="edge">
<title>Node3&#45;&gt;Node8</title>
<path fill="none" stroke="midnightblue" d="M277.94,-168.32C287.65,-160.26 302.32,-148.08 314,-138.37"/>
<polygon fill="midnightblue" stroke="midnightblue" points="316.41,-140.92 321.87,-131.83 311.94,-135.53 316.41,-140.92"/>
</g>
<!-- Node3&#45;&gt;Node10 -->
<g id="edge13" class="edge">
<title>Node3&#45;&gt;Node10</title>
<path fill="none" stroke="midnightblue" d="M293.51,-173.44C318.95,-168.56 356.91,-157.31 378.5,-132 389.41,-119.21 392.77,-100.02 393.64,-85.8"/>
<polygon fill="midnightblue" stroke="midnightblue" points="397.14,-85.77 393.89,-75.69 390.14,-85.59 397.14,-85.77"/>
</g>
<!-- Node6 -->
<g id="node6" class="node">
<title>Node6</title>
<g id="a_node6"><a xlink:title=" ">
<polygon fill="white" stroke="#bfbfbf" points="222.5,-0.5 222.5,-19.5 302.5,-19.5 302.5,-0.5 222.5,-0.5"/>
<text text-anchor="middle" x="262.5" y="-7.5" font-family="Helvetica,sans-Serif" font-size="10.00">taglib_config.h</text>
</a>
</g>
</g>
<!-- Node5&#45;&gt;Node6 -->
<g id="edge5" class="edge">
<title>Node5&#45;&gt;Node6</title>
<path fill="none" stroke="midnightblue" d="M262.5,-56.08C262.5,-49.01 262.5,-38.86 262.5,-29.99"/>
<polygon fill="midnightblue" stroke="midnightblue" points="266,-29.75 262.5,-19.75 259,-29.75 266,-29.75"/>
</g>
<!-- Node5&#45;&gt;Node7 -->
<g id="edge6" class="edge">
<title>Node5&#45;&gt;Node7</title>
<path fill="none" stroke="midnightblue" d="M283.42,-56.44C305.24,-47.52 339.65,-33.44 364.39,-23.32"/>
<polygon fill="midnightblue" stroke="midnightblue" points="365.75,-26.54 373.68,-19.52 363.1,-20.06 365.75,-26.54"/>
</g>
<!-- Node8&#45;&gt;Node4 -->
<g id="edge9" class="edge">
<title>Node8&#45;&gt;Node4</title>
<path fill="none" stroke="midnightblue" d="M306.99,-112.44C279.9,-103.36 236.91,-88.94 206.63,-78.78"/>
<polygon fill="midnightblue" stroke="midnightblue" points="207.49,-75.38 196.89,-75.52 205.26,-82.01 207.49,-75.38"/>
</g>
<!-- Node8&#45;&gt;Node5 -->
<g id="edge8" class="edge">
<title>Node8&#45;&gt;Node5</title>
<path fill="none" stroke="midnightblue" d="M321.25,-112.32C310.7,-104.18 294.7,-91.84 282.06,-82.09"/>
<polygon fill="midnightblue" stroke="midnightblue" points="284.01,-79.17 273.95,-75.83 279.73,-84.71 284.01,-79.17"/>
</g>
<!-- Node9 -->
<g id="node9" class="node">
<title>Node9</title>
<g id="a_node9"><a xlink:title=" ">
<polygon fill="white" stroke="#bfbfbf" points="304.5,-56.5 304.5,-75.5 348.5,-75.5 348.5,-56.5 304.5,-56.5"/>
<text text-anchor="middle" x="326.5" y="-63.5" font-family="Helvetica,sans-Serif" font-size="10.00">vector</text>
</a>
</g>
</g>
<!-- Node8&#45;&gt;Node9 -->
<g id="edge10" class="edge">
<title>Node8&#45;&gt;Node9</title>
<path fill="none" stroke="midnightblue" d="M331.51,-112.08C330.71,-104.93 329.57,-94.64 328.58,-85.69"/>
<polygon fill="midnightblue" stroke="midnightblue" points="332.06,-85.3 327.47,-75.75 325.1,-86.08 332.06,-85.3"/>
</g>
<!-- Node8&#45;&gt;Node10 -->
<g id="edge11" class="edge">
<title>Node8&#45;&gt;Node10</title>
<path fill="none" stroke="midnightblue" d="M342.3,-112.32C351.32,-104.34 364.91,-92.31 375.82,-82.65"/>
<polygon fill="midnightblue" stroke="midnightblue" points="378.35,-85.08 383.52,-75.83 373.71,-79.84 378.35,-85.08"/>
</g>
<!-- Node11&#45;&gt;Node5 -->
<g id="edge15" class="edge">
<title>Node11&#45;&gt;Node5</title>
<path fill="none" stroke="midnightblue" d="M87.1,-115.32C120.72,-106.06 187.69,-87.61 228.45,-76.38"/>
<polygon fill="midnightblue" stroke="midnightblue" points="229.51,-79.72 238.22,-73.69 227.65,-72.97 229.51,-79.72"/>
</g>
<!-- Node12 -->
<g id="node12" class="node">
<title>Node12</title>
<g id="a_node12"><a xlink:title=" ">
<polygon fill="white" stroke="#bfbfbf" points="0,-56.5 0,-75.5 29,-75.5 29,-56.5 0,-56.5"/>
<text text-anchor="middle" x="14.5" y="-63.5" font-family="Helvetica,sans-Serif" font-size="10.00">list</text>
</a>
</g>
</g>
<!-- Node11&#45;&gt;Node12 -->
<g id="edge16" class="edge">
<title>Node11&#45;&gt;Node12</title>
<path fill="none" stroke="midnightblue" d="M57.91,-112.08C50.34,-104.22 39.12,-92.57 29.99,-83.08"/>
<polygon fill="midnightblue" stroke="midnightblue" points="32.38,-80.53 22.93,-75.75 27.34,-85.38 32.38,-80.53"/>
</g>
<!-- Node13 -->
<g id="node13" class="node">
<title>Node13</title>
<g id="a_node13"><a xlink:title=" ">
<polygon fill="white" stroke="#bfbfbf" points="47,-56.5 47,-75.5 96,-75.5 96,-56.5 47,-56.5"/>
<text text-anchor="middle" x="71.5" y="-63.5" font-family="Helvetica,sans-Serif" font-size="10.00">tlist.tcc</text>
</a>
</g>
</g>
<!-- Node11&#45;&gt;Node13 -->
<g id="edge17" class="edge">
<title>Node11&#45;&gt;Node13</title>
<path fill="none" stroke="midnightblue" d="M67.33,-112.08C67.98,-105.01 68.92,-94.86 69.74,-85.99"/>
<polygon fill="midnightblue" stroke="midnightblue" points="73.25,-86.03 70.69,-75.75 66.28,-85.39 73.25,-86.03"/>
</g>
<!-- Node14&#45;&gt;Node4 -->
<g id="edge19" class="edge">
<title>Node14&#45;&gt;Node4</title>
<path fill="none" stroke="midnightblue" d="M99.74,-168.16C108.58,-155.66 125.26,-132.07 139.5,-112 146.1,-102.7 153.48,-92.32 159.48,-83.88"/>
<polygon fill="midnightblue" stroke="midnightblue" points="162.41,-85.8 165.36,-75.62 156.71,-81.74 162.41,-85.8"/>
</g>
<!-- Node14&#45;&gt;Node8 -->
<g id="edge20" class="edge">
<title>Node14&#45;&gt;Node8</title>
<path fill="none" stroke="midnightblue" d="M131.37,-168.44C173.34,-158.96 241.05,-143.66 286.16,-133.47"/>
<polygon fill="midnightblue" stroke="midnightblue" points="287,-136.87 295.98,-131.25 285.46,-130.04 287,-136.87"/>
</g>
<!-- Node14&#45;&gt;Node11 -->
<g id="edge21" class="edge">
<title>Node14&#45;&gt;Node11</title>
<path fill="none" stroke="midnightblue" d="M89.04,-168.08C85.35,-160.69 79.98,-149.95 75.41,-140.81"/>
<polygon fill="midnightblue" stroke="midnightblue" points="78.48,-139.13 70.88,-131.75 72.22,-142.26 78.48,-139.13"/>
</g>
<!-- Node15&#45;&gt;Node5 -->
<g id="edge26" class="edge">
<title>Node15&#45;&gt;Node5</title>
<path fill="none" stroke="midnightblue" d="M494.94,-224.47C477.92,-202.87 430.08,-145.32 378.5,-112 364.54,-102.98 325.46,-88.55 296.5,-78.47"/>
<polygon fill="midnightblue" stroke="midnightblue" points="297.33,-75.05 286.73,-75.1 295.04,-81.67 297.33,-75.05"/>
</g>
<!-- Node16 -->
<g id="node16" class="node">
<title>Node16</title>
<g id="a_node16"><a xlink:title=" ">
<polygon fill="white" stroke="#bfbfbf" points="575,-168.5 575,-187.5 610,-187.5 610,-168.5 575,-168.5"/>
<text text-anchor="middle" x="592.5" y="-175.5" font-family="Helvetica,sans-Serif" font-size="10.00">map</text>
</a>
</g>
</g>
<!-- Node15&#45;&gt;Node16 -->
<g id="edge25" class="edge">
<title>Node15&#45;&gt;Node16</title>
<path fill="none" stroke="midnightblue" d="M516.12,-224.32C530.45,-215.82 552.51,-202.73 569.25,-192.8"/>
<polygon fill="midnightblue" stroke="midnightblue" points="571.1,-195.77 577.92,-187.65 567.53,-189.75 571.1,-195.77"/>
</g>
<!-- Node17 -->
<g id="node17" class="node">
<title>Node17</title>
<g id="a_node17"><a xlink:title=" ">
<polygon fill="white" stroke="#bfbfbf" points="502,-168.5 502,-187.5 557,-187.5 557,-168.5 502,-168.5"/>
<text text-anchor="middle" x="529.5" y="-175.5" font-family="Helvetica,sans-Serif" font-size="10.00">tmap.tcc</text>
</a>
</g>
</g>
<!-- Node15&#45;&gt;Node17 -->
<g id="edge27" class="edge">
<title>Node15&#45;&gt;Node17</title>
<path fill="none" stroke="midnightblue" d="M506.12,-224.08C509.96,-216.69 515.52,-205.95 520.26,-196.81"/>
<polygon fill="midnightblue" stroke="midnightblue" points="523.47,-198.24 524.96,-187.75 517.25,-195.02 523.47,-198.24"/>
</g>
<!-- Node18&#45;&gt;Node3 -->
<g id="edge30" class="edge">
<title>Node18&#45;&gt;Node3</title>
<path fill="none" stroke="midnightblue" d="M264.16,-224.08C264.68,-217.01 265.44,-206.86 266.09,-197.99"/>
<polygon fill="midnightblue" stroke="midnightblue" points="269.6,-197.98 266.85,-187.75 262.62,-197.47 269.6,-197.98"/>
</g>
<!-- Node18&#45;&gt;Node4 -->
<g id="edge32" class="edge">
<title>Node18&#45;&gt;Node4</title>
<path fill="none" stroke="midnightblue" d="M256.96,-224.27C250.41,-215.37 240.24,-201.06 232.5,-188 211.5,-152.57 190.69,-109 179.63,-85"/>
<polygon fill="midnightblue" stroke="midnightblue" points="182.73,-83.37 175.4,-75.72 176.37,-86.27 182.73,-83.37"/>
</g>
<!-- Node18&#45;&gt;Node8 -->
<g id="edge31" class="edge">
<title>Node18&#45;&gt;Node8</title>
<path fill="none" stroke="midnightblue" d="M272.38,-224.3C280.86,-215.65 293.64,-201.72 302.5,-188 312.07,-173.17 320.26,-154.79 325.65,-141.36"/>
<polygon fill="midnightblue" stroke="midnightblue" points="329,-142.4 329.35,-131.82 322.47,-139.88 329,-142.4"/>
</g>
</g>
</svg>
