<?xml version="1.0" encoding="UTF-8" standalone="no"?>
<!DOCTYPE svg PUBLIC "-//W3C//DTD SVG 1.1//EN"
 "http://www.w3.org/Graphics/SVG/1.1/DTD/svg11.dtd">
<!-- Generated by graphviz version 2.46.1 (20210213.1702)
 -->
<!-- Title: tfile.h Pages: 1 -->
<svg width="1113pt" height="140pt"
 viewBox="0.00 0.00 1113.00 140.00" xmlns="http://www.w3.org/2000/svg" xmlns:xlink="http://www.w3.org/1999/xlink">
<g id="graph0" class="graph" transform="scale(1 1) rotate(0) translate(4 136)">
<title>tfile.h</title>
<polygon fill="white" stroke="transparent" points="-4,4 -4,-136 1109,-136 1109,4 -4,4"/>
<!-- Node1 -->
<g id="node1" class="node">
<title>Node1</title>
<g id="a_node1"><a xlink:title=" ">
<polygon fill="#bfbfbf" stroke="black" points="478,-112.5 478,-131.5 519,-131.5 519,-112.5 478,-112.5"/>
<text text-anchor="middle" x="498.5" y="-119.5" font-family="Helvetica,sans-Serif" font-size="10.00">tfile.h</text>
</a>
</g>
</g>
<!-- Node2 -->
<g id="node2" class="node">
<title>Node2</title>
<g id="a_node2"><a xlink:href="apefile_8h.html" target="_top" xlink:title=" ">
<polygon fill="white" stroke="black" points="0,-56.5 0,-75.5 53,-75.5 53,-56.5 0,-56.5"/>
<text text-anchor="middle" x="26.5" y="-63.5" font-family="Helvetica,sans-Serif" font-size="10.00">apefile.h</text>
</a>
</g>
</g>
<!-- Node1&#45;&gt;Node2 -->
<g id="edge1" class="edge">
<title>Node1&#45;&gt;Node2</title>
<path fill="none" stroke="midnightblue" d="M467.74,-119.41C396.05,-115.37 212.53,-103.04 61.5,-76 58.78,-75.51 55.97,-74.93 53.16,-74.29"/>
<polygon fill="midnightblue" stroke="midnightblue" points="467.69,-122.92 477.87,-119.97 468.08,-115.93 467.69,-122.92"/>
</g>
<!-- Node3 -->
<g id="node3" class="node">
<title>Node3</title>
<g id="a_node3"><a xlink:href="asffile_8h.html" target="_top" xlink:title=" ">
<polygon fill="white" stroke="black" points="71,-56.5 71,-75.5 122,-75.5 122,-56.5 71,-56.5"/>
<text text-anchor="middle" x="96.5" y="-63.5" font-family="Helvetica,sans-Serif" font-size="10.00">asffile.h</text>
</a>
</g>
</g>
<!-- Node1&#45;&gt;Node3 -->
<g id="edge2" class="edge">
<title>Node1&#45;&gt;Node3</title>
<path fill="none" stroke="midnightblue" d="M467.43,-118.65C403.79,-113.51 254.18,-99.81 130.5,-76 127.74,-75.47 124.88,-74.84 122.03,-74.16"/>
<polygon fill="midnightblue" stroke="midnightblue" points="467.35,-122.15 477.59,-119.45 467.9,-115.17 467.35,-122.15"/>
</g>
<!-- Node4 -->
<g id="node4" class="node">
<title>Node4</title>
<g id="a_node4"><a xlink:href="fileref_8h.html" target="_top" xlink:title=" ">
<polygon fill="white" stroke="black" points="140,-56.5 140,-75.5 189,-75.5 189,-56.5 140,-56.5"/>
<text text-anchor="middle" x="164.5" y="-63.5" font-family="Helvetica,sans-Serif" font-size="10.00">fileref.h</text>
</a>
</g>
</g>
<!-- Node1&#45;&gt;Node4 -->
<g id="edge3" class="edge">
<title>Node1&#45;&gt;Node4</title>
<path fill="none" stroke="midnightblue" d="M467.85,-117.63C413.18,-111.35 295.42,-96.6 197.5,-76 194.83,-75.44 192.05,-74.79 189.29,-74.1"/>
<polygon fill="midnightblue" stroke="midnightblue" points="467.58,-121.12 477.91,-118.77 468.37,-114.17 467.58,-121.12"/>
</g>
<!-- Node5 -->
<g id="node5" class="node">
<title>Node5</title>
<g id="a_node5"><a xlink:href="flacfile_8h.html" target="_top" xlink:title=" ">
<polygon fill="white" stroke="black" points="207,-56.5 207,-75.5 260,-75.5 260,-56.5 207,-56.5"/>
<text text-anchor="middle" x="233.5" y="-63.5" font-family="Helvetica,sans-Serif" font-size="10.00">flacfile.h</text>
</a>
</g>
</g>
<!-- Node1&#45;&gt;Node5 -->
<g id="edge4" class="edge">
<title>Node1&#45;&gt;Node5</title>
<path fill="none" stroke="midnightblue" d="M467.91,-115.03C424.75,-106.58 343.53,-90.51 274.5,-76 269.94,-75.04 265.09,-74 260.39,-72.97"/>
<polygon fill="midnightblue" stroke="midnightblue" points="467.3,-118.48 477.78,-116.97 468.64,-111.61 467.3,-118.48"/>
</g>
<!-- Node6 -->
<g id="node6" class="node">
<title>Node6</title>
<g id="a_node6"><a xlink:href="itfile_8h.html" target="_top" xlink:title=" ">
<polygon fill="white" stroke="black" points="265,-0.5 265,-19.5 308,-19.5 308,-0.5 265,-0.5"/>
<text text-anchor="middle" x="286.5" y="-7.5" font-family="Helvetica,sans-Serif" font-size="10.00">itfile.h</text>
</a>
</g>
</g>
<!-- Node1&#45;&gt;Node6 -->
<g id="edge5" class="edge">
<title>Node1&#45;&gt;Node6</title>
<path fill="none" stroke="midnightblue" d="M467.88,-118.32C433.38,-114.06 376.86,-103.2 336.5,-76 314.54,-61.2 298.1,-33.59 290.75,-19.6"/>
<polygon fill="midnightblue" stroke="midnightblue" points="467.5,-121.8 477.83,-119.45 468.29,-114.85 467.5,-121.8"/>
</g>
<!-- Node7 -->
<g id="node7" class="node">
<title>Node7</title>
<g id="a_node7"><a xlink:href="modfile_8h.html" target="_top" xlink:title=" ">
<polygon fill="white" stroke="black" points="326.5,-0.5 326.5,-19.5 382.5,-19.5 382.5,-0.5 326.5,-0.5"/>
<text text-anchor="middle" x="354.5" y="-7.5" font-family="Helvetica,sans-Serif" font-size="10.00">modfile.h</text>
</a>
</g>
</g>
<!-- Node1&#45;&gt;Node7 -->
<g id="edge6" class="edge">
<title>Node1&#45;&gt;Node7</title>
<path fill="none" stroke="midnightblue" d="M467.78,-116.36C427.48,-109.57 360.16,-95.59 345.5,-76 332.94,-59.22 343.09,-32.98 349.78,-19.55"/>
<polygon fill="midnightblue" stroke="midnightblue" points="467.44,-119.85 477.88,-118.01 468.57,-112.94 467.44,-119.85"/>
</g>
<!-- Node8 -->
<g id="node8" class="node">
<title>Node8</title>
<g id="a_node8"><a xlink:href="modfilebase_8h.html" target="_top" xlink:title=" ">
<polygon fill="white" stroke="black" points="355,-56.5 355,-75.5 432,-75.5 432,-56.5 355,-56.5"/>
<text text-anchor="middle" x="393.5" y="-63.5" font-family="Helvetica,sans-Serif" font-size="10.00">modfilebase.h</text>
</a>
</g>
</g>
<!-- Node1&#45;&gt;Node8 -->
<g id="edge7" class="edge">
<title>Node1&#45;&gt;Node8</title>
<path fill="none" stroke="midnightblue" d="M472.69,-107.73C453.25,-97.73 427.15,-84.31 410.33,-75.65"/>
<polygon fill="midnightblue" stroke="midnightblue" points="471.14,-110.86 481.63,-112.32 474.34,-104.64 471.14,-110.86"/>
</g>
<!-- Node9 -->
<g id="node9" class="node">
<title>Node9</title>
<g id="a_node9"><a xlink:href="s3mfile_8h.html" target="_top" xlink:title=" ">
<polygon fill="white" stroke="black" points="400.5,-0.5 400.5,-19.5 456.5,-19.5 456.5,-0.5 400.5,-0.5"/>
<text text-anchor="middle" x="428.5" y="-7.5" font-family="Helvetica,sans-Serif" font-size="10.00">s3mfile.h</text>
</a>
</g>
</g>
<!-- Node1&#45;&gt;Node9 -->
<g id="edge25" class="edge">
<title>Node1&#45;&gt;Node9</title>
<path fill="none" stroke="midnightblue" d="M487.45,-103.64C472.25,-79.74 445.45,-37.63 433.97,-19.59"/>
<polygon fill="midnightblue" stroke="midnightblue" points="484.69,-105.81 493.01,-112.37 490.59,-102.05 484.69,-105.81"/>
</g>
<!-- Node10 -->
<g id="node10" class="node">
<title>Node10</title>
<g id="a_node10"><a xlink:href="xmfile_8h.html" target="_top" xlink:title=" ">
<polygon fill="white" stroke="black" points="475,-0.5 475,-19.5 526,-19.5 526,-0.5 475,-0.5"/>
<text text-anchor="middle" x="500.5" y="-7.5" font-family="Helvetica,sans-Serif" font-size="10.00">xmfile.h</text>
</a>
</g>
</g>
<!-- Node1&#45;&gt;Node10 -->
<g id="edge28" class="edge">
<title>Node1&#45;&gt;Node10</title>
<path fill="none" stroke="midnightblue" d="M498.84,-102.35C499.28,-78.25 500.02,-37.31 500.34,-19.59"/>
<polygon fill="midnightblue" stroke="midnightblue" points="495.34,-102.31 498.66,-112.37 502.34,-102.43 495.34,-102.31"/>
</g>
<!-- Node11 -->
<g id="node11" class="node">
<title>Node11</title>
<g id="a_node11"><a xlink:href="mp4file_8h.html" target="_top" xlink:title=" ">
<polygon fill="white" stroke="black" points="550.5,-0.5 550.5,-19.5 606.5,-19.5 606.5,-0.5 550.5,-0.5"/>
<text text-anchor="middle" x="578.5" y="-7.5" font-family="Helvetica,sans-Serif" font-size="10.00">mp4file.h</text>
</a>
</g>
</g>
<!-- Node1&#45;&gt;Node11 -->
<g id="edge12" class="edge">
<title>Node1&#45;&gt;Node11</title>
<path fill="none" stroke="midnightblue" d="M529.08,-115.27C550.88,-109.42 578.68,-97.94 592.5,-76 603.7,-58.22 591.9,-32.87 584.14,-19.7"/>
<polygon fill="midnightblue" stroke="midnightblue" points="528.15,-111.89 519.25,-117.65 529.79,-118.7 528.15,-111.89"/>
</g>
<!-- Node12 -->
<g id="node12" class="node">
<title>Node12</title>
<g id="a_node12"><a xlink:href="mp4tag_8h.html" target="_top" xlink:title=" ">
<polygon fill="white" stroke="black" points="527,-56.5 527,-75.5 584,-75.5 584,-56.5 527,-56.5"/>
<text text-anchor="middle" x="555.5" y="-63.5" font-family="Helvetica,sans-Serif" font-size="10.00">mp4tag.h</text>
</a>
</g>
</g>
<!-- Node1&#45;&gt;Node12 -->
<g id="edge13" class="edge">
<title>Node1&#45;&gt;Node12</title>
<path fill="none" stroke="midnightblue" d="M515.12,-105.25C525.23,-95.67 537.78,-83.79 546.18,-75.83"/>
<polygon fill="midnightblue" stroke="midnightblue" points="512.51,-102.91 507.66,-112.32 517.32,-107.99 512.51,-102.91"/>
</g>
<!-- Node13 -->
<g id="node13" class="node">
<title>Node13</title>
<g id="a_node13"><a xlink:href="mpcfile_8h.html" target="_top" xlink:title=" ">
<polygon fill="white" stroke="black" points="640.5,-56.5 640.5,-75.5 696.5,-75.5 696.5,-56.5 640.5,-56.5"/>
<text text-anchor="middle" x="668.5" y="-63.5" font-family="Helvetica,sans-Serif" font-size="10.00">mpcfile.h</text>
</a>
</g>
</g>
<!-- Node1&#45;&gt;Node13 -->
<g id="edge15" class="edge">
<title>Node1&#45;&gt;Node13</title>
<path fill="none" stroke="midnightblue" d="M528.71,-111.4C560.71,-101.24 610.75,-85.34 641.48,-75.58"/>
<polygon fill="midnightblue" stroke="midnightblue" points="527.48,-108.12 519.01,-114.49 529.6,-114.79 527.48,-108.12"/>
</g>
<!-- Node14 -->
<g id="node14" class="node">
<title>Node14</title>
<g id="a_node14"><a xlink:href="mpegfile_8h.html" target="_top" xlink:title=" ">
<polygon fill="white" stroke="black" points="714.5,-56.5 714.5,-75.5 776.5,-75.5 776.5,-56.5 714.5,-56.5"/>
<text text-anchor="middle" x="745.5" y="-63.5" font-family="Helvetica,sans-Serif" font-size="10.00">mpegfile.h</text>
</a>
</g>
</g>
<!-- Node1&#45;&gt;Node14 -->
<g id="edge16" class="edge">
<title>Node1&#45;&gt;Node14</title>
<path fill="none" stroke="midnightblue" d="M529.09,-114.42C569.5,-105.72 642.87,-89.85 705.5,-76 708.42,-75.35 711.46,-74.68 714.5,-74"/>
<polygon fill="midnightblue" stroke="midnightblue" points="528.12,-111.05 519.08,-116.58 529.59,-117.9 528.12,-111.05"/>
</g>
<!-- Node15 -->
<g id="node15" class="node">
<title>Node15</title>
<g id="a_node15"><a xlink:href="oggfile_8h.html" target="_top" xlink:title=" ">
<polygon fill="white" stroke="black" points="795,-56.5 795,-75.5 848,-75.5 848,-56.5 795,-56.5"/>
<text text-anchor="middle" x="821.5" y="-63.5" font-family="Helvetica,sans-Serif" font-size="10.00">oggfile.h</text>
</a>
</g>
</g>
<!-- Node1&#45;&gt;Node15 -->
<g id="edge17" class="edge">
<title>Node1&#45;&gt;Node15</title>
<path fill="none" stroke="midnightblue" d="M529.18,-117.11C581.85,-110.22 692.79,-94.82 785.5,-76 788.53,-75.38 791.69,-74.68 794.82,-73.95"/>
<polygon fill="midnightblue" stroke="midnightblue" points="528.61,-113.65 519.15,-118.41 529.51,-120.59 528.61,-113.65"/>
</g>
<!-- Node20 -->
<g id="node20" class="node">
<title>Node20</title>
<g id="a_node20"><a xlink:href="rifffile_8h.html" target="_top" xlink:title=" ">
<polygon fill="white" stroke="black" points="866,-56.5 866,-75.5 915,-75.5 915,-56.5 866,-56.5"/>
<text text-anchor="middle" x="890.5" y="-63.5" font-family="Helvetica,sans-Serif" font-size="10.00">rifffile.h</text>
</a>
</g>
</g>
<!-- Node1&#45;&gt;Node20 -->
<g id="edge22" class="edge">
<title>Node1&#45;&gt;Node20</title>
<path fill="none" stroke="midnightblue" d="M529.56,-118.5C591.93,-113.18 736.71,-99.27 856.5,-76 859.5,-75.42 862.62,-74.72 865.71,-73.97"/>
<polygon fill="midnightblue" stroke="midnightblue" points="528.91,-115.05 519.24,-119.37 529.49,-122.02 528.91,-115.05"/>
</g>
<!-- Node23 -->
<g id="node23" class="node">
<title>Node23</title>
<g id="a_node23"><a xlink:href="trueaudiofile_8h.html" target="_top" xlink:title=" ">
<polygon fill="white" stroke="black" points="933,-56.5 933,-75.5 1010,-75.5 1010,-56.5 933,-56.5"/>
<text text-anchor="middle" x="971.5" y="-63.5" font-family="Helvetica,sans-Serif" font-size="10.00">trueaudiofile.h</text>
</a>
</g>
</g>
<!-- Node1&#45;&gt;Node23 -->
<g id="edge26" class="edge">
<title>Node1&#45;&gt;Node23</title>
<path fill="none" stroke="midnightblue" d="M529.82,-118.6C600.46,-112.98 777.51,-97.8 924.5,-76 927.21,-75.6 930.01,-75.15 932.82,-74.67"/>
<polygon fill="midnightblue" stroke="midnightblue" points="529.11,-115.14 519.41,-119.42 529.66,-122.12 529.11,-115.14"/>
</g>
<!-- Node24 -->
<g id="node24" class="node">
<title>Node24</title>
<g id="a_node24"><a xlink:href="wavpackfile_8h.html" target="_top" xlink:title=" ">
<polygon fill="white" stroke="black" points="1028,-56.5 1028,-75.5 1105,-75.5 1105,-56.5 1028,-56.5"/>
<text text-anchor="middle" x="1066.5" y="-63.5" font-family="Helvetica,sans-Serif" font-size="10.00">wavpackfile.h</text>
</a>
</g>
</g>
<!-- Node1&#45;&gt;Node24 -->
<g id="edge27" class="edge">
<title>Node1&#45;&gt;Node24</title>
<path fill="none" stroke="midnightblue" d="M529.44,-119.44C610.3,-115.13 834.46,-101.64 1019.5,-76 1022.22,-75.62 1025.01,-75.19 1027.82,-74.73"/>
<polygon fill="midnightblue" stroke="midnightblue" points="529.24,-115.95 519.43,-119.97 529.6,-122.94 529.24,-115.95"/>
</g>
<!-- Node8&#45;&gt;Node6 -->
<g id="edge8" class="edge">
<title>Node8&#45;&gt;Node6</title>
<path fill="none" stroke="midnightblue" d="M367.2,-51.73C347.39,-41.73 320.79,-28.31 303.65,-19.65"/>
<polygon fill="midnightblue" stroke="midnightblue" points="365.8,-54.94 376.31,-56.32 368.96,-48.69 365.8,-54.94"/>
</g>
<!-- Node8&#45;&gt;Node7 -->
<g id="edge9" class="edge">
<title>Node8&#45;&gt;Node7</title>
<path fill="none" stroke="midnightblue" d="M381.12,-47.86C374.36,-38.5 366.29,-27.33 360.82,-19.75"/>
<polygon fill="midnightblue" stroke="midnightblue" points="378.37,-50.03 387.06,-56.08 384.04,-45.93 378.37,-50.03"/>
</g>
<!-- Node8&#45;&gt;Node9 -->
<g id="edge10" class="edge">
<title>Node8&#45;&gt;Node9</title>
<path fill="none" stroke="midnightblue" d="M404.8,-47.57C410.82,-38.27 417.97,-27.25 422.83,-19.75"/>
<polygon fill="midnightblue" stroke="midnightblue" points="401.78,-45.79 399.28,-56.08 407.66,-49.6 401.78,-45.79"/>
</g>
<!-- Node8&#45;&gt;Node10 -->
<g id="edge11" class="edge">
<title>Node8&#45;&gt;Node10</title>
<path fill="none" stroke="midnightblue" d="M419.8,-51.73C439.61,-41.73 466.21,-28.31 483.35,-19.65"/>
<polygon fill="midnightblue" stroke="midnightblue" points="418.04,-48.69 410.69,-56.32 421.2,-54.94 418.04,-48.69"/>
</g>
<!-- Node12&#45;&gt;Node11 -->
<g id="edge14" class="edge">
<title>Node12&#45;&gt;Node11</title>
<path fill="none" stroke="midnightblue" d="M563.3,-46.69C567.18,-37.59 571.68,-27.01 574.77,-19.75"/>
<polygon fill="midnightblue" stroke="midnightblue" points="560,-45.51 559.3,-56.08 566.44,-48.25 560,-45.51"/>
</g>
<!-- Node16 -->
<g id="node16" class="node">
<title>Node16</title>
<g id="a_node16"><a xlink:href="oggflacfile_8h.html" target="_top" xlink:title=" ">
<polygon fill="white" stroke="black" points="870,-0.5 870,-19.5 939,-19.5 939,-0.5 870,-0.5"/>
<text text-anchor="middle" x="904.5" y="-7.5" font-family="Helvetica,sans-Serif" font-size="10.00">oggflacfile.h</text>
</a>
</g>
</g>
<!-- Node15&#45;&gt;Node16 -->
<g id="edge18" class="edge">
<title>Node15&#45;&gt;Node16</title>
<path fill="none" stroke="midnightblue" d="M843.6,-50.62C858.76,-40.76 878.38,-27.99 891.2,-19.65"/>
<polygon fill="midnightblue" stroke="midnightblue" points="841.31,-47.94 834.84,-56.32 845.13,-53.8 841.31,-47.94"/>
</g>
<!-- Node17 -->
<g id="node17" class="node">
<title>Node17</title>
<g id="a_node17"><a xlink:href="opusfile_8h.html" target="_top" xlink:title=" ">
<polygon fill="white" stroke="black" points="628,-0.5 628,-19.5 687,-19.5 687,-0.5 628,-0.5"/>
<text text-anchor="middle" x="657.5" y="-7.5" font-family="Helvetica,sans-Serif" font-size="10.00">opusfile.h</text>
</a>
</g>
</g>
<!-- Node15&#45;&gt;Node17 -->
<g id="edge19" class="edge">
<title>Node15&#45;&gt;Node17</title>
<path fill="none" stroke="midnightblue" d="M785.98,-53.3C755.08,-43.13 711.03,-28.62 683.36,-19.52"/>
<polygon fill="midnightblue" stroke="midnightblue" points="784.92,-56.64 795.51,-56.44 787.11,-49.99 784.92,-56.64"/>
</g>
<!-- Node18 -->
<g id="node18" class="node">
<title>Node18</title>
<g id="a_node18"><a xlink:href="speexfile_8h.html" target="_top" xlink:title=" ">
<polygon fill="white" stroke="black" points="705.5,-0.5 705.5,-19.5 769.5,-19.5 769.5,-0.5 705.5,-0.5"/>
<text text-anchor="middle" x="737.5" y="-7.5" font-family="Helvetica,sans-Serif" font-size="10.00">speexfile.h</text>
</a>
</g>
</g>
<!-- Node15&#45;&gt;Node18 -->
<g id="edge20" class="edge">
<title>Node15&#45;&gt;Node18</title>
<path fill="none" stroke="midnightblue" d="M799.57,-50.9C784.16,-41 764.05,-28.07 750.96,-19.65"/>
<polygon fill="midnightblue" stroke="midnightblue" points="797.7,-53.86 808,-56.32 801.48,-47.97 797.7,-53.86"/>
</g>
<!-- Node19 -->
<g id="node19" class="node">
<title>Node19</title>
<g id="a_node19"><a xlink:href="vorbisfile_8h.html" target="_top" xlink:title=" ">
<polygon fill="white" stroke="black" points="787.5,-0.5 787.5,-19.5 851.5,-19.5 851.5,-0.5 787.5,-0.5"/>
<text text-anchor="middle" x="819.5" y="-7.5" font-family="Helvetica,sans-Serif" font-size="10.00">vorbisfile.h</text>
</a>
</g>
</g>
<!-- Node15&#45;&gt;Node19 -->
<g id="edge21" class="edge">
<title>Node15&#45;&gt;Node19</title>
<path fill="none" stroke="midnightblue" d="M820.79,-45.8C820.46,-36.91 820.08,-26.78 819.82,-19.75"/>
<polygon fill="midnightblue" stroke="midnightblue" points="817.3,-46.22 821.17,-56.08 824.3,-45.96 817.3,-46.22"/>
</g>
<!-- Node21 -->
<g id="node21" class="node">
<title>Node21</title>
<g id="a_node21"><a xlink:href="aifffile_8h.html" target="_top" xlink:title=" ">
<polygon fill="white" stroke="black" points="1032,-0.5 1032,-19.5 1083,-19.5 1083,-0.5 1032,-0.5"/>
<text text-anchor="middle" x="1057.5" y="-7.5" font-family="Helvetica,sans-Serif" font-size="10.00">aifffile.h</text>
</a>
</g>
</g>
<!-- Node20&#45;&gt;Node21 -->
<g id="edge23" class="edge">
<title>Node20&#45;&gt;Node21</title>
<path fill="none" stroke="midnightblue" d="M924.91,-53.87C956.73,-43.58 1003.3,-28.53 1031.93,-19.27"/>
<polygon fill="midnightblue" stroke="midnightblue" points="923.58,-50.63 915.14,-57.03 925.73,-57.29 923.58,-50.63"/>
</g>
<!-- Node22 -->
<g id="node22" class="node">
<title>Node22</title>
<g id="a_node22"><a xlink:href="wavfile_8h.html" target="_top" xlink:title=" ">
<polygon fill="white" stroke="black" points="957.5,-0.5 957.5,-19.5 1013.5,-19.5 1013.5,-0.5 957.5,-0.5"/>
<text text-anchor="middle" x="985.5" y="-7.5" font-family="Helvetica,sans-Serif" font-size="10.00">wavfile.h</text>
</a>
</g>
</g>
<!-- Node20&#45;&gt;Node22 -->
<g id="edge24" class="edge">
<title>Node20&#45;&gt;Node22</title>
<path fill="none" stroke="midnightblue" d="M914.82,-51.18C932.3,-41.24 955.33,-28.15 970.27,-19.65"/>
<polygon fill="midnightblue" stroke="midnightblue" points="912.73,-48.34 905.76,-56.32 916.19,-54.43 912.73,-48.34"/>
</g>
</g>
</svg>
