<?xml version="1.0" encoding="UTF-8" standalone="no"?>
<!DOCTYPE svg PUBLIC "-//W3C//DTD SVG 1.1//EN"
 "http://www.w3.org/Graphics/SVG/1.1/DTD/svg11.dtd">
<!-- Generated by graphviz version 2.42.4 (0)
 -->
<!-- Title: tfile.h Pages: 1 -->
<svg width="840pt" height="247pt"
 viewBox="0.00 0.00 840.13 247.00" xmlns="http://www.w3.org/2000/svg" xmlns:xlink="http://www.w3.org/1999/xlink">
<g id="graph0" class="graph" transform="scale(1 1) rotate(0) translate(4 243)">
<title>tfile.h</title>
<!-- Node1 -->
<g id="Node000001" class="node">
<title>Node1</title>
<g id="a_Node000001"><a xlink:title=" ">
<polygon fill="#999999" stroke="#666666" points="147.63,-239 103.63,-239 103.63,-220 147.63,-220 147.63,-239"/>
<text text-anchor="middle" x="125.63" y="-227" font-family="Helvetica,sans-Serif" font-size="10.00">tfile.h</text>
</a>
</g>
</g>
<!-- Node2 -->
<g id="Node000002" class="node">
<title>Node2</title>
<g id="a_Node000002"><a xlink:href="tbytevector_8h.html" target="_top" xlink:title=" ">
<polygon fill="white" stroke="#666666" points="368.13,-74 287.13,-74 287.13,-55 368.13,-55 368.13,-74"/>
<text text-anchor="middle" x="327.63" y="-62" font-family="Helvetica,sans-Serif" font-size="10.00">tbytevector.h</text>
</a>
</g>
</g>
<!-- Node1&#45;&gt;Node2 -->
<g id="edge1_Node000001_Node000002" class="edge">
<title>Node1&#45;&gt;Node2</title>
<g id="a_edge1_Node000001_Node000002"><a xlink:title=" ">
<path fill="none" stroke="#63b8ff" d="M147.7,-220.22C182.7,-206.14 251.4,-174.58 294.63,-129 306.91,-116.05 315.8,-97.65 321.24,-83.99"/>
<polygon fill="#63b8ff" stroke="#63b8ff" points="324.66,-84.83 324.86,-74.24 318.09,-82.39 324.66,-84.83"/>
</a>
</g>
</g>
<!-- Node6 -->
<g id="Node000006" class="node">
<title>Node6</title>
<g id="a_Node000006"><a xlink:href="taglib__export_8h.html" target="_top" xlink:title=" ">
<polygon fill="white" stroke="#666666" points="203.63,-19 113.63,-19 113.63,0 203.63,0 203.63,-19"/>
<text text-anchor="middle" x="158.63" y="-7" font-family="Helvetica,sans-Serif" font-size="10.00">taglib_export.h</text>
</a>
</g>
</g>
<!-- Node1&#45;&gt;Node6 -->
<g id="edge11_Node000001_Node000006" class="edge">
<title>Node1&#45;&gt;Node6</title>
<g id="a_edge11_Node000001_Node000006"><a xlink:title=" ">
<path fill="none" stroke="#63b8ff" d="M112.1,-219.96C73.14,-194.33 -33.69,-116.07 11.63,-55 32.57,-26.79 70.88,-15.83 103.15,-11.84"/>
<polygon fill="#63b8ff" stroke="#63b8ff" points="103.8,-15.29 113.38,-10.77 103.08,-8.33 103.8,-15.29"/>
</a>
</g>
</g>
<!-- Node7 -->
<g id="Node000007" class="node">
<title>Node7</title>
<g id="a_Node000007"><a xlink:href="tiostream_8h.html" target="_top" xlink:title=" ">
<polygon fill="white" stroke="#666666" points="162.13,-184 89.13,-184 89.13,-165 162.13,-165 162.13,-184"/>
<text text-anchor="middle" x="125.63" y="-172" font-family="Helvetica,sans-Serif" font-size="10.00">tiostream.h</text>
</a>
</g>
</g>
<!-- Node1&#45;&gt;Node7 -->
<g id="edge6_Node000001_Node000007" class="edge">
<title>Node1&#45;&gt;Node7</title>
<g id="a_edge6_Node000001_Node000007"><a xlink:title=" ">
<path fill="none" stroke="#63b8ff" d="M125.63,-219.75C125.63,-212.8 125.63,-202.85 125.63,-194.13"/>
<polygon fill="#63b8ff" stroke="#63b8ff" points="129.13,-194.09 125.63,-184.09 122.13,-194.09 129.13,-194.09"/>
</a>
</g>
</g>
<!-- Node8 -->
<g id="Node000008" class="node">
<title>Node8</title>
<g id="a_Node000008"><a xlink:href="taglib_8h.html" target="_top" xlink:title=" ">
<polygon fill="white" stroke="#666666" points="87.13,-129 34.13,-129 34.13,-110 87.13,-110 87.13,-129"/>
<text text-anchor="middle" x="60.63" y="-117" font-family="Helvetica,sans-Serif" font-size="10.00">taglib.h</text>
</a>
</g>
</g>
<!-- Node1&#45;&gt;Node8 -->
<g id="edge12_Node000001_Node000008" class="edge">
<title>Node1&#45;&gt;Node8</title>
<g id="a_edge12_Node000001_Node000008"><a xlink:title=" ">
<path fill="none" stroke="#63b8ff" d="M113.78,-219.9C103.36,-211.75 88.52,-198.62 79.63,-184 71.22,-170.17 66.32,-152.38 63.61,-139.14"/>
<polygon fill="#63b8ff" stroke="#63b8ff" points="67.05,-138.5 61.82,-129.29 60.16,-139.75 67.05,-138.5"/>
</a>
</g>
</g>
<!-- Node10 -->
<g id="Node000010" class="node">
<title>Node10</title>
<g id="a_Node000010"><a xlink:href="tag_8h.html" target="_top" xlink:title=" ">
<polygon fill="white" stroke="#666666" points="397.13,-184 356.13,-184 356.13,-165 397.13,-165 397.13,-184"/>
<text text-anchor="middle" x="376.63" y="-172" font-family="Helvetica,sans-Serif" font-size="10.00">tag.h</text>
</a>
</g>
</g>
<!-- Node1&#45;&gt;Node10 -->
<g id="edge13_Node000001_Node000010" class="edge">
<title>Node1&#45;&gt;Node10</title>
<g id="a_edge13_Node000001_Node000010"><a xlink:title=" ">
<path fill="none" stroke="#63b8ff" d="M147.76,-224.21C186.94,-216.55 271.02,-199.84 341.63,-184 343.08,-183.67 344.56,-183.34 346.06,-182.99"/>
<polygon fill="#63b8ff" stroke="#63b8ff" points="347.01,-186.36 355.93,-180.65 345.4,-179.55 347.01,-186.36"/>
</a>
</g>
</g>
<!-- Node3 -->
<g id="Node000003" class="node">
<title>Node3</title>
<g id="a_Node000003"><a xlink:title=" ">
<polygon fill="#e0e0e0" stroke="#999999" points="489.63,-19 431.63,-19 431.63,0 489.63,0 489.63,-19"/>
<text text-anchor="middle" x="460.63" y="-7" font-family="Helvetica,sans-Serif" font-size="10.00">memory</text>
</a>
</g>
</g>
<!-- Node2&#45;&gt;Node3 -->
<g id="edge2_Node000002_Node000003" class="edge">
<title>Node2&#45;&gt;Node3</title>
<g id="a_edge2_Node000002_Node000003"><a xlink:title=" ">
<path fill="none" stroke="#63b8ff" d="M349,-54.98C370.78,-46.3 404.79,-32.75 429.55,-22.88"/>
<polygon fill="#63b8ff" stroke="#63b8ff" points="430.88,-26.12 438.87,-19.17 428.29,-19.62 430.88,-26.12"/>
</a>
</g>
</g>
<!-- Node4 -->
<g id="Node000004" class="node">
<title>Node4</title>
<g id="a_Node000004"><a xlink:title=" ">
<polygon fill="#e0e0e0" stroke="#999999" points="269.13,-19 222.13,-19 222.13,0 269.13,0 269.13,-19"/>
<text text-anchor="middle" x="245.63" y="-7" font-family="Helvetica,sans-Serif" font-size="10.00">vector</text>
</a>
</g>
</g>
<!-- Node2&#45;&gt;Node4 -->
<g id="edge3_Node000002_Node000004" class="edge">
<title>Node2&#45;&gt;Node4</title>
<g id="a_edge3_Node000002_Node000004"><a xlink:title=" ">
<path fill="none" stroke="#63b8ff" d="M314.46,-54.98C301.86,-46.84 282.63,-34.41 267.69,-24.76"/>
<polygon fill="#63b8ff" stroke="#63b8ff" points="269.35,-21.66 259.05,-19.17 265.55,-27.54 269.35,-21.66"/>
</a>
</g>
</g>
<!-- Node5 -->
<g id="Node000005" class="node">
<title>Node5</title>
<g id="a_Node000005"><a xlink:title=" ">
<polygon fill="#e0e0e0" stroke="#999999" points="335.63,-19 287.63,-19 287.63,0 335.63,0 335.63,-19"/>
<text text-anchor="middle" x="311.63" y="-7" font-family="Helvetica,sans-Serif" font-size="10.00">iosfwd</text>
</a>
</g>
</g>
<!-- Node2&#45;&gt;Node5 -->
<g id="edge4_Node000002_Node000005" class="edge">
<title>Node2&#45;&gt;Node5</title>
<g id="a_edge4_Node000002_Node000005"><a xlink:title=" ">
<path fill="none" stroke="#63b8ff" d="M324.99,-54.75C322.87,-47.72 319.82,-37.62 317.17,-28.84"/>
<polygon fill="#63b8ff" stroke="#63b8ff" points="320.47,-27.65 314.23,-19.09 313.76,-29.67 320.47,-27.65"/>
</a>
</g>
</g>
<!-- Node2&#45;&gt;Node6 -->
<g id="edge5_Node000002_Node000006" class="edge">
<title>Node2&#45;&gt;Node6</title>
<g id="a_edge5_Node000002_Node000006"><a xlink:title=" ">
<path fill="none" stroke="#63b8ff" d="M300.48,-54.98C272.11,-46.09 227.4,-32.07 195.77,-22.15"/>
<polygon fill="#63b8ff" stroke="#63b8ff" points="196.59,-18.73 186,-19.08 194.49,-25.41 196.59,-18.73"/>
</a>
</g>
</g>
<!-- Node7&#45;&gt;Node2 -->
<g id="edge7_Node000007_Node000002" class="edge">
<title>Node7&#45;&gt;Node2</title>
<g id="a_edge7_Node000007_Node000002"><a xlink:title=" ">
<path fill="none" stroke="#63b8ff" d="M162.2,-167.93C192.99,-161.97 237.24,-150.34 270.63,-129 289.48,-116.96 305.91,-97.04 316.23,-82.72"/>
<polygon fill="#63b8ff" stroke="#63b8ff" points="319.28,-84.47 322.09,-74.26 313.52,-80.49 319.28,-84.47"/>
</a>
</g>
</g>
<!-- Node7&#45;&gt;Node6 -->
<g id="edge8_Node000007_Node000006" class="edge">
<title>Node7&#45;&gt;Node6</title>
<g id="a_edge8_Node000007_Node000006"><a xlink:title=" ">
<path fill="none" stroke="#63b8ff" d="M126.59,-164.79C128.85,-145.07 135.06,-95.56 144.63,-55 146.68,-46.33 149.55,-36.89 152.16,-28.95"/>
<polygon fill="#63b8ff" stroke="#63b8ff" points="155.55,-29.85 155.46,-19.26 148.93,-27.6 155.55,-29.85"/>
</a>
</g>
</g>
<!-- Node7&#45;&gt;Node8 -->
<g id="edge9_Node000007_Node000008" class="edge">
<title>Node7&#45;&gt;Node8</title>
<g id="a_edge9_Node000007_Node000008"><a xlink:title=" ">
<path fill="none" stroke="#63b8ff" d="M115.19,-164.98C105.49,-157.07 90.82,-145.11 79.13,-135.58"/>
<polygon fill="#63b8ff" stroke="#63b8ff" points="81.23,-132.78 71.27,-129.17 76.8,-138.2 81.23,-132.78"/>
</a>
</g>
</g>
<!-- Node9 -->
<g id="Node000009" class="node">
<title>Node9</title>
<g id="a_Node000009"><a xlink:title=" ">
<polygon fill="#e0e0e0" stroke="#999999" points="92.63,-74 20.63,-74 20.63,-55 92.63,-55 92.63,-74"/>
<text text-anchor="middle" x="56.63" y="-62" font-family="Helvetica,sans-Serif" font-size="10.00">sys/types.h</text>
</a>
</g>
</g>
<!-- Node8&#45;&gt;Node9 -->
<g id="edge10_Node000008_Node000009" class="edge">
<title>Node8&#45;&gt;Node9</title>
<g id="a_edge10_Node000008_Node000009"><a xlink:title=" ">
<path fill="none" stroke="#63b8ff" d="M59.97,-109.75C59.45,-102.8 58.7,-92.85 58.04,-84.13"/>
<polygon fill="#63b8ff" stroke="#63b8ff" points="61.52,-83.8 57.28,-74.09 54.54,-84.32 61.52,-83.8"/>
</a>
</g>
</g>
<!-- Node10&#45;&gt;Node6 -->
<g id="edge14_Node000010_Node000006" class="edge">
<title>Node10&#45;&gt;Node6</title>
<g id="a_edge14_Node000010_Node000006"><a xlink:title=" ">
<path fill="none" stroke="#63b8ff" d="M355.92,-170.98C313.52,-165.42 218.85,-150.83 195.63,-129 167.59,-102.64 160.67,-55.39 159.04,-29.23"/>
<polygon fill="#63b8ff" stroke="#63b8ff" points="162.54,-28.98 158.62,-19.13 155.54,-29.27 162.54,-28.98"/>
</a>
</g>
</g>
<!-- Node11 -->
<g id="Node000011" class="node">
<title>Node11</title>
<g id="a_Node000011"><a xlink:href="tstring_8h.html" target="_top" xlink:title=" ">
<polygon fill="white" stroke="#666666" points="261.13,-129 204.13,-129 204.13,-110 261.13,-110 261.13,-129"/>
<text text-anchor="middle" x="232.63" y="-117" font-family="Helvetica,sans-Serif" font-size="10.00">tstring.h</text>
</a>
</g>
</g>
<!-- Node10&#45;&gt;Node11 -->
<g id="edge15_Node000010_Node000011" class="edge">
<title>Node10&#45;&gt;Node11</title>
<g id="a_edge15_Node000010_Node000011"><a xlink:title=" ">
<path fill="none" stroke="#63b8ff" d="M356,-165.91C332.45,-157.24 293.6,-142.94 265.79,-132.7"/>
<polygon fill="#63b8ff" stroke="#63b8ff" points="266.69,-129.3 256.09,-129.14 264.27,-135.87 266.69,-129.3"/>
</a>
</g>
</g>
<!-- Node13 -->
<g id="Node000013" class="node">
<title>Node13</title>
<g id="a_Node000013"><a xlink:href="tlist_8h.html" target="_top" xlink:title=" ">
<polygon fill="white" stroke="#666666" points="652.63,-74 608.63,-74 608.63,-55 652.63,-55 652.63,-74"/>
<text text-anchor="middle" x="630.63" y="-62" font-family="Helvetica,sans-Serif" font-size="10.00">tlist.h</text>
</a>
</g>
</g>
<!-- Node10&#45;&gt;Node13 -->
<g id="edge19_Node000010_Node000013" class="edge">
<title>Node10&#45;&gt;Node13</title>
<g id="a_edge19_Node000010_Node000013"><a xlink:title=" ">
<path fill="none" stroke="#63b8ff" d="M396.99,-164.84C441.78,-145.8 549.03,-100.2 601.17,-78.03"/>
<polygon fill="#63b8ff" stroke="#63b8ff" points="602.7,-81.18 610.53,-74.05 599.96,-74.74 602.7,-81.18"/>
</a>
</g>
</g>
<!-- Node17 -->
<g id="Node000017" class="node">
<title>Node17</title>
<g id="a_Node000017"><a xlink:href="tvariant_8h.html" target="_top" xlink:title=" ">
<polygon fill="white" stroke="#666666" points="466.63,-129 402.63,-129 402.63,-110 466.63,-110 466.63,-129"/>
<text text-anchor="middle" x="434.63" y="-117" font-family="Helvetica,sans-Serif" font-size="10.00">tvariant.h</text>
</a>
</g>
</g>
<!-- Node10&#45;&gt;Node17 -->
<g id="edge24_Node000010_Node000017" class="edge">
<title>Node10&#45;&gt;Node17</title>
<g id="a_edge24_Node000010_Node000017"><a xlink:title=" ">
<path fill="none" stroke="#63b8ff" d="M385.95,-164.98C394.44,-157.23 407.19,-145.58 417.51,-136.14"/>
<polygon fill="#63b8ff" stroke="#63b8ff" points="420.12,-138.5 425.14,-129.17 415.4,-133.33 420.12,-138.5"/>
</a>
</g>
</g>
<!-- Node11&#45;&gt;Node2 -->
<g id="edge17_Node000011_Node000002" class="edge">
<title>Node11&#45;&gt;Node2</title>
<g id="a_edge17_Node000011_Node000002"><a xlink:title=" ">
<path fill="none" stroke="#63b8ff" d="M247.9,-109.98C262.77,-101.69 285.61,-88.94 303.05,-79.22"/>
<polygon fill="#63b8ff" stroke="#63b8ff" points="305.06,-82.1 312.09,-74.17 301.65,-75.99 305.06,-82.1"/>
</a>
</g>
</g>
<!-- Node11&#45;&gt;Node6 -->
<g id="edge18_Node000011_Node000006" class="edge">
<title>Node11&#45;&gt;Node6</title>
<g id="a_edge18_Node000011_Node000006"><a xlink:title=" ">
<path fill="none" stroke="#63b8ff" d="M226.58,-109.66C214.32,-91.77 186.39,-51 170.41,-27.69"/>
<polygon fill="#63b8ff" stroke="#63b8ff" points="173.1,-25.43 164.57,-19.16 167.33,-29.39 173.1,-25.43"/>
</a>
</g>
</g>
<!-- Node12 -->
<g id="Node000012" class="node">
<title>Node12</title>
<g id="a_Node000012"><a xlink:title=" ">
<polygon fill="#e0e0e0" stroke="#999999" points="268.63,-74 224.63,-74 224.63,-55 268.63,-55 268.63,-74"/>
<text text-anchor="middle" x="246.63" y="-62" font-family="Helvetica,sans-Serif" font-size="10.00">string</text>
</a>
</g>
</g>
<!-- Node11&#45;&gt;Node12 -->
<g id="edge16_Node000011_Node000012" class="edge">
<title>Node11&#45;&gt;Node12</title>
<g id="a_edge16_Node000011_Node000012"><a xlink:title=" ">
<path fill="none" stroke="#63b8ff" d="M234.94,-109.75C236.8,-102.72 239.47,-92.62 241.79,-83.84"/>
<polygon fill="#63b8ff" stroke="#63b8ff" points="245.19,-84.65 244.36,-74.09 238.43,-82.86 245.19,-84.65"/>
</a>
</g>
</g>
<!-- Node13&#45;&gt;Node3 -->
<g id="edge22_Node000013_Node000003" class="edge">
<title>Node13&#45;&gt;Node3</title>
<g id="a_edge22_Node000013_Node000003"><a xlink:title=" ">
<path fill="none" stroke="#63b8ff" d="M608.41,-56.57C580.35,-47.82 531.67,-32.65 497.89,-22.12"/>
<polygon fill="#63b8ff" stroke="#63b8ff" points="498.51,-18.64 487.92,-19.01 496.43,-25.33 498.51,-18.64"/>
</a>
</g>
</g>
<!-- Node14 -->
<g id="Node000014" class="node">
<title>Node14</title>
<g id="a_Node000014"><a xlink:title=" ">
<polygon fill="#e0e0e0" stroke="#999999" points="760.63,-19 728.63,-19 728.63,0 760.63,0 760.63,-19"/>
<text text-anchor="middle" x="744.63" y="-7" font-family="Helvetica,sans-Serif" font-size="10.00">list</text>
</a>
</g>
</g>
<!-- Node13&#45;&gt;Node14 -->
<g id="edge20_Node000013_Node000014" class="edge">
<title>Node13&#45;&gt;Node14</title>
<g id="a_edge20_Node000013_Node000014"><a xlink:title=" ">
<path fill="none" stroke="#63b8ff" d="M648.95,-54.98C668.05,-46.1 698.13,-32.12 719.46,-22.2"/>
<polygon fill="#63b8ff" stroke="#63b8ff" points="720.98,-25.36 728.57,-17.97 718.03,-19.01 720.98,-25.36"/>
</a>
</g>
</g>
<!-- Node15 -->
<g id="Node000015" class="node">
<title>Node15</title>
<g id="a_Node000015"><a xlink:title=" ">
<polygon fill="#e0e0e0" stroke="#999999" points="710.13,-19 627.13,-19 627.13,0 710.13,0 710.13,-19"/>
<text text-anchor="middle" x="668.63" y="-7" font-family="Helvetica,sans-Serif" font-size="10.00">initializer_list</text>
</a>
</g>
</g>
<!-- Node13&#45;&gt;Node15 -->
<g id="edge21_Node000013_Node000015" class="edge">
<title>Node13&#45;&gt;Node15</title>
<g id="a_edge21_Node000013_Node000015"><a xlink:title=" ">
<path fill="none" stroke="#63b8ff" d="M636.91,-54.75C642.22,-47.34 649.99,-36.5 656.51,-27.41"/>
<polygon fill="#63b8ff" stroke="#63b8ff" points="659.49,-29.26 662.47,-19.09 653.8,-25.18 659.49,-29.26"/>
</a>
</g>
</g>
<!-- Node16 -->
<g id="Node000016" class="node">
<title>Node16</title>
<g id="a_Node000016"><a xlink:title=" ">
<polygon fill="#e0e0e0" stroke="#999999" points="832.13,-19 779.13,-19 779.13,0 832.13,0 832.13,-19"/>
<text text-anchor="middle" x="805.63" y="-7" font-family="Helvetica,sans-Serif" font-size="10.00">tlist.tcc</text>
</a>
</g>
</g>
<!-- Node13&#45;&gt;Node16 -->
<g id="edge23_Node000013_Node000016" class="edge">
<title>Node13&#45;&gt;Node16</title>
<g id="a_edge23_Node000013_Node000016"><a xlink:title=" ">
<path fill="none" stroke="#63b8ff" d="M652.8,-56.79C682.09,-47.91 734.1,-32.16 769.21,-21.53"/>
<polygon fill="#63b8ff" stroke="#63b8ff" points="770.52,-24.79 779.08,-18.54 768.5,-18.09 770.52,-24.79"/>
</a>
</g>
</g>
<!-- Node17&#45;&gt;Node5 -->
<g id="edge25_Node000017_Node000005" class="edge">
<title>Node17&#45;&gt;Node5</title>
<g id="a_edge25_Node000017_Node000005"><a xlink:title=" ">
<path fill="none" stroke="#63b8ff" d="M433.46,-109.57C431.26,-96.13 425.33,-70.62 410.63,-55 401.17,-44.94 370.1,-31.82 345.26,-22.43"/>
<polygon fill="#63b8ff" stroke="#63b8ff" points="346.36,-19.11 335.76,-18.91 343.92,-25.67 346.36,-19.11"/>
</a>
</g>
</g>
<!-- Node17&#45;&gt;Node6 -->
<g id="edge33_Node000017_Node000006" class="edge">
<title>Node17&#45;&gt;Node6</title>
<g id="a_edge33_Node000017_Node000006"><a xlink:title=" ">
<path fill="none" stroke="#63b8ff" d="M429.54,-109.92C420.8,-96.01 401.55,-68.69 377.63,-55 363.53,-46.93 274.07,-30.36 213.94,-19.87"/>
<polygon fill="#63b8ff" stroke="#63b8ff" points="214.27,-16.38 203.82,-18.12 213.07,-23.28 214.27,-16.38"/>
</a>
</g>
</g>
<!-- Node17&#45;&gt;Node13 -->
<g id="edge26_Node000017_Node000013" class="edge">
<title>Node17&#45;&gt;Node13</title>
<g id="a_edge26_Node000017_Node000013"><a xlink:title=" ">
<path fill="none" stroke="#63b8ff" d="M466.12,-109.98C502.52,-100.14 562.1,-84.03 598.69,-74.14"/>
<polygon fill="#63b8ff" stroke="#63b8ff" points="599.62,-77.51 608.36,-71.52 597.8,-70.75 599.62,-77.51"/>
</a>
</g>
</g>
<!-- Node18 -->
<g id="Node000018" class="node">
<title>Node18</title>
<g id="a_Node000018"><a xlink:href="tmap_8h.html" target="_top" xlink:title=" ">
<polygon fill="white" stroke="#666666" points="533.13,-74 482.13,-74 482.13,-55 533.13,-55 533.13,-74"/>
<text text-anchor="middle" x="507.63" y="-62" font-family="Helvetica,sans-Serif" font-size="10.00">tmap.h</text>
</a>
</g>
</g>
<!-- Node17&#45;&gt;Node18 -->
<g id="edge27_Node000017_Node000018" class="edge">
<title>Node17&#45;&gt;Node18</title>
<g id="a_edge27_Node000017_Node000018"><a xlink:title=" ">
<path fill="none" stroke="#63b8ff" d="M446.36,-109.98C457.36,-102 474.05,-89.88 487.24,-80.31"/>
<polygon fill="#63b8ff" stroke="#63b8ff" points="489.65,-82.88 495.69,-74.17 485.54,-77.21 489.65,-82.88"/>
</a>
</g>
</g>
<!-- Node18&#45;&gt;Node3 -->
<g id="edge29_Node000018_Node000003" class="edge">
<title>Node18&#45;&gt;Node3</title>
<g id="a_edge29_Node000018_Node000003"><a xlink:title=" ">
<path fill="none" stroke="#63b8ff" d="M499.87,-54.75C493.16,-47.18 483.29,-36.05 475.13,-26.84"/>
<polygon fill="#63b8ff" stroke="#63b8ff" points="477.5,-24.25 468.25,-19.09 472.27,-28.89 477.5,-24.25"/>
</a>
</g>
</g>
<!-- Node18&#45;&gt;Node15 -->
<g id="edge30_Node000018_Node000015" class="edge">
<title>Node18&#45;&gt;Node15</title>
<g id="a_edge30_Node000018_Node000015"><a xlink:title=" ">
<path fill="none" stroke="#63b8ff" d="M533.14,-55.1C560.07,-46.24 602.72,-32.2 632.97,-22.24"/>
<polygon fill="#63b8ff" stroke="#63b8ff" points="634.3,-25.49 642.71,-19.03 632.11,-18.84 634.3,-25.49"/>
</a>
</g>
</g>
<!-- Node19 -->
<g id="Node000019" class="node">
<title>Node19</title>
<g id="a_Node000019"><a xlink:title=" ">
<polygon fill="#e0e0e0" stroke="#999999" points="545.63,-19 507.63,-19 507.63,0 545.63,0 545.63,-19"/>
<text text-anchor="middle" x="526.63" y="-7" font-family="Helvetica,sans-Serif" font-size="10.00">map</text>
</a>
</g>
</g>
<!-- Node18&#45;&gt;Node19 -->
<g id="edge28_Node000018_Node000019" class="edge">
<title>Node18&#45;&gt;Node19</title>
<g id="a_edge28_Node000018_Node000019"><a xlink:title=" ">
<path fill="none" stroke="#63b8ff" d="M510.77,-54.75C513.32,-47.65 516.99,-37.4 520.16,-28.56"/>
<polygon fill="#63b8ff" stroke="#63b8ff" points="523.47,-29.68 523.55,-19.09 516.88,-27.32 523.47,-29.68"/>
</a>
</g>
</g>
<!-- Node20 -->
<g id="Node000020" class="node">
<title>Node20</title>
<g id="a_Node000020"><a xlink:title=" ">
<polygon fill="#e0e0e0" stroke="#999999" points="609.13,-19 564.13,-19 564.13,0 609.13,0 609.13,-19"/>
<text text-anchor="middle" x="586.63" y="-7" font-family="Helvetica,sans-Serif" font-size="10.00">utility</text>
</a>
</g>
</g>
<!-- Node18&#45;&gt;Node20 -->
<g id="edge31_Node000018_Node000020" class="edge">
<title>Node18&#45;&gt;Node20</title>
<g id="a_edge31_Node000018_Node000020"><a xlink:title=" ">
<path fill="none" stroke="#63b8ff" d="M520.33,-54.98C532.46,-46.84 550.99,-34.41 565.38,-24.76"/>
<polygon fill="#63b8ff" stroke="#63b8ff" points="567.35,-27.65 573.71,-19.17 563.45,-21.84 567.35,-27.65"/>
</a>
</g>
</g>
<!-- Node21 -->
<g id="Node000021" class="node">
<title>Node21</title>
<g id="a_Node000021"><a xlink:title=" ">
<polygon fill="#e0e0e0" stroke="#999999" points="413.13,-19 354.13,-19 354.13,0 413.13,0 413.13,-19"/>
<text text-anchor="middle" x="383.63" y="-7" font-family="Helvetica,sans-Serif" font-size="10.00">tmap.tcc</text>
</a>
</g>
</g>
<!-- Node18&#45;&gt;Node21 -->
<g id="edge32_Node000018_Node000021" class="edge">
<title>Node18&#45;&gt;Node21</title>
<g id="a_edge32_Node000018_Node000021"><a xlink:title=" ">
<path fill="none" stroke="#63b8ff" d="M487.71,-54.98C467.58,-46.38 436.25,-32.99 413.22,-23.15"/>
<polygon fill="#63b8ff" stroke="#63b8ff" points="414.49,-19.88 403.92,-19.17 411.74,-26.32 414.49,-19.88"/>
</a>
</g>
</g>
</g>
</svg>
