<?xml version="1.0" encoding="UTF-8" standalone="no"?>
<!DOCTYPE svg PUBLIC "-//W3C//DTD SVG 1.1//EN"
 "http://www.w3.org/Graphics/SVG/1.1/DTD/svg11.dtd">
<!-- Generated by graphviz version 2.43.0 (0)
 -->
<!-- Title: tfile.h Pages: 1 -->
<svg width="840pt" height="252pt"
 viewBox="0.00 0.00 840.34 252.00" xmlns="http://www.w3.org/2000/svg" xmlns:xlink="http://www.w3.org/1999/xlink">
<g id="graph0" class="graph" transform="scale(1 1) rotate(0) translate(4 248)">
<title>tfile.h</title>
<polygon fill="white" stroke="transparent" points="-4,4 -4,-248 836.34,-248 836.34,4 -4,4"/>
<!-- Node1 -->
<g id="node1" class="node">
<title>Node1</title>
<g id="a_node1"><a xlink:title=" ">
<polygon fill="#bfbfbf" stroke="black" points="103.84,-224.5 103.84,-243.5 147.84,-243.5 147.84,-224.5 103.84,-224.5"/>
<text text-anchor="middle" x="125.84" y="-231.5" font-family="Helvetica,sans-Serif" font-size="10.00">tfile.h</text>
</a>
</g>
</g>
<!-- Node2 -->
<g id="node2" class="node">
<title>Node2</title>
<g id="a_node2"><a xlink:href="tbytevector_8h.html" target="_top" xlink:title=" ">
<polygon fill="white" stroke="black" points="287.34,-56.5 287.34,-75.5 368.34,-75.5 368.34,-56.5 287.34,-56.5"/>
<text text-anchor="middle" x="327.84" y="-63.5" font-family="Helvetica,sans-Serif" font-size="10.00">tbytevector.h</text>
</a>
</g>
</g>
<!-- Node1&#45;&gt;Node2 -->
<g id="edge1" class="edge">
<title>Node1&#45;&gt;Node2</title>
<path fill="none" stroke="midnightblue" d="M147.87,-224.76C183.15,-210.62 252.73,-178.64 295.84,-132 308.22,-118.6 316.85,-99.52 322,-85.5"/>
<polygon fill="midnightblue" stroke="midnightblue" points="325.34,-86.53 325.26,-75.94 318.72,-84.27 325.34,-86.53"/>
</g>
<!-- Node6 -->
<g id="node6" class="node">
<title>Node6</title>
<g id="a_node6"><a xlink:href="taglib__export_8h.html" target="_top" xlink:title=" ">
<polygon fill="white" stroke="black" points="113.84,-0.5 113.84,-19.5 203.84,-19.5 203.84,-0.5 113.84,-0.5"/>
<text text-anchor="middle" x="158.84" y="-7.5" font-family="Helvetica,sans-Serif" font-size="10.00">taglib_export.h</text>
</a>
</g>
</g>
<!-- Node1&#45;&gt;Node6 -->
<g id="edge11" class="edge">
<title>Node1&#45;&gt;Node6</title>
<path fill="none" stroke="midnightblue" d="M112.54,-224.45C73.67,-198.42 -34.13,-118.15 11.84,-56 32.75,-27.73 71.07,-16.64 103.34,-12.53"/>
<polygon fill="midnightblue" stroke="midnightblue" points="104.01,-15.98 113.58,-11.43 103.26,-9.02 104.01,-15.98"/>
</g>
<!-- Node7 -->
<g id="node7" class="node">
<title>Node7</title>
<g id="a_node7"><a xlink:href="tiostream_8h.html" target="_top" xlink:title=" ">
<polygon fill="white" stroke="black" points="89.34,-168.5 89.34,-187.5 162.34,-187.5 162.34,-168.5 89.34,-168.5"/>
<text text-anchor="middle" x="125.84" y="-175.5" font-family="Helvetica,sans-Serif" font-size="10.00">tiostream.h</text>
</a>
</g>
</g>
<!-- Node1&#45;&gt;Node7 -->
<g id="edge6" class="edge">
<title>Node1&#45;&gt;Node7</title>
<path fill="none" stroke="midnightblue" d="M125.84,-224.08C125.84,-217.01 125.84,-206.86 125.84,-197.99"/>
<polygon fill="midnightblue" stroke="midnightblue" points="129.34,-197.75 125.84,-187.75 122.34,-197.75 129.34,-197.75"/>
</g>
<!-- Node8 -->
<g id="node8" class="node">
<title>Node8</title>
<g id="a_node8"><a xlink:href="taglib_8h.html" target="_top" xlink:title=" ">
<polygon fill="white" stroke="black" points="34.34,-112.5 34.34,-131.5 87.34,-131.5 87.34,-112.5 34.34,-112.5"/>
<text text-anchor="middle" x="60.84" y="-119.5" font-family="Helvetica,sans-Serif" font-size="10.00">taglib.h</text>
</a>
</g>
</g>
<!-- Node1&#45;&gt;Node8 -->
<g id="edge12" class="edge">
<title>Node1&#45;&gt;Node8</title>
<path fill="none" stroke="midnightblue" d="M113.97,-224.29C103.54,-216.04 88.69,-202.75 79.84,-188 71.24,-173.67 66.33,-155.2 63.67,-141.62"/>
<polygon fill="midnightblue" stroke="midnightblue" points="67.08,-140.81 61.93,-131.55 60.18,-142 67.08,-140.81"/>
</g>
<!-- Node10 -->
<g id="node10" class="node">
<title>Node10</title>
<g id="a_node10"><a xlink:href="tag_8h.html" target="_top" xlink:title=" ">
<polygon fill="white" stroke="black" points="356.34,-168.5 356.34,-187.5 397.34,-187.5 397.34,-168.5 356.34,-168.5"/>
<text text-anchor="middle" x="376.84" y="-175.5" font-family="Helvetica,sans-Serif" font-size="10.00">tag.h</text>
</a>
</g>
</g>
<!-- Node1&#45;&gt;Node10 -->
<g id="edge13" class="edge">
<title>Node1&#45;&gt;Node10</title>
<path fill="none" stroke="midnightblue" d="M147.99,-228.74C187.2,-221.11 271.33,-204.4 341.84,-188 343.29,-187.66 344.78,-187.31 346.27,-186.95"/>
<polygon fill="midnightblue" stroke="midnightblue" points="347.29,-190.3 356.15,-184.49 345.6,-183.51 347.29,-190.3"/>
</g>
<!-- Node3 -->
<g id="node3" class="node">
<title>Node3</title>
<g id="a_node3"><a xlink:title=" ">
<polygon fill="white" stroke="#bfbfbf" points="431.84,-0.5 431.84,-19.5 489.84,-19.5 489.84,-0.5 431.84,-0.5"/>
<text text-anchor="middle" x="460.84" y="-7.5" font-family="Helvetica,sans-Serif" font-size="10.00">memory</text>
</a>
</g>
</g>
<!-- Node2&#45;&gt;Node3 -->
<g id="edge2" class="edge">
<title>Node2&#45;&gt;Node3</title>
<path fill="none" stroke="midnightblue" d="M348.92,-56.44C370.9,-47.52 405.58,-33.44 430.51,-23.32"/>
<polygon fill="midnightblue" stroke="midnightblue" points="431.92,-26.52 439.87,-19.52 429.28,-20.04 431.92,-26.52"/>
</g>
<!-- Node4 -->
<g id="node4" class="node">
<title>Node4</title>
<g id="a_node4"><a xlink:title=" ">
<polygon fill="white" stroke="#bfbfbf" points="222.34,-0.5 222.34,-19.5 269.34,-19.5 269.34,-0.5 222.34,-0.5"/>
<text text-anchor="middle" x="245.84" y="-7.5" font-family="Helvetica,sans-Serif" font-size="10.00">vector</text>
</a>
</g>
</g>
<!-- Node2&#45;&gt;Node4 -->
<g id="edge3" class="edge">
<title>Node2&#45;&gt;Node4</title>
<path fill="none" stroke="midnightblue" d="M314.67,-56.32C302,-47.98 282.61,-35.21 267.64,-25.35"/>
<polygon fill="midnightblue" stroke="midnightblue" points="269.26,-22.23 258.98,-19.65 265.41,-28.08 269.26,-22.23"/>
</g>
<!-- Node5 -->
<g id="node5" class="node">
<title>Node5</title>
<g id="a_node5"><a xlink:title=" ">
<polygon fill="white" stroke="#bfbfbf" points="287.84,-0.5 287.84,-19.5 335.84,-19.5 335.84,-0.5 287.84,-0.5"/>
<text text-anchor="middle" x="311.84" y="-7.5" font-family="Helvetica,sans-Serif" font-size="10.00">iosfwd</text>
</a>
</g>
</g>
<!-- Node2&#45;&gt;Node5 -->
<g id="edge4" class="edge">
<title>Node2&#45;&gt;Node5</title>
<path fill="none" stroke="midnightblue" d="M325.2,-56.08C323.06,-48.85 319.96,-38.41 317.29,-29.4"/>
<polygon fill="midnightblue" stroke="midnightblue" points="320.63,-28.34 314.44,-19.75 313.92,-30.33 320.63,-28.34"/>
</g>
<!-- Node2&#45;&gt;Node6 -->
<g id="edge5" class="edge">
<title>Node2&#45;&gt;Node6</title>
<path fill="none" stroke="midnightblue" d="M301.06,-56.44C272.51,-47.32 227.11,-32.81 195.31,-22.65"/>
<polygon fill="midnightblue" stroke="midnightblue" points="196.09,-19.23 185.5,-19.52 193.96,-25.89 196.09,-19.23"/>
</g>
<!-- Node7&#45;&gt;Node2 -->
<g id="edge7" class="edge">
<title>Node7&#45;&gt;Node2</title>
<path fill="none" stroke="midnightblue" d="M162.47,-171.38C193.31,-165.36 237.57,-153.6 270.84,-132 290.05,-119.53 306.61,-98.83 316.85,-84.15"/>
<polygon fill="midnightblue" stroke="midnightblue" points="319.98,-85.77 322.64,-75.51 314.17,-81.87 319.98,-85.77"/>
</g>
<!-- Node7&#45;&gt;Node6 -->
<g id="edge8" class="edge">
<title>Node7&#45;&gt;Node6</title>
<path fill="none" stroke="midnightblue" d="M126.75,-168.41C128.97,-148.48 135.15,-97.63 144.84,-56 146.93,-47.02 149.89,-37.23 152.55,-29.09"/>
<polygon fill="midnightblue" stroke="midnightblue" points="155.9,-30.12 155.78,-19.52 149.27,-27.88 155.9,-30.12"/>
</g>
<!-- Node7&#45;&gt;Node8 -->
<g id="edge9" class="edge">
<title>Node7&#45;&gt;Node8</title>
<path fill="none" stroke="midnightblue" d="M115.4,-168.32C105.7,-160.26 91.03,-148.08 79.34,-138.37"/>
<polygon fill="midnightblue" stroke="midnightblue" points="81.4,-135.53 71.48,-131.83 76.93,-140.92 81.4,-135.53"/>
</g>
<!-- Node9 -->
<g id="node9" class="node">
<title>Node9</title>
<g id="a_node9"><a xlink:title=" ">
<polygon fill="white" stroke="#bfbfbf" points="20.84,-56.5 20.84,-75.5 92.84,-75.5 92.84,-56.5 20.84,-56.5"/>
<text text-anchor="middle" x="56.84" y="-63.5" font-family="Helvetica,sans-Serif" font-size="10.00">sys/types.h</text>
</a>
</g>
</g>
<!-- Node8&#45;&gt;Node9 -->
<g id="edge10" class="edge">
<title>Node8&#45;&gt;Node9</title>
<path fill="none" stroke="midnightblue" d="M60.18,-112.08C59.66,-105.01 58.91,-94.86 58.25,-85.99"/>
<polygon fill="midnightblue" stroke="midnightblue" points="61.72,-85.47 57.49,-75.75 54.74,-85.98 61.72,-85.47"/>
</g>
<!-- Node10&#45;&gt;Node6 -->
<g id="edge14" class="edge">
<title>Node10&#45;&gt;Node6</title>
<path fill="none" stroke="midnightblue" d="M356.12,-174.43C313.69,-168.76 218.99,-153.95 195.84,-132 167.38,-105.01 160.62,-56.8 159.14,-30.1"/>
<polygon fill="midnightblue" stroke="midnightblue" points="162.62,-29.67 158.77,-19.8 155.63,-29.92 162.62,-29.67"/>
</g>
<!-- Node11 -->
<g id="node11" class="node">
<title>Node11</title>
<g id="a_node11"><a xlink:href="tstring_8h.html" target="_top" xlink:title=" ">
<polygon fill="white" stroke="black" points="204.34,-112.5 204.34,-131.5 261.34,-131.5 261.34,-112.5 204.34,-112.5"/>
<text text-anchor="middle" x="232.84" y="-119.5" font-family="Helvetica,sans-Serif" font-size="10.00">tstring.h</text>
</a>
</g>
</g>
<!-- Node10&#45;&gt;Node11 -->
<g id="edge15" class="edge">
<title>Node10&#45;&gt;Node11</title>
<path fill="none" stroke="midnightblue" d="M356.21,-169.26C332.52,-160.38 293.36,-145.69 265.51,-135.25"/>
<polygon fill="midnightblue" stroke="midnightblue" points="266.41,-131.85 255.82,-131.62 263.95,-138.4 266.41,-131.85"/>
</g>
<!-- Node13 -->
<g id="node13" class="node">
<title>Node13</title>
<g id="a_node13"><a xlink:href="tlist_8h.html" target="_top" xlink:title=" ">
<polygon fill="white" stroke="black" points="608.84,-56.5 608.84,-75.5 652.84,-75.5 652.84,-56.5 608.84,-56.5"/>
<text text-anchor="middle" x="630.84" y="-63.5" font-family="Helvetica,sans-Serif" font-size="10.00">tlist.h</text>
</a>
</g>
</g>
<!-- Node10&#45;&gt;Node13 -->
<g id="edge19" class="edge">
<title>Node10&#45;&gt;Node13</title>
<path fill="none" stroke="midnightblue" d="M396.77,-168.37C441.38,-149.05 549.43,-102.26 601.64,-79.65"/>
<polygon fill="midnightblue" stroke="midnightblue" points="603.22,-82.78 611,-75.59 600.44,-76.35 603.22,-82.78"/>
</g>
<!-- Node17 -->
<g id="node17" class="node">
<title>Node17</title>
<g id="a_node17"><a xlink:href="tvariant_8h.html" target="_top" xlink:title=" ">
<polygon fill="white" stroke="black" points="402.84,-112.5 402.84,-131.5 466.84,-131.5 466.84,-112.5 402.84,-112.5"/>
<text text-anchor="middle" x="434.84" y="-119.5" font-family="Helvetica,sans-Serif" font-size="10.00">tvariant.h</text>
</a>
</g>
</g>
<!-- Node10&#45;&gt;Node17 -->
<g id="edge24" class="edge">
<title>Node10&#45;&gt;Node17</title>
<path fill="none" stroke="midnightblue" d="M386.16,-168.32C394.74,-160.34 407.65,-148.31 418.03,-138.65"/>
<polygon fill="midnightblue" stroke="midnightblue" points="420.42,-141.21 425.35,-131.83 415.65,-136.09 420.42,-141.21"/>
</g>
<!-- Node11&#45;&gt;Node2 -->
<g id="edge17" class="edge">
<title>Node11&#45;&gt;Node2</title>
<path fill="none" stroke="midnightblue" d="M248.11,-112.32C263.06,-103.82 286.1,-90.73 303.57,-80.8"/>
<polygon fill="midnightblue" stroke="midnightblue" points="305.65,-83.64 312.62,-75.65 302.19,-77.55 305.65,-83.64"/>
</g>
<!-- Node11&#45;&gt;Node6 -->
<g id="edge18" class="edge">
<title>Node11&#45;&gt;Node6</title>
<path fill="none" stroke="midnightblue" d="M227.04,-112.37C214.82,-94.22 186.29,-51.8 170.27,-27.99"/>
<polygon fill="midnightblue" stroke="midnightblue" points="173.11,-25.94 164.62,-19.59 167.3,-29.84 173.11,-25.94"/>
</g>
<!-- Node12 -->
<g id="node12" class="node">
<title>Node12</title>
<g id="a_node12"><a xlink:title=" ">
<polygon fill="white" stroke="#bfbfbf" points="224.84,-56.5 224.84,-75.5 268.84,-75.5 268.84,-56.5 224.84,-56.5"/>
<text text-anchor="middle" x="246.84" y="-63.5" font-family="Helvetica,sans-Serif" font-size="10.00">string</text>
</a>
</g>
</g>
<!-- Node11&#45;&gt;Node12 -->
<g id="edge16" class="edge">
<title>Node11&#45;&gt;Node12</title>
<path fill="none" stroke="midnightblue" d="M235.15,-112.08C237.01,-104.93 239.68,-94.64 242,-85.69"/>
<polygon fill="midnightblue" stroke="midnightblue" points="245.45,-86.31 244.57,-75.75 238.68,-84.55 245.45,-86.31"/>
</g>
<!-- Node13&#45;&gt;Node3 -->
<g id="edge22" class="edge">
<title>Node13&#45;&gt;Node3</title>
<path fill="none" stroke="midnightblue" d="M608.62,-57.94C580.48,-49 531.6,-33.48 497.81,-22.74"/>
<polygon fill="midnightblue" stroke="midnightblue" points="498.43,-19.27 487.84,-19.58 496.31,-25.94 498.43,-19.27"/>
</g>
<!-- Node14 -->
<g id="node14" class="node">
<title>Node14</title>
<g id="a_node14"><a xlink:title=" ">
<polygon fill="white" stroke="#bfbfbf" points="728.84,-0.5 728.84,-19.5 760.84,-19.5 760.84,-0.5 728.84,-0.5"/>
<text text-anchor="middle" x="744.84" y="-7.5" font-family="Helvetica,sans-Serif" font-size="10.00">list</text>
</a>
</g>
</g>
<!-- Node13&#45;&gt;Node14 -->
<g id="edge20" class="edge">
<title>Node13&#45;&gt;Node14</title>
<path fill="none" stroke="midnightblue" d="M648.91,-56.44C667.96,-47.42 698.14,-33.12 719.55,-22.98"/>
<polygon fill="midnightblue" stroke="midnightblue" points="721.17,-26.09 728.71,-18.64 718.17,-19.76 721.17,-26.09"/>
</g>
<!-- Node15 -->
<g id="node15" class="node">
<title>Node15</title>
<g id="a_node15"><a xlink:title=" ">
<polygon fill="white" stroke="#bfbfbf" points="627.34,-0.5 627.34,-19.5 710.34,-19.5 710.34,-0.5 627.34,-0.5"/>
<text text-anchor="middle" x="668.84" y="-7.5" font-family="Helvetica,sans-Serif" font-size="10.00">initializer_list</text>
</a>
</g>
</g>
<!-- Node13&#45;&gt;Node15 -->
<g id="edge21" class="edge">
<title>Node13&#45;&gt;Node15</title>
<path fill="none" stroke="midnightblue" d="M637.12,-56.08C642.48,-48.46 650.36,-37.26 656.92,-27.94"/>
<polygon fill="midnightblue" stroke="midnightblue" points="659.79,-29.94 662.68,-19.75 654.07,-25.91 659.79,-29.94"/>
</g>
<!-- Node16 -->
<g id="node16" class="node">
<title>Node16</title>
<g id="a_node16"><a xlink:title=" ">
<polygon fill="white" stroke="#bfbfbf" points="779.34,-0.5 779.34,-19.5 832.34,-19.5 832.34,-0.5 779.34,-0.5"/>
<text text-anchor="middle" x="805.84" y="-7.5" font-family="Helvetica,sans-Serif" font-size="10.00">tlist.tcc</text>
</a>
</g>
</g>
<!-- Node13&#45;&gt;Node16 -->
<g id="edge23" class="edge">
<title>Node13&#45;&gt;Node16</title>
<path fill="none" stroke="midnightblue" d="M653.01,-58.16C682.3,-49.12 734.31,-33.07 769.42,-22.24"/>
<polygon fill="midnightblue" stroke="midnightblue" points="770.77,-25.49 779.29,-19.19 768.7,-18.8 770.77,-25.49"/>
</g>
<!-- Node17&#45;&gt;Node5 -->
<g id="edge25" class="edge">
<title>Node17&#45;&gt;Node5</title>
<path fill="none" stroke="midnightblue" d="M433.79,-112.31C431.72,-98.7 425.91,-72.21 410.84,-56 401.42,-45.87 370.35,-32.59 345.49,-23.09"/>
<polygon fill="midnightblue" stroke="midnightblue" points="346.58,-19.76 335.99,-19.52 344.12,-26.31 346.58,-19.76"/>
</g>
<!-- Node17&#45;&gt;Node6 -->
<g id="edge33" class="edge">
<title>Node17&#45;&gt;Node6</title>
<path fill="none" stroke="midnightblue" d="M429.8,-112.23C421.13,-97.99 401.97,-70.04 377.84,-56 363.79,-47.83 274.31,-31.07 214.17,-20.48"/>
<polygon fill="midnightblue" stroke="midnightblue" points="214.5,-16.98 204.04,-18.7 213.29,-23.87 214.5,-16.98"/>
</g>
<!-- Node17&#45;&gt;Node13 -->
<g id="edge26" class="edge">
<title>Node17&#45;&gt;Node13</title>
<path fill="none" stroke="midnightblue" d="M465.9,-112.44C502.31,-102.41 562.33,-85.88 599.05,-75.76"/>
<polygon fill="midnightblue" stroke="midnightblue" points="600.04,-79.12 608.75,-73.09 598.18,-72.37 600.04,-79.12"/>
</g>
<!-- Node18 -->
<g id="node18" class="node">
<title>Node18</title>
<g id="a_node18"><a xlink:href="tmap_8h.html" target="_top" xlink:title=" ">
<polygon fill="white" stroke="black" points="482.34,-56.5 482.34,-75.5 533.34,-75.5 533.34,-56.5 482.34,-56.5"/>
<text text-anchor="middle" x="507.84" y="-63.5" font-family="Helvetica,sans-Serif" font-size="10.00">tmap.h</text>
</a>
</g>
</g>
<!-- Node17&#45;&gt;Node18 -->
<g id="edge27" class="edge">
<title>Node17&#45;&gt;Node18</title>
<path fill="none" stroke="midnightblue" d="M446.57,-112.32C457.68,-104.11 474.58,-91.6 487.83,-81.81"/>
<polygon fill="midnightblue" stroke="midnightblue" points="489.94,-84.59 495.9,-75.83 485.78,-78.97 489.94,-84.59"/>
</g>
<!-- Node18&#45;&gt;Node3 -->
<g id="edge29" class="edge">
<title>Node18&#45;&gt;Node3</title>
<path fill="none" stroke="midnightblue" d="M500.08,-56.08C493.31,-48.3 483.3,-36.8 475.09,-27.37"/>
<polygon fill="midnightblue" stroke="midnightblue" points="477.66,-25 468.46,-19.75 472.38,-29.59 477.66,-25"/>
</g>
<!-- Node18&#45;&gt;Node15 -->
<g id="edge30" class="edge">
<title>Node18&#45;&gt;Node15</title>
<path fill="none" stroke="midnightblue" d="M533.35,-56.44C560.44,-47.36 603.43,-32.94 633.71,-22.78"/>
<polygon fill="midnightblue" stroke="midnightblue" points="635.08,-26.01 643.45,-19.52 632.86,-19.38 635.08,-26.01"/>
</g>
<!-- Node19 -->
<g id="node19" class="node">
<title>Node19</title>
<g id="a_node19"><a xlink:title=" ">
<polygon fill="white" stroke="#bfbfbf" points="507.84,-0.5 507.84,-19.5 545.84,-19.5 545.84,-0.5 507.84,-0.5"/>
<text text-anchor="middle" x="526.84" y="-7.5" font-family="Helvetica,sans-Serif" font-size="10.00">map</text>
</a>
</g>
</g>
<!-- Node18&#45;&gt;Node19 -->
<g id="edge28" class="edge">
<title>Node18&#45;&gt;Node19</title>
<path fill="none" stroke="midnightblue" d="M510.98,-56.08C513.53,-48.85 517.2,-38.41 520.37,-29.4"/>
<polygon fill="midnightblue" stroke="midnightblue" points="523.75,-30.35 523.76,-19.75 517.14,-28.02 523.75,-30.35"/>
</g>
<!-- Node20 -->
<g id="node20" class="node">
<title>Node20</title>
<g id="a_node20"><a xlink:title=" ">
<polygon fill="white" stroke="#bfbfbf" points="564.34,-0.5 564.34,-19.5 609.34,-19.5 609.34,-0.5 564.34,-0.5"/>
<text text-anchor="middle" x="586.84" y="-7.5" font-family="Helvetica,sans-Serif" font-size="10.00">utility</text>
</a>
</g>
</g>
<!-- Node18&#45;&gt;Node20 -->
<g id="edge31" class="edge">
<title>Node18&#45;&gt;Node20</title>
<path fill="none" stroke="midnightblue" d="M520.54,-56.32C532.74,-47.98 551.42,-35.21 565.85,-25.35"/>
<polygon fill="midnightblue" stroke="midnightblue" points="567.9,-28.19 574.18,-19.65 563.95,-22.41 567.9,-28.19"/>
</g>
<!-- Node21 -->
<g id="node21" class="node">
<title>Node21</title>
<g id="a_node21"><a xlink:title=" ">
<polygon fill="white" stroke="#bfbfbf" points="354.34,-0.5 354.34,-19.5 413.34,-19.5 413.34,-0.5 354.34,-0.5"/>
<text text-anchor="middle" x="383.84" y="-7.5" font-family="Helvetica,sans-Serif" font-size="10.00">tmap.tcc</text>
</a>
</g>
</g>
<!-- Node18&#45;&gt;Node21 -->
<g id="edge32" class="edge">
<title>Node18&#45;&gt;Node21</title>
<path fill="none" stroke="midnightblue" d="M488.19,-56.44C467.88,-47.6 435.94,-33.69 412.74,-23.59"/>
<polygon fill="midnightblue" stroke="midnightblue" points="413.96,-20.3 403.4,-19.52 411.17,-26.72 413.96,-20.3"/>
</g>
</g>
</svg>
