<?xml version="1.0" encoding="UTF-8" standalone="no"?>
<!DOCTYPE svg PUBLIC "-//W3C//DTD SVG 1.1//EN"
 "http://www.w3.org/Graphics/SVG/1.1/DTD/svg11.dtd">
<!-- Generated by graphviz version 2.43.0 (0)
 -->
<!-- Title: tfile.h Pages: 1 -->
<svg width="346pt" height="308pt"
 viewBox="0.00 0.00 345.99 308.00" xmlns="http://www.w3.org/2000/svg" xmlns:xlink="http://www.w3.org/1999/xlink">
<g id="graph0" class="graph" transform="scale(1 1) rotate(0) translate(4 304)">
<title>tfile.h</title>
<polygon fill="white" stroke="transparent" points="-4,4 -4,-304 341.99,-304 341.99,4 -4,4"/>
<!-- Node1 -->
<g id="node1" class="node">
<title>Node1</title>
<g id="a_node1"><a xlink:title=" ">
<polygon fill="#bfbfbf" stroke="black" points="98.99,-280.5 98.99,-299.5 142.99,-299.5 142.99,-280.5 98.99,-280.5"/>
<text text-anchor="middle" x="120.99" y="-287.5" font-family="Helvetica,sans-Serif" font-size="10.00">tfile.h</text>
</a>
</g>
</g>
<!-- Node2 -->
<g id="node2" class="node">
<title>Node2</title>
<g id="a_node2"><a xlink:href="taglib__export_8h.html" target="_top" xlink:title=" ">
<polygon fill="white" stroke="black" points="15.99,-56.5 15.99,-75.5 105.99,-75.5 105.99,-56.5 15.99,-56.5"/>
<text text-anchor="middle" x="60.99" y="-63.5" font-family="Helvetica,sans-Serif" font-size="10.00">taglib_export.h</text>
</a>
</g>
</g>
<!-- Node1&#45;&gt;Node2 -->
<g id="edge1" class="edge">
<title>Node1&#45;&gt;Node2</title>
<path fill="none" stroke="midnightblue" d="M98.76,-283.1C78.92,-276.7 50.51,-264.54 33.99,-244 -2.92,-198.13 0.81,-166.53 22.99,-112 27.44,-101.06 35.61,-90.83 43.23,-82.9"/>
<polygon fill="midnightblue" stroke="midnightblue" points="45.81,-85.28 50.52,-75.79 40.92,-80.27 45.81,-85.28"/>
</g>
<!-- Node3 -->
<g id="node3" class="node">
<title>Node3</title>
<g id="a_node3"><a xlink:href="taglib_8h.html" target="_top" xlink:title=" ">
<polygon fill="white" stroke="black" points="267.49,-56.5 267.49,-75.5 320.49,-75.5 320.49,-56.5 267.49,-56.5"/>
<text text-anchor="middle" x="293.99" y="-63.5" font-family="Helvetica,sans-Serif" font-size="10.00">taglib.h</text>
</a>
</g>
</g>
<!-- Node1&#45;&gt;Node3 -->
<g id="edge2" class="edge">
<title>Node1&#45;&gt;Node3</title>
<path fill="none" stroke="midnightblue" d="M134.9,-280.46C167.36,-259.69 248,-202.96 282.99,-132 290.1,-117.56 292.72,-99.37 293.63,-85.91"/>
<polygon fill="midnightblue" stroke="midnightblue" points="297.13,-86.04 294.06,-75.9 290.14,-85.74 297.13,-86.04"/>
</g>
<!-- Node6 -->
<g id="node6" class="node">
<title>Node6</title>
<g id="a_node6"><a xlink:href="tag_8h.html" target="_top" xlink:title=" ">
<polygon fill="white" stroke="black" points="43.49,-224.5 43.49,-243.5 84.49,-243.5 84.49,-224.5 43.49,-224.5"/>
<text text-anchor="middle" x="63.99" y="-231.5" font-family="Helvetica,sans-Serif" font-size="10.00">tag.h</text>
</a>
</g>
</g>
<!-- Node1&#45;&gt;Node6 -->
<g id="edge5" class="edge">
<title>Node1&#45;&gt;Node6</title>
<path fill="none" stroke="midnightblue" d="M111.83,-280.32C103.48,-272.42 90.95,-260.55 80.81,-250.94"/>
<polygon fill="midnightblue" stroke="midnightblue" points="82.98,-248.17 73.31,-243.83 78.16,-253.25 82.98,-248.17"/>
</g>
<!-- Node8 -->
<g id="node8" class="node">
<title>Node8</title>
<g id="a_node8"><a xlink:href="tbytevector_8h.html" target="_top" xlink:title=" ">
<polygon fill="white" stroke="black" points="138.49,-112.5 138.49,-131.5 219.49,-131.5 219.49,-112.5 138.49,-112.5"/>
<text text-anchor="middle" x="178.99" y="-119.5" font-family="Helvetica,sans-Serif" font-size="10.00">tbytevector.h</text>
</a>
</g>
</g>
<!-- Node1&#45;&gt;Node8 -->
<g id="edge17" class="edge">
<title>Node1&#45;&gt;Node8</title>
<path fill="none" stroke="midnightblue" d="M120.75,-280.32C120.52,-259.77 121.89,-206.96 139.99,-168 145.08,-157.03 153.67,-146.69 161.49,-138.69"/>
<polygon fill="midnightblue" stroke="midnightblue" points="164.13,-141 168.89,-131.54 159.27,-135.97 164.13,-141"/>
</g>
<!-- Node11 -->
<g id="node11" class="node">
<title>Node11</title>
<g id="a_node11"><a xlink:href="tiostream_8h.html" target="_top" xlink:title=" ">
<polygon fill="white" stroke="black" points="149.49,-168.5 149.49,-187.5 222.49,-187.5 222.49,-168.5 149.49,-168.5"/>
<text text-anchor="middle" x="185.99" y="-175.5" font-family="Helvetica,sans-Serif" font-size="10.00">tiostream.h</text>
</a>
</g>
</g>
<!-- Node1&#45;&gt;Node11 -->
<g id="edge18" class="edge">
<title>Node1&#45;&gt;Node11</title>
<path fill="none" stroke="midnightblue" d="M126.09,-280.37C136.77,-262.3 161.65,-220.18 175.76,-196.31"/>
<polygon fill="midnightblue" stroke="midnightblue" points="178.84,-197.98 180.91,-187.59 172.81,-194.42 178.84,-197.98"/>
</g>
<!-- Node4 -->
<g id="node4" class="node">
<title>Node4</title>
<g id="a_node4"><a xlink:title=" ">
<polygon fill="white" stroke="#bfbfbf" points="249.99,-0.5 249.99,-19.5 337.99,-19.5 337.99,-0.5 249.99,-0.5"/>
<text text-anchor="middle" x="293.99" y="-7.5" font-family="Helvetica,sans-Serif" font-size="10.00">taglib_config.h</text>
</a>
</g>
</g>
<!-- Node3&#45;&gt;Node4 -->
<g id="edge3" class="edge">
<title>Node3&#45;&gt;Node4</title>
<path fill="none" stroke="midnightblue" d="M293.99,-56.08C293.99,-49.01 293.99,-38.86 293.99,-29.99"/>
<polygon fill="midnightblue" stroke="midnightblue" points="297.49,-29.75 293.99,-19.75 290.49,-29.75 297.49,-29.75"/>
</g>
<!-- Node5 -->
<g id="node5" class="node">
<title>Node5</title>
<g id="a_node5"><a xlink:title=" ">
<polygon fill="white" stroke="#bfbfbf" points="76.99,-0.5 76.99,-19.5 120.99,-19.5 120.99,-0.5 76.99,-0.5"/>
<text text-anchor="middle" x="98.99" y="-7.5" font-family="Helvetica,sans-Serif" font-size="10.00">string</text>
</a>
</g>
</g>
<!-- Node3&#45;&gt;Node5 -->
<g id="edge4" class="edge">
<title>Node3&#45;&gt;Node5</title>
<path fill="none" stroke="midnightblue" d="M267.28,-57.6C231.81,-47.78 169.23,-30.45 131.19,-19.92"/>
<polygon fill="midnightblue" stroke="midnightblue" points="131.72,-16.43 121.15,-17.14 129.85,-23.18 131.72,-16.43"/>
</g>
<!-- Node6&#45;&gt;Node2 -->
<g id="edge6" class="edge">
<title>Node6&#45;&gt;Node2</title>
<path fill="none" stroke="midnightblue" d="M53.27,-224.3C44.05,-216.07 31.4,-202.79 25.99,-188 12.72,-151.72 34.43,-107.89 49.16,-84.21"/>
<polygon fill="midnightblue" stroke="midnightblue" points="52.22,-85.93 54.74,-75.64 46.35,-82.11 52.22,-85.93"/>
</g>
<!-- Node7 -->
<g id="node7" class="node">
<title>Node7</title>
<g id="a_node7"><a xlink:href="tstring_8h.html" target="_top" xlink:title=" ">
<polygon fill="white" stroke="black" points="35.49,-168.5 35.49,-187.5 92.49,-187.5 92.49,-168.5 35.49,-168.5"/>
<text text-anchor="middle" x="63.99" y="-175.5" font-family="Helvetica,sans-Serif" font-size="10.00">tstring.h</text>
</a>
</g>
</g>
<!-- Node6&#45;&gt;Node7 -->
<g id="edge7" class="edge">
<title>Node6&#45;&gt;Node7</title>
<path fill="none" stroke="midnightblue" d="M63.99,-224.08C63.99,-217.01 63.99,-206.86 63.99,-197.99"/>
<polygon fill="midnightblue" stroke="midnightblue" points="67.49,-197.75 63.99,-187.75 60.49,-197.75 67.49,-197.75"/>
</g>
<!-- Node7&#45;&gt;Node2 -->
<g id="edge8" class="edge">
<title>Node7&#45;&gt;Node2</title>
<path fill="none" stroke="midnightblue" d="M62.5,-168.41C61.01,-159.38 58.83,-144.74 57.99,-132 56.96,-116.48 57.9,-98.86 59,-85.88"/>
<polygon fill="midnightblue" stroke="midnightblue" points="62.49,-86.12 59.95,-75.84 55.52,-85.46 62.49,-86.12"/>
</g>
<!-- Node7&#45;&gt;Node3 -->
<g id="edge9" class="edge">
<title>Node7&#45;&gt;Node3</title>
<path fill="none" stroke="midnightblue" d="M92.65,-173.62C126.79,-168.61 184.63,-156.99 227.99,-132 249.65,-119.52 269.35,-98.22 281.47,-83.42"/>
<polygon fill="midnightblue" stroke="midnightblue" points="284.22,-85.58 287.69,-75.57 278.74,-81.23 284.22,-85.58"/>
</g>
<!-- Node7&#45;&gt;Node5 -->
<g id="edge15" class="edge">
<title>Node7&#45;&gt;Node5</title>
<path fill="none" stroke="midnightblue" d="M54.13,-168.43C32,-148.12 -17.85,-95.79 6.99,-56 20.01,-35.13 45.83,-23.67 66.81,-17.55"/>
<polygon fill="midnightblue" stroke="midnightblue" points="67.87,-20.89 76.64,-14.96 66.08,-14.13 67.87,-20.89"/>
</g>
<!-- Node7&#45;&gt;Node8 -->
<g id="edge10" class="edge">
<title>Node7&#45;&gt;Node8</title>
<path fill="none" stroke="midnightblue" d="M82.21,-168.44C100.88,-159.68 130.14,-145.94 151.6,-135.86"/>
<polygon fill="midnightblue" stroke="midnightblue" points="153.29,-138.93 160.85,-131.52 150.31,-132.6 153.29,-138.93"/>
</g>
<!-- Node10 -->
<g id="node10" class="node">
<title>Node10</title>
<g id="a_node10"><a xlink:title=" ">
<polygon fill="white" stroke="#bfbfbf" points="123.99,-56.5 123.99,-75.5 183.99,-75.5 183.99,-56.5 123.99,-56.5"/>
<text text-anchor="middle" x="153.99" y="-63.5" font-family="Helvetica,sans-Serif" font-size="10.00">iostream</text>
</a>
</g>
</g>
<!-- Node7&#45;&gt;Node10 -->
<g id="edge16" class="edge">
<title>Node7&#45;&gt;Node10</title>
<path fill="none" stroke="midnightblue" d="M71.05,-168.37C86.03,-150.05 121.22,-107.05 140.6,-83.36"/>
<polygon fill="midnightblue" stroke="midnightblue" points="143.33,-85.55 146.96,-75.59 137.92,-81.11 143.33,-85.55"/>
</g>
<!-- Node8&#45;&gt;Node2 -->
<g id="edge12" class="edge">
<title>Node8&#45;&gt;Node2</title>
<path fill="none" stroke="midnightblue" d="M160.29,-112.44C141.04,-103.64 110.83,-89.81 88.79,-79.72"/>
<polygon fill="midnightblue" stroke="midnightblue" points="90.15,-76.5 79.6,-75.52 87.23,-82.86 90.15,-76.5"/>
</g>
<!-- Node8&#45;&gt;Node3 -->
<g id="edge11" class="edge">
<title>Node8&#45;&gt;Node3</title>
<path fill="none" stroke="midnightblue" d="M197.21,-112.44C215.88,-103.68 245.14,-89.94 266.6,-79.86"/>
<polygon fill="midnightblue" stroke="midnightblue" points="268.29,-82.93 275.85,-75.52 265.31,-76.6 268.29,-82.93"/>
</g>
<!-- Node9 -->
<g id="node9" class="node">
<title>Node9</title>
<g id="a_node9"><a xlink:title=" ">
<polygon fill="white" stroke="#bfbfbf" points="202.49,-56.5 202.49,-75.5 249.49,-75.5 249.49,-56.5 202.49,-56.5"/>
<text text-anchor="middle" x="225.99" y="-63.5" font-family="Helvetica,sans-Serif" font-size="10.00">vector</text>
</a>
</g>
</g>
<!-- Node8&#45;&gt;Node9 -->
<g id="edge13" class="edge">
<title>Node8&#45;&gt;Node9</title>
<path fill="none" stroke="midnightblue" d="M186.75,-112.08C193.52,-104.3 203.53,-92.8 211.74,-83.37"/>
<polygon fill="midnightblue" stroke="midnightblue" points="214.44,-85.59 218.37,-75.75 209.16,-81 214.44,-85.59"/>
</g>
<!-- Node8&#45;&gt;Node10 -->
<g id="edge14" class="edge">
<title>Node8&#45;&gt;Node10</title>
<path fill="none" stroke="midnightblue" d="M174.86,-112.08C171.47,-104.77 166.57,-94.18 162.37,-85.1"/>
<polygon fill="midnightblue" stroke="midnightblue" points="165.42,-83.36 158.04,-75.75 159.06,-86.3 165.42,-83.36"/>
</g>
<!-- Node11&#45;&gt;Node2 -->
<g id="edge19" class="edge">
<title>Node11&#45;&gt;Node2</title>
<path fill="none" stroke="midnightblue" d="M174.37,-168.34C162.67,-159.5 144.21,-145.23 128.99,-132 110.44,-115.88 90.2,-96.25 76.67,-82.81"/>
<polygon fill="midnightblue" stroke="midnightblue" points="79.09,-80.28 69.54,-75.69 74.14,-85.23 79.09,-80.28"/>
</g>
<!-- Node11&#45;&gt;Node3 -->
<g id="edge20" class="edge">
<title>Node11&#45;&gt;Node3</title>
<path fill="none" stroke="midnightblue" d="M207.26,-168.47C223.89,-160.92 246.67,-148.54 261.99,-132 274.51,-118.47 283.19,-99.11 288.31,-85.05"/>
<polygon fill="midnightblue" stroke="midnightblue" points="291.65,-86.1 291.55,-75.5 285.02,-83.85 291.65,-86.1"/>
</g>
<!-- Node11&#45;&gt;Node8 -->
<g id="edge21" class="edge">
<title>Node11&#45;&gt;Node8</title>
<path fill="none" stroke="midnightblue" d="M184.83,-168.08C183.9,-160.93 182.57,-150.64 181.41,-141.69"/>
<polygon fill="midnightblue" stroke="midnightblue" points="184.88,-141.22 180.12,-131.75 177.94,-142.12 184.88,-141.22"/>
</g>
</g>
</svg>
