<?xml version="1.0" encoding="UTF-8" standalone="no"?>
<!DOCTYPE svg PUBLIC "-//W3C//DTD SVG 1.1//EN"
 "http://www.w3.org/Graphics/SVG/1.1/DTD/svg11.dtd">
<!-- Generated by graphviz version 2.42.4 (0)
 -->
<!-- Title: tfile.h Pages: 1 -->
<svg width="814pt" height="247pt"
 viewBox="0.00 0.00 814.00 247.00" xmlns="http://www.w3.org/2000/svg" xmlns:xlink="http://www.w3.org/1999/xlink">
<g id="graph0" class="graph" transform="scale(1 1) rotate(0) translate(4 243)">
<title>tfile.h</title>
<!-- Node1 -->
<g id="Node000001" class="node">
<title>Node1</title>
<g id="a_Node000001"><a xlink:title=" ">
<polygon fill="#999999" stroke="#666666" points="212.5,-239 168.5,-239 168.5,-220 212.5,-220 212.5,-239"/>
<text text-anchor="middle" x="190.5" y="-227" font-family="Helvetica,sans-Serif" font-size="10.00">tfile.h</text>
</a>
</g>
</g>
<!-- Node2 -->
<g id="Node000002" class="node">
<title>Node2</title>
<g id="a_Node000002"><a xlink:href="tbytevector_8h.html" target="_top" xlink:title=" ">
<polygon fill="white" stroke="#666666" points="97,-74 16,-74 16,-55 97,-55 97,-74"/>
<text text-anchor="middle" x="56.5" y="-62" font-family="Helvetica,sans-Serif" font-size="10.00">tbytevector.h</text>
</a>
</g>
</g>
<!-- Node1&#45;&gt;Node2 -->
<g id="edge1_Node000001_Node000002" class="edge">
<title>Node1&#45;&gt;Node2</title>
<g id="a_edge1_Node000001_Node000002"><a xlink:title=" ">
<path fill="none" stroke="#63b8ff" d="M168.5,-225.95C143.07,-221.78 101.85,-211.05 79.5,-184 55.88,-155.42 53.92,-109.75 54.97,-84.26"/>
<polygon fill="#63b8ff" stroke="#63b8ff" points="58.47,-84.3 55.59,-74.1 51.48,-83.87 58.47,-84.3"/>
</a>
</g>
</g>
<!-- Node6 -->
<g id="Node000006" class="node">
<title>Node6</title>
<g id="a_Node000006"><a xlink:href="taglib__export_8h.html" target="_top" xlink:title=" ">
<polygon fill="white" stroke="#666666" points="302.5,-19 212.5,-19 212.5,0 302.5,0 302.5,-19"/>
<text text-anchor="middle" x="257.5" y="-7" font-family="Helvetica,sans-Serif" font-size="10.00">taglib_export.h</text>
</a>
</g>
</g>
<!-- Node1&#45;&gt;Node6 -->
<g id="edge11_Node000001_Node000006" class="edge">
<title>Node1&#45;&gt;Node6</title>
<g id="a_edge11_Node000001_Node000006"><a xlink:title=" ">
<path fill="none" stroke="#63b8ff" d="M193.67,-219.77C199.9,-202.53 214.02,-162.83 224.5,-129 235.36,-93.94 246.51,-52.54 252.67,-29.12"/>
<polygon fill="#63b8ff" stroke="#63b8ff" points="256.13,-29.73 255.27,-19.17 249.35,-27.96 256.13,-29.73"/>
</a>
</g>
</g>
<!-- Node7 -->
<g id="Node000007" class="node">
<title>Node7</title>
<g id="a_Node000007"><a xlink:href="tiostream_8h.html" target="_top" xlink:title=" ">
<polygon fill="white" stroke="#666666" points="162,-184 89,-184 89,-165 162,-165 162,-184"/>
<text text-anchor="middle" x="125.5" y="-172" font-family="Helvetica,sans-Serif" font-size="10.00">tiostream.h</text>
</a>
</g>
</g>
<!-- Node1&#45;&gt;Node7 -->
<g id="edge6_Node000001_Node000007" class="edge">
<title>Node1&#45;&gt;Node7</title>
<g id="a_edge6_Node000001_Node000007"><a xlink:title=" ">
<path fill="none" stroke="#63b8ff" d="M180.06,-219.98C170.35,-212.07 155.68,-200.11 144,-190.58"/>
<polygon fill="#63b8ff" stroke="#63b8ff" points="146.1,-187.78 136.13,-184.17 141.67,-193.2 146.1,-187.78"/>
</a>
</g>
</g>
<!-- Node8 -->
<g id="Node000008" class="node">
<title>Node8</title>
<g id="a_Node000008"><a xlink:href="taglib_8h.html" target="_top" xlink:title=" ">
<polygon fill="white" stroke="#666666" points="216,-129 163,-129 163,-110 216,-110 216,-129"/>
<text text-anchor="middle" x="189.5" y="-117" font-family="Helvetica,sans-Serif" font-size="10.00">taglib.h</text>
</a>
</g>
</g>
<!-- Node1&#45;&gt;Node8 -->
<g id="edge12_Node000001_Node000008" class="edge">
<title>Node1&#45;&gt;Node8</title>
<g id="a_edge12_Node000001_Node000008"><a xlink:title=" ">
<path fill="none" stroke="#63b8ff" d="M190.42,-219.66C190.26,-202.17 189.89,-162.8 189.67,-139.27"/>
<polygon fill="#63b8ff" stroke="#63b8ff" points="193.17,-139.13 189.58,-129.16 186.17,-139.19 193.17,-139.13"/>
</a>
</g>
</g>
<!-- Node10 -->
<g id="Node000010" class="node">
<title>Node10</title>
<g id="a_Node000010"><a xlink:href="tag_8h.html" target="_top" xlink:title=" ">
<polygon fill="white" stroke="#666666" points="412,-184 371,-184 371,-165 412,-165 412,-184"/>
<text text-anchor="middle" x="391.5" y="-172" font-family="Helvetica,sans-Serif" font-size="10.00">tag.h</text>
</a>
</g>
</g>
<!-- Node1&#45;&gt;Node10 -->
<g id="edge13_Node000001_Node000010" class="edge">
<title>Node1&#45;&gt;Node10</title>
<g id="a_edge13_Node000001_Node000010"><a xlink:title=" ">
<path fill="none" stroke="#63b8ff" d="M212.78,-222.63C248.89,-213.1 320.24,-194.29 361.02,-183.54"/>
<polygon fill="#63b8ff" stroke="#63b8ff" points="362.16,-186.86 370.93,-180.92 360.37,-180.09 362.16,-186.86"/>
</a>
</g>
</g>
<!-- Node3 -->
<g id="Node000003" class="node">
<title>Node3</title>
<g id="a_Node000003"><a xlink:title=" ">
<polygon fill="#e0e0e0" stroke="#999999" points="582.5,-19 524.5,-19 524.5,0 582.5,0 582.5,-19"/>
<text text-anchor="middle" x="553.5" y="-7" font-family="Helvetica,sans-Serif" font-size="10.00">memory</text>
</a>
</g>
</g>
<!-- Node2&#45;&gt;Node3 -->
<g id="edge2_Node000002_Node000003" class="edge">
<title>Node2&#45;&gt;Node3</title>
<g id="a_edge2_Node000002_Node000003"><a xlink:title=" ">
<path fill="none" stroke="#63b8ff" d="M97.37,-59.55C199.07,-49.73 458.8,-24.64 514.01,-18.65"/>
<polygon fill="#63b8ff" stroke="#63b8ff" points="514.59,-22.1 524.11,-17.45 513.77,-15.15 514.59,-22.1"/>
</a>
</g>
</g>
<!-- Node4 -->
<g id="Node000004" class="node">
<title>Node4</title>
<g id="a_Node000004"><a xlink:title=" ">
<polygon fill="#e0e0e0" stroke="#999999" points="47,-19 0,-19 0,0 47,0 47,-19"/>
<text text-anchor="middle" x="23.5" y="-7" font-family="Helvetica,sans-Serif" font-size="10.00">vector</text>
</a>
</g>
</g>
<!-- Node2&#45;&gt;Node4 -->
<g id="edge3_Node000002_Node000004" class="edge">
<title>Node2&#45;&gt;Node4</title>
<g id="a_edge3_Node000002_Node000004"><a xlink:title=" ">
<path fill="none" stroke="#63b8ff" d="M51.05,-54.75C46.49,-47.42 39.83,-36.73 34.21,-27.7"/>
<polygon fill="#63b8ff" stroke="#63b8ff" points="37.1,-25.73 28.85,-19.09 31.16,-29.43 37.1,-25.73"/>
</a>
</g>
</g>
<!-- Node5 -->
<g id="Node000005" class="node">
<title>Node5</title>
<g id="a_Node000005"><a xlink:title=" ">
<polygon fill="#e0e0e0" stroke="#999999" points="113.5,-19 65.5,-19 65.5,0 113.5,0 113.5,-19"/>
<text text-anchor="middle" x="89.5" y="-7" font-family="Helvetica,sans-Serif" font-size="10.00">iosfwd</text>
</a>
</g>
</g>
<!-- Node2&#45;&gt;Node5 -->
<g id="edge4_Node000002_Node000005" class="edge">
<title>Node2&#45;&gt;Node5</title>
<g id="a_edge4_Node000002_Node000005"><a xlink:title=" ">
<path fill="none" stroke="#63b8ff" d="M61.95,-54.75C66.51,-47.42 73.17,-36.73 78.79,-27.7"/>
<polygon fill="#63b8ff" stroke="#63b8ff" points="81.84,-29.43 84.15,-19.09 75.9,-25.73 81.84,-29.43"/>
</a>
</g>
</g>
<!-- Node2&#45;&gt;Node6 -->
<g id="edge5_Node000002_Node000006" class="edge">
<title>Node2&#45;&gt;Node6</title>
<g id="a_edge5_Node000002_Node000006"><a xlink:title=" ">
<path fill="none" stroke="#63b8ff" d="M88.79,-54.98C123.12,-45.93 177.56,-31.58 215.27,-21.64"/>
<polygon fill="#63b8ff" stroke="#63b8ff" points="216.18,-25.02 224.95,-19.08 214.39,-18.25 216.18,-25.02"/>
</a>
</g>
</g>
<!-- Node7&#45;&gt;Node2 -->
<g id="edge7_Node000007_Node000002" class="edge">
<title>Node7&#45;&gt;Node2</title>
<g id="a_edge7_Node000007_Node000002"><a xlink:title=" ">
<path fill="none" stroke="#63b8ff" d="M119.85,-164.66C108.42,-146.77 82.38,-106 67.48,-82.69"/>
<polygon fill="#63b8ff" stroke="#63b8ff" points="70.37,-80.7 62.03,-74.16 64.47,-84.47 70.37,-80.7"/>
</a>
</g>
</g>
<!-- Node7&#45;&gt;Node6 -->
<g id="edge8_Node000007_Node000006" class="edge">
<title>Node7&#45;&gt;Node6</title>
<g id="a_edge8_Node000007_Node000006"><a xlink:title=" ">
<path fill="none" stroke="#63b8ff" d="M124.24,-164.92C121.61,-143.7 117.86,-88.12 144.5,-55 158.82,-37.2 181.25,-26.5 202.37,-20.07"/>
<polygon fill="#63b8ff" stroke="#63b8ff" points="203.57,-23.37 212.27,-17.33 201.7,-16.62 203.57,-23.37"/>
</a>
</g>
</g>
<!-- Node7&#45;&gt;Node8 -->
<g id="edge9_Node000007_Node000008" class="edge">
<title>Node7&#45;&gt;Node8</title>
<g id="a_edge9_Node000007_Node000008"><a xlink:title=" ">
<path fill="none" stroke="#63b8ff" d="M135.78,-164.98C145.34,-157.07 159.78,-145.11 171.28,-135.58"/>
<polygon fill="#63b8ff" stroke="#63b8ff" points="173.56,-138.24 179.03,-129.17 169.1,-132.85 173.56,-138.24"/>
</a>
</g>
</g>
<!-- Node9 -->
<g id="Node000009" class="node">
<title>Node9</title>
<g id="a_Node000009"><a xlink:title=" ">
<polygon fill="#e0e0e0" stroke="#999999" points="225.5,-74 153.5,-74 153.5,-55 225.5,-55 225.5,-74"/>
<text text-anchor="middle" x="189.5" y="-62" font-family="Helvetica,sans-Serif" font-size="10.00">sys/types.h</text>
</a>
</g>
</g>
<!-- Node8&#45;&gt;Node9 -->
<g id="edge10_Node000008_Node000009" class="edge">
<title>Node8&#45;&gt;Node9</title>
<g id="a_edge10_Node000008_Node000009"><a xlink:title=" ">
<path fill="none" stroke="#63b8ff" d="M189.5,-109.75C189.5,-102.8 189.5,-92.85 189.5,-84.13"/>
<polygon fill="#63b8ff" stroke="#63b8ff" points="193,-84.09 189.5,-74.09 186,-84.09 193,-84.09"/>
</a>
</g>
</g>
<!-- Node10&#45;&gt;Node6 -->
<g id="edge14_Node000010_Node000006" class="edge">
<title>Node10&#45;&gt;Node6</title>
<g id="a_edge14_Node000010_Node000006"><a xlink:title=" ">
<path fill="none" stroke="#63b8ff" d="M392.78,-164.91C395.43,-143.67 399.24,-88.04 372.5,-55 357.67,-36.67 334.32,-25.88 312.52,-19.53"/>
<polygon fill="#63b8ff" stroke="#63b8ff" points="313.21,-16.09 302.65,-16.91 311.42,-22.86 313.21,-16.09"/>
</a>
</g>
</g>
<!-- Node11 -->
<g id="Node000011" class="node">
<title>Node11</title>
<g id="a_Node000011"><a xlink:href="tstring_8h.html" target="_top" xlink:title=" ">
<polygon fill="white" stroke="#666666" points="351,-129 294,-129 294,-110 351,-110 351,-129"/>
<text text-anchor="middle" x="322.5" y="-117" font-family="Helvetica,sans-Serif" font-size="10.00">tstring.h</text>
</a>
</g>
</g>
<!-- Node10&#45;&gt;Node11 -->
<g id="edge15_Node000010_Node000011" class="edge">
<title>Node10&#45;&gt;Node11</title>
<g id="a_edge15_Node000010_Node000011"><a xlink:title=" ">
<path fill="none" stroke="#63b8ff" d="M380.41,-164.98C370.01,-157 354.24,-144.88 341.78,-135.31"/>
<polygon fill="#63b8ff" stroke="#63b8ff" points="343.85,-132.49 333.79,-129.17 339.59,-138.04 343.85,-132.49"/>
</a>
</g>
</g>
<!-- Node13 -->
<g id="Node000013" class="node">
<title>Node13</title>
<g id="a_Node000013"><a xlink:href="tlist_8h.html" target="_top" xlink:title=" ">
<polygon fill="white" stroke="#666666" points="657.5,-74 613.5,-74 613.5,-55 657.5,-55 657.5,-74"/>
<text text-anchor="middle" x="635.5" y="-62" font-family="Helvetica,sans-Serif" font-size="10.00">tlist.h</text>
</a>
</g>
</g>
<!-- Node10&#45;&gt;Node13 -->
<g id="edge19_Node000010_Node000013" class="edge">
<title>Node10&#45;&gt;Node13</title>
<g id="a_edge19_Node000010_Node000013"><a xlink:title=" ">
<path fill="none" stroke="#63b8ff" d="M412.13,-168.15C439.05,-160.85 487.34,-146.63 526.5,-129 558.34,-114.67 592.79,-93.56 614.25,-79.68"/>
<polygon fill="#63b8ff" stroke="#63b8ff" points="616.43,-82.44 622.88,-74.03 612.6,-76.58 616.43,-82.44"/>
</a>
</g>
</g>
<!-- Node17 -->
<g id="Node000017" class="node">
<title>Node17</title>
<g id="a_Node000017"><a xlink:href="tvariant_8h.html" target="_top" xlink:title=" ">
<polygon fill="white" stroke="#666666" points="517.5,-129 453.5,-129 453.5,-110 517.5,-110 517.5,-129"/>
<text text-anchor="middle" x="485.5" y="-117" font-family="Helvetica,sans-Serif" font-size="10.00">tvariant.h</text>
</a>
</g>
</g>
<!-- Node10&#45;&gt;Node17 -->
<g id="edge24_Node000010_Node000017" class="edge">
<title>Node10&#45;&gt;Node17</title>
<g id="a_edge24_Node000010_Node000017"><a xlink:title=" ">
<path fill="none" stroke="#63b8ff" d="M406.6,-164.98C421.32,-156.69 443.92,-143.94 461.17,-134.22"/>
<polygon fill="#63b8ff" stroke="#63b8ff" points="463.13,-137.13 470.12,-129.17 459.69,-131.03 463.13,-137.13"/>
</a>
</g>
</g>
<!-- Node11&#45;&gt;Node2 -->
<g id="edge17_Node000011_Node000002" class="edge">
<title>Node11&#45;&gt;Node2</title>
<g id="a_edge17_Node000011_Node000002"><a xlink:title=" ">
<path fill="none" stroke="#63b8ff" d="M293.78,-112.78C249.14,-103.88 162.49,-86.62 107.16,-75.59"/>
<polygon fill="#63b8ff" stroke="#63b8ff" points="107.71,-72.13 97.22,-73.61 106.34,-79 107.71,-72.13"/>
</a>
</g>
</g>
<!-- Node11&#45;&gt;Node6 -->
<g id="edge18_Node000011_Node000006" class="edge">
<title>Node11&#45;&gt;Node6</title>
<g id="a_edge18_Node000011_Node000006"><a xlink:title=" ">
<path fill="none" stroke="#63b8ff" d="M317.18,-109.66C306.46,-91.85 282.1,-51.37 268.04,-28.01"/>
<polygon fill="#63b8ff" stroke="#63b8ff" points="270.87,-25.92 262.71,-19.16 264.87,-29.53 270.87,-25.92"/>
</a>
</g>
</g>
<!-- Node12 -->
<g id="Node000012" class="node">
<title>Node12</title>
<g id="a_Node000012"><a xlink:title=" ">
<polygon fill="#e0e0e0" stroke="#999999" points="363.5,-74 319.5,-74 319.5,-55 363.5,-55 363.5,-74"/>
<text text-anchor="middle" x="341.5" y="-62" font-family="Helvetica,sans-Serif" font-size="10.00">string</text>
</a>
</g>
</g>
<!-- Node11&#45;&gt;Node12 -->
<g id="edge16_Node000011_Node000012" class="edge">
<title>Node11&#45;&gt;Node12</title>
<g id="a_edge16_Node000011_Node000012"><a xlink:title=" ">
<path fill="none" stroke="#63b8ff" d="M325.64,-109.75C328.18,-102.65 331.86,-92.4 335.03,-83.56"/>
<polygon fill="#63b8ff" stroke="#63b8ff" points="338.34,-84.68 338.42,-74.09 331.75,-82.32 338.34,-84.68"/>
</a>
</g>
</g>
<!-- Node13&#45;&gt;Node3 -->
<g id="edge22_Node000013_Node000003" class="edge">
<title>Node13&#45;&gt;Node3</title>
<g id="a_edge22_Node000013_Node000003"><a xlink:title=" ">
<path fill="none" stroke="#63b8ff" d="M622.33,-54.98C609.73,-46.84 590.5,-34.41 575.56,-24.76"/>
<polygon fill="#63b8ff" stroke="#63b8ff" points="577.21,-21.66 566.91,-19.17 573.41,-27.54 577.21,-21.66"/>
</a>
</g>
</g>
<!-- Node14 -->
<g id="Node000014" class="node">
<title>Node14</title>
<g id="a_Node000014"><a xlink:title=" ">
<polygon fill="#e0e0e0" stroke="#999999" points="734.5,-19 702.5,-19 702.5,0 734.5,0 734.5,-19"/>
<text text-anchor="middle" x="718.5" y="-7" font-family="Helvetica,sans-Serif" font-size="10.00">list</text>
</a>
</g>
</g>
<!-- Node13&#45;&gt;Node14 -->
<g id="edge20_Node000013_Node000014" class="edge">
<title>Node13&#45;&gt;Node14</title>
<g id="a_edge20_Node000013_Node000014"><a xlink:title=" ">
<path fill="none" stroke="#63b8ff" d="M648.84,-54.98C661.59,-46.84 681.05,-34.41 696.17,-24.76"/>
<polygon fill="#63b8ff" stroke="#63b8ff" points="698.38,-27.5 704.92,-19.17 694.61,-21.6 698.38,-27.5"/>
</a>
</g>
</g>
<!-- Node15 -->
<g id="Node000015" class="node">
<title>Node15</title>
<g id="a_Node000015"><a xlink:title=" ">
<polygon fill="#e0e0e0" stroke="#999999" points="684,-19 601,-19 601,0 684,0 684,-19"/>
<text text-anchor="middle" x="642.5" y="-7" font-family="Helvetica,sans-Serif" font-size="10.00">initializer_list</text>
</a>
</g>
</g>
<!-- Node13&#45;&gt;Node15 -->
<g id="edge21_Node000013_Node000015" class="edge">
<title>Node13&#45;&gt;Node15</title>
<g id="a_edge21_Node000013_Node000015"><a xlink:title=" ">
<path fill="none" stroke="#63b8ff" d="M636.66,-54.75C637.57,-47.8 638.89,-37.85 640.04,-29.13"/>
<polygon fill="#63b8ff" stroke="#63b8ff" points="643.53,-29.46 641.37,-19.09 636.59,-28.54 643.53,-29.46"/>
</a>
</g>
</g>
<!-- Node16 -->
<g id="Node000016" class="node">
<title>Node16</title>
<g id="a_Node000016"><a xlink:title=" ">
<polygon fill="#e0e0e0" stroke="#999999" points="806,-19 753,-19 753,0 806,0 806,-19"/>
<text text-anchor="middle" x="779.5" y="-7" font-family="Helvetica,sans-Serif" font-size="10.00">tlist.tcc</text>
</a>
</g>
</g>
<!-- Node13&#45;&gt;Node16 -->
<g id="edge23_Node000013_Node000016" class="edge">
<title>Node13&#45;&gt;Node16</title>
<g id="a_edge23_Node000013_Node000016"><a xlink:title=" ">
<path fill="none" stroke="#63b8ff" d="M657.68,-55.33C681.43,-46.59 719.37,-32.63 746.59,-22.61"/>
<polygon fill="#63b8ff" stroke="#63b8ff" points="747.92,-25.85 756.09,-19.11 745.5,-19.28 747.92,-25.85"/>
</a>
</g>
</g>
<!-- Node17&#45;&gt;Node6 -->
<g id="edge33_Node000017_Node000006" class="edge">
<title>Node17&#45;&gt;Node6</title>
<g id="a_edge33_Node000017_Node000006"><a xlink:title=" ">
<path fill="none" stroke="#63b8ff" d="M476.94,-109.84C463.09,-96.3 434.42,-70.11 405.5,-55 375.93,-39.55 340.17,-28.61 311.21,-21.44"/>
<polygon fill="#63b8ff" stroke="#63b8ff" points="311.81,-17.99 301.27,-19.07 310.18,-24.8 311.81,-17.99"/>
</a>
</g>
</g>
<!-- Node17&#45;&gt;Node13 -->
<g id="edge26_Node000017_Node000013" class="edge">
<title>Node17&#45;&gt;Node13</title>
<g id="a_edge26_Node000017_Node000013"><a xlink:title=" ">
<path fill="none" stroke="#63b8ff" d="M509.6,-109.98C535.12,-100.97 575.53,-86.69 603.66,-76.75"/>
<polygon fill="#63b8ff" stroke="#63b8ff" points="605.15,-79.94 613.41,-73.3 602.82,-73.33 605.15,-79.94"/>
</a>
</g>
</g>
<!-- Node18 -->
<g id="Node000018" class="node">
<title>Node18</title>
<g id="a_Node000018"><a xlink:title=" ">
<polygon fill="#e0e0e0" stroke="#999999" points="513.5,-74 457.5,-74 457.5,-55 513.5,-55 513.5,-74"/>
<text text-anchor="middle" x="485.5" y="-62" font-family="Helvetica,sans-Serif" font-size="10.00">sstream</text>
</a>
</g>
</g>
<!-- Node17&#45;&gt;Node18 -->
<g id="edge25_Node000017_Node000018" class="edge">
<title>Node17&#45;&gt;Node18</title>
<g id="a_edge25_Node000017_Node000018"><a xlink:title=" ">
<path fill="none" stroke="#63b8ff" d="M485.5,-109.75C485.5,-102.8 485.5,-92.85 485.5,-84.13"/>
<polygon fill="#63b8ff" stroke="#63b8ff" points="489,-84.09 485.5,-74.09 482,-84.09 489,-84.09"/>
</a>
</g>
</g>
<!-- Node19 -->
<g id="Node000019" class="node">
<title>Node19</title>
<g id="a_Node000019"><a xlink:href="tmap_8h.html" target="_top" xlink:title=" ">
<polygon fill="white" stroke="#666666" points="583,-74 532,-74 532,-55 583,-55 583,-74"/>
<text text-anchor="middle" x="557.5" y="-62" font-family="Helvetica,sans-Serif" font-size="10.00">tmap.h</text>
</a>
</g>
</g>
<!-- Node17&#45;&gt;Node19 -->
<g id="edge27_Node000017_Node000019" class="edge">
<title>Node17&#45;&gt;Node19</title>
<g id="a_edge27_Node000017_Node000019"><a xlink:title=" ">
<path fill="none" stroke="#63b8ff" d="M497.07,-109.98C507.92,-102 524.38,-89.88 537.38,-80.31"/>
<polygon fill="#63b8ff" stroke="#63b8ff" points="539.74,-82.92 545.72,-74.17 535.59,-77.28 539.74,-82.92"/>
</a>
</g>
</g>
<!-- Node19&#45;&gt;Node3 -->
<g id="edge29_Node000019_Node000003" class="edge">
<title>Node19&#45;&gt;Node3</title>
<g id="a_edge29_Node000019_Node000003"><a xlink:title=" ">
<path fill="none" stroke="#63b8ff" d="M556.84,-54.75C556.32,-47.8 555.56,-37.85 554.91,-29.13"/>
<polygon fill="#63b8ff" stroke="#63b8ff" points="558.39,-28.8 554.15,-19.09 551.41,-29.32 558.39,-28.8"/>
</a>
</g>
</g>
<!-- Node19&#45;&gt;Node15 -->
<g id="edge30_Node000019_Node000015" class="edge">
<title>Node19&#45;&gt;Node15</title>
<g id="a_edge30_Node000019_Node000015"><a xlink:title=" ">
<path fill="none" stroke="#63b8ff" d="M571.16,-54.98C584.34,-46.77 604.53,-34.18 620.07,-24.49"/>
<polygon fill="#63b8ff" stroke="#63b8ff" points="621.96,-27.43 628.59,-19.17 618.26,-21.49 621.96,-27.43"/>
</a>
</g>
</g>
<!-- Node20 -->
<g id="Node000020" class="node">
<title>Node20</title>
<g id="a_Node000020"><a xlink:title=" ">
<polygon fill="#e0e0e0" stroke="#999999" points="506.5,-19 468.5,-19 468.5,0 506.5,0 506.5,-19"/>
<text text-anchor="middle" x="487.5" y="-7" font-family="Helvetica,sans-Serif" font-size="10.00">map</text>
</a>
</g>
</g>
<!-- Node19&#45;&gt;Node20 -->
<g id="edge28_Node000019_Node000020" class="edge">
<title>Node19&#45;&gt;Node20</title>
<g id="a_edge28_Node000019_Node000020"><a xlink:title=" ">
<path fill="none" stroke="#63b8ff" d="M546.25,-54.98C535.7,-47 519.7,-34.88 507.06,-25.31"/>
<polygon fill="#63b8ff" stroke="#63b8ff" points="509.04,-22.42 498.95,-19.17 504.81,-28 509.04,-22.42"/>
</a>
</g>
</g>
<!-- Node21 -->
<g id="Node000021" class="node">
<title>Node21</title>
<g id="a_Node000021"><a xlink:title=" ">
<polygon fill="#e0e0e0" stroke="#999999" points="373,-19 328,-19 328,0 373,0 373,-19"/>
<text text-anchor="middle" x="350.5" y="-7" font-family="Helvetica,sans-Serif" font-size="10.00">utility</text>
</a>
</g>
</g>
<!-- Node19&#45;&gt;Node21 -->
<g id="edge31_Node000019_Node000021" class="edge">
<title>Node19&#45;&gt;Node21</title>
<g id="a_edge31_Node000019_Node000021"><a xlink:title=" ">
<path fill="none" stroke="#63b8ff" d="M531.97,-57.1C499.68,-48.98 442.09,-34.44 383.08,-19.13"/>
<polygon fill="#63b8ff" stroke="#63b8ff" points="383.78,-15.69 373.22,-16.57 382.02,-22.47 383.78,-15.69"/>
</a>
</g>
</g>
<!-- Node22 -->
<g id="Node000022" class="node">
<title>Node22</title>
<g id="a_Node000022"><a xlink:title=" ">
<polygon fill="#e0e0e0" stroke="#999999" points="450,-19 391,-19 391,0 450,0 450,-19"/>
<text text-anchor="middle" x="420.5" y="-7" font-family="Helvetica,sans-Serif" font-size="10.00">tmap.tcc</text>
</a>
</g>
</g>
<!-- Node19&#45;&gt;Node22 -->
<g id="edge32_Node000019_Node000022" class="edge">
<title>Node19&#45;&gt;Node22</title>
<g id="a_edge32_Node000019_Node000022"><a xlink:title=" ">
<path fill="none" stroke="#63b8ff" d="M535.49,-54.98C513.05,-46.3 478.02,-32.75 452.51,-22.88"/>
<polygon fill="#63b8ff" stroke="#63b8ff" points="453.5,-19.51 442.91,-19.17 450.98,-26.04 453.5,-19.51"/>
</a>
</g>
</g>
</g>
</svg>
