<?xml version="1.0" encoding="UTF-8" standalone="no"?>
<!DOCTYPE svg PUBLIC "-//W3C//DTD SVG 1.1//EN"
 "http://www.w3.org/Graphics/SVG/1.1/DTD/svg11.dtd">
<!-- Generated by graphviz version 2.43.0 (0)
 -->
<!-- Title: tfile.h Pages: 1 -->
<svg width="861pt" height="308pt"
 viewBox="0.00 0.00 860.63 308.00" xmlns="http://www.w3.org/2000/svg" xmlns:xlink="http://www.w3.org/1999/xlink">
<g id="graph0" class="graph" transform="scale(1 1) rotate(0) translate(4 304)">
<title>tfile.h</title>
<polygon fill="white" stroke="transparent" points="-4,4 -4,-304 856.63,-304 856.63,4 -4,4"/>
<!-- Node1 -->
<g id="node1" class="node">
<title>Node1</title>
<g id="a_node1"><a xlink:title=" ">
<polygon fill="#bfbfbf" stroke="black" points="238.13,-280.5 238.13,-299.5 282.13,-299.5 282.13,-280.5 238.13,-280.5"/>
<text text-anchor="middle" x="260.13" y="-287.5" font-family="Helvetica,sans-Serif" font-size="10.00">tfile.h</text>
</a>
</g>
</g>
<!-- Node2 -->
<g id="node2" class="node">
<title>Node2</title>
<g id="a_node2"><a xlink:href="tbytevector_8h.html" target="_top" xlink:title=" ">
<polygon fill="white" stroke="black" points="186.63,-112.5 186.63,-131.5 267.63,-131.5 267.63,-112.5 186.63,-112.5"/>
<text text-anchor="middle" x="227.13" y="-119.5" font-family="Helvetica,sans-Serif" font-size="10.00">tbytevector.h</text>
</a>
</g>
</g>
<!-- Node1&#45;&gt;Node2 -->
<g id="edge1" class="edge">
<title>Node1&#45;&gt;Node2</title>
<path fill="none" stroke="midnightblue" d="M256.42,-280.29C249.28,-263.06 233.86,-223.22 228.13,-188 225.64,-172.66 225.54,-155.02 225.98,-141.99"/>
<polygon fill="midnightblue" stroke="midnightblue" points="229.48,-142.06 226.46,-131.9 222.49,-141.73 229.48,-142.06"/>
</g>
<!-- Node6 -->
<g id="node6" class="node">
<title>Node6</title>
<g id="a_node6"><a xlink:href="taglib_8h.html" target="_top" xlink:title=" ">
<polygon fill="white" stroke="black" points="303.63,-56.5 303.63,-75.5 356.63,-75.5 356.63,-56.5 303.63,-56.5"/>
<text text-anchor="middle" x="330.13" y="-63.5" font-family="Helvetica,sans-Serif" font-size="10.00">taglib.h</text>
</a>
</g>
</g>
<!-- Node1&#45;&gt;Node6 -->
<g id="edge15" class="edge">
<title>Node1&#45;&gt;Node6</title>
<path fill="none" stroke="midnightblue" d="M282.16,-282.29C330.69,-266.05 444.92,-219.36 475.13,-132 478.04,-123.6 480.4,-119.16 475.13,-112 471.8,-107.48 408.63,-89.03 366.77,-77.2"/>
<polygon fill="midnightblue" stroke="midnightblue" points="367.48,-73.77 356.9,-74.42 365.58,-80.5 367.48,-73.77"/>
</g>
<!-- Node10 -->
<g id="node10" class="node">
<title>Node10</title>
<g id="a_node10"><a xlink:href="taglib__export_8h.html" target="_top" xlink:title=" ">
<polygon fill="white" stroke="black" points="16.13,-56.5 16.13,-75.5 106.13,-75.5 106.13,-56.5 16.13,-56.5"/>
<text text-anchor="middle" x="61.13" y="-63.5" font-family="Helvetica,sans-Serif" font-size="10.00">taglib_export.h</text>
</a>
</g>
</g>
<!-- Node1&#45;&gt;Node10 -->
<g id="edge14" class="edge">
<title>Node1&#45;&gt;Node10</title>
<path fill="none" stroke="midnightblue" d="M237.97,-285.23C194.66,-276.6 99.12,-251.07 54.13,-188 32.32,-157.42 44.33,-110.66 53.6,-85.15"/>
<polygon fill="midnightblue" stroke="midnightblue" points="56.94,-86.21 57.3,-75.62 50.41,-83.68 56.94,-86.21"/>
</g>
<!-- Node11 -->
<g id="node11" class="node">
<title>Node11</title>
<g id="a_node11"><a xlink:href="tiostream_8h.html" target="_top" xlink:title=" ">
<polygon fill="white" stroke="black" points="237.63,-168.5 237.63,-187.5 310.63,-187.5 310.63,-168.5 237.63,-168.5"/>
<text text-anchor="middle" x="274.13" y="-175.5" font-family="Helvetica,sans-Serif" font-size="10.00">tiostream.h</text>
</a>
</g>
</g>
<!-- Node1&#45;&gt;Node11 -->
<g id="edge10" class="edge">
<title>Node1&#45;&gt;Node11</title>
<path fill="none" stroke="midnightblue" d="M261.23,-280.37C263.49,-262.62 268.7,-221.67 271.76,-197.6"/>
<polygon fill="midnightblue" stroke="midnightblue" points="275.25,-197.95 273.04,-187.59 268.3,-197.07 275.25,-197.95"/>
</g>
<!-- Node12 -->
<g id="node12" class="node">
<title>Node12</title>
<g id="a_node12"><a xlink:href="tag_8h.html" target="_top" xlink:title=" ">
<polygon fill="white" stroke="black" points="288.63,-224.5 288.63,-243.5 329.63,-243.5 329.63,-224.5 288.63,-224.5"/>
<text text-anchor="middle" x="309.13" y="-231.5" font-family="Helvetica,sans-Serif" font-size="10.00">tag.h</text>
</a>
</g>
</g>
<!-- Node1&#45;&gt;Node12 -->
<g id="edge16" class="edge">
<title>Node1&#45;&gt;Node12</title>
<path fill="none" stroke="midnightblue" d="M268.22,-280.08C275.29,-272.3 285.72,-260.8 294.28,-251.37"/>
<polygon fill="midnightblue" stroke="midnightblue" points="297.06,-253.51 301.19,-243.75 291.88,-248.8 297.06,-253.51"/>
</g>
<!-- Node3 -->
<g id="node3" class="node">
<title>Node3</title>
<g id="a_node3"><a xlink:title=" ">
<polygon fill="white" stroke="#bfbfbf" points="142.13,-56.5 142.13,-75.5 202.13,-75.5 202.13,-56.5 142.13,-56.5"/>
<text text-anchor="middle" x="172.13" y="-63.5" font-family="Helvetica,sans-Serif" font-size="10.00">iostream</text>
</a>
</g>
</g>
<!-- Node2&#45;&gt;Node3 -->
<g id="edge2" class="edge">
<title>Node2&#45;&gt;Node3</title>
<path fill="none" stroke="midnightblue" d="M218.05,-112.08C209.96,-104.14 197.94,-92.34 188.22,-82.8"/>
<polygon fill="midnightblue" stroke="midnightblue" points="190.63,-80.26 181.04,-75.75 185.73,-85.25 190.63,-80.26"/>
</g>
<!-- Node4 -->
<g id="node4" class="node">
<title>Node4</title>
<g id="a_node4"><a xlink:title=" ">
<polygon fill="white" stroke="#bfbfbf" points="375.13,-56.5 375.13,-75.5 433.13,-75.5 433.13,-56.5 375.13,-56.5"/>
<text text-anchor="middle" x="404.13" y="-63.5" font-family="Helvetica,sans-Serif" font-size="10.00">memory</text>
</a>
</g>
</g>
<!-- Node2&#45;&gt;Node4 -->
<g id="edge3" class="edge">
<title>Node2&#45;&gt;Node4</title>
<path fill="none" stroke="midnightblue" d="M255.18,-112.44C285.21,-103.28 333.04,-88.69 366.37,-78.52"/>
<polygon fill="midnightblue" stroke="midnightblue" points="367.67,-81.78 376.22,-75.52 365.63,-75.09 367.67,-81.78"/>
</g>
<!-- Node5 -->
<g id="node5" class="node">
<title>Node5</title>
<g id="a_node5"><a xlink:title=" ">
<polygon fill="white" stroke="#bfbfbf" points="220.63,-56.5 220.63,-75.5 267.63,-75.5 267.63,-56.5 220.63,-56.5"/>
<text text-anchor="middle" x="244.13" y="-63.5" font-family="Helvetica,sans-Serif" font-size="10.00">vector</text>
</a>
</g>
</g>
<!-- Node2&#45;&gt;Node5 -->
<g id="edge4" class="edge">
<title>Node2&#45;&gt;Node5</title>
<path fill="none" stroke="midnightblue" d="M229.94,-112.08C232.22,-104.85 235.5,-94.41 238.34,-85.4"/>
<polygon fill="midnightblue" stroke="midnightblue" points="241.71,-86.34 241.38,-75.75 235.04,-84.24 241.71,-86.34"/>
</g>
<!-- Node2&#45;&gt;Node6 -->
<g id="edge5" class="edge">
<title>Node2&#45;&gt;Node6</title>
<path fill="none" stroke="midnightblue" d="M243.68,-112.32C260.12,-103.7 285.57,-90.36 304.6,-80.39"/>
<polygon fill="midnightblue" stroke="midnightblue" points="306.39,-83.4 313.62,-75.65 303.14,-77.2 306.39,-83.4"/>
</g>
<!-- Node2&#45;&gt;Node10 -->
<g id="edge9" class="edge">
<title>Node2&#45;&gt;Node10</title>
<path fill="none" stroke="midnightblue" d="M200.83,-112.44C172.78,-103.32 128.19,-88.81 96.95,-78.65"/>
<polygon fill="midnightblue" stroke="midnightblue" points="97.9,-75.28 87.31,-75.52 95.74,-81.94 97.9,-75.28"/>
</g>
<!-- Node7 -->
<g id="node7" class="node">
<title>Node7</title>
<g id="a_node7"><a xlink:title=" ">
<polygon fill="white" stroke="#bfbfbf" points="335.13,-0.5 335.13,-19.5 423.13,-19.5 423.13,-0.5 335.13,-0.5"/>
<text text-anchor="middle" x="379.13" y="-7.5" font-family="Helvetica,sans-Serif" font-size="10.00">taglib_config.h</text>
</a>
</g>
</g>
<!-- Node6&#45;&gt;Node7 -->
<g id="edge6" class="edge">
<title>Node6&#45;&gt;Node7</title>
<path fill="none" stroke="midnightblue" d="M338.22,-56.08C345.29,-48.3 355.72,-36.8 364.28,-27.37"/>
<polygon fill="midnightblue" stroke="midnightblue" points="367.06,-29.51 371.19,-19.75 361.88,-24.8 367.06,-29.51"/>
</g>
<!-- Node8 -->
<g id="node8" class="node">
<title>Node8</title>
<g id="a_node8"><a xlink:title=" ">
<polygon fill="white" stroke="#bfbfbf" points="245.13,-0.5 245.13,-19.5 317.13,-19.5 317.13,-0.5 245.13,-0.5"/>
<text text-anchor="middle" x="281.13" y="-7.5" font-family="Helvetica,sans-Serif" font-size="10.00">sys/types.h</text>
</a>
</g>
</g>
<!-- Node6&#45;&gt;Node8 -->
<g id="edge7" class="edge">
<title>Node6&#45;&gt;Node8</title>
<path fill="none" stroke="midnightblue" d="M322.04,-56.08C314.98,-48.3 304.54,-36.8 295.98,-27.37"/>
<polygon fill="midnightblue" stroke="midnightblue" points="298.38,-24.8 289.07,-19.75 293.2,-29.51 298.38,-24.8"/>
</g>
<!-- Node9 -->
<g id="node9" class="node">
<title>Node9</title>
<g id="a_node9"><a xlink:title=" ">
<polygon fill="white" stroke="#bfbfbf" points="89.13,-0.5 89.13,-19.5 133.13,-19.5 133.13,-0.5 89.13,-0.5"/>
<text text-anchor="middle" x="111.13" y="-7.5" font-family="Helvetica,sans-Serif" font-size="10.00">string</text>
</a>
</g>
</g>
<!-- Node6&#45;&gt;Node9 -->
<g id="edge8" class="edge">
<title>Node6&#45;&gt;Node9</title>
<path fill="none" stroke="midnightblue" d="M303.28,-58.38C262.78,-48.39 186.22,-29.52 142.97,-18.85"/>
<polygon fill="midnightblue" stroke="midnightblue" points="143.79,-15.45 133.25,-16.45 142.12,-22.25 143.79,-15.45"/>
</g>
<!-- Node11&#45;&gt;Node2 -->
<g id="edge11" class="edge">
<title>Node11&#45;&gt;Node2</title>
<path fill="none" stroke="midnightblue" d="M266.37,-168.08C259.59,-160.3 249.59,-148.8 241.38,-139.37"/>
<polygon fill="midnightblue" stroke="midnightblue" points="243.95,-137 234.75,-131.75 238.67,-141.59 243.95,-137"/>
</g>
<!-- Node11&#45;&gt;Node6 -->
<g id="edge13" class="edge">
<title>Node11&#45;&gt;Node6</title>
<path fill="none" stroke="midnightblue" d="M282.67,-168.41C290.76,-159.84 302.74,-145.97 310.13,-132 317.9,-117.32 323.17,-99.16 326.34,-85.76"/>
<polygon fill="midnightblue" stroke="midnightblue" points="329.8,-86.34 328.52,-75.82 322.96,-84.84 329.8,-86.34"/>
</g>
<!-- Node11&#45;&gt;Node10 -->
<g id="edge12" class="edge">
<title>Node11&#45;&gt;Node10</title>
<path fill="none" stroke="midnightblue" d="M239.71,-168.45C212.73,-160.97 174.75,-148.68 144.13,-132 118.95,-118.28 93.5,-97.01 77.54,-82.56"/>
<polygon fill="midnightblue" stroke="midnightblue" points="79.84,-79.92 70.12,-75.71 75.09,-85.06 79.84,-79.92"/>
</g>
<!-- Node12&#45;&gt;Node10 -->
<g id="edge17" class="edge">
<title>Node12&#45;&gt;Node10</title>
<path fill="none" stroke="midnightblue" d="M288.49,-232C236.29,-229.05 100.93,-218.56 70.13,-188 43.18,-161.26 49.72,-112.19 55.95,-85.49"/>
<polygon fill="midnightblue" stroke="midnightblue" points="59.41,-86.1 58.5,-75.55 52.62,-84.36 59.41,-86.1"/>
</g>
<!-- Node13 -->
<g id="node13" class="node">
<title>Node13</title>
<g id="a_node13"><a xlink:href="tstring_8h.html" target="_top" xlink:title=" ">
<polygon fill="white" stroke="black" points="79.63,-168.5 79.63,-187.5 136.63,-187.5 136.63,-168.5 79.63,-168.5"/>
<text text-anchor="middle" x="108.13" y="-175.5" font-family="Helvetica,sans-Serif" font-size="10.00">tstring.h</text>
</a>
</g>
</g>
<!-- Node12&#45;&gt;Node13 -->
<g id="edge18" class="edge">
<title>Node12&#45;&gt;Node13</title>
<path fill="none" stroke="midnightblue" d="M288.38,-227.42C255.02,-218.46 188.95,-200.71 146.73,-189.37"/>
<polygon fill="midnightblue" stroke="midnightblue" points="147.38,-185.92 136.81,-186.7 145.56,-192.68 147.38,-185.92"/>
</g>
<!-- Node14 -->
<g id="node14" class="node">
<title>Node14</title>
<g id="a_node14"><a xlink:href="tlist_8h.html" target="_top" xlink:title=" ">
<polygon fill="white" stroke="black" points="522.13,-112.5 522.13,-131.5 566.13,-131.5 566.13,-112.5 522.13,-112.5"/>
<text text-anchor="middle" x="544.13" y="-119.5" font-family="Helvetica,sans-Serif" font-size="10.00">tlist.h</text>
</a>
</g>
</g>
<!-- Node12&#45;&gt;Node14 -->
<g id="edge24" class="edge">
<title>Node12&#45;&gt;Node14</title>
<path fill="none" stroke="midnightblue" d="M329.85,-226.54C354.48,-218.6 396.58,-204.17 431.13,-188 463.96,-172.64 499.93,-151.06 522.27,-137.06"/>
<polygon fill="midnightblue" stroke="midnightblue" points="524.38,-139.86 530.96,-131.56 520.64,-133.95 524.38,-139.86"/>
</g>
<!-- Node18 -->
<g id="node18" class="node">
<title>Node18</title>
<g id="a_node18"><a xlink:href="tvariant_8h.html" target="_top" xlink:title=" ">
<polygon fill="white" stroke="black" points="358.13,-168.5 358.13,-187.5 422.13,-187.5 422.13,-168.5 358.13,-168.5"/>
<text text-anchor="middle" x="390.13" y="-175.5" font-family="Helvetica,sans-Serif" font-size="10.00">tvariant.h</text>
</a>
</g>
</g>
<!-- Node12&#45;&gt;Node18 -->
<g id="edge30" class="edge">
<title>Node12&#45;&gt;Node18</title>
<path fill="none" stroke="midnightblue" d="M322.15,-224.32C334.66,-215.98 353.81,-203.21 368.6,-193.35"/>
<polygon fill="midnightblue" stroke="midnightblue" points="370.77,-196.11 377.15,-187.65 366.89,-190.29 370.77,-196.11"/>
</g>
<!-- Node13&#45;&gt;Node2 -->
<g id="edge21" class="edge">
<title>Node13&#45;&gt;Node2</title>
<path fill="none" stroke="midnightblue" d="M126.99,-168.44C146.4,-159.64 176.86,-145.81 199.1,-135.72"/>
<polygon fill="midnightblue" stroke="midnightblue" points="200.7,-138.84 208.36,-131.52 197.81,-132.46 200.7,-138.84"/>
</g>
<!-- Node13&#45;&gt;Node3 -->
<g id="edge19" class="edge">
<title>Node13&#45;&gt;Node3</title>
<path fill="none" stroke="midnightblue" d="M113.15,-168.37C123.67,-150.3 148.17,-108.18 162.06,-84.31"/>
<polygon fill="midnightblue" stroke="midnightblue" points="165.13,-86 167.13,-75.59 159.08,-82.47 165.13,-86"/>
</g>
<!-- Node13&#45;&gt;Node6 -->
<g id="edge23" class="edge">
<title>Node13&#45;&gt;Node6</title>
<path fill="none" stroke="midnightblue" d="M136.92,-174.76C172.41,-170.85 233.39,-160.25 277.13,-132 295.79,-119.95 311.04,-99.17 320.31,-84.35"/>
<polygon fill="midnightblue" stroke="midnightblue" points="323.4,-86.01 325.51,-75.63 317.38,-82.42 323.4,-86.01"/>
</g>
<!-- Node13&#45;&gt;Node9 -->
<g id="edge20" class="edge">
<title>Node13&#45;&gt;Node9</title>
<path fill="none" stroke="midnightblue" d="M90.89,-168.44C54.85,-149.38 -22.77,-101.51 7.13,-56 22.92,-31.97 54.56,-20.71 78.83,-15.47"/>
<polygon fill="midnightblue" stroke="midnightblue" points="79.54,-18.9 88.7,-13.58 78.22,-12.03 79.54,-18.9"/>
</g>
<!-- Node13&#45;&gt;Node10 -->
<g id="edge22" class="edge">
<title>Node13&#45;&gt;Node10</title>
<path fill="none" stroke="midnightblue" d="M97.25,-168.27C87.8,-160.01 74.65,-146.72 68.13,-132 61.73,-117.55 60.22,-99.6 60.18,-86.22"/>
<polygon fill="midnightblue" stroke="midnightblue" points="63.69,-85.93 60.43,-75.85 56.69,-85.76 63.69,-85.93"/>
</g>
<!-- Node14&#45;&gt;Node4 -->
<g id="edge27" class="edge">
<title>Node14&#45;&gt;Node4</title>
<path fill="none" stroke="midnightblue" d="M521.95,-112.44C498.7,-103.48 461.98,-89.31 435.72,-79.18"/>
<polygon fill="midnightblue" stroke="midnightblue" points="436.8,-75.85 426.21,-75.52 434.28,-82.38 436.8,-75.85"/>
</g>
<!-- Node14&#45;&gt;Node6 -->
<g id="edge28" class="edge">
<title>Node14&#45;&gt;Node6</title>
<path fill="none" stroke="midnightblue" d="M522.04,-115.42C485.28,-106.15 411.22,-87.46 366.62,-76.21"/>
<polygon fill="midnightblue" stroke="midnightblue" points="367.32,-72.77 356.76,-73.72 365.6,-79.56 367.32,-72.77"/>
</g>
<!-- Node15 -->
<g id="node15" class="node">
<title>Node15</title>
<g id="a_node15"><a xlink:title=" ">
<polygon fill="white" stroke="#bfbfbf" points="451.13,-56.5 451.13,-75.5 483.13,-75.5 483.13,-56.5 451.13,-56.5"/>
<text text-anchor="middle" x="467.13" y="-63.5" font-family="Helvetica,sans-Serif" font-size="10.00">list</text>
</a>
</g>
</g>
<!-- Node14&#45;&gt;Node15 -->
<g id="edge25" class="edge">
<title>Node14&#45;&gt;Node15</title>
<path fill="none" stroke="midnightblue" d="M531.76,-112.32C519.97,-104.06 502,-91.45 488,-81.63"/>
<polygon fill="midnightblue" stroke="midnightblue" points="489.67,-78.53 479.47,-75.65 485.65,-84.26 489.67,-78.53"/>
</g>
<!-- Node16 -->
<g id="node16" class="node">
<title>Node16</title>
<g id="a_node16"><a xlink:title=" ">
<polygon fill="white" stroke="#bfbfbf" points="572.63,-56.5 572.63,-75.5 655.63,-75.5 655.63,-56.5 572.63,-56.5"/>
<text text-anchor="middle" x="614.13" y="-63.5" font-family="Helvetica,sans-Serif" font-size="10.00">initializer_list</text>
</a>
</g>
</g>
<!-- Node14&#45;&gt;Node16 -->
<g id="edge26" class="edge">
<title>Node14&#45;&gt;Node16</title>
<path fill="none" stroke="midnightblue" d="M555.38,-112.32C565.93,-104.18 581.93,-91.84 594.57,-82.09"/>
<polygon fill="midnightblue" stroke="midnightblue" points="596.9,-84.71 602.68,-75.83 592.62,-79.17 596.9,-84.71"/>
</g>
<!-- Node17 -->
<g id="node17" class="node">
<title>Node17</title>
<g id="a_node17"><a xlink:title=" ">
<polygon fill="white" stroke="#bfbfbf" points="501.63,-56.5 501.63,-75.5 554.63,-75.5 554.63,-56.5 501.63,-56.5"/>
<text text-anchor="middle" x="528.13" y="-63.5" font-family="Helvetica,sans-Serif" font-size="10.00">tlist.tcc</text>
</a>
</g>
</g>
<!-- Node14&#45;&gt;Node17 -->
<g id="edge29" class="edge">
<title>Node14&#45;&gt;Node17</title>
<path fill="none" stroke="midnightblue" d="M541.49,-112.08C539.35,-104.85 536.25,-94.41 533.58,-85.4"/>
<polygon fill="midnightblue" stroke="midnightblue" points="536.92,-84.34 530.72,-75.75 530.21,-86.33 536.92,-84.34"/>
</g>
<!-- Node18&#45;&gt;Node3 -->
<g id="edge32" class="edge">
<title>Node18&#45;&gt;Node3</title>
<path fill="none" stroke="midnightblue" d="M376.5,-168.46C355.55,-155.5 313.98,-130.41 277.13,-112 252.93,-99.91 224.71,-87.93 203.63,-79.37"/>
<polygon fill="midnightblue" stroke="midnightblue" points="204.77,-76.06 194.19,-75.58 202.16,-82.55 204.77,-76.06"/>
</g>
<!-- Node18&#45;&gt;Node10 -->
<g id="edge41" class="edge">
<title>Node18&#45;&gt;Node10</title>
<path fill="none" stroke="midnightblue" d="M357.98,-171.57C306.92,-162.73 209.73,-144.89 177.13,-132 161.18,-125.69 159.01,-120.53 144.13,-112 125,-101.02 103.04,-89.15 86.52,-80.36"/>
<polygon fill="midnightblue" stroke="midnightblue" points="87.96,-77.16 77.48,-75.57 84.68,-83.34 87.96,-77.16"/>
</g>
<!-- Node18&#45;&gt;Node14 -->
<g id="edge33" class="edge">
<title>Node18&#45;&gt;Node14</title>
<path fill="none" stroke="midnightblue" d="M414.53,-168.44C440.94,-159.19 483.14,-144.39 512.17,-134.21"/>
<polygon fill="midnightblue" stroke="midnightblue" points="513.57,-137.43 521.84,-130.82 511.25,-130.82 513.57,-137.43"/>
</g>
<!-- Node19 -->
<g id="node19" class="node">
<title>Node19</title>
<g id="a_node19"><a xlink:title=" ">
<polygon fill="white" stroke="#bfbfbf" points="400.63,-112.5 400.63,-131.5 465.63,-131.5 465.63,-112.5 400.63,-112.5"/>
<text text-anchor="middle" x="433.13" y="-119.5" font-family="Helvetica,sans-Serif" font-size="10.00">memory.h</text>
</a>
</g>
</g>
<!-- Node18&#45;&gt;Node19 -->
<g id="edge31" class="edge">
<title>Node18&#45;&gt;Node19</title>
<path fill="none" stroke="midnightblue" d="M397.23,-168.08C403.37,-160.38 412.4,-149.03 419.87,-139.65"/>
<polygon fill="midnightblue" stroke="midnightblue" points="422.67,-141.75 426.16,-131.75 417.2,-137.39 422.67,-141.75"/>
</g>
<!-- Node20 -->
<g id="node20" class="node">
<title>Node20</title>
<g id="a_node20"><a xlink:href="tmap_8h.html" target="_top" xlink:title=" ">
<polygon fill="white" stroke="black" points="588.63,-112.5 588.63,-131.5 639.63,-131.5 639.63,-112.5 588.63,-112.5"/>
<text text-anchor="middle" x="614.13" y="-119.5" font-family="Helvetica,sans-Serif" font-size="10.00">tmap.h</text>
</a>
</g>
</g>
<!-- Node18&#45;&gt;Node20 -->
<g id="edge34" class="edge">
<title>Node18&#45;&gt;Node20</title>
<path fill="none" stroke="midnightblue" d="M422.23,-169.26C463.66,-159.27 535.55,-141.94 578.6,-131.57"/>
<polygon fill="midnightblue" stroke="midnightblue" points="579.46,-134.96 588.36,-129.21 577.82,-128.15 579.46,-134.96"/>
</g>
<!-- Node20&#45;&gt;Node4 -->
<g id="edge36" class="edge">
<title>Node20&#45;&gt;Node4</title>
<path fill="none" stroke="midnightblue" d="M588.38,-114.38C552.08,-105.04 485.57,-87.94 443.17,-77.04"/>
<polygon fill="midnightblue" stroke="midnightblue" points="444.03,-73.64 433.47,-74.54 442.28,-80.42 444.03,-73.64"/>
</g>
<!-- Node20&#45;&gt;Node6 -->
<g id="edge39" class="edge">
<title>Node20&#45;&gt;Node6</title>
<path fill="none" stroke="midnightblue" d="M588.58,-114.89C584.11,-113.88 579.49,-112.88 575.13,-112 485.8,-94.01 460.05,-95.33 366.68,-75.98"/>
<polygon fill="midnightblue" stroke="midnightblue" points="367.32,-72.53 356.82,-73.91 365.89,-79.38 367.32,-72.53"/>
</g>
<!-- Node20&#45;&gt;Node16 -->
<g id="edge37" class="edge">
<title>Node20&#45;&gt;Node16</title>
<path fill="none" stroke="midnightblue" d="M614.13,-112.08C614.13,-105.01 614.13,-94.86 614.13,-85.99"/>
<polygon fill="midnightblue" stroke="midnightblue" points="617.63,-85.75 614.13,-75.75 610.63,-85.75 617.63,-85.75"/>
</g>
<!-- Node21 -->
<g id="node21" class="node">
<title>Node21</title>
<g id="a_node21"><a xlink:title=" ">
<polygon fill="white" stroke="#bfbfbf" points="674.13,-56.5 674.13,-75.5 712.13,-75.5 712.13,-56.5 674.13,-56.5"/>
<text text-anchor="middle" x="693.13" y="-63.5" font-family="Helvetica,sans-Serif" font-size="10.00">map</text>
</a>
</g>
</g>
<!-- Node20&#45;&gt;Node21 -->
<g id="edge35" class="edge">
<title>Node20&#45;&gt;Node21</title>
<path fill="none" stroke="midnightblue" d="M626.82,-112.32C639.03,-103.98 657.71,-91.21 672.13,-81.35"/>
<polygon fill="midnightblue" stroke="midnightblue" points="674.19,-84.19 680.47,-75.65 670.24,-78.41 674.19,-84.19"/>
</g>
<!-- Node22 -->
<g id="node22" class="node">
<title>Node22</title>
<g id="a_node22"><a xlink:title=" ">
<polygon fill="white" stroke="#bfbfbf" points="730.63,-56.5 730.63,-75.5 775.63,-75.5 775.63,-56.5 730.63,-56.5"/>
<text text-anchor="middle" x="753.13" y="-63.5" font-family="Helvetica,sans-Serif" font-size="10.00">utility</text>
</a>
</g>
</g>
<!-- Node20&#45;&gt;Node22 -->
<g id="edge38" class="edge">
<title>Node20&#45;&gt;Node22</title>
<path fill="none" stroke="midnightblue" d="M636.16,-112.44C659.24,-103.48 695.69,-89.31 721.77,-79.18"/>
<polygon fill="midnightblue" stroke="midnightblue" points="723.16,-82.4 731.21,-75.52 720.62,-75.88 723.16,-82.4"/>
</g>
<!-- Node23 -->
<g id="node23" class="node">
<title>Node23</title>
<g id="a_node23"><a xlink:title=" ">
<polygon fill="white" stroke="#bfbfbf" points="793.63,-56.5 793.63,-75.5 852.63,-75.5 852.63,-56.5 793.63,-56.5"/>
<text text-anchor="middle" x="823.13" y="-63.5" font-family="Helvetica,sans-Serif" font-size="10.00">tmap.tcc</text>
</a>
</g>
</g>
<!-- Node20&#45;&gt;Node23 -->
<g id="edge40" class="edge">
<title>Node20&#45;&gt;Node23</title>
<path fill="none" stroke="midnightblue" d="M639.76,-114.38C675.71,-105.09 741.43,-88.11 783.65,-77.2"/>
<polygon fill="midnightblue" stroke="midnightblue" points="784.78,-80.52 793.59,-74.63 783.03,-73.75 784.78,-80.52"/>
</g>
</g>
</svg>
