<?xml version="1.0" encoding="UTF-8" standalone="no"?>
<!DOCTYPE svg PUBLIC "-//W3C//DTD SVG 1.1//EN"
 "http://www.w3.org/Graphics/SVG/1.1/DTD/svg11.dtd">
<!-- Generated by graphviz version 2.42.4 (0)
 -->
<!-- Title: tfile.h Pages: 1 -->
<svg width="1493pt" height="302pt"
 viewBox="0.00 0.00 1492.50 302.00" xmlns="http://www.w3.org/2000/svg" xmlns:xlink="http://www.w3.org/1999/xlink">
<g id="graph0" class="graph" transform="scale(1 1) rotate(0) translate(4 298)">
<title>tfile.h</title>
<!-- Node1 -->
<g id="Node000001" class="node">
<title>Node1</title>
<g id="a_Node000001"><a xlink:title=" ">
<polygon fill="#999999" stroke="#666666" points="709.5,-294 665.5,-294 665.5,-275 709.5,-275 709.5,-294"/>
<text text-anchor="middle" x="687.5" y="-282" font-family="Helvetica,sans-Serif" font-size="10.00">tfile.h</text>
</a>
</g>
</g>
<!-- Node2 -->
<g id="Node000002" class="node">
<title>Node2</title>
<g id="a_Node000002"><a xlink:href="apefile_8h.html" target="_top" xlink:title=" ">
<polygon fill="white" stroke="#666666" points="59,-239 0,-239 0,-220 59,-220 59,-239"/>
<text text-anchor="middle" x="29.5" y="-227" font-family="Helvetica,sans-Serif" font-size="10.00">apefile.h</text>
</a>
</g>
</g>
<!-- Node1&#45;&gt;Node2 -->
<g id="edge1_Node000001_Node000002" class="edge">
<title>Node1&#45;&gt;Node2</title>
<g id="a_edge1_Node000001_Node000002"><a xlink:title=" ">
<path fill="none" stroke="#63b8ff" d="M655.39,-282.81C563.48,-280.48 291.61,-271.16 68.5,-239 65.48,-238.56 62.35,-238.03 59.23,-237.44"/>
<polygon fill="#63b8ff" stroke="#63b8ff" points="655.37,-286.31 665.45,-283.05 655.54,-279.31 655.37,-286.31"/>
</a>
</g>
</g>
<!-- Node3 -->
<g id="Node000003" class="node">
<title>Node3</title>
<g id="a_Node000003"><a xlink:href="asffile_8h.html" target="_top" xlink:title=" ">
<polygon fill="white" stroke="#666666" points="133.5,-239 77.5,-239 77.5,-220 133.5,-220 133.5,-239"/>
<text text-anchor="middle" x="105.5" y="-227" font-family="Helvetica,sans-Serif" font-size="10.00">asffile.h</text>
</a>
</g>
</g>
<!-- Node1&#45;&gt;Node3 -->
<g id="edge2_Node000001_Node000003" class="edge">
<title>Node1&#45;&gt;Node3</title>
<g id="a_edge2_Node000001_Node000003"><a xlink:title=" ">
<path fill="none" stroke="#63b8ff" d="M655.3,-282.49C570.76,-279.5 335.7,-268.92 142.5,-239 139.63,-238.56 136.66,-238.01 133.7,-237.42"/>
<polygon fill="#63b8ff" stroke="#63b8ff" points="655.19,-285.99 665.3,-282.84 655.43,-279 655.19,-285.99"/>
</a>
</g>
</g>
<!-- Node4 -->
<g id="Node000004" class="node">
<title>Node4</title>
<g id="a_Node000004"><a xlink:href="dsdifffile_8h.html" target="_top" xlink:title=" ">
<polygon fill="white" stroke="#666666" points="219.5,-239 151.5,-239 151.5,-220 219.5,-220 219.5,-239"/>
<text text-anchor="middle" x="185.5" y="-227" font-family="Helvetica,sans-Serif" font-size="10.00">dsdifffile.h</text>
</a>
</g>
</g>
<!-- Node1&#45;&gt;Node4 -->
<g id="edge3_Node000001_Node000004" class="edge">
<title>Node1&#45;&gt;Node4</title>
<g id="a_edge3_Node000001_Node000004"><a xlink:title=" ">
<path fill="none" stroke="#63b8ff" d="M655.21,-281.47C580.08,-276.5 387.8,-262.41 228.5,-239 225.64,-238.58 222.68,-238.1 219.71,-237.58"/>
<polygon fill="#63b8ff" stroke="#63b8ff" points="655.22,-284.98 665.43,-282.14 655.68,-277.99 655.22,-284.98"/>
</a>
</g>
</g>
<!-- Node5 -->
<g id="Node000005" class="node">
<title>Node5</title>
<g id="a_Node000005"><a xlink:href="dsffile_8h.html" target="_top" xlink:title=" ">
<polygon fill="white" stroke="#666666" points="293.5,-239 237.5,-239 237.5,-220 293.5,-220 293.5,-239"/>
<text text-anchor="middle" x="265.5" y="-227" font-family="Helvetica,sans-Serif" font-size="10.00">dsffile.h</text>
</a>
</g>
</g>
<!-- Node1&#45;&gt;Node5 -->
<g id="edge4_Node000001_Node000005" class="edge">
<title>Node1&#45;&gt;Node5</title>
<g id="a_edge4_Node000001_Node000005"><a xlink:title=" ">
<path fill="none" stroke="#63b8ff" d="M654.99,-280.97C588.48,-275.51 432.21,-261.32 302.5,-239 299.64,-238.51 296.67,-237.93 293.72,-237.32"/>
<polygon fill="#63b8ff" stroke="#63b8ff" points="654.99,-284.48 665.24,-281.8 655.56,-277.5 654.99,-284.48"/>
</a>
</g>
</g>
<!-- Node6 -->
<g id="Node000006" class="node">
<title>Node6</title>
<g id="a_Node000006"><a xlink:href="fileref_8h.html" target="_top" xlink:title=" ">
<polygon fill="white" stroke="#666666" points="365,-239 312,-239 312,-220 365,-220 365,-239"/>
<text text-anchor="middle" x="338.5" y="-227" font-family="Helvetica,sans-Serif" font-size="10.00">fileref.h</text>
</a>
</g>
</g>
<!-- Node1&#45;&gt;Node6 -->
<g id="edge5_Node000001_Node000006" class="edge">
<title>Node1&#45;&gt;Node6</title>
<g id="a_edge5_Node000001_Node000006"><a xlink:title=" ">
<path fill="none" stroke="#63b8ff" d="M655.2,-279.89C598.24,-273.3 476.34,-258.22 374.5,-239 371.47,-238.43 368.31,-237.77 365.18,-237.08"/>
<polygon fill="#63b8ff" stroke="#63b8ff" points="655.04,-283.39 665.38,-281.05 655.84,-276.44 655.04,-283.39"/>
</a>
</g>
</g>
<!-- Node7 -->
<g id="Node000007" class="node">
<title>Node7</title>
<g id="a_Node000007"><a xlink:href="flacfile_8h.html" target="_top" xlink:title=" ">
<polygon fill="white" stroke="#666666" points="441.5,-239 383.5,-239 383.5,-220 441.5,-220 441.5,-239"/>
<text text-anchor="middle" x="412.5" y="-227" font-family="Helvetica,sans-Serif" font-size="10.00">flacfile.h</text>
</a>
</g>
</g>
<!-- Node1&#45;&gt;Node7 -->
<g id="edge6_Node000001_Node000007" class="edge">
<title>Node1&#45;&gt;Node7</title>
<g id="a_edge6_Node000001_Node000007"><a xlink:title=" ">
<path fill="none" stroke="#63b8ff" d="M655.43,-277.41C610.65,-268.89 526.87,-252.9 455.5,-239 451.02,-238.13 446.28,-237.2 441.64,-236.28"/>
<polygon fill="#63b8ff" stroke="#63b8ff" points="654.94,-280.88 665.42,-279.31 656.25,-274 654.94,-280.88"/>
</a>
</g>
</g>
<!-- Node8 -->
<g id="Node000008" class="node">
<title>Node8</title>
<g id="a_Node000008"><a xlink:href="itfile_8h.html" target="_top" xlink:title=" ">
<polygon fill="white" stroke="#666666" points="457,-184 410,-184 410,-165 457,-165 457,-184"/>
<text text-anchor="middle" x="433.5" y="-172" font-family="Helvetica,sans-Serif" font-size="10.00">itfile.h</text>
</a>
</g>
</g>
<!-- Node1&#45;&gt;Node8 -->
<g id="edge7_Node000001_Node000008" class="edge">
<title>Node1&#45;&gt;Node8</title>
<g id="a_edge7_Node000001_Node000008"><a xlink:title=" ">
<path fill="none" stroke="#63b8ff" d="M655.24,-279.63C618.78,-274.3 558.41,-262.56 511.5,-239 482.79,-224.58 455.05,-198.08 441.73,-184.32"/>
<polygon fill="#63b8ff" stroke="#63b8ff" points="654.91,-283.12 665.3,-281.02 655.88,-276.18 654.91,-283.12"/>
</a>
</g>
</g>
<!-- Node9 -->
<g id="Node000009" class="node">
<title>Node9</title>
<g id="a_Node000009"><a xlink:href="modfile_8h.html" target="_top" xlink:title=" ">
<polygon fill="white" stroke="#666666" points="537.5,-184 475.5,-184 475.5,-165 537.5,-165 537.5,-184"/>
<text text-anchor="middle" x="506.5" y="-172" font-family="Helvetica,sans-Serif" font-size="10.00">modfile.h</text>
</a>
</g>
</g>
<!-- Node1&#45;&gt;Node9 -->
<g id="edge8_Node000001_Node000009" class="edge">
<title>Node1&#45;&gt;Node9</title>
<g id="a_edge8_Node000001_Node000009"><a xlink:title=" ">
<path fill="none" stroke="#63b8ff" d="M655.3,-283.3C619.25,-281.32 561.35,-272.63 526.5,-239 511.2,-224.23 507.56,-197.89 506.72,-184.24"/>
<polygon fill="#63b8ff" stroke="#63b8ff" points="655.15,-286.8 665.29,-283.71 655.44,-279.8 655.15,-286.8"/>
</a>
</g>
</g>
<!-- Node10 -->
<g id="Node000010" class="node">
<title>Node10</title>
<g id="a_Node000010"><a xlink:href="modfilebase_8h.html" target="_top" xlink:title=" ">
<polygon fill="white" stroke="#666666" points="621.5,-239 535.5,-239 535.5,-220 621.5,-220 621.5,-239"/>
<text text-anchor="middle" x="578.5" y="-227" font-family="Helvetica,sans-Serif" font-size="10.00">modfilebase.h</text>
</a>
</g>
</g>
<!-- Node1&#45;&gt;Node10 -->
<g id="edge9_Node000001_Node000010" class="edge">
<title>Node1&#45;&gt;Node10</title>
<g id="a_edge9_Node000001_Node000010"><a xlink:title=" ">
<path fill="none" stroke="#63b8ff" d="M660.77,-270.5C640.71,-260.75 613.82,-247.68 596.33,-239.17"/>
<polygon fill="#63b8ff" stroke="#63b8ff" points="659.46,-273.76 669.99,-274.98 662.52,-267.46 659.46,-273.76"/>
</a>
</g>
</g>
<!-- Node11 -->
<g id="Node000011" class="node">
<title>Node11</title>
<g id="a_Node000011"><a xlink:href="s3mfile_8h.html" target="_top" xlink:title=" ">
<polygon fill="white" stroke="#666666" points="617.5,-184 555.5,-184 555.5,-165 617.5,-165 617.5,-184"/>
<text text-anchor="middle" x="586.5" y="-172" font-family="Helvetica,sans-Serif" font-size="10.00">s3mfile.h</text>
</a>
</g>
</g>
<!-- Node1&#45;&gt;Node11 -->
<g id="edge33_Node000001_Node000011" class="edge">
<title>Node1&#45;&gt;Node11</title>
<g id="a_edge33_Node000001_Node000011"><a xlink:title=" ">
<path fill="none" stroke="#63b8ff" d="M673.19,-267.13C661.79,-254.19 645.33,-235.74 630.5,-220 618.58,-207.35 604.37,-193.13 595.39,-184.24"/>
<polygon fill="#63b8ff" stroke="#63b8ff" points="670.66,-269.55 679.89,-274.75 675.92,-264.93 670.66,-269.55"/>
</a>
</g>
</g>
<!-- Node12 -->
<g id="Node000012" class="node">
<title>Node12</title>
<g id="a_Node000012"><a xlink:href="xmfile_8h.html" target="_top" xlink:title=" ">
<polygon fill="white" stroke="#666666" points="691.5,-184 635.5,-184 635.5,-165 691.5,-165 691.5,-184"/>
<text text-anchor="middle" x="663.5" y="-172" font-family="Helvetica,sans-Serif" font-size="10.00">xmfile.h</text>
</a>
</g>
</g>
<!-- Node1&#45;&gt;Node12 -->
<g id="edge37_Node000001_Node000012" class="edge">
<title>Node1&#45;&gt;Node12</title>
<g id="a_edge37_Node000001_Node000012"><a xlink:title=" ">
<path fill="none" stroke="#63b8ff" d="M683.35,-264.8C678.1,-241.2 669.29,-201.58 665.42,-184.16"/>
<polygon fill="#63b8ff" stroke="#63b8ff" points="679.95,-265.66 685.54,-274.66 686.78,-264.14 679.95,-265.66"/>
</a>
</g>
</g>
<!-- Node13 -->
<g id="Node000013" class="node">
<title>Node13</title>
<g id="a_Node000013"><a xlink:href="mp4atom_8h.html" target="_top" xlink:title=" ">
<polygon fill="white" stroke="#666666" points="827,-239 754,-239 754,-220 827,-220 827,-239"/>
<text text-anchor="middle" x="790.5" y="-227" font-family="Helvetica,sans-Serif" font-size="10.00">mp4atom.h</text>
</a>
</g>
</g>
<!-- Node1&#45;&gt;Node13 -->
<g id="edge14_Node000001_Node000013" class="edge">
<title>Node1&#45;&gt;Node13</title>
<g id="a_edge14_Node000001_Node000013"><a xlink:title=" ">
<path fill="none" stroke="#63b8ff" d="M713.02,-270.37C731.94,-260.63 757.2,-247.64 773.65,-239.17"/>
<polygon fill="#63b8ff" stroke="#63b8ff" points="711.34,-267.3 704.05,-274.98 714.54,-273.52 711.34,-267.3"/>
</a>
</g>
</g>
<!-- Node17 -->
<g id="Node000017" class="node">
<title>Node17</title>
<g id="a_Node000017"><a xlink:href="mp4tag_8h.html" target="_top" xlink:title=" ">
<polygon fill="white" stroke="#666666" points="932,-74 869,-74 869,-55 932,-55 932,-74"/>
<text text-anchor="middle" x="900.5" y="-62" font-family="Helvetica,sans-Serif" font-size="10.00">mp4tag.h</text>
</a>
</g>
</g>
<!-- Node1&#45;&gt;Node17 -->
<g id="edge22_Node000001_Node000017" class="edge">
<title>Node1&#45;&gt;Node17</title>
<g id="a_edge22_Node000001_Node000017"><a xlink:title=" ">
<path fill="none" stroke="#63b8ff" d="M720.04,-280.86C752.46,-276.72 802.09,-266.12 835.5,-239 889.2,-195.42 898.55,-102.66 900.16,-74.07"/>
<polygon fill="#63b8ff" stroke="#63b8ff" points="719.29,-277.42 709.75,-282.03 720.09,-284.38 719.29,-277.42"/>
</a>
</g>
</g>
<!-- Node18 -->
<g id="Node000018" class="node">
<title>Node18</title>
<g id="a_Node000018"><a xlink:href="mp4file_8h.html" target="_top" xlink:title=" ">
<polygon fill="white" stroke="#666666" points="840.5,-19 778.5,-19 778.5,0 840.5,0 840.5,-19"/>
<text text-anchor="middle" x="809.5" y="-7" font-family="Helvetica,sans-Serif" font-size="10.00">mp4file.h</text>
</a>
</g>
</g>
<!-- Node1&#45;&gt;Node18 -->
<g id="edge21_Node000001_Node000018" class="edge">
<title>Node1&#45;&gt;Node18</title>
<g id="a_edge21_Node000001_Node000018"><a xlink:title=" ">
<path fill="none" stroke="#63b8ff" d="M689.77,-264.98C695.96,-216.87 714.28,-89.26 738.5,-55 750.42,-38.13 770.96,-26.28 786.89,-19.08"/>
<polygon fill="#63b8ff" stroke="#63b8ff" points="686.29,-264.57 688.52,-274.93 693.24,-265.45 686.29,-264.57"/>
</a>
</g>
</g>
<!-- Node19 -->
<g id="Node000019" class="node">
<title>Node19</title>
<g id="a_Node000019"><a xlink:href="mpcfile_8h.html" target="_top" xlink:title=" ">
<polygon fill="white" stroke="#666666" points="945.5,-239 883.5,-239 883.5,-220 945.5,-220 945.5,-239"/>
<text text-anchor="middle" x="914.5" y="-227" font-family="Helvetica,sans-Serif" font-size="10.00">mpcfile.h</text>
</a>
</g>
</g>
<!-- Node1&#45;&gt;Node19 -->
<g id="edge23_Node000001_Node000019" class="edge">
<title>Node1&#45;&gt;Node19</title>
<g id="a_edge23_Node000001_Node000019"><a xlink:title=" ">
<path fill="none" stroke="#63b8ff" d="M719.44,-276.04C762.89,-265.9 840.13,-247.86 883.23,-237.8"/>
<polygon fill="#63b8ff" stroke="#63b8ff" points="718.62,-272.64 709.68,-278.32 720.21,-279.46 718.62,-272.64"/>
</a>
</g>
</g>
<!-- Node20 -->
<g id="Node000020" class="node">
<title>Node20</title>
<g id="a_Node000020"><a xlink:href="mpegfile_8h.html" target="_top" xlink:title=" ">
<polygon fill="white" stroke="#666666" points="1031.5,-239 963.5,-239 963.5,-220 1031.5,-220 1031.5,-239"/>
<text text-anchor="middle" x="997.5" y="-227" font-family="Helvetica,sans-Serif" font-size="10.00">mpegfile.h</text>
</a>
</g>
</g>
<!-- Node1&#45;&gt;Node20 -->
<g id="edge24_Node000001_Node000020" class="edge">
<title>Node1&#45;&gt;Node20</title>
<g id="a_edge24_Node000001_Node000020"><a xlink:title=" ">
<path fill="none" stroke="#63b8ff" d="M719.62,-278.47C769.83,-270.52 869.9,-254.41 954.5,-239 957.34,-238.48 960.29,-237.93 963.25,-237.37"/>
<polygon fill="#63b8ff" stroke="#63b8ff" points="719.02,-275.02 709.69,-280.03 720.12,-281.93 719.02,-275.02"/>
</a>
</g>
</g>
<!-- Node21 -->
<g id="Node000021" class="node">
<title>Node21</title>
<g id="a_Node000021"><a xlink:href="oggfile_8h.html" target="_top" xlink:title=" ">
<polygon fill="white" stroke="#666666" points="1109,-239 1050,-239 1050,-220 1109,-220 1109,-239"/>
<text text-anchor="middle" x="1079.5" y="-227" font-family="Helvetica,sans-Serif" font-size="10.00">oggfile.h</text>
</a>
</g>
</g>
<!-- Node1&#45;&gt;Node21 -->
<g id="edge25_Node000001_Node000021" class="edge">
<title>Node1&#45;&gt;Node21</title>
<g id="a_edge25_Node000001_Node000021"><a xlink:title=" ">
<path fill="none" stroke="#63b8ff" d="M719.92,-280.39C782.26,-274.2 923.1,-259.15 1040.5,-239 1043.51,-238.48 1046.63,-237.89 1049.74,-237.27"/>
<polygon fill="#63b8ff" stroke="#63b8ff" points="719.51,-276.91 709.9,-281.38 720.2,-283.88 719.51,-276.91"/>
</a>
</g>
</g>
<!-- Node26 -->
<g id="Node000026" class="node">
<title>Node26</title>
<g id="a_Node000026"><a xlink:href="rifffile_8h.html" target="_top" xlink:title=" ">
<polygon fill="white" stroke="#666666" points="1181.5,-239 1127.5,-239 1127.5,-220 1181.5,-220 1181.5,-239"/>
<text text-anchor="middle" x="1154.5" y="-227" font-family="Helvetica,sans-Serif" font-size="10.00">rifffile.h</text>
</a>
</g>
</g>
<!-- Node1&#45;&gt;Node26 -->
<g id="edge30_Node000001_Node000026" class="edge">
<title>Node1&#45;&gt;Node26</title>
<g id="a_edge30_Node000001_Node000026"><a xlink:title=" ">
<path fill="none" stroke="#63b8ff" d="M719.84,-281.59C791.85,-277.03 970.7,-263.97 1118.5,-239 1121.41,-238.51 1124.44,-237.92 1127.45,-237.28"/>
<polygon fill="#63b8ff" stroke="#63b8ff" points="719.38,-278.11 709.61,-282.23 719.81,-285.1 719.38,-278.11"/>
</a>
</g>
</g>
<!-- Node29 -->
<g id="Node000029" class="node">
<title>Node29</title>
<g id="a_Node000029"><a xlink:href="shortenfile_8h.html" target="_top" xlink:title=" ">
<polygon fill="white" stroke="#666666" points="1277,-239 1200,-239 1200,-220 1277,-220 1277,-239"/>
<text text-anchor="middle" x="1238.5" y="-227" font-family="Helvetica,sans-Serif" font-size="10.00">shortenfile.h</text>
</a>
</g>
</g>
<!-- Node1&#45;&gt;Node29 -->
<g id="edge34_Node000001_Node000029" class="edge">
<title>Node1&#45;&gt;Node29</title>
<g id="a_edge34_Node000001_Node000029"><a xlink:title=" ">
<path fill="none" stroke="#63b8ff" d="M720.05,-281.61C800.26,-276.72 1013.7,-262.43 1190.5,-239 1193.52,-238.6 1196.64,-238.14 1199.77,-237.66"/>
<polygon fill="#63b8ff" stroke="#63b8ff" points="719.41,-278.14 709.64,-282.23 719.83,-285.12 719.41,-278.14"/>
</a>
</g>
</g>
<!-- Node30 -->
<g id="Node000030" class="node">
<title>Node30</title>
<g id="a_Node000030"><a xlink:href="trueaudiofile_8h.html" target="_top" xlink:title=" ">
<polygon fill="white" stroke="#666666" points="1382,-239 1295,-239 1295,-220 1382,-220 1382,-239"/>
<text text-anchor="middle" x="1338.5" y="-227" font-family="Helvetica,sans-Serif" font-size="10.00">trueaudiofile.h</text>
</a>
</g>
</g>
<!-- Node1&#45;&gt;Node30 -->
<g id="edge35_Node000001_Node000030" class="edge">
<title>Node1&#45;&gt;Node30</title>
<g id="a_edge35_Node000001_Node000030"><a xlink:title=" ">
<path fill="none" stroke="#63b8ff" d="M719.69,-282.11C809.58,-278 1070.82,-264.59 1286.5,-239 1289.23,-238.68 1292.03,-238.31 1294.85,-237.92"/>
<polygon fill="#63b8ff" stroke="#63b8ff" points="719.43,-278.61 709.6,-282.56 719.74,-285.61 719.43,-278.61"/>
</a>
</g>
</g>
<!-- Node31 -->
<g id="Node000031" class="node">
<title>Node31</title>
<g id="a_Node000031"><a xlink:href="wavpackfile_8h.html" target="_top" xlink:title=" ">
<polygon fill="white" stroke="#666666" points="1484.5,-239 1400.5,-239 1400.5,-220 1484.5,-220 1484.5,-239"/>
<text text-anchor="middle" x="1442.5" y="-227" font-family="Helvetica,sans-Serif" font-size="10.00">wavpackfile.h</text>
</a>
</g>
</g>
<!-- Node1&#45;&gt;Node31 -->
<g id="edge36_Node000001_Node000031" class="edge">
<title>Node1&#45;&gt;Node31</title>
<g id="a_edge36_Node000001_Node000031"><a xlink:title=" ">
<path fill="none" stroke="#63b8ff" d="M719.85,-282.63C819.96,-279.68 1133.53,-268.57 1391.5,-239 1394.35,-238.67 1397.29,-238.29 1400.25,-237.88"/>
<polygon fill="#63b8ff" stroke="#63b8ff" points="719.66,-279.13 709.77,-282.92 719.86,-286.13 719.66,-279.13"/>
</a>
</g>
</g>
<!-- Node10&#45;&gt;Node8 -->
<g id="edge10_Node000010_Node000008" class="edge">
<title>Node10&#45;&gt;Node8</title>
<g id="a_edge10_Node000010_Node000008"><a xlink:title=" ">
<path fill="none" stroke="#63b8ff" d="M545.81,-216.55C518.88,-206.71 481.34,-192.98 457.22,-184.17"/>
<polygon fill="#63b8ff" stroke="#63b8ff" points="544.61,-219.84 555.2,-219.98 547.01,-213.26 544.61,-219.84"/>
</a>
</g>
</g>
<!-- Node10&#45;&gt;Node9 -->
<g id="edge11_Node000010_Node000009" class="edge">
<title>Node10&#45;&gt;Node9</title>
<g id="a_edge11_Node000010_Node000009"><a xlink:title=" ">
<path fill="none" stroke="#63b8ff" d="M558.63,-213.88C545.68,-204.34 529.2,-192.21 518.28,-184.17"/>
<polygon fill="#63b8ff" stroke="#63b8ff" points="556.8,-216.88 566.93,-219.98 560.95,-211.24 556.8,-216.88"/>
</a>
</g>
</g>
<!-- Node10&#45;&gt;Node11 -->
<g id="edge12_Node000010_Node000011" class="edge">
<title>Node10&#45;&gt;Node11</title>
<g id="a_edge12_Node000010_Node000011"><a xlink:title=" ">
<path fill="none" stroke="#63b8ff" d="M581.34,-209.66C582.66,-200.93 584.16,-190.99 585.2,-184.09"/>
<polygon fill="#63b8ff" stroke="#63b8ff" points="577.85,-209.34 579.82,-219.75 584.77,-210.38 577.85,-209.34"/>
</a>
</g>
</g>
<!-- Node10&#45;&gt;Node12 -->
<g id="edge13_Node000010_Node000012" class="edge">
<title>Node10&#45;&gt;Node12</title>
<g id="a_edge13_Node000010_Node000012"><a xlink:title=" ">
<path fill="none" stroke="#63b8ff" d="M601.07,-214.42C616.5,-204.81 636.45,-192.37 649.59,-184.17"/>
<polygon fill="#63b8ff" stroke="#63b8ff" points="598.79,-211.72 592.16,-219.98 602.49,-217.66 598.79,-211.72"/>
</a>
</g>
</g>
<!-- Node14 -->
<g id="Node000014" class="node">
<title>Node14</title>
<g id="a_Node000014"><a xlink:href="mp4coverart_8h.html" target="_top" xlink:title=" ">
<polygon fill="white" stroke="#666666" points="835.5,-184 747.5,-184 747.5,-165 835.5,-165 835.5,-184"/>
<text text-anchor="middle" x="791.5" y="-172" font-family="Helvetica,sans-Serif" font-size="10.00">mp4coverart.h</text>
</a>
</g>
</g>
<!-- Node13&#45;&gt;Node14 -->
<g id="edge15_Node000013_Node000014" class="edge">
<title>Node13&#45;&gt;Node14</title>
<g id="a_edge15_Node000013_Node000014"><a xlink:title=" ">
<path fill="none" stroke="#63b8ff" d="M790.86,-209.66C791.02,-200.93 791.21,-190.99 791.34,-184.09"/>
<polygon fill="#63b8ff" stroke="#63b8ff" points="787.35,-209.68 790.67,-219.75 794.35,-209.82 787.35,-209.68"/>
</a>
</g>
</g>
<!-- Node13&#45;&gt;Node17 -->
<g id="edge20_Node000013_Node000017" class="edge">
<title>Node13&#45;&gt;Node17</title>
<g id="a_edge20_Node000013_Node000017"><a xlink:title=" ">
<path fill="none" stroke="#63b8ff" d="M812.36,-213.97C823.06,-206.05 835.52,-195.53 844.5,-184 872.74,-147.73 891.28,-94.92 897.85,-74.25"/>
<polygon fill="#63b8ff" stroke="#63b8ff" points="810.04,-211.32 803.91,-219.97 814.09,-217.03 810.04,-211.32"/>
</a>
</g>
</g>
<!-- Node15 -->
<g id="Node000015" class="node">
<title>Node15</title>
<g id="a_Node000015"><a xlink:href="mp4item_8h.html" target="_top" xlink:title=" ">
<polygon fill="white" stroke="#666666" points="834.5,-129 764.5,-129 764.5,-110 834.5,-110 834.5,-129"/>
<text text-anchor="middle" x="799.5" y="-117" font-family="Helvetica,sans-Serif" font-size="10.00">mp4item.h</text>
</a>
</g>
</g>
<!-- Node14&#45;&gt;Node15 -->
<g id="edge16_Node000014_Node000015" class="edge">
<title>Node14&#45;&gt;Node15</title>
<g id="a_edge16_Node000014_Node000015"><a xlink:title=" ">
<path fill="none" stroke="#63b8ff" d="M794.34,-154.66C795.66,-145.93 797.16,-135.99 798.2,-129.09"/>
<polygon fill="#63b8ff" stroke="#63b8ff" points="790.85,-154.34 792.82,-164.75 797.77,-155.38 790.85,-154.34"/>
</a>
</g>
</g>
<!-- Node16 -->
<g id="Node000016" class="node">
<title>Node16</title>
<g id="a_Node000016"><a xlink:href="mp4itemfactory_8h.html" target="_top" xlink:title=" ">
<polygon fill="white" stroke="#666666" points="851,-74 748,-74 748,-55 851,-55 851,-74"/>
<text text-anchor="middle" x="799.5" y="-62" font-family="Helvetica,sans-Serif" font-size="10.00">mp4itemfactory.h</text>
</a>
</g>
</g>
<!-- Node15&#45;&gt;Node16 -->
<g id="edge17_Node000015_Node000016" class="edge">
<title>Node15&#45;&gt;Node16</title>
<g id="a_edge17_Node000015_Node000016"><a xlink:title=" ">
<path fill="none" stroke="#63b8ff" d="M799.5,-99.66C799.5,-90.93 799.5,-80.99 799.5,-74.09"/>
<polygon fill="#63b8ff" stroke="#63b8ff" points="796,-99.75 799.5,-109.75 803,-99.75 796,-99.75"/>
</a>
</g>
</g>
<!-- Node15&#45;&gt;Node17 -->
<g id="edge18_Node000015_Node000017" class="edge">
<title>Node15&#45;&gt;Node17</title>
<g id="a_edge18_Node000015_Node000017"><a xlink:title=" ">
<path fill="none" stroke="#63b8ff" d="M824.78,-105.23C843.3,-95.51 867.92,-82.6 883.98,-74.17"/>
<polygon fill="#63b8ff" stroke="#63b8ff" points="822.96,-102.24 815.73,-109.98 826.21,-108.44 822.96,-102.24"/>
</a>
</g>
</g>
<!-- Node17&#45;&gt;Node18 -->
<g id="edge19_Node000017_Node000018" class="edge">
<title>Node17&#45;&gt;Node18</title>
<g id="a_edge19_Node000017_Node000018"><a xlink:title=" ">
<path fill="none" stroke="#63b8ff" d="M876.8,-49.7C860.22,-40.04 838.59,-27.44 824.39,-19.17"/>
<polygon fill="#63b8ff" stroke="#63b8ff" points="875.48,-52.98 885.88,-54.98 879,-46.93 875.48,-52.98"/>
</a>
</g>
</g>
<!-- Node22 -->
<g id="Node000022" class="node">
<title>Node22</title>
<g id="a_Node000022"><a xlink:href="oggflacfile_8h.html" target="_top" xlink:title=" ">
<polygon fill="white" stroke="#666666" points="1183.5,-184 1107.5,-184 1107.5,-165 1183.5,-165 1183.5,-184"/>
<text text-anchor="middle" x="1145.5" y="-172" font-family="Helvetica,sans-Serif" font-size="10.00">oggflacfile.h</text>
</a>
</g>
</g>
<!-- Node21&#45;&gt;Node22 -->
<g id="edge26_Node000021_Node000022" class="edge">
<title>Node21&#45;&gt;Node22</title>
<g id="a_edge26_Node000021_Node000022"><a xlink:title=" ">
<path fill="none" stroke="#63b8ff" d="M1098.05,-213.6C1109.88,-204.11 1124.79,-192.13 1134.7,-184.17"/>
<polygon fill="#63b8ff" stroke="#63b8ff" points="1095.71,-210.99 1090.1,-219.98 1100.09,-216.45 1095.71,-210.99"/>
</a>
</g>
</g>
<!-- Node23 -->
<g id="Node000023" class="node">
<title>Node23</title>
<g id="a_Node000023"><a xlink:href="opusfile_8h.html" target="_top" xlink:title=" ">
<polygon fill="white" stroke="#666666" points="1265.5,-184 1201.5,-184 1201.5,-165 1265.5,-165 1265.5,-184"/>
<text text-anchor="middle" x="1233.5" y="-172" font-family="Helvetica,sans-Serif" font-size="10.00">opusfile.h</text>
</a>
</g>
</g>
<!-- Node21&#45;&gt;Node23 -->
<g id="edge27_Node000021_Node000023" class="edge">
<title>Node21&#45;&gt;Node23</title>
<g id="a_edge27_Node000021_Node000023"><a xlink:title=" ">
<path fill="none" stroke="#63b8ff" d="M1113.88,-216.67C1142.59,-206.79 1182.86,-192.93 1208.56,-184.08"/>
<polygon fill="#63b8ff" stroke="#63b8ff" points="1112.56,-213.42 1104.24,-219.98 1114.84,-220.04 1112.56,-213.42"/>
</a>
</g>
</g>
<!-- Node24 -->
<g id="Node000024" class="node">
<title>Node24</title>
<g id="a_Node000024"><a xlink:href="speexfile_8h.html" target="_top" xlink:title=" ">
<polygon fill="white" stroke="#666666" points="999.5,-184 929.5,-184 929.5,-165 999.5,-165 999.5,-184"/>
<text text-anchor="middle" x="964.5" y="-172" font-family="Helvetica,sans-Serif" font-size="10.00">speexfile.h</text>
</a>
</g>
</g>
<!-- Node21&#45;&gt;Node24 -->
<g id="edge28_Node000021_Node000024" class="edge">
<title>Node21&#45;&gt;Node24</title>
<g id="a_edge28_Node000021_Node000024"><a xlink:title=" ">
<path fill="none" stroke="#63b8ff" d="M1051.87,-215.77C1030.66,-205.99 1001.94,-192.75 983.31,-184.17"/>
<polygon fill="#63b8ff" stroke="#63b8ff" points="1050.48,-218.98 1061.02,-219.98 1053.41,-212.62 1050.48,-218.98"/>
</a>
</g>
</g>
<!-- Node25 -->
<g id="Node000025" class="node">
<title>Node25</title>
<g id="a_Node000025"><a xlink:href="vorbisfile_8h.html" target="_top" xlink:title=" ">
<polygon fill="white" stroke="#666666" points="1089,-184 1018,-184 1018,-165 1089,-165 1089,-184"/>
<text text-anchor="middle" x="1053.5" y="-172" font-family="Helvetica,sans-Serif" font-size="10.00">vorbisfile.h</text>
</a>
</g>
</g>
<!-- Node21&#45;&gt;Node25 -->
<g id="edge29_Node000021_Node000025" class="edge">
<title>Node21&#45;&gt;Node25</title>
<g id="a_edge29_Node000021_Node000025"><a xlink:title=" ">
<path fill="none" stroke="#63b8ff" d="M1070.68,-210.53C1066.3,-201.6 1061.21,-191.22 1057.71,-184.09"/>
<polygon fill="#63b8ff" stroke="#63b8ff" points="1067.66,-212.31 1075.21,-219.75 1073.94,-209.23 1067.66,-212.31"/>
</a>
</g>
</g>
<!-- Node27 -->
<g id="Node000027" class="node">
<title>Node27</title>
<g id="a_Node000027"><a xlink:href="aifffile_8h.html" target="_top" xlink:title=" ">
<polygon fill="white" stroke="#666666" points="1339.5,-184 1283.5,-184 1283.5,-165 1339.5,-165 1339.5,-184"/>
<text text-anchor="middle" x="1311.5" y="-172" font-family="Helvetica,sans-Serif" font-size="10.00">aifffile.h</text>
</a>
</g>
</g>
<!-- Node26&#45;&gt;Node27 -->
<g id="edge31_Node000026_Node000027" class="edge">
<title>Node26&#45;&gt;Node27</title>
<g id="a_edge31_Node000026_Node000027"><a xlink:title=" ">
<path fill="none" stroke="#63b8ff" d="M1189.55,-216.67C1218.82,-206.79 1259.87,-192.93 1286.08,-184.08"/>
<polygon fill="#63b8ff" stroke="#63b8ff" points="1188.08,-213.47 1179.72,-219.98 1190.32,-220.1 1188.08,-213.47"/>
</a>
</g>
</g>
<!-- Node28 -->
<g id="Node000028" class="node">
<title>Node28</title>
<g id="a_Node000028"><a xlink:href="wavfile_8h.html" target="_top" xlink:title=" ">
<polygon fill="white" stroke="#666666" points="1419,-184 1358,-184 1358,-165 1419,-165 1419,-184"/>
<text text-anchor="middle" x="1388.5" y="-172" font-family="Helvetica,sans-Serif" font-size="10.00">wavfile.h</text>
</a>
</g>
</g>
<!-- Node26&#45;&gt;Node28 -->
<g id="edge32_Node000026_Node000028" class="edge">
<title>Node26&#45;&gt;Node28</title>
<g id="a_edge32_Node000026_Node000028"><a xlink:title=" ">
<path fill="none" stroke="#63b8ff" d="M1191.2,-220.07C1191.3,-220.05 1191.4,-220.02 1191.5,-220 1250.3,-206.6 1319.02,-191.12 1357.78,-182.4"/>
<polygon fill="#63b8ff" stroke="#63b8ff" points="1190.54,-216.63 1181.58,-222.27 1192.1,-223.45 1190.54,-216.63"/>
</a>
</g>
</g>
</g>
</svg>
