<?xml version="1.0" encoding="UTF-8" standalone="no"?>
<!DOCTYPE svg PUBLIC "-//W3C//DTD SVG 1.1//EN"
 "http://www.w3.org/Graphics/SVG/1.1/DTD/svg11.dtd">
<!-- Generated by graphviz version 2.43.0 (0)
 -->
<!-- Title: tfile.h Pages: 1 -->
<svg width="1427pt" height="308pt"
 viewBox="0.00 0.00 1427.00 308.00" xmlns="http://www.w3.org/2000/svg" xmlns:xlink="http://www.w3.org/1999/xlink">
<g id="graph0" class="graph" transform="scale(1 1) rotate(0) translate(4 304)">
<title>tfile.h</title>
<polygon fill="white" stroke="transparent" points="-4,4 -4,-304 1423,-304 1423,4 -4,4"/>
<!-- Node1 -->
<g id="node1" class="node">
<title>Node1</title>
<g id="a_node1"><a xlink:title=" ">
<polygon fill="#bfbfbf" stroke="black" points="579.5,-280.5 579.5,-299.5 623.5,-299.5 623.5,-280.5 579.5,-280.5"/>
<text text-anchor="middle" x="601.5" y="-287.5" font-family="Helvetica,sans-Serif" font-size="10.00">tfile.h</text>
</a>
</g>
</g>
<!-- Node2 -->
<g id="node2" class="node">
<title>Node2</title>
<g id="a_node2"><a xlink:href="apefile_8h.html" target="_top" xlink:title=" ">
<polygon fill="white" stroke="black" points="0,-224.5 0,-243.5 59,-243.5 59,-224.5 0,-224.5"/>
<text text-anchor="middle" x="29.5" y="-231.5" font-family="Helvetica,sans-Serif" font-size="10.00">apefile.h</text>
</a>
</g>
</g>
<!-- Node1&#45;&gt;Node2 -->
<g id="edge1" class="edge">
<title>Node1&#45;&gt;Node2</title>
<path fill="none" stroke="midnightblue" d="M569.17,-287.88C485.79,-284.63 256.81,-273.52 68.5,-244 65.48,-243.53 62.35,-242.95 59.23,-242.32"/>
<polygon fill="midnightblue" stroke="midnightblue" points="569.15,-291.38 579.28,-288.26 569.42,-284.38 569.15,-291.38"/>
</g>
<!-- Node3 -->
<g id="node3" class="node">
<title>Node3</title>
<g id="a_node3"><a xlink:href="asffile_8h.html" target="_top" xlink:title=" ">
<polygon fill="white" stroke="black" points="77.5,-224.5 77.5,-243.5 133.5,-243.5 133.5,-224.5 77.5,-224.5"/>
<text text-anchor="middle" x="105.5" y="-231.5" font-family="Helvetica,sans-Serif" font-size="10.00">asffile.h</text>
</a>
</g>
</g>
<!-- Node1&#45;&gt;Node3 -->
<g id="edge2" class="edge">
<title>Node1&#45;&gt;Node3</title>
<path fill="none" stroke="midnightblue" d="M569.14,-287.4C493.85,-283.33 301.26,-270.95 142.5,-244 139.63,-243.51 136.66,-242.93 133.7,-242.29"/>
<polygon fill="midnightblue" stroke="midnightblue" points="569.21,-290.91 579.38,-287.94 569.58,-283.92 569.21,-290.91"/>
</g>
<!-- Node4 -->
<g id="node4" class="node">
<title>Node4</title>
<g id="a_node4"><a xlink:href="dsffile_8h.html" target="_top" xlink:title=" ">
<polygon fill="white" stroke="black" points="151.5,-224.5 151.5,-243.5 207.5,-243.5 207.5,-224.5 151.5,-224.5"/>
<text text-anchor="middle" x="179.5" y="-231.5" font-family="Helvetica,sans-Serif" font-size="10.00">dsffile.h</text>
</a>
</g>
</g>
<!-- Node1&#45;&gt;Node4 -->
<g id="edge3" class="edge">
<title>Node1&#45;&gt;Node4</title>
<path fill="none" stroke="midnightblue" d="M568.97,-286.55C502.41,-281.24 346.07,-267.24 216.5,-244 213.64,-243.49 210.66,-242.88 207.71,-242.24"/>
<polygon fill="midnightblue" stroke="midnightblue" points="568.98,-290.06 579.23,-287.36 569.53,-283.08 568.98,-290.06"/>
</g>
<!-- Node5 -->
<g id="node5" class="node">
<title>Node5</title>
<g id="a_node5"><a xlink:href="fileref_8h.html" target="_top" xlink:title=" ">
<polygon fill="white" stroke="black" points="226,-224.5 226,-243.5 279,-243.5 279,-224.5 226,-224.5"/>
<text text-anchor="middle" x="252.5" y="-231.5" font-family="Helvetica,sans-Serif" font-size="10.00">fileref.h</text>
</a>
</g>
</g>
<!-- Node1&#45;&gt;Node5 -->
<g id="edge4" class="edge">
<title>Node1&#45;&gt;Node5</title>
<path fill="none" stroke="midnightblue" d="M569.17,-285.46C512.18,-278.97 390.22,-263.97 288.5,-244 285.47,-243.4 282.3,-242.72 279.17,-241.99"/>
<polygon fill="midnightblue" stroke="midnightblue" points="569.03,-288.96 579.36,-286.61 569.81,-282.01 569.03,-288.96"/>
</g>
<!-- Node6 -->
<g id="node6" class="node">
<title>Node6</title>
<g id="a_node6"><a xlink:href="flacfile_8h.html" target="_top" xlink:title=" ">
<polygon fill="white" stroke="black" points="297.5,-224.5 297.5,-243.5 355.5,-243.5 355.5,-224.5 297.5,-224.5"/>
<text text-anchor="middle" x="326.5" y="-231.5" font-family="Helvetica,sans-Serif" font-size="10.00">flacfile.h</text>
</a>
</g>
</g>
<!-- Node1&#45;&gt;Node6 -->
<g id="edge5" class="edge">
<title>Node1&#45;&gt;Node6</title>
<path fill="none" stroke="midnightblue" d="M569.41,-282.93C524.61,-274.42 440.8,-258.38 369.5,-244 365.01,-243.1 360.27,-242.12 355.63,-241.16"/>
<polygon fill="midnightblue" stroke="midnightblue" points="568.93,-286.4 579.41,-284.83 570.23,-279.52 568.93,-286.4"/>
</g>
<!-- Node7 -->
<g id="node7" class="node">
<title>Node7</title>
<g id="a_node7"><a xlink:href="itfile_8h.html" target="_top" xlink:title=" ">
<polygon fill="white" stroke="black" points="324,-168.5 324,-187.5 371,-187.5 371,-168.5 324,-168.5"/>
<text text-anchor="middle" x="347.5" y="-175.5" font-family="Helvetica,sans-Serif" font-size="10.00">itfile.h</text>
</a>
</g>
</g>
<!-- Node1&#45;&gt;Node7 -->
<g id="edge6" class="edge">
<title>Node1&#45;&gt;Node7</title>
<path fill="none" stroke="midnightblue" d="M569.28,-285.25C532.57,-279.99 471.59,-268.22 424.5,-244 395.56,-229.12 368.03,-201.55 355.13,-187.58"/>
<polygon fill="midnightblue" stroke="midnightblue" points="569.02,-288.74 579.4,-286.62 569.96,-281.81 569.02,-288.74"/>
</g>
<!-- Node8 -->
<g id="node8" class="node">
<title>Node8</title>
<g id="a_node8"><a xlink:href="modfile_8h.html" target="_top" xlink:title=" ">
<polygon fill="white" stroke="black" points="389.5,-168.5 389.5,-187.5 451.5,-187.5 451.5,-168.5 389.5,-168.5"/>
<text text-anchor="middle" x="420.5" y="-175.5" font-family="Helvetica,sans-Serif" font-size="10.00">modfile.h</text>
</a>
</g>
</g>
<!-- Node1&#45;&gt;Node8 -->
<g id="edge7" class="edge">
<title>Node1&#45;&gt;Node8</title>
<path fill="none" stroke="midnightblue" d="M569.25,-288.73C533.16,-286.67 475.22,-277.83 440.5,-244 424.94,-228.84 421.42,-201.89 420.66,-187.93"/>
<polygon fill="midnightblue" stroke="midnightblue" points="569.11,-292.23 579.25,-289.16 569.41,-285.23 569.11,-292.23"/>
</g>
<!-- Node9 -->
<g id="node9" class="node">
<title>Node9</title>
<g id="a_node9"><a xlink:href="modfilebase_8h.html" target="_top" xlink:title=" ">
<polygon fill="white" stroke="black" points="449.5,-224.5 449.5,-243.5 535.5,-243.5 535.5,-224.5 449.5,-224.5"/>
<text text-anchor="middle" x="492.5" y="-231.5" font-family="Helvetica,sans-Serif" font-size="10.00">modfilebase.h</text>
</a>
</g>
</g>
<!-- Node1&#45;&gt;Node9 -->
<g id="edge8" class="edge">
<title>Node1&#45;&gt;Node9</title>
<path fill="none" stroke="midnightblue" d="M574.98,-275.86C554.77,-265.85 527.51,-252.35 509.97,-243.65"/>
<polygon fill="midnightblue" stroke="midnightblue" points="573.47,-279.02 583.99,-280.32 576.58,-272.75 573.47,-279.02"/>
</g>
<!-- Node10 -->
<g id="node10" class="node">
<title>Node10</title>
<g id="a_node10"><a xlink:href="s3mfile_8h.html" target="_top" xlink:title=" ">
<polygon fill="white" stroke="black" points="469.5,-168.5 469.5,-187.5 531.5,-187.5 531.5,-168.5 469.5,-168.5"/>
<text text-anchor="middle" x="500.5" y="-175.5" font-family="Helvetica,sans-Serif" font-size="10.00">s3mfile.h</text>
</a>
</g>
</g>
<!-- Node1&#45;&gt;Node10 -->
<g id="edge33" class="edge">
<title>Node1&#45;&gt;Node10</title>
<path fill="none" stroke="midnightblue" d="M587.6,-272.66C576.21,-259.39 559.56,-240.26 544.5,-224 532.62,-211.17 518.4,-196.8 509.41,-187.83"/>
<polygon fill="midnightblue" stroke="midnightblue" points="585.11,-275.13 594.27,-280.46 590.43,-270.58 585.11,-275.13"/>
</g>
<!-- Node11 -->
<g id="node11" class="node">
<title>Node11</title>
<g id="a_node11"><a xlink:href="xmfile_8h.html" target="_top" xlink:title=" ">
<polygon fill="white" stroke="black" points="549.5,-168.5 549.5,-187.5 605.5,-187.5 605.5,-168.5 549.5,-168.5"/>
<text text-anchor="middle" x="577.5" y="-175.5" font-family="Helvetica,sans-Serif" font-size="10.00">xmfile.h</text>
</a>
</g>
</g>
<!-- Node1&#45;&gt;Node11 -->
<g id="edge36" class="edge">
<title>Node1&#45;&gt;Node11</title>
<path fill="none" stroke="midnightblue" d="M597.43,-270.35C592.17,-246.25 583.24,-205.31 579.37,-187.59"/>
<polygon fill="midnightblue" stroke="midnightblue" points="594.07,-271.34 599.62,-280.37 600.9,-269.85 594.07,-271.34"/>
</g>
<!-- Node12 -->
<g id="node12" class="node">
<title>Node12</title>
<g id="a_node12"><a xlink:href="mp4atom_8h.html" target="_top" xlink:title=" ">
<polygon fill="white" stroke="black" points="669,-224.5 669,-243.5 742,-243.5 742,-224.5 669,-224.5"/>
<text text-anchor="middle" x="705.5" y="-231.5" font-family="Helvetica,sans-Serif" font-size="10.00">mp4atom.h</text>
</a>
</g>
</g>
<!-- Node1&#45;&gt;Node12 -->
<g id="edge13" class="edge">
<title>Node1&#45;&gt;Node12</title>
<path fill="none" stroke="midnightblue" d="M627.33,-275.59C646.56,-265.61 672.24,-252.27 688.83,-243.65"/>
<polygon fill="midnightblue" stroke="midnightblue" points="625.47,-272.61 618.21,-280.32 628.7,-278.82 625.47,-272.61"/>
</g>
<!-- Node16 -->
<g id="node16" class="node">
<title>Node16</title>
<g id="a_node16"><a xlink:href="mp4tag_8h.html" target="_top" xlink:title=" ">
<polygon fill="white" stroke="black" points="783,-56.5 783,-75.5 846,-75.5 846,-56.5 783,-56.5"/>
<text text-anchor="middle" x="814.5" y="-63.5" font-family="Helvetica,sans-Serif" font-size="10.00">mp4tag.h</text>
</a>
</g>
</g>
<!-- Node1&#45;&gt;Node16 -->
<g id="edge21" class="edge">
<title>Node1&#45;&gt;Node16</title>
<path fill="none" stroke="midnightblue" d="M633.69,-286.53C666.4,-282.5 716.93,-271.89 750.5,-244 804.54,-199.11 812.95,-104.78 814.26,-75.71"/>
<polygon fill="midnightblue" stroke="midnightblue" points="633.29,-283.05 623.73,-287.62 634.05,-290.01 633.29,-283.05"/>
</g>
<!-- Node17 -->
<g id="node17" class="node">
<title>Node17</title>
<g id="a_node17"><a xlink:href="mp4file_8h.html" target="_top" xlink:title=" ">
<polygon fill="white" stroke="black" points="692.5,-0.5 692.5,-19.5 754.5,-19.5 754.5,-0.5 692.5,-0.5"/>
<text text-anchor="middle" x="723.5" y="-7.5" font-family="Helvetica,sans-Serif" font-size="10.00">mp4file.h</text>
</a>
</g>
</g>
<!-- Node1&#45;&gt;Node17 -->
<g id="edge20" class="edge">
<title>Node1&#45;&gt;Node17</title>
<path fill="none" stroke="midnightblue" d="M603.74,-270.13C609.84,-221.09 627.99,-91.02 652.5,-56 664.47,-38.9 685.22,-26.87 701.21,-19.57"/>
<polygon fill="midnightblue" stroke="midnightblue" points="600.24,-269.92 602.5,-280.27 607.19,-270.76 600.24,-269.92"/>
</g>
<!-- Node18 -->
<g id="node18" class="node">
<title>Node18</title>
<g id="a_node18"><a xlink:href="mpcfile_8h.html" target="_top" xlink:title=" ">
<polygon fill="white" stroke="black" points="821.5,-224.5 821.5,-243.5 883.5,-243.5 883.5,-224.5 821.5,-224.5"/>
<text text-anchor="middle" x="852.5" y="-231.5" font-family="Helvetica,sans-Serif" font-size="10.00">mpcfile.h</text>
</a>
</g>
</g>
<!-- Node1&#45;&gt;Node18 -->
<g id="edge22" class="edge">
<title>Node1&#45;&gt;Node18</title>
<path fill="none" stroke="midnightblue" d="M633.73,-282.07C682.27,-271.62 773.52,-251.99 821.39,-241.69"/>
<polygon fill="midnightblue" stroke="midnightblue" points="632.81,-278.68 623.77,-284.21 634.29,-285.53 632.81,-278.68"/>
</g>
<!-- Node19 -->
<g id="node19" class="node">
<title>Node19</title>
<g id="a_node19"><a xlink:href="mpegfile_8h.html" target="_top" xlink:title=" ">
<polygon fill="white" stroke="black" points="901.5,-224.5 901.5,-243.5 969.5,-243.5 969.5,-224.5 901.5,-224.5"/>
<text text-anchor="middle" x="935.5" y="-231.5" font-family="Helvetica,sans-Serif" font-size="10.00">mpegfile.h</text>
</a>
</g>
</g>
<!-- Node1&#45;&gt;Node19 -->
<g id="edge23" class="edge">
<title>Node1&#45;&gt;Node19</title>
<path fill="none" stroke="midnightblue" d="M633.81,-284.57C687.61,-277.07 798.9,-261.02 892.5,-244 895.35,-243.48 898.3,-242.92 901.26,-242.34"/>
<polygon fill="midnightblue" stroke="midnightblue" points="633.26,-281.12 623.84,-285.96 634.22,-288.05 633.26,-281.12"/>
</g>
<!-- Node20 -->
<g id="node20" class="node">
<title>Node20</title>
<g id="a_node20"><a xlink:href="oggfile_8h.html" target="_top" xlink:title=" ">
<polygon fill="white" stroke="black" points="988,-224.5 988,-243.5 1047,-243.5 1047,-224.5 988,-224.5"/>
<text text-anchor="middle" x="1017.5" y="-231.5" font-family="Helvetica,sans-Serif" font-size="10.00">oggfile.h</text>
</a>
</g>
</g>
<!-- Node1&#45;&gt;Node20 -->
<g id="edge24" class="edge">
<title>Node1&#45;&gt;Node20</title>
<path fill="none" stroke="midnightblue" d="M633.81,-286.33C699.2,-280.66 851.79,-266.12 978.5,-244 981.51,-243.47 984.64,-242.86 987.76,-242.21"/>
<polygon fill="midnightblue" stroke="midnightblue" points="633.38,-282.85 623.72,-287.19 633.98,-289.83 633.38,-282.85"/>
</g>
<!-- Node25 -->
<g id="node25" class="node">
<title>Node25</title>
<g id="a_node25"><a xlink:href="rifffile_8h.html" target="_top" xlink:title=" ">
<polygon fill="white" stroke="black" points="1132.5,-224.5 1132.5,-243.5 1186.5,-243.5 1186.5,-224.5 1132.5,-224.5"/>
<text text-anchor="middle" x="1159.5" y="-231.5" font-family="Helvetica,sans-Serif" font-size="10.00">rifffile.h</text>
</a>
</g>
</g>
<!-- Node1&#45;&gt;Node25 -->
<g id="edge29" class="edge">
<title>Node1&#45;&gt;Node25</title>
<path fill="none" stroke="midnightblue" d="M633.86,-285.87C734.32,-276.15 1039.62,-246.6 1132.44,-237.62"/>
<polygon fill="midnightblue" stroke="midnightblue" points="633.33,-282.4 623.72,-286.85 634.01,-289.37 633.33,-282.4"/>
</g>
<!-- Node29 -->
<g id="node29" class="node">
<title>Node29</title>
<g id="a_node29"><a xlink:href="trueaudiofile_8h.html" target="_top" xlink:title=" ">
<polygon fill="white" stroke="black" points="1205,-224.5 1205,-243.5 1292,-243.5 1292,-224.5 1205,-224.5"/>
<text text-anchor="middle" x="1248.5" y="-231.5" font-family="Helvetica,sans-Serif" font-size="10.00">trueaudiofile.h</text>
</a>
</g>
</g>
<!-- Node1&#45;&gt;Node29 -->
<g id="edge34" class="edge">
<title>Node1&#45;&gt;Node29</title>
<path fill="none" stroke="midnightblue" d="M633.74,-287.61C723.19,-283.52 981.94,-270.17 1195.5,-244 1198.56,-243.63 1201.71,-243.2 1204.87,-242.74"/>
<polygon fill="midnightblue" stroke="midnightblue" points="633.52,-284.12 623.69,-288.06 633.84,-291.11 633.52,-284.12"/>
</g>
<!-- Node30 -->
<g id="node30" class="node">
<title>Node30</title>
<g id="a_node30"><a xlink:href="wavpackfile_8h.html" target="_top" xlink:title=" ">
<polygon fill="white" stroke="black" points="1310.5,-224.5 1310.5,-243.5 1394.5,-243.5 1394.5,-224.5 1310.5,-224.5"/>
<text text-anchor="middle" x="1352.5" y="-231.5" font-family="Helvetica,sans-Serif" font-size="10.00">wavpackfile.h</text>
</a>
</g>
</g>
<!-- Node1&#45;&gt;Node30 -->
<g id="edge35" class="edge">
<title>Node1&#45;&gt;Node30</title>
<path fill="none" stroke="midnightblue" d="M633.68,-288.2C733.26,-285.44 1045.14,-274.76 1301.5,-244 1304.36,-243.66 1307.3,-243.26 1310.25,-242.83"/>
<polygon fill="midnightblue" stroke="midnightblue" points="633.55,-284.7 623.65,-288.47 633.74,-291.7 633.55,-284.7"/>
</g>
<!-- Node9&#45;&gt;Node7 -->
<g id="edge9" class="edge">
<title>Node9&#45;&gt;Node7</title>
<path fill="none" stroke="midnightblue" d="M460.02,-220.91C432.76,-210.75 394.51,-196.51 370.37,-187.52"/>
<polygon fill="midnightblue" stroke="midnightblue" points="458.93,-224.23 469.52,-224.44 461.37,-217.67 458.93,-224.23"/>
</g>
<!-- Node9&#45;&gt;Node8 -->
<g id="edge10" class="edge">
<title>Node9&#45;&gt;Node8</title>
<path fill="none" stroke="midnightblue" d="M472.63,-218.1C459.68,-208.38 443.2,-196.03 432.28,-187.83"/>
<polygon fill="midnightblue" stroke="midnightblue" points="470.83,-221.12 480.93,-224.32 475.03,-215.52 470.83,-221.12"/>
</g>
<!-- Node9&#45;&gt;Node10 -->
<g id="edge11" class="edge">
<title>Node9&#45;&gt;Node10</title>
<path fill="none" stroke="midnightblue" d="M495.3,-214.1C496.63,-205.14 498.15,-194.86 499.2,-187.75"/>
<polygon fill="midnightblue" stroke="midnightblue" points="491.82,-213.68 493.82,-224.08 498.75,-214.7 491.82,-213.68"/>
</g>
<!-- Node9&#45;&gt;Node11 -->
<g id="edge12" class="edge">
<title>Node9&#45;&gt;Node11</title>
<path fill="none" stroke="midnightblue" d="M514.69,-218.9C530.28,-209 550.63,-196.07 563.88,-187.65"/>
<polygon fill="midnightblue" stroke="midnightblue" points="512.72,-216.01 506.16,-224.32 516.47,-221.92 512.72,-216.01"/>
</g>
<!-- Node13 -->
<g id="node13" class="node">
<title>Node13</title>
<g id="a_node13"><a xlink:href="mp4coverart_8h.html" target="_top" xlink:title=" ">
<polygon fill="white" stroke="black" points="661.5,-168.5 661.5,-187.5 749.5,-187.5 749.5,-168.5 661.5,-168.5"/>
<text text-anchor="middle" x="705.5" y="-175.5" font-family="Helvetica,sans-Serif" font-size="10.00">mp4coverart.h</text>
</a>
</g>
</g>
<!-- Node12&#45;&gt;Node13 -->
<g id="edge14" class="edge">
<title>Node12&#45;&gt;Node13</title>
<path fill="none" stroke="midnightblue" d="M705.5,-213.8C705.5,-204.91 705.5,-194.78 705.5,-187.75"/>
<polygon fill="midnightblue" stroke="midnightblue" points="702,-214.08 705.5,-224.08 709,-214.08 702,-214.08"/>
</g>
<!-- Node12&#45;&gt;Node16 -->
<g id="edge19" class="edge">
<title>Node12&#45;&gt;Node16</title>
<path fill="none" stroke="midnightblue" d="M726.98,-218.22C737.48,-210.19 749.71,-199.56 758.5,-188 786.94,-150.6 805.49,-96.43 811.95,-75.6"/>
<polygon fill="midnightblue" stroke="midnightblue" points="724.67,-215.57 718.68,-224.31 728.81,-221.21 724.67,-215.57"/>
</g>
<!-- Node14 -->
<g id="node14" class="node">
<title>Node14</title>
<g id="a_node14"><a xlink:href="mp4item_8h.html" target="_top" xlink:title=" ">
<polygon fill="white" stroke="black" points="678.5,-112.5 678.5,-131.5 748.5,-131.5 748.5,-112.5 678.5,-112.5"/>
<text text-anchor="middle" x="713.5" y="-119.5" font-family="Helvetica,sans-Serif" font-size="10.00">mp4item.h</text>
</a>
</g>
</g>
<!-- Node13&#45;&gt;Node14 -->
<g id="edge15" class="edge">
<title>Node13&#45;&gt;Node14</title>
<path fill="none" stroke="midnightblue" d="M708.3,-158.1C709.63,-149.14 711.15,-138.86 712.2,-131.75"/>
<polygon fill="midnightblue" stroke="midnightblue" points="704.82,-157.68 706.82,-168.08 711.75,-158.7 704.82,-157.68"/>
</g>
<!-- Node15 -->
<g id="node15" class="node">
<title>Node15</title>
<g id="a_node15"><a xlink:href="mp4itemfactory_8h.html" target="_top" xlink:title=" ">
<polygon fill="white" stroke="black" points="662,-56.5 662,-75.5 765,-75.5 765,-56.5 662,-56.5"/>
<text text-anchor="middle" x="713.5" y="-63.5" font-family="Helvetica,sans-Serif" font-size="10.00">mp4itemfactory.h</text>
</a>
</g>
</g>
<!-- Node14&#45;&gt;Node15 -->
<g id="edge16" class="edge">
<title>Node14&#45;&gt;Node15</title>
<path fill="none" stroke="midnightblue" d="M713.5,-101.8C713.5,-92.91 713.5,-82.78 713.5,-75.75"/>
<polygon fill="midnightblue" stroke="midnightblue" points="710,-102.08 713.5,-112.08 717,-102.08 710,-102.08"/>
</g>
<!-- Node14&#45;&gt;Node16 -->
<g id="edge17" class="edge">
<title>Node14&#45;&gt;Node16</title>
<path fill="none" stroke="midnightblue" d="M738.58,-107.59C757.26,-97.61 782.2,-84.27 798.31,-75.65"/>
<polygon fill="midnightblue" stroke="midnightblue" points="736.9,-104.52 729.73,-112.32 740.2,-110.7 736.9,-104.52"/>
</g>
<!-- Node16&#45;&gt;Node17 -->
<g id="edge18" class="edge">
<title>Node16&#45;&gt;Node17</title>
<path fill="none" stroke="midnightblue" d="M791.21,-51.18C774.46,-41.24 752.4,-28.15 738.08,-19.65"/>
<polygon fill="midnightblue" stroke="midnightblue" points="789.49,-54.23 799.88,-56.32 793.07,-48.21 789.49,-54.23"/>
</g>
<!-- Node21 -->
<g id="node21" class="node">
<title>Node21</title>
<g id="a_node21"><a xlink:href="oggflacfile_8h.html" target="_top" xlink:title=" ">
<polygon fill="white" stroke="black" points="1103.5,-168.5 1103.5,-187.5 1179.5,-187.5 1179.5,-168.5 1103.5,-168.5"/>
<text text-anchor="middle" x="1141.5" y="-175.5" font-family="Helvetica,sans-Serif" font-size="10.00">oggflacfile.h</text>
</a>
</g>
</g>
<!-- Node20&#45;&gt;Node21 -->
<g id="edge25" class="edge">
<title>Node20&#45;&gt;Node21</title>
<path fill="none" stroke="midnightblue" d="M1046.51,-220.37C1069.73,-210.26 1101.66,-196.35 1121.94,-187.52"/>
<polygon fill="midnightblue" stroke="midnightblue" points="1044.92,-217.24 1037.15,-224.44 1047.71,-223.66 1044.92,-217.24"/>
</g>
<!-- Node22 -->
<g id="node22" class="node">
<title>Node22</title>
<g id="a_node22"><a xlink:href="opusfile_8h.html" target="_top" xlink:title=" ">
<polygon fill="white" stroke="black" points="843.5,-168.5 843.5,-187.5 907.5,-187.5 907.5,-168.5 843.5,-168.5"/>
<text text-anchor="middle" x="875.5" y="-175.5" font-family="Helvetica,sans-Serif" font-size="10.00">opusfile.h</text>
</a>
</g>
</g>
<!-- Node20&#45;&gt;Node22 -->
<g id="edge26" class="edge">
<title>Node20&#45;&gt;Node22</title>
<path fill="none" stroke="midnightblue" d="M985.34,-220.77C958.67,-210.63 921.43,-196.47 897.9,-187.52"/>
<polygon fill="midnightblue" stroke="midnightblue" points="984.41,-224.16 995,-224.44 986.9,-217.62 984.41,-224.16"/>
</g>
<!-- Node23 -->
<g id="node23" class="node">
<title>Node23</title>
<g id="a_node23"><a xlink:href="speexfile_8h.html" target="_top" xlink:title=" ">
<polygon fill="white" stroke="black" points="925.5,-168.5 925.5,-187.5 995.5,-187.5 995.5,-168.5 925.5,-168.5"/>
<text text-anchor="middle" x="960.5" y="-175.5" font-family="Helvetica,sans-Serif" font-size="10.00">speexfile.h</text>
</a>
</g>
</g>
<!-- Node20&#45;&gt;Node23 -->
<g id="edge27" class="edge">
<title>Node20&#45;&gt;Node23</title>
<path fill="none" stroke="midnightblue" d="M1000.88,-217.25C990.77,-207.67 978.22,-195.79 969.82,-187.83"/>
<polygon fill="midnightblue" stroke="midnightblue" points="998.68,-219.99 1008.34,-224.32 1003.49,-214.91 998.68,-219.99"/>
</g>
<!-- Node24 -->
<g id="node24" class="node">
<title>Node24</title>
<g id="a_node24"><a xlink:href="vorbisfile_8h.html" target="_top" xlink:title=" ">
<polygon fill="white" stroke="black" points="1014,-168.5 1014,-187.5 1085,-187.5 1085,-168.5 1014,-168.5"/>
<text text-anchor="middle" x="1049.5" y="-175.5" font-family="Helvetica,sans-Serif" font-size="10.00">vorbisfile.h</text>
</a>
</g>
</g>
<!-- Node20&#45;&gt;Node24 -->
<g id="edge28" class="edge">
<title>Node20&#45;&gt;Node24</title>
<path fill="none" stroke="midnightblue" d="M1028,-215.27C1033.47,-206.05 1039.92,-195.17 1044.31,-187.75"/>
<polygon fill="midnightblue" stroke="midnightblue" points="1024.87,-213.7 1022.78,-224.08 1030.89,-217.26 1024.87,-213.7"/>
</g>
<!-- Node26 -->
<g id="node26" class="node">
<title>Node26</title>
<g id="a_node26"><a xlink:href="aifffile_8h.html" target="_top" xlink:title=" ">
<polygon fill="white" stroke="black" points="1197.5,-168.5 1197.5,-187.5 1253.5,-187.5 1253.5,-168.5 1197.5,-168.5"/>
<text text-anchor="middle" x="1225.5" y="-175.5" font-family="Helvetica,sans-Serif" font-size="10.00">aifffile.h</text>
</a>
</g>
</g>
<!-- Node25&#45;&gt;Node26 -->
<g id="edge30" class="edge">
<title>Node25&#45;&gt;Node26</title>
<path fill="none" stroke="midnightblue" d="M1178.05,-217.82C1189.88,-208.15 1204.79,-195.95 1214.7,-187.83"/>
<polygon fill="midnightblue" stroke="midnightblue" points="1175.63,-215.28 1170.1,-224.32 1180.06,-220.7 1175.63,-215.28"/>
</g>
<!-- Node27 -->
<g id="node27" class="node">
<title>Node27</title>
<g id="a_node27"><a xlink:href="dsdifffile_8h.html" target="_top" xlink:title=" ">
<polygon fill="white" stroke="black" points="1271.5,-168.5 1271.5,-187.5 1339.5,-187.5 1339.5,-168.5 1271.5,-168.5"/>
<text text-anchor="middle" x="1305.5" y="-175.5" font-family="Helvetica,sans-Serif" font-size="10.00">dsdifffile.h</text>
</a>
</g>
</g>
<!-- Node25&#45;&gt;Node27 -->
<g id="edge31" class="edge">
<title>Node25&#45;&gt;Node27</title>
<path fill="none" stroke="midnightblue" d="M1192.2,-220.91C1219.65,-210.75 1258.17,-196.51 1282.47,-187.52"/>
<polygon fill="midnightblue" stroke="midnightblue" points="1190.8,-217.69 1182.63,-224.44 1193.23,-224.26 1190.8,-217.69"/>
</g>
<!-- Node28 -->
<g id="node28" class="node">
<title>Node28</title>
<g id="a_node28"><a xlink:href="wavfile_8h.html" target="_top" xlink:title=" ">
<polygon fill="white" stroke="black" points="1358,-168.5 1358,-187.5 1419,-187.5 1419,-168.5 1358,-168.5"/>
<text text-anchor="middle" x="1388.5" y="-175.5" font-family="Helvetica,sans-Serif" font-size="10.00">wavfile.h</text>
</a>
</g>
</g>
<!-- Node25&#45;&gt;Node28 -->
<g id="edge32" class="edge">
<title>Node25&#45;&gt;Node28</title>
<path fill="none" stroke="midnightblue" d="M1196.2,-224.07C1196.3,-224.05 1196.4,-224.02 1196.5,-224 1253.44,-210.4 1319.98,-194.89 1357.89,-186.09"/>
<polygon fill="midnightblue" stroke="midnightblue" points="1195.48,-220.65 1186.57,-226.39 1197.11,-227.45 1195.48,-220.65"/>
</g>
</g>
</svg>
