<?xml version="1.0" encoding="UTF-8" standalone="no"?>
<!DOCTYPE svg PUBLIC "-//W3C//DTD SVG 1.1//EN"
 "http://www.w3.org/Graphics/SVG/1.1/DTD/svg11.dtd">
<!-- Generated by graphviz version 2.43.0 (0)
 -->
<!-- Title: tiostream.h Pages: 1 -->
<svg width="1427pt" height="364pt"
 viewBox="0.00 0.00 1427.00 364.00" xmlns="http://www.w3.org/2000/svg" xmlns:xlink="http://www.w3.org/1999/xlink">
<g id="graph0" class="graph" transform="scale(1 1) rotate(0) translate(4 360)">
<title>tiostream.h</title>
<polygon fill="white" stroke="transparent" points="-4,4 -4,-360 1423,-360 1423,4 -4,4"/>
<!-- Node1 -->
<g id="node1" class="node">
<title>Node1</title>
<g id="a_node1"><a xlink:title=" ">
<polygon fill="#bfbfbf" stroke="black" points="565,-336.5 565,-355.5 638,-355.5 638,-336.5 565,-336.5"/>
<text text-anchor="middle" x="601.5" y="-343.5" font-family="Helvetica,sans-Serif" font-size="10.00">tiostream.h</text>
</a>
</g>
</g>
<!-- Node2 -->
<g id="node2" class="node">
<title>Node2</title>
<g id="a_node2"><a xlink:href="tbytevectorstream_8h.html" target="_top" xlink:title=" ">
<polygon fill="white" stroke="black" points="445.5,-280.5 445.5,-299.5 561.5,-299.5 561.5,-280.5 445.5,-280.5"/>
<text text-anchor="middle" x="503.5" y="-287.5" font-family="Helvetica,sans-Serif" font-size="10.00">tbytevectorstream.h</text>
</a>
</g>
</g>
<!-- Node1&#45;&gt;Node2 -->
<g id="edge1" class="edge">
<title>Node1&#45;&gt;Node2</title>
<path fill="none" stroke="midnightblue" d="M576.91,-331.45C558.82,-321.48 534.77,-308.23 519.21,-299.65"/>
<polygon fill="midnightblue" stroke="midnightblue" points="575.31,-334.56 585.75,-336.32 578.69,-328.43 575.31,-334.56"/>
</g>
<!-- Node3 -->
<g id="node3" class="node">
<title>Node3</title>
<g id="a_node3"><a xlink:href="tfile_8h.html" target="_top" xlink:title=" ">
<polygon fill="white" stroke="black" points="579.5,-280.5 579.5,-299.5 623.5,-299.5 623.5,-280.5 579.5,-280.5"/>
<text text-anchor="middle" x="601.5" y="-287.5" font-family="Helvetica,sans-Serif" font-size="10.00">tfile.h</text>
</a>
</g>
</g>
<!-- Node1&#45;&gt;Node3 -->
<g id="edge2" class="edge">
<title>Node1&#45;&gt;Node3</title>
<path fill="none" stroke="midnightblue" d="M601.5,-325.8C601.5,-316.91 601.5,-306.78 601.5,-299.75"/>
<polygon fill="midnightblue" stroke="midnightblue" points="598,-326.08 601.5,-336.08 605,-326.08 598,-326.08"/>
</g>
<!-- Node33 -->
<g id="node33" class="node">
<title>Node33</title>
<g id="a_node33"><a xlink:href="tfilestream_8h.html" target="_top" xlink:title=" ">
<polygon fill="white" stroke="black" points="642,-280.5 642,-299.5 721,-299.5 721,-280.5 642,-280.5"/>
<text text-anchor="middle" x="681.5" y="-287.5" font-family="Helvetica,sans-Serif" font-size="10.00">tfilestream.h</text>
</a>
</g>
</g>
<!-- Node1&#45;&gt;Node33 -->
<g id="edge39" class="edge">
<title>Node1&#45;&gt;Node33</title>
<path fill="none" stroke="midnightblue" d="M622.8,-330.62C637.42,-320.76 656.33,-307.99 668.68,-299.65"/>
<polygon fill="midnightblue" stroke="midnightblue" points="620.68,-327.83 614.35,-336.32 624.6,-333.63 620.68,-327.83"/>
</g>
<!-- Node4 -->
<g id="node4" class="node">
<title>Node4</title>
<g id="a_node4"><a xlink:href="apefile_8h.html" target="_top" xlink:title=" ">
<polygon fill="white" stroke="black" points="0,-224.5 0,-243.5 59,-243.5 59,-224.5 0,-224.5"/>
<text text-anchor="middle" x="29.5" y="-231.5" font-family="Helvetica,sans-Serif" font-size="10.00">apefile.h</text>
</a>
</g>
</g>
<!-- Node3&#45;&gt;Node4 -->
<g id="edge3" class="edge">
<title>Node3&#45;&gt;Node4</title>
<path fill="none" stroke="midnightblue" d="M569.33,-280.17C348.5,-241.66 286.46,-276.76 68.5,-244 65.48,-243.55 62.34,-242.98 59.22,-242.36"/>
<polygon fill="midnightblue" stroke="midnightblue" points="568.82,-283.64 579.28,-281.94 570.05,-276.75 568.82,-283.64"/>
</g>
<!-- Node5 -->
<g id="node5" class="node">
<title>Node5</title>
<g id="a_node5"><a xlink:href="asffile_8h.html" target="_top" xlink:title=" ">
<polygon fill="white" stroke="black" points="77.5,-224.5 77.5,-243.5 133.5,-243.5 133.5,-224.5 77.5,-224.5"/>
<text text-anchor="middle" x="105.5" y="-231.5" font-family="Helvetica,sans-Serif" font-size="10.00">asffile.h</text>
</a>
</g>
</g>
<!-- Node3&#45;&gt;Node5 -->
<g id="edge4" class="edge">
<title>Node3&#45;&gt;Node5</title>
<path fill="none" stroke="midnightblue" d="M569.33,-280.15C380.99,-246.21 327.7,-274.13 142.5,-244 139.63,-243.53 136.65,-242.96 133.69,-242.33"/>
<polygon fill="midnightblue" stroke="midnightblue" points="568.81,-283.61 579.28,-281.97 570.07,-276.73 568.81,-283.61"/>
</g>
<!-- Node6 -->
<g id="node6" class="node">
<title>Node6</title>
<g id="a_node6"><a xlink:href="dsffile_8h.html" target="_top" xlink:title=" ">
<polygon fill="white" stroke="black" points="151.5,-224.5 151.5,-243.5 207.5,-243.5 207.5,-224.5 151.5,-224.5"/>
<text text-anchor="middle" x="179.5" y="-231.5" font-family="Helvetica,sans-Serif" font-size="10.00">dsffile.h</text>
</a>
</g>
</g>
<!-- Node3&#45;&gt;Node6 -->
<g id="edge5" class="edge">
<title>Node3&#45;&gt;Node6</title>
<path fill="none" stroke="midnightblue" d="M569.33,-280.11C413.45,-250.67 369.17,-270.2 216.5,-244 213.63,-243.51 210.66,-242.92 207.7,-242.28"/>
<polygon fill="midnightblue" stroke="midnightblue" points="568.79,-283.57 579.27,-282.02 570.11,-276.69 568.79,-283.57"/>
</g>
<!-- Node7 -->
<g id="node7" class="node">
<title>Node7</title>
<g id="a_node7"><a xlink:href="fileref_8h.html" target="_top" xlink:title=" ">
<polygon fill="white" stroke="black" points="226,-224.5 226,-243.5 279,-243.5 279,-224.5 226,-224.5"/>
<text text-anchor="middle" x="252.5" y="-231.5" font-family="Helvetica,sans-Serif" font-size="10.00">fileref.h</text>
</a>
</g>
</g>
<!-- Node3&#45;&gt;Node7 -->
<g id="edge6" class="edge">
<title>Node3&#45;&gt;Node7</title>
<path fill="none" stroke="midnightblue" d="M569.35,-280.05C445,-254.95 409.52,-266.77 288.5,-244 285.46,-243.43 282.3,-242.75 279.16,-242.04"/>
<polygon fill="midnightblue" stroke="midnightblue" points="568.75,-283.5 579.25,-282.09 570.16,-276.65 568.75,-283.5"/>
</g>
<!-- Node8 -->
<g id="node8" class="node">
<title>Node8</title>
<g id="a_node8"><a xlink:href="flacfile_8h.html" target="_top" xlink:title=" ">
<polygon fill="white" stroke="black" points="297.5,-224.5 297.5,-243.5 355.5,-243.5 355.5,-224.5 297.5,-224.5"/>
<text text-anchor="middle" x="326.5" y="-231.5" font-family="Helvetica,sans-Serif" font-size="10.00">flacfile.h</text>
</a>
</g>
</g>
<!-- Node3&#45;&gt;Node8 -->
<g id="edge7" class="edge">
<title>Node3&#45;&gt;Node8</title>
<path fill="none" stroke="midnightblue" d="M569.25,-279.9C480.4,-259.43 455.46,-260.69 369.5,-244 365.01,-243.13 360.26,-242.17 355.62,-241.21"/>
<polygon fill="midnightblue" stroke="midnightblue" points="568.69,-283.37 579.22,-282.23 570.28,-276.55 568.69,-283.37"/>
</g>
<!-- Node9 -->
<g id="node9" class="node">
<title>Node9</title>
<g id="a_node9"><a xlink:href="itfile_8h.html" target="_top" xlink:title=" ">
<polygon fill="white" stroke="black" points="324,-168.5 324,-187.5 371,-187.5 371,-168.5 324,-168.5"/>
<text text-anchor="middle" x="347.5" y="-175.5" font-family="Helvetica,sans-Serif" font-size="10.00">itfile.h</text>
</a>
</g>
</g>
<!-- Node3&#45;&gt;Node9 -->
<g id="edge8" class="edge">
<title>Node3&#45;&gt;Node9</title>
<path fill="none" stroke="midnightblue" d="M569.21,-279.83C503.81,-263.68 481.25,-272.93 424.5,-244 395.51,-229.22 368,-201.61 355.12,-187.61"/>
<polygon fill="midnightblue" stroke="midnightblue" points="568.62,-283.29 579.18,-282.4 570.37,-276.51 568.62,-283.29"/>
</g>
<!-- Node10 -->
<g id="node10" class="node">
<title>Node10</title>
<g id="a_node10"><a xlink:href="modfile_8h.html" target="_top" xlink:title=" ">
<polygon fill="white" stroke="black" points="389.5,-168.5 389.5,-187.5 451.5,-187.5 451.5,-168.5 389.5,-168.5"/>
<text text-anchor="middle" x="420.5" y="-175.5" font-family="Helvetica,sans-Serif" font-size="10.00">modfile.h</text>
</a>
</g>
</g>
<!-- Node3&#45;&gt;Node10 -->
<g id="edge9" class="edge">
<title>Node3&#45;&gt;Node10</title>
<path fill="none" stroke="midnightblue" d="M569.62,-279.99C509.81,-265.73 481.31,-283.67 440.5,-244 424.92,-228.86 421.41,-201.9 420.66,-187.94"/>
<polygon fill="midnightblue" stroke="midnightblue" points="568.93,-283.43 579.49,-282.57 570.7,-276.66 568.93,-283.43"/>
</g>
<!-- Node11 -->
<g id="node11" class="node">
<title>Node11</title>
<g id="a_node11"><a xlink:href="modfilebase_8h.html" target="_top" xlink:title=" ">
<polygon fill="white" stroke="black" points="449.5,-224.5 449.5,-243.5 535.5,-243.5 535.5,-224.5 449.5,-224.5"/>
<text text-anchor="middle" x="492.5" y="-231.5" font-family="Helvetica,sans-Serif" font-size="10.00">modfilebase.h</text>
</a>
</g>
</g>
<!-- Node3&#45;&gt;Node11 -->
<g id="edge10" class="edge">
<title>Node3&#45;&gt;Node11</title>
<path fill="none" stroke="midnightblue" d="M574.98,-275.86C554.77,-265.85 527.51,-252.35 509.97,-243.65"/>
<polygon fill="midnightblue" stroke="midnightblue" points="573.47,-279.02 583.99,-280.32 576.58,-272.75 573.47,-279.02"/>
</g>
<!-- Node12 -->
<g id="node12" class="node">
<title>Node12</title>
<g id="a_node12"><a xlink:href="s3mfile_8h.html" target="_top" xlink:title=" ">
<polygon fill="white" stroke="black" points="469.5,-168.5 469.5,-187.5 531.5,-187.5 531.5,-168.5 469.5,-168.5"/>
<text text-anchor="middle" x="500.5" y="-175.5" font-family="Helvetica,sans-Serif" font-size="10.00">s3mfile.h</text>
</a>
</g>
</g>
<!-- Node3&#45;&gt;Node12 -->
<g id="edge35" class="edge">
<title>Node3&#45;&gt;Node12</title>
<path fill="none" stroke="midnightblue" d="M587.6,-272.66C576.21,-259.39 559.56,-240.26 544.5,-224 532.62,-211.17 518.4,-196.8 509.41,-187.83"/>
<polygon fill="midnightblue" stroke="midnightblue" points="585.11,-275.13 594.27,-280.46 590.43,-270.58 585.11,-275.13"/>
</g>
<!-- Node13 -->
<g id="node13" class="node">
<title>Node13</title>
<g id="a_node13"><a xlink:href="xmfile_8h.html" target="_top" xlink:title=" ">
<polygon fill="white" stroke="black" points="549.5,-168.5 549.5,-187.5 605.5,-187.5 605.5,-168.5 549.5,-168.5"/>
<text text-anchor="middle" x="577.5" y="-175.5" font-family="Helvetica,sans-Serif" font-size="10.00">xmfile.h</text>
</a>
</g>
</g>
<!-- Node3&#45;&gt;Node13 -->
<g id="edge38" class="edge">
<title>Node3&#45;&gt;Node13</title>
<path fill="none" stroke="midnightblue" d="M597.43,-270.35C592.17,-246.25 583.24,-205.31 579.37,-187.59"/>
<polygon fill="midnightblue" stroke="midnightblue" points="594.07,-271.34 599.62,-280.37 600.9,-269.85 594.07,-271.34"/>
</g>
<!-- Node14 -->
<g id="node14" class="node">
<title>Node14</title>
<g id="a_node14"><a xlink:href="mp4atom_8h.html" target="_top" xlink:title=" ">
<polygon fill="white" stroke="black" points="669,-224.5 669,-243.5 742,-243.5 742,-224.5 669,-224.5"/>
<text text-anchor="middle" x="705.5" y="-231.5" font-family="Helvetica,sans-Serif" font-size="10.00">mp4atom.h</text>
</a>
</g>
</g>
<!-- Node3&#45;&gt;Node14 -->
<g id="edge15" class="edge">
<title>Node3&#45;&gt;Node14</title>
<path fill="none" stroke="midnightblue" d="M627.33,-275.59C646.56,-265.61 672.24,-252.27 688.83,-243.65"/>
<polygon fill="midnightblue" stroke="midnightblue" points="625.47,-272.61 618.21,-280.32 628.7,-278.82 625.47,-272.61"/>
</g>
<!-- Node18 -->
<g id="node18" class="node">
<title>Node18</title>
<g id="a_node18"><a xlink:href="mp4tag_8h.html" target="_top" xlink:title=" ">
<polygon fill="white" stroke="black" points="783,-56.5 783,-75.5 846,-75.5 846,-56.5 783,-56.5"/>
<text text-anchor="middle" x="814.5" y="-63.5" font-family="Helvetica,sans-Serif" font-size="10.00">mp4tag.h</text>
</a>
</g>
</g>
<!-- Node3&#45;&gt;Node18 -->
<g id="edge23" class="edge">
<title>Node3&#45;&gt;Node18</title>
<path fill="none" stroke="midnightblue" d="M633.43,-279.69C676.51,-267.09 748.18,-245.93 750.5,-244 804.54,-199.11 812.95,-104.78 814.26,-75.71"/>
<polygon fill="midnightblue" stroke="midnightblue" points="632.29,-276.38 623.67,-282.54 634.25,-283.1 632.29,-276.38"/>
</g>
<!-- Node19 -->
<g id="node19" class="node">
<title>Node19</title>
<g id="a_node19"><a xlink:href="mp4file_8h.html" target="_top" xlink:title=" ">
<polygon fill="white" stroke="black" points="692.5,-0.5 692.5,-19.5 754.5,-19.5 754.5,-0.5 692.5,-0.5"/>
<text text-anchor="middle" x="723.5" y="-7.5" font-family="Helvetica,sans-Serif" font-size="10.00">mp4file.h</text>
</a>
</g>
</g>
<!-- Node3&#45;&gt;Node19 -->
<g id="edge22" class="edge">
<title>Node3&#45;&gt;Node19</title>
<path fill="none" stroke="midnightblue" d="M603.74,-270.13C609.84,-221.09 627.99,-91.02 652.5,-56 664.47,-38.9 685.22,-26.87 701.21,-19.57"/>
<polygon fill="midnightblue" stroke="midnightblue" points="600.24,-269.92 602.5,-280.27 607.19,-270.76 600.24,-269.92"/>
</g>
<!-- Node20 -->
<g id="node20" class="node">
<title>Node20</title>
<g id="a_node20"><a xlink:href="mpcfile_8h.html" target="_top" xlink:title=" ">
<polygon fill="white" stroke="black" points="821.5,-224.5 821.5,-243.5 883.5,-243.5 883.5,-224.5 821.5,-224.5"/>
<text text-anchor="middle" x="852.5" y="-231.5" font-family="Helvetica,sans-Serif" font-size="10.00">mpcfile.h</text>
</a>
</g>
</g>
<!-- Node3&#45;&gt;Node20 -->
<g id="edge24" class="edge">
<title>Node3&#45;&gt;Node20</title>
<path fill="none" stroke="midnightblue" d="M633.77,-279.93C671.93,-271.24 770.13,-251.48 821.09,-241.28"/>
<polygon fill="midnightblue" stroke="midnightblue" points="632.72,-276.58 623.79,-282.29 634.33,-283.39 632.72,-276.58"/>
</g>
<!-- Node21 -->
<g id="node21" class="node">
<title>Node21</title>
<g id="a_node21"><a xlink:href="mpegfile_8h.html" target="_top" xlink:title=" ">
<polygon fill="white" stroke="black" points="901.5,-224.5 901.5,-243.5 969.5,-243.5 969.5,-224.5 901.5,-224.5"/>
<text text-anchor="middle" x="935.5" y="-231.5" font-family="Helvetica,sans-Serif" font-size="10.00">mpegfile.h</text>
</a>
</g>
</g>
<!-- Node3&#45;&gt;Node21 -->
<g id="edge25" class="edge">
<title>Node3&#45;&gt;Node21</title>
<path fill="none" stroke="midnightblue" d="M633.63,-280.03C748.35,-256.11 780.71,-263.42 892.5,-244 895.36,-243.5 898.31,-242.96 901.27,-242.39"/>
<polygon fill="midnightblue" stroke="midnightblue" points="632.81,-276.62 623.75,-282.12 634.26,-283.47 632.81,-276.62"/>
</g>
<!-- Node22 -->
<g id="node22" class="node">
<title>Node22</title>
<g id="a_node22"><a xlink:href="oggfile_8h.html" target="_top" xlink:title=" ">
<polygon fill="white" stroke="black" points="988,-224.5 988,-243.5 1047,-243.5 1047,-224.5 988,-224.5"/>
<text text-anchor="middle" x="1017.5" y="-231.5" font-family="Helvetica,sans-Serif" font-size="10.00">oggfile.h</text>
</a>
</g>
</g>
<!-- Node3&#45;&gt;Node22 -->
<g id="edge26" class="edge">
<title>Node3&#45;&gt;Node22</title>
<path fill="none" stroke="midnightblue" d="M633.92,-280.05C786.08,-251.13 829.27,-268.88 978.5,-244 981.52,-243.5 984.65,-242.9 987.76,-242.26"/>
<polygon fill="midnightblue" stroke="midnightblue" points="632.89,-276.69 623.73,-282.03 634.22,-283.56 632.89,-276.69"/>
</g>
<!-- Node27 -->
<g id="node27" class="node">
<title>Node27</title>
<g id="a_node27"><a xlink:href="rifffile_8h.html" target="_top" xlink:title=" ">
<polygon fill="white" stroke="black" points="1132.5,-224.5 1132.5,-243.5 1186.5,-243.5 1186.5,-224.5 1132.5,-224.5"/>
<text text-anchor="middle" x="1159.5" y="-231.5" font-family="Helvetica,sans-Serif" font-size="10.00">rifffile.h</text>
</a>
</g>
</g>
<!-- Node3&#45;&gt;Node27 -->
<g id="edge31" class="edge">
<title>Node3&#45;&gt;Node27</title>
<path fill="none" stroke="midnightblue" d="M633.56,-280.15C819.74,-246.02 870.72,-259.86 1055.5,-244 1081.5,-241.77 1111.16,-239.2 1132.13,-237.38"/>
<polygon fill="midnightblue" stroke="midnightblue" points="632.92,-276.71 623.72,-281.98 634.19,-283.59 632.92,-276.71"/>
</g>
<!-- Node31 -->
<g id="node31" class="node">
<title>Node31</title>
<g id="a_node31"><a xlink:href="trueaudiofile_8h.html" target="_top" xlink:title=" ">
<polygon fill="white" stroke="black" points="1205,-224.5 1205,-243.5 1292,-243.5 1292,-224.5 1205,-224.5"/>
<text text-anchor="middle" x="1248.5" y="-231.5" font-family="Helvetica,sans-Serif" font-size="10.00">trueaudiofile.h</text>
</a>
</g>
</g>
<!-- Node3&#45;&gt;Node31 -->
<g id="edge36" class="edge">
<title>Node3&#45;&gt;Node31</title>
<path fill="none" stroke="midnightblue" d="M633.73,-280.18C881.28,-237.73 949.74,-272.65 1195.5,-244 1198.56,-243.64 1201.71,-243.23 1204.88,-242.78"/>
<polygon fill="midnightblue" stroke="midnightblue" points="632.97,-276.76 623.71,-281.92 634.17,-283.65 632.97,-276.76"/>
</g>
<!-- Node32 -->
<g id="node32" class="node">
<title>Node32</title>
<g id="a_node32"><a xlink:href="wavpackfile_8h.html" target="_top" xlink:title=" ">
<polygon fill="white" stroke="black" points="1310.5,-224.5 1310.5,-243.5 1394.5,-243.5 1394.5,-224.5 1310.5,-224.5"/>
<text text-anchor="middle" x="1352.5" y="-231.5" font-family="Helvetica,sans-Serif" font-size="10.00">wavpackfile.h</text>
</a>
</g>
</g>
<!-- Node3&#45;&gt;Node32 -->
<g id="edge37" class="edge">
<title>Node3&#45;&gt;Node32</title>
<path fill="none" stroke="midnightblue" d="M633.81,-280.19C927.88,-231.23 1009,-277.55 1301.5,-244 1304.36,-243.67 1307.3,-243.29 1310.26,-242.86"/>
<polygon fill="midnightblue" stroke="midnightblue" points="632.99,-276.78 623.71,-281.89 634.15,-283.68 632.99,-276.78"/>
</g>
<!-- Node11&#45;&gt;Node9 -->
<g id="edge11" class="edge">
<title>Node11&#45;&gt;Node9</title>
<path fill="none" stroke="midnightblue" d="M460.02,-220.91C432.76,-210.75 394.51,-196.51 370.37,-187.52"/>
<polygon fill="midnightblue" stroke="midnightblue" points="458.93,-224.23 469.52,-224.44 461.37,-217.67 458.93,-224.23"/>
</g>
<!-- Node11&#45;&gt;Node10 -->
<g id="edge12" class="edge">
<title>Node11&#45;&gt;Node10</title>
<path fill="none" stroke="midnightblue" d="M472.63,-218.1C459.68,-208.38 443.2,-196.03 432.28,-187.83"/>
<polygon fill="midnightblue" stroke="midnightblue" points="470.83,-221.12 480.93,-224.32 475.03,-215.52 470.83,-221.12"/>
</g>
<!-- Node11&#45;&gt;Node12 -->
<g id="edge13" class="edge">
<title>Node11&#45;&gt;Node12</title>
<path fill="none" stroke="midnightblue" d="M495.3,-214.1C496.63,-205.14 498.15,-194.86 499.2,-187.75"/>
<polygon fill="midnightblue" stroke="midnightblue" points="491.82,-213.68 493.82,-224.08 498.75,-214.7 491.82,-213.68"/>
</g>
<!-- Node11&#45;&gt;Node13 -->
<g id="edge14" class="edge">
<title>Node11&#45;&gt;Node13</title>
<path fill="none" stroke="midnightblue" d="M514.69,-218.9C530.28,-209 550.63,-196.07 563.88,-187.65"/>
<polygon fill="midnightblue" stroke="midnightblue" points="512.72,-216.01 506.16,-224.32 516.47,-221.92 512.72,-216.01"/>
</g>
<!-- Node15 -->
<g id="node15" class="node">
<title>Node15</title>
<g id="a_node15"><a xlink:href="mp4coverart_8h.html" target="_top" xlink:title=" ">
<polygon fill="white" stroke="black" points="661.5,-168.5 661.5,-187.5 749.5,-187.5 749.5,-168.5 661.5,-168.5"/>
<text text-anchor="middle" x="705.5" y="-175.5" font-family="Helvetica,sans-Serif" font-size="10.00">mp4coverart.h</text>
</a>
</g>
</g>
<!-- Node14&#45;&gt;Node15 -->
<g id="edge16" class="edge">
<title>Node14&#45;&gt;Node15</title>
<path fill="none" stroke="midnightblue" d="M705.5,-213.8C705.5,-204.91 705.5,-194.78 705.5,-187.75"/>
<polygon fill="midnightblue" stroke="midnightblue" points="702,-214.08 705.5,-224.08 709,-214.08 702,-214.08"/>
</g>
<!-- Node14&#45;&gt;Node18 -->
<g id="edge21" class="edge">
<title>Node14&#45;&gt;Node18</title>
<path fill="none" stroke="midnightblue" d="M726.98,-218.22C737.48,-210.19 749.71,-199.56 758.5,-188 786.94,-150.6 805.49,-96.43 811.95,-75.6"/>
<polygon fill="midnightblue" stroke="midnightblue" points="724.67,-215.57 718.68,-224.31 728.81,-221.21 724.67,-215.57"/>
</g>
<!-- Node16 -->
<g id="node16" class="node">
<title>Node16</title>
<g id="a_node16"><a xlink:href="mp4item_8h.html" target="_top" xlink:title=" ">
<polygon fill="white" stroke="black" points="678.5,-112.5 678.5,-131.5 748.5,-131.5 748.5,-112.5 678.5,-112.5"/>
<text text-anchor="middle" x="713.5" y="-119.5" font-family="Helvetica,sans-Serif" font-size="10.00">mp4item.h</text>
</a>
</g>
</g>
<!-- Node15&#45;&gt;Node16 -->
<g id="edge17" class="edge">
<title>Node15&#45;&gt;Node16</title>
<path fill="none" stroke="midnightblue" d="M708.3,-158.1C709.63,-149.14 711.15,-138.86 712.2,-131.75"/>
<polygon fill="midnightblue" stroke="midnightblue" points="704.82,-157.68 706.82,-168.08 711.75,-158.7 704.82,-157.68"/>
</g>
<!-- Node17 -->
<g id="node17" class="node">
<title>Node17</title>
<g id="a_node17"><a xlink:href="mp4itemfactory_8h.html" target="_top" xlink:title=" ">
<polygon fill="white" stroke="black" points="662,-56.5 662,-75.5 765,-75.5 765,-56.5 662,-56.5"/>
<text text-anchor="middle" x="713.5" y="-63.5" font-family="Helvetica,sans-Serif" font-size="10.00">mp4itemfactory.h</text>
</a>
</g>
</g>
<!-- Node16&#45;&gt;Node17 -->
<g id="edge18" class="edge">
<title>Node16&#45;&gt;Node17</title>
<path fill="none" stroke="midnightblue" d="M713.5,-101.8C713.5,-92.91 713.5,-82.78 713.5,-75.75"/>
<polygon fill="midnightblue" stroke="midnightblue" points="710,-102.08 713.5,-112.08 717,-102.08 710,-102.08"/>
</g>
<!-- Node16&#45;&gt;Node18 -->
<g id="edge19" class="edge">
<title>Node16&#45;&gt;Node18</title>
<path fill="none" stroke="midnightblue" d="M738.58,-107.59C757.26,-97.61 782.2,-84.27 798.31,-75.65"/>
<polygon fill="midnightblue" stroke="midnightblue" points="736.9,-104.52 729.73,-112.32 740.2,-110.7 736.9,-104.52"/>
</g>
<!-- Node18&#45;&gt;Node19 -->
<g id="edge20" class="edge">
<title>Node18&#45;&gt;Node19</title>
<path fill="none" stroke="midnightblue" d="M791.21,-51.18C774.46,-41.24 752.4,-28.15 738.08,-19.65"/>
<polygon fill="midnightblue" stroke="midnightblue" points="789.49,-54.23 799.88,-56.32 793.07,-48.21 789.49,-54.23"/>
</g>
<!-- Node23 -->
<g id="node23" class="node">
<title>Node23</title>
<g id="a_node23"><a xlink:href="oggflacfile_8h.html" target="_top" xlink:title=" ">
<polygon fill="white" stroke="black" points="1103.5,-168.5 1103.5,-187.5 1179.5,-187.5 1179.5,-168.5 1103.5,-168.5"/>
<text text-anchor="middle" x="1141.5" y="-175.5" font-family="Helvetica,sans-Serif" font-size="10.00">oggflacfile.h</text>
</a>
</g>
</g>
<!-- Node22&#45;&gt;Node23 -->
<g id="edge27" class="edge">
<title>Node22&#45;&gt;Node23</title>
<path fill="none" stroke="midnightblue" d="M1046.51,-220.37C1069.73,-210.26 1101.66,-196.35 1121.94,-187.52"/>
<polygon fill="midnightblue" stroke="midnightblue" points="1044.92,-217.24 1037.15,-224.44 1047.71,-223.66 1044.92,-217.24"/>
</g>
<!-- Node24 -->
<g id="node24" class="node">
<title>Node24</title>
<g id="a_node24"><a xlink:href="opusfile_8h.html" target="_top" xlink:title=" ">
<polygon fill="white" stroke="black" points="843.5,-168.5 843.5,-187.5 907.5,-187.5 907.5,-168.5 843.5,-168.5"/>
<text text-anchor="middle" x="875.5" y="-175.5" font-family="Helvetica,sans-Serif" font-size="10.00">opusfile.h</text>
</a>
</g>
</g>
<!-- Node22&#45;&gt;Node24 -->
<g id="edge28" class="edge">
<title>Node22&#45;&gt;Node24</title>
<path fill="none" stroke="midnightblue" d="M985.34,-220.77C958.67,-210.63 921.43,-196.47 897.9,-187.52"/>
<polygon fill="midnightblue" stroke="midnightblue" points="984.41,-224.16 995,-224.44 986.9,-217.62 984.41,-224.16"/>
</g>
<!-- Node25 -->
<g id="node25" class="node">
<title>Node25</title>
<g id="a_node25"><a xlink:href="speexfile_8h.html" target="_top" xlink:title=" ">
<polygon fill="white" stroke="black" points="925.5,-168.5 925.5,-187.5 995.5,-187.5 995.5,-168.5 925.5,-168.5"/>
<text text-anchor="middle" x="960.5" y="-175.5" font-family="Helvetica,sans-Serif" font-size="10.00">speexfile.h</text>
</a>
</g>
</g>
<!-- Node22&#45;&gt;Node25 -->
<g id="edge29" class="edge">
<title>Node22&#45;&gt;Node25</title>
<path fill="none" stroke="midnightblue" d="M1000.88,-217.25C990.77,-207.67 978.22,-195.79 969.82,-187.83"/>
<polygon fill="midnightblue" stroke="midnightblue" points="998.68,-219.99 1008.34,-224.32 1003.49,-214.91 998.68,-219.99"/>
</g>
<!-- Node26 -->
<g id="node26" class="node">
<title>Node26</title>
<g id="a_node26"><a xlink:href="vorbisfile_8h.html" target="_top" xlink:title=" ">
<polygon fill="white" stroke="black" points="1014,-168.5 1014,-187.5 1085,-187.5 1085,-168.5 1014,-168.5"/>
<text text-anchor="middle" x="1049.5" y="-175.5" font-family="Helvetica,sans-Serif" font-size="10.00">vorbisfile.h</text>
</a>
</g>
</g>
<!-- Node22&#45;&gt;Node26 -->
<g id="edge30" class="edge">
<title>Node22&#45;&gt;Node26</title>
<path fill="none" stroke="midnightblue" d="M1028,-215.27C1033.47,-206.05 1039.92,-195.17 1044.31,-187.75"/>
<polygon fill="midnightblue" stroke="midnightblue" points="1024.87,-213.7 1022.78,-224.08 1030.89,-217.26 1024.87,-213.7"/>
</g>
<!-- Node28 -->
<g id="node28" class="node">
<title>Node28</title>
<g id="a_node28"><a xlink:href="aifffile_8h.html" target="_top" xlink:title=" ">
<polygon fill="white" stroke="black" points="1197.5,-168.5 1197.5,-187.5 1253.5,-187.5 1253.5,-168.5 1197.5,-168.5"/>
<text text-anchor="middle" x="1225.5" y="-175.5" font-family="Helvetica,sans-Serif" font-size="10.00">aifffile.h</text>
</a>
</g>
</g>
<!-- Node27&#45;&gt;Node28 -->
<g id="edge32" class="edge">
<title>Node27&#45;&gt;Node28</title>
<path fill="none" stroke="midnightblue" d="M1178.05,-217.82C1189.88,-208.15 1204.79,-195.95 1214.7,-187.83"/>
<polygon fill="midnightblue" stroke="midnightblue" points="1175.63,-215.28 1170.1,-224.32 1180.06,-220.7 1175.63,-215.28"/>
</g>
<!-- Node29 -->
<g id="node29" class="node">
<title>Node29</title>
<g id="a_node29"><a xlink:href="dsdifffile_8h.html" target="_top" xlink:title=" ">
<polygon fill="white" stroke="black" points="1271.5,-168.5 1271.5,-187.5 1339.5,-187.5 1339.5,-168.5 1271.5,-168.5"/>
<text text-anchor="middle" x="1305.5" y="-175.5" font-family="Helvetica,sans-Serif" font-size="10.00">dsdifffile.h</text>
</a>
</g>
</g>
<!-- Node27&#45;&gt;Node29 -->
<g id="edge33" class="edge">
<title>Node27&#45;&gt;Node29</title>
<path fill="none" stroke="midnightblue" d="M1192.2,-220.91C1219.65,-210.75 1258.17,-196.51 1282.47,-187.52"/>
<polygon fill="midnightblue" stroke="midnightblue" points="1190.8,-217.69 1182.63,-224.44 1193.23,-224.26 1190.8,-217.69"/>
</g>
<!-- Node30 -->
<g id="node30" class="node">
<title>Node30</title>
<g id="a_node30"><a xlink:href="wavfile_8h.html" target="_top" xlink:title=" ">
<polygon fill="white" stroke="black" points="1358,-168.5 1358,-187.5 1419,-187.5 1419,-168.5 1358,-168.5"/>
<text text-anchor="middle" x="1388.5" y="-175.5" font-family="Helvetica,sans-Serif" font-size="10.00">wavfile.h</text>
</a>
</g>
</g>
<!-- Node27&#45;&gt;Node30 -->
<g id="edge34" class="edge">
<title>Node27&#45;&gt;Node30</title>
<path fill="none" stroke="midnightblue" d="M1196.2,-224.07C1196.3,-224.05 1196.4,-224.02 1196.5,-224 1253.44,-210.4 1319.98,-194.89 1357.89,-186.09"/>
<polygon fill="midnightblue" stroke="midnightblue" points="1195.48,-220.65 1186.57,-226.39 1197.11,-227.45 1195.48,-220.65"/>
</g>
</g>
</svg>
