<?xml version="1.0" encoding="UTF-8" standalone="no"?>
<!DOCTYPE svg PUBLIC "-//W3C//DTD SVG 1.1//EN"
 "http://www.w3.org/Graphics/SVG/1.1/DTD/svg11.dtd">
<!-- Generated by graphviz version 2.43.0 (0)
 -->
<!-- Title: tiostream.h Pages: 1 -->
<svg width="1190pt" height="196pt"
 viewBox="0.00 0.00 1189.50 196.00" xmlns="http://www.w3.org/2000/svg" xmlns:xlink="http://www.w3.org/1999/xlink">
<g id="graph0" class="graph" transform="scale(1 1) rotate(0) translate(4 192)">
<title>tiostream.h</title>
<polygon fill="white" stroke="transparent" points="-4,4 -4,-192 1185.5,-192 1185.5,4 -4,4"/>
<!-- Node1 -->
<g id="node1" class="node">
<title>Node1</title>
<g id="a_node1"><a xlink:title=" ">
<polygon fill="#bfbfbf" stroke="black" points="491,-168.5 491,-187.5 564,-187.5 564,-168.5 491,-168.5"/>
<text text-anchor="middle" x="527.5" y="-175.5" font-family="Helvetica,sans-Serif" font-size="10.00">tiostream.h</text>
</a>
</g>
</g>
<!-- Node2 -->
<g id="node2" class="node">
<title>Node2</title>
<g id="a_node2"><a xlink:href="tbytevectorstream_8h.html" target="_top" xlink:title=" ">
<polygon fill="white" stroke="black" points="371.5,-112.5 371.5,-131.5 487.5,-131.5 487.5,-112.5 371.5,-112.5"/>
<text text-anchor="middle" x="429.5" y="-119.5" font-family="Helvetica,sans-Serif" font-size="10.00">tbytevectorstream.h</text>
</a>
</g>
</g>
<!-- Node1&#45;&gt;Node2 -->
<g id="edge1" class="edge">
<title>Node1&#45;&gt;Node2</title>
<path fill="none" stroke="midnightblue" d="M502.91,-163.45C484.82,-153.48 460.77,-140.23 445.21,-131.65"/>
<polygon fill="midnightblue" stroke="midnightblue" points="501.31,-166.56 511.75,-168.32 504.69,-160.43 501.31,-166.56"/>
</g>
<!-- Node3 -->
<g id="node3" class="node">
<title>Node3</title>
<g id="a_node3"><a xlink:href="tfile_8h.html" target="_top" xlink:title=" ">
<polygon fill="white" stroke="black" points="505.5,-112.5 505.5,-131.5 549.5,-131.5 549.5,-112.5 505.5,-112.5"/>
<text text-anchor="middle" x="527.5" y="-119.5" font-family="Helvetica,sans-Serif" font-size="10.00">tfile.h</text>
</a>
</g>
</g>
<!-- Node1&#45;&gt;Node3 -->
<g id="edge2" class="edge">
<title>Node1&#45;&gt;Node3</title>
<path fill="none" stroke="midnightblue" d="M527.5,-157.8C527.5,-148.91 527.5,-138.78 527.5,-131.75"/>
<polygon fill="midnightblue" stroke="midnightblue" points="524,-158.08 527.5,-168.08 531,-158.08 524,-158.08"/>
</g>
<!-- Node27 -->
<g id="node27" class="node">
<title>Node27</title>
<g id="a_node27"><a xlink:href="tfilestream_8h.html" target="_top" xlink:title=" ">
<polygon fill="white" stroke="black" points="568,-112.5 568,-131.5 647,-131.5 647,-112.5 568,-112.5"/>
<text text-anchor="middle" x="607.5" y="-119.5" font-family="Helvetica,sans-Serif" font-size="10.00">tfilestream.h</text>
</a>
</g>
</g>
<!-- Node1&#45;&gt;Node27 -->
<g id="edge31" class="edge">
<title>Node1&#45;&gt;Node27</title>
<path fill="none" stroke="midnightblue" d="M548.8,-162.62C563.42,-152.76 582.33,-139.99 594.68,-131.65"/>
<polygon fill="midnightblue" stroke="midnightblue" points="546.68,-159.83 540.35,-168.32 550.6,-165.63 546.68,-159.83"/>
</g>
<!-- Node4 -->
<g id="node4" class="node">
<title>Node4</title>
<g id="a_node4"><a xlink:href="apefile_8h.html" target="_top" xlink:title=" ">
<polygon fill="white" stroke="black" points="0,-56.5 0,-75.5 59,-75.5 59,-56.5 0,-56.5"/>
<text text-anchor="middle" x="29.5" y="-63.5" font-family="Helvetica,sans-Serif" font-size="10.00">apefile.h</text>
</a>
</g>
</g>
<!-- Node3&#45;&gt;Node4 -->
<g id="edge3" class="edge">
<title>Node3&#45;&gt;Node4</title>
<path fill="none" stroke="midnightblue" d="M495.33,-112.15C306.99,-78.17 253.87,-105.03 68.5,-76 65.48,-75.53 62.34,-74.95 59.23,-74.32"/>
<polygon fill="midnightblue" stroke="midnightblue" points="494.81,-115.61 505.28,-113.97 496.07,-108.72 494.81,-115.61"/>
</g>
<!-- Node5 -->
<g id="node5" class="node">
<title>Node5</title>
<g id="a_node5"><a xlink:href="asffile_8h.html" target="_top" xlink:title=" ">
<polygon fill="white" stroke="black" points="77.5,-56.5 77.5,-75.5 133.5,-75.5 133.5,-56.5 77.5,-56.5"/>
<text text-anchor="middle" x="105.5" y="-63.5" font-family="Helvetica,sans-Serif" font-size="10.00">asffile.h</text>
</a>
</g>
</g>
<!-- Node3&#45;&gt;Node5 -->
<g id="edge4" class="edge">
<title>Node3&#45;&gt;Node5</title>
<path fill="none" stroke="midnightblue" d="M495.33,-112.11C339.45,-82.67 295.17,-102.2 142.5,-76 139.63,-75.51 136.66,-74.92 133.7,-74.28"/>
<polygon fill="midnightblue" stroke="midnightblue" points="494.79,-115.57 505.27,-114.02 496.11,-108.69 494.79,-115.57"/>
</g>
<!-- Node6 -->
<g id="node6" class="node">
<title>Node6</title>
<g id="a_node6"><a xlink:href="fileref_8h.html" target="_top" xlink:title=" ">
<polygon fill="white" stroke="black" points="152,-56.5 152,-75.5 205,-75.5 205,-56.5 152,-56.5"/>
<text text-anchor="middle" x="178.5" y="-63.5" font-family="Helvetica,sans-Serif" font-size="10.00">fileref.h</text>
</a>
</g>
</g>
<!-- Node3&#45;&gt;Node6 -->
<g id="edge5" class="edge">
<title>Node3&#45;&gt;Node6</title>
<path fill="none" stroke="midnightblue" d="M495.35,-112.05C371,-86.95 335.52,-98.77 214.5,-76 211.46,-75.43 208.3,-74.75 205.16,-74.04"/>
<polygon fill="midnightblue" stroke="midnightblue" points="494.75,-115.5 505.25,-114.09 496.16,-108.65 494.75,-115.5"/>
</g>
<!-- Node7 -->
<g id="node7" class="node">
<title>Node7</title>
<g id="a_node7"><a xlink:href="flacfile_8h.html" target="_top" xlink:title=" ">
<polygon fill="white" stroke="black" points="223.5,-56.5 223.5,-75.5 281.5,-75.5 281.5,-56.5 223.5,-56.5"/>
<text text-anchor="middle" x="252.5" y="-63.5" font-family="Helvetica,sans-Serif" font-size="10.00">flacfile.h</text>
</a>
</g>
</g>
<!-- Node3&#45;&gt;Node7 -->
<g id="edge6" class="edge">
<title>Node3&#45;&gt;Node7</title>
<path fill="none" stroke="midnightblue" d="M495.25,-111.9C406.4,-91.43 381.46,-92.69 295.5,-76 291.01,-75.13 286.26,-74.17 281.62,-73.21"/>
<polygon fill="midnightblue" stroke="midnightblue" points="494.69,-115.37 505.22,-114.23 496.28,-108.55 494.69,-115.37"/>
</g>
<!-- Node8 -->
<g id="node8" class="node">
<title>Node8</title>
<g id="a_node8"><a xlink:href="itfile_8h.html" target="_top" xlink:title=" ">
<polygon fill="white" stroke="black" points="275,-0.5 275,-19.5 322,-19.5 322,-0.5 275,-0.5"/>
<text text-anchor="middle" x="298.5" y="-7.5" font-family="Helvetica,sans-Serif" font-size="10.00">itfile.h</text>
</a>
</g>
</g>
<!-- Node3&#45;&gt;Node8 -->
<g id="edge7" class="edge">
<title>Node3&#45;&gt;Node8</title>
<path fill="none" stroke="midnightblue" d="M495.15,-111.82C432.19,-96.33 408.69,-107.78 356.5,-76 332.47,-61.37 312.74,-33.69 303.75,-19.64"/>
<polygon fill="midnightblue" stroke="midnightblue" points="494.61,-115.3 505.17,-114.43 496.38,-108.52 494.61,-115.3"/>
</g>
<!-- Node9 -->
<g id="node9" class="node">
<title>Node9</title>
<g id="a_node9"><a xlink:href="modfile_8h.html" target="_top" xlink:title=" ">
<polygon fill="white" stroke="black" points="340.5,-0.5 340.5,-19.5 402.5,-19.5 402.5,-0.5 340.5,-0.5"/>
<text text-anchor="middle" x="371.5" y="-7.5" font-family="Helvetica,sans-Serif" font-size="10.00">modfile.h</text>
</a>
</g>
</g>
<!-- Node3&#45;&gt;Node9 -->
<g id="edge8" class="edge">
<title>Node3&#45;&gt;Node9</title>
<path fill="none" stroke="midnightblue" d="M495.57,-112.04C435.16,-98.3 400.95,-121.29 366.5,-76 353.89,-59.43 361.99,-33.1 367.54,-19.6"/>
<polygon fill="midnightblue" stroke="midnightblue" points="494.94,-115.49 505.49,-114.57 496.67,-108.71 494.94,-115.49"/>
</g>
<!-- Node10 -->
<g id="node10" class="node">
<title>Node10</title>
<g id="a_node10"><a xlink:href="modfilebase_8h.html" target="_top" xlink:title=" ">
<polygon fill="white" stroke="black" points="375.5,-56.5 375.5,-75.5 461.5,-75.5 461.5,-56.5 375.5,-56.5"/>
<text text-anchor="middle" x="418.5" y="-63.5" font-family="Helvetica,sans-Serif" font-size="10.00">modfilebase.h</text>
</a>
</g>
</g>
<!-- Node3&#45;&gt;Node10 -->
<g id="edge9" class="edge">
<title>Node3&#45;&gt;Node10</title>
<path fill="none" stroke="midnightblue" d="M500.98,-107.86C480.77,-97.85 453.51,-84.35 435.97,-75.65"/>
<polygon fill="midnightblue" stroke="midnightblue" points="499.47,-111.02 509.99,-112.32 502.58,-104.75 499.47,-111.02"/>
</g>
<!-- Node11 -->
<g id="node11" class="node">
<title>Node11</title>
<g id="a_node11"><a xlink:href="s3mfile_8h.html" target="_top" xlink:title=" ">
<polygon fill="white" stroke="black" points="420.5,-0.5 420.5,-19.5 482.5,-19.5 482.5,-0.5 420.5,-0.5"/>
<text text-anchor="middle" x="451.5" y="-7.5" font-family="Helvetica,sans-Serif" font-size="10.00">s3mfile.h</text>
</a>
</g>
</g>
<!-- Node3&#45;&gt;Node11 -->
<g id="edge27" class="edge">
<title>Node3&#45;&gt;Node11</title>
<path fill="none" stroke="midnightblue" d="M515.72,-103.96C499.25,-80.12 469.95,-37.71 457.44,-19.59"/>
<polygon fill="midnightblue" stroke="midnightblue" points="512.97,-106.13 521.54,-112.37 518.73,-102.15 512.97,-106.13"/>
</g>
<!-- Node12 -->
<g id="node12" class="node">
<title>Node12</title>
<g id="a_node12"><a xlink:href="xmfile_8h.html" target="_top" xlink:title=" ">
<polygon fill="white" stroke="black" points="500.5,-0.5 500.5,-19.5 556.5,-19.5 556.5,-0.5 500.5,-0.5"/>
<text text-anchor="middle" x="528.5" y="-7.5" font-family="Helvetica,sans-Serif" font-size="10.00">xmfile.h</text>
</a>
</g>
</g>
<!-- Node3&#45;&gt;Node12 -->
<g id="edge30" class="edge">
<title>Node3&#45;&gt;Node12</title>
<path fill="none" stroke="midnightblue" d="M527.67,-102.35C527.89,-78.25 528.26,-37.31 528.42,-19.59"/>
<polygon fill="midnightblue" stroke="midnightblue" points="524.17,-102.34 527.58,-112.37 531.17,-102.4 524.17,-102.34"/>
</g>
<!-- Node13 -->
<g id="node13" class="node">
<title>Node13</title>
<g id="a_node13"><a xlink:href="mp4file_8h.html" target="_top" xlink:title=" ">
<polygon fill="white" stroke="black" points="580.5,-0.5 580.5,-19.5 642.5,-19.5 642.5,-0.5 580.5,-0.5"/>
<text text-anchor="middle" x="611.5" y="-7.5" font-family="Helvetica,sans-Serif" font-size="10.00">mp4file.h</text>
</a>
</g>
</g>
<!-- Node3&#45;&gt;Node13 -->
<g id="edge14" class="edge">
<title>Node3&#45;&gt;Node13</title>
<path fill="none" stroke="midnightblue" d="M559.45,-110.86C585.63,-101.83 619.62,-88.19 627.5,-76 638.98,-58.24 626.05,-32.88 617.62,-19.7"/>
<polygon fill="midnightblue" stroke="midnightblue" points="558.22,-107.58 549.86,-114.09 560.46,-114.21 558.22,-107.58"/>
</g>
<!-- Node14 -->
<g id="node14" class="node">
<title>Node14</title>
<g id="a_node14"><a xlink:href="mp4tag_8h.html" target="_top" xlink:title=" ">
<polygon fill="white" stroke="black" points="556,-56.5 556,-75.5 619,-75.5 619,-56.5 556,-56.5"/>
<text text-anchor="middle" x="587.5" y="-63.5" font-family="Helvetica,sans-Serif" font-size="10.00">mp4tag.h</text>
</a>
</g>
</g>
<!-- Node3&#45;&gt;Node14 -->
<g id="edge15" class="edge">
<title>Node3&#45;&gt;Node14</title>
<path fill="none" stroke="midnightblue" d="M544.68,-105.54C555.38,-95.91 568.76,-83.87 577.68,-75.83"/>
<polygon fill="midnightblue" stroke="midnightblue" points="542.23,-103.03 537.14,-112.32 546.91,-108.24 542.23,-103.03"/>
</g>
<!-- Node15 -->
<g id="node15" class="node">
<title>Node15</title>
<g id="a_node15"><a xlink:href="mpcfile_8h.html" target="_top" xlink:title=" ">
<polygon fill="white" stroke="black" points="675.5,-56.5 675.5,-75.5 737.5,-75.5 737.5,-56.5 675.5,-56.5"/>
<text text-anchor="middle" x="706.5" y="-63.5" font-family="Helvetica,sans-Serif" font-size="10.00">mpcfile.h</text>
</a>
</g>
</g>
<!-- Node3&#45;&gt;Node15 -->
<g id="edge17" class="edge">
<title>Node3&#45;&gt;Node15</title>
<path fill="none" stroke="midnightblue" d="M559.65,-111.3C593.44,-101.11 646.07,-85.23 678.3,-75.51"/>
<polygon fill="midnightblue" stroke="midnightblue" points="558.37,-108.03 549.81,-114.27 560.39,-114.73 558.37,-108.03"/>
</g>
<!-- Node16 -->
<g id="node16" class="node">
<title>Node16</title>
<g id="a_node16"><a xlink:href="mpegfile_8h.html" target="_top" xlink:title=" ">
<polygon fill="white" stroke="black" points="755.5,-56.5 755.5,-75.5 823.5,-75.5 823.5,-56.5 755.5,-56.5"/>
<text text-anchor="middle" x="789.5" y="-63.5" font-family="Helvetica,sans-Serif" font-size="10.00">mpegfile.h</text>
</a>
</g>
</g>
<!-- Node3&#45;&gt;Node16 -->
<g id="edge18" class="edge">
<title>Node3&#45;&gt;Node16</title>
<path fill="none" stroke="midnightblue" d="M559.68,-111.89C642.93,-92.14 666.18,-92.09 746.5,-76 749.34,-75.43 752.29,-74.83 755.24,-74.23"/>
<polygon fill="midnightblue" stroke="midnightblue" points="558.69,-108.53 549.78,-114.26 560.33,-115.33 558.69,-108.53"/>
</g>
<!-- Node17 -->
<g id="node17" class="node">
<title>Node17</title>
<g id="a_node17"><a xlink:href="oggfile_8h.html" target="_top" xlink:title=" ">
<polygon fill="white" stroke="black" points="842,-56.5 842,-75.5 901,-75.5 901,-56.5 842,-56.5"/>
<text text-anchor="middle" x="871.5" y="-63.5" font-family="Helvetica,sans-Serif" font-size="10.00">oggfile.h</text>
</a>
</g>
</g>
<!-- Node3&#45;&gt;Node17 -->
<g id="edge19" class="edge">
<title>Node3&#45;&gt;Node17</title>
<path fill="none" stroke="midnightblue" d="M559.75,-112.02C680.51,-87.36 714.82,-97.26 832.5,-76 835.51,-75.46 838.64,-74.83 841.75,-74.18"/>
<polygon fill="midnightblue" stroke="midnightblue" points="558.83,-108.64 549.75,-114.1 560.25,-115.49 558.83,-108.64"/>
</g>
<!-- Node22 -->
<g id="node22" class="node">
<title>Node22</title>
<g id="a_node22"><a xlink:href="rifffile_8h.html" target="_top" xlink:title=" ">
<polygon fill="white" stroke="black" points="919.5,-56.5 919.5,-75.5 973.5,-75.5 973.5,-56.5 919.5,-56.5"/>
<text text-anchor="middle" x="946.5" y="-63.5" font-family="Helvetica,sans-Serif" font-size="10.00">rifffile.h</text>
</a>
</g>
</g>
<!-- Node3&#45;&gt;Node22 -->
<g id="edge24" class="edge">
<title>Node3&#45;&gt;Node22</title>
<path fill="none" stroke="midnightblue" d="M559.59,-112.12C714.22,-82.84 758.12,-102.05 909.5,-76 912.63,-75.46 915.88,-74.81 919.11,-74.1"/>
<polygon fill="midnightblue" stroke="midnightblue" points="558.89,-108.69 549.73,-114.02 560.22,-115.57 558.89,-108.69"/>
</g>
<!-- Node25 -->
<g id="node25" class="node">
<title>Node25</title>
<g id="a_node25"><a xlink:href="trueaudiofile_8h.html" target="_top" xlink:title=" ">
<polygon fill="white" stroke="black" points="992,-56.5 992,-75.5 1079,-75.5 1079,-56.5 992,-56.5"/>
<text text-anchor="middle" x="1035.5" y="-63.5" font-family="Helvetica,sans-Serif" font-size="10.00">trueaudiofile.h</text>
</a>
</g>
</g>
<!-- Node3&#45;&gt;Node25 -->
<g id="edge28" class="edge">
<title>Node3&#45;&gt;Node25</title>
<path fill="none" stroke="midnightblue" d="M559.58,-112.16C746.21,-78.22 798.09,-99.44 982.5,-76 985.56,-75.61 988.7,-75.17 991.87,-74.71"/>
<polygon fill="midnightblue" stroke="midnightblue" points="558.92,-108.72 549.72,-113.98 560.19,-115.6 558.92,-108.72"/>
</g>
<!-- Node26 -->
<g id="node26" class="node">
<title>Node26</title>
<g id="a_node26"><a xlink:href="wavpackfile_8h.html" target="_top" xlink:title=" ">
<polygon fill="white" stroke="black" points="1097.5,-56.5 1097.5,-75.5 1181.5,-75.5 1181.5,-56.5 1097.5,-56.5"/>
<text text-anchor="middle" x="1139.5" y="-63.5" font-family="Helvetica,sans-Serif" font-size="10.00">wavpackfile.h</text>
</a>
</g>
</g>
<!-- Node3&#45;&gt;Node26 -->
<g id="edge29" class="edge">
<title>Node3&#45;&gt;Node26</title>
<path fill="none" stroke="midnightblue" d="M559.86,-112.15C792.81,-71.79 857.45,-104.15 1088.5,-76 1091.36,-75.65 1094.29,-75.25 1097.25,-74.81"/>
<polygon fill="midnightblue" stroke="midnightblue" points="558.96,-108.75 549.72,-113.93 560.17,-115.65 558.96,-108.75"/>
</g>
<!-- Node10&#45;&gt;Node8 -->
<g id="edge10" class="edge">
<title>Node10&#45;&gt;Node8</title>
<path fill="none" stroke="midnightblue" d="M390.13,-52.23C367.68,-42.13 336.96,-28.31 317.43,-19.52"/>
<polygon fill="midnightblue" stroke="midnightblue" points="388.93,-55.53 399.49,-56.44 391.8,-49.15 388.93,-55.53"/>
</g>
<!-- Node10&#45;&gt;Node9 -->
<g id="edge11" class="edge">
<title>Node10&#45;&gt;Node9</title>
<path fill="none" stroke="midnightblue" d="M404.08,-48.43C395.84,-38.97 385.85,-27.48 379.12,-19.75"/>
<polygon fill="midnightblue" stroke="midnightblue" points="401.53,-50.84 410.74,-56.08 406.81,-46.24 401.53,-50.84"/>
</g>
<!-- Node10&#45;&gt;Node11 -->
<g id="edge12" class="edge">
<title>Node10&#45;&gt;Node11</title>
<path fill="none" stroke="midnightblue" d="M429.33,-47.27C434.97,-38.05 441.62,-27.17 446.15,-19.75"/>
<polygon fill="midnightblue" stroke="midnightblue" points="426.18,-45.73 423.95,-56.08 432.15,-49.38 426.18,-45.73"/>
</g>
<!-- Node10&#45;&gt;Node12 -->
<g id="edge13" class="edge">
<title>Node10&#45;&gt;Node12</title>
<path fill="none" stroke="midnightblue" d="M445.26,-51.86C465.66,-41.85 493.17,-28.35 510.87,-19.65"/>
<polygon fill="midnightblue" stroke="midnightblue" points="443.61,-48.78 436.17,-56.32 446.69,-55.06 443.61,-48.78"/>
</g>
<!-- Node14&#45;&gt;Node13 -->
<g id="edge16" class="edge">
<title>Node14&#45;&gt;Node13</title>
<path fill="none" stroke="midnightblue" d="M595.64,-46.69C599.68,-37.59 604.38,-27.01 607.61,-19.75"/>
<polygon fill="midnightblue" stroke="midnightblue" points="592.33,-45.52 591.46,-56.08 598.72,-48.37 592.33,-45.52"/>
</g>
<!-- Node18 -->
<g id="node18" class="node">
<title>Node18</title>
<g id="a_node18"><a xlink:href="oggflacfile_8h.html" target="_top" xlink:title=" ">
<polygon fill="white" stroke="black" points="923.5,-0.5 923.5,-19.5 999.5,-19.5 999.5,-0.5 923.5,-0.5"/>
<text text-anchor="middle" x="961.5" y="-7.5" font-family="Helvetica,sans-Serif" font-size="10.00">oggflacfile.h</text>
</a>
</g>
</g>
<!-- Node17&#45;&gt;Node18 -->
<g id="edge20" class="edge">
<title>Node17&#45;&gt;Node18</title>
<path fill="none" stroke="midnightblue" d="M894.54,-51.18C911.1,-41.24 932.92,-28.15 947.08,-19.65"/>
<polygon fill="midnightblue" stroke="midnightblue" points="892.73,-48.18 885.96,-56.32 896.34,-54.18 892.73,-48.18"/>
</g>
<!-- Node19 -->
<g id="node19" class="node">
<title>Node19</title>
<g id="a_node19"><a xlink:href="opusfile_8h.html" target="_top" xlink:title=" ">
<polygon fill="white" stroke="black" points="663.5,-0.5 663.5,-19.5 727.5,-19.5 727.5,-0.5 663.5,-0.5"/>
<text text-anchor="middle" x="695.5" y="-7.5" font-family="Helvetica,sans-Serif" font-size="10.00">opusfile.h</text>
</a>
</g>
</g>
<!-- Node17&#45;&gt;Node19 -->
<g id="edge21" class="edge">
<title>Node17&#45;&gt;Node19</title>
<path fill="none" stroke="midnightblue" d="M833.81,-53.44C800.63,-43.26 753.07,-28.66 723.26,-19.52"/>
<polygon fill="midnightblue" stroke="midnightblue" points="833.03,-56.86 843.61,-56.44 835.08,-50.16 833.03,-56.86"/>
</g>
<!-- Node20 -->
<g id="node20" class="node">
<title>Node20</title>
<g id="a_node20"><a xlink:href="speexfile_8h.html" target="_top" xlink:title=" ">
<polygon fill="white" stroke="black" points="745.5,-0.5 745.5,-19.5 815.5,-19.5 815.5,-0.5 745.5,-0.5"/>
<text text-anchor="middle" x="780.5" y="-7.5" font-family="Helvetica,sans-Serif" font-size="10.00">speexfile.h</text>
</a>
</g>
</g>
<!-- Node17&#45;&gt;Node20 -->
<g id="edge22" class="edge">
<title>Node17&#45;&gt;Node20</title>
<path fill="none" stroke="midnightblue" d="M848.21,-51.18C831.46,-41.24 809.4,-28.15 795.08,-19.65"/>
<polygon fill="midnightblue" stroke="midnightblue" points="846.49,-54.23 856.88,-56.32 850.07,-48.21 846.49,-54.23"/>
</g>
<!-- Node21 -->
<g id="node21" class="node">
<title>Node21</title>
<g id="a_node21"><a xlink:href="vorbisfile_8h.html" target="_top" xlink:title=" ">
<polygon fill="white" stroke="black" points="834,-0.5 834,-19.5 905,-19.5 905,-0.5 834,-0.5"/>
<text text-anchor="middle" x="869.5" y="-7.5" font-family="Helvetica,sans-Serif" font-size="10.00">vorbisfile.h</text>
</a>
</g>
</g>
<!-- Node17&#45;&gt;Node21 -->
<g id="edge23" class="edge">
<title>Node17&#45;&gt;Node21</title>
<path fill="none" stroke="midnightblue" d="M870.79,-45.8C870.46,-36.91 870.08,-26.78 869.82,-19.75"/>
<polygon fill="midnightblue" stroke="midnightblue" points="867.3,-46.22 871.17,-56.08 874.3,-45.96 867.3,-46.22"/>
</g>
<!-- Node23 -->
<g id="node23" class="node">
<title>Node23</title>
<g id="a_node23"><a xlink:href="aifffile_8h.html" target="_top" xlink:title=" ">
<polygon fill="white" stroke="black" points="1097.5,-0.5 1097.5,-19.5 1153.5,-19.5 1153.5,-0.5 1097.5,-0.5"/>
<text text-anchor="middle" x="1125.5" y="-7.5" font-family="Helvetica,sans-Serif" font-size="10.00">aifffile.h</text>
</a>
</g>
</g>
<!-- Node22&#45;&gt;Node23 -->
<g id="edge25" class="edge">
<title>Node22&#45;&gt;Node23</title>
<path fill="none" stroke="midnightblue" d="M983.66,-53.79C1017.53,-43.57 1066.81,-28.71 1097.47,-19.46"/>
<polygon fill="midnightblue" stroke="midnightblue" points="982.25,-50.56 973.69,-56.8 984.27,-57.26 982.25,-50.56"/>
</g>
<!-- Node24 -->
<g id="node24" class="node">
<title>Node24</title>
<g id="a_node24"><a xlink:href="wavfile_8h.html" target="_top" xlink:title=" ">
<polygon fill="white" stroke="black" points="1018,-0.5 1018,-19.5 1079,-19.5 1079,-0.5 1018,-0.5"/>
<text text-anchor="middle" x="1048.5" y="-7.5" font-family="Helvetica,sans-Serif" font-size="10.00">wavfile.h</text>
</a>
</g>
</g>
<!-- Node22&#45;&gt;Node24 -->
<g id="edge26" class="edge">
<title>Node22&#45;&gt;Node24</title>
<path fill="none" stroke="midnightblue" d="M971.83,-51.59C990.69,-41.61 1015.88,-28.27 1032.15,-19.65"/>
<polygon fill="midnightblue" stroke="midnightblue" points="970.09,-48.55 962.89,-56.32 973.36,-54.74 970.09,-48.55"/>
</g>
</g>
</svg>
