<?xml version="1.0" encoding="UTF-8" standalone="no"?>
<!DOCTYPE svg PUBLIC "-//W3C//DTD SVG 1.1//EN"
 "http://www.w3.org/Graphics/SVG/1.1/DTD/svg11.dtd">
<!-- Generated by graphviz version 2.43.0 (0)
 -->
<!-- Title: tlist.h Pages: 1 -->
<svg width="290pt" height="84pt"
 viewBox="0.00 0.00 289.50 84.00" xmlns="http://www.w3.org/2000/svg" xmlns:xlink="http://www.w3.org/1999/xlink">
<g id="graph0" class="graph" transform="scale(1 1) rotate(0) translate(4 80)">
<title>tlist.h</title>
<polygon fill="white" stroke="transparent" points="-4,4 -4,-80 285.5,-80 285.5,4 -4,4"/>
<!-- Node1 -->
<g id="node1" class="node">
<title>Node1</title>
<g id="a_node1"><a xlink:title=" ">
<polygon fill="#bfbfbf" stroke="black" points="114,-56.5 114,-75.5 158,-75.5 158,-56.5 114,-56.5"/>
<text text-anchor="middle" x="136" y="-63.5" font-family="Helvetica,sans-Serif" font-size="10.00">tlist.h</text>
</a>
</g>
</g>
<!-- Node2 -->
<g id="node2" class="node">
<title>Node2</title>
<g id="a_node2"><a xlink:title=" ">
<polygon fill="white" stroke="#bfbfbf" points="0,-0.5 0,-19.5 32,-19.5 32,-0.5 0,-0.5"/>
<text text-anchor="middle" x="16" y="-7.5" font-family="Helvetica,sans-Serif" font-size="10.00">list</text>
</a>
</g>
</g>
<!-- Node1&#45;&gt;Node2 -->
<g id="edge1" class="edge">
<title>Node1&#45;&gt;Node2</title>
<path fill="none" stroke="midnightblue" d="M116.99,-56.44C96.61,-47.27 64.14,-32.66 41.54,-22.5"/>
<polygon fill="midnightblue" stroke="midnightblue" points="42.79,-19.22 32.23,-18.3 39.91,-25.6 42.79,-19.22"/>
</g>
<!-- Node3 -->
<g id="node3" class="node">
<title>Node3</title>
<g id="a_node3"><a xlink:title=" ">
<polygon fill="white" stroke="#bfbfbf" points="50.5,-0.5 50.5,-19.5 133.5,-19.5 133.5,-0.5 50.5,-0.5"/>
<text text-anchor="middle" x="92" y="-7.5" font-family="Helvetica,sans-Serif" font-size="10.00">initializer_list</text>
</a>
</g>
</g>
<!-- Node1&#45;&gt;Node3 -->
<g id="edge2" class="edge">
<title>Node1&#45;&gt;Node3</title>
<path fill="none" stroke="midnightblue" d="M128.73,-56.08C122.46,-48.38 113.21,-37.03 105.57,-27.65"/>
<polygon fill="midnightblue" stroke="midnightblue" points="108.16,-25.29 99.13,-19.75 102.73,-29.71 108.16,-25.29"/>
</g>
<!-- Node4 -->
<g id="node4" class="node">
<title>Node4</title>
<g id="a_node4"><a xlink:title=" ">
<polygon fill="white" stroke="#bfbfbf" points="152,-0.5 152,-19.5 210,-19.5 210,-0.5 152,-0.5"/>
<text text-anchor="middle" x="181" y="-7.5" font-family="Helvetica,sans-Serif" font-size="10.00">memory</text>
</a>
</g>
</g>
<!-- Node1&#45;&gt;Node4 -->
<g id="edge3" class="edge">
<title>Node1&#45;&gt;Node4</title>
<path fill="none" stroke="midnightblue" d="M143.43,-56.08C149.85,-48.38 159.31,-37.03 167.12,-27.65"/>
<polygon fill="midnightblue" stroke="midnightblue" points="169.99,-29.67 173.71,-19.75 164.62,-25.19 169.99,-29.67"/>
</g>
<!-- Node5 -->
<g id="node5" class="node">
<title>Node5</title>
<g id="a_node5"><a xlink:title=" ">
<polygon fill="white" stroke="#bfbfbf" points="228.5,-0.5 228.5,-19.5 281.5,-19.5 281.5,-0.5 228.5,-0.5"/>
<text text-anchor="middle" x="255" y="-7.5" font-family="Helvetica,sans-Serif" font-size="10.00">tlist.tcc</text>
</a>
</g>
</g>
<!-- Node1&#45;&gt;Node5 -->
<g id="edge4" class="edge">
<title>Node1&#45;&gt;Node5</title>
<path fill="none" stroke="midnightblue" d="M154.86,-56.44C174.27,-47.64 204.73,-33.81 226.96,-23.72"/>
<polygon fill="midnightblue" stroke="midnightblue" points="228.57,-26.84 236.23,-19.52 225.68,-20.46 228.57,-26.84"/>
</g>
</g>
</svg>
