<?xml version="1.0" encoding="UTF-8" standalone="no"?>
<!DOCTYPE svg PUBLIC "-//W3C//DTD SVG 1.1//EN"
 "http://www.w3.org/Graphics/SVG/1.1/DTD/svg11.dtd">
<!-- Generated by graphviz version 2.43.0 (0)
 -->
<!-- Title: tmap.h Pages: 1 -->
<svg width="2055pt" height="476pt"
 viewBox="0.00 0.00 2055.00 476.00" xmlns="http://www.w3.org/2000/svg" xmlns:xlink="http://www.w3.org/1999/xlink">
<g id="graph0" class="graph" transform="scale(1 1) rotate(0) translate(4 472)">
<title>tmap.h</title>
<polygon fill="white" stroke="transparent" points="-4,4 -4,-472 2051,-472 2051,4 -4,4"/>
<!-- Node1 -->
<g id="node1" class="node">
<title>Node1</title>
<g id="a_node1"><a xlink:title=" ">
<polygon fill="#bfbfbf" stroke="black" points="1160.5,-448.5 1160.5,-467.5 1211.5,-467.5 1211.5,-448.5 1160.5,-448.5"/>
<text text-anchor="middle" x="1186" y="-455.5" font-family="Helvetica,sans-Serif" font-size="10.00">tmap.h</text>
</a>
</g>
</g>
<!-- Node2 -->
<g id="node2" class="node">
<title>Node2</title>
<g id="a_node2"><a xlink:href="apetag_8h.html" target="_top" xlink:title=" ">
<polygon fill="white" stroke="black" points="286.5,-280.5 286.5,-299.5 345.5,-299.5 345.5,-280.5 286.5,-280.5"/>
<text text-anchor="middle" x="316" y="-287.5" font-family="Helvetica,sans-Serif" font-size="10.00">apetag.h</text>
</a>
</g>
</g>
<!-- Node1&#45;&gt;Node2 -->
<g id="edge1" class="edge">
<title>Node1&#45;&gt;Node2</title>
<path fill="none" stroke="midnightblue" d="M1150.31,-452.85C1091.19,-445.79 969.3,-430.38 867,-412 666.5,-375.98 428.07,-318.61 345.7,-298.37"/>
<polygon fill="midnightblue" stroke="midnightblue" points="1149.92,-456.33 1160.26,-454.04 1150.74,-449.38 1149.92,-456.33"/>
</g>
<!-- Node3 -->
<g id="node3" class="node">
<title>Node3</title>
<g id="a_node3"><a xlink:href="asftag_8h.html" target="_top" xlink:title=" ">
<polygon fill="white" stroke="black" points="1427,-280.5 1427,-299.5 1483,-299.5 1483,-280.5 1427,-280.5"/>
<text text-anchor="middle" x="1455" y="-287.5" font-family="Helvetica,sans-Serif" font-size="10.00">asftag.h</text>
</a>
</g>
</g>
<!-- Node1&#45;&gt;Node3 -->
<g id="edge2" class="edge">
<title>Node1&#45;&gt;Node3</title>
<path fill="none" stroke="midnightblue" d="M1208.92,-442.85C1263.03,-409.46 1397.4,-326.55 1441.06,-299.61"/>
<polygon fill="midnightblue" stroke="midnightblue" points="1206.76,-440.08 1200.08,-448.31 1210.43,-446.04 1206.76,-440.08"/>
</g>
<!-- Node5 -->
<g id="node5" class="node">
<title>Node5</title>
<g id="a_node5"><a xlink:href="id3v1genres_8h.html" target="_top" xlink:title=" ">
<polygon fill="white" stroke="black" points="1447,-392.5 1447,-411.5 1533,-411.5 1533,-392.5 1447,-392.5"/>
<text text-anchor="middle" x="1490" y="-399.5" font-family="Helvetica,sans-Serif" font-size="10.00">id3v1genres.h</text>
</a>
</g>
</g>
<!-- Node1&#45;&gt;Node5 -->
<g id="edge4" class="edge">
<title>Node1&#45;&gt;Node5</title>
<path fill="none" stroke="midnightblue" d="M1221.84,-450.63C1278.04,-440.65 1386.68,-421.35 1447,-410.64"/>
<polygon fill="midnightblue" stroke="midnightblue" points="1220.89,-447.25 1211.66,-452.44 1222.11,-454.14 1220.89,-447.25"/>
</g>
<!-- Node6 -->
<g id="node6" class="node">
<title>Node6</title>
<g id="a_node6"><a xlink:href="id3v2tag_8h.html" target="_top" xlink:title=" ">
<polygon fill="white" stroke="black" points="442,-280.5 442,-299.5 510,-299.5 510,-280.5 442,-280.5"/>
<text text-anchor="middle" x="476" y="-287.5" font-family="Helvetica,sans-Serif" font-size="10.00">id3v2tag.h</text>
</a>
</g>
</g>
<!-- Node1&#45;&gt;Node6 -->
<g id="edge5" class="edge">
<title>Node1&#45;&gt;Node6</title>
<path fill="none" stroke="midnightblue" d="M1150.14,-446.18C1073.91,-423.46 889.89,-370.07 733,-336 638.75,-315.53 613.78,-317.88 519,-300 516.15,-299.46 513.2,-298.89 510.24,-298.29"/>
<polygon fill="midnightblue" stroke="midnightblue" points="1149.58,-449.67 1160.16,-449.18 1151.59,-442.96 1149.58,-449.67"/>
</g>
<!-- Node13 -->
<g id="node13" class="node">
<title>Node13</title>
<g id="a_node13"><a xlink:href="infotag_8h.html" target="_top" xlink:title=" ">
<polygon fill="white" stroke="black" points="364,-280.5 364,-299.5 424,-299.5 424,-280.5 364,-280.5"/>
<text text-anchor="middle" x="394" y="-287.5" font-family="Helvetica,sans-Serif" font-size="10.00">infotag.h</text>
</a>
</g>
</g>
<!-- Node1&#45;&gt;Node13 -->
<g id="edge12" class="edge">
<title>Node1&#45;&gt;Node13</title>
<path fill="none" stroke="midnightblue" d="M1150.09,-450.37C1105.43,-442 1026.88,-426.9 960,-412 858.57,-389.4 832.66,-385.41 733,-356 706.85,-348.28 701.49,-342.48 675,-336 569.37,-310.17 539.84,-320.24 433,-300 430.13,-299.46 427.16,-298.85 424.18,-298.21"/>
<polygon fill="midnightblue" stroke="midnightblue" points="1149.69,-453.86 1160.16,-452.25 1150.97,-446.97 1149.69,-453.86"/>
</g>
<!-- Node14 -->
<g id="node14" class="node">
<title>Node14</title>
<g id="a_node14"><a xlink:href="mp4tag_8h.html" target="_top" xlink:title=" ">
<polygon fill="white" stroke="black" points="805.5,-56.5 805.5,-75.5 868.5,-75.5 868.5,-56.5 805.5,-56.5"/>
<text text-anchor="middle" x="837" y="-63.5" font-family="Helvetica,sans-Serif" font-size="10.00">mp4tag.h</text>
</a>
</g>
</g>
<!-- Node1&#45;&gt;Node14 -->
<g id="edge14" class="edge">
<title>Node1&#45;&gt;Node14</title>
<path fill="none" stroke="midnightblue" d="M1150.26,-455.6C952.37,-447.65 0,-406.3 0,-347 0,-347 0,-347 0,-177 0,-94.15 653.04,-71.84 805.46,-67.76"/>
<polygon fill="midnightblue" stroke="midnightblue" points="1150.27,-459.11 1160.4,-456.01 1150.55,-452.11 1150.27,-459.11"/>
</g>
<!-- Node16 -->
<g id="node16" class="node">
<title>Node16</title>
<g id="a_node16"><a xlink:href="textidentificationframe_8h.html" target="_top" xlink:title=" ">
<polygon fill="white" stroke="black" points="1551,-392.5 1551,-411.5 1689,-411.5 1689,-392.5 1551,-392.5"/>
<text text-anchor="middle" x="1620" y="-399.5" font-family="Helvetica,sans-Serif" font-size="10.00">textidentificationframe.h</text>
</a>
</g>
</g>
<!-- Node1&#45;&gt;Node16 -->
<g id="edge16" class="edge">
<title>Node1&#45;&gt;Node16</title>
<path fill="none" stroke="midnightblue" d="M1221.46,-452.59C1293.47,-443.63 1457.89,-423.17 1551.49,-411.52"/>
<polygon fill="midnightblue" stroke="midnightblue" points="1221.02,-449.12 1211.53,-453.82 1221.88,-456.06 1221.02,-449.12"/>
</g>
<!-- Node17 -->
<g id="node17" class="node">
<title>Node17</title>
<g id="a_node17"><a xlink:href="tpropertymap_8h.html" target="_top" xlink:title=" ">
<polygon fill="white" stroke="black" points="1707,-392.5 1707,-411.5 1799,-411.5 1799,-392.5 1707,-392.5"/>
<text text-anchor="middle" x="1753" y="-399.5" font-family="Helvetica,sans-Serif" font-size="10.00">tpropertymap.h</text>
</a>
</g>
</g>
<!-- Node1&#45;&gt;Node17 -->
<g id="edge17" class="edge">
<title>Node1&#45;&gt;Node17</title>
<path fill="none" stroke="midnightblue" d="M1221.87,-454.77C1305.51,-449.37 1519.88,-434.37 1698,-412 1700.88,-411.64 1703.84,-411.24 1706.82,-410.81"/>
<polygon fill="midnightblue" stroke="midnightblue" points="1221.4,-451.29 1211.64,-455.43 1221.85,-458.28 1221.4,-451.29"/>
</g>
<!-- Node18 -->
<g id="node18" class="node">
<title>Node18</title>
<g id="a_node18"><a xlink:href="tvariant_8h.html" target="_top" xlink:title=" ">
<polygon fill="white" stroke="black" points="1124,-392.5 1124,-411.5 1188,-411.5 1188,-392.5 1124,-392.5"/>
<text text-anchor="middle" x="1156" y="-399.5" font-family="Helvetica,sans-Serif" font-size="10.00">tvariant.h</text>
</a>
</g>
</g>
<!-- Node1&#45;&gt;Node18 -->
<g id="edge18" class="edge">
<title>Node1&#45;&gt;Node18</title>
<path fill="none" stroke="midnightblue" d="M1176.15,-439.27C1171.03,-430.05 1164.98,-419.17 1160.86,-411.75"/>
<polygon fill="midnightblue" stroke="midnightblue" points="1173.13,-441.04 1181.05,-448.08 1179.25,-437.64 1173.13,-441.04"/>
</g>
<!-- Node47 -->
<g id="node47" class="node">
<title>Node47</title>
<g id="a_node47"><a xlink:href="xiphcomment_8h.html" target="_top" xlink:title=" ">
<polygon fill="white" stroke="black" points="1918.5,-224.5 1918.5,-243.5 2011.5,-243.5 2011.5,-224.5 1918.5,-224.5"/>
<text text-anchor="middle" x="1965" y="-231.5" font-family="Helvetica,sans-Serif" font-size="10.00">xiphcomment.h</text>
</a>
</g>
</g>
<!-- Node1&#45;&gt;Node47 -->
<g id="edge80" class="edge">
<title>Node1&#45;&gt;Node47</title>
<path fill="none" stroke="midnightblue" d="M1221.54,-446.87C1353.29,-409.32 1812.57,-278.44 1934.88,-243.58"/>
<polygon fill="midnightblue" stroke="midnightblue" points="1220.58,-443.51 1211.92,-449.61 1222.5,-450.24 1220.58,-443.51"/>
</g>
<!-- Node4 -->
<g id="node4" class="node">
<title>Node4</title>
<g id="a_node4"><a xlink:href="asffile_8h.html" target="_top" xlink:title=" ">
<polygon fill="white" stroke="black" points="1844,-224.5 1844,-243.5 1900,-243.5 1900,-224.5 1844,-224.5"/>
<text text-anchor="middle" x="1872" y="-231.5" font-family="Helvetica,sans-Serif" font-size="10.00">asffile.h</text>
</a>
</g>
</g>
<!-- Node3&#45;&gt;Node4 -->
<g id="edge3" class="edge">
<title>Node3&#45;&gt;Node4</title>
<path fill="none" stroke="midnightblue" d="M1493.22,-280.63C1494.5,-280.41 1495.76,-280.2 1497,-280 1646.18,-256.14 1686.17,-269.91 1835,-244 1837.87,-243.5 1840.84,-242.91 1843.8,-242.27"/>
<polygon fill="midnightblue" stroke="midnightblue" points="1492.56,-277.19 1483.39,-282.49 1493.87,-284.07 1492.56,-277.19"/>
</g>
<!-- Node7 -->
<g id="node7" class="node">
<title>Node7</title>
<g id="a_node7"><a xlink:href="aifffile_8h.html" target="_top" xlink:title=" ">
<polygon fill="white" stroke="black" points="286,-168.5 286,-187.5 342,-187.5 342,-168.5 286,-168.5"/>
<text text-anchor="middle" x="314" y="-175.5" font-family="Helvetica,sans-Serif" font-size="10.00">aifffile.h</text>
</a>
</g>
</g>
<!-- Node6&#45;&gt;Node7 -->
<g id="edge6" class="edge">
<title>Node6&#45;&gt;Node7</title>
<path fill="none" stroke="midnightblue" d="M431.77,-280.08C376.61,-272.12 268.75,-275.09 243,-244 224.34,-221.48 264.37,-199.37 291.57,-187.64"/>
<polygon fill="midnightblue" stroke="midnightblue" points="431.3,-283.55 441.74,-281.77 432.47,-276.65 431.3,-283.55"/>
</g>
<!-- Node8 -->
<g id="node8" class="node">
<title>Node8</title>
<g id="a_node8"><a xlink:href="chapterframe_8h.html" target="_top" xlink:title=" ">
<polygon fill="white" stroke="black" points="104,-224.5 104,-243.5 196,-243.5 196,-224.5 104,-224.5"/>
<text text-anchor="middle" x="150" y="-231.5" font-family="Helvetica,sans-Serif" font-size="10.00">chapterframe.h</text>
</a>
</g>
</g>
<!-- Node6&#45;&gt;Node8 -->
<g id="edge7" class="edge">
<title>Node6&#45;&gt;Node8</title>
<path fill="none" stroke="midnightblue" d="M431.69,-279.85C374.11,-269.58 260.23,-251.9 196.11,-242.05"/>
<polygon fill="midnightblue" stroke="midnightblue" points="431.3,-283.33 441.76,-281.68 432.55,-276.45 431.3,-283.33"/>
</g>
<!-- Node9 -->
<g id="node9" class="node">
<title>Node9</title>
<g id="a_node9"><a xlink:href="dsdifffile_8h.html" target="_top" xlink:title=" ">
<polygon fill="white" stroke="black" points="450,-168.5 450,-187.5 518,-187.5 518,-168.5 450,-168.5"/>
<text text-anchor="middle" x="484" y="-175.5" font-family="Helvetica,sans-Serif" font-size="10.00">dsdifffile.h</text>
</a>
</g>
</g>
<!-- Node6&#45;&gt;Node9 -->
<g id="edge8" class="edge">
<title>Node6&#45;&gt;Node9</title>
<path fill="none" stroke="midnightblue" d="M477.36,-270.35C479.11,-246.25 482.09,-205.31 483.38,-187.59"/>
<polygon fill="midnightblue" stroke="midnightblue" points="473.86,-270.14 476.63,-280.37 480.84,-270.65 473.86,-270.14"/>
</g>
<!-- Node10 -->
<g id="node10" class="node">
<title>Node10</title>
<g id="a_node10"><a xlink:href="dsffile_8h.html" target="_top" xlink:title=" ">
<polygon fill="white" stroke="black" points="550,-224.5 550,-243.5 606,-243.5 606,-224.5 550,-224.5"/>
<text text-anchor="middle" x="578" y="-231.5" font-family="Helvetica,sans-Serif" font-size="10.00">dsffile.h</text>
</a>
</g>
</g>
<!-- Node6&#45;&gt;Node10 -->
<g id="edge9" class="edge">
<title>Node6&#45;&gt;Node10</title>
<path fill="none" stroke="midnightblue" d="M501.33,-275.59C520.19,-265.61 545.38,-252.27 561.65,-243.65"/>
<polygon fill="midnightblue" stroke="midnightblue" points="499.59,-272.55 492.39,-280.32 502.86,-278.74 499.59,-272.55"/>
</g>
<!-- Node11 -->
<g id="node11" class="node">
<title>Node11</title>
<g id="a_node11"><a xlink:href="tableofcontentsframe_8h.html" target="_top" xlink:title=" ">
<polygon fill="white" stroke="black" points="252.5,-224.5 252.5,-243.5 383.5,-243.5 383.5,-224.5 252.5,-224.5"/>
<text text-anchor="middle" x="318" y="-231.5" font-family="Helvetica,sans-Serif" font-size="10.00">tableofcontentsframe.h</text>
</a>
</g>
</g>
<!-- Node6&#45;&gt;Node11 -->
<g id="edge10" class="edge">
<title>Node6&#45;&gt;Node11</title>
<path fill="none" stroke="midnightblue" d="M441.39,-277.17C411.64,-267 369.45,-252.59 342.92,-243.52"/>
<polygon fill="midnightblue" stroke="midnightblue" points="440.37,-280.52 450.96,-280.44 442.63,-273.9 440.37,-280.52"/>
</g>
<!-- Node12 -->
<g id="node12" class="node">
<title>Node12</title>
<g id="a_node12"><a xlink:href="wavfile_8h.html" target="_top" xlink:title=" ">
<polygon fill="white" stroke="black" points="45.5,-168.5 45.5,-187.5 106.5,-187.5 106.5,-168.5 45.5,-168.5"/>
<text text-anchor="middle" x="76" y="-175.5" font-family="Helvetica,sans-Serif" font-size="10.00">wavfile.h</text>
</a>
</g>
</g>
<!-- Node6&#45;&gt;Node12 -->
<g id="edge11" class="edge">
<title>Node6&#45;&gt;Node12</title>
<path fill="none" stroke="midnightblue" d="M431.74,-280.16C342.95,-269.99 150.75,-290.6 95,-244 78.22,-229.97 75.79,-202.02 75.72,-187.78"/>
<polygon fill="midnightblue" stroke="midnightblue" points="431.41,-283.64 441.79,-281.52 432.35,-276.71 431.41,-283.64"/>
</g>
<!-- Node13&#45;&gt;Node12 -->
<g id="edge13" class="edge">
<title>Node13&#45;&gt;Node12</title>
<path fill="none" stroke="midnightblue" d="M354.3,-280.05C354.2,-280.04 354.1,-280.02 354,-280 289.58,-268.81 105.31,-292.98 62,-244 47.93,-228.09 61.32,-201.47 69.96,-187.76"/>
<polygon fill="midnightblue" stroke="midnightblue" points="353.44,-283.45 363.92,-281.9 354.76,-276.58 353.44,-283.45"/>
</g>
<!-- Node15 -->
<g id="node15" class="node">
<title>Node15</title>
<g id="a_node15"><a xlink:href="mp4file_8h.html" target="_top" xlink:title=" ">
<polygon fill="white" stroke="black" points="1624,-0.5 1624,-19.5 1686,-19.5 1686,-0.5 1624,-0.5"/>
<text text-anchor="middle" x="1655" y="-7.5" font-family="Helvetica,sans-Serif" font-size="10.00">mp4file.h</text>
</a>
</g>
</g>
<!-- Node14&#45;&gt;Node15 -->
<g id="edge15" class="edge">
<title>Node14&#45;&gt;Node15</title>
<path fill="none" stroke="midnightblue" d="M878.68,-56.04C878.79,-56.03 878.89,-56.01 879,-56 1166.52,-17.09 1518.44,-11.8 1623.79,-11.1"/>
<polygon fill="midnightblue" stroke="midnightblue" points="877.86,-52.63 868.56,-57.7 878.99,-59.54 877.86,-52.63"/>
</g>
<!-- Node19 -->
<g id="node19" class="node">
<title>Node19</title>
<g id="a_node19"><a xlink:href="tag_8h.html" target="_top" xlink:title=" ">
<polygon fill="white" stroke="black" points="1130.5,-336.5 1130.5,-355.5 1171.5,-355.5 1171.5,-336.5 1130.5,-336.5"/>
<text text-anchor="middle" x="1151" y="-343.5" font-family="Helvetica,sans-Serif" font-size="10.00">tag.h</text>
</a>
</g>
</g>
<!-- Node18&#45;&gt;Node19 -->
<g id="edge19" class="edge">
<title>Node18&#45;&gt;Node19</title>
<path fill="none" stroke="midnightblue" d="M1154.25,-382.1C1153.42,-373.14 1152.47,-362.86 1151.81,-355.75"/>
<polygon fill="midnightblue" stroke="midnightblue" points="1150.77,-382.45 1155.17,-392.08 1157.74,-381.8 1150.77,-382.45"/>
</g>
<!-- Node19&#45;&gt;Node2 -->
<g id="edge20" class="edge">
<title>Node19&#45;&gt;Node2</title>
<path fill="none" stroke="midnightblue" d="M1120.21,-345.14C1013.63,-345.22 650.76,-342.17 355,-300 351.97,-299.57 348.83,-299.02 345.71,-298.41"/>
<polygon fill="midnightblue" stroke="midnightblue" points="1120.28,-348.64 1130.27,-345.12 1120.26,-341.64 1120.28,-348.64"/>
</g>
<!-- Node19&#45;&gt;Node3 -->
<g id="edge22" class="edge">
<title>Node19&#45;&gt;Node3</title>
<path fill="none" stroke="midnightblue" d="M1181.73,-340.14C1230.75,-332.3 1329.62,-316.09 1413,-300 1417.39,-299.15 1422.03,-298.21 1426.57,-297.26"/>
<polygon fill="midnightblue" stroke="midnightblue" points="1181.09,-336.7 1171.77,-341.73 1182.2,-343.61 1181.09,-336.7"/>
</g>
<!-- Node19&#45;&gt;Node4 -->
<g id="edge21" class="edge">
<title>Node19&#45;&gt;Node4</title>
<path fill="none" stroke="midnightblue" d="M1181.96,-341.81C1226.69,-336.55 1311.52,-324.17 1380,-300 1398,-293.65 1399.69,-285.37 1418,-280 1596.5,-227.65 1651.42,-274.07 1835,-244 1837.87,-243.53 1840.85,-242.96 1843.81,-242.33"/>
<polygon fill="midnightblue" stroke="midnightblue" points="1181.29,-338.36 1171.75,-342.96 1182.08,-345.31 1181.29,-338.36"/>
</g>
<!-- Node19&#45;&gt;Node6 -->
<g id="edge27" class="edge">
<title>Node19&#45;&gt;Node6</title>
<path fill="none" stroke="midnightblue" d="M1120.1,-343.36C1010.03,-337.41 637.35,-316.52 519,-300 516.13,-299.6 513.16,-299.12 510.19,-298.59"/>
<polygon fill="midnightblue" stroke="midnightblue" points="1120.03,-346.86 1130.2,-343.9 1120.41,-339.87 1120.03,-346.86"/>
</g>
<!-- Node19&#45;&gt;Node13 -->
<g id="edge28" class="edge">
<title>Node19&#45;&gt;Node13</title>
<path fill="none" stroke="midnightblue" d="M1120.02,-344.87C1019.99,-344.07 696.87,-338.45 433,-300 430.11,-299.58 427.12,-299.05 424.14,-298.47"/>
<polygon fill="midnightblue" stroke="midnightblue" points="1120.29,-348.37 1130.31,-344.94 1120.33,-341.37 1120.29,-348.37"/>
</g>
<!-- Node19&#45;&gt;Node14 -->
<g id="edge35" class="edge">
<title>Node19&#45;&gt;Node14</title>
<path fill="none" stroke="midnightblue" d="M1120.38,-343.86C1020.88,-339.41 709.86,-319.59 653,-244 597.58,-170.32 753.69,-99.52 814.17,-75.56"/>
<polygon fill="midnightblue" stroke="midnightblue" points="1120.25,-347.35 1130.39,-344.28 1120.55,-340.36 1120.25,-347.35"/>
</g>
<!-- Node19&#45;&gt;Node15 -->
<g id="edge34" class="edge">
<title>Node19&#45;&gt;Node15</title>
<path fill="none" stroke="midnightblue" d="M1182.27,-344.52C1340.67,-341.69 2047,-324.06 2047,-235 2047,-235 2047,-235 2047,-121 2047,-46.16 1778.8,-19.87 1686.09,-13.02"/>
<polygon fill="midnightblue" stroke="midnightblue" points="1181.77,-341.03 1171.83,-344.7 1181.89,-348.03 1181.77,-341.03"/>
</g>
<!-- Node20 -->
<g id="node20" class="node">
<title>Node20</title>
<g id="a_node20"><a xlink:href="dsdiffdiintag_8h.html" target="_top" xlink:title=" ">
<polygon fill="white" stroke="black" points="528,-280.5 528,-299.5 614,-299.5 614,-280.5 528,-280.5"/>
<text text-anchor="middle" x="571" y="-287.5" font-family="Helvetica,sans-Serif" font-size="10.00">dsdiffdiintag.h</text>
</a>
</g>
</g>
<!-- Node19&#45;&gt;Node20 -->
<g id="edge23" class="edge">
<title>Node19&#45;&gt;Node20</title>
<path fill="none" stroke="midnightblue" d="M1119.99,-343.1C1038.93,-337.97 814.14,-322.67 628,-300 623.52,-299.45 618.86,-298.82 614.21,-298.15"/>
<polygon fill="midnightblue" stroke="midnightblue" points="1119.82,-346.6 1130.02,-343.73 1120.26,-339.61 1119.82,-346.6"/>
</g>
<!-- Node21 -->
<g id="node21" class="node">
<title>Node21</title>
<g id="a_node21"><a xlink:href="flacfile_8h.html" target="_top" xlink:title=" ">
<polygon fill="white" stroke="black" points="748,-224.5 748,-243.5 806,-243.5 806,-224.5 748,-224.5"/>
<text text-anchor="middle" x="777" y="-231.5" font-family="Helvetica,sans-Serif" font-size="10.00">flacfile.h</text>
</a>
</g>
</g>
<!-- Node19&#45;&gt;Node21 -->
<g id="edge25" class="edge">
<title>Node19&#45;&gt;Node21</title>
<path fill="none" stroke="midnightblue" d="M1120.72,-336.1C1050.13,-315.33 875.34,-263.92 806.01,-243.53"/>
<polygon fill="midnightblue" stroke="midnightblue" points="1119.78,-339.47 1130.36,-338.93 1121.75,-332.75 1119.78,-339.47"/>
</g>
<!-- Node22 -->
<g id="node22" class="node">
<title>Node22</title>
<g id="a_node22"><a xlink:href="id3v1tag_8h.html" target="_top" xlink:title=" ">
<polygon fill="white" stroke="black" points="1217,-280.5 1217,-299.5 1285,-299.5 1285,-280.5 1217,-280.5"/>
<text text-anchor="middle" x="1251" y="-287.5" font-family="Helvetica,sans-Serif" font-size="10.00">id3v1tag.h</text>
</a>
</g>
</g>
<!-- Node19&#45;&gt;Node22 -->
<g id="edge26" class="edge">
<title>Node19&#45;&gt;Node22</title>
<path fill="none" stroke="midnightblue" d="M1176.09,-331.45C1194.55,-321.48 1219.1,-308.23 1234.97,-299.65"/>
<polygon fill="midnightblue" stroke="midnightblue" points="1174.2,-328.49 1167.07,-336.32 1177.53,-334.65 1174.2,-328.49"/>
</g>
<!-- Node23 -->
<g id="node23" class="node">
<title>Node23</title>
<g id="a_node23"><a xlink:href="modtag_8h.html" target="_top" xlink:title=" ">
<polygon fill="white" stroke="black" points="1490.5,-224.5 1490.5,-243.5 1553.5,-243.5 1553.5,-224.5 1490.5,-224.5"/>
<text text-anchor="middle" x="1522" y="-231.5" font-family="Helvetica,sans-Serif" font-size="10.00">modtag.h</text>
</a>
</g>
</g>
<!-- Node19&#45;&gt;Node23 -->
<g id="edge29" class="edge">
<title>Node19&#45;&gt;Node23</title>
<path fill="none" stroke="midnightblue" d="M1152.73,-326C1155.16,-311.08 1160.99,-291.03 1175,-280 1228.97,-237.51 1414.29,-255.55 1482,-244 1484.67,-243.54 1487.42,-243.03 1490.18,-242.47"/>
<polygon fill="midnightblue" stroke="midnightblue" points="1149.23,-325.83 1151.46,-336.18 1156.17,-326.69 1149.23,-325.83"/>
</g>
<!-- Node28 -->
<g id="node28" class="node">
<title>Node28</title>
<g id="a_node28"><a xlink:href="mpcfile_8h.html" target="_top" xlink:title=" ">
<polygon fill="white" stroke="black" points="1764,-224.5 1764,-243.5 1826,-243.5 1826,-224.5 1764,-224.5"/>
<text text-anchor="middle" x="1795" y="-231.5" font-family="Helvetica,sans-Serif" font-size="10.00">mpcfile.h</text>
</a>
</g>
</g>
<!-- Node19&#45;&gt;Node28 -->
<g id="edge36" class="edge">
<title>Node19&#45;&gt;Node28</title>
<path fill="none" stroke="midnightblue" d="M1160.74,-327.64C1170.5,-312.14 1187.04,-290.34 1208,-280 1317.25,-226.1 1634.43,-261.42 1755,-244 1757.82,-243.59 1760.73,-243.09 1763.64,-242.54"/>
<polygon fill="midnightblue" stroke="midnightblue" points="1157.69,-325.94 1155.57,-336.32 1163.7,-329.52 1157.69,-325.94"/>
</g>
<!-- Node29 -->
<g id="node29" class="node">
<title>Node29</title>
<g id="a_node29"><a xlink:href="mpegfile_8h.html" target="_top" xlink:title=" ">
<polygon fill="white" stroke="black" points="662,-224.5 662,-243.5 730,-243.5 730,-224.5 662,-224.5"/>
<text text-anchor="middle" x="696" y="-231.5" font-family="Helvetica,sans-Serif" font-size="10.00">mpegfile.h</text>
</a>
</g>
</g>
<!-- Node19&#45;&gt;Node29 -->
<g id="edge37" class="edge">
<title>Node19&#45;&gt;Node29</title>
<path fill="none" stroke="midnightblue" d="M1120.29,-339.59C1076.98,-331.8 995.58,-316.51 927,-300 853.08,-282.2 767.16,-256.75 723.91,-243.6"/>
<polygon fill="midnightblue" stroke="midnightblue" points="1119.73,-343.05 1130.19,-341.37 1120.97,-336.16 1119.73,-343.05"/>
</g>
<!-- Node30 -->
<g id="node30" class="node">
<title>Node30</title>
<g id="a_node30"><a xlink:href="tagunion_8h.html" target="_top" xlink:title=" ">
<polygon fill="white" stroke="black" points="1303,-280.5 1303,-299.5 1371,-299.5 1371,-280.5 1303,-280.5"/>
<text text-anchor="middle" x="1337" y="-287.5" font-family="Helvetica,sans-Serif" font-size="10.00">tagunion.h</text>
</a>
</g>
</g>
<!-- Node19&#45;&gt;Node30 -->
<g id="edge38" class="edge">
<title>Node19&#45;&gt;Node30</title>
<path fill="none" stroke="midnightblue" d="M1181.24,-336.22C1216.06,-326.11 1272.89,-309.61 1307.42,-299.59"/>
<polygon fill="midnightblue" stroke="midnightblue" points="1180.24,-332.87 1171.62,-339.01 1182.2,-339.59 1180.24,-332.87"/>
</g>
<!-- Node31 -->
<g id="node31" class="node">
<title>Node31</title>
<g id="a_node31"><a xlink:href="tfile_8h.html" target="_top" xlink:title=" ">
<polygon fill="white" stroke="black" points="1079,-280.5 1079,-299.5 1123,-299.5 1123,-280.5 1079,-280.5"/>
<text text-anchor="middle" x="1101" y="-287.5" font-family="Helvetica,sans-Serif" font-size="10.00">tfile.h</text>
</a>
</g>
</g>
<!-- Node19&#45;&gt;Node31 -->
<g id="edge39" class="edge">
<title>Node19&#45;&gt;Node31</title>
<path fill="none" stroke="midnightblue" d="M1135.92,-328.72C1127.11,-319.2 1116.33,-307.56 1109.1,-299.75"/>
<polygon fill="midnightblue" stroke="midnightblue" points="1133.38,-331.12 1142.74,-336.08 1138.52,-326.37 1133.38,-331.12"/>
</g>
<!-- Node19&#45;&gt;Node47 -->
<g id="edge75" class="edge">
<title>Node19&#45;&gt;Node47</title>
<path fill="none" stroke="midnightblue" d="M1181.87,-344.05C1242.49,-341.51 1380.85,-332.36 1492,-300 1512.24,-294.11 1514.66,-285.53 1535,-280 1696.13,-236.16 1743.37,-265.26 1909,-244 1912.03,-243.61 1915.14,-243.18 1918.28,-242.74"/>
<polygon fill="midnightblue" stroke="midnightblue" points="1181.68,-340.56 1171.82,-344.44 1181.95,-347.55 1181.68,-340.56"/>
</g>
<!-- Node20&#45;&gt;Node9 -->
<g id="edge24" class="edge">
<title>Node20&#45;&gt;Node9</title>
<path fill="none" stroke="midnightblue" d="M557.77,-272.27C538.96,-248.49 505.19,-205.79 490.8,-187.59"/>
<polygon fill="midnightblue" stroke="midnightblue" points="555.22,-274.7 564.17,-280.37 560.72,-270.35 555.22,-274.7"/>
</g>
<!-- Node24 -->
<g id="node24" class="node">
<title>Node24</title>
<g id="a_node24"><a xlink:href="itfile_8h.html" target="_top" xlink:title=" ">
<polygon fill="white" stroke="black" points="1533.5,-168.5 1533.5,-187.5 1580.5,-187.5 1580.5,-168.5 1533.5,-168.5"/>
<text text-anchor="middle" x="1557" y="-175.5" font-family="Helvetica,sans-Serif" font-size="10.00">itfile.h</text>
</a>
</g>
</g>
<!-- Node23&#45;&gt;Node24 -->
<g id="edge30" class="edge">
<title>Node23&#45;&gt;Node24</title>
<path fill="none" stroke="midnightblue" d="M1533.3,-215.57C1539.32,-206.27 1546.47,-195.25 1551.33,-187.75"/>
<polygon fill="midnightblue" stroke="midnightblue" points="1530.28,-213.79 1527.78,-224.08 1536.16,-217.6 1530.28,-213.79"/>
</g>
<!-- Node25 -->
<g id="node25" class="node">
<title>Node25</title>
<g id="a_node25"><a xlink:href="modfile_8h.html" target="_top" xlink:title=" ">
<polygon fill="white" stroke="black" points="1353,-168.5 1353,-187.5 1415,-187.5 1415,-168.5 1353,-168.5"/>
<text text-anchor="middle" x="1384" y="-175.5" font-family="Helvetica,sans-Serif" font-size="10.00">modfile.h</text>
</a>
</g>
</g>
<!-- Node23&#45;&gt;Node25 -->
<g id="edge31" class="edge">
<title>Node23&#45;&gt;Node25</title>
<path fill="none" stroke="midnightblue" d="M1490.75,-220.77C1464.83,-210.63 1428.64,-196.47 1405.76,-187.52"/>
<polygon fill="midnightblue" stroke="midnightblue" points="1489.55,-224.06 1500.13,-224.44 1492.1,-217.54 1489.55,-224.06"/>
</g>
<!-- Node26 -->
<g id="node26" class="node">
<title>Node26</title>
<g id="a_node26"><a xlink:href="s3mfile_8h.html" target="_top" xlink:title=" ">
<polygon fill="white" stroke="black" points="1273,-168.5 1273,-187.5 1335,-187.5 1335,-168.5 1273,-168.5"/>
<text text-anchor="middle" x="1304" y="-175.5" font-family="Helvetica,sans-Serif" font-size="10.00">s3mfile.h</text>
</a>
</g>
</g>
<!-- Node23&#45;&gt;Node26 -->
<g id="edge32" class="edge">
<title>Node23&#45;&gt;Node26</title>
<path fill="none" stroke="midnightblue" d="M1480.56,-222.74C1438.15,-212.23 1373.2,-196.14 1335.03,-186.69"/>
<polygon fill="midnightblue" stroke="midnightblue" points="1479.75,-226.14 1490.3,-225.15 1481.44,-219.35 1479.75,-226.14"/>
</g>
<!-- Node27 -->
<g id="node27" class="node">
<title>Node27</title>
<g id="a_node27"><a xlink:href="xmfile_8h.html" target="_top" xlink:title=" ">
<polygon fill="white" stroke="black" points="1459,-168.5 1459,-187.5 1515,-187.5 1515,-168.5 1459,-168.5"/>
<text text-anchor="middle" x="1487" y="-175.5" font-family="Helvetica,sans-Serif" font-size="10.00">xmfile.h</text>
</a>
</g>
</g>
<!-- Node23&#45;&gt;Node27 -->
<g id="edge33" class="edge">
<title>Node23&#45;&gt;Node27</title>
<path fill="none" stroke="midnightblue" d="M1510.7,-215.57C1504.68,-206.27 1497.53,-195.25 1492.67,-187.75"/>
<polygon fill="midnightblue" stroke="midnightblue" points="1507.84,-217.6 1516.22,-224.08 1513.72,-213.79 1507.84,-217.6"/>
</g>
<!-- Node31&#45;&gt;Node4 -->
<g id="edge41" class="edge">
<title>Node31&#45;&gt;Node4</title>
<path fill="none" stroke="midnightblue" d="M1133.21,-286.07C1154.44,-284.19 1182.87,-281.78 1208,-280 1486.43,-260.3 1558.93,-285.15 1835,-244 1837.88,-243.57 1840.86,-243.02 1843.82,-242.41"/>
<polygon fill="midnightblue" stroke="midnightblue" points="1132.77,-282.59 1123.12,-286.97 1133.39,-289.56 1132.77,-282.59"/>
</g>
<!-- Node31&#45;&gt;Node10 -->
<g id="edge42" class="edge">
<title>Node31&#45;&gt;Node10</title>
<path fill="none" stroke="midnightblue" d="M1068.55,-285.96C994.71,-278.99 808.52,-261.14 653,-244 637.49,-242.29 620.19,-240.23 606.12,-238.5"/>
<polygon fill="midnightblue" stroke="midnightblue" points="1068.32,-289.45 1078.61,-286.91 1068.98,-282.48 1068.32,-289.45"/>
</g>
<!-- Node31&#45;&gt;Node14 -->
<g id="edge59" class="edge">
<title>Node31&#45;&gt;Node14</title>
<path fill="none" stroke="midnightblue" d="M1068.59,-285.31C1004.71,-277.74 867.45,-259.8 853,-244 808.44,-195.27 827.2,-104.33 834.55,-75.79"/>
<polygon fill="midnightblue" stroke="midnightblue" points="1068.56,-288.83 1078.9,-286.52 1069.38,-281.88 1068.56,-288.83"/>
</g>
<!-- Node31&#45;&gt;Node15 -->
<g id="edge58" class="edge">
<title>Node31&#45;&gt;Node15</title>
<path fill="none" stroke="midnightblue" d="M1133.32,-285.06C1147.35,-283.41 1163.98,-281.52 1179,-280 1225.16,-275.34 1559.59,-273.98 1595,-244 1665.45,-184.35 1658.98,-54.05 1655.89,-19.53"/>
<polygon fill="midnightblue" stroke="midnightblue" points="1132.69,-281.61 1123.17,-286.27 1133.52,-288.56 1132.69,-281.61"/>
</g>
<!-- Node31&#45;&gt;Node21 -->
<g id="edge44" class="edge">
<title>Node31&#45;&gt;Node21</title>
<path fill="none" stroke="midnightblue" d="M1068.69,-284.34C1016.34,-276.66 909.77,-260.57 820,-244 815.5,-243.17 810.75,-242.23 806.11,-241.29"/>
<polygon fill="midnightblue" stroke="midnightblue" points="1068.32,-287.82 1078.72,-285.8 1069.33,-280.89 1068.32,-287.82"/>
</g>
<!-- Node31&#45;&gt;Node24 -->
<g id="edge45" class="edge">
<title>Node31&#45;&gt;Node24</title>
<path fill="none" stroke="midnightblue" d="M1133.59,-284.81C1146.48,-283.21 1161.43,-281.43 1175,-280 1219.82,-275.28 1548.58,-277.25 1579,-244 1593.8,-227.83 1575.96,-201.32 1564.75,-187.69"/>
<polygon fill="midnightblue" stroke="midnightblue" points="1132.81,-281.38 1123.32,-286.1 1133.68,-288.32 1132.81,-281.38"/>
</g>
<!-- Node31&#45;&gt;Node25 -->
<g id="edge46" class="edge">
<title>Node31&#45;&gt;Node25</title>
<path fill="none" stroke="midnightblue" d="M1133.12,-280.8C1178.02,-269.27 1255.49,-249.1 1268,-244 1278.42,-239.75 1340.27,-204.26 1369.16,-187.59"/>
<polygon fill="midnightblue" stroke="midnightblue" points="1132.09,-277.45 1123.27,-283.33 1133.82,-284.23 1132.09,-277.45"/>
</g>
<!-- Node31&#45;&gt;Node26 -->
<g id="edge71" class="edge">
<title>Node31&#45;&gt;Node26</title>
<path fill="none" stroke="midnightblue" d="M1118.93,-273.77C1136.28,-259.57 1163.74,-238.46 1190,-224 1218.33,-208.4 1253.21,-195.46 1276.87,-187.52"/>
<polygon fill="midnightblue" stroke="midnightblue" points="1116.3,-271.41 1110.84,-280.5 1120.77,-276.8 1116.3,-271.41"/>
</g>
<!-- Node31&#45;&gt;Node27 -->
<g id="edge74" class="edge">
<title>Node31&#45;&gt;Node27</title>
<path fill="none" stroke="midnightblue" d="M1133.59,-284.83C1146.48,-283.24 1161.43,-281.45 1175,-280 1218.05,-275.39 1533.83,-276 1563,-244 1583.53,-221.48 1540.19,-199.29 1510.91,-187.56"/>
<polygon fill="midnightblue" stroke="midnightblue" points="1132.81,-281.4 1123.32,-286.12 1133.68,-288.35 1132.81,-281.4"/>
</g>
<!-- Node31&#45;&gt;Node28 -->
<g id="edge60" class="edge">
<title>Node31&#45;&gt;Node28</title>
<path fill="none" stroke="midnightblue" d="M1133.57,-284.62C1146.45,-282.99 1161.41,-281.25 1175,-280 1432.19,-256.4 1499.31,-280.46 1755,-244 1757.82,-243.6 1760.73,-243.1 1763.64,-242.55"/>
<polygon fill="midnightblue" stroke="midnightblue" points="1132.78,-281.19 1123.31,-285.94 1133.67,-288.13 1132.78,-281.19"/>
</g>
<!-- Node31&#45;&gt;Node29 -->
<g id="edge61" class="edge">
<title>Node31&#45;&gt;Node29</title>
<path fill="none" stroke="midnightblue" d="M1068.7,-285.89C1005.28,-279.58 860.06,-264.16 739,-244 736.14,-243.52 733.18,-242.99 730.22,-242.43"/>
<polygon fill="midnightblue" stroke="midnightblue" points="1068.58,-289.39 1078.87,-286.89 1069.26,-282.43 1068.58,-289.39"/>
</g>
<!-- Node32 -->
<g id="node32" class="node">
<title>Node32</title>
<g id="a_node32"><a xlink:href="apefile_8h.html" target="_top" xlink:title=" ">
<polygon fill="white" stroke="black" points="1199.5,-224.5 1199.5,-243.5 1258.5,-243.5 1258.5,-224.5 1199.5,-224.5"/>
<text text-anchor="middle" x="1229" y="-231.5" font-family="Helvetica,sans-Serif" font-size="10.00">apefile.h</text>
</a>
</g>
</g>
<!-- Node31&#45;&gt;Node32 -->
<g id="edge40" class="edge">
<title>Node31&#45;&gt;Node32</title>
<path fill="none" stroke="midnightblue" d="M1130.62,-276.5C1154.62,-266.38 1187.78,-252.39 1208.81,-243.52"/>
<polygon fill="midnightblue" stroke="midnightblue" points="1129.14,-273.33 1121.28,-280.44 1131.86,-279.78 1129.14,-273.33"/>
</g>
<!-- Node33 -->
<g id="node33" class="node">
<title>Node33</title>
<g id="a_node33"><a xlink:href="fileref_8h.html" target="_top" xlink:title=" ">
<polygon fill="white" stroke="black" points="1419.5,-224.5 1419.5,-243.5 1472.5,-243.5 1472.5,-224.5 1419.5,-224.5"/>
<text text-anchor="middle" x="1446" y="-231.5" font-family="Helvetica,sans-Serif" font-size="10.00">fileref.h</text>
</a>
</g>
</g>
<!-- Node31&#45;&gt;Node33 -->
<g id="edge43" class="edge">
<title>Node31&#45;&gt;Node33</title>
<path fill="none" stroke="midnightblue" d="M1133.21,-280.76C1134.49,-280.49 1135.75,-280.24 1137,-280 1257.23,-257.12 1289.77,-266.88 1410,-244 1413.04,-243.42 1416.2,-242.74 1419.34,-242.02"/>
<polygon fill="midnightblue" stroke="midnightblue" points="1132.36,-277.36 1123.38,-282.99 1133.91,-284.19 1132.36,-277.36"/>
</g>
<!-- Node34 -->
<g id="node34" class="node">
<title>Node34</title>
<g id="a_node34"><a xlink:href="modfilebase_8h.html" target="_top" xlink:title=" ">
<polygon fill="white" stroke="black" points="1315,-224.5 1315,-243.5 1401,-243.5 1401,-224.5 1315,-224.5"/>
<text text-anchor="middle" x="1358" y="-231.5" font-family="Helvetica,sans-Serif" font-size="10.00">modfilebase.h</text>
</a>
</g>
</g>
<!-- Node31&#45;&gt;Node34 -->
<g id="edge47" class="edge">
<title>Node31&#45;&gt;Node34</title>
<path fill="none" stroke="midnightblue" d="M1133.12,-280.89C1134.43,-280.59 1135.73,-280.29 1137,-280 1198.48,-266.06 1270.04,-251.86 1314.69,-243.23"/>
<polygon fill="midnightblue" stroke="midnightblue" points="1131.95,-277.58 1123.05,-283.32 1133.59,-284.38 1131.95,-277.58"/>
</g>
<!-- Node35 -->
<g id="node35" class="node">
<title>Node35</title>
<g id="a_node35"><a xlink:href="mp4atom_8h.html" target="_top" xlink:title=" ">
<polygon fill="white" stroke="black" points="862.5,-224.5 862.5,-243.5 935.5,-243.5 935.5,-224.5 862.5,-224.5"/>
<text text-anchor="middle" x="899" y="-231.5" font-family="Helvetica,sans-Serif" font-size="10.00">mp4atom.h</text>
</a>
</g>
</g>
<!-- Node31&#45;&gt;Node35 -->
<g id="edge52" class="edge">
<title>Node31&#45;&gt;Node35</title>
<path fill="none" stroke="midnightblue" d="M1069.03,-280.45C1031.23,-270.35 968.69,-253.63 930.91,-243.53"/>
<polygon fill="midnightblue" stroke="midnightblue" points="1068.43,-283.92 1079,-283.12 1070.24,-277.15 1068.43,-283.92"/>
</g>
<!-- Node39 -->
<g id="node39" class="node">
<title>Node39</title>
<g id="a_node39"><a xlink:href="oggfile_8h.html" target="_top" xlink:title=" ">
<polygon fill="white" stroke="black" points="1686.5,-224.5 1686.5,-243.5 1745.5,-243.5 1745.5,-224.5 1686.5,-224.5"/>
<text text-anchor="middle" x="1716" y="-231.5" font-family="Helvetica,sans-Serif" font-size="10.00">oggfile.h</text>
</a>
</g>
</g>
<!-- Node31&#45;&gt;Node39 -->
<g id="edge62" class="edge">
<title>Node31&#45;&gt;Node39</title>
<path fill="none" stroke="midnightblue" d="M1133.58,-284.69C1146.46,-283.08 1161.41,-281.32 1175,-280 1395.43,-258.62 1452.61,-274.25 1672,-244 1676.63,-243.36 1681.51,-242.53 1686.27,-241.62"/>
<polygon fill="midnightblue" stroke="midnightblue" points="1132.79,-281.26 1123.31,-286 1133.68,-288.21 1132.79,-281.26"/>
</g>
<!-- Node44 -->
<g id="node44" class="node">
<title>Node44</title>
<g id="a_node44"><a xlink:href="rifffile_8h.html" target="_top" xlink:title=" ">
<polygon fill="white" stroke="black" points="402,-224.5 402,-243.5 456,-243.5 456,-224.5 402,-224.5"/>
<text text-anchor="middle" x="429" y="-231.5" font-family="Helvetica,sans-Serif" font-size="10.00">rifffile.h</text>
</a>
</g>
</g>
<!-- Node31&#45;&gt;Node44 -->
<g id="edge67" class="edge">
<title>Node31&#45;&gt;Node44</title>
<path fill="none" stroke="midnightblue" d="M1068.65,-286.4C953.21,-277.12 562.71,-245.74 456.09,-237.18"/>
<polygon fill="midnightblue" stroke="midnightblue" points="1068.39,-289.89 1078.64,-287.2 1068.95,-282.91 1068.39,-289.89"/>
</g>
<!-- Node45 -->
<g id="node45" class="node">
<title>Node45</title>
<g id="a_node45"><a xlink:href="trueaudiofile_8h.html" target="_top" xlink:title=" ">
<polygon fill="white" stroke="black" points="953.5,-224.5 953.5,-243.5 1040.5,-243.5 1040.5,-224.5 953.5,-224.5"/>
<text text-anchor="middle" x="997" y="-231.5" font-family="Helvetica,sans-Serif" font-size="10.00">trueaudiofile.h</text>
</a>
</g>
</g>
<!-- Node31&#45;&gt;Node45 -->
<g id="edge72" class="edge">
<title>Node31&#45;&gt;Node45</title>
<path fill="none" stroke="midnightblue" d="M1075.17,-275.59C1055.94,-265.61 1030.26,-252.27 1013.67,-243.65"/>
<polygon fill="midnightblue" stroke="midnightblue" points="1073.8,-278.82 1084.29,-280.32 1077.03,-272.61 1073.8,-278.82"/>
</g>
<!-- Node46 -->
<g id="node46" class="node">
<title>Node46</title>
<g id="a_node46"><a xlink:href="wavpackfile_8h.html" target="_top" xlink:title=" ">
<polygon fill="white" stroke="black" points="1059,-224.5 1059,-243.5 1143,-243.5 1143,-224.5 1059,-224.5"/>
<text text-anchor="middle" x="1101" y="-231.5" font-family="Helvetica,sans-Serif" font-size="10.00">wavpackfile.h</text>
</a>
</g>
</g>
<!-- Node31&#45;&gt;Node46 -->
<g id="edge73" class="edge">
<title>Node31&#45;&gt;Node46</title>
<path fill="none" stroke="midnightblue" d="M1101,-269.8C1101,-260.91 1101,-250.78 1101,-243.75"/>
<polygon fill="midnightblue" stroke="midnightblue" points="1097.5,-270.08 1101,-280.08 1104.5,-270.08 1097.5,-270.08"/>
</g>
<!-- Node34&#45;&gt;Node24 -->
<g id="edge48" class="edge">
<title>Node34&#45;&gt;Node24</title>
<path fill="none" stroke="midnightblue" d="M1399.44,-221.79C1433.02,-212.69 1481.57,-199.54 1524,-188 1526.98,-187.19 1530.11,-186.34 1533.21,-185.49"/>
<polygon fill="midnightblue" stroke="midnightblue" points="1398.26,-218.48 1389.52,-224.47 1400.09,-225.24 1398.26,-218.48"/>
</g>
<!-- Node34&#45;&gt;Node25 -->
<g id="edge49" class="edge">
<title>Node34&#45;&gt;Node25</title>
<path fill="none" stroke="midnightblue" d="M1366.67,-214.98C1371.09,-205.82 1376.25,-195.09 1379.79,-187.75"/>
<polygon fill="midnightblue" stroke="midnightblue" points="1363.48,-213.55 1362.29,-224.08 1369.79,-216.59 1363.48,-213.55"/>
</g>
<!-- Node34&#45;&gt;Node26 -->
<g id="edge50" class="edge">
<title>Node34&#45;&gt;Node26</title>
<path fill="none" stroke="midnightblue" d="M1342,-217C1332.43,-207.43 1320.64,-195.64 1312.75,-187.75"/>
<polygon fill="midnightblue" stroke="midnightblue" points="1339.54,-219.49 1349.08,-224.08 1344.49,-214.54 1339.54,-219.49"/>
</g>
<!-- Node34&#45;&gt;Node27 -->
<g id="edge51" class="edge">
<title>Node34&#45;&gt;Node27</title>
<path fill="none" stroke="midnightblue" d="M1387.85,-220.5C1412.04,-210.38 1445.46,-196.39 1466.66,-187.52"/>
<polygon fill="midnightblue" stroke="midnightblue" points="1386.31,-217.35 1378.44,-224.44 1389.02,-223.81 1386.31,-217.35"/>
</g>
<!-- Node35&#45;&gt;Node14 -->
<g id="edge57" class="edge">
<title>Node35&#45;&gt;Node14</title>
<path fill="none" stroke="midnightblue" d="M892.05,-214.39C878.68,-178.59 849.83,-101.34 840.2,-75.57"/>
<polygon fill="midnightblue" stroke="midnightblue" points="888.89,-215.93 895.67,-224.08 895.45,-213.48 888.89,-215.93"/>
</g>
<!-- Node36 -->
<g id="node36" class="node">
<title>Node36</title>
<g id="a_node36"><a xlink:href="mp4coverart_8h.html" target="_top" xlink:title=" ">
<polygon fill="white" stroke="black" points="900,-168.5 900,-187.5 988,-187.5 988,-168.5 900,-168.5"/>
<text text-anchor="middle" x="944" y="-175.5" font-family="Helvetica,sans-Serif" font-size="10.00">mp4coverart.h</text>
</a>
</g>
</g>
<!-- Node35&#45;&gt;Node36 -->
<g id="edge53" class="edge">
<title>Node35&#45;&gt;Node36</title>
<path fill="none" stroke="midnightblue" d="M913.05,-216.14C920.89,-206.74 930.33,-195.4 936.71,-187.75"/>
<polygon fill="midnightblue" stroke="midnightblue" points="910.14,-214.16 906.43,-224.08 915.52,-218.64 910.14,-214.16"/>
</g>
<!-- Node37 -->
<g id="node37" class="node">
<title>Node37</title>
<g id="a_node37"><a xlink:href="mp4item_8h.html" target="_top" xlink:title=" ">
<polygon fill="white" stroke="black" points="905,-112.5 905,-131.5 975,-131.5 975,-112.5 905,-112.5"/>
<text text-anchor="middle" x="940" y="-119.5" font-family="Helvetica,sans-Serif" font-size="10.00">mp4item.h</text>
</a>
</g>
</g>
<!-- Node36&#45;&gt;Node37 -->
<g id="edge54" class="edge">
<title>Node36&#45;&gt;Node37</title>
<path fill="none" stroke="midnightblue" d="M942.6,-158.1C941.94,-149.14 941.17,-138.86 940.65,-131.75"/>
<polygon fill="midnightblue" stroke="midnightblue" points="939.11,-158.37 943.34,-168.08 946.09,-157.85 939.11,-158.37"/>
</g>
<!-- Node37&#45;&gt;Node14 -->
<g id="edge56" class="edge">
<title>Node37&#45;&gt;Node14</title>
<path fill="none" stroke="midnightblue" d="M914.42,-107.59C895.38,-97.61 869.94,-84.27 853.51,-75.65"/>
<polygon fill="midnightblue" stroke="midnightblue" points="912.97,-110.78 923.45,-112.32 916.22,-104.58 912.97,-110.78"/>
</g>
<!-- Node38 -->
<g id="node38" class="node">
<title>Node38</title>
<g id="a_node38"><a xlink:href="mp4itemfactory_8h.html" target="_top" xlink:title=" ">
<polygon fill="white" stroke="black" points="888.5,-56.5 888.5,-75.5 991.5,-75.5 991.5,-56.5 888.5,-56.5"/>
<text text-anchor="middle" x="940" y="-63.5" font-family="Helvetica,sans-Serif" font-size="10.00">mp4itemfactory.h</text>
</a>
</g>
</g>
<!-- Node37&#45;&gt;Node38 -->
<g id="edge55" class="edge">
<title>Node37&#45;&gt;Node38</title>
<path fill="none" stroke="midnightblue" d="M940,-101.8C940,-92.91 940,-82.78 940,-75.75"/>
<polygon fill="midnightblue" stroke="midnightblue" points="936.5,-102.08 940,-112.08 943.5,-102.08 936.5,-102.08"/>
</g>
<!-- Node40 -->
<g id="node40" class="node">
<title>Node40</title>
<g id="a_node40"><a xlink:href="oggflacfile_8h.html" target="_top" xlink:title=" ">
<polygon fill="white" stroke="black" points="1861,-168.5 1861,-187.5 1937,-187.5 1937,-168.5 1861,-168.5"/>
<text text-anchor="middle" x="1899" y="-175.5" font-family="Helvetica,sans-Serif" font-size="10.00">oggflacfile.h</text>
</a>
</g>
</g>
<!-- Node39&#45;&gt;Node40 -->
<g id="edge63" class="edge">
<title>Node39&#45;&gt;Node40</title>
<path fill="none" stroke="midnightblue" d="M1754.74,-221.57C1789.26,-211.38 1839.01,-196.7 1870.14,-187.52"/>
<polygon fill="midnightblue" stroke="midnightblue" points="1753.6,-218.26 1745,-224.44 1755.58,-224.97 1753.6,-218.26"/>
</g>
<!-- Node41 -->
<g id="node41" class="node">
<title>Node41</title>
<g id="a_node41"><a xlink:href="opusfile_8h.html" target="_top" xlink:title=" ">
<polygon fill="white" stroke="black" points="1955,-168.5 1955,-187.5 2019,-187.5 2019,-168.5 1955,-168.5"/>
<text text-anchor="middle" x="1987" y="-175.5" font-family="Helvetica,sans-Serif" font-size="10.00">opusfile.h</text>
</a>
</g>
</g>
<!-- Node39&#45;&gt;Node41 -->
<g id="edge64" class="edge">
<title>Node39&#45;&gt;Node41</title>
<path fill="none" stroke="midnightblue" d="M1755.67,-223.93C1841.21,-206.19 1864.42,-204.64 1946,-188 1948.86,-187.42 1951.82,-186.8 1954.79,-186.17"/>
<polygon fill="midnightblue" stroke="midnightblue" points="1754.86,-220.53 1745.78,-226 1756.29,-227.38 1754.86,-220.53"/>
</g>
<!-- Node42 -->
<g id="node42" class="node">
<title>Node42</title>
<g id="a_node42"><a xlink:href="speexfile_8h.html" target="_top" xlink:title=" ">
<polygon fill="white" stroke="black" points="1683,-168.5 1683,-187.5 1753,-187.5 1753,-168.5 1683,-168.5"/>
<text text-anchor="middle" x="1718" y="-175.5" font-family="Helvetica,sans-Serif" font-size="10.00">speexfile.h</text>
</a>
</g>
</g>
<!-- Node39&#45;&gt;Node42 -->
<g id="edge65" class="edge">
<title>Node39&#45;&gt;Node42</title>
<path fill="none" stroke="midnightblue" d="M1716.71,-213.8C1717.04,-204.91 1717.42,-194.78 1717.68,-187.75"/>
<polygon fill="midnightblue" stroke="midnightblue" points="1713.2,-213.96 1716.33,-224.08 1720.2,-214.22 1713.2,-213.96"/>
</g>
<!-- Node43 -->
<g id="node43" class="node">
<title>Node43</title>
<g id="a_node43"><a xlink:href="vorbisfile_8h.html" target="_top" xlink:title=" ">
<polygon fill="white" stroke="black" points="1771.5,-168.5 1771.5,-187.5 1842.5,-187.5 1842.5,-168.5 1771.5,-168.5"/>
<text text-anchor="middle" x="1807" y="-175.5" font-family="Helvetica,sans-Serif" font-size="10.00">vorbisfile.h</text>
</a>
</g>
</g>
<!-- Node39&#45;&gt;Node43 -->
<g id="edge66" class="edge">
<title>Node39&#45;&gt;Node43</title>
<path fill="none" stroke="midnightblue" d="M1739.29,-219.18C1756.04,-209.24 1778.1,-196.15 1792.42,-187.65"/>
<polygon fill="midnightblue" stroke="midnightblue" points="1737.43,-216.21 1730.62,-224.32 1741.01,-222.23 1737.43,-216.21"/>
</g>
<!-- Node44&#45;&gt;Node7 -->
<g id="edge68" class="edge">
<title>Node44&#45;&gt;Node7</title>
<path fill="none" stroke="midnightblue" d="M401.52,-220.1C380.03,-210.01 350.78,-196.27 332.14,-187.52"/>
<polygon fill="midnightblue" stroke="midnightblue" points="400.24,-223.36 410.78,-224.44 403.21,-217.02 400.24,-223.36"/>
</g>
<!-- Node44&#45;&gt;Node9 -->
<g id="edge69" class="edge">
<title>Node44&#45;&gt;Node9</title>
<path fill="none" stroke="midnightblue" d="M445.29,-217C455.04,-207.43 467.05,-195.64 475.09,-187.75"/>
<polygon fill="midnightblue" stroke="midnightblue" points="442.77,-214.58 438.08,-224.08 447.67,-219.57 442.77,-214.58"/>
</g>
<!-- Node44&#45;&gt;Node12 -->
<g id="edge70" class="edge">
<title>Node44&#45;&gt;Node12</title>
<path fill="none" stroke="midnightblue" d="M392.3,-224.06C392.2,-224.04 392.1,-224.02 392,-224 288.06,-204.01 163.32,-188.8 106.67,-182.36"/>
<polygon fill="midnightblue" stroke="midnightblue" points="391.48,-227.46 401.99,-226.11 392.93,-220.61 391.48,-227.46"/>
</g>
<!-- Node47&#45;&gt;Node40 -->
<g id="edge76" class="edge">
<title>Node47&#45;&gt;Node40</title>
<path fill="none" stroke="midnightblue" d="M1946.45,-217.82C1934.62,-208.15 1919.71,-195.95 1909.8,-187.83"/>
<polygon fill="midnightblue" stroke="midnightblue" points="1944.44,-220.7 1954.4,-224.32 1948.87,-215.28 1944.44,-220.7"/>
</g>
<!-- Node47&#45;&gt;Node41 -->
<g id="edge77" class="edge">
<title>Node47&#45;&gt;Node41</title>
<path fill="none" stroke="midnightblue" d="M1972.46,-214.69C1976.17,-205.59 1980.48,-195.01 1983.43,-187.75"/>
<polygon fill="midnightblue" stroke="midnightblue" points="1969.16,-213.5 1968.63,-224.08 1975.65,-216.14 1969.16,-213.5"/>
</g>
<!-- Node47&#45;&gt;Node42 -->
<g id="edge78" class="edge">
<title>Node47&#45;&gt;Node42</title>
<path fill="none" stroke="midnightblue" d="M1916,-222.29C1868,-211.79 1796.02,-196.06 1753.35,-186.73"/>
<polygon fill="midnightblue" stroke="midnightblue" points="1915.35,-225.73 1925.86,-224.44 1916.84,-218.89 1915.35,-225.73"/>
</g>
<!-- Node47&#45;&gt;Node43 -->
<g id="edge79" class="edge">
<title>Node47&#45;&gt;Node43</title>
<path fill="none" stroke="midnightblue" d="M1930.39,-221.17C1900.64,-211 1858.45,-196.59 1831.92,-187.52"/>
<polygon fill="midnightblue" stroke="midnightblue" points="1929.37,-224.52 1939.96,-224.44 1931.63,-217.9 1929.37,-224.52"/>
</g>
</g>
</svg>
