<?xml version="1.0" encoding="UTF-8" standalone="no"?>
<!DOCTYPE svg PUBLIC "-//W3C//DTD SVG 1.1//EN"
 "http://www.w3.org/Graphics/SVG/1.1/DTD/svg11.dtd">
<!-- Generated by graphviz version 2.43.0 (0)
 -->
<!-- Title: tpicturetype.h Pages: 1 -->
<svg width="460pt" height="308pt"
 viewBox="0.00 0.00 460.00 308.00" xmlns="http://www.w3.org/2000/svg" xmlns:xlink="http://www.w3.org/1999/xlink">
<g id="graph0" class="graph" transform="scale(1 1) rotate(0) translate(4 304)">
<title>tpicturetype.h</title>
<polygon fill="white" stroke="transparent" points="-4,4 -4,-304 456,-304 456,4 -4,4"/>
<!-- Node1 -->
<g id="node1" class="node">
<title>Node1</title>
<g id="a_node1"><a xlink:title=" ">
<polygon fill="#bfbfbf" stroke="black" points="66,-280.5 66,-299.5 151,-299.5 151,-280.5 66,-280.5"/>
<text text-anchor="middle" x="108.5" y="-287.5" font-family="Helvetica,sans-Serif" font-size="10.00">tpicturetype.h</text>
</a>
</g>
</g>
<!-- Node2 -->
<g id="node2" class="node">
<title>Node2</title>
<g id="a_node2"><a xlink:href="asfpicture_8h.html" target="_top" xlink:title=" ">
<polygon fill="white" stroke="black" points="4.5,-168.5 4.5,-187.5 78.5,-187.5 78.5,-168.5 4.5,-168.5"/>
<text text-anchor="middle" x="41.5" y="-175.5" font-family="Helvetica,sans-Serif" font-size="10.00">asfpicture.h</text>
</a>
</g>
</g>
<!-- Node1&#45;&gt;Node2 -->
<g id="edge1" class="edge">
<title>Node1&#45;&gt;Node2</title>
<path fill="none" stroke="midnightblue" d="M71.79,-276.27C57.16,-269.18 41.85,-258.74 33.5,-244 23.3,-225.99 31.65,-200.74 37.33,-187.64"/>
<polygon fill="midnightblue" stroke="midnightblue" points="70.66,-279.6 81.22,-280.45 73.5,-273.2 70.66,-279.6"/>
</g>
<!-- Node6 -->
<g id="node6" class="node">
<title>Node6</title>
<g id="a_node6"><a xlink:href="attachedpictureframe_8h.html" target="_top" xlink:title=" ">
<polygon fill="white" stroke="black" points="43,-224.5 43,-243.5 174,-243.5 174,-224.5 43,-224.5"/>
<text text-anchor="middle" x="108.5" y="-231.5" font-family="Helvetica,sans-Serif" font-size="10.00">attachedpictureframe.h</text>
</a>
</g>
</g>
<!-- Node1&#45;&gt;Node6 -->
<g id="edge5" class="edge">
<title>Node1&#45;&gt;Node6</title>
<path fill="none" stroke="midnightblue" d="M108.5,-269.8C108.5,-260.91 108.5,-250.78 108.5,-243.75"/>
<polygon fill="midnightblue" stroke="midnightblue" points="105,-270.08 108.5,-280.08 112,-270.08 105,-270.08"/>
</g>
<!-- Node7 -->
<g id="node7" class="node">
<title>Node7</title>
<g id="a_node7"><a xlink:href="flacpicture_8h.html" target="_top" xlink:title=" ">
<polygon fill="white" stroke="black" points="192,-224.5 192,-243.5 269,-243.5 269,-224.5 192,-224.5"/>
<text text-anchor="middle" x="230.5" y="-231.5" font-family="Helvetica,sans-Serif" font-size="10.00">flacpicture.h</text>
</a>
</g>
</g>
<!-- Node1&#45;&gt;Node7 -->
<g id="edge7" class="edge">
<title>Node1&#45;&gt;Node7</title>
<path fill="none" stroke="midnightblue" d="M137.04,-276.37C159.89,-266.26 191.31,-252.35 211.26,-243.52"/>
<polygon fill="midnightblue" stroke="midnightblue" points="135.56,-273.2 127.83,-280.44 138.39,-279.6 135.56,-273.2"/>
</g>
<!-- Node3 -->
<g id="node3" class="node">
<title>Node3</title>
<g id="a_node3"><a xlink:href="asfattribute_8h.html" target="_top" xlink:title=" ">
<polygon fill="white" stroke="black" points="0,-112.5 0,-131.5 83,-131.5 83,-112.5 0,-112.5"/>
<text text-anchor="middle" x="41.5" y="-119.5" font-family="Helvetica,sans-Serif" font-size="10.00">asfattribute.h</text>
</a>
</g>
</g>
<!-- Node2&#45;&gt;Node3 -->
<g id="edge2" class="edge">
<title>Node2&#45;&gt;Node3</title>
<path fill="none" stroke="midnightblue" d="M41.5,-157.8C41.5,-148.91 41.5,-138.78 41.5,-131.75"/>
<polygon fill="midnightblue" stroke="midnightblue" points="38,-158.08 41.5,-168.08 45,-158.08 38,-158.08"/>
</g>
<!-- Node4 -->
<g id="node4" class="node">
<title>Node4</title>
<g id="a_node4"><a xlink:href="asftag_8h.html" target="_top" xlink:title=" ">
<polygon fill="white" stroke="black" points="13.5,-56.5 13.5,-75.5 69.5,-75.5 69.5,-56.5 13.5,-56.5"/>
<text text-anchor="middle" x="41.5" y="-63.5" font-family="Helvetica,sans-Serif" font-size="10.00">asftag.h</text>
</a>
</g>
</g>
<!-- Node3&#45;&gt;Node4 -->
<g id="edge3" class="edge">
<title>Node3&#45;&gt;Node4</title>
<path fill="none" stroke="midnightblue" d="M41.5,-101.8C41.5,-92.91 41.5,-82.78 41.5,-75.75"/>
<polygon fill="midnightblue" stroke="midnightblue" points="38,-102.08 41.5,-112.08 45,-102.08 38,-102.08"/>
</g>
<!-- Node5 -->
<g id="node5" class="node">
<title>Node5</title>
<g id="a_node5"><a xlink:href="asffile_8h.html" target="_top" xlink:title=" ">
<polygon fill="white" stroke="black" points="13.5,-0.5 13.5,-19.5 69.5,-19.5 69.5,-0.5 13.5,-0.5"/>
<text text-anchor="middle" x="41.5" y="-7.5" font-family="Helvetica,sans-Serif" font-size="10.00">asffile.h</text>
</a>
</g>
</g>
<!-- Node4&#45;&gt;Node5 -->
<g id="edge4" class="edge">
<title>Node4&#45;&gt;Node5</title>
<path fill="none" stroke="midnightblue" d="M41.5,-45.8C41.5,-36.91 41.5,-26.78 41.5,-19.75"/>
<polygon fill="midnightblue" stroke="midnightblue" points="38,-46.08 41.5,-56.08 45,-46.08 38,-46.08"/>
</g>
<!-- Node6&#45;&gt;Node2 -->
<g id="edge6" class="edge">
<title>Node6&#45;&gt;Node2</title>
<path fill="none" stroke="midnightblue" d="M89.67,-217.82C77.66,-208.15 62.53,-195.95 52.46,-187.83"/>
<polygon fill="midnightblue" stroke="midnightblue" points="87.75,-220.77 97.74,-224.32 92.15,-215.32 87.75,-220.77"/>
</g>
<!-- Node8 -->
<g id="node8" class="node">
<title>Node8</title>
<g id="a_node8"><a xlink:href="flacfile_8h.html" target="_top" xlink:title=" ">
<polygon fill="white" stroke="black" points="146.5,-168.5 146.5,-187.5 204.5,-187.5 204.5,-168.5 146.5,-168.5"/>
<text text-anchor="middle" x="175.5" y="-175.5" font-family="Helvetica,sans-Serif" font-size="10.00">flacfile.h</text>
</a>
</g>
</g>
<!-- Node7&#45;&gt;Node8 -->
<g id="edge8" class="edge">
<title>Node7&#45;&gt;Node8</title>
<path fill="none" stroke="midnightblue" d="M214.21,-217C204.46,-207.43 192.45,-195.64 184.41,-187.75"/>
<polygon fill="midnightblue" stroke="midnightblue" points="211.83,-219.57 221.42,-224.08 216.73,-214.58 211.83,-219.57"/>
</g>
<!-- Node9 -->
<g id="node9" class="node">
<title>Node9</title>
<g id="a_node9"><a xlink:href="xiphcomment_8h.html" target="_top" xlink:title=" ">
<polygon fill="white" stroke="black" points="223,-168.5 223,-187.5 316,-187.5 316,-168.5 223,-168.5"/>
<text text-anchor="middle" x="269.5" y="-175.5" font-family="Helvetica,sans-Serif" font-size="10.00">xiphcomment.h</text>
</a>
</g>
</g>
<!-- Node7&#45;&gt;Node9 -->
<g id="edge9" class="edge">
<title>Node7&#45;&gt;Node9</title>
<path fill="none" stroke="midnightblue" d="M242.88,-215.86C249.64,-206.5 257.71,-195.33 263.18,-187.75"/>
<polygon fill="midnightblue" stroke="midnightblue" points="239.96,-213.93 236.94,-224.08 245.63,-218.03 239.96,-213.93"/>
</g>
<!-- Node10 -->
<g id="node10" class="node">
<title>Node10</title>
<g id="a_node10"><a xlink:href="oggflacfile_8h.html" target="_top" xlink:title=" ">
<polygon fill="white" stroke="black" points="116.5,-112.5 116.5,-131.5 192.5,-131.5 192.5,-112.5 116.5,-112.5"/>
<text text-anchor="middle" x="154.5" y="-119.5" font-family="Helvetica,sans-Serif" font-size="10.00">oggflacfile.h</text>
</a>
</g>
</g>
<!-- Node9&#45;&gt;Node10 -->
<g id="edge10" class="edge">
<title>Node9&#45;&gt;Node10</title>
<path fill="none" stroke="midnightblue" d="M242.02,-164.1C220.53,-154.01 191.28,-140.27 172.64,-131.52"/>
<polygon fill="midnightblue" stroke="midnightblue" points="240.74,-167.36 251.28,-168.44 243.71,-161.02 240.74,-167.36"/>
</g>
<!-- Node11 -->
<g id="node11" class="node">
<title>Node11</title>
<g id="a_node11"><a xlink:href="opusfile_8h.html" target="_top" xlink:title=" ">
<polygon fill="white" stroke="black" points="210.5,-112.5 210.5,-131.5 274.5,-131.5 274.5,-112.5 210.5,-112.5"/>
<text text-anchor="middle" x="242.5" y="-119.5" font-family="Helvetica,sans-Serif" font-size="10.00">opusfile.h</text>
</a>
</g>
</g>
<!-- Node9&#45;&gt;Node11 -->
<g id="edge11" class="edge">
<title>Node9&#45;&gt;Node11</title>
<path fill="none" stroke="midnightblue" d="M260.49,-158.98C255.91,-149.82 250.55,-139.09 246.88,-131.75"/>
<polygon fill="midnightblue" stroke="midnightblue" points="257.44,-160.7 265.04,-168.08 263.7,-157.57 257.44,-160.7"/>
</g>
<!-- Node12 -->
<g id="node12" class="node">
<title>Node12</title>
<g id="a_node12"><a xlink:href="speexfile_8h.html" target="_top" xlink:title=" ">
<polygon fill="white" stroke="black" points="292.5,-112.5 292.5,-131.5 362.5,-131.5 362.5,-112.5 292.5,-112.5"/>
<text text-anchor="middle" x="327.5" y="-119.5" font-family="Helvetica,sans-Serif" font-size="10.00">speexfile.h</text>
</a>
</g>
</g>
<!-- Node9&#45;&gt;Node12 -->
<g id="edge12" class="edge">
<title>Node9&#45;&gt;Node12</title>
<path fill="none" stroke="midnightblue" d="M286.41,-161.25C296.7,-151.67 309.47,-139.79 318.01,-131.83"/>
<polygon fill="midnightblue" stroke="midnightblue" points="283.75,-158.95 278.82,-168.32 288.52,-164.07 283.75,-158.95"/>
</g>
<!-- Node13 -->
<g id="node13" class="node">
<title>Node13</title>
<g id="a_node13"><a xlink:href="vorbisfile_8h.html" target="_top" xlink:title=" ">
<polygon fill="white" stroke="black" points="381,-112.5 381,-131.5 452,-131.5 452,-112.5 381,-112.5"/>
<text text-anchor="middle" x="416.5" y="-119.5" font-family="Helvetica,sans-Serif" font-size="10.00">vorbisfile.h</text>
</a>
</g>
</g>
<!-- Node9&#45;&gt;Node13 -->
<g id="edge13" class="edge">
<title>Node9&#45;&gt;Node13</title>
<path fill="none" stroke="midnightblue" d="M302.42,-164.91C330.06,-154.75 368.84,-140.51 393.32,-131.52"/>
<polygon fill="midnightblue" stroke="midnightblue" points="300.97,-161.71 292.79,-168.44 303.39,-168.28 300.97,-161.71"/>
</g>
</g>
</svg>
