<?xml version="1.0" encoding="UTF-8" standalone="no"?>
<!DOCTYPE svg PUBLIC "-//W3C//DTD SVG 1.1//EN"
 "http://www.w3.org/Graphics/SVG/1.1/DTD/svg11.dtd">
<!-- Generated by graphviz version 2.43.0 (0)
 -->
<!-- Title: tpropertymap.h Pages: 1 -->
<svg width="847pt" height="308pt"
 viewBox="0.00 0.00 847.00 308.00" xmlns="http://www.w3.org/2000/svg" xmlns:xlink="http://www.w3.org/1999/xlink">
<g id="graph0" class="graph" transform="scale(1 1) rotate(0) translate(4 304)">
<title>tpropertymap.h</title>
<polygon fill="white" stroke="transparent" points="-4,4 -4,-304 843,-304 843,4 -4,4"/>
<!-- Node1 -->
<g id="node1" class="node">
<title>Node1</title>
<g id="a_node1"><a xlink:title=" ">
<polygon fill="#bfbfbf" stroke="black" points="351,-280.5 351,-299.5 443,-299.5 443,-280.5 351,-280.5"/>
<text text-anchor="middle" x="397" y="-287.5" font-family="Helvetica,sans-Serif" font-size="10.00">tpropertymap.h</text>
</a>
</g>
</g>
<!-- Node2 -->
<g id="node2" class="node">
<title>Node2</title>
<g id="a_node2"><a xlink:href="tmap_8h.html" target="_top" xlink:title=" ">
<polygon fill="white" stroke="black" points="212.5,-112.5 212.5,-131.5 263.5,-131.5 263.5,-112.5 212.5,-112.5"/>
<text text-anchor="middle" x="238" y="-119.5" font-family="Helvetica,sans-Serif" font-size="10.00">tmap.h</text>
</a>
</g>
</g>
<!-- Node1&#45;&gt;Node2 -->
<g id="edge1" class="edge">
<title>Node1&#45;&gt;Node2</title>
<path fill="none" stroke="midnightblue" d="M388.45,-280.08C362.77,-253.27 286.07,-173.19 253.22,-138.89"/>
<polygon fill="midnightblue" stroke="midnightblue" points="255.65,-136.37 246.21,-131.57 250.6,-141.21 255.65,-136.37"/>
</g>
<!-- Node12 -->
<g id="node12" class="node">
<title>Node12</title>
<g id="a_node12"><a xlink:href="tstringlist_8h.html" target="_top" xlink:title=" ">
<polygon fill="white" stroke="black" points="600,-224.5 600,-243.5 672,-243.5 672,-224.5 600,-224.5"/>
<text text-anchor="middle" x="636" y="-231.5" font-family="Helvetica,sans-Serif" font-size="10.00">tstringlist.h</text>
</a>
</g>
</g>
<!-- Node1&#45;&gt;Node12 -->
<g id="edge11" class="edge">
<title>Node1&#45;&gt;Node12</title>
<path fill="none" stroke="midnightblue" d="M434.87,-280.44C476.97,-270.93 544.95,-255.57 590.05,-245.38"/>
<polygon fill="midnightblue" stroke="midnightblue" points="590.89,-248.78 599.87,-243.16 589.35,-241.95 590.89,-248.78"/>
</g>
<!-- Node3 -->
<g id="node3" class="node">
<title>Node3</title>
<g id="a_node3"><a xlink:title=" ">
<polygon fill="white" stroke="#bfbfbf" points="0,-56.5 0,-75.5 38,-75.5 38,-56.5 0,-56.5"/>
<text text-anchor="middle" x="19" y="-63.5" font-family="Helvetica,sans-Serif" font-size="10.00">map</text>
</a>
</g>
</g>
<!-- Node2&#45;&gt;Node3 -->
<g id="edge2" class="edge">
<title>Node2&#45;&gt;Node3</title>
<path fill="none" stroke="midnightblue" d="M212.19,-115.6C177.13,-108.12 112.32,-93.78 48.1,-76.14"/>
<polygon fill="midnightblue" stroke="midnightblue" points="48.79,-72.7 38.22,-73.4 46.92,-79.45 48.79,-72.7"/>
</g>
<!-- Node4 -->
<g id="node4" class="node">
<title>Node4</title>
<g id="a_node4"><a xlink:title=" ">
<polygon fill="white" stroke="#bfbfbf" points="420,-56.5 420,-75.5 478,-75.5 478,-56.5 420,-56.5"/>
<text text-anchor="middle" x="449" y="-63.5" font-family="Helvetica,sans-Serif" font-size="10.00">memory</text>
</a>
</g>
</g>
<!-- Node2&#45;&gt;Node4 -->
<g id="edge3" class="edge">
<title>Node2&#45;&gt;Node4</title>
<path fill="none" stroke="midnightblue" d="M263.87,-114.38C300.45,-105.02 367.55,-87.85 410.13,-76.95"/>
<polygon fill="midnightblue" stroke="midnightblue" points="411.05,-80.33 419.87,-74.46 409.31,-73.54 411.05,-80.33"/>
</g>
<!-- Node5 -->
<g id="node5" class="node">
<title>Node5</title>
<g id="a_node5"><a xlink:title=" ">
<polygon fill="white" stroke="#bfbfbf" points="196.5,-56.5 196.5,-75.5 279.5,-75.5 279.5,-56.5 196.5,-56.5"/>
<text text-anchor="middle" x="238" y="-63.5" font-family="Helvetica,sans-Serif" font-size="10.00">initializer_list</text>
</a>
</g>
</g>
<!-- Node2&#45;&gt;Node5 -->
<g id="edge4" class="edge">
<title>Node2&#45;&gt;Node5</title>
<path fill="none" stroke="midnightblue" d="M238,-112.08C238,-105.01 238,-94.86 238,-85.99"/>
<polygon fill="midnightblue" stroke="midnightblue" points="241.5,-85.75 238,-75.75 234.5,-85.75 241.5,-85.75"/>
</g>
<!-- Node6 -->
<g id="node6" class="node">
<title>Node6</title>
<g id="a_node6"><a xlink:title=" ">
<polygon fill="white" stroke="#bfbfbf" points="56.5,-56.5 56.5,-75.5 101.5,-75.5 101.5,-56.5 56.5,-56.5"/>
<text text-anchor="middle" x="79" y="-63.5" font-family="Helvetica,sans-Serif" font-size="10.00">utility</text>
</a>
</g>
</g>
<!-- Node2&#45;&gt;Node6 -->
<g id="edge5" class="edge">
<title>Node2&#45;&gt;Node6</title>
<path fill="none" stroke="midnightblue" d="M212.81,-112.44C185.27,-103.09 141.09,-88.09 111.09,-77.9"/>
<polygon fill="midnightblue" stroke="midnightblue" points="112.1,-74.55 101.51,-74.64 109.85,-81.17 112.1,-74.55"/>
</g>
<!-- Node7 -->
<g id="node7" class="node">
<title>Node7</title>
<g id="a_node7"><a xlink:href="taglib_8h.html" target="_top" xlink:title=" ">
<polygon fill="white" stroke="black" points="496.5,-56.5 496.5,-75.5 549.5,-75.5 549.5,-56.5 496.5,-56.5"/>
<text text-anchor="middle" x="523" y="-63.5" font-family="Helvetica,sans-Serif" font-size="10.00">taglib.h</text>
</a>
</g>
</g>
<!-- Node2&#45;&gt;Node7 -->
<g id="edge6" class="edge">
<title>Node2&#45;&gt;Node7</title>
<path fill="none" stroke="midnightblue" d="M263.56,-116.95C307.16,-109.93 398.89,-94.62 486.48,-75.99"/>
<polygon fill="midnightblue" stroke="midnightblue" points="487.27,-79.4 496.31,-73.88 485.8,-72.56 487.27,-79.4"/>
</g>
<!-- Node11 -->
<g id="node11" class="node">
<title>Node11</title>
<g id="a_node11"><a xlink:title=" ">
<polygon fill="white" stroke="#bfbfbf" points="119.5,-56.5 119.5,-75.5 178.5,-75.5 178.5,-56.5 119.5,-56.5"/>
<text text-anchor="middle" x="149" y="-63.5" font-family="Helvetica,sans-Serif" font-size="10.00">tmap.tcc</text>
</a>
</g>
</g>
<!-- Node2&#45;&gt;Node11 -->
<g id="edge10" class="edge">
<title>Node2&#45;&gt;Node11</title>
<path fill="none" stroke="midnightblue" d="M223.7,-112.32C209.82,-103.9 188.51,-90.97 172.2,-81.07"/>
<polygon fill="midnightblue" stroke="midnightblue" points="173.63,-77.85 163.26,-75.65 170,-83.83 173.63,-77.85"/>
</g>
<!-- Node8 -->
<g id="node8" class="node">
<title>Node8</title>
<g id="a_node8"><a xlink:title=" ">
<polygon fill="white" stroke="#bfbfbf" points="515,-0.5 515,-19.5 603,-19.5 603,-0.5 515,-0.5"/>
<text text-anchor="middle" x="559" y="-7.5" font-family="Helvetica,sans-Serif" font-size="10.00">taglib_config.h</text>
</a>
</g>
</g>
<!-- Node7&#45;&gt;Node8 -->
<g id="edge7" class="edge">
<title>Node7&#45;&gt;Node8</title>
<path fill="none" stroke="midnightblue" d="M528.94,-56.08C533.98,-48.53 541.34,-37.49 547.51,-28.23"/>
<polygon fill="midnightblue" stroke="midnightblue" points="550.53,-30.01 553.17,-19.75 544.71,-26.13 550.53,-30.01"/>
</g>
<!-- Node9 -->
<g id="node9" class="node">
<title>Node9</title>
<g id="a_node9"><a xlink:title=" ">
<polygon fill="white" stroke="#bfbfbf" points="425,-0.5 425,-19.5 497,-19.5 497,-0.5 425,-0.5"/>
<text text-anchor="middle" x="461" y="-7.5" font-family="Helvetica,sans-Serif" font-size="10.00">sys/types.h</text>
</a>
</g>
</g>
<!-- Node7&#45;&gt;Node9 -->
<g id="edge8" class="edge">
<title>Node7&#45;&gt;Node9</title>
<path fill="none" stroke="midnightblue" d="M513.04,-56.32C503.87,-48.34 490.06,-36.31 478.97,-26.65"/>
<polygon fill="midnightblue" stroke="midnightblue" points="480.98,-23.76 471.14,-19.83 476.38,-29.04 480.98,-23.76"/>
</g>
<!-- Node10 -->
<g id="node10" class="node">
<title>Node10</title>
<g id="a_node10"><a xlink:title=" ">
<polygon fill="white" stroke="#bfbfbf" points="693,-0.5 693,-19.5 737,-19.5 737,-0.5 693,-0.5"/>
<text text-anchor="middle" x="715" y="-7.5" font-family="Helvetica,sans-Serif" font-size="10.00">string</text>
</a>
</g>
</g>
<!-- Node7&#45;&gt;Node10 -->
<g id="edge9" class="edge">
<title>Node7&#45;&gt;Node10</title>
<path fill="none" stroke="midnightblue" d="M549.7,-57.49C584.64,-47.66 645.81,-30.46 683.14,-19.96"/>
<polygon fill="midnightblue" stroke="midnightblue" points="684.31,-23.27 692.99,-17.19 682.42,-16.53 684.31,-23.27"/>
</g>
<!-- Node13 -->
<g id="node13" class="node">
<title>Node13</title>
<g id="a_node13"><a xlink:title=" ">
<polygon fill="white" stroke="#bfbfbf" points="779,-56.5 779,-75.5 839,-75.5 839,-56.5 779,-56.5"/>
<text text-anchor="middle" x="809" y="-63.5" font-family="Helvetica,sans-Serif" font-size="10.00">iostream</text>
</a>
</g>
</g>
<!-- Node12&#45;&gt;Node13 -->
<g id="edge12" class="edge">
<title>Node12&#45;&gt;Node13</title>
<path fill="none" stroke="midnightblue" d="M672.29,-229.76C702.29,-225.21 744.04,-214.27 770,-188 797.7,-159.96 805.73,-112.16 808.06,-85.82"/>
<polygon fill="midnightblue" stroke="midnightblue" points="811.56,-85.88 808.76,-75.66 804.58,-85.4 811.56,-85.88"/>
</g>
<!-- Node14 -->
<g id="node14" class="node">
<title>Node14</title>
<g id="a_node14"><a xlink:href="tstring_8h.html" target="_top" xlink:title=" ">
<polygon fill="white" stroke="black" points="703.5,-168.5 703.5,-187.5 760.5,-187.5 760.5,-168.5 703.5,-168.5"/>
<text text-anchor="middle" x="732" y="-175.5" font-family="Helvetica,sans-Serif" font-size="10.00">tstring.h</text>
</a>
</g>
</g>
<!-- Node12&#45;&gt;Node14 -->
<g id="edge13" class="edge">
<title>Node12&#45;&gt;Node14</title>
<path fill="none" stroke="midnightblue" d="M651.42,-224.32C666.54,-215.82 689.82,-202.73 707.47,-192.8"/>
<polygon fill="midnightblue" stroke="midnightblue" points="709.61,-195.61 716.61,-187.65 706.18,-189.51 709.61,-195.61"/>
</g>
<!-- Node17 -->
<g id="node17" class="node">
<title>Node17</title>
<g id="a_node17"><a xlink:href="taglib__export_8h.html" target="_top" xlink:title=" ">
<polygon fill="white" stroke="black" points="633,-56.5 633,-75.5 723,-75.5 723,-56.5 633,-56.5"/>
<text text-anchor="middle" x="678" y="-63.5" font-family="Helvetica,sans-Serif" font-size="10.00">taglib_export.h</text>
</a>
</g>
</g>
<!-- Node12&#45;&gt;Node17 -->
<g id="edge34" class="edge">
<title>Node12&#45;&gt;Node17</title>
<path fill="none" stroke="midnightblue" d="M638.26,-224.08C644.87,-197.95 664.28,-121.21 673.3,-85.58"/>
<polygon fill="midnightblue" stroke="midnightblue" points="676.77,-86.12 675.83,-75.57 669.99,-84.4 676.77,-86.12"/>
</g>
<!-- Node18 -->
<g id="node18" class="node">
<title>Node18</title>
<g id="a_node18"><a xlink:href="tlist_8h.html" target="_top" xlink:title=" ">
<polygon fill="white" stroke="black" points="427,-112.5 427,-131.5 471,-131.5 471,-112.5 427,-112.5"/>
<text text-anchor="middle" x="449" y="-119.5" font-family="Helvetica,sans-Serif" font-size="10.00">tlist.h</text>
</a>
</g>
</g>
<!-- Node12&#45;&gt;Node18 -->
<g id="edge24" class="edge">
<title>Node12&#45;&gt;Node18</title>
<path fill="none" stroke="midnightblue" d="M608.66,-224.49C585.69,-216.73 552.47,-204.04 526,-188 502.77,-173.93 479.4,-153.02 464.6,-138.74"/>
<polygon fill="midnightblue" stroke="midnightblue" points="466.9,-136.09 457.31,-131.57 461.99,-141.08 466.9,-136.09"/>
</g>
<!-- Node21 -->
<g id="node21" class="node">
<title>Node21</title>
<g id="a_node21"><a xlink:href="tbytevectorlist_8h.html" target="_top" xlink:title=" ">
<polygon fill="white" stroke="black" points="534.5,-168.5 534.5,-187.5 631.5,-187.5 631.5,-168.5 534.5,-168.5"/>
<text text-anchor="middle" x="583" y="-175.5" font-family="Helvetica,sans-Serif" font-size="10.00">tbytevectorlist.h</text>
</a>
</g>
</g>
<!-- Node12&#45;&gt;Node21 -->
<g id="edge30" class="edge">
<title>Node12&#45;&gt;Node21</title>
<path fill="none" stroke="midnightblue" d="M627.25,-224.08C619.53,-216.22 608.1,-204.57 598.78,-195.08"/>
<polygon fill="midnightblue" stroke="midnightblue" points="601.09,-192.44 591.59,-187.75 596.1,-197.34 601.09,-192.44"/>
</g>
<!-- Node14&#45;&gt;Node7 -->
<g id="edge23" class="edge">
<title>Node14&#45;&gt;Node7</title>
<path fill="none" stroke="midnightblue" d="M703.46,-172.99C648.12,-164.93 530.6,-146.31 519,-132 508.56,-119.12 511.39,-99.67 515.72,-85.41"/>
<polygon fill="midnightblue" stroke="midnightblue" points="519.11,-86.29 519.12,-75.7 512.51,-83.98 519.11,-86.29"/>
</g>
<!-- Node14&#45;&gt;Node10 -->
<g id="edge15" class="edge">
<title>Node14&#45;&gt;Node10</title>
<path fill="none" stroke="midnightblue" d="M733.05,-168.4C735.26,-148.44 739.58,-97.54 732,-56 730.31,-46.76 726.83,-36.95 723.45,-28.85"/>
<polygon fill="midnightblue" stroke="midnightblue" points="726.63,-27.4 719.37,-19.69 720.24,-30.25 726.63,-27.4"/>
</g>
<!-- Node14&#45;&gt;Node13 -->
<g id="edge14" class="edge">
<title>Node14&#45;&gt;Node13</title>
<path fill="none" stroke="midnightblue" d="M738.42,-168.44C745.15,-159.44 755.96,-144.83 765,-132 776.24,-116.05 788.68,-97.6 797.45,-84.44"/>
<polygon fill="midnightblue" stroke="midnightblue" points="800.51,-86.17 803.13,-75.9 794.68,-82.29 800.51,-86.17"/>
</g>
<!-- Node15 -->
<g id="node15" class="node">
<title>Node15</title>
<g id="a_node15"><a xlink:href="tbytevector_8h.html" target="_top" xlink:title=" ">
<polygon fill="white" stroke="black" points="527.5,-112.5 527.5,-131.5 608.5,-131.5 608.5,-112.5 527.5,-112.5"/>
<text text-anchor="middle" x="568" y="-119.5" font-family="Helvetica,sans-Serif" font-size="10.00">tbytevector.h</text>
</a>
</g>
</g>
<!-- Node14&#45;&gt;Node15 -->
<g id="edge16" class="edge">
<title>Node14&#45;&gt;Node15</title>
<path fill="none" stroke="midnightblue" d="M706.01,-168.44C678.3,-159.32 634.25,-144.81 603.38,-134.65"/>
<polygon fill="midnightblue" stroke="midnightblue" points="604.46,-131.32 593.86,-131.52 602.27,-137.97 604.46,-131.32"/>
</g>
<!-- Node14&#45;&gt;Node17 -->
<g id="edge22" class="edge">
<title>Node14&#45;&gt;Node17</title>
<path fill="none" stroke="midnightblue" d="M727.76,-168.37C718.93,-150.38 698.4,-108.55 686.65,-84.63"/>
<polygon fill="midnightblue" stroke="midnightblue" points="689.77,-83.03 682.22,-75.59 683.48,-86.11 689.77,-83.03"/>
</g>
<!-- Node15&#45;&gt;Node4 -->
<g id="edge18" class="edge">
<title>Node15&#45;&gt;Node4</title>
<path fill="none" stroke="midnightblue" d="M549.14,-112.44C529.73,-103.64 499.27,-89.81 477.04,-79.72"/>
<polygon fill="midnightblue" stroke="midnightblue" points="478.32,-76.46 467.77,-75.52 475.43,-82.84 478.32,-76.46"/>
</g>
<!-- Node15&#45;&gt;Node7 -->
<g id="edge20" class="edge">
<title>Node15&#45;&gt;Node7</title>
<path fill="none" stroke="midnightblue" d="M560.57,-112.08C554.15,-104.38 544.69,-93.03 536.88,-83.65"/>
<polygon fill="midnightblue" stroke="midnightblue" points="539.38,-81.19 530.29,-75.75 534.01,-85.67 539.38,-81.19"/>
</g>
<!-- Node15&#45;&gt;Node13 -->
<g id="edge17" class="edge">
<title>Node15&#45;&gt;Node13</title>
<path fill="none" stroke="midnightblue" d="M606.19,-112.44C650.64,-102.48 723.72,-86.11 768.95,-75.97"/>
<polygon fill="midnightblue" stroke="midnightblue" points="769.99,-79.33 778.99,-73.73 768.46,-72.5 769.99,-79.33"/>
</g>
<!-- Node16 -->
<g id="node16" class="node">
<title>Node16</title>
<g id="a_node16"><a xlink:title=" ">
<polygon fill="white" stroke="#bfbfbf" points="567.5,-56.5 567.5,-75.5 614.5,-75.5 614.5,-56.5 567.5,-56.5"/>
<text text-anchor="middle" x="591" y="-63.5" font-family="Helvetica,sans-Serif" font-size="10.00">vector</text>
</a>
</g>
</g>
<!-- Node15&#45;&gt;Node16 -->
<g id="edge19" class="edge">
<title>Node15&#45;&gt;Node16</title>
<path fill="none" stroke="midnightblue" d="M571.8,-112.08C574.91,-104.77 579.42,-94.18 583.29,-85.1"/>
<polygon fill="midnightblue" stroke="midnightblue" points="586.57,-86.32 587.27,-75.75 580.13,-83.58 586.57,-86.32"/>
</g>
<!-- Node15&#45;&gt;Node17 -->
<g id="edge21" class="edge">
<title>Node15&#45;&gt;Node17</title>
<path fill="none" stroke="midnightblue" d="M585.67,-112.32C603.39,-103.62 630.9,-90.12 651.29,-80.11"/>
<polygon fill="midnightblue" stroke="midnightblue" points="652.94,-83.2 660.37,-75.65 649.85,-76.92 652.94,-83.2"/>
</g>
<!-- Node18&#45;&gt;Node4 -->
<g id="edge27" class="edge">
<title>Node18&#45;&gt;Node4</title>
<path fill="none" stroke="midnightblue" d="M449,-112.08C449,-105.01 449,-94.86 449,-85.99"/>
<polygon fill="midnightblue" stroke="midnightblue" points="452.5,-85.75 449,-75.75 445.5,-85.75 452.5,-85.75"/>
</g>
<!-- Node18&#45;&gt;Node5 -->
<g id="edge26" class="edge">
<title>Node18&#45;&gt;Node5</title>
<path fill="none" stroke="midnightblue" d="M426.82,-115.32C392.36,-106.51 325.36,-89.36 281.14,-78.04"/>
<polygon fill="midnightblue" stroke="midnightblue" points="281.81,-74.6 271.25,-75.51 280.07,-81.38 281.81,-74.6"/>
</g>
<!-- Node18&#45;&gt;Node7 -->
<g id="edge28" class="edge">
<title>Node18&#45;&gt;Node7</title>
<path fill="none" stroke="midnightblue" d="M460.89,-112.32C472.15,-104.11 489.29,-91.6 502.71,-81.81"/>
<polygon fill="midnightblue" stroke="midnightblue" points="504.88,-84.56 510.89,-75.83 500.75,-78.9 504.88,-84.56"/>
</g>
<!-- Node19 -->
<g id="node19" class="node">
<title>Node19</title>
<g id="a_node19"><a xlink:title=" ">
<polygon fill="white" stroke="#bfbfbf" points="298,-56.5 298,-75.5 330,-75.5 330,-56.5 298,-56.5"/>
<text text-anchor="middle" x="314" y="-63.5" font-family="Helvetica,sans-Serif" font-size="10.00">list</text>
</a>
</g>
</g>
<!-- Node18&#45;&gt;Node19 -->
<g id="edge25" class="edge">
<title>Node18&#45;&gt;Node19</title>
<path fill="none" stroke="midnightblue" d="M427.61,-112.44C403.72,-102.89 365.06,-87.43 339.59,-77.24"/>
<polygon fill="midnightblue" stroke="midnightblue" points="340.79,-73.95 330.21,-73.48 338.19,-80.45 340.79,-73.95"/>
</g>
<!-- Node20 -->
<g id="node20" class="node">
<title>Node20</title>
<g id="a_node20"><a xlink:title=" ">
<polygon fill="white" stroke="#bfbfbf" points="348.5,-56.5 348.5,-75.5 401.5,-75.5 401.5,-56.5 348.5,-56.5"/>
<text text-anchor="middle" x="375" y="-63.5" font-family="Helvetica,sans-Serif" font-size="10.00">tlist.tcc</text>
</a>
</g>
</g>
<!-- Node18&#45;&gt;Node20 -->
<g id="edge29" class="edge">
<title>Node18&#45;&gt;Node20</title>
<path fill="none" stroke="midnightblue" d="M437.11,-112.32C425.85,-104.11 408.71,-91.6 395.29,-81.81"/>
<polygon fill="midnightblue" stroke="midnightblue" points="397.25,-78.9 387.11,-75.83 393.12,-84.56 397.25,-78.9"/>
</g>
<!-- Node21&#45;&gt;Node15 -->
<g id="edge31" class="edge">
<title>Node21&#45;&gt;Node15</title>
<path fill="none" stroke="midnightblue" d="M580.52,-168.08C578.51,-160.85 575.61,-150.41 573.11,-141.4"/>
<polygon fill="midnightblue" stroke="midnightblue" points="576.48,-140.45 570.43,-131.75 569.74,-142.32 576.48,-140.45"/>
</g>
<!-- Node21&#45;&gt;Node17 -->
<g id="edge33" class="edge">
<title>Node21&#45;&gt;Node17</title>
<path fill="none" stroke="midnightblue" d="M590.45,-168.37C606.27,-150.05 643.41,-107.05 663.87,-83.36"/>
<polygon fill="midnightblue" stroke="midnightblue" points="666.69,-85.45 670.58,-75.59 661.4,-80.87 666.69,-85.45"/>
</g>
<!-- Node21&#45;&gt;Node18 -->
<g id="edge32" class="edge">
<title>Node21&#45;&gt;Node18</title>
<path fill="none" stroke="midnightblue" d="M561.77,-168.44C539.62,-159.52 504.68,-145.44 479.56,-135.32"/>
<polygon fill="midnightblue" stroke="midnightblue" points="480.72,-132.01 470.13,-131.52 478.1,-138.5 480.72,-132.01"/>
</g>
</g>
</svg>
