<?xml version="1.0" encoding="UTF-8" standalone="no"?>
<!DOCTYPE svg PUBLIC "-//W3C//DTD SVG 1.1//EN"
 "http://www.w3.org/Graphics/SVG/1.1/DTD/svg11.dtd">
<!-- Generated by graphviz version 2.43.0 (0)
 -->
<!-- Title: tpropertymap.h Pages: 1 -->
<svg width="727pt" height="252pt"
 viewBox="0.00 0.00 726.50 252.00" xmlns="http://www.w3.org/2000/svg" xmlns:xlink="http://www.w3.org/1999/xlink">
<g id="graph0" class="graph" transform="scale(1 1) rotate(0) translate(4 248)">
<title>tpropertymap.h</title>
<polygon fill="white" stroke="transparent" points="-4,4 -4,-248 722.5,-248 722.5,4 -4,4"/>
<!-- Node1 -->
<g id="node1" class="node">
<title>Node1</title>
<g id="a_node1"><a xlink:title=" ">
<polygon fill="#bfbfbf" stroke="black" points="235.5,-224.5 235.5,-243.5 327.5,-243.5 327.5,-224.5 235.5,-224.5"/>
<text text-anchor="middle" x="281.5" y="-231.5" font-family="Helvetica,sans-Serif" font-size="10.00">tpropertymap.h</text>
</a>
</g>
</g>
<!-- Node2 -->
<g id="node2" class="node">
<title>Node2</title>
<g id="a_node2"><a xlink:href="tmap_8h.html" target="_top" xlink:title=" ">
<polygon fill="white" stroke="black" points="164,-56.5 164,-75.5 215,-75.5 215,-56.5 164,-56.5"/>
<text text-anchor="middle" x="189.5" y="-63.5" font-family="Helvetica,sans-Serif" font-size="10.00">tmap.h</text>
</a>
</g>
</g>
<!-- Node1&#45;&gt;Node2 -->
<g id="edge1" class="edge">
<title>Node1&#45;&gt;Node2</title>
<path fill="none" stroke="midnightblue" d="M276.55,-224.08C261.95,-197.72 218.81,-119.88 199.29,-84.66"/>
<polygon fill="midnightblue" stroke="midnightblue" points="202.16,-82.62 194.25,-75.57 196.03,-86.01 202.16,-82.62"/>
</g>
<!-- Node8 -->
<g id="node8" class="node">
<title>Node8</title>
<g id="a_node8"><a xlink:href="tstringlist_8h.html" target="_top" xlink:title=" ">
<polygon fill="white" stroke="black" points="363.5,-168.5 363.5,-187.5 435.5,-187.5 435.5,-168.5 363.5,-168.5"/>
<text text-anchor="middle" x="399.5" y="-175.5" font-family="Helvetica,sans-Serif" font-size="10.00">tstringlist.h</text>
</a>
</g>
</g>
<!-- Node1&#45;&gt;Node8 -->
<g id="edge7" class="edge">
<title>Node1&#45;&gt;Node8</title>
<path fill="none" stroke="midnightblue" d="M300.2,-224.44C319.44,-215.64 349.65,-201.81 371.7,-191.72"/>
<polygon fill="midnightblue" stroke="midnightblue" points="373.25,-194.86 380.89,-187.52 370.34,-188.5 373.25,-194.86"/>
</g>
<!-- Node3 -->
<g id="node3" class="node">
<title>Node3</title>
<g id="a_node3"><a xlink:title=" ">
<polygon fill="white" stroke="#bfbfbf" points="140.5,-0.5 140.5,-19.5 178.5,-19.5 178.5,-0.5 140.5,-0.5"/>
<text text-anchor="middle" x="159.5" y="-7.5" font-family="Helvetica,sans-Serif" font-size="10.00">map</text>
</a>
</g>
</g>
<!-- Node2&#45;&gt;Node3 -->
<g id="edge2" class="edge">
<title>Node2&#45;&gt;Node3</title>
<path fill="none" stroke="midnightblue" d="M184.55,-56.08C180.4,-48.61 174.35,-37.72 169.23,-28.52"/>
<polygon fill="midnightblue" stroke="midnightblue" points="172.28,-26.79 164.36,-19.75 166.16,-30.19 172.28,-26.79"/>
</g>
<!-- Node4 -->
<g id="node4" class="node">
<title>Node4</title>
<g id="a_node4"><a xlink:title=" ">
<polygon fill="white" stroke="#bfbfbf" points="298.5,-0.5 298.5,-19.5 356.5,-19.5 356.5,-0.5 298.5,-0.5"/>
<text text-anchor="middle" x="327.5" y="-7.5" font-family="Helvetica,sans-Serif" font-size="10.00">memory</text>
</a>
</g>
</g>
<!-- Node2&#45;&gt;Node4 -->
<g id="edge3" class="edge">
<title>Node2&#45;&gt;Node4</title>
<path fill="none" stroke="midnightblue" d="M211.37,-56.44C234.28,-47.48 270.48,-33.31 296.37,-23.18"/>
<polygon fill="midnightblue" stroke="midnightblue" points="297.7,-26.42 305.74,-19.52 295.15,-19.9 297.7,-26.42"/>
</g>
<!-- Node5 -->
<g id="node5" class="node">
<title>Node5</title>
<g id="a_node5"><a xlink:title=" ">
<polygon fill="white" stroke="#bfbfbf" points="197,-0.5 197,-19.5 280,-19.5 280,-0.5 197,-0.5"/>
<text text-anchor="middle" x="238.5" y="-7.5" font-family="Helvetica,sans-Serif" font-size="10.00">initializer_list</text>
</a>
</g>
</g>
<!-- Node2&#45;&gt;Node5 -->
<g id="edge4" class="edge">
<title>Node2&#45;&gt;Node5</title>
<path fill="none" stroke="midnightblue" d="M197.59,-56.08C204.66,-48.3 215.09,-36.8 223.65,-27.37"/>
<polygon fill="midnightblue" stroke="midnightblue" points="226.43,-29.51 230.56,-19.75 221.25,-24.8 226.43,-29.51"/>
</g>
<!-- Node6 -->
<g id="node6" class="node">
<title>Node6</title>
<g id="a_node6"><a xlink:title=" ">
<polygon fill="white" stroke="#bfbfbf" points="0,-0.5 0,-19.5 45,-19.5 45,-0.5 0,-0.5"/>
<text text-anchor="middle" x="22.5" y="-7.5" font-family="Helvetica,sans-Serif" font-size="10.00">utility</text>
</a>
</g>
</g>
<!-- Node2&#45;&gt;Node6 -->
<g id="edge5" class="edge">
<title>Node2&#45;&gt;Node6</title>
<path fill="none" stroke="midnightblue" d="M163.77,-56.68C134.46,-47.2 86.53,-31.7 54.75,-21.43"/>
<polygon fill="midnightblue" stroke="midnightblue" points="55.63,-18.04 45.04,-18.29 53.48,-24.7 55.63,-18.04"/>
</g>
<!-- Node7 -->
<g id="node7" class="node">
<title>Node7</title>
<g id="a_node7"><a xlink:title=" ">
<polygon fill="white" stroke="#bfbfbf" points="63,-0.5 63,-19.5 122,-19.5 122,-0.5 63,-0.5"/>
<text text-anchor="middle" x="92.5" y="-7.5" font-family="Helvetica,sans-Serif" font-size="10.00">tmap.tcc</text>
</a>
</g>
</g>
<!-- Node2&#45;&gt;Node7 -->
<g id="edge6" class="edge">
<title>Node2&#45;&gt;Node7</title>
<path fill="none" stroke="midnightblue" d="M173.92,-56.32C158.5,-47.74 134.69,-34.49 116.79,-24.52"/>
<polygon fill="midnightblue" stroke="midnightblue" points="118.49,-21.46 108.05,-19.65 115.08,-27.58 118.49,-21.46"/>
</g>
<!-- Node9 -->
<g id="node9" class="node">
<title>Node9</title>
<g id="a_node9"><a xlink:href="tstring_8h.html" target="_top" xlink:title=" ">
<polygon fill="white" stroke="black" points="551,-112.5 551,-131.5 608,-131.5 608,-112.5 551,-112.5"/>
<text text-anchor="middle" x="579.5" y="-119.5" font-family="Helvetica,sans-Serif" font-size="10.00">tstring.h</text>
</a>
</g>
</g>
<!-- Node8&#45;&gt;Node9 -->
<g id="edge8" class="edge">
<title>Node8&#45;&gt;Node9</title>
<path fill="none" stroke="midnightblue" d="M428.02,-168.44C458.57,-159.28 507.21,-144.69 541.1,-134.52"/>
<polygon fill="midnightblue" stroke="midnightblue" points="542.54,-137.74 551.11,-131.52 540.53,-131.04 542.54,-137.74"/>
</g>
<!-- Node14 -->
<g id="node14" class="node">
<title>Node14</title>
<g id="a_node14"><a xlink:href="taglib__export_8h.html" target="_top" xlink:title=" ">
<polygon fill="white" stroke="black" points="496.5,-0.5 496.5,-19.5 586.5,-19.5 586.5,-0.5 496.5,-0.5"/>
<text text-anchor="middle" x="541.5" y="-7.5" font-family="Helvetica,sans-Serif" font-size="10.00">taglib_export.h</text>
</a>
</g>
</g>
<!-- Node8&#45;&gt;Node14 -->
<g id="edge25" class="edge">
<title>Node8&#45;&gt;Node14</title>
<path fill="none" stroke="midnightblue" d="M413.82,-168.46C426.53,-160.32 444.97,-147.11 457.5,-132 481.74,-102.78 474.14,-86.68 496.5,-56 504.37,-45.2 514.85,-34.56 523.72,-26.34"/>
<polygon fill="midnightblue" stroke="midnightblue" points="526.19,-28.82 531.29,-19.53 521.51,-23.62 526.19,-28.82"/>
</g>
<!-- Node15 -->
<g id="node15" class="node">
<title>Node15</title>
<g id="a_node15"><a xlink:href="tlist_8h.html" target="_top" xlink:title=" ">
<polygon fill="white" stroke="black" points="326.5,-56.5 326.5,-75.5 370.5,-75.5 370.5,-56.5 326.5,-56.5"/>
<text text-anchor="middle" x="348.5" y="-63.5" font-family="Helvetica,sans-Serif" font-size="10.00">tlist.h</text>
</a>
</g>
</g>
<!-- Node8&#45;&gt;Node15 -->
<g id="edge16" class="edge">
<title>Node8&#45;&gt;Node15</title>
<path fill="none" stroke="midnightblue" d="M381.42,-168.39C367.94,-160.87 350.53,-148.57 342.5,-132 335.4,-117.35 338.16,-98.69 341.94,-85.12"/>
<polygon fill="midnightblue" stroke="midnightblue" points="345.3,-86.09 345.03,-75.5 338.64,-83.95 345.3,-86.09"/>
</g>
<!-- Node18 -->
<g id="node18" class="node">
<title>Node18</title>
<g id="a_node18"><a xlink:href="tbytevectorlist_8h.html" target="_top" xlink:title=" ">
<polygon fill="white" stroke="black" points="351,-112.5 351,-131.5 448,-131.5 448,-112.5 351,-112.5"/>
<text text-anchor="middle" x="399.5" y="-119.5" font-family="Helvetica,sans-Serif" font-size="10.00">tbytevectorlist.h</text>
</a>
</g>
</g>
<!-- Node8&#45;&gt;Node18 -->
<g id="edge21" class="edge">
<title>Node8&#45;&gt;Node18</title>
<path fill="none" stroke="midnightblue" d="M399.5,-168.08C399.5,-161.01 399.5,-150.86 399.5,-141.99"/>
<polygon fill="midnightblue" stroke="midnightblue" points="403,-141.75 399.5,-131.75 396,-141.75 403,-141.75"/>
</g>
<!-- Node10 -->
<g id="node10" class="node">
<title>Node10</title>
<g id="a_node10"><a xlink:title=" ">
<polygon fill="white" stroke="#bfbfbf" points="642.5,-56.5 642.5,-75.5 686.5,-75.5 686.5,-56.5 642.5,-56.5"/>
<text text-anchor="middle" x="664.5" y="-63.5" font-family="Helvetica,sans-Serif" font-size="10.00">string</text>
</a>
</g>
</g>
<!-- Node9&#45;&gt;Node10 -->
<g id="edge9" class="edge">
<title>Node9&#45;&gt;Node10</title>
<path fill="none" stroke="midnightblue" d="M593.16,-112.32C606.42,-103.9 626.77,-90.97 642.35,-81.07"/>
<polygon fill="midnightblue" stroke="midnightblue" points="644.31,-83.97 650.88,-75.65 640.56,-78.06 644.31,-83.97"/>
</g>
<!-- Node11 -->
<g id="node11" class="node">
<title>Node11</title>
<g id="a_node11"><a xlink:href="tbytevector_8h.html" target="_top" xlink:title=" ">
<polygon fill="white" stroke="black" points="505,-56.5 505,-75.5 586,-75.5 586,-56.5 505,-56.5"/>
<text text-anchor="middle" x="545.5" y="-63.5" font-family="Helvetica,sans-Serif" font-size="10.00">tbytevector.h</text>
</a>
</g>
</g>
<!-- Node9&#45;&gt;Node11 -->
<g id="edge10" class="edge">
<title>Node9&#45;&gt;Node11</title>
<path fill="none" stroke="midnightblue" d="M573.89,-112.08C569.13,-104.53 562.18,-93.49 556.35,-84.23"/>
<polygon fill="midnightblue" stroke="midnightblue" points="559.3,-82.35 551.01,-75.75 553.38,-86.08 559.3,-82.35"/>
</g>
<!-- Node9&#45;&gt;Node14 -->
<g id="edge15" class="edge">
<title>Node9&#45;&gt;Node14</title>
<path fill="none" stroke="midnightblue" d="M585.24,-112.22C592.86,-99.38 604.37,-74.94 595.5,-56 589.46,-43.09 577.69,-32.6 566.68,-25"/>
<polygon fill="midnightblue" stroke="midnightblue" points="568.44,-21.97 558.13,-19.54 564.67,-27.87 568.44,-21.97"/>
</g>
<!-- Node11&#45;&gt;Node4 -->
<g id="edge11" class="edge">
<title>Node11&#45;&gt;Node4</title>
<path fill="none" stroke="midnightblue" d="M510.96,-56.44C471.67,-46.71 407.65,-30.85 366.57,-20.68"/>
<polygon fill="midnightblue" stroke="midnightblue" points="367.2,-17.23 356.65,-18.22 365.51,-24.02 367.2,-17.23"/>
</g>
<!-- Node12 -->
<g id="node12" class="node">
<title>Node12</title>
<g id="a_node12"><a xlink:title=" ">
<polygon fill="white" stroke="#bfbfbf" points="605,-0.5 605,-19.5 652,-19.5 652,-0.5 605,-0.5"/>
<text text-anchor="middle" x="628.5" y="-7.5" font-family="Helvetica,sans-Serif" font-size="10.00">vector</text>
</a>
</g>
</g>
<!-- Node11&#45;&gt;Node12 -->
<g id="edge12" class="edge">
<title>Node11&#45;&gt;Node12</title>
<path fill="none" stroke="midnightblue" d="M558.84,-56.32C571.66,-47.98 591.28,-35.21 606.44,-25.35"/>
<polygon fill="midnightblue" stroke="midnightblue" points="608.72,-28.04 615.2,-19.65 604.91,-22.17 608.72,-28.04"/>
</g>
<!-- Node13 -->
<g id="node13" class="node">
<title>Node13</title>
<g id="a_node13"><a xlink:title=" ">
<polygon fill="white" stroke="#bfbfbf" points="670.5,-0.5 670.5,-19.5 718.5,-19.5 718.5,-0.5 670.5,-0.5"/>
<text text-anchor="middle" x="694.5" y="-7.5" font-family="Helvetica,sans-Serif" font-size="10.00">iosfwd</text>
</a>
</g>
</g>
<!-- Node11&#45;&gt;Node13 -->
<g id="edge13" class="edge">
<title>Node11&#45;&gt;Node13</title>
<path fill="none" stroke="midnightblue" d="M569.11,-56.44C593.96,-47.44 633.27,-33.19 661.25,-23.05"/>
<polygon fill="midnightblue" stroke="midnightblue" points="662.79,-26.21 671,-19.52 660.41,-19.63 662.79,-26.21"/>
</g>
<!-- Node11&#45;&gt;Node14 -->
<g id="edge14" class="edge">
<title>Node11&#45;&gt;Node14</title>
<path fill="none" stroke="midnightblue" d="M544.84,-56.08C544.32,-49.01 543.56,-38.86 542.91,-29.99"/>
<polygon fill="midnightblue" stroke="midnightblue" points="546.38,-29.47 542.15,-19.75 539.4,-29.98 546.38,-29.47"/>
</g>
<!-- Node15&#45;&gt;Node4 -->
<g id="edge19" class="edge">
<title>Node15&#45;&gt;Node4</title>
<path fill="none" stroke="midnightblue" d="M345.03,-56.08C342.19,-48.77 338.07,-38.18 334.54,-29.1"/>
<polygon fill="midnightblue" stroke="midnightblue" points="337.79,-27.8 330.9,-19.75 331.27,-30.34 337.79,-27.8"/>
</g>
<!-- Node15&#45;&gt;Node5 -->
<g id="edge18" class="edge">
<title>Node15&#45;&gt;Node5</title>
<path fill="none" stroke="midnightblue" d="M330.83,-56.32C313.11,-47.62 285.6,-34.12 265.21,-24.11"/>
<polygon fill="midnightblue" stroke="midnightblue" points="266.65,-20.92 256.13,-19.65 263.56,-27.2 266.65,-20.92"/>
</g>
<!-- Node16 -->
<g id="node16" class="node">
<title>Node16</title>
<g id="a_node16"><a xlink:title=" ">
<polygon fill="white" stroke="#bfbfbf" points="374.5,-0.5 374.5,-19.5 406.5,-19.5 406.5,-0.5 374.5,-0.5"/>
<text text-anchor="middle" x="390.5" y="-7.5" font-family="Helvetica,sans-Serif" font-size="10.00">list</text>
</a>
</g>
</g>
<!-- Node15&#45;&gt;Node16 -->
<g id="edge17" class="edge">
<title>Node15&#45;&gt;Node16</title>
<path fill="none" stroke="midnightblue" d="M355.44,-56.08C361.43,-48.38 370.25,-37.03 377.55,-27.65"/>
<polygon fill="midnightblue" stroke="midnightblue" points="380.32,-29.79 383.69,-19.75 374.79,-25.5 380.32,-29.79"/>
</g>
<!-- Node17 -->
<g id="node17" class="node">
<title>Node17</title>
<g id="a_node17"><a xlink:title=" ">
<polygon fill="white" stroke="#bfbfbf" points="425,-0.5 425,-19.5 478,-19.5 478,-0.5 425,-0.5"/>
<text text-anchor="middle" x="451.5" y="-7.5" font-family="Helvetica,sans-Serif" font-size="10.00">tlist.tcc</text>
</a>
</g>
</g>
<!-- Node15&#45;&gt;Node17 -->
<g id="edge20" class="edge">
<title>Node15&#45;&gt;Node17</title>
<path fill="none" stroke="midnightblue" d="M365.05,-56.32C381.49,-47.7 406.93,-34.36 425.97,-24.39"/>
<polygon fill="midnightblue" stroke="midnightblue" points="427.76,-27.4 434.99,-19.65 424.51,-21.2 427.76,-27.4"/>
</g>
<!-- Node18&#45;&gt;Node11 -->
<g id="edge22" class="edge">
<title>Node18&#45;&gt;Node11</title>
<path fill="none" stroke="midnightblue" d="M422.63,-112.44C446.98,-103.44 485.51,-89.19 512.92,-79.05"/>
<polygon fill="midnightblue" stroke="midnightblue" points="514.31,-82.27 522.47,-75.52 511.88,-75.7 514.31,-82.27"/>
</g>
<!-- Node18&#45;&gt;Node14 -->
<g id="edge24" class="edge">
<title>Node18&#45;&gt;Node14</title>
<path fill="none" stroke="midnightblue" d="M406.58,-112.24C417.59,-98.98 439.89,-73.52 462.5,-56 478.41,-43.67 498.07,-32.45 513.8,-24.31"/>
<polygon fill="midnightblue" stroke="midnightblue" points="515.67,-27.28 523.02,-19.65 512.52,-21.04 515.67,-27.28"/>
</g>
<!-- Node18&#45;&gt;Node15 -->
<g id="edge23" class="edge">
<title>Node18&#45;&gt;Node15</title>
<path fill="none" stroke="midnightblue" d="M391.08,-112.08C383.65,-104.22 372.65,-92.57 363.69,-83.08"/>
<polygon fill="midnightblue" stroke="midnightblue" points="366.18,-80.62 356.76,-75.75 361.09,-85.42 366.18,-80.62"/>
</g>
</g>
</svg>
