<?xml version="1.0" encoding="UTF-8" standalone="no"?>
<!DOCTYPE svg PUBLIC "-//W3C//DTD SVG 1.1//EN"
 "http://www.w3.org/Graphics/SVG/1.1/DTD/svg11.dtd">
<!-- Generated by graphviz version 2.43.0 (0)
 -->
<!-- Title: trueaudiofile.h Pages: 1 -->
<svg width="981pt" height="364pt"
 viewBox="0.00 0.00 980.50 364.00" xmlns="http://www.w3.org/2000/svg" xmlns:xlink="http://www.w3.org/1999/xlink">
<g id="graph0" class="graph" transform="scale(1 1) rotate(0) translate(4 360)">
<title>trueaudiofile.h</title>
<polygon fill="white" stroke="transparent" points="-4,4 -4,-360 976.5,-360 976.5,4 -4,4"/>
<!-- Node1 -->
<g id="node1" class="node">
<title>Node1</title>
<g id="a_node1"><a xlink:title=" ">
<polygon fill="#bfbfbf" stroke="black" points="560,-336.5 560,-355.5 647,-355.5 647,-336.5 560,-336.5"/>
<text text-anchor="middle" x="603.5" y="-343.5" font-family="Helvetica,sans-Serif" font-size="10.00">trueaudiofile.h</text>
</a>
</g>
</g>
<!-- Node2 -->
<g id="node2" class="node">
<title>Node2</title>
<g id="a_node2"><a xlink:href="taglib_8h.html" target="_top" xlink:title=" ">
<polygon fill="white" stroke="black" points="497,-56.5 497,-75.5 550,-75.5 550,-56.5 497,-56.5"/>
<text text-anchor="middle" x="523.5" y="-63.5" font-family="Helvetica,sans-Serif" font-size="10.00">taglib.h</text>
</a>
</g>
</g>
<!-- Node1&#45;&gt;Node2 -->
<g id="edge1" class="edge">
<title>Node1&#45;&gt;Node2</title>
<path fill="none" stroke="midnightblue" d="M559.84,-339.03C473.56,-326.01 289.5,-291.61 289.5,-235 289.5,-235 289.5,-235 289.5,-177 289.5,-141.86 305.46,-131.79 334.5,-112 389.63,-74.43 417.09,-90.81 486.67,-76.03"/>
<polygon fill="midnightblue" stroke="midnightblue" points="487.8,-79.36 496.77,-73.73 486.25,-72.53 487.8,-79.36"/>
</g>
<!-- Node6 -->
<g id="node6" class="node">
<title>Node6</title>
<g id="a_node6"><a xlink:href="tfile_8h.html" target="_top" xlink:title=" ">
<polygon fill="white" stroke="black" points="756.5,-280.5 756.5,-299.5 800.5,-299.5 800.5,-280.5 756.5,-280.5"/>
<text text-anchor="middle" x="778.5" y="-287.5" font-family="Helvetica,sans-Serif" font-size="10.00">tfile.h</text>
</a>
</g>
</g>
<!-- Node1&#45;&gt;Node6 -->
<g id="edge5" class="edge">
<title>Node1&#45;&gt;Node6</title>
<path fill="none" stroke="midnightblue" d="M631.23,-336.44C662.67,-326.74 713.84,-310.95 746.83,-300.77"/>
<polygon fill="midnightblue" stroke="midnightblue" points="747.92,-304.1 756.44,-297.81 745.85,-297.41 747.92,-304.1"/>
</g>
<!-- Node25 -->
<g id="node25" class="node">
<title>Node25</title>
<g id="a_node25"><a xlink:href="trueaudioproperties_8h.html" target="_top" xlink:title=" ">
<polygon fill="white" stroke="black" points="542.5,-168.5 542.5,-187.5 664.5,-187.5 664.5,-168.5 542.5,-168.5"/>
<text text-anchor="middle" x="603.5" y="-175.5" font-family="Helvetica,sans-Serif" font-size="10.00">trueaudioproperties.h</text>
</a>
</g>
</g>
<!-- Node1&#45;&gt;Node25 -->
<g id="edge44" class="edge">
<title>Node1&#45;&gt;Node25</title>
<path fill="none" stroke="midnightblue" d="M603.5,-336.08C603.5,-309.95 603.5,-233.21 603.5,-197.58"/>
<polygon fill="midnightblue" stroke="midnightblue" points="607,-197.57 603.5,-187.57 600,-197.57 607,-197.57"/>
</g>
<!-- Node3 -->
<g id="node3" class="node">
<title>Node3</title>
<g id="a_node3"><a xlink:title=" ">
<polygon fill="white" stroke="#bfbfbf" points="507.5,-0.5 507.5,-19.5 595.5,-19.5 595.5,-0.5 507.5,-0.5"/>
<text text-anchor="middle" x="551.5" y="-7.5" font-family="Helvetica,sans-Serif" font-size="10.00">taglib_config.h</text>
</a>
</g>
</g>
<!-- Node2&#45;&gt;Node3 -->
<g id="edge2" class="edge">
<title>Node2&#45;&gt;Node3</title>
<path fill="none" stroke="midnightblue" d="M528.12,-56.08C531.96,-48.69 537.52,-37.95 542.26,-28.81"/>
<polygon fill="midnightblue" stroke="midnightblue" points="545.47,-30.24 546.96,-19.75 539.25,-27.02 545.47,-30.24"/>
</g>
<!-- Node4 -->
<g id="node4" class="node">
<title>Node4</title>
<g id="a_node4"><a xlink:title=" ">
<polygon fill="white" stroke="#bfbfbf" points="417.5,-0.5 417.5,-19.5 489.5,-19.5 489.5,-0.5 417.5,-0.5"/>
<text text-anchor="middle" x="453.5" y="-7.5" font-family="Helvetica,sans-Serif" font-size="10.00">sys/types.h</text>
</a>
</g>
</g>
<!-- Node2&#45;&gt;Node4 -->
<g id="edge3" class="edge">
<title>Node2&#45;&gt;Node4</title>
<path fill="none" stroke="midnightblue" d="M512.25,-56.32C501.7,-48.18 485.7,-35.84 473.06,-26.09"/>
<polygon fill="midnightblue" stroke="midnightblue" points="475.01,-23.17 464.95,-19.83 470.73,-28.71 475.01,-23.17"/>
</g>
<!-- Node5 -->
<g id="node5" class="node">
<title>Node5</title>
<g id="a_node5"><a xlink:title=" ">
<polygon fill="white" stroke="#bfbfbf" points="668.5,-0.5 668.5,-19.5 712.5,-19.5 712.5,-0.5 668.5,-0.5"/>
<text text-anchor="middle" x="690.5" y="-7.5" font-family="Helvetica,sans-Serif" font-size="10.00">string</text>
</a>
</g>
</g>
<!-- Node2&#45;&gt;Node5 -->
<g id="edge4" class="edge">
<title>Node2&#45;&gt;Node5</title>
<path fill="none" stroke="midnightblue" d="M549.96,-56.44C579.51,-46.89 627.3,-31.44 658.81,-21.25"/>
<polygon fill="midnightblue" stroke="midnightblue" points="659.99,-24.54 668.43,-18.14 657.84,-17.88 659.99,-24.54"/>
</g>
<!-- Node6&#45;&gt;Node2 -->
<g id="edge17" class="edge">
<title>Node6&#45;&gt;Node2</title>
<path fill="none" stroke="midnightblue" d="M756.39,-288.9C692.21,-287.55 502.81,-275.9 382.5,-188 352.47,-166.06 324.69,-141.37 347.5,-112 348.05,-111.3 435.74,-89.11 487.12,-76.16"/>
<polygon fill="midnightblue" stroke="midnightblue" points="488.03,-79.54 496.88,-73.7 486.32,-72.75 488.03,-79.54"/>
</g>
<!-- Node7 -->
<g id="node7" class="node">
<title>Node7</title>
<g id="a_node7"><a xlink:href="tbytevector_8h.html" target="_top" xlink:title=" ">
<polygon fill="white" stroke="black" points="788,-112.5 788,-131.5 869,-131.5 869,-112.5 788,-112.5"/>
<text text-anchor="middle" x="828.5" y="-119.5" font-family="Helvetica,sans-Serif" font-size="10.00">tbytevector.h</text>
</a>
</g>
</g>
<!-- Node6&#45;&gt;Node7 -->
<g id="edge6" class="edge">
<title>Node6&#45;&gt;Node7</title>
<path fill="none" stroke="midnightblue" d="M791.65,-280.35C813.76,-264.91 857.63,-230.24 874.5,-188 882.07,-169.04 865.61,-150.33 850.31,-137.89"/>
<polygon fill="midnightblue" stroke="midnightblue" points="852.18,-134.91 842.1,-131.66 847.95,-140.49 852.18,-134.91"/>
</g>
<!-- Node11 -->
<g id="node11" class="node">
<title>Node11</title>
<g id="a_node11"><a xlink:href="taglib__export_8h.html" target="_top" xlink:title=" ">
<polygon fill="white" stroke="black" points="882.5,-56.5 882.5,-75.5 972.5,-75.5 972.5,-56.5 882.5,-56.5"/>
<text text-anchor="middle" x="927.5" y="-63.5" font-family="Helvetica,sans-Serif" font-size="10.00">taglib_export.h</text>
</a>
</g>
</g>
<!-- Node6&#45;&gt;Node11 -->
<g id="edge16" class="edge">
<title>Node6&#45;&gt;Node11</title>
<path fill="none" stroke="midnightblue" d="M798.36,-280.35C815.2,-272.42 839.45,-259.56 857.5,-244 905.45,-202.67 924.81,-191.83 945.5,-132 950.99,-116.13 944.68,-97.64 938.06,-84.44"/>
<polygon fill="midnightblue" stroke="midnightblue" points="941.03,-82.58 933.14,-75.52 934.91,-85.96 941.03,-82.58"/>
</g>
<!-- Node12 -->
<g id="node12" class="node">
<title>Node12</title>
<g id="a_node12"><a xlink:href="tiostream_8h.html" target="_top" xlink:title=" ">
<polygon fill="white" stroke="black" points="792,-168.5 792,-187.5 865,-187.5 865,-168.5 792,-168.5"/>
<text text-anchor="middle" x="828.5" y="-175.5" font-family="Helvetica,sans-Serif" font-size="10.00">tiostream.h</text>
</a>
</g>
</g>
<!-- Node6&#45;&gt;Node12 -->
<g id="edge12" class="edge">
<title>Node6&#45;&gt;Node12</title>
<path fill="none" stroke="midnightblue" d="M782.42,-280.37C790.57,-262.46 809.44,-220.92 820.34,-196.95"/>
<polygon fill="midnightblue" stroke="midnightblue" points="823.64,-198.14 824.59,-187.59 817.27,-195.25 823.64,-198.14"/>
</g>
<!-- Node13 -->
<g id="node13" class="node">
<title>Node13</title>
<g id="a_node13"><a xlink:href="tag_8h.html" target="_top" xlink:title=" ">
<polygon fill="white" stroke="black" points="725,-224.5 725,-243.5 766,-243.5 766,-224.5 725,-224.5"/>
<text text-anchor="middle" x="745.5" y="-231.5" font-family="Helvetica,sans-Serif" font-size="10.00">tag.h</text>
</a>
</g>
</g>
<!-- Node6&#45;&gt;Node13 -->
<g id="edge18" class="edge">
<title>Node6&#45;&gt;Node13</title>
<path fill="none" stroke="midnightblue" d="M773.05,-280.08C768.49,-272.61 761.83,-261.72 756.21,-252.52"/>
<polygon fill="midnightblue" stroke="midnightblue" points="759.05,-250.46 750.85,-243.75 753.08,-254.11 759.05,-250.46"/>
</g>
<!-- Node7&#45;&gt;Node2 -->
<g id="edge10" class="edge">
<title>Node7&#45;&gt;Node2</title>
<path fill="none" stroke="midnightblue" d="M788,-113.83C728.35,-103.27 617.76,-83.69 560.3,-73.52"/>
<polygon fill="midnightblue" stroke="midnightblue" points="560.68,-70.03 550.22,-71.73 559.46,-76.92 560.68,-70.03"/>
</g>
<!-- Node8 -->
<g id="node8" class="node">
<title>Node8</title>
<g id="a_node8"><a xlink:title=" ">
<polygon fill="white" stroke="#bfbfbf" points="738.5,-56.5 738.5,-75.5 798.5,-75.5 798.5,-56.5 738.5,-56.5"/>
<text text-anchor="middle" x="768.5" y="-63.5" font-family="Helvetica,sans-Serif" font-size="10.00">iostream</text>
</a>
</g>
</g>
<!-- Node7&#45;&gt;Node8 -->
<g id="edge7" class="edge">
<title>Node7&#45;&gt;Node8</title>
<path fill="none" stroke="midnightblue" d="M818.86,-112.32C809.99,-104.34 796.63,-92.31 785.89,-82.65"/>
<polygon fill="midnightblue" stroke="midnightblue" points="788.09,-79.92 778.32,-75.83 783.41,-85.13 788.09,-79.92"/>
</g>
<!-- Node9 -->
<g id="node9" class="node">
<title>Node9</title>
<g id="a_node9"><a xlink:title=" ">
<polygon fill="white" stroke="#bfbfbf" points="420.5,-56.5 420.5,-75.5 478.5,-75.5 478.5,-56.5 420.5,-56.5"/>
<text text-anchor="middle" x="449.5" y="-63.5" font-family="Helvetica,sans-Serif" font-size="10.00">memory</text>
</a>
</g>
</g>
<!-- Node7&#45;&gt;Node9 -->
<g id="edge8" class="edge">
<title>Node7&#45;&gt;Node9</title>
<path fill="none" stroke="midnightblue" d="M787.74,-116.87C725.55,-110.3 603.06,-96.27 488.79,-75.88"/>
<polygon fill="midnightblue" stroke="midnightblue" points="489.29,-72.41 478.83,-74.08 488.04,-79.3 489.29,-72.41"/>
</g>
<!-- Node10 -->
<g id="node10" class="node">
<title>Node10</title>
<g id="a_node10"><a xlink:title=" ">
<polygon fill="white" stroke="#bfbfbf" points="817,-56.5 817,-75.5 864,-75.5 864,-56.5 817,-56.5"/>
<text text-anchor="middle" x="840.5" y="-63.5" font-family="Helvetica,sans-Serif" font-size="10.00">vector</text>
</a>
</g>
</g>
<!-- Node7&#45;&gt;Node10 -->
<g id="edge9" class="edge">
<title>Node7&#45;&gt;Node10</title>
<path fill="none" stroke="midnightblue" d="M830.48,-112.08C832.07,-104.93 834.36,-94.64 836.35,-85.69"/>
<polygon fill="midnightblue" stroke="midnightblue" points="839.8,-86.27 838.56,-75.75 832.97,-84.75 839.8,-86.27"/>
</g>
<!-- Node7&#45;&gt;Node11 -->
<g id="edge11" class="edge">
<title>Node7&#45;&gt;Node11</title>
<path fill="none" stroke="midnightblue" d="M844.41,-112.32C860.14,-103.74 884.44,-90.49 902.71,-80.52"/>
<polygon fill="midnightblue" stroke="midnightblue" points="904.53,-83.52 911.63,-75.65 901.18,-77.37 904.53,-83.52"/>
</g>
<!-- Node12&#45;&gt;Node2 -->
<g id="edge15" class="edge">
<title>Node12&#45;&gt;Node2</title>
<path fill="none" stroke="midnightblue" d="M804.82,-168.46C750.99,-149.05 619.3,-101.55 557.09,-79.12"/>
<polygon fill="midnightblue" stroke="midnightblue" points="557.97,-75.71 547.37,-75.61 555.59,-82.3 557.97,-75.71"/>
</g>
<!-- Node12&#45;&gt;Node7 -->
<g id="edge13" class="edge">
<title>Node12&#45;&gt;Node7</title>
<path fill="none" stroke="midnightblue" d="M828.5,-168.08C828.5,-161.01 828.5,-150.86 828.5,-141.99"/>
<polygon fill="midnightblue" stroke="midnightblue" points="832,-141.75 828.5,-131.75 825,-141.75 832,-141.75"/>
</g>
<!-- Node12&#45;&gt;Node11 -->
<g id="edge14" class="edge">
<title>Node12&#45;&gt;Node11</title>
<path fill="none" stroke="midnightblue" d="M856.73,-168.39C874.97,-161.41 897.77,-149.77 911.5,-132 921.71,-118.78 925.5,-99.91 926.86,-85.91"/>
<polygon fill="midnightblue" stroke="midnightblue" points="930.38,-85.72 927.52,-75.52 923.39,-85.28 930.38,-85.72"/>
</g>
<!-- Node13&#45;&gt;Node11 -->
<g id="edge19" class="edge">
<title>Node13&#45;&gt;Node11</title>
<path fill="none" stroke="midnightblue" d="M766.46,-228.81C793.12,-222.8 839.84,-209.97 874.5,-188 903.96,-169.32 916.3,-164.29 929.5,-132 935.51,-117.3 934.31,-99.14 932.01,-85.75"/>
<polygon fill="midnightblue" stroke="midnightblue" points="935.41,-84.9 929.96,-75.81 928.56,-86.31 935.41,-84.9"/>
</g>
<!-- Node14 -->
<g id="node14" class="node">
<title>Node14</title>
<g id="a_node14"><a xlink:href="tstring_8h.html" target="_top" xlink:title=" ">
<polygon fill="white" stroke="black" points="717,-168.5 717,-187.5 774,-187.5 774,-168.5 717,-168.5"/>
<text text-anchor="middle" x="745.5" y="-175.5" font-family="Helvetica,sans-Serif" font-size="10.00">tstring.h</text>
</a>
</g>
</g>
<!-- Node13&#45;&gt;Node14 -->
<g id="edge20" class="edge">
<title>Node13&#45;&gt;Node14</title>
<path fill="none" stroke="midnightblue" d="M745.5,-224.08C745.5,-217.01 745.5,-206.86 745.5,-197.99"/>
<polygon fill="midnightblue" stroke="midnightblue" points="749,-197.75 745.5,-187.75 742,-197.75 749,-197.75"/>
</g>
<!-- Node15 -->
<g id="node15" class="node">
<title>Node15</title>
<g id="a_node15"><a xlink:href="tlist_8h.html" target="_top" xlink:title=" ">
<polygon fill="white" stroke="black" points="147.5,-112.5 147.5,-131.5 191.5,-131.5 191.5,-112.5 147.5,-112.5"/>
<text text-anchor="middle" x="169.5" y="-119.5" font-family="Helvetica,sans-Serif" font-size="10.00">tlist.h</text>
</a>
</g>
</g>
<!-- Node13&#45;&gt;Node15 -->
<g id="edge26" class="edge">
<title>Node13&#45;&gt;Node15</title>
<path fill="none" stroke="midnightblue" d="M724.83,-231.69C669.06,-227.9 511.07,-215.37 382.5,-188 316.82,-174.02 242.22,-149.09 201.04,-134.5"/>
<polygon fill="midnightblue" stroke="midnightblue" points="202.15,-131.18 191.55,-131.12 199.79,-137.78 202.15,-131.18"/>
</g>
<!-- Node19 -->
<g id="node19" class="node">
<title>Node19</title>
<g id="a_node19"><a xlink:href="tvariant_8h.html" target="_top" xlink:title=" ">
<polygon fill="white" stroke="black" points="391.5,-168.5 391.5,-187.5 455.5,-187.5 455.5,-168.5 391.5,-168.5"/>
<text text-anchor="middle" x="423.5" y="-175.5" font-family="Helvetica,sans-Serif" font-size="10.00">tvariant.h</text>
</a>
</g>
</g>
<!-- Node13&#45;&gt;Node19 -->
<g id="edge32" class="edge">
<title>Node13&#45;&gt;Node19</title>
<path fill="none" stroke="midnightblue" d="M724.87,-229.54C672.91,-220.83 535.87,-197.84 465.9,-186.11"/>
<polygon fill="midnightblue" stroke="midnightblue" points="466.12,-182.6 455.68,-184.4 464.96,-189.5 466.12,-182.6"/>
</g>
<!-- Node14&#45;&gt;Node2 -->
<g id="edge25" class="edge">
<title>Node14&#45;&gt;Node2</title>
<path fill="none" stroke="midnightblue" d="M720.53,-168.5C697.08,-160.2 661.26,-146.7 631.5,-132 600.22,-116.55 566.02,-95.14 544.66,-81.18"/>
<polygon fill="midnightblue" stroke="midnightblue" points="546.35,-78.1 536.08,-75.51 542.5,-83.94 546.35,-78.1"/>
</g>
<!-- Node14&#45;&gt;Node5 -->
<g id="edge22" class="edge">
<title>Node14&#45;&gt;Node5</title>
<path fill="none" stroke="midnightblue" d="M742.54,-168.08C733.85,-141.83 708.24,-64.55 696.5,-29.12"/>
<polygon fill="midnightblue" stroke="midnightblue" points="699.81,-27.96 693.34,-19.57 693.16,-30.16 699.81,-27.96"/>
</g>
<!-- Node14&#45;&gt;Node7 -->
<g id="edge23" class="edge">
<title>Node14&#45;&gt;Node7</title>
<path fill="none" stroke="midnightblue" d="M758.84,-168.32C771.66,-159.98 791.28,-147.21 806.44,-137.35"/>
<polygon fill="midnightblue" stroke="midnightblue" points="808.72,-140.04 815.2,-131.65 804.91,-134.17 808.72,-140.04"/>
</g>
<!-- Node14&#45;&gt;Node8 -->
<g id="edge21" class="edge">
<title>Node14&#45;&gt;Node8</title>
<path fill="none" stroke="midnightblue" d="M747.3,-168.37C751.02,-150.62 759.58,-109.67 764.61,-85.6"/>
<polygon fill="midnightblue" stroke="midnightblue" points="768.08,-86.1 766.7,-75.59 761.23,-84.66 768.08,-86.1"/>
</g>
<!-- Node14&#45;&gt;Node11 -->
<g id="edge24" class="edge">
<title>Node14&#45;&gt;Node11</title>
<path fill="none" stroke="midnightblue" d="M774.16,-169.45C807.94,-160.18 861.6,-144.2 878.5,-132 895.63,-119.63 909.46,-99.54 918.01,-84.97"/>
<polygon fill="midnightblue" stroke="midnightblue" points="921.24,-86.36 923.05,-75.92 915.13,-82.95 921.24,-86.36"/>
</g>
<!-- Node15&#45;&gt;Node2 -->
<g id="edge30" class="edge">
<title>Node15&#45;&gt;Node2</title>
<path fill="none" stroke="midnightblue" d="M191.78,-114.28C195.02,-113.43 198.33,-112.64 201.5,-112 323.88,-87.23 359.76,-98.94 486.73,-75.91"/>
<polygon fill="midnightblue" stroke="midnightblue" points="487.65,-79.3 496.84,-74.04 486.37,-72.42 487.65,-79.3"/>
</g>
<!-- Node15&#45;&gt;Node9 -->
<g id="edge29" class="edge">
<title>Node15&#45;&gt;Node9</title>
<path fill="none" stroke="midnightblue" d="M191.8,-114.41C195.04,-113.54 198.35,-112.71 201.5,-112 290.8,-91.84 316.99,-94.7 410.61,-76.07"/>
<polygon fill="midnightblue" stroke="midnightblue" points="411.39,-79.48 420.5,-74.07 410,-72.62 411.39,-79.48"/>
</g>
<!-- Node16 -->
<g id="node16" class="node">
<title>Node16</title>
<g id="a_node16"><a xlink:title=" ">
<polygon fill="white" stroke="#bfbfbf" points="71.5,-56.5 71.5,-75.5 103.5,-75.5 103.5,-56.5 71.5,-56.5"/>
<text text-anchor="middle" x="87.5" y="-63.5" font-family="Helvetica,sans-Serif" font-size="10.00">list</text>
</a>
</g>
</g>
<!-- Node15&#45;&gt;Node16 -->
<g id="edge27" class="edge">
<title>Node15&#45;&gt;Node16</title>
<path fill="none" stroke="midnightblue" d="M156.33,-112.32C143.65,-103.98 124.27,-91.21 109.29,-81.35"/>
<polygon fill="midnightblue" stroke="midnightblue" points="110.92,-78.23 100.64,-75.65 107.07,-84.08 110.92,-78.23"/>
</g>
<!-- Node17 -->
<g id="node17" class="node">
<title>Node17</title>
<g id="a_node17"><a xlink:title=" ">
<polygon fill="white" stroke="#bfbfbf" points="122,-56.5 122,-75.5 205,-75.5 205,-56.5 122,-56.5"/>
<text text-anchor="middle" x="163.5" y="-63.5" font-family="Helvetica,sans-Serif" font-size="10.00">initializer_list</text>
</a>
</g>
</g>
<!-- Node15&#45;&gt;Node17 -->
<g id="edge28" class="edge">
<title>Node15&#45;&gt;Node17</title>
<path fill="none" stroke="midnightblue" d="M168.51,-112.08C167.71,-104.93 166.57,-94.64 165.58,-85.69"/>
<polygon fill="midnightblue" stroke="midnightblue" points="169.06,-85.3 164.47,-75.75 162.1,-86.08 169.06,-85.3"/>
</g>
<!-- Node18 -->
<g id="node18" class="node">
<title>Node18</title>
<g id="a_node18"><a xlink:title=" ">
<polygon fill="white" stroke="#bfbfbf" points="0,-56.5 0,-75.5 53,-75.5 53,-56.5 0,-56.5"/>
<text text-anchor="middle" x="26.5" y="-63.5" font-family="Helvetica,sans-Serif" font-size="10.00">tlist.tcc</text>
</a>
</g>
</g>
<!-- Node15&#45;&gt;Node18 -->
<g id="edge31" class="edge">
<title>Node15&#45;&gt;Node18</title>
<path fill="none" stroke="midnightblue" d="M147.47,-112.68C123.75,-103.72 85.77,-89.38 58.7,-79.16"/>
<polygon fill="midnightblue" stroke="midnightblue" points="59.86,-75.86 49.26,-75.6 57.38,-82.4 59.86,-75.86"/>
</g>
<!-- Node19&#45;&gt;Node8 -->
<g id="edge34" class="edge">
<title>Node19&#45;&gt;Node8</title>
<path fill="none" stroke="midnightblue" d="M450.28,-168.46C511.55,-148.93 661.98,-100.96 731.8,-78.7"/>
<polygon fill="midnightblue" stroke="midnightblue" points="733.03,-81.98 741.49,-75.61 730.9,-75.31 733.03,-81.98"/>
</g>
<!-- Node19&#45;&gt;Node11 -->
<g id="edge43" class="edge">
<title>Node19&#45;&gt;Node11</title>
<path fill="none" stroke="midnightblue" d="M455.79,-169.95C541.69,-151.21 776.17,-100.03 878.57,-77.68"/>
<polygon fill="midnightblue" stroke="midnightblue" points="879.32,-81.1 888.35,-75.55 877.83,-74.26 879.32,-81.1"/>
</g>
<!-- Node19&#45;&gt;Node15 -->
<g id="edge35" class="edge">
<title>Node19&#45;&gt;Node15</title>
<path fill="none" stroke="midnightblue" d="M391.35,-171.26C349.89,-163.68 275.35,-149.5 201.73,-131.9"/>
<polygon fill="midnightblue" stroke="midnightblue" points="202.37,-128.45 191.82,-129.51 200.72,-135.25 202.37,-128.45"/>
</g>
<!-- Node20 -->
<g id="node20" class="node">
<title>Node20</title>
<g id="a_node20"><a xlink:title=" ">
<polygon fill="white" stroke="#bfbfbf" points="356,-112.5 356,-131.5 421,-131.5 421,-112.5 356,-112.5"/>
<text text-anchor="middle" x="388.5" y="-119.5" font-family="Helvetica,sans-Serif" font-size="10.00">memory.h</text>
</a>
</g>
</g>
<!-- Node19&#45;&gt;Node20 -->
<g id="edge33" class="edge">
<title>Node19&#45;&gt;Node20</title>
<path fill="none" stroke="midnightblue" d="M417.72,-168.08C412.83,-160.53 405.67,-149.49 399.67,-140.23"/>
<polygon fill="midnightblue" stroke="midnightblue" points="402.55,-138.24 394.17,-131.75 396.67,-142.05 402.55,-138.24"/>
</g>
<!-- Node21 -->
<g id="node21" class="node">
<title>Node21</title>
<g id="a_node21"><a xlink:href="tmap_8h.html" target="_top" xlink:title=" ">
<polygon fill="white" stroke="black" points="210,-112.5 210,-131.5 261,-131.5 261,-112.5 210,-112.5"/>
<text text-anchor="middle" x="235.5" y="-119.5" font-family="Helvetica,sans-Serif" font-size="10.00">tmap.h</text>
</a>
</g>
</g>
<!-- Node19&#45;&gt;Node21 -->
<g id="edge36" class="edge">
<title>Node19&#45;&gt;Node21</title>
<path fill="none" stroke="midnightblue" d="M393.71,-168.44C360.45,-158.89 306.63,-143.43 271.15,-133.24"/>
<polygon fill="midnightblue" stroke="midnightblue" points="271.8,-129.79 261.22,-130.39 269.87,-136.51 271.8,-129.79"/>
</g>
<!-- Node21&#45;&gt;Node2 -->
<g id="edge41" class="edge">
<title>Node21&#45;&gt;Node2</title>
<path fill="none" stroke="midnightblue" d="M261.28,-114.99C266,-113.95 270.89,-112.91 275.5,-112 366.15,-94.12 392.25,-95.49 486.82,-76"/>
<polygon fill="midnightblue" stroke="midnightblue" points="487.74,-79.38 496.82,-73.91 486.31,-72.53 487.74,-79.38"/>
</g>
<!-- Node21&#45;&gt;Node9 -->
<g id="edge38" class="edge">
<title>Node21&#45;&gt;Node9</title>
<path fill="none" stroke="midnightblue" d="M261.31,-114.49C298.36,-105.14 366.92,-87.84 410.26,-76.9"/>
<polygon fill="midnightblue" stroke="midnightblue" points="411.33,-80.24 420.17,-74.4 409.62,-73.45 411.33,-80.24"/>
</g>
<!-- Node21&#45;&gt;Node17 -->
<g id="edge39" class="edge">
<title>Node21&#45;&gt;Node17</title>
<path fill="none" stroke="midnightblue" d="M223.93,-112.32C213.08,-104.18 196.62,-91.84 183.62,-82.09"/>
<polygon fill="midnightblue" stroke="midnightblue" points="185.38,-79.03 175.28,-75.83 181.18,-84.63 185.38,-79.03"/>
</g>
<!-- Node22 -->
<g id="node22" class="node">
<title>Node22</title>
<g id="a_node22"><a xlink:title=" ">
<polygon fill="white" stroke="#bfbfbf" points="223.5,-56.5 223.5,-75.5 261.5,-75.5 261.5,-56.5 223.5,-56.5"/>
<text text-anchor="middle" x="242.5" y="-63.5" font-family="Helvetica,sans-Serif" font-size="10.00">map</text>
</a>
</g>
</g>
<!-- Node21&#45;&gt;Node22 -->
<g id="edge37" class="edge">
<title>Node21&#45;&gt;Node22</title>
<path fill="none" stroke="midnightblue" d="M236.66,-112.08C237.58,-104.93 238.92,-94.64 240.08,-85.69"/>
<polygon fill="midnightblue" stroke="midnightblue" points="243.55,-86.12 241.37,-75.75 236.61,-85.22 243.55,-86.12"/>
</g>
<!-- Node23 -->
<g id="node23" class="node">
<title>Node23</title>
<g id="a_node23"><a xlink:title=" ">
<polygon fill="white" stroke="#bfbfbf" points="280,-56.5 280,-75.5 325,-75.5 325,-56.5 280,-56.5"/>
<text text-anchor="middle" x="302.5" y="-63.5" font-family="Helvetica,sans-Serif" font-size="10.00">utility</text>
</a>
</g>
</g>
<!-- Node21&#45;&gt;Node23 -->
<g id="edge40" class="edge">
<title>Node21&#45;&gt;Node23</title>
<path fill="none" stroke="midnightblue" d="M246.26,-112.32C256.27,-104.26 271.39,-92.08 283.43,-82.37"/>
<polygon fill="midnightblue" stroke="midnightblue" points="285.95,-84.83 291.54,-75.83 281.56,-79.38 285.95,-84.83"/>
</g>
<!-- Node24 -->
<g id="node24" class="node">
<title>Node24</title>
<g id="a_node24"><a xlink:title=" ">
<polygon fill="white" stroke="#bfbfbf" points="343,-56.5 343,-75.5 402,-75.5 402,-56.5 343,-56.5"/>
<text text-anchor="middle" x="372.5" y="-63.5" font-family="Helvetica,sans-Serif" font-size="10.00">tmap.tcc</text>
</a>
</g>
</g>
<!-- Node21&#45;&gt;Node24 -->
<g id="edge42" class="edge">
<title>Node21&#45;&gt;Node24</title>
<path fill="none" stroke="midnightblue" d="M257.21,-112.44C279.85,-103.52 315.57,-89.44 341.25,-79.32"/>
<polygon fill="midnightblue" stroke="midnightblue" points="342.87,-82.44 350.89,-75.52 340.31,-75.93 342.87,-82.44"/>
</g>
<!-- Node25&#45;&gt;Node7 -->
<g id="edge45" class="edge">
<title>Node25&#45;&gt;Node7</title>
<path fill="none" stroke="midnightblue" d="M639.15,-168.44C678.16,-159.08 740.77,-144.06 783.22,-133.87"/>
<polygon fill="midnightblue" stroke="midnightblue" points="784.11,-137.25 793.01,-131.52 782.47,-130.45 784.11,-137.25"/>
</g>
<!-- Node26 -->
<g id="node26" class="node">
<title>Node26</title>
<g id="a_node26"><a xlink:href="audioproperties_8h.html" target="_top" xlink:title=" ">
<polygon fill="white" stroke="black" points="439.5,-112.5 439.5,-131.5 541.5,-131.5 541.5,-112.5 439.5,-112.5"/>
<text text-anchor="middle" x="490.5" y="-119.5" font-family="Helvetica,sans-Serif" font-size="10.00">audioproperties.h</text>
</a>
</g>
</g>
<!-- Node25&#45;&gt;Node26 -->
<g id="edge46" class="edge">
<title>Node25&#45;&gt;Node26</title>
<path fill="none" stroke="midnightblue" d="M585.59,-168.44C567.25,-159.68 538.49,-145.94 517.41,-135.86"/>
<polygon fill="midnightblue" stroke="midnightblue" points="518.85,-132.67 508.32,-131.52 515.83,-138.99 518.85,-132.67"/>
</g>
<!-- Node26&#45;&gt;Node2 -->
<g id="edge48" class="edge">
<title>Node26&#45;&gt;Node2</title>
<path fill="none" stroke="midnightblue" d="M495.95,-112.08C500.51,-104.61 507.17,-93.72 512.79,-84.52"/>
<polygon fill="midnightblue" stroke="midnightblue" points="515.92,-86.11 518.15,-75.75 509.95,-82.46 515.92,-86.11"/>
</g>
<!-- Node26&#45;&gt;Node9 -->
<g id="edge47" class="edge">
<title>Node26&#45;&gt;Node9</title>
<path fill="none" stroke="midnightblue" d="M483.73,-112.08C477.94,-104.46 469.44,-93.26 462.36,-83.94"/>
<polygon fill="midnightblue" stroke="midnightblue" points="464.98,-81.6 456.14,-75.75 459.4,-85.83 464.98,-81.6"/>
</g>
<!-- Node26&#45;&gt;Node11 -->
<g id="edge49" class="edge">
<title>Node26&#45;&gt;Node11</title>
<path fill="none" stroke="midnightblue" d="M541.71,-115.78C613.32,-108.3 747.69,-93.62 872.34,-76.11"/>
<polygon fill="midnightblue" stroke="midnightblue" points="873.03,-79.54 882.44,-74.68 872.05,-72.61 873.03,-79.54"/>
</g>
</g>
</svg>
