<?xml version="1.0" encoding="UTF-8" standalone="no"?>
<!DOCTYPE svg PUBLIC "-//W3C//DTD SVG 1.1//EN"
 "http://www.w3.org/Graphics/SVG/1.1/DTD/svg11.dtd">
<!-- Generated by graphviz version 2.43.0 (0)
 -->
<!-- Title: trueaudiofile.h Pages: 1 -->
<svg width="1041pt" height="308pt"
 viewBox="0.00 0.00 1041.00 308.00" xmlns="http://www.w3.org/2000/svg" xmlns:xlink="http://www.w3.org/1999/xlink">
<g id="graph0" class="graph" transform="scale(1 1) rotate(0) translate(4 304)">
<title>trueaudiofile.h</title>
<polygon fill="white" stroke="transparent" points="-4,4 -4,-304 1037,-304 1037,4 -4,4"/>
<!-- Node1 -->
<g id="node1" class="node">
<title>Node1</title>
<g id="a_node1"><a xlink:title=" ">
<polygon fill="#bfbfbf" stroke="black" points="711.5,-280.5 711.5,-299.5 798.5,-299.5 798.5,-280.5 711.5,-280.5"/>
<text text-anchor="middle" x="755" y="-287.5" font-family="Helvetica,sans-Serif" font-size="10.00">trueaudiofile.h</text>
</a>
</g>
</g>
<!-- Node2 -->
<g id="node2" class="node">
<title>Node2</title>
<g id="a_node2"><a xlink:href="taglib_8h.html" target="_top" xlink:title=" ">
<polygon fill="white" stroke="black" points="970.5,-56.5 970.5,-75.5 1023.5,-75.5 1023.5,-56.5 970.5,-56.5"/>
<text text-anchor="middle" x="997" y="-63.5" font-family="Helvetica,sans-Serif" font-size="10.00">taglib.h</text>
</a>
</g>
</g>
<!-- Node1&#45;&gt;Node2 -->
<g id="edge1" class="edge">
<title>Node1&#45;&gt;Node2</title>
<path fill="none" stroke="midnightblue" d="M788.81,-280.38C846.75,-263.46 962.47,-219.67 1001,-132 1007.4,-117.44 1005.56,-99.27 1002.6,-85.84"/>
<polygon fill="midnightblue" stroke="midnightblue" points="1005.91,-84.66 1000.01,-75.86 999.14,-86.42 1005.91,-84.66"/>
</g>
<!-- Node4 -->
<g id="node4" class="node">
<title>Node4</title>
<g id="a_node4"><a xlink:href="tfile_8h.html" target="_top" xlink:title=" ">
<polygon fill="white" stroke="black" points="733,-224.5 733,-243.5 777,-243.5 777,-224.5 733,-224.5"/>
<text text-anchor="middle" x="755" y="-231.5" font-family="Helvetica,sans-Serif" font-size="10.00">tfile.h</text>
</a>
</g>
</g>
<!-- Node1&#45;&gt;Node4 -->
<g id="edge3" class="edge">
<title>Node1&#45;&gt;Node4</title>
<path fill="none" stroke="midnightblue" d="M755,-280.08C755,-273.01 755,-262.86 755,-253.99"/>
<polygon fill="midnightblue" stroke="midnightblue" points="758.5,-253.75 755,-243.75 751.5,-253.75 758.5,-253.75"/>
</g>
<!-- Node23 -->
<g id="node23" class="node">
<title>Node23</title>
<g id="a_node23"><a xlink:href="trueaudioproperties_8h.html" target="_top" xlink:title=" ">
<polygon fill="white" stroke="black" points="605,-168.5 605,-187.5 727,-187.5 727,-168.5 605,-168.5"/>
<text text-anchor="middle" x="666" y="-175.5" font-family="Helvetica,sans-Serif" font-size="10.00">trueaudioproperties.h</text>
</a>
</g>
</g>
<!-- Node1&#45;&gt;Node23 -->
<g id="edge36" class="edge">
<title>Node1&#45;&gt;Node23</title>
<path fill="none" stroke="midnightblue" d="M748.02,-280.37C733.26,-262.14 698.71,-219.43 679.49,-195.68"/>
<polygon fill="midnightblue" stroke="midnightblue" points="681.96,-193.16 672.95,-187.59 676.52,-197.57 681.96,-193.16"/>
</g>
<!-- Node3 -->
<g id="node3" class="node">
<title>Node3</title>
<g id="a_node3"><a xlink:title=" ">
<polygon fill="white" stroke="#bfbfbf" points="961,-0.5 961,-19.5 1033,-19.5 1033,-0.5 961,-0.5"/>
<text text-anchor="middle" x="997" y="-7.5" font-family="Helvetica,sans-Serif" font-size="10.00">sys/types.h</text>
</a>
</g>
</g>
<!-- Node2&#45;&gt;Node3 -->
<g id="edge2" class="edge">
<title>Node2&#45;&gt;Node3</title>
<path fill="none" stroke="midnightblue" d="M997,-56.08C997,-49.01 997,-38.86 997,-29.99"/>
<polygon fill="midnightblue" stroke="midnightblue" points="1000.5,-29.75 997,-19.75 993.5,-29.75 1000.5,-29.75"/>
</g>
<!-- Node4&#45;&gt;Node2 -->
<g id="edge14" class="edge">
<title>Node4&#45;&gt;Node2</title>
<path fill="none" stroke="midnightblue" d="M777.23,-229.96C823.33,-222.43 929.51,-198.43 983,-132 993.51,-118.95 996.6,-99.79 997.31,-85.66"/>
<polygon fill="midnightblue" stroke="midnightblue" points="1000.81,-85.66 997.46,-75.61 993.81,-85.55 1000.81,-85.66"/>
</g>
<!-- Node5 -->
<g id="node5" class="node">
<title>Node5</title>
<g id="a_node5"><a xlink:href="tbytevector_8h.html" target="_top" xlink:title=" ">
<polygon fill="white" stroke="black" points="504.5,-56.5 504.5,-75.5 585.5,-75.5 585.5,-56.5 504.5,-56.5"/>
<text text-anchor="middle" x="545" y="-63.5" font-family="Helvetica,sans-Serif" font-size="10.00">tbytevector.h</text>
</a>
</g>
</g>
<!-- Node4&#45;&gt;Node5 -->
<g id="edge4" class="edge">
<title>Node4&#45;&gt;Node5</title>
<path fill="none" stroke="midnightblue" d="M732.81,-231.87C682.2,-228.78 560.71,-218.31 536,-188 512.01,-158.59 526.25,-110.64 536.79,-84.82"/>
<polygon fill="midnightblue" stroke="midnightblue" points="540.06,-86.08 540.82,-75.51 533.63,-83.29 540.06,-86.08"/>
</g>
<!-- Node9 -->
<g id="node9" class="node">
<title>Node9</title>
<g id="a_node9"><a xlink:href="taglib__export_8h.html" target="_top" xlink:title=" ">
<polygon fill="white" stroke="black" points="669,-0.5 669,-19.5 759,-19.5 759,-0.5 669,-0.5"/>
<text text-anchor="middle" x="714" y="-7.5" font-family="Helvetica,sans-Serif" font-size="10.00">taglib_export.h</text>
</a>
</g>
</g>
<!-- Node4&#45;&gt;Node9 -->
<g id="edge13" class="edge">
<title>Node4&#45;&gt;Node9</title>
<path fill="none" stroke="midnightblue" d="M753.39,-224.3C747.36,-191.63 725.98,-75.87 717.5,-29.96"/>
<polygon fill="midnightblue" stroke="midnightblue" points="720.9,-29.08 715.64,-19.88 714.02,-30.35 720.9,-29.08"/>
</g>
<!-- Node10 -->
<g id="node10" class="node">
<title>Node10</title>
<g id="a_node10"><a xlink:href="tiostream_8h.html" target="_top" xlink:title=" ">
<polygon fill="white" stroke="black" points="900.5,-112.5 900.5,-131.5 973.5,-131.5 973.5,-112.5 900.5,-112.5"/>
<text text-anchor="middle" x="937" y="-119.5" font-family="Helvetica,sans-Serif" font-size="10.00">tiostream.h</text>
</a>
</g>
</g>
<!-- Node4&#45;&gt;Node10 -->
<g id="edge9" class="edge">
<title>Node4&#45;&gt;Node10</title>
<path fill="none" stroke="midnightblue" d="M769.28,-224.37C800.65,-205.41 875.78,-160 913.93,-136.94"/>
<polygon fill="midnightblue" stroke="midnightblue" points="916.04,-139.76 922.79,-131.59 912.42,-133.77 916.04,-139.76"/>
</g>
<!-- Node11 -->
<g id="node11" class="node">
<title>Node11</title>
<g id="a_node11"><a xlink:href="tag_8h.html" target="_top" xlink:title=" ">
<polygon fill="white" stroke="black" points="545.5,-168.5 545.5,-187.5 586.5,-187.5 586.5,-168.5 545.5,-168.5"/>
<text text-anchor="middle" x="566" y="-175.5" font-family="Helvetica,sans-Serif" font-size="10.00">tag.h</text>
</a>
</g>
</g>
<!-- Node4&#45;&gt;Node11 -->
<g id="edge15" class="edge">
<title>Node4&#45;&gt;Node11</title>
<path fill="none" stroke="midnightblue" d="M732.85,-226.85C703.84,-218.77 651.16,-204.01 596.51,-188.11"/>
<polygon fill="midnightblue" stroke="midnightblue" points="597.22,-184.68 586.64,-185.24 595.27,-191.4 597.22,-184.68"/>
</g>
<!-- Node6 -->
<g id="node6" class="node">
<title>Node6</title>
<g id="a_node6"><a xlink:title=" ">
<polygon fill="white" stroke="#bfbfbf" points="420,-0.5 420,-19.5 478,-19.5 478,-0.5 420,-0.5"/>
<text text-anchor="middle" x="449" y="-7.5" font-family="Helvetica,sans-Serif" font-size="10.00">memory</text>
</a>
</g>
</g>
<!-- Node5&#45;&gt;Node6 -->
<g id="edge5" class="edge">
<title>Node5&#45;&gt;Node6</title>
<path fill="none" stroke="midnightblue" d="M529.58,-56.32C514.46,-47.82 491.18,-34.73 473.53,-24.8"/>
<polygon fill="midnightblue" stroke="midnightblue" points="474.82,-21.51 464.39,-19.65 471.39,-27.61 474.82,-21.51"/>
</g>
<!-- Node7 -->
<g id="node7" class="node">
<title>Node7</title>
<g id="a_node7"><a xlink:title=" ">
<polygon fill="white" stroke="#bfbfbf" points="562.5,-0.5 562.5,-19.5 609.5,-19.5 609.5,-0.5 562.5,-0.5"/>
<text text-anchor="middle" x="586" y="-7.5" font-family="Helvetica,sans-Serif" font-size="10.00">vector</text>
</a>
</g>
</g>
<!-- Node5&#45;&gt;Node7 -->
<g id="edge6" class="edge">
<title>Node5&#45;&gt;Node7</title>
<path fill="none" stroke="midnightblue" d="M551.77,-56.08C557.56,-48.46 566.06,-37.26 573.14,-27.94"/>
<polygon fill="midnightblue" stroke="midnightblue" points="576.1,-29.83 579.36,-19.75 570.52,-25.6 576.1,-29.83"/>
</g>
<!-- Node8 -->
<g id="node8" class="node">
<title>Node8</title>
<g id="a_node8"><a xlink:title=" ">
<polygon fill="white" stroke="#bfbfbf" points="496,-0.5 496,-19.5 544,-19.5 544,-0.5 496,-0.5"/>
<text text-anchor="middle" x="520" y="-7.5" font-family="Helvetica,sans-Serif" font-size="10.00">iosfwd</text>
</a>
</g>
</g>
<!-- Node5&#45;&gt;Node8 -->
<g id="edge7" class="edge">
<title>Node5&#45;&gt;Node8</title>
<path fill="none" stroke="midnightblue" d="M540.87,-56.08C537.49,-48.77 532.58,-38.18 528.38,-29.1"/>
<polygon fill="midnightblue" stroke="midnightblue" points="531.43,-27.36 524.05,-19.75 525.08,-30.3 531.43,-27.36"/>
</g>
<!-- Node5&#45;&gt;Node9 -->
<g id="edge8" class="edge">
<title>Node5&#45;&gt;Node9</title>
<path fill="none" stroke="midnightblue" d="M571.78,-56.44C600.33,-47.32 645.73,-32.81 677.54,-22.65"/>
<polygon fill="midnightblue" stroke="midnightblue" points="678.89,-25.89 687.35,-19.52 676.76,-19.23 678.89,-25.89"/>
</g>
<!-- Node10&#45;&gt;Node2 -->
<g id="edge12" class="edge">
<title>Node10&#45;&gt;Node2</title>
<path fill="none" stroke="midnightblue" d="M946.64,-112.32C955.51,-104.34 968.87,-92.31 979.61,-82.65"/>
<polygon fill="midnightblue" stroke="midnightblue" points="982.09,-85.13 987.18,-75.83 977.41,-79.92 982.09,-85.13"/>
</g>
<!-- Node10&#45;&gt;Node5 -->
<g id="edge10" class="edge">
<title>Node10&#45;&gt;Node5</title>
<path fill="none" stroke="midnightblue" d="M900.38,-113.59C897.22,-113.02 894.05,-112.48 891,-112 763.3,-91.77 727.77,-95.54 595.72,-76.02"/>
<polygon fill="midnightblue" stroke="midnightblue" points="596.03,-72.53 585.63,-74.51 595,-79.45 596.03,-72.53"/>
</g>
<!-- Node10&#45;&gt;Node9 -->
<g id="edge11" class="edge">
<title>Node10&#45;&gt;Node9</title>
<path fill="none" stroke="midnightblue" d="M919.5,-112.37C880.58,-93.17 786.66,-46.84 740.5,-24.07"/>
<polygon fill="midnightblue" stroke="midnightblue" points="741.93,-20.88 731.42,-19.59 738.84,-27.15 741.93,-20.88"/>
</g>
<!-- Node11&#45;&gt;Node9 -->
<g id="edge16" class="edge">
<title>Node11&#45;&gt;Node9</title>
<path fill="none" stroke="midnightblue" d="M586.87,-169.11C611.39,-159.51 650.13,-143.2 661,-132 689.39,-102.76 703.9,-55.81 710.13,-29.83"/>
<polygon fill="midnightblue" stroke="midnightblue" points="713.6,-30.32 712.36,-19.79 706.77,-28.79 713.6,-30.32"/>
</g>
<!-- Node12 -->
<g id="node12" class="node">
<title>Node12</title>
<g id="a_node12"><a xlink:href="tstring_8h.html" target="_top" xlink:title=" ">
<polygon fill="white" stroke="black" points="595.5,-112.5 595.5,-131.5 652.5,-131.5 652.5,-112.5 595.5,-112.5"/>
<text text-anchor="middle" x="624" y="-119.5" font-family="Helvetica,sans-Serif" font-size="10.00">tstring.h</text>
</a>
</g>
</g>
<!-- Node11&#45;&gt;Node12 -->
<g id="edge17" class="edge">
<title>Node11&#45;&gt;Node12</title>
<path fill="none" stroke="midnightblue" d="M575.32,-168.32C583.89,-160.34 596.81,-148.31 607.19,-138.65"/>
<polygon fill="midnightblue" stroke="midnightblue" points="609.58,-141.21 614.51,-131.83 604.81,-136.09 609.58,-141.21"/>
</g>
<!-- Node14 -->
<g id="node14" class="node">
<title>Node14</title>
<g id="a_node14"><a xlink:href="tlist_8h.html" target="_top" xlink:title=" ">
<polygon fill="white" stroke="black" points="328,-56.5 328,-75.5 372,-75.5 372,-56.5 328,-56.5"/>
<text text-anchor="middle" x="350" y="-63.5" font-family="Helvetica,sans-Serif" font-size="10.00">tlist.h</text>
</a>
</g>
</g>
<!-- Node11&#45;&gt;Node14 -->
<g id="edge21" class="edge">
<title>Node11&#45;&gt;Node14</title>
<path fill="none" stroke="midnightblue" d="M545.44,-175.92C511.66,-173.26 443.53,-164 397,-132 379.66,-120.07 366.41,-99.58 358.47,-84.78"/>
<polygon fill="midnightblue" stroke="midnightblue" points="361.47,-82.97 353.83,-75.63 355.23,-86.13 361.47,-82.97"/>
</g>
<!-- Node18 -->
<g id="node18" class="node">
<title>Node18</title>
<g id="a_node18"><a xlink:href="tvariant_8h.html" target="_top" xlink:title=" ">
<polygon fill="white" stroke="black" points="406,-112.5 406,-131.5 470,-131.5 470,-112.5 406,-112.5"/>
<text text-anchor="middle" x="438" y="-119.5" font-family="Helvetica,sans-Serif" font-size="10.00">tvariant.h</text>
</a>
</g>
</g>
<!-- Node11&#45;&gt;Node18 -->
<g id="edge26" class="edge">
<title>Node11&#45;&gt;Node18</title>
<path fill="none" stroke="midnightblue" d="M545.72,-168.44C524.65,-159.56 491.48,-145.56 467.51,-135.45"/>
<polygon fill="midnightblue" stroke="midnightblue" points="468.76,-132.18 458.19,-131.52 466.04,-138.63 468.76,-132.18"/>
</g>
<!-- Node12&#45;&gt;Node5 -->
<g id="edge19" class="edge">
<title>Node12&#45;&gt;Node5</title>
<path fill="none" stroke="midnightblue" d="M611.31,-112.32C599.1,-103.98 580.42,-91.21 566,-81.35"/>
<polygon fill="midnightblue" stroke="midnightblue" points="567.89,-78.41 557.66,-75.65 563.94,-84.19 567.89,-78.41"/>
</g>
<!-- Node12&#45;&gt;Node9 -->
<g id="edge20" class="edge">
<title>Node12&#45;&gt;Node9</title>
<path fill="none" stroke="midnightblue" d="M631.06,-112.37C646.05,-94.05 681.23,-51.05 700.61,-27.36"/>
<polygon fill="midnightblue" stroke="midnightblue" points="703.35,-29.55 706.97,-19.59 697.93,-25.11 703.35,-29.55"/>
</g>
<!-- Node13 -->
<g id="node13" class="node">
<title>Node13</title>
<g id="a_node13"><a xlink:title=" ">
<polygon fill="white" stroke="#bfbfbf" points="604,-56.5 604,-75.5 648,-75.5 648,-56.5 604,-56.5"/>
<text text-anchor="middle" x="626" y="-63.5" font-family="Helvetica,sans-Serif" font-size="10.00">string</text>
</a>
</g>
</g>
<!-- Node12&#45;&gt;Node13 -->
<g id="edge18" class="edge">
<title>Node12&#45;&gt;Node13</title>
<path fill="none" stroke="midnightblue" d="M624.33,-112.08C624.59,-105.01 624.97,-94.86 625.3,-85.99"/>
<polygon fill="midnightblue" stroke="midnightblue" points="628.8,-85.87 625.68,-75.75 621.81,-85.61 628.8,-85.87"/>
</g>
<!-- Node14&#45;&gt;Node6 -->
<g id="edge24" class="edge">
<title>Node14&#45;&gt;Node6</title>
<path fill="none" stroke="midnightblue" d="M365.91,-56.32C381.64,-47.74 405.94,-34.49 424.21,-24.52"/>
<polygon fill="midnightblue" stroke="midnightblue" points="426.03,-27.52 433.13,-19.65 422.68,-21.37 426.03,-27.52"/>
</g>
<!-- Node15 -->
<g id="node15" class="node">
<title>Node15</title>
<g id="a_node15"><a xlink:title=" ">
<polygon fill="white" stroke="#bfbfbf" points="298,-0.5 298,-19.5 330,-19.5 330,-0.5 298,-0.5"/>
<text text-anchor="middle" x="314" y="-7.5" font-family="Helvetica,sans-Serif" font-size="10.00">list</text>
</a>
</g>
</g>
<!-- Node14&#45;&gt;Node15 -->
<g id="edge22" class="edge">
<title>Node14&#45;&gt;Node15</title>
<path fill="none" stroke="midnightblue" d="M344.06,-56.08C339.02,-48.53 331.66,-37.49 325.49,-28.23"/>
<polygon fill="midnightblue" stroke="midnightblue" points="328.29,-26.13 319.83,-19.75 322.47,-30.01 328.29,-26.13"/>
</g>
<!-- Node16 -->
<g id="node16" class="node">
<title>Node16</title>
<g id="a_node16"><a xlink:title=" ">
<polygon fill="white" stroke="#bfbfbf" points="196.5,-0.5 196.5,-19.5 279.5,-19.5 279.5,-0.5 196.5,-0.5"/>
<text text-anchor="middle" x="238" y="-7.5" font-family="Helvetica,sans-Serif" font-size="10.00">initializer_list</text>
</a>
</g>
</g>
<!-- Node14&#45;&gt;Node16 -->
<g id="edge23" class="edge">
<title>Node14&#45;&gt;Node16</title>
<path fill="none" stroke="midnightblue" d="M332.01,-56.32C313.96,-47.62 285.95,-34.12 265.2,-24.11"/>
<polygon fill="midnightblue" stroke="midnightblue" points="266.48,-20.84 255.95,-19.65 263.44,-27.15 266.48,-20.84"/>
</g>
<!-- Node17 -->
<g id="node17" class="node">
<title>Node17</title>
<g id="a_node17"><a xlink:title=" ">
<polygon fill="white" stroke="#bfbfbf" points="348.5,-0.5 348.5,-19.5 401.5,-19.5 401.5,-0.5 348.5,-0.5"/>
<text text-anchor="middle" x="375" y="-7.5" font-family="Helvetica,sans-Serif" font-size="10.00">tlist.tcc</text>
</a>
</g>
</g>
<!-- Node14&#45;&gt;Node17 -->
<g id="edge25" class="edge">
<title>Node14&#45;&gt;Node17</title>
<path fill="none" stroke="midnightblue" d="M354.13,-56.08C357.51,-48.77 362.42,-38.18 366.62,-29.1"/>
<polygon fill="midnightblue" stroke="midnightblue" points="369.92,-30.3 370.95,-19.75 363.57,-27.36 369.92,-30.3"/>
</g>
<!-- Node18&#45;&gt;Node8 -->
<g id="edge27" class="edge">
<title>Node18&#45;&gt;Node8</title>
<path fill="none" stroke="midnightblue" d="M439.61,-112.27C442.39,-99.06 449.06,-73.66 462,-56 471.12,-43.55 484.6,-32.8 496.26,-24.94"/>
<polygon fill="midnightblue" stroke="midnightblue" points="498.2,-27.86 504.73,-19.51 494.42,-21.96 498.2,-27.86"/>
</g>
<!-- Node18&#45;&gt;Node9 -->
<g id="edge35" class="edge">
<title>Node18&#45;&gt;Node9</title>
<path fill="none" stroke="midnightblue" d="M443.04,-112.23C451.71,-97.99 470.87,-70.04 495,-56 522.24,-40.16 603.05,-26.3 658.5,-18.29"/>
<polygon fill="midnightblue" stroke="midnightblue" points="659.13,-21.74 668.54,-16.87 658.15,-14.81 659.13,-21.74"/>
</g>
<!-- Node18&#45;&gt;Node14 -->
<g id="edge28" class="edge">
<title>Node18&#45;&gt;Node14</title>
<path fill="none" stroke="midnightblue" d="M423.86,-112.32C410.13,-103.9 389.06,-90.97 372.94,-81.07"/>
<polygon fill="midnightblue" stroke="midnightblue" points="374.46,-77.9 364.1,-75.65 370.8,-83.87 374.46,-77.9"/>
</g>
<!-- Node19 -->
<g id="node19" class="node">
<title>Node19</title>
<g id="a_node19"><a xlink:href="tmap_8h.html" target="_top" xlink:title=" ">
<polygon fill="white" stroke="black" points="168.5,-56.5 168.5,-75.5 219.5,-75.5 219.5,-56.5 168.5,-56.5"/>
<text text-anchor="middle" x="194" y="-63.5" font-family="Helvetica,sans-Serif" font-size="10.00">tmap.h</text>
</a>
</g>
</g>
<!-- Node18&#45;&gt;Node19 -->
<g id="edge29" class="edge">
<title>Node18&#45;&gt;Node19</title>
<path fill="none" stroke="midnightblue" d="M405.85,-113.88C360.16,-103.77 276.73,-85.31 229.35,-74.82"/>
<polygon fill="midnightblue" stroke="midnightblue" points="230.05,-71.39 219.53,-72.65 228.54,-78.23 230.05,-71.39"/>
</g>
<!-- Node19&#45;&gt;Node6 -->
<g id="edge31" class="edge">
<title>Node19&#45;&gt;Node6</title>
<path fill="none" stroke="midnightblue" d="M219.64,-59.84C258.39,-52.01 334.44,-36.48 409.52,-20.07"/>
<polygon fill="midnightblue" stroke="midnightblue" points="410.61,-23.41 419.63,-17.85 409.11,-16.57 410.61,-23.41"/>
</g>
<!-- Node19&#45;&gt;Node16 -->
<g id="edge32" class="edge">
<title>Node19&#45;&gt;Node16</title>
<path fill="none" stroke="midnightblue" d="M201.27,-56.08C207.54,-48.38 216.79,-37.03 224.43,-27.65"/>
<polygon fill="midnightblue" stroke="midnightblue" points="227.27,-29.71 230.87,-19.75 221.84,-25.29 227.27,-29.71"/>
</g>
<!-- Node20 -->
<g id="node20" class="node">
<title>Node20</title>
<g id="a_node20"><a xlink:title=" ">
<polygon fill="white" stroke="#bfbfbf" points="0,-0.5 0,-19.5 38,-19.5 38,-0.5 0,-0.5"/>
<text text-anchor="middle" x="19" y="-7.5" font-family="Helvetica,sans-Serif" font-size="10.00">map</text>
</a>
</g>
</g>
<!-- Node19&#45;&gt;Node20 -->
<g id="edge30" class="edge">
<title>Node19&#45;&gt;Node20</title>
<path fill="none" stroke="midnightblue" d="M168.47,-57.3C140.96,-48.98 95.65,-35.2 47.86,-20.24"/>
<polygon fill="midnightblue" stroke="midnightblue" points="48.86,-16.89 38.27,-17.23 46.76,-23.57 48.86,-16.89"/>
</g>
<!-- Node21 -->
<g id="node21" class="node">
<title>Node21</title>
<g id="a_node21"><a xlink:title=" ">
<polygon fill="white" stroke="#bfbfbf" points="56.5,-0.5 56.5,-19.5 101.5,-19.5 101.5,-0.5 56.5,-0.5"/>
<text text-anchor="middle" x="79" y="-7.5" font-family="Helvetica,sans-Serif" font-size="10.00">utility</text>
</a>
</g>
</g>
<!-- Node19&#45;&gt;Node21 -->
<g id="edge33" class="edge">
<title>Node19&#45;&gt;Node21</title>
<path fill="none" stroke="midnightblue" d="M175.78,-56.44C157.1,-47.68 127.84,-33.94 106.38,-23.86"/>
<polygon fill="midnightblue" stroke="midnightblue" points="107.68,-20.6 97.14,-19.52 104.7,-26.93 107.68,-20.6"/>
</g>
<!-- Node22 -->
<g id="node22" class="node">
<title>Node22</title>
<g id="a_node22"><a xlink:title=" ">
<polygon fill="white" stroke="#bfbfbf" points="119.5,-0.5 119.5,-19.5 178.5,-19.5 178.5,-0.5 119.5,-0.5"/>
<text text-anchor="middle" x="149" y="-7.5" font-family="Helvetica,sans-Serif" font-size="10.00">tmap.tcc</text>
</a>
</g>
</g>
<!-- Node19&#45;&gt;Node22 -->
<g id="edge34" class="edge">
<title>Node19&#45;&gt;Node22</title>
<path fill="none" stroke="midnightblue" d="M186.57,-56.08C180.15,-48.38 170.69,-37.03 162.88,-27.65"/>
<polygon fill="midnightblue" stroke="midnightblue" points="165.38,-25.19 156.29,-19.75 160.01,-29.67 165.38,-25.19"/>
</g>
<!-- Node23&#45;&gt;Node5 -->
<g id="edge37" class="edge">
<title>Node23&#45;&gt;Node5</title>
<path fill="none" stroke="midnightblue" d="M644.42,-168.41C627.16,-160.75 603.09,-148.25 586,-132 571.68,-118.39 560.21,-98.78 553.08,-84.66"/>
<polygon fill="midnightblue" stroke="midnightblue" points="556.17,-83.01 548.68,-75.52 549.87,-86.05 556.17,-83.01"/>
</g>
<!-- Node24 -->
<g id="node24" class="node">
<title>Node24</title>
<g id="a_node24"><a xlink:href="audioproperties_8h.html" target="_top" xlink:title=" ">
<polygon fill="white" stroke="black" points="780,-112.5 780,-131.5 882,-131.5 882,-112.5 780,-112.5"/>
<text text-anchor="middle" x="831" y="-119.5" font-family="Helvetica,sans-Serif" font-size="10.00">audioproperties.h</text>
</a>
</g>
</g>
<!-- Node23&#45;&gt;Node24 -->
<g id="edge38" class="edge">
<title>Node23&#45;&gt;Node24</title>
<path fill="none" stroke="midnightblue" d="M692.14,-168.44C720.02,-159.32 764.35,-144.81 795.4,-134.65"/>
<polygon fill="midnightblue" stroke="midnightblue" points="796.56,-137.95 804.98,-131.52 794.38,-131.3 796.56,-137.95"/>
</g>
<!-- Node24&#45;&gt;Node2 -->
<g id="edge40" class="edge">
<title>Node24&#45;&gt;Node2</title>
<path fill="none" stroke="midnightblue" d="M857.3,-112.44C885.35,-103.32 929.94,-88.81 961.18,-78.65"/>
<polygon fill="midnightblue" stroke="midnightblue" points="962.39,-81.94 970.82,-75.52 960.23,-75.28 962.39,-81.94"/>
</g>
<!-- Node24&#45;&gt;Node6 -->
<g id="edge39" class="edge">
<title>Node24&#45;&gt;Node6</title>
<path fill="none" stroke="midnightblue" d="M779.88,-119.1C697.98,-115.25 541.83,-104.33 495,-76 477.12,-65.19 464.32,-44.49 456.83,-29.34"/>
<polygon fill="midnightblue" stroke="midnightblue" points="459.86,-27.56 452.5,-19.94 453.51,-30.48 459.86,-27.56"/>
</g>
<!-- Node24&#45;&gt;Node9 -->
<g id="edge41" class="edge">
<title>Node24&#45;&gt;Node9</title>
<path fill="none" stroke="midnightblue" d="M822.78,-112.39C810.62,-99.75 787.03,-75.57 766,-56 755.07,-45.83 742.42,-34.87 732.33,-26.31"/>
<polygon fill="midnightblue" stroke="midnightblue" points="734.46,-23.52 724.55,-19.75 729.94,-28.87 734.46,-23.52"/>
</g>
</g>
</svg>
