<?xml version="1.0" encoding="UTF-8" standalone="no"?>
<!DOCTYPE svg PUBLIC "-//W3C//DTD SVG 1.1//EN"
 "http://www.w3.org/Graphics/SVG/1.1/DTD/svg11.dtd">
<!-- Generated by graphviz version 2.43.0 (0)
 -->
<!-- Title: tstringlist.h Pages: 1 -->
<svg width="446pt" height="252pt"
 viewBox="0.00 0.00 446.16 252.00" xmlns="http://www.w3.org/2000/svg" xmlns:xlink="http://www.w3.org/1999/xlink">
<g id="graph0" class="graph" transform="scale(1 1) rotate(0) translate(4 248)">
<title>tstringlist.h</title>
<polygon fill="white" stroke="transparent" points="-4,4 -4,-248 442.16,-248 442.16,4 -4,4"/>
<!-- Node1 -->
<g id="node1" class="node">
<title>Node1</title>
<g id="a_node1"><a xlink:title=" ">
<polygon fill="#bfbfbf" stroke="black" points="175.16,-224.5 175.16,-243.5 247.16,-243.5 247.16,-224.5 175.16,-224.5"/>
<text text-anchor="middle" x="211.16" y="-231.5" font-family="Helvetica,sans-Serif" font-size="10.00">tstringlist.h</text>
</a>
</g>
</g>
<!-- Node2 -->
<g id="node2" class="node">
<title>Node2</title>
<g id="a_node2"><a xlink:href="tstring_8h.html" target="_top" xlink:title=" ">
<polygon fill="white" stroke="black" points="87.66,-168.5 87.66,-187.5 144.66,-187.5 144.66,-168.5 87.66,-168.5"/>
<text text-anchor="middle" x="116.16" y="-175.5" font-family="Helvetica,sans-Serif" font-size="10.00">tstring.h</text>
</a>
</g>
</g>
<!-- Node1&#45;&gt;Node2 -->
<g id="edge1" class="edge">
<title>Node1&#45;&gt;Node2</title>
<path fill="none" stroke="midnightblue" d="M195.89,-224.32C180.93,-215.82 157.9,-202.73 140.43,-192.8"/>
<polygon fill="midnightblue" stroke="midnightblue" points="141.8,-189.55 131.38,-187.65 138.34,-195.64 141.8,-189.55"/>
</g>
<!-- Node3 -->
<g id="node3" class="node">
<title>Node3</title>
<g id="a_node3"><a xlink:href="taglib__export_8h.html" target="_top" xlink:title=" ">
<polygon fill="white" stroke="black" points="12.16,-56.5 12.16,-75.5 102.16,-75.5 102.16,-56.5 12.16,-56.5"/>
<text text-anchor="middle" x="57.16" y="-63.5" font-family="Helvetica,sans-Serif" font-size="10.00">taglib_export.h</text>
</a>
</g>
</g>
<!-- Node1&#45;&gt;Node3 -->
<g id="edge21" class="edge">
<title>Node1&#45;&gt;Node3</title>
<path fill="none" stroke="midnightblue" d="M175.15,-228.96C145.78,-223.93 104.92,-212.74 78.16,-188 49.93,-161.91 51.04,-112.58 54.17,-85.66"/>
<polygon fill="midnightblue" stroke="midnightblue" points="57.65,-86.02 55.55,-75.63 50.72,-85.06 57.65,-86.02"/>
</g>
<!-- Node9 -->
<g id="node9" class="node">
<title>Node9</title>
<g id="a_node9"><a xlink:title=" ">
<polygon fill="white" stroke="#bfbfbf" points="120.16,-56.5 120.16,-75.5 180.16,-75.5 180.16,-56.5 120.16,-56.5"/>
<text text-anchor="middle" x="150.16" y="-63.5" font-family="Helvetica,sans-Serif" font-size="10.00">iostream</text>
</a>
</g>
</g>
<!-- Node1&#45;&gt;Node9 -->
<g id="edge22" class="edge">
<title>Node1&#45;&gt;Node9</title>
<path fill="none" stroke="midnightblue" d="M229.54,-224.47C243.26,-217 260.97,-204.71 269.16,-188 273.07,-180.02 271.55,-176.56 269.16,-168 261.31,-139.96 256.34,-131.98 235.16,-112 220.33,-98.02 200.32,-87.14 183.44,-79.59"/>
<polygon fill="midnightblue" stroke="midnightblue" points="184.5,-76.23 173.93,-75.52 181.75,-82.67 184.5,-76.23"/>
</g>
<!-- Node10 -->
<g id="node10" class="node">
<title>Node10</title>
<g id="a_node10"><a xlink:href="tlist_8h.html" target="_top" xlink:title=" ">
<polygon fill="white" stroke="black" points="320.16,-112.5 320.16,-131.5 364.16,-131.5 364.16,-112.5 320.16,-112.5"/>
<text text-anchor="middle" x="342.16" y="-119.5" font-family="Helvetica,sans-Serif" font-size="10.00">tlist.h</text>
</a>
</g>
</g>
<!-- Node1&#45;&gt;Node10 -->
<g id="edge13" class="edge">
<title>Node1&#45;&gt;Node10</title>
<path fill="none" stroke="midnightblue" d="M240.52,-224.42C260.86,-217.3 287.53,-205.48 306.16,-188 319.95,-175.06 329.75,-155.62 335.61,-141.37"/>
<polygon fill="midnightblue" stroke="midnightblue" points="339.01,-142.27 339.32,-131.68 332.48,-139.76 339.01,-142.27"/>
</g>
<!-- Node13 -->
<g id="node13" class="node">
<title>Node13</title>
<g id="a_node13"><a xlink:href="tbytevectorlist_8h.html" target="_top" xlink:title=" ">
<polygon fill="white" stroke="black" points="162.66,-168.5 162.66,-187.5 259.66,-187.5 259.66,-168.5 162.66,-168.5"/>
<text text-anchor="middle" x="211.16" y="-175.5" font-family="Helvetica,sans-Serif" font-size="10.00">tbytevectorlist.h</text>
</a>
</g>
</g>
<!-- Node1&#45;&gt;Node13 -->
<g id="edge17" class="edge">
<title>Node1&#45;&gt;Node13</title>
<path fill="none" stroke="midnightblue" d="M211.16,-224.08C211.16,-217.01 211.16,-206.86 211.16,-197.99"/>
<polygon fill="midnightblue" stroke="midnightblue" points="214.66,-197.75 211.16,-187.75 207.66,-197.75 214.66,-197.75"/>
</g>
<!-- Node2&#45;&gt;Node3 -->
<g id="edge2" class="edge">
<title>Node2&#45;&gt;Node3</title>
<path fill="none" stroke="midnightblue" d="M101.07,-168.4C88.89,-160.59 72.46,-147.86 64.16,-132 56.67,-117.7 55.34,-99.24 55.64,-85.64"/>
<polygon fill="midnightblue" stroke="midnightblue" points="59.14,-85.74 56.17,-75.57 52.15,-85.37 59.14,-85.74"/>
</g>
<!-- Node4 -->
<g id="node4" class="node">
<title>Node4</title>
<g id="a_node4"><a xlink:href="taglib_8h.html" target="_top" xlink:title=" ">
<polygon fill="white" stroke="black" points="263.66,-56.5 263.66,-75.5 316.66,-75.5 316.66,-56.5 263.66,-56.5"/>
<text text-anchor="middle" x="290.16" y="-63.5" font-family="Helvetica,sans-Serif" font-size="10.00">taglib.h</text>
</a>
</g>
</g>
<!-- Node2&#45;&gt;Node4 -->
<g id="edge3" class="edge">
<title>Node2&#45;&gt;Node4</title>
<path fill="none" stroke="midnightblue" d="M145.04,-170.48C170.44,-163.76 207.55,-151.5 235.16,-132 253.38,-119.13 269.23,-98.84 279.18,-84.35"/>
<polygon fill="midnightblue" stroke="midnightblue" points="282.23,-86.08 284.82,-75.81 276.39,-82.22 282.23,-86.08"/>
</g>
<!-- Node6 -->
<g id="node6" class="node">
<title>Node6</title>
<g id="a_node6"><a xlink:title=" ">
<polygon fill="white" stroke="#bfbfbf" points="73.16,-0.5 73.16,-19.5 117.16,-19.5 117.16,-0.5 73.16,-0.5"/>
<text text-anchor="middle" x="95.16" y="-7.5" font-family="Helvetica,sans-Serif" font-size="10.00">string</text>
</a>
</g>
</g>
<!-- Node2&#45;&gt;Node6 -->
<g id="edge11" class="edge">
<title>Node2&#45;&gt;Node6</title>
<path fill="none" stroke="midnightblue" d="M98.96,-168.48C71.92,-153.93 20.73,-121.39 3.16,-76 -0.05,-67.71 -1.55,-63.54 3.16,-56 16.18,-35.13 42,-23.67 62.98,-17.55"/>
<polygon fill="midnightblue" stroke="midnightblue" points="64.04,-20.89 72.81,-14.96 62.25,-14.13 64.04,-20.89"/>
</g>
<!-- Node7 -->
<g id="node7" class="node">
<title>Node7</title>
<g id="a_node7"><a xlink:href="tbytevector_8h.html" target="_top" xlink:title=" ">
<polygon fill="white" stroke="black" points="144.66,-112.5 144.66,-131.5 225.66,-131.5 225.66,-112.5 144.66,-112.5"/>
<text text-anchor="middle" x="185.16" y="-119.5" font-family="Helvetica,sans-Serif" font-size="10.00">tbytevector.h</text>
</a>
</g>
</g>
<!-- Node2&#45;&gt;Node7 -->
<g id="edge6" class="edge">
<title>Node2&#45;&gt;Node7</title>
<path fill="none" stroke="midnightblue" d="M127.24,-168.32C137.64,-160.18 153.42,-147.84 165.88,-138.09"/>
<polygon fill="midnightblue" stroke="midnightblue" points="168.15,-140.75 173.87,-131.83 163.84,-135.24 168.15,-140.75"/>
</g>
<!-- Node2&#45;&gt;Node9 -->
<g id="edge12" class="edge">
<title>Node2&#45;&gt;Node9</title>
<path fill="none" stroke="midnightblue" d="M118.63,-168.14C122.16,-155.6 128.91,-131.97 135.16,-112 137.92,-103.15 141.16,-93.37 143.92,-85.2"/>
<polygon fill="midnightblue" stroke="midnightblue" points="147.28,-86.19 147.18,-75.6 140.65,-83.94 147.28,-86.19"/>
</g>
<!-- Node5 -->
<g id="node5" class="node">
<title>Node5</title>
<g id="a_node5"><a xlink:title=" ">
<polygon fill="white" stroke="#bfbfbf" points="246.16,-0.5 246.16,-19.5 334.16,-19.5 334.16,-0.5 246.16,-0.5"/>
<text text-anchor="middle" x="290.16" y="-7.5" font-family="Helvetica,sans-Serif" font-size="10.00">taglib_config.h</text>
</a>
</g>
</g>
<!-- Node4&#45;&gt;Node5 -->
<g id="edge4" class="edge">
<title>Node4&#45;&gt;Node5</title>
<path fill="none" stroke="midnightblue" d="M290.16,-56.08C290.16,-49.01 290.16,-38.86 290.16,-29.99"/>
<polygon fill="midnightblue" stroke="midnightblue" points="293.66,-29.75 290.16,-19.75 286.66,-29.75 293.66,-29.75"/>
</g>
<!-- Node4&#45;&gt;Node6 -->
<g id="edge5" class="edge">
<title>Node4&#45;&gt;Node6</title>
<path fill="none" stroke="midnightblue" d="M263.45,-57.6C227.98,-47.78 165.4,-30.45 127.36,-19.92"/>
<polygon fill="midnightblue" stroke="midnightblue" points="127.89,-16.43 117.32,-17.14 126.02,-23.18 127.89,-16.43"/>
</g>
<!-- Node7&#45;&gt;Node3 -->
<g id="edge8" class="edge">
<title>Node7&#45;&gt;Node3</title>
<path fill="none" stroke="midnightblue" d="M164.87,-112.44C143.81,-103.56 110.64,-89.56 86.67,-79.45"/>
<polygon fill="midnightblue" stroke="midnightblue" points="87.92,-76.18 77.34,-75.52 85.2,-82.63 87.92,-76.18"/>
</g>
<!-- Node7&#45;&gt;Node4 -->
<g id="edge7" class="edge">
<title>Node7&#45;&gt;Node4</title>
<path fill="none" stroke="midnightblue" d="M202.03,-112.32C218.86,-103.66 244.96,-90.24 264.39,-80.25"/>
<polygon fill="midnightblue" stroke="midnightblue" points="266.03,-83.34 273.33,-75.65 262.83,-77.12 266.03,-83.34"/>
</g>
<!-- Node8 -->
<g id="node8" class="node">
<title>Node8</title>
<g id="a_node8"><a xlink:title=" ">
<polygon fill="white" stroke="#bfbfbf" points="198.66,-56.5 198.66,-75.5 245.66,-75.5 245.66,-56.5 198.66,-56.5"/>
<text text-anchor="middle" x="222.16" y="-63.5" font-family="Helvetica,sans-Serif" font-size="10.00">vector</text>
</a>
</g>
</g>
<!-- Node7&#45;&gt;Node8 -->
<g id="edge9" class="edge">
<title>Node7&#45;&gt;Node8</title>
<path fill="none" stroke="midnightblue" d="M191.27,-112.08C196.44,-104.53 204,-93.49 210.35,-84.23"/>
<polygon fill="midnightblue" stroke="midnightblue" points="213.39,-85.98 216.16,-75.75 207.62,-82.02 213.39,-85.98"/>
</g>
<!-- Node7&#45;&gt;Node9 -->
<g id="edge10" class="edge">
<title>Node7&#45;&gt;Node9</title>
<path fill="none" stroke="midnightblue" d="M179.38,-112.08C174.48,-104.53 167.33,-93.49 161.32,-84.23"/>
<polygon fill="midnightblue" stroke="midnightblue" points="164.2,-82.24 155.83,-75.75 158.33,-86.05 164.2,-82.24"/>
</g>
<!-- Node10&#45;&gt;Node4 -->
<g id="edge14" class="edge">
<title>Node10&#45;&gt;Node4</title>
<path fill="none" stroke="midnightblue" d="M333.57,-112.08C326,-104.22 314.78,-92.57 305.64,-83.08"/>
<polygon fill="midnightblue" stroke="midnightblue" points="308.04,-80.53 298.58,-75.75 303,-85.38 308.04,-80.53"/>
</g>
<!-- Node11 -->
<g id="node11" class="node">
<title>Node11</title>
<g id="a_node11"><a xlink:title=" ">
<polygon fill="white" stroke="#bfbfbf" points="406.16,-56.5 406.16,-75.5 438.16,-75.5 438.16,-56.5 406.16,-56.5"/>
<text text-anchor="middle" x="422.16" y="-63.5" font-family="Helvetica,sans-Serif" font-size="10.00">list</text>
</a>
</g>
</g>
<!-- Node10&#45;&gt;Node11 -->
<g id="edge15" class="edge">
<title>Node10&#45;&gt;Node11</title>
<path fill="none" stroke="midnightblue" d="M355.01,-112.32C367.37,-103.98 386.29,-91.21 400.89,-81.35"/>
<polygon fill="midnightblue" stroke="midnightblue" points="403,-84.15 409.33,-75.65 399.09,-78.35 403,-84.15"/>
</g>
<!-- Node12 -->
<g id="node12" class="node">
<title>Node12</title>
<g id="a_node12"><a xlink:title=" ">
<polygon fill="white" stroke="#bfbfbf" points="334.66,-56.5 334.66,-75.5 387.66,-75.5 387.66,-56.5 334.66,-56.5"/>
<text text-anchor="middle" x="361.16" y="-63.5" font-family="Helvetica,sans-Serif" font-size="10.00">tlist.tcc</text>
</a>
</g>
</g>
<!-- Node10&#45;&gt;Node12 -->
<g id="edge16" class="edge">
<title>Node10&#45;&gt;Node12</title>
<path fill="none" stroke="midnightblue" d="M345.29,-112.08C347.84,-104.85 351.51,-94.41 354.68,-85.4"/>
<polygon fill="midnightblue" stroke="midnightblue" points="358.06,-86.35 358.08,-75.75 351.46,-84.02 358.06,-86.35"/>
</g>
<!-- Node13&#45;&gt;Node3 -->
<g id="edge18" class="edge">
<title>Node13&#45;&gt;Node3</title>
<path fill="none" stroke="midnightblue" d="M194.97,-168.41C179.26,-159.84 154.95,-145.97 135.16,-132 113.04,-116.39 89.39,-96.12 74.01,-82.4"/>
<polygon fill="midnightblue" stroke="midnightblue" points="76.14,-79.61 66.37,-75.52 71.46,-84.81 76.14,-79.61"/>
</g>
<!-- Node13&#45;&gt;Node7 -->
<g id="edge19" class="edge">
<title>Node13&#45;&gt;Node7</title>
<path fill="none" stroke="midnightblue" d="M206.86,-168.08C203.3,-160.69 198.13,-149.95 193.73,-140.81"/>
<polygon fill="midnightblue" stroke="midnightblue" points="196.86,-139.24 189.37,-131.75 190.55,-142.28 196.86,-139.24"/>
</g>
<!-- Node13&#45;&gt;Node10 -->
<g id="edge20" class="edge">
<title>Node13&#45;&gt;Node10</title>
<path fill="none" stroke="midnightblue" d="M231.91,-168.44C253.47,-159.56 287.42,-145.56 311.95,-135.45"/>
<polygon fill="midnightblue" stroke="midnightblue" points="313.58,-138.56 321.5,-131.52 310.92,-132.09 313.58,-138.56"/>
</g>
</g>
</svg>
