<?xml version="1.0" encoding="UTF-8" standalone="no"?>
<!DOCTYPE svg PUBLIC "-//W3C//DTD SVG 1.1//EN"
 "http://www.w3.org/Graphics/SVG/1.1/DTD/svg11.dtd">
<!-- Generated by graphviz version 2.43.0 (0)
 -->
<!-- Title: tstringlist.h Pages: 1 -->
<svg width="529pt" height="196pt"
 viewBox="0.00 0.00 529.00 196.00" xmlns="http://www.w3.org/2000/svg" xmlns:xlink="http://www.w3.org/1999/xlink">
<g id="graph0" class="graph" transform="scale(1 1) rotate(0) translate(4 192)">
<title>tstringlist.h</title>
<polygon fill="white" stroke="transparent" points="-4,4 -4,-192 525,-192 525,4 -4,4"/>
<!-- Node1 -->
<g id="node1" class="node">
<title>Node1</title>
<g id="a_node1"><a xlink:title=" ">
<polygon fill="#bfbfbf" stroke="black" points="336,-168.5 336,-187.5 408,-187.5 408,-168.5 336,-168.5"/>
<text text-anchor="middle" x="372" y="-175.5" font-family="Helvetica,sans-Serif" font-size="10.00">tstringlist.h</text>
</a>
</g>
</g>
<!-- Node2 -->
<g id="node2" class="node">
<title>Node2</title>
<g id="a_node2"><a xlink:href="tstring_8h.html" target="_top" xlink:title=" ">
<polygon fill="white" stroke="black" points="385.5,-112.5 385.5,-131.5 442.5,-131.5 442.5,-112.5 385.5,-112.5"/>
<text text-anchor="middle" x="414" y="-119.5" font-family="Helvetica,sans-Serif" font-size="10.00">tstring.h</text>
</a>
</g>
</g>
<!-- Node1&#45;&gt;Node2 -->
<g id="edge1" class="edge">
<title>Node1&#45;&gt;Node2</title>
<path fill="none" stroke="midnightblue" d="M378.94,-168.08C384.93,-160.38 393.75,-149.03 401.05,-139.65"/>
<polygon fill="midnightblue" stroke="midnightblue" points="403.82,-141.79 407.19,-131.75 398.29,-137.5 403.82,-141.79"/>
</g>
<!-- Node8 -->
<g id="node8" class="node">
<title>Node8</title>
<g id="a_node8"><a xlink:href="taglib__export_8h.html" target="_top" xlink:title=" ">
<polygon fill="white" stroke="black" points="431,-0.5 431,-19.5 521,-19.5 521,-0.5 431,-0.5"/>
<text text-anchor="middle" x="476" y="-7.5" font-family="Helvetica,sans-Serif" font-size="10.00">taglib_export.h</text>
</a>
</g>
</g>
<!-- Node1&#45;&gt;Node8 -->
<g id="edge18" class="edge">
<title>Node1&#45;&gt;Node8</title>
<path fill="none" stroke="midnightblue" d="M395.44,-168.43C412.76,-161.07 435.86,-148.95 451,-132 469.04,-111.8 469.35,-102.48 475,-76 478.28,-60.63 478.29,-42.76 477.61,-29.64"/>
<polygon fill="midnightblue" stroke="midnightblue" points="481.09,-29.26 476.91,-19.53 474.11,-29.75 481.09,-29.26"/>
</g>
<!-- Node9 -->
<g id="node9" class="node">
<title>Node9</title>
<g id="a_node9"><a xlink:href="tlist_8h.html" target="_top" xlink:title=" ">
<polygon fill="white" stroke="black" points="180,-56.5 180,-75.5 224,-75.5 224,-56.5 180,-56.5"/>
<text text-anchor="middle" x="202" y="-63.5" font-family="Helvetica,sans-Serif" font-size="10.00">tlist.h</text>
</a>
</g>
</g>
<!-- Node1&#45;&gt;Node9 -->
<g id="edge9" class="edge">
<title>Node1&#45;&gt;Node9</title>
<path fill="none" stroke="midnightblue" d="M336.11,-168.44C311.65,-161.4 279.41,-149.68 255,-132 237.2,-119.11 221.97,-98.82 212.46,-84.34"/>
<polygon fill="midnightblue" stroke="midnightblue" points="215.37,-82.39 207.07,-75.8 209.45,-86.13 215.37,-82.39"/>
</g>
<!-- Node13 -->
<g id="node13" class="node">
<title>Node13</title>
<g id="a_node13"><a xlink:href="tbytevectorlist_8h.html" target="_top" xlink:title=" ">
<polygon fill="white" stroke="black" points="264.5,-112.5 264.5,-131.5 361.5,-131.5 361.5,-112.5 264.5,-112.5"/>
<text text-anchor="middle" x="313" y="-119.5" font-family="Helvetica,sans-Serif" font-size="10.00">tbytevectorlist.h</text>
</a>
</g>
</g>
<!-- Node1&#45;&gt;Node13 -->
<g id="edge14" class="edge">
<title>Node1&#45;&gt;Node13</title>
<path fill="none" stroke="midnightblue" d="M362.52,-168.32C353.8,-160.34 340.66,-148.31 330.1,-138.65"/>
<polygon fill="midnightblue" stroke="midnightblue" points="332.39,-136 322.65,-131.83 327.67,-141.17 332.39,-136"/>
</g>
<!-- Node3 -->
<g id="node3" class="node">
<title>Node3</title>
<g id="a_node3"><a xlink:title=" ">
<polygon fill="white" stroke="#bfbfbf" points="404,-56.5 404,-75.5 448,-75.5 448,-56.5 404,-56.5"/>
<text text-anchor="middle" x="426" y="-63.5" font-family="Helvetica,sans-Serif" font-size="10.00">string</text>
</a>
</g>
</g>
<!-- Node2&#45;&gt;Node3 -->
<g id="edge2" class="edge">
<title>Node2&#45;&gt;Node3</title>
<path fill="none" stroke="midnightblue" d="M415.98,-112.08C417.57,-104.93 419.86,-94.64 421.85,-85.69"/>
<polygon fill="midnightblue" stroke="midnightblue" points="425.3,-86.27 424.06,-75.75 418.47,-84.75 425.3,-86.27"/>
</g>
<!-- Node4 -->
<g id="node4" class="node">
<title>Node4</title>
<g id="a_node4"><a xlink:href="tbytevector_8h.html" target="_top" xlink:title=" ">
<polygon fill="white" stroke="black" points="266.5,-56.5 266.5,-75.5 347.5,-75.5 347.5,-56.5 266.5,-56.5"/>
<text text-anchor="middle" x="307" y="-63.5" font-family="Helvetica,sans-Serif" font-size="10.00">tbytevector.h</text>
</a>
</g>
</g>
<!-- Node2&#45;&gt;Node4 -->
<g id="edge3" class="edge">
<title>Node2&#45;&gt;Node4</title>
<path fill="none" stroke="midnightblue" d="M396.81,-112.32C379.65,-103.66 353.05,-90.24 333.25,-80.25"/>
<polygon fill="midnightblue" stroke="midnightblue" points="334.65,-77.04 324.15,-75.65 331.5,-83.28 334.65,-77.04"/>
</g>
<!-- Node2&#45;&gt;Node8 -->
<g id="edge8" class="edge">
<title>Node2&#45;&gt;Node8</title>
<path fill="none" stroke="midnightblue" d="M424.7,-112.45C434.45,-104.12 448.57,-90.6 457,-76 465.36,-61.52 470.29,-43.07 473.03,-29.53"/>
<polygon fill="midnightblue" stroke="midnightblue" points="476.51,-29.97 474.84,-19.51 469.62,-28.73 476.51,-29.97"/>
</g>
<!-- Node5 -->
<g id="node5" class="node">
<title>Node5</title>
<g id="a_node5"><a xlink:title=" ">
<polygon fill="white" stroke="#bfbfbf" points="223,-0.5 223,-19.5 281,-19.5 281,-0.5 223,-0.5"/>
<text text-anchor="middle" x="252" y="-7.5" font-family="Helvetica,sans-Serif" font-size="10.00">memory</text>
</a>
</g>
</g>
<!-- Node4&#45;&gt;Node5 -->
<g id="edge4" class="edge">
<title>Node4&#45;&gt;Node5</title>
<path fill="none" stroke="midnightblue" d="M297.92,-56.08C289.83,-48.14 277.8,-36.34 268.09,-26.8"/>
<polygon fill="midnightblue" stroke="midnightblue" points="270.5,-24.26 260.91,-19.75 265.6,-29.25 270.5,-24.26"/>
</g>
<!-- Node6 -->
<g id="node6" class="node">
<title>Node6</title>
<g id="a_node6"><a xlink:title=" ">
<polygon fill="white" stroke="#bfbfbf" points="365.5,-0.5 365.5,-19.5 412.5,-19.5 412.5,-0.5 365.5,-0.5"/>
<text text-anchor="middle" x="389" y="-7.5" font-family="Helvetica,sans-Serif" font-size="10.00">vector</text>
</a>
</g>
</g>
<!-- Node4&#45;&gt;Node6 -->
<g id="edge5" class="edge">
<title>Node4&#45;&gt;Node6</title>
<path fill="none" stroke="midnightblue" d="M320.17,-56.32C332.85,-47.98 352.23,-35.21 367.21,-25.35"/>
<polygon fill="midnightblue" stroke="midnightblue" points="369.43,-28.08 375.86,-19.65 365.58,-22.23 369.43,-28.08"/>
</g>
<!-- Node7 -->
<g id="node7" class="node">
<title>Node7</title>
<g id="a_node7"><a xlink:title=" ">
<polygon fill="white" stroke="#bfbfbf" points="299,-0.5 299,-19.5 347,-19.5 347,-0.5 299,-0.5"/>
<text text-anchor="middle" x="323" y="-7.5" font-family="Helvetica,sans-Serif" font-size="10.00">iosfwd</text>
</a>
</g>
</g>
<!-- Node4&#45;&gt;Node7 -->
<g id="edge6" class="edge">
<title>Node4&#45;&gt;Node7</title>
<path fill="none" stroke="midnightblue" d="M309.64,-56.08C311.79,-48.85 314.88,-38.41 317.55,-29.4"/>
<polygon fill="midnightblue" stroke="midnightblue" points="320.92,-30.33 320.41,-19.75 314.21,-28.34 320.92,-30.33"/>
</g>
<!-- Node4&#45;&gt;Node8 -->
<g id="edge7" class="edge">
<title>Node4&#45;&gt;Node8</title>
<path fill="none" stroke="midnightblue" d="M333.78,-56.44C362.33,-47.32 407.73,-32.81 439.54,-22.65"/>
<polygon fill="midnightblue" stroke="midnightblue" points="440.89,-25.89 449.35,-19.52 438.76,-19.23 440.89,-25.89"/>
</g>
<!-- Node9&#45;&gt;Node5 -->
<g id="edge12" class="edge">
<title>Node9&#45;&gt;Node5</title>
<path fill="none" stroke="midnightblue" d="M210.26,-56.08C217.46,-48.3 228.11,-36.8 236.85,-27.37"/>
<polygon fill="midnightblue" stroke="midnightblue" points="239.67,-29.47 243.9,-19.75 234.53,-24.71 239.67,-29.47"/>
</g>
<!-- Node10 -->
<g id="node10" class="node">
<title>Node10</title>
<g id="a_node10"><a xlink:title=" ">
<polygon fill="white" stroke="#bfbfbf" points="0,-0.5 0,-19.5 32,-19.5 32,-0.5 0,-0.5"/>
<text text-anchor="middle" x="16" y="-7.5" font-family="Helvetica,sans-Serif" font-size="10.00">list</text>
</a>
</g>
</g>
<!-- Node9&#45;&gt;Node10 -->
<g id="edge10" class="edge">
<title>Node9&#45;&gt;Node10</title>
<path fill="none" stroke="midnightblue" d="M179.97,-59.39C150.53,-51.77 96.54,-37.4 41.62,-20.03"/>
<polygon fill="midnightblue" stroke="midnightblue" points="42.67,-16.69 32.08,-16.98 40.54,-23.36 42.67,-16.69"/>
</g>
<!-- Node11 -->
<g id="node11" class="node">
<title>Node11</title>
<g id="a_node11"><a xlink:title=" ">
<polygon fill="white" stroke="#bfbfbf" points="50.5,-0.5 50.5,-19.5 133.5,-19.5 133.5,-0.5 50.5,-0.5"/>
<text text-anchor="middle" x="92" y="-7.5" font-family="Helvetica,sans-Serif" font-size="10.00">initializer_list</text>
</a>
</g>
</g>
<!-- Node9&#45;&gt;Node11 -->
<g id="edge11" class="edge">
<title>Node9&#45;&gt;Node11</title>
<path fill="none" stroke="midnightblue" d="M184.33,-56.32C166.61,-47.62 139.1,-34.12 118.71,-24.11"/>
<polygon fill="midnightblue" stroke="midnightblue" points="120.15,-20.92 109.63,-19.65 117.06,-27.2 120.15,-20.92"/>
</g>
<!-- Node12 -->
<g id="node12" class="node">
<title>Node12</title>
<g id="a_node12"><a xlink:title=" ">
<polygon fill="white" stroke="#bfbfbf" points="151.5,-0.5 151.5,-19.5 204.5,-19.5 204.5,-0.5 151.5,-0.5"/>
<text text-anchor="middle" x="178" y="-7.5" font-family="Helvetica,sans-Serif" font-size="10.00">tlist.tcc</text>
</a>
</g>
</g>
<!-- Node9&#45;&gt;Node12 -->
<g id="edge13" class="edge">
<title>Node9&#45;&gt;Node12</title>
<path fill="none" stroke="midnightblue" d="M198.04,-56.08C194.79,-48.77 190.08,-38.18 186.05,-29.1"/>
<polygon fill="midnightblue" stroke="midnightblue" points="189.15,-27.47 181.89,-19.75 182.75,-30.31 189.15,-27.47"/>
</g>
<!-- Node13&#45;&gt;Node4 -->
<g id="edge15" class="edge">
<title>Node13&#45;&gt;Node4</title>
<path fill="none" stroke="midnightblue" d="M312.01,-112.08C311.21,-104.93 310.07,-94.64 309.08,-85.69"/>
<polygon fill="midnightblue" stroke="midnightblue" points="312.56,-85.3 307.97,-75.75 305.6,-86.08 312.56,-85.3"/>
</g>
<!-- Node13&#45;&gt;Node8 -->
<g id="edge17" class="edge">
<title>Node13&#45;&gt;Node8</title>
<path fill="none" stroke="midnightblue" d="M322.7,-112.45C337.66,-99.47 367.5,-74.36 395,-56 412.67,-44.2 433.67,-32.6 449.86,-24.13"/>
<polygon fill="midnightblue" stroke="midnightblue" points="451.49,-27.23 458.77,-19.53 448.28,-21.01 451.49,-27.23"/>
</g>
<!-- Node13&#45;&gt;Node9 -->
<g id="edge16" class="edge">
<title>Node13&#45;&gt;Node9</title>
<path fill="none" stroke="midnightblue" d="M295.17,-112.32C277.28,-103.62 249.52,-90.12 228.95,-80.11"/>
<polygon fill="midnightblue" stroke="midnightblue" points="230.31,-76.88 219.79,-75.65 227.25,-83.18 230.31,-76.88"/>
</g>
</g>
</svg>
