<?xml version="1.0" encoding="UTF-8" standalone="no"?>
<!DOCTYPE svg PUBLIC "-//W3C//DTD SVG 1.1//EN"
 "http://www.w3.org/Graphics/SVG/1.1/DTD/svg11.dtd">
<!-- Generated by graphviz version 2.43.0 (0)
 -->
<!-- Title: tstringlist.h Pages: 1 -->
<svg width="874pt" height="196pt"
 viewBox="0.00 0.00 873.50 196.00" xmlns="http://www.w3.org/2000/svg" xmlns:xlink="http://www.w3.org/1999/xlink">
<g id="graph0" class="graph" transform="scale(1 1) rotate(0) translate(4 192)">
<title>tstringlist.h</title>
<polygon fill="white" stroke="transparent" points="-4,4 -4,-192 869.5,-192 869.5,4 -4,4"/>
<!-- Node1 -->
<g id="node1" class="node">
<title>Node1</title>
<g id="a_node1"><a xlink:title=" ">
<polygon fill="#bfbfbf" stroke="black" points="290,-168.5 290,-187.5 362,-187.5 362,-168.5 290,-168.5"/>
<text text-anchor="middle" x="326" y="-175.5" font-family="Helvetica,sans-Serif" font-size="10.00">tstringlist.h</text>
</a>
</g>
</g>
<!-- Node2 -->
<g id="node2" class="node">
<title>Node2</title>
<g id="a_node2"><a xlink:href="apeitem_8h.html" target="_top" xlink:title=" ">
<polygon fill="white" stroke="black" points="0,-112.5 0,-131.5 66,-131.5 66,-112.5 0,-112.5"/>
<text text-anchor="middle" x="33" y="-119.5" font-family="Helvetica,sans-Serif" font-size="10.00">apeitem.h</text>
</a>
</g>
</g>
<!-- Node1&#45;&gt;Node2 -->
<g id="edge1" class="edge">
<title>Node1&#45;&gt;Node2</title>
<path fill="none" stroke="midnightblue" d="M279.82,-169.2C229.4,-160.57 146.32,-146.03 75,-132 72.22,-131.45 69.34,-130.87 66.45,-130.27"/>
<polygon fill="midnightblue" stroke="midnightblue" points="279.32,-172.67 289.77,-170.9 280.5,-165.77 279.32,-172.67"/>
</g>
<!-- Node4 -->
<g id="node4" class="node">
<title>Node4</title>
<g id="a_node4"><a xlink:href="fileref_8h.html" target="_top" xlink:title=" ">
<polygon fill="white" stroke="black" points="84.5,-112.5 84.5,-131.5 137.5,-131.5 137.5,-112.5 84.5,-112.5"/>
<text text-anchor="middle" x="111" y="-119.5" font-family="Helvetica,sans-Serif" font-size="10.00">fileref.h</text>
</a>
</g>
</g>
<!-- Node1&#45;&gt;Node4 -->
<g id="edge3" class="edge">
<title>Node1&#45;&gt;Node4</title>
<path fill="none" stroke="midnightblue" d="M282.22,-166.01C238.9,-155.12 173.95,-138.81 137.78,-129.73"/>
<polygon fill="midnightblue" stroke="midnightblue" points="281.38,-169.4 291.93,-168.44 283.09,-162.61 281.38,-169.4"/>
</g>
<!-- Node5 -->
<g id="node5" class="node">
<title>Node5</title>
<g id="a_node5"><a xlink:href="id3v1genres_8h.html" target="_top" xlink:title=" ">
<polygon fill="white" stroke="black" points="156,-112.5 156,-131.5 242,-131.5 242,-112.5 156,-112.5"/>
<text text-anchor="middle" x="199" y="-119.5" font-family="Helvetica,sans-Serif" font-size="10.00">id3v1genres.h</text>
</a>
</g>
</g>
<!-- Node1&#45;&gt;Node5 -->
<g id="edge4" class="edge">
<title>Node1&#45;&gt;Node5</title>
<path fill="none" stroke="midnightblue" d="M296.61,-164.5C272.8,-154.38 239.89,-140.39 219.03,-131.52"/>
<polygon fill="midnightblue" stroke="midnightblue" points="295.3,-167.75 305.88,-168.44 298.04,-161.31 295.3,-167.75"/>
</g>
<!-- Node6 -->
<g id="node6" class="node">
<title>Node6</title>
<g id="a_node6"><a xlink:href="mp4item_8h.html" target="_top" xlink:title=" ">
<polygon fill="white" stroke="black" points="260,-112.5 260,-131.5 330,-131.5 330,-112.5 260,-112.5"/>
<text text-anchor="middle" x="295" y="-119.5" font-family="Helvetica,sans-Serif" font-size="10.00">mp4item.h</text>
</a>
</g>
</g>
<!-- Node1&#45;&gt;Node6 -->
<g id="edge5" class="edge">
<title>Node1&#45;&gt;Node6</title>
<path fill="none" stroke="midnightblue" d="M315.82,-159.27C310.53,-150.05 304.28,-139.17 300.02,-131.75"/>
<polygon fill="midnightblue" stroke="midnightblue" points="312.87,-161.15 320.88,-168.08 318.94,-157.67 312.87,-161.15"/>
</g>
<!-- Node8 -->
<g id="node8" class="node">
<title>Node8</title>
<g id="a_node8"><a xlink:href="mp4tag_8h.html" target="_top" xlink:title=" ">
<polygon fill="white" stroke="black" points="326.5,-56.5 326.5,-75.5 389.5,-75.5 389.5,-56.5 326.5,-56.5"/>
<text text-anchor="middle" x="358" y="-63.5" font-family="Helvetica,sans-Serif" font-size="10.00">mp4tag.h</text>
</a>
</g>
</g>
<!-- Node1&#45;&gt;Node8 -->
<g id="edge9" class="edge">
<title>Node1&#45;&gt;Node8</title>
<path fill="none" stroke="midnightblue" d="M331.33,-158.67C338.33,-134.62 350.32,-93.39 355.5,-75.59"/>
<polygon fill="midnightblue" stroke="midnightblue" points="327.94,-157.79 328.51,-168.37 334.67,-159.74 327.94,-157.79"/>
</g>
<!-- Node10 -->
<g id="node10" class="node">
<title>Node10</title>
<g id="a_node10"><a xlink:href="textidentificationframe_8h.html" target="_top" xlink:title=" ">
<polygon fill="white" stroke="black" points="386,-112.5 386,-131.5 524,-131.5 524,-112.5 386,-112.5"/>
<text text-anchor="middle" x="455" y="-119.5" font-family="Helvetica,sans-Serif" font-size="10.00">textidentificationframe.h</text>
</a>
</g>
</g>
<!-- Node1&#45;&gt;Node10 -->
<g id="edge10" class="edge">
<title>Node1&#45;&gt;Node10</title>
<path fill="none" stroke="midnightblue" d="M355.85,-164.5C380.04,-154.38 413.46,-140.39 434.66,-131.52"/>
<polygon fill="midnightblue" stroke="midnightblue" points="354.31,-161.35 346.44,-168.44 357.02,-167.81 354.31,-161.35"/>
</g>
<!-- Node11 -->
<g id="node11" class="node">
<title>Node11</title>
<g id="a_node11"><a xlink:href="tpropertymap_8h.html" target="_top" xlink:title=" ">
<polygon fill="white" stroke="black" points="542,-112.5 542,-131.5 634,-131.5 634,-112.5 542,-112.5"/>
<text text-anchor="middle" x="588" y="-119.5" font-family="Helvetica,sans-Serif" font-size="10.00">tpropertymap.h</text>
</a>
</g>
</g>
<!-- Node1&#45;&gt;Node11 -->
<g id="edge11" class="edge">
<title>Node1&#45;&gt;Node11</title>
<path fill="none" stroke="midnightblue" d="M372.24,-167.47C421.63,-157.29 499.17,-141.31 546.61,-131.53"/>
<polygon fill="midnightblue" stroke="midnightblue" points="371.24,-164.1 362.15,-169.55 372.66,-170.96 371.24,-164.1"/>
</g>
<!-- Node12 -->
<g id="node12" class="node">
<title>Node12</title>
<g id="a_node12"><a xlink:href="xiphcomment_8h.html" target="_top" xlink:title=" ">
<polygon fill="white" stroke="black" points="652.5,-112.5 652.5,-131.5 745.5,-131.5 745.5,-112.5 652.5,-112.5"/>
<text text-anchor="middle" x="699" y="-119.5" font-family="Helvetica,sans-Serif" font-size="10.00">xiphcomment.h</text>
</a>
</g>
</g>
<!-- Node1&#45;&gt;Node12 -->
<g id="edge12" class="edge">
<title>Node1&#45;&gt;Node12</title>
<path fill="none" stroke="midnightblue" d="M372.36,-170.69C434.15,-162.22 546.88,-146.54 643,-132 646.02,-131.54 649.13,-131.07 652.26,-130.58"/>
<polygon fill="midnightblue" stroke="midnightblue" points="371.6,-167.26 362.16,-172.09 372.54,-174.2 371.6,-167.26"/>
</g>
<!-- Node3 -->
<g id="node3" class="node">
<title>Node3</title>
<g id="a_node3"><a xlink:href="apetag_8h.html" target="_top" xlink:title=" ">
<polygon fill="white" stroke="black" points="3.5,-56.5 3.5,-75.5 62.5,-75.5 62.5,-56.5 3.5,-56.5"/>
<text text-anchor="middle" x="33" y="-63.5" font-family="Helvetica,sans-Serif" font-size="10.00">apetag.h</text>
</a>
</g>
</g>
<!-- Node2&#45;&gt;Node3 -->
<g id="edge2" class="edge">
<title>Node2&#45;&gt;Node3</title>
<path fill="none" stroke="midnightblue" d="M33,-101.8C33,-92.91 33,-82.78 33,-75.75"/>
<polygon fill="midnightblue" stroke="midnightblue" points="29.5,-102.08 33,-112.08 36.5,-102.08 29.5,-102.08"/>
</g>
<!-- Node7 -->
<g id="node7" class="node">
<title>Node7</title>
<g id="a_node7"><a xlink:href="mp4itemfactory_8h.html" target="_top" xlink:title=" ">
<polygon fill="white" stroke="black" points="205.5,-56.5 205.5,-75.5 308.5,-75.5 308.5,-56.5 205.5,-56.5"/>
<text text-anchor="middle" x="257" y="-63.5" font-family="Helvetica,sans-Serif" font-size="10.00">mp4itemfactory.h</text>
</a>
</g>
</g>
<!-- Node6&#45;&gt;Node7 -->
<g id="edge6" class="edge">
<title>Node6&#45;&gt;Node7</title>
<path fill="none" stroke="midnightblue" d="M282.94,-103.86C276.36,-94.5 268.49,-83.33 263.16,-75.75"/>
<polygon fill="midnightblue" stroke="midnightblue" points="280.11,-105.92 288.73,-112.08 285.83,-101.89 280.11,-105.92"/>
</g>
<!-- Node6&#45;&gt;Node8 -->
<g id="edge7" class="edge">
<title>Node6&#45;&gt;Node8</title>
<path fill="none" stroke="midnightblue" d="M313.04,-105.54C324.27,-95.91 338.32,-83.87 347.69,-75.83"/>
<polygon fill="midnightblue" stroke="midnightblue" points="310.44,-103.16 305.12,-112.32 314.99,-108.47 310.44,-103.16"/>
</g>
<!-- Node9 -->
<g id="node9" class="node">
<title>Node9</title>
<g id="a_node9"><a xlink:href="mp4file_8h.html" target="_top" xlink:title=" ">
<polygon fill="white" stroke="black" points="327,-0.5 327,-19.5 389,-19.5 389,-0.5 327,-0.5"/>
<text text-anchor="middle" x="358" y="-7.5" font-family="Helvetica,sans-Serif" font-size="10.00">mp4file.h</text>
</a>
</g>
</g>
<!-- Node8&#45;&gt;Node9 -->
<g id="edge8" class="edge">
<title>Node8&#45;&gt;Node9</title>
<path fill="none" stroke="midnightblue" d="M358,-45.8C358,-36.91 358,-26.78 358,-19.75"/>
<polygon fill="midnightblue" stroke="midnightblue" points="354.5,-46.08 358,-56.08 361.5,-46.08 354.5,-46.08"/>
</g>
<!-- Node13 -->
<g id="node13" class="node">
<title>Node13</title>
<g id="a_node13"><a xlink:href="oggflacfile_8h.html" target="_top" xlink:title=" ">
<polygon fill="white" stroke="black" points="530,-56.5 530,-75.5 606,-75.5 606,-56.5 530,-56.5"/>
<text text-anchor="middle" x="568" y="-63.5" font-family="Helvetica,sans-Serif" font-size="10.00">oggflacfile.h</text>
</a>
</g>
</g>
<!-- Node12&#45;&gt;Node13 -->
<g id="edge13" class="edge">
<title>Node12&#45;&gt;Node13</title>
<path fill="none" stroke="midnightblue" d="M668.68,-108.5C644.12,-98.38 610.18,-84.39 588.66,-75.52"/>
<polygon fill="midnightblue" stroke="midnightblue" points="667.66,-111.87 678.24,-112.44 670.33,-105.4 667.66,-111.87"/>
</g>
<!-- Node14 -->
<g id="node14" class="node">
<title>Node14</title>
<g id="a_node14"><a xlink:href="opusfile_8h.html" target="_top" xlink:title=" ">
<polygon fill="white" stroke="black" points="624,-56.5 624,-75.5 688,-75.5 688,-56.5 624,-56.5"/>
<text text-anchor="middle" x="656" y="-63.5" font-family="Helvetica,sans-Serif" font-size="10.00">opusfile.h</text>
</a>
</g>
</g>
<!-- Node12&#45;&gt;Node14 -->
<g id="edge14" class="edge">
<title>Node12&#45;&gt;Node14</title>
<path fill="none" stroke="midnightblue" d="M685.58,-104.14C678.09,-94.74 669.06,-83.4 662.97,-75.75"/>
<polygon fill="midnightblue" stroke="midnightblue" points="682.93,-106.44 691.9,-112.08 688.41,-102.08 682.93,-106.44"/>
</g>
<!-- Node15 -->
<g id="node15" class="node">
<title>Node15</title>
<g id="a_node15"><a xlink:href="speexfile_8h.html" target="_top" xlink:title=" ">
<polygon fill="white" stroke="black" points="706,-56.5 706,-75.5 776,-75.5 776,-56.5 706,-56.5"/>
<text text-anchor="middle" x="741" y="-63.5" font-family="Helvetica,sans-Serif" font-size="10.00">speexfile.h</text>
</a>
</g>
</g>
<!-- Node12&#45;&gt;Node15 -->
<g id="edge15" class="edge">
<title>Node12&#45;&gt;Node15</title>
<path fill="none" stroke="midnightblue" d="M712.11,-104.14C719.43,-94.74 728.24,-83.4 734.19,-75.75"/>
<polygon fill="midnightblue" stroke="midnightblue" points="709.31,-102.04 705.94,-112.08 714.84,-106.34 709.31,-102.04"/>
</g>
<!-- Node16 -->
<g id="node16" class="node">
<title>Node16</title>
<g id="a_node16"><a xlink:href="vorbisfile_8h.html" target="_top" xlink:title=" ">
<polygon fill="white" stroke="black" points="794.5,-56.5 794.5,-75.5 865.5,-75.5 865.5,-56.5 794.5,-56.5"/>
<text text-anchor="middle" x="830" y="-63.5" font-family="Helvetica,sans-Serif" font-size="10.00">vorbisfile.h</text>
</a>
</g>
</g>
<!-- Node12&#45;&gt;Node16 -->
<g id="edge16" class="edge">
<title>Node12&#45;&gt;Node16</title>
<path fill="none" stroke="midnightblue" d="M729.32,-108.5C753.88,-98.38 787.82,-84.39 809.34,-75.52"/>
<polygon fill="midnightblue" stroke="midnightblue" points="727.67,-105.4 719.76,-112.44 730.34,-111.87 727.67,-105.4"/>
</g>
</g>
</svg>
