<?xml version="1.0" encoding="UTF-8" standalone="no"?>
<!DOCTYPE svg PUBLIC "-//W3C//DTD SVG 1.1//EN"
 "http://www.w3.org/Graphics/SVG/1.1/DTD/svg11.dtd">
<!-- Generated by graphviz version 2.43.0 (0)
 -->
<!-- Title: tstringlist.h Pages: 1 -->
<svg width="952pt" height="196pt"
 viewBox="0.00 0.00 951.50 196.00" xmlns="http://www.w3.org/2000/svg" xmlns:xlink="http://www.w3.org/1999/xlink">
<g id="graph0" class="graph" transform="scale(1 1) rotate(0) translate(4 192)">
<title>tstringlist.h</title>
<polygon fill="white" stroke="transparent" points="-4,4 -4,-192 947.5,-192 947.5,4 -4,4"/>
<!-- Node1 -->
<g id="node1" class="node">
<title>Node1</title>
<g id="a_node1"><a xlink:title=" ">
<polygon fill="#bfbfbf" stroke="black" points="337,-168.5 337,-187.5 409,-187.5 409,-168.5 337,-168.5"/>
<text text-anchor="middle" x="373" y="-175.5" font-family="Helvetica,sans-Serif" font-size="10.00">tstringlist.h</text>
</a>
</g>
</g>
<!-- Node2 -->
<g id="node2" class="node">
<title>Node2</title>
<g id="a_node2"><a xlink:href="apeitem_8h.html" target="_top" xlink:title=" ">
<polygon fill="white" stroke="black" points="0,-112.5 0,-131.5 66,-131.5 66,-112.5 0,-112.5"/>
<text text-anchor="middle" x="33" y="-119.5" font-family="Helvetica,sans-Serif" font-size="10.00">apeitem.h</text>
</a>
</g>
</g>
<!-- Node1&#45;&gt;Node2 -->
<g id="edge1" class="edge">
<title>Node1&#45;&gt;Node2</title>
<path fill="none" stroke="midnightblue" d="M326.57,-170.89C267.82,-162.94 163.62,-148.17 75,-132 72.21,-131.49 69.33,-130.94 66.43,-130.36"/>
<polygon fill="midnightblue" stroke="midnightblue" points="326.26,-174.38 336.64,-172.24 327.2,-167.44 326.26,-174.38"/>
</g>
<!-- Node4 -->
<g id="node4" class="node">
<title>Node4</title>
<g id="a_node4"><a xlink:href="fileref_8h.html" target="_top" xlink:title=" ">
<polygon fill="white" stroke="black" points="84.5,-112.5 84.5,-131.5 137.5,-131.5 137.5,-112.5 84.5,-112.5"/>
<text text-anchor="middle" x="111" y="-119.5" font-family="Helvetica,sans-Serif" font-size="10.00">fileref.h</text>
</a>
</g>
</g>
<!-- Node1&#45;&gt;Node4 -->
<g id="edge3" class="edge">
<title>Node1&#45;&gt;Node4</title>
<path fill="none" stroke="midnightblue" d="M326.96,-168.51C281.19,-159.91 209.06,-145.93 147,-132 143.98,-131.32 140.83,-130.58 137.7,-129.83"/>
<polygon fill="midnightblue" stroke="midnightblue" points="326.4,-171.97 336.88,-170.37 327.69,-165.09 326.4,-171.97"/>
</g>
<!-- Node5 -->
<g id="node5" class="node">
<title>Node5</title>
<g id="a_node5"><a xlink:href="id3v1genres_8h.html" target="_top" xlink:title=" ">
<polygon fill="white" stroke="black" points="156,-112.5 156,-131.5 242,-131.5 242,-112.5 156,-112.5"/>
<text text-anchor="middle" x="199" y="-119.5" font-family="Helvetica,sans-Serif" font-size="10.00">id3v1genres.h</text>
</a>
</g>
</g>
<!-- Node1&#45;&gt;Node5 -->
<g id="edge4" class="edge">
<title>Node1&#45;&gt;Node5</title>
<path fill="none" stroke="midnightblue" d="M335.74,-165.44C302.93,-155.26 255.92,-140.66 226.44,-131.52"/>
<polygon fill="midnightblue" stroke="midnightblue" points="334.84,-168.82 345.43,-168.44 336.92,-162.14 334.84,-168.82"/>
</g>
<!-- Node6 -->
<g id="node6" class="node">
<title>Node6</title>
<g id="a_node6"><a xlink:href="infotag_8h.html" target="_top" xlink:title=" ">
<polygon fill="white" stroke="black" points="260,-112.5 260,-131.5 320,-131.5 320,-112.5 260,-112.5"/>
<text text-anchor="middle" x="290" y="-119.5" font-family="Helvetica,sans-Serif" font-size="10.00">infotag.h</text>
</a>
</g>
</g>
<!-- Node1&#45;&gt;Node6 -->
<g id="edge5" class="edge">
<title>Node1&#45;&gt;Node6</title>
<path fill="none" stroke="midnightblue" d="M350.9,-162.62C335.74,-152.76 316.12,-139.99 303.3,-131.65"/>
<polygon fill="midnightblue" stroke="midnightblue" points="349.37,-165.8 359.66,-168.32 353.19,-159.94 349.37,-165.8"/>
</g>
<!-- Node8 -->
<g id="node8" class="node">
<title>Node8</title>
<g id="a_node8"><a xlink:href="mp4item_8h.html" target="_top" xlink:title=" ">
<polygon fill="white" stroke="black" points="338,-112.5 338,-131.5 408,-131.5 408,-112.5 338,-112.5"/>
<text text-anchor="middle" x="373" y="-119.5" font-family="Helvetica,sans-Serif" font-size="10.00">mp4item.h</text>
</a>
</g>
</g>
<!-- Node1&#45;&gt;Node8 -->
<g id="edge7" class="edge">
<title>Node1&#45;&gt;Node8</title>
<path fill="none" stroke="midnightblue" d="M373,-157.8C373,-148.91 373,-138.78 373,-131.75"/>
<polygon fill="midnightblue" stroke="midnightblue" points="369.5,-158.08 373,-168.08 376.5,-158.08 369.5,-158.08"/>
</g>
<!-- Node10 -->
<g id="node10" class="node">
<title>Node10</title>
<g id="a_node10"><a xlink:href="mp4tag_8h.html" target="_top" xlink:title=" ">
<polygon fill="white" stroke="black" points="423.5,-56.5 423.5,-75.5 486.5,-75.5 486.5,-56.5 423.5,-56.5"/>
<text text-anchor="middle" x="455" y="-63.5" font-family="Helvetica,sans-Serif" font-size="10.00">mp4tag.h</text>
</a>
</g>
</g>
<!-- Node1&#45;&gt;Node10 -->
<g id="edge11" class="edge">
<title>Node1&#45;&gt;Node10</title>
<path fill="none" stroke="midnightblue" d="M390.12,-161.42C398.72,-153.13 408.98,-142.51 417,-132 431.27,-113.29 444.26,-88.76 450.71,-75.84"/>
<polygon fill="midnightblue" stroke="midnightblue" points="387.69,-158.9 382.8,-168.3 392.49,-164 387.69,-158.9"/>
</g>
<!-- Node12 -->
<g id="node12" class="node">
<title>Node12</title>
<g id="a_node12"><a xlink:href="textidentificationframe_8h.html" target="_top" xlink:title=" ">
<polygon fill="white" stroke="black" points="464,-112.5 464,-131.5 602,-131.5 602,-112.5 464,-112.5"/>
<text text-anchor="middle" x="533" y="-119.5" font-family="Helvetica,sans-Serif" font-size="10.00">textidentificationframe.h</text>
</a>
</g>
</g>
<!-- Node1&#45;&gt;Node12 -->
<g id="edge12" class="edge">
<title>Node1&#45;&gt;Node12</title>
<path fill="none" stroke="midnightblue" d="M408.05,-165.17C438.17,-155 480.9,-140.59 507.77,-131.52"/>
<polygon fill="midnightblue" stroke="midnightblue" points="406.71,-161.93 398.35,-168.44 408.95,-168.56 406.71,-161.93"/>
</g>
<!-- Node13 -->
<g id="node13" class="node">
<title>Node13</title>
<g id="a_node13"><a xlink:href="tpropertymap_8h.html" target="_top" xlink:title=" ">
<polygon fill="white" stroke="black" points="620,-112.5 620,-131.5 712,-131.5 712,-112.5 620,-112.5"/>
<text text-anchor="middle" x="666" y="-119.5" font-family="Helvetica,sans-Serif" font-size="10.00">tpropertymap.h</text>
</a>
</g>
</g>
<!-- Node1&#45;&gt;Node13 -->
<g id="edge13" class="edge">
<title>Node1&#45;&gt;Node13</title>
<path fill="none" stroke="midnightblue" d="M419.37,-168.45C474.3,-158.33 565.22,-141.57 619.99,-131.48"/>
<polygon fill="midnightblue" stroke="midnightblue" points="418.42,-165.07 409.22,-170.32 419.69,-171.95 418.42,-165.07"/>
</g>
<!-- Node14 -->
<g id="node14" class="node">
<title>Node14</title>
<g id="a_node14"><a xlink:href="xiphcomment_8h.html" target="_top" xlink:title=" ">
<polygon fill="white" stroke="black" points="730.5,-112.5 730.5,-131.5 823.5,-131.5 823.5,-112.5 730.5,-112.5"/>
<text text-anchor="middle" x="777" y="-119.5" font-family="Helvetica,sans-Serif" font-size="10.00">xiphcomment.h</text>
</a>
</g>
</g>
<!-- Node1&#45;&gt;Node14 -->
<g id="edge14" class="edge">
<title>Node1&#45;&gt;Node14</title>
<path fill="none" stroke="midnightblue" d="M419.3,-171.47C486.04,-163.4 613.13,-147.64 721,-132 724.02,-131.56 727.13,-131.1 730.27,-130.62"/>
<polygon fill="midnightblue" stroke="midnightblue" points="418.63,-168.03 409.12,-172.7 419.47,-174.98 418.63,-168.03"/>
</g>
<!-- Node3 -->
<g id="node3" class="node">
<title>Node3</title>
<g id="a_node3"><a xlink:href="apetag_8h.html" target="_top" xlink:title=" ">
<polygon fill="white" stroke="black" points="3.5,-56.5 3.5,-75.5 62.5,-75.5 62.5,-56.5 3.5,-56.5"/>
<text text-anchor="middle" x="33" y="-63.5" font-family="Helvetica,sans-Serif" font-size="10.00">apetag.h</text>
</a>
</g>
</g>
<!-- Node2&#45;&gt;Node3 -->
<g id="edge2" class="edge">
<title>Node2&#45;&gt;Node3</title>
<path fill="none" stroke="midnightblue" d="M33,-101.8C33,-92.91 33,-82.78 33,-75.75"/>
<polygon fill="midnightblue" stroke="midnightblue" points="29.5,-102.08 33,-112.08 36.5,-102.08 29.5,-102.08"/>
</g>
<!-- Node7 -->
<g id="node7" class="node">
<title>Node7</title>
<g id="a_node7"><a xlink:href="wavfile_8h.html" target="_top" xlink:title=" ">
<polygon fill="white" stroke="black" points="223.5,-56.5 223.5,-75.5 284.5,-75.5 284.5,-56.5 223.5,-56.5"/>
<text text-anchor="middle" x="254" y="-63.5" font-family="Helvetica,sans-Serif" font-size="10.00">wavfile.h</text>
</a>
</g>
</g>
<!-- Node6&#45;&gt;Node7 -->
<g id="edge6" class="edge">
<title>Node6&#45;&gt;Node7</title>
<path fill="none" stroke="midnightblue" d="M278.38,-103.57C272.18,-94.27 264.83,-83.25 259.83,-75.75"/>
<polygon fill="midnightblue" stroke="midnightblue" points="275.6,-105.7 284.06,-112.08 281.42,-101.82 275.6,-105.7"/>
</g>
<!-- Node9 -->
<g id="node9" class="node">
<title>Node9</title>
<g id="a_node9"><a xlink:href="mp4itemfactory_8h.html" target="_top" xlink:title=" ">
<polygon fill="white" stroke="black" points="302.5,-56.5 302.5,-75.5 405.5,-75.5 405.5,-56.5 302.5,-56.5"/>
<text text-anchor="middle" x="354" y="-63.5" font-family="Helvetica,sans-Serif" font-size="10.00">mp4itemfactory.h</text>
</a>
</g>
</g>
<!-- Node8&#45;&gt;Node9 -->
<g id="edge8" class="edge">
<title>Node8&#45;&gt;Node9</title>
<path fill="none" stroke="midnightblue" d="M366.45,-102.4C363.28,-93.36 359.61,-82.94 357.08,-75.75"/>
<polygon fill="midnightblue" stroke="midnightblue" points="363.24,-103.81 369.86,-112.08 369.85,-101.49 363.24,-103.81"/>
</g>
<!-- Node8&#45;&gt;Node10 -->
<g id="edge9" class="edge">
<title>Node8&#45;&gt;Node10</title>
<path fill="none" stroke="midnightblue" d="M394.83,-106.62C409.81,-96.76 429.2,-83.99 441.86,-75.65"/>
<polygon fill="midnightblue" stroke="midnightblue" points="392.6,-103.9 386.17,-112.32 396.45,-109.75 392.6,-103.9"/>
</g>
<!-- Node11 -->
<g id="node11" class="node">
<title>Node11</title>
<g id="a_node11"><a xlink:href="mp4file_8h.html" target="_top" xlink:title=" ">
<polygon fill="white" stroke="black" points="424,-0.5 424,-19.5 486,-19.5 486,-0.5 424,-0.5"/>
<text text-anchor="middle" x="455" y="-7.5" font-family="Helvetica,sans-Serif" font-size="10.00">mp4file.h</text>
</a>
</g>
</g>
<!-- Node10&#45;&gt;Node11 -->
<g id="edge10" class="edge">
<title>Node10&#45;&gt;Node11</title>
<path fill="none" stroke="midnightblue" d="M455,-45.8C455,-36.91 455,-26.78 455,-19.75"/>
<polygon fill="midnightblue" stroke="midnightblue" points="451.5,-46.08 455,-56.08 458.5,-46.08 451.5,-46.08"/>
</g>
<!-- Node15 -->
<g id="node15" class="node">
<title>Node15</title>
<g id="a_node15"><a xlink:href="oggflacfile_8h.html" target="_top" xlink:title=" ">
<polygon fill="white" stroke="black" points="608,-56.5 608,-75.5 684,-75.5 684,-56.5 608,-56.5"/>
<text text-anchor="middle" x="646" y="-63.5" font-family="Helvetica,sans-Serif" font-size="10.00">oggflacfile.h</text>
</a>
</g>
</g>
<!-- Node14&#45;&gt;Node15 -->
<g id="edge15" class="edge">
<title>Node14&#45;&gt;Node15</title>
<path fill="none" stroke="midnightblue" d="M746.68,-108.5C722.12,-98.38 688.18,-84.39 666.66,-75.52"/>
<polygon fill="midnightblue" stroke="midnightblue" points="745.66,-111.87 756.24,-112.44 748.33,-105.4 745.66,-111.87"/>
</g>
<!-- Node16 -->
<g id="node16" class="node">
<title>Node16</title>
<g id="a_node16"><a xlink:href="opusfile_8h.html" target="_top" xlink:title=" ">
<polygon fill="white" stroke="black" points="702,-56.5 702,-75.5 766,-75.5 766,-56.5 702,-56.5"/>
<text text-anchor="middle" x="734" y="-63.5" font-family="Helvetica,sans-Serif" font-size="10.00">opusfile.h</text>
</a>
</g>
</g>
<!-- Node14&#45;&gt;Node16 -->
<g id="edge16" class="edge">
<title>Node14&#45;&gt;Node16</title>
<path fill="none" stroke="midnightblue" d="M763.58,-104.14C756.09,-94.74 747.06,-83.4 740.97,-75.75"/>
<polygon fill="midnightblue" stroke="midnightblue" points="760.93,-106.44 769.9,-112.08 766.41,-102.08 760.93,-106.44"/>
</g>
<!-- Node17 -->
<g id="node17" class="node">
<title>Node17</title>
<g id="a_node17"><a xlink:href="speexfile_8h.html" target="_top" xlink:title=" ">
<polygon fill="white" stroke="black" points="784,-56.5 784,-75.5 854,-75.5 854,-56.5 784,-56.5"/>
<text text-anchor="middle" x="819" y="-63.5" font-family="Helvetica,sans-Serif" font-size="10.00">speexfile.h</text>
</a>
</g>
</g>
<!-- Node14&#45;&gt;Node17 -->
<g id="edge17" class="edge">
<title>Node14&#45;&gt;Node17</title>
<path fill="none" stroke="midnightblue" d="M790.11,-104.14C797.43,-94.74 806.24,-83.4 812.19,-75.75"/>
<polygon fill="midnightblue" stroke="midnightblue" points="787.31,-102.04 783.94,-112.08 792.84,-106.34 787.31,-102.04"/>
</g>
<!-- Node18 -->
<g id="node18" class="node">
<title>Node18</title>
<g id="a_node18"><a xlink:href="vorbisfile_8h.html" target="_top" xlink:title=" ">
<polygon fill="white" stroke="black" points="872.5,-56.5 872.5,-75.5 943.5,-75.5 943.5,-56.5 872.5,-56.5"/>
<text text-anchor="middle" x="908" y="-63.5" font-family="Helvetica,sans-Serif" font-size="10.00">vorbisfile.h</text>
</a>
</g>
</g>
<!-- Node14&#45;&gt;Node18 -->
<g id="edge18" class="edge">
<title>Node14&#45;&gt;Node18</title>
<path fill="none" stroke="midnightblue" d="M807.32,-108.5C831.88,-98.38 865.82,-84.39 887.34,-75.52"/>
<polygon fill="midnightblue" stroke="midnightblue" points="805.67,-105.4 797.76,-112.44 808.34,-111.87 805.67,-105.4"/>
</g>
</g>
</svg>
