<?xml version="1.0" encoding="UTF-8" standalone="no"?>
<!DOCTYPE svg PUBLIC "-//W3C//DTD SVG 1.1//EN"
 "http://www.w3.org/Graphics/SVG/1.1/DTD/svg11.dtd">
<!-- Generated by graphviz version 2.46.1 (20210213.1702)
 -->
<!-- Title: tstringlist.h Pages: 1 -->
<svg width="415pt" height="252pt"
 viewBox="0.00 0.00 414.51 252.00" xmlns="http://www.w3.org/2000/svg" xmlns:xlink="http://www.w3.org/1999/xlink">
<g id="graph0" class="graph" transform="scale(1 1) rotate(0) translate(4 248)">
<title>tstringlist.h</title>
<polygon fill="white" stroke="transparent" points="-4,4 -4,-248 410.51,-248 410.51,4 -4,4"/>
<!-- Node1 -->
<g id="node1" class="node">
<title>Node1</title>
<g id="a_node1"><a xlink:title=" ">
<polygon fill="#bfbfbf" stroke="black" points="162.51,-224.5 162.51,-243.5 227.51,-243.5 227.51,-224.5 162.51,-224.5"/>
<text text-anchor="middle" x="195.01" y="-231.5" font-family="Helvetica,sans-Serif" font-size="10.00">tstringlist.h</text>
</a>
</g>
</g>
<!-- Node2 -->
<g id="node2" class="node">
<title>Node2</title>
<g id="a_node2"><a xlink:href="tstring_8h.html" target="_top" xlink:title=" ">
<polygon fill="white" stroke="black" points="82.01,-168.5 82.01,-187.5 134.01,-187.5 134.01,-168.5 82.01,-168.5"/>
<text text-anchor="middle" x="108.01" y="-175.5" font-family="Helvetica,sans-Serif" font-size="10.00">tstring.h</text>
</a>
</g>
</g>
<!-- Node1&#45;&gt;Node2 -->
<g id="edge1" class="edge">
<title>Node1&#45;&gt;Node2</title>
<path fill="none" stroke="midnightblue" d="M181.03,-224.32C167.46,-215.9 146.63,-202.97 130.68,-193.07"/>
<polygon fill="midnightblue" stroke="midnightblue" points="132.3,-189.95 121.95,-187.65 128.6,-195.9 132.3,-189.95"/>
</g>
<!-- Node3 -->
<g id="node3" class="node">
<title>Node3</title>
<g id="a_node3"><a xlink:href="taglib__export_8h.html" target="_top" xlink:title=" ">
<polygon fill="white" stroke="black" points="12.01,-56.5 12.01,-75.5 92.01,-75.5 92.01,-56.5 12.01,-56.5"/>
<text text-anchor="middle" x="52.01" y="-63.5" font-family="Helvetica,sans-Serif" font-size="10.00">taglib_export.h</text>
</a>
</g>
</g>
<!-- Node1&#45;&gt;Node3 -->
<g id="edge21" class="edge">
<title>Node1&#45;&gt;Node3</title>
<path fill="none" stroke="midnightblue" d="M162.39,-228.05C135.51,-222.46 97.91,-210.95 73.01,-188 46.76,-163.8 45.04,-147.65 47.01,-112 47.49,-103.36 48.48,-93.83 49.46,-85.77"/>
<polygon fill="midnightblue" stroke="midnightblue" points="52.96,-85.97 50.77,-75.6 46.02,-85.07 52.96,-85.97"/>
</g>
<!-- Node9 -->
<g id="node9" class="node">
<title>Node9</title>
<g id="a_node9"><a xlink:title=" ">
<polygon fill="white" stroke="#bfbfbf" points="110.01,-56.5 110.01,-75.5 164.01,-75.5 164.01,-56.5 110.01,-56.5"/>
<text text-anchor="middle" x="137.01" y="-63.5" font-family="Helvetica,sans-Serif" font-size="10.00">iostream</text>
</a>
</g>
</g>
<!-- Node1&#45;&gt;Node9 -->
<g id="edge22" class="edge">
<title>Node1&#45;&gt;Node9</title>
<path fill="none" stroke="midnightblue" d="M210.79,-224.47C223.21,-216.77 239.61,-204.18 247.01,-188 250.7,-179.92 249.05,-176.65 247.01,-168 240.62,-140.92 238.31,-132.05 219.01,-112 205.45,-97.92 186.52,-87.13 170.25,-79.65"/>
<polygon fill="midnightblue" stroke="midnightblue" points="171.62,-76.42 161.05,-75.63 168.81,-82.84 171.62,-76.42"/>
</g>
<!-- Node10 -->
<g id="node10" class="node">
<title>Node10</title>
<g id="a_node10"><a xlink:href="tlist_8h.html" target="_top" xlink:title=" ">
<polygon fill="white" stroke="black" points="304.51,-112.5 304.51,-131.5 345.51,-131.5 345.51,-112.5 304.51,-112.5"/>
<text text-anchor="middle" x="325.01" y="-119.5" font-family="Helvetica,sans-Serif" font-size="10.00">tlist.h</text>
</a>
</g>
</g>
<!-- Node1&#45;&gt;Node10 -->
<g id="edge13" class="edge">
<title>Node1&#45;&gt;Node10</title>
<path fill="none" stroke="midnightblue" d="M224.44,-224.49C244.81,-217.4 271.48,-205.59 290.01,-188 303.64,-175.06 313.13,-155.62 318.76,-141.37"/>
<polygon fill="midnightblue" stroke="midnightblue" points="322.16,-142.27 322.32,-131.68 315.59,-139.86 322.16,-142.27"/>
</g>
<!-- Node13 -->
<g id="node13" class="node">
<title>Node13</title>
<g id="a_node13"><a xlink:href="tbytevectorlist_8h.html" target="_top" xlink:title=" ">
<polygon fill="white" stroke="black" points="152.01,-168.5 152.01,-187.5 238.01,-187.5 238.01,-168.5 152.01,-168.5"/>
<text text-anchor="middle" x="195.01" y="-175.5" font-family="Helvetica,sans-Serif" font-size="10.00">tbytevectorlist.h</text>
</a>
</g>
</g>
<!-- Node1&#45;&gt;Node13 -->
<g id="edge17" class="edge">
<title>Node1&#45;&gt;Node13</title>
<path fill="none" stroke="midnightblue" d="M195.01,-224.08C195.01,-217.01 195.01,-206.86 195.01,-197.99"/>
<polygon fill="midnightblue" stroke="midnightblue" points="198.51,-197.75 195.01,-187.75 191.51,-197.75 198.51,-197.75"/>
</g>
<!-- Node2&#45;&gt;Node3 -->
<g id="edge2" class="edge">
<title>Node2&#45;&gt;Node3</title>
<path fill="none" stroke="midnightblue" d="M92.73,-168.5C80.44,-160.74 63.95,-148.05 56.01,-132 48.88,-117.59 48.44,-99.14 49.45,-85.57"/>
<polygon fill="midnightblue" stroke="midnightblue" points="52.94,-85.85 50.53,-75.53 45.98,-85.1 52.94,-85.85"/>
</g>
<!-- Node4 -->
<g id="node4" class="node">
<title>Node4</title>
<g id="a_node4"><a xlink:href="taglib_8h.html" target="_top" xlink:title=" ">
<polygon fill="white" stroke="black" points="244.01,-56.5 244.01,-75.5 292.01,-75.5 292.01,-56.5 244.01,-56.5"/>
<text text-anchor="middle" x="268.01" y="-63.5" font-family="Helvetica,sans-Serif" font-size="10.00">taglib.h</text>
</a>
</g>
</g>
<!-- Node2&#45;&gt;Node4 -->
<g id="edge3" class="edge">
<title>Node2&#45;&gt;Node4</title>
<path fill="none" stroke="midnightblue" d="M133.43,-168.48C161.68,-158.7 205.16,-142.64 219.01,-132 235.76,-119.13 249.66,-99.12 258.32,-84.71"/>
<polygon fill="midnightblue" stroke="midnightblue" points="261.51,-86.19 263.46,-75.77 255.44,-82.7 261.51,-86.19"/>
</g>
<!-- Node6 -->
<g id="node6" class="node">
<title>Node6</title>
<g id="a_node6"><a xlink:title=" ">
<polygon fill="white" stroke="#bfbfbf" points="66.51,-0.5 66.51,-19.5 107.51,-19.5 107.51,-0.5 66.51,-0.5"/>
<text text-anchor="middle" x="87.01" y="-7.5" font-family="Helvetica,sans-Serif" font-size="10.00">string</text>
</a>
</g>
</g>
<!-- Node2&#45;&gt;Node6 -->
<g id="edge11" class="edge">
<title>Node2&#45;&gt;Node6</title>
<path fill="none" stroke="midnightblue" d="M92.2,-168.45C66.85,-153.63 18.39,-120.46 3.01,-76 0.1,-67.6 -1.56,-63.63 3.01,-56 14.54,-36.75 37.43,-25.27 56.4,-18.72"/>
<polygon fill="midnightblue" stroke="midnightblue" points="57.68,-21.99 66.17,-15.66 55.58,-15.31 57.68,-21.99"/>
</g>
<!-- Node7 -->
<g id="node7" class="node">
<title>Node7</title>
<g id="a_node7"><a xlink:href="tbytevector_8h.html" target="_top" xlink:title=" ">
<polygon fill="white" stroke="black" points="136.51,-112.5 136.51,-131.5 209.51,-131.5 209.51,-112.5 136.51,-112.5"/>
<text text-anchor="middle" x="173.01" y="-119.5" font-family="Helvetica,sans-Serif" font-size="10.00">tbytevector.h</text>
</a>
</g>
</g>
<!-- Node2&#45;&gt;Node7 -->
<g id="edge6" class="edge">
<title>Node2&#45;&gt;Node7</title>
<path fill="none" stroke="midnightblue" d="M118.45,-168.32C128.16,-160.26 142.82,-148.08 154.51,-138.37"/>
<polygon fill="midnightblue" stroke="midnightblue" points="156.92,-140.92 162.38,-131.83 152.45,-135.53 156.92,-140.92"/>
</g>
<!-- Node2&#45;&gt;Node9 -->
<g id="edge12" class="edge">
<title>Node2&#45;&gt;Node9</title>
<path fill="none" stroke="midnightblue" d="M110.29,-168.37C114.99,-150.54 125.86,-109.3 132.19,-85.27"/>
<polygon fill="midnightblue" stroke="midnightblue" points="135.58,-86.15 134.74,-75.59 128.81,-84.37 135.58,-86.15"/>
</g>
<!-- Node5 -->
<g id="node5" class="node">
<title>Node5</title>
<g id="a_node5"><a xlink:title=" ">
<polygon fill="white" stroke="#bfbfbf" points="228.01,-0.5 228.01,-19.5 308.01,-19.5 308.01,-0.5 228.01,-0.5"/>
<text text-anchor="middle" x="268.01" y="-7.5" font-family="Helvetica,sans-Serif" font-size="10.00">taglib_config.h</text>
</a>
</g>
</g>
<!-- Node4&#45;&gt;Node5 -->
<g id="edge4" class="edge">
<title>Node4&#45;&gt;Node5</title>
<path fill="none" stroke="midnightblue" d="M268.01,-56.08C268.01,-49.01 268.01,-38.86 268.01,-29.99"/>
<polygon fill="midnightblue" stroke="midnightblue" points="271.51,-29.75 268.01,-19.75 264.51,-29.75 271.51,-29.75"/>
</g>
<!-- Node4&#45;&gt;Node6 -->
<g id="edge5" class="edge">
<title>Node4&#45;&gt;Node6</title>
<path fill="none" stroke="midnightblue" d="M243.97,-57.83C211.42,-48.12 153.28,-30.77 117.63,-20.13"/>
<polygon fill="midnightblue" stroke="midnightblue" points="118.36,-16.7 107.78,-17.2 116.36,-23.41 118.36,-16.7"/>
</g>
<!-- Node7&#45;&gt;Node3 -->
<g id="edge8" class="edge">
<title>Node7&#45;&gt;Node3</title>
<path fill="none" stroke="midnightblue" d="M153.84,-112.44C134.1,-103.64 103.12,-89.81 80.52,-79.72"/>
<polygon fill="midnightblue" stroke="midnightblue" points="81.65,-76.4 71.09,-75.52 78.8,-82.79 81.65,-76.4"/>
</g>
<!-- Node7&#45;&gt;Node4 -->
<g id="edge7" class="edge">
<title>Node7&#45;&gt;Node4</title>
<path fill="none" stroke="midnightblue" d="M188.27,-112.32C203.23,-103.82 226.26,-90.73 243.74,-80.8"/>
<polygon fill="midnightblue" stroke="midnightblue" points="245.82,-83.64 252.78,-75.65 242.36,-77.55 245.82,-83.64"/>
</g>
<!-- Node8 -->
<g id="node8" class="node">
<title>Node8</title>
<g id="a_node8"><a xlink:title=" ">
<polygon fill="white" stroke="#bfbfbf" points="182.01,-56.5 182.01,-75.5 226.01,-75.5 226.01,-56.5 182.01,-56.5"/>
<text text-anchor="middle" x="204.01" y="-63.5" font-family="Helvetica,sans-Serif" font-size="10.00">vector</text>
</a>
</g>
</g>
<!-- Node7&#45;&gt;Node8 -->
<g id="edge9" class="edge">
<title>Node7&#45;&gt;Node8</title>
<path fill="none" stroke="midnightblue" d="M178.13,-112.08C182.42,-104.61 188.67,-93.72 193.95,-84.52"/>
<polygon fill="midnightblue" stroke="midnightblue" points="197.04,-86.17 198.99,-75.75 190.97,-82.68 197.04,-86.17"/>
</g>
<!-- Node7&#45;&gt;Node9 -->
<g id="edge10" class="edge">
<title>Node7&#45;&gt;Node9</title>
<path fill="none" stroke="midnightblue" d="M167.06,-112.08C162.03,-104.53 154.67,-93.49 148.5,-84.23"/>
<polygon fill="midnightblue" stroke="midnightblue" points="151.3,-82.13 142.84,-75.75 145.48,-86.01 151.3,-82.13"/>
</g>
<!-- Node10&#45;&gt;Node4 -->
<g id="edge14" class="edge">
<title>Node10&#45;&gt;Node4</title>
<path fill="none" stroke="midnightblue" d="M315.85,-112.32C307.51,-104.42 294.98,-92.55 284.83,-82.94"/>
<polygon fill="midnightblue" stroke="midnightblue" points="287,-80.17 277.33,-75.83 282.19,-85.25 287,-80.17"/>
</g>
<!-- Node11 -->
<g id="node11" class="node">
<title>Node11</title>
<g id="a_node11"><a xlink:title=" ">
<polygon fill="white" stroke="#bfbfbf" points="377.51,-56.5 377.51,-75.5 406.51,-75.5 406.51,-56.5 377.51,-56.5"/>
<text text-anchor="middle" x="392.01" y="-63.5" font-family="Helvetica,sans-Serif" font-size="10.00">list</text>
</a>
</g>
</g>
<!-- Node10&#45;&gt;Node11 -->
<g id="edge15" class="edge">
<title>Node10&#45;&gt;Node11</title>
<path fill="none" stroke="midnightblue" d="M335.77,-112.32C345.78,-104.26 360.9,-92.08 372.94,-82.37"/>
<polygon fill="midnightblue" stroke="midnightblue" points="375.46,-84.83 381.05,-75.83 371.07,-79.38 375.46,-84.83"/>
</g>
<!-- Node12 -->
<g id="node12" class="node">
<title>Node12</title>
<g id="a_node12"><a xlink:title=" ">
<polygon fill="white" stroke="#bfbfbf" points="310.51,-56.5 310.51,-75.5 359.51,-75.5 359.51,-56.5 310.51,-56.5"/>
<text text-anchor="middle" x="335.01" y="-63.5" font-family="Helvetica,sans-Serif" font-size="10.00">tlist.tcc</text>
</a>
</g>
</g>
<!-- Node10&#45;&gt;Node12 -->
<g id="edge16" class="edge">
<title>Node10&#45;&gt;Node12</title>
<path fill="none" stroke="midnightblue" d="M326.66,-112.08C327.99,-104.93 329.89,-94.64 331.55,-85.69"/>
<polygon fill="midnightblue" stroke="midnightblue" points="335.01,-86.22 333.39,-75.75 328.13,-84.95 335.01,-86.22"/>
</g>
<!-- Node13&#45;&gt;Node3 -->
<g id="edge18" class="edge">
<title>Node13&#45;&gt;Node3</title>
<path fill="none" stroke="midnightblue" d="M180.84,-168.38C166.83,-159.67 144.94,-145.61 127.01,-132 106.17,-116.18 83.66,-96.25 68.79,-82.66"/>
<polygon fill="midnightblue" stroke="midnightblue" points="71.11,-80.03 61.38,-75.83 66.36,-85.18 71.11,-80.03"/>
</g>
<!-- Node13&#45;&gt;Node7 -->
<g id="edge19" class="edge">
<title>Node13&#45;&gt;Node7</title>
<path fill="none" stroke="midnightblue" d="M191.38,-168.08C188.4,-160.77 184.08,-150.18 180.38,-141.1"/>
<polygon fill="midnightblue" stroke="midnightblue" points="183.59,-139.69 176.57,-131.75 177.11,-142.33 183.59,-139.69"/>
</g>
<!-- Node13&#45;&gt;Node10 -->
<g id="edge20" class="edge">
<title>Node13&#45;&gt;Node10</title>
<path fill="none" stroke="midnightblue" d="M215.61,-168.44C237,-159.56 270.69,-145.56 295.03,-135.45"/>
<polygon fill="midnightblue" stroke="midnightblue" points="296.61,-138.58 304.51,-131.52 293.93,-132.12 296.61,-138.58"/>
</g>
</g>
</svg>
