<?xml version="1.0" encoding="UTF-8" standalone="no"?>
<!DOCTYPE svg PUBLIC "-//W3C//DTD SVG 1.1//EN"
 "http://www.w3.org/Graphics/SVG/1.1/DTD/svg11.dtd">
<!-- Generated by graphviz version 2.42.4 (0)
 -->
<!-- Title: tstringlist.h Pages: 1 -->
<svg width="874pt" height="192pt"
 viewBox="0.00 0.00 873.50 192.00" xmlns="http://www.w3.org/2000/svg" xmlns:xlink="http://www.w3.org/1999/xlink">
<g id="graph0" class="graph" transform="scale(1 1) rotate(0) translate(4 188)">
<title>tstringlist.h</title>
<!-- Node1 -->
<g id="Node000001" class="node">
<title>Node1</title>
<g id="a_Node000001"><a xlink:title=" ">
<polygon fill="#999999" stroke="#666666" points="362,-184 290,-184 290,-165 362,-165 362,-184"/>
<text text-anchor="middle" x="326" y="-172" font-family="Helvetica,sans-Serif" font-size="10.00">tstringlist.h</text>
</a>
</g>
</g>
<!-- Node2 -->
<g id="Node000002" class="node">
<title>Node2</title>
<g id="a_Node000002"><a xlink:href="apeitem_8h.html" target="_top" xlink:title=" ">
<polygon fill="white" stroke="#666666" points="66,-129 0,-129 0,-110 66,-110 66,-129"/>
<text text-anchor="middle" x="33" y="-117" font-family="Helvetica,sans-Serif" font-size="10.00">apeitem.h</text>
</a>
</g>
</g>
<!-- Node1&#45;&gt;Node2 -->
<g id="edge1_Node000001_Node000002" class="edge">
<title>Node1&#45;&gt;Node2</title>
<g id="a_edge1_Node000001_Node000002"><a xlink:title=" ">
<path fill="none" stroke="#63b8ff" d="M279.85,-165.66C229.45,-157.02 146.39,-142.55 75,-129 72.08,-128.45 69.04,-127.86 66,-127.26"/>
<polygon fill="#63b8ff" stroke="#63b8ff" points="279.34,-169.13 289.79,-167.36 280.52,-162.23 279.34,-169.13"/>
</a>
</g>
</g>
<!-- Node4 -->
<g id="Node000004" class="node">
<title>Node4</title>
<g id="a_Node000004"><a xlink:href="fileref_8h.html" target="_top" xlink:title=" ">
<polygon fill="white" stroke="#666666" points="137.5,-129 84.5,-129 84.5,-110 137.5,-110 137.5,-129"/>
<text text-anchor="middle" x="111" y="-117" font-family="Helvetica,sans-Serif" font-size="10.00">fileref.h</text>
</a>
</g>
</g>
<!-- Node1&#45;&gt;Node4 -->
<g id="edge3_Node000001_Node000004" class="edge">
<title>Node1&#45;&gt;Node4</title>
<g id="a_edge3_Node000001_Node000004"><a xlink:title=" ">
<path fill="none" stroke="#63b8ff" d="M281.73,-162.59C238.35,-151.89 173.66,-135.95 137.65,-127.07"/>
<polygon fill="#63b8ff" stroke="#63b8ff" points="280.91,-165.99 291.46,-164.98 282.58,-159.19 280.91,-165.99"/>
</a>
</g>
</g>
<!-- Node5 -->
<g id="Node000005" class="node">
<title>Node5</title>
<g id="a_Node000005"><a xlink:href="id3v1genres_8h.html" target="_top" xlink:title=" ">
<polygon fill="white" stroke="#666666" points="242,-129 156,-129 156,-110 242,-110 242,-129"/>
<text text-anchor="middle" x="199" y="-117" font-family="Helvetica,sans-Serif" font-size="10.00">id3v1genres.h</text>
</a>
</g>
</g>
<!-- Node1&#45;&gt;Node5 -->
<g id="edge4_Node000001_Node000005" class="edge">
<title>Node1&#45;&gt;Node5</title>
<g id="a_edge4_Node000001_Node000005"><a xlink:title=" ">
<path fill="none" stroke="#63b8ff" d="M296.12,-161.03C272.63,-151.23 240.53,-137.83 219.78,-129.17"/>
<polygon fill="#63b8ff" stroke="#63b8ff" points="295.02,-164.36 305.6,-164.98 297.71,-157.9 295.02,-164.36"/>
</a>
</g>
</g>
<!-- Node6 -->
<g id="Node000006" class="node">
<title>Node6</title>
<g id="a_Node000006"><a xlink:href="mp4item_8h.html" target="_top" xlink:title=" ">
<polygon fill="white" stroke="#666666" points="330,-129 260,-129 260,-110 330,-110 330,-129"/>
<text text-anchor="middle" x="295" y="-117" font-family="Helvetica,sans-Serif" font-size="10.00">mp4item.h</text>
</a>
</g>
</g>
<!-- Node1&#45;&gt;Node6 -->
<g id="edge5_Node000001_Node000006" class="edge">
<title>Node1&#45;&gt;Node6</title>
<g id="a_edge5_Node000001_Node000006"><a xlink:title=" ">
<path fill="none" stroke="#63b8ff" d="M315.82,-156.1C310.53,-147.04 304.28,-136.37 300.02,-129.09"/>
<polygon fill="#63b8ff" stroke="#63b8ff" points="312.81,-157.88 320.88,-164.75 318.85,-154.35 312.81,-157.88"/>
</a>
</g>
</g>
<!-- Node8 -->
<g id="Node000008" class="node">
<title>Node8</title>
<g id="a_Node000008"><a xlink:href="mp4tag_8h.html" target="_top" xlink:title=" ">
<polygon fill="white" stroke="#666666" points="389.5,-74 326.5,-74 326.5,-55 389.5,-55 389.5,-74"/>
<text text-anchor="middle" x="358" y="-62" font-family="Helvetica,sans-Serif" font-size="10.00">mp4tag.h</text>
</a>
</g>
</g>
<!-- Node1&#45;&gt;Node8 -->
<g id="edge9_Node000001_Node000008" class="edge">
<title>Node1&#45;&gt;Node8</title>
<g id="a_edge9_Node000001_Node000008"><a xlink:title=" ">
<path fill="none" stroke="#63b8ff" d="M331.54,-154.8C338.53,-131.2 350.27,-91.58 355.43,-74.16"/>
<polygon fill="#63b8ff" stroke="#63b8ff" points="328.1,-154.08 328.62,-164.66 334.82,-156.07 328.1,-154.08"/>
</a>
</g>
</g>
<!-- Node10 -->
<g id="Node000010" class="node">
<title>Node10</title>
<g id="a_Node000010"><a xlink:href="textidentificationframe_8h.html" target="_top" xlink:title=" ">
<polygon fill="white" stroke="#666666" points="524,-129 386,-129 386,-110 524,-110 524,-129"/>
<text text-anchor="middle" x="455" y="-117" font-family="Helvetica,sans-Serif" font-size="10.00">textidentificationframe.h</text>
</a>
</g>
</g>
<!-- Node1&#45;&gt;Node10 -->
<g id="edge10_Node000001_Node000010" class="edge">
<title>Node1&#45;&gt;Node10</title>
<g id="a_edge10_Node000001_Node000010"><a xlink:title=" ">
<path fill="none" stroke="#63b8ff" d="M356.04,-161.16C379.92,-151.35 412.72,-137.87 433.9,-129.17"/>
<polygon fill="#63b8ff" stroke="#63b8ff" points="354.65,-157.95 346.73,-164.98 357.31,-164.42 354.65,-157.95"/>
</a>
</g>
</g>
<!-- Node11 -->
<g id="Node000011" class="node">
<title>Node11</title>
<g id="a_Node000011"><a xlink:href="tpropertymap_8h.html" target="_top" xlink:title=" ">
<polygon fill="white" stroke="#666666" points="634,-129 542,-129 542,-110 634,-110 634,-129"/>
<text text-anchor="middle" x="588" y="-117" font-family="Helvetica,sans-Serif" font-size="10.00">tpropertymap.h</text>
</a>
</g>
</g>
<!-- Node1&#45;&gt;Node11 -->
<g id="edge11_Node000001_Node000011" class="edge">
<title>Node1&#45;&gt;Node11</title>
<g id="a_edge11_Node000001_Node000011"><a xlink:title=" ">
<path fill="none" stroke="#63b8ff" d="M372.18,-164.16C421.26,-154.23 498.19,-138.67 545.72,-129.05"/>
<polygon fill="#63b8ff" stroke="#63b8ff" points="371.26,-160.77 362.15,-166.19 372.65,-167.63 371.26,-160.77"/>
</a>
</g>
</g>
<!-- Node12 -->
<g id="Node000012" class="node">
<title>Node12</title>
<g id="a_Node000012"><a xlink:href="xiphcomment_8h.html" target="_top" xlink:title=" ">
<polygon fill="white" stroke="#666666" points="745.5,-129 652.5,-129 652.5,-110 745.5,-110 745.5,-129"/>
<text text-anchor="middle" x="699" y="-117" font-family="Helvetica,sans-Serif" font-size="10.00">xiphcomment.h</text>
</a>
</g>
</g>
<!-- Node1&#45;&gt;Node12 -->
<g id="edge12_Node000001_Node000012" class="edge">
<title>Node1&#45;&gt;Node12</title>
<g id="a_edge12_Node000001_Node000012"><a xlink:title=" ">
<path fill="none" stroke="#63b8ff" d="M372.35,-167.16C434.12,-158.67 546.83,-143.05 643,-129 646.02,-128.56 649.12,-128.1 652.25,-127.64"/>
<polygon fill="#63b8ff" stroke="#63b8ff" points="371.58,-163.73 362.15,-168.56 372.53,-170.67 371.58,-163.73"/>
</a>
</g>
</g>
<!-- Node3 -->
<g id="Node000003" class="node">
<title>Node3</title>
<g id="a_Node000003"><a xlink:href="apetag_8h.html" target="_top" xlink:title=" ">
<polygon fill="white" stroke="#666666" points="62.5,-74 3.5,-74 3.5,-55 62.5,-55 62.5,-74"/>
<text text-anchor="middle" x="33" y="-62" font-family="Helvetica,sans-Serif" font-size="10.00">apetag.h</text>
</a>
</g>
</g>
<!-- Node2&#45;&gt;Node3 -->
<g id="edge2_Node000002_Node000003" class="edge">
<title>Node2&#45;&gt;Node3</title>
<g id="a_edge2_Node000002_Node000003"><a xlink:title=" ">
<path fill="none" stroke="#63b8ff" d="M33,-99.66C33,-90.93 33,-80.99 33,-74.09"/>
<polygon fill="#63b8ff" stroke="#63b8ff" points="29.5,-99.75 33,-109.75 36.5,-99.75 29.5,-99.75"/>
</a>
</g>
</g>
<!-- Node7 -->
<g id="Node000007" class="node">
<title>Node7</title>
<g id="a_Node000007"><a xlink:href="mp4itemfactory_8h.html" target="_top" xlink:title=" ">
<polygon fill="white" stroke="#666666" points="308.5,-74 205.5,-74 205.5,-55 308.5,-55 308.5,-74"/>
<text text-anchor="middle" x="257" y="-62" font-family="Helvetica,sans-Serif" font-size="10.00">mp4itemfactory.h</text>
</a>
</g>
</g>
<!-- Node6&#45;&gt;Node7 -->
<g id="edge6_Node000006_Node000007" class="edge">
<title>Node6&#45;&gt;Node7</title>
<g id="a_edge6_Node000006_Node000007"><a xlink:title=" ">
<path fill="none" stroke="#63b8ff" d="M282.73,-101.39C276.19,-92.27 268.43,-81.45 263.16,-74.09"/>
<polygon fill="#63b8ff" stroke="#63b8ff" points="280.05,-103.66 288.73,-109.75 285.74,-99.58 280.05,-103.66"/>
</a>
</g>
</g>
<!-- Node6&#45;&gt;Node8 -->
<g id="edge7_Node000006_Node000008" class="edge">
<title>Node6&#45;&gt;Node8</title>
<g id="a_edge7_Node000006_Node000008"><a xlink:title=" ">
<path fill="none" stroke="#63b8ff" d="M313.04,-103.32C324.27,-93.87 338.32,-82.06 347.69,-74.17"/>
<polygon fill="#63b8ff" stroke="#63b8ff" points="310.52,-100.87 305.12,-109.98 315.03,-106.23 310.52,-100.87"/>
</a>
</g>
</g>
<!-- Node9 -->
<g id="Node000009" class="node">
<title>Node9</title>
<g id="a_Node000009"><a xlink:href="mp4file_8h.html" target="_top" xlink:title=" ">
<polygon fill="white" stroke="#666666" points="389,-19 327,-19 327,0 389,0 389,-19"/>
<text text-anchor="middle" x="358" y="-7" font-family="Helvetica,sans-Serif" font-size="10.00">mp4file.h</text>
</a>
</g>
</g>
<!-- Node8&#45;&gt;Node9 -->
<g id="edge8_Node000008_Node000009" class="edge">
<title>Node8&#45;&gt;Node9</title>
<g id="a_edge8_Node000008_Node000009"><a xlink:title=" ">
<path fill="none" stroke="#63b8ff" d="M358,-44.66C358,-35.93 358,-25.99 358,-19.09"/>
<polygon fill="#63b8ff" stroke="#63b8ff" points="354.5,-44.75 358,-54.75 361.5,-44.75 354.5,-44.75"/>
</a>
</g>
</g>
<!-- Node13 -->
<g id="Node000013" class="node">
<title>Node13</title>
<g id="a_Node000013"><a xlink:href="oggflacfile_8h.html" target="_top" xlink:title=" ">
<polygon fill="white" stroke="#666666" points="606,-74 530,-74 530,-55 606,-55 606,-74"/>
<text text-anchor="middle" x="568" y="-62" font-family="Helvetica,sans-Serif" font-size="10.00">oggflacfile.h</text>
</a>
</g>
</g>
<!-- Node12&#45;&gt;Node13 -->
<g id="edge13_Node000012_Node000013" class="edge">
<title>Node12&#45;&gt;Node13</title>
<g id="a_edge13_Node000012_Node000013"><a xlink:title=" ">
<path fill="none" stroke="#63b8ff" d="M668.5,-106.16C644.25,-96.35 610.93,-82.87 589.43,-74.17"/>
<polygon fill="#63b8ff" stroke="#63b8ff" points="667.37,-109.48 677.95,-109.98 670,-102.99 667.37,-109.48"/>
</a>
</g>
</g>
<!-- Node14 -->
<g id="Node000014" class="node">
<title>Node14</title>
<g id="a_Node000014"><a xlink:href="opusfile_8h.html" target="_top" xlink:title=" ">
<polygon fill="white" stroke="#666666" points="688,-74 624,-74 624,-55 688,-55 688,-74"/>
<text text-anchor="middle" x="656" y="-62" font-family="Helvetica,sans-Serif" font-size="10.00">opusfile.h</text>
</a>
</g>
</g>
<!-- Node12&#45;&gt;Node14 -->
<g id="edge14_Node000012_Node000014" class="edge">
<title>Node12&#45;&gt;Node14</title>
<g id="a_edge14_Node000012_Node000014"><a xlink:title=" ">
<path fill="none" stroke="#63b8ff" d="M685.58,-101.96C678.09,-92.72 669.06,-81.6 662.97,-74.09"/>
<polygon fill="#63b8ff" stroke="#63b8ff" points="682.88,-104.19 691.9,-109.75 688.32,-99.78 682.88,-104.19"/>
</a>
</g>
</g>
<!-- Node15 -->
<g id="Node000015" class="node">
<title>Node15</title>
<g id="a_Node000015"><a xlink:href="speexfile_8h.html" target="_top" xlink:title=" ">
<polygon fill="white" stroke="#666666" points="776,-74 706,-74 706,-55 776,-55 776,-74"/>
<text text-anchor="middle" x="741" y="-62" font-family="Helvetica,sans-Serif" font-size="10.00">speexfile.h</text>
</a>
</g>
</g>
<!-- Node12&#45;&gt;Node15 -->
<g id="edge15_Node000012_Node000015" class="edge">
<title>Node12&#45;&gt;Node15</title>
<g id="a_edge15_Node000012_Node000015"><a xlink:title=" ">
<path fill="none" stroke="#63b8ff" d="M712.33,-101.67C719.61,-92.5 728.3,-81.52 734.19,-74.09"/>
<polygon fill="#63b8ff" stroke="#63b8ff" points="709.4,-99.74 705.94,-109.75 714.89,-104.08 709.4,-99.74"/>
</a>
</g>
</g>
<!-- Node16 -->
<g id="Node000016" class="node">
<title>Node16</title>
<g id="a_Node000016"><a xlink:href="vorbisfile_8h.html" target="_top" xlink:title=" ">
<polygon fill="white" stroke="#666666" points="865.5,-74 794.5,-74 794.5,-55 865.5,-55 865.5,-74"/>
<text text-anchor="middle" x="830" y="-62" font-family="Helvetica,sans-Serif" font-size="10.00">vorbisfile.h</text>
</a>
</g>
</g>
<!-- Node12&#45;&gt;Node16 -->
<g id="edge16_Node000012_Node000016" class="edge">
<title>Node12&#45;&gt;Node16</title>
<g id="a_edge16_Node000012_Node000016"><a xlink:title=" ">
<path fill="none" stroke="#63b8ff" d="M729.5,-106.16C753.75,-96.35 787.07,-82.87 808.57,-74.17"/>
<polygon fill="#63b8ff" stroke="#63b8ff" points="728,-102.99 720.05,-109.98 730.63,-109.48 728,-102.99"/>
</a>
</g>
</g>
</g>
</svg>
