<?xml version="1.0" encoding="UTF-8" standalone="no"?>
<!DOCTYPE svg PUBLIC "-//W3C//DTD SVG 1.1//EN"
 "http://www.w3.org/Graphics/SVG/1.1/DTD/svg11.dtd">
<!-- Generated by graphviz version 2.42.4 (0)
 -->
<!-- Title: tstringlist.h Pages: 1 -->
<svg width="529pt" height="192pt"
 viewBox="0.00 0.00 529.00 192.00" xmlns="http://www.w3.org/2000/svg" xmlns:xlink="http://www.w3.org/1999/xlink">
<g id="graph0" class="graph" transform="scale(1 1) rotate(0) translate(4 188)">
<title>tstringlist.h</title>
<!-- Node1 -->
<g id="Node000001" class="node">
<title>Node1</title>
<g id="a_Node000001"><a xlink:title=" ">
<polygon fill="#999999" stroke="#666666" points="408,-184 336,-184 336,-165 408,-165 408,-184"/>
<text text-anchor="middle" x="372" y="-172" font-family="Helvetica,sans-Serif" font-size="10.00">tstringlist.h</text>
</a>
</g>
</g>
<!-- Node2 -->
<g id="Node000002" class="node">
<title>Node2</title>
<g id="a_Node000002"><a xlink:href="tstring_8h.html" target="_top" xlink:title=" ">
<polygon fill="white" stroke="#666666" points="442.5,-129 385.5,-129 385.5,-110 442.5,-110 442.5,-129"/>
<text text-anchor="middle" x="414" y="-117" font-family="Helvetica,sans-Serif" font-size="10.00">tstring.h</text>
</a>
</g>
</g>
<!-- Node1&#45;&gt;Node2 -->
<g id="edge1_Node000001_Node000002" class="edge">
<title>Node1&#45;&gt;Node2</title>
<g id="a_edge1_Node000001_Node000002"><a xlink:title=" ">
<path fill="none" stroke="#63b8ff" d="M378.94,-164.75C384.87,-157.26 393.57,-146.28 400.82,-137.13"/>
<polygon fill="#63b8ff" stroke="#63b8ff" points="403.73,-139.1 407.19,-129.09 398.24,-134.75 403.73,-139.1"/>
</a>
</g>
</g>
<!-- Node8 -->
<g id="Node000008" class="node">
<title>Node8</title>
<g id="a_Node000008"><a xlink:href="taglib__export_8h.html" target="_top" xlink:title=" ">
<polygon fill="white" stroke="#666666" points="521,-19 431,-19 431,0 521,0 521,-19"/>
<text text-anchor="middle" x="476" y="-7" font-family="Helvetica,sans-Serif" font-size="10.00">taglib_export.h</text>
</a>
</g>
</g>
<!-- Node1&#45;&gt;Node8 -->
<g id="edge18_Node000001_Node000008" class="edge">
<title>Node1&#45;&gt;Node8</title>
<g id="a_edge18_Node000001_Node000008"><a xlink:title=" ">
<path fill="none" stroke="#63b8ff" d="M395.77,-164.91C413.03,-157.63 435.91,-145.7 451,-129 468.88,-109.21 469.35,-100.06 475,-74 478.19,-59.32 478.26,-42.27 477.64,-29.54"/>
<polygon fill="#63b8ff" stroke="#63b8ff" points="481.11,-28.99 476.94,-19.25 474.13,-29.47 481.11,-28.99"/>
</a>
</g>
</g>
<!-- Node9 -->
<g id="Node000009" class="node">
<title>Node9</title>
<g id="a_Node000009"><a xlink:href="tlist_8h.html" target="_top" xlink:title=" ">
<polygon fill="white" stroke="#666666" points="224,-74 180,-74 180,-55 224,-55 224,-74"/>
<text text-anchor="middle" x="202" y="-62" font-family="Helvetica,sans-Serif" font-size="10.00">tlist.h</text>
</a>
</g>
</g>
<!-- Node1&#45;&gt;Node9 -->
<g id="edge9_Node000001_Node000009" class="edge">
<title>Node1&#45;&gt;Node9</title>
<g id="a_edge9_Node000001_Node000009"><a xlink:title=" ">
<path fill="none" stroke="#63b8ff" d="M335.91,-164.95C311.51,-157.98 279.42,-146.41 255,-129 237.52,-116.54 222.38,-96.97 212.81,-82.86"/>
<polygon fill="#63b8ff" stroke="#63b8ff" points="215.5,-80.58 207.11,-74.1 209.64,-84.39 215.5,-80.58"/>
</a>
</g>
</g>
<!-- Node13 -->
<g id="Node000013" class="node">
<title>Node13</title>
<g id="a_Node000013"><a xlink:href="tbytevectorlist_8h.html" target="_top" xlink:title=" ">
<polygon fill="white" stroke="#666666" points="361.5,-129 264.5,-129 264.5,-110 361.5,-110 361.5,-129"/>
<text text-anchor="middle" x="313" y="-117" font-family="Helvetica,sans-Serif" font-size="10.00">tbytevectorlist.h</text>
</a>
</g>
</g>
<!-- Node1&#45;&gt;Node13 -->
<g id="edge14_Node000001_Node000013" class="edge">
<title>Node1&#45;&gt;Node13</title>
<g id="a_edge14_Node000001_Node000013"><a xlink:title=" ">
<path fill="none" stroke="#63b8ff" d="M362.52,-164.98C353.8,-157.15 340.66,-145.34 330.1,-135.86"/>
<polygon fill="#63b8ff" stroke="#63b8ff" points="332.43,-133.25 322.65,-129.17 327.75,-138.46 332.43,-133.25"/>
</a>
</g>
</g>
<!-- Node3 -->
<g id="Node000003" class="node">
<title>Node3</title>
<g id="a_Node000003"><a xlink:title=" ">
<polygon fill="#e0e0e0" stroke="#999999" points="448,-74 404,-74 404,-55 448,-55 448,-74"/>
<text text-anchor="middle" x="426" y="-62" font-family="Helvetica,sans-Serif" font-size="10.00">string</text>
</a>
</g>
</g>
<!-- Node2&#45;&gt;Node3 -->
<g id="edge2_Node000002_Node000003" class="edge">
<title>Node2&#45;&gt;Node3</title>
<g id="a_edge2_Node000002_Node000003"><a xlink:title=" ">
<path fill="none" stroke="#63b8ff" d="M415.98,-109.75C417.57,-102.72 419.86,-92.62 421.85,-83.84"/>
<polygon fill="#63b8ff" stroke="#63b8ff" points="425.26,-84.62 424.06,-74.09 418.43,-83.07 425.26,-84.62"/>
</a>
</g>
</g>
<!-- Node4 -->
<g id="Node000004" class="node">
<title>Node4</title>
<g id="a_Node000004"><a xlink:href="tbytevector_8h.html" target="_top" xlink:title=" ">
<polygon fill="white" stroke="#666666" points="347.5,-74 266.5,-74 266.5,-55 347.5,-55 347.5,-74"/>
<text text-anchor="middle" x="307" y="-62" font-family="Helvetica,sans-Serif" font-size="10.00">tbytevector.h</text>
</a>
</g>
</g>
<!-- Node2&#45;&gt;Node4 -->
<g id="edge3_Node000002_Node000004" class="edge">
<title>Node2&#45;&gt;Node4</title>
<g id="a_edge3_Node000002_Node000004"><a xlink:title=" ">
<path fill="none" stroke="#63b8ff" d="M396.81,-109.98C379.75,-101.54 353.37,-88.47 333.6,-78.68"/>
<polygon fill="#63b8ff" stroke="#63b8ff" points="335.02,-75.47 324.5,-74.17 331.91,-81.75 335.02,-75.47"/>
</a>
</g>
</g>
<!-- Node2&#45;&gt;Node8 -->
<g id="edge8_Node000002_Node000008" class="edge">
<title>Node2&#45;&gt;Node8</title>
<g id="a_edge8_Node000002_Node000008"><a xlink:title=" ">
<path fill="none" stroke="#63b8ff" d="M425.06,-109.74C434.78,-101.48 448.64,-88.28 457,-74 465.09,-60.17 470,-42.61 472.8,-29.45"/>
<polygon fill="#63b8ff" stroke="#63b8ff" points="476.31,-29.72 474.74,-19.24 469.43,-28.41 476.31,-29.72"/>
</a>
</g>
</g>
<!-- Node5 -->
<g id="Node000005" class="node">
<title>Node5</title>
<g id="a_Node000005"><a xlink:title=" ">
<polygon fill="#e0e0e0" stroke="#999999" points="281,-19 223,-19 223,0 281,0 281,-19"/>
<text text-anchor="middle" x="252" y="-7" font-family="Helvetica,sans-Serif" font-size="10.00">memory</text>
</a>
</g>
</g>
<!-- Node4&#45;&gt;Node5 -->
<g id="edge4_Node000004_Node000005" class="edge">
<title>Node4&#45;&gt;Node5</title>
<g id="a_edge4_Node000004_Node000005"><a xlink:title=" ">
<path fill="none" stroke="#63b8ff" d="M297.92,-54.75C289.91,-47.03 278.04,-35.6 268.38,-26.28"/>
<polygon fill="#63b8ff" stroke="#63b8ff" points="270.54,-23.51 260.91,-19.09 265.69,-28.55 270.54,-23.51"/>
</a>
</g>
</g>
<!-- Node6 -->
<g id="Node000006" class="node">
<title>Node6</title>
<g id="a_Node000006"><a xlink:title=" ">
<polygon fill="#e0e0e0" stroke="#999999" points="412.5,-19 365.5,-19 365.5,0 412.5,0 412.5,-19"/>
<text text-anchor="middle" x="389" y="-7" font-family="Helvetica,sans-Serif" font-size="10.00">vector</text>
</a>
</g>
</g>
<!-- Node4&#45;&gt;Node6 -->
<g id="edge5_Node000004_Node000006" class="edge">
<title>Node4&#45;&gt;Node6</title>
<g id="a_edge5_Node000004_Node000006"><a xlink:title=" ">
<path fill="none" stroke="#63b8ff" d="M320.17,-54.98C332.77,-46.84 352,-34.41 366.94,-24.76"/>
<polygon fill="#63b8ff" stroke="#63b8ff" points="369.09,-27.54 375.59,-19.17 365.29,-21.66 369.09,-27.54"/>
</a>
</g>
</g>
<!-- Node7 -->
<g id="Node000007" class="node">
<title>Node7</title>
<g id="a_Node000007"><a xlink:title=" ">
<polygon fill="#e0e0e0" stroke="#999999" points="347,-19 299,-19 299,0 347,0 347,-19"/>
<text text-anchor="middle" x="323" y="-7" font-family="Helvetica,sans-Serif" font-size="10.00">iosfwd</text>
</a>
</g>
</g>
<!-- Node4&#45;&gt;Node7 -->
<g id="edge6_Node000004_Node000007" class="edge">
<title>Node4&#45;&gt;Node7</title>
<g id="a_edge6_Node000004_Node000007"><a xlink:title=" ">
<path fill="none" stroke="#63b8ff" d="M309.64,-54.75C311.76,-47.72 314.81,-37.62 317.46,-28.84"/>
<polygon fill="#63b8ff" stroke="#63b8ff" points="320.87,-29.67 320.41,-19.09 314.17,-27.65 320.87,-29.67"/>
</a>
</g>
</g>
<!-- Node4&#45;&gt;Node8 -->
<g id="edge7_Node000004_Node000008" class="edge">
<title>Node4&#45;&gt;Node8</title>
<g id="a_edge7_Node000004_Node000008"><a xlink:title=" ">
<path fill="none" stroke="#63b8ff" d="M334.15,-54.98C362.53,-46.09 407.23,-32.07 438.86,-22.15"/>
<polygon fill="#63b8ff" stroke="#63b8ff" points="440.14,-25.41 448.63,-19.08 438.05,-18.73 440.14,-25.41"/>
</a>
</g>
</g>
<!-- Node9&#45;&gt;Node5 -->
<g id="edge12_Node000009_Node000005" class="edge">
<title>Node9&#45;&gt;Node5</title>
<g id="a_edge12_Node000009_Node000005"><a xlink:title=" ">
<path fill="none" stroke="#63b8ff" d="M210.26,-54.75C217.46,-47.11 228.11,-35.82 236.85,-26.56"/>
<polygon fill="#63b8ff" stroke="#63b8ff" points="239.58,-28.76 243.9,-19.09 234.49,-23.96 239.58,-28.76"/>
</a>
</g>
</g>
<!-- Node10 -->
<g id="Node000010" class="node">
<title>Node10</title>
<g id="a_Node000010"><a xlink:title=" ">
<polygon fill="#e0e0e0" stroke="#999999" points="32,-19 0,-19 0,0 32,0 32,-19"/>
<text text-anchor="middle" x="16" y="-7" font-family="Helvetica,sans-Serif" font-size="10.00">list</text>
</a>
</g>
</g>
<!-- Node9&#45;&gt;Node10 -->
<g id="edge10_Node000009_Node000010" class="edge">
<title>Node9&#45;&gt;Node10</title>
<g id="a_edge10_Node000009_Node000010"><a xlink:title=" ">
<path fill="none" stroke="#63b8ff" d="M179.75,-57.79C150.34,-50.14 96.72,-35.88 41.96,-19.16"/>
<polygon fill="#63b8ff" stroke="#63b8ff" points="42.68,-15.72 32.09,-16.13 40.62,-22.41 42.68,-15.72"/>
</a>
</g>
</g>
<!-- Node11 -->
<g id="Node000011" class="node">
<title>Node11</title>
<g id="a_Node000011"><a xlink:title=" ">
<polygon fill="#e0e0e0" stroke="#999999" points="133.5,-19 50.5,-19 50.5,0 133.5,0 133.5,-19"/>
<text text-anchor="middle" x="92" y="-7" font-family="Helvetica,sans-Serif" font-size="10.00">initializer_list</text>
</a>
</g>
</g>
<!-- Node9&#45;&gt;Node11 -->
<g id="edge11_Node000009_Node000011" class="edge">
<title>Node9&#45;&gt;Node11</title>
<g id="a_edge11_Node000009_Node000011"><a xlink:title=" ">
<path fill="none" stroke="#63b8ff" d="M184.33,-54.98C166.71,-46.5 139.42,-33.35 119.07,-23.54"/>
<polygon fill="#63b8ff" stroke="#63b8ff" points="120.52,-20.36 109.99,-19.17 117.48,-26.66 120.52,-20.36"/>
</a>
</g>
</g>
<!-- Node12 -->
<g id="Node000012" class="node">
<title>Node12</title>
<g id="a_Node000012"><a xlink:title=" ">
<polygon fill="#e0e0e0" stroke="#999999" points="204.5,-19 151.5,-19 151.5,0 204.5,0 204.5,-19"/>
<text text-anchor="middle" x="178" y="-7" font-family="Helvetica,sans-Serif" font-size="10.00">tlist.tcc</text>
</a>
</g>
</g>
<!-- Node9&#45;&gt;Node12 -->
<g id="edge13_Node000009_Node000012" class="edge">
<title>Node9&#45;&gt;Node12</title>
<g id="a_edge13_Node000009_Node000012"><a xlink:title=" ">
<path fill="none" stroke="#63b8ff" d="M198.04,-54.75C194.79,-47.57 190.08,-37.18 186.05,-28.27"/>
<polygon fill="#63b8ff" stroke="#63b8ff" points="189.2,-26.75 181.89,-19.09 182.83,-29.64 189.2,-26.75"/>
</a>
</g>
</g>
<!-- Node13&#45;&gt;Node4 -->
<g id="edge15_Node000013_Node000004" class="edge">
<title>Node13&#45;&gt;Node4</title>
<g id="a_edge15_Node000013_Node000004"><a xlink:title=" ">
<path fill="none" stroke="#63b8ff" d="M312.01,-109.75C311.22,-102.8 310.1,-92.85 309.11,-84.13"/>
<polygon fill="#63b8ff" stroke="#63b8ff" points="312.58,-83.63 307.97,-74.09 305.62,-84.42 312.58,-83.63"/>
</a>
</g>
</g>
<!-- Node13&#45;&gt;Node8 -->
<g id="edge17_Node000013_Node000008" class="edge">
<title>Node13&#45;&gt;Node8</title>
<g id="a_edge17_Node000013_Node000008"><a xlink:title=" ">
<path fill="none" stroke="#63b8ff" d="M323.23,-109.73C338.37,-96.95 367.9,-72.78 395,-55 412.44,-43.56 433.06,-32.26 449.13,-23.91"/>
<polygon fill="#63b8ff" stroke="#63b8ff" points="451.18,-26.79 458.48,-19.12 447.98,-20.56 451.18,-26.79"/>
</a>
</g>
</g>
<!-- Node13&#45;&gt;Node9 -->
<g id="edge16_Node000013_Node000009" class="edge">
<title>Node13&#45;&gt;Node9</title>
<g id="a_edge16_Node000013_Node000009"><a xlink:title=" ">
<path fill="none" stroke="#63b8ff" d="M295.17,-109.98C277.39,-101.5 249.85,-88.35 229.32,-78.54"/>
<polygon fill="#63b8ff" stroke="#63b8ff" points="230.69,-75.32 220.16,-74.17 227.67,-81.64 230.69,-75.32"/>
</a>
</g>
</g>
</g>
</svg>
