<?xml version="1.0" encoding="UTF-8" standalone="no"?>
<!DOCTYPE svg PUBLIC "-//W3C//DTD SVG 1.1//EN"
 "http://www.w3.org/Graphics/SVG/1.1/DTD/svg11.dtd">
<!-- Generated by graphviz version 2.43.0 (0)
 -->
<!-- Title: tvariant.h Pages: 1 -->
<svg width="1977pt" height="420pt"
 viewBox="0.00 0.00 1976.50 420.00" xmlns="http://www.w3.org/2000/svg" xmlns:xlink="http://www.w3.org/1999/xlink">
<g id="graph0" class="graph" transform="scale(1 1) rotate(0) translate(4 416)">
<title>tvariant.h</title>
<polygon fill="white" stroke="transparent" points="-4,4 -4,-416 1972.5,-416 1972.5,4 -4,4"/>
<!-- Node1 -->
<g id="node1" class="node">
<title>Node1</title>
<g id="a_node1"><a xlink:title=" ">
<polygon fill="#bfbfbf" stroke="black" points="533.5,-392.5 533.5,-411.5 597.5,-411.5 597.5,-392.5 533.5,-392.5"/>
<text text-anchor="middle" x="565.5" y="-399.5" font-family="Helvetica,sans-Serif" font-size="10.00">tvariant.h</text>
</a>
</g>
</g>
<!-- Node2 -->
<g id="node2" class="node">
<title>Node2</title>
<g id="a_node2"><a xlink:href="tag_8h.html" target="_top" xlink:title=" ">
<polygon fill="white" stroke="black" points="545,-336.5 545,-355.5 586,-355.5 586,-336.5 545,-336.5"/>
<text text-anchor="middle" x="565.5" y="-343.5" font-family="Helvetica,sans-Serif" font-size="10.00">tag.h</text>
</a>
</g>
</g>
<!-- Node1&#45;&gt;Node2 -->
<g id="edge1" class="edge">
<title>Node1&#45;&gt;Node2</title>
<path fill="none" stroke="midnightblue" d="M565.5,-381.8C565.5,-372.91 565.5,-362.78 565.5,-355.75"/>
<polygon fill="midnightblue" stroke="midnightblue" points="562,-382.08 565.5,-392.08 569,-382.08 562,-382.08"/>
</g>
<!-- Node3 -->
<g id="node3" class="node">
<title>Node3</title>
<g id="a_node3"><a xlink:href="apetag_8h.html" target="_top" xlink:title=" ">
<polygon fill="white" stroke="black" points="0,-280.5 0,-299.5 59,-299.5 59,-280.5 0,-280.5"/>
<text text-anchor="middle" x="29.5" y="-287.5" font-family="Helvetica,sans-Serif" font-size="10.00">apetag.h</text>
</a>
</g>
</g>
<!-- Node2&#45;&gt;Node3 -->
<g id="edge2" class="edge">
<title>Node2&#45;&gt;Node3</title>
<path fill="none" stroke="midnightblue" d="M534.72,-343.37C457.04,-339 246.93,-325.59 73.5,-300 68.87,-299.32 64,-298.46 59.24,-297.55"/>
<polygon fill="midnightblue" stroke="midnightblue" points="534.6,-346.87 544.78,-343.93 534.99,-339.88 534.6,-346.87"/>
</g>
<!-- Node4 -->
<g id="node4" class="node">
<title>Node4</title>
<g id="a_node4"><a xlink:href="asffile_8h.html" target="_top" xlink:title=" ">
<polygon fill="white" stroke="black" points="63.5,-224.5 63.5,-243.5 119.5,-243.5 119.5,-224.5 63.5,-224.5"/>
<text text-anchor="middle" x="91.5" y="-231.5" font-family="Helvetica,sans-Serif" font-size="10.00">asffile.h</text>
</a>
</g>
</g>
<!-- Node2&#45;&gt;Node4 -->
<g id="edge3" class="edge">
<title>Node2&#45;&gt;Node4</title>
<path fill="none" stroke="midnightblue" d="M534.73,-344.03C437.07,-340.69 138.64,-328.24 106.5,-300 90.32,-285.78 89.73,-257.91 90.62,-243.73"/>
<polygon fill="midnightblue" stroke="midnightblue" points="534.73,-347.54 544.84,-344.37 534.96,-340.54 534.73,-347.54"/>
</g>
<!-- Node5 -->
<g id="node5" class="node">
<title>Node5</title>
<g id="a_node5"><a xlink:href="asftag_8h.html" target="_top" xlink:title=" ">
<polygon fill="white" stroke="black" points="115.5,-280.5 115.5,-299.5 171.5,-299.5 171.5,-280.5 115.5,-280.5"/>
<text text-anchor="middle" x="143.5" y="-287.5" font-family="Helvetica,sans-Serif" font-size="10.00">asftag.h</text>
</a>
</g>
</g>
<!-- Node2&#45;&gt;Node5 -->
<g id="edge4" class="edge">
<title>Node2&#45;&gt;Node5</title>
<path fill="none" stroke="midnightblue" d="M534.87,-342.7C469.44,-337.51 311.32,-323.47 180.5,-300 177.64,-299.49 174.66,-298.88 171.71,-298.24"/>
<polygon fill="midnightblue" stroke="midnightblue" points="534.68,-346.2 544.92,-343.49 535.22,-339.22 534.68,-346.2"/>
</g>
<!-- Node6 -->
<g id="node6" class="node">
<title>Node6</title>
<g id="a_node6"><a xlink:href="dsdiffdiintag_8h.html" target="_top" xlink:title=" ">
<polygon fill="white" stroke="black" points="189.5,-280.5 189.5,-299.5 275.5,-299.5 275.5,-280.5 189.5,-280.5"/>
<text text-anchor="middle" x="232.5" y="-287.5" font-family="Helvetica,sans-Serif" font-size="10.00">dsdiffdiintag.h</text>
</a>
</g>
</g>
<!-- Node2&#45;&gt;Node6 -->
<g id="edge6" class="edge">
<title>Node2&#45;&gt;Node6</title>
<path fill="none" stroke="midnightblue" d="M534.5,-340.17C482.7,-332.06 375.27,-315.12 284.5,-300 281.61,-299.52 278.63,-299.02 275.62,-298.51"/>
<polygon fill="midnightblue" stroke="midnightblue" points="534.27,-343.67 544.69,-341.76 535.35,-336.76 534.27,-343.67"/>
</g>
<!-- Node8 -->
<g id="node8" class="node">
<title>Node8</title>
<g id="a_node8"><a xlink:href="flacfile_8h.html" target="_top" xlink:title=" ">
<polygon fill="white" stroke="black" points="444.5,-224.5 444.5,-243.5 502.5,-243.5 502.5,-224.5 444.5,-224.5"/>
<text text-anchor="middle" x="473.5" y="-231.5" font-family="Helvetica,sans-Serif" font-size="10.00">flacfile.h</text>
</a>
</g>
</g>
<!-- Node2&#45;&gt;Node8 -->
<g id="edge8" class="edge">
<title>Node2&#45;&gt;Node8</title>
<path fill="none" stroke="midnightblue" d="M551.77,-328.59C531.94,-304.87 495.97,-261.87 480.69,-243.59"/>
<polygon fill="midnightblue" stroke="midnightblue" points="549.18,-330.94 558.28,-336.37 554.55,-326.45 549.18,-330.94"/>
</g>
<!-- Node9 -->
<g id="node9" class="node">
<title>Node9</title>
<g id="a_node9"><a xlink:href="id3v1tag_8h.html" target="_top" xlink:title=" ">
<polygon fill="white" stroke="black" points="1814.5,-280.5 1814.5,-299.5 1882.5,-299.5 1882.5,-280.5 1814.5,-280.5"/>
<text text-anchor="middle" x="1848.5" y="-287.5" font-family="Helvetica,sans-Serif" font-size="10.00">id3v1tag.h</text>
</a>
</g>
</g>
<!-- Node2&#45;&gt;Node9 -->
<g id="edge9" class="edge">
<title>Node2&#45;&gt;Node9</title>
<path fill="none" stroke="midnightblue" d="M596.26,-344.5C762.66,-341.71 1556.64,-327.15 1800.5,-300 1804.97,-299.5 1809.64,-298.83 1814.24,-298.06"/>
<polygon fill="midnightblue" stroke="midnightblue" points="596.16,-341 586.22,-344.67 596.28,-348 596.16,-341"/>
</g>
<!-- Node10 -->
<g id="node10" class="node">
<title>Node10</title>
<g id="a_node10"><a xlink:href="id3v2tag_8h.html" target="_top" xlink:title=" ">
<polygon fill="white" stroke="black" points="318.5,-224.5 318.5,-243.5 386.5,-243.5 386.5,-224.5 318.5,-224.5"/>
<text text-anchor="middle" x="352.5" y="-231.5" font-family="Helvetica,sans-Serif" font-size="10.00">id3v2tag.h</text>
</a>
</g>
</g>
<!-- Node2&#45;&gt;Node10 -->
<g id="edge10" class="edge">
<title>Node2&#45;&gt;Node10</title>
<path fill="none" stroke="midnightblue" d="M534.67,-341.93C500.66,-337.34 445.45,-326.2 405.5,-300 382.85,-285.15 365.14,-257.56 357.14,-243.59"/>
<polygon fill="midnightblue" stroke="midnightblue" points="534.57,-345.44 544.92,-343.2 535.43,-338.5 534.57,-345.44"/>
</g>
<!-- Node16 -->
<g id="node16" class="node">
<title>Node16</title>
<g id="a_node16"><a xlink:href="infotag_8h.html" target="_top" xlink:title=" ">
<polygon fill="white" stroke="black" points="293.5,-280.5 293.5,-299.5 353.5,-299.5 353.5,-280.5 293.5,-280.5"/>
<text text-anchor="middle" x="323.5" y="-287.5" font-family="Helvetica,sans-Serif" font-size="10.00">infotag.h</text>
</a>
</g>
</g>
<!-- Node2&#45;&gt;Node16 -->
<g id="edge17" class="edge">
<title>Node2&#45;&gt;Node16</title>
<path fill="none" stroke="midnightblue" d="M535.06,-338.21C488.52,-327.82 400.19,-308.11 353.76,-297.75"/>
<polygon fill="midnightblue" stroke="midnightblue" points="534.34,-341.63 544.87,-340.4 535.87,-334.8 534.34,-341.63"/>
</g>
<!-- Node17 -->
<g id="node17" class="node">
<title>Node17</title>
<g id="a_node17"><a xlink:href="modtag_8h.html" target="_top" xlink:title=" ">
<polygon fill="white" stroke="black" points="597,-224.5 597,-243.5 660,-243.5 660,-224.5 597,-224.5"/>
<text text-anchor="middle" x="628.5" y="-231.5" font-family="Helvetica,sans-Serif" font-size="10.00">modtag.h</text>
</a>
</g>
</g>
<!-- Node2&#45;&gt;Node17 -->
<g id="edge19" class="edge">
<title>Node2&#45;&gt;Node17</title>
<path fill="none" stroke="midnightblue" d="M575.44,-327.64C589.13,-303.74 613.25,-261.63 623.58,-243.59"/>
<polygon fill="midnightblue" stroke="midnightblue" points="572.38,-325.95 570.44,-336.37 578.45,-329.43 572.38,-325.95"/>
</g>
<!-- Node22 -->
<g id="node22" class="node">
<title>Node22</title>
<g id="a_node22"><a xlink:href="mp4file_8h.html" target="_top" xlink:title=" ">
<polygon fill="white" stroke="black" points="1329.5,-0.5 1329.5,-19.5 1391.5,-19.5 1391.5,-0.5 1329.5,-0.5"/>
<text text-anchor="middle" x="1360.5" y="-7.5" font-family="Helvetica,sans-Serif" font-size="10.00">mp4file.h</text>
</a>
</g>
</g>
<!-- Node2&#45;&gt;Node22 -->
<g id="edge24" class="edge">
<title>Node2&#45;&gt;Node22</title>
<path fill="none" stroke="midnightblue" d="M596.29,-343.89C785.86,-336.83 1786.5,-296.66 1786.5,-235 1786.5,-235 1786.5,-235 1786.5,-121 1786.5,-39.46 1490.2,-17.42 1391.82,-12.35"/>
<polygon fill="midnightblue" stroke="midnightblue" points="596.04,-340.39 586.18,-344.26 596.3,-347.39 596.04,-340.39"/>
</g>
<!-- Node23 -->
<g id="node23" class="node">
<title>Node23</title>
<g id="a_node23"><a xlink:href="mp4tag_8h.html" target="_top" xlink:title=" ">
<polygon fill="white" stroke="black" points="1148,-56.5 1148,-75.5 1211,-75.5 1211,-56.5 1148,-56.5"/>
<text text-anchor="middle" x="1179.5" y="-63.5" font-family="Helvetica,sans-Serif" font-size="10.00">mp4tag.h</text>
</a>
</g>
</g>
<!-- Node2&#45;&gt;Node23 -->
<g id="edge25" class="edge">
<title>Node2&#45;&gt;Node23</title>
<path fill="none" stroke="midnightblue" d="M535.5,-333.59C486.62,-313.35 398.75,-269.03 435.5,-224 485.98,-162.14 536.31,-214.86 611.5,-188 629.47,-181.58 631.48,-174.3 649.5,-168 831.87,-104.23 1064.4,-77.66 1147.89,-69.74"/>
<polygon fill="midnightblue" stroke="midnightblue" points="534.41,-336.93 544.99,-337.43 537.03,-330.44 534.41,-336.93"/>
</g>
<!-- Node24 -->
<g id="node24" class="node">
<title>Node24</title>
<g id="a_node24"><a xlink:href="mpcfile_8h.html" target="_top" xlink:title=" ">
<polygon fill="white" stroke="black" points="1498.5,-224.5 1498.5,-243.5 1560.5,-243.5 1560.5,-224.5 1498.5,-224.5"/>
<text text-anchor="middle" x="1529.5" y="-231.5" font-family="Helvetica,sans-Serif" font-size="10.00">mpcfile.h</text>
</a>
</g>
</g>
<!-- Node2&#45;&gt;Node24 -->
<g id="edge27" class="edge">
<title>Node2&#45;&gt;Node24</title>
<path fill="none" stroke="midnightblue" d="M596.09,-342.96C712.73,-334.89 1140.54,-302.78 1488.5,-244 1491.66,-243.47 1494.95,-242.85 1498.22,-242.2"/>
<polygon fill="midnightblue" stroke="midnightblue" points="595.82,-339.47 586.09,-343.64 596.3,-346.45 595.82,-339.47"/>
</g>
<!-- Node25 -->
<g id="node25" class="node">
<title>Node25</title>
<g id="a_node25"><a xlink:href="mpegfile_8h.html" target="_top" xlink:title=" ">
<polygon fill="white" stroke="black" points="1578.5,-224.5 1578.5,-243.5 1646.5,-243.5 1646.5,-224.5 1578.5,-224.5"/>
<text text-anchor="middle" x="1612.5" y="-231.5" font-family="Helvetica,sans-Serif" font-size="10.00">mpegfile.h</text>
</a>
</g>
</g>
<!-- Node2&#45;&gt;Node25 -->
<g id="edge28" class="edge">
<title>Node2&#45;&gt;Node25</title>
<path fill="none" stroke="midnightblue" d="M596.08,-343.48C685.43,-338.87 953.82,-323.9 1175.5,-300 1351.35,-281.04 1395.29,-274.58 1569.5,-244 1572.35,-243.5 1575.31,-242.95 1578.27,-242.37"/>
<polygon fill="midnightblue" stroke="midnightblue" points="595.89,-339.98 586.08,-343.99 596.25,-346.97 595.89,-339.98"/>
</g>
<!-- Node26 -->
<g id="node26" class="node">
<title>Node26</title>
<g id="a_node26"><a xlink:href="tagunion_8h.html" target="_top" xlink:title=" ">
<polygon fill="white" stroke="black" points="1900.5,-280.5 1900.5,-299.5 1968.5,-299.5 1968.5,-280.5 1900.5,-280.5"/>
<text text-anchor="middle" x="1934.5" y="-287.5" font-family="Helvetica,sans-Serif" font-size="10.00">tagunion.h</text>
</a>
</g>
</g>
<!-- Node2&#45;&gt;Node26 -->
<g id="edge29" class="edge">
<title>Node2&#45;&gt;Node26</title>
<path fill="none" stroke="midnightblue" d="M596.31,-344.68C770.06,-342.74 1628.87,-331.7 1891.5,-300 1894.38,-299.65 1897.35,-299.21 1900.32,-298.71"/>
<polygon fill="midnightblue" stroke="midnightblue" points="596.27,-341.18 586.31,-344.79 596.35,-348.18 596.27,-341.18"/>
</g>
<!-- Node27 -->
<g id="node27" class="node">
<title>Node27</title>
<g id="a_node27"><a xlink:href="tfile_8h.html" target="_top" xlink:title=" ">
<polygon fill="white" stroke="black" points="965.5,-280.5 965.5,-299.5 1009.5,-299.5 1009.5,-280.5 965.5,-280.5"/>
<text text-anchor="middle" x="987.5" y="-287.5" font-family="Helvetica,sans-Serif" font-size="10.00">tfile.h</text>
</a>
</g>
</g>
<!-- Node2&#45;&gt;Node27 -->
<g id="edge30" class="edge">
<title>Node2&#45;&gt;Node27</title>
<path fill="none" stroke="midnightblue" d="M596.19,-341.07C677.17,-330.71 895.18,-302.81 965.39,-293.83"/>
<polygon fill="midnightblue" stroke="midnightblue" points="595.61,-337.62 586.14,-342.36 596.5,-344.56 595.61,-337.62"/>
</g>
<!-- Node43 -->
<g id="node43" class="node">
<title>Node43</title>
<g id="a_node43"><a xlink:href="xiphcomment_8h.html" target="_top" xlink:title=" ">
<polygon fill="white" stroke="black" points="1665,-224.5 1665,-243.5 1758,-243.5 1758,-224.5 1665,-224.5"/>
<text text-anchor="middle" x="1711.5" y="-231.5" font-family="Helvetica,sans-Serif" font-size="10.00">xiphcomment.h</text>
</a>
</g>
</g>
<!-- Node2&#45;&gt;Node43 -->
<g id="edge66" class="edge">
<title>Node2&#45;&gt;Node43</title>
<path fill="none" stroke="midnightblue" d="M596.36,-343.96C695.33,-340.43 1013.55,-327.55 1275.5,-300 1418.02,-285.01 1585.31,-257.17 1664.89,-243.3"/>
<polygon fill="midnightblue" stroke="midnightblue" points="596.04,-340.47 586.17,-344.32 596.29,-347.46 596.04,-340.47"/>
</g>
<!-- Node5&#45;&gt;Node4 -->
<g id="edge5" class="edge">
<title>Node5&#45;&gt;Node4</title>
<path fill="none" stroke="midnightblue" d="M127.82,-272.72C118.66,-263.2 107.45,-251.56 99.93,-243.75"/>
<polygon fill="midnightblue" stroke="midnightblue" points="125.46,-275.31 134.91,-280.08 130.5,-270.45 125.46,-275.31"/>
</g>
<!-- Node7 -->
<g id="node7" class="node">
<title>Node7</title>
<g id="a_node7"><a xlink:href="dsdifffile_8h.html" target="_top" xlink:title=" ">
<polygon fill="white" stroke="black" points="46.5,-168.5 46.5,-187.5 114.5,-187.5 114.5,-168.5 46.5,-168.5"/>
<text text-anchor="middle" x="80.5" y="-175.5" font-family="Helvetica,sans-Serif" font-size="10.00">dsdifffile.h</text>
</a>
</g>
</g>
<!-- Node6&#45;&gt;Node7 -->
<g id="edge7" class="edge">
<title>Node6&#45;&gt;Node7</title>
<path fill="none" stroke="midnightblue" d="M212.35,-274.42C180.2,-251.15 118.29,-206.35 92.37,-187.59"/>
<polygon fill="midnightblue" stroke="midnightblue" points="210.42,-277.34 220.57,-280.37 214.52,-271.67 210.42,-277.34"/>
</g>
<!-- Node10&#45;&gt;Node7 -->
<g id="edge13" class="edge">
<title>Node10&#45;&gt;Node7</title>
<path fill="none" stroke="midnightblue" d="M308.37,-224.49C262.23,-215.56 187.73,-201.03 123.5,-188 120.66,-187.42 117.71,-186.82 114.76,-186.21"/>
<polygon fill="midnightblue" stroke="midnightblue" points="307.85,-227.96 318.33,-226.42 309.18,-221.09 307.85,-227.96"/>
</g>
<!-- Node11 -->
<g id="node11" class="node">
<title>Node11</title>
<g id="a_node11"><a xlink:href="aifffile_8h.html" target="_top" xlink:title=" ">
<polygon fill="white" stroke="black" points="212.5,-168.5 212.5,-187.5 268.5,-187.5 268.5,-168.5 212.5,-168.5"/>
<text text-anchor="middle" x="240.5" y="-175.5" font-family="Helvetica,sans-Serif" font-size="10.00">aifffile.h</text>
</a>
</g>
</g>
<!-- Node10&#45;&gt;Node11 -->
<g id="edge11" class="edge">
<title>Node10&#45;&gt;Node11</title>
<path fill="none" stroke="midnightblue" d="M325.25,-219.86C304.48,-209.85 276.48,-196.35 258.45,-187.65"/>
<polygon fill="midnightblue" stroke="midnightblue" points="323.98,-223.13 334.51,-224.32 327.02,-216.83 323.98,-223.13"/>
</g>
<!-- Node12 -->
<g id="node12" class="node">
<title>Node12</title>
<g id="a_node12"><a xlink:href="chapterframe_8h.html" target="_top" xlink:title=" ">
<polygon fill="white" stroke="black" points="436.5,-168.5 436.5,-187.5 528.5,-187.5 528.5,-168.5 436.5,-168.5"/>
<text text-anchor="middle" x="482.5" y="-175.5" font-family="Helvetica,sans-Serif" font-size="10.00">chapterframe.h</text>
</a>
</g>
</g>
<!-- Node10&#45;&gt;Node12 -->
<g id="edge12" class="edge">
<title>Node10&#45;&gt;Node12</title>
<path fill="none" stroke="midnightblue" d="M382.59,-220.5C406.96,-210.38 440.64,-196.39 462,-187.52"/>
<polygon fill="midnightblue" stroke="midnightblue" points="380.99,-217.38 373.1,-224.44 383.68,-223.84 380.99,-217.38"/>
</g>
<!-- Node13 -->
<g id="node13" class="node">
<title>Node13</title>
<g id="a_node13"><a xlink:href="dsffile_8h.html" target="_top" xlink:title=" ">
<polygon fill="white" stroke="black" points="546.5,-168.5 546.5,-187.5 602.5,-187.5 602.5,-168.5 546.5,-168.5"/>
<text text-anchor="middle" x="574.5" y="-175.5" font-family="Helvetica,sans-Serif" font-size="10.00">dsffile.h</text>
</a>
</g>
</g>
<!-- Node10&#45;&gt;Node13 -->
<g id="edge14" class="edge">
<title>Node10&#45;&gt;Node13</title>
<path fill="none" stroke="midnightblue" d="M396.66,-222.26C441.16,-211.44 508.49,-195.06 546.25,-185.87"/>
<polygon fill="midnightblue" stroke="midnightblue" points="395.59,-218.92 386.7,-224.68 397.24,-225.72 395.59,-218.92"/>
</g>
<!-- Node14 -->
<g id="node14" class="node">
<title>Node14</title>
<g id="a_node14"><a xlink:href="tableofcontentsframe_8h.html" target="_top" xlink:title=" ">
<polygon fill="white" stroke="black" points="287,-168.5 287,-187.5 418,-187.5 418,-168.5 287,-168.5"/>
<text text-anchor="middle" x="352.5" y="-175.5" font-family="Helvetica,sans-Serif" font-size="10.00">tableofcontentsframe.h</text>
</a>
</g>
</g>
<!-- Node10&#45;&gt;Node14 -->
<g id="edge15" class="edge">
<title>Node10&#45;&gt;Node14</title>
<path fill="none" stroke="midnightblue" d="M352.5,-213.8C352.5,-204.91 352.5,-194.78 352.5,-187.75"/>
<polygon fill="midnightblue" stroke="midnightblue" points="349,-214.08 352.5,-224.08 356,-214.08 349,-214.08"/>
</g>
<!-- Node15 -->
<g id="node15" class="node">
<title>Node15</title>
<g id="a_node15"><a xlink:href="wavfile_8h.html" target="_top" xlink:title=" ">
<polygon fill="white" stroke="black" points="133,-168.5 133,-187.5 194,-187.5 194,-168.5 133,-168.5"/>
<text text-anchor="middle" x="163.5" y="-175.5" font-family="Helvetica,sans-Serif" font-size="10.00">wavfile.h</text>
</a>
</g>
</g>
<!-- Node10&#45;&gt;Node15 -->
<g id="edge16" class="edge">
<title>Node10&#45;&gt;Node15</title>
<path fill="none" stroke="midnightblue" d="M312.49,-221.57C276.83,-211.38 225.46,-196.7 193.31,-187.52"/>
<polygon fill="midnightblue" stroke="midnightblue" points="311.98,-225.06 322.55,-224.44 313.9,-218.33 311.98,-225.06"/>
</g>
<!-- Node16&#45;&gt;Node15 -->
<g id="edge18" class="edge">
<title>Node16&#45;&gt;Node15</title>
<path fill="none" stroke="midnightblue" d="M285.01,-277.38C255.31,-267.89 217.22,-254.39 204.5,-244 185.49,-228.47 172.62,-201.69 166.89,-187.85"/>
<polygon fill="midnightblue" stroke="midnightblue" points="284.12,-280.77 294.71,-280.44 286.22,-274.1 284.12,-280.77"/>
</g>
<!-- Node18 -->
<g id="node18" class="node">
<title>Node18</title>
<g id="a_node18"><a xlink:href="itfile_8h.html" target="_top" xlink:title=" ">
<polygon fill="white" stroke="black" points="659,-168.5 659,-187.5 706,-187.5 706,-168.5 659,-168.5"/>
<text text-anchor="middle" x="682.5" y="-175.5" font-family="Helvetica,sans-Serif" font-size="10.00">itfile.h</text>
</a>
</g>
</g>
<!-- Node17&#45;&gt;Node18 -->
<g id="edge20" class="edge">
<title>Node17&#45;&gt;Node18</title>
<path fill="none" stroke="midnightblue" d="M644.5,-217C654.07,-207.43 665.86,-195.64 673.75,-187.75"/>
<polygon fill="midnightblue" stroke="midnightblue" points="642.01,-214.54 637.42,-224.08 646.96,-219.49 642.01,-214.54"/>
</g>
<!-- Node19 -->
<g id="node19" class="node">
<title>Node19</title>
<g id="a_node19"><a xlink:href="modfile_8h.html" target="_top" xlink:title=" ">
<polygon fill="white" stroke="black" points="728.5,-168.5 728.5,-187.5 790.5,-187.5 790.5,-168.5 728.5,-168.5"/>
<text text-anchor="middle" x="759.5" y="-175.5" font-family="Helvetica,sans-Serif" font-size="10.00">modfile.h</text>
</a>
</g>
</g>
<!-- Node17&#45;&gt;Node19 -->
<g id="edge21" class="edge">
<title>Node17&#45;&gt;Node19</title>
<path fill="none" stroke="midnightblue" d="M658.82,-220.5C683.38,-210.38 717.32,-196.39 738.84,-187.52"/>
<polygon fill="midnightblue" stroke="midnightblue" points="657.17,-217.4 649.26,-224.44 659.84,-223.87 657.17,-217.4"/>
</g>
<!-- Node20 -->
<g id="node20" class="node">
<title>Node20</title>
<g id="a_node20"><a xlink:href="s3mfile_8h.html" target="_top" xlink:title=" ">
<polygon fill="white" stroke="black" points="969.5,-168.5 969.5,-187.5 1031.5,-187.5 1031.5,-168.5 969.5,-168.5"/>
<text text-anchor="middle" x="1000.5" y="-175.5" font-family="Helvetica,sans-Serif" font-size="10.00">s3mfile.h</text>
</a>
</g>
</g>
<!-- Node17&#45;&gt;Node20 -->
<g id="edge22" class="edge">
<title>Node17&#45;&gt;Node20</title>
<path fill="none" stroke="midnightblue" d="M670.39,-223.78C785.82,-203.36 911.88,-188.62 969.23,-182.32"/>
<polygon fill="midnightblue" stroke="midnightblue" points="669.55,-220.37 660.33,-225.58 670.79,-227.26 669.55,-220.37"/>
</g>
<!-- Node21 -->
<g id="node21" class="node">
<title>Node21</title>
<g id="a_node21"><a xlink:href="xmfile_8h.html" target="_top" xlink:title=" ">
<polygon fill="white" stroke="black" points="1049.5,-168.5 1049.5,-187.5 1105.5,-187.5 1105.5,-168.5 1049.5,-168.5"/>
<text text-anchor="middle" x="1077.5" y="-175.5" font-family="Helvetica,sans-Serif" font-size="10.00">xmfile.h</text>
</a>
</g>
</g>
<!-- Node17&#45;&gt;Node21 -->
<g id="edge23" class="edge">
<title>Node17&#45;&gt;Node21</title>
<path fill="none" stroke="midnightblue" d="M670.25,-223.89C834.29,-198.4 879.92,-215.16 1040.5,-188 1043.37,-187.51 1046.34,-186.93 1049.3,-186.3"/>
<polygon fill="midnightblue" stroke="midnightblue" points="669.64,-220.45 660.31,-225.47 670.73,-227.36 669.64,-220.45"/>
</g>
<!-- Node23&#45;&gt;Node22 -->
<g id="edge26" class="edge">
<title>Node23&#45;&gt;Node22</title>
<path fill="none" stroke="midnightblue" d="M1217.82,-53.57C1251.96,-43.38 1301.16,-28.7 1331.95,-19.52"/>
<polygon fill="midnightblue" stroke="midnightblue" points="1216.76,-50.23 1208.18,-56.44 1218.76,-56.94 1216.76,-50.23"/>
</g>
<!-- Node27&#45;&gt;Node4 -->
<g id="edge32" class="edge">
<title>Node27&#45;&gt;Node4</title>
<path fill="none" stroke="midnightblue" d="M955.24,-287.4C848.31,-282.05 495.73,-263.96 204.5,-244 175.64,-242.02 142.66,-239.35 119.82,-237.43"/>
<polygon fill="midnightblue" stroke="midnightblue" points="955.22,-290.9 965.38,-287.91 955.57,-283.91 955.22,-290.9"/>
</g>
<!-- Node27&#45;&gt;Node8 -->
<g id="edge35" class="edge">
<title>Node27&#45;&gt;Node8</title>
<path fill="none" stroke="midnightblue" d="M954.9,-287.14C878.15,-282.48 680.21,-268.87 516.5,-244 511.98,-243.31 507.21,-242.45 502.56,-241.54"/>
<polygon fill="midnightblue" stroke="midnightblue" points="955.13,-290.66 965.32,-287.76 955.55,-283.67 955.13,-290.66"/>
</g>
<!-- Node27&#45;&gt;Node13 -->
<g id="edge33" class="edge">
<title>Node27&#45;&gt;Node13</title>
<path fill="none" stroke="midnightblue" d="M955.37,-287.8C863.46,-284.06 604.4,-271.17 578.5,-244 563.99,-228.78 568.45,-201.36 571.98,-187.51"/>
<polygon fill="midnightblue" stroke="midnightblue" points="955.34,-291.3 965.48,-288.2 955.62,-284.31 955.34,-291.3"/>
</g>
<!-- Node27&#45;&gt;Node18 -->
<g id="edge36" class="edge">
<title>Node27&#45;&gt;Node18</title>
<path fill="none" stroke="midnightblue" d="M955.1,-287.79C864.21,-284.05 611.89,-271.29 587.5,-244 562.86,-216.44 623.45,-194.77 658.95,-184.87"/>
<polygon fill="midnightblue" stroke="midnightblue" points="955.22,-291.29 965.35,-288.2 955.5,-284.3 955.22,-291.29"/>
</g>
<!-- Node27&#45;&gt;Node19 -->
<g id="edge37" class="edge">
<title>Node27&#45;&gt;Node19</title>
<path fill="none" stroke="midnightblue" d="M955.37,-286.08C903.33,-280.7 803.86,-267.59 778.5,-244 762.49,-229.11 759.71,-201.54 759.39,-187.58"/>
<polygon fill="midnightblue" stroke="midnightblue" points="955.12,-289.57 965.41,-287.08 955.81,-282.6 955.12,-289.57"/>
</g>
<!-- Node27&#45;&gt;Node20 -->
<g id="edge62" class="edge">
<title>Node27&#45;&gt;Node20</title>
<path fill="none" stroke="midnightblue" d="M1019.83,-284.36C1043.82,-279.04 1074.96,-267.75 1090.5,-244 1108.18,-216.99 1064.19,-197.5 1031.67,-187.25"/>
<polygon fill="midnightblue" stroke="midnightblue" points="1018.86,-280.99 1009.72,-286.35 1020.21,-287.85 1018.86,-280.99"/>
</g>
<!-- Node27&#45;&gt;Node21 -->
<g id="edge65" class="edge">
<title>Node27&#45;&gt;Node21</title>
<path fill="none" stroke="midnightblue" d="M1020.02,-286.7C1048.37,-282.77 1087.95,-272.22 1107.5,-244 1120.24,-225.61 1100.23,-200.95 1087.23,-187.92"/>
<polygon fill="midnightblue" stroke="midnightblue" points="1019.28,-283.26 1009.76,-287.9 1020.1,-290.21 1019.28,-283.26"/>
</g>
<!-- Node27&#45;&gt;Node22 -->
<g id="edge49" class="edge">
<title>Node27&#45;&gt;Node22</title>
<path fill="none" stroke="midnightblue" d="M1020.12,-285.58C1094.44,-277.6 1271.79,-257.39 1295.5,-244 1376.68,-198.15 1365.94,-56.6 1361.66,-19.81"/>
<polygon fill="midnightblue" stroke="midnightblue" points="1019.5,-282.13 1009.93,-286.67 1020.24,-289.09 1019.5,-282.13"/>
</g>
<!-- Node27&#45;&gt;Node23 -->
<g id="edge50" class="edge">
<title>Node27&#45;&gt;Node23</title>
<path fill="none" stroke="midnightblue" d="M1019.97,-286.69C1050.88,-282.77 1096.7,-272.25 1124.5,-244 1172.8,-194.92 1178.78,-104.21 1179.44,-75.77"/>
<polygon fill="midnightblue" stroke="midnightblue" points="1019.27,-283.24 1009.71,-287.81 1020.03,-290.2 1019.27,-283.24"/>
</g>
<!-- Node27&#45;&gt;Node24 -->
<g id="edge51" class="edge">
<title>Node27&#45;&gt;Node24</title>
<path fill="none" stroke="midnightblue" d="M1019.99,-287.51C1100.02,-283.52 1312.92,-271.05 1488.5,-244 1491.67,-243.51 1494.96,-242.93 1498.24,-242.29"/>
<polygon fill="midnightblue" stroke="midnightblue" points="1019.41,-284.03 1009.6,-288.01 1019.75,-291.02 1019.41,-284.03"/>
</g>
<!-- Node27&#45;&gt;Node25 -->
<g id="edge52" class="edge">
<title>Node27&#45;&gt;Node25</title>
<path fill="none" stroke="midnightblue" d="M1019.72,-287.97C1108.03,-284.83 1361.23,-273.72 1569.5,-244 1572.37,-243.59 1575.33,-243.1 1578.3,-242.57"/>
<polygon fill="midnightblue" stroke="midnightblue" points="1019.42,-284.48 1009.55,-288.32 1019.66,-291.47 1019.42,-284.48"/>
</g>
<!-- Node28 -->
<g id="node28" class="node">
<title>Node28</title>
<g id="a_node28"><a xlink:href="apefile_8h.html" target="_top" xlink:title=" ">
<polygon fill="white" stroke="black" points="1421,-224.5 1421,-243.5 1480,-243.5 1480,-224.5 1421,-224.5"/>
<text text-anchor="middle" x="1450.5" y="-231.5" font-family="Helvetica,sans-Serif" font-size="10.00">apefile.h</text>
</a>
</g>
</g>
<!-- Node27&#45;&gt;Node28 -->
<g id="edge31" class="edge">
<title>Node27&#45;&gt;Node28</title>
<path fill="none" stroke="midnightblue" d="M1019.81,-286.91C1090.96,-282.02 1266.37,-268.35 1411.5,-244 1414.52,-243.49 1417.65,-242.9 1420.76,-242.25"/>
<polygon fill="midnightblue" stroke="midnightblue" points="1019.44,-283.43 1009.7,-287.6 1019.91,-290.41 1019.44,-283.43"/>
</g>
<!-- Node29 -->
<g id="node29" class="node">
<title>Node29</title>
<g id="a_node29"><a xlink:href="fileref_8h.html" target="_top" xlink:title=" ">
<polygon fill="white" stroke="black" points="678,-224.5 678,-243.5 731,-243.5 731,-224.5 678,-224.5"/>
<text text-anchor="middle" x="704.5" y="-231.5" font-family="Helvetica,sans-Serif" font-size="10.00">fileref.h</text>
</a>
</g>
</g>
<!-- Node27&#45;&gt;Node29 -->
<g id="edge34" class="edge">
<title>Node27&#45;&gt;Node29</title>
<path fill="none" stroke="midnightblue" d="M955.38,-283.37C908.97,-275.15 820.49,-259.2 745.5,-244 740.93,-243.07 736.08,-242.05 731.38,-241.03"/>
<polygon fill="midnightblue" stroke="midnightblue" points="954.98,-286.85 965.43,-285.14 956.19,-279.96 954.98,-286.85"/>
</g>
<!-- Node30 -->
<g id="node30" class="node">
<title>Node30</title>
<g id="a_node30"><a xlink:href="modfilebase_8h.html" target="_top" xlink:title=" ">
<polygon fill="white" stroke="black" points="995.5,-224.5 995.5,-243.5 1081.5,-243.5 1081.5,-224.5 995.5,-224.5"/>
<text text-anchor="middle" x="1038.5" y="-231.5" font-family="Helvetica,sans-Serif" font-size="10.00">modfilebase.h</text>
</a>
</g>
</g>
<!-- Node27&#45;&gt;Node30 -->
<g id="edge38" class="edge">
<title>Node27&#45;&gt;Node30</title>
<path fill="none" stroke="midnightblue" d="M1002.88,-272.72C1011.87,-263.2 1022.86,-251.56 1030.24,-243.75"/>
<polygon fill="midnightblue" stroke="midnightblue" points="1000.24,-270.41 995.92,-280.08 1005.33,-275.22 1000.24,-270.41"/>
</g>
<!-- Node31 -->
<g id="node31" class="node">
<title>Node31</title>
<g id="a_node31"><a xlink:href="mp4atom_8h.html" target="_top" xlink:title=" ">
<polygon fill="white" stroke="black" points="1214,-224.5 1214,-243.5 1287,-243.5 1287,-224.5 1214,-224.5"/>
<text text-anchor="middle" x="1250.5" y="-231.5" font-family="Helvetica,sans-Serif" font-size="10.00">mp4atom.h</text>
</a>
</g>
</g>
<!-- Node27&#45;&gt;Node31 -->
<g id="edge43" class="edge">
<title>Node27&#45;&gt;Node31</title>
<path fill="none" stroke="midnightblue" d="M1020,-282.33C1069.12,-272.24 1162.01,-253.17 1213.61,-242.58"/>
<polygon fill="midnightblue" stroke="midnightblue" points="1019.01,-278.96 1009.92,-284.4 1020.42,-285.81 1019.01,-278.96"/>
</g>
<!-- Node35 -->
<g id="node35" class="node">
<title>Node35</title>
<g id="a_node35"><a xlink:href="oggfile_8h.html" target="_top" xlink:title=" ">
<polygon fill="white" stroke="black" points="1344,-224.5 1344,-243.5 1403,-243.5 1403,-224.5 1344,-224.5"/>
<text text-anchor="middle" x="1373.5" y="-231.5" font-family="Helvetica,sans-Serif" font-size="10.00">oggfile.h</text>
</a>
</g>
</g>
<!-- Node27&#45;&gt;Node35 -->
<g id="edge53" class="edge">
<title>Node27&#45;&gt;Node35</title>
<path fill="none" stroke="midnightblue" d="M1019.7,-285.53C1080.46,-278.82 1216.12,-263.03 1329.5,-244 1334.11,-243.23 1338.98,-242.32 1343.73,-241.39"/>
<polygon fill="midnightblue" stroke="midnightblue" points="1019.15,-282.07 1009.59,-286.64 1019.91,-289.03 1019.15,-282.07"/>
</g>
<!-- Node40 -->
<g id="node40" class="node">
<title>Node40</title>
<g id="a_node40"><a xlink:href="rifffile_8h.html" target="_top" xlink:title=" ">
<polygon fill="white" stroke="black" points="213.5,-224.5 213.5,-243.5 267.5,-243.5 267.5,-224.5 213.5,-224.5"/>
<text text-anchor="middle" x="240.5" y="-231.5" font-family="Helvetica,sans-Serif" font-size="10.00">rifffile.h</text>
</a>
</g>
</g>
<!-- Node27&#45;&gt;Node40 -->
<g id="edge58" class="edge">
<title>Node27&#45;&gt;Node40</title>
<path fill="none" stroke="midnightblue" d="M955.1,-287.58C857.43,-283.14 557.32,-268.36 309.5,-244 295.67,-242.64 280.35,-240.69 267.65,-238.95"/>
<polygon fill="midnightblue" stroke="midnightblue" points="955.07,-291.08 965.22,-288.04 955.39,-284.09 955.07,-291.08"/>
</g>
<!-- Node41 -->
<g id="node41" class="node">
<title>Node41</title>
<g id="a_node41"><a xlink:href="trueaudiofile_8h.html" target="_top" xlink:title=" ">
<polygon fill="white" stroke="black" points="788,-224.5 788,-243.5 875,-243.5 875,-224.5 788,-224.5"/>
<text text-anchor="middle" x="831.5" y="-231.5" font-family="Helvetica,sans-Serif" font-size="10.00">trueaudiofile.h</text>
</a>
</g>
</g>
<!-- Node27&#45;&gt;Node41 -->
<g id="edge63" class="edge">
<title>Node27&#45;&gt;Node41</title>
<path fill="none" stroke="midnightblue" d="M955.7,-277.99C926.28,-267.81 883.16,-252.88 856.24,-243.56"/>
<polygon fill="midnightblue" stroke="midnightblue" points="954.89,-281.41 965.48,-281.38 957.17,-274.8 954.89,-281.41"/>
</g>
<!-- Node42 -->
<g id="node42" class="node">
<title>Node42</title>
<g id="a_node42"><a xlink:href="wavpackfile_8h.html" target="_top" xlink:title=" ">
<polygon fill="white" stroke="black" points="893.5,-224.5 893.5,-243.5 977.5,-243.5 977.5,-224.5 893.5,-224.5"/>
<text text-anchor="middle" x="935.5" y="-231.5" font-family="Helvetica,sans-Serif" font-size="10.00">wavpackfile.h</text>
</a>
</g>
</g>
<!-- Node27&#45;&gt;Node42 -->
<g id="edge64" class="edge">
<title>Node27&#45;&gt;Node42</title>
<path fill="none" stroke="midnightblue" d="M971.82,-272.72C962.66,-263.2 951.45,-251.56 943.93,-243.75"/>
<polygon fill="midnightblue" stroke="midnightblue" points="969.46,-275.31 978.91,-280.08 974.5,-270.45 969.46,-275.31"/>
</g>
<!-- Node30&#45;&gt;Node18 -->
<g id="edge39" class="edge">
<title>Node30&#45;&gt;Node18</title>
<path fill="none" stroke="midnightblue" d="M985.16,-223.85C866.39,-206.01 833.95,-209.57 719.5,-188 715.21,-187.19 710.68,-186.2 706.3,-185.18"/>
<polygon fill="midnightblue" stroke="midnightblue" points="984.98,-227.37 995.39,-225.41 986.03,-220.45 984.98,-227.37"/>
</g>
<!-- Node30&#45;&gt;Node19 -->
<g id="edge40" class="edge">
<title>Node30&#45;&gt;Node19</title>
<path fill="none" stroke="midnightblue" d="M985.21,-222.69C927.65,-211.54 837.87,-194.17 790.77,-185.05"/>
<polygon fill="midnightblue" stroke="midnightblue" points="984.73,-226.16 995.21,-224.62 986.06,-219.29 984.73,-226.16"/>
</g>
<!-- Node30&#45;&gt;Node20 -->
<g id="edge41" class="edge">
<title>Node30&#45;&gt;Node20</title>
<path fill="none" stroke="midnightblue" d="M1026.44,-215.86C1019.86,-206.5 1011.99,-195.33 1006.66,-187.75"/>
<polygon fill="midnightblue" stroke="midnightblue" points="1023.61,-217.92 1032.23,-224.08 1029.33,-213.89 1023.61,-217.92"/>
</g>
<!-- Node30&#45;&gt;Node21 -->
<g id="edge42" class="edge">
<title>Node30&#45;&gt;Node21</title>
<path fill="none" stroke="midnightblue" d="M1050.88,-215.86C1057.64,-206.5 1065.71,-195.33 1071.18,-187.75"/>
<polygon fill="midnightblue" stroke="midnightblue" points="1047.96,-213.93 1044.94,-224.08 1053.63,-218.03 1047.96,-213.93"/>
</g>
<!-- Node31&#45;&gt;Node23 -->
<g id="edge48" class="edge">
<title>Node31&#45;&gt;Node23</title>
<path fill="none" stroke="midnightblue" d="M1242.74,-214.86C1227.51,-179.25 1194.24,-101.45 1183.16,-75.57"/>
<polygon fill="midnightblue" stroke="midnightblue" points="1239.53,-216.26 1246.68,-224.08 1245.97,-213.5 1239.53,-216.26"/>
</g>
<!-- Node32 -->
<g id="node32" class="node">
<title>Node32</title>
<g id="a_node32"><a xlink:href="mp4coverart_8h.html" target="_top" xlink:title=" ">
<polygon fill="white" stroke="black" points="1244.5,-168.5 1244.5,-187.5 1332.5,-187.5 1332.5,-168.5 1244.5,-168.5"/>
<text text-anchor="middle" x="1288.5" y="-175.5" font-family="Helvetica,sans-Serif" font-size="10.00">mp4coverart.h</text>
</a>
</g>
</g>
<!-- Node31&#45;&gt;Node32 -->
<g id="edge44" class="edge">
<title>Node31&#45;&gt;Node32</title>
<path fill="none" stroke="midnightblue" d="M1262.56,-215.86C1269.14,-206.5 1277.01,-195.33 1282.34,-187.75"/>
<polygon fill="midnightblue" stroke="midnightblue" points="1259.67,-213.89 1256.77,-224.08 1265.39,-217.92 1259.67,-213.89"/>
</g>
<!-- Node33 -->
<g id="node33" class="node">
<title>Node33</title>
<g id="a_node33"><a xlink:href="mp4item_8h.html" target="_top" xlink:title=" ">
<polygon fill="white" stroke="black" points="1245.5,-112.5 1245.5,-131.5 1315.5,-131.5 1315.5,-112.5 1245.5,-112.5"/>
<text text-anchor="middle" x="1280.5" y="-119.5" font-family="Helvetica,sans-Serif" font-size="10.00">mp4item.h</text>
</a>
</g>
</g>
<!-- Node32&#45;&gt;Node33 -->
<g id="edge45" class="edge">
<title>Node32&#45;&gt;Node33</title>
<path fill="none" stroke="midnightblue" d="M1285.7,-158.1C1284.37,-149.14 1282.85,-138.86 1281.8,-131.75"/>
<polygon fill="midnightblue" stroke="midnightblue" points="1282.25,-158.7 1287.18,-168.08 1289.18,-157.68 1282.25,-158.7"/>
</g>
<!-- Node33&#45;&gt;Node23 -->
<g id="edge47" class="edge">
<title>Node33&#45;&gt;Node23</title>
<path fill="none" stroke="midnightblue" d="M1255.42,-107.59C1236.74,-97.61 1211.8,-84.27 1195.69,-75.65"/>
<polygon fill="midnightblue" stroke="midnightblue" points="1253.8,-110.7 1264.27,-112.32 1257.1,-104.52 1253.8,-110.7"/>
</g>
<!-- Node34 -->
<g id="node34" class="node">
<title>Node34</title>
<g id="a_node34"><a xlink:href="mp4itemfactory_8h.html" target="_top" xlink:title=" ">
<polygon fill="white" stroke="black" points="1229,-56.5 1229,-75.5 1332,-75.5 1332,-56.5 1229,-56.5"/>
<text text-anchor="middle" x="1280.5" y="-63.5" font-family="Helvetica,sans-Serif" font-size="10.00">mp4itemfactory.h</text>
</a>
</g>
</g>
<!-- Node33&#45;&gt;Node34 -->
<g id="edge46" class="edge">
<title>Node33&#45;&gt;Node34</title>
<path fill="none" stroke="midnightblue" d="M1280.5,-101.8C1280.5,-92.91 1280.5,-82.78 1280.5,-75.75"/>
<polygon fill="midnightblue" stroke="midnightblue" points="1277,-102.08 1280.5,-112.08 1284,-102.08 1277,-102.08"/>
</g>
<!-- Node36 -->
<g id="node36" class="node">
<title>Node36</title>
<g id="a_node36"><a xlink:href="oggflacfile_8h.html" target="_top" xlink:title=" ">
<polygon fill="white" stroke="black" points="1575.5,-168.5 1575.5,-187.5 1651.5,-187.5 1651.5,-168.5 1575.5,-168.5"/>
<text text-anchor="middle" x="1613.5" y="-175.5" font-family="Helvetica,sans-Serif" font-size="10.00">oggflacfile.h</text>
</a>
</g>
</g>
<!-- Node35&#45;&gt;Node36 -->
<g id="edge54" class="edge">
<title>Node35&#45;&gt;Node36</title>
<path fill="none" stroke="midnightblue" d="M1413.3,-223.61C1475.24,-209.41 1536.93,-195.77 1575.49,-187.31"/>
<polygon fill="midnightblue" stroke="midnightblue" points="1412.33,-220.24 1403.36,-225.89 1413.89,-227.06 1412.33,-220.24"/>
</g>
<!-- Node37 -->
<g id="node37" class="node">
<title>Node37</title>
<g id="a_node37"><a xlink:href="opusfile_8h.html" target="_top" xlink:title=" ">
<polygon fill="white" stroke="black" points="1670.5,-168.5 1670.5,-187.5 1734.5,-187.5 1734.5,-168.5 1670.5,-168.5"/>
<text text-anchor="middle" x="1702.5" y="-175.5" font-family="Helvetica,sans-Serif" font-size="10.00">opusfile.h</text>
</a>
</g>
</g>
<!-- Node35&#45;&gt;Node37 -->
<g id="edge55" class="edge">
<title>Node35&#45;&gt;Node37</title>
<path fill="none" stroke="midnightblue" d="M1413.47,-223.76C1523.12,-203.34 1553.66,-207.15 1660.5,-188 1663.73,-187.42 1667.09,-186.78 1670.44,-186.1"/>
<polygon fill="midnightblue" stroke="midnightblue" points="1412.49,-220.38 1403.32,-225.67 1413.79,-227.26 1412.49,-220.38"/>
</g>
<!-- Node38 -->
<g id="node38" class="node">
<title>Node38</title>
<g id="a_node38"><a xlink:href="speexfile_8h.html" target="_top" xlink:title=" ">
<polygon fill="white" stroke="black" points="1390.5,-168.5 1390.5,-187.5 1460.5,-187.5 1460.5,-168.5 1390.5,-168.5"/>
<text text-anchor="middle" x="1425.5" y="-175.5" font-family="Helvetica,sans-Serif" font-size="10.00">speexfile.h</text>
</a>
</g>
</g>
<!-- Node35&#45;&gt;Node38 -->
<g id="edge56" class="edge">
<title>Node35&#45;&gt;Node38</title>
<path fill="none" stroke="midnightblue" d="M1389.18,-216.72C1398.34,-207.2 1409.55,-195.56 1417.07,-187.75"/>
<polygon fill="midnightblue" stroke="midnightblue" points="1386.5,-214.45 1382.09,-224.08 1391.54,-219.31 1386.5,-214.45"/>
</g>
<!-- Node39 -->
<g id="node39" class="node">
<title>Node39</title>
<g id="a_node39"><a xlink:href="vorbisfile_8h.html" target="_top" xlink:title=" ">
<polygon fill="white" stroke="black" points="1484,-168.5 1484,-187.5 1555,-187.5 1555,-168.5 1484,-168.5"/>
<text text-anchor="middle" x="1519.5" y="-175.5" font-family="Helvetica,sans-Serif" font-size="10.00">vorbisfile.h</text>
</a>
</g>
</g>
<!-- Node35&#45;&gt;Node39 -->
<g id="edge57" class="edge">
<title>Node35&#45;&gt;Node39</title>
<path fill="none" stroke="midnightblue" d="M1406.2,-220.91C1433.65,-210.75 1472.17,-196.51 1496.47,-187.52"/>
<polygon fill="midnightblue" stroke="midnightblue" points="1404.8,-217.69 1396.63,-224.44 1407.23,-224.26 1404.8,-217.69"/>
</g>
<!-- Node40&#45;&gt;Node7 -->
<g id="edge60" class="edge">
<title>Node40&#45;&gt;Node7</title>
<path fill="none" stroke="midnightblue" d="M205.45,-221.17C175.33,-211 132.6,-196.59 105.73,-187.52"/>
<polygon fill="midnightblue" stroke="midnightblue" points="204.55,-224.56 215.15,-224.44 206.79,-217.93 204.55,-224.56"/>
</g>
<!-- Node40&#45;&gt;Node11 -->
<g id="edge59" class="edge">
<title>Node40&#45;&gt;Node11</title>
<path fill="none" stroke="midnightblue" d="M240.5,-213.8C240.5,-204.91 240.5,-194.78 240.5,-187.75"/>
<polygon fill="midnightblue" stroke="midnightblue" points="237,-214.08 240.5,-224.08 244,-214.08 237,-214.08"/>
</g>
<!-- Node40&#45;&gt;Node15 -->
<g id="edge61" class="edge">
<title>Node40&#45;&gt;Node15</title>
<path fill="none" stroke="midnightblue" d="M219.6,-218.34C205.59,-208.52 187.62,-195.91 175.84,-187.65"/>
<polygon fill="midnightblue" stroke="midnightblue" points="217.93,-221.45 228.13,-224.32 221.95,-215.72 217.93,-221.45"/>
</g>
<!-- Node43&#45;&gt;Node36 -->
<g id="edge67" class="edge">
<title>Node43&#45;&gt;Node36</title>
<path fill="none" stroke="midnightblue" d="M1686.91,-219.45C1668.82,-209.48 1644.77,-196.23 1629.21,-187.65"/>
<polygon fill="midnightblue" stroke="midnightblue" points="1685.31,-222.56 1695.75,-224.32 1688.69,-216.43 1685.31,-222.56"/>
</g>
<!-- Node43&#45;&gt;Node37 -->
<g id="edge68" class="edge">
<title>Node43&#45;&gt;Node37</title>
<path fill="none" stroke="midnightblue" d="M1708.35,-214.1C1706.86,-205.14 1705.14,-194.86 1703.96,-187.75"/>
<polygon fill="midnightblue" stroke="midnightblue" points="1704.92,-214.79 1710.01,-224.08 1711.82,-213.64 1704.92,-214.79"/>
</g>
<!-- Node43&#45;&gt;Node38 -->
<g id="edge69" class="edge">
<title>Node43&#45;&gt;Node38</title>
<path fill="none" stroke="midnightblue" d="M1656.13,-222.55C1598.35,-211.64 1509.53,-194.86 1460.69,-185.64"/>
<polygon fill="midnightblue" stroke="midnightblue" points="1655.71,-226.03 1666.18,-224.44 1657.01,-219.15 1655.71,-226.03"/>
</g>
<!-- Node43&#45;&gt;Node39 -->
<g id="edge70" class="edge">
<title>Node43&#45;&gt;Node39</title>
<path fill="none" stroke="midnightblue" d="M1671.32,-221.7C1635.08,-211.51 1582.59,-196.74 1549.78,-187.52"/>
<polygon fill="midnightblue" stroke="midnightblue" points="1670.5,-225.11 1681.08,-224.44 1672.4,-218.37 1670.5,-225.11"/>
</g>
</g>
</svg>
