<?xml version="1.0" encoding="UTF-8" standalone="no"?>
<!DOCTYPE svg PUBLIC "-//W3C//DTD SVG 1.1//EN"
 "http://www.w3.org/Graphics/SVG/1.1/DTD/svg11.dtd">
<!-- Generated by graphviz version 2.43.0 (0)
 -->
<!-- Title: tvariant.h Pages: 1 -->
<svg width="558pt" height="196pt"
 viewBox="0.00 0.00 557.50 196.00" xmlns="http://www.w3.org/2000/svg" xmlns:xlink="http://www.w3.org/1999/xlink">
<g id="graph0" class="graph" transform="scale(1 1) rotate(0) translate(4 192)">
<title>tvariant.h</title>
<polygon fill="white" stroke="transparent" points="-4,4 -4,-192 553.5,-192 553.5,4 -4,4"/>
<!-- Node1 -->
<g id="node1" class="node">
<title>Node1</title>
<g id="a_node1"><a xlink:title=" ">
<polygon fill="#bfbfbf" stroke="black" points="220,-168.5 220,-187.5 284,-187.5 284,-168.5 220,-168.5"/>
<text text-anchor="middle" x="252" y="-175.5" font-family="Helvetica,sans-Serif" font-size="10.00">tvariant.h</text>
</a>
</g>
</g>
<!-- Node2 -->
<g id="node2" class="node">
<title>Node2</title>
<g id="a_node2"><a xlink:title=" ">
<polygon fill="white" stroke="#bfbfbf" points="68.5,-112.5 68.5,-131.5 133.5,-131.5 133.5,-112.5 68.5,-112.5"/>
<text text-anchor="middle" x="101" y="-119.5" font-family="Helvetica,sans-Serif" font-size="10.00">memory.h</text>
</a>
</g>
</g>
<!-- Node1&#45;&gt;Node2 -->
<g id="edge1" class="edge">
<title>Node1&#45;&gt;Node2</title>
<path fill="none" stroke="midnightblue" d="M228.07,-168.44C202.78,-159.4 162.7,-145.06 134.32,-134.92"/>
<polygon fill="midnightblue" stroke="midnightblue" points="135.41,-131.59 124.81,-131.52 133.05,-138.18 135.41,-131.59"/>
</g>
<!-- Node3 -->
<g id="node3" class="node">
<title>Node3</title>
<g id="a_node3"><a xlink:title=" ">
<polygon fill="white" stroke="#bfbfbf" points="152,-112.5 152,-131.5 212,-131.5 212,-112.5 152,-112.5"/>
<text text-anchor="middle" x="182" y="-119.5" font-family="Helvetica,sans-Serif" font-size="10.00">iostream</text>
</a>
</g>
</g>
<!-- Node1&#45;&gt;Node3 -->
<g id="edge2" class="edge">
<title>Node1&#45;&gt;Node3</title>
<path fill="none" stroke="midnightblue" d="M240.75,-168.32C230.2,-160.18 214.2,-147.84 201.56,-138.09"/>
<polygon fill="midnightblue" stroke="midnightblue" points="203.51,-135.17 193.45,-131.83 199.23,-140.71 203.51,-135.17"/>
</g>
<!-- Node4 -->
<g id="node4" class="node">
<title>Node4</title>
<g id="a_node4"><a xlink:href="tlist_8h.html" target="_top" xlink:title=" ">
<polygon fill="white" stroke="black" points="230,-112.5 230,-131.5 274,-131.5 274,-112.5 230,-112.5"/>
<text text-anchor="middle" x="252" y="-119.5" font-family="Helvetica,sans-Serif" font-size="10.00">tlist.h</text>
</a>
</g>
</g>
<!-- Node1&#45;&gt;Node4 -->
<g id="edge3" class="edge">
<title>Node1&#45;&gt;Node4</title>
<path fill="none" stroke="midnightblue" d="M252,-168.08C252,-161.01 252,-150.86 252,-141.99"/>
<polygon fill="midnightblue" stroke="midnightblue" points="255.5,-141.75 252,-131.75 248.5,-141.75 255.5,-141.75"/>
</g>
<!-- Node13 -->
<g id="node13" class="node">
<title>Node13</title>
<g id="a_node13"><a xlink:href="tmap_8h.html" target="_top" xlink:title=" ">
<polygon fill="white" stroke="black" points="296.5,-112.5 296.5,-131.5 347.5,-131.5 347.5,-112.5 296.5,-112.5"/>
<text text-anchor="middle" x="322" y="-119.5" font-family="Helvetica,sans-Serif" font-size="10.00">tmap.h</text>
</a>
</g>
</g>
<!-- Node1&#45;&gt;Node13 -->
<g id="edge12" class="edge">
<title>Node1&#45;&gt;Node13</title>
<path fill="none" stroke="midnightblue" d="M263.25,-168.32C273.8,-160.18 289.8,-147.84 302.44,-138.09"/>
<polygon fill="midnightblue" stroke="midnightblue" points="304.77,-140.71 310.55,-131.83 300.49,-135.17 304.77,-140.71"/>
</g>
<!-- Node17 -->
<g id="node17" class="node">
<title>Node17</title>
<g id="a_node17"><a xlink:href="taglib__export_8h.html" target="_top" xlink:title=" ">
<polygon fill="white" stroke="black" points="366,-112.5 366,-131.5 456,-131.5 456,-112.5 366,-112.5"/>
<text text-anchor="middle" x="411" y="-119.5" font-family="Helvetica,sans-Serif" font-size="10.00">taglib_export.h</text>
</a>
</g>
</g>
<!-- Node1&#45;&gt;Node17 -->
<g id="edge19" class="edge">
<title>Node1&#45;&gt;Node17</title>
<path fill="none" stroke="midnightblue" d="M277.19,-168.44C303.94,-159.36 346.4,-144.94 376.31,-134.78"/>
<polygon fill="midnightblue" stroke="midnightblue" points="377.58,-138.05 385.92,-131.52 375.33,-131.42 377.58,-138.05"/>
</g>
<!-- Node5 -->
<g id="node5" class="node">
<title>Node5</title>
<g id="a_node5"><a xlink:title=" ">
<polygon fill="white" stroke="#bfbfbf" points="0,-56.5 0,-75.5 32,-75.5 32,-56.5 0,-56.5"/>
<text text-anchor="middle" x="16" y="-63.5" font-family="Helvetica,sans-Serif" font-size="10.00">list</text>
</a>
</g>
</g>
<!-- Node4&#45;&gt;Node5 -->
<g id="edge4" class="edge">
<title>Node4&#45;&gt;Node5</title>
<path fill="none" stroke="midnightblue" d="M229.71,-114.28C226.79,-113.48 223.83,-112.69 221,-112 144.85,-93.37 121.41,-97.5 41.99,-75.93"/>
<polygon fill="midnightblue" stroke="midnightblue" points="42.6,-72.46 32.02,-73.16 40.73,-79.21 42.6,-72.46"/>
</g>
<!-- Node6 -->
<g id="node6" class="node">
<title>Node6</title>
<g id="a_node6"><a xlink:title=" ">
<polygon fill="white" stroke="#bfbfbf" points="121.5,-56.5 121.5,-75.5 204.5,-75.5 204.5,-56.5 121.5,-56.5"/>
<text text-anchor="middle" x="163" y="-63.5" font-family="Helvetica,sans-Serif" font-size="10.00">initializer_list</text>
</a>
</g>
</g>
<!-- Node4&#45;&gt;Node6 -->
<g id="edge5" class="edge">
<title>Node4&#45;&gt;Node6</title>
<path fill="none" stroke="midnightblue" d="M237.7,-112.32C223.82,-103.9 202.51,-90.97 186.2,-81.07"/>
<polygon fill="midnightblue" stroke="midnightblue" points="187.63,-77.85 177.26,-75.65 184,-83.83 187.63,-77.85"/>
</g>
<!-- Node7 -->
<g id="node7" class="node">
<title>Node7</title>
<g id="a_node7"><a xlink:title=" ">
<polygon fill="white" stroke="#bfbfbf" points="223,-56.5 223,-75.5 281,-75.5 281,-56.5 223,-56.5"/>
<text text-anchor="middle" x="252" y="-63.5" font-family="Helvetica,sans-Serif" font-size="10.00">memory</text>
</a>
</g>
</g>
<!-- Node4&#45;&gt;Node7 -->
<g id="edge6" class="edge">
<title>Node4&#45;&gt;Node7</title>
<path fill="none" stroke="midnightblue" d="M252,-112.08C252,-105.01 252,-94.86 252,-85.99"/>
<polygon fill="midnightblue" stroke="midnightblue" points="255.5,-85.75 252,-75.75 248.5,-85.75 255.5,-85.75"/>
</g>
<!-- Node8 -->
<g id="node8" class="node">
<title>Node8</title>
<g id="a_node8"><a xlink:href="taglib_8h.html" target="_top" xlink:title=" ">
<polygon fill="white" stroke="black" points="299.5,-56.5 299.5,-75.5 352.5,-75.5 352.5,-56.5 299.5,-56.5"/>
<text text-anchor="middle" x="326" y="-63.5" font-family="Helvetica,sans-Serif" font-size="10.00">taglib.h</text>
</a>
</g>
</g>
<!-- Node4&#45;&gt;Node8 -->
<g id="edge7" class="edge">
<title>Node4&#45;&gt;Node8</title>
<path fill="none" stroke="midnightblue" d="M263.89,-112.32C275.15,-104.11 292.29,-91.6 305.71,-81.81"/>
<polygon fill="midnightblue" stroke="midnightblue" points="307.88,-84.56 313.89,-75.83 303.75,-78.9 307.88,-84.56"/>
</g>
<!-- Node12 -->
<g id="node12" class="node">
<title>Node12</title>
<g id="a_node12"><a xlink:title=" ">
<polygon fill="white" stroke="#bfbfbf" points="50.5,-56.5 50.5,-75.5 103.5,-75.5 103.5,-56.5 50.5,-56.5"/>
<text text-anchor="middle" x="77" y="-63.5" font-family="Helvetica,sans-Serif" font-size="10.00">tlist.tcc</text>
</a>
</g>
</g>
<!-- Node4&#45;&gt;Node12 -->
<g id="edge11" class="edge">
<title>Node4&#45;&gt;Node12</title>
<path fill="none" stroke="midnightblue" d="M229.84,-114.16C200.54,-105.12 148.53,-89.07 113.42,-78.24"/>
<polygon fill="midnightblue" stroke="midnightblue" points="114.14,-74.8 103.55,-75.19 112.08,-81.49 114.14,-74.8"/>
</g>
<!-- Node9 -->
<g id="node9" class="node">
<title>Node9</title>
<g id="a_node9"><a xlink:title=" ">
<polygon fill="white" stroke="#bfbfbf" points="184,-0.5 184,-19.5 272,-19.5 272,-0.5 184,-0.5"/>
<text text-anchor="middle" x="228" y="-7.5" font-family="Helvetica,sans-Serif" font-size="10.00">taglib_config.h</text>
</a>
</g>
</g>
<!-- Node8&#45;&gt;Node9 -->
<g id="edge8" class="edge">
<title>Node8&#45;&gt;Node9</title>
<path fill="none" stroke="midnightblue" d="M310.25,-56.32C294.68,-47.74 270.62,-34.49 252.54,-24.52"/>
<polygon fill="midnightblue" stroke="midnightblue" points="254.15,-21.42 243.71,-19.65 250.78,-27.55 254.15,-21.42"/>
</g>
<!-- Node10 -->
<g id="node10" class="node">
<title>Node10</title>
<g id="a_node10"><a xlink:title=" ">
<polygon fill="white" stroke="#bfbfbf" points="290,-0.5 290,-19.5 362,-19.5 362,-0.5 290,-0.5"/>
<text text-anchor="middle" x="326" y="-7.5" font-family="Helvetica,sans-Serif" font-size="10.00">sys/types.h</text>
</a>
</g>
</g>
<!-- Node8&#45;&gt;Node10 -->
<g id="edge9" class="edge">
<title>Node8&#45;&gt;Node10</title>
<path fill="none" stroke="midnightblue" d="M326,-56.08C326,-49.01 326,-38.86 326,-29.99"/>
<polygon fill="midnightblue" stroke="midnightblue" points="329.5,-29.75 326,-19.75 322.5,-29.75 329.5,-29.75"/>
</g>
<!-- Node11 -->
<g id="node11" class="node">
<title>Node11</title>
<g id="a_node11"><a xlink:title=" ">
<polygon fill="white" stroke="#bfbfbf" points="380,-0.5 380,-19.5 424,-19.5 424,-0.5 380,-0.5"/>
<text text-anchor="middle" x="402" y="-7.5" font-family="Helvetica,sans-Serif" font-size="10.00">string</text>
</a>
</g>
</g>
<!-- Node8&#45;&gt;Node11 -->
<g id="edge10" class="edge">
<title>Node8&#45;&gt;Node11</title>
<path fill="none" stroke="midnightblue" d="M338.21,-56.32C349.78,-48.11 367.38,-35.6 381.16,-25.81"/>
<polygon fill="midnightblue" stroke="midnightblue" points="383.44,-28.48 389.57,-19.83 379.39,-22.77 383.44,-28.48"/>
</g>
<!-- Node13&#45;&gt;Node6 -->
<g id="edge15" class="edge">
<title>Node13&#45;&gt;Node6</title>
<path fill="none" stroke="midnightblue" d="M296.81,-112.44C270.06,-103.36 227.6,-88.94 197.69,-78.78"/>
<polygon fill="midnightblue" stroke="midnightblue" points="198.67,-75.42 188.08,-75.52 196.42,-82.05 198.67,-75.42"/>
</g>
<!-- Node13&#45;&gt;Node7 -->
<g id="edge14" class="edge">
<title>Node13&#45;&gt;Node7</title>
<path fill="none" stroke="midnightblue" d="M310.75,-112.32C300.2,-104.18 284.2,-91.84 271.56,-82.09"/>
<polygon fill="midnightblue" stroke="midnightblue" points="273.51,-79.17 263.45,-75.83 269.23,-84.71 273.51,-79.17"/>
</g>
<!-- Node13&#45;&gt;Node8 -->
<g id="edge17" class="edge">
<title>Node13&#45;&gt;Node8</title>
<path fill="none" stroke="midnightblue" d="M322.66,-112.08C323.18,-105.01 323.94,-94.86 324.59,-85.99"/>
<polygon fill="midnightblue" stroke="midnightblue" points="328.1,-85.98 325.35,-75.75 321.12,-85.47 328.1,-85.98"/>
</g>
<!-- Node14 -->
<g id="node14" class="node">
<title>Node14</title>
<g id="a_node14"><a xlink:title=" ">
<polygon fill="white" stroke="#bfbfbf" points="371,-56.5 371,-75.5 409,-75.5 409,-56.5 371,-56.5"/>
<text text-anchor="middle" x="390" y="-63.5" font-family="Helvetica,sans-Serif" font-size="10.00">map</text>
</a>
</g>
</g>
<!-- Node13&#45;&gt;Node14 -->
<g id="edge13" class="edge">
<title>Node13&#45;&gt;Node14</title>
<path fill="none" stroke="midnightblue" d="M332.93,-112.32C343.17,-104.18 358.72,-91.84 371,-82.09"/>
<polygon fill="midnightblue" stroke="midnightblue" points="373.22,-84.79 378.88,-75.83 368.87,-79.31 373.22,-84.79"/>
</g>
<!-- Node15 -->
<g id="node15" class="node">
<title>Node15</title>
<g id="a_node15"><a xlink:title=" ">
<polygon fill="white" stroke="#bfbfbf" points="427.5,-56.5 427.5,-75.5 472.5,-75.5 472.5,-56.5 427.5,-56.5"/>
<text text-anchor="middle" x="450" y="-63.5" font-family="Helvetica,sans-Serif" font-size="10.00">utility</text>
</a>
</g>
</g>
<!-- Node13&#45;&gt;Node15 -->
<g id="edge16" class="edge">
<title>Node13&#45;&gt;Node15</title>
<path fill="none" stroke="midnightblue" d="M342.28,-112.44C363.35,-103.56 396.52,-89.56 420.49,-79.45"/>
<polygon fill="midnightblue" stroke="midnightblue" points="421.96,-82.63 429.81,-75.52 419.24,-76.18 421.96,-82.63"/>
</g>
<!-- Node16 -->
<g id="node16" class="node">
<title>Node16</title>
<g id="a_node16"><a xlink:title=" ">
<polygon fill="white" stroke="#bfbfbf" points="490.5,-56.5 490.5,-75.5 549.5,-75.5 549.5,-56.5 490.5,-56.5"/>
<text text-anchor="middle" x="520" y="-63.5" font-family="Helvetica,sans-Serif" font-size="10.00">tmap.tcc</text>
</a>
</g>
</g>
<!-- Node13&#45;&gt;Node16 -->
<g id="edge18" class="edge">
<title>Node13&#45;&gt;Node16</title>
<path fill="none" stroke="midnightblue" d="M347.89,-113.94C381.64,-104.74 441,-88.54 480.42,-77.79"/>
<polygon fill="midnightblue" stroke="midnightblue" points="481.5,-81.13 490.23,-75.12 479.66,-74.37 481.5,-81.13"/>
</g>
</g>
</svg>
