<?xml version="1.0" encoding="UTF-8" standalone="no"?>
<!DOCTYPE svg PUBLIC "-//W3C//DTD SVG 1.1//EN"
 "http://www.w3.org/Graphics/SVG/1.1/DTD/svg11.dtd">
<!-- Generated by graphviz version 2.43.0 (0)
 -->
<!-- Title: uniquefileidentifierframe.h Pages: 1 -->
<svg width="338pt" height="308pt"
 viewBox="0.00 0.00 338.00 308.00" xmlns="http://www.w3.org/2000/svg" xmlns:xlink="http://www.w3.org/1999/xlink">
<g id="graph0" class="graph" transform="scale(1 1) rotate(0) translate(4 304)">
<title>uniquefileidentifierframe.h</title>
<polygon fill="white" stroke="transparent" points="-4,4 -4,-304 334,-304 334,4 -4,4"/>
<!-- Node1 -->
<g id="node1" class="node">
<title>Node1</title>
<g id="a_node1"><a xlink:title=" ">
<polygon fill="#bfbfbf" stroke="black" points="79,-280.5 79,-299.5 225,-299.5 225,-280.5 79,-280.5"/>
<text text-anchor="middle" x="152" y="-287.5" font-family="Helvetica,sans-Serif" font-size="10.00">uniquefileidentifierframe.h</text>
</a>
</g>
</g>
<!-- Node2 -->
<g id="node2" class="node">
<title>Node2</title>
<g id="a_node2"><a xlink:href="id3v2frame_8h.html" target="_top" xlink:title=" ">
<polygon fill="white" stroke="black" points="111,-224.5 111,-243.5 193,-243.5 193,-224.5 111,-224.5"/>
<text text-anchor="middle" x="152" y="-231.5" font-family="Helvetica,sans-Serif" font-size="10.00">id3v2frame.h</text>
</a>
</g>
</g>
<!-- Node1&#45;&gt;Node2 -->
<g id="edge1" class="edge">
<title>Node1&#45;&gt;Node2</title>
<path fill="none" stroke="midnightblue" d="M152,-280.08C152,-273.01 152,-262.86 152,-253.99"/>
<polygon fill="midnightblue" stroke="midnightblue" points="155.5,-253.75 152,-243.75 148.5,-253.75 155.5,-253.75"/>
</g>
<!-- Node3 -->
<g id="node3" class="node">
<title>Node3</title>
<g id="a_node3"><a xlink:href="tstring_8h.html" target="_top" xlink:title=" ">
<polygon fill="white" stroke="black" points="186.5,-168.5 186.5,-187.5 243.5,-187.5 243.5,-168.5 186.5,-168.5"/>
<text text-anchor="middle" x="215" y="-175.5" font-family="Helvetica,sans-Serif" font-size="10.00">tstring.h</text>
</a>
</g>
</g>
<!-- Node2&#45;&gt;Node3 -->
<g id="edge2" class="edge">
<title>Node2&#45;&gt;Node3</title>
<path fill="none" stroke="midnightblue" d="M162.12,-224.32C171.53,-216.26 185.74,-204.08 197.07,-194.37"/>
<polygon fill="midnightblue" stroke="midnightblue" points="199.38,-197 204.69,-187.83 194.82,-191.68 199.38,-197"/>
</g>
<!-- Node4 -->
<g id="node4" class="node">
<title>Node4</title>
<g id="a_node4"><a xlink:href="taglib__export_8h.html" target="_top" xlink:title=" ">
<polygon fill="white" stroke="black" points="0,-56.5 0,-75.5 90,-75.5 90,-56.5 0,-56.5"/>
<text text-anchor="middle" x="45" y="-63.5" font-family="Helvetica,sans-Serif" font-size="10.00">taglib_export.h</text>
</a>
</g>
</g>
<!-- Node2&#45;&gt;Node4 -->
<g id="edge15" class="edge">
<title>Node2&#45;&gt;Node4</title>
<path fill="none" stroke="midnightblue" d="M144.82,-224.46C130.77,-207.52 99.08,-168.16 77,-132 67.69,-116.75 58.86,-98.42 52.84,-85.11"/>
<polygon fill="midnightblue" stroke="midnightblue" points="55.92,-83.4 48.67,-75.68 49.52,-86.24 55.92,-83.4"/>
</g>
<!-- Node8 -->
<g id="node8" class="node">
<title>Node8</title>
<g id="a_node8"><a xlink:href="tbytevector_8h.html" target="_top" xlink:title=" ">
<polygon fill="white" stroke="black" points="111.5,-112.5 111.5,-131.5 192.5,-131.5 192.5,-112.5 111.5,-112.5"/>
<text text-anchor="middle" x="152" y="-119.5" font-family="Helvetica,sans-Serif" font-size="10.00">tbytevector.h</text>
</a>
</g>
</g>
<!-- Node2&#45;&gt;Node8 -->
<g id="edge14" class="edge">
<title>Node2&#45;&gt;Node8</title>
<path fill="none" stroke="midnightblue" d="M152,-224.37C152,-206.62 152,-165.67 152,-141.6"/>
<polygon fill="midnightblue" stroke="midnightblue" points="155.5,-141.59 152,-131.59 148.5,-141.59 155.5,-141.59"/>
</g>
<!-- Node3&#45;&gt;Node4 -->
<g id="edge3" class="edge">
<title>Node3&#45;&gt;Node4</title>
<path fill="none" stroke="midnightblue" d="M186.23,-169.64C162.22,-162.58 127.87,-150.27 102,-132 83.5,-118.93 67,-98.68 56.57,-84.25"/>
<polygon fill="midnightblue" stroke="midnightblue" points="59.23,-81.95 50.64,-75.75 53.49,-85.96 59.23,-81.95"/>
</g>
<!-- Node5 -->
<g id="node5" class="node">
<title>Node5</title>
<g id="a_node5"><a xlink:href="taglib_8h.html" target="_top" xlink:title=" ">
<polygon fill="white" stroke="black" points="173.5,-56.5 173.5,-75.5 226.5,-75.5 226.5,-56.5 173.5,-56.5"/>
<text text-anchor="middle" x="200" y="-63.5" font-family="Helvetica,sans-Serif" font-size="10.00">taglib.h</text>
</a>
</g>
</g>
<!-- Node3&#45;&gt;Node5 -->
<g id="edge4" class="edge">
<title>Node3&#45;&gt;Node5</title>
<path fill="none" stroke="midnightblue" d="M213.82,-168.37C211.4,-150.62 205.82,-109.67 202.54,-85.6"/>
<polygon fill="midnightblue" stroke="midnightblue" points="205.99,-85.03 201.17,-75.59 199.05,-85.97 205.99,-85.03"/>
</g>
<!-- Node7 -->
<g id="node7" class="node">
<title>Node7</title>
<g id="a_node7"><a xlink:title=" ">
<polygon fill="white" stroke="#bfbfbf" points="286,-0.5 286,-19.5 330,-19.5 330,-0.5 286,-0.5"/>
<text text-anchor="middle" x="308" y="-7.5" font-family="Helvetica,sans-Serif" font-size="10.00">string</text>
</a>
</g>
</g>
<!-- Node3&#45;&gt;Node7 -->
<g id="edge12" class="edge">
<title>Node3&#45;&gt;Node7</title>
<path fill="none" stroke="midnightblue" d="M228.55,-168.45C251.34,-153.17 296.55,-118.73 314,-76 320.02,-61.25 317.62,-43.09 314.23,-29.72"/>
<polygon fill="midnightblue" stroke="midnightblue" points="317.49,-28.4 311.31,-19.79 310.77,-30.37 317.49,-28.4"/>
</g>
<!-- Node3&#45;&gt;Node8 -->
<g id="edge7" class="edge">
<title>Node3&#45;&gt;Node8</title>
<path fill="none" stroke="midnightblue" d="M204.88,-168.32C195.47,-160.26 181.26,-148.08 169.93,-138.37"/>
<polygon fill="midnightblue" stroke="midnightblue" points="172.18,-135.68 162.31,-131.83 167.62,-141 172.18,-135.68"/>
</g>
<!-- Node10 -->
<g id="node10" class="node">
<title>Node10</title>
<g id="a_node10"><a xlink:title=" ">
<polygon fill="white" stroke="#bfbfbf" points="245,-56.5 245,-75.5 305,-75.5 305,-56.5 245,-56.5"/>
<text text-anchor="middle" x="275" y="-63.5" font-family="Helvetica,sans-Serif" font-size="10.00">iostream</text>
</a>
</g>
</g>
<!-- Node3&#45;&gt;Node10 -->
<g id="edge13" class="edge">
<title>Node3&#45;&gt;Node10</title>
<path fill="none" stroke="midnightblue" d="M219.71,-168.37C229.52,-150.38 252.34,-108.55 265.39,-84.63"/>
<polygon fill="midnightblue" stroke="midnightblue" points="268.6,-86.05 270.31,-75.59 262.45,-82.69 268.6,-86.05"/>
</g>
<!-- Node6 -->
<g id="node6" class="node">
<title>Node6</title>
<g id="a_node6"><a xlink:title=" ">
<polygon fill="white" stroke="#bfbfbf" points="156,-0.5 156,-19.5 244,-19.5 244,-0.5 156,-0.5"/>
<text text-anchor="middle" x="200" y="-7.5" font-family="Helvetica,sans-Serif" font-size="10.00">taglib_config.h</text>
</a>
</g>
</g>
<!-- Node5&#45;&gt;Node6 -->
<g id="edge5" class="edge">
<title>Node5&#45;&gt;Node6</title>
<path fill="none" stroke="midnightblue" d="M200,-56.08C200,-49.01 200,-38.86 200,-29.99"/>
<polygon fill="midnightblue" stroke="midnightblue" points="203.5,-29.75 200,-19.75 196.5,-29.75 203.5,-29.75"/>
</g>
<!-- Node5&#45;&gt;Node7 -->
<g id="edge6" class="edge">
<title>Node5&#45;&gt;Node7</title>
<path fill="none" stroke="midnightblue" d="M217.35,-56.32C234.67,-47.66 261.52,-34.24 281.5,-24.25"/>
<polygon fill="midnightblue" stroke="midnightblue" points="283.31,-27.26 290.69,-19.65 280.18,-21 283.31,-27.26"/>
</g>
<!-- Node8&#45;&gt;Node4 -->
<g id="edge9" class="edge">
<title>Node8&#45;&gt;Node4</title>
<path fill="none" stroke="midnightblue" d="M134.81,-112.32C117.65,-103.66 91.05,-90.24 71.25,-80.25"/>
<polygon fill="midnightblue" stroke="midnightblue" points="72.65,-77.04 62.15,-75.65 69.5,-83.28 72.65,-77.04"/>
</g>
<!-- Node8&#45;&gt;Node5 -->
<g id="edge8" class="edge">
<title>Node8&#45;&gt;Node5</title>
<path fill="none" stroke="midnightblue" d="M159.93,-112.08C166.85,-104.3 177.07,-92.8 185.45,-83.37"/>
<polygon fill="midnightblue" stroke="midnightblue" points="188.19,-85.55 192.22,-75.75 182.96,-80.9 188.19,-85.55"/>
</g>
<!-- Node9 -->
<g id="node9" class="node">
<title>Node9</title>
<g id="a_node9"><a xlink:title=" ">
<polygon fill="white" stroke="#bfbfbf" points="108.5,-56.5 108.5,-75.5 155.5,-75.5 155.5,-56.5 108.5,-56.5"/>
<text text-anchor="middle" x="132" y="-63.5" font-family="Helvetica,sans-Serif" font-size="10.00">vector</text>
</a>
</g>
</g>
<!-- Node8&#45;&gt;Node9 -->
<g id="edge10" class="edge">
<title>Node8&#45;&gt;Node9</title>
<path fill="none" stroke="midnightblue" d="M148.7,-112.08C146.02,-104.85 142.15,-94.41 138.81,-85.4"/>
<polygon fill="midnightblue" stroke="midnightblue" points="142,-83.91 135.24,-75.75 135.43,-86.34 142,-83.91"/>
</g>
<!-- Node8&#45;&gt;Node10 -->
<g id="edge11" class="edge">
<title>Node8&#45;&gt;Node10</title>
<path fill="none" stroke="midnightblue" d="M171.49,-112.44C191.64,-103.6 223.32,-89.69 246.33,-79.59"/>
<polygon fill="midnightblue" stroke="midnightblue" points="247.85,-82.74 255.6,-75.52 245.04,-76.33 247.85,-82.74"/>
</g>
</g>
</svg>
