<?xml version="1.0" encoding="UTF-8" standalone="no"?>
<!DOCTYPE svg PUBLIC "-//W3C//DTD SVG 1.1//EN"
 "http://www.w3.org/Graphics/SVG/1.1/DTD/svg11.dtd">
<!-- Generated by graphviz version 2.43.0 (0)
 -->
<!-- Title: unknownframe.h Pages: 1 -->
<svg width="321pt" height="252pt"
 viewBox="0.00 0.00 320.50 252.00" xmlns="http://www.w3.org/2000/svg" xmlns:xlink="http://www.w3.org/1999/xlink">
<g id="graph0" class="graph" transform="scale(1 1) rotate(0) translate(4 248)">
<title>unknownframe.h</title>
<polygon fill="white" stroke="transparent" points="-4,4 -4,-248 316.5,-248 316.5,4 -4,4"/>
<!-- Node1 -->
<g id="node1" class="node">
<title>Node1</title>
<g id="a_node1"><a xlink:title=" ">
<polygon fill="#bfbfbf" stroke="black" points="0,-224.5 0,-243.5 99,-243.5 99,-224.5 0,-224.5"/>
<text text-anchor="middle" x="49.5" y="-231.5" font-family="Helvetica,sans-Serif" font-size="10.00">unknownframe.h</text>
</a>
</g>
</g>
<!-- Node2 -->
<g id="node2" class="node">
<title>Node2</title>
<g id="a_node2"><a xlink:href="taglib__export_8h.html" target="_top" xlink:title=" ">
<polygon fill="white" stroke="black" points="11.5,-0.5 11.5,-19.5 101.5,-19.5 101.5,-0.5 11.5,-0.5"/>
<text text-anchor="middle" x="56.5" y="-7.5" font-family="Helvetica,sans-Serif" font-size="10.00">taglib_export.h</text>
</a>
</g>
</g>
<!-- Node1&#45;&gt;Node2 -->
<g id="edge1" class="edge">
<title>Node1&#45;&gt;Node2</title>
<path fill="none" stroke="midnightblue" d="M49,-224.38C48.51,-215.32 47.78,-200.67 47.5,-188 46.22,-130.47 51.62,-62.52 54.61,-30.09"/>
<polygon fill="midnightblue" stroke="midnightblue" points="58.13,-30.12 55.59,-19.83 51.16,-29.46 58.13,-30.12"/>
</g>
<!-- Node3 -->
<g id="node3" class="node">
<title>Node3</title>
<g id="a_node3"><a xlink:href="id3v2frame_8h.html" target="_top" xlink:title=" ">
<polygon fill="white" stroke="black" points="56.5,-168.5 56.5,-187.5 138.5,-187.5 138.5,-168.5 56.5,-168.5"/>
<text text-anchor="middle" x="97.5" y="-175.5" font-family="Helvetica,sans-Serif" font-size="10.00">id3v2frame.h</text>
</a>
</g>
</g>
<!-- Node1&#45;&gt;Node3 -->
<g id="edge2" class="edge">
<title>Node1&#45;&gt;Node3</title>
<path fill="none" stroke="midnightblue" d="M57.43,-224.08C64.35,-216.3 74.57,-204.8 82.95,-195.37"/>
<polygon fill="midnightblue" stroke="midnightblue" points="85.69,-197.55 89.72,-187.75 80.46,-192.9 85.69,-197.55"/>
</g>
<!-- Node3&#45;&gt;Node2 -->
<g id="edge12" class="edge">
<title>Node3&#45;&gt;Node2</title>
<path fill="none" stroke="midnightblue" d="M95.3,-168.08C88.84,-141.95 69.89,-65.21 61.09,-29.58"/>
<polygon fill="midnightblue" stroke="midnightblue" points="64.41,-28.44 58.62,-19.57 57.62,-30.12 64.41,-28.44"/>
</g>
<!-- Node4 -->
<g id="node4" class="node">
<title>Node4</title>
<g id="a_node4"><a xlink:href="tstring_8h.html" target="_top" xlink:title=" ">
<polygon fill="white" stroke="black" points="97,-112.5 97,-131.5 154,-131.5 154,-112.5 97,-112.5"/>
<text text-anchor="middle" x="125.5" y="-119.5" font-family="Helvetica,sans-Serif" font-size="10.00">tstring.h</text>
</a>
</g>
</g>
<!-- Node3&#45;&gt;Node4 -->
<g id="edge3" class="edge">
<title>Node3&#45;&gt;Node4</title>
<path fill="none" stroke="midnightblue" d="M102.12,-168.08C105.96,-160.69 111.52,-149.95 116.26,-140.81"/>
<polygon fill="midnightblue" stroke="midnightblue" points="119.47,-142.24 120.96,-131.75 113.25,-139.02 119.47,-142.24"/>
</g>
<!-- Node6 -->
<g id="node6" class="node">
<title>Node6</title>
<g id="a_node6"><a xlink:href="tbytevector_8h.html" target="_top" xlink:title=" ">
<polygon fill="white" stroke="black" points="182,-56.5 182,-75.5 263,-75.5 263,-56.5 182,-56.5"/>
<text text-anchor="middle" x="222.5" y="-63.5" font-family="Helvetica,sans-Serif" font-size="10.00">tbytevector.h</text>
</a>
</g>
</g>
<!-- Node3&#45;&gt;Node6 -->
<g id="edge11" class="edge">
<title>Node3&#45;&gt;Node6</title>
<path fill="none" stroke="midnightblue" d="M111.85,-168.36C125.47,-159.86 146.24,-146.14 162.5,-132 179.81,-116.96 197.33,-97.36 208.94,-83.62"/>
<polygon fill="midnightblue" stroke="midnightblue" points="211.94,-85.48 215.65,-75.56 206.56,-81.01 211.94,-85.48"/>
</g>
<!-- Node4&#45;&gt;Node2 -->
<g id="edge10" class="edge">
<title>Node4&#45;&gt;Node2</title>
<path fill="none" stroke="midnightblue" d="M120.09,-112.37C108.75,-94.3 82.33,-52.18 67.36,-28.31"/>
<polygon fill="midnightblue" stroke="midnightblue" points="70.17,-26.2 61.89,-19.59 64.24,-29.92 70.17,-26.2"/>
</g>
<!-- Node5 -->
<g id="node5" class="node">
<title>Node5</title>
<g id="a_node5"><a xlink:title=" ">
<polygon fill="white" stroke="#bfbfbf" points="119.5,-56.5 119.5,-75.5 163.5,-75.5 163.5,-56.5 119.5,-56.5"/>
<text text-anchor="middle" x="141.5" y="-63.5" font-family="Helvetica,sans-Serif" font-size="10.00">string</text>
</a>
</g>
</g>
<!-- Node4&#45;&gt;Node5 -->
<g id="edge4" class="edge">
<title>Node4&#45;&gt;Node5</title>
<path fill="none" stroke="midnightblue" d="M128.14,-112.08C130.29,-104.85 133.38,-94.41 136.05,-85.4"/>
<polygon fill="midnightblue" stroke="midnightblue" points="139.42,-86.33 138.91,-75.75 132.71,-84.34 139.42,-86.33"/>
</g>
<!-- Node4&#45;&gt;Node6 -->
<g id="edge5" class="edge">
<title>Node4&#45;&gt;Node6</title>
<path fill="none" stroke="midnightblue" d="M141.08,-112.32C156.5,-103.74 180.31,-90.49 198.21,-80.52"/>
<polygon fill="midnightblue" stroke="midnightblue" points="199.92,-83.58 206.95,-75.65 196.51,-77.46 199.92,-83.58"/>
</g>
<!-- Node6&#45;&gt;Node2 -->
<g id="edge9" class="edge">
<title>Node6&#45;&gt;Node2</title>
<path fill="none" stroke="midnightblue" d="M196.2,-56.44C168.15,-47.32 123.56,-32.81 92.32,-22.65"/>
<polygon fill="midnightblue" stroke="midnightblue" points="93.27,-19.28 82.68,-19.52 91.11,-25.94 93.27,-19.28"/>
</g>
<!-- Node7 -->
<g id="node7" class="node">
<title>Node7</title>
<g id="a_node7"><a xlink:title=" ">
<polygon fill="white" stroke="#bfbfbf" points="122.5,-0.5 122.5,-19.5 180.5,-19.5 180.5,-0.5 122.5,-0.5"/>
<text text-anchor="middle" x="151.5" y="-7.5" font-family="Helvetica,sans-Serif" font-size="10.00">memory</text>
</a>
</g>
</g>
<!-- Node6&#45;&gt;Node7 -->
<g id="edge6" class="edge">
<title>Node6&#45;&gt;Node7</title>
<path fill="none" stroke="midnightblue" d="M211.09,-56.32C200.39,-48.18 184.16,-35.84 171.34,-26.09"/>
<polygon fill="midnightblue" stroke="midnightblue" points="173.19,-23.1 163.11,-19.83 168.96,-28.67 173.19,-23.1"/>
</g>
<!-- Node8 -->
<g id="node8" class="node">
<title>Node8</title>
<g id="a_node8"><a xlink:title=" ">
<polygon fill="white" stroke="#bfbfbf" points="199,-0.5 199,-19.5 246,-19.5 246,-0.5 199,-0.5"/>
<text text-anchor="middle" x="222.5" y="-7.5" font-family="Helvetica,sans-Serif" font-size="10.00">vector</text>
</a>
</g>
</g>
<!-- Node6&#45;&gt;Node8 -->
<g id="edge7" class="edge">
<title>Node6&#45;&gt;Node8</title>
<path fill="none" stroke="midnightblue" d="M222.5,-56.08C222.5,-49.01 222.5,-38.86 222.5,-29.99"/>
<polygon fill="midnightblue" stroke="midnightblue" points="226,-29.75 222.5,-19.75 219,-29.75 226,-29.75"/>
</g>
<!-- Node9 -->
<g id="node9" class="node">
<title>Node9</title>
<g id="a_node9"><a xlink:title=" ">
<polygon fill="white" stroke="#bfbfbf" points="264.5,-0.5 264.5,-19.5 312.5,-19.5 312.5,-0.5 264.5,-0.5"/>
<text text-anchor="middle" x="288.5" y="-7.5" font-family="Helvetica,sans-Serif" font-size="10.00">iosfwd</text>
</a>
</g>
</g>
<!-- Node6&#45;&gt;Node9 -->
<g id="edge8" class="edge">
<title>Node6&#45;&gt;Node9</title>
<path fill="none" stroke="midnightblue" d="M233.1,-56.32C242.96,-48.26 257.85,-36.08 269.72,-26.37"/>
<polygon fill="midnightblue" stroke="midnightblue" points="272.18,-28.88 277.7,-19.83 267.75,-23.46 272.18,-28.88"/>
</g>
</g>
</svg>
