<?xml version="1.0" encoding="UTF-8" standalone="no"?>
<!DOCTYPE svg PUBLIC "-//W3C//DTD SVG 1.1//EN"
 "http://www.w3.org/Graphics/SVG/1.1/DTD/svg11.dtd">
<!-- Generated by graphviz version 2.42.4 (0)
 -->
<!-- Title: unknownframe.h Pages: 1 -->
<svg width="321pt" height="247pt"
 viewBox="0.00 0.00 320.50 247.00" xmlns="http://www.w3.org/2000/svg" xmlns:xlink="http://www.w3.org/1999/xlink">
<g id="graph0" class="graph" transform="scale(1 1) rotate(0) translate(4 243)">
<title>unknownframe.h</title>
<!-- Node1 -->
<g id="Node000001" class="node">
<title>Node1</title>
<g id="a_Node000001"><a xlink:title=" ">
<polygon fill="#999999" stroke="#666666" points="99,-239 0,-239 0,-220 99,-220 99,-239"/>
<text text-anchor="middle" x="49.5" y="-227" font-family="Helvetica,sans-Serif" font-size="10.00">unknownframe.h</text>
</a>
</g>
</g>
<!-- Node2 -->
<g id="Node000002" class="node">
<title>Node2</title>
<g id="a_Node000002"><a xlink:href="taglib__export_8h.html" target="_top" xlink:title=" ">
<polygon fill="white" stroke="#666666" points="101.5,-19 11.5,-19 11.5,0 101.5,0 101.5,-19"/>
<text text-anchor="middle" x="56.5" y="-7" font-family="Helvetica,sans-Serif" font-size="10.00">taglib_export.h</text>
</a>
</g>
</g>
<!-- Node1&#45;&gt;Node2 -->
<g id="edge1_Node000001_Node000002" class="edge">
<title>Node1&#45;&gt;Node2</title>
<g id="a_edge1_Node000001_Node000002"><a xlink:title=" ">
<path fill="none" stroke="#63b8ff" d="M49,-219.97C48.51,-211.02 47.78,-196.53 47.5,-184 46.23,-127.6 51.62,-61 54.62,-29.21"/>
<polygon fill="#63b8ff" stroke="#63b8ff" points="58.11,-29.45 55.59,-19.16 51.14,-28.77 58.11,-29.45"/>
</a>
</g>
</g>
<!-- Node3 -->
<g id="Node000003" class="node">
<title>Node3</title>
<g id="a_Node000003"><a xlink:href="id3v2frame_8h.html" target="_top" xlink:title=" ">
<polygon fill="white" stroke="#666666" points="138.5,-184 56.5,-184 56.5,-165 138.5,-165 138.5,-184"/>
<text text-anchor="middle" x="97.5" y="-172" font-family="Helvetica,sans-Serif" font-size="10.00">id3v2frame.h</text>
</a>
</g>
</g>
<!-- Node1&#45;&gt;Node3 -->
<g id="edge2_Node000001_Node000003" class="edge">
<title>Node1&#45;&gt;Node3</title>
<g id="a_edge2_Node000001_Node000003"><a xlink:title=" ">
<path fill="none" stroke="#63b8ff" d="M57.43,-219.75C64.35,-212.11 74.57,-200.82 82.95,-191.56"/>
<polygon fill="#63b8ff" stroke="#63b8ff" points="85.6,-193.85 89.72,-184.09 80.41,-189.15 85.6,-193.85"/>
</a>
</g>
</g>
<!-- Node3&#45;&gt;Node2 -->
<g id="edge12_Node000003_Node000002" class="edge">
<title>Node3&#45;&gt;Node2</title>
<g id="a_edge12_Node000003_Node000002"><a xlink:title=" ">
<path fill="none" stroke="#63b8ff" d="M95.3,-164.74C88.87,-139.2 70.07,-64.43 61.21,-29.23"/>
<polygon fill="#63b8ff" stroke="#63b8ff" points="64.55,-28.15 58.72,-19.31 57.76,-29.86 64.55,-28.15"/>
</a>
</g>
</g>
<!-- Node4 -->
<g id="Node000004" class="node">
<title>Node4</title>
<g id="a_Node000004"><a xlink:href="tstring_8h.html" target="_top" xlink:title=" ">
<polygon fill="white" stroke="#666666" points="154,-129 97,-129 97,-110 154,-110 154,-129"/>
<text text-anchor="middle" x="125.5" y="-117" font-family="Helvetica,sans-Serif" font-size="10.00">tstring.h</text>
</a>
</g>
</g>
<!-- Node3&#45;&gt;Node4 -->
<g id="edge3_Node000003_Node000004" class="edge">
<title>Node3&#45;&gt;Node4</title>
<g id="a_edge3_Node000003_Node000004"><a xlink:title=" ">
<path fill="none" stroke="#63b8ff" d="M102.12,-164.75C105.96,-157.49 111.52,-146.95 116.26,-137.98"/>
<polygon fill="#63b8ff" stroke="#63b8ff" points="119.39,-139.57 120.96,-129.09 113.2,-136.3 119.39,-139.57"/>
</a>
</g>
</g>
<!-- Node6 -->
<g id="Node000006" class="node">
<title>Node6</title>
<g id="a_Node000006"><a xlink:href="tbytevector_8h.html" target="_top" xlink:title=" ">
<polygon fill="white" stroke="#666666" points="263,-74 182,-74 182,-55 263,-55 263,-74"/>
<text text-anchor="middle" x="222.5" y="-62" font-family="Helvetica,sans-Serif" font-size="10.00">tbytevector.h</text>
</a>
</g>
</g>
<!-- Node3&#45;&gt;Node6 -->
<g id="edge11_Node000003_Node000006" class="edge">
<title>Node3&#45;&gt;Node6</title>
<g id="a_edge11_Node000003_Node000006"><a xlink:title=" ">
<path fill="none" stroke="#63b8ff" d="M111.82,-164.94C125.43,-156.52 146.18,-142.95 162.5,-129 179.53,-114.45 196.87,-95.56 208.51,-82.18"/>
<polygon fill="#63b8ff" stroke="#63b8ff" points="211.42,-84.15 215.26,-74.28 206.1,-79.6 211.42,-84.15"/>
</a>
</g>
</g>
<!-- Node4&#45;&gt;Node2 -->
<g id="edge10_Node000004_Node000002" class="edge">
<title>Node4&#45;&gt;Node2</title>
<g id="a_edge10_Node000004_Node000002"><a xlink:title=" ">
<path fill="none" stroke="#63b8ff" d="M119.85,-109.66C108.42,-91.77 82.38,-51 67.48,-27.69"/>
<polygon fill="#63b8ff" stroke="#63b8ff" points="70.37,-25.7 62.03,-19.16 64.47,-29.47 70.37,-25.7"/>
</a>
</g>
</g>
<!-- Node5 -->
<g id="Node000005" class="node">
<title>Node5</title>
<g id="a_Node000005"><a xlink:title=" ">
<polygon fill="#e0e0e0" stroke="#999999" points="163.5,-74 119.5,-74 119.5,-55 163.5,-55 163.5,-74"/>
<text text-anchor="middle" x="141.5" y="-62" font-family="Helvetica,sans-Serif" font-size="10.00">string</text>
</a>
</g>
</g>
<!-- Node4&#45;&gt;Node5 -->
<g id="edge4_Node000004_Node000005" class="edge">
<title>Node4&#45;&gt;Node5</title>
<g id="a_edge4_Node000004_Node000005"><a xlink:title=" ">
<path fill="none" stroke="#63b8ff" d="M128.14,-109.75C130.26,-102.72 133.31,-92.62 135.96,-83.84"/>
<polygon fill="#63b8ff" stroke="#63b8ff" points="139.37,-84.67 138.91,-74.09 132.67,-82.65 139.37,-84.67"/>
</a>
</g>
</g>
<!-- Node4&#45;&gt;Node6 -->
<g id="edge5_Node000004_Node000006" class="edge">
<title>Node4&#45;&gt;Node6</title>
<g id="a_edge5_Node000004_Node000006"><a xlink:title=" ">
<path fill="none" stroke="#63b8ff" d="M141.08,-109.98C156.27,-101.69 179.6,-88.94 197.4,-79.22"/>
<polygon fill="#63b8ff" stroke="#63b8ff" points="199.53,-82.04 206.63,-74.17 196.18,-75.89 199.53,-82.04"/>
</a>
</g>
</g>
<!-- Node6&#45;&gt;Node2 -->
<g id="edge9_Node000006_Node000002" class="edge">
<title>Node6&#45;&gt;Node2</title>
<g id="a_edge9_Node000006_Node000002"><a xlink:title=" ">
<path fill="none" stroke="#63b8ff" d="M195.83,-54.98C167.96,-46.09 124.05,-32.07 92.98,-22.15"/>
<polygon fill="#63b8ff" stroke="#63b8ff" points="93.97,-18.79 83.38,-19.08 91.84,-25.46 93.97,-18.79"/>
</a>
</g>
</g>
<!-- Node7 -->
<g id="Node000007" class="node">
<title>Node7</title>
<g id="a_Node000007"><a xlink:title=" ">
<polygon fill="#e0e0e0" stroke="#999999" points="180.5,-19 122.5,-19 122.5,0 180.5,0 180.5,-19"/>
<text text-anchor="middle" x="151.5" y="-7" font-family="Helvetica,sans-Serif" font-size="10.00">memory</text>
</a>
</g>
</g>
<!-- Node6&#45;&gt;Node7 -->
<g id="edge6_Node000006_Node000007" class="edge">
<title>Node6&#45;&gt;Node7</title>
<g id="a_edge6_Node000006_Node000007"><a xlink:title=" ">
<path fill="none" stroke="#63b8ff" d="M211.09,-54.98C200.39,-47 184.16,-34.88 171.34,-25.31"/>
<polygon fill="#63b8ff" stroke="#63b8ff" points="173.22,-22.35 163.11,-19.17 169.03,-27.96 173.22,-22.35"/>
</a>
</g>
</g>
<!-- Node8 -->
<g id="Node000008" class="node">
<title>Node8</title>
<g id="a_Node000008"><a xlink:title=" ">
<polygon fill="#e0e0e0" stroke="#999999" points="246,-19 199,-19 199,0 246,0 246,-19"/>
<text text-anchor="middle" x="222.5" y="-7" font-family="Helvetica,sans-Serif" font-size="10.00">vector</text>
</a>
</g>
</g>
<!-- Node6&#45;&gt;Node8 -->
<g id="edge7_Node000006_Node000008" class="edge">
<title>Node6&#45;&gt;Node8</title>
<g id="a_edge7_Node000006_Node000008"><a xlink:title=" ">
<path fill="none" stroke="#63b8ff" d="M222.5,-54.75C222.5,-47.8 222.5,-37.85 222.5,-29.13"/>
<polygon fill="#63b8ff" stroke="#63b8ff" points="226,-29.09 222.5,-19.09 219,-29.09 226,-29.09"/>
</a>
</g>
</g>
<!-- Node9 -->
<g id="Node000009" class="node">
<title>Node9</title>
<g id="a_Node000009"><a xlink:title=" ">
<polygon fill="#e0e0e0" stroke="#999999" points="312.5,-19 264.5,-19 264.5,0 312.5,0 312.5,-19"/>
<text text-anchor="middle" x="288.5" y="-7" font-family="Helvetica,sans-Serif" font-size="10.00">iosfwd</text>
</a>
</g>
</g>
<!-- Node6&#45;&gt;Node9 -->
<g id="edge8_Node000006_Node000009" class="edge">
<title>Node6&#45;&gt;Node9</title>
<g id="a_edge8_Node000006_Node000009"><a xlink:title=" ">
<path fill="none" stroke="#63b8ff" d="M233.1,-54.98C242.96,-47.07 257.85,-35.11 269.72,-25.58"/>
<polygon fill="#63b8ff" stroke="#63b8ff" points="272.1,-28.16 277.7,-19.17 267.71,-22.7 272.1,-28.16"/>
</a>
</g>
</g>
</g>
</svg>
