<?xml version="1.0" encoding="UTF-8" standalone="no"?>
<!DOCTYPE svg PUBLIC "-//W3C//DTD SVG 1.1//EN"
 "http://www.w3.org/Graphics/SVG/1.1/DTD/svg11.dtd">
<!-- Generated by graphviz version 2.42.4 (0)
 -->
<!-- Title: vorbisfile.h Pages: 1 -->
<svg width="1333pt" height="357pt"
 viewBox="0.00 0.00 1332.89 357.00" xmlns="http://www.w3.org/2000/svg" xmlns:xlink="http://www.w3.org/1999/xlink">
<g id="graph0" class="graph" transform="scale(1 1) rotate(0) translate(4 353)">
<title>vorbisfile.h</title>
<!-- Node1 -->
<g id="Node000001" class="node">
<title>Node1</title>
<g id="a_Node000001"><a xlink:title=" ">
<polygon fill="#999999" stroke="#666666" points="253.89,-349 182.89,-349 182.89,-330 253.89,-330 253.89,-349"/>
<text text-anchor="middle" x="218.39" y="-337" font-family="Helvetica,sans-Serif" font-size="10.00">vorbisfile.h</text>
</a>
</g>
</g>
<!-- Node2 -->
<g id="Node000002" class="node">
<title>Node2</title>
<g id="a_Node000002"><a xlink:href="taglib__export_8h.html" target="_top" xlink:title=" ">
<polygon fill="white" stroke="#666666" points="476.39,-19 386.39,-19 386.39,0 476.39,0 476.39,-19"/>
<text text-anchor="middle" x="431.39" y="-7" font-family="Helvetica,sans-Serif" font-size="10.00">taglib_export.h</text>
</a>
</g>
</g>
<!-- Node1&#45;&gt;Node2 -->
<g id="edge1_Node000001_Node000002" class="edge">
<title>Node1&#45;&gt;Node2</title>
<g id="a_edge1_Node000001_Node000002"><a xlink:title=" ">
<path fill="none" stroke="#63b8ff" d="M215.25,-329.94C204.48,-299.28 171.15,-192.37 197.39,-110 206.48,-81.45 211.47,-71.65 236.39,-55 277.9,-27.25 334.31,-16.64 375.78,-12.66"/>
<polygon fill="#63b8ff" stroke="#63b8ff" points="376.32,-16.13 385.98,-11.79 375.72,-9.15 376.32,-16.13"/>
</a>
</g>
</g>
<!-- Node3 -->
<g id="Node000003" class="node">
<title>Node3</title>
<g id="a_Node000003"><a xlink:href="oggfile_8h.html" target="_top" xlink:title=" ">
<polygon fill="white" stroke="#666666" points="350.89,-294 291.89,-294 291.89,-275 350.89,-275 350.89,-294"/>
<text text-anchor="middle" x="321.39" y="-282" font-family="Helvetica,sans-Serif" font-size="10.00">oggfile.h</text>
</a>
</g>
</g>
<!-- Node1&#45;&gt;Node3 -->
<g id="edge2_Node000001_Node000003" class="edge">
<title>Node1&#45;&gt;Node3</title>
<g id="a_edge2_Node000001_Node000003"><a xlink:title=" ">
<path fill="none" stroke="#63b8ff" d="M234.93,-329.98C251.28,-321.57 276.52,-308.59 295.52,-298.81"/>
<polygon fill="#63b8ff" stroke="#63b8ff" points="297.25,-301.86 304.54,-294.17 294.04,-295.63 297.25,-301.86"/>
</a>
</g>
</g>
<!-- Node25 -->
<g id="Node000025" class="node">
<title>Node25</title>
<g id="a_Node000025"><a xlink:href="xiphcomment_8h.html" target="_top" xlink:title=" ">
<polygon fill="white" stroke="#666666" points="867.89,-239 774.89,-239 774.89,-220 867.89,-220 867.89,-239"/>
<text text-anchor="middle" x="821.39" y="-227" font-family="Helvetica,sans-Serif" font-size="10.00">xiphcomment.h</text>
</a>
</g>
</g>
<!-- Node1&#45;&gt;Node25 -->
<g id="edge42_Node000001_Node000025" class="edge">
<title>Node1&#45;&gt;Node25</title>
<g id="a_edge42_Node000001_Node000025"><a xlink:title=" ">
<path fill="none" stroke="#63b8ff" d="M254.3,-332.07C355.29,-313.98 642.34,-262.57 764.85,-240.63"/>
<polygon fill="#63b8ff" stroke="#63b8ff" points="765.56,-244.05 774.79,-238.85 764.33,-237.16 765.56,-244.05"/>
</a>
</g>
</g>
<!-- Node30 -->
<g id="Node000030" class="node">
<title>Node30</title>
<g id="a_Node000030"><a xlink:href="vorbisproperties_8h.html" target="_top" xlink:title=" ">
<polygon fill="white" stroke="#666666" points="111.89,-184 6.89,-184 6.89,-165 111.89,-165 111.89,-184"/>
<text text-anchor="middle" x="59.39" y="-172" font-family="Helvetica,sans-Serif" font-size="10.00">vorbisproperties.h</text>
</a>
</g>
</g>
<!-- Node1&#45;&gt;Node30 -->
<g id="edge63_Node000001_Node000030" class="edge">
<title>Node1&#45;&gt;Node30</title>
<g id="a_edge63_Node000001_Node000030"><a xlink:title=" ">
<path fill="none" stroke="#63b8ff" d="M190.42,-329.99C170.69,-322.88 144.63,-311.11 126.39,-294 95.62,-265.14 75.18,-218.91 65.63,-193.57"/>
<polygon fill="#63b8ff" stroke="#63b8ff" points="68.9,-192.31 62.2,-184.1 62.31,-194.69 68.9,-192.31"/>
</a>
</g>
</g>
<!-- Node3&#45;&gt;Node2 -->
<g id="edge41_Node000003_Node000002" class="edge">
<title>Node3&#45;&gt;Node2</title>
<g id="a_edge41_Node000003_Node000002"><a xlink:title=" ">
<path fill="none" stroke="#63b8ff" d="M326.11,-274.83C335.46,-256.87 355.39,-214.03 355.39,-175.5 355.39,-175.5 355.39,-175.5 355.39,-118.5 355.39,-79.47 389,-44.58 411.52,-25.6"/>
<polygon fill="#63b8ff" stroke="#63b8ff" points="413.94,-28.14 419.51,-19.12 409.54,-22.7 413.94,-28.14"/>
</a>
</g>
</g>
<!-- Node4 -->
<g id="Node000004" class="node">
<title>Node4</title>
<g id="a_Node000004"><a xlink:href="tfile_8h.html" target="_top" xlink:title=" ">
<polygon fill="white" stroke="#666666" points="310.39,-239 266.39,-239 266.39,-220 310.39,-220 310.39,-239"/>
<text text-anchor="middle" x="288.39" y="-227" font-family="Helvetica,sans-Serif" font-size="10.00">tfile.h</text>
</a>
</g>
</g>
<!-- Node3&#45;&gt;Node4 -->
<g id="edge3_Node000003_Node000004" class="edge">
<title>Node3&#45;&gt;Node4</title>
<g id="a_edge3_Node000003_Node000004"><a xlink:title=" ">
<path fill="none" stroke="#63b8ff" d="M315.94,-274.75C311.37,-267.42 304.72,-256.73 299.09,-247.7"/>
<polygon fill="#63b8ff" stroke="#63b8ff" points="301.99,-245.73 293.73,-239.09 296.05,-249.43 301.99,-245.73"/>
</a>
</g>
</g>
<!-- Node24 -->
<g id="Node000024" class="node">
<title>Node24</title>
<g id="a_Node000024"><a xlink:href="tbytevectorlist_8h.html" target="_top" xlink:title=" ">
<polygon fill="white" stroke="#666666" points="1022.89,-129 925.89,-129 925.89,-110 1022.89,-110 1022.89,-129"/>
<text text-anchor="middle" x="974.39" y="-117" font-family="Helvetica,sans-Serif" font-size="10.00">tbytevectorlist.h</text>
</a>
</g>
</g>
<!-- Node3&#45;&gt;Node24 -->
<g id="edge37_Node000003_Node000024" class="edge">
<title>Node3&#45;&gt;Node24</title>
<g id="a_edge37_Node000003_Node000024"><a xlink:title=" ">
<path fill="none" stroke="#63b8ff" d="M350.92,-282.92C451.21,-280.68 777.96,-271.04 877.39,-239 922.37,-224.5 943.26,-224.02 968.39,-184 976.76,-170.67 977.68,-152.55 976.85,-139.09"/>
<polygon fill="#63b8ff" stroke="#63b8ff" points="980.32,-138.68 975.86,-129.07 973.36,-139.37 980.32,-138.68"/>
</a>
</g>
</g>
<!-- Node4&#45;&gt;Node2 -->
<g id="edge14_Node000004_Node000002" class="edge">
<title>Node4&#45;&gt;Node2</title>
<g id="a_edge14_Node000004_Node000002"><a xlink:title=" ">
<path fill="none" stroke="#63b8ff" d="M274.19,-219.84C244.53,-200.62 180.78,-152.7 206.39,-110 241.78,-50.98 321.74,-26.84 376.16,-17.05"/>
<polygon fill="#63b8ff" stroke="#63b8ff" points="377.06,-20.45 386.34,-15.33 375.9,-13.55 377.06,-20.45"/>
</a>
</g>
</g>
<!-- Node5 -->
<g id="Node000005" class="node">
<title>Node5</title>
<g id="a_Node000005"><a xlink:href="tbytevector_8h.html" target="_top" xlink:title=" ">
<polygon fill="white" stroke="#666666" points="781.89,-74 700.89,-74 700.89,-55 781.89,-55 781.89,-74"/>
<text text-anchor="middle" x="741.39" y="-62" font-family="Helvetica,sans-Serif" font-size="10.00">tbytevector.h</text>
</a>
</g>
</g>
<!-- Node4&#45;&gt;Node5 -->
<g id="edge4_Node000004_Node000005" class="edge">
<title>Node4&#45;&gt;Node5</title>
<g id="a_edge4_Node000004_Node000005"><a xlink:title=" ">
<path fill="none" stroke="#63b8ff" d="M299.8,-219.68C329.22,-197.43 410.79,-138.72 488.39,-110 555.83,-85.04 638.69,-73.87 690.78,-69.02"/>
<polygon fill="#63b8ff" stroke="#63b8ff" points="691.13,-72.5 700.78,-68.13 690.51,-65.53 691.13,-72.5"/>
</a>
</g>
</g>
<!-- Node9 -->
<g id="Node000009" class="node">
<title>Node9</title>
<g id="a_Node000009"><a xlink:href="tiostream_8h.html" target="_top" xlink:title=" ">
<polygon fill="white" stroke="#666666" points="288.89,-129 215.89,-129 215.89,-110 288.89,-110 288.89,-129"/>
<text text-anchor="middle" x="252.39" y="-117" font-family="Helvetica,sans-Serif" font-size="10.00">tiostream.h</text>
</a>
</g>
</g>
<!-- Node4&#45;&gt;Node9 -->
<g id="edge9_Node000004_Node000009" class="edge">
<title>Node4&#45;&gt;Node9</title>
<g id="a_edge9_Node000004_Node000009"><a xlink:title=" ">
<path fill="none" stroke="#63b8ff" d="M285.44,-219.66C279.58,-202.09 266.37,-162.45 258.54,-138.95"/>
<polygon fill="#63b8ff" stroke="#63b8ff" points="261.75,-137.54 255.27,-129.16 255.11,-139.75 261.75,-137.54"/>
</a>
</g>
</g>
<!-- Node10 -->
<g id="Node000010" class="node">
<title>Node10</title>
<g id="a_Node000010"><a xlink:href="taglib_8h.html" target="_top" xlink:title=" ">
<polygon fill="white" stroke="#666666" points="82.89,-74 29.89,-74 29.89,-55 82.89,-55 82.89,-74"/>
<text text-anchor="middle" x="56.39" y="-62" font-family="Helvetica,sans-Serif" font-size="10.00">taglib.h</text>
</a>
</g>
</g>
<!-- Node4&#45;&gt;Node10 -->
<g id="edge15_Node000004_Node000010" class="edge">
<title>Node4&#45;&gt;Node10</title>
<g id="a_edge15_Node000004_Node000010"><a xlink:title=" ">
<path fill="none" stroke="#63b8ff" d="M266.75,-219.97C234.87,-207.47 173.32,-183.66 120.39,-165 71.87,-147.9 40.58,-170.65 10.39,-129 -1.73,-112.29 16.63,-93.11 33.62,-80.24"/>
<polygon fill="#63b8ff" stroke="#63b8ff" points="36.09,-82.78 42.22,-74.13 32.04,-77.07 36.09,-82.78"/>
</a>
</g>
</g>
<!-- Node12 -->
<g id="Node000012" class="node">
<title>Node12</title>
<g id="a_Node000012"><a xlink:href="tag_8h.html" target="_top" xlink:title=" ">
<polygon fill="white" stroke="#666666" points="792.89,-184 751.89,-184 751.89,-165 792.89,-165 792.89,-184"/>
<text text-anchor="middle" x="772.39" y="-172" font-family="Helvetica,sans-Serif" font-size="10.00">tag.h</text>
</a>
</g>
</g>
<!-- Node4&#45;&gt;Node12 -->
<g id="edge16_Node000004_Node000012" class="edge">
<title>Node4&#45;&gt;Node12</title>
<g id="a_edge16_Node000004_Node000012"><a xlink:title=" ">
<path fill="none" stroke="#63b8ff" d="M310.85,-227.79C376.18,-225.43 571.72,-216.13 741.72,-184"/>
<polygon fill="#63b8ff" stroke="#63b8ff" points="742.43,-187.43 751.59,-182.1 741.11,-180.55 742.43,-187.43"/>
</a>
</g>
</g>
<!-- Node5&#45;&gt;Node2 -->
<g id="edge8_Node000005_Node000002" class="edge">
<title>Node5&#45;&gt;Node2</title>
<g id="a_edge8_Node000005_Node000002"><a xlink:title=" ">
<path fill="none" stroke="#63b8ff" d="M700.86,-56.57C645.98,-47.19 547.84,-30.41 486.36,-19.9"/>
<polygon fill="#63b8ff" stroke="#63b8ff" points="486.89,-16.44 476.45,-18.2 485.71,-23.34 486.89,-16.44"/>
</a>
</g>
</g>
<!-- Node6 -->
<g id="Node000006" class="node">
<title>Node6</title>
<g id="a_Node000006"><a xlink:title=" ">
<polygon fill="#e0e0e0" stroke="#999999" points="904.39,-19 846.39,-19 846.39,0 904.39,0 904.39,-19"/>
<text text-anchor="middle" x="875.39" y="-7" font-family="Helvetica,sans-Serif" font-size="10.00">memory</text>
</a>
</g>
</g>
<!-- Node5&#45;&gt;Node6 -->
<g id="edge5_Node000005_Node000006" class="edge">
<title>Node5&#45;&gt;Node6</title>
<g id="a_edge5_Node000005_Node000006"><a xlink:title=" ">
<path fill="none" stroke="#63b8ff" d="M762.92,-54.98C784.86,-46.3 819.13,-32.75 844.07,-22.88"/>
<polygon fill="#63b8ff" stroke="#63b8ff" points="845.45,-26.1 853.46,-19.17 842.88,-19.59 845.45,-26.1"/>
</a>
</g>
</g>
<!-- Node7 -->
<g id="Node000007" class="node">
<title>Node7</title>
<g id="a_Node000007"><a xlink:title=" ">
<polygon fill="#e0e0e0" stroke="#999999" points="761.89,-19 714.89,-19 714.89,0 761.89,0 761.89,-19"/>
<text text-anchor="middle" x="738.39" y="-7" font-family="Helvetica,sans-Serif" font-size="10.00">vector</text>
</a>
</g>
</g>
<!-- Node5&#45;&gt;Node7 -->
<g id="edge6_Node000005_Node000007" class="edge">
<title>Node5&#45;&gt;Node7</title>
<g id="a_edge6_Node000005_Node000007"><a xlink:title=" ">
<path fill="none" stroke="#63b8ff" d="M740.89,-54.75C740.5,-47.8 739.93,-37.85 739.44,-29.13"/>
<polygon fill="#63b8ff" stroke="#63b8ff" points="742.93,-28.88 738.87,-19.09 735.94,-29.27 742.93,-28.88"/>
</a>
</g>
</g>
<!-- Node8 -->
<g id="Node000008" class="node">
<title>Node8</title>
<g id="a_Node000008"><a xlink:title=" ">
<polygon fill="#e0e0e0" stroke="#999999" points="828.39,-19 780.39,-19 780.39,0 828.39,0 828.39,-19"/>
<text text-anchor="middle" x="804.39" y="-7" font-family="Helvetica,sans-Serif" font-size="10.00">iosfwd</text>
</a>
</g>
</g>
<!-- Node5&#45;&gt;Node8 -->
<g id="edge7_Node000005_Node000008" class="edge">
<title>Node5&#45;&gt;Node8</title>
<g id="a_edge7_Node000005_Node000008"><a xlink:title=" ">
<path fill="none" stroke="#63b8ff" d="M751.51,-54.98C760.82,-47.15 774.85,-35.34 786.12,-25.86"/>
<polygon fill="#63b8ff" stroke="#63b8ff" points="788.68,-28.29 794.08,-19.17 784.17,-22.93 788.68,-28.29"/>
</a>
</g>
</g>
<!-- Node9&#45;&gt;Node2 -->
<g id="edge11_Node000009_Node000002" class="edge">
<title>Node9&#45;&gt;Node2</title>
<g id="a_edge11_Node000009_Node000002"><a xlink:title=" ">
<path fill="none" stroke="#63b8ff" d="M263.24,-109.89C279.62,-97.08 311.91,-72.65 341.39,-55 361.2,-43.14 384.6,-31.64 402.58,-23.3"/>
<polygon fill="#63b8ff" stroke="#63b8ff" points="404.32,-26.36 411.95,-19.01 401.4,-19.99 404.32,-26.36"/>
</a>
</g>
</g>
<!-- Node9&#45;&gt;Node5 -->
<g id="edge10_Node000009_Node000005" class="edge">
<title>Node9&#45;&gt;Node5</title>
<g id="a_edge10_Node000009_Node000005"><a xlink:title=" ">
<path fill="none" stroke="#63b8ff" d="M289.11,-112.09C293.91,-111.34 298.76,-110.62 303.39,-110 443.23,-91.26 609.15,-76.41 690.82,-69.58"/>
<polygon fill="#63b8ff" stroke="#63b8ff" points="691.15,-73.07 700.83,-68.75 690.57,-66.09 691.15,-73.07"/>
</a>
</g>
</g>
<!-- Node9&#45;&gt;Node10 -->
<g id="edge12_Node000009_Node000010" class="edge">
<title>Node9&#45;&gt;Node10</title>
<g id="a_edge12_Node000009_Node000010"><a xlink:title=" ">
<path fill="none" stroke="#63b8ff" d="M220.89,-109.98C185.98,-100.54 129.74,-85.33 92.91,-75.38"/>
<polygon fill="#63b8ff" stroke="#63b8ff" points="93.64,-71.95 83.08,-72.72 91.82,-78.71 93.64,-71.95"/>
</a>
</g>
</g>
<!-- Node11 -->
<g id="Node000011" class="node">
<title>Node11</title>
<g id="a_Node000011"><a xlink:title=" ">
<polygon fill="#e0e0e0" stroke="#999999" points="92.39,-19 20.39,-19 20.39,0 92.39,0 92.39,-19"/>
<text text-anchor="middle" x="56.39" y="-7" font-family="Helvetica,sans-Serif" font-size="10.00">sys/types.h</text>
</a>
</g>
</g>
<!-- Node10&#45;&gt;Node11 -->
<g id="edge13_Node000010_Node000011" class="edge">
<title>Node10&#45;&gt;Node11</title>
<g id="a_edge13_Node000010_Node000011"><a xlink:title=" ">
<path fill="none" stroke="#63b8ff" d="M56.39,-54.75C56.39,-47.8 56.39,-37.85 56.39,-29.13"/>
<polygon fill="#63b8ff" stroke="#63b8ff" points="59.89,-29.09 56.39,-19.09 52.89,-29.09 59.89,-29.09"/>
</a>
</g>
</g>
<!-- Node12&#45;&gt;Node2 -->
<g id="edge17_Node000012_Node000002" class="edge">
<title>Node12&#45;&gt;Node2</title>
<g id="a_edge17_Node000012_Node000002"><a xlink:title=" ">
<path fill="none" stroke="#63b8ff" d="M751.89,-167.09C749.05,-166.32 746.16,-165.6 743.39,-165 631.51,-140.84 580.78,-196.56 488.39,-129 471.15,-116.4 448.68,-58.96 437.82,-28.92"/>
<polygon fill="#63b8ff" stroke="#63b8ff" points="441.02,-27.48 434.37,-19.23 434.42,-29.83 441.02,-27.48"/>
</a>
</g>
</g>
<!-- Node13 -->
<g id="Node000013" class="node">
<title>Node13</title>
<g id="a_Node000013"><a xlink:href="tstring_8h.html" target="_top" xlink:title=" ">
<polygon fill="white" stroke="#666666" points="830.89,-129 773.89,-129 773.89,-110 830.89,-110 830.89,-129"/>
<text text-anchor="middle" x="802.39" y="-117" font-family="Helvetica,sans-Serif" font-size="10.00">tstring.h</text>
</a>
</g>
</g>
<!-- Node12&#45;&gt;Node13 -->
<g id="edge18_Node000012_Node000013" class="edge">
<title>Node12&#45;&gt;Node13</title>
<g id="a_edge18_Node000012_Node000013"><a xlink:title=" ">
<path fill="none" stroke="#63b8ff" d="M777.34,-164.75C781.45,-157.49 787.41,-146.95 792.49,-137.98"/>
<polygon fill="#63b8ff" stroke="#63b8ff" points="795.64,-139.52 797.52,-129.09 789.55,-136.07 795.64,-139.52"/>
</a>
</g>
</g>
<!-- Node15 -->
<g id="Node000015" class="node">
<title>Node15</title>
<g id="a_Node000015"><a xlink:href="tlist_8h.html" target="_top" xlink:title=" ">
<polygon fill="white" stroke="#666666" points="1210.39,-74 1166.39,-74 1166.39,-55 1210.39,-55 1210.39,-74"/>
<text text-anchor="middle" x="1188.39" y="-62" font-family="Helvetica,sans-Serif" font-size="10.00">tlist.h</text>
</a>
</g>
</g>
<!-- Node12&#45;&gt;Node15 -->
<g id="edge22_Node000012_Node000015" class="edge">
<title>Node12&#45;&gt;Node15</title>
<g id="a_edge22_Node000012_Node000015"><a xlink:title=" ">
<path fill="none" stroke="#63b8ff" d="M792.93,-171.55C869.15,-164.25 1132.18,-138.49 1147.39,-129 1164.05,-118.6 1175.24,-98.66 1181.67,-83.88"/>
<polygon fill="#63b8ff" stroke="#63b8ff" points="1185.06,-84.83 1185.51,-74.25 1178.55,-82.24 1185.06,-84.83"/>
</a>
</g>
</g>
<!-- Node19 -->
<g id="Node000019" class="node">
<title>Node19</title>
<g id="a_Node000019"><a xlink:href="tvariant_8h.html" target="_top" xlink:title=" ">
<polygon fill="white" stroke="#666666" points="1105.39,-129 1041.39,-129 1041.39,-110 1105.39,-110 1105.39,-129"/>
<text text-anchor="middle" x="1073.39" y="-117" font-family="Helvetica,sans-Serif" font-size="10.00">tvariant.h</text>
</a>
</g>
</g>
<!-- Node12&#45;&gt;Node19 -->
<g id="edge27_Node000012_Node000019" class="edge">
<title>Node12&#45;&gt;Node19</title>
<g id="a_edge27_Node000012_Node000019"><a xlink:title=" ">
<path fill="none" stroke="#63b8ff" d="M792.99,-170.22C835.52,-163.41 936.31,-146.99 1031.14,-129.18"/>
<polygon fill="#63b8ff" stroke="#63b8ff" points="1032,-132.58 1041.18,-127.29 1030.7,-125.7 1032,-132.58"/>
</a>
</g>
</g>
<!-- Node13&#45;&gt;Node2 -->
<g id="edge21_Node000013_Node000002" class="edge">
<title>Node13&#45;&gt;Node2</title>
<g id="a_edge21_Node000013_Node000002"><a xlink:title=" ">
<path fill="none" stroke="#63b8ff" d="M773.58,-110.12C707.65,-90.92 545.67,-43.77 470.67,-21.94"/>
<polygon fill="#63b8ff" stroke="#63b8ff" points="471.26,-18.46 460.68,-19.03 469.31,-25.18 471.26,-18.46"/>
</a>
</g>
</g>
<!-- Node13&#45;&gt;Node5 -->
<g id="edge20_Node000013_Node000005" class="edge">
<title>Node13&#45;&gt;Node5</title>
<g id="a_edge20_Node000013_Node000005"><a xlink:title=" ">
<path fill="none" stroke="#63b8ff" d="M792.59,-109.98C783.57,-102.15 769.98,-90.34 759.07,-80.86"/>
<polygon fill="#63b8ff" stroke="#63b8ff" points="761.21,-78.09 751.36,-74.17 756.62,-83.37 761.21,-78.09"/>
</a>
</g>
</g>
<!-- Node14 -->
<g id="Node000014" class="node">
<title>Node14</title>
<g id="a_Node000014"><a xlink:title=" ">
<polygon fill="#e0e0e0" stroke="#999999" points="844.39,-74 800.39,-74 800.39,-55 844.39,-55 844.39,-74"/>
<text text-anchor="middle" x="822.39" y="-62" font-family="Helvetica,sans-Serif" font-size="10.00">string</text>
</a>
</g>
</g>
<!-- Node13&#45;&gt;Node14 -->
<g id="edge19_Node000013_Node000014" class="edge">
<title>Node13&#45;&gt;Node14</title>
<g id="a_edge19_Node000013_Node000014"><a xlink:title=" ">
<path fill="none" stroke="#63b8ff" d="M805.69,-109.75C808.37,-102.65 812.23,-92.4 815.57,-83.56"/>
<polygon fill="#63b8ff" stroke="#63b8ff" points="818.89,-84.68 819.14,-74.09 812.34,-82.21 818.89,-84.68"/>
</a>
</g>
</g>
<!-- Node15&#45;&gt;Node6 -->
<g id="edge25_Node000015_Node000006" class="edge">
<title>Node15&#45;&gt;Node6</title>
<g id="a_edge25_Node000015_Node000006"><a xlink:title=" ">
<path fill="none" stroke="#63b8ff" d="M1166.3,-60.32C1121.14,-53.74 1014.81,-37.8 914.71,-18.96"/>
<polygon fill="#63b8ff" stroke="#63b8ff" points="915.22,-15.5 904.74,-17.07 913.91,-22.37 915.22,-15.5"/>
</a>
</g>
</g>
<!-- Node16 -->
<g id="Node000016" class="node">
<title>Node16</title>
<g id="a_Node000016"><a xlink:title=" ">
<polygon fill="#e0e0e0" stroke="#999999" points="1253.39,-19 1221.39,-19 1221.39,0 1253.39,0 1253.39,-19"/>
<text text-anchor="middle" x="1237.39" y="-7" font-family="Helvetica,sans-Serif" font-size="10.00">list</text>
</a>
</g>
</g>
<!-- Node15&#45;&gt;Node16 -->
<g id="edge23_Node000015_Node000016" class="edge">
<title>Node15&#45;&gt;Node16</title>
<g id="a_edge23_Node000015_Node000016"><a xlink:title=" ">
<path fill="none" stroke="#63b8ff" d="M1196.48,-54.75C1203.54,-47.11 1213.97,-35.82 1222.53,-26.56"/>
<polygon fill="#63b8ff" stroke="#63b8ff" points="1225.23,-28.81 1229.44,-19.09 1220.09,-24.06 1225.23,-28.81"/>
</a>
</g>
</g>
<!-- Node17 -->
<g id="Node000017" class="node">
<title>Node17</title>
<g id="a_Node000017"><a xlink:title=" ">
<polygon fill="#e0e0e0" stroke="#999999" points="1202.89,-19 1119.89,-19 1119.89,0 1202.89,0 1202.89,-19"/>
<text text-anchor="middle" x="1161.39" y="-7" font-family="Helvetica,sans-Serif" font-size="10.00">initializer_list</text>
</a>
</g>
</g>
<!-- Node15&#45;&gt;Node17 -->
<g id="edge24_Node000015_Node000017" class="edge">
<title>Node15&#45;&gt;Node17</title>
<g id="a_edge24_Node000015_Node000017"><a xlink:title=" ">
<path fill="none" stroke="#63b8ff" d="M1183.93,-54.75C1180.27,-47.57 1174.98,-37.18 1170.44,-28.27"/>
<polygon fill="#63b8ff" stroke="#63b8ff" points="1173.42,-26.41 1165.76,-19.09 1167.18,-29.59 1173.42,-26.41"/>
</a>
</g>
</g>
<!-- Node18 -->
<g id="Node000018" class="node">
<title>Node18</title>
<g id="a_Node000018"><a xlink:title=" ">
<polygon fill="#e0e0e0" stroke="#999999" points="1324.89,-19 1271.89,-19 1271.89,0 1324.89,0 1324.89,-19"/>
<text text-anchor="middle" x="1298.39" y="-7" font-family="Helvetica,sans-Serif" font-size="10.00">tlist.tcc</text>
</a>
</g>
</g>
<!-- Node15&#45;&gt;Node18 -->
<g id="edge26_Node000015_Node000018" class="edge">
<title>Node15&#45;&gt;Node18</title>
<g id="a_edge26_Node000015_Node000018"><a xlink:title=" ">
<path fill="none" stroke="#63b8ff" d="M1206.06,-54.98C1223.68,-46.5 1250.96,-33.35 1271.31,-23.54"/>
<polygon fill="#63b8ff" stroke="#63b8ff" points="1272.9,-26.66 1280.39,-19.17 1269.86,-20.36 1272.9,-26.66"/>
</a>
</g>
</g>
<!-- Node19&#45;&gt;Node2 -->
<g id="edge36_Node000019_Node000002" class="edge">
<title>Node19&#45;&gt;Node2</title>
<g id="a_edge36_Node000019_Node000002"><a xlink:title=" ">
<path fill="none" stroke="#63b8ff" d="M1059.33,-109.9C1035.32,-95.69 984.45,-67.63 937.39,-55 853.66,-32.52 600.08,-18.32 486.93,-12.94"/>
<polygon fill="#63b8ff" stroke="#63b8ff" points="486.9,-9.44 476.75,-12.47 486.57,-16.43 486.9,-9.44"/>
</a>
</g>
</g>
<!-- Node19&#45;&gt;Node8 -->
<g id="edge28_Node000019_Node000008" class="edge">
<title>Node19&#45;&gt;Node8</title>
<g id="a_edge28_Node000019_Node000008"><a xlink:title=" ">
<path fill="none" stroke="#63b8ff" d="M1064.81,-109.63C1050.91,-95.79 1022.04,-69.2 992.39,-55 931.46,-25.83 908.19,-34.89 838.65,-19.17"/>
<polygon fill="#63b8ff" stroke="#63b8ff" points="839.06,-15.68 828.52,-16.79 837.45,-22.49 839.06,-15.68"/>
</a>
</g>
</g>
<!-- Node19&#45;&gt;Node15 -->
<g id="edge29_Node000019_Node000015" class="edge">
<title>Node19&#45;&gt;Node15</title>
<g id="a_edge29_Node000019_Node000015"><a xlink:title=" ">
<path fill="none" stroke="#63b8ff" d="M1091.86,-109.98C1110.36,-101.46 1139.07,-88.23 1160.37,-78.41"/>
<polygon fill="#63b8ff" stroke="#63b8ff" points="1161.96,-81.53 1169.57,-74.17 1159.03,-75.18 1161.96,-81.53"/>
</a>
</g>
</g>
<!-- Node20 -->
<g id="Node000020" class="node">
<title>Node20</title>
<g id="a_Node000020"><a xlink:href="tmap_8h.html" target="_top" xlink:title=" ">
<polygon fill="white" stroke="#666666" points="1098.89,-74 1047.89,-74 1047.89,-55 1098.89,-55 1098.89,-74"/>
<text text-anchor="middle" x="1073.39" y="-62" font-family="Helvetica,sans-Serif" font-size="10.00">tmap.h</text>
</a>
</g>
</g>
<!-- Node19&#45;&gt;Node20 -->
<g id="edge30_Node000019_Node000020" class="edge">
<title>Node19&#45;&gt;Node20</title>
<g id="a_edge30_Node000019_Node000020"><a xlink:title=" ">
<path fill="none" stroke="#63b8ff" d="M1073.39,-109.75C1073.39,-102.8 1073.39,-92.85 1073.39,-84.13"/>
<polygon fill="#63b8ff" stroke="#63b8ff" points="1076.89,-84.09 1073.39,-74.09 1069.89,-84.09 1076.89,-84.09"/>
</a>
</g>
</g>
<!-- Node20&#45;&gt;Node6 -->
<g id="edge32_Node000020_Node000006" class="edge">
<title>Node20&#45;&gt;Node6</title>
<g id="a_edge32_Node000020_Node000006"><a xlink:title=" ">
<path fill="none" stroke="#63b8ff" d="M1047.5,-56.57C1013.56,-47.49 953.7,-31.46 914.29,-20.91"/>
<polygon fill="#63b8ff" stroke="#63b8ff" points="915.06,-17.5 904.49,-18.29 913.25,-24.26 915.06,-17.5"/>
</a>
</g>
</g>
<!-- Node20&#45;&gt;Node17 -->
<g id="edge33_Node000020_Node000017" class="edge">
<title>Node20&#45;&gt;Node17</title>
<g id="a_edge33_Node000020_Node000017"><a xlink:title=" ">
<path fill="none" stroke="#63b8ff" d="M1087.52,-54.98C1101.17,-46.77 1122.07,-34.18 1138.16,-24.49"/>
<polygon fill="#63b8ff" stroke="#63b8ff" points="1140.23,-27.33 1146.99,-19.17 1136.62,-21.33 1140.23,-27.33"/>
</a>
</g>
</g>
<!-- Node21 -->
<g id="Node000021" class="node">
<title>Node21</title>
<g id="a_Node000021"><a xlink:title=" ">
<polygon fill="#e0e0e0" stroke="#999999" points="1038.39,-19 1000.39,-19 1000.39,0 1038.39,0 1038.39,-19"/>
<text text-anchor="middle" x="1019.39" y="-7" font-family="Helvetica,sans-Serif" font-size="10.00">map</text>
</a>
</g>
</g>
<!-- Node20&#45;&gt;Node21 -->
<g id="edge31_Node000020_Node000021" class="edge">
<title>Node20&#45;&gt;Node21</title>
<g id="a_edge31_Node000020_Node000021"><a xlink:title=" ">
<path fill="none" stroke="#63b8ff" d="M1064.47,-54.75C1056.61,-47.03 1044.95,-35.6 1035.47,-26.28"/>
<polygon fill="#63b8ff" stroke="#63b8ff" points="1037.73,-23.6 1028.14,-19.09 1032.82,-28.59 1037.73,-23.6"/>
</a>
</g>
</g>
<!-- Node22 -->
<g id="Node000022" class="node">
<title>Node22</title>
<g id="a_Node000022"><a xlink:title=" ">
<polygon fill="#e0e0e0" stroke="#999999" points="1101.89,-19 1056.89,-19 1056.89,0 1101.89,0 1101.89,-19"/>
<text text-anchor="middle" x="1079.39" y="-7" font-family="Helvetica,sans-Serif" font-size="10.00">utility</text>
</a>
</g>
</g>
<!-- Node20&#45;&gt;Node22 -->
<g id="edge34_Node000020_Node000022" class="edge">
<title>Node20&#45;&gt;Node22</title>
<g id="a_edge34_Node000020_Node000022"><a xlink:title=" ">
<path fill="none" stroke="#63b8ff" d="M1074.38,-54.75C1075.16,-47.8 1076.29,-37.85 1077.28,-29.13"/>
<polygon fill="#63b8ff" stroke="#63b8ff" points="1080.77,-29.42 1078.41,-19.09 1073.81,-28.63 1080.77,-29.42"/>
</a>
</g>
</g>
<!-- Node23 -->
<g id="Node000023" class="node">
<title>Node23</title>
<g id="a_Node000023"><a xlink:title=" ">
<polygon fill="#e0e0e0" stroke="#999999" points="981.89,-19 922.89,-19 922.89,0 981.89,0 981.89,-19"/>
<text text-anchor="middle" x="952.39" y="-7" font-family="Helvetica,sans-Serif" font-size="10.00">tmap.tcc</text>
</a>
</g>
</g>
<!-- Node20&#45;&gt;Node23 -->
<g id="edge35_Node000020_Node000023" class="edge">
<title>Node20&#45;&gt;Node23</title>
<g id="a_edge35_Node000020_Node000023"><a xlink:title=" ">
<path fill="none" stroke="#63b8ff" d="M1053.94,-54.98C1034.39,-46.42 1004.01,-33.11 981.56,-23.28"/>
<polygon fill="#63b8ff" stroke="#63b8ff" points="982.74,-19.98 972.18,-19.17 979.94,-26.39 982.74,-19.98"/>
</a>
</g>
</g>
<!-- Node24&#45;&gt;Node2 -->
<g id="edge40_Node000024_Node000002" class="edge">
<title>Node24&#45;&gt;Node2</title>
<g id="a_edge40_Node000024_Node000002"><a xlink:title=" ">
<path fill="none" stroke="#63b8ff" d="M968.69,-109.62C958.93,-95.26 937.51,-67.33 911.39,-55 837.42,-20.1 596.62,-12.55 486.84,-10.93"/>
<polygon fill="#63b8ff" stroke="#63b8ff" points="486.68,-7.43 476.63,-10.79 486.58,-14.43 486.68,-7.43"/>
</a>
</g>
</g>
<!-- Node24&#45;&gt;Node5 -->
<g id="edge38_Node000024_Node000005" class="edge">
<title>Node24&#45;&gt;Node5</title>
<g id="a_edge38_Node000024_Node000005"><a xlink:title=" ">
<path fill="none" stroke="#63b8ff" d="M936.95,-109.98C896.73,-100.84 832.71,-86.27 788.95,-76.32"/>
<polygon fill="#63b8ff" stroke="#63b8ff" points="789.64,-72.89 779.11,-74.08 788.09,-79.71 789.64,-72.89"/>
</a>
</g>
</g>
<!-- Node24&#45;&gt;Node15 -->
<g id="edge39_Node000024_Node000015" class="edge">
<title>Node24&#45;&gt;Node15</title>
<g id="a_edge39_Node000024_Node000015"><a xlink:title=" ">
<path fill="none" stroke="#63b8ff" d="M1008.77,-109.98C1049.44,-99.91 1116.62,-83.27 1156.27,-73.45"/>
<polygon fill="#63b8ff" stroke="#63b8ff" points="1157.34,-76.8 1166.2,-70.99 1155.66,-70 1157.34,-76.8"/>
</a>
</g>
</g>
<!-- Node25&#45;&gt;Node2 -->
<g id="edge52_Node000025_Node000002" class="edge">
<title>Node25&#45;&gt;Node2</title>
<g id="a_edge52_Node000025_Node000002"><a xlink:title=" ">
<path fill="none" stroke="#63b8ff" d="M774.71,-222.47C683.06,-209.7 484.38,-177.08 437.39,-129 411.56,-102.58 418.98,-55 425.74,-28.89"/>
<polygon fill="#63b8ff" stroke="#63b8ff" points="429.14,-29.71 428.49,-19.14 422.4,-27.81 429.14,-29.71"/>
</a>
</g>
</g>
<!-- Node25&#45;&gt;Node5 -->
<g id="edge51_Node000025_Node000005" class="edge">
<title>Node25&#45;&gt;Node5</title>
<g id="a_edge51_Node000025_Node000005"><a xlink:title=" ">
<path fill="none" stroke="#63b8ff" d="M826.45,-219.93C837.95,-199.22 863.36,-145.51 840.39,-110 829.4,-93.02 810.24,-82.46 791.67,-75.92"/>
<polygon fill="#63b8ff" stroke="#63b8ff" points="792.66,-72.56 782.07,-72.85 790.53,-79.23 792.66,-72.56"/>
</a>
</g>
</g>
<!-- Node25&#45;&gt;Node12 -->
<g id="edge53_Node000025_Node000012" class="edge">
<title>Node25&#45;&gt;Node12</title>
<g id="a_edge53_Node000025_Node000012"><a xlink:title=" ">
<path fill="none" stroke="#63b8ff" d="M813.29,-219.75C806.23,-212.11 795.8,-200.82 787.24,-191.56"/>
<polygon fill="#63b8ff" stroke="#63b8ff" points="789.69,-189.06 780.33,-184.09 784.55,-193.81 789.69,-189.06"/>
</a>
</g>
</g>
<!-- Node25&#45;&gt;Node13 -->
<g id="edge45_Node000025_Node000013" class="edge">
<title>Node25&#45;&gt;Node13</title>
<g id="a_edge45_Node000025_Node000013"><a xlink:title=" ">
<path fill="none" stroke="#63b8ff" d="M819.83,-219.66C816.75,-202.17 809.83,-162.8 805.69,-139.27"/>
<polygon fill="#63b8ff" stroke="#63b8ff" points="809.09,-138.4 803.91,-129.16 802.19,-139.61 809.09,-138.4"/>
</a>
</g>
</g>
<!-- Node25&#45;&gt;Node15 -->
<g id="edge43_Node000025_Node000015" class="edge">
<title>Node25&#45;&gt;Node15</title>
<g id="a_edge43_Node000025_Node000015"><a xlink:title=" ">
<path fill="none" stroke="#63b8ff" d="M867.91,-224.88C967.6,-216.03 1196.27,-189.42 1239.39,-129 1251.94,-111.41 1231.34,-92.2 1212.69,-79.56"/>
<polygon fill="#63b8ff" stroke="#63b8ff" points="1214.42,-76.52 1204.11,-74.09 1210.66,-82.42 1214.42,-76.52"/>
</a>
</g>
</g>
<!-- Node25&#45;&gt;Node20 -->
<g id="edge44_Node000025_Node000020" class="edge">
<title>Node25&#45;&gt;Node20</title>
<g id="a_edge44_Node000025_Node000020"><a xlink:title=" ">
<path fill="none" stroke="#63b8ff" d="M868.13,-228.46C935.84,-225.55 1059.14,-208.85 1114.39,-129 1125.66,-112.7 1109.36,-93.53 1094.1,-80.55"/>
<polygon fill="#63b8ff" stroke="#63b8ff" points="1095.91,-77.52 1085.91,-74.04 1091.56,-83 1095.91,-77.52"/>
</a>
</g>
</g>
<!-- Node26 -->
<g id="Node000026" class="node">
<title>Node26</title>
<g id="a_Node000026"><a xlink:href="tstringlist_8h.html" target="_top" xlink:title=" ">
<polygon fill="white" stroke="#666666" points="959.39,-184 887.39,-184 887.39,-165 959.39,-165 959.39,-184"/>
<text text-anchor="middle" x="923.39" y="-172" font-family="Helvetica,sans-Serif" font-size="10.00">tstringlist.h</text>
</a>
</g>
</g>
<!-- Node25&#45;&gt;Node26 -->
<g id="edge46_Node000025_Node000026" class="edge">
<title>Node25&#45;&gt;Node26</title>
<g id="a_edge46_Node000025_Node000026"><a xlink:title=" ">
<path fill="none" stroke="#63b8ff" d="M837.77,-219.98C853.96,-211.57 878.96,-198.59 897.77,-188.81"/>
<polygon fill="#63b8ff" stroke="#63b8ff" points="899.44,-191.89 906.7,-184.17 896.21,-185.68 899.44,-191.89"/>
</a>
</g>
</g>
<!-- Node27 -->
<g id="Node000027" class="node">
<title>Node27</title>
<g id="a_Node000027"><a xlink:href="flacpicture_8h.html" target="_top" xlink:title=" ">
<polygon fill="white" stroke="#666666" points="733.89,-184 656.89,-184 656.89,-165 733.89,-165 733.89,-184"/>
<text text-anchor="middle" x="695.39" y="-172" font-family="Helvetica,sans-Serif" font-size="10.00">flacpicture.h</text>
</a>
</g>
</g>
<!-- Node25&#45;&gt;Node27 -->
<g id="edge54_Node000025_Node000027" class="edge">
<title>Node25&#45;&gt;Node27</title>
<g id="a_edge54_Node000025_Node000027"><a xlink:title=" ">
<path fill="none" stroke="#63b8ff" d="M801.14,-219.98C780.69,-211.38 748.85,-197.99 725.45,-188.15"/>
<polygon fill="#63b8ff" stroke="#63b8ff" points="726.57,-184.82 716,-184.17 723.86,-191.27 726.57,-184.82"/>
</a>
</g>
</g>
<!-- Node26&#45;&gt;Node2 -->
<g id="edge50_Node000026_Node000002" class="edge">
<title>Node26&#45;&gt;Node2</title>
<g id="a_edge50_Node000026_Node000002"><a xlink:title=" ">
<path fill="none" stroke="#63b8ff" d="M921.16,-164.75C914.89,-142.13 894.8,-81.61 853.39,-55 794.05,-16.87 587.4,-10.89 486.99,-10.29"/>
<polygon fill="#63b8ff" stroke="#63b8ff" points="486.76,-6.79 476.74,-10.25 486.73,-13.79 486.76,-6.79"/>
</a>
</g>
</g>
<!-- Node26&#45;&gt;Node13 -->
<g id="edge47_Node000026_Node000013" class="edge">
<title>Node26&#45;&gt;Node13</title>
<g id="a_edge47_Node000026_Node000013"><a xlink:title=" ">
<path fill="none" stroke="#63b8ff" d="M903.94,-164.98C884.39,-156.42 854.01,-143.11 831.56,-133.28"/>
<polygon fill="#63b8ff" stroke="#63b8ff" points="832.74,-129.98 822.18,-129.17 829.94,-136.39 832.74,-129.98"/>
</a>
</g>
</g>
<!-- Node26&#45;&gt;Node15 -->
<g id="edge48_Node000026_Node000015" class="edge">
<title>Node26&#45;&gt;Node15</title>
<g id="a_edge48_Node000026_Node000015"><a xlink:title=" ">
<path fill="none" stroke="#63b8ff" d="M959.55,-173.75C1031.73,-173.4 1189.68,-168.07 1223.39,-129 1236.01,-114.36 1220.9,-94.44 1206.78,-80.83"/>
<polygon fill="#63b8ff" stroke="#63b8ff" points="1208.98,-78.11 1199.22,-74 1204.29,-83.3 1208.98,-78.11"/>
</a>
</g>
</g>
<!-- Node26&#45;&gt;Node24 -->
<g id="edge49_Node000026_Node000024" class="edge">
<title>Node26&#45;&gt;Node24</title>
<g id="a_edge49_Node000026_Node000024"><a xlink:title=" ">
<path fill="none" stroke="#63b8ff" d="M931.81,-164.75C939.16,-157.11 950.02,-145.82 958.93,-136.56"/>
<polygon fill="#63b8ff" stroke="#63b8ff" points="961.71,-138.72 966.12,-129.09 956.66,-133.87 961.71,-138.72"/>
</a>
</g>
</g>
<!-- Node27&#45;&gt;Node2 -->
<g id="edge59_Node000027_Node000002" class="edge">
<title>Node27&#45;&gt;Node2</title>
<g id="a_edge59_Node000027_Node000002"><a xlink:title=" ">
<path fill="none" stroke="#63b8ff" d="M656.69,-171.47C596.22,-167.49 483.33,-156.49 455.39,-129 428.66,-102.71 427.54,-55.44 429.31,-29.25"/>
<polygon fill="#63b8ff" stroke="#63b8ff" points="432.81,-29.41 430.21,-19.14 425.84,-28.79 432.81,-29.41"/>
</a>
</g>
</g>
<!-- Node27&#45;&gt;Node5 -->
<g id="edge57_Node000027_Node000005" class="edge">
<title>Node27&#45;&gt;Node5</title>
<g id="a_edge57_Node000027_Node000005"><a xlink:title=" ">
<path fill="none" stroke="#63b8ff" d="M702.87,-164.9C709.93,-156.35 720.32,-142.58 726.39,-129 732.82,-114.6 736.69,-97.08 738.89,-84.1"/>
<polygon fill="#63b8ff" stroke="#63b8ff" points="742.37,-84.46 740.4,-74.04 735.45,-83.41 742.37,-84.46"/>
</a>
</g>
</g>
<!-- Node27&#45;&gt;Node13 -->
<g id="edge56_Node000027_Node000013" class="edge">
<title>Node27&#45;&gt;Node13</title>
<g id="a_edge56_Node000027_Node000013"><a xlink:title=" ">
<path fill="none" stroke="#63b8ff" d="M712.58,-164.98C729.64,-156.54 756.02,-143.47 775.78,-133.68"/>
<polygon fill="#63b8ff" stroke="#63b8ff" points="777.47,-136.75 784.88,-129.17 774.37,-130.47 777.47,-136.75"/>
</a>
</g>
</g>
<!-- Node27&#45;&gt;Node15 -->
<g id="edge55_Node000027_Node000015" class="edge">
<title>Node27&#45;&gt;Node15</title>
<g id="a_edge55_Node000027_Node000015"><a xlink:title=" ">
<path fill="none" stroke="#63b8ff" d="M734.12,-166.37C737.25,-165.88 740.37,-165.41 743.39,-165 907.52,-142.54 961.99,-193.96 1114.39,-129 1138.83,-118.58 1161.11,-97.07 1174.7,-81.99"/>
<polygon fill="#63b8ff" stroke="#63b8ff" points="1177.39,-84.22 1181.31,-74.38 1172.11,-79.63 1177.39,-84.22"/>
</a>
</g>
</g>
<!-- Node28 -->
<g id="Node000028" class="node">
<title>Node28</title>
<g id="a_Node000028"><a xlink:href="tpicturetype_8h.html" target="_top" xlink:title=" ">
<polygon fill="white" stroke="#666666" points="716.89,-129 631.89,-129 631.89,-110 716.89,-110 716.89,-129"/>
<text text-anchor="middle" x="674.39" y="-117" font-family="Helvetica,sans-Serif" font-size="10.00">tpicturetype.h</text>
</a>
</g>
</g>
<!-- Node27&#45;&gt;Node28 -->
<g id="edge58_Node000027_Node000028" class="edge">
<title>Node27&#45;&gt;Node28</title>
<g id="a_edge58_Node000027_Node000028"><a xlink:title=" ">
<path fill="none" stroke="#63b8ff" d="M691.92,-164.75C689.1,-157.65 685.04,-147.4 681.54,-138.56"/>
<polygon fill="#63b8ff" stroke="#63b8ff" points="684.73,-137.1 677.79,-129.09 678.22,-139.68 684.73,-137.1"/>
</a>
</g>
</g>
<!-- Node29 -->
<g id="Node000029" class="node">
<title>Node29</title>
<g id="a_Node000029"><a xlink:href="flacmetadatablock_8h.html" target="_top" xlink:title=" ">
<polygon fill="white" stroke="#666666" points="613.39,-129 497.39,-129 497.39,-110 613.39,-110 613.39,-129"/>
<text text-anchor="middle" x="555.39" y="-117" font-family="Helvetica,sans-Serif" font-size="10.00">flacmetadatablock.h</text>
</a>
</g>
</g>
<!-- Node27&#45;&gt;Node29 -->
<g id="edge60_Node000027_Node000029" class="edge">
<title>Node27&#45;&gt;Node29</title>
<g id="a_edge60_Node000027_Node000029"><a xlink:title=" ">
<path fill="none" stroke="#63b8ff" d="M672.89,-164.98C649.86,-156.27 613.85,-142.63 587.75,-132.75"/>
<polygon fill="#63b8ff" stroke="#63b8ff" points="588.88,-129.44 578.29,-129.17 586.4,-135.98 588.88,-129.44"/>
</a>
</g>
</g>
<!-- Node29&#45;&gt;Node2 -->
<g id="edge62_Node000029_Node000002" class="edge">
<title>Node29&#45;&gt;Node2</title>
<g id="a_edge62_Node000029_Node000002"><a xlink:title=" ">
<path fill="none" stroke="#63b8ff" d="M545.64,-109.83C531.84,-97.56 505.78,-74.46 483.39,-55 472.17,-45.26 459.51,-34.42 449.49,-25.88"/>
<polygon fill="#63b8ff" stroke="#63b8ff" points="451.67,-23.14 441.78,-19.32 447.13,-28.47 451.67,-23.14"/>
</a>
</g>
</g>
<!-- Node29&#45;&gt;Node5 -->
<g id="edge61_Node000029_Node000005" class="edge">
<title>Node29&#45;&gt;Node5</title>
<g id="a_edge61_Node000029_Node000005"><a xlink:title=" ">
<path fill="none" stroke="#63b8ff" d="M585.27,-109.98C616.77,-101.01 666.55,-86.82 701.41,-76.89"/>
<polygon fill="#63b8ff" stroke="#63b8ff" points="702.61,-80.19 711.27,-74.08 700.69,-73.46 702.61,-80.19"/>
</a>
</g>
</g>
<!-- Node30&#45;&gt;Node2 -->
<g id="edge64_Node000030_Node000002" class="edge">
<title>Node30&#45;&gt;Node2</title>
<g id="a_edge64_Node000030_Node000002"><a xlink:title=" ">
<path fill="none" stroke="#63b8ff" d="M41.62,-164.96C28.37,-157.51 11.27,-145.33 3.39,-129 -7.28,-106.9 13.22,-60.9 20.39,-55 47.28,-32.83 270.07,-18.68 375.93,-13.15"/>
<polygon fill="#63b8ff" stroke="#63b8ff" points="376.29,-16.63 386.1,-12.62 375.93,-9.64 376.29,-16.63"/>
</a>
</g>
</g>
<!-- Node31 -->
<g id="Node000031" class="node">
<title>Node31</title>
<g id="a_Node000031"><a xlink:href="audioproperties_8h.html" target="_top" xlink:title=" ">
<polygon fill="white" stroke="#666666" points="121.39,-129 19.39,-129 19.39,-110 121.39,-110 121.39,-129"/>
<text text-anchor="middle" x="70.39" y="-117" font-family="Helvetica,sans-Serif" font-size="10.00">audioproperties.h</text>
</a>
</g>
</g>
<!-- Node30&#45;&gt;Node31 -->
<g id="edge65_Node000030_Node000031" class="edge">
<title>Node30&#45;&gt;Node31</title>
<g id="a_edge65_Node000030_Node000031"><a xlink:title=" ">
<path fill="none" stroke="#63b8ff" d="M61.2,-164.75C62.64,-157.8 64.71,-147.85 66.52,-139.13"/>
<polygon fill="#63b8ff" stroke="#63b8ff" points="70,-139.59 68.6,-129.09 63.14,-138.17 70,-139.59"/>
</a>
</g>
</g>
<!-- Node31&#45;&gt;Node2 -->
<g id="edge68_Node000031_Node000002" class="edge">
<title>Node31&#45;&gt;Node2</title>
<g id="a_edge68_Node000031_Node000002"><a xlink:title=" ">
<path fill="none" stroke="#63b8ff" d="M76.41,-109.78C86.7,-95.67 109.11,-68.07 135.39,-55 176.6,-34.5 302.54,-21.06 376.19,-14.73"/>
<polygon fill="#63b8ff" stroke="#63b8ff" points="376.55,-18.21 386.22,-13.88 375.96,-11.24 376.55,-18.21"/>
</a>
</g>
</g>
<!-- Node31&#45;&gt;Node6 -->
<g id="edge66_Node000031_Node000006" class="edge">
<title>Node31&#45;&gt;Node6</title>
<g id="a_edge66_Node000031_Node000006"><a xlink:title=" ">
<path fill="none" stroke="#63b8ff" d="M121.79,-113.47C244.04,-101.15 561.73,-67.06 835.84,-19.14"/>
<polygon fill="#63b8ff" stroke="#63b8ff" points="836.74,-22.53 845.98,-17.36 835.53,-15.64 836.74,-22.53"/>
</a>
</g>
</g>
<!-- Node31&#45;&gt;Node10 -->
<g id="edge67_Node000031_Node000010" class="edge">
<title>Node31&#45;&gt;Node10</title>
<g id="a_edge67_Node000031_Node000010"><a xlink:title=" ">
<path fill="none" stroke="#63b8ff" d="M68.07,-109.75C66.22,-102.72 63.55,-92.62 61.23,-83.84"/>
<polygon fill="#63b8ff" stroke="#63b8ff" points="64.59,-82.86 58.65,-74.09 57.82,-84.65 64.59,-82.86"/>
</a>
</g>
</g>
</g>
</svg>
