<?xml version="1.0" encoding="UTF-8" standalone="no"?>
<!DOCTYPE svg PUBLIC "-//W3C//DTD SVG 1.1//EN"
 "http://www.w3.org/Graphics/SVG/1.1/DTD/svg11.dtd">
<!-- Generated by graphviz version 2.42.4 (0)
 -->
<!-- Title: vorbisfile.h Pages: 1 -->
<svg width="1484pt" height="357pt"
 viewBox="0.00 0.00 1483.50 357.00" xmlns="http://www.w3.org/2000/svg" xmlns:xlink="http://www.w3.org/1999/xlink">
<g id="graph0" class="graph" transform="scale(1 1) rotate(0) translate(4 353)">
<title>vorbisfile.h</title>
<!-- Node1 -->
<g id="Node000001" class="node">
<title>Node1</title>
<g id="a_Node000001"><a xlink:title=" ">
<polygon fill="#999999" stroke="#666666" points="1301,-349 1230,-349 1230,-330 1301,-330 1301,-349"/>
<text text-anchor="middle" x="1265.5" y="-337" font-family="Helvetica,sans-Serif" font-size="10.00">vorbisfile.h</text>
</a>
</g>
</g>
<!-- Node2 -->
<g id="Node000002" class="node">
<title>Node2</title>
<g id="a_Node000002"><a xlink:href="taglib__export_8h.html" target="_top" xlink:title=" ">
<polygon fill="white" stroke="#666666" points="1070.5,-19 980.5,-19 980.5,0 1070.5,0 1070.5,-19"/>
<text text-anchor="middle" x="1025.5" y="-7" font-family="Helvetica,sans-Serif" font-size="10.00">taglib_export.h</text>
</a>
</g>
</g>
<!-- Node1&#45;&gt;Node2 -->
<g id="edge1_Node000001_Node000002" class="edge">
<title>Node1&#45;&gt;Node2</title>
<g id="a_edge1_Node000001_Node000002"><a xlink:title=" ">
<path fill="none" stroke="#63b8ff" d="M1301.12,-336.1C1361.04,-329.92 1475.5,-307.98 1475.5,-230.5 1475.5,-230.5 1475.5,-230.5 1475.5,-118.5 1475.5,-38.19 1201.05,-17.45 1080.82,-12.22"/>
<polygon fill="#63b8ff" stroke="#63b8ff" points="1080.84,-8.71 1070.71,-11.8 1080.55,-15.71 1080.84,-8.71"/>
</a>
</g>
</g>
<!-- Node3 -->
<g id="Node000003" class="node">
<title>Node3</title>
<g id="a_Node000003"><a xlink:href="oggfile_8h.html" target="_top" xlink:title=" ">
<polygon fill="white" stroke="#666666" points="1219,-294 1160,-294 1160,-275 1219,-275 1219,-294"/>
<text text-anchor="middle" x="1189.5" y="-282" font-family="Helvetica,sans-Serif" font-size="10.00">oggfile.h</text>
</a>
</g>
</g>
<!-- Node1&#45;&gt;Node3 -->
<g id="edge2_Node000001_Node000003" class="edge">
<title>Node1&#45;&gt;Node3</title>
<g id="a_edge2_Node000001_Node000003"><a xlink:title=" ">
<path fill="none" stroke="#63b8ff" d="M1253.29,-329.98C1241.72,-321.92 1224.12,-309.65 1210.34,-300.03"/>
<polygon fill="#63b8ff" stroke="#63b8ff" points="1212.14,-297.02 1201.93,-294.17 1208.13,-302.76 1212.14,-297.02"/>
</a>
</g>
</g>
<!-- Node26 -->
<g id="Node000026" class="node">
<title>Node26</title>
<g id="a_Node000026"><a xlink:href="xiphcomment_8h.html" target="_top" xlink:title=" ">
<polygon fill="white" stroke="#666666" points="645,-239 552,-239 552,-220 645,-220 645,-239"/>
<text text-anchor="middle" x="598.5" y="-227" font-family="Helvetica,sans-Serif" font-size="10.00">xiphcomment.h</text>
</a>
</g>
</g>
<!-- Node1&#45;&gt;Node26 -->
<g id="edge42_Node000001_Node000026" class="edge">
<title>Node1&#45;&gt;Node26</title>
<g id="a_edge42_Node000001_Node000026"><a xlink:title=" ">
<path fill="none" stroke="#63b8ff" d="M1229.64,-332.69C1120.06,-314.95 789.01,-261.35 655.36,-239.71"/>
<polygon fill="#63b8ff" stroke="#63b8ff" points="655.76,-236.23 645.33,-238.08 654.64,-243.14 655.76,-236.23"/>
</a>
</g>
</g>
<!-- Node31 -->
<g id="Node000031" class="node">
<title>Node31</title>
<g id="a_Node000031"><a xlink:href="vorbisproperties_8h.html" target="_top" xlink:title=" ">
<polygon fill="white" stroke="#666666" points="1447,-184 1342,-184 1342,-165 1447,-165 1447,-184"/>
<text text-anchor="middle" x="1394.5" y="-172" font-family="Helvetica,sans-Serif" font-size="10.00">vorbisproperties.h</text>
</a>
</g>
</g>
<!-- Node1&#45;&gt;Node31 -->
<g id="edge63_Node000001_Node000031" class="edge">
<title>Node1&#45;&gt;Node31</title>
<g id="a_edge63_Node000001_Node000031"><a xlink:title=" ">
<path fill="none" stroke="#63b8ff" d="M1272.44,-329.74C1293,-303.76 1353.88,-226.83 1381.09,-192.44"/>
<polygon fill="#63b8ff" stroke="#63b8ff" points="1384.07,-194.32 1387.53,-184.31 1378.58,-189.98 1384.07,-194.32"/>
</a>
</g>
</g>
<!-- Node3&#45;&gt;Node2 -->
<g id="edge41_Node000003_Node000002" class="edge">
<title>Node3&#45;&gt;Node2</title>
<g id="a_edge41_Node000003_Node000002"><a xlink:title=" ">
<path fill="none" stroke="#63b8ff" d="M1193.81,-274.78C1202.33,-256.73 1220.5,-213.73 1220.5,-175.5 1220.5,-175.5 1220.5,-175.5 1220.5,-118.5 1220.5,-54.25 1138.48,-27.91 1080.83,-17.33"/>
<polygon fill="#63b8ff" stroke="#63b8ff" points="1081.18,-13.84 1070.73,-15.59 1079.99,-20.74 1081.18,-13.84"/>
</a>
</g>
</g>
<!-- Node4 -->
<g id="Node000004" class="node">
<title>Node4</title>
<g id="a_Node000004"><a xlink:href="tfile_8h.html" target="_top" xlink:title=" ">
<polygon fill="white" stroke="#666666" points="1179.5,-239 1135.5,-239 1135.5,-220 1179.5,-220 1179.5,-239"/>
<text text-anchor="middle" x="1157.5" y="-227" font-family="Helvetica,sans-Serif" font-size="10.00">tfile.h</text>
</a>
</g>
</g>
<!-- Node3&#45;&gt;Node4 -->
<g id="edge3_Node000003_Node000004" class="edge">
<title>Node3&#45;&gt;Node4</title>
<g id="a_edge3_Node000003_Node000004"><a xlink:title=" ">
<path fill="none" stroke="#63b8ff" d="M1184.22,-274.75C1179.79,-267.42 1173.34,-256.73 1167.88,-247.7"/>
<polygon fill="#63b8ff" stroke="#63b8ff" points="1170.85,-245.84 1162.69,-239.09 1164.86,-249.46 1170.85,-245.84"/>
</a>
</g>
</g>
<!-- Node25 -->
<g id="Node000025" class="node">
<title>Node25</title>
<g id="a_Node000025"><a xlink:href="tbytevectorlist_8h.html" target="_top" xlink:title=" ">
<polygon fill="white" stroke="#666666" points="324,-129 227,-129 227,-110 324,-110 324,-129"/>
<text text-anchor="middle" x="275.5" y="-117" font-family="Helvetica,sans-Serif" font-size="10.00">tbytevectorlist.h</text>
</a>
</g>
</g>
<!-- Node3&#45;&gt;Node25 -->
<g id="edge37_Node000003_Node000025" class="edge">
<title>Node3&#45;&gt;Node25</title>
<g id="a_edge37_Node000003_Node000025"><a xlink:title=" ">
<path fill="none" stroke="#63b8ff" d="M1159.68,-282.92C1067.48,-280.82 778.92,-271.88 542.5,-239 425.08,-222.67 360.44,-272.44 281.5,-184 270.79,-172.01 270.3,-153.19 271.88,-139.15"/>
<polygon fill="#63b8ff" stroke="#63b8ff" points="275.36,-139.55 273.44,-129.14 268.44,-138.48 275.36,-139.55"/>
</a>
</g>
</g>
<!-- Node4&#45;&gt;Node2 -->
<g id="edge14_Node000004_Node000002" class="edge">
<title>Node4&#45;&gt;Node2</title>
<g id="a_edge14_Node000004_Node000002"><a xlink:title=" ">
<path fill="none" stroke="#63b8ff" d="M1160.39,-219.95C1166.71,-199.73 1179.86,-147.8 1162.5,-110 1142.52,-66.48 1092.48,-38.05 1058.74,-23.14"/>
<polygon fill="#63b8ff" stroke="#63b8ff" points="1059.84,-19.8 1049.27,-19.11 1057.1,-26.24 1059.84,-19.8"/>
</a>
</g>
</g>
<!-- Node5 -->
<g id="Node000005" class="node">
<title>Node5</title>
<g id="a_Node000005"><a xlink:href="tbytevector_8h.html" target="_top" xlink:title=" ">
<polygon fill="white" stroke="#666666" points="671,-74 590,-74 590,-55 671,-55 671,-74"/>
<text text-anchor="middle" x="630.5" y="-62" font-family="Helvetica,sans-Serif" font-size="10.00">tbytevector.h</text>
</a>
</g>
</g>
<!-- Node4&#45;&gt;Node5 -->
<g id="edge4_Node000004_Node000005" class="edge">
<title>Node4&#45;&gt;Node5</title>
<g id="a_edge4_Node000004_Node000005"><a xlink:title=" ">
<path fill="none" stroke="#63b8ff" d="M1146.58,-219.83C1117.67,-197.41 1036.02,-137.34 957.5,-110 931.99,-101.12 766.61,-81.17 681.28,-71.28"/>
<polygon fill="#63b8ff" stroke="#63b8ff" points="681.62,-67.8 671.29,-70.13 680.82,-74.75 681.62,-67.8"/>
</a>
</g>
</g>
<!-- Node9 -->
<g id="Node000009" class="node">
<title>Node9</title>
<g id="a_Node000009"><a xlink:href="tiostream_8h.html" target="_top" xlink:title=" ">
<polygon fill="white" stroke="#666666" points="1154,-129 1081,-129 1081,-110 1154,-110 1154,-129"/>
<text text-anchor="middle" x="1117.5" y="-117" font-family="Helvetica,sans-Serif" font-size="10.00">tiostream.h</text>
</a>
</g>
</g>
<!-- Node4&#45;&gt;Node9 -->
<g id="edge9_Node000004_Node000009" class="edge">
<title>Node4&#45;&gt;Node9</title>
<g id="a_edge9_Node000004_Node000009"><a xlink:title=" ">
<path fill="none" stroke="#63b8ff" d="M1154.23,-219.66C1147.69,-202.01 1132.9,-162.09 1124.22,-138.64"/>
<polygon fill="#63b8ff" stroke="#63b8ff" points="1127.46,-137.32 1120.71,-129.16 1120.9,-139.75 1127.46,-137.32"/>
</a>
</g>
</g>
<!-- Node10 -->
<g id="Node000010" class="node">
<title>Node10</title>
<g id="a_Node000010"><a xlink:href="taglib_8h.html" target="_top" xlink:title=" ">
<polygon fill="white" stroke="#666666" points="1340,-74 1287,-74 1287,-55 1340,-55 1340,-74"/>
<text text-anchor="middle" x="1313.5" y="-62" font-family="Helvetica,sans-Serif" font-size="10.00">taglib.h</text>
</a>
</g>
</g>
<!-- Node4&#45;&gt;Node10 -->
<g id="edge15_Node000004_Node000010" class="edge">
<title>Node4&#45;&gt;Node10</title>
<g id="a_edge15_Node000004_Node000010"><a xlink:title=" ">
<path fill="none" stroke="#63b8ff" d="M1179.58,-225.27C1223.11,-217.58 1319.23,-193.73 1359.5,-129 1370.34,-111.58 1352.47,-92.66 1335.94,-80.04"/>
<polygon fill="#63b8ff" stroke="#63b8ff" points="1337.74,-77.03 1327.57,-74.06 1333.67,-82.73 1337.74,-77.03"/>
</a>
</g>
</g>
<!-- Node12 -->
<g id="Node000012" class="node">
<title>Node12</title>
<g id="a_Node000012"><a xlink:href="tag_8h.html" target="_top" xlink:title=" ">
<polygon fill="white" stroke="#666666" points="878,-184 837,-184 837,-165 878,-165 878,-184"/>
<text text-anchor="middle" x="857.5" y="-172" font-family="Helvetica,sans-Serif" font-size="10.00">tag.h</text>
</a>
</g>
</g>
<!-- Node4&#45;&gt;Node12 -->
<g id="edge16_Node000004_Node000012" class="edge">
<title>Node4&#45;&gt;Node12</title>
<g id="a_edge16_Node000004_Node000012"><a xlink:title=" ">
<path fill="none" stroke="#63b8ff" d="M1135.44,-224.6C1082.72,-215.29 949.29,-191.72 888.52,-180.98"/>
<polygon fill="#63b8ff" stroke="#63b8ff" points="888.84,-177.48 878.39,-179.19 887.63,-184.38 888.84,-177.48"/>
</a>
</g>
</g>
<!-- Node5&#45;&gt;Node2 -->
<g id="edge8_Node000005_Node000002" class="edge">
<title>Node5&#45;&gt;Node2</title>
<g id="a_edge8_Node000005_Node000002"><a xlink:title=" ">
<path fill="none" stroke="#63b8ff" d="M671.03,-57.13C675.91,-56.39 680.81,-55.67 685.5,-55 785.84,-40.68 903.1,-25.73 970.4,-17.31"/>
<polygon fill="#63b8ff" stroke="#63b8ff" points="970.87,-20.78 980.36,-16.07 970,-13.84 970.87,-20.78"/>
</a>
</g>
</g>
<!-- Node6 -->
<g id="Node000006" class="node">
<title>Node6</title>
<g id="a_Node000006"><a xlink:title=" ">
<polygon fill="#e0e0e0" stroke="#999999" points="506.5,-19 448.5,-19 448.5,0 506.5,0 506.5,-19"/>
<text text-anchor="middle" x="477.5" y="-7" font-family="Helvetica,sans-Serif" font-size="10.00">memory</text>
</a>
</g>
</g>
<!-- Node5&#45;&gt;Node6 -->
<g id="edge5_Node000005_Node000006" class="edge">
<title>Node5&#45;&gt;Node6</title>
<g id="a_edge5_Node000005_Node000006"><a xlink:title=" ">
<path fill="none" stroke="#63b8ff" d="M605.92,-54.98C580.45,-46.16 540.46,-32.31 511.87,-22.41"/>
<polygon fill="#63b8ff" stroke="#63b8ff" points="512.87,-19.05 502.27,-19.08 510.58,-25.66 512.87,-19.05"/>
</a>
</g>
</g>
<!-- Node7 -->
<g id="Node000007" class="node">
<title>Node7</title>
<g id="a_Node000007"><a xlink:title=" ">
<polygon fill="#e0e0e0" stroke="#999999" points="693,-19 646,-19 646,0 693,0 693,-19"/>
<text text-anchor="middle" x="669.5" y="-7" font-family="Helvetica,sans-Serif" font-size="10.00">vector</text>
</a>
</g>
</g>
<!-- Node5&#45;&gt;Node7 -->
<g id="edge6_Node000005_Node000007" class="edge">
<title>Node5&#45;&gt;Node7</title>
<g id="a_edge6_Node000005_Node000007"><a xlink:title=" ">
<path fill="none" stroke="#63b8ff" d="M636.94,-54.75C642.39,-47.34 650.36,-36.5 657.06,-27.41"/>
<polygon fill="#63b8ff" stroke="#63b8ff" points="660.07,-29.22 663.18,-19.09 654.43,-25.07 660.07,-29.22"/>
</a>
</g>
</g>
<!-- Node8 -->
<g id="Node000008" class="node">
<title>Node8</title>
<g id="a_Node000008"><a xlink:title=" ">
<polygon fill="#e0e0e0" stroke="#999999" points="627.5,-19 579.5,-19 579.5,0 627.5,0 627.5,-19"/>
<text text-anchor="middle" x="603.5" y="-7" font-family="Helvetica,sans-Serif" font-size="10.00">iosfwd</text>
</a>
</g>
</g>
<!-- Node5&#45;&gt;Node8 -->
<g id="edge7_Node000005_Node000008" class="edge">
<title>Node5&#45;&gt;Node8</title>
<g id="a_edge7_Node000005_Node000008"><a xlink:title=" ">
<path fill="none" stroke="#63b8ff" d="M626.04,-54.75C622.38,-47.57 617.09,-37.18 612.55,-28.27"/>
<polygon fill="#63b8ff" stroke="#63b8ff" points="615.53,-26.41 607.88,-19.09 609.3,-29.59 615.53,-26.41"/>
</a>
</g>
</g>
<!-- Node9&#45;&gt;Node2 -->
<g id="edge11_Node000009_Node000002" class="edge">
<title>Node9&#45;&gt;Node2</title>
<g id="a_edge11_Node000009_Node000002"><a xlink:title=" ">
<path fill="none" stroke="#63b8ff" d="M1113.07,-109.73C1106.38,-96.93 1092.83,-72.75 1077.5,-55 1068.03,-44.04 1055.79,-33.43 1045.57,-25.32"/>
<polygon fill="#63b8ff" stroke="#63b8ff" points="1047.61,-22.48 1037.56,-19.14 1043.34,-28.02 1047.61,-22.48"/>
</a>
</g>
</g>
<!-- Node9&#45;&gt;Node5 -->
<g id="edge10_Node000009_Node000005" class="edge">
<title>Node9&#45;&gt;Node5</title>
<g id="a_edge10_Node000009_Node000005"><a xlink:title=" ">
<path fill="none" stroke="#63b8ff" d="M1080.9,-114.52C994.9,-105.16 779.85,-81.75 681.29,-71.03"/>
<polygon fill="#63b8ff" stroke="#63b8ff" points="681.59,-67.54 671.27,-69.94 680.84,-74.5 681.59,-67.54"/>
</a>
</g>
</g>
<!-- Node9&#45;&gt;Node10 -->
<g id="edge12_Node000009_Node000010" class="edge">
<title>Node9&#45;&gt;Node10</title>
<g id="a_edge12_Node000009_Node000010"><a xlink:title=" ">
<path fill="none" stroke="#63b8ff" d="M1148.99,-109.98C1183.91,-100.54 1240.15,-85.33 1276.97,-75.38"/>
<polygon fill="#63b8ff" stroke="#63b8ff" points="1278.07,-78.71 1286.81,-72.72 1276.24,-71.95 1278.07,-78.71"/>
</a>
</g>
</g>
<!-- Node11 -->
<g id="Node000011" class="node">
<title>Node11</title>
<g id="a_Node000011"><a xlink:title=" ">
<polygon fill="#e0e0e0" stroke="#999999" points="1349.5,-19 1277.5,-19 1277.5,0 1349.5,0 1349.5,-19"/>
<text text-anchor="middle" x="1313.5" y="-7" font-family="Helvetica,sans-Serif" font-size="10.00">sys/types.h</text>
</a>
</g>
</g>
<!-- Node10&#45;&gt;Node11 -->
<g id="edge13_Node000010_Node000011" class="edge">
<title>Node10&#45;&gt;Node11</title>
<g id="a_edge13_Node000010_Node000011"><a xlink:title=" ">
<path fill="none" stroke="#63b8ff" d="M1313.5,-54.75C1313.5,-47.8 1313.5,-37.85 1313.5,-29.13"/>
<polygon fill="#63b8ff" stroke="#63b8ff" points="1317,-29.09 1313.5,-19.09 1310,-29.09 1317,-29.09"/>
</a>
</g>
</g>
<!-- Node12&#45;&gt;Node2 -->
<g id="edge17_Node000012_Node000002" class="edge">
<title>Node12&#45;&gt;Node2</title>
<g id="a_edge17_Node000012_Node000002"><a xlink:title=" ">
<path fill="none" stroke="#63b8ff" d="M878.4,-168.37C900.25,-162.12 934.51,-149.75 957.5,-129 988.93,-100.63 1009.59,-54.21 1019.22,-28.71"/>
<polygon fill="#63b8ff" stroke="#63b8ff" points="1022.56,-29.76 1022.67,-19.17 1015.98,-27.38 1022.56,-29.76"/>
</a>
</g>
</g>
<!-- Node13 -->
<g id="Node000013" class="node">
<title>Node13</title>
<g id="a_Node000013"><a xlink:href="tstring_8h.html" target="_top" xlink:title=" ">
<polygon fill="white" stroke="#666666" points="828,-129 771,-129 771,-110 828,-110 828,-129"/>
<text text-anchor="middle" x="799.5" y="-117" font-family="Helvetica,sans-Serif" font-size="10.00">tstring.h</text>
</a>
</g>
</g>
<!-- Node12&#45;&gt;Node13 -->
<g id="edge18_Node000012_Node000013" class="edge">
<title>Node12&#45;&gt;Node13</title>
<g id="a_edge18_Node000012_Node000013"><a xlink:title=" ">
<path fill="none" stroke="#63b8ff" d="M848.18,-164.98C839.69,-157.23 826.94,-145.58 816.62,-136.14"/>
<polygon fill="#63b8ff" stroke="#63b8ff" points="818.73,-133.33 808.99,-129.17 814.01,-138.5 818.73,-133.33"/>
</a>
</g>
</g>
<!-- Node15 -->
<g id="Node000015" class="node">
<title>Node15</title>
<g id="a_Node000015"><a xlink:href="tlist_8h.html" target="_top" xlink:title=" ">
<polygon fill="white" stroke="#666666" points="297.5,-74 253.5,-74 253.5,-55 297.5,-55 297.5,-74"/>
<text text-anchor="middle" x="275.5" y="-62" font-family="Helvetica,sans-Serif" font-size="10.00">tlist.h</text>
</a>
</g>
</g>
<!-- Node12&#45;&gt;Node15 -->
<g id="edge22_Node000012_Node000015" class="edge">
<title>Node12&#45;&gt;Node15</title>
<g id="a_edge22_Node000012_Node000015"><a xlink:title=" ">
<path fill="none" stroke="#63b8ff" d="M836.81,-169.86C796.43,-162.68 704.36,-145.91 627.5,-129 593.07,-121.43 585.04,-117.04 550.5,-110 463.34,-92.23 359.48,-77.02 307.9,-69.87"/>
<polygon fill="#63b8ff" stroke="#63b8ff" points="308.1,-66.36 297.71,-68.47 307.14,-73.3 308.1,-66.36"/>
</a>
</g>
</g>
<!-- Node19 -->
<g id="Node000019" class="node">
<title>Node19</title>
<g id="a_Node000019"><a xlink:href="tvariant_8h.html" target="_top" xlink:title=" ">
<polygon fill="white" stroke="#666666" points="948.5,-129 884.5,-129 884.5,-110 948.5,-110 948.5,-129"/>
<text text-anchor="middle" x="916.5" y="-117" font-family="Helvetica,sans-Serif" font-size="10.00">tvariant.h</text>
</a>
</g>
</g>
<!-- Node12&#45;&gt;Node19 -->
<g id="edge27_Node000012_Node000019" class="edge">
<title>Node12&#45;&gt;Node19</title>
<g id="a_edge27_Node000012_Node000019"><a xlink:title=" ">
<path fill="none" stroke="#63b8ff" d="M866.98,-164.98C875.7,-157.15 888.84,-145.34 899.4,-135.86"/>
<polygon fill="#63b8ff" stroke="#63b8ff" points="901.75,-138.46 906.85,-129.17 897.07,-133.25 901.75,-138.46"/>
</a>
</g>
</g>
<!-- Node13&#45;&gt;Node2 -->
<g id="edge21_Node000013_Node000002" class="edge">
<title>Node13&#45;&gt;Node2</title>
<g id="a_edge21_Node000013_Node000002"><a xlink:title=" ">
<path fill="none" stroke="#63b8ff" d="M800.24,-109.62C801.88,-95.78 807.1,-69.19 823.5,-55 845.14,-36.28 918.13,-23.62 970.14,-16.73"/>
<polygon fill="#63b8ff" stroke="#63b8ff" points="970.77,-20.18 980.24,-15.43 969.88,-13.24 970.77,-20.18"/>
</a>
</g>
</g>
<!-- Node13&#45;&gt;Node5 -->
<g id="edge20_Node000013_Node000005" class="edge">
<title>Node13&#45;&gt;Node5</title>
<g id="a_edge20_Node000013_Node000005"><a xlink:title=" ">
<path fill="none" stroke="#63b8ff" d="M772.35,-109.98C743.97,-101.09 699.27,-87.07 667.64,-77.15"/>
<polygon fill="#63b8ff" stroke="#63b8ff" points="668.45,-73.73 657.87,-74.08 666.36,-80.41 668.45,-73.73"/>
</a>
</g>
</g>
<!-- Node14 -->
<g id="Node000014" class="node">
<title>Node14</title>
<g id="a_Node000014"><a xlink:title=" ">
<polygon fill="#e0e0e0" stroke="#999999" points="771.5,-74 727.5,-74 727.5,-55 771.5,-55 771.5,-74"/>
<text text-anchor="middle" x="749.5" y="-62" font-family="Helvetica,sans-Serif" font-size="10.00">string</text>
</a>
</g>
</g>
<!-- Node13&#45;&gt;Node14 -->
<g id="edge19_Node000013_Node000014" class="edge">
<title>Node13&#45;&gt;Node14</title>
<g id="a_edge19_Node000013_Node000014"><a xlink:title=" ">
<path fill="none" stroke="#63b8ff" d="M791.24,-109.75C784.04,-102.11 773.39,-90.82 764.65,-81.56"/>
<polygon fill="#63b8ff" stroke="#63b8ff" points="767.01,-78.96 757.6,-74.09 761.92,-83.76 767.01,-78.96"/>
</a>
</g>
</g>
<!-- Node15&#45;&gt;Node6 -->
<g id="edge25_Node000015_Node000006" class="edge">
<title>Node15&#45;&gt;Node6</title>
<g id="a_edge25_Node000015_Node000006"><a xlink:title=" ">
<path fill="none" stroke="#63b8ff" d="M297.5,-57.73C331.32,-48.85 396.55,-31.74 438.51,-20.73"/>
<polygon fill="#63b8ff" stroke="#63b8ff" points="439.59,-24.06 448.38,-18.14 437.82,-17.29 439.59,-24.06"/>
</a>
</g>
</g>
<!-- Node16 -->
<g id="Node000016" class="node">
<title>Node16</title>
<g id="a_Node000016"><a xlink:title=" ">
<polygon fill="#e0e0e0" stroke="#999999" points="330.5,-19 298.5,-19 298.5,0 330.5,0 330.5,-19"/>
<text text-anchor="middle" x="314.5" y="-7" font-family="Helvetica,sans-Serif" font-size="10.00">list</text>
</a>
</g>
</g>
<!-- Node15&#45;&gt;Node16 -->
<g id="edge23_Node000015_Node000016" class="edge">
<title>Node15&#45;&gt;Node16</title>
<g id="a_edge23_Node000015_Node000016"><a xlink:title=" ">
<path fill="none" stroke="#63b8ff" d="M281.94,-54.75C287.39,-47.34 295.36,-36.5 302.06,-27.41"/>
<polygon fill="#63b8ff" stroke="#63b8ff" points="305.07,-29.22 308.18,-19.09 299.43,-25.07 305.07,-29.22"/>
</a>
</g>
</g>
<!-- Node17 -->
<g id="Node000017" class="node">
<title>Node17</title>
<g id="a_Node000017"><a xlink:title=" ">
<polygon fill="#e0e0e0" stroke="#999999" points="280,-19 197,-19 197,0 280,0 280,-19"/>
<text text-anchor="middle" x="238.5" y="-7" font-family="Helvetica,sans-Serif" font-size="10.00">initializer_list</text>
</a>
</g>
</g>
<!-- Node15&#45;&gt;Node17 -->
<g id="edge24_Node000015_Node000017" class="edge">
<title>Node15&#45;&gt;Node17</title>
<g id="a_edge24_Node000015_Node000017"><a xlink:title=" ">
<path fill="none" stroke="#63b8ff" d="M269.39,-54.75C264.22,-47.34 256.65,-36.5 250.31,-27.41"/>
<polygon fill="#63b8ff" stroke="#63b8ff" points="253.09,-25.29 244.5,-19.09 247.35,-29.29 253.09,-25.29"/>
</a>
</g>
</g>
<!-- Node18 -->
<g id="Node000018" class="node">
<title>Node18</title>
<g id="a_Node000018"><a xlink:title=" ">
<polygon fill="#e0e0e0" stroke="#999999" points="402,-19 349,-19 349,0 402,0 402,-19"/>
<text text-anchor="middle" x="375.5" y="-7" font-family="Helvetica,sans-Serif" font-size="10.00">tlist.tcc</text>
</a>
</g>
</g>
<!-- Node15&#45;&gt;Node18 -->
<g id="edge26_Node000015_Node000018" class="edge">
<title>Node15&#45;&gt;Node18</title>
<g id="a_edge26_Node000015_Node000018"><a xlink:title=" ">
<path fill="none" stroke="#63b8ff" d="M291.57,-54.98C307.36,-46.61 331.72,-33.7 350.13,-23.95"/>
<polygon fill="#63b8ff" stroke="#63b8ff" points="351.94,-26.95 359.14,-19.17 348.67,-20.76 351.94,-26.95"/>
</a>
</g>
</g>
<!-- Node19&#45;&gt;Node2 -->
<g id="edge36_Node000019_Node000002" class="edge">
<title>Node19&#45;&gt;Node2</title>
<g id="a_edge36_Node000019_Node000002"><a xlink:title=" ">
<path fill="none" stroke="#63b8ff" d="M925.42,-109.66C943.79,-91.46 986.09,-49.55 1009.38,-26.47"/>
<polygon fill="#63b8ff" stroke="#63b8ff" points="1012.12,-28.68 1016.76,-19.16 1007.19,-23.71 1012.12,-28.68"/>
</a>
</g>
</g>
<!-- Node19&#45;&gt;Node15 -->
<g id="edge29_Node000019_Node000015" class="edge">
<title>Node19&#45;&gt;Node15</title>
<g id="a_edge29_Node000019_Node000015"><a xlink:title=" ">
<path fill="none" stroke="#63b8ff" d="M884.21,-114.87C869.64,-113.28 852.22,-111.46 836.5,-110 635.68,-91.37 393.97,-73.85 307.88,-67.76"/>
<polygon fill="#63b8ff" stroke="#63b8ff" points="307.92,-64.26 297.7,-67.05 307.43,-71.24 307.92,-64.26"/>
</a>
</g>
</g>
<!-- Node20 -->
<g id="Node000020" class="node">
<title>Node20</title>
<g id="a_Node000020"><a xlink:title=" ">
<polygon fill="#e0e0e0" stroke="#999999" points="921.5,-74 865.5,-74 865.5,-55 921.5,-55 921.5,-74"/>
<text text-anchor="middle" x="893.5" y="-62" font-family="Helvetica,sans-Serif" font-size="10.00">sstream</text>
</a>
</g>
</g>
<!-- Node19&#45;&gt;Node20 -->
<g id="edge28_Node000019_Node000020" class="edge">
<title>Node19&#45;&gt;Node20</title>
<g id="a_edge28_Node000019_Node000020"><a xlink:title=" ">
<path fill="none" stroke="#63b8ff" d="M912.7,-109.75C909.59,-102.57 905.08,-92.18 901.21,-83.27"/>
<polygon fill="#63b8ff" stroke="#63b8ff" points="904.42,-81.87 897.23,-74.09 898,-84.66 904.42,-81.87"/>
</a>
</g>
</g>
<!-- Node21 -->
<g id="Node000021" class="node">
<title>Node21</title>
<g id="a_Node000021"><a xlink:href="tmap_8h.html" target="_top" xlink:title=" ">
<polygon fill="white" stroke="#666666" points="185,-74 134,-74 134,-55 185,-55 185,-74"/>
<text text-anchor="middle" x="159.5" y="-62" font-family="Helvetica,sans-Serif" font-size="10.00">tmap.h</text>
</a>
</g>
</g>
<!-- Node19&#45;&gt;Node21 -->
<g id="edge30_Node000019_Node000021" class="edge">
<title>Node19&#45;&gt;Node21</title>
<g id="a_edge30_Node000019_Node000021"><a xlink:title=" ">
<path fill="none" stroke="#63b8ff" d="M884.22,-114.74C869.66,-113.12 852.23,-111.31 836.5,-110 573.82,-88.07 507.25,-95.12 244.5,-74 228.29,-72.7 210.36,-70.95 195.17,-69.38"/>
<polygon fill="#63b8ff" stroke="#63b8ff" points="195.45,-65.89 185.14,-68.33 194.72,-72.85 195.45,-65.89"/>
</a>
</g>
</g>
<!-- Node21&#45;&gt;Node6 -->
<g id="edge32_Node000021_Node000006" class="edge">
<title>Node21&#45;&gt;Node6</title>
<g id="a_edge32_Node000021_Node000006"><a xlink:title=" ">
<path fill="none" stroke="#63b8ff" d="M185.25,-59.21C240.83,-49.94 372.32,-28.03 438.3,-17.03"/>
<polygon fill="#63b8ff" stroke="#63b8ff" points="439.02,-20.46 448.31,-15.36 437.87,-13.56 439.02,-20.46"/>
</a>
</g>
</g>
<!-- Node21&#45;&gt;Node17 -->
<g id="edge33_Node000021_Node000017" class="edge">
<title>Node21&#45;&gt;Node17</title>
<g id="a_edge33_Node000021_Node000017"><a xlink:title=" ">
<path fill="none" stroke="#63b8ff" d="M172.19,-54.98C184.33,-46.84 202.86,-34.41 217.25,-24.76"/>
<polygon fill="#63b8ff" stroke="#63b8ff" points="219.22,-27.65 225.58,-19.17 215.32,-21.84 219.22,-27.65"/>
</a>
</g>
</g>
<!-- Node22 -->
<g id="Node000022" class="node">
<title>Node22</title>
<g id="a_Node000022"><a xlink:title=" ">
<polygon fill="#e0e0e0" stroke="#999999" points="178.5,-19 140.5,-19 140.5,0 178.5,0 178.5,-19"/>
<text text-anchor="middle" x="159.5" y="-7" font-family="Helvetica,sans-Serif" font-size="10.00">map</text>
</a>
</g>
</g>
<!-- Node21&#45;&gt;Node22 -->
<g id="edge31_Node000021_Node000022" class="edge">
<title>Node21&#45;&gt;Node22</title>
<g id="a_edge31_Node000021_Node000022"><a xlink:title=" ">
<path fill="none" stroke="#63b8ff" d="M159.5,-54.75C159.5,-47.8 159.5,-37.85 159.5,-29.13"/>
<polygon fill="#63b8ff" stroke="#63b8ff" points="163,-29.09 159.5,-19.09 156,-29.09 163,-29.09"/>
</a>
</g>
</g>
<!-- Node23 -->
<g id="Node000023" class="node">
<title>Node23</title>
<g id="a_Node000023"><a xlink:title=" ">
<polygon fill="#e0e0e0" stroke="#999999" points="45,-19 0,-19 0,0 45,0 45,-19"/>
<text text-anchor="middle" x="22.5" y="-7" font-family="Helvetica,sans-Serif" font-size="10.00">utility</text>
</a>
</g>
</g>
<!-- Node21&#45;&gt;Node23 -->
<g id="edge34_Node000021_Node000023" class="edge">
<title>Node21&#45;&gt;Node23</title>
<g id="a_edge34_Node000021_Node000023"><a xlink:title=" ">
<path fill="none" stroke="#63b8ff" d="M137.49,-54.98C115.05,-46.3 80.02,-32.75 54.51,-22.88"/>
<polygon fill="#63b8ff" stroke="#63b8ff" points="55.5,-19.51 44.91,-19.17 52.98,-26.04 55.5,-19.51"/>
</a>
</g>
</g>
<!-- Node24 -->
<g id="Node000024" class="node">
<title>Node24</title>
<g id="a_Node000024"><a xlink:title=" ">
<polygon fill="#e0e0e0" stroke="#999999" points="122,-19 63,-19 63,0 122,0 122,-19"/>
<text text-anchor="middle" x="92.5" y="-7" font-family="Helvetica,sans-Serif" font-size="10.00">tmap.tcc</text>
</a>
</g>
</g>
<!-- Node21&#45;&gt;Node24 -->
<g id="edge35_Node000021_Node000024" class="edge">
<title>Node21&#45;&gt;Node24</title>
<g id="a_edge35_Node000021_Node000024"><a xlink:title=" ">
<path fill="none" stroke="#63b8ff" d="M148.74,-54.98C138.73,-47.07 123.61,-35.11 111.57,-25.58"/>
<polygon fill="#63b8ff" stroke="#63b8ff" points="113.47,-22.63 103.46,-19.17 109.13,-28.12 113.47,-22.63"/>
</a>
</g>
</g>
<!-- Node25&#45;&gt;Node2 -->
<g id="edge40_Node000025_Node000002" class="edge">
<title>Node25&#45;&gt;Node2</title>
<g id="a_edge40_Node000025_Node000002"><a xlink:title=" ">
<path fill="none" stroke="#63b8ff" d="M282.15,-109.98C293.94,-95.63 320.03,-67.03 349.5,-55 406.25,-31.84 818.82,-16.89 970.09,-12.14"/>
<polygon fill="#63b8ff" stroke="#63b8ff" points="970.21,-15.64 980.1,-11.83 970,-8.64 970.21,-15.64"/>
</a>
</g>
</g>
<!-- Node25&#45;&gt;Node5 -->
<g id="edge38_Node000025_Node000005" class="edge">
<title>Node25&#45;&gt;Node5</title>
<g id="a_edge38_Node000025_Node000005"><a xlink:title=" ">
<path fill="none" stroke="#63b8ff" d="M324.12,-111.24C391.22,-101.22 511.63,-83.25 579.81,-73.07"/>
<polygon fill="#63b8ff" stroke="#63b8ff" points="580.51,-76.5 589.88,-71.56 579.48,-69.58 580.51,-76.5"/>
</a>
</g>
</g>
<!-- Node25&#45;&gt;Node15 -->
<g id="edge39_Node000025_Node000015" class="edge">
<title>Node25&#45;&gt;Node15</title>
<g id="a_edge39_Node000025_Node000015"><a xlink:title=" ">
<path fill="none" stroke="#63b8ff" d="M275.5,-109.75C275.5,-102.8 275.5,-92.85 275.5,-84.13"/>
<polygon fill="#63b8ff" stroke="#63b8ff" points="279,-84.09 275.5,-74.09 272,-84.09 279,-84.09"/>
</a>
</g>
</g>
<!-- Node26&#45;&gt;Node2 -->
<g id="edge52_Node000026_Node000002" class="edge">
<title>Node26&#45;&gt;Node2</title>
<g id="a_edge52_Node000026_Node000002"><a xlink:title=" ">
<path fill="none" stroke="#63b8ff" d="M645.2,-226.65C703.27,-223.15 804.74,-213.05 886.5,-184 958.46,-158.44 991.8,-145.55 1018.5,-74 1023.9,-59.53 1025.5,-42.02 1025.83,-29.06"/>
<polygon fill="#63b8ff" stroke="#63b8ff" points="1029.33,-29.03 1025.86,-19.02 1022.33,-29.01 1029.33,-29.03"/>
</a>
</g>
</g>
<!-- Node26&#45;&gt;Node5 -->
<g id="edge51_Node000026_Node000005" class="edge">
<title>Node26&#45;&gt;Node5</title>
<g id="a_edge51_Node000026_Node000005"><a xlink:title=" ">
<path fill="none" stroke="#63b8ff" d="M569.19,-219.96C514.87,-202.67 407.55,-160.83 447.5,-110 463.72,-89.36 531.6,-77.1 579.94,-70.84"/>
<polygon fill="#63b8ff" stroke="#63b8ff" points="580.44,-74.3 589.93,-69.59 579.58,-67.35 580.44,-74.3"/>
</a>
</g>
</g>
<!-- Node26&#45;&gt;Node12 -->
<g id="edge53_Node000026_Node000012" class="edge">
<title>Node26&#45;&gt;Node12</title>
<g id="a_edge53_Node000026_Node000012"><a xlink:title=" ">
<path fill="none" stroke="#63b8ff" d="M640.11,-219.98C692.25,-209.32 780.37,-191.28 826.79,-181.79"/>
<polygon fill="#63b8ff" stroke="#63b8ff" points="827.74,-185.16 836.84,-179.73 826.34,-178.3 827.74,-185.16"/>
</a>
</g>
</g>
<!-- Node26&#45;&gt;Node13 -->
<g id="edge45_Node000026_Node000013" class="edge">
<title>Node26&#45;&gt;Node13</title>
<g id="a_edge45_Node000026_Node000013"><a xlink:title=" ">
<path fill="none" stroke="#63b8ff" d="M614.61,-219.84C649.61,-201.04 732.81,-156.33 774.62,-133.87"/>
<polygon fill="#63b8ff" stroke="#63b8ff" points="776.44,-136.86 783.59,-129.05 773.13,-130.7 776.44,-136.86"/>
</a>
</g>
</g>
<!-- Node26&#45;&gt;Node15 -->
<g id="edge43_Node000026_Node000015" class="edge">
<title>Node26&#45;&gt;Node15</title>
<g id="a_edge43_Node000026_Node000015"><a xlink:title=" ">
<path fill="none" stroke="#63b8ff" d="M551.92,-229.32C488.31,-228.84 371.87,-222.13 281.5,-184 239.51,-166.28 189.24,-150.32 210.5,-110 217.74,-96.27 231.33,-85.97 244.22,-78.76"/>
<polygon fill="#63b8ff" stroke="#63b8ff" points="246.09,-81.73 253.38,-74.05 242.89,-75.51 246.09,-81.73"/>
</a>
</g>
</g>
<!-- Node26&#45;&gt;Node21 -->
<g id="edge44_Node000026_Node000021" class="edge">
<title>Node26&#45;&gt;Node21</title>
<g id="a_edge44_Node000026_Node000021"><a xlink:title=" ">
<path fill="none" stroke="#63b8ff" d="M551.79,-227.64C465.95,-225.28 287.17,-216.48 235.5,-184 198.04,-160.45 175.55,-110.94 165.59,-83.97"/>
<polygon fill="#63b8ff" stroke="#63b8ff" points="168.79,-82.51 162.19,-74.23 162.19,-84.82 168.79,-82.51"/>
</a>
</g>
</g>
<!-- Node27 -->
<g id="Node000027" class="node">
<title>Node27</title>
<g id="a_Node000027"><a xlink:href="tstringlist_8h.html" target="_top" xlink:title=" ">
<polygon fill="white" stroke="#666666" points="362.5,-184 290.5,-184 290.5,-165 362.5,-165 362.5,-184"/>
<text text-anchor="middle" x="326.5" y="-172" font-family="Helvetica,sans-Serif" font-size="10.00">tstringlist.h</text>
</a>
</g>
</g>
<!-- Node26&#45;&gt;Node27 -->
<g id="edge46_Node000026_Node000027" class="edge">
<title>Node26&#45;&gt;Node27</title>
<g id="a_edge46_Node000026_Node000027"><a xlink:title=" ">
<path fill="none" stroke="#63b8ff" d="M554.8,-219.98C504.92,-210.27 423.69,-194.44 372.77,-184.52"/>
<polygon fill="#63b8ff" stroke="#63b8ff" points="373.18,-181.03 362.7,-182.55 371.84,-187.9 373.18,-181.03"/>
</a>
</g>
</g>
<!-- Node28 -->
<g id="Node000028" class="node">
<title>Node28</title>
<g id="a_Node000028"><a xlink:href="flacpicture_8h.html" target="_top" xlink:title=" ">
<polygon fill="white" stroke="#666666" points="637,-184 560,-184 560,-165 637,-165 637,-184"/>
<text text-anchor="middle" x="598.5" y="-172" font-family="Helvetica,sans-Serif" font-size="10.00">flacpicture.h</text>
</a>
</g>
</g>
<!-- Node26&#45;&gt;Node28 -->
<g id="edge54_Node000026_Node000028" class="edge">
<title>Node26&#45;&gt;Node28</title>
<g id="a_edge54_Node000026_Node000028"><a xlink:title=" ">
<path fill="none" stroke="#63b8ff" d="M598.5,-219.75C598.5,-212.8 598.5,-202.85 598.5,-194.13"/>
<polygon fill="#63b8ff" stroke="#63b8ff" points="602,-194.09 598.5,-184.09 595,-194.09 602,-194.09"/>
</a>
</g>
</g>
<!-- Node27&#45;&gt;Node2 -->
<g id="edge50_Node000027_Node000002" class="edge">
<title>Node27&#45;&gt;Node2</title>
<g id="a_edge50_Node000027_Node000002"><a xlink:title=" ">
<path fill="none" stroke="#63b8ff" d="M339.54,-164.95C359.61,-152.01 399.52,-127.16 435.5,-110 497.71,-80.33 513.41,-70.79 580.5,-55 718.17,-22.61 885.22,-13.78 970.14,-11.39"/>
<polygon fill="#63b8ff" stroke="#63b8ff" points="970.43,-14.88 980.33,-11.12 970.24,-7.88 970.43,-14.88"/>
</a>
</g>
</g>
<!-- Node27&#45;&gt;Node13 -->
<g id="edge47_Node000027_Node000013" class="edge">
<title>Node27&#45;&gt;Node13</title>
<g id="a_edge47_Node000027_Node000013"><a xlink:title=" ">
<path fill="none" stroke="#63b8ff" d="M362.78,-171.24C436.06,-166.37 607.07,-153.43 760.83,-128.9"/>
<polygon fill="#63b8ff" stroke="#63b8ff" points="761.62,-132.32 770.94,-127.27 760.51,-125.41 761.62,-132.32"/>
</a>
</g>
</g>
<!-- Node27&#45;&gt;Node15 -->
<g id="edge48_Node000027_Node000015" class="edge">
<title>Node27&#45;&gt;Node15</title>
<g id="a_edge48_Node000027_Node000015"><a xlink:title=" ">
<path fill="none" stroke="#63b8ff" d="M290.27,-169.16C265.23,-164.07 233.63,-153.01 217.5,-129 204.81,-110.11 227.8,-91.2 248.47,-78.99"/>
<polygon fill="#63b8ff" stroke="#63b8ff" points="250.34,-81.96 257.38,-74.03 246.94,-75.84 250.34,-81.96"/>
</a>
</g>
</g>
<!-- Node27&#45;&gt;Node25 -->
<g id="edge49_Node000027_Node000025" class="edge">
<title>Node27&#45;&gt;Node25</title>
<g id="a_edge49_Node000027_Node000025"><a xlink:title=" ">
<path fill="none" stroke="#63b8ff" d="M318.08,-164.75C310.73,-157.11 299.87,-145.82 290.96,-136.56"/>
<polygon fill="#63b8ff" stroke="#63b8ff" points="293.22,-133.87 283.76,-129.09 288.18,-138.72 293.22,-133.87"/>
</a>
</g>
</g>
<!-- Node28&#45;&gt;Node2 -->
<g id="edge59_Node000028_Node000002" class="edge">
<title>Node28&#45;&gt;Node2</title>
<g id="a_edge59_Node000028_Node000002"><a xlink:title=" ">
<path fill="none" stroke="#63b8ff" d="M637.16,-171.18C696.97,-166.81 808.02,-155.31 836.5,-129 861.52,-105.88 832.33,-79.01 856.5,-55 886.31,-25.39 933.32,-14.79 970.2,-11.3"/>
<polygon fill="#63b8ff" stroke="#63b8ff" points="970.62,-14.78 980.31,-10.5 970.06,-7.8 970.62,-14.78"/>
</a>
</g>
</g>
<!-- Node28&#45;&gt;Node5 -->
<g id="edge57_Node000028_Node000005" class="edge">
<title>Node28&#45;&gt;Node5</title>
<g id="a_edge57_Node000028_Node000005"><a xlink:title=" ">
<path fill="none" stroke="#63b8ff" d="M601.12,-164.66C606.32,-147.09 618.07,-107.45 625.03,-83.95"/>
<polygon fill="#63b8ff" stroke="#63b8ff" points="628.45,-84.74 627.93,-74.16 621.74,-82.75 628.45,-84.74"/>
</a>
</g>
</g>
<!-- Node28&#45;&gt;Node13 -->
<g id="edge56_Node000028_Node000013" class="edge">
<title>Node28&#45;&gt;Node13</title>
<g id="a_edge56_Node000028_Node000013"><a xlink:title=" ">
<path fill="none" stroke="#63b8ff" d="M630.79,-164.98C666.2,-155.65 722.97,-140.68 760.75,-130.72"/>
<polygon fill="#63b8ff" stroke="#63b8ff" points="762.09,-133.98 770.87,-128.05 760.3,-127.22 762.09,-133.98"/>
</a>
</g>
</g>
<!-- Node28&#45;&gt;Node15 -->
<g id="edge55_Node000028_Node000015" class="edge">
<title>Node28&#45;&gt;Node15</title>
<g id="a_edge55_Node000028_Node000015"><a xlink:title=" ">
<path fill="none" stroke="#63b8ff" d="M567.37,-164.98C536.7,-156.44 488.62,-142.63 447.5,-129 397.86,-112.54 341.1,-91.06 306.8,-77.77"/>
<polygon fill="#63b8ff" stroke="#63b8ff" points="307.92,-74.45 297.33,-74.09 305.38,-80.98 307.92,-74.45"/>
</a>
</g>
</g>
<!-- Node29 -->
<g id="Node000029" class="node">
<title>Node29</title>
<g id="a_Node000029"><a xlink:href="tpicturetype_8h.html" target="_top" xlink:title=" ">
<polygon fill="white" stroke="#666666" points="542,-129 457,-129 457,-110 542,-110 542,-129"/>
<text text-anchor="middle" x="499.5" y="-117" font-family="Helvetica,sans-Serif" font-size="10.00">tpicturetype.h</text>
</a>
</g>
</g>
<!-- Node28&#45;&gt;Node29 -->
<g id="edge58_Node000028_Node000029" class="edge">
<title>Node28&#45;&gt;Node29</title>
<g id="a_edge58_Node000028_Node000029"><a xlink:title=" ">
<path fill="none" stroke="#63b8ff" d="M582.59,-164.98C566.95,-156.61 542.84,-143.7 524.62,-133.95"/>
<polygon fill="#63b8ff" stroke="#63b8ff" points="526.16,-130.8 515.7,-129.17 522.86,-136.98 526.16,-130.8"/>
</a>
</g>
</g>
<!-- Node30 -->
<g id="Node000030" class="node">
<title>Node30</title>
<g id="a_Node000030"><a xlink:href="flacmetadatablock_8h.html" target="_top" xlink:title=" ">
<polygon fill="white" stroke="#666666" points="752.5,-129 636.5,-129 636.5,-110 752.5,-110 752.5,-129"/>
<text text-anchor="middle" x="694.5" y="-117" font-family="Helvetica,sans-Serif" font-size="10.00">flacmetadatablock.h</text>
</a>
</g>
</g>
<!-- Node28&#45;&gt;Node30 -->
<g id="edge60_Node000028_Node000030" class="edge">
<title>Node28&#45;&gt;Node30</title>
<g id="a_edge60_Node000028_Node000030"><a xlink:title=" ">
<path fill="none" stroke="#63b8ff" d="M613.92,-164.98C628.95,-156.69 652.04,-143.94 669.66,-134.22"/>
<polygon fill="#63b8ff" stroke="#63b8ff" points="671.73,-137.07 678.8,-129.17 668.35,-130.94 671.73,-137.07"/>
</a>
</g>
</g>
<!-- Node30&#45;&gt;Node2 -->
<g id="edge62_Node000030_Node000002" class="edge">
<title>Node30&#45;&gt;Node2</title>
<g id="a_edge62_Node000030_Node000002"><a xlink:title=" ">
<path fill="none" stroke="#63b8ff" d="M695.07,-109.93C696.48,-96.03 701.41,-68.73 718.5,-55 756.27,-24.66 892.6,-14.99 970.28,-11.92"/>
<polygon fill="#63b8ff" stroke="#63b8ff" points="970.52,-15.41 980.38,-11.54 970.26,-8.41 970.52,-15.41"/>
</a>
</g>
</g>
<!-- Node30&#45;&gt;Node5 -->
<g id="edge61_Node000030_Node000005" class="edge">
<title>Node30&#45;&gt;Node5</title>
<g id="a_edge61_Node000030_Node000005"><a xlink:title=" ">
<path fill="none" stroke="#63b8ff" d="M684.22,-109.98C674.66,-102.07 660.22,-90.11 648.72,-80.58"/>
<polygon fill="#63b8ff" stroke="#63b8ff" points="650.9,-77.85 640.97,-74.17 646.44,-83.24 650.9,-77.85"/>
</a>
</g>
</g>
<!-- Node31&#45;&gt;Node2 -->
<g id="edge64_Node000031_Node000002" class="edge">
<title>Node31&#45;&gt;Node2</title>
<g id="a_edge64_Node000031_Node000002"><a xlink:title=" ">
<path fill="none" stroke="#63b8ff" d="M1394.14,-164.75C1392.68,-142.13 1385.35,-81.62 1348.5,-55 1306.81,-24.88 1161.54,-15.1 1080.76,-11.96"/>
<polygon fill="#63b8ff" stroke="#63b8ff" points="1080.88,-8.46 1070.76,-11.59 1080.63,-15.45 1080.88,-8.46"/>
</a>
</g>
</g>
<!-- Node32 -->
<g id="Node000032" class="node">
<title>Node32</title>
<g id="a_Node000032"><a xlink:href="audioproperties_8h.html" target="_top" xlink:title=" ">
<polygon fill="white" stroke="#666666" points="1350.5,-129 1248.5,-129 1248.5,-110 1350.5,-110 1350.5,-129"/>
<text text-anchor="middle" x="1299.5" y="-117" font-family="Helvetica,sans-Serif" font-size="10.00">audioproperties.h</text>
</a>
</g>
</g>
<!-- Node31&#45;&gt;Node32 -->
<g id="edge65_Node000031_Node000032" class="edge">
<title>Node31&#45;&gt;Node32</title>
<g id="a_edge65_Node000031_Node000032"><a xlink:title=" ">
<path fill="none" stroke="#63b8ff" d="M1379.24,-164.98C1364.37,-156.69 1341.52,-143.94 1324.08,-134.22"/>
<polygon fill="#63b8ff" stroke="#63b8ff" points="1325.48,-130.99 1315.04,-129.17 1322.07,-137.1 1325.48,-130.99"/>
</a>
</g>
</g>
<!-- Node32&#45;&gt;Node2 -->
<g id="edge68_Node000032_Node000002" class="edge">
<title>Node32&#45;&gt;Node2</title>
<g id="a_edge68_Node000032_Node000002"><a xlink:title=" ">
<path fill="none" stroke="#63b8ff" d="M1293.38,-109.96C1282.96,-96.1 1260.37,-68.86 1234.5,-55 1186.51,-29.3 1124.87,-18.44 1080.99,-13.85"/>
<polygon fill="#63b8ff" stroke="#63b8ff" points="1081.09,-10.35 1070.8,-12.87 1080.42,-17.31 1081.09,-10.35"/>
</a>
</g>
</g>
<!-- Node32&#45;&gt;Node6 -->
<g id="edge66_Node000032_Node000006" class="edge">
<title>Node32&#45;&gt;Node6</title>
<g id="a_edge66_Node000032_Node000006"><a xlink:title=" ">
<path fill="none" stroke="#63b8ff" d="M1256.2,-110C1187.42,-96.73 1048.87,-70.98 930.5,-55 890.03,-49.54 619.63,-23.89 516.95,-14.21"/>
<polygon fill="#63b8ff" stroke="#63b8ff" points="516.98,-10.7 506.7,-13.24 516.32,-17.67 516.98,-10.7"/>
</a>
</g>
</g>
<!-- Node32&#45;&gt;Node10 -->
<g id="edge67_Node000032_Node000010" class="edge">
<title>Node32&#45;&gt;Node10</title>
<g id="a_edge67_Node000032_Node000010"><a xlink:title=" ">
<path fill="none" stroke="#63b8ff" d="M1301.81,-109.75C1303.67,-102.72 1306.34,-92.62 1308.65,-83.84"/>
<polygon fill="#63b8ff" stroke="#63b8ff" points="1312.06,-84.65 1311.23,-74.09 1305.29,-82.86 1312.06,-84.65"/>
</a>
</g>
</g>
</g>
</svg>
