<?xml version="1.0" encoding="UTF-8" standalone="no"?>
<!DOCTYPE svg PUBLIC "-//W3C//DTD SVG 1.1//EN"
 "http://www.w3.org/Graphics/SVG/1.1/DTD/svg11.dtd">
<!-- Generated by graphviz version 2.43.0 (0)
 -->
<!-- Title: vorbisfile.h Pages: 1 -->
<svg width="1298pt" height="420pt"
 viewBox="0.00 0.00 1297.50 420.00" xmlns="http://www.w3.org/2000/svg" xmlns:xlink="http://www.w3.org/1999/xlink">
<g id="graph0" class="graph" transform="scale(1 1) rotate(0) translate(4 416)">
<title>vorbisfile.h</title>
<polygon fill="white" stroke="transparent" points="-4,4 -4,-416 1293.5,-416 1293.5,4 -4,4"/>
<!-- Node1 -->
<g id="node1" class="node">
<title>Node1</title>
<g id="a_node1"><a xlink:title=" ">
<polygon fill="#bfbfbf" stroke="black" points="130.5,-392.5 130.5,-411.5 201.5,-411.5 201.5,-392.5 130.5,-392.5"/>
<text text-anchor="middle" x="166" y="-399.5" font-family="Helvetica,sans-Serif" font-size="10.00">vorbisfile.h</text>
</a>
</g>
</g>
<!-- Node2 -->
<g id="node2" class="node">
<title>Node2</title>
<g id="a_node2"><a xlink:href="taglib__export_8h.html" target="_top" xlink:title=" ">
<polygon fill="white" stroke="black" points="286,-56.5 286,-75.5 376,-75.5 376,-56.5 286,-56.5"/>
<text text-anchor="middle" x="331" y="-63.5" font-family="Helvetica,sans-Serif" font-size="10.00">taglib_export.h</text>
</a>
</g>
</g>
<!-- Node1&#45;&gt;Node2 -->
<g id="edge1" class="edge">
<title>Node1&#45;&gt;Node2</title>
<path fill="none" stroke="midnightblue" d="M130.39,-394.03C81.61,-382.17 0,-353.06 0,-291 0,-291 0,-291 0,-177 0,-140.82 18,-130.65 49,-112 86.25,-89.59 204.81,-76.77 275.79,-70.91"/>
<polygon fill="midnightblue" stroke="midnightblue" points="276.22,-74.39 285.9,-70.1 275.65,-67.41 276.22,-74.39"/>
</g>
<!-- Node3 -->
<g id="node3" class="node">
<title>Node3</title>
<g id="a_node3"><a xlink:href="oggfile_8h.html" target="_top" xlink:title=" ">
<polygon fill="white" stroke="black" points="288.5,-336.5 288.5,-355.5 347.5,-355.5 347.5,-336.5 288.5,-336.5"/>
<text text-anchor="middle" x="318" y="-343.5" font-family="Helvetica,sans-Serif" font-size="10.00">oggfile.h</text>
</a>
</g>
</g>
<!-- Node1&#45;&gt;Node3 -->
<g id="edge2" class="edge">
<title>Node1&#45;&gt;Node3</title>
<path fill="none" stroke="midnightblue" d="M190.08,-392.44C215.54,-383.4 255.89,-369.06 284.46,-358.92"/>
<polygon fill="midnightblue" stroke="midnightblue" points="285.78,-362.16 294.03,-355.52 283.43,-355.57 285.78,-362.16"/>
</g>
<!-- Node18 -->
<g id="node18" class="node">
<title>Node18</title>
<g id="a_node18"><a xlink:href="xiphcomment_8h.html" target="_top" xlink:title=" ">
<polygon fill="white" stroke="black" points="747.5,-280.5 747.5,-299.5 840.5,-299.5 840.5,-280.5 747.5,-280.5"/>
<text text-anchor="middle" x="794" y="-287.5" font-family="Helvetica,sans-Serif" font-size="10.00">xiphcomment.h</text>
</a>
</g>
</g>
<!-- Node1&#45;&gt;Node18 -->
<g id="edge33" class="edge">
<title>Node1&#45;&gt;Node18</title>
<path fill="none" stroke="midnightblue" d="M201.56,-394.77C305.65,-376.54 610.29,-323.18 737.34,-300.92"/>
<polygon fill="midnightblue" stroke="midnightblue" points="738.02,-304.36 747.26,-299.19 736.81,-297.46 738.02,-304.36"/>
</g>
<!-- Node25 -->
<g id="node25" class="node">
<title>Node25</title>
<g id="a_node25"><a xlink:href="vorbisproperties_8h.html" target="_top" xlink:title=" ">
<polygon fill="white" stroke="black" points="62.5,-168.5 62.5,-187.5 167.5,-187.5 167.5,-168.5 62.5,-168.5"/>
<text text-anchor="middle" x="115" y="-175.5" font-family="Helvetica,sans-Serif" font-size="10.00">vorbisproperties.h</text>
</a>
</g>
</g>
<!-- Node1&#45;&gt;Node25 -->
<g id="edge58" class="edge">
<title>Node1&#45;&gt;Node25</title>
<path fill="none" stroke="midnightblue" d="M164,-392.3C156.48,-359.56 129.79,-243.38 119.29,-197.67"/>
<polygon fill="midnightblue" stroke="midnightblue" points="122.69,-196.85 117.04,-187.88 115.87,-198.41 122.69,-196.85"/>
</g>
<!-- Node3&#45;&gt;Node2 -->
<g id="edge3" class="edge">
<title>Node3&#45;&gt;Node2</title>
<path fill="none" stroke="midnightblue" d="M295.05,-336.48C259.71,-321.71 196,-287.76 196,-235 196,-235 196,-235 196,-177 196,-126.31 253.91,-94.83 293.88,-79.14"/>
<polygon fill="midnightblue" stroke="midnightblue" points="295.22,-82.38 303.35,-75.58 292.76,-75.82 295.22,-82.38"/>
</g>
<!-- Node4 -->
<g id="node4" class="node">
<title>Node4</title>
<g id="a_node4"><a xlink:href="tfile_8h.html" target="_top" xlink:title=" ">
<polygon fill="white" stroke="black" points="405,-280.5 405,-299.5 449,-299.5 449,-280.5 405,-280.5"/>
<text text-anchor="middle" x="427" y="-287.5" font-family="Helvetica,sans-Serif" font-size="10.00">tfile.h</text>
</a>
</g>
</g>
<!-- Node3&#45;&gt;Node4 -->
<g id="edge4" class="edge">
<title>Node3&#45;&gt;Node4</title>
<path fill="none" stroke="midnightblue" d="M335.51,-336.32C353.07,-327.62 380.33,-314.12 400.53,-304.11"/>
<polygon fill="midnightblue" stroke="midnightblue" points="402.12,-307.23 409.53,-299.65 399.02,-300.96 402.12,-307.23"/>
</g>
<!-- Node14 -->
<g id="node14" class="node">
<title>Node14</title>
<g id="a_node14"><a xlink:href="tbytevectorlist_8h.html" target="_top" xlink:title=" ">
<polygon fill="white" stroke="black" points="620.5,-168.5 620.5,-187.5 717.5,-187.5 717.5,-168.5 620.5,-168.5"/>
<text text-anchor="middle" x="669" y="-175.5" font-family="Helvetica,sans-Serif" font-size="10.00">tbytevectorlist.h</text>
</a>
</g>
</g>
<!-- Node3&#45;&gt;Node14 -->
<g id="edge26" class="edge">
<title>Node3&#45;&gt;Node14</title>
<path fill="none" stroke="midnightblue" d="M347.56,-338.59C376.71,-331.58 422,-318.76 458,-300 507.5,-274.2 509.49,-251.62 558,-224 581.82,-210.44 610.54,-198.91 632.8,-190.92"/>
<polygon fill="midnightblue" stroke="midnightblue" points="634.25,-194.12 642.53,-187.5 631.93,-187.52 634.25,-194.12"/>
</g>
<!-- Node4&#45;&gt;Node2 -->
<g id="edge5" class="edge">
<title>Node4&#45;&gt;Node2</title>
<path fill="none" stroke="midnightblue" d="M404.95,-281.49C370.86,-268.54 306.53,-238.42 280,-188 273.13,-174.95 273.15,-137 285,-112 290.63,-100.13 300.79,-89.67 310.13,-81.83"/>
<polygon fill="midnightblue" stroke="midnightblue" points="312.3,-84.58 317.99,-75.65 307.97,-79.08 312.3,-84.58"/>
</g>
<!-- Node5 -->
<g id="node5" class="node">
<title>Node5</title>
<g id="a_node5"><a xlink:href="taglib_8h.html" target="_top" xlink:title=" ">
<polygon fill="white" stroke="black" points="852.5,-56.5 852.5,-75.5 905.5,-75.5 905.5,-56.5 852.5,-56.5"/>
<text text-anchor="middle" x="879" y="-63.5" font-family="Helvetica,sans-Serif" font-size="10.00">taglib.h</text>
</a>
</g>
</g>
<!-- Node4&#45;&gt;Node5 -->
<g id="edge6" class="edge">
<title>Node4&#45;&gt;Node5</title>
<path fill="none" stroke="midnightblue" d="M432.22,-280.42C450.68,-250.94 516.22,-153.39 599,-112 679.05,-71.98 786.6,-66.1 842.23,-66.06"/>
<polygon fill="midnightblue" stroke="midnightblue" points="842.3,-69.56 852.32,-66.12 842.34,-62.56 842.3,-69.56"/>
</g>
<!-- Node8 -->
<g id="node8" class="node">
<title>Node8</title>
<g id="a_node8"><a xlink:href="tag_8h.html" target="_top" xlink:title=" ">
<polygon fill="white" stroke="black" points="566.5,-224.5 566.5,-243.5 607.5,-243.5 607.5,-224.5 566.5,-224.5"/>
<text text-anchor="middle" x="587" y="-231.5" font-family="Helvetica,sans-Serif" font-size="10.00">tag.h</text>
</a>
</g>
</g>
<!-- Node4&#45;&gt;Node8 -->
<g id="edge9" class="edge">
<title>Node4&#45;&gt;Node8</title>
<path fill="none" stroke="midnightblue" d="M449.25,-281.49C477.3,-272.03 525.62,-255.71 556.94,-245.15"/>
<polygon fill="midnightblue" stroke="midnightblue" points="558.11,-248.45 566.46,-241.93 555.87,-241.81 558.11,-248.45"/>
</g>
<!-- Node10 -->
<g id="node10" class="node">
<title>Node10</title>
<g id="a_node10"><a xlink:href="tbytevector_8h.html" target="_top" xlink:title=" ">
<polygon fill="white" stroke="black" points="607.5,-112.5 607.5,-131.5 688.5,-131.5 688.5,-112.5 607.5,-112.5"/>
<text text-anchor="middle" x="648" y="-119.5" font-family="Helvetica,sans-Serif" font-size="10.00">tbytevector.h</text>
</a>
</g>
</g>
<!-- Node4&#45;&gt;Node10 -->
<g id="edge21" class="edge">
<title>Node4&#45;&gt;Node10</title>
<path fill="none" stroke="midnightblue" d="M438.57,-280.31C474.37,-253.42 583.63,-171.35 628.47,-137.67"/>
<polygon fill="midnightblue" stroke="midnightblue" points="630.65,-140.41 636.54,-131.61 626.45,-134.81 630.65,-140.41"/>
</g>
<!-- Node13 -->
<g id="node13" class="node">
<title>Node13</title>
<g id="a_node13"><a xlink:href="tiostream_8h.html" target="_top" xlink:title=" ">
<polygon fill="white" stroke="black" points="338.5,-168.5 338.5,-187.5 411.5,-187.5 411.5,-168.5 338.5,-168.5"/>
<text text-anchor="middle" x="375" y="-175.5" font-family="Helvetica,sans-Serif" font-size="10.00">tiostream.h</text>
</a>
</g>
</g>
<!-- Node4&#45;&gt;Node13 -->
<g id="edge22" class="edge">
<title>Node4&#45;&gt;Node13</title>
<path fill="none" stroke="midnightblue" d="M422.92,-280.37C414.45,-262.46 394.82,-220.92 383.48,-196.95"/>
<polygon fill="midnightblue" stroke="midnightblue" points="386.5,-195.14 379.06,-187.59 380.17,-198.13 386.5,-195.14"/>
</g>
<!-- Node6 -->
<g id="node6" class="node">
<title>Node6</title>
<g id="a_node6"><a xlink:title=" ">
<polygon fill="white" stroke="#bfbfbf" points="835,-0.5 835,-19.5 923,-19.5 923,-0.5 835,-0.5"/>
<text text-anchor="middle" x="879" y="-7.5" font-family="Helvetica,sans-Serif" font-size="10.00">taglib_config.h</text>
</a>
</g>
</g>
<!-- Node5&#45;&gt;Node6 -->
<g id="edge7" class="edge">
<title>Node5&#45;&gt;Node6</title>
<path fill="none" stroke="midnightblue" d="M879,-56.08C879,-49.01 879,-38.86 879,-29.99"/>
<polygon fill="midnightblue" stroke="midnightblue" points="882.5,-29.75 879,-19.75 875.5,-29.75 882.5,-29.75"/>
</g>
<!-- Node7 -->
<g id="node7" class="node">
<title>Node7</title>
<g id="a_node7"><a xlink:title=" ">
<polygon fill="white" stroke="#bfbfbf" points="1035,-0.5 1035,-19.5 1079,-19.5 1079,-0.5 1035,-0.5"/>
<text text-anchor="middle" x="1057" y="-7.5" font-family="Helvetica,sans-Serif" font-size="10.00">string</text>
</a>
</g>
</g>
<!-- Node5&#45;&gt;Node7 -->
<g id="edge8" class="edge">
<title>Node5&#45;&gt;Node7</title>
<path fill="none" stroke="midnightblue" d="M905.65,-56.92C937.55,-47.24 990.94,-31.04 1025.04,-20.7"/>
<polygon fill="midnightblue" stroke="midnightblue" points="1026.4,-23.94 1034.95,-17.69 1024.37,-17.24 1026.4,-23.94"/>
</g>
<!-- Node8&#45;&gt;Node2 -->
<g id="edge10" class="edge">
<title>Node8&#45;&gt;Node2</title>
<path fill="none" stroke="midnightblue" d="M566.44,-233.11C506.03,-232.97 331.1,-228.95 296,-188 274.02,-162.36 285.04,-143.95 296,-112 299.72,-101.16 307.23,-90.92 314.35,-82.96"/>
<polygon fill="midnightblue" stroke="midnightblue" points="317.05,-85.19 321.44,-75.55 312,-80.35 317.05,-85.19"/>
</g>
<!-- Node9 -->
<g id="node9" class="node">
<title>Node9</title>
<g id="a_node9"><a xlink:href="tstring_8h.html" target="_top" xlink:title=" ">
<polygon fill="white" stroke="black" points="908.5,-168.5 908.5,-187.5 965.5,-187.5 965.5,-168.5 908.5,-168.5"/>
<text text-anchor="middle" x="937" y="-175.5" font-family="Helvetica,sans-Serif" font-size="10.00">tstring.h</text>
</a>
</g>
</g>
<!-- Node8&#45;&gt;Node9 -->
<g id="edge11" class="edge">
<title>Node8&#45;&gt;Node9</title>
<path fill="none" stroke="midnightblue" d="M607.59,-229.82C664.36,-221.06 823.84,-196.46 898.08,-185"/>
<polygon fill="midnightblue" stroke="midnightblue" points="899.04,-188.4 908.39,-183.41 897.98,-181.48 899.04,-188.4"/>
</g>
<!-- Node9&#45;&gt;Node2 -->
<g id="edge12" class="edge">
<title>Node9&#45;&gt;Node2</title>
<path fill="none" stroke="midnightblue" d="M914.71,-168.44C877.18,-154.39 798.73,-126.53 730,-112 608.76,-86.38 463.5,-74.64 386.04,-69.86"/>
<polygon fill="midnightblue" stroke="midnightblue" points="386.22,-66.36 376.03,-69.26 385.8,-73.35 386.22,-66.36"/>
</g>
<!-- Node9&#45;&gt;Node5 -->
<g id="edge13" class="edge">
<title>Node9&#45;&gt;Node5</title>
<path fill="none" stroke="midnightblue" d="M932.45,-168.37C922.96,-150.38 900.91,-108.55 888.29,-84.63"/>
<polygon fill="midnightblue" stroke="midnightblue" points="891.29,-82.8 883.53,-75.59 885.1,-86.07 891.29,-82.8"/>
</g>
<!-- Node9&#45;&gt;Node7 -->
<g id="edge19" class="edge">
<title>Node9&#45;&gt;Node7</title>
<path fill="none" stroke="midnightblue" d="M965.84,-170.86C1008.07,-160.07 1084.86,-133.22 1114,-76 1124.28,-55.82 1102.64,-36.85 1083.13,-24.67"/>
<polygon fill="midnightblue" stroke="midnightblue" points="1084.84,-21.61 1074.45,-19.57 1081.3,-27.65 1084.84,-21.61"/>
</g>
<!-- Node9&#45;&gt;Node10 -->
<g id="edge14" class="edge">
<title>Node9&#45;&gt;Node10</title>
<path fill="none" stroke="midnightblue" d="M908.5,-171.67C859.77,-162.57 759.81,-143.89 698.87,-132.5"/>
<polygon fill="midnightblue" stroke="midnightblue" points="699.17,-129 688.7,-130.61 697.89,-135.88 699.17,-129"/>
</g>
<!-- Node12 -->
<g id="node12" class="node">
<title>Node12</title>
<g id="a_node12"><a xlink:title=" ">
<polygon fill="white" stroke="#bfbfbf" points="1045,-56.5 1045,-75.5 1105,-75.5 1105,-56.5 1045,-56.5"/>
<text text-anchor="middle" x="1075" y="-63.5" font-family="Helvetica,sans-Serif" font-size="10.00">iostream</text>
</a>
</g>
</g>
<!-- Node9&#45;&gt;Node12 -->
<g id="edge20" class="edge">
<title>Node9&#45;&gt;Node12</title>
<path fill="none" stroke="midnightblue" d="M954.47,-168.42C970.46,-160.17 994.4,-146.79 1013,-132 1031.4,-117.37 1049.62,-97.44 1061.5,-83.52"/>
<polygon fill="midnightblue" stroke="midnightblue" points="1064.29,-85.64 1068.02,-75.73 1058.92,-81.15 1064.29,-85.64"/>
</g>
<!-- Node10&#45;&gt;Node2 -->
<g id="edge16" class="edge">
<title>Node10&#45;&gt;Node2</title>
<path fill="none" stroke="midnightblue" d="M607.21,-114.05C550.97,-104.47 449.46,-87.18 386.4,-76.44"/>
<polygon fill="midnightblue" stroke="midnightblue" points="386.69,-72.94 376.24,-74.71 385.51,-79.84 386.69,-72.94"/>
</g>
<!-- Node10&#45;&gt;Node5 -->
<g id="edge15" class="edge">
<title>Node10&#45;&gt;Node5</title>
<path fill="none" stroke="midnightblue" d="M684.6,-112.44C727.83,-102.34 799.29,-85.63 842.48,-75.54"/>
<polygon fill="midnightblue" stroke="midnightblue" points="843.35,-78.93 852.29,-73.24 841.76,-72.11 843.35,-78.93"/>
</g>
<!-- Node11 -->
<g id="node11" class="node">
<title>Node11</title>
<g id="a_node11"><a xlink:title=" ">
<polygon fill="white" stroke="#bfbfbf" points="624.5,-56.5 624.5,-75.5 671.5,-75.5 671.5,-56.5 624.5,-56.5"/>
<text text-anchor="middle" x="648" y="-63.5" font-family="Helvetica,sans-Serif" font-size="10.00">vector</text>
</a>
</g>
</g>
<!-- Node10&#45;&gt;Node11 -->
<g id="edge17" class="edge">
<title>Node10&#45;&gt;Node11</title>
<path fill="none" stroke="midnightblue" d="M648,-112.08C648,-105.01 648,-94.86 648,-85.99"/>
<polygon fill="midnightblue" stroke="midnightblue" points="651.5,-85.75 648,-75.75 644.5,-85.75 651.5,-85.75"/>
</g>
<!-- Node10&#45;&gt;Node12 -->
<g id="edge18" class="edge">
<title>Node10&#45;&gt;Node12</title>
<path fill="none" stroke="midnightblue" d="M688.71,-117.78C757.88,-111.99 902.9,-98.42 1034.95,-76.01"/>
<polygon fill="midnightblue" stroke="midnightblue" points="1035.57,-79.45 1044.83,-74.31 1034.39,-72.56 1035.57,-79.45"/>
</g>
<!-- Node13&#45;&gt;Node2 -->
<g id="edge23" class="edge">
<title>Node13&#45;&gt;Node2</title>
<path fill="none" stroke="midnightblue" d="M371.55,-168.37C364.38,-150.46 347.77,-108.92 338.18,-84.95"/>
<polygon fill="midnightblue" stroke="midnightblue" points="341.4,-83.58 334.44,-75.59 334.9,-86.18 341.4,-83.58"/>
</g>
<!-- Node13&#45;&gt;Node5 -->
<g id="edge24" class="edge">
<title>Node13&#45;&gt;Node5</title>
<path fill="none" stroke="midnightblue" d="M383.4,-168.43C398.18,-153.95 430.46,-124.99 464,-112 532.68,-85.41 753.87,-72.68 842.13,-68.56"/>
<polygon fill="midnightblue" stroke="midnightblue" points="842.39,-72.05 852.22,-68.1 842.07,-65.06 842.39,-72.05"/>
</g>
<!-- Node13&#45;&gt;Node10 -->
<g id="edge25" class="edge">
<title>Node13&#45;&gt;Node10</title>
<path fill="none" stroke="midnightblue" d="M411.53,-169.77C459.31,-160.32 543.25,-143.72 597.19,-133.05"/>
<polygon fill="midnightblue" stroke="midnightblue" points="598.1,-136.44 607.23,-131.06 596.74,-129.57 598.1,-136.44"/>
</g>
<!-- Node14&#45;&gt;Node2 -->
<g id="edge27" class="edge">
<title>Node14&#45;&gt;Node2</title>
<path fill="none" stroke="midnightblue" d="M642.76,-168.46C582.86,-148.97 435.96,-101.16 367.38,-78.84"/>
<polygon fill="midnightblue" stroke="midnightblue" points="368.05,-75.38 357.46,-75.61 365.88,-82.03 368.05,-75.38"/>
</g>
<!-- Node14&#45;&gt;Node10 -->
<g id="edge28" class="edge">
<title>Node14&#45;&gt;Node10</title>
<path fill="none" stroke="midnightblue" d="M665.53,-168.08C662.69,-160.77 658.57,-150.18 655.04,-141.1"/>
<polygon fill="midnightblue" stroke="midnightblue" points="658.29,-139.8 651.4,-131.75 651.77,-142.34 658.29,-139.8"/>
</g>
<!-- Node15 -->
<g id="node15" class="node">
<title>Node15</title>
<g id="a_node15"><a xlink:href="tlist_8h.html" target="_top" xlink:title=" ">
<polygon fill="white" stroke="black" points="960,-112.5 960,-131.5 1004,-131.5 1004,-112.5 960,-112.5"/>
<text text-anchor="middle" x="982" y="-119.5" font-family="Helvetica,sans-Serif" font-size="10.00">tlist.h</text>
</a>
</g>
</g>
<!-- Node14&#45;&gt;Node15 -->
<g id="edge29" class="edge">
<title>Node14&#45;&gt;Node15</title>
<path fill="none" stroke="midnightblue" d="M717.56,-168.62C782.25,-157.46 894.91,-138.03 949.92,-128.53"/>
<polygon fill="midnightblue" stroke="midnightblue" points="950.55,-131.98 959.81,-126.83 949.36,-125.08 950.55,-131.98"/>
</g>
<!-- Node15&#45;&gt;Node5 -->
<g id="edge30" class="edge">
<title>Node15&#45;&gt;Node5</title>
<path fill="none" stroke="midnightblue" d="M965.45,-112.32C949.01,-103.7 923.57,-90.36 904.53,-80.39"/>
<polygon fill="midnightblue" stroke="midnightblue" points="905.99,-77.2 895.51,-75.65 902.74,-83.4 905.99,-77.2"/>
</g>
<!-- Node16 -->
<g id="node16" class="node">
<title>Node16</title>
<g id="a_node16"><a xlink:title=" ">
<polygon fill="white" stroke="#bfbfbf" points="995,-56.5 995,-75.5 1027,-75.5 1027,-56.5 995,-56.5"/>
<text text-anchor="middle" x="1011" y="-63.5" font-family="Helvetica,sans-Serif" font-size="10.00">list</text>
</a>
</g>
</g>
<!-- Node15&#45;&gt;Node16 -->
<g id="edge31" class="edge">
<title>Node15&#45;&gt;Node16</title>
<path fill="none" stroke="midnightblue" d="M986.79,-112.08C990.76,-104.69 996.53,-93.95 1001.43,-84.81"/>
<polygon fill="midnightblue" stroke="midnightblue" points="1004.65,-86.22 1006.3,-75.75 998.49,-82.91 1004.65,-86.22"/>
</g>
<!-- Node17 -->
<g id="node17" class="node">
<title>Node17</title>
<g id="a_node17"><a xlink:title=" ">
<polygon fill="white" stroke="#bfbfbf" points="923.5,-56.5 923.5,-75.5 976.5,-75.5 976.5,-56.5 923.5,-56.5"/>
<text text-anchor="middle" x="950" y="-63.5" font-family="Helvetica,sans-Serif" font-size="10.00">tlist.tcc</text>
</a>
</g>
</g>
<!-- Node15&#45;&gt;Node17 -->
<g id="edge32" class="edge">
<title>Node15&#45;&gt;Node17</title>
<path fill="none" stroke="midnightblue" d="M976.72,-112.08C972.29,-104.61 965.84,-93.72 960.38,-84.52"/>
<polygon fill="midnightblue" stroke="midnightblue" points="963.29,-82.57 955.19,-75.75 957.27,-86.14 963.29,-82.57"/>
</g>
<!-- Node18&#45;&gt;Node2 -->
<g id="edge57" class="edge">
<title>Node18&#45;&gt;Node2</title>
<path fill="none" stroke="midnightblue" d="M763.07,-280.45C734.77,-272.26 691.94,-258.97 656,-244 638.02,-236.51 635.61,-229.74 617,-224 555.58,-205.05 372.53,-236.2 330,-188 304.96,-159.62 315.66,-111.25 324.2,-85.09"/>
<polygon fill="midnightblue" stroke="midnightblue" points="327.5,-86.24 327.5,-75.65 320.89,-83.93 327.5,-86.24"/>
</g>
<!-- Node18&#45;&gt;Node8 -->
<g id="edge34" class="edge">
<title>Node18&#45;&gt;Node8</title>
<path fill="none" stroke="midnightblue" d="M761.2,-280.44C721.81,-270.17 656.25,-253.07 617.78,-243.03"/>
<polygon fill="midnightblue" stroke="midnightblue" points="618.26,-239.54 607.7,-240.4 616.49,-246.31 618.26,-239.54"/>
</g>
<!-- Node18&#45;&gt;Node9 -->
<g id="edge40" class="edge">
<title>Node18&#45;&gt;Node9</title>
<path fill="none" stroke="midnightblue" d="M805.22,-280.37C829.55,-261.65 887.4,-217.15 917.72,-193.83"/>
<polygon fill="midnightblue" stroke="midnightblue" points="920.04,-196.46 925.83,-187.59 915.77,-190.91 920.04,-196.46"/>
</g>
<!-- Node18&#45;&gt;Node10 -->
<g id="edge47" class="edge">
<title>Node18&#45;&gt;Node10</title>
<path fill="none" stroke="midnightblue" d="M775.12,-280.38C728.86,-259.06 612.9,-204.43 603,-188 592.26,-170.18 610.02,-150.67 626.29,-137.73"/>
<polygon fill="midnightblue" stroke="midnightblue" points="628.58,-140.38 634.5,-131.6 624.39,-134.77 628.58,-140.38"/>
</g>
<!-- Node18&#45;&gt;Node15 -->
<g id="edge35" class="edge">
<title>Node18&#45;&gt;Node15</title>
<path fill="none" stroke="midnightblue" d="M840.53,-286.58C900.43,-282.38 999.49,-271.39 1022,-244 1043.45,-217.91 1034,-199.57 1022,-168 1017.66,-156.6 1008.97,-146.24 1000.79,-138.34"/>
<polygon fill="midnightblue" stroke="midnightblue" points="1003.04,-135.66 993.27,-131.57 998.36,-140.86 1003.04,-135.66"/>
</g>
<!-- Node19 -->
<g id="node19" class="node">
<title>Node19</title>
<g id="a_node19"><a xlink:href="tmap_8h.html" target="_top" xlink:title=" ">
<polygon fill="white" stroke="black" points="1143.5,-224.5 1143.5,-243.5 1194.5,-243.5 1194.5,-224.5 1143.5,-224.5"/>
<text text-anchor="middle" x="1169" y="-231.5" font-family="Helvetica,sans-Serif" font-size="10.00">tmap.h</text>
</a>
</g>
</g>
<!-- Node18&#45;&gt;Node19 -->
<g id="edge36" class="edge">
<title>Node18&#45;&gt;Node19</title>
<path fill="none" stroke="midnightblue" d="M840.74,-282.27C916.59,-271.35 1064.87,-249.99 1133.09,-240.17"/>
<polygon fill="midnightblue" stroke="midnightblue" points="1133.93,-243.59 1143.33,-238.7 1132.93,-236.66 1133.93,-243.59"/>
</g>
<!-- Node22 -->
<g id="node22" class="node">
<title>Node22</title>
<g id="a_node22"><a xlink:href="tstringlist_8h.html" target="_top" xlink:title=" ">
<polygon fill="white" stroke="black" points="941,-224.5 941,-243.5 1013,-243.5 1013,-224.5 941,-224.5"/>
<text text-anchor="middle" x="977" y="-231.5" font-family="Helvetica,sans-Serif" font-size="10.00">tstringlist.h</text>
</a>
</g>
</g>
<!-- Node18&#45;&gt;Node22 -->
<g id="edge41" class="edge">
<title>Node18&#45;&gt;Node22</title>
<path fill="none" stroke="midnightblue" d="M823,-280.44C854.18,-271.24 903.93,-256.56 938.41,-246.39"/>
<polygon fill="midnightblue" stroke="midnightblue" points="939.54,-249.7 948.14,-243.52 937.56,-242.99 939.54,-249.7"/>
</g>
<!-- Node23 -->
<g id="node23" class="node">
<title>Node23</title>
<g id="a_node23"><a xlink:href="flacpicture_8h.html" target="_top" xlink:title=" ">
<polygon fill="white" stroke="black" points="755.5,-224.5 755.5,-243.5 832.5,-243.5 832.5,-224.5 755.5,-224.5"/>
<text text-anchor="middle" x="794" y="-231.5" font-family="Helvetica,sans-Serif" font-size="10.00">flacpicture.h</text>
</a>
</g>
</g>
<!-- Node18&#45;&gt;Node23 -->
<g id="edge48" class="edge">
<title>Node18&#45;&gt;Node23</title>
<path fill="none" stroke="midnightblue" d="M794,-280.08C794,-273.01 794,-262.86 794,-253.99"/>
<polygon fill="midnightblue" stroke="midnightblue" points="797.5,-253.75 794,-243.75 790.5,-253.75 797.5,-253.75"/>
</g>
<!-- Node19&#45;&gt;Node5 -->
<g id="edge38" class="edge">
<title>Node19&#45;&gt;Node5</title>
<path fill="none" stroke="midnightblue" d="M1160.27,-224.46C1137.71,-202.81 1074.94,-145.18 1013,-112 995.94,-102.86 949.06,-87.91 915.56,-77.77"/>
<polygon fill="midnightblue" stroke="midnightblue" points="916.23,-74.32 905.65,-74.79 914.21,-81.02 916.23,-74.32"/>
</g>
<!-- Node20 -->
<g id="node20" class="node">
<title>Node20</title>
<g id="a_node20"><a xlink:title=" ">
<polygon fill="white" stroke="#bfbfbf" points="1174,-168.5 1174,-187.5 1212,-187.5 1212,-168.5 1174,-168.5"/>
<text text-anchor="middle" x="1193" y="-175.5" font-family="Helvetica,sans-Serif" font-size="10.00">map</text>
</a>
</g>
</g>
<!-- Node19&#45;&gt;Node20 -->
<g id="edge37" class="edge">
<title>Node19&#45;&gt;Node20</title>
<path fill="none" stroke="midnightblue" d="M1172.96,-224.08C1176.21,-216.77 1180.92,-206.18 1184.95,-197.1"/>
<polygon fill="midnightblue" stroke="midnightblue" points="1188.25,-198.31 1189.11,-187.75 1181.85,-195.47 1188.25,-198.31"/>
</g>
<!-- Node21 -->
<g id="node21" class="node">
<title>Node21</title>
<g id="a_node21"><a xlink:title=" ">
<polygon fill="white" stroke="#bfbfbf" points="1230.5,-168.5 1230.5,-187.5 1289.5,-187.5 1289.5,-168.5 1230.5,-168.5"/>
<text text-anchor="middle" x="1260" y="-175.5" font-family="Helvetica,sans-Serif" font-size="10.00">tmap.tcc</text>
</a>
</g>
</g>
<!-- Node19&#45;&gt;Node21 -->
<g id="edge39" class="edge">
<title>Node19&#45;&gt;Node21</title>
<path fill="none" stroke="midnightblue" d="M1183.62,-224.32C1197.95,-215.82 1220.01,-202.73 1236.75,-192.8"/>
<polygon fill="midnightblue" stroke="midnightblue" points="1238.6,-195.77 1245.42,-187.65 1235.03,-189.75 1238.6,-195.77"/>
</g>
<!-- Node22&#45;&gt;Node2 -->
<g id="edge45" class="edge">
<title>Node22&#45;&gt;Node2</title>
<path fill="none" stroke="midnightblue" d="M979.64,-224.36C983.2,-210.81 987.74,-184.41 975,-168 919.96,-97.12 869.12,-128.98 781,-112 640.38,-84.91 471.71,-73.58 386.34,-69.3"/>
<polygon fill="midnightblue" stroke="midnightblue" points="386.26,-65.79 376.1,-68.8 385.92,-72.79 386.26,-65.79"/>
</g>
<!-- Node22&#45;&gt;Node9 -->
<g id="edge42" class="edge">
<title>Node22&#45;&gt;Node9</title>
<path fill="none" stroke="midnightblue" d="M970.39,-224.08C964.74,-216.46 956.46,-205.26 949.55,-195.94"/>
<polygon fill="midnightblue" stroke="midnightblue" points="952.25,-193.7 943.48,-187.75 946.62,-197.87 952.25,-193.7"/>
</g>
<!-- Node22&#45;&gt;Node12 -->
<g id="edge46" class="edge">
<title>Node22&#45;&gt;Node12</title>
<path fill="none" stroke="midnightblue" d="M987.79,-224.28C997.7,-215.83 1012.28,-202.23 1022,-188 1044.76,-154.67 1061.27,-110 1069.37,-85.31"/>
<polygon fill="midnightblue" stroke="midnightblue" points="1072.71,-86.36 1072.41,-75.77 1066.04,-84.24 1072.71,-86.36"/>
</g>
<!-- Node22&#45;&gt;Node14 -->
<g id="edge44" class="edge">
<title>Node22&#45;&gt;Node14</title>
<path fill="none" stroke="midnightblue" d="M940.76,-226.65C888.27,-217.44 790.49,-200.3 727.64,-189.28"/>
<polygon fill="midnightblue" stroke="midnightblue" points="727.94,-185.78 717.49,-187.5 726.73,-192.68 727.94,-185.78"/>
</g>
<!-- Node22&#45;&gt;Node15 -->
<g id="edge43" class="edge">
<title>Node22&#45;&gt;Node15</title>
<path fill="none" stroke="midnightblue" d="M985.48,-224.23C993.05,-215.75 1003.6,-202.13 1008,-188 1013.17,-171.38 1004.42,-153.01 995.7,-140.05"/>
<polygon fill="midnightblue" stroke="midnightblue" points="998.29,-137.67 989.56,-131.67 992.65,-141.81 998.29,-137.67"/>
</g>
<!-- Node23&#45;&gt;Node2 -->
<g id="edge52" class="edge">
<title>Node23&#45;&gt;Node2</title>
<path fill="none" stroke="midnightblue" d="M755.48,-225.74C716.56,-217.99 654.94,-204.55 603,-188 539.93,-167.91 525.48,-158.9 465,-132 426.92,-115.06 383.66,-93.68 356.85,-80.17"/>
<polygon fill="midnightblue" stroke="midnightblue" points="358.26,-76.96 347.75,-75.57 355.1,-83.21 358.26,-76.96"/>
</g>
<!-- Node23&#45;&gt;Node9 -->
<g id="edge50" class="edge">
<title>Node23&#45;&gt;Node9</title>
<path fill="none" stroke="midnightblue" d="M816.66,-224.44C840.4,-215.48 877.91,-201.31 904.74,-191.18"/>
<polygon fill="midnightblue" stroke="midnightblue" points="906.33,-194.32 914.45,-187.52 903.86,-187.77 906.33,-194.32"/>
</g>
<!-- Node23&#45;&gt;Node10 -->
<g id="edge51" class="edge">
<title>Node23&#45;&gt;Node10</title>
<path fill="none" stroke="midnightblue" d="M755.32,-228.97C707.26,-223.07 629.46,-210.3 612,-188 599.79,-172.4 615.18,-152.13 629.45,-138.4"/>
<polygon fill="midnightblue" stroke="midnightblue" points="632,-140.82 637.09,-131.52 627.32,-135.62 632,-140.82"/>
</g>
<!-- Node23&#45;&gt;Node15 -->
<g id="edge49" class="edge">
<title>Node23&#45;&gt;Node15</title>
<path fill="none" stroke="midnightblue" d="M807.59,-224.37C827.64,-211.72 866.4,-187.51 900,-168 918.9,-157.03 940.59,-145.15 956.92,-136.36"/>
<polygon fill="midnightblue" stroke="midnightblue" points="958.69,-139.38 965.85,-131.57 955.38,-133.21 958.69,-139.38"/>
</g>
<!-- Node24 -->
<g id="node24" class="node">
<title>Node24</title>
<g id="a_node24"><a xlink:href="flacmetadatablock_8h.html" target="_top" xlink:title=" ">
<polygon fill="white" stroke="black" points="736,-168.5 736,-187.5 852,-187.5 852,-168.5 736,-168.5"/>
<text text-anchor="middle" x="794" y="-175.5" font-family="Helvetica,sans-Serif" font-size="10.00">flacmetadatablock.h</text>
</a>
</g>
</g>
<!-- Node23&#45;&gt;Node24 -->
<g id="edge53" class="edge">
<title>Node23&#45;&gt;Node24</title>
<path fill="none" stroke="midnightblue" d="M794,-224.08C794,-217.01 794,-206.86 794,-197.99"/>
<polygon fill="midnightblue" stroke="midnightblue" points="797.5,-197.75 794,-187.75 790.5,-197.75 797.5,-197.75"/>
</g>
<!-- Node24&#45;&gt;Node2 -->
<g id="edge56" class="edge">
<title>Node24&#45;&gt;Node2</title>
<path fill="none" stroke="midnightblue" d="M784.78,-168.49C768.6,-154.11 733.43,-125.28 698,-112 642.2,-91.09 474.33,-76.84 386.27,-70.59"/>
<polygon fill="midnightblue" stroke="midnightblue" points="386.42,-67.09 376.2,-69.88 385.93,-74.07 386.42,-67.09"/>
</g>
<!-- Node24&#45;&gt;Node10 -->
<g id="edge55" class="edge">
<title>Node24&#45;&gt;Node10</title>
<path fill="none" stroke="midnightblue" d="M770.87,-168.44C746.52,-159.44 707.99,-145.19 680.58,-135.05"/>
<polygon fill="midnightblue" stroke="midnightblue" points="681.62,-131.7 671.03,-131.52 679.19,-138.27 681.62,-131.7"/>
</g>
<!-- Node24&#45;&gt;Node15 -->
<g id="edge54" class="edge">
<title>Node24&#45;&gt;Node15</title>
<path fill="none" stroke="midnightblue" d="M823.79,-168.44C858.28,-158.54 914.86,-142.28 950.19,-132.14"/>
<polygon fill="midnightblue" stroke="midnightblue" points="951.34,-135.45 959.99,-129.32 949.41,-128.72 951.34,-135.45"/>
</g>
<!-- Node25&#45;&gt;Node2 -->
<g id="edge59" class="edge">
<title>Node25&#45;&gt;Node2</title>
<path fill="none" stroke="midnightblue" d="M97.66,-168.5C74.82,-156.19 39.48,-132.64 57,-112 84.47,-79.65 203.79,-70.51 275.6,-67.96"/>
<polygon fill="midnightblue" stroke="midnightblue" points="275.96,-71.45 285.84,-67.63 275.73,-64.45 275.96,-71.45"/>
</g>
<!-- Node26 -->
<g id="node26" class="node">
<title>Node26</title>
<g id="a_node26"><a xlink:href="audioproperties_8h.html" target="_top" xlink:title=" ">
<polygon fill="white" stroke="black" points="66,-112.5 66,-131.5 168,-131.5 168,-112.5 66,-112.5"/>
<text text-anchor="middle" x="117" y="-119.5" font-family="Helvetica,sans-Serif" font-size="10.00">audioproperties.h</text>
</a>
</g>
</g>
<!-- Node25&#45;&gt;Node26 -->
<g id="edge60" class="edge">
<title>Node25&#45;&gt;Node26</title>
<path fill="none" stroke="midnightblue" d="M115.33,-168.08C115.59,-161.01 115.97,-150.86 116.3,-141.99"/>
<polygon fill="midnightblue" stroke="midnightblue" points="119.8,-141.87 116.68,-131.75 112.81,-141.61 119.8,-141.87"/>
</g>
<!-- Node26&#45;&gt;Node2 -->
<g id="edge61" class="edge">
<title>Node26&#45;&gt;Node2</title>
<path fill="none" stroke="midnightblue" d="M150.91,-112.44C187.85,-103.12 247.05,-88.18 287.42,-78"/>
<polygon fill="midnightblue" stroke="midnightblue" points="288.41,-81.36 297.25,-75.52 286.7,-74.57 288.41,-81.36"/>
</g>
</g>
</svg>
