<?xml version="1.0" encoding="UTF-8" standalone="no"?>
<!DOCTYPE svg PUBLIC "-//W3C//DTD SVG 1.1//EN"
 "http://www.w3.org/Graphics/SVG/1.1/DTD/svg11.dtd">
<!-- Generated by graphviz version 2.42.4 (0)
 -->
<!-- Title: wavfile.h Pages: 1 -->
<svg width="1300pt" height="357pt"
 viewBox="0.00 0.00 1300.00 357.00" xmlns="http://www.w3.org/2000/svg" xmlns:xlink="http://www.w3.org/1999/xlink">
<g id="graph0" class="graph" transform="scale(1 1) rotate(0) translate(4 353)">
<title>wavfile.h</title>
<!-- Node1 -->
<g id="Node000001" class="node">
<title>Node1</title>
<g id="a_Node000001"><a xlink:title=" ">
<polygon fill="#999999" stroke="#666666" points="537.5,-349 476.5,-349 476.5,-330 537.5,-330 537.5,-349"/>
<text text-anchor="middle" x="507" y="-337" font-family="Helvetica,sans-Serif" font-size="10.00">wavfile.h</text>
</a>
</g>
</g>
<!-- Node2 -->
<g id="Node000002" class="node">
<title>Node2</title>
<g id="a_Node000002"><a xlink:href="rifffile_8h.html" target="_top" xlink:title=" ">
<polygon fill="white" stroke="#666666" points="401,-294 347,-294 347,-275 401,-275 401,-294"/>
<text text-anchor="middle" x="374" y="-282" font-family="Helvetica,sans-Serif" font-size="10.00">rifffile.h</text>
</a>
</g>
</g>
<!-- Node1&#45;&gt;Node2 -->
<g id="edge1_Node000001_Node000002" class="edge">
<title>Node1&#45;&gt;Node2</title>
<g id="a_edge1_Node000001_Node000002"><a xlink:title=" ">
<path fill="none" stroke="#63b8ff" d="M485.63,-329.98C463.85,-321.3 429.84,-307.75 405.08,-297.88"/>
<polygon fill="#63b8ff" stroke="#63b8ff" points="406.34,-294.62 395.76,-294.17 403.75,-301.12 406.34,-294.62"/>
</a>
</g>
</g>
<!-- Node25 -->
<g id="Node000025" class="node">
<title>Node25</title>
<g id="a_Node000025"><a xlink:href="id3v2tag_8h.html" target="_top" xlink:title=" ">
<polygon fill="white" stroke="#666666" points="707,-294 639,-294 639,-275 707,-275 707,-294"/>
<text text-anchor="middle" x="673" y="-282" font-family="Helvetica,sans-Serif" font-size="10.00">id3v2tag.h</text>
</a>
</g>
</g>
<!-- Node1&#45;&gt;Node25 -->
<g id="edge37_Node000001_Node000025" class="edge">
<title>Node1&#45;&gt;Node25</title>
<g id="a_edge37_Node000001_Node000025"><a xlink:title=" ">
<path fill="none" stroke="#63b8ff" d="M533.67,-329.98C561.54,-321.09 605.45,-307.07 636.52,-297.15"/>
<polygon fill="#63b8ff" stroke="#63b8ff" points="637.66,-300.46 646.12,-294.08 635.53,-293.79 637.66,-300.46"/>
</a>
</g>
</g>
<!-- Node30 -->
<g id="Node000030" class="node">
<title>Node30</title>
<g id="a_Node000030"><a xlink:href="infotag_8h.html" target="_top" xlink:title=" ">
<polygon fill="white" stroke="#666666" points="908,-239 848,-239 848,-220 908,-220 908,-239"/>
<text text-anchor="middle" x="878" y="-227" font-family="Helvetica,sans-Serif" font-size="10.00">infotag.h</text>
</a>
</g>
</g>
<!-- Node1&#45;&gt;Node30 -->
<g id="edge56_Node000001_Node000030" class="edge">
<title>Node1&#45;&gt;Node30</title>
<g id="a_edge56_Node000001_Node000030"><a xlink:title=" ">
<path fill="none" stroke="#63b8ff" d="M537.5,-333.62C578.56,-326.69 653.64,-312.72 716,-294 763.98,-279.59 817.78,-257.2 849.73,-243.22"/>
<polygon fill="#63b8ff" stroke="#63b8ff" points="851.17,-246.41 858.91,-239.17 848.35,-240 851.17,-246.41"/>
</a>
</g>
</g>
<!-- Node31 -->
<g id="Node000031" class="node">
<title>Node31</title>
<g id="a_Node000031"><a xlink:href="wavproperties_8h.html" target="_top" xlink:title=" ">
<polygon fill="white" stroke="#666666" points="234.5,-294 139.5,-294 139.5,-275 234.5,-275 234.5,-294"/>
<text text-anchor="middle" x="187" y="-282" font-family="Helvetica,sans-Serif" font-size="10.00">wavproperties.h</text>
</a>
</g>
</g>
<!-- Node1&#45;&gt;Node31 -->
<g id="edge62_Node000001_Node000031" class="edge">
<title>Node1&#45;&gt;Node31</title>
<g id="a_edge62_Node000001_Node000031"><a xlink:title=" ">
<path fill="none" stroke="#63b8ff" d="M476.32,-333.42C423.05,-324.6 312.66,-306.31 244.7,-295.06"/>
<polygon fill="#63b8ff" stroke="#63b8ff" points="245.02,-291.56 234.58,-293.38 243.87,-298.47 245.02,-291.56"/>
</a>
</g>
</g>
<!-- Node3 -->
<g id="Node000003" class="node">
<title>Node3</title>
<g id="a_Node000003"><a xlink:href="tfile_8h.html" target="_top" xlink:title=" ">
<polygon fill="white" stroke="#666666" points="320,-239 276,-239 276,-220 320,-220 320,-239"/>
<text text-anchor="middle" x="298" y="-227" font-family="Helvetica,sans-Serif" font-size="10.00">tfile.h</text>
</a>
</g>
</g>
<!-- Node2&#45;&gt;Node3 -->
<g id="edge2_Node000002_Node000003" class="edge">
<title>Node2&#45;&gt;Node3</title>
<g id="a_edge2_Node000002_Node000003"><a xlink:title=" ">
<path fill="none" stroke="#63b8ff" d="M361.79,-274.98C350.22,-266.92 332.62,-254.65 318.84,-245.03"/>
<polygon fill="#63b8ff" stroke="#63b8ff" points="320.64,-242.02 310.43,-239.17 316.63,-247.76 320.64,-242.02"/>
</a>
</g>
</g>
<!-- Node8 -->
<g id="Node000008" class="node">
<title>Node8</title>
<g id="a_Node000008"><a xlink:href="taglib__export_8h.html" target="_top" xlink:title=" ">
<polygon fill="white" stroke="#666666" points="599,-19 509,-19 509,0 599,0 599,-19"/>
<text text-anchor="middle" x="554" y="-7" font-family="Helvetica,sans-Serif" font-size="10.00">taglib_export.h</text>
</a>
</g>
</g>
<!-- Node2&#45;&gt;Node8 -->
<g id="edge36_Node000002_Node000008" class="edge">
<title>Node2&#45;&gt;Node8</title>
<g id="a_edge36_Node000002_Node000008"><a xlink:title=" ">
<path fill="none" stroke="#63b8ff" d="M374,-274.82C374,-256.48 374,-212.44 374,-175.5 374,-175.5 374,-175.5 374,-118.5 374,-59.61 445.71,-32.04 498.61,-19.71"/>
<polygon fill="#63b8ff" stroke="#63b8ff" points="499.57,-23.08 508.58,-17.51 498.06,-16.24 499.57,-23.08"/>
</a>
</g>
</g>
<!-- Node4 -->
<g id="Node000004" class="node">
<title>Node4</title>
<g id="a_Node000004"><a xlink:href="tbytevector_8h.html" target="_top" xlink:title=" ">
<polygon fill="white" stroke="#666666" points="705.5,-74 624.5,-74 624.5,-55 705.5,-55 705.5,-74"/>
<text text-anchor="middle" x="665" y="-62" font-family="Helvetica,sans-Serif" font-size="10.00">tbytevector.h</text>
</a>
</g>
</g>
<!-- Node3&#45;&gt;Node4 -->
<g id="edge3_Node000003_Node000004" class="edge">
<title>Node3&#45;&gt;Node4</title>
<g id="a_edge3_Node000003_Node000004"><a xlink:title=" ">
<path fill="none" stroke="#63b8ff" d="M304.7,-219.93C322.56,-197.73 373.85,-138.16 431,-110 489.7,-81.07 565.24,-70.91 614.37,-67.36"/>
<polygon fill="#63b8ff" stroke="#63b8ff" points="614.69,-70.84 624.44,-66.7 614.23,-63.86 614.69,-70.84"/>
</a>
</g>
</g>
<!-- Node3&#45;&gt;Node8 -->
<g id="edge13_Node000003_Node000008" class="edge">
<title>Node3&#45;&gt;Node8</title>
<g id="a_edge13_Node000003_Node000008"><a xlink:title=" ">
<path fill="none" stroke="#63b8ff" d="M275.68,-221.43C258.7,-214.74 236.52,-202.87 226,-184 221.89,-176.62 223.01,-172.9 226,-165 249.04,-104.03 266.41,-87.34 323,-55 377.46,-23.88 449.71,-14.08 498.81,-11.22"/>
<polygon fill="#63b8ff" stroke="#63b8ff" points="499.11,-14.71 508.92,-10.71 498.76,-7.72 499.11,-14.71"/>
</a>
</g>
</g>
<!-- Node9 -->
<g id="Node000009" class="node">
<title>Node9</title>
<g id="a_Node000009"><a xlink:href="tiostream_8h.html" target="_top" xlink:title=" ">
<polygon fill="white" stroke="#666666" points="307.5,-184 234.5,-184 234.5,-165 307.5,-165 307.5,-184"/>
<text text-anchor="middle" x="271" y="-172" font-family="Helvetica,sans-Serif" font-size="10.00">tiostream.h</text>
</a>
</g>
</g>
<!-- Node3&#45;&gt;Node9 -->
<g id="edge8_Node000003_Node000009" class="edge">
<title>Node3&#45;&gt;Node9</title>
<g id="a_edge8_Node000003_Node000009"><a xlink:title=" ">
<path fill="none" stroke="#63b8ff" d="M293.54,-219.75C289.88,-212.57 284.59,-202.18 280.05,-193.27"/>
<polygon fill="#63b8ff" stroke="#63b8ff" points="283.03,-191.41 275.38,-184.09 276.8,-194.59 283.03,-191.41"/>
</a>
</g>
</g>
<!-- Node10 -->
<g id="Node000010" class="node">
<title>Node10</title>
<g id="a_Node000010"><a xlink:href="taglib_8h.html" target="_top" xlink:title=" ">
<polygon fill="white" stroke="#666666" points="168.5,-129 115.5,-129 115.5,-110 168.5,-110 168.5,-129"/>
<text text-anchor="middle" x="142" y="-117" font-family="Helvetica,sans-Serif" font-size="10.00">taglib.h</text>
</a>
</g>
</g>
<!-- Node3&#45;&gt;Node10 -->
<g id="edge14_Node000003_Node000010" class="edge">
<title>Node3&#45;&gt;Node10</title>
<g id="a_edge14_Node000003_Node000010"><a xlink:title=" ">
<path fill="none" stroke="#63b8ff" d="M275.61,-222.7C252.9,-216.05 217.57,-203.46 192,-184 175.31,-171.29 161.06,-151.77 152.09,-137.73"/>
<polygon fill="#63b8ff" stroke="#63b8ff" points="154.97,-135.73 146.77,-129.03 149.01,-139.39 154.97,-135.73"/>
</a>
</g>
</g>
<!-- Node12 -->
<g id="Node000012" class="node">
<title>Node12</title>
<g id="a_Node000012"><a xlink:href="tag_8h.html" target="_top" xlink:title=" ">
<polygon fill="white" stroke="#666666" points="889.5,-184 848.5,-184 848.5,-165 889.5,-165 889.5,-184"/>
<text text-anchor="middle" x="869" y="-172" font-family="Helvetica,sans-Serif" font-size="10.00">tag.h</text>
</a>
</g>
</g>
<!-- Node3&#45;&gt;Node12 -->
<g id="edge15_Node000003_Node000012" class="edge">
<title>Node3&#45;&gt;Node12</title>
<g id="a_edge15_Node000003_Node000012"><a xlink:title=" ">
<path fill="none" stroke="#63b8ff" d="M320.03,-226.45C408.22,-218.27 735.89,-187.86 838.24,-178.35"/>
<polygon fill="#63b8ff" stroke="#63b8ff" points="838.61,-181.84 848.24,-177.43 837.96,-174.87 838.61,-181.84"/>
</a>
</g>
</g>
<!-- Node5 -->
<g id="Node000005" class="node">
<title>Node5</title>
<g id="a_Node000005"><a xlink:title=" ">
<polygon fill="#e0e0e0" stroke="#999999" points="847,-19 789,-19 789,0 847,0 847,-19"/>
<text text-anchor="middle" x="818" y="-7" font-family="Helvetica,sans-Serif" font-size="10.00">memory</text>
</a>
</g>
</g>
<!-- Node4&#45;&gt;Node5 -->
<g id="edge4_Node000004_Node000005" class="edge">
<title>Node4&#45;&gt;Node5</title>
<g id="a_edge4_Node000004_Node000005"><a xlink:title=" ">
<path fill="none" stroke="#63b8ff" d="M689.58,-54.98C715.05,-46.16 755.04,-32.31 783.63,-22.41"/>
<polygon fill="#63b8ff" stroke="#63b8ff" points="784.92,-25.66 793.23,-19.08 782.63,-19.05 784.92,-25.66"/>
</a>
</g>
</g>
<!-- Node6 -->
<g id="Node000006" class="node">
<title>Node6</title>
<g id="a_Node000006"><a xlink:title=" ">
<polygon fill="#e0e0e0" stroke="#999999" points="675.5,-19 628.5,-19 628.5,0 675.5,0 675.5,-19"/>
<text text-anchor="middle" x="652" y="-7" font-family="Helvetica,sans-Serif" font-size="10.00">vector</text>
</a>
</g>
</g>
<!-- Node4&#45;&gt;Node6 -->
<g id="edge5_Node000004_Node000006" class="edge">
<title>Node4&#45;&gt;Node6</title>
<g id="a_edge5_Node000004_Node000006"><a xlink:title=" ">
<path fill="none" stroke="#63b8ff" d="M662.85,-54.75C661.13,-47.72 658.65,-37.62 656.5,-28.84"/>
<polygon fill="#63b8ff" stroke="#63b8ff" points="659.89,-27.97 654.11,-19.09 653.09,-29.63 659.89,-27.97"/>
</a>
</g>
</g>
<!-- Node7 -->
<g id="Node000007" class="node">
<title>Node7</title>
<g id="a_Node000007"><a xlink:title=" ">
<polygon fill="#e0e0e0" stroke="#999999" points="742,-19 694,-19 694,0 742,0 742,-19"/>
<text text-anchor="middle" x="718" y="-7" font-family="Helvetica,sans-Serif" font-size="10.00">iosfwd</text>
</a>
</g>
</g>
<!-- Node4&#45;&gt;Node7 -->
<g id="edge6_Node000004_Node000007" class="edge">
<title>Node4&#45;&gt;Node7</title>
<g id="a_edge6_Node000004_Node000007"><a xlink:title=" ">
<path fill="none" stroke="#63b8ff" d="M673.75,-54.75C681.47,-47.03 692.9,-35.6 702.22,-26.28"/>
<polygon fill="#63b8ff" stroke="#63b8ff" points="704.81,-28.64 709.41,-19.09 699.86,-23.69 704.81,-28.64"/>
</a>
</g>
</g>
<!-- Node4&#45;&gt;Node8 -->
<g id="edge7_Node000004_Node000008" class="edge">
<title>Node4&#45;&gt;Node8</title>
<g id="a_edge7_Node000004_Node000008"><a xlink:title=" ">
<path fill="none" stroke="#63b8ff" d="M647.17,-54.98C629.39,-46.5 601.85,-33.35 581.32,-23.54"/>
<polygon fill="#63b8ff" stroke="#63b8ff" points="582.69,-20.32 572.16,-19.17 579.67,-26.64 582.69,-20.32"/>
</a>
</g>
</g>
<!-- Node9&#45;&gt;Node4 -->
<g id="edge9_Node000009_Node000004" class="edge">
<title>Node9&#45;&gt;Node4</title>
<g id="a_edge9_Node000009_Node000004"><a xlink:title=" ">
<path fill="none" stroke="#63b8ff" d="M275.21,-164.74C282.54,-150.56 299.07,-122.88 322,-110 370.89,-82.55 531,-71.47 614.03,-67.48"/>
<polygon fill="#63b8ff" stroke="#63b8ff" points="614.42,-70.97 624.25,-67.01 614.1,-63.97 614.42,-70.97"/>
</a>
</g>
</g>
<!-- Node9&#45;&gt;Node8 -->
<g id="edge10_Node000009_Node000008" class="edge">
<title>Node9&#45;&gt;Node8</title>
<g id="a_edge10_Node000009_Node000008"><a xlink:title=" ">
<path fill="none" stroke="#63b8ff" d="M272.85,-164.61C275.87,-151.68 282.76,-127.33 295,-110 316.83,-79.09 326.16,-71.93 360,-55 403.78,-33.1 458.52,-21.81 498.68,-16.09"/>
<polygon fill="#63b8ff" stroke="#63b8ff" points="499.37,-19.53 508.81,-14.72 498.44,-12.59 499.37,-19.53"/>
</a>
</g>
</g>
<!-- Node9&#45;&gt;Node10 -->
<g id="edge11_Node000009_Node000010" class="edge">
<title>Node9&#45;&gt;Node10</title>
<g id="a_edge11_Node000009_Node000010"><a xlink:title=" ">
<path fill="none" stroke="#63b8ff" d="M250.27,-164.98C229.24,-156.34 196.45,-142.87 172.46,-133.02"/>
<polygon fill="#63b8ff" stroke="#63b8ff" points="173.68,-129.73 163.1,-129.17 171.02,-136.21 173.68,-129.73"/>
</a>
</g>
</g>
<!-- Node11 -->
<g id="Node000011" class="node">
<title>Node11</title>
<g id="a_Node000011"><a xlink:title=" ">
<polygon fill="#e0e0e0" stroke="#999999" points="178,-74 106,-74 106,-55 178,-55 178,-74"/>
<text text-anchor="middle" x="142" y="-62" font-family="Helvetica,sans-Serif" font-size="10.00">sys/types.h</text>
</a>
</g>
</g>
<!-- Node10&#45;&gt;Node11 -->
<g id="edge12_Node000010_Node000011" class="edge">
<title>Node10&#45;&gt;Node11</title>
<g id="a_edge12_Node000010_Node000011"><a xlink:title=" ">
<path fill="none" stroke="#63b8ff" d="M142,-109.75C142,-102.8 142,-92.85 142,-84.13"/>
<polygon fill="#63b8ff" stroke="#63b8ff" points="145.5,-84.09 142,-74.09 138.5,-84.09 145.5,-84.09"/>
</a>
</g>
</g>
<!-- Node12&#45;&gt;Node8 -->
<g id="edge16_Node000012_Node000008" class="edge">
<title>Node12&#45;&gt;Node8</title>
<g id="a_edge16_Node000012_Node000008"><a xlink:title=" ">
<path fill="none" stroke="#63b8ff" d="M869.16,-164.71C869.04,-142.51 865.41,-83.91 832,-55 823.63,-47.76 687.95,-28.49 609.29,-17.84"/>
<polygon fill="#63b8ff" stroke="#63b8ff" points="609.44,-14.32 599.06,-16.46 608.5,-21.26 609.44,-14.32"/>
</a>
</g>
</g>
<!-- Node13 -->
<g id="Node000013" class="node">
<title>Node13</title>
<g id="a_Node000013"><a xlink:href="tstring_8h.html" target="_top" xlink:title=" ">
<polygon fill="white" stroke="#666666" points="829.5,-129 772.5,-129 772.5,-110 829.5,-110 829.5,-129"/>
<text text-anchor="middle" x="801" y="-117" font-family="Helvetica,sans-Serif" font-size="10.00">tstring.h</text>
</a>
</g>
</g>
<!-- Node12&#45;&gt;Node13 -->
<g id="edge17_Node000012_Node000013" class="edge">
<title>Node12&#45;&gt;Node13</title>
<g id="a_edge17_Node000012_Node000013"><a xlink:title=" ">
<path fill="none" stroke="#63b8ff" d="M858.07,-164.98C847.92,-157.07 832.58,-145.11 820.35,-135.58"/>
<polygon fill="#63b8ff" stroke="#63b8ff" points="822.16,-132.56 812.12,-129.17 817.86,-138.08 822.16,-132.56"/>
</a>
</g>
</g>
<!-- Node15 -->
<g id="Node000015" class="node">
<title>Node15</title>
<g id="a_Node000015"><a xlink:href="tlist_8h.html" target="_top" xlink:title=" ">
<polygon fill="white" stroke="#666666" points="1076,-74 1032,-74 1032,-55 1076,-55 1076,-74"/>
<text text-anchor="middle" x="1054" y="-62" font-family="Helvetica,sans-Serif" font-size="10.00">tlist.h</text>
</a>
</g>
</g>
<!-- Node12&#45;&gt;Node15 -->
<g id="edge21_Node000012_Node000015" class="edge">
<title>Node12&#45;&gt;Node15</title>
<g id="a_edge21_Node000012_Node000015"><a xlink:title=" ">
<path fill="none" stroke="#63b8ff" d="M887.99,-164.99C906.46,-156.5 935.16,-142.78 959,-129 985.71,-113.55 1015.04,-93.44 1033.94,-80.02"/>
<polygon fill="#63b8ff" stroke="#63b8ff" points="1036.22,-82.69 1042.32,-74.03 1032.15,-77 1036.22,-82.69"/>
</a>
</g>
</g>
<!-- Node19 -->
<g id="Node000019" class="node">
<title>Node19</title>
<g id="a_Node000019"><a xlink:href="tvariant_8h.html" target="_top" xlink:title=" ">
<polygon fill="white" stroke="#666666" points="950,-129 886,-129 886,-110 950,-110 950,-129"/>
<text text-anchor="middle" x="918" y="-117" font-family="Helvetica,sans-Serif" font-size="10.00">tvariant.h</text>
</a>
</g>
</g>
<!-- Node12&#45;&gt;Node19 -->
<g id="edge26_Node000012_Node000019" class="edge">
<title>Node12&#45;&gt;Node19</title>
<g id="a_edge26_Node000012_Node000019"><a xlink:title=" ">
<path fill="none" stroke="#63b8ff" d="M877.09,-164.75C884.16,-157.11 894.59,-145.82 903.15,-136.56"/>
<polygon fill="#63b8ff" stroke="#63b8ff" points="905.84,-138.81 910.06,-129.09 900.7,-134.06 905.84,-138.81"/>
</a>
</g>
</g>
<!-- Node13&#45;&gt;Node4 -->
<g id="edge19_Node000013_Node000004" class="edge">
<title>Node13&#45;&gt;Node4</title>
<g id="a_edge19_Node000013_Node000004"><a xlink:title=" ">
<path fill="none" stroke="#63b8ff" d="M779.15,-109.98C756.88,-101.3 722.1,-87.75 696.78,-77.88"/>
<polygon fill="#63b8ff" stroke="#63b8ff" points="697.84,-74.54 687.25,-74.17 695.29,-81.06 697.84,-74.54"/>
</a>
</g>
</g>
<!-- Node13&#45;&gt;Node8 -->
<g id="edge20_Node000013_Node000008" class="edge">
<title>Node13&#45;&gt;Node8</title>
<g id="a_edge20_Node000013_Node000008"><a xlink:title=" ">
<path fill="none" stroke="#63b8ff" d="M791.71,-109.8C776.7,-96.21 745.71,-69.94 715,-55 681.59,-38.74 641.29,-27.61 609.37,-20.55"/>
<polygon fill="#63b8ff" stroke="#63b8ff" points="609.83,-17.07 599.32,-18.4 608.36,-23.91 609.83,-17.07"/>
</a>
</g>
</g>
<!-- Node14 -->
<g id="Node000014" class="node">
<title>Node14</title>
<g id="a_Node000014"><a xlink:title=" ">
<polygon fill="#e0e0e0" stroke="#999999" points="823,-74 779,-74 779,-55 823,-55 823,-74"/>
<text text-anchor="middle" x="801" y="-62" font-family="Helvetica,sans-Serif" font-size="10.00">string</text>
</a>
</g>
</g>
<!-- Node13&#45;&gt;Node14 -->
<g id="edge18_Node000013_Node000014" class="edge">
<title>Node13&#45;&gt;Node14</title>
<g id="a_edge18_Node000013_Node000014"><a xlink:title=" ">
<path fill="none" stroke="#63b8ff" d="M801,-109.75C801,-102.8 801,-92.85 801,-84.13"/>
<polygon fill="#63b8ff" stroke="#63b8ff" points="804.5,-84.09 801,-74.09 797.5,-84.09 804.5,-84.09"/>
</a>
</g>
</g>
<!-- Node15&#45;&gt;Node5 -->
<g id="edge24_Node000015_Node000005" class="edge">
<title>Node15&#45;&gt;Node5</title>
<g id="a_edge24_Node000015_Node000005"><a xlink:title=" ">
<path fill="none" stroke="#63b8ff" d="M1031.93,-58.24C1027.33,-57.16 1022.51,-56.03 1018,-55 962.18,-42.2 897.48,-27.9 857.13,-19.05"/>
<polygon fill="#63b8ff" stroke="#63b8ff" points="857.69,-15.59 847.17,-16.87 856.19,-22.43 857.69,-15.59"/>
</a>
</g>
</g>
<!-- Node16 -->
<g id="Node000016" class="node">
<title>Node16</title>
<g id="a_Node000016"><a xlink:title=" ">
<polygon fill="#e0e0e0" stroke="#999999" points="994,-19 962,-19 962,0 994,0 994,-19"/>
<text text-anchor="middle" x="978" y="-7" font-family="Helvetica,sans-Serif" font-size="10.00">list</text>
</a>
</g>
</g>
<!-- Node15&#45;&gt;Node16 -->
<g id="edge22_Node000015_Node000016" class="edge">
<title>Node15&#45;&gt;Node16</title>
<g id="a_edge22_Node000015_Node000016"><a xlink:title=" ">
<path fill="none" stroke="#63b8ff" d="M1041.79,-54.98C1030.22,-46.92 1012.62,-34.65 998.84,-25.03"/>
<polygon fill="#63b8ff" stroke="#63b8ff" points="1000.64,-22.02 990.43,-19.17 996.63,-27.76 1000.64,-22.02"/>
</a>
</g>
</g>
<!-- Node17 -->
<g id="Node000017" class="node">
<title>Node17</title>
<g id="a_Node000017"><a xlink:title=" ">
<polygon fill="#e0e0e0" stroke="#999999" points="1095.5,-19 1012.5,-19 1012.5,0 1095.5,0 1095.5,-19"/>
<text text-anchor="middle" x="1054" y="-7" font-family="Helvetica,sans-Serif" font-size="10.00">initializer_list</text>
</a>
</g>
</g>
<!-- Node15&#45;&gt;Node17 -->
<g id="edge23_Node000015_Node000017" class="edge">
<title>Node15&#45;&gt;Node17</title>
<g id="a_edge23_Node000015_Node000017"><a xlink:title=" ">
<path fill="none" stroke="#63b8ff" d="M1054,-54.75C1054,-47.8 1054,-37.85 1054,-29.13"/>
<polygon fill="#63b8ff" stroke="#63b8ff" points="1057.5,-29.09 1054,-19.09 1050.5,-29.09 1057.5,-29.09"/>
</a>
</g>
</g>
<!-- Node18 -->
<g id="Node000018" class="node">
<title>Node18</title>
<g id="a_Node000018"><a xlink:title=" ">
<polygon fill="#e0e0e0" stroke="#999999" points="943.5,-19 890.5,-19 890.5,0 943.5,0 943.5,-19"/>
<text text-anchor="middle" x="917" y="-7" font-family="Helvetica,sans-Serif" font-size="10.00">tlist.tcc</text>
</a>
</g>
</g>
<!-- Node15&#45;&gt;Node18 -->
<g id="edge25_Node000015_Node000018" class="edge">
<title>Node15&#45;&gt;Node18</title>
<g id="a_edge25_Node000015_Node000018"><a xlink:title=" ">
<path fill="none" stroke="#63b8ff" d="M1031.99,-54.98C1009.55,-46.3 974.52,-32.75 949.01,-22.88"/>
<polygon fill="#63b8ff" stroke="#63b8ff" points="950,-19.51 939.41,-19.17 947.48,-26.04 950,-19.51"/>
</a>
</g>
</g>
<!-- Node19&#45;&gt;Node8 -->
<g id="edge35_Node000019_Node000008" class="edge">
<title>Node19&#45;&gt;Node8</title>
<g id="a_edge35_Node000019_Node000008"><a xlink:title=" ">
<path fill="none" stroke="#63b8ff" d="M913.9,-109.77C906.76,-95.64 890.62,-68.02 868,-55 862.43,-51.8 698.13,-29.62 609.47,-17.83"/>
<polygon fill="#63b8ff" stroke="#63b8ff" points="609.69,-14.33 599.31,-16.48 608.77,-21.27 609.69,-14.33"/>
</a>
</g>
</g>
<!-- Node19&#45;&gt;Node15 -->
<g id="edge28_Node000019_Node000015" class="edge">
<title>Node19&#45;&gt;Node15</title>
<g id="a_edge28_Node000019_Node000015"><a xlink:title=" ">
<path fill="none" stroke="#63b8ff" d="M939.85,-109.98C962.12,-101.3 996.9,-87.75 1022.22,-77.88"/>
<polygon fill="#63b8ff" stroke="#63b8ff" points="1023.71,-81.06 1031.75,-74.17 1021.16,-74.54 1023.71,-81.06"/>
</a>
</g>
</g>
<!-- Node20 -->
<g id="Node000020" class="node">
<title>Node20</title>
<g id="a_Node000020"><a xlink:title=" ">
<polygon fill="#e0e0e0" stroke="#999999" points="976,-74 920,-74 920,-55 976,-55 976,-74"/>
<text text-anchor="middle" x="948" y="-62" font-family="Helvetica,sans-Serif" font-size="10.00">sstream</text>
</a>
</g>
</g>
<!-- Node19&#45;&gt;Node20 -->
<g id="edge27_Node000019_Node000020" class="edge">
<title>Node19&#45;&gt;Node20</title>
<g id="a_edge27_Node000019_Node000020"><a xlink:title=" ">
<path fill="none" stroke="#63b8ff" d="M922.95,-109.75C927.06,-102.49 933.03,-91.95 938.1,-82.98"/>
<polygon fill="#63b8ff" stroke="#63b8ff" points="941.26,-84.52 943.14,-74.09 935.17,-81.07 941.26,-84.52"/>
</a>
</g>
</g>
<!-- Node21 -->
<g id="Node000021" class="node">
<title>Node21</title>
<g id="a_Node000021"><a xlink:href="tmap_8h.html" target="_top" xlink:title=" ">
<polygon fill="white" stroke="#666666" points="1150.5,-74 1099.5,-74 1099.5,-55 1150.5,-55 1150.5,-74"/>
<text text-anchor="middle" x="1125" y="-62" font-family="Helvetica,sans-Serif" font-size="10.00">tmap.h</text>
</a>
</g>
</g>
<!-- Node19&#45;&gt;Node21 -->
<g id="edge29_Node000019_Node000021" class="edge">
<title>Node19&#45;&gt;Node21</title>
<g id="a_edge29_Node000019_Node000021"><a xlink:title=" ">
<path fill="none" stroke="#63b8ff" d="M950.34,-110.22C988.13,-100.54 1050.44,-84.59 1089.52,-74.58"/>
<polygon fill="#63b8ff" stroke="#63b8ff" points="1090.59,-77.92 1099.41,-72.05 1088.85,-71.14 1090.59,-77.92"/>
</a>
</g>
</g>
<!-- Node21&#45;&gt;Node5 -->
<g id="edge31_Node000021_Node000005" class="edge">
<title>Node21&#45;&gt;Node5</title>
<g id="a_edge31_Node000021_Node000005"><a xlink:title=" ">
<path fill="none" stroke="#63b8ff" d="M1099.21,-57.85C1094.49,-56.86 1089.6,-55.87 1085,-55 1004.44,-39.73 909.66,-24.61 857.47,-16.52"/>
<polygon fill="#63b8ff" stroke="#63b8ff" points="857.73,-13.02 847.31,-14.95 856.66,-19.94 857.73,-13.02"/>
</a>
</g>
</g>
<!-- Node21&#45;&gt;Node17 -->
<g id="edge32_Node000021_Node000017" class="edge">
<title>Node21&#45;&gt;Node17</title>
<g id="a_edge32_Node000021_Node000017"><a xlink:title=" ">
<path fill="none" stroke="#63b8ff" d="M1113.59,-54.98C1102.89,-47 1086.66,-34.88 1073.84,-25.31"/>
<polygon fill="#63b8ff" stroke="#63b8ff" points="1075.72,-22.35 1065.61,-19.17 1071.53,-27.96 1075.72,-22.35"/>
</a>
</g>
</g>
<!-- Node22 -->
<g id="Node000022" class="node">
<title>Node22</title>
<g id="a_Node000022"><a xlink:title=" ">
<polygon fill="#e0e0e0" stroke="#999999" points="1292,-19 1254,-19 1254,0 1292,0 1292,-19"/>
<text text-anchor="middle" x="1273" y="-7" font-family="Helvetica,sans-Serif" font-size="10.00">map</text>
</a>
</g>
</g>
<!-- Node21&#45;&gt;Node22 -->
<g id="edge30_Node000021_Node000022" class="edge">
<title>Node21&#45;&gt;Node22</title>
<g id="a_edge30_Node000021_Node000022"><a xlink:title=" ">
<path fill="none" stroke="#63b8ff" d="M1148.78,-54.98C1174.83,-45.65 1216.61,-30.69 1244.42,-20.73"/>
<polygon fill="#63b8ff" stroke="#63b8ff" points="1245.75,-23.98 1253.99,-17.31 1243.39,-17.39 1245.75,-23.98"/>
</a>
</g>
</g>
<!-- Node23 -->
<g id="Node000023" class="node">
<title>Node23</title>
<g id="a_Node000023"><a xlink:title=" ">
<polygon fill="#e0e0e0" stroke="#999999" points="1158.5,-19 1113.5,-19 1113.5,0 1158.5,0 1158.5,-19"/>
<text text-anchor="middle" x="1136" y="-7" font-family="Helvetica,sans-Serif" font-size="10.00">utility</text>
</a>
</g>
</g>
<!-- Node21&#45;&gt;Node23 -->
<g id="edge33_Node000021_Node000023" class="edge">
<title>Node21&#45;&gt;Node23</title>
<g id="a_edge33_Node000021_Node000023"><a xlink:title=" ">
<path fill="none" stroke="#63b8ff" d="M1126.82,-54.75C1128.26,-47.8 1130.32,-37.85 1132.13,-29.13"/>
<polygon fill="#63b8ff" stroke="#63b8ff" points="1135.61,-29.59 1134.22,-19.09 1128.76,-28.17 1135.61,-29.59"/>
</a>
</g>
</g>
<!-- Node24 -->
<g id="Node000024" class="node">
<title>Node24</title>
<g id="a_Node000024"><a xlink:title=" ">
<polygon fill="#e0e0e0" stroke="#999999" points="1235.5,-19 1176.5,-19 1176.5,0 1235.5,0 1235.5,-19"/>
<text text-anchor="middle" x="1206" y="-7" font-family="Helvetica,sans-Serif" font-size="10.00">tmap.tcc</text>
</a>
</g>
</g>
<!-- Node21&#45;&gt;Node24 -->
<g id="edge34_Node000021_Node000024" class="edge">
<title>Node21&#45;&gt;Node24</title>
<g id="a_edge34_Node000021_Node000024"><a xlink:title=" ">
<path fill="none" stroke="#63b8ff" d="M1138.01,-54.98C1150.46,-46.84 1169.46,-34.41 1184.21,-24.76"/>
<polygon fill="#63b8ff" stroke="#63b8ff" points="1186.3,-27.57 1192.75,-19.17 1182.46,-21.72 1186.3,-27.57"/>
</a>
</g>
</g>
<!-- Node25&#45;&gt;Node4 -->
<g id="edge38_Node000025_Node000004" class="edge">
<title>Node25&#45;&gt;Node4</title>
<g id="a_edge38_Node000025_Node000004"><a xlink:title=" ">
<path fill="none" stroke="#63b8ff" d="M675.02,-274.73C680.62,-249.1 695.1,-172.19 683,-110 681.21,-100.8 677.52,-91.09 673.94,-83.1"/>
<polygon fill="#63b8ff" stroke="#63b8ff" points="677.09,-81.57 669.62,-74.06 670.77,-84.59 677.09,-81.57"/>
</a>
</g>
</g>
<!-- Node25&#45;&gt;Node8 -->
<g id="edge43_Node000025_Node000008" class="edge">
<title>Node25&#45;&gt;Node8</title>
<g id="a_edge43_Node000025_Node000008"><a xlink:title=" ">
<path fill="none" stroke="#63b8ff" d="M667.56,-274.71C659,-261.45 641.26,-236.19 621,-220 593.05,-197.67 567.81,-214.43 549,-184 533.32,-158.63 544.88,-68.78 550.92,-29.32"/>
<polygon fill="#63b8ff" stroke="#63b8ff" points="554.39,-29.84 552.49,-19.42 547.47,-28.75 554.39,-29.84"/>
</a>
</g>
</g>
<!-- Node25&#45;&gt;Node10 -->
<g id="edge42_Node000025_Node000010" class="edge">
<title>Node25&#45;&gt;Node10</title>
<g id="a_edge42_Node000025_Node000010"><a xlink:title=" ">
<path fill="none" stroke="#63b8ff" d="M638.92,-284.25C567.92,-284.86 399.77,-281.26 267,-239 219.04,-223.73 201.42,-221.64 168,-184 156.64,-171.21 149.84,-152.79 146.07,-139.07"/>
<polygon fill="#63b8ff" stroke="#63b8ff" points="149.44,-138.16 143.65,-129.29 142.65,-139.83 149.44,-138.16"/>
</a>
</g>
</g>
<!-- Node25&#45;&gt;Node12 -->
<g id="edge44_Node000025_Node000012" class="edge">
<title>Node25&#45;&gt;Node12</title>
<g id="a_edge44_Node000025_Node000012"><a xlink:title=" ">
<path fill="none" stroke="#63b8ff" d="M706.58,-274.99C732.17,-267.67 767.71,-255.63 796,-239 818.27,-225.9 840.13,-205.62 854.04,-191.52"/>
<polygon fill="#63b8ff" stroke="#63b8ff" points="856.83,-193.66 861.25,-184.03 851.79,-188.8 856.83,-193.66"/>
</a>
</g>
</g>
<!-- Node25&#45;&gt;Node13 -->
<g id="edge39_Node000025_Node000013" class="edge">
<title>Node25&#45;&gt;Node13</title>
<g id="a_edge39_Node000025_Node000013"><a xlink:title=" ">
<path fill="none" stroke="#63b8ff" d="M683.32,-274.87C693.28,-266.29 708.48,-252.51 720,-239 748.57,-205.5 776.28,-161.81 790.71,-137.94"/>
<polygon fill="#63b8ff" stroke="#63b8ff" points="793.76,-139.66 795.89,-129.28 787.75,-136.07 793.76,-139.66"/>
</a>
</g>
</g>
<!-- Node25&#45;&gt;Node15 -->
<g id="edge40_Node000025_Node000015" class="edge">
<title>Node25&#45;&gt;Node15</title>
<g id="a_edge40_Node000025_Node000015"><a xlink:title=" ">
<path fill="none" stroke="#63b8ff" d="M707.23,-280.26C765.75,-274.23 882.13,-259.97 917,-239 981.36,-200.3 1027.38,-119.39 1045.49,-83.41"/>
<polygon fill="#63b8ff" stroke="#63b8ff" points="1048.77,-84.67 1050.03,-74.15 1042.48,-81.59 1048.77,-84.67"/>
</a>
</g>
</g>
<!-- Node25&#45;&gt;Node21 -->
<g id="edge41_Node000025_Node000021" class="edge">
<title>Node25&#45;&gt;Node21</title>
<g id="a_edge41_Node000025_Node000021"><a xlink:title=" ">
<path fill="none" stroke="#63b8ff" d="M707.26,-282.93C778.87,-280.08 946.69,-264.6 1055,-184 1081.74,-164.1 1089.46,-157.94 1106,-129 1113.95,-115.09 1118.87,-97.53 1121.71,-84.4"/>
<polygon fill="#63b8ff" stroke="#63b8ff" points="1125.22,-84.7 1123.69,-74.21 1118.35,-83.36 1125.22,-84.7"/>
</a>
</g>
</g>
<!-- Node26 -->
<g id="Node000026" class="node">
<title>Node26</title>
<g id="a_Node000026"><a xlink:href="id3v2_8h.html" target="_top" xlink:title=" ">
<polygon fill="white" stroke="#666666" points="611.5,-239 558.5,-239 558.5,-220 611.5,-220 611.5,-239"/>
<text text-anchor="middle" x="585" y="-227" font-family="Helvetica,sans-Serif" font-size="10.00">id3v2.h</text>
</a>
</g>
</g>
<!-- Node25&#45;&gt;Node26 -->
<g id="edge45_Node000025_Node000026" class="edge">
<title>Node25&#45;&gt;Node26</title>
<g id="a_edge45_Node000025_Node000026"><a xlink:title=" ">
<path fill="none" stroke="#63b8ff" d="M658.86,-274.98C645.21,-266.77 624.31,-254.18 608.22,-244.49"/>
<polygon fill="#63b8ff" stroke="#63b8ff" points="609.77,-241.33 599.4,-239.17 606.16,-247.33 609.77,-241.33"/>
</a>
</g>
</g>
<!-- Node27 -->
<g id="Node000027" class="node">
<title>Node27</title>
<g id="a_Node000027"><a xlink:href="id3v2framefactory_8h.html" target="_top" xlink:title=" ">
<polygon fill="white" stroke="#666666" points="540.5,-239 425.5,-239 425.5,-220 540.5,-220 540.5,-239"/>
<text text-anchor="middle" x="483" y="-227" font-family="Helvetica,sans-Serif" font-size="10.00">id3v2framefactory.h</text>
</a>
</g>
</g>
<!-- Node25&#45;&gt;Node27 -->
<g id="edge46_Node000025_Node000027" class="edge">
<title>Node25&#45;&gt;Node27</title>
<g id="a_edge46_Node000025_Node000027"><a xlink:title=" ">
<path fill="none" stroke="#63b8ff" d="M642.47,-274.98C610.3,-266.01 559.44,-251.82 523.83,-241.89"/>
<polygon fill="#63b8ff" stroke="#63b8ff" points="524.34,-238.4 513.77,-239.08 522.46,-245.14 524.34,-238.4"/>
</a>
</g>
</g>
<!-- Node27&#45;&gt;Node4 -->
<g id="edge47_Node000027_Node000004" class="edge">
<title>Node27&#45;&gt;Node4</title>
<g id="a_edge47_Node000027_Node000004"><a xlink:title=" ">
<path fill="none" stroke="#63b8ff" d="M540.64,-219.97C582.64,-212.53 634.61,-200.35 649,-184 673.37,-156.3 671.62,-109.96 668.26,-84.2"/>
<polygon fill="#63b8ff" stroke="#63b8ff" points="671.71,-83.61 666.75,-74.25 664.79,-84.66 671.71,-83.61"/>
</a>
</g>
</g>
<!-- Node27&#45;&gt;Node8 -->
<g id="edge48_Node000027_Node000008" class="edge">
<title>Node27&#45;&gt;Node8</title>
<g id="a_edge48_Node000027_Node000008"><a xlink:title=" ">
<path fill="none" stroke="#63b8ff" d="M473.85,-219.79C454.27,-200.07 411.65,-150.55 431,-110 450.54,-69.07 496.05,-39.54 525.89,-23.74"/>
<polygon fill="#63b8ff" stroke="#63b8ff" points="527.67,-26.76 534.98,-19.09 524.48,-20.53 527.67,-26.76"/>
</a>
</g>
</g>
<!-- Node28 -->
<g id="Node000028" class="node">
<title>Node28</title>
<g id="a_Node000028"><a xlink:href="id3v2frame_8h.html" target="_top" xlink:title=" ">
<polygon fill="white" stroke="#666666" points="640,-184 558,-184 558,-165 640,-165 640,-184"/>
<text text-anchor="middle" x="599" y="-172" font-family="Helvetica,sans-Serif" font-size="10.00">id3v2frame.h</text>
</a>
</g>
</g>
<!-- Node27&#45;&gt;Node28 -->
<g id="edge49_Node000027_Node000028" class="edge">
<title>Node27&#45;&gt;Node28</title>
<g id="a_edge49_Node000027_Node000028"><a xlink:title=" ">
<path fill="none" stroke="#63b8ff" d="M501.64,-219.98C520.3,-211.46 549.25,-198.23 570.74,-188.41"/>
<polygon fill="#63b8ff" stroke="#63b8ff" points="572.38,-191.51 580.02,-184.17 569.47,-185.14 572.38,-191.51"/>
</a>
</g>
</g>
<!-- Node29 -->
<g id="Node000029" class="node">
<title>Node29</title>
<g id="a_Node000029"><a xlink:href="id3v2header_8h.html" target="_top" xlink:title=" ">
<polygon fill="white" stroke="#666666" points="526,-129 440,-129 440,-110 526,-110 526,-129"/>
<text text-anchor="middle" x="483" y="-117" font-family="Helvetica,sans-Serif" font-size="10.00">id3v2header.h</text>
</a>
</g>
</g>
<!-- Node27&#45;&gt;Node29 -->
<g id="edge53_Node000027_Node000029" class="edge">
<title>Node27&#45;&gt;Node29</title>
<g id="a_edge53_Node000027_Node000029"><a xlink:title=" ">
<path fill="none" stroke="#63b8ff" d="M483,-219.66C483,-202.17 483,-162.8 483,-139.27"/>
<polygon fill="#63b8ff" stroke="#63b8ff" points="486.5,-139.16 483,-129.16 479.5,-139.16 486.5,-139.16"/>
</a>
</g>
</g>
<!-- Node28&#45;&gt;Node4 -->
<g id="edge51_Node000028_Node000004" class="edge">
<title>Node28&#45;&gt;Node4</title>
<g id="a_edge51_Node000028_Node000004"><a xlink:title=" ">
<path fill="none" stroke="#63b8ff" d="M604.4,-164.66C615.33,-146.77 640.25,-106 654.49,-82.69"/>
<polygon fill="#63b8ff" stroke="#63b8ff" points="657.48,-84.52 659.71,-74.16 651.51,-80.87 657.48,-84.52"/>
</a>
</g>
</g>
<!-- Node28&#45;&gt;Node8 -->
<g id="edge52_Node000028_Node000008" class="edge">
<title>Node28&#45;&gt;Node8</title>
<g id="a_edge52_Node000028_Node000008"><a xlink:title=" ">
<path fill="none" stroke="#63b8ff" d="M596.89,-164.84C592.07,-145.21 579.77,-95.87 568,-55 565.54,-46.44 562.6,-37.02 560.06,-29.06"/>
<polygon fill="#63b8ff" stroke="#63b8ff" points="563.32,-27.77 556.92,-19.33 556.66,-29.92 563.32,-27.77"/>
</a>
</g>
</g>
<!-- Node28&#45;&gt;Node13 -->
<g id="edge50_Node000028_Node000013" class="edge">
<title>Node28&#45;&gt;Node13</title>
<g id="a_edge50_Node000028_Node000013"><a xlink:title=" ">
<path fill="none" stroke="#63b8ff" d="M631.45,-164.98C667.18,-155.61 724.58,-140.55 762.54,-130.59"/>
<polygon fill="#63b8ff" stroke="#63b8ff" points="763.44,-133.97 772.22,-128.05 761.66,-127.2 763.44,-133.97"/>
</a>
</g>
</g>
<!-- Node29&#45;&gt;Node4 -->
<g id="edge54_Node000029_Node000004" class="edge">
<title>Node29&#45;&gt;Node4</title>
<g id="a_edge54_Node000029_Node000004"><a xlink:title=" ">
<path fill="none" stroke="#63b8ff" d="M512.24,-109.98C543.06,-101.01 591.78,-86.82 625.89,-76.89"/>
<polygon fill="#63b8ff" stroke="#63b8ff" points="626.91,-80.24 635.53,-74.08 624.95,-73.52 626.91,-80.24"/>
</a>
</g>
</g>
<!-- Node29&#45;&gt;Node8 -->
<g id="edge55_Node000029_Node000008" class="edge">
<title>Node29&#45;&gt;Node8</title>
<g id="a_edge55_Node000029_Node000008"><a xlink:title=" ">
<path fill="none" stroke="#63b8ff" d="M488.81,-109.66C500.57,-91.77 527.37,-51 542.7,-27.69"/>
<polygon fill="#63b8ff" stroke="#63b8ff" points="545.74,-29.44 548.31,-19.16 539.89,-25.59 545.74,-29.44"/>
</a>
</g>
</g>
<!-- Node30&#45;&gt;Node4 -->
<g id="edge59_Node000030_Node000004" class="edge">
<title>Node30&#45;&gt;Node4</title>
<g id="a_edge59_Node000030_Node000004"><a xlink:title=" ">
<path fill="none" stroke="#63b8ff" d="M866.85,-219.97C832.49,-193.68 727.97,-113.69 684.39,-80.34"/>
<polygon fill="#63b8ff" stroke="#63b8ff" points="686.37,-77.44 676.3,-74.15 682.11,-83 686.37,-77.44"/>
</a>
</g>
</g>
<!-- Node30&#45;&gt;Node8 -->
<g id="edge60_Node000030_Node000008" class="edge">
<title>Node30&#45;&gt;Node8</title>
<g id="a_edge60_Node000030_Node000008"><a xlink:title=" ">
<path fill="none" stroke="#63b8ff" d="M890.86,-219.81C928.94,-193.09 1035.38,-110.59 985,-55 957.63,-24.8 660.49,-23.6 620,-19 616.51,-18.6 612.91,-18.18 609.29,-17.74"/>
<polygon fill="#63b8ff" stroke="#63b8ff" points="609.42,-14.23 599.07,-16.49 608.56,-21.18 609.42,-14.23"/>
</a>
</g>
</g>
<!-- Node30&#45;&gt;Node12 -->
<g id="edge61_Node000030_Node000012" class="edge">
<title>Node30&#45;&gt;Node12</title>
<g id="a_edge61_Node000030_Node000012"><a xlink:title=" ">
<path fill="none" stroke="#63b8ff" d="M876.51,-219.75C875.33,-212.8 873.64,-202.85 872.16,-194.13"/>
<polygon fill="#63b8ff" stroke="#63b8ff" points="875.58,-193.36 870.46,-184.09 868.68,-194.53 875.58,-193.36"/>
</a>
</g>
</g>
<!-- Node30&#45;&gt;Node13 -->
<g id="edge58_Node000030_Node000013" class="edge">
<title>Node30&#45;&gt;Node13</title>
<g id="a_edge58_Node000030_Node000013"><a xlink:title=" ">
<path fill="none" stroke="#63b8ff" d="M870.01,-219.97C862.01,-211.24 849.56,-197.15 840,-184 829.21,-169.16 818.4,-151.27 810.91,-138.27"/>
<polygon fill="#63b8ff" stroke="#63b8ff" points="813.86,-136.38 805.88,-129.41 807.77,-139.83 813.86,-136.38"/>
</a>
</g>
</g>
<!-- Node30&#45;&gt;Node21 -->
<g id="edge57_Node000030_Node000021" class="edge">
<title>Node30&#45;&gt;Node21</title>
<g id="a_edge57_Node000030_Node000021"><a xlink:title=" ">
<path fill="none" stroke="#63b8ff" d="M908.26,-225.11C940.69,-220.29 992.53,-209.09 1030,-184 1069.65,-157.45 1100.72,-109.22 1115.52,-83.23"/>
<polygon fill="#63b8ff" stroke="#63b8ff" points="1118.76,-84.6 1120.54,-74.16 1112.64,-81.21 1118.76,-84.6"/>
</a>
</g>
</g>
<!-- Node32 -->
<g id="Node000032" class="node">
<title>Node32</title>
<g id="a_Node000032"><a xlink:href="audioproperties_8h.html" target="_top" xlink:title=" ">
<polygon fill="white" stroke="#666666" points="102,-184 0,-184 0,-165 102,-165 102,-184"/>
<text text-anchor="middle" x="51" y="-172" font-family="Helvetica,sans-Serif" font-size="10.00">audioproperties.h</text>
</a>
</g>
</g>
<!-- Node31&#45;&gt;Node32 -->
<g id="edge63_Node000031_Node000032" class="edge">
<title>Node31&#45;&gt;Node32</title>
<g id="a_edge63_Node000031_Node000032"><a xlink:title=" ">
<path fill="none" stroke="#63b8ff" d="M171.13,-274.86C156.3,-266.49 133.83,-253.04 116,-239 97.52,-224.46 78.52,-205.32 65.88,-191.87"/>
<polygon fill="#63b8ff" stroke="#63b8ff" points="68.25,-189.28 58.88,-184.32 63.11,-194.04 68.25,-189.28"/>
</a>
</g>
</g>
<!-- Node32&#45;&gt;Node5 -->
<g id="edge64_Node000032_Node000005" class="edge">
<title>Node32&#45;&gt;Node5</title>
<g id="a_edge64_Node000032_Node000005"><a xlink:title=" ">
<path fill="none" stroke="#63b8ff" d="M53.11,-164.72C59.31,-139.63 78.25,-68.61 97,-55 155.9,-12.26 678.52,-25.58 751,-19 759.99,-18.18 769.64,-17.09 778.73,-15.96"/>
<polygon fill="#63b8ff" stroke="#63b8ff" points="779.22,-19.42 788.7,-14.68 778.33,-12.48 779.22,-19.42"/>
</a>
</g>
</g>
<!-- Node32&#45;&gt;Node8 -->
<g id="edge66_Node000032_Node000008" class="edge">
<title>Node32&#45;&gt;Node8</title>
<g id="a_edge66_Node000032_Node000008"><a xlink:title=" ">
<path fill="none" stroke="#63b8ff" d="M48.74,-164.8C43.6,-142.83 33.72,-84.72 64,-55 94.51,-25.06 376.88,-14.73 498.6,-11.65"/>
<polygon fill="#63b8ff" stroke="#63b8ff" points="498.91,-15.15 508.82,-11.4 498.74,-8.15 498.91,-15.15"/>
</a>
</g>
</g>
<!-- Node32&#45;&gt;Node10 -->
<g id="edge65_Node000032_Node000010" class="edge">
<title>Node32&#45;&gt;Node10</title>
<g id="a_edge65_Node000032_Node000010"><a xlink:title=" ">
<path fill="none" stroke="#63b8ff" d="M65.62,-164.98C79.86,-156.69 101.75,-143.94 118.45,-134.22"/>
<polygon fill="#63b8ff" stroke="#63b8ff" points="120.23,-137.23 127.11,-129.17 116.71,-131.18 120.23,-137.23"/>
</a>
</g>
</g>
</g>
</svg>
