<?xml version="1.0" encoding="UTF-8" standalone="no"?>
<!DOCTYPE svg PUBLIC "-//W3C//DTD SVG 1.1//EN"
 "http://www.w3.org/Graphics/SVG/1.1/DTD/svg11.dtd">
<!-- Generated by graphviz version 2.43.0 (0)
 -->
<!-- Title: wavfile.h Pages: 1 -->
<svg width="1253pt" height="364pt"
 viewBox="0.00 0.00 1252.50 364.00" xmlns="http://www.w3.org/2000/svg" xmlns:xlink="http://www.w3.org/1999/xlink">
<g id="graph0" class="graph" transform="scale(1 1) rotate(0) translate(4 360)">
<title>wavfile.h</title>
<polygon fill="white" stroke="transparent" points="-4,4 -4,-360 1248.5,-360 1248.5,4 -4,4"/>
<!-- Node1 -->
<g id="node1" class="node">
<title>Node1</title>
<g id="a_node1"><a xlink:title=" ">
<polygon fill="#bfbfbf" stroke="black" points="449.5,-336.5 449.5,-355.5 510.5,-355.5 510.5,-336.5 449.5,-336.5"/>
<text text-anchor="middle" x="480" y="-343.5" font-family="Helvetica,sans-Serif" font-size="10.00">wavfile.h</text>
</a>
</g>
</g>
<!-- Node2 -->
<g id="node2" class="node">
<title>Node2</title>
<g id="a_node2"><a xlink:href="rifffile_8h.html" target="_top" xlink:title=" ">
<polygon fill="white" stroke="black" points="115,-280.5 115,-299.5 169,-299.5 169,-280.5 115,-280.5"/>
<text text-anchor="middle" x="142" y="-287.5" font-family="Helvetica,sans-Serif" font-size="10.00">rifffile.h</text>
</a>
</g>
</g>
<!-- Node1&#45;&gt;Node2 -->
<g id="edge1" class="edge">
<title>Node1&#45;&gt;Node2</title>
<path fill="none" stroke="midnightblue" d="M449.41,-340.11C387.4,-330.21 247.07,-307.79 179.6,-297.01"/>
<polygon fill="midnightblue" stroke="midnightblue" points="179.85,-293.5 169.43,-295.38 178.75,-300.42 179.85,-293.5"/>
</g>
<!-- Node24 -->
<g id="node24" class="node">
<title>Node24</title>
<g id="a_node24"><a xlink:href="id3v2tag_8h.html" target="_top" xlink:title=" ">
<polygon fill="white" stroke="black" points="604,-280.5 604,-299.5 672,-299.5 672,-280.5 604,-280.5"/>
<text text-anchor="middle" x="638" y="-287.5" font-family="Helvetica,sans-Serif" font-size="10.00">id3v2tag.h</text>
</a>
</g>
</g>
<!-- Node1&#45;&gt;Node24 -->
<g id="edge37" class="edge">
<title>Node1&#45;&gt;Node24</title>
<path fill="none" stroke="midnightblue" d="M505.04,-336.44C531.62,-327.36 573.81,-312.94 603.52,-302.78"/>
<polygon fill="midnightblue" stroke="midnightblue" points="604.75,-306.06 613.08,-299.52 602.49,-299.44 604.75,-306.06"/>
</g>
<!-- Node29 -->
<g id="node29" class="node">
<title>Node29</title>
<g id="a_node29"><a xlink:href="infotag_8h.html" target="_top" xlink:title=" ">
<polygon fill="white" stroke="black" points="819,-224.5 819,-243.5 879,-243.5 879,-224.5 819,-224.5"/>
<text text-anchor="middle" x="849" y="-231.5" font-family="Helvetica,sans-Serif" font-size="10.00">infotag.h</text>
</a>
</g>
</g>
<!-- Node1&#45;&gt;Node29 -->
<g id="edge56" class="edge">
<title>Node1&#45;&gt;Node29</title>
<path fill="none" stroke="midnightblue" d="M510.67,-339.61C550.41,-332.28 621.63,-318.02 681,-300 730.9,-284.85 787.07,-261.86 820.17,-247.67"/>
<polygon fill="midnightblue" stroke="midnightblue" points="821.88,-250.74 829.67,-243.57 819.11,-244.32 821.88,-250.74"/>
</g>
<!-- Node30 -->
<g id="node30" class="node">
<title>Node30</title>
<g id="a_node30"><a xlink:href="wavproperties_8h.html" target="_top" xlink:title=" ">
<polygon fill="white" stroke="black" points="269.5,-280.5 269.5,-299.5 364.5,-299.5 364.5,-280.5 269.5,-280.5"/>
<text text-anchor="middle" x="317" y="-287.5" font-family="Helvetica,sans-Serif" font-size="10.00">wavproperties.h</text>
</a>
</g>
</g>
<!-- Node1&#45;&gt;Node30 -->
<g id="edge62" class="edge">
<title>Node1&#45;&gt;Node30</title>
<path fill="none" stroke="midnightblue" d="M454.17,-336.44C426.75,-327.36 383.22,-312.94 352.57,-302.78"/>
<polygon fill="midnightblue" stroke="midnightblue" points="353.3,-299.34 342.71,-299.52 351.1,-305.98 353.3,-299.34"/>
</g>
<!-- Node3 -->
<g id="node3" class="node">
<title>Node3</title>
<g id="a_node3"><a xlink:href="tfile_8h.html" target="_top" xlink:title=" ">
<polygon fill="white" stroke="black" points="120,-224.5 120,-243.5 164,-243.5 164,-224.5 120,-224.5"/>
<text text-anchor="middle" x="142" y="-231.5" font-family="Helvetica,sans-Serif" font-size="10.00">tfile.h</text>
</a>
</g>
</g>
<!-- Node2&#45;&gt;Node3 -->
<g id="edge2" class="edge">
<title>Node2&#45;&gt;Node3</title>
<path fill="none" stroke="midnightblue" d="M142,-280.08C142,-273.01 142,-262.86 142,-253.99"/>
<polygon fill="midnightblue" stroke="midnightblue" points="145.5,-253.75 142,-243.75 138.5,-253.75 145.5,-253.75"/>
</g>
<!-- Node8 -->
<g id="node8" class="node">
<title>Node8</title>
<g id="a_node8"><a xlink:href="taglib__export_8h.html" target="_top" xlink:title=" ">
<polygon fill="white" stroke="black" points="463,-0.5 463,-19.5 553,-19.5 553,-0.5 463,-0.5"/>
<text text-anchor="middle" x="508" y="-7.5" font-family="Helvetica,sans-Serif" font-size="10.00">taglib_export.h</text>
</a>
</g>
</g>
<!-- Node2&#45;&gt;Node8 -->
<g id="edge36" class="edge">
<title>Node2&#45;&gt;Node8</title>
<path fill="none" stroke="midnightblue" d="M114.96,-281.52C73.76,-268.27 0,-236.54 0,-179 0,-179 0,-179 0,-121 0,-29.19 320.97,-13.83 452.65,-11.4"/>
<polygon fill="midnightblue" stroke="midnightblue" points="452.98,-14.89 462.92,-11.23 452.86,-7.89 452.98,-14.89"/>
</g>
<!-- Node4 -->
<g id="node4" class="node">
<title>Node4</title>
<g id="a_node4"><a xlink:href="tbytevector_8h.html" target="_top" xlink:title=" ">
<polygon fill="white" stroke="black" points="614.5,-56.5 614.5,-75.5 695.5,-75.5 695.5,-56.5 614.5,-56.5"/>
<text text-anchor="middle" x="655" y="-63.5" font-family="Helvetica,sans-Serif" font-size="10.00">tbytevector.h</text>
</a>
</g>
</g>
<!-- Node3&#45;&gt;Node4 -->
<g id="edge3" class="edge">
<title>Node3&#45;&gt;Node4</title>
<path fill="none" stroke="midnightblue" d="M164.18,-230.88C202.44,-226.62 282.74,-215.01 345,-188 399.85,-164.21 401.2,-135.91 456,-112 504.04,-91.04 563.02,-79.28 604.25,-73.08"/>
<polygon fill="midnightblue" stroke="midnightblue" points="604.94,-76.52 614.34,-71.62 603.94,-69.59 604.94,-76.52"/>
</g>
<!-- Node3&#45;&gt;Node8 -->
<g id="edge13" class="edge">
<title>Node3&#45;&gt;Node8</title>
<path fill="none" stroke="midnightblue" d="M119.76,-228.09C99.43,-222.3 70.52,-210.46 57,-188 24.74,-134.41 20.97,-124.23 133,-56 185.44,-24.06 361.85,-14.77 452.78,-12.08"/>
<polygon fill="midnightblue" stroke="midnightblue" points="453,-15.58 462.9,-11.8 452.81,-8.58 453,-15.58"/>
</g>
<!-- Node9 -->
<g id="node9" class="node">
<title>Node9</title>
<g id="a_node9"><a xlink:href="tiostream_8h.html" target="_top" xlink:title=" ">
<polygon fill="white" stroke="black" points="66.5,-168.5 66.5,-187.5 139.5,-187.5 139.5,-168.5 66.5,-168.5"/>
<text text-anchor="middle" x="103" y="-175.5" font-family="Helvetica,sans-Serif" font-size="10.00">tiostream.h</text>
</a>
</g>
</g>
<!-- Node3&#45;&gt;Node9 -->
<g id="edge8" class="edge">
<title>Node3&#45;&gt;Node9</title>
<path fill="none" stroke="midnightblue" d="M135.56,-224.08C130.05,-216.46 121.97,-205.26 115.24,-195.94"/>
<polygon fill="midnightblue" stroke="midnightblue" points="118.01,-193.81 109.32,-187.75 112.34,-197.91 118.01,-193.81"/>
</g>
<!-- Node10 -->
<g id="node10" class="node">
<title>Node10</title>
<g id="a_node10"><a xlink:href="taglib_8h.html" target="_top" xlink:title=" ">
<polygon fill="white" stroke="black" points="174.5,-112.5 174.5,-131.5 227.5,-131.5 227.5,-112.5 174.5,-112.5"/>
<text text-anchor="middle" x="201" y="-119.5" font-family="Helvetica,sans-Serif" font-size="10.00">taglib.h</text>
</a>
</g>
</g>
<!-- Node3&#45;&gt;Node10 -->
<g id="edge14" class="edge">
<title>Node3&#45;&gt;Node10</title>
<path fill="none" stroke="midnightblue" d="M146.63,-224.37C156.28,-206.38 178.71,-164.55 191.55,-140.63"/>
<polygon fill="midnightblue" stroke="midnightblue" points="194.75,-142.06 196.39,-131.59 188.58,-138.75 194.75,-142.06"/>
</g>
<!-- Node12 -->
<g id="node12" class="node">
<title>Node12</title>
<g id="a_node12"><a xlink:href="tag_8h.html" target="_top" xlink:title=" ">
<polygon fill="white" stroke="black" points="835.5,-168.5 835.5,-187.5 876.5,-187.5 876.5,-168.5 835.5,-168.5"/>
<text text-anchor="middle" x="856" y="-175.5" font-family="Helvetica,sans-Serif" font-size="10.00">tag.h</text>
</a>
</g>
</g>
<!-- Node3&#45;&gt;Node12 -->
<g id="edge15" class="edge">
<title>Node3&#45;&gt;Node12</title>
<path fill="none" stroke="midnightblue" d="M164.15,-231.32C267.78,-223.49 704.74,-190.44 825.16,-181.33"/>
<polygon fill="midnightblue" stroke="midnightblue" points="825.78,-184.8 835.49,-180.55 825.26,-177.82 825.78,-184.8"/>
</g>
<!-- Node5 -->
<g id="node5" class="node">
<title>Node5</title>
<g id="a_node5"><a xlink:title=" ">
<polygon fill="white" stroke="#bfbfbf" points="767,-0.5 767,-19.5 825,-19.5 825,-0.5 767,-0.5"/>
<text text-anchor="middle" x="796" y="-7.5" font-family="Helvetica,sans-Serif" font-size="10.00">memory</text>
</a>
</g>
</g>
<!-- Node4&#45;&gt;Node5 -->
<g id="edge4" class="edge">
<title>Node4&#45;&gt;Node5</title>
<path fill="none" stroke="midnightblue" d="M677.34,-56.44C700.75,-47.48 737.74,-33.31 764.19,-23.18"/>
<polygon fill="midnightblue" stroke="midnightblue" points="765.68,-26.36 773.76,-19.52 763.17,-19.82 765.68,-26.36"/>
</g>
<!-- Node6 -->
<g id="node6" class="node">
<title>Node6</title>
<g id="a_node6"><a xlink:title=" ">
<polygon fill="white" stroke="#bfbfbf" points="631.5,-0.5 631.5,-19.5 678.5,-19.5 678.5,-0.5 631.5,-0.5"/>
<text text-anchor="middle" x="655" y="-7.5" font-family="Helvetica,sans-Serif" font-size="10.00">vector</text>
</a>
</g>
</g>
<!-- Node4&#45;&gt;Node6 -->
<g id="edge5" class="edge">
<title>Node4&#45;&gt;Node6</title>
<path fill="none" stroke="midnightblue" d="M655,-56.08C655,-49.01 655,-38.86 655,-29.99"/>
<polygon fill="midnightblue" stroke="midnightblue" points="658.5,-29.75 655,-19.75 651.5,-29.75 658.5,-29.75"/>
</g>
<!-- Node7 -->
<g id="node7" class="node">
<title>Node7</title>
<g id="a_node7"><a xlink:title=" ">
<polygon fill="white" stroke="#bfbfbf" points="701,-0.5 701,-19.5 749,-19.5 749,-0.5 701,-0.5"/>
<text text-anchor="middle" x="725" y="-7.5" font-family="Helvetica,sans-Serif" font-size="10.00">iosfwd</text>
</a>
</g>
</g>
<!-- Node4&#45;&gt;Node7 -->
<g id="edge6" class="edge">
<title>Node4&#45;&gt;Node7</title>
<path fill="none" stroke="midnightblue" d="M666.25,-56.32C676.8,-48.18 692.8,-35.84 705.44,-26.09"/>
<polygon fill="midnightblue" stroke="midnightblue" points="707.77,-28.71 713.55,-19.83 703.49,-23.17 707.77,-28.71"/>
</g>
<!-- Node4&#45;&gt;Node8 -->
<g id="edge7" class="edge">
<title>Node4&#45;&gt;Node8</title>
<path fill="none" stroke="midnightblue" d="M631.71,-56.44C607.19,-47.44 568.4,-33.19 540.8,-23.05"/>
<polygon fill="midnightblue" stroke="midnightblue" points="541.78,-19.68 531.18,-19.52 539.36,-26.25 541.78,-19.68"/>
</g>
<!-- Node9&#45;&gt;Node4 -->
<g id="edge9" class="edge">
<title>Node9&#45;&gt;Node4</title>
<path fill="none" stroke="midnightblue" d="M108.21,-168.38C117.54,-153.83 138.6,-124.76 165,-112 241.46,-75.04 494.75,-68.34 604.05,-67.2"/>
<polygon fill="midnightblue" stroke="midnightblue" points="604.2,-70.7 614.17,-67.11 604.14,-63.7 604.2,-70.7"/>
</g>
<!-- Node9&#45;&gt;Node8 -->
<g id="edge10" class="edge">
<title>Node9&#45;&gt;Node8</title>
<path fill="none" stroke="midnightblue" d="M103.95,-168.2C106.91,-145.41 118.18,-84.31 156,-56 201.68,-21.81 365.52,-13.54 452.63,-11.58"/>
<polygon fill="midnightblue" stroke="midnightblue" points="452.93,-15.07 462.86,-11.37 452.79,-8.07 452.93,-15.07"/>
</g>
<!-- Node9&#45;&gt;Node10 -->
<g id="edge11" class="edge">
<title>Node9&#45;&gt;Node10</title>
<path fill="none" stroke="midnightblue" d="M118.75,-168.32C134.32,-159.74 158.38,-146.49 176.46,-136.52"/>
<polygon fill="midnightblue" stroke="midnightblue" points="178.22,-139.55 185.29,-131.65 174.85,-133.42 178.22,-139.55"/>
</g>
<!-- Node11 -->
<g id="node11" class="node">
<title>Node11</title>
<g id="a_node11"><a xlink:title=" ">
<polygon fill="white" stroke="#bfbfbf" points="165,-56.5 165,-75.5 237,-75.5 237,-56.5 165,-56.5"/>
<text text-anchor="middle" x="201" y="-63.5" font-family="Helvetica,sans-Serif" font-size="10.00">sys/types.h</text>
</a>
</g>
</g>
<!-- Node10&#45;&gt;Node11 -->
<g id="edge12" class="edge">
<title>Node10&#45;&gt;Node11</title>
<path fill="none" stroke="midnightblue" d="M201,-112.08C201,-105.01 201,-94.86 201,-85.99"/>
<polygon fill="midnightblue" stroke="midnightblue" points="204.5,-85.75 201,-75.75 197.5,-85.75 204.5,-85.75"/>
</g>
<!-- Node12&#45;&gt;Node8 -->
<g id="edge16" class="edge">
<title>Node12&#45;&gt;Node8</title>
<path fill="none" stroke="midnightblue" d="M856.25,-168.33C856.38,-145.86 853.35,-85.46 819,-56 799.94,-39.66 647.5,-23.55 563.34,-15.79"/>
<polygon fill="midnightblue" stroke="midnightblue" points="563.46,-12.29 553.18,-14.86 562.83,-19.26 563.46,-12.29"/>
</g>
<!-- Node13 -->
<g id="node13" class="node">
<title>Node13</title>
<g id="a_node13"><a xlink:href="tstring_8h.html" target="_top" xlink:title=" ">
<polygon fill="white" stroke="black" points="759.5,-112.5 759.5,-131.5 816.5,-131.5 816.5,-112.5 759.5,-112.5"/>
<text text-anchor="middle" x="788" y="-119.5" font-family="Helvetica,sans-Serif" font-size="10.00">tstring.h</text>
</a>
</g>
</g>
<!-- Node12&#45;&gt;Node13 -->
<g id="edge17" class="edge">
<title>Node12&#45;&gt;Node13</title>
<path fill="none" stroke="midnightblue" d="M845.07,-168.32C834.83,-160.18 819.28,-147.84 807,-138.09"/>
<polygon fill="midnightblue" stroke="midnightblue" points="809.13,-135.31 799.12,-131.83 804.78,-140.79 809.13,-135.31"/>
</g>
<!-- Node15 -->
<g id="node15" class="node">
<title>Node15</title>
<g id="a_node15"><a xlink:href="tlist_8h.html" target="_top" xlink:title=" ">
<polygon fill="white" stroke="black" points="984,-56.5 984,-75.5 1028,-75.5 1028,-56.5 984,-56.5"/>
<text text-anchor="middle" x="1006" y="-63.5" font-family="Helvetica,sans-Serif" font-size="10.00">tlist.h</text>
</a>
</g>
</g>
<!-- Node12&#45;&gt;Node15 -->
<g id="edge21" class="edge">
<title>Node12&#45;&gt;Node15</title>
<path fill="none" stroke="midnightblue" d="M876.87,-169.11C895.93,-161.33 924.35,-148.27 946,-132 964.71,-117.94 982.4,-97.59 993.66,-83.42"/>
<polygon fill="midnightblue" stroke="midnightblue" points="996.43,-85.55 999.79,-75.5 990.9,-81.27 996.43,-85.55"/>
</g>
<!-- Node19 -->
<g id="node19" class="node">
<title>Node19</title>
<g id="a_node19"><a xlink:href="tvariant_8h.html" target="_top" xlink:title=" ">
<polygon fill="white" stroke="black" points="873,-112.5 873,-131.5 937,-131.5 937,-112.5 873,-112.5"/>
<text text-anchor="middle" x="905" y="-119.5" font-family="Helvetica,sans-Serif" font-size="10.00">tvariant.h</text>
</a>
</g>
</g>
<!-- Node12&#45;&gt;Node19 -->
<g id="edge26" class="edge">
<title>Node12&#45;&gt;Node19</title>
<path fill="none" stroke="midnightblue" d="M864.09,-168.08C871.16,-160.3 881.59,-148.8 890.15,-139.37"/>
<polygon fill="midnightblue" stroke="midnightblue" points="892.93,-141.51 897.06,-131.75 887.75,-136.8 892.93,-141.51"/>
</g>
<!-- Node13&#45;&gt;Node4 -->
<g id="edge19" class="edge">
<title>Node13&#45;&gt;Node4</title>
<path fill="none" stroke="midnightblue" d="M766.93,-112.44C744.94,-103.52 710.27,-89.44 685.34,-79.32"/>
<polygon fill="midnightblue" stroke="midnightblue" points="686.56,-76.04 675.98,-75.52 683.92,-82.52 686.56,-76.04"/>
</g>
<!-- Node13&#45;&gt;Node8 -->
<g id="edge20" class="edge">
<title>Node13&#45;&gt;Node8</title>
<path fill="none" stroke="midnightblue" d="M779.67,-112.36C765.62,-98.32 735.74,-70.64 705,-56 659.89,-34.51 603.99,-23.01 563.28,-17.03"/>
<polygon fill="midnightblue" stroke="midnightblue" points="563.66,-13.55 553.27,-15.62 562.69,-20.48 563.66,-13.55"/>
</g>
<!-- Node14 -->
<g id="node14" class="node">
<title>Node14</title>
<g id="a_node14"><a xlink:title=" ">
<polygon fill="white" stroke="#bfbfbf" points="766,-56.5 766,-75.5 810,-75.5 810,-56.5 766,-56.5"/>
<text text-anchor="middle" x="788" y="-63.5" font-family="Helvetica,sans-Serif" font-size="10.00">string</text>
</a>
</g>
</g>
<!-- Node13&#45;&gt;Node14 -->
<g id="edge18" class="edge">
<title>Node13&#45;&gt;Node14</title>
<path fill="none" stroke="midnightblue" d="M788,-112.08C788,-105.01 788,-94.86 788,-85.99"/>
<polygon fill="midnightblue" stroke="midnightblue" points="791.5,-85.75 788,-75.75 784.5,-85.75 791.5,-85.75"/>
</g>
<!-- Node15&#45;&gt;Node5 -->
<g id="edge24" class="edge">
<title>Node15&#45;&gt;Node5</title>
<path fill="none" stroke="midnightblue" d="M983.92,-59.32C948.56,-50.23 878.73,-32.27 834.87,-21"/>
<polygon fill="midnightblue" stroke="midnightblue" points="835.68,-17.59 825.12,-18.49 833.94,-24.37 835.68,-17.59"/>
</g>
<!-- Node16 -->
<g id="node16" class="node">
<title>Node16</title>
<g id="a_node16"><a xlink:title=" ">
<polygon fill="white" stroke="#bfbfbf" points="843,-0.5 843,-19.5 875,-19.5 875,-0.5 843,-0.5"/>
<text text-anchor="middle" x="859" y="-7.5" font-family="Helvetica,sans-Serif" font-size="10.00">list</text>
</a>
</g>
</g>
<!-- Node15&#45;&gt;Node16 -->
<g id="edge22" class="edge">
<title>Node15&#45;&gt;Node16</title>
<path fill="none" stroke="midnightblue" d="M983.99,-56.92C957.46,-47.17 912.92,-30.81 884.8,-20.48"/>
<polygon fill="midnightblue" stroke="midnightblue" points="885.84,-17.13 875.24,-16.97 883.42,-23.7 885.84,-17.13"/>
</g>
<!-- Node17 -->
<g id="node17" class="node">
<title>Node17</title>
<g id="a_node17"><a xlink:title=" ">
<polygon fill="white" stroke="#bfbfbf" points="964.5,-0.5 964.5,-19.5 1047.5,-19.5 1047.5,-0.5 964.5,-0.5"/>
<text text-anchor="middle" x="1006" y="-7.5" font-family="Helvetica,sans-Serif" font-size="10.00">initializer_list</text>
</a>
</g>
</g>
<!-- Node15&#45;&gt;Node17 -->
<g id="edge23" class="edge">
<title>Node15&#45;&gt;Node17</title>
<path fill="none" stroke="midnightblue" d="M1006,-56.08C1006,-49.01 1006,-38.86 1006,-29.99"/>
<polygon fill="midnightblue" stroke="midnightblue" points="1009.5,-29.75 1006,-19.75 1002.5,-29.75 1009.5,-29.75"/>
</g>
<!-- Node18 -->
<g id="node18" class="node">
<title>Node18</title>
<g id="a_node18"><a xlink:title=" ">
<polygon fill="white" stroke="#bfbfbf" points="893.5,-0.5 893.5,-19.5 946.5,-19.5 946.5,-0.5 893.5,-0.5"/>
<text text-anchor="middle" x="920" y="-7.5" font-family="Helvetica,sans-Serif" font-size="10.00">tlist.tcc</text>
</a>
</g>
</g>
<!-- Node15&#45;&gt;Node18 -->
<g id="edge25" class="edge">
<title>Node15&#45;&gt;Node18</title>
<path fill="none" stroke="midnightblue" d="M992.18,-56.32C978.77,-47.9 958.18,-34.97 942.41,-25.07"/>
<polygon fill="midnightblue" stroke="midnightblue" points="944.11,-22.01 933.78,-19.65 940.39,-27.94 944.11,-22.01"/>
</g>
<!-- Node19&#45;&gt;Node7 -->
<g id="edge27" class="edge">
<title>Node19&#45;&gt;Node7</title>
<path fill="none" stroke="midnightblue" d="M906.25,-112.16C907.67,-98.33 908.2,-71.55 894,-56 853.91,-12.07 821.67,-33.82 759.04,-20.03"/>
<polygon fill="midnightblue" stroke="midnightblue" points="759.69,-16.58 749.14,-17.61 758.03,-23.38 759.69,-16.58"/>
</g>
<!-- Node19&#45;&gt;Node8 -->
<g id="edge35" class="edge">
<title>Node19&#45;&gt;Node8</title>
<path fill="none" stroke="midnightblue" d="M901.11,-112.04C894.29,-97.54 878.72,-69.21 856,-56 831.25,-41.61 655.16,-24.08 563.37,-15.79"/>
<polygon fill="midnightblue" stroke="midnightblue" points="563.42,-12.28 553.15,-14.87 562.79,-19.25 563.42,-12.28"/>
</g>
<!-- Node19&#45;&gt;Node15 -->
<g id="edge28" class="edge">
<title>Node19&#45;&gt;Node15</title>
<path fill="none" stroke="midnightblue" d="M921.23,-112.32C937.35,-103.7 962.3,-90.36 980.96,-80.39"/>
<polygon fill="midnightblue" stroke="midnightblue" points="982.64,-83.46 989.81,-75.65 979.34,-77.28 982.64,-83.46"/>
</g>
<!-- Node20 -->
<g id="node20" class="node">
<title>Node20</title>
<g id="a_node20"><a xlink:href="tmap_8h.html" target="_top" xlink:title=" ">
<polygon fill="white" stroke="black" points="1054.5,-56.5 1054.5,-75.5 1105.5,-75.5 1105.5,-56.5 1054.5,-56.5"/>
<text text-anchor="middle" x="1080" y="-63.5" font-family="Helvetica,sans-Serif" font-size="10.00">tmap.h</text>
</a>
</g>
</g>
<!-- Node19&#45;&gt;Node20 -->
<g id="edge29" class="edge">
<title>Node19&#45;&gt;Node20</title>
<path fill="none" stroke="midnightblue" d="M932.73,-112.44C963.04,-103.09 1011.67,-88.08 1044.69,-77.9"/>
<polygon fill="midnightblue" stroke="midnightblue" points="1045.87,-81.19 1054.39,-74.9 1043.81,-74.51 1045.87,-81.19"/>
</g>
<!-- Node20&#45;&gt;Node5 -->
<g id="edge31" class="edge">
<title>Node20&#45;&gt;Node5</title>
<path fill="none" stroke="midnightblue" d="M1054.1,-59.45C1048.47,-58.27 1042.54,-57.07 1037,-56 950.11,-39.21 925.4,-38.59 834.87,-20.08"/>
<polygon fill="midnightblue" stroke="midnightblue" points="835.51,-16.64 825.01,-18.05 834.1,-23.5 835.51,-16.64"/>
</g>
<!-- Node20&#45;&gt;Node17 -->
<g id="edge32" class="edge">
<title>Node20&#45;&gt;Node17</title>
<path fill="none" stroke="midnightblue" d="M1068.11,-56.32C1056.85,-48.11 1039.71,-35.6 1026.29,-25.81"/>
<polygon fill="midnightblue" stroke="midnightblue" points="1028.25,-22.9 1018.11,-19.83 1024.12,-28.56 1028.25,-22.9"/>
</g>
<!-- Node21 -->
<g id="node21" class="node">
<title>Node21</title>
<g id="a_node21"><a xlink:title=" ">
<polygon fill="white" stroke="#bfbfbf" points="1066,-0.5 1066,-19.5 1104,-19.5 1104,-0.5 1066,-0.5"/>
<text text-anchor="middle" x="1085" y="-7.5" font-family="Helvetica,sans-Serif" font-size="10.00">map</text>
</a>
</g>
</g>
<!-- Node20&#45;&gt;Node21 -->
<g id="edge30" class="edge">
<title>Node20&#45;&gt;Node21</title>
<path fill="none" stroke="midnightblue" d="M1080.83,-56.08C1081.48,-49.01 1082.42,-38.86 1083.24,-29.99"/>
<polygon fill="midnightblue" stroke="midnightblue" points="1086.75,-30.03 1084.19,-19.75 1079.78,-29.39 1086.75,-30.03"/>
</g>
<!-- Node22 -->
<g id="node22" class="node">
<title>Node22</title>
<g id="a_node22"><a xlink:title=" ">
<polygon fill="white" stroke="#bfbfbf" points="1122.5,-0.5 1122.5,-19.5 1167.5,-19.5 1167.5,-0.5 1122.5,-0.5"/>
<text text-anchor="middle" x="1145" y="-7.5" font-family="Helvetica,sans-Serif" font-size="10.00">utility</text>
</a>
</g>
</g>
<!-- Node20&#45;&gt;Node22 -->
<g id="edge33" class="edge">
<title>Node20&#45;&gt;Node22</title>
<path fill="none" stroke="midnightblue" d="M1090.44,-56.32C1100.15,-48.26 1114.82,-36.08 1126.5,-26.37"/>
<polygon fill="midnightblue" stroke="midnightblue" points="1128.91,-28.92 1134.37,-19.83 1124.44,-23.53 1128.91,-28.92"/>
</g>
<!-- Node23 -->
<g id="node23" class="node">
<title>Node23</title>
<g id="a_node23"><a xlink:title=" ">
<polygon fill="white" stroke="#bfbfbf" points="1185.5,-0.5 1185.5,-19.5 1244.5,-19.5 1244.5,-0.5 1185.5,-0.5"/>
<text text-anchor="middle" x="1215" y="-7.5" font-family="Helvetica,sans-Serif" font-size="10.00">tmap.tcc</text>
</a>
</g>
</g>
<!-- Node20&#45;&gt;Node23 -->
<g id="edge34" class="edge">
<title>Node20&#45;&gt;Node23</title>
<path fill="none" stroke="midnightblue" d="M1101.39,-56.44C1123.71,-47.52 1158.9,-33.44 1184.21,-23.32"/>
<polygon fill="midnightblue" stroke="midnightblue" points="1185.72,-26.48 1193.71,-19.52 1183.12,-19.98 1185.72,-26.48"/>
</g>
<!-- Node24&#45;&gt;Node4 -->
<g id="edge38" class="edge">
<title>Node24&#45;&gt;Node4</title>
<path fill="none" stroke="midnightblue" d="M641.52,-280.18C644.95,-271.22 650.09,-256.85 653,-244 666.05,-186.47 674.67,-170.5 667,-112 665.84,-103.18 663.47,-93.63 661.13,-85.61"/>
<polygon fill="midnightblue" stroke="midnightblue" points="664.4,-84.34 658.09,-75.83 657.71,-86.42 664.4,-84.34"/>
</g>
<!-- Node24&#45;&gt;Node8 -->
<g id="edge43" class="edge">
<title>Node24&#45;&gt;Node8</title>
<path fill="none" stroke="midnightblue" d="M603.76,-281.31C578.78,-274.49 545.06,-262.66 520,-244 472.35,-208.51 461.46,-189.63 447,-132 441.84,-111.42 452.32,-60.86 455,-56 461.84,-43.62 473.52,-33.14 484.18,-25.42"/>
<polygon fill="midnightblue" stroke="midnightblue" points="486.45,-28.11 492.77,-19.6 482.52,-22.32 486.45,-28.11"/>
</g>
<!-- Node24&#45;&gt;Node10 -->
<g id="edge42" class="edge">
<title>Node24&#45;&gt;Node10</title>
<path fill="none" stroke="midnightblue" d="M603.83,-287.86C524.6,-284.73 330.82,-274.12 274,-244 234.2,-222.9 213.94,-169.81 205.66,-141.49"/>
<polygon fill="midnightblue" stroke="midnightblue" points="208.99,-140.37 202.98,-131.65 202.23,-142.21 208.99,-140.37"/>
</g>
<!-- Node24&#45;&gt;Node12 -->
<g id="edge44" class="edge">
<title>Node24&#45;&gt;Node12</title>
<path fill="none" stroke="midnightblue" d="M660.93,-280.37C682.87,-271.88 716.71,-258.16 745,-244 776.8,-228.09 811.99,-206.82 834.05,-193.02"/>
<polygon fill="midnightblue" stroke="midnightblue" points="836.06,-195.89 842.65,-187.59 832.32,-189.97 836.06,-195.89"/>
</g>
<!-- Node24&#45;&gt;Node13 -->
<g id="edge39" class="edge">
<title>Node24&#45;&gt;Node13</title>
<path fill="none" stroke="midnightblue" d="M654.96,-280.48C669.83,-272.45 691.43,-259.38 707,-244 739.08,-212.3 765.79,-166.01 779.03,-140.87"/>
<polygon fill="midnightblue" stroke="midnightblue" points="782.25,-142.27 783.72,-131.77 776.03,-139.06 782.25,-142.27"/>
</g>
<!-- Node24&#45;&gt;Node15 -->
<g id="edge40" class="edge">
<title>Node24&#45;&gt;Node15</title>
<path fill="none" stroke="midnightblue" d="M672.17,-285.95C731.9,-280.13 852.34,-265.99 888,-244 949.8,-205.88 986.27,-121.93 999.87,-85.01"/>
<polygon fill="midnightblue" stroke="midnightblue" points="1003.18,-86.14 1003.23,-75.55 996.59,-83.8 1003.18,-86.14"/>
</g>
<!-- Node24&#45;&gt;Node20 -->
<g id="edge41" class="edge">
<title>Node24&#45;&gt;Node20</title>
<path fill="none" stroke="midnightblue" d="M672.24,-287.73C725.53,-284.8 830.82,-275.22 914,-244 989.91,-215.51 1015.84,-201.26 1058,-132 1066.81,-117.53 1072.62,-99.08 1076.04,-85.54"/>
<polygon fill="midnightblue" stroke="midnightblue" points="1079.52,-86.04 1078.37,-75.51 1072.7,-84.46 1079.52,-86.04"/>
</g>
<!-- Node25 -->
<g id="node25" class="node">
<title>Node25</title>
<g id="a_node25"><a xlink:href="id3v2_8h.html" target="_top" xlink:title=" ">
<polygon fill="white" stroke="black" points="282.5,-224.5 282.5,-243.5 335.5,-243.5 335.5,-224.5 282.5,-224.5"/>
<text text-anchor="middle" x="309" y="-231.5" font-family="Helvetica,sans-Serif" font-size="10.00">id3v2.h</text>
</a>
</g>
</g>
<!-- Node24&#45;&gt;Node25 -->
<g id="edge45" class="edge">
<title>Node24&#45;&gt;Node25</title>
<path fill="none" stroke="midnightblue" d="M603.75,-284.34C549.67,-276.82 441.27,-261.13 350,-244 348.71,-243.76 347.4,-243.51 346.08,-243.25"/>
<polygon fill="midnightblue" stroke="midnightblue" points="346.36,-239.73 335.86,-241.14 344.95,-246.59 346.36,-239.73"/>
</g>
<!-- Node26 -->
<g id="node26" class="node">
<title>Node26</title>
<g id="a_node26"><a xlink:href="id3v2framefactory_8h.html" target="_top" xlink:title=" ">
<polygon fill="white" stroke="black" points="528.5,-224.5 528.5,-243.5 643.5,-243.5 643.5,-224.5 528.5,-224.5"/>
<text text-anchor="middle" x="586" y="-231.5" font-family="Helvetica,sans-Serif" font-size="10.00">id3v2framefactory.h</text>
</a>
</g>
</g>
<!-- Node24&#45;&gt;Node26 -->
<g id="edge46" class="edge">
<title>Node24&#45;&gt;Node26</title>
<path fill="none" stroke="midnightblue" d="M629.41,-280.08C621.84,-272.22 610.62,-260.57 601.49,-251.08"/>
<polygon fill="midnightblue" stroke="midnightblue" points="603.88,-248.53 594.43,-243.75 598.84,-253.38 603.88,-248.53"/>
</g>
<!-- Node26&#45;&gt;Node4 -->
<g id="edge47" class="edge">
<title>Node26&#45;&gt;Node4</title>
<path fill="none" stroke="midnightblue" d="M599.86,-224.48C611.5,-216.54 627.54,-203.6 636,-188 653.76,-155.24 656.11,-110.63 655.82,-85.75"/>
<polygon fill="midnightblue" stroke="midnightblue" points="659.32,-85.43 655.54,-75.53 652.32,-85.63 659.32,-85.43"/>
</g>
<!-- Node26&#45;&gt;Node8 -->
<g id="edge48" class="edge">
<title>Node26&#45;&gt;Node8</title>
<path fill="none" stroke="midnightblue" d="M565.13,-224.41C534.24,-210.39 477.68,-179.29 456,-132 438.94,-94.79 471.17,-50.45 492.09,-27.15"/>
<polygon fill="midnightblue" stroke="midnightblue" points="494.91,-29.27 499.18,-19.57 489.79,-24.49 494.91,-29.27"/>
</g>
<!-- Node27 -->
<g id="node27" class="node">
<title>Node27</title>
<g id="a_node27"><a xlink:href="id3v2frame_8h.html" target="_top" xlink:title=" ">
<polygon fill="white" stroke="black" points="545,-168.5 545,-187.5 627,-187.5 627,-168.5 545,-168.5"/>
<text text-anchor="middle" x="586" y="-175.5" font-family="Helvetica,sans-Serif" font-size="10.00">id3v2frame.h</text>
</a>
</g>
</g>
<!-- Node26&#45;&gt;Node27 -->
<g id="edge49" class="edge">
<title>Node26&#45;&gt;Node27</title>
<path fill="none" stroke="midnightblue" d="M586,-224.08C586,-217.01 586,-206.86 586,-197.99"/>
<polygon fill="midnightblue" stroke="midnightblue" points="589.5,-197.75 586,-187.75 582.5,-197.75 589.5,-197.75"/>
</g>
<!-- Node28 -->
<g id="node28" class="node">
<title>Node28</title>
<g id="a_node28"><a xlink:href="id3v2header_8h.html" target="_top" xlink:title=" ">
<polygon fill="white" stroke="black" points="465,-112.5 465,-131.5 551,-131.5 551,-112.5 465,-112.5"/>
<text text-anchor="middle" x="508" y="-119.5" font-family="Helvetica,sans-Serif" font-size="10.00">id3v2header.h</text>
</a>
</g>
</g>
<!-- Node26&#45;&gt;Node28 -->
<g id="edge53" class="edge">
<title>Node26&#45;&gt;Node28</title>
<path fill="none" stroke="midnightblue" d="M573.51,-224.22C562.45,-215.93 546.48,-202.61 536,-188 525.71,-173.66 518.16,-154.96 513.5,-141.29"/>
<polygon fill="midnightblue" stroke="midnightblue" points="516.78,-140.05 510.4,-131.6 510.12,-142.19 516.78,-140.05"/>
</g>
<!-- Node27&#45;&gt;Node4 -->
<g id="edge51" class="edge">
<title>Node27&#45;&gt;Node4</title>
<path fill="none" stroke="midnightblue" d="M591.41,-168.37C602.75,-150.3 629.17,-108.18 644.14,-84.31"/>
<polygon fill="midnightblue" stroke="midnightblue" points="647.26,-85.92 649.61,-75.59 641.33,-82.2 647.26,-85.92"/>
</g>
<!-- Node27&#45;&gt;Node8 -->
<g id="edge52" class="edge">
<title>Node27&#45;&gt;Node8</title>
<path fill="none" stroke="midnightblue" d="M582.89,-168.48C578.25,-155.95 569.08,-131.9 560,-112 546.35,-82.07 528.41,-48.26 517.56,-28.33"/>
<polygon fill="midnightblue" stroke="midnightblue" points="520.6,-26.6 512.73,-19.51 514.47,-29.96 520.6,-26.6"/>
</g>
<!-- Node27&#45;&gt;Node13 -->
<g id="edge50" class="edge">
<title>Node27&#45;&gt;Node13</title>
<path fill="none" stroke="midnightblue" d="M618.01,-168.44C653.75,-158.89 711.57,-143.43 749.69,-133.24"/>
<polygon fill="midnightblue" stroke="midnightblue" points="750.65,-136.61 759.41,-130.64 748.84,-129.84 750.65,-136.61"/>
</g>
<!-- Node28&#45;&gt;Node4 -->
<g id="edge54" class="edge">
<title>Node28&#45;&gt;Node4</title>
<path fill="none" stroke="midnightblue" d="M531.29,-112.44C555.81,-103.44 594.6,-89.19 622.2,-79.05"/>
<polygon fill="midnightblue" stroke="midnightblue" points="623.64,-82.25 631.82,-75.52 621.22,-75.68 623.64,-82.25"/>
</g>
<!-- Node28&#45;&gt;Node8 -->
<g id="edge55" class="edge">
<title>Node28&#45;&gt;Node8</title>
<path fill="none" stroke="midnightblue" d="M508,-112.37C508,-94.62 508,-53.67 508,-29.6"/>
<polygon fill="midnightblue" stroke="midnightblue" points="511.5,-29.59 508,-19.59 504.5,-29.59 511.5,-29.59"/>
</g>
<!-- Node29&#45;&gt;Node4 -->
<g id="edge59" class="edge">
<title>Node29&#45;&gt;Node4</title>
<path fill="none" stroke="midnightblue" d="M838.84,-224.31C807.61,-197.58 712.7,-116.38 672.89,-82.3"/>
<polygon fill="midnightblue" stroke="midnightblue" points="674.93,-79.45 665.06,-75.61 670.38,-84.77 674.93,-79.45"/>
</g>
<!-- Node29&#45;&gt;Node8 -->
<g id="edge60" class="edge">
<title>Node29&#45;&gt;Node8</title>
<path fill="none" stroke="midnightblue" d="M862.28,-224.38C884.62,-209 928.94,-174.4 946,-132 962.7,-90.5 920.99,-73.91 880,-56 851.64,-43.61 659.85,-24.77 563.3,-15.92"/>
<polygon fill="midnightblue" stroke="midnightblue" points="563.42,-12.42 553.14,-14.99 562.78,-19.39 563.42,-12.42"/>
</g>
<!-- Node29&#45;&gt;Node12 -->
<g id="edge61" class="edge">
<title>Node29&#45;&gt;Node12</title>
<path fill="none" stroke="midnightblue" d="M850.16,-224.08C851.08,-216.93 852.42,-206.64 853.58,-197.69"/>
<polygon fill="midnightblue" stroke="midnightblue" points="857.05,-198.12 854.87,-187.75 850.11,-197.22 857.05,-198.12"/>
</g>
<!-- Node29&#45;&gt;Node13 -->
<g id="edge58" class="edge">
<title>Node29&#45;&gt;Node13</title>
<path fill="none" stroke="midnightblue" d="M844.21,-224.37C834.24,-206.38 811.04,-164.55 797.77,-140.63"/>
<polygon fill="midnightblue" stroke="midnightblue" points="800.67,-138.64 792.76,-131.59 794.55,-142.03 800.67,-138.64"/>
</g>
<!-- Node29&#45;&gt;Node20 -->
<g id="edge57" class="edge">
<title>Node29&#45;&gt;Node20</title>
<path fill="none" stroke="midnightblue" d="M879.24,-227.4C907.04,-221.17 948.44,-209.1 979,-188 1019.93,-159.74 1053.66,-110.61 1069.78,-84.49"/>
<polygon fill="midnightblue" stroke="midnightblue" points="1072.91,-86.07 1075.07,-75.7 1066.91,-82.46 1072.91,-86.07"/>
</g>
<!-- Node31 -->
<g id="node31" class="node">
<title>Node31</title>
<g id="a_node31"><a xlink:href="audioproperties_8h.html" target="_top" xlink:title=" ">
<polygon fill="white" stroke="black" points="234,-168.5 234,-187.5 336,-187.5 336,-168.5 234,-168.5"/>
<text text-anchor="middle" x="285" y="-175.5" font-family="Helvetica,sans-Serif" font-size="10.00">audioproperties.h</text>
</a>
</g>
</g>
<!-- Node30&#45;&gt;Node31 -->
<g id="edge63" class="edge">
<title>Node30&#45;&gt;Node31</title>
<path fill="none" stroke="midnightblue" d="M304.5,-280.3C294.13,-272.25 280.11,-259.24 274,-244 267.95,-228.91 272,-210.56 276.8,-197.21"/>
<polygon fill="midnightblue" stroke="midnightblue" points="280.13,-198.31 280.64,-187.73 273.64,-195.69 280.13,-198.31"/>
</g>
<!-- Node31&#45;&gt;Node5 -->
<g id="edge64" class="edge">
<title>Node31&#45;&gt;Node5</title>
<path fill="none" stroke="midnightblue" d="M301.24,-168.42C326.7,-155.17 377.79,-129.46 423,-112 502.34,-81.36 523.91,-78.26 606,-56 606.46,-55.87 701.48,-33.38 756.95,-20.24"/>
<polygon fill="midnightblue" stroke="midnightblue" points="757.9,-23.62 766.82,-17.91 756.28,-16.81 757.9,-23.62"/>
</g>
<!-- Node31&#45;&gt;Node8 -->
<g id="edge66" class="edge">
<title>Node31&#45;&gt;Node8</title>
<path fill="none" stroke="midnightblue" d="M283.83,-168.25C281.41,-146.12 278.37,-87.45 309,-56 328.69,-35.78 400.99,-23.29 452.77,-16.75"/>
<polygon fill="midnightblue" stroke="midnightblue" points="453.33,-20.21 462.83,-15.52 452.48,-13.26 453.33,-20.21"/>
</g>
<!-- Node31&#45;&gt;Node10 -->
<g id="edge65" class="edge">
<title>Node31&#45;&gt;Node10</title>
<path fill="none" stroke="midnightblue" d="M271.5,-168.32C258.4,-159.9 238.29,-146.97 222.89,-137.07"/>
<polygon fill="midnightblue" stroke="midnightblue" points="224.77,-134.12 214.46,-131.65 220.98,-140.01 224.77,-134.12"/>
</g>
</g>
</svg>
