<?xml version="1.0" encoding="UTF-8" standalone="no"?>
<!DOCTYPE svg PUBLIC "-//W3C//DTD SVG 1.1//EN"
 "http://www.w3.org/Graphics/SVG/1.1/DTD/svg11.dtd">
<!-- Generated by graphviz version 2.43.0 (0)
 -->
<!-- Title: wavfile.h Pages: 1 -->
<svg width="1594pt" height="420pt"
 viewBox="0.00 0.00 1593.53 420.00" xmlns="http://www.w3.org/2000/svg" xmlns:xlink="http://www.w3.org/1999/xlink">
<g id="graph0" class="graph" transform="scale(1 1) rotate(0) translate(4 416)">
<title>wavfile.h</title>
<polygon fill="white" stroke="transparent" points="-4,4 -4,-416 1589.53,-416 1589.53,4 -4,4"/>
<!-- Node1 -->
<g id="node1" class="node">
<title>Node1</title>
<g id="a_node1"><a xlink:title=" ">
<polygon fill="#bfbfbf" stroke="black" points="825,-392.5 825,-411.5 886,-411.5 886,-392.5 825,-392.5"/>
<text text-anchor="middle" x="855.5" y="-399.5" font-family="Helvetica,sans-Serif" font-size="10.00">wavfile.h</text>
</a>
</g>
</g>
<!-- Node2 -->
<g id="node2" class="node">
<title>Node2</title>
<g id="a_node2"><a xlink:href="rifffile_8h.html" target="_top" xlink:title=" ">
<polygon fill="white" stroke="black" points="985.5,-336.5 985.5,-355.5 1039.5,-355.5 1039.5,-336.5 985.5,-336.5"/>
<text text-anchor="middle" x="1012.5" y="-343.5" font-family="Helvetica,sans-Serif" font-size="10.00">rifffile.h</text>
</a>
</g>
</g>
<!-- Node1&#45;&gt;Node2 -->
<g id="edge1" class="edge">
<title>Node1&#45;&gt;Node2</title>
<path fill="none" stroke="midnightblue" d="M880.38,-392.44C906.79,-383.36 948.72,-368.94 978.24,-358.78"/>
<polygon fill="midnightblue" stroke="midnightblue" points="979.42,-362.08 987.74,-355.52 977.14,-355.46 979.42,-362.08"/>
</g>
<!-- Node26 -->
<g id="node26" class="node">
<title>Node26</title>
<g id="a_node26"><a xlink:href="id3v2tag_8h.html" target="_top" xlink:title=" ">
<polygon fill="white" stroke="black" points="852.5,-336.5 852.5,-355.5 920.5,-355.5 920.5,-336.5 852.5,-336.5"/>
<text text-anchor="middle" x="886.5" y="-343.5" font-family="Helvetica,sans-Serif" font-size="10.00">id3v2tag.h</text>
</a>
</g>
</g>
<!-- Node1&#45;&gt;Node26 -->
<g id="edge45" class="edge">
<title>Node1&#45;&gt;Node26</title>
<path fill="none" stroke="midnightblue" d="M860.62,-392.08C864.91,-384.61 871.16,-373.72 876.44,-364.52"/>
<polygon fill="midnightblue" stroke="midnightblue" points="879.53,-366.17 881.48,-355.75 873.46,-362.68 879.53,-366.17"/>
</g>
<!-- Node31 -->
<g id="node31" class="node">
<title>Node31</title>
<g id="a_node31"><a xlink:href="infotag_8h.html" target="_top" xlink:title=" ">
<polygon fill="white" stroke="black" points="780.5,-280.5 780.5,-299.5 840.5,-299.5 840.5,-280.5 780.5,-280.5"/>
<text text-anchor="middle" x="810.5" y="-287.5" font-family="Helvetica,sans-Serif" font-size="10.00">infotag.h</text>
</a>
</g>
</g>
<!-- Node1&#45;&gt;Node31 -->
<g id="edge64" class="edge">
<title>Node1&#45;&gt;Node31</title>
<path fill="none" stroke="midnightblue" d="M851.97,-392.37C844.64,-374.46 827.65,-332.92 817.84,-308.95"/>
<polygon fill="midnightblue" stroke="midnightblue" points="821.04,-307.52 814.01,-299.59 814.56,-310.17 821.04,-307.52"/>
</g>
<!-- Node34 -->
<g id="node34" class="node">
<title>Node34</title>
<g id="a_node34"><a xlink:href="wavproperties_8h.html" target="_top" xlink:title=" ">
<polygon fill="white" stroke="black" points="417,-168.5 417,-187.5 512,-187.5 512,-168.5 417,-168.5"/>
<text text-anchor="middle" x="464.5" y="-175.5" font-family="Helvetica,sans-Serif" font-size="10.00">wavproperties.h</text>
</a>
</g>
</g>
<!-- Node1&#45;&gt;Node34 -->
<g id="edge79" class="edge">
<title>Node1&#45;&gt;Node34</title>
<path fill="none" stroke="midnightblue" d="M839.43,-392.34C796.08,-368.93 673.19,-302.21 572.5,-244 542.79,-226.83 508.96,-206.31 487.2,-192.98"/>
<polygon fill="midnightblue" stroke="midnightblue" points="488.74,-189.82 478.39,-187.57 485.08,-195.79 488.74,-189.82"/>
</g>
<!-- Node3 -->
<g id="node3" class="node">
<title>Node3</title>
<g id="a_node3"><a xlink:href="tfile_8h.html" target="_top" xlink:title=" ">
<polygon fill="white" stroke="black" points="990.5,-280.5 990.5,-299.5 1034.5,-299.5 1034.5,-280.5 990.5,-280.5"/>
<text text-anchor="middle" x="1012.5" y="-287.5" font-family="Helvetica,sans-Serif" font-size="10.00">tfile.h</text>
</a>
</g>
</g>
<!-- Node2&#45;&gt;Node3 -->
<g id="edge2" class="edge">
<title>Node2&#45;&gt;Node3</title>
<path fill="none" stroke="midnightblue" d="M1012.5,-336.08C1012.5,-329.01 1012.5,-318.86 1012.5,-309.99"/>
<polygon fill="midnightblue" stroke="midnightblue" points="1016,-309.75 1012.5,-299.75 1009,-309.75 1016,-309.75"/>
</g>
<!-- Node12 -->
<g id="node12" class="node">
<title>Node12</title>
<g id="a_node12"><a xlink:href="taglib__export_8h.html" target="_top" xlink:title=" ">
<polygon fill="white" stroke="black" points="1110.5,-56.5 1110.5,-75.5 1200.5,-75.5 1200.5,-56.5 1110.5,-56.5"/>
<text text-anchor="middle" x="1155.5" y="-63.5" font-family="Helvetica,sans-Serif" font-size="10.00">taglib_export.h</text>
</a>
</g>
</g>
<!-- Node2&#45;&gt;Node12 -->
<g id="edge44" class="edge">
<title>Node2&#45;&gt;Node12</title>
<path fill="none" stroke="midnightblue" d="M1039.53,-344.47C1144.27,-342.18 1519.61,-331.81 1561.5,-300 1586.03,-281.38 1585.5,-265.8 1585.5,-235 1585.5,-235 1585.5,-235 1585.5,-177 1585.5,-146.2 1585.76,-130.97 1561.5,-112 1508.22,-70.33 1308.93,-65.77 1210.8,-66.16"/>
<polygon fill="midnightblue" stroke="midnightblue" points="1210.75,-62.66 1200.77,-66.22 1210.79,-69.66 1210.75,-62.66"/>
</g>
<!-- Node4 -->
<g id="node4" class="node">
<title>Node4</title>
<g id="a_node4"><a xlink:href="tbytevector_8h.html" target="_top" xlink:title=" ">
<polygon fill="white" stroke="black" points="932,-112.5 932,-131.5 1013,-131.5 1013,-112.5 932,-112.5"/>
<text text-anchor="middle" x="972.5" y="-119.5" font-family="Helvetica,sans-Serif" font-size="10.00">tbytevector.h</text>
</a>
</g>
</g>
<!-- Node3&#45;&gt;Node4 -->
<g id="edge3" class="edge">
<title>Node3&#45;&gt;Node4</title>
<path fill="none" stroke="midnightblue" d="M1010.35,-280.08C1004.05,-253.95 985.56,-177.21 976.98,-141.58"/>
<polygon fill="midnightblue" stroke="midnightblue" points="980.31,-140.47 974.56,-131.57 973.5,-142.11 980.31,-140.47"/>
</g>
<!-- Node8 -->
<g id="node8" class="node">
<title>Node8</title>
<g id="a_node8"><a xlink:href="taglib_8h.html" target="_top" xlink:title=" ">
<polygon fill="white" stroke="black" points="573,-56.5 573,-75.5 626,-75.5 626,-56.5 573,-56.5"/>
<text text-anchor="middle" x="599.5" y="-63.5" font-family="Helvetica,sans-Serif" font-size="10.00">taglib.h</text>
</a>
</g>
</g>
<!-- Node3&#45;&gt;Node8 -->
<g id="edge17" class="edge">
<title>Node3&#45;&gt;Node8</title>
<path fill="none" stroke="midnightblue" d="M990.11,-288.39C926.04,-286.25 743.43,-277.31 695.5,-244 639.57,-205.12 613.17,-122.89 603.74,-85.82"/>
<polygon fill="midnightblue" stroke="midnightblue" points="607.09,-84.77 601.35,-75.86 600.28,-86.41 607.09,-84.77"/>
</g>
<!-- Node3&#45;&gt;Node12 -->
<g id="edge16" class="edge">
<title>Node3&#45;&gt;Node12</title>
<path fill="none" stroke="midnightblue" d="M1034.85,-285.41C1100.46,-274.34 1289.85,-238.43 1321.5,-188 1336.66,-163.85 1306.02,-120.52 1296.5,-112 1272.78,-90.77 1238.99,-79.55 1210.44,-73.62"/>
<polygon fill="midnightblue" stroke="midnightblue" points="1211.06,-70.18 1200.58,-71.74 1209.75,-77.05 1211.06,-70.18"/>
</g>
<!-- Node13 -->
<g id="node13" class="node">
<title>Node13</title>
<g id="a_node13"><a xlink:href="tiostream_8h.html" target="_top" xlink:title=" ">
<polygon fill="white" stroke="black" points="1222,-168.5 1222,-187.5 1295,-187.5 1295,-168.5 1222,-168.5"/>
<text text-anchor="middle" x="1258.5" y="-175.5" font-family="Helvetica,sans-Serif" font-size="10.00">tiostream.h</text>
</a>
</g>
</g>
<!-- Node3&#45;&gt;Node13 -->
<g id="edge12" class="edge">
<title>Node3&#45;&gt;Node13</title>
<path fill="none" stroke="midnightblue" d="M1022.41,-280.42C1038.71,-266.7 1072.65,-239.79 1105.5,-224 1139.47,-207.67 1180.57,-195.99 1211.61,-188.62"/>
<polygon fill="midnightblue" stroke="midnightblue" points="1212.77,-191.95 1221.73,-186.29 1211.2,-185.13 1212.77,-191.95"/>
</g>
<!-- Node14 -->
<g id="node14" class="node">
<title>Node14</title>
<g id="a_node14"><a xlink:href="tag_8h.html" target="_top" xlink:title=" ">
<polygon fill="white" stroke="black" points="582,-224.5 582,-243.5 623,-243.5 623,-224.5 582,-224.5"/>
<text text-anchor="middle" x="602.5" y="-231.5" font-family="Helvetica,sans-Serif" font-size="10.00">tag.h</text>
</a>
</g>
</g>
<!-- Node3&#45;&gt;Node14 -->
<g id="edge18" class="edge">
<title>Node3&#45;&gt;Node14</title>
<path fill="none" stroke="midnightblue" d="M990.37,-287.37C932.18,-282.87 770.26,-268.92 637.5,-244 636.04,-243.73 634.54,-243.42 633.04,-243.1"/>
<polygon fill="midnightblue" stroke="midnightblue" points="633.66,-239.65 623.13,-240.79 632.07,-246.47 633.66,-239.65"/>
</g>
<!-- Node5 -->
<g id="node5" class="node">
<title>Node5</title>
<g id="a_node5"><a xlink:title=" ">
<polygon fill="white" stroke="#bfbfbf" points="749.5,-56.5 749.5,-75.5 809.5,-75.5 809.5,-56.5 749.5,-56.5"/>
<text text-anchor="middle" x="779.5" y="-63.5" font-family="Helvetica,sans-Serif" font-size="10.00">iostream</text>
</a>
</g>
</g>
<!-- Node4&#45;&gt;Node5 -->
<g id="edge4" class="edge">
<title>Node4&#45;&gt;Node5</title>
<path fill="none" stroke="midnightblue" d="M941.92,-112.44C908.79,-103.17 855.8,-88.35 819.41,-78.17"/>
<polygon fill="midnightblue" stroke="midnightblue" points="820.19,-74.75 809.62,-75.43 818.31,-81.49 820.19,-74.75"/>
</g>
<!-- Node6 -->
<g id="node6" class="node">
<title>Node6</title>
<g id="a_node6"><a xlink:title=" ">
<polygon fill="white" stroke="#bfbfbf" points="419.5,-56.5 419.5,-75.5 477.5,-75.5 477.5,-56.5 419.5,-56.5"/>
<text text-anchor="middle" x="448.5" y="-63.5" font-family="Helvetica,sans-Serif" font-size="10.00">memory</text>
</a>
</g>
</g>
<!-- Node4&#45;&gt;Node6 -->
<g id="edge5" class="edge">
<title>Node4&#45;&gt;Node6</title>
<path fill="none" stroke="midnightblue" d="M931.82,-116.81C833.66,-106.69 584.81,-81.05 487.94,-71.06"/>
<polygon fill="midnightblue" stroke="midnightblue" points="488.01,-67.55 477.7,-70.01 487.29,-74.52 488.01,-67.55"/>
</g>
<!-- Node7 -->
<g id="node7" class="node">
<title>Node7</title>
<g id="a_node7"><a xlink:title=" ">
<polygon fill="white" stroke="#bfbfbf" points="949,-56.5 949,-75.5 996,-75.5 996,-56.5 949,-56.5"/>
<text text-anchor="middle" x="972.5" y="-63.5" font-family="Helvetica,sans-Serif" font-size="10.00">vector</text>
</a>
</g>
</g>
<!-- Node4&#45;&gt;Node7 -->
<g id="edge6" class="edge">
<title>Node4&#45;&gt;Node7</title>
<path fill="none" stroke="midnightblue" d="M972.5,-112.08C972.5,-105.01 972.5,-94.86 972.5,-85.99"/>
<polygon fill="midnightblue" stroke="midnightblue" points="976,-85.75 972.5,-75.75 969,-85.75 976,-85.75"/>
</g>
<!-- Node4&#45;&gt;Node8 -->
<g id="edge7" class="edge">
<title>Node4&#45;&gt;Node8</title>
<path fill="none" stroke="midnightblue" d="M931.87,-115.12C858.78,-104.54 706.2,-82.45 636.12,-72.3"/>
<polygon fill="midnightblue" stroke="midnightblue" points="636.4,-68.81 626.01,-70.84 635.4,-75.73 636.4,-68.81"/>
</g>
<!-- Node4&#45;&gt;Node12 -->
<g id="edge11" class="edge">
<title>Node4&#45;&gt;Node12</title>
<path fill="none" stroke="midnightblue" d="M1001.5,-112.44C1032.68,-103.24 1082.43,-88.56 1116.91,-78.39"/>
<polygon fill="midnightblue" stroke="midnightblue" points="1118.04,-81.7 1126.64,-75.52 1116.06,-74.99 1118.04,-81.7"/>
</g>
<!-- Node9 -->
<g id="node9" class="node">
<title>Node9</title>
<g id="a_node9"><a xlink:title=" ">
<polygon fill="white" stroke="#bfbfbf" points="600.5,-0.5 600.5,-19.5 688.5,-19.5 688.5,-0.5 600.5,-0.5"/>
<text text-anchor="middle" x="644.5" y="-7.5" font-family="Helvetica,sans-Serif" font-size="10.00">taglib_config.h</text>
</a>
</g>
</g>
<!-- Node8&#45;&gt;Node9 -->
<g id="edge8" class="edge">
<title>Node8&#45;&gt;Node9</title>
<path fill="none" stroke="midnightblue" d="M606.93,-56.08C613.35,-48.38 622.81,-37.03 630.62,-27.65"/>
<polygon fill="midnightblue" stroke="midnightblue" points="633.49,-29.67 637.21,-19.75 628.12,-25.19 633.49,-29.67"/>
</g>
<!-- Node10 -->
<g id="node10" class="node">
<title>Node10</title>
<g id="a_node10"><a xlink:title=" ">
<polygon fill="white" stroke="#bfbfbf" points="510.5,-0.5 510.5,-19.5 582.5,-19.5 582.5,-0.5 510.5,-0.5"/>
<text text-anchor="middle" x="546.5" y="-7.5" font-family="Helvetica,sans-Serif" font-size="10.00">sys/types.h</text>
</a>
</g>
</g>
<!-- Node8&#45;&gt;Node10 -->
<g id="edge9" class="edge">
<title>Node8&#45;&gt;Node10</title>
<path fill="none" stroke="midnightblue" d="M590.75,-56.08C583.03,-48.22 571.6,-36.57 562.28,-27.08"/>
<polygon fill="midnightblue" stroke="midnightblue" points="564.59,-24.44 555.09,-19.75 559.6,-29.34 564.59,-24.44"/>
</g>
<!-- Node11 -->
<g id="node11" class="node">
<title>Node11</title>
<g id="a_node11"><a xlink:title=" ">
<polygon fill="white" stroke="#bfbfbf" points="797.5,-0.5 797.5,-19.5 841.5,-19.5 841.5,-0.5 797.5,-0.5"/>
<text text-anchor="middle" x="819.5" y="-7.5" font-family="Helvetica,sans-Serif" font-size="10.00">string</text>
</a>
</g>
</g>
<!-- Node8&#45;&gt;Node11 -->
<g id="edge10" class="edge">
<title>Node8&#45;&gt;Node11</title>
<path fill="none" stroke="midnightblue" d="M626.04,-58.49C666.67,-48.51 744.14,-29.5 787.71,-18.8"/>
<polygon fill="midnightblue" stroke="midnightblue" points="788.62,-22.18 797.5,-16.4 786.95,-15.38 788.62,-22.18"/>
</g>
<!-- Node13&#45;&gt;Node4 -->
<g id="edge13" class="edge">
<title>Node13&#45;&gt;Node4</title>
<path fill="none" stroke="midnightblue" d="M1221.99,-170.11C1171.56,-160.58 1080.36,-143.37 1023.3,-132.59"/>
<polygon fill="midnightblue" stroke="midnightblue" points="1023.89,-129.14 1013.41,-130.72 1022.59,-136.02 1023.89,-129.14"/>
</g>
<!-- Node13&#45;&gt;Node8 -->
<g id="edge15" class="edge">
<title>Node13&#45;&gt;Node8</title>
<path fill="none" stroke="midnightblue" d="M1232.87,-168.5C1189.74,-154.53 1099.68,-126.79 1021.5,-112 880.74,-85.37 710.36,-73.23 636.55,-68.94"/>
<polygon fill="midnightblue" stroke="midnightblue" points="636.56,-65.43 626.38,-68.36 636.17,-72.42 636.56,-65.43"/>
</g>
<!-- Node13&#45;&gt;Node12 -->
<g id="edge14" class="edge">
<title>Node13&#45;&gt;Node12</title>
<path fill="none" stroke="midnightblue" d="M1250.42,-168.37C1233.19,-149.97 1192.65,-106.67 1170.53,-83.05"/>
<polygon fill="midnightblue" stroke="midnightblue" points="1172.93,-80.5 1163.54,-75.59 1167.82,-85.28 1172.93,-80.5"/>
</g>
<!-- Node14&#45;&gt;Node12 -->
<g id="edge19" class="edge">
<title>Node14&#45;&gt;Node12</title>
<path fill="none" stroke="midnightblue" d="M623.21,-230.84C668.46,-225.83 779.32,-211.99 869.5,-188 939.08,-169.49 955.25,-160.19 1021.5,-132 1060.07,-115.59 1103.52,-93.9 1130.2,-80.2"/>
<polygon fill="midnightblue" stroke="midnightblue" points="1131.96,-83.23 1139.24,-75.53 1128.75,-77.01 1131.96,-83.23"/>
</g>
<!-- Node15 -->
<g id="node15" class="node">
<title>Node15</title>
<g id="a_node15"><a xlink:href="tstring_8h.html" target="_top" xlink:title=" ">
<polygon fill="white" stroke="black" points="804,-168.5 804,-187.5 861,-187.5 861,-168.5 804,-168.5"/>
<text text-anchor="middle" x="832.5" y="-175.5" font-family="Helvetica,sans-Serif" font-size="10.00">tstring.h</text>
</a>
</g>
</g>
<!-- Node14&#45;&gt;Node15 -->
<g id="edge20" class="edge">
<title>Node14&#45;&gt;Node15</title>
<path fill="none" stroke="midnightblue" d="M623.24,-228.15C656.81,-220.31 725.36,-204.28 793.78,-188.17"/>
<polygon fill="midnightblue" stroke="midnightblue" points="794.94,-191.49 803.87,-185.79 793.33,-184.68 794.94,-191.49"/>
</g>
<!-- Node16 -->
<g id="node16" class="node">
<title>Node16</title>
<g id="a_node16"><a xlink:href="tlist_8h.html" target="_top" xlink:title=" ">
<polygon fill="white" stroke="black" points="285.5,-112.5 285.5,-131.5 329.5,-131.5 329.5,-112.5 285.5,-112.5"/>
<text text-anchor="middle" x="307.5" y="-119.5" font-family="Helvetica,sans-Serif" font-size="10.00">tlist.h</text>
</a>
</g>
</g>
<!-- Node14&#45;&gt;Node16 -->
<g id="edge26" class="edge">
<title>Node14&#45;&gt;Node16</title>
<path fill="none" stroke="midnightblue" d="M581.7,-232.77C540,-231.51 444.19,-224.51 374.5,-188 352.18,-176.31 332.26,-154.84 320.05,-139.79"/>
<polygon fill="midnightblue" stroke="midnightblue" points="322.72,-137.51 313.8,-131.78 317.2,-141.82 322.72,-137.51"/>
</g>
<!-- Node20 -->
<g id="node20" class="node">
<title>Node20</title>
<g id="a_node20"><a xlink:href="tvariant_8h.html" target="_top" xlink:title=" ">
<polygon fill="white" stroke="black" points="530.5,-168.5 530.5,-187.5 594.5,-187.5 594.5,-168.5 530.5,-168.5"/>
<text text-anchor="middle" x="562.5" y="-175.5" font-family="Helvetica,sans-Serif" font-size="10.00">tvariant.h</text>
</a>
</g>
</g>
<!-- Node14&#45;&gt;Node20 -->
<g id="edge32" class="edge">
<title>Node14&#45;&gt;Node20</title>
<path fill="none" stroke="midnightblue" d="M595.89,-224.08C590.24,-216.46 581.96,-205.26 575.05,-195.94"/>
<polygon fill="midnightblue" stroke="midnightblue" points="577.75,-193.7 568.98,-187.75 572.12,-197.87 577.75,-193.7"/>
</g>
<!-- Node15&#45;&gt;Node4 -->
<g id="edge23" class="edge">
<title>Node15&#45;&gt;Node4</title>
<path fill="none" stroke="midnightblue" d="M854.68,-168.44C877.93,-159.48 914.65,-145.31 940.92,-135.18"/>
<polygon fill="midnightblue" stroke="midnightblue" points="942.35,-138.38 950.42,-131.52 939.83,-131.85 942.35,-138.38"/>
</g>
<!-- Node15&#45;&gt;Node5 -->
<g id="edge21" class="edge">
<title>Node15&#45;&gt;Node5</title>
<path fill="none" stroke="midnightblue" d="M828.34,-168.37C819.67,-150.38 799.52,-108.55 787.99,-84.63"/>
<polygon fill="midnightblue" stroke="midnightblue" points="791.13,-83.08 783.64,-75.59 784.83,-86.12 791.13,-83.08"/>
</g>
<!-- Node15&#45;&gt;Node8 -->
<g id="edge25" class="edge">
<title>Node15&#45;&gt;Node8</title>
<path fill="none" stroke="midnightblue" d="M814.22,-168.37C773.47,-149.13 675.01,-102.65 626.89,-79.93"/>
<polygon fill="midnightblue" stroke="midnightblue" points="628.24,-76.7 617.7,-75.59 625.25,-83.03 628.24,-76.7"/>
</g>
<!-- Node15&#45;&gt;Node11 -->
<g id="edge22" class="edge">
<title>Node15&#45;&gt;Node11</title>
<path fill="none" stroke="midnightblue" d="M831.8,-168.08C829.75,-141.95 823.75,-65.21 820.95,-29.58"/>
<polygon fill="midnightblue" stroke="midnightblue" points="824.44,-29.26 820.17,-19.57 817.46,-29.81 824.44,-29.26"/>
</g>
<!-- Node15&#45;&gt;Node12 -->
<g id="edge24" class="edge">
<title>Node15&#45;&gt;Node12</title>
<path fill="none" stroke="midnightblue" d="M841.63,-168.27C856.99,-154.09 889.6,-126.23 922.5,-112 980.22,-87.04 1051.95,-75.85 1100.45,-70.88"/>
<polygon fill="midnightblue" stroke="midnightblue" points="1100.82,-74.36 1110.44,-69.91 1100.15,-67.39 1100.82,-74.36"/>
</g>
<!-- Node16&#45;&gt;Node6 -->
<g id="edge29" class="edge">
<title>Node16&#45;&gt;Node6</title>
<path fill="none" stroke="midnightblue" d="M329.53,-112.56C352.88,-103.62 389.98,-89.41 416.54,-79.24"/>
<polygon fill="midnightblue" stroke="midnightblue" points="418.07,-82.4 426.16,-75.56 415.57,-75.86 418.07,-82.4"/>
</g>
<!-- Node16&#45;&gt;Node8 -->
<g id="edge30" class="edge">
<title>Node16&#45;&gt;Node8</title>
<path fill="none" stroke="midnightblue" d="M329.77,-114.21C332.7,-113.41 335.66,-112.65 338.5,-112 417.56,-93.77 511.63,-79.29 562.46,-72.05"/>
<polygon fill="midnightblue" stroke="midnightblue" points="563.21,-75.48 572.63,-70.62 562.24,-68.55 563.21,-75.48"/>
</g>
<!-- Node17 -->
<g id="node17" class="node">
<title>Node17</title>
<g id="a_node17"><a xlink:title=" ">
<polygon fill="white" stroke="#bfbfbf" points="369.5,-56.5 369.5,-75.5 401.5,-75.5 401.5,-56.5 369.5,-56.5"/>
<text text-anchor="middle" x="385.5" y="-63.5" font-family="Helvetica,sans-Serif" font-size="10.00">list</text>
</a>
</g>
</g>
<!-- Node16&#45;&gt;Node17 -->
<g id="edge27" class="edge">
<title>Node16&#45;&gt;Node17</title>
<path fill="none" stroke="midnightblue" d="M320.03,-112.32C332.09,-103.98 350.53,-91.21 364.77,-81.35"/>
<polygon fill="midnightblue" stroke="midnightblue" points="366.77,-84.22 373,-75.65 362.78,-78.47 366.77,-84.22"/>
</g>
<!-- Node18 -->
<g id="node18" class="node">
<title>Node18</title>
<g id="a_node18"><a xlink:title=" ">
<polygon fill="white" stroke="#bfbfbf" points="197,-56.5 197,-75.5 280,-75.5 280,-56.5 197,-56.5"/>
<text text-anchor="middle" x="238.5" y="-63.5" font-family="Helvetica,sans-Serif" font-size="10.00">initializer_list</text>
</a>
</g>
</g>
<!-- Node16&#45;&gt;Node18 -->
<g id="edge28" class="edge">
<title>Node16&#45;&gt;Node18</title>
<path fill="none" stroke="midnightblue" d="M296.41,-112.32C286.01,-104.18 270.24,-91.84 257.78,-82.09"/>
<polygon fill="midnightblue" stroke="midnightblue" points="259.82,-79.24 249.79,-75.83 255.51,-84.75 259.82,-79.24"/>
</g>
<!-- Node19 -->
<g id="node19" class="node">
<title>Node19</title>
<g id="a_node19"><a xlink:title=" ">
<polygon fill="white" stroke="#bfbfbf" points="298,-56.5 298,-75.5 351,-75.5 351,-56.5 298,-56.5"/>
<text text-anchor="middle" x="324.5" y="-63.5" font-family="Helvetica,sans-Serif" font-size="10.00">tlist.tcc</text>
</a>
</g>
</g>
<!-- Node16&#45;&gt;Node19 -->
<g id="edge31" class="edge">
<title>Node16&#45;&gt;Node19</title>
<path fill="none" stroke="midnightblue" d="M310.31,-112.08C312.58,-104.85 315.87,-94.41 318.71,-85.4"/>
<polygon fill="midnightblue" stroke="midnightblue" points="322.08,-86.34 321.75,-75.75 315.4,-84.24 322.08,-86.34"/>
</g>
<!-- Node20&#45;&gt;Node5 -->
<g id="edge34" class="edge">
<title>Node20&#45;&gt;Node5</title>
<path fill="none" stroke="midnightblue" d="M579.53,-168.37C617.32,-149.21 708.41,-103.04 753.43,-80.22"/>
<polygon fill="midnightblue" stroke="midnightblue" points="755.21,-83.23 762.55,-75.59 752.05,-76.99 755.21,-83.23"/>
</g>
<!-- Node20&#45;&gt;Node12 -->
<g id="edge43" class="edge">
<title>Node20&#45;&gt;Node12</title>
<path fill="none" stroke="midnightblue" d="M592.88,-168.45C641.9,-154.91 741.65,-128.37 827.5,-112 922.76,-93.83 1034.93,-80.07 1100.34,-72.79"/>
<polygon fill="midnightblue" stroke="midnightblue" points="1100.87,-76.25 1110.43,-71.68 1100.1,-69.3 1100.87,-76.25"/>
</g>
<!-- Node20&#45;&gt;Node16 -->
<g id="edge35" class="edge">
<title>Node20&#45;&gt;Node16</title>
<path fill="none" stroke="midnightblue" d="M530.41,-170.07C527.06,-169.36 523.71,-168.66 520.5,-168 442.89,-152.01 420.36,-151.53 339.9,-132.18"/>
<polygon fill="midnightblue" stroke="midnightblue" points="340.33,-128.68 329.79,-129.72 338.68,-135.48 340.33,-128.68"/>
</g>
<!-- Node21 -->
<g id="node21" class="node">
<title>Node21</title>
<g id="a_node21"><a xlink:title=" ">
<polygon fill="white" stroke="#bfbfbf" points="506,-112.5 506,-131.5 571,-131.5 571,-112.5 506,-112.5"/>
<text text-anchor="middle" x="538.5" y="-119.5" font-family="Helvetica,sans-Serif" font-size="10.00">memory.h</text>
</a>
</g>
</g>
<!-- Node20&#45;&gt;Node21 -->
<g id="edge33" class="edge">
<title>Node20&#45;&gt;Node21</title>
<path fill="none" stroke="midnightblue" d="M558.54,-168.08C555.29,-160.77 550.58,-150.18 546.55,-141.1"/>
<polygon fill="midnightblue" stroke="midnightblue" points="549.65,-139.47 542.39,-131.75 543.25,-142.31 549.65,-139.47"/>
</g>
<!-- Node22 -->
<g id="node22" class="node">
<title>Node22</title>
<g id="a_node22"><a xlink:href="tmap_8h.html" target="_top" xlink:title=" ">
<polygon fill="white" stroke="black" points="213,-112.5 213,-131.5 264,-131.5 264,-112.5 213,-112.5"/>
<text text-anchor="middle" x="238.5" y="-119.5" font-family="Helvetica,sans-Serif" font-size="10.00">tmap.h</text>
</a>
</g>
</g>
<!-- Node20&#45;&gt;Node22 -->
<g id="edge36" class="edge">
<title>Node20&#45;&gt;Node22</title>
<path fill="none" stroke="midnightblue" d="M530.44,-169.91C527.09,-169.23 523.73,-168.58 520.5,-168 412.63,-148.51 384.16,-152.65 276.5,-132 275.75,-131.86 274.99,-131.71 274.23,-131.56"/>
<polygon fill="midnightblue" stroke="midnightblue" points="274.7,-128.08 264.19,-129.4 273.23,-134.92 274.7,-128.08"/>
</g>
<!-- Node22&#45;&gt;Node6 -->
<g id="edge38" class="edge">
<title>Node22&#45;&gt;Node6</title>
<path fill="none" stroke="midnightblue" d="M264.25,-114.38C300.55,-105.04 367.06,-87.94 409.46,-77.04"/>
<polygon fill="midnightblue" stroke="midnightblue" points="410.35,-80.42 419.16,-74.54 408.61,-73.64 410.35,-80.42"/>
</g>
<!-- Node22&#45;&gt;Node8 -->
<g id="edge41" class="edge">
<title>Node22&#45;&gt;Node8</title>
<path fill="none" stroke="midnightblue" d="M264.19,-114.57C268.29,-113.64 272.5,-112.75 276.5,-112 379.65,-92.64 502.78,-77.72 562.86,-70.97"/>
<polygon fill="midnightblue" stroke="midnightblue" points="563.44,-74.42 572.99,-69.84 562.66,-67.47 563.44,-74.42"/>
</g>
<!-- Node22&#45;&gt;Node18 -->
<g id="edge39" class="edge">
<title>Node22&#45;&gt;Node18</title>
<path fill="none" stroke="midnightblue" d="M238.5,-112.08C238.5,-105.01 238.5,-94.86 238.5,-85.99"/>
<polygon fill="midnightblue" stroke="midnightblue" points="242,-85.75 238.5,-75.75 235,-85.75 242,-85.75"/>
</g>
<!-- Node23 -->
<g id="node23" class="node">
<title>Node23</title>
<g id="a_node23"><a xlink:title=" ">
<polygon fill="white" stroke="#bfbfbf" points="140.5,-56.5 140.5,-75.5 178.5,-75.5 178.5,-56.5 140.5,-56.5"/>
<text text-anchor="middle" x="159.5" y="-63.5" font-family="Helvetica,sans-Serif" font-size="10.00">map</text>
</a>
</g>
</g>
<!-- Node22&#45;&gt;Node23 -->
<g id="edge37" class="edge">
<title>Node22&#45;&gt;Node23</title>
<path fill="none" stroke="midnightblue" d="M225.81,-112.32C213.6,-103.98 194.92,-91.21 180.5,-81.35"/>
<polygon fill="midnightblue" stroke="midnightblue" points="182.39,-78.41 172.16,-75.65 178.44,-84.19 182.39,-78.41"/>
</g>
<!-- Node24 -->
<g id="node24" class="node">
<title>Node24</title>
<g id="a_node24"><a xlink:title=" ">
<polygon fill="white" stroke="#bfbfbf" points="0,-56.5 0,-75.5 45,-75.5 45,-56.5 0,-56.5"/>
<text text-anchor="middle" x="22.5" y="-63.5" font-family="Helvetica,sans-Serif" font-size="10.00">utility</text>
</a>
</g>
</g>
<!-- Node22&#45;&gt;Node24 -->
<g id="edge40" class="edge">
<title>Node22&#45;&gt;Node24</title>
<path fill="none" stroke="midnightblue" d="M212.97,-115.17C179.02,-107.32 116.92,-92.7 55.07,-76.34"/>
<polygon fill="midnightblue" stroke="midnightblue" points="55.72,-72.89 45.15,-73.7 53.92,-79.66 55.72,-72.89"/>
</g>
<!-- Node25 -->
<g id="node25" class="node">
<title>Node25</title>
<g id="a_node25"><a xlink:title=" ">
<polygon fill="white" stroke="#bfbfbf" points="63,-56.5 63,-75.5 122,-75.5 122,-56.5 63,-56.5"/>
<text text-anchor="middle" x="92.5" y="-63.5" font-family="Helvetica,sans-Serif" font-size="10.00">tmap.tcc</text>
</a>
</g>
</g>
<!-- Node22&#45;&gt;Node25 -->
<g id="edge42" class="edge">
<title>Node22&#45;&gt;Node25</title>
<path fill="none" stroke="midnightblue" d="M215.37,-112.44C191.02,-103.44 152.49,-89.19 125.08,-79.05"/>
<polygon fill="midnightblue" stroke="midnightblue" points="126.12,-75.7 115.53,-75.52 123.69,-82.27 126.12,-75.7"/>
</g>
<!-- Node26&#45;&gt;Node4 -->
<g id="edge46" class="edge">
<title>Node26&#45;&gt;Node4</title>
<path fill="none" stroke="midnightblue" d="M889.87,-336.3C902.58,-303.49 947.75,-186.88 965.38,-141.38"/>
<polygon fill="midnightblue" stroke="midnightblue" points="968.71,-142.47 969.06,-131.88 962.18,-139.94 968.71,-142.47"/>
</g>
<!-- Node26&#45;&gt;Node12 -->
<g id="edge50" class="edge">
<title>Node26&#45;&gt;Node12</title>
<path fill="none" stroke="midnightblue" d="M920.64,-341.51C1017.7,-331.57 1289.49,-303.57 1308.5,-300 1416.68,-279.65 1547.5,-345.08 1547.5,-235 1547.5,-235 1547.5,-235 1547.5,-177 1547.5,-107.93 1319.02,-80.21 1210.92,-70.96"/>
<polygon fill="midnightblue" stroke="midnightblue" points="1211.11,-67.46 1200.85,-70.12 1210.53,-74.44 1211.11,-67.46"/>
</g>
<!-- Node26&#45;&gt;Node14 -->
<g id="edge51" class="edge">
<title>Node26&#45;&gt;Node14</title>
<path fill="none" stroke="midnightblue" d="M864.21,-336.37C813.64,-316.78 690.12,-268.94 632.73,-246.71"/>
<polygon fill="midnightblue" stroke="midnightblue" points="633.73,-243.34 623.14,-242.99 631.2,-249.87 633.73,-243.34"/>
</g>
<!-- Node26&#45;&gt;Node15 -->
<g id="edge47" class="edge">
<title>Node26&#45;&gt;Node15</title>
<path fill="none" stroke="midnightblue" d="M883.6,-336.08C875.06,-309.83 849.92,-232.55 838.39,-197.12"/>
<polygon fill="midnightblue" stroke="midnightblue" points="841.71,-195.99 835.29,-187.57 835.05,-198.16 841.71,-195.99"/>
</g>
<!-- Node26&#45;&gt;Node16 -->
<g id="edge48" class="edge">
<title>Node26&#45;&gt;Node16</title>
<path fill="none" stroke="midnightblue" d="M852.66,-336.48C818.09,-327.68 762.92,-313.39 715.5,-300 549.75,-253.19 479.16,-295.4 344.5,-188 329.31,-175.88 319.23,-155.72 313.48,-141.05"/>
<polygon fill="midnightblue" stroke="midnightblue" points="316.74,-139.76 310.05,-131.54 310.15,-142.14 316.74,-139.76"/>
</g>
<!-- Node26&#45;&gt;Node22 -->
<g id="edge49" class="edge">
<title>Node26&#45;&gt;Node22</title>
<path fill="none" stroke="midnightblue" d="M852.22,-343.7C769.54,-339.37 554.28,-320.96 395.5,-244 337.69,-215.98 280.7,-164.48 254.08,-138.64"/>
<polygon fill="midnightblue" stroke="midnightblue" points="256.41,-136.03 246.83,-131.51 251.5,-141.01 256.41,-136.03"/>
</g>
<!-- Node27 -->
<g id="node27" class="node">
<title>Node27</title>
<g id="a_node27"><a xlink:href="id3v2_8h.html" target="_top" xlink:title=" ">
<polygon fill="white" stroke="black" points="1428,-168.5 1428,-187.5 1481,-187.5 1481,-168.5 1428,-168.5"/>
<text text-anchor="middle" x="1454.5" y="-175.5" font-family="Helvetica,sans-Serif" font-size="10.00">id3v2.h</text>
</a>
</g>
</g>
<!-- Node26&#45;&gt;Node27 -->
<g id="edge52" class="edge">
<title>Node26&#45;&gt;Node27</title>
<path fill="none" stroke="midnightblue" d="M920.74,-341.48C1038.07,-329.09 1418.51,-285.91 1452.5,-244 1462.82,-231.27 1462.08,-212.07 1459.5,-197.84"/>
<polygon fill="midnightblue" stroke="midnightblue" points="1462.83,-196.69 1457.22,-187.7 1456,-198.23 1462.83,-196.69"/>
</g>
<!-- Node28 -->
<g id="node28" class="node">
<title>Node28</title>
<g id="a_node28"><a xlink:href="id3v2framefactory_8h.html" target="_top" xlink:title=" ">
<polygon fill="white" stroke="black" points="1098,-280.5 1098,-299.5 1213,-299.5 1213,-280.5 1098,-280.5"/>
<text text-anchor="middle" x="1155.5" y="-287.5" font-family="Helvetica,sans-Serif" font-size="10.00">id3v2framefactory.h</text>
</a>
</g>
</g>
<!-- Node26&#45;&gt;Node28 -->
<g id="edge53" class="edge">
<title>Node26&#45;&gt;Node28</title>
<path fill="none" stroke="midnightblue" d="M920.57,-338.16C966.52,-328.94 1048.82,-312.42 1102.79,-301.58"/>
<polygon fill="midnightblue" stroke="midnightblue" points="1103.74,-304.96 1112.85,-299.56 1102.36,-298.1 1103.74,-304.96"/>
</g>
<!-- Node28&#45;&gt;Node4 -->
<g id="edge54" class="edge">
<title>Node28&#45;&gt;Node4</title>
<path fill="none" stroke="midnightblue" d="M1145.9,-280.39C1135.82,-271.34 1119.53,-256.69 1105.5,-244 1063.7,-206.18 1014.69,-161.5 989.44,-138.47"/>
<polygon fill="midnightblue" stroke="midnightblue" points="991.58,-135.68 981.84,-131.53 986.86,-140.85 991.58,-135.68"/>
</g>
<!-- Node28&#45;&gt;Node12 -->
<g id="edge55" class="edge">
<title>Node28&#45;&gt;Node12</title>
<path fill="none" stroke="midnightblue" d="M1213.01,-285.73C1287.86,-280.57 1413.68,-268.47 1452.5,-244 1477.94,-227.96 1481.67,-216.75 1490.5,-188 1506.38,-136.31 1446.12,-131 1395.5,-112 1334.55,-89.13 1260.35,-77.5 1210.74,-71.86"/>
<polygon fill="midnightblue" stroke="midnightblue" points="1210.86,-68.35 1200.54,-70.75 1210.1,-75.31 1210.86,-68.35"/>
</g>
<!-- Node29 -->
<g id="node29" class="node">
<title>Node29</title>
<g id="a_node29"><a xlink:href="id3v2frame_8h.html" target="_top" xlink:title=" ">
<polygon fill="white" stroke="black" points="1114.5,-224.5 1114.5,-243.5 1196.5,-243.5 1196.5,-224.5 1114.5,-224.5"/>
<text text-anchor="middle" x="1155.5" y="-231.5" font-family="Helvetica,sans-Serif" font-size="10.00">id3v2frame.h</text>
</a>
</g>
</g>
<!-- Node28&#45;&gt;Node29 -->
<g id="edge56" class="edge">
<title>Node28&#45;&gt;Node29</title>
<path fill="none" stroke="midnightblue" d="M1155.5,-280.08C1155.5,-273.01 1155.5,-262.86 1155.5,-253.99"/>
<polygon fill="midnightblue" stroke="midnightblue" points="1159,-253.75 1155.5,-243.75 1152,-253.75 1159,-253.75"/>
</g>
<!-- Node30 -->
<g id="node30" class="node">
<title>Node30</title>
<g id="a_node30"><a xlink:href="id3v2header_8h.html" target="_top" xlink:title=" ">
<polygon fill="white" stroke="black" points="1357.5,-224.5 1357.5,-243.5 1443.5,-243.5 1443.5,-224.5 1357.5,-224.5"/>
<text text-anchor="middle" x="1400.5" y="-231.5" font-family="Helvetica,sans-Serif" font-size="10.00">id3v2header.h</text>
</a>
</g>
</g>
<!-- Node28&#45;&gt;Node30 -->
<g id="edge60" class="edge">
<title>Node28&#45;&gt;Node30</title>
<path fill="none" stroke="midnightblue" d="M1194.32,-280.44C1237.06,-271.02 1305.83,-255.87 1352.07,-245.68"/>
<polygon fill="midnightblue" stroke="midnightblue" points="1352.85,-249.09 1361.86,-243.52 1351.34,-242.25 1352.85,-249.09"/>
</g>
<!-- Node29&#45;&gt;Node4 -->
<g id="edge58" class="edge">
<title>Node29&#45;&gt;Node4</title>
<path fill="none" stroke="midnightblue" d="M1143.07,-224.47C1124.36,-211.72 1087.71,-187.16 1055.5,-168 1036.66,-156.79 1014.85,-145.01 998.31,-136.32"/>
<polygon fill="midnightblue" stroke="midnightblue" points="999.74,-133.11 989.25,-131.58 996.49,-139.32 999.74,-133.11"/>
</g>
<!-- Node29&#45;&gt;Node12 -->
<g id="edge59" class="edge">
<title>Node29&#45;&gt;Node12</title>
<path fill="none" stroke="midnightblue" d="M1196.82,-233.1C1231.76,-230.72 1279.93,-221.08 1304.5,-188 1340.95,-138.91 1248.61,-98.03 1193.37,-78.81"/>
<polygon fill="midnightblue" stroke="midnightblue" points="1194.45,-75.48 1183.86,-75.59 1192.2,-82.11 1194.45,-75.48"/>
</g>
<!-- Node29&#45;&gt;Node15 -->
<g id="edge57" class="edge">
<title>Node29&#45;&gt;Node15</title>
<path fill="none" stroke="midnightblue" d="M1114.26,-226.11C1051.4,-215.6 932.46,-195.71 871.17,-185.46"/>
<polygon fill="midnightblue" stroke="midnightblue" points="871.57,-181.98 861.13,-183.79 870.42,-188.89 871.57,-181.98"/>
</g>
<!-- Node30&#45;&gt;Node4 -->
<g id="edge61" class="edge">
<title>Node30&#45;&gt;Node4</title>
<path fill="none" stroke="midnightblue" d="M1363.88,-224.5C1326.13,-215.66 1265.59,-201.29 1213.5,-188 1142.74,-169.95 1060.71,-147.5 1012.91,-134.26"/>
<polygon fill="midnightblue" stroke="midnightblue" points="1013.82,-130.88 1003.24,-131.58 1011.95,-137.63 1013.82,-130.88"/>
</g>
<!-- Node30&#45;&gt;Node12 -->
<g id="edge62" class="edge">
<title>Node30&#45;&gt;Node12</title>
<path fill="none" stroke="midnightblue" d="M1401.62,-224.21C1403.93,-201.97 1406.62,-143.06 1375.5,-112 1352.79,-89.33 1268.32,-77.21 1210.9,-71.44"/>
<polygon fill="midnightblue" stroke="midnightblue" points="1211.17,-67.95 1200.88,-70.47 1210.49,-74.92 1211.17,-67.95"/>
</g>
<!-- Node30&#45;&gt;Node27 -->
<g id="edge63" class="edge">
<title>Node30&#45;&gt;Node27</title>
<path fill="none" stroke="midnightblue" d="M1409.42,-224.08C1417.28,-216.22 1428.93,-204.57 1438.42,-195.08"/>
<polygon fill="midnightblue" stroke="midnightblue" points="1441.15,-197.3 1445.75,-187.75 1436.2,-192.35 1441.15,-197.3"/>
</g>
<!-- Node31&#45;&gt;Node4 -->
<g id="edge76" class="edge">
<title>Node31&#45;&gt;Node4</title>
<path fill="none" stroke="midnightblue" d="M816.92,-280.24C832.31,-259.51 873.05,-206.33 913.5,-168 925.27,-156.84 939.74,-145.78 951.4,-137.41"/>
<polygon fill="midnightblue" stroke="midnightblue" points="953.51,-140.2 959.68,-131.58 949.48,-134.47 953.51,-140.2"/>
</g>
<!-- Node31&#45;&gt;Node12 -->
<g id="edge77" class="edge">
<title>Node31&#45;&gt;Node12</title>
<path fill="none" stroke="midnightblue" d="M824.22,-280.41C861.72,-256.9 969.07,-189.42 1057.5,-132 1083.96,-114.82 1114.18,-94.7 1133.99,-81.44"/>
<polygon fill="midnightblue" stroke="midnightblue" points="1136.19,-84.18 1142.55,-75.7 1132.3,-78.36 1136.19,-84.18"/>
</g>
<!-- Node31&#45;&gt;Node14 -->
<g id="edge78" class="edge">
<title>Node31&#45;&gt;Node14</title>
<path fill="none" stroke="midnightblue" d="M780.26,-281.15C740.85,-270.92 672.33,-253.13 632.87,-242.88"/>
<polygon fill="midnightblue" stroke="midnightblue" points="633.58,-239.45 623.02,-240.33 631.82,-246.23 633.58,-239.45"/>
</g>
<!-- Node31&#45;&gt;Node15 -->
<g id="edge66" class="edge">
<title>Node31&#45;&gt;Node15</title>
<path fill="none" stroke="midnightblue" d="M812.23,-280.37C815.78,-262.62 823.97,-221.67 828.78,-197.6"/>
<polygon fill="midnightblue" stroke="midnightblue" points="832.25,-198.08 830.78,-187.59 825.39,-196.71 832.25,-198.08"/>
</g>
<!-- Node31&#45;&gt;Node22 -->
<g id="edge65" class="edge">
<title>Node31&#45;&gt;Node22</title>
<path fill="none" stroke="midnightblue" d="M780.48,-286.3C704.72,-278.69 500.72,-253.22 344.5,-188 312.4,-174.6 278.71,-152.31 258.15,-137.64"/>
<polygon fill="midnightblue" stroke="midnightblue" points="260.08,-134.72 249.93,-131.68 255.97,-140.38 260.08,-134.72"/>
</g>
<!-- Node32 -->
<g id="node32" class="node">
<title>Node32</title>
<g id="a_node32"><a xlink:href="tstringlist_8h.html" target="_top" xlink:title=" ">
<polygon fill="white" stroke="black" points="704.5,-224.5 704.5,-243.5 776.5,-243.5 776.5,-224.5 704.5,-224.5"/>
<text text-anchor="middle" x="740.5" y="-231.5" font-family="Helvetica,sans-Serif" font-size="10.00">tstringlist.h</text>
</a>
</g>
</g>
<!-- Node31&#45;&gt;Node32 -->
<g id="edge67" class="edge">
<title>Node31&#45;&gt;Node32</title>
<path fill="none" stroke="midnightblue" d="M799.25,-280.32C788.7,-272.18 772.7,-259.84 760.06,-250.09"/>
<polygon fill="midnightblue" stroke="midnightblue" points="762.01,-247.17 751.95,-243.83 757.73,-252.71 762.01,-247.17"/>
</g>
<!-- Node32&#45;&gt;Node5 -->
<g id="edge68" class="edge">
<title>Node32&#45;&gt;Node5</title>
<path fill="none" stroke="midnightblue" d="M720.59,-224.41C706.28,-217.04 688.04,-204.92 679.5,-188 675.49,-180.07 676.12,-176.22 679.5,-168 695.22,-129.79 733.15,-98.36 757.52,-81.18"/>
<polygon fill="midnightblue" stroke="midnightblue" points="759.53,-84.04 765.82,-75.51 755.59,-78.26 759.53,-84.04"/>
</g>
<!-- Node32&#45;&gt;Node12 -->
<g id="edge75" class="edge">
<title>Node32&#45;&gt;Node12</title>
<path fill="none" stroke="midnightblue" d="M765.76,-224.33C791.8,-215.37 833.55,-200.89 869.5,-188 937.27,-163.7 955.25,-160.19 1021.5,-132 1060.07,-115.59 1103.52,-93.9 1130.2,-80.2"/>
<polygon fill="midnightblue" stroke="midnightblue" points="1131.96,-83.23 1139.24,-75.53 1128.75,-77.01 1131.96,-83.23"/>
</g>
<!-- Node32&#45;&gt;Node15 -->
<g id="edge69" class="edge">
<title>Node32&#45;&gt;Node15</title>
<path fill="none" stroke="midnightblue" d="M755.28,-224.32C769.77,-215.82 792.07,-202.73 808.99,-192.8"/>
<polygon fill="midnightblue" stroke="midnightblue" points="810.9,-195.74 817.76,-187.65 807.36,-189.7 810.9,-195.74"/>
</g>
<!-- Node32&#45;&gt;Node16 -->
<g id="edge70" class="edge">
<title>Node32&#45;&gt;Node16</title>
<path fill="none" stroke="midnightblue" d="M704.46,-230.14C629.95,-223.9 461.44,-208.02 407.5,-188 403.21,-186.41 357.12,-155.99 329.03,-137.34"/>
<polygon fill="midnightblue" stroke="midnightblue" points="330.89,-134.37 320.62,-131.75 327.01,-140.2 330.89,-134.37"/>
</g>
<!-- Node33 -->
<g id="node33" class="node">
<title>Node33</title>
<g id="a_node33"><a xlink:href="tbytevectorlist_8h.html" target="_top" xlink:title=" ">
<polygon fill="white" stroke="black" points="689,-168.5 689,-187.5 786,-187.5 786,-168.5 689,-168.5"/>
<text text-anchor="middle" x="737.5" y="-175.5" font-family="Helvetica,sans-Serif" font-size="10.00">tbytevectorlist.h</text>
</a>
</g>
</g>
<!-- Node32&#45;&gt;Node33 -->
<g id="edge71" class="edge">
<title>Node32&#45;&gt;Node33</title>
<path fill="none" stroke="midnightblue" d="M740,-224.08C739.61,-217.01 739.05,-206.86 738.55,-197.99"/>
<polygon fill="midnightblue" stroke="midnightblue" points="742.04,-197.54 737.99,-187.75 735.05,-197.93 742.04,-197.54"/>
</g>
<!-- Node33&#45;&gt;Node4 -->
<g id="edge72" class="edge">
<title>Node33&#45;&gt;Node4</title>
<path fill="none" stroke="midnightblue" d="M774.74,-168.44C815.56,-159.06 881.14,-143.99 925.48,-133.8"/>
<polygon fill="midnightblue" stroke="midnightblue" points="926.48,-137.17 935.44,-131.52 924.91,-130.34 926.48,-137.17"/>
</g>
<!-- Node33&#45;&gt;Node12 -->
<g id="edge74" class="edge">
<title>Node33&#45;&gt;Node12</title>
<path fill="none" stroke="midnightblue" d="M753.31,-168.41C779.7,-154.44 834.77,-126.86 884.5,-112 957.42,-90.21 1044.72,-78.1 1100.15,-72.07"/>
<polygon fill="midnightblue" stroke="midnightblue" points="1100.54,-75.55 1110.12,-71.01 1099.8,-68.59 1100.54,-75.55"/>
</g>
<!-- Node33&#45;&gt;Node16 -->
<g id="edge73" class="edge">
<title>Node33&#45;&gt;Node16</title>
<path fill="none" stroke="midnightblue" d="M688.88,-174.19C615.17,-169.35 470.7,-157.58 339.56,-131.9"/>
<polygon fill="midnightblue" stroke="midnightblue" points="340.23,-128.47 329.74,-129.95 338.86,-135.33 340.23,-128.47"/>
</g>
<!-- Node34&#45;&gt;Node8 -->
<g id="edge80" class="edge">
<title>Node34&#45;&gt;Node8</title>
<path fill="none" stroke="midnightblue" d="M466.7,-168.26C470.56,-154.57 479.77,-127.99 496.5,-112 515.01,-94.31 541.61,-82.93 563.14,-76.04"/>
<polygon fill="midnightblue" stroke="midnightblue" points="564.36,-79.33 572.93,-73.1 562.35,-72.63 564.36,-79.33"/>
</g>
<!-- Node35 -->
<g id="node35" class="node">
<title>Node35</title>
<g id="a_node35"><a xlink:href="audioproperties_8h.html" target="_top" xlink:title=" ">
<polygon fill="white" stroke="black" points="347.5,-112.5 347.5,-131.5 449.5,-131.5 449.5,-112.5 347.5,-112.5"/>
<text text-anchor="middle" x="398.5" y="-119.5" font-family="Helvetica,sans-Serif" font-size="10.00">audioproperties.h</text>
</a>
</g>
</g>
<!-- Node34&#45;&gt;Node35 -->
<g id="edge81" class="edge">
<title>Node34&#45;&gt;Node35</title>
<path fill="none" stroke="midnightblue" d="M453.9,-168.32C444.04,-160.26 429.15,-148.08 417.28,-138.37"/>
<polygon fill="midnightblue" stroke="midnightblue" points="419.25,-135.46 409.3,-131.83 414.82,-140.88 419.25,-135.46"/>
</g>
<!-- Node35&#45;&gt;Node6 -->
<g id="edge82" class="edge">
<title>Node35&#45;&gt;Node6</title>
<path fill="none" stroke="midnightblue" d="M406.76,-112.08C413.96,-104.3 424.61,-92.8 433.35,-83.37"/>
<polygon fill="midnightblue" stroke="midnightblue" points="436.17,-85.47 440.4,-75.75 431.03,-80.71 436.17,-85.47"/>
</g>
<!-- Node35&#45;&gt;Node8 -->
<g id="edge83" class="edge">
<title>Node35&#45;&gt;Node8</title>
<path fill="none" stroke="midnightblue" d="M430.35,-112.44C466.37,-102.77 524.93,-87.03 562.83,-76.85"/>
<polygon fill="midnightblue" stroke="midnightblue" points="564.19,-80.11 572.94,-74.14 562.37,-73.35 564.19,-80.11"/>
</g>
<!-- Node35&#45;&gt;Node12 -->
<g id="edge84" class="edge">
<title>Node35&#45;&gt;Node12</title>
<path fill="none" stroke="midnightblue" d="M449.6,-116.08C464.69,-114.69 481.26,-113.22 496.5,-112 720.14,-94.1 986.84,-77.28 1100.17,-70.34"/>
<polygon fill="midnightblue" stroke="midnightblue" points="1100.56,-73.82 1110.33,-69.72 1100.14,-66.84 1100.56,-73.82"/>
</g>
</g>
</svg>
