<?xml version="1.0" encoding="UTF-8" standalone="no"?>
<!DOCTYPE svg PUBLIC "-//W3C//DTD SVG 1.1//EN"
 "http://www.w3.org/Graphics/SVG/1.1/DTD/svg11.dtd">
<!-- Generated by graphviz version 2.46.1 (20210213.1702)
 -->
<!-- Title: wavfile.h Pages: 1 -->
<svg width="1334pt" height="420pt"
 viewBox="0.00 0.00 1334.00 420.00" xmlns="http://www.w3.org/2000/svg" xmlns:xlink="http://www.w3.org/1999/xlink">
<g id="graph0" class="graph" transform="scale(1 1) rotate(0) translate(4 416)">
<title>wavfile.h</title>
<polygon fill="white" stroke="transparent" points="-4,4 -4,-416 1330,-416 1330,4 -4,4"/>
<!-- Node1 -->
<g id="node1" class="node">
<title>Node1</title>
<g id="a_node1"><a xlink:title=" ">
<polygon fill="#bfbfbf" stroke="black" points="514.5,-392.5 514.5,-411.5 570.5,-411.5 570.5,-392.5 514.5,-392.5"/>
<text text-anchor="middle" x="542.5" y="-399.5" font-family="Helvetica,sans-Serif" font-size="10.00">wavfile.h</text>
</a>
</g>
</g>
<!-- Node2 -->
<g id="node2" class="node">
<title>Node2</title>
<g id="a_node2"><a xlink:href="rifffile_8h.html" target="_top" xlink:title=" ">
<polygon fill="white" stroke="black" points="329,-336.5 329,-355.5 378,-355.5 378,-336.5 329,-336.5"/>
<text text-anchor="middle" x="353.5" y="-343.5" font-family="Helvetica,sans-Serif" font-size="10.00">rifffile.h</text>
</a>
</g>
</g>
<!-- Node1&#45;&gt;Node2 -->
<g id="edge1" class="edge">
<title>Node1&#45;&gt;Node2</title>
<path fill="none" stroke="midnightblue" d="M514.2,-392.92C480.41,-383.26 423.92,-367.12 387.71,-356.77"/>
<polygon fill="midnightblue" stroke="midnightblue" points="388.65,-353.4 378.07,-354.02 386.73,-360.13 388.65,-353.4"/>
</g>
<!-- Node14 -->
<g id="node14" class="node">
<title>Node14</title>
<g id="a_node14"><a xlink:href="id3v2tag_8h.html" target="_top" xlink:title=" ">
<polygon fill="white" stroke="black" points="700.5,-336.5 700.5,-355.5 762.5,-355.5 762.5,-336.5 700.5,-336.5"/>
<text text-anchor="middle" x="731.5" y="-343.5" font-family="Helvetica,sans-Serif" font-size="10.00">id3v2tag.h</text>
</a>
</g>
</g>
<!-- Node1&#45;&gt;Node14 -->
<g id="edge25" class="edge">
<title>Node1&#45;&gt;Node14</title>
<path fill="none" stroke="midnightblue" d="M570.8,-392.92C602.89,-383.74 655.47,-368.72 691.69,-358.37"/>
<polygon fill="midnightblue" stroke="midnightblue" points="692.79,-361.7 701.45,-355.59 690.87,-354.97 692.79,-361.7"/>
</g>
<!-- Node25 -->
<g id="node25" class="node">
<title>Node25</title>
<g id="a_node25"><a xlink:href="infotag_8h.html" target="_top" xlink:title=" ">
<polygon fill="white" stroke="black" points="919.5,-280.5 919.5,-299.5 973.5,-299.5 973.5,-280.5 919.5,-280.5"/>
<text text-anchor="middle" x="946.5" y="-287.5" font-family="Helvetica,sans-Serif" font-size="10.00">infotag.h</text>
</a>
</g>
</g>
<!-- Node1&#45;&gt;Node25 -->
<g id="edge50" class="edge">
<title>Node1&#45;&gt;Node25</title>
<path fill="none" stroke="midnightblue" d="M570.69,-396.96C614.25,-390.39 700.33,-376.07 771.5,-356 823.88,-341.23 882.84,-317.87 917.21,-303.54"/>
<polygon fill="midnightblue" stroke="midnightblue" points="918.78,-306.68 926.64,-299.58 916.07,-300.23 918.78,-306.68"/>
</g>
<!-- Node28 -->
<g id="node28" class="node">
<title>Node28</title>
<g id="a_node28"><a xlink:href="wavproperties_8h.html" target="_top" xlink:title=" ">
<polygon fill="white" stroke="black" points="5.5,-168.5 5.5,-187.5 91.5,-187.5 91.5,-168.5 5.5,-168.5"/>
<text text-anchor="middle" x="48.5" y="-175.5" font-family="Helvetica,sans-Serif" font-size="10.00">wavproperties.h</text>
</a>
</g>
</g>
<!-- Node1&#45;&gt;Node28 -->
<g id="edge65" class="edge">
<title>Node1&#45;&gt;Node28</title>
<path fill="none" stroke="midnightblue" d="M514.45,-397.82C428.24,-387.55 169.17,-352.83 105.5,-300 73.29,-273.27 58.18,-224.19 52.06,-197.49"/>
<polygon fill="midnightblue" stroke="midnightblue" points="55.45,-196.61 49.96,-187.55 48.6,-198.06 55.45,-196.61"/>
</g>
<!-- Node3 -->
<g id="node3" class="node">
<title>Node3</title>
<g id="a_node3"><a xlink:href="taglib__export_8h.html" target="_top" xlink:title=" ">
<polygon fill="white" stroke="black" points="457.5,-56.5 457.5,-75.5 537.5,-75.5 537.5,-56.5 457.5,-56.5"/>
<text text-anchor="middle" x="497.5" y="-63.5" font-family="Helvetica,sans-Serif" font-size="10.00">taglib_export.h</text>
</a>
</g>
</g>
<!-- Node2&#45;&gt;Node3 -->
<g id="edge2" class="edge">
<title>Node2&#45;&gt;Node3</title>
<path fill="none" stroke="midnightblue" d="M328.85,-342.69C279.54,-337.6 171.11,-323.93 143.5,-300 120.23,-279.83 119.5,-265.8 119.5,-235 119.5,-235 119.5,-235 119.5,-177 119.5,-146.2 119.4,-131.17 143.5,-112 189.4,-75.5 360.99,-68.38 447.28,-67.14"/>
<polygon fill="midnightblue" stroke="midnightblue" points="447.41,-70.64 457.37,-67.02 447.33,-63.64 447.41,-70.64"/>
</g>
<!-- Node4 -->
<g id="node4" class="node">
<title>Node4</title>
<g id="a_node4"><a xlink:href="tfile_8h.html" target="_top" xlink:title=" ">
<polygon fill="white" stroke="black" points="333,-280.5 333,-299.5 374,-299.5 374,-280.5 333,-280.5"/>
<text text-anchor="middle" x="353.5" y="-287.5" font-family="Helvetica,sans-Serif" font-size="10.00">tfile.h</text>
</a>
</g>
</g>
<!-- Node2&#45;&gt;Node4 -->
<g id="edge3" class="edge">
<title>Node2&#45;&gt;Node4</title>
<path fill="none" stroke="midnightblue" d="M353.5,-336.08C353.5,-329.01 353.5,-318.86 353.5,-309.99"/>
<polygon fill="midnightblue" stroke="midnightblue" points="357,-309.75 353.5,-299.75 350,-309.75 357,-309.75"/>
</g>
<!-- Node4&#45;&gt;Node3 -->
<g id="edge4" class="edge">
<title>Node4&#45;&gt;Node3</title>
<path fill="none" stroke="midnightblue" d="M336.69,-280.3C310.17,-265.49 259.58,-232.61 239.5,-188 230.17,-167.26 245.01,-119.15 252.5,-112 279.8,-85.94 383.75,-74.5 447.15,-69.85"/>
<polygon fill="midnightblue" stroke="midnightblue" points="447.61,-73.33 457.34,-69.14 447.12,-66.35 447.61,-73.33"/>
</g>
<!-- Node5 -->
<g id="node5" class="node">
<title>Node5</title>
<g id="a_node5"><a xlink:href="taglib_8h.html" target="_top" xlink:title=" ">
<polygon fill="white" stroke="black" points="682.5,-56.5 682.5,-75.5 730.5,-75.5 730.5,-56.5 682.5,-56.5"/>
<text text-anchor="middle" x="706.5" y="-63.5" font-family="Helvetica,sans-Serif" font-size="10.00">taglib.h</text>
</a>
</g>
</g>
<!-- Node4&#45;&gt;Node5 -->
<g id="edge5" class="edge">
<title>Node4&#45;&gt;Node5</title>
<path fill="none" stroke="midnightblue" d="M353.47,-280.38C353.88,-258.05 358.29,-197.94 392.5,-168 435.04,-130.77 460.6,-149.07 514.5,-132 570.24,-114.35 634.51,-92.23 672.75,-78.88"/>
<polygon fill="midnightblue" stroke="midnightblue" points="674.07,-82.12 682.35,-75.52 671.76,-75.52 674.07,-82.12"/>
</g>
<!-- Node8 -->
<g id="node8" class="node">
<title>Node8</title>
<g id="a_node8"><a xlink:href="tag_8h.html" target="_top" xlink:title=" ">
<polygon fill="white" stroke="black" points="759.5,-224.5 759.5,-243.5 797.5,-243.5 797.5,-224.5 759.5,-224.5"/>
<text text-anchor="middle" x="778.5" y="-231.5" font-family="Helvetica,sans-Serif" font-size="10.00">tag.h</text>
</a>
</g>
</g>
<!-- Node4&#45;&gt;Node8 -->
<g id="edge8" class="edge">
<title>Node4&#45;&gt;Node8</title>
<path fill="none" stroke="midnightblue" d="M374.15,-286.49C429.17,-279.79 583.89,-260.83 712.5,-244 724.62,-242.41 737.97,-240.6 749.48,-239.03"/>
<polygon fill="midnightblue" stroke="midnightblue" points="750.02,-242.49 759.45,-237.65 749.06,-235.55 750.02,-242.49"/>
</g>
<!-- Node10 -->
<g id="node10" class="node">
<title>Node10</title>
<g id="a_node10"><a xlink:href="tbytevector_8h.html" target="_top" xlink:title=" ">
<polygon fill="white" stroke="black" points="670,-112.5 670,-131.5 743,-131.5 743,-112.5 670,-112.5"/>
<text text-anchor="middle" x="706.5" y="-119.5" font-family="Helvetica,sans-Serif" font-size="10.00">tbytevector.h</text>
</a>
</g>
</g>
<!-- Node4&#45;&gt;Node10 -->
<g id="edge20" class="edge">
<title>Node4&#45;&gt;Node10</title>
<path fill="none" stroke="midnightblue" d="M356.49,-280.45C365.44,-255.34 392.64,-182.62 412.5,-168 422.36,-160.74 579.1,-139.52 659.58,-129.03"/>
<polygon fill="midnightblue" stroke="midnightblue" points="660.47,-132.44 669.94,-127.68 659.57,-125.5 660.47,-132.44"/>
</g>
<!-- Node13 -->
<g id="node13" class="node">
<title>Node13</title>
<g id="a_node13"><a xlink:href="tiostream_8h.html" target="_top" xlink:title=" ">
<polygon fill="white" stroke="black" points="262,-168.5 262,-187.5 327,-187.5 327,-168.5 262,-168.5"/>
<text text-anchor="middle" x="294.5" y="-175.5" font-family="Helvetica,sans-Serif" font-size="10.00">tiostream.h</text>
</a>
</g>
</g>
<!-- Node4&#45;&gt;Node13 -->
<g id="edge21" class="edge">
<title>Node4&#45;&gt;Node13</title>
<path fill="none" stroke="midnightblue" d="M348.87,-280.37C339.22,-262.38 316.79,-220.55 303.95,-196.63"/>
<polygon fill="midnightblue" stroke="midnightblue" points="306.92,-194.75 299.11,-187.59 300.75,-198.06 306.92,-194.75"/>
</g>
<!-- Node6 -->
<g id="node6" class="node">
<title>Node6</title>
<g id="a_node6"><a xlink:title=" ">
<polygon fill="white" stroke="#bfbfbf" points="666.5,-0.5 666.5,-19.5 746.5,-19.5 746.5,-0.5 666.5,-0.5"/>
<text text-anchor="middle" x="706.5" y="-7.5" font-family="Helvetica,sans-Serif" font-size="10.00">taglib_config.h</text>
</a>
</g>
</g>
<!-- Node5&#45;&gt;Node6 -->
<g id="edge6" class="edge">
<title>Node5&#45;&gt;Node6</title>
<path fill="none" stroke="midnightblue" d="M706.5,-56.08C706.5,-49.01 706.5,-38.86 706.5,-29.99"/>
<polygon fill="midnightblue" stroke="midnightblue" points="710,-29.75 706.5,-19.75 703,-29.75 710,-29.75"/>
</g>
<!-- Node7 -->
<g id="node7" class="node">
<title>Node7</title>
<g id="a_node7"><a xlink:title=" ">
<polygon fill="white" stroke="#bfbfbf" points="963,-0.5 963,-19.5 1004,-19.5 1004,-0.5 963,-0.5"/>
<text text-anchor="middle" x="983.5" y="-7.5" font-family="Helvetica,sans-Serif" font-size="10.00">string</text>
</a>
</g>
</g>
<!-- Node5&#45;&gt;Node7 -->
<g id="edge7" class="edge">
<title>Node5&#45;&gt;Node7</title>
<path fill="none" stroke="midnightblue" d="M730.59,-58.18C733.58,-57.41 736.61,-56.66 739.5,-56 815.67,-38.62 906.39,-23.28 952.8,-15.81"/>
<polygon fill="midnightblue" stroke="midnightblue" points="953.49,-19.25 962.81,-14.21 952.39,-12.33 953.49,-19.25"/>
</g>
<!-- Node8&#45;&gt;Node3 -->
<g id="edge9" class="edge">
<title>Node8&#45;&gt;Node3</title>
<path fill="none" stroke="midnightblue" d="M763.79,-224.31C717.89,-197.19 577.03,-113.98 520.92,-80.83"/>
<polygon fill="midnightblue" stroke="midnightblue" points="522.46,-77.68 512.07,-75.61 518.9,-83.7 522.46,-77.68"/>
</g>
<!-- Node9 -->
<g id="node9" class="node">
<title>Node9</title>
<g id="a_node9"><a xlink:href="tstring_8h.html" target="_top" xlink:title=" ">
<polygon fill="white" stroke="black" points="956.5,-168.5 956.5,-187.5 1008.5,-187.5 1008.5,-168.5 956.5,-168.5"/>
<text text-anchor="middle" x="982.5" y="-175.5" font-family="Helvetica,sans-Serif" font-size="10.00">tstring.h</text>
</a>
</g>
</g>
<!-- Node8&#45;&gt;Node9 -->
<g id="edge10" class="edge">
<title>Node8&#45;&gt;Node9</title>
<path fill="none" stroke="midnightblue" d="M797.8,-226.86C801.03,-225.88 804.36,-224.89 807.5,-224 855.3,-210.45 910.93,-196.44 946.41,-187.73"/>
<polygon fill="midnightblue" stroke="midnightblue" points="947.42,-191.09 956.3,-185.31 945.76,-184.29 947.42,-191.09"/>
</g>
<!-- Node9&#45;&gt;Node3 -->
<g id="edge11" class="edge">
<title>Node9&#45;&gt;Node3</title>
<path fill="none" stroke="midnightblue" d="M956.16,-168.62C913.65,-155.3 827.13,-129.08 752.5,-112 681.84,-95.82 599.02,-82.17 547.4,-74.28"/>
<polygon fill="midnightblue" stroke="midnightblue" points="547.91,-70.82 537.5,-72.78 546.86,-77.74 547.91,-70.82"/>
</g>
<!-- Node9&#45;&gt;Node5 -->
<g id="edge12" class="edge">
<title>Node9&#45;&gt;Node5</title>
<path fill="none" stroke="midnightblue" d="M979.19,-168.18C973.34,-153.88 959.74,-125.83 938.5,-112 865.84,-64.67 829.74,-93.63 740.55,-75.95"/>
<polygon fill="midnightblue" stroke="midnightblue" points="741.1,-72.49 730.59,-73.83 739.64,-79.34 741.1,-72.49"/>
</g>
<!-- Node9&#45;&gt;Node7 -->
<g id="edge18" class="edge">
<title>Node9&#45;&gt;Node7</title>
<path fill="none" stroke="midnightblue" d="M998.27,-168.31C1031.25,-148.98 1102.21,-100.61 1074.5,-56 1061.31,-34.77 1034.82,-23.25 1013.8,-17.2"/>
<polygon fill="midnightblue" stroke="midnightblue" points="1014.56,-13.78 1004,-14.65 1012.8,-20.56 1014.56,-13.78"/>
</g>
<!-- Node9&#45;&gt;Node10 -->
<g id="edge13" class="edge">
<title>Node9&#45;&gt;Node10</title>
<path fill="none" stroke="midnightblue" d="M956.28,-170.97C951.69,-169.95 946.96,-168.93 942.5,-168 877.06,-154.4 801.08,-140.2 753.39,-131.47"/>
<polygon fill="midnightblue" stroke="midnightblue" points="753.83,-127.99 743.36,-129.64 752.57,-134.88 753.83,-127.99"/>
</g>
<!-- Node12 -->
<g id="node12" class="node">
<title>Node12</title>
<g id="a_node12"><a xlink:title=" ">
<polygon fill="white" stroke="#bfbfbf" points="1011.5,-56.5 1011.5,-75.5 1065.5,-75.5 1065.5,-56.5 1011.5,-56.5"/>
<text text-anchor="middle" x="1038.5" y="-63.5" font-family="Helvetica,sans-Serif" font-size="10.00">iostream</text>
</a>
</g>
</g>
<!-- Node9&#45;&gt;Node12 -->
<g id="edge19" class="edge">
<title>Node9&#45;&gt;Node12</title>
<path fill="none" stroke="midnightblue" d="M986.89,-168.37C996.05,-150.38 1017.35,-108.55 1029.53,-84.63"/>
<polygon fill="midnightblue" stroke="midnightblue" points="1032.71,-86.09 1034.13,-75.59 1026.47,-82.92 1032.71,-86.09"/>
</g>
<!-- Node10&#45;&gt;Node3 -->
<g id="edge15" class="edge">
<title>Node10&#45;&gt;Node3</title>
<path fill="none" stroke="midnightblue" d="M673.38,-112.44C637.38,-103.14 579.73,-88.25 540.31,-78.06"/>
<polygon fill="midnightblue" stroke="midnightblue" points="541.02,-74.63 530.46,-75.52 539.27,-81.41 541.02,-74.63"/>
</g>
<!-- Node10&#45;&gt;Node5 -->
<g id="edge14" class="edge">
<title>Node10&#45;&gt;Node5</title>
<path fill="none" stroke="midnightblue" d="M706.5,-112.08C706.5,-105.01 706.5,-94.86 706.5,-85.99"/>
<polygon fill="midnightblue" stroke="midnightblue" points="710,-85.75 706.5,-75.75 703,-85.75 710,-85.75"/>
</g>
<!-- Node11 -->
<g id="node11" class="node">
<title>Node11</title>
<g id="a_node11"><a xlink:title=" ">
<polygon fill="white" stroke="#bfbfbf" points="748.5,-56.5 748.5,-75.5 792.5,-75.5 792.5,-56.5 748.5,-56.5"/>
<text text-anchor="middle" x="770.5" y="-63.5" font-family="Helvetica,sans-Serif" font-size="10.00">vector</text>
</a>
</g>
</g>
<!-- Node10&#45;&gt;Node11 -->
<g id="edge16" class="edge">
<title>Node10&#45;&gt;Node11</title>
<path fill="none" stroke="midnightblue" d="M716.78,-112.32C726.34,-104.26 740.78,-92.08 752.28,-82.37"/>
<polygon fill="midnightblue" stroke="midnightblue" points="754.64,-84.96 760.03,-75.83 750.13,-79.61 754.64,-84.96"/>
</g>
<!-- Node10&#45;&gt;Node12 -->
<g id="edge17" class="edge">
<title>Node10&#45;&gt;Node12</title>
<path fill="none" stroke="midnightblue" d="M743.3,-115.01C806.95,-104.66 936.92,-83.52 1001.03,-73.09"/>
<polygon fill="midnightblue" stroke="midnightblue" points="1001.8,-76.52 1011.11,-71.46 1000.67,-69.61 1001.8,-76.52"/>
</g>
<!-- Node13&#45;&gt;Node3 -->
<g id="edge22" class="edge">
<title>Node13&#45;&gt;Node3</title>
<path fill="none" stroke="midnightblue" d="M310.43,-168.37C345.71,-149.25 430.64,-103.23 472.84,-80.36"/>
<polygon fill="midnightblue" stroke="midnightblue" points="474.52,-83.43 481.64,-75.59 471.19,-77.28 474.52,-83.43"/>
</g>
<!-- Node13&#45;&gt;Node5 -->
<g id="edge23" class="edge">
<title>Node13&#45;&gt;Node5</title>
<path fill="none" stroke="midnightblue" d="M326.49,-168.46C402.66,-148.12 594.28,-96.96 672.47,-76.09"/>
<polygon fill="midnightblue" stroke="midnightblue" points="673.54,-79.42 682.3,-73.46 671.73,-72.66 673.54,-79.42"/>
</g>
<!-- Node13&#45;&gt;Node10 -->
<g id="edge24" class="edge">
<title>Node13&#45;&gt;Node10</title>
<path fill="none" stroke="midnightblue" d="M327.17,-172.72C399.89,-163.19 575.31,-140.2 659.66,-129.14"/>
<polygon fill="midnightblue" stroke="midnightblue" points="660.26,-132.59 669.72,-127.82 659.35,-125.65 660.26,-132.59"/>
</g>
<!-- Node14&#45;&gt;Node3 -->
<g id="edge37" class="edge">
<title>Node14&#45;&gt;Node3</title>
<path fill="none" stroke="midnightblue" d="M700.39,-344.32C631.62,-342.21 461.89,-333.72 324.5,-300 247.15,-281.02 157.5,-314.65 157.5,-235 157.5,-235 157.5,-235 157.5,-177 157.5,-130.84 196.43,-131 238.5,-112 306.35,-81.36 392.89,-71.5 446.76,-68.37"/>
<polygon fill="midnightblue" stroke="midnightblue" points="447.28,-71.85 457.08,-67.83 446.91,-64.86 447.28,-71.85"/>
</g>
<!-- Node14&#45;&gt;Node8 -->
<g id="edge26" class="edge">
<title>Node14&#45;&gt;Node8</title>
<path fill="none" stroke="midnightblue" d="M735.19,-336.37C742.84,-318.46 760.59,-276.92 770.83,-252.95"/>
<polygon fill="midnightblue" stroke="midnightblue" points="774.12,-254.16 774.83,-243.59 767.68,-251.41 774.12,-254.16"/>
</g>
<!-- Node14&#45;&gt;Node9 -->
<g id="edge28" class="edge">
<title>Node14&#45;&gt;Node9</title>
<path fill="none" stroke="midnightblue" d="M744.64,-336.31C785.47,-309.3 910.43,-226.67 960.96,-193.25"/>
<polygon fill="midnightblue" stroke="midnightblue" points="963.08,-196.04 969.49,-187.61 959.22,-190.2 963.08,-196.04"/>
</g>
<!-- Node14&#45;&gt;Node10 -->
<g id="edge27" class="edge">
<title>Node14&#45;&gt;Node10</title>
<path fill="none" stroke="midnightblue" d="M730.52,-336.3C726.84,-303.63 713.8,-187.87 708.63,-141.96"/>
<polygon fill="midnightblue" stroke="midnightblue" points="712.1,-141.43 707.5,-131.88 705.14,-142.21 712.1,-141.43"/>
</g>
<!-- Node15 -->
<g id="node15" class="node">
<title>Node15</title>
<g id="a_node15"><a xlink:href="tlist_8h.html" target="_top" xlink:title=" ">
<polygon fill="white" stroke="black" points="1234,-112.5 1234,-131.5 1275,-131.5 1275,-112.5 1234,-112.5"/>
<text text-anchor="middle" x="1254.5" y="-119.5" font-family="Helvetica,sans-Serif" font-size="10.00">tlist.h</text>
</a>
</g>
</g>
<!-- Node14&#45;&gt;Node15 -->
<g id="edge29" class="edge">
<title>Node14&#45;&gt;Node15</title>
<path fill="none" stroke="midnightblue" d="M762.5,-342.16C835.49,-334.54 1022.64,-309.62 1163.5,-244 1205.18,-224.58 1227.25,-227.67 1250.5,-188 1258.63,-174.13 1258.96,-155.62 1257.65,-141.9"/>
<polygon fill="midnightblue" stroke="midnightblue" points="1261.08,-141.16 1256.3,-131.7 1254.14,-142.08 1261.08,-141.16"/>
</g>
<!-- Node18 -->
<g id="node18" class="node">
<title>Node18</title>
<g id="a_node18"><a xlink:href="tmap_8h.html" target="_top" xlink:title=" ">
<polygon fill="white" stroke="black" points="816,-224.5 816,-243.5 863,-243.5 863,-224.5 816,-224.5"/>
<text text-anchor="middle" x="839.5" y="-231.5" font-family="Helvetica,sans-Serif" font-size="10.00">tmap.h</text>
</a>
</g>
</g>
<!-- Node14&#45;&gt;Node18 -->
<g id="edge33" class="edge">
<title>Node14&#45;&gt;Node18</title>
<path fill="none" stroke="midnightblue" d="M739.97,-336.37C758.11,-317.89 800.92,-274.29 824.04,-250.74"/>
<polygon fill="midnightblue" stroke="midnightblue" points="826.56,-253.18 831.06,-243.59 821.56,-248.28 826.56,-253.18"/>
</g>
<!-- Node21 -->
<g id="node21" class="node">
<title>Node21</title>
<g id="a_node21"><a xlink:href="id3v2_8h.html" target="_top" xlink:title=" ">
<polygon fill="white" stroke="black" points="421.5,-168.5 421.5,-187.5 469.5,-187.5 469.5,-168.5 421.5,-168.5"/>
<text text-anchor="middle" x="445.5" y="-175.5" font-family="Helvetica,sans-Serif" font-size="10.00">id3v2.h</text>
</a>
</g>
</g>
<!-- Node14&#45;&gt;Node21 -->
<g id="edge38" class="edge">
<title>Node14&#45;&gt;Node21</title>
<path fill="none" stroke="midnightblue" d="M700.46,-342.89C661.36,-339.1 593.16,-328.61 542.5,-300 499.47,-275.7 468.28,-224.04 454.07,-196.75"/>
<polygon fill="midnightblue" stroke="midnightblue" points="457.08,-194.95 449.47,-187.59 450.83,-198.1 457.08,-194.95"/>
</g>
<!-- Node22 -->
<g id="node22" class="node">
<title>Node22</title>
<g id="a_node22"><a xlink:href="id3v2framefactory_8h.html" target="_top" xlink:title=" ">
<polygon fill="white" stroke="black" points="551,-280.5 551,-299.5 652,-299.5 652,-280.5 551,-280.5"/>
<text text-anchor="middle" x="601.5" y="-287.5" font-family="Helvetica,sans-Serif" font-size="10.00">id3v2framefactory.h</text>
</a>
</g>
</g>
<!-- Node14&#45;&gt;Node22 -->
<g id="edge39" class="edge">
<title>Node14&#45;&gt;Node22</title>
<path fill="none" stroke="midnightblue" d="M710.9,-336.44C689.51,-327.56 655.82,-313.56 631.48,-303.45"/>
<polygon fill="midnightblue" stroke="midnightblue" points="632.58,-300.12 622,-299.52 629.89,-306.58 632.58,-300.12"/>
</g>
<!-- Node15&#45;&gt;Node5 -->
<g id="edge30" class="edge">
<title>Node15&#45;&gt;Node5</title>
<path fill="none" stroke="midnightblue" d="M1233.72,-120.52C1164.76,-118.64 937.19,-110.21 740.47,-75.85"/>
<polygon fill="midnightblue" stroke="midnightblue" points="740.99,-72.39 730.54,-74.09 739.77,-79.28 740.99,-72.39"/>
</g>
<!-- Node16 -->
<g id="node16" class="node">
<title>Node16</title>
<g id="a_node16"><a xlink:title=" ">
<polygon fill="white" stroke="#bfbfbf" points="1297,-56.5 1297,-75.5 1326,-75.5 1326,-56.5 1297,-56.5"/>
<text text-anchor="middle" x="1311.5" y="-63.5" font-family="Helvetica,sans-Serif" font-size="10.00">list</text>
</a>
</g>
</g>
<!-- Node15&#45;&gt;Node16 -->
<g id="edge31" class="edge">
<title>Node15&#45;&gt;Node16</title>
<path fill="none" stroke="midnightblue" d="M1263.66,-112.32C1272,-104.42 1284.53,-92.55 1294.68,-82.94"/>
<polygon fill="midnightblue" stroke="midnightblue" points="1297.32,-85.25 1302.18,-75.83 1292.51,-80.17 1297.32,-85.25"/>
</g>
<!-- Node17 -->
<g id="node17" class="node">
<title>Node17</title>
<g id="a_node17"><a xlink:title=" ">
<polygon fill="white" stroke="#bfbfbf" points="1230,-56.5 1230,-75.5 1279,-75.5 1279,-56.5 1230,-56.5"/>
<text text-anchor="middle" x="1254.5" y="-63.5" font-family="Helvetica,sans-Serif" font-size="10.00">tlist.tcc</text>
</a>
</g>
</g>
<!-- Node15&#45;&gt;Node17 -->
<g id="edge32" class="edge">
<title>Node15&#45;&gt;Node17</title>
<path fill="none" stroke="midnightblue" d="M1254.5,-112.08C1254.5,-105.01 1254.5,-94.86 1254.5,-85.99"/>
<polygon fill="midnightblue" stroke="midnightblue" points="1258,-85.75 1254.5,-75.75 1251,-85.75 1258,-85.75"/>
</g>
<!-- Node18&#45;&gt;Node5 -->
<g id="edge35" class="edge">
<title>Node18&#45;&gt;Node5</title>
<path fill="none" stroke="midnightblue" d="M849.21,-224.44C862.25,-211.86 882.57,-187.75 871.5,-168 843.56,-118.14 779.85,-89.93 740.27,-76.63"/>
<polygon fill="midnightblue" stroke="midnightblue" points="741.12,-73.22 730.53,-73.49 738.97,-79.89 741.12,-73.22"/>
</g>
<!-- Node19 -->
<g id="node19" class="node">
<title>Node19</title>
<g id="a_node19"><a xlink:title=" ">
<polygon fill="white" stroke="#bfbfbf" points="754,-168.5 754,-187.5 789,-187.5 789,-168.5 754,-168.5"/>
<text text-anchor="middle" x="771.5" y="-175.5" font-family="Helvetica,sans-Serif" font-size="10.00">map</text>
</a>
</g>
</g>
<!-- Node18&#45;&gt;Node19 -->
<g id="edge34" class="edge">
<title>Node18&#45;&gt;Node19</title>
<path fill="none" stroke="midnightblue" d="M828.57,-224.32C818.33,-216.18 802.78,-203.84 790.5,-194.09"/>
<polygon fill="midnightblue" stroke="midnightblue" points="792.63,-191.31 782.62,-187.83 788.28,-196.79 792.63,-191.31"/>
</g>
<!-- Node20 -->
<g id="node20" class="node">
<title>Node20</title>
<g id="a_node20"><a xlink:title=" ">
<polygon fill="white" stroke="#bfbfbf" points="807,-168.5 807,-187.5 862,-187.5 862,-168.5 807,-168.5"/>
<text text-anchor="middle" x="834.5" y="-175.5" font-family="Helvetica,sans-Serif" font-size="10.00">tmap.tcc</text>
</a>
</g>
</g>
<!-- Node18&#45;&gt;Node20 -->
<g id="edge36" class="edge">
<title>Node18&#45;&gt;Node20</title>
<path fill="none" stroke="midnightblue" d="M838.67,-224.08C838.02,-217.01 837.08,-206.86 836.26,-197.99"/>
<polygon fill="midnightblue" stroke="midnightblue" points="839.72,-197.39 835.31,-187.75 832.75,-198.03 839.72,-197.39"/>
</g>
<!-- Node22&#45;&gt;Node3 -->
<g id="edge40" class="edge">
<title>Node22&#45;&gt;Node3</title>
<path fill="none" stroke="midnightblue" d="M550.85,-281.8C463.24,-268.19 289.34,-235.72 253.5,-188 199.41,-115.97 360.94,-84.14 447.14,-72.56"/>
<polygon fill="midnightblue" stroke="midnightblue" points="447.79,-76.01 457.26,-71.25 446.89,-69.07 447.79,-76.01"/>
</g>
<!-- Node22&#45;&gt;Node10 -->
<g id="edge41" class="edge">
<title>Node22&#45;&gt;Node10</title>
<path fill="none" stroke="midnightblue" d="M603.05,-280.15C605.57,-267.21 611.33,-242.66 621.5,-224 639.93,-190.19 670.77,-157.26 689.81,-138.61"/>
<polygon fill="midnightblue" stroke="midnightblue" points="692.38,-140.99 697.17,-131.54 687.53,-135.94 692.38,-140.99"/>
</g>
<!-- Node23 -->
<g id="node23" class="node">
<title>Node23</title>
<g id="a_node23"><a xlink:href="id3v2frame_8h.html" target="_top" xlink:title=" ">
<polygon fill="white" stroke="black" points="630,-224.5 630,-243.5 703,-243.5 703,-224.5 630,-224.5"/>
<text text-anchor="middle" x="666.5" y="-231.5" font-family="Helvetica,sans-Serif" font-size="10.00">id3v2frame.h</text>
</a>
</g>
</g>
<!-- Node22&#45;&gt;Node23 -->
<g id="edge42" class="edge">
<title>Node22&#45;&gt;Node23</title>
<path fill="none" stroke="midnightblue" d="M611.94,-280.32C621.65,-272.26 636.32,-260.08 648,-250.37"/>
<polygon fill="midnightblue" stroke="midnightblue" points="650.41,-252.92 655.87,-243.83 645.94,-247.53 650.41,-252.92"/>
</g>
<!-- Node24 -->
<g id="node24" class="node">
<title>Node24</title>
<g id="a_node24"><a xlink:href="id3v2header_8h.html" target="_top" xlink:title=" ">
<polygon fill="white" stroke="black" points="496,-224.5 496,-243.5 573,-243.5 573,-224.5 496,-224.5"/>
<text text-anchor="middle" x="534.5" y="-231.5" font-family="Helvetica,sans-Serif" font-size="10.00">id3v2header.h</text>
</a>
</g>
</g>
<!-- Node22&#45;&gt;Node24 -->
<g id="edge46" class="edge">
<title>Node22&#45;&gt;Node24</title>
<path fill="none" stroke="midnightblue" d="M590.74,-280.32C580.73,-272.26 565.61,-260.08 553.57,-250.37"/>
<polygon fill="midnightblue" stroke="midnightblue" points="555.44,-247.38 545.46,-243.83 551.05,-252.83 555.44,-247.38"/>
</g>
<!-- Node23&#45;&gt;Node3 -->
<g id="edge45" class="edge">
<title>Node23&#45;&gt;Node3</title>
<path fill="none" stroke="midnightblue" d="M629.94,-224.58C607.39,-217.84 579.14,-206.39 559.5,-188 531.94,-162.19 538.83,-145.55 521.5,-112 516.82,-102.94 511.49,-92.92 507.05,-84.65"/>
<polygon fill="midnightblue" stroke="midnightblue" points="509.99,-82.73 502.17,-75.59 503.83,-86.05 509.99,-82.73"/>
</g>
<!-- Node23&#45;&gt;Node9 -->
<g id="edge43" class="edge">
<title>Node23&#45;&gt;Node9</title>
<path fill="none" stroke="midnightblue" d="M703.06,-226.75C764.03,-216.33 885.75,-195.53 946.41,-185.17"/>
<polygon fill="midnightblue" stroke="midnightblue" points="947.03,-188.61 956.3,-183.48 945.85,-181.71 947.03,-188.61"/>
</g>
<!-- Node23&#45;&gt;Node10 -->
<g id="edge44" class="edge">
<title>Node23&#45;&gt;Node10</title>
<path fill="none" stroke="midnightblue" d="M669.64,-224.37C676.12,-206.54 691.12,-165.3 699.86,-141.27"/>
<polygon fill="midnightblue" stroke="midnightblue" points="703.25,-142.19 703.38,-131.59 696.67,-139.79 703.25,-142.19"/>
</g>
<!-- Node24&#45;&gt;Node3 -->
<g id="edge48" class="edge">
<title>Node24&#45;&gt;Node3</title>
<path fill="none" stroke="midnightblue" d="M531.79,-224.43C528.99,-215.42 524.61,-200.8 521.5,-188 512.76,-152.05 504.89,-109.53 500.69,-85.67"/>
<polygon fill="midnightblue" stroke="midnightblue" points="504.1,-84.82 498.94,-75.56 497.2,-86.01 504.1,-84.82"/>
</g>
<!-- Node24&#45;&gt;Node10 -->
<g id="edge47" class="edge">
<title>Node24&#45;&gt;Node10</title>
<path fill="none" stroke="midnightblue" d="M547.88,-224.35C567.2,-211.86 604.04,-188.09 635.5,-168 651.84,-157.56 670.35,-145.83 684.37,-136.97"/>
<polygon fill="midnightblue" stroke="midnightblue" points="686.29,-139.9 692.87,-131.6 682.55,-133.98 686.29,-139.9"/>
</g>
<!-- Node24&#45;&gt;Node21 -->
<g id="edge49" class="edge">
<title>Node24&#45;&gt;Node21</title>
<path fill="none" stroke="midnightblue" d="M520.2,-224.32C506.32,-215.9 485.01,-202.97 468.7,-193.07"/>
<polygon fill="midnightblue" stroke="midnightblue" points="470.13,-189.85 459.76,-187.65 466.5,-195.83 470.13,-189.85"/>
</g>
<!-- Node25&#45;&gt;Node3 -->
<g id="edge64" class="edge">
<title>Node25&#45;&gt;Node3</title>
<path fill="none" stroke="midnightblue" d="M958.73,-280.26C986.2,-259.59 1048.1,-206.52 1017.5,-168 973.51,-112.62 930.47,-151.55 862.5,-132 836.3,-124.46 830.99,-118.45 804.5,-112 715.44,-90.32 609.14,-77.58 547.87,-71.47"/>
<polygon fill="midnightblue" stroke="midnightblue" points="547.99,-67.97 537.7,-70.48 547.31,-74.93 547.99,-67.97"/>
</g>
<!-- Node25&#45;&gt;Node8 -->
<g id="edge51" class="edge">
<title>Node25&#45;&gt;Node8</title>
<path fill="none" stroke="midnightblue" d="M919.88,-280.44C889.16,-270.57 838.82,-254.39 807.23,-244.23"/>
<polygon fill="midnightblue" stroke="midnightblue" points="808.27,-240.89 797.68,-241.16 806.13,-247.56 808.27,-240.89"/>
</g>
<!-- Node25&#45;&gt;Node9 -->
<g id="edge53" class="edge">
<title>Node25&#45;&gt;Node9</title>
<path fill="none" stroke="midnightblue" d="M949.32,-280.37C955.16,-262.54 968.66,-221.3 976.52,-197.27"/>
<polygon fill="midnightblue" stroke="midnightblue" points="979.9,-198.18 979.69,-187.59 973.25,-196.01 979.9,-198.18"/>
</g>
<!-- Node25&#45;&gt;Node10 -->
<g id="edge63" class="edge">
<title>Node25&#45;&gt;Node10</title>
<path fill="none" stroke="midnightblue" d="M943.7,-280.44C936,-258.24 912.3,-198.45 871.5,-168 861.88,-160.82 798.53,-144.74 753.2,-133.88"/>
<polygon fill="midnightblue" stroke="midnightblue" points="753.79,-130.43 743.26,-131.52 752.17,-137.24 753.79,-130.43"/>
</g>
<!-- Node25&#45;&gt;Node18 -->
<g id="edge52" class="edge">
<title>Node25&#45;&gt;Node18</title>
<path fill="none" stroke="midnightblue" d="M929.31,-280.32C912.15,-271.66 885.55,-258.24 865.75,-248.25"/>
<polygon fill="midnightblue" stroke="midnightblue" points="867.15,-245.04 856.65,-243.65 864,-251.28 867.15,-245.04"/>
</g>
<!-- Node26 -->
<g id="node26" class="node">
<title>Node26</title>
<g id="a_node26"><a xlink:href="tstringlist_8h.html" target="_top" xlink:title=" ">
<polygon fill="white" stroke="black" points="1089,-224.5 1089,-243.5 1154,-243.5 1154,-224.5 1089,-224.5"/>
<text text-anchor="middle" x="1121.5" y="-231.5" font-family="Helvetica,sans-Serif" font-size="10.00">tstringlist.h</text>
</a>
</g>
</g>
<!-- Node25&#45;&gt;Node26 -->
<g id="edge54" class="edge">
<title>Node25&#45;&gt;Node26</title>
<path fill="none" stroke="midnightblue" d="M973.84,-280.56C1003.46,-271.42 1050.91,-256.78 1084,-246.57"/>
<polygon fill="midnightblue" stroke="midnightblue" points="1085.25,-249.85 1093.77,-243.56 1083.18,-243.16 1085.25,-249.85"/>
</g>
<!-- Node26&#45;&gt;Node3 -->
<g id="edge61" class="edge">
<title>Node26&#45;&gt;Node3</title>
<path fill="none" stroke="midnightblue" d="M1114.63,-224.35C1102.99,-210.29 1077.95,-182.59 1050.5,-168 989.96,-135.83 964.66,-156.15 900.5,-132 882.64,-125.28 880.71,-117.71 862.5,-112 804.98,-93.98 633.73,-78.06 547.83,-70.95"/>
<polygon fill="midnightblue" stroke="midnightblue" points="548.04,-67.45 537.79,-70.12 547.47,-74.43 548.04,-67.45"/>
</g>
<!-- Node26&#45;&gt;Node9 -->
<g id="edge55" class="edge">
<title>Node26&#45;&gt;Node9</title>
<path fill="none" stroke="midnightblue" d="M1099.48,-224.44C1076.4,-215.48 1039.94,-201.31 1013.86,-191.18"/>
<polygon fill="midnightblue" stroke="midnightblue" points="1015.01,-187.88 1004.42,-187.52 1012.48,-194.4 1015.01,-187.88"/>
</g>
<!-- Node26&#45;&gt;Node12 -->
<g id="edge62" class="edge">
<title>Node26&#45;&gt;Node12</title>
<path fill="none" stroke="midnightblue" d="M1146.76,-224.49C1173.98,-213.81 1211.63,-193.72 1197.5,-168 1171.7,-121.04 1113.78,-92.81 1075.44,-78.58"/>
<polygon fill="midnightblue" stroke="midnightblue" points="1076.26,-75.16 1065.66,-75.1 1073.91,-81.75 1076.26,-75.16"/>
</g>
<!-- Node26&#45;&gt;Node15 -->
<g id="edge56" class="edge">
<title>Node26&#45;&gt;Node15</title>
<path fill="none" stroke="midnightblue" d="M1154.09,-226.89C1178.12,-220.82 1210.05,-209.24 1230.5,-188 1242.61,-175.42 1248.71,-156.2 1251.71,-141.92"/>
<polygon fill="midnightblue" stroke="midnightblue" points="1255.22,-142.21 1253.52,-131.75 1248.32,-140.98 1255.22,-142.21"/>
</g>
<!-- Node27 -->
<g id="node27" class="node">
<title>Node27</title>
<g id="a_node27"><a xlink:href="tbytevectorlist_8h.html" target="_top" xlink:title=" ">
<polygon fill="white" stroke="black" points="1102.5,-168.5 1102.5,-187.5 1188.5,-187.5 1188.5,-168.5 1102.5,-168.5"/>
<text text-anchor="middle" x="1145.5" y="-175.5" font-family="Helvetica,sans-Serif" font-size="10.00">tbytevectorlist.h</text>
</a>
</g>
</g>
<!-- Node26&#45;&gt;Node27 -->
<g id="edge57" class="edge">
<title>Node26&#45;&gt;Node27</title>
<path fill="none" stroke="midnightblue" d="M1125.46,-224.08C1128.71,-216.77 1133.42,-206.18 1137.45,-197.1"/>
<polygon fill="midnightblue" stroke="midnightblue" points="1140.75,-198.31 1141.61,-187.75 1134.35,-195.47 1140.75,-198.31"/>
</g>
<!-- Node27&#45;&gt;Node3 -->
<g id="edge58" class="edge">
<title>Node27&#45;&gt;Node3</title>
<path fill="none" stroke="midnightblue" d="M1118.61,-168.46C1073.83,-154.56 980.95,-127.08 900.5,-112 774.77,-88.44 624.49,-75.65 547.86,-70.22"/>
<polygon fill="midnightblue" stroke="midnightblue" points="547.76,-66.7 537.54,-69.5 547.28,-73.68 547.76,-66.7"/>
</g>
<!-- Node27&#45;&gt;Node10 -->
<g id="edge59" class="edge">
<title>Node27&#45;&gt;Node10</title>
<path fill="none" stroke="midnightblue" d="M1102.21,-171.67C1019.27,-161.47 838.64,-139.25 753.15,-128.74"/>
<polygon fill="midnightblue" stroke="midnightblue" points="753.56,-125.26 743.2,-127.51 752.7,-132.21 753.56,-125.26"/>
</g>
<!-- Node27&#45;&gt;Node15 -->
<g id="edge60" class="edge">
<title>Node27&#45;&gt;Node15</title>
<path fill="none" stroke="midnightblue" d="M1163.01,-168.32C1180.57,-159.62 1207.83,-146.12 1228.03,-136.11"/>
<polygon fill="midnightblue" stroke="midnightblue" points="1229.62,-139.23 1237.03,-131.65 1226.52,-132.96 1229.62,-139.23"/>
</g>
<!-- Node28&#45;&gt;Node5 -->
<g id="edge66" class="edge">
<title>Node28&#45;&gt;Node5</title>
<path fill="none" stroke="midnightblue" d="M91.67,-169.78C214.1,-149.32 561.77,-91.2 672.31,-72.72"/>
<polygon fill="midnightblue" stroke="midnightblue" points="672.97,-76.15 682.25,-71.05 671.81,-69.25 672.97,-76.15"/>
</g>
<!-- Node29 -->
<g id="node29" class="node">
<title>Node29</title>
<g id="a_node29"><a xlink:href="audioproperties_8h.html" target="_top" xlink:title=" ">
<polygon fill="white" stroke="black" points="0,-112.5 0,-131.5 91,-131.5 91,-112.5 0,-112.5"/>
<text text-anchor="middle" x="45.5" y="-119.5" font-family="Helvetica,sans-Serif" font-size="10.00">audioproperties.h</text>
</a>
</g>
</g>
<!-- Node28&#45;&gt;Node29 -->
<g id="edge67" class="edge">
<title>Node28&#45;&gt;Node29</title>
<path fill="none" stroke="midnightblue" d="M48,-168.08C47.61,-161.01 47.05,-150.86 46.55,-141.99"/>
<polygon fill="midnightblue" stroke="midnightblue" points="50.04,-141.54 45.99,-131.75 43.05,-141.93 50.04,-141.54"/>
</g>
<!-- Node29&#45;&gt;Node3 -->
<g id="edge68" class="edge">
<title>Node29&#45;&gt;Node3</title>
<path fill="none" stroke="midnightblue" d="M91.01,-114C95.9,-113.3 100.8,-112.62 105.5,-112 228.08,-95.77 372.69,-80.06 447.32,-72.2"/>
<polygon fill="midnightblue" stroke="midnightblue" points="447.8,-75.67 457.38,-71.14 447.07,-68.71 447.8,-75.67"/>
</g>
</g>
</svg>
