<?xml version="1.0" encoding="UTF-8" standalone="no"?>
<!DOCTYPE svg PUBLIC "-//W3C//DTD SVG 1.1//EN"
 "http://www.w3.org/Graphics/SVG/1.1/DTD/svg11.dtd">
<!-- Generated by graphviz version 2.46.1 (20210213.1702)
 -->
<!-- Title: wavpackfile.h Pages: 1 -->
<svg width="543pt" height="364pt"
 viewBox="0.00 0.00 542.50 364.00" xmlns="http://www.w3.org/2000/svg" xmlns:xlink="http://www.w3.org/1999/xlink">
<g id="graph0" class="graph" transform="scale(1 1) rotate(0) translate(4 360)">
<title>wavpackfile.h</title>
<polygon fill="white" stroke="transparent" points="-4,4 -4,-360 538.5,-360 538.5,4 -4,4"/>
<!-- Node1 -->
<g id="node1" class="node">
<title>Node1</title>
<g id="a_node1"><a xlink:title=" ">
<polygon fill="#bfbfbf" stroke="black" points="360.5,-336.5 360.5,-355.5 437.5,-355.5 437.5,-336.5 360.5,-336.5"/>
<text text-anchor="middle" x="399" y="-343.5" font-family="Helvetica,sans-Serif" font-size="10.00">wavpackfile.h</text>
</a>
</g>
</g>
<!-- Node2 -->
<g id="node2" class="node">
<title>Node2</title>
<g id="a_node2"><a xlink:href="tfile_8h.html" target="_top" xlink:title=" ">
<polygon fill="white" stroke="black" points="173.5,-280.5 173.5,-299.5 214.5,-299.5 214.5,-280.5 173.5,-280.5"/>
<text text-anchor="middle" x="194" y="-287.5" font-family="Helvetica,sans-Serif" font-size="10.00">tfile.h</text>
</a>
</g>
</g>
<!-- Node1&#45;&gt;Node2 -->
<g id="edge1" class="edge">
<title>Node1&#45;&gt;Node2</title>
<path fill="none" stroke="midnightblue" d="M366.52,-336.44C327.61,-326.2 262.93,-309.16 224.79,-299.11"/>
<polygon fill="midnightblue" stroke="midnightblue" points="225.34,-295.64 214.78,-296.47 223.56,-302.41 225.34,-295.64"/>
</g>
<!-- Node3 -->
<g id="node3" class="node">
<title>Node3</title>
<g id="a_node3"><a xlink:href="taglib__export_8h.html" target="_top" xlink:title=" ">
<polygon fill="white" stroke="black" points="302,-56.5 302,-75.5 382,-75.5 382,-56.5 302,-56.5"/>
<text text-anchor="middle" x="342" y="-63.5" font-family="Helvetica,sans-Serif" font-size="10.00">taglib_export.h</text>
</a>
</g>
</g>
<!-- Node1&#45;&gt;Node3 -->
<g id="edge23" class="edge">
<title>Node1&#45;&gt;Node3</title>
<path fill="none" stroke="midnightblue" d="M399,-336.44C399,-317.94 399,-272.81 399,-235 399,-235 399,-235 399,-177 399,-140.3 373.68,-103.66 356.79,-83.3"/>
<polygon fill="midnightblue" stroke="midnightblue" points="359.35,-80.9 350.17,-75.62 354.05,-85.48 359.35,-80.9"/>
</g>
<!-- Node13 -->
<g id="node13" class="node">
<title>Node13</title>
<g id="a_node13"><a xlink:href="wavpackproperties_8h.html" target="_top" xlink:title=" ">
<polygon fill="white" stroke="black" points="427.5,-168.5 427.5,-187.5 534.5,-187.5 534.5,-168.5 427.5,-168.5"/>
<text text-anchor="middle" x="481" y="-175.5" font-family="Helvetica,sans-Serif" font-size="10.00">wavpackproperties.h</text>
</a>
</g>
</g>
<!-- Node1&#45;&gt;Node13 -->
<g id="edge24" class="edge">
<title>Node1&#45;&gt;Node13</title>
<path fill="none" stroke="midnightblue" d="M403.41,-336.08C416.43,-309.72 454.88,-231.88 472.28,-196.66"/>
<polygon fill="midnightblue" stroke="midnightblue" points="475.48,-198.08 476.77,-187.57 469.2,-194.98 475.48,-198.08"/>
</g>
<!-- Node2&#45;&gt;Node3 -->
<g id="edge2" class="edge">
<title>Node2&#45;&gt;Node3</title>
<path fill="none" stroke="midnightblue" d="M206.82,-280.4C218.68,-272.03 236.33,-258.49 249,-244 287.49,-199.99 292.42,-184.57 318,-132 325.4,-116.79 331.91,-98.68 336.28,-85.44"/>
<polygon fill="midnightblue" stroke="midnightblue" points="339.7,-86.23 339.42,-75.64 333.04,-84.1 339.7,-86.23"/>
</g>
<!-- Node4 -->
<g id="node4" class="node">
<title>Node4</title>
<g id="a_node4"><a xlink:href="taglib_8h.html" target="_top" xlink:title=" ">
<polygon fill="white" stroke="black" points="16,-56.5 16,-75.5 64,-75.5 64,-56.5 16,-56.5"/>
<text text-anchor="middle" x="40" y="-63.5" font-family="Helvetica,sans-Serif" font-size="10.00">taglib.h</text>
</a>
</g>
</g>
<!-- Node2&#45;&gt;Node4 -->
<g id="edge3" class="edge">
<title>Node2&#45;&gt;Node4</title>
<path fill="none" stroke="midnightblue" d="M175.55,-280.36C136.3,-260.72 45.9,-208.42 19,-132 13.36,-115.98 20.61,-97.54 28.08,-84.4"/>
<polygon fill="midnightblue" stroke="midnightblue" points="31.07,-86.22 33.39,-75.88 25.13,-82.52 31.07,-86.22"/>
</g>
<!-- Node7 -->
<g id="node7" class="node">
<title>Node7</title>
<g id="a_node7"><a xlink:href="tag_8h.html" target="_top" xlink:title=" ">
<polygon fill="white" stroke="black" points="202,-224.5 202,-243.5 240,-243.5 240,-224.5 202,-224.5"/>
<text text-anchor="middle" x="221" y="-231.5" font-family="Helvetica,sans-Serif" font-size="10.00">tag.h</text>
</a>
</g>
</g>
<!-- Node2&#45;&gt;Node7 -->
<g id="edge6" class="edge">
<title>Node2&#45;&gt;Node7</title>
<path fill="none" stroke="midnightblue" d="M198.46,-280.08C202.15,-272.69 207.52,-261.95 212.09,-252.81"/>
<polygon fill="midnightblue" stroke="midnightblue" points="215.28,-254.26 216.62,-243.75 209.02,-251.13 215.28,-254.26"/>
</g>
<!-- Node9 -->
<g id="node9" class="node">
<title>Node9</title>
<g id="a_node9"><a xlink:href="tbytevector_8h.html" target="_top" xlink:title=" ">
<polygon fill="white" stroke="black" points="69.5,-112.5 69.5,-131.5 142.5,-131.5 142.5,-112.5 69.5,-112.5"/>
<text text-anchor="middle" x="106" y="-119.5" font-family="Helvetica,sans-Serif" font-size="10.00">tbytevector.h</text>
</a>
</g>
</g>
<!-- Node2&#45;&gt;Node9 -->
<g id="edge18" class="edge">
<title>Node2&#45;&gt;Node9</title>
<path fill="none" stroke="midnightblue" d="M191.81,-280.29C186.38,-259.66 170.98,-206.7 147,-168 140.49,-157.49 131.36,-147.19 123.38,-139.1"/>
<polygon fill="midnightblue" stroke="midnightblue" points="125.51,-136.29 115.91,-131.82 120.63,-141.3 125.51,-136.29"/>
</g>
<!-- Node12 -->
<g id="node12" class="node">
<title>Node12</title>
<g id="a_node12"><a xlink:href="tiostream_8h.html" target="_top" xlink:title=" ">
<polygon fill="white" stroke="black" points="73.5,-168.5 73.5,-187.5 138.5,-187.5 138.5,-168.5 73.5,-168.5"/>
<text text-anchor="middle" x="106" y="-175.5" font-family="Helvetica,sans-Serif" font-size="10.00">tiostream.h</text>
</a>
</g>
</g>
<!-- Node2&#45;&gt;Node12 -->
<g id="edge19" class="edge">
<title>Node2&#45;&gt;Node12</title>
<path fill="none" stroke="midnightblue" d="M185.53,-280.3C177.01,-271.42 163.67,-257.12 153,-244 140.28,-228.35 126.91,-209.6 117.69,-196.27"/>
<polygon fill="midnightblue" stroke="midnightblue" points="120.32,-193.92 111.79,-187.64 114.55,-197.87 120.32,-193.92"/>
</g>
<!-- Node5 -->
<g id="node5" class="node">
<title>Node5</title>
<g id="a_node5"><a xlink:title=" ">
<polygon fill="white" stroke="#bfbfbf" points="0,-0.5 0,-19.5 80,-19.5 80,-0.5 0,-0.5"/>
<text text-anchor="middle" x="40" y="-7.5" font-family="Helvetica,sans-Serif" font-size="10.00">taglib_config.h</text>
</a>
</g>
</g>
<!-- Node4&#45;&gt;Node5 -->
<g id="edge4" class="edge">
<title>Node4&#45;&gt;Node5</title>
<path fill="none" stroke="midnightblue" d="M40,-56.08C40,-49.01 40,-38.86 40,-29.99"/>
<polygon fill="midnightblue" stroke="midnightblue" points="43.5,-29.75 40,-19.75 36.5,-29.75 43.5,-29.75"/>
</g>
<!-- Node6 -->
<g id="node6" class="node">
<title>Node6</title>
<g id="a_node6"><a xlink:title=" ">
<polygon fill="white" stroke="#bfbfbf" points="162.5,-0.5 162.5,-19.5 203.5,-19.5 203.5,-0.5 162.5,-0.5"/>
<text text-anchor="middle" x="183" y="-7.5" font-family="Helvetica,sans-Serif" font-size="10.00">string</text>
</a>
</g>
</g>
<!-- Node4&#45;&gt;Node6 -->
<g id="edge5" class="edge">
<title>Node4&#45;&gt;Node6</title>
<path fill="none" stroke="midnightblue" d="M62.66,-56.44C86.96,-47.27 125.68,-32.64 152.61,-22.47"/>
<polygon fill="midnightblue" stroke="midnightblue" points="154.19,-25.62 162.3,-18.82 151.71,-19.07 154.19,-25.62"/>
</g>
<!-- Node7&#45;&gt;Node3 -->
<g id="edge7" class="edge">
<title>Node7&#45;&gt;Node3</title>
<path fill="none" stroke="midnightblue" d="M227.81,-224.45C234.95,-215.46 246.42,-200.85 256,-188 283.33,-151.34 314.09,-107.36 330.4,-83.83"/>
<polygon fill="midnightblue" stroke="midnightblue" points="333.28,-85.82 336.08,-75.6 327.52,-81.84 333.28,-85.82"/>
</g>
<!-- Node8 -->
<g id="node8" class="node">
<title>Node8</title>
<g id="a_node8"><a xlink:href="tstring_8h.html" target="_top" xlink:title=" ">
<polygon fill="white" stroke="black" points="195,-168.5 195,-187.5 247,-187.5 247,-168.5 195,-168.5"/>
<text text-anchor="middle" x="221" y="-175.5" font-family="Helvetica,sans-Serif" font-size="10.00">tstring.h</text>
</a>
</g>
</g>
<!-- Node7&#45;&gt;Node8 -->
<g id="edge8" class="edge">
<title>Node7&#45;&gt;Node8</title>
<path fill="none" stroke="midnightblue" d="M221,-224.08C221,-217.01 221,-206.86 221,-197.99"/>
<polygon fill="midnightblue" stroke="midnightblue" points="224.5,-197.75 221,-187.75 217.5,-197.75 224.5,-197.75"/>
</g>
<!-- Node8&#45;&gt;Node3 -->
<g id="edge9" class="edge">
<title>Node8&#45;&gt;Node3</title>
<path fill="none" stroke="midnightblue" d="M230.49,-168.37C250.9,-149.81 299.2,-105.91 325.02,-82.44"/>
<polygon fill="midnightblue" stroke="midnightblue" points="327.5,-84.91 332.55,-75.59 322.8,-79.73 327.5,-84.91"/>
</g>
<!-- Node8&#45;&gt;Node4 -->
<g id="edge10" class="edge">
<title>Node8&#45;&gt;Node4</title>
<path fill="none" stroke="midnightblue" d="M194.83,-172.8C154.34,-165.81 79.18,-150.68 60,-132 47.72,-120.04 42.94,-100.74 41.1,-86.27"/>
<polygon fill="midnightblue" stroke="midnightblue" points="44.55,-85.58 40.16,-75.93 37.58,-86.21 44.55,-85.58"/>
</g>
<!-- Node8&#45;&gt;Node6 -->
<g id="edge16" class="edge">
<title>Node8&#45;&gt;Node6</title>
<path fill="none" stroke="midnightblue" d="M221.09,-168.26C221.07,-148.03 219.67,-96.57 207,-56 203.97,-46.28 198.81,-36.21 194.06,-28.07"/>
<polygon fill="midnightblue" stroke="midnightblue" points="197.03,-26.22 188.81,-19.53 191.07,-29.89 197.03,-26.22"/>
</g>
<!-- Node8&#45;&gt;Node9 -->
<g id="edge11" class="edge">
<title>Node8&#45;&gt;Node9</title>
<path fill="none" stroke="midnightblue" d="M202.78,-168.44C184.1,-159.68 154.84,-145.94 133.38,-135.86"/>
<polygon fill="midnightblue" stroke="midnightblue" points="134.68,-132.6 124.14,-131.52 131.7,-138.93 134.68,-132.6"/>
</g>
<!-- Node11 -->
<g id="node11" class="node">
<title>Node11</title>
<g id="a_node11"><a xlink:title=" ">
<polygon fill="white" stroke="#bfbfbf" points="144,-56.5 144,-75.5 198,-75.5 198,-56.5 144,-56.5"/>
<text text-anchor="middle" x="171" y="-63.5" font-family="Helvetica,sans-Serif" font-size="10.00">iostream</text>
</a>
</g>
</g>
<!-- Node8&#45;&gt;Node11 -->
<g id="edge17" class="edge">
<title>Node8&#45;&gt;Node11</title>
<path fill="none" stroke="midnightblue" d="M217.08,-168.37C208.93,-150.46 190.06,-108.92 179.16,-84.95"/>
<polygon fill="midnightblue" stroke="midnightblue" points="182.23,-83.25 174.91,-75.59 175.86,-86.14 182.23,-83.25"/>
</g>
<!-- Node9&#45;&gt;Node3 -->
<g id="edge13" class="edge">
<title>Node9&#45;&gt;Node3</title>
<path fill="none" stroke="midnightblue" d="M142.62,-112.62C183.54,-103.26 249.93,-88.07 294.74,-77.81"/>
<polygon fill="midnightblue" stroke="midnightblue" points="295.55,-81.22 304.52,-75.58 293.99,-74.4 295.55,-81.22"/>
</g>
<!-- Node9&#45;&gt;Node4 -->
<g id="edge12" class="edge">
<title>Node9&#45;&gt;Node4</title>
<path fill="none" stroke="midnightblue" d="M95.4,-112.32C85.54,-104.26 70.65,-92.08 58.78,-82.37"/>
<polygon fill="midnightblue" stroke="midnightblue" points="60.75,-79.46 50.8,-75.83 56.32,-84.88 60.75,-79.46"/>
</g>
<!-- Node10 -->
<g id="node10" class="node">
<title>Node10</title>
<g id="a_node10"><a xlink:title=" ">
<polygon fill="white" stroke="#bfbfbf" points="82,-56.5 82,-75.5 126,-75.5 126,-56.5 82,-56.5"/>
<text text-anchor="middle" x="104" y="-63.5" font-family="Helvetica,sans-Serif" font-size="10.00">vector</text>
</a>
</g>
</g>
<!-- Node9&#45;&gt;Node10 -->
<g id="edge14" class="edge">
<title>Node9&#45;&gt;Node10</title>
<path fill="none" stroke="midnightblue" d="M105.67,-112.08C105.41,-105.01 105.03,-94.86 104.7,-85.99"/>
<polygon fill="midnightblue" stroke="midnightblue" points="108.19,-85.61 104.32,-75.75 101.2,-85.87 108.19,-85.61"/>
</g>
<!-- Node9&#45;&gt;Node11 -->
<g id="edge15" class="edge">
<title>Node9&#45;&gt;Node11</title>
<path fill="none" stroke="midnightblue" d="M116.44,-112.32C126.15,-104.26 140.82,-92.08 152.5,-82.37"/>
<polygon fill="midnightblue" stroke="midnightblue" points="154.91,-84.92 160.37,-75.83 150.44,-79.53 154.91,-84.92"/>
</g>
<!-- Node12&#45;&gt;Node3 -->
<g id="edge20" class="edge">
<title>Node12&#45;&gt;Node3</title>
<path fill="none" stroke="midnightblue" d="M124.52,-168.37C165.79,-149.13 265.52,-102.65 314.26,-79.93"/>
<polygon fill="midnightblue" stroke="midnightblue" points="315.98,-82.99 323.57,-75.59 313.03,-76.64 315.98,-82.99"/>
</g>
<!-- Node12&#45;&gt;Node4 -->
<g id="edge21" class="edge">
<title>Node12&#45;&gt;Node4</title>
<path fill="none" stroke="midnightblue" d="M76.12,-168.39C58.46,-161.59 37.55,-150.15 27,-132 18.61,-117.57 23.9,-98.63 30.06,-84.92"/>
<polygon fill="midnightblue" stroke="midnightblue" points="33.37,-86.12 34.73,-75.61 27.12,-82.98 33.37,-86.12"/>
</g>
<!-- Node12&#45;&gt;Node9 -->
<g id="edge22" class="edge">
<title>Node12&#45;&gt;Node9</title>
<path fill="none" stroke="midnightblue" d="M106,-168.08C106,-161.01 106,-150.86 106,-141.99"/>
<polygon fill="midnightblue" stroke="midnightblue" points="109.5,-141.75 106,-131.75 102.5,-141.75 109.5,-141.75"/>
</g>
<!-- Node13&#45;&gt;Node3 -->
<g id="edge25" class="edge">
<title>Node13&#45;&gt;Node3</title>
<path fill="none" stroke="midnightblue" d="M494.82,-168.39C513.39,-155.75 542.38,-131.57 527,-112 510.51,-91.01 441.19,-78.6 392.26,-72.29"/>
<polygon fill="midnightblue" stroke="midnightblue" points="392.51,-68.79 382.16,-71.03 391.65,-75.74 392.51,-68.79"/>
</g>
<!-- Node14 -->
<g id="node14" class="node">
<title>Node14</title>
<g id="a_node14"><a xlink:href="audioproperties_8h.html" target="_top" xlink:title=" ">
<polygon fill="white" stroke="black" points="427.5,-112.5 427.5,-131.5 518.5,-131.5 518.5,-112.5 427.5,-112.5"/>
<text text-anchor="middle" x="473" y="-119.5" font-family="Helvetica,sans-Serif" font-size="10.00">audioproperties.h</text>
</a>
</g>
</g>
<!-- Node13&#45;&gt;Node14 -->
<g id="edge26" class="edge">
<title>Node13&#45;&gt;Node14</title>
<path fill="none" stroke="midnightblue" d="M479.68,-168.08C478.62,-160.93 477.09,-150.64 475.77,-141.69"/>
<polygon fill="midnightblue" stroke="midnightblue" points="479.22,-141.13 474.3,-131.75 472.3,-142.16 479.22,-141.13"/>
</g>
<!-- Node14&#45;&gt;Node3 -->
<g id="edge27" class="edge">
<title>Node14&#45;&gt;Node3</title>
<path fill="none" stroke="midnightblue" d="M452.24,-112.44C430.68,-103.56 396.74,-89.56 372.21,-79.45"/>
<polygon fill="midnightblue" stroke="midnightblue" points="373.24,-76.09 362.66,-75.52 370.57,-82.56 373.24,-76.09"/>
</g>
</g>
</svg>
