<?xml version="1.0" encoding="UTF-8" standalone="no"?>
<!DOCTYPE svg PUBLIC "-//W3C//DTD SVG 1.1//EN"
 "http://www.w3.org/Graphics/SVG/1.1/DTD/svg11.dtd">
<!-- Generated by graphviz version 2.42.4 (0)
 -->
<!-- Title: wavpackfile.h Pages: 1 -->
<svg width="1021pt" height="302pt"
 viewBox="0.00 0.00 1021.08 302.00" xmlns="http://www.w3.org/2000/svg" xmlns:xlink="http://www.w3.org/1999/xlink">
<g id="graph0" class="graph" transform="scale(1 1) rotate(0) translate(4 298)">
<title>wavpackfile.h</title>
<!-- Node1 -->
<g id="Node000001" class="node">
<title>Node1</title>
<g id="a_Node000001"><a xlink:title=" ">
<polygon fill="#999999" stroke="#666666" points="786.5,-294 702.5,-294 702.5,-275 786.5,-275 786.5,-294"/>
<text text-anchor="middle" x="744.5" y="-282" font-family="Helvetica,sans-Serif" font-size="10.00">wavpackfile.h</text>
</a>
</g>
</g>
<!-- Node2 -->
<g id="Node000002" class="node">
<title>Node2</title>
<g id="a_Node000002"><a xlink:href="tfile_8h.html" target="_top" xlink:title=" ">
<polygon fill="white" stroke="#666666" points="835.5,-239 791.5,-239 791.5,-220 835.5,-220 835.5,-239"/>
<text text-anchor="middle" x="813.5" y="-227" font-family="Helvetica,sans-Serif" font-size="10.00">tfile.h</text>
</a>
</g>
</g>
<!-- Node1&#45;&gt;Node2 -->
<g id="edge1_Node000001_Node000002" class="edge">
<title>Node1&#45;&gt;Node2</title>
<g id="a_edge1_Node000001_Node000002"><a xlink:title=" ">
<path fill="none" stroke="#63b8ff" d="M755.59,-274.98C765.99,-267 781.76,-254.88 794.22,-245.31"/>
<polygon fill="#63b8ff" stroke="#63b8ff" points="796.41,-248.04 802.21,-239.17 792.15,-242.49 796.41,-248.04"/>
</a>
</g>
</g>
<!-- Node7 -->
<g id="Node000007" class="node">
<title>Node7</title>
<g id="a_Node000007"><a xlink:href="taglib__export_8h.html" target="_top" xlink:title=" ">
<polygon fill="white" stroke="#666666" points="747.5,-19 657.5,-19 657.5,0 747.5,0 747.5,-19"/>
<text text-anchor="middle" x="702.5" y="-7" font-family="Helvetica,sans-Serif" font-size="10.00">taglib_export.h</text>
</a>
</g>
</g>
<!-- Node1&#45;&gt;Node7 -->
<g id="edge35_Node000001_Node000007" class="edge">
<title>Node1&#45;&gt;Node7</title>
<g id="a_edge35_Node000001_Node000007"><a xlink:title=" ">
<path fill="none" stroke="#63b8ff" d="M735.73,-274.92C720,-258.85 687.49,-222.32 675.5,-184 658.25,-128.85 681.35,-60.24 694.5,-28.34"/>
<polygon fill="#63b8ff" stroke="#63b8ff" points="697.78,-29.58 698.51,-19.01 691.35,-26.82 697.78,-29.58"/>
</a>
</g>
</g>
<!-- Node24 -->
<g id="Node000024" class="node">
<title>Node24</title>
<g id="a_Node000024"><a xlink:href="wavpackproperties_8h.html" target="_top" xlink:title=" ">
<polygon fill="white" stroke="#666666" points="804,-184 685,-184 685,-165 804,-165 804,-184"/>
<text text-anchor="middle" x="744.5" y="-172" font-family="Helvetica,sans-Serif" font-size="10.00">wavpackproperties.h</text>
</a>
</g>
</g>
<!-- Node1&#45;&gt;Node24 -->
<g id="edge36_Node000001_Node000024" class="edge">
<title>Node1&#45;&gt;Node24</title>
<g id="a_edge36_Node000001_Node000024"><a xlink:title=" ">
<path fill="none" stroke="#63b8ff" d="M744.5,-274.66C744.5,-257.17 744.5,-217.8 744.5,-194.27"/>
<polygon fill="#63b8ff" stroke="#63b8ff" points="748,-194.16 744.5,-184.16 741,-194.16 748,-194.16"/>
</a>
</g>
</g>
<!-- Node3 -->
<g id="Node000003" class="node">
<title>Node3</title>
<g id="a_Node000003"><a xlink:href="tbytevector_8h.html" target="_top" xlink:title=" ">
<polygon fill="white" stroke="#666666" points="560,-74 479,-74 479,-55 560,-55 560,-74"/>
<text text-anchor="middle" x="519.5" y="-62" font-family="Helvetica,sans-Serif" font-size="10.00">tbytevector.h</text>
</a>
</g>
</g>
<!-- Node2&#45;&gt;Node3 -->
<g id="edge2_Node000002_Node000003" class="edge">
<title>Node2&#45;&gt;Node3</title>
<g id="a_edge2_Node000002_Node000003"><a xlink:title=" ">
<path fill="none" stroke="#63b8ff" d="M791.08,-223.74C762.99,-217.23 713.89,-204.02 675.5,-184 619.75,-154.92 563.16,-106.04 536.02,-81.12"/>
<polygon fill="#63b8ff" stroke="#63b8ff" points="538.29,-78.45 528.58,-74.21 533.52,-83.58 538.29,-78.45"/>
</a>
</g>
</g>
<!-- Node2&#45;&gt;Node7 -->
<g id="edge12_Node000002_Node000007" class="edge">
<title>Node2&#45;&gt;Node7</title>
<g id="a_edge12_Node000002_Node000007"><a xlink:title=" ">
<path fill="none" stroke="#63b8ff" d="M820.73,-219.81C836.51,-199.7 871.13,-148.74 851.5,-110 828.75,-65.11 775.25,-37.22 738.94,-22.77"/>
<polygon fill="#63b8ff" stroke="#63b8ff" points="739.79,-19.35 729.2,-19.05 737.29,-25.89 739.79,-19.35"/>
</a>
</g>
</g>
<!-- Node8 -->
<g id="Node000008" class="node">
<title>Node8</title>
<g id="a_Node000008"><a xlink:href="tiostream_8h.html" target="_top" xlink:title=" ">
<polygon fill="white" stroke="#666666" points="842,-129 769,-129 769,-110 842,-110 842,-129"/>
<text text-anchor="middle" x="805.5" y="-117" font-family="Helvetica,sans-Serif" font-size="10.00">tiostream.h</text>
</a>
</g>
</g>
<!-- Node2&#45;&gt;Node8 -->
<g id="edge7_Node000002_Node000008" class="edge">
<title>Node2&#45;&gt;Node8</title>
<g id="a_edge7_Node000002_Node000008"><a xlink:title=" ">
<path fill="none" stroke="#63b8ff" d="M813.99,-219.85C814.56,-207.61 815.24,-184.55 813.5,-165 812.74,-156.5 811.18,-147.19 809.64,-139.29"/>
<polygon fill="#63b8ff" stroke="#63b8ff" points="813.03,-138.38 807.56,-129.3 806.18,-139.81 813.03,-138.38"/>
</a>
</g>
</g>
<!-- Node9 -->
<g id="Node000009" class="node">
<title>Node9</title>
<g id="a_Node000009"><a xlink:href="taglib_8h.html" target="_top" xlink:title=" ">
<polygon fill="white" stroke="#666666" points="990,-74 937,-74 937,-55 990,-55 990,-74"/>
<text text-anchor="middle" x="963.5" y="-62" font-family="Helvetica,sans-Serif" font-size="10.00">taglib.h</text>
</a>
</g>
</g>
<!-- Node2&#45;&gt;Node9 -->
<g id="edge13_Node000002_Node000009" class="edge">
<title>Node2&#45;&gt;Node9</title>
<g id="a_edge13_Node000002_Node000009"><a xlink:title=" ">
<path fill="none" stroke="#63b8ff" d="M835.61,-224.92C878.18,-216.7 970.77,-192.09 1009.5,-129 1020.23,-111.51 1002.38,-92.61 985.88,-80.01"/>
<polygon fill="#63b8ff" stroke="#63b8ff" points="987.71,-77.01 977.54,-74.04 983.64,-82.71 987.71,-77.01"/>
</a>
</g>
</g>
<!-- Node11 -->
<g id="Node000011" class="node">
<title>Node11</title>
<g id="a_Node000011"><a xlink:href="tag_8h.html" target="_top" xlink:title=" ">
<polygon fill="white" stroke="#666666" points="540,-184 499,-184 499,-165 540,-165 540,-184"/>
<text text-anchor="middle" x="519.5" y="-172" font-family="Helvetica,sans-Serif" font-size="10.00">tag.h</text>
</a>
</g>
</g>
<!-- Node2&#45;&gt;Node11 -->
<g id="edge14_Node000002_Node000011" class="edge">
<title>Node2&#45;&gt;Node11</title>
<g id="a_edge14_Node000002_Node000011"><a xlink:title=" ">
<path fill="none" stroke="#63b8ff" d="M791.4,-224.52C739.5,-215.16 609.71,-191.76 550.2,-181.03"/>
<polygon fill="#63b8ff" stroke="#63b8ff" points="550.73,-177.57 540.27,-179.24 549.49,-184.46 550.73,-177.57"/>
</a>
</g>
</g>
<!-- Node4 -->
<g id="Node000004" class="node">
<title>Node4</title>
<g id="a_Node000004"><a xlink:title=" ">
<polygon fill="#e0e0e0" stroke="#999999" points="477.5,-19 419.5,-19 419.5,0 477.5,0 477.5,-19"/>
<text text-anchor="middle" x="448.5" y="-7" font-family="Helvetica,sans-Serif" font-size="10.00">memory</text>
</a>
</g>
</g>
<!-- Node3&#45;&gt;Node4 -->
<g id="edge3_Node000003_Node000004" class="edge">
<title>Node3&#45;&gt;Node4</title>
<g id="a_edge3_Node000003_Node000004"><a xlink:title=" ">
<path fill="none" stroke="#63b8ff" d="M508.09,-54.98C497.39,-47 481.16,-34.88 468.34,-25.31"/>
<polygon fill="#63b8ff" stroke="#63b8ff" points="470.22,-22.35 460.11,-19.17 466.03,-27.96 470.22,-22.35"/>
</a>
</g>
</g>
<!-- Node5 -->
<g id="Node000005" class="node">
<title>Node5</title>
<g id="a_Node000005"><a xlink:title=" ">
<polygon fill="#e0e0e0" stroke="#999999" points="609,-19 562,-19 562,0 609,0 609,-19"/>
<text text-anchor="middle" x="585.5" y="-7" font-family="Helvetica,sans-Serif" font-size="10.00">vector</text>
</a>
</g>
</g>
<!-- Node3&#45;&gt;Node5 -->
<g id="edge4_Node000003_Node000005" class="edge">
<title>Node3&#45;&gt;Node5</title>
<g id="a_edge4_Node000003_Node000005"><a xlink:title=" ">
<path fill="none" stroke="#63b8ff" d="M530.1,-54.98C539.96,-47.07 554.85,-35.11 566.72,-25.58"/>
<polygon fill="#63b8ff" stroke="#63b8ff" points="569.1,-28.16 574.7,-19.17 564.71,-22.7 569.1,-28.16"/>
</a>
</g>
</g>
<!-- Node6 -->
<g id="Node000006" class="node">
<title>Node6</title>
<g id="a_Node000006"><a xlink:title=" ">
<polygon fill="#e0e0e0" stroke="#999999" points="543.5,-19 495.5,-19 495.5,0 543.5,0 543.5,-19"/>
<text text-anchor="middle" x="519.5" y="-7" font-family="Helvetica,sans-Serif" font-size="10.00">iosfwd</text>
</a>
</g>
</g>
<!-- Node3&#45;&gt;Node6 -->
<g id="edge5_Node000003_Node000006" class="edge">
<title>Node3&#45;&gt;Node6</title>
<g id="a_edge5_Node000003_Node000006"><a xlink:title=" ">
<path fill="none" stroke="#63b8ff" d="M519.5,-54.75C519.5,-47.8 519.5,-37.85 519.5,-29.13"/>
<polygon fill="#63b8ff" stroke="#63b8ff" points="523,-29.09 519.5,-19.09 516,-29.09 523,-29.09"/>
</a>
</g>
</g>
<!-- Node3&#45;&gt;Node7 -->
<g id="edge6_Node000003_Node000007" class="edge">
<title>Node3&#45;&gt;Node7</title>
<g id="a_edge6_Node000003_Node000007"><a xlink:title=" ">
<path fill="none" stroke="#63b8ff" d="M548.9,-54.98C579.89,-46.01 628.88,-31.82 663.17,-21.89"/>
<polygon fill="#63b8ff" stroke="#63b8ff" points="664.24,-25.23 672.87,-19.08 662.29,-18.5 664.24,-25.23"/>
</a>
</g>
</g>
<!-- Node8&#45;&gt;Node3 -->
<g id="edge8_Node000008_Node000003" class="edge">
<title>Node8&#45;&gt;Node3</title>
<g id="a_edge8_Node000008_Node000003"><a xlink:title=" ">
<path fill="none" stroke="#63b8ff" d="M768.99,-111.73C718.56,-102.39 627.36,-85.49 570.3,-74.91"/>
<polygon fill="#63b8ff" stroke="#63b8ff" points="570.88,-71.46 560.41,-73.08 569.6,-78.34 570.88,-71.46"/>
</a>
</g>
</g>
<!-- Node8&#45;&gt;Node7 -->
<g id="edge9_Node000008_Node000007" class="edge">
<title>Node8&#45;&gt;Node7</title>
<g id="a_edge9_Node000008_Node000007"><a xlink:title=" ">
<path fill="none" stroke="#63b8ff" d="M799.37,-109.87C790.23,-97.24 772.21,-73.28 754.5,-55 744.29,-44.47 731.84,-33.75 721.68,-25.47"/>
<polygon fill="#63b8ff" stroke="#63b8ff" points="723.78,-22.66 713.78,-19.14 719.4,-28.13 723.78,-22.66"/>
</a>
</g>
</g>
<!-- Node8&#45;&gt;Node9 -->
<g id="edge10_Node000008_Node000009" class="edge">
<title>Node8&#45;&gt;Node9</title>
<g id="a_edge10_Node000008_Node000009"><a xlink:title=" ">
<path fill="none" stroke="#63b8ff" d="M830.89,-109.98C857.3,-101.13 898.85,-87.19 928.39,-77.28"/>
<polygon fill="#63b8ff" stroke="#63b8ff" points="929.55,-80.58 937.92,-74.08 927.32,-73.94 929.55,-80.58"/>
</a>
</g>
</g>
<!-- Node10 -->
<g id="Node000010" class="node">
<title>Node10</title>
<g id="a_Node000010"><a xlink:title=" ">
<polygon fill="#e0e0e0" stroke="#999999" points="999.5,-19 927.5,-19 927.5,0 999.5,0 999.5,-19"/>
<text text-anchor="middle" x="963.5" y="-7" font-family="Helvetica,sans-Serif" font-size="10.00">sys/types.h</text>
</a>
</g>
</g>
<!-- Node9&#45;&gt;Node10 -->
<g id="edge11_Node000009_Node000010" class="edge">
<title>Node9&#45;&gt;Node10</title>
<g id="a_edge11_Node000009_Node000010"><a xlink:title=" ">
<path fill="none" stroke="#63b8ff" d="M963.5,-54.75C963.5,-47.8 963.5,-37.85 963.5,-29.13"/>
<polygon fill="#63b8ff" stroke="#63b8ff" points="967,-29.09 963.5,-19.09 960,-29.09 967,-29.09"/>
</a>
</g>
</g>
<!-- Node11&#45;&gt;Node7 -->
<g id="edge15_Node000011_Node000007" class="edge">
<title>Node11&#45;&gt;Node7</title>
<g id="a_edge15_Node000011_Node000007"><a xlink:title=" ">
<path fill="none" stroke="#63b8ff" d="M529.52,-164.76C549.29,-147.51 594.69,-107.79 632.5,-74 650.7,-57.73 671.39,-38.92 685.53,-26.02"/>
<polygon fill="#63b8ff" stroke="#63b8ff" points="688.01,-28.5 693.03,-19.17 683.29,-23.33 688.01,-28.5"/>
</a>
</g>
</g>
<!-- Node12 -->
<g id="Node000012" class="node">
<title>Node12</title>
<g id="a_Node000012"><a xlink:href="tstring_8h.html" target="_top" xlink:title=" ">
<polygon fill="white" stroke="#666666" points="548,-129 491,-129 491,-110 548,-110 548,-129"/>
<text text-anchor="middle" x="519.5" y="-117" font-family="Helvetica,sans-Serif" font-size="10.00">tstring.h</text>
</a>
</g>
</g>
<!-- Node11&#45;&gt;Node12 -->
<g id="edge16_Node000011_Node000012" class="edge">
<title>Node11&#45;&gt;Node12</title>
<g id="a_edge16_Node000011_Node000012"><a xlink:title=" ">
<path fill="none" stroke="#63b8ff" d="M519.5,-164.75C519.5,-157.8 519.5,-147.85 519.5,-139.13"/>
<polygon fill="#63b8ff" stroke="#63b8ff" points="523,-139.09 519.5,-129.09 516,-139.09 523,-139.09"/>
</a>
</g>
</g>
<!-- Node14 -->
<g id="Node000014" class="node">
<title>Node14</title>
<g id="a_Node000014"><a xlink:href="tlist_8h.html" target="_top" xlink:title=" ">
<polygon fill="white" stroke="#666666" points="286.5,-74 242.5,-74 242.5,-55 286.5,-55 286.5,-74"/>
<text text-anchor="middle" x="264.5" y="-62" font-family="Helvetica,sans-Serif" font-size="10.00">tlist.h</text>
</a>
</g>
</g>
<!-- Node11&#45;&gt;Node14 -->
<g id="edge20_Node000011_Node000014" class="edge">
<title>Node11&#45;&gt;Node14</title>
<g id="a_edge20_Node000011_Node000014"><a xlink:title=" ">
<path fill="none" stroke="#63b8ff" d="M498.69,-171.91C448.65,-167.71 323.39,-154.83 291.5,-129 277.7,-117.82 270.83,-98.3 267.49,-83.85"/>
<polygon fill="#63b8ff" stroke="#63b8ff" points="270.92,-83.15 265.57,-74 264.05,-84.49 270.92,-83.15"/>
</a>
</g>
</g>
<!-- Node18 -->
<g id="Node000018" class="node">
<title>Node18</title>
<g id="a_Node000018"><a xlink:href="tvariant_8h.html" target="_top" xlink:title=" ">
<polygon fill="white" stroke="#666666" points="364.5,-129 300.5,-129 300.5,-110 364.5,-110 364.5,-129"/>
<text text-anchor="middle" x="332.5" y="-117" font-family="Helvetica,sans-Serif" font-size="10.00">tvariant.h</text>
</a>
</g>
</g>
<!-- Node11&#45;&gt;Node18 -->
<g id="edge25_Node000011_Node000018" class="edge">
<title>Node11&#45;&gt;Node18</title>
<g id="a_edge25_Node000011_Node000018"><a xlink:title=" ">
<path fill="none" stroke="#63b8ff" d="M498.77,-167.63C468.4,-159.02 411.2,-142.8 372.47,-131.83"/>
<polygon fill="#63b8ff" stroke="#63b8ff" points="373.14,-128.38 362.56,-129.02 371.23,-135.12 373.14,-128.38"/>
</a>
</g>
</g>
<!-- Node12&#45;&gt;Node3 -->
<g id="edge18_Node000012_Node000003" class="edge">
<title>Node12&#45;&gt;Node3</title>
<g id="a_edge18_Node000012_Node000003"><a xlink:title=" ">
<path fill="none" stroke="#63b8ff" d="M519.5,-109.75C519.5,-102.8 519.5,-92.85 519.5,-84.13"/>
<polygon fill="#63b8ff" stroke="#63b8ff" points="523,-84.09 519.5,-74.09 516,-84.09 523,-84.09"/>
</a>
</g>
</g>
<!-- Node12&#45;&gt;Node7 -->
<g id="edge19_Node000012_Node000007" class="edge">
<title>Node12&#45;&gt;Node7</title>
<g id="a_edge19_Node000012_Node000007"><a xlink:title=" ">
<path fill="none" stroke="#63b8ff" d="M536.23,-109.99C553.14,-101.28 579.91,-87.2 602.5,-74 630.21,-57.8 661.31,-37.75 681.36,-24.56"/>
<polygon fill="#63b8ff" stroke="#63b8ff" points="683.33,-27.46 689.74,-19.03 679.47,-21.62 683.33,-27.46"/>
</a>
</g>
</g>
<!-- Node13 -->
<g id="Node000013" class="node">
<title>Node13</title>
<g id="a_Node000013"><a xlink:title=" ">
<polygon fill="#e0e0e0" stroke="#999999" points="422.5,-74 378.5,-74 378.5,-55 422.5,-55 422.5,-74"/>
<text text-anchor="middle" x="400.5" y="-62" font-family="Helvetica,sans-Serif" font-size="10.00">string</text>
</a>
</g>
</g>
<!-- Node12&#45;&gt;Node13 -->
<g id="edge17_Node000012_Node000013" class="edge">
<title>Node12&#45;&gt;Node13</title>
<g id="a_edge17_Node000012_Node000013"><a xlink:title=" ">
<path fill="none" stroke="#63b8ff" d="M500.38,-109.98C481.15,-101.42 451.27,-88.11 429.19,-78.28"/>
<polygon fill="#63b8ff" stroke="#63b8ff" points="430.53,-75.04 419.97,-74.17 427.68,-81.44 430.53,-75.04"/>
</a>
</g>
</g>
<!-- Node14&#45;&gt;Node4 -->
<g id="edge23_Node000014_Node000004" class="edge">
<title>Node14&#45;&gt;Node4</title>
<g id="a_edge23_Node000014_Node000004"><a xlink:title=" ">
<path fill="none" stroke="#63b8ff" d="M286.69,-57.11C317.01,-48.37 371.86,-32.57 409.22,-21.82"/>
<polygon fill="#63b8ff" stroke="#63b8ff" points="410.61,-25.06 419.25,-18.92 408.67,-18.33 410.61,-25.06"/>
</a>
</g>
</g>
<!-- Node15 -->
<g id="Node000015" class="node">
<title>Node15</title>
<g id="a_Node000015"><a xlink:title=" ">
<polygon fill="#e0e0e0" stroke="#999999" points="401.5,-19 369.5,-19 369.5,0 401.5,0 401.5,-19"/>
<text text-anchor="middle" x="385.5" y="-7" font-family="Helvetica,sans-Serif" font-size="10.00">list</text>
</a>
</g>
</g>
<!-- Node14&#45;&gt;Node15 -->
<g id="edge21_Node000014_Node000015" class="edge">
<title>Node14&#45;&gt;Node15</title>
<g id="a_edge21_Node000014_Node000015"><a xlink:title=" ">
<path fill="none" stroke="#63b8ff" d="M283.94,-54.98C304.54,-45.96 337.17,-31.67 359.86,-21.73"/>
<polygon fill="#63b8ff" stroke="#63b8ff" points="361.46,-24.85 369.21,-17.63 358.65,-18.44 361.46,-24.85"/>
</a>
</g>
</g>
<!-- Node16 -->
<g id="Node000016" class="node">
<title>Node16</title>
<g id="a_Node000016"><a xlink:title=" ">
<polygon fill="#e0e0e0" stroke="#999999" points="280,-19 197,-19 197,0 280,0 280,-19"/>
<text text-anchor="middle" x="238.5" y="-7" font-family="Helvetica,sans-Serif" font-size="10.00">initializer_list</text>
</a>
</g>
</g>
<!-- Node14&#45;&gt;Node16 -->
<g id="edge22_Node000014_Node000016" class="edge">
<title>Node14&#45;&gt;Node16</title>
<g id="a_edge22_Node000014_Node000016"><a xlink:title=" ">
<path fill="none" stroke="#63b8ff" d="M260.21,-54.75C256.69,-47.57 251.59,-37.18 247.22,-28.27"/>
<polygon fill="#63b8ff" stroke="#63b8ff" points="250.26,-26.53 242.71,-19.09 243.98,-29.61 250.26,-26.53"/>
</a>
</g>
</g>
<!-- Node17 -->
<g id="Node000017" class="node">
<title>Node17</title>
<g id="a_Node000017"><a xlink:title=" ">
<polygon fill="#e0e0e0" stroke="#999999" points="351,-19 298,-19 298,0 351,0 351,-19"/>
<text text-anchor="middle" x="324.5" y="-7" font-family="Helvetica,sans-Serif" font-size="10.00">tlist.tcc</text>
</a>
</g>
</g>
<!-- Node14&#45;&gt;Node17 -->
<g id="edge24_Node000014_Node000017" class="edge">
<title>Node14&#45;&gt;Node17</title>
<g id="a_edge24_Node000014_Node000017"><a xlink:title=" ">
<path fill="none" stroke="#63b8ff" d="M274.14,-54.98C283.01,-47.15 296.37,-35.34 307.11,-25.86"/>
<polygon fill="#63b8ff" stroke="#63b8ff" points="309.51,-28.41 314.68,-19.17 304.87,-23.17 309.51,-28.41"/>
</a>
</g>
</g>
<!-- Node18&#45;&gt;Node7 -->
<g id="edge34_Node000018_Node000007" class="edge">
<title>Node18&#45;&gt;Node7</title>
<g id="a_edge34_Node000018_Node000007"><a xlink:title=" ">
<path fill="none" stroke="#63b8ff" d="M364.67,-115.75C410.91,-111.07 498.34,-99.45 568.5,-74 584.77,-68.1 587.02,-62.75 602.5,-55 625.57,-43.45 652.3,-31.63 672.32,-23.08"/>
<polygon fill="#63b8ff" stroke="#63b8ff" points="673.72,-26.29 681.56,-19.16 670.99,-19.84 673.72,-26.29"/>
</a>
</g>
</g>
<!-- Node18&#45;&gt;Node14 -->
<g id="edge27_Node000018_Node000014" class="edge">
<title>Node18&#45;&gt;Node14</title>
<g id="a_edge27_Node000018_Node000014"><a xlink:title=" ">
<path fill="none" stroke="#63b8ff" d="M321.57,-109.98C311.42,-102.07 296.08,-90.11 283.85,-80.58"/>
<polygon fill="#63b8ff" stroke="#63b8ff" points="285.66,-77.56 275.62,-74.17 281.36,-83.08 285.66,-77.56"/>
</a>
</g>
</g>
<!-- Node19 -->
<g id="Node000019" class="node">
<title>Node19</title>
<g id="a_Node000019"><a xlink:title=" ">
<polygon fill="#e0e0e0" stroke="#999999" points="360.5,-74 304.5,-74 304.5,-55 360.5,-55 360.5,-74"/>
<text text-anchor="middle" x="332.5" y="-62" font-family="Helvetica,sans-Serif" font-size="10.00">sstream</text>
</a>
</g>
</g>
<!-- Node18&#45;&gt;Node19 -->
<g id="edge26_Node000018_Node000019" class="edge">
<title>Node18&#45;&gt;Node19</title>
<g id="a_edge26_Node000018_Node000019"><a xlink:title=" ">
<path fill="none" stroke="#63b8ff" d="M332.5,-109.75C332.5,-102.8 332.5,-92.85 332.5,-84.13"/>
<polygon fill="#63b8ff" stroke="#63b8ff" points="336,-84.09 332.5,-74.09 329,-84.09 336,-84.09"/>
</a>
</g>
</g>
<!-- Node20 -->
<g id="Node000020" class="node">
<title>Node20</title>
<g id="a_Node000020"><a xlink:href="tmap_8h.html" target="_top" xlink:title=" ">
<polygon fill="white" stroke="#666666" points="203,-74 152,-74 152,-55 203,-55 203,-74"/>
<text text-anchor="middle" x="177.5" y="-62" font-family="Helvetica,sans-Serif" font-size="10.00">tmap.h</text>
</a>
</g>
</g>
<!-- Node18&#45;&gt;Node20 -->
<g id="edge28_Node000018_Node000020" class="edge">
<title>Node18&#45;&gt;Node20</title>
<g id="a_edge28_Node000018_Node000020"><a xlink:title=" ">
<path fill="none" stroke="#63b8ff" d="M307.6,-109.98C281.8,-101.16 241.28,-87.31 212.32,-77.41"/>
<polygon fill="#63b8ff" stroke="#63b8ff" points="213.19,-74.01 202.6,-74.08 210.93,-80.63 213.19,-74.01"/>
</a>
</g>
</g>
<!-- Node20&#45;&gt;Node4 -->
<g id="edge30_Node000020_Node000004" class="edge">
<title>Node20&#45;&gt;Node4</title>
<g id="a_edge30_Node000020_Node000004"><a xlink:title=" ">
<path fill="none" stroke="#63b8ff" d="M203.07,-58.89C244.33,-51.39 328.39,-35.86 409.59,-19.14"/>
<polygon fill="#63b8ff" stroke="#63b8ff" points="410.39,-22.54 419.47,-17.09 408.97,-15.69 410.39,-22.54"/>
</a>
</g>
</g>
<!-- Node20&#45;&gt;Node16 -->
<g id="edge31_Node000020_Node000016" class="edge">
<title>Node20&#45;&gt;Node16</title>
<g id="a_edge31_Node000020_Node000016"><a xlink:title=" ">
<path fill="none" stroke="#63b8ff" d="M187.3,-54.98C196.32,-47.15 209.91,-35.34 220.82,-25.86"/>
<polygon fill="#63b8ff" stroke="#63b8ff" points="223.27,-28.37 228.52,-19.17 218.68,-23.09 223.27,-28.37"/>
</a>
</g>
</g>
<!-- Node21 -->
<g id="Node000021" class="node">
<title>Node21</title>
<g id="a_Node000021"><a xlink:title=" ">
<polygon fill="#e0e0e0" stroke="#999999" points="115.5,-19 77.5,-19 77.5,0 115.5,0 115.5,-19"/>
<text text-anchor="middle" x="96.5" y="-7" font-family="Helvetica,sans-Serif" font-size="10.00">map</text>
</a>
</g>
</g>
<!-- Node20&#45;&gt;Node21 -->
<g id="edge29_Node000020_Node000021" class="edge">
<title>Node20&#45;&gt;Node21</title>
<g id="a_edge29_Node000020_Node000021"><a xlink:title=" ">
<path fill="none" stroke="#63b8ff" d="M164.49,-54.98C152.04,-46.84 133.04,-34.41 118.29,-24.76"/>
<polygon fill="#63b8ff" stroke="#63b8ff" points="120.04,-21.72 109.75,-19.17 116.2,-27.57 120.04,-21.72"/>
</a>
</g>
</g>
<!-- Node22 -->
<g id="Node000022" class="node">
<title>Node22</title>
<g id="a_Node000022"><a xlink:title=" ">
<polygon fill="#e0e0e0" stroke="#999999" points="179,-19 134,-19 134,0 179,0 179,-19"/>
<text text-anchor="middle" x="156.5" y="-7" font-family="Helvetica,sans-Serif" font-size="10.00">utility</text>
</a>
</g>
</g>
<!-- Node20&#45;&gt;Node22 -->
<g id="edge32_Node000020_Node000022" class="edge">
<title>Node20&#45;&gt;Node22</title>
<g id="a_edge32_Node000020_Node000022"><a xlink:title=" ">
<path fill="none" stroke="#63b8ff" d="M174.03,-54.75C171.22,-47.65 167.16,-37.4 163.65,-28.56"/>
<polygon fill="#63b8ff" stroke="#63b8ff" points="166.84,-27.1 159.9,-19.09 160.33,-29.68 166.84,-27.1"/>
</a>
</g>
</g>
<!-- Node23 -->
<g id="Node000023" class="node">
<title>Node23</title>
<g id="a_Node000023"><a xlink:title=" ">
<polygon fill="#e0e0e0" stroke="#999999" points="59,-19 0,-19 0,0 59,0 59,-19"/>
<text text-anchor="middle" x="29.5" y="-7" font-family="Helvetica,sans-Serif" font-size="10.00">tmap.tcc</text>
</a>
</g>
</g>
<!-- Node20&#45;&gt;Node23 -->
<g id="edge33_Node000020_Node000023" class="edge">
<title>Node20&#45;&gt;Node23</title>
<g id="a_edge33_Node000020_Node000023"><a xlink:title=" ">
<path fill="none" stroke="#63b8ff" d="M153.72,-54.98C129.27,-46.23 90.97,-32.51 63.35,-22.62"/>
<polygon fill="#63b8ff" stroke="#63b8ff" points="64.31,-19.25 53.71,-19.17 61.95,-25.84 64.31,-19.25"/>
</a>
</g>
</g>
<!-- Node24&#45;&gt;Node7 -->
<g id="edge37_Node000024_Node000007" class="edge">
<title>Node24&#45;&gt;Node7</title>
<g id="a_edge37_Node000024_Node000007"><a xlink:title=" ">
<path fill="none" stroke="#63b8ff" d="M742.24,-164.74C735.66,-139.2 716.4,-64.43 707.33,-29.23"/>
<polygon fill="#63b8ff" stroke="#63b8ff" points="710.65,-28.12 704.77,-19.31 703.88,-29.86 710.65,-28.12"/>
</a>
</g>
</g>
<!-- Node25 -->
<g id="Node000025" class="node">
<title>Node25</title>
<g id="a_Node000025"><a xlink:href="audioproperties_8h.html" target="_top" xlink:title=" ">
<polygon fill="white" stroke="#666666" points="1000.5,-129 898.5,-129 898.5,-110 1000.5,-110 1000.5,-129"/>
<text text-anchor="middle" x="949.5" y="-117" font-family="Helvetica,sans-Serif" font-size="10.00">audioproperties.h</text>
</a>
</g>
</g>
<!-- Node24&#45;&gt;Node25 -->
<g id="edge38_Node000024_Node000025" class="edge">
<title>Node24&#45;&gt;Node25</title>
<g id="a_edge38_Node000024_Node000025"><a xlink:title=" ">
<path fill="none" stroke="#63b8ff" d="M777.44,-164.98C812.45,-155.93 867.97,-141.58 906.43,-131.64"/>
<polygon fill="#63b8ff" stroke="#63b8ff" points="907.5,-134.97 916.31,-129.08 905.75,-128.2 907.5,-134.97"/>
</a>
</g>
</g>
<!-- Node25&#45;&gt;Node4 -->
<g id="edge39_Node000025_Node000004" class="edge">
<title>Node25&#45;&gt;Node4</title>
<g id="a_edge39_Node000025_Node000004"><a xlink:title=" ">
<path fill="none" stroke="#63b8ff" d="M898.39,-113.94C775.15,-102.93 471.59,-75.66 469.5,-74 456.16,-63.39 451.22,-44.08 449.42,-29.52"/>
<polygon fill="#63b8ff" stroke="#63b8ff" points="452.88,-28.81 448.56,-19.13 445.9,-29.39 452.88,-28.81"/>
</a>
</g>
</g>
<!-- Node25&#45;&gt;Node7 -->
<g id="edge41_Node000025_Node000007" class="edge">
<title>Node25&#45;&gt;Node7</title>
<g id="a_edge41_Node000025_Node000007"><a xlink:title=" ">
<path fill="none" stroke="#63b8ff" d="M942.99,-109.6C932.36,-95.73 909.88,-69.09 884.5,-55 845.25,-33.21 795.42,-21.98 757.82,-16.26"/>
<polygon fill="#63b8ff" stroke="#63b8ff" points="757.96,-12.74 747.56,-14.79 756.96,-19.67 757.96,-12.74"/>
</a>
</g>
</g>
<!-- Node25&#45;&gt;Node9 -->
<g id="edge40_Node000025_Node000009" class="edge">
<title>Node25&#45;&gt;Node9</title>
<g id="a_edge40_Node000025_Node000009"><a xlink:title=" ">
<path fill="none" stroke="#63b8ff" d="M951.81,-109.75C953.67,-102.72 956.34,-92.62 958.65,-83.84"/>
<polygon fill="#63b8ff" stroke="#63b8ff" points="962.06,-84.65 961.23,-74.09 955.29,-82.86 962.06,-84.65"/>
</a>
</g>
</g>
</g>
</svg>
