<?xml version="1.0" encoding="UTF-8" standalone="no"?>
<!DOCTYPE svg PUBLIC "-//W3C//DTD SVG 1.1//EN"
 "http://www.w3.org/Graphics/SVG/1.1/DTD/svg11.dtd">
<!-- Generated by graphviz version 2.46.1 (20210213.1702)
 -->
<!-- Title: xiphcomment.h Pages: 1 -->
<svg width="790pt" height="308pt"
 viewBox="0.00 0.00 789.76 308.00" xmlns="http://www.w3.org/2000/svg" xmlns:xlink="http://www.w3.org/1999/xlink">
<g id="graph0" class="graph" transform="scale(1 1) rotate(0) translate(4 304)">
<title>xiphcomment.h</title>
<polygon fill="white" stroke="transparent" points="-4,4 -4,-304 785.76,-304 785.76,4 -4,4"/>
<!-- Node1 -->
<g id="node1" class="node">
<title>Node1</title>
<g id="a_node1"><a xlink:title=" ">
<polygon fill="#bfbfbf" stroke="black" points="290.76,-280.5 290.76,-299.5 373.76,-299.5 373.76,-280.5 290.76,-280.5"/>
<text text-anchor="middle" x="332.26" y="-287.5" font-family="Helvetica,sans-Serif" font-size="10.00">xiphcomment.h</text>
</a>
</g>
</g>
<!-- Node2 -->
<g id="node2" class="node">
<title>Node2</title>
<g id="a_node2"><a xlink:href="tag_8h.html" target="_top" xlink:title=" ">
<polygon fill="white" stroke="black" points="80.26,-224.5 80.26,-243.5 118.26,-243.5 118.26,-224.5 80.26,-224.5"/>
<text text-anchor="middle" x="99.26" y="-231.5" font-family="Helvetica,sans-Serif" font-size="10.00">tag.h</text>
</a>
</g>
</g>
<!-- Node1&#45;&gt;Node2 -->
<g id="edge1" class="edge">
<title>Node1&#45;&gt;Node2</title>
<path fill="none" stroke="midnightblue" d="M295.34,-280.44C249.09,-269.72 170.77,-251.57 128.47,-241.77"/>
<polygon fill="midnightblue" stroke="midnightblue" points="129.06,-238.31 118.53,-239.47 127.48,-245.13 129.06,-238.31"/>
</g>
<!-- Node3 -->
<g id="node3" class="node">
<title>Node3</title>
<g id="a_node3"><a xlink:href="taglib__export_8h.html" target="_top" xlink:title=" ">
<polygon fill="white" stroke="black" points="75.26,-56.5 75.26,-75.5 155.26,-75.5 155.26,-56.5 75.26,-56.5"/>
<text text-anchor="middle" x="115.26" y="-63.5" font-family="Helvetica,sans-Serif" font-size="10.00">taglib_export.h</text>
</a>
</g>
</g>
<!-- Node1&#45;&gt;Node3 -->
<g id="edge43" class="edge">
<title>Node1&#45;&gt;Node3</title>
<path fill="none" stroke="midnightblue" d="M290.63,-289.14C237.1,-287.73 142.56,-279.78 71.26,-244 38.94,-227.79 26.53,-221.22 12.26,-188 -1.07,-156.96 -6.24,-140.26 12.26,-112 24.2,-93.76 45.33,-82.87 65.36,-76.39"/>
<polygon fill="midnightblue" stroke="midnightblue" points="66.45,-79.72 75.06,-73.55 64.48,-73 66.45,-79.72"/>
</g>
<!-- Node4 -->
<g id="node4" class="node">
<title>Node4</title>
<g id="a_node4"><a xlink:href="tstring_8h.html" target="_top" xlink:title=" ">
<polygon fill="white" stroke="black" points="73.26,-168.5 73.26,-187.5 125.26,-187.5 125.26,-168.5 73.26,-168.5"/>
<text text-anchor="middle" x="99.26" y="-175.5" font-family="Helvetica,sans-Serif" font-size="10.00">tstring.h</text>
</a>
</g>
</g>
<!-- Node1&#45;&gt;Node4 -->
<g id="edge23" class="edge">
<title>Node1&#45;&gt;Node4</title>
<path fill="none" stroke="midnightblue" d="M303.06,-280.43C277.08,-272.37 238.34,-259.28 206.26,-244 174.98,-229.1 141.16,-207.55 120.1,-193.41"/>
<polygon fill="midnightblue" stroke="midnightblue" points="121.88,-190.39 111.64,-187.67 117.95,-196.18 121.88,-190.39"/>
</g>
<!-- Node8 -->
<g id="node8" class="node">
<title>Node8</title>
<g id="a_node8"><a xlink:href="tbytevector_8h.html" target="_top" xlink:title=" ">
<polygon fill="white" stroke="black" points="333.76,-112.5 333.76,-131.5 406.76,-131.5 406.76,-112.5 333.76,-112.5"/>
<text text-anchor="middle" x="370.26" y="-119.5" font-family="Helvetica,sans-Serif" font-size="10.00">tbytevector.h</text>
</a>
</g>
</g>
<!-- Node1&#45;&gt;Node8 -->
<g id="edge33" class="edge">
<title>Node1&#45;&gt;Node8</title>
<path fill="none" stroke="midnightblue" d="M350.53,-280.4C378.71,-265.95 431.58,-233.81 451.26,-188 461.68,-163.73 433.65,-145.95 407.76,-135.18"/>
<polygon fill="midnightblue" stroke="midnightblue" points="408.98,-131.9 398.39,-131.53 406.44,-138.42 408.98,-131.9"/>
</g>
<!-- Node11 -->
<g id="node11" class="node">
<title>Node11</title>
<g id="a_node11"><a xlink:href="tlist_8h.html" target="_top" xlink:title=" ">
<polygon fill="white" stroke="black" points="434.76,-112.5 434.76,-131.5 475.76,-131.5 475.76,-112.5 434.76,-112.5"/>
<text text-anchor="middle" x="455.26" y="-119.5" font-family="Helvetica,sans-Serif" font-size="10.00">tlist.h</text>
</a>
</g>
</g>
<!-- Node1&#45;&gt;Node11 -->
<g id="edge15" class="edge">
<title>Node1&#45;&gt;Node11</title>
<path fill="none" stroke="midnightblue" d="M361.18,-280.4C382.03,-273.14 409.97,-261.18 430.26,-244 453.21,-224.57 459.42,-216.75 468.26,-188 473.06,-172.38 468.53,-154.08 463.55,-140.89"/>
<polygon fill="midnightblue" stroke="midnightblue" points="466.72,-139.41 459.62,-131.55 460.27,-142.12 466.72,-139.41"/>
</g>
<!-- Node14 -->
<g id="node14" class="node">
<title>Node14</title>
<g id="a_node14"><a xlink:href="tmap_8h.html" target="_top" xlink:title=" ">
<polygon fill="white" stroke="black" points="656.76,-224.5 656.76,-243.5 703.76,-243.5 703.76,-224.5 656.76,-224.5"/>
<text text-anchor="middle" x="680.26" y="-231.5" font-family="Helvetica,sans-Serif" font-size="10.00">tmap.h</text>
</a>
</g>
</g>
<!-- Node1&#45;&gt;Node14 -->
<g id="edge19" class="edge">
<title>Node1&#45;&gt;Node14</title>
<path fill="none" stroke="midnightblue" d="M373.89,-282.54C443.62,-271.72 582.65,-250.15 646.62,-240.22"/>
<polygon fill="midnightblue" stroke="midnightblue" points="647.24,-243.67 656.58,-238.67 646.16,-236.75 647.24,-243.67"/>
</g>
<!-- Node17 -->
<g id="node17" class="node">
<title>Node17</title>
<g id="a_node17"><a xlink:href="tstringlist_8h.html" target="_top" xlink:title=" ">
<polygon fill="white" stroke="black" points="215.76,-224.5 215.76,-243.5 280.76,-243.5 280.76,-224.5 215.76,-224.5"/>
<text text-anchor="middle" x="248.26" y="-231.5" font-family="Helvetica,sans-Serif" font-size="10.00">tstringlist.h</text>
</a>
</g>
</g>
<!-- Node1&#45;&gt;Node17 -->
<g id="edge24" class="edge">
<title>Node1&#45;&gt;Node17</title>
<path fill="none" stroke="midnightblue" d="M318.76,-280.32C305.66,-271.9 285.55,-258.97 270.15,-249.07"/>
<polygon fill="midnightblue" stroke="midnightblue" points="272.03,-246.12 261.72,-243.65 268.24,-252.01 272.03,-246.12"/>
</g>
<!-- Node19 -->
<g id="node19" class="node">
<title>Node19</title>
<g id="a_node19"><a xlink:href="flacpicture_8h.html" target="_top" xlink:title=" ">
<polygon fill="white" stroke="black" points="313.26,-224.5 313.26,-243.5 383.26,-243.5 383.26,-224.5 313.26,-224.5"/>
<text text-anchor="middle" x="348.26" y="-231.5" font-family="Helvetica,sans-Serif" font-size="10.00">flacpicture.h</text>
</a>
</g>
</g>
<!-- Node1&#45;&gt;Node19 -->
<g id="edge34" class="edge">
<title>Node1&#45;&gt;Node19</title>
<path fill="none" stroke="midnightblue" d="M334.9,-280.08C337.04,-272.85 340.14,-262.41 342.81,-253.4"/>
<polygon fill="midnightblue" stroke="midnightblue" points="346.18,-254.33 345.67,-243.75 339.47,-252.34 346.18,-254.33"/>
</g>
<!-- Node2&#45;&gt;Node3 -->
<g id="edge2" class="edge">
<title>Node2&#45;&gt;Node3</title>
<path fill="none" stroke="midnightblue" d="M80.15,-227.37C62.36,-221 36.9,-208.71 25.26,-188 8.7,-158.56 7.5,-140.73 25.26,-112 34.93,-96.35 51.88,-85.96 68.48,-79.15"/>
<polygon fill="midnightblue" stroke="midnightblue" points="70.01,-82.32 78.16,-75.54 67.56,-75.76 70.01,-82.32"/>
</g>
<!-- Node2&#45;&gt;Node4 -->
<g id="edge3" class="edge">
<title>Node2&#45;&gt;Node4</title>
<path fill="none" stroke="midnightblue" d="M99.26,-224.08C99.26,-217.01 99.26,-206.86 99.26,-197.99"/>
<polygon fill="midnightblue" stroke="midnightblue" points="102.76,-197.75 99.26,-187.75 95.76,-197.75 102.76,-197.75"/>
</g>
<!-- Node4&#45;&gt;Node3 -->
<g id="edge4" class="edge">
<title>Node4&#45;&gt;Node3</title>
<path fill="none" stroke="midnightblue" d="M98.78,-168.09C98.27,-155.5 97.93,-131.82 101.26,-112 102.76,-103.02 105.6,-93.35 108.34,-85.28"/>
<polygon fill="midnightblue" stroke="midnightblue" points="111.66,-86.39 111.74,-75.79 105.07,-84.02 111.66,-86.39"/>
</g>
<!-- Node5 -->
<g id="node5" class="node">
<title>Node5</title>
<g id="a_node5"><a xlink:href="taglib_8h.html" target="_top" xlink:title=" ">
<polygon fill="white" stroke="black" points="374.26,-56.5 374.26,-75.5 422.26,-75.5 422.26,-56.5 374.26,-56.5"/>
<text text-anchor="middle" x="398.26" y="-63.5" font-family="Helvetica,sans-Serif" font-size="10.00">taglib.h</text>
</a>
</g>
</g>
<!-- Node4&#45;&gt;Node5 -->
<g id="edge5" class="edge">
<title>Node4&#45;&gt;Node5</title>
<path fill="none" stroke="midnightblue" d="M122.72,-168.37C175.67,-148.89 304.54,-101.48 365.4,-79.09"/>
<polygon fill="midnightblue" stroke="midnightblue" points="366.73,-82.33 374.9,-75.59 364.31,-75.76 366.73,-82.33"/>
</g>
<!-- Node7 -->
<g id="node7" class="node">
<title>Node7</title>
<g id="a_node7"><a xlink:title=" ">
<polygon fill="white" stroke="#bfbfbf" points="120.76,-0.5 120.76,-19.5 161.76,-19.5 161.76,-0.5 120.76,-0.5"/>
<text text-anchor="middle" x="141.26" y="-7.5" font-family="Helvetica,sans-Serif" font-size="10.00">string</text>
</a>
</g>
</g>
<!-- Node4&#45;&gt;Node7 -->
<g id="edge13" class="edge">
<title>Node4&#45;&gt;Node7</title>
<path fill="none" stroke="midnightblue" d="M92.58,-168.23C77.66,-147.48 44.59,-94.27 66.26,-56 75.8,-39.15 94.45,-27.92 110.76,-20.89"/>
<polygon fill="midnightblue" stroke="midnightblue" points="112.49,-23.97 120.51,-17.05 109.93,-17.46 112.49,-23.97"/>
</g>
<!-- Node4&#45;&gt;Node8 -->
<g id="edge8" class="edge">
<title>Node4&#45;&gt;Node8</title>
<path fill="none" stroke="midnightblue" d="M125.74,-171.72C171.6,-162.59 266.36,-143.7 323.52,-132.31"/>
<polygon fill="midnightblue" stroke="midnightblue" points="324.26,-135.73 333.38,-130.35 322.89,-128.87 324.26,-135.73"/>
</g>
<!-- Node10 -->
<g id="node10" class="node">
<title>Node10</title>
<g id="a_node10"><a xlink:title=" ">
<polygon fill="white" stroke="#bfbfbf" points="240.26,-56.5 240.26,-75.5 294.26,-75.5 294.26,-56.5 240.26,-56.5"/>
<text text-anchor="middle" x="267.26" y="-63.5" font-family="Helvetica,sans-Serif" font-size="10.00">iostream</text>
</a>
</g>
</g>
<!-- Node4&#45;&gt;Node10 -->
<g id="edge14" class="edge">
<title>Node4&#45;&gt;Node10</title>
<path fill="none" stroke="midnightblue" d="M112.44,-168.37C141.27,-149.49 210.16,-104.38 245.51,-81.24"/>
<polygon fill="midnightblue" stroke="midnightblue" points="247.69,-84 254.14,-75.59 243.85,-78.14 247.69,-84"/>
</g>
<!-- Node6 -->
<g id="node6" class="node">
<title>Node6</title>
<g id="a_node6"><a xlink:title=" ">
<polygon fill="white" stroke="#bfbfbf" points="358.26,-0.5 358.26,-19.5 438.26,-19.5 438.26,-0.5 358.26,-0.5"/>
<text text-anchor="middle" x="398.26" y="-7.5" font-family="Helvetica,sans-Serif" font-size="10.00">taglib_config.h</text>
</a>
</g>
</g>
<!-- Node5&#45;&gt;Node6 -->
<g id="edge6" class="edge">
<title>Node5&#45;&gt;Node6</title>
<path fill="none" stroke="midnightblue" d="M398.26,-56.08C398.26,-49.01 398.26,-38.86 398.26,-29.99"/>
<polygon fill="midnightblue" stroke="midnightblue" points="401.76,-29.75 398.26,-19.75 394.76,-29.75 401.76,-29.75"/>
</g>
<!-- Node5&#45;&gt;Node7 -->
<g id="edge7" class="edge">
<title>Node5&#45;&gt;Node7</title>
<path fill="none" stroke="midnightblue" d="M374.16,-58.22C371.17,-57.44 368.15,-56.68 365.26,-56 296.61,-39.76 215.24,-24.37 171.95,-16.48"/>
<polygon fill="midnightblue" stroke="midnightblue" points="172.52,-13.03 162.05,-14.69 171.27,-19.92 172.52,-13.03"/>
</g>
<!-- Node8&#45;&gt;Node3 -->
<g id="edge10" class="edge">
<title>Node8&#45;&gt;Node3</title>
<path fill="none" stroke="midnightblue" d="M333.72,-113.26C289.53,-103.9 214.92,-88.1 165.38,-77.61"/>
<polygon fill="midnightblue" stroke="midnightblue" points="166.02,-74.17 155.51,-75.52 164.57,-81.02 166.02,-74.17"/>
</g>
<!-- Node8&#45;&gt;Node5 -->
<g id="edge9" class="edge">
<title>Node8&#45;&gt;Node5</title>
<path fill="none" stroke="midnightblue" d="M374.88,-112.08C378.71,-104.69 384.28,-93.95 389.02,-84.81"/>
<polygon fill="midnightblue" stroke="midnightblue" points="392.22,-86.24 393.72,-75.75 386.01,-83.02 392.22,-86.24"/>
</g>
<!-- Node9 -->
<g id="node9" class="node">
<title>Node9</title>
<g id="a_node9"><a xlink:title=" ">
<polygon fill="white" stroke="#bfbfbf" points="312.26,-56.5 312.26,-75.5 356.26,-75.5 356.26,-56.5 312.26,-56.5"/>
<text text-anchor="middle" x="334.26" y="-63.5" font-family="Helvetica,sans-Serif" font-size="10.00">vector</text>
</a>
</g>
</g>
<!-- Node8&#45;&gt;Node9 -->
<g id="edge11" class="edge">
<title>Node8&#45;&gt;Node9</title>
<path fill="none" stroke="midnightblue" d="M364.31,-112.08C359.28,-104.53 351.92,-93.49 345.74,-84.23"/>
<polygon fill="midnightblue" stroke="midnightblue" points="348.55,-82.13 340.09,-75.75 342.73,-86.01 348.55,-82.13"/>
</g>
<!-- Node8&#45;&gt;Node10 -->
<g id="edge12" class="edge">
<title>Node8&#45;&gt;Node10</title>
<path fill="none" stroke="midnightblue" d="M353.71,-112.32C337.27,-103.7 311.82,-90.36 292.79,-80.39"/>
<polygon fill="midnightblue" stroke="midnightblue" points="294.25,-77.2 283.77,-75.65 291,-83.4 294.25,-77.2"/>
</g>
<!-- Node11&#45;&gt;Node5 -->
<g id="edge16" class="edge">
<title>Node11&#45;&gt;Node5</title>
<path fill="none" stroke="midnightblue" d="M446.1,-112.32C437.76,-104.42 425.23,-92.55 415.08,-82.94"/>
<polygon fill="midnightblue" stroke="midnightblue" points="417.25,-80.17 407.58,-75.83 412.44,-85.25 417.25,-80.17"/>
</g>
<!-- Node12 -->
<g id="node12" class="node">
<title>Node12</title>
<g id="a_node12"><a xlink:title=" ">
<polygon fill="white" stroke="#bfbfbf" points="440.76,-56.5 440.76,-75.5 469.76,-75.5 469.76,-56.5 440.76,-56.5"/>
<text text-anchor="middle" x="455.26" y="-63.5" font-family="Helvetica,sans-Serif" font-size="10.00">list</text>
</a>
</g>
</g>
<!-- Node11&#45;&gt;Node12 -->
<g id="edge17" class="edge">
<title>Node11&#45;&gt;Node12</title>
<path fill="none" stroke="midnightblue" d="M455.26,-112.08C455.26,-105.01 455.26,-94.86 455.26,-85.99"/>
<polygon fill="midnightblue" stroke="midnightblue" points="458.76,-85.75 455.26,-75.75 451.76,-85.75 458.76,-85.75"/>
</g>
<!-- Node13 -->
<g id="node13" class="node">
<title>Node13</title>
<g id="a_node13"><a xlink:title=" ">
<polygon fill="white" stroke="#bfbfbf" points="487.76,-56.5 487.76,-75.5 536.76,-75.5 536.76,-56.5 487.76,-56.5"/>
<text text-anchor="middle" x="512.26" y="-63.5" font-family="Helvetica,sans-Serif" font-size="10.00">tlist.tcc</text>
</a>
</g>
</g>
<!-- Node11&#45;&gt;Node13 -->
<g id="edge18" class="edge">
<title>Node11&#45;&gt;Node13</title>
<path fill="none" stroke="midnightblue" d="M464.42,-112.32C472.76,-104.42 485.29,-92.55 495.43,-82.94"/>
<polygon fill="midnightblue" stroke="midnightblue" points="498.08,-85.25 502.93,-75.83 493.27,-80.17 498.08,-85.25"/>
</g>
<!-- Node14&#45;&gt;Node5 -->
<g id="edge21" class="edge">
<title>Node14&#45;&gt;Node5</title>
<path fill="none" stroke="midnightblue" d="M667.23,-224.42C636.2,-204.1 555.25,-151.73 485.26,-112 465.29,-100.67 442.19,-88.77 424.81,-80.06"/>
<polygon fill="midnightblue" stroke="midnightblue" points="426.31,-76.9 415.8,-75.57 423.19,-83.16 426.31,-76.9"/>
</g>
<!-- Node15 -->
<g id="node15" class="node">
<title>Node15</title>
<g id="a_node15"><a xlink:title=" ">
<polygon fill="white" stroke="#bfbfbf" points="746.76,-168.5 746.76,-187.5 781.76,-187.5 781.76,-168.5 746.76,-168.5"/>
<text text-anchor="middle" x="764.26" y="-175.5" font-family="Helvetica,sans-Serif" font-size="10.00">map</text>
</a>
</g>
</g>
<!-- Node14&#45;&gt;Node15 -->
<g id="edge20" class="edge">
<title>Node14&#45;&gt;Node15</title>
<path fill="none" stroke="midnightblue" d="M693.75,-224.32C706.86,-215.9 726.97,-202.97 742.36,-193.07"/>
<polygon fill="midnightblue" stroke="midnightblue" points="744.28,-196.01 750.8,-187.65 740.49,-190.12 744.28,-196.01"/>
</g>
<!-- Node16 -->
<g id="node16" class="node">
<title>Node16</title>
<g id="a_node16"><a xlink:title=" ">
<polygon fill="white" stroke="#bfbfbf" points="673.76,-168.5 673.76,-187.5 728.76,-187.5 728.76,-168.5 673.76,-168.5"/>
<text text-anchor="middle" x="701.26" y="-175.5" font-family="Helvetica,sans-Serif" font-size="10.00">tmap.tcc</text>
</a>
</g>
</g>
<!-- Node14&#45;&gt;Node16 -->
<g id="edge22" class="edge">
<title>Node14&#45;&gt;Node16</title>
<path fill="none" stroke="midnightblue" d="M683.73,-224.08C686.57,-216.77 690.69,-206.18 694.22,-197.1"/>
<polygon fill="midnightblue" stroke="midnightblue" points="697.49,-198.34 697.85,-187.75 690.97,-195.8 697.49,-198.34"/>
</g>
<!-- Node17&#45;&gt;Node3 -->
<g id="edge31" class="edge">
<title>Node17&#45;&gt;Node3</title>
<path fill="none" stroke="midnightblue" d="M215.65,-229.79C167.94,-224.35 82.74,-211.54 64.26,-188 38.59,-155.29 75.38,-107.77 98.66,-83.15"/>
<polygon fill="midnightblue" stroke="midnightblue" points="101.43,-85.32 105.93,-75.73 96.43,-80.42 101.43,-85.32"/>
</g>
<!-- Node17&#45;&gt;Node4 -->
<g id="edge25" class="edge">
<title>Node17&#45;&gt;Node4</title>
<path fill="none" stroke="midnightblue" d="M224.65,-224.44C199.8,-215.44 160.48,-201.19 132.5,-191.05"/>
<polygon fill="midnightblue" stroke="midnightblue" points="133.35,-187.63 122.76,-187.52 130.97,-194.21 133.35,-187.63"/>
</g>
<!-- Node17&#45;&gt;Node10 -->
<g id="edge32" class="edge">
<title>Node17&#45;&gt;Node10</title>
<path fill="none" stroke="midnightblue" d="M237.54,-224.3C228.32,-216.07 215.67,-202.79 210.26,-188 207.2,-179.65 208,-176.6 210.26,-168 218.74,-135.7 240.16,-102.86 254.19,-83.73"/>
<polygon fill="midnightblue" stroke="midnightblue" points="257.17,-85.6 260.39,-75.51 251.58,-81.39 257.17,-85.6"/>
</g>
<!-- Node17&#45;&gt;Node11 -->
<g id="edge26" class="edge">
<title>Node17&#45;&gt;Node11</title>
<path fill="none" stroke="midnightblue" d="M281.02,-227.01C331.84,-217.44 425.01,-198.7 436.26,-188 448.76,-176.1 453.17,-156.48 454.66,-141.91"/>
<polygon fill="midnightblue" stroke="midnightblue" points="458.18,-141.74 455.33,-131.54 451.19,-141.3 458.18,-141.74"/>
</g>
<!-- Node18 -->
<g id="node18" class="node">
<title>Node18</title>
<g id="a_node18"><a xlink:href="tbytevectorlist_8h.html" target="_top" xlink:title=" ">
<polygon fill="white" stroke="black" points="219.26,-168.5 219.26,-187.5 305.26,-187.5 305.26,-168.5 219.26,-168.5"/>
<text text-anchor="middle" x="262.26" y="-175.5" font-family="Helvetica,sans-Serif" font-size="10.00">tbytevectorlist.h</text>
</a>
</g>
</g>
<!-- Node17&#45;&gt;Node18 -->
<g id="edge27" class="edge">
<title>Node17&#45;&gt;Node18</title>
<path fill="none" stroke="midnightblue" d="M250.57,-224.08C252.43,-216.93 255.09,-206.64 257.41,-197.69"/>
<polygon fill="midnightblue" stroke="midnightblue" points="260.87,-198.31 259.99,-187.75 254.09,-196.55 260.87,-198.31"/>
</g>
<!-- Node18&#45;&gt;Node3 -->
<g id="edge28" class="edge">
<title>Node18&#45;&gt;Node3</title>
<path fill="none" stroke="midnightblue" d="M250.72,-168.37C225.71,-149.65 166.24,-105.15 135.08,-81.83"/>
<polygon fill="midnightblue" stroke="midnightblue" points="136.84,-78.78 126.74,-75.59 132.65,-84.39 136.84,-78.78"/>
</g>
<!-- Node18&#45;&gt;Node8 -->
<g id="edge29" class="edge">
<title>Node18&#45;&gt;Node8</title>
<path fill="none" stroke="midnightblue" d="M279.61,-168.32C296.93,-159.66 323.77,-146.24 343.76,-136.25"/>
<polygon fill="midnightblue" stroke="midnightblue" points="345.57,-139.26 352.95,-131.65 342.44,-133 345.57,-139.26"/>
</g>
<!-- Node18&#45;&gt;Node11 -->
<g id="edge30" class="edge">
<title>Node18&#45;&gt;Node11</title>
<path fill="none" stroke="midnightblue" d="M292.84,-168.44C328.92,-158.35 388.56,-141.66 424.66,-131.56"/>
<polygon fill="midnightblue" stroke="midnightblue" points="425.92,-134.84 434.61,-128.78 424.04,-128.1 425.92,-134.84"/>
</g>
<!-- Node19&#45;&gt;Node3 -->
<g id="edge38" class="edge">
<title>Node19&#45;&gt;Node3</title>
<path fill="none" stroke="midnightblue" d="M313.1,-227.44C283.57,-221.47 241.34,-209.73 210.26,-188 170.47,-160.18 139.29,-110.86 124.55,-84.6"/>
<polygon fill="midnightblue" stroke="midnightblue" points="127.59,-82.86 119.72,-75.76 121.44,-86.21 127.59,-82.86"/>
</g>
<!-- Node19&#45;&gt;Node4 -->
<g id="edge36" class="edge">
<title>Node19&#45;&gt;Node4</title>
<path fill="none" stroke="midnightblue" d="M313.11,-225.53C271.56,-216.69 200.34,-201.45 139.26,-188 138.01,-187.72 136.73,-187.44 135.45,-187.16"/>
<polygon fill="midnightblue" stroke="midnightblue" points="136.02,-183.7 125.5,-184.94 134.5,-190.53 136.02,-183.7"/>
</g>
<!-- Node19&#45;&gt;Node8 -->
<g id="edge37" class="edge">
<title>Node19&#45;&gt;Node8</title>
<path fill="none" stroke="midnightblue" d="M383.66,-224.55C402.8,-217.99 424.8,-206.74 436.26,-188 449.02,-167.14 423.34,-148.13 400.38,-136.13"/>
<polygon fill="midnightblue" stroke="midnightblue" points="401.67,-132.86 391.15,-131.58 398.57,-139.14 401.67,-132.86"/>
</g>
<!-- Node19&#45;&gt;Node11 -->
<g id="edge35" class="edge">
<title>Node19&#45;&gt;Node11</title>
<path fill="none" stroke="midnightblue" d="M383.4,-227.32C406.69,-221.59 435.72,-210.23 451.26,-188 460.56,-174.69 460.69,-155.86 459,-141.89"/>
<polygon fill="midnightblue" stroke="midnightblue" points="462.44,-141.25 457.4,-131.93 455.53,-142.35 462.44,-141.25"/>
</g>
<!-- Node20 -->
<g id="node20" class="node">
<title>Node20</title>
<g id="a_node20"><a xlink:href="flacmetadatablock_8h.html" target="_top" xlink:title=" ">
<polygon fill="white" stroke="black" points="323.26,-168.5 323.26,-187.5 427.26,-187.5 427.26,-168.5 323.26,-168.5"/>
<text text-anchor="middle" x="375.26" y="-175.5" font-family="Helvetica,sans-Serif" font-size="10.00">flacmetadatablock.h</text>
</a>
</g>
</g>
<!-- Node19&#45;&gt;Node20 -->
<g id="edge39" class="edge">
<title>Node19&#45;&gt;Node20</title>
<path fill="none" stroke="midnightblue" d="M352.72,-224.08C356.41,-216.69 361.78,-205.95 366.35,-196.81"/>
<polygon fill="midnightblue" stroke="midnightblue" points="369.54,-198.26 370.88,-187.75 363.28,-195.13 369.54,-198.26"/>
</g>
<!-- Node20&#45;&gt;Node3 -->
<g id="edge42" class="edge">
<title>Node20&#45;&gt;Node3</title>
<path fill="none" stroke="midnightblue" d="M354.86,-168.37C309.1,-149.01 198.14,-102.06 144.82,-79.51"/>
<polygon fill="midnightblue" stroke="midnightblue" points="146.14,-76.26 135.56,-75.59 143.41,-82.71 146.14,-76.26"/>
</g>
<!-- Node20&#45;&gt;Node8 -->
<g id="edge41" class="edge">
<title>Node20&#45;&gt;Node8</title>
<path fill="none" stroke="midnightblue" d="M374.43,-168.08C373.78,-161.01 372.84,-150.86 372.02,-141.99"/>
<polygon fill="midnightblue" stroke="midnightblue" points="375.48,-141.39 371.07,-131.75 368.51,-142.03 375.48,-141.39"/>
</g>
<!-- Node20&#45;&gt;Node11 -->
<g id="edge40" class="edge">
<title>Node20&#45;&gt;Node11</title>
<path fill="none" stroke="midnightblue" d="M388.11,-168.32C400.47,-159.98 419.39,-147.21 434,-137.35"/>
<polygon fill="midnightblue" stroke="midnightblue" points="436.11,-140.15 442.44,-131.65 432.19,-134.35 436.11,-140.15"/>
</g>
</g>
</svg>
