<?xml version="1.0" encoding="UTF-8" standalone="no"?>
<!DOCTYPE svg PUBLIC "-//W3C//DTD SVG 1.1//EN"
 "http://www.w3.org/Graphics/SVG/1.1/DTD/svg11.dtd">
<!-- Generated by graphviz version 2.42.4 (0)
 -->
<!-- Title: xiphcomment.h Pages: 1 -->
<svg width="1040pt" height="247pt"
 viewBox="0.00 0.00 1039.83 247.00" xmlns="http://www.w3.org/2000/svg" xmlns:xlink="http://www.w3.org/1999/xlink">
<g id="graph0" class="graph" transform="scale(1 1) rotate(0) translate(4 243)">
<title>xiphcomment.h</title>
<!-- Node1 -->
<g id="Node000001" class="node">
<title>Node1</title>
<g id="a_Node000001"><a xlink:title=" ">
<polygon fill="#999999" stroke="#666666" points="510.5,-239 417.5,-239 417.5,-220 510.5,-220 510.5,-239"/>
<text text-anchor="middle" x="464" y="-227" font-family="Helvetica,sans-Serif" font-size="10.00">xiphcomment.h</text>
</a>
</g>
</g>
<!-- Node2 -->
<g id="Node000002" class="node">
<title>Node2</title>
<g id="a_Node000002"><a xlink:href="tlist_8h.html" target="_top" xlink:title=" ">
<polygon fill="white" stroke="#666666" points="347,-74 303,-74 303,-55 347,-55 347,-74"/>
<text text-anchor="middle" x="325" y="-62" font-family="Helvetica,sans-Serif" font-size="10.00">tlist.h</text>
</a>
</g>
</g>
<!-- Node1&#45;&gt;Node2 -->
<g id="edge1_Node000001_Node000002" class="edge">
<title>Node1&#45;&gt;Node2</title>
<g id="a_edge1_Node000001_Node000002"><a xlink:title=" ">
<path fill="none" stroke="#63b8ff" d="M417.33,-226.42C386.67,-222.36 348.55,-211.6 328,-184 306.16,-154.67 313.2,-108.96 319.54,-83.74"/>
<polygon fill="#63b8ff" stroke="#63b8ff" points="322.94,-84.58 322.22,-74.01 316.19,-82.73 322.94,-84.58"/>
</a>
</g>
</g>
<!-- Node7 -->
<g id="Node000007" class="node">
<title>Node7</title>
<g id="a_Node000007"><a xlink:href="tmap_8h.html" target="_top" xlink:title=" ">
<polygon fill="white" stroke="#666666" points="172.5,-74 121.5,-74 121.5,-55 172.5,-55 172.5,-74"/>
<text text-anchor="middle" x="147" y="-62" font-family="Helvetica,sans-Serif" font-size="10.00">tmap.h</text>
</a>
</g>
</g>
<!-- Node1&#45;&gt;Node7 -->
<g id="edge6_Node000001_Node000007" class="edge">
<title>Node1&#45;&gt;Node7</title>
<g id="a_edge6_Node000001_Node000007"><a xlink:title=" ">
<path fill="none" stroke="#63b8ff" d="M417.46,-221.21C359.23,-210.08 259.04,-184.04 192,-129 176.71,-116.44 164.18,-97.47 156.27,-83.53"/>
<polygon fill="#63b8ff" stroke="#63b8ff" points="159.18,-81.57 151.34,-74.44 153.03,-84.9 159.18,-81.57"/>
</a>
</g>
</g>
<!-- Node11 -->
<g id="Node000011" class="node">
<title>Node11</title>
<g id="a_Node000011"><a xlink:href="tstring_8h.html" target="_top" xlink:title=" ">
<polygon fill="white" stroke="#666666" points="721.5,-129 664.5,-129 664.5,-110 721.5,-110 721.5,-129"/>
<text text-anchor="middle" x="693" y="-117" font-family="Helvetica,sans-Serif" font-size="10.00">tstring.h</text>
</a>
</g>
</g>
<!-- Node1&#45;&gt;Node11 -->
<g id="edge12_Node000001_Node000011" class="edge">
<title>Node1&#45;&gt;Node11</title>
<g id="a_edge12_Node000001_Node000011"><a xlink:title=" ">
<path fill="none" stroke="#63b8ff" d="M484.46,-219.95C505.16,-211.21 538,-197.1 566,-184 601.44,-167.42 641.76,-146.99 667.28,-133.86"/>
<polygon fill="#63b8ff" stroke="#63b8ff" points="669.01,-136.9 676.29,-129.2 665.8,-130.68 669.01,-136.9"/>
</a>
</g>
</g>
<!-- Node13 -->
<g id="Node000013" class="node">
<title>Node13</title>
<g id="a_Node000013"><a xlink:href="tbytevector_8h.html" target="_top" xlink:title=" ">
<polygon fill="white" stroke="#666666" points="893.5,-74 812.5,-74 812.5,-55 893.5,-55 893.5,-74"/>
<text text-anchor="middle" x="853" y="-62" font-family="Helvetica,sans-Serif" font-size="10.00">tbytevector.h</text>
</a>
</g>
</g>
<!-- Node1&#45;&gt;Node13 -->
<g id="edge28_Node000001_Node000013" class="edge">
<title>Node1&#45;&gt;Node13</title>
<g id="a_edge28_Node000001_Node000013"><a xlink:title=" ">
<path fill="none" stroke="#63b8ff" d="M510.75,-227.79C633.69,-224.82 960.85,-209.36 1024,-129 1058.29,-85.36 965.5,-71.71 903.55,-67.44"/>
<polygon fill="#63b8ff" stroke="#63b8ff" points="903.72,-63.95 893.52,-66.81 903.28,-70.93 903.72,-63.95"/>
</a>
</g>
</g>
<!-- Node16 -->
<g id="Node000016" class="node">
<title>Node16</title>
<g id="a_Node000016"><a xlink:href="taglib__export_8h.html" target="_top" xlink:title=" ">
<polygon fill="white" stroke="#666666" points="643,-19 553,-19 553,0 643,0 643,-19"/>
<text text-anchor="middle" x="598" y="-7" font-family="Helvetica,sans-Serif" font-size="10.00">taglib_export.h</text>
</a>
</g>
</g>
<!-- Node1&#45;&gt;Node16 -->
<g id="edge29_Node000001_Node000016" class="edge">
<title>Node1&#45;&gt;Node16</title>
<g id="a_edge29_Node000001_Node000016"><a xlink:title=" ">
<path fill="none" stroke="#63b8ff" d="M464.43,-219.94C465.31,-207.4 467.99,-183.54 476,-165 501.06,-107 553.55,-52.19 580.78,-26.22"/>
<polygon fill="#63b8ff" stroke="#63b8ff" points="583.46,-28.5 588.37,-19.11 578.68,-23.4 583.46,-28.5"/>
</a>
</g>
</g>
<!-- Node17 -->
<g id="Node000017" class="node">
<title>Node17</title>
<g id="a_Node000017"><a xlink:href="tstringlist_8h.html" target="_top" xlink:title=" ">
<polygon fill="white" stroke="#666666" points="557,-184 485,-184 485,-165 557,-165 557,-184"/>
<text text-anchor="middle" x="521" y="-172" font-family="Helvetica,sans-Serif" font-size="10.00">tstringlist.h</text>
</a>
</g>
</g>
<!-- Node1&#45;&gt;Node17 -->
<g id="edge20_Node000001_Node000017" class="edge">
<title>Node1&#45;&gt;Node17</title>
<g id="a_edge20_Node000001_Node000017"><a xlink:title=" ">
<path fill="none" stroke="#63b8ff" d="M473.16,-219.98C481.5,-212.23 494.03,-200.58 504.18,-191.14"/>
<polygon fill="#63b8ff" stroke="#63b8ff" points="506.74,-193.54 511.68,-184.17 501.97,-188.42 506.74,-193.54"/>
</a>
</g>
</g>
<!-- Node19 -->
<g id="Node000019" class="node">
<title>Node19</title>
<g id="a_Node000019"><a xlink:href="tag_8h.html" target="_top" xlink:title=" ">
<polygon fill="white" stroke="#666666" points="378.5,-184 337.5,-184 337.5,-165 378.5,-165 378.5,-184"/>
<text text-anchor="middle" x="358" y="-172" font-family="Helvetica,sans-Serif" font-size="10.00">tag.h</text>
</a>
</g>
</g>
<!-- Node1&#45;&gt;Node19 -->
<g id="edge30_Node000001_Node000019" class="edge">
<title>Node1&#45;&gt;Node19</title>
<g id="a_edge30_Node000001_Node000019"><a xlink:title=" ">
<path fill="none" stroke="#63b8ff" d="M446.97,-219.98C430.07,-211.54 403.94,-198.47 384.36,-188.68"/>
<polygon fill="#63b8ff" stroke="#63b8ff" points="385.85,-185.51 375.34,-184.17 382.72,-191.77 385.85,-185.51"/>
</a>
</g>
</g>
<!-- Node22 -->
<g id="Node000022" class="node">
<title>Node22</title>
<g id="a_Node000022"><a xlink:href="flacpicture_8h.html" target="_top" xlink:title=" ">
<polygon fill="white" stroke="#666666" points="788.5,-184 711.5,-184 711.5,-165 788.5,-165 788.5,-184"/>
<text text-anchor="middle" x="750" y="-172" font-family="Helvetica,sans-Serif" font-size="10.00">flacpicture.h</text>
</a>
</g>
</g>
<!-- Node1&#45;&gt;Node22 -->
<g id="edge39_Node000001_Node000022" class="edge">
<title>Node1&#45;&gt;Node22</title>
<g id="a_edge39_Node000001_Node000022"><a xlink:title=" ">
<path fill="none" stroke="#63b8ff" d="M509.95,-219.98C562.46,-210.25 648.04,-194.4 701.57,-184.48"/>
<polygon fill="#63b8ff" stroke="#63b8ff" points="702.3,-187.9 711.5,-182.63 701.03,-181.02 702.3,-187.9"/>
</a>
</g>
</g>
<!-- Node3 -->
<g id="Node000003" class="node">
<title>Node3</title>
<g id="a_Node000003"><a xlink:title=" ">
<polygon fill="#e0e0e0" stroke="#999999" points="401,-19 369,-19 369,0 401,0 401,-19"/>
<text text-anchor="middle" x="385" y="-7" font-family="Helvetica,sans-Serif" font-size="10.00">list</text>
</a>
</g>
</g>
<!-- Node2&#45;&gt;Node3 -->
<g id="edge2_Node000002_Node000003" class="edge">
<title>Node2&#45;&gt;Node3</title>
<g id="a_edge2_Node000002_Node000003"><a xlink:title=" ">
<path fill="none" stroke="#63b8ff" d="M334.64,-54.98C343.51,-47.15 356.87,-35.34 367.61,-25.86"/>
<polygon fill="#63b8ff" stroke="#63b8ff" points="370.01,-28.41 375.18,-19.17 365.37,-23.17 370.01,-28.41"/>
</a>
</g>
</g>
<!-- Node4 -->
<g id="Node000004" class="node">
<title>Node4</title>
<g id="a_Node000004"><a xlink:title=" ">
<polygon fill="#e0e0e0" stroke="#999999" points="279.5,-19 196.5,-19 196.5,0 279.5,0 279.5,-19"/>
<text text-anchor="middle" x="238" y="-7" font-family="Helvetica,sans-Serif" font-size="10.00">initializer_list</text>
</a>
</g>
</g>
<!-- Node2&#45;&gt;Node4 -->
<g id="edge3_Node000002_Node000004" class="edge">
<title>Node2&#45;&gt;Node4</title>
<g id="a_edge3_Node000002_Node000004"><a xlink:title=" ">
<path fill="none" stroke="#63b8ff" d="M311.02,-54.98C297.53,-46.77 276.87,-34.18 260.96,-24.49"/>
<polygon fill="#63b8ff" stroke="#63b8ff" points="262.59,-21.38 252.23,-19.17 258.95,-27.36 262.59,-21.38"/>
</a>
</g>
</g>
<!-- Node5 -->
<g id="Node000005" class="node">
<title>Node5</title>
<g id="a_Node000005"><a xlink:title=" ">
<polygon fill="#e0e0e0" stroke="#999999" points="477,-19 419,-19 419,0 477,0 477,-19"/>
<text text-anchor="middle" x="448" y="-7" font-family="Helvetica,sans-Serif" font-size="10.00">memory</text>
</a>
</g>
</g>
<!-- Node2&#45;&gt;Node5 -->
<g id="edge4_Node000002_Node000005" class="edge">
<title>Node2&#45;&gt;Node5</title>
<g id="a_edge4_Node000002_Node000005"><a xlink:title=" ">
<path fill="none" stroke="#63b8ff" d="M344.76,-54.98C364.73,-46.38 395.8,-32.99 418.65,-23.15"/>
<polygon fill="#63b8ff" stroke="#63b8ff" points="420.08,-26.34 427.88,-19.17 417.31,-19.91 420.08,-26.34"/>
</a>
</g>
</g>
<!-- Node6 -->
<g id="Node000006" class="node">
<title>Node6</title>
<g id="a_Node000006"><a xlink:title=" ">
<polygon fill="#e0e0e0" stroke="#999999" points="350.5,-19 297.5,-19 297.5,0 350.5,0 350.5,-19"/>
<text text-anchor="middle" x="324" y="-7" font-family="Helvetica,sans-Serif" font-size="10.00">tlist.tcc</text>
</a>
</g>
</g>
<!-- Node2&#45;&gt;Node6 -->
<g id="edge5_Node000002_Node000006" class="edge">
<title>Node2&#45;&gt;Node6</title>
<g id="a_edge5_Node000002_Node000006"><a xlink:title=" ">
<path fill="none" stroke="#63b8ff" d="M324.83,-54.75C324.7,-47.8 324.52,-37.85 324.35,-29.13"/>
<polygon fill="#63b8ff" stroke="#63b8ff" points="327.85,-29.02 324.16,-19.09 320.85,-29.15 327.85,-29.02"/>
</a>
</g>
</g>
<!-- Node7&#45;&gt;Node4 -->
<g id="edge9_Node000007_Node000004" class="edge">
<title>Node7&#45;&gt;Node4</title>
<g id="a_edge9_Node000007_Node000004"><a xlink:title=" ">
<path fill="none" stroke="#63b8ff" d="M161.62,-54.98C175.86,-46.69 197.75,-33.94 214.45,-24.22"/>
<polygon fill="#63b8ff" stroke="#63b8ff" points="216.23,-27.23 223.11,-19.17 212.71,-21.18 216.23,-27.23"/>
</a>
</g>
</g>
<!-- Node7&#45;&gt;Node5 -->
<g id="edge8_Node000007_Node000005" class="edge">
<title>Node7&#45;&gt;Node5</title>
<g id="a_edge8_Node000007_Node000005"><a xlink:title=" ">
<path fill="none" stroke="#63b8ff" d="M172.56,-57.04C175.73,-56.31 178.93,-55.61 182,-55 279.45,-35.51 307.49,-38.02 408.94,-19.09"/>
<polygon fill="#63b8ff" stroke="#63b8ff" points="409.82,-22.48 418.99,-17.19 408.52,-15.61 409.82,-22.48"/>
</a>
</g>
</g>
<!-- Node8 -->
<g id="Node000008" class="node">
<title>Node8</title>
<g id="a_Node000008"><a xlink:title=" ">
<polygon fill="#e0e0e0" stroke="#999999" points="38,-19 0,-19 0,0 38,0 38,-19"/>
<text text-anchor="middle" x="19" y="-7" font-family="Helvetica,sans-Serif" font-size="10.00">map</text>
</a>
</g>
</g>
<!-- Node7&#45;&gt;Node8 -->
<g id="edge7_Node000007_Node000008" class="edge">
<title>Node7&#45;&gt;Node8</title>
<g id="a_edge7_Node000007_Node000008"><a xlink:title=" ">
<path fill="none" stroke="#63b8ff" d="M126.43,-54.98C105.07,-46.14 71.47,-32.23 47.54,-22.32"/>
<polygon fill="#63b8ff" stroke="#63b8ff" points="48.84,-19.07 38.26,-18.47 46.16,-25.53 48.84,-19.07"/>
</a>
</g>
</g>
<!-- Node9 -->
<g id="Node000009" class="node">
<title>Node9</title>
<g id="a_Node000009"><a xlink:title=" ">
<polygon fill="#e0e0e0" stroke="#999999" points="101.5,-19 56.5,-19 56.5,0 101.5,0 101.5,-19"/>
<text text-anchor="middle" x="79" y="-7" font-family="Helvetica,sans-Serif" font-size="10.00">utility</text>
</a>
</g>
</g>
<!-- Node7&#45;&gt;Node9 -->
<g id="edge10_Node000007_Node000009" class="edge">
<title>Node7&#45;&gt;Node9</title>
<g id="a_edge10_Node000007_Node000009"><a xlink:title=" ">
<path fill="none" stroke="#63b8ff" d="M136.07,-54.98C125.92,-47.07 110.58,-35.11 98.35,-25.58"/>
<polygon fill="#63b8ff" stroke="#63b8ff" points="100.16,-22.56 90.12,-19.17 95.86,-28.08 100.16,-22.56"/>
</a>
</g>
</g>
<!-- Node10 -->
<g id="Node000010" class="node">
<title>Node10</title>
<g id="a_Node000010"><a xlink:title=" ">
<polygon fill="#e0e0e0" stroke="#999999" points="178.5,-19 119.5,-19 119.5,0 178.5,0 178.5,-19"/>
<text text-anchor="middle" x="149" y="-7" font-family="Helvetica,sans-Serif" font-size="10.00">tmap.tcc</text>
</a>
</g>
</g>
<!-- Node7&#45;&gt;Node10 -->
<g id="edge11_Node000007_Node000010" class="edge">
<title>Node7&#45;&gt;Node10</title>
<g id="a_edge11_Node000007_Node000010"><a xlink:title=" ">
<path fill="none" stroke="#63b8ff" d="M147.33,-54.75C147.59,-47.8 147.97,-37.85 148.3,-29.13"/>
<polygon fill="#63b8ff" stroke="#63b8ff" points="151.8,-29.21 148.68,-19.09 144.8,-28.95 151.8,-29.21"/>
</a>
</g>
</g>
<!-- Node12 -->
<g id="Node000012" class="node">
<title>Node12</title>
<g id="a_Node000012"><a xlink:title=" ">
<polygon fill="#e0e0e0" stroke="#999999" points="715,-74 671,-74 671,-55 715,-55 715,-74"/>
<text text-anchor="middle" x="693" y="-62" font-family="Helvetica,sans-Serif" font-size="10.00">string</text>
</a>
</g>
</g>
<!-- Node11&#45;&gt;Node12 -->
<g id="edge13_Node000011_Node000012" class="edge">
<title>Node11&#45;&gt;Node12</title>
<g id="a_edge13_Node000011_Node000012"><a xlink:title=" ">
<path fill="none" stroke="#63b8ff" d="M693,-109.75C693,-102.8 693,-92.85 693,-84.13"/>
<polygon fill="#63b8ff" stroke="#63b8ff" points="696.5,-84.09 693,-74.09 689.5,-84.09 696.5,-84.09"/>
</a>
</g>
</g>
<!-- Node11&#45;&gt;Node13 -->
<g id="edge14_Node000011_Node000013" class="edge">
<title>Node11&#45;&gt;Node13</title>
<g id="a_edge14_Node000011_Node000013"><a xlink:title=" ">
<path fill="none" stroke="#63b8ff" d="M718.71,-109.98C745.45,-101.13 787.53,-87.19 817.45,-77.28"/>
<polygon fill="#63b8ff" stroke="#63b8ff" points="818.7,-80.55 827.09,-74.08 816.5,-73.9 818.7,-80.55"/>
</a>
</g>
</g>
<!-- Node11&#45;&gt;Node16 -->
<g id="edge19_Node000011_Node000016" class="edge">
<title>Node11&#45;&gt;Node16</title>
<g id="a_edge19_Node000011_Node000016"><a xlink:title=" ">
<path fill="none" stroke="#63b8ff" d="M685.23,-109.66C669.28,-91.54 632.67,-49.91 612.31,-26.77"/>
<polygon fill="#63b8ff" stroke="#63b8ff" points="614.85,-24.36 605.62,-19.16 609.59,-28.98 614.85,-24.36"/>
</a>
</g>
</g>
<!-- Node13&#45;&gt;Node5 -->
<g id="edge15_Node000013_Node000005" class="edge">
<title>Node13&#45;&gt;Node5</title>
<g id="a_edge15_Node000013_Node000005"><a xlink:title=" ">
<path fill="none" stroke="#63b8ff" d="M812.31,-58.18C734.24,-47.96 564.35,-25.73 487.35,-15.65"/>
<polygon fill="#63b8ff" stroke="#63b8ff" points="487.49,-12.14 477.12,-14.31 486.58,-19.08 487.49,-12.14"/>
</a>
</g>
</g>
<!-- Node14 -->
<g id="Node000014" class="node">
<title>Node14</title>
<g id="a_Node000014"><a xlink:title=" ">
<polygon fill="#e0e0e0" stroke="#999999" points="843.5,-19 796.5,-19 796.5,0 843.5,0 843.5,-19"/>
<text text-anchor="middle" x="820" y="-7" font-family="Helvetica,sans-Serif" font-size="10.00">vector</text>
</a>
</g>
</g>
<!-- Node13&#45;&gt;Node14 -->
<g id="edge16_Node000013_Node000014" class="edge">
<title>Node13&#45;&gt;Node14</title>
<g id="a_edge16_Node000013_Node000014"><a xlink:title=" ">
<path fill="none" stroke="#63b8ff" d="M847.55,-54.75C842.99,-47.42 836.33,-36.73 830.71,-27.7"/>
<polygon fill="#63b8ff" stroke="#63b8ff" points="833.6,-25.73 825.35,-19.09 827.66,-29.43 833.6,-25.73"/>
</a>
</g>
</g>
<!-- Node15 -->
<g id="Node000015" class="node">
<title>Node15</title>
<g id="a_Node000015"><a xlink:title=" ">
<polygon fill="#e0e0e0" stroke="#999999" points="910,-19 862,-19 862,0 910,0 910,-19"/>
<text text-anchor="middle" x="886" y="-7" font-family="Helvetica,sans-Serif" font-size="10.00">iosfwd</text>
</a>
</g>
</g>
<!-- Node13&#45;&gt;Node15 -->
<g id="edge17_Node000013_Node000015" class="edge">
<title>Node13&#45;&gt;Node15</title>
<g id="a_edge17_Node000013_Node000015"><a xlink:title=" ">
<path fill="none" stroke="#63b8ff" d="M858.45,-54.75C863.01,-47.42 869.67,-36.73 875.29,-27.7"/>
<polygon fill="#63b8ff" stroke="#63b8ff" points="878.34,-29.43 880.65,-19.09 872.4,-25.73 878.34,-29.43"/>
</a>
</g>
</g>
<!-- Node13&#45;&gt;Node16 -->
<g id="edge18_Node000013_Node000016" class="edge">
<title>Node13&#45;&gt;Node16</title>
<g id="a_edge18_Node000013_Node000016"><a xlink:title=" ">
<path fill="none" stroke="#63b8ff" d="M812.31,-55.04C767.94,-45.82 696.86,-31.05 648.84,-21.07"/>
<polygon fill="#63b8ff" stroke="#63b8ff" points="649.47,-17.62 638.96,-19.01 648.04,-24.48 649.47,-17.62"/>
</a>
</g>
</g>
<!-- Node17&#45;&gt;Node2 -->
<g id="edge22_Node000017_Node000002" class="edge">
<title>Node17&#45;&gt;Node2</title>
<g id="a_edge22_Node000017_Node000002"><a xlink:title=" ">
<path fill="none" stroke="#63b8ff" d="M505.29,-164.84C471.23,-146.08 390.37,-101.52 349.52,-79.01"/>
<polygon fill="#63b8ff" stroke="#63b8ff" points="350.96,-75.81 340.51,-74.05 347.58,-81.94 350.96,-75.81"/>
</a>
</g>
</g>
<!-- Node17&#45;&gt;Node11 -->
<g id="edge21_Node000017_Node000011" class="edge">
<title>Node17&#45;&gt;Node11</title>
<g id="a_edge21_Node000017_Node000011"><a xlink:title=" ">
<path fill="none" stroke="#63b8ff" d="M548.63,-164.98C577.51,-156.09 623.01,-142.07 655.2,-132.15"/>
<polygon fill="#63b8ff" stroke="#63b8ff" points="656.62,-135.37 665.15,-129.08 654.56,-128.68 656.62,-135.37"/>
</a>
</g>
</g>
<!-- Node17&#45;&gt;Node16 -->
<g id="edge27_Node000017_Node000016" class="edge">
<title>Node17&#45;&gt;Node16</title>
<g id="a_edge27_Node000017_Node000016"><a xlink:title=" ">
<path fill="none" stroke="#63b8ff" d="M523.14,-164.66C526.3,-152.18 532.75,-128.85 541,-110 554.18,-79.89 574.07,-47.23 586.53,-27.84"/>
<polygon fill="#63b8ff" stroke="#63b8ff" points="589.62,-29.51 592.14,-19.22 583.75,-25.69 589.62,-29.51"/>
</a>
</g>
</g>
<!-- Node18 -->
<g id="Node000018" class="node">
<title>Node18</title>
<g id="a_Node000018"><a xlink:href="tbytevectorlist_8h.html" target="_top" xlink:title=" ">
<polygon fill="white" stroke="#666666" points="646.5,-129 549.5,-129 549.5,-110 646.5,-110 646.5,-129"/>
<text text-anchor="middle" x="598" y="-117" font-family="Helvetica,sans-Serif" font-size="10.00">tbytevectorlist.h</text>
</a>
</g>
</g>
<!-- Node17&#45;&gt;Node18 -->
<g id="edge23_Node000017_Node000018" class="edge">
<title>Node17&#45;&gt;Node18</title>
<g id="a_edge23_Node000017_Node000018"><a xlink:title=" ">
<path fill="none" stroke="#63b8ff" d="M533.37,-164.98C545.09,-156.92 562.92,-144.65 576.89,-135.03"/>
<polygon fill="#63b8ff" stroke="#63b8ff" points="579.15,-137.72 585.4,-129.17 575.18,-131.96 579.15,-137.72"/>
</a>
</g>
</g>
<!-- Node18&#45;&gt;Node2 -->
<g id="edge25_Node000018_Node000002" class="edge">
<title>Node18&#45;&gt;Node2</title>
<g id="a_edge25_Node000018_Node000002"><a xlink:title=" ">
<path fill="none" stroke="#63b8ff" d="M554.14,-109.98C499.09,-99.3 405.99,-81.22 357.13,-71.74"/>
<polygon fill="#63b8ff" stroke="#63b8ff" points="357.61,-68.27 347.12,-69.8 356.27,-75.14 357.61,-68.27"/>
</a>
</g>
</g>
<!-- Node18&#45;&gt;Node13 -->
<g id="edge24_Node000018_Node000013" class="edge">
<title>Node18&#45;&gt;Node13</title>
<g id="a_edge24_Node000018_Node000013"><a xlink:title=" ">
<path fill="none" stroke="#63b8ff" d="M638.97,-109.98C683.4,-100.75 754.36,-86 802.27,-76.04"/>
<polygon fill="#63b8ff" stroke="#63b8ff" points="803.05,-79.46 812.13,-73.99 801.63,-72.6 803.05,-79.46"/>
</a>
</g>
</g>
<!-- Node18&#45;&gt;Node16 -->
<g id="edge26_Node000018_Node000016" class="edge">
<title>Node18&#45;&gt;Node16</title>
<g id="a_edge26_Node000018_Node000016"><a xlink:title=" ">
<path fill="none" stroke="#63b8ff" d="M598,-109.66C598,-92.17 598,-52.8 598,-29.27"/>
<polygon fill="#63b8ff" stroke="#63b8ff" points="601.5,-29.16 598,-19.16 594.5,-29.16 601.5,-29.16"/>
</a>
</g>
</g>
<!-- Node19&#45;&gt;Node2 -->
<g id="edge33_Node000019_Node000002" class="edge">
<title>Node19&#45;&gt;Node2</title>
<g id="a_edge33_Node000019_Node000002"><a xlink:title=" ">
<path fill="none" stroke="#63b8ff" d="M355.3,-164.66C349.93,-147.09 337.82,-107.45 330.64,-83.95"/>
<polygon fill="#63b8ff" stroke="#63b8ff" points="333.92,-82.7 327.65,-74.16 327.22,-84.74 333.92,-82.7"/>
</a>
</g>
</g>
<!-- Node19&#45;&gt;Node11 -->
<g id="edge32_Node000019_Node000011" class="edge">
<title>Node19&#45;&gt;Node11</title>
<g id="a_edge32_Node000019_Node000011"><a xlink:title=" ">
<path fill="none" stroke="#63b8ff" d="M378.69,-170.97C425.86,-165.09 545.17,-149.55 654.49,-129.17"/>
<polygon fill="#63b8ff" stroke="#63b8ff" points="655.18,-132.6 664.36,-127.31 653.89,-125.72 655.18,-132.6"/>
</a>
</g>
</g>
<!-- Node19&#45;&gt;Node16 -->
<g id="edge31_Node000019_Node000016" class="edge">
<title>Node19&#45;&gt;Node16</title>
<g id="a_edge31_Node000019_Node000016"><a xlink:title=" ">
<path fill="none" stroke="#63b8ff" d="M358.27,-164.8C359.44,-142.83 365.71,-84.72 399,-55 419.98,-36.27 491.59,-23.64 542.89,-16.76"/>
<polygon fill="#63b8ff" stroke="#63b8ff" points="543.4,-20.23 552.86,-15.46 542.49,-13.29 543.4,-20.23"/>
</a>
</g>
</g>
<!-- Node20 -->
<g id="Node000020" class="node">
<title>Node20</title>
<g id="a_Node000020"><a xlink:href="tvariant_8h.html" target="_top" xlink:title=" ">
<polygon fill="white" stroke="#666666" points="265,-129 201,-129 201,-110 265,-110 265,-129"/>
<text text-anchor="middle" x="233" y="-117" font-family="Helvetica,sans-Serif" font-size="10.00">tvariant.h</text>
</a>
</g>
</g>
<!-- Node19&#45;&gt;Node20 -->
<g id="edge34_Node000019_Node000020" class="edge">
<title>Node19&#45;&gt;Node20</title>
<g id="a_edge34_Node000019_Node000020"><a xlink:title=" ">
<path fill="none" stroke="#63b8ff" d="M337.92,-164.98C317.63,-156.38 286.04,-142.99 262.83,-133.15"/>
<polygon fill="#63b8ff" stroke="#63b8ff" points="264.02,-129.85 253.45,-129.17 261.29,-136.3 264.02,-129.85"/>
</a>
</g>
</g>
<!-- Node20&#45;&gt;Node2 -->
<g id="edge36_Node000020_Node000002" class="edge">
<title>Node20&#45;&gt;Node2</title>
<g id="a_edge36_Node000020_Node000002"><a xlink:title=" ">
<path fill="none" stroke="#63b8ff" d="M247.78,-109.98C262.18,-101.69 284.31,-88.94 301.19,-79.22"/>
<polygon fill="#63b8ff" stroke="#63b8ff" points="303.03,-82.19 309.95,-74.17 299.54,-76.13 303.03,-82.19"/>
</a>
</g>
</g>
<!-- Node20&#45;&gt;Node7 -->
<g id="edge37_Node000020_Node000007" class="edge">
<title>Node20&#45;&gt;Node7</title>
<g id="a_edge37_Node000020_Node000007"><a xlink:title=" ">
<path fill="none" stroke="#63b8ff" d="M219.18,-109.98C205.85,-101.77 185.42,-89.18 169.69,-79.49"/>
<polygon fill="#63b8ff" stroke="#63b8ff" points="171.42,-76.44 161.07,-74.17 167.75,-82.4 171.42,-76.44"/>
</a>
</g>
</g>
<!-- Node20&#45;&gt;Node16 -->
<g id="edge38_Node000020_Node000016" class="edge">
<title>Node20&#45;&gt;Node16</title>
<g id="a_edge38_Node000020_Node000016"><a xlink:title=" ">
<path fill="none" stroke="#63b8ff" d="M238.52,-109.77C247.97,-95.64 268.72,-68.01 294,-55 336.24,-33.26 466.87,-20.23 542.44,-14.31"/>
<polygon fill="#63b8ff" stroke="#63b8ff" points="543.02,-17.78 552.73,-13.52 542.49,-10.8 543.02,-17.78"/>
</a>
</g>
</g>
<!-- Node21 -->
<g id="Node000021" class="node">
<title>Node21</title>
<g id="a_Node000021"><a xlink:title=" ">
<polygon fill="#e0e0e0" stroke="#999999" points="247,-74 191,-74 191,-55 247,-55 247,-74"/>
<text text-anchor="middle" x="219" y="-62" font-family="Helvetica,sans-Serif" font-size="10.00">sstream</text>
</a>
</g>
</g>
<!-- Node20&#45;&gt;Node21 -->
<g id="edge35_Node000020_Node000021" class="edge">
<title>Node20&#45;&gt;Node21</title>
<g id="a_edge35_Node000020_Node000021"><a xlink:title=" ">
<path fill="none" stroke="#63b8ff" d="M230.69,-109.75C228.83,-102.72 226.16,-92.62 223.85,-83.84"/>
<polygon fill="#63b8ff" stroke="#63b8ff" points="227.21,-82.86 221.27,-74.09 220.44,-84.65 227.21,-82.86"/>
</a>
</g>
</g>
<!-- Node22&#45;&gt;Node2 -->
<g id="edge40_Node000022_Node000002" class="edge">
<title>Node22&#45;&gt;Node2</title>
<g id="a_edge40_Node000022_Node000002"><a xlink:title=" ">
<path fill="none" stroke="#63b8ff" d="M711.28,-166.17C669.17,-157.99 599.98,-143.93 541,-129 475.01,-112.3 398.85,-88.94 356.89,-75.7"/>
<polygon fill="#63b8ff" stroke="#63b8ff" points="357.82,-72.33 347.23,-72.65 355.71,-79 357.82,-72.33"/>
</a>
</g>
</g>
<!-- Node22&#45;&gt;Node11 -->
<g id="edge41_Node000022_Node000011" class="edge">
<title>Node22&#45;&gt;Node11</title>
<g id="a_edge41_Node000022_Node000011"><a xlink:title=" ">
<path fill="none" stroke="#63b8ff" d="M740.84,-164.98C732.5,-157.23 719.97,-145.58 709.82,-136.14"/>
<polygon fill="#63b8ff" stroke="#63b8ff" points="712.03,-133.42 702.32,-129.17 707.26,-138.54 712.03,-133.42"/>
</a>
</g>
</g>
<!-- Node22&#45;&gt;Node13 -->
<g id="edge42_Node000022_Node000013" class="edge">
<title>Node22&#45;&gt;Node13</title>
<g id="a_edge42_Node000022_Node000013"><a xlink:title=" ">
<path fill="none" stroke="#63b8ff" d="M788.71,-172.65C853.5,-170.32 979.55,-161.61 1007,-129 1038.73,-91.3 960,-75.65 903.79,-69.41"/>
<polygon fill="#63b8ff" stroke="#63b8ff" points="903.9,-65.9 893.59,-68.35 903.17,-72.86 903.9,-65.9"/>
</a>
</g>
</g>
<!-- Node22&#45;&gt;Node16 -->
<g id="edge44_Node000022_Node000016" class="edge">
<title>Node22&#45;&gt;Node16</title>
<g id="a_edge44_Node000022_Node000016"><a xlink:title=" ">
<path fill="none" stroke="#63b8ff" d="M750.74,-164.8C752.07,-143.33 752.45,-87.2 724,-55 705.96,-34.59 677.97,-23.54 652.94,-17.56"/>
<polygon fill="#63b8ff" stroke="#63b8ff" points="653.68,-14.14 643.16,-15.43 652.19,-20.98 653.68,-14.14"/>
</a>
</g>
</g>
<!-- Node23 -->
<g id="Node000023" class="node">
<title>Node23</title>
<g id="a_Node000023"><a xlink:href="tpicturetype_8h.html" target="_top" xlink:title=" ">
<polygon fill="white" stroke="#666666" points="997.5,-129 912.5,-129 912.5,-110 997.5,-110 997.5,-129"/>
<text text-anchor="middle" x="955" y="-117" font-family="Helvetica,sans-Serif" font-size="10.00">tpicturetype.h</text>
</a>
</g>
</g>
<!-- Node22&#45;&gt;Node23 -->
<g id="edge43_Node000022_Node000023" class="edge">
<title>Node22&#45;&gt;Node23</title>
<g id="a_edge43_Node000022_Node000023"><a xlink:title=" ">
<path fill="none" stroke="#63b8ff" d="M782.94,-164.98C817.95,-155.93 873.47,-141.58 911.93,-131.64"/>
<polygon fill="#63b8ff" stroke="#63b8ff" points="913,-134.97 921.81,-129.08 911.25,-128.2 913,-134.97"/>
</a>
</g>
</g>
<!-- Node24 -->
<g id="Node000024" class="node">
<title>Node24</title>
<g id="a_Node000024"><a xlink:href="flacmetadatablock_8h.html" target="_top" xlink:title=" ">
<polygon fill="white" stroke="#666666" points="894,-129 778,-129 778,-110 894,-110 894,-129"/>
<text text-anchor="middle" x="836" y="-117" font-family="Helvetica,sans-Serif" font-size="10.00">flacmetadatablock.h</text>
</a>
</g>
</g>
<!-- Node22&#45;&gt;Node24 -->
<g id="edge45_Node000022_Node000024" class="edge">
<title>Node22&#45;&gt;Node24</title>
<g id="a_edge45_Node000022_Node000024"><a xlink:title=" ">
<path fill="none" stroke="#63b8ff" d="M763.82,-164.98C777.15,-156.77 797.58,-144.18 813.31,-134.49"/>
<polygon fill="#63b8ff" stroke="#63b8ff" points="815.25,-137.4 821.93,-129.17 811.58,-131.44 815.25,-137.4"/>
</a>
</g>
</g>
<!-- Node24&#45;&gt;Node13 -->
<g id="edge46_Node000024_Node000013" class="edge">
<title>Node24&#45;&gt;Node13</title>
<g id="a_edge46_Node000024_Node000013"><a xlink:title=" ">
<path fill="none" stroke="#63b8ff" d="M838.81,-109.75C841.06,-102.72 844.3,-92.62 847.12,-83.84"/>
<polygon fill="#63b8ff" stroke="#63b8ff" points="850.52,-84.68 850.25,-74.09 843.86,-82.54 850.52,-84.68"/>
</a>
</g>
</g>
<!-- Node24&#45;&gt;Node16 -->
<g id="edge47_Node000024_Node000016" class="edge">
<title>Node24&#45;&gt;Node16</title>
<g id="a_edge47_Node000024_Node000016"><a xlink:title=" ">
<path fill="none" stroke="#63b8ff" d="M828,-109.74C815.03,-96.05 788.03,-69.67 760,-55 726.65,-37.55 685.77,-26.39 653.41,-19.61"/>
<polygon fill="#63b8ff" stroke="#63b8ff" points="653.72,-16.1 643.23,-17.55 652.34,-22.96 653.72,-16.1"/>
</a>
</g>
</g>
</g>
</svg>
