<?xml version="1.0" encoding="UTF-8" standalone="no"?>
<!DOCTYPE svg PUBLIC "-//W3C//DTD SVG 1.1//EN"
 "http://www.w3.org/Graphics/SVG/1.1/DTD/svg11.dtd">
<!-- Generated by graphviz version 2.42.4 (0)
 -->
<!-- Title: xmfile.h Pages: 1 -->
<svg width="984pt" height="357pt"
 viewBox="0.00 0.00 983.50 357.00" xmlns="http://www.w3.org/2000/svg" xmlns:xlink="http://www.w3.org/1999/xlink">
<g id="graph0" class="graph" transform="scale(1 1) rotate(0) translate(4 353)">
<title>xmfile.h</title>
<!-- Node1 -->
<g id="Node000001" class="node">
<title>Node1</title>
<g id="a_Node000001"><a xlink:title=" ">
<polygon fill="#999999" stroke="#666666" points="640.5,-349 584.5,-349 584.5,-330 640.5,-330 640.5,-349"/>
<text text-anchor="middle" x="612.5" y="-337" font-family="Helvetica,sans-Serif" font-size="10.00">xmfile.h</text>
</a>
</g>
</g>
<!-- Node2 -->
<g id="Node000002" class="node">
<title>Node2</title>
<g id="a_Node000002"><a xlink:href="tfile_8h.html" target="_top" xlink:title=" ">
<polygon fill="white" stroke="#666666" points="799.5,-239 755.5,-239 755.5,-220 799.5,-220 799.5,-239"/>
<text text-anchor="middle" x="777.5" y="-227" font-family="Helvetica,sans-Serif" font-size="10.00">tfile.h</text>
</a>
</g>
</g>
<!-- Node1&#45;&gt;Node2 -->
<g id="edge1_Node000001_Node000002" class="edge">
<title>Node1&#45;&gt;Node2</title>
<g id="a_edge1_Node000001_Node000002"><a xlink:title=" ">
<path fill="none" stroke="#63b8ff" d="M625.72,-329.84C654.08,-311.28 720.99,-267.49 755.72,-244.75"/>
<polygon fill="#63b8ff" stroke="#63b8ff" points="757.76,-247.6 764.21,-239.2 753.93,-241.74 757.76,-247.6"/>
</a>
</g>
</g>
<!-- Node7 -->
<g id="Node000007" class="node">
<title>Node7</title>
<g id="a_Node000007"><a xlink:href="taglib__export_8h.html" target="_top" xlink:title=" ">
<polygon fill="white" stroke="#666666" points="765.5,-19 675.5,-19 675.5,0 765.5,0 765.5,-19"/>
<text text-anchor="middle" x="720.5" y="-7" font-family="Helvetica,sans-Serif" font-size="10.00">taglib_export.h</text>
</a>
</g>
</g>
<!-- Node1&#45;&gt;Node7 -->
<g id="edge35_Node000001_Node000007" class="edge">
<title>Node1&#45;&gt;Node7</title>
<g id="a_edge35_Node000001_Node000007"><a xlink:title=" ">
<path fill="none" stroke="#63b8ff" d="M608.62,-329.79C597.59,-303.69 568.35,-224.24 592.5,-165 613.86,-112.61 646.7,-118.6 681.5,-74 692.91,-59.37 703.78,-41.2 711.13,-28.05"/>
<polygon fill="#63b8ff" stroke="#63b8ff" points="714.29,-29.57 716.02,-19.11 708.15,-26.21 714.29,-29.57"/>
</a>
</g>
</g>
<!-- Node23 -->
<g id="Node000023" class="node">
<title>Node23</title>
<g id="a_Node000023"><a xlink:href="audioproperties_8h.html" target="_top" xlink:title=" ">
<polygon fill="white" stroke="#666666" points="703.5,-184 601.5,-184 601.5,-165 703.5,-165 703.5,-184"/>
<text text-anchor="middle" x="652.5" y="-172" font-family="Helvetica,sans-Serif" font-size="10.00">audioproperties.h</text>
</a>
</g>
</g>
<!-- Node1&#45;&gt;Node23 -->
<g id="edge36_Node000001_Node000023" class="edge">
<title>Node1&#45;&gt;Node23</title>
<g id="a_edge36_Node000001_Node000023"><a xlink:title=" ">
<path fill="none" stroke="#63b8ff" d="M614.65,-329.74C620.92,-304.2 639.27,-229.43 647.9,-194.23"/>
<polygon fill="#63b8ff" stroke="#63b8ff" points="651.35,-194.85 650.34,-184.31 644.56,-193.18 651.35,-194.85"/>
</a>
</g>
</g>
<!-- Node24 -->
<g id="Node000024" class="node">
<title>Node24</title>
<g id="a_Node000024"><a xlink:href="modfilebase_8h.html" target="_top" xlink:title=" ">
<polygon fill="white" stroke="#666666" points="820.5,-294 734.5,-294 734.5,-275 820.5,-275 820.5,-294"/>
<text text-anchor="middle" x="777.5" y="-282" font-family="Helvetica,sans-Serif" font-size="10.00">modfilebase.h</text>
</a>
</g>
</g>
<!-- Node1&#45;&gt;Node24 -->
<g id="edge40_Node000001_Node000024" class="edge">
<title>Node1&#45;&gt;Node24</title>
<g id="a_edge40_Node000001_Node000024"><a xlink:title=" ">
<path fill="none" stroke="#63b8ff" d="M639.01,-329.98C666.71,-321.09 710.36,-307.07 741.24,-297.15"/>
<polygon fill="#63b8ff" stroke="#63b8ff" points="742.33,-300.47 750.78,-294.08 740.19,-293.81 742.33,-300.47"/>
</a>
</g>
</g>
<!-- Node25 -->
<g id="Node000025" class="node">
<title>Node25</title>
<g id="a_Node000025"><a xlink:href="modtag_8h.html" target="_top" xlink:title=" ">
<polygon fill="white" stroke="#666666" points="376,-294 313,-294 313,-275 376,-275 376,-294"/>
<text text-anchor="middle" x="344.5" y="-282" font-family="Helvetica,sans-Serif" font-size="10.00">modtag.h</text>
</a>
</g>
</g>
<!-- Node1&#45;&gt;Node25 -->
<g id="edge45_Node000001_Node000025" class="edge">
<title>Node1&#45;&gt;Node25</title>
<g id="a_edge45_Node000001_Node000025"><a xlink:title=" ">
<path fill="none" stroke="#63b8ff" d="M584.33,-332.93C537.11,-323.59 441.75,-304.73 386.57,-293.82"/>
<polygon fill="#63b8ff" stroke="#63b8ff" points="386.91,-290.32 376.42,-291.81 385.55,-297.19 386.91,-290.32"/>
</a>
</g>
</g>
<!-- Node26 -->
<g id="Node000026" class="node">
<title>Node26</title>
<g id="a_Node000026"><a xlink:href="xmproperties_8h.html" target="_top" xlink:title=" ">
<polygon fill="white" stroke="#666666" points="546,-239 455,-239 455,-220 546,-220 546,-239"/>
<text text-anchor="middle" x="500.5" y="-227" font-family="Helvetica,sans-Serif" font-size="10.00">xmproperties.h</text>
</a>
</g>
</g>
<!-- Node1&#45;&gt;Node26 -->
<g id="edge47_Node000001_Node000026" class="edge">
<title>Node1&#45;&gt;Node26</title>
<g id="a_edge47_Node000001_Node000026"><a xlink:title=" ">
<path fill="none" stroke="#63b8ff" d="M601.86,-329.95C591.14,-321.21 574.27,-307.11 560.5,-294 544.46,-278.73 527.2,-260.22 515.33,-247.14"/>
<polygon fill="#63b8ff" stroke="#63b8ff" points="517.66,-244.5 508.37,-239.41 512.46,-249.18 517.66,-244.5"/>
</a>
</g>
</g>
<!-- Node3 -->
<g id="Node000003" class="node">
<title>Node3</title>
<g id="a_Node000003"><a xlink:href="tbytevector_8h.html" target="_top" xlink:title=" ">
<polygon fill="white" stroke="#666666" points="616,-74 535,-74 535,-55 616,-55 616,-74"/>
<text text-anchor="middle" x="575.5" y="-62" font-family="Helvetica,sans-Serif" font-size="10.00">tbytevector.h</text>
</a>
</g>
</g>
<!-- Node2&#45;&gt;Node3 -->
<g id="edge2_Node000002_Node000003" class="edge">
<title>Node2&#45;&gt;Node3</title>
<g id="a_edge2_Node000002_Node000003"><a xlink:title=" ">
<path fill="none" stroke="#63b8ff" d="M769.45,-219.88C757.52,-207.27 734.2,-183.31 712.5,-165 673.75,-132.3 625.02,-98.49 597.35,-79.91"/>
<polygon fill="#63b8ff" stroke="#63b8ff" points="599.08,-76.86 588.82,-74.22 595.19,-82.68 599.08,-76.86"/>
</a>
</g>
</g>
<!-- Node2&#45;&gt;Node7 -->
<g id="edge12_Node000002_Node000007" class="edge">
<title>Node2&#45;&gt;Node7</title>
<g id="a_edge12_Node000002_Node000007"><a xlink:title=" ">
<path fill="none" stroke="#63b8ff" d="M799.52,-220.36C817.46,-212.93 842.64,-200.57 860.5,-184 905.01,-142.69 943.08,-102.69 905.5,-55 889.56,-34.77 824.42,-22.68 775.92,-16.31"/>
<polygon fill="#63b8ff" stroke="#63b8ff" points="776.2,-12.82 765.84,-15.04 775.33,-19.77 776.2,-12.82"/>
</a>
</g>
</g>
<!-- Node8 -->
<g id="Node000008" class="node">
<title>Node8</title>
<g id="a_Node000008"><a xlink:href="tiostream_8h.html" target="_top" xlink:title=" ">
<polygon fill="white" stroke="#666666" points="833,-184 760,-184 760,-165 833,-165 833,-184"/>
<text text-anchor="middle" x="796.5" y="-172" font-family="Helvetica,sans-Serif" font-size="10.00">tiostream.h</text>
</a>
</g>
</g>
<!-- Node2&#45;&gt;Node8 -->
<g id="edge7_Node000002_Node000008" class="edge">
<title>Node2&#45;&gt;Node8</title>
<g id="a_edge7_Node000002_Node000008"><a xlink:title=" ">
<path fill="none" stroke="#63b8ff" d="M780.64,-219.75C783.18,-212.65 786.86,-202.4 790.03,-193.56"/>
<polygon fill="#63b8ff" stroke="#63b8ff" points="793.34,-194.68 793.42,-184.09 786.75,-192.32 793.34,-194.68"/>
</a>
</g>
</g>
<!-- Node9 -->
<g id="Node000009" class="node">
<title>Node9</title>
<g id="a_Node000009"><a xlink:href="taglib_8h.html" target="_top" xlink:title=" ">
<polygon fill="white" stroke="#666666" points="887,-129 834,-129 834,-110 887,-110 887,-129"/>
<text text-anchor="middle" x="860.5" y="-117" font-family="Helvetica,sans-Serif" font-size="10.00">taglib.h</text>
</a>
</g>
</g>
<!-- Node2&#45;&gt;Node9 -->
<g id="edge13_Node000002_Node000009" class="edge">
<title>Node2&#45;&gt;Node9</title>
<g id="a_edge13_Node000002_Node000009"><a xlink:title=" ">
<path fill="none" stroke="#63b8ff" d="M796.08,-219.93C810.46,-212.39 829.83,-200.11 841.5,-184 851.1,-170.75 855.9,-152.63 858.27,-139.14"/>
<polygon fill="#63b8ff" stroke="#63b8ff" points="861.75,-139.5 859.74,-129.1 854.82,-138.49 861.75,-139.5"/>
</a>
</g>
</g>
<!-- Node11 -->
<g id="Node000011" class="node">
<title>Node11</title>
<g id="a_Node000011"><a xlink:href="tag_8h.html" target="_top" xlink:title=" ">
<polygon fill="white" stroke="#666666" points="439,-184 398,-184 398,-165 439,-165 439,-184"/>
<text text-anchor="middle" x="418.5" y="-172" font-family="Helvetica,sans-Serif" font-size="10.00">tag.h</text>
</a>
</g>
</g>
<!-- Node2&#45;&gt;Node11 -->
<g id="edge14_Node000002_Node000011" class="edge">
<title>Node2&#45;&gt;Node11</title>
<g id="a_edge14_Node000002_Node000011"><a xlink:title=" ">
<path fill="none" stroke="#63b8ff" d="M755.31,-225.22C693.66,-216.12 520.16,-190.51 449.26,-180.04"/>
<polygon fill="#63b8ff" stroke="#63b8ff" points="449.59,-176.55 439.18,-178.55 448.57,-183.48 449.59,-176.55"/>
</a>
</g>
</g>
<!-- Node4 -->
<g id="Node000004" class="node">
<title>Node4</title>
<g id="a_Node000004"><a xlink:title=" ">
<polygon fill="#e0e0e0" stroke="#999999" points="478.5,-19 420.5,-19 420.5,0 478.5,0 478.5,-19"/>
<text text-anchor="middle" x="449.5" y="-7" font-family="Helvetica,sans-Serif" font-size="10.00">memory</text>
</a>
</g>
</g>
<!-- Node3&#45;&gt;Node4 -->
<g id="edge3_Node000003_Node000004" class="edge">
<title>Node3&#45;&gt;Node4</title>
<g id="a_edge3_Node000003_Node000004"><a xlink:title=" ">
<path fill="none" stroke="#63b8ff" d="M555.26,-54.98C534.8,-46.38 502.97,-32.99 479.57,-23.15"/>
<polygon fill="#63b8ff" stroke="#63b8ff" points="480.69,-19.82 470.11,-19.17 477.97,-26.27 480.69,-19.82"/>
</a>
</g>
</g>
<!-- Node5 -->
<g id="Node000005" class="node">
<title>Node5</title>
<g id="a_Node000005"><a xlink:title=" ">
<polygon fill="#e0e0e0" stroke="#999999" points="610,-19 563,-19 563,0 610,0 610,-19"/>
<text text-anchor="middle" x="586.5" y="-7" font-family="Helvetica,sans-Serif" font-size="10.00">vector</text>
</a>
</g>
</g>
<!-- Node3&#45;&gt;Node5 -->
<g id="edge4_Node000003_Node000005" class="edge">
<title>Node3&#45;&gt;Node5</title>
<g id="a_edge4_Node000003_Node000005"><a xlink:title=" ">
<path fill="none" stroke="#63b8ff" d="M577.32,-54.75C578.76,-47.8 580.82,-37.85 582.63,-29.13"/>
<polygon fill="#63b8ff" stroke="#63b8ff" points="586.11,-29.59 584.72,-19.09 579.26,-28.17 586.11,-29.59"/>
</a>
</g>
</g>
<!-- Node6 -->
<g id="Node000006" class="node">
<title>Node6</title>
<g id="a_Node000006"><a xlink:title=" ">
<polygon fill="#e0e0e0" stroke="#999999" points="544.5,-19 496.5,-19 496.5,0 544.5,0 544.5,-19"/>
<text text-anchor="middle" x="520.5" y="-7" font-family="Helvetica,sans-Serif" font-size="10.00">iosfwd</text>
</a>
</g>
</g>
<!-- Node3&#45;&gt;Node6 -->
<g id="edge5_Node000003_Node000006" class="edge">
<title>Node3&#45;&gt;Node6</title>
<g id="a_edge5_Node000003_Node000006"><a xlink:title=" ">
<path fill="none" stroke="#63b8ff" d="M566.42,-54.75C558.41,-47.03 546.54,-35.6 536.88,-26.28"/>
<polygon fill="#63b8ff" stroke="#63b8ff" points="539.04,-23.51 529.41,-19.09 534.19,-28.55 539.04,-23.51"/>
</a>
</g>
</g>
<!-- Node3&#45;&gt;Node7 -->
<g id="edge6_Node000003_Node000007" class="edge">
<title>Node3&#45;&gt;Node7</title>
<g id="a_edge6_Node000003_Node000007"><a xlink:title=" ">
<path fill="none" stroke="#63b8ff" d="M598.8,-54.98C622.75,-46.23 660.28,-32.51 687.33,-22.62"/>
<polygon fill="#63b8ff" stroke="#63b8ff" points="688.59,-25.89 696.78,-19.17 686.19,-19.32 688.59,-25.89"/>
</a>
</g>
</g>
<!-- Node8&#45;&gt;Node3 -->
<g id="edge8_Node000008_Node000003" class="edge">
<title>Node8&#45;&gt;Node3</title>
<g id="a_edge8_Node000008_Node000003"><a xlink:title=" ">
<path fill="none" stroke="#63b8ff" d="M784.67,-164.81C766.44,-151.68 730.05,-126.59 696.5,-110 669.69,-96.75 637.91,-85.21 613.65,-77.2"/>
<polygon fill="#63b8ff" stroke="#63b8ff" points="614.68,-73.86 604.08,-74.1 612.52,-80.52 614.68,-73.86"/>
</a>
</g>
</g>
<!-- Node8&#45;&gt;Node7 -->
<g id="edge9_Node000008_Node000007" class="edge">
<title>Node8&#45;&gt;Node7</title>
<g id="a_edge9_Node000008_Node000007"><a xlink:title=" ">
<path fill="none" stroke="#63b8ff" d="M793.89,-164.88C787.69,-144.94 771.05,-94.31 750.5,-55 745.48,-45.4 738.83,-35.34 733.07,-27.22"/>
<polygon fill="#63b8ff" stroke="#63b8ff" points="735.8,-25.02 727.08,-19.01 730.14,-29.15 735.8,-25.02"/>
</a>
</g>
</g>
<!-- Node8&#45;&gt;Node9 -->
<g id="edge10_Node000008_Node000009" class="edge">
<title>Node8&#45;&gt;Node9</title>
<g id="a_edge10_Node000008_Node000009"><a xlink:title=" ">
<path fill="none" stroke="#63b8ff" d="M806.78,-164.98C816.34,-157.07 830.78,-145.11 842.28,-135.58"/>
<polygon fill="#63b8ff" stroke="#63b8ff" points="844.56,-138.24 850.03,-129.17 840.1,-132.85 844.56,-138.24"/>
</a>
</g>
</g>
<!-- Node10 -->
<g id="Node000010" class="node">
<title>Node10</title>
<g id="a_Node000010"><a xlink:title=" ">
<polygon fill="#e0e0e0" stroke="#999999" points="896.5,-74 824.5,-74 824.5,-55 896.5,-55 896.5,-74"/>
<text text-anchor="middle" x="860.5" y="-62" font-family="Helvetica,sans-Serif" font-size="10.00">sys/types.h</text>
</a>
</g>
</g>
<!-- Node9&#45;&gt;Node10 -->
<g id="edge11_Node000009_Node000010" class="edge">
<title>Node9&#45;&gt;Node10</title>
<g id="a_edge11_Node000009_Node000010"><a xlink:title=" ">
<path fill="none" stroke="#63b8ff" d="M860.5,-109.75C860.5,-102.8 860.5,-92.85 860.5,-84.13"/>
<polygon fill="#63b8ff" stroke="#63b8ff" points="864,-84.09 860.5,-74.09 857,-84.09 864,-84.09"/>
</a>
</g>
</g>
<!-- Node11&#45;&gt;Node7 -->
<g id="edge15_Node000011_Node000007" class="edge">
<title>Node11&#45;&gt;Node7</title>
<g id="a_edge15_Node000011_Node000007"><a xlink:title=" ">
<path fill="none" stroke="#63b8ff" d="M439.28,-167.97C482.38,-155.86 583.46,-123.99 655.5,-74 675.04,-60.45 694.1,-40.84 706.47,-27.01"/>
<polygon fill="#63b8ff" stroke="#63b8ff" points="709.31,-29.08 713.26,-19.25 704.04,-24.47 709.31,-29.08"/>
</a>
</g>
</g>
<!-- Node12 -->
<g id="Node000012" class="node">
<title>Node12</title>
<g id="a_Node000012"><a xlink:href="tstring_8h.html" target="_top" xlink:title=" ">
<polygon fill="white" stroke="#666666" points="530,-129 473,-129 473,-110 530,-110 530,-129"/>
<text text-anchor="middle" x="501.5" y="-117" font-family="Helvetica,sans-Serif" font-size="10.00">tstring.h</text>
</a>
</g>
</g>
<!-- Node11&#45;&gt;Node12 -->
<g id="edge16_Node000011_Node000012" class="edge">
<title>Node11&#45;&gt;Node12</title>
<g id="a_edge16_Node000011_Node000012"><a xlink:title=" ">
<path fill="none" stroke="#63b8ff" d="M431.84,-164.98C444.59,-156.84 464.05,-144.41 479.17,-134.76"/>
<polygon fill="#63b8ff" stroke="#63b8ff" points="481.38,-137.5 487.92,-129.17 477.61,-131.6 481.38,-137.5"/>
</a>
</g>
</g>
<!-- Node14 -->
<g id="Node000014" class="node">
<title>Node14</title>
<g id="a_Node000014"><a xlink:href="tlist_8h.html" target="_top" xlink:title=" ">
<polygon fill="white" stroke="#666666" points="340.5,-74 296.5,-74 296.5,-55 340.5,-55 340.5,-74"/>
<text text-anchor="middle" x="318.5" y="-62" font-family="Helvetica,sans-Serif" font-size="10.00">tlist.h</text>
</a>
</g>
</g>
<!-- Node11&#45;&gt;Node14 -->
<g id="edge20_Node000011_Node000014" class="edge">
<title>Node11&#45;&gt;Node14</title>
<g id="a_edge20_Node000011_Node000014"><a xlink:title=" ">
<path fill="none" stroke="#63b8ff" d="M397.81,-165.68C381.13,-158.44 358.12,-146.18 343.5,-129 332.47,-116.04 325.95,-97.64 322.35,-83.98"/>
<polygon fill="#63b8ff" stroke="#63b8ff" points="325.75,-83.17 320.06,-74.23 318.94,-84.77 325.75,-83.17"/>
</a>
</g>
</g>
<!-- Node18 -->
<g id="Node000018" class="node">
<title>Node18</title>
<g id="a_Node000018"><a xlink:href="tvariant_8h.html" target="_top" xlink:title=" ">
<polygon fill="white" stroke="#666666" points="416.5,-129 352.5,-129 352.5,-110 416.5,-110 416.5,-129"/>
<text text-anchor="middle" x="384.5" y="-117" font-family="Helvetica,sans-Serif" font-size="10.00">tvariant.h</text>
</a>
</g>
</g>
<!-- Node11&#45;&gt;Node18 -->
<g id="edge25_Node000011_Node000018" class="edge">
<title>Node11&#45;&gt;Node18</title>
<g id="a_edge25_Node000011_Node000018"><a xlink:title=" ">
<path fill="none" stroke="#63b8ff" d="M412.89,-164.75C408.18,-157.42 401.33,-146.73 395.53,-137.7"/>
<polygon fill="#63b8ff" stroke="#63b8ff" points="398.36,-135.62 390.01,-129.09 392.46,-139.4 398.36,-135.62"/>
</a>
</g>
</g>
<!-- Node12&#45;&gt;Node3 -->
<g id="edge18_Node000012_Node000003" class="edge">
<title>Node12&#45;&gt;Node3</title>
<g id="a_edge18_Node000012_Node000003"><a xlink:title=" ">
<path fill="none" stroke="#63b8ff" d="M513.39,-109.98C524.65,-101.92 541.79,-89.65 555.21,-80.03"/>
<polygon fill="#63b8ff" stroke="#63b8ff" points="557.3,-82.84 563.39,-74.17 553.23,-77.15 557.3,-82.84"/>
</a>
</g>
</g>
<!-- Node12&#45;&gt;Node7 -->
<g id="edge19_Node000012_Node000007" class="edge">
<title>Node12&#45;&gt;Node7</title>
<g id="a_edge19_Node000012_Node000007"><a xlink:title=" ">
<path fill="none" stroke="#63b8ff" d="M530.14,-110.26C555.59,-102.45 593.46,-89.6 624.5,-74 652.71,-59.82 682.66,-38.96 701.46,-25.06"/>
<polygon fill="#63b8ff" stroke="#63b8ff" points="703.6,-27.84 709.5,-19.04 699.4,-22.23 703.6,-27.84"/>
</a>
</g>
</g>
<!-- Node13 -->
<g id="Node000013" class="node">
<title>Node13</title>
<g id="a_Node000013"><a xlink:title=" ">
<polygon fill="#e0e0e0" stroke="#999999" points="516.5,-74 472.5,-74 472.5,-55 516.5,-55 516.5,-74"/>
<text text-anchor="middle" x="494.5" y="-62" font-family="Helvetica,sans-Serif" font-size="10.00">string</text>
</a>
</g>
</g>
<!-- Node12&#45;&gt;Node13 -->
<g id="edge17_Node000012_Node000013" class="edge">
<title>Node12&#45;&gt;Node13</title>
<g id="a_edge17_Node000012_Node000013"><a xlink:title=" ">
<path fill="none" stroke="#63b8ff" d="M500.34,-109.75C499.43,-102.8 498.11,-92.85 496.96,-84.13"/>
<polygon fill="#63b8ff" stroke="#63b8ff" points="500.41,-83.54 495.63,-74.09 493.47,-84.46 500.41,-83.54"/>
</a>
</g>
</g>
<!-- Node14&#45;&gt;Node4 -->
<g id="edge23_Node000014_Node000004" class="edge">
<title>Node14&#45;&gt;Node4</title>
<g id="a_edge23_Node000014_Node000004"><a xlink:title=" ">
<path fill="none" stroke="#63b8ff" d="M339.55,-54.98C360.91,-46.34 394.2,-32.87 418.56,-23.02"/>
<polygon fill="#63b8ff" stroke="#63b8ff" points="420.11,-26.17 428.07,-19.17 417.49,-19.68 420.11,-26.17"/>
</a>
</g>
</g>
<!-- Node15 -->
<g id="Node000015" class="node">
<title>Node15</title>
<g id="a_Node000015"><a xlink:title=" ">
<polygon fill="#e0e0e0" stroke="#999999" points="330.5,-19 298.5,-19 298.5,0 330.5,0 330.5,-19"/>
<text text-anchor="middle" x="314.5" y="-7" font-family="Helvetica,sans-Serif" font-size="10.00">list</text>
</a>
</g>
</g>
<!-- Node14&#45;&gt;Node15 -->
<g id="edge21_Node000014_Node000015" class="edge">
<title>Node14&#45;&gt;Node15</title>
<g id="a_edge21_Node000014_Node000015"><a xlink:title=" ">
<path fill="none" stroke="#63b8ff" d="M317.84,-54.75C317.32,-47.8 316.56,-37.85 315.91,-29.13"/>
<polygon fill="#63b8ff" stroke="#63b8ff" points="319.39,-28.8 315.15,-19.09 312.41,-29.32 319.39,-28.8"/>
</a>
</g>
</g>
<!-- Node16 -->
<g id="Node000016" class="node">
<title>Node16</title>
<g id="a_Node000016"><a xlink:title=" ">
<polygon fill="#e0e0e0" stroke="#999999" points="280,-19 197,-19 197,0 280,0 280,-19"/>
<text text-anchor="middle" x="238.5" y="-7" font-family="Helvetica,sans-Serif" font-size="10.00">initializer_list</text>
</a>
</g>
</g>
<!-- Node14&#45;&gt;Node16 -->
<g id="edge22_Node000014_Node000016" class="edge">
<title>Node14&#45;&gt;Node16</title>
<g id="a_edge22_Node000014_Node000016"><a xlink:title=" ">
<path fill="none" stroke="#63b8ff" d="M305.65,-54.98C293.36,-46.84 274.59,-34.41 260.02,-24.76"/>
<polygon fill="#63b8ff" stroke="#63b8ff" points="261.86,-21.78 251.59,-19.17 257.99,-27.61 261.86,-21.78"/>
</a>
</g>
</g>
<!-- Node17 -->
<g id="Node000017" class="node">
<title>Node17</title>
<g id="a_Node000017"><a xlink:title=" ">
<polygon fill="#e0e0e0" stroke="#999999" points="402,-19 349,-19 349,0 402,0 402,-19"/>
<text text-anchor="middle" x="375.5" y="-7" font-family="Helvetica,sans-Serif" font-size="10.00">tlist.tcc</text>
</a>
</g>
</g>
<!-- Node14&#45;&gt;Node17 -->
<g id="edge24_Node000014_Node000017" class="edge">
<title>Node14&#45;&gt;Node17</title>
<g id="a_edge24_Node000014_Node000017"><a xlink:title=" ">
<path fill="none" stroke="#63b8ff" d="M327.66,-54.98C336,-47.23 348.53,-35.58 358.68,-26.14"/>
<polygon fill="#63b8ff" stroke="#63b8ff" points="361.24,-28.54 366.18,-19.17 356.47,-23.42 361.24,-28.54"/>
</a>
</g>
</g>
<!-- Node18&#45;&gt;Node6 -->
<g id="edge26_Node000018_Node000006" class="edge">
<title>Node18&#45;&gt;Node6</title>
<g id="a_edge26_Node000018_Node000006"><a xlink:title=" ">
<path fill="none" stroke="#63b8ff" d="M382.93,-109.59C381.1,-96.18 379.77,-70.71 392.5,-55 398.66,-47.4 450.87,-30.88 486.67,-20.25"/>
<polygon fill="#63b8ff" stroke="#63b8ff" points="487.68,-23.6 496.29,-17.42 485.7,-16.89 487.68,-23.6"/>
</a>
</g>
</g>
<!-- Node18&#45;&gt;Node7 -->
<g id="edge34_Node000018_Node000007" class="edge">
<title>Node18&#45;&gt;Node7</title>
<g id="a_edge34_Node000018_Node000007"><a xlink:title=" ">
<path fill="none" stroke="#63b8ff" d="M392.3,-109.88C405.48,-95.89 433.67,-68.47 463.5,-55 498.66,-39.12 600.86,-24.67 665.29,-16.77"/>
<polygon fill="#63b8ff" stroke="#63b8ff" points="665.78,-20.24 675.29,-15.56 664.94,-13.29 665.78,-20.24"/>
</a>
</g>
</g>
<!-- Node18&#45;&gt;Node14 -->
<g id="edge27_Node000018_Node000014" class="edge">
<title>Node18&#45;&gt;Node14</title>
<g id="a_edge27_Node000018_Node000014"><a xlink:title=" ">
<path fill="none" stroke="#63b8ff" d="M373.9,-109.98C364.04,-102.07 349.15,-90.11 337.28,-80.58"/>
<polygon fill="#63b8ff" stroke="#63b8ff" points="339.29,-77.7 329.3,-74.17 334.9,-83.16 339.29,-77.7"/>
</a>
</g>
</g>
<!-- Node19 -->
<g id="Node000019" class="node">
<title>Node19</title>
<g id="a_Node000019"><a xlink:href="tmap_8h.html" target="_top" xlink:title=" ">
<polygon fill="white" stroke="#666666" points="223,-74 172,-74 172,-55 223,-55 223,-74"/>
<text text-anchor="middle" x="197.5" y="-62" font-family="Helvetica,sans-Serif" font-size="10.00">tmap.h</text>
</a>
</g>
</g>
<!-- Node18&#45;&gt;Node19 -->
<g id="edge28_Node000018_Node000019" class="edge">
<title>Node18&#45;&gt;Node19</title>
<g id="a_edge28_Node000018_Node000019"><a xlink:title=" ">
<path fill="none" stroke="#63b8ff" d="M354.46,-109.98C321.38,-100.61 268.24,-85.55 233.1,-75.59"/>
<polygon fill="#63b8ff" stroke="#63b8ff" points="233.83,-72.16 223.26,-72.8 231.92,-78.89 233.83,-72.16"/>
</a>
</g>
</g>
<!-- Node19&#45;&gt;Node4 -->
<g id="edge30_Node000019_Node000004" class="edge">
<title>Node19&#45;&gt;Node4</title>
<g id="a_edge30_Node000019_Node000004"><a xlink:title=" ">
<path fill="none" stroke="#63b8ff" d="M223.09,-58.23C261.38,-50.32 336.11,-34.84 410.15,-19.06"/>
<polygon fill="#63b8ff" stroke="#63b8ff" points="411.07,-22.44 420.12,-16.93 409.61,-15.6 411.07,-22.44"/>
</a>
</g>
</g>
<!-- Node19&#45;&gt;Node16 -->
<g id="edge31_Node000019_Node000016" class="edge">
<title>Node19&#45;&gt;Node16</title>
<g id="a_edge31_Node000019_Node000016"><a xlink:title=" ">
<path fill="none" stroke="#63b8ff" d="M204.27,-54.75C210.06,-47.26 218.56,-36.28 225.64,-27.13"/>
<polygon fill="#63b8ff" stroke="#63b8ff" points="228.51,-29.14 231.86,-19.09 222.97,-24.86 228.51,-29.14"/>
</a>
</g>
</g>
<!-- Node20 -->
<g id="Node000020" class="node">
<title>Node20</title>
<g id="a_Node000020"><a xlink:title=" ">
<polygon fill="#e0e0e0" stroke="#999999" points="115.5,-19 77.5,-19 77.5,0 115.5,0 115.5,-19"/>
<text text-anchor="middle" x="96.5" y="-7" font-family="Helvetica,sans-Serif" font-size="10.00">map</text>
</a>
</g>
</g>
<!-- Node19&#45;&gt;Node20 -->
<g id="edge29_Node000019_Node000020" class="edge">
<title>Node19&#45;&gt;Node20</title>
<g id="a_edge29_Node000019_Node000020"><a xlink:title=" ">
<path fill="none" stroke="#63b8ff" d="M181.27,-54.98C165.32,-46.61 140.72,-33.7 122.12,-23.95"/>
<polygon fill="#63b8ff" stroke="#63b8ff" points="123.5,-20.72 113.02,-19.17 120.25,-26.92 123.5,-20.72"/>
</a>
</g>
</g>
<!-- Node21 -->
<g id="Node000021" class="node">
<title>Node21</title>
<g id="a_Node000021"><a xlink:title=" ">
<polygon fill="#e0e0e0" stroke="#999999" points="179,-19 134,-19 134,0 179,0 179,-19"/>
<text text-anchor="middle" x="156.5" y="-7" font-family="Helvetica,sans-Serif" font-size="10.00">utility</text>
</a>
</g>
</g>
<!-- Node19&#45;&gt;Node21 -->
<g id="edge32_Node000019_Node000021" class="edge">
<title>Node19&#45;&gt;Node21</title>
<g id="a_edge32_Node000019_Node000021"><a xlink:title=" ">
<path fill="none" stroke="#63b8ff" d="M190.73,-54.75C184.94,-47.26 176.44,-36.28 169.36,-27.13"/>
<polygon fill="#63b8ff" stroke="#63b8ff" points="172.03,-24.86 163.14,-19.09 166.49,-29.14 172.03,-24.86"/>
</a>
</g>
</g>
<!-- Node22 -->
<g id="Node000022" class="node">
<title>Node22</title>
<g id="a_Node000022"><a xlink:title=" ">
<polygon fill="#e0e0e0" stroke="#999999" points="59,-19 0,-19 0,0 59,0 59,-19"/>
<text text-anchor="middle" x="29.5" y="-7" font-family="Helvetica,sans-Serif" font-size="10.00">tmap.tcc</text>
</a>
</g>
</g>
<!-- Node19&#45;&gt;Node22 -->
<g id="edge33_Node000019_Node000022" class="edge">
<title>Node19&#45;&gt;Node22</title>
<g id="a_edge33_Node000019_Node000022"><a xlink:title=" ">
<path fill="none" stroke="#63b8ff" d="M171.98,-55.45C143.91,-46.59 98.52,-32.27 66.53,-22.18"/>
<polygon fill="#63b8ff" stroke="#63b8ff" points="67.24,-18.74 56.65,-19.07 65.13,-25.41 67.24,-18.74"/>
</a>
</g>
</g>
<!-- Node23&#45;&gt;Node4 -->
<g id="edge37_Node000023_Node000004" class="edge">
<title>Node23&#45;&gt;Node4</title>
<g id="a_edge37_Node000023_Node000004"><a xlink:title=" ">
<path fill="none" stroke="#63b8ff" d="M601.2,-168.03C551.66,-161.63 481.57,-149.25 463.5,-129 438.99,-101.53 441.76,-55.1 445.75,-29.27"/>
<polygon fill="#63b8ff" stroke="#63b8ff" points="449.22,-29.74 447.52,-19.28 442.33,-28.52 449.22,-29.74"/>
</a>
</g>
</g>
<!-- Node23&#45;&gt;Node7 -->
<g id="edge39_Node000023_Node000007" class="edge">
<title>Node23&#45;&gt;Node7</title>
<g id="a_edge39_Node000023_Node000007"><a xlink:title=" ">
<path fill="none" stroke="#63b8ff" d="M663.47,-164.8C682.32,-149.08 720.21,-113.82 734.5,-74 739.86,-59.08 735.12,-41.41 729.76,-28.51"/>
<polygon fill="#63b8ff" stroke="#63b8ff" points="732.88,-26.93 725.5,-19.33 726.53,-29.87 732.88,-26.93"/>
</a>
</g>
</g>
<!-- Node23&#45;&gt;Node9 -->
<g id="edge38_Node000023_Node000009" class="edge">
<title>Node23&#45;&gt;Node9</title>
<g id="a_edge38_Node000023_Node000009"><a xlink:title=" ">
<path fill="none" stroke="#63b8ff" d="M685.92,-164.98C723.66,-155.37 784.88,-139.77 823.88,-129.83"/>
<polygon fill="#63b8ff" stroke="#63b8ff" points="824.95,-133.17 833.78,-127.31 823.22,-126.39 824.95,-133.17"/>
</a>
</g>
</g>
<!-- Node24&#45;&gt;Node2 -->
<g id="edge42_Node000024_Node000002" class="edge">
<title>Node24&#45;&gt;Node2</title>
<g id="a_edge42_Node000024_Node000002"><a xlink:title=" ">
<path fill="none" stroke="#63b8ff" d="M777.5,-274.75C777.5,-267.8 777.5,-257.85 777.5,-249.13"/>
<polygon fill="#63b8ff" stroke="#63b8ff" points="781,-249.09 777.5,-239.09 774,-249.09 781,-249.09"/>
</a>
</g>
</g>
<!-- Node24&#45;&gt;Node7 -->
<g id="edge44_Node000024_Node000007" class="edge">
<title>Node24&#45;&gt;Node7</title>
<g id="a_edge44_Node000024_Node000007"><a xlink:title=" ">
<path fill="none" stroke="#63b8ff" d="M820.95,-279.02C879.24,-270.33 975.5,-245.39 975.5,-175.5 975.5,-175.5 975.5,-175.5 975.5,-118.5 975.5,-32.4 850.72,-13.91 775.73,-10.57"/>
<polygon fill="#63b8ff" stroke="#63b8ff" points="775.62,-7.07 765.5,-10.2 775.37,-14.06 775.62,-7.07"/>
</a>
</g>
</g>
<!-- Node24&#45;&gt;Node9 -->
<g id="edge41_Node000024_Node000009" class="edge">
<title>Node24&#45;&gt;Node9</title>
<g id="a_edge41_Node000024_Node000009"><a xlink:title=" ">
<path fill="none" stroke="#63b8ff" d="M788.6,-274.84C807.68,-259.16 846.02,-223.97 860.5,-184 865.73,-169.57 865.27,-152.06 863.76,-139.08"/>
<polygon fill="#63b8ff" stroke="#63b8ff" points="867.2,-138.42 862.29,-129.03 860.28,-139.44 867.2,-138.42"/>
</a>
</g>
</g>
<!-- Node24&#45;&gt;Node14 -->
<g id="edge43_Node000024_Node000014" class="edge">
<title>Node24&#45;&gt;Node14</title>
<g id="a_edge43_Node000024_Node000014"><a xlink:title=" ">
<path fill="none" stroke="#63b8ff" d="M734.47,-281C656.62,-275.95 495.79,-262.91 445.5,-239 381.04,-208.35 361.85,-192.1 328.5,-129 321.24,-115.26 318.92,-97.69 318.31,-84.51"/>
<polygon fill="#63b8ff" stroke="#63b8ff" points="321.81,-84.21 318.14,-74.27 314.81,-84.33 321.81,-84.21"/>
</a>
</g>
</g>
<!-- Node25&#45;&gt;Node11 -->
<g id="edge46_Node000025_Node000011" class="edge">
<title>Node25&#45;&gt;Node11</title>
<g id="a_edge46_Node000025_Node000011"><a xlink:title=" ">
<path fill="none" stroke="#63b8ff" d="M350.56,-274.66C362.81,-256.77 390.75,-216 406.72,-192.69"/>
<polygon fill="#63b8ff" stroke="#63b8ff" points="409.8,-194.39 412.57,-184.16 404.03,-190.43 409.8,-194.39"/>
</a>
</g>
</g>
<!-- Node26&#45;&gt;Node12 -->
<g id="edge48_Node000026_Node000012" class="edge">
<title>Node26&#45;&gt;Node12</title>
<g id="a_edge48_Node000026_Node000012"><a xlink:title=" ">
<path fill="none" stroke="#63b8ff" d="M500.58,-219.66C500.74,-202.17 501.11,-162.8 501.33,-139.27"/>
<polygon fill="#63b8ff" stroke="#63b8ff" points="504.83,-139.19 501.42,-129.16 497.83,-139.13 504.83,-139.19"/>
</a>
</g>
</g>
<!-- Node26&#45;&gt;Node23 -->
<g id="edge49_Node000026_Node000023" class="edge">
<title>Node26&#45;&gt;Node23</title>
<g id="a_edge49_Node000026_Node000023"><a xlink:title=" ">
<path fill="none" stroke="#63b8ff" d="M524.92,-219.98C550.22,-211.16 589.95,-197.31 618.36,-187.41"/>
<polygon fill="#63b8ff" stroke="#63b8ff" points="619.6,-190.68 627.89,-184.08 617.29,-184.07 619.6,-190.68"/>
</a>
</g>
</g>
</g>
</svg>
