<?xml version="1.0" encoding="UTF-8" standalone="no"?>
<!DOCTYPE svg PUBLIC "-//W3C//DTD SVG 1.1//EN"
 "http://www.w3.org/Graphics/SVG/1.1/DTD/svg11.dtd">
<!-- Generated by graphviz version 2.46.1 (20210213.1702)
 -->
<!-- Title: xmfile.h Pages: 1 -->
<svg width="845pt" height="420pt"
 viewBox="0.00 0.00 845.00 420.00" xmlns="http://www.w3.org/2000/svg" xmlns:xlink="http://www.w3.org/1999/xlink">
<g id="graph0" class="graph" transform="scale(1 1) rotate(0) translate(4 416)">
<title>xmfile.h</title>
<polygon fill="white" stroke="transparent" points="-4,4 -4,-416 841,-416 841,4 -4,4"/>
<!-- Node1 -->
<g id="node1" class="node">
<title>Node1</title>
<g id="a_node1"><a xlink:title=" ">
<polygon fill="#bfbfbf" stroke="black" points="108.5,-392.5 108.5,-411.5 159.5,-411.5 159.5,-392.5 108.5,-392.5"/>
<text text-anchor="middle" x="134" y="-399.5" font-family="Helvetica,sans-Serif" font-size="10.00">xmfile.h</text>
</a>
</g>
</g>
<!-- Node2 -->
<g id="node2" class="node">
<title>Node2</title>
<g id="a_node2"><a xlink:href="tfile_8h.html" target="_top" xlink:title=" ">
<polygon fill="white" stroke="black" points="298.5,-280.5 298.5,-299.5 339.5,-299.5 339.5,-280.5 298.5,-280.5"/>
<text text-anchor="middle" x="319" y="-287.5" font-family="Helvetica,sans-Serif" font-size="10.00">tfile.h</text>
</a>
</g>
</g>
<!-- Node1&#45;&gt;Node2 -->
<g id="edge1" class="edge">
<title>Node1&#45;&gt;Node2</title>
<path fill="none" stroke="midnightblue" d="M148.52,-392.37C180.4,-373.41 256.77,-328 295.55,-304.94"/>
<polygon fill="midnightblue" stroke="midnightblue" points="297.74,-307.71 304.55,-299.59 294.17,-301.69 297.74,-307.71"/>
</g>
<!-- Node3 -->
<g id="node3" class="node">
<title>Node3</title>
<g id="a_node3"><a xlink:href="taglib__export_8h.html" target="_top" xlink:title=" ">
<polygon fill="white" stroke="black" points="191,-56.5 191,-75.5 271,-75.5 271,-56.5 191,-56.5"/>
<text text-anchor="middle" x="231" y="-63.5" font-family="Helvetica,sans-Serif" font-size="10.00">taglib_export.h</text>
</a>
</g>
</g>
<!-- Node1&#45;&gt;Node3 -->
<g id="edge25" class="edge">
<title>Node1&#45;&gt;Node3</title>
<path fill="none" stroke="midnightblue" d="M108.48,-393.05C69.6,-379.15 0,-346.53 0,-291 0,-291 0,-291 0,-177 0,-97.57 112.71,-75.43 180.67,-69.31"/>
<polygon fill="midnightblue" stroke="midnightblue" points="181.08,-72.79 190.76,-68.48 180.51,-65.81 181.08,-72.79"/>
</g>
<!-- Node13 -->
<g id="node13" class="node">
<title>Node13</title>
<g id="a_node13"><a xlink:href="audioproperties_8h.html" target="_top" xlink:title=" ">
<polygon fill="white" stroke="black" points="54.5,-168.5 54.5,-187.5 145.5,-187.5 145.5,-168.5 54.5,-168.5"/>
<text text-anchor="middle" x="100" y="-175.5" font-family="Helvetica,sans-Serif" font-size="10.00">audioproperties.h</text>
</a>
</g>
</g>
<!-- Node1&#45;&gt;Node13 -->
<g id="edge23" class="edge">
<title>Node1&#45;&gt;Node13</title>
<path fill="none" stroke="midnightblue" d="M109.1,-392.48C92.67,-385.44 72.33,-373.69 62,-356 32.4,-305.3 35.15,-278.49 57,-224 61.68,-212.33 70.99,-201.97 79.76,-194.14"/>
<polygon fill="midnightblue" stroke="midnightblue" points="82.05,-196.78 87.5,-187.7 77.58,-191.4 82.05,-196.78"/>
</g>
<!-- Node14 -->
<g id="node14" class="node">
<title>Node14</title>
<g id="a_node14"><a xlink:href="modfilebase_8h.html" target="_top" xlink:title=" ">
<polygon fill="white" stroke="black" points="329.5,-336.5 329.5,-355.5 406.5,-355.5 406.5,-336.5 329.5,-336.5"/>
<text text-anchor="middle" x="368" y="-343.5" font-family="Helvetica,sans-Serif" font-size="10.00">modfilebase.h</text>
</a>
</g>
</g>
<!-- Node1&#45;&gt;Node14 -->
<g id="edge26" class="edge">
<title>Node1&#45;&gt;Node14</title>
<path fill="none" stroke="midnightblue" d="M159.94,-395.01C198.71,-386.07 272.39,-369.06 320.85,-357.88"/>
<polygon fill="midnightblue" stroke="midnightblue" points="321.83,-361.25 330.79,-355.59 320.26,-354.43 321.83,-361.25"/>
</g>
<!-- Node19 -->
<g id="node19" class="node">
<title>Node19</title>
<g id="a_node19"><a xlink:href="modtag_8h.html" target="_top" xlink:title=" ">
<polygon fill="white" stroke="black" points="71.5,-336.5 71.5,-355.5 128.5,-355.5 128.5,-336.5 71.5,-336.5"/>
<text text-anchor="middle" x="100" y="-343.5" font-family="Helvetica,sans-Serif" font-size="10.00">modtag.h</text>
</a>
</g>
</g>
<!-- Node1&#45;&gt;Node19 -->
<g id="edge36" class="edge">
<title>Node1&#45;&gt;Node19</title>
<path fill="none" stroke="midnightblue" d="M128.39,-392.08C123.63,-384.53 116.68,-373.49 110.85,-364.23"/>
<polygon fill="midnightblue" stroke="midnightblue" points="113.8,-362.35 105.51,-355.75 107.88,-366.08 113.8,-362.35"/>
</g>
<!-- Node20 -->
<g id="node20" class="node">
<title>Node20</title>
<g id="a_node20"><a xlink:href="xmproperties_8h.html" target="_top" xlink:title=" ">
<polygon fill="white" stroke="black" points="122.5,-224.5 122.5,-243.5 203.5,-243.5 203.5,-224.5 122.5,-224.5"/>
<text text-anchor="middle" x="163" y="-231.5" font-family="Helvetica,sans-Serif" font-size="10.00">xmproperties.h</text>
</a>
</g>
</g>
<!-- Node1&#45;&gt;Node20 -->
<g id="edge38" class="edge">
<title>Node1&#45;&gt;Node20</title>
<path fill="none" stroke="midnightblue" d="M135.56,-392.08C140.12,-365.95 153.53,-289.21 159.75,-253.58"/>
<polygon fill="midnightblue" stroke="midnightblue" points="163.23,-254.02 161.5,-243.57 156.33,-252.82 163.23,-254.02"/>
</g>
<!-- Node2&#45;&gt;Node3 -->
<g id="edge2" class="edge">
<title>Node2&#45;&gt;Node3</title>
<path fill="none" stroke="midnightblue" d="M312.76,-280.35C296.64,-257.49 253.65,-193.01 236,-132 231.62,-116.86 230.53,-98.97 230.44,-85.79"/>
<polygon fill="midnightblue" stroke="midnightblue" points="233.94,-85.65 230.56,-75.61 226.94,-85.57 233.94,-85.65"/>
</g>
<!-- Node4 -->
<g id="node4" class="node">
<title>Node4</title>
<g id="a_node4"><a xlink:href="taglib_8h.html" target="_top" xlink:title=" ">
<polygon fill="white" stroke="black" points="565,-56.5 565,-75.5 613,-75.5 613,-56.5 565,-56.5"/>
<text text-anchor="middle" x="589" y="-63.5" font-family="Helvetica,sans-Serif" font-size="10.00">taglib.h</text>
</a>
</g>
</g>
<!-- Node2&#45;&gt;Node4 -->
<g id="edge3" class="edge">
<title>Node2&#45;&gt;Node4</title>
<path fill="none" stroke="midnightblue" d="M339.72,-283.46C381.11,-271.59 475.42,-240.44 538,-188 563.13,-166.95 573.92,-162.47 586,-132 591.8,-117.38 592.17,-99.44 591.31,-86.11"/>
<polygon fill="midnightblue" stroke="midnightblue" points="594.76,-85.42 590.34,-75.79 587.8,-86.07 594.76,-85.42"/>
</g>
<!-- Node7 -->
<g id="node7" class="node">
<title>Node7</title>
<g id="a_node7"><a xlink:href="tag_8h.html" target="_top" xlink:title=" ">
<polygon fill="white" stroke="black" points="66,-224.5 66,-243.5 104,-243.5 104,-224.5 66,-224.5"/>
<text text-anchor="middle" x="85" y="-231.5" font-family="Helvetica,sans-Serif" font-size="10.00">tag.h</text>
</a>
</g>
</g>
<!-- Node2&#45;&gt;Node7 -->
<g id="edge6" class="edge">
<title>Node2&#45;&gt;Node7</title>
<path fill="none" stroke="midnightblue" d="M298.49,-285.1C261.43,-277.91 180.93,-261.7 114,-244 113.9,-243.97 113.8,-243.95 113.7,-243.92"/>
<polygon fill="midnightblue" stroke="midnightblue" points="114.85,-240.61 104.28,-241.23 112.93,-247.34 114.85,-240.61"/>
</g>
<!-- Node9 -->
<g id="node9" class="node">
<title>Node9</title>
<g id="a_node9"><a xlink:href="tbytevector_8h.html" target="_top" xlink:title=" ">
<polygon fill="white" stroke="black" points="430.5,-112.5 430.5,-131.5 503.5,-131.5 503.5,-112.5 430.5,-112.5"/>
<text text-anchor="middle" x="467" y="-119.5" font-family="Helvetica,sans-Serif" font-size="10.00">tbytevector.h</text>
</a>
</g>
</g>
<!-- Node2&#45;&gt;Node9 -->
<g id="edge18" class="edge">
<title>Node2&#45;&gt;Node9</title>
<path fill="none" stroke="midnightblue" d="M326.48,-280.45C343.86,-260.62 388.35,-209.95 426,-168 434.67,-158.34 444.45,-147.6 452.29,-139.03"/>
<polygon fill="midnightblue" stroke="midnightblue" points="454.93,-141.33 459.1,-131.59 449.77,-136.6 454.93,-141.33"/>
</g>
<!-- Node12 -->
<g id="node12" class="node">
<title>Node12</title>
<g id="a_node12"><a xlink:href="tiostream_8h.html" target="_top" xlink:title=" ">
<polygon fill="white" stroke="black" points="434.5,-168.5 434.5,-187.5 499.5,-187.5 499.5,-168.5 434.5,-168.5"/>
<text text-anchor="middle" x="467" y="-175.5" font-family="Helvetica,sans-Serif" font-size="10.00">tiostream.h</text>
</a>
</g>
</g>
<!-- Node2&#45;&gt;Node12 -->
<g id="edge19" class="edge">
<title>Node2&#45;&gt;Node12</title>
<path fill="none" stroke="midnightblue" d="M339.69,-283.31C361.4,-276.57 395.71,-263.72 420,-244 436.16,-230.88 449.48,-210.91 457.76,-196.58"/>
<polygon fill="midnightblue" stroke="midnightblue" points="460.89,-198.15 462.66,-187.7 454.76,-194.76 460.89,-198.15"/>
</g>
<!-- Node5 -->
<g id="node5" class="node">
<title>Node5</title>
<g id="a_node5"><a xlink:title=" ">
<polygon fill="white" stroke="#bfbfbf" points="549,-0.5 549,-19.5 629,-19.5 629,-0.5 549,-0.5"/>
<text text-anchor="middle" x="589" y="-7.5" font-family="Helvetica,sans-Serif" font-size="10.00">taglib_config.h</text>
</a>
</g>
</g>
<!-- Node4&#45;&gt;Node5 -->
<g id="edge4" class="edge">
<title>Node4&#45;&gt;Node5</title>
<path fill="none" stroke="midnightblue" d="M589,-56.08C589,-49.01 589,-38.86 589,-29.99"/>
<polygon fill="midnightblue" stroke="midnightblue" points="592.5,-29.75 589,-19.75 585.5,-29.75 592.5,-29.75"/>
</g>
<!-- Node6 -->
<g id="node6" class="node">
<title>Node6</title>
<g id="a_node6"><a xlink:title=" ">
<polygon fill="white" stroke="#bfbfbf" points="407.5,-0.5 407.5,-19.5 448.5,-19.5 448.5,-0.5 407.5,-0.5"/>
<text text-anchor="middle" x="428" y="-7.5" font-family="Helvetica,sans-Serif" font-size="10.00">string</text>
</a>
</g>
</g>
<!-- Node4&#45;&gt;Node6 -->
<g id="edge5" class="edge">
<title>Node4&#45;&gt;Node6</title>
<path fill="none" stroke="midnightblue" d="M564.9,-56.92C536.52,-47.4 489.37,-31.58 458.48,-21.22"/>
<polygon fill="midnightblue" stroke="midnightblue" points="459.28,-17.8 448.68,-17.94 457.05,-24.44 459.28,-17.8"/>
</g>
<!-- Node7&#45;&gt;Node3 -->
<g id="edge7" class="edge">
<title>Node7&#45;&gt;Node3</title>
<path fill="none" stroke="midnightblue" d="M103.41,-224.34C118.64,-216.49 140.11,-203.75 155,-188 181.66,-159.79 176.93,-144.59 198,-112 204.18,-102.44 211.64,-92.18 217.9,-83.87"/>
<polygon fill="midnightblue" stroke="midnightblue" points="220.82,-85.82 224.11,-75.75 215.25,-81.57 220.82,-85.82"/>
</g>
<!-- Node8 -->
<g id="node8" class="node">
<title>Node8</title>
<g id="a_node8"><a xlink:href="tstring_8h.html" target="_top" xlink:title=" ">
<polygon fill="white" stroke="black" points="313,-168.5 313,-187.5 365,-187.5 365,-168.5 313,-168.5"/>
<text text-anchor="middle" x="339" y="-175.5" font-family="Helvetica,sans-Serif" font-size="10.00">tstring.h</text>
</a>
</g>
</g>
<!-- Node7&#45;&gt;Node8 -->
<g id="edge8" class="edge">
<title>Node7&#45;&gt;Node8</title>
<path fill="none" stroke="midnightblue" d="M104.26,-226.72C107.5,-225.75 110.83,-224.81 114,-224 179.94,-207.22 258.05,-192.8 302.74,-185.06"/>
<polygon fill="midnightblue" stroke="midnightblue" points="303.55,-188.47 312.82,-183.33 302.37,-181.57 303.55,-188.47"/>
</g>
<!-- Node8&#45;&gt;Node3 -->
<g id="edge9" class="edge">
<title>Node8&#45;&gt;Node3</title>
<path fill="none" stroke="midnightblue" d="M330.53,-168.37C312.39,-149.89 269.58,-106.29 246.46,-82.74"/>
<polygon fill="midnightblue" stroke="midnightblue" points="248.94,-80.28 239.44,-75.59 243.94,-85.18 248.94,-80.28"/>
</g>
<!-- Node8&#45;&gt;Node4 -->
<g id="edge10" class="edge">
<title>Node8&#45;&gt;Node4</title>
<path fill="none" stroke="midnightblue" d="M365.09,-174C400.32,-169.13 464.3,-157.37 513,-132 537.16,-119.41 560.26,-97.83 574.52,-83.01"/>
<polygon fill="midnightblue" stroke="midnightblue" points="577.2,-85.27 581.48,-75.58 572.09,-80.48 577.2,-85.27"/>
</g>
<!-- Node8&#45;&gt;Node6 -->
<g id="edge16" class="edge">
<title>Node8&#45;&gt;Node6</title>
<path fill="none" stroke="midnightblue" d="M337.77,-168.23C335.25,-147.03 331.61,-92.1 355,-56 365.12,-40.38 382.77,-29.28 398.18,-22.01"/>
<polygon fill="midnightblue" stroke="midnightblue" points="399.64,-25.2 407.4,-17.98 396.84,-18.78 399.64,-25.2"/>
</g>
<!-- Node8&#45;&gt;Node9 -->
<g id="edge11" class="edge">
<title>Node8&#45;&gt;Node9</title>
<path fill="none" stroke="midnightblue" d="M359.28,-168.44C380.35,-159.56 413.52,-145.56 437.49,-135.45"/>
<polygon fill="midnightblue" stroke="midnightblue" points="438.96,-138.63 446.81,-131.52 436.24,-132.18 438.96,-138.63"/>
</g>
<!-- Node11 -->
<g id="node11" class="node">
<title>Node11</title>
<g id="a_node11"><a xlink:title=" ">
<polygon fill="white" stroke="#bfbfbf" points="364,-56.5 364,-75.5 418,-75.5 418,-56.5 364,-56.5"/>
<text text-anchor="middle" x="391" y="-63.5" font-family="Helvetica,sans-Serif" font-size="10.00">iostream</text>
</a>
</g>
</g>
<!-- Node8&#45;&gt;Node11 -->
<g id="edge17" class="edge">
<title>Node8&#45;&gt;Node11</title>
<path fill="none" stroke="midnightblue" d="M343.08,-168.37C351.55,-150.46 371.18,-108.92 382.52,-84.95"/>
<polygon fill="midnightblue" stroke="midnightblue" points="385.83,-86.13 386.94,-75.59 379.5,-83.14 385.83,-86.13"/>
</g>
<!-- Node9&#45;&gt;Node3 -->
<g id="edge13" class="edge">
<title>Node9&#45;&gt;Node3</title>
<path fill="none" stroke="midnightblue" d="M430.38,-112.62C389.46,-103.26 323.07,-88.07 278.26,-77.81"/>
<polygon fill="midnightblue" stroke="midnightblue" points="279.01,-74.4 268.48,-75.58 277.45,-81.22 279.01,-74.4"/>
</g>
<!-- Node9&#45;&gt;Node4 -->
<g id="edge12" class="edge">
<title>Node9&#45;&gt;Node4</title>
<path fill="none" stroke="midnightblue" d="M486.33,-112.44C506.32,-103.6 537.74,-89.69 560.56,-79.59"/>
<polygon fill="midnightblue" stroke="midnightblue" points="562.03,-82.76 569.76,-75.52 559.2,-76.36 562.03,-82.76"/>
</g>
<!-- Node10 -->
<g id="node10" class="node">
<title>Node10</title>
<g id="a_node10"><a xlink:title=" ">
<polygon fill="white" stroke="#bfbfbf" points="445,-56.5 445,-75.5 489,-75.5 489,-56.5 445,-56.5"/>
<text text-anchor="middle" x="467" y="-63.5" font-family="Helvetica,sans-Serif" font-size="10.00">vector</text>
</a>
</g>
</g>
<!-- Node9&#45;&gt;Node10 -->
<g id="edge14" class="edge">
<title>Node9&#45;&gt;Node10</title>
<path fill="none" stroke="midnightblue" d="M467,-112.08C467,-105.01 467,-94.86 467,-85.99"/>
<polygon fill="midnightblue" stroke="midnightblue" points="470.5,-85.75 467,-75.75 463.5,-85.75 470.5,-85.75"/>
</g>
<!-- Node9&#45;&gt;Node11 -->
<g id="edge15" class="edge">
<title>Node9&#45;&gt;Node11</title>
<path fill="none" stroke="midnightblue" d="M454.79,-112.32C443.22,-104.11 425.62,-91.6 411.84,-81.81"/>
<polygon fill="midnightblue" stroke="midnightblue" points="413.61,-78.77 403.43,-75.83 409.56,-84.48 413.61,-78.77"/>
</g>
<!-- Node12&#45;&gt;Node3 -->
<g id="edge20" class="edge">
<title>Node12&#45;&gt;Node3</title>
<path fill="none" stroke="midnightblue" d="M448.48,-168.37C407.21,-149.13 307.48,-102.65 258.74,-79.93"/>
<polygon fill="midnightblue" stroke="midnightblue" points="259.97,-76.64 249.43,-75.59 257.02,-82.99 259.97,-76.64"/>
</g>
<!-- Node12&#45;&gt;Node4 -->
<g id="edge21" class="edge">
<title>Node12&#45;&gt;Node4</title>
<path fill="none" stroke="midnightblue" d="M487.87,-168.41C504.88,-160.67 528.82,-148.07 546,-132 560.47,-118.46 572.46,-99.14 580.07,-85.08"/>
<polygon fill="midnightblue" stroke="midnightblue" points="583.31,-86.43 584.81,-75.94 577.1,-83.21 583.31,-86.43"/>
</g>
<!-- Node12&#45;&gt;Node9 -->
<g id="edge22" class="edge">
<title>Node12&#45;&gt;Node9</title>
<path fill="none" stroke="midnightblue" d="M467,-168.08C467,-161.01 467,-150.86 467,-141.99"/>
<polygon fill="midnightblue" stroke="midnightblue" points="470.5,-141.75 467,-131.75 463.5,-141.75 470.5,-141.75"/>
</g>
<!-- Node13&#45;&gt;Node3 -->
<g id="edge24" class="edge">
<title>Node13&#45;&gt;Node3</title>
<path fill="none" stroke="midnightblue" d="M106.76,-168.33C117.26,-155.2 138.53,-129.9 160,-112 174.34,-100.04 192.09,-88.79 206.25,-80.53"/>
<polygon fill="midnightblue" stroke="midnightblue" points="208.01,-83.56 214.97,-75.56 204.55,-77.47 208.01,-83.56"/>
</g>
<!-- Node14&#45;&gt;Node2 -->
<g id="edge28" class="edge">
<title>Node14&#45;&gt;Node2</title>
<path fill="none" stroke="midnightblue" d="M359.91,-336.08C352.84,-328.3 342.41,-316.8 333.85,-307.37"/>
<polygon fill="midnightblue" stroke="midnightblue" points="336.25,-304.8 326.94,-299.75 331.07,-309.51 336.25,-304.8"/>
</g>
<!-- Node14&#45;&gt;Node3 -->
<g id="edge34" class="edge">
<title>Node14&#45;&gt;Node3</title>
<path fill="none" stroke="midnightblue" d="M342.6,-336.41C325.3,-329.28 303.21,-317.45 290,-300 263.95,-265.57 241.47,-134.59 233.8,-85.62"/>
<polygon fill="midnightblue" stroke="midnightblue" points="237.23,-84.87 232.25,-75.51 230.31,-85.93 237.23,-84.87"/>
</g>
<!-- Node14&#45;&gt;Node4 -->
<g id="edge27" class="edge">
<title>Node14&#45;&gt;Node4</title>
<path fill="none" stroke="midnightblue" d="M406.78,-344.16C519.15,-340.7 837,-323.13 837,-235 837,-235 837,-235 837,-177 837,-84.68 691.61,-69.24 623.47,-67.08"/>
<polygon fill="midnightblue" stroke="midnightblue" points="623.31,-63.58 613.23,-66.84 623.14,-70.57 623.31,-63.58"/>
</g>
<!-- Node14&#45;&gt;Node8 -->
<g id="edge29" class="edge">
<title>Node14&#45;&gt;Node8</title>
<path fill="none" stroke="midnightblue" d="M366.44,-336.08C361.88,-309.95 348.47,-233.21 342.25,-197.58"/>
<polygon fill="midnightblue" stroke="midnightblue" points="345.67,-196.82 340.5,-187.57 338.77,-198.02 345.67,-196.82"/>
</g>
<!-- Node15 -->
<g id="node15" class="node">
<title>Node15</title>
<g id="a_node15"><a xlink:href="tlist_8h.html" target="_top" xlink:title=" ">
<polygon fill="white" stroke="black" points="690.5,-280.5 690.5,-299.5 731.5,-299.5 731.5,-280.5 690.5,-280.5"/>
<text text-anchor="middle" x="711" y="-287.5" font-family="Helvetica,sans-Serif" font-size="10.00">tlist.h</text>
</a>
</g>
</g>
<!-- Node14&#45;&gt;Node15 -->
<g id="edge30" class="edge">
<title>Node14&#45;&gt;Node15</title>
<path fill="none" stroke="midnightblue" d="M406.68,-338.91C475.41,-328.09 617.48,-305.72 680.15,-295.86"/>
<polygon fill="midnightblue" stroke="midnightblue" points="680.87,-299.29 690.2,-294.27 679.78,-292.37 680.87,-299.29"/>
</g>
<!-- Node18 -->
<g id="node18" class="node">
<title>Node18</title>
<g id="a_node18"><a xlink:title=" ">
<polygon fill="white" stroke="#bfbfbf" points="396,-280.5 396,-299.5 452,-299.5 452,-280.5 396,-280.5"/>
<text text-anchor="middle" x="424" y="-287.5" font-family="Helvetica,sans-Serif" font-size="10.00">algorithm</text>
</a>
</g>
</g>
<!-- Node14&#45;&gt;Node18 -->
<g id="edge35" class="edge">
<title>Node14&#45;&gt;Node18</title>
<path fill="none" stroke="midnightblue" d="M377,-336.32C385.19,-328.42 397.51,-316.55 407.47,-306.94"/>
<polygon fill="midnightblue" stroke="midnightblue" points="410.07,-309.29 414.84,-299.83 405.21,-304.26 410.07,-309.29"/>
</g>
<!-- Node15&#45;&gt;Node4 -->
<g id="edge31" class="edge">
<title>Node15&#45;&gt;Node4</title>
<path fill="none" stroke="midnightblue" d="M709.34,-280.3C703.19,-248.63 680.91,-139.89 660,-112 649.66,-98.21 633.75,-87.56 619.6,-80.1"/>
<polygon fill="midnightblue" stroke="midnightblue" points="621.15,-76.96 610.64,-75.65 618.04,-83.23 621.15,-76.96"/>
</g>
<!-- Node16 -->
<g id="node16" class="node">
<title>Node16</title>
<g id="a_node16"><a xlink:title=" ">
<polygon fill="white" stroke="#bfbfbf" points="779.5,-224.5 779.5,-243.5 808.5,-243.5 808.5,-224.5 779.5,-224.5"/>
<text text-anchor="middle" x="794" y="-231.5" font-family="Helvetica,sans-Serif" font-size="10.00">list</text>
</a>
</g>
</g>
<!-- Node15&#45;&gt;Node16 -->
<g id="edge32" class="edge">
<title>Node15&#45;&gt;Node16</title>
<path fill="none" stroke="midnightblue" d="M724.34,-280.32C737.16,-271.98 756.78,-259.21 771.94,-249.35"/>
<polygon fill="midnightblue" stroke="midnightblue" points="774.22,-252.04 780.7,-243.65 770.41,-246.17 774.22,-252.04"/>
</g>
<!-- Node17 -->
<g id="node17" class="node">
<title>Node17</title>
<g id="a_node17"><a xlink:title=" ">
<polygon fill="white" stroke="#bfbfbf" points="712.5,-224.5 712.5,-243.5 761.5,-243.5 761.5,-224.5 712.5,-224.5"/>
<text text-anchor="middle" x="737" y="-231.5" font-family="Helvetica,sans-Serif" font-size="10.00">tlist.tcc</text>
</a>
</g>
</g>
<!-- Node15&#45;&gt;Node17 -->
<g id="edge33" class="edge">
<title>Node15&#45;&gt;Node17</title>
<path fill="none" stroke="midnightblue" d="M715.29,-280.08C718.85,-272.69 724.02,-261.95 728.42,-252.81"/>
<polygon fill="midnightblue" stroke="midnightblue" points="731.6,-254.28 732.79,-243.75 725.29,-251.24 731.6,-254.28"/>
</g>
<!-- Node19&#45;&gt;Node7 -->
<g id="edge37" class="edge">
<title>Node19&#45;&gt;Node7</title>
<path fill="none" stroke="midnightblue" d="M98.82,-336.37C96.4,-318.62 90.82,-277.67 87.54,-253.6"/>
<polygon fill="midnightblue" stroke="midnightblue" points="90.99,-253.03 86.17,-243.59 84.05,-253.97 90.99,-253.03"/>
</g>
<!-- Node20&#45;&gt;Node4 -->
<g id="edge39" class="edge">
<title>Node20&#45;&gt;Node4</title>
<path fill="none" stroke="midnightblue" d="M203.8,-230.86C283.28,-226.18 455.74,-213.35 509,-188 541.64,-172.46 548.74,-162.59 568,-132 576.99,-117.73 582.47,-99.26 585.57,-85.66"/>
<polygon fill="midnightblue" stroke="midnightblue" points="589.05,-86.07 587.63,-75.58 582.2,-84.67 589.05,-86.07"/>
</g>
<!-- Node20&#45;&gt;Node8 -->
<g id="edge40" class="edge">
<title>Node20&#45;&gt;Node8</title>
<path fill="none" stroke="midnightblue" d="M190.89,-224.44C221.28,-215.12 270,-200.17 303.2,-189.99"/>
<polygon fill="midnightblue" stroke="midnightblue" points="304.43,-193.27 312.96,-186.99 302.38,-186.58 304.43,-193.27"/>
</g>
<!-- Node20&#45;&gt;Node13 -->
<g id="edge41" class="edge">
<title>Node20&#45;&gt;Node13</title>
<path fill="none" stroke="midnightblue" d="M152.88,-224.32C143.47,-216.26 129.26,-204.08 117.93,-194.37"/>
<polygon fill="midnightblue" stroke="midnightblue" points="120.18,-191.68 110.31,-187.83 115.62,-197 120.18,-191.68"/>
</g>
</g>
</svg>
