<?xml version="1.0" encoding="UTF-8" standalone="no"?>
<!DOCTYPE svg PUBLIC "-//W3C//DTD SVG 1.1//EN"
 "http://www.w3.org/Graphics/SVG/1.1/DTD/svg11.dtd">
<!-- Generated by graphviz version 2.43.0 (0)
 -->
<!-- Title: xmfile.h Pages: 1 -->
<svg width="875pt" height="420pt"
 viewBox="0.00 0.00 875.00 420.00" xmlns="http://www.w3.org/2000/svg" xmlns:xlink="http://www.w3.org/1999/xlink">
<g id="graph0" class="graph" transform="scale(1 1) rotate(0) translate(4 416)">
<title>xmfile.h</title>
<polygon fill="white" stroke="transparent" points="-4,4 -4,-416 871,-416 871,4 -4,4"/>
<!-- Node1 -->
<g id="node1" class="node">
<title>Node1</title>
<g id="a_node1"><a xlink:title=" ">
<polygon fill="#bfbfbf" stroke="black" points="112,-392.5 112,-411.5 168,-411.5 168,-392.5 112,-392.5"/>
<text text-anchor="middle" x="140" y="-399.5" font-family="Helvetica,sans-Serif" font-size="10.00">xmfile.h</text>
</a>
</g>
</g>
<!-- Node2 -->
<g id="node2" class="node">
<title>Node2</title>
<g id="a_node2"><a xlink:href="tfile_8h.html" target="_top" xlink:title=" ">
<polygon fill="white" stroke="black" points="311,-280.5 311,-299.5 355,-299.5 355,-280.5 311,-280.5"/>
<text text-anchor="middle" x="333" y="-287.5" font-family="Helvetica,sans-Serif" font-size="10.00">tfile.h</text>
</a>
</g>
</g>
<!-- Node1&#45;&gt;Node2 -->
<g id="edge1" class="edge">
<title>Node1&#45;&gt;Node2</title>
<path fill="none" stroke="midnightblue" d="M155.14,-392.37C188.55,-373.33 268.76,-327.62 309.05,-304.65"/>
<polygon fill="midnightblue" stroke="midnightblue" points="310.97,-307.58 317.93,-299.59 307.5,-301.5 310.97,-307.58"/>
</g>
<!-- Node3 -->
<g id="node3" class="node">
<title>Node3</title>
<g id="a_node3"><a xlink:href="taglib__export_8h.html" target="_top" xlink:title=" ">
<polygon fill="white" stroke="black" points="201,-56.5 201,-75.5 291,-75.5 291,-56.5 201,-56.5"/>
<text text-anchor="middle" x="246" y="-63.5" font-family="Helvetica,sans-Serif" font-size="10.00">taglib_export.h</text>
</a>
</g>
</g>
<!-- Node1&#45;&gt;Node3 -->
<g id="edge25" class="edge">
<title>Node1&#45;&gt;Node3</title>
<path fill="none" stroke="midnightblue" d="M111.67,-392.84C70.76,-379.12 0,-347.26 0,-291 0,-291 0,-291 0,-177 0,-94.06 117.97,-73.24 190.52,-68.28"/>
<polygon fill="midnightblue" stroke="midnightblue" points="191.11,-71.75 200.88,-67.66 190.69,-64.76 191.11,-71.75"/>
</g>
<!-- Node13 -->
<g id="node13" class="node">
<title>Node13</title>
<g id="a_node13"><a xlink:href="audioproperties_8h.html" target="_top" xlink:title=" ">
<polygon fill="white" stroke="black" points="59,-168.5 59,-187.5 161,-187.5 161,-168.5 59,-168.5"/>
<text text-anchor="middle" x="110" y="-175.5" font-family="Helvetica,sans-Serif" font-size="10.00">audioproperties.h</text>
</a>
</g>
</g>
<!-- Node1&#45;&gt;Node13 -->
<g id="edge23" class="edge">
<title>Node1&#45;&gt;Node13</title>
<path fill="none" stroke="midnightblue" d="M112.33,-392.46C95.01,-385.55 73.97,-373.98 63,-356 32.42,-305.86 32.34,-277.3 57,-224 62.92,-211.21 74.47,-200.72 85.28,-193.1"/>
<polygon fill="midnightblue" stroke="midnightblue" points="87.21,-196.02 93.67,-187.61 83.38,-190.16 87.21,-196.02"/>
</g>
<!-- Node14 -->
<g id="node14" class="node">
<title>Node14</title>
<g id="a_node14"><a xlink:href="modfilebase_8h.html" target="_top" xlink:title=" ">
<polygon fill="white" stroke="black" points="340,-336.5 340,-355.5 426,-355.5 426,-336.5 340,-336.5"/>
<text text-anchor="middle" x="383" y="-343.5" font-family="Helvetica,sans-Serif" font-size="10.00">modfilebase.h</text>
</a>
</g>
</g>
<!-- Node1&#45;&gt;Node14 -->
<g id="edge26" class="edge">
<title>Node1&#45;&gt;Node14</title>
<path fill="none" stroke="midnightblue" d="M168.35,-394.7C209.11,-385.64 284.83,-368.82 334.56,-357.76"/>
<polygon fill="midnightblue" stroke="midnightblue" points="335.45,-361.15 344.45,-355.57 333.93,-354.32 335.45,-361.15"/>
</g>
<!-- Node19 -->
<g id="node19" class="node">
<title>Node19</title>
<g id="a_node19"><a xlink:href="modtag_8h.html" target="_top" xlink:title=" ">
<polygon fill="white" stroke="black" points="72.5,-336.5 72.5,-355.5 135.5,-355.5 135.5,-336.5 72.5,-336.5"/>
<text text-anchor="middle" x="104" y="-343.5" font-family="Helvetica,sans-Serif" font-size="10.00">modtag.h</text>
</a>
</g>
</g>
<!-- Node1&#45;&gt;Node19 -->
<g id="edge36" class="edge">
<title>Node1&#45;&gt;Node19</title>
<path fill="none" stroke="midnightblue" d="M134.06,-392.08C129.02,-384.53 121.66,-373.49 115.49,-364.23"/>
<polygon fill="midnightblue" stroke="midnightblue" points="118.29,-362.13 109.83,-355.75 112.47,-366.01 118.29,-362.13"/>
</g>
<!-- Node20 -->
<g id="node20" class="node">
<title>Node20</title>
<g id="a_node20"><a xlink:href="xmproperties_8h.html" target="_top" xlink:title=" ">
<polygon fill="white" stroke="black" points="125.5,-224.5 125.5,-243.5 216.5,-243.5 216.5,-224.5 125.5,-224.5"/>
<text text-anchor="middle" x="171" y="-231.5" font-family="Helvetica,sans-Serif" font-size="10.00">xmproperties.h</text>
</a>
</g>
</g>
<!-- Node1&#45;&gt;Node20 -->
<g id="edge38" class="edge">
<title>Node1&#45;&gt;Node20</title>
<path fill="none" stroke="midnightblue" d="M141.67,-392.08C146.55,-365.95 160.88,-289.21 167.53,-253.58"/>
<polygon fill="midnightblue" stroke="midnightblue" points="171,-254.04 169.4,-243.57 164.12,-252.76 171,-254.04"/>
</g>
<!-- Node2&#45;&gt;Node3 -->
<g id="edge2" class="edge">
<title>Node2&#45;&gt;Node3</title>
<path fill="none" stroke="midnightblue" d="M326.83,-280.34C310.91,-257.45 268.45,-192.9 251,-132 246.66,-116.85 245.56,-98.96 245.46,-85.78"/>
<polygon fill="midnightblue" stroke="midnightblue" points="248.96,-85.65 245.58,-75.61 241.96,-85.57 248.96,-85.65"/>
</g>
<!-- Node4 -->
<g id="node4" class="node">
<title>Node4</title>
<g id="a_node4"><a xlink:href="taglib_8h.html" target="_top" xlink:title=" ">
<polygon fill="white" stroke="black" points="585.5,-56.5 585.5,-75.5 638.5,-75.5 638.5,-56.5 585.5,-56.5"/>
<text text-anchor="middle" x="612" y="-63.5" font-family="Helvetica,sans-Serif" font-size="10.00">taglib.h</text>
</a>
</g>
</g>
<!-- Node2&#45;&gt;Node4 -->
<g id="edge3" class="edge">
<title>Node2&#45;&gt;Node4</title>
<path fill="none" stroke="midnightblue" d="M355.15,-283.39C398.43,-271.59 495.7,-240.82 561,-188 586.49,-167.39 596.92,-162.47 609,-132 614.8,-117.38 615.17,-99.44 614.31,-86.11"/>
<polygon fill="midnightblue" stroke="midnightblue" points="617.76,-85.42 613.34,-75.79 610.8,-86.07 617.76,-85.42"/>
</g>
<!-- Node7 -->
<g id="node7" class="node">
<title>Node7</title>
<g id="a_node7"><a xlink:href="tag_8h.html" target="_top" xlink:title=" ">
<polygon fill="white" stroke="black" points="66.5,-224.5 66.5,-243.5 107.5,-243.5 107.5,-224.5 66.5,-224.5"/>
<text text-anchor="middle" x="87" y="-231.5" font-family="Helvetica,sans-Serif" font-size="10.00">tag.h</text>
</a>
</g>
</g>
<!-- Node2&#45;&gt;Node7 -->
<g id="edge6" class="edge">
<title>Node2&#45;&gt;Node7</title>
<path fill="none" stroke="midnightblue" d="M310.78,-285.02C273.08,-278.14 194.01,-263.1 117.4,-243.92"/>
<polygon fill="midnightblue" stroke="midnightblue" points="118.15,-240.49 107.59,-241.43 116.43,-247.28 118.15,-240.49"/>
</g>
<!-- Node9 -->
<g id="node9" class="node">
<title>Node9</title>
<g id="a_node9"><a xlink:href="tbytevector_8h.html" target="_top" xlink:title=" ">
<polygon fill="white" stroke="black" points="445.5,-112.5 445.5,-131.5 526.5,-131.5 526.5,-112.5 445.5,-112.5"/>
<text text-anchor="middle" x="486" y="-119.5" font-family="Helvetica,sans-Serif" font-size="10.00">tbytevector.h</text>
</a>
</g>
</g>
<!-- Node2&#45;&gt;Node9 -->
<g id="edge18" class="edge">
<title>Node2&#45;&gt;Node9</title>
<path fill="none" stroke="midnightblue" d="M340.43,-280.34C357.72,-260.27 402.13,-209.14 441,-168 450.3,-158.16 461,-147.44 469.63,-138.92"/>
<polygon fill="midnightblue" stroke="midnightblue" points="472.19,-141.32 476.88,-131.82 467.29,-136.32 472.19,-141.32"/>
</g>
<!-- Node12 -->
<g id="node12" class="node">
<title>Node12</title>
<g id="a_node12"><a xlink:href="tiostream_8h.html" target="_top" xlink:title=" ">
<polygon fill="white" stroke="black" points="449.5,-168.5 449.5,-187.5 522.5,-187.5 522.5,-168.5 449.5,-168.5"/>
<text text-anchor="middle" x="486" y="-175.5" font-family="Helvetica,sans-Serif" font-size="10.00">tiostream.h</text>
</a>
</g>
</g>
<!-- Node2&#45;&gt;Node12 -->
<g id="edge19" class="edge">
<title>Node2&#45;&gt;Node12</title>
<path fill="none" stroke="midnightblue" d="M355.37,-282.65C377.24,-275.67 410.7,-262.88 435,-244 451.93,-230.84 466.48,-210.89 475.66,-196.56"/>
<polygon fill="midnightblue" stroke="midnightblue" points="478.85,-198.04 481.11,-187.69 472.89,-194.37 478.85,-198.04"/>
</g>
<!-- Node5 -->
<g id="node5" class="node">
<title>Node5</title>
<g id="a_node5"><a xlink:title=" ">
<polygon fill="white" stroke="#bfbfbf" points="568,-0.5 568,-19.5 656,-19.5 656,-0.5 568,-0.5"/>
<text text-anchor="middle" x="612" y="-7.5" font-family="Helvetica,sans-Serif" font-size="10.00">taglib_config.h</text>
</a>
</g>
</g>
<!-- Node4&#45;&gt;Node5 -->
<g id="edge4" class="edge">
<title>Node4&#45;&gt;Node5</title>
<path fill="none" stroke="midnightblue" d="M612,-56.08C612,-49.01 612,-38.86 612,-29.99"/>
<polygon fill="midnightblue" stroke="midnightblue" points="615.5,-29.75 612,-19.75 608.5,-29.75 615.5,-29.75"/>
</g>
<!-- Node6 -->
<g id="node6" class="node">
<title>Node6</title>
<g id="a_node6"><a xlink:title=" ">
<polygon fill="white" stroke="#bfbfbf" points="422,-0.5 422,-19.5 466,-19.5 466,-0.5 422,-0.5"/>
<text text-anchor="middle" x="444" y="-7.5" font-family="Helvetica,sans-Serif" font-size="10.00">string</text>
</a>
</g>
</g>
<!-- Node4&#45;&gt;Node6 -->
<g id="edge5" class="edge">
<title>Node4&#45;&gt;Node6</title>
<path fill="none" stroke="midnightblue" d="M585.38,-56.44C555.66,-46.89 507.58,-31.44 475.88,-21.25"/>
<polygon fill="midnightblue" stroke="midnightblue" points="476.79,-17.86 466.2,-18.14 474.65,-24.53 476.79,-17.86"/>
</g>
<!-- Node7&#45;&gt;Node3 -->
<g id="edge7" class="edge">
<title>Node7&#45;&gt;Node3</title>
<path fill="none" stroke="midnightblue" d="M107.81,-225.54C125.95,-218.21 152.11,-205.57 170,-188 197.69,-160.81 191.93,-144.59 213,-112 219.18,-102.44 226.64,-92.18 232.9,-83.87"/>
<polygon fill="midnightblue" stroke="midnightblue" points="235.82,-85.82 239.11,-75.75 230.25,-81.57 235.82,-85.82"/>
</g>
<!-- Node8 -->
<g id="node8" class="node">
<title>Node8</title>
<g id="a_node8"><a xlink:href="tstring_8h.html" target="_top" xlink:title=" ">
<polygon fill="white" stroke="black" points="323.5,-168.5 323.5,-187.5 380.5,-187.5 380.5,-168.5 323.5,-168.5"/>
<text text-anchor="middle" x="352" y="-175.5" font-family="Helvetica,sans-Serif" font-size="10.00">tstring.h</text>
</a>
</g>
</g>
<!-- Node7&#45;&gt;Node8 -->
<g id="edge8" class="edge">
<title>Node7&#45;&gt;Node8</title>
<path fill="none" stroke="midnightblue" d="M107.58,-226.52C110.72,-225.62 113.94,-224.75 117,-224 185.45,-207.22 266.4,-192.92 313.2,-185.18"/>
<polygon fill="midnightblue" stroke="midnightblue" points="313.92,-188.61 323.22,-183.54 312.78,-181.7 313.92,-188.61"/>
</g>
<!-- Node8&#45;&gt;Node3 -->
<g id="edge9" class="edge">
<title>Node8&#45;&gt;Node3</title>
<path fill="none" stroke="midnightblue" d="M343.68,-168.37C325.96,-149.97 284.23,-106.67 261.47,-83.05"/>
<polygon fill="midnightblue" stroke="midnightblue" points="263.74,-80.36 254.28,-75.59 258.7,-85.22 263.74,-80.36"/>
</g>
<!-- Node8&#45;&gt;Node4 -->
<g id="edge10" class="edge">
<title>Node8&#45;&gt;Node4</title>
<path fill="none" stroke="midnightblue" d="M380.55,-174.18C417.99,-169.58 484.93,-158.18 536,-132 560.25,-119.57 583.33,-97.95 597.56,-83.08"/>
<polygon fill="midnightblue" stroke="midnightblue" points="600.26,-85.32 604.51,-75.62 595.13,-80.55 600.26,-85.32"/>
</g>
<!-- Node8&#45;&gt;Node6 -->
<g id="edge16" class="edge">
<title>Node8&#45;&gt;Node6</title>
<path fill="none" stroke="midnightblue" d="M350.72,-168.2C348.12,-146.95 344.29,-91.89 368,-56 378.43,-40.21 396.46,-29.19 412.34,-22.01"/>
<polygon fill="midnightblue" stroke="midnightblue" points="413.99,-25.11 421.87,-18.02 411.29,-18.65 413.99,-25.11"/>
</g>
<!-- Node8&#45;&gt;Node9 -->
<g id="edge11" class="edge">
<title>Node8&#45;&gt;Node9</title>
<path fill="none" stroke="midnightblue" d="M373.23,-168.44C395.38,-159.52 430.32,-145.44 455.44,-135.32"/>
<polygon fill="midnightblue" stroke="midnightblue" points="456.9,-138.5 464.87,-131.52 454.28,-132.01 456.9,-138.5"/>
</g>
<!-- Node11 -->
<g id="node11" class="node">
<title>Node11</title>
<g id="a_node11"><a xlink:title=" ">
<polygon fill="white" stroke="#bfbfbf" points="377,-56.5 377,-75.5 437,-75.5 437,-56.5 377,-56.5"/>
<text text-anchor="middle" x="407" y="-63.5" font-family="Helvetica,sans-Serif" font-size="10.00">iostream</text>
</a>
</g>
</g>
<!-- Node8&#45;&gt;Node11 -->
<g id="edge17" class="edge">
<title>Node8&#45;&gt;Node11</title>
<path fill="none" stroke="midnightblue" d="M356.32,-168.37C365.31,-150.38 386.22,-108.55 398.19,-84.63"/>
<polygon fill="midnightblue" stroke="midnightblue" points="401.36,-86.1 402.7,-75.59 395.1,-82.97 401.36,-86.1"/>
</g>
<!-- Node9&#45;&gt;Node3 -->
<g id="edge13" class="edge">
<title>Node9&#45;&gt;Node3</title>
<path fill="none" stroke="midnightblue" d="M447.97,-112.44C406.19,-103.04 339.02,-87.93 293.73,-77.74"/>
<polygon fill="midnightblue" stroke="midnightblue" points="294.38,-74.3 283.85,-75.52 292.84,-81.13 294.38,-74.3"/>
</g>
<!-- Node9&#45;&gt;Node4 -->
<g id="edge12" class="edge">
<title>Node9&#45;&gt;Node4</title>
<path fill="none" stroke="midnightblue" d="M505.97,-112.44C526.61,-103.6 559.06,-89.69 582.63,-79.59"/>
<polygon fill="midnightblue" stroke="midnightblue" points="584.32,-82.67 592.13,-75.52 581.56,-76.24 584.32,-82.67"/>
</g>
<!-- Node10 -->
<g id="node10" class="node">
<title>Node10</title>
<g id="a_node10"><a xlink:title=" ">
<polygon fill="white" stroke="#bfbfbf" points="462.5,-56.5 462.5,-75.5 509.5,-75.5 509.5,-56.5 462.5,-56.5"/>
<text text-anchor="middle" x="486" y="-63.5" font-family="Helvetica,sans-Serif" font-size="10.00">vector</text>
</a>
</g>
</g>
<!-- Node9&#45;&gt;Node10 -->
<g id="edge14" class="edge">
<title>Node9&#45;&gt;Node10</title>
<path fill="none" stroke="midnightblue" d="M486,-112.08C486,-105.01 486,-94.86 486,-85.99"/>
<polygon fill="midnightblue" stroke="midnightblue" points="489.5,-85.75 486,-75.75 482.5,-85.75 489.5,-85.75"/>
</g>
<!-- Node9&#45;&gt;Node11 -->
<g id="edge15" class="edge">
<title>Node9&#45;&gt;Node11</title>
<path fill="none" stroke="midnightblue" d="M473.31,-112.32C461.1,-103.98 442.42,-91.21 428,-81.35"/>
<polygon fill="midnightblue" stroke="midnightblue" points="429.89,-78.41 419.66,-75.65 425.94,-84.19 429.89,-78.41"/>
</g>
<!-- Node12&#45;&gt;Node3 -->
<g id="edge20" class="edge">
<title>Node12&#45;&gt;Node3</title>
<path fill="none" stroke="midnightblue" d="M467.17,-168.37C425.11,-149.09 323.35,-102.45 273.9,-79.79"/>
<polygon fill="midnightblue" stroke="midnightblue" points="275.29,-76.58 264.74,-75.59 272.38,-82.94 275.29,-76.58"/>
</g>
<!-- Node12&#45;&gt;Node4 -->
<g id="edge21" class="edge">
<title>Node12&#45;&gt;Node4</title>
<path fill="none" stroke="midnightblue" d="M508.3,-168.48C526.17,-160.87 551.11,-148.39 569,-132 583.77,-118.47 595.84,-98.85 603.39,-84.7"/>
<polygon fill="midnightblue" stroke="midnightblue" points="606.64,-86.04 608.07,-75.54 600.4,-82.86 606.64,-86.04"/>
</g>
<!-- Node12&#45;&gt;Node9 -->
<g id="edge22" class="edge">
<title>Node12&#45;&gt;Node9</title>
<path fill="none" stroke="midnightblue" d="M486,-168.08C486,-161.01 486,-150.86 486,-141.99"/>
<polygon fill="midnightblue" stroke="midnightblue" points="489.5,-141.75 486,-131.75 482.5,-141.75 489.5,-141.75"/>
</g>
<!-- Node13&#45;&gt;Node3 -->
<g id="edge24" class="edge">
<title>Node13&#45;&gt;Node3</title>
<path fill="none" stroke="midnightblue" d="M117.47,-168.4C129.04,-155.35 152.33,-130.15 175,-112 189.67,-100.25 207.55,-88.94 221.7,-80.59"/>
<polygon fill="midnightblue" stroke="midnightblue" points="223.48,-83.6 230.38,-75.56 219.97,-77.54 223.48,-83.6"/>
</g>
<!-- Node14&#45;&gt;Node2 -->
<g id="edge28" class="edge">
<title>Node14&#45;&gt;Node2</title>
<path fill="none" stroke="midnightblue" d="M374.74,-336.08C367.54,-328.3 356.89,-316.8 348.15,-307.37"/>
<polygon fill="midnightblue" stroke="midnightblue" points="350.47,-304.71 341.1,-299.75 345.33,-309.47 350.47,-304.71"/>
</g>
<!-- Node14&#45;&gt;Node3 -->
<g id="edge34" class="edge">
<title>Node14&#45;&gt;Node3</title>
<path fill="none" stroke="midnightblue" d="M355.8,-336.4C337.92,-329.37 315.43,-317.68 302,-300 275.96,-265.73 255.43,-134.65 248.52,-85.64"/>
<polygon fill="midnightblue" stroke="midnightblue" points="251.95,-84.95 247.12,-75.52 245.02,-85.91 251.95,-84.95"/>
</g>
<!-- Node14&#45;&gt;Node4 -->
<g id="edge27" class="edge">
<title>Node14&#45;&gt;Node4</title>
<path fill="none" stroke="midnightblue" d="M426.38,-344.33C545.18,-341.34 867,-324.94 867,-235 867,-235 867,-235 867,-177 867,-83.22 719.78,-68.44 649.06,-66.76"/>
<polygon fill="midnightblue" stroke="midnightblue" points="648.86,-63.25 638.81,-66.59 648.75,-70.25 648.86,-63.25"/>
</g>
<!-- Node14&#45;&gt;Node8 -->
<g id="edge29" class="edge">
<title>Node14&#45;&gt;Node8</title>
<path fill="none" stroke="midnightblue" d="M381.33,-336.08C376.45,-309.95 362.12,-233.21 355.47,-197.58"/>
<polygon fill="midnightblue" stroke="midnightblue" points="358.88,-196.76 353.6,-187.57 352,-198.04 358.88,-196.76"/>
</g>
<!-- Node15 -->
<g id="node15" class="node">
<title>Node15</title>
<g id="a_node15"><a xlink:href="tlist_8h.html" target="_top" xlink:title=" ">
<polygon fill="white" stroke="black" points="713,-280.5 713,-299.5 757,-299.5 757,-280.5 713,-280.5"/>
<text text-anchor="middle" x="735" y="-287.5" font-family="Helvetica,sans-Serif" font-size="10.00">tlist.h</text>
</a>
</g>
</g>
<!-- Node14&#45;&gt;Node15 -->
<g id="edge30" class="edge">
<title>Node14&#45;&gt;Node15</title>
<path fill="none" stroke="midnightblue" d="M426.16,-338.38C497.66,-327.41 639.09,-305.71 702.69,-295.96"/>
<polygon fill="midnightblue" stroke="midnightblue" points="703.56,-299.36 712.91,-294.39 702.5,-292.45 703.56,-299.36"/>
</g>
<!-- Node18 -->
<g id="node18" class="node">
<title>Node18</title>
<g id="a_node18"><a xlink:title=" ">
<polygon fill="white" stroke="#bfbfbf" points="411,-280.5 411,-299.5 475,-299.5 475,-280.5 411,-280.5"/>
<text text-anchor="middle" x="443" y="-287.5" font-family="Helvetica,sans-Serif" font-size="10.00">algorithm</text>
</a>
</g>
</g>
<!-- Node14&#45;&gt;Node18 -->
<g id="edge35" class="edge">
<title>Node14&#45;&gt;Node18</title>
<path fill="none" stroke="midnightblue" d="M392.64,-336.32C401.51,-328.34 414.87,-316.31 425.61,-306.65"/>
<polygon fill="midnightblue" stroke="midnightblue" points="428.09,-309.13 433.18,-299.83 423.41,-303.92 428.09,-309.13"/>
</g>
<!-- Node15&#45;&gt;Node4 -->
<g id="edge31" class="edge">
<title>Node15&#45;&gt;Node4</title>
<path fill="none" stroke="midnightblue" d="M733.29,-280.3C726.95,-248.63 704.01,-139.88 683,-112 672.55,-98.14 656.49,-87.44 642.28,-79.96"/>
<polygon fill="midnightblue" stroke="midnightblue" points="643.8,-76.81 633.29,-75.51 640.7,-83.09 643.8,-76.81"/>
</g>
<!-- Node16 -->
<g id="node16" class="node">
<title>Node16</title>
<g id="a_node16"><a xlink:title=" ">
<polygon fill="white" stroke="#bfbfbf" points="807,-224.5 807,-243.5 839,-243.5 839,-224.5 807,-224.5"/>
<text text-anchor="middle" x="823" y="-231.5" font-family="Helvetica,sans-Serif" font-size="10.00">list</text>
</a>
</g>
</g>
<!-- Node15&#45;&gt;Node16 -->
<g id="edge32" class="edge">
<title>Node15&#45;&gt;Node16</title>
<path fill="none" stroke="midnightblue" d="M749.14,-280.32C762.87,-271.9 783.94,-258.97 800.06,-249.07"/>
<polygon fill="midnightblue" stroke="midnightblue" points="802.2,-251.87 808.9,-243.65 798.54,-245.9 802.2,-251.87"/>
</g>
<!-- Node17 -->
<g id="node17" class="node">
<title>Node17</title>
<g id="a_node17"><a xlink:title=" ">
<polygon fill="white" stroke="#bfbfbf" points="735.5,-224.5 735.5,-243.5 788.5,-243.5 788.5,-224.5 735.5,-224.5"/>
<text text-anchor="middle" x="762" y="-231.5" font-family="Helvetica,sans-Serif" font-size="10.00">tlist.tcc</text>
</a>
</g>
</g>
<!-- Node15&#45;&gt;Node17 -->
<g id="edge33" class="edge">
<title>Node15&#45;&gt;Node17</title>
<path fill="none" stroke="midnightblue" d="M739.46,-280.08C743.15,-272.69 748.52,-261.95 753.09,-252.81"/>
<polygon fill="midnightblue" stroke="midnightblue" points="756.28,-254.26 757.62,-243.75 750.02,-251.13 756.28,-254.26"/>
</g>
<!-- Node19&#45;&gt;Node7 -->
<g id="edge37" class="edge">
<title>Node19&#45;&gt;Node7</title>
<path fill="none" stroke="midnightblue" d="M102.67,-336.37C99.92,-318.62 93.59,-277.67 89.87,-253.6"/>
<polygon fill="midnightblue" stroke="midnightblue" points="93.31,-252.94 88.33,-243.59 86.4,-254.01 93.31,-252.94"/>
</g>
<!-- Node20&#45;&gt;Node4 -->
<g id="edge39" class="edge">
<title>Node20&#45;&gt;Node4</title>
<path fill="none" stroke="midnightblue" d="M216.8,-230.85C301.07,-226.3 477.11,-213.95 532,-188 564.68,-172.55 571.74,-162.59 591,-132 599.99,-117.73 605.47,-99.26 608.57,-85.66"/>
<polygon fill="midnightblue" stroke="midnightblue" points="612.05,-86.07 610.63,-75.58 605.2,-84.67 612.05,-86.07"/>
</g>
<!-- Node20&#45;&gt;Node8 -->
<g id="edge40" class="edge">
<title>Node20&#45;&gt;Node8</title>
<path fill="none" stroke="midnightblue" d="M199.68,-224.44C230.53,-215.24 279.73,-200.56 313.83,-190.39"/>
<polygon fill="midnightblue" stroke="midnightblue" points="314.87,-193.73 323.45,-187.52 312.87,-187.02 314.87,-193.73"/>
</g>
<!-- Node20&#45;&gt;Node13 -->
<g id="edge41" class="edge">
<title>Node20&#45;&gt;Node13</title>
<path fill="none" stroke="midnightblue" d="M161.2,-224.32C152.18,-216.34 138.59,-204.31 127.68,-194.65"/>
<polygon fill="midnightblue" stroke="midnightblue" points="129.79,-191.84 119.98,-187.83 125.15,-197.08 129.79,-191.84"/>
</g>
</g>
</svg>
