<?xml version="1.0" encoding="UTF-8" standalone="no"?>
<!DOCTYPE svg PUBLIC "-//W3C//DTD SVG 1.1//EN"
 "http://www.w3.org/Graphics/SVG/1.1/DTD/svg11.dtd">
<!-- Generated by graphviz version 2.46.1 (20210213.1702)
 -->
<!-- Title: xmproperties.h Pages: 1 -->
<svg width="361pt" height="252pt"
 viewBox="0.00 0.00 361.00 252.00" xmlns="http://www.w3.org/2000/svg" xmlns:xlink="http://www.w3.org/1999/xlink">
<g id="graph0" class="graph" transform="scale(1 1) rotate(0) translate(4 248)">
<title>xmproperties.h</title>
<polygon fill="white" stroke="transparent" points="-4,4 -4,-248 357,-248 357,4 -4,4"/>
<!-- Node1 -->
<g id="node1" class="node">
<title>Node1</title>
<g id="a_node1"><a xlink:title=" ">
<polygon fill="#bfbfbf" stroke="black" points="209,-224.5 209,-243.5 290,-243.5 290,-224.5 209,-224.5"/>
<text text-anchor="middle" x="249.5" y="-231.5" font-family="Helvetica,sans-Serif" font-size="10.00">xmproperties.h</text>
</a>
</g>
</g>
<!-- Node2 -->
<g id="node2" class="node">
<title>Node2</title>
<g id="a_node2"><a xlink:href="taglib_8h.html" target="_top" xlink:title=" ">
<polygon fill="white" stroke="black" points="256.5,-56.5 256.5,-75.5 304.5,-75.5 304.5,-56.5 256.5,-56.5"/>
<text text-anchor="middle" x="280.5" y="-63.5" font-family="Helvetica,sans-Serif" font-size="10.00">taglib.h</text>
</a>
</g>
</g>
<!-- Node1&#45;&gt;Node2 -->
<g id="edge1" class="edge">
<title>Node1&#45;&gt;Node2</title>
<path fill="none" stroke="midnightblue" d="M259.06,-224.45C267.59,-216.12 279.49,-202.6 284.5,-188 296.4,-153.33 290.23,-109.75 285.09,-85.48"/>
<polygon fill="midnightblue" stroke="midnightblue" points="288.45,-84.48 282.8,-75.52 281.63,-86.05 288.45,-84.48"/>
</g>
<!-- Node5 -->
<g id="node5" class="node">
<title>Node5</title>
<g id="a_node5"><a xlink:href="tstring_8h.html" target="_top" xlink:title=" ">
<polygon fill="white" stroke="black" points="223.5,-168.5 223.5,-187.5 275.5,-187.5 275.5,-168.5 223.5,-168.5"/>
<text text-anchor="middle" x="249.5" y="-175.5" font-family="Helvetica,sans-Serif" font-size="10.00">tstring.h</text>
</a>
</g>
</g>
<!-- Node1&#45;&gt;Node5 -->
<g id="edge4" class="edge">
<title>Node1&#45;&gt;Node5</title>
<path fill="none" stroke="midnightblue" d="M249.5,-224.08C249.5,-217.01 249.5,-206.86 249.5,-197.99"/>
<polygon fill="midnightblue" stroke="midnightblue" points="253,-197.75 249.5,-187.75 246,-197.75 253,-197.75"/>
</g>
<!-- Node10 -->
<g id="node10" class="node">
<title>Node10</title>
<g id="a_node10"><a xlink:href="audioproperties_8h.html" target="_top" xlink:title=" ">
<polygon fill="white" stroke="black" points="0,-112.5 0,-131.5 91,-131.5 91,-112.5 0,-112.5"/>
<text text-anchor="middle" x="45.5" y="-119.5" font-family="Helvetica,sans-Serif" font-size="10.00">audioproperties.h</text>
</a>
</g>
</g>
<!-- Node1&#45;&gt;Node10 -->
<g id="edge14" class="edge">
<title>Node1&#45;&gt;Node10</title>
<path fill="none" stroke="midnightblue" d="M233.49,-224.37C198.04,-205.25 112.69,-159.23 70.28,-136.36"/>
<polygon fill="midnightblue" stroke="midnightblue" points="71.9,-133.26 61.43,-131.59 68.57,-139.42 71.9,-133.26"/>
</g>
<!-- Node3 -->
<g id="node3" class="node">
<title>Node3</title>
<g id="a_node3"><a xlink:title=" ">
<polygon fill="white" stroke="#bfbfbf" points="213.5,-0.5 213.5,-19.5 293.5,-19.5 293.5,-0.5 213.5,-0.5"/>
<text text-anchor="middle" x="253.5" y="-7.5" font-family="Helvetica,sans-Serif" font-size="10.00">taglib_config.h</text>
</a>
</g>
</g>
<!-- Node2&#45;&gt;Node3 -->
<g id="edge2" class="edge">
<title>Node2&#45;&gt;Node3</title>
<path fill="none" stroke="midnightblue" d="M276.04,-56.08C272.35,-48.69 266.98,-37.95 262.41,-28.81"/>
<polygon fill="midnightblue" stroke="midnightblue" points="265.48,-27.13 257.88,-19.75 259.22,-30.26 265.48,-27.13"/>
</g>
<!-- Node4 -->
<g id="node4" class="node">
<title>Node4</title>
<g id="a_node4"><a xlink:title=" ">
<polygon fill="white" stroke="#bfbfbf" points="312,-0.5 312,-19.5 353,-19.5 353,-0.5 312,-0.5"/>
<text text-anchor="middle" x="332.5" y="-7.5" font-family="Helvetica,sans-Serif" font-size="10.00">string</text>
</a>
</g>
</g>
<!-- Node2&#45;&gt;Node4 -->
<g id="edge3" class="edge">
<title>Node2&#45;&gt;Node4</title>
<path fill="none" stroke="midnightblue" d="M289.09,-56.08C296.66,-48.22 307.88,-36.57 317.01,-27.08"/>
<polygon fill="midnightblue" stroke="midnightblue" points="319.66,-29.38 324.07,-19.75 314.62,-24.53 319.66,-29.38"/>
</g>
<!-- Node5&#45;&gt;Node2 -->
<g id="edge6" class="edge">
<title>Node5&#45;&gt;Node2</title>
<path fill="none" stroke="midnightblue" d="M252.3,-168.41C255.22,-159.38 259.85,-144.74 263.5,-132 267.92,-116.56 272.5,-98.93 275.79,-85.93"/>
<polygon fill="midnightblue" stroke="midnightblue" points="279.28,-86.42 278.32,-75.87 272.49,-84.71 279.28,-86.42"/>
</g>
<!-- Node5&#45;&gt;Node4 -->
<g id="edge12" class="edge">
<title>Node5&#45;&gt;Node4</title>
<path fill="none" stroke="midnightblue" d="M255.36,-168.44C261.49,-159.44 271.33,-144.83 279.5,-132 295.13,-107.44 301.76,-102.65 313.5,-76 320.17,-60.87 325.24,-42.75 328.46,-29.49"/>
<polygon fill="midnightblue" stroke="midnightblue" points="331.89,-30.19 330.73,-19.66 325.07,-28.62 331.89,-30.19"/>
</g>
<!-- Node6 -->
<g id="node6" class="node">
<title>Node6</title>
<g id="a_node6"><a xlink:href="taglib__export_8h.html" target="_top" xlink:title=" ">
<polygon fill="white" stroke="black" points="24.5,-56.5 24.5,-75.5 104.5,-75.5 104.5,-56.5 24.5,-56.5"/>
<text text-anchor="middle" x="64.5" y="-63.5" font-family="Helvetica,sans-Serif" font-size="10.00">taglib_export.h</text>
</a>
</g>
</g>
<!-- Node5&#45;&gt;Node6 -->
<g id="edge5" class="edge">
<title>Node5&#45;&gt;Node6</title>
<path fill="none" stroke="midnightblue" d="M223.2,-169.12C199.93,-161.52 165.57,-148.71 138.5,-132 115.91,-118.06 93.5,-97.12 79.37,-82.8"/>
<polygon fill="midnightblue" stroke="midnightblue" points="81.88,-80.37 72.41,-75.61 76.85,-85.23 81.88,-80.37"/>
</g>
<!-- Node7 -->
<g id="node7" class="node">
<title>Node7</title>
<g id="a_node7"><a xlink:href="tbytevector_8h.html" target="_top" xlink:title=" ">
<polygon fill="white" stroke="black" points="148,-112.5 148,-131.5 221,-131.5 221,-112.5 148,-112.5"/>
<text text-anchor="middle" x="184.5" y="-119.5" font-family="Helvetica,sans-Serif" font-size="10.00">tbytevector.h</text>
</a>
</g>
</g>
<!-- Node5&#45;&gt;Node7 -->
<g id="edge7" class="edge">
<title>Node5&#45;&gt;Node7</title>
<path fill="none" stroke="midnightblue" d="M239.06,-168.32C229.35,-160.26 214.68,-148.08 203,-138.37"/>
<polygon fill="midnightblue" stroke="midnightblue" points="205.06,-135.53 195.13,-131.83 200.59,-140.92 205.06,-135.53"/>
</g>
<!-- Node9 -->
<g id="node9" class="node">
<title>Node9</title>
<g id="a_node9"><a xlink:title=" ">
<polygon fill="white" stroke="#bfbfbf" points="184.5,-56.5 184.5,-75.5 238.5,-75.5 238.5,-56.5 184.5,-56.5"/>
<text text-anchor="middle" x="211.5" y="-63.5" font-family="Helvetica,sans-Serif" font-size="10.00">iostream</text>
</a>
</g>
</g>
<!-- Node5&#45;&gt;Node9 -->
<g id="edge13" class="edge">
<title>Node5&#45;&gt;Node9</title>
<path fill="none" stroke="midnightblue" d="M247.35,-168.49C244.11,-155.97 237.6,-131.94 230.5,-112 227.26,-102.9 223.14,-92.99 219.57,-84.79"/>
<polygon fill="midnightblue" stroke="midnightblue" points="222.7,-83.22 215.44,-75.51 216.31,-86.07 222.7,-83.22"/>
</g>
<!-- Node7&#45;&gt;Node2 -->
<g id="edge8" class="edge">
<title>Node7&#45;&gt;Node2</title>
<path fill="none" stroke="midnightblue" d="M199.92,-112.32C215.04,-103.82 238.32,-90.73 255.97,-80.8"/>
<polygon fill="midnightblue" stroke="midnightblue" points="258.11,-83.61 265.11,-75.65 254.68,-77.51 258.11,-83.61"/>
</g>
<!-- Node7&#45;&gt;Node6 -->
<g id="edge9" class="edge">
<title>Node7&#45;&gt;Node6</title>
<path fill="none" stroke="midnightblue" d="M165.49,-112.44C145.91,-103.64 115.19,-89.81 92.77,-79.72"/>
<polygon fill="midnightblue" stroke="midnightblue" points="93.98,-76.43 83.43,-75.52 91.11,-82.81 93.98,-76.43"/>
</g>
<!-- Node8 -->
<g id="node8" class="node">
<title>Node8</title>
<g id="a_node8"><a xlink:title=" ">
<polygon fill="white" stroke="#bfbfbf" points="122.5,-56.5 122.5,-75.5 166.5,-75.5 166.5,-56.5 122.5,-56.5"/>
<text text-anchor="middle" x="144.5" y="-63.5" font-family="Helvetica,sans-Serif" font-size="10.00">vector</text>
</a>
</g>
</g>
<!-- Node7&#45;&gt;Node8 -->
<g id="edge10" class="edge">
<title>Node7&#45;&gt;Node8</title>
<path fill="none" stroke="midnightblue" d="M177.89,-112.08C172.24,-104.46 163.96,-93.26 157.05,-83.94"/>
<polygon fill="midnightblue" stroke="midnightblue" points="159.75,-81.7 150.98,-75.75 154.12,-85.87 159.75,-81.7"/>
</g>
<!-- Node7&#45;&gt;Node9 -->
<g id="edge11" class="edge">
<title>Node7&#45;&gt;Node9</title>
<path fill="none" stroke="midnightblue" d="M188.96,-112.08C192.65,-104.69 198.02,-93.95 202.59,-84.81"/>
<polygon fill="midnightblue" stroke="midnightblue" points="205.78,-86.26 207.12,-75.75 199.52,-83.13 205.78,-86.26"/>
</g>
<!-- Node10&#45;&gt;Node6 -->
<g id="edge15" class="edge">
<title>Node10&#45;&gt;Node6</title>
<path fill="none" stroke="midnightblue" d="M48.64,-112.08C51.18,-104.85 54.86,-94.41 58.03,-85.4"/>
<polygon fill="midnightblue" stroke="midnightblue" points="61.4,-86.35 61.42,-75.75 54.8,-84.02 61.4,-86.35"/>
</g>
</g>
</svg>
